<svg width="4416" height="4160" xmlns="http://www.w3.org/2000/svg">
<g transform="scale(1.0)">
<g id="180606826" order="1" parent_id="" graphic_group_label_id="28" graphic_group_label="Atlas - Adult Mouse" sub_image_id="100960508" transform=" scale(1.0, 1.0)"><path id="180606828" parent_id="180606826" order="0" structure_id="8" d="M3751.347,3027.62
			c-55.564,55.692-115.248,106.116-159.809,145.322c-155.415,136.677-393.859,206.423-603.611,214.414
			c-262.864,10.01-459.564-129.291-624.559-318.188c-137.332-157.214-254.049-319.098-302.089-524.875
			c-21.78-93.291-34.805-193.742-19.485-287.441c13.788-84.331,31.19-168.11,49.795-250.749
			c18.435-81.848,40.587-160.109,65.114-240.282c89.99-294.151,154.329-733.966,484.479-860.591
			c128.948-49.455,215.2-84.248,355.31-67.099c148.939,18.228,302.683,106.903,421.869,191.552
			c144.358,102.524,280.029,237.127,343.362,405.569c68.523,182.253,101.93,348.271,118.467,540.078
			c12.219,141.72-28.247,270.84-27.53,410.785c0.701,136.504,81.174,268.631,52.343,409.904
			C3889.2,2873.413,3823.776,2955,3751.347,3027.62z" style="stroke:black;fill:#bfdae3"/><path id="180606829" parent_id="180606826" order="1" structure_id="688" d="M3852.663,2386.11
			c-0.72-139.943,39.747-269.062,27.53-410.784c-16.539-191.807-49.949-357.82-118.472-540.072
			c-63.33-168.443-199.001-303.047-343.361-405.569c-119.183-84.645-272.93-173.324-421.867-191.551
			c-140.111-17.148-226.363,17.646-355.306,67.101c-330.154,126.625-394.488,566.438-484.479,860.588
			c-24.529,80.168-46.676,158.437-65.113,240.283c-18.607,82.636-36.008,166.418-49.796,250.747
			c-15.315,93.698-2.292,194.149,19.486,287.441c48.041,205.775,164.757,367.659,302.087,524.871
			c164.998,188.896,361.696,328.196,624.563,318.187c209.746-7.995,448.195-77.741,603.604-214.415
			c44.563-39.205,104.242-89.63,159.812-145.322c72.429-72.621,137.85-154.205,153.648-231.602
			C3933.838,2654.741,3853.364,2522.615,3852.663,2386.11z M3010.117,1858.676c-2.297,20.675-15.792,42.655-25.506,60.69
			c-17.556,32.61-20.459,71.163-33.176,105.66c-2.388,6.482-26.937,64.603-33.773,35.939c-4.697-19.693,12.706-50.521,18.398-69.353
			c16.625-55.012,19.34-112.136,13.561-169.11c-1.255-12.351-11.236-104.61,18.114-96.797c26.633,7.096,31.289,65.112,34.632,86.241
			C3004.787,1827.333,3011.848,1843.046,3010.117,1858.676z" style="stroke:black;fill:#b0ffb8"/><path id="180606830" parent_id="180606826" order="2" structure_id="698" d="M3852.663,2386.11
			c-0.72-139.943,39.747-269.062,27.53-410.784c-16.539-191.807-49.949-357.82-118.472-540.072
			c-63.33-168.443-199.001-303.047-343.361-405.569c-119.183-84.645-272.93-173.324-421.867-191.551
			c-140.111-17.148-226.363,17.646-355.306,67.101c-330.154,126.625-394.488,566.438-484.479,860.588
			c-24.529,80.168-46.676,158.437-65.113,240.283c-18.607,82.636-36.008,166.418-49.796,250.747
			c-15.315,93.698-2.292,194.149,19.486,287.441c48.041,205.775,164.757,367.659,302.087,524.871
			c164.998,188.896,361.696,328.196,624.563,318.187c209.746-7.995,448.195-77.741,603.604-214.415
			c44.563-39.205,104.242-89.63,159.812-145.322c72.429-72.621,137.85-154.205,153.648-231.602
			C3933.838,2654.741,3853.364,2522.615,3852.663,2386.11z M3010.117,1858.676c-2.297,20.675-15.792,42.655-25.506,60.69
			c-17.556,32.61-20.459,71.163-33.176,105.66c-2.388,6.482-26.937,64.603-33.773,35.939c-4.697-19.693,12.706-50.521,18.398-69.353
			c16.625-55.012,19.34-112.136,13.561-169.11c-1.255-12.351-11.236-104.61,18.114-96.797c26.633,7.096,31.289,65.112,34.632,86.241
			C3004.787,1827.333,3011.848,1843.046,3010.117,1858.676z" style="stroke:black;fill:#9ad2bd"/><path id="180606831" parent_id="180606826" order="3" structure_id="507" d="M3852.66,2386.114
			c-0.717-139.944,39.749-269.064,27.53-410.785c-16.537-191.807-49.943-357.825-118.467-540.078
			c-63.333-168.442-199.004-303.044-343.362-405.569c-119.187-84.649-272.93-173.324-421.869-191.552
			c-140.109-17.148-226.361,17.645-355.31,67.099c-330.149,126.625-394.488,566.44-484.479,860.591
			c-24.527,80.173-46.68,158.435-65.114,240.282c-18.605,82.638-36.007,166.417-49.795,250.749
			c-15.32,93.699-2.295,194.15,19.485,287.441c48.04,205.777,164.757,367.661,302.089,524.875
			c164.994,188.897,361.694,328.198,624.559,318.188c209.752-7.991,448.196-77.737,603.611-214.414
			c44.561-39.206,104.244-89.63,159.809-145.322c72.43-72.62,137.854-154.207,153.656-231.602
			C3933.834,2654.745,3853.361,2522.618,3852.66,2386.114z M3010.117,1858.676c-2.297,20.675-15.792,42.655-25.506,60.69
			c-17.556,32.61-20.459,71.163-33.176,105.66c-2.388,6.482-26.937,64.603-33.773,35.939c-4.697-19.693,12.706-50.521,18.398-69.353
			c16.625-55.012,19.34-112.136,13.561-169.11c-1.255-12.351-11.236-104.61,18.114-96.797c26.633,7.096,31.289,65.112,34.632,86.241
			C3004.787,1827.333,3011.848,1843.046,3010.117,1858.676z" style="stroke:black;fill:#9ad2bd"/><path id="180606832" parent_id="180606826" order="4" structure_id="212" d="
			M3688.895,1935.246c-15.652,103.11-55.713,200.264-105.445,291.301c-42.327,77.474-119.521,126.389-179.649,192.152
			c-47.8,52.28-96.192,96.797-130.434,158.838c-25.137,45.553-64.137,76.006-81.879,128.044
			c-18.764,55.044-22.538,97.372-57.729,146.378c-35.598,49.584-73.819,99.323-97.208,156.328
			c-7.942,19.323-10.326,44.018-25.888,58.954c-15.282,14.684-43.683,19.566-61.839,30.995
			c-151.162,95.149-302.906,16.502-424.104-88.651c-102.083-88.583-115.854-204.464-138.964-331.028
			c-14.222-77.806-22.514-145.197-14.674-224.261c5.024-50.6,41.282-87.007,52.12-135.598c8.219-36.796-1.938-76.362-5.454-113.06
			c-5.847-60.756,47.601-109.014,55.7-172.462c7.229-56.667-24.485-111.372-14.75-168.641c5.271-30.994,30.354-48.514,40.788-76.707
			c16.546-44.733-28.934-72.739-29.539-116.384c-0.344-24.082,5.516-38.365-0.26-62.703
			c-14.297-60.254-22.775-106.851-12.95-169.652c7.297-46.632,1.8-92.063,7.321-138.238c4.662-39.022,20.137-84.453,32.436-121.844
			c15.275-46.415,53.765-73.963,82.223-111.913c62.24-82.993,182.606-122.239,282.567-130.735
			c249.563-21.212,492.888,161.514,638.665,347.51C3643.746,1467.34,3724.34,1701.81,3688.895,1935.246z M3499.443,2668.794
			c23.472-38.73,43.373-79.991,66.076-123.827c52.277-100.933,118.779-192.808,169.649-294.696
			c33.494-67.084,54.141-143.71,76.956-215.081c20.312-63.537,0.972-123.962-3.367-188.789
			c-4.912-73.233,3.891-146.281-7.566-219.143c-18.731-119.149-52.36-247.438-122.639-346.476
			c-70.177-98.9-161.707-181.152-260.193-251.104c-119.183-84.651-272.929-173.332-421.867-191.559
			c-140.112-17.149-226.355,17.642-355.306,67.098c-207.69,79.658-280.01,261.845-311.715,466.651
			c-10.721,69.288-32.137,137.013-35.761,207.34c-2.568,49.747,2.542,99.416,3.212,149.14
			c0.606,45.567-12.957,89.303-17.743,134.363c-5.322,50.169-7.141,98.315,0.258,147.51c13.831,91.995-8.614,184.053-28.821,273.314
			c-10.372,45.851-27.447,91.611-23.489,138.298c3.127,36.827,1.538,73.675,2.898,110.145
			c4.075,108.956,16.191,223.69,60.983,323.938c18.934,42.373,22.241,78.028,30.722,124.096
			c14.706,79.862,96.793,152.982,153.96,204.018c52.645,46.991,110.97,82.686,171.534,118.225
			c52.324,30.705,112.007,56.985,173.785,59.227c34.702,1.26,56.82-15.614,71.902-43.742c18.06-33.664,45.105-58.237,75.454-80.824
			c48.508-36.075,110.887-64.102,153.934-106.063c37.192-36.27,76.839-74.429,108.237-116.368
			c37.965-50.718,74.263-102.663,112.443-153.22C3392.786,2795.33,3456.892,2738.988,3499.443,2668.794z" style="stroke:black;fill:#82c7ae"/><path id="180606836" parent_id="180606826" order="5" structure_id="220" d="
			M3149.019,2237.226c-71.312,68.26-125.924,152.021-163.423,243.131c-38.463,93.421-41.831,194.043-75.527,287.603
			c-32.098,89.128-82.566,175.358-193.033,149.372c-143.426-33.753-192.512-214.32-164.151-342.567
			c23.071-104.321,75.582-199.94,121.207-295.538c91.808-192.336,81.674-416.805,34.491-619.849
			c-37.288-160.435-68.854-462.667,161.512-495.247c97.306-13.754,155.93,61.419,212.45,127.509
			c141.093,165.023,293.688,353.062,329.764,574.07c7.159,43.853,19.634,100.341-0.18,142.497
			c-32.356,68.839-96.385,109.534-158.633,148.458C3213.89,2181.433,3179.993,2207.569,3149.019,2237.226z M2949.621,1822.503
			c5.779,56.974,3.064,114.098-13.561,169.11c-5.692,18.833-23.096,49.66-18.398,69.353c6.837,28.663,31.386-29.457,33.773-35.939
			c12.717-34.497,15.62-73.05,33.176-105.66c9.714-18.035,23.209-40.015,25.506-60.69c1.73-15.63-5.33-31.343-7.75-46.729
			c-3.343-21.129-7.999-79.146-34.632-86.241C2938.385,1717.893,2948.366,1810.152,2949.621,1822.503z" style="stroke:black;fill:#82c7ae"/><path id="180606835" parent_id="180606826" order="6" structure_id="228" d="M2687.868,2924.903
			c92.822,46.334,186.992,12.42,232.052-79.776c24.541-50.224,37.544-104.957,47.648-159.602
			c13.742-74.292,34.662-150.021,66.143-218.775c34.701-75.813,83.762-149.271,145.335-207.188
			c21.292-20.026,44.085-38.197,68.291-53.961c44.828-29.206,94.51-51.846,137.47-83.51
			c56.055-41.315,92.801-107.772,94.948-178.939c2.93-96.605-25.469-201.462-72.435-285.729
			c-45.859-82.265-112.84-149.942-164.625-228.191c-23.736-35.856-45.11-72.65-72.821-104.873
			c-27.371-31.825-41.902-72.701-72.517-102.461c-42.426-41.23-87.012-88.786-143.474-110.344
			c-71.416-27.266-146.174-12.48-203.303,38.037c-67.063,59.304-84.117,150.035-95.031,233.959
			c-7.208,55.502-2.854,111.311,6.068,166.314c9.638,59.503,22.215,118.604,33.704,177.764
			c19.751,101.658,35.644,205.477,21.674,309.033c-13.645,101.115-47.598,196.999-92.866,287.999
			c-46.596,93.663-101.226,188.686-104.248,296.048C2516.489,2741.015,2577.044,2869.58,2687.868,2924.903z M2552.884,2574.764
			c23.071-104.321,75.582-199.94,121.207-295.538c91.808-192.336,81.674-416.805,34.491-619.849
			c-37.288-160.435-68.854-462.667,161.512-495.247c97.306-13.754,155.93,61.419,212.45,127.509
			c141.093,165.023,293.688,353.062,329.764,574.07c7.159,43.853,19.634,100.341-0.18,142.497
			c-32.356,68.839-96.385,109.534-158.633,148.458c-39.605,24.77-73.502,50.906-104.477,80.563
			c-71.312,68.26-125.924,152.021-163.423,243.131c-38.463,93.421-41.831,194.043-75.527,287.603
			c-32.098,89.128-82.566,175.358-193.033,149.372C2573.609,2883.578,2524.523,2703.011,2552.884,2574.764z" style="stroke:black;fill:#9ad2bd"/><path id="180606834" parent_id="180606826" order="7" structure_id="236" d="M3146.341,2338.198
			c-46.871,60.22-80.63,132.368-109.041,205.713c-31.727,81.917-51.726,161.736-71.354,246.848
			c-15.928,69.104-28.851,127.163-87.709,172.571c-64.914,50.082-132.613,26.765-201.764,0.167
			c-60.596-23.306-109.134-67.72-144.073-121.742c-36.616-56.616-41.35-129.535-44.854-195.298
			c-9.478-178.317,111.897-328.522,168.349-490.37c17.421-49.972,22.739-106.603,30.528-158.799
			c6.645-44.498,14.709-98.808,6.663-143.532c-7.53-41.821-20.535-86.554-31.224-128.029c-7.94-30.772-18.319-61.299-24.528-92.42
			c-10.23-51.344-27.555-99.236-28.108-152.31c-1.02-97.922,9.407-198.101,59.533-284.053
			c73.594-126.188,210.514-174.59,338.117-96.034c37.782,23.257,78.606,53.367,108.706,86.138
			c64.221,69.928,115.487,148.093,171.928,224.053c55.427,74.613,115.646,145.837,159.043,228.551
			c55.068,104.963,105.658,244.133,71.905,361.762c-14.001,48.793-37.383,94.888-71.321,132.864
			c-34.135,38.212-77.934,56.968-125.553,73.917C3246.981,2234.743,3190.761,2281.114,3146.341,2338.198z M3247.337,2205.601
			c44.828-29.206,94.51-51.846,137.47-83.51c56.055-41.315,92.801-107.772,94.948-178.939
			c2.93-96.605-25.469-201.462-72.435-285.729c-45.859-82.265-112.84-149.942-164.625-228.191
			c-23.736-35.856-45.11-72.65-72.821-104.873c-27.371-31.825-41.902-72.701-72.517-102.461
			c-42.426-41.23-87.012-88.786-143.474-110.344c-71.416-27.266-146.174-12.48-203.303,38.037
			c-67.063,59.304-84.117,150.035-95.031,233.959c-7.208,55.502-2.854,111.311,6.068,166.314
			c9.638,59.503,22.215,118.604,33.704,177.764c19.751,101.658,35.644,205.477,21.674,309.033
			c-13.645,101.115-47.598,196.999-92.866,287.999c-46.596,93.663-101.226,188.686-104.248,296.048
			c-3.393,120.308,57.162,248.873,167.986,304.196c92.822,46.334,186.992,12.42,232.052-79.776
			c24.541-50.224,37.544-104.957,47.648-159.602c13.742-74.292,34.662-150.021,66.143-218.775
			c34.701-75.813,83.762-149.271,145.335-207.188C3200.338,2239.535,3223.131,2221.364,3247.337,2205.601z" style="stroke:black;fill:#82c7ae"/><path id="180606833" parent_id="180606826" order="8" structure_id="244" d="M2524.719,3009.585
			c121.198,105.153,272.942,183.801,424.104,88.651c18.156-11.429,46.557-16.312,61.839-30.995
			c15.562-14.937,17.945-39.631,25.888-58.954c23.389-57.005,61.61-106.744,97.208-156.328
			c35.191-49.006,38.966-91.334,57.729-146.378c17.742-52.038,56.742-82.491,81.879-128.044
			c34.241-62.041,82.634-106.558,130.434-158.838c60.128-65.764,137.322-114.679,179.649-192.152
			c49.732-91.037,89.793-188.191,105.445-291.301c35.445-233.436-45.148-467.906-188.946-651.375
			c-145.777-185.996-389.102-368.722-638.665-347.51c-99.961,8.496-220.327,47.742-282.567,130.735
			c-28.458,37.949-66.947,65.498-82.223,111.913c-12.299,37.392-27.773,82.822-32.436,121.844
			c-5.521,46.175-0.024,91.606-7.321,138.238c-9.825,62.801-1.347,109.398,12.95,169.652c5.775,24.337-0.084,38.621,0.26,62.703
			c0.605,43.646,46.085,71.651,29.539,116.384c-10.434,28.193-35.517,45.712-40.788,76.707
			c-9.735,57.27,21.979,111.974,14.75,168.641c-8.1,63.448-61.547,111.706-55.7,172.462c3.516,36.697,13.673,76.264,5.454,113.06
			c-10.838,48.591-47.096,84.998-52.12,135.598c-7.84,79.063,0.452,146.455,14.674,224.261
			C2408.865,2805.121,2422.636,2921.002,2524.719,3009.585z M2655.896,2156.087c17.421-49.972,22.739-106.603,30.528-158.799
			c6.645-44.498,14.709-98.808,6.663-143.532c-7.53-41.821-20.535-86.554-31.224-128.029c-7.94-30.772-18.319-61.299-24.528-92.42
			c-10.23-51.344-27.555-99.236-28.108-152.31c-1.02-97.922,9.407-198.101,59.533-284.053
			c73.594-126.188,210.514-174.59,338.117-96.034c37.782,23.257,78.606,53.367,108.706,86.138
			c64.221,69.928,115.487,148.093,171.928,224.053c55.427,74.613,115.646,145.837,159.043,228.551
			c55.068,104.963,105.658,244.133,71.905,361.762c-14.001,48.793-37.383,94.888-71.321,132.864
			c-34.135,38.212-77.934,56.968-125.553,73.917c-74.604,26.549-130.824,72.92-175.244,130.004
			c-46.871,60.22-80.63,132.368-109.041,205.713c-31.727,81.917-51.726,161.736-71.354,246.848
			c-15.928,69.104-28.851,127.163-87.709,172.571c-64.914,50.082-132.613,26.765-201.764,0.167
			c-60.596-23.306-109.134-67.72-144.073-121.742c-36.616-56.616-41.35-129.535-44.854-195.298
			C2478.069,2468.14,2599.444,2317.935,2655.896,2156.087z" style="stroke:black;fill:#9ad2bd"/><path id="180606838" parent_id="180606826" order="9" structure_id="1009" d="M3852.646,2386.109
			c-0.712-139.946,39.747-269.065,27.529-410.783c-16.539-191.808-49.94-357.824-118.462-540.076
			c-28.684-76.29-72.209-145.638-124.658-208.208c14.516,17.351,28.38,35.254,41.497,53.741
			c70.278,99.038,103.907,227.327,122.639,346.476c11.457,72.862,2.654,145.91,7.566,219.143
			c4.339,64.827,23.679,125.251,3.367,188.789c-22.815,71.371-43.462,147.997-76.956,215.081
			c-50.87,101.889-117.372,193.764-169.649,294.696c-22.703,43.836-42.604,85.097-66.076,123.827
			c-42.552,70.194-106.657,126.536-156.463,192.472c-38.181,50.557-74.479,102.502-112.443,153.22
			c-31.398,41.939-71.045,80.099-108.237,116.368c-43.047,41.962-105.426,69.988-153.934,106.063
			c-30.349,22.587-57.395,47.16-75.454,80.824c-15.082,28.128-37.2,45.002-71.902,43.742
			c-61.778-2.241-121.461-28.521-173.785-59.227c-60.564-35.539-118.89-71.233-171.534-118.225
			c-2.762-2.466-5.583-4.984-8.451-7.551c143.067,131.645,310.776,218.859,520.679,210.864
			c209.755-7.988,448.195-77.734,603.612-214.412c44.555-39.206,104.242-89.626,159.803-145.323
			c72.429-72.616,137.857-154.204,153.656-231.597C3933.82,2654.741,3853.347,2522.613,3852.646,2386.109z" style="stroke:black;fill:#cccccc"/><path id="180606839" parent_id="180606826" order="10" structure_id="1009" d="M2291.009,2855.919
			c-44.792-100.248-56.908-214.982-60.983-323.938c-1.36-36.47,0.229-73.317-2.898-110.145
			c-3.958-46.687,13.117-92.447,23.489-138.298c20.207-89.261,42.652-181.319,28.821-273.314
			c-7.398-49.195-5.58-97.341-0.258-147.51c4.786-45.06,18.35-88.796,17.743-134.363c-0.67-49.724-5.78-99.394-3.212-149.14
			c3.624-70.328,25.04-138.053,35.761-207.34c26.25-169.567,80.342-323.629,216.051-416.834
			c-248.299,167.706-308.294,547.56-388.823,810.787c-24.529,80.167-46.684,158.433-65.113,240.279
			c-18.606,82.636-36.008,166.417-49.795,250.748c-15.324,93.697-2.3,194.148,19.486,287.44
			c48.032,205.776,164.756,367.659,302.086,524.871c1.376,1.576,2.761,3.139,4.142,4.708c-22.352-29.443-39.739-61.08-45.774-93.854
			C2313.25,2933.947,2309.942,2898.292,2291.009,2855.919z" style="stroke:black;fill:#cccccc"/><path id="180606837" parent_id="180606826" order="11" structure_id="98" d="M2951.436,2025.026
			c12.717-34.497,15.62-73.05,33.176-105.66c9.714-18.035,23.209-40.015,25.506-60.69c1.73-15.63-5.33-31.343-7.75-46.729
			c-3.343-21.129-7.999-79.146-34.632-86.241c-29.351-7.813-19.369,84.447-18.114,96.797c5.779,56.974,3.064,114.098-13.561,169.11
			c-5.692,18.833-23.096,49.66-18.398,69.353C2924.499,2089.629,2949.048,2031.509,2951.436,2025.026z" style="stroke:black;fill:#aaaaaa"/></g>
</g>
</svg>