<?xml version="1.0" encoding="utf-8"?>
<!-- Generator: Adobe Illustrator 16.0.0, SVG Export Plug-In . SVG Version: 6.00 Build 0)  -->
<!DOCTYPE svg PUBLIC "-//W3C//DTD SVG 1.1//EN" "http://www.w3.org/Graphics/SVG/1.1/DTD/svg11.dtd">
<svg version="1.1" id="Layer_1" xmlns="http://www.w3.org/2000/svg" xmlns:xlink="http://www.w3.org/1999/xlink" x="0px" y="0px"
	 width="9744.011px" height="6823.461px" viewBox="0 0 9744.011 6823.461" enable-background="new 0 0 9744.011 6823.461"
	 xml:space="preserve">
<g transform="scale(1.0)">
	<g id="_x31_80609119" transform=" scale(1.0, 1.0)">
		<path id="_x31_80609121" fill="none" stroke="#000000" stroke-width="52.9743" d="M6640.539,3220.103
			c63.745,205.965,41.99,352.746,15.284,538.593c-19.959,138.883-79.102,284.735-108.982,367.535
			c-64.817,179.575-155.739,290.991-240.031,460.706c-80.127,161.336-194.974,353.59-323.757,480.229
			c-106.539,104.762-222.89,238.39-389.647,239.47c-207.472,1.349-459.143-168.249-561.725-341.258
			c-120.336-202.945-106.973-451.116-99.484-677.653c6.676-201.971-12.25-393.21,12.455-597.141
			c26.381-217.793,71.985-434.306,137.114-644.333c56.566-182.424,134.528-394.613,317.167-493.287
			c194.689-105.161,433.797,7.791,602.678,108.284c125.826,74.876,270.246,123.842,388.526,209.903
			C6521.018,2966.382,6599.323,3086.919,6640.539,3220.103z"/>
		<path id="_x31_80609122" fill="none" stroke="#000000" stroke-width="52.9743" d="M6640.539,3220.089
			c-41.216-133.178-119.52-253.715-250.397-348.942c-118.283-86.059-262.698-135.025-388.524-209.899
			c-168.878-100.493-407.982-213.445-602.677-108.284c-182.637,98.665-260.596,310.857-317.164,493.272
			c-65.127,210.029-110.734,426.542-137.113,644.329c-24.703,203.929-5.785,395.165-12.457,597.135
			c-7.494,226.531-20.855,474.702,99.48,677.644c102.582,173.005,354.249,342.604,561.723,341.256
			c166.752-1.082,283.105-134.71,389.646-239.468c128.781-126.64,243.624-318.888,323.755-480.223
			c84.29-169.712,175.213-281.127,240.027-460.7c29.881-82.8,89.027-228.646,108.986-367.53
			C6682.529,3572.833,6704.286,3426.059,6640.539,3220.089z M5888.013,3604.629c-32.914,44.827-52.333,96.725-64.674,150.375
			c-5.677,24.697-10.037,48.848-17.962,72.678c-9.575,28.801-16.698,55.583-22.317,84.818c-3.105,16.143-26.16,42.963-33.277,14.478
			c-0.828-3.309-1.24-7.317-1.342-11.814c4.49-27.37,7.961-54.993,11.293-82.646c0.027-0.159,0.055-0.325,0.082-0.481
			c4.73-28.261,8.191-56.243,10.692-83.942c0.447-3.041,0.892-6.085,1.357-9.121c2.513-16.37,2.839-32.8,2.626-49.271
			c1.711-36.105,2.11-71.688,1.9-106.709c-0.249-42.207-6.462-82.315-17.156-122.479c-0.193-0.722-0.459-1.599-0.77-2.584
			c-1.492-6.285-3.072-12.575-4.742-18.881c-1.812-6.842-3.65-13.676-5.49-20.507c-0.494-6.72,0.449-12.332,4.06-15.096
			c11.397-8.733,22.024,17.986,28.476,24.715c31.575,32.965,59.321,43.905,103.389,51.812c21.975,3.943,65.908,3.921,68.717,33.568
			C5955.542,3541.652,5904.456,3582.242,5888.013,3604.629z"/>
		<path id="_x31_80609123" fill="none" stroke="#000000" stroke-width="52.9743" d="M6640.539,3220.089
			c-41.216-133.178-119.52-253.715-250.397-348.942c-118.283-86.059-262.698-135.025-388.524-209.899
			c-168.878-100.493-407.982-213.445-602.677-108.284c-182.637,98.665-260.596,310.857-317.164,493.272
			c-65.127,210.029-110.734,426.542-137.113,644.329c-24.703,203.929-5.785,395.165-12.457,597.135
			c-7.494,226.531-20.855,474.702,99.48,677.644c102.582,173.005,354.249,342.604,561.723,341.256
			c166.752-1.082,283.105-134.71,389.646-239.468c128.781-126.64,243.624-318.888,323.755-480.223
			c84.29-169.712,175.213-281.127,240.027-460.7c29.881-82.8,89.027-228.646,108.986-367.53
			C6682.529,3572.833,6704.286,3426.059,6640.539,3220.089z M5888.013,3604.629c-32.914,44.827-52.333,96.725-64.674,150.375
			c-5.677,24.697-10.037,48.848-17.962,72.678c-9.575,28.801-16.698,55.583-22.317,84.818c-3.105,16.143-26.16,42.963-33.277,14.478
			c-0.828-3.309-1.24-7.317-1.342-11.814c4.49-27.37,7.961-54.993,11.293-82.646c0.027-0.159,0.055-0.325,0.082-0.481
			c4.73-28.261,8.191-56.243,10.692-83.942c0.447-3.041,0.892-6.085,1.357-9.121c2.513-16.37,2.839-32.8,2.626-49.271
			c1.711-36.105,2.11-71.688,1.9-106.709c-0.249-42.207-6.462-82.315-17.156-122.479c-0.193-0.722-0.459-1.599-0.77-2.584
			c-1.492-6.285-3.072-12.575-4.742-18.881c-1.812-6.842-3.65-13.676-5.49-20.507c-0.494-6.72,0.449-12.332,4.06-15.096
			c11.397-8.733,22.024,17.986,28.476,24.715c31.575,32.965,59.321,43.905,103.389,51.812c21.975,3.943,65.908,3.921,68.717,33.568
			C5955.542,3541.652,5904.456,3582.242,5888.013,3604.629z"/>
		<path id="_x31_80609124" fill="none" stroke="#000000" stroke-width="52.9743" d="M6640.539,3220.089
			c-41.216-133.178-119.52-253.715-250.397-348.942c-44.771-32.578-93.293-59.839-143.133-85.203c0,0,35.125,63.587,50.504,104.502
			c40.064,106.53,61.645,232.835,1.057,340.41c-55.459,98.461-177.714,147.648-283.812,168.937
			c-88.604,17.746-207.546,22.982-252.711-70.438c-16.332-33.778-20.898-76.206-23.641-113.058
			c-7.176-96.597-7.086-206.855,3.355-303.209c2.836-26.189,5.914-53.933,10.961-79.812c9.026-46.124,22.223-93.304,44.697-135.156
			c9.104-16.943,20.518-33.011,30.211-49.461c8.335-14.14,47.721-55.918,47.721-55.918c-150.246-72.403-326.5-120.752-476.41-39.774
			c-182.637,98.665-260.596,310.854-317.164,493.272c-65.127,210.026-110.734,426.542-137.112,644.329
			c-24.704,203.927-5.778,395.164-12.456,597.135c-7.486,226.531-20.856,474.698,99.479,677.64
			c102.59,173.009,354.258,342.604,561.723,341.256c166.76-1.083,283.105-134.706,389.646-239.468
			c128.781-126.638,243.633-318.889,323.755-480.223c84.297-169.712,175.213-281.127,240.032-460.7
			c29.884-82.8,89.022-228.646,108.981-367.53C6682.529,3572.833,6704.286,3426.059,6640.539,3220.089z M5888.013,3604.629
			c-32.914,44.827-52.333,96.725-64.674,150.375c-5.677,24.697-10.037,48.848-17.962,72.678
			c-9.575,28.801-16.698,55.583-22.317,84.818c-3.105,16.143-26.16,42.963-33.277,14.478c-0.828-3.309-1.24-7.317-1.342-11.814
			c4.49-27.37,7.961-54.993,11.293-82.646c0.027-0.159,0.055-0.325,0.082-0.481c4.73-28.261,8.191-56.243,10.692-83.942
			c0.447-3.041,0.892-6.085,1.357-9.121c2.513-16.37,2.839-32.8,2.626-49.271c1.711-36.105,2.11-71.688,1.9-106.709
			c-0.249-42.207-6.462-82.315-17.156-122.479c-0.193-0.722-0.459-1.599-0.77-2.584c-1.492-6.285-3.072-12.575-4.742-18.881
			c-1.812-6.842-3.65-13.676-5.49-20.507c-0.494-6.72,0.449-12.332,4.06-15.096c11.397-8.733,22.024,17.986,28.476,24.715
			c31.575,32.965,59.321,43.905,103.389,51.812c21.975,3.943,65.908,3.921,68.717,33.568
			C5955.542,3541.652,5904.456,3582.242,5888.013,3604.629z"/>
		<path id="_x31_80609129" fill="none" stroke="#000000" stroke-width="52.9743" d="M5221.909,4241.986
			c2.355,15.967,8.97,20.184,19.465,35.896c12.832,19.221,22.109,41.973,25.104,66.597c1.145,9.399,3.979,21.204,0.262,30.507
			c-1.576,3.943-15.35,17.562-15.389,18.174c-3.728,48.842,43.626,90.947,71.186,126.271c20.769,26.649,14.004,54.686,28.383,83.464
			c7.555,15.124,19.998,25.743,27.221,40.667c7.582,15.659,2.91,30.822,9.762,46.354c7.674,17.394,23.087,21.327,36.315,36.482
			c13.913,15.941,22.497,37.853,25.429,58.866c6.12,43.791-5.066,87.986,22.871,126.115c7.102,9.703,86.949,98.326,66.395,110.745
			c32.082-19.333,40.791,36.221,66.793,44.656c16.689,5.409,32.317-0.466,50.388,7.551c15.897,7.066,23.748,21.949,43.88,14.018
			c15.271-6.021,24.815-27.517,36.869-37.883c20.585-17.699,20.92-11.797,43.553-10.066c26.094,1.991,21.543,6.952,39.414-14.31
			c10.826-12.88,15.504-25.705,31.449-35.509c21.564-13.263,29.852-1.882,49.671-6.807c18.87-4.687,19.021-15.92,29.37-31.103
			c13.751-20.189,36.431-30.013,52.805-47.485c15.499-16.528,24.627-37.826,36.654-56.604
			c25.662-40.078,72.338-32.228,107.732-57.943c31.854-23.13,48.064-58.566,63.305-93.186
			c13.403-30.441,36.098-57.379,46.413-88.851c13.147-40.142,13.98-81.085,28.944-120.425
			c26.432-69.478,27.705-148.084,62.6-215.504c16.863-32.571,32.16-43.214,26.617-82.732c-2.188-15.555-12.011-30.273-13.67-44.932
			c-2.293-20.342,14.357-30.59,13.918-49.227c-0.461-18.721-18.22-26.855-14.146-48.881c4.023-21.8,18.857-20.832,28.494-35.467
			c12.011-18.254,3.579-33.673,6.958-54.292c3.544-21.657,15.865-30.804,27.313-47.586c20.213-29.64-3.342-62.294,22.676-88.143
			c19.082-18.966,66.582-42.328,93.275-48.542c2.437-22.881,4.607-34.715,15.049-54.676c9.877-18.877,17.785-24.867,14.262-48.757
			c-6.149-41.538-0.17-67.441,21.742-102.632c19.039-30.579,40.76-64.055,41.975-100.841c1.541-46.44-26.125-87.322-22.233-134.805
			c3.791-46.183,15.714-93.244,5.903-139.688c-8.699-41.113-45.394-76.243-41.839-120.155
			c48.744,26.836,70.255,99.621,85.493,148.767c63.741,205.968,41.987,352.744,15.278,538.587
			c-19.964,138.884-79.102,284.73-108.983,367.531c-64.82,179.573-155.737,290.986-240.032,460.701
			c-80.122,161.332-194.977,353.58-323.757,480.219c-75.691,74.436-154.926,168.696-255.775,211.574
			c-106.426,45.258-256.59-57.917-292.918-151.26c-74.537-191.527-114.895-278.46-219.832-424.553
			c-56.81-79.074-117.101-223.915-148.652-315.177c-50.669-146.538-34.688-216.997-52.878-369.798
			c-17.567-147.586-44.306-353.154-25.795-501.234c19.786-158.243,47.326-318.056,94.583-470.445
			c56.566-182.418,134.525-394.607,317.164-493.272c87.486-47.262,183.953-50.444,279.886-29.201
			c25.421,5.633,49.77,10.335,74.648,18.229c13.538,4.296,20.542,13.176,1.765,15.618c-8.449,1.096-24.547-0.294-31.52,4.67
			c-9.132,6.513-0.082,19.014-8.434,27.56c-23.458,23.98-60.447-0.575-83.395-9.471c-28.732-11.145-67.611-5.32-96.338,2.975
			c-16.488,4.759-32.657,11.419-46.367,21.753c-23.355,17.618-25.846,39.743-37.373,65.545
			c-16.96,37.946-59.73,57.466-82.689,91.097c-21.715,31.807-4.027,69.67-26.658,100.089c-10.72,14.406-26.03,22.098-28.723,39.313
			c-3.192,20.414,8.917,37.605-0.797,61.608c-6.104,15.077-23.758,30.337-27.078,45.86c-3.979,18.655,8.945,39.145,3.323,59.609
			c-4.312,15.666-18.517,26.844-22.794,42.634c-5.647,20.908,1.414,33.268-7.568,52.378c-12.898,27.436-33.148,53.931-36.809,84.602
			c-4.184,35.043,11.911,55.466-9.666,88.655c-21.459,33.017-27.535,40.759-11.012,76.296
			c11.355,24.432,20.336,49.084,10.171,76.115c-4.918,13.082-17.692,21.456-23.216,33.67c-8.922,19.725-6.008,9.198-1.207,28.594
			c10.862,43.828,13.309,73.984,6.518,118.235c-6.137,40.009,6.641,79.503,2.564,119.503c-1.971,19.37-12.736,46.405-10.805,65.024
			c2.172,21.026,17.377,29.311,29.057,46.282c31.464,45.735,15.415,92.235-7.553,137.582c-26.325,51.975,3.836,76.83,15.216,128.578
			c4.61,20.973-1.556,42.086-1.112,63.137C5221.076,4234.396,5221.388,4238.476,5221.909,4241.986z"/>
		<path id="_x31_80609125" fill="none" stroke="#000000" stroke-width="52.9743" d="M6336.03,3112.51
			c2.123-15.88,0.498-31.98,0.295-48.021c-0.133-10.463-12.482-85.824-16.351-103.49c27.53,0.899,53.536,55.064,63.194,67.671
			c10.148,13.245,14.884,29.484,22.814,44.11c17.379,32.045,27.807,67.038,34.318,102.636c7.043,38.496,10.445,77.887,9.851,117.006
			c-2,132.309-58.593,234.458-139.632,335.293c-57.014,70.952-122.717,206.599-142.257,293.076
			c-22.512,99.623-33.741,161.284-37.038,257.011c-3.574,103.913-2.204,217.556-43.517,317.739
			c-50.622,122.754-224.804,292.104-369.506,219.93c-106.666-53.205-158.761-215.942-178.144-320.765
			c-21.495-116.311-42.022-225.019-33.582-342.579c9.791-136.263,23.498-285.744,19.395-421.099
			c-2.574-84.845-17.6-148.547-32.67-232.014c-11.795-65.34-26.789-144.556-22.822-217.026c3.45-62.98,18.52-112.551,32.387-174.189
			c23.416-104.143,104.262-261.278,222.814-276.755c68.604-8.94,33.98,68.511,26.015,107.996
			c-10.37,51.318-12.646,136.054-17.414,190.911c-0.947,10.831,0.464,9.189-0.485,22.023c-43.91,86.21-21.17,221.433,4.362,329.754
			c15.228,64.621,37.644,115.504,38.307,197.318c0.55,68.08-1.616,135.051-9.533,202.967c-4.48,38.423-11.969,77.949-17.122,116.123
			c-13.266,98.14-57.857,185.876-57.482,285.616c0.138,37.142,16.721,99.231,52.174,123.185
			c15.974,10.799,37.968,22.247,60.223,5.57c72.33-54.175,68.168-218.514,76.108-288.602c7.334-64.723,5.942-134.643,22.368-203.77
			c15.666-65.948,21.459-114.256,50.827-172.758c49.374-98.351,144.739-174.844,204.835-267.583
			c34.835-53.764,18.949-34.127,69.16-70.348c64.434-46.486,83.271-95.084,99.679-155.192
			C6331.347,3140.512,6334.149,3126.57,6336.03,3112.51z"/>
		<path id="_x31_80609126" fill="none" stroke="#000000" stroke-width="52.9743" d="M5699.511,2724.466
			c-0.532,0.212-1.066,0.423-1.607,0.63c-0.256,0.098-0.513,0.197-0.77,0.294c-0.549,0.207-1.098,0.41-1.652,0.611
			c-0.229,0.084-0.455,0.167-0.684,0.25c-1.563,0.561-3.154,1.106-4.766,1.635c-0.241,0.081-0.486,0.158-0.73,0.237
			c-0.578,0.188-1.156,0.375-1.741,0.559c-0.273,0.087-0.545,0.172-0.82,0.258c-0.589,0.183-1.18,0.365-1.772,0.544
			c-0.239,0.073-0.479,0.147-0.719,0.22c-1.656,0.498-3.326,0.984-5.003,1.458c-0.255,0.072-0.509,0.143-0.765,0.215
			c-0.598,0.168-1.196,0.335-1.795,0.5c-0.279,0.078-0.561,0.155-0.84,0.232c-0.607,0.166-1.215,0.332-1.823,0.496
			c-0.241,0.067-0.483,0.13-0.726,0.196c-1.686,0.452-3.37,0.896-5.047,1.333c-0.267,0.069-0.533,0.139-0.795,0.208
			c-0.596,0.154-1.191,0.309-1.785,0.461c-0.279,0.072-0.557,0.145-0.838,0.216c-0.635,0.163-1.27,0.327-1.9,0.487
			c-0.209,0.054-0.419,0.107-0.627,0.161c-0.819,0.21-1.633,0.418-2.445,0.627c-0.767,0.197-1.527,0.393-2.285,0.588
			c-0.235,0.06-0.465,0.118-0.699,0.179c-0.579,0.149-1.156,0.298-1.729,0.447c-0.268,0.07-0.533,0.139-0.799,0.208
			c-0.564,0.147-1.125,0.293-1.682,0.439c-0.236,0.062-0.471,0.123-0.703,0.186c-1.547,0.408-3.064,0.815-4.542,1.224
			c-0.217,0.06-0.43,0.119-0.645,0.179c-0.517,0.144-1.032,0.289-1.54,0.432c-0.249,0.071-0.496,0.141-0.742,0.212
			c-0.497,0.143-0.988,0.286-1.475,0.428c-0.217,0.065-0.435,0.128-0.65,0.192c-1.371,0.409-2.693,0.819-3.967,1.234
			c-0.195,0.063-0.385,0.129-0.58,0.192c-0.443,0.146-0.879,0.295-1.309,0.442c-0.207,0.073-0.418,0.144-0.622,0.216
			c-0.423,0.149-0.837,0.299-1.247,0.45c-0.178,0.064-0.357,0.129-0.533,0.195c-0.569,0.214-1.131,0.428-1.671,0.646
			c-0.534,0.217-1.05,0.435-1.556,0.655c-0.154,0.066-0.303,0.135-0.453,0.204c-0.348,0.156-0.689,0.312-1.019,0.47
			c-0.165,0.078-0.325,0.157-0.484,0.235c-0.319,0.157-0.626,0.317-0.931,0.479c-0.135,0.071-0.273,0.144-0.406,0.216
			c-0.42,0.23-0.828,0.463-1.207,0.698c-35.642,22.023-67.05,70.038-88.983,104.15c-46.165,71.783-63.826,124.216-83.237,214.999
			c-30.004,140.324-16.422,297.482-2.643,436.528c4.488,45.268,16.268,88.578,20.928,134.192
			c9.748,95.489,6.008,172.97-2.561,268.137c-3.031,33.624-37.869,163.138-31.328,245.557
			c12.861,161.858,75.255,372.358,151.278,510.096c35.934,65.084,61.479,114.461,106.021,134.559
			c34.65,15.633,94.936,5.186,144.74-10.926c77.219-24.972,181.199-95.757,234.44-167.97
			c41.563-56.382,70.986-160.901,87.63-300.253c16.494-138.134-1.086-258.938,24.027-348.029
			c13.465-47.73,36.805-108.294,73.002-172.03c41.691-73.411,97.467-150.005,125.821-199.177
			c54.976-95.351,74.403-119.959,94.852-229.052c20.383-108.758-14.026-231.538-75.44-321.092c-0.816-1.193-1.656-2.382-2.502-3.569
			c-0.29-0.404-0.589-0.808-0.882-1.212c-0.565-0.78-1.132-1.56-1.71-2.336c-0.356-0.477-0.719-0.955-1.078-1.431
			c-0.527-0.701-1.059-1.403-1.593-2.103c-0.386-0.501-0.776-1.001-1.165-1.502c-0.527-0.676-1.055-1.351-1.588-2.026
			c-0.399-0.505-0.803-1.011-1.207-1.517c-0.533-0.668-1.07-1.335-1.613-2.002c-0.406-0.504-0.818-1.009-1.229-1.513
			c-0.553-0.675-1.109-1.349-1.666-2.024c-0.406-0.486-0.807-0.974-1.215-1.46c-0.59-0.707-1.183-1.414-1.779-2.12
			c-0.381-0.45-0.758-0.902-1.138-1.351c-0.673-0.792-1.351-1.584-2.026-2.376c-0.309-0.36-0.615-0.719-0.925-1.08
			c-0.987-1.15-1.979-2.299-2.976-3.451c-0.082-0.095-0.168-0.19-0.249-0.287c-0.937-1.081-1.876-2.161-2.817-3.242
			c-0.316-0.36-0.633-0.722-0.945-1.083c-1.195-1.369-2.389-2.739-3.588-4.11c-0.352-0.403-0.705-0.808-1.057-1.212
			c-0.582-0.665-1.162-1.33-1.742-1.996c-0.485-0.559-0.975-1.118-1.461-1.679c-0.532-0.611-1.063-1.225-1.597-1.837
			c-0.493-0.57-0.985-1.142-1.479-1.713c-0.516-0.595-1.029-1.192-1.541-1.788c-0.2-0.232-0.402-0.465-0.603-0.699
			c-0.133-0.156-0.265-0.315-0.399-0.473c-1.57-1.831-3.131-3.666-4.676-5.512c11.99,15.789,21.628,33.828,26.693,40.444
			c10.148,13.243,14.886,29.482,22.815,44.107c17.378,32.042,27.808,67.034,34.316,102.629c7.044,38.494,11.308,77.9,9.853,117.002
			c-5.312,143.016-56.389,231.015-139.635,335.276c-56.779,71.124-122.717,206.586-142.25,293.059
			c-22.518,99.619-33.75,161.278-37.047,256.998c-3.576,103.906-2.203,217.545-43.517,317.725
			c-50.614,122.745-224.795,292.092-369.501,219.916c-106.664-53.201-158.758-215.926-178.141-320.745
			c-21.496-116.302-42.027-225.003-33.582-342.557c9.785-136.256,23.492-285.729,19.39-421.081
			c-2.571-84.836-17.599-148.536-32.668-231.998c-11.794-65.336-26.79-144.553-22.822-217.017
			c3.45-62.976,18.521-112.548,32.378-174.179c0.347-1.535,0.706-3.083,1.074-4.641c0.016-0.057,0.027-0.115,0.041-0.174
			c0.363-1.515,0.734-3.04,1.117-4.574c0.027-0.103,0.052-0.205,0.078-0.308c0.375-1.494,0.762-2.999,1.159-4.512
			c0.042-0.149,0.077-0.297,0.114-0.444c0.395-1.487,0.799-2.983,1.211-4.486c0.047-0.172,0.094-0.343,0.141-0.516
			c0.412-1.485,0.834-2.976,1.264-4.476c0.057-0.196,0.111-0.392,0.17-0.587c0.43-1.488,0.869-2.982,1.318-4.482
			c0.062-0.206,0.124-0.414,0.188-0.621c0.449-1.492,0.908-2.991,1.376-4.496c0.067-0.22,0.138-0.44,0.206-0.661
			c0.469-1.501,0.951-3.009,1.441-4.521c0.072-0.221,0.145-0.443,0.216-0.664c0.493-1.515,0.995-3.036,1.508-4.56
			c0.073-0.223,0.149-0.445,0.226-0.667c0.516-1.532,1.041-3.068,1.578-4.608c0.073-0.211,0.147-0.422,0.221-0.634
			c0.543-1.556,1.098-3.115,1.662-4.678c0.07-0.196,0.142-0.393,0.212-0.588c0.571-1.582,1.153-3.167,1.744-4.753
			c0.067-0.177,0.132-0.354,0.199-0.529c0.603-1.609,1.212-3.221,1.834-4.836c0.058-0.154,0.118-0.309,0.179-0.462
			c0.635-1.641,1.275-3.284,1.932-4.929c0.047-0.12,0.095-0.24,0.143-0.359c0.672-1.685,1.354-3.371,2.044-5.058
			c0.028-0.068,0.055-0.134,0.083-0.2c1.436-3.497,2.919-7.002,4.447-10.509c0.02-0.046,0.039-0.094,0.061-0.14
			c0.744-1.712,1.504-3.424,2.271-5.137c0.043-0.099,0.09-0.202,0.136-0.301c0.751-1.67,1.513-3.339,2.282-5.009
			c0.064-0.144,0.133-0.286,0.196-0.429c0.759-1.639,1.53-3.278,2.309-4.915c0.081-0.17,0.159-0.337,0.24-0.506
			c0.77-1.614,1.55-3.227,2.339-4.837c0.094-0.195,0.188-0.389,0.283-0.584c0.781-1.589,1.571-3.177,2.369-4.762
			c0.107-0.214,0.216-0.427,0.322-0.64c0.793-1.572,1.6-3.143,2.412-4.71c0.117-0.224,0.23-0.448,0.349-0.671
			c0.812-1.558,1.632-3.116,2.46-4.668c0.123-0.226,0.243-0.453,0.363-0.68c0.834-1.551,1.676-3.1,2.523-4.646
			c0.123-0.224,0.246-0.447,0.369-0.671c0.855-1.55,1.717-3.096,2.591-4.636c0.12-0.214,0.243-0.427,0.364-0.642
			c0.877-1.548,1.766-3.092,2.664-4.632c0.117-0.202,0.236-0.402,0.354-0.604c0.908-1.55,1.824-3.099,2.749-4.638
			c0.108-0.183,0.218-0.365,0.327-0.548c0.939-1.558,1.885-3.111,2.843-4.658c0.099-0.158,0.196-0.316,0.294-0.473
			c0.975-1.571,1.958-3.135,2.949-4.692c0.078-0.124,0.158-0.245,0.234-0.369c1.018-1.593,2.045-3.178,3.08-4.755
			c0.05-0.075,0.1-0.146,0.146-0.22c1.068-1.625,2.146-3.239,3.234-4.847c0.014-0.016,0.022-0.032,0.033-0.048
			c1.104-1.626,2.217-3.243,3.34-4.85c0.023-0.033,0.047-0.066,0.069-0.099c1.099-1.572,2.21-3.135,3.331-4.689
			c0.062-0.085,0.124-0.171,0.186-0.257c1.09-1.508,2.188-3.006,3.296-4.495c0.096-0.129,0.192-0.258,0.288-0.387
			c1.086-1.455,2.184-2.898,3.283-4.334c0.123-0.157,0.241-0.314,0.362-0.472c1.089-1.409,2.184-2.808,3.29-4.198
			c0.139-0.176,0.277-0.353,0.418-0.528c1.096-1.373,2.199-2.733,3.311-4.084c0.152-0.187,0.305-0.373,0.457-0.559
			c1.105-1.337,2.219-2.663,3.34-3.979c0.162-0.193,0.328-0.386,0.494-0.58c1.114-1.305,2.239-2.597,3.37-3.88
			c0.175-0.196,0.349-0.393,0.521-0.59c1.132-1.276,2.271-2.541,3.418-3.793c0.176-0.191,0.353-0.383,0.53-0.574
			c1.151-1.252,2.31-2.492,3.477-3.719c0.175-0.185,0.352-0.368,0.527-0.552c1.177-1.229,2.359-2.447,3.549-3.652
			c0.17-0.168,0.338-0.335,0.504-0.504c1.203-1.212,2.414-2.409,3.635-3.595c0.159-0.154,0.316-0.307,0.479-0.461
			c1.234-1.192,2.475-2.372,3.725-3.536c0.143-0.133,0.289-0.265,0.435-0.398c1.271-1.179,2.55-2.344,3.84-3.493
			c0.116-0.105,0.235-0.208,0.354-0.312c1.317-1.171,2.645-2.327,3.979-3.463c0.086-0.072,0.17-0.141,0.252-0.214
			c1.373-1.165,2.756-2.316,4.146-3.445c0.037-0.03,0.074-0.059,0.112-0.089c1.409-1.145,2.829-2.268,4.255-3.374
			c0.035-0.025,0.066-0.052,0.102-0.077c1.412-1.093,2.834-2.164,4.266-3.216c0.084-0.063,0.166-0.127,0.252-0.188
			c1.391-1.022,2.793-2.023,4.199-3.006c0.127-0.088,0.252-0.178,0.377-0.265c1.377-0.958,2.768-1.896,4.158-2.816
			c0.16-0.105,0.317-0.213,0.475-0.316c1.374-0.902,2.752-1.782,4.14-2.647c0.183-0.113,0.368-0.229,0.553-0.344
			c1.37-0.849,2.751-1.677,4.138-2.489c0.2-0.118,0.4-0.235,0.602-0.353c1.379-0.8,2.764-1.578,4.154-2.341
			c0.215-0.117,0.428-0.235,0.643-0.351c1.386-0.752,2.779-1.483,4.18-2.197c0.224-0.114,0.445-0.227,0.67-0.34
			c1.4-0.707,2.805-1.393,4.22-2.059c0.226-0.107,0.453-0.212,0.678-0.318c1.417-0.661,2.841-1.304,4.274-1.925
			c0.223-0.097,0.447-0.193,0.675-0.29c1.438-0.617,2.883-1.214,4.334-1.79c0.22-0.086,0.441-0.172,0.659-0.257
			c1.465-0.573,2.936-1.126,4.413-1.656c0.209-0.075,0.418-0.146,0.625-0.221c1.495-0.528,2.998-1.039,4.507-1.523
			c0.189-0.06,0.379-0.118,0.567-0.177c1.535-0.486,3.075-0.95,4.628-1.389c0.158-0.045,0.319-0.087,0.479-0.132
			c1.583-0.442,3.171-0.862,4.766-1.254c0.124-0.031,0.248-0.058,0.37-0.088c1.639-0.397,3.282-0.771,4.936-1.112
			c0.018-0.004,0.037-0.009,0.059-0.013l-12.316-9.715c-0.724,0.311-1.461,0.614-2.203,0.916
			C5699.962,2724.288,5699.736,2724.377,5699.511,2724.466z"/>
		<path id="_x31_80609127" fill="none" stroke="#000000" stroke-width="52.9743" d="M5726.47,2695.533
			c-6.305-47.376-93.023-5.818-132.824,36.188c-85.432,90.168-118.464,144.488-149.467,238.107
			c-63.638,192.178-39.99,412.483-9.853,597.505c9.151,56.196,17.262,106.611,14.919,162.87
			c-7.718,185.828-62.25,323.816-39.953,511.116c8.332,70.003,21.012,103.048,41,191.384
			c26.576,117.476,79.051,194.077,150.67,327.276c17.169,31.931,51.077,78.388,80.701,85.626
			c113.625,27.758,310.24-82.92,385.242-176.306c72.139-89.802,111.186-156.987,122.113-265.458
			c11.723-116.299,18.756-261.942,44.729-373.84c21.484-92.544,33.597-159.796,62.639-225.298
			c20-45.085,38.65-77.726,81.293-129.665c33.074-40.277,50.736-79.508,76.19-125.023c68.712-122.86,58.458-214.299,54.812-313.368
			c-2.771-75.367-35.64-173.92-80.454-225.144c-16.819-19.23-35.798-32.443-60.69-59.716c-20.977-22.985-43.747-50.743-49.9-27.21
			c14.936,46.974,59.872,82.377,87.291,122.355c61.414,89.56,95.823,212.345,75.44,321.11
			c-20.447,109.101-39.878,133.707-94.856,229.062c-28.35,49.175-84.123,125.773-125.812,199.188
			c-36.207,63.739-59.546,124.304-73.002,172.038c-25.119,89.097-7.542,209.908-24.034,348.048
			c-16.644,139.358-46.058,243.879-87.621,300.265c-53.247,72.222-157.229,143.009-234.448,167.98
			c-49.805,16.108-110.088,26.558-144.73,10.924c-44.543-20.1-70.094-69.479-106.021-134.566
			c-76.032-137.741-138.426-348.255-151.279-510.123c-6.549-82.417,28.297-211.942,31.32-245.567
			c8.576-95.175,12.314-172.655,2.557-268.153c-4.656-45.616-16.431-88.929-20.918-134.2
			c-13.779-139.05-27.361-296.218,2.641-436.552c19.41-90.786,37.072-143.223,83.237-215.005
			c21.939-34.117,53.341-82.13,88.983-104.158C5647.692,2734.044,5730.944,2729.104,5726.47,2695.533z"/>
		<path id="_x31_80609128" fill="none" stroke="#000000" stroke-width="52.9743" d="M5744.165,3056.544
			c5.304-49.42,12.399-98.647,17.365-144.476c2.679-24.733,7.987-49.169,12.533-73.649c8.121-43.638,20.05-88.509,40.076-128.58
			c9.08-18.147,21.43-34.474,31.268-52.216c10.684-19.266,23.321-42.076,46.082-49.956c4.42-1.529,8.514-1.522,12.406-0.62
			c-45.139-23.09-93.054-44.544-142.226-61.293c7.21,4.469,7.952,10.111-6.431,11.978c-8.447,1.101-24.536-0.294-31.511,4.673
			c-9.133,6.509-0.082,19.014-8.442,27.56c-23.449,23.979-60.439-0.578-83.385-9.475c-28.734-11.145-67.613-5.315-96.34,2.98
			c-16.493,4.758-32.666,11.415-46.366,21.751c-23.354,17.612-25.847,39.74-37.374,65.539
			c-16.959,37.947-59.73,57.463-82.695,91.094c-21.709,31.806-4.021,69.667-26.66,100.085
			c-10.712,14.404-26.021,22.096-28.715,39.307c-3.191,20.416,8.918,37.607-0.797,61.61c-6.104,15.077-23.758,30.336-27.078,45.857
			c-3.979,18.656,8.945,39.144,3.323,59.607c-4.312,15.664-18.518,26.842-22.792,42.63c-5.65,20.907,1.412,33.267-7.57,52.376
			c-12.896,27.434-33.148,53.928-36.808,84.598c-4.185,35.041,11.91,55.462-9.668,88.649c-21.452,33.016-27.534,40.754-11.011,76.29
			c11.354,24.43,20.334,49.084,10.171,76.112c-4.911,13.081-17.694,21.455-23.21,33.667c-8.928,19.726-6.009,9.198-1.205,28.592
			c10.859,43.828,13.301,73.982,6.509,118.231c-6.136,40.005,6.64,79.499,2.563,119.495c-1.965,19.37-12.734,46.407-10.804,65.024
			c2.179,21.022,17.378,29.307,29.056,46.278c31.472,45.731,15.422,92.233-7.555,137.578c-26.324,51.969,3.845,76.821,15.219,128.57
			c4.615,20.971-1.561,42.082-1.106,63.131c0.099,4.894,0.411,8.971,0.932,12.48c2.356,15.967,8.972,20.185,19.458,35.896
			c12.839,19.224,22.111,41.97,25.105,66.595c1.149,9.397,3.976,21.202,0.267,30.503c-1.584,3.943-15.349,17.562-15.394,18.174
			c-3.729,48.84,43.633,90.939,71.191,126.266c20.77,26.647,14.004,54.684,28.377,83.46c7.564,15.122,20.004,25.741,27.229,40.663
			c7.582,15.659,2.902,30.822,9.756,46.354c7.678,17.391,23.091,21.325,36.32,36.475c13.914,15.944,22.496,37.856,25.427,58.868
			c6.114,43.789-5.065,87.981,22.874,126.106c7.101,9.705,86.947,98.323,66.393,110.737c32.072-19.328,40.793,36.223,66.793,44.653
			c16.689,5.415,32.315-0.46,50.386,7.553c15.898,7.064,23.749,21.946,43.88,14.019c15.273-6.021,24.818-27.517,36.869-37.879
			c20.586-17.705,20.922-11.803,43.557-10.071c26.093,1.991,21.541,6.955,39.412-14.306c10.826-12.882,15.504-25.705,31.449-35.512
			c21.559-13.257,29.85-1.883,49.67-6.805c18.869-4.683,19.023-15.921,29.373-31.104c13.748-20.188,36.43-30.007,52.803-47.478
			c15.5-16.528,24.629-37.826,36.652-56.606c25.664-40.076,72.341-32.226,107.734-57.939c31.854-23.13,48.064-58.564,63.306-93.182
			c13.403-30.439,36.097-57.375,46.403-88.846c13.156-40.139,13.988-81.082,28.955-120.418
			c26.423-69.477,27.707-148.079,62.594-215.494c16.859-32.569,32.16-43.213,26.617-82.728
			c-2.18-15.556-12.004-30.274-13.664-44.931c-2.302-20.34,14.35-30.59,13.91-49.225c-0.454-18.719-18.213-26.854-14.146-48.879
			c4.031-21.799,18.857-20.829,28.496-35.463c12.01-18.251,3.578-33.671,6.963-54.289c3.539-21.656,15.867-30.803,27.309-47.585
			c20.221-29.638-3.34-62.29,22.682-88.137c19.083-18.969,66.578-42.328,93.277-48.541c2.428-22.878,4.6-34.71,15.048-54.673
			c9.869-18.879,17.786-24.869,14.255-48.754c-6.148-41.534-0.17-67.438,21.742-102.625c19.039-30.578,40.762-64.053,41.984-100.837
			c1.533-46.437-26.132-87.317-22.24-134.797c3.789-46.185,15.715-93.239,5.902-139.685c-8.699-41.105-45.393-76.235-41.837-120.145
			c18.927,10.42,33.749,27.772,45.69,47.974c-45.545-93.168-113.643-177.601-210.594-248.142
			c-55.742-40.554-117.289-72.868-179.957-103.541c4.65,2.277,9.297,4.562,13.932,6.859c0,0,35.836,74.346,51.225,115.259
			c39.011,103.744,78.578,225.41,27.515,332.529c13.177-25.266,22.047-52.481,28.101-81.504c0.736-3.52,3.467-14.417,5.072-28.249
			c6.279-53.991-11.012-125.291-16.297-151.462c10.323,0.336,20.471,8.163,29.631,18.479c-13.566-17.049-25.37-34.945-31.726-54.941
			c6.145-23.532,28.921,4.225,49.899,27.208c24.893,27.273,43.871,40.485,60.688,59.711
			c44.816,51.225,77.685,149.773,80.456,225.136c3.646,99.062,13.899,190.497-54.806,313.352
			c-25.463,45.515-43.118,84.74-76.19,125.016c-42.642,51.938-61.301,84.576-81.295,129.659
			c-29.047,65.501-41.153,132.749-62.646,225.29c-25.976,111.889-33.002,257.523-44.724,373.818
			c-10.933,108.466-49.975,175.65-122.114,265.448c-75.001,93.377-271.617,204.048-385.248,176.298
			c-29.625-7.236-63.533-53.695-80.694-85.622c-71.626-133.191-124.092-209.789-150.669-327.259
			c-19.986-88.328-32.666-121.373-41-191.372c-22.297-187.292,32.23-325.272,39.949-511.091
			c2.34-56.26-5.769-106.672-14.919-162.862c-30.138-185.011-53.784-405.303,9.852-597.472
			c31.005-93.614,64.038-147.935,149.47-238.095c39.801-42.008,126.52-83.561,132.822-36.19
			c1.676,12.588-8.984,21.152-24.088,27.632l12.316,9.714c-0.02,0.004-0.038,0.01-0.059,0.014c3.609-0.748,7.256-1.367,10.936-1.847
			c68.609-8.944,33.82,69.374,25.845,108.855c-10.364,51.318-15.319,128.679-17.356,183.621
			c-0.404,10.861-1.367,20.266-1.807,32.006L5744.165,3056.544z"/>
		<path id="_x31_80609130" fill="none" stroke="#000000" stroke-width="52.9743" d="M6224.124,2774.458
			c-74.735-37.03-151.58-71-222.507-113.21c-13.22-7.871-26.53-15.607-39.937-23.18c-11.285-6.375-22.19-13.396-33.851-19.104
			c-11.61-5.683-22.335-16.268-36.348-11.413c-22.761,7.876-35.4,30.688-46.083,49.956c-9.838,17.743-22.189,34.07-31.261,52.219
			c-20.026,40.071-31.954,84.946-40.076,128.586c-4.553,24.481-9.853,48.917-12.538,73.653
			c-10.434,96.353-30.294,207.737-23.117,304.334c2.738,36.853,7.309,79.281,23.639,113.057
			c45.166,93.421,164.107,88.185,252.711,70.438c106.099-21.289,228.354-70.476,283.812-168.937
			c60.588-107.575,16.836-234.603-23.229-341.133C6259.953,2848.808,6224.124,2774.458,6224.124,2774.458z"/>
		<path id="_x31_80609131" fill="none" stroke="#000000" stroke-width="52.9743" d="M6124.749,2726.426
			c-41.841-20.184-83.265-41.341-123.125-65.06c-13.221-7.872-26.528-15.608-39.936-23.18
			c-11.287-6.374-22.197-13.397-33.859-19.102c-11.602-5.683-22.326-16.267-36.34-11.417c-22.761,7.878-35.398,30.689-46.082,49.956
			c-9.84,17.742-22.189,34.068-31.268,52.216c-6.291,12.586-22.143,36.185-3.542,44.004c20.964,8.804,44.399,13.743,65.869,21.486
			c29.622,10.686,59.975,23.465,88.28,36.928c24.088,11.466,52.125,22.188,79.558,15.972c14.747-3.343,29.028-15.41,42.529-22.045
			c18.98-9.322,29.991-12.124,50.777-12.273c20.206-0.145,40.76,2.277,58.876,11.511c8.637,4.397,30.005,24.136,40.936,19.795
			c18.52-7.355-3.025-25.041-12.486-50.159C6204.855,2765.086,6190.931,2758.346,6124.749,2726.426z"/>
		<path id="_x31_80609133" fill="none" stroke="#000000" stroke-width="52.9743" d="M6014.759,3399.792
			c46.92-9.404,96.178-26.248,147.703-49.521c45.684-20.627,213.951-133.822,105.742-191.368
			c-39.453-20.985-71.471,16.853-111.146,27.296c-102.771,27.055-206.912,70.817-310.719,15.652
			c-20.709-11.008-68.871-64.883-90.265-60.679c-22.825,4.479-18.226,67.657-17.681,75.002
			c2.734,36.882,7.305,79.365,23.652,113.177C5807.212,3422.771,5926.169,3417.535,6014.759,3399.792z"/>
		<path id="_x31_80609132" fill="none" stroke="#000000" stroke-width="52.9743" d="M5781.12,3064.162
			c-12.602-12.973-25.125-30.43-27.357-44.088c-4.439-27.063,0.848-54.587,4.479-81.45c3.79-27.955,9.89-62.114,13.7-87.065
			c2.588-16.968,7.3-37.664,18.58-75.791c24.123-18.458-4.582,77.975-5.102,108.636c-0.521,30.273,9.046,64.061,29.373,87.214
			c40.942,46.621,114.508,44.204,170.742,32.996c65.924-13.148,125.846-43.278,182.154-78.31
			c23.096-14.365,58.35-47.271,88.473-36.416c27.916,10.057,38.908,55.223,39.967,80.171c2.137,50.12-25.361,68.676-69.646,90.538
			l9.303-3.962c-18.091,8.698-40.009,18.195-58.829,25.213c-30.948,11.532-62.104,21.994-94.479,29.443
			c-55.454,12.772-124.546,16.793-180.352,7.189c-26.231-4.511-52.392-11.491-76.136-23.449
			c-10.429-5.248-20.777-11.035-30.209-17.875C5791.333,3073.926,5786.223,3069.408,5781.12,3064.162z"/>
		<path id="_x31_80609135" fill="none" stroke="#000000" stroke-width="52.9743" d="M6396.491,3277.506
			c-16.867-79.046-34.563-132.233-66.002-182.57c-5.123-8.208-16.593-39.122-31.298-53.942
			c-19.114-19.257-45.548,7.044-63.405,15.639c-18.09,8.698-40.008,18.196-58.83,25.214c-30.948,11.531-62.102,21.993-94.478,29.442
			c-55.454,12.772-124.546,16.793-180.352,7.189c-47.313-8.138-86.053-23.113-117.215-51.678
			c-10.231-9.371-27.294-39.282-42.259-26.937c-5.445,4.488-11.941,16.773-14.208,25.221c-3.265,12.116-9.984,28.453-12.398,40.743
			c-15.052,76.651-5.314,147.157,9.945,222.772c6.114,30.299,14.198,60.105,22.241,89.941c-0.494-6.719,0.449-12.331,4.06-15.095
			c11.397-8.733,22.024,17.986,28.476,24.714c31.575,32.966,59.321,43.906,103.389,51.811c21.975,3.945,65.908,3.922,68.719,33.57
			c2.666,28.111-48.42,68.699-64.863,91.088c-32.914,44.827-52.333,96.725-64.674,150.375
			c-5.677,24.695-10.038,48.847-17.964,72.678c-9.573,28.801-16.698,55.583-22.317,84.818c-3.104,16.144-26.16,42.961-33.275,14.478
			c-0.828-3.309-1.24-7.317-1.344-11.815c-1.027,6.271-2.093,12.531-3.242,18.771c-19.298,104.938-83.539,219.328-37.455,325.614
			c15.283,35.251,56.062,77.931,97.229,52.921c18.752-11.39,30.699-33.229,38.479-52.521c9.457-23.456,16.393-47.784,21.578-72.442
			c7.209-34.303,10.894-69.178,13.162-104.068c3.977-61.334,3.562-122.908,10.318-184.072
			c5.111-46.264,18.759-91.229,27.688-136.852c8.193-41.829,20.523-82.356,40.197-120.539c22.777-44.21,55.09-81.644,87.879-119.078
			c15.392-17.569,30.818-35.18,45.467-53.348c16.546-20.52,34.951-40.911,50.141-62.472c6.19-8.783,38.478-41.875,19.982-49.206
			c-7.873-3.117-52.402,15.837-58.8,18.445c-27.419,11.166-56.988,17.685-85.985,23.488
			c-88.591,17.735-207.531,22.966-252.689-70.442c-16.354-33.809-20.92-76.291-23.653-113.171
			c-0.545-7.347-5.143-70.519,17.683-74.998c21.393-4.203,69.554,49.668,90.265,60.675
			c103.806,55.162,207.947,11.401,310.716-15.656c22.379-5.889,41.695-19.593,63.266-27.537c17.796-6.56,34.078-5.883,47.813,0.464
			c13.991,6.461,25.349,18.802,32.974,35.359c15.58,33.795,26.17,72.691,24.002,109.927c-2.182,37.342-13.375,74.514-25.018,109.979
			c-6.096,18.582-13.025,36.863-20.028,55.14c-31.146,81.29-82.209,162.711-129.349,236.22
			c-63.162,98.506-87.568,182.342-111.3,290.432c-23.843,108.583,17.907,261.278-21.536,365.94
			c-26.363,69.947-172.79,110.843-139.891,193.61c18.492,46.51,87.653,12.443,130.684-12.289
			c69.334-39.836,71.016-134.719,73.941-197.256c6.018-128.317,1.4-209.947,21.156-337.295
			c25.634-165.231,116.015-285.65,200.914-427.664C6354.225,3498.951,6417.994,3378.292,6396.491,3277.506z"/>
		<path id="_x31_80609136" fill="none" stroke="#000000" stroke-width="52.9743" d="M5434.36,5127.438
			c-74.539-191.518-114.895-278.446-219.832-424.527c-56.809-79.071-117.101-223.906-148.66-315.163
			c-50.667-146.528-34.688-216.986-52.875-369.778c-17.567-147.578-44.298-353.135-25.793-501.207
			c19.785-158.232,47.326-318.04,94.583-470.422c-65.136,210.016-110.737,426.52-137.117,644.295
			c-24.71,203.917-5.784,395.141-12.456,597.102c-7.496,226.521-20.857,474.675,99.477,677.606
			c102.581,173,354.249,342.585,561.721,341.234c38.309-0.248,73.955-7.495,107.432-19.775
			C5597.438,5307.414,5467.766,5213.27,5434.36,5127.438z"/>
		<path id="_x31_80609134" fill="none" stroke="#000000" stroke-width="52.9743" d="M5749.782,3926.977
			c7.117,28.484,30.172,1.665,33.277-14.477c5.619-29.236,12.742-56.018,22.317-84.818c7.924-23.832,12.285-47.982,17.962-72.678
			c12.341-53.651,31.76-105.548,64.674-150.375c16.443-22.391,67.529-62.977,64.863-91.09
			c-2.811-29.646-46.742-29.625-68.719-33.568c-44.067-7.904-71.813-18.845-103.387-51.812c-6.453-6.729-17.08-33.447-28.476-24.714
			c-3.61,2.765-4.554,8.377-4.061,15.095c1.841,6.832,3.681,13.667,5.491,20.508c1.67,6.305,3.25,12.597,4.74,18.88
			c0.312,0.985,0.578,1.862,0.771,2.586c10.695,40.16,16.906,80.269,17.157,122.477c0.208,35.022-0.189,70.605-1.9,106.709
			c0.213,16.471-0.114,32.902-2.627,49.271c-0.467,3.036-0.911,6.08-1.356,9.123c-2.503,27.696-5.962,55.682-10.692,83.94
			c-0.027,0.156-0.057,0.323-0.084,0.483c-3.332,27.652-6.801,55.276-11.291,82.645
			C5748.542,3919.66,5748.956,3923.669,5749.782,3926.977z"/>
	</g>
</g>
</svg>
