<?xml version="1.0" encoding="utf-8"?>
<!-- Generator: Adobe Illustrator 16.0.0, SVG Export Plug-In . SVG Version: 6.00 Build 0)  -->
<!DOCTYPE svg PUBLIC "-//W3C//DTD SVG 1.1//EN" "http://www.w3.org/Graphics/SVG/1.1/DTD/svg11.dtd">
<svg version="1.1" id="Layer_1" xmlns="http://www.w3.org/2000/svg" xmlns:xlink="http://www.w3.org/1999/xlink" x="0px" y="0px"
	 width="9744.01px" height="6823.46px" viewBox="0 0 9744.01 6823.46" enable-background="new 0 0 9744.01 6823.46"
	 xml:space="preserve">
<g transform="scale(1.0)">
	<g id="_x31_80632010" transform=" scale(1.0, 1.0)">
		<path id="_x31_80632012" fill="none" stroke="#010101" stroke-width="64" d="M4913.469,6255.078
			c0.621-7.797,59.364-11.852,128.209-20.109c56.621-6.773,107.445-4.311,164.208,0.022c71.05,5.409,144.252,34.444,216.026,22.287
			c66.05-11.207,153.195-65.868,207.316-105.394c95.887-70.027,167.818-175.336,264.787-241.334
			c74.432-50.648,168.391-58.151,248.617-96.458c78.432-37.45,152.889-92.632,214.732-155.427
			c43.559,118.953,47.958,205.516,151.111,288.281c150.842,121.035,310.898,242.052,474.317,344.085
			c308.491,192.597,681.109,117.942,924.911-154.418c145.928-163.022,260.174-381.194,368.145-538.124
			c133.348-193.812,209.369-356.895,306.268-573.415c87.723-196.041,145.637-338.893,202.131-547.798
			c9.605-35.49,154.518-255.449,236.453-393.34c36.197-60.911,73.613-251.278,74.396-286.485
			c1.662-76.514,28.297-144.841,21.238-220.473c-3.18-34.034-21.092-197.556-22.453-258.359
			c-2.035-90.546-43.41-136.666-39.361-232.966c9.137-217.915-37.396-417.231-108.133-595.067
			c-50.266-126.402-85.043-201.822-148.631-328.94c-26.096-52.189-111.809-139.038-126.48-187.128
			c-28.105-92.222-33.99-128.851-80.492-212.586c-40.678-73.259-87.602-149.231-153.197-217.454
			c-61.49-63.957-96.748-147.234-150.768-209.863c-150.121-174.079-350.865-324.748-540.657-440.159
			c-156.669-95.263-334.457-183.95-531.099-252.736c-75.301-26.341-168.023-55.61-237.389-81.248
			c-212.605-78.575-407.523-129.423-612.238-165.515c-121.436-21.409-219.992-18.577-336.85-29.466
			c-120.585-11.235-239.891-4.397-363.5-11.655c-124.916-7.334-253.318-9.584-376.235,18.33
			c-118.821,26.987-205.538,118.339-296.499,198.292c-28.623,25.152-51.08,46.986-93.146,64.851l3.663,1051.689L4913.469,6255.078z"
			/>
		<path id="_x31_80632013" fill="none" stroke="#010101" stroke-width="64" d="M9116.318,3576.935
			c-3.174-34.026-21.088-197.554-22.459-258.351c-2.035-90.555-43.398-136.667-39.357-232.973
			c9.143-217.898-37.402-417.231-108.139-595.067c-50.258-126.404-85.037-201.814-148.625-328.935
			c-26.105-52.198-111.801-139.037-126.473-187.135c-28.113-92.221-34-128.835-80.494-212.586
			c-40.688-73.251-87.619-149.23-153.205-217.448c-61.482-63.961-96.748-147.234-150.762-209.862
			c-150.127-174.087-361.066-322.493-540.642-440.122c-160.001-104.8-322.167-178.847-555.673-260.373
			c-69.161-24.143-167.103-57.578-231.027-81.205c-212.607-78.567-389.336-121.871-594.039-157.958
			c-121.443-21.412-219.991-18.581-336.863-29.469c-120.57-11.23-239.885-4.396-363.488-11.66
			c-183.187-10.746-327.9-4.288-436.966,38.566c-129.782,50.982-228.177,200.502-328.898,242.951
			c0.376,147.373,2.647,760.075,2.6,885.511c-0.022,53.586,0.922,110.473,1.058,164.065v0.018
			c25.127,5.704,51.057,8.634,77.422,9.407c11.129,0.354,22.326,0.246,33.597-0.171c27.698-1.078,55.466-4.237,82.716-8.78
			c19.957-3.367,39.618-7.428,58.69-12.025c36.074-8.729,69.258-25.845,100.665-46.885c37.436-25.141,72.354-55.975,106.614-84.88
			c8.38-7.11,16.761-14.066,25.142-20.868c47.058-38.031,73.693-79.629,120.265-105.488c10.742-5.961,22.591-11.156,35.989-15.199
			c3.019-0.931,6.038-1.789,9.203-2.568c20.541-5.14,43.521-7.361,67.537-7.582c63.655-0.872,134.564,12.26,186.829,23.053
			c49.163,10.188,92.284,19.158,131.208,27.523c88.459,18.859,155.174,34.313,221.083,52.08
			c102.551,27.601,162.642,45.691,227.243,69.008c29.348,10.626,59.657,22.329,95.278,36.481
			c114.017,45.288,280.526,134.88,354.249,182.669c77.486,50.165,145.312,97.586,265.658,198.32
			c24.736,20.654,51.758,43.612,81.515,69.26c143.241,123.781,179.673,166.744,272.021,266.557
			c47.504,51.328,81.429,93.524,134.876,164.324c23.726,31.442,46.427,63.58,68.835,96.797
			c25.659,37.83,50.958,77.048,77.145,118.113c66.866,104.966,133.811,210.317,181.311,318.728
			c50.762,115.797,97.105,233.146,130.467,344.14c4.383,14.701,8.693,29.479,12.859,44.49c5.65,20.167,10.936,40.569,15.848,61.122
			c1.713,7.162,3.426,14.318,4.99,21.554c2.609,11.395,4.996,22.793,7.232,34.341c1.943,9.852,3.736,19.707,5.453,29.564
			c0.975,5.85,1.945,11.626,2.846,17.402c0.6,3.926,1.199,7.854,1.727,11.779c0.824,5.777,1.648,11.553,2.402,17.329
			c0.674,5.16,1.277,10.319,1.803,15.481c0.605,5.159,1.135,10.395,1.662,15.553c0.459,5.703,0.988,11.398,1.369,17.101
			c0.379,4.157,0.686,8.238,0.844,12.322c4.379,70.32,0.209,140.67-17.006,209.354c-34.131,136.675-96.572,266.499-140.512,400.972
			l-3.651,11.18h0.069c-16.006,50.425-29.211,101.691-40.35,153.564c-1.022,4.24-1.971,8.558-2.916,12.875
			c-5.17,23.74-10.186,50.482-15.123,79.002c-1.237,7.014-2.469,14.1-3.702,21.348c-0.876,5.242-1.817,10.557-2.614,15.797
			c-7.039,42.316-13.267,84.7-19.126,127.086c-1.884,13.334-3.69,26.432-5.425,39.303c-13.165,96.482,4.059,206.829-19.574,300.106
			c-0.656,2.466-1.242,5.009-1.896,7.476c-0.365,1.31-0.73,2.699-1.094,4.089c-0.586,2.155-1.168,4.47-1.826,6.862
			c-2.92,10.561-6.572,23.203-10.886,37.006c0,0.074-0.069,0.154-0.069,0.229c-0.221,0.694-0.514,1.468-0.73,2.16h0.071
			c-5.773,18.041-12.647,38.014-20.628,57.834c-4.109,6.021-7.854,12.425-11.447,19.062c-10.262,18.902-19.351,39.031-30.51,53.699
			c-15.495,20.379-35.344,37.152-56.453,51.23c-7.068,1.328-14.289,1.271-21.737-0.559c-24.474-5.863,6.401-33.602,16.826-47.423
			c56.978-76.033,82.87-121.558,94.792-214.033c13.296-103.111,25.195-203.444,32.152-307.532
			c3.618-54.094,3.801-99.696,24.004-150.518c7.688-19.357,57.445-240.815,47.125-243.482
			c-46.299-11.813-70.658,57.43-92.094,87.303c-37.221,51.871-81.674,100.065-121.773,149.861
			c-72.488,90.259-143.122,184.279-186.605,294.1c-18.889,47.891-43.086,94.259-56.07,144.516
			c-4.011,15.494-7.943,92.773-36.621,85.384c-6.142-1.614-10.152-8.56-12.647-17.604c-7.77,55.831,2.077,121.899,24.245,168.518
			c36.416,76.567,162.982,59.884,168.289,150.595c4.904,83.875-42.86,99.845-106.469,109.535
			c-137.641,20.972-294.355,85.844-421.444,2.254c-48.065-31.616-105.073-95.453-168.896-62.176
			c-22.572,11.785-41.643,39.832-60.094,57.462c-64.453,61.595-128.583,131.106-168.638,213.106
			c-25.667,52.543-23.245,91.723-21.726,147.5c1.67,61.992-29.904,115.546-62.817,165.348
			c131.989,103.896,270.214,205.833,410.934,293.691c308.491,192.598,681.109,117.945,924.897-154.463
			c145.922-163.012,260.178-381.177,368.145-538.115c133.344-193.819,209.371-356.908,306.262-573.412
			c87.73-196.044,145.639-338.891,202.131-547.801c9.611-35.499,154.525-255.459,236.461-393.34
			c36.193-60.91,73.613-251.285,74.385-286.492C9096.736,3720.894,9123.375,3652.567,9116.318,3576.935z"/>
		<path id="_x31_80632014" fill="none" stroke="#010101" stroke-width="64" d="M5953.293,2325.377
			c65.713-31.074,122.021-81.532,178.338-127.68c98.592-80.699,170.745-186.746,118.442-329.807
			c-44.887-122.67-199.966-207.208-415.514-227.333c-174.872-16.385-326.765,80.714-487.837,131.003
			c-147.346,45.991-285.715,134.511-443.238,134.804l0.331,119.412c26.419,31.027,12.835,90.557,15.428,114.331
			c5.456,49.96,32.64,74.648,59.628,102.019c31.404,31.862,61.82,61.938,83.176,102.036c9.307,17.471,12.428,37.286,24.933,52.893
			c12.126,15.14,24.575,31.91,37.583,46.718c75.557,85.967,181.306,182.004,301.021,171.78
			c34.938-2.986,75.453-13.272,107.063-29.397c74.499-38.01,133.107-117.863,206.923-158.788
			c22.945-12.725,51.438-18.589,82.216-19.989C5867.979,2351.806,5898.479,2351.409,5953.293,2325.377z"/>
		<path id="_x31_80632124" fill="none" stroke="#010101" stroke-width="64" d="M5937.328,359.951l0.353,139.357
			c-159.464-12.194-313.427-62.918-473.472-72.256l-12.423-76.23c71.161-3.663,142.782-1.089,213.302,3.029
			C5757.486,359.217,5847.436,356.812,5937.328,359.951z"/>
		<path id="_x31_80632123" fill="none" stroke="#010101" stroke-width="64" d="M5937.681,499.308l0.727,285.875
			c-0.223,0.461-0.366,0.847-0.441,1.309l-1.399,0.005c-116.481-59.61-259.293-100.274-381.051-147.081
			c-19.099-7.343-39.381-15.067-60.317-21.864l-30.989-190.499C5624.254,436.39,5778.219,487.114,5937.681,499.308z"/>
		<path id="_x31_80632122" fill="none" stroke="#010101" stroke-width="64" d="M5938.422,791.111l0.641,252.75
			c-164.825-64.482-225.273-135.495-409.59-215.947l-34.274-210.365c20.94,6.799,41.219,14.523,60.317,21.867
			c121.758,46.807,264.569,87.471,381.053,147.08l1.4-0.003C5937.679,787.957,5937.83,789.496,5938.422,791.111z"/>
		<path id="_x31_80632121" fill="none" stroke="#010101" stroke-width="64" d="M5939.062,1043.863l0.852,335.639
			c-111.758-25.882-212.451-47.48-328.94-51.086l-81.501-500.502C5713.789,908.366,5774.237,979.38,5939.062,1043.863z"/>
		<path id="_x31_80632120" fill="none" stroke="#010101" stroke-width="64" d="M5939.914,1379.501l0.139,54.079l-1.311,6.859
			c-38.92-8.365-82.045-17.335-131.208-27.523c-52.265-10.793-123.174-23.924-186.827-23.053l-0.002-1.619l-9.731-59.829
			C5727.463,1332.021,5828.156,1353.619,5939.914,1379.501z"/>
		<path id="_x31_80632129" fill="none" stroke="#010101" stroke-width="64" d="M5451.786,350.82l12.423,76.232
			c-5.158-0.294-10.312-0.589-15.473-0.805c-131.152-5.414-253.592,56.167-329.658,158.914l-46.559-86.305
			c64.615-56.568,132.484-107.677,216.355-126.707C5342.402,359.983,5396.98,353.514,5451.786,350.82z"/>
		<path id="_x31_80632128" fill="none" stroke="#010101" stroke-width="64" d="M5464.209,427.052l30.986,190.499
			c-80.373-26.509-169.85-40.667-236.283,25.616c-25.575,25.491-44.873,57.205-59.297,91.527l-80.537-149.531
			c76.066-102.747,198.506-164.329,329.658-158.916C5453.896,426.463,5459.053,426.759,5464.209,427.052z"/>
		<path id="_x31_80632127" fill="none" stroke="#010101" stroke-width="64" d="M5495.195,617.551l34.275,210.363
			c-1.4-0.611-2.803-1.225-4.201-1.837c-64.17-27.784-113.989-62.698-160.967,6.302c-21.943,32.184-37.311,74.827-47.51,119.767
			l-117.178-217.452c14.424-34.32,33.719-66.035,59.297-91.528C5325.348,576.884,5414.822,591.042,5495.195,617.551z"/>
		<path id="_x31_80632126" fill="none" stroke="#010101" stroke-width="64" d="M5529.473,827.914l81.501,500.502
			c-29.179-0.92-59.382-0.76-90.983,0.868l-203.197-377.138c10.203-44.94,25.566-87.583,47.514-119.767
			c46.977-69,96.796-34.086,160.963-6.302C5526.668,826.69,5528.07,827.302,5529.473,827.914z"/>
		<path id="_x31_80632125" fill="none" stroke="#010101" stroke-width="64" d="M5620.705,1388.245l0.002,1.619
			c-24.016,0.221-46.998,2.441-67.539,7.582l-1.277-9.009l-31.9-59.152c31.602-1.629,61.807-1.789,90.983-0.869L5620.705,1388.245z"
			/>
		<path id="_x31_80632107" fill="none" stroke="#010101" stroke-width="64" d="M8689.219,2010.03l-2.062,1.394l-67.025,36.776
			c-25.717-60.478-48.273-122.43-75.17-182.288c-66.758-148.493-177.76-284.537-276.723-407.978
			c-139.541-173.866-304.916-309.452-484.385-424.583l55.795-77.498l0.588-0.928c173.205,114.843,306.447,217.161,446.619,379.701
			c54.018,62.633,89.225,145.887,150.758,209.81c65.594,68.227,112.5,144.207,153.207,217.506
			c46.479,83.765,52.393,120.338,80.477,212.549C8674.418,1984.805,8680.855,1996.881,8689.219,2010.03z"/>
		<path id="_x31_80632106" fill="none" stroke="#010101" stroke-width="64" d="M8620.131,2048.202l-235.504,129.224
			c-74.289-155.636-156.596-304.779-275.162-430.325c-53.41-56.55-98.842-105.338-155.855-157.334
			c-105.229-96.003-228.706-183.249-345.305-259.188c-4.797-3.069-9.448-6.215-14.17-9.36c-3.984-2.685-7.973-5.369-11.957-8.056
			l201.676-279.812c179.468,115.133,344.844,250.717,484.385,424.581c98.963,123.445,209.965,259.488,276.723,407.98
			C8571.857,1925.771,8594.414,1987.723,8620.131,2048.202z"/>
		<path id="_x31_80632105" fill="none" stroke="#010101" stroke-width="64" d="M8384.627,2177.426l-134.344,73.786
			c-16.719-27.456-32.924-55.373-48.244-83.834c-24.504-45.614-52.764-90.831-75.277-136.373
			c-57.986-117.241-176.822-205.116-268.553-292.683c-112.623-107.535-225.273-194.426-343.908-288.542
			c-6.494-5.144-12.99-10.288-19.488-15.432l87.365-121.187c3.984,2.686,7.973,5.37,11.957,8.056c4.722,3.146,9.373,6.29,14.17,9.36
			c116.599,75.939,240.076,163.186,345.305,259.188c57.014,51.996,102.445,100.784,155.855,157.334
			C8228.031,1872.649,8310.338,2021.79,8384.627,2177.426z"/>
		<path id="_x31_80632104" fill="none" stroke="#010101" stroke-width="64" d="M8250.283,2251.213l-251.25,137.896
			c-6.584-11.073-13.318-22.149-20.047-33.146c-180.518-294.621-399.188-499.62-642.898-701.236l158.725-220.375
			c6.498,5.143,12.994,10.287,19.488,15.43c118.635,94.115,231.285,181.006,343.908,288.543
			c91.73,87.566,210.566,175.441,268.553,292.681c22.514,45.542,50.773,90.76,75.277,136.373
			C8217.359,2195.84,8233.564,2223.756,8250.283,2251.213z"/>
		<path id="_x31_80632103" fill="none" stroke="#010101" stroke-width="64" d="M7978.986,2355.962
			c6.729,10.997,13.463,22.073,20.047,33.146l-277.145,152.066c-123.182-172.987-249.515-310.375-412.896-472.31
			c-52.363-51.777-107.744-100.773-165.474-146.832l192.569-267.306C7579.799,1856.343,7798.469,2061.344,7978.986,2355.962z"/>
		<path id="_x31_80632102" fill="none" stroke="#010101" stroke-width="64" d="M7721.889,2541.174L7662,2574.081l-2.5,1.855
			c-22.408-33.218-45.109-65.354-68.835-96.797c-53.447-70.8-87.372-112.999-134.876-164.324
			c-92.348-99.813-128.779-142.774-272.021-266.559c-29.757-25.647-56.78-48.606-81.515-69.258l3.23-4.245l38.03-52.721
			c57.733,46.059,113.114,95.056,165.477,146.83C7472.374,2230.801,7598.707,2368.188,7721.889,2541.174z"/>
		<path id="_x31_80632119" fill="none" stroke="#010101" stroke-width="64" d="M6619.561,449.036l-14.34,68.601
			c-55.818-17.947-112.801-31.193-171.682-36.115c-129.545-10.733-251.129,10.249-379.818,18.85
			c-39.113,2.651-77.723,1.909-116.04-1.063l-0.353-139.357c30.43,0.994,60.786,2.682,91.295,5.524
			c116.803,10.924,215.375,8.109,336.843,29.494C6451.189,410.062,6535.223,427.778,6619.561,449.036z"/>
		<path id="_x31_80632118" fill="none" stroke="#010101" stroke-width="64" d="M6605.221,517.636l-50.516,242.03
			c-20.787-4.255-41.572-7.51-62.207-9.841c-82.762-9.247-165.929-5.395-248.969-8.632c-80.681-3.241-129.096-6.883-209.43,10.367
			c-39.027,8.351-89.986,18.43-95.695,33.622l-0.724-285.875c38.317,2.973,76.927,3.715,116.04,1.063
			c128.689-8.601,250.273-29.583,379.818-18.85C6492.42,486.443,6549.402,499.689,6605.221,517.636z"/>
		<path id="_x31_80632117" fill="none" stroke="#010101" stroke-width="64" d="M6554.705,759.667l-27.369,130.959
			c-108.66-24.966-215.6-38.768-327.228-43.233c-76.187-3.024-130.629-3.258-204.513-26.394
			c-37.311-11.683-53.912-21.498-57.172-29.887l-0.017-5.929c5.706-15.192,56.665-25.271,95.692-33.622
			c80.33-17.25,128.749-13.607,209.43-10.367c83.04,3.238,166.211-0.615,248.969,8.632
			C6513.133,752.156,6533.918,755.412,6554.705,759.667z"/>
		<path id="_x31_80632116" fill="none" stroke="#010101" stroke-width="64" d="M6527.336,890.626l-58.668,281.032
			c-154.005-37.86-337.37-63.389-463.236-104.177c-24.039-7.791-46.014-15.664-66.367-23.621l-0.641-252.75
			c3.26,8.388,19.861,18.204,57.172,29.886c73.884,23.137,128.326,23.37,204.513,26.394
			C6311.736,851.858,6418.676,865.66,6527.336,890.626z"/>
		<path id="_x31_80632115" fill="none" stroke="#010101" stroke-width="64" d="M6468.668,1171.658l-69.662,333.446
			c-101.694-38.003-206.54-69.683-310.846-91.963c-52.707-11.255-101.436-22.831-148.246-33.639l-0.852-335.639
			c20.354,7.956,42.33,15.828,66.365,23.619C6131.295,1108.27,6314.663,1133.798,6468.668,1171.658z"/>
		<path id="_x31_80632114" fill="none" stroke="#010101" stroke-width="64" d="M6399.006,1505.104l-11.645,55.651l-0.293,0.77
			c-64.6-23.316-124.692-41.405-227.243-69.009c-65.909-17.764-132.624-33.218-221.083-52.077l1.311-6.86l-0.139-54.078
			c46.811,10.809,95.539,22.383,148.246,33.638C6192.47,1435.422,6297.312,1467.102,6399.006,1505.104z"/>
		<path id="_x31_80632113" fill="none" stroke="#010101" stroke-width="64" d="M7840.236,954.925l-0.588,0.928l-55.795,77.498
			c-173.861-111.68-360.861-204.22-550.36-293.979c-123.774-58.665-265.342-73.448-392.718-127.79
			c-77.59-33.141-155.404-68.284-235.555-93.945l14.34-68.6c116.998,29.489,234.601,65.753,358.122,111.401
			c69.392,25.691,346.052,117.98,419.296,150.133c185.349,81.219,250.428,118.246,405.768,219.654
			C7815.44,938.511,7827.912,946.72,7840.236,954.925z"/>
		<path id="_x31_80632112" fill="none" stroke="#010101" stroke-width="64" d="M7783.854,1033.351l-201.676,279.812
			c-206.42-138.397-417.994-275.551-634.02-396.049c-119.15-66.458-257.307-130.401-393.453-157.448l50.516-242.03
			c80.15,25.661,157.965,60.806,235.555,93.946c127.376,54.341,268.943,69.122,392.718,127.79
			C7422.992,829.131,7609.992,921.671,7783.854,1033.351z"/>
		<path id="_x31_80632111" fill="none" stroke="#010101" stroke-width="64" d="M7582.178,1313.163l-87.365,121.188
			c-99.218-78.378-201.973-156.285-310.213-219.923c-188.004-110.408-363.023-243.963-575.799-303.076
			c-27.354-7.627-54.482-14.562-81.465-20.727l27.369-130.959c136.148,27.046,274.303,90.989,393.453,157.447
			C7164.184,1037.612,7375.758,1174.766,7582.178,1313.163z"/>
		<path id="_x31_80632110" fill="none" stroke="#010101" stroke-width="64" d="M7494.812,1434.351l-158.725,220.375
			c-56.923-47.065-115.171-93.895-174.674-141.723c-141.448-113.621-357.88-218.556-544.101-295.075
			c-43.292-17.831-94.093-32.787-148.646-46.271l58.668-281.031c26.982,6.165,54.111,13.098,81.465,20.727
			c212.775,59.111,387.795,192.667,575.799,303.076C7292.84,1278.066,7395.595,1355.973,7494.812,1434.351z"/>
		<path id="_x31_80632109" fill="none" stroke="#010101" stroke-width="64" d="M7336.088,1654.726l-192.569,267.306
			c-180.651-144.4-384.288-261.315-589.781-353.417c-50.376-22.585-102.079-43.857-154.731-63.509l69.662-333.448
			c54.553,13.484,105.354,28.442,148.646,46.271c186.225,76.519,402.652,181.456,544.101,295.075
			C7220.917,1560.831,7279.165,1607.661,7336.088,1654.726z"/>
		<path id="_x31_80632108" fill="none" stroke="#010101" stroke-width="64" d="M7143.519,1922.032l-38.032,52.721l-3.23,4.245
			c-120.344-100.733-188.172-148.154-265.66-198.32c-73.723-47.787-240.23-137.379-354.249-182.668
			c-35.621-14.151-65.931-25.854-95.278-36.481l0.293-0.771l11.645-55.65c52.652,19.651,104.355,40.923,154.731,63.51
			C6759.23,1660.717,6962.867,1777.631,7143.519,1922.032z"/>
		<path id="_x31_80632101" fill="none" stroke="#010101" stroke-width="64" d="M9093.916,3318.579
			c0.666,30.583,5.527,86.958,10.596,139.867l-1.104,0.08l-132.412-7.336c-5.385-30.875-11.062-62.061-13.947-95.715
			c-6.912-81.483,0.84-163.316,0.633-244.896c-0.588-203.063-25.258-429.709-91.24-621.111
			c-24.566-71.42-56.574-142.742-99.758-204.021c-45.178-64.122-90.988-116.146-125.137-188.927
			c-7.48-15.926-14.596-32.083-21.416-48.318l67.025-36.778l2.062-1.392c30.695,48.215,88.023,110.608,108.535,151.612
			c63.611,127.085,98.355,202.561,148.627,328.913c70.738,177.831,117.291,377.222,108.117,595.103
			C9050.469,3181.963,9091.844,3228.069,9093.916,3318.579z"/>
		<path id="_x31_80632098" fill="none" stroke="#010101" stroke-width="64" d="M8970.996,3451.189l-183.551-10.196
			c-1.811-103.687-12.238-206.884-30.545-306.978c-15.988-87.159-19.654-167.342-37.482-254.111
			c-20.512-99.935-59.623-210.681-113.105-296.271c-50.449-80.826-100.559-143.391-140.566-230.716
			c-26.967-58.78-53.49-117.638-81.119-175.491l235.504-129.224c6.82,16.235,13.936,32.391,21.416,48.316
			c34.148,72.782,79.959,124.808,125.137,188.928c43.184,61.279,75.191,132.603,99.758,204.022
			c65.982,191.402,90.652,418.048,91.24,621.111c0.207,81.579-7.545,163.412-0.633,244.896
			C8959.934,3389.129,8965.611,3420.314,8970.996,3451.189z"/>
		<path id="_x31_80632097" fill="none" stroke="#010101" stroke-width="64" d="M8787.445,3440.993l-114.285-6.386
			c-1.469-25.343-3.441-50.683-7.342-75.937c-21.949-144.073-48.686-286.513-80.875-428.476
			c-21.531-94.847-33.398-183.175-78.336-269.559c-75.072-144.232-172.574-271.763-256.324-409.424l134.344-73.786
			c27.629,57.854,54.152,116.711,81.119,175.491c40.008,87.325,90.117,149.891,140.566,230.716
			c53.482,85.59,92.594,196.333,113.105,296.271c17.828,86.77,21.494,166.952,37.482,254.111
			C8775.207,3234.109,8785.635,3337.307,8787.445,3440.993z"/>
		<path id="_x31_80632096" fill="none" stroke="#010101" stroke-width="64" d="M8673.16,3434.607l-326.279-18.124
			c-5.496-46.896-10.848-93.875-13.104-140.784c-6.072-128.092-9.566-287.544-64.162-404.562
			c-36.67-78.552-80.113-155.158-123.695-229.684c-49.283-84.294-97.314-169.822-146.887-252.345l251.25-137.893
			c83.75,137.66,181.252,265.188,256.324,409.421c44.938,86.386,56.805,174.713,78.336,269.56
			c32.189,141.962,58.926,284.403,80.875,428.476C8669.719,3383.925,8671.691,3409.264,8673.16,3434.607z"/>
		<path id="_x31_80632095" fill="none" stroke="#010101" stroke-width="64" d="M8346.881,3416.483l-191.213-10.639
			c-0.83-8.546-2.328-17.942-4.566-28.337c-14.014-65.285-65.018-160.126-109.482-262.69
			c-72.922-168.196-134.236-290.049-227.068-435.929c-30.991-48.753-61.684-94.35-92.662-137.711l277.145-152.066
			c49.572,82.522,97.604,168.051,146.887,252.345c43.582,74.526,87.025,151.132,123.695,229.685
			c54.596,117.018,58.09,276.471,64.162,404.562C8336.033,3322.608,8341.385,3369.585,8346.881,3416.483z"/>
		<path id="_x31_80632094" fill="none" stroke="#010101" stroke-width="64" d="M8155.668,3405.844l-92.178-5.138l-2.211,0.701
			c-4.164-15.011-8.475-29.788-12.859-44.49c-33.359-110.994-79.703-228.342-130.465-344.138
			c-47.504-108.411-114.446-213.764-181.311-318.73c-26.188-41.065-51.485-80.283-77.146-118.113l2.502-1.855l59.889-32.907
			c30.979,43.364,61.671,88.959,92.662,137.713c92.832,145.878,154.142,267.732,227.068,435.926
			c44.463,102.564,95.469,197.408,109.482,262.693C8153.34,3387.902,8154.838,3397.294,8155.668,3405.844z"/>
		<path id="_x31_80632093" fill="none" stroke="#010101" stroke-width="64" d="M9116.307,3576.972
			c7.115,75.625-19.525,143.956-21.174,220.451c-0.73,32.281-32.289,195.22-65.477,268.96l-3.32-1.61l-123.947-38.098
			c24.502-70.475,34.338-143.3,45.77-226.839c10.197-74.983,32.5-140.679,35.328-216.951c1.797-47.303-5.09-89.27-12.494-131.695
			l132.414,7.336l1.105-0.08C9109.508,3510.969,9114.715,3560.029,9116.307,3576.972z"/>
		<path id="_x31_80632092" fill="none" stroke="#010101" stroke-width="64" d="M8970.996,3451.189
			c7.4,42.426,14.287,84.393,12.49,131.695c-2.824,76.272-25.131,141.968-35.328,216.951
			c-11.426,83.539-21.268,156.364-45.764,226.839l-246.859-75.961c9.158-19.745,17.219-38.181,24.104-54.456l3.602-1.397
			c27.576,37.901,55.619-2.078,63.85-39.233c29.869-134.511,42.848-274.978,40.355-414.634L8970.996,3451.189z"/>
		<path id="_x31_80632091" fill="none" stroke="#010101" stroke-width="64" d="M8787.445,3440.993
			c2.492,139.656-10.486,280.123-40.355,414.634c-8.23,37.155-36.273,77.135-63.85,39.233c-1.846-2.532-3.621-5.383-5.471-8.611
			c-16.652-29.457,5.65-95.77,11.023-127.37c11.25-66.355,3.045-135.742-6.338-202.894c-5.625-40.423-6.834-80.942-9.295-121.378
			L8787.445,3440.993z"/>
		<path id="_x31_80632090" fill="none" stroke="#010101" stroke-width="64" d="M8682.455,3555.985
			c9.383,67.151,17.588,136.538,6.338,202.894c-5.373,31.601-27.676,97.913-11.023,127.37c1.85,3.229,3.625,6.079,5.471,8.611
			l-3.602,1.397c-6.885,16.275-14.945,34.711-24.104,54.456l-311.443-95.737c7.885-85.608,17.541-171.144,17.1-257.269
			c-0.301-60.394-7.377-120.849-14.311-181.225l326.279,18.124C8675.621,3475.043,8676.83,3515.562,8682.455,3555.985z"/>
		<path id="_x31_80632089" fill="none" stroke="#010101" stroke-width="64" d="M8361.191,3597.708
			c0.441,86.125-9.215,171.66-17.1,257.269l-118.637-36.493c5.309-142.761-16.615-275.97-149.818-362.265
			c0.521,2.077,1.045,4.233,1.492,6.311c-4.912-20.553-10.199-40.954-15.85-61.122l2.209-0.701
			c43.385,82.924,99.98,88.393,92.18,5.138l191.213,10.639C8353.814,3476.859,8360.891,3537.314,8361.191,3597.708z"/>
		<path id="_x31_80632088" fill="none" stroke="#010101" stroke-width="64" d="M8155.668,3405.844
			c7.803,83.252-48.793,77.787-92.178-5.138L8155.668,3405.844z"/>
		<path id="_x31_80632087" fill="none" stroke="#010101" stroke-width="64" d="M9026.336,4064.772l3.32,1.61
			c-2.93,6.633-5.939,12.57-8.947,17.588c-81.943,137.89-226.818,357.842-236.451,393.302
			c-5.402,19.968-10.805,39.396-16.285,58.285c2.842-13.183,2.586-25.429-8.18-30.946c-45.223-23.059-89.982-37.959-157.533-62.961
			l6.803-20.129c64.211-100.547,164.449-171.315,231.021-270.338c28.111-41.832,47.754-82.713,62.311-124.509L9026.336,4064.772z"/>
		<path id="_x31_80632086" fill="none" stroke="#010101" stroke-width="64" d="M8655.535,3950.714l246.854,75.961
			c-14.551,41.796-34.193,82.677-62.305,124.509c-66.572,99.022-166.812,169.791-231.021,270.345l-6.803,20.122
			c-0.734-0.308-1.549-0.534-2.285-0.844c-109.217-40.446-187.848-49.627-299.605-75.356l4.369-21.271
			c48.297-41.808,112.832-73.494,158.412-111.601C8545.855,4163.4,8612.742,4042.809,8655.535,3950.714z"/>
		<path id="_x31_80632085" fill="none" stroke="#010101" stroke-width="64" d="M8344.092,3854.977l311.443,95.737
			c-42.793,92.095-109.68,212.687-192.385,281.865c-45.58,38.106-110.115,69.786-158.412,111.601l-4.367,21.271
			c-8.035-1.821-16.293-3.806-24.77-5.862c-25.141-6.092-43.785-8.506-57.852-5.307l-1.115-4.852l-20.203-6.721
			c26.053-68.943,70.412-123.759,98.018-191.705c29.943-73.809,38.285-154.871,44.271-234.081
			C8340.289,3896.275,8342.08,3875.624,8344.092,3854.977z"/>
		<path id="_x31_80632084" fill="none" stroke="#010101" stroke-width="64" d="M8094.604,4309.019l-0.953,3.085
			c-30.83-13.092-66.48-10.91-99.607,0.584c-56.015,19.414-63.691,14.198-47.686-36.227c31.576,16.089,68.92,13.209,100.725,4.262
			c126.852-35.866,153.309-178.223,164.939-297.812c5.387-54.786,11.359-110.27,13.434-164.427l118.637,36.489
			c-2.012,20.651-3.803,41.303-5.367,61.95c-5.99,79.21-14.33,160.272-44.275,234.081c-27.605,67.946-71.963,122.762-98.018,191.705
			L8094.604,4309.019z"/>
		<path id="_x31_80632134" fill="none" stroke="#010101" stroke-width="64" d="M5034.254,865.804
			c-3.211,41.221-4.949,81.822-5.952,122.347l-128.261-113.887l-0.83-238.959c42.096-17.836,64.512-39.698,93.181-64.815
			c26.759-23.57,53.222-48.062,80.126-71.632l46.557,86.306c-39.646,53.494-66.67,118.201-75.844,190.33
			C5039.406,806.088,5036.461,836.138,5034.254,865.804z"/>
		<path id="_x31_80632133" fill="none" stroke="#010101" stroke-width="64" d="M5119.078,585.163l80.537,149.531
			c-21.677,51.443-32.361,108.709-36.359,159.87c-5.635,72.506-10.041,137.151-14.74,200.411l-78.037-69.25l-5.994-5.318
			c-18.942-16.885-21.695-19.34-36.183-32.255c0.332-4.466,6.634-131.29,7.002-135.775c2.064-25.299,4.679-50.897,7.931-76.883
			C5052.407,703.363,5079.428,638.657,5119.078,585.163z"/>
		<path id="_x31_80632132" fill="none" stroke="#010101" stroke-width="64" d="M5199.615,734.693l117.178,217.452
			c-12.02,53.11-16.889,109.359-16.701,154.887c0.185,43.216,4.863,86.497,7.921,129.704l-159.497-141.763
			c4.699-63.258,9.105-127.903,14.74-200.41C5167.254,843.403,5177.938,786.136,5199.615,734.693z"/>
		<path id="_x31_80632131" fill="none" stroke="#010101" stroke-width="64" d="M5316.793,952.146l203.197,377.138
			c-8.547,0.409-17.164,0.897-25.932,1.537c-16.939,1.28-32.828,12.262-47.52,29.02l-138.526-123.103
			c-3.058-43.209-7.736-86.49-7.921-129.706C5299.904,1061.506,5304.773,1005.257,5316.793,952.146z"/>
		<path id="_x31_80632130" fill="none" stroke="#010101" stroke-width="64" d="M5551.891,1388.435l1.277,9.01
			c-3.165,0.777-6.185,1.635-9.203,2.568c-13.398,4.043-25.247,9.238-35.989,15.198l-0.225-1l-61.214-54.372
			c14.693-16.756,30.582-27.738,47.521-29.019c8.765-0.641,17.385-1.128,25.932-1.537L5551.891,1388.435z"/>
		<path id="_x31_80632140" fill="none" stroke="#010101" stroke-width="64" d="M5028.302,988.151
			c-1.879,72.112-1.479,144.061-2.39,219.403c-0.799,63.479-7.643,124.434-16.621,185.933
			c-8.256,56.489-12.02,111.349-16.815,167.983c-4.79,57.095-9.634,93.007-11.981,126.446l-0.205,6.396
			c-26.377-0.775-52.316-3.706-77.455-9.413l-2.793-810.632L5028.302,988.151z"/>
		<path id="_x31_80632139" fill="none" stroke="#010101" stroke-width="64" d="M5028.302,988.151l36.183,32.255
			c-3.773,51.164-9.549,99.325-9.282,116.503c0.894,61.55-3.378,120.646-12.2,185.535c-7.015,51.787-14.008,83.621-17.758,114.984
			c-9.665,81.764-6.43,166.569-11.602,249.087l0.241,7.626c-11.271,0.417-22.468,0.523-33.595,0.17l0.205-6.396
			c2.348-33.439,7.191-69.352,11.981-126.446c4.796-56.634,8.56-111.494,16.815-167.983c8.979-61.5,15.822-122.453,16.621-185.931
			C5026.823,1132.211,5026.423,1060.26,5028.302,988.151z"/>
		<path id="_x31_80632138" fill="none" stroke="#010101" stroke-width="64" d="M5064.484,1020.406l84.031,74.568
			c-6.342,85.063-13.204,167.743-24.6,263.836c-10.242,86.386-24.203,217.459-28.697,304.367l1.381,22.181
			c-27.248,4.542-55.018,7.702-82.716,8.78l-0.241-7.626c5.172-82.518,1.937-167.324,11.599-249.085
			c3.753-31.363,10.746-63.199,17.761-114.986c8.822-64.887,13.094-123.986,12.2-185.535
			C5054.936,1119.731,5060.711,1071.567,5064.484,1020.406z"/>
		<path id="_x31_80632137" fill="none" stroke="#010101" stroke-width="64" d="M5308.013,1236.738
			c3.059,43.901,4.495,87.729-2.243,131.195c-13.779,88.474-26.703,161.847-52.258,254.362l2.446,4.152
			c-31.407,21.042-64.591,38.158-100.668,46.886c-19.072,4.598-38.733,8.659-58.69,12.024l-1.381-22.182
			c4.494-86.906,18.455-217.981,28.697-304.365c11.396-96.096,18.26-178.773,24.6-263.838L5308.013,1236.738z"/>
		<path id="_x31_80632136" fill="none" stroke="#010101" stroke-width="64" d="M5308.013,1236.738l138.526,123.103
			c-38.568,43.633-69.082,125.991-90.697,172.964l6.728,8.764c-34.26,28.905-69.177,59.74-106.611,84.88l-2.446-4.154
			c25.555-92.513,38.481-165.886,52.258-254.36C5312.508,1324.466,5311.071,1280.64,5308.013,1236.738z"/>
		<path id="_x31_80632135" fill="none" stroke="#010101" stroke-width="64" d="M5507.751,1414.211l0.225,1
			c-46.571,25.859-73.207,67.455-120.265,105.487c-8.381,6.803-16.762,13.759-25.142,20.868l-6.728-8.763
			c21.615-46.973,52.129-129.329,90.695-172.964L5507.751,1414.211z"/>
		<path id="_x31_80632015" fill="none" stroke="#010101" stroke-width="64" d="M8759.793,4504.611
			c-45.223-23.059-89.982-37.959-157.533-62.961c-0.732-0.308-1.545-0.534-2.283-0.844c-5.648-2.088-11.199-4.078-16.693-6.011
			c-34.684-12.194-66.473-21.328-97.555-29.045c-59.186-14.7-115.873-24.302-185.357-40.301c-8.035-1.821-16.293-3.806-24.77-5.862
			c-25.141-6.092-43.785-8.506-57.852-5.307c-29.229,6.704-38.582,37.697-45.027,110.206
			c-10.314,115.892-43.578,247.251-97.322,350.163c-27.787,53-67.609,95.559-98.793,145.487
			c-30.526,48.922-33.835,110.253-58.232,163.709c-1.464,3.314-3.004,6.556-4.617,9.87
			c-54.438,117.473-124.945,234.225-189.721,345.024c-5.428,9.339-10.929,18.908-16.506,28.396
			c-20.096,34.799-41.224,69.754-67.895,98.951c-34.755,37.994-94.947,65.893-126.821,106.272
			c-48.395,61.3-28.516,114.629-23.024,187.567c2.182,28.982,26.646,70.869,7.334,97.889c-0.008,0.008-0.014,0.016-0.017,0.025
			c-11.999,16.732-33.447,19.727-51.571,21.395c-11.113,1.016-56.855,0.459-68.467-1.224
			c-51.252-7.419-101.349-18.028-147.599-44.282c-21.165-12.012-41.073-26.264-62.056-38.596
			c-11.055-6.501-30.361-26.448-45.475-27.991c-16.86-9.252-33.77-23.751-49.02-36.995c-13.889-19.51-35.311-35.768-50.409-51.346
			c-32.806-33.844-71.562-60.359-110.788-85.318c-36.708-23.364-72.882-48.131-111.976-67.021
			c-18.423-8.899-37.589-14.903-56.862-21.356c-27.18-9.113-50.201-16.99-70.335,9.641c-15.739,20.84-24.923,44.887-31.554,70.318
			c-9.101,34.885-7.291,71.188-6.32,106.926c0.15,5.632,0.021,11.186-0.351,16.682c-3.729,55-32.544,103.388-62.465,148.666
			c96.356,75.842,196.034,150.623,297.581,219.668c-0.252,0.334-0.501,0.663-0.755,0.996c4.187,2.212,8.308,4.521,12.38,6.896
			c7.391,4.983,14.791,9.941,22.201,14.864c0.459,0.308,1.072,0.277,1.812-0.037c9,6.595,22.146,20.11,32.334,22.433
			c15.094,9.78,30.221,19.414,45.384,28.872c56.133,35.044,114.392,61.243,173.609,79.007c17.185,6.711,36.206,11.122,50.177,14.239
			c8.6,1.921,21.035,4.558,31.699,4.36c76.934,12.225,136.761,9.664,150.633,8.875c30.074-1.703,59.998-5.564,89.656-10.957
			c5.95-1.08,14.303-3.361,23.527-6.252c0.041,0.137,0.076,0.281,0.119,0.418c24.604-6.692,89.209-15.176,114.821-35.617
			c30.481-12.48,60.371-27.215,89.417-44.041c68.199-39.244,132.019-89.96,189.18-151.359c4.043-4.326,8.084-8.729,12.049-13.133
			c22.775-25.482,44.81-52.273,66.179-79.994c12.851-16.596,25.405-33.575,37.743-50.713c8.295-11.504,16.443-23.078,24.371-34.735
			c8.072-11.651,16-23.307,23.855-35.041c78.607-117.465,148.582-239.527,216.037-337.628
			c104.16-151.43,173.377-284.121,244.816-438.161c5.789-12.339,11.504-24.756,17.217-37.331l17.439-38.41
			c8.865-19.439,17.73-39.184,26.812-59.469c7.035-15.737,13.918-31.166,20.512-46.279c2.273-5.092,4.471-10.104,6.592-15.039
			c2.275-5.016,4.4-9.951,6.521-14.808c2.197-4.942,4.322-9.798,6.373-14.655c29.592-68.185,55.512-131.5,79.51-196.353
			c3.441-9.253,6.807-18.587,10.098-27.915c10.1-28.301,19.896-56.985,29.4-86.591c3.066-9.562,6.137-19.276,9.133-29.063
			c1.611-5.018,3.145-10.029,4.68-15.116c1.826-5.858,3.58-11.798,5.334-17.733c0.143-0.229,0.219-0.541,0.287-0.77
			c2.414-8.176,4.824-16.501,7.309-24.9c0-0.08,0.068-0.234,0.068-0.312C8770.814,4522.375,8770.559,4510.129,8759.793,4504.611z"/>
		<path id="_x31_80632083" fill="none" stroke="#010101" stroke-width="64" d="M8759.793,4504.611
			c-45.223-23.059-89.982-37.959-157.533-62.961c-0.732-0.308-1.545-0.534-2.283-0.844c-5.648-2.088-11.199-4.078-16.693-6.011
			c0.162,0.561,0.299,1.128,0.393,1.694c1.547,9.326-10.381,33.85-12.658,44.928c-5.021,24.439-6.045,49.506-11.484,73.795
			c-25.248,112.713-18.504,238.727-73.217,342.32c-49.713,94.089-151.857,134.695-213.711,219.554
			c-62.023,85.101-91.104,213.36-144.533,304.685c-79.885,136.545-154.651,273.406-226.41,414.894
			c-33.39,65.823-67.551,133.827-112.443,192.003c-27.763,35.977-53.435,86.453-92.518,110.516
			c-30.058,18.506-85.37,43.605-126.14,38.91c7.114,49.891,10.335,95.861,17.338,146.103c1.198,8.778,5.358,21.788,13.769,25.767
			c0.516,0.232,1.105,0.459,1.621,0.611c35.256-13.577,69.768-30.16,103.166-49.51c68.198-39.244,132.021-89.96,189.18-151.359
			c4.043-4.326,8.083-8.729,12.053-13.133c22.772-25.482,44.808-52.273,66.177-79.988c12.853-16.599,25.407-33.581,37.737-50.719
			c8.301-11.504,16.447-23.078,24.373-34.735c8.076-11.651,16.004-23.307,23.855-35.038
			c78.609-117.468,148.582-239.53,216.043-337.631c104.16-151.43,173.371-284.121,244.816-438.158
			c5.785-12.342,11.502-24.759,17.217-37.334l17.436-38.41c8.867-19.439,17.73-39.184,26.816-59.469
			c7.031-15.737,13.918-31.16,20.51-46.279c2.271-5.092,4.473-10.104,6.594-15.039c2.268-5.011,4.395-9.951,6.52-14.808
			c2.199-4.938,4.32-9.798,6.371-14.655c29.594-68.18,55.514-131.5,79.512-196.353c3.443-9.253,6.805-18.587,10.098-27.915
			c10.096-28.301,19.893-56.985,29.395-86.591c3.07-9.562,6.143-19.276,9.139-29.063c1.609-5.018,3.145-10.025,4.678-15.116
			c1.824-5.858,3.582-11.792,5.332-17.729c0.148-0.232,0.221-0.541,0.293-0.773c2.412-8.171,4.82-16.496,7.307-24.9
			c0-0.08,0.068-0.234,0.068-0.312C8770.814,4522.375,8770.559,4510.129,8759.793,4504.611z"/>
		<path id="_x31_80632082" fill="none" stroke="#010101" stroke-width="64" d="M7696.701,6139.184
			c39.083-24.064,64.755-74.539,92.518-110.516c44.893-58.176,79.054-126.18,112.443-192.003
			c71.759-141.487,146.525-278.349,226.41-414.894c53.43-91.324,82.51-219.584,144.533-304.685
			c61.854-84.858,163.998-125.465,213.711-219.554c54.713-103.594,47.969-229.607,73.217-342.32
			c5.439-24.289,6.463-49.355,11.484-73.795c2.277-11.078,14.205-35.602,12.658-44.928c-0.094-0.566-0.23-1.134-0.393-1.694
			c-34.684-12.194-66.473-21.328-97.555-29.045c-31.713,24.051-50.238,99.729-57.295,127.963
			c-18.518,74.063-25.695,140.896-23.041,217.849c3.869,112.213-33.172,105.511-113.848,161.82
			c-58.75,41.008-136.285,94.246-171.262,160.738c-35.014,66.568-40.002,150.734-70.703,220.768
			C8003.227,5400.635,7913,5483,7864.735,5586.324c-48.181,103.154-64.789,214.615-125.519,312.861
			c-41.11,66.51-101.888,181.241-189.601,176.906c2.245,7.02,4.259,14.123,5.95,21.325c6.703,28.647,11.354,55.173,14.995,80.677
			C7611.331,6182.783,7666.644,6157.688,7696.701,6139.184z"/>
		<path id="_x31_80632081" fill="none" stroke="#010101" stroke-width="64" d="M7739.217,5899.186
			c60.729-98.246,77.338-209.707,125.519-312.857C7913,5483,8003.227,5400.635,8049.58,5294.889
			c30.705-70.037,35.689-154.199,70.703-220.768c34.977-66.492,112.512-119.73,171.262-160.738
			c80.676-56.307,117.717-49.607,113.848-161.816c-2.654-76.957,4.523-143.789,23.041-217.853
			c7.057-28.231,25.582-103.912,57.295-127.963c-59.186-14.7-115.873-24.302-185.357-40.301c-8.035-1.821-16.293-3.806-24.77-5.862
			c-25.141-6.092-43.785-8.506-57.852-5.307c-29.229,6.704-38.582,37.697-45.027,110.206
			c-10.314,115.892-43.578,247.251-97.322,350.163c-27.787,53-67.609,95.559-98.793,145.487
			c-30.526,48.922-33.835,110.253-58.232,163.709c-1.464,3.314-3.004,6.556-4.617,9.87
			c-54.438,117.473-124.945,234.225-189.721,345.024c-5.428,9.339-10.929,18.908-16.506,28.396
			c-20.096,34.799-41.224,69.754-67.895,98.951c-34.755,37.994-94.947,65.893-126.821,106.272
			c-48.395,61.3-28.516,114.629-23.024,187.567c4.84,63.017,40.816,116.777,59.825,176.16
			C7637.329,6080.427,7698.106,5965.697,7739.217,5899.186z"/>
		<path id="_x31_80632077" fill="none" stroke="#010101" stroke-width="64" d="M6784.068,5962.823
			c-45.467-32.043-114.244-64.243-147.633-111.29l-2.11-2.859c-3.73,55.004-32.542,103.388-62.465,148.67
			c107.034,84.242,218.158,167.209,331.402,242.425c7.062,4.656,48.268-66.259,75.521-114.78l-4.61-6.693
			C6906.521,6033.464,6823.793,5990.819,6784.068,5962.823z"/>
		<path id="_x31_80632076" fill="none" stroke="#010101" stroke-width="64" d="M7085.363,5896.412
			c-7.37-32.119-41.465-55.541-62.851-77.606c-32.806-33.847-71.562-60.357-110.788-85.321
			c-36.708-23.359-72.882-48.131-111.976-67.017c-18.423-8.903-37.589-14.907-56.862-21.36c-27.184-9.105-50.205-16.99-70.335,9.646
			c-15.739,20.834-24.923,44.881-31.554,70.312c-9.101,34.885-7.291,71.188-6.32,106.926c0.15,5.632,0.021,11.186-0.351,16.682
			l2.11,2.857c33.387,47.049,102.167,79.249,147.635,111.292c39.721,27.993,122.453,70.641,190.104,155.472l4.61,6.693
			c12.206-21.725,21.618-38.961,23.915-42.908c25.135-43.186,54.053-88.561,75.061-133.438
			C7086.362,5930.271,7090.127,5917.168,7085.363,5896.412z"/>
		<path id="_x31_80632079" fill="none" stroke="#010101" stroke-width="64" d="M6996.312,6131.713l-3.787-1.248
			c-21.93,37.148-43.585,73.475-72.479,120.391c20.849,13.68,41.769,27.083,62.748,40.18
			c61.663,38.493,125.888,66.318,191.132,84.015c16.449-45.908,32.559-97.509,46.425-144.776c2.149-7.327,4.415-14.65,6.751-21.975
			l-11.417-2.081C7132.508,6182.404,7074.189,6157.436,6996.312,6131.713z"/>
		<path id="_x31_80632078" fill="none" stroke="#010101" stroke-width="64" d="M7274.988,6003.928
			c-9.01-18.021-29.754-21.233-45.511-30.188c-21.169-12.017-41.079-26.269-62.062-38.604
			c-16.221-9.533-50.168-47.996-62.631-14.903c-17.409,46.242-50.602,105.607-78.918,153.64
			c-11.773,19.959-22.59,38.373-33.345,56.594l3.79,1.242c77.877,25.727,136.195,50.697,219.372,74.504l11.417,2.084
			c10.013-31.398,21.271-62.709,29.771-93.348c5.911-21.292,12.161-42.794,17.46-64.072
			C7278.076,6035.801,7282.27,6018.503,7274.988,6003.928z"/>
		<path id="_x31_80632080" fill="none" stroke="#010101" stroke-width="64" d="M7568.324,6297.682
			c-2.291-28.207-4.967-56.438-8.568-84.525c-58.006,30.365-87.873,35.404-158.307,31.113
			c-59.158-3.607-101.757-11.518-154.425-26.587l-3.821-2.433c-14.613,57.568-30.229,118.903-45.5,165.787
			c95.844,20.758,174.984,17.403,191.211,16.479c30.072-1.699,59.999-5.562,89.658-10.955c23.961-4.355,87.014-28.234,88.411-32.729
			C7571.803,6338.328,7569.451,6311.592,7568.324,6297.682z"/>
		<path id="_x31_80632099" fill="none" stroke="#010101" stroke-width="64" d="M7533.2,6074.58
			c-38.505,9.545-79.505,42.641-105.274,61.043c-52.572,37.541-114.918,53.193-178.293,54.322
			c-2.119,8.313-4.266,16.764-6.43,25.305l3.821,2.433c52.666,15.073,95.267,22.979,154.425,26.587
			c70.434,4.291,100.305-0.752,158.307-31.113c-2.883-22.461-6.35-44.834-10.693-67.032
			C7544.924,6124.967,7540.974,6098.521,7533.2,6074.58z"/>
		<path id="_x31_80632100" fill="none" stroke="#010101" stroke-width="64" d="M7533.2,6074.58
			c-6.042-18.609-14.401-35.711-26.958-47.633c-17.385-16.518-39.157-9.692-60.705-7.709c-11.113,1.018-56.855,0.459-68.467-1.226
			c-20.702-2.994-41.811-11.099-62.884-7.563c-14.675,2.468-22.485,28.678-26.6,41.615c-8.169,25.682-15.194,51.738-22.265,77.766
			c-5.005,18.437-10.263,38.809-15.689,60.115c63.375-1.129,125.721-16.781,178.289-54.322
			C7453.695,6117.221,7494.695,6084.125,7533.2,6074.58z"/>
		<path id="_x31_80632070" fill="none" stroke="#010101" stroke-width="64" d="M5883.462,1876.693
			c-44.909-26.643-108.941-25.873-158.457-21.385c-153.879,13.929-308.185,44.878-454.767,97.848
			c-38.248,13.82-78.922,25.142-111.766,51.105c-95.189,75.23,158.918,175.007,203.339,184.162
			c67.743,13.968,130.647,4.415,194.882-19.505c42.795-15.946,93.785-24.468,140.537-29.218
			c38.787-3.946,74.099-9.535,113.947-7.516c53.846,2.729,95.545-37.405,114.471-84.847
			C5948.729,1989.483,5937.623,1908.815,5883.462,1876.693z M5760.003,2095.307c-147.305,18.38-288.887,85.719-432.095,52.55
			c-44.332-10.275-150.014-39.034-131.643-101.06c17.226-58.157,88.498-62.913,132.215-78.968
			c76.778-28.19,155.466-46.841,235.803-62.002c91.957-17.354,221.287-44.422,299.666,20.992
			C5955.516,2003.245,5830.357,2086.52,5760.003,2095.307z"/>
		<path id="_x31_80632073" fill="none" stroke="#010101" stroke-width="64" d="M6232.663,1829.834
			c-38.135-65.17-105.442-106.656-170.534-135.828c-64.646-28.971-120.449-37.385-189.311-48.749
			c-88.322-14.577-176.721-0.999-261.828,25.153c-75.199,23.106-144.355,64.18-219.461,85.865
			c-27.58,7.961-54.458,16.919-81.686,26.714c-130.396,46.906-266.725,123.191-407.41,123.386l1.309,119.026
			c61.51-40.886,143.57,46.753,177.342,81.32c40.289,41.233,78.855,84.271,119.233,125.415
			c41.781,42.567,90.91,78.121,145.024,101.253c44.779,19.144,83.844,34.758,133.133,35.462c45.66,0.656,94.122-5.287,137.74,2.633
			c35.069,6.368,66.101,27.103,102.338,31.441c35.425,4.25,67.622,6.359,103.212,4.453c36.852-40.245,58.586-55.516,101.605-69.53
			c56.13-18.293,114.187-68.09,161.797-103.534c58.578-43.602,115.644-93.337,152.919-158.694
			C6279.055,2003.807,6273.421,1899.472,6232.663,1829.834z M5961.861,2176.024c-76.988,51.415-160.607,83.152-244.937,118.323
			c-74.077,30.889-160.946,50.383-240.632,40.854c-54.017-6.456-102.757-25.392-148.405-51.105
			c-68.196-38.411-129.497-91.955-191.21-141.639c-30.881-24.858-62.443-50.831-88.058-81.784
			c-21.449-25.918-15.774-55.491,6.632-79.914c44.636-48.646,118.453-63.89,177.891-82.89
			c85.952-27.479,172.941-50.936,260.674-71.289c80.642-18.707,159.914-45.521,241.055-59.498
			c56.103-9.666,115.719-9.16,170.996,5.271c60.629,15.834,116.556,50.69,147.184,108.938
			C6114.148,1997.532,6062.182,2109.023,5961.861,2176.024z"/>
		<path id="_x31_80632072" fill="none" stroke="#010101" stroke-width="64" d="M5905.867,1772.354
			c-55.277-14.432-114.894-14.938-170.996-5.271c-81.141,13.977-160.413,40.791-241.055,59.498
			c-87.729,20.353-174.718,43.81-260.674,71.289c-59.438,19.001-133.255,34.245-177.888,82.89
			c-22.409,24.425-28.081,53.996-6.635,79.914c25.614,30.953,57.18,56.926,88.058,81.784
			c61.713,49.686,123.014,103.229,191.21,141.639c45.648,25.713,94.392,44.65,148.407,51.105
			c79.684,9.529,166.553-9.965,240.633-40.854c84.328-35.171,167.945-66.909,244.938-118.323
			c100.316-67,152.283-178.492,91.186-294.732C6022.426,1823.044,5966.496,1788.188,5905.867,1772.354z M5925.646,2047.338
			c-18.924,47.441-60.623,87.576-114.469,84.847c-39.849-2.019-75.162,3.57-113.947,7.516
			c-46.752,4.75-97.742,13.272-140.541,29.218c-64.23,23.92-127.135,33.475-194.878,19.505
			c-44.421-9.155-298.528-108.93-203.339-184.162c32.84-25.964,73.518-37.286,111.764-51.105
			c146.581-52.97,300.89-83.919,454.769-97.848c49.516-4.488,113.546-5.258,158.457,21.385
			C5937.623,1908.815,5948.729,1989.483,5925.646,2047.338z"/>
		<path id="_x31_80632071" fill="none" stroke="#010101" stroke-width="64" d="M5863.949,1926.819
			c-78.379-65.412-207.709-38.347-299.666-20.992c-80.337,15.163-159.02,33.812-235.803,62.005
			c-43.717,16.052-114.989,20.81-132.215,78.965c-18.367,62.025,87.311,90.786,131.643,101.06
			c143.208,33.171,284.79-34.17,432.095-52.55C5830.357,2086.52,5955.516,2003.245,5863.949,1926.819z"/>
		<path id="_x31_80632075" fill="none" stroke="#010101" stroke-width="64" d="M5718.556,2402.929
			c-32.617-3.905-61.017-21.088-91.938-29.127c20.498,5.394,36.832,15.161,53.17,30.582c3.678,3.472,6.898,5.291,7.982,10.187
			c-12.63,4.232-27.988,2.122-41.414,2.191c-80.285,0.471-159.945,25.555-240.342,18.149
			c-78.252-7.209-133.497-48.59-187.414-105.456c-61.83-65.204-115.148-141.667-177.129-205.381
			c-24.748-25.443-50.436-48.842-76.92-72.292c-15.377-13.614-42.288-44.347-0.039-31.425c16.789,5.131,32.051,13.121,46.293,22.852
			c-34.424-24.398-73.753-39.945-107.062-17.809c21.023,31.418,15.855,55.326,14.849,84.096c-1.102,31.36-0.535,55.626,16.409,80.9
			c36.955,55.16,93.749,89.083,122.3,143.552c10.753,20.485,14.624,44.383,28.817,63.301
			c81.666,108.827,239.226,253.267,385.708,212.822c22.294-6.154,37.86-19.581,60.822-23.918
			c17.447-3.297,137.381-108.305,161.251-127.894c36.02-29.545,72.752-47.809,127.871-50.877
			C5786.175,2409.286,5753.978,2407.179,5718.556,2402.929z"/>
		<path id="_x31_80632074" fill="none" stroke="#010101" stroke-width="64" d="M4964.551,2051.78
			c26.484,23.45,52.172,46.851,76.92,72.294c61.98,63.712,115.299,140.177,177.129,205.381
			c53.917,56.866,109.162,98.247,187.414,105.456c80.396,7.405,160.057-17.68,240.342-18.149
			c13.426-0.069,28.786,2.039,41.414-2.193c-1.084-4.895-4.305-6.713-7.982-10.186c-16.338-15.42-32.672-25.189-53.17-30.581
			c-0.992-0.26-1.984-0.504-2.979-0.742c-0.489-0.117-0.976-0.233-1.473-0.346c-0.685-0.158-1.373-0.309-2.06-0.454
			c-1.283-0.269-2.571-0.534-3.889-0.772c-43.615-7.921-92.075-1.979-137.736-2.633c-49.293-0.708-88.357-16.321-133.135-35.463
			c-54.113-23.134-103.244-58.686-145.024-101.255c-40.38-41.144-78.946-84.182-119.235-125.415
			c-5.197-5.32-10.422-10.685-15.708-16.012c-14.805-14.836-33.79-32.776-54.573-47.5c-14.242-9.731-29.504-17.722-46.293-22.852
			C4922.263,2007.436,4949.174,2038.169,4964.551,2051.78z"/>
		<path id="_x31_80632069" fill="none" stroke="#010101" stroke-width="64" d="M8075.637,3456.256
			c183.711,119.041,155.811,327.203,136.381,526.658c-11.646,119.586-38.084,261.927-164.924,297.797
			c-31.811,8.995-69.221,11.839-100.782-4.268l3.601-11.174c43.967-134.472,106.389-264.307,140.551-400.964
			C8123.973,3730.27,8108.076,3589.582,8075.637,3456.256z"/>
		<path id="_x31_80632068" fill="none" stroke="#010101" stroke-width="64" d="M7918.041,4992.889
			c-27.308,31.973-52.991,94.23-96.996,90.492c6.552-19.299,11.391-37.805,16.451-57.814
			c23.631-93.282,6.408-203.609,19.579-300.114c13.032-95.621,29.373-205.276,45.979-282.536
			c13.036-60.635,30.637-109.371,90.977-130.245c53.381-18.472,113.508-12.862,148.947,42.129
			c34.756,53.94,16.416,94.759,7.758,156.612C8125.238,4693.625,8032.4,4859.008,7918.041,4992.889z"/>
		<path id="_x31_80632067" fill="none" stroke="#010101" stroke-width="64" d="M7789.014,5160.254
			c10.293-18.93,21.789-36.566,37.814-46.055c10.506-6.205,22.436-8.553,33.152-13.625c92.312-43.668,40.003,34.877-2.191,100.478
			c-36.73,57.098-74.301,122.507-108.213,181.33c-49.046,85.077-82.446,171.634-170.669,245.059
			c-97.897,81.478-4.776-206.324,4.834-243.034c15.419-58.879,51.437-78.965,100.208-107.756
			c27.646-16.322,54.674-36.623,74.562-62.699C7769.681,5199.3,7778.748,5179.137,7789.014,5160.254z"/>
		<path id="_x31_80632066" fill="none" stroke="#010101" stroke-width="64" d="M7813.777,4789.676
			c9.44-26.711,8.387-65.504,10.295-94.033c3.609-54.057,3.795-99.725,23.99-150.516c7.711-19.354,57.473-240.803,47.121-243.463
			c-46.297-11.852-70.658,57.443-92.066,87.293c-37.188,51.886-81.699,100.029-121.736,149.83
			c-16.609,20.662-21.881,27.956-8.42,52.859c9.339,17.271,22.982,31.63,34.369,47.353c19.244,26.591,37.979,53.593,56.889,80.444
			c9.25,13.133,18.264,26.551,27.988,39.295c7.317,9.596,11.382,22.287,21.649,29.149c6.593-14.241,3.97-35.064,5.907-50.706"/>
		<path id="_x31_80632065" fill="none" stroke="#010101" stroke-width="64" d="M7647.649,4592.637
			c-7.97-0.574-15.364,6.244-23.156,17.414c-16.515,23.658-34.115,47.009-49.47,71.504c-30.416,48.518-58.973,97.623-80.254,151.383
			c-24.736,62.473-53.902,122.998-78.371,185.2c-28.104,71.433-36.292,125.032-2.744,195.582
			c21.59,45.392,95.721,79.441,140.519,89.793c59.772,13.815,109.323-41.439,142.943-86.323
			c56.993-75.995,82.866-121.518,94.796-213.996c5.405-41.83,10.625-83.691,15.576-125.578c4.31-36.479,10.842-61.582-13.605-89.901
			c-13.031-15.093-23.705-33.493-35.279-49.88c-25.41-36.004-50.783-72.035-76.145-108.078
			c-5.897-8.371-11.611-17.055-17.803-25.193C7658.539,4596.696,7652.967,4593.019,7647.649,4592.637z"/>
		<path id="_x31_80632064" fill="none" stroke="#010101" stroke-width="64" d="M7183.893,5773.619
			c-9.62,34.232-57.375,131.117-95.126,90.619c-29.155-31.29-58.437-56.557-89.967-84.554
			c-25.634-22.761-54.147-41.692-82.822-59.94c-52.937-33.691-106.763-71.352-166.903-88.3c-11.693-3.29-27.582-4.007-36.508-13.597
			c-15.156-16.291,6.481-32.193,15.941-43.822c29.895-36.756,63.17-70.758,96.533-102.64c18.449-17.635,37.518-45.675,60.094-57.46
			c63.818-33.279,120.826,30.562,168.892,62.174c47.024,30.927,97.151,71.634,124.507,122.924
			C7207.25,5652.863,7199.857,5716.793,7183.893,5773.619z"/>
		<path id="_x31_80632063" fill="none" stroke="#010101" stroke-width="64" d="M7194.246,5792.811
			c-0.566,1.525-1.152,3.039-1.746,4.543c-8.529,21.517-17.246,42.011-30.942,60.21c-12.504,16.623-46.837,29.718-3.481,57.628
			c47.628,30.658,100.592,62.222,154.91,77.574c36.805,10.406,75.988,13.346,113.93,15.354c26.685,1.416,74.282-6.914,58.527-45.676
			c-17.477-42.998-18.49-102.298-17.368-148.475c2.669-110.047,39.786-213.666,52.862-322.148c3.91-32.48-21.5-21.084-44.422-17.047
			c-27.902,4.914-55.312,8.923-82.844,14.807c-28.875,6.174-57.707,12.589-86.774,17.72c-29.435,5.194-59.161,9.286-89.039,10.165
			c-21.333,0.63-45.093,0.179-66.038-4.207c-6.739-1.416-32.225-10.668-21.031,6.224c9.962,15.032,23.377,25.055,34.873,37.993
			C7220.246,5618.953,7222.43,5717.68,7194.246,5792.811z"/>
		<path id="_x31_80632052" fill="none" stroke="#010101" stroke-width="64" d="M7698.914,4447.203
			c11.574-14.288,23.925-27.744,35.672-42.229c28.109-34.631,58.508-67.086,86.484-101.754
			c20.002-24.795,36.865-52.071,56.634-77.077c25.243-31.968,47.176-62.943,69.442-97.114
			c21.52-33.029,41.801-68.094,54.732-105.771c6.205-18.065,10.254-37.187,16.605-55.151
			c35.738-101.127,46.617-229.136,42.18-336.138c-4.186-100.962-20.15-174.408-30.754-223.783
			c-13.453-62.628-37.998-137.564-68.562-194.029c-56.544-104.479-119.538-209.386-180.588-311.211
			c-35.581-59.341-69.251-110.772-111.13-163.557c-49.758-62.718-93.623-127.179-139.288-192.683
			c-45.3-64.97-97.702-124.076-155.742-176.854c-18.95-17.234-40.155-34.508-59.097-51.654
			c-21.695-19.627-43.738-38.832-66.182-57.501c-40.343-33.576-81.967-65.479-125.014-95.173
			c-17.436-12.025-36.822-21.534-53.468-34.744c-13.515-10.72-27.015-22.215-41.629-31.383
			c-48.015-30.11-97.232-59.536-147.49-85.518c-28.243-14.607-74.744-40.762-106.757-54.936
			c20.26,14.387,31.574,29.49,44.328,43.267c13.526,14.604,21.408,34.532,26.916,53.114c8.387,28.292,8.217,77.494,4.393,106.347
			c-3.087,23.392-9.902,52.893-18.265,74.979c-9.206,24.289-20.401,47.67-30.989,71.3c-11.77,26.274-19.676,54.038-25.33,82.46
			c-6.076,30.508-11.208,66.867-3.978,97.354c6.095,25.694,11.048,52.25,18.169,77.676c6.965,24.844,11.979,49.956,20.572,74.299
			c8.346,23.667,24.233,42.858,34.866,65.57c7.085,15.104,1.624,29.277,0.056,44.551c-2.119,20.611,0.549,40.682,1.17,61.354
			c11.09,11.532,23.885,31.656,30.334,44.408c1.951,3.852,11.416,47.708,10.35,47.606c9.859,0.913,19.168,2.819,28.708,5.306
			c23.059,6.031,54.831,19.987,75.024,33.051c36.855,23.851,86.289,46.402,109.238,87.108c15.43,27.37,21.494,58.239,24.012,89.529
			c2.316,28.831-6.113,60.629-0.891,88.63c7.937,42.493,4.674,80.444,36.035,106.854c38.763,32.631,86.314,98.771,121.95,151.804
			c46.718,69.528,73.83,155.141,94.538,238.55c21.641,87.189,29.811,134.085,30.053,229.094c0.2,78.42-9.371,177.204-36.157,264.59
			c-18.23,59.492-29.309,66.842-65.3,120.023c-34.119,50.424-82.327,74.021-88.882,93.531
			c-12.836,38.209,49.751,56.061,55.399,57.623c54.462,15.111,136.965,40.349,193.518,47.608
			c59.484,7.657,110.566,20.877,171.328,13.002c10.479-1.356,43-55.499,48.053-62.802
			C7688.862,4459.952,7693.818,4453.498,7698.914,4447.203z"/>
		<path id="_x31_80632056" fill="none" stroke="#010101" stroke-width="64" d="M6555.723,5984.599
			c-15.844-12.535-31.597-25.09-47.25-37.651c-103.149-82.766-107.549-169.328-151.107-288.281l-3.361-0.116
			c6.68-12.122,7.022-30.735,10.908-43.95c5.623-19.08,12.525-37.178,16.559-56.889c15.213-74.499,12.922-155.168,30.725-228.032
			c7.385-30.206,25.205-61.462,38.802-89.259c22.792-46.595,52.852-81.555,88.968-116.684
			c58.104-56.516,124.811-103.738,181.242-161.544c41.231-42.234,61.434-91.577,91.734-141.483
			c35.094-57.781,68.785-100.492,123.663-139.005c32.692-22.931,66.329-51.952,86.958-87.548
			c17.172-29.627,39.805-64.879,63.625-90.057c53.91-56.979,67.516-74.57,121.447-46.561c29.506,15.324,57.316,30.722,86.054,38.289
			c65.118,17.143,101.979,26.668,168.321,39.965c42.299,8.479,152.105,21.918,132.744,47.787
			c-35.115,46.911-53.343,71.043-82.4,123.303c-46.688,83.977-87.039,168.492-119.016,259.713
			c-27.611,78.73-28.223,179.854,6.727,258.832c31.492,71.176,159.772,61.297,164.276,138.209
			c3.159,54.094-19.476,78.902-110.274,92.748c-137.645,20.975-268.912,82.764-396.005-0.83
			c-48.065-31.613-116.839-94.404-180.658-61.123c-22.576,11.78-49.098,44.562-67.551,62.199
			c-64.454,61.593-128.586,131.104-168.64,213.104c-25.664,52.542-29.474,95.267-27.959,151.046
			C6615.93,5882.773,6588.637,5934.796,6555.723,5984.599z"/>
		<path id="_x31_80632060" fill="none" stroke="#010101" stroke-width="64" d="M6810.576,4839.188
			c0.838-0.037,1.691-0.008,2.555,0.099c13.533,1.674,29.972,30.273,39.273,39.96c21.664,22.517,44.064,44.233,65.527,66.964
			c32.18,34.094,60.029,76.143,100.404,100.428c55.876,33.608,81.763-20.206,111.104-62.184
			c48.806-69.799,101.565-134.604,143.948-208.237c29.648-51.503,61.857-101.294,93.742-151.301
			c33.684-52.836,45.943-101.204,115.736-86.193c10.475,2.251,130.738,20.986,112.887,44.856
			c-35.115,46.911-53.343,71.043-82.4,123.303c-46.69,83.971-87.039,168.492-119.016,259.713
			c-13.596,38.764-20.09,80.357-20.119,121.598c-0.018,21.901,2.121,43.338,5.285,64.959c2.278,15.537,10.663,36.137,5.477,51.722
			c-10.631,31.943-74.617,4.731-96.317,1.606c-44.214-6.354-108.253-8.124-147.923,16.455
			c-35.635,22.106-65.051,52.382-93.109,84.361c-17.271,19.682-52.26,101.527-88.559,73.921
			c-21.148-16.092-12.523-55.726-8.896-78.048c6.12-37.607-10.382-64.698-25.804-97.832c-8.562-18.364-18.63-36.879-29.91-53.572
			c-34.867-51.576-74.662-99.167-113.391-147.547c-14.898-18.609-24.436-34.861-26.865-51.869
			c-2.434-17.012,2.225-34.773,15.725-56.391C6780.598,4878.883,6791.4,4840.144,6810.576,4839.188z"/>
		<path id="_x31_80632061" fill="none" stroke="#010101" stroke-width="64" d="M7331.891,4679.725
			c12.727-20.662,39.598-60.91,39.79-62.119c5.41-33.793-38.641-46.721-62.214-59.383c-66.479-35.731-159.52-36.205-199.05,39.315
			c-31.708,60.575-8.011,149.579,55.119,179.657c11.287,5.377,85.272,35.166,92.134,23.982
			C7276.507,4770.461,7317.95,4702.371,7331.891,4679.725z"/>
		<path id="_x31_80632062" fill="none" stroke="#010101" stroke-width="64" d="M7463.01,4535.793
			c-66.342-13.297-103.203-22.822-168.321-39.969c-28.737-7.563-56.548-22.961-86.054-38.285
			c-53.932-28.01-67.537-10.418-121.447,46.557c-23.82,25.176-46.45,60.434-63.625,90.061
			c-20.629,35.596-54.266,64.615-86.958,87.545c-54.878,38.516-88.569,81.223-123.663,139.008
			c-11.266,18.576,4.885,17.801,16.219,29.533c8.594,8.89,14.695,20.098,23.244,29.005c21.662,22.517,44.062,44.233,65.527,66.964
			c32.18,34.094,60.029,76.143,100.404,100.428c55.874,33.608,81.758-20.206,111.102-62.184
			c42.418-60.662,87.824-117.561,126.813-179.743l1.412-3.538c-6.858,11.182-80.842-18.602-92.127-23.979
			c-63.136-30.078-86.83-119.082-55.126-179.657c39.53-75.524,132.575-75.047,199.057-39.315
			c23.568,12.662,67.62,25.584,62.209,59.377l2.134-3.512c24.806-41.41,39.442-77.412,83.945-78.123L7463.01,4535.793z"/>
		<path id="_x31_80632059" fill="none" stroke="#010101" stroke-width="64" d="M7565.341,5363.637
			c-3.256-55.79-101.501-87.465-159.288-106.8c-57.399-19.2-106.7-34.473-167.076-32.884c-80.016,2.119-110.58,27.47-148.156,66.256
			c-31.721,32.748-96.059,95.053-53.568,145.074c38.45,45.263,135.707,64.461,193.877,61.616
			c75.737-3.7,149.153-29.11,223.934-40.515C7545.865,5442.533,7568.5,5417.73,7565.341,5363.637z"/>
		<path id="_x31_80632058" fill="none" stroke="#010101" stroke-width="64" d="M6881.766,5165.114
			c11.279,16.69,21.35,35.208,29.909,53.567c14.343,30.812,23.353,65.861,14.294,99.784c-9.421,35.313-35.842,60.397-60.855,84.255
			c-18.452,17.596-41.838,41.938-62.971,61.25c-2.498,2.292-44.544-31.116-100.527-57.497
			c-86.535-40.778-194.525-81.308-282.053-96.471c1.522-3.015,30-66.642,31.438-69.583c22.793-46.595,52.851-81.555,88.965-116.684
			c44.469-43.252,93.982-81.061,140.067-122.348c14.009-12.561,26.87-25.746,46.8-23.337c21.273,2.571,28.896,23.716,41.536,39.505
			C6807.104,5065.941,6846.896,5113.537,6881.766,5165.114z"/>
		<path id="_x31_80632057" fill="none" stroke="#010101" stroke-width="64" d="M6702.031,5570.174
			c35.344-44.082,90.578-93.998,97.354-104.266c-101.508-80.611-379.34-172.814-384.416-152.041
			c-17.805,72.861-18.285,169.345-33.498,243.844c-4.033,19.711-10.936,37.807-16.555,56.889
			c-3.89,13.215-4.232,31.824-10.912,43.947l3.361,0.119c43.559,118.953,47.958,205.516,151.111,288.281
			c15.652,12.562,31.402,25.116,47.249,37.651c32.911-49.803,60.206-101.828,58.528-163.817
			c-1.515-55.782,3.93-97.67,27.959-151.054C6652.434,5647.039,6674.004,5605.138,6702.031,5570.174z"/>
		<path id="_x31_80632053" fill="none" stroke="#010101" stroke-width="64" d="M7352.942,3693.184
			c-24.495-101.04-111.837-292.701-200.526-354.625c-23.383-16.327-46.855-23.633-69.297-17.886l1.837-2.391
			c-20.997,13.441-40.806,27.486-57.183,49.489c-65.046,87.371-49.474,211.088-72.07,311.896
			c-1.367,6.111-2.872,12.069-4.469,17.925l3.926,9.556c78.548,218.349,118.989,436.213-27.77,669.004l-2.376,3.627
			c34.865-6.979,70.699-10.363,109.999-10.635c31.259-0.221,59.355-2.09,88.691,9.668c53.605,21.496,70.047,18.814,125.166-33.084
			c33.877-31.91,59.26-68.87,80.547-111.054C7410.978,4073.131,7394.393,3864.177,7352.942,3693.184z"/>
		<path id="_x31_80632054" fill="none" stroke="#010101" stroke-width="64" d="M6955.164,3707.151l-3.93-9.561
			c-20.486,75.079-58.754,130.305-93,199.127c-51.547,103.654-125.738,202.989-191.373,298.604
			c-34.922,50.887-96.426,86.409-143.766,125.351c-61.84,50.863-130.904,103.129-191.157,156.053
			c-18.837,16.553-112.777,77.468-119.329,168.948c-9.496,132.688,116.58,73.964,179.545,35.876
			c105.769-63.965,199.396-161.303,312.604-210.431l-22.445,11.963c41.752-20.804,77.816-44.263,120.633-63.366
			c42.008-18.749,81.381-31.792,122.072-39.938l2.373-3.625C7074.149,4143.359,7033.708,3925.498,6955.164,3707.151z"/>
		<path id="_x31_80632055" fill="none" stroke="#010101" stroke-width="64" d="M6420.961,5154.244
			c47.163-1.336,28.469,34.754,47.205,14.071c36.732-40.55,85.946-84.964,94.739-93.722
			c33.866-33.744,102.314-80.483,147.815-130.354c46.586-51.06,75.487-113.51,78.898-119.626
			c17.768-31.824,34.405-50.688,56.898-79.117c21.873-27.635,44.36-48.003,71.654-69.525c14.368-11.334,42.305-34.494,67.983-65.674
			c39.8-48.32,78.55-108.598,86.653-117.355c20.043-21.66,61.276-53.957,84.162-71.854c32.834-25.648-29.274-21.544-56.557-30.016
			c-13.266-4.125-24.173-2.467-39.299-2.457c-34.701,0.035-92.086,6.03-125.223,11.902c-51.818,9.181-110.65,30.672-130.676,38.881
			c-33.116,13.572-58.731,27.035-49.658,27.1c9.281,0.049,22.982,6.308,34.885,16.281c46.404,38.9,22.572,82.525-8.529,124.172
			c-11.471,15.35-25.866,30.303-39.445,43.632c-25.844,25.373-57.521,45.64-85.888,68.203
			c-67.899,53.97-124.293,98.268-175.948,134.427c-17.006,11.908-37.294,21.432-54.842,33.17
			c-17.365,11.625-33.156,21.229-56.451,27.265c-12.223,37.579-49.163,76.807-75.461,104.442
			c-19.926,20.947-38.433,48.998-37.073,74.197C6259.5,5141.873,6350.184,5156.244,6420.961,5154.244z"/>
		<path id="_x31_80632029" fill="none" stroke="#010101" stroke-width="64" d="M4908.98,4908.504
			c19.232-17.191,113.109-125.199,195.895-163.949c84.827-39.701,181.376-78.828,269.74-97.043
			c53.184-10.967,141.025-30.678,193.891-49.326c74.384-26.236,146.785-57.701,218.547-90.875
			c37.068-17.132,75.879-32.415,111.87-51.842c37.169-20.059,95.021-54.492,138.915-51.029c39.17,3.098,50.243,42.985,82.27,61.72
			c55.117,32.224,87.122-23.589,121.732-62.642c25.459-28.721,52.041-56.291,78.02-84.497
			c13.477-14.644,28.941-27.052,42.846-41.212c45.004-45.836,87.795-91.021,137.066-132.334
			c16.275-13.645,29.705-30.078,44.854-44.921c47.082-46.142,78.266-96.79,110.979-154.464
			c30.116-53.134,51.125-115.932,72.699-173.305c8.256-21.951,13.333-37.99,21.656-59.927c5.239-13.792,9.488-32.284,14.616-46.264
			c34.045-92.608,64.929-192.825,83.245-290.328c5.018-26.714,13.525-55.549,14.293-82.793c0.586-20.853,4.125-46.24,2.24-67.298
			c-1.127-12.56-1.439-25.294-2.74-37.998c-1.357-13.416-5.699-23.99-12.009-35.226c-17.971-32.06-43.179-52.52-73.409-70.476
			c-72.952-43.341-146.591-74.544-206.431-138.512c-21.495-22.975-38.339-46.1-52.979-74.735
			c-7.333-14.351-13.322-29.273-21.283-43.064c-6.107-10.589-9.844-26.153-18.254-34.938c-7.404-7.752-18.535-11.716-27.84-16.722
			c-15.294-8.232-29.406-18.199-41.426-31.344c-31.998-35.028-48.514-79.309-71.146-120.667
			c-6.91-12.617-8.762-19.724-17.645-29.937c-9.043-10.403-20.486-23.911-30.514-33.543c-7.925-7.606-16.631-15.819-25.431-22.295
			c-49.157-36.192-103.446-59.272-160.662-76.896c-28.7-8.853-56.151-18.45-85.3-25.636c-28.778-7.091-57.845-13.434-87.064-18.167
			c-33.633-5.451-68.254-10.079-102.357-7.915c-28.824,1.839-53.622,2.766-80.719,14.65c-15.934,6.983-30.057,17.795-43.576,28.876
			c-39.666,32.503-77.18,68.116-118.781,98.022c-38.918,27.973-75.005,43.224-84.584,47.577
			c-42.914,19.505-108.636,24.788-154.01,10.13c-37.321-12.061-57.803-24.883-90.623-46.969
			c-21.262-14.309-42.85-29.184-62.414-46.033c-28.814-24.799-46.746-39.027-68.598-70.584
			c-10.65-15.393-34.389-39.688-44.079-56.113c7.23,21.157-2.026,46.527-15.431,62.996c-14.232,17.469-31.886,30.058-44.406,49.555
			c-13.242,20.641-23.572,43.834-32.603,66.774c-18.28,46.467-28.947,100.534-6.315,147.843
			c7.465,15.582,32.835,58.663,28.387,74.594c-0.719,2.59-2.589,4.241-5.098,4.482c-9.819,0.915-17.404-7.94-22.795-15.501
			c-1.235-1.734-2.117-2.523-3.344-4.256c-1.133-1.6-2.516-2.401-4.173-3.443c-2.519-1.573-6.972-2.53-9.893-2.522
			c-2.454,0.007-4.397-0.092-6.433,0.892c-7.026,3.391-11.397,10.811-15.77,17.075c-2.258,3.226-4.701,6.468-7.508,9.207
			c-1.176,1.147-2.454,2.196-3.943,2.863c-0.787,0.355-3.429,1.5-4.244,1.063c-5.252-2.738-19.814-19.415-22.286-28.089
			L4908.98,4908.504z"/>
		<path id="_x31_80632047" fill="none" stroke="#010101" stroke-width="64" d="M5575.406,3848.342
			c-6.976,16.328,6.021,30.888,18.099,45.778c17.752,21.886,37.146,43.163,56.694,63.315
			c39.518,40.746,81.553,79.072,129.53,108.621c32.674,20.124,75.214,37.979,111.638,20.764
			c52.244-24.683,97.256-61.551,143.582-95.939c31.251-23.196,49.643-34.802,75.374-56.061c36.794-30.394-47.95-22.975-82.54-55.695
			c-26.171-24.762-40.029-58.866-44.657-93.83c-2.8-21.185-4.151-43.366-3.675-64.759c1.576-70.339,9.244-140.348,19.195-209.879
			c4.983-34.838,10.674-69.556,16.447-104.262c1.895-11.366,5.634-22.437,7.252-33.836c0.896-6.298,5.93-21.179,1.635-26.238
			c-7.822-9.191-18.152,20.274-20.793,25.435c-13.316,26.296-31.668,52.896-54.824,70.56c-16.549,12.618-36.721,24.452-57.548,19.02
			c-15.085-3.938-23.677-8.264-27.771,11.888c-8.535,41.987-8.553,83.414-34.3,119.438c-25.074,35.088-55.341,64.916-86.297,94.216
			c-39.383,37.264-75.823,77.339-118.114,111.278c-15.058,12.073-29.925,26.172-42.994,41.07
			C5578.615,3842.33,5576.68,3845.365,5575.406,3848.342z"/>
		<path id="_x31_80632046" fill="none" stroke="#010101" stroke-width="64" d="M5374.594,4647.512
			c-43.486,8.924-45.445-46.224-51.973-75.33c-4.178-18.618-14.828-51.684-7.467-70.873c6.357-16.582,44.908-5.636,69.405-8.162
			c39.591-4.102,80.579-17.939,113.746-41.138c54.411-38.069,53.99-128.645,22.681-178.925
			c-8.953-14.385-53.578-54.412-79.707-62.895c-28.816-9.364-43.299-13.887-81.549,4.934c8.412-44.354,36.629-87.938,62.562-123.715
			c37.389-51.58,54.334-85.102,85.733-158.121c29.298-68.128,52.946-48.473,92.083-7.957
			c56.17,58.159,98.309,114.005,167.596,156.688c38.481,23.701,87.29,23.013,95.885,76.266
			c7.668,47.539,21.895,141.086,76.387,156.408c17.143,4.812,35.235-8.404,51.069-0.729c14.228,6.899,16.478,26.121,21.111,40.187
			c10.897,33.105,11.899,43.744-19.829,57.066c-31.592,13.267-63.143,27.922-93.405,44.254
			c-35.991,19.427-74.802,34.707-111.87,51.84c-71.762,33.176-144.163,64.641-218.547,90.877
			C5515.654,4616.834,5427.872,4636.531,5374.594,4647.512z"/>
		<path id="_x31_80632049" fill="none" stroke="#010101" stroke-width="64" d="M6114.737,4221.766
			c-39.712,25.102-112.385,87.692-163.099,73.443c-42.316-11.877-57.449-71.723-66.079-109.689
			c-12.712-55.926,14.016-76.695,55.091-105.22c62.38-43.329,128.092-92.937,188.104-139.755
			c56.984-44.449,95.06-70.613,141.542-112.089c45.346-40.456,79.538-90.569,106.455-146.663
			c14.477-30.178,26.157-78.078,29.187-111.783c10.665-118.613-61.655-197.282-129.644-280.815
			c-26.783-32.906-55.148-64.199-83.129-96.062c-23.623-26.903-70.375-56.258-65.202-89.298
			c6.146-38.969,51.276-73.852,76.89-99.831c24.164-24.517,55.279-64.423,92.211-53.458c37.34,11.09,60.152,43.865,87.211,68.728
			c72.188,66.273,173.823,178.014,201.47,276.767c27.874,99.569,30.466,224.308,2.665,323.54
			c-47.545,169.723-127.143,311.167-254.932,428.251C6267.514,4108.256,6189.758,4174.35,6114.737,4221.766z"/>
		<path id="_x31_80632048" fill="none" stroke="#010101" stroke-width="64" d="M6389.378,3575.835
			c10.663-118.612-54.743-192.013-122.73-275.549c-40.663-49.966-93.728-103.246-130.715-146.854
			c-29.802-35.139-105.745-35.229-92.89,28.756c8.067,40.154,13.217,80.172,6.197,121.822
			c-22.862,135.717-49.512,275.833-52.605,413.909c-2.085,93.113,24.006,180.223,132.08,168.909
			C6254.051,3873.705,6378.137,3700.801,6389.378,3575.835z"/>
		<path id="_x31_80632045" fill="none" stroke="#010101" stroke-width="64" d="M6036.297,3222.982
			c-4.594-26.304-23.535-45.902-62.299-53.242c-58.445-11.069-136.793,12.8-166.854,71.826
			c-27.591,54.181-19.812,122.446,20.977,166.98c91.141,99.506,158.334-32.006,193.865-110.975
			C6034.285,3270.245,6040.041,3244.389,6036.297,3222.982z"/>
		<path id="_x31_80632042" fill="none" stroke="#010101" stroke-width="64" d="M5704.615,3496.207
			c14.171-15.811,26.934-32.931,38.91-50.599c10.653-15.712,28.145-57.834,52.467-50.289c12.277,3.811,28.226,31.61,34.256,42.519
			c51.842,93.838-31.539,179.942-92.753,237.866c-39.386,37.27-75.827,77.337-118.12,111.279
			c-29.536,23.71-79.641,57.627-116.407,87.257c-25.618,20.646-45.212-3.305-68.848-35.762
			c-40.722-55.895,83.042-126.719,111.429-162.125C5595.853,3613.596,5651.116,3555.912,5704.615,3496.207z"/>
		<path id="_x31_80632051" fill="none" stroke="#010101" stroke-width="64" d="M5585.037,2593.825
			c18.293,30.431-8.984,71.26-25.387,95.552c-26.073,38.627,7.145,96.454,24.354,132.411c24.192,50.563,53.722,98.025,82.39,145.852
			c36.271,60.512,70.108,133.864,130.678,171.763c65.625,41.067,146.453,12.615,215.33-6.49
			c52.81-14.642,90.583-56.438,131.735-91.458c95.894-81.59,180.013-204.583,263.847-298.294
			c-32-35.029-48.516-79.309-71.146-120.668c-6.91-12.619-8.764-19.724-17.646-29.937c-9.041-10.403-20.484-23.912-30.514-33.542
			c-7.922-7.608-16.631-15.821-25.43-22.297c-49.155-36.193-103.443-59.272-160.663-76.898c-28.7-8.85-56.151-18.447-85.3-25.634
			c-28.775-7.09-57.845-13.433-87.061-18.167c-33.637-5.45-68.256-10.079-102.359-7.917c-28.826,1.842-53.624,2.768-80.719,14.654
			c-15.932,6.981-30.056,17.794-43.575,28.874c-39.667,32.505-77.181,68.116-118.784,98.021
			c-13.473,9.685-27.217,17.65-40.462,27.934C5558.467,2579.184,5576.374,2579.39,5585.037,2593.825z"/>
		<path id="_x31_80632035" fill="none" stroke="#010101" stroke-width="64" d="M4907.305,3100.406
			c18.258-10.568,70.514-14.739,81.077,13.255c16.688,44.248-25.136,256.212-82.177,279.479L4907.305,3100.406z"/>
		<path id="_x31_80632040" fill="none" stroke="#010101" stroke-width="64" d="M5248.967,3367.67
			c10.718,1.838,21.947-0.864,32.895-8.951c61.342-45.299,92.145-233.129,89.646-306.273c-1.937-56.95-19.64-111.683-26.861-167.919
			c-42.667,6.997-85.835,9.808-129.065,7.501c-2.271-0.12-4.559-0.238-6.857-0.361l5.689,17.87
			c17.385,74.416,13.801,118.515,1.263,179.148c-9.007,43.552-26.401,104.071-27.499,151.303
			C5186.536,3310.834,5215.187,3361.876,5248.967,3367.67"/>
		<path id="_x31_80632041" fill="none" stroke="#010101" stroke-width="64" d="M5647.616,3250.825
			c-20.02-103.625-41.813-145.392-81.363-216.744c-21.067-38.006-44.171-74.669-67.063-111.475
			c-13.69-22.02-35.055-68.391-66.078-59.619c-19.55,5.533-39.226,11.899-58.977,16.031c-9.801,2.052-19.631,3.892-29.494,5.508
			c7.227,56.236,24.93,110.97,26.864,167.919c2.495,73.144-28.302,260.974-89.644,306.273c-10.947,8.087-22.18,10.789-32.895,8.951
			l-1.449,6.552c-8.617,54.917-51.275,146.636-33.915,182.411l7.364,19.845c32.04,10.599,66.174,18.273,99.141,12.538
			c0.318-0.054,0.637-0.108,0.941-0.166c38.82-7.66,72.816-40.344,104.078-64.422c36.561-28.171,72.686-57.084,106.855-88.344
			C5667.648,3311.949,5662.767,3329.248,5647.616,3250.825z"/>
		<path id="_x31_80632039" fill="none" stroke="#010101" stroke-width="64" d="M5247.518,3374.224l1.449-6.553
			c-33.78-5.795-62.426-56.837-60.791-127.68c1.098-47.233,18.492-107.751,27.499-151.303
			c12.538-60.633,16.122-104.736-1.259-179.148l-5.691-17.87c-22.079-1.166-45.375-2.671-66.064-10.557
			c-18.76-7.146-37.618-15.851-55.52-25.091c-8.119-4.2-28.002-22.033-37.03-13.35c-9.362,9.016,6.208,68.352,5.876,81.646
			c-1.709,67.992-19.852,135.288-39.961,195.046c-5.793,17.211-16.425,59.746-16.333,96.337
			c0.089,35.763-14.502,83.426-28.896,115.905c-6.15,13.889-21.062,30.548-20.183,46.726c1.184,21.835,28.088,22.416,43.838,27.984
			c48.723,17.208,89.961,61.674,124.959,99.469c24.716,26.699,43.404,49.541,77.431,62.168c7.868,2.918,15.929,5.816,24.128,8.528
			l-7.364-19.849C5196.247,3520.857,5238.9,3429.139,5247.518,3374.224z"/>
		<path id="_x31_80632031" fill="none" stroke="#010101" stroke-width="64" d="M5339.594,3872.715
			c18.766-5.033,37.443-8.084,55.489-7.653c43.933,1.044,81.287,39.813,82.032,84.79c0.927,55.387-42.678,99.276-72.275,140.111
			c-18.381,25.355-34.027,52.926-46.527,81.949c-8.013,18.596-17.484,36.754-22.672,56.52c-5.646,21.482,1.449,35.61,2.529,56.582
			c1.503,29.043-15.684,45.263-30.451,68.676c-13.688,21.7-92.453,70.27-126.322,60.695
			c-59.719-16.873-85.323-70.193-92.758-125.129c-7.891-58.248,2.237-116.232,11.354-173.581
			c7.836-49.27,18.057-102.108,43.422-145.241c15.98-27.163,51.31-41.684,78.607-52.488
			C5257.991,3903.726,5299.008,3883.586,5339.594,3872.715z"/>
		<path id="_x31_80632030" fill="none" stroke="#010101" stroke-width="64" d="M5482.984,4443.957
			c20.561-14.381,42.637-47.844,36.451-74.836c-7.56-33.007-54.559-29.029-79.115-28.955
			c-58.694,0.18-118.271,14.915-150.744,71.592c-26.73,46.66,11.738,62.72,49.828,66.027
			C5387.742,4481.985,5441.865,4472.709,5482.984,4443.957z"/>
		<path id="_x31_80632036" fill="none" stroke="#010101" stroke-width="64" d="M4907.268,3084.998
			c34.975-7.8,74.682,10.417,93.891-17.592c37.848-55.174,38.39-72.479,40.1-140.475c0.818-32.232-3.326-65.771-18.344-94.408
			c-9.506-18.12-38.124-68.563-62.739-63.861c-15.12,2.878-19.005,30.559-33.257,30.619c-1.893,0.021-21.294-20.945-22.287-28.088
			L4907.268,3084.998z"/>
		<path id="_x31_80632032" fill="none" stroke="#010101" stroke-width="64" d="M4908.98,4908.504
			c19.232-17.191,107.93-116.246,182.395-161.35c35.01-21.203,126.953-46.742,156.317-59.982
			c19.223-8.67,49.151-16.457,62.116-34.99c10.726-15.339,4.147-57.109-1.869-81.537c-8.207-33.277-25.472-131.276-68.764-132.029
			c-13.587-0.232-115.592-8.032-137.675-57.394c-36.796-82.247-80.038-259.52-193.446-260.1L4908.98,4908.504z"/>
		<path id="_x31_80632033" fill="none" stroke="#010101" stroke-width="64" d="M4908.02,4106.996
			c35.836-0.1,66.908,13.854,91.635,40.68c12.969,14.082,26.402,28.242,35.24,45.362c6.658,12.909,22.062,54.778,34.214,26.099
			c7.966-18.796,5.411-40.716,7.722-60.668c2.852-24.611,7.957-49.134,13.246-73.274c9.167-41.839,15.184-78.401,34.99-115.858
			c22.422-42.402,16.382-65.727-20.824-93.143c-69.952-51.536-107.449,12.61-196.777,12.858L4908.02,4106.996z"/>
		<path id="_x31_80632034" fill="none" stroke="#010101" stroke-width="64" d="M4907.435,3875.896
			c42.427,2.939,69.901-17.322,108.097-29.127c29.182-9.026,68.627-3.286,94.001,15.074c10.937,7.914,24.3,17.493,33.248,27.849
			c7.489,8.66,10.415,22.86,21.31,27.903c13.715,6.328,28.084-5.039,40.635-9.061c17.426-5.585,34.025-10.354,50.93-17.999
			c34.303-15.517,74.48-28.892,100.055-59c33.256-39.147,20.032-92.287-3.553-133.207c-19.232-33.357-23.207-79.74-65.77-91.524
			c-29.268-8.103-60.098-9.955-89.516-20.873c-34.012-12.625-52.697-35.469-77.414-62.167
			c-58.219-62.873-123.039-121.968-213.207-115.218L4907.435,3875.896z"/>
		<path id="_x31_80632043" fill="none" stroke="#010101" stroke-width="64" d="M5337.568,3636.639
			c1.087,4.877,3.015,10.129,5.908,15.822c19.24,37.865,39.486,112.226,89.186,100.004c40.584-9.98,96.262-73.102,121.298-104.333
			c50.306-62.753,92.21-105.05,145.708-164.75c49.057-54.716,144.078-201.043,17.928-195.201
			c-47.129,2.185-50.936,41.909-94.95,85.641c-41.776,41.505-81.47,71.483-130.831,115.395
			c-25.756,22.919-54.343,39.399-80.534,61.733C5373.211,3583.424,5329.668,3601.187,5337.568,3636.639z"/>
		<path id="_x31_80632044" fill="none" stroke="#010101" stroke-width="64" d="M5459.535,2836.669
			c34.637,49.781,68.76,100.173,98.951,153.059c43.605,76.377,81.846,147.415,99.93,235.701c6.157,30.074,0.165,60.26,39.465,57.637
			c35.406-2.368,70.785-24.021,94.96-49.787c13.69-14.594,40.46-38.304,28.589-61.774c-8.32-16.414-36.578-22.287-50.464-32.841
			c-69.031-52.489-98.274-144.242-144.915-215.386c-38.332-58.474-73.532-125.189-95.289-192.444
			C5519.377,2758.549,5494.157,2822.413,5459.535,2836.669z"/>
		<path id="_x31_80632050" fill="none" stroke="#010101" stroke-width="64" d="M6475.42,2792.744
			c-5.041-6.877-38.082-24.705-49.008-22.59c-31.467,6.09-54.291,39.547-72.259,64.385c-24.643,34.05-70.496,72.289-29.701,107.256
			c32.072,27.482,64.349,60.923,94.853,88.936c72.18,66.272,158.04,167.467,185.688,266.218
			c27.874,99.569,29.911,224.447,2.112,323.676c-47.545,169.721-136.594,323.579-264.387,440.659
			c-65.957,60.427-151.084,130.402-226.098,177.811c-68.939,43.573-107.315,68.364-89.666,113.622
			c14.584,37.383,59.42,93.741,93.206,113.467c55.085,32.168,87.085-23.629,121.679-62.666
			c25.459-28.727,52.041-56.295,78.021-84.497c13.475-14.644,28.939-27.052,42.848-41.212
			c45.004-45.836,87.791-91.021,137.064-132.334c16.277-13.645,29.703-30.078,44.854-44.921
			c47.08-46.142,78.264-96.79,110.977-154.464c30.116-53.134,51.125-115.932,72.699-173.305
			c8.256-21.951,13.333-37.99,21.656-59.927c5.239-13.792,9.488-32.284,14.618-46.264c34.043-92.608,64.927-192.825,83.243-290.328
			c5.02-26.714,13.529-55.549,14.293-82.793c0.586-20.854,4.125-46.24,2.24-67.298c-1.124-12.56-1.439-25.296-2.74-37.998
			c-1.357-13.418-5.699-23.991-12.009-35.228c-17.971-32.058-43.177-52.518-73.406-70.474
			c-72.952-43.341-146.591-74.546-206.434-138.512c-21.491-22.976-38.339-46.1-52.979-74.737
			c-7.333-14.35-13.322-29.273-21.283-43.063C6489.131,2815.108,6482.903,2802.971,6475.42,2792.744z"/>
		<path id="_x31_80632037" fill="none" stroke="#010101" stroke-width="64" d="M5214.536,2634.975
			c-33.007,57.866-60.14,121.827-98.86,174.021c-52.671,71.005-120.052-56.533-135.661-97.114
			c-23.731-61.773-2.071-132.735,26.742-188.223c8.384-16.151,19.221-33.169,31.64-46.234c23.873-25.117,55.707-52.542,40.928-92.7
			l1.157,2.933c9.69,16.424,33.429,40.72,44.081,56.11l10.334,12.446c0.902,0.929,1.592,18.366,2.439,36.282
			c0.785,16.715,1.712,33.842,3.068,38.39c8.43,28.104,22.027,55.309,42.426,75.984
			C5194.258,2618.457,5204.77,2627.221,5214.536,2634.975z"/>
		<path id="_x31_80632038" fill="none" stroke="#010101" stroke-width="64" d="M5214.536,2634.975
			c27.837,22.234,47.92,34.149,67.575,79.118c19.002,43.482,106.373,124.429,155.514,126.669
			c-44.338,38.445-322.854,62.688-334.986-12.063c-1.145-7.015,2.98-7.492,13.037-19.7
			C5154.396,2756.802,5181.533,2692.84,5214.536,2634.975z"/>
		<path id="_x31_80632016" fill="none" stroke="#010101" stroke-width="64" d="M6304.334,5139.264
			c-30.656-10.242-50.627-28.293-45.789-59.666c5.212-33.723,32.422-57.215,53.634-80.543
			c21.265-23.395,46.012-54.432,58.364-84.074c-71.42,28.479-130.094,40.559-206.594,29.719
			c-44.021-6.247-95.186-24.157-121.252-84.577c-8.432-19.538-13.95-45.108-13.795-66.466
			c0.441-60.479,17.305-120.085,44.093-173.398c11.858-23.588,27.983-58.424,40.051-71.111
			c12.466-13.104,21.36-23.992,11.101-43.883c-7.542-14.631-19.753-26.682-31.295-37.279c-19.418-17.844-32.707-35.274-59.434-38.83
			c-24.406-3.252-53.883,6.488-74.5,18.77c-42.181,25.129-89.308,41.933-132.77,64.804
			c-77.263,40.655-161.258,74.479-243.482,103.394c-38.645,13.592-100.449,26.97-169.342,42.838
			c-74.639,17.194-159.579,52.081-186.955,58.296c-34.356,7.799-90.633,22.224-149.645,62.042
			c-71.558,48.289-137.738,114.377-159.924,142.962c4.916,5.365,10.981,11.751,12.514,15.104
			c6.396,13.989,4.928,27.822,4.732,42.899c-0.497,35.661-8.09,69.39-9.576,105.672c-2.252,54.493,1.199,108.243,4.453,162.339
			c2.163,35.939-2.694,72.033-1.653,108.029c1.844,63.677,7.062,127.236,7.089,190.984c0.013,59.314-10.156,114.477-9.915,173.48
			c0.202,48.964,1.677,98.766,7.542,147.389c2.553,21.117,10.633,25.314-2.764,42.822c-3.691,4.828-9.02,8.598-16.555,10.819
			c-0.094-112.333-2.077-857.722-2.532-989.821c-0.367,0.693-0.661,1.319-0.86,1.858l4.193,1321.243
			c10.875-10.412,111.426-18.771,128.209-20.109c54.461-4.371,125.606-4.637,179.932,1.59
			c59.93,6.854,139.455,30.104,200.495,21.535c27.265-3.833,125.75-51.421,145.655-64.844
			c84.58-57.072,158.76-121.461,227.233-197.875c22.773-25.424,40.599-42.785,68.261-62.008
			c12.717-8.855,25.912-19.463,42.772-32.893c-8.788,1.498-4.827-61.59-4.014-68.329c5.361-44.224,27.063-82.796,47.957-120.642
			c71.237-129.097,173.577-228.396,264.786-342.629c40.162-50.311,80.4-100.807,124.281-147.24
			c23.176-24.523,43.246-46.237,77.812-65.032C6388.971,5153.994,6338.578,5150.701,6304.334,5139.264z"/>
		<path id="_x31_80632025" fill="none" stroke="#010101" stroke-width="64" d="M5066.312,4790.879l-4.231-0.943
			c-9.141,6.988-19.144,14.932-30.7,24.154c-28.165,22.457-49.368,44.049-80.862,71.48c-0.617,0.54-1.266,1.129-1.929,1.749
			l1.937,2.101c31.27,35.027,32.516,77.223,40.828,121.222l2.198,18.055c48.972-43.194,101.138-83.499,152.542-119.983
			c26.207-18.602,55.277-33.934,84.768-47.203l-0.447-1.751C5215.646,4827.42,5103.166,4793.793,5066.312,4790.879z"/>
		<path id="_x31_80632026" fill="none" stroke="#010101" stroke-width="64" d="M4967.619,5052.152
			c8.531-7.902,17.175-15.731,25.936-23.461l-2.198-18.05c-8.313-43.999-9.558-86.194-40.827-121.222l-1.938-2.101
			c-8.784,8.22-21.53,23.515-31.083,35.71c4.775,5.19,10.348,11.141,11.809,14.334c6.396,13.989,4.928,27.822,4.735,42.899
			c-0.5,35.661-8.093,69.39-9.581,105.672c-0.115,2.803-0.209,5.607-0.295,8.407
			C4938.195,5080.033,4952.716,5065.961,4967.619,5052.152"/>
		<path id="_x31_80632027" fill="none" stroke="#010101" stroke-width="64" d="M4967.523,5055.002l0.096-2.85
			c-14.903,13.809-29.424,27.881-43.443,42.189c-1.595,51.618,1.66,102.622,4.748,153.932c2.163,35.939-2.694,72.033-1.653,108.029
			c1.844,63.677,7.062,127.236,7.089,190.984c0.013,59.314-10.156,114.477-9.915,173.48c0.149,35.973,0.991,72.391,3.749,108.465
			c1.783-0.529,4.09-1.33,6.738-2.559c6.271-2.9,10.586-7.037,10.586-7.037c31.361-38.078,29.151-99.988,30.372-147.041
			c1.193-45.967,1.046-91.963,0.283-137.939C4973.557,5377.461,4969.152,5215.104,4967.523,5055.002z"/>
		<path id="_x31_80632018" fill="none" stroke="#010101" stroke-width="64" d="M4913.257,6170.558
			c56.585,2.454,157.27,14.005,190.789-46.504c35.651-64.329-3.743-134.492-45.481-182.63
			c-44.609-51.441-74.627-93.939-129.651-133.297c0,0,1.97,50.068,3.866,71.243c1.896,21.18-5.434,36.607-12.8,36.63
			C4912.609,5916.021,4913.257,6170.558,4913.257,6170.558z"/>
		<path id="_x31_80632020" fill="none" stroke="#010101" stroke-width="64" d="M5359.221,5292.082
			c59.873-113.144,38.533-201.283-9.293-274.727c-44.949-69.021-117.133-99.467-202.328-28.494
			c-60.15,50.114-92.256,80.4-107.404,162.381c-13.072,70.812-9.528,137.225,44.094,190.398
			c30.158,29.906,67.023,43.831,106.951,48.488c23.961,2.795,61.48,2.323,84.705-9.223
			C5320.089,5358.957,5338.023,5332.133,5359.221,5292.082z"/>
		<path id="_x31_80632023" fill="none" stroke="#010101" stroke-width="64" d="M5687.91,4791.615
			c-9.162-9.162-20.475-16.251-32.975-21.9l-10.321,2.229c-40.992,13.344-77.374,54.043-75.259,102.279l0.81,5.347
			c17.478,14.974,34.175,32.64,52.306,52.509c23.91,26.204,52.554,35.393,80.391,7.839
			C5744.962,4898.246,5724.641,4828.336,5687.91,4791.615z"/>
		<path id="_x31_80632024" fill="none" stroke="#010101" stroke-width="64" d="M5644.614,4771.945l10.321-2.23
			c-33.988-15.348-76.848-19.879-109.854-25.418c-54.566-9.168-97.502-13.347-152.011-22.689
			c-34.026-5.842-66.034-8.07-100.224-12.807c-25.01-3.465-108.482,19.367-132.734,27.898
			c-43.235,15.203-65.016,27.982-98.035,53.236l4.233,0.943c36.854,2.914,149.334,36.541,164.103,68.88l0.447,1.751
			c10.439-4.699,20.931-9.143,31.367-13.373c64.839-26.277,131.093-29.854,199.32-19.27c46.102,7.151,78.52,24.931,108.616,50.71
			l-0.81-5.35C5567.24,4825.986,5603.622,4785.287,5644.614,4771.945z"/>
		<path id="_x31_80632021" fill="none" stroke="#010101" stroke-width="64" d="M5174.352,5743.876
			c13.902-19.617,22.883-49.019,28.191-72.616c12.957-57.621,26.307-98.805,72.55-140.13l2.23-1.218
			c-68.87-30.306-145.348-30.685-198.364,35.851c-61.057,76.62-22.418,156.993,33.918,217.38c0.346,0.368,0.707,0.742,1.057,1.115
			l11.994-2.355C5143.324,5776.91,5163.479,5759.234,5174.352,5743.876z"/>
		<path id="_x31_80632022" fill="none" stroke="#010101" stroke-width="64" d="M5411.241,5644.665
			c-20.108-57.019-69.754-82.497-118.749-107.546c-5.004-2.561-10.066-4.965-15.169-7.211l-2.23,1.215
			c-46.243,41.332-59.593,82.516-72.55,140.137c-5.309,23.598-14.289,52.999-28.191,72.613
			c-10.873,15.361-31.027,33.037-48.424,38.029l-11.994,2.352c47.433,50.156,167.1,130.894,241.772,95.643
			c12.38-5.843,28.232-17.627,37.599-30.514C5426.875,5803.229,5429.96,5697.742,5411.241,5644.665z"/>
		<path id="_x31_80632028" fill="none" stroke="#010101" stroke-width="64" d="M5482.404,5922.496
			c11.566-9.922,22.912-20.794,34.303-32.685c74.756-78.06,102.837-167.853,211.432-206.615
			c43.029-15.366,73.344,1.569,115.912,18.393c59.926,23.687,64.416,68.904,59.057,120.884l2.93-5.043
			c16.07-63.602,58.999-132.678,84.671-171.388c53.497-80.7,119.763-150.493,180.732-224.648
			c50.974-61.989,96.319-129.108,154.144-184.841c25.717-24.783,62.51-68.084,92.256-80.115l-0.88,0.173
			c-35.015-3.466-90.086-9.815-112.622-17.347c-30.66-10.24-50.631-28.293-45.793-59.666c5.216-33.723,32.424-57.215,53.634-80.543
			c21.265-23.395,46.015-54.428,58.367-84.074c-43.296,12.556-81.302,27.205-113.813,29.83c-39.318,3.176-69.27,6.197-99.392-1.418
			c-57.11-14.438-69.81-18.331-97.3-50.071c-33.149-38.283-36.551-97.999-31.637-132.995c9.592-68.348,29.471-108.605,31.72-111.848
			c0,0,26.335-56.57,33.962-72.454c-4.545,0-14.23,10.644-14.23,10.644c-13.439,3.253-27.383,0.822-40.845,3.467
			c-21.227,4.166-42.048,10.395-62.688,16.99c-56.109,17.949-105.916,50.637-155.032,83.34
			c-38.973,25.947-77.877,61.164-126.082,64.38c-2.171,0.14-10.811,4.641-12.357,12.726c-3.806,19.902,5.065,24.045,5.065,24.045
			c36.726,36.721,57.047,106.631,14.95,148.305c-27.839,27.551-56.482,18.362-80.395-7.838
			c-49.35-54.083-88.044-91.906-160.922-103.215c-68.227-10.584-134.481-7.008-199.319,19.27
			c-8.731,3.542-17.501,7.224-26.249,11.086c0,0-15.08,14.55-14.047,45.814c1.029,31.27,16.285,44.857,16.285,44.857
			c46.926-0.76,88.201,29.008,115.408,75.154c30.529,51.79,56.639,117.145,37.105,186.642
			c-8.964,31.892-19.677,61.109-32.994,86.325c-31.758,60.134-78.34,97.445-151.41,93.64c0,0-13.927,10.344-5.094,67.593
			c8.83,57.238,39.088,57.611,39.088,57.611c17.688,4.656,35.238,11.605,52.172,20.26c48.991,25.049,98.637,50.527,118.745,107.546
			c16.68,47.298,16.048,136.214-8.04,187.675c0,0-13.002,20.224,20.551,55.307
			C5457.307,5922.732,5482.404,5922.496,5482.404,5922.496z"/>
		<path id="_x31_80632019" fill="none" stroke="#010101" stroke-width="64" d="M5902.016,5832.146
			c6.793-56.001,5.65-105.409-57.965-130.557c-42.572-16.823-72.883-33.759-115.912-18.393
			c-157.91,56.374-179.604,254.915-344.061,300.095c-42.343,11.627-93.183,27.234-137.379,25.259
			c-30.641-1.366-62.248-21.698-93.277-11.648c-33.35,10.798-19.812,45.485-24.014,73.437
			c-4.637,30.803-12.646,61.055-29.945,86.911c-39.35,58.813,5.342,76.052,55.588,74.837c22.402-0.541,44.34,1.924,66.561,4.473
			c59.928,6.854,139.457,30.104,200.496,21.528c27.266-3.826,125.75-51.414,145.652-64.837
			c84.58-57.072,158.764-121.461,227.236-197.875c22.771-25.424,40.6-42.785,68.258-62.008
			c12.717-8.859,25.917-19.463,42.775-32.893C5897.242,5901.973,5901.203,5838.883,5902.016,5832.146z"/>
		<path id="_x31_80632017" fill="none" stroke="#010101" stroke-width="64" d="M5331.887,4682.296
			c-19.349,4.901-13.837,11.126-0.227,18.03c14.912,7.564,32.244,8.188,48.437,9.836c17.315,1.756,34.232,5.667,51.429,8.32
			c39.867,6.148,80.172,8.977,119.742,17.195c44.775,9.307,98.029,22.225,143.938,19.16c48.206-3.209,87.11-38.43,126.083-64.379
			c49.114-32.701,98.919-65.385,155.031-83.334c20.641-6.6,41.46-12.828,62.688-16.99c13.462-2.648,27.402-0.214,40.845-3.473
			c18.161-4.398,20.731-24.41,33.193-37.516c12.464-13.104,21.358-23.992,11.097-43.885c-7.54-14.629-19.751-26.68-31.291-37.277
			c-19.422-17.844-32.709-35.274-59.434-38.836c-24.406-3.25-53.889,6.488-74.504,18.775c-42.177,25.129-89.306,41.933-132.769,64.8
			c-77.263,40.659-161.263,74.482-243.481,103.397c-38.646,13.586-100.451,26.97-169.342,42.836
			c-21.238,4.889-42.39,10.182-63.434,15.902C5344.879,4676.218,5338.17,4680.704,5331.887,4682.296z"/>
		<path id="_x31_80632144" fill="none" stroke="#010101" stroke-width="64" d="M7033.565,5084.577
			c-1.124-25.873-88.335-98.331-74.314-42.788C6966.133,5069.074,7036.562,5154.043,7033.565,5084.577z"/>
		<path id="_x31_80632145" fill="none" stroke="#010101" stroke-width="64" d="M5730.648,5420.574
			c26.854-20.176,22.211-77.969-27.615-138.629c-21.236-25.858-67.135-46.09-81.854-33.982
			c-19.051,15.67-28.915,62.787,16.635,113.969C5668.85,5396.789,5705.254,5439.65,5730.648,5420.574z"/>
		<path id="_x31_80632146" fill="none" stroke="#010101" stroke-width="64" d="M6381.471,5557.711
			c15.213-74.499,12.922-155.168,30.727-228.032c10.275-42.042,63.238-106.239,47.316-151.386
			c-23.959-67.611-92.983,18.804-133.93,58.26c-57.826,55.732-103.17,122.852-154.146,184.841
			c-60.968,74.155-127.233,143.946-180.732,224.645c-37.858,57.091-113.243,180.211-84.675,254.437
			c21.076-15.52,156.568-55.145,170.382-60.994c51.192-21.698,101.414-40.18,148.399-70.655
			c25.02-16.22,49.294-34.003,71.328-54.454c17.865-16.585,45.854-34.047,57.863-55.821c6.68-12.122,7.022-30.735,10.908-43.95
			C6370.535,5595.52,6377.438,5577.422,6381.471,5557.711z"/>
		<path id="_x31_80632147" fill="none" stroke="#010101" stroke-width="64" d="M5528.594,4334.274
			c36.283-25.431-24.43-83.54-52.348-103.728c-24.241-17.517-57.975-36.147-93.359-25.076c-32.682,10.225-52.998,27.561-49.52,53.33
			c3.706,27.613,20.52,54.683,66.812,74.573C5435.356,4348.471,5494.119,4358.438,5528.594,4334.274z"/>
		<path id="_x31_80632148" fill="none" stroke="#010101" stroke-width="64" d="M6827.101,2969.505
			c14.128-8.734,27.903-18.907,37.549-31.806c47.114-63.053,51.302-151.73,100.678-214.269
			c29.034-36.762,64.544-68.782,94.138-105.554c25.898-32.188,33.697-116.707,78.849-115.742
			c6.403-8.81,31.298,382.884-15.677,553.478c88.996-137.247,123.244-372.555,173.828-356.688
			c16.851-11.193,80.193-16.891,89.48,17.13c6.734,24.68-35.121,83.814-46.46,111.439c-20.664,50.372-60.206,82.04-64.733,138.496
			c-4.547,56.751,6.091,92.38-17.437,148.476c-28.721,68.496-68.153,129.324-126.801,173.591
			c-36.797,27.772-74.776,42.139-102.741,79.711c-65.05,87.373-49.474,211.09-72.07,311.898
			c-18.953,84.492-60.556,142.864-97.475,217.052c-51.545,103.648-125.735,202.984-191.371,298.597
			c-34.922,50.894-96.43,86.412-143.764,125.355c-61.842,50.861-130.904,103.131-191.157,156.055
			c-18.837,16.553-112.775,77.468-119.329,168.948c-9.5,132.688,116.576,73.958,179.543,35.876
			c105.767-63.965,199.398-161.303,312.605-210.434c52.393-22.697,126.863,19.209,108.699,78.934
			c-25.184,82.697-128.547,146.291-190.624,197.031c-91.502,74.808-192.79,154.02-306.347,187.225
			c-71.472,20.9-205.342,25.238-256.447-40.986c-82.633-107.071,19.884-295.281,44.598-332.633
			c34.322-51.905,271.889-301.496,356.742-381.012c66.402-62.229,113.234-101.438,147.074-154.32
			c25.764-40.237,56.143-79.959,90.416-178.865c36.221-104.486,75.797-184.521,120.854-353.752
			c48.604-182.542,66.529-320.458,6.322-372.442c-81.787-70.609-209.428-102.324-273.493-193.575
			c21.691,30.89,100.538,64.69,136.468,69.247C6734.205,3001.691,6767.828,3006.156,6827.101,2969.505z"/>
		<path id="_x31_80632149" fill="none" stroke="#010101" stroke-width="64" d="M6477.251,2791.227
			c52.836,14.592,117.091,27.472,169.79,12.504c78.971-22.427,147.525-78.247,221.643,36.717
			c61.138,94.822-74.483,158.428-128.045,159.208c-6.245,0.094-132.637,5.168-202.26-93.28
			c-23.287-32.931-35.538-66.238-52.417-101.16C6486.218,2805.249,6476.988,2791.16,6477.251,2791.227z"/>
		<path id="_x31_80632150" fill="none" stroke="#010101" stroke-width="64" d="M5137.336,2492.498
			c0.785,16.715,1.712,33.842,3.068,38.39c8.434,28.104,22.027,55.309,42.426,75.984c43.029,43.619,73.076,47.267,99.281,107.22
			c19.005,43.483,106.375,124.428,155.514,126.668c54.168,2.475,76.387-81.458,101.901-121.597
			c17.47-27.477,67.996-87.93,45.511-125.345c-21.29-35.428-91.234,6.473-117.481,14.166
			c-44.064,12.918-82.669,11.318-126.507-4.313c-77.543-27.658-148.568-87.96-206.152-147.455
			C5135.801,2457.146,5136.493,2474.582,5137.336,2492.498z"/>
		<path id="_x31_80632151" fill="none" stroke="#010101" stroke-width="64" d="M8107.455,3654.952
			c4.377,70.324,0.211,140.668-17.004,209.354c-34.131,136.679-96.572,266.503-140.512,400.973l-3.654,11.179h0.072
			c-16.006,50.429-29.211,101.691-40.35,153.568c-1.022,4.24-1.971,8.558-2.916,12.875c-5.17,23.737-10.186,50.48-15.123,79.002
			c-1.237,7.012-2.471,14.1-3.704,21.344c-0.874,5.242-1.815,10.561-2.612,15.801c-7.039,42.312-13.267,84.696-19.126,127.086
			c-1.884,13.33-3.69,26.432-5.425,39.303c-13.167,96.482,4.059,206.825-19.576,300.1c-0.654,2.471-1.24,5.016-1.896,7.482
			c-0.365,1.31-0.729,2.694-1.092,4.084c-0.586,2.16-1.17,4.475-1.826,6.863c-2.92,10.561-6.572,23.203-10.886,37.006
			c0,0.078-0.069,0.152-0.069,0.232c-0.221,0.691-0.514,1.464-0.732,2.156h0.073c-5.773,18.045-12.649,38.016-20.628,57.835
			c-4.113,6.021-7.854,12.428-11.447,19.06c-10.267,18.902-19.351,39.037-30.51,53.7c-15.496,20.38-35.348,37.154-56.453,51.235
			c-7.068,1.328-14.291,1.27-21.737-0.559c-24.476-5.865,6.401-33.606,16.826-47.426c56.978-76.037,82.87-121.555,94.792-214.033
			c13.296-103.108,25.195-203.441,32.152-307.535c3.618-54.088,3.801-99.694,24.004-150.514
			c7.688-19.36,57.445-240.818,47.125-243.485c-46.301-11.813-70.658,57.432-92.094,87.304
			c-37.221,51.871-81.674,100.062-121.773,149.865c-72.488,90.252-143.127,184.279-186.605,294.098
			c-18.889,47.89-43.086,94.254-56.072,144.518c-4.014,15.494-7.941,92.773-36.619,85.38c-18.285-4.802-17.752-56.878-14.178-71.063
			c12.396-50.107,28.206-90.518,52.604-144.51c71.577-158.354,175.106-296.919,281.308-428.865
			c83.87-104.307,176.009-202.939,243.048-320.676c59.779-104.78,89.449-257.854,95.625-379.975
			c5.539-108.939-10.582-222.061-34.576-327.763c-33.752-148.508-120.708-271.83-195.148-400.194
			c-62.75-108.215-126.665-210.954-205.814-306.953c-62.079-75.245-108.275-162.397-174.912-234.394
			c-20.908-22.667-41.527-48.957-64.344-69.307c-89.646-79.944-181.855-153.799-279.209-224.169
			c-76.395-55.254-166.049-110.468-249.486-154.301c-109.994-57.78-195.979-118.243-310.89-166.226
			c-49.337-20.587-102.062-37.387-150.079-60.981c-40.499-19.841-83.336-33.433-115.805-52.757
			c1.253,1.309,1.423,9.087,1.943,11.243c0.967,3.771,1.86,7.62,2.757,11.393c2.083,9.164,6.378,17.161,9.788,25.856
			c3.115,7.849,6.157,15.698,9.934,23.239c5.109,9.922,11.687,18.685,17.458,28.144c17.976,29.148,30.96,64.239,37.896,98.27
			c15.668,77.3,20.662,186.752,93.263,257.346c64.33,62.606,168.957,95.363,207.884,163.816
			c25.681,45.148,38.706,97.188,47.085,148.624c2.245,13.783,4.425,29.492,4.09,43.592c-0.201,6.932,0.766,11.475,1.082,18.408
			c0.85,16.404,5.967,30.487,10.943,45.729c4.751,14.469,9.723,28.938,15.506,43.02c5.785,14.002,8.47,27.245,11.455,42.182
			c3.432,17.015,1.627,30.424-3.125,46.46c-1.531,5.32-2.922,9.869-5.707,14.653c-12.617,21.989-30.859,33.441-51.604,46.209
			c-58.699,36.216-206.008,24.453-265.23-29.615c-12.037-10.984-23.117-23.045-33.096-35.96
			c-8.206-10.609-12.876-22.073-19.684-33.533c-16.131-27.226-26.599-58.55-45.521-83.997c-3.33-4.458-5.994-9.381-9.322-13.763
			c-10.421-14.147-23.796-28.747-36.57-40.65c-62.846-58.526-145.201-81.717-224.166-105.458
			c-21.824-6.564-47.482-13.194-74.535-19.05c-55.283-11.864-114.179-23.256-160.953-19.429
			c46.202-55.594,76.702-55.986,131.523-82.021c65.713-31.073,122.018-81.534,178.334-127.679
			c98.596-80.7,170.749-186.746,118.446-329.809c-44.887-122.669-199.966-207.207-415.514-227.331
			c-174.875-16.387-326.765,80.713-487.838,131.002c-147.675,46.09-286.327,134.913-444.284,134.812l0.4-219.398l-0.006-2.08
			c25.139,5.708,51.08,8.642,77.457,9.415c11.127,0.355,22.324,0.246,33.595-0.169c27.701-1.079,55.468-4.239,82.716-8.78
			c19.957-3.369,39.618-7.429,58.69-12.027c36.074-8.727,69.258-25.844,100.665-46.885c37.438-25.14,72.354-55.973,106.614-84.88
			c8.38-7.109,16.761-14.066,25.142-20.868c47.058-38.033,73.693-79.627,120.265-105.486c10.742-5.962,22.591-11.156,35.989-15.2
			c3.019-0.933,6.038-1.789,9.203-2.567c20.541-5.142,43.523-7.363,67.539-7.584c63.653-0.87,134.562,12.261,186.827,23.055
			c49.163,10.187,92.288,19.156,131.208,27.524c88.459,18.857,155.174,34.312,221.083,52.078
			c102.551,27.603,162.642,45.693,227.243,69.009c29.348,10.625,59.657,22.328,95.278,36.48
			c114.017,45.289,280.526,134.88,354.249,182.668c77.488,50.166,145.316,97.586,265.66,198.322
			c24.734,20.654,51.756,43.613,81.515,69.259c143.241,123.783,179.671,166.745,272.019,266.557
			c47.507,51.327,81.429,93.526,134.876,164.327c23.728,31.44,46.429,63.58,68.835,96.795
			c25.664,37.829,50.958,77.048,77.145,118.112c66.868,104.965,133.812,210.319,181.311,318.729
			c50.762,115.798,97.107,233.147,130.471,344.138c4.379,14.702,8.689,29.48,12.855,44.489c5.65,20.17,10.936,40.569,15.848,61.123
			c1.713,7.161,3.428,14.322,4.99,21.558c2.609,11.395,4.996,22.789,7.234,34.335c1.941,9.857,3.734,19.713,5.455,29.57
			c0.973,5.85,1.945,11.621,2.842,17.396c0.602,3.932,1.199,7.859,1.727,11.785c0.824,5.777,1.652,11.553,2.402,17.329
			c0.674,5.157,1.277,10.317,1.803,15.476c0.605,5.16,1.135,10.396,1.662,15.559c0.459,5.697,0.988,11.398,1.373,17.097
			C8106.992,3646.788,8107.297,3650.872,8107.455,3654.952z"/>
		<path id="_x31_80632141" fill="none" stroke="#010101" stroke-width="64" d="M6581.814,2263.164
			c-3.844-2.825-40.511-21.606-44.52-24.341c-54.967-37.536-98.188-56.94-127.07-123.34c-21.088-48.485-34.196-93.702-41.926-146.37
			c-7.199-48.985-17.293-96.982-42.881-143.088c-18.644-33.622-42.424-66.843-45.202-105.325
			c27.418,16.92,52.601,25.952,79.239,36.305c38.164,14.85,67.926,27.422,97.387,41.573c50.836,24.422,95.814,36.325,132.783,55.007
			c33.622,16.992,70.004,38.469,102.823,57.298c67.047,38.473,151.898,80.268,159.864,171.432
			c5.742,65.749,1.148,101.119-19.976,154.336c-21.644,54.495-53.464,117.159-61.681,185.077
			c-5.231,43.22,5.727,80.192,14.211,122.344c8.08,40.173,20.85,79.256,36.615,116.798c7.143,16.997,22.232,36.777,26.328,54.347
			c4.169,17.832-3.455,29.152-2.887,48.229c0.614,21.026,1.009,29.098,1.949,47.767c-43.11-47.764-79.986-49.143-155.998-22.37
			c30.802-20.021,50.936-33.098,59.408-67.968c3.525-14.529,2.889-30.2,0.006-45.349c-3.662-19.303-9.054-35.753-17.129-53.485
			c-11.609-25.516-19.396-59.762-21.564-87.96c-4.596-59.432-14.991-127.201-41.744-180.457
			C6648.396,2310.917,6618.318,2289.995,6581.814,2263.164z"/>
		<path id="_x31_80632142" fill="none" stroke="#010101" stroke-width="64" d="M4904.631,2771.193
			c0.993,7.143,20.395,28.109,22.287,28.088c14.255-0.061,18.139-27.749,33.257-30.619c22.624-4.305,21.151,19.08,38.152,24.411
			c34.827,10.91-15.274-73.29-18.311-81.19c-23.733-61.773-2.069-132.734,26.74-188.223c8.386-16.151,19.223-33.169,31.64-46.232
			c23.876-25.119,55.707-52.544,40.928-92.7c-8.119-22.071-18.104-46.703-31.268-66.091c-11.566-17.013-25.652-32.909-39.516-47.901
			c-17.894-19.345-31.327-31.494-50.122-49.634c-15.514-14.973-31.917-43.536-37.04-65.037c-5.971-25.103-1.895-48.872-1.617-74.164
			c0.104-9.75-0.754-20.213-2.965-29.693c-1.154-4.964-2.784-9.938-4.996-14.499c-1.299-2.667-8.051-9.81-8.059-12.308
			L4904.631,2771.193z"/>
		<path id="_x31_80632143" fill="none" stroke="#010101" stroke-width="64" d="M4929.226,5910.979
			c13.394-17.508,5.313-21.705,2.764-42.822c-5.868-48.623-7.339-98.425-7.543-147.389c-0.243-59.004,9.929-114.166,9.913-173.48
			c-0.026-63.748-5.242-127.308-7.089-190.984c-1.041-35.996,3.819-72.09,1.657-108.029c-3.258-54.096-6.709-107.846-4.457-162.339
			c1.488-36.282,9.081-70.011,9.581-105.672c0.192-15.077,1.659-28.91-4.735-42.899c-2.684-5.868-19.234-21.026-19.248-23.719
			c0.239,42.644,2.506,887.937,2.602,1008.153C4920.203,5919.576,4925.531,5915.807,4929.226,5910.979z"/>
	</g>
</g>
</svg>
