<?xml version="1.0" encoding="utf-8"?>
<!-- Generator: Adobe Illustrator 16.0.0, SVG Export Plug-In . SVG Version: 6.00 Build 0)  -->
<!DOCTYPE svg PUBLIC "-//W3C//DTD SVG 1.1//EN" "http://www.w3.org/Graphics/SVG/1.1/DTD/svg11.dtd">
<svg version="1.1" id="Layer_1" xmlns="http://www.w3.org/2000/svg" xmlns:xlink="http://www.w3.org/1999/xlink" x="0px" y="0px"
	 width="9744.01px" height="6823.46px" viewBox="0 0 9744.01 6823.46" enable-background="new 0 0 9744.01 6823.46"
	 xml:space="preserve">
<g transform="scale(1.0)">
	<g id="_x31_82622911" transform=" scale(1.0, 1.0)">
		<path id="_x31_82622914" fill="none" stroke="#010101" stroke-width="64" d="M4899.461,2278.167c0,0-8.433-1319.006-8.45-1321.276
			c-0.127-20.106,120.098-113.769,137.114-131.7c49.457-52.108,99.182-106.181,161.127-143.593
			c172.739-104.314,429.846-89.922,624.067-80.887c153.406,7.137,322.479,43.457,470.509,67.646
			c109.869,17.958,174.816,30.419,272.211,48.653c232.092,43.458,450.701,157.662,675.587,229.417
			c157.964,50.397,311.784,142.702,457.584,220.744c221.531,118.59,421.896,294.112,587.752,483.835
			c136.45,156.092,244.347,329.221,334.506,515.575c231.717,478.99,419.074,1047.735,315.64,1581.034
			c-33.086,170.604-98.134,346.273-182.026,497.874c-84.385,152.507-154.605,311.722-233.971,467.414
			c-36.903,72.432-75.45,143.706-113.778,214.984c-146.31,272.193-280.476,563.531-459.842,816.062
			c-68.377,96.28-148.147,185.615-243.479,255.502c-99.104,72.65-206.962,95.471-319.771,137.097
			c-113.032,41.684-233.297,55.466-352.174,71.168c-211.064,27.896-424.177,65.505-626.369-28.29
			c-173.137-80.302-361.191-166.408-558.315-139.353c-63.596,8.716-131.343,28.512-180.511,71.433
			c-39.456,34.453-64.574,99.269-110.237,125.246c-73.939,41.994-182.991,15.096-264.294,12.421
			c-117.846-3.891-239.715-12.091-357.607-17.2L4899.461,2278.167z"/>
		<path id="_x31_82622915" fill="none" stroke="#010101" stroke-width="64" d="M7630.225,4906.302
			c67.175-129.229,155.656-245.106,215.484-377.628c51.161-113.303,67.867-232.684,103.134-350.19
			c29.823-99.434,7.603-195.938,0.13-297.614c-6.118-83.326-15.445-169.75-35.505-251.048
			c-8.803-35.722-23.348-69.755-32.655-105.479c-47.758-183.683-127.264-353.491-223.8-516.602
			c-196.048-331.27-466.861-608.327-814.148-780.358c-186.064-92.172-382.917-162.571-576.848-235.35
			c-71.495-26.831-146.69-43.665-218.942-66.237c-171.877-53.692-362.185-99.88-489.894,60.647
			c-171.901,216.076-393.304,266.624-657.72,291.729c0,0-8.433-1319.008-8.45-1321.277c-0.127-20.107,120.096-113.77,137.112-131.7
			c49.457-52.107,99.186-106.181,161.129-143.593c172.737-104.315,429.846-89.923,624.069-80.888
			c153.406,7.138,322.478,43.457,470.507,67.646c109.867,17.959,174.816,30.419,272.211,48.653
			c232.09,43.459,450.701,157.663,675.587,229.418c157.966,50.397,311.786,142.701,457.584,220.742
			c221.533,118.59,421.897,294.114,587.754,483.836c136.45,156.092,244.347,329.221,334.506,515.573
			c231.715,478.991,419.074,1047.738,315.64,1581.037c-33.086,170.603-98.134,346.274-182.028,497.871
			c-84.382,152.509-154.605,311.722-233.971,467.414c-36.899,72.432-75.448,143.709-113.778,214.987
			c-146.306,272.19-280.474,563.528-459.84,816.062c-68.375,96.275-148.147,185.616-243.479,255.503
			c-99.104,72.647-206.962,95.472-319.771,137.096c-113.034,41.684-233.297,55.464-352.174,71.166
			c-35.284,4.669-78.184,10.501-115.334,15.343c-8.528-1.657-16.78-4.63-24.57-9.379c-33.692-20.572-53.27-75.67-64.997-111.007
			c-28.72-86.456-13.834-183.374,0.463-271.06c14.505-89.099,67.175-126.228,123.902-200.658
			c54.419-71.402,132.281-149.979,189.43-220.396c56.929-70.145,88.22-113.801,162.267-175.278
			c42.188-35.026,79.639-64.965,124.235-77.451c40.297-11.288,75.589,0.351,99.592-29.807
			C7581.074,5047.605,7591.257,4981.272,7630.225,4906.302z"/>
		<path id="_x31_82623003" fill="none" stroke="#010101" stroke-width="64" d="M6254.022,663.331l-0.285,1.807l-22.196,109.946
			c-72.871-8.462-147.451-14.968-226.772-25.413c-151.603-20.034-334.145-56.975-496.685-44.19l-12.508-106.974
			c109.437-8.067,221.282-2.261,317.702,2.212C5956.56,607.383,6113.402,639.492,6254.022,663.331z"/>
		<path id="_x31_82623002" fill="none" stroke="#010101" stroke-width="64" d="M6231.539,775.083l-68.266,337.819
			c-154.176-36.547-330.263-70.979-476.122-105.612c-48.119-11.393-97.334-18.642-145.975-18.43l-33.097-283.378
			c162.542-12.786,345.084,24.156,496.685,44.188C6084.086,760.114,6158.666,766.623,6231.539,775.083z"/>
		<path id="_x31_82623001" fill="none" stroke="#010101" stroke-width="64" d="M6163.277,1112.903l-91.765,454.389
			c-65.143-28.405-128.195-58.082-176.166-81.381c-104.196-50.469-218.95-113.103-308.565-106.625l-45.603-390.425
			c48.643-0.213,97.857,7.038,145.977,18.43C5833.011,1041.924,6009.1,1076.357,6163.277,1112.903z"/>
		<path id="_x31_82623000" fill="none" stroke="#010101" stroke-width="64" d="M6071.51,1567.292l-57.891,286.458
			c-137.838-44.249-296.403-89.022-382.582-95.27l-44.26-379.195c89.615-6.477,204.367,56.157,308.567,106.623
			C5943.315,1509.21,6006.368,1538.887,6071.51,1567.292z"/>
		<path id="_x31_82622999" fill="none" stroke="#010101" stroke-width="64" d="M6013.619,1853.751l-11.389,56.405l-0.512,1.883
			c-120.716-35.151-246.815-58.488-351.541-3.909l-2.196-4.226l-16.944-145.422
			C5717.216,1764.728,5875.784,1809.502,6013.619,1853.751z"/>
		<path id="_x31_82623008" fill="none" stroke="#010101" stroke-width="64" d="M5495.572,598.506l12.51,106.974
			c-39.271,3.031-77.4,9.006-113.56,18.83c-102.647,27.835-217.487,80.872-283.175,165.5c-20.562,26.533-36.394,55.338-48.695,85.74
			l-68.276-120.728c16.078-13.583,28.955-24.618,33.715-29.651c49.508-52.053,99.228-106.142,161.179-143.611
			C5276.269,629.031,5384.642,606.644,5495.572,598.506z"/>
		<path id="_x31_82623007" fill="none" stroke="#010101" stroke-width="64" d="M5508.082,705.48l33.095,283.378
			c-88.681,0.452-175.256,25.627-249.273,95.608c-50.733,47.979-72.88,95.832-83.616,148.544l-145.635-257.462
			c12.302-30.402,28.136-59.208,48.695-85.74c65.691-84.629,180.527-137.666,283.175-165.5
			C5430.682,714.486,5468.812,708.511,5508.082,705.48z"/>
		<path id="_x31_82623006" fill="none" stroke="#010101" stroke-width="64" d="M5541.179,988.86l45.603,390.426
			c-35.383,2.515-66.882,15.824-92.214,44.976c-37.668,43.279-64.452,102.793-83.122,167.915l-203.162-359.164
			c10.74-52.711,32.887-100.563,83.618-148.543C5365.919,1014.488,5452.496,989.311,5541.179,988.86z"/>
		<path id="_x31_82623005" fill="none" stroke="#010101" stroke-width="64" d="M5625.798,1758.162
			c-34.963-1.929-58.713,28.662-78.705,73.959l-135.646-239.945c18.668-65.121,45.452-124.636,83.12-167.913
			c25.332-29.153,56.831-42.458,92.214-44.977l44.258,379.195C5629.241,1758.399,5627.518,1758.243,5625.798,1758.162z"/>
		<path id="_x31_82623004" fill="none" stroke="#010101" stroke-width="64" d="M5647.982,1903.902l2.199,4.228
			c-14.844,7.709-29.229,17.006-43.152,28.037l-3.772-4.761l-56.166-99.285c19.994-45.295,43.744-75.886,78.707-73.959
			c1.72,0.08,3.443,0.237,5.241,0.319L5647.982,1903.902z"/>
		<path id="_x31_82622984" fill="none" stroke="#010101" stroke-width="64" d="M8194.177,1712.942
			c-69.231-94.58-167.873-188.736-261.735-261.473l57.059-77.122l1.858-2.33c103.296,85.052,199.096,180.103,285.567,278.964
			c136.454,156.15,244.358,329.233,334.53,515.599c72.503,149.829,140.646,308.46,196.927,472.025l-110.236,24.116
			c-19.082-46.561-48.894-74.165-73.197-118.484c-24.821-19.076-42.683-50.106-49.323-82.305v-0.078c0,0-0.002-0.074-0.076-0.074
			c-0.156-0.678-0.232-1.281-0.385-1.961c0.002,0.378,0.004,0.755,0.006,1.055c-2.956-5.738-3.154-1.443-8.043-5.304
			c-29.039-23.758-50.969-176.129-66.035-215.518c-32.352-84.811-70.225-167.455-108.99-249.578
			C8343.85,1888.054,8260.391,1803.37,8194.177,1712.942z"/>
		<path id="_x31_82622983" fill="none" stroke="#010101" stroke-width="64" d="M7932.441,1451.469
			c93.862,72.737,192.504,166.893,261.735,261.473c66.214,90.428,149.673,175.112,197.926,277.533
			c38.766,82.123,76.639,164.768,108.99,249.578c15.066,39.388,36.996,191.756,66.035,215.518c4.889,3.861,5.087-0.434,8.043,5.304
			c-0.133,2.562,0.094,3.013,0.455,1.056c6.641,32.201,24.502,63.231,49.323,82.308c24.302,44.316,54.115,71.922,73.197,118.484
			l-303.419,66.411c-63.121-157.334-160.26-426.312-343.948-642.454c-99.531-117.069-219.614-228.778-344.639-329.58
			L7932.441,1451.469z"/>
		<path id="_x31_82622982" fill="none" stroke="#010101" stroke-width="64" d="M8394.728,2729.133l-108.511,23.745
			c-38.944-86.114-82.378-172.62-126.14-251.365c-96.525-173.651-147.592-270.883-313.448-449.442
			c-50.04-53.897-134.3-134.588-212.979-197.026l72.49-97.945c125.024,100.801,245.107,212.51,344.639,329.58
			C8234.472,2302.82,8331.606,2571.797,8394.728,2729.133z"/>
		<path id="_x31_82622981" fill="none" stroke="#010101" stroke-width="64" d="M8286.217,2752.878l-285.109,62.405
			c-76.462-160.393-175.523-309.183-300.902-441.483c-83.712-88.377-174.63-168.943-270.081-243.796l203.526-274.963
			c78.679,62.438,162.938,143.13,212.979,197.029c165.856,178.558,216.923,275.791,313.448,449.439
			C8203.837,2580.254,8247.272,2666.764,8286.217,2752.878z"/>
		<path id="_x31_82622980" fill="none" stroke="#010101" stroke-width="64" d="M8001.107,2815.283l-326.808,71.531
			c-56.422-80.444-115.892-158.717-175.581-235.56c-80.438-103.589-169.804-186.257-264.695-256.436l196.104-264.813
			c95.447,74.853,186.365,155.417,270.077,243.794C7825.584,2506.1,7924.646,2654.891,8001.107,2815.283z"/>
		<path id="_x31_82622979" fill="none" stroke="#010101" stroke-width="64" d="M7674.3,2886.814l-81.911,17.883
			c-112.595-169.785-246.484-322.688-401.845-451.171l43.479-58.708c94.896,70.179,184.257,152.849,264.695,256.436
			C7558.408,2728.098,7617.878,2806.37,7674.3,2886.814z"/>
		<path id="_x31_82622998" fill="none" stroke="#010101" stroke-width="64" d="M6556.039,717.032
			c170.538,31.93,333.91,102.115,497.762,165.52l-0.441,1.278l-35.954,100.629C6854.912,922.642,6658,873.668,6496.187,825.268
			c-89.453-26.754-175.826-39.936-264.647-50.184l22.196-109.946l0.285-1.807c10.042,1.767,20.005,3.382,29.82,5
			C6393.67,686.337,6458.637,698.766,6556.039,717.032z"/>
		<path id="_x31_82622997" fill="none" stroke="#010101" stroke-width="64" d="M6915.208,1270.318
			c-158.321-76.197-320.846-142.838-489.122-172.573c-72.378-12.832-154.603-21.476-167.148-5.619
			c-10.544,13.529-9.633,27.171-0.719,40.54l-6.494,2.162c-28.335-7.405-57.945-14.739-88.449-21.927l68.264-337.819
			c88.825,10.25,175.196,23.429,264.651,50.184c161.808,48.402,358.72,97.374,521.215,159.192L6915.208,1270.318z"/>
		<path id="_x31_82622996" fill="none" stroke="#010101" stroke-width="64" d="M6865.725,1408.729
			c-102.604-47.297-203.737-98.054-308.038-141.286c-28.211-11.626-256.546-70.276-299.466-134.775
			c-8.916-13.369-9.827-27.01,0.717-40.54c12.546-15.859,94.771-7.213,167.148,5.619c168.276,29.735,330.801,96.375,489.122,172.573
			L6865.725,1408.729z"/>
		<path id="_x31_82622995" fill="none" stroke="#010101" stroke-width="64" d="M6557.687,1267.443
			c104.305,43.232,205.435,93.991,308.038,141.286l-124.914,349.683c-147.455-39.384-298.727-65.896-450.844-108.54
			c-61.478-17.165-141.461-49.011-218.457-82.581l91.764-454.39c30.506,7.188,60.114,14.522,88.451,21.928l6.496-2.162
			C6301.141,1197.167,6529.476,1255.817,6557.687,1267.443z"/>
		<path id="_x31_82622994" fill="none" stroke="#010101" stroke-width="64" d="M6740.811,1758.412l-109.99,307.835
			c-164.639-69.511-335.648-117.116-506.506-175.797c-33.751-11.568-71.4-24.129-110.695-36.699l57.891-286.459
			c76.996,33.568,156.979,65.416,218.457,82.582C6442.084,1692.514,6593.355,1719.027,6740.811,1758.412z"/>
		<path id="_x31_82622993" fill="none" stroke="#010101" stroke-width="64" d="M6630.824,2066.247l-18.604,51.933l-2.136,5.419
			c-113.826-46.355-229.421-88.496-344.054-131.536c-71.491-26.844-146.735-43.679-218.948-66.307
			c-14.997-4.647-30.146-9.295-45.362-13.717l0.51-1.884l11.391-56.405c39.295,12.57,76.943,25.129,110.693,36.7
			C6295.172,1949.132,6466.182,1996.736,6630.824,2066.247z"/>
		<path id="_x31_82622992" fill="none" stroke="#010101" stroke-width="64" d="M7925.07,1445.716
			c-272.77-208.987-566.508-325.734-882.231-451.372c-8.404-3.345-16.883-6.614-25.434-9.885l35.954-100.629l0.441-1.278
			c59.118,22.881,118.228,44.86,177.849,63.904c157.931,50.348,311.715,142.654,457.549,220.693
			c106.036,56.804,207.289,126.628,302.16,204.869l-1.858,2.33l-57.059,77.122C7929.961,1449.5,7927.557,1447.608,7925.07,1445.716z
			"/>
		<path id="_x31_82622991" fill="none" stroke="#010101" stroke-width="64" d="M7706.141,1757.099
			c-201.831-162.703-416.575-297.041-578.534-380.034c-70.053-35.882-140.783-72.294-212.4-106.749l102.199-285.858
			c8.553,3.27,17.033,6.538,25.434,9.883c315.722,125.64,609.46,242.386,882.231,451.373c2.486,1.893,4.891,3.785,7.371,5.752
			L7706.141,1757.099z"/>
		<path id="_x31_82622990" fill="none" stroke="#010101" stroke-width="64" d="M7127.606,1377.067
			c161.959,82.992,376.703,217.33,578.534,380.032l-72.49,97.944c-26.102-20.736-51.515-39.436-74.887-54.512
			c-229.651-148.179-395.755-258.991-644.102-369.554c-16.361-7.291-32.722-14.732-48.936-22.247l49.483-138.411
			C6986.825,1304.771,7057.554,1341.187,7127.606,1377.067z"/>
		<path id="_x31_82622988" fill="none" stroke="#010101" stroke-width="64" d="M6914.662,1430.977
			c248.347,110.563,414.45,221.375,644.102,369.554c23.372,15.076,48.785,33.776,74.887,54.513l-203.526,274.962
			c-90.782-71.295-185.651-137.48-282.297-200.354c-130.687-85.068-267.129-133.914-407.019-171.239l124.916-349.683
			C6881.938,1416.246,6898.301,1423.687,6914.662,1430.977z"/>
		<path id="_x31_82622986" fill="none" stroke="#010101" stroke-width="64" d="M7234.023,2394.819
			c-157.833-116.584-331.085-198.483-504.579-283.775c-32.581-16.009-65.455-30.892-98.624-44.797l109.992-307.835
			c139.888,37.325,276.33,86.169,407.017,171.239c96.646,62.875,191.515,129.06,282.299,200.354L7234.023,2394.819z"/>
		<path id="_x31_82622985" fill="none" stroke="#010101" stroke-width="64" d="M7190.542,2453.526
			c-105.859-87.549-221.747-163.753-347.645-226.121c-76.13-37.714-154.028-71.739-232.812-103.808l2.136-5.418l18.604-51.933
			c33.167,13.903,66.041,28.784,98.622,44.797c173.496,85.292,346.746,167.188,504.577,283.775L7190.542,2453.526z"/>
		<path id="_x31_82622978" fill="none" stroke="#010101" stroke-width="64" d="M8808.381,2638.604
			c123.531,359.343,189.818,742.534,118.747,1108.977c0,0.078-0.072,0.227-0.07,0.303l-101.238-8.03
			c8.334-66.437,5.524-131.33,9.776-203.356c11.524-199.656-1.065-377.842-61.931-568.778
			c-30.245-94.973-38.748-196.058-70.037-290.36c-1.68-5.13-3.505-9.959-5.481-14.638L8808.381,2638.604z"/>
		<path id="_x31_82622977" fill="none" stroke="#010101" stroke-width="64" d="M8773.665,2967.718
			c60.865,190.937,73.455,369.123,61.931,568.778c-4.252,72.026-1.442,136.92-9.776,203.356l-235.633-18.662
			c13.086-83.526,18.061-160.673,17.844-217.794c-0.786-262.772-76.969-473.429-184.123-705.214
			c-8.954-19.321-18.604-42.564-29.18-69.049l303.419-66.412c1.977,4.68,3.802,9.506,5.481,14.638
			C8734.917,2771.66,8743.42,2872.743,8773.665,2967.718z"/>
		<path id="_x31_82622976" fill="none" stroke="#010101" stroke-width="64" d="M8423.907,2798.183
			c107.154,231.785,183.337,442.438,184.123,705.214c0.217,57.121-4.758,134.268-17.844,217.794l-91.721-7.245
			c1.983-51.913,0.068-106.1-4.34-175.146c-11.728-184.137-50.814-363.166-108.194-535.399
			c-25.866-77.557-60.47-163.881-99.713-250.522l108.511-23.748C8405.303,2755.618,8414.953,2778.861,8423.907,2798.183z"/>
		<path id="_x31_82622975" fill="none" stroke="#010101" stroke-width="64" d="M8494.124,3538.8
			c4.41,69.046,6.325,123.232,4.342,175.146l-234.664-18.509c-30.363-172.367-89.036-348.223-125.899-495.444
			c-33.485-133.572-78.542-262.511-136.795-384.709l285.109-62.405c39.245,86.642,73.847,172.966,99.713,250.523
			C8443.31,3175.636,8482.396,3354.665,8494.124,3538.8z"/>
		<path id="_x31_82622974" fill="none" stroke="#010101" stroke-width="64" d="M8263.802,3695.44l-219.237-17.401
			c8.808-27.024-7.514-110.273-15.888-132.684c-37.236-99.897-86.629-193.204-132.667-289.066
			c-61.966-128.993-138.638-251.483-221.712-369.475l326.81-71.531c58.253,122.198,103.31,251.137,136.795,384.708
			C8174.768,3347.213,8233.438,3523.069,8263.802,3695.44z"/>
		<path id="_x31_82622973" fill="none" stroke="#010101" stroke-width="64" d="M8044.566,3678.039
			c-2.125,6.699-5.846,10.001-11.621,8.021c-43.124-14.613-77.128-42.233-107.276-63.587l-13.225,3.42
			c-8.825-34.318-22.655-67.146-31.632-101.538c-47.724-183.731-127.239-353.48-223.776-516.654
			c-20.729-34.96-42.201-69.322-64.646-103.007l81.909-17.88c83.074,117.987,159.744,240.48,221.712,369.472
			c46.038,95.863,95.431,189.17,132.665,289.068C8037.051,3567.768,8053.372,3651.015,8044.566,3678.039z"/>
		<path id="_x31_82622967" fill="none" stroke="#010101" stroke-width="64" d="M8819.968,4064.921l10.858,1.471
			c-25.42,62.081-54.298,122.269-85.739,179.132c-18.717,33.77-36.688,67.842-54.277,102.225l-3.755-1.975l-171.501-65.691
			c52.431-86.707,111.458-171.585,162.22-250.911c0.737-1.13,1.479-2.333,2.298-3.461L8819.968,4064.921z"/>
		<path id="_x31_82622966" fill="none" stroke="#010101" stroke-width="64" d="M8680.071,4025.71
			c-0.818,1.128-1.561,2.334-2.298,3.461c-50.762,79.329-109.789,164.206-162.22,250.914l-136.465-52.31
			c11.163-21.36,23.597-43.627,38.56-67.536l11.095-9.158c2.486,2.722,6.154,3.336,11.31,1.697
			c41.822-13.271,63.737-97.146,84.6-170.55L8680.071,4025.71z"/>
		<path id="_x31_82622965" fill="none" stroke="#010101" stroke-width="64" d="M8460.927,3964.379l63.726,17.85
			c-20.862,73.401-42.777,157.275-84.6,170.548c-5.155,1.639-8.823,1.022-11.31-1.697
			C8416.079,4136.944,8437.775,4066.032,8460.927,3964.379z"/>
		<path id="_x31_82622964" fill="none" stroke="#010101" stroke-width="64" d="M8283.242,3914.64l177.685,49.739
			c-23.151,101.653-44.852,172.565-32.184,186.7l-11.095,9.156c-14.967,23.91-27.396,46.176-38.56,67.537l-158.295-60.671
			c23.432-45.591,40.729-91.197,48.865-129.146C8278.163,3998.421,8282.39,3957.144,8283.242,3914.64z"/>
		<path id="_x31_82622963" fill="none" stroke="#010101" stroke-width="64" d="M8075.192,3856.361l208.05,58.278
			c-0.853,42.499-5.079,83.781-13.583,123.316c-8.136,37.948-25.434,83.555-48.865,129.146l-120.187-46.076
			c0.869-51.314,4.738-101.939-5.468-152.615c-7.495-37.026-16.485-73.682-27.717-109.663L8075.192,3856.361z"/>
		<path id="_x31_82622972" fill="none" stroke="#010101" stroke-width="64" d="M8825.819,3739.853l101.238,8.027
			c-20.649,106.561-53.86,215.039-96.231,318.507l-10.858-1.469l-139.898-39.211c42.615-65.262,96.377-107.206,122.606-183.752
			C8814.726,3806.808,8821.693,3773.145,8825.819,3739.853z"/>
		<path id="_x31_82622971" fill="none" stroke="#010101" stroke-width="64" d="M8590.187,3721.19l235.633,18.662
			c-4.126,33.292-11.094,66.955-23.144,102.103c-26.229,76.55-79.991,118.49-122.606,183.752l-155.417-43.482
			c4.974-17.464,9.883-34.326,15.025-49.533C8563.104,3862.846,8579.474,3789.879,8590.187,3721.19z"/>
		<path id="_x31_82622970" fill="none" stroke="#010101" stroke-width="64" d="M8498.466,3713.945l91.721,7.245
			c-10.713,68.688-27.082,141.655-50.509,211.505c-5.143,15.203-10.051,32.068-15.025,49.533l-63.726-17.85
			c7.642-33.354,15.415-70.026,22.126-109.115C8491.935,3804.127,8496.738,3759.907,8498.466,3713.945z"/>
		<path id="_x31_82622969" fill="none" stroke="#010101" stroke-width="64" d="M8263.802,3695.44l234.664,18.507
			c-1.728,45.96-6.535,90.182-15.413,141.315c-6.711,39.09-14.484,75.762-22.13,109.118l-177.681-49.738
			C8284.81,3843.963,8276.926,3770.011,8263.802,3695.44z"/>
		<path id="_x31_82622968" fill="none" stroke="#010101" stroke-width="64" d="M7925.667,3622.473
			c30.146,21.354,64.15,48.976,107.276,63.589c5.773,1.981,9.494-1.323,11.621-8.021l219.237,17.399
			c13.124,74.573,21.008,148.522,19.44,219.202l-208.05-58.278l-7.77,2.387c-7.638-24.292-16.244-48.282-26.202-71.905
			c-21.05-49.958-69.61-130.452-124.359-148.5c0.263,5.652,1.194,11.234,2.505,16.812h-0.075c-1.775-8.521-3.776-16.965-5.849-25.34
			c-0.312-1.281-0.616-2.635-0.998-3.92L7925.667,3622.473z"/>
		<path id="_x31_82623013" fill="none" stroke="#010101" stroke-width="64" d="M4994.374,854.823l68.278,120.728
			c-44.495,110.625-41.258,242.508-41.99,362.324c-0.373,58.176-9.441,127.094-16.393,210.114l-107.504-76.174l-2.47-0.008
			c-1.758-274.68-3.285-513.945-3.291-514.923C4890.906,942.412,4953.141,889.875,4994.374,854.823z"/>
		<path id="_x31_82623012" fill="none" stroke="#010101" stroke-width="64" d="M5062.652,975.549l145.631,257.462
			c-10.231,50.078-10.334,104.561-15.094,167.619c-5.312,70.138-3.775,205.709-3.831,278.58l-185.091-131.223
			c6.953-83.019,16.018-151.939,16.395-210.115C5021.395,1218.059,5018.157,1086.176,5062.652,975.549z"/>
		<path id="_x31_82623011" fill="none" stroke="#010101" stroke-width="64" d="M5208.283,1233.014l203.162,359.164
			c-20.501,70.764-31.458,148.119-36.619,218.484l-185.468-131.45c0.056-72.869-1.481-208.442,3.831-278.58
			C5197.951,1337.573,5198.052,1283.09,5208.283,1233.014z"/>
		<path id="_x31_82623010" fill="none" stroke="#010101" stroke-width="64" d="M5411.445,1592.176l135.644,239.945
			c-10.325,23.55-19.656,51.025-29.048,80.005l-143.215-101.466C5379.987,1740.296,5390.948,1662.941,5411.445,1592.176z"/>
		<path id="_x31_82623009" fill="none" stroke="#010101" stroke-width="64" d="M5603.254,1931.406l3.771,4.761
			c-8.266,6.527-16.299,13.735-24.184,21.468l-9.394-6.211l-55.407-39.298c9.392-28.981,18.725-56.454,29.05-80.005
			L5603.254,1931.406z"/>
		<path id="_x31_82623018" fill="none" stroke="#010101" stroke-width="64" d="M4998.801,1816.315
			c8.129,147.878,15.352,294.246,22.811,442.12l0.854,5.127c-39.849,5.97-80.906,10.577-123.015,14.578
			c0,0-2.781-435.419-5.155-806.333l2.472,0.008l107.504,76.174C4997.8,1624.604,4993.126,1713.131,4998.801,1816.315z
			 M4920.649,2269.472c33.677,0.111,107.361-4.459,87.005-39.945c-9.915-17.366-66.765-13.038-90.988,2.253
			C4896.016,2244.744,4891.386,2269.371,4920.649,2269.472z"/>
		<path id="_x31_82623017" fill="none" stroke="#010101" stroke-width="64" d="M5189.36,1679.211
			c0.012,1.356,0.02,2.713,0.026,3.993c-0.121,144.836-7.609,296.429-15.599,440.032c-2.479,45.206-15.729,68.142-30.125,110.522
			l1.615,6.484c-39.604,9.662-80.567,17.208-122.812,23.319l-0.856-5.127c-7.455-147.876-14.679-294.241-22.811-442.12
			c-5.669-103.184-0.999-191.711,5.471-268.327L5189.36,1679.211z"/>
		<path id="_x31_82623016" fill="none" stroke="#010101" stroke-width="64" d="M5189.36,1679.211l185.47,131.45
			c-0.491,5.499-0.83,10.925-1.17,16.349c-8.49,135.614-0.15,269.4-70.704,353.938l0.708,5.729
			c-50.218,23.038-103.016,40.342-158.386,53.567l-1.615-6.484c14.398-42.379,27.646-65.319,30.125-110.523
			c7.989-143.603,15.478-295.197,15.599-440.031C5189.38,1681.923,5189.372,1680.567,5189.36,1679.211z"/>
		<path id="_x31_82623015" fill="none" stroke="#010101" stroke-width="64" d="M5374.828,1810.661l143.213,101.465
			c-21.135,65.263-42.373,137.985-75.719,189.794c-43.784,34.741-90.005,62.465-138.658,84.755l-0.708-5.729
			c70.552-84.537,62.214-218.324,70.704-353.937C5373.996,1821.585,5374.335,1816.16,5374.828,1810.661z"/>
		<path id="_x31_82623014" fill="none" stroke="#010101" stroke-width="64" d="M5449.546,2096.14
			c-2.384,1.952-4.77,3.903-7.222,5.78c33.342-51.808,54.582-124.531,75.721-189.794l55.403,39.298l9.394,6.211
			c-8.775,8.788-17.321,18.33-25.634,28.775C5523.279,2029.097,5487.363,2065.297,5449.546,2096.14z"/>
		<path id="_x31_82622962" fill="none" stroke="#010101" stroke-width="64" d="M8687.055,4345.777l3.755,1.971
			c-45.31,88.619-87.689,178.676-131.498,268.352c4.74-19.801,3.564-39.774-8.907-58.885
			c-23.733-36.176-70.496-46.435-106.237-65.318c-9.839-5.231-19.898-10.241-30.107-15.025l1.843-3.91
			c25.712-64.265,60.918-129.03,99.651-192.876L8687.055,4345.777z"/>
		<path id="_x31_82622961" fill="none" stroke="#010101" stroke-width="64" d="M8379.089,4227.775l136.465,52.307
			c-38.733,63.847-73.941,128.611-99.651,192.879l-1.843,3.907c-45.265-21.327-93.416-38.068-142.494-47.583l1.808-9.563
			C8322.61,4348.53,8345.3,4292.163,8379.089,4227.775z"/>
		<path id="_x31_82622960" fill="none" stroke="#010101" stroke-width="64" d="M8169.432,4420.801
			c-3.67,0.141-7.258,0.353-10.553,0.646l-0.235-2.11l-100.732-23.327c-10.678-7.947-23.44-14.475-37.173-19.944l20.341-2.345
			c68.639-33.752,135.29-120.111,179.715-206.619l158.295,60.671c-33.789,64.391-56.479,120.758-105.716,191.953l-1.808,9.562
			C8237.692,4422.769,8203.397,4419.64,8169.432,4420.801z"/>
		<path id="_x31_82622959" fill="none" stroke="#010101" stroke-width="64" d="M7909.396,4331.754
			c25.417,7.544,68.782-22.451,90.26-34.134c26.328-14.453,58.343-28.287,78.1-51.808c25.029-29.907,22.739-72.037,22.728-109.038
			c0.04-5.276,0.084-10.472,0.124-15.749l120.187,46.073c-44.425,86.511-111.076,172.87-179.715,206.618l-20.341,2.345
			c-39.54-15.658-87.026-21.998-116.459-25.04c2.705-10.539,5.256-21.005,7.883-31.547
			C7911.213,4323.543,7910.268,4327.685,7909.396,4331.754z"/>
		<path id="_x31_82622916" fill="none" stroke="#010101" stroke-width="64" d="M8550.404,4557.215
			c-23.733-36.176-70.496-46.435-106.237-65.318c-9.839-5.236-19.898-10.241-30.107-15.025c-2.392-1.125-4.8-2.234-7.208-3.337
			c-43.154-19.736-88.805-35.237-135.286-44.246c-10.71-2.06-21.456-3.78-32.229-5.136c-23.294-2.933-46.675-4.147-69.904-3.352
			c-3.67,0.141-7.258,0.353-10.553,0.645c-38.591,3.71-55.249,20.611-56.912,64.238c-2.551,69.396-25.636,145.879-59.229,206.049
			c-17.386,31.289-33.989,68.008-62.742,89.009c-26.743,19.578-53.037,38.776-79.339,57.304
			c-77.405,54.444-154.779,102.862-242.567,137.455c-0.9,0.372-1.792,0.673-2.765,1.046c-4.853,1.942-50.1,18.063-64.494,25.776
			c0,0,0,0-0.076,0l-1.729-1.494c-16.727,40.632-35.714,81.651-71.965,127.195l-6.193,8.766
			c-17.372,21.793-30.78,43.678-43.214,65.262c-23.76,41.216-43.856,81.539-80.963,118.94
			c-38.442,38.679-74.012,82.642-109.593,123.966c-1.264,1.43-2.897,3.454-4.902,5.861c-18.931,23.82-68.421,90.425-86.636,109.351
			c-20.125,20.938-22.878,61.99-23.079,92.237c-6.01,29.142-2.402,62.506-6.116,91.213c-5.813,44.991-15.287,74.699-56.371,78.543
			c-9.383-1.601-18.465-2.894-25.414-3.396c-44.164-3.216-88.522-1.682-132.73-4.228c-26.448-1.522-51.211-11.177-77.98-4.808
			c-20.992,5-34.247,16.795-42.751,32.081l-5.645,3.139c-6.667,41.453-12.97,84.711-14.391,127.758
			c-1.457,44.282,2.26,88.342,16.09,129.973c11.728,35.336,31.307,90.434,64.995,111.004c7.792,4.75,16.042,7.72,24.57,9.379
			c37.152-4.844,80.05-10.676,115.334-15.34c35.599-4.705,71.242-9.14,106.757-14.389c7.265-1.071,16.541-1.869,25.738-2.873
			c2.888,0.125,5.96-0.325,9.084-1.092c5.726-0.771,11.142-1.691,15.681-2.901c1.1-0.295,1.802-1.503,2.175-3.45
			c2.788-1.089,5.387-2.038,7.672-2.622c14.537-3.685,31.55-3.285,47.109-5.557l-0.156,0.157c0.774-0.162,1.545-0.332,2.319-0.491
			c2.958-0.486,5.854-1.082,8.665-1.834c15.03-3.234,29.995-6.732,44.879-10.587c27.746-7.185,55.204-15.564,82.244-25.534
			c112.808-41.626,220.666-64.444,319.77-137.094c95.333-69.892,175.104-159.225,243.48-255.505
			c179.364-252.527,313.53-543.864,459.84-816.06c38.332-71.278,76.879-142.554,113.778-214.987
			c6.901-13.539,43.584-86.039,50.942-100.799l-2.747,3.992C8563.727,4597.646,8563.321,4577.011,8550.404,4557.215z"/>
		<path id="_x31_82622958" fill="none" stroke="#010101" stroke-width="64" d="M8550.404,4557.215
			c-23.733-36.176-70.496-46.435-106.237-65.318c-9.839-5.236-19.898-10.241-30.107-15.025c-2.392-1.125-4.8-2.234-7.208-3.337
			c6.428,43.038-25.585,133.76-36.981,168.213c-18.516,55.961-43.512,109.496-69.766,162.065
			c-45.965,92.044-138.85,157.44-207.377,233.23c-70.999,78.496-81.667,194.877-147.238,274.672
			c-35.593,43.312-63.934,82.892-84.988,136.511c-27.41,69.814-60.081,136.668-103.298,197.968
			c-43.987,62.406-115.002,107.902-173.738,155.285c-39.404,31.778-85.384,54.717-122.041,88.61
			c-36.263,33.531-92.218,57.262-139.334,70.553c-10.663,3.006-117.577,32.038-149.578,36.278
			c1.999,18.236,4.502,36.315,7.428,54.03c5.059,30.31,17.65,126.733,56.918,123.323l-0.721,0.724
			c18.73-3.858,37.361-8.118,55.865-12.912c27.749-7.186,55.204-15.564,82.245-25.534c112.807-41.626,220.666-64.446,319.77-137.097
			c95.332-69.889,175.102-159.225,243.479-255.503c179.366-252.526,313.533-543.865,459.84-816.062
			c38.328-71.277,76.879-142.55,113.778-214.983c6.901-13.539,43.588-86.041,50.944-100.799l-2.749,3.99
			C8563.727,4597.646,8563.321,4577.011,8550.404,4557.215z"/>
		<path id="_x31_82622957" fill="none" stroke="#010101" stroke-width="64" d="M7461.42,5890.089
			c36.657-33.894,82.637-56.832,122.042-88.607c58.737-47.384,129.75-92.879,173.739-155.288
			c43.217-61.3,75.888-128.15,103.298-197.968c21.055-53.619,49.395-93.198,84.99-136.511
			c65.569-79.795,76.236-196.176,147.234-274.672c68.531-75.79,161.414-141.187,207.381-233.23
			c26.254-52.569,51.246-106.104,69.764-162.065c11.398-34.453,43.407-125.175,36.983-168.213
			c-43.158-19.736-88.805-35.237-135.29-44.244c-10.706-2.062-21.456-3.782-32.226-5.138c-5.962,2.881-10.989,6.432-14.752,10.698
			c-33.279,37.727-21.316,108.634-37.562,153.083c-17.062,46.672-21.202,96.552-35.121,144.112
			c-13.938,47.596-39.623,61.682-69.779,94.927c-33.019,36.413-46.502,89.071-83.702,121.845
			c-28.615,25.2-69.406,34.046-97.643,61.369c-49.951,48.34-89.672,120.315-131.529,177.592
			c-19.225,26.294-39.685,52.138-61.255,77.047c-49.997,57.761-80.103,141.184-135.198,192.441
			c-64.894,60.375-120.891,110.874-176.95,177.453c-24.483,29.071-52.259,55.205-76.512,84.376
			c-20.671,24.855-36.306,58.037-60.996,79.021c-22.78,19.357-58.727,29.155-89.988,34.442c0.02,12.969-0.205,26.694-0.769,41.56
			c-1.502,40.181,0.445,81.889,4.93,122.803c31.999-4.241,138.913-33.274,149.576-36.283
			C7369.202,5947.351,7425.157,5923.62,7461.42,5890.089z"/>
		<path id="_x31_82622956" fill="none" stroke="#010101" stroke-width="64" d="M7319.333,5719.096
			c24.253-29.171,52.03-55.302,76.512-84.376c56.062-66.574,112.059-117.074,176.952-177.453
			c55.094-51.258,85.199-134.681,135.198-192.441c21.572-24.908,42.03-50.752,61.255-77.047
			c41.859-57.276,81.578-129.248,131.531-177.592c28.234-27.323,69.025-36.169,97.643-61.369
			c37.198-32.769,50.68-85.432,83.698-121.845c30.156-33.242,55.845-47.325,69.779-94.923
			c13.923-47.564,18.059-97.44,35.121-144.114c16.249-44.451,4.282-115.358,37.563-153.085c3.761-4.267,8.788-7.815,14.752-10.697
			c-23.296-2.934-46.677-4.148-69.906-3.353c-3.67,0.141-7.258,0.353-10.553,0.646c-38.591,3.708-55.249,20.609-56.912,64.236
			c-2.551,69.396-25.636,145.879-59.229,206.049c-17.386,31.289-33.989,68.01-62.742,89.01
			c-26.743,19.578-53.037,38.775-79.339,57.303c-77.405,54.447-154.779,102.862-242.567,137.456c-0.9,0.372-1.792,0.672-2.765,1.045
			c-4.853,1.942-50.1,18.063-64.494,25.776c0,0,0,0-0.076,0l-1.729-1.494c-16.727,40.635-35.714,81.657-71.965,127.195l-6.193,8.766
			c-17.372,21.793-30.78,43.678-43.214,65.262c-23.76,41.216-43.856,81.539-80.963,118.94
			c-38.442,38.679-74.012,82.642-109.593,123.966c-1.264,1.43-2.897,3.454-4.902,5.861c-18.931,23.82-68.421,90.425-86.636,109.351
			c-22.303,23.207-23.27,71.132-23.073,101.651c0.422,66.206,5.775,110.261,5.866,170.738c31.263-5.287,67.208-15.085,89.988-34.442
			C7283.029,5777.133,7298.668,5743.948,7319.333,5719.096z"/>
		<path id="_x31_82622955" fill="none" stroke="#010101" stroke-width="64" d="M7157.799,6060.609
			c-3.742-29.526-4.539-59.761-5.251-90.045c-13.104,4.271-25,11.228-38.187,15.825c-50.974,17.779-106.095,18.677-159.461,13.014
			c-27.195-2.884-54.201-7.494-81.061-12.732c-13.188-2.571-26.347-5.311-39.501-8.078c-10.488-2.207-22.729-3.056-33.257-5.892
			c-1.457,44.284,2.258,88.341,16.088,129.973c11.729,35.338,31.305,90.433,64.997,111.006c7.79,4.748,16.04,7.722,24.568,9.378
			c37.154-4.84,80.048-10.678,115.336-15.342c35.597-4.701,71.238-9.139,106.757-14.387c14.344-2.121,36.536-3.146,50.501-6.867
			C7190.456,6183.499,7161.276,6087.997,7157.799,6060.609z"/>
		<path id="_x31_82622954" fill="none" stroke="#010101" stroke-width="64" d="M6873.84,5986.676
			c26.859,5.237,53.865,9.847,81.061,12.73c53.366,5.664,108.491,4.766,159.461-13.013c13.187-4.599,25.082-11.554,38.188-15.825
			c-0.553-23.442-1.056-46.914-2.838-70.112c-1.754-22.702,14.96-50.136-2.346-67.793c-1.562-1.587-49.317-12.192-72.787-13.9
			c-44.166-3.217-88.522-1.681-132.73-4.229c-26.45-1.522-51.211-11.176-77.98-4.806c-20.994,4.999-34.251,16.795-42.751,32.08
			l-5.646,3.137c-6.666,41.455-12.969,84.713-14.39,127.761c10.527,2.836,22.767,3.685,33.257,5.892
			C6847.493,5981.36,6860.651,5984.1,6873.84,5986.676z"/>
		<path id="_x31_82622953" fill="none" stroke="#010101" stroke-width="64" d="M4916.628,2231.76
			c24.279-15.271,81.075-19.57,91.035-2.203c20.367,35.489-53.379,40.008-87.058,39.893
			C4891.414,2269.353,4896.014,2244.712,4916.628,2231.76z"/>
		<path id="_x31_82622952" fill="none" stroke="#010101" stroke-width="64" d="M7909.408,4331.782
			c11.147-51.162,24.394-103.146,39.435-153.299c29.823-99.437,7.603-195.941,0.128-297.615
			c-4.29-58.394-8.077-117.317-16.369-175.256c-3.244-22.647-14.456-44.909-15.744-67.295
			c54.721,18.073,103.306,98.538,124.352,148.558c24.595,58.475,41.4,119.518,53.929,181.559
			c11.266,55.838,5.319,111.614,5.357,168.36c0.024,36.976,2.288,79.08-22.756,109.004c-19.718,23.55-51.725,37.384-78.111,51.806
			C7978.185,4309.324,7934.833,4339.289,7909.408,4331.782z"/>
		<path id="_x31_82622951" fill="none" stroke="#010101" stroke-width="64" d="M7627.267,4904.383
			c9.991-17.576,22.529-34.54,32.702-52.348c21.143-36.991,43.565-73.218,65.992-109.432
			c42.974-69.417,86.128-139.491,119.748-213.93c26.003-57.583,36.564-119.35,58.47-177.638
			c52.307,5.305,161.956,21.396,182.138,81.249c7.475,22.176,1.661,45.848-3.926,67.574
			c-17.838,69.387-31.853,150.534-71.938,211.004c-34.847,52.575-86.816,92.222-138.531,126.8
			c-28.396,18.983-57.771,36.717-87.585,53.379c-43.975,24.568-90.541,37.489-135.638,59.918
			c-6.759,3.361-42.961,13.804-45.145,18.852c9.093-21.091,12.12-44.928,23.45-64.963
			C7627.086,4904.7,7627.175,4904.546,7627.267,4904.383z"/>
		<path id="_x31_82622950" fill="none" stroke="#010101" stroke-width="64" d="M7255.494,5437.649
			c-33.547,43.366-68.379,85.071-106.06,126.163c-25.642,27.943-45.269,71.888-82.01,84.347
			c-16.353,5.518-96.579,5.623-97.222-24.899c-0.891-45.745,109.134-148.986,123.472-165.814
			c63.281-74.689,123.886-159.339,199.595-222.151c42.132-35.05,79.587-64.99,124.186-77.498c0,0,54.867-9.838,37.578,25.297
			c-1.62,3.312-4.067,7.372-7.181,12.108c-30.54,45.864-126.17,153.148-153.619,190.811
			C7281.471,5403.525,7268.56,5420.737,7255.494,5437.649z"/>
		<path id="_x31_82622949" fill="none" stroke="#010101" stroke-width="64" d="M7126.65,5711.972
			c13.369,21.562,16.038,44.024,4.162,66.578c-18.502,35.146-48.496,26.71-82.088,24.01c-44.072-3.535-88.444-5.502-132.596-7.562
			c-39.159-1.844-45.583,2.873-34.947-43.671c15.779-69.016,68.07-67.851,150.51-64.798
			C7069.126,5687.915,7118.206,5698.367,7126.65,5711.972z"/>
		<path id="_x31_82622929" fill="none" stroke="#010101" stroke-width="64" d="M5942.75,3573.561
			c-29.118-63.991-119.49-29.095-155.944,5.633c-16.91,16.112-35.998,37.925-46.176,59.183
			c-0.411,0.836-51.252-35.188-58.719-26.186c22.317-21.36,75.739-67.423,93.856-89.867c37.1-45.944,44.599-92.495,59.404-153.386
			c8.438-34.692,6.938-71.285,12.56-106.546c18.731-117.762-27.343-243.947-35.941-361.453
			c-11.136-152.201,5.237-276.246,64.573-416.666c30.833-72.939,61.408-147.042,97.722-217.386
			c10.229-19.792,47.292-59.285,49.274-81.428c1.81-20.053-9.819-33.027-28.682-41.051c-53.752-22.885-166.198-5.585-193.425,2.448
			c36.066-10.64,68.463-30.256,116.491-37.366c69.364-10.263,140.234-4.654,210.35-3.106
			c118.484,2.621,240.319,32.983,349.93,78.459c100.745,41.798,199.367,83.848,300.252,125.07
			c324.755,132.691,576.948,369.03,779.929,652.614c70.752,98.826,118.496,207.513,164.004,319.451
			c122.723,301.848,225.322,632.824,162.654,960.61c-21.103,110.417-46.171,233.727-105.567,330.469
			c-45.021,73.337-97.801,139.73-145.173,210.805c-26.927,40.389-64.091,98.321-100.829,129.661
			c-79.053,67.457-189.325,85.253-291.814,94.97c-158.528,15.049-324.771-56.475-461.421-131.913
			c-61.654-34.028-116.799-92.972-157.507-149.739c-26.693-37.234-46.949-77.641-63.197-120.443
			c-36.193-95.332-60.31-191.597-91.485-288.33c-49.11-152.334-131.397-328.923-288.168-396.639
			c-40.365-53.792-129.056-183.371-185.224-205.572c2.015-7.005-23.308-22.618-39.996-26.633
			C5966.104,3626.287,5945.754,3580.148,5942.75,3573.561z"/>
		<path id="_x31_82622931" fill="none" stroke="#010101" stroke-width="64" d="M7176.23,5091.711
			c-10.716,21.067-49.512,46.282-142.695,102.483c-92.792,55.96-161.723,107.1-193.962,97.306
			c-108.722-33.022-158.055-180.62-187.269-260.535c-17.709-48.486-64.227-159.161-15.773-202.961
			c23.649-21.215,54.421,4.308,72.21,20.689c81.617,75.163,298.903,163.123,355.573,170.322
			c39.141,4.974,101.807,16.271,113.607,28.112C7188.732,5057.986,7184.659,5075.174,7176.23,5091.711z"/>
		<path id="_x31_82622935" fill="none" stroke="#010101" stroke-width="64" d="M5140.724,2901.29
			c85.45,60.718,183.833,107.345,283.185,139.211c35.28,11.304,125.677,48.071,159.66,15.556
			c28.718-27.47,36.976-162.951,32.895-198.336c-16.784-145.639-161.438-328.405-274.406-415.721
			c-109.239-84.431-319.271-8.823-441.515,5.1l1.259,197.386C4998.506,2715.517,5040.231,2829.9,5140.724,2901.29z"/>
		<path id="_x31_82622936" fill="none" stroke="#010101" stroke-width="64" d="M5090.221,3042.985
			c28.909,18.308,57.079,40.123,82.705,62.528c28.856,25.217,54.052,48.275,79.044,73.114
			c43.116,42.851,80.395,89.442,119.397,141.075c7.906,10.467,15.257,21.325,22.294,32.134
			c12.315,17.869,24.315,36.145,36.037,54.849c33.455,46.258,69.524,71.145,138.28,18.251
			c62.356-47.968,89.329-139.806,65.851-216.123c-21.653-70.408-82.564-90.43-132.935-113.49
			c-92.061-42.147-159.909-54.916-258.832-100.097c-38.781-17.717-79.352-44.008-113.981-74.492
			c-34.828-30.661-47.129-58.1-78.968-60.551c-30.994-2.388,1.638,39.832-19.548,63.982
			c-24.803,28.265-102.344,39.878-125.666,48.557c33.741,10.044,106.104,27.189,149.988,49.493
			C5066.044,3028.382,5078.19,3035.382,5090.221,3042.985z"/>
		<path id="_x31_82622938" fill="none" stroke="#010101" stroke-width="64" d="M7368.251,5041.435
			c-2.045-2.056,27.006-24.151,28.768-25.496c17.292-13.38,44.22-33.655,60.176-45.474c-23.423,10.037-51.741,27.362-79.108,33.544
			c-33.285,7.521-69.684,11.097-96.748,29.595c-42.145,28.795-68.429,75.888-109.799,105.918
			c-25.542,18.535-120.453,68.576-149.03,86.045c-37.835,23.126-80.782,46.208-121.771,73.684
			c-53.368,35.773-110.864,91.69-140.382,149.336c-19.695,38.453-1.819,67.973-1.551,107.179
			c0.203,31.628-2.326,66.381-13.025,96.648c-24.58,69.448-76.743,122.519-127.386,173.697
			c-59.969,60.601-119.679,131.144-161.537,207.162c-24.012,43.624-46.104,109.009-61.156,146.156
			c174.592,80.985,356.085,62.524,487.147,45.649c-11.085-1.224-15.584-4.953-25.529-11.025
			c-33.687-20.563-50.874-76.119-62.6-111.45c-17.402-52.374-12.913-98.288-9.566-154.418c1.997-33.673,5.389-88.467,16.694-120.516
			c15.57-44.122,32.675-91.717,57.825-124.139c27.217-35.08,55.375-79.015,103.909-135.293
			c50.764-58.861,85.049-88.524,148.628-164.027c56.946-67.624,88.997-99.809,147.391-161.515
			c32.117-33.942,105.771-79.063,140.287-102.508c42.35-9.896,58.506,23.347,61.881-18.502c1.933-24.03,36.047-52.612,49.136-71.537
			c13.249-19.168,72.754-95.186,34.915-104.027C7491.084,4933.304,7443.091,5082.797,7368.251,5041.435z"/>
		<path id="_x31_82622939" fill="none" stroke="#010101" stroke-width="64" d="M7257.142,5247.713
			c36.504-37.722-97.171-78.93-110.342-89.544c-4.33-3.479-144.726,75.643-237.359,136.09
			c-41.633,27.165-69.597,51.655-78.188,61.274c-29.107,32.561-51.364,54.936-70.899,93.057
			c-19.693,38.451-1.817,67.969-1.551,107.179c0.204,31.626-2.326,66.381-13.025,96.646
			c-24.58,69.449-76.741,122.52-127.384,173.699c-59.971,60.597-119.679,131.145-161.537,207.158
			c-24.012,43.624-46.104,109.011-61.156,146.159c174.592,80.984,356.083,62.521,487.147,45.648
			c-11.085-1.222-15.584-4.954-25.529-11.024c-33.688-20.565-50.872-76.119-62.602-111.453
			c-28.72-86.458-8.384-182.229,5.912-269.915c4.34-26.632,31.737-94.429,52.858-121.646
			c27.215-35.076,59.383-86.292,90.276-120.263c44.163-48.552,75.972-87.069,97.854-107.68
			C7050.289,5474.935,7196.631,5310.268,7257.142,5247.713z"/>
		<path id="_x31_82622940" fill="none" stroke="#010101" stroke-width="64" d="M7437.394,5107.019
			c25.209-12.513,49.165-33.573,66.493-51.788c15.925-16.743,38.524-37.665,24.74-63.484c-21-39.358-52.759,0.928-68.012,17.496
			c-12.487,13.572-28.427,23.76-44.282,32.344c-14.921,8.07-37.519,15.223-40.463,33.606
			C7368.206,5123.121,7428.061,5111.653,7437.394,5107.019z"/>
		<path id="_x31_82622941" fill="none" stroke="#010101" stroke-width="64" d="M7258.717,5158.721
			c34.517-9.584,71.8-32.299,57.399-65.21c-17.402-39.767-73.784-5.787-92.383,13.371c-13.493,13.904-39.926,54.023-2.362,56.794
			C7230.848,5164.377,7244.551,5162.66,7258.717,5158.721z"/>
		<path id="_x31_82622930" fill="none" stroke="#010101" stroke-width="64" d="M6132.39,4045.879
			c-41.351,138.828-54.968,336.873,42.545,456.669c39.365,47.702,1.374,54.491,33.133,116.238
			c40.706,79.116,110.931,113.948,194.428,128.977c39.496,7.112,91.452,9.938,130.998,1.739
			c68.722-14.262,30.62-55.896,11.037-107.4c-36.195-95.339-60.312-191.611-91.496-288.334
			c-49.104-152.339-135.08-333.471-288.164-396.632C6152.078,3985.495,6132.39,4045.879,6132.39,4045.879z"/>
		<path id="_x31_82622934" fill="none" stroke="#010101" stroke-width="64" d="M5839.055,4920.488
			c-32.115,41.163-56.783,91.407-46.977,123.401c11.941,38.869,58.881,52.447,87.159,75.872
			c39.021,32.32,76.729,66.657,117.712,97.688c98.105,74.244,200.964,150.764,322.96,177.872
			c70.771,15.727,145.619-0.029,217.636-2.8c58.249-2.243,114.651,23.146,172.876,18.913c28.529-2.067,112.171-38.375,98.573-79.616
			c-6.708-20.361-64.578-80.404-75.157-95.332c-67.929-95.911-157.119-255.035-145.93-377.282
			c3.074-33.584,22.657-67.295-14.679-84.453c-31.719-14.552-108.025,0.674-144.219-1.469
			c-86.694-5.12-184.431-56.185-220.843-112.006c-7.356-11.288-44.545-66.991-29.081-85.169
			c-33.584,41.267-84.488,16.357-121.789-33.781c6.523,175.077-24.313,258.889-145.461,312.729
			C5890.853,4864.383,5862.906,4889.926,5839.055,4920.488z"/>
		<path id="_x31_82622932" fill="none" stroke="#010101" stroke-width="64" d="M6376.024,5465.593
			c-59.214,44.113-105.043,142.598-94.692,216.505c11.091,79.264,79.504,125.782,145.428,159.776
			c96.74,49.859,179.429-26.999,241.877-98.524c76.815-87.952,111.67-255.57-20.496-308.89
			C6563.642,5400.366,6449.015,5411.226,6376.024,5465.593z"/>
		<path id="_x31_82622933" fill="none" stroke="#010101" stroke-width="64" d="M6005.736,6042.09
			c3.829-56.988-3.645-135.904,5.231-206.553c7.147-56.89,21.095-142.104,92.662-139.122c33.65,1.401,68.341,10.77,98.874,24.968
			c57.4,26.671,105.841,65.037,156.749,101.972c24.523,17.796,53.057,30.889,75.996,50.757
			c15.312,13.266,42.883,53.492,33.927,75.81c-14.945,37.239-38.637,69.85-55.36,106.43c-8.924,19.537-17.826,39.761-27.197,59.082
			c-8.104,16.693-16.202,36.924-21.616,49.789c-31.008-15.146-100.888-44.832-158.979-68.152
			C6144.446,6072.364,6055.488,6047.75,6005.736,6042.09z"/>
		<path id="_x31_82622937" fill="none" stroke="#010101" stroke-width="64" d="M5488.9,3559.986
			c14.896-11.254,9.212-34.882-10.236-70.11c-15.827-28.682-32.14-56.329-48.966-83.191c-11.89-16.435-23.459-35.537-36.037-54.849
			c-78.103-113.364-169.065-210.444-284.95-296.276c-3.805-2.817-7.648-5.501-11.495-8.088c-2.313-1.518-4.642-3.021-6.981-4.498
			c-1.416-0.896-2.829-1.83-4.25-2.7c-2.306-1.428-4.689-2.771-7.037-4.156c-56.002-32.503-117.826-45.628-175.046-63.396
			l3.103,485.111l0.008,0.952c89.816,1.547,162.082,33.086,243.663,68.647c32.149,14.02,72.264,51.206,117.688,69.479
			c7.248,2.917,14.384,5.512,21.432,7.774l0,0C5354.872,3625.561,5412.846,3617.437,5488.9,3559.986z"/>
		<path id="_x31_82622947" fill="none" stroke="#010101" stroke-width="64" d="M5985.22,3959.48
			c1.144-40.94,1.826-81.885,1.832-122.873c-0.016-20.02,3.721-41.523,1.95-61.363c-1.456-16.175,3.331-34.339-11.099-45.2
			c-8.534-6.423-18.781-13.972-28.83-16.392c0.439,17.785-6.821,36.567-11.519,53.364c-5.09,18.196-11.726,36.689-18.089,54.571
			c0.598,48.773-8.688,98.078-14.286,146.281c-6.215,53.522-12.978,107.259-15.381,161.161
			c-3.199,71.936-0.955,144.846-2.389,210.99c-1.448,66.565,11.804,90.468,19.636,145.127c3.991,27.849,5.952,55.93,10.415,83.717
			c3.841,23.924,14.013,47.622,17.815,71.388c26.374,26.313,53.624,51.916,86.683,65.907c22.627-63.353,20.061-129.32,2.116-198.901
			c-6.957-26.987-7.398-48.143-19.942-117.431c-31.802-102.635-27.181-214.537-22.818-320.159
			C5982.842,4032.963,5984.214,3996.225,5985.22,3959.48z"/>
		<path id="_x31_82622943" fill="none" stroke="#010101" stroke-width="64" d="M5692.68,5058.29
			c-16.407,7.591-31.983,16.886-46.664,27.428c-28.907,20.758-54.117,46.238-77.287,73.2
			c-46.975,54.646-85.7,116.167-135.025,168.804c-18.323,19.55-38.599,40.65-61.146,55.889
			c50.075,45.168,101.576,87.988,164.728,116.763c41.625,18.956,79.04-6.981,87.201-49.125
			c21.49-110.976,29.802-217.358,74.98-322.766c11.385-26.557,24.256-55.915,38.731-85.742
			C5723.726,5041.879,5704.149,5052.981,5692.68,5058.29z"/>
		<path id="_x31_82622948" fill="none" stroke="#010101" stroke-width="64" d="M5328.072,5163.977
			c50.928-81.399,84.505-154.708,119.636-243.318c52.572-132.64,102.349-253.723,132.192-393.289
			c36.869-172.355,85.283-358.954,205.808-490.983c-7.226-4.458-6.676-17.716-3.8-34.842c7.296-43.485,32.701-81.801,32.228-127.297
			c-0.702-67.712-81.125-118.171-87.541-181.465c-3.854,15.654-12.634,26.418-24.738,37.677
			c-23.623,21.972-55.327,37.773-84.549,50.614c-27.643,12.142-69.962,30.18-99.999,15.159c-10.9-5.455-17.205-15.982-19.062-27.636
			c-14.581,25.445-25.549,53.256-33.247,79.274c-25.634,86.606-49.148,174.159-64.46,263.379
			c-14.374,83.719-9.076,165.281-16.412,248.837c-6.233,70.982-14.096,141.87-28.472,211.53
			c-39.985,193.751-215.697,334.999-215.479,543.09c0.084,70.791,37.413,107.572,88.133,145.881
			C5276.169,5227.221,5293.94,5218.554,5328.072,5163.977z"/>
		<path id="_x31_82622944" fill="none" stroke="#010101" stroke-width="64" d="M5745.698,4735.722
			c-24.571-40.65-61.419-74.365-89.037-113.062c-15.848-22.205-29.25-45.861-44.672-68.327c-10.049-14.639-21.816-31.63-27.167-49.7
			c-1.667,7.602-3.305,15.184-4.922,22.737c-29.846,139.564-79.62,260.649-132.192,393.289
			c-35.134,88.61-68.708,161.919-119.636,243.318c-34.132,54.573-51.899,63.243-99.762,96.611c3.945,2.983,7.975,5.975,12.074,8.99
			c47.311,34.817,89.215,75.286,132.166,114.027c22.55-15.238,42.829-36.338,61.148-55.89
			c49.329-52.637,88.055-114.156,135.027-168.803c23.172-26.964,48.38-52.439,77.285-73.198
			c14.685-10.547,30.265-19.841,46.668-27.429c11.47-5.309,31.046-16.41,45.514-15.551c27.707-57.101,61.295-115.92,101.57-160.141
			c-16.827-23.13-31.084-49.873-47.031-73.641C5776.568,4784.856,5760.711,4760.567,5745.698,4735.722z"/>
		<path id="_x31_82622946" fill="none" stroke="#010101" stroke-width="64" d="M5907.048,4485.151
			c-7.83-54.659-21.084-78.565-19.636-145.128c1.432-66.147-0.812-139.056,2.389-210.989c2.401-53.906,9.168-107.64,15.381-161.161
			c5.597-48.205,14.882-97.508,14.288-146.285c-0.341,0.956-0.687,1.916-1.021,2.87c-11.815,33.349-20.651,68.114-33.599,100.964
			c-12.403,31.477-43.9,94.564-76.642,108.463c-11.071,4.71-18.183,5.186-22.5,2.505
			c-104.469,114.442-154.759,269.883-190.316,421.511c11.509-6.029,28.439-5.618,41.052-7.899
			c31.834-5.766,53.944,13.402,80.98,24.851c21.189,8.968,41.029,20.686,60.104,33.593c34.868,23.589,66.275,51.497,99.469,77.287
			c20.237,15.727,39.026,35.316,58.284,54.525c-3.805-23.768-13.973-47.461-17.815-71.385
			C5913.004,4541.077,5911.038,4512.998,5907.048,4485.151z"/>
		<path id="_x31_82622945" fill="none" stroke="#010101" stroke-width="64" d="M5876.994,4585.729
			c-33.191-25.79-64.603-53.7-99.469-77.287c-19.074-12.906-38.914-24.622-60.104-33.594c-27.034-11.444-49.146-30.612-80.98-24.85
			c-12.612,2.284-29.543,1.869-41.05,7.899c-3.666,15.637-7.178,31.228-10.573,46.731c5.354,18.073,17.121,35.064,27.169,49.703
			c15.422,22.466,28.822,46.122,44.67,68.327c27.618,38.697,64.467,72.408,89.037,113.062
			c15.019,24.846,30.872,49.132,47.038,73.232c15.947,23.769,30.205,50.515,47.033,73.641
			c10.647-11.689,21.757-22.377,33.355-31.727c39.845-32.112,86.594-35.276,117.248-81.873
			c13.607-20.675,24.016-41.607,31.596-62.834C5964.766,4681.953,5924.952,4623.002,5876.994,4585.729z"/>
		<path id="_x31_82622942" fill="none" stroke="#010101" stroke-width="64" d="M5517.307,3796.232
			c30.035,15.023,72.354-3.017,99.999-15.159c29.222-12.84,60.928-28.643,84.549-50.614c12.104-11.261,20.884-22.026,24.736-37.677
			c-1.188-11.723,0.162-23.884,5.026-36.68c-37.168-37.313-71.197-18.27-94.927,5.712c-16.598,16.766-54.747,17.531-89.973,46.822
			c-19.269,16.033-35.339,37.037-48.475,59.957C5500.1,3780.252,5506.406,3790.781,5517.307,3796.232z"/>
		<path id="_x31_82622926" fill="none" stroke="#010101" stroke-width="64" d="M4911.607,4177.205
			c44.453,10.188,62.052,106.653,65.67,177.973c0.727,14.357,1.477,28.717,2.095,43.063c1.12,25.811,2.189,51.693,2.121,77.521
			c-0.052,23.038,0.487,46.468-1.628,69.412c9.346-7.822,16.799-15.791,25.963-23.836c31.734-27.841,53.809-67.549,61.293-109.272
			c8.262-46.093,4.337-94.173,6.127-140.883c1.523-39.125,4.818-78.166,7.189-117.25c6.231-102.619,37.091-218.362,158.583-225.473
			c33.654-1.961,79.843,17.353,110.47,30.86c15.896,7.018,30.698,25.129,48.458,17.092c18.73-8.49,26.097-86.307,35.521-114.564
			c8.42-25.294,48.612-100.933,35.695-110.071c-30.779,4.039-75.564-7.97-111.252-17.938
			c-37.048-10.354-75.459-22.103-114.248-18.345c-78.9,7.638-153.289,40.175-228.338,62.305
			c-31.018,9.153-80.373,11.957-106.199,12.225"/>
		<path id="_x31_82622928" fill="none" stroke="#010101" stroke-width="64" d="M4911.607,4177.205
			c44.453,10.188,62.052,106.653,65.67,177.973c1.813,35.853,3.62,71.736,4.105,107.62c0.269,19.893,1.752,53.138-1.105,81.374
			c54.131-40.579,86.95-91.877,89.305-161.036c2.743-80.386,6.249-153.189,10.855-229.203c2.26-37.183,6.41-77.745,19.554-112.657
			c11.859-31.48,34.592-56.083,48.705-86.187c18.078-38.551,21.342-83.443,37.987-122.429c17.161-40.188,59.146-46.6,97.145-57.514
			c12.807-3.682,87.924-12.617,67.582-38.308c-6.622-8.378-22.798-12.642-32.545-14.897c-25.182-5.818-49.47-8.939-75.201-6.451
			c-78.902,7.635-153.291,40.176-228.34,62.304c-31.016,9.153-80.373,11.957-106.199,12.225L4911.607,4177.205z"/>
		<path id="_x31_82622927" fill="none" stroke="#010101" stroke-width="64" d="M5240.674,3802.743
			c-39.177,15.499-64.249,54.153-38.345,80.162c34.771,34.902,101.352,47.691,144.365,54.459
			c33.053,5.197,69.063,10.429,76.367-30.891c4.15-23.529,10.744-43.63,19.217-65.77c6.818-17.791,8.199-31.733-8.564-45.146
			C5388.101,3759.066,5288.241,3783.92,5240.674,3802.743z"/>
		<path id="_x31_82622917" fill="none" stroke="#010101" stroke-width="64" d="M6303.985,5409.623
			c-144.294-36.286-276.475-136.451-377.157-212.739c-40.19-30.439-143.971-140.068-178.639-99.993
			c-62.43,72.166-76.964,298.851-93.579,384.598c-8.166,42.15-90.473,67.936-132.096,48.979
			c-117.326-53.457-197.565-167.738-300.042-243.157c-56.751-41.771-115.211-98.719-115.301-175.013
			c-0.224-208.107,171.084-347.053,211.067-540.81c16.411-79.543,29.671-148.652,33.582-229.155
			c2.38-48.726,1.312-89.984,6.496-138.48c2.597-24.381,8.54-56.285,13.853-80.202c3.923-17.573,6.52-42.129,7.555-60.374
			c-16.204,42.065-52.959,67.874-61.377,114.729c-9.494,52.874,8.222,112.257-4.746,164.215
			c-20.224,81.014-102.266,40.166-130.109-11.7c-7.238-13.468-26.408-51.032-40.969-26.592
			c-10.728,18.017,1.297,50.094,7.479,67.422c7.164,20.041,15.018,35.782,15.74,57.164c0.725,21.537-4.563,47.166-8.773,68.165
			c-2.875,14.391-10.208,34.246-22.469,38.576c-33.462,11.832-42.603-56.663-56.301-61.349
			c-16.523-5.642-28.168,14.017-36.061,25.315c-11.321,16.204-20.679,30.892-36.213,43.141
			c-15.843,12.499-25.435,22.968-28.896,39.716c-1.409,6.831-3.086,13.888-3.778,20.827c-1.116,11.207-4.028,22.093-6.827,32.98
			c-10.684,41.646-21.58,66.172-31.293,106.503c-2.519,10.474-5.899,21.902-6.281,32.74c-0.74,20.973-0.09,41.961,0.099,62.942
			c0.192,19.848-1.507,39.471-0.434,59.278c1.877,34.643,1.909,68.689,1.977,103.396c0.085,43.345-0.546,86.669-0.098,129.993
			c0.521,49.866,2.432,98.154,1.623,149.673c-0.343,21.72,1.15,43.394,1.288,65.091c0.363,56.683,0.287,116.3,1.198,174.425
			c0.239,15.174,0.203,30.345,0.317,45.518c0.198,26.158-1.381,52.688,3.535,78.445c5.85,30.63,12.44,52.246,19.419,74.151
			c7.628,23.928,12.226,48.689,14.473,73.652c2.928,32.524-0.626,65.957-32.28,87.736c-5.616,3.859-11.881,9.473-17.406,12.166
			l2.023,120.585c174.622,0.595,330.004,35.858,499.372,47.364c55.116,3.751,137.097-8.141,187.271,16.773
			c25.755,12.778,36.986,26.942,34.352,46.197c-6.667,5.869-1.17-0.132,11.296-11.014c49.166-42.919,116.913-62.715,180.51-71.436
			c46.305-6.357,92.105-6.473,137.327-1.868l-0.665-103.515c0.019-33.702,1.104-67.701,4.375-101.211
			c4.437-45.386,13.809-102.583,44.025-138.257c25.329-29.896,61.421-35.918,97.271-28.134
			c79.379,17.232,109.648,70.084,138.997-22.13c18.649-58.602,38.641-101.598,60.801-146.739
			C6341.483,5453.479,6351.601,5421.596,6303.985,5409.623z"/>
		<path id="_x31_82622918" fill="none" stroke="#010101" stroke-width="64" d="M5747.372,6060.985
			c-21.978,8.473-45.163,17.912-65.238,32.465c-7.264,5.259-36.345,19.926-37.238,29.917c4.098-46.089-63.697-57.252-94.293-62.97
			c49.887-32.777,103.327-63.921,165.485-60.444c19.307,1.077,66.011,7.121,74.433,30.167
			C5798.489,6051.94,5759.9,6056.16,5747.372,6060.985z"/>
		<path id="_x31_82622924" fill="none" stroke="#010101" stroke-width="64" d="M5006.99,4542.037l-0.146-1.486
			c4.714-4.885,10.636-9.877,18.022-17.355c11.91-12.05,33.825-59.479,52.849-48.778c13.023,7.33,13.307,23.322,19.223,35.33
			c6.096,12.41,17.486,29.704,33.47,28.021c12.746-1.343,19.069-19.847,27.297-27.759c15.648-15.044,37.225-13.348,57.611-11.081
			c30.925,3.461,53.077,15.189,64.476,46.68c36.905,101.94-55.595,196.625-138.915,231.971
			c-42.445,18.011-86.726,54.125-131.347,65.841c-13.139,3.447-35.754,3.755-49.481,3.576c-3.184-23.04-7.265-46.098-0.562-68.764
			c7.322-24.794,25.648-46.32,37.445-69.042c13.602-26.207,19.586-55.027,19.208-84.619
			C5015.782,4596.716,5009.226,4569.578,5006.99,4542.037"/>
		<path id="_x31_82622925" fill="none" stroke="#010101" stroke-width="64" d="M5006.99,4542.037l-1.065,0.329
			c-0.863,0.687-1.706,1.36-2.536,2.031c-11.198,9.089-18.994,17.317-23.427,28.035l-0.419,0.072
			c-4.656,12.932-5.756,33.599-8.079,46.94c-2.395,13.76-8.526,26.922-12.271,40.324c-13.122,46.887-31.447,90.291-31.118,140.435
			c0.011,1.85,0.187,20.841,0.476,51.886l31.646-4.038l-31.646,3.982l31.646-3.982c-0.049-0.354-0.093-0.703-0.143-1.056
			c-3.185-23.04-7.267-46.098-0.564-68.766c7.322-24.795,25.648-46.318,37.445-69.04c13.602-26.207,19.588-55.027,19.208-84.619
			C5015.782,4596.716,5009.226,4569.578,5006.99,4542.037z"/>
		<path id="_x31_82622922" fill="none" stroke="#010101" stroke-width="64" d="M4969.12,4846.93
			c0.887,6.477,1.756,13.389,2.235,20.388c1.381,20.123-2.684,38.809-6.612,56.878c-2.998,13.79-5.832,26.818-6.361,40.282
			c-0.679,17.323-0.365,35.791-0.066,53.651c0.165,9.774,0.337,19.881,0.342,29.661c0.052,79.272,10.657,158.549,21.027,225.647
			c1.729,11.195,3.125,22.44,4.257,33.707l2.127,0.83c-1.678,32.873,35.625,17.917,49.042,5.558l0.114,0.118
			c15.821-14.241,35.649-23.061,55.723-24.134c7.172-0.382,14.33,0.218,21.277,1.786c11.979,2.706,23.808,7.918,35.167,15.498
			l6.323,4.217l0.957,1.003c24.852,19.099,47.938,50.003,70.352,94.125c13.443,26.459,31.862,52.743,49.676,78.16
			c15.578,22.228,31.687,45.211,44.74,68.622c15.572,27.915,23.844,66.855,22.695,106.83c-1.168,40.671-11.448,77.65-28.948,104.122
			c-8.679,13.127-21.019,25.741-35.404,36.305l0.293,0.336l-10.272,6.457c-21.367,13.435-44.041,21.146-65.567,22.296
			c-0.002,0-0.002,0-0.004,0.001c-18.943,1.013-36.229-3.159-51.065-12.188l2.105,2.515c-26.509-1.901-69.543-9.78-89.499,14.214
			c-21.34,25.666-18.123,107.381-15.321,122.084c10.32,54.158,104.937,79.988,165.499,80.718
			c25.451,0.302,70.595,11.231,96.872,12.162c37.11,1.312,94.087,9.295,129.63,11.473c47.037,2.879,61.474-6.184,109.434,2.521
			l0.721-2.371c49.889-32.776,103.329-63.921,165.483-60.442c9.656,0.539,26.159,2.319,41.3,6.843l1.527,0.32
			c-22.215-45.528-61.634-85.637-90.316-123.959c-74.048-98.957-128.573-221.354-109.257-346.465l0.987,0.018
			c-13.979,0.503-27.213-1.42-37.811-6.247c-117.328-53.457-197.566-167.739-300.042-243.155
			c-56.751-41.773-115.211-98.721-115.301-175.02c-0.146-135.838,72.797-242.21,134.592-353.599l-2.791,7.027
			c3.188-35.6-28.354-25.37-57.467-10.554l0.026,0.766c-13.398,8.628-27.148,15.914-40.654,21.648
			c-42.443,18.01-86.724,54.124-131.343,65.839c-10.299,2.704-26.41,3.477-39.506,3.598L4969.12,4846.93z"/>
		<path id="_x31_82622923" fill="none" stroke="#010101" stroke-width="64" d="M4935.772,5616.559
			c0.571,60.018,33.403,116.1,37.182,176.028c1.959,31.067-4.918,53.921-24.06,77.312c-14.782,18.079-26.339,20.441-26.339,20.441
			s53.605,9.067,70.597-8.098c44.684-45.142,41.954-110.303,28.619-168.303c-6.727-29.301-20.964-54.657-30.797-82.735
			c-12.088-34.567-4.914-65.255-3.06-100.462c1.382-26.311-6.974-50.087-7.357-75.816c-0.915-60.126-0.556-120.527-9.769-180.183
			c-11.631-75.249-21.082-150.874-21.137-227.042c-0.012-27.544-1.33-56.528-0.267-83.672c1.28-32.588,15.285-62.686,12.991-96.176
			c-0.455-6.592-1.276-13.199-2.183-19.803l-31.645,4.038C4930.222,5031.175,4935.73,5611.384,4935.772,5616.559z"/>
		<path id="_x31_82622921" fill="none" stroke="#010101" stroke-width="64" d="M5301.387,5764.811
			c0.201-0.265,0.405-0.533,0.606-0.799c0.463-0.616,0.917-1.241,1.364-1.864c0.181-0.255,0.365-0.504,0.546-0.761
			c0.604-0.857,1.198-1.723,1.77-2.59c0.536-0.803,1.06-1.62,1.577-2.446c0.043-0.069,0.085-0.14,0.127-0.206
			c15.546-24.919,24.148-58.715,25.628-93.185c0.052-1.186,0.094-2.369,0.13-3.556c1.067-37.167-6.265-73.242-20.161-99.568
			c-0.455-0.857-0.911-1.699-1.377-2.538c-0.828-1.488-1.671-2.969-2.522-4.445c-0.441-0.771-0.895-1.539-1.344-2.31
			c-0.403-0.689-0.805-1.38-1.213-2.07c-0.592-1.005-1.197-2.008-1.802-3.015c-0.261-0.434-0.521-0.867-0.786-1.303
			c-0.69-1.146-1.396-2.29-2.104-3.433c-0.171-0.282-0.345-0.562-0.518-0.839c-0.774-1.252-1.558-2.5-2.35-3.746
			c-0.101-0.166-0.199-0.326-0.302-0.484c-0.843-1.333-1.689-2.657-2.548-3.989c-0.044-0.066-0.089-0.137-0.133-0.206
			c-9.148-14.195-18.987-28.231-28.623-41.979c-2.34-3.34-4.688-6.695-7.038-10.065c-0.379-0.54-0.757-1.082-1.132-1.624
			c-0.672-0.962-1.341-1.92-2.009-2.887c-7.918-11.412-15.67-22.858-22.889-34.415c-0.03-0.051-0.063-0.099-0.096-0.15
			c-0.976-1.56-1.94-3.128-2.892-4.69c-0.079-0.134-0.159-0.266-0.241-0.4c-0.893-1.465-1.776-2.936-2.646-4.408
			c-0.133-0.224-0.268-0.446-0.399-0.673c-0.803-1.36-1.596-2.719-2.378-4.086c-0.188-0.324-0.378-0.649-0.562-0.975
			c-0.716-1.254-1.42-2.508-2.119-3.762c-0.234-0.427-0.473-0.84-0.706-1.267c-0.644-1.168-1.272-2.342-1.904-3.514
			c-0.261-0.49-0.531-0.98-0.789-1.468c-0.7-1.318-1.384-2.637-2.061-3.96c-0.158-0.311-0.321-0.62-0.481-0.928
			c-0.664-1.312-1.33-2.606-1.997-3.893c-0.044-0.086-0.088-0.169-0.134-0.256c-11.484-22.131-23.069-40.627-34.943-55.741
			c-0.166-0.212-0.331-0.421-0.499-0.635c-0.479-0.605-0.96-1.205-1.443-1.803c-0.352-0.439-0.71-0.876-1.067-1.311
			c-0.357-0.44-0.721-0.877-1.08-1.311c-0.548-0.655-1.1-1.31-1.657-1.96c-0.202-0.239-0.405-0.48-0.608-0.718
			c-2.494-2.897-5.062-5.713-7.697-8.433c-0.059-0.057-0.118-0.121-0.179-0.183c-0.871-0.896-1.75-1.78-2.639-2.658
			c-0.002-0.006-0.006-0.01-0.014-0.014c-1.809-1.78-3.654-3.521-5.527-5.201c-0.1-0.086-0.194-0.17-0.295-0.26
			c-0.792-0.704-1.591-1.402-2.396-2.087c-0.177-0.147-0.348-0.301-0.523-0.445c-0.878-0.745-1.765-1.479-2.655-2.194
			c-0.022-0.019-0.051-0.043-0.078-0.066c-2.944-2.363-5.958-4.589-9.047-6.651l-0.065-0.048l-2.783,6.546
			c-20.375,40.356,8.47,85.828,14.454,125.666c6.957,46.351,9.23,90.323,22.189,136.458c19.931,70.975,30.199,153.699,78.63,209.249
			l8.021,7.009l0,0l0.056-0.032c3.235-2.036,6.388-4.182,9.438-6.428c0.344-0.252,0.685-0.514,1.025-0.771
			c0.597-0.443,1.196-0.893,1.784-1.348c0.412-0.317,0.825-0.644,1.234-0.966c0.525-0.412,1.052-0.827,1.571-1.247
			c0.392-0.314,0.782-0.631,1.168-0.95c0.572-0.468,1.14-0.945,1.701-1.423c0.315-0.264,0.631-0.532,0.943-0.799
			c0.855-0.74,1.702-1.478,2.533-2.23c0.016-0.014,0.029-0.022,0.04-0.035c0.9-0.808,1.785-1.628,2.656-2.454
			c0.125-0.119,0.247-0.238,0.373-0.362c0.729-0.695,1.449-1.396,2.16-2.1c0.17-0.172,0.341-0.344,0.514-0.514
			c0.68-0.686,1.354-1.377,2.013-2.069c0.146-0.149,0.29-0.297,0.435-0.45c0.767-0.813,1.527-1.628,2.266-2.452
			c0.019-0.021,0.034-0.035,0.051-0.054c1.549-1.72,3.028-3.463,4.444-5.217c0.169-0.213,0.335-0.419,0.504-0.632
			C5300.397,5766.098,5300.897,5765.453,5301.387,5764.811z"/>
		<path id="_x31_82622920" fill="none" stroke="#010101" stroke-width="64" d="M5176.327,5583.009
			c-12.958-46.136-15.233-90.105-22.19-136.456c-5.984-39.838-34.829-85.311-14.454-125.666l2.783-6.546l0,0
			c-10.428-6.956-21.237-11.731-32.126-14.193c-6.143-1.389-12.476-1.917-18.827-1.579c-25.864,1.383-51.365,17.166-66.548,41.187
			c-24.553,38.842-6.146,91.56,10.092,138.071c6.291,18.019,12.236,35.037,15.501,50.408c3.171,14.938,6.053,30.122,8.838,44.816
			c6.019,31.729,12.239,64.535,21.629,96.107c12.138,40.831,27.24,91.646,56.547,124.818c16.379,18.527,38.539,27.598,64.094,26.233
			l0.002-0.002c20.02-1.066,41.221-8.312,61.312-20.943l-8.021-7.009C5206.525,5736.71,5196.258,5653.981,5176.327,5583.009z"/>
		<path id="_x31_82622919" fill="none" stroke="#010101" stroke-width="64" d="M5791.65,6042.765
			c-10.188-66.062-67.514-120.333-105.762-171.432c-64.534-86.241-129.992-219.078-110.734-330.43l3.899-6.231
			c35.479-6.361,70.385-26.492,75.557-53.186c16.615-85.748,31.147-312.43,93.579-384.596
			c34.67-40.075,138.446,69.55,178.639,99.993c87.813,66.538,172.95,129.964,271.374,179.71
			c26.865,13.581,111.745,28.645,132.088,50.075c34.437,36.27-42.334,109.122-53.274,154.298
			c-8.134,33.599-12.881,68.595-32.99,96.594c-37.13,51.689-67.799-5.476-124.306-10.472c-36.488-3.241-71.942-1.765-97.27,28.133
			c-30.217,35.675-39.593,92.873-44.027,138.261c-3.272,33.505-4.356,67.508-4.374,101.208l0.664,103.512
			c-45.222-4.6-91.024-4.486-137.327,1.869c-14.33,1.967-28.871,4.496-43.363,7.721L5791.65,6042.765z"/>
		<path id="_x31_82623022" fill="none" stroke="#010101" stroke-width="64" d="M7255.494,5437.649
			c13.065-16.912,25.977-34.124,38.737-51.638c27.449-37.659,123.081-144.944,153.621-190.809l19.797,6.848
			c-23.758,41.219-43.854,81.539-80.961,118.94c-38.442,38.679-74.012,82.642-109.591,123.966c-1.266,1.43-2.899,3.454-4.904,5.861
			L7255.494,5437.649z"/>
		<path id="_x31_82623023" fill="none" stroke="#010101" stroke-width="64" d="M5616.437,2857.736
			c-1.271-11.382-3.365-22.994-6.209-34.761l17.188-3.86c2.233,9.278,4.236,18.554,5.94,27.977
			c9.305,50.522-2.817,109.258,19.564,156.656c26.554,56.157,87.467,78.973,110.998,142.502
			c25.587,69.038,8.091,130.47-33.446,188.728c-87.153,122.16-205.322,285.735-370.663,293.761l-0.763-13.792
			c40.254-1.749,81.38-18.337,129.866-54.945c14.897-11.254,9.209-34.935-10.252-70.117c-15.825-28.691-32.166-56.326-48.95-83.209
			c33.444,46.232,69.528,71.148,138.267,18.254c105.751-81.328,103.229-253.146-19.565-309.33
			c-92.023-42.138-205.018-76.057-296.341-114.044c-58.002-24.162-92.386-52.764-139.798-94.22
			c-11.062-9.609-53.045-56.096-68.1-45.899c-4.917,3.3-3.042,39.025-5.996,45.194c-25.325,53.868-85.426,52.91-134.289,66.084
			l-2.097-328.262c96.697,71.088,138.437,185.471,238.953,256.799c85.405,60.726,183.816,107.407,283.181,139.244
			c35.248,11.271,125.66,48.053,159.655,15.54C5612.291,3028.556,5620.554,2893.092,5616.437,2857.736z"/>
		<path id="_x31_82623024" fill="none" stroke="#010101" stroke-width="64" d="M5268.376,3596.932
			c31.51,12.69,60.815,19.424,90.668,18.017l0.761,13.794c-11.368,0.638-22.896,0.45-34.652-0.494
			c-60.872-4.953-102.461-36.595-152.65-67.437c-43.052-26.37-86.221-36.087-134.928-46.276
			c-42.267-8.736-87.542-8.21-130.302-13.029l-0.274-42.726c89.816,1.585,162.086,33.104,243.661,68.646
			C5182.856,3541.482,5222.906,3578.616,5268.376,3596.932z"/>
		<path id="_x31_82623025" fill="none" stroke="#010101" stroke-width="64" d="M5985.22,3959.48
			c1.144-40.94,1.826-81.885,1.832-122.873c-0.022-96.698,15.632-196.037,38.703-291.172
			c16.989-70.133,52.643-136.728,63.88-208.194c6.329-40.23-20.675-108.069,21.741-135.286
			c29.601-18.987,76.971,7.386,100.729,25.908c72.494,56.591,38.204,144.032,28.904,218.412
			c-7.521,60.113-12.187,115.67-8.815,175.966c3.263,58.373,5.836,119.15-8.627,176.135
			c-21.576,84.983-66.047,163.145-91.175,247.502c-41.368,138.883-54.981,337.02,42.657,456.801
			c18.307,22.451,27.915,44.027,7.884,69.542c-40.411,51.429-95.533,12.033-125.632-29.892
			c-29.83-41.562-38.202-104.203-53.16-152.499c-31.804-102.632-27.183-214.533-22.822-320.159
			C5982.842,4032.963,5984.214,3996.225,5985.22,3959.48z"/>
		<path id="_x31_82623026" fill="none" stroke="#010101" stroke-width="64" d="M5785.708,4036.386
			c-7.226-4.458-6.676-17.716-3.8-34.842c7.296-43.485,32.701-81.801,32.228-127.297c-0.833-80.253-113.648-136.271-82.517-218.145
			c21.827-57.415,96.162-128.575,163.628-116.716c31.602,5.552,51.628,31.922,58.24,61.425
			c16.21,72.283-11.321,156.78-35.037,223.646c-11.815,33.349-20.653,68.114-33.599,100.964
			c-12.403,31.477-43.9,94.564-76.642,108.463C5797.137,4038.592,5790.023,4039.066,5785.708,4036.386z"/>
		<path id="_x31_82623027" fill="none" stroke="#010101" stroke-width="64" d="M5165.013,4421.551
			c-5.266-31.95-36.403-94.266-22.491-117.623c14.573-24.438,33.732,13.125,40.969,26.596
			c27.844,51.862,109.888,92.71,130.109,11.701c12.97-51.963-4.75-111.346,4.746-164.22c8.418-46.855,45.173-72.664,61.379-114.729
			c30.498-79.22-76.853-138.516-140.626-134.812c-121.566,7.062-152.432,122.835-158.66,225.47
			c-4.598,75.865-12.033,150.173-6.019,226.128c3.187,40.492,2.574,133.525,45.981,155.928
			c36.422,18.79,45.918-85.942,45.342-107.471C5165.677,4426.412,5165.422,4424.067,5165.013,4421.551z"/>
		<path id="_x31_82623028" fill="none" stroke="#010101" stroke-width="64" d="M4924.587,6012.188
			c174.62,0.593,330.002,35.858,499.37,47.365c55.118,3.751,137.097-8.145,187.271,16.77c25.753,12.78,36.984,26.945,34.354,46.201
			c-22.284,19.614-55.451,89.49-98.945,114.23c-73.939,41.994-182.991,15.096-264.29,12.419
			c-117.848-3.889-239.717-12.089-357.611-17.198L4924.587,6012.188z"/>
		<path id="_x31_82623029" fill="none" stroke="#010101" stroke-width="64" d="M7154.108,5080.948
			c77.66-39.593-50.003-55.671-89.798-61.933c-33.731-5.312-49.966-14.167-83.723-22.732c-21.64-5.488-68.041-29.79-95.712-32.117
			c-43.895-3.689,50.768,119.681,70.013,134.43C7007.275,5138.773,7094.782,5111.186,7154.108,5080.948z"/>
		<path id="_x31_82623030" fill="none" stroke="#010101" stroke-width="64" d="M7558.184,2962.53
			c-202.977-283.578-455.118-519.927-779.87-652.604c-100.919-41.261-199.526-83.269-300.3-125.061
			c-109.629-45.509-231.436-75.841-349.924-78.504c-70.133-1.52-140.964-7.11-210.35,3.127
			c-47.999,7.146-80.43,26.704-116.51,37.359c-85.976,25.402-144.72,84.659-210.675,116.083
			c-39.694,18.931-203.795,127.188-247.662,101.569c71.29,41.688,124.568,134.709,170.279,202.686
			c51.528,76.737,93.158,161.657,114.242,251.93l-17.188,3.859c-32.916-138.846-164.019-300.479-268.185-381.011
			c-109.203-84.395-319.242-8.771-441.513,5.13l-1.082-168.954c42.109-4.003,83.165-8.609,123.016-14.579
			c42.245-6.111,83.208-13.658,122.811-23.318c55.371-13.226,108.168-30.53,158.388-53.569
			c48.651-22.291,94.876-50.016,138.658-84.755c-0.447,0.751-0.891,1.503-1.409,2.254l8.629-8.034
			c37.822-30.843,73.735-67.042,107.666-109.728c8.311-10.448,16.858-19.989,25.634-28.775c7.883-7.735,15.917-14.942,24.186-21.47
			c13.926-11.029,28.311-20.326,43.152-28.036c104.726-54.578,230.825-31.242,351.541,3.91c15.219,4.421,30.368,9.068,45.362,13.718
			c72.213,22.626,147.457,39.461,218.95,66.306c114.629,43.041,230.224,85.183,344.052,131.537
			c78.784,32.066,156.685,66.094,232.812,103.805c125.899,62.37,241.785,138.576,347.646,226.121
			c155.36,128.485,289.25,281.386,401.845,451.173c22.442,33.686,43.916,68.046,64.646,103.007
			c96.537,163.173,176.053,332.922,223.776,516.651c8.975,34.394,22.807,67.224,31.632,101.54c0.382,1.285,0.69,2.639,0.999,3.922
			c2.073,8.373,4.074,16.819,5.848,25.338c15.032,68.627,23.052,140.242,28.51,210.041c0.407,5.201,0.74,10.476,1.149,15.676
			c7.533,101.685,29.704,198.142-0.12,297.586c-13.847,46.145-26.115,93.882-36.667,141.018
			c-2.628,10.541-5.179,21.008-7.882,31.547c-0.072,0-0.072,0-0.146,0.002c-21.854,58.329-32.459,120.085-58.438,177.644
			c-2.065,4.664-4.204,9.253-6.42,13.92c-2.143,4.589-4.358,9.252-6.649,13.843c-22.383,45.816-47.991,90.188-74.578,133.956
			c-3.407,5.566-6.816,11.205-10.222,16.768c-7.257,11.808-14.519,23.613-21.85,35.417c-17.852,28.8-35.703,57.681-52.881,86.859
			c-2.888,4.815-5.7,9.705-8.512,14.667c-1.556,2.633-3.11,5.263-4.59,7.898c-10.216,17.823-22.754,34.812-32.741,52.409
			c-0.074,0.15-0.15,0.301-0.297,0.454c-8.954,15.866-12.729,34.241-18.456,51.629c-5.743,14.675-11.555,30.252-17.667,45.834
			c0,0,0,0-0.076-0.003c-2.611,1.429-4.174,2.626-4.244,3.303c-0.35,4.221-0.849,7.834-1.577,11.148
			c-3.536,8.729-7.223,17.383-11.062,25.811c-0.074,0.151-0.148,0.225-0.223,0.374c-1.629,2.784-3.407,5.867-5.328,9.252
			c-13.242,23.541-26.958,44.294-41.946,64.514c-0.073,0-0.073,0,0.003,0.078c-4.54,4.504-9.374,8.481-14.444,11.93
			c-18.033,12.224-53.514,34.858-50.187-7.024c1.942-24.035,36.035-52.629,49.159-71.571
			c13.274-19.172,72.734-95.159,34.886-104.026c-54.713-12.771-102.703,136.725-177.505,95.323
			c-5.332-2.878,121.376-94.983,132.184-102.258c60.136-40.188,94.799-97.038,133.643-155.312
			c47.367-71.049,100.153-137.483,145.187-210.803c59.402-96.706,84.432-220.054,105.58-330.455
			c62.638-327.815-39.911-658.753-162.703-960.601C7676.708,3170.014,7628.94,3061.338,7558.184,2962.53z"/>
		<path id="_x31_82623019" fill="none" stroke="#010101" stroke-width="64" d="M5994.676,2144.405
			c-53.748-22.883-166.194-5.583-193.423,2.45c-86.026,25.375-144.774,84.669-210.695,116.087
			c-39.709,18.921-203.787,127.189-247.654,101.543c71.274,41.686,124.577,134.733,170.252,202.702
			c56.866,84.643,101.59,179.257,120.186,279.946c9.315,50.492-2.799,109.205,19.605,156.626
			c26.515,56.141,87.417,78.957,110.978,142.513c25.567,68.998,8.087,130.475-33.436,188.692
			c-93.088,130.54-221.647,308.28-405.336,293.309c-12.301-1.001-23.802-3.107-34.754-6.063l3.297,95.838
			c86.172,14.58,176.958,70.314,243.484-0.829c22.029-23.554,50.475-32.463,78.928-43.348c30.19-11.554,41.336-38.153,63.091-60.245
			c39.498-40.108,83.004-62.077,112.466-114.098c21.146-37.34,34.885-88.528,43.512-130.583
			c7.176-34.997,6.938-71.293,12.559-106.555c18.732-117.762-27.342-243.951-35.94-361.455
			c-11.136-152.199,5.237-276.245,64.571-416.665c30.836-72.938,61.41-147.044,97.724-217.389
			c10.228-19.789,47.29-59.282,49.274-81.426C6025.171,2165.405,6013.546,2152.43,5994.676,2144.405z"/>
		<path id="_x31_82623020" fill="none" stroke="#010101" stroke-width="64" d="M4911.607,4177.205
			c44.453,10.188,62.052,106.653,65.67,177.973c3.765,74.504,7.644,155.268-0.755,229.429
			c-8.138,71.75-48.916,143.302-48.45,215.598c0.078,12.512,7.649,810.284,7.7,816.354c0.73,77.141,92.59,227.87-13.215,273.782
			L4911.607,4177.205z"/>
		<path id="_x31_82623021" fill="none" stroke="#010101" stroke-width="64" d="M5172.49,3560.841
			c-43.059-26.428-86.179-36.143-134.947-46.286c-42.214-8.785-87.485-8.205-130.256-13.052l1.84,288.521
			c25.828-0.266,75.186-3.069,106.201-12.224c75.049-22.129,149.434-54.671,228.338-62.302c16.353-1.586,33.101-0.312,50.031,2.554
			l-3.299-95.838C5247.13,3610.551,5212.572,3585.459,5172.49,3560.841z"/>
	</g>
</g>
</svg>
