<svg width="9120" height="7456" xmlns="http://www.w3.org/2000/svg">
<g transform="scale(1.0)">
<g id="180623029" order="1" parent_id="" graphic_group_label_id="28" graphic_group_label="Atlas - Adult Mouse" sub_image_id="100960348" transform=" scale(1.0, 1.0)"><path id="180623031" parent_id="180623029" order="0" structure_id="8" d="M4499.703,5820.682
			c47.889,3.938,95.121,58.896,135.629,80.477c428.969,228.625,605.107,850.251,1135.521,883.703
			c238.03,15.014,615.771,59.042,881.184-96.715c136.094-79.871,296.709-288.734,432.354-502.48
			c42.008-66.188,69.965-168.494,102.906-239.762c29.975-64.861,75.964-101.202,125.189-138.736
			c74.096-56.49,141.459-150.729,210.893-211.638c98.264-86.201,231.325-288.329,364.076-454.194
			c147.372-184.133,179.17-322.334,234.377-453.623c76.176-181.137,126.493-313.533,171.682-455.371
			c75.203-236.049,141.546-497.448,162.642-631.322c33.543-212.913,39.596-319.615-3.147-597.372
			c-48.853-317.392-148.533-648.827-347.689-921.202c-250.334-342.392-631.496-603.813-968.705-766.11
			c-320.002-154.019-812.012-382.421-1088.506-468.221c-209.727-65.089-989.383-188.968-1259.365,56.876
			c-57.948,52.768-134.678,135.336-158.408,236.117l-51.17,1832.958L4499.703,5820.682z" style="stroke:black;fill:#bfdae3"/><path id="180623032" parent_id="180623029" order="1" structure_id="688" d="M7141.773,6061.048
			c15.403-40.588,29.902-81.354,45.522-115.146c29.976-64.861,75.964-101.201,125.19-138.735
			c74.095-56.491,141.459-150.729,210.892-211.638c98.265-86.201,231.325-288.33,364.076-454.194
			c147.372-184.134,179.17-322.335,234.377-453.623c76.176-181.138,126.493-313.533,171.682-455.371
			c75.203-236.049,141.546-497.449,162.642-631.323c33.543-212.913,39.596-319.615-3.147-597.372
			c-48.853-317.391-148.533-648.827-347.69-921.202c-250.334-342.392-631.494-603.813-968.705-766.109
			c-320.002-154.02-812.011-382.421-1088.504-468.221c-209.728-65.09-989.383-188.969-1259.366,56.876
			c-57.948,52.767-131.371,135.428-155.101,236.213L4577.6,2980.548c136.994,8.319,273.365,1.583,401.279-56.402
			c234.516-106.321,331.311-318.586,482.938-504.834c157.188-193.087,451.674,5.763,625.935,82.349
			c377.022,165.707,739.106,369.979,933.886,755.084c87.398,172.805,110.797,355.813,111.145,595.979
			c0.222,148.964-37.83,231.117-51.271,437.817c-9.18,186.563-1.67,359.717-20.027,467.975c0,0-24.095,113.663-80.072,220.861
			c-63.585,121.762-133.992,224.635-215.709,334.23c-45.759,61.375-96.811,123.63-118.029,188.698
			c-18.834,57.735-8.66,117.11-33.151,188.712c-42.517,124.313,170.688,175.438,265.854,223.326
			C6969.49,5959.188,7056.688,6008.948,7141.773,6061.048z" style="stroke:black;fill:#b0ffb8"/><path id="180623095" parent_id="180623029" order="2" structure_id="320" d="M5928.604,950.138
			c-97.506-22.718-197.547-23.586-297.758-24.376l2.668-152.533c179.955,18.41,336.598,50.728,414.568,74.908
			c218.9,67.941,572.938,225.244,869.754,364.299l-67.105,123.043c-6.11-2.849-12.228-5.528-18.426-8.296
			c-163.063-72.07-327.914-140.008-490.711-212.573C6208.298,1055.166,6071.495,983.493,5928.604,950.138z" style="stroke:black;fill:#1f9d5a"/><path id="180623094" parent_id="180623029" order="3" structure_id="943" d="M6010.529,1363.145
			c-124.06-54.584-253.912-99.455-384.763-138.582l5.077-298.801c100.211,0.79,200.252,1.658,297.759,24.376
			c142.892,33.355,279.694,105.028,412.989,164.472c162.798,72.564,327.648,140.503,490.712,212.573
			c6.198,2.768,12.313,5.447,18.426,8.296l-192.396,352.388c0,0-0.086,0.081-0.084-0.002
			c-52.494-31.752-104.15-63.482-153.371-95.563C6351.708,1492.563,6176.742,1436.308,6010.529,1363.145z" style="stroke:black;fill:#1f9d5a"/><path id="180623093" parent_id="180623029" order="4" structure_id="648" d="M6416.928,2117.449
			c-249.235-129.11-529.461-260.09-800.599-344.967l0.002-0.084l9.437-547.836c130.851,39.127,260.703,83.998,384.764,138.582
			c166.212,73.163,341.178,129.418,494.35,229.157c49.221,32.08,100.877,63.81,153.371,95.563l-235.961,432.329l-0.084-0.002
			C6420.475,2119.305,6418.66,2118.334,6416.928,2117.449z" style="stroke:black;fill:#1f9d5a"/><path id="180623092" parent_id="180623029" order="5" structure_id="844" d="M5616.329,1772.482
			c271.138,84.876,551.362,215.855,800.599,344.966c1.732,0.885,3.547,1.855,5.278,2.741l-189.58,347.362
			c-125.909-63.253-255.399-124.095-381.394-181.409c-92.035-41.894-167.705-82.575-242.406-74.035L5616.329,1772.482z" style="stroke:black;fill:#1f9d5a"/><path id="180623091" parent_id="180623029" order="6" structure_id="882" d="M6087.684,2501.659
			c-128.605-56.552-322.705-179.688-478.805-162.543l-2.023-14.447l1.972-112.562c74.702-8.541,150.372,32.143,242.407,74.035
			c125.992,57.315,255.482,118.157,381.393,181.41l-43.556,79.689l-0.091,0.25C6155.448,2531.83,6121.654,2516.58,6087.684,2501.659
			z" style="stroke:black;fill:#1f9d5a"/><path id="180623100" parent_id="180623029" order="7" structure_id="656" d="M4978.158,922.854
			c-124.421,75.258-177.529,245.375-197.466,381.112c-11.659,78.991-18.567,158.616-22.56,238.657l-134.662-154.359l6.898-247.126
			c23.73-100.825,100.498-183.353,158.445-236.118c144.142-131.267,433.515-157.157,703.859-142.834
			c47.871,2.508,95.119,6.337,140.837,11.044l-2.668,152.532c-97.201-0.705-194.655-1.334-290.222-21.654
			C5219.523,878.387,5090.494,854.957,4978.158,922.854z" style="stroke:black;fill:#1f9d5a"/><path id="180623099" parent_id="180623029" order="8" structure_id="962" d="M4939.979,1751.093l-181.845-208.47
			c3.991-80.042,10.899-159.667,22.56-238.657c19.937-135.737,73.045-305.854,197.465-381.111
			c112.336-67.897,241.365-44.467,362.467-18.747c95.564,20.32,193.02,20.949,290.221,21.654l-5.077,298.801
			c-47.71-14.301-95.522-27.851-143.271-40.813c-199.705-54.185-347.306-35.798-452.033,161.241
			C4968.122,1462.224,4946.188,1609.618,4939.979,1751.093z" style="stroke:black;fill:#1f9d5a"/><path id="180623098" parent_id="180623029" order="9" structure_id="767" d="M5188.266,1983.17c0.465,19.34,1.291,37.687,2.388,55.37
			l-250.674-287.448c6.208-141.475,28.144-288.869,90.485-406.103c104.729-197.04,252.328-215.427,452.033-161.241
			c47.746,12.963,95.561,26.513,143.271,40.813l-9.437,547.838c-13.853-4.319-27.705-8.555-41.48-12.62
			C5365.742,1697.717,5182.5,1722.136,5188.266,1983.17z" style="stroke:black;fill:#1f9d5a"/><path id="180623097" parent_id="180623029" order="10" structure_id="1021" d="M5441.813,2326.504l-251.16-287.964
			c-1.097-17.685-1.924-36.03-2.388-55.37c-5.767-261.034,177.478-285.453,386.585-223.392c13.775,4.065,27.629,8.301,41.48,12.62
			l-0.002,0.084l-7.504,439.625c-46.834,5.303-93.289,30.026-143.207,85.861C5457.329,2307.191,5449.448,2316.761,5441.813,2326.504
			z" style="stroke:black;fill:#1f9d5a"/><path id="180623096" parent_id="180623029" order="11" structure_id="1085" d="M5441.813,2326.504
			c7.635-9.743,15.517-19.313,23.806-28.535c49.918-55.835,96.374-80.559,143.208-85.861l-1.971,112.562l2.022,14.447
			c-42.547,4.585-82.293,19.707-117.092,49.44l-0.926-5.799L5441.813,2326.504z" style="stroke:black;fill:#1f9d5a"/><path id="180623078" parent_id="180623029" order="12" structure_id="558" d="M8451.521,3625.609l-0.084-0.002l-157.711-9.004
			c1.28-6.908,2.559-13.733,3.839-20.643c23.724-130.527,56.072-279.304,51.499-412.21c-5.892-172.603-40.52-349.771-97.232-521.113
			l114.956-41.887c38.965,126.755,66.649,255.956,86.197,382.922c42.78,277.796,36.707,384.469,3.153,597.384
			c-1.223,7.831-2.621,15.991-4.118,24.65L8451.521,3625.609z" style="stroke:black;fill:#188064"/><path id="180623077" parent_id="180623029" order="13" structure_id="838" d="M8028.457,3393.421
			c-6.323-211.101-48.152-409.052-118.955-606.139l342.329-124.646c56.713,171.343,91.341,348.513,97.232,521.113
			c4.573,132.907-27.775,281.685-51.499,412.21c-1.28,6.909-2.559,13.734-3.839,20.643l-256.865-14.7
			C8036.047,3508.173,8029.486,3428.423,8028.457,3393.421z" style="stroke:black;fill:#188064"/><path id="180623076" parent_id="180623029" order="14" structure_id="654" d="M7799.448,2827.382l110.054-40.1
			c70.804,197.087,112.633,395.039,118.955,606.139c1.03,35.001,7.59,114.752,8.403,208.481l-94.06-5.387
			c-4.166-153.478-28.697-305.683-64.693-454.861C7850.512,3027.265,7828.795,2927.012,7799.448,2827.382z" style="stroke:black;fill:#188064"/><path id="180623075" parent_id="180623029" order="15" structure_id="702" d="M7399.05,2973.165l400.315-145.785l0.082,0.002
			c29.348,99.63,51.063,199.884,78.66,314.272c35.996,149.179,60.527,301.384,64.693,454.861l-381.498-21.777
			c-3.988-123.854-20.305-246.715-57.958-366.488C7477.762,3126.714,7442.051,3048.242,7399.05,2973.165z" style="stroke:black;fill:#188064"/><path id="180623074" parent_id="180623029" order="16" structure_id="889" d="M7247.973,3556.79
			c-46.117-161.258-110.777-323.62-194.125-457.972l345.119-125.655l0.084,0.002c43,75.078,78.711,153.55,104.295,235.086
			c37.653,119.774,53.971,242.634,57.959,366.488L7247.973,3556.79z" style="stroke:black;fill:#188064"/><path id="180623073" parent_id="180623029" order="17" structure_id="929" d="M6951.486,3136.12l0.002-0.083l102.358-37.219
			c83.347,134.353,148.007,296.714,194.124,457.972l-133.07-7.563l-1.765,0.286c-16.392-105.208-44.854-200.463-91.562-292.712
			C7000.169,3214.452,6976.691,3174.306,6951.486,3136.12z" style="stroke:black;fill:#188064"/><path id="180623084" parent_id="180623029" order="18" structure_id="878" d="M7913.385,2018.745
			c-73.449-96.259-166.725-174.665-268.136-243.341l0.002-0.084l76.61-88.892l0.349-0.493
			c142.674,116.098,275.095,248.808,383.084,396.564c119.517,163.391,203.13,348.118,261.493,538.249l-114.956,41.887
			C8174.443,2428.72,8055.93,2205.452,7913.385,2018.745z" style="stroke:black;fill:#188064"/><path id="180623083" parent_id="180623029" order="19" structure_id="657" d="M7758.725,2463.969
			c-91.521-162.273-229.639-273.725-369.074-391.906l255.6-296.658c101.411,68.676,194.688,147.082,268.136,243.341
			c142.544,186.707,261.06,409.976,338.446,643.892l-342.329,124.646c-3.563-10.223-7.296-20.367-11.112-30.514
			C7857.047,2646.262,7816.357,2566.313,7758.725,2463.969z" style="stroke:black;fill:#188064"/><path id="180623082" parent_id="180623029" order="20" structure_id="950" d="M7389.648,2072.063
			c139.438,118.182,277.556,229.633,369.074,391.906c57.635,102.344,98.323,182.293,139.666,292.801
			c3.816,10.146,7.549,20.291,11.112,30.514l-110.054,40.1l-0.084-0.002c-22.77-77.524-50.234-154.596-88.746-237.664
			c-68.021-146.81-229.143-282.497-348.752-394.602c-14.678-13.713-29.195-27.086-43.726-40.125l71.424-82.928
			C7389.564,2072.061,7389.564,2072.061,7389.648,2072.063z" style="stroke:black;fill:#188064"/><path id="180623081" parent_id="180623029" order="21" structure_id="974" d="M7398.966,2973.162
			c-95.017-165.886-225.894-314.952-362.562-442.426c-7.746-7.245-15.578-14.407-23.496-21.489l0.004-0.083l305.229-354.175
			c14.529,13.039,29.048,26.413,43.727,40.125c119.608,112.104,280.729,247.792,348.752,394.602
			c38.511,83.068,65.977,160.14,88.746,237.664l-400.315,145.785L7398.966,2973.162z" style="stroke:black;fill:#188064"/><path id="180623080" parent_id="180623029" order="22" structure_id="1102" d="M6769.678,2791.441l243.231-282.194
			c7.918,7.082,15.75,14.245,23.496,21.489c136.668,127.474,267.545,276.539,362.562,442.426l-345.119,125.654
			c-9.922-16.174-20.275-31.94-30.811-47.211c-66.504-96.315-155.033-182.873-253.361-260.08L6769.678,2791.441z" style="stroke:black;fill:#188064"/><path id="180623079" parent_id="180623029" order="23" structure_id="2" d="M6951.488,3136.037
			c-69.207-104.424-151.883-193.829-244.154-272.206l62.342-72.305c98.328,77.208,186.857,163.765,253.361,260.081
			c10.533,15.271,20.888,31.038,30.811,47.211L6951.488,3136.037z" style="stroke:black;fill:#188064"/><path id="180623090" parent_id="180623029" order="24" structure_id="450" d="M7263.868,1554.587
			c-137.28-75.534-271.112-154.653-413.138-219.108l67.104-123.043l0.083,0.004c78.045,36.564,152.025,71.847,218.648,103.91
			c191.698,92.28,397.646,216.584,585.643,369.588l-0.35,0.492l-76.609,88.892
			C7523.07,1692.343,7389.034,1623.509,7263.868,1554.587z" style="stroke:black;fill:#188064"/><path id="180623089" parent_id="180623029" order="25" structure_id="854" d="M6785.82,1679.627
			c-34.158-8.233-97.576-5.234-55.164,48.911l-1.399,2.22c-23.696-14.299-47.394-28.599-70.923-42.893l192.396-352.389
			c142.023,64.457,275.856,143.575,413.138,219.109c125.166,68.922,259.203,137.756,381.383,220.733l-0.002,0.084l-255.601,296.659
			c-0.084-0.002-0.084-0.002-0.084-0.002c-19.696-16.697-39.475-33.564-59.076-50.678
			C7196.045,1904.178,6981.695,1727.179,6785.82,1679.627z" style="stroke:black;fill:#188064"/><path id="180623088" parent_id="180623029" order="26" structure_id="577" d="M7015.525,1914.952
			c-88.9-64.229-187.779-124.717-286.27-184.193l1.4-2.22c-42.414-54.145,21.006-57.145,55.162-48.911
			c195.875,47.552,410.226,224.55,544.67,341.755c19.602,17.113,39.379,33.98,59.076,50.678l-71.424,82.928
			C7221.505,2068.122,7127.227,1995.712,7015.525,1914.952z" style="stroke:black;fill:#188064"/><path id="180623087" parent_id="180623029" order="27" structure_id="625" d="M7012.912,2509.163
			c-177.023-159.39-380.154-279.685-590.622-388.971l235.96-432.329c-0.002,0.083,0.084,0.002,0.084,0.002
			c23.529,14.294,47.227,28.594,70.923,42.893c98.489,59.477,197.368,119.965,286.271,184.193
			c111.699,80.761,205.979,153.17,302.614,240.037L7012.912,2509.163z" style="stroke:black;fill:#188064"/><path id="180623086" parent_id="180623029" order="28" structure_id="945" d="M6367.15,2536.903
			c-44.191-23.405-89.144-46.581-134.524-69.351l189.58-347.363l0.084,0.002c210.467,109.287,413.599,229.582,590.622,388.972
			l-0.003,0.083l-243.231,282.195C6642.865,2691.602,6499.725,2607.202,6367.15,2536.903z" style="stroke:black;fill:#188064"/><path id="180623085" parent_id="180623029" order="29" structure_id="1026" d="M6707.334,2863.831
			c-152.993-130.104-332.105-229.649-518.354-316.339l0.09-0.249l43.557-79.69c45.382,22.77,90.333,45.944,134.525,69.351
			c132.572,70.299,275.713,154.699,402.525,254.539l-0.002,0.083L6707.334,2863.831z" style="stroke:black;fill:#188064"/><path id="180623072" parent_id="180623029" order="30" structure_id="36" d="M8451.521,3625.609l0.499,0.098
			c-21.242,119.552-70.499,316.551-128.7,510.289l-3.153-0.926l-0.084-0.002l-148.754-30.172
			c53.938-160.893,92.378-327.068,122.397-488.293l157.711,9.004L8451.521,3625.609z" style="stroke:black;fill:#009c75"/><path id="180623071" parent_id="180623029" order="31" structure_id="180" d="M7899.525,3944.951
			c21.111,82.917,107.315-28.965,115.396-66.642c18.671-87.412,22.903-188.112,21.938-276.407l256.864,14.699
			c-30.02,161.226-68.459,327.401-122.397,488.293l-301.836-61.136C7880.113,4010.924,7890.316,3978.077,7899.525,3944.951z" style="stroke:black;fill:#009c75"/><path id="180623070" parent_id="180623029" order="32" structure_id="148" d="M8014.922,3878.311
			c-8.08,37.677-94.284,149.559-115.396,66.642c23.901-85.928,41.316-173.292,43.436-264.178
			c0.617-28.095,0.564-56.208-0.158-84.257l94.059,5.386C8037.826,3690.198,8033.593,3790.898,8014.922,3878.311z" style="stroke:black;fill:#009c75"/><path id="180623069" parent_id="180623029" order="33" structure_id="187" d="M7543.111,3977.672
			c12.771-133.761,22.651-268.94,18.191-402.933l381.498,21.776c0.725,28.049,0.775,56.162,0.158,84.258
			c-2.118,90.886-19.533,178.25-43.436,264.178c-9.207,33.126-19.41,65.973-30.033,98.809L7543.111,3977.672z" style="stroke:black;fill:#009c75"/><path id="180623068" parent_id="180623029" order="34" structure_id="638" d="M7326.887,3933.819
			c-1.293-37.604-12.242-73.97-19.141-114.572c-14.311-83.815-34.16-172.972-59.773-262.458l313.332,17.95
			c4.459,133.991-5.422,269.172-18.191,402.933l-216.229-43.77L7326.887,3933.819z" style="stroke:black;fill:#009c75"/><path id="180623067" parent_id="180623029" order="35" structure_id="662" d="M7132.783,3852.768
			c-0.225-111.869-5.395-211.41-19.646-303.256l1.766-0.285l133.07,7.563c25.613,89.485,45.463,178.643,59.773,262.458
			c6.898,40.604,17.848,76.97,19.141,114.572l-192.351-38.92l-2.757-0.16C7132.488,3881.288,7132.795,3867.324,7132.783,3852.768z" style="stroke:black;fill:#009c75"/><path id="180623105" parent_id="180623029" order="36" structure_id="935" d="M4758.134,1542.623
			c-6.618,132.176-5.229,265.245-3.312,397.324l-135.474-104.266l-8.36-0.232l12.482-447.186L4758.134,1542.623z" style="stroke:black;fill:#40a666"/><path id="180623104" parent_id="180623029" order="37" structure_id="211" d="M4754.823,1939.947
			c-1.918-132.08-3.308-265.148,3.312-397.324l181.845,208.47c-2.729,61.837-2.418,122.587-1.149,179.099
			c1.221,55.171,0.769,104.354-0.612,150.834L4754.823,1939.947z" style="stroke:black;fill:#40a666"/><path id="180623103" parent_id="180623029" order="38" structure_id="1015" d="M5190.652,2038.541
			c4.931,84.139,14.488,152.343,4.584,240.418l-257.023-197.852c0,0,0,0,0.003-0.084c1.381-46.479,1.833-95.662,0.612-150.834
			c-1.269-56.51-1.58-117.261,1.149-179.098L5190.652,2038.541z" style="stroke:black;fill:#40a666"/><path id="180623102" parent_id="180623029" order="39" structure_id="919" d="M5379.118,2420.469l-183.882-141.51
			c9.904-88.075,0.348-156.279-4.584-240.418l251.161,287.964C5418.646,2356.145,5398.268,2387.872,5379.118,2420.469z" style="stroke:black;fill:#40a666"/><path id="180623101" parent_id="180623029" order="40" structure_id="927" d="M5430.148,2459.627l-8.107-6.25l-0.084-0.002
			l-42.839-32.906c19.149-32.597,39.528-64.324,62.694-93.964l49.049,56.254l0.926,5.799c-10.457,8.912-20.445,19.091-29.977,30.789
			C5450.98,2432.682,5440.398,2446.107,5430.148,2459.627z" style="stroke:black;fill:#40a666"/><path id="180623110" parent_id="180623029" order="41" structure_id="588" d="M4742.516,2524.77l-141.912-17.517l-8.359-0.233
			l18.746-671.57l8.359,0.232l135.475,104.266c0.488,30.469,0.896,60.851,1.305,91.149
			C4758.305,2195.896,4748.125,2359.768,4742.516,2524.77z" style="stroke:black;fill:#40a666"/><path id="180623109" parent_id="180623029" order="42" structure_id="296" d="M4742.516,2524.77
			c5.609-165.002,15.789-328.873,13.612-493.673c-0.409-30.299-0.815-60.681-1.306-91.149l183.394,141.078
			c-0.003,0.084-0.003,0.084-0.003,0.084c-3.791,129.828-14.357,238.635-12.639,398.82c0.265,20.506,0.627,43.44,1.043,67.549
			L4742.516,2524.77z" style="stroke:black;fill:#40a666"/><path id="180623108" parent_id="180623029" order="43" structure_id="772" d="M5191.82,2305.386
			c-15.607,103.563-20.672,177.048-39.91,269.8l-225.293-27.709c-0.416-24.107-0.778-47.041-1.043-67.548
			c-1.721-160.186,8.848-268.991,12.639-398.821l257.023,197.852C5194.327,2287.551,5193.16,2296.388,5191.82,2305.386z" style="stroke:black;fill:#40a666"/><path id="180623107" parent_id="180623029" order="44" structure_id="810" d="M5151.911,2575.186
			c19.237-92.752,24.302-166.237,39.91-269.8c1.339-8.999,2.506-17.835,3.415-26.427l183.882,141.51
			c-33.114,56.305-62.62,115.219-96.802,170.823l-130.407-16.022C5151.995,2575.188,5151.911,2575.186,5151.911,2575.186z" style="stroke:black;fill:#40a666"/><path id="180623106" parent_id="180623029" order="45" structure_id="819" d="M5328.675,2597.02l-46.358-5.729
			c34.183-55.604,63.688-114.52,96.803-170.823l42.839,32.906l0.084,0.002l8.108,6.25c-34.994,45.709-67.586,92.322-100.49,138.09
			l-0.9-0.694L5328.675,2597.02z" style="stroke:black;fill:#40a666"/><path id="180623115" parent_id="180623029" order="46" structure_id="707" d="M4706.74,2952.143c7.777-20.866,20.102-42.693,8.535-56.989
			c-42.384-52.22-94.824,79.012-63.771,87.491c1.33,0.373,2.576,0.658,3.912,0.779c-25.43-0.208-51.002-1.256-76.562-2.807
			l0.351-6.516l13.037-467.082l8.36,0.232l141.911,17.516c-0.512,15.297-1.021,30.594-1.45,45.977
			c-1.476,49.824-28.413,136.671-12.229,183.307c12.395,35.569,74.597,49.188,80.606,79.643
			c6.729,34.659-55.312,36.273-69.087,62.16c-11.391,21.436-8.766,62.254-3.977,85.479c-23.135,1.53-46.412,2.22-69.754,2.153
			C4684.18,2981.048,4700.874,2967.458,4706.74,2952.143z" style="stroke:black;fill:#59b363"/><path id="180623114" parent_id="180623029" order="47" structure_id="556" d="M4728.836,2754.052
			c-16.186-46.636,10.754-133.482,12.229-183.307c0.43-15.383,0.939-30.68,1.451-45.976l184.103,22.709
			c1.207,85.625,1.72,187.209-10.146,258.498c-5.328,32.063-31.457,125.875-50.238,151.289l1.118,4.884
			c-43.042,10.345-86.799,16.317-130.972,19.185c-4.791-23.226-7.416-64.044,3.976-85.479c13.774-25.888,75.817-27.501,69.087-62.16
			C4803.432,2803.238,4741.229,2789.621,4728.836,2754.052z" style="stroke:black;fill:#59b363"/><path id="180623113" parent_id="180623029" order="48" structure_id="827" d="M5134.064,2650.991
			c-29.104,110.464-25.764,89.725-90.742,181.534l10.674,7.325c-2.224,1.695-4.535,3.556-6.844,5.331
			c-28.563,22.211-84.758,66.073-117.207,98.551c-20.703,7.371-41.537,13.398-62.595,18.416l-1.118-4.884
			c18.781-25.413,44.91-119.227,50.238-151.289c11.863-71.288,11.353-172.874,10.146-258.498l225.294,27.708
			c0,0,0.084,0.002-0.002,0.083C5147.063,2598.979,5141.264,2623.917,5134.064,2650.991z" style="stroke:black;fill:#59b363"/><path id="180623112" parent_id="180623029" order="49" structure_id="1054" d="M5214.414,2685.947
			c-61.391,71.16-90.71,99.458-160.418,153.902l-10.673-7.325c64.979-91.81,61.64-71.069,90.742-181.534
			c7.198-27.074,12.998-52.012,17.845-75.722l130.406,16.022C5261.895,2624.523,5239.835,2656.453,5214.414,2685.947z" style="stroke:black;fill:#59b363"/><path id="180623111" parent_id="180623029" order="50" structure_id="1081" d="M5329.659,2597.717
			c-93.496,130.336-189.551,253.406-350.724,326.467c-16.187,7.328-32.515,13.816-48.989,19.549
			c32.449-32.479,88.644-76.34,117.207-98.551c2.31-1.776,4.62-3.637,6.843-5.332c69.708-54.445,99.027-82.742,160.418-153.902
			c25.421-29.494,47.48-61.424,67.902-94.656l46.357,5.729l0.084,0.002L5329.659,2597.717z" style="stroke:black;fill:#59b363"/><path id="180623066" parent_id="180623029" order="51" structure_id="996" d="M7992.605,4503.934
			c74.006-124.521,132.164-259.776,178.723-399.037l148.754,30.172l0.084,0.002l3.153,0.926
			c-9.688,32.358-19.709,64.625-29.799,96.389c-33.011,103.578-68.728,202.145-115.312,318.396l-3.475-1.437l-0.084-0.003
			L7992.605,4503.934z" style="stroke:black;fill:#219866"/><path id="180623065" parent_id="180623029" order="52" structure_id="328" d="M7705.37,4432.245
			c49.067-73.345,86.317-154.885,113.91-238.199c16.627-50.153,33.919-100.122,50.212-150.286l301.836,61.137
			c-46.559,139.261-104.716,274.516-178.723,399.037L7705.37,4432.245z" style="stroke:black;fill:#219866"/><path id="180623064" parent_id="180623029" order="53" structure_id="1101" d="M7484.023,4377.037
			c24.34-83.656,36.621-173.004,46.481-271.456c4.28-42.467,8.649-85.099,12.606-127.909l326.379,66.088
			c-16.293,50.164-33.584,100.133-50.211,150.286c-27.594,83.313-64.842,164.854-113.91,238.199l-0.084-0.003L7484.023,4377.037z" style="stroke:black;fill:#219866"/><path id="180623063" parent_id="180623029" order="54" structure_id="783" d="M7274.766,4107.563
			c-50.307-59.135-92.812-113.03-144.895-183.427c-0.091,0.249-0.098,0.5-0.104,0.751c0.859-9.849,1.475-19.872,2.013-30.146
			l2.757,0.16c31.1,39.855,139.71,240.258,184.284,100.104c6.7-21.231,8.769-41.337,8.063-61.103l216.229,43.77
			c-3.956,42.811-8.325,85.441-12.605,127.909c-9.86,98.452-22.144,187.8-46.482,271.456l-140.254-34.955l-0.75-0.104
			c7.165-40.881,11.564-84.601,5.064-121.512C7340.13,4175.734,7303.12,4140.816,7274.766,4107.563z" style="stroke:black;fill:#219866"/><path id="180623062" parent_id="180623029" order="55" structure_id="831" d="M7134.536,3894.898l192.351,38.92l-0.002,0.084
			c0.703,19.766-1.363,39.871-8.063,61.103C7274.246,4135.158,7165.635,3934.756,7134.536,3894.898z" style="stroke:black;fill:#219866"/><path id="180623061" parent_id="180623029" order="56" structure_id="704" d="M7865.548,4820.495
			c-31.22-8.569-60.722-21.774-90.049-35.144l0.802-1.734l15.727-14.872c77.613-79.911,143.775-169.177,200.578-264.813
			l182.047,45.41l0.084,0.002l3.474,1.437c-17.177,42.858-35.845,88.188-56.366,136.979
			c-28.854,68.471-51.23,138.795-87.034,216.525C7981.428,4877.359,7923.751,4836.512,7865.548,4820.495z" style="stroke:black;fill:#219866"/><path id="180623060" parent_id="180623029" order="57" structure_id="694" d="M7425.096,4686.716
			c39.854-39.968,94.93-61.772,138.676-97.365c55.559-45.052,102.313-98.465,141.517-157.108l0.083,0.004l287.234,71.688
			c-56.803,95.637-122.965,184.9-200.578,264.813l-15.727,14.873l-0.802,1.733c-25.774-11.765-51.465-23.608-78.24-32.556
			c-59.603-19.819-122.222-30.521-183.224-45.19l-91.974-20.138C7422.818,4687.322,7423.748,4687.014,7425.096,4686.716z" style="stroke:black;fill:#219866"/><path id="180623059" parent_id="180623029" order="58" structure_id="800" d="M7405.613,4686.256
			c-25.315-10.244-52.47-17.611-79.658-23.727c81.604-90.927,128.631-184.074,158.067-285.492l221.265,55.205
			c-39.205,58.644-85.959,112.057-141.517,157.107c-43.747,35.592-98.823,57.396-138.676,97.365
			c-1.349,0.298-2.276,0.605-3.033,0.752l-0.167-0.004l-1.08-0.281l-14.055-3.069L7405.613,4686.256z" style="stroke:black;fill:#219866"/><path id="180623058" parent_id="180623029" order="59" structure_id="675" d="M7218.479,4640.37
			c-47.967-11.128-99.969-15.508-144.744-36.001c-0.074,2.676-0.248,5.934-0.438,9.693c0.563-14.125,0.965-28.588,1.214-43.474
			c-0.033,4.183-0.144,8.11-0.246,11.79c43.349,2.716,92.749,19.322,134.138,5.334c61.486-20.707,111.076-133.693,123.457-190.577
			c3.737-17.047,7.776-35.843,11.16-55.159l0.75,0.104l140.254,34.955c-29.438,101.42-76.463,194.566-158.066,285.494
			C7288.71,4654.044,7251.396,4647.982,7218.479,4640.37z" style="stroke:black;fill:#219866"/><path id="180623033" parent_id="180623029" order="60" structure_id="698" d="M7865.575,4820.475
			c-35.467-9.75-68.666-25.504-102.108-40.668c-17.59-7.977-35.244-15.787-53.334-22.478c-4.246-1.569-8.516-3.079-12.813-4.515
			c-21.497-7.172-92.382-36.896-111.096-25.955c-0.104,0.062-0.205,0.123-0.306,0.187c-20.944,13.161-30.874,74.983-40.788,97.306
			c-15.393,34.656-30.249,67.371-51.618,99.03c-16.198,23.997-28.192,48.498-52.199,65.153
			c-23.292,16.162-47.946,30.418-72.813,44.014c-50.013,27.346-101.799,51.333-151.621,79.046
			c-77.275,42.985-148.317,91.758-208.821,156.511c-60.653,64.931-103.36,154.021-181.875,200.678
			c-40.123,23.841-97.228,14.146-140.726,26.007c-16.166,4.408-39.324,17.049-44.778,33.925
			c-15.839,48.923-11.401,103.629-24.271,154.029c-4.513,17.679-9.306,36.728-5.604,54.987
			c11.545,56.897,69.674,91.974,128.496,117.765c31.739,13.918,63.681,25.131,88.612,35.611c0.754,0.314,1.496,0.631,2.234,0.945
			c18.593,7.668,35.773,15.018,50.229,22.291c3.99,2.008,7.974,4.037,11.957,6.065c27.34,13.235,54.307,27.249,80.971,41.795
			c30.477,16.627,67.126,33.179,95.898,55.341c5.047,2.96,10.09,5.93,15.123,8.909c19.254,11.397,38.408,22.933,57.451,34.593
			c7.893-20.794,15.547-41.628,23.235-61.555c-0.008,0.018-0.011,0.023-0.019,0.039c1.51-3.342,23.349-55.362,24.854-58.941
			c9.151-21.861,27.769-47.423,44.138-64.745c32.694-34.612,58.881-52.981,95.742-82.597c13.91-11.164,27.147-24.098,39.617-36.836
			c8.178-8.352,11.172-15.293,20.483-22.391c-2.776-2.516-5.517-4.883-8.228-7.134c0.006,0.005,0.011,0.009,0.017,0.015
			c0.106,0.088,0.215,0.166,0.321,0.256c0.011,0.008,18.267-2.936,18.267-2.936c0.19-0.206,0.382-0.413,0.573-0.619
			c1.596-1.721,3.189-3.443,4.783-5.172c0.637-0.691,1.273-1.382,1.91-2.074c1.625-1.768,3.25-3.538,4.872-5.313
			c0.771-0.844,1.542-1.688,2.313-2.53c1.137-1.247,2.273-2.493,3.41-3.741c1.479-1.624,2.957-3.249,4.434-4.874
			c0.525-0.579,1.052-1.158,1.578-1.737c9.334-10.283,18.63-20.576,27.908-30.713c0.105-0.117,0.213-0.231,0.318-0.349
			c4.194-4.581,8.386-9.128,12.574-13.627c0.1-0.104,0.196-0.211,0.295-0.315c1.979-2.125,3.957-4.234,5.936-6.336
			c0.279-0.297,0.561-0.595,0.841-0.892c1.96-2.077,3.92-4.144,5.88-6.192c0.188-0.194,0.373-0.39,0.561-0.584
			c1.935-2.021,3.869-4.026,5.804-6.019c0.131-0.134,0.261-0.271,0.392-0.403c1.937-1.989,3.873-3.961,5.811-5.918
			c0.333-0.336,0.667-0.674,1.001-1.011c1.903-1.917,3.808-3.817,5.712-5.698c0.285-0.282,0.57-0.563,0.855-0.842
			c1.906-1.878,3.813-3.74,5.724-5.579c0.091-0.088,0.183-0.179,0.274-0.267c1.932-1.858,3.865-3.691,5.799-5.508
			c0.354-0.332,0.707-0.664,1.062-0.994c1.881-1.758,3.763-3.494,5.646-5.207c0.342-0.311,0.682-0.615,1.021-0.924
			c1.963-1.775,3.926-3.535,5.891-5.258c10.748-9.429,21.912-20.244,33.445-32.246c8.691-9.045,17.596-18.774,26.688-29.082
			c2.293-2.599,4.597-5.234,6.912-7.906c87.776-101.271,192.498-254.352,297.031-384.96c2.262-2.825,4.494-5.64,6.701-8.442
			c0.127-0.162,0.254-0.324,0.381-0.485c29.09-36.985,53.535-72.115,74.486-105.71c0.014-0.021,0.026-0.044,0.039-0.064
			c0.787-1.26,1.553-2.513,2.328-3.769c2.682-4.371,5.321-8.708,7.922-13.019c21.953-36.67,39.854-71.523,55.272-105.004
			c0.074-0.172,0.149-0.34,0.226-0.514C7981.424,4877.402,7923.771,4836.468,7865.575,4820.475z" style="stroke:black;fill:#9ad2bd"/><path id="180623057" parent_id="180623029" order="61" structure_id="276" d="M7865.575,4820.475
			c-35.467-9.75-68.666-25.504-102.108-40.668c2.871,6.898,5.756,13.795,8.658,20.72c12.268,29.255,13.156,60.26,18.82,90.883
			c11.086,59.938,9.165,102.172-19.465,156.628c-55.923,106.369-152.322,179.173-241.419,254.889
			c-33.001,28.045-66.828,53.801-103.735,76.41c-47.867,29.324-89.604,65.207-140.769,88.894
			c-70.965,32.856-142.192,66.679-206.944,110.882c-53.33,36.406-122.433,70.229-160.103,124.451
			c-29.312,42.189-57.37,89.593-74.099,138.284c-5.729,16.683-11.461,32.847-16.502,49.263c0.754,0.315,1.496,0.631,2.234,0.946
			c18.593,7.668,35.773,15.017,50.229,22.291c3.99,2.008,7.974,4.037,11.957,6.065c27.34,13.234,54.307,27.248,80.971,41.795
			c30.477,16.627,67.126,33.179,95.898,55.34c5.047,2.961,10.09,5.93,15.123,8.91c19.254,11.396,38.408,22.933,57.451,34.592
			c7.893-20.793,15.547-41.627,23.235-61.554c-0.062,0.135-0.099,0.211-0.101,0.209c-63.963-35.301-92.367-31.683-52.33-107.638
			c0.035-0.067,0.07-0.135,0.106-0.201c25.24-47.828,51.845-79.877,109.419-143.696c49.893-55.306,96.006-74.001,159.512-21.265
			c0.105,0.088,0.215,0.166,0.32,0.256c0.012,0.008,18.268-2.936,18.268-2.936c0.19-0.206,0.381-0.413,0.572-0.619
			c1.597-1.721,3.189-3.443,4.783-5.172c0.638-0.691,1.273-1.382,1.91-2.074c1.625-1.768,3.25-3.538,4.873-5.313
			c0.771-0.844,1.541-1.688,2.313-2.53c1.137-1.247,2.273-2.493,3.411-3.741c1.479-1.624,2.956-3.249,4.433-4.874
			c0.525-0.579,1.053-1.158,1.578-1.737c9.334-10.283,18.631-20.576,27.908-30.713c0.106-0.117,0.213-0.231,0.318-0.349
			c4.195-4.581,8.387-9.128,12.575-13.627c0.099-0.104,0.196-0.211,0.294-0.315c1.979-2.125,3.957-4.234,5.936-6.336
			c0.28-0.297,0.562-0.595,0.842-0.892c1.959-2.077,3.92-4.144,5.879-6.192c0.188-0.194,0.373-0.39,0.562-0.584
			c1.935-2.021,3.868-4.026,5.804-6.019c0.131-0.134,0.261-0.271,0.392-0.403c1.937-1.989,3.872-3.961,5.81-5.918
			c0.334-0.336,0.668-0.674,1.002-1.011c1.902-1.917,3.808-3.817,5.711-5.698c0.285-0.282,0.57-0.563,0.855-0.842
			c1.907-1.878,3.814-3.74,5.725-5.579c0.09-0.088,0.183-0.179,0.273-0.267c1.932-1.858,3.865-3.691,5.8-5.508
			c0.354-0.332,0.707-0.664,1.062-0.994c1.881-1.758,3.763-3.494,5.646-5.207c0.341-0.311,0.681-0.615,1.021-0.924
			c1.963-1.775,3.926-3.535,5.892-5.258c10.748-9.429,21.912-20.244,33.444-32.246c8.691-9.045,17.597-18.774,26.688-29.082
			c2.292-2.599,4.597-5.234,6.912-7.906c87.776-101.271,192.498-254.352,297.031-384.96c2.263-2.825,4.494-5.64,6.701-8.442
			c0.127-0.162,0.254-0.324,0.381-0.485c29.09-36.985,53.535-72.115,74.485-105.71c0.015-0.021,0.027-0.044,0.041-0.064
			c0.785-1.26,1.551-2.513,2.326-3.769c2.683-4.371,5.322-8.708,7.924-13.019c21.951-36.67,39.853-71.523,55.271-105.004
			c0.074-0.172,0.15-0.34,0.225-0.514C7981.424,4877.402,7923.771,4836.468,7865.575,4820.475z" style="stroke:black;fill:#6acbba"/><path id="180623056" parent_id="180623029" order="62" structure_id="284" d="M6918.512,5703.561
			c37.67-54.222,106.771-88.045,160.103-124.451c64.752-44.203,135.979-78.023,206.944-110.881
			c51.162-23.688,92.9-59.569,140.769-88.894c36.907-22.608,70.733-48.366,103.735-76.411
			c89.097-75.715,185.496-148.52,241.418-254.889c28.631-54.455,30.551-96.688,19.465-156.627
			c-5.664-30.623-6.554-61.629-18.819-90.883c-2.903-6.924-5.787-13.82-8.659-20.721c-17.589-7.977-35.244-15.787-53.333-22.477
			c-1.229,18.316-2.76,36.453-5.703,54.931c-5.414,33.979-6.397,67.437-17.903,100.347
			c-34.711,99.291-105.332,172.045-186.479,235.94c-67.238,52.942-142.361,97.854-219.438,134.864
			c-52.771,25.336-104.455,36.432-156.4,66.813c-40.637,23.771-80.169,49.287-117.539,78.065
			c-37.979,29.248-79.258,56.807-112.807,91.961c-16.672,17.47-34.853,38.121-44.646,60.477
			c-31.422,71.727-85.846,142.085-98.975,220.354c-2.858,17.047-8.252,35.771-10.945,54.414
			c31.738,13.916,63.682,25.131,88.613,35.61c5.041-16.417,10.771-32.581,16.502-49.263
			C6861.141,5793.152,6889.2,5745.751,6918.512,5703.561z" style="stroke:black;fill:#6acbba"/><path id="180623055" parent_id="180623029" order="63" structure_id="291" d="M6849.218,5580.729
			c9.794-22.354,27.974-43.006,44.646-60.477c33.549-35.154,74.83-62.713,112.808-91.96c37.37-28.778,76.901-54.295,117.539-78.065
			c51.944-30.383,103.63-41.479,156.399-66.814c77.076-37.01,152.199-81.921,219.438-134.863
			c81.146-63.896,151.769-136.65,186.479-235.941c11.504-32.909,12.488-66.365,17.902-100.346
			c2.943-18.478,4.475-36.613,5.703-54.932c-4.246-1.57-8.516-3.079-12.813-4.514c-21.498-7.174-92.383-36.896-111.096-25.955
			c-0.104,0.061-0.205,0.121-0.307,0.186c-20.943,13.161-30.873,74.982-40.787,97.307c-15.394,34.655-30.25,67.371-51.619,99.029
			c-16.197,23.997-28.191,48.498-52.199,65.154c-23.291,16.16-47.945,30.418-72.813,44.013
			c-50.014,27.345-101.799,51.333-151.621,79.046c-77.275,42.984-148.318,91.758-208.822,156.512
			c-60.652,64.93-103.359,154.021-181.875,200.677c-40.123,23.841-97.227,14.146-140.725,26.007
			c-16.167,4.408-39.325,17.049-44.779,33.925c-15.838,48.923-11.401,103.629-24.271,154.028
			c-4.513,17.68-9.306,36.729-5.604,54.988c11.545,56.896,69.674,91.973,128.496,117.766c2.694-18.645,8.088-37.367,10.946-54.414
			C6763.372,5722.813,6817.796,5652.454,6849.218,5580.729z" style="stroke:black;fill:#6acbba"/><path id="180623052" parent_id="180623029" order="64" structure_id="19" d="M4706.674,2952.073c7.82-20.798,20.158-42.628,8.561-56.921
			c-42.402-52.268-94.856,78.957-63.791,87.456C4673.635,2988.672,4699.246,2971.854,4706.674,2952.073z" style="stroke:black;fill:#7ed04b"/><path id="180623054" parent_id="180623029" order="65" structure_id="583" d="M7208.395,4587.7
			c61.498-20.771,111.096-133.737,123.494-190.569c11.584-53.086,25.813-122.318,16.196-176.721
			c-7.905-44.738-44.927-79.623-73.245-112.887c-45.725-53.688-106.953-132.248-144.971-183.422
			c-10.334,119.114-42.435,246.047-48.359,366.446c-2.842,57.784-3.941,114.124-5.096,174.367
			c-0.605,31.616-1.179,84.374-2.104,117.465C7117.674,4585.046,7167.02,4601.66,7208.395,4587.7z" style="stroke:black;fill:#8ada87"/><path id="180623053" parent_id="180623029" order="66" structure_id="952" d="M6794.891,5451.934
			c83.523-34.895,130.013-129.035,189.252-192.063c46.834-49.813,98.037-95.568,155.834-132.348
			c87.762-55.852,186.49-92.189,273.934-148.23c70.854-45.404,159.602-112.271,93.793-214.523
			c-60.146-93.453-193.298-102.152-289.229-124.42c-47.92-11.127-99.928-15.49-144.726-36.028
			c-0.83,22.992-9.759,142.956-12.269,154.194c-0.067,0.307-24.16,113.81-80.071,220.861
			c-63.585,121.753-133.983,224.609-215.685,334.198c-35.308,47.369-87.438,99.938-103.77,158.192
			C6700.357,5470.016,6758.512,5467.125,6794.891,5451.934z" style="stroke:black;fill:#a0ee9d"/><path id="180623034" parent_id="180623029" order="67" structure_id="672" d="M7040.426,4763.508c0.23,2.701,30.488-563.12,30.475-567.389
			c-1.344-326.336-5.737-537.446-95.619-795.405c-120.684-346.376-495.75-542.195-831.015-636.534
			c-87.091-24.51-250.905-56.37-407.603-0.438c-130.84,76.506-204.978,123.984-253.317,158.168
			c-74.31,54.881-125.354,117.564-153.058,163.061c-107.742,176.898-64.146,241.063-64.854,449.988
			c-0.853,252.978,66.177,476.652,79.381,753.195c0.783,16.361,3.022,34.405,2.599,49.406
			c108.707-11.512,226.836-4.727,315.467,65.033c74.58,58.704,132.252,136.691,208.074,194.4
			c106.506,81.062,203.394,139.609,318.127,192.948c140.416,65.271,204.422,93,386.646,136.288
			c132.992,31.602,226.872,64.908,345.146,123.984c0,0,31.664-60.479,82.535-159.459
			C7022.758,4853.104,7030.758,4809.948,7040.426,4763.508z" style="stroke:black;fill:#98d6f9"/><path id="180623035" parent_id="180623029" order="68" structure_id="56" d="M6566.816,4945.514
			c-182.217-43.291-246.231-71.021-386.639-136.291c-114.732-53.34-211.621-111.89-318.127-192.948
			c-151.635-115.407-235.381-309.865-488.777-261.511l-23.926,4.536c10.375,161.864,36.47,291.955,26.854,452.571
			c-18.729-153.211-19.755-226.614-35.711-369.129c-5.052-45.158-25.549-94.23-38.038-139.807c0,0-122.144,114.213-156.917,155.291
			c-95.331,112.566-222.096,222.598-259.943,370.621c-42.377,165.732-23.885,337.086,16.726,499.68
			c65.216,261.187,216.692,479.224,407.138,671.053c16.09,16.204,69.666,74.576,110.508,123.837
			c40.834,49.272,60.58,89.216,93.205,58.368c22.912-21.684,18.369-64.055,49.146-79.223
			c47.676-23.457,102.771,29.74,138.217,54.237c65.913,45.551,157.845,60.38,236.437,72.142
			c81.854,12.24,113.324-92.276,199.664-109.474c82.013-16.333,222.707,98.461,252.599,17.511
			c21.851-59.174,13.671-144.935,28.515-197.854c24.469-87.242,73.498-86.319,121.131-135.87
			c102.342-106.745,34.854-250.813,111.943-370.139c99.1-153.414,196.957-262.231,261.152-363.619
			C6793.695,5010.422,6699.809,4977.111,6566.816,4945.514z M4963.552,5183.052c-83.623,32.903-91.574-208.257-88.519-245.806
			c2.883-35.625,9.465-112.549,50.898-121.629c82.816-17.992,85.329,120.403,87.423,172.854
			C5015.055,5031.127,5012.443,5163.786,4963.552,5183.052z" style="stroke:black;fill:#80cdf8"/><path id="180623046" parent_id="180623029" order="69" structure_id="481" d="M5271.396,6212.465
			c-23.826-32.195-55.231-45.682-86.894-64.984c-32.101-14.773-64.74-25.896-82.312-30.138l-0.08,2.792
			c-53.623-0.509-90.181,27.273-81.155,68.184c2.84,12.873,10.183,27.043,22.94,42.045c15.654,18.41,36.142,26.701,58.229,30.244
			c24.104,3.867,50.116,2.078,73.854,1.6C5197.874,6261.766,5286.979,6253.188,5271.396,6212.465z" style="stroke:black;fill:#80cdf8"/><path id="180623047" parent_id="180623029" order="70" structure_id="481" d="M5752.889,6479.488
			c-7.947-34.986-25.449-66.693-57.699-85.347c-19.756-11.419-73.28-20.209-82.615,9.278c-4.853,15.324,9.494,33.545,22.789,48.192
			c5.676,6.254,11.158,11.856,14.875,16.304c33.862,40.522-10.377,187.094,28.254,204.646
			c44.434,20.193,74.326-79.249,77.694-107.13C5759.496,6538.07,5759.3,6507.713,5752.889,6479.488z" style="stroke:black;fill:#80cdf8"/><path id="180623048" parent_id="180623029" order="71" structure_id="481" d="M6150.564,6277.768
			c-12.059,1.34-13.662,51.379-28.074,54.918c-16.571,4.061-38.902-44.61-51.777-43.28c-120.607,12.442-28.648,103.08,49.09,108.647
			c35.311,2.527,67.688-12.492,75.878-60.36c0.25-1.478,0.479-2.908,0.701-4.317
			C6206.361,6269.611,6186.436,6273.795,6150.564,6277.768z" style="stroke:black;fill:#80cdf8"/><path id="180623049" parent_id="180623029" order="72" structure_id="481" d="M6608.576,6685.043
			c17.857-38.876-20.145-104.091-50.432-125.076c-34.895-24.171-75.194-26.064-113.824-11.229
			c-42.686,16.399-94.567,36.924-129,68.098c-23.951,21.688-65.332,93.201-22.287,114.191c23.912,11.664,43.643-10.313,70.209,5.301
			c33.94,19.938,92.832,25.992,145.283,14.938c18.108-5.779,35.959-12.16,53.492-19.195
			C6582.715,6720.645,6599.368,6705.093,6608.576,6685.043z" style="stroke:black;fill:#80cdf8"/><path id="180623050" parent_id="180623029" order="73" structure_id="481" d="M6859.006,6341.91
			c-43.258-24.234-119.527,1.396-124.113,57.73c-2.693,33.181,10.59,75.392,49.227,81.08
			c55.646,8.179,120.467-51.97,107.385-101.129C6887.745,6365.506,6877.607,6352.324,6859.006,6341.91z" style="stroke:black;fill:#80cdf8"/><path id="180623051" parent_id="180623029" order="74" structure_id="489" d="M4925.934,4815.618
			c-41.435,9.08-48.017,86.004-50.899,121.628c-3.056,37.549,4.896,278.709,88.519,245.807
			c48.893-19.267,51.504-151.926,49.805-194.582C5011.262,4936.021,5008.75,4797.626,4925.934,4815.618z" style="stroke:black;fill:#80cdf8"/><path id="180623045" parent_id="180623029" order="75" structure_id="458" d="M7050.65,6027.152
			c-7.17,16.143-21.922,35.978-29.789,48.396c-15,23.678-33.988,44.546-50.08,67.447c-26.191,37.272-61.51,68.772-92.859,101.549
			c-27.16,28.396-58.975,51.931-90.827,74.729c-62.171,44.5-130.129,79.669-198.878,112.763
			c-68.546,32.996-115.994,96.146-184.909,127.308c-55.851,25.258-103.674,67.274-158.524,92.248
			c-63.18,28.76-130.686,24.845-198.196,21.437c-67.819-3.42-125.748,15.211-191.812,25.795
			c-60.553,9.713-122.996,1.02-177.349-24.824c-52.563-24.986-109.707-36.6-164.456-57.695
			c-45.451-17.521-95.46-26.909-134.494-57.102c-70.129-54.254-117.784-135.586-182.413-197.154
			c-33.295-31.718-60.783-68.881-93.937-101.441c-22.088-3.543-42.574-11.834-58.229-30.244
			c-12.759-15.002-20.102-29.172-22.941-42.045c-7.143-9.666-13.019-20.178-19.227-30.516
			c-16.127,20.742-22.938,39.279-22.938,39.279s141.215,182.973,287.686,329.229c88.04,87.906,109.497,109.355,266.048,197.318
			c97.317,54.672,238.329,61.23,238.329,61.23c197.659,12.467,491.654,44.936,737.672-33.596
			c-52.452,11.056-111.343,5.002-145.284-14.937c-26.565-15.612-46.297,6.362-70.208-5.302
			c-43.045-20.99-1.664-92.503,22.286-114.191c34.433-31.172,86.315-51.696,129-68.097c38.63-14.837,78.931-12.942,113.824,11.228
			c30.288,20.985,68.29,86.201,50.433,125.076c-9.209,20.051-25.861,35.603-46.56,47.027c31.112-12.486,61.229-27.027,90.021-43.925
			c136.094-79.871,296.709-288.735,432.354-502.481c22.096-34.804,31.794-57.533,48.883-102.545
			C7135.318,6077.719,7097.302,6053.854,7050.65,6027.152z M6784.118,6480.723c-38.636-5.689-51.92-47.9-49.228-81.08
			c4.586-56.336,80.856-81.967,124.114-57.731c18.603,10.414,28.739,23.597,32.497,37.683
			C6904.585,6428.752,6839.764,6488.898,6784.118,6480.723z" style="stroke:black;fill:#80cdf8"/><path id="180623043" parent_id="180623029" order="76" structure_id="465" d="M5102.113,6120.135l0.08-2.792
			c17.569,4.242,50.211,15.362,82.311,30.138c-7.05-4.299-14.111-8.883-21.105-14.027c-12.496-9.195-24.117-21.088-36.072-32.205
			c-5.131,1.1-10.233,2.203-15.303,3.143c-19.258,3.565-40.883,1.93-58.754,10.642c-22.855,11.144-39.705,27.551-51.539,42.772
			c6.209,10.338,12.084,20.85,19.228,30.515C5011.934,6147.408,5048.49,6119.626,5102.113,6120.135z" style="stroke:black;fill:#80cdf8"/><path id="180623044" parent_id="180623029" order="77" structure_id="465" d="M6813.128,6158.885
			c-54.194,48.719-112.362,87.338-174.544,124.963c-34.188,20.688-70.216,39.496-102.264,62.793
			c-20.308,14.764-41.851,29.174-60.396,46.084c-10.986,10.018-19.822,23.146-32.848,30.652
			c-36.961,21.301-97.6,25.66-139.205,32.252c-34.185,5.416-69.099,2.742-103.313,7.887
			c-87.251,13.12-174.185,23.012-263.633,22.986c-44.563-0.012-90.151,2.196-134.089-2.127c-17.085-1.682-33.381-3.498-49.949-4.887
			c6.412,28.225,6.607,58.581,3.299,85.943c-3.368,27.881-33.262,127.323-77.693,107.131
			c-38.631-17.554,5.607-164.123-28.256-204.646c-3.715-4.447-9.199-10.05-14.875-16.305c-25.562-3.578-51.728-6.115-74.899-13.666
			c-26.089-8.502-41.983-42.711-52.854-67.205c-14.133-31.847-31.959-65.063-54.504-91.838
			c-10.77-12.789-21.293-22.201-37.229-27.961c-27.83-10.06-46.482-8.348-74.271-4.229c-21.228,3.146-46.533,2.54-58.436-18.343
			c0,0-11.752-15.88-11.771-15.906c15.582,40.723-73.521,49.301-95.414,49.742c-23.737,0.479-49.75,2.268-73.854-1.6
			c33.151,32.561,60.642,69.725,93.937,101.441c64.629,61.567,112.283,142.899,182.412,197.153
			c39.035,30.192,89.043,39.579,134.494,57.103c54.75,21.097,111.895,32.709,164.457,57.695
			c54.352,25.843,116.795,34.536,177.349,24.823c66.063-10.584,123.99-29.215,191.812-25.794
			c67.512,3.407,135.018,7.323,198.195-21.438c54.852-24.973,102.676-66.99,158.525-92.248
			c68.914-31.16,116.362-94.312,184.908-127.308c68.75-33.093,136.707-68.263,198.879-112.763
			c31.853-22.799,63.666-46.332,90.826-74.729c31.352-32.774,66.668-64.274,92.859-101.549
			c16.092-22.901,35.081-43.771,50.08-67.446c7.867-12.42,22.619-32.256,29.79-48.396c-33.435-19.137-71.304-39.729-102.035-56.025
			c-24.681,24.998-41.074,45.601-56.653,80.207C6872.281,6095.059,6849.128,6126.523,6813.128,6158.885z" style="stroke:black;fill:#80cdf8"/><path id="180623042" parent_id="180623029" order="78" structure_id="473" d="M5184.504,6147.479
			c39.412,18.14,78.008,41.787,86.893,64.985c0.021,0.026,11.771,15.905,11.771,15.905c11.902,20.883,37.208,21.487,58.436,18.344
			c27.789-4.117,46.441-5.83,74.271,4.229c15.936,5.76,26.459,15.172,37.229,27.962c22.545,26.772,40.371,59.991,54.504,91.837
			c10.871,24.494,26.767,58.703,52.854,67.205c23.173,7.551,49.339,10.088,74.899,13.667
			c-13.293-14.647-27.641-32.868-22.789-48.192c9.336-29.487,62.86-20.697,82.615-9.278c32.25,18.651,49.752,50.358,57.699,85.347
			c16.568,1.389,32.864,3.205,49.949,4.888c43.938,4.323,89.524,2.115,134.09,2.127c89.449,0.024,176.381-9.867,263.633-22.987
			c34.215-5.145,69.129-2.471,103.313-7.887c41.605-6.591,102.245-10.951,139.205-32.251c13.025-7.507,21.861-20.636,32.848-30.653
			c18.547-16.91,40.09-31.319,60.396-46.084c32.048-23.297,68.075-42.104,102.264-62.793
			c62.183-37.625,120.351-76.244,174.545-124.963c36-32.36,59.152-63.826,78.834-107.551c15.58-34.605,31.974-55.209,56.653-80.205
			c-30.128-15.977-53.397-27.821-58.909-30.115c-24.893-10.389-50.578-19.612-76.189-28.016c-55.61-18.243-3.569,30.521,9.85,47.314
			c16.934,21.194,30.034,45.32,33.119,72.629c10.979,97.129-58.169,120.592-115.034,149.424
			c-101.597,51.518-157.599,25.783-220.81,117.246c-47.021,68.063-173.879,161.315-262.254,103.537
			c-24.461-15.992-36.51-45.683-57.988-65.576c-1.421-1.316-2.747-2.73-4.018-4.199c-0.222,1.41-0.451,2.84-0.701,4.317
			c-8.191,47.869-40.567,62.89-75.879,60.36c-3.43-0.069-7.021-0.398-10.789-1.028c-31.729-5.308-84.533-28.633-97.232-62.856
			c-0.482-1.305-0.909-2.623-1.273-3.959c3.334,25.637,6.521,57.67-0.42,82.742c-11.643,42.063-82.174,46.756-163.645,17.992
			c-56.221-19.849-114.518-40.543-140.876-48.553c-31.263-9.492-68.03,0.438-106.054,2.619
			c-37.353,2.146-93.689-40.738-91.797-108.539c0.777-27.847-13.849-56.025-39.844-66.912
			c-23.617-9.892-50.619-20.638-76.553-21.104c-24.793-0.443-43.707,13.104-66.644-0.798
			c-46.793-28.356-86.513-80.286-143.39-90.699c-18.043-3.304-36.158,0.474-53.963,4.29c11.955,11.117,23.576,23.01,36.072,32.205
			C5170.393,6138.598,5177.454,6143.182,5184.504,6147.479z" style="stroke:black;fill:#80cdf8"/><path id="180623040" parent_id="180623029" order="79" structure_id="250" d="M4567.208,3355.497c16.966-2.272,33.955-4.411,50.997-6.009
			c53.163-4.996,112.779-1.15,160.445,25.427c17.92,9.995,36.621,24.585,49.824,40.406l28.742,48.534
			c63.617,0.092,143.771,38.205,194.229,74.741c60.563,43.857,110.484,105.345,140.734,173.702
			c20.688,46.727,29.936,97.362,49.935,144.39c14.349,33.767,31.146,66.754,48.717,98.954l5.34,31.59
			c-8.558-85.398-17.765-161.284-36.28-253.721c-19.904-99.376-51.097-145.04-105.906-230.611
			c-50.688-79.141-108.678-174.887-108.678-174.887l-1.01-3.441c-40.202,11.486-111.721,3.515-162.186,5.163
			c-138.176,4.511-163.729-2.706-313.371,17.75" style="stroke:black;fill:#90cbed"/><path id="180623039" parent_id="180623029" order="80" structure_id="258" d="M4540.855,4346.373
			c11.965-3.854,106.918,35.2,126.184,94.302c19.266,59.104,35.961,210.172,52.617,288.026
			c16.711,78.129,48.963,269.101,89.23,399.905c20.139,65.403,36.42,100.37,43.42,93.248c6.992-7.128,1.104-39.715-0.172-69.03
			c-1.179-27.158-15.248-128.02-8.679-213.592c6.577-85.576,18.892-152.166,73.647-240.576
			c66.573-107.481,313.941-356.576,313.941-356.576c16.867-29.514,67.548-46.922,62.331-84.719
			c-7.472-54.086,18.649-106.059,12.965-164.883l-10.171-105.248l-5.34-31.59c-17.57-32.2-34.368-65.188-48.717-98.955
			c-19.999-47.026-29.246-97.664-49.936-144.39c-30.25-68.356-80.172-129.845-140.733-173.702
			c-50.459-36.535-130.612-74.649-194.229-74.74l11.883,42.874c9.5,57.793-4.519,119.999-38.269,164.796
			c-56.239,74.636-135.856,129.236-198.168,198.523c-15.271,16.98-31.841,32.774-46.665,50.157
			c-14.917,17.47-24.684,35.604-34.648,56.013L4540.855,4346.373z" style="stroke:black;fill:#90cbed"/><path id="180623041" parent_id="180623029" order="81" structure_id="333" d="M4828.475,3415.32
			c59.732,71.629,55.582,185.565,2.356,256.204c-56.239,74.636-135.856,129.237-198.168,198.523
			c-15.271,16.98-31.841,32.774-46.665,50.157c-14.917,17.47-24.684,35.604-34.648,56.013c-0.746-14.842,0.209-30.051,0.33-44.952
			c0.266-35.102,3.826-69.646,3.727-104.869c-0.051-19.088,3.137-128.012,4.734-163.082c1.701-36.818,9.479-308.143,7.067-307.818
			c16.966-2.271,33.955-4.411,50.997-6.009c53.163-4.996,112.779-1.15,160.445,25.427
			C4796.57,3384.909,4815.271,3399.5,4828.475,3415.32z" style="stroke:black;fill:#90cbed"/><path id="180623036" parent_id="180623029" order="82" structure_id="342" d="M6641.823,5811.706
			c-54.172-57.283-184.304,63.972-207.905,148.031c-14.865,52.925-8.668,135.179-30.525,194.368
			c-29.893,80.954-172.727-31.803-254.738-15.471c-86.34,17.201-120.504,120.742-209.996,106.287
			c-78.453-12.67-168.144-25.742-234.057-71.291c-100.914-69.736-140.536-73.629-174.83,30.69
			c-23.335,70.979,20.252,184.272,81.311,159.146c38.09-15.668,62.856-8.955,94.11,0.533
			c58.478,17.762,262.315,107.239,282.967,53.918c24.081-62.225-27.069-154.959,128.212-172.123
			c108.121-11.957,86.834,96.983,152.953,140.229c88.374,57.783,192.008-27.756,239.037-95.818
			c63.202-91.463,117.375-70.819,218.971-122.336c56.867-28.84,119.334-41.172,108.33-138.351
			C6827.266,5955.29,6704.369,5877.844,6641.823,5811.706z" style="stroke:black;fill:#a2b1d8"/><path id="180623038" parent_id="180623029" order="83" structure_id="564" d="M4560,5239.471
			c60.12-16.703,94.745-34.386,137.507-53.344c29.47-13.064,71.217-35.439,94.325-48.087c-8.169-24.388-16.823-50.759-26.126-79.662
			c-19.25-59.815-73.397-292.788-89.173-401.997c-14.801-102.428-7.289-263.498-136.518-279.656c0,0-9.203,329.814-21.145,757.492
			c-0.902,32.302-1.951,69.893-3.086,110.52C4530.163,5244.748,4545.717,5243.439,4560,5239.471z" style="stroke:black;fill:#96a7d3"/><path id="180623037" parent_id="180623029" order="84" structure_id="596" d="M5248.557,5969.18
			c-124.494-133.24-197.99-218.306-290.396-375.058c-4.633-7.858-7.817-44.129-7.817-44.129c-2.526-5.965-5.029-12.009-7.51-18.14
			c-61.935-153.086-95.051-226.78-151-393.813c-23.108,12.647-64.855,35.021-94.326,48.087
			c-42.762,18.958-77.387,36.641-137.506,53.344c-14.283,3.97-29.838,5.277-44.215,5.267
			c-6.584,235.847-16.03,574.161-16.082,575.929c27.268,3.572,50.723,20.08,54.664,22.436
			c19.217,11.496,34.845,25.273,52.268,39.273c26.041,20.932,56.384,31.185,83.786,50.357
			c15.172,10.609,30.923,19.443,44.577,31.734c27.384,24.679,57.992,44.434,85.471,69.559c29.14,26.657,57.364,54.323,84.404,83.118
			c35.486,37.792,35.486,37.792,53.561,58.226c43.785-69.894,67.053-82.732,123.602-85.34c23.998-1.103,79.591-12.586,125.523,5.944
			c55.506,22.384,106.91,79.22,143.903,83.149c16.403,1.74,29.226-7.385,36.056-17.816
			C5412.45,6123.216,5275.255,5997.752,5248.557,5969.18z" style="stroke:black;fill:#96a7d3"/><path id="180623117" parent_id="180623029" order="85" structure_id="1009" d="M4882.189,3329.775
			c-129.387,7.35-179.576-5.013-313.41,17.774l8.821-366.967c0.418,0.011,0.836,0.022,1.254,0.034
			c25.56,1.551,51.132,2.6,76.562,2.808c3.748,0.605,7.513,0.628,11.209,0.062c23.342,0.066,46.619-0.623,69.754-2.152
			c44.174-2.867,87.931-8.841,130.973-19.186c21.057-5.018,41.891-11.046,62.596-18.416c16.476-5.732,32.804-12.22,48.988-19.549
			c161.173-73.061,257.229-196.131,350.725-326.467c32.903-45.768,65.496-92.379,100.49-138.09
			c10.25-13.519,20.832-26.945,31.662-40.279c9.529-11.698,19.52-21.877,29.976-30.789c34.799-29.734,74.545-44.856,117.092-49.441
			c156.099-17.145,350.198,105.992,478.806,162.543c33.971,14.92,67.765,30.171,101.295,45.833
			c186.25,86.69,365.361,186.233,518.354,316.339c92.271,78.377,174.948,167.782,244.153,272.206l-0.002,0.083
			c25.205,38.186,48.684,78.332,70.09,120.68c46.705,92.249,75.17,187.503,91.562,292.712
			c14.253,91.845,19.423,191.386,19.646,303.255c0.013,14.559-0.293,28.521-1.004,41.974c-0.537,10.274-1.151,20.299-2.013,30.146
			c-3.763,17.884-4.913,41.11-7.442,62.793c-9.115,62.83-22.651,125.118-32.486,210.687c-0.328,2.752-0.654,5.504-0.984,8.34
			c-0.104,0.75-0.211,1.5-0.232,2.336c-3.266,27.017-5.781,54.222-7.129,81.543c-2.876,58.067-4.127,114.844-4.961,168.701
			c-0.055,1.922-0.104,3.763-0.158,5.686c-0.191,9.867-0.357,21.827-0.548,34.622c-0.063,5.271-0.209,10.453-0.271,15.64
			c-0.28,19.067-0.58,38.805-1.043,55.357c-0.248,14.887-0.651,29.35-1.213,43.473c-0.008,0.252-0.018,0.586-0.023,0.836
			c-1.877,37.264-8.473,120.662-11.279,140.33l-0.002,0.082c-0.109,0.918-0.217,1.752-0.406,2.584
			c-0.008,0.25-0.098,0.498-0.104,0.666c0.176,2.683,9.39-558.131,9.424-562.396c-1.349-326.338-5.746-537.468-95.684-795.413
			c-120.684-346.402-495.732-542.192-831.029-636.558c-393.24-110.625-646.191,88.135-903.771,359.806
			c-53.968,57.061-111.362,129.001-182.202,193.958C5035.639,3338.661,4909.677,3328.201,4882.189,3329.775z" style="stroke:black;fill:#cccccc"/><path id="180623118" parent_id="180623029" order="86" structure_id="1009" d="M5566.049,4779.52
			c39.29-63.276,149.957-8.002,179.012,31.494c39.006,53.063,61.098,109.076,91.351,174.067
			c18.058,38.78,70.396,126.065,37.417,108.411c-103.689-52.621-199.748,58.956-286.749-67.968
			C5533.482,4947.335,5526.77,4842.792,5566.049,4779.52z" style="stroke:black;fill:#cccccc"/><path id="180623119" parent_id="180623029" order="87" structure_id="1009" d="M7389.827,5734.023
			c-67.796-61.398-115.704-43.518-167.722,14.145c-57.655,63.91-84.254,95.957-109.526,143.896
			c-40.037,75.955-11.632,72.338,52.33,107.639c0.097,0.055,23.38-55.413,24.938-59.111c9.151-21.861,27.768-47.424,44.137-64.746
			c32.695-34.611,58.881-52.981,95.743-82.596c13.909-11.164,27.147-24.098,39.616-36.836
			C7377.521,5748.063,7380.516,5741.12,7389.827,5734.023" style="stroke:black;fill:#cccccc"/><path id="180623116" parent_id="180623029" order="88" structure_id="81" d="M5750.557,2758.746c1.613-0.51,3.155-1.318,4.879-1.304
			c-5.742,2-11.486,3.407-17.127,5.897c-3.08,1.359-6.06,3.022-9.014,4.648c-12.798,7.015-24.775,15.601-37.534,22.877
			c-7.163,4.088-14.22,8.083-21.271,12.443c-29.756,18.387-60.207,34.746-89.422,54.135c-44.194,29.326-56.754,34.21-97.723,64.469
			c-74.309,54.88-125.355,117.564-153.059,163.061c-107.742,176.897-64.146,241.063-64.854,449.987
			c-0.854,252.979,66.177,476.652,79.373,753.122c2.971,62.078,6.967,124.744,13.604,186.104
			c2.138,19.678,11.521,103.18,13.209,124.668c3.623,45.89,6.244,91.891,6.502,137.938c0.068,12.714-0.041,25.434-0.363,38.145
			c-0.291,11.783-2.973,25.287-1.557,36.938c-18.728-153.211-19.754-226.613-35.711-369.128
			c-6.805-60.726-41.519-128.53-47.112-185.38c-5.347-54.337,18.649-106.059,12.965-164.883
			c-12.983-134.226-20.751-230.66-46.451-358.969c-19.897-99.353-51.081-145.007-105.858-230.547
			c-37.371-58.332-81.444-116.071-109.522-179.328c42.414-19.306,74.991-64.463,104.826-98.731
			c59.05-67.826,117.347-132.167,182.29-193.583c48.963-46.3,93.947-85.588,144.975-125.701
			c15.043-11.82,30.287-23.404,45.726-34.757C5597.396,2815.643,5663.934,2785.905,5750.557,2758.746z" style="stroke:black;fill:#aaaaaa"/></g>
</g>
</svg>