<svg width="6768" height="5824" xmlns="http://www.w3.org/2000/svg">
<g transform="scale(1.0)">
<g id="180610255" order="1" parent_id="" graphic_group_label_id="28" graphic_group_label="Atlas - Adult Mouse" sub_image_id="100960413" transform=" scale(1.0, 1.0)"><path id="180610257" parent_id="180610255" order="0" structure_id="8" d="M5807.322,1520.873
			c-171.742-163.458-366.576-293.085-577.271-404.721c-147.4-78.199-308.201-127.589-468.813-174.13
			c-40.179-11.554-80.276-23.019-120.195-34.726c-13.338-3.848-26.587-7.774-39.837-11.703
			c-29.214-8.659-58.875-16.758-89.003-23.877c0,0-0.004,0.084-0.083-0.004c-11.972-2.776-24.03-5.474-36.181-8.01
			c0,0,0,0-0.084-0.003c-12.066-2.531-24.229-4.816-36.48-7.023c-18.299-3.18-36.781-6.036-55.289-8.391
			c-12.284-1.54-24.581-2.83-36.887-3.953c-122.896-11.056-246.625,0.982-360.058,53.886c-12.063,5.654-24.322,11.885-36.694,18.692
			c-106.033,58.54-218.587,158.514-294.723,266.76c-29.426,41.78-53.402,84.838-69.489,127.126
			c-37.005,97.528-56.12,201.391-67.522,304.723c-12.526,113.968-11.919,229.184-11.223,344.32
			c0.379,76.781,0.846,153.484-2.68,229.817c-8.454,187.093-21.958,374.934-24.988,562.134
			c-0.611,38.559-2.574,77.384-3.013,115.785c-1.379,108.266,8.771,213.189,91.871,297.66
			c91.091,92.616,202.082,78.34,324.667,54.027c-51.869,13.008-104.125,14.344-156.076,26.604
			c-118.525,28.04-184.909,169.415-210.713,273.519c-38.554,155.508-64.85,311.395-73.429,472.169
			c-20.515,384.587-1.883,1042.61,439.832,1182.188c194.804,61.555,399.253-4.93,578.618-76.479
			c165.002-65.823,316.156-142.158,434.328-279.311c202.555-235.102,434.49-547.705,495.77-857.097
			c13.24-66.838,71.172-242.205,23.324-325.198c-23.069-40.018-57.938-68.169-95.989-92.593
			c77.235,37.938,157.293,53.419,237.054,15.976c127.486-59.961,187.246-158.177,259.346-274.145
			c2.363-3.807,4.732-7.696,7.184-11.582c57.453-92.234,112.693-187.003,157.66-286.719
			c45.713-101.265,69.478-204.557,95.775-311.73c21.025-85.472,33.336-176.982,36.32-270.717
			C6132.7,2083.677,6034.854,1737.352,5807.322,1520.873z" style="stroke:black;fill:#bfdae3"/><path id="180610258" parent_id="180610255" order="1" structure_id="688" d="M5807.322,1520.873
			c-171.742-163.458-366.576-293.085-577.271-404.721c-147.4-78.199-308.201-127.589-468.813-174.13
			c-40.179-11.554-80.276-23.019-120.195-34.726c-13.338-3.848-26.587-7.774-39.837-11.703
			c-29.214-8.659-58.875-16.758-89.003-23.877c0,0-0.004,0.084-0.083-0.004c-11.972-2.776-24.03-5.474-36.181-8.01
			c0,0,0,0-0.084-0.003c-12.066-2.531-24.229-4.816-36.48-7.023c-18.299-3.18-36.781-6.036-55.289-8.391
			c-12.284-1.54-24.581-2.83-36.887-3.953c-122.896-11.056-246.625,0.982-360.058,53.886c-12.063,5.654-24.322,11.885-36.694,18.692
			c-106.033,58.54-218.587,158.514-294.723,266.76c-29.426,41.78-53.402,84.838-69.489,127.126
			c-37.005,97.528-56.12,201.391-67.522,304.723c-12.526,113.968-11.919,229.184-11.223,344.32
			c0.379,76.781,0.846,153.484-2.68,229.817c-8.454,187.093-21.958,374.934-24.988,562.134
			c-0.611,38.559-2.574,77.384-3.013,115.785c-1.379,108.266,8.771,213.189,91.871,297.66
			c91.091,92.616,202.082,78.34,324.667,54.027c-51.869,13.008-104.125,14.344-156.076,26.604
			c-118.525,28.04-184.909,169.415-210.713,273.519c-38.554,155.508-64.85,311.395-73.429,472.169
			c-20.515,384.587-1.883,1042.61,439.832,1182.188c194.804,61.555,399.253-4.93,578.618-76.479
			c165.002-65.823,316.156-142.158,434.328-279.311c202.555-235.102,434.49-547.705,495.77-857.097
			c13.24-66.838,71.172-242.205,23.324-325.198c-23.069-40.018-57.938-68.169-95.989-92.593
			c77.235,37.938,157.293,53.419,237.054,15.976c127.486-59.961,187.246-158.177,259.346-274.145
			c2.363-3.807,4.732-7.696,7.184-11.582c57.453-92.234,112.693-187.003,157.66-286.719
			c45.713-101.265,69.478-204.557,95.775-311.73c21.025-85.472,33.336-176.982,36.32-270.717
			C6132.7,2083.677,6034.854,1737.352,5807.322,1520.873z M4310.975,3933.293c-18.412,35.472-48.03,63.961-88.408,72.579
			c-0.375,0.077-0.734,0.159-1.094,0.22c-70.373,12.669-52.541-114.181-26.471-144.986c19.047-22.496,57.184-38.334,86.197-33.681
			C4342.745,3837.295,4333.047,3890.721,4310.975,3933.293z M5231.377,3484.529c-26.848-17.19-52.023-36.104-76.799-55.481
			c1.705,0.306,3.367,1.045,4.979,2.282c25.086,19.202,50.814,38.482,77.051,56.511
			C5234.857,3486.742,5233.111,3485.64,5231.377,3484.529z" style="stroke:black;fill:#b0ffb8"/><path id="180610296" parent_id="180610255" order="2" structure_id="320" d="M6122.35,2404.152
			c-2.983,93.734-15.293,185.244-36.319,270.717c-26.299,107.174-50.063,210.466-95.774,311.73
			c-44.967,99.716-100.209,194.483-157.66,286.719c-2.451,3.886-4.819,7.774-7.185,11.582l-0.565-0.363l-119.485-139.684
			c52.812-97.899,93.983-200.229,125.034-289.037c12.496-35.702,22.917-70.008,31.365-101.654
			c28.666-107.723,77.743-229.281,82.287-340.646c0.48-11.168,0.874-22.258,1.18-33.268L6122.35,2404.152z" style="stroke:black;fill:#1f9d5a"/><path id="180610295" parent_id="180610255" order="3" structure_id="943" d="M5944.045,2413.516
			c-4.544,111.364-53.621,232.922-82.287,340.646c-8.448,31.647-18.869,65.952-31.365,101.655
			c-31.051,88.808-72.225,191.137-125.034,289.035l-340.942-398.623c25.961-22.826,48.653-55.342,66.683-99.703
			c37.769-92.812,71.567-211.217,87.114-323.778l427.013,57.5C5944.919,2391.258,5944.525,2402.348,5944.045,2413.516z" style="stroke:black;fill:#1f9d5a"/><path id="180610294" parent_id="180610255" order="4" structure_id="648" d="M5170.846,2275.955l347.367,46.792
			c-15.547,112.562-49.347,230.967-87.114,323.779c-18.028,44.36-40.722,76.876-66.683,99.702l-308.688-360.907
			C5194.268,2433.921,5206.07,2367.278,5170.846,2275.955z" style="stroke:black;fill:#1f9d5a"/><path id="180610293" parent_id="180610255" order="5" structure_id="844" d="M5170.846,2275.955
			c35.227,91.323,23.422,157.966-115.117,109.367l-120.746-141.168L5170.846,2275.955z" style="stroke:black;fill:#1f9d5a"/><path id="180610292" parent_id="180610255" order="6" structure_id="656" d="M6122.35,2404.152l-177.125-23.904
			c4.156-126.836,0.08-246.154-42.313-364.233c-45.772-127.271-60.666-287.062-181.229-435.153
			c-113.099-138.777-391.236-248.059-515.873-315.583c-219.594-119.019-332.104-150.433-592.789-224.917
			c-197.533-56.426-414.42-96.79-611.991-3.703l-50.042-118.8l-0.537-0.946c12.372-6.809,24.632-13.038,36.693-18.692
			c113.433-52.903,237.162-64.941,360.058-53.886c12.306,1.123,24.603,2.413,36.888,3.953c18.508,2.355,36.99,5.21,55.289,8.391
			c12.25,2.207,24.414,4.492,36.479,7.023c0.084,0.003,0.084,0.003,0.084,0.003c12.149,2.536,24.209,5.233,36.181,8.01
			c0.08,0.088,0.084,0.004,0.084,0.004c30.127,7.119,59.789,15.218,89.002,23.877c13.25,3.929,26.5,7.855,39.838,11.703
			c39.918,11.707,80.018,23.172,120.194,34.726c160.61,46.541,321.412,95.932,468.813,174.13
			c210.694,111.635,405.529,241.262,577.271,404.721C6034.854,1737.352,6132.7,2083.677,6122.35,2404.152z" style="stroke:black;fill:#1f9d5a"/><path id="180610291" parent_id="180610255" order="7" structure_id="962" d="M5945.225,2380.248l-427.013-57.5
			c7.056-50.345,10.456-99.455,8.985-144.718c-2.992-92.868-35.972-172.466-84.967-249.199
			c-71.732-112.713-151.289-202.853-261.797-272.253c-121.111-76.118-239.045-148.985-368.123-207.965
			c-142.467-65.086-453.189-203.911-615.377-164.749c-26.636,6.422-51.938,19.51-75.84,37.931l-120.067-285.136
			c197.571-93.087,414.459-52.723,611.991,3.703c260.685,74.485,373.195,105.899,592.789,224.917
			c124.637,67.525,402.774,176.806,515.873,315.583c120.563,148.092,135.457,307.882,181.229,435.153
			C5945.305,2134.094,5949.381,2253.412,5945.225,2380.248z" style="stroke:black;fill:#1f9d5a"/><path id="180610290" parent_id="180610255" order="8" structure_id="767" d="M5527.197,2178.03c1.471,45.263-1.932,94.373-8.985,144.718
			l-347.367-46.792c-39.649-102.99-139.104-237.401-183.338-272.798c-152.547-121.811-368.81-253.857-533.351-244.131
			c-53.703,3.216-99.106,9.106-139.017,23.628l-194.046-460.86c23.9-18.421,49.204-31.509,75.84-37.931
			c162.188-39.162,472.91,99.663,615.377,164.749c129.077,58.979,247.012,131.847,368.122,207.965
			c110.508,69.401,190.063,159.54,261.798,272.253C5491.227,2005.563,5524.206,2085.162,5527.197,2178.03z" style="stroke:black;fill:#1f9d5a"/><path id="180610289" parent_id="180610255" order="9" structure_id="1021" d="M5170.846,2275.955l-235.863-31.801
			c0,0-197.385-143.622-519.156-222.532l-100.686-238.968c39.91-14.521,85.313-20.413,139.018-23.628
			c164.54-9.727,380.803,122.32,533.35,244.131C5031.741,2038.554,5131.195,2172.965,5170.846,2275.955z" style="stroke:black;fill:#1f9d5a"/><path id="180610288" parent_id="180610255" order="10" structure_id="935" d="M3757.672,1275.359c-2.39,4.307-4.611,8.621-6.839,13.019
			l-94.546-104.261l-0.563-0.446c76.136-108.247,188.688-208.22,294.723-266.76l0.537,0.946l50.042,118.8
			c-16.509,7.686-32.814,16.3-49.009,26.006C3865.543,1114.341,3802.918,1189.942,3757.672,1275.359z" style="stroke:black;fill:#40a666"/><path id="180610287" parent_id="180610255" order="11" structure_id="211" d="M4001.027,1036.658l120.068,285.136
			c-59.088,45.293-109.362,122.772-149.05,210.559c0,0-215.282-238.043-221.213-243.974c1.785-5.479,4.915-8.044,6.839-13.02
			c45.246-85.416,107.871-161.019,194.347-212.695C3968.212,1052.958,3984.518,1044.343,4001.027,1036.658z" style="stroke:black;fill:#40a666"/><path id="180610286" parent_id="180610255" order="12" structure_id="1015" d="M4121.096,1321.794l194.045,460.86
			c-27.569,10.05-52.511,24.241-75.672,44.537l-267.423-294.839C4011.732,1444.566,4062.007,1367.087,4121.096,1321.794z" style="stroke:black;fill:#40a666"/><path id="180610285" parent_id="180610255" order="13" structure_id="919" d="M4315.141,1782.654l100.686,238.968l-176.355-194.43
			C4262.63,1806.896,4287.57,1792.704,4315.141,1782.654z" style="stroke:black;fill:#40a666"/><path id="180610284" parent_id="180610255" order="14" structure_id="171" d="M3656.287,1184.118l94.546,104.261
			c-42.696,84.544-69.13,177.846-85.476,266.563c-22.68,123.144-49.093,263.974-71.31,411.028l-84.135-6.174l-2.425,0.045
			c-0.696-115.137-1.305-230.353,11.223-344.321c11.402-103.332,30.519-207.193,67.522-304.722
			c16.087-42.288,40.063-85.346,69.489-127.126L3656.287,1184.118z" style="stroke:black;fill:#2fa850"/><path id="180610283" parent_id="180610255" order="15" structure_id="195" d="M3767.845,1307.113
			c24.667,75.503,32.536,98.287-6.077,197.904c-48.904,126.412-57.41,269.901-64.392,404.697
			c-1.095,21.662-2.164,42.824-3.217,63.653l-100.11-7.399c22.217-147.056,48.63-287.886,71.311-411.029
			c16.345-88.716,42.777-182.018,85.475-266.562L3767.845,1307.113z" style="stroke:black;fill:#2fa850"/><path id="180610282" parent_id="180610255" order="16" structure_id="304" d="M3767.845,1307.113l204.201,225.238
			c-27.72,60.911-50.264,126.846-67.349,190.549c-13.496,50.521-35.529,157.576-53.588,261.992l-156.95-11.525
			c1.053-20.829,2.122-41.991,3.217-63.653c6.979-134.796,15.486-278.285,64.392-404.696
			C3800.381,1405.4,3792.512,1382.617,3767.845,1307.113z" style="stroke:black;fill:#2fa850"/><path id="180610281" parent_id="180610255" order="17" structure_id="363" d="M3972.046,1532.354l267.423,294.839
			c-40.208,35.305-75.084,89.088-109.243,171.642c-0.765,1.883-1.544,4.099-2.333,6.48l-276.782-20.421
			c18.059-104.417,40.091-211.472,53.587-261.991C3921.782,1659.197,3944.326,1593.264,3972.046,1532.354z" style="stroke:black;fill:#2fa850"/><path id="180610280" parent_id="180610255" order="18" structure_id="84" d="M4415.825,2021.622l-4.987,4.509l-282.944-20.816
			c0.789-2.382,1.569-4.598,2.333-6.48c34.159-82.553,69.035-136.336,109.243-171.642L4415.825,2021.622z" style="stroke:black;fill:#2fa850"/><path id="180610305" parent_id="180610255" order="19" structure_id="448" d="M5137.42,3314.023l22.137,117.307
			c-44.145-33.889-86.302-67.426-125.742-93.56c-167.146-110.604-352.842-237.597-556.903-273.889l0.589-3.396l-14.51-245.053
			c41.559,0.764,83.366,9.811,125.576,30.737C4726.115,2914.352,4938.129,3160.199,5137.42,3314.023z" style="stroke:black;fill:#248a5e"/><path id="180610304" parent_id="180610255" order="20" structure_id="412" d="M5025.089,2720.475l112.331,593.55
			c-199.291-153.825-411.305-399.675-548.854-467.853c-42.211-20.927-84.019-29.973-125.576-30.736l-20.01-336.211
			c153.984-17.358,303.313,17.754,419.666,121.864C4905.801,2639.688,4962.941,2684.173,5025.089,2720.475z" style="stroke:black;fill:#248a5e"/><path id="180610302" parent_id="180610255" order="21" structure_id="630" d="M4951.852,2333.463l73.237,387.012
			c-62.147-36.302-119.288-80.787-162.442-119.386c-116.354-104.11-265.682-139.223-419.666-121.864l-16.949-286.021
			c7.268-3.309,14.092-6.138,20.563-8.566C4608.846,2124.345,4818.293,2255.713,4951.852,2333.463z" style="stroke:black;fill:#248a5e"/><path id="180610301" parent_id="180610255" order="22" structure_id="440" d="M4934.98,2244.154l16.869,89.309
			c-133.558-77.75-343.004-209.117-505.256-148.826c-6.472,2.43-13.297,5.259-20.563,8.566l-10.205-171.582
			C4737.598,2100.532,4934.98,2244.154,4934.98,2244.154z" style="stroke:black;fill:#248a5e"/><path id="180610279" parent_id="180610255" order="23" structure_id="484" d="M3568.087,2785.321l-91.277,82.255
			c0.438-38.401,2.4-77.227,3.013-115.785c3.03-187.2,16.534-375.041,24.988-562.134c3.524-76.333,3.059-153.036,2.68-229.817
			l2.425-0.045l84.135,6.174C3552.219,2243.257,3525.486,2542.439,3568.087,2785.321z" style="stroke:black;fill:#248a5e"/><path id="180610278" parent_id="180610255" order="24" structure_id="524" d="M3615.143,2738.501l2.215,2.451l-49.271,44.368
			c-42.602-242.881-15.868-542.063,25.962-819.352l100.11,7.399c-8.899,179.386-15.22,332.508-31.476,516.952
			C3654.716,2580.211,3680.906,2680.098,3615.143,2738.501z" style="stroke:black;fill:#248a5e"/><path id="180610277" parent_id="180610255" order="25" structure_id="582" d="M3694.159,1973.368l156.95,11.524
			c-13.929,80.569-25.439,159.59-28.736,209.957c-12.297,188.737-6.84,280.728-1.59,361.932c-0.012,0.25,0.056,0.587,0.043,0.837
			l-203.471,183.334l-2.215-2.451c65.765-58.403,39.574-158.291,47.542-248.183
			C3678.939,2305.876,3685.259,2152.754,3694.159,1973.368z" style="stroke:black;fill:#248a5e"/><path id="180610276" parent_id="180610255" order="26" structure_id="620" d="M4124.842,2283.811l-304.016,273.808
			c0.014-0.25-0.054-0.587-0.041-0.837c-5.25-81.204-10.709-173.194,1.589-361.931c3.297-50.368,14.809-129.388,28.737-209.957
			l276.781,20.421C4110.325,2058.72,4092.826,2233.077,4124.842,2283.811z" style="stroke:black;fill:#248a5e"/><path id="180610275" parent_id="180610255" order="27" structure_id="910" d="M4410.837,2026.131l-285.995,257.68
			c-32.015-50.733-14.518-225.091,3.051-278.496L4410.837,2026.131z" style="stroke:black;fill:#248a5e"/><path id="180610309" parent_id="180610255" order="28" structure_id="969" d="M4462.988,2815.436l14.51,245.053l-0.588,3.395
			c-26.984-4.872-54.22-8.086-81.881-9.483c-153.549-7.761-383.69,141.397-501.227,164.776
			c-122.766,24.365-233.919,38.793-325.122-53.938c-83.101-84.471-93.25-189.396-91.871-297.661l91.277-82.255
			c3.045,17.444,6.435,34.655,10.258,51.554c60.094,266.986,295.347,180.314,510.075,98.117
			C4212.016,2887.614,4336.064,2813.029,4462.988,2815.436z" style="stroke:black;fill:#248a5e"/><path id="180610308" parent_id="180610255" order="29" structure_id="288" d="M4442.98,2479.225l20.008,336.211
			c-126.924-2.406-250.975,72.179-374.568,119.557c-214.729,82.197-449.981,168.869-510.075-98.117
			c-3.823-16.898-7.213-34.11-10.258-51.554l49.27-44.369l203.47-183.334c14.783,216.5,321.678,6.403,452.953-39.25
			C4329.891,2498.902,4386.779,2485.573,4442.98,2479.225z" style="stroke:black;fill:#248a5e"/><path id="180610307" parent_id="180610255" order="30" structure_id="1125" d="M4426.029,2193.204l16.951,286.021
			c-56.201,6.349-113.09,19.678-169.203,39.144c-131.274,45.653-438.168,255.751-452.951,39.25l304.015-273.808
			c6.03,9.576,13.79,14.729,23.688,13.894C4257.27,2288.082,4357.738,2223.915,4426.029,2193.204z" style="stroke:black;fill:#248a5e"/><path id="180610306" parent_id="180610255" order="31" structure_id="608" d="M4410.837,2026.131l4.987-4.509l10.205,171.582
			c-68.291,30.711-168.762,94.878-277.5,104.5c-9.897,0.836-17.656-4.317-23.688-13.895L4410.837,2026.131z" style="stroke:black;fill:#248a5e"/><path id="180610300" parent_id="180610255" order="32" structure_id="996" d="M5824.844,3284.536l0.566,0.362
			c-72.1,115.969-131.857,214.185-259.346,274.146c-140.23,65.832-281.381-31.93-406.508-127.714l-22.138-117.307
			c146.544,113.32,286.088,176.756,383.865,83.219c72.854-69.739,133.745-158.96,184.073-252.391L5824.844,3284.536z" style="stroke:black;fill:#219866"/><path id="180610299" parent_id="180610255" order="33" structure_id="328" d="M5364.415,2746.229l340.942,398.623
			c-50.328,93.431-111.22,182.65-184.072,252.391c-97.777,93.537-237.32,30.103-383.865-83.219l-112.331-593.549
			C5140.46,2787.867,5272.973,2826.807,5364.415,2746.229z" style="stroke:black;fill:#219866"/><path id="180610298" parent_id="180610255" order="34" structure_id="1101" d="M5055.729,2385.322l308.688,360.908
			c-91.443,80.576-223.955,41.637-339.326-25.754l-73.238-387.013c34.565,20.123,64.047,36.732,86.33,45.375
			C5044.24,2381.232,5050.146,2383.369,5055.729,2385.322z" style="stroke:black;fill:#219866"/><path id="180610297" parent_id="180610255" order="35" structure_id="783" d="M4934.98,2244.154l120.746,141.168
			c-5.58-1.953-11.486-4.09-17.547-6.483c-22.283-8.644-51.765-25.252-86.33-45.375L4934.98,2244.154z" style="stroke:black;fill:#219866"/><path id="180610259" parent_id="180610255" order="36" structure_id="698" d="M5424.499,3639.43
			c-42.532-73.767-125.091-107.275-193.881-151.329c-69.802-44.688-128.329-100.989-197.796-146.965
			c-189.468-125.399-402.494-280.317-639.633-283.708c-180.029-2.573-331.28,121.955-501.896,164.968
			c-52.084,13.129-104.552,14.438-156.726,26.752c-118.679,28.077-185.144,169.638-210.978,273.874
			c-38.602,155.709-65.675,311.762-73.521,472.784c-18.729,384.476-8.23,1034.323,440.417,1183.715
			c194.084,64.621,399.769-4.937,579.366-76.58c165.216-65.91,316.564-142.349,434.886-279.679
			c202.821-235.41,435.049-548.418,496.407-858.213C5414.408,3898.127,5472.406,3722.531,5424.499,3639.43z M4310.975,3933.293
			c-18.412,35.472-48.03,63.961-88.408,72.579c-0.375,0.077-0.734,0.159-1.094,0.22c-70.373,12.669-52.541-114.181-26.471-144.986
			c19.047-22.496,57.184-38.334,86.197-33.681C4342.745,3837.295,4333.047,3890.721,4310.975,3933.293z" style="stroke:black;fill:#9ad2bd"/><path id="180610260" parent_id="180610255" order="37" structure_id="507" d="M3671.79,3525.322
			c30.557,9.516,70.968,43.665,90.26,70.906c34.913,49.303,60.267,107.242,79.23,164.44
			c64.401,194.231,117.814,575.035-127.994,658.043c-44.131,14.903-116.601,30.304-159.205,11.687
			c-18.558-8.117-104.363-41.521-104.363-41.521s-3.72-58.936-4.689-72.727c-7.392-104.535-0.393-216.23,5.041-320.347
			c12.275-235.205,92.887-535.603,92.887-535.603S3594.99,3501.396,3671.79,3525.322z" style="stroke:black;fill:#9ad2bd"/><path id="180610264" parent_id="180610255" order="38" structure_id="220" d="M3651.023,3998.2
			c5.668,69.851,7.226,446.727,87.216,410.3c88.763-40.422,131.528-126.173,148-206.666c5.77-28.193,10.694-55.508,9.468-80.447
			c-0.936-19.004,0.639-39.746,0.344-60.129c-0.512-35.426-3.08-71.6-8.495-108.849c-18.982-130.575-59.982-265.241-123.767-356.181
			c-53.648-76.489-113.182,50.334-116.682,106.958C3640.793,3805.355,3642.751,3896.333,3651.023,3998.2z" style="stroke:black;fill:#82c7ae"/><path id="180610263" parent_id="180610255" order="39" structure_id="228" d="M3649.281,3998.2
			c-8.271-101.87-10.23-192.841-3.91-295.011c2.229-36.057,26.23-99.882,57.823-122.191l-104.239,12.959
			c14.932,40.895,17.493,132.041,17.796,167.303c0.59,71.852-10.62,146.971-2.08,218.46c11.47,95.98,29.062,252.38,35.78,367.722
			c1.033,17.761-0.059,27.77-2.551,31.979l61.545,25.042C3655.071,4357.688,3654.262,4059.57,3649.281,3998.2z" style="stroke:black;fill:#9ad2bd"/><path id="180610262" parent_id="180610255" order="40" structure_id="236" d="M3563.16,3830.007
			c-0.114-71.768-38.543-193.444,9.829-253.229c38.364-27.946,43.331,134.473,43.756,184.479
			c0.596,71.85-10.612,146.969-2.08,218.467c11.478,95.979,29.063,252.381,35.785,367.72c5.042,86.544-40.396-10.886-52.459-67.379
			C3566.953,4134.874,3563.381,3977.941,3563.16,3830.007z" style="stroke:black;fill:#82c7ae"/><path id="180610261" parent_id="180610255" order="41" structure_id="244" d="M3721.422,4410.389c-0.437-0.07-0.867-0.16-1.299-0.258
			c-0.096-0.022-0.193-0.041-0.289-0.063c-0.448-0.108-0.895-0.237-1.337-0.377c-0.073-0.022-0.147-0.043-0.223-0.067
			c-0.46-0.149-0.916-0.318-1.37-0.502c-0.055-0.021-0.108-0.041-0.162-0.063c-0.469-0.192-0.935-0.405-1.396-0.633
			c-0.037-0.019-0.075-0.035-0.112-0.054c-0.475-0.235-0.944-0.492-1.412-0.764c-0.022-0.014-0.047-0.025-0.068-0.04
			c-0.479-0.28-0.953-0.579-1.424-0.896c-0.012-0.008-0.022-0.016-0.034-0.022c-0.479-0.324-0.955-0.668-1.427-1.028
			c-0.004-0.002-0.006-0.004-0.008-0.006c-0.477-0.365-0.949-0.75-1.418-1.152l-61.544-25.042l0,0
			c-2.823,4.769-7.442,2.093-12.81-5.212h-0.001c-0.009-0.012-0.019-0.025-0.026-0.037c-0.382-0.52-0.767-1.064-1.154-1.629
			c-0.041-0.061-0.082-0.12-0.123-0.18c-0.364-0.537-0.733-1.092-1.105-1.668c-0.047-0.072-0.094-0.146-0.141-0.219
			c-0.377-0.586-0.757-1.189-1.138-1.813c-0.034-0.059-0.069-0.114-0.104-0.172c-0.221-0.36-0.439-0.726-0.66-1.097
			c-0.107-0.181-0.216-0.373-0.324-0.558c-0.175-0.299-0.35-0.6-0.524-0.904c-0.24-0.415-0.479-0.839-0.722-1.268
			c-0.174-0.311-0.348-0.619-0.521-0.937c-0.25-0.452-0.5-0.914-0.751-1.379c-0.167-0.31-0.334-0.616-0.501-0.931
			c-0.271-0.513-0.545-1.037-0.818-1.563c-0.146-0.283-0.294-0.56-0.44-0.849c-0.413-0.806-0.826-1.623-1.241-2.459
			c-0.068-0.139-0.137-0.28-0.204-0.418c-0.354-0.722-0.712-1.449-1.067-2.189c-0.158-0.331-0.317-0.67-0.477-1.005
			c-0.264-0.554-0.525-1.106-0.789-1.671c-0.181-0.389-0.361-0.782-0.542-1.175c-0.24-0.522-0.479-1.045-0.72-1.574
			c-0.189-0.418-0.379-0.841-0.568-1.265c-0.232-0.521-0.465-1.041-0.696-1.567c-0.19-0.435-0.383-0.87-0.573-1.31
			c-0.229-0.529-0.459-1.063-0.688-1.599c-0.188-0.438-0.377-0.879-0.563-1.323c-0.235-0.555-0.47-1.113-0.703-1.674
			c-0.182-0.434-0.361-0.863-0.542-1.301c-0.245-0.596-0.489-1.197-0.733-1.798c-0.167-0.41-0.334-0.817-0.5-1.229
			c-0.326-0.812-0.649-1.631-0.974-2.451c-0.179-0.451-0.354-0.902-0.531-1.356c-0.294-0.753-0.587-1.508-0.877-2.269
			c-0.171-0.445-0.339-0.896-0.509-1.344c-0.225-0.594-0.448-1.188-0.671-1.783c-0.181-0.484-0.359-0.973-0.539-1.458
			c-0.208-0.565-0.415-1.129-0.621-1.696c-0.183-0.5-0.361-1-0.541-1.502c-0.2-0.559-0.399-1.117-0.599-1.676
			c-0.179-0.504-0.354-1.008-0.531-1.514c-0.197-0.566-0.395-1.133-0.59-1.699c-0.17-0.498-0.342-0.995-0.511-1.492
			c-0.196-0.58-0.392-1.16-0.586-1.74c-0.162-0.484-0.325-0.968-0.483-1.451c-0.203-0.613-0.402-1.229-0.603-1.841
			c-0.146-0.452-0.295-0.903-0.439-1.354c-0.257-0.799-0.507-1.596-0.757-2.393c-0.161-0.516-0.321-1.027-0.479-1.541
			c-0.239-0.773-0.478-1.547-0.709-2.316c-0.132-0.436-0.259-0.867-0.388-1.301c-0.185-0.619-0.368-1.238-0.549-1.855
			c-0.133-0.456-0.263-0.908-0.393-1.361c-0.169-0.588-0.337-1.176-0.501-1.76c-0.129-0.463-0.256-0.922-0.383-1.381
			c-0.159-0.576-0.316-1.151-0.472-1.725c-0.123-0.454-0.243-0.906-0.362-1.357c-0.152-0.572-0.302-1.145-0.448-1.713
			c-0.113-0.439-0.227-0.881-0.338-1.316c-0.148-0.59-0.293-1.175-0.438-1.759c-0.1-0.403-0.2-0.812-0.298-1.213
			c-0.153-0.642-0.302-1.274-0.448-1.907c-0.078-0.337-0.159-0.678-0.235-1.014c-0.22-0.961-0.431-1.912-0.632-2.853
			c-31.039-145.188-34.609-302.119-34.83-450.05c-0.109-71.771-38.539-193.45,9.83-253.229c0.33-0.239,0.656-0.463,0.98-0.675
			c0.104-0.068,0.208-0.13,0.313-0.195c0.22-0.139,0.438-0.272,0.657-0.398c0.12-0.069,0.239-0.135,0.359-0.2
			c0.2-0.111,0.401-0.217,0.603-0.315c0.12-0.062,0.241-0.119,0.361-0.177c0.203-0.096,0.405-0.184,0.607-0.268
			c0.108-0.046,0.22-0.095,0.328-0.138c0.235-0.092,0.469-0.173,0.7-0.248c0.072-0.024,0.146-0.053,0.218-0.074
			c0.306-0.096,0.608-0.178,0.909-0.245c0.056-0.013,0.11-0.021,0.166-0.032c0.244-0.052,0.486-0.097,0.728-0.131
			c0.096-0.014,0.188-0.022,0.283-0.034c0.201-0.022,0.401-0.042,0.601-0.054c0.103-0.008,0.203-0.01,0.305-0.014
			c0.194-0.006,0.388-0.004,0.581,0c0.096,0.004,0.191,0.007,0.286,0.012c0.208,0.013,0.415,0.033,0.621,0.059
			c0.075,0.01,0.151,0.017,0.226,0.026c0.567,0.083,1.125,0.215,1.675,0.396c0.054,0.019,0.105,0.039,0.159,0.059
			c0.219,0.076,0.436,0.158,0.65,0.249c0.075,0.032,0.148,0.065,0.225,0.101c0.195,0.088,0.391,0.182,0.582,0.281
			c0.076,0.04,0.152,0.08,0.229,0.122c0.197,0.106,0.396,0.224,0.589,0.345c0.064,0.039,0.129,0.077,0.192,0.119
			c0.232,0.148,0.464,0.309,0.692,0.479c0.022,0.017,0.047,0.03,0.068,0.048c0.521,0.388,1.033,0.823,1.536,1.302
			c0.04,0.039,0.08,0.079,0.12,0.119c0.206,0.199,0.41,0.404,0.613,0.62c0.054,0.057,0.105,0.114,0.16,0.172
			c0.192,0.21,0.386,0.427,0.576,0.649c0.049,0.058,0.1,0.114,0.147,0.173c0.208,0.248,0.415,0.504,0.618,0.768
			c0.027,0.035,0.056,0.068,0.082,0.104c0.716,0.931,1.41,1.959,2.086,3.075c0.027,0.045,0.055,0.091,0.08,0.136
			c0.196,0.327,0.392,0.661,0.584,1.003c0.032,0.058,0.064,0.115,0.098,0.173c0.193,0.351,0.388,0.706,0.579,1.07
			c0.021,0.041,0.044,0.082,0.065,0.125c0.869,1.666,1.705,3.487,2.506,5.448c0.017,0.037,0.031,0.076,0.048,0.114
			c0.187,0.457,0.371,0.923,0.554,1.396c0.014,0.036,0.028,0.071,0.042,0.107c0.193,0.502,0.385,1.011,0.573,1.528L3703.193,3581
			c0.007-0.004,0.013-0.008,0.019-0.012c1.115-0.787,2.24-1.522,3.374-2.203c0.013-0.008,0.025-0.015,0.038-0.021
			c1.136-0.682,2.28-1.308,3.435-1.875c0.007-0.002,0.013-0.006,0.02-0.009c1.723-0.848,3.465-1.563,5.223-2.141
			c0.028-0.009,0.057-0.02,0.083-0.027c1.147-0.374,2.302-0.687,3.462-0.938c0.053-0.011,0.104-0.021,0.157-0.032
			c1.144-0.242,2.294-0.425,3.45-0.541c0.068-0.007,0.137-0.015,0.206-0.021c1.146-0.108,2.298-0.155,3.454-0.138
			c0.076,0.001,0.154,0.004,0.23,0.006c0.551,0.014,1.101,0.038,1.651,0.081c0.024,0.002,0.051,0.003,0.077,0.005
			c0.58,0.047,1.162,0.111,1.744,0.191c0.077,0.011,0.154,0.022,0.231,0.033c0.521,0.075,1.04,0.164,1.562,0.268
			c0.072,0.015,0.146,0.027,0.221,0.043c0.576,0.117,1.152,0.251,1.73,0.403c0.066,0.018,0.133,0.037,0.199,0.056
			c0.514,0.138,1.027,0.291,1.542,0.456c0.103,0.033,0.205,0.063,0.31,0.099c0.573,0.191,1.149,0.396,1.727,0.623
			c0.039,0.016,0.078,0.031,0.117,0.048c0.529,0.21,1.062,0.438,1.593,0.678c0.121,0.054,0.242,0.108,0.363,0.165
			c1.138,0.527,2.278,1.124,3.421,1.793c0.111,0.064,0.226,0.131,0.338,0.198l2.214-1.853c-21.045-22.005-50.2-43.725-73.593-51.012
			c-76.801-23.92-128.83-65.12-128.83-65.12s-80.62,300.399-92.891,535.608c-5.431,104.11-11.59,199.121-4.189,303.66
			c0.97,13.791,3.84,89.41,3.84,89.41s85.801,33.4,104.36,41.521c42.61,18.619,115.08,3.221,159.21-11.689
			c3.758-1.27,7.445-2.607,11.063-4.015l-2.709-4.276C3721.571,4410.408,3721.495,4410.398,3721.422,4410.389z" style="stroke:black;fill:#9ad2bd"/><path id="180610265" parent_id="180610255" order="42" structure_id="159" d="M5424.499,3639.43
			c-42.532-73.767-125.091-107.275-193.881-151.329c-69.802-44.688-128.329-100.989-197.796-146.965
			c-189.468-125.399-402.494-280.317-639.633-283.708l3.214,3.479c5.938,124.228,1.519,236.575,1.624,360.889
			c0.081,104.645,18.484,288.468,38.657,332.415c-53.047,5.077-119.978,28.899-129.545,62.296
			c-53.528-22.771-91.794-70.869-108.296-86.544c-34.563-32.841-63.152-71.597-97.797-104.474
			c-109.396-103.825-270.321-306.345-314.51-373.91l9.07-13.158c-20.359,2.803-40.721,5.931-61.041,10.729
			c-72.826,17.187-121.257,73.162-156.504,135.119c-3.816,6.709-22.93,32.381-22.547,40.068
			c1.764,35.487,91.818,55.375,116.95,67.592c67.216,32.686,129.676,98.539,161.007,165.746
			c41.432,88.877,72.404,176.266,80.896,274.942c7.269,84.496,19.333,171.306,7.063,255.933
			c-15.548,107.265-66.407,186.557-156.831,241.82c-101.476,62.02-219.927,34.809-312.014-15.561
			c5.947,39.774,3.581,38.977,8.826,73.627c5.604,36.98,8.052,81.088,14.951,117.849c23.982,127.619,55.363,202.535,115.588,319.478
			c34.27,66.551,86.98,123.758,134.636,162.938c54.205,44.566,108.622,72.424,163.896,90.822
			c194.084,64.621,399.768-4.937,579.366-76.58c165.216-65.91,316.565-142.349,434.886-279.68
			c202.82-235.409,435.049-548.418,496.407-858.213C5414.408,3898.127,5472.406,3722.531,5424.499,3639.43z M4310.975,3933.293
			c-18.412,35.472-48.03,63.961-88.408,72.579c-0.375,0.077-0.734,0.159-1.094,0.22c-70.373,12.669-52.541-114.181-26.471-144.986
			c19.047-22.496,57.184-38.334,86.197-33.681C4342.745,3837.295,4333.047,3890.721,4310.975,3933.293z" style="stroke:black;fill:#54bf94"/><path id="180610268" parent_id="180610255" order="43" structure_id="167" d="M5143.54,3607.23l-0.42,0.188
			c-98.22,56.64-182.78,139.13-287.47,185.43c-66.67,29.48-137.271,28.102-208.5,29.96l-0.951-0.619
			c17.041-27.801-18.891-47.069-59.17-58.689c-10.819-3.11-21.949-5.68-32.449-7.7v-4.58
			c73.799-136.358,80.33-265.659,107.109-423.22v-10.47C4862.52,3346.71,5064.9,3431.51,5143.54,3607.23z" style="stroke:black;fill:#54bf94"/><path id="180610267" parent_id="180610255" order="44" structure_id="183" d="M5160.92,3654.32
			c35.391,119.84-22.141,223.72-97,313.438c-87.971,105.431-172.16,210.521-248.529,324.88
			C4711.2,4448.689,4597.3,4603.12,4452.779,4723.8l-3.619-3.54c-123.16-80.061-216.102-271.37-171.33-416.38l2.42-8.05
			c10.58-8.76,18.27-21.95,24.789-33.01c49.86-84.66,101.311-166.95,153.34-250.32c30.521-48.91,62.431-98.42,108.871-133.02
			c22.56-16.82,53.709-28.7,72.899-49.44c2.489-2.689,4.489-5.31,6.05-7.85l0.95,0.618c71.229-1.858,141.83-0.479,208.5-29.959
			c104.688-46.301,189.25-128.791,287.47-185.431l0.42-0.188C5150.26,3622.25,5156.08,3637.939,5160.92,3654.32z" style="stroke:black;fill:#54bf94"/><path id="180610269" parent_id="180610255" order="45" structure_id="191" d="M4661.689,3317.53V3328
			c-26.779,157.561-33.311,286.859-107.109,423.22v4.58c-21.561-4.159-40.48-6.06-48.6-5.84c-21.74,0.58-45.541,1.5-69.301,4.25
			c-20.17-43.95-38.569-227.771-38.649-332.42c-0.03-38.5,0.37-75.851,0.76-112.76l4.61-0.36
			C4481.609,3302.54,4571.49,3304.42,4661.689,3317.53z" style="stroke:black;fill:#54bf94"/><path id="180610270" parent_id="180610255" order="46" structure_id="191" d="M4308.779,3827.9
			c3.689,6.729,7.131,12.709,10.01,18.5c-7.24-9.24-19.25-16.041-37.59-18.98c-29.021-4.65-67.149,11.189-86.199,33.689
			c-25.961,30.67-43.75,156.609,25.609,145.131c-6.262,2.949-11.841,6.76-16,12.449c-19.95,27.25-24.42,173.881,6.199,246.319v0.01
			l-6.898,12.12c-40.551,88.029-112.86,143.262-177.591,204.301c-37.659,35.51-61.301,59.229-108.71,82.318l-0.801,0.312
			c-4.02-10.312-7.77-20.71-11.229-31.17c-25.461-76.87,5.879-129.819,4.789-206.12c-0.351-24.779,10.45-38.061-4.8-62.63
			l-2.92,0.858c8.591-23.72,14.83-49.188,18.779-76.459c12.271-84.631,0.21-171.439-7.06-255.931
			c-6.7-77.89-27.41-148.739-56.221-218.84h0.01l0.021-15.17c-1.21-70.899,41.74-174.479,100.229-217.971l5.141-3.091
			c47.13,55.011,96.021,108.57,137.5,147.94c34.641,32.88,63.23,71.63,97.79,104.47c16.5,15.67,54.74,63.74,108.229,86.521
			C4306.311,3820.311,4306.73,3824.16,4308.779,3827.9z" style="stroke:black;fill:#54bf94"/><path id="180610266" parent_id="180610255" order="47" structure_id="199" d="M4449.16,4720.26l3.62,3.54
			c-23.53,19.649-47.87,38.41-73.11,56.13c-207.039,145.34-385.449-17.33-462.859-215.859l0.801-0.311
			c47.409-23.09,71.051-46.811,108.71-82.318c64.729-61.041,137.04-116.271,177.591-204.301l6.898-12.121
			c11.87,28.08,29.012,45,52.561,39.512c6.371-1.49,11.939-4.609,16.881-8.7l-2.42,8.05
			C4233.061,4448.891,4326,4640.2,4449.16,4720.26z" style="stroke:black;fill:#54bf94"/><path id="180610271" parent_id="180610255" order="48" structure_id="160" d="M4646.75,5022.8
			c-56.41,29.87-115.7,55.729-176.9,80.142c-179.6,71.64-385.278,141.199-579.358,76.578c-55.28-18.398-109.7-46.26-163.899-90.818
			c-47.649-39.182-100.371-96.391-134.631-162.939c-60.229-116.939-91.609-191.859-115.59-319.479
			c-6.899-36.761-9.351-80.86-14.949-117.84c-5.25-34.649-2.881-33.86-8.83-73.631c92.09,50.37,210.539,77.58,312.01,15.562
			c67.439-41.221,112.87-95.791,138.051-165.36l2.92-0.858c15.25,24.568,4.449,37.85,4.8,62.629
			c1.091,76.301-30.25,129.25-4.79,206.121c3.46,10.459,7.21,20.858,11.229,31.17c77.409,198.528,255.819,361.199,462.86,215.858
			c25.24-17.72,49.58-36.479,73.109-56.13c144.52-120.68,258.42-275.109,362.609-431.16
			c76.369-114.359,160.561-219.449,248.529-324.88c74.859-89.72,132.391-193.601,97-313.438c-4.84-16.381-10.66-32.07-17.38-47.091
			c-78.64-175.721-281.021-260.521-481.851-289.7c-90.199-13.109-180.08-14.989-258.289-8.859l-4.61,0.359
			c0.87-82.279,1.71-162.369-2.39-248.119l-3.211-3.48c237.141,3.391,450.16,158.311,639.631,283.71
			c69.47,45.971,128,102.271,197.799,146.96c68.791,44.051,151.351,77.561,193.881,151.33c12.299,21.33,17.609,48.75,18.5,78.87
			l-0.32,0.01c-0.568-19.55-3.92-38.778-12.189-57.31c-26.609-59.63-79.34-101.87-80.949-9.471
			c-3.431,197.5-68.36,343.521-170.961,508.201c-64.99,104.328-123.5,209.43-201.18,304.479
			c-55.25,67.59-111.75,134.08-168.359,200.5c-54.65,64.12-107.32,132.029-173.211,185.189
			c-55.949,45.141-137,88.471-165.779,157.779c-8.3,19.971-5.71,32.762,2.65,40.66c12.27,11.602,36.949,12.68,57.959,10.51
			c41.42-4.29,79.551-17.79,115.66-36.869L4646.75,5022.8z" style="stroke:black;fill:#54bf94"/><path id="180610272" parent_id="180610255" order="49" structure_id="160" d="M3963.55,3477.55l-5.14,3.091
			c-58.49,43.489-101.439,147.069-100.23,217.971l-0.02,15.17h-0.01c-7.682-18.721-15.95-37.38-24.682-56.11
			c-31.33-67.2-93.789-133.06-161-165.74c-25.14-12.22-115.188-32.108-116.949-67.59c-0.391-7.688,18.729-33.358,22.54-40.07
			c35.25-61.96,83.681-117.938,156.511-135.118c20.319-4.802,40.68-7.932,61.04-10.73l-9.07,13.16
			C3813.97,3293.52,3886.4,3387.48,3963.55,3477.55z" style="stroke:black;fill:#54bf94"/><path id="180610274" parent_id="180610255" order="50" structure_id="1034" d="M4363.029,3059.22
			c4.01,83.841,3.301,162.261,2.451,242.61l-9.9-3.67c-138.95-36.7-309.75,12.72-373.67,149.2l-1.7,3.97
			c-73.649-86.689-141.46-174.9-167.81-215.17c62.26-1.59,182.1-48.96,222.158-66.439
			C4103.76,3139.54,4237.52,3074.1,4363.029,3059.22z" style="stroke:black;fill:#62d09f"/><path id="180610273" parent_id="180610255" order="51" structure_id="1042" d="M4364.66,3420.11
			c0.09,104.64,21.689,294.75,41.87,338.688c-15.8,3.08-31.17,7.29-45.44,13.09c-17.75,6.771-28.398,13.802-37.01,21.342
			c-0.01,0.01-0.021,0.02-0.029,0.02c-0.46,0.391-0.92,0.78-1.38,1.17c-53.49-22.779-81.47-64.199-97.95-79.88
			c-34.568-32.84-63.148-71.59-97.8-104.47c-44.188-41.939-96.79-99.99-146.71-158.74l1.7-3.97
			c63.92-136.479,234.719-185.899,373.67-149.2l9.899,3.67C4365.07,3340.53,4364.62,3379.689,4364.66,3420.11z" style="stroke:black;fill:#62d09f"/><path id="180610311" parent_id="180610255" order="52" structure_id="1009" d="M4587.029,3763.505
			c-33.021-9.508-68.97-13.876-81.051-13.545c-52.074,1.411-115.994,4.698-162.744,30.36c-17.229,9.459-44.203,29.773-34.455,47.581
			c16.037,29.275,27.351,44.352,9.267,91.08c-10.662,27.551-29.342,49.021-51.448,67.546c-18.02,15.087-48.005,13.052-61.986,32.158
			c-27.686,37.821-25.563,305.518,58.758,285.847c20.033-4.679,32.099-25.479,41.666-41.712
			c49.864-84.664,101.313-166.95,153.349-250.325c30.517-48.901,62.427-98.416,108.866-133.02
			c22.563-16.82,53.707-28.692,72.9-49.434C4669.775,3797.989,4630.997,3776.181,4587.029,3763.505z" style="stroke:black;fill:#cccccc"/><path id="180610312" parent_id="180610255" order="53" structure_id="1009" d="M4472.698,5048.344
			c12.269,11.597,36.952,12.682,57.957,10.508c55.231-5.719,104.616-27.809,151.153-57.668
			c67.265-43.164,137.392-85.933,192.199-144.981c52.289-56.338,96.736-119.608,148.724-175.409
			c59.662-64.046,100.758-137.579,149.823-209.855c32.932-48.512,64.965-97.533,94.714-148.07
			c54.769-93.064,83.474-186.955,115.237-288.908c21.795-69.947,38.664-141.744,49.098-214.285
			c7.578-52.725,21.34-108.353-1.117-158.67c-26.609-59.629-79.337-101.875-80.943-9.476
			c-3.435,197.507-68.357,343.521-170.959,508.199c-64.996,104.335-123.5,209.433-201.183,304.483
			c-55.248,67.596-111.754,134.076-168.364,200.5c-54.646,64.117-107.315,132.029-173.211,185.189
			c-55.941,45.139-136.992,88.475-165.778,157.781C4461.751,5027.648,4464.337,5040.439,4472.698,5048.344z" style="stroke:black;fill:#cccccc"/><path id="180610310" parent_id="180610255" order="54" structure_id="98" d="M4221.473,4006.092
			c-70.373,12.669-52.541-114.181-26.471-144.986c19.047-22.496,57.184-38.334,86.197-33.681
			c61.545,9.87,51.848,63.296,29.773,105.868c-18.411,35.472-48.029,63.961-88.408,72.579
			C4222.189,4005.949,4221.831,4006.031,4221.473,4006.092z" style="stroke:black;fill:#aaaaaa"/></g>
</g>
</svg>