<?xml version="1.0" encoding="utf-8"?>
<!-- Generator: Adobe Illustrator 16.0.0, SVG Export Plug-In . SVG Version: 6.00 Build 0)  -->
<!DOCTYPE svg PUBLIC "-//W3C//DTD SVG 1.1//EN" "http://www.w3.org/Graphics/SVG/1.1/DTD/svg11.dtd">
<svg version="1.1" id="Layer_1" xmlns="http://www.w3.org/2000/svg" xmlns:xlink="http://www.w3.org/1999/xlink" x="0px" y="0px"
	 width="9744.01px" height="6823.46px" viewBox="0 0 9744.01 6823.46" enable-background="new 0 0 9744.01 6823.46"
	 xml:space="preserve">
<g transform="scale(1.0)">
	<g id="_x31_80610952" transform=" scale(1.0, 1.0)">
		<path id="_x31_80610954" fill="none" stroke="#010101" stroke-width="64" d="M4909.535,2068.78
			c0.67-268.821-15.896-290.587,95.028-486.054c170.69-300.771,506.64-448.332,745.137-421.156
			c245.737,27.999,573.367,93.645,847.571,238.515c270.475,142.899,547.689,347.593,751.961,670.13
			c211.744,334.328,280.611,598.027,267.383,841.056c-13.879,255.045-21.523,326.897-88.98,580.031
			c-43.521,163.316-185.52,471.103-324.68,580.043c-144.201,112.887-585.72-232.295-576.243-189.412
			c2.782,12.604,48.851,35.331,75.78,51.172c126.012,74.137,430.652,180.492,434.197,270.104
			c5.779,146.283-29.418,315.693-145.485,456.887c-129.476,157.501-337.741,321.499-494.231,456.769
			c-46.354,40.075-113.966,106.478-166.174,147.86c-236.908,187.805-450.07,311.424-693.872,293.164
			c-298.703-22.369-581.502-284.199-661.815-680.973c-4.499-22.246-34.369-48.751-34.617-71.401
			c-0.759-69.907,0.225-141.796-1.692-212.812c-2.093-77.935-1.684-155.274-2.567-236.932c-0.158-14.339-2.136-196.72-1.957-236.364
			c0.147-33.179-0.582-67.547,2.765-100.697c4.451-44.102,9.435-81.703,14.3-122.662c5.969-50.256,13.316-101.721,11.475-152.447
			c-1.509-41.463-35.937-134.66-37.164-247.688c-1.705-157.121-3.866-298.16-5.564-454.673
			c-1.879-173.285-5.666-407.036-6.526-601.292C4913.32,2385.038,4909.154,2224.509,4909.535,2068.78z"/>
		<path id="_x31_80610955" fill="none" stroke="#010101" stroke-width="64" d="M7349.232,2070.192
			c-204.284-322.528-481.493-527.223-751.959-670.116c-274.204-144.869-601.842-210.513-847.57-238.51
			c-238.5-27.177-574.445,120.382-745.138,421.153c-110.921,195.463-94.354,217.231-95.024,486.049
			c-0.385,155.722,3.785,316.25,4.033,371.157c0.852,194.255,4.645,427.999,6.532,601.286
			c1.692,156.508,3.853,297.546,5.552,454.665c1.232,113.025,35.657,206.221,37.16,247.684
			c1.843,50.723-5.504,102.193-11.465,152.442c-4.867,40.962-7.737,81.913-14.193,122.659c-5.213,32.922-2.725,67.523-2.875,100.697
			c-0.17,39.648,1.809,222.02,1.961,236.359c0.882,81.655,0.47,158.996,2.568,236.931c1.912,71.015,0.921,142.903,1.68,212.81
			c0.244,22.65,30.123,49.152,34.623,71.398c80.318,396.769,363.117,658.596,661.81,680.968
			c243.804,18.248,456.968-105.364,693.874-293.167c52.206-41.382,119.318-108.48,166.233-147.91
			c156.532-131.525,364.694-299.211,494.167-456.709c116.066-141.191,151.266-310.598,145.488-456.886
			c-3.549-89.603-308.186-195.954-434.197-270.097c-26.925-15.836-72.996-38.564-75.777-51.168
			c-9.481-42.885,432.033,302.296,576.234,189.408c139.156-108.936,281.164-416.722,324.676-580.033
			c67.463-253.132,75.107-324.98,88.982-580.019C7629.836,2668.212,7560.969,2404.516,7349.232,2070.192z M5804.271,4260.055
			c-3.776,10.435-12.037,22.861-22.526,27.953c-34.256,16.641-67.153-74.825-75.102-93.707
			c-4.993-11.829-25.824-42.787-31.797-67.01c-4.11-16.752-1.123-30.273,19.112-32.038c17.202-1.505,31.822,6.962,47.114,13.211
			c42.758,17.464,65.27,58.657,67.98,103.169C5809.975,4226.59,5809.446,4245.804,5804.271,4260.055z"/>
		<path id="_x31_80610986" fill="none" stroke="#010101" stroke-width="64" d="M6681.383,1592.333l66.094-106.342
			c220.228,136.725,435.182,321.316,601.715,584.224c211.77,334.295,280.672,598.012,267.436,840.994
			c-13.93,255.09-21.576,326.888-89.01,580.021c-14.387,53.9-39.43,123.509-71.586,196.53l-3.4-1.45l-165.398-123.717
			c2.437-25.045,7.433-49.747,17.702-73.833c47.312-111.121,86.716-223.268,117.337-340.598
			c53.295-204.205,60.121-414.084-5.035-616.518c-67.102-208.277-187.443-421.786-310.859-599.921
			C7066.26,1873.796,6920.962,1717.127,6681.383,1592.333z"/>
		<path id="_x31_80610985" fill="none" stroke="#010101" stroke-width="64" d="M7287.232,3562.594l-340.129-254.391
			c71.427-93.482,82.252-260.268,82.215-388.258c0.059-174.691-46.562-374.426-145.982-518.144
			c-127.012-183.591-280.022-302.468-452.2-406.216l250.247-403.25c239.579,124.79,384.877,281.462,424.994,339.39
			c123.416,178.135,243.758,391.644,310.859,599.921c65.156,202.435,58.33,412.312,5.035,616.518
			c-30.621,117.327-70.025,229.477-117.337,340.598C7294.667,3512.847,7289.669,3537.549,7287.232,3562.594z"/>
		<path id="_x31_80610984" fill="none" stroke="#010101" stroke-width="64" d="M6883.336,2401.802
			c99.422,143.717,146.046,343.453,145.986,518.143c0.033,127.99-10.793,294.776-82.215,388.257l-795.98-595.311
			c74.391-48.673,76.9-122.791,33.888-197.319c-11.424-19.776-25.616-38.632-41.534-56.577l287.656-463.41
			C6603.314,2099.335,6756.326,2218.21,6883.336,2401.802z"/>
		<path id="_x31_80610983" fill="none" stroke="#010101" stroke-width="64" d="M6185.015,2515.572
			c43.007,74.529,40.503,148.647-33.888,197.32l-112.846-84.407l105.201-169.49
			C6159.398,2476.94,6173.591,2495.797,6185.015,2515.572z"/>
		<path id="_x31_80610990" fill="none" stroke="#010101" stroke-width="64" d="M5142.883,1695.76l-109.367-159.13l-0.531-0.365
			c177.53-269.441,490.834-400.447,716.701-374.698c245.752,27.989,573.371,93.644,847.547,238.484
			c50.007,26.42,100.262,54.991,150.244,85.942l-66.094,106.344c-46.75-24.451-97.1-47.6-150.961-68.562
			c-171.781-66.931-348.168-121.935-523.52-178.508c-191.809-61.968-561.104-23.616-703.688,132.239
			C5246.646,1539.277,5188.938,1614.126,5142.883,1695.76z"/>
		<path id="_x31_80610989" fill="none" stroke="#010101" stroke-width="64" d="M6681.383,1592.333l-250.246,403.25
			c-99.492-60.124-205.4-115.129-316.395-174.684c-194.68-104.477-313.197-143.463-428.085-173.652
			c-160.606-42.18-258.954,23.822-316.623,171.651c-17.419,44.73-32.431,89.359-45.941,140.432l-181.21-263.571
			c46.052-81.633,103.763-156.482,160.337-218.255c142.579-155.854,511.874-194.206,703.684-132.24
			c175.351,56.573,351.741,111.576,523.52,178.508C6584.285,1544.734,6634.633,1567.886,6681.383,1592.333z"/>
		<path id="_x31_80610988" fill="none" stroke="#010101" stroke-width="64" d="M5569.2,2315.991l-245.106-356.66
			c13.51-51.071,28.523-95.702,45.94-140.43c57.671-147.831,156.021-213.83,316.623-171.652
			c114.89,30.188,233.411,69.175,428.087,173.653c110.997,59.555,216.903,114.562,316.395,174.683l-287.656,463.408
			c-55.359-62.223-132.041-113.601-190.133-157.16c-113-84.778-276.474-107.4-375.537,3.896c-1.336,1.5-2.676,3.072-4.014,4.646
			C5572.239,2312.245,5570.684,2314.119,5569.2,2315.991z"/>
		<path id="_x31_80610987" fill="none" stroke="#010101" stroke-width="64" d="M5770.428,2608.673l-201.23-292.684
			c1.483-1.872,3.044-3.745,4.602-5.617c1.336-1.573,2.672-3.146,4.012-4.646c99.064-111.296,262.537-88.674,375.536-3.896
			c58.094,43.559,134.772,94.939,190.134,157.16l-105.199,169.491c0,0-155.947-42.896-256.045-26.988l-7.814,7.877l-2.082,2.027
			L5770.428,2608.673z"/>
		<path id="_x31_80610994" fill="none" stroke="#010101" stroke-width="64" d="M5028.414,2120.217l-117.281-77.457l-1.58,0.017
			c-0.32-244.472-12.192-271.072,94.979-460.034c9.004-15.909,18.539-31.451,28.455-46.479l0.531,0.365l109.367,159.13
			c-28.115,49.964-51.919,102.409-68.338,155.96c-21.941,71.578-23.514,141.305-37.725,218.146
			C5033.692,2086.606,5030.939,2103.411,5028.414,2120.217z"/>
		<path id="_x31_80610993" fill="none" stroke="#010101" stroke-width="64" d="M5142.883,1695.76l181.21,263.572
			c-21.608,81.15-39.511,178.52-57.855,317.916l-237.821-157.029c2.523-16.806,5.273-33.612,8.404-50.35
			c14.21-76.842,15.785-146.57,37.727-218.147C5090.961,1798.167,5114.766,1745.724,5142.883,1695.76z"/>
		<path id="_x31_80610992" fill="none" stroke="#010101" stroke-width="64" d="M5324.09,1959.33l245.105,356.659
			c-29.252,35.574-52.301,74.201-70.364,114.853l-232.597-153.596C5284.582,2137.851,5302.484,2040.479,5324.09,1959.33z"/>
		<path id="_x31_80610991" fill="none" stroke="#010101" stroke-width="64" d="M5770.428,2608.673l-0.207,1.412l-271.387-179.243
			c18.064-40.652,41.114-79.279,70.366-114.853L5770.428,2608.673z"/>
		<path id="_x31_80610997" fill="none" stroke="#010101" stroke-width="64" d="M5028.414,2120.217
			c-35.713,236.983-17.457,477.629-14.783,717.25c0.293,27.171,0.592,54.337,0.809,81.434l-95.412,38.723
			c-1.889-160.415-4.734-353.189-5.466-517.699c-0.222-54.935-4.446-215.4-4.031-371.161c0.057-8.911,0.037-17.597,0.018-25.985
			l1.579-0.017L5028.414,2120.217z"/>
		<path id="_x31_80611007" fill="none" stroke="#010101" stroke-width="64" d="M5127.515,2185.652l-99.101-65.435
			c-35.713,236.983-17.457,477.629-14.783,717.25c0.293,27.171,0.592,54.337,0.809,81.434l97.896-39.696
			C5103.494,2648.768,5103.49,2415.413,5127.515,2185.652z"/>
		<path id="_x31_80611008" fill="none" stroke="#010101" stroke-width="64" d="M5227.057,2832.687
			c7.045-182.557,14.109-363.483,37.789-544.956c0.49-3.569,0.898-7.062,1.389-10.483l-138.72-91.596
			c-24.026,229.761-24.022,463.117-15.181,693.553L5227.057,2832.687z"/>
		<path id="_x31_80610996" fill="none" stroke="#010101" stroke-width="64" d="M5266.24,2277.247l232.591,153.595
			c-43.765,98.239-58.515,208.419-60.134,315.937l-211.641,85.909c7.045-182.558,14.109-363.483,37.789-544.956
			C5265.336,2284.161,5265.748,2280.667,5266.24,2277.247z"/>
		<path id="_x31_80610995" fill="none" stroke="#010101" stroke-width="64" d="M5770.221,2610.086l-0.275,2.38l-331.246,134.313
			c1.617-107.518,16.369-217.698,60.135-315.937L5770.221,2610.086z"/>
		<path id="_x31_80611003" fill="none" stroke="#010101" stroke-width="64" d="M5052.881,3785.33
			c-43.155,29.785-34.148,27.904-97.549,77.723c4.762-39.693,8.914-79.828,7.505-119.461
			c-1.501-41.482-35.987-134.662-37.214-247.718c-0.142-13.065-0.282-26.059-0.422-38.972l1.277-0.018l86.84-86.738
			c-0.268,58.506,5.4,116.354,31.523,166.634c39.641,76.571,124.703,151.544,209.672,176.556l-2.066,10.341
			C5176.026,3710.234,5123.805,3736.324,5052.881,3785.33z"/>
		<path id="_x31_80611011" fill="none" stroke="#010101" stroke-width="64" d="M5383.677,3723.859
			c-36.46-19.959-72.093-46.347-103.687-73.188c-116.436-98.918-146.48-243.553-155.323-391.826l-111.349,111.301
			c-0.268,58.505,5.4,116.353,31.523,166.636c39.641,76.57,124.703,151.543,209.672,176.554l-2.066,10.341
			c13.488,2.385,27.825,6.017,43.147,10.98c18.268,5.967,37.346,10.442,56.411,13.36c26.521,4.057,53.558,5.872,80.475,5.366
			C5419.775,3740.801,5402.541,3734.188,5383.677,3723.859z"/>
		<path id="_x31_80611012" fill="none" stroke="#010101" stroke-width="64" d="M5665.698,3181.805
			c-53.31,43.475-67.988,97.9-134.039,125.177c-88.215,36.42-188.323,37.776-250.192-35.44
			c-27.662-32.746-44.191-72.586-53.613-115.842l-103.187,103.146c8.843,148.272,38.888,292.908,155.323,391.826
			c31.594,26.841,67.225,53.229,103.687,73.188c18.864,10.328,36.099,16.941,48.8,29.528c10.854-0.202,21.695-0.771,32.473-1.739
			c18.035-1.674,36.441-3.875,54.607-7.184c20.121-3.628,41.154-6.152,58.727-15.84l1.127-0.383l26.9-9.414
			c0,0,14.881-8.25,30.57-18.144l66.257-541.767C5689.142,3165.449,5676.51,3173.005,5665.698,3181.805z"/>
		<path id="_x31_80611002" fill="none" stroke="#010101" stroke-width="64" d="M5743.069,2832.056l-39.935,326.859
			c-13.993,6.533-26.625,14.09-37.437,22.89c-53.31,43.475-67.988,97.9-134.039,125.177c-88.215,36.42-188.323,37.776-250.192-35.44
			c-27.662-32.746-44.191-72.586-53.613-115.842l216.693-216.627c11.033,115.476,43.953,237.626,143.674,145.627
			c48.482-44.685,46.443-114.895,78.959-168.323C5685.289,2886.715,5712.951,2857.171,5743.069,2832.056z"/>
		<path id="_x31_80611001" fill="none" stroke="#010101" stroke-width="64" d="M5444.547,2939.077l325.191-325.125l-26.669,218.107
			c-30.118,25.115-57.78,54.658-75.891,84.323c-32.518,53.424-30.475,123.636-78.96,168.323
			C5488.5,3176.701,5455.58,3054.551,5444.547,2939.077z"/>
		<path id="_x31_80610978" fill="none" stroke="#010101" stroke-width="64" d="M6353.011,3765.646
			c-91.562-49.889-186.068-101.376-281.411-146.248l2.426-5.149l-44.182-148.091c64.94,23.221,127.271,55.152,173.92,77.154
			c136.701,64.48,255.139,130.564,371.516,228.669c61.72,52.059,128.881,106.288,200.01,152.085l28.145,49.52
			c-102.398-57.422-180.75-110.047-176.711-91.677c2.768,12.592,48.825,35.343,75.775,51.168
			c-29.889-16.314-59.924-31.96-91.145-46.253C6524.195,3847.06,6437.306,3811.603,6353.011,3765.646z"/>
		<path id="_x31_80610977" fill="none" stroke="#010101" stroke-width="64" d="M6029.848,3466.158l-104.293-349.832
			c9.695-0.696,19.015-1.316,27.736-1.927c149.347-10.71,287.839,45.51,423.782,109.702l398.221,699.965
			c-71.13-45.797-138.29-100.026-200.009-152.085c-116.378-98.104-234.814-164.188-371.517-228.671
			C6157.115,3521.311,6094.786,3489.379,6029.848,3466.158z"/>
		<path id="_x31_80610976" fill="none" stroke="#010101" stroke-width="64" d="M6099.857,2736.745l277.216,487.356
			c-135.946-64.192-274.436-120.414-423.784-109.701c-8.72,0.61-18.039,1.229-27.736,1.926l-100.701-337.696
			C5910.127,2741.35,6012.819,2763.798,6099.857,2736.745z"/>
		<path id="_x31_80610975" fill="none" stroke="#010101" stroke-width="64" d="M5782.236,2601.496
			c100.095-15.907,256.042,26.988,256.042,26.988l61.579,108.261c-87.038,27.053-189.73,4.605-275.006,41.883l-50.43-169.254
			L5782.236,2601.496z"/>
		<path id="_x31_80611000" fill="none" stroke="#010101" stroke-width="64" d="M5017.219,3223.11
			c0.504,46.619-3.838,97.075-3.9,147.037l-86.84,86.738l-1.277,0.018c-1.615-141.785-3.555-272.279-5.113-415.695
			c-0.285-26.579-0.594-54.561-1.057-83.586l95.411-38.721C5015.466,3020.304,5016.115,3121.708,5017.219,3223.11z"/>
		<path id="_x31_80611009" fill="none" stroke="#010101" stroke-width="64" d="M5117.574,2997.33
			c-1.957-39.269-3.728-78.653-5.239-118.123l-97.896,39.695c1.026,101.404,1.675,202.809,2.775,304.21
			c0.505,46.618-3.834,97.075-3.896,147.039l111.349-111.302C5119.365,3169.96,5121.684,3079.766,5117.574,2997.33z"/>
		<path id="_x31_80611010" fill="none" stroke="#010101" stroke-width="64" d="M5117.574,2997.33
			c4.107,82.436,1.791,172.631,7.093,261.519l103.188-103.146c-22.949-104.512-4.442-229.208-0.797-322.791c0-0.073,0-0.147,0-0.222
			l-114.724,46.519C5113.85,2918.676,5115.621,2958.061,5117.574,2997.33z"/>
		<path id="_x31_80610999" fill="none" stroke="#010101" stroke-width="64" d="M5444.547,2939.077l-216.691,216.625
			c-22.949-104.512-4.442-229.208-0.797-322.791c0-0.073,0-0.147,0-0.222l211.641-85.908c-0.216,14.479-0.213,28.957,0.018,43.282
			C5439.028,2811.588,5438.353,2874.252,5444.547,2939.077z"/>
		<path id="_x31_80610998" fill="none" stroke="#010101" stroke-width="64" d="M5769.945,2612.465l-0.207,1.485l-325.191,325.124
			c-6.194-64.822-5.519-127.487-5.83-149.013c-0.229-14.326-0.233-28.804-0.018-43.283L5769.945,2612.465z"/>
		<path id="_x31_80610974" fill="none" stroke="#010101" stroke-width="64" d="M6011.885,3592.186
			c-85.48-37.402-174.088-36.985-252.657,8.018l-1.372-8.596c-9.584-58.105,0.101-122.276,59.891-144.289
			c61.656-22.776,138.625-7.553,212.102,18.842l44.182,148.09l-2.426,5.148C6051.713,3610.028,6031.834,3600.887,6011.885,3592.186z
			"/>
		<path id="_x31_80610973" fill="none" stroke="#010101" stroke-width="64" d="M5719.803,3627.273
			c-19.238,15.646-35.279,34.674-52.998,51.639c-6.777,6.457-18.498,14.523-29.929,21.771l66.259-541.768
			c63.09-29.397,153.195-37.477,222.418-42.59l104.291,349.833c-73.477-26.393-150.443-41.617-212.103-18.842
			c-59.787,22.012-69.472,86.186-59.89,144.289l1.373,8.597C5745.77,3607.92,5732.629,3616.895,5719.803,3627.273z"/>
		<path id="_x31_80610972" fill="none" stroke="#010101" stroke-width="64" d="M5824.854,2778.628l100.699,337.697
			c-69.223,5.112-159.325,13.192-222.415,42.589l39.934-326.858c20.942-17.519,43.118-32.9,64.053-44.628
			C5812.957,2784.175,5818.865,2781.216,5824.854,2778.628z"/>
		<path id="_x31_80610971" fill="none" stroke="#010101" stroke-width="64" d="M5774.422,2609.374l50.43,169.254
			c-5.988,2.588-11.897,5.547-17.73,8.801c-20.936,11.729-43.11,27.106-64.055,44.627l26.668-218.106l2.456-2.401l0.074-0.076
			l0.075,0v-0.074L5774.422,2609.374z"/>
		<path id="_x31_80610982" fill="none" stroke="#010101" stroke-width="64" d="M6920.321,4000.854
			c168.78,67.781,287.634-84.479,345.119-221.395c28.814-68.681,14.46-144.031,21.794-216.865l165.398,123.718l3.4,1.449
			c-65.336,148.208-159.859,310.531-253.094,383.531c-82.49,64.642-262.445-20.835-399.505-97.709l-28.144-49.519
			C6822.031,3954.309,6870.533,3980.893,6920.321,4000.854z"/>
		<path id="_x31_80610981" fill="none" stroke="#010101" stroke-width="64" d="M6775.291,3924.066l-398.221-699.964
			c119.535,56.344,237.033,118.877,358.299,147.439c101.127,23.876,167.904-5.932,211.734-63.338l340.129,254.391
			c-7.335,72.834,7.024,148.185-21.793,216.865c-57.489,136.916-176.338,289.178-345.118,221.395
			C6870.533,3980.893,6822.031,3954.309,6775.291,3924.066z"/>
		<path id="_x31_80610980" fill="none" stroke="#010101" stroke-width="64" d="M6151.127,2712.892l795.98,595.31
			c-43.834,57.406-110.608,87.215-211.736,63.339c-121.264-28.562-238.765-91.095-358.301-147.44l-277.213-487.356
			c17.24-5.379,33.936-12.684,49.697-22.798C6150.084,2713.644,6150.602,2713.269,6151.127,2712.892z"/>
		<path id="_x31_80610979" fill="none" stroke="#010101" stroke-width="64" d="M6151.127,2712.892
			c-0.525,0.377-1.045,0.752-1.568,1.055c-15.764,10.115-32.458,17.419-49.701,22.798l-61.579-108.261L6151.127,2712.892z"/>
		<path id="_x31_80610956" fill="none" stroke="#010101" stroke-width="64" d="M6702.495,3933.055
			c-26.915-15.83-72.955-38.545-75.772-51.15c0,0.002,0,0.002,0,0.005c2.768,12.595,48.828,35.345,75.775,51.168
			c-29.889-16.313-59.924-31.958-91.145-46.251c-87.158-39.766-174.048-75.221-258.343-121.178
			c-91.562-49.887-186.068-101.374-281.411-146.248c-19.887-9.367-39.766-18.512-59.72-27.208
			c-85.481-37.403-174.089-36.989-252.655,8.015c-13.457,7.717-26.598,16.689-39.422,27.07
			c-19.238,15.646-35.281,34.673-52.998,51.639c-6.777,6.455-18.498,14.523-29.929,21.771
			c-15.687,9.891-30.568,18.143-30.568,18.143l-26.899,9.415l-1.13,0.38c-17.569,9.691-38.604,12.212-58.726,15.842
			c-18.168,3.308-36.571,5.508-54.609,7.184c-37.496,3.366-75.724,2.064-112.943-3.632c-19.062-2.918-38.145-7.394-56.412-13.36
			c-15.323-4.964-29.654-8.597-43.145-10.979c-76.422-13.445-128.643,12.645-199.568,61.65
			c-43.156,29.785-34.15,27.904-97.549,77.72c0.006-0.024,0.006-0.054,0.01-0.077c-1.32,11.055-2.689,22.07-3.988,33.028
			c-4.868,40.96-7.736,81.911-14.192,122.657c-5.21,32.922-2.726,67.523-2.874,100.699c-0.17,39.646,1.806,222.018,1.963,236.359
			c0.879,81.653,0.466,158.994,2.566,236.929c1.912,71.015,0.918,142.905,1.681,212.81c0.241,22.652,30.122,49.154,34.619,71.4
			c80.318,396.769,363.118,658.596,661.812,680.968c243.803,18.248,456.966-105.364,693.873-293.167
			c52.207-41.382,119.318-108.48,166.236-147.91c156.529-131.525,364.69-299.209,494.164-456.711
			c116.068-141.191,151.266-310.596,145.489-456.884C7133.143,4113.547,6828.504,4007.197,6702.495,3933.055z M5804.271,4260.055
			c-3.776,10.435-12.037,22.861-22.526,27.953c-34.256,16.641-67.153-74.825-75.102-93.707
			c-4.993-11.829-25.824-42.787-31.797-67.01c-4.11-16.752-1.123-30.273,19.112-32.038c17.202-1.505,31.822,6.962,47.114,13.211
			c42.758,17.464,65.27,58.657,67.98,103.169C5809.975,4226.59,5809.446,4245.804,5804.271,4260.055z"/>
		<path id="_x31_80610957" fill="none" stroke="#010101" stroke-width="64" d="M5741.615,4359.255
			c19.052-35.071,62.576-64.466,65.168-106.825c-26.561,68.691-58.318,23.171-64.941,14.289
			c-20.506-27.471-29.43-59.605-44.548-90.052c-6.485-13.063-15.56-27.548-19.448-41.622c-2.08-7.528-38.529-19.625-50.002-19.048
			c-17.836,0.898-36.854-0.143-54.306,3.917c-15.642,3.654-31.582,10.322-45.937,17.389c-29.223,14.393-56.082,32.891-84.047,49.434
			c-46.488,27.502-93.495,53.52-132.723,91.035c-59.639,57.037-98.859,129.706-155.482,188.826
			c-35.041,36.575-87.689,81.315-136.191,97.699c-70.791,23.926-77.204,4.76-79.155,79.727c-0.659,25.463,4.095,50.649,4.429,75.687
			c0.342,25.704-4.172,50.181-4.02,76.151c0.143,25.564,11.75,33.359,21.273,55.519c5.438-20.728,34.713-45.231,50.203-60.19
			c46.016-44.448,96.373-85.572,146.341-125.679c47.173-37.866,141.971-93.595,204.446-62.501
			c105.882,52.708,227.303,203.422,253.686,329.549c12.071,57.728,9.297,127.969,27.686,183.453
			c28.36,85.59,16.483,149.754-14.431,234.744c-17.278,47.477-37.573,181.389-41.146,201.314
			c33.03,2.688,74.757,9.832,108.198,8.844c54.658-1.607,114.512-8.853,166.622-25.896c27.612-9.024,78.373-26.823,78.373-26.823
			c8.362-2.853-9.491-142.754-9.173-176.688c0.605-65.178,3.322-130.327,18.249-194.165c15.13-64.655,37.793-127.78,45.604-193.952
			c12.057-102.211-22.416-159.383-68.162-207.926l-77.137-96.016c-20.584,0.219-46.824-39.924-62.702-60.252
			C5736.69,4513.054,5697.594,4440.311,5741.615,4359.255z"/>
		<path id="_x31_80610960" fill="none" stroke="#010101" stroke-width="64" d="M5576.076,4702.797
			c27.194-24.968,49.059-57.47,69.207-87.963c18.387-27.829,30.886-58.377,53.074-83.884c31.799-36.55,28.086-40.077,24.593-89.058
			c-2.062-28.909,4.831-57.162,18.665-82.64c38.581-71.048-11.281-116.198-44.404-182.741c-6.479-13.023-15.498-27.452-19.37-41.469
			c-2.08-7.526-38.527-19.625-50.002-19.046c-17.833,0.898-36.853-0.143-54.306,3.917c-15.641,3.654-31.58,10.319-45.935,17.389
			c-29.222,14.393-56.081,32.891-84.048,49.434c-46.488,27.5-93.494,53.52-132.723,91.035
			c-58.797,56.231-97.76,127.648-153.111,186.307c-12.317,74.746-28.604,143.514-24.611,221.688
			c8.369-6.787,16.752-13.535,25.123-20.256c47.172-37.866,141.967-93.597,204.44-62.501c33.128,16.492,62.771,39.437,89.821,64.322
			C5503.741,4714.498,5511.722,4761.885,5576.076,4702.797z"/>
		<path id="_x31_80610961" fill="none" stroke="#010101" stroke-width="64" d="M5928.182,4735.465l-77.137-96.016
			c-20.584,0.219-46.824-39.924-62.702-60.252c-16.689-21.371-32.065-43.434-43.753-66.238
			c-41.654-19.998-84.241,79.075-99.311,101.88c-20.148,30.493-42.009,62.995-69.203,87.961
			c-19.076,17.515-41.338,26.69-46.275,51.255c41.869,56.691,74.361,120.223,86.556,178.508
			c12.074,57.727,9.298,127.969,27.688,183.451c11.021,33.26,15.962,63.289,16.075,92.558
			c29.955-17.371,68.661-32.749,97.321-47.688c28.123-14.657,52.391-14.274,83.17-21.653
			c76.544-18.357,105.472-85.85,146.522-142.504c3.866-17.616,7.088-35.364,9.207-53.334
			C6008.4,4841.18,5973.928,4784.01,5928.182,4735.465z"/>
		<path id="_x31_80610958" fill="none" stroke="#010101" stroke-width="64" d="M5155.348,4466.598
			c-35.041,36.575-87.689,81.315-136.191,97.699c-70.793,23.926-77.204,4.76-79.158,79.727c-0.656,25.463,4.098,50.649,4.428,75.687
			c0.345,25.704-3.559,51.348-3.398,77.321c0.156,25.561,11.13,32.189,20.654,54.349c5.437-20.728,34.711-45.229,50.203-60.19
			c38.308-37.002,79.625-71.696,121.221-105.42c-3.992-78.18,12.294-146.947,24.615-221.689
			C5156.928,4464.916,5156.146,4465.763,5155.348,4466.598z"/>
		<path id="_x31_80610959" fill="none" stroke="#010101" stroke-width="64" d="M5840.613,5139.229
			c-30.784,7.379-55.055,6.994-83.17,21.65c-28.658,14.939-67.366,30.318-97.322,47.689c0.176,46.05-11.606,90.227-30.508,142.188
			c-17.275,47.477-37.57,181.389-41.146,201.314c33.033,2.688,74.759,9.832,108.199,8.844c54.66-1.607,114.514-8.853,166.624-25.896
			c27.609-9.024,78.37-26.823,78.37-26.823c8.365-2.853-9.488-142.754-9.172-176.688c0.607-65.178,3.32-130.327,18.254-194.168
			c5.438-23.238,14.906-45.344,21.195-68.351c3.061-11.187,5.257-22.384,6.074-33.943c0.998-14.249-4.823-13.012-12.812-3.392
			c-6.688,8.049-13.949,17.416-19.021,26.672c-5.667,10.346-15.09,19.986-23,28.705
			C5900.576,5111.943,5874.009,5131.221,5840.613,5139.229z"/>
		<path id="_x31_80610970" fill="none" stroke="#010101" stroke-width="64" d="M5151.637,4288.002
			c-3.348-53.432-9.855-106.629-12.838-160.08c-5.664-101.499-0.512-209.179,64.922-292.975
			c34.967-44.78,89.896-57.006,132.064-89.805c-13.598-2.719-27.09-6.207-40.198-10.461
			c-101.61-32.946-159.159-6.994-242.687,50.635c-43.135,29.761-34.162,27.905-97.568,77.736c0,0-2.723,29.405-4.682,41.826
			c-11.73,74.035-18.254,147.048-16.894,221.957c1.532,83.51,2.431,166.401,2.304,247.832c-0.03,17.994,1.359,36.754,1.499,54.976
			c0.163,21.333,0.02,42.667,0.597,64.003c0.316,11.355,0.607,22.711,0.226,34.072c-0.208,6.408-0.589,22.974-0.589,22.974
			c66.189,9.247,121.959-36.812,169.3-75.822c17.267-14.228,31.985-31.153,45.534-49.242
			C5148.476,4380.541,5154.49,4333.494,5151.637,4288.002z"/>
		<path id="_x31_80610969" fill="none" stroke="#010101" stroke-width="64" d="M5379.174,3947.48
			c23.341-67.37,104.406-125.994,52.008-194.07c-26.484,0.441-53.074-1.377-79.165-5.385c-5.415-0.827-10.829-1.803-16.231-2.883
			c-42.17,32.796-97.098,45.027-132.064,89.807c-65.434,83.797-70.589,191.476-64.922,292.975
			c2.982,53.45,9.49,106.648,12.838,160.078c2.852,45.492-3.164,92.539,0.99,137.625c15.996-21.355,30.361-44.342,45.346-66.465
			c44.287-65.398,104.826-111.697,168.543-154.805c0.568-34.877-0.537-69.903,1.98-104.605
			C5372.185,4048.914,5361.711,3997.875,5379.174,3947.48z"/>
		<path id="_x31_80610968" fill="none" stroke="#010101" stroke-width="64" d="M5625.902,3791.008
			c-9.888-15.896-35.842-68.912-47.604-62.402c-17.58,9.737-38.628,12.201-58.731,15.869c-18.17,3.317-36.554,5.512-54.625,7.146
			c-11.202,1.016-22.473,1.604-33.76,1.789c52.398,68.076-28.67,126.7-52.01,194.07c-17.461,50.395-6.987,101.434-10.676,152.273
			c-2.518,34.7-1.416,69.729-1.982,104.605c34.176-23.122,69.268-45.326,103.257-69.064c36.899-25.768,86.879-46.571,132.726-44.922
			c23.9,0.865,50.246,4.473,72.902,12.478c12.135-12.229,33.243-9.188,41.473-4.108c14.659-21.588,8.703-13.576,16.857-17.918
			c8.354-4.443,18.117-5.626,27.424-6.32c24.809-1.854,52.382,11.094,53.652-21.016c0.883-22.301-43.217-66.694-56.072-83.869
			C5714.35,3910.344,5665.064,3853.939,5625.902,3791.008z"/>
		<path id="_x31_80610967" fill="none" stroke="#010101" stroke-width="64" d="M5627.284,5187.312
			c-37.993,55.03-94.032,89.465-165.552,88.158c-53.445-0.998-105.263-29.608-145.326-62.531
			c-76.838-63.157-115.437-159.987-137.193-254.104c-17.816-77.07-35.014-154.721-42.965-233.475
			c-67.969,56.871-144.246,127.146-160.326,153.047c12.067,64.756,49.916,172.87,67.023,209.532
			c41.229,88.354,88.352,175.257,157.656,246.289c44.643,45.758,93.4,87.788,147.146,122.856
			c27.249,17.786,57.392,34.398,87.024,48.173c14.717,6.837,87.615,33.257,125.259,41.461
			c1.688-64.782,51.163-218.998,55.722-234.353C5629.354,5266.502,5631.117,5226.341,5627.284,5187.312z"/>
		<path id="_x31_80610966" fill="none" stroke="#010101" stroke-width="64" d="M5316.406,5212.939
			c40.063,32.924,91.881,61.533,145.326,62.531c71.516,1.307,127.559-33.128,165.552-88.158
			c-5.702-58.027-23.794-113.545-33.825-181.543c-0.776-5.258-1.531-10.459-2.286-15.619c-23.284-5.16-51.689,16.67-61.979,33.326
			c-14.532,23.528-14.491,59.941-37.589,77.53c-78.445,59.739-186.459-76.166-189.226-145.512
			c-2.155-53.69,34.093-96.007,51.104-144.385c21.963-62.461,2.325-117.418,2.528-178.063c-38.124-12.133-78.29-8.844-121.25,16.938
			c-20.017,12.015-57.772,41.287-98.516,75.376c7.947,78.754,25.149,156.402,42.966,233.473
			C5200.967,5052.949,5239.568,5149.781,5316.406,5212.939z"/>
		<path id="_x31_80610965" fill="none" stroke="#010101" stroke-width="64" d="M5353.484,4811.108
			c-17.012,48.38-53.26,90.693-51.104,144.387c2.767,69.346,110.78,205.251,189.226,145.509c23.096-17.588,23.053-54,37.589-77.529
			c10.289-16.659,38.694-38.484,61.979-33.326c-8.685-59.379-17.034-112.66-49.523-168.472
			c-27.69-47.58-145.904-172.195-169.055-182.354c-5.487-2.408-11.011-4.504-16.584-6.277
			C5355.81,4693.691,5375.447,4748.646,5353.484,4811.108z"/>
		<path id="_x31_80610964" fill="none" stroke="#010101" stroke-width="64" d="M6021.948,5003.898
			c11.963-4.957,19.94,4.229,30.128,9.139c9.903,4.776,23.043,9.147,34.021,10.407c25.959,2.979,51.122-5.419,74.546-15.619
			c20.499-8.929,37.958-23.855,56.278-36.203c10.481-7.06,19.575-16.334,28.871-24.991c11.9-11.084,23.422-22.558,34.998-33.97
			c25.68-25.312,36.742-52.362,54.764-81.259c21.821-34.995,52.986-61.353,65.487-102.164
			c18.356-59.986,19.075-97.825,59.581-149.426c31.904-40.648,73.654-72.861,118.368-98.775
			c34.659-20.092,71.604-36.717,108.374-51.073c99.457-38.823,225.007-51.423,225.655-186.833
			c0.36-76.791-60.427-134.598-121.067-173.699c-103.165-66.52-225.351-103.761-341.352-141.82
			c-120.096-39.413-241.233-76.729-357.814-125.658c-71.512-30.017-138.877-66.398-206.332-104.223
			c-10.023-5.619-20.395-11.338-30.77-16.328c-23.268-11.193-48.615-17.156-72.97-25.482c-17.39-5.946-58.794-17.788-44.761-36.954
			c5.697-7.78,40.238-29.313,49.71-32.923c19.456-7.416,61.706-20.965,88.236-20.479c37.219,0.688,79.521,1.984,135.99,26.67
			c115.513,50.5,230.534,113.086,341.12,173.404c84.271,45.969,171.19,81.401,258.314,121.16
			c45.787,20.898,88.935,44.911,132.855,69.383c69.287,38.699,141.979,69.242,215.34,103.149
			c46.987,21.763,106.371,55.985,145.352,89.874c14.042,12.211,26.395,29.215,31.109,47.276c3.613,13.866,0.533,31.276,1.189,45.798
			c1.384,30.575-3.188,59.372-6.953,89.59c-6.138,49.277-17.573,100.484-35.049,147.05c-5.6,14.92-11.325,29.036-17.317,42.566
			l-10.876,9.312c-40.334,52.607-127.768,35.042-180.549,62.508c-34.912,18.165-64.137,45.658-95.215,69.333
			c-74.827,56.978-145.347,119.069-214.859,182.451c-53.771,49.011-134.953,156.099-175.685,215.931
			c-50.751,74.588-55.284,182.458-122.694,240.988l1.61,2.12c-54.628,40.916-110.618,79.229-169.744,117.083
			c-54.733,35.05-91.497,12.801-118.729-43.591c-19.337-40.048-26.081-87.233-23.041-131.399
			c4.896-71.071,11.853-103.482,22.678-153.018c5.009-22.895,2.976-60.811,18.788-79.438
			C6013.855,5008.672,6017.948,5005.557,6021.948,5003.898z"/>
		<path id="_x31_80610963" fill="none" stroke="#010101" stroke-width="64" d="M6009.924,4967.094
			c1.396-8.184,2.607-16.406,3.581-24.676c1.919-16.236,11.839-28.575,26.353-34.777c14.947-6.39,29.186-16.508,42.131-26.169
			c26.156-19.508,49.725-44.401,63.48-74.065c7.564-16.307,12.031-33.916,12.196-51.893c0.644-70.891,16.521-153.109,47.861-216.951
			c20.163-41.031,32.39-83.484,49.757-125.482c16.059-38.81,35.637-54.74,77.291-58.406
			c57.303-5.043,278.992-101.668,233.273-184.017c-18.803-33.858-85.248-48.83-119.611-60.755
			c-68.137-23.633-140.271-30.941-209.404-50.594c-71.575-20.342-124.45-57.522-185.225-97.705
			c-62.838-41.543-126.406-83.713-185.006-130.406c-29.09-23.178-51.475-53.348-80.444-76.628
			c-33.676-27.07-75.812-50.522-100.591-86.695c-6.211-9.063-9.606-19.124-10.891-29.96c-0.59-4.931,2.823-28.875,12.642-21.303
			l3.073,1.021c61.261,35.583,134.252,45.441,196.059,80.092c67.453,37.821,134.822,74.205,206.331,104.219
			c116.585,48.93,237.721,86.247,357.817,125.661c116,38.059,238.188,75.3,341.35,141.819
			c60.646,39.102,121.429,96.908,121.067,173.7c-0.646,135.409-126.194,148.009-225.653,186.833
			c-36.767,14.354-73.713,30.982-108.375,51.074c-44.709,25.911-86.465,58.121-118.369,98.772
			c-40.506,51.602-41.225,89.439-59.58,149.428c-12.501,40.813-43.661,67.169-65.486,102.163
			c-18.018,28.894-29.085,55.945-54.764,81.26c-72.734,71.678-184.564,171.691-271.902,64.646L6009.924,4967.094z"/>
		<path id="_x31_80610962" fill="none" stroke="#010101" stroke-width="64" d="M6033.695,4910.771
			c61.791-29.768,123.337-86.305,123.968-155.255c0.646-70.892,16.522-153.111,47.863-216.951
			c20.161-41.027,32.39-83.486,49.755-125.484c16.061-38.808,35.637-54.74,77.293-58.406
			c57.303-5.042,278.992-101.666,233.273-184.014c-18.805-33.858-85.248-48.833-119.613-60.756
			c-68.137-23.633-140.27-30.941-209.402-50.594c-71.575-20.344-124.45-57.521-185.225-97.705
			c-62.838-41.545-126.406-83.715-185.006-130.406c-29.09-23.178-51.475-53.35-80.444-76.627
			c-5.892-4.736-11.922-9.297-17.97-13.835c-11.904-8.92-24.539-17.165-36.063-26.46c-10.928-8.82-22.612-17.729-32.228-28.08
			c-1.51-1.632-17.775-21.851-17.211-22.237c-0.004,0.003-2.746,1.876-2.746,1.876c-4.313,4.439-8.658,8.832-13.112,13.092
			c-16.028,15.326-60.507,39.897-60.507,39.897c17.396,30.733,48.945,62.718,67.961,92.276
			c42.769,66.507,95.553,121.377,141.543,184.623c20.205,27.805,47.234,91.44,47.234,91.44
			c70.26,15.992,148.723,42.128,161.541,47.985c20.468,9.354,37.117,11.475,46.18,31.842
			c22.593,50.713-39.814,126.722-64.465,167.617c-32.883,54.564-66.93,109.266-90.958,168.062
			c-10.072,24.637-17.093,49.778-22.376,75.789c-3.365,16.604-3.109,39.703-18.637,55.352
			c61.355,59.275,65.294,75.342,108.201,125.705c34.515,40.508,44.76,96.961,44.22,149L6033.695,4910.771z"/>
		<path id="_x31_80611005" fill="none" stroke="#010101" stroke-width="64" d="M6634.479,4997.922
			c8.361-6.98,16.703-14,25.016-21.086c37.248-31.764,74.345-63.551,110.939-96.067c34.326-30.506,68.832-59.835,100.497-93.198
			c22.717-23.936,48.907-45.557,70.11-70.699c22.165-26.268,104.305-100.766,62.062-138.867
			c-56.557-51.01-172.475,54.598-211.891,84.623c-74.827,56.979-145.344,119.072-214.859,182.453
			c-53.77,49.012-134.953,156.102-175.682,215.924c-15.74,23.132-84.494,140.683-62.185,161.51
			c30.903,28.842,163.975-115.74,187.813-135.57C6562.164,5057.104,6598.546,5027.893,6634.479,4997.922z"/>
		<path id="_x31_80611006" fill="none" stroke="#010101" stroke-width="64" d="M5849.132,4084.229
			c-62.966-12.676-120.249-16.103-127.712,9.993c-1.645,5.758,26.225,17.584,29.906,19.526
			c51.506,27.236,65.598,87.265,55.605,140.683c-8.041,42.944-45.44,68.241-65.316,104.821
			c-44.02,81.058-4.922,153.801,46.73,219.941c15.878,20.328,49.463,77.179,83.682,56.296
			c16.668-10.172,17.591-40.433,20.959-57.033c5.281-26.009,12.3-51.152,22.373-75.788c24.025-58.799,58.079-113.499,90.959-168.062
			c24.649-40.896,87.059-116.905,64.469-167.619c-9.066-20.367-25.716-22.488-46.183-31.842
			C6010.49,4128.707,5925.625,4099.633,5849.132,4084.229z"/>
		<path id="_x31_80611004" fill="none" stroke="#010101" stroke-width="64" d="M5674.846,4127.289
			c5.973,24.223,26.802,55.183,31.795,67.012c7.949,18.877,40.846,110.348,75.104,93.707c10.488-5.092,18.75-17.523,22.526-27.955
			c5.176-14.249,5.702-33.463,4.782-48.42c-2.711-44.512-25.226-85.705-67.982-103.169c-15.295-6.249-29.914-14.716-47.114-13.211
			C5673.719,4097.018,5670.734,4110.537,5674.846,4127.289z"/>
	</g>
</g>
</svg>
