<svg width="11056" height="7840" xmlns="http://www.w3.org/2000/svg">
<g transform="scale(1.0)">
<g id="180631529" order="1" parent_id="" graphic_group_label_id="28" graphic_group_label="Atlas - Adult Mouse" sub_image_id="100960268" transform=" scale(1.0, 1.0)"><path id="180631531" parent_id="180631529" order="0" structure_id="8" d="M5556.768,7290.538
			c204.379,13.979,441.375-18.73,627.523-78.004c207.163-65.988,387.6-163.331,586.502-239.252
			c47.065-17.945,121.854-51.797,205.086-93.132c82.359-40.886,154.108-104.757,183.515-45.743
			c82.529,165.554,242.723,313.926,425.649,443.78c243.045,172.525,531.283,300.344,780.098,275.247
			c245.337-24.748,483.364-266.731,627.72-450.515c95.332-121.364,153.149-266.512,234.209-396.932
			c76.057-122.374,164.289-226.244,237.306-351.68c142.045-244.025,252.554-504.684,386.618-752.959
			c111.323-206.179,271.499-374.112,392.277-573.186c79.483-130.983,105.147-281.344,128.048-431.013
			c49.86-326.073,15.115-658.234-56.388-978.248c-37.918-169.717-73.783-356.189-144.221-515.839
			c-48.05-108.899-99.521-237.602-195.78-312.133c-67.512-52.278-64.195-52.298-75.611-127.9
			c-30.644-203.102-176.83-390.631-285.284-562.347c-173.63-274.862-374.255-512.248-661.694-669.184
			c-258.395-141.08-546.912-215.941-809.355-348.996c-124.702-63.215-271.546-116.042-401.663-170.742
			c-95.365-40.092-191.004-81.335-291.453-108.496c-60.373-16.32-122.942-19.079-185.089-21.787
			c-109.422-4.778-217.336-24.298-326.558-32.884c-112.361-8.83-226.256-1.194-338.951-0.379
			c-124.45,0.9-250.223,5.007-373.704,20.458c-117.297,14.685-234.369,42.677-333.047,110.683
			c-79.891,55.057-131.793,141.159-220.726,183.852L5556.768,7290.538z" style="stroke:black;fill:#bfdae3"/><path id="180631532" parent_id="180631529" order="1" structure_id="688" d="M6287.919,3056.74
			c-3.264-3.133-6.038-5.758-8.164-7.541c-0.979-0.931-2.043-1.781-3.023-2.63c-2.125-1.866-4.164-3.813-6.206-5.678
			c-34.644-30.448-67.552-55.883-105.253-82.651c-8.523-6.053-17.218-11.86-25.827-17.748c-0.902-0.598-1.722-1.194-2.622-1.875
			c-74.82-53.526,92.674-54.501,147.007-56.071c87.23-2.541,178.998-30.405,244.128-68.144
			c60.515-35.084,82.486-96.288,108.858-161.978c66.666-165.83-75.031-194.935-194.335-186.676
			c-81.642,5.633-168.617,21.297-248.091,39.922c-81.809,19.164-163.668,41.067-237.733,81.547
			c-40.01,21.846-59.346,30.29-69.147,75.444c-1.267,5.623,3.413,62.42-4.604,91.915c-3.298,12.228-3.253,18.789-18.493,21.247
			c-22.679,5.061-45.843,9.449-69.18,14.249c-23.822,4.044-46.568,8.273-74.642,17.719c-2.172,0.707-4.263,1.499-6.352,2.208
			c-0.001,0.083-0.001,0.083-0.084,0.082c-7.515,2.269-28.072,9.362-45.258,18.261c-0.136,0.052-0.265,0.098-0.399,0.149
			c-22.683,11.824-39.313,26.886-11.973,38.592c15.112,6.462,30.916-4.632,45.673-5.923c48.292-4.246,60.714,48.367,78.828,80.591
			c36.176,64.319,130.462,97.55,196.653,142.011c73.821,49.588,96.673,111.228,177.739,116.762
			c34.712,2.374,146.885-25.91,188.886-36.64c29.024-7.42,43.752-8.426,47.185-10.497c0.688-0.415,0.923-0.873,0.728-1.434
			c-1.803-1.528-3.629-3.076-5.484-4.646c-1.474-0.99-3.228-2.14-5.247-3.483c0.293,0.188,0.582,0.349,0.874,0.53
			c-4.51-2.804-9.121-6.357-13.906-10.815C6341.353,3108.294,6315.187,3081.904,6287.919,3056.74z" style="stroke:black;fill:#b0ffb8"/><path id="180631533" parent_id="180631529" order="2" structure_id="688" d="M10315.086,3610.601
			c-37.918-169.717-73.785-356.186-144.213-515.839c-48.059-108.899-99.529-237.597-195.789-312.133
			c-67.52-52.278-64.203-52.294-75.602-127.896c-30.661-203.102-176.832-390.635-285.31-562.35
			c-173.614-274.862-374.231-512.244-661.679-669.18c-258.41-141.084-546.912-215.94-809.363-348.991
			c-124.687-63.223-271.538-116.047-401.663-170.747c-95.35-40.096-191.003-81.331-291.438-108.5
			c-60.38-16.32-122.958-19.074-185.088-21.782c-109.423-4.779-217.344-24.303-326.559-32.888
			c-112.368-8.831-226.271-1.191-338.959-0.376c-119.034,0.851-233.861,1.729-351.146,21.039
			c-74.106,12.199-150.288,14.208-221.598,39.854c-81.127,29.169-151.254,83.016-214.213,140.711
			c-25.555,23.42-45.304,53.503-74.054,73.392c-12.016,8.307-66.004,24.709-66.458,40.03
			c-0.225,11.915-24.13,1309.356-24.13,1309.356l0.153-8.3c4.228,0.41,9.284,0.835,15.004,1.356c0.57,0.592,1.063,0.933,1.559,1.025
			c15.576,1.865,29.928,2.545,42.805,2.202c0.083,0.001,0.166,0.003,0.249,0.004c67.668,4.654,157.749,9.64,157.749,9.64
			c7.887,0.063,33.521-3.2,69.324-13.084c57.921-16.035,142.568-49.511,222.412-115.126c8.344-6.737,16.613-13.892,24.808-21.462
			c34.465-31.828,60.271-53.356,87.022-76.692c19.831-17.236,40.179-35.46,64.953-59.58c7.271-7.09,15.362-13.583,24.022-19.401
			c10.51-7.112,22-13.294,34.055-18.634c11.218-4.941,22.835-9.044,34.772-12.477c33.724-9.673,69.415-13.498,101.361-12.326
			c33.19,1.194,70.527,7.198,108.983,15.547c68.809,14.805,141.054,36.898,199.402,51.676
			c74.051,18.722,149.813,34.735,225.956,57.065c27.501,8.064,55.841,15.646,84.599,23.068
			c69.251,17.886,140.763,34.734,206.493,54.381c89.926,26.903,177.834,59.581,265.922,96.082
			c87.919,36.581,168.774,78.013,248.932,130.309c53.738,35.036,103.895,70.753,156.853,107.601
			c22.789,15.948,46.155,32.073,70.513,48.465c69.71,46.956,131.277,76.241,193.048,135.006
			c143.525,136.831,281.237,278.288,403.218,435.313c52.311,67.392,102.181,136.566,148.854,208.006
			c14.616,22.356,28.896,44.873,42.841,67.632c57.546,94.142,127.733,182.706,179.491,280.062
			c30.409,57.356,67.356,106.944,86.646,168.413c22.428,71.407,50.705,140.846,74.637,211.782
			c23.938,70.604,58.992,155.198,63.34,234.491c0.322,4.988,0.479,9.973,0.471,14.954c0.002-0.083-0.081-0.084-0.08-0.167
			l-4.19,47.085c-16.472,82.562-13.214,180.434-45.215,258.641c-40.693,99.302-74.13,205.796-104.268,309.03
			c-1.953,6.855-4.156,13.706-6.356,20.475c-0.793,2.476-1.669,4.95-2.462,7.427c-0.085,0.082-0.087,0.165-0.173,0.329
			c-1.57,4.123-3.638,8.153-4.3,12.542c0,0-0.083-0.002-0.002,0.083c-12.951,35.879-28.29,70.636-43.63,105.475
			c-0.17,0.163-0.254,0.245-0.257,0.411c-15.477,24.208-24.782,56.004-33.589,78.758c-2.963,7.585-5.76,15.172-8.476,22.844
			c-1.309,3.38-2.45,6.764-3.592,10.146c-0.438,1.237-0.875,2.392-1.229,3.631c-1.227,3.465-2.372,7.014-3.516,10.48
			c-2.726,8.253-5.203,16.51-7.6,24.852c-0.981,3.719-2.047,7.436-2.946,11.155c-1.071,4.049-2.059,8.1-3.047,12.149
			c-13.434,57.459-29.386,111.966-46.545,168.858c-22.373,73.9-41.206,149.527-64.565,222.911l-0.618,1.981
			c-0.354,1.156-0.711,2.562-1.155,4.131l-1.773,6.111c-14.316,51.299-59.656,222.338-109.761,327.693
			c-7.938,7.16-13.718,23.411-18.244,34.703c-0.086,0.164-0.255,0.327-0.258,0.493c-17.23,29.241-34.606,48.433-51.248,50.367
			c-3.063-32.023,94.519-284.715,129.215-365.031c23.422-54.285,45.666-175.185-8.693-203.589
			c-74.014-38.732-217.649,127.004-286.622,233.423c-37.39,57.688-64.868,131.837-87.999,172.571
			c0.125,0.512,0.246,1.019,0.375,1.534c9.764,39.29,13.936,70.382,29.746,106.03c26.336,59.434,70.441,58.401,64.896,126.813
			c-6.627,81.776-81.765,268.344-175.145,266.617c-60.534-1.118-136.069-43.13-189.799-63.699
			c-48.929-18.727-84.497-32.702-142.677-29.624c-62.103,3.288-152.179,27.423-239.862,61.994
			c-70.189,27.677-108.837,83.041-139.293,124.054c-74.516,100.333-123.722,180.384-219.983,334.286
			c-18.197,29.104-106.45,150.556-126.778,173.804c74.993,77.127,163.751,149.453,258.647,216.81
			c243.038,172.521,531.285,300.339,780.082,275.247c245.353-24.752,483.364-266.731,627.72-450.52
			c95.34-121.363,153.148-266.507,234.21-396.931c76.07-122.369,164.304-226.245,237.305-351.676
			c142.054-244.025,252.57-504.685,386.625-752.965c111.316-206.174,271.509-374.107,392.286-573.181
			c79.485-130.988,105.147-281.348,128.032-431.016C10421.334,4262.781,10386.596,3930.619,10315.086,3610.601z" style="stroke:black;fill:#b0ffb8"/><path id="180631638" parent_id="180631529" order="3" structure_id="320" d="M6842.938,744.578l-28.827,180.645
			c-15.882,1.201-31.759,2.153-47.712,2.771c-106.606,4.093-212.554-13.973-319.083-14.031c-14.613-0.021-29.39-0.21-44.082-0.482
			l-3.217-158.485c66.254-4.173,132.719-6.267,199.32-6.779C6680.222,747.635,6761.836,743.496,6842.938,744.578z" style="stroke:black;fill:#1f9d5a"/><path id="180631637" parent_id="180631529" order="4" structure_id="943" d="M6814.111,925.223
			l-41.986,263.683c-4.295,7.726-6.136,17.489-4.698,29.556l-7.326,46.03c-84.268-23.062-211.473-63.523-279.533-78.398
			c-23.57-5.084-47.638-10.263-72.047-14.866l-5.286-257.746c14.692,0.271,29.469,0.461,44.082,0.482
			c106.529,0.058,212.477,18.124,319.083,14.031C6782.353,927.376,6798.229,926.424,6814.111,925.223z" style="stroke:black;fill:#1f9d5a"/><path id="180631636" parent_id="180631529" order="5" structure_id="648" d="M6760.101,1264.491l-55.787,350.03
			c-10.365-5.256-20.817-10.265-31.359-14.944c-82.355-36.644-172.097-73.507-257.01-66.108l-7.424-362.242
			c24.409,4.603,48.477,9.781,72.047,14.866C6548.628,1200.968,6675.833,1241.43,6760.101,1264.491z" style="stroke:black;fill:#1f9d5a"/><path id="180631635" parent_id="180631529" order="6" structure_id="844" d="M6704.313,1614.521
			l-53.917,338.689c-67.6-17.357-160.378-47.136-226.584-36.568l-7.868-383.173c84.913-7.399,174.654,29.464,257.01,66.108
			C6683.496,1604.256,6693.948,1609.266,6704.313,1614.521z" style="stroke:black;fill:#1f9d5a"/><path id="180631634" parent_id="180631529" order="7" structure_id="882" d="M6650.396,1953.211l-13.338,83.782
			c-38.456-8.35-75.793-14.353-108.983-15.547c-31.946-1.171-67.638,2.653-101.361,12.326l-0.549-1.754l-2.353-115.375
			C6490.019,1906.075,6582.797,1935.854,6650.396,1953.211z" style="stroke:black;fill:#1f9d5a"/><path id="180631643" parent_id="180631529" order="8" structure_id="656" d="M6400.018,754.996l3.217,158.485
			c-156.042-3.132-316.288-16.969-446.817,64.067l-44.088-108.009c57.098-38.884,127.534-71.709,222.792-86.307
			C6223.551,769.754,6311.651,760.588,6400.018,754.996z" style="stroke:black;fill:#1f9d5a"/><path id="180631642" parent_id="180631529" order="9" structure_id="962" d="M6403.234,913.481
			l5.286,257.746c-123.95-23.379-254.256-30.851-346.22,66.092l-0.083-0.001l-105.803-259.687l0.002-0.083
			C6086.946,896.513,6247.192,910.35,6403.234,913.481z" style="stroke:black;fill:#1f9d5a"/><path id="180631641" parent_id="180631529" order="10" structure_id="767" d="M6408.521,1171.228l7.424,362.242
			c-48.901,4.245-96.245,23.049-139.698,65.008c-18.599,17.923-32.74,37.341-43.167,57.906l-170.778-419.063
			C6154.265,1140.376,6284.57,1147.849,6408.521,1171.228z" style="stroke:black;fill:#1f9d5a"/><path id="180631640" parent_id="180631529" order="11" structure_id="1021" d="M6415.944,1533.469l7.868,383.173
			c-19.321,3.13-36.297,9.625-49.872,20.833c-6.662,5.523-12.841,11.885-18.616,18.919l-122.245-300.012
			c10.427-20.565,24.568-39.983,43.167-57.906C6319.699,1556.518,6367.043,1537.714,6415.944,1533.469z" style="stroke:black;fill:#1f9d5a"/><path id="180631639" parent_id="180631529" order="12" structure_id="1085" d="M6426.165,2032.018l0.549,1.754
			c-11.938,3.433-23.555,7.536-34.772,12.477l-36.619-89.77l0.002-0.083c5.775-7.034,11.954-13.396,18.616-18.919
			c13.575-11.208,30.551-17.703,49.872-20.833L6426.165,2032.018z" style="stroke:black;fill:#1f9d5a"/><path id="180631621" parent_id="180631529" order="13" structure_id="981" d="M9974.896,2790.974
			l-79.397,41.461c-22.071-32.292-43.463-65.485-63.07-100.721c-50.709-91.193-77.152-192.482-123.345-285.418
			c-41.069-82.629-99.375-153.619-147.578-232.145c-40.386-65.677-72.366-136.929-117.2-200.031
			c-75.832-106.603-154.888-195.994-260.834-272.598c-94.718-68.591-200.541-115.881-296.803-181.843
			c-81.5-55.975-154.003-100.076-235.57-138.947l0.002-0.083l57.131-103.648c83.146,34.333,165.08,71.302,244.158,114.528
			c287.383,156.926,488.005,394.285,661.612,669.173c108.507,171.722,254.667,359.252,285.374,562.335
			C9910.765,2738.641,9907.443,2738.663,9974.896,2790.974z" style="stroke:black;fill:#188064"/><path id="180631620" parent_id="180631529" order="14" structure_id="201" d="M9895.498,2832.435
			c-0.001,0.083-0.001,0.083-0.001,0.083l-245.237,128.156l-0.083-0.001c-82.685-153.643-201.438-310.11-299.684-457.398
			c-81.521-122.235-166.844-263.471-277.734-360.093c-180.757-157.53-375.333-304.189-582.669-429.827l161.008-292.621
			c81.567,38.871,154.07,82.972,235.57,138.947c96.262,65.962,202.085,113.252,296.803,181.843
			c105.946,76.604,185.002,165.995,260.834,272.598c44.834,63.102,76.814,134.354,117.2,200.031
			c48.203,78.525,106.509,149.516,147.578,232.145c46.192,92.936,72.636,194.226,123.345,285.418
			C9852.035,2766.95,9873.427,2800.143,9895.498,2832.435z" style="stroke:black;fill:#188064"/><path id="180631619" parent_id="180631529" order="15" structure_id="1047" d="M9650.177,2960.672
			l-143.705,75.146c-25.658-49.38-51.73-98.851-78.029-145.004c-108.903-190.661-250.489-410.074-406.783-565.906
			c-126.048-125.631-285.145-224.14-427.755-329.652c-60.533-44.793-123.16-88.628-186.81-131.071l0.002-0.083l82.91-150.75
			l0.083,0.002c207.336,125.638,401.912,272.297,582.669,429.827c110.891,96.622,196.213,237.858,277.734,360.093
			C9448.739,2650.562,9567.492,2807.029,9650.177,2960.672z" style="stroke:black;fill:#188064"/><path id="180631618" parent_id="180631529" order="16" structure_id="1070" d="M9506.472,3035.818
			l-286.572,149.811c-24.4-45.537-50.482-89.943-78.851-131.983c-66.924-98.882-137.451-191.521-222.353-274.627
			c-118.669-116.029-223.023-238.271-358.538-336.842c-111.589-81.274-231.044-150.239-352.473-215.752l0.002-0.083l199.407-362.157
			c63.649,42.443,126.276,86.278,186.81,131.071c142.61,105.512,301.707,204.021,427.755,329.652
			c156.294,155.833,297.88,375.245,406.783,565.906C9454.741,2936.968,9480.813,2986.438,9506.472,3035.818z" style="stroke:black;fill:#188064"/><path id="180631617" parent_id="180631529" order="17" structure_id="1038" d="M9219.899,3185.629
			l-310.298,162.16c-18.227-29.149-36.372-58.213-54.35-87.357c-196.146-317.901-472.79-575.18-793.281-769.168l145.715-264.838
			c121.429,65.513,240.884,134.478,352.473,215.752c135.515,98.572,239.869,220.813,358.538,336.842
			c84.901,83.106,155.429,175.745,222.353,274.627C9169.417,3095.686,9195.499,3140.092,9219.899,3185.629z" style="stroke:black;fill:#188064"/><path id="180631616" parent_id="180631529" order="18" structure_id="1062" d="M8909.602,3347.789
			l-67.325,35.208l-1.43,0.97c-46.673-71.44-96.543-140.614-148.854-208.006c-121.98-157.025-259.692-298.482-403.218-435.313
			c-61.771-58.766-123.338-88.051-193.048-135.006c-24.357-16.392-47.724-32.517-70.513-48.465l2.048-2.951l34.625-62.963
			l0.083,0.001c320.491,193.988,597.136,451.268,793.281,769.168C8873.229,3289.575,8891.375,3318.64,8909.602,3347.789z" style="stroke:black;fill:#188064"/><path id="180631633" parent_id="180631529" order="19" structure_id="1030" d="M7505.228,819.751
			l-35.254,132.948c-133.262-36.256-271.127-52.503-410.616-48.271c-82.498,2.545-163.597,14.747-245.246,20.795l28.827-180.645
			c31.878,0.341,63.658,1.509,95.33,4.004c109.278,8.578,217.192,28.091,326.622,32.936c62.143,2.643,124.697,5.458,185.092,21.769
			C7468.571,808.363,7486.903,813.85,7505.228,819.751z" style="stroke:black;fill:#188064"/><path id="180631632" parent_id="180631529" order="20" structure_id="113" d="M7469.974,952.699
			l-83.168,312.99c-118.439-29.505-240.706-49.699-358.361-72.215c-45.341-8.726-223.435-63.246-256.319-4.568l41.986-263.683
			c81.649-6.048,162.748-18.25,245.246-20.795C7198.847,900.196,7336.712,916.443,7469.974,952.699z" style="stroke:black;fill:#188064"/><path id="180631631" parent_id="180631529" order="21" structure_id="1094" d="M7386.806,1265.689
			l-43.996,165.75c-69.768-21.382-139.621-42.601-209.654-63.075c-71.189-20.828-351.041-50.492-365.447-147.158
			c-0.148-0.916-0.215-1.83-0.281-2.745l4.698-29.556c32.885-58.678,210.979-4.157,256.319,4.568
			C7146.1,1215.99,7268.366,1236.184,7386.806,1265.689z" style="stroke:black;fill:#188064"/><path id="180631630" parent_id="180631529" order="22" structure_id="1128" d="M6760.101,1264.491l7.326-46.03
			c0.066,0.915,0.133,1.829,0.281,2.745c14.406,96.667,294.258,126.331,365.447,147.158
			c70.033,20.474,139.887,41.692,209.654,63.075l-92.364,347.86c-117.577-17.781-238.917-25.171-350.003-66.248
			c-67.377-24.909-130.887-65.938-196.129-98.529L6760.101,1264.491z" style="stroke:black;fill:#188064"/><path id="180631629" parent_id="180631529" order="23" structure_id="478" d="M7250.445,1779.299
			l-82.816,311.918c-43.531-12.263-87.745-23.542-132.556-34.001c-115.086-26.787-225.124-75.151-342.174-94.501
			c-12.334-2.055-26.803-5.394-42.503-9.503l53.917-338.689c65.242,32.591,128.752,73.62,196.129,98.529
			C7011.528,1754.127,7132.868,1761.518,7250.445,1779.299z" style="stroke:black;fill:#188064"/><path id="180631628" parent_id="180631529" order="24" structure_id="510" d="M7167.629,2091.217
			l-18.736,70.397l-1.877,7.189c-28.758-7.423-57.098-15.004-84.599-23.068c-76.144-22.331-151.905-38.344-225.956-57.065
			c-58.349-14.777-130.594-36.871-199.402-51.676l13.338-83.782c15.7,4.109,30.169,7.449,42.503,9.503
			c117.05,19.35,227.088,67.714,342.174,94.501C7079.884,2067.675,7124.098,2078.954,7167.629,2091.217z" style="stroke:black;fill:#188064"/><path id="180631627" parent_id="180631529" order="25" structure_id="1006" d="M8708.23,1317.001
			l-57.131,103.648c-27.163-12.873-55.331-25.268-85.167-37.277c-62.638-25.237-121.365-55.465-182.628-83.251
			c-77.158-34.804-162.33-49.331-240.608-81.914c-89.9-37.281-173.455-89.89-264.131-125.608
			c-72.21-28.485-149.155-43.358-220.081-73.979c-61.534-26.544-124.481-48.548-188.511-65.922l35.254-132.948
			c80.478,25.898,158.409,59.306,236.188,92.045c130.016,54.629,276.837,107.492,401.545,170.742
			C8325.089,1174.83,8519.774,1239.123,8708.23,1317.001z" style="stroke:black;fill:#188064"/><path id="180631626" parent_id="180631529" order="26" structure_id="670" d="M8651.1,1420.649
			l-0.002,0.083l-161.008,292.621l-0.083-0.002c-186.314-112.878-382.909-208.675-589.171-280.074
			c-150.821-52.107-246.428-86.09-395.579-134.181c-38.794-12.507-78.445-23.536-118.451-33.408l83.168-312.99
			c64.029,17.374,126.977,39.378,188.511,65.922c70.926,30.621,147.871,45.494,220.081,73.979
			c90.676,35.718,174.23,88.327,264.131,125.608c78.278,32.583,163.45,47.109,240.608,81.914
			c61.263,27.786,119.99,58.014,182.628,83.251C8595.769,1395.382,8623.937,1407.776,8651.1,1420.649z" style="stroke:black;fill:#188064"/><path id="180631625" parent_id="180631529" order="27" structure_id="1086" d="M8490.007,1713.352
			l-82.91,150.75c-81.532-54.231-164.933-106.256-248.389-155.209c-72.368-42.438-149.19-54.983-224.97-88.018
			c-52.056-22.799-104.021-45.929-159.321-59.405c-66.293-16.17-130.999-37.376-196.224-57.43
			c-78.436-24.117-156.864-48.565-235.384-72.601l43.996-165.75c40.006,9.873,79.657,20.901,118.451,33.408
			c149.151,48.09,244.758,82.073,395.579,134.181C8107.098,1504.677,8303.692,1600.474,8490.007,1713.352z" style="stroke:black;fill:#188064"/><path id="180631624" parent_id="180631529" order="28" structure_id="1111" d="M8407.097,1864.102
			l-0.002,0.083l-199.407,362.157c-59.77-32.241-119.969-63.66-179.914-95.323c-185.513-97.917-365.746-202.878-555.992-291.75
			c-69.561-32.588-144.66-48.506-221.336-59.969l92.364-347.86c78.52,24.035,156.948,48.484,235.384,72.601
			c65.225,20.053,129.931,41.259,196.224,57.43c55.3,13.477,107.266,36.606,159.321,59.405
			c75.779,33.035,152.602,45.581,224.97,88.018C8242.164,1757.846,8325.564,1809.87,8407.097,1864.102z" style="stroke:black;fill:#188064"/><path id="180631623" parent_id="180631529" order="29" structure_id="9" d="M8207.688,2226.341l-0.002,0.083
			l-145.715,264.838l-0.083-0.001c-2.217-1.37-4.517-2.74-6.732-4.11c-286.189-172.099-571.316-307.228-887.526-395.935
			l82.816-311.918c76.676,11.463,151.775,27.381,221.336,59.969c190.246,88.872,370.479,193.833,555.992,291.75
			C8087.719,2162.681,8147.918,2194.1,8207.688,2226.341z" style="stroke:black;fill:#188064"/><path id="180631622" parent_id="180631529" order="30" structure_id="461" d="M8061.888,2491.261
			l-34.625,62.963l-2.048,2.951c-52.958-36.848-103.114-72.565-156.853-107.601c-80.157-52.296-161.013-93.729-248.932-130.309
			c-88.088-36.501-175.996-69.179-265.922-96.082c-65.73-19.647-137.242-36.495-206.493-54.381l1.877-7.189l18.736-70.397
			c316.21,88.707,601.337,223.836,887.526,395.935C8057.371,2488.521,8059.671,2489.892,8061.888,2491.261z" style="stroke:black;fill:#188064"/><path id="180631615" parent_id="180631529" order="31" structure_id="873" d="M10314.979,3618.943
			c56.905,254.715,90.502,517.137,76.631,778.1l-1.493-0.11l-148.01-6.471c22.802-187.065-27.489-395.243-45.129-582.06
			c-19.369-205.531-47.797-410.647-98.649-610.947c-36.454-143.655-123.448-248.388-202.832-364.938c0,0,0,0,0.001-0.083
			l79.397-41.461c96.27,74.515,147.781,203.17,195.838,312.083C10241.185,3262.7,10277.014,3449.188,10314.979,3618.943z" style="stroke:black;fill:#188064"/><path id="180631614" parent_id="180631529" order="32" structure_id="806" d="M10196.979,3808.402
			c17.64,186.816,67.931,394.994,45.129,582.06l-255.948-11.204c3.993-36.378,7.348-74.096,10.06-113.07
			c8.457-120.656,6.035-268.249-15.252-387.96c-53.396-300.816-170.604-585.789-301.624-860.306
			c-9.031-19.015-18.808-38.127-29.083-57.248l245.237-128.156c79.384,116.549,166.378,221.282,202.832,364.938
			C10149.182,3397.755,10177.609,3602.872,10196.979,3808.402z" style="stroke:black;fill:#188064"/><path id="180631613" parent_id="180631529" order="33" structure_id="1035" d="M9980.967,3878.228
			c21.287,119.711,23.709,267.304,15.252,387.96c-2.712,38.975-6.066,76.692-10.06,113.07l-112.748-4.989
			c1.135-47.972,1.687-95.871,4.551-142.98c13-209.333-6.368-428.398-76.848-626.985
			c-58.247-164.068-151.542-296.235-232.257-448.679c-20.459-38.656-41.3-79.146-62.386-119.806l143.705-75.146l0.083,0.001
			c10.275,19.121,20.052,38.233,29.083,57.248C9810.362,3292.438,9927.57,3577.412,9980.967,3878.228z" style="stroke:black;fill:#188064"/><path id="180631612" parent_id="180631529" order="34" structure_id="1090" d="M9801.114,3604.303
			c70.479,198.586,89.848,417.652,76.848,626.985c-2.864,47.109-3.416,95.009-4.551,142.98l-301.828-13.214
			c0.143-7.72,0.29-15.688,0.351-23.492c1.959-164.45-37.699-354.995-81.799-516.311
			c-42.929-157.226-105.597-302.195-176.704-448.815c-29.995-61.832-60.374-125.332-93.531-186.807l286.572-149.811
			c21.086,40.66,41.927,81.15,62.386,119.806C9649.572,3308.068,9742.867,3440.235,9801.114,3604.303z" style="stroke:black;fill:#188064"/><path id="180631611" parent_id="180631529" order="35" structure_id="862" d="M9571.934,4337.563
			c-0.061,7.804-0.208,15.772-0.351,23.492l-162.114-7.063l-0.084-0.002c-4.651-53.808-28.83-124.832-37.318-146.328
			c-43.163-108.573-98.453-212.471-148.566-317.935c-89.115-187.639-203.075-365.274-313.898-541.938l310.298-162.16
			c33.157,61.476,63.536,124.975,93.531,186.807c71.107,146.62,133.775,291.589,176.704,448.815
			C9534.234,3982.567,9573.893,4173.112,9571.934,4337.563z" style="stroke:black;fill:#188064"/><path id="180631610" parent_id="180631529" order="36" structure_id="893" d="M9409.385,4353.989l-111.67-4.886
			l-3.264,1.352c-0.721-1.425-1.525-2.852-2.246-4.276l-4.403,0.168c-4.348-79.293-39.402-163.887-63.34-234.491
			c-23.932-70.937-52.209-140.375-74.637-211.782c-19.29-61.468-56.237-111.057-86.646-168.413
			c-51.758-97.356-121.945-185.92-179.491-280.062c-13.944-22.759-28.225-45.276-42.841-67.632l1.43-0.97l67.325-35.208
			c110.823,176.664,224.783,354.299,313.898,541.938c50.113,105.464,105.403,209.361,148.566,317.935
			C9380.555,4229.157,9404.733,4300.182,9409.385,4353.989z" style="stroke:black;fill:#188064"/><path id="180631609" parent_id="180631529" order="37" structure_id="897" d="M10390.117,4396.933l1.493,0.11
			c-3.478,66.86-10.108,133.661-20.304,200.148c-22.859,149.617-48.553,300.012-128.026,430.98
			c-8.135,13.384-16.351,26.601-24.812,39.646l-6.729-4.359l-208.633-91.37c9.569-14.603,18.975-29.292,28.216-44.149
			c101.648-162.692,185.304-340.248,210.106-532.259c0.198-1.74,0.479-3.479,0.678-5.219L10390.117,4396.933z" style="stroke:black;fill:#11ad83"/><path id="180631608" parent_id="180631529" order="38" structure_id="1106" d="M10242.107,4390.462
			c-0.198,1.74-0.479,3.479-0.678,5.219c-24.803,192.011-108.458,369.566-210.106,532.259
			c-9.241,14.857-18.646,29.547-28.216,44.149l-160.531-70.305c6.165-5.615,14.114-17.923,24.125-38.496
			c56.192-115.705,97.322-279.101,119.458-484.03L10242.107,4390.462z" style="stroke:black;fill:#11ad83"/><path id="180631607" parent_id="180631529" order="39" structure_id="1010" d="M9873.411,4374.269l112.748,4.989
			c-22.136,204.93-63.266,368.325-119.458,484.03c-10.011,20.573-17.96,32.881-24.125,38.496l-15.566-6.847
			c-12.245-42.821,9.741-208.231,28.866-308.596C9869.115,4516.922,9871.847,4445.481,9873.411,4374.269z" style="stroke:black;fill:#11ad83"/><path id="180631606" parent_id="180631529" order="40" structure_id="1058" d="M9811.195,4888.003
			l-288.034-126.133c34.764-128.888,45.832-260.622,48.422-400.815l301.828,13.214c-1.564,71.213-4.296,142.653-17.535,212.073
			c-19.125,100.364-41.111,265.774-28.866,308.596L9811.195,4888.003z" style="stroke:black;fill:#11ad83"/><path id="180631605" parent_id="180631529" order="41" structure_id="857" d="M9571.583,4361.055
			c-2.59,140.193-13.658,271.928-48.422,400.815l-129.644-56.781l-3.904,0.095c5.482-45.068-2.076-89.88-10.256-137.027
			c-7.351-42.565-24.971-82.082-40.509-121.976c-12.842-32.951-37.112-54.075-50.578-84.797l0.002-0.083
			c0.009-4.981-0.148-9.966-0.471-14.954l4.403-0.168c0.721,1.425,1.525,2.852,2.246,4.276
			c11.894,21.393,30.158,43.982,51.193,55.996c55.955,31.922,68.057-2.978,63.824-52.46L9571.583,4361.055z" style="stroke:black;fill:#11ad83"/><path id="180631604" parent_id="180631529" order="42" structure_id="849" d="M9409.469,4353.991
			c4.232,49.482-7.869,84.382-63.824,52.46c-21.035-12.014-39.3-34.604-51.193-55.996l3.264-1.352l111.67,4.886L9409.469,4353.991z" style="stroke:black;fill:#11ad83"/><path id="180631648" parent_id="180631529" order="43" structure_id="935" d="M5956.417,977.549l-0.002,0.083
			c-27.718,17.174-54.103,38.607-78.843,65.385c-110.993,120.256-113.355,293.086-106.044,454.636l-105.811-101.926l6.143-332.514
			c81.262-39.019,140.484-125.524,240.469-193.673L5956.417,977.549z" style="stroke:black;fill:#40a666"/><path id="180631647" parent_id="180631529" order="44" structure_id="211" d="M5956.415,977.632
			l105.803,259.687c-8.554,9.059-16.791,18.954-24.631,29.852c-84.619,117.339-77.514,272.077-76.628,412.916l-189.431-182.434
			c-7.312-161.55-4.949-334.38,106.044-454.636C5902.313,1016.239,5928.697,994.806,5956.415,977.632z" style="stroke:black;fill:#40a666"/><path id="180631646" parent_id="180631529" order="45" structure_id="1015" d="M6062.301,1237.32
			l170.778,419.063c-34.545,67.615-29.621,147.167-17.778,225.271c2.226,14.323,3.102,29.866,2.884,46.136l-257.226-247.704
			c-0.886-140.839-7.991-295.577,76.628-412.916c7.84-10.898,16.077-20.793,24.631-29.852L6062.301,1237.32z" style="stroke:black;fill:#40a666"/><path id="180631645" parent_id="180631529" order="46" structure_id="919" d="M6355.324,1956.396l-0.002,0.083
			c-15.289,18.566-27.674,41.752-38.589,66.294l-98.551-94.9l0.002-0.083c0.218-16.271-0.658-31.813-2.884-46.136
			c-11.843-78.103-16.767-157.656,17.778-225.271L6355.324,1956.396z" style="stroke:black;fill:#40a666"/><path id="180631644" parent_id="180631529" order="47" structure_id="927" d="M6355.322,1956.479l36.619,89.77
			c-12.055,5.34-23.545,11.522-34.055,18.634l-4.197-6.554l-36.956-35.556C6327.648,1998.231,6340.033,1975.044,6355.322,1956.479z" style="stroke:black;fill:#40a666"/><path id="180631653" parent_id="180631529" order="48" structure_id="588" d="M5778.226,1638.516
			c3.446,119.132-1.827,238.27-11.493,356.993c-4.646,58.286-57.249,249.368-17.413,304.407l-3.6,15.045
			c-3.803-0.9-7.94-1.641-12.494-2.389c-12.503-1.892-51.836-3.2-68.02,9.87c-11.296,9.174-6.448,29.938-2.223,34.916
			c-5.72-0.521-10.776-0.946-15.004-1.356l17.738-960.273l105.811,101.926C5773.787,1546.185,5776.895,1593.737,5778.226,1638.516z" style="stroke:black;fill:#40a666"/><path id="180631652" parent_id="180631529" order="49" structure_id="296" d="M5749.319,2299.916
			c-39.836-55.039,12.767-246.121,17.413-304.407c9.666-118.724,14.939-237.861,11.493-356.993
			c-1.331-44.779-4.438-92.331-6.697-140.863l189.431,182.434c0.021,7.889,0.039,15.86,0.062,23.666
			c-0.1,77.301-9.366,165.393-8.635,242.709c0.776,83.794-7.332,172.157-13.054,257.159c-3.423,50.42-0.211,96.812-6.872,147.255
			l2.209,6.268c-35.803,9.884-61.438,13.146-69.324,13.084c0,0-90.081-4.985-157.749-9.64c71.104-1.593,96.664-32.257,38.124-45.628
			L5749.319,2299.916z" style="stroke:black;fill:#40a666"/><path id="180631651" parent_id="180631529" order="50" structure_id="772" d="M6218.183,1927.873
			c-0.814,98.046-39.774,224.864-65.652,308.747l4.551,5.398c-79.844,65.615-164.491,99.091-222.412,115.126l-2.209-6.268
			c6.661-50.444,3.449-96.835,6.872-147.255c5.722-85.002,13.83-173.365,13.054-257.159c-0.731-77.317,8.535-165.409,8.635-242.709
			c-0.022-7.806-0.041-15.777-0.062-23.666l257.226,247.704L6218.183,1927.873z" style="stroke:black;fill:#40a666"/><path id="180631650" parent_id="180631529" order="51" structure_id="810" d="M6218.183,1927.873l98.551,94.9
			c-18.368,41.426-32.409,86.834-48.31,120.5l0.487,0.59c-26.752,23.336-52.558,44.864-87.022,76.692
			c-8.194,7.571-16.464,14.725-24.808,21.462l-4.551-5.398C6178.408,2152.737,6217.368,2025.919,6218.183,1927.873z" style="stroke:black;fill:#40a666"/><path id="180631649" parent_id="180631529" order="52" structure_id="819" d="M6353.689,2058.329l4.197,6.554
			c-8.66,5.818-16.751,12.312-24.022,19.401c-24.774,24.12-45.122,42.343-64.953,59.58l-0.487-0.59
			c15.9-33.667,29.941-79.074,48.31-120.5L6353.689,2058.329z" style="stroke:black;fill:#40a666"/><path id="180631603" parent_id="180631529" order="53" structure_id="120" d="M10211.74,5063.459l6.729,4.359
			c-115.15,178.966-258.452,335.658-361.976,523.475c14.962-27.872,28.721-53.523,46.077-80.604
			c10.861-17.153,21.297-33.733,13.376-54.389c-14.813-38.634-73.174-57.232-104.903-79.074
			c-21.893-15.019-45.484-27.909-69.075-40.883l7.994-14.715c31.896-54.627,85.099-102.883,119.826-153.389
			c44.796-65.184,90.163-129.858,133.319-196.151L10211.74,5063.459z" style="stroke:black;fill:#219866"/><path id="180631602" parent_id="180631529" order="54" structure_id="163" d="M9842.576,4901.784
			l160.531,70.305c-43.156,66.293-88.523,130.968-133.319,196.151c-34.728,50.506-87.93,98.762-119.826,153.389l-7.994,14.715
			c-18.415-9.972-36.745-20.025-54.311-31.061c-15.923-10.009-78.18-55.913-144.015-96.902l1.205-2.303l16.907-16.294
			c90.805-110.582,186.312-219.583,249.44-301.781l15.814,6.935c4.175,1.836,5.22,2.318,7.903,3.477
			C9837.442,4899.505,9837.442,4899.505,9842.576,4901.784z" style="stroke:black;fill:#219866"/><path id="180631601" parent_id="180631529" order="55" structure_id="344" d="M9523.161,4761.87l288.034,126.133
			c-63.129,82.198-158.636,191.199-249.44,301.781l-16.907,16.294l-1.205,2.303c-57.706-36.022-118.223-68.277-152.663-69.245
			l0.126-2.323l-66.046-20.566c27.837-41.583,76.317-68.005,103.044-116.916C9471.161,4920.415,9501.677,4841.683,9523.161,4761.87z
			" style="stroke:black;fill:#219866"/><path id="180631600" parent_id="180631529" order="56" structure_id="314" d="M9393.518,4705.089l129.644,56.781
			c-21.484,79.813-52,158.545-95.058,237.46c-26.727,48.911-75.207,75.333-103.044,116.916l-5.664,0.975
			c-7.708-14.258-20.058-24.449-39.317-33.606c-0.165-0.087-0.412-0.174-0.66-0.262c-48.407-22.482-130.158-15.44-175.749,11.865
			c-10.412,6.284-18.975,15.841-26.072,27.002c15.34-34.839,30.679-69.596,43.63-105.475c-0.185,0.992-0.285,1.987-0.306,3.066
			c0.165,9.054,11.885,17.407,19.229,19.867c35.485,11.865,81.396,7.648,111.227-15.963c26.288-20.688,35.808-50.569,50.459-79.609
			c31.725-63.266,55.249-127.597,77.824-194.519c5.009-14.937,8.187-29.657,9.954-44.404L9393.518,4705.089z" style="stroke:black;fill:#219866"/><path id="180631534" parent_id="180631529" order="57" structure_id="698" d="M9915.946,5456.301
			c-14.813-38.634-73.174-57.232-104.903-79.074c-11.578-7.942-23.637-15.282-35.914-22.361
			c-10.938-6.307-22.046-12.409-33.161-18.521c-15.833-8.573-31.599-17.211-46.874-26.478c-2.492-1.512-4.973-3.035-7.437-4.583
			c-15.923-10.009-78.18-55.913-144.015-96.902c-57.706-36.022-118.223-68.277-152.663-69.245
			c-11.783-0.384-20.563,2.941-25.032,11.079c-14.944,26.958-8.535,80.051-12.406,109.788
			c-11.812,91.034-32.852,173.761-93.79,245.289c-78,91.638-193.989,149.694-300.534,199.953
			c-46.739,22.054-46.021,59.515-60.073,105.587c-15.027,49.376-28.487,99.278-42.775,149.083
			c-12.153,42.122-21.845,81.301-24.676,122.183c-1.483,21.894-0.983,44.238,2.067,67.876
			c7.347,56.266-78.747,266.988-104.46,314.922c-61.397,114.363-106.438,143.34-211.878,232.645
			c-59.47,50.465-94.645,66.754-114.854,149.413c-7.017,28.815-49.183,100.968-85.561,117.067
			c-29.053,1.337-52.756-11.29-74.604-31.247c-0.575-0.99-1.16-1.98-1.77-2.973c-46.331-75.406-162.308-125.918-247.848-110.933
			c-16.975,2.977-32.081,8.948-45.623,17.127c-39.172,14.313-74.968,5.421-101.363-22.163
			c-12.223-31.688-37.519-58.18-70.699-80.058c-42.569-28.035-161.05-38.34-205.965-8.269
			c-10.045,6.722-19.565,14.688-27.775,23.553c-2.184,2.354-24.304,37.057-47.209,73.332
			c-15.165,24.017-30.674,48.723-40.971,65.188c-5.99,9.578-19.569,29.162-35.817,51.954
			c-33.117,46.457-77.321,106.249-90.952,121.846c36.534,46.787,194.156,174.43,283.467,234.184
			c13.879,10.43,28.897,23.325,44.537,30.457c113.51,76.712,319.6,179.429,455.267,206.35c0.108-0.348,0.22-0.692,0.328-1.041
			c10.897,2.855,21.274,5.463,31.04,7.021c-0.094,0.302-0.189,0.604-0.284,0.906l4.963,1.005c4.549,0.998,9.183,1.831,13.734,2.662
			c6.205,1.194,12.414,2.222,18.622,3.25c0.33,0.089,0.662,0.096,0.91,0.183c5.132,0.843,10.184,1.6,15.318,2.276
			c2.235,0.373,4.555,0.665,6.791,0.955c4.721,0.669,9.36,1.253,14.083,1.755c18.643,2.171,37.214,3.677,55.549,4.514
			c5.89,0.274,11.699,0.465,17.509,0.572c25.98,0.48,51.656-0.54,76.862-3.063c245.401-24.694,483.359-266.739,627.742-450.479
			c95.321-121.376,153.136-266.528,234.26-396.968c75.99-122.231,164.264-226.135,237.241-351.577
			c142.092-243.981,252.606-504.654,386.641-752.936c1.806-3.371,3.694-6.74,5.501-10.111
			c14.962-27.872,28.721-53.523,46.077-80.604C9913.432,5493.536,9923.867,5476.956,9915.946,5456.301z" style="stroke:black;fill:#9ad2bd"/><path id="180631599" parent_id="180631529" order="58" structure_id="276" d="M9915.946,5456.301
			c-14.813-38.634-73.174-57.232-104.903-79.074c-11.578-7.942-23.637-15.282-35.914-22.361
			c-7.758,20.678-36.046,27.877-46.162,52.052c-19.316,46.155-36.9,91.809-61.427,136.969
			c-35.495,65.342-79.093,126.511-101.73,198.13c-14.694,46.514-16.512,56.142-44.721,90.531
			c-24.832,30.275-80.429,54.447-89.292,97.974c-7.618,37.396,14.887,58.819-4.464,91.253
			c-17.942,30.079-41.707,59.717-65.231,85.547c-48.741,53.694-84.298,133.119-113.729,198.298
			c-32.424,71.804-75.812,122.655-120.074,187.087c-111.075,161.696-203.958,331.919-309.995,495.995
			c-86.886,134.429-201.383,252.691-355.683,305.935c-39.6,13.664-78.637,29.775-120.104,37.101
			c-42.724,7.547-90.299,2.354-134.314-0.739c-21.917,69.917-46.015,139.566-67.437,208.26l4.963,1.005
			c4.549,0.998,9.183,1.831,13.734,2.662c6.205,1.194,12.414,2.222,18.622,3.25c0.33,0.089,0.662,0.096,0.91,0.183
			c5.132,0.843,10.184,1.6,15.318,2.276c2.235,0.373,4.555,0.665,6.791,0.955c4.721,0.669,9.36,1.253,14.083,1.755
			c18.643,2.171,37.214,3.677,55.549,4.514c5.89,0.274,11.699,0.465,17.509,0.572c25.98,0.48,51.656-0.54,76.862-3.063
			c245.401-24.694,483.359-266.739,627.742-450.479c95.321-121.376,153.136-266.528,234.26-396.968
			c75.99-122.231,164.264-226.135,237.241-351.577c142.092-243.981,252.606-504.654,386.641-752.936
			c1.806-3.371,3.694-6.74,5.501-10.111c14.962-27.872,28.721-53.523,46.077-80.604
			C9913.432,5493.536,9923.867,5476.956,9915.946,5456.301z" style="stroke:black;fill:#6acbba"/><path id="180631598" parent_id="180631529" order="59" structure_id="284" d="M8342.518,7331.735
			c41.467-7.325,80.504-23.437,120.104-37.101c154.3-53.243,268.797-171.506,355.683-305.935
			c106.037-164.076,198.92-334.299,309.995-495.995c44.263-64.432,87.65-115.283,120.074-187.087
			c29.431-65.179,64.987-144.604,113.729-198.298c23.524-25.83,47.289-55.468,65.231-85.547
			c19.351-32.434-3.154-53.857,4.464-91.253c8.863-43.526,64.46-67.698,89.292-97.974c28.209-34.39,30.026-44.018,44.721-90.531
			c22.638-71.619,66.235-132.788,101.73-198.13c24.526-45.16,42.11-90.813,61.427-136.969
			c10.116-24.175,38.404-31.374,46.162-52.052c-10.938-6.307-22.046-12.409-33.161-18.521
			c-15.833-8.573-31.599-17.211-46.874-26.478c-19.148,38.224-53.43,76.188-75.076,108.68
			c-28.88,43.363-65.965,81.399-93.214,126.49c-5.22,8.635,4.535-1.027,5.475-2.674c-2.798,4.919-12.735,23.71-13.187,24.117
			c-9.802,8.661-8.487,3.809-15.98,8.412c-30.7,18.88-48.449,15.07-53.566,53.35c-5.094,38.055,8.196,58.771-14.402,94.866
			c-38.707,61.763-102.28,97.758-139.69,160.822c-39.454,66.52-65.667,139.911-103.893,207.115
			c-43.677,76.78-66.644,157.59-101.207,237.646c-37.084,85.832-91.307,162.784-139.76,242.299
			c-69.288,113.687-139.907,225.081-205.765,340.604c-70.255,123.233-149.018,218.919-280.967,276.934
			c-38.288,16.826-89.517,12.29-130.327,19.496c-26.875,4.745-66.829,7.319-91.781,6.83c-0.602,2.318-1.2,4.622-1.793,6.893
			c-9.539,36.424-20.353,72.873-31.757,109.25C8252.219,7334.09,8299.794,7339.282,8342.518,7331.735z" style="stroke:black;fill:#6acbba"/><path id="180631597" parent_id="180631529" order="60" structure_id="291" d="M8333.534,7208.023
			c40.811-7.206,92.039-2.67,130.327-19.496c131.949-58.015,210.712-153.7,280.967-276.934
			c65.857-115.522,136.477-226.917,205.765-340.604c48.453-79.515,102.676-156.467,139.76-242.299
			c34.563-80.057,57.53-160.866,101.207-237.646c38.226-67.204,64.438-140.596,103.893-207.115
			c37.41-63.064,100.983-99.06,139.69-160.822c22.599-36.096,9.309-56.812,14.402-94.866c5.117-38.279,22.866-34.47,53.566-53.35
			c7.493-4.604,6.179,0.249,15.98-8.412c0.451-0.407,10.389-19.198,13.187-24.117c-0.939,1.646-10.694,11.309-5.475,2.674
			c27.249-45.091,64.334-83.127,93.214-126.49c21.646-32.492,55.928-70.456,75.076-108.68c-2.492-1.512-4.973-3.035-7.437-4.583
			c-15.923-10.009-78.18-55.913-144.015-96.902c-57.706-36.022-118.223-68.277-152.663-69.245
			c-11.783-0.384-20.563,2.941-25.032,11.079c-14.944,26.958-8.535,80.051-12.406,109.788
			c-11.812,91.034-32.852,173.761-93.79,245.289c-78,91.638-193.989,149.694-300.534,199.953
			c-46.739,22.054-46.021,59.515-60.073,105.587c-15.027,49.376-28.487,99.278-42.775,149.083
			c-12.153,42.122-21.845,81.301-24.676,122.183c-1.483,21.894-0.983,44.238,2.067,67.876
			c7.347,56.266-78.747,266.988-104.46,314.922c-61.397,114.363-106.438,143.34-211.878,232.645
			c-59.47,50.465-94.645,66.754-114.854,149.413c-7.367,30.254-53.48,108.282-90.961,119.049
			c-19.282,5.539-26.384,75.32-34.728,108.961c-13.308,53.723-24.852,100.279-35.127,139.891
			C8266.705,7215.343,8306.659,7212.769,8333.534,7208.023z" style="stroke:black;fill:#6acbba"/><path id="180631594" parent_id="180631529" order="61" structure_id="260" d="M7417.364,6939.533
			c-33.117,46.457-77.321,106.249-90.952,121.846c36.637,46.918,195.048,175.152,284.223,234.691
			c17.401-26.104,93.391-135.222,110.638-160.065c5.793-8.342,11.597-16.753,17.37-25.229
			c-42.178-15.639-110.081-48.25-143.327-60.906C7551.383,7033.148,7448.205,6969.725,7417.364,6939.533z" style="stroke:black;fill:#95e4c8"/><path id="180631593" parent_id="180631529" order="62" structure_id="268" d="M7535.776,6842.644
			c-21.762-10.723-28.813-14.714-41.624-20.253c-15.165,24.017-30.674,48.723-40.971,65.188
			c-5.99,9.578-19.569,29.162-35.817,51.954c30.841,30.191,134.019,93.615,177.951,110.336
			c33.246,12.656,101.149,45.268,143.327,60.906c20.227-29.695,40.08-60.246,57.738-91.853c10.26-18.358,19.765-37.079,28.19-56.188
			c-29.95-13.752-85.292-37.426-111.592-47.426C7673.729,6900.386,7555.105,6852.167,7535.776,6842.644z" style="stroke:black;fill:#95e4c8"/><path id="180631592" parent_id="180631529" order="63" structure_id="1139" d="M7775.102,6733.774
			c-42.569-28.035-161.05-38.34-205.965-8.269c-10.045,6.722-19.565,14.688-27.775,23.553c-2.184,2.354-24.304,37.057-47.209,73.332
			c12.811,5.539,19.862,9.53,41.624,20.253c19.329,9.523,137.953,57.742,177.203,72.665c26.3,10,81.642,33.674,111.592,47.426
			c9.508-21.564,17.638-43.626,23.852-66.248C7867.854,6825.641,7833.814,6772.487,7775.102,6733.774z" style="stroke:black;fill:#95e4c8"/><path id="180631596" parent_id="180631529" order="64" structure_id="192" d="M7868.146,7250.8
			c-45.393-20.675-105.031-47.705-123.185-97.041c-16.268,27.194-32.943,54.119-50.131,80.646
			c-17.729,27.366-38.503,53.589-54.962,81.573c109.635,77.495,328.134,188.276,469.813,216.391
			c21.065-67.561,44.618-130.883,66.175-195.982l-12.782,2.297C8057.062,7354.574,7959.53,7292.404,7868.146,7250.8z" style="stroke:black;fill:#61e7b7"/><path id="180631595" parent_id="180631529" order="65" structure_id="200" d="M8240.635,6929.801
			c-46.331-75.406-162.308-125.918-247.848-110.933c-59.644,10.459-96.295,57.803-122.667,108.501
			c-39.573,76.026-80.8,152.235-125.158,226.39c18.153,49.336,77.792,76.366,123.185,97.041
			c91.384,41.604,188.915,103.774,294.929,87.884l12.782-2.297c11.77-35.543,22.946-71.612,32.794-109.195
			c12.785-48.807,24.808-97.821,36.959-146.782C8258.771,7027.312,8271.115,6979.436,8240.635,6929.801z" style="stroke:black;fill:#61e7b7"/><path id="180631590" parent_id="180631529" order="66" structure_id="486" d="M6442.406,2465.759
			c-81.597,5.655-168.594,21.256-248.053,39.897c-81.807,19.195-163.698,41.063-237.725,81.527
			c-40.042,21.88-59.346,30.316-69.221,75.468c-1.229,5.612,3.463,62.402-4.566,91.955c-3.306,12.168-3.217,18.747-18.495,21.233
			c-22.652,4.998-45.794,9.394-69.209,14.229c18-3.058,36.625-6.01,58.766-10.964c66.772-14.944,111.346,42.151,161.648,78.489
			c40.1,28.957,82.547,55.088,123.817,82.924c-0.903-0.641-1.733-1.24-2.636-1.885c-74.806-53.532,92.735-54.523,147.031-56.103
			c87.22-2.537,178.966-30.423,244.121-68.145c60.554-35.052,82.465-96.278,108.869-161.974
			C6703.383,2486.596,6561.722,2457.489,6442.406,2465.759z M6118.856,2725.216c-44.435-70.396,110.223-145.081,172.655-159.042
			c35.066-7.835,133.252,6.778,152.917,44.921C6521.956,2761.565,6188.528,2835.601,6118.856,2725.216z" style="stroke:black;fill:#7ed04b"/><path id="180631591" parent_id="180631529" order="67" structure_id="495" d="M6291.512,2566.174
			c-62.433,13.961-217.09,88.646-172.655,159.042c69.672,110.385,403.1,36.349,325.572-114.121
			C6424.764,2572.953,6326.578,2558.339,6291.512,2566.174z" style="stroke:black;fill:#66a83d"/><path id="180631589" parent_id="180631529" order="68" structure_id="10703" d="M6276.079,3111.422
			c-35.317-30.763-57.858-55.174-98.2-80.205c-39.301-24.38-102.861-48.059-134.299-69.395
			c-53.759-36.487-129.552-103.416-217.396-142.406c-30.181-13.391-33.29-23.748-22.735-30.751c-2.791,0.47-5.56,0.936-8.312,1.403
			c-26.728,5.521-53.808,11.63-80.961,19.954c-19.294,6.896-34.2,14.033-45.345,18.294c-22.853,11.85-39.781,27.003-12.307,38.767
			c15.112,6.462,30.916-4.632,45.673-5.923c48.292-4.246,60.714,48.367,78.828,80.591c36.176,64.319,130.462,97.55,196.653,142.011
			c73.821,49.588,96.673,111.228,177.739,116.762c34.712,2.374,146.885-25.91,188.886-36.64c29.024-7.42,43.752-8.426,47.185-10.497
			C6347.435,3147.915,6306.425,3137.834,6276.079,3111.422z" style="stroke:black;fill:#7ed04b"/><path id="180631588" parent_id="180631529" order="69" structure_id="632" d="M5826.185,2819.417
			c87.844,38.99,163.637,105.918,217.396,142.406c31.438,21.336,94.998,45.015,134.299,69.395
			c40.342,25.031,62.883,49.442,98.2,80.205c30.346,26.413,71.355,36.493,115.41,41.965c0.688-0.415,0.923-0.873,0.728-1.434
			c-1.803-1.528-3.629-3.076-5.484-4.646c-1.981-1.332-4.467-2.948-7.428-4.942c-13.788-9.29-33.266-27.646-51.697-45.875
			c-10.966-9.753-21.615-19.523-31.35-28.985c-13.722-13.343-27.238-26.319-40.657-38.72
			c-30.036-24.896-62.369-49.667-116.231-88.268c-5.195-3.504-10.409-6.981-15.635-10.44
			c-33.172-20.471-68.88-42.178-100.487-65.504c-13.674-10.087-26.095-20.802-38.197-31.184
			c-18.663-15.557-37.33-31.354-57.526-42.314c-3.074-1.617-6.202-3.146-9.407-4.558c-13.646-6.01-36.627-8.747-58.861-8.456
			c-1.769,0.3-3.551,0.641-5.352,1.044c-18.756,4.197-34.986,6.957-50.454,9.562
			C5792.895,2795.668,5796.004,2806.025,5826.185,2819.417z" style="stroke:black;fill:#66a83d"/><path id="180631587" parent_id="180631529" order="70" structure_id="19" d="M5664.481,2358.37
			c-4.332-0.526-12.106-25.641,0.661-35.967c16.184-13.074,55.478-11.776,67.988-9.813
			C5820.034,2326.184,5772.177,2371.43,5664.481,2358.37z" style="stroke:black;fill:#7ed04b"/><path id="180631586" parent_id="180631529" order="71" structure_id="583" d="M9134.525,4975.889
			c-2.503,8.598-5.219,17.127-8.063,25.608c-2.03,6.022-5.619,11.771-5.522,18.257c0.141,9.071,11.831,17.41,19.205,19.891
			c35.519,11.913,81.368,7.63,111.252-15.923c26.289-20.716,35.8-50.597,50.399-79.626c31.8-63.272,55.308-127.638,77.832-194.532
			c20.35-60.44,10.597-118.836-0.244-181.428c-7.372-42.549-24.969-82.06-40.541-122.019c-12.871-32.986-37.312-54.11-50.619-85.027
			l-4.256,47.123c-16.415,82.551-13.155,180.383-45.174,258.614C9198.121,4766.175,9164.649,4872.598,9134.525,4975.889z" style="stroke:black;fill:#8ada87"/><path id="180631585" parent_id="180631529" order="72" structure_id="952" d="M9279.443,5083.316
			c0.219,0.101,0.438,0.199,0.667,0.313c30.739,14.54,44.005,31.887,48.508,64.453c11.039,79.832-1.363,162.703-32.273,237.115
			c-15.477,37.227-40.041,80.897-66.023,111.433c-54.286,63.79-130.779,102.175-204.01,139.821
			c-41.301,21.233-87.654,40.522-127.623,64.177l3.549-12.226c23.359-73.431,42.193-149.041,64.537-222.933
			c17.203-56.924,33.14-111.401,46.571-168.821c7.61-32.522,18.394-64.185,30.404-95.321
			c12.859-33.387,26.913-86.363,59.887-106.117C9149.287,5067.851,9231.04,5060.842,9279.443,5083.316z" style="stroke:black;fill:#a0ee9d"/><path id="180631584" parent_id="180631529" order="73" structure_id="966" d="M8694.426,6142.461
			c24.656-19.588,57.143-43.265,72.573-71.293c6.019-10.934,14.287-43.224,27.869-46.278c16.698-3.756,13.771,24.815,13.679,34.038
			c-0.295,26.415-3.851,50.754-6.746,77.214c-9.994,91.153-71.123,254.008-103.285,309.463
			c-75.476,130.138-273.224,310.611-264.185,260.132c9.268-51.797,16.59-105.324,7.734-157.707
			c-2.761-16.349-8.214-32.292-16.851-46.487c-7.445-12.197-19.831-23.419-24.13-37.222c-6.176-19.784,27.979-23.371,38.273-30.624
			c16.596-11.669,33.197-32.362,44.832-48.839c27.909-39.553,48.646-86.962,62.293-133.252
			c6.326-21.425,11.798-43.642,13.611-65.957c2.601-32.122,32.307-16.922,50.32-15.186
			C8641.083,6173.421,8670.738,6161.277,8694.426,6142.461z" style="stroke:black;fill:#a0ee9d"/><path id="180631583" parent_id="180631529" order="74" structure_id="303" d="M8504.686,6075.592
			c9.263,14.466,20.888,27.931,35.194,40.488c45.78,40.193,100.546,40.331,148.681,2.12c27.46-21.808,40.949-49.017,50.762-81.809
			c29.219-97.535,68.689-194.115,109.066-287.561c23.46-54.29,45.633-175.151-8.692-203.584
			c-74.021-38.737-217.66,127.013-286.617,233.42c-18.38,28.364-33.354,58.741-47.759,89.278
			c-13.49,28.61-30.61,67.973-30.059,99.774C8475.955,6008.886,8484.85,6044.546,8504.686,6075.592z" style="stroke:black;fill:#9de79c"/><path id="180631582" parent_id="180631529" order="75" structure_id="327" d="M7673.319,6544.99
			c30.456-41.013,69.104-96.377,139.293-124.054c87.684-34.571,177.76-58.706,239.862-61.994
			c58.18-3.078,93.748,10.897,142.677,29.624c39.458,15.112,77.014,35.82,117.368,48.545
			c56.472,17.806,98.727,49.593,109.051,110.543c11.022,65.129-3.248,136.833-16.251,200.773
			c-11.04,54.34-26.831,153.992-86.456,178.079c-9.218,3.722-19.97,3.26-29.43,0.261c-26.771-8.478-45.285-38.255-61.881-58.608
			c-62.382-76.528-200.444-112.559-287.763-60.884c-15.367,9.101-31.879,23.179-50.869,15.864
			c-27.786-10.714-25.783-42.561-39.729-64.61c-23.691-37.435-62.819-66.659-104.191-81.685
			c-20.783-7.545-43.298-12.629-65.462-10.714c-21.637,1.88-45.229,13.627-66.993,11.248c-31.432-3.433-6.832-36.791,1.309-48.432
			C7633.531,6600.834,7652.852,6572.556,7673.319,6544.99z" style="stroke:black;fill:#84ea81"/><path id="180631574" parent_id="180631529" order="76" structure_id="672" d="M7633.168,2650.059
			c-3.122-50.478-108.813-120.253-161.201-150.358c41.891,13.499,184.963,46.138,223.01,61.09
			c138.11,54.285,274.698,114.017,398.729,192.805c63.424,40.295,123.09,78.127,180.863,127.121
			c43.382,36.796,93.335,69.539,132.239,111.148c38.032,40.665,82.094,73.863,115.645,118.039
			c35.688,46.988,82.122,81.301,123.049,123.529c30.334,31.31,70.489,68.243,95.006,103.525
			c32.843,47.245,52.341,87.399,85.526,128.136c35.614,43.697,68.388,89.852,101.349,136.078
			c72.884,102.222,132.547,218.824,183.467,334.111c24.95,56.476,46.936,114.706,74.479,169.387
			c38.825,77.055,50.163,163.541,56.387,248.706c6.234,85.733-15.033,152.4-25.749,196.531
			c-21.575,88.766-57.619,170.952-92.645,249.826c-19.866,44.739-39.585,89.55-59.581,134.236
			c-36.91,82.451-74.74,164.529-115.935,244.946c-32.016,62.494-60.283,124.936-97.175,184.791
			c-22.556,36.6-47.507,75.879-74.693,108.904c-26.888,32.653-59.502,59.819-91.932,86.718
			c-25.008,20.729-53.051,62.694-84.089,72.228c-36.485,11.199-75.453-13.284-108.013-26.885
			c-111.822-46.71-225.634-87.39-327.613-154.313c-30.183-19.807,11.519-47.191,24.357-64.744
			c41.236-56.439,79.392-109.69,104.114-176.172c18.063-48.585,40.901-95.822,58.406-144.404
			c19.952-55.367,36.467-112.202,46.159-170.318c14.694-88.16,19.102-181.184-12.604-266.38
			c-27.089-72.822-52.658-144.899-99.016-220.485c-37.034-60.399-103.643-152.529-142.206-207.494
			c-44.271-63.063-125.469-181.39-169.868-241.104c-45.909-61.734-133.24-175.804-162.062-216.111
			c-17.777-24.849-88.738-150.388-158.996-232.654c-43.727-51.189-103.518-71.464-100.188-83.504
			c20.018-72.28,16.747-89.642-3.345-155.749c-24.336-80.023-85.07-196.446-63.299-281.398
			c9.279-36.203,15.401-47.461,41.151-92.645c23.04-40.461,47.415-83.195,62.55-127.55
			C7602.966,2730.073,7635.849,2693.132,7633.168,2650.059z" style="stroke:black;fill:#98d6f9"/><path id="180631575" parent_id="180631529" order="77" structure_id="278" d="M7146.243,6797.493
			c1.034,4.125,43.082,87.099,77.789,134.416c9.875,13.479,43.196,58.797,83.929,101.058
			c3.162,3.268,132.154-170.149,158.826-207.413c58.415-81.595,109.49-175.994,166.687-258.47
			c39.708-57.255,101.601-127.844,173.182-160.789c60.709-27.942,202.361-78.101,298.042-65.072
			c72.202,9.851,124.874,48.138,200.015,72.2c61.914,19.827,128.349,18.975,160.471-34.4
			c16.729-27.783,79.14-121.943,82.565-199.829c2.347-53.078-43.131-68.87-64.597-98.751
			c-21.974-30.604-22.224-65.914-33.123-116.861c-8.751-40.83-3.789-79.546,16.473-116.127c18.085-32.65,36.091-66.18,60.731-94.175
			c22.359-25.395,44.975-56.441,44.055-70.446c-1.653-24.979-36.516-37.186-56.001-46.269
			c-87.528-40.813-168.539-64.981-247.823-107.787c-53.804-29.049-131.651-93.104-189.698-37.618
			c-33.346,31.868-69.91,60.286-109.285,84.312c-38.922,23.747-95.499,49.478-147.684,65.122
			c-57.22,17.155-98.888,34.604-146.298,53.342c-66.854,26.424-127.415,43.315-208.835,68.797
			c-78.879,24.678-132.155,40.947-185.073,112.713c-28.077,38.102-33.646,120.552-40.103,165.436
			c-19.062,132.496-27.455,178.748-32.228,283.785c-4.896,107.704-10.919,221.831-20.622,329.672
			C7182.382,6712.734,7142.647,6783.115,7146.243,6797.493z" style="stroke:black;fill:#80c0e2"/><path id="180631576" parent_id="180631529" order="78" structure_id="292" d="M7496.099,6782.815
			c-9.602,14.536-19.35,28.823-29.312,42.738c-26.672,37.264-155.664,210.681-158.826,207.413
			c-40.732-42.261-74.054-87.579-83.929-101.058c-34.707-47.317-76.755-130.291-77.789-134.416
			c-3.596-14.378,36.139-84.759,41.395-143.156c6.403-71.163,11.203-145.063,15.135-218.049c0.071-1.329,0.41-2.511,0.913-3.683
			l0.76-0.184c2.512-10.071,24.467-20.015,31.819-23.354c75.095-34.104,148.851,0.104,189.242,67.496
			c42.549,70.997,81.01,160.178,80.507,244.07c-0.116,19.2-4.407,36.37-8.015,54.721L7496.099,6782.815z" style="stroke:black;fill:#80c0e2"/><path id="180631580" parent_id="180631529" order="79" structure_id="544" d="M8571.287,5682.833
			c-1.653-24.979-36.516-37.186-56.001-46.269c-40.179-18.734-78.982-33.962-116.878-49.095l-3.93,11.824
			c-11.541,24.237-23.798,46.15-37.289,66.429l1.422,3.164l-1.422-3.164c-28.651,43.066-62.896,78.73-107.854,113.422
			c-21.014,16.213-40.186,30.912-55.856,46.796l6.885,4.446l-6.885-4.446c-27.734,28.111-44.499,59.934-41.07,110.431
			c4.147,61.229,45.585,137.372-5.313,191.009c-49.567,52.242-97.566,7.783-154.85,8.339
			c-55.508,0.553-121.962,49.529-174.545,9.234l-3.493-2.182c24.603,57.805,47.537,116.643,69.95,175.647
			c14.675,38.666,31.687,42.491,71.381,36.094c48.654-7.847,99.565-20.039,149.158-13.29c23.745,3.234,47.501,11.787,70.332,18.827
			c33.744,10.408,34.54-61.604,40.868-82.5c24.931-82.335,75.098-174.932,146.706-225.627c23.925-16.926,44.378-27.422,57.61-53.911
			c23.88-47.778,20.601-104.193,46.287-150.558c18.085-32.65,36.091-66.18,60.731-94.175
			C8549.592,5727.885,8572.207,5696.838,8571.287,5682.833z" style="stroke:black;fill:#80c0e2"/><path id="180631578" parent_id="180631529" order="80" structure_id="551" d="M8288.167,5592.498
			c-55.519-35.393-170.279-29.037-197.417,42.701c-32.636,86.33,25.947,151.761,96.193,186.521l6.535,4.22
			c15.671-15.884,34.843-30.583,55.856-46.796c44.958-34.691,79.203-70.355,107.854-113.422l-1.254-2.792
			C8334.701,5638.972,8315.517,5609.923,8288.167,5592.498z" style="stroke:black;fill:#80c0e2"/><path id="180631579" parent_id="180631529" order="81" structure_id="559" d="M7992.246,6135.719
			c57.283-0.556,105.282,43.903,154.85-8.339c50.897-53.637,9.46-129.779,5.313-191.009c-3.429-50.497,13.336-82.319,41.07-110.431
			l-6.535-4.22c-70.246-34.761-128.829-100.191-96.193-186.521c27.138-71.738,141.898-78.094,197.417-42.701
			c27.35,17.425,46.534,46.474,67.769,70.433l1.254,2.792c13.491-20.278,25.748-42.191,37.289-66.429l3.93-11.824
			c-44.658-17.834-88.057-35.536-130.945-58.692c-53.804-29.049-131.651-93.104-189.698-37.618
			c-33.346,31.868-69.91,60.295-109.285,84.312c-38.922,23.747-95.499,49.478-147.684,65.122
			c-57.22,17.155-98.888,34.604-146.298,53.342c-66.854,26.424-127.415,43.315-208.835,68.797
			c-14.636,4.574-93.169,28.509-38.736,38.892c39.3,7.508,77.819,19.503,113.446,37.22
			c126.331,62.842,218.078,173.088,273.282,302.618c0.186,0.436,0.367,0.874,0.553,1.311l3.493,2.182
			C7870.284,6185.248,7936.738,6136.271,7992.246,6135.719z" style="stroke:black;fill:#80c0e2"/><path id="180631581" parent_id="180631529" order="82" structure_id="1105" d="M8547.748,6179.193
			c2.172-48.999-43.173-69.251-66.172-105.992c-36.122-57.702-90.577-25.74-130.271,11.096
			c-23.495,21.796-44.844,49.723-62.422,76.429c-30.834,46.834-54.863,105.307-59.173,161.628
			c-4.348,56.772,26.177,75.434,75.002,91.069c61.914,19.827,128.349,18.975,160.471-34.4
			C8481.912,6351.239,8544.322,6257.079,8547.748,6179.193z" style="stroke:black;fill:#80c0e2"/><path id="180631577" parent_id="180631529" order="83" structure_id="411" d="M7859.892,6363.455
			c3.799-34.499-13.703-69.283-25.318-100.898c-53.615-146.099-123.915-299.623-263.484-382.167
			c-21.244-12.572-43.263-24.287-65.81-34.319c-42.679-18.993-91.827-34.604-139.102-29.736c-25.223,2.6-42.91,12.348-58.138,26.695
			c-9.246,9.382-18.354,20.078-27.45,32.415c-27.639,37.514-33.467,117.986-39.801,163.305c-0.101,0.719-0.201,1.43-0.302,2.131
			c-17.362,120.686-25.873,169.824-30.859,257.003c-0.382,8.932-0.689,17.862-0.963,26.792c-0.777,25.238-1.989,51.158-3.928,76.268
			c-0.862,11.196-1.1,22.463-0.519,33.674c-0.53-10.785,24.159-21.967,32.046-25.548c75.095-34.104,148.851,0.104,189.242,67.496
			c42.549,70.997,81.01,160.178,80.507,244.07c-0.126,20.872-5.186,39.345-8.938,59.542
			c21.96-36.175,72.369-116.171,108.752-171.747c7.968-12.293,16.019-24.422,24.188-36.319c1.203-1.76,2.361-3.443,3.459-5.026
			c39.708-57.255,101.601-127.844,173.182-160.789c10.938-5.035,24.516-10.792,39.967-16.77
			C7853.584,6384.372,7858.432,6376.754,7859.892,6363.455z" style="stroke:black;fill:#80c0e2"/><path id="180631573" parent_id="180631529" order="84" structure_id="1022" d="M8343.854,4594.365
			c-32.946-92.061-88.072-180.367-103.587-210.087c-44.433-85.102-108.214-164.464-172.604-235.124
			c-37.736-41.417-81.728-137.394-140.614-102.885c-37.778,22.133-72.781,149.108-71.46,204.394
			c1.434,60.33,10.195,106.735,14.285,156.434c1.029,12.443,1.949,24.778,2.724,37.035l11.654,8.896
			c141.771,166.424,159.531,429.455,129.467,635.563c-10.774,73.856-16.498,204.925-79.526,256.568l-2.378,2.748
			c30.477-9.168,62.593-21.903,94.403-39.801c61.067-34.345,114.263-106.123,154.37-116.168
			c51.436-12.879,67.499,16.481,100.156-28.591c24.146-33.295,22.205-55.605,33.658-86.313
			c30.343-81.329,61.432-251.518,63.188-305.873C8378.198,4752.41,8370.934,4670.046,8343.854,4594.365z" style="stroke:black;fill:#8599cc"/><path id="180631572" parent_id="180631529" order="85" structure_id="1031" d="M8013.72,5088.59
			c30.064-206.107,12.305-469.139-129.467-635.563l-11.654-8.896c5.211,82.419,3.711,161.189-17.604,244.298
			c-17.81,69.448-63.902,156.099-118.694,207.467c-27.005,25.324-60.313,43.167-116.148,69.821
			c-47.585,22.694-99.731,44.46-127.628,91.737c-47.895,81.19,85.532,136.28,128.163,178.812
			c70.672,70.496,38.916,109.467,63.84,140.252c19.583,24.208,117.798-3.609,166.262-10.766
			c24.382-3.603,51.959-9.103,81.027-17.847l2.378-2.748C7997.222,5293.515,8002.945,5162.446,8013.72,5088.59z" style="stroke:black;fill:#8599cc"/><path id="180631571" parent_id="180631529" order="86" structure_id="342" d="M8119.527,5426.074
			c-21.646,26.774-67.241,73.96-109.91,105.909c-32.271,24.178-96.486,54.954-168.987,84.063
			c-53.947,21.658-138.49,40.202-180.788,47.857c-76.094,13.764-155.906,0.923-233.124-6.528
			c-75.498-7.285-168.549-23.229-227.929-73.961c-37.089-31.7-90.103-129.12-33.861-170.836
			c3.247-2.407,34.378,32.422,77.908,51.272c55.081,23.86,125.065,32.757,128.319,26.506c30.99,4.271,44.693-3.604,65.227-7.712
			c29.725-5.943,61.417-10.852,89.787-21.913c164.018-63.947,282.722-41.122,449.221-98.215
			c91.922-31.515,192.465-154.943,229.01-148.682C8281.751,5227.097,8148.081,5390.751,8119.527,5426.074z" style="stroke:black;fill:#a2b1d8"/><path id="180631550" parent_id="180631529" order="87" structure_id="549" d="M5627.892,3439.875
			c21.439,37.765,36.597-10.015,63.82-8.509c27.223,1.502,54.875,21.353,61.883,20.521c14.075-1.685-19.063-66.501,29.31-162.757
			c20.838-41.476,71.624-66.368,109.594-89.312c27.63-16.709,60.247-61.696,85.916-81.439
			c45.516-35.012,98.41,88.248,177.041,82.785c85.852-5.972,195.842-41.307,240.259-48.79
			c30.029-5.058,253.354-14.68,289.467-12.641c109.202,6.169,248.626,25.412,335.62,110.05
			c50.909,49.524,94.943,109.042,140.494,166.867c27.383,34.757,61.508,44.945,89.698,88.844
			c23.575,36.726,28.174,86.036,38.605,109.148c20.955,46.37,64.551,100.576,96.885,133.197
			c-0.398,21.422-1.837,35.977,14.346,56.188c15.619,19.487,37.036,30.67,60.288,35.782
			c67.386,14.787,159.914,41.589,199.592,102.331c17.357,26.549,32.007,60.233,31.258,91.556
			c-0.643,26.403-2.592,47.557-10.114,72.904c-3.159,10.627-7.779,34.49-12.116,44.466c-8.709,19.938-14.852,30.571-17.745,52.662
			c-2.135,16.249-10.47,39.617-13.811,56.225c-6.105,30.148-9.729,63.654-21.452,92.276c-10.545,25.707-22.98,49.524-37.385,73.312
			c-38.681,63.845-70.753,124.221-110.951,187.672c-57.844,91.243-126.519,148.597-164.343,194.804
			c-42.507,51.95-199.03,133.45-217.84,145.066c-39.188,24.183-552.597,217.444-691.678,286.131
			c-169.396,83.658-228.866,109.687-413.067,186.11c-44.492,18.459-99.943,46.109-147.751,58.173
			c-29.522,7.451-60.84,4.319-91.458,6.615c-24.313,1.828-53.105,2.77-73.525,9.71c-19.523,6.634-55.69,18.34-79.882,53.874
			L5627.892,3439.875z" style="stroke:black;fill:#ff7080"/><path id="180631553" parent_id="180631529" order="88" structure_id="629" d="M6658.466,4871.568
			c5.866,7.538,11.739,15.063,17.734,22.488c17.021,21.09,40.78,57.567,68.634,65.05c24.775,6.655,56.094-25.14,74.258-37.862
			c32.086-22.475,61.306-48.911,90.244-75.222c31.464-28.608,59.712-58.368,91.429-86.71c25.896-23.154,51.549-46.55,76.499-70.716
			c59.997-58.11,111.617-128.744,144.936-204.903c52.521-120.05,91.705-269.396,29.426-393.854
			c-19.148-38.255-57.532-79.279-90.776-105.468c-43.784-34.504-85.133-53.511-122.096-95.745
			c-15.114-17.277-27.303-38.099-32.187-60.536c-3.384-15.558,0.518-40.64-16.288-48.906c-26.33-12.954-54.75-5.37-81.521-7.045
			c-20.891-1.313-51.922-10.723-65.232,9.865c-11.691,18.112-11.866,50.736-17.928,71.629c-8.27,28.472-20.407,60.113-36.161,85.135
			c-61.002,96.864-144.793,156.642-261.717,158.454c-38.847,0.606-48.253,23.765-45.455,64.206
			c4.027,58.511,10.243,108.386,6.581,167.55c-2.963,47.92-9.3,95.67-18.671,142.758c-9.118,45.835-23.438,89.01-34.936,134.117
			c-1.768,6.888-4.549,14.947-3.308,22.08c5.313,30.611,50.433,56.325,71.343,77.027c34.516,34.159,70.095,66.993,103.021,102.74
			C6624.934,4827.954,6641.595,4849.848,6658.466,4871.568z" style="stroke:black;fill:#ff8084"/><path id="180631556" parent_id="180631529" order="89" structure_id="685" d="M6758.113,5053.059
			c6.653-25.465-0.462-53.466-26.11-73.104c-37.221-28.499-64.082-69.445-91.594-106.918
			c-30.677-41.795-70.096-75.745-104.784-113.964c-20.85-22.974-45.894-41.484-68.202-62.922
			c-15.939-15.33-40.011-50.631-64.755-30.716c-13.101,10.541-22.328,25.227-34.945,36.339
			c-12.958,11.428-28.206,20.104-40.698,32.054c-33.903,32.446-53.97,40.302-32.725,88.384
			c7.746,17.552,20.547,40.859,26.795,58.808c7.776,22.398,11.881,52.802,6.69,76.041c-5.206,23.281-17.533,35.852-30.719,55.25
			c-16.415,24.15-22.349,44.532-67.57,96.552c-20.632,23.736-51.781,53.757-56.926,84.744
			c-7.539,45.463,19.274,91.324,39.512,108.671c24.586,21.064,245.057-92.824,274.57-105.635
			c51.552-22.386,150.911-60.012,220.622-87.702C6733.661,5098.464,6751.904,5076.867,6758.113,5053.059z" style="stroke:black;fill:#ff8084"/><path id="180631554" parent_id="180631529" order="90" structure_id="255" d="M6798.938,3690.036
			c-29.113-65.224-77.332-106.675-142.086-137.255c-40.604-19.185-90.949-17.097-133.326-5.392
			c-52.66,14.547-65.017,91.447-114.883,115.414c-49.162,23.639-55.866,45.492-73.629,94.355
			c-9.28,25.526-14.312,51.599-15.835,78.738c-4.45,78.853,15.857,161.076,86.282,207.453
			c174.903,115.168,373.027-36.187,406.564-218.093C6819.753,3783.295,6816.592,3729.587,6798.938,3690.036z" style="stroke:black;fill:#ff909f"/><path id="180631559" parent_id="180631529" order="91" structure_id="1096" d="M6462.393,4112.639
			c-4.154-20.814-18.806-24.729-35.918-32.734c-28.554-13.345-46.021-34.035-66.003-57.287
			c-14.414-16.761-43.295-47.563-58.888-14.45c-14.341,30.467-27.033,66.541-42.471,96.547
			c-40.714,79.133-112.164,134.365-181.969,187.901c-37.221,28.543-74.298,56.538-112.898,83.012
			c-23.563,16.161-67.591,40.258-66.732,73.43c0.105,3.684,38.3,35.58,43.042,45.521c10.312,21.657,16.38,49.558,8.523,72.912
			c-7.441,22.116-28.458,46.826-9.799,69.499c16.597,20.175,49.776,28.224,72.663,38.154c0.461,0.2,0.928,0.4,1.391,0.601
			l13.17-2.406c27.549-4.782,46.032-15.273,69.61-28.31c67.588-37.345,138.98-89.579,194.199-143.176
			c51.314-49.815,91.506-131.316,171.551-135.992l3.492-0.299c1.373-14.208,2.463-28.442,3.208-42.694
			C6472.082,4255.557,6475.653,4179.067,6462.393,4112.639z" style="stroke:black;fill:#ff909f"/><path id="180631558" parent_id="180631529" order="92" structure_id="1104" d="M6290.313,4501.853
			c-55.219,53.597-126.611,105.831-194.199,143.176c-23.578,13.036-42.062,23.527-69.61,28.31l-13.17,2.406
			c83.248,36.015,194.506,71.635,284.946,53.856c27.021-5.323,45.204-27.208,63.225-46.181
			c41.542-43.797,62.281-98.633,76.135-156.263c0.206-0.855,0.405-1.713,0.628-2.567c12.466-52.293,21.913-105.473,27.089-159.028
			l-3.492,0.299C6381.819,4370.536,6341.628,4452.037,6290.313,4501.853z" style="stroke:black;fill:#ff909f"/><path id="180631555" parent_id="180631529" order="93" structure_id="64" d="M6535.63,3265.035
			c-1.299,7.894-2.537,15.281-3.348,21.743c-12.431,100.533-35.418,198.937-75.091,292.423
			c-11.646,27.455-84.229,113.494-115.554,66.911c-25.82-38.405-52.634-74.394-76.241-114.346
			c-39.768-67.289,28.67-140.58-8.469-207.59c-10.836-19.526-8.107-43.537-11.169-64.914c-3.138-21.81-15.841-43.59,2.278-62.165
			c19.522-20.034,46.883-20.584,73.143-27.152c24.697-6.18,49.398-13.336,74.526-17.572c20.171-3.393,40.998-3.449,61.305-5.557
			c22.526-2.338,61.059,10.707,74.476,30.708C6546.063,3199.25,6540.506,3235.651,6535.63,3265.035z" style="stroke:black;fill:#ff909f"/><path id="180631567" parent_id="180631529" order="94" structure_id="1120" d="M5607.516,4543.309
			c44.386-7.114,86.576-17.37,127.245-36.833c26.659-12.748,51.26-29.094,79.837-37.541c55.295-16.359,105.44,5.969,115.765,65.637
			c10.417,60.159-32.103,87.738-87.78,78.217c-28.002-4.776-53.969-8.11-81.466-16.032c-23.082-6.653-45.347-13.798-69.146-17.956
			c-10.337-1.811-74.192-10.748-84.968-7.534L5607.516,4543.309z" style="stroke:black;fill:#ff909f"/><path id="180631560" parent_id="180631529" order="95" structure_id="1113" d="M6210.852,4150.344
			c35.533-44.027,67.357-98.881,76.829-155.402c2.467-14.698,9.243-60.358-19.751-49.192c-11.896,4.589-24.491,33.742-31.677,43.583
			c-68.515,93.897-176.242,146.51-263.415,218.036c-17.878,14.668-29.814,22.446-30.912,47.086
			c-0.899,20.268,16.967,58.485,34.62,69.295c33.264,20.34,105.817-58.59,131.265-77.237
			C6144.739,4219.469,6182.09,4185.992,6210.852,4150.344z" style="stroke:black;fill:#ff909f"/><path id="180631552" parent_id="180631529" order="96" structure_id="155" d="M7133.501,3481.718
			c-26.891,53.914-52.652,108.369-78.593,162.748c-15.676,32.857-37.645,112.147-83.737,113.148
			c-25.981,0.567-61.955,2.058-88.185-2.023c-28.17-4.384-45.862-21.77-54.444-47.842c-17.459-53.01-43.603-87.551-85.392-125.405
			c-43.906-39.757-103.402-71.031-164.668-65.77c-19.959,1.71-62.851,24.406-69.658-7.147c-5.177-23.989,10.568-59.213,16.09-82.557
			c13.944-58.958,27.545-118.345,31.72-178.951c2.196-32.119-6.434-78.338,19.937-102.608c7.457-6.866,14.606-5.486,23.563-5.761
			c69.283-2.122,141.822,0.447,210.423,13.161c21.431,3.974,42.663,8.805,63.64,14.731c45.683,12.897,99.784,38.519,134.591,70.821
			c47.201,43.794,81.189,98.302,125.621,144.246c9.159,9.47,20.031,21.298,18.874,35.281
			C7151.406,3440.601,7143.554,3461.568,7133.501,3481.718z" style="stroke:black;fill:#ff909f"/><path id="180631569" parent_id="180631529" order="97" structure_id="59" d="M5615.532,4109.434
			c18.868,0.399,40.441-4.703,58.366-9.783c18.361-5.2,35.239-19.085,55.249-12.002c15.52,5.482,27.831,23.024,38.055,35.075
			c23.833,28.105,39.15,60.352,53.719,93.986c21.832,50.403-47.063,80.502-80.342,101.045
			c-38.67,23.848-85.129,34.646-130.264,34.447L5615.532,4109.434z" style="stroke:black;fill:#ff909f"/><path id="180631561" parent_id="180631529" order="98" structure_id="626" d="M6298.823,3612.459
			c-25.218-34.31-57.949-71.753-103.748-49.923c-30.595,14.585-68.392,23.43-106.831,20.659l-0.164,3.564
			c1.311,147.226-49.156,251.485-126.956,370.38c-39.572,60.488-103.062,135.879-181.716,136.589
			c11.361,25.91,26.164,50.57,37.533,76.312c10.96,24.792,22.706,73.281,57.671,72.878c27.474-0.311,61.69-29.792,81.775-44.157
			c82.038-58.685,114.281-83.741,183.135-137.768c61.108-47.957,123.966-134.943,147.874-209.01
			C6312.096,3775.429,6353.247,3686.456,6298.823,3612.459z" style="stroke:black;fill:#ff909f"/><path id="180631562" parent_id="180631529" order="99" structure_id="636" d="M5961.124,3957.14
			c77.8-118.895,128.267-223.155,126.956-370.38l0.164-3.564c-40.921-2.95-82.569-19.064-117.032-55.433
			c-21.031-22.193-34.729-43.34-70.448-26.11c-34.561,16.665-54.817,34.279-79.396,123.715
			c-19.433,70.716-37.783,142.234-46.032,215.243c-1.617,14.362-3.612,29.378-5.63,44.747
			c-6.966,53.477-14.024,111.227-5.385,160.806c2.896,16.607,8.396,32.303,15.088,47.564
			C5858.063,4093.019,5921.552,4017.628,5961.124,3957.14z" style="stroke:black;fill:#ff909f"/><path id="180631557" parent_id="180631529" order="100" structure_id="366" d="M6221.882,5075.075
			c17.936-78.593-27.636-181.007-113.292-185.118c-179.391-8.592-152.497,331.245,40.793,268.39
			C6189.961,5145.15,6213.261,5112.868,6221.882,5075.075z" style="stroke:black;fill:#ff909f"/><path id="180631570" parent_id="180631529" order="101" structure_id="149" d="M5615.795,4094.912
			c51.032-4.033,125.194-29.771,126.275-93.158c0.743-44.096,5.115-97.328,10.904-140.949
			c9.16-69.122,19.538-124.286,34.687-192.411c7.522-33.852,35.852-142.566,75.892-165.119
			c-30.231,3.839-72.717-0.156-93.167-26.276c-5.89-7.539-7.097-17.481-14.835-23.297c-6.583-4.946-15.234-6.615-22.628-9.976
			c-13.048-5.933-26.736-11.566-41.211-12.359c-27.224-1.506-42.381,46.274-63.82,8.509L5615.795,4094.912z" style="stroke:black;fill:#ff909f"/><path id="180631565" parent_id="180631529" order="102" structure_id="181" d="M5602.959,4790.064
			c46.198-1.011,91.471,10.925,135.059,25.1c39.634,12.894,80.107,24.978,118.894,40.274c19.753,7.789,39.697,17.682,54.625,33.249
			c35.281,36.795,54.581,93.039,57.044,143.162c1.916,38.95,13.381,76.233,33.429,109.656
			c20.343,33.896,116.911,34.508,149.246,82.152c27.819,41.006,67.46,93.962-24.763,142.077
			c-29.469,15.376-139.472,54.947-168.231,66.343c-34.22,13.575-66.62,36.205-102.307,45.035
			c-29.661,7.34-70.279,12.388-101.278,14.608c-61.537,4.391-127.141,4.565-165.775,59.2L5602.959,4790.064z" style="stroke:black;fill:#ff909f"/><path id="180631566" parent_id="180631529" order="103" structure_id="189" d="M5603.362,4767.926
			c44.477,1.519,100.428,13.84,141.732,30.27c59.037,23.48,121.403,39.482,177.458,70.288c28.28,15.539,62.885,39.58,96.959,32.836
			c42.176-8.351,86.661-50.015,82.862-95.019c-2.151-25.439-6.375-54.045-18.184-77.01c-15.403-29.938-43.188-28.491-72.48-38.791
			c-60.201-21.165-119.382-42.312-181.157-58.864c-39.891-10.691-80.53-23.585-121.229-30.328
			c-29.987-4.975-71.442-17.172-102.594-15.987L5603.362,4767.926z" style="stroke:black;fill:#ff909f"/><path id="180631568" parent_id="180631529" order="104" structure_id="599" d="M5610.813,4364.758
			c67.87,4.108,115.462-20.729,169.224-57.045c33.172-22.41,57.706-48.971,98.465-50.188c34.742-1.039,43.73,8.517,58.632,42.249
			c5.401,12.238,20.086,32.753,20.103,46.353c-0.009,31.623-62.668,60.686-84.672,73.849
			c-42.562,25.436-85.957,49.771-131.038,70.46c-38.312,17.575-78.249,30.854-133.748,38.134L5610.813,4364.758z" style="stroke:black;fill:#ff909f"/><path id="180631551" parent_id="180631529" order="105" structure_id="262" d="M6945.84,4838.506
			c-25.043,23.854-49.177,49.172-74.896,72.232c-16.895,15.145-34.15,31.386-52.106,44.846
			c-18.733,14.047-40.381,27.386-43.924,52.719c-14.778,105.874,161.862,8.359,197.101-5.901
			c37.455-15.163,79.6-27.969,114.196-49.319c18.81-11.616,175.333-93.116,217.84-145.066
			c37.824-46.207,106.499-103.561,164.343-194.804c40.198-63.451,72.271-123.827,110.951-187.672
			c14.404-23.787,26.84-47.604,37.385-73.312c11.723-28.622,15.347-62.128,21.452-92.276c3.341-16.607,11.676-39.976,13.811-56.225
			c2.894-22.091,9.036-32.724,17.745-52.662c4.337-9.976,8.957-33.839,12.116-44.466c7.522-25.348,9.472-46.501,10.114-72.904
			c0.749-31.322-13.9-65.007-31.258-91.556c-39.678-60.742-132.206-87.544-199.592-102.331
			c-23.252-5.112-44.669-16.295-60.288-35.782c-16.183-20.21-14.744-34.766-14.346-56.188
			c-32.334-32.621-75.93-86.827-96.885-133.197c-10.432-23.112-15.03-72.422-38.613-109.165
			c-13.219-20.589-21.246-37.904-46.312-40.783c-59.395-6.828-81.197,69.936-99.656,113.93
			c-28.261,67.382-70.175,127.956-81.583,201.807c-8.891,57.535,28.795,107.031,73.332,138
			c77.896,54.206,158.771,109.043,188.919,204.11c18.779,59.25,22.441,109.162,12.156,170.315
			c-13.011,77.479-35.73,155.767-72.684,226.312c-41.523,79.3-100.286,154.771-166.841,214.741
			C7020.151,4768.303,6982.872,4803.251,6945.84,4838.506z" style="stroke:black;fill:#ff909f"/><path id="180631564" parent_id="180631529" order="106" structure_id="483" d="M5975.219,3124.836
			c-10.853,0.607-17.563,16.214-24.403,23.418c-17.495,18.443-36.436,38.34-58.317,51.564
			c-37.97,22.944-88.756,47.835-109.594,89.312c-18.324,36.47-28.429,76.252-27.372,117.091
			c0.625,23.557-0.426,51.236,14.854,70.777c20.45,26.121,62.936,30.116,93.167,26.276
			c80.066-10.176,153.63-106.278,149.493-185.478c-1.741-33.378-7.694-69.146-18.135-100.654
			C5984.504,3185.722,5975.119,3158.073,5975.219,3124.836z" style="stroke:black;fill:#ff909f"/><path id="180631563" parent_id="180631529" order="107" structure_id="186" d="M6090.803,3455.485
			c24.864,31.888,41.417,66.567,71.879,94.042c-31.377,36.472-132.244,12.167-160.891-15.369
			c-17.079-16.428-42.43-37.98-35.644-64.69c4.75-18.771,24.734-39.046,34.676-55.309
			C6038.621,3352.296,6066.859,3424.789,6090.803,3455.485z" style="stroke:black;fill:#ff909f"/><path id="180631535" parent_id="180631529" order="108" structure_id="1097" d="M7313.737,5671.35
			c-151.507-46.786-194.933-141.301-190.525-200.684c7.444-100.433-24.605-139.558-52.971-231.483
			c-6.828-22.116-7.849-80.679,24.736-145.989c30.063-60.216,116.099-157.181,133.203-184.541
			c-27.807,10.439-142.537,74.858-231.781,111.966c-36.976,15.372-117.071,44.885-189.624,76.755
			c-100.836,44.29-248.232,103.354-373.813,159.158c-65.647,29.171-131.881,57.034-197.571,86.097
			c-75.973,33.618-148.938,72.042-226.45,101.229c-70.696,26.617-134.755,74.706-211.914,77.701
			c-75.602,2.939-150.771-8.32-208.795,65.335l-2.076,112.396l0.061,0.04l0.104-5.912c50.521,2.342,19.837,159.251,15.98,206.637
			c-6.162,75.663,2.837,151.289,1.514,224.841c-2.741,154.047-15.584,313.555-7.277,467.602
			c2.564,47.609,13.732,244.749-29.893,211.448l0.119-6.709l-0.896,0.598l-9.1,492.705c54.549,12.312,299.054-9.835,311.122-10.813
			c74.849-6,142.197-20.724,214.515-40.847c62.254-17.326,125.819-35.752,186.802-57.174c-23.29,2.709-39.374,3.15-43.399,0.108
			c-17.869-13.514,235.328-153.415,287.308-202.792c94.673-89.908,164.521-195.097,236.619-300.652
			c57.907-84.794,177.606-282.07,303.044-214.732c64.101,34.414,54.473,134.561,57.242,197.568
			c2.193,49.691-5.869,92.619-31.507,132.269c-9.544,14.762-20.545,32.449-32.712,50.194c36.059-18.643,65.269-33.744,72.599-37.002
			c31.396-13.949,48.76-167.237,58.378-287.421c3.894-48.573,20.719-259.524,35.661-420.761
			c10.943-118.03,20.544-213.431,58.515-245.94c128.238-109.816,296.83-123.176,315.924-134.636
			C7631.67,5691.069,7393.12,5695.872,7313.737,5671.35z" style="stroke:black;fill:#e64438"/><path id="180631549" parent_id="180631529" order="109" structure_id="390" d="M7104.028,6461.406
			c-16.618-9.576-30.708-7.902-50.379,1.67c11.687,4.128,18.602,15.603,26.078,24.541c10.095,12.057,14.714,23.257,18.839,38.119
			c12.417,44.558,9.433,89.745,11.453,135.469c2.193,49.691-5.869,92.619-31.507,132.269c-6.559,10.146-13.649,19.338-22.226,28.057
			c-3.767,3.837-8.76,7.425-11.559,12.096c1.544-2.573,9.268-4.896,11.791-6.06c9.998-4.621,18.75-10.618,28.749-15.121
			c10.994-4.946,22.283-9.184,33.277-14.081c38.435-17.077,38.393-118.109,44.486-150.768
			c10.494-56.153,10.025-104.924-24.703-154.566C7130.99,6482.522,7118.305,6469.615,7104.028,6461.406z" style="stroke:black;fill:#ff5d50"/><path id="180631539" parent_id="180631529" order="110" structure_id="652" d="M5991.695,5658.698
			c-2.163-44.727-42.158-46.449-79.713-70.778c-22.958,6.848-43.57,13.81-62.63,20.126l-7.368,8.45
			c-29.618,29.553-102.389,105.12-61.231,144.715c5.896,5.67,12.859,9.876,20.492,12.916l8.508-0.787l-8.508,0.787
			c31.485,12.54,74.517,4.961,102.545-4.305c21.474-7.092,41.999-17.718,62.153-27.872l11.592-7.935
			C5987.564,5711.327,5993.023,5686.338,5991.695,5658.698z" style="stroke:black;fill:#ff5d50"/><path id="180631540" parent_id="180631529" order="111" structure_id="87" d="M5586.32,5693.417c3.783,1.19,7.375,2.366,10.799,3.537
			c55.346,18.932,65.086,36.805,69.065,100.385c4.033,64.778-15.47,125.818-23.083,189.513c-1.288,10.828-2.399,21.67-3.361,32.517
			c22.575-15.233,44.675-31.587,65.903-45.587c36.537-24.097,67.845-46.118,98.428-68.942l-3.003-2.636
			c-27.741-21.52-57.977-123.039-3.526-127.733l3.703-0.343c-7.633-3.04-14.596-7.246-20.492-12.916
			c-41.157-39.595,31.613-115.162,61.231-144.715l7.368-8.45c-90.801,30.092-146.476,45.496-253.914-36.238l-0.74-0.778
			c-2.127,2.42-4.231,4.933-6.305,7.565l-2.08,112.57L5586.32,5693.417z" style="stroke:black;fill:#ff5d50"/><path id="180631541" parent_id="180631529" order="112" structure_id="110" d="M5666.185,5797.339
			c-3.979-63.58-13.72-81.453-69.065-100.385c34.881,23.711,8.724,159.582,5.182,203.1c-3.89,47.76-1.739,95.505,0.044,142.723
			c0.065-0.037,0.131-0.073,0.196-0.11c1.299-0.734,2.598-1.479,3.896-2.231c0.11-0.063,0.222-0.128,0.332-0.191
			c1.348-0.784,2.695-1.578,4.042-2.38c0.067-0.041,0.136-0.081,0.204-0.122c1.397-0.834,2.794-1.677,4.188-2.529
			c0.021-0.013,0.041-0.024,0.062-0.037c5.69-3.479,11.359-7.103,17.002-10.821c0.267-0.175,0.532-0.353,0.798-0.528
			c1.112-0.735,2.224-1.472,3.333-2.213c1.115-0.745,2.229-1.493,3.343-2.244c0.962-10.847,2.073-21.688,3.361-32.517
			C5650.715,5923.157,5670.218,5862.117,5666.185,5797.339z" style="stroke:black;fill:#ff5d50"/><path id="180631545" parent_id="180631529" order="113" structure_id="118" d="M5669.488,6555.852
			c-18.459-176.183-45.256-346.318-29.963-523.779l0.215-12.704l-37.452,21.888l0.057,1.522c1.041,27.586,1.958,54.992,1.47,82.116
			c-2.741,154.047-15.584,313.555-7.277,467.602c2.564,47.609,13.732,244.749-29.893,211.448l-0.871-0.883l-0.232,12.283
			c5.295,35.654,8.358,99.16,52.904,108.544c0.891,0.188,1.769,0.346,2.638,0.482c0.287,0.045,0.567,0.074,0.852,0.114
			c0.579,0.08,1.155,0.158,1.725,0.216c0.331,0.033,0.656,0.055,0.984,0.08c0.514,0.041,1.025,0.079,1.531,0.102
			c0.341,0.015,0.677,0.021,1.015,0.027c0.483,0.01,0.966,0.014,1.442,0.006c0.337-0.006,0.673-0.016,1.007-0.029
			c0.469-0.02,0.935-0.049,1.396-0.084c0.326-0.026,0.652-0.053,0.975-0.086c0.467-0.049,0.928-0.11,1.387-0.176
			c0.306-0.044,0.612-0.085,0.915-0.136c0.483-0.082,0.959-0.181,1.433-0.281c0.268-0.058,0.538-0.106,0.803-0.169
			c0.57-0.136,1.131-0.291,1.688-0.453c0.16-0.047,0.325-0.085,0.484-0.135c0.715-0.219,1.419-0.461,2.114-0.726
			c0.177-0.067,0.349-0.146,0.525-0.217c0.513-0.205,1.023-0.415,1.526-0.645c0.249-0.113,0.492-0.239,0.738-0.358
			c0.422-0.205,0.844-0.412,1.258-0.634c0.265-0.142,0.524-0.292,0.785-0.44c0.389-0.221,0.776-0.446,1.158-0.682
			c0.264-0.164,0.525-0.333,0.786-0.504c0.372-0.242,0.74-0.492,1.105-0.75c0.257-0.18,0.512-0.363,0.765-0.551
			c0.365-0.271,0.725-0.551,1.083-0.836c0.242-0.193,0.485-0.385,0.725-0.584c0.367-0.307,0.729-0.627,1.09-0.948
			c0.22-0.196,0.441-0.388,0.658-0.589c0.398-0.371,0.79-0.759,1.181-1.148c0.169-0.169,0.342-0.33,0.509-0.503
			c0.556-0.571,1.103-1.161,1.641-1.771c0.037-0.042,0.073-0.089,0.11-0.132c0.498-0.568,0.988-1.152,1.471-1.754
			c0.169-0.211,0.333-0.432,0.5-0.646c0.346-0.444,0.691-0.892,1.029-1.353c0.192-0.261,0.38-0.531,0.569-0.798
			c0.307-0.431,0.611-0.865,0.911-1.31c0.196-0.291,0.389-0.588,0.582-0.884c0.287-0.44,0.571-0.886,0.853-1.339
			c0.19-0.309,0.38-0.619,0.568-0.934c0.277-0.462,0.551-0.931,0.821-1.404c0.182-0.318,0.363-0.636,0.542-0.959
			c0.275-0.497,0.545-1.003,0.813-1.513c0.166-0.313,0.332-0.624,0.495-0.942c0.286-0.56,0.566-1.131,0.846-1.705
			c0.138-0.282,0.277-0.56,0.413-0.846c0.355-0.75,0.704-1.514,1.048-2.288c0.053-0.118,0.108-0.232,0.16-0.351
			c0.399-0.907,0.79-1.831,1.173-2.769c0.089-0.218,0.175-0.443,0.263-0.663c0.288-0.718,0.574-1.439,0.854-2.175
			c0.124-0.328,0.244-0.663,0.367-0.994c0.236-0.64,0.473-1.281,0.703-1.934c0.132-0.374,0.261-0.753,0.39-1.13
			c0.216-0.628,0.43-1.259,0.64-1.898c0.129-0.393,0.257-0.789,0.384-1.186c0.204-0.642,0.406-1.288,0.605-1.939
			c0.123-0.401,0.245-0.804,0.365-1.209c0.199-0.67,0.395-1.348,0.588-2.028c0.112-0.395,0.225-0.787,0.335-1.186
			c0.202-0.73,0.398-1.47,0.595-2.212C5700.486,6775.642,5672.496,6584.549,5669.488,6555.852z" style="stroke:black;fill:#ff5d50"/><path id="180631544" parent_id="180631529" order="114" structure_id="347" d="M5639.778,6014.474l-0.253,17.599
			c-15.293,177.461,11.504,347.597,29.963,523.779c3,28.615,30.844,218.714,6.089,314.345l1.044-0.924l213.103-137.37
			c-24.596-47.908-42.606-102.693-61.994-151.775c-63.493-160.717-126.358-359.157-36.497-520.355
			c41.178-73.845,133.381-121.032,179.146-146.143c30.563-16.769,65.266-26.585,98.159-23.473c0,0-68.038-17.656-96.038-43.656
			s-32.903-55.019-32.903-55.019c-13.971,15.745-29.725,30.088-45.945,43.236c-65.113,52.772-116.567,91.948-188.008,139.063
			c-22.213,14.649-45.38,31.876-69.048,47.699" style="stroke:black;fill:#ff5547"/><path id="180631548" parent_id="180631529" order="115" structure_id="700" d="M6470.555,6559.821
			c-2.288-42.527-9.03-87.097-15.188-131.742c-10.762-78.091-48.021-175.111-99.34-265.31l-0.251,13.296
			c2.71,80.975-9.936,155.142-78.042,209.643c-60.159,48.144-142.586,78.113-204.116,119.347
			c-73.522,49.282-117.673,146.954-159.772,221.241l-13.898,24.397c38.589,66.774,93.401,115.398,189.033,107.008
			c80.885-7.1,200.601-26.552,272.252-65.217C6458.291,6740.109,6475.652,6655.114,6470.555,6559.821z" style="stroke:black;fill:#ff4c3e"/><path id="180631547" parent_id="180631529" order="116" structure_id="708" d="M6073.618,6505.055
			c61.53-41.233,143.957-71.203,204.116-119.347c68.106-54.501,80.752-128.668,78.042-209.643l0.251-13.296
			c-42.063-73.928-93.57-143.268-147.687-193.848l-2.483,7.176c-22.37,58.456-84.559,80.935-135.543,111.611
			c-98.768,59.42-234.27,130.652-313.808,166.55l-9.818,3.827c3.162,109.987,41.975,223.154,81.041,322.041
			c21.977,55.635,42.184,118.598,72.218,170.566l13.898-24.397C5955.945,6652.009,6000.096,6554.337,6073.618,6505.055z" style="stroke:black;fill:#ff4c3e"/><path id="180631546" parent_id="180631529" order="117" structure_id="724" d="M6070.314,6087.709
			c50.984-30.677,113.173-53.155,135.543-111.611l2.483-7.176c-37.891-35.414-77.057-61.636-115.153-73.786
			c-39.623-12.635-84.474-2.54-122.809,18.493c-45.766,25.11-137.969,72.298-179.146,146.143
			c-34.57,62.016-46.521,129.544-44.544,198.314l9.818-3.827C5836.045,6218.361,5971.547,6147.129,6070.314,6087.709z" style="stroke:black;fill:#ff4c3e"/><path id="180631537" parent_id="180631529" order="118" structure_id="439" d="M5849.353,5608.046
			c19.06-6.316,39.672-13.278,62.63-20.126c-1.697-1.1-3.39-2.242-5.073-3.44c-32.754-23.313-62.568-72.81-105.593-71.138
			c-72.892,2.825-149.245-7.599-206.618,57.688l0.74,0.778C5702.877,5653.542,5758.552,5638.138,5849.353,5608.046" style="stroke:black;fill:#ff4c3e"/><path id="180631538" parent_id="180631529" order="119" structure_id="464" d="M5903.79,5769.822
			c-28.028,9.266-71.06,16.845-102.545,4.305l-3.703,0.343c-54.45,4.694-24.215,106.214,3.526,127.733l3.003,2.636
			c29.215-21.804,57.769-44.339,89.58-70.121c34.105-27.645,66.145-60.573,83.884-100.702l-11.592,7.935
			C5945.789,5752.104,5925.264,5762.73,5903.79,5769.822z" style="stroke:black;fill:#ff4c3e"/><path id="180631542" parent_id="180631529" order="120" structure_id="194" d="M6747.094,6682.233c0.88-1.288,1.76-2.576,2.64-3.864
			c57.907-84.794,177.606-282.07,303.044-214.732l0.872-0.561c19.671-9.572,33.761-11.246,50.379-1.67
			c14.276,8.209,26.962,21.116,34.301,31.624c17.364,24.821,26.163,49.425,29.31,74.842l6.827-14.283
			c2.168-19.73,4.074-39.021,5.705-57.15c5.226-58.023,8.681-163.41,14.333-213.541c7.447-66.288,15.763-133.866,18.09-192.716
			c2.513-63.906,11.849-187.355,52.172-239.83c34.458-44.833,103.181-68.942,153.204-90.581
			c46.034-19.905,130.671-39.146,177.434-54.144c-14.3-21.489-52.358-12.035-77.159-13.86
			c-101.361-7.472-273.722-17.614-348.181-108.855c-40.232-49.304-47.791-103.833-45.493-158.601
			c0.724-17.335,2.929-34.884,6.393-52.546l0.097-1.481c-25.128-32.756-44.01-70.094-54.186-109.425l-3.79,2.314
			c-0.451,16.726-6.699,31.156-28.414,41.6c-43.589,20.97-87.072,41.666-129.923,64.379
			c-143.214,75.874-284.365,170.968-442.062,209.173c-170.972,41.416-327.735,32.29-461.061-57.271c0,0-39.125-8.553-69.125,17.447
			s-22.247,54.429-22.247,54.429c34.937,19.806,69.438,24.317,71.442,65.77c2.561,53.272-20.087,96.707-52.099,132.783
			c0,0,4.903,29.019,32.903,55.019s96.038,43.656,96.038,43.656c8.366,0.791,16.615,2.418,24.649,4.979
			c158.896,50.678,336.421,346.036,362.18,532.943c6.157,44.646,12.899,89.215,15.188,131.742
			c1.071,20.021,1.151,39.587-0.291,58.491c0,0,36.236,56.188,118.236,74.188S6747.094,6682.233,6747.094,6682.233z" style="stroke:black;fill:#f2483b"/><path id="180631543" parent_id="180631529" order="121" structure_id="173" d="M5668.334,6874.615
			c30.003,201.021-2.822,424.306,342.034,375.038c147.015-21.003,232.651-84.867,237.966-90.082
			c37.202-36.506,219.298-137.345,264.78-180.55c93.518-88.811,162.812-192.53,233.979-296.788c0,0-76.594,28.267-158.594,10.267
			s-118.236-74.188-118.236-74.188c-5.424,71.076-32.364,132.801-109.031,174.172c-71.651,38.665-191.367,58.117-272.252,65.217
			c-104.398,9.16-160.15-49.627-199.257-125.799L5668.334,6874.615z" style="stroke:black;fill:#f2483b"/><path id="180631536" parent_id="180631529" order="122" structure_id="797" d="M6009.087,5435.56
			c-16.323,6.143-71.275,19.282-66.001,37.129c3.47,11.734,34.212,23.281,43.871,30.664
			c138.496,105.927,304.095,118.971,485.729,74.972c157.696-38.205,298.848-133.299,442.062-209.173
			c42.851-22.713,86.334-43.409,129.923-64.379c43.429-20.887,24.992-57.723,22.046-96.968c-3.144-41.75,9.996-85.993,28.408-122.91
			c30.063-60.22,116.107-157.185,133.22-184.544c-27.815,10.442-142.546,74.861-231.798,111.966
			c-36.96,15.375-117.072,44.883-189.607,76.754c-100.836,44.294-248.249,103.357-373.829,159.163
			c-65.634,29.166-131.872,57.03-197.556,86.095C6159.581,5367.943,6086.614,5406.372,6009.087,5435.56z" style="stroke:black;fill:#f2483b"/><path id="180631657" parent_id="180631529" order="123" structure_id="1009" d="M6513.114,6979.021
			c94.673-89.908,164.521-195.097,236.619-300.652c57.907-84.794,177.606-282.07,303.044-214.732
			c64.101,34.414,54.473,134.561,57.242,197.568c2.193,49.691-5.869,92.619-31.507,132.269
			c-27.336,42.278-70.59,62.167-115.054,85.058c-54.483,28.054-83.552,45.649-132.801,64.563
			c-78.262,30.066-155.487,62.756-233.239,94.06c-18.65,7.512-351.498,159.857-371.612,144.66
			C6207.938,7168.3,6461.135,7028.398,6513.114,6979.021z" style="stroke:black;fill:#cccccc"/><path id="180631658" parent_id="180631529" order="124" structure_id="1009" d="M7971.033,6060.716
			c33.614-56.711-112.354-103.045-112.878-53.681C7857.917,6030.094,7951.234,6094.125,7971.033,6060.716z" style="stroke:black;fill:#cccccc"/><path id="180631659" parent_id="180631529" order="125" structure_id="1009" d="M6486.917,6269.405
			c45.037-46.713,37.969-189.344,18.371-228.328c-21.717-43.242-81.792-46.543-114.048-24.182
			c-38.503,26.68-49.77,75.739-42.198,122.817c6.688,41.469,31.356,115.487,70.815,135.483
			C6449.529,6290.238,6471.339,6285.561,6486.917,6269.405z" style="stroke:black;fill:#cccccc"/><path id="180631660" parent_id="180631529" order="126" structure_id="1009" d="M6273.498,5002.072
			c108.153-21.392,36.657-171.893-8.821-216.792c-27.387-27.03-67.409-46.489-105.892-49.291
			c-35.896-2.616-62.003,24.109-49.538,61.595c18.55,55.799,68.691,87.219,97.217,136.666c13.628,23.627,18.691,61.524,50.3,67.81
			C6262.582,5003.21,6268.176,5003.122,6273.498,5002.072z" style="stroke:black;fill:#cccccc"/><path id="180631661" parent_id="180631529" order="127" structure_id="1009" d="M6158.466,3273.94
			c-8.22-6.462-15.313-14.633-21.877-22.319c-23.93-28.082-80.688-113.826-123.883-135.385c-10.613-5.296-20.692-2.089-31.476-0.578
			c-13.935,1.96,1.025,61.387,2.949,65.095c16.637,32.065,21.707,86.384,25.431,122.265c6.225,60.114,45.486,106.687,81.192,152.467
			c22.475,28.827,68.136,126.506,114.737,103.001c50.288-25.363,40.036-85,53.847-142.928c10.069-42.154,13.792-62.079-2.459-91.382
			c-14.729-26.561-3.107-62.743-21.658-101.418C6195.942,3246.524,6185.5,3295.185,6158.466,3273.94z" style="stroke:black;fill:#cccccc"/><path id="180631662" parent_id="180631529" order="128" structure_id="1009" d="M7505.731,3794.189
			c51.434,2.216,92.09-18.224,131.574-50.069c83.027-66.99,69.261-129.146,70.421-197.731
			c1.071-63.729-54.292-150.691-24.909-212.477c25.459-53.53,103.587-89.068,97.601-2.348
			c-14.17,205.244,61.645,434.378,69.346,403.987c40.304-159.093,57.579-385.888,92.283-388.548
			c31.249-2.397,28.189,217.09,82.511,252.699c51.116,33.504,143.72-26.406,176.121-94.311
			c50.011-104.854,137.875,176.912,102.219,197.012c-15.646,8.815-138.945,105.376-209.116,195.414
			c-72.92,93.581-98.905,72.899-139.022,109.527c-40.948,37.378-60.032,79.438-78.258,131.352
			c-23.752,67.644-27.902,109.554-13.105,207.39c11.213,74.132,10.298,116.436,10.652,209.854
			c0.526,137.772-74.303,314.146-189.698,380.515c-57.111,32.846-195.698,74.703-197.769,144.445
			c-3.246,108.827,179.312,130.14,190.549,240.884c7.6,74.813-72.898,113.156-130.804,132.796
			c-57.387,19.455-119.453,36.723-180.317,37.774c-191.162,3.31-366.003-221.46-270.885-407.458
			c22.664-44.293,50.199-77.362,81.731-115.392c47.508-57.346,89.944-118.857,138.803-175.083
			c45.32-52.148,98.376-97.112,136.425-155.551c50.16-77.059,92.092-159.124,140.903-237.022
			c43.694-69.752,38.997-156.035,69.041-231.873c25.367-64.024,42.954-149.164,9.485-213.572
			c-30.352-58.416-88.551-77.815-145.747-99.616c-32.676-12.445-75.516-14.172-105.282-33.761
			c-29.255-19.255-36.453-54.143-33.915-79.296c17.774,25.772,89.283,48.091,111.628,49.974
			C7500.735,3793.921,7503.248,3794.071,7505.731,3794.189z" style="stroke:black;fill:#cccccc"/><path id="180631663" parent_id="180631529" order="129" structure_id="1009" d="M7444.072,3447.824
			c58.696-25.343,130.412-0.504,186.364,40.65c127.411,93.697,86.344,238.813-67.734,299.53
			c-43.938,17.314-138.601-3.065-168.974-35.647c-45.147-48.397-137.257-143.06-112.613-215.767
			c21.975-64.802,78.717-51.464,127.379-72.818C7409.367,3463.387,7443.183,3448.201,7444.072,3447.824z" style="stroke:black;fill:#cccccc"/><path id="180631664" parent_id="180631529" order="130" structure_id="1009" d="M6637.059,2036.993
			c68.809,14.805,141.054,36.898,199.402,51.676c74.051,18.722,149.813,34.735,225.956,57.065
			c27.501,8.064,55.841,15.646,84.599,23.068c69.251,17.886,140.763,34.734,206.493,54.381
			c89.926,26.903,177.834,59.581,265.922,96.082c87.919,36.581,168.774,78.013,248.932,130.309
			c53.738,35.036,103.895,70.753,156.853,107.601c22.789,15.948,46.155,32.073,70.513,48.465
			c69.71,46.956,131.277,76.241,193.048,135.006c143.525,136.831,281.237,278.288,403.218,435.313
			c52.311,67.392,102.181,136.566,148.854,208.006c14.616,22.356,28.896,44.873,42.841,67.632
			c57.546,94.142,127.733,182.706,179.491,280.062c30.409,57.356,67.356,106.944,86.646,168.413
			c22.428,71.407,50.705,140.846,74.637,211.782c23.938,70.604,58.992,155.198,63.34,234.491c0.322,4.988,0.479,9.973,0.471,14.954
			c0.002-0.083-0.081-0.084-0.08-0.167l-4.19,47.085c-16.472,82.562-13.214,180.434-45.215,258.641
			c-40.693,99.302-74.13,205.796-104.268,309.03c-1.953,6.855-4.156,13.706-6.356,20.475c-0.793,2.476-1.669,4.95-2.462,7.427
			c-0.085,0.082-0.087,0.165-0.173,0.329c-1.57,4.123-3.638,8.153-4.3,12.542c0,0-0.083-0.002-0.002,0.083
			c-12.951,35.879-28.29,70.636-43.63,105.475c-0.17,0.163-0.254,0.245-0.257,0.411c-15.477,24.208-24.782,56.004-33.589,78.758
			c-2.963,7.585-5.76,15.172-8.476,22.844c-1.309,3.38-2.45,6.764-3.592,10.146c-0.438,1.237-0.875,2.392-1.229,3.631
			c-1.227,3.465-2.372,7.014-3.516,10.48c-2.726,8.253-5.203,16.51-7.6,24.852c-0.981,3.719-2.047,7.436-2.946,11.155
			c-1.071,4.049-2.059,8.1-3.047,12.149c-13.434,57.459-29.386,111.966-46.545,168.858c-22.373,73.9-41.206,149.527-64.565,222.911
			l-0.618,1.981c-0.354,1.156-0.711,2.562-1.155,4.131l-1.773,6.111c-14.316,51.299-59.656,222.338-109.761,327.693
			c-7.938,7.16-13.718,23.411-18.244,34.703c-0.086,0.164-0.255,0.327-0.258,0.493c-17.23,29.241-34.606,48.433-51.248,50.367
			c-3.063-32.023,94.519-284.715,129.215-365.031c23.422-54.285,45.666-175.185-8.693-203.589
			c-74.014-38.732-217.649,127.004-286.622,233.423c-59.828,92.307-94.278,226.764-126.149,199.023
			c-43.065-37.496,127.356-264.348,146.607-286.161c34.434-39.137,60.428-84.324,98.54-120.32
			c34.986-33.065,72.701-61.015,103.786-98.636c65.822-79.74,107.126-176.125,157.85-265.527
			c75.271-132.707,127.621-274.223,192.195-412.192c58.782-125.621,110.049-271.393,115.539-411.283
			c4.677-118.318-31.07-223.849-78.351-329.841c-49.837-111.437-105.825-222.488-162.454-330.314
			c-64.888-123.754-159.271-228.458-234.327-345.591c-64.077-100.158-158.954-169.167-238.395-255.742
			c-188.424-205.499-392.467-370.018-650.636-481.234c-106.597-45.893-220.42-91.588-329.996-128.984
			c-39.027-13.342-78.533-14.32-117.506-30.65c-47.705-20.062-93.485-45.402-140.628-64.457
			c-69.81-28.109-128.274-50.03-203.165-68.269c-62.656-15.273-179.097-13.688-238.747-38.869
			c12.617,67.655-36.205,72.067-11.456,134.716c14.832,37.638,55.307,94.018,62.394,141.892
			c6.416,43.71,10.494,83.642,24.158,117.107c32.089,78.809,93.367,101.28,163.458,141.102
			c38.046,21.544,88.93,35.852,128.797,53.195c35.088,15.345,74.865,37.585,107.886,56.96c13.718,8.058,29.854,11.013,43.194,21.556
			c30.028,24.053,40.171,63.847,54.168,101.719c9.173,24.83,17.853,44.918,28.705,73.184
			c30.352,78.528,38.914,140.877,22.282,200.686c-9.429,33.952-39.991,65.771-69.188,91.137
			c-51.645,44.88-116.158,67.186-173.823,28.922c-92.364-61.157-132.183-153.063-218.959-233.546
			c-34.776-32.278-88.938-57.939-134.616-70.822c-77.48-21.857-148.864-27.66-231.906-27.118
			c-47.251,0.29-108.024,4.481-155.786,5.425c-52.496,1.106-79.73,23.52-118.095-12.228c-27.101-25.244-53.267-51.634-80.534-76.798
			c-3.264-3.133-6.038-5.758-8.164-7.541c-0.979-0.931-2.043-1.781-3.023-2.63c-2.125-1.866-4.164-3.813-6.206-5.678
			c-34.644-30.448-67.552-55.883-105.253-82.651c-8.523-6.053-17.218-11.86-25.827-17.748c-0.902-0.598-1.722-1.194-2.622-1.875
			c-74.82-53.526,92.674-54.501,147.007-56.071c87.23-2.541,178.998-30.405,244.128-68.144
			c60.515-35.084,82.486-96.288,108.858-161.978c66.666-165.83-75.031-194.935-194.335-186.676
			c-81.642,5.633-168.617,21.297-248.091,39.922c-81.809,19.164-163.668,41.067-237.733,81.547
			c-40.01,21.846-59.346,30.29-69.147,75.444c-1.267,5.623,3.413,62.42-4.604,91.915c-3.298,12.228-3.253,18.789-18.493,21.247
			c-22.679,5.061-45.843,9.449-69.18,14.249c-23.822,4.044-46.568,8.273-74.642,17.719c-2.172,0.707-4.263,1.499-6.352,2.208
			c-0.001,0.083-0.001,0.083-0.084,0.082c-7.515,2.269-28.072,9.362-45.258,18.261c-20.989,7.999-29.002,5.775-29.12-28.271
			l8.049-435.771l0.153-8.3c4.228,0.41,9.284,0.835,15.004,1.356c0.57,0.592,1.063,0.933,1.559,1.025
			c15.576,1.865,29.928,2.545,42.805,2.202c0.083,0.001,0.166,0.003,0.249,0.004c67.668,4.654,157.749,9.64,157.749,9.64
			c7.887,0.063,33.521-3.2,69.324-13.084c57.921-16.035,142.568-49.511,222.412-115.126c8.344-6.737,16.613-13.892,24.808-21.462
			c34.465-31.828,60.271-53.356,87.022-76.692c19.831-17.236,40.179-35.46,64.953-59.58c7.271-7.09,15.362-13.583,24.022-19.401
			c10.51-7.112,22-13.294,34.055-18.634c11.218-4.941,22.835-9.044,34.772-12.477c33.724-9.673,69.415-13.498,101.361-12.326
			C6561.266,2022.64,6598.603,2028.644,6637.059,2036.993z" style="stroke:black;fill:#cccccc"/><path id="180631654" parent_id="180631529" order="131" structure_id="81" d="M6934.5,2330.972
			c-20.378-3.968-67.849-9.661-87.296-21.327c15.702,48.718-24.193,70.537-18.625,108.975
			c8.789,60.616,73.818,124.529,73.737,203.409c-0.033,38.562,16.008,69.835,32.673,104.394
			c19.506,40.438,62.794,67.972,100.731,90.428c26.221,15.504,54.658,30.021,82.246,43.034c27.57,13.009,58.37,21.705,86.561,33.43
			c46.792,19.442,77.928,42.37,108.611,57.014c51.706,24.664,80.992,40.198,95.602,95.776
			c14.974,56.987,51.886,117.418,62.107,175.92c12.516,71.726,25.081,108.573-24.205,173.552
			c-16.677,21.986-45.093,50.426-65.082,64.581c-41.901,29.696-2.896,18.17,40.563-4.436
			c27.682-14.395,68.813-23.827,100.013-19.952c55.568,6.915,45.453-78.049,40.946-99.917c-9.696-47-26.438-102.51-42.951-147.483
			c-34.686-94.513-57.9-182.673-4.648-272.702c43.417-73.431,83.122-154.845,113.634-233.167
			c18.555-47.638-16.297-79.214-51.855-114.431c-29.905-29.613-53.02-33.154-108.466-65.312
			c-46.171-26.778-95.186-50.089-143.647-71.085c-54.27-23.5-103.219-44.525-166.289-62.304
			c-44.708-12.594-92.452-29.555-139.593-32.218C6992.156,2335.619,6936.09,2331.28,6934.5,2330.972z" style="stroke:black;fill:#aaaaaa"/><path id="180631655" parent_id="180631529" order="132" structure_id="129" d="M5566.645,6803.944
			c43.625,33.301,32.457-163.839,29.893-211.448c-8.307-154.047,4.536-313.555,7.277-467.602
			c1.323-73.552-7.676-149.178-1.514-224.841c3.856-47.386,34.54-204.295-15.98-206.637L5566.645,6803.944z" style="stroke:black;fill:#aaaaaa"/><path id="180631656" parent_id="180631529" order="133" structure_id="129" d="M5639.193,2828.418
			c-2.627,68.855,57.028,25.607,86.397,38.319c50.622,21.917,41.026,74.637,85.151,114.308
			c50.769,45.663,161.319,87.741,212.322,136.422c0,0-30.933-10.946-46.782,4.328c-23.321,22.472-56.154,61.314-83.784,78.023
			c-37.97,22.944-88.756,47.835-109.594,89.312c-48.373,96.256-15.234,161.072-29.31,162.757
			c-7.008,0.833-34.66-19.019-61.883-20.521c-27.224-1.506-42.381,46.274-63.82,8.509L5639.193,2828.418z" style="stroke:black;fill:#aaaaaa"/></g>
</g>
</svg>