<?xml version="1.0" encoding="utf-8"?>
<!-- Generator: Adobe Illustrator 16.0.0, SVG Export Plug-In . SVG Version: 6.00 Build 0)  -->
<!DOCTYPE svg PUBLIC "-//W3C//DTD SVG 1.1//EN" "http://www.w3.org/Graphics/SVG/1.1/DTD/svg11.dtd">
<svg version="1.1" id="Layer_1" xmlns="http://www.w3.org/2000/svg" xmlns:xlink="http://www.w3.org/1999/xlink" x="0px" y="0px"
	 width="9744.011px" height="6823.461px" viewBox="0 0 9744.011 6823.461" enable-background="new 0 0 9744.011 6823.461"
	 xml:space="preserve">
<g transform="scale(1.0)">
	<g id="_x31_80609405" transform=" scale(1.0, 1.0)">
		<path id="_x31_80609407" fill="none" stroke="#000000" stroke-width="80" d="M5320.81,1715.684
			c40.703-10.639,82.224-17.926,121.834-25.341c171.176-32.054,342.569-26.603,511.939,17.326
			c459.705,119.231,858.753,358.125,962.877,914.081c31.798,169.718,47.67,393.567-42.099,545.449
			c-81.099,137.199-271.534,212.522-403.513,113.834c-122.674-91.729-205.379-238.317-321.283-339.635
			c-179.746-157.117-465.586-103.392-675.092-79.763c-83.213,9.388-173.401,31.899-254.098-3.871
			c-159.917-70.876-215.673-301.194-201.436-475.397C5040.294,2133.332,5060.956,1783.594,5320.81,1715.684z"/>
		<path id="_x31_80609408" fill="none" stroke="#000000" stroke-width="80" d="M6470.797,3559.001
			c18.884,73.859,30.875,151.314,26.124,225.641c-30.842,482.478-218.463,898.24-522.654,1258.715
			c-117.524,139.268-237.738,293.055-404.637,367.885c-227.423,101.976-472.755-20.34-619.036-208.781
			c-118.69-152.914-110.316-367.992-94.067-553.529c4.384-50.035,1.324-99.325,8.502-149.098
			c8.466-58.613,5.758-114.267,8.704-174.582c8.163-167.354,22.517-345.596,37.531-513.271
			c10.362-115.566,1.988-231.081,39.33-340.527c39.916-116.962,82.627-247.639,161.9-343.146
			c75.562-91.036,218.932-132.611,326.959-163.824c167.559-48.409,349.493-28.284,515.166,17.23
			c102.246,28.096,223.183,71.468,279.422,172.795c20.57,37.049,15.896,77.104,34.078,114.691
			c26.887,55.571,78.941,79.673,121.87,118.812C6446.171,3439.244,6452.614,3487.904,6470.797,3559.001z"/>
		<path id="_x31_80609409" fill="none" stroke="#000000" stroke-width="80" d="M6470.797,3559.001
			c-18.183-71.097-24.626-119.757-80.806-170.988c-42.928-39.142-94.983-63.242-121.869-118.813
			c-18.182-37.588-13.508-77.644-34.078-114.692c-56.24-101.326-177.178-144.698-279.423-172.795
			c-165.673-45.515-347.606-65.64-515.166-17.229c-108.026,31.212-251.396,72.788-326.959,163.824
			c-79.272,95.508-121.983,226.185-161.899,343.146c-37.343,109.446-28.97,224.961-39.33,340.527
			c-15.015,167.677-29.368,345.917-37.532,513.272c-2.946,60.314-0.237,115.968-8.703,174.58
			c-7.179,49.772-4.119,99.063-8.503,149.099c-16.249,185.537-24.623,400.614,94.066,553.528
			c146.282,188.442,391.614,310.758,619.038,208.781c166.898-74.83,287.112-228.617,404.635-367.885
			c304.193-360.474,491.812-776.236,522.655-1258.715C6501.671,3710.316,6489.68,3632.861,6470.797,3559.001z M5773.372,3962.707
			c-9.875,31.649-29.404,60.948-44.467,90.044c-17.367,33.528-26.664,70.741-38.719,106.494
			c-7.873,23.365-27.521,84.451-52.099,37.501c-12.444-23.767-12.148-57.664-14.585-83.871
			c-3.217-34.721-5.133-68.695-11.627-102.118c-2.967-15.265-6.893-30.41-12.343-45.469c-6.954-19.201-28.634-54.596-10.731-71.914
			c17.366-16.782,66.513,7.306,84.315,13.089C5704.024,3916.518,5787.257,3918.186,5773.372,3962.707z"/>
		<path id="_x31_80609410" fill="none" stroke="#000000" stroke-width="80" d="M5320.81,1715.684
			c40.703-10.639,82.224-17.926,121.834-25.341c171.176-32.054,342.569-26.603,511.939,17.326
			c459.705,119.231,858.753,358.125,962.877,914.081c31.798,169.718,47.67,393.567-42.099,545.449
			c-81.099,137.199-271.534,212.522-403.513,113.834c-122.674-91.729-205.379-238.317-321.283-339.635
			c-179.746-157.117-465.586-103.392-675.092-79.763c-83.213,9.388-173.401,31.899-254.098-3.871
			c-159.917-70.876-215.673-301.194-201.436-475.397C5040.294,2133.332,5060.956,1783.594,5320.81,1715.684z"/>
		<path id="_x31_80609426" fill="none" stroke="#000000" stroke-width="80" d="M6157.868,2584.545
			c138.988,15.378,204.361-102.816,144.039-257.79c-94.84-243.351-301.097-309.626-513.32-347.897
			c-103.254-18.622-450.123-102.777-493.457,56.248c-26.752,98.116-36.729,233.094,1.482,330.872
			c1.553,3.688,3.018,7.367,4.658,11.061c49.994,112.947,148.034,81.401,243.447,90.209c93.107,8.731,216.21,13.587,303.338,44.673
			C5949.095,2548.021,6051.794,2572.849,6157.868,2584.545z M5954.585,1707.658c459.697,119.268,858.727,358.177,962.91,914.154
			c31.8,169.67,47.602,393.555-42.116,545.401c-81.1,137.231-271.527,212.548-403.585,113.814
			c-122.625-91.673-205.307-238.326-321.219-339.604c-179.768-157.173-465.631-103.457-675.133-79.753
			c-83.191,9.37-173.398,31.889-254.113-3.865c-159.869-70.896-215.609-301.272-201.387-475.391
			c20.291-249.111,41.009-598.825,300.814-666.709c40.719-10.7,82.293-17.965,121.831-25.382
			C5613.776,1658.267,5785.175,1663.705,5954.585,1707.658z"/>
		<path id="_x31_80609425" fill="none" stroke="#000000" stroke-width="80" d="M6301.907,2326.755
			c60.322,154.974-5.049,273.168-144.039,257.79c-106.074-11.696-208.773-36.523-309.812-72.626
			c-87.128-31.084-210.231-35.94-303.338-44.673c-95.413-8.807-193.453,22.737-243.447-90.209
			c-1.641-3.695-3.105-7.375-4.658-11.061c-38.211-97.777-28.234-232.756-1.482-330.871
			c43.334-159.027,390.203-74.872,493.457-56.249C6000.811,2017.129,6207.067,2083.404,6301.907,2326.755z"/>
		<path id="_x31_80609411" fill="none" stroke="#000000" stroke-width="80" d="M6470.793,3559.016
			c-18.185-71.104-24.625-119.761-80.812-170.997c-42.924-39.142-94.982-63.241-121.865-118.815
			c-18.184-37.587-13.51-77.641-34.077-114.691c-56.241-101.327-177.181-144.697-279.429-172.791
			c-165.678-45.518-347.608-65.645-515.17-17.241c-108.028,31.219-251.402,72.795-326.965,163.829
			c-79.269,95.507-121.982,226.187-161.902,343.146c-37.34,109.448-28.972,224.965-39.328,340.533
			c-15.014,167.678-29.367,345.918-37.536,513.274c-2.943,60.311-0.241,115.967-8.706,174.581
			c-7.179,49.771-4.119,99.062-8.503,149.097c-16.246,185.539-24.624,400.62,94.072,553.532
			c146.28,188.443,391.618,310.758,619.042,208.785c166.894-74.832,287.115-228.621,404.636-367.888
			c304.201-360.478,491.815-776.239,522.663-1258.722C6501.661,3710.323,6489.667,3632.869,6470.793,3559.016z M5773.372,3962.707
			c-9.875,31.649-29.404,60.948-44.467,90.044c-17.367,33.528-26.664,70.741-38.719,106.494
			c-7.873,23.365-27.521,84.451-52.099,37.501c-12.444-23.767-12.148-57.664-14.585-83.871
			c-3.217-34.721-5.133-68.695-11.627-102.118c-2.967-15.265-6.893-30.41-12.343-45.469c-6.954-19.201-28.634-54.596-10.731-71.914
			c17.366-16.782,66.513,7.306,84.315,13.089C5704.024,3916.518,5787.257,3918.186,5773.372,3962.707z"/>
		<path id="_x31_80609412" fill="none" stroke="#000000" stroke-width="80" d="M5520.755,3777.855
			c-8.863-64.351,5.427-120.679,30.495-186.29c42.349-110.889,104.04-225.09,144.053-340.725
			c9.64-27.865,43.99-121.359,55.554-148.179c14.805-34.352-5.418-115.674,21.501-154.787
			c-114.6-33.67-277.583,0.613-332.921,16.604c-108.027,31.219-251.402,72.795-326.964,163.829
			c-79.269,95.507-121.981,226.186-161.901,343.146c-37.342,109.448-28.972,224.965-39.329,340.533
			c-15.015,167.677-30.364,345.85-37.536,513.273c-4.594,107.384-7.826,216.674-17.21,323.679
			c-16.246,185.539-24.623,400.62,94.072,553.532c146.281,188.443,391.618,310.758,619.044,208.785
			c113.33-50.816,205.277-138.824,288.525-231.686c39.536-44.116,115.703-135.719,116.108-136.202
			c38.003-44.647,35.06-42.449,71.474-88.534c-62.066,48.959-107.404,49.162-187.28,26.827
			c-18.838-5.269-38.952-11.196-54.271-23.733c-62.65-51.293-126.739-124.961-151.154-206.604
			c-14.967-50.087-11.096-97.994-20.295-148.703c-8.23-45.371-8.434-88.274-8.37-133.491c0.14-99.639,1.074-230.468-1.239-330.086
			c-1.993-85.947-7.453-139.543-43.641-218.596C5560.136,3878.203,5526.696,3820.978,5520.755,3777.855z"/>
		<path id="_x31_80609413" fill="none" stroke="#000000" stroke-width="80" d="M5701.984,5284.472
			c-50.112,30.918-98.315,65.978-152.073,89.938c-48.281,21.515-89.805,46.41-143.818,29.218
			c-62.182-19.798-109.148-89.245-134.848-148.509c-32.163-74.194-57.729-153.837-68.467-234.627
			c-6.199-46.585-11.043-94.002-28.689-137.753c-18.892-46.804-49.356-87.167-70.709-132.696
			c-33.074-70.526-62.402-147.636-83.482-222.69c-10.561-37.587-0.436-86.887,2.219-125.41c2.976-43.059,5.816-86.286,2.297-129.417
			c-5.645-69.13-17.053-137.813-18.463-207.289c-1.309-64.479,9.049-129.771,14.882-193.948
			c16.073-176.927,46.164-357.376,109.228-523.408c32.988-86.847,96.08-123.402,158.467-185.183
			c56.107-55.562,99.049-121.787,134.848-192.856c-1.191,0.096-2.383,0.216-3.574,0.332
			c-105.213,30.649-236.259,72.519-307.324,158.137c-37.389,45.048-66.641,97.924-91.307,153.49
			c-58.938,139.496-47.556,300.756-69.344,447.157c-9.196,61.849-22.824,122.704-28.245,184.936
			c-5.763,66.077-7.444,132.411-11.837,198.595c-5.132,77.271-12.109,154.395-16.851,231.689
			c-4.447,72.332-16.526,145.033-12.882,217.683c2.585,51.325,11.938,114.412,32.312,161.496
			c21.811,50.42,25.078,96.079,51.758,143.926c16.37,29.356,22.411,72.171,32.917,104.474
			c12.079,37.141,24.647,74.102,37.809,110.84c24.234,67.612,49.709,135.135,79.58,200.293
			c34.029,74.201,78.674,123.582,145.977,147.824c43.481,11.424,87.922,17.562,132.203,17.437
			c60.354-1.832,124.586-14.265,175.049-36.888c38.357-17.201,74.259-38.672,108.211-63.139
			c10.711-9.736,21.156-19.947,33.849-29.918c3.97-3.122,11.286-6.128,16.851-9.887c1.642-1.395,3.287-2.783,4.919-4.188
			c0.726-0.849,1.321-1.733,1.747-2.667C5748.593,5272.027,5715.916,5275.888,5701.984,5284.472z"/>
		<path id="_x31_80609417" fill="none" stroke="#000000" stroke-width="80" d="M5520.755,3777.855
			c-8.863-64.351,5.427-120.679,30.495-186.29c42.349-110.889,104.04-225.09,144.053-340.725
			c7.981-23.068,38.392-71.438,17.397-94.195c-15.98-17.33-61.531-5.562-81.046-0.422
			c-218.319,57.485-304.411,305.203-321.909,512.832c-6.136,72.75-7.094,145.627-9.197,218.563
			c-7.265,252.68,23.199,504.524,70.578,751.884c17.296,90.251,33.844,181.289,55.641,270.514
			c16.268,66.644,39.076,147.854,97.732,187.639c91.971,62.368,237.003-36.73,227.518-147.102
			c-3.076-35.76-25.043-64.355-44.014-92.75c-23.551-35.226-43.236-71.635-56.864-112.281
			c-15.599-46.536-9.649-94.528-18.417-142.899c-8.232-45.371-8.434-88.273-8.371-133.491c0.139-99.639,1.074-230.468-1.238-330.086
			c-1.994-85.947-7.455-139.543-43.642-218.596C5560.136,3878.203,5526.696,3820.978,5520.755,3777.855z"/>
		<path id="_x31_80609416" fill="none" stroke="#000000" stroke-width="80" d="M5586.034,3131.454
			c-0.196,2.293-1.508,5.566-4.273,10.068c-8.028,13.085-27.638,18.597-40.027,25.371
			c-79.011,43.204-145.929,117.646-193.268,202.788c-66.747,120.024-61.607,248.392-86.753,380.169
			c-20.349,106.632-2.649,205.73,7.117,311.847c8.254,89.784,8.153,180.23,18.659,269.82
			c9.033,76.991,16.781,154.153,27.053,230.981c8.754,65.422,21.244,126.187,44.989,186.772
			c13.028,33.265,15.185,74.396,22.265,109.644c12.031,59.86,20.325,121.238,46.747,175.722
			c24.539,50.591,65.71,107.586,119.476,122.063c5.508,1.479,23.189,4.051,36.008,7.785c27.682-8.574,65.684-37.297,51.051-55.349
			c-37.266,12.502-77.378,11.032-110.578-11.481c-58.654-39.783-81.465-120.994-97.732-187.638
			c-21.797-89.225-38.345-180.263-55.64-270.514c-47.38-247.358-77.845-499.204-70.579-751.884
			c2.104-72.938,3.062-145.813,9.198-218.563c16.835-199.758,97.161-436.616,297.646-505.481
			C5607.899,3146.847,5599.877,3131.768,5586.034,3131.454z"/>
		<path id="_x31_80609415" fill="none" stroke="#000000" stroke-width="80" d="M5348.466,3369.682
			c47.339-85.142,114.257-159.584,193.268-202.788c12.39-6.774,31.999-12.286,40.027-25.371
			c20.146-32.811-36.477-0.642-44.887,4.266c-34.592,20.191-68.498,38.991-99.772,64.76
			c-146.771,120.885-210.813,342.293-223.515,529.728c-4.189,61.675-3.162,124.903,0.802,186.578
			c2.507,39.117,11.853,77.085,14.018,116.453c2.422,44.063,1.324,88.255,3.784,132.313c6.906,123.82,18.494,244.414,36.142,367.121
			c12.281,85.459,32.559,169.377,54.286,252.688c19.375,74.292,29.842,155.64,60.93,225.397
			c18.846,42.263,29.561,85.312,60.617,120.783c28.978,33.069,93.021,60.369,135.532,51.082
			c12.227-2.674,28.222-7.891,17.765-21.746c-5.568-7.365-41.188-12.029-49.442-14.25c-53.765-14.477-94.937-71.472-119.476-122.062
			c-26.422-54.482-34.717-115.86-46.748-175.721c-7.078-35.249-9.235-76.379-22.264-109.645
			c-23.744-60.587-36.236-121.352-44.989-186.771c-10.271-76.829-18.021-153.991-27.054-230.982
			c-10.504-89.59-10.404-180.035-18.658-269.82c-9.766-106.115-27.466-205.215-7.117-311.847
			C5286.86,3618.071,5281.719,3489.706,5348.466,3369.682z"/>
		<path id="_x31_80609414" fill="none" stroke="#000000" stroke-width="80" d="M5600.754,5177.88
			c1.29,8.793-11.126,12.643-21.057,14.814c-42.511,9.286-106.555-18.014-135.532-51.082
			c-31.055-35.473-41.771-78.521-60.617-120.783c-31.088-69.76-41.553-151.105-60.93-225.398
			c-21.726-83.312-42.005-167.229-54.286-252.688c-17.647-122.708-29.233-243.301-36.142-367.121
			c-2.46-44.061-1.362-88.25-3.784-132.314c-2.165-39.367-11.511-77.336-14.018-116.453c-3.964-61.675-4.991-124.902-0.802-186.578
			c12.701-187.434,76.744-408.843,223.515-529.728c31.274-25.769,65.181-44.568,99.772-64.759
			c7.164-4.18,49.289-28.125,49.182-14.866c54.128-28.961,83.932-104.459,7.809-136.452
			c-42.928-18.042-154.287-2.812-200.889,31.271c-29.334,49.846-63.356,96.262-104.449,136.955
			c-62.385,61.779-125.479,98.336-158.468,185.182c-63.062,166.033-93.153,346.482-109.227,523.409
			c-5.833,64.179-16.19,129.47-14.882,193.948c1.409,69.476,12.818,138.158,18.463,207.289c3.521,43.131,0.679,86.357-2.298,129.416
			c-2.655,38.523-12.778,87.823-2.218,125.41c21.08,75.057,50.408,152.165,83.481,222.691
			c21.353,45.529,51.818,85.893,70.71,132.695c17.646,43.752,22.49,91.168,28.689,137.754
			c10.738,80.789,36.304,160.432,68.467,234.627c25.698,59.264,72.664,128.711,134.848,148.508
			c54.014,17.192,95.535-7.703,143.818-29.217c41.687-18.582,80.034-43.838,118.522-68.66
			C5696.657,5251.787,5664.938,5186.403,5600.754,5177.88z"/>
		<path id="_x31_80609418" fill="none" stroke="#000000" stroke-width="80" d="M6037.03,3004.546
			c-31.102-10.882-62.112-16.674-94.071-24.295c-32.849-7.83-178.411-65.515-164.79,17.118
			c10.894,66.082-13.332,131.856-39.094,190.738c-25.924,59.235-43.625,125.126-71.021,184.755
			c-13.27,28.869-75.771,118.324-40.37,150.875c17.841,16.393,61.653-13.247,79.081-19.607
			c107.547-39.242,218.143-4.724,328.219-19.887c59.83-8.242,125.19-31.097,183.129-49.6c30.729-9.811,77.811-28.18,91.322-62.146
			c16.954-42.595-24.98-69.523-41.318-103.292c-18.185-37.586-14.322-77.166-34.078-114.691
			C6192.281,3075.227,6091.729,3023.69,6037.03,3004.546z"/>
		<path id="_x31_80609419" fill="none" stroke="#000000" stroke-width="80" d="M5941.681,3258.139
			c-21.453-3.397-42.005-9.218-58.771-21.084c-37.199-26.341-70.834-62.373-95.287-101.611c-12.238-19.638-14.006-45.25-9.27-68.146
			c2.605-12.592,4.942-25.502,23.552-28.733c64.536-11.202,103.075,60.055,160.741,74.13c35.488,8.657,70.688,6.51,105.217,16.727
			c51.326,15.183,105.714-4.64,138.834,47.591c19.273,30.387,22.256,65.725-13.169,85.832
			C6116.54,3306.537,6022.157,3270.874,5941.681,3258.139z"/>
		<path id="_x31_80609421" fill="none" stroke="#000000" stroke-width="80" d="M5659.169,3389.698
			c-15.629,28.954-64.199,103.98-31.484,134.04c17.842,16.394,61.654-13.247,79.082-19.606
			c107.539-39.241,221.002-3.312,337.832-21.338c-0.213-0.041-0.422-0.082-0.634-0.123c-4.53-0.836-32.231-5.947-53.247-9.825
			c-8.297-1.502-16.416-2.985-24.287-4.482c-37.301-7.09-81.512-10.302-124.326-18.266c-11.193-1.925-22.326-4.242-33.354-7.224
			c-19.558-5.284-40.89-12.356-61.419-24.813c-19.427-11.445-36.461-26.373-49.731-46.208c-6.095-9.107-12.537-19.211-16.327-28.305
			c-0.006-0.014-0.013-0.026-0.02-0.04C5673.824,3361.093,5661.753,3384.917,5659.169,3389.698z"/>
		<path id="_x31_80609420" fill="none" stroke="#000000" stroke-width="80" d="M6218.112,3434.644
			c30.729-9.811,77.811-28.18,91.322-62.146c10.102-25.375-5.512-76.11-33.461-82.377c-29.095-6.521-64.745,22.886-90.365,33.195
			c-42.489,17.111-83.918,24.692-129.537,19.753c-56.435-6.107-106.213-30.289-156.457-56.061
			c-40.697-20.875-61.949-51.809-84.501-91.773c-6.293-11.137-13.606-38.971-23.955-46.251
			c-48.22-33.95-87.749,134.616-95.708,164.251l3.186,2.589c27.651-0.17,72.641,30.837,97.404,43.289
			c37.053,18.621,72.773,39.445,113.215,49.121c41.102,9.838,84.742,8.454,126.881,12.927
			c57.189,6.067,116.492,7.025,172.981,18.017L6218.112,3434.644z"/>
		<path id="_x31_80609422" fill="none" stroke="#000000" stroke-width="80" d="M5628.563,3863.714
			c34.926-38.783,103.698-24.713,147.532-17.532c44.606,7.312,118.931,26.511,123.168,85.647
			c3.925,54.926-58.157,112.59-85.07,155.623c-22.546,36.057-44.358,72.779-61.335,112.11
			c-34.016,78.813-55.633,177.986-52.02,263.456c2.156,50.416,5.287,100.926,3.598,151.419c-0.303,9.132-0.289,18.233-0.795,27.366
			c-1.184,21.315,1.014,40.558-13.619,57.17c-41.142,46.723,20.168,115.945,46.568,153.326c36.274,51.36,85,92.41,144.676,110.312
			c169.914,50.984,280.332-158.14,354.779-293.323c95.264-172.989,165.016-349.713,211.04-543.95
			c26.392-111.425,42.505-226.147,49.825-340.675c4.75-74.333-7.242-151.787-26.127-225.646
			c-21.033-82.325-33.145-146.398-120.932-203.385c7.242,3.368-68.584,63.731-77.282,69.775
			c-35.192,24.465-92.548,38.564-137.31,50.188c-114.008,29.616-184.982,31.682-302.262,23.39
			c-81.533-5.763-164.143,29.584-222.129,65.016c-58.92,36.009-74.361,106.304-71.723,168.468
			c1.48,34.648,3.514,131.446,42.879,146.994C5603.028,3887.757,5628.563,3863.714,5628.563,3863.714z"/>
		<path id="_x31_80609423" fill="none" stroke="#000000" stroke-width="80" d="M6204.174,3532.216
			c-38.585-20.14-83.52-33.096-128.162-42.937c-48.673,7.002-76.153,15.428-148.093,12.901
			c-41.746,3.151-100.899-6.043-122.861-4.213c-66.796,5.562-98.074,19.877-97.049,19.8c95.881-7.183,217.188,5.518,306.041,43.957
			c0.012,0.004,0.021,0.009,0.031,0.014c58.133,25.17,128.998,42.728,175.459,96.021c108.387,124.332,41.04,331.268-10.09,465.947
			c-53.565,141.096-99.384,299.504-199.465,413.02c-58.516,66.369-117.191,107.087-198.058,130.397
			c-24.627,7.1-67.819,20.529-99.376,42.532c-19.83,36.835,10.947,83.809,36.591,118.859c17.182-10.754,74.513,38.404,102.419,44.32
			c31.469,6.678,97.327,8.961,154.674-43.22c62.649-57.012,114.178-149.397,158.311-222.079
			c43.68-71.91,83.738-152.956,111.75-233.012c50.719-144.981,94.836-305.491,114.646-390.397
			C6402.878,3804.409,6412.284,3640.832,6204.174,3532.216z"/>
		<path id="_x31_80609424" fill="none" stroke="#000000" stroke-width="80" d="M5970.157,4315.285
			c76.802-133.885,175.835-295.96,195.664-453.565c32.823-260.9-318.688-308.497-494.627-300.068
			c-11.153,0.534-37.308,2.761-67.236,6.913c-76.186,53.82-82.228,185.752-42.787,265.108c19.477,39.178,39.521,38.235,65.68,25.927
			c5.888-2.772,12.093-6.125,18.674-9.729c39.554-21.629,88.777-10.531,130.573-3.688c44.606,7.312,118.931,26.511,123.167,85.647
			c3.924,54.926-58.157,112.59-85.07,155.623c-22.545,36.057-44.357,72.779-61.335,112.11
			c-34.015,78.813-55.632,177.986-52.021,263.456c2.157,50.416,5.289,100.926,3.598,151.419c-0.302,9.132-0.288,18.233-0.794,27.366
			c-0.192,3.479-0.297,6.9-0.397,10.268c17.564-27.23,43.998-52.549,62.018-75.732
			C5831.64,4490.927,5916.013,4409.673,5970.157,4315.285z"/>
		<path id="_x31_80609428" fill="none" stroke="#000000" stroke-width="80" d="M5770.374,3938.786
			c-10.24-15.154-28.627-18.971-45.05-21.759c-15.156-2.577-129.288-17.2-96.76-53.313c34.927-38.783,103.698-24.713,147.533-17.532
			c44.606,7.312,118.931,26.511,123.167,85.647c3.924,54.926-58.157,112.59-85.07,155.623
			c-22.545,36.057-44.357,72.779-61.335,112.11c-34.015,78.813-55.632,177.986-52.021,263.456
			c2.157,50.416,5.289,100.926,3.598,151.419c-0.302,9.132-0.288,18.233-0.794,27.366c-0.901,16.274,1.808,47.165-13.978,57.048
			c-24.507,15.346-32.582-16.259-38.424-33.755c-11.245-33.688-19.166-66.082-23.223-101.615
			c-4.033-35.277-5.38-70.826-6.15-106.322c-0.975-44.985-0.819-89.037,0.639-134.088c1.525-47.207,0.1-93.607,1.509-140.688
			c0.22-7.338,3.481-15.472,2.01-22.644c11.034,34.885,15.59,49.224,26.134,52.957c15.66,5.539,22.654-16.754,28.2-28.338
			c8.222-17.154,13.86-34.209,19.024-52.866c7.99-28.869,16.159-58.046,32.396-83.259c11.853-18.409,21.977-39.604,31.354-59.498
			C5763.94,3987.011,5779.655,3952.532,5770.374,3938.786z"/>
		<path id="_x31_80609429" fill="none" stroke="#000000" stroke-width="80" d="M5116.384,5282.886
			c-29.873-65.158-55.346-132.681-79.58-200.293c-13.161-36.738-25.729-73.699-37.808-110.84
			c-10.505-32.304-16.548-75.116-32.917-104.474c-26.68-47.847-29.948-93.506-51.759-143.926
			c-20.371-47.084-29.726-110.171-32.311-161.496c-3.646-72.647,8.435-145.351,12.881-217.683
			c4.742-77.297,11.72-154.418,16.852-231.689c4.392-66.184,6.073-132.518,11.837-198.595c5.42-62.23,19.048-123.086,28.244-184.936
			c21.788-146.401,10.405-307.663,69.344-447.157c-27.629,62.242-49.506,127.862-70.596,189.655
			c-37.34,109.448-28.971,224.964-39.328,340.533c-15.015,167.677-30.364,345.851-37.536,513.274
			c-4.594,107.383-7.826,216.673-17.21,323.678c-16.245,185.539-24.623,400.619,94.073,553.531
			c83.181,107.158,177.397,192.929,311.79,228.237C5195.058,5406.468,5150.413,5357.087,5116.384,5282.886z"/>
		<path id="_x31_80609430" fill="none" stroke="#000000" stroke-width="80" d="M6204.174,3532.216
			c208.11,108.616,198.704,272.193,156.769,451.912c-19.811,84.906-63.927,245.416-114.646,390.397
			c-28.012,80.056-68.07,161.103-111.75,233.012c-44.131,72.683-95.661,165.067-158.31,222.079
			c-57.347,52.182-123.205,49.896-154.675,43.221c-34.615-7.338-114.522-81.237-106.891-24.754
			c6.65,49.3,81.332,112.406,124.91,122.83c56.841,13.592,122.146,10.041,173.66-20.715
			c117.254-70.004,180.154-199.802,242.969-319.44c73.389-139.782,134.115-292.608,176.043-445.707
			c68.164-248.947,101.463-682.726-223.135-745.874c-56.49-10.991-115.79-11.949-172.981-18.016
			c-42.138-4.474-85.778-3.09-126.88-12.928c-40.44-9.676-76.162-30.5-113.215-49.121c-24.765-12.451-69.752-43.459-97.405-43.289
			c-36.134,0.219-17.319,31.693-1.035,56.029c56.591,84.582,181.603,79.93,268.83,96.51
			C6039.29,3482.214,6132.646,3494.882,6204.174,3532.216z"/>
		<path id="_x31_80609431" fill="none" stroke="#000000" stroke-width="80" d="M5781.245,2943.419
			c-17.842-1.817-51.576-9.821-66.139,5.561c-13.822,14.595,1.262,33.966,12.522,44.561c36.056,33.916,87.951,42.168,134.007,50.666
			c52.145,9.623,102.623,30.164,155.601,34.315c21.22,1.664,58.538,12.415,77.734-2.09c44.412-33.573-79.051-80.458-96.168-85.642
			c-83.737-25.357-168.536-41.966-255.351-50.042"/>
		<path id="_x31_80609427" fill="none" stroke="#000000" stroke-width="80" d="M5611.876,4010.757
			c-2.967-15.265-6.893-30.41-12.344-45.469c-6.953-19.201-28.635-54.596-10.73-71.914c17.365-16.781,66.512,7.307,84.314,13.09
			c30.908,10.054,114.14,11.722,100.256,56.243c-9.875,31.649-29.404,60.948-44.467,90.044
			c-17.367,33.528-26.664,70.741-38.719,106.494c-7.874,23.365-27.521,84.451-52.099,37.501
			c-12.444-23.767-12.148-57.664-14.585-83.871C5620.287,4078.154,5618.37,4044.181,5611.876,4010.757z"/>
	</g>
</g>
</svg>
