<?xml version="1.0" encoding="utf-8"?>
<!-- Generator: Adobe Illustrator 16.0.0, SVG Export Plug-In . SVG Version: 6.00 Build 0)  -->
<!DOCTYPE svg PUBLIC "-//W3C//DTD SVG 1.1//EN" "http://www.w3.org/Graphics/SVG/1.1/DTD/svg11.dtd">
<svg version="1.1" id="Layer_1" xmlns="http://www.w3.org/2000/svg" xmlns:xlink="http://www.w3.org/1999/xlink" x="0px" y="0px"
	 width="9744.01px" height="6823.46px" viewBox="0 0 9744.01 6823.46" enable-background="new 0 0 9744.01 6823.46"
	 xml:space="preserve">
<g transform="scale(1.0)">
	<g id="_x31_80608862" transform=" scale(1.0, 1.0)">
		<path id="_x31_80608864" fill="none" stroke="#000000" stroke-width="80" d="M6523.725,2972.374
			c64.646,153.514,101.697,320.826,102.629,500.559c0.412,80.587-7.896,165.745-31.905,239.821
			c-23.706,73.098-52.87,122.087-42.836,207.092c24.47,207.207-1.424,396.252-74.267,580.321
			c-117.52,296.948-266.875,518.978-501.742,695.593c-100.71,75.732-210.517,101.387-333.307,62.581
			c-132.553-41.912-241.504-136.753-348.732-236.733c-106.625-99.401-221.447-207.461-287.417-349.273
			c-87.487-188.076-85.868-437.486-104.621-642.125c-12.256-133.744,26.581-263.913,9.407-396.995
			c-29.781-230.802-31.565-489.503,16.466-710.803c36.495-168.133,69.86-344.764,154.901-486.805
			c120.091-200.604,336.578-239.904,542.878-207.643c206.467,32.287,436.729,126.16,601.107,287.727
			C6353.633,2640.862,6451.082,2799.861,6523.725,2972.374z"/>
		<path id="_x31_80608865" fill="none" stroke="#000000" stroke-width="80" d="M6523.715,2972.358
			c-72.637-172.507-170.085-331.509-297.432-456.671c-164.376-161.565-394.635-255.438-601.098-287.727
			c-206.299-32.269-422.784,7.041-542.872,207.635c-85.04,142.044-118.411,318.671-154.901,486.793
			c-48.037,221.288-46.26,479.993-16.478,710.786c17.173,133.078-21.667,263.247-9.409,396.986
			c18.751,204.636,17.139,454.046,104.619,642.114c65.971,141.816,180.787,249.872,287.408,349.269
			c107.229,99.979,216.174,194.822,348.727,236.729c122.787,38.811,232.591,13.152,333.311-62.574
			c234.864-176.613,384.213-398.635,501.732-695.58c72.846-184.064,98.742-373.103,74.275-580.305
			c-10.04-85.008,19.126-133.998,42.832-207.09c24.01-74.072,32.315-159.238,31.902-239.82
			C6625.406,3293.186,6588.363,3125.868,6523.715,2972.358z M5772.946,3327.736c-2.802,20.473-7.808,39.03-13.038,58.54
			c-6.11,22.803-10.835,45.214-19.927,66.569c-27.507,64.634-42.068,135.639-49.97,208.229c-1.643,15.132-4.309,30.051-5.291,45.32
			c-4.918,76.232-12.201,136.592-17.821,205.458c-0.724,8.932-0.585,44.049-13.413,41.825c-17.828-3.083-6.51-65.335-5.363-77.76
			c4.936-53.382,14.449-105.612,21.249-158.535c4.157-32.425,5.161-65.3,8.649-97.783c0.023-0.272,0.057-0.544,0.084-0.817
			c4.707-48.636,9.719-96.749,5.627-146.439c-4.104-49.91-17.042-98.429-30.83-146.435c-11.578-40.302-25.699-78.806-28.541-121.021
			c-0.692-10.225-6.098-37.85,3.805-43.197c12.148-6.546,29.631,16.05,39.885,21.471c8.086,4.281,15.594,9.578,23.902,13.074
			c16.277,6.844,34.002,15.178,49.477,24.396c15.1,9,28.648,23.449,33.502,42.894
			C5780.129,3284.378,5775.723,3307.426,5772.946,3327.736z"/>
		<path id="_x31_80608866" fill="none" stroke="#000000" stroke-width="80" d="M6523.715,2972.358
			c-72.637-172.507-170.085-331.509-297.432-456.671c-164.376-161.565-394.635-255.438-601.098-287.727
			c-206.299-32.269-422.784,7.041-542.872,207.635c-85.04,142.044-118.411,318.671-154.901,486.793
			c-48.037,221.288-46.26,479.993-16.478,710.786c17.173,133.078-21.667,263.247-9.409,396.986
			c18.751,204.636,17.139,454.046,104.619,642.114c65.971,141.816,180.787,249.872,287.408,349.269
			c107.229,99.979,216.174,194.822,348.727,236.729c122.787,38.811,232.591,13.152,333.311-62.574
			c234.864-176.613,384.213-398.635,501.732-695.58c72.846-184.064,98.742-373.103,74.275-580.305
			c-10.04-85.008,19.126-133.998,42.832-207.09c24.01-74.072,32.315-159.238,31.902-239.82
			C6625.406,3293.186,6588.363,3125.868,6523.715,2972.358z M5772.946,3327.736c-2.802,20.473-7.808,39.03-13.038,58.54
			c-6.11,22.803-10.835,45.214-19.927,66.569c-27.507,64.634-42.068,135.639-49.97,208.229c-1.643,15.132-4.309,30.051-5.291,45.32
			c-4.918,76.232-12.201,136.592-17.821,205.458c-0.724,8.932-0.585,44.049-13.413,41.825c-17.828-3.083-6.51-65.335-5.363-77.76
			c4.936-53.382,14.449-105.612,21.249-158.535c4.157-32.425,5.161-65.3,8.649-97.783c0.023-0.272,0.057-0.544,0.084-0.817
			c4.707-48.636,9.719-96.749,5.627-146.439c-4.104-49.91-17.042-98.429-30.83-146.435c-11.578-40.302-25.699-78.806-28.541-121.021
			c-0.692-10.225-6.098-37.85,3.805-43.197c12.148-6.546,29.631,16.05,39.885,21.471c8.086,4.281,15.594,9.578,23.902,13.074
			c16.277,6.844,34.002,15.178,49.477,24.396c15.1,9,28.648,23.449,33.502,42.894
			C5780.129,3284.378,5775.723,3307.426,5772.946,3327.736z"/>
		<path id="_x31_80608867" fill="none" stroke="#000000" stroke-width="80" d="M6523.715,2972.358
			c-72.637-172.507-170.085-331.509-297.432-456.671c-164.376-161.565-394.635-255.438-601.098-287.727
			c-206.299-32.269-422.784,7.041-542.872,207.635c-85.04,142.044-118.411,318.671-154.901,486.793
			c-48.037,221.288-46.26,479.993-16.478,710.786c17.173,133.078-21.667,263.247-9.409,396.986
			c18.751,204.636,17.139,454.046,104.619,642.114c65.971,141.816,180.787,249.872,287.408,349.269
			c107.229,99.979,216.174,194.822,348.727,236.729c122.787,38.811,232.591,13.152,333.311-62.574
			c234.864-176.613,384.213-398.635,501.732-695.58c72.846-184.064,98.742-373.103,74.275-580.305
			c-10.04-85.008,19.126-133.998,42.832-207.09c24.01-74.072,32.315-159.238,31.902-239.82
			C6625.406,3293.186,6588.363,3125.868,6523.715,2972.358z M5772.946,3327.736c-2.802,20.473-7.808,39.03-13.038,58.54
			c-6.11,22.803-10.835,45.214-19.927,66.569c-27.507,64.634-42.068,135.639-49.97,208.229c-1.643,15.132-4.309,30.051-5.291,45.32
			c-4.918,76.232-12.201,136.592-17.821,205.458c-0.724,8.932-0.585,44.049-13.413,41.825c-17.828-3.083-6.51-65.335-5.363-77.76
			c4.936-53.382,14.449-105.612,21.249-158.535c4.157-32.425,5.161-65.3,8.649-97.783c0.023-0.272,0.057-0.544,0.084-0.817
			c4.707-48.636,9.719-96.749,5.627-146.439c-4.104-49.91-17.042-98.429-30.83-146.435c-11.578-40.302-25.699-78.806-28.541-121.021
			c-0.692-10.225-6.098-37.85,3.805-43.197c12.148-6.546,29.631,16.05,39.885,21.471c8.086,4.281,15.594,9.578,23.902,13.074
			c16.277,6.844,34.002,15.178,49.477,24.396c15.1,9,28.648,23.449,33.502,42.894
			C5780.129,3284.378,5775.723,3307.426,5772.946,3327.736z M5852.725,2959.839c1.375,23.002,4.217,48.925,0.609,71.352
			c-8.141,50.577-33.255,131.353-87.16,132.537c-36.096,0.789-68.077-29.089-90.454-61.541
			c-29.682-43.037-42.243-91.256-47.196-143.951c-3.166-33.734-16.701-66.024-18.21-100.005
			c-1.573-35.544,22.9-70.189,49.513-82.047c33.342-14.852,50.157-14.455,81.068-7.656c30.223,6.64,58.869,16.772,78.057,48.436
			c11.65,19.224,19.131,47.257,24.25,69.375C5848.797,2910.503,5851.264,2935.241,5852.725,2959.839z"/>
		<path id="_x31_80608868" fill="none" stroke="#000000" stroke-width="80" d="M6258.844,4787.107
			c90.457-201.316,126.638-401.744,134.666-633.078c2.998-86.521,8.392-171.857,34.309-251.987
			c25.4-78.524,63.798-149.631,92.65-226.183c61.168-162.356,69.679-321.945,27.262-499.548
			c-15.494-64.92-33.01-129.586-53.435-193.145c-19.921-61.942-42.603-122.837-68.894-181.864
			c-42.266-94.895-94.757-173.667-160.608-245.651c-2.419-2.633-4.835-5.27-7.274-7.875c2.443,2.616,9.688,10.5,7.274,7.875
			c-19.273-20.952-19.273-20.952-38.511-39.966c-164.002-162.095-394.635-255.434-601.096-287.723
			c-206.299-32.266-432.646-0.923-542.873,207.639c-47.654,90.171-48.679,93.327-64.312,136.679
			c-12.424,34.45-13.041,39.691-18.906,55.533c-50.713,179.635-57.754,388.684-46.492,570.792
			c15.006,242.414,41.113,485.888,65.379,728.002c13.659,136.307,30.047,272.941,60.117,407.111
			c13.82,61.654,28.633,123.398,55.414,180.005c59.141,124.997,123.855,248.662,205.17,357.053
			c54.791,73.029,108.484,148.191,172.801,210.337c43.966,42.491,92.219,87.918,144.653,118.842
			c30.943,18.553,63.351,32.123,97.198,37.09c98.38,14.441,195.84-41.728,278.267-90.548c0.257,0.675,0.501,1.21,0.481,1.204
			c0.485-0.412,0.959-0.832,1.442-1.244c0.241,0.96,0.763,2.167,0.916,2.541c1.909-1.602,3.821-3.195,5.72-4.799
			C6142.611,5053.924,6199.771,4918.562,6258.844,4787.107z M6025.652,4924.41c-33.076,50.996-84.883,123.634-140.016,140.938
			c-40.112,12.606-57.605-41.384-92.607-38.608c-37.156,2.962-43.619,57.867-85.361,59.951
			c-94.043,4.707-176.936-123.438-210.978-215.984c-16.478-44.788-37.288-84.041-60.081-124.761
			c-27.062-48.351-55.904-99.218-88.935-142.457c-54.957-71.95-65.134-149.826-91.58-235.311
			c-11.353-36.704-39.315-57.28-49.571-95.646c-11.189-41.823-4.564-86.181-9.012-128.625
			c-8.307-79.436-36.373-160.959-34.004-240.144c0.848-28.456,11.064-42.037,18.791-65.163
			c19.969-59.784-11.047-139.255-7.601-204.134c1.519-28.601,12.182-57.055,11.874-85.996
			c-0.721-68.935-36.381-130.748-40.527-199.184c-3.465-57.241-4.203-114.914-15.575-171.252
			c-11.491-56.877-23.513-115.789-23.698-173.656c-0.246-75.785,15.428-151.547,20.959-226.741
			c2.302-31.194,18.898-58.091,28.103-86.267c20.292-62.132,12.19-134.05,40.56-191.168
			c28.332-57.049,57.234-121.539,104.412-160.29c47.662-39.15,99.782-82.476,157.156-94.512
			c35.571-7.467,83.98-13.928,120.777-5.156c33.588,8,81.342,10.56,113.346,20.951c37.496,12.174,72.4,27.586,108.192,45.556
			c33.489,16.815,55.856,31.094,92.476,52.976c54.991,32.861,104.371,80.188,154.359,122.428
			c184.728,156.12,343.254,391.562,380.584,655.005c10.086,71.196,12.908,152.366,2.848,222.266
			c-12.809,88.983-24.061,103.694-62.993,175.974c-18.677,34.666-40.987,89.589-51.437,105.962
			c-16.148,25.309-34.391,81.356-44,112.813c-16.252,53.165-30.537,61.332-48.932,112.233
			c-23.989,66.39-67.304,114.989-82.108,187.274c-11.629,56.779-16.519,115.852-16.336,175.082
			c0.156,49.029,13.853,96.527,14.4,144.695c0.247,21.5-5.845,42.23-7.665,63.949c-7.514,89.236,27.771,173.881-13.475,251.492
			C6078.854,4762.588,6071.229,4854.114,6025.652,4924.41z"/>
		<path id="_x31_80608872" fill="none" stroke="#000000" stroke-width="80" d="M5623.504,3132.836
			c-16.621-36.109-19.322-79.7-19.025-118.637c0.39-51.216-8.166-127.953,9.264-182.531c8.391-26.269,22.805-47.404,47.129-58.085
			c29.576-12.988,54.239-13.014,80.78-6.787c30.085,7.054,58.6,17.613,77.624,49.791c11.545,19.534,18.912,47.917,23.941,70.303
			c5.501,24.455,7.885,49.452,9.266,74.3l0.119-15.478c37.412,111.266,57.175,220.05,17.17,328.91
			c-48.662,132.432-123.888,238.335-144.956,386.782c-12.179,85.76-22.36,156.412-19.962,244.974
			c1.207,44.462,1.648,93.26,6.689,137.821c3.42,30.278,4.311,62.279,9.572,93.02c5.11,29.862,13.139,64.728,13.306,95.518
			c0.101,17.032,5.68,96.488-22.532,81.536c-33.043-17.507-36.086-57.168-44.958-92.188
			c-12.618-49.832-33.165-103.508-40.156-154.166c-1.39-10.084-3.694-27.438-2.077-37.232c2.549-15.492,7.779-19.869,15.405-32.128
			c3.989-6.406,24.021-36.312,23.048-54.695c-2.952,8.374-13.025,15.956-15.99,8.473c-8.556-21.604-3.309-47.479-1.285-68.979
			c5.08-53.822,14.712-106.432,21.647-159.766c4.232-32.679,5.337-65.851,8.911-98.599c0.025-0.274,0.057-0.551,0.082-0.819
			c4.842-49.035,9.98-97.543,6.051-147.742c-3.939-50.424-16.678-99.549-30.274-148.16c-11.409-40.813-25.362-79.844-28.069-122.488
			c-0.793-12.573-11.082-59.279,21.059-39.295C5633.661,3153.385,5625.002,3136.101,5623.504,3132.836z M5837.752,3991.239
			c6.105-127.946,47.426-243.732,115.084-337.847c97.677-135.893,237.061-245.08,268.426-433.034
			c13.894-83.229,1.695-186.902-34.91-265.708c-51.12-110.042-142.84-192.642-218.178-280.597
			c-57.727-67.396-140.592-171.928-225.828-213.455c-96.484-47.007-196.525-22.667-276.174,54.679
			c-49.432,48.006-72.027,113.816-96.14,182.441c-31.229,88.868-52.868,176.796-44.534,276.481
			c14.945,178.882,126.998,334.772,158.725,511.599c30.285,168.828-34.945,327.051-52.145,488.528
			c-12.479,117.119,5.281,249.4,38.385,364.739c46.291,161.332,143.775,386.202,293.697,443.252
			c59.518,22.649,114.787-8.352,148.477-59.824c43.695-66.76,51.58-159.056,34.582-240.945
			c-27.516-132.63-83.135-255.084-99.981-386.706C5842.758,4059.896,5836.018,4027.697,5837.752,3991.239z"/>
		<path id="_x31_80608871" fill="none" stroke="#000000" stroke-width="80" d="M5482.967,2433.024
			c-57.799,38.562-104.404,119.391-130.179,190.079c-35.07,96.187-74.994,200.548-72.484,309.975
			c3.087,134.644,54.022,243.962,100.965,365.869c35.905,93.281,73.132,188.671,75.917,289.181
			c1.738,62.915-16.668,117.293-27.957,177.112c-13.67,72.403-27.348,146.876-36.744,220.095
			c-15.226,118.649,8.4,221.665,40.031,338.433c49.207,181.637,269.051,669.839,462.127,504.866
			c111.949-95.657,97.631-305.311,63.475-447.595c-30.576-127.37-85.242-259.557-75.3-391.943
			c9.286-123.51,49.171-221.689,114.331-313.222c110.863-155.741,283.892-276.225,273.653-511.225
			c-6.628-152.104-86.304-277.8-172.065-391.13c-30.854-40.773-64.373-79.027-98.777-114.749
			C5863.008,2516.566,5678.356,2302.666,5482.967,2433.024z M5968.004,2674.122c73.789,88.704,162.928,161.575,214.562,270.006
			c36.983,77.651,52.936,188.168,39.243,270.777c-30.924,186.576-168.623,293.876-266.259,429.635
			c-67.63,94.021-108.765,209.213-114.505,336.044c-1.633,36.143,0.422,71.322,5.02,105.896
			c17.31,130.205,70.652,251.694,98.68,382.769c17.305,80.942,17.993,177.376-25.666,244.02
			c-33.666,51.388-95.106,90.8-154.92,69.052c-150.65-54.787-249.509-293.215-296.46-452.518
			c-33.572-113.883-46.072-245.109-33.905-361.287c16.78-160.179,81.785-317.684,50.873-484.596
			c-32.368-174.817-145.313-327.964-160.846-505.012c-8.669-98.665,12.789-186.026,43.871-274.433
			c23.995-68.267,46.479-133.721,95.954-181.854c84.87-82.563,186.077-106.128,285.538-57.081
			C5825.666,2503.25,5900.942,2593.502,5968.004,2674.122z"/>
		<path id="_x31_80608870" fill="none" stroke="#000000" stroke-width="80" d="M6087.357,3631.363
			c38.848-45.067,77.192-88.203,107.603-130.867c70.696-99.186,117.569-245.574,105.603-378.959
			c-8.771-97.775-58.047-185.308-104.975-268.482c-43.885-77.792-105.156-143.994-163.36-208.671
			c-178.189-198.006-245.864-272.603-444.434-279.584c-196.21-6.899-313.503,254.09-333.037,448.477
			c-6.609,65.708-7.354,138.595,2.509,205.333c11.925,80.725,49.916,167.132,79.721,242.766
			c52.73,133.813,102.779,245.023,89.332,392.918c-12.716,139.825-72.052,286.072-73.821,440.315
			c-0.635,55.246,20.744,108.803,35.925,167.961c26.33,102.594,58.806,210.892,103.787,293.896
			c50.45,93.102,95.548,227.125,169.566,298.355c78.648,75.697,189.26,62.238,261.555-0.096
			c39.652-34.176,73.565-88.886,87.342-144.905c63.523-258.312-114.595-484.706-96.212-730.501
			C5924.534,3844.754,6001.293,3731.219,6087.357,3631.363z M5882.817,3989.092c-9.942,132.389,44.724,264.575,75.302,391.947
			c34.156,142.282,48.473,351.936-63.475,447.593c-193.078,164.975-412.922-323.229-462.129-504.866
			c-31.631-116.768-55.257-219.783-40.031-338.433c9.396-73.219,23.074-147.691,36.744-220.097
			c11.291-59.817,29.695-114.193,27.959-177.11c-2.787-100.508-40.016-195.899-75.919-289.18
			c-46.942-121.907-97.878-231.225-100.965-365.869c-2.51-109.427,37.416-213.791,72.484-309.975
			c25.774-70.689,72.379-151.518,130.177-190.081c195.392-130.356,380.045,83.544,516.994,225.746
			c34.404,35.724,67.924,73.977,98.777,114.75c85.762,113.33,165.439,239.026,172.065,391.13
			c10.24,234.998-162.79,355.481-273.651,511.225C5931.99,3767.404,5892.105,3865.582,5882.817,3989.092z"/>
		<path id="_x31_80608869" fill="none" stroke="#000000" stroke-width="80" d="M5457.961,2245.403
			c-57.374,12.036-109.492,55.363-157.154,94.513c-47.178,38.749-76.082,103.24-104.412,160.288
			c-28.371,57.119-20.268,129.038-40.56,191.17c-9.206,28.174-25.803,55.071-28.103,86.266
			c-5.532,75.194-21.207,150.957-20.961,226.741c0.186,57.868,12.207,116.779,23.698,173.656
			c11.374,56.338,12.11,114.011,15.577,171.252c4.145,68.437,39.805,130.248,40.525,199.183
			c0.311,28.942-10.355,57.397-11.874,85.998c-3.443,64.879,27.569,144.35,7.601,204.132c-7.725,23.126-17.941,36.707-18.789,65.165
			c-2.368,79.185,25.697,160.706,34.004,240.144c4.441,42.444-2.18,86.802,9.012,128.625c10.256,38.365,38.219,58.941,49.571,95.646
			c26.444,85.482,36.623,163.356,91.58,235.309c33.03,43.239,61.873,94.106,88.933,142.457
			c22.793,40.722,43.605,79.973,60.081,124.761c34.044,92.549,116.937,220.693,210.978,215.984
			c41.744-2.083,48.207-56.989,85.361-59.951c35.002-2.775,52.495,51.215,92.607,38.61
			c55.133-17.305,106.941-89.942,140.018-140.938c45.577-70.298,53.201-161.822,92.35-235.502
			c41.244-77.615,5.957-162.258,13.474-251.496c1.821-21.719,7.913-42.449,7.665-63.949c-0.547-48.168-14.242-95.666-14.399-144.695
			c-0.186-59.229,4.706-118.301,16.336-175.081c14.803-72.285,58.116-120.886,82.104-187.273
			c18.395-50.903,32.68-59.071,48.935-112.235c9.608-31.456,27.851-87.505,43.999-112.813
			c10.449-16.374,32.762-71.294,51.437-105.962c38.935-72.28,50.185-86.992,62.993-175.973
			c10.059-69.902,7.236-151.07-2.849-222.266c-37.327-263.445-195.856-498.885-380.583-655.006
			c-49.988-42.238-99.367-89.566-154.359-122.427c-36.619-21.883-58.986-36.162-92.476-52.977
			c-35.79-17.97-70.696-33.381-108.192-45.556c-32.005-10.391-79.758-12.949-113.347-20.951
			C5541.943,2231.477,5493.534,2237.937,5457.961,2245.403z M6032.228,2644.384c58.206,64.677,119.476,130.879,163.362,208.671
			c46.926,83.173,96.201,170.707,104.973,268.481c11.967,133.384-34.906,279.773-105.603,378.959
			c-30.408,42.664-68.755,85.8-107.603,130.867c-86.064,99.855-162.823,213.389-172.897,347.957
			c-18.383,245.797,159.735,472.189,96.214,730.501c-13.778,56.02-47.689,110.731-87.342,144.907
			c-72.295,62.334-182.906,75.793-261.555,0.096c-74.02-71.23-119.116-205.255-169.568-298.355
			c-44.981-83.007-77.455-191.303-103.787-293.898c-15.179-59.156-36.558-112.715-35.924-167.959
			c1.769-154.245,61.106-300.49,73.822-440.316c13.447-147.896-36.604-259.105-89.334-392.918
			c-29.805-75.633-67.795-162.041-79.721-242.766c-9.863-66.738-9.118-139.625-2.509-205.334
			c19.534-194.386,136.827-455.376,333.039-448.476C5786.363,2371.781,5854.039,2446.377,6032.228,2644.384z"/>
		<path id="_x31_80608873" fill="none" stroke="#000000" stroke-width="80" d="M5628.525,2958.234
			c4.951,52.697,17.513,100.916,47.194,143.952c22.378,32.454,54.358,62.332,90.456,61.542c53.9-1.186,79.021-81.961,87.159-132.537
			c3.608-22.429,0.765-48.351-0.608-71.352c-1.462-24.598-3.928-49.336-9.523-73.501c-5.119-22.118-12.6-50.151-24.25-69.376
			c-19.188-31.663-47.834-41.796-78.057-48.434c-30.911-6.799-47.727-7.196-81.066,7.656
			c-26.615,11.858-51.088,46.501-49.513,82.046C5611.824,2892.212,5625.359,2924.502,5628.525,2958.234z"/>
		<path id="_x31_80608874" fill="none" stroke="#000000" stroke-width="80" d="M5628.525,2958.234
			c4.951,52.697,17.513,100.916,47.194,143.952c22.378,32.454,54.358,62.332,90.456,61.542c53.9-1.186,79.021-81.961,87.159-132.537
			c3.608-22.429,0.765-48.351-0.608-71.352c-1.462-24.598-3.928-49.336-9.523-73.501c-5.119-22.118-12.6-50.151-24.25-69.376
			c-19.188-31.663-47.834-41.796-78.057-48.434c-30.911-6.799-47.727-7.196-81.066,7.656
			c-26.615,11.858-51.088,46.501-49.513,82.046C5611.824,2892.212,5625.359,2924.502,5628.525,2958.234z"/>
		<path id="_x31_80608876" fill="none" stroke="#000000" stroke-width="80" d="M5668.006,3893.725
			c-0.278,2.428-1.832,59.146-13.199,77.318c-18.365,29.366-35.117,48.054-29.256,89.008
			c7.167,50.104,26.129,102.803,38.943,152.029c9.017,34.589,14.18,85.225,47.394,102.192c28.365,14.49,22.517-71.249,22.372-88.118
			c-0.264-30.504-7.924-59.408-13.145-88.936c-5.368-30.391-6.044-63.069-9.572-93.018c-5.188-44.09-5.185-87.324-6.525-131.359
			c-2.671-87.71,9.714-172.625,21.674-257.721c20.706-147.313,95.897-253.104,144.342-384.871
			c39.832-108.31,19.67-215.854-18.217-325.654c-2.23,24.53,5.195,49.637,1.778,74.057c-6.016,43.028-19.46,95.574-47.579,124.679
			c-66.035,68.26-149.719-44.465-165.896-116.974c-16.575-74.326-31.373-160.851,40.139-196.214
			c22.686-11.219,47.607-12.278,72.532-11.167c8.165,0.36,36.81,7.47,41.29-4.113c7.429-19.21-11.448-30.293-23.634-37.298
			c-19.025-10.926-44.897-11.947-64.917-11.679c-41.721,0.555-81.042,21.311-95.021,67.882
			c-17.146,57.131-7.26,121.443-7.545,181.542c-0.198,42,4.21,90.329,24.631,127.905c32.224,59.297,104.141,52.848,135.334,98.462
			c28.078,41.053,4.256,101.034-2.676,140.09c-9.926,55.918-37.32,104.31-50.967,158.67c-11.383,45.359-17.17,88.996-22.236,136.309
			c-5.259,48.996-7.746,97.854-12.618,141.9C5672.736,3843.019,5670.78,3869.369,5668.006,3893.725z"/>
		<path id="_x31_80608877" fill="none" stroke="#000000" stroke-width="80" d="M6032.084,5147.703
			c0.02,0.006-0.223-0.527-0.483-1.204c-82.425,48.821-179.882,104.989-278.262,90.55c-33.85-4.969-66.258-18.539-97.201-37.092
			c-52.435-30.924-100.688-76.351-144.653-118.842c-64.316-62.146-118.01-137.308-172.799-210.335
			c-81.318-108.391-146.029-232.058-205.172-357.053c-26.779-56.606-41.594-118.353-55.414-180.005
			c-30.069-134.172-46.457-270.807-60.117-407.113c-24.266-242.114-50.371-485.586-65.379-728.002
			c-11.262-182.107-4.221-391.156,46.492-570.791c-30.099,95.405-50.353,196.491-71.669,294.68
			c-48.032,221.284-46.248,479.976-16.466,710.762c17.17,133.071-21.665,263.234-9.414,396.972
			c18.75,204.628,17.131,454.03,104.62,642.085c65.962,141.809,180.786,249.859,287.402,349.253
			c107.229,99.976,216.175,194.808,348.726,236.719c122.795,38.806,232.6,13.146,333.309-62.584
			c20.241-15.218,39.834-30.786,58.841-46.698c-0.154-0.373-0.677-1.583-0.918-2.543
			C6033.045,5146.869,6032.57,5147.291,6032.084,5147.703z"/>
		<path id="_x31_80608878" fill="none" stroke="#000000" stroke-width="80" d="M6523.73,2972.437
			c-66.58-158.125-154.02-304.891-266.211-424.66c69.275,74.117,124.072,155.16,167.883,253.526
			c26.289,59.028,48.973,119.923,68.894,181.864c20.425,63.56,37.94,128.225,53.435,193.145
			c42.417,177.603,33.906,337.193-27.263,499.548c-28.852,76.552-67.251,147.658-92.651,226.183
			c-25.913,80.132-31.309,165.469-34.309,251.987c-8.026,231.334-44.206,431.762-134.664,633.08
			c-59.077,131.46-116.242,266.838-218.706,357.111c198.36-167.898,330.824-375.295,437.206-644.079
			c72.846-184.062,98.734-373.091,74.271-580.286c-10.04-85.004,19.126-133.992,42.832-207.088
			c24.01-74.068,32.319-159.221,31.905-239.807C6625.428,3293.245,6588.379,3125.939,6523.73,2972.437z"/>
		<path id="_x31_80608875" fill="none" stroke="#000000" stroke-width="80" d="M5678.104,3618.781
			c4.709-48.636,9.721-96.749,5.629-146.439c-4.104-49.91-17.042-98.428-30.832-146.433
			c-11.578-40.303-25.697-78.807-28.541-121.023c-0.69-10.224-6.096-37.85,3.809-43.196c12.146-6.546,29.629,16.05,39.883,21.472
			c8.086,4.279,15.594,9.577,23.902,13.072c16.277,6.844,34.003,15.179,49.477,24.396c15.1,9.001,28.648,23.449,33.502,42.894
			c5.197,20.854,0.789,43.901-1.985,64.213c-2.802,20.473-7.808,39.03-13.038,58.541c-6.11,22.803-10.835,45.212-19.927,66.567
			c-27.507,64.636-42.068,135.639-49.97,208.229c-1.643,15.132-4.311,30.051-5.291,45.32
			c-4.918,76.232-12.201,136.592-17.821,205.458c-0.726,8.932-0.585,44.049-13.413,41.825c-17.83-3.083-6.51-65.335-5.363-77.759
			c4.934-53.383,14.448-105.613,21.249-158.536c4.157-32.423,5.161-65.298,8.646-97.783
			C5678.043,3619.326,5678.078,3619.057,5678.104,3618.781z"/>
	</g>
</g>
</svg>
