<?xml version="1.0" encoding="utf-8"?>
<!-- Generator: Adobe Illustrator 16.0.0, SVG Export Plug-In . SVG Version: 6.00 Build 0)  -->
<!DOCTYPE svg PUBLIC "-//W3C//DTD SVG 1.1//EN" "http://www.w3.org/Graphics/SVG/1.1/DTD/svg11.dtd">
<svg version="1.1" id="Layer_1" xmlns="http://www.w3.org/2000/svg" xmlns:xlink="http://www.w3.org/1999/xlink" x="0px" y="0px"
	 width="9744px" height="6823.471px" viewBox="0 0 9744 6823.471" enable-background="new 0 0 9744 6823.471" xml:space="preserve">
<g transform="scale(1.0)">
	<g id="_x31_80639203" transform=" scale(1.0, 1.0)">
		<path id="_x31_80639205" fill="none" stroke="#010101" stroke-width="80" d="M4911.844,6347.662
			c99.746,0.299,209.591,18.336,310.524,8.918c117.261-10.93,233.456-58.977,346.837-88.947
			c272.046-71.887,535.507-138.763,726.082-360.673c126.972-147.849,255.756-284.169,381.653-431.163
			c47.618-55.593,104.371-112.586,146.259-172.007c43.343-61.489,73.135-138.717,104.811-206.837
			c62.739-134.943,73.674-263.723,50.549-409.123c-8.361-52.551-20.129-103.014-30.615-154.469
			c-37.408-183.596-39.061-361.172-53.982-546.174c-11.111-137.715-6.202-274.473-36.25-410.582
			c-12.053-54.586-33.746-100.641-17.734-158.939c18.102-65.921,50.708-127.631,44.561-197.014
			c-6.476-73.213-27.332-143.933-22.379-218.749c4.809-72.609,30.17-124.86,22.153-198.577
			c-8.536-78.43-10.121-153.811-33.746-229.821c30.544,98.3,55.483,207.821,64.974,312.737
			c13.571,150.115,38.793,191.239,63.807,319.583c82.752,424.616,133.633,843.782,344.174,1226.681
			c106.803,194.24,195.489,521.478,434.104,588.108c318.544,88.941,730.144-91.7,965.657-320.311
			c151.234-146.811,195.17-332.734,247.365-532.398c51.234-196.02,98.004-432.812,55.531-633.439
			c-20.039-94.624-94.373-159.159-91.314-264.684c5.711-196.754,189.662-274.938,167.322-483.435
			c-24.061-224.49-96.85-439.721-198.059-640.183c-105.49-208.946-245.75-338.029-387.883-516.963
			c-54.793-68.983-112.359-124.436-175.953-186.04c-135.252-131.034-237.406-273.818-386.316-391.738
			c-205.061-162.386-430.114-267.694-672.239-365.158c-218.849-88.093-415.146-193.792-651.359-228.725
			c-242.938-35.928-490.171-27.102-734.474-14.167c-145.597,7.707-317.6-11.758-439.505,85.592
			c-98.144,78.375-160.566,241.154-38.016,334.538l0.016,0.013c-61.521-46.841-125.662-34.251-183.426,3.919
			c-60.253,39.816-125.321,73.234-184.112,116.223c-40.564,29.665-107.121,85.786-126.383,134.147L4911.844,6347.662z"/>
		<path id="_x31_80639206" fill="none" stroke="#010101" stroke-width="80" d="M8934.861,3269.786
			c5.711-196.753,189.66-274.938,167.32-483.434c-24.061-224.49-96.85-439.721-198.061-640.183
			c-105.488-208.949-245.746-338.031-387.879-516.963c-54.793-68.984-112.361-124.438-175.951-186.04
			c-135.252-131.036-237.407-273.818-386.32-391.739c-205.059-162.384-430.11-267.694-672.237-365.158
			c-218.851-88.094-415.146-193.793-651.359-228.726c-242.94-35.929-490.171-27.102-734.474-14.167
			c-145.597,7.707-317.6-11.758-439.505,85.592c-98.146,78.374-160.568,241.154-38.018,334.538
			c17.264,13.145,36.104,25.171,55.315,36.977c78.24,48.083,140.512,105.162,215.669,158.321
			c115.325,81.573,230.104,164.577,335.712,258.927c79.76,71.25,164.523,139.485,227.108,227.565
			c62.556,88.04,108.911,195.7,160.112,294.244c54.788,105.461,126.928,192.342,196.47,287.378
			c55.308,75.6,119.011,149.171,159.886,234.266c27.412,57.055,56.585,130.836,81.911,212.322
			c30.544,98.299,55.485,207.82,64.976,312.737c13.569,150.116,38.793,191.238,63.805,319.582
			c82.752,424.617,133.631,843.781,344.174,1226.682c106.803,194.238,195.489,521.476,434.104,588.106
			c318.544,88.941,730.144-91.697,965.657-320.311c151.234-146.808,195.17-332.732,247.369-532.396
			c51.234-196.021,98.002-432.812,55.527-633.439C9006.139,3439.845,8931.803,3375.312,8934.861,3269.786z M8177.808,2815.034
			c-1.479,14.462-6.055,52.699-13.545,102.548c-3.118,1.22-5.175,3.523-5.714,7.063c-5.787,36.075-7.914,68.395-10.553,90.783
			c0,0.153-0.002,0.23-0.076,0.384c-1.848,10.305-3.774,20.691-5.848,31.15c-7.143,31.61-12.911,59.839-18.443,86.063
			c-0.002,0.077-0.002,0.231-0.078,0.385c-17.345,73.062-38.555,141.185-63.196,182.67c-16.629,27.886-34.824,43.764-54.497,40.931
			c-0.988-0.159-1.973-0.314-2.961-0.624c-0.078,0-0.15-0.079-0.15-0.079c-12.148-4.345-24.424-16.313-37.755-34.054
			c-11.89-15.814-24.681-36.169-38.983-59.686c-84.073-138.555-168.599-278.802-247.821-412.493
			c-60.531-102.155-99.884-230.03-164.439-333.354c-15.588-24.982-32.247-49.044-49.588-72.803
			c-16.126-23.752-33.696-47.124-52.786-70.039c-0.15-0.153-0.227-0.23-0.303-0.385c-33.396-43.508-67.558-87.787-99.881-136.369
			c-108.859-163.717-233.546-315.094-362.422-462.863c-51.521-59.034-107.994-113.152-169.188-161.132
			c-5.385-4.171-10.771-8.344-16.229-12.517c-15.547-11.747-33.827-24.346-51.877-38.252c-3.64-2.784-7.28-5.564-10.844-8.499
			c-7.204-5.717-14.256-11.741-21.002-17.92c-1.671-1.544-3.335-3.089-5.004-4.71c-1.972-1.852-3.942-3.781-5.837-5.713
			c-2.879-2.933-5.684-5.942-8.336-8.952c-1.517-1.697-3.029-3.396-4.393-5.094c-1.291-1.543-2.577-3.086-3.79-4.63
			c-2.874-3.702-5.603-7.406-8.177-11.261c-1.211-1.851-2.348-3.702-3.48-5.553c-0.002-0.077-0.077-0.153-0.154-0.23
			c-2.192-3.623-4.16-7.324-5.975-11.101c-2.49-5.164-4.607-10.482-6.34-15.951c-1.51-4.701-2.638-9.55-3.459-14.479
			c8.594-3.668,17.334-5.796,26.381-6.617c13.674-1.188,27.806,0.546,42.152,4.594c5.922,1.556,11.92,3.651,17.918,6.054
			c19.43,7.603,39.08,18.666,58.117,31.424c47.486,31.467,91.907,72.698,123.311,94.727
			c133.869,93.913,273.141,184.457,410.439,273.377c33.528,21.727,66.219,43.991,97.998,66.791
			c157.451,112.839,294.284,238.699,421.203,379.309c15.91,17.748,31.746,35.65,47.428,53.861
			c38.943,45.064,115.566,122.873,182.752,206.654c13.865,17.203,27.268,34.637,39.839,52.146
			c43.009,59.7,76.521,119.677,84.376,170.801C8178.469,2793.099,8178.895,2804.338,8177.808,2815.034z"/>
		<path id="_x31_80639275" fill="none" stroke="#010101" stroke-width="80" d="M8553.145,1674.759l-3.504,2.99l-92.043,78.454
			c-63.869-73.691-117.916-155.74-183.309-228.128c-67.133-74.315-151.395-135.216-213.816-210.906
			c-23.711-28.778-48.334-56.636-73.947-83.727l73.141-85.591l1.144-1.229c96.788,95.34,178.974,199.179,279.481,296.53
			c63.594,61.608,121.123,117.041,175.963,186.086C8528.602,1644.748,8540.869,1659.867,8553.145,1674.759z"/>
		<path id="_x31_80639274" fill="none" stroke="#010101" stroke-width="80" d="M8457.598,1756.203l-167.721,143.025
			c-75.6-91.813-143.381-181.14-237.026-257.076c-47.923-38.933-97.263-88.647-141.607-130.492
			c-31.077-29.263-60.337-56.75-90.28-84.47l165.562-193.749c25.613,27.091,50.236,54.949,73.947,83.728
			c62.422,75.688,146.682,136.589,213.816,210.905C8339.682,1600.462,8393.729,1682.509,8457.598,1756.203z"/>
		<path id="_x31_80639273" fill="none" stroke="#010101" stroke-width="80" d="M8289.877,1899.228l-71.104,60.582
			c-37.969-39.748-78.521-78.659-123.549-120.433c-116.285-108.098-236.907-213.438-369.195-301.112l94.934-111.075
			c29.943,27.718,59.203,55.206,90.28,84.47c44.345,41.847,93.685,91.558,141.607,130.491
			C8146.496,1718.087,8214.277,1807.414,8289.877,1899.228z"/>
		<path id="_x31_80639272" fill="none" stroke="#010101" stroke-width="80" d="M8218.773,1959.811l-259.686,221.326
			c-124.983-156.532-261.384-302.634-409.515-436.378l176.456-206.493c132.288,87.675,252.908,193.014,369.194,301.113
			C8140.253,1881.15,8180.805,1920.061,8218.773,1959.811z"/>
		<path id="_x31_80639271" fill="none" stroke="#010101" stroke-width="80" d="M7959.088,2181.135l-108.107,92.18
			c-74.027-83.189-130.741-162.17-218.922-236.627c-64.143-54.066-130.879-105.602-198.754-155.91l116.267-136.023
			C7697.704,1878.502,7834.106,2024.602,7959.088,2181.135z"/>
		<path id="_x31_80639270" fill="none" stroke="#010101" stroke-width="80" d="M7850.98,2273.315l-27.102,23.084l-1.676,1.534
			c-126.919-140.608-263.752-266.468-421.203-379.308l32.305-37.845c67.877,50.308,134.613,101.842,198.756,155.907
			C7720.239,2111.146,7776.953,2190.126,7850.98,2273.315z"/>
		<path id="_x31_80639281" fill="none" stroke="#010101" stroke-width="80" d="M8060.81,1146.624l-1.144,1.229l-73.141,85.591
			c-107.23-114.074-229.691-213.109-362.369-295.936c-100.441-62.718-216.244-86.544-323.18-133.889
			c-94.562-41.769-182.793-96.447-277.891-136.987c-147.773-63.095-339.973-164.033-498.721-181.83
			c-42.457-4.747-84.391-5.95-126.028-4.922l-16.606-44.996c83.186,3.408,166.133,10.43,248.612,22.688
			c236.274,34.885,432.565,140.608,651.393,228.699c242.123,97.473,467.21,202.745,672.255,365.138
			C7992.207,1081.691,8027.385,1113.659,8060.81,1146.624z"/>
		<path id="_x31_80639280" fill="none" stroke="#010101" stroke-width="80" d="M7986.525,1233.442l-165.562,193.748
			c-19.33-17.912-38.965-35.905-59.512-54.515c-177.086-160.616-371.654-257.483-588.506-343.181
			c-123.648-48.784-241.322-84.235-361.365-146.475c-108.433-56.203-209.259-116.305-320.777-152.891l-92.464-250.25
			c41.636-1.027,83.569,0.177,126.026,4.923c158.748,17.797,350.949,118.734,498.723,181.83
			c95.102,40.538,183.327,95.217,277.891,136.987c106.936,47.346,222.738,71.17,323.18,133.89
			C7756.834,1020.333,7879.295,1119.367,7986.525,1233.442z"/>
		<path id="_x31_80639279" fill="none" stroke="#010101" stroke-width="80" d="M7820.963,1427.19l-94.934,111.076
			c-10.164-6.727-20.33-13.301-30.571-19.797c-83.064-52.583-155.916-119.376-236.466-175.493
			c-77.134-53.645-163.699-74.456-245.034-120.032c-70.257-39.386-140.822-77.079-210.243-117.848
			c-145.892-85.636-283.885-169.866-432.45-250.354c-13.886-7.508-28.152-15.17-42.794-22.68l-37.668-101.934
			c111.521,36.586,212.345,96.689,320.775,152.891c120.043,62.24,237.719,97.691,361.365,146.475
			c216.854,85.698,411.42,182.565,588.508,343.181C7781.998,1391.285,7801.633,1409.276,7820.963,1427.19z"/>
		<path id="_x31_80639278" fill="none" stroke="#010101" stroke-width="80" d="M7726.029,1538.266l-176.456,206.491
			c-45.485-41.235-92.116-81.243-139.808-120.021c-105.323-85.669-225.53-142.598-336.801-218.665
			c-90.338-61.688-163.398-135.101-260.893-191.117c-20.713-11.914-95.045-62.777-185.553-117.542l-98.051-265.35
			c14.644,7.51,28.91,15.172,42.794,22.68c148.565,80.489,286.562,164.717,432.452,250.353
			c69.419,40.77,139.986,78.463,210.241,117.849c81.337,45.575,167.902,66.388,245.036,120.032
			c80.55,56.116,153.401,122.909,236.466,175.493C7705.699,1524.967,7715.865,1531.539,7726.029,1538.266z"/>
		<path id="_x31_80639277" fill="none" stroke="#010101" stroke-width="80" d="M7549.571,1744.757l-116.267,136.022
			c-78.189-58.111-157.751-114.456-236.098-171.183c-87.371-63.22-187.467-110.93-272.172-177.604
			c-40.946-32.141-120.958-91.487-187.109-133.016l-111.41-301.563c90.506,54.764,164.838,105.629,185.555,117.542
			c97.492,56.017,170.551,129.427,260.893,191.116c111.272,76.067,231.478,132.997,336.801,218.665
			C7457.457,1663.515,7504.088,1703.52,7549.571,1744.757z"/>
		<path id="_x31_80639276" fill="none" stroke="#010101" stroke-width="80" d="M7197.209,1709.596
			c78.345,56.728,157.906,113.073,236.096,171.184L7401,1918.624c-31.779-22.799-64.47-45.063-97.998-66.791
			c-137.299-88.921-276.57-179.463-410.439-273.375c-31.403-22.03-75.821-63.263-123.311-94.727l-31.324-84.754
			c66.149,41.529,146.161,100.877,187.109,133.017C7009.744,1598.666,7109.836,1646.377,7197.209,1709.596z"/>
		<path id="_x31_80639287" fill="none" stroke="#010101" stroke-width="80" d="M6381.732,434.884l16.606,44.994
			c-145.577,3.791-287.124,35.918-433.087,42.943c-101.742,4.924-217.811-34.986-316.883-3.04l-58.832-51.588l-0.527-2.232
			c98.674-24.562,208.82-17.454,306.92-22.622C6057.242,434.823,6219.92,428.083,6381.732,434.884z"/>
		<path id="_x31_80639286" fill="none" stroke="#010101" stroke-width="80" d="M6398.339,479.878l92.464,250.25
			c-44.258-14.602-90.273-25.363-139.034-30.744c-94.411-10.366-229.938-48.335-362.698-67.13
			c-76.325-10.778-151.609-15.313-217.654-4.507l-123.047-107.964c99.072-31.946,215.141,7.964,316.883,3.039
			C6111.215,515.797,6252.762,483.671,6398.339,479.878z"/>
		<path id="_x31_80639285" fill="none" stroke="#010101" stroke-width="80" d="M6490.803,730.129l37.668,101.933
			c-46.668-24.229-96.527-47.392-145.416-61.778c-67.572-19.83-138.756-22.047-207.479-35.568
			c-72.068-14.148-182.642-33.107-261.102-42.349c-25.215-2.925-52.259-4.853-79.45-8.784l-63.604-55.835
			c66.048-10.807,141.329-6.27,217.654,4.506c132.76,18.794,268.287,56.765,362.698,67.131
			C6400.529,704.767,6446.543,715.527,6490.803,730.129z"/>
		<path id="_x31_80639284" fill="none" stroke="#010101" stroke-width="80" d="M6528.469,832.062l98.051,265.35
			c-169.709-102.871-396.213-219.537-432.694-119.599c-1.99,5.458-3.37,11.073-4.218,16.919l-354.585-311.151
			c27.189,3.931,54.233,5.86,79.448,8.783c78.46,9.242,189.035,28.201,261.102,42.349c68.725,13.521,139.906,15.739,207.479,35.568
			C6431.943,784.67,6481.803,807.833,6528.469,832.062z"/>
		<path id="_x31_80639283" fill="none" stroke="#010101" stroke-width="80" d="M6626.52,1097.412l111.41,301.563
			c-25.186-15.853-48.402-29.084-66.616-37.298c-48.04-21.618-79.929-30.718-99.45-31.546l-382.256-335.401
			c0.848-5.847,2.228-11.461,4.218-16.919C6230.307,877.875,6456.811,994.541,6626.52,1097.412z"/>
		<path id="_x31_80639282" fill="none" stroke="#010101" stroke-width="80" d="M6737.93,1398.977l31.324,84.752
			c-19.035-12.758-38.689-23.821-58.119-31.423l-139.271-122.172c19.523,0.827,51.412,9.928,99.45,31.546
			C6689.527,1369.891,6712.744,1383.123,6737.93,1398.977z"/>
		<path id="_x31_80639292" fill="none" stroke="#010101" stroke-width="80" d="M5770.816,1032.869L5473.693,900.52
			c-19.194-11.833-38.084-23.896-55.297-37.033c-122.55-93.34-60.162-256.154,38.035-334.512
			c39.736-31.741,84.837-51.075,132.578-63.014l0.527,2.233l58.832,51.588c-13.611,4.423-26.92,10.156-39.779,17.58
			c-151.857,87.506-120.458,204.737-40.402,307.952c51.729,66.729,123.76,127.592,179.724,170.783
			C5755.496,1021.971,5763.156,1027.535,5770.816,1032.869z"/>
		<path id="_x31_80639291" fill="none" stroke="#010101" stroke-width="80" d="M6254.559,1248.208l-290.67-129.406
			c-26.456-11.775-76.219-33.926-100.593-44.772c-71.149-31.668-42.37,2.297-99.313-44.205
			c-17.502-14.3-73.486-58.038-117.127-99.244c-39.348-37.147-66.924-71.969-77.832-85.955l-0.838,0.688
			c-80.056-103.216-111.455-220.445,40.402-307.952c12.861-7.426,26.168-13.158,39.779-17.581l123.045,107.965
			c-18.09,2.871-35.422,6.973-51.92,12.387c-12.318,4.043-24.182,8.778-35.439,14.361
			c-240.217,118.793,307.078,382.196,410.451,458.008C6150.553,1153.54,6203.09,1200.182,6254.559,1248.208z"/>
		<path id="_x31_80639290" fill="none" stroke="#010101" stroke-width="80" d="M6338.196,1285.479l-83.557-37.194l-0.079-0.077
			c-51.469-48.027-104.004-94.669-160.051-135.704c-103.375-75.812-650.672-339.215-410.453-458.007
			c11.26-5.584,29.334-12.284,41.654-16.328l45.707-10.421c31.084,24.927,38.183,33.782,63.606,55.835l354.586,311.15
			c-10.042,68.775,56.065,159.71,92.103,211.845C6302.906,1237.271,6320.928,1262.263,6338.196,1285.479z"/>
		<path id="_x31_80639289" fill="none" stroke="#010101" stroke-width="80" d="M6572.021,1389.624l-233.825-104.145
			c-17.267-23.217-35.29-48.208-56.487-78.902c-36.037-52.136-102.143-143.072-92.102-211.845l382.258,335.401
			C6532.589,1328.319,6542.922,1359.672,6572.021,1389.624z"/>
		<path id="_x31_80639288" fill="none" stroke="#010101" stroke-width="80" d="M6571.861,1330.133l139.273,122.172
			c-5.998-2.404-11.996-4.5-17.918-6.055l0.69-2.384l-121.886-54.242C6542.922,1359.672,6532.589,1328.319,6571.861,1330.133z"/>
		<path id="_x31_80639298" fill="none" stroke="#010101" stroke-width="80" d="M6261.928,1469.263l-68.379,1.255
			c11.743,13.35,31.056,37.805,45.826,57.397c-61.043-79.839-139.828-143.725-214.276-210.211
			c-105.603-94.29-220.425-177.296-335.715-258.914c-75.162-53.179-137.475-110.239-215.688-158.27l297.123,132.349
			c41.031,28.447,82.918,50.277,124.249,82.108c104.118,80.124,191.758,189.212,289.476,279.015
			C6211.906,1419.163,6237.523,1444.099,6261.928,1469.263z"/>
		<path id="_x31_80639297" fill="none" stroke="#010101" stroke-width="80" d="M6332.284,1468.013l-70.356,1.25
			c-24.404-25.165-50.021-50.101-77.388-75.271c-97.717-89.802-185.354-198.89-289.475-279.016
			c-41.331-31.831-83.216-53.662-124.247-82.107l193.07,85.935c70.512,60.707,141.915,129.032,195.305,199.767
			C6205.846,1380.279,6271.465,1421.422,6332.284,1468.013z"/>
		<path id="_x31_80639296" fill="none" stroke="#010101" stroke-width="80" d="M6480.062,1465.382l-147.778,2.63
			c-60.823-46.591-126.438-87.734-173.093-149.443c-53.392-70.734-124.795-139.06-195.303-199.767l290.67,129.406l0.079,0.077
			c51.47,47.949,101.723,97.203,153.501,143.766c9.93,8.881,19.405,17.838,28.577,26.871
			C6452.101,1434.128,6466.5,1449.564,6480.062,1465.382z"/>
		<path id="_x31_80639295" fill="none" stroke="#010101" stroke-width="80" d="M6438.161,1417.387l-1.445,1.535
			c-9.172-9.031-18.647-17.989-28.577-26.868c-51.778-46.566-102.031-95.82-153.501-143.768l83.557,37.194
			C6369.094,1326.978,6397.647,1363.083,6438.161,1417.387z"/>
		<path id="_x31_80639294" fill="none" stroke="#010101" stroke-width="80" d="M6650.843,1438.578l0.222,3.08
			c-9.045,0.82-17.787,2.947-26.381,6.616c0.821,4.928,1.949,9.78,3.459,14.48l-148.082,2.629
			c-13.564-15.819-27.96-31.253-43.347-46.46l1.447-1.537c-40.518-54.303-69.071-90.405-99.967-131.906l233.823,104.145
			C6592.637,1410.697,6622.521,1431.104,6650.843,1438.578z"/>
		<path id="_x31_80639293" fill="none" stroke="#010101" stroke-width="80" d="M6693.907,1443.865l-0.69,2.383
			c-14.347-4.047-28.479-5.782-42.152-4.592l-0.223-3.08c-28.321-7.474-58.205-27.882-78.82-48.954L6693.907,1443.865z"/>
		<path id="_x31_80639269" fill="none" stroke="#010101" stroke-width="80" d="M8978.135,2308.204l-4.561,1.911l-109.93,29.604
			c-26.941-75.349-59.211-147.325-94.912-212.159c-69.746-126.428-174.191-228.794-272.941-329.682
			c-13.188-13.508-25.844-27.4-38.193-41.675l92.043-78.455l3.504-2.989c129.311,156.391,254.674,280.601,351.002,471.448
			C8930.914,2199.238,8955.707,2253.263,8978.135,2308.204z"/>
		<path id="_x31_80639268" fill="none" stroke="#010101" stroke-width="80" d="M8863.645,2339.719l-307.6,82.958
			c23.256-32.483-29.691-162.554-36.867-179.968c-48.262-116.667-115.812-209.379-196.801-304.594
			c-11.061-12.963-21.816-26.001-32.5-38.886l167.721-143.026c12.35,14.276,25.006,28.168,38.193,41.676
			c98.75,100.887,203.195,203.252,272.941,329.682C8804.434,2192.392,8836.703,2264.37,8863.645,2339.719z"/>
		<path id="_x31_80639267" fill="none" stroke="#010101" stroke-width="80" d="M8519.178,2242.707
			c7.176,17.416,60.123,147.486,36.867,179.968l-8.207,2.211l-15.129,4.031c-3.721-0.857-7.896-2.333-12.527-4.426
			c-34.756-15.883-46.357-88.646-61.174-119.86c-23.281-49.017-49.662-104.661-80.174-148.931
			c-51.938-75.424-103.15-136.534-160.061-195.889l71.104-60.582c10.684,12.885,21.439,25.923,32.5,38.886
			C8403.365,2033.329,8470.916,2126.041,8519.178,2242.707z"/>
		<path id="_x31_80639266" fill="none" stroke="#010101" stroke-width="80" d="M8532.709,2428.917l-329.793,88.892
			c-60.016-97.23-129.389-188.949-198.912-279.433c-14.771-19.208-29.691-38.341-44.916-57.243l259.686-221.325
			c56.912,59.354,108.123,120.465,160.061,195.889c30.512,44.27,56.893,99.914,80.174,148.932
			c14.816,31.214,26.418,103.977,61.174,119.861C8524.812,2426.585,8528.988,2428.059,8532.709,2428.917z"/>
		<path id="_x31_80639265" fill="none" stroke="#010101" stroke-width="80" d="M8202.916,2517.809l-110.086,29.68
			c-43.691-91.406-153.797-179.246-213.359-242.841c-9.852-10.496-19.325-20.993-28.49-31.333l108.107-92.18
			c15.225,18.901,30.145,38.034,44.916,57.243C8073.527,2328.859,8142.9,2420.578,8202.916,2517.809z"/>
		<path id="_x31_80639264" fill="none" stroke="#010101" stroke-width="80" d="M8092.83,2547.488l-40.447,10.96
			c-67.186-83.784-143.809-161.591-182.752-206.655c-15.682-18.211-31.518-36.113-47.428-53.861l1.676-1.535l27.102-23.083
			c9.165,10.34,18.639,20.836,28.49,31.333C7939.033,2368.245,8049.139,2456.082,8092.83,2547.488z"/>
		<path id="_x31_80639255" fill="none" stroke="#010101" stroke-width="80" d="M8375.02,3012.266
			c-6.566-18.029-11.916-36.363-15.139-55.227c-7.043-41.195-12.193-78.768-19.096-115.575l-123.301-45.107
			c4.496,31.914-3.65,103.077-7.18,130.933c52.154,21.374,127.553,67.93,147.639,77.153
			C8363.633,3007.075,8369.328,3009.708,8375.02,3012.266z"/>
		<path id="_x31_80639254" fill="none" stroke="#010101" stroke-width="80" d="M8217.484,2796.354l-40.887-14.958
			c1.871,11.703,2.297,22.942,1.21,33.638c-1.479,14.462-6.055,52.698-13.545,102.547c8.517-3.24,25.472,1.278,46.042,9.707
			C8213.834,2899.431,8221.98,2828.269,8217.484,2796.354z"/>
		<path id="_x31_80639258" fill="none" stroke="#010101" stroke-width="80" d="M8991.998,3079.781l6.152,2.327
			c-31.584,52.47-58.992,108.105-62.887,179.36c-18.229-2.673-43.279-11.444-59.748-18.96c-13.354-6.12-26.637-12.317-39.992-18.361
			c-11.922-66.606-12.838-126.793,21.287-193.801L8991.998,3079.781z"/>
		<path id="_x31_80639256" fill="none" stroke="#010101" stroke-width="80" d="M8519.057,3078.582
			c-47.963-22.08-95.996-44.158-144.037-66.316c-6.566-18.029-11.916-36.363-15.139-55.227
			c-7.043-41.195-12.193-78.768-19.096-115.575l229.316,83.887l0.002,0.077c11.699,63.375,28.789,127.999,36.709,183.202
			c0.525,3.696,1.045,7.391,1.416,11.009c-23.828-11-47.654-22-71.486-32.924
			C8530.822,3084.004,8524.977,3081.291,8519.057,3078.582z"/>
		<path id="_x31_80639257" fill="none" stroke="#010101" stroke-width="80" d="M8775.039,3196.259
			c-16.621-7.594-33.166-15.261-49.785-22.854c-1.141-0.543-2.355-1.085-3.49-1.629c-37.871-17.354-75.664-34.783-113.533-52.139
			c-0.373-3.618-0.893-7.312-1.416-11.009c-7.922-55.205-25.012-119.827-36.711-183.202l286.707,104.92
			c-34.125,67.007-33.209,127.194-21.287,193.801C8815.334,3214.776,8795.225,3205.556,8775.039,3196.259z"/>
		<path id="_x31_80639263" fill="none" stroke="#010101" stroke-width="80" d="M9102.189,2786.354
			c13.818,128.719-51.027,207.795-104.039,295.753l-6.152-2.326l-135.188-49.434c0.76-1.535,1.525-3.072,2.361-4.61
			c48.615-91.205,88.822-127.794,88.787-238.771c-0.033-143.378-32.32-301.555-84.316-447.247l109.93-29.604l4.561-1.91
			C9040.445,2461.085,9084.506,2621.218,9102.189,2786.354z"/>
		<path id="_x31_80639262" fill="none" stroke="#010101" stroke-width="80" d="M8947.959,2786.965
			c0.035,110.979-40.172,147.566-88.787,238.771c-0.836,1.538-1.602,3.073-2.361,4.61l-286.707-104.92l-0.002-0.077
			c-9.07-49.358-14.957-97.939-10.75-140.947c12.389-127.024,74.252-230.579-8.953-349.814l-1.582-6.009
			c2.961-1.222,5.402-3.216,7.229-5.904l307.6-82.956C8915.639,2485.41,8947.926,2643.586,8947.959,2786.965z"/>
		<path id="_x31_80639261" fill="none" stroke="#010101" stroke-width="80" d="M8570.102,2925.351l-229.316-83.888
			c-8.475-45.819-19.76-90.643-41.066-140.041c-27.58-63.884-60.479-124.782-96.803-183.612l329.793-88.892
			c6.605,1.634,11.922,1.42,16.107-0.338l1.582,6.008c83.205,119.235,21.342,222.79,8.953,349.815
			C8555.146,2827.413,8561.031,2875.992,8570.102,2925.351z"/>
		<path id="_x31_80639260" fill="none" stroke="#010101" stroke-width="80" d="M8217.484,2796.354L8217.484,2796.354l123.301,45.105
			c-8.475-45.818-19.76-90.642-41.066-140.039c-27.58-63.884-60.479-124.783-96.803-183.613l-110.086,29.68
			c1.639,3.44,3.176,6.884,4.617,10.331h0.002C8097.449,2557.82,8211.83,2756.206,8217.484,2796.354z"/>
		<path id="_x31_80639259" fill="none" stroke="#010101" stroke-width="80" d="M8097.449,2557.82L8097.449,2557.82
			c-1.443-3.447-2.98-6.893-4.619-10.331l-40.447,10.96c13.865,17.204,27.268,34.638,39.839,52.146
			c43.009,59.7,76.521,119.675,84.376,170.801l40.887,14.958C8211.83,2756.206,8097.449,2557.82,8097.449,2557.82z"/>
		<path id="_x31_80639253" fill="none" stroke="#010101" stroke-width="80" d="M9042.572,3687.311
			c0.945,50.873-2.068,102.814-7.74,154.668c-3.012,20.541-5.268,41.389-8.049,62.084c-0.078,0.307-0.152,0.612-0.158,0.921
			c-2.623,17.389-5.475,34.696-8.557,52.001c-0.076,0.231-0.074,0.538-0.154,0.848c-4.77,23.764-10.145,47.762-14.381,71.452
			c-0.77,4.309-1.541,8.614-2.461,12.924c-8.145,37.071-16.893,73.368-25.867,108.437c-0.383,1.307-0.689,2.615-1.072,3.998
			c-1.148,4.465-2.301,8.844-3.451,13.303c-52.223,199.637-96.205,385.594-247.367,532.362
			c-226.256,219.576-614.912,394.874-927.467,329.589l22.93-182.791c272.615,55.93,544.266-55.15,745.357-237.631
			c188.605-171.209,274.371-388.209,326.094-632.94c24.518-115.984,49.5-235.659,45.154-354.965
			c-4.561-125.841-61.611-223.217-88.295-341.587c-4.361-19.254-8.344-37.736-11.564-55.832
			c13.355,6.043,26.639,12.241,39.992,18.359c16.469,7.518,41.52,16.29,59.748,18.961c-0.236,2.771-0.314,5.54-0.4,8.312
			c-1.16,40.017,8.785,74.06,22.688,106.195c0.305,0.618,0.607,1.235,0.836,1.928c2.941,7.09,6.039,14.101,9.217,20.807
			c11.109,23.894,25.107,47.562,36.596,71.993c1.285,2.698,2.496,5.396,3.703,8.171c2.873,6.782,5.666,13.64,8.158,20.648
			c0.527,1.464,1.053,2.929,1.504,4.395c2.795,8.393,4.977,17.021,6.473,25.797
			C9032.875,3581.615,9040.045,3634.431,9042.572,3687.311z"/>
		<path id="_x31_80639252" fill="none" stroke="#010101" stroke-width="80" d="M8935.383,3621.567
			c4.346,119.304-20.637,238.979-45.154,354.963c-51.723,244.731-137.488,461.733-326.094,632.942
			c-201.092,182.48-472.74,293.561-745.357,237.629l11.232-89.547c43.019,24.755,95.64,37.307,157.328,38.34
			c254.506,4.236,559.492-227.109,679.082-446.934c75.094-137.917,130.338-299.754,154.564-453.525
			c26.619-169.235,38.91-351.439-7.562-518.51c-17.018-61.545-51.461-114.211-38.383-180.667
			c20.186,9.298,40.293,18.515,60.484,27.89c3.221,18.096,7.201,36.578,11.564,55.832
			C8873.771,3398.35,8930.822,3495.727,8935.383,3621.567z"/>
		<path id="_x31_80639251" fill="none" stroke="#010101" stroke-width="80" d="M8813.424,3376.925
			c46.475,167.071,34.182,349.277,7.562,518.51c-24.229,153.773-79.473,315.608-154.566,453.525
			c-119.586,219.824-424.576,451.17-679.082,446.934c-61.688-1.031-114.308-13.581-157.326-38.34l17.039-135.477
			c3.796,1.241,7.668,2.488,11.692,3.807c103.779,33.637,174.04,70.561,332.946,22.018
			c91.238-27.893,101.504-126.063,174.779-172.094c137.494-86.243,133.404-216.861,216.984-346.285
			c43.545-67.362,100.416-115.599,126.436-193.405c30.84-92.108,48.256-193.798,43.932-291.01
			c-6.84-156.252-42.771-315.518-33.051-471.179l0.992-2.153c1.137,0.542,2.352,1.085,3.492,1.627
			c16.619,7.593,33.164,15.262,49.785,22.854C8761.963,3262.715,8796.404,3315.382,8813.424,3376.925z"/>
		<path id="_x31_80639250" fill="none" stroke="#010101" stroke-width="80" d="M8753.82,3645.112
			c4.324,97.212-13.092,198.901-43.932,291.01c-26.02,77.805-82.891,126.043-126.436,193.405
			c-83.58,129.426-79.49,260.041-216.984,346.285c-73.275,46.03-83.541,144.201-174.779,172.094
			c-158.906,48.543-229.167,11.617-332.946-22.02c-4.024-1.318-7.896-2.563-11.692-3.807l20.527-163.555
			c9.568,2.723,19.133,5.213,28.854,7.555l-4.375,18.84c86.312,92.462,255.531,113.524,359.016,49.188
			c102.797-63.876,153.029-195.708,201.234-304.083c81.58-183.148,123.393-382.197,135.656-584.492
			c4.592-75.789,33.035-150.433,28.428-225.639c-6.436-103.61,4.963-198.16-8.164-300.253
			c37.873,17.355,75.666,34.786,113.533,52.143l-0.992,2.151C8711.049,3329.593,8746.98,3488.858,8753.82,3645.112z"/>
		<path id="_x31_80639249" fill="none" stroke="#010101" stroke-width="80" d="M8616.393,3419.89
			c4.605,75.205-23.838,149.849-28.43,225.638c-12.26,202.298-54.074,401.346-135.656,584.494
			c-48.203,108.375-98.436,240.209-201.232,304.083c-103.484,64.334-272.705,43.27-359.016-49.188l4.375-18.839
			c101.291,24.701,208.707,30.183,285.963,4.172c236.549-79.784,264.648-452.345,304.729-658.634
			c44.543-229.364,86.381-501.525,31.932-733.034c5.922,2.711,11.766,5.421,17.686,8.134c23.832,10.924,47.658,21.925,71.486,32.924
			C8621.355,3221.728,8609.957,3316.283,8616.393,3419.89z"/>
		<path id="_x31_80639248" fill="none" stroke="#010101" stroke-width="80" d="M8519.057,3078.582
			c54.449,231.508,12.613,503.671-31.932,733.034c-40.08,206.289-68.18,578.848-304.729,658.636
			c-77.256,26.007-184.672,20.525-285.963-4.176c-9.721-2.339-19.285-4.833-28.854-7.554l40.672-324.268
			c45.547,110.118,114.268,219.225,246.284,169.062c129.274-49.171,114.312-208.451,141.624-318.426
			c40.281-162.727,108.713-311.288,131.609-480.604c12.148-90.473,25.846-194.25,18.547-285.855
			c-5.75-73.208-46.773-137.595-71.299-206.165C8423.061,3034.422,8471.094,3056.501,8519.057,3078.582z"/>
		<path id="_x31_80639247" fill="none" stroke="#010101" stroke-width="80" d="M8446.316,3218.431
			c7.299,91.602-6.398,195.383-18.547,285.855c-22.896,169.316-91.328,317.876-131.609,480.604
			c-27.312,109.975-12.35,269.253-141.624,318.422c-132.017,50.168-200.737-58.944-246.284-169.061l97.529-777.011
			c17.463,4.44,34.738-7.359,54.573-41.16c2.06-3.381,4.044-6.915,6.104-10.756c30.76-57.475,43.568-108.769,57.092-171.914
			c0.076-0.153,0.076-0.307,0.078-0.385c6.829-28.377,12.978-57.449,18.443-86.063c0.918-4.152,1.92-8.381,2.916-12.687
			c1.152-4.924,2.076-11.155,2.932-18.461c0.074-0.154,0.076-0.231,0.076-0.384c6.468-35,11.866-68.463,16.267-97.847
			c30.114-11.453,165.675,74,193.681,86.859c5.689,2.634,11.385,5.268,17.076,7.824
			C8399.543,3080.835,8440.566,3145.223,8446.316,3218.431z"/>
		<path id="_x31_80639246" fill="none" stroke="#010101" stroke-width="80" d="M7805.412,4844.216
			c4.482,1.013,8.887,1.95,13.365,2.886l-22.93,182.793c-12.909-2.657-25.586-5.773-38.192-9.275
			c-238.63-66.604-327.337-393.879-434.145-588.147c-35.778-65.142-66.997-131.345-94.565-198.382l0.152-0.08l55.561-40.619
			c1.512,2.852,3.1,5.63,4.689,8.402c4.312,7.707,8.773,15.342,13.316,22.896c72.414,121.048,178.1,214.645,239.174,344.43
			C7602.306,4697.527,7657.037,4810.75,7805.412,4844.216z"/>
		<path id="_x31_80639245" fill="none" stroke="#010101" stroke-width="80" d="M7830.01,4757.557l-11.232,89.547
			c-4.479-0.938-8.883-1.875-13.365-2.886c-148.373-33.466-203.106-146.688-263.578-275.091
			c-61.07-129.787-166.758-223.384-239.17-344.43c-4.543-7.557-9.008-15.191-13.318-22.896l5.707-3.525
			c89.066-72.459,134.92-185.453,153.016-315.383l2.206,0.314c38.929-44.829,93.466-101.383,154.601-122.901
			c-10.311,117.335-15.404,243.919,10.896,363.905c18.107,82.789,26.797,167.32,41.939,250.714
			c4.202,22.944,8.855,45.892,14.345,68.614c10.682,44.285,21.925,75.027,36.916,97.931l-9.584,4.356
			C7717.45,4648.621,7761.65,4718.406,7830.01,4757.557z"/>
		<path id="_x31_80639244" fill="none" stroke="#010101" stroke-width="80" d="M7847.051,4622.08l-17.041,135.477
			c-68.361-39.15-112.562-108.936-130.619-211.73l9.582-4.356C7736.149,4583.034,7775.693,4598.697,7847.051,4622.08z"/>
		<path id="_x31_80639243" fill="none" stroke="#010101" stroke-width="80" d="M7867.58,4458.52l-20.527,163.557
			c-71.359-23.381-110.903-39.046-138.078-80.61c-14.991-22.903-26.234-53.646-36.916-97.931
			c-5.489-22.721-10.146-45.668-14.344-68.614l19.309-3.56C7725.479,4406.987,7793.862,4437.676,7867.58,4458.52z"/>
		<path id="_x31_80639242" fill="none" stroke="#010101" stroke-width="80" d="M7908.252,4134.252l-40.672,324.268
			c-73.721-20.848-142.101-51.532-190.562-87.156l-19.306,3.56c-15.146-83.394-23.832-167.927-41.939-250.712
			c-26.302-119.986-21.21-246.57-10.897-363.905c10.267-3.664,20.68-6.248,31.32-7.602c16.266-2.259,32.902-1.594,49.684,2.767
			c108.728,27.958,145.674,175.605,180.1,266.523C7878.281,4054.508,7891.785,4094.492,7908.252,4134.252z"/>
		<path id="_x31_80639241" fill="none" stroke="#010101" stroke-width="80" d="M8005.781,3357.239l-97.529,777.013
			c-16.467-39.762-29.971-79.746-42.275-112.26c-34.426-90.918-71.374-238.565-180.1-266.525
			c-16.779-4.358-33.418-5.023-49.684-2.765l-0.672-4.853c31.815-24.683,308.887-397.875,328.402-424.137
			c5.073,6.711,9.543,12.109,13.178,15.971c8.793,9.262,17.365,14.676,25.643,16.624c0,0,0.072,0.078,0.15,0.078
			C8003.808,3356.774,8004.792,3357.009,8005.781,3357.239z"/>
		<path id="_x31_80639233" fill="none" stroke="#010101" stroke-width="80" d="M7168.852,3540.028
			c-7.08-87.371-58.329-133.241-77.82-210.415c-10.762-42.59,16.918-83.759,16.254-124.242
			c-0.492-31.475-7.282-55.496-17.312-77.334l-118.18,41.495c2.509,11.352,5.031,23.376,7.549,36.294
			c68.676,352.375,115.402,700.993,249.635,1028.247l0.117-0.061l55.562-40.619c-62.637-113.016-104.275-237.279-123.036-365.319
			C7147.648,3732.37,7176.676,3635.945,7168.852,3540.028z"/>
		<path id="_x31_80639238" fill="none" stroke="#010101" stroke-width="80" d="M7364.225,3146.117
			c-9.567-34.304-18.934-69.182-28.231-104.459l-246.021,86.379c10.03,21.837,16.824,45.86,17.314,77.334
			c0.662,40.484-27.018,81.65-16.256,124.243c19.491,77.173,70.74,123.043,77.82,210.415c7.824,95.915-21.203,192.34-7.228,288.045
			c18.761,128.042,60.399,252.306,123.034,365.321c1.512,2.85,3.1,5.628,4.689,8.402l5.705-3.525
			c89.068-72.459,134.924-185.453,153.02-315.383C7481.084,3646.487,7422.149,3353.78,7364.225,3146.117z"/>
		<path id="_x31_80639237" fill="none" stroke="#010101" stroke-width="80" d="M7964.383,3321.458
			c-11.738-15.676-24.322-35.73-38.377-58.891c-71.755-118.253-143.845-237.753-212.702-353.385l-377.311,132.477
			c9.298,35.28,18.664,70.158,28.233,104.461c57.923,207.661,116.854,500.368,83.846,736.771l2.204,0.314
			c38.931-44.827,93.466-101.381,154.599-122.901c10.269-3.662,20.684-6.246,31.32-7.6l-0.67-4.853
			c31.816-24.683,308.889-397.875,328.402-424.137C7963.516,3323.938,7964.183,3321.802,7964.383,3321.458z"/>
		<path id="_x31_80639232" fill="none" stroke="#010101" stroke-width="80" d="M6614.092,1996.127
			c-68.228-95.025-101.523-212.489-173.004-310.91c-58.369-80.428-114.412-149.081-179.113-215.909l-68.453,1.233
			c15.723,17.788,44.82,55.267,58.661,74.753c62.556,88.04,108.913,195.701,160.112,294.242
			c54.788,105.461,126.928,192.345,196.47,287.38c1.434,1.958,2.876,3.913,4.319,5.871l60.074-50.845
			C6654.555,2053.645,6634.908,2025.098,6614.092,1996.127z"/>
		<path id="_x31_80639240" fill="none" stroke="#010101" stroke-width="80" d="M6595.123,1639.816
			c-34.787-66.443-70.435-122.423-115.059-174.429l-147.738,2.658l-70.352,1.265c64.701,66.829,120.744,135.479,179.113,215.909
			c71.48,98.42,104.778,215.885,173.004,310.91c20.814,28.973,40.461,57.518,59.066,85.817l36.232-30.663l125.222-105.979
			C6741.594,1852.227,6660.789,1765.423,6595.123,1639.816z"/>
		<path id="_x31_80639236" fill="none" stroke="#010101" stroke-width="80" d="M6834.612,1945.304l151.358-128.095
			c-12.368-14.353-24.783-28.666-37.238-42.94c-56.029-64.207-117.965-122.636-185.41-173.69
			c-46.047-34.863-116.334-77.366-135.205-137.854l-148.053,2.662c44.621,52.008,80.27,107.986,115.059,174.43
			C6660.789,1765.423,6741.594,1852.227,6834.612,1945.304z"/>
		<path id="_x31_80639234" fill="none" stroke="#010101" stroke-width="80" d="M7078.656,3106.158
			c-12.48-22.28-27.548-44.104-41.158-71.777c-40.22-81.544-53.057-176.709-74.5-263.817
			c-66.165-268.748-147.016-471.399-289.84-688.622l-60.074,50.846c54.277,73.547,115.752,145.504,155.566,228.394
			c27.412,57.054,56.585,130.834,81.913,212.322c30.544,98.299,55.483,207.819,64.974,312.737
			c12.201,135.004,33.832,181.867,56.259,283.287l118.181-41.495C7086.541,3120.56,7082.729,3113.337,7078.656,3106.158"/>
		<path id="_x31_80639239" fill="none" stroke="#010101" stroke-width="80" d="M7071.96,2229.706
			c-42.649-83.477-105.539-153.011-170.948-218.318c-22.762-22.734-44.907-44.578-66.399-66.084l-125.222,105.978l-36.232,30.664
			c142.824,217.222,223.673,419.873,289.838,688.622c21.443,87.106,34.282,182.271,74.5,263.818
			c13.612,27.67,28.68,49.497,41.158,71.775c4.072,7.179,7.885,14.401,11.318,21.88l246.019-86.381
			C7264.408,2770.064,7196.841,2474.474,7071.96,2229.706z"/>
		<path id="_x31_80639235" fill="none" stroke="#010101" stroke-width="80" d="M6901.012,2011.388
			c65.409,65.307,128.297,134.84,170.948,218.318c124.881,244.768,192.448,540.358,264.033,811.952l377.311-132.479
			c-11.808-19.821-23.523-39.542-35.119-59.106c-60.534-102.156-99.867-230.006-164.439-333.355
			c-59.814-95.73-135.198-178.294-202.556-279.596c-98.366-147.917-209.609-285.751-325.221-419.915l-151.356,128.096
			C6856.104,1966.811,6878.25,1988.654,6901.012,2011.388z"/>
		<path id="_x31_80639207" fill="none" stroke="#010101" stroke-width="80" d="M4916.873,4265.494
			c83.02,28.197,167.085-61.1,230.475-102.844c64.398-42.412,138.692-49.901,212.846-60.068
			c64.332-8.826,128.245-18.107,192.072-30.166c44.598-8.419,88.752-16.59,133.736-5.805
			c87.629,21.003,172.234,100.461,184.215,194.076c6.408,50.087,11.182,99.971,66.371,112.281
			c89.68,20.01,167.936-57.342,236.71-102.334c77.011-50.375,173.627-146.233,227.351-221.633
			c71.471-91.739,125.346-133.995,159.267-249.102c22.015-74.712,134.562-460.659,274.478-345.673l5.588-36.562
			c18.1-65.919,50.708-127.63,44.561-197.012c-6.476-73.214-27.336-143.933-22.381-218.75
			c4.811-72.61,30.172-124.859,22.153-198.576c-8.534-78.431-10.119-153.811-33.744-229.82
			c-25.326-81.487-54.501-155.269-81.911-212.324c-40.875-85.093-104.578-158.666-159.886-234.265
			c-69.542-95.036-141.686-181.917-196.471-287.379c-51.202-98.544-97.556-206.205-160.111-294.244
			c-62.587-88.08-147.351-156.313-227.108-227.565c-105.609-94.349-220.389-177.355-335.713-258.926
			c-75.156-53.16-137.428-110.239-215.671-158.321c-19.203-11.803-38.035-23.823-55.299-36.963
			c-61.519-46.841-125.662-34.25-183.424,3.919c-60.251,39.816-125.323,73.233-184.11,116.223
			c-40.568,29.666-107.123,85.785-126.383,134.146l-3.127,1293.779c22.234,0.911,17.207,27.809,18.728,42.827
			c3.327,32.685,15.563,63.92,31.436,92.449c11.467,20.61,21.937,34.672,36.593,52.7c20.684,25.437,5.176,43.416-7.756,65.393
			c-14.453,24.552-31.853,59.051-44.52,84.524c-8.008,16.093-17.457,42.456-35.416,49.916L4916.873,4265.494z"/>
		<path id="_x31_80639220" fill="none" stroke="#010101" stroke-width="80" d="M6348.73,1758.333l1.747,0.1
			c-152.274-171.467-388.383-272.859-583.331-370.634c-168.43-84.476-257.982-137.385-428.951-128.284
			c-154.592,8.231-298.652,187.649-412.88,296.974l-0.155,64.453c36.117-13.359,198.054-213.928,323.568-278.968
			c121.912-63.168,352.96,10.89,584.68,136.453c121.399,65.784,267.379,129.076,349.522,244.769
			c16.974,23.91,36.659,49.092,57.737,74.959l1.605-1.665C6262.193,1756.092,6307.078,1754.937,6348.73,1758.333z"/>
		<path id="_x31_80639221" fill="none" stroke="#010101" stroke-width="80" d="M5338.195,1259.517
			c170.969-9.104,260.521,43.809,428.951,128.284c156.299,78.391,339.059,159.111,483.861,276.4
			c-0.059-0.979-0.115-1.955-0.175-2.937c-43.888-43.11-78.876-105.507-116.894-146.632
			c-189.709-205.22-446.915-474.207-734.094-509.275c-133.77-16.333-351.743-2.778-393.801,156.072
			c-18.129,68.459,10.626,318.374-82.506,345.031l-0.004,1.286l-0.115,48.572c4.031-1.878,5.084-2.887,6.135-3.9
			C5043.094,1442.768,5185.506,1267.646,5338.195,1259.517z"/>
		<path id="_x31_80639222" fill="none" stroke="#010101" stroke-width="80" d="M5006.045,1161.43
			c42.056-158.85,260.027-172.408,393.799-156.073c287.184,35.067,544.387,304.055,734.096,509.276
			c38.02,41.124,73.006,103.521,116.894,146.631c61.171,53.216,118.285,114.696,156.95,168.964
			c-127.244-267.271-161.791-289.208-177.678-314.098c-59.645-74.386-134.299-135.212-205.031-198.401
			c-105.607-94.349-220.389-177.354-335.712-258.926c-75.157-53.16-137.429-110.239-215.671-158.32
			c-19.204-11.802-38.036-23.825-55.298-36.964c-61.521-46.841-125.662-34.25-183.426,3.92
			c-60.251,39.815-125.323,73.233-184.11,116.222c-40.568,29.666-107.123,85.785-126.383,134.148l-0.938,388.651
			C5016.671,1479.803,4987.916,1229.887,5006.045,1161.43z"/>
		<path id="_x31_80639210" fill="none" stroke="#010101" stroke-width="80" d="M6702.419,2570.06
			c-17.704-91.476-110.489-387.703-194.144-354.608c-77.99,30.856-185.199,180.343-250.959,232.558
			c-131.07,104.088-291.971,217.973-141.002,395.174c108.447,127.297,337.217,93.131,485.338,83.287
			C6714.241,2918.988,6728.222,2703.395,6702.419,2570.06z"/>
		<path id="_x31_80639213" fill="none" stroke="#010101" stroke-width="80" d="M6583.877,3530.278
			c-66.636,49.396-273.828,121.124-318.372,9.665c-42.78-107.058,71.509-193.45,134.827-251.535
			c64.914-59.545,175.785-108.97,234.658-14.686C6684.281,3352.668,6656.609,3476.357,6583.877,3530.278z"/>
		<path id="_x31_80639212" fill="none" stroke="#010101" stroke-width="80" d="M6688.536,3279.938
			c-59.343,151.655,115.114,196.479,176.405,67.692c30.202-63.443,43.385-240.937-68.613-227.876
			C6728.36,3127.682,6709.762,3225.688,6688.536,3279.938z"/>
		<path id="_x31_80639209" fill="none" stroke="#010101" stroke-width="80" d="M6799.771,2975.97
			c-10.147-11.264-28.025-9.135-32.779-8.889c-22.974,1.189-38.743-8.964-49.882-30.689c-5.338-10.413-74.027-12.676-115.457-9.92
			c-142.14,9.445-358.539,41.287-471.621-68.637c0,0-29.137-11.939-54.365-7.801c-23.326,3.827-42.865,23.563-43.582,27.931
			c-17.567,106.889-161.079,112.295-246.926,137.809c-10.365,3.081-36.048,17.044-55.623,30.701
			c-12.803,8.934-29.003,38.471-31.326,46.003c-9.783,31.728-20.867,62.722-33.066,92.697
			c-31.953,78.479-88.432,117.855-150.328,147.538c0.01-0.002,0.02-0.008,0.032-0.013c4.933,47.729-20.606,99.06-58.442,131.46
			c-79.455,68.038-169.512,114.316-231.478,201.186c-43.797,61.395-86.927,131.045-167.075,144.725
			c-9.189,1.568-42.971,2.341-68.242-3.484c4.959,18.908,14.422,37.111,23.891,52.92c16.119,26.905,26.803,56.556,52.646,76.422
			c15.314,11.774,33.906,16.394,52.887,15.29c17.021-0.992,40.072-3.323,56.166-8.782c27.21-9.227,51.114-26.24,75.586-40.999
			c104.173-62.823,252.861-46.139,364.309-5.999l6.902,2.207c30.934-20,60.104-41.501,89.794-63.24
			c51.522-37.742,110.074-64.715,173.128-74.754c31.032-4.942,62.545-5.771,93.855-3.596c29.668,2.053,63.29,3.912,91.951,12.25
			c16.762,4.877,34.592,17.715,49.756,26.411c15.554,8.917,30.755,18.552,44.897,29.642c26.284,20.599,48.123,46.286,61.888,77.091
			c29.2,65.362,22.613,142.092,13.791,211.229c-2.654,20.767-5.797,41.466-9.127,62.131c-0.833,5.18-1.163,26.049,9.88,33.297
			c11.045,7.25,35.997-24.078,45.866-33.957c44.467-44.521,86.156-93.926,115.33-134.87
			c71.469-91.741,122.982-124.269,156.901-239.376c9.628-32.676,36.571-124.873,75.544-208.668c0,0,6.09-38.36-7.73-52.051
			c-13.82-13.688-53.539-2.202-53.539-2.202c-75.04,48.709-266.117,109.472-308.685,2.964
			c-42.778-107.054,71.513-193.45,134.829-251.532c60.654-55.64,161.434-102.442,222.427-31.428
			c1.87,2.181,16.806,17.508,33.915,12.498c22.058-6.462,47.567-35.049,51.686-46.628c10.154-28.572,22.574-57.764,41.031-77.849
			c6.224-6.77,32.184-27.785,46.634-46.823c14.562-19.184,17.595-36.36,17.595-36.36l0.881-47.161
			C6814.502,3014.655,6811.088,2988.533,6799.771,2975.97z"/>
		<path id="_x31_80639216" fill="none" stroke="#010101" stroke-width="80" d="M6045.785,2409.021
			c-9.934-79.559-32.835-129.187-74.18-191.986c-106.299-161.481-205.375-413.482-382.887-506.81
			c-93.598-49.207-258.285-105.441-365.09-84.928c-103.961,19.968-205.469,102.748-295.261,155.949
			c-0.969,0.575-3.273,1.844-5.503,3.07l-0.508,210.839c388.544-23.479,448.288,37.368,649.516,267.413
			c101.859,116.453,170.152,253.043,189.973,410.811c9.741,77.479,11.158,160.679-1.205,237.782
			c-1.197,35.866-37.219,122.96,24.521,104.609c85.847-25.513,229.358-30.922,246.924-137.81
			c11.67-71.006-13.877-144.073,2.665-214.254l-2.208-11.018C6022.542,2571.461,6055.803,2489.19,6045.785,2409.021z"/>
		<path id="_x31_80639217" fill="none" stroke="#010101" stroke-width="80" d="M5581.316,2310.131
			c22.731,35.693,46.362,60.333,71.92,106.678c17.98,32.594,13.641,53.489,54.295,61.73c8.879-5.101-29.352-61.46-56.709-111.768
			c-48.527-89.205-125.35-164.973-197.907-234.109c-25.224-24.042-110.083-97.698-143.173-100.416
			c-18.717-1.536-7.999,17.988,2.191,26.312c26.975,22.067,59.621,34.729,87.365,58.219
			C5466.4,2173.588,5533.125,2234.433,5581.316,2310.131z"/>
		<path id="_x31_80639218" fill="none" stroke="#010101" stroke-width="80" d="M6205.801,2216.462
			c-207.424-159.609-263.571-413.691-500.678-546.65c-107.513-60.288-270.695-170.022-399.822-158.347
			c-130.766,11.826-269.933,119.192-380.321,183.555l-1.902,0.792l-0.212,88.507c2.229-1.227,4.532-2.495,5.503-3.07
			c89.788-53.201,191.298-135.98,295.259-155.948c106.805-20.515,271.494,35.721,365.09,84.928
			c177.512,93.326,276.59,345.327,382.889,506.811c41.343,62.798,64.246,112.426,74.178,191.984
			c10.018,80.171-23.243,162.441-13.242,243.667l2.208,11.019c1.723-7.311,3.903-14.588,6.626-21.829
			c25.746-68.438,84.155-122.336,140.424-165.432c62.085-47.575,114.861-97.93,160.582-152.187l-5.779-3.506
			C6289.316,2286.74,6251.516,2251.632,6205.801,2216.462z"/>
		<path id="_x31_80639219" fill="none" stroke="#010101" stroke-width="80" d="M6413.338,2007.369
			c-70.512-92.766-168.464-196.926-230.407-284.169c-82.144-115.695-228.123-178.986-349.522-244.769
			c-231.72-125.565-462.768-199.623-584.68-136.452c-120.508,62.441-274.576,249.81-318.651,276.49
			c-1.366,0.828-2.628,1.501-6.817,2.9l-0.179,74.441l1.9-0.791c110.389-64.363,249.556-171.73,380.323-183.557
			c129.125-11.673,292.308,98.06,399.822,158.349c237.104,132.958,293.252,387.042,500.676,546.648
			c45.713,35.172,83.516,70.28,130.803,104.294l5.781,3.507c58.107-68.955,104.82-144.216,144.77-228.09
			c-5.604-7.014-9.992-14.866-15.541-21.914C6453.325,2051.027,6431.404,2031.136,6413.338,2007.369z"/>
		<path id="_x31_80639208" fill="none" stroke="#010101" stroke-width="80" d="M5636.279,2394.392
			c-58.446-85.797-110.723-169.194-188.569-237.692c-68.929-60.649-142.667-111.702-233.099-130.776
			c-92.463-19.498-198.771-13.163-292.309-7.675l-0.949,393.339c22.234,0.911,17.205,27.811,18.727,42.827
			c3.328,32.685,15.562,63.919,31.435,92.448c11.467,20.612,21.938,34.672,36.593,52.7c20.684,25.436,5.178,43.416-7.754,65.393
			c-14.455,24.552-31.854,59.051-44.522,84.524c-7.618,15.314-16.55,39.915-32.87,48.691c6.686,31.522,27.553,60.692,38.348,91.5
			c10.576,30.185,13.145,62.708,22.889,93.098c8.639,26.976,25.111,49.591,35.082,75.888
			c21.357,56.335,22.065,128.962-2.143,184.532c-15.297,35.082-39.66,67.883-49.007,105.688
			c-13.258,53.69,15.444,97.227,39.943,142.367c11.162,20.569,17.724,38.551,20.009,57.081c1.68,13.637,27.844,29.72,40.992,24.979
			c10.307-3.715,19.883-44.947,18.367-49.323c-5.561-16.012-7.686-32.985-5.462-50.686c9.767-77.709,99.298-136.789,155.237-49.086
			c14.699,23.048,24.346,64.5,26.146,104.81c1.011,22.657,5.845,25.174,8.069,3.239c2.828-27.878,6.036-55.614,17.764-69.88
			c100.965-122.833,302.777-97.472,375.949-277.202C5765.91,2937.648,5790.382,2620.638,5636.279,2394.392z"/>
		<path id="_x31_80639211" fill="none" stroke="#010101" stroke-width="80" d="M5198.09,3630.14
			c-68.295-33.554-124.677-88.672-116.112-156.844c9.765-77.709,99.296-136.789,155.236-49.086
			C5275.862,3484.807,5280.049,3670.407,5198.09,3630.14z"/>
		<path id="_x31_80639214" fill="none" stroke="#010101" stroke-width="80" d="M5578.268,4063.24
			c9.458-6.824,23.078-9.618,33.697-14.682c18.783-8.943,37.51-20.682,54.531-32.693c17.914-12.628,42.637-32.457,32.473-57.522
			c-11.424-28.183-49.696-51.803-76.971-60.698c30.932-20.002,60.102-41.501,89.794-63.24
			c51.524-37.742,110.074-64.717,173.13-74.756c31.03-4.942,62.543-5.772,93.854-3.596c29.668,2.053,63.29,3.914,91.951,12.25
			c16.764,4.877,34.592,17.715,49.756,26.411c15.552,8.917,30.753,18.552,44.897,29.642c26.282,20.6,48.123,46.285,61.888,77.091
			c29.198,65.362,22.612,142.092,13.793,211.231c-2.656,20.767-5.801,41.464-9.129,62.131c-2.711,16.842-3.806,34.046-9.744,50.08
			c-0.826,2.236-1.762,4.455-2.797,6.649c-8.621,18.206-29.926,28.521-46.097,39.101c-68.776,44.992-147.029,122.342-236.71,102.334
			c-55.189-12.312-59.965-62.196-66.373-112.281c-3.26-25.49-17.732-55.142-28.842-78.027
			C5798.783,4094.912,5671.875,4047.273,5578.268,4063.24z"/>
		<path id="_x31_80639215" fill="none" stroke="#010101" stroke-width="80" d="M4918.004,3796.334
			c46.468,6.771,68.049-36.363,75.84-76.068c7.287-37.123,8.902-78.84,28.15-109.786c1.21-1.946-1.064,0.459,0.291-1.399l0,0
			c12.064-45.713,8.174-76.578-14.216-117.838c-24.499-45.141-53.201-88.677-39.939-142.366
			c9.345-37.808,33.706-70.608,49.003-105.691c24.208-55.569,23.5-128.197,2.143-184.531c-9.969-26.296-26.441-48.913-35.08-75.887
			c-9.744-30.391-12.314-62.914-22.891-93.099c-10.802-30.824-31.685-60.005-38.357-91.549L4918.004,3796.334z"/>
		<path id="_x31_80639223" fill="none" stroke="#010101" stroke-width="80" d="M6978.559,4687.83
			c-8.361-52.551-20.131-103.012-30.615-154.468c-37.41-183.597-39.061-361.171-53.982-546.175
			c-11.113-137.713-6.204-274.471-36.25-410.582c-9.428-42.696-24.754-80.177-23.32-122.378
			c-139.921-114.988-252.465,270.959-274.481,345.673c-33.921,115.107-87.834,172.752-159.304,264.494
			c-53.72,75.399-150.357,178.95-227.367,229.326c-68.777,44.996-147.028,122.339-236.713,102.333
			c-78.046-17.415-79.396-63.599-86.62-120.038c-19.626-153.516-147.192-200.08-303.462-177.923
			c-53.194,7.542-132.308,20.169-186.308,27.575c-74.151,10.17-148.448,17.655-212.847,60.067
			c-63.392,41.747-119.554,114.839-230.475,102.847l-4.975,2059.078c99.746,0.301,209.591,18.338,310.525,8.92
			c117.262-10.93,233.455-58.975,346.836-88.947c272.048-71.887,535.509-138.763,726.084-360.673
			c126.972-147.847,255.754-284.171,381.652-431.163c47.619-55.593,104.374-112.586,146.258-172.007
			c43.345-61.489,73.137-138.719,104.812-206.837C6990.747,4962.01,7001.684,4833.231,6978.559,4687.83z M5962.546,5935.513
			c-50.831,80.009-181.32,90.701-269.827,54.972c-47.809-19.301-74.374-55.067-116.352-61.918
			c-45.973-7.496-73.428-4.072-119.014-2.926c-18.938,0.476-142.889,29.422-146.91,7.252c-0.783-4.34,23.444-18.159,34.244-22.986
			c22.818-10.188,78.279-14.49,110.266-39.438c39.324-30.667,61.104-62.578,78.683-72.869c28.175-16.486,73.248-16.501,103.896-27.9
			c72.607-27,136.038-41.217,212.392-22.354C5933.607,5768.023,6018.458,5847.507,5962.546,5935.513z"/>
		<path id="_x31_80639226" fill="none" stroke="#010101" stroke-width="80" d="M6715.934,3617.179
			c101.691-102.463,82.993,137.524,86.439,191.375c9.759,152.854,39.4,300.548,25.609,454.851
			c-5.369,60.02-14.377,116.555-29.068,175.067c-18.345,73.048-104.299,375.022-227.406,305.914
			c-141.704-79.55-177.601-410.101-123.232-547.076c47.43-119.507,123.176-222.481,165.938-345.48
			C6641.036,3774.712,6656.266,3677.295,6715.934,3617.179z"/>
		<path id="_x31_80639225" fill="none" stroke="#010101" stroke-width="80" d="M6095.809,5636.281
			c12.605-8.763,25.805-14.466,39.895-15.175c88.029-4.446,8.67,96.933-16.683,124.243
			c-22.308,24.045-136.195,115.872-95.847,155.414c33.509,32.834,109.966-10.104,142.241-25.588
			c57.993-27.817,112.897-51.057,166.487-88.001c85.564-58.983,155.524-153.067,169.496-259.893
			c17.318-132.474-43.404-267.968,5.041-398.099c14.467-38.877,121.198-269.984,40.824-289.25
			c-66.077-15.831-189.863,298.353-203.112,351.076c-14.808,59.037-67.228,160.996-127.244,68.887
			c-4.589-7.043-7.639-14.44-9.421-22.102l-1.391,1.311c-125.739,37.125-206.178,188.195-161.938,319.788
			c10.025,29.821,28.663,54.487,50.82,76.228L6095.809,5636.281z"/>
		<path id="_x31_80639229" fill="none" stroke="#010101" stroke-width="80" d="M5469.619,5184.127
			c9.299,17.119,16.072,36.824,28.072,50.205c17.794,19.838,40.719,34.569,57.924,54.942
			c93.473,110.688,112.346,252.171,26.67,373.386c-77.764,110.008-316.763,208.453-443.461,154.303
			c-135.399-57.867-159.107-264.541-139.442-393.571c10.601-69.531-4.421-174.958,44.405-230.132
			c48.316-54.595,131.774-60.139,198.184-73.106c51.072-9.968,111.857-15.499,161.033,5.153
			c22.455,9.433,41.547,24.562,56.807,43.66C5463.494,5173.575,5466.686,5178.722,5469.619,5184.127z"/>
		<path id="_x31_80639228" fill="none" stroke="#010101" stroke-width="80" d="M5200.05,4511.529
			c-18.112-137.654-77.38-198.606-182.567-213.221c10.109,115.77,45.407,227.139,42.231,346.455
			c-2.882,108.31,21.988,338.485-65.712,419.967l-11.85,11.889c56.979-29.547,102.525-70.369,139.525-132.355
			C5196.77,4818.453,5219.153,4656.701,5200.05,4511.529z"/>
		<path id="_x31_80639227" fill="none" stroke="#010101" stroke-width="80" d="M5059.714,4644.764
			c3.176-119.316-32.122-230.688-42.231-346.455c-29.448-4.09-62.498-4.55-99.254-2.043l-1.484,808.102
			c23.342-8.115,45.101-17.216,65.408-27.748l11.85-11.889C5081.702,4983.249,5056.832,4753.073,5059.714,4644.764z"/>
		<path id="_x31_80639224" fill="none" stroke="#010101" stroke-width="80" d="M5849.923,5747.345
			c-51.099-12.622-96.409-10.431-142.56,0.495c-15.383,3.643-55.946-5.154-76.505-57.303c-20.556-52.15-11.718-95.104-6.595-111.199
			c31.612-99.303,4.037-203.994-68.646-290.068c-17.207-20.37-40.13-35.104-57.924-54.939c-12-13.383-18.773-33.088-28.074-50.207
			c-2.933-5.403-6.123-10.548-9.807-15.158c-15.258-19.1-34.35-34.228-56.807-43.66c-49.174-20.652-109.959-15.123-161.033-5.155
			c-21.812,4.261-45.466,7.716-69.109,12.374c-4.567,0.901-13.345,5.521-24.807,1.471c-13.957-4.932-30.49-18.826-30.49-18.826
			l-48.963-47.226c0,0-18.471-9.757-22.622-21.366c-2.829-7.906,7.411-18.461,9.53-20.381
			c24.723-22.383,46.636-49.207,66.174-81.932c75.09-125.812,97.472-287.566,78.37-432.736
			c-15.278-116.105-59.832-177.645-136.528-202.831c-4.483-1.476-30.076-14.856-30.959-28.195
			c-0.883-13.337,22.951-26.636,29.49-31.05c30.575-20.657,57.197-45.252,85.234-63.718c64.4-42.41,138.695-49.897,212.846-60.067
			c54.001-7.404,133.116-20.035,186.312-27.575c156.268-22.156,283.834,24.405,303.461,177.925
			c7.224,56.441,8.571,102.621,86.617,120.036c74.826,16.692,141.694-34.378,201.742-77.894
			c11.924-8.638,63.236-41.194,94.465,20.561c31.232,61.754,38.103,115.386,37.782,129.975
			c-1.155,52.438,2.891,102.802,12.384,147.704c32.167,152.117,16.567,304.197-25.214,452.736
			c-13.95,49.624-65.418,118.68-49.028,173.034l-2.561-3.066c-125.739,37.127-206.178,188.197-161.938,319.789
			c2.859,8.504,6.422,16.592,10.562,24.311c4.17,7.766,11.826,43.925,2.859,65.646c-11.078,26.839-28.356,59.058-45.381,75.548
			c-19.297,18.697-54.646,32.705-80.766,39.254C5915.861,5767.557,5866.934,5751.55,5849.923,5747.345z"/>
		<path id="_x31_80639230" fill="none" stroke="#010101" stroke-width="80" d="M5310.443,5932.893
			c-0.783-4.34,23.444-18.159,34.244-22.986c22.818-10.188,78.279-14.49,110.266-39.438c39.324-30.667,61.104-62.578,78.683-72.869
			c28.175-16.486,73.248-16.501,103.896-27.9c72.607-27,136.038-41.217,212.392-22.354
			c83.685,20.675,168.535,100.161,112.623,188.168c-50.829,80.008-181.32,90.699-269.827,54.97
			c-47.809-19.301-74.374-55.067-116.352-61.918c-45.973-7.496-73.428-4.07-119.014-2.926
			C5438.416,5926.114,5314.465,5955.062,5310.443,5932.893z"/>
		<path id="_x31_80639231" fill="none" stroke="#010101" stroke-width="80" d="M5310.443,5932.893
			c-0.783-4.34,23.444-18.159,34.244-22.986c22.818-10.188,78.279-14.49,110.266-39.438c39.324-30.667,61.104-62.578,78.683-72.869
			c28.175-16.486,73.248-16.501,103.896-27.9c72.607-27,136.038-41.217,212.392-22.354
			c83.685,20.675,168.535,100.161,112.623,188.168c-50.829,80.008-181.32,90.699-269.827,54.97
			c-47.809-19.301-74.374-55.067-116.352-61.918c-45.973-7.496-73.428-4.07-119.014-2.926
			C5438.416,5926.114,5314.465,5955.062,5310.443,5932.893z"/>
		<path id="_x31_80639300" fill="none" stroke="#010101" stroke-width="80" d="M5057.851,3810.066
			c80.149-13.678,123.281-83.326,167.076-144.725c61.968-86.867,152.022-133.146,231.479-201.184
			c37.836-32.4,63.373-83.729,58.442-131.462c-79.869,38.307-168.769,60.472-225.655,129.679
			c-11.728,14.268-14.938,42.004-17.764,69.882c-2.609,25.694-14.113,53.317-21.59,77.786
			c-21.109,69.064-88.373,2.214-120.402-17.672c-6.547-4.064-15.32-8.527-22.481-10.428c-8.817-2.342-21.497-3.231-29.917,0.448
			c-20.325,8.903-37.568,27.354-47.692,47.185c-20.955,41.051-33.782,92.008-42.038,137.12c-2.424,13.253-1.148,26.739,2.301,39.884
			C5014.883,3812.407,5048.664,3811.634,5057.851,3810.066z"/>
		<path id="_x31_80639301" fill="none" stroke="#010101" stroke-width="80" d="M6711.135,1452.305
			c19.43,7.602,39.08,18.665,58.117,31.424c47.487,31.466,91.907,72.698,123.311,94.727
			c133.869,93.913,273.141,184.457,410.439,273.378c33.528,21.726,66.219,43.992,97.998,66.789
			c157.451,112.841,294.284,238.7,421.203,379.309c15.91,17.75,31.746,35.652,47.428,53.863
			c38.943,45.062,115.566,122.871,182.752,206.654c13.865,17.203,27.268,34.637,39.839,52.146
			c43.009,59.7,76.521,119.675,84.376,170.801c1.871,11.704,2.297,22.942,1.21,33.638c-1.479,14.463-6.055,52.7-13.545,102.548
			c-3.118,1.22-5.175,3.523-5.714,7.063c-5.787,36.076-7.914,68.395-10.553,90.783c0,0.154-0.002,0.23-0.076,0.384
			c-1.848,10.306-3.774,20.691-5.848,31.151c-7.143,31.61-12.911,59.838-18.443,86.062c-0.002,0.077-0.002,0.231-0.078,0.385
			c-17.345,73.062-38.555,141.185-63.196,182.67c-16.629,27.886-34.826,43.763-54.497,40.932c-0.988-0.159-1.973-0.314-2.961-0.625
			c-0.078,0-0.15-0.078-0.15-0.078c-12.148-4.346-24.424-16.313-37.755-34.056c-11.89-15.812-24.681-36.167-38.983-59.684
			c-84.073-138.555-168.599-278.802-247.821-412.494c-60.531-102.155-99.884-230.03-164.439-333.354
			c-15.588-24.982-32.247-49.044-49.588-72.803c-16.126-23.752-33.696-47.124-52.786-70.039c-0.15-0.153-0.227-0.23-0.303-0.385
			c-33.396-43.508-67.558-87.788-99.881-136.369c-108.859-163.717-233.546-315.094-362.422-462.863
			c-51.521-59.034-107.994-113.152-169.188-161.132c-5.385-4.171-10.771-8.344-16.23-12.517
			c-15.546-11.746-33.826-24.346-51.876-38.252c-3.64-2.783-7.28-5.564-10.844-8.498c-7.204-5.717-14.256-11.742-21.002-17.921
			c-1.671-1.543-3.335-3.089-5.004-4.71c-1.972-1.853-3.942-3.78-5.837-5.713c-2.879-2.933-5.684-5.943-8.336-8.954
			c-1.517-1.695-3.029-3.395-4.393-5.092c-1.291-1.544-2.577-3.086-3.79-4.63c-2.874-3.703-5.603-7.405-8.177-11.262
			c-1.211-1.85-2.348-3.7-3.48-5.552c-0.002-0.076-0.077-0.152-0.154-0.23c-2.192-3.623-4.16-7.324-5.975-11.101
			c-2.49-5.163-4.607-10.481-6.34-15.951c-1.51-4.7-2.638-9.551-3.459-14.478c8.594-3.668,17.334-5.796,26.381-6.617
			c13.674-1.19,27.806,0.546,42.152,4.593C6699.139,1447.806,6705.139,1449.903,6711.135,1452.305z"/>
		<path id="_x31_80639302" fill="none" stroke="#010101" stroke-width="80" d="M4916.873,4265.494
			c83.02,28.197,167.085-61.1,230.475-102.844c64.398-42.412,138.692-49.901,212.846-60.068
			c100.085-13.723,156.617-8.665,251.774-54.023c104.829-49.969,128.335-108.026,3.13-153.123
			c-111.448-40.14-260.134-56.824-364.307,5.999c-81.887,49.379-173.779,106.35-231.793-18.294
			c-20.035-43.045-34.83-93.31-101.023-74.275L4916.873,4265.494z"/>
		<path id="_x31_80639303" fill="none" stroke="#010101" stroke-width="80" d="M6884.31,2803.327
			c-8.534-78.429-10.121-153.811-33.744-229.82c-25.328-81.486-54.503-155.268-81.911-212.325
			c-35.451-73.786-134.241-204.993-167.089-244.046c-40.782-28.132-125.229-47.914-104.19,33.598
			c9.014,34.932,55.455,66.648,76.223,95.116c75.836,103.908,140.107,307.111,142.37,436.25
			c1.253,71.262-27.71,144.03-11.958,215.053c13.979,63.022,40.433,83.1,97.512,61.86
			C6830.436,2948.251,6892.021,2874.206,6884.31,2803.327z"/>
		<path id="_x31_80639304" fill="none" stroke="#010101" stroke-width="80" d="M5388.722,4392.627
			c10.304-69.23-28.044-174.371-85.692-172.133c-48.656,1.887-50.952,95.511-61.094,130.648
			c-30.925,107.043-38.241,178.135-18.422,287.263c27.979,154.052,73.008,104.395,126.568,23.47
			C5365.336,4638.838,5370.358,4516.027,5388.722,4392.627z"/>
		<path id="_x31_80639305" fill="none" stroke="#010101" stroke-width="80" d="M4911.844,6347.662
			c99.746,0.299,209.591,18.336,310.524,8.918c117.261-10.93,233.456-58.977,346.837-88.947
			c272.046-71.887,535.507-138.763,726.082-360.673c126.972-147.849,255.756-284.169,381.653-431.163
			c47.618-55.593,104.371-112.586,146.259-172.007c43.343-61.489,73.135-138.717,104.811-206.837
			c62.739-134.943,73.674-263.723,50.549-409.123c-8.361-52.551-20.129-103.014-30.615-154.469
			c-37.408-183.596-39.061-361.172-53.982-546.174c-11.111-137.715-6.202-274.473-36.25-410.582
			c-9.428-42.696-24.754-80.177-23.32-122.38c-139.919-114.986-252.465,270.961-274.479,345.675
			c-33.923,115.107-87.798,157.36-159.269,249.1c-110.174,141.43-154.246,394.78-117.742,567.394
			c32.165,152.119,16.565,304.197-25.212,452.738c-15.522,55.204-77.464,134.45-40.779,190.765
			c60.017,92.105,112.435-9.85,127.242-68.885c13.249-52.724,137.035-366.909,203.114-351.078
			c80.374,19.268-26.357,250.375-40.824,289.25c-48.445,130.129,12.277,265.623-5.041,398.099
			c-13.972,106.825-83.934,200.909-169.496,259.893c-53.591,36.946-108.498,60.182-166.511,88.017
			c-114.284,54.824-255.563,139.434-385.218,134.852c-55.574-1.965-87.902-13.869-135.512-46.637
			c-29.882-20.556-71.439-45.117-116.401-38.835c-46.489,6.496-79.842,0.706-124.146,10.687
			c-18.111,4.076-142.16,17.137-70.824-19.385c26.25-13.447,59.242-18.587,86.83-30.071c27.7-11.546,95.441-39.243,72.98-85.749
			c-15.893-32.881-86.41-1.015-110.722,4.475c-66.239,14.947-138.544,40.051-206.763,24.131
			c-60.398-14.102-108.508-52.91-151.534-96.111c-36.153-36.299-56.369-77.665-111.53-72.146
			C4913.416,5695.999,4913.74,6347.666,4911.844,6347.662z M6715.934,3617.179c101.691-102.463,82.993,137.524,86.439,191.375
			c9.759,152.854,39.4,300.548,25.609,454.851c-5.369,60.02-14.377,116.555-29.068,175.067
			c-18.345,73.048-104.299,375.022-227.406,305.914c-141.704-79.55-177.601-410.101-123.232-547.076
			c47.43-119.507,123.176-222.481,165.938-345.48C6641.036,3774.712,6656.266,3677.295,6715.934,3617.179z"/>
		<path id="_x31_80639306" fill="none" stroke="#010101" stroke-width="80" d="M6412.295,1839.539
			c-18.484-28.724-39.236-55.679-61.819-81.106l-1.747-0.099c-41.65-3.398-86.535-2.243-106.459,38.158l-1.604,1.666
			c55.837,68.521,121.481,141.868,172.67,209.208c10.105,13.296,28.465,31.501,42.002,47.501
			c19.064,22.536,32.328,41.324,32.328,41.324s23.34-53.203,32.638-78.611C6463.026,1942.244,6443.406,1887.886,6412.295,1839.539z"
			/>
		<path id="_x31_80639299" fill="none" stroke="#010101" stroke-width="80" d="M4921.352,2411.586
			c22.232,0.91,17.203,27.812,18.727,42.826c3.328,32.686,15.561,63.919,31.435,92.448c11.467,20.612,21.937,34.673,36.593,52.701
			c20.684,25.436,5.176,43.415-7.754,65.392c-14.455,24.553-31.857,59.052-44.524,84.524c-8.007,16.093-17.456,42.457-35.415,49.917
			L4921.352,2411.586z"/>
	</g>
</g>
</svg>
