<svg width="10880" height="7728" xmlns="http://www.w3.org/2000/svg">
<g transform="scale(1.0)">
<g id="180638866" order="1" parent_id="" graphic_group_label_id="28" graphic_group_label="Atlas - Adult Mouse" sub_image_id="100966108" transform=" scale(1.0, 1.0)"><path id="180638868" parent_id="180638866" order="0" structure_id="8" d="M5671.934,7395.307
			c186.242,16.283,377.188,37.545,559.643-16.729c179.725-53.45,324.111-154.631,486.314-245.488
			c138.313-77.483,276.852-156.082,400.987-255.781c161.474-129.684,325.888-191.645,443.198-370.119
			c113.688-172.973,226.016-373.811,205.406-587.586c-10.495-108.932-67.698-216.469-55.188-327.682
			c6.479-57.588,41.203-101.359,50.771-158.627c13.243-79.311,9.74-167.021,3.729-246.834
			c-10.826-143.274-31.278-293.537-1.619-435.274c22.602-107.959,75.104-194.754,122.758-292.176
			c55.729-113.922,85.332-243.753,94.447-376.249c-6.995,101.593,24.805,181.129,38.578,278.671
			c14.557,103.078,18.652,207.287,28.788,310.84c5.563,56.724,26.295,114.767,26.278,171.751
			c-0.002,58.324-16.647,116.924-16.795,176.178c-0.291,125.074,25.311,256.848,51.785,378.399
			c61.959,284.538,108.068,599.351,299.736,829.495c101.772,122.182,242.811,172.869,390.135,175.268
			c76.457,1.248,154.6-10.506,229.816-31.998c152.4-43.571,307.426-112.521,451.637-178.83
			c228.219-104.945,450.66-257.623,609.984-452.248c125.457-153.217,156.586-330.014,186.184-519.709
			c28.277-181.287,44.814-426.435-17.941-600.502c-32.404-89.873-68.863-211.045-38.996-306.642
			c14.98-47.967,42.156-69.765,68.266-110.267c29.021-45.043,46.639-98.354,66.896-147.733
			c87.264-212.774,37.006-453.937-52.326-655.586c-80.68-182.139-161.609-383.101-270.965-546.587
			c-75.332-112.634-163.828-220.654-256.842-318.9c-123.998-130.948-230.588-223.363-315.365-388.031
			c-90.676-176.112-231.879-320.639-374.848-453.976c-295.295-275.442-661.922-434.939-1034.473-577.724
			c-130.92-50.182-261.34-109.181-397.558-143.51c-160.84-40.526-334.653-52.644-499.522-44.45
			c-61.979,3.076-123.979,5.521-185.996,7.771c-143.842,5.209-295.352,22.771-436.457,50.869
			c-29.826,5.974-59.264,13.667-88.111,23.272c-57.566,19.168-112.846,45.632-161.639,82.25
			c-173.028,129.826-110.422,387.51,34.836,508.977c-19.763-16.53-40.666-30.414-63.494-36.821
			c-114.037-32.008-269.694,67.093-331.136,155.369L5671.934,7395.307z" style="stroke:black;fill:#bfdae3"/><path id="180638869" parent_id="180638866" order="1" structure_id="688" d="M10289.803,4203.857
			c29.029-45.043,46.639-98.349,66.896-147.728c87.264-212.772,37.012-453.935-52.316-655.585
			c-80.68-182.14-161.617-383.104-270.967-546.591c-75.338-112.634-163.832-220.655-256.85-318.901
			c-123.988-130.947-230.578-223.363-315.355-388.031c-90.676-176.11-231.877-320.638-374.857-453.975
			c-295.295-275.445-661.92-434.939-1034.463-577.725c-130.92-50.182-261.348-109.18-397.564-143.509
			c-160.834-40.526-334.647-52.643-499.518-44.45c-61.984,3.076-123.982,5.521-186.004,7.771
			c-143.839,5.209-295.348,22.766-436.454,50.869c-29.819,5.974-59.265,13.666-88.112,23.271
			c-57.561,19.169-112.848,45.632-161.638,82.251c-173.021,129.826-110.423,387.51,34.842,508.979
			c27.39,22.906,52.623,50.884,77.823,71.097c185.093,148.453,412.17,248.468,587.249,411.446
			c111.481,103.768,234.479,191.582,314.694,322.505c83.879,136.886,138.856,288.769,213.973,430.343
			c73.846,139.188,156.657,272.967,241.619,405.262c83.73,130.364,151.105,245.411,189.021,397.164
			c34.646,138.674,50.973,293.649,40.533,445.131c-6.994,101.602,24.797,181.129,38.576,278.674
			c14.551,103.084,18.646,207.291,28.783,310.834c5.562,56.728,26.293,114.775,26.285,171.752
			c-0.01,58.326-16.655,116.924-16.793,176.179c-0.293,125.074,25.309,256.849,51.774,378.407
			c61.96,284.537,108.069,599.346,299.738,829.486c101.779,122.191,242.819,172.869,390.132,175.272
			c76.465,1.251,154.602-10.503,229.82-32.005c152.398-43.57,307.434-112.512,451.637-178.82
			c228.227-104.944,450.66-257.629,609.992-452.248c125.451-153.221,156.578-330.014,186.176-519.717
			c28.275-181.287,44.822-426.434-17.941-600.494c-32.406-89.883-68.854-211.045-39-306.646
			C10236.525,4266.165,10263.701,4244.369,10289.803,4203.857z M9418.127,4754.229c-32.141,95.471-59.506,196.91-110.865,284.261
			c-26.52,44.931-121.354,190.796-160.832,153.243c-5.311-5.075-9.648-13.443-12.654-25.839c-1.264-5.062-1.393-11.487-0.641-19.128
			c0.137-1.245,0.279-2.573,0.42-3.9c0.227-1.408,0.457-2.898,0.693-4.473c0.328-1.82,0.664-3.809,1.082-5.79
			c0.541-2.896,1.164-5.786,1.959-8.836c0.314-1.487,0.715-3.054,1.113-4.62c15.49-60.771,58.125-150.684,71.23-178.118
			c95.539-201.045,130.221-320.338,167.188-496.991c21.992-105.1,26.914-235.152,23.891-331.201
			c-5.076-158.023-48.496-317.604-112.68-465.271c-93.344-214.949-282.602-390.502-464.801-529.459
			c-31.168-23.75-63.59-48.977-97.945-69.703c-48.605-29.205-101-49.238-158.924-43.25c-96.101,10.03-199.456,70.192-292.936,15.286
			c-63.846-37.563-140.152-112.798-179.843-175.464c-3.938-6.182-7.876-12.447-11.729-18.708
			c-22.539-35.791-45.19-72.754-68.35-109.49c-1.159-1.803-2.24-3.52-3.398-5.323c-98.821-158.314-204.619-319.528-341.269-440.593
			c-3.976-3.514-10.124-8.294-17.722-13.973c-48.932-36.726-157.313-113.318-123.927-162.194c3.002-4.369,7.067-8.522,12.44-12.369
			c3.584-2.591,7.525-3.916,11.674-4.313c7.629-0.659,15.938,1.967,24.265,6.093c14.546,7.325,28.881,19.396,38.405,26.328
			c10.086,7.292,20.172,14.584,30.172,21.956c110.121,80.174,216.922,162.617,327.869,242.828
			c88.61,64.112,188.309,107.288,277.382,172.171c97.231,70.921,205.487,137.25,304.258,210.742
			c38.706,28.844,75.882,58.702,110.415,90.362c126.393,115.767,258.195,226.854,384.113,344.019
			c62.205,57.839,123.025,117.2,181.158,179.358c44.559,47.789,89.809,126.719,119.902,185.95
			c31.314,61.539,59.418,124.686,83.33,189.229c33.436,90.157,58.9,183.127,74.354,278.315
			c5.781,35.538,10.145,71.348,13.008,107.506c-0.18-0.133-0.266-0.262-0.297-0.353l0.449,2.526
			C9535.773,4337.081,9482.131,4563.943,9418.127,4754.229z" style="stroke:black;fill:#b0ffb8"/><path id="180638937" parent_id="180638866" order="2" structure_id="421" d="M9809.852,2571.006l-0.945,0.875l-93.41,76.205
			c-84.189-106.197-168.281-212.726-238.164-326.789c-68.648-112.089-137.102-223.002-215.199-326.842l56.375-60.688
			c54.402,66.246,103.328,136.75,142.734,213.248c84.746,164.688,191.352,257.131,315.34,388.052
			C9787.789,2546.913,9798.826,2558.834,9809.852,2571.006z" style="stroke:black;fill:#08858c"/><path id="180638936" parent_id="180638866" order="3" structure_id="973" d="M9715.496,2648.086l-206.783,168.694
			c-29.307-32.175-57.604-64.806-83.557-98.08c-129.549-165.866-228.238-349.612-359.135-512.954l196.111-211.292
			c78.098,103.84,146.551,214.753,215.199,326.842C9547.215,2435.36,9631.307,2541.888,9715.496,2648.086z" style="stroke:black;fill:#08858c"/><path id="180638935" parent_id="180638866" order="4" structure_id="573" d="M9508.713,2816.78l-67.271,54.86
			c-39.141-41.457-84.516-93.202-116.199-135.158c-116.037-153.833-212.049-299.094-333.91-450.104
			c-0.078-0.087-0.078-0.087-0.074-0.17l74.762-80.462c130.898,163.342,229.586,347.087,359.135,512.954
			C9451.109,2751.977,9479.406,2784.605,9508.713,2816.78z" style="stroke:black;fill:#08858c"/><path id="180638934" parent_id="180638866" order="5" structure_id="613" d="M9441.441,2871.64l-198.215,161.74
			c-140.104-181.187-309.777-336.343-486.844-494.252l234.875-252.919c-0.004,0.083-0.004,0.083,0.076,0.17
			c121.861,151.009,217.873,296.27,333.908,450.104C9356.926,2778.438,9402.303,2830.184,9441.441,2871.64z" style="stroke:black;fill:#08858c"/><path id="180638933" parent_id="180638866" order="6" structure_id="74" d="M9243.227,3033.38l-136.598,111.379
			c-150.639-165.229-326.037-312.303-502.725-441.421l152.479-164.21C8933.449,2697.037,9103.121,2852.194,9243.227,3033.38z" style="stroke:black;fill:#08858c"/><path id="180638932" parent_id="180638866" order="7" structure_id="121" d="M9106.629,3144.759l-58.445,47.75
			c-125.918-117.163-257.723-228.252-384.113-344.019c-34.535-31.659-71.711-61.52-110.416-90.362l2.545-3.389l47.705-51.402
			C8780.592,2832.456,8955.99,2979.531,9106.629,3144.759z" style="stroke:black;fill:#08858c"/><path id="180638943" parent_id="180638866" order="8" structure_id="593" d="M9318.508,1933.768l-56.375,60.688
			c-50.707-67.581-105.508-132.26-167.043-192.236c-95.9-93.547-231.301-171.854-345-240.262
			c-236.417-142.059-470.098-263.811-738.917-332.512c-110.108-28.13-217.276-59.298-323.567-100.936
			c-31.422-12.336-63.49-25.036-96.174-36.929l-7.392-135.527c23.667,4.649,47.146,9.874,70.345,15.752
			c136.188,34.307,266.573,93.372,397.518,143.538c372.521,142.749,739.182,302.249,1034.465,577.727
			C9167.209,1768.51,9247.563,1847.514,9318.508,1933.768z" style="stroke:black;fill:#08858c"/><path id="180638942" parent_id="180638866" order="9" structure_id="821" d="M9262.133,1994.455l-196.111,211.292
			c-36.088-45.073-74.643-88.589-117.018-129.774c-256.535-249.466-466.063-342.026-804.557-486.5
			c-150.074-64.036-277.778-125.818-486.207-198.396c-16.599-5.75-33.848-11.695-51.514-17.576l-15.296-281.919
			c32.683,11.893,64.751,24.592,96.174,36.929c106.291,41.637,213.458,72.806,323.567,100.936
			c268.818,68.702,502.5,190.454,738.918,332.512c113.699,68.408,249.098,146.714,345,240.262
			C9156.625,1862.195,9211.426,1926.874,9262.133,1994.455z" style="stroke:black;fill:#08858c"/><path id="180638941" parent_id="180638866" order="10" structure_id="721" d="M9066.021,2205.747l-74.764,80.462
			c-128.129-158.713-228.797-226.62-414.163-314.509c-110.282-52.241-259.147-145.498-380.787-200.584
			c-137.433-62.218-238.911-108.06-400.978-179.224c-58.588-25.732-118.86-46.956-180.275-66.644l-8.327-151.749
			c17.666,5.88,34.915,11.826,51.513,17.576c208.43,72.578,336.133,134.359,486.207,198.396
			c338.494,144.475,548.021,237.035,804.559,486.501C8991.379,2117.158,9029.934,2160.673,9066.021,2205.747z" style="stroke:black;fill:#08858c"/><path id="180638940" parent_id="180638866" order="11" structure_id="778" d="M8991.258,2286.208l-234.875,252.919
			c-47.365-42.243-95.215-84.759-143.199-127.947c-126.71-114.195-297.139-196.16-440.561-291.091
			c-113.321-75.063-236.103-132.37-352.479-201.897c-61.488-36.707-125.15-82.184-190.734-128.998l-14.355-263.945
			c61.415,19.688,121.688,40.911,180.275,66.644c162.065,71.164,263.545,117.005,400.978,179.224
			c121.64,55.087,270.505,148.343,380.787,200.584C8762.461,2059.589,8863.129,2127.495,8991.258,2286.208z" style="stroke:black;fill:#08858c"/><path id="180638939" parent_id="180638866" order="12" structure_id="33" d="M8756.383,2539.128l-152.479,164.21
			c-86.583-63.27-173.44-122.216-257.843-176.881c-233.457-151.101-456.821-291.321-685.159-449.864
			c-5.29-3.657-10.836-7.159-16.475-10.415l-15.019-276.985c65.585,46.815,129.247,92.292,190.735,128.998
			c116.375,69.529,239.155,126.835,352.479,201.898c143.421,94.93,313.85,176.896,440.559,291.091
			C8661.168,2454.369,8709.018,2496.885,8756.383,2539.128z" style="stroke:black;fill:#08858c"/><path id="180638938" parent_id="180638866" order="13" structure_id="305" d="M8603.904,2703.338l-47.705,51.402l-2.545,3.389
			c-98.771-73.492-207.026-139.821-304.258-210.742c-89.073-64.883-188.771-108.059-277.382-172.171
			c-110.946-80.211-217.747-162.653-327.869-242.827l3.612-5.093l-3.33-61.116c5.639,3.256,11.185,6.758,16.475,10.414
			c228.337,158.543,451.702,298.765,685.159,449.864C8430.464,2581.123,8517.321,2640.068,8603.904,2703.338z" style="stroke:black;fill:#08858c"/><path id="180638949" parent_id="180638866" order="14" structure_id="805" d="M7584.04,956.054l7.392,135.527
			c-85.931-31.298-176.141-57.367-269.807-57.57c-78.468-0.188-135.141,27.959-206.326,42.444l-65.98-144.413
			c35.172-1.423,70.346-2.93,105.53-4.686C7295.919,920.347,7443.602,928.23,7584.04,956.054z" style="stroke:black;fill:#08858c"/><path id="180638948" parent_id="180638866" order="15" structure_id="41" d="M7591.432,1091.581l15.297,281.919
			c-99.955-33.596-214.203-67.167-320.735-79.04c-10.767-1.234-40.801-1.999-71.201-0.111l-99.492-217.894
			c71.187-14.484,127.858-42.631,206.326-42.444C7415.291,1034.214,7505.501,1060.283,7591.432,1091.581z" style="stroke:black;fill:#08858c"/><path id="180638947" parent_id="180638866" order="16" structure_id="501" d="M7606.729,1373.5l8.326,151.749
			c-103.852-33.271-211.035-62.187-318.274-101.031c-6.183-2.196-15.771-5.796-27.383-10.321l-54.604-119.548
			c30.399-1.888,60.435-1.123,71.201,0.111C7392.525,1306.333,7506.771,1339.904,7606.729,1373.5z" style="stroke:black;fill:#08858c"/><path id="180638946" parent_id="180638866" order="17" structure_id="565" d="M7615.055,1525.249l14.355,263.945
			c-86.721-62.025-176.65-126.197-268.656-175.199l-91.357-200.098c11.613,4.524,21.201,8.125,27.383,10.32
			C7404.02,1463.063,7511.203,1491.979,7615.055,1525.249z" style="stroke:black;fill:#08858c"/><path id="180638945" parent_id="180638866" order="18" structure_id="257" d="M7629.41,1789.193l15.02,276.984
			c-29.72-17.264-63.172-28.523-91.385-31.292l-192.291-420.892C7452.759,1662.997,7542.689,1727.168,7629.41,1789.193z" style="stroke:black;fill:#08858c"/><path id="180638944" parent_id="180638866" order="19" structure_id="469" d="M7644.43,2066.179l3.328,61.117l-3.611,5.092
			c-10-7.372-20.086-14.664-30.172-21.956c-9.523-6.933-23.859-19.003-38.404-26.328l-22.523-49.218
			C7581.257,2037.654,7614.71,2048.915,7644.43,2066.179z" style="stroke:black;fill:#08858c"/><path id="180638954" parent_id="180638866" order="20" structure_id="671" d="M7049.318,932.042l65.979,144.413
			c-58.511,11.801-126.858,14.404-225.24-15.536c-59.746-18.195-123.757-18.401-187.685-13.016l-66.25-80.372
			c110.054-17.326,223.635-28.489,332.681-32.351C6995.693,934.221,7022.505,933.173,7049.318,932.042z" style="stroke:black;fill:#1aa698"/><path id="180638953" parent_id="180638866" order="21" structure_id="965" d="M7115.299,1076.455l99.492,217.894
			c7.87,17.23,9.371,20.517,17.338,37.959c0.463,1.015-77.629-11.141-96.934-14.511l-3.01-1.053
			c-91.982-23.313-188.269-91.356-282.623-100.264c-2.224-0.184-5.346-0.574-9.205-1.082l-137.983-167.495
			c63.929-5.387,127.938-5.181,187.685,13.016C6988.439,1090.858,7056.788,1088.256,7115.299,1076.455z" style="stroke:black;fill:#1aa698"/><path id="180638952" parent_id="180638866" order="22" structure_id="774" d="M7269.396,1413.896l91.356,200.099
			c-64.158-34.24-129.304-61.103-195.034-74.729c-23.083-4.79-44.313-6.66-63.423-6.018l-261.938-317.849
			c3.859,0.507,6.981,0.896,9.205,1.081c94.354,8.907,193.649,78.003,285.633,101.315l96.934,14.511
			c6.716,14.702,4.686,10.258,17.375,38.038C7260.198,1393.759,7263.326,1400.608,7269.396,1413.896z" style="stroke:black;fill:#1aa698"/><path id="180638951" parent_id="180638866" order="23" structure_id="906" d="M7360.754,1613.995l192.291,420.892
			c-13.4-1.436-25.654-0.817-35.688,1.9l-415.062-503.539c19.11-0.643,40.34,1.229,63.423,6.018
			C7231.45,1552.893,7296.596,1579.754,7360.754,1613.995z" style="stroke:black;fill:#1aa698"/><path id="180638950" parent_id="180638866" order="24" structure_id="279" d="M7553.045,2034.886l22.523,49.218
			c-8.326-4.125-16.637-6.752-24.266-6.093l-33.945-41.224C7527.391,2034.068,7539.645,2033.45,7553.045,2034.886z" style="stroke:black;fill:#1aa698"/><path id="180638959" parent_id="180638866" order="25" structure_id="442" d="M6636.125,967.531l66.249,80.372
			c-37.312,3.161-74.627,8.24-110.931,12.866c-155.67,19.615-341.326,149.476-293.045,337.379c2.115,8.186,4.655,16.14,7.611,24.028
			c26.051,68.476,84.223,126.05,145.781,176.104l-213.641-98.583l-3.737,2.334c-78.452-131.379-86.272-309.542,48.212-410.508
			c48.785-36.592,104.063-63.051,161.659-82.23c28.842-9.631,58.259-17.317,88.099-23.316
			C6566.466,979.249,6601.104,973.048,6636.125,967.531z" style="stroke:black;fill:#1aa698"/><path id="180638958" parent_id="180638866" order="26" structure_id="434" d="M6909.264,1809.48l-277.592-128.146l-179.879-83.054
			c-53.154-36.498-38.994-28.503-82.926-77.433c-28.976-32.242-36.891-37.35-55.367-79.349l-7.488-19.322
			c-2.956-7.889-5.496-15.843-7.611-24.027c-1.51-5.872-2.789-11.688-3.85-17.444c-32.857-178.469,146.088-300.934,296.895-319.936
			c36.304-4.625,73.619-9.704,110.931-12.866l137.983,167.496c-60.996-8.577-314.324-52.146-377.463,58.778
			c-46.748,82.054,28.181,197.845,77.588,253.691c63.883,72.259,242.746,168.947,313.931,233.027
			C6872.285,1777.045,6890.652,1793.216,6909.264,1809.48z" style="stroke:black;fill:#1aa698"/><path id="180638957" parent_id="180638866" order="27" structure_id="610" d="M7351.275,2013.482l-442.013-204.001
			c-18.61-16.266-36.979-32.437-54.851-48.584c-71.185-64.08-250.047-160.77-313.931-233.027
			c-49.408-55.847-124.336-171.638-77.589-253.691c63.141-110.925,316.467-67.355,377.464-58.778l261.938,317.849
			c-97.353,2.801-139.705,69.539-87.381,147.284c75.035,111.459,180.756,197.772,283.254,282.275
			C7316.659,1978.066,7334.241,1995.203,7351.275,2013.482z" style="stroke:black;fill:#1aa698"/><path id="180638956" parent_id="180638866" order="28" structure_id="274" d="M7102.297,1533.248l415.061,503.539
			c-19.227,5.142-30.621,18.141-27.246,40.811l-138.836-64.114c-17.033-18.28-34.615-35.416-53.104-50.675
			c-102.497-84.502-208.218-170.816-283.254-282.276C6962.593,1602.787,7004.945,1536.049,7102.297,1533.248z" style="stroke:black;fill:#1aa698"/><path id="180638955" parent_id="180638866" order="29" structure_id="330" d="M7517.357,2036.787l33.945,41.224
			c-4.146,0.397-8.089,1.722-11.673,4.313c-5.374,3.846-9.438,8-12.44,12.369l-37.078-17.096
			C7486.734,2054.927,7498.131,2041.928,7517.357,2036.787z" style="stroke:black;fill:#1aa698"/><path id="180638964" parent_id="180638866" order="30" structure_id="542" d="M7472.688,2526.02c-1.272,0.776-2.539,1.387-3.809,2.08
			c-42.645,22.855-79.154,43.401-57.578,99.082c0.146,0.425,0.372,0.935,0.52,1.358c-34.969-76.048-70.869-151.555-114.631-222.994
			c-80.209-130.874-203.209-218.715-314.687-322.469c-175.024-162.988-402.147-263.011-587.233-411.438
			c-25.209-20.23-50.406-48.218-77.811-71.133c-32.343-27.057-60.587-60.852-83.045-98.474l3.736-2.334l213.642,98.583
			c37.79,30.888,76.949,58.834,110.74,84.873c195.321,150.471,398.838,274.372,583.067,451.534
			C7267.545,2252.005,7379.164,2384.289,7472.688,2526.02z" style="stroke:black;fill:#1aa698"/><path id="180638963" parent_id="180638866" order="31" structure_id="606" d="M7492.619,2506.814l3.52,6.33
			c-7.801,4.57-15.67,8.804-23.451,12.875c-93.522-141.73-205.143-274.015-327.088-391.334
			c-184.229-177.161-387.746-301.063-583.066-451.533c-33.791-26.038-72.95-53.985-110.74-84.873l140.859,65.041
			c24.609,16.952,49.737,33.426,74.934,50.236c156.318,104.017,291.503,202.163,432.504,329.429
			c129.8,117.17,179.893,172.464,302.098,313.813C7443.445,2404.523,7480.395,2482.496,7492.619,2506.814z" style="stroke:black;fill:#1aa698"/><path id="180638962" parent_id="180638866" order="32" structure_id="430" d="M7561.441,2467.286
			c-13.854,8.802-27.074,18.217-39.322,28.092c-8.139,6.558-16.986,12.415-25.98,17.767l-3.52-6.33
			c-12.227-24.318-49.174-102.291-90.434-150.016c-122.205-141.35-172.297-196.643-302.098-313.813
			c-141.001-127.266-276.186-225.412-432.504-329.428c-25.195-16.812-50.323-33.286-74.934-50.237l316.611,146.16
			c186.518,162.753,404.26,332.997,551.645,527.02C7494.398,2380.54,7527.996,2424.083,7561.441,2467.286z" style="stroke:black;fill:#1aa698"/><path id="180638961" parent_id="180638866" order="33" structure_id="687" d="M8010.104,2711.452
			c-36.52-57.771-74.461-115.104-115.195-167.224c-48.404-61.723-107.204-191.051-171.909-160.596
			c-52.812,24.901-111.39,51.294-161.558,83.653c-33.445-43.203-67.043-86.747-100.533-130.786
			c-147.385-194.022-365.127-364.266-551.646-527.02l442.013,204.001c69.328,74.255,130.039,165.971,211.469,214.999l87.493,29.617
			l0.879-1.211c7.597,5.679,13.746,10.459,17.722,13.973C7805.486,2391.924,7911.283,2553.137,8010.104,2711.452z" style="stroke:black;fill:#1aa698"/><path id="180638960" parent_id="180638866" order="34" structure_id="590" d="M7490.111,2077.598l37.078,17.096
			c-33.387,48.875,74.994,125.468,123.927,162.193l-0.879,1.211l-87.493-29.617c-81.43-49.026-142.141-140.743-211.469-214.998
			L7490.111,2077.598z" style="stroke:black;fill:#1aa698"/><path id="180638931" parent_id="180638866" order="35" structure_id="97" d="M10382.668,3637.67l-119.719,13.557
			c-17.516-84.021-50.711-166.496-96.531-251.206c-51.998-96.329-74.547-204.764-121.414-303.196
			c-45.813-96.053-120.178-174.119-182.664-259.243c-46.984-63.994-96.914-126.703-146.844-189.495l93.41-76.205l0.945-0.875
			c80.85,88.367,157.338,183.794,223.584,282.932c109.33,163.541,190.24,364.504,270.994,546.61
			C10337.551,3475.346,10365.316,3555.491,10382.668,3637.67z" style="stroke:black;fill:#15b0b3"/><path id="180638930" parent_id="180638866" order="36" structure_id="1127" d="M10262.949,3651.227l-220.094,25.063
			c4.275-3.311,6.879-11.784,7.539-26.684c4.51-102.049-88.801-274.795-131.346-345.763
			c-75.932-126.678-142.832-212.917-246.172-317.558c-53.607-54.283-110.666-110.891-164.164-169.506l206.783-168.693
			c49.93,62.792,99.859,125.501,146.844,189.494c62.486,85.125,136.852,163.191,182.664,259.243
			c46.867,98.435,69.416,206.868,121.414,303.197C10212.238,3484.73,10245.434,3567.205,10262.949,3651.227z" style="stroke:black;fill:#15b0b3"/><path id="180638929" parent_id="180638866" order="37" structure_id="234" d="M10050.395,3649.605
			c-0.66,14.898-3.264,23.373-7.539,26.684l-8.223,0.965c-44.762-15.188-171-302.672-197.416-346.06
			c-101.729-167.286-242.951-302.567-378.318-441.423c-5.613-5.757-11.455-11.856-17.457-18.132l67.273-54.86
			c53.498,58.615,110.555,115.223,164.164,169.506c103.34,104.64,170.238,190.879,246.172,317.558
			C9961.594,3374.811,10054.904,3547.557,10050.395,3649.605z" style="stroke:black;fill:#15b0b3"/><path id="180638928" parent_id="180638866" order="38" structure_id="289" d="M10016.869,3679.208l-449.24,51.135
			c-16.527-69.048-36.125-137.733-58.799-205.975c-63.006-189.316-155.107-348.247-265.604-490.989l198.215-161.74
			c6.002,6.275,11.844,12.375,17.457,18.133c135.367,138.854,276.59,274.136,378.318,441.422
			c26.416,43.388,152.654,330.873,197.416,346.06L10016.869,3679.208z" style="stroke:black;fill:#15b0b3"/><path id="180638927" parent_id="180638866" order="39" structure_id="729" d="M9567.629,3730.343l-90.08,10.218
			c-75.709-219.578-209.016-418.141-370.92-595.802l136.598-111.379c110.496,142.742,202.598,301.673,265.604,490.989
			C9531.504,3592.609,9551.102,3661.295,9567.629,3730.343z" style="stroke:black;fill:#15b0b3"/><path id="180638926" parent_id="180638866" order="40" structure_id="786" d="M9477.549,3740.561l-39.934,4.545l-5.041,1.941
			c-23.914-64.543-52.016-127.689-83.332-189.229c-30.094-59.231-75.342-138.16-119.902-185.949
			c-58.133-62.16-118.951-121.521-181.156-179.359l58.445-47.75C9268.533,3322.42,9401.84,3520.982,9477.549,3740.561z" style="stroke:black;fill:#15b0b3"/><path id="180638917" parent_id="180638866" order="41" structure_id="335" d="M9622.32,4047.893
			c5.215,48.357,9.023,96.818,11.494,145.554c-25.936-13.175-48.717-24.79-66.883-34.278l1.174-2.283
			c-16.529-33.437-14.268-80.873-18.02-123.076L9622.32,4047.893z" style="stroke:black;fill:#0e9684"/><path id="180638916" parent_id="180638866" order="42" structure_id="368" d="M9568.105,4156.883l-1.174,2.283
			c-27.697-14.422-44.869-23.95-46.998-26.297c-2.861-36.159-7.227-71.968-13.008-107.506l43.16,8.443
			C9553.838,4076.01,9551.576,4123.447,9568.105,4156.883z" style="stroke:black;fill:#0e9684"/><path id="180638920" parent_id="180638866" order="43" structure_id="540" d="M10294.063,4178.975l7.902,4.358
			c-3.777,7.003-7.883,13.907-12.141,20.556c-26.078,40.529-53.311,62.326-68.234,110.279
			c-21.352,68.182-8.91,149.307,11.711,222.875c-10.941-34.686-18.652-56.467-18.652-56.467s-72.289-35.271-170.281-83.459
			c-3.074-8.896-5.143-18.162-6.125-27.714c-6.697-65.271,45.055-122.246,83.434-166.394c14.453-16.699,28.063-33.103,40.691-49.717
			L10294.063,4178.975z" style="stroke:black;fill:#0e9684"/><path id="180638918" parent_id="180638866" order="44" structure_id="692" d="M9622.32,4047.893l286.242,55.808
			c-47.461,59.002-93.324,126.666-71.111,190.383l-0.453,0.896c-1.051-0.547-2.182-1.099-3.314-1.648
			c-72.914-36.135-143.877-71.516-199.869-99.884C9631.342,4144.711,9627.535,4096.25,9622.32,4047.893z" style="stroke:black;fill:#0e9684"/><path id="180638919" parent_id="180638866" order="45" structure_id="888" d="M10004.023,4377.291
			c-10.188-4.961-20.535-10.098-31.047-15.238c-43.902-21.57-90.305-44.506-135.979-67.073l0.453-0.896
			c-22.213-63.717,23.65-131.381,71.111-190.383l253.805,49.595c-12.629,16.614-26.24,33.017-40.691,49.716
			c-38.381,44.146-90.133,101.122-83.434,166.395c0.98,9.551,3.051,18.817,6.125,27.713
			C10031.348,4390.777,10017.85,4384.084,10004.023,4377.291z" style="stroke:black;fill:#0e9684"/><path id="180638925" parent_id="180638866" order="46" structure_id="836" d="M10382.668,3637.67
			c29.439,139.436,28.971,284.618-25.934,418.516c-17.307,42.092-32.59,86.941-54.77,127.146l-7.902-4.357l-131.695-25.682
			c33.85-44.436,60.754-90.6,78.9-147.915c40.227-127.05,44.979-242.014,21.682-354.152L10382.668,3637.67z" style="stroke:black;fill:#0d9f91"/><path id="180638924" parent_id="180638866" order="47" structure_id="427" d="M10262.949,3651.227
			c23.297,112.139,18.545,227.103-21.682,354.152c-18.146,57.316-45.051,103.48-78.9,147.915l-253.805-49.595
			c25.613-31.879,51.691-61.231,67.744-86.115c63.119-97.415,92.723-230.78,40.564-338.375l17.762-1.955
			c3.172,1.143,5.912,0.849,8.223-0.965L10262.949,3651.227z" style="stroke:black;fill:#0d9f91"/><path id="180638923" parent_id="180638866" order="48" structure_id="988" d="M10016.869,3679.208
			c52.16,107.596,22.557,240.96-40.564,338.375c-16.051,24.884-42.129,54.237-67.742,86.115l-286.242-55.807
			c-11.473-106.771-29.59-212.669-54.693-317.55L10016.869,3679.208z" style="stroke:black;fill:#0d9f91"/><path id="180638922" parent_id="180638866" order="49" structure_id="977" d="M9622.32,4047.893l-72.234-14.086
			c-0.924-10.884-2.277-21.369-4.406-31.141c-12.34-55.35-24.771-110.535-38.871-165.296c-8.465-32.74-18.277-64.957-29.26-96.81
			l90.08-10.218C9592.73,3835.223,9610.85,3941.123,9622.32,4047.893z" style="stroke:black;fill:#0d9f91"/><path id="180638921" parent_id="180638866" order="50" structure_id="1045" d="M9550.086,4033.807l-43.16-8.443
			c-15.453-95.188-40.918-188.157-74.352-278.315l5.041-1.942l39.934-4.545c10.982,31.854,20.795,64.069,29.26,96.811
			c14.102,54.761,26.531,109.948,38.871,165.296C9547.809,4012.438,9549.162,4022.923,9550.086,4033.807z" style="stroke:black;fill:#0d9f91"/><path id="180638915" parent_id="180638866" order="51" structure_id="1121" d="M10294.734,4769.325
			c8.426,65.433,10.326,134.574,8.047,202.944c-27.127,170.84-35.512,474.547-150.064,681.494
			c-17.342,29.83-37.299,58.959-60.441,87.277c-154.807,177.616-354.807,327.434-567.262,431.902
			c-14.186,6.953-28.445,13.734-42.695,20.269c-144.189,66.335-299.229,135.269-451.666,178.882
			c-75.211,21.477-153.297,33.23-229.816,31.964c-68.846-1.09-136.314-12.793-199-37.376l98.727-213.329
			c170.383,47.517,362.664,31.215,521.41-41.14c322.629-146.979,812.488-397.539,875.861-794.104
			c20.768-129.759,20.475-261.381,25.271-392.356c4.152-110.737,34.422-234.898,21.75-344.475
			c-7.855-67.075-78.24-117.441-100.488-184.161c97.992,48.187,170.281,83.459,170.281,83.459s7.711,21.78,18.652,56.467
			c4.355,15.459,9.051,30.683,13.941,45.247c15.982,53.344,34.543,121.148,47.43,186.615
			C10294.664,4769.07,10294.742,4769.158,10294.734,4769.325z" style="stroke:black;fill:#32b825"/><path id="180638914" parent_id="180638866" order="52" structure_id="715" d="M10144.855,4581.277
			c12.67,109.576-17.6,233.736-21.75,344.476c-4.797,130.976-4.504,262.599-25.273,392.356
			c-63.373,396.565-553.23,647.127-875.859,794.104c-158.746,72.354-351.029,88.655-521.41,41.14l25.668-55.563
			c8.199-17.689,16.195-34.941,25.293-54.576l16.9-36.605c208.033,100.25,475.611,0.758,665.865-104.209
			c203.291-112.055,405.895-184.272,516.793-403.895c94.146-186.348,117.463-403.646,125.836-609.939
			c4.27-104.062,36.504-196.023,8.814-300.353c-3.76-14.015-63.66-176.336-81.709-210.924c13.824,6.793,27.324,13.487,40.344,19.826
			C10066.613,4463.837,10137,4514.203,10144.855,4581.277z" style="stroke:black;fill:#32b825"/><path id="180638913" parent_id="180638866" order="53" structure_id="764" d="M10085.734,4588.215
			c27.688,104.328-4.547,196.291-8.814,300.352c-8.373,206.295-31.691,423.595-125.838,609.94
			c-110.898,219.621-313.5,291.84-516.791,403.896c-190.256,104.967-457.834,204.459-665.865,104.209l49.775-107.605
			c301.795,53.419,612.92-51.958,820.037-260.003c140.213-140.825,213.289-334.539,268.146-538.412
			c69.867-259.413,64.379-458.573,65.596-736.581l0.996-1.957c10.512,5.143,20.859,10.277,31.047,15.238
			C10022.074,4411.879,10081.975,4574.201,10085.734,4588.215z" style="stroke:black;fill:#32b825"/><path id="180638912" parent_id="180638866" order="54" structure_id="52" d="M9972.977,4362.052l-0.996,1.957
			c-1.217,278.008,4.273,477.168-65.596,736.581c-54.857,203.873-127.934,397.587-268.146,538.412
			c-207.117,208.045-518.244,313.422-820.039,260.003l44.93-96.979c52.186,21.024,111.207,29.431,176.988,21.375
			c1.91-0.248,3.82-0.496,5.65-0.746l1.979,15.018c134.223,17.12,332.691-112.999,438.82-196.641
			c115.201-90.821,174.234-206.019,226.525-340.615c86.588-222.799,91.826-524.479,94.154-760.319
			c0.805-74.274,70.01-150.481,42.295-209.358c-7.252-15.338-14.318-23.66-21.137-26.387l5.279-11.021
			c1.131,0.551,2.262,1.104,3.313,1.649C9882.672,4317.547,9929.074,4340.48,9972.977,4362.052z" style="stroke:black;fill:#32b825"/><path id="180638911" parent_id="180638866" order="55" structure_id="92" d="M9849.543,4330.736
			c27.715,58.877-41.49,135.084-42.295,209.358c-2.328,235.84-7.566,537.521-94.154,760.319
			c-52.291,134.598-111.324,249.793-226.525,340.615c-106.127,83.642-304.6,213.76-438.82,196.641l-1.979-15.018
			c216.551-28.976,398.492-192.529,513.822-368.5c96.992-147.938,139.014-315.605,161.475-489.242
			c19.211-148.677,3.184-298.186,26.338-444.518c5.51-34.948,38.4-233.387,81.002-216.044
			C9835.225,4307.076,9842.291,4315.398,9849.543,4330.736z" style="stroke:black;fill:#32b825"/><path id="180638910" parent_id="180638866" order="56" structure_id="139" d="M9833.684,4293.329l-5.277,11.021
			c-42.602-17.342-75.492,181.097-81.004,216.045c-23.152,146.332-7.127,295.84-26.336,444.518
			c-22.461,173.637-64.484,341.305-161.477,489.242c-115.33,175.971-297.27,339.523-513.82,368.499
			c-1.83,0.251-3.74,0.499-5.652,0.747c-65.779,8.055-124.801-0.352-176.988-21.376l40.545-87.503
			c113.156,19.01,248.258-41.729,336.068-97.835c103.453-66.079,200.146-211.026,252.861-319.668
			c125.23-257.927,132.471-580.618,142.852-862.218c2.92-81.02,2.426-161.439-1.641-241.355
			C9689.807,4221.814,9760.771,4257.193,9833.684,4293.329z" style="stroke:black;fill:#32b825"/><path id="180638909" parent_id="180638866" order="57" structure_id="28" d="M9635.455,4434.801
			c-10.381,281.6-17.621,604.291-142.852,862.218c-52.713,108.642-149.408,253.589-252.861,319.668
			c-87.811,56.106-222.912,116.845-336.068,97.835l240.744-520.294l2.012-2.495c39.477,37.553,134.313-108.313,160.832-153.243
			c51.359-87.351,78.725-188.79,110.865-284.26c64.004-190.285,117.646-417.147,101.959-619.187
			c-0.049-0.752-0.104-1.422-0.152-2.174c2.129,2.347,19.301,11.875,46.998,26.297c18.166,9.488,40.947,21.104,66.883,34.278
			C9637.881,4273.359,9638.375,4353.782,9635.455,4434.801z" style="stroke:black;fill:#32b825"/><path id="180638908" parent_id="180638866" order="58" structure_id="526" d="M8700.563,6153.354l-98.727,213.33
			c-71.538-27.983-136.882-72.785-191.086-137.854c-5.646-6.842-11.205-13.765-16.599-20.679c-2.738-3.459-5.395-6.914-8.047-10.453
			c-6.088-8.029-11.926-16.131-17.677-24.313c-2.566-3.618-5.046-7.315-7.529-10.931c-7.913-11.614-15.484-23.465-22.802-35.47
			c-2.469-3.946-4.855-7.892-7.159-11.831c-2.387-3.943-4.687-7.967-6.987-11.99c-6.826-11.898-13.476-24.041-19.789-36.334
			c-2.132-4.1-4.264-8.198-6.31-12.377c-1.745-3.498-3.569-7.083-5.311-10.664c-8.329-17.139-16.235-34.507-23.804-52.027
			c-9.057-21.256-17.603-42.824-25.644-64.619c-1.544-4.324-3.17-8.649-4.71-13.057c-0.811-2.205-1.543-4.323-2.354-6.527
			c-20.396-58.129-37.502-117.779-52.683-178.01c-0.414-1.854-0.91-3.711-1.328-5.481c-6.586-26.649-12.926-53.29-18.934-79.998
			c-1.988-9.181-4.064-18.28-6.057-27.461c-1.992-9.099-3.982-18.276-5.977-27.375c-10.412-48.507-20.255-96.821-30.295-144.396
			c0,0,40.116,24.987,90.074,16.056c5.163-0.937,10.236-1.709,15.137-2.321c2.886,0.129,5.696,0.088,8.507,0.047
			c3.262,148.604,6.028,218.701,97.248,401.361C8408.91,6014.402,8545.681,6110.285,8700.563,6153.354z" style="stroke:black;fill:#32b825"/><path id="180638907" parent_id="180638866" order="59" structure_id="543" d="M8726.23,6097.792l-25.668,55.562
			c-154.882-43.067-291.652-138.951-368.838-293.375c-91.22-182.66-93.986-252.758-97.248-401.36
			c49.422-0.533,90.993-10.342,125.892-28.041l0.454,0.938c68.798,204.006,167.101,405.832,345.326,537.521
			c17.199,12.698,43.527,28.165,61.781,37.575c-3.305,9.246-6.982,17.809-12.979,29.186c-1.15,2.182-2.746,5.115-3.426,7.42
			L8726.23,6097.792z" style="stroke:black;fill:#32b825"/><path id="180638906" parent_id="180638866" order="60" structure_id="664" d="M8653.684,5602.963
			c-19.52-34.988-36.113-72.598-49.676-111.488c-3.084-8.729-4.797-18.563-5.813-29.201c-4.313-48.232,7.719-111.162-11.057-142.362
			c2.166,3.351,4.412,6.703,6.572,10.138c-1.096-3.22-2.344-6.777-4.898-10.646c-12.91-20.014,6.383-19.146-63.357-0.01
			c-31.773,8.665-60.544,27.891-87.237,48.71c-1.112,0.867-2.225,1.733-3.34,2.687c-20.594,24.846-45.196,45.092-74.51,59.789
			l0.454,0.938c68.798,204.006,167.101,405.833,345.326,537.521c17.199,12.697,35.053,23.676,53.305,33.086
			c2.988,1.551,5.98,3.021,8.973,4.488l49.775-107.605l44.928-96.979C8773.443,5765.971,8703.734,5692.865,8653.684,5602.963z" style="stroke:black;fill:#32b825"/><path id="180638905" parent_id="180638866" order="61" structure_id="727" d="M8903.674,5714.521l-40.545,87.502
			c-89.686-36.054-159.395-109.158-209.445-199.062c-14.086-28.007-31.988-64.507-42.697-92.304
			c-8.447-21.92-11.135-36.934-12.791-48.387c-4.313-48.232,7.719-111.162-11.057-142.363c2.166,3.351,4.412,6.703,6.572,10.138
			c1.752,5.249,2.961,9.642,8.242,13.547c67.318,114.115,114.691,275.791,228.305,344.278
			C8853.027,5701.654,8877.766,5710.105,8903.674,5714.521z" style="stroke:black;fill:#32b825"/><path id="180638904" parent_id="180638866" order="62" structure_id="743" d="M9146.43,5191.732l-2.012,2.494l-240.744,520.295
			c-25.908-4.416-50.646-12.867-73.416-26.649c-113.613-68.487-160.986-230.163-228.305-344.278
			c8.068,6.201,25.943,11.092,70.426,15.758c90.445,9.565,214.82-62.664,263.404-102.184c48.502-39.521,62.516-44.48,111.342-89.494
			c60.371-55.754,65.605-52.684,65.605-52.684c44.27-39.49,25.672,4.155,25.672,4.155c-0.482,1.563-0.801,3.133-1.113,4.62
			c-0.797,3.05-1.418,5.941-1.961,8.836c-0.418,1.982-0.754,3.971-1.082,5.79c-0.23,1.49-0.461,2.981-0.691,4.472
			c-0.143,1.328-0.285,2.656-0.422,3.901c-0.75,7.64-0.621,14.067,0.641,19.128
			C9136.781,5178.289,9141.119,5186.657,9146.43,5191.732z" style="stroke:black;fill:#32b825"/><path id="180638903" parent_id="180638866" order="63" structure_id="10693" d="M8216.167,5134.611
			c-11.888-119.799-7.442-237.195-37.431-354.889c-36.813-144.676-70.691-277.137-89.852-414.877l-66.057,11.225
			c13.025,98.529,17.205,198.013,26.885,296.89c5.562,56.728,26.293,114.774,26.285,171.751
			c-0.01,58.326-16.655,116.925-16.793,176.18c-0.293,125.074,25.309,256.848,51.774,378.406c3.343,15.351,6.64,30.789,9.915,46.297
			l0.911-0.138c6.619,3.8,43.787,23.524,89.025,15.437c5.163-0.937,10.236-1.709,15.137-2.322c-2.233,0.066-4.463,0.05-6.771-0.055
			c2.309,0.104,4.538,0.121,6.771,0.055c2.886,0.129,5.696,0.089,8.507,0.048c0.015-0.333-0.054-0.67-0.039-1.002
			C8232.736,5380.225,8230.74,5281.471,8216.167,5134.611z" style="stroke:black;fill:#72d569"/><path id="180638902" parent_id="180638866" order="64" structure_id="10694" d="M8486.38,4297.313l-397.494,67.535
			c19.159,137.74,53.039,270.201,89.851,414.877c29.988,117.691,25.544,235.09,37.432,354.889
			c14.573,146.857,16.569,245.611,18.271,323.003c-0.015,0.332,0.054,0.669,0.039,1.002c49.422-0.533,90.993-10.342,125.892-28.041
			c29.313-14.696,53.916-34.942,74.51-59.789C8614.299,5154.5,8486.385,4592.383,8486.38,4297.313z" style="stroke:black;fill:#72d569"/><path id="180638901" parent_id="180638866" order="65" structure_id="10695" d="M8708.164,4390.54
			c-7.246-42.649-15.879-84.829-25.902-126.51l-195.882,33.28c0.005,295.071,127.919,857.188-51.502,1073.477
			c1.115-0.951,2.228-1.818,3.34-2.686c26.693-20.82,55.464-40.045,87.237-48.711c69.74-19.137,50.447-20.002,63.357,0.01
			c2.555,3.869,3.803,7.428,4.898,10.646c1.555,4.658,2.689,8.641,6.615,12.209c-33.655-50.58,34.566-206.74,56.105-291.559
			c22.506-88.647,58.322-195.434,70.51-310.965C8739.223,4623.381,8727.674,4505.383,8708.164,4390.54z" style="stroke:black;fill:#72d569"/><path id="180638897" parent_id="180638866" order="66" structure_id="10696" d="M7935.689,3342.883
			c-103.881-219.508-244.914-422.671-357.637-638.406c-31.753-60.793-67.023-120.414-105.34-178.418
			c-1.277,0.685-2.555,1.366-3.823,2.045c-42.665,22.819-79.147,43.409-57.589,99.076c27.563,71.137,64.17,141.426,99.879,208.715
			c73.846,139.188,156.657,272.968,241.619,405.263c61.85,96.297,114.759,184.251,153.479,284.801l97.567-30.336
			C7982.371,3442.807,7958.705,3391.571,7935.689,3342.883z" style="stroke:black;fill:#48c83c"/><path id="180638896" parent_id="180638866" order="67" structure_id="10697" d="M7935.689,3342.883
			c23.016,48.688,46.682,99.924,68.155,152.739l169.88-52.82c-26.246-65.407-53.23-130.61-84.613-193.862
			c-142.813-288.146-333.334-530.395-527.67-781.654c-0.021-0.025-0.039-0.051-0.06-0.075c-13.837,8.913-27.03,18.271-39.276,28.169
			c-15.108,12.216-32.608,21.702-49.393,30.679c38.314,58.004,73.587,117.624,105.34,178.418
			C7690.775,2920.212,7831.809,3123.375,7935.689,3342.883z" style="stroke:black;fill:#48c83c"/><path id="180638895" parent_id="180638866" order="68" structure_id="10698" d="M8089.111,3248.939
			c31.383,63.252,58.367,128.457,84.613,193.863l72.033-22.396c-19.292-47.775-28.094-100.418-18.753-162.042
			c4.072-26.808,13.16-54.981,25.475-79.031c22.361-43.71,60.201-79.836,99.851-107.652c19.578-13.739,42.396-25.255,65.005-32.915
			c3.185-1.08,8.063-2.506,14.08-4.149c-53.755,11.547-107.339,15.594-158.045-14.203
			c-63.839-37.514-140.157-112.793-179.838-175.49c-62.669-99.009-126.138-208.046-198.674-300.689
			c-48.337-61.726-107.207-191.077-171.883-160.621c-52.813,24.864-111.442,51.294-161.594,83.598
			c0.021,0.024,0.039,0.05,0.06,0.075C7755.777,2718.546,7946.299,2960.794,8089.111,3248.939z" style="stroke:black;fill:#48c83c"/><path id="180638900" parent_id="180638866" order="69" structure_id="10699" d="M8073.033,4098.669
			c1.996-82.562,8.453-165.09,10.532-247.647c2.96-119.375-33.243-241.093-79.72-355.398l-97.567,30.336
			c13.698,35.572,25.636,72.706,35.544,112.363c34.646,138.673,50.973,293.648,40.532,445.13
			c-6.993,101.603,24.797,181.129,38.577,278.675c0.656,4.646,1.283,9.294,1.898,13.943l66.056-11.224
			C8077.02,4279.532,8070.795,4192.193,8073.033,4098.669z" style="stroke:black;fill:#59b947"/><path id="180638899" parent_id="180638866" order="70" structure_id="10700" d="M8301.399,3736.951
			c-49.436-94.409-87.694-194.516-127.674-294.148l-169.88,52.82c46.477,114.306,82.68,236.023,79.721,355.398
			c-2.08,82.558-8.537,165.086-10.533,247.647c-2.237,93.524,3.985,180.862,15.854,266.179l397.494-67.535
			c0-6.701,0.063-13.271,0.199-19.689C8490.771,4079.98,8389.678,3905.801,8301.399,3736.951z" style="stroke:black;fill:#59b947"/><path id="180638898" parent_id="180638866" order="71" structure_id="10701" d="M8301.399,3736.951
			c88.278,168.85,189.372,343.029,185.18,540.671c-0.137,6.418-0.199,12.987-0.199,19.688l195.882-33.28
			c-49.555-206.106-133.193-399.94-252.442-577.219c-61.753-91.804-144.721-168.984-184.061-266.405l-72.033,22.396
			C8213.705,3542.436,8251.964,3642.542,8301.399,3736.951z" style="stroke:black;fill:#59b947"/><path id="180638894" parent_id="180638866" order="72" structure_id="870" d="M8352.331,3071.681
			c-39.649,27.816-77.489,63.942-99.851,107.652c-12.314,24.05-21.402,52.224-25.475,79.031
			c-28.389,187.282,110.777,291.622,202.813,428.446c143.365,213.129,235.271,450.186,278.345,703.729
			c19.51,114.843,31.059,232.841,18.777,349.192c-12.188,115.531-48.004,222.316-70.51,310.965
			c-21.539,84.817-89.761,240.979-56.105,291.559c0.498,0.452,1.033,0.898,1.627,1.338c8.068,6.201,25.943,11.091,70.426,15.757
			c6.219,0.657,12.6,0.916,19.102,0.838c90.666-6.612,174.387-52.286,245.305-103.836c19.809-16.103,33.836-26.421,46.936-36.177
			c76.748-62.258,133.584-121.998,160.725-123.805l6.094-16.666c19.281-54.955,48.602-116.728,59.045-138.676
			c95.566-201.051,130.24-320.381,167.199-497.043c21.988-105.037,26.947-235.117,23.873-331.144
			c-5.055-158.039-48.455-317.622-112.633-465.323c-93.393-214.949-282.582-390.449-464.822-529.456
			c-1.943-1.483-3.895-2.974-5.85-4.468c-29.328-22.414-59.869-45.809-92.105-65.182c-0.422-0.253-0.846-0.501-1.268-0.753
			c-8.432-4.91-42.783-23.933-73.814-33.824c-26.668-8.096-54.533-11.723-83.819-8.668c-0.841,0.088-1.684,0.188-2.525,0.284
			c-7.056,0.854-14.23,2.006-21.896,3.32c-6.96,1.192-20.001,3.963-35.201,7.402c-24.954,5.992-50.149,13.035-75.306,18.438
			c-6.018,1.644-10.896,3.069-14.08,4.149C8394.728,3046.425,8371.909,3057.939,8352.331,3071.681z" style="stroke:black;fill:#4bb547"/><path id="180638870" parent_id="180638866" order="73" structure_id="313" d="M5765.352,5281.484
			c120.476,48.483,270.492,23.983,390.151-17.91c122.994-43.058,259.56-28.285,387.185-34.601
			c123.599-6.106,239.566-5.244,359.275,28.078c103.958,28.938,218.816,36.962,321.093-10.878
			c134.041-62.691,254.088-183.337,292.624-317.587c20.79-72.437,6.461-179.636,73.604-228.138
			c68.649-49.586,160.617-29.396,175.864,51.433c22.597-107.967,75.099-194.763,122.752-292.175
			c55.728-113.93,85.34-243.762,94.463-376.264c10.433-151.481-5.896-306.441-40.541-445.123
			c-37.916-151.753-105.292-266.792-189.022-397.164c-84.961-132.295-167.772-266.076-241.619-405.262
			c-75.115-141.574-130.094-293.457-213.972-430.344c-80.215-130.923-203.213-218.738-314.694-322.505
			c-175.08-162.978-402.156-262.993-587.25-411.446c-25.199-20.212-50.435-48.19-77.822-71.097
			c-19.762-16.532-40.666-30.414-63.493-36.821c-114.035-32.008-269.703,67.092-331.146,155.368l-72.758,1646.181
			c19.77,47.189,47.862,102.973,75.799,144.125c-23.166,31.057-45.178,58.606-55.283,97.836
			c-6.713,26.039,3.655,100.019-35.008,85.861L5765.352,5281.484z" style="stroke:black;fill:#ff64ff"/><path id="180638884" parent_id="180638866" order="74" structure_id="851" d="M6391.059,2104.96
			c81.267,10.785,221.596,116.998,284.071,160.797c213.844,149.886,406.165,306.125,627.375,445.711
			c46.874,29.582,79.565,52.594,103.63,85.315l2.951-4.604c9.609-16.188,26.012-24.872,45.758-26.124
			c-35.782-34.397-73.557-49.229-128.941-81.81c-145.664-85.688-279.813-204.683-413.104-308.955
			c-149.968-117.315-270.223-233.909-445.707-308.616c-147.135-62.641-216.779,1.54-276.395,105.812
			c-37.774,66.102-131.787,162.344-196.051,196.538c-27.539,14.646-68.724,21.997-101.355,17.809l-2.123,48.036
			c107.848-8.771,222.596-77.877,299.934-151.232C6254.282,2223.702,6283.509,2090.689,6391.059,2104.96z" style="stroke:black;fill:#ff7aff"/><path id="180638885" parent_id="180638866" order="75" structure_id="842" d="M7511.182,2835.895
			c-19.33-36.43-37.321-73.545-54.818-110.909c-11.561-12.522-28.025-30.361-44.505-48.213
			c-30.159-32.671-31.017-55.445-31.017-55.445c-45.354-162.856-186.813-296.988-306.858-408.551
			c-195.853-182.03-429.812-305.645-667.965-422.979c-124.556-61.371-328.408-131.075-401.832,19.089
			c-69.257,141.652-37.149,355.338-63.974,474.137c-5.588,24.748-7.045,76.026-16.236,104.596
			c25.158-1.604,51.292-8.29,70.671-18.596c64.265-34.194,158.276-130.437,196.051-196.537
			c59.615-104.272,129.26-168.452,276.396-105.813c175.483,74.707,295.738,191.301,445.707,308.617
			c133.291,104.271,267.438,223.266,413.104,308.955c55.385,32.579,93.159,47.412,128.941,81.809
			c14.346,13.79,28.371,30.719,43.08,53.204c11.013,16.831,21.564,33.948,31.817,51.249
			C7523.596,2859.162,7517.415,2847.646,7511.182,2835.895z" style="stroke:black;fill:#ff7aff"/><path id="180638886" parent_id="180638866" order="76" structure_id="834" d="M6004.186,1808.888
			c73.424-150.164,277.276-80.46,401.832-19.089c238.153,117.334,472.113,240.948,667.965,422.979
			c120.045,111.563,261.506,245.693,306.859,408.551c0,0,0.855,22.773,31.016,55.445c16.479,17.852,32.945,35.69,44.506,48.213
			c-50.502-107.84-96.859-217.771-159.153-319.434c-80.215-130.923-203.213-218.739-314.694-322.505
			c-175.08-162.978-402.156-262.993-587.25-411.446c-25.199-20.212-50.435-48.19-77.822-71.097
			c-19.762-16.532-40.666-30.414-63.493-36.821c-114.035-32.008-269.703,67.092-331.146,155.368l-29.513,667.782
			c9.669,1.24,20.091,1.462,30.685,0.787c9.191-28.569,10.648-79.848,16.236-104.596
			C5967.036,2164.227,5934.93,1950.54,6004.186,1808.888z" style="stroke:black;fill:#ff7aff"/><path id="180638873" parent_id="180638866" order="77" structure_id="828" d="M7207.191,3635.59
			c-66.627,135.021,45.686,296.744,175.408,342.635c136.801,48.381,463.25,34.175,453.473-166.146
			c-2.395-49.098-18.445-111.491-41.409-171.479c-24.007-62.741-55.585-122.853-87.022-162.33
			C7619.311,3367.347,7263.506,3521.473,7207.191,3635.59z" style="stroke:black;fill:#ff7aff"/><path id="180638875" parent_id="180638866" order="78" structure_id="271" d="M7427.818,4239.271
			c-21.402,20.789-44.199,50.598-45.563,81.498c-0.628,14.092,3.547,27.127,12.727,39.85
			c37.535,51.93,145.461,76.678,217.902,49.938c50.832-18.744,74.576-57.272,70.591-114.478
			c-3.308-47.16-26.913-79.276-70.201-95.457C7544.3,4174.846,7476.232,4192.243,7427.818,4239.271z" style="stroke:black;fill:#ff7aff"/><path id="180638874" parent_id="180638866" order="79" structure_id="874" d="M7874.744,4426.635
			c-11.068,50.407-42.135,101.568-69.626,125.491c-59.754,52.026-226.246,112.663-260.565,6.866
			c-39.063-120.41,88.922-99.634,142.922-166.814c31.492-39.181,90.239-113.601,149.021-80.713
			C7878.215,4334.816,7884.898,4380.406,7874.744,4426.635z" style="stroke:black;fill:#ff7aff"/><path id="180638876" parent_id="180638866" order="80" structure_id="246" d="M7530.863,4760.523
			c-5.166-31.545-16.308-61.475-35.832-87.322c-68.953-91.253-245.008,31.164-309.031,81.46
			c-84.606,66.476-141.834,155.104-149.025,266.658c-2.449,38.042,0.027,76.39,4.673,114.157
			c5.503,44.87,7.483,110.143,53.354,134.427c19.922,10.545,45.886,1.272,66.158-3.063c29.135-6.227,56.328-18.908,82.701-32.525
			c66.229-34.227,129.638-75.85,178.802-133.033c18.005-20.934,34.454-43.061,48.597-66.826
			c19.291-32.432,34.701-69.416,44.873-105.848C7530.68,4876.48,7539.98,4815.995,7530.863,4760.523z" style="stroke:black;fill:#ff90ff"/><path id="180638879" parent_id="180638866" order="81" structure_id="128" d="M6172.719,4656.719
			c27.53-27.582,51.711-54.754,70.117-73.508c10.213-10.4,62.846-81.754,112.959-160.594
			c65.022-102.289,125.813-217.178,84.224-227.849c-25.254-6.481-47.574-1.735-67.747,9.325l0.182-0.105
			c23.799-12.996,46.588-52.597,63.143-73.174c50.55-62.828,61.533-122.849,89.014-197.017
			c26.192-70.678,62.828-136.592,109.363-195.687c15.232-19.34,33.953-37.864,50.383-57.724
			c5.689-6.877,24.875-24.221,43.316-23.888c18.442,0.333,36.141,18.343,38.854,24.828c7.143,17.077,17.553,32.827,33.322,46.47
			c59.633,51.583,157.412,45.008,223.352,9.062c33.4-18.203,62.659-40.043,90.156-63.373c9.625-8.166,27.33-16.97,43.146-8.986
			c16.901,8.53,31.619,34.588,31.06,47.992c-4.772,114.076,89.355,228.346,195.041,265.731
			c56.613,20.021,145.709,29.325,230.011,19.153c78.847-9.514,135.699,66.76,101.545,115.109
			c-12.196,17.27-22.571,34.871-28.983,52.266c-2.816,7.639-9.446,28.367-24.672,35.748c-16.426,7.961-41.607,2.222-47.225,0.121
			c-68.977-25.775-137.043-8.379-185.457,38.648c-21.402,20.79-44.199,50.598-45.563,81.498
			c-0.627,14.093,3.547,27.127,12.727,39.85c25.016,34.607,81.292,57.144,137.495,60.412c10.669,0.621,30.674,43.973,20.212,55.625
			c-15.51,17.276-21.285,41.811-8.137,82.338c2.36,7.279,11.761,27.576-8.054,45.508c-24.065,21.779-78.922,40.881-84.948,39.254
			c-82.204-22.191-212.436,69.18-265.552,110.906c-67.437,52.983-117.478,120.043-138.653,201.564
			c-2.363,9.1-20.418,39.758-42.847,44.273c-22.429,4.519-49.229-17.106-55.269-21.98c-84.53-68.243-260.369,6.568-345.26,39.41
			c-35.932,13.896-70.58,27.08-107.598,35.248c-29.672,6.552-85.932-11.756-94.17-30.915c-8.24-19.159-22.813-37.728-44.983-54.808
			c-42.69-32.897-96.97-56.408-153.099-73.711c-23.809-7.338-64.928-60.629-71.623-113.244
			C6125.803,4727.885,6153.527,4675.945,6172.719,4656.719z" style="stroke:black;fill:#ff90ff"/><path id="180638880" parent_id="180638866" order="82" structure_id="26" d="M7181.532,3579.845
			c-67.726-134.284-106.237-266.429-196.651-385.721c-112.203-148.007-199.701-236.888-259.02-300.569
			c-67.979-72.988-125.453-120.43-196.038-190.208c-42.39-41.894-103.291-67.114-161.663-87.769
			c-156.74-55.459-458.096-54.541-471.218-53.221c-0.333,0.033-0.487,0.067-0.442,0.101l-10.91-1.335l-10.973,248.24
			c89.258,1.225,197.609,6.144,277.65,37.486c48.168,18.858,84.994,34.68,127.412,63.99
			c70.953,49.033,142.086,120.4,193.228,189.418c13.138,17.729,23.821,36.971,33.5,56.824c-0.54-2.316-1.199-4.559-2.019-6.701
			c-6.723-17.591-12.08-34.495-14.873-49.215c-6.373-33.614,52.82,47.821,65.638,72.458
			c17.772,34.158,77.539,109.866,98.481,139.248c28.123,39.456,176.933,304.438,116.44,262.392
			c-13.379-9.298-21.696-23.573-28.899-39.621c-0.363-0.813-0.793-1.543-1.256-2.23c0.481,1.988,0.946,3.991,1.375,6.025
			c13.935,66.252,3.059,140.355,58.551,188.36c59.633,51.583,157.412,45.009,223.352,9.063
			c67.202-36.624,117.641-87.972,170.688-136.55L7181.532,3579.845z" style="stroke:black;fill:#ff90ff"/><path id="180638881" parent_id="180638866" order="83" structure_id="42" d="M6569.427,3286.854
			c39.235,78.207,116.657,138.082,149.549,198.539c17.825,32.769,24.345,71.273,51.101,89.871
			c60.492,42.047-88.316-222.937-116.439-262.393c-20.943-29.382-80.709-105.09-98.482-139.248
			c-12.815-24.636-72.01-106.071-65.637-72.458C6500.689,3160.046,6552.882,3253.867,6569.427,3286.854z" style="stroke:black;fill:#ff90ff"/><path id="180638882" parent_id="180638866" order="84" structure_id="17" d="M7397.518,3431.03
			c-29.723-25.425-56.278-65.418-76.461-90.939c-99.703-126.092-190.836-278.062-310.912-383.732
			c-77.705-68.382-163.551-148.509-246.744-211.244c-74.448-56.131-147.457-121.3-240.342-169.254
			c-174.021-89.86-423.076-88.415-606.557-52.429c-5.361,1.051-18.395,3.023-29.46,4.805l-1.451,32.839l11.353,1.282
			c13.123-1.321,314.478-2.239,471.217,53.22c58.373,20.654,119.274,45.875,161.664,87.77
			c70.584,69.778,128.06,117.22,196.037,190.208c59.317,63.681,146.816,152.563,259.02,300.568
			c90.414,119.293,128.927,251.437,196.652,385.722l12.354,20.465c37.865-34.675,77.059-67.94,124.628-93.433
			c35.396-18.961,73.254-35.161,109.871-53.466C7417.322,3446.429,7404.195,3436.744,7397.518,3431.03z" style="stroke:black;fill:#ff90ff"/><path id="180638883" parent_id="180638866" order="85" structure_id="10" d="M7529.617,3098.979
			c-18.965-75.814-63.84-144.608-85.627-220.401c-9.936-34.556-22.031-60.272-37.855-81.792
			c-24.063-32.722-56.756-55.734-103.629-85.316c-221.211-139.586-413.531-295.824-627.375-445.711
			c-62.478-43.799-202.807-150.012-284.071-160.797c-107.55-14.27-136.776,118.742-199.958,178.678
			c-77.338,73.355-192.086,142.463-299.934,151.231l-4.125,93.367c11.064-1.781,24.099-3.754,29.459-4.805
			c183.48-35.986,432.535-37.433,606.557,52.429c92.887,47.954,165.895,113.123,240.342,169.254
			c83.193,62.735,169.039,142.863,246.744,211.244c120.076,105.671,211.21,257.641,310.912,383.732
			c20.184,25.521,46.738,65.517,76.461,90.939c6.68,5.713,19.807,15.398,30.868,22.382c35.301-17.646,69.446-37.247,99.104-63.18
			c0,0,9.402-9.378,24.42-23.821C7495.729,3344.9,7538.934,3136.189,7529.617,3098.979z" style="stroke:black;fill:#ff90ff"/><path id="180638871" parent_id="180638866" order="86" structure_id="795" d="M5848.604,4411.576c3.271-13.575,9.324-25.127,18.728-32.434
			c86.899-67.578,208.683,68.379,165.412,86.543c84.515-33.219,169.698-85.971,231.327-151.465
			c31.393-33.355,64.895-86.475,108.383-110.232c23.799-12.997,46.587-52.598,63.143-73.175
			c50.549-62.828,61.533-122.848,89.013-197.017c26.192-70.678,62.829-136.592,109.364-195.686
			c25.78-32.734,61.556-63.134,79.302-101.617c49.769-107.959-56.422-205.208-123.499-276.881
			c-61.189-65.393-74.889-156.68-126.576-226.432c-51.148-69.019-114.035-140.015-184.982-189.047
			c-42.426-29.311-78.877-53.457-127.055-72.316c-80.031-31.345-188.384-36.265-277.65-37.49l-23.465,530.902
			c19.771,47.189,47.863,102.972,75.801,144.125c-23.166,31.056-45.179,58.605-55.285,97.836
			c-6.713,26.038,3.656,100.018-35.006,85.861l-14.42,326.224c132.524,56.603,88.432,213.194,49.858,320.083
			c-6.787,18.832-13.692,37.934-19.19,57.184c-0.709,2.48-1.357,4.945-1.951,7.397L5848.604,4411.576z" style="stroke:black;fill:#ff90ff"/><path id="180638872" parent_id="180638866" order="87" structure_id="35" d="M6032.742,4465.686
			c-56.822,18.035-138.695,80.697-160.977,56.408c-28.141-30.668-39.244-115.903-4.437-142.949
			C5954.23,4311.564,6076.014,4447.521,6032.742,4465.686z" style="stroke:black;fill:#ff90ff"/><path id="180638878" parent_id="180638866" order="88" structure_id="1052" d="M6356.34,5199.5c-1.005,24.741,17.033,31.163,37.998,30.966
			c72.518-0.687,147.219-4.8,220.654-5.635c64.433-0.728,130.979,3.785,194.756,11.651c20.879,2.574,40,9.801,60.355,13.875
			c36.045,7.211,76.809,28.804,113.346,13.028c35.916-15.521,26.522-72.802,28.09-105.317c1.832-38.217-12.652-78.652-22.526-114.86
			c-45.444-166.636-282.104-65.101-385.04-25.278c-35.932,13.896-70.58,27.08-107.598,35.248
			c-31.799,7.021-66.092,23.674-89.39,47.584c-13.793,14.153-19.478,34.619-30.946,50.656
			C6366.835,5164.287,6356.994,5183.025,6356.34,5199.5z" style="stroke:black;fill:#ffa6ff"/><path id="180638877" parent_id="180638866" order="89" structure_id="872" d="M5813.025,4016.018
			c142.397,53.609,97.308,214.33,57.967,323.345c-6.787,18.832-13.692,37.933-19.19,57.185
			c-10.815,37.916-7.935,72.15-3.996,110.731c7.26,71.019,13.827,148.649,57.162,208.062c24.378,33.416,11.942,75.076-15.431,101.36
			c-22.638,21.774-81.438,36.308-103.983,7.78L5813.025,4016.018z" style="stroke:black;fill:#ffa6ff"/><path id="180638887" parent_id="180638866" order="90" structure_id="771" d="M5671.898,7396.006
			c186.244,16.283,377.196,37.54,559.649-16.736c179.717-53.453,324.11-154.623,486.308-245.49
			c138.315-77.482,276.851-156.08,400.998-255.781c161.472-129.675,325.879-191.646,443.189-370.111
			c113.693-172.972,226.021-373.816,205.414-587.584c-10.506-108.938-67.709-216.479-55.195-327.682
			c6.48-57.598,41.211-101.359,50.77-158.637c13.252-79.31,9.756-167.021,3.73-246.832c-10.83-143.276-31.272-293.537-1.613-435.27
			c-15.247-80.827-107.215-101.02-175.863-51.434c-67.145,48.502-52.814,155.694-73.604,228.131
			c-48.362,168.539-197.274,338.764-371.496,375.713c-113.147,23.986-268.028-26.442-383.242-39.787
			c-155.499-18.01-317.7,8.431-474.317,5.151c-173.597-3.632-351.864,105.417-522.379,36.801L5671.898,7396.006z" style="stroke:black;fill:#ff9b88"/><path id="180638889" parent_id="180638866" order="91" structure_id="99" d="M7614.145,5627.23
			c-23.174,138.769-97.928,262.817-147.666,392.478c-54.074,140.999-100.394,282.017-177.842,412.688
			c-57.429,96.899-99.976,227.53-227.369,244.729c-84.02,11.331-246.871-183.68-226.75-327.337
			c5.987-42.785,182.369-424.817,382.11-733.462c121.601-187.884,231.417-250.951,247.849-251.313
			C7605.917,5361.891,7632.787,5515.57,7614.145,5627.23z" style="stroke:black;fill:#ffae6f"/><path id="180638890" parent_id="180638866" order="92" structure_id="931" d="M5929.4,7011.605c-47.781,25.229-46.709,48.166-93.303,60.644
			c-23.191,6.208-78.333-20.248-101.924,0.985c-23.568,21.22,1.563,50.143,10.471,78.404
			c16.905,53.58,48.346,122.938,114.006,157.936c97.021,51.713,225.478,42.188,325.941,11.944
			c111.725-33.627,346.128-79.071,476.229-156.631c61.449-36.636-27.414-79.22-56.469-155.437
			c-14.064-36.918-26.313-90.146-63.158-135.641c-44.746-55.24-79.42,68.82-110.288,111.354
			c-54.492,75.098-172.741,199.578-267.89,184.602c-45.646-7.189-124.054-4.316-149.222-53.27
			C5983.104,7056.797,6038.662,6953.92,5929.4,7011.605z" style="stroke:black;fill:#ffba86"/><path id="180638891" parent_id="180638866" order="93" structure_id="574" d="M5707.589,6588.396
			c46.787,0.719,21.33,171.063,19.265,218.69c-1.985,45.847-23.642,122.115,13.144,152.987
			c43.179,36.224,133.878-43.664,182.632-65.933c89.1-40.702,180.288-81.784,268.9-124.243
			c74.084-35.504,259.322-81.693,304.698,10.994c15.744,32.159,6.756,108.742,69.138,77.105
			c25.779-13.069,49.744-93.041,70.043-130.143c22.467-40.902,35.388-85.212,28.133-132.516
			c-8.863-57.822-65.414-139.76-103.021-183.026c-91.168-104.894-229.19-128.269-356.347-162.915
			c-112.819-30.738-235.845-76.884-354.188-47.982c-44.698,10.912-86.435,27.653-126.063,50.558
			C5725.823,6256.125,5707.589,6588.396,5707.589,6588.396z" style="stroke:black;fill:#ffba86"/><path id="180638893" parent_id="180638866" order="94" structure_id="137" d="M6259.732,5726.938
			c0.386-90.068-13.776-188.744-58.455-268.056c-68.815-122.158-182.414-113.981-303.105-129.664
			c-32.613-4.235-110.518-1.929-125.863-18.128l-3.812,72.036l4.615,3.058c123.142,93.904,182.819,278.136,164.681,426.893
			c-21.387,175.453-126.961,282.122-206.803,426.343c-1.271,2.299-4.736,7.392-8.48,12.858c0,0,7.486-2.651,13.592-7.238
			c51.113-38.402,195.845-58.457,241.611-78.48c95.243-41.668,182.994-99.283,242.455-187.114
			C6269.316,5906.848,6259.374,5810.531,6259.732,5726.938z" style="stroke:black;fill:#ffc395"/><path id="180638892" parent_id="180638866" order="95" structure_id="130" d="M5937.792,5813.075
			c18.142-148.757-41.538-332.987-164.681-426.894l-4.615-3.057l-45.986,869.15c3.744-5.469,7.208-10.561,8.48-12.858
			C5810.832,6095.197,5916.406,5988.527,5937.792,5813.075z" style="stroke:black;fill:#ffc395"/><path id="180638888" parent_id="180638866" order="96" structure_id="146" d="M7314.466,5222.4
			c-51.521,39.75-109.353,68.972-170.281,81.894c-113.147,23.985-268.028-26.442-383.242-39.788
			c-155.499-18.01-317.7,8.432-474.317,5.152c-120.483-2.521-243.219,49.235-364.049,58.203l-32.783,0.476
			c3.033,0.263,5.844,0.552,8.379,0.881c120.692,15.683,234.291,7.506,303.105,129.664c44.68,79.312,58.841,177.985,58.455,268.056
			c-0.357,83.595,9.584,179.91-39.564,252.506c-59.461,87.83-147.211,145.446-242.455,187.113
			c-21.314,9.326-64.097,18.658-108.89,29.848l2.449,0.615c111.74-19.035,226.831,23.481,332.901,52.383
			c127.155,34.646,265.179,58.021,356.347,162.914c8.171,9.401,17.235,20.629,26.513,33.039l3.81-3.088
			c-14.515-35.013-19.963-71.332,1.588-100.537c10.444-14.164,175.897-275.096,344.54-539.611
			c-11.904,1.361-24.096,1.458-34.58,2.333c-41.094,3.429-83.841,19.405-124.852,0.759c-55.115-25.064-27.896-72.786,0.721-95.632
			c34.757-27.748,158.503-32.935,199.1,9.442c2.672,2.789,4.979,5.787,6.881,8.996c156.455-245.112,303.354-473.595,317.883-488.722
			L7314.466,5222.4z" style="stroke:black;fill:#ffc395"/><path id="180638966" parent_id="180638866" order="97" structure_id="1009" d="M9506.926,4025.363
			c5.781,35.538,10.146,71.347,13.008,107.506c-0.238-0.178-0.314-0.35-0.311-0.432l0.463,2.605
			c15.688,202.037-37.955,428.9-101.959,619.186c-32.141,95.471-59.506,196.91-110.865,284.261
			c-26.52,44.931-121.354,190.796-160.832,153.243c-5.311-5.075-9.648-13.443-12.654-25.839c-1.264-5.062-1.393-11.487-0.641-19.128
			c0.137-1.245,0.279-2.573,0.42-3.9c0.227-1.408,0.457-2.898,0.693-4.473c0.328-1.82,0.664-3.809,1.082-5.79
			c0.541-2.896,1.164-5.786,1.959-8.836c0.314-1.487,0.715-3.054,1.113-4.62c15.49-60.771,58.125-150.684,71.23-178.118
			c95.539-201.045,130.221-320.338,167.188-496.991c21.992-105.1,26.914-235.152,23.891-331.201
			c-5.076-158.023-48.496-317.604-112.68-465.271c-93.344-214.949-282.602-390.502-464.801-529.459
			c-31.168-23.75-63.59-48.977-97.945-69.703c-48.605-29.205-101-49.238-158.924-43.25c-96.101,10.03-199.456,70.192-292.936,15.286
			c-63.846-37.563-140.152-112.798-179.843-175.464c-3.938-6.182-7.876-12.447-11.729-18.708
			c-22.539-35.791-45.19-72.754-68.35-109.49c-1.159-1.803-2.24-3.52-3.398-5.323c-98.821-158.314-204.619-319.528-341.269-440.593
			c-3.976-3.514-10.124-8.294-17.722-13.973c-48.932-36.726-157.313-113.318-123.927-162.194c3.002-4.369,7.067-8.522,12.44-12.369
			c3.584-2.591,7.525-3.916,11.674-4.313c7.629-0.659,15.938,1.967,24.265,6.093c14.546,7.325,28.881,19.396,38.405,26.328
			c10.086,7.292,20.172,14.584,30.172,21.956c110.121,80.174,216.922,162.617,327.869,242.828
			c88.61,64.112,188.309,107.288,277.382,172.171c97.231,70.921,205.487,137.25,304.258,210.742
			c38.706,28.844,75.882,58.702,110.415,90.362c126.393,115.767,258.195,226.854,384.113,344.019
			c62.205,57.839,123.025,117.2,181.158,179.358c44.559,47.789,89.809,126.719,119.902,185.95
			c31.314,61.539,59.418,124.686,83.33,189.229C9466.008,3837.205,9491.473,3930.175,9506.926,4025.363z" style="stroke:black;fill:#cccccc"/><path id="180638967" parent_id="180638866" order="98" structure_id="1009" d="M7767.458,5920.301
			c-10.506-108.938-67.709-216.479-55.194-327.682c6.479-57.598,41.209-101.359,50.769-158.637
			c13.252-79.309,9.756-167.021,3.729-246.831c-10.828-143.276-31.271-293.537-1.612-435.271
			c-15.247-80.826-107.215-101.019-175.864-51.433c-67.144,48.502-52.813,155.702-73.604,228.138
			c-43.482,151.364-113.779,206.862-213.559,310.709c-31.58,32.879-688.537,1073.748-709.691,1102.434
			c-43.104,58.412,21.798,145.277,51.211,193.241c37.99,61.925,19.635,122.392-4.374,187.021
			c-21.118,56.842-73.825,141.271-69.742,166.34c19.832,121.932,74.099,181.229,127.161,257.448
			c102.646-56.632,188.023-106.479,233.134-135.39c60.937-37.108,124.585-80.64,189.034-132.394
			c161.473-129.675,325.88-191.646,443.189-370.11C7675.736,6334.914,7788.066,6134.068,7767.458,5920.301z M7614.145,5627.23
			c-23.174,138.769-97.928,262.817-147.666,392.478c-54.074,140.999-100.394,282.017-177.842,412.688
			c-57.429,96.899-99.976,227.53-227.369,244.729c-84.02,11.331-246.871-183.68-226.75-327.337
			c5.987-42.785,182.369-424.817,382.11-733.462c121.601-187.884,231.417-250.951,247.849-251.313
			C7605.917,5361.891,7632.787,5515.57,7614.145,5627.23z" style="stroke:black;fill:#cccccc"/><path id="180638968" parent_id="180638866" order="99" structure_id="1009" d="M6163.018,7169.768
			c-45.646-7.19-124.053-4.317-149.221-53.27c-30.693-59.701,24.865-162.578-84.389-104.893
			c-40.992,21.643-91.826,98.137-138.787,39.91c-68.84-85.347,187.779-180.47,238.142-205.694
			c123.86-62.06,251.946-139.413,396.288-114.075c137.448,24.122,64.119,173.143,5.855,253.419
			C6376.415,7060.264,6258.166,7184.744,6163.018,7169.768z" style="stroke:black;fill:#cccccc"/><path id="180638969" parent_id="180638866" order="100" structure_id="1009" d="M5671.898,7396.006
			c186.244,16.283,377.196,37.54,559.649-16.736c77.882-23.172,182.507-67.008,324.615-151.326
			c-134.657,32.189-275.824,72.524-411.235,103.737c-140.629,32.423-298.754,22.203-375.625-115.894
			c-64.643-116.119-56.426-267.723-44.201-396.982c17.459-184.453,11.18-229.211-17.631-227.725L5671.898,7396.006z" style="stroke:black;fill:#cccccc"/><path id="180638970" parent_id="180638866" order="101" structure_id="1009" d="M6464.143,5526.355
			c-34.476-68.496-111.689-27.568-135.242,18.547c-22.363,43.793-17.638,103.881-21.258,151.713
			c-3.213,42.514-1.924,90.416-13.215,131.51c-9.563,34.787-78.627,128.879-27.522,161.652
			c42.776,27.298,95.914-101.021,111.038-129.334C6413.257,5794.346,6503.137,5603.854,6464.143,5526.355z" style="stroke:black;fill:#cccccc"/><path id="180638971" parent_id="180638866" order="102" structure_id="1009" d="M5765.352,5281.484
			c122.894,49.453,250.836,25.265,397.438-20.971c37.938-11.964,78.574-20.977,115.944-37.243
			c110.287-48.003,189.273-170.474,78.487-255.815c-78.905-60.808-197.401-89.539-293.996-106.287
			c-108.399-18.789-213.794-6.056-278.749-12.515L5765.352,5281.484z" style="stroke:black;fill:#cccccc"/><path id="180638972" parent_id="180638866" order="103" structure_id="1009" d="M6355.795,4422.617
			c-50.113,78.84-102.746,150.191-112.96,160.593c-58.819,59.935-176.625,205.844-274.249,176.415
			c-72.168-21.764-109.079-102.525-86.352-178.232c18.578-61.86,92.102-92.744,150.508-115.707
			c84.514-33.217,169.697-85.97,231.326-151.463c45.91-48.791,96.363-139.883,175.948-119.453
			C6481.607,4205.439,6420.816,4320.328,6355.795,4422.617z" style="stroke:black;fill:#cccccc"/><path id="180638973" parent_id="180638866" order="104" structure_id="1009" d="M7627.289,3048.357
			c-41.755-77.067-81.35-155.705-129.363-229.098c-18.149-27.74-35.256-47.029-53.207-62.39c3.4,2.911,6.771,5.963,10.125,9.187
			c-19.746,1.252-36.147,9.938-45.758,26.125l-2.951,4.604c-0.01-0.014-0.02-0.025-0.028-0.04
			c15.839,21.528,27.942,47.254,37.885,81.832c21.787,75.793,66.662,144.587,85.626,220.396
			c12.844,51.286-38.787,208.59,35.287,204.989c43.604-2.112,117.236-83.333,125.171-125.249
			C7697.791,3137.684,7647.42,3085.494,7627.289,3048.357z" style="stroke:black;fill:#cccccc"/><path id="180638974" parent_id="180638866" order="105" structure_id="1009" d="M7941.822,3638.321
			c-4.082-16.308-44.941-173.399-132.818-307.015c-47.186-71.76-100.839-109.823-144.387-53.701
			c-53.723,69.228,99.717,267.572,125.559,339.57c38.798,108.157,77.201,261.313,22.331,370.058
			c-32.421,64.16-203.308,189.967-103.118,273.397c93.105,77.529,243.585-76.813,272.126-159.129
			C7994.591,3947.775,7974.92,3770.811,7941.822,3638.321z" style="stroke:black;fill:#cccccc"/><path id="180638975" parent_id="180638866" order="106" structure_id="1009" d="M6949.837,5745.747
			c12.308-84.011-132.567-67.313-171.578-36.169c-28.615,22.846-55.835,70.566-0.724,95.631
			C6823.701,5826.202,6940.088,5812.303,6949.837,5745.747z" style="stroke:black;fill:#cccccc"/><path id="180638965" parent_id="180638866" order="107" structure_id="140" d="M5850.045,3365.23c19.77,47.189,47.863,102.973,75.8,144.125
			c-23.166,31.057-45.179,58.606-55.284,97.836c-6.713,26.039,3.656,100.019-35.007,85.861L5850.045,3365.23z" style="stroke:black;fill:#aaaaaa"/></g>
</g>
</svg>