<svg width="6128" height="5472" xmlns="http://www.w3.org/2000/svg">
<g transform="scale(1.0)">
<g id="180609550" order="1" parent_id="" graphic_group_label_id="28" graphic_group_label="Atlas - Adult Mouse" sub_image_id="100960424" transform=" scale(1.0, 1.0)"><path id="180609552" parent_id="180609550" order="0" structure_id="8" d="M4107.287,2715.944
			c34.887-23.387,59.74-60.259,91.53-88.76c-6.204,2.979-13.389,8.354-17.72,10.78c-6.408,3.583-12.972,5.994-19.976,8.16
			c-13.648,4.218-26.562,4.462-40.821,4.169c-7.345-0.145-15.234-0.504-23.949-0.813c-118.516-4.283-237.805,17.776-356.95,18.338
			c-119.55,0.569-245.858-14.202-354.384-68.386c-108.223-54.03-148.468-190.368-170.33-301.971
			c-34.781-177.522-52.818-394.697-22.24-653.195c22.842-193.106,38.273-399.31,148.003-566.604
			c97.517-148.671,255.707-224.797,427.438-251.645c98.223-15.354,208.709-25.916,308.042-17.619
			c207.984,17.37,404.561,87.581,583.72,192.396c146.286,85.581,315.793,147.013,444.733,259.063
			c252.511,219.44,411.175,580.323,387.486,916.561c-8.168,115.992-31.296,237.59-64.666,348.976
			c-57.229,191.032-217.04,476.248-391.598,604.333c-40.292,29.567-87.809,23.679-130.505,2.883
			c-41.854-20.399-78.451-54.551-111.561-84.137c-18.5-17.384-53.923-52.123-53.923-52.123
			c55.794,56.221,101.072,114.248,145.126,180.299c55.178,82.717,83.655,173.4,93.761,268.173
			c6.694,62.686,5.343,127.155-1.636,192.301c-6.484,60.496-14.814,120.762-23.104,181.187
			c-19.721,143.661-83.329,307.25-161.601,428.156c-52.338,80.844-102.035,157.78-171.439,225.5
			c-227.284,221.755-515.799,334.636-833.482,329.377c-123.906-2.055-240.217-35.749-350.249-91.467
			c-113.995-57.734-151.503-145.144-193.171-261.675c-42.622-119.18-68.787-251.478-69.51-377.533
			c-1.238-215.779-3.202-426.834,13.696-641.441c17.922-227.628,75.772-534.806,326.078-621.946
			C3703.914,2741.204,3941.82,2826.888,4107.287,2715.944z" style="stroke:black;fill:#bfdae3"/><path id="180609553" parent_id="180609550" order="1" structure_id="688" d="M5104.384,1259.855
			c-128.94-112.049-298.447-173.481-444.733-259.063c-179.159-104.815-375.736-175.026-583.72-192.396
			c-99.333-8.297-209.819,2.264-308.042,17.619c-171.73,26.848-329.921,102.974-427.438,251.645
			c-109.729,167.295-125.161,373.498-148.003,566.604c-30.578,258.499-12.541,475.673,22.24,653.195
			c21.862,111.604,62.107,247.941,170.33,301.971c108.525,54.184,234.834,68.956,354.384,68.386
			c119.145-0.562,238.434-22.621,356.95-18.338c8.715,0.309,16.604,0.668,23.949,0.813c14.26,0.293,27.173,0.049,40.821-4.169
			c7.004-2.166,13.567-4.577,19.976-8.16c4.331-2.427,11.516-7.801,17.72-10.78c-31.79,28.5-56.644,65.373-91.53,88.76
			c-165.468,110.944-403.373,25.26-593.199,91.333c-250.306,87.141-308.156,394.318-326.078,621.946
			c-16.898,214.607-14.935,425.662-13.696,641.441c0.723,126.056,26.888,258.354,69.51,377.533
			c41.668,116.531,79.176,203.94,193.171,261.675c110.032,55.718,226.343,89.412,350.249,91.467
			c317.683,5.259,606.198-107.622,833.482-329.377c69.404-67.72,119.102-144.656,171.439-225.5
			c78.271-120.906,141.88-284.495,161.601-428.156c8.289-60.425,16.619-120.69,23.104-181.187
			c6.979-65.146,8.33-129.615,1.636-192.301c-10.105-94.772-38.583-185.456-93.761-268.173
			c-44.054-66.051-89.332-124.078-145.126-180.299c0,0,35.423,34.739,53.923,52.123c33.109,29.586,69.706,63.737,111.561,84.137
			c42.696,20.796,90.213,26.685,130.505-2.883c174.558-128.085,334.368-413.3,391.598-604.333
			c33.37-111.386,56.498-232.984,64.666-348.976C5515.559,1840.178,5356.895,1479.296,5104.384,1259.855z M4108.381,3644.534
			c-5.888,20.439-17.19,38.688-28.346,56.596c-18.681,29.979-30.212,71.018-58.086,94.152
			c-11.018,9.145-35.969,36.815-51.791,27.716c-13.452-7.745-13.273-28.742-18.762-41.625
			c-7.964-18.713-18.363-35.883-25.105-55.264c-3.958-11.38-15.081-27.361-23.534-43.619c-8.55-16.449-14.372-33.163-7.288-45.671
			c11.571-20.452,51.563-19.121,71.538-21.657c25.732-3.249,51.123-11.177,76.994-13.086
			C4081.093,3599.344,4123.323,3592.658,4108.381,3644.534z" style="stroke:black;fill:#b0ffb8"/><path id="180609571" parent_id="180609550" order="2" structure_id="656" d="M5104.396,1259.893
			c252.494,219.391,411.178,580.289,387.495,916.504c-8.172,115.991-31.354,237.652-64.708,348.973
			c-21.014,70.128-55.87,153.015-100.231,236.151l-143.508-149.596c93.06-147.928,82.22-379.743,64.709-534.175
			c-15.677-137.671-52.7-273.008-119.242-395.086c-35.272-64.625-83.72-127.248-135.086-179.782
			c-90.641-92.727-205.047-161.104-313.199-231.149c-119.743-77.466-245.156-147.595-382.577-188.538
			c-56.702-16.927-138.338-42.61-197.375-46.947c-59.538-4.42-120.911-12.508-185.535-6.254
			c-142.758,13.842-229.146,39.691-291.854,68.793c-23.015,10.673-43.944,23.015-63.04,36.857l-114.572-174.695
			c90.391-73.881,203.046-116.24,322.205-134.919c98.229-15.343,208.717-25.933,308.03-17.593
			c208.049,17.344,404.591,87.556,583.788,192.374C4805.956,1086.364,4975.481,1147.82,5104.396,1259.893z" style="stroke:black;fill:#1f9d5a"/><path id="180609570" parent_id="180609550" order="3" structure_id="962" d="M5248.153,2077.75
			c17.511,154.432,28.351,386.248-64.709,534.175l-321.871-335.299l-0.334-3.418c79.551-6.004,110.154-111.655,103.233-197.626
			c-36.856-458.043-818.854-929.513-1244.042-695.531l-160.186-244.407c19.096-13.842,40.025-26.184,63.04-36.857
			c62.707-29.102,149.096-54.952,291.854-68.793c64.624-6.254,125.997,1.834,185.535,6.254
			c59.037,4.336,140.673,30.02,197.375,46.947c137.421,40.943,262.834,111.072,382.577,188.538
			c108.152,70.045,222.559,138.422,313.199,231.149c51.366,52.534,99.813,115.157,135.086,179.782
			C5195.453,1804.741,5232.477,1940.078,5248.153,2077.75z" style="stroke:black;fill:#1f9d5a"/><path id="180609569" parent_id="180609550" order="4" structure_id="767" d="M4964.473,2075.581
			c6.921,85.972-23.683,191.623-103.233,197.626c-16.844,1.25-35.939-2.001-57.37-10.84c-34.938-14.426-67.626-39.442-99.229-66.126
			c-29.352-24.766-57.62-50.95-85.805-71.296c-66.876-48.531-137.421-92.143-212.302-126.832
			c-9.339-4.336-18.762-8.505-28.268-12.508L3961,1747.119l-240.569-367.069C4145.618,1146.068,4927.616,1617.538,4964.473,2075.581
			z" style="stroke:black;fill:#1f9d5a"/><path id="180609585" parent_id="180609550" order="5" structure_id="171" d="M3445.673,960.948l114.572,174.695
			c-118.325,85.721-166.273,228.479-188.287,377.158l-144.759-57.537l-11.341-1.668c19.43-132.418,50.533-263.001,124.58-375.907
			C3370.291,1032.16,3405.814,993.469,3445.673,960.948z" style="stroke:black;fill:#2fa850"/><path id="180609584" parent_id="180609550" order="6" structure_id="304" d="M3560.245,1135.644
			l160.186,244.407c-15.26,8.422-30.103,17.678-44.362,27.935c-43.694,31.353-64.541,114.156-76.466,195.375l-227.645-90.558
			C3393.972,1364.123,3441.92,1221.365,3560.245,1135.644z" style="stroke:black;fill:#2fa850"/><path id="180609583" parent_id="180609550" order="7" structure_id="363" d="M3720.431,1380.05L3961,1747.119
			l-361.397-143.76c11.925-81.218,32.771-164.021,76.466-195.375C3690.328,1397.728,3705.171,1388.472,3720.431,1380.05z" style="stroke:black;fill:#2fa850"/><path id="180609576" parent_id="180609550" order="8" structure_id="448" d="M4536.115,2425.304
			l168.439,530.923l-2.585,2.752c-12.925-12.008-24.933-22.432-35.772-30.103c-114.323-80.969-130.666-179.949-202.879-292.688
			c-29.269-45.696-111.404-92.977-166.939-83.721c-41.193,6.838-65.292,50.783-96.229,73.547
			c-30.186,22.098-50.782,24.849-79.884,24.266c-7.338-0.167-15.177-0.5-23.933-0.834c-18.761-0.667-37.44-0.667-56.202-0.25
			l-36.939-420.769c68.961-22.515,139.172-37.274,219.306-16.51c82.052,21.347,159.519,67.376,224.643,120.911
			C4477.661,2357.928,4506.93,2390.031,4536.115,2425.304z" style="stroke:black;fill:#248a5e"/><path id="180609575" parent_id="180609550" order="9" structure_id="412" d="M4378.266,1985.605
			c9.506,4.003,18.929,8.172,28.268,12.508l-3.586,7.505l133.168,419.686c-29.186-35.273-58.454-67.376-88.974-92.476
			c-65.124-53.535-142.591-99.564-224.643-120.911c-80.135-20.764-150.345-6.004-219.306,16.51l-26.767-305.195
			c116.074-14.759,232.148-0.5,350.389,42.027C4344.243,1971.513,4361.338,1978.268,4378.266,1985.605z" style="stroke:black;fill:#248a5e"/><path id="180609574" parent_id="180609550" order="10" structure_id="630" d="M3961,1747.119l417.265,238.486
			c-16.928-7.338-34.022-14.092-51.45-20.346c-118.241-42.527-234.315-56.787-350.389-42.027L3961,1747.119z" style="stroke:black;fill:#248a5e"/><path id="180609582" parent_id="180609550" order="11" structure_id="484" d="M3379.879,2118.189L3203.6,2230.76
			l-0.834,0.167c-26.517-164.438-37.106-359.563-10.339-586.625c7.421-62.79,14.092-126.915,23.432-190.706l11.341,1.668
			l144.759,57.537c-12.592,85.054-16.761,172.11-20.764,251.578C3345.608,1872.865,3339.02,2008.202,3379.879,2118.189z" style="stroke:black;fill:#248a5e"/><path id="180609581" parent_id="180609550" order="12" structure_id="582" d="M3632.206,1957.086
			l-252.327,161.103c-40.859-109.987-34.271-245.324-28.685-353.81c4.003-79.468,8.172-166.523,20.764-251.578l227.645,90.558
			c-9.172,62.624-13.092,124.33-17.845,160.937C3570.751,1847.766,3587.595,1919.479,3632.206,1957.086z" style="stroke:black;fill:#248a5e"/><path id="180609580" parent_id="180609550" order="13" structure_id="620" d="M3961,1747.119l-328.794,209.967
			c-44.611-37.607-61.455-109.32-50.448-192.79c4.753-36.607,8.673-98.313,17.845-160.937L3961,1747.119z" style="stroke:black;fill:#248a5e"/><path id="180609579" parent_id="180609550" order="14" structure_id="969" d="M4003.193,2228.427
			l36.939,420.769c-99.98,2.418-200.378,18.178-300.691,18.595c-119.576,0.583-245.907-14.176-354.393-68.377
			c-108.236-54.035-148.512-190.372-170.358-301.944c-4.253-21.597-8.255-43.778-11.924-66.542l0.834-0.167l176.279-112.571
			c14.342,38.608,34.521,74.131,62.706,104.233c80.301,85.888,212.802,80.135,323.039,72.13
			C3851.179,2288.298,3926.394,2253.526,4003.193,2228.427z" style="stroke:black;fill:#248a5e"/><path id="180609578" parent_id="180609550" order="15" structure_id="288" d="M3976.426,1923.232
			l26.767,305.195c-76.799,25.099-152.014,59.871-237.568,66.125c-110.237,8.005-242.738,13.758-323.039-72.13
			c-28.185-30.103-48.364-65.625-62.706-104.233l252.327-161.103c36.94,31.187,93.143,38.942,168.524,10.424
			C3859.435,1945.329,3917.972,1930.57,3976.426,1923.232z" style="stroke:black;fill:#248a5e"/><path id="180609577" parent_id="180609550" order="16" structure_id="1125" d="M3961,1747.119l15.426,176.113
			c-58.454,7.338-116.991,22.097-175.695,44.278c-75.382,28.518-131.584,20.763-168.524-10.424L3961,1747.119z" style="stroke:black;fill:#248a5e"/><path id="180609573" parent_id="180609550" order="17" structure_id="996" d="M5183.444,2611.925l143.508,149.596
			c-76.382,143.259-180.949,287.184-291.354,368.235c-40.275,29.519-87.806,23.682-130.499,2.835
			c-42.944-20.93-80.385-56.286-114.073-86.389c-0.584-0.5-1.167-1.001-1.668-1.501c-17.177-16.344-33.771-33.021-49.447-48.614
			c-13.342-13.342-26.017-25.934-37.941-37.107l2.585-2.752l-168.439-530.923c129.749,156.934,256.579,376.075,477.804,314.035
			C5091.552,2717.492,5145.92,2671.546,5183.444,2611.925z" style="stroke:black;fill:#219866"/><path id="180609572" parent_id="180609550" order="18" structure_id="328" d="M4861.573,2276.626
			l321.871,335.299c-37.524,59.622-91.893,105.567-169.525,127.414c-221.225,62.04-348.055-157.101-477.804-314.035
			l-133.168-419.686l3.586-7.505c74.881,34.689,145.426,78.3,212.302,126.832c28.185,20.346,56.453,46.53,85.805,71.296
			c31.604,26.684,64.291,51.7,99.229,66.126c21.431,8.839,40.526,12.091,57.37,10.84L4861.573,2276.626z" style="stroke:black;fill:#219866"/><path id="180609554" parent_id="180609550" order="19" structure_id="698" d="M4978.505,3444.819
			c-10.105-94.772-38.583-185.456-93.761-268.173c-43.268-64.873-87.725-122.005-142.158-177.288l-40.616-40.379
			c-12.925-12.008-24.933-22.432-35.772-30.103c-114.323-80.969-130.666-179.949-202.879-292.688
			c-29.269-45.696-111.404-92.977-166.939-83.721c-41.193,6.838-65.292,50.783-96.229,73.547c-0.77,0.563-1.529,1.106-2.286,1.645
			c0.319-0.163,0.638-0.324,0.953-0.476c-31.79,28.5-56.644,65.373-91.53,88.76c-165.468,110.944-403.373,25.26-593.199,91.333
			c-250.306,87.141-308.156,394.318-326.078,621.946c-16.898,214.607-14.935,425.662-13.696,641.441
			c0.723,126.056,26.888,258.354,69.51,377.533c41.668,116.531,79.176,203.94,193.171,261.675
			c110.032,55.718,226.343,89.412,350.249,91.467c317.683,5.259,606.198-107.622,833.482-329.377
			c69.404-67.72,119.102-144.656,171.439-225.5c78.271-120.906,141.88-284.495,161.601-428.156
			c8.289-60.425,16.619-120.69,23.104-181.187C4983.848,3571.975,4985.199,3507.505,4978.505,3444.819z M4108.381,3644.534
			c-5.888,20.439-17.19,38.688-28.346,56.596c-18.681,29.979-30.212,71.018-58.086,94.152
			c-11.018,9.145-35.969,36.815-51.791,27.716c-13.452-7.745-13.273-28.742-18.762-41.625
			c-7.964-18.713-18.363-35.883-25.105-55.264c-3.958-11.38-15.081-27.361-23.534-43.619c-8.55-16.449-14.372-33.163-7.288-45.671
			c11.571-20.452,51.563-19.121,71.538-21.657c25.732-3.249,51.123-11.177,76.994-13.086
			C4081.093,3599.344,4123.323,3592.658,4108.381,3644.534z" style="stroke:black;fill:#9ad2bd"/><path id="180609555" parent_id="180609550" order="20" structure_id="507" d="M3993.236,4378.049
			c13.737,69.824,44.274,147.128,19.381,218.137c-13.974,39.865-55.064,68.859-63.614,111.103
			c-12.321,60.829,26.351,78.378,71.114,77.739c-102.214,16.823-139.07,20.509-232.88,16.323
			c-120.267-5.367-239.524-35.403-351.062-91.893c-113.997-57.735-150.096-147.58-191.765-264.105
			c-42.622-119.188-67.719-251.491-69.511-377.541c-3.127-221.545-6.311-426.836,13.697-641.442
			c21.196-227.351,77.067-532.567,327.365-619.708c51.311-17.851,106.456-29.104,160.299-26.434
			c57.394,2.834,123.068,1.563,180.494-1.205c55.691-2.679,127.165-10.423,184.859-26.791
			c-27.516,19.707-54.886,55.211-79.665,79.698c-95.495,94.348-161.325,209.248-181.333,343.294
			c-7.044,47.264-8.917,97.43-6.197,145.153c4.243,74.38,21.571,147.034,44.21,217.791c17.622,55.072,52.556,94.885,83.842,141.899
			c9.446,14.206,18.119,30.944,24.585,46.791c8.118,19.938,18.313,38.994,26.188,59.043c24.364,62.056,10.595,126.195,4.82,190.73
			c-7.467,83.452-5.406,169.119,21.034,248.898c7.435,22.414,4.609,48.798,5.651,72.495L3993.236,4378.049z" style="stroke:black;fill:#9ad2bd"/><path id="180609556" parent_id="180609550" order="21" structure_id="212" d="M3787.237,4801.351
			c-123.907-2.057-240.217-35.753-350.247-91.47c-113.997-57.735-151.505-145.141-193.174-261.674
			c-42.621-119.185-68.077-251.479-69.502-377.537c-2.533-221.887-8.9-438.578,13.688-641.442
			c20.61-185.075,51.277-411.926,195.828-546.118c32.027-29.73,109.591-83.606,155.625-80.309
			c-194.403,208.056-252.073,529.881-236.341,808.298c2.842,50.26,16.222,98.533,21.156,148.459
			c7.41,74.804-6.181,148.476-8.812,223.056c-3.191,89.938,28.681,168.382,62.027,250.449
			c51.962,127.914,97.727,263.869,169.615,382.292c52.711,86.823,116.065,133.215,215.941,146.668
			c36.034,4.857,76.889,5.13,102.255,35.162c-0.18,0.118-0.172-0.627,0-0.427c-0.538,1.901-1.621,3.444-3.314,4.642
			C3838.776,4805.324,3810.779,4801.737,3787.237,4801.351z" style="stroke:black;fill:#82c7ae"/><path id="180609560" parent_id="180609550" order="22" structure_id="220" d="M3818.629,3538.168
			c17.622,55.072,52.556,94.885,83.842,141.899c9.446,14.206,18.119,30.944,24.585,46.791c8.118,19.938,18.313,38.994,26.188,59.043
			c24.364,62.056,10.595,126.195,4.82,190.73c-7.467,83.452-5.406,169.119,21.034,248.898c7.435,22.414,4.609,48.798,5.651,72.495
			l8.485,80.023c12.451,63.236,43.705,137.633,23.925,201.027c-33.729,108.008-131.236,77.414-141.154,72.459
			c-41.938-20.937-58.298-70.907-78.794-114.014c-95.17-200.295-151.049-429.682-186.992-647.668
			c-18.9-114.604-58.412-225.254-75.309-340.685c-15.179-103.712-5.236-210.885,13.069-313.539
			c21.132-118.451,61.718-272.041,156.83-352.398c42.467-35.879,126.236-78.085,182.645-51.57
			c62.776,29.527-22.524,117.115-40.716,149.884c-33.314,59.999-55.984,125.793-66.123,193.679
			c-7.044,47.264-8.917,97.43-6.197,145.153C3778.662,3394.757,3795.99,3467.411,3818.629,3538.168z" style="stroke:black;fill:#82c7ae"/><path id="180609559" parent_id="180609550" order="23" structure_id="228" d="M3797.212,4537.521
			c-95.17-200.295-151.049-429.682-186.992-647.668c-18.9-114.604-58.412-225.254-75.309-340.685
			c-15.179-103.712-5.236-210.885,13.069-313.539c21.132-118.451,61.718-272.041,156.83-352.398
			c6.521-5.51,14.021-11.169,22.241-16.705c-0.33-1.089-0.653-2.172-0.958-3.248c-10.041-2.409-20.104-1.897-29.186,1.377
			c-7.726,18.832-27.184,32.839-41.38,47.437c-52.166,53.708-70.35,101.024-89.226,169.855
			c-19.34,70.508-27.313,132.368-48.647,208.345c-17.996,64.07-23.884,133.854-15.284,205.205
			c11.042,91.75,45.756,181.854,41.864,273.694c-4.487,106.529,39.763,187.205,60.699,286.771
			c22.947,109.136,50.463,217.661,89.168,322.379c23.844,64.498,51.074,127.901,74.779,192.318
			c9.951,27.027,14.706,38.762,35.105,60.839c12.489,13.514,31.834,29.752,41.834,48.183c21.192,3.345,27.983-13.14,32.478-27.169
			c-0.989-0.38-1.77-0.716-2.293-0.978C3834.069,4630.599,3817.708,4580.628,3797.212,4537.521z" style="stroke:black;fill:#9ad2bd"/><path id="180609558" parent_id="180609550" order="24" structure_id="236" d="M3502.371,3495.497
			c-8.6-71.351-2.712-141.135,15.284-205.205c21.335-75.977,29.308-137.837,48.647-208.345
			c18.876-68.831,37.06-116.147,89.226-169.855c15.105-15.533,36.172-30.396,42.719-51.115
			c-85.527,9.523-125.813,105.133-150.006,175.999c-32.133,94.092-63.663,185.112-76.701,284.004
			c-7.996,60.729-18.135,129.885-11.123,191.049c5.285,46.09,28.94,85.976,30.423,132.384c2.068,64.91,9.771,132.377,18.363,196.236
			c8.42,62.516,16.221,119.331,36.742,177.86c17.931,51.135,39.584,102.323,55.17,154.961
			c47.369,160.08,62.035,319.94,156.309,461.209c12.72,19.055,34.137,24.959,51.05,40.333c1.141,1.03,44.854,34.52,43.575,23.229
			c-2.98-26.2-31.531-48.855-48.062-66.741c-20.399-22.077-25.154-33.812-35.105-60.839
			c-23.705-64.417-50.936-127.82-74.779-192.318c-38.705-104.718-66.221-213.243-89.168-322.379
			c-20.937-99.566-65.187-180.242-60.699-286.771C3548.127,3677.352,3513.413,3587.247,3502.371,3495.497z" style="stroke:black;fill:#82c7ae"/><path id="180609557" parent_id="180609550" order="25" structure_id="244" d="M3808.474,4675.012
			c-16.913-15.374-38.33-21.278-51.05-40.333c-94.273-141.269-108.939-301.129-156.309-461.209
			c-15.586-52.638-37.239-103.826-55.17-154.961c-20.521-58.529-28.322-115.345-36.742-177.86
			c-8.592-63.859-16.295-131.326-18.363-196.236c-1.482-46.408-25.138-86.294-30.423-132.384
			c-7.012-61.164,3.127-130.32,11.123-191.049c13.038-98.892,44.568-189.912,76.701-284.004
			c23.029-67.457,60.642-157.329,137.975-174.035c5.202-11.267,6.391-23.306-0.025-33.442
			c-14.995-23.688-80.977-17.752-102.596-15.518c-23.139,2.391-46.163,7.169-67.515,15.195
			c-175.646,208.215-228.049,515.008-212.966,781.923c2.842,50.26,16.222,98.533,21.156,148.459
			c7.41,74.804-6.181,148.476-8.812,223.056c-3.191,89.938,28.681,168.382,62.027,250.449
			c51.962,127.914,97.727,263.869,169.615,382.292c52.711,86.823,116.065,133.215,215.941,146.668
			c21.2,2.857,44.066,4.135,64.467,10.813c9.249-3.759,17.684-9.118,24.374-16.899c23.941-27.841,15.31-40.35-1.255-55.418
			C3843.186,4701.759,3809.474,4675.915,3808.474,4675.012z" style="stroke:black;fill:#9ad2bd"/><path id="180609561" parent_id="180609550" order="26" structure_id="159" d="M4017.657,4380.902
			c13.737,69.833,44.274,147.137,19.389,218.146c-16.563,47.219-122.425,141.208-29.593,172.16
			c41.368,13.795,105.365-5.818,147.954-20.586c107.58-37.288,214.158-83.081,307.96-148.016
			c55.732-38.583,108.826-83.289,157.352-130.638c69.404-67.715,119.111-144.652,171.439-225.498
			c78.272-120.907,141.879-284.492,161.602-428.155c8.29-60.427,16.629-120.691,23.103-181.191
			c6.979-65.142,8.339-129.611,1.637-192.303c-10.105-94.771-38.582-185.449-93.761-268.168
			c-44.047-66.05-93.501-129.295-149.29-185.512c-58.899-61.399-120.886-88.74-208.824-103.016
			c-74.006-12.027-181.276-28.778-255.705-40.305c-48.818-7.569-186.333-29.381-216.813-31.963
			c-79.689-6.746-98.32,63.31-143.613,117.809c-88.5,106.493-119.38,253.841-111.651,389.568
			c3.55,62.279,15.912,124.478,34.055,184.542c16.197,53.651,29.495,108.533,62.287,155.324
			c-21.18-30.224,26.263-42.378,46.344-45.741c-26.197-26.205-1.792-39.73,9.837-47.479c17.622-11.768,38.574-19.373,59.355-24.41
			c44.047-10.643,90.348-10.749,133.597-24.841c34.82-11.352,69.511-25.887,106.18-30.19c25.121-2.94,59.453-1.734,63.085,29.804
			c5.497,47.769-50.406,93.993-74.331,131.09c-24.12,37.438-52.882,71.478-74.396,109.877
			c-32.72,58.396-61.433,112.779-103.419,164.97c-19.755,24.568-39.73,55.675-43.599,87.438
			c-5.032,41.079,32.093,271.012-26.205,271.007L4017.657,4380.902z" style="stroke:black;fill:#54bf94"/><path id="180609566" parent_id="180609550" order="27" structure_id="167" d="M4612.282,3372.095
			c13.812-7.138,27.654-14.401,40.814-22.561l0.92-0.935c-21.667-60.124-61.187-122.287-118.565-144.354
			c-82.585-31.756-180.912-64.56-276.943-83.201l-0.104,0.136c-37.646,59.523-70.74,121.086-70.781,194.033
			c-0.017,34.874,2.761,71.827-4.259,106.188c-6.941,34.009-33.055,63.132-34.688,97.791c33.36-11.11,66.683-24.628,101.821-28.752
			c22.528-2.637,52.447-1.922,61.006,20.995l1.103-0.69C4413.083,3463.689,4514.499,3422.636,4612.282,3372.095z" style="stroke:black;fill:#54bf94"/><path id="180609562" parent_id="180609550" order="28" structure_id="175" d="M4049.465,2937.923
			c-25.569,29.687-5.886,47.453,21.318,50.271c37.613,3.888,87.824,10.818,125.348,21.962
			c53.973,16.03,104.966,26.563,159.558,40.569c40.285,10.338,299.442,132.051,290.094,41.596
			c-4.03-39.017-65.176-57.482-100.227-67.859c-0.002-0.001-0.005-0.001-0.008-0.002c-34.828-9.265-69.4-19.361-103.971-29.544
			c-35.813-9.704-71.704-19.122-107.524-28.786c-29.496-7.953-58.93-16.858-88.626-24.489
			c-30.628-6.814-61.608-12.664-93.114-17.045c-0.305-0.042-0.612-0.077-0.918-0.118c-3.552-0.296-7.11-0.554-10.679-0.749
			c-6.084-0.334-13.553-1.072-21.61-1.671c-11.222-0.333-22.623-0.303-34.013-0.3c-13.021,1.241-24.849,4.689-32.33,12.528
			C4051.586,2935.519,4050.493,2936.729,4049.465,2937.923" style="stroke:black;fill:#54bf94"/><path id="180609563" parent_id="180609550" order="29" structure_id="175" d="M4299.074,4508.144
			c-29.567,13.139-68.498-1.633-96.696-12.479c-52.084-20.028-141.326-29.604-172.514-82.678l-6.89-7.636
			c-1.921-8.235-3.731-16.393-5.316-24.449l-26.026-96.277c28.811,0.002,34.315-56.153,33.121-117.919l1.562,1.406
			c22.581,22.857,96.715,66.053,166.704,116.42c94.955,68.333,182.283,149.867,122.893,211.735
			C4310.808,4501.584,4305.137,4505.449,4299.074,4508.144z" style="stroke:black;fill:#54bf94"/><path id="180609565" parent_id="180609550" order="30" structure_id="183" d="M4257.377,4019.286
			c30.252,36.453,65.919,73.184,102.474,102.955l1.284,0.781c12.703-14.146,24.962-28.669,36.606-43.688
			c90.487-116.713,158.093-256.947,210.241-394.263c33.241-87.515,80.162-194.635,59.552-289.658
			c-3.237-14.929-7.746-30.799-13.518-46.813l-0.92,0.935c-13.16,8.159-27.003,15.423-40.814,22.561
			c-97.783,50.541-199.199,91.595-299.678,138.65l-1.103,0.69c0.986,2.638,1.704,5.553,2.079,8.809
			c5.497,47.769-50.406,93.993-74.331,131.09c-24.12,37.438-52.882,71.478-74.396,109.877
			c-21.313,38.037-40.929,74.371-63.617,109.507l1.509,1.363C4155.171,3921.168,4211.367,3963.852,4257.377,4019.286z" style="stroke:black;fill:#54bf94"/><path id="180609567" parent_id="180609550" order="31" structure_id="191" d="M4187.622,3315.214
			c0.041-72.947,33.135-134.51,70.781-194.033l0.104-0.136c-48.647-9.443-96.705-15.257-141.829-15.45
			c-66.229-0.289-132.14,30.745-186.26,67.568c-36.303,24.69-121.521,84.816-132.034,130.504l-0.354,0.981
			c0.189,6.216,0.459,12.414,0.811,18.587c3.55,62.279,15.912,124.478,34.055,184.542c16.197,53.651,29.495,108.533,62.287,155.324
			c-21.18-30.224,26.263-42.378,46.344-45.741c-26.197-26.205-1.792-39.73,9.837-47.479c17.622-11.768,38.574-19.373,59.355-24.41
			c44.047-10.643,90.348-10.749,133.597-24.841c1.453-0.474,2.906-0.955,4.358-1.438c1.634-34.659,27.747-63.782,34.688-97.791
			C4190.383,3387.041,4187.605,3350.088,4187.622,3315.214z" style="stroke:black;fill:#54bf94"/><path id="180609564" parent_id="180609550" order="32" structure_id="199" d="M4193.018,4284.532l2.846-2.464
			c55.896-51.557,114.242-102.223,165.271-159.046l-1.284-0.781c-36.555-29.771-72.222-66.502-102.474-102.955
			c-46.01-55.435-102.206-98.118-154.632-147.205l-1.509-1.363c-12.142,18.806-25.164,37.268-39.802,55.463
			c-19.755,24.568-39.73,55.675-43.599,87.438c-2.545,20.778,5.693,89.871,6.916,153.088l1.562,1.406
			C4048.895,4190.97,4123.028,4234.165,4193.018,4284.532z" style="stroke:black;fill:#54bf94"/><path id="180609568" parent_id="180609550" order="33" structure_id="160" d="M4826.237,3355.263
			c-6.156-78.184-27.239-164.474-85.39-220.914c-5.148-4.997-10.277-9.784-15.404-14.395c-0.41-0.37-0.821-0.751-1.232-1.118
			c-8.386-7.494-16.769-14.471-25.216-21.01c-0.849-0.657-1.696-1.326-2.547-1.975c-0.203-0.154-0.408-0.304-0.611-0.458
			c-1.659-1.26-3.32-2.508-4.986-3.733c-1.022-0.753-2.051-1.484-3.077-2.225c-0.85-0.612-1.696-1.236-2.548-1.841
			c-0.424-0.301-0.851-0.59-1.274-0.888c-3.34-2.352-6.695-4.648-10.073-6.872c-0.137-0.09-0.275-0.176-0.412-0.267
			c-3.672-2.409-7.366-4.749-11.093-7.016c-0.506-0.308-1.018-0.604-1.524-0.909c-34.365-20.678-71.365-35.491-115.284-47.18
			c35.052,10.378,96.188,28.844,100.219,67.857c9.349,90.455-249.809-31.258-290.094-41.596
			c-54.592-14.006-105.585-24.539-159.558-40.569c-37.524-11.144-87.735-18.074-125.348-21.962
			c-27.204-2.818-46.888-20.585-21.318-50.271c-40.445-11.852-104.49-9.665-149.205,8.591c-0.009,0.011-0.018,0.021-0.025,0.033
			c-1.189,1.553-2.367,3.114-3.534,4.683c-0.006,0.008-0.012,0.016-0.018,0.023c-25.867,34.792-46.149,73.336-61.437,114.005
			c-0.026,0.069-0.053,0.138-0.078,0.207c-0.663,1.767-1.316,3.538-1.961,5.313c-0.042,0.113-0.083,0.228-0.124,0.342
			c-0.64,1.764-1.27,3.531-1.891,5.303c-0.033,0.096-0.066,0.19-0.1,0.286c-0.632,1.807-1.255,3.616-1.868,5.431
			c-0.004,0.013-0.008,0.024-0.012,0.037c-4.41,13.059-8.327,26.309-11.77,39.696c-0.022,0.089-0.046,0.177-0.068,0.266
			c-0.446,1.735-0.882,3.475-1.311,5.216c-0.063,0.254-0.127,0.508-0.189,0.762c-0.405,1.652-0.803,3.308-1.193,4.965
			c-0.08,0.337-0.16,0.675-0.239,1.012c-0.378,1.615-0.75,3.232-1.115,4.851c-0.083,0.368-0.165,0.736-0.247,1.104
			c-0.359,1.607-0.714,3.217-1.06,4.828c-0.078,0.363-0.155,0.727-0.232,1.09c-0.348,1.633-0.69,3.267-1.024,4.902
			c-0.062,0.3-0.121,0.6-0.182,0.898c-0.347,1.71-0.689,3.422-1.021,5.135c-0.023,0.121-0.046,0.242-0.069,0.363
			c-1.826,9.449-3.43,18.943-4.82,28.465c-0.039,0.267-0.079,0.533-0.118,0.801c-0.229,1.579-0.448,3.159-0.665,4.74
			c-0.064,0.471-0.13,0.941-0.194,1.412c-0.199,1.481-0.392,2.964-0.581,4.446c-0.073,0.569-0.146,1.14-0.218,1.71
			c-0.179,1.431-0.352,2.861-0.521,4.292c-0.073,0.616-0.146,1.232-0.217,1.849c-0.162,1.408-0.32,2.816-0.475,4.226
			c-0.068,0.633-0.136,1.265-0.203,1.897c-0.148,1.403-0.295,2.807-0.434,4.21c-0.063,0.627-0.123,1.254-0.184,1.881
			c-0.137,1.421-0.272,2.842-0.4,4.263c-0.053,0.575-0.101,1.149-0.151,1.724c-0.129,1.477-0.257,2.952-0.377,4.428
			c-0.036,0.451-0.069,0.901-0.104,1.352c-0.569,7.213-1.023,14.426-1.361,21.633c-0.018,0.36-0.037,0.72-0.053,1.079
			c-0.066,1.447-0.123,2.895-0.18,4.341c-0.023,0.614-0.05,1.229-0.072,1.843c-0.049,1.354-0.092,2.706-0.133,4.059
			c-0.021,0.705-0.044,1.41-0.063,2.115c-0.036,1.306-0.065,2.611-0.095,3.917c-0.016,0.749-0.032,1.499-0.046,2.248
			c-0.024,1.281-0.044,2.562-0.061,3.842c-0.01,0.767-0.019,1.532-0.026,2.299c-0.012,1.277-0.021,2.554-0.027,3.83
			c-0.003,0.755-0.004,1.51-0.005,2.265c-0.001,1.291-0.001,2.582,0.005,3.872c0.004,0.729,0.01,1.456,0.016,2.185
			c0.01,1.313,0.021,2.627,0.038,3.939c0.009,0.677,0.021,1.353,0.032,2.028c0.022,1.368,0.045,2.735,0.074,4.102
			c0.012,0.525,0.027,1.05,0.04,1.575c0.036,1.508,0.073,3.015,0.119,4.52l0.354-0.981
			c10.513-45.688,95.731-105.813,132.034-130.504c54.119-36.823,120.03-67.857,186.26-67.568
			c45.124,0.193,93.182,6.007,141.829,15.45c96.031,18.642,194.358,51.445,276.943,83.201
			c57.379,22.066,96.898,84.229,118.565,144.354c5.771,16.015,10.28,31.885,13.518,46.813
			c20.61,95.023-26.311,202.144-59.552,289.658c-52.148,137.315-119.754,277.55-210.241,394.263
			c-11.645,15.02-23.903,29.542-36.606,43.688c-51.029,56.823-109.376,107.489-165.271,159.046l-2.846,2.464
			c94.955,68.333,182.283,149.867,122.893,211.735c-5.103,5.316-10.773,9.182-16.836,11.876
			c-29.567,13.139-68.498-1.633-96.696-12.479c-52.084-20.028-141.326-29.604-172.514-82.678l-6.89-7.636
			c14.731,63.14,36.086,130.881,14.072,193.696c-16.563,47.219-122.425,141.208-29.593,172.16
			c41.368,13.795,105.365-5.818,147.954-20.586c47.373-16.42,94.55-34.492,140.528-55.118l-8.807-20.55
			c-26.053,0.053-47.197-10.593-58.954-37.979c-20.309-47.312,50.732-80.589,80.528-101.44c11.01-7.699,21.764-15.648,32.292-23.815
			c0.056-0.043,0.11-0.087,0.166-0.13c11.659-9.049,23.027-18.38,34.124-27.972c0.238-0.207,0.479-0.41,0.717-0.616
			c2.391-2.071,4.762-4.159,7.127-6.255c0.562-0.497,1.125-0.992,1.686-1.49c2.223-1.98,4.432-3.975,6.632-5.977
			c0.68-0.617,1.36-1.234,2.037-1.854c2.14-1.957,4.267-3.926,6.385-5.903c0.707-0.66,1.413-1.322,2.118-1.984
			c2.105-1.979,4.201-3.965,6.285-5.962c0.677-0.647,1.35-1.3,2.023-1.949c2.115-2.04,4.225-4.087,6.319-6.146
			c0.563-0.554,1.122-1.112,1.685-1.668c2.204-2.18,4.403-4.364,6.585-6.566c0.223-0.225,0.442-0.452,0.665-0.677
			c9.827-9.937,19.42-20.096,28.797-30.456c0.561-0.62,1.127-1.236,1.687-1.858c1.825-2.027,3.636-4.068,5.444-6.112
			c0.8-0.902,1.602-1.803,2.397-2.709c1.691-1.924,3.372-3.858,5.049-5.796c0.897-1.038,1.796-2.076,2.689-3.117
			c1.607-1.873,3.207-3.753,4.802-5.638c0.947-1.121,1.893-2.244,2.836-3.369c1.548-1.846,3.091-3.695,4.626-5.553
			c0.971-1.175,1.938-2.354,2.903-3.534c1.506-1.836,3.009-3.675,4.502-5.523c0.977-1.207,1.945-2.422,2.917-3.635
			c1.475-1.841,2.95-3.681,4.413-5.532c0.967-1.222,1.923-2.453,2.885-3.68c1.456-1.859,2.916-3.715,4.361-5.585
			c0.845-1.093,1.68-2.195,2.521-3.291c2.721-3.546,5.421-7.109,8.102-10.69c1.097-1.465,2.199-2.925,3.29-4.396
			c1.187-1.601,2.36-3.212,3.539-4.819c1.179-1.606,2.36-3.211,3.531-4.825c1.142-1.572,2.273-3.153,3.407-4.731
			c1.197-1.668,2.396-3.335,3.586-5.009c1.103-1.552,2.198-3.109,3.294-4.667c1.212-1.722,2.421-3.445,3.625-5.174
			c1.064-1.529,2.124-3.063,3.183-4.597c1.227-1.779,2.45-3.563,3.668-5.35c1.024-1.502,2.047-3.005,3.065-4.512
			c1.253-1.854,2.5-3.714,3.744-5.575c0.969-1.45,1.939-2.899,2.902-4.354c1.309-1.975,2.609-3.957,3.908-5.939
			c0.89-1.358,1.782-2.714,2.668-4.077c1.439-2.215,2.868-4.438,4.297-6.664c0.731-1.141,1.469-2.275,2.197-3.419
			c2.151-3.374,4.292-6.758,6.418-10.154c22.72-36.286,44.299-73.37,64.079-111.334c91.513-175.593,168.336-351.047,181.365-551.948
			C4827.125,3503.71,4832.174,3430.575,4826.237,3355.263z" style="stroke:black;fill:#54bf94"/><path id="180609587" parent_id="180609550" order="34" structure_id="1009" d="M4003.667,2915.133
			c45.545,11.674,100.853,2.817,148.646,9.463c136.391,18.965,263.018,65.227,393.235,99.864
			c79.241,21.087,135.976,52.308,195.299,109.889c58.15,56.44,79.233,142.73,85.39,220.914c5.937,75.313,0.888,148.447-3.99,223.683
			c-13.029,200.901-89.853,376.355-181.365,551.948c-19.78,37.964-41.359,75.048-64.079,111.334
			c-71.465,114.185-157.368,215.869-268.1,293.307c-29.796,20.852-100.837,54.129-80.528,101.44
			c48.51,112.996,256.821-58.981,310.289-91.668l82.255-73.338c69.404-67.715,119.111-144.652,171.439-225.498
			c78.272-120.907,141.879-284.492,161.602-428.155c8.29-60.427,16.629-120.691,23.103-181.191
			c6.979-65.142,8.339-129.611,1.637-192.303c-10.105-94.771-38.582-185.449-93.761-268.168
			c-58.077-87.068-127.946-185.088-220.087-238.931c-55.325-32.346-117.89-46.449-180.877-56.115
			c-64.258-9.861-128.842-17.537-193.011-27.997c-56.009-9.128-111.741-20.138-168.206-26.2
			c-47.719-5.122-94.127-20.811-133.63,13.375C3961.868,2864.193,3964.408,2905.063,4003.667,2915.133z" style="stroke:black;fill:#cccccc"/><path id="180609588" parent_id="180609550" order="35" structure_id="1009" d="M4111.435,3626.607
			c-1.133-8.38-1.368-20.102-11.987-23.131c-23.208-6.629-77.955,0.55-108.695,6.967c-13.307,2.776-49.642,13.921-59.25-2.154
			c-7.614-12.757,0.334-22.972,10.04-31.046c54.299-45.248,139.062-35.851,202.774-56.612c34.82-11.352,69.511-25.887,106.18-30.19
			c25.121-2.94,59.453-1.734,63.085,29.804c5.497,47.769-50.406,93.993-74.331,131.09c-24.12,37.438-52.882,71.478-74.396,109.877
			c-32.72,58.396-61.433,112.779-103.419,164.97c-19.755,24.568-39.73,55.675-43.599,87.438
			c-5.032,41.079,32.101,271.012-26.205,271.007c-7.035,0-8.184-37.137-8.574-41.457c-1.71-18.925-9.959-33.477-14.365-51.705
			c-11.465-47.463-14.723-96.688-13.225-145.373c0.774-24.638,0.554-49.674,3.681-74.148c3.266-25.565,5.172-51.303,5.627-77.075
			c0.407-23.938,4.251-48.88,3.372-72.602c27.979-0.68,53.37-22.048,69.233-44.438c16.84-23.754,30.357-55.301,45.757-80.138
			C4094.098,3680.015,4114.626,3650.341,4111.435,3626.607z" style="stroke:black;fill:#cccccc"/><path id="180609586" parent_id="180609550" order="36" structure_id="98" d="M3902.756,3682.49c-8.55-16.449-14.372-33.163-7.288-45.671
			c11.571-20.452,51.563-19.121,71.538-21.657c25.732-3.249,51.123-11.177,76.994-13.086c37.093-2.732,79.323-9.418,64.381,42.458
			c-5.888,20.439-17.19,38.688-28.346,56.596c-18.681,29.979-30.212,71.018-58.086,94.152
			c-11.018,9.145-35.969,36.815-51.791,27.716c-13.452-7.745-13.273-28.742-18.762-41.625
			c-7.964-18.713-18.363-35.883-25.105-55.264C3922.332,3714.729,3911.209,3698.748,3902.756,3682.49z" style="stroke:black;fill:#aaaaaa"/></g>
</g>
</svg>