<?xml version="1.0" encoding="utf-8"?>
<!-- Generator: Adobe Illustrator 16.0.0, SVG Export Plug-In . SVG Version: 6.00 Build 0)  -->
<!DOCTYPE svg PUBLIC "-//W3C//DTD SVG 1.1//EN" "http://www.w3.org/Graphics/SVG/1.1/DTD/svg11.dtd">
<svg version="1.1" id="Layer_1" xmlns="http://www.w3.org/2000/svg" xmlns:xlink="http://www.w3.org/1999/xlink" x="0px" y="0px"
	 width="9744.01px" height="6823.46px" viewBox="0 0 9744.01 6823.46" enable-background="new 0 0 9744.01 6823.46"
	 xml:space="preserve">
<g transform="scale(1.0)">
	<g id="_x31_80627817" transform=" scale(1.0, 1.0)">
		<path id="_x31_80627819" fill="none" stroke="#010101" stroke-width="64" d="M4913.755,6318.227
			c261.685,10.59,354.431,26.322,591.208,21.195c138.059-2.977,194.045,20.947,256.3-109.693
			c26.189-54.967,66.884-51.521,127.559-49.629c109.952,3.432,236.073,27.822,352.089,42.012
			c150.278,18.373,318.725,32.834,462.848,28.979c230.516-6.153,435.766,38.418,658.848-23.227
			c198.401-54.817,321.147-169.457,427.383-305.736c77.73-99.708,153.342-210.908,205.609-329.376
			c51.154-115.997,136.605-283.542,198-399.988c111.676-211.748,191.072-329.382,296.822-553.353
			c84.992-179.982,156.834-356.415,237.26-550.436c70.9-171.027,152.266-277.861,179.885-467.991
			c28.629-197.16,21.006-396.151-8.139-593.016c-48.777-329.5-209.428-748.246-400.918-1035.681
			c-109.779-164.79-212.314-399.762-429.367-643.463c-195.726-219.756-454.138-381.076-598.11-460.506
			c-266.888-147.237-439.194-151.868-652.603-217.737c-101.999-31.48-203.906-65.451-308.168-86.039
			c-94.557-18.685-157.611-31.452-264.296-49.811c-143.706-24.721-307.842-62.009-456.821-68.971
			c-206.395-9.636-468.431-61.41-662.596,31.83c-51.611,24.781-139.516,100.449-241.448,177.697l6.78,1456.5L4913.755,6318.227z"/>
		<path id="_x31_80627820" fill="none" stroke="#010101" stroke-width="64" d="M4892.03,2165.131c0,0,128.851-7.045,227.013-23.429
			c128.904-21.515,249.699-113.032,281.582-141.067c116.237-102.271,107.746-272.556,307.625-270.5
			c113.791,1.17,319.08,61.546,423.778,92.375c120.09,35.358,205.626,64.815,334.847,111.948
			c153.777,56.078,292.055,101.104,456.987,198.293c213.161,125.612,438.89,363.934,548.034,501.657
			c227.721,287.367,338.828,625.882,391.42,819.293c36.975,135.998,40.02,316.338,28.779,457.63
			c-9.159,115.045-13.762,167.345-37.534,264.077c-29.679,120.721-138.415,452.312-198.401,577.809
			c-42.088,88.045-85.938,179.523-149.131,252.44c-65.736,75.875-158.162,121.491-233.918,184.286
			c-82.146,68.086-158.943,143.371-232.869,221.932c-87.473,92.948-184.545,160.428-218.719,293.828
			c-30.346,118.477-28.914,248.993-31.387,371.23c-1.175,58.525-0.947,115.415,0.189,173.947
			c184.07,5.477,392.408,26.693,572.281-23.012c198.397-54.82,321.146-169.459,427.383-305.74
			c77.729-99.708,153.342-210.904,205.607-329.376c51.154-115.993,129.395-270.478,190.807-386.919
			c111.662-211.755,198.268-342.453,304.02-566.419c84.988-179.983,156.83-356.414,237.256-550.437
			c70.904-171.031,152.27-277.862,179.885-467.991c28.633-197.164,21.008-396.151-8.135-593.019
			c-48.781-329.5-210.771-750.282-402.258-1037.721c-109.789-164.789-210.979-397.72-428.031-641.421
			c-195.726-219.758-454.134-381.078-598.108-460.507c-266.89-147.236-439.194-151.868-652.603-217.737
			c-102.001-31.481-203.906-65.45-308.168-86.037c-94.557-18.688-157.609-31.452-264.298-49.811
			c-143.704-24.721-307.84-62.01-456.821-68.972c-206.395-9.635-468.428-61.411-662.596,31.83
			c-51.24,24.605-147.699,101.021-241.444,177.697"/>
		<path id="_x31_80627909" fill="none" stroke="#010101" stroke-width="64" d="M6063.729,501.366l-28.078,119.225
			c-184.934-23.856-356.643-79.633-542.447-72.505l-15.385-104.185c107.51,3.817,215.424,17.439,311.311,21.875
			C5877.815,469.897,5971.786,484.769,6063.729,501.366z"/>
		<path id="_x31_80627908" fill="none" stroke="#010101" stroke-width="64" d="M6035.65,620.591l-69.565,294.926l-2.208,9.569
			c-31.805-9.582-63.535-18.543-95.041-26.56c-78.445-20.04-206.121-31.711-326.702-17.883l-48.931-332.558
			C5679.008,540.957,5850.717,596.735,6035.65,620.591z"/>
		<path id="_x31_80627907" fill="none" stroke="#010101" stroke-width="64" d="M5963.877,925.086l-75.693,320.654
			c-5.609-3.062-11.223-6.202-16.837-9.421c-96.042-54.724-201.294-103.88-290.94-95.53l-38.272-260.146
			c120.581-13.826,248.259-2.156,326.702,17.883C5900.338,906.543,5932.07,915.502,5963.877,925.086z"/>
		<path id="_x31_80627906" fill="none" stroke="#010101" stroke-width="64" d="M5888.18,1245.741l-83.389,353.834
			c-22.778-6.289-45.698-12.417-68.768-18.469c-26.344-6.914-59.787-9.992-91.828-6.867l-63.791-433.449
			c89.646-8.35,194.9,40.808,290.942,95.53C5876.961,1239.538,5882.572,1242.678,5888.18,1245.741z"/>
		<path id="_x31_80627905" fill="none" stroke="#010101" stroke-width="64" d="M5804.793,1599.573l-30.504,129.267l-0.697,6.668
			c-23.85-3.229-45.955-5.202-65.363-5.367c-14.681-0.165-28.196,0.615-40.758,2.256l-23.271-158.16
			c32.041-3.122,65.484-0.046,91.828,6.87C5759.097,1587.156,5782.018,1593.286,5804.793,1599.573z"/>
		<path id="_x31_80627914" fill="none" stroke="#010101" stroke-width="64" d="M5477.818,443.901l15.385,104.185
			c-6.177,0.233-12.424,0.543-18.674,0.931c-111.454,6.853-272.889,19.876-369.169,86.509c-1.451,0.938-2.826,1.96-4.202,3.057
			l-42.458-97.45c26.576-19.444,49.47-34.73,67.818-43.505C5230.512,447.707,5353.873,439.294,5477.818,443.901z"/>
		<path id="_x31_80627913" fill="none" stroke="#010101" stroke-width="64" d="M5493.201,548.086l48.928,332.558
			c-110.844,12.579-215.711,46.731-270.914,115.425c-3.112,3.919-6.144,7.843-9.105,11.841l-160.954-369.324
			c1.375-1.098,2.752-2.116,4.201-3.057c96.28-66.636,257.714-79.659,369.171-86.508
			C5480.773,548.629,5487.026,548.319,5493.201,548.086z"/>
		<path id="_x31_80627912" fill="none" stroke="#010101" stroke-width="64" d="M5542.131,880.643l38.275,260.144
			c-75.623,6.87-140.232,54.612-178.994,174.148c-0.791,2.431-1.576,4.862-2.293,7.372l-137.006-314.399
			c2.961-3.998,5.989-7.921,9.104-11.84C5326.423,927.374,5431.288,893.221,5542.131,880.643z"/>
		<path id="_x31_80627911" fill="none" stroke="#010101" stroke-width="64" d="M5580.406,1140.789l63.793,433.448
			c-34.508,3.198-67.309,13.619-87.926,34.239c-6.582,6.507-12.926,17.174-18.897,30.899l-138.253-317.067
			c0.713-2.511,1.498-4.942,2.292-7.374C5440.176,1195.4,5504.781,1147.66,5580.406,1140.789z"/>
		<path id="_x31_80627910" fill="none" stroke="#010101" stroke-width="64" d="M5644.199,1574.239l23.271,158.159
			c-30.943,3.988-55.905,12.994-76.777,25.692l-5.275-8.395l-48.042-110.321c5.968-13.723,12.313-24.391,18.897-30.897
			C5576.891,1587.856,5609.691,1577.437,5644.199,1574.239z"/>
		<path id="_x31_80627892" fill="none" stroke="#010101" stroke-width="64" d="M8583.441,2131.735l-1.877,1.177l-81.686,48.912
			c-167.781-274.878-323.639-610.467-543.82-837.439c-67.187-69.218-142.27-133.268-222.783-191.513l42.204-68.698
			c99.624,74.256,203.386,163.261,293.687,264.662c217.057,243.679,319.541,478.675,429.32,643.462
			C8527.617,2036.004,8556.037,2082.696,8583.441,2131.735z"/>
		<path id="_x31_80627891" fill="none" stroke="#010101" stroke-width="64" d="M8499.879,2181.823l-228.23,136.781
			c-77.955-165.636-169.812-321.086-284.906-455.36c-127.228-148.323-286.189-277.208-451.035-388.992l197.568-321.383
			c80.514,58.247,155.597,122.296,222.783,191.514C8176.24,1571.357,8332.098,1906.945,8499.879,2181.823z"/>
		<path id="_x31_80627890" fill="none" stroke="#010101" stroke-width="64" d="M8271.648,2318.605l-111.105,66.55
			c-104.829-178.203-233.241-347.63-369.85-481.444c-109.367-107.133-224.412-200.697-344.145-284.377l89.158-145.082
			c164.844,111.784,323.808,240.669,451.035,388.992C8101.838,1997.52,8193.693,2152.97,8271.648,2318.605z"/>
		<path id="_x31_80627889" fill="none" stroke="#010101" stroke-width="64" d="M8160.543,2385.153l-256.274,153.557
			c-47.769-67.252-98.226-132.542-150.334-210.071c-119.586-177.896-285.606-323.962-469.177-446.036l161.791-263.269
			c119.732,83.68,234.777,177.244,344.145,284.377C7927.302,2037.523,8055.714,2206.952,8160.543,2385.153z"/>
		<path id="_x31_80627888" fill="none" stroke="#010101" stroke-width="64" d="M7904.269,2538.709l-278.748,166.959
			c-143.938-209.597-313.341-395.123-514.75-540.033l173.989-283.032c183.57,122.071,349.589,268.139,469.177,446.033
			C7806.043,2406.167,7856.5,2471.458,7904.269,2538.709z"/>
		<path id="_x31_80627887" fill="none" stroke="#010101" stroke-width="64" d="M7625.521,2705.668l-70.956,42.484
			c-25.689-38.45-53.194-76.509-82.652-113.707c-84.443-106.494-238.57-273.187-402.689-401.368l1.078-1.566l40.47-65.876
			C7312.184,2310.545,7481.583,2496.071,7625.521,2705.668z"/>
		<path id="_x31_80627904" fill="none" stroke="#010101" stroke-width="64" d="M6664.696,623.321l-32.128,108.241
			c-181.456-42.211-366.499-87.799-553.357-106.007c-14.618-1.419-29.161-3.072-43.561-4.962l28.078-119.227
			c62.556,11.248,124.098,23.357,182.218,33.347c106.708,18.409,169.778,31.145,264.343,49.861
			C6562.305,594.874,6613.602,608.391,6664.696,623.321z"/>
		<path id="_x31_80627903" fill="none" stroke="#010101" stroke-width="64" d="M6632.568,731.562l-75.494,254.759
			c-195.827-69.991-547.988-185.394-587.931-69.939l-3.059-0.865l69.563-294.927c14.401,1.891,28.944,3.544,43.562,4.963
			C6266.069,643.763,6451.112,689.352,6632.568,731.562z"/>
		<path id="_x31_80627902" fill="none" stroke="#010101" stroke-width="64" d="M6557.072,986.321l-43.719,147.614
			c-175.938-74.53-364.688-153.298-549.477-208.852l2.208-9.567l3.057,0.863C6009.083,800.928,6361.247,916.331,6557.072,986.321z"
			/>
		<path id="_x31_80627901" fill="none" stroke="#010101" stroke-width="64" d="M6513.352,1133.937L6412.1,1475.444
			c-34.502-11.314-67.482-23.252-96.543-36.601c-99.272-45.546-244.625-91.035-427.373-193.103l75.693-320.654
			C6148.666,980.638,6337.412,1059.407,6513.352,1133.937z"/>
		<path id="_x31_80627900" fill="none" stroke="#010101" stroke-width="64" d="M6412.102,1475.445l-90.305,304.799
			c-140.721-64.938-323.36-127.312-517.004-180.669l83.391-353.833c182.754,102.068,328.101,147.557,427.373,193.104
			C6344.617,1452.192,6377.598,1464.132,6412.102,1475.445z"/>
		<path id="_x31_80627899" fill="none" stroke="#010101" stroke-width="64" d="M6321.797,1780.244l-23.616,79.613l-12.013,10.9
			c-49.207-16.419-97.9-31.661-154.164-48.239c-86.747-25.537-242.78-71.424-358.416-87.009l0.701-6.667l30.502-129.266
			C5998.437,1652.932,6181.076,1715.304,6321.797,1780.244z"/>
		<path id="_x31_80627898" fill="none" stroke="#010101" stroke-width="64" d="M7775.479,1084.172l-42.204,68.695
			c-258.514-187.216-573.23-315.548-863.539-370.047c-78.268-14.705-157.354-32.63-237.17-51.259l32.128-108.239
			c51.447,15.084,102.552,31.503,153.719,47.295c213.403,65.839,385.739,70.471,652.653,217.684
			C7548.52,931.093,7659.229,997.59,7775.479,1084.172z"/>
		<path id="_x31_80627897" fill="none" stroke="#010101" stroke-width="64" d="M7733.275,1152.87l-197.568,321.382
			c-33.465-22.845-67.289-44.902-101.039-66.257c-97.023-61.314-205.199-146.165-308.582-200.813
			c-166.333-87.86-326.746-137.042-456.898-180.643c-21.764-7.304-61.738-22.228-112.115-40.217l75.492-254.757
			c79.818,18.63,158.904,36.553,237.172,51.258C7160.045,837.321,7474.762,965.652,7733.275,1152.87z"/>
		<path id="_x31_80627896" fill="none" stroke="#010101" stroke-width="64" d="M7535.707,1474.252l-89.158,145.082
			c-280.943-196.484-587.364-338.616-904.58-473.223c-9.467-4.008-19.003-8.092-28.619-12.173l43.721-147.617
			c50.379,17.988,90.348,32.912,112.114,40.216c130.153,43.6,290.564,92.783,456.899,180.643
			c103.385,54.648,211.559,139.499,308.584,200.814C7468.418,1429.35,7502.242,1451.407,7535.707,1474.252z"/>
		<path id="_x31_80627895" fill="none" stroke="#010101" stroke-width="64" d="M7446.549,1619.334l-161.791,263.269
			c-205.375-136.75-432.701-243.39-641.621-331.112c-66.488-27.958-152.717-50.356-231.035-76.043l101.252-341.509
			c9.615,4.083,19.152,8.167,28.617,12.174C6859.185,1280.717,7165.604,1422.85,7446.549,1619.334z"/>
		<path id="_x31_80627894" fill="none" stroke="#010101" stroke-width="64" d="M7284.756,1882.603l-173.987,283.034
			c-77.514-55.737-159.659-105.509-246.995-148.304c-172.865-84.803-353.768-148.116-527.629-230.334
			c-4.739-2.198-9.468-4.473-14.348-6.754l90.303-304.799c78.32,25.69,164.549,48.087,231.035,76.045
			C6852.061,1639.213,7079.383,1745.852,7284.756,1882.603z"/>
		<path id="_x31_80627893" fill="none" stroke="#010101" stroke-width="64" d="M7110.769,2165.636l-40.468,65.875l-1.078,1.566
			c-48.145-37.597-97.068-71.825-145.391-100.322c-164.926-97.194-303.15-142.213-456.98-198.295
			c-68.654-25.057-124.999-45.087-180.684-63.706l12.013-10.899l23.614-79.613c4.884,2.28,9.61,4.556,14.35,6.753
			c173.863,82.217,354.764,145.532,527.629,230.335C6951.109,2060.126,7033.255,2109.9,7110.769,2165.636z"/>
		<path id="_x31_80627886" fill="none" stroke="#010101" stroke-width="64" d="M8899.404,3027.981
			c23.559,159.099,33.098,319.528,20.758,479.32l-2.764-0.316l-111.238-9.153c4.297-45.42,4.59-91.074,0.02-137.049
			c-15.029-152.583-33.188-306.347-75.594-453.533c-69.873-241.964-91.416-498.729-225.436-716.795
			c-1.758-2.903-3.51-5.729-5.271-8.633l81.686-48.912l1.877-1.176C8736.25,2405.039,8858.062,2748.613,8899.404,3027.981z"/>
		<path id="_x31_80627885" fill="none" stroke="#010101" stroke-width="64" d="M8806.178,3360.787
			c4.57,45.971,4.279,91.623-0.014,137.049l-230.852-19.097c6.193-295.113-70.375-568.77-175.623-851.699
			c-39.002-104.823-80.986-208.472-128.041-308.436l228.23-136.782c1.762,2.907,3.514,5.73,5.275,8.634
			c134.016,218.064,155.559,474.83,225.432,716.794C8772.992,3054.436,8791.15,3208.2,8806.178,3360.787z"/>
		<path id="_x31_80627884" fill="none" stroke="#010101" stroke-width="64" d="M8399.689,2627.039
			c105.248,282.93,181.816,556.588,175.623,851.701l-78.523-6.47c-16.104-291.124-99.105-589.337-204.818-830.925
			c-37.387-85.446-81.758-171.839-131.428-256.19l111.105-66.55C8318.703,2418.567,8360.688,2522.218,8399.689,2627.039z"/>
		<path id="_x31_80627883" fill="none" stroke="#010101" stroke-width="64" d="M8496.789,3472.27l-241.088-19.883
			c-41.016-269.483-138.89-531.072-218.793-694.827c-41.022-84.113-85.528-152.385-132.64-218.851l256.274-153.556
			c49.672,84.352,94.041,170.743,131.43,256.19C8397.682,2882.93,8480.686,3181.146,8496.789,3472.27z"/>
		<path id="_x31_80627882" fill="none" stroke="#010101" stroke-width="64" d="M8255.701,3452.387l-308.28-25.406
			c-18.106-18.681-114.679-92.382-121.256-99.293c-0.068-0.077-0.068-0.077-0.068-0.077c-3.173-10.043-6.491-20.323-9.955-30.757
			c51.108,18.618,85.021,75.509,139.271,82.2c65.098,11.325-84.896-252.167-131.54-341.465
			c-60.195-115.342-126.058-226.611-198.352-331.921l278.748-166.959c47.111,66.466,91.617,134.737,132.64,218.852
			C8116.812,2921.316,8214.686,3182.904,8255.701,3452.387z"/>
		<path id="_x31_80627881" fill="none" stroke="#010101" stroke-width="64" d="M7823.876,3037.592
			c46.64,89.295,196.634,352.787,131.536,341.462c-54.249-6.691-88.162-63.582-139.271-82.2
			c-52.926-159.583-135.106-359.352-261.577-548.701l70.956-42.484C7697.814,2810.978,7763.677,2922.246,7823.876,3037.592z"/>
		<path id="_x31_80627875" fill="none" stroke="#010101" stroke-width="64" d="M8812.611,3900.658l2.551,1.412
			c-28.004,58.271-58.615,117.248-87.508,186.896c-14.164,34.042-28.037,67.612-41.688,100.706l-2.846-1.409l-133.475-55.062
			c51.926-86.5,104.416-177.631,148.6-272.142L8812.611,3900.658z"/>
		<path id="_x31_80627874" fill="none" stroke="#010101" stroke-width="64" d="M8530.82,3803.015l167.426,58.05
			c-44.184,94.506-96.674,185.637-148.596,272.141l-186.994-77.125c7.908-17.801,15.971-35.29,23.957-52.465l2.549,1.419
			c2.613,31.058,9.389,33.264,34.084,31.388C8455.723,4034.005,8503.844,3895.569,8530.82,3803.015z"/>
		<path id="_x31_80627873" fill="none" stroke="#010101" stroke-width="64" d="M8468.939,3781.568l61.881,21.446
			c-26.977,92.555-75.098,230.99-107.574,233.407c-24.697,1.874-31.471-0.33-34.084-31.393l-2.549-1.414
			c25.973-56.154,50.947-109.408,64.807-160.63C8456.852,3822.832,8462.936,3802.355,8468.939,3781.568z"/>
		<path id="_x31_80627872" fill="none" stroke="#010101" stroke-width="64" d="M8275.16,3714.487l193.779,67.081
			c-6.004,20.787-12.088,41.264-17.52,61.417c-13.859,51.222-38.834,104.472-64.809,160.628
			c-7.986,17.177-16.051,34.668-23.961,52.467l-130.781-53.955C8260.746,3912.559,8273.811,3815.056,8275.16,3714.487z"/>
		<path id="_x31_80627871" fill="none" stroke="#010101" stroke-width="64" d="M8032.529,3630.434l242.631,84.054
			c-1.35,100.568-14.414,198.071-43.287,287.643l-196.172-80.896c7.27-47.139,11.04-94.836,10.82-141.902
			C8046.305,3733.046,8042.141,3681.431,8032.529,3630.434z"/>
		<path id="_x31_80627880" fill="none" stroke="#010101" stroke-width="64" d="M8917.398,3506.985l2.764,0.316
			c-2.947,37.968-7.131,75.85-12.627,113.662c-16.334,112.719-51.633,196.171-92.373,281.111l-2.551-1.417l-114.365-39.592
			c54.547-116.857,96.209-238.743,107.914-363.234L8917.398,3506.985z"/>
		<path id="_x31_80627879" fill="none" stroke="#010101" stroke-width="64" d="M8575.312,3478.739l230.848,19.093
			c-11.705,124.487-53.367,246.377-107.914,363.232l-167.426-58.05c10.016-34.663,17.148-62.828,19.348-75.062
			C8565.543,3642.844,8573.584,3560.011,8575.312,3478.739z"/>
		<path id="_x31_80627878" fill="none" stroke="#010101" stroke-width="64" d="M8496.789,3472.27l78.523,6.47
			c-1.729,81.271-9.768,164.099-25.145,249.214c-2.201,12.237-9.332,40.398-19.348,75.062l-61.881-21.441
			c14.516-50.752,28.227-103.147,29.877-155.627C8500.395,3575.193,8499.652,3523.809,8496.789,3472.27z"/>
		<path id="_x31_80627877" fill="none" stroke="#010101" stroke-width="64" d="M8496.789,3472.27
			c2.863,51.539,3.605,102.921,2.029,153.676c-1.652,52.48-15.363,104.876-29.879,155.628l-193.779-67.086
			c1.27-86.136-6.047-174.546-19.459-262.101L8496.789,3472.27z"/>
		<path id="_x31_80627876" fill="none" stroke="#010101" stroke-width="64" d="M8255.701,3452.387
			c13.412,87.555,20.73,175.962,19.459,262.101l-242.631-84.054c-14.232-75.082-40.297-148.756-83.279-201.487
			c-0.439-0.553-1.099-1.259-1.829-1.966L8255.701,3452.387z"/>
		<path id="_x31_80627919" fill="none" stroke="#010101" stroke-width="64" d="M5058.7,541.134l42.458,97.45
			c-151.459,109.047-118.62,326.519-126.649,506.784c-1.648,36.163-2.784,73.11-3.557,110.608l-84.399-98.334l-1.444-482.367
			C4950.794,625.491,5010.601,576.413,5058.7,541.134z"/>
		<path id="_x31_80627918" fill="none" stroke="#010101" stroke-width="64" d="M5101.158,638.584l160.955,369.323
			c-93.169,125.864-102.23,303.541-85.457,487.898l-205.704-239.83c0.771-37.497,1.908-74.444,3.557-110.609
			C4982.538,965.103,4949.695,747.632,5101.158,638.584z"/>
		<path id="_x31_80627917" fill="none" stroke="#010101" stroke-width="64" d="M5262.113,1007.908l137.01,314.399
			c-38.029,121.889-43.557,261.366-30.498,397.24l-191.969-223.742C5159.883,1311.449,5168.94,1133.772,5262.113,1007.908z"/>
		<path id="_x31_80627916" fill="none" stroke="#010101" stroke-width="64" d="M5399.123,1322.31l138.253,317.067
			c-21.79,49.334-39.481,137.89-47.985,215.549l-5.236-0.706l-115.525-134.671
			C5355.566,1583.671,5361.094,1444.198,5399.123,1322.31z"/>
		<path id="_x31_80627915" fill="none" stroke="#010101" stroke-width="64" d="M5585.418,1749.696l5.275,8.395
			c-47.404,28.688-73.926,76.218-102.695,125.78l-1.312-0.861c0.757-9.101,1.66-18.514,2.705-28.083
			c8.504-77.659,26.195-166.215,47.985-215.549L5585.418,1749.696z"/>
		<path id="_x31_80627923" fill="none" stroke="#010101" stroke-width="64" d="M5073.63,2143.646l0.456,4.628
			c-32.904,3.672-65.886,6.871-94.508,9.526c26.784-6.893,47.652-20.061,40.686-34.42c-12.478-25.5-143.961,4.245-121.027,27.401
			c6.424,6.513,17.197,10.049,29.772,11.386c-22.741,1.951-36.979,2.964-36.979,2.964l-2.417-3.922l-3.061-1003.571l84.396,98.334
			c-3.028,145.911,0.161,299.669,8.519,441.112C4988.381,1846.921,4973.265,2051.428,5073.63,2143.646z"/>
		<path id="_x31_80627922" fill="none" stroke="#010101" stroke-width="64" d="M5247.861,2101.527l0.735,1.803
			c-37.196,18.104-78.27,32.834-120.467,38.383c-17.505,2.343-35.737,4.533-54.041,6.563l-0.455-4.627
			c-100.367-92.221-85.251-296.726-94.167-446.562c-8.354-141.445-11.543-295.202-8.515-441.111l205.704,239.831
			c18.465,203.891,68.438,415.955,71.065,575.362L5247.861,2101.527z"/>
		<path id="_x31_80627921" fill="none" stroke="#010101" stroke-width="64" d="M5414.443,1977.109l6.486,3.769
			c-6.366,6.822-13.094,13.411-20.327,19.758c-21.062,18.582-78.987,67.271-152.006,102.694l-0.735-1.803l-0.144-30.361
			c-2.632-159.402-52.599-371.467-71.062-575.359l191.969,223.744C5377.179,1808.904,5393.793,1896.77,5414.443,1977.109z"/>
		<path id="_x31_80627920" fill="none" stroke="#010101" stroke-width="64" d="M5484.154,1854.218l5.234,0.707
			c-1.047,9.569-1.946,18.981-2.707,28.083l1.312,0.864c-19.105,33.015-39.224,66.972-67.067,97.003l-6.483-3.768
			c-20.652-80.341-37.267-168.207-45.82-257.561L5484.154,1854.218z"/>
		<path id="_x31_80627870" fill="none" stroke="#010101" stroke-width="64" d="M8683.121,4188.263l2.846,1.409
			c-58.939,142.355-115.146,276.706-178.039,412.314c16.717-62.83-68.834-111.74-110.777-144.551
			c-11.742-9.186-24.361-18.133-37.699-26.691l2.592-4.705c43.533-32.141,70.34-98.103,98.1-144.688
			c28.342-47.601,58.783-97.013,89.504-148.144L8683.121,4188.263z"/>
		<path id="_x31_80627869" fill="none" stroke="#010101" stroke-width="64" d="M8362.656,4056.08l186.99,77.125
			c-30.721,51.133-61.162,100.543-89.506,148.146c-27.76,46.582-54.564,112.546-98.098,144.688l-2.592,4.705
			c-49.209-31.637-107.543-57.554-163.984-67.389l-0.004-0.156l18.449-18.268c62.93-65.549,96.973-166.887,136.881-261.477
			C8354.672,4074.278,8358.623,4065.108,8362.656,4056.08z"/>
		<path id="_x31_80627868" fill="none" stroke="#010101" stroke-width="64" d="M8231.873,4002.13l130.783,53.95
			c-4.033,9.028-7.984,18.198-11.865,27.379c-39.906,94.588-73.949,195.928-136.879,261.478l-18.447,18.265v0.16
			c-11.783-2.121-23.492-3.463-34.979-3.938l0.129-4.084l-135.531-45.011l2.066-7.371
			C8128.824,4223.928,8194.047,4119.936,8231.873,4002.13z"/>
		<path id="_x31_80627867" fill="none" stroke="#010101" stroke-width="64" d="M8035.701,3921.234l196.172,80.896
			c-37.826,117.806-103.049,221.798-204.725,300.821l-2.07,7.377l-32.174-10.686c-45.424-31.48-114.592-26.021-164.54-30.279
			c11.234-37.495,18.628-58.355,2.79-8.943c1.859-7.061,87.557-37.064,100.645-49.685c26.412-25.33,40.859-61.171,53.776-95.919
			C8008.257,4053.33,8025.469,3987.834,8035.701,3921.234z"/>
		<path id="_x31_80627821" fill="none" stroke="#010101" stroke-width="64" d="M8397.15,4457.436
			c-11.742-9.186-24.361-18.133-37.699-26.691c-4.648-2.99-9.383-5.932-14.193-8.809c-33.439-20.045-70.395-37.182-107.705-48.476
			c-14.031-4.247-28.115-7.669-42.086-10.104c-11.787-2.121-23.494-3.457-34.98-3.935c-5.23-0.395-10.393-0.48-15.48-0.399
			c-88.664,1.21-82.54,82.64-104.094,152.369c-49.477,160.321-157.721,264.444-286.242,352.949
			c-132.285,91.174-201.859,133.188-272.547,233.957c-33.212,47.367-64.873,115.681-104.484,194.109
			c-11.228,22.271-66.225,121.168-75.68,135.281c-28.438,42.268-67.987,102.733-119.152,164.682
			c-46.978,56.854-84.724,145.086-95.508,170.577c-0.164,0.382-0.32,0.78-0.47,1.185c-0.159-0.131-0.308-0.281-0.468-0.404
			c-13.373,20.115-8.737,55.045-20.58,78.926c-11.132,22.461-28.735,30.857-47.223,38.711c-21.39-2.619-45.035,0.503-63.48,1.007
			c-38.068,1.03-76.826-7.604-114.499,2.295c-27.338,7.188-41.019,26.48-47.356,50.304l0.004-0.039
			c-1.636,43.895-2.086,87.704-2.881,130.59c-0.073,3.801-0.141,7.621-0.213,11.411c-1.178,58.522-0.945,115.412,0.189,173.942
			c105.796,3.146,219.623,11.496,331.449,8.588l2.363,0.324c-0.125-0.012-0.303-0.395-0.529-1.089
			c8.044,0.071,16.08-0.036,23.941-0.149l0.031,0.035c0.32-0.018,0.645-0.03,0.963-0.044c6.772-0.093,13.393-0.167,19.748-0.099
			c-0.093-0.293-0.182-0.584-0.27-0.871c66.815-3.813,132.405-12.52,194.586-29.705c198.399-54.817,321.147-169.457,427.379-305.734
			c77.73-99.71,153.346-210.91,205.609-329.378c51.158-115.997,129.398-270.478,190.811-386.921
			c111.658-211.756,198.266-342.451,304.016-566.42c5.908-12.509,11.734-25.004,17.518-37.48
			C8524.594,4539.129,8439.084,4490.232,8397.15,4457.436z"/>
		<path id="_x31_80627866" fill="none" stroke="#010101" stroke-width="64" d="M8397.15,4457.436
			c-11.742-9.186-24.361-18.133-37.699-26.691c-4.648-2.99-9.383-5.932-14.193-8.809c18.428,43.145-3.367,99.436-14.068,146.813
			c-15.096,66.802-42.562,124.224-78.625,181.618c-69.043,109.883-155.984,202.916-235.949,303.021
			c-118.35,148.157-159.264,344.155-217.909,524.108c-56.296,172.669-234.419,301.762-380.927,379.994
			c-61.917,33.059-134.533,76.484-201.517,95.113c-23.243,6.465-77.613,28.737-108.001,17.746
			c4.531,25.229,9.746,51.523,15.357,80.931c9.088,47.539,5.336,84.175,16.238,99.401l7.721,7.904
			c73.862-3.135,146.511-11.784,215.027-30.715c198.399-54.82,321.147-169.461,427.383-305.737
			c77.73-99.711,153.342-210.907,205.605-329.377c51.158-115.997,129.398-270.478,190.811-386.919
			c111.658-211.757,198.266-342.455,304.016-566.423c5.908-12.506,11.734-25.003,17.518-37.483
			C8524.594,4539.129,8439.084,4490.232,8397.15,4457.436z"/>
		<path id="_x31_80627865" fill="none" stroke="#010101" stroke-width="64" d="M7216.266,6052.6
			c66.98-18.631,139.601-62.055,201.514-95.113c146.508-78.232,324.631-207.321,380.929-379.992
			c58.646-179.957,99.56-375.951,217.909-524.108c79.967-100.108,166.91-193.144,235.947-303.021
			c36.066-57.396,63.527-114.816,78.625-181.617c10.705-47.379,32.5-103.674,14.072-146.813
			c-33.443-20.047-70.398-37.186-107.705-48.479c-16.338,15.967-23.48,50.413-36.877,88.076
			c-14.035,39.485-35.658,75.271-50.066,114.539c-38.559,105.131-53.574,176.799-128.096,259.371
			c-69.338,76.812-141.813,150.384-207.605,230.858c-68.762,84.096-129.028,174.153-166.521,277.385
			c-57.525,158.399-150.541,271.708-331.763,373.601c-85.134,47.864-136.179,168.092-224.786,201.65
			c1.346,56.66,7.559,102.001,16.423,151.404C7138.653,6081.336,7193.019,6059.062,7216.266,6052.6z"/>
		<path id="_x31_80627864" fill="none" stroke="#010101" stroke-width="64" d="M7316.626,5717.289
			c181.224-101.89,274.239-215.203,331.761-373.6c37.495-103.227,97.766-193.287,166.517-277.388
			c65.798-80.473,138.271-154.043,207.614-230.853c74.516-82.572,89.537-154.24,128.094-259.373
			c14.412-39.268,36.029-75.056,50.064-114.539c13.398-37.666,20.541-72.111,36.877-88.077
			c-14.031-4.247-28.115-7.663-42.086-10.103c-11.785-2.117-23.494-3.459-34.98-3.935c-5.23-0.396-10.393-0.478-15.48-0.399
			c-88.664,1.21-82.54,82.64-104.094,152.375c-49.479,160.321-157.721,264.437-286.242,352.945
			c-132.285,91.172-201.859,133.186-272.547,233.955c-33.212,47.369-64.873,115.679-104.484,194.107
			c-11.228,22.271-66.225,121.168-75.68,135.281c-28.438,42.268-67.987,102.738-119.152,164.684
			c-46.978,56.853-84.724,145.088-95.508,170.579c-10.787,25.571,4.107,102.53,4.272,137.284c0.026,6.381,0.12,12.609,0.266,18.711
			C7180.447,5885.387,7231.492,5765.156,7316.626,5717.289z"/>
		<path id="_x31_80627863" fill="none" stroke="#010101" stroke-width="64" d="M7096.771,6106.805
			c-2.521-15.266-4.609-30.425-6.508-45.531c-25.211,24.15-66.06,9.695-97.879,9.535c-30.271-0.143-60.613,2.076-90.883,2.618
			c-21.062,0.376-42.14,0.591-63.211,0.02c-12.669-0.35-27.93,0.728-40.148-3.784c-2.566-0.951-5.395-2.318-7.793-4.136
			c-0.072,3.806-0.141,7.614-0.215,11.412c-1.173,58.521-0.947,115.41,0.188,173.945c105.8,3.146,219.626,11.491,331.451,8.585
			l2.361,0.322C7121.756,6259.682,7099.862,6125.549,7096.771,6106.805z"/>
		<path id="_x31_80627862" fill="none" stroke="#010101" stroke-width="64" d="M6838.293,6073.443
			c21.067,0.574,42.143,0.359,63.209-0.021c30.27-0.538,60.611-2.758,90.883-2.616c31.819,0.16,72.666,14.612,97.877-9.537
			c-5.506-43.76-9.404-87.048-17.32-130.982c-11.361-62.852-77.238-49.02-117.863-47.917c-38.066,1.03-76.826-7.604-114.499,2.297
			c-27.338,7.187-41.019,26.48-47.356,50.302l0.004-0.039c-1.636,43.895-2.084,87.704-2.877,130.59
			c2.397,1.819,5.223,3.188,7.793,4.141C6810.359,6074.17,6825.622,6073.097,6838.293,6073.443z"/>
		<path id="_x31_80627861" fill="none" stroke="#010101" stroke-width="64" d="M5020.264,2123.38
			c6.967,14.362-13.903,27.529-40.686,34.423c-0.071-0.002-0.146,0.075-0.218,0.077c-19.181,1.637-36.399,3.12-50.352,4.289
			c-12.575-1.338-23.353-4.872-29.772-11.385C4876.303,2127.628,5007.788,2097.881,5020.264,2123.38z"/>
		<path id="_x31_80627860" fill="none" stroke="#010101" stroke-width="64" d="M7947.421,3426.98
			c0.732,0.703,1.39,1.411,1.829,1.966c42.982,52.731,69.047,126.407,83.279,201.487c9.611,50.993,13.775,102.612,13.992,148.898
			c0.22,47.066-3.551,94.76-10.82,141.9c-10.232,66.602-27.444,132.096-50.126,193.582c-12.917,34.75-27.364,70.591-53.771,95.919
			c-13.093,12.616-98.79,42.626-100.647,49.686c15.836-49.417,27.179-94.67,35.482-138.438
			c12.577-61.105,17.291-109.742,23.685-188.34c0.55-7.381,1.165-14.746,1.79-22.278c11.188-141.36,8.174-321.63-28.803-457.674
			c-0.885-3.372-2.289-8.318-3.991-14.435c-2.953-10.751-6.133-21.892-9.46-33.423c-0.291-0.628-0.441-1.255-0.588-1.886
			c-0.889-3.291-1.846-6.589-2.881-9.96c-0.516-1.65-0.957-3.377-1.479-5.023c-0.443-1.647-0.961-3.301-1.48-5.021
			c-0.217-0.71-0.438-1.492-0.659-2.196c-6.497-22.438-12.778-43.389-16.015-52.33c-0.227-0.63-0.447-1.258-0.593-1.731
			C7832.742,3334.599,7929.312,3408.303,7947.421,3426.98z"/>
		<path id="_x31_80627859" fill="none" stroke="#010101" stroke-width="64" d="M7656.156,4753.212
			c-33.306,69.663-65.869,128.571-106.289,197.308c142.564-83.804,300.758-165.297,396.467-313.127
			c44.242-68.328,118.353-206.938,81.829-293.807c-33.724-80.258-134.263-68.571-200.462-74.311
			c2.898,0.377-33.348,109.863-36.309,118.66C7749.205,4513.646,7714.85,4630.42,7656.156,4753.212z"/>
		<path id="_x31_80627858" fill="none" stroke="#010101" stroke-width="64" d="M7318.932,5170.785
			c74.563-47.347,152.262-78.375,35.002,103.957c-30.954,48.154-148.891,286.575-285.307,380.33
			c-42.02,28.926-167.127,8.002-188.986-4.012c-50.418-27.791,46.708-129.885,160.6-239.184
			C7136.764,5319.28,7241.471,5220.014,7318.932,5170.785z"/>
		<path id="_x31_80627857" fill="none" stroke="#010101" stroke-width="64" d="M6885.227,5680.48
			c-73.62,17.645-65.789,63.34-62.344,138.558c2.038,44.398,49.061,36.637,89.814,36.655c99.326,0.048,131.471,9.209,134.879-39.814
			c4.648-66.93,25.315-112.246-46.01-125.541C6948.819,5680.51,6917.901,5672.648,6885.227,5680.48z"/>
		<path id="_x31_80627841" fill="none" stroke="#010101" stroke-width="64" d="M5833.563,1977.954l-62.297,18.929
			c128.814-41.124,183.548,7.932,183.548,7.932c23.695,15.7,80.279,70.641,49.676,133.384
			c-30.592,62.746-95.401,192.151-143.842,325.485c-48.436,133.334-7.531,335.353,0.044,400.076
			c7.566,64.721,62.438,262.65,25.081,313.799c-35.806,49.012-49.324,128.767-52.764,170.601l-6.209,41.835
			c19.557-10.103,30.409-14.48,49.373-13.759c64.908,2.466,123.791,3.378,161.656,70.074
			c26.192,32.744,167.012,227.14,171.533,234.13c13.659,21.079,58.947,45.839,111.58,85.674
			c100.537,76.072,227.098,194.06,282.986,291.046c76.917,133.459,85.125,323.757,89.451,481.173
			c2.45,88.787,19.014,155.588,50.623,206.604c43.801,70.679,112.221,112.116,173.914,149.129
			c100.277,60.168,245.461,54.861,364.119,25.668c103.445-25.447,248.059-132.421,306.102-208.403
			c81.865-107.163,148.179-247.23,184.871-358.144c50.169-151.648,89.532-313.774,94.715-470.636
			c5.557-168.151-2.536-373.466-119.345-659.014c-75.962-185.693-171.708-351.05-290.606-496.965
			c-60.617-74.392-83.004-138.629-225.303-260.283c-133.294-113.958-199.96-151.1-340.822-225.69
			c-134.742-60.862-232.338-101.017-334.953-135.479c-79.599-26.74-315.509-102.322-509.338-127.72
			c-111.785-14.645-201.051-6.377-276.094,19.483"/>
		<path id="_x31_80627839" fill="none" stroke="#010101" stroke-width="64" d="M6973.679,4935.285
			c-58.677-16.9-102.36-41.104-143.292-74.596c-54.455-44.586-86.459-96.803-105.566-39.276
			c-17.791,53.57,0.312,66.259,28.396,113.767c67.557,114.304,137.624,178.455,258.338,200.154
			c74.012,13.303,107.104,8.85,163.91-48.289c30.23-30.414,43.721-53.969,45.561-101.957c2.469-64.727-14.924-28.848-65.545-28.795
			C7105.935,4956.348,7055.545,4958.856,6973.679,4935.285z"/>
		<path id="_x31_80627842" fill="none" stroke="#010101" stroke-width="64" d="M5321.754,2799.2
			c75.451,38.28,158.67,63.231,215.668,17.874c84.697-67.389-26.601-251.835-57.771-330.037
			c-39.916-100.149-97.225-191.146-204.506-217.133c-130.617-31.633-254.451,2.862-382.499,26.621l0.563,121.596l0.241,52.459
			l0.007,1.152c87.674,99.141,187.127,182.065,297.545,249.857C5224.363,2742.071,5271.332,2773.611,5321.754,2799.2z"/>
		<path id="_x31_80627843" fill="none" stroke="#010101" stroke-width="64" d="M5198.587,2835.994
			c-41.626,32.206,34.828,120.088,129.669,143.223c112.778,27.509,111.181,74.576,71.531,143.201
			c-29.965,51.858-176.752,14.471-239.768,17.54c-119.888,5.823-241.686-7.96-243.277,41.065
			c2.287,37.009,45.986,36.441,112.857,45.159c129.594,16.898,366.037,34.714,488.135-25.073
			c68.725-33.65,146.456-128.225,69.066-200.748c-39.354-36.898-120.148-80.949-168.07-101.507
			C5380.932,2882.643,5241.717,2802.619,5198.587,2835.994z"/>
		<path id="_x31_80627845" fill="none" stroke="#010101" stroke-width="64" d="M7094.376,5331.489
			c51.372-54.292,101.187-110.635,155.487-161.419c19.596-18.355,40.697-35.141,61.702-51.547
			c34.451-26.898,66.802-55.99,98.97-86.069c20.18-18.866,65.766-53.995,56.043-78.823c-4.452-11.377-14.303-15.012-25.029-16.967
			c-15.723-2.863-30.604-4.862-46.528-5.908c-13.349-0.871-26.067-5.562-39.45-7.416c-17.338-2.396-35.066-3.639-52.268,0.428
			c-19.424,4.592-42.426,16.723-54.678,33.967c-6.053,8.514-9.569,18.572-11.607,29.014c-1.932,9.889-0.431,20.93-2.932,30.497
			c-5.06,19.395-16.891,40.283-26.842,57.243c-18.557,31.623-43.063,61.057-75.612,75.828c-17.815,8.086-33.118,10.22-52.584,10.547
			c-28.581,0.484-60.39-2.795-89.028,1.916c-41.34,6.799-85.857,30.012-122.894,49.383c-48.907,25.584-95.364,55.26-138.998,90.428
			c-74.528,60.076-64.868,140.604-87.028,236.574c-17.814,77.134-37.983,168.652-91.033,222.221
			c-50.533,51.037-68.995,189.688-81.479,283.231c-2.09,15.706-22.408,197.199-12.636,198.979
			c53.144,9.691,103.097,4.314,158.514,7.715c29.18,1.791,59.512,2.368,89.286-0.213c34.326-2.993,55.783,3.854,66.355-37.328
			c8.221-32.008-7.95-70.941-7.187-103.857c4.151-181.18,1.13-362.243,90.975-523.582
			C6908.838,5487.696,7019.615,5410.5,7094.376,5331.489z"/>
		<path id="_x31_80627846" fill="none" stroke="#010101" stroke-width="64" d="M7177.513,5235.428
			c16.048-43.841-79.401-64.322-98.463-74.564c-16.058-8.624-67.288-7.803-127.132,11.703
			c-50.227,16.366-104.773,46.868-166.765,86.219c-29.378,18.646-82.499,64.568-99.502,93.578
			c-19.827,33.832-34.087,134.82-44.546,186.798c-16.59,82.37-30.555,153.349-85,218.3c-60.784,72.525-75.03,193.607-87.511,287.153
			c-2.091,15.706-22.527,198.323-12.635,198.978c53.118,3.523,103.097,4.316,158.512,7.716c29.184,1.794,60.843,2.27,90.618-0.312
			c34.33-2.996,54.451,3.952,65.023-37.227c8.219-32.01-7.95-70.941-7.188-103.857c2.865-125.119-2.292-252.293,28.813-373.279
			c15.422-59.945,32.922-91.186,47.766-120.896c10.243-20.494,40.244-68.469,59.521-94.108
			C6929.551,5481.043,7166.745,5264.847,7177.513,5235.428z"/>
		<path id="_x31_80627847" fill="none" stroke="#010101" stroke-width="64" d="M7452.997,4989.48
			c1.667-2.449,3.237-4.858,4.716-7.218c11.033-17.63-2.033-29.784-17.143-33.87c-20.711-5.614-43.242,0.324-60.302,14.086
			c-19.153,15.459-39.25,46.916-33.63,74.387c5.002,24.529,33.992,20.523,46.238,10.153
			C7415.377,5027.945,7437.881,5011.762,7452.997,4989.48z"/>
		<path id="_x31_80627848" fill="none" stroke="#010101" stroke-width="64" d="M7318.961,5010.893
			c18.16-7.938,34.208-24.217,40.888-44.282c6.034-18.14-8.761-31.39-23.501-35.997c-20.365-6.357-44.832,2.455-62.072,14.115
			c-16.865,11.401-37.574,34.165-25.27,57.562c10.912,20.777,44.907,16.586,62.281,11.414
			C7313.871,5012.936,7316.432,5011.995,7318.961,5010.893z"/>
		<path id="_x31_80627849" fill="none" stroke="#010101" stroke-width="64" d="M7232.319,5168.477
			c23.81-11.248,66.173-36.908,56.731-72.096c-4.982-18.572-30.219-25.254-44.941-23.748c-22.266,2.287-43.146,15.783-58.43,33.445
			c-11.304,13.078-22.031,23.668-21.387,41.947c0.336,9.479,4.196,17.943,11.393,23.559
			C7192.624,5184.822,7215.256,5176.539,7232.319,5168.477z"/>
		<path id="_x31_80627840" fill="none" stroke="#010101" stroke-width="64" d="M6560.041,3996.982
			c73.131,96.795,102.596,181.795,117.693,302.079c8.643,68.913,14.283,127.343,14.649,205.532
			c0.39,84.197,10.813,198.788,63.583,257.729c20.188,22.555-80.039,22.836-87.699,22.226
			c-98.674-7.937-196.888-21.485-295.085-34.612c-123.409-16.494-304.421-17.961-313.247-195.559
			c-3.896-78.472-9.859-116.574-9.382-195.464c0.352-56.875,6.327-116.445,14.963-168.005c9.2-54.898,25.528-109.295,34.959-166.027
			c9.136-54.909,29.813-137.849,47.232-198.056c19.668-67.971,50.7-155.202,53.495-152.944
			c96.144,77.602,183.729,133.845,238.295,188.383C6479.934,3902.685,6510.402,3931.294,6560.041,3996.982z"/>
		<path id="_x31_80627838" fill="none" stroke="#010101" stroke-width="64" d="M5939.083,5136.79
			c70.251,41.86,128.986,134.217,185.042,196.201c78.276,86.538,171.93,167.97,276.395,87.075
			c62.817-48.66,134.361-46.625,203.641-79.744c57.75-27.606,96.684-35.946,145.971-77.424
			c32.219-27.115,157.589-79.195,142.164-134.521c-8.104-29.108-59.246-53.244-79.071-72.08
			c-34.799-33.057-65.441-75.379-89.794-117.931c-5.631-9.831-45.698-135.651-21.746-134.49
			c-142.088-6.888-297.67-18.064-438.681-49.358c-77.794-17.266-116.923-4.27-178.392-70.686
			c-14.648-15.825-51.049-71.289-51.049-71.289c-30.27,2.604-40.196-35.213-51.019,2.592c-6.016,21.021-22.16,53.592-45.06,78.423
			c-27.803,30.145-62.877,52.09-90.469,82.334c-35.855,39.296-72.918,77.101-84.594,172.538
			c-4.955,40.528,4.838,62.097,31.885,83.045C5844.678,5070.473,5885.211,5104.674,5939.083,5136.79z"/>
		<path id="_x31_80627837" fill="none" stroke="#010101" stroke-width="64" d="M6520.475,5387.45
			c-50.983,21.552-105.006,49.773-140.413,88.191c-44.452,48.249-79.26,145.728-88.013,216.322
			c-2.23,17.929,43.9,41.202,59.288,52.005c41.923,29.43,67.181,38.113,115.636,29.566c83.77-14.779,112.873-81.777,142.951-165.088
			c12.401-34.37,16.559-87.59,21.244-120.273c4.271-29.781,18.233-84.268-2.924-107.22
			C6602.475,5352.997,6548.64,5375.542,6520.475,5387.45z"/>
		<path id="_x31_80627836" fill="none" stroke="#010101" stroke-width="64" d="M6131.393,5920.369
			c-23.332-17.26-40.74-34.438-49.393-72.59c-16.533-72.99,24.696-168.757,100.068-167.638
			c78.951,1.189,131.005,80.968,201.818,105.663c43.15,15.056,75.729,25.391,79.357,80.07
			c3.123,46.947-5.098,105.561-46.226,131.102c-70.877,44.008-153.126-2.576-217.276-31.479
			C6176.605,5955.08,6149.044,5933.406,6131.393,5920.369z"/>
		<path id="_x31_80627844" fill="none" stroke="#010101" stroke-width="64" d="M4898.725,3140.497
			c108.734-9.886,215.099-23.576,324.896-18.738c57.605,2.537,183.439,41.605,181.696-55.998
			c-1.397-77.852-74.552-62.856-123.499-83.847c-111.172-47.67-142.905-187.03-207.695-216.103
			c-41.34-18.546-107.789-29.952-179.447-29.986L4898.725,3140.497z"/>
		<path id="_x31_80627854" fill="none" stroke="#010101" stroke-width="64" d="M5965.76,4552.635
			c-0.93-15.812-2.53-34.137-7.52-49.158c-4.025-12.125-9.602-23.607-11.672-36.584c-7.48-47.183-20.046-92.509-29.545-139.195
			c-8.572-42.154-12.588-85.736-24.156-127.123c-2.051-7.328-2.452-16.369-5.425-23.232c-0.979-2.255-2.036-4.416-3.155-6.512
			c-12.1,25.701-18.307,63.279-25.706,89.217c-11.087,38.891-20.937,78.254-29.038,118.009
			c-10.283,50.456-35.03,142.648-8.59,194.722c37.631,26.784,72.493,60.703,96.324,99.097c21.154-24.028,37.736-47.88,44.752-72.433
			C5966.176,4584.903,5966.643,4567.705,5965.76,4552.635z"/>
		<path id="_x31_80627850" fill="none" stroke="#010101" stroke-width="64" d="M5563.043,5292.565
			c-28.438,39.378-58.639,77.85-88.553,115.922c-21.024,26.76-48.061,48.364-68.379,78.827c9.31,11.971,24.107,30.281,33.312,40.166
			c61.167,65.715,141.267,32.746,168.272-22.152c46.078-93.687,56.655-209.524,74.832-317.674
			c5.412-32.196,12.604-79.781,17.156-109.303c-19.7,25.875-41.016,70.647-57.537,97.589
			C5619.322,5213.158,5588.453,5257.383,5563.043,5292.565z"/>
		<path id="_x31_80627855" fill="none" stroke="#010101" stroke-width="64" d="M5843.854,3606.714
			c-5.922-29.697-14.314-58.849-22.339-87.874c-3.851-13.922-6.513-28.117-8.763-42.4c-27.322,59.964-66.188,115.668-111.42,160.9
			c-24.219,24.221-51.209,46.317-81.463,61.063c-13.045,6.356-27.179,12.327-41.436,14.632c-12.221,1.976-29.018-2.838-40.614,1.902
			c-13.915,58.494-35.728,115.243-53.938,171.714c-29.754,92.269-80.193,236.229-103.833,334.667
			c-16.633,69.277,19.367,129.398,10.524,177.809c-20.086,109.821-46.344,96.08-60.427,194.126
			c-12.243,85.287,11.955,142.252-11.794,198.079c-34.377,80.763-66.693,115.674-113.598,188.217
			c-36.326,56.186-96.918,110.789-82.849,156.855c13.135,43.021,74.036,73.939,149.822,158.787
			c46.84-46.263,65.454-84.294,102.364-209.395c30.373-102.912,41.555-163.646,75.359-265.751
			c45.781-138.284,103.697-251.019,135.191-395.833c22.992-105.679,25.939-215.336,56.726-319.43
			c40.46-136.818,86.858-223.674,202.972-321.447c2.613-34.163,5.793-88.4,5.514-124.004
			C5849.711,3641.616,5847.311,3624.027,5843.854,3606.714z"/>
		<path id="_x31_80627851" fill="none" stroke="#010101" stroke-width="64" d="M5829.543,4378.058
			c8.102-39.757,17.953-79.12,29.038-118.005c7.399-25.943,13.606-63.521,25.706-89.221c-10.605-19.806-27.002-33.488-34.703-56.252
			c-10.94-32.368-15.561-66.985-19.205-100.837c-2.82-26.306-5.272-52.988-2.362-79.225c6.034-54.351,12.112-103.203,16.327-151.178
			c-118.535,92.917-165.126,195.026-209.323,342.216c-31.228,103.943-29.685,203.932-52.672,309.617
			c-2.781,12.767-5.819,25.279-9.055,37.595c5.862-1.981,12.555-3.305,20.187-3.817c53.902-3.645,117.308,44.252,164.668,66.773
			c20.864,9.918,42.244,22.427,62.807,37.057C5794.513,4520.704,5819.26,4428.512,5829.543,4378.058z"/>
		<path id="_x31_80627852" fill="none" stroke="#010101" stroke-width="64" d="M5762.953,4845.038
			c-25.779-38.241-63.682-70.449-90.386-108.444c-32.471-46.207-76.979-81.1-108.217-128.868
			c-7.973-12.203-15.092-27.168-19.864-42.711c-31.693,89.167-70.355,172.036-98.675,266.974
			c-30.794,103.227-46.739,160.688-74.572,264.451c-17.981,66.996-51.876,147.729-99.512,198.755
			c38.726,46.522,86.651,129.197,134.383,192.122c20.279-30.652,54.105-60.263,75.247-87.18
			c29.912-38.074,59.342-76.604,87.779-115.975c25.408-35.191,50.186-71.002,73.012-108.22
			c18.612-30.348,36.275-64.601,57.537-97.588c11.012-69.95,23.113-134.638,48.625-202.486
			C5752.275,4865.311,5757.229,4855.052,5762.953,4845.038z"/>
		<path id="_x31_80627853" fill="none" stroke="#010101" stroke-width="64" d="M5758.148,4535.721
			c-47.362-22.523-110.768-70.414-164.668-66.77c-7.636,0.513-14.328,1.834-20.189,3.817c-8.395,31.905-18.203,62.432-28.805,92.246
			c4.772,15.547,11.892,30.513,19.864,42.707c31.237,47.772,75.746,82.665,108.217,128.872
			c26.704,37.995,64.606,70.203,90.386,108.442c37.173-65.06,107.12-119.549,154.324-173.162
			C5880.428,4612.506,5817.203,4563.803,5758.148,4535.721z"/>
		<path id="_x31_80627856" fill="none" stroke="#010101" stroke-width="64" d="M5540.347,3714.73
			c9.798-0.408,24.592,0.163,33.272-1.241c14.26-2.306,27.613-6.069,40.655-12.426c30.255-14.745,56.494-33.291,80.722-57.512
			c47.451-47.448,87.477-97.691,114.934-161.026l-2.757-25.491c-1.128-7.981-0.03-19.402-1.278-27.352
			c-3.505-22.26-24.062-1.606-34.633,0.687c-27.859-0.009-28.996-12.618-49.426-7.437c-44.354,11.243-89.045,45.048-117.805,76.239
			c-13.021,14.111-16.959,36.855-33.888,47.275c-14.817,9.12-34.292,7.526-50.746,4.576c24.405,21.402,33.821,55.134,31.009,88.281
			C5548.665,3659.773,5544.582,3694.748,5540.347,3714.73"/>
		<path id="_x31_80627832" fill="none" stroke="#010101" stroke-width="64" d="M4897.863,3420.278
			c12.654-14.79,53.088-45.027,131.264-35.24c28.182,3.534,73.086,16.359,103.736,35.35c32.039,19.871,49.721,47.474,81.662,62.552
			c26.604,12.551,43.951,15.899,72.963,17.479c-27.98,65.155-6.199,190.675-23.697,333.834
			c-8.229,67.282-44.521,233.178-79.968,388.279c-39.181,171.437,63.505,373.961-112.988,317.652
			c-63.354-20.21-115.026-119.685-165.893-117.747L4897.863,3420.278z"/>
		<path id="_x31_80627833" fill="none" stroke="#010101" stroke-width="64" d="M4897.846,3416.355l6.932,981.893
			c31.511-4.043,65.451-15.407,94.411-26.453c57.926-22.062,66.315-34.843,99.626-92.955
			c22.274-38.855,64.152-78.074,77.379-122.719c27.855-94.111-64.334-164.215-70.094-251.936
			c-4.879-74.419,21.094-146.11,46.748-213.541c19.254-50.618,26.193-99.749,29.602-154.097
			c3.521-56.086-2.727-87.097-49.586-116.162c-30.648-18.988-75.553-31.813-103.734-35.348
			c-78.172-9.786-118.609,20.45-131.262,35.237"/>
		<path id="_x31_80627835" fill="none" stroke="#010101" stroke-width="64" d="M5198.195,3582.519
			c0.933-2.044,1.953-4.081,3.031-6.104c19.753-37.116,60.637-32.943,65.5,6.923c9.418,77.087,6.566,173.296-2.938,250.941
			c-4.102,33.512-10.694,66.729-17.21,99.755c-3.122,15.872-21.677,132.062-33.601,134.425
			c-28.146,5.584-70.864-86.228-78.537-108.745c-35.186-103.332,14.339-190.218,41.111-286.407
			C5184.013,3642.896,5184.935,3611.259,5198.195,3582.519z"/>
		<path id="_x31_80627834" fill="none" stroke="#010101" stroke-width="64" d="M5134.164,4259.744
			c6.916-3.419,14.726-2.973,23.482,4.197c22.297,18.236,11.6,67.934,15.666,93.568c7.365,46.49,17.059,111.187,0.689,156.568
			c-15.426,42.709-68.926,37.024-103.173,26.105c-38.338-12.237-65.792-48.244-94.459-75.745
			c-21.589-20.704-55.771-48.623-9.371-63.638c54.558-17.66,105.347-35.281,133.501-91.946
			C5107.692,4294.377,5118.697,4267.395,5134.164,4259.744z"/>
		<path id="_x31_80627822" fill="none" stroke="#010101" stroke-width="64" d="M6415.338,6026.4
			c-21.74-5.764-64.37,9.041-99.023,0.936c-70.957-16.613-137.786-57.058-174.812-83.43c-26.658-18.994-54.924-41.375-67.609-81.426
			c-12.418-39.201-9.772-95.949,9.403-126.489c25.502-40.614,52.417-58.806,85.079-68.606c12.217-3.663,37.289,0.691,50.891,3.947
			c15.734,3.752,27.664,10.016,40.906,2.975c10.13-5.385,30.029-54.486,36.027-67.977c29.367-66.018,34.318-92.137,25.498-117.006
			c-3.957-11.148-19.713-8.92-42.475-17.008c-28.737-10.211-36.396-19.529-56.48-32.061
			c-16.496-10.318-70.172-53.816-100.338-85.693c-25.742-27.221-51.846-60.01-76.719-88.291
			c-25.18-28.627-44.206-54.895-75.008-79.111c-23.722-18.662-69.566-45.475-92.347-60.204
			c-22.782-14.714-59.544-39.57-92.341-60.181c-26-16.336-49.553-59.568-55.012-70.938c1.902,15.926-8.121,157.354-18.203,217.328
			c-18.176,108.148-39.699,216.141-85.769,309.823c-27.006,54.901-136.753,93.074-197.927,27.367
			c-60.861-65.405-126.9-177.073-175.51-231.507c-75.825-84.928-140.315-139.413-153.463-182.457
			c-14.072-46.064,31.024-91.635,68.358-147.055c52.876-78.506,95.015-125.795,119.075-182.33
			c21.388-50.291,41.277-116.826-0.742-158.857c-42.209-42.222-125.424-45.279-176.547-64.796
			c-43.244-16.515-85.592-41.233-119.201-80.067c-13.545-15.653-26.805-34.121-43.758-45.726
			c-10.01-6.845-23.182-7.874-34.131-12.206c31.281,37.846,14.891,268.161,12.709,308.533
			c-3.783,70.088,2.407,135.896,2.766,203.957c0.742,142.549,6.418,296.596,3.861,439.301
			c-0.953,53.463,24.269,558.191-21.385,535.561l0.172,34.943c-4.895,113.869-0.932,138.767-0.932,138.767
			c196.41,38.021,464.316,28.181,698.073,77.481c46.026,9.699,152.016,14.533,141.642,66.547c1.971-3.609,3.715-7.066,5.184-10.257
			c11.987-26.142,24.057-37.9,40.961-49.662c16.534-11.495,88.375-10.425,105.338-10.417c6.543,0.007,52.069,2.367,103.907,8.872
			c82.456,10.36,183.437,26.794,188.184,27.554c61.823,9.832,172.436,16.473,225.409,23.637
			c7.279,0.986,11.519-169.396,10.92-192.184C6429.783,6040.67,6423.59,6028.596,6415.338,6026.4z"/>
		<path id="_x31_80627825" fill="none" stroke="#010101" stroke-width="64" d="M5819.158,6176.709
			c-29.486-82.471-134.924-74.086-188.074-26.199c-12.557,11.305-19.415,25.846-18.148,31.874c1.338,6.386,15.67,5.397,29.246,8.152
			c8.963,1.817,28.854,3.401,40.845,6.313c13.466,3.28,28.542,8.163,40.575,12.928c15.322,6.064,16.428,7.508,20.562,15.145
			l4.011,6.451c2.423,5.732,4.077,15.262,7.075,8.726c11.988-26.139,24.057-37.898,40.965-49.66
			c4.875-3.39,14.546-5.684,26.205-7.237"/>
		<path id="_x31_80627831" fill="none" stroke="#010101" stroke-width="64" d="M5244.744,4622.835
			c-1.856-1.515-1.758-3.115,0.275-4.776l-3.393,1.928c-42.511-17.203-95.053-22.767-131.377-36.632
			c-43.244-16.515-85.59-41.229-119.199-80.065c-11.062-12.789-21.934-27.446-34.789-38.711
			c10.941,88.582,4.809,175.323,1.445,264.518c-3.244,85.854,4.555,173.273,7.621,259.123c0.4,0.006,0.8,0.011,1.19-0.001
			c14.175-0.258,24.39-7.485,60.255-24.439c113.218-53.533,148.742-79.517,188.441-113.657
			c39.135-33.658,54.229-60.777,67.93-114.504C5291.172,4704.083,5281.602,4636.19,5244.744,4622.835z"/>
		<path id="_x31_80627830" fill="none" stroke="#010101" stroke-width="64" d="M4957.705,4729.093
			c3.367-89.193,9.498-175.937-1.443-264.52c-2.885-2.524-5.867-4.884-8.971-7.014c-11.398-7.786-26.883-8.056-38.533-14.22
			c2.316,1.722,4.596,3.598,6.762,5.262l0.066,0.199c27.986,46.635,12.407,265.796,10.281,305.083
			c-3.779,70.093,2.411,135.896,2.768,203.962c0.043,7.816,0.099,15.662,0.168,23.546c17.878,4.294,28.031,6.745,36.527,6.823
			C4962.262,4902.366,4954.463,4814.943,4957.705,4729.093z"/>
		<path id="_x31_80627823" fill="none" stroke="#010101" stroke-width="64" d="M5114.449,4919.687
			c36.989-25.178,83.719,3.864,64.881,48.813l-4.654,11.677c-2.053,3.009-4.126,6.056-6.214,9.161
			c-37.332,55.42-82.431,100.988-68.36,147.051c13.146,43.044,77.638,97.527,153.465,182.463
			c48.607,54.432,114.648,166.098,175.512,231.498c30.257,32.502,72.393,39.594,110.526,31.812l0.654,7.467
			c47.663,92.197,142.481,101.711,186.208,190.321c34.848,70.616,44.094,103.958,62.588,174.576
			c16.842,64.253,13.857,149.565,30.076,215.735l3.285,13.031l-3.256-6.494c-0.661-1.842-1.354-3.644-2.089-5.393
			c-32.075-76.686-134.022-67.623-185.987-20.807c-16.836,15.162-20.771,28.566-16.646,40.465l-0.678,0.572
			c-30.777-33.295-77.414-69.215-112.428-90.695c-74.469-45.67-144.511,12.701-216.616,29.248
			c-67.641,15.518-112.407-35.139-91.15-109.146c17.362-60.461,57.61-111.873,110.388-139.587l-1.234-0.823
			c34.76-25.588,57.025-69.279,49.092-120.828c-16.594-107.808-54.986-258.85-135.664-317.421
			c-17.98-13.043-74.596-21.603-100.016-17.694c-22.001,3.385-44.791,16.42-62.908,36.643l-3.646,0.312
			c-27.31,36.79-74.268,26.407-71.951-25.833l1.103-32.906c-1.222-65.75-2.167-136.668-3.336-158.706
			c-4.521-85.163-8.241-226.515-8.435-251.036l-0.438-4.944c14.179-0.265,24.394-7.487,60.257-24.441
			c44.357-20.976,76.794-37.721,102.225-52.384L5114.449,4919.687z"/>
		<path id="_x31_80627829" fill="none" stroke="#010101" stroke-width="64" d="M4907.445,6003.797
			c-1.223,0.414-1.08,4.904-2.186,0.615c66.323-61.285,97.943-135.037,94.764-229.199c-1.574-46.719-9.398-92.985-9.492-139.807
			c-0.08-36.715-3.721-73.188-7.794-109.48c-3.809-33.893-5.192-241.059-7.352-281.726c-4.519-85.165-8.239-226.512-8.434-251.032
			l-0.438-4.95c-8.759,0.159-19.021-2.333-37.776-6.84l0.065,0.856c1.188,135.615,6.103,280.309,3.688,414.912
			c-0.954,53.604,24.407,560.902-21.743,535.389L4907.445,6003.797z"/>
		<path id="_x31_80627824" fill="none" stroke="#010101" stroke-width="64" d="M4985.307,5912.35
			c-15.143,54.523,23.225,123.188,57.243,160.153c28.53,31.018,84.875,66.339,115.396,19.048
			c45.623-70.711-16.172-206.737-92.847-219.135C5034.754,5867.509,4995.514,5875.596,4985.307,5912.35z"/>
		<path id="_x31_80627826" fill="none" stroke="#010101" stroke-width="64" d="M5351.811,5759.805
			c-16.594-107.808-54.988-258.85-135.666-317.421c-0.312-0.227-0.648-0.452-0.981-0.679
			c-63.507,126.252-12.108,307.754-8.431,460.855C5284.164,5918.57,5365.945,5851.677,5351.811,5759.805z"/>
		<path id="_x31_80627827" fill="none" stroke="#010101" stroke-width="64" d="M5215.167,5441.705
			c-18.976-12.66-74.06-20.855-99.032-17.02c-34.695,5.344-71.336,34.664-88.573,78.36c-12.741,32.29-2.21,67.831-0.942,101.134
			c3.137,82.777,12.775,146.99,69.221,205.692c27.178,28.276,47.215,65.306,82.877,82.997c9.153,4.543,18.551,7.733,28.02,9.691
			C5203.053,5749.455,5151.658,5567.955,5215.167,5441.705z"/>
		<path id="_x31_80627828" fill="none" stroke="#010101" stroke-width="64" d="M5819.135,6170.262
			c-16.223-66.174-13.236-151.486-30.08-215.735c-18.498-70.618-27.736-103.964-62.586-174.579
			c-43.729-88.611-138.544-98.124-186.21-190.322l-0.654-7.465c38.966-7.951,73.754-31.426,87.401-59.176
			c46.07-93.681,67.594-201.674,85.77-309.82c10.493-62.424,20.925-213.135,17.91-218.666
			c-6.412-11.764,22.502,51.658,55.303,72.272c32.799,20.604,69.562,45.466,92.341,60.186c22.778,14.724,68.621,41.538,92.345,60.2
			c51.65,40.62,88.85,102.546,135.791,150.125c61.581,62.402,104.902,104.656,168.502,134.372
			c19.421,9.067,43.508,3.758,47.028,19.3c8.355,36.801-3.284,61.73-18.604,99.031c-3.412,8.288-9.568,28.104-16.173,38.564
			c-10.645,16.842-21.562,54.57-41.572,49.658c-28.694-7.04-65.904-17.814-89.233-6.49c-38.866,18.877-74.099,48.581-83.874,94.666
			c-6.568,30.916-9.412,82.053,6.861,108.85c26.982,44.412,64.506,73.27,108.568,99.09c51.928,30.422,94.975,50.557,147.43,54.98
			c54.783,4.606,97.016-24.995,94.625,28.479c-1.586,35.146-3.879,146.104-8.248,182.385
			c-37.265-5.896-120.262-10.607-158.139-14.785c-53.629-5.899-79.396-11.111-122.729-16.722
			c-83.628-10.827-161.151-28.514-239.358-28.554c-11.964-0.004-51.227-0.543-79.133,3.182L5819.135,6170.262z"/>
		<path id="_x31_80627927" fill="none" stroke="#010101" stroke-width="64" d="M5400.529,3096.065l11.641,2.83
			c-3.522,7.529-7.701,15.369-12.389,23.527c-29.995,51.84-176.764,14.432-239.76,17.539c-65.539,3.184-131.691,0.487-178.399,5.405
			l-1.151-12.865c80.781-7.65,161.573-14.277,243.131-10.71C5274.128,3124.012,5377.037,3154.262,5400.529,3096.065z"/>
		<path id="_x31_80627928" fill="none" stroke="#010101" stroke-width="64" d="M4911.349,6320.846
			c140.532,6.609,275.019,11.897,414.353,18.502c45.276,2.146,122.301-1.695,201.078,0.1
			c117.507,2.656,171.162-8.456,210.471-62.661c55.869-77.036-75.99-81.754-128.825-92.892
			c-233.755-49.303-501.667-39.459-698.075-77.479L4911.349,6320.846z"/>
		<path id="_x31_80627929" fill="none" stroke="#010101" stroke-width="64" d="M5188.441,4434.336
			c-7.476-45.279-6.919-120.017-3.189-166.044c5.484-67.657,32.045-25.204,78.627-22.181c23.491,1.514,50.992,1.705,71.419-10.43
			c48.321-28.745,63.62,145.479,51.802,197.446c-8.029,35.211-85.57,184.584-139.729,171.207
			C5194.504,4591.276,5195.49,4477.077,5188.441,4434.336z"/>
		<path id="_x31_80627930" fill="none" stroke="#010101" stroke-width="64" d="M5207.872,4183.31
			c15.284-99.355,61.035-290.17,65.045-339.245c2.321-28.364,6.072-56.696,6.27-85.111c0.396-58.412,0.091-115.096,3.729-171.775
			c1.934-30.275,1.738-59.092,12.271-77.371c11.712-20.303,39.9-7.043,59.572-6.557c24.399,0.601,102.314,15.709,124.5,25.93
			c28.185,12.968,66.628,36.236,71.396,72.605c7.748,59.053-18.549,124.006-33.498,179.39c-3.786,14.033-9.561,27.423-13.22,41.454
			c-10.073,38.655-23.649,76.668-35.569,114.696c-20.99,67.021-41.598,134.836-69.169,199.087
			c-10.81,25.213-21.001,46.404-35.287,66.68c-7.355,10.441-21.417,31.964-33.431,36.498
			C5314.737,4245.529,5194.115,4272.709,5207.872,4183.31z"/>
		<path id="_x31_80627931" fill="none" stroke="#010101" stroke-width="64" d="M5875.146,4149.64
			c-19.7-3.478-25.895-33.676-36.092-76.831c-8.49-35.949-12.34-72.192-11.451-108.107c2.863-116.282,37.012-241.93,17.159-357.669
			c-11.134-64.927-84.642-210.013,8.628-228.792c65.795-13.254,182.937,9.54,184.537,90.298
			c1.992,100.298-34.433,212.224-59.13,307.22c-20.563,79.062-43.114,159.481-58.417,239.988
			c-3.021,15.935-22.592,80.227-25.505,96.406C5891.422,4131.348,5880.283,4150.55,5875.146,4149.64z"/>
		<path id="_x31_80627932" fill="none" stroke="#010101" stroke-width="64" d="M6021.621,3607.114
			c23.359-98.418,6.06-237.655,45.727-325.528c11.79-26.118,75.029-41.041,109.181-96.046
			c25.989-41.861,22.322-133.248,41.114-145.107c52.292-32.993,87.623,88.297,88.106,192.236
			c1.157,249.449-78.305,369.473-124.909,490.234c-49.318,127.791-73.111,271.499-103.496,405.905
			c-28.314,125.22-38.592,256.129-16.366,388.307c11.214,66.685-27.753,104.677-56.536,84.964
			c-31.092-21.314-55.072-120.32-69.902-184.381c-12.92-55.814-18.434-90.27-27.331-146.445
			c-5.446-34.389-12.168-57.412-18.247-92.617C5882.375,4140.488,5980.033,3782.299,6021.621,3607.114z"/>
		<path id="_x31_80627933" fill="none" stroke="#010101" stroke-width="64" d="M7027.937,5109.199
			c47.315,14.403,136.907,5.285,159.97-36.566c22.566-40.953-40.973-48.836-103.461-54.934c-44.158-4.318-82.662,3.465-99.264,14.33
			C6948.785,5055.867,7000.152,5100.729,7027.937,5109.199z"/>
		<path id="_x31_80627934" fill="none" stroke="#010101" stroke-width="64" d="M7554.564,2748.152
			c126.471,189.35,208.649,389.118,261.577,548.701c3.464,10.434,6.782,20.715,9.955,30.757c0,0,0,0,0.068,0.077
			c0.146,0.474,0.366,1.101,0.593,1.729c5.682,18.12,11.063,35.542,16.015,52.331c0.222,0.702,0.444,1.487,0.661,2.196
			c0.523,1.645,0.965,3.372,1.479,5.021c0.521,1.646,0.963,3.376,1.479,5.022c0.961,3.292,1.917,6.668,2.881,9.96
			c0.146,0.628,0.295,1.26,0.588,1.886c3.469,12.477,6.879,24.241,9.46,33.422c1.702,6.122,3.106,11.066,3.991,14.438
			c36.977,136.044,39.99,316.312,28.803,457.669c-0.625,7.534-1.24,14.9-1.79,22.278c-5.438,65.183-11.556,125.27-23.685,188.342
			c-3.344,16.627-7.334,34.118-12.112,53.415c-5.921,24.078-23.338,85.047-26.162,93.966c-0.218-0.074-0.428,1.019-0.854,2.824
			c0,0.077,0,0.077-0.001,0.156c-9.664,32.234-20.759,68.083-32.798,105.496c-0.289,1.096-0.646,2.04-0.932,2.9
			c-0.574,1.49-1.002,2.98-1.508,4.55c-0.355,1.257-0.717,2.116-0.861,2.661c-1.212,3.695-2.434,7.376-3.652,11.066
			c-6.666,19.843-13.116,39.372-19.494,58.825c-0.498,1.571-1.004,3.14-1.574,4.705c-35.992,106.514-75.252,213.651-104.748,278.278
			c-0.217,0.627-0.503,1.255-0.86,1.883c-1.587,3.526-3.241,6.979-4.896,10.513c-4.178,8.702-8.351,17.251-12.455,25.644
			c-29.092,58.82-58.425,111.364-93.683,171.443c-0.075,0.082-0.075,0.158-0.147,0.234c-20.994,33.174-40.783,59.753-57.215,74.573
			c-28.949,26.11-305.978,234.645-280.186,185.47c15.779-30.035,219.654-182.912,250.885-235.217
			c16.679-54.752-56.859-36.191-79.939-45.305c-68.736-27.094,38.381-77.484,56.568-88.385
			c52.621-31.509,109.374-79.57,148.094-130.382c81.918-107.116,148.208-247.188,184.906-358.098
			c50.166-151.617,89.529-313.745,94.691-470.635c5.612-168.188-2.535-373.483-119.35-659.01
			c-75.939-185.716-171.699-351.048-290.549-496.938c-60.672-74.398-83.067-138.654-225.356-260.313
			c-133.237-113.966-199.907-151.105-340.822-225.694c-134.739-60.86-232.312-100.994-334.95-135.479
			c-79.562-26.71-315.464-102.288-509.346-127.719c-125.955-16.533-229.936,3.581-276.088,19.482
			c-83.01,28.595-140.658,88.576-204.75,121.5c-97.886,50.313-196.633,71.449-199.334,115.61
			c-0.607,10.2,49.632,60.978,109.74,154.988c94.08,147.131,62.246,210.343,143.484,378.571
			c56.87,117.698,178.215,33.426,213.107,238.031c27.272,160.046-109.164,234.66-228.954,262.062
			c-96.125,21.993-117.97,29.361-202.233,39.126c-71.549,8.361-148.342-1.874-213.701-5.987
			c-66.303-4.263-219.008-37.362-291.486-41.323l-0.552-119c27.968-2.497,55.933-5.307,83.908-7.962l1.146,12.865
			c-38.79,4.142-64.11,13.466-64.878,35.664c2.281,37.028,45.955,36.423,112.859,45.165
			c129.598,16.921,366.027,34.688,488.141-25.11c68.738-33.62,146.434-128.189,69.055-200.713
			c-39.34-36.888-120.15-80.935-168.07-101.51c-37.793-16.178-176.979-96.259-220.142-62.86
			c-41.642,32.221,34.864,120.118,129.671,143.227c99.387,24.207,109.967,63.67,83.914,119.671l-11.641-2.829
			c3.309-8.237,5.004-18.197,4.805-30.279c-1.377-77.897-74.281-63.58-123.508-83.842
			c-102.237-42.096-125.595-156.717-207.701-216.138c-48.861-35.324-122.408-19.515-179.441-29.976l-1.227-264.129
			c87.676,99.198,187.13,182.084,297.545,249.914c76.239,46.791,257.549,166.194,346.4,95.476
			c84.717-67.421-26.613-251.828-57.72-330.052c-39.927-100.119-97.257-191.141-204.507-217.156
			c-130.678-31.601-254.509,2.858-382.528,26.646l-0.611-131.399c0,0,14.237-1.014,36.977-2.963
			c15.642,1.655,34.093-0.141,50.35-4.29c0.073,0.001,0.148-0.078,0.218-0.076c28.622-2.659,61.607-5.857,94.507-9.528
			c18.31-2.031,36.544-4.22,54.046-6.564c42.2-5.547,83.271-20.278,120.468-38.381c73.021-35.424,130.941-84.112,152.006-102.693
			c7.235-6.353,13.963-12.94,20.325-19.763c27.846-30.028,47.963-63.986,67.07-97.003c28.766-49.563,55.291-97.09,102.693-125.779
			c20.872-12.698,45.834-21.708,76.775-25.695c12.565-1.642,26.083-2.417,40.758-2.255c19.411,0.166,41.516,2.138,65.365,5.368
			c115.637,15.585,271.67,61.473,358.416,87.007c56.26,16.579,104.955,31.821,154.16,48.239
			c55.688,18.621,112.031,38.649,180.689,63.707c153.826,56.081,292.057,101.099,456.982,198.292
			c48.318,28.502,97.239,62.725,145.381,100.324c164.127,128.182,318.246,294.875,402.688,401.366
			C7501.37,2671.644,7528.875,2709.702,7554.564,2748.152z"/>
		<path id="_x31_80627924" fill="none" stroke="#010101" stroke-width="64" d="M6004.491,2138.197
			c30.602-62.744-25.981-117.683-49.677-133.384c0,0-54.733-49.054-183.548-7.932c-83.562,26.679-140.696,88.588-204.753,121.496
			c-97.883,50.285-196.614,71.481-199.338,115.613c-0.615,10.203,49.626,60.96,109.744,154.987
			c94.094,147.151,62.201,210.357,143.486,378.574c56.871,117.693,178.217,33.418,213.082,238.049
			c20.274,118.989-49.921,190.741-136.501,230.986l84.405,191.223c23.076-9.067,42.674-38.457,48.913-65.928
			c8.899-39.219,15.726-135.313,55.47-184.324c39.746-49.009-17.515-249.075-25.083-313.8
			c-7.573-64.723-48.476-266.741-0.04-400.076C5909.089,2330.35,5973.898,2200.941,6004.491,2138.197z"/>
		<path id="_x31_80627925" fill="none" stroke="#010101" stroke-width="64" d="M5604.555,3267.643
			c-96.127,21.987-117.966,29.361-202.221,39.164c-71.59,8.331-148.355-1.875-213.711-6.021
			c-66.331-4.27-219.035-37.367-291.508-41.286c0,0,0.706,150.974,0.729,156.859c0.032,5.878,34.99-29.402,71.322-31.348
			c36.325-1.946,121.758,5.94,163.694,35.377c41.915,29.436,60.224,58.864,102.079,70.649
			c41.838,11.786,152.676,11.845,194.52,23.626c41.846,11.788,78.311,39.26,121.909,37.318
			c43.598-1.936,34.329-41.165,72.339-72.529c38.01-31.357,92.341-70.557,126.943-52.887c10.365,5.289,20.865,5.123,30.733,1.249
			l-84.398-191.225C5667.109,3250.476,5635.291,3260.612,5604.555,3267.643z"/>
		<path id="_x31_80627926" fill="none" stroke="#010101" stroke-width="64" d="M4910.75,5932.535
			c46.153,25.514,20.787-481.785,21.741-535.389c2.56-142.701-3.114-296.752-3.856-439.301
			c-0.356-68.061-6.551-133.871-2.77-203.957c2.375-43.916,21.561-312.479-22.051-313.8L4910.75,5932.535z"/>
	</g>
</g>
</svg>
