<svg width="4608" height="4160" xmlns="http://www.w3.org/2000/svg">
<g transform="scale(1.0)">
<g id="180608757" order="1" parent_id="" graphic_group_label_id="28" graphic_group_label="Atlas - Adult Mouse" sub_image_id="100960480" transform=" scale(1.0, 1.0)"><path id="180608759" parent_id="180608757" order="0" structure_id="8" d="M4319.834,1777.532
			c0.611,62.355-4.279,125.604-12.657,191.022c-9.595,75.004-26.72,142.095-46.591,214.279
			c-41.879,152.211-113.103,295.116-171.8,441.981c-38.947,97.445-55.265,203.17-96.42,300.879
			c-88.791,210.805-223.418,368.34-400.214,508.447c-127.401,100.964-268.953,194.698-426.321,237.382
			c-162.546,44.094-312.124,46.739-466.684-24.267c-145.164-66.694-284.481-127.466-404.702-236.22
			c-294.558-266.471-263.628-685.817-161.409-1032.488c45.731-155.084,70.088-312.656,114.497-467.922
			c27.637-96.611,61.617-192.133,95.091-287.34c34.708-98.722,74.28-194.958,112.838-292.186
			c58.892-148.495,117.61-291.674,246.689-394.824c122.381-97.796,295.737-156.505,451.132-165.628
			c89.812-5.274,189.93,4.582,276.887,28.292c162.644,44.345,344.077,100.424,483.08,197.974
			c78.346,54.985,156.277,134.875,206.857,216.533c50.342,81.27,104.351,159.784,139.789,249.244
			C4302.078,1569.192,4318.814,1672.086,4319.834,1777.532z" style="stroke:black;fill:#bfdae3"/><path id="180608760" parent_id="180608757" order="1" structure_id="688" d="M4319.833,1777.538
			c-1.02-105.446-17.757-208.344-59.936-314.842c-35.439-89.461-89.445-167.978-139.786-249.248
			c-50.583-81.659-128.518-161.546-206.864-216.535c-139.001-97.551-320.439-153.627-483.079-197.973
			c-86.962-23.71-187.077-33.567-276.895-28.293c-155.391,9.121-328.748,67.83-451.134,165.627
			c-129.075,103.153-187.797,246.332-246.688,394.826c-38.563,97.231-78.136,193.468-112.84,292.188
			c-33.475,95.208-67.458,190.729-95.092,287.341c-44.411,155.269-68.769,312.839-114.499,467.926
			c-102.218,346.674-133.153,766.02,161.409,1032.494c120.218,108.755,259.542,169.526,404.701,236.22
			c154.565,71.006,304.14,68.36,466.689,24.269c157.373-42.684,298.923-136.42,426.323-237.385
			c176.796-140.105,311.429-297.644,400.219-508.446c41.159-97.713,57.476-203.438,96.427-300.884
			c58.689-146.864,129.917-289.772,171.796-441.983c19.876-72.183,36.993-139.276,46.596-214.282
			C4315.554,1903.143,4320.447,1839.891,4319.833,1777.538z M3336.213,1742.767c-22.277,44.586-69.235,80.646-100.274,119.898
			c-41.651,52.687-71.258,110.264-97.241,171.914c-3.987-39.927,32.899-88.133,47.849-123.494
			c32.753-77.52,45.17-163.202,66.008-244.33c6.9-26.896,21.987-170.478,81.16-144.379c24.073,10.621,25.829,48.113,25.845,69.723
			C3359.607,1642.994,3359.502,1696.154,3336.213,1742.767z" style="stroke:black;fill:#b0ffb8"/><path id="180608761" parent_id="180608757" order="2" structure_id="698" d="M4319.834,1777.532
			c-1.02-105.446-17.756-208.34-59.938-314.84c-35.438-89.46-89.447-167.974-139.789-249.244
			c-50.58-81.658-128.512-161.548-206.857-216.533c-139.003-97.549-320.437-153.629-483.08-197.974
			c-86.957-23.71-187.075-33.566-276.887-28.292c-155.395,9.123-328.751,67.832-451.132,165.628
			c-129.079,103.15-187.798,246.329-246.689,394.824c-38.558,97.228-78.13,193.464-112.838,292.186
			c-33.474,95.207-67.454,190.729-95.091,287.34c-44.408,155.266-68.766,312.838-114.497,467.922
			c-102.219,346.671-133.149,766.018,161.409,1032.488c120.22,108.754,259.538,169.525,404.702,236.22
			c154.56,71.006,304.138,68.36,466.684,24.267c157.368-42.684,298.92-136.418,426.321-237.382
			c176.796-140.107,311.423-297.643,400.214-508.447c41.155-97.709,57.473-203.434,96.42-300.879
			c58.697-146.865,129.921-289.771,171.8-441.981c19.871-72.185,36.996-139.275,46.591-214.279
			C4315.555,1903.137,4320.445,1839.887,4319.834,1777.532z M3336.213,1742.767c-22.277,44.586-69.235,80.646-100.274,119.898
			c-41.651,52.687-71.258,110.264-97.241,171.914c-3.987-39.927,32.899-88.133,47.849-123.494
			c32.753-77.52,45.17-163.202,66.008-244.33c6.9-26.896,21.987-170.478,81.16-144.379c24.073,10.621,25.829,48.113,25.845,69.723
			C3359.607,1642.994,3359.502,1696.154,3336.213,1742.767z" style="stroke:black;fill:#9ad2bd"/><path id="180608762" parent_id="180608757" order="3" structure_id="507" d="M4319.833,1777.538
			c-1.02-105.446-17.757-208.344-59.936-314.842c-35.439-89.461-89.445-167.978-139.786-249.248
			c-50.583-81.659-128.518-161.546-206.864-216.535c-139.001-97.551-320.439-153.627-483.079-197.973
			c-86.962-23.71-187.077-33.567-276.895-28.293c-155.391,9.121-328.748,67.83-451.134,165.627
			c-129.075,103.153-187.797,246.332-246.688,394.826c-38.563,97.231-78.136,193.468-112.84,292.188
			c-33.475,95.208-67.458,190.729-95.092,287.341c-44.411,155.269-68.769,312.839-114.499,467.926
			c-102.218,346.674-133.153,766.02,161.409,1032.494c120.218,108.755,259.542,169.526,404.701,236.22
			c154.565,71.006,304.14,68.36,466.689,24.269c157.373-42.684,298.923-136.42,426.323-237.385
			c176.796-140.105,311.429-297.644,400.219-508.446c41.159-97.713,57.476-203.438,96.427-300.884
			c58.689-146.864,129.917-289.772,171.796-441.983c19.876-72.183,36.993-139.276,46.596-214.282
			C4315.554,1903.143,4320.447,1839.891,4319.833,1777.538z M3336.213,1742.767c-22.277,44.586-69.235,80.646-100.274,119.898
			c-41.651,52.687-71.258,110.264-97.241,171.914c-3.987-39.927,32.899-88.133,47.849-123.494
			c32.753-77.52,45.17-163.202,66.008-244.33c6.9-26.896,21.987-170.478,81.16-144.379c24.073,10.621,25.829,48.113,25.845,69.723
			C3359.607,1642.994,3359.502,1696.154,3336.213,1742.767z" style="stroke:black;fill:#9ad2bd"/><path id="180608763" parent_id="180608757" order="4" structure_id="212" d="M2488.773,1435.412
			c-5.411,66.018-9.222,126.474-8.769,191.505c1.189,170.729-87.623,314.081-137.299,473.073
			c-82.737,264.807-132.316,580.246-67.901,854.756c16.292,69.403,48.884,137.787,88.125,197.2
			c110.758,167.711,236.562,321.963,432.217,392.939c49.394,17.917,106.876,40.182,159.424,43.198
			c60.014,3.438,133.44-18.106,188.236-41.079c75.117-31.49,118.937-88.008,170.878-147.959
			c68.985-79.627,117.966-175.841,164.221-269.87c38.69-78.661,60.782-164.02,96.052-243.837
			c31.58-71.474,108.064-136.893,175.934-171.971c58.193-30.078,114.333-68.108,147.58-124.213
			c38.456-64.894,81.306-129.395,127.341-189.135c42.873-55.628,99.296-101.039,131.993-164.04
			c35.051-67.542,59.205-143.76,75.408-217.887c15.83-72.412,32.785-155.732,42.396-240.674
			c13.461-118.964,12.522-241.09-26.039-340.811c-1.765-4.561-3.603-9.08-5.493-13.57
			c-34.408-73.345-79.747-140.311-122.455-209.256c-50.582-81.653-128.506-161.536-206.858-216.52
			c-138.998-97.544-320.424-153.621-483.066-197.96c-86.96-23.708-187.072-33.565-276.88-28.291
			c-94.639,5.555-195.938,29.501-288.328,69.467c-19.801,9.974-38.796,21.205-56.703,33.829
			C2632.949,998.263,2506.344,1220.862,2488.773,1435.412z M3070.303,873.135c90.099-38.249,181.758-37.949,273.434-24.477
			c59.764,8.789,119.527,23.17,178.878,36.125c62.667,13.678,98.722,40.857,153.453,73.185
			c70.813,41.824,139.297,92.092,202.038,145.135c112.004,94.685,216.605,212.225,250.759,358.614
			c38.909,166.83-15.79,374.274-105.29,518.015c-34.565,55.518-84.443,99.065-131.936,143.137
			c-43.69,40.55-79.372,84.457-124.551,123.51c-39.751,34.366-67.724,78.827-113.549,104.776
			c-44.119,24.99-74.316,61.693-112.053,94.441c-60.661,52.651-115.28,89.031-150.388,164.092
			c-47.662,101.938-21.023,207.38-48.722,313.325c-36.539,139.756-87.703,267.33-174.146,384.802
			c-36.216,49.209-74.664,114.567-134.524,137.265c-77.818,29.513-171.185-3.983-240.776-41.266
			c-51.229-27.441-117.845-75.521-149.426-125.244c-31.588-49.723-40.996-109.407-66.55-162.038
			c-46.416-95.623-103.931-186.51-132.082-289.955c-18.063-66.374-31.637-150.122-31.378-218.902
			c0.138-37.096,11.867-70.414,19.867-106.195c10.63-47.535,9.027-97.468,7.774-146.009
			c-1.894-73.452,28.821-119.862,72.115-175.187c47.783-61.067,90.114-143.319,117.845-215.703
			c11.122-29.035,9.165-59.304,21.089-88.343c17.739-43.167,48.01-80.489,52.984-128.424c5.873-56.626-3.122-123.611-5.679-181.16
			c-2.646-59.866-22.949-114.094-10.71-175.813c15.45-77.888,48.05-160.027,84.88-230.094
			C2837.761,1038.824,2941.983,927.618,3070.303,873.135z" style="stroke:black;fill:#82c7ae"/><path id="180608767" parent_id="180608757" order="5" structure_id="220" d="M3186.032,1910.795
			c32.753-77.525,45.17-163.213,66.008-244.346c4.636-18.076,30.335-115.267,30.335-115.267
			c-14.383-28.431-39.961-64.501-27.601-96.653c13.72-35.691,55.371-51.809,91.118-50.964
			c138.609,3.292,139.879,176.472,105.273,271.309c-41.943,114.947-131.912,202.972-207.522,295.37
			c-125.254,153.084-224.784,339.183-262.488,534.321c-4.117,21.336-12.821,208.752-59.165,175.605
			c-28.798-20.596-35.026-88.268-37.323-120.683c-3.22-45.511,9.472-96.632,25.941-139.054
			c18.096-46.591,55.21-91.034,85.593-130.349c55.039-71.224,140.033-251.942,141.982-255.789
			C3134.196,1994.367,3171.083,1946.158,3186.032,1910.795z M3562.353,2030.349c82.607-57.754,163.905-118.866,228.271-197.18
			c82.898-100.839,92.694-243.177,36.992-357.967c-42.501-87.576-97.233-161.215-161.802-233.753
			c-127.932-143.737-322.656-312.993-521.879-177.418c-109.108,74.253-169.511,221.958-177.446,350.957
			c-6.374,103.776,35.334,201.994,39.347,304.884c3.688,94.711-21.291,191.926-54.021,280.102
			c-33.336,89.784-121.954,150.464-175.513,227.127c-121.994,174.607-145.332,367.719-88.853,570.263
			c28.386,101.818,73.661,251.562,168.984,310.259c100.421,61.844,180.383-30.703,209.771-121.366
			c27.22-83.936,39.225-171.496,50.979-259.04c20.312-151.317,45.349-318.065,132.438-447.558
			c31.855-47.344,72.585-85.312,117.148-119.021C3429.058,2113.537,3498.844,2074.756,3562.353,2030.349z" style="stroke:black;fill:#82c7ae"/><path id="180608766" parent_id="180608757" order="6" structure_id="228" d="M2950.129,1877.573
			c-62.894,241.309-316.97,398.655-345.152,656.181c-11.479,104.905,16.995,209.531,42.687,310.865
			c28.466,112.367,120.895,255.861,215.134,324.491c177.601,129.334,224.776-191.444,254.893-287.581
			c20.442-65.266,39.662-133.993,50.817-201.244c11.802-71.13,18.111-140.8,40.98-209.818
			c34.25-103.421,88.513-202.866,178.708-267.068c0.315-0.227,0.639-0.453,0.954-0.68c81.402-57.553,178.619-93.07,254.076-159.465
			c42.137-37.075,75.012-84.234,119.729-119.639c81.378-64.436,152.58-140.302,165.103-247.856
			c14.269-122.479-58.526-206.688-108.923-309.065c-31.03-63.029-72.576-114.887-113.508-171.396
			c-67.958-93.832-141.87-151.052-250.145-192.439c-222.576-85.071-486.917,78.932-530.105,310.792
			c-13.485,72.388-8.866,157.52,5.994,229.455C2954.514,1655.172,2979.824,1763.645,2950.129,1877.573z M2967.003,1415.311
			c7.936-128.994,68.338-276.686,177.446-350.934c199.223-135.566,393.947,33.678,521.879,177.406
			c64.568,72.533,119.301,146.167,161.802,233.741c55.702,114.778,45.906,257.106-36.992,357.939
			c-64.366,78.309-145.664,139.417-228.271,197.171c-63.509,44.4-133.295,83.178-195.582,130.276
			c-44.563,33.707-85.293,71.672-117.148,119.013c-87.098,129.483-112.126,296.221-132.438,447.527
			c-11.754,87.539-23.759,175.093-50.979,259.023c-29.389,90.657-109.359,183.198-209.771,121.358
			c-95.323-58.693-140.599-208.428-168.984-310.238c-56.479-202.53-33.142-395.629,88.853-570.225
			c53.559-76.659,142.177-137.334,175.513-227.113c32.729-88.169,57.709-185.378,54.021-280.083
			C3002.337,1617.292,2960.629,1519.08,2967.003,1415.311z" style="stroke:black;fill:#9ad2bd"/><path id="180608765" parent_id="180608757" order="7" structure_id="236" d="M3387.682,2203.128
			c-90.188,64.206-144.458,163.658-178.708,267.086c-22.86,69.022-29.179,138.697-40.98,209.832
			c-11.155,67.256-30.367,135.988-50.817,201.258c-30.116,96.147-77.292,416.942-254.893,287.601
			c-94.239-68.636-186.668-212.139-215.134-324.513c-25.691-101.341-54.166-205.97-42.687-310.886
			c28.183-257.545,282.259-414.896,345.152-656.225c29.695-113.936,4.385-222.416-18.759-334.491
			c-14.86-71.939-19.479-157.077-5.994-229.469c43.188-231.876,307.529-395.89,530.105-310.813
			c108.274,41.39,182.187,98.615,250.145,192.452c40.932,56.513,82.478,108.375,113.508,171.404
			c50.396,102.388,123.191,186.604,108.923,309.09c-12.522,107.562-83.725,183.433-165.103,247.873
			c-44.717,35.408-77.592,82.569-119.729,119.643c-75.457,66.402-172.674,101.923-254.076,159.479
			C3388.32,2202.675,3387.997,2202.901,3387.682,2203.128z M3684.411,2056.753c36.548-37.992,71.865-77.267,109.408-106.623
			c88.885-69.517,168.588-150.161,176.03-269.063c9.351-149.295-45.858-201.06-113.816-327.943
			c-75.813-141.569-172.204-287.92-321.095-360.264c-145.534-70.706-334.661-44.929-473.772,33.296
			c-142.881,80.34-184.225,223.875-174.396,382.752c4.32,69.82,13.267,144.696,23.54,215.997
			c9.254,64.254,33.732,131.692,24.252,196.926c-16.64,114.397-112.385,223.358-170.19,319.991
			c-61.648,103.063-129.282,202.531-172.665,313.333c-65.903,168.289-4.069,363.01,64.674,519.881
			c56.309,128.493,272.923,393.831,412.391,208.153c37.793-50.316,59.73-118.813,75.189-179.12
			c18.451-71.924,31.653-147.738,38.877-221.672c18.298-187.076,50.259-346.758,173.005-494.536
			c47.096-56.707,108.769-90.942,175.407-115.166C3589.088,2151.663,3637.753,2105.254,3684.411,2056.753z" style="stroke:black;fill:#82c7ae"/><path id="180608764" parent_id="180608757" order="8" structure_id="244" d="M2688.781,1390.842
			c-12.239,61.718,8.064,115.946,10.71,175.813c2.557,57.549,11.552,124.533,5.679,181.16
			c-4.975,47.935-35.245,85.257-52.984,128.424c-11.924,29.039-9.967,59.308-21.089,88.343
			c-27.73,72.384-70.062,154.636-117.845,215.703c-43.294,55.324-74.009,101.734-72.115,175.187
			c1.253,48.541,2.855,98.474-7.774,146.009c-8,35.781-19.729,69.1-19.867,106.195c-0.259,68.78,13.315,152.528,31.378,218.902
			c28.151,103.445,85.666,194.332,132.082,289.955c25.554,52.631,34.962,112.315,66.55,162.038
			c31.581,49.723,98.196,97.803,149.426,125.244c69.592,37.282,162.958,70.778,240.776,41.266
			c59.86-22.697,98.309-88.056,134.524-137.265c86.442-117.472,137.606-245.046,174.146-384.802
			c27.698-105.945,1.06-211.388,48.722-313.325c35.107-75.061,89.727-111.44,150.388-164.092
			c37.736-32.748,67.934-69.451,112.053-94.441c45.825-25.949,73.798-70.41,113.549-104.776
			c45.179-39.053,80.86-82.96,124.551-123.51c47.492-44.072,97.37-87.619,131.936-143.137
			c89.5-143.74,144.199-351.185,105.29-518.015c-34.153-146.389-138.755-263.929-250.759-358.614
			c-62.741-53.043-131.225-103.312-202.038-145.135c-54.731-32.328-90.786-59.506-153.453-73.185
			c-59.351-12.955-119.114-27.336-178.878-36.125c-91.676-13.472-183.335-13.771-273.434,24.477
			c-128.319,54.483-232.542,165.689-296.642,287.613C2736.831,1230.815,2704.231,1312.954,2688.781,1390.842z M3061.68,1026.505
			c139.111-78.22,328.238-103.995,473.772-33.29c148.891,72.335,245.282,218.676,321.095,360.236
			c67.958,126.875,123.167,178.636,113.816,327.925c-7.442,118.891-87.146,199.529-176.03,269.042
			c-37.543,29.355-72.86,68.63-109.408,106.616c-46.658,48.497-95.323,94.903-153.162,115.934
			c-66.639,24.223-128.312,58.455-175.407,115.158c-122.746,147.769-154.707,307.439-173.005,494.504
			c-7.224,73.929-20.426,149.738-38.877,221.657c-15.459,60.303-37.396,128.796-75.189,179.108
			c-139.468,185.665-356.082-79.659-412.391-208.144c-68.743-156.856-130.577-351.565-64.683-519.843
			c43.392-110.798,111.025-210.256,172.674-313.313c57.806-96.626,153.551-205.58,170.19-319.969
			c9.48-65.229-14.998-132.663-24.252-196.913c-10.273-71.296-19.22-146.167-23.54-215.982
			C2877.455,1250.366,2918.799,1106.84,3061.68,1026.505z" style="stroke:black;fill:#9ad2bd"/><path id="180608769" parent_id="180608757" order="9" structure_id="1009" d="M4320.337,1777.836
			c-1.02-105.439-17.748-208.33-59.934-314.821c-5.373-13.562-11.178-26.87-17.327-39.976c1.891,4.49,3.729,9.009,5.493,13.57
			c38.562,99.72,39.5,221.847,26.039,340.811c-9.61,84.941-26.565,168.262-42.396,240.674
			c-16.203,74.127-40.357,150.345-75.408,217.887c-32.697,63.001-89.12,108.412-131.993,164.04
			c-46.035,59.74-88.885,124.241-127.341,189.135c-33.247,56.104-89.387,94.135-147.58,124.213
			c-67.869,35.078-144.354,100.497-175.934,171.971c-35.27,79.817-57.361,165.176-96.052,243.837
			c-46.255,94.029-95.235,190.243-164.221,269.87c-51.941,59.951-95.761,116.469-170.878,147.959
			c-54.796,22.973-128.223,44.518-188.236,41.079c-52.548-3.017-110.03-25.281-159.424-43.198
			c-195.655-70.977-321.459-225.229-432.217-392.939c-39.241-59.413-71.833-127.797-88.125-197.2
			c-64.415-274.51-14.835-589.949,67.901-854.756c49.676-158.992,138.488-302.344,137.299-473.073
			c-0.453-65.031,3.357-125.488,8.769-191.505c17.57-214.55,144.176-437.149,320.012-561.104
			c17.907-12.624,36.902-23.854,56.703-33.829c-59.312,25.657-114.953,57.915-162.802,96.149
			c-129.072,103.142-187.792,246.312-246.683,394.8c-38.562,97.221-78.134,193.45-112.837,292.167
			c-33.474,95.199-67.456,190.717-95.089,287.323c-44.41,155.254-68.767,312.819-114.495,467.891
			c-102.216,346.651-133.149,765.973,161.405,1032.426c120.215,108.747,259.528,169.516,404.689,236.209
			c154.563,71,304.133,68.355,466.678,24.267c157.369-42.682,298.915-136.412,426.313-237.369
			c176.791-140.097,311.421-297.624,400.208-508.418c41.158-97.701,57.475-203.42,96.425-300.858
			c58.688-146.854,129.913-289.754,171.791-441.955c19.876-72.177,36.992-139.267,46.595-214.267
			C4316.058,1903.433,4320.952,1840.186,4320.337,1777.836z" style="stroke:black;fill:#cccccc"/><path id="180608770" parent_id="180608757" order="10" structure_id="1009" d="M3138.697,2034.579
			c30.101-59.271,44.508-107.942,97.241-171.914c31.832-38.613,77.997-75.312,100.274-119.898
			c23.289-46.613,23.395-99.773,23.346-150.668c-0.016-21.609-1.771-59.102-25.853-69.727
			c-19.358-8.534-39.921,12.712-50.817,29.124c-14.383-28.428-39.961-64.497-27.601-96.646c13.72-35.688,55.371-51.805,91.118-50.96
			c138.609,3.292,139.879,176.464,105.273,271.29c-41.951,114.94-131.912,202.959-207.522,295.351
			c-125.254,153.075-224.784,339.161-262.488,534.286c-4.117,21.334-12.821,208.738-59.165,175.594
			c-28.798-20.594-35.026-88.262-37.323-120.675c-3.22-45.508,9.472-96.626,25.941-139.044
			c18.096-46.588,55.21-91.029,85.593-130.341C3051.754,2219.132,3136.748,2038.425,3138.697,2034.579z" style="stroke:black;fill:#cccccc"/><path id="180608768" parent_id="180608757" order="11" structure_id="98" d="M3138.697,2034.579
			c30.101-59.271,44.508-107.942,97.241-171.914c31.832-38.613,77.997-75.312,100.274-119.898
			c23.289-46.613,23.395-99.773,23.346-150.668c-0.016-21.609-1.771-59.102-25.853-69.727
			c-19.358-8.534-39.921,12.712-50.817,29.124c-14.383-28.428-14.896-28.744-0.514-0.313c0,0-25.699,97.19-30.335,115.267
			c-20.838,81.133-33.255,166.821-66.008,244.346c-14.949,35.363-51.836,83.572-47.849,123.501
			C3136.234,2038.144,3136.748,2038.425,3138.697,2034.579z" style="stroke:black;fill:#aaaaaa"/></g>
</g>
</svg>