<svg width="4672" height="4352" xmlns="http://www.w3.org/2000/svg">
<g transform="scale(1.0)">
<g id="180606973" order="1" parent_id="" graphic_group_label_id="28" graphic_group_label="Atlas - Adult Mouse" sub_image_id="100960484" transform=" scale(1.0, 1.0)"><path id="180606975" parent_id="180606973" order="0" structure_id="8" d="M4362.819,1913.454
			c27.16,138.646,29.473,282.496,4.636,403.738c-31.87,155.71-93.843,304.036-142.962,455.501
			c-54.674,168.594-70.021,351.446-132.078,517.859c-97.621,261.799-350.732,400.608-577.1,538.945
			c-175.983,107.542-425.674,136.769-618.26,63.391c-150.292-57.271-294.314-108.98-422.366-210.173
			c-313.751-247.943-310.779-671.267-231.325-1026.359c35.546-158.852,49.456-318.771,83.663-477.718
			c34.768-161.576,83.38-322.15,139.103-477.463c46.29-129.009,86.489-258.147,157.604-376.06
			c67.011-111.095,155.633-254.921,277.02-312.526c165.54-78.563,365.17-65.251,539.771-29.93
			C3906.191,1076.857,4271.421,1446.892,4362.819,1913.454z" style="stroke:black;fill:#bfdae3"/><path id="180606976" parent_id="180606973" order="1" structure_id="688" d="M4362.819,1913.454
			c-91.398-466.563-456.628-836.597-922.295-930.794c-174.601-35.321-374.23-48.633-539.771,29.93
			c-121.387,57.604-210.009,201.431-277.02,312.526c-71.115,117.912-111.314,247.051-157.604,376.06
			c-55.723,155.313-104.335,315.887-139.103,477.463c-34.207,158.947-48.117,318.866-83.663,477.718
			c-79.454,355.093-82.426,778.416,231.325,1026.359c128.052,101.192,272.074,152.902,422.366,210.173
			c192.586,73.378,442.276,44.151,618.26-63.391c226.367-138.337,479.479-277.146,577.1-538.945
			c62.057-166.413,77.404-349.266,132.078-517.859c49.119-151.465,111.092-299.791,142.962-455.501
			C4392.292,2195.95,4389.979,2052.101,4362.819,1913.454z M3401.186,1997.17c-22.573,69.964-75.213,128.063-116.429,187.58
			c-37.741,54.503-63.294,110.557-84.835,172.999c-3.041-18.098,5.841-36.03,13.243-52.182
			c14.575-31.71,24.705-63.442,31.526-97.897l-6.504,15.49c-1.646,4.038-3.326,8.053-5.054,12.035l5.054-12.035
			c26.117-64.118,42.365-134.876,64.986-200.262c12.076-34.927,14.674-159.901,76.672-150.228
			C3433.419,1881.024,3411.781,1964.34,3401.186,1997.17z" style="stroke:black;fill:#b0ffb8"/><path id="180606977" parent_id="180606973" order="2" structure_id="698" d="M4362.819,1913.454
			c-91.398-466.563-456.628-836.597-922.295-930.794c-174.601-35.321-374.23-48.633-539.771,29.93
			c-121.387,57.604-210.009,201.431-277.02,312.526c-71.115,117.912-111.314,247.051-157.604,376.06
			c-55.723,155.313-104.335,315.887-139.103,477.463c-34.207,158.947-48.117,318.866-83.663,477.718
			c-79.454,355.093-82.426,778.416,231.325,1026.359c128.052,101.192,272.074,152.902,422.366,210.173
			c192.586,73.378,442.276,44.151,618.26-63.391c226.367-138.337,479.479-277.146,577.1-538.945
			c62.057-166.413,77.404-349.266,132.078-517.859c49.119-151.465,111.092-299.791,142.962-455.501
			C4392.292,2195.95,4389.979,2052.101,4362.819,1913.454z M3401.186,1997.17c-22.573,69.964-75.213,128.063-116.429,187.58
			c-37.741,54.503-63.294,110.557-84.835,172.999c-3.041-18.098,5.841-36.03,13.243-52.182
			c14.575-31.71,24.705-63.442,31.526-97.897l-6.504,15.49c26.117-64.118,42.365-134.876,64.986-200.262
			c12.076-34.927,14.674-159.901,76.672-150.228C3433.419,1881.024,3411.781,1964.34,3401.186,1997.17z" style="stroke:black;fill:#9ad2bd"/><path id="180606978" parent_id="180606973" order="3" structure_id="507" d="M4362.819,1913.454
			c-91.398-466.563-456.628-836.597-922.295-930.794c-174.601-35.321-374.23-48.633-539.771,29.93
			c-121.387,57.604-210.009,201.431-277.02,312.526c-71.115,117.912-111.314,247.051-157.604,376.06
			c-55.723,155.313-104.335,315.887-139.103,477.463c-34.207,158.947-48.117,318.866-83.663,477.718
			c-79.454,355.093-82.426,778.416,231.325,1026.359c128.052,101.192,272.074,152.902,422.366,210.173
			c192.586,73.378,442.276,44.151,618.26-63.391c226.367-138.337,479.479-277.146,577.1-538.945
			c62.057-166.413,77.404-349.266,132.078-517.859c49.119-151.465,111.092-299.791,142.962-455.501
			C4392.292,2195.95,4389.979,2052.101,4362.819,1913.454z M3401.186,1997.17c-22.573,69.964-75.213,128.063-116.429,187.58
			c-37.741,54.503-63.294,110.557-84.835,172.999c-3.041-18.098,5.841-36.03,13.243-52.182
			c14.575-31.71,24.705-63.442,31.526-97.897l-6.504,15.49c-1.646,4.038-3.326,8.053-5.054,12.035l5.054-12.035
			c26.117-64.118,42.365-134.876,64.986-200.262c12.076-34.927,14.674-159.901,76.672-150.228
			C3433.419,1881.024,3411.781,1964.34,3401.186,1997.17z" style="stroke:black;fill:#9ad2bd"/><path id="180606979" parent_id="180606973" order="4" structure_id="212" d="
			M2900.754,1012.59c-124.546,59.109-204.431,175.664-229.117,308.635c-16.872,90.913-57.293,171.522-83.75,258.341
			c-31.567,103.567-60.006,201.708-73.371,309.126c-10.927,87.747-11.157,175.113-20.576,262.849
			c-20.469,190.63-59.768,379.674-108.916,565.361c-36.607,138.346-23.687,283.756,10.752,421.265
			c39.733,158.675,117.959,287.69,231.274,404.606c51.43,53.07,107.866,100.995,160.915,151.942
			c51.007,48.991,113.71,85.633,184.384,95.675c101.443,14.407,210.55-7.654,305.48-43.516
			c177.355-67.006,228.971-212.231,306.224-371.349c66.69-137.359,146.852-257.795,234.562-382.349
			c71.179-101.077,140.256-198.089,219.002-293.335c79.996-96.774,159.665-195.057,220.651-305.274
			c32.593-58.904,49.537-138.339,67.661-203.02c17.715-63.188,31.348-127.819,35.503-193.433
			c5.16-81.339-12.229-174.5-40.519-250.529c-95.03-255.411-265.733-477.732-501.041-617.998
			c-112.953-67.328-250.252-120.815-379.348-146.929C3265.924,947.339,3066.294,934.027,2900.754,1012.59z M3530.046,2859.2
			c-13.594,23.407-24.643,48.174-32.023,74.462c-9.884,35.191-2.264,68.497-3.494,103.952c-1.202,34.858-14.021,68.83-24.9,101.912
			c-25.318,77.013-71.447,144.356-111.501,214.099c-38.623,67.276-53.05,152.837-98.704,214.193
			c-43.923,59.032-101.324,108.815-178.896,107.038c-92.623-2.128-140.257-92.825-212.482-133.335
			c-80.785-45.303-157.103-114.966-207.398-192.802c-26.092-40.382-35.689-93.555-50.575-138.715
			c-22.548-68.39-81.529-136.819-75.931-211.051c6.695-88.712,1.789-179.124,4.038-268.797
			c1.584-62.919,10.361-158.16,47.677-211.297c32.478-46.265,76.229-63.111,83.103-128.198c3.845-36.351-1.261-76.527,9.163-111.854
			c8.412-28.543,24.787-58.737,35.521-87.062c22.593-59.625,22.938-138.369,26.909-201.483
			c3.644-57.983-14.329-112.089-8.142-169.941c6.609-61.799-12.562-123.832-4.497-186.14
			c8.829-68.193,43.446-112.439,64.714-174.219c24.61-71.493,54.612-129.8,95.678-191.605
			c49.701-74.812,43.528-202.104,153.959-223.751c69.671-13.661,140.381,2.895,210.111,2.751
			c115.248-0.242,235.035,15.434,341.919,60.171c78.019,32.654,152.684,75.289,218.685,128.346
			c55.108,44.3,110.241,117.788,147.522,177.541c24.829,39.791,21.911,83.784,36.55,126.269
			c14.777,42.866,58.319,60.74,86.028,93.45c28.966,34.203,45.089,88.106,59.114,130.291
			c23.026,69.267,26.545,144.014,20.707,216.31c-6.288,77.741-40.125,135.677-68.029,207.459c-6.623,17.041-7.795,37.87-14.16,54.99
			c-35.282,94.886-100.271,135.161-172.985,196.998c-56.346,47.919-74.944,113.775-126.56,162.24
			c-44.733,41.995-92.87,80.275-137.525,122.385C3601.33,2763.708,3559.646,2808.245,3530.046,2859.2z" style="stroke:black;fill:#82c7ae"/><path id="180606983" parent_id="180606973" order="5" structure_id="220" d="M3476.034,2416.924
			c-73.424,55.717-146.342,166.888-175.675,265.995c-32.99,111.453-18.035,238.724-58.271,346.363
			c-30.885,82.61-10.005,119.92-31.346,205.09c-42.701,170.452-164.069,195.43-254.262,101.748
			c-139.048-144.408-220.608-387.219-156.128-606.889c31.021-105.669,102.09-199.143,147.333-299.374
			c27.823-61.604,48.929-122.747,69.964-188.559c36.505-114.187,54.94-231.34,31.674-343.027
			c-10.806-51.91-45.259-92.258-46.435-148.643c-5.45-263.358,178.582-567.222,435.771-483.905
			c92.98,30.125,156.65,103.757,217.436,186.905c36.611,50.084,83.297,109.101,111.774,166.182
			c55.015,110.285,121.199,217.179,117.197,355.085c-4.125,142.294-98.688,207.771-189.552,293.626
			C3636.376,2323.396,3539.608,2368.685,3476.034,2416.924z M3244.699,2207.67c-6.827,34.456-16.953,66.183-31.526,97.902
			c-7.408,16.154-16.288,34.076-13.248,52.184c21.543-62.449,47.093-118.502,84.839-173.011
			c41.212-59.515,93.85-117.603,116.425-187.577c10.598-32.83,32.235-116.147-21.338-124.503
			c-62.001-9.668-64.597,115.305-76.668,150.228c-24.052,69.505-40.889,145.086-70.044,212.299" style="stroke:black;fill:#82c7ae"/><path id="180606982" parent_id="180606973" order="6" structure_id="228" d="
			M2936.727,3383.493c106.371,100.671,241.576,102.623,287.605-76.388c23.007-89.445,2.94-155.09,37.046-241.644
			c44.439-112.763,24.546-247.372,60.511-364.321c31.976-103.979,106.063-176.738,189.998-234.051
			c72.68-49.625,166.44-107.675,233.819-165.436c103.527-88.755,197.573-185.398,199.479-335.466
			c1.845-145.443-57.921-255.983-123.888-373.466c-34.14-60.817-68.744-129.055-112.163-182.644
			c-72.097-88.971-147.341-167.959-255.656-201.618c-299.618-93.112-506.673,223.811-495.036,501.833
			c2.511,59.518,24.177,99.196,37.744,154.193c29.201,118.333,29.271,245.172-10.711,364.943
			c-23.041,69.012-46.266,133.103-77.244,197.552c-50.384,104.853-130.83,202.058-164.636,312.939
			C2673.337,2970.419,2772.732,3228.295,2936.727,3383.493z M2800.343,2729.233c31.02-105.668,102.091-199.146,147.338-299.373
			c27.827-61.609,48.932-122.75,69.962-188.559c36.51-114.186,54.941-231.343,31.673-343.028
			c-10.799-51.911-45.26-92.264-46.435-148.641c-5.449-263.368,178.582-567.225,435.774-483.905
			c92.981,30.118,156.654,103.753,217.438,186.9c36.613,50.083,83.3,109.097,111.771,166.184
			c55.019,110.282,121.205,217.178,117.202,355.089c-4.124,142.292-98.688,207.773-189.558,293.627
			c-59.132,55.862-155.899,101.149-219.479,149.4c-73.425,55.715-146.339,166.885-175.677,265.995
			c-32.992,111.452-18.038,238.719-58.267,346.362c-30.886,82.611-10.01,119.918-31.35,205.085
			c-42.697,170.451-164.072,195.434-254.268,101.75C2817.425,3191.714,2735.869,2948.902,2800.343,2729.233z" style="stroke:black;fill:#9ad2bd"/><path id="180606981" parent_id="180606973" order="7" structure_id="236" d="M3511.893,2467.091
			c-83.935,57.313-158.025,130.07-190.001,234.048c-35.967,116.951-16.073,251.556-60.51,364.323
			c-34.108,86.554-14.041,152.195-37.043,241.641c-46.031,179.01-181.239,177.058-287.607,76.388
			c-163.99-155.194-263.386-413.075-193.13-643.57c33.803-110.881,114.254-208.088,164.636-312.942
			c30.981-64.442,54.202-128.534,77.24-197.553c39.98-119.764,39.912-246.608,10.716-364.937
			c-13.57-54.996-35.238-94.675-37.744-154.195c-11.636-278.018,195.419-594.948,495.032-501.833
			c108.318,33.662,183.557,112.649,255.65,201.62c43.424,53.59,78.026,121.831,112.165,182.64
			c65.966,117.487,125.734,228.025,123.887,373.472c-1.905,150.067-95.947,246.703-199.479,335.462
			C3678.327,2359.416,3584.57,2417.467,3511.893,2467.091z M3781.158,2307.114c112.434-88.994,214.313-186.167,214.101-339.291
			c-0.205-148.415-67.608-262.149-141.919-383.066c-38.461-62.587-59.467-129.35-108.024-184.715
			c-80.607-91.912-179.701-189.806-300.578-221.445c-306.599-80.254-555.022,228.968-537.953,512.883
			c3.66,60.788,28.086,101.617,43.85,157.954c33.914,121.212,53.996,254.072,11.895,375.689
			c-24.26,70.078-66.853,131.728-99.913,197.021c-53.778,106.236-113.61,209.326-149.052,321.956
			c-73.683,234.162,12.442,493.763,195.07,654.671c118.457,104.38,280.438,136.879,328.283-45.103
			c23.902-90.936,16.972-189.584,53.133-277.401c47.106-114.396,20.788-244.042,58.522-362.848
			c33.55-105.633,113.862-178.747,205.235-235.945C3632.925,2427.949,3707.99,2365.034,3781.158,2307.114z" style="stroke:black;fill:#82c7ae"/><path id="180606980" parent_id="180606973" order="8" structure_id="244" d="
			M2585.843,2518.861c-37.313,53.136-46.094,148.373-47.674,211.298c-2.247,89.678,2.654,180.085-4.038,268.796
			c-5.597,74.234,53.384,142.66,75.935,211.049c14.882,45.163,24.479,98.334,50.574,138.718
			c50.295,77.838,126.61,147.495,207.396,192.8c72.226,40.513,119.859,131.212,212.485,133.338
			c77.578,1.778,134.973-48.006,178.9-107.042c45.652-61.353,60.079-146.913,98.705-214.19
			c40.05-69.742,86.178-137.087,111.499-214.104c10.875-33.075,23.697-67.046,24.901-101.909c1.23-35.455-6.392-68.755,3.496-103.95
			c7.375-26.283,18.428-51.059,32.018-74.464c29.602-50.952,71.287-95.49,113.594-135.393
			c44.658-42.111,92.792-80.391,137.532-122.388c51.615-48.458,70.211-114.313,126.559-162.237
			c72.709-61.833,137.698-102.107,172.986-196.996c6.363-17.125,7.533-37.954,14.156-54.996
			c27.905-71.773,61.747-129.715,68.031-207.45c5.834-72.295,2.32-147.045-20.708-216.315
			c-14.021-42.18-30.147-96.086-59.111-130.289c-27.708-32.717-71.25-50.585-86.026-93.452
			c-14.646-42.483-11.721-86.478-36.557-126.264c-37.276-59.76-92.414-133.247-147.523-177.545
			c-65.998-53.053-140.666-95.692-218.681-128.348c-106.891-44.73-226.67-60.416-341.92-60.174
			c-69.731,0.15-140.447-16.408-210.113-2.746c-110.437,21.643-104.261,148.939-153.96,223.758
			c-41.069,61.798-71.068,120.102-95.683,191.6c-21.263,61.784-55.886,106.018-64.715,174.224
			c-8.062,62.304,11.111,124.338,4.501,186.133c-6.191,57.855,11.784,111.962,8.141,169.946
			c-3.975,63.106-4.316,141.859-26.908,201.481c-10.737,28.326-27.108,58.518-35.525,87.061
			c-10.424,35.332-5.315,75.498-9.162,111.852C2662.074,2455.751,2618.321,2472.594,2585.843,2518.861z M2713.554,2744.105
			c35.447-112.634,95.275-215.725,149.052-321.96c33.064-65.291,75.656-126.945,99.915-197.027
			c42.104-121.614,22.019-254.474-11.89-375.688c-15.77-56.332-40.194-97.159-43.849-157.95
			c-17.076-283.91,231.353-593.136,537.957-512.887c120.871,31.636,219.963,129.533,300.577,221.454
			c48.553,55.363,69.561,122.126,108.019,184.716c74.313,120.913,141.717,234.644,141.925,383.057
			c0.21,153.129-101.672,250.301-214.102,339.292c-73.17,57.923-148.237,120.84-227.353,170.365
			c-91.371,57.2-171.688,130.315-205.232,235.944c-37.738,118.808-11.42,248.446-58.527,362.854
			c-36.162,87.809-29.232,186.463-53.131,277.396c-47.846,181.978-209.829,149.479-328.284,45.105
			C2725.996,3237.862,2639.873,2978.26,2713.554,2744.105z" style="stroke:black;fill:#9ad2bd"/><path id="180606985" parent_id="180606973" order="9" structure_id="1009" d="
			M4362.818,1913.457c-2.734-13.962-5.722-27.834-8.943-41.619c7.121,42.646,10.119,85.918,7.558,126.282
			c-4.154,65.614-17.785,130.247-35.502,193.425c-18.126,64.685-35.068,144.122-67.667,203.028
			c-60.979,110.213-140.647,208.496-220.645,305.271c-78.747,95.246-147.824,192.259-219.005,293.334
			c-87.711,124.557-167.877,244.989-234.566,382.347c-77.253,159.119-128.864,304.347-306.22,371.35
			c-94.931,35.858-204.041,57.931-305.483,43.521c-70.68-10.041-133.378-46.691-184.385-95.678
			c-53.055-50.945-109.488-98.871-160.917-151.947c-113.32-116.914-191.542-245.933-231.275-404.604
			c-34.438-137.513-47.359-282.919-10.753-421.261c49.152-185.696,88.444-374.736,108.917-565.364
			c9.419-87.742,9.646-175.104,20.578-262.851c13.361-107.415,41.801-205.557,73.368-309.123
			c26.46-86.819,66.876-167.432,83.755-258.345c11.701-63.036,35.817-122.377,71.207-173.664
			c-46.136,57.359-85.369,121.609-119.116,177.561c-71.109,117.911-111.313,247.047-157.6,376.052
			c-55.732,155.323-104.337,315.887-139.107,477.462c-34.209,158.946-48.117,318.866-83.662,477.719
			c-79.459,355.095-82.427,778.423,231.323,1026.359c128.058,101.192,272.081,152.907,422.367,210.18
			c192.588,73.377,442.279,44.152,618.266-63.395c226.368-138.336,479.483-277.147,577.102-538.945
			c62.061-166.413,77.407-349.27,132.078-517.863c49.123-151.466,111.097-299.79,142.967-455.494
			C4392.295,2195.946,4389.979,2052.104,4362.818,1913.457z" style="stroke:black;fill:#cccccc"/><path id="180606984" parent_id="180606973" order="10" structure_id="98" d="M3244.691,2207.67
			c-6.821,34.455-16.951,66.188-31.526,97.897c-7.402,16.151-16.284,34.084-13.243,52.182
			c21.541-62.442,47.094-118.496,84.835-172.999c41.216-59.517,93.855-117.615,116.429-187.58
			c10.596-32.831,32.233-116.146-21.34-124.5c-61.998-9.673-64.596,115.3-76.672,150.228
			c-24.046,69.504-40.887,145.081-70.04,212.297" style="stroke:black;fill:#aaaaaa"/></g>
</g>
</svg>