<?xml version="1.0" encoding="utf-8"?>
<!-- Generator: Adobe Illustrator 16.0.0, SVG Export Plug-In . SVG Version: 6.00 Build 0)  -->
<!DOCTYPE svg PUBLIC "-//W3C//DTD SVG 1.1//EN" "http://www.w3.org/Graphics/SVG/1.1/DTD/svg11.dtd">
<svg version="1.1" id="Layer_1" xmlns="http://www.w3.org/2000/svg" xmlns:xlink="http://www.w3.org/1999/xlink" x="0px" y="0px"
	 width="9744.011px" height="6823.461px" viewBox="0 0 9744.011 6823.461" enable-background="new 0 0 9744.011 6823.461"
	 xml:space="preserve">
<g transform="scale(1.0)">
	<g id="_x31_80609911" transform=" scale(1.0, 1.0)">
		<path id="_x31_80609913" fill="none" stroke="#000000" stroke-width="80" d="M5867.079,3240.788
			c8.062-2.138-68.559,24.368-162.344,21.953c-73.042-1.879-160.305-8.189-250.931-19.575
			c-73.335-9.22-156.151-34.274-223.23-58.546c-14.046-5.084-29.771-12.979-42.812-18.361
			c-39.126-16.141-71.28-37.436-100.776-60.891c-61.91-49.246-99.785-99.646-111.773-177.826
			c-27.264-177.812-37.159-394.486,0.861-650.551c47.061-316.989,89.714-606.047,359.407-701.016
			c162.201-57.117,343.736-90.775,571.302-42.638c477.156,100.938,1034.096,436.206,1179.317,789.734
			c107.331,261.287,81.318,654.469-1.626,909.159c-61.236,188.015-223.812,466.104-395.176,587.361
			c-89.5,63.334-192.73-65.701-297.665-172.354c-54.045-54.938-101.729-91.537-130.786-117.979
			c-29.055-26.438-39.485-42.72-49.412-44.382c-16.782-2.812,172.182,139.189,312.613,330.227
			c65.297,88.824,99.315,195.164,110.719,279.774c39.461,292.894-108.99,690.627-289.609,906.823
			c-254.671,304.828-567.326,449.096-1025.911,333.189c-179.527-45.372-343.569-151.779-399.671-364.229
			c-104.68-396.477-27.299-1151.015,150.268-1420.899c185.244-281.551,490.523,5.412,718.012-206.104
			C5787.854,3343.665,5852.187,3244.715,5867.079,3240.788z"/>
		<path id="_x31_80609914" fill="none" stroke="#000000" stroke-width="80" d="M7086.099,2323.063
			c-145.219-353.528-702.16-688.789-1179.318-789.724c-227.564-48.14-409.098-14.479-571.304,42.64
			c-269.688,94.967-312.345,384.021-359.402,701.009c-38.009,256.06-28.122,472.733-0.858,650.544
			c11.992,78.181,49.867,128.576,111.77,177.822c29.496,23.452,61.656,44.75,100.785,60.892
			c13.037,5.383,28.964,16.028,43.016,21.111c67.07,24.271,149.691,46.573,223.024,55.793
			c90.628,11.385,177.886,17.694,250.93,19.575c80.393,2.07,149.665-17.541,162.737-21.844c0.603-0.333,1.158-0.576,1.652-0.707
			c1.148-0.305,0.524-0.01-1.652,0.707c-17.581,9.727-79.617,102.764-79.617,102.764
			c-227.487,211.517-532.767-75.44-718.012,206.105c-177.572,269.883-254.946,1024.416-150.264,1420.883
			c56.104,212.449,220.143,318.855,399.674,364.228c458.582,115.899,771.242-28.365,1025.91-333.188
			c180.619-216.193,329.072-613.929,289.607-906.818c-11.406-84.604-45.424-190.948-110.726-279.77
			c-140.431-191.032-329.394-333.032-312.616-330.226c9.934,1.662,20.364,17.945,49.422,44.387
			c29.058,26.438,76.74,63.035,130.786,117.972c104.935,106.649,208.159,235.688,297.663,172.354
			c171.367-121.262,333.94-399.344,395.174-587.361C7167.425,2977.522,7193.434,2584.347,7086.099,2323.063z M5623.671,4411.045
			c-15.951-0.588-75.672-90.071-42.271-126.821c60.859-66.968,192.596-121.729,200.23-54.229
			C5788.077,4287.079,5676.532,4408.994,5623.671,4411.045z"/>
		<path id="_x31_80609943" fill="none" stroke="#000000" stroke-width="80" d="M6983.714,2848.923l169.742,5.171
			c-8.83,137.209-33.807,270.086-68.96,378.089c-12.585,38.736-29.532,81.3-49.974,125.562l-3.063-1.522l-109.698-105.114
			c6.737-17.192,12.684-34.581,17.826-51.916C6970.289,3095.177,6985.497,2972.404,6983.714,2848.923z"/>
		<path id="_x31_80609942" fill="none" stroke="#000000" stroke-width="80" d="M6983.714,2848.923
			c1.783,123.48-13.424,246.253-44.128,350.266c-5.145,17.336-11.088,34.724-17.825,51.916l-228.524-218.951
			c16.567-68.903,22.811-132.542,20.185-191.521L6983.714,2848.923z"/>
		<path id="_x31_80609941" fill="none" stroke="#000000" stroke-width="80" d="M6713.423,2840.631
			c2.624,58.979-3.621,122.618-20.186,191.521l-202.688-194.164l-0.498-4.171L6713.423,2840.631z"/>
		<path id="_x31_80609940" fill="none" stroke="#000000" stroke-width="80" d="M7086.068,2323.07
			c61.82,150.44,79.408,344.684,67.388,531.024l-169.742-5.172c-2.166-152.147-30.02-305.324-86.231-425.743
			c-98.651-211.263-310.832-398.718-507.778-512.857c-89.152-51.618-180.582-92.606-275.082-132.631
			c-106.311-45.024-225.134-58.205-339.854-74.472c-146.124-20.745-293.249-5.067-426.854,80.373
			c-4.244,2.668-8.416,5.505-12.507,8.344l-110.045-158.279c31.798-23.496,68.247-42.916,110.13-57.652
			c162.199-57.146,343.729-90.824,571.283-42.664C6383.929,1634.294,6940.896,1969.571,7086.068,2323.07z"/>
		<path id="_x31_80609939" fill="none" stroke="#000000" stroke-width="80" d="M6897.48,2423.181
			c56.21,120.418,84.065,273.596,86.231,425.743l-270.293-8.292c-14.316-337.137-313.092-524.707-586.967-706.792
			c-85.148-56.538-272.984-140.36-372.637-160.392c-70.773-14.232-190.566-8.264-271.057,30.549l-147.354-212.061
			c4.091-2.838,8.265-5.676,12.507-8.343c133.604-85.439,280.729-101.118,426.854-80.373
			c114.72,16.267,233.542,29.446,339.853,74.472c94.5,40.021,185.934,81.012,275.082,132.631
			C6586.647,2024.463,6798.831,2211.917,6897.48,2423.181z"/>
		<path id="_x31_80609938" fill="none" stroke="#000000" stroke-width="80" d="M6126.45,2133.839
			c273.877,182.085,572.654,369.656,586.969,706.792l-223.369-6.812l-89.158-86.584l-109.311-102.44l-96.1-75.13l-116.327-77.036
			l-102.835-55.61l-129.671-62.911l-130.093-50.469l-11.967-0.441l-221.828-319.201c80.488-38.812,200.282-44.781,271.056-30.549
			C5853.472,1993.478,6041.302,2077.302,6126.45,2133.839z"/>
		<path id="_x31_80609958" fill="none" stroke="#000000" stroke-width="80" d="M5225.361,1633.657l110.043,158.279
			c-91.487,63.82-163.522,173.371-186.175,284.906c-4.041,20.116-7.055,40.603-9.277,61.2l-134.544-44.071l-0.239-0.01
			C5040.374,1900.086,5092.77,1731.593,5225.361,1633.657z"/>
		<path id="_x31_80609957" fill="none" stroke="#000000" stroke-width="80" d="M5335.404,1791.937l147.354,212.06
			c-22.497,10.799-41.887,24.203-56.26,40.45c-22.846,25.734-46.974,89.13-66.994,165.63l-219.549-72.033
			c2.221-20.599,5.232-41.084,9.275-61.2C5171.882,1965.308,5243.917,1855.757,5335.404,1791.937z"/>
		<path id="_x31_80609956" fill="none" stroke="#000000" stroke-width="80" d="M5482.761,2003.995l221.833,319.197l-345.091-113.117
			c20.021-76.5,44.15-139.895,66.996-165.63C5440.874,2028.199,5460.264,2014.794,5482.761,2003.995z"/>
		<path id="_x31_80609949" fill="none" stroke="#000000" stroke-width="80" d="M5877.386,3230.67l-67.894-356.718
			c23.335-0.22,45.385-0.238,64.337-0.787c79.239-2.146,147.972,29.783,202.005,89.909
			c114.907,128.062,281.591,321.481,382.094,461.97c38.204,53.396,78.596,84.783,119.181,98.735l38.745,307.142l-0.294,1.566
			c-73.912-18.253-155.203-113.021-223.919-185.313c-46.815-49.146-101.077-88.436-150.806-134.2
			c-13.323-12.283-29.064-21.5-34.656-35.576c-20.975-52.68-33.062-101.129-38.615-111.715
			c-33.74-64.777-74.712-128.409-137.045-144.158c-37.467-9.437-99.073-13.697-132.164,3.271c-6.34,3.254-12.994,6.25-19.795,8.905
			L5877.386,3230.67z"/>
		<path id="_x31_80609948" fill="none" stroke="#000000" stroke-width="80" d="M6524.585,3107.417l52.521,416.363
			c-40.584-13.952-80.977-45.34-119.18-98.736c-100.502-140.486-267.186-333.906-382.093-461.969
			c-54.032-60.127-122.765-92.059-202.005-89.909c-18.952,0.548-41,0.566-64.337,0.787l-65.261-342.501
			c7.205-2.809,13.836-5.139,20.041-6.735c135.818-35.527,241.342,42.023,356.824,125.093
			c30.879,22.232,119.968,146.021,220.67,266.583C6406.089,2993.342,6469.395,3065.021,6524.585,3107.417z"/>
		<path id="_x31_80609947" fill="none" stroke="#000000" stroke-width="80" d="M5716.562,2323.635l130.092,50.47l129.671,62.91
			l102.836,55.611l116.325,77.037l96.1,75.129l109.311,102.44l89.158,86.584l-3.988-0.146l4.486,4.317l34.039,269.429
			c-55.193-42.396-118.498-114.075-182.819-191.024c-100.703-120.562-189.793-244.352-220.671-266.582
			c-115.482-83.068-221.006-160.622-356.824-125.094c-6.205,1.6-12.836,3.93-20.042,6.736l-39.638-208.26L5716.562,2323.635z"/>
		<path id="_x31_80609955" fill="none" stroke="#000000" stroke-width="80" d="M5005.41,2093.972l134.544,44.071
			c-9.748,89.171-6.436,181.896-25.844,270.877c-15.923,73.413-31.502,136.79-26.178,212.646
			c2.256,32.225,5.471,69.135,10.951,107.623l-134.158,89.987l-3.129,0.384c-15.713-155.472-16.186-336.209,14.488-542.543
			c9.32-62.526,18.364-123.984,29.084-183.056L5005.41,2093.972z"/>
		<path id="_x31_80609954" fill="none" stroke="#000000" stroke-width="80" d="M5139.954,2138.042l219.55,72.033
			c-32.775,124.949-54.763,284.929-42.745,373.073l-217.873,146.038c-5.479-38.488-8.695-75.397-10.953-107.623
			c-5.324-75.854,10.255-139.231,26.18-212.646C5133.517,2319.938,5130.206,2227.213,5139.954,2138.042z"/>
		<path id="_x31_80609953" fill="none" stroke="#000000" stroke-width="80" d="M5704.594,2323.194l-387.836,259.956
			c-12.017-88.146,9.97-248.124,42.745-373.072L5704.594,2323.194z"/>
		<path id="_x31_80609952" fill="none" stroke="#000000" stroke-width="80" d="M5877.386,3230.67l1.176,3.032
			c-118.025,47.895-303.48,23.209-424.758,9.441c-120.243-13.646-264.332-54.25-375.799-144.896
			c-53.793-43.756-92.043-100.394-102.749-170.718c-5.297-34.496-9.982-70.463-13.657-107.973l3.129-0.383l134.16-89.988
			c17.104,119.312,56.578,252.65,159.471,299.545c127.514,58.181,262.776-89.986,373.719-133.988
			c45.43-18.01,115.887-20.232,177.417-20.791L5877.386,3230.67z"/>
		<path id="_x31_80609951" fill="none" stroke="#000000" stroke-width="80" d="M5744.231,2531.453l65.261,342.502
			c-61.53,0.558-131.987,2.78-177.417,20.791c-110.942,44.002-246.205,192.168-373.717,133.987
			c-102.895-46.894-142.369-180.232-159.473-299.544l217.873-146.039c2.861,21.532,7.863,38.826,15.145,50.224
			C5410.252,2755.853,5632.954,2575.857,5744.231,2531.453z"/>
		<path id="_x31_80609950" fill="none" stroke="#000000" stroke-width="80" d="M5704.594,2323.194l39.638,208.259
			c-111.277,44.405-333.981,224.399-412.33,101.921c-7.279-11.396-12.284-28.689-15.144-50.224L5704.594,2323.194z"/>
		<path id="_x31_80609946" fill="none" stroke="#000000" stroke-width="80" d="M7031.456,3356.22l3.064,1.523
			c-78.662,170.434-209.137,365.616-345.186,461.848c-23.164,16.34-48.029,19.244-73.775,12.896l0.295-1.566l-38.746-307.141
			c138.095,47.689,278.709-105.098,344.65-272.677L7031.456,3356.22z"/>
		<path id="_x31_80609945" fill="none" stroke="#000000" stroke-width="80" d="M6693.234,3032.153l228.523,218.952
			c-65.944,167.579-206.557,320.366-344.651,272.676l-52.521-416.363c72.086,55.477,130.295,61.024,158.467-36.688
			C6686.856,3057.663,6690.247,3044.833,6693.234,3032.153z"/>
		<path id="_x31_80609944" fill="none" stroke="#000000" stroke-width="80" d="M6490.55,2837.99l202.688,194.164
			c-2.988,12.68-6.381,25.511-10.182,38.576c-28.174,97.711-86.383,92.163-158.467,36.688L6490.55,2837.99z"/>
		<path id="_x31_80609915" fill="none" stroke="#000000" stroke-width="80" d="M6634.775,4094.851
			c-11.405-84.604-45.423-190.947-110.724-279.768c-135.896-184.865-317.238-323.811-313.604-330.045
			c-1.738-2.404-3.191-4.934-4.27-7.641c-20.975-52.681-33.062-101.129-38.615-111.716
			c-33.742-64.776-74.712-128.409-137.045-144.157c-37.466-9.437-99.072-13.697-132.162,3.271
			c-6.344,3.254-12.994,6.25-19.795,8.905l-0.239-0.614l-9.958,7.356c0.266-0.114,0.523-0.207,0.764-0.271
			c1.046-0.275,0.609-0.054-1.109,0.525l-5.975,4.414c-22.322,20.756-74.184,98.531-74.184,98.531
			c-227.487,211.517-532.769-75.441-718.014,206.104c-177.572,269.883-254.944,1024.416-150.262,1420.883
			c56.102,212.448,220.141,318.856,399.672,364.228c458.582,115.899,771.242-28.365,1025.91-333.189
			C6525.788,4785.478,6674.239,4387.744,6634.775,4094.851z M5623.671,4411.045c-15.951-0.588-75.672-90.071-42.271-126.821
			c60.859-66.968,192.596-121.729,200.23-54.229C5788.077,4287.079,5676.532,4408.994,5623.671,4411.045z"/>
		<path id="_x31_80609916" fill="none" stroke="#000000" stroke-width="80" d="M5616.024,3471.882
			c-51.77,66.124-99.468,141.789-129.532,221.287c-52.938,139.947-0.609,397.581,63.371,578.812
			c41.304,117.026,26.624,208.594,55.276,331.479c33.004,141.551,26.602,291.295,55.301,436.209
			c6.214,31.359,28.34,165.42,70.457,249.449c25.029,49.918,76.998,65.131,76.998,65.131
			c-80.663,16.787-152.125,22.664-230.348,19.888c-75.229-2.662-156.702-13.144-258.289-39.274
			c-179.343-46.136-343.568-151.777-399.672-364.228c-104.685-396.467-27.312-1151,150.262-1420.883
			c151.602-230.402,383.578-80.078,587.527-133.798C5657.376,3415.954,5626.542,3458.449,5616.024,3471.882z"/>
		<path id="_x31_80609917" fill="none" stroke="#000000" stroke-width="80" d="M5184.052,3444.685
			c-42.988,102.043-94.361,200.609-125.467,307.617c-50.062,172.267-38.234,348.854-40.184,526.445
			c-1.066,96.773-9.369,194.098-6.386,290.854c2.269,73.922,25.401,140.168,49.282,209.076
			c38.694,111.633,71.728,225.619,113.291,336.138c15.661,41.666,37.313,102.78,73.885,129.86
			c40.691,30.129,92.834,39.486,132.675,74.224c14.743,12.854,14.189,24.467-3.298,28.674
			c-27.594,6.638-79.736-22.08-106.985-30.162c-40.354-11.981-80.739-25.365-117.626-46.549
			c-64.531-37.047-121.75-86.983-165.441-148.949c-31.661-44.903-54.047-97.631-68.211-151.276
			c-104.684-396.467-27.312-1151,150.262-1420.883C5100.933,3502.508,5138.388,3474.902,5184.052,3444.685z"/>
		<path id="_x31_80609921" fill="none" stroke="#000000" stroke-width="80" d="M5616.024,3471.882
			c-51.77,66.124-99.468,141.789-129.532,221.287c-52.938,139.947-0.609,397.581,63.371,578.812
			c41.304,117.026,26.624,208.594,55.276,331.479c15.305,65.644,23.155,134.951,28.879,202.139
			c5.254,61.564,6.993,123.728,17.113,184.73c9.582,57.703,21.953,112.963,31.498,171.055c4.036,24.535,16.06,39.732-3.681,59.66
			c-32.645,32.943-89.263,16.381-126.746,2.926c-43.769-15.707-77.973-65.483-97.861-105.975
			c-45.874-93.33-89.185-188.977-115.7-290.33c-28.543-109.123-46.264-220.646-66.55-331.605
			c-27.802-152.082-49.867-306.914-51.253-462.016c-1.325-145.806,33.531-281.037,100.215-409.15
			c19.32-37.111,37.221-79.535,66.217-109.488c30.289-31.287,65.91-48.921,102.377-70.353
			c35.778-21.028,67.127-15.121,107.404-18.237c10.791-0.834,53.508-1.467,60.33-10.86
			C5657.376,3415.962,5626.542,3458.449,5616.024,3471.882z"/>
		<path id="_x31_80609920" fill="none" stroke="#000000" stroke-width="80" d="M5529.416,5212.356
			c-32.89-21.801-58.784-61.194-75.075-94.36c-45.875-93.33-89.186-188.976-115.699-290.33
			c-28.545-109.123-46.266-220.646-66.552-331.604c-27.8-152.082-49.866-306.914-51.251-462.017
			c-1.326-145.805,33.529-281.037,100.215-409.149c16.262-31.24,31.52-66.246,53.236-94.406c1.969-2.553,1.357-8.889-2.476-9.352
			c-4.112-0.496-11.546,4.979-11.546,4.979c-21.611,18.146-42.82,37.076-57.271,59.711c-23.793,37.24-31.217,73.492-47.185,113.976
			c-11.874,30.116-27.841,58.335-37.954,89.229c-59.898,182.974-13.408,381.397,0.742,567.224
			c7.344,96.491,25.455,188.972,42.202,283.461c2.518,14.213,5.013,28.463,7.423,42.789c10.15,60.121,30.765,115.013,50.639,172.045
			c19.793,56.813,31.591,114.655,58.115,169.017c29.734,60.94,59.082,114.619,101.682,167.114
			c5.699,7.021,15.229,16.451,22.754,26.563c3.764,5.056,19.618,13.385,26.586,11.5
			C5534.966,5226.861,5533.048,5214.765,5529.416,5212.356z"/>
		<path id="_x31_80609919" fill="none" stroke="#000000" stroke-width="80" d="M5260.802,4639.712
			c-16.747-94.488-34.858-186.969-42.203-283.46c-14.15-185.825-60.641-384.251-0.742-567.224
			c10.112-30.896,26.08-59.113,37.954-89.229c15.968-40.481,23.388-76.733,47.185-113.977
			c24.387-38.196,68.025-65.854,100.348-96.966c8.568-8.235,19.64-16.309,17.207-29.643c-16.068,0.138-30.959,12.441-44.291,20.843
			c-42.405,26.721-73.645,49.869-102.379,91.688c-40.82,59.418-61.482,127.41-81.377,196.599
			c-15.203,52.849-27.623,107.149-33.01,162.073c-11.812,120.401,0.872,236.177,15.969,355.181
			c14.928,117.627,26.67,235.748,46.256,352.686c11.08,66.227,24.668,132.066,42.693,196.643
			c19.787,70.817,39.357,154.275,73.646,219.066c29.281,55.35,58.412,115.98,105.774,157.857
			c16.458,14.549,45.945,34.793,68.329,36.027c4.615-19.475-22.104-43.166-33.502-57.204
			c-42.6-52.495-71.945-106.174-101.682-167.112c-26.524-54.359-38.32-112.205-58.115-169.018
			c-19.873-57.033-40.487-111.924-50.639-172.046C5265.813,4668.175,5263.318,4653.925,5260.802,4639.712z"/>
		<path id="_x31_80609918" fill="none" stroke="#000000" stroke-width="80" d="M5179.136,3456.253
			c-41.936,97.945-90.624,193.09-120.553,296.049c-50.062,172.267-38.234,348.855-40.184,526.446
			c-1.068,96.773-9.371,194.097-6.386,290.853c2.268,73.923,25.4,140.168,49.28,209.076
			c38.695,111.633,71.728,225.619,113.291,336.138c15.662,41.666,37.314,102.78,73.887,129.86
			c40.69,30.129,165.616,62.123,165.616,62.123s67.843,13.467,79.386,1.467s-33.187-81.862-49.646-96.412
			c-47.362-41.877-76.49-102.51-105.774-157.856c-34.289-64.791-53.859-148.25-73.646-219.065
			c-18.026-64.576-31.614-130.418-42.693-196.644c-19.585-116.938-31.327-235.06-46.257-352.687
			c-15.095-119.004-27.779-234.777-15.969-355.181c5.389-54.923,17.808-109.227,33.01-162.073
			c19.898-69.188,40.557-137.181,81.377-196.598c17.982-26.176,36.947-45.035,59.018-62.035
			c6.201-4.776,52.846-57.448-12.562-73.448c-29.952-7.326-85.461-0.128-115.567,4.75
			C5192.196,3443.052,5180.785,3452.402,5179.136,3456.253z"/>
		<path id="_x31_80609922" fill="none" stroke="#000000" stroke-width="80" d="M5649.689,4773.636
			c12.139,66.865,13.245,85.787,24.51,152.814c6.394,38.057,15.157,77.541,22.656,115.377
			c9.894,49.986,41.542,285.078,154.963,293.27c87.392,6.306,181.245-58.942,288.222-135.768
			c92.131-66.166,167.225-152.299,205.125-197.66c180.62-216.191,329.074-613.928,289.607-906.818
			c-11.405-84.604-45.424-190.947-110.725-279.768c-33.696-45.85-82.463-102.175-136.251-157.627
			c-35.854-36.957-72.849-74.672-109.932-108.854c-46.256-42.644-43.37-46.927-96.948-82.519
			c-135.891-90.263-411.078-140.039-522.154,1.827c-51.769,66.124-104.066,142.968-137.514,220.99
			c-77.537,180.834,0.38,451.612,42.959,565.484c29.704-22.347,95.178-69.221,148.508-91.744
			c39.901-16.853,80.716-29.186,118.062-34.354c39.856-5.523,122.919-19.646,134.06,38.765
			c8.477,44.409-33.22,95.754-56.851,129.152c-65.46,92.54-129.437,185.011-209.087,265.263
			c-30.383,30.606-47.457,71.288-46.49,115.442c0.174,7.599,5.676,98.429-4.443,97.602L5649.689,4773.636z"/>
		<path id="_x31_80609927" fill="none" stroke="#000000" stroke-width="80" d="M5833.038,4121.847
			c-14.868-36.526-51.225-55.847-72.124-87.934c-1.022-1.568-1.96-3.205-2.933-4.809c-8.408-13.843-16.155-28.021-22.771-42.888
			c-7.02-15.776-13.133-32.01-18.646-48.418c-5.587-16.639-10.358-33.549-14.368-50.669c-3.871-16.521-7.246-33.199-9.811-49.996
			c-1.203-7.884-2.184-15.802-2.908-23.748c-0.35-3.839-0.644-7.686-0.902-11.531c-0.127-1.902-0.246-3.808-0.36-5.711
			c-0.062-1.029-0.882-4.916-0.335-5.695c1.58-2.251,5.189-2.374,7.586-2.69c6.272-0.831,12.371-2.446,18.617-3.412
			c12.592-1.948,25.195-3.653,37.817-5.374c12.649-1.725,25.386-2.938,38.083-4.208c12.59-1.261,25.175-2.573,37.76-3.866
			c12.323-1.268,24.641-2.627,36.926-4.25c1.488-0.197,2.975-0.396,4.463-0.599c55.232-7.534,111.99-3.873,166.336,8.47
			c28.15,6.394,55.889,15.375,82.6,26.589c17.901,7.516,74.165,26.547,51.496,56.983
			c-56.009,104.499-137.568,195.001-213.344,282.822l-3.826,1.062c-26.227-27.311-83.908-18.996-117.395-14.276L5833.038,4121.847z"
			/>
		<path id="_x31_80609923" fill="none" stroke="#000000" stroke-width="80" d="M5967.513,3672.776
			c53.204,9.154,124.625,12.441,174.484,36.88c36.713,17.985,132.562,100.517,172.645,93.083
			c79.002-15.153-83.117-112.042-97.722-121.209c-80.062-50.254-188.776-156.946-289.905-91.737
			C5863.64,3630.668,5927.345,3665.862,5967.513,3672.776z"/>
		<path id="_x31_80609924" fill="none" stroke="#000000" stroke-width="80" d="M5653.96,4742.277
			c-0.354,17.092-3.753,33.976-0.789,50.785c2.673,15.168,5.107,30.39,7.446,45.619c4.499,29.267,8.676,58.574,13.584,87.771
			c3.683,21.918,8.152,44.31,12.711,66.586l4.544,1.869c50.903,36.849,235.088,183.472,245.207,17.195
			c3.145-51.686-43.053-78.453-77.314-103.662c-19.365-14.25-37.978-29.65-55.086-46.766
			c-45.01-45.023-97.488-79.465-147.525-117.894L5653.96,4742.277z"/>
		<path id="_x31_80609926" fill="none" stroke="#000000" stroke-width="80" d="M5956.216,4140.913
			c75.768-87.812,157.315-178.305,213.326-282.789c13.52-25.22,28.782-13.879,47.288,0.534c19.565,15.237,37.779,32.63,54.03,51.614
			c33.645,39.312,58.225,86.559,70.754,137.578c44.291,180.354-52.074,329.893-162.683,457.957
			c-27.726,32.102-54.647,64.888-80.758,98.455c-11.343,14.584-25.649,34-37.222,48.936c-10.421,13.447-24.451-2.47-36.055-12.83
			c-33-29.461-58.953-64.761-95.476-90.932c-35.599-25.496-87.446-79.189-129.905-88.313l-11.183-1.395
			c41.809-52.745,80.466-108.122,119.655-163.522c23.631-33.397,65.328-84.742,56.852-129.152
			c-2.02-10.577-6.395-18.776-12.447-25.08L5956.216,4140.913z"/>
		<path id="_x31_80609928" fill="none" stroke="#000000" stroke-width="80" d="M5833.038,4121.847
			c-14.868-36.526-51.225-55.847-72.124-87.934c-41.011-62.955-67.744-161.639-72.648-235.073c-0.331-1.895-0.069-6.269-1.167-7.711
			c-1.346-1.771-5.996,0.761-7.623,1.229c-3.844,1.105-7.805,1.663-11.686,2.602c-4.689,1.131-9.361,2.329-14.008,3.643
			c-8.656,2.445-17.213,5.293-25.566,8.699c-8.211,3.348-16.217,7.229-23.963,11.612c-7.697,4.356-15.139,9.199-22.305,14.449
			c-7.179,5.263-14.086,10.935-20.639,17.019c-6.64,6.17-12.916,12.777-18.646,19.871c-5.974,7.397-11.329,15.325-15.96,23.699
			c-5.027,9.088-9.186,18.667-12.661,28.501c-3.837,10.847-6.857,21.986-9.478,33.213c-2.766,11.854-5.932,24.093-7.484,36.188
			l-0.091,0.021c14.864,106.417,45.597,204.696,67.218,262.521c29.705-22.348,95.178-69.221,148.508-91.745
			c39.9-16.853,120.827-34.742,122.28-34.947L5833.038,4121.847z"/>
		<path id="_x31_80609925" fill="none" stroke="#000000" stroke-width="80" d="M5788.287,4459.729
			c-28.007,35.045-57.427,68.917-89.37,100.838c-30.363,30.334-47.422,70.66-46.443,114.437c0.105,4.496,2.115,38.384,1.571,64.804
			l2.776,1.494c50.031,38.11,102.5,72.271,147.505,116.924c25.212,25.018,53.552,46.28,83.3,65.893l18.815-8.959
			c81.445-28.533,92.319-101.232,115.758-176.52c5.967-19.166,20.553-40.832,23.468-59.923c2.353-15.398-10.008-30.229-20.84-39.821
			c-33-29.221-58.953-64.228-95.475-90.187c-35.594-25.287-87.435-78.536-129.884-87.594L5788.287,4459.729z"/>
		<path id="_x31_80609937" fill="none" stroke="#000000" stroke-width="80" d="M6521.438,3941.351
			c-41.698-99.445-99.174-190.431-177.426-262.854c-46.365-42.918-100.036-83.061-158.964-104.284
			c-39.497-14.222-114.528-33.293-95.483-52.485c27.63-18.44,83.709,6.756,115.41,17.382
			c57.943,19.416,113.896,55.189,165.581,100.626c-30.421-31.176-61.523-62.401-92.691-91.131
			c-46.256-42.645-43.372-46.927-96.948-82.52c-135.893-90.262-411.078-140.037-522.154,1.828
			c-51.769,66.124-104.066,142.969-137.516,220.99c-38.166,89.011-38.665,199.812-24.258,302.967l0.09-0.021
			c1.555-12.096,4.72-24.335,7.484-36.188c2.619-11.227,5.641-22.366,9.479-33.213c3.476-9.834,7.635-19.413,12.66-28.501
			c4.63-8.374,9.988-16.303,15.961-23.699c5.729-7.094,12.003-13.7,18.646-19.871c6.553-6.084,13.459-11.756,20.639-17.018
			c7.162-5.252,14.605-10.094,22.303-14.45c7.748-4.386,15.753-8.267,23.963-11.612c8.355-3.406,16.909-6.254,25.566-8.699
			c4.646-1.312,9.32-2.512,14.009-3.643c3.882-0.938,7.843-1.494,11.686-2.602c1.625-0.468,6.273-3.001,7.622-1.229
			c1.098,1.443,0.838,5.816,1.168,7.711c0.295,4.421,0.674,8.938,1.125,13.527c-0.311-3.5-0.58-7.006-0.816-10.512
			c-0.131-1.902-0.248-3.809-0.361-5.712c-0.062-1.028-0.881-4.916-0.336-5.694c1.582-2.252,5.19-2.375,7.587-2.691
			c6.272-0.83,12.37-2.445,18.616-3.412c12.592-1.947,25.197-3.653,37.819-5.373c12.647-1.725,25.384-2.938,38.083-4.209
			c12.589-1.26,25.174-2.572,37.758-3.866c12.324-1.268,24.642-2.626,36.928-4.25c1.487-0.196,2.974-0.396,4.463-0.599
			c55.232-7.533,111.99-3.873,166.336,8.47c28.148,6.394,55.889,15.376,82.6,26.589c16.874,7.083,67.824,24.402,54.629,51.857
			c12.736-18.271,27.055-7.609,44.137,5.693c19.566,15.238,37.782,32.631,54.031,51.614c33.645,39.313,58.225,86.56,70.752,137.578
			c44.293,180.354-52.072,329.894-162.683,457.958c-27.722,32.102-54.646,64.887-80.758,98.455
			c-11.343,14.584-25.649,34-37.22,48.936c-7.396,9.547-16.613,4.291-25.492-3.268c6.752,8.403,11.783,18.464,10.205,28.782
			c-2.917,19.091-17.502,40.756-23.468,59.922c-23.435,75.286-34.312,147.983-115.759,176.521l-18.814,8.959
			c-1.061-0.697-2.11-1.402-3.166-2.104l-0.826,3.981c28.294,20.99,55.467,46.074,53.03,86.108
			c-10.119,166.274-194.305,19.649-245.206-17.194l-4.543-1.869c3.357,16.402,6.765,32.746,9.945,48.791
			c9.895,49.985,41.542,285.078,154.963,293.269c21.188,1.528,42.758-1.159,64.801-7.188l-0.869-5.276
			c-9.209,0.832-20.348-2.542-20.348-2.542c-51.066-16.883-89.719-76.189-50.709-113.979
			c59.208-57.342,178.173-99.184,273.269-185.115c92.722-83.791,130.468-136.389,187.919-240.162
			c84.475-152.562,153.824-289.201,201.818-459.481c18.143-64.365,28.629-129.517,32.154-194.239
			C6543.691,4056.72,6551.657,4013.453,6521.438,3941.351z M6314.646,3802.74c-40.082,7.433-135.932-75.098-172.646-93.084
			c-49.858-24.438-121.282-27.726-174.484-36.879c-40.168-6.914-103.873-42.106-40.495-82.983
			c101.129-65.209,209.842,41.483,289.903,91.737C6231.526,3690.697,6393.647,3787.585,6314.646,3802.74z"/>
		<path id="_x31_80609960" fill="none" stroke="#000000" stroke-width="80" d="M5581.399,4284.224
			c60.857-66.968,192.595-121.729,200.229-54.229c6.446,57.088-105.099,179.002-157.958,181.053
			C5607.72,4410.456,5548.001,4320.974,5581.399,4284.224z M5712.716,4162.646c-53.326,22.523-99.419,56.746-144.584,85.411
			c-26.666,16.916-7.398,49.467-2.348,75.688c20.381,105.975,21.597,214.718,45.27,320.186
			c7.482,33.316,8.295,68.123,17.807,101.201c2.611,9.064,7.194,28.41,19.109,29.383c10.119,0.826,4.615-90.004,4.443-97.604
			c-0.967-44.153,16.107-84.836,46.491-115.441c79.648-80.252,143.626-172.723,209.084-265.263
			c23.632-33.397,65.329-84.743,56.853-129.151c-11.141-58.408-94.204-44.289-134.061-38.766
			C5793.433,4133.461,5752.618,4145.794,5712.716,4162.646z"/>
		<path id="_x31_80609961" fill="none" stroke="#000000" stroke-width="80" d="M5921.622,5321.304
			c163.781-67.578,299.511-171.162,423.545-319.633c49.436-59.17,92.459-126.696,129.211-194.949
			c73.488-136.473,122.414-285.593,150.506-439.004c14.002-76.455,24.465-152.114,15.406-229.92
			c-8.912-76.688-21.34-154.434-62.957-231.472c-83.556-154.673-221.194-316.565-372.352-367.218
			c-31.701-10.627-87.782-35.822-115.41-17.383c-19.047,19.193,55.986,38.267,95.484,52.486
			c58.926,21.225,112.598,61.365,158.963,104.284c78.254,72.423,135.729,163.406,177.425,262.853
			c30.22,72.104,22.252,115.369,18.415,185.762c-3.523,64.723-14.008,129.873-32.152,194.238
			c-47.994,170.279-117.345,306.922-201.818,459.482c-57.452,103.772-95.196,156.371-187.92,240.16
			c-95.092,85.936-214.061,127.774-273.268,185.117c-39.014,37.787-0.359,97.096,50.709,113.979
			C5895.401,5320.089,5912.233,5325.187,5921.622,5321.304z"/>
		<path id="_x31_80609959" fill="none" stroke="#000000" stroke-width="80" d="M5581.399,4284.224
			c60.857-66.968,192.595-121.729,200.229-54.229c6.446,57.088-105.099,179.002-157.958,181.053
			C5607.72,4410.456,5548.001,4320.974,5581.399,4284.224z"/>
	</g>
</g>
</svg>
