<?xml version="1.0" encoding="utf-8"?>
<!-- Generator: Adobe Illustrator 16.0.0, SVG Export Plug-In . SVG Version: 6.00 Build 0)  -->
<!DOCTYPE svg PUBLIC "-//W3C//DTD SVG 1.1//EN" "http://www.w3.org/Graphics/SVG/1.1/DTD/svg11.dtd">
<svg version="1.1" id="Layer_1" xmlns="http://www.w3.org/2000/svg" xmlns:xlink="http://www.w3.org/1999/xlink" x="0px" y="0px"
	 width="9744.011px" height="6823.461px" viewBox="0 0 9744.011 6823.461" enable-background="new 0 0 9744.011 6823.461"
	 xml:space="preserve">
<g transform="scale(1.0)">
	<g id="_x31_80610255" transform=" scale(1.0, 1.0)">
		<path id="_x31_80610257" fill="none" stroke="#000000" stroke-width="80" d="M7038.77,1990.952
			c-158.991-150.335-339.359-269.556-534.411-372.23c-136.455-71.921-285.318-117.346-434.006-160.151
			c-37.195-10.626-74.314-21.17-111.27-31.938c-12.348-3.54-24.613-7.15-36.88-10.764c-27.045-7.964-54.503-15.412-82.395-21.96
			c0,0-0.004,0.077-0.077-0.003c-11.084-2.554-22.245-5.035-33.495-7.367c0,0,0,0-0.077-0.004
			c-11.17-2.328-22.43-4.429-33.771-6.458c-16.94-2.925-34.05-5.552-51.184-7.718c-11.373-1.416-22.757-2.603-34.149-3.636
			c-113.771-10.168-228.314,0.904-333.325,49.561c-11.168,5.2-22.517,10.931-33.97,17.191
			c-98.161,53.84-202.358,145.789-272.841,245.345c-27.241,38.427-49.438,78.028-64.33,116.921
			c-34.258,89.698-51.953,185.223-62.508,280.26c-11.597,104.819-11.035,210.785-10.391,316.679
			c0.351,70.617,0.783,141.162-2.48,211.367c-7.826,172.074-20.328,344.835-23.133,517.007
			c-0.566,35.463-2.383,71.172-2.789,106.489c-1.277,99.575,8.119,196.075,85.049,273.765
			c84.328,85.182,187.079,72.051,300.562,49.69c-48.018,11.963-96.395,13.192-144.488,24.468
			c-109.725,25.789-171.18,155.814-195.068,251.562c-35.691,143.024-60.035,286.396-67.977,434.264
			c-18.991,353.713-1.743,958.911,407.176,1087.283c180.341,56.614,369.61-4.533,535.658-70.339
			c152.752-60.538,292.684-130.746,402.082-256.888c187.516-216.229,402.23-503.736,458.961-788.291
			c12.256-61.473,65.887-222.761,21.592-299.091c-21.355-36.807-53.636-62.697-88.861-85.16
			c71.5,34.893,145.614,49.13,219.454,14.693c118.021-55.147,173.344-145.479,240.091-252.138c2.188-3.501,4.381-7.078,6.65-10.651
			c53.188-84.83,104.326-171.991,145.954-263.702c42.319-93.135,64.319-188.136,88.665-286.704
			c19.464-78.611,30.86-162.774,33.623-248.985C7339.991,2508.576,7249.409,2190.053,7038.77,1990.952z"/>
		<path id="_x31_80610258" fill="none" stroke="#000000" stroke-width="80" d="M7038.77,1990.952
			c-158.991-150.335-339.359-269.556-534.411-372.23c-136.455-71.921-285.318-117.346-434.006-160.151
			c-37.195-10.626-74.314-21.17-111.27-31.938c-12.348-3.54-24.613-7.15-36.88-10.764c-27.045-7.964-54.503-15.412-82.395-21.96
			c0,0-0.004,0.077-0.077-0.003c-11.084-2.554-22.245-5.035-33.495-7.367c0,0,0,0-0.077-0.004
			c-11.17-2.328-22.43-4.429-33.771-6.458c-16.94-2.925-34.05-5.552-51.184-7.718c-11.373-1.416-22.757-2.603-34.149-3.636
			c-113.771-10.168-228.314,0.904-333.325,49.561c-11.168,5.2-22.517,10.931-33.97,17.191
			c-98.161,53.84-202.358,145.789-272.841,245.345c-27.241,38.427-49.438,78.028-64.33,116.921
			c-34.258,89.698-51.953,185.223-62.508,280.26c-11.597,104.819-11.035,210.785-10.391,316.679
			c0.351,70.617,0.783,141.162-2.48,211.367c-7.826,172.074-20.328,344.835-23.133,517.007
			c-0.566,35.463-2.383,71.172-2.789,106.489c-1.277,99.575,8.119,196.075,85.049,273.765
			c84.328,85.182,187.079,72.051,300.562,49.69c-48.018,11.963-96.395,13.192-144.488,24.468
			c-109.725,25.789-171.18,155.814-195.068,251.562c-35.691,143.024-60.035,286.396-67.977,434.264
			c-18.991,353.713-1.743,958.911,407.176,1087.283c180.341,56.614,369.61-4.533,535.658-70.339
			c152.752-60.538,292.684-130.746,402.082-256.888c187.516-216.229,402.23-503.736,458.961-788.291
			c12.256-61.473,65.887-222.761,21.592-299.091c-21.355-36.807-53.636-62.697-88.861-85.16
			c71.5,34.893,145.614,49.13,219.454,14.693c118.021-55.147,173.344-145.479,240.091-252.138c2.188-3.501,4.381-7.078,6.65-10.651
			c53.188-84.83,104.326-171.991,145.954-263.702c42.319-93.135,64.319-188.136,88.665-286.704
			c19.464-78.611,30.86-162.774,33.623-248.985C7339.991,2508.576,7249.409,2190.053,7038.77,1990.952z M5653.521,4209.707
			c-17.045,32.625-44.463,58.826-81.844,66.753c-0.348,0.07-0.68,0.146-1.014,0.202c-65.148,11.652-48.64-105.015-24.506-133.347
			c17.633-20.69,52.939-35.257,79.797-30.977C5682.933,4121.415,5673.954,4170.553,5653.521,4209.707z M6505.587,3796.97
			c-24.855-15.811-48.16-33.206-71.098-51.027c1.579,0.281,3.117,0.961,4.61,2.099c23.224,17.66,47.041,35.393,71.33,51.975
			C6508.808,3799.005,6507.191,3797.991,6505.587,3796.97z"/>
		<path id="_x31_80610296" fill="none" stroke="#000000" stroke-width="80" d="M7330.409,2803.323
			c-2.762,86.209-14.157,170.373-33.623,248.984c-24.346,98.571-46.346,193.571-88.663,286.706
			c-41.628,91.711-92.769,178.869-145.954,263.701c-2.27,3.574-4.461,7.15-6.652,10.652l-0.523-0.334l-110.612-128.471
			c48.892-90.039,87.005-184.154,115.751-265.833c11.568-32.836,21.215-64.388,29.036-93.494
			c26.538-99.074,71.972-210.875,76.178-313.299c0.444-10.271,0.81-20.472,1.093-30.598L7330.409,2803.323z"/>
		<path id="_x31_80610295" fill="none" stroke="#000000" stroke-width="80" d="M7165.343,2811.936
			c-4.207,102.424-49.641,214.224-76.178,313.299c-7.822,29.107-17.469,60.658-29.037,93.495
			c-28.745,81.679-66.863,175.793-115.751,265.832l-315.628-366.623c24.033-20.994,45.04-50.899,61.732-91.699
			c34.964-85.361,66.254-194.26,80.646-297.786l395.309,52.884C7166.151,2791.465,7165.786,2801.664,7165.343,2811.936z"/>
		<path id="_x31_80610294" fill="none" stroke="#000000" stroke-width="80" d="M6449.55,2685.417l321.578,43.037
			c-14.393,103.525-45.685,212.425-80.646,297.786c-16.69,40.799-37.699,70.705-61.732,91.698l-285.77-331.934
			C6471.233,2830.703,6482.158,2769.409,6449.55,2685.417z"/>
		<path id="_x31_80610293" fill="none" stroke="#000000" stroke-width="80" d="M6449.55,2685.417
			c32.611,83.992,21.684,145.286-106.569,100.587l-111.781-129.835L6449.55,2685.417z"/>
		<path id="_x31_80610292" fill="none" stroke="#000000" stroke-width="80" d="M7330.409,2803.323l-163.975-21.985
			c3.848-116.654,0.074-226.393-39.172-334.992c-42.373-117.055-56.161-264.018-167.773-400.22
			c-104.701-127.636-362.188-228.145-477.572-290.249c-203.289-109.464-307.445-138.356-548.776-206.861
			c-182.867-51.896-383.651-89.02-566.553-3.405l-46.327-109.264l-0.496-0.87c11.453-6.263,22.803-11.992,33.968-17.192
			c105.012-48.656,219.554-59.728,333.325-49.56c11.394,1.033,22.777,2.218,34.15,3.636c17.134,2.166,34.244,4.791,51.184,7.717
			c11.341,2.03,22.602,4.132,33.771,6.46c0.077,0.001,0.077,0.001,0.077,0.001c11.247,2.333,22.412,4.813,33.496,7.368
			c0.074,0.081,0.078,0.004,0.078,0.004c27.89,6.547,55.35,13.996,82.394,21.96c12.267,3.613,24.532,7.224,36.88,10.764
			c36.954,10.767,74.076,21.312,111.27,31.938c148.686,42.805,297.549,88.23,434.006,160.152
			c195.051,102.673,375.42,221.894,534.411,372.23C7249.409,2190.053,7339.991,2508.576,7330.409,2803.323z"/>
		<path id="_x31_80610291" fill="none" stroke="#000000" stroke-width="80" d="M7166.435,2781.338l-395.309-52.884
			c6.532-46.303,9.68-91.471,8.316-133.101c-2.77-85.413-33.301-158.62-78.658-229.192
			c-66.406-103.666-140.057-186.569-242.359-250.398c-112.119-70.007-221.297-137.024-340.791-191.27
			c-131.89-59.861-419.541-187.541-569.688-151.522c-24.658,5.906-48.081,17.943-70.209,34.885l-111.151-262.245
			c182.9-85.615,383.687-48.491,566.553,3.406c241.33,68.505,345.486,97.397,548.777,206.86
			c115.384,62.104,372.87,162.613,477.571,290.25c111.612,136.203,125.4,283.165,167.774,400.219
			C7166.509,2554.945,7170.282,2664.684,7166.435,2781.338z"/>
		<path id="_x31_80610290" fill="none" stroke="#000000" stroke-width="80" d="M6779.442,2595.354
			c1.363,41.629-1.788,86.797-8.316,133.101l-321.577-43.035c-36.704-94.722-128.776-218.343-169.726-250.898
			c-141.221-112.032-341.428-233.478-493.753-224.533c-49.716,2.958-91.747,8.375-128.695,21.731l-179.639-423.862
			c22.126-16.942,45.551-28.979,70.209-34.885c150.146-36.019,437.799,91.661,569.688,151.522
			c119.493,54.245,228.672,121.263,340.79,191.27c102.304,63.83,175.952,146.733,242.36,250.398
			C6746.145,2436.732,6776.675,2509.941,6779.442,2595.354z"/>
		<path id="_x31_80610289" fill="none" stroke="#000000" stroke-width="80" d="M6449.55,2685.417l-218.351-29.248
			c0,0-182.729-132.092-480.611-204.667l-93.21-219.785c36.947-13.355,78.979-18.774,128.696-21.731
			c152.323-8.946,352.53,112.5,493.751,224.533C6320.772,2467.075,6412.843,2590.696,6449.55,2685.417z"/>
		<path id="_x31_80610288" fill="none" stroke="#000000" stroke-width="80" d="M5141.298,1765.148
			c-2.213,3.961-4.268,7.929-6.331,11.974l-87.526-95.892l-0.521-0.41c70.484-99.557,174.68-191.505,272.842-245.345l0.497,0.87
			l46.327,109.263c-15.285,7.069-30.379,14.991-45.371,23.919C5241.16,1617.057,5183.185,1686.588,5141.298,1765.148z"/>
		<path id="_x31_80610287" fill="none" stroke="#000000" stroke-width="80" d="M5366.585,1545.609l111.153,262.247
			c-54.701,41.657-101.241,112.916-137.983,193.655c0,0-199.299-218.934-204.789-224.389c1.652-5.039,4.551-7.397,6.331-11.974
			c41.887-78.559,99.862-148.093,179.919-195.621C5336.206,1560.602,5351.302,1552.678,5366.585,1545.609z"/>
		<path id="_x31_80610286" fill="none" stroke="#000000" stroke-width="80" d="M5477.739,1807.856l179.639,423.862
			c-25.522,9.243-48.613,22.295-70.054,40.961l-247.569-271.169C5376.495,1920.771,5423.037,1849.513,5477.739,1807.856z"/>
		<path id="_x31_80610285" fill="none" stroke="#000000" stroke-width="80" d="M5657.378,2231.718l93.21,219.785l-163.262-178.822
			C5608.765,2254.014,5631.853,2240.961,5657.378,2231.718z"/>
		<path id="_x31_80610284" fill="none" stroke="#000000" stroke-width="80" d="M5047.44,1681.232l87.526,95.89
			c-39.526,77.758-63.997,163.57-79.13,245.165c-20.996,113.258-45.448,242.782-66.016,378.032l-77.889-5.679l-2.244,0.042
			c-0.645-105.894-1.209-211.861,10.389-316.68c10.557-95.037,28.254-190.559,62.509-280.259
			c14.893-38.893,37.089-78.494,64.33-116.92L5047.44,1681.232z"/>
		<path id="_x31_80610283" fill="none" stroke="#000000" stroke-width="80" d="M5150.716,1794.353
			c22.835,69.443,30.12,90.397-5.625,182.017c-45.273,116.264-53.148,248.234-59.612,372.208
			c-1.013,19.923-2.003,39.387-2.978,58.543l-92.678-6.805c20.567-135.251,45.02-264.776,66.017-378.033
			c15.132-81.594,39.601-167.405,79.129-245.163L5150.716,1794.353z"/>
		<path id="_x31_80610282" fill="none" stroke="#000000" stroke-width="80" d="M5150.716,1794.353l189.039,207.157
			c-25.661,56.021-46.531,116.663-62.349,175.252c-12.494,46.465-32.891,144.926-49.608,240.959l-145.297-10.6
			c0.975-19.156,1.965-38.62,2.978-58.543c6.46-123.975,14.337-255.945,59.612-372.208
			C5180.836,1884.75,5173.551,1863.795,5150.716,1794.353z"/>
		<path id="_x31_80610281" fill="none" stroke="#000000" stroke-width="80" d="M5339.755,2001.512l247.568,271.17
			c-37.223,32.47-69.51,81.936-101.133,157.863c-0.708,1.731-1.429,3.77-2.159,5.959l-256.232-18.782
			c16.719-96.035,37.115-194.496,49.608-240.959C5293.224,2118.172,5314.094,2057.532,5339.755,2001.512z"/>
		<path id="_x31_80610280" fill="none" stroke="#000000" stroke-width="80" d="M5750.586,2451.502l-4.616,4.147l-261.937-19.145
			c0.73-2.191,1.452-4.229,2.159-5.959c31.623-75.927,63.91-125.391,101.133-157.863L5750.586,2451.502z"/>
		<path id="_x31_80610305" fill="none" stroke="#000000" stroke-width="80" d="M6418.605,3640.151l20.494,107.89
			c-40.868-31.169-79.896-62.013-116.406-86.049c-154.737-101.726-326.646-218.523-515.556-251.902l0.545-3.123l-13.432-225.38
			c38.473,0.703,77.176,9.023,116.252,28.27C6037.839,3272.565,6234.11,3498.676,6418.605,3640.151z"/>
		<path id="_x31_80610304" fill="none" stroke="#000000" stroke-width="80" d="M6314.614,3094.252l103.991,545.901
			c-184.495-141.476-380.769-367.59-508.104-430.294c-39.076-19.247-77.78-27.567-116.252-28.269l-18.525-309.22
			c142.553-15.965,280.795,16.329,388.508,112.082C6204.183,3019.951,6257.081,3060.865,6314.614,3094.252z"/>
		<path id="_x31_80610302" fill="none" stroke="#000000" stroke-width="80" d="M6246.815,2738.309l67.799,355.944
			c-57.532-33.387-110.432-74.301-150.381-109.801c-107.715-95.753-245.957-128.047-388.508-112.082l-15.69-263.06
			c6.728-3.043,13.046-5.645,19.036-7.878C5929.276,2545.979,6123.173,2666.8,6246.815,2738.309z"/>
		<path id="_x31_80610301" fill="none" stroke="#000000" stroke-width="80" d="M6231.195,2656.169l15.616,82.14
			c-123.641-71.509-317.537-192.33-467.742-136.879c-5.991,2.235-12.31,4.837-19.035,7.878l-9.448-157.808
			C6048.47,2524.077,6231.195,2656.169,6231.195,2656.169z"/>
		<path id="_x31_80610279" fill="none" stroke="#000000" stroke-width="80" d="M4965.788,3153.893l-84.5,75.651
			c0.406-35.317,2.223-71.027,2.79-106.49c2.805-172.171,15.306-344.933,23.132-517.006c3.264-70.205,2.833-140.75,2.482-211.367
			l2.244-0.042l77.889,5.679C4951.099,2655.345,4926.351,2930.509,4965.788,3153.893z"/>
		<path id="_x31_80610278" fill="none" stroke="#000000" stroke-width="80" d="M5009.352,3110.832l2.05,2.253l-45.613,40.807
			c-39.438-223.383-14.688-498.547,24.035-753.575l92.678,6.805c-8.238,164.985-14.09,305.814-29.14,475.452
			C5045.985,2965.248,5070.231,3057.117,5009.352,3110.832z"/>
		<path id="_x31_80610277" fill="none" stroke="#000000" stroke-width="80" d="M5082.501,2407.122l145.297,10.599
			c-12.896,74.102-23.551,146.778-26.603,193.103c-11.385,173.585-6.333,258.191-1.473,332.876c-0.011,0.23,0.052,0.541,0.04,0.771
			l-188.364,168.616l-2.05-2.254c60.881-53.715,36.635-145.584,44.012-228.26C5068.41,2712.938,5074.261,2572.106,5082.501,2407.122
			z"/>
		<path id="_x31_80610276" fill="none" stroke="#000000" stroke-width="80" d="M5481.207,2692.643l-281.444,251.827
			c0.014-0.229-0.051-0.539-0.039-0.769c-4.859-74.687-9.913-159.291,1.473-332.876c3.052-46.324,13.709-119,26.603-193.102
			l256.231,18.782C5467.769,2485.622,5451.568,2645.981,5481.207,2692.643z"/>
		<path id="_x31_80610275" fill="none" stroke="#000000" stroke-width="80" d="M5745.968,2455.649l-264.761,236.994
			c-29.638-46.661-13.44-207.021,2.824-256.139L5745.968,2455.649z"/>
		<path id="_x31_80610309" fill="none" stroke="#000000" stroke-width="80" d="M5794.247,3181.59l13.432,225.381l-0.544,3.123
			c-24.979-4.481-50.194-7.437-75.802-8.722c-142.148-7.138-355.201,130.046-464.012,151.549
			c-113.651,22.409-216.553,35.679-300.984-49.608c-76.93-77.69-86.326-174.191-85.049-273.766l84.5-75.65
			c2.818,16.043,5.957,31.872,9.496,47.415c55.632,245.552,273.418,165.838,472.204,90.239
			C5561.909,3247.974,5676.747,3179.376,5794.247,3181.59z"/>
		<path id="_x31_80610308" fill="none" stroke="#000000" stroke-width="80" d="M5775.724,2872.37l18.523,309.22
			c-117.5-2.213-232.342,66.385-346.758,109.959c-198.787,75.599-416.572,155.312-472.204-90.239
			c-3.538-15.542-6.678-31.372-9.497-47.416l45.612-40.808l188.364-168.616c13.686,199.12,297.794,5.89,419.322-36.099
			C5671.032,2890.467,5723.696,2878.208,5775.724,2872.37z"/>
		<path id="_x31_80610307" fill="none" stroke="#000000" stroke-width="80" d="M5760.032,2609.311l15.691,263.059
			c-52.027,5.839-104.693,18.098-156.64,36.001c-121.527,41.988-405.636,235.22-419.321,36.099l281.443-251.827
			c5.582,8.807,12.766,13.547,21.929,12.778C5603.804,2696.571,5696.812,2637.556,5760.032,2609.311z"/>
		<path id="_x31_80610306" fill="none" stroke="#000000" stroke-width="80" d="M5745.968,2455.649l4.617-4.147l9.447,157.808
			c-63.221,28.245-156.232,87.261-256.897,96.111c-9.161,0.769-16.345-3.97-21.929-12.779L5745.968,2455.649z"/>
		<path id="_x31_80610300" fill="none" stroke="#000000" stroke-width="80" d="M7054.992,3613.031l0.523,0.333
			c-66.747,106.659-122.067,196.991-240.091,252.139c-129.818,60.547-260.49-29.367-376.327-117.462l-20.493-107.89
			c135.663,104.223,264.846,162.566,355.364,76.538c67.445-64.14,123.815-146.199,170.407-232.129L7054.992,3613.031z"/>
		<path id="_x31_80610299" fill="none" stroke="#000000" stroke-width="80" d="M6628.747,3117.939l315.629,366.623
			c-46.592,85.93-102.963,167.986-170.405,232.13c-90.517,86.028-219.7,27.686-355.365-76.539l-103.991-545.9
			C6421.42,3156.234,6544.095,3192.048,6628.747,3117.939z"/>
		<path id="_x31_80610298" fill="none" stroke="#000000" stroke-width="80" d="M6342.98,2786.005l285.769,331.935
			c-84.654,74.108-207.327,38.294-314.133-23.686l-67.801-355.944c32,18.508,59.292,33.783,79.921,41.732
			C6332.345,2782.243,6337.812,2784.208,6342.98,2786.005z"/>
		<path id="_x31_80610297" fill="none" stroke="#000000" stroke-width="80" d="M6231.195,2656.169l111.781,129.835
			c-5.165-1.796-10.632-3.762-16.244-5.962c-20.628-7.951-47.921-23.225-79.921-41.732L6231.195,2656.169z"/>
		<path id="_x31_80610259" fill="none" stroke="#000000" stroke-width="80" d="M6684.37,3939.436
			c-39.374-67.846-115.803-98.664-179.486-139.181c-64.619-41.102-118.801-92.883-183.109-135.167
			c-175.401-115.333-372.611-257.814-592.144-260.934c-166.661-2.365-306.685,112.165-464.632,151.726
			c-48.217,12.075-96.79,13.278-145.09,24.604c-109.867,25.822-171.398,156.02-195.314,251.888
			c-35.736,143.209-60.799,286.734-68.062,434.83c-17.339,353.61-7.619,951.288,407.718,1088.688
			c179.674,59.434,370.088-4.541,536.35-70.432c152.95-60.619,293.061-130.922,402.598-257.228
			c187.762-216.513,402.748-504.392,459.552-789.317C6675.028,4177.364,6728.72,4015.864,6684.37,3939.436z M5653.521,4209.707
			c-17.045,32.625-44.463,58.826-81.844,66.753c-0.348,0.07-0.68,0.146-1.014,0.202c-65.148,11.652-48.64-105.015-24.506-133.347
			c17.633-20.69,52.939-35.257,79.797-30.977C5682.933,4121.415,5673.954,4170.553,5653.521,4209.707z"/>
		<path id="_x31_80610260" fill="none" stroke="#000000" stroke-width="80" d="M5061.792,3834.487
			c28.289,8.753,65.699,40.16,83.559,65.214c32.321,45.345,55.793,98.633,73.348,151.239
			c59.619,178.639,109.066,528.871-118.49,605.216c-40.855,13.707-107.945,27.872-147.385,10.749
			c-17.182-7.465-96.615-38.188-96.615-38.188s-3.443-54.205-4.34-66.889c-6.844-96.144-0.364-198.872,4.667-294.63
			c11.363-216.323,85.99-492.606,85.99-492.606S4990.694,3812.482,5061.792,3834.487z"/>
		<path id="_x31_80610264" fill="none" stroke="#000000" stroke-width="80" d="M5042.567,4269.403
			c5.246,64.244,6.689,410.865,80.74,377.361c82.173-37.177,121.762-116.043,137.012-190.075c5.342-25.929,9.9-51.052,8.766-73.987
			c-0.867-17.479,0.591-36.556,0.318-55.303c-0.475-32.582-2.852-65.853-7.865-100.11
			c-17.572-120.093-55.527-243.948-114.577-327.588c-49.665-70.348-104.779,46.294-108.02,98.372
			C5033.097,4092.04,5034.909,4175.715,5042.567,4269.403z"/>
		<path id="_x31_80610263" fill="none" stroke="#000000" stroke-width="80" d="M5040.954,4269.403
			c-7.656-93.692-9.471-177.359-3.619-271.328c2.064-33.162,24.282-91.863,53.53-112.382l-96.5,11.919
			c13.823,37.612,16.194,121.441,16.475,153.873c0.546,66.083-9.831,135.172-1.926,200.922
			c10.618,88.274,26.905,232.119,33.124,338.201c0.955,16.336-0.055,25.541-2.362,29.412l56.976,23.031
			C5046.315,4600.032,5045.565,4325.847,5040.954,4269.403z"/>
		<path id="_x31_80610262" fill="none" stroke="#000000" stroke-width="80" d="M4961.228,4114.713
			c-0.105-66.007-35.682-177.915,9.1-232.9c35.516-25.702,40.113,123.679,40.508,169.67c0.551,66.081-9.825,135.17-1.926,200.929
			c10.626,88.273,26.904,232.12,33.128,338.2c4.667,79.596-37.397-10.013-48.564-61.97
			C4964.739,4395.106,4961.433,4250.771,4961.228,4114.713z"/>
		<path id="_x31_80610261" fill="none" stroke="#000000" stroke-width="80" d="M5107.739,4648.503
			c-0.404-0.064-0.802-0.147-1.202-0.237c-0.089-0.021-0.179-0.038-0.269-0.058c-0.414-0.1-0.828-0.218-1.236-0.348
			c-0.068-0.02-0.137-0.039-0.207-0.061c-0.426-0.137-0.848-0.293-1.268-0.462c-0.053-0.02-0.102-0.038-0.15-0.058
			c-0.436-0.177-0.866-0.373-1.293-0.582c-0.034-0.018-0.07-0.032-0.104-0.05c-0.439-0.216-0.874-0.453-1.308-0.702
			c-0.021-0.014-0.044-0.023-0.062-0.038c-0.444-0.257-0.882-0.532-1.319-0.823c-0.011-0.008-0.02-0.016-0.03-0.021
			c-0.444-0.298-0.884-0.614-1.321-0.944c-0.004-0.002-0.006-0.004-0.008-0.006c-0.441-0.336-0.879-0.689-1.312-1.06l-56.975-23.031
			l0,0c-2.613,4.387-6.889,1.924-11.859-4.794l0,0c-0.008-0.011-0.018-0.022-0.024-0.034c-0.354-0.478-0.71-0.979-1.069-1.498
			c-0.037-0.056-0.075-0.109-0.113-0.165c-0.336-0.494-0.678-1.005-1.022-1.534c-0.044-0.066-0.087-0.135-0.132-0.201
			c-0.348-0.539-0.7-1.094-1.053-1.668c-0.031-0.055-0.064-0.105-0.096-0.158c-0.205-0.332-0.406-0.668-0.611-1.009
			c-0.098-0.167-0.199-0.343-0.3-0.514c-0.162-0.274-0.323-0.552-0.485-0.831c-0.222-0.381-0.443-0.771-0.668-1.166
			c-0.161-0.286-0.322-0.57-0.482-0.862c-0.231-0.415-0.463-0.841-0.695-1.269c-0.154-0.285-0.309-0.566-0.463-0.855
			c-0.252-0.472-0.505-0.954-0.758-1.438c-0.135-0.261-0.272-0.515-0.407-0.78c-0.382-0.741-0.765-1.493-1.149-2.262
			c-0.062-0.129-0.127-0.258-0.188-0.385c-0.327-0.664-0.659-1.332-0.987-2.013c-0.146-0.306-0.294-0.616-0.442-0.925
			c-0.243-0.51-0.485-1.017-0.73-1.536c-0.167-0.358-0.335-0.72-0.501-1.081c-0.223-0.479-0.443-0.961-0.667-1.448
			c-0.175-0.384-0.351-0.772-0.526-1.163c-0.214-0.479-0.43-0.957-0.645-1.441c-0.176-0.399-0.354-0.799-0.529-1.204
			c-0.213-0.486-0.426-0.979-0.638-1.471c-0.175-0.403-0.349-0.808-0.521-1.218c-0.217-0.51-0.435-1.023-0.649-1.539
			c-0.17-0.399-0.335-0.793-0.502-1.197c-0.228-0.547-0.453-1.1-0.68-1.652c-0.154-0.377-0.309-0.752-0.463-1.131
			c-0.301-0.746-0.6-1.5-0.9-2.254c-0.167-0.415-0.328-0.829-0.492-1.248c-0.272-0.691-0.543-1.387-0.812-2.086
			c-0.158-0.408-0.313-0.824-0.471-1.236c-0.209-0.547-0.415-1.093-0.621-1.641c-0.168-0.444-0.332-0.895-0.499-1.34
			c-0.192-0.521-0.384-1.039-0.575-1.561c-0.17-0.46-0.334-0.92-0.5-1.381c-0.186-0.516-0.37-1.027-0.556-1.541
			c-0.165-0.464-0.327-0.928-0.491-1.394c-0.182-0.521-0.365-1.042-0.547-1.563c-0.157-0.457-0.316-0.914-0.473-1.372
			c-0.182-0.533-0.362-1.067-0.543-1.601c-0.149-0.444-0.301-0.889-0.447-1.334c-0.187-0.563-0.371-1.131-0.558-1.692
			c-0.134-0.417-0.272-0.831-0.405-1.246c-0.239-0.734-0.471-1.468-0.702-2.201c-0.147-0.474-0.296-0.944-0.442-1.417
			c-0.223-0.711-0.443-1.423-0.656-2.13c-0.123-0.401-0.241-0.798-0.36-1.196c-0.171-0.569-0.34-1.139-0.509-1.705
			c-0.122-0.421-0.242-0.836-0.363-1.253c-0.156-0.54-0.312-1.081-0.463-1.618c-0.119-0.426-0.238-0.848-0.355-1.27
			c-0.146-0.53-0.292-1.059-0.438-1.587c-0.113-0.419-0.225-0.833-0.334-1.248c-0.141-0.526-0.28-1.053-0.414-1.575
			c-0.105-0.404-0.211-0.811-0.313-1.211c-0.138-0.543-0.271-1.08-0.405-1.617c-0.093-0.371-0.186-0.747-0.276-1.115
			c-0.142-0.591-0.279-1.172-0.415-1.755c-0.071-0.31-0.147-0.624-0.218-0.933c-0.204-0.884-0.399-1.758-0.585-2.624
			c-28.734-133.532-32.039-277.864-32.244-413.921c-0.101-66.009-35.678-177.92,9.1-232.899c0.307-0.22,0.607-0.426,0.908-0.621
			c0.096-0.062,0.193-0.12,0.289-0.179c0.203-0.128,0.406-0.251,0.609-0.367c0.11-0.062,0.221-0.124,0.332-0.184
			c0.185-0.102,0.371-0.199,0.558-0.289c0.111-0.057,0.224-0.11,0.335-0.163c0.188-0.088,0.375-0.17,0.561-0.247
			c0.102-0.042,0.205-0.087,0.305-0.127c0.218-0.084,0.434-0.158,0.648-0.228c0.065-0.021,0.135-0.049,0.201-0.068
			c0.283-0.088,0.562-0.163,0.842-0.226c0.051-0.012,0.102-0.019,0.153-0.029c0.226-0.048,0.45-0.089,0.674-0.121
			c0.089-0.012,0.175-0.02,0.263-0.03c0.186-0.021,0.37-0.039,0.557-0.05c0.095-0.008,0.187-0.01,0.281-0.013
			c0.18-0.006,0.359-0.004,0.538,0c0.089,0.003,0.177,0.006,0.265,0.011c0.191,0.013,0.384,0.03,0.576,0.055
			c0.068,0.009,0.139,0.016,0.208,0.023c0.525,0.076,1.042,0.198,1.551,0.364c0.05,0.018,0.098,0.036,0.147,0.054
			c0.202,0.07,0.404,0.146,0.602,0.229c0.068,0.029,0.137,0.06,0.208,0.094c0.181,0.081,0.362,0.167,0.539,0.259
			c0.07,0.035,0.142,0.073,0.212,0.111c0.182,0.098,0.367,0.206,0.545,0.317c0.06,0.036,0.12,0.07,0.178,0.109
			c0.215,0.136,0.43,0.284,0.641,0.44c0.021,0.016,0.044,0.027,0.064,0.044c0.48,0.356,0.955,0.757,1.42,1.197
			c0.037,0.036,0.074,0.073,0.111,0.109c0.191,0.184,0.381,0.372,0.568,0.57c0.049,0.054,0.097,0.105,0.148,0.159
			c0.177,0.192,0.357,0.393,0.532,0.597c0.046,0.054,0.093,0.104,0.136,0.159c0.193,0.228,0.385,0.463,0.572,0.707
			c0.025,0.031,0.053,0.062,0.076,0.095c0.663,0.856,1.307,1.802,1.932,2.828c0.025,0.042,0.051,0.083,0.074,0.125
			c0.181,0.301,0.362,0.608,0.541,0.923c0.028,0.054,0.059,0.105,0.09,0.158c0.18,0.323,0.359,0.65,0.536,0.984
			c0.019,0.038,0.04,0.076,0.061,0.115c0.804,1.532,1.579,3.207,2.319,5.011c0.016,0.034,0.029,0.07,0.045,0.105
			c0.172,0.42,0.344,0.849,0.512,1.283c0.014,0.033,0.027,0.065,0.039,0.099c0.18,0.462,0.357,0.93,0.531,1.406l96.5-11.921
			c0.006-0.004,0.012-0.007,0.018-0.011c1.031-0.724,2.073-1.399,3.123-2.026c0.012-0.007,0.023-0.014,0.035-0.019
			c1.053-0.627,2.111-1.203,3.181-1.725c0.007-0.002,0.012-0.006,0.019-0.008c1.594-0.78,3.207-1.438,4.834-1.97
			c0.026-0.009,0.054-0.019,0.078-0.024c1.062-0.345,2.131-0.633,3.204-0.863c0.05-0.01,0.097-0.019,0.146-0.029
			c1.06-0.223,2.123-0.391,3.193-0.498c0.064-0.006,0.127-0.014,0.191-0.019c1.061-0.1,2.127-0.144,3.197-0.127
			c0.07,0,0.143,0.004,0.213,0.006c0.511,0.013,1.02,0.034,1.529,0.074c0.021,0.002,0.047,0.003,0.07,0.005
			c0.537,0.043,1.076,0.102,1.614,0.175c0.071,0.01,0.143,0.021,0.214,0.03c0.482,0.069,0.963,0.151,1.445,0.247
			c0.067,0.014,0.137,0.024,0.205,0.04c0.533,0.106,1.066,0.229,1.602,0.369c0.062,0.018,0.123,0.035,0.185,0.053
			c0.476,0.127,0.951,0.268,1.428,0.418c0.095,0.031,0.19,0.059,0.286,0.092c0.531,0.176,1.064,0.365,1.6,0.573
			c0.036,0.015,0.072,0.028,0.108,0.044c0.489,0.193,0.983,0.403,1.475,0.624c0.112,0.05,0.224,0.099,0.337,0.151
			c1.053,0.484,2.107,1.034,3.166,1.648c0.103,0.06,0.209,0.121,0.312,0.183l2.051-1.704
			c-19.483-20.238-46.474-40.215-68.129-46.916c-71.1-22-119.266-59.894-119.266-59.894s-74.634,276.284-85.995,492.61
			c-5.028,95.753-10.729,183.137-3.878,279.283c0.898,12.684,3.555,82.232,3.555,82.232s79.431,30.719,96.612,38.188
			c39.445,17.124,106.535,2.963,147.389-10.75c3.479-1.169,6.892-2.397,10.241-3.693l-2.508-3.933
			C5107.878,4648.521,5107.808,4648.511,5107.739,4648.503z"/>
		<path id="_x31_80610265" fill="none" stroke="#000000" stroke-width="80" d="M6684.37,3939.436
			c-39.374-67.846-115.803-98.664-179.486-139.181c-64.619-41.102-118.801-92.883-183.109-135.167
			c-175.401-115.333-372.611-257.814-592.144-260.934l2.976,3.2c5.496,114.255,1.406,217.584,1.504,331.918
			c0.074,96.244,17.11,265.31,35.787,305.729c-49.109,4.67-111.071,26.58-119.928,57.295
			c-49.553-20.942-84.979-65.179-100.255-79.596c-31.997-30.205-58.463-65.85-90.536-96.087
			c-101.273-95.49-250.251-281.752-291.158-343.894l8.396-12.101c-18.847,2.577-37.697,5.454-56.509,9.867
			c-67.418,15.808-112.254,67.288-144.885,124.271c-3.531,6.171-21.227,29.782-20.873,36.853
			c1.633,32.637,85.002,50.929,108.268,62.165c62.226,30.062,120.048,90.629,149.053,152.44
			c38.355,81.742,67.029,162.115,74.891,252.869c6.729,77.713,17.897,157.555,6.538,235.388
			c-14.394,98.653-61.476,171.58-145.187,222.407c-93.941,57.041-203.599,32.015-288.849-14.312
			c5.506,36.581,3.315,35.848,8.171,67.716c5.188,34.012,7.454,74.578,13.84,108.389c22.202,117.374,51.253,186.276,107.006,293.831
			c31.727,61.209,80.523,113.823,124.641,149.857c50.182,40.989,100.558,66.61,151.728,83.531
			c179.674,59.434,370.087-4.541,536.351-70.432c152.949-60.619,293.061-130.923,402.598-257.229
			c187.761-216.512,402.748-504.393,459.551-789.317C6675.028,4177.364,6728.72,4015.864,6684.37,3939.436z M5653.521,4209.707
			c-17.045,32.625-44.463,58.826-81.844,66.753c-0.348,0.07-0.68,0.146-1.014,0.202c-65.148,11.652-48.64-105.015-24.506-133.347
			c17.633-20.69,52.939-35.257,79.797-30.977C5682.933,4121.415,5673.954,4170.553,5653.521,4209.707z"/>
		<path id="_x31_80610268" fill="none" stroke="#000000" stroke-width="80" d="M6424.271,3909.82l-0.39,0.172
			c-90.928,52.094-169.208,127.962-266.127,170.545c-61.72,27.112-127.078,25.846-193.02,27.555l-0.881-0.569
			c15.776-25.569-17.488-43.291-54.776-53.979c-10.015-2.859-20.319-5.223-30.04-7.08v-4.213
			c68.32-125.412,74.366-244.332,99.157-389.245v-9.63C6164.116,3670.215,6351.47,3748.207,6424.271,3909.82z"/>
		<path id="_x31_80610267" fill="none" stroke="#000000" stroke-width="80" d="M6440.36,3953.13
			c32.764,110.219-20.497,205.761-89.798,288.275c-81.44,96.967-159.378,193.621-230.076,298.799
			c-96.456,143.523-201.899,285.558-335.69,396.55l-3.351-3.257c-114.017-73.634-200.058-249.584-158.61-382.953l2.24-7.404
			c9.795-8.057,16.914-20.188,22.949-30.359c46.158-77.863,93.789-153.547,141.955-230.225
			c28.256-44.983,57.797-90.519,100.788-122.342c20.886-15.47,49.722-26.395,67.487-45.471c2.304-2.473,4.155-4.884,5.6-7.22
			l0.881,0.568c65.94-1.708,131.299-0.44,193.02-27.554c96.916-42.584,175.199-118.452,266.126-170.545l0.389-0.173
			C6430.492,3923.634,6435.88,3938.063,6440.36,3953.13z"/>
		<path id="_x31_80610269" fill="none" stroke="#000000" stroke-width="80" d="M5978.195,3643.376v9.63
			c-24.79,144.913-30.837,263.831-99.156,389.245v4.213c-19.96-3.826-37.474-5.574-44.992-5.371
			c-20.126,0.533-42.159,1.379-64.155,3.908c-18.673-40.422-35.705-209.486-35.779-305.733
			c-0.027-35.409,0.343-69.763,0.703-103.709l4.268-0.331C5811.485,3629.591,5894.694,3631.318,5978.195,3643.376z"/>
		<path id="_x31_80610270" fill="none" stroke="#000000" stroke-width="80" d="M5651.487,4112.774
			c3.415,6.189,6.602,11.689,9.266,17.016c-6.702-8.499-17.82-14.754-34.799-17.457c-26.865-4.276-62.162,10.291-79.799,30.984
			c-24.033,28.208-40.502,144.037,23.708,133.48c-5.797,2.713-10.962,6.217-14.812,11.45
			c-18.469,25.062-22.607,159.922,5.738,226.544v0.009l-6.387,11.148c-37.539,80.962-104.479,131.761-164.404,187.899
			c-34.863,32.659-56.75,54.475-100.639,75.709l-0.742,0.287c-3.721-9.484-7.192-19.047-10.395-28.668
			c-23.57-70.698,5.442-119.396,4.434-189.572c-0.326-22.79,9.674-35.006-4.444-57.603l-2.703,0.789
			c7.954-21.815,13.729-45.239,17.385-70.321c11.36-77.836,0.194-157.676-6.536-235.385
			c-6.201-71.638-25.374-136.799-52.047-201.271h0.01l0.02-13.952c-1.12-65.208,38.641-160.473,92.787-200.474l4.76-2.842
			c43.631,50.594,88.891,99.854,127.291,136.062c32.07,30.241,58.535,65.881,90.529,96.084
			c15.275,14.412,50.676,58.623,100.193,79.575C5649.204,4105.795,5649.591,4109.335,5651.487,4112.774z"/>
		<path id="_x31_80610266" fill="none" stroke="#000000" stroke-width="80" d="M5781.446,4933.497l3.352,3.257
			c-21.783,18.071-44.316,35.326-67.682,51.623c-191.668,133.672-356.832-15.938-428.494-198.53l0.741-0.286
			c43.89-21.236,65.776-43.053,100.639-75.709c59.924-56.141,126.866-106.937,164.405-187.899l6.387-11.148
			c10.988,25.826,26.857,41.388,48.658,36.341c5.898-1.37,11.053-4.239,15.627-8.003l-2.24,7.404
			C5581.392,4683.914,5667.431,4859.865,5781.446,4933.497z"/>
		<path id="_x31_80610271" fill="none" stroke="#000000" stroke-width="80" d="M5964.366,5211.751
			c-52.223,27.471-107.11,51.254-163.766,73.707c-166.266,65.889-356.674,129.864-536.344,70.431
			c-51.176-16.92-101.555-42.546-151.73-83.526c-44.111-36.037-92.919-88.653-124.635-149.859
			c-55.758-107.551-84.807-176.457-107.008-293.831c-6.387-33.811-8.658-74.368-13.84-108.38c-4.86-31.867-2.667-31.142-8.174-67.72
			c85.252,46.325,194.907,71.353,288.844,14.312c62.433-37.913,104.491-88.101,127.803-152.085l2.703-0.789
			c14.117,22.596,4.117,34.811,4.443,57.602c1.01,70.175-28.004,118.873-4.436,189.573c3.203,9.62,6.676,19.183,10.396,28.668
			c71.66,182.59,236.824,332.202,428.494,198.528c23.366-16.297,45.898-33.55,67.682-51.623
			c133.789-110.992,239.232-253.023,335.686-396.547c70.699-105.179,148.641-201.832,230.076-298.8
			c69.302-82.518,122.562-178.059,89.799-288.275c-4.48-15.065-9.869-29.495-16.089-43.311
			c-72.802-161.614-260.157-239.607-446.076-266.443c-83.503-12.057-166.71-13.786-239.112-8.148l-4.268,0.331
			c0.805-75.674,1.582-149.335-2.213-228.201l-2.973-3.2c219.534,3.119,416.738,145.602,592.141,260.934
			c64.313,42.28,118.497,94.061,183.113,135.162c63.684,40.515,140.115,71.334,179.486,139.182
			c11.386,19.618,16.303,44.836,17.127,72.539l-0.297,0.009c-0.525-17.98-3.629-35.665-11.283-52.71
			c-24.633-54.842-73.449-93.691-74.939-8.711c-3.176,181.646-63.285,315.944-158.268,467.404
			c-60.165,95.953-114.331,192.617-186.244,280.035c-51.148,62.164-103.453,123.316-155.858,184.404
			c-50.592,58.974-99.352,121.43-160.351,170.322c-51.795,41.518-126.828,81.369-153.471,145.113
			c-7.684,18.367-5.287,30.132,2.453,37.396c11.359,10.67,34.206,11.661,53.656,9.666c38.344-3.947,73.645-16.363,107.072-33.91
			L5964.366,5211.751z"/>
		<path id="_x31_80610272" fill="none" stroke="#000000" stroke-width="80" d="M5331.89,3790.551l-4.758,2.843
			c-54.147,39.998-93.906,135.263-92.787,200.473l-0.02,13.952h-0.009c-7.112-17.218-14.767-34.38-22.851-51.606
			c-29.004-61.805-86.825-122.378-149.046-152.434c-23.273-11.239-106.636-29.531-108.266-62.165
			c-0.362-7.07,17.339-30.68,20.866-36.853c32.633-56.986,77.469-108.471,144.891-124.271c18.811-4.416,37.66-7.295,56.508-9.869
			l-8.396,12.104C5193.416,3621.294,5260.468,3707.711,5331.89,3790.551z"/>
		<path id="_x31_80610274" fill="none" stroke="#000000" stroke-width="80" d="M5701.709,3405.804
			c3.712,77.11,3.056,149.234,2.27,223.133l-9.165-3.375c-128.633-33.753-286.752,11.699-345.926,137.223l-1.574,3.65
			c-68.18-79.729-130.957-160.858-155.351-197.896c57.638-1.462,168.579-45.028,205.663-61.104
			C5461.69,3479.676,5585.521,3419.489,5701.709,3405.804z"/>
		<path id="_x31_80610273" fill="none" stroke="#000000" stroke-width="80" d="M5703.22,3737.722
			c0.084,96.239,20.078,271.088,38.762,311.499c-14.627,2.833-28.855,6.705-42.066,12.039
			c-16.432,6.228-26.289,12.694-34.262,19.628c-0.009,0.01-0.02,0.02-0.027,0.02c-0.426,0.359-0.852,0.718-1.277,1.076
			c-49.519-20.951-75.42-59.046-90.678-73.468c-32.002-30.203-58.459-65.843-90.538-96.084
			c-40.907-38.571-89.604-91.962-135.817-145.995l1.574-3.651c59.174-125.523,217.291-170.976,345.926-137.223l9.164,3.375
			C5703.599,3664.53,5703.183,3700.546,5703.22,3737.722z"/>
		<path id="_x31_80610311" fill="none" stroke="#000000" stroke-width="80" d="M5909.078,4053.55
			c-30.569-8.745-63.849-12.763-75.033-12.457c-48.208,1.297-107.382,4.32-150.661,27.922
			c-15.949,8.699-40.921,27.383-31.896,43.762c14.846,26.925,25.32,40.791,8.579,83.768c-9.87,25.34-27.163,45.086-47.628,62.123
			c-16.684,13.876-44.441,12.006-57.384,29.577c-25.631,34.785-23.665,280.991,54.396,262.9
			c18.546-4.304,29.715-23.435,38.572-38.364c46.162-77.867,93.791-153.547,141.963-230.229
			c28.252-44.976,57.793-90.516,100.783-122.342c20.889-15.469,49.721-26.389,67.488-45.465
			C5985.681,4085.265,5949.782,4065.208,5909.078,4053.55z"/>
		<path id="_x31_80610312" fill="none" stroke="#000000" stroke-width="80" d="M5803.237,5235.244
			c11.357,10.665,34.208,11.664,53.653,9.664c51.13-5.261,96.849-25.577,139.93-53.038c62.271-39.699,127.192-79.034,177.93-133.343
			c48.407-51.815,89.554-110.006,137.683-161.327c55.232-58.905,93.276-126.535,138.699-193.008
			c30.487-44.617,60.142-89.704,87.682-136.184c50.703-85.593,77.277-171.947,106.681-265.715
			c20.177-64.332,35.794-130.365,45.453-197.082c7.016-48.493,19.755-99.654-1.034-145.933
			c-24.633-54.842-73.446-93.696-74.933-8.715c-3.181,181.651-63.282,315.943-158.267,467.401
			c-60.17,95.959-114.33,192.62-186.246,280.039c-51.146,62.17-103.457,123.312-155.863,184.404
			c-50.589,58.971-99.348,121.431-160.351,170.323c-51.788,41.515-126.821,81.372-153.47,145.114
			C5793.103,5216.209,5795.496,5227.974,5803.237,5235.244z"/>
		<path id="_x31_80610310" fill="none" stroke="#000000" stroke-width="80" d="M5570.665,4276.662
			c-65.148,11.652-48.641-105.015-24.507-133.347c17.633-20.69,52.938-35.257,79.796-30.977c56.977,9.077,48,58.214,27.563,97.368
			c-17.044,32.625-44.464,58.826-81.845,66.753C5571.326,4276.53,5570.995,4276.605,5570.665,4276.662z"/>
	</g>
</g>
</svg>
