<?xml version="1.0" encoding="utf-8"?>
<!-- Generator: Adobe Illustrator 16.0.0, SVG Export Plug-In . SVG Version: 6.00 Build 0)  -->
<!DOCTYPE svg PUBLIC "-//W3C//DTD SVG 1.1//EN" "http://www.w3.org/Graphics/SVG/1.1/DTD/svg11.dtd">
<svg version="1.1" id="Layer_1" xmlns="http://www.w3.org/2000/svg" xmlns:xlink="http://www.w3.org/1999/xlink" x="0px" y="0px"
	 width="9744px" height="6823.471px" viewBox="0 0 9744 6823.471" enable-background="new 0 0 9744 6823.471" xml:space="preserve">
<g transform="scale(1.0)">
	<g id="_x31_80638152" transform=" scale(1.0, 1.0)">
		<path id="_x31_80638154" fill="none" stroke="#010101" stroke-width="80" d="M4905.168,1153.235
			c70.15-16.112,98.508-94.24,170.398-106.738c65.387-11.368,110.697,26.317,157.381,63.338
			c16.838,13.36,35.176,25.977,54.158,36.089c26.842,14.306,50.425,31.504,76.635,47.022
			c-162.76-96.353-270.525-169.91-330.242-352.017c-45.54-138.88,9.096-305.571,100.477-414.295
			c149.637-178.029,402.697-183.457,620.052-162.555c39.677,3.816,78.794,9.492,117.685,14.031
			c110.718,12.95,223.26,22.393,333.52,37.995c164.736,23.315,310.509,60.757,468.424,111.92
			c313.927,101.713,637.041,198.365,926.119,358.073c164.11,90.662,334.451,167.687,482.635,283.218
			c149.398,116.478,283.342,253.151,407.191,394.825c76.842,87.922,118.348,188.826,187.768,280.923
			c91.227,121.043,232.602,184.313,319.391,310.437c175.801,255.475,261.863,532.947,250.314,840.876
			c-5.51,146.812-2.729,277.919-68.812,413.466c-46.039,94.43-109.465,141.75-55.34,246.522
			c111.566,215.928,85.193,449.312,20.998,674.945c-21.85,76.795-43.736,153.532-68.725,228.937
			c-50.197,151.497-112.885,297.693-212.873,428.307c-113.508,148.319-276.318,266.335-431.541,369.832
			c-187.648,125.124-408.074,132.693-617.689,199.384c-116.041,36.938-261.772,31.809-373.641-14.981
			c-131.889-55.15-218.609-161.742-277.489-285.415c-37.45-78.655-54.313-163.894-70.679-248.577
			c-13.509-69.938-16.037-181.646-81.242-226.622c-61.436-42.358-134.74-56.8-185.621-115.065
			c-49.675-56.85-65.062-130.993-64.309-204.021c0.615-59.517,10.986-118.113,26.031-175.72
			c13.149-50.362,30.976-101.408,51.341-149.487c17.319-40.908,44.028-81.989,57.062-124.307
			c23.95-77.726,27.507-148.636,38.302-228.212c-16.158,123.834-97.09,218.14-139.114,331.735
			c-46.329,125.209-114.993,292.82-206.229,392.593c-110.561,120.919-252.396,210.738-355.189,339.154
			c-49.643,62.021-93.777,122.595-77.504,203.762c3.125-13.608,99.58-114.789,116.497-124.273
			c88.267-49.497,141.294,39.194,163.593,109.289c76.689,241.234-115.058,486.538-275.74,650.032
			c-179.714,182.854-413.326,384.401-675.297,428.574c-67.73,11.411-130.93-21.475-197.783-3.384
			c-119.608,32.386-262.54,18.515-356.615,8.734L4905.168,1153.235z"/>
		<path id="_x31_80638155" fill="none" stroke="#010101" stroke-width="80" d="M8996.125,2055.512
			c-86.787-126.123-228.162-189.394-319.385-310.434c-69.424-92.101-110.92-193.003-187.771-280.924
			c-123.846-141.674-257.791-278.348-407.188-394.823c-148.185-115.533-318.526-192.558-482.627-283.221
			c-289.088-159.706-611.575-256.37-925.5-358.083c-106.047-34.357-251.402-81.105-469.054-111.908
			c-110.257-15.603-222.799-25.045-333.518-37.995c-38.89-4.537-78.007-10.215-117.683-14.031
			c-217.357-20.901-470.418-15.473-620.053,162.554c-91.375,108.724-146.021,275.414-100.479,414.295
			c59.716,182.106,167.484,255.664,330.244,352.015c130.201,77.076,280.354,129.561,419.685,189.83
			c160.364,69.372,304.862,172.557,414.391,306.49c109.27,133.606,163.433,295.047,284.743,422.998
			c107.605,113.495,165.245,230.502,193.167,381.744c30.352,164.274,131.108,281.714,253.394,393.244
			c158.859,144.895,174.826,321.485,86.113,521.568c-41.827,94.355-68.894,177.104-82.387,276.544
			c-10.795,79.573-14.35,150.486-38.3,228.214c-13.035,42.313-39.745,83.396-57.065,124.307
			c-20.364,48.079-38.19,99.123-51.34,149.491c-15.045,57.599-25.418,116.202-26.031,175.715
			c-0.755,73.03,14.636,147.172,64.307,204.021c50.893,58.264,124.187,72.71,185.625,115.068
			c65.203,44.977,67.739,156.679,81.25,226.619c16.361,84.685,33.217,169.922,70.668,248.575
			c58.879,123.674,145.601,230.265,277.488,285.418c111.866,46.786,257.6,51.915,373.641,14.98
			c209.613-66.692,430.039-74.263,617.691-199.386c155.221-103.495,318.033-221.51,431.535-369.828
			c99.99-130.616,162.68-276.807,212.879-428.31c24.988-75.406,46.871-152.14,68.725-228.937
			c64.197-225.634,90.566-459.017-21-674.946c-54.125-104.772,9.299-152.088,55.34-246.517
			c66.086-135.55,63.303-266.667,68.812-413.465C9257.992,2588.454,9171.926,2310.988,8996.125,2055.512z M8535.188,3535.065
			c-4.801,79.798-15.176,159.192-27.334,234.508c-30.16,187.876-101.846,368.854-195.689,535.188
			c-47.715,84.589-100.934,168.921-161.528,245.421c-45.103,56.967-104.007,104.882-152.472,161.797
			c-13.824,16.251-72.86,83.663-136.975,143.745c-74.379,69.911-155.687,130.052-180.954,88.874
			c-24.188-39.324,10.806-69.948,45.987-94.471c116.885-81.394,205.312-168.818,297.15-277.326
			c32.664-38.567,63.721-77.791,96.234-115.835c105.975-124.019,196.793-283.637,246.15-437.802
			c37.467-116.954,61.125-229.709,76.033-350.949c2.203-17.948,3.871-35.895,5.078-53.833c2.566-37.445,3.145-74.951,2.344-112.443
			c-0.115-7.589-0.303-15.177-0.648-22.839c-0.189-7.586-0.459-15.174-0.877-22.76c-0.27-7.516-0.686-15.1-1.107-22.686
			c-0.842-15.469-1.914-31.012-2.984-46.48c-0.654-9.221-1.311-18.368-2.125-27.587c-0.41-5.728-0.82-11.38-1.305-17.105
			l-0.078,0.002c-0.979-12.717-2.111-25.357-3.17-37.996c-9.33-108.785-21.936-215.385-46.461-322.045
			c-38.742-168.977-125.004-335.957-228.322-476.17c-79.006-107.065-171.367-210.086-271.902-298.162
			c-118.418-103.791-228.398-215.532-370.195-287.893c-65.268-33.36-127.129-72.845-191.262-108.67
			c-114.477-63.939-264.314-155.214-400.61-135.801c-56.503,8.091-80.036,38.85-125.755,64.495
			c-94.789,53.322-225.471,2.824-296.11-65.762c-35.55-34.478-66.616-73.231-96.235-113.333
			c-31.08-42.027-60.484-85.479-91.715-126.611c-19.918-26.336-84.229-97.278-113.578-159.705
			c-11.428-24.245-17.504-47.189-13.775-65.746c1.789-8.943,5.878-16.86,12.797-23.46c1.367-1.349,2.891-2.627,4.568-3.829
			c23.826-17.741,63.033-0.701,99.285,21.197c30.042,18.148,58.041,39.662,73.438,47.583
			c87.715,45.168,172.93,94.522,260.338,139.396c67.106,34.387,135.575,66.159,207.607,91.283
			c202.764,70.635,391.208,150.308,582.71,246.103c197.097,98.58,364.207,221.049,515.002,366.26
			c52.285,50.274,102.601,103.314,151.549,159.045c16.217,18.403,32.281,37.105,48.191,56.107
			c31.287,37.337,62.35,75.57,92.035,114.852c69.92,92.329,132.457,190.588,174.098,297.639
			c43.967,113.06,64.141,236.643,82.252,359.05c8.939,60.647,17.416,120.923,28.023,179.623
			c5.498,30.466,9.324,61.539,11.771,92.993C8539.314,3412.71,8538.932,3474.023,8535.188,3535.065z"/>
		<path id="_x31_80638239" fill="none" stroke="#010101" stroke-width="80" d="M8985.428,2040.652l-86.656,44.408
			c-78.975-84.597-167.223-160.489-251.826-240.056l68.592-50.965l1.824-1.652
			C8802.004,1880.584,8910.736,1941.07,8985.428,2040.652z"/>
		<path id="_x31_80638238" fill="none" stroke="#010101" stroke-width="80" d="M8898.771,2085.06l-186.654,95.609
			c-58.768-63.021-119.285-124.391-179.611-193.056c-10.143-11.53-20.439-23.135-30.891-34.738l145.33-107.873
			C8731.549,1924.57,8819.797,2000.464,8898.771,2085.06z"/>
		<path id="_x31_80638237" fill="none" stroke="#010101" stroke-width="80" d="M8712.117,2180.67l-61.66,31.644
			c-33.062-41.49-67.031-80.52-114.008-123.764c-32.086-29.521-59.609-63.241-86.906-97.034l52.072-38.64
			c10.451,11.603,20.748,23.204,30.891,34.737C8592.832,2056.277,8653.35,2117.649,8712.117,2180.67z"/>
		<path id="_x31_80638236" fill="none" stroke="#010101" stroke-width="80" d="M8650.457,2212.314l-266.449,136.544
			c-46.416-68.547-95.42-134.544-146.939-199.555l212.475-157.788c27.297,33.794,54.82,67.515,86.906,97.032
			C8583.426,2131.794,8617.395,2170.824,8650.457,2212.314z"/>
		<path id="_x31_80638235" fill="none" stroke="#010101" stroke-width="80" d="M8384.008,2348.859l-103.576,53.017
			c-12.154-16.5-25.072-32.25-39.357-46.8c-39.396-40.103-76.056-82.458-114.617-123.534l110.611-82.238
			C8288.588,2214.313,8337.592,2280.312,8384.008,2348.859z"/>
		<path id="_x31_80638234" fill="none" stroke="#010101" stroke-width="80" d="M8280.432,2401.875l-40.547,20.77l-1.371,0.978
			c-29.689-39.284-60.75-77.516-92.035-114.852c-15.91-19.001-31.975-37.705-48.191-56.108l3.199-2.629l24.971-18.492
			c38.562,41.075,75.221,83.432,114.617,123.534C8255.359,2369.625,8268.277,2385.375,8280.432,2401.875z"/>
		<path id="_x31_80638233" fill="none" stroke="#010101" stroke-width="80" d="M9222.865,2583.049l-4.119,0.775l-79.859,13.626
			c-12.152-123.048-45.768-244.296-108.617-344.414c-38.434-61.165-83.256-116.184-131.498-167.976l86.656-44.406
			c3.693,4.88,7.309,9.839,10.77,14.873C9110.266,2221.402,9186.557,2396.419,9222.865,2583.049z"/>
		<path id="_x31_80638232" fill="none" stroke="#010101" stroke-width="80" d="M9138.887,2597.451l-173.455,29.589
			c-12.209-87.706-41.549-180.191-73.65-227.345c-55.959-82.091-116.746-151.496-179.664-219.025l186.654-95.61
			c48.242,51.792,93.064,106.811,131.498,167.976C9093.119,2353.154,9126.734,2474.402,9138.887,2597.451z"/>
		<path id="_x31_80638231" fill="none" stroke="#010101" stroke-width="80" d="M8965.432,2627.04l-75.277,12.771
			c-1.287-12.787-2.26-23.568-3.062-31.747c-9.439-99.408-81.986-198.411-146.578-279.768
			c-34.371-43.339-61.836-80.558-90.057-115.984l61.66-31.644c62.918,67.531,123.705,136.935,179.664,219.026
			C8923.883,2446.849,8953.223,2539.334,8965.432,2627.04z"/>
		<path id="_x31_80638230" fill="none" stroke="#010101" stroke-width="80" d="M8890.154,2639.812l-309.811,52.872
			c-24.422-55.173-54.033-109.188-81.402-157.939c-36.232-64.608-74.594-126.22-114.934-185.885l266.449-136.544
			c28.221,35.427,55.686,72.644,90.057,115.983c64.592,81.355,137.139,180.359,146.578,279.768
			C8887.895,2616.243,8888.867,2627.024,8890.154,2639.812z"/>
		<path id="_x31_80638229" fill="none" stroke="#010101" stroke-width="80" d="M8580.344,2692.683l-117.725,20.014
			c-3.33-8.829-6.738-17.657-10.219-26.41c-25.305-63.277-62.496-120.807-100.754-177.213
			c-23.861-35.237-45.75-72.719-71.215-107.199l103.576-53.016c40.34,59.664,78.701,121.277,114.934,185.885
			C8526.311,2583.495,8555.922,2637.51,8580.344,2692.683z"/>
		<path id="_x31_80638228" fill="none" stroke="#010101" stroke-width="80" d="M8462.619,2712.697l-50.008,8.563
			c-41.643-107.05-104.18-205.311-174.098-297.639l1.371-0.978l40.547-20.77c25.465,34.48,47.354,71.964,71.215,107.199
			c38.258,56.406,75.449,113.938,100.752,177.212C8455.881,2695.04,8459.287,2703.868,8462.619,2712.697z"/>
		<path id="_x31_80638251" fill="none" stroke="#010101" stroke-width="80" d="M8551.092,1547.441l-92.648,83.739
			c-103.137-149.665-184.357-316.83-338.945-426.151c-60.655-42.918-129.061-77.072-191.236-118.788
			c-9.352-6.254-18.783-12.506-28.212-18.833l57.589-81.167l1.363-2.092c42.16,26.317,83.256,54.429,122.839,85.23
			c149.349,116.427,283.294,253.135,407.173,394.83C8512.377,1490.965,8532.535,1518.938,8551.092,1547.441z"/>
		<path id="_x31_80638250" fill="none" stroke="#010101" stroke-width="80" d="M8458.443,1631.181l-136.617,123.431
			c-19.061-21.806-37.891-43.909-56.34-66.314c-154.217-187.895-314.834-325.666-493.519-440.457l128.082-180.435
			c9.429,6.327,18.86,12.58,28.212,18.833c62.175,41.715,130.581,75.871,191.236,118.789
			C8274.086,1314.351,8355.307,1481.516,8458.443,1631.181z"/>
		<path id="_x31_80638249" fill="none" stroke="#010101" stroke-width="80" d="M8321.826,1754.612l-59.863,54.1
			c-32.467-28.549-62.27-59.944-80.414-97.455c-55.82-115.277-158.061-177.076-258.713-257.563
			c-57.768-46.215-129.985-94.03-201.248-134.783l50.38-71.068c178.685,114.791,339.302,252.562,493.521,440.456
			C8283.934,1710.703,8302.766,1732.806,8321.826,1754.612z"/>
		<path id="_x31_80638248" fill="none" stroke="#010101" stroke-width="80" d="M8181.549,1711.255
			c18.145,37.511,47.947,68.906,80.414,97.456l-176.327,159.298c-147.156-166.296-330.177-307.393-529.538-415.927l165.488-233.175
			c71.263,40.754,143.482,88.57,201.25,134.784C8023.488,1534.18,8125.729,1595.979,8181.549,1711.255z"/>
		<path id="_x31_80638247" fill="none" stroke="#010101" stroke-width="80" d="M8085.636,1968.01l-116.382,105.197
			c-36.174-36.852-72.424-73.632-111.035-109.275c-46.672-43.099-86.598-81.412-142.533-112.611
			c-66.816-37.216-134.325-75.692-199.245-116.049c-20.927-13.013-43.064-24.303-65.204-35.443l104.861-147.744
			C7755.461,1660.619,7938.481,1801.714,8085.636,1968.01z"/>
		<path id="_x31_80638246" fill="none" stroke="#010101" stroke-width="80" d="M7969.254,2073.209l-21.375,19.283l-1.141,1.125
			c-150.796-145.211-317.904-267.679-515.002-366.26l19.5-27.53c22.14,11.143,44.277,22.432,65.204,35.445
			c64.92,40.354,132.429,78.832,199.245,116.049c55.936,31.197,95.861,69.513,142.533,112.611
			C7896.83,1999.575,7933.08,2036.354,7969.254,2073.209z"/>
		<path id="_x31_80638263" fill="none" stroke="#010101" stroke-width="80" d="M6717.993,442.366l-0.905,2.686l-8.701,109.068
			c-60.246-22.013-119.879-44.031-177.668-63.608c-109.604-37.19-214.364-22.482-328.772-42.15
			c-78.542-13.542-169.512-36.959-265.058-59.003l-49.982-109.442c105.658,12.07,212.757,21.378,317.74,36.207
			c164.707,23.304,311.142,60.735,469.031,111.92C6688.45,432.843,6703.221,437.566,6717.993,442.366z"/>
		<path id="_x31_80638262" fill="none" stroke="#010101" stroke-width="80" d="M6708.387,554.12l-18.701,233.254
			c-141.471-37.544-284.983-71.426-433.113-110.63c-79.572-21.048-154.793-58.202-230.686-92.522l-88.998-194.861
			c95.546,22.042,186.516,45.461,265.058,59.001c114.408,19.668,219.169,4.961,328.772,42.15
			C6588.508,510.089,6648.141,532.107,6708.387,554.12z"/>
		<path id="_x31_80638261" fill="none" stroke="#010101" stroke-width="80" d="M6689.686,787.374l-7.912,98.794
			c-148.454-59.292-304.801-91.143-454.502-155.409c-61.262-26.321-117.196-58.04-174.81-88.332l-26.573-58.207
			c75.894,34.32,151.115,71.473,230.688,92.522C6404.7,715.947,6548.215,749.83,6689.686,787.374z"/>
		<path id="_x31_80638260" fill="none" stroke="#010101" stroke-width="80" d="M6681.771,886.168l-22.873,285.143
			c-118.728-57.953-232.973-121.374-337.775-191.859c-53.285-35.831-109.972-94.702-162.35-132.92
			c-6.211-4.566-12.575-8.98-19.091-13.247l-87.223-190.856c57.613,30.292,113.55,62.01,174.81,88.332
			C6376.973,795.025,6533.316,826.877,6681.771,886.168z"/>
		<path id="_x31_80638259" fill="none" stroke="#010101" stroke-width="80" d="M6658.898,1171.312l-13.883,173.618
			c-126.714-66.451-246.994-144.928-365.527-225.502c-3.911-2.649-8.279-5.592-13.111-8.681l-126.696-277.461
			c6.516,4.265,12.882,8.681,19.093,13.247c52.378,38.219,109.064,97.091,162.35,132.92
			C6425.926,1049.938,6540.173,1113.358,6658.898,1171.312z"/>
		<path id="_x31_80638258" fill="none" stroke="#010101" stroke-width="80" d="M6645.016,1344.93l-3.597,45.043
			c-87.406-44.874-172.619-94.227-260.338-139.396c-15.396-7.921-43.396-29.433-73.437-47.584l0.528-0.822l-41.796-91.426
			c4.832,3.089,9.2,6.031,13.111,8.68C6398.021,1200.001,6518.304,1278.479,6645.016,1344.93z"/>
		<path id="_x31_80638257" fill="none" stroke="#010101" stroke-width="80" d="M7959.002,984.149l-1.363,2.092l-57.589,81.167
			c-275.372-181.32-575.958-331.572-896.845-416.043c-96.402-25.385-196.451-61.309-294.818-97.246l8.701-109.069l0.905-2.686
			c299.856,96.611,605.665,191.54,881.198,343.769C7719.486,852.556,7843.186,911.737,7959.002,984.149z"/>
		<path id="_x31_80638256" fill="none" stroke="#010101" stroke-width="80" d="M7900.05,1067.408l-128.082,180.435
			c-172.86-111.113-362.652-200.746-579.892-293.594c-167.469-71.573-333.453-121.876-502.393-166.876l18.701-233.252
			c98.366,35.936,198.414,71.86,294.816,97.247C7324.092,735.836,7624.678,886.088,7900.05,1067.408z"/>
		<path id="_x31_80638255" fill="none" stroke="#010101" stroke-width="80" d="M7771.968,1247.845l-50.38,71.066
			c-31.953-18.211-63.672-35.01-93.854-49.586c-81.42-39.338-169.416-64.266-257.844-83.834
			c-87.665-19.423-159.673-56.154-243.573-86.62c-115.587-42.054-228.457-105.411-336.48-162.924
			c-35.397-18.854-71.466-35.099-108.067-49.775l7.912-98.793c168.938,44.997,334.924,95.301,502.393,166.875
			C7409.315,1047.096,7599.107,1136.729,7771.968,1247.845z"/>
		<path id="_x31_80638254" fill="none" stroke="#010101" stroke-width="80" d="M7721.586,1318.909l-165.488,233.176
			c-92.861-50.562-189.201-94.028-287.185-129.669c-200.866-73.031-411.784-154.393-610.013-251.104l22.871-285.143
			c36.6,14.679,72.668,30.922,108.068,49.775c108.024,57.515,220.893,120.871,336.48,162.925
			c83.899,30.466,155.907,67.197,243.572,86.622c88.428,19.566,176.424,44.495,257.844,83.833
			C7657.916,1283.901,7689.635,1300.7,7721.586,1318.909z"/>
		<path id="_x31_80638253" fill="none" stroke="#010101" stroke-width="80" d="M7556.098,1552.085l-104.861,147.742
			c-18.306-9.236-36.615-18.323-54.393-28.158c-72.104-40.078-143.005-69.674-218.58-101.468
			c-161.49-67.896-328.877-123.623-486.135-201.225c-15.857-7.842-31.56-15.833-47.111-24.046l13.881-173.619
			c198.232,96.712,409.15,178.074,610.015,251.106C7366.896,1458.058,7463.236,1501.524,7556.098,1552.085z"/>
		<path id="_x31_80638252" fill="none" stroke="#010101" stroke-width="80" d="M7451.236,1699.828l-19.5,27.528
			c-191.502-95.795-379.946-175.467-582.711-246.103c-72.029-25.125-140.5-56.896-207.606-91.284l3.595-45.042
			c15.554,8.215,31.256,16.207,47.113,24.046c157.258,77.603,324.645,133.329,486.135,201.226
			c75.575,31.792,146.477,61.389,218.58,101.467C7414.621,1681.505,7432.931,1690.592,7451.236,1699.828z"/>
		<path id="_x31_80638268" fill="none" stroke="#010101" stroke-width="80" d="M5886.906,279.917l49.982,109.442
			c-122.855-28.309-253.189-54.18-373.99-53.489l-57.844-76.792c82.949-6.805,168.088-2.688,248.359,5.036
			c39.676,3.791,78.827,9.52,117.666,14.064C5876.354,278.806,5881.63,279.361,5886.906,279.917z"/>
		<path id="_x31_80638267" fill="none" stroke="#010101" stroke-width="80" d="M5905.756,535.503
			c-27.096-9.095-54.488-16.626-82.557-21.843c-47.496-8.866-98.525-21.873-150.305-31.673l-109.996-146.116
			c120.801-0.693,251.135,25.18,373.99,53.491l88.998,194.86C5986.218,566.292,5946.398,549.184,5905.756,535.503z"/>
		<path id="_x31_80638266" fill="none" stroke="#010101" stroke-width="80" d="M6025.887,584.222l113.796,249.062
			c-30.974-20.748-64.071-38.798-96.03-57.902c-71.811-42.907-150.141-90.306-233.838-111.77c-0.076,0-0.076,0-0.076,0
			l-136.842-181.625c51.779,9.801,102.811,22.807,150.305,31.673c28.068,5.217,55.461,12.748,82.557,21.842
			c54.014,20.146,25.767,8.275,46.465,17.268C5971.35,561.082,6007.949,575.598,6025.887,584.222z"/>
		<path id="_x31_80638265" fill="none" stroke="#010101" stroke-width="80" d="M6139.681,833.284l126.696,277.462
			c-39.787-25.59-106.977-61.614-144.271-32.611l-312.293-414.522c83.697,21.464,162.027,68.861,233.838,111.769
			C6075.609,794.484,6108.709,812.537,6139.681,833.284z"/>
		<path id="_x31_80638264" fill="none" stroke="#010101" stroke-width="80" d="M6266.379,1110.746l41.798,91.426l-0.53,0.823
			c-36.252-21.898-75.461-38.938-99.287-21.197c-1.676,1.202-3.199,2.479-4.568,3.83l-7.301-8.726l-74.383-98.767
			C6159.402,1049.132,6226.592,1085.155,6266.379,1110.746z"/>
		<path id="_x31_80638273" fill="none" stroke="#010101" stroke-width="80" d="M5562.898,335.871
			c-144.49,0.798-275.416,39.663-363.615,157.891c-9.561,12.87-19.729,27.381-29.354,43.155l-78.577-51.86
			c12.81-20.782,26.922-40.382,42.039-58.354c94.418-112.323,229.827-155.985,371.586-167.625c0,0,0,0,0.076,0.001L5562.898,335.871
			z"/>
		<path id="_x31_80638272" fill="none" stroke="#010101" stroke-width="80" d="M5191.933,551.481l-22.004-14.566
			c9.624-15.772,19.794-30.285,29.354-43.155c88.199-118.228,219.125-157.092,363.615-157.891l109.994,146.115
			c-77.936-14.81-157.672-22.465-230.06,1.893c-57.595,19.412-131.276,60.817-177.228,116.225L5191.933,551.481z"/>
		<path id="_x31_80638271" fill="none" stroke="#010101" stroke-width="80" d="M5672.895,481.986l136.842,181.625
			c-19.357-4.911-39.014-8.482-58.889-10.268c-47.396-4.252-105.332,7.645-142.615,38.955
			c-35.611,29.958-49.341,65.106-48.545,102.081l-294.082-194.275c45.953-55.408,119.635-96.814,177.228-116.225
			C5515.225,459.521,5594.957,467.176,5672.895,481.986z"/>
		<path id="_x31_80638270" fill="none" stroke="#010101" stroke-width="80" d="M5809.812,663.612l312.293,414.522
			c-8.98,6.915-16.264,17.682-20.998,33.197c-4.136,13.423-3.688,27.111-0.025,40.548l-541.396-357.501
			c-0.798-36.973,12.936-72.123,48.545-102.08c37.283-31.31,95.221-43.206,142.615-38.955c19.877,1.785,39.533,5.356,58.889,10.269
			C5809.736,663.611,5809.736,663.611,5809.812,663.612z"/>
		<path id="_x31_80638269" fill="none" stroke="#010101" stroke-width="80" d="M6196.488,1176.901l7.301,8.726
			c-6.919,6.6-11.007,14.518-12.797,23.458l-4.972-1.078l-84.94-56.127c-3.66-13.439-4.109-27.126,0.025-40.549
			c4.736-15.514,12.018-26.281,20.998-33.196L6196.488,1176.901z"/>
		<path id="_x31_80638279" fill="none" stroke="#010101" stroke-width="80" d="M6193.046,1604.829l1.331,5.867
			c-20.382,4.47-39.082,8.556-54.73,11.875l-1.217,1.125c-100.38-102.438-222.504-183.283-355.597-240.905
			c-139.366-60.253-289.47-112.761-419.677-189.824c-162.775-96.312-270.575-169.9-330.242-352.037
			c-38.022-115.856-6.223-251.143,58.434-355.875l78.577,51.86c-26.679,43.58-49.639,97.102-47.366,154.599
			c3.492,87.325,58.909,244.347,119.987,310.55c150.039,162.479,395.009,238.374,593.669,328.758
			c102.465,46.542,175.195,88.776,256.957,166.28C6129.182,1531.205,6161.986,1566.299,6193.046,1604.829z"/>
		<path id="_x31_80638278" fill="none" stroke="#010101" stroke-width="80" d="M6201.135,1602.908l1.33,6.016
			c-2.747,0.617-5.42,1.23-8.088,1.771l-1.331-5.867c-31.062-38.53-63.866-73.625-99.872-107.727
			c-81.764-77.504-154.492-119.736-256.959-166.279c-198.658-90.387-443.63-166.281-593.669-328.759
			c-61.076-66.204-116.493-223.225-119.987-310.549c-2.272-57.498,20.689-111.021,47.368-154.6l22.006,14.565
			c-1.236,12.808-14.062,30.464-17.981,41.43c-27.203,76.248-19.653,165.104,7.02,242.655
			c29.697,86.605,79.354,145.603,144.222,206.273c55.888,52.255,141.029,102.279,211.779,131.429
			c114.468,47.123,218.005,92.842,333.074,137.952c49.763,19.415,76.223,39.08,119.781,70.668
			c43.253,31.444,80.016,64.052,120.763,98.638C6122.79,1490.779,6224.135,1587.331,6201.135,1602.908z"/>
		<path id="_x31_80638277" fill="none" stroke="#010101" stroke-width="80" d="M6264.965,1592.751l0.469,2.154
			c-21.602,4.852-42.973,9.625-62.971,14.019l-1.328-6.016c23-15.577-78.345-112.129-90.545-122.38
			c-40.747-34.586-77.51-67.194-120.763-98.639c-43.559-31.59-70.019-51.255-119.781-70.669
			c-115.069-45.109-218.606-90.828-333.074-137.952c-70.748-29.148-155.892-79.173-211.779-131.428
			c-64.868-60.67-114.524-119.667-144.222-206.272c-26.674-77.551-34.223-166.408-7.02-242.655
			c3.921-10.968,16.743-28.624,17.981-41.431l73.673,48.623c-17.242,20.742-30.579,43.462-37.792,67.698
			c-41.933,141.538,76.702,273.154,176.833,356.322c121.002,100.571,269.395,132.11,412.127,192.858
			c102.301,43.569,203.604,101.434,289.531,171.318c9.361,7.592,19.104,15.479,28.773,23.666
			c24.091,20.205,48.043,42.269,65.891,66.391C6225.82,1512.021,6240.646,1557.964,6264.965,1592.751z"/>
		<path id="_x31_80638276" fill="none" stroke="#010101" stroke-width="80" d="M6138.578,1408.068l-3.496,3.897
			c-9.667-8.186-19.409-16.073-28.771-23.666c-85.928-69.885-187.23-127.747-289.532-171.317
			c-142.73-60.748-291.125-92.287-412.127-192.858c-100.133-83.168-218.767-214.784-176.833-356.321
			c7.214-24.236,20.548-46.957,37.792-67.697l294.08,194.273c2.355,104.521,120.772,222.745,188.428,275.283
			C5883.04,1174.291,6034.365,1272.921,6138.578,1408.068z"/>
		<path id="_x31_80638275" fill="none" stroke="#010101" stroke-width="80" d="M6318.35,1434.534
			c31.23,41.13,60.633,84.585,91.715,126.61l-3.274,2.332c-37.248,8.095-89.835,19.878-141.354,31.43l-0.471-2.154
			c-24.318-34.787-39.143-80.73-63.99-114.396c-17.848-24.121-41.798-46.186-65.893-66.391l3.494-3.898
			c-104.211-135.147-255.536-233.776-390.465-338.408c-67.658-52.537-186.07-170.761-188.428-275.283l541.396,357.502
			c12.924,48.637,67.334,95.546,97.97,125.523l5.718-2.573C6234.119,1337.255,6298.43,1408.197,6318.35,1434.534z"/>
		<path id="_x31_80638274" fill="none" stroke="#010101" stroke-width="80" d="M6204.771,1274.83l-5.716,2.571
			c-30.638-29.976-85.05-76.886-97.972-125.522l84.939,56.127l4.973,1.078C6187.268,1227.641,6193.342,1250.585,6204.771,1274.83z"
			/>
		<path id="_x31_80638245" fill="none" stroke="#010101" stroke-width="80" d="M8717.361,1792.387l-1.824,1.652l-68.592,50.965
			c-26.793-25.242-53.207-50.787-78.859-77.155c-40.938-42.099-76.467-88.482-109.643-136.668l92.648-83.739
			c42.658,65.229,77.383,133.564,125.691,197.635C8689.396,1761.87,8702.998,1777.542,8717.361,1792.387z"/>
		<path id="_x31_80638244" fill="none" stroke="#010101" stroke-width="80" d="M8646.945,1845.004l-145.33,107.875
			c-58.01-64.517-120.002-129.969-179.789-198.266l136.617-123.431c33.172,48.186,68.705,94.569,109.643,136.668
			C8593.738,1794.217,8620.152,1819.762,8646.945,1845.004z"/>
		<path id="_x31_80638243" fill="none" stroke="#010101" stroke-width="80" d="M8501.615,1952.877l-52.072,38.64
			c-31.832-39.492-63.354-78.984-101.57-111.806c-26.707-23.011-57.385-45.919-86.01-71l59.863-54.1
			C8381.613,1822.909,8443.605,1888.362,8501.615,1952.877z"/>
		<path id="_x31_80638242" fill="none" stroke="#010101" stroke-width="80" d="M8449.543,1991.517l-212.475,157.787
			c-44.061-55.618-89.951-110.479-137.676-165.699c-4.537-5.246-9.07-10.422-13.757-15.595l176.327-159.298
			c28.625,25.08,59.303,47.989,86.01,71C8386.189,1912.531,8417.711,1952.025,8449.543,1991.517z"/>
		<path id="_x31_80638241" fill="none" stroke="#010101" stroke-width="80" d="M8237.068,2149.303l-110.611,82.238
			c-16.287-17.438-32.952-34.572-50.307-51.181c-36.773-35.213-71.798-71.257-106.896-107.153l116.382-105.198
			c4.687,5.172,9.22,10.349,13.757,15.595C8147.117,2038.825,8193.008,2093.686,8237.068,2149.303z"/>
		<path id="_x31_80638240" fill="none" stroke="#010101" stroke-width="80" d="M8126.457,2231.541l-24.971,18.492l-3.199,2.629
			c-48.948-55.731-99.264-108.772-151.549-159.045l1.141-1.126l21.375-19.286c35.099,35.895,70.123,71.94,106.896,107.153
			C8093.505,2196.969,8110.17,2214.104,8126.457,2231.541z"/>
		<path id="_x31_80638227" fill="none" stroke="#010101" stroke-width="80" d="M9222.865,2583.049
			c19.682,100.967,27.693,205.297,23.648,313.363c-2.23,58.424-3.098,114.308-7.486,169.029l-7.721-0.538l-117.049,2.449
			c4.465-54.87,5.182-110.677,13.863-162.455c15.949-95.732,21.225-202.245,10.766-307.448l79.859-13.626L9222.865,2583.049z"/>
		<path id="_x31_80638226" fill="none" stroke="#010101" stroke-width="80" d="M9138.887,2597.451
			c10.459,105.203,5.184,211.717-10.766,307.448c-8.682,51.777-9.398,107.587-13.863,162.456l-206.973,4.321
			c19.453-36.604,38.648-48.655,75.27-90.45c5.473-6.217,9.088-16.587,11.314-29.85c12.234-74.123-20.221-239.279-24.361-288.132
			c-0.975-11.898-2.336-24.015-4.078-36.204L9138.887,2597.451z"/>
		<path id="_x31_80638225" fill="none" stroke="#010101" stroke-width="80" d="M8969.508,2663.244
			c4.141,48.852,36.596,214.008,24.361,288.133l-11.469-1.771c-57.451,2.072-82.588-211.428-92.246-309.793l75.277-12.771
			C8967.172,2639.229,8968.533,2651.346,8969.508,2663.244z"/>
		<path id="_x31_80638224" fill="none" stroke="#010101" stroke-width="80" d="M8982.4,2949.605l11.469,1.772
			c-2.227,13.26-5.842,23.63-11.314,29.849c-36.621,41.796-55.816,53.846-75.27,90.451l-252.279,5.259
			c-2.947-84.798-13.303-169.989-30.453-252.967c-8.928-43.087-24.965-87.534-44.209-131.287l309.811-52.871
			C8899.812,2738.177,8924.949,2951.677,8982.4,2949.605z"/>
		<path id="_x31_80638223" fill="none" stroke="#010101" stroke-width="80" d="M8655.006,3076.937l-99.404,2.091
			c-3.631-23.855-7.57-47.636-12.121-71.409c-18.994-100.229-44.779-199.289-80.861-294.922l117.725-20.015
			c19.246,43.754,35.279,88.201,44.209,131.288C8641.703,2906.948,8652.057,2992.138,8655.006,3076.937z"/>
		<path id="_x31_80638222" fill="none" stroke="#010101" stroke-width="80" d="M8555.602,3079.029l-60.736,1.281
			c-18.113-122.408-38.289-245.99-82.254-359.05l50.008-8.563c36.084,95.633,61.867,194.694,80.861,294.923
			C8548.031,3031.395,8551.971,3055.175,8555.602,3079.029z"/>
		<path id="_x31_80638213" fill="none" stroke="#010101" stroke-width="80" d="M8572.105,3353.829l67.633,1.721
			c-3.383,57.018-16.973,121.11-4.629,175.184l-0.639,10.198c-18.494-0.976-37.07-2.027-55.488-3.225l0.07-1.565
			C8584.174,3475.838,8574.014,3414.531,8572.105,3353.829z"/>
		<path id="_x31_80638212" fill="none" stroke="#010101" stroke-width="80" d="M8572.105,3353.829
			c1.908,60.703,12.068,122.009,6.947,182.313l-0.07,1.565c-13.604-0.791-27.133-1.654-40.664-2.52l-3.131-0.124
			c3.744-61.042,4.127-122.351-0.529-182.14h0.23L8572.105,3353.829z"/>
		<path id="_x31_80638216" fill="none" stroke="#010101" stroke-width="80" d="M9141.131,3368.193l3.895,0.192
			c-36.223,60.542-64.492,107.112-22.674,188.043c5.793,11.191,11.195,22.386,16.217,33.658l-0.152,0.074
			c-41.227-8.094-83.209-14.622-125.797-20.028l0.002-0.075c-31.195-3.931-62.691-7.263-94.342-10.222
			c-0.461,0.003-0.842-0.069-1.223-0.139l0.875-8.786c-14.52-30.544-18.506-78.951-5.596-110.227
			c11.777-28.661,29.99-53.5,50.584-76.946L9141.131,3368.193z"/>
		<path id="_x31_80638214" fill="none" stroke="#010101" stroke-width="80" d="M8635.162,3541.004c-0.229,0-0.459,0.004-0.691-0.07
			l0.639-10.198c-12.344-54.073,1.246-118.166,4.629-175.184l170.646,4.288c-13.229,59.4-14.84,120.053-4.594,182.027l-0.723,9.158
			c-11.615-0.806-23.312-1.534-34.928-2.266c-19.184-1.119-38.293-2.238-57.555-3.358
			C8686.828,3543.959,8660.996,3542.518,8635.162,3541.004z"/>
		<path id="_x31_80638215" fill="none" stroke="#010101" stroke-width="80" d="M8810.385,3359.835l152.535,3.905
			c-20.594,23.445-38.807,48.283-50.584,76.944c-12.912,31.277-8.924,79.681,5.596,110.229l-0.875,8.784
			c-36.617-3.293-73.463-6.14-110.533-8.536c-0.459-0.072-0.996-0.142-1.455-0.138l0.723-9.158
			C8795.545,3479.89,8797.156,3419.238,8810.385,3359.835z"/>
		<path id="_x31_80638221" fill="none" stroke="#010101" stroke-width="80" d="M9231.307,3064.906l7.721,0.538
			c-6.691,82.785-21.576,162.811-61.361,244.436c-10.512,21.51-21.881,40.642-32.641,58.506l-3.895-0.192l-178.211-4.453
			c42.543-48.76,95.129-91.644,120.658-151.063c19.338-45.013,26.576-94.77,30.68-145.324L9231.307,3064.906z"/>
		<path id="_x31_80638220" fill="none" stroke="#010101" stroke-width="80" d="M8907.285,3071.675l206.973-4.321
			c-4.104,50.553-11.342,100.31-30.68,145.323c-25.529,59.422-78.115,102.306-120.658,151.063l-152.535-3.902
			c4.033-18.036,9.139-35.933,15.24-53.762c20.486-59.38,22.477-89.232,65.863-199.532
			C8896.996,3092.588,8902.135,3081.238,8907.285,3071.675z"/>
		<path id="_x31_80638219" fill="none" stroke="#010101" stroke-width="80" d="M8655.006,3076.937l252.279-5.259
			c-5.148,9.564-10.289,20.911-15.797,34.866c-43.387,110.297-45.377,140.15-65.863,199.532
			c-6.102,17.827-11.207,35.727-15.24,53.759l-170.646-4.286c0.426-6.18,0.627-12.282,0.75-18.31
			c0.861-56.629,12.461-105.007,14.471-161.939C8656.096,3142.704,8656.084,3109.818,8655.006,3076.937z"/>
		<path id="_x31_80638218" fill="none" stroke="#010101" stroke-width="80" d="M8655.006,3076.937
			c1.078,32.881,1.09,65.765-0.047,98.364c-2.01,56.935-13.609,105.311-14.471,161.939c-0.123,6.027-0.324,12.13-0.75,18.312
			l-67.633-1.719c-0.262-6.47-0.369-12.943-0.326-19.418c0.115-53.72,6.422-106.52-1.791-159.362
			c-4.896-32.031-9.412-64.065-14.387-96.021L8655.006,3076.937z"/>
		<path id="_x31_80638217" fill="none" stroke="#010101" stroke-width="80" d="M8572.105,3353.829l-37.217-0.907l-0.23,0.002
			c-2.447-31.453-6.273-62.526-11.773-92.992c-10.607-58.698-19.084-118.978-28.02-179.622l60.736-1.282
			c4.975,31.958,9.49,63.991,14.387,96.022c8.211,52.841,1.904,105.643,1.791,159.36
			C8571.736,3340.888,8571.844,3347.36,8572.105,3353.829z"/>
		<path id="_x31_80638188" fill="none" stroke="#010101" stroke-width="80" d="M7924.244,3520.368
			c0.197-0.052,0.397-0.105,0.598-0.154c4.331-1.103,8.658-2.217,12.977-3.349c0.452-0.117,0.904-0.238,1.354-0.355
			c4.069-1.066,8.138-2.145,12.194-3.233c0.748-0.2,1.494-0.406,2.246-0.607c3.76-1.015,7.514-2.036,11.261-3.064
			c1.138-0.312,2.267-0.632,3.4-0.948c3.364-0.932,6.726-1.865,10.073-2.811c1.595-0.451,3.178-0.908,4.767-1.362
			c2.894-0.823,5.788-1.645,8.667-2.474c2.234-0.648,4.457-1.306,6.683-1.956c2.234-0.653,4.478-1.302,6.704-1.959
			c4.455-1.317,8.896-2.647,13.319-3.987c2.448-0.741,4.903-1.463,7.366-2.178c0.812-0.235,1.627-0.465,2.438-0.697
			c1.67-0.479,3.34-0.95,5.012-1.417c0.523-0.146,1.045-0.295,1.564-0.438c-0.68-44.144-4.103-88.26-10.358-132.057
			c-33.028-231.334-122.104-435.912-237.559-638.546c-42.511-74.595-87.177-150.645-143.231-216.546
			c-27.242-32.025-61.396-61.453-97.444-88.273c-57.616,19.294-113.521,46.051-167.454,79.245c-0.539,0.33-1.072,0.671-1.609,1.002
			c-2.391,1.477-4.775,2.957-7.157,4.459c-1.022,0.647-2.044,1.308-3.069,1.961c-1.893,1.202-3.783,2.399-5.668,3.619
			c-2.909,1.877-5.805,3.772-8.698,5.686l-13.077-1.682c119.951,94.18,214.099,216.961,281.098,354.018
			c101.699,208.057,180.589,440.735,180.631,673.329c-0.004,3.969-0.037,7.93-0.094,11.884
			c36.223-6.651,72.973-14.672,109.453-23.69c0.025-0.006,0.051-0.014,0.076-0.019
			C7915.221,3522.649,7919.736,3521.515,7924.244,3520.368z"/>
		<path id="_x31_80638191" fill="none" stroke="#010101" stroke-width="80" d="M8133.911,2509.582
			c29.381,39.835,61.315,89.475,81.548,135.169c21.898,49.431,42.576,92.376,56.727,139.7
			c15.547,51.969,19.742,57.911,36.139,95.211c15.41,35.037,40.842,90.459,49.023,126.11
			c12.406,54.119,10.436,111.325,26.268,159.777c15.373,47.047,48.688,85.323,53.287,138.912
			c-9.328-108.775-21.992-215.361-46.461-322.03c-38.758-168.962-125.014-335.981-228.365-476.156
			c-18.301-24.818-37.321-49.413-56.99-73.654l-26.041,1.252l24.562-0.055C8119.027,2461.601,8115.61,2484.763,8133.911,2509.582z"
			/>
		<path id="_x31_80638190" fill="none" stroke="#010101" stroke-width="80" d="M8440.09,3342.42
			c-1.031-12.652-2.098-25.312-3.188-37.961c-4.6-53.587-37.914-91.862-53.287-138.91c-15.834-48.454-13.861-105.658-26.268-159.777
			c-8.182-35.652-33.615-91.076-49.023-126.111c-16.398-37.301-20.592-43.243-36.139-95.211
			c-14.15-47.324-34.828-90.27-56.727-139.701c-20.232-45.693-52.167-95.333-81.548-135.168
			c-18.301-24.819-14.884-47.981-30.304-75.765l-24.562,0.055l-16.689,0.801c-1.525-0.243-3.045-0.496-4.554-0.753l-4.499,0.009
			c-8.247-1.961-15.883-3.824-22.997-5.598c-12.315-2.866-24.413-6.115-36.788-9.579c-30.42-8.261-50.678-14.572-77.736-21.067
			c-1.083-0.259-2.162-0.517-3.256-0.774c-0.34-0.081-0.683-0.161-1.027-0.241c-1.756-0.411-3.521-0.821-5.309-1.229
			c-2.62-0.597-5.236-1.167-7.852-1.73c-35.584-7.606-74.359-12.583-113.447-14.541c-46.721-1.9-92.641,1.3-137.658,9.124
			c28.549,22.7,54.533,48.663,75.729,72.318c35.86,40.03,72.377,76.738,105.51,120.347
			c133.525,175.732,209.313,350.925,256.859,565.083c5.85,26.345,74.184,300.726,41.791,320.957
			c8.154-1.921,16.297-3.883,24.405-5.925c23.513-6.148,46.054-12.4,66.419-19.745
			C8289.719,3415.458,8440.09,3342.42,8440.09,3342.42z"/>
		<path id="_x31_80638189" fill="none" stroke="#010101" stroke-width="80" d="M7643.719,2502.224
			c56.055,65.901,100.721,141.95,143.23,216.548c115.455,202.632,204.531,407.212,237.56,638.544
			c6.256,43.797,9.679,87.912,10.358,132.056c0.417-0.115,0.839-0.228,1.258-0.343c1.578-0.433,3.161-0.862,4.746-1.288
			c0.943-0.256,1.886-0.509,2.834-0.76c1.674-0.443,3.348-0.881,5.024-1.318c0.825-0.213,1.651-0.431,2.479-0.644
			c2.351-0.603,4.706-1.203,7.064-1.791c0.142-0.035,0.28-0.072,0.422-0.107c2.513-0.628,5.032-1.249,7.552-1.864
			c0.829-0.2,1.658-0.403,2.49-0.602c1.723-0.419,3.451-0.838,5.18-1.249c0.94-0.224,1.879-0.448,2.815-0.671
			c1.673-0.399,3.345-0.796,5.017-1.188c0.899-0.213,1.801-0.423,2.701-0.637c1.853-0.433,3.711-0.866,5.563-1.295
			c0.667-0.155,1.339-0.314,2.007-0.47c5.987-1.389,11.985-2.768,17.981-4.154c1.459-0.338,2.925-0.674,4.384-1.015
			c1.121-0.261,2.246-0.521,3.367-0.782c1.491-0.347,2.978-0.691,4.471-1.044c1.088-0.254,2.174-0.508,3.26-0.764
			c0.548-0.127,1.098-0.258,1.645-0.386c32.376-20.268-35.947-294.613-41.797-320.955
			c-47.546-214.158-123.333-389.349-256.857-565.083c-33.135-43.609-69.651-80.319-105.51-120.347
			c-21.194-23.655-47.18-49.617-75.73-72.317c-34.191,5.942-67.854,14.573-100.956,25.655
			C7582.32,2440.771,7616.477,2470.199,7643.719,2502.224z"/>
		<path id="_x31_80638187" fill="none" stroke="#010101" stroke-width="80" d="M7620.641,2862.259
			c-92.664-189.556-237.275-351.823-430.229-448.85c-181.651-91.338-386.082-117.872-586.523-142.111l-5.887-2.151
			c37.09,67.946,61.644,141.164,77.095,224.872c30.35,164.275,130.081,282.792,253.394,393.244
			c172.72,154.708,165.348,336.642,86.115,521.568c-40.633,94.842-68.894,177.104-82.389,276.544
			c-10.795,79.573-14.352,150.486-38.3,228.214c-13.035,42.313-39.745,83.396-57.063,124.307
			c-20.366,48.079-38.19,99.123-51.34,149.491c-15.045,57.599-25.418,116.202-26.031,175.715
			c-0.755,73.03,14.634,147.17,64.307,204.021c50.891,58.264,124.187,72.708,185.623,115.068c5.977,4.123,0.019-0.933,12.395,10.962
			c26.232-18.218,48.211-33.463,68.844-48.1c173.188-122.913,339.387-256.16,458.49-432.078
			c137.468-203.049,252.17-429.942,252.131-677.385C7801.229,3302.992,7722.34,3070.316,7620.641,2862.259z M7531.054,3774.137
			c-57.623,84.474-126.056,154.816-169.497,248.58c-46.766,100.978-74.532,220.538-160.17,299.233
			c-60.076,55.205-178.103,94.783-229.117,6.635c-55.627-96.102,34.855-211.323,85.299-289.874
			c71.789-111.796,36.559-230.34,56.229-355.031c16.628-105.333,77.387-199.687,100.968-304.229
			c25.992-115.275,36.388-234.009,1.186-348.301c-29.719-96.457-79.477-160.609-157.554-224.14
			c-46.87-38.141-181.753-156.143-145.006-227.739c40.893-79.646,168.258,23.444,203.316,61.704
			c41.676,45.461,69.119,99.595,123.232,132.767c45.529,27.924,116.105,33.977,146.528,81.907
			c15.155,23.87,6.78,52.462,15.033,78.629c13.362,42.369,48.698,75.857,70.281,114.131
			C7586.873,3252.653,7675.766,3562.011,7531.054,3774.137z"/>
		<path id="_x31_80638185" fill="none" stroke="#010101" stroke-width="80" d="M7304.598,3415.041
			c-16.04,60.371-33.405,161.947,46.455,188.246c106.598,35.095,131.874-152.22,100.638-211.804
			C7410.274,3312.505,7324.717,3339.318,7304.598,3415.041z"/>
		<path id="_x31_80638186" fill="none" stroke="#010101" stroke-width="80" d="M7401.497,2934.277
			c-8.253-26.167,0.122-54.76-15.031-78.629c-30.421-47.929-100.999-53.984-146.528-81.908
			c-54.115-33.172-81.557-87.306-123.232-132.766c-35.061-38.26-162.426-141.351-203.316-61.704
			c-36.745,71.596,98.134,189.597,145.006,227.74c78.077,63.53,127.837,127.681,157.552,224.139
			c35.201,114.291,24.809,233.024-1.184,348.302c-23.585,104.539-84.34,198.894-100.968,304.227
			c-19.672,124.691,15.559,243.237-56.23,355.031c-50.445,78.551-140.926,193.771-85.299,289.876
			c51.017,88.148,169.041,48.568,229.117-6.637c85.638-78.693,113.405-198.256,160.172-299.231
			c43.44-93.764,111.874-164.108,169.499-248.582c144.71-212.124,55.817-521.483-59.277-725.727
			C7450.197,3010.135,7414.859,2976.646,7401.497,2934.277z M7351.053,3603.289c-79.858-26.3-62.493-127.875-46.453-188.246
			c20.119-75.723,105.675-102.536,147.091-23.558C7482.927,3451.067,7457.648,3638.382,7351.053,3603.289z"/>
		<path id="_x31_80638211" fill="none" stroke="#010101" stroke-width="80" d="M9138.568,3590.087
			c92.496,206.367,65.627,427.331,4.73,641.261c-21.779,76.802-43.707,153.532-68.695,228.944
			c-50.211,151.494-112.902,297.73-212.883,428.324c-113.494,148.329-276.271,266.306-431.555,369.789
			c-121.166,80.829-255.949,112.582-392.727,142.934l-1.795-7.801l-40.742-125.584c160.567-24.728,313.951-65.099,458.662-158.831
			c196.809-127.385,359.957-339.935,459.094-547.604c130.367-273.013,253.9-706.614,99.59-988.999l0.371-2.385
			c42.588,5.406,84.57,11.933,125.797,20.028L9138.568,3590.087z"/>
		<path id="_x31_80638210" fill="none" stroke="#010101" stroke-width="80" d="M9012.248,3572.52
			c154.311,282.385,30.777,715.988-99.59,988.999c-99.137,207.67-262.285,420.218-459.094,547.604
			c-144.711,93.732-298.095,134.104-458.662,158.833l-34.535-106.583c10.454-2.535,21.064-4.921,31.828-7.086
			c129.92-26.207,274.896-51.639,391.635-115.845c110.496-60.807,247.826-132.901,315.127-243.458
			c17.205-28.329,13.58-65.431,28.635-95.456c17.627-35.401,42.762-66.616,60.545-101.945
			c33.436-66.772,64.586-133.599,93.74-202.051c25.225-59.047,40.176-125.307,58.361-186.753
			c65-219.913,97.998-436.085-22.248-645.441l0.289-3.498c31.652,2.959,63.146,6.289,94.342,10.222l-0.002,0.075L9012.248,3572.52z"
			/>
		<path id="_x31_80638209" fill="none" stroke="#010101" stroke-width="80" d="M8917.99,3563.336
			c120.246,209.356,87.248,425.53,22.248,645.439c-18.186,61.448-33.137,127.708-58.361,186.753
			c-29.154,68.452-60.305,135.279-93.742,202.053c-17.781,35.327-42.916,66.544-60.543,101.947
			c-15.055,30.021-11.43,67.125-28.635,95.454c-67.301,110.555-204.631,182.651-315.127,243.458
			c-116.738,64.206-261.717,89.634-391.635,115.846c-10.766,2.164-21.372,4.551-31.828,7.085l-52.151-160.766
			c16.778-6.751,33.321-14.166,49.479-22.399l2.006,3.558c50.052,0.811,97.76-8.854,145.467-19.112
			c27.629-5.938,55.184-12.096,83.279-16.476c39.932-6.329,73.355-14.989,110.789-31.569
			c120.16-53.22,196.979-140.332,257.096-250.385c49.975-91.526,109.373-177.767,163.717-266.869
			c25.389-41.637,46.291-78.921,59.127-125.45c13.059-47.123,24.809-95.945,51.346-137.961
			c56.098-88.969,59.119-188.245,43.951-288.207c-14.852-97.355-51.986-189.188-68.598-286.531l0.648-8.041
			c37.072,2.397,73.916,5.242,110.533,8.538c0.381,0.07,0.764,0.143,1.223,0.138L8917.99,3563.336z"/>
		<path id="_x31_80638208" fill="none" stroke="#010101" stroke-width="80" d="M8874.473,3845.734
			c15.168,99.962,12.146,199.238-43.951,288.208c-26.537,42.015-38.287,90.839-51.346,137.96
			c-12.834,46.529-33.738,83.813-59.127,125.45c-54.344,89.103-113.742,175.343-163.717,266.869
			c-60.119,110.055-136.936,197.167-257.096,250.385c-37.434,16.582-70.857,25.24-110.789,31.569
			c-28.096,4.382-55.65,10.541-83.279,16.478l-0.395-1.783c91.004-31.347,163.047-125.639,222.223-195.433
			c68.824-81.104,164.064-166.273,202.689-265.751c18.029-46.491,30.93-94.728,49.957-140.778
			c19.023-45.978,48.176-83.999,73.336-126.301c47.283-79.526,65.914-173.939,79.297-263.846
			c11.754-78.959,25.926-163.59,28.816-242.929c2.15-58.943,9.184-119.338,9.047-177.077c11.617,0.731,23.314,1.462,34.93,2.268
			c0.459-0.006,0.996,0.065,1.455,0.138l-0.648,8.038C8822.486,3656.547,8859.621,3748.377,8874.473,3845.734z"/>
		<path id="_x31_80638207" fill="none" stroke="#010101" stroke-width="80" d="M8770.141,3548.758
			c0.135,57.739-6.898,118.134-9.049,177.079c-2.889,79.337-17.062,163.968-28.816,242.927
			c-13.383,89.908-32.014,184.32-79.297,263.846c-25.16,42.304-54.312,80.321-73.336,126.301
			c-19.027,46.049-31.928,94.287-49.957,140.78c-38.625,99.474-133.865,184.646-202.689,265.749
			c-59.176,69.795-131.219,164.088-222.223,195.435l0.395,1.781c-47.707,10.259-95.415,19.921-145.467,19.11l-2.006-3.558
			c27.743-14.123,54.1-30.693,77.457-50.589c33.783-28.751,65.639-60.763,98.806-90.48c37.274-33.542,75.995-68.657,110.503-104.856
			c78.213-82.139,157.553-184.228,217.209-279.996c30.551-49.116,49.178-98.585,71.764-150.692
			c22.285-51.284,64.484-92.898,88.523-145.089c35.15-76.534,49.426-155.066,56.734-237.411
			c6.295-71.029,20.768-141.078,27.291-211.965c4.641-49.885-6.602-113.041,6.604-161.731
			C8731.848,3546.52,8750.957,3547.641,8770.141,3548.758z"/>
		<path id="_x31_80638206" fill="none" stroke="#010101" stroke-width="80" d="M8712.586,3545.399
			c-13.205,48.688-1.963,111.845-6.604,161.731c-6.523,70.887-20.996,140.936-27.291,211.965
			c-7.309,82.345-21.584,160.877-56.734,237.411c-24.039,52.19-66.238,93.805-88.523,145.089
			c-22.586,52.105-41.213,101.576-71.762,150.692c-59.658,95.767-138.998,197.856-217.211,279.994
			c-34.508,36.201-73.229,71.314-110.503,104.858c-33.167,29.716-65.022,61.726-98.806,90.48
			c-23.357,19.896-49.714,36.464-77.457,50.587c-16.158,8.233-32.701,15.649-49.479,22.398l-12.493-38.37
			c121.494-76.517,218.752-186.035,312.744-291.731c55.545-62.471,108.275-121.802,151.553-193.561
			c74.566-123.704,166.541-235.858,215.908-372.768c14.996-41.631,30.832-84.012,40.701-127.094
			c23.256-101.292-9.873-186.98,16.039-291.935c12.658-51.139,3.523-90.728,2.494-144.143
			C8660.996,3542.518,8686.828,3543.959,8712.586,3545.399z"/>
		<path id="_x31_80638205" fill="none" stroke="#010101" stroke-width="80" d="M8635.162,3541.004
			c1.029,53.413,10.164,93.002-2.494,144.139c-25.912,104.96,7.217,190.645-16.039,291.936
			c-9.871,43.083-25.705,85.464-40.701,127.095c-49.367,136.906-141.342,249.061-215.908,372.768
			c-43.277,71.757-96.008,131.086-151.553,193.559c-93.992,105.698-191.25,215.217-312.744,291.731l-34.535-106.509
			c64.116-60.084,123.15-127.494,136.977-143.745c48.465-56.914,107.367-104.83,152.47-161.796
			c60.597-76.501,113.813-160.831,161.528-245.422c93.844-166.334,165.529-347.31,195.691-535.188
			c12.156-75.314,22.533-154.709,27.332-234.507l3.131,0.126c13.531,0.867,27.062,1.727,40.666,2.52
			c18.416,1.197,36.994,2.251,55.488,3.225C8634.703,3541.004,8634.934,3541.006,8635.162,3541.004z"/>
		<path id="_x31_80638204" fill="none" stroke="#010101" stroke-width="80" d="M8035.645,5393.536l1.795,7.801
			c-75.102,16.638-150.67,32.84-224.973,56.467c-116.037,36.967-261.703,31.819-373.571-14.949
			c-131.933-55.178-218.655-161.734-277.498-285.47c-37.448-78.587-54.302-163.877-70.696-248.573
			c-4.394-22.66-7.583-49.72-12.154-77.514c6.119,31.576,13.229,62.922,19.271,94.87c15.224,80.095,28.542,161.318,70.314,233.247
			c23.738,40.891,47.25,128.14,108.718,104.309c28.599-11.077,58.938-41.071,87.452-68.816l5.713,26.966
			c58.443,135.199,289.03,85.981,395.566,74.311c77.975-8.551,154.42-16.721,229.32-28.229L8035.645,5393.536z"/>
		<path id="_x31_80638203" fill="none" stroke="#010101" stroke-width="80" d="M7960.367,5161.371l34.535,106.581
			c-74.9,11.508-151.346,19.677-229.32,28.229c-106.535,11.67-337.123,60.888-395.566-74.31l-5.713-26.965
			c10.267-9.972,20.383-19.649,30.045-28.056l18.732,2.61c100.479-0.465,192.322,44.6,293.784,42.788
			C7798.93,5210.658,7874.584,5181.737,7960.367,5161.371z"/>
		<path id="_x31_80638202" fill="none" stroke="#010101" stroke-width="80" d="M7908.216,5000.605l52.151,160.766
			c-85.783,20.368-161.438,49.289-253.507,50.879c-101.462,1.812-193.304-43.253-293.782-42.786l-18.732-2.612
			c5.174-4.503,10.271-8.632,15.221-12.241c52.837-38.499,102.282-82.696,153.345-124.527l10.989,12.789
			c-0.986,0.973-1.901,1.948-2.659,2.997c-36.503,49.532,85.39,23.158,103.954,22.426c69.369-2.757,132.266-31.437,196.49-53.946
			C7883.813,5010.091,7896.016,5005.533,7908.216,5000.605z"/>
		<path id="_x31_80638201" fill="none" stroke="#010101" stroke-width="80" d="M7895.723,4962.232l12.493,38.373
			c-12.2,4.928-24.402,9.485-36.53,13.743c-64.225,22.51-127.121,51.189-196.488,53.946
			c-18.564,0.732-140.459,27.106-103.954-22.426c0.762-1.05,1.673-2.022,2.659-2.999c21.672-20.996,89.709-14.668,116.598-16.582
			c65-4.587,117.223-13.392,174.674-45.818C7875.535,4974.661,7885.744,4968.561,7895.723,4962.232z"/>
		<path id="_x31_80638200" fill="none" stroke="#010101" stroke-width="80" d="M7861.188,4855.724l34.535,106.509
			c-9.979,6.328-20.188,12.429-30.549,18.241c-57.451,32.429-109.672,41.231-174.674,45.816
			c-26.889,1.914-94.926-4.416-116.598,16.582l-10.989-12.785c36.603-29.965,73.978-58.749,113.894-83.382l3.427-2.107
			C7705.503,4985.773,7786.809,4925.631,7861.188,4855.724z"/>
		<path id="_x31_80638199" fill="none" stroke="#010101" stroke-width="80" d="M6615.186,2136.512
			c-1.301,0.1-2.619,0.19-3.967,0.257c-62.795,3.141-93.621-72.99-115.391-117.685c-33.416-68.617-80.758-110.655-131.682-166.246
			c-35.028-38.223-52.027-85.098-78.207-128.509c-24.529-40.69-64.045-71.439-85.24-114.637c0.031,0.059,0.105-0.128,0.22-0.514
			l-63.728,13.993c21.921,19.045,38.889,42.622,55.057,67.858c21.332,33.292,37.225,63.471,60.886,94.546
			c68.453,89.908,133.117,221.387,228.804,326.698c20.295,22.342,39.689,43.968,56.891,66.37
			c16.215-12.464,41.823-30.476,63.785-38.503C6607.074,2138.607,6611.555,2137.394,6615.186,2136.512z"/>
		<path id="_x31_80638198" fill="none" stroke="#010101" stroke-width="80" d="M6200.699,1609.69
			c21.193,43.198,60.711,73.947,85.238,114.637c26.18,43.413,43.181,90.286,78.207,128.509
			c50.924,55.591,98.266,97.63,131.682,166.245c21.77,44.696,52.596,120.829,115.393,117.686c1.348-0.068,2.664-0.158,3.967-0.257
			c4.683-1.137,7.956-1.718,7.956-1.718c2.462-0.151,5.138-0.314,7.898-0.538c99.937-21.76,7.366-168.01-34.104-206.259
			c-24.079-22.208-51.391-44.926-77.507-64.496c-23.88-17.891-55.023-26.503-76.702-47.48
			c-27.648-26.766-46.779-59.786-73.754-85.923c-28.35-27.477-45.93-62.063-70.343-92.505
			c-13.548-16.897-19.171-28.031-31.749-40.201l-2.42-2.752l-63.546,14.539C6200.805,1609.563,6200.73,1609.75,6200.699,1609.69z"/>
		<path id="_x31_80638197" fill="none" stroke="#010101" stroke-width="80" d="M6298.634,1637.592
			c24.415,30.443,41.993,65.029,70.343,92.505c26.975,26.139,46.105,59.155,73.754,85.923c21.677,20.979,52.822,29.589,76.7,47.481
			c26.116,19.569,53.428,42.287,77.51,64.495c41.47,38.25,134.04,184.498,34.104,206.259c7.146-0.58,14.899-1.58,21.215-3.907
			c45.08-16.612,88.829-48.475,108.402-88.406l6.043-14.593l-0.862,2.081l0.869-2.102l0.212-0.546
			c-13.5-18.545-26.887-35.493-32.729-46.241c-2.31-6.921-4.121-14.577-5.3-23.307c-11.269-83.532,14.606-159.431,64.126-212.113
			c-93.865,45.122-218.391-4.294-286.726-70.645c-35.504-34.432-66.532-73.128-96.114-113.174l-145.717,33.335l2.42,2.752
			C6279.461,1609.562,6285.084,1620.695,6298.634,1637.592z"/>
		<path id="_x31_80638196" fill="none" stroke="#010101" stroke-width="80" d="M6781.896,2238.612
			c1.982-9.358,4.572-18.48,7.239-27.565c-59.306-13.078-131.989-34.88-175.826-74.068c-3.246,0.828-6.975,1.879-10.699,3.161
			c-21.962,8.027-47.568,26.04-63.785,38.502c23.152,30.157,43.201,60.951,60.484,92.924c-0.436-0.808-0.863-1.617-1.303-2.42
			l5.887,2.151c67.12,8.114,134.686,16.494,201.693,27.472C6784.416,2289.777,6774.319,2273.807,6781.896,2238.612z"/>
		<path id="_x31_80638195" fill="none" stroke="#010101" stroke-width="80" d="M6789.135,2211.047
			c2.699-9.182,5.474-18.327,7.779-27.631c4.051-16.357,7.381-29.527,9.486-40.963c3.428-18.627,3.592-32.647-1.727-48.3
			l1.803-2.706c0.062,0.054,0.128,0.1,0.189,0.15c-2.826-2.405-5.021-5.479-6.461-9.342c-6.354-17.061-19.869-37.047-33.273-55.46
			l-0.227,0.552l-6.045,14.594c-19.569,39.932-63.318,71.792-108.402,88.405c-6.315,2.325-14.068,3.328-21.215,3.908
			c-3.477,0.756-7.18,1.368-11.131,1.813c-1.537,0.176-3.115,0.317-4.727,0.444c-0.602,0.145-1.232,0.303-1.877,0.468
			C6657.146,2176.168,6729.829,2197.973,6789.135,2211.047z"/>
		<path id="_x31_80638194" fill="none" stroke="#010101" stroke-width="80" d="M7361.316,2504.237
			c1.885-1.219,3.777-2.417,5.668-3.619c1.025-0.651,2.045-1.314,3.069-1.961c2.382-1.501,4.769-2.981,7.157-4.458
			c0.537-0.332,1.07-0.672,1.609-1.001c53.934-33.193,109.834-59.955,167.449-79.249c-29.77-22.15-60.823-42.521-90.352-61.088
			c-34.084-21.428-69.023-44.882-104.772-63.762c-124.362-65.675-269.859-125.788-410.18-144.028
			c-41.855-5.443-95.378-9.685-134.571-2.617c-2.102,11.438-5.432,24.606-9.484,40.966c-4.583,18.504-11.037,36.38-15.017,55.193
			c-13.067,60.679,26.405,64.221,84.589,73.364c112.788,17.723,221.928,50.144,323.928,101.434
			c53.436,26.878,103.171,58.758,149.129,94.832l13.077,1.683C7355.512,2508.011,7358.409,2506.115,7361.316,2504.237z"/>
		<path id="_x31_80638192" fill="none" stroke="#010101" stroke-width="80" d="M7915.758,2397.687
			c57.429,13.804,96.781,29.657,147.836,37.004l41.492-2.071c-65.238-80.39-137.672-156.88-214.891-224.551
			c-118.451-103.806-228.395-215.509-370.158-287.887c-65.279-33.338-127.201-72.853-191.296-108.645
			c-94.526-52.787-195.048-112.393-302.73-134.875c-90.491-18.896-171.179,7.734-225.976,61.297
			c-54.066,52.837-82.932,131.878-71.141,219.272c1.18,8.73,2.991,16.387,5.301,23.308c11.644,21.419,53.251,67.47,66.01,101.715
			c15.62,41.94,119.919-8.323,165.213-10.085c74.628-2.904,149.818,10.826,221.438,30.099
			c132.46,35.653,257.37,109.202,359.932,196.96c49.237,42.133,77.987,90.21,104.708,86.286c18.331-2.69,39.186-4.426,61.271-5.251
			c61.386-4.373,124.306-0.039,188.499,14.091c1.655,0.355,3.304,0.715,4.92,1.084c1.86,0.423,3.676,0.846,5.465,1.264
			c0.367,0.088,0.732,0.175,1.1,0.262C7913.768,2397.208,7914.768,2397.447,7915.758,2397.687z"/>
		<path id="_x31_80638193" fill="none" stroke="#010101" stroke-width="80" d="M6940.97,2145.069
			c140.318,18.242,285.815,78.354,410.177,144.029c35.748,18.88,70.689,42.334,104.771,63.762
			c29.528,18.566,60.582,38.938,90.354,61.088c33.261-11.138,67.093-19.798,101.454-25.745l-0.743-2.506
			c-25.492-1.631-53.714-46.697-100.19-86.467c-102.562-87.756-227.474-161.306-359.932-196.959
			c-71.622-19.272-146.812-33.002-221.437-30.1c-41.218,1.603-131.283,43.365-158.943,19.275l-1.803,2.706
			c5.316,15.652,5.152,29.675,1.725,48.3C6845.59,2135.385,6899.114,2139.627,6940.97,2145.069z"/>
		<path id="_x31_80638184" fill="none" stroke="#010101" stroke-width="80" d="M7275.996,4745.036
			c13.594-47.553,54.802-79.583,88.333-114.008c42.698-43.832,84.944-86.438,132.312-125.593
			c125.056-103.364,246.952-202.562,328.864-342c23.342-39.723,46.226-79.738,68.693-119.958
			c94.57-169.29,143.633-361.955,140.668-554.101c-0.52,0.144-1.043,0.287-1.564,0.433c-1.672,0.468-3.342,0.943-5.012,1.419
			c-0.811,0.234-1.625,0.459-2.438,0.695c-2.463,0.715-4.918,1.44-7.369,2.18c-4.42,1.34-8.861,2.669-13.316,3.985
			c-2.227,0.661-4.47,1.31-6.704,1.961c-2.228,0.653-4.448,1.308-6.683,1.954c-2.881,0.832-5.773,1.652-8.668,2.475
			c-1.588,0.451-3.171,0.91-4.766,1.363c-3.35,0.945-6.709,1.881-10.073,2.811c-1.134,0.315-2.263,0.635-3.4,0.948
			c-3.747,1.032-7.501,2.05-11.261,3.064c-0.752,0.201-1.499,0.405-2.246,0.608c-4.059,1.09-8.125,2.166-12.194,3.23
			c-0.452,0.119-0.902,0.24-1.354,0.357c-4.318,1.13-8.646,2.247-12.979,3.349c-0.198,0.049-0.398,0.103-0.596,0.152
			c-4.508,1.146-9.023,2.279-13.542,3.398c-0.023,0.003-0.048,0.011-0.071,0.017c-37.83,9.354-75.949,17.645-113.469,24.436
			l4.01,0.031c-3.79,242.533-116.906,465.149-252.031,664.727c-47.107,69.565-107.174,139.061-168.064,197.647
			c-86.803,83.495-175.998,150.266-284.955,230.54c-24.494,18.043-49.005,34.578-74.312,51.99
			c28.596,27.496,43.043,61.197,49.231,95.67c8.266,46.07,14.823,94.297,23.577,140.375
			c15.246,80.137,32.551,157.793,68.915,232.777c20.625,42.512,51.845,125.562,113.316,101.747
			c29.991-11.626,64.079-41.378,94.985-68.694c-4.777,3.841-8.037,6.445-9.457,7.545c-5.661-8.503-96.964-99.715-68.936-270.456
			l-6.496-17.187C7273.375,4862.444,7260.674,4798.581,7275.996,4745.036z"/>
		<path id="_x31_80638182" fill="none" stroke="#010101" stroke-width="80" d="M8440.09,3342.42c0,0-30.367,14.755-70.326,33.344
			c-21.008,10.45-48.334,23.597-92.473,42.804c-12.52,5.448-27.293,11.084-42.969,16.588c-5.801,2.27-11.283,4.34-16.375,6.177
			c-22.406,8.076-45.602,14.556-69.068,20.411c-1.344,0.369-2.674,0.73-3.989,1.092c-3.596,0.98-8.124,13.367-9.688,18.514
			c-12.243,40.422-4.184,142.285-6.628,174.049c-26.17,340.68-245.578,637.644-501.031,859.62
			c-102.756,89.285-227.111,147.657-287.646,274.47c-125.402,262.705,15.404,402.459,22.479,413.084
			c1.416-1.1,4.68-3.704,9.455-7.547c14.895-13.16,29.049-25.76,41.648-35.488c24.304-18.767,54.743-42.917,86.285-68.217
			c86.037-69.906,180.446-146.742,180.446-146.742c-24.177-39.329,10.796-69.965,45.964-94.453
			c116.903-81.441,205.328-168.839,297.156-277.347c32.644-38.585,63.717-77.783,96.262-115.858
			c105.973-123.994,196.764-283.604,246.131-437.812c37.422-116.922,61.109-229.71,76.01-350.949
			c7.395-60.172,7.852-128.361,5.432-196.82C8445.436,3428.616,8442.586,3385.722,8440.09,3342.42z"/>
		<path id="_x31_80638183" fill="none" stroke="#010101" stroke-width="80" d="M8127.127,3466.998c0,0-0.004,0.004-0.006,0.006
			c-0.548,0.126-1.093,0.252-1.639,0.382c-1.086,0.256-2.172,0.512-3.26,0.764c-1.493,0.349-2.981,0.695-4.471,1.042
			c-1.121,0.264-2.246,0.521-3.369,0.784c-1.459,0.339-2.923,0.677-4.382,1.013c-5.996,1.389-11.996,2.768-17.983,4.156
			c-0.668,0.157-1.338,0.314-2.005,0.468c-1.854,0.431-3.711,0.864-5.563,1.297c-0.902,0.213-1.802,0.424-2.703,0.637
			c-1.672,0.391-3.342,0.789-5.015,1.187c-0.937,0.223-1.878,0.445-2.815,0.671c-1.729,0.413-3.457,0.83-5.18,1.249
			c-0.83,0.198-1.663,0.401-2.49,0.604c-2.52,0.613-5.039,1.234-7.553,1.862c-0.141,0.035-0.279,0.072-0.421,0.105
			c-2.36,0.595-4.714,1.19-7.064,1.795c-0.827,0.213-1.653,0.429-2.479,0.642c-1.679,0.436-3.351,0.875-5.024,1.316
			c-0.948,0.254-1.891,0.506-2.836,0.762c-1.587,0.426-3.166,0.857-4.746,1.288c-0.418,0.115-0.839,0.231-1.256,0.349
			c2.965,192.146-46.098,384.812-140.669,554.101c-22.469,40.22-45.353,80.233-68.692,119.958
			c-81.914,139.438-203.811,238.636-328.864,342c-47.366,39.152-89.614,81.762-132.314,125.593
			c-33.533,34.425-74.739,66.456-88.333,114.008c-15.322,53.545-2.621,117.405,10.947,169.894l6.494,17.187
			c6.994-42.61,21.416-90.164,46.459-142.63c60.537-126.812,184.893-185.184,287.648-274.47
			c255.448-221.979,474.857-518.94,501.029-859.62c2.442-31.762-5.615-133.627,6.628-174.049c1.563-5.148,6.091-17.531,9.688-18.512
			c1.317-0.359,2.646-0.727,3.989-1.094C8141.649,3463.545,8134.391,3465.284,8127.127,3466.998z"/>
		<path id="_x31_80638175" fill="none" stroke="#010101" stroke-width="80" d="M6932.762,2891.176
			c-28.756-20.622-58.539-24.172-83.299,9.468c-36.717,49.891-10.771,137.729,6.727,198.979
			c10.983,38.453,21.289,69.752,30.098,128.12c8.836,58.482-4.705,135.519,26.3,167.214c42.49,43.424,81.862,35.888,110.828-9.519
			C7098.004,3212.566,7087.795,3040.247,6932.762,2891.176z"/>
		<path id="_x31_80638176" fill="none" stroke="#010101" stroke-width="80" d="M6932.762,2891.176
			c-28.756-20.622-58.539-24.172-83.299,9.468c-36.717,49.891-10.771,137.729,6.727,198.979
			c10.983,38.453,21.289,69.752,30.098,128.12c8.836,58.482-4.705,135.519,26.3,167.214c42.49,43.424,81.862,35.888,110.828-9.519
			C7098.004,3212.566,7087.795,3040.247,6932.762,2891.176z"/>
		<path id="_x31_80638156" fill="none" stroke="#010101" stroke-width="80" d="M6910.078,3402.415
			c-31.989-30.757-26.816-86.396-30.133-168.416c-2.379-58.968-25.095-94.664-33.779-133.675
			c-17.589-78.964-37.753-158.435-1.034-208.323c24.742-33.62,56.83-26.248,76.884-10.468
			c-121.285-107.803-217.095-226.104-246.915-387.514c-27.923-151.241-85.563-268.248-193.165-381.743
			c-121.314-127.95-175.476-289.393-284.745-422.998c-109.528-133.934-254.026-237.118-414.389-306.49
			c-139.333-60.269-289.485-112.754-419.687-189.83c-26.212-15.517-49.795-32.713-76.635-47.021
			c-18.982-10.11-37.322-22.726-54.158-36.083c-46.684-37.025-91.994-74.706-157.375-63.343
			c-71.891,12.498-100.248,90.61-170.372,106.731c-0.438,0.099,0.056,11.796,0.056,12.927
			c0.271,55.854,5.719,1136.689,7.956,1582.091c12.559,3,22.675,18.955,20.341,40.426c-2.434,22.338,3.211,133.902-6.904,148.86
			c-6.6,9.766-10.49,15.793-12.408,18.815c0.351,77.422,1.225,271.551,1.625,325.128c0.459,59.575,2.537,711.773,2.587,745.812
			c0.095,95.156,0.604,190.314,1.318,285.472c0.019,3.821,0.255,19.896,0.581,42.131c1.023,70.606,2.983,203.363,2.294,203.54
			c16.607-4.187,33.519-3.049,50.389-8.626c42.677-14.114,81.569-37.322,113.694-68.378c15.021-14.532,30.606-30.808,40.844-48.884
			c15.344-27.095,30.13-67.898,31.904-99.214c7.246,40.075,17.539,61.863,42.123,76.296c12.938,7.597,23.733,9.563,38.379,11.305
			c28.78,3.407,56.477-3.142,84.029-12.222c66.593-21.945,89.949-48.027,138.552-42.292c28.51,3.364,50.556,69.321,94.642,94.439
			c86.162,49.097,177.426,5.721,272.023-22.424c18.048-5.363,99.25-24.23,121.874-28.184c12.888-2.257,84.319-15.645,93.616-13.438
			c2.403,0.569,6.74,95.368,3.621,114.782c-2.234,13.859-11.442,71.386-6.341,84.139c34.36,85.938,185.772,93.538,253.041,55.641
			c82.347-46.39,223.898-158.131,301.489-251.152c83.717-100.362,147.132-247.768,197.211-383.122
			c42.023-113.594,122.951-207.896,139.111-331.734c13.385-102.523,44.627-181.452,82.396-276.564
			c1.264-3.167,2.434-6.342,3.65-9.523C6989.302,3444.697,6948.908,3439.75,6910.078,3402.415z"/>
		<path id="_x31_80638172" fill="none" stroke="#010101" stroke-width="80" d="M5161.092,1650.425
			c183.537-53.635,351.121,25.647,516.221,90.955c220.784,87.333,348.55,158.442,515.141,256.51
			c69.492,40.911,174.018,89.962,231.647,146.159c11.856,11.561,22.95,25.293,33.523,40.171
			c7.187-16.423,21.964-25.615,41.255-28.684l14.653-1.902c-58.916-72.373-127.751-133.777-195.044-164.141
			c-225.936-101.941-433.125-200.104-651.904-310.838c-149.939-75.893-326.039-176.761-496.371-113.858
			c-55.127,20.354-245.674,81.481-243.954,149.589c0.114,4.538,0.773,8.438,1.921,11.759
			C4948.434,1784.816,5121.709,1661.929,5161.092,1650.425z"/>
		<path id="_x31_80638173" fill="none" stroke="#010101" stroke-width="80" d="M6098.799,1605.495
			c-151.848-49.343-298.608-131.046-446.299-191.484c-161.53-66.105-303.064-174.531-478.341-208.251
			c-122.636-23.581-190.132,27.416-205.622,139.208c-15.958,115.213-9.168,224.933-53.727,333.367l-7.584,5.087
			c0.083,16.181,0.164,32.558,0.248,49.107l20.703-6.386c-1.147-3.322-1.807-7.219-1.921-11.758
			c-1.718-68.108,188.827-129.237,243.952-149.589c170.334-62.902,346.434,37.966,496.375,113.858
			c218.779,110.733,425.969,208.896,651.904,310.837c67.291,30.363,136.127,91.77,195.042,164.142l2.7-0.354l2.131-0.023
			c-11.451-13.777-23.424-27.233-35.881-40.396c-0.183-0.196-0.365-0.391-0.551-0.586
			c-111.103-117.183-165.889-262.451-258.262-388.704c-2.184-2.988-4.382-5.965-6.611-8.93
			c-6.431-8.553-13.043-17.012-19.872-25.361c-2.423-2.962-4.87-5.902-7.323-8.835c-0.527-0.629-1.055-1.259-1.584-1.886
			c-2.437-2.895-4.885-5.774-7.355-8.637c-0.291-0.339-0.588-0.676-0.88-1.014c-2.386-2.757-4.786-5.503-7.201-8.233
			c-0.313-0.355-0.626-0.711-0.939-1.066c-2.622-2.956-5.263-5.896-7.918-8.82c-0.279-0.305-0.557-0.609-0.838-0.914
			c-5.519-6.056-11.11-12.047-16.777-17.963c-0.15-0.157-0.301-0.316-0.451-0.472c-5.841-6.093-11.758-12.115-17.751-18.058
			L6098.799,1605.495z"/>
		<path id="_x31_80638174" fill="none" stroke="#010101" stroke-width="80" d="M4914.811,1678.334
			c44.561-108.434,37.769-218.153,53.727-333.367c15.49-111.792,82.986-162.789,205.622-139.208
			c175.276,33.719,316.811,142.145,478.341,208.251c147.69,60.437,294.451,142.142,446.299,191.485l29.373,7.883
			c-9.195-9.121-18.563-18.064-28.099-26.829c-0.056-0.054-0.114-0.106-0.172-0.159c-15.858-14.569-32.181-28.651-48.925-42.234
			c-0.118-0.094-0.234-0.192-0.35-0.286c-6.65-5.388-13.365-10.701-20.145-15.932c-0.048-0.036-0.096-0.071-0.141-0.106
			c-3.383-2.608-6.779-5.197-10.193-7.766c-0.098-0.073-0.195-0.145-0.291-0.219c-6.759-5.083-13.581-10.089-20.459-15.017
			c-0.236-0.17-0.474-0.338-0.71-0.509c-6.847-4.897-13.753-9.717-20.714-14.462c-0.164-0.113-0.328-0.225-0.493-0.338
			c-3.43-2.334-6.872-4.648-10.331-6.945c-0.268-0.18-0.538-0.359-0.811-0.536c-6.879-4.563-13.813-9.053-20.797-13.47
			c-0.396-0.251-0.796-0.505-1.193-0.754c-3.467-2.186-6.943-4.355-10.436-6.504c-0.096-0.061-0.195-0.119-0.293-0.18
			c-3.432-2.11-6.873-4.2-10.326-6.275c-0.322-0.192-0.643-0.388-0.966-0.581c-3.44-2.062-6.893-4.105-10.356-6.133
			c-0.459-0.271-0.922-0.537-1.382-0.807c-6.958-4.059-13.956-8.044-20.999-11.963c-0.572-0.317-1.141-0.635-1.711-0.949
			c-3.457-1.914-6.92-3.814-10.396-5.695c-0.336-0.181-0.676-0.362-1.012-0.543c-3.291-1.775-6.59-3.535-9.901-5.279
			c-0.47-0.25-0.938-0.5-1.41-0.748c-3.442-1.807-6.894-3.601-10.354-5.375c-0.64-0.327-1.28-0.655-1.919-0.981
			c-7.026-3.59-14.092-7.111-21.193-10.564c-0.706-0.344-1.41-0.686-2.117-1.027c-3.462-1.675-6.932-3.336-10.414-4.98
			c-0.516-0.242-1.032-0.482-1.55-0.725c-3.212-1.514-6.438-3.01-9.667-4.494c-0.566-0.26-1.133-0.523-1.701-0.784
			c-3.475-1.589-6.953-3.161-10.441-4.717c-0.754-0.335-1.507-0.67-2.262-1.004c-3.572-1.587-7.152-3.164-10.748-4.717
			c-139.33-60.269-289.482-112.753-419.684-189.828c-26.21-15.518-49.799-32.713-76.635-47.021
			c-18.982-10.112-37.322-22.728-54.158-36.086c-46.686-37.023-91.994-74.705-157.375-63.342
			c-41.555,7.224-68.564,36.373-97.506,62.799c-0.068,0.061-0.133,0.122-0.201,0.185c-0.711,0.647-1.419,1.291-2.131,1.936
			c-0.168,0.149-0.336,0.299-0.502,0.452c-0.611,0.552-1.225,1.104-1.842,1.652c-0.269,0.241-0.538,0.479-0.81,0.717
			c-0.518,0.458-1.031,0.918-1.552,1.374c-0.329,0.293-0.664,0.58-0.996,0.87c-0.459,0.403-0.919,0.807-1.383,1.208
			c-0.384,0.333-0.773,0.663-1.162,0.997c-0.409,0.35-0.818,0.702-1.229,1.051c-0.438,0.373-0.881,0.739-1.32,1.11
			c-0.365,0.305-0.729,0.613-1.093,0.917c-0.464,0.385-0.933,0.767-1.396,1.148c-0.349,0.285-0.695,0.572-1.045,0.854
			c-0.49,0.396-0.98,0.788-1.474,1.18c-0.325,0.261-0.652,0.526-0.981,0.785c-0.521,0.411-1.048,0.819-1.574,1.226
			c-0.301,0.234-0.602,0.472-0.905,0.703c-0.536,0.415-1.085,0.823-1.626,1.23c-0.296,0.221-0.59,0.446-0.885,0.667
			c-0.564,0.418-1.133,0.83-1.701,1.243c-0.277,0.203-0.554,0.408-0.83,0.608c-0.589,0.424-1.184,0.837-1.775,1.254
			c-0.266,0.183-0.529,0.374-0.796,0.556c-0.606,0.423-1.22,0.834-1.832,1.248c-0.253,0.171-0.507,0.345-0.763,0.517
			c-0.624,0.416-1.255,0.822-1.889,1.231c-0.248,0.161-0.494,0.325-0.744,0.484c-0.644,0.411-1.296,0.814-1.949,1.217
			c-0.238,0.146-0.475,0.298-0.717,0.445c-0.664,0.404-1.335,0.799-2.004,1.194c-0.234,0.137-0.468,0.277-0.703,0.413
			c-0.682,0.395-1.369,0.781-2.061,1.165c-0.23,0.127-0.453,0.258-0.684,0.384c-0.693,0.38-1.396,0.75-2.094,1.119
			c-0.234,0.122-0.465,0.249-0.695,0.369c-0.71,0.368-1.427,0.725-2.145,1.08c-0.229,0.112-0.455,0.23-0.688,0.344
			c-0.719,0.349-1.443,0.689-2.174,1.027c-0.235,0.109-0.469,0.225-0.705,0.331c-0.734,0.336-1.48,0.66-2.229,0.982
			c-0.23,0.103-0.46,0.204-0.693,0.304c-0.754,0.322-1.518,0.628-2.282,0.934c-0.231,0.092-0.458,0.19-0.69,0.279
			c-0.768,0.303-1.545,0.59-2.322,0.877c-0.235,0.087-0.469,0.177-0.702,0.264c-0.782,0.282-1.575,0.551-2.368,0.817
			c-0.235,0.079-0.469,0.165-0.708,0.243c-0.796,0.261-1.599,0.509-2.402,0.751c-0.245,0.074-0.486,0.154-0.731,0.226
			c-0.8,0.237-1.609,0.461-2.425,0.681c-0.257,0.07-0.509,0.145-0.769,0.211c-0.813,0.215-1.639,0.416-2.463,0.613
			c-0.238,0.057-0.471,0.123-0.709,0.178l1.932,450.181c0.131,26.04,0.262,52.775,0.402,80.076L4914.811,1678.334z"/>
		<path id="_x31_80638163" fill="none" stroke="#010101" stroke-width="80" d="M6821.016,3209.294
			c-10.54-54.149-15.078-109.05-25.93-163.4c-17.213-86.136-66.059-168.523-127.744-244.384
			c-34.367-42.253-63.822-21.77-86.685,21.371c-46.163,87.081-108.979,185.014-39.945,278.56
			c49.222,66.709,128.935,119.501,143.874,206.979c12.105,70.947-2.992,141.472-1.777,212.569
			c0.883,51.385-19.957,102.792,94.924,173.005c-1.119-0.596,36.59-122.946,57.594-147.896c31.67-37.63,52.215-67.895,43.358-121.24
			C6866.523,3351.671,6835.213,3282.204,6821.016,3209.294z"/>
		<path id="_x31_80638167" fill="none" stroke="#010101" stroke-width="80" d="M6045.83,4394.449
			c57.521-11.101,90.578-52.249,123.461-96.577c58.736-79.175,116.193-159.765,177.132-237.332
			c72.922-92.82,176.864-261.088,342.534-175.826c0,0-37.448,73.198-49.879,97.388c-26.664,51.883-48.455,105.984-72.85,158.889
			c-6.902,14.96-13.978,29.856-21.338,44.613c-15.032,30.149-30.598,60.111-48.076,89c-8.905,14.721-18.207,29.184-28.103,43.284
			c-33.513,47.729-138.144,154.286-177.849,186.487c-133.481,108.241-163.342,97.487-196.629,103.134
			c-65.16,11.043-47.688-98.081-45.912-128.606C6049.732,4454.892,6045.83,4394.449,6045.83,4394.449z"/>
		<path id="_x31_80638157" fill="none" stroke="#010101" stroke-width="80" d="M6670.281,3593.561
			c-18.912-25.458-39.898-72.701-73.398-81.314c-59.129-15.196-110.471,37.167-142.998,78.328
			c-34.897,44.151-73.791,70.238-124.01,96.963c-128.813,68.549-262.121,129.402-398.475,182.265
			c-67.854,26.317-136.324,51.059-205.395,74.168c-52.746,17.647-111.99,44.358-166.949,53.829
			c-0.231,44.955-10.747,84.67,1.758,45.419c11.285-35.427,40.773-75.163,85.727-47.151c48.998,30.533,18.588,104.682-1.016,144.058
			c-31.971,64.252-81.242,42.076-136.763,71.131c-23.944,12.523-33.692,27.962-39.423,44.989c7.434,21.649,5.338,51.83,9.914,73.088
			c4.452,20.683,10.564,41.547,19.322,60.969c-3.178-20.278,10.363-37.381,49.948-42.9c49.162-6.856,244.542,23.629,161.513,108.253
			c-51.48,52.449-140.339,20.4-184.852-22.359c11.886,14.027,26.367,25.995,44.142,34.803
			c87.233,43.227,196.792-14.414,281.87-37.369c32.858-8.864,62.149-13.496,100.261-21.373c24.71-5.109,49.104-5.326,92.472-12.986
			c2.59-19.204-15.976-107.438,4.006-157.263c20.949-52.226,64.752-87.054,100.355-129.005
			c70.046-82.547,151.541-163.417,234.688-233.454c47.196-39.744,99.562-84.03,162.708-94.98
			c51.04-8.852,140.354,24.848,152.407,87.344c21.587-43.328,68.399-146.689,79.634-175.019
			C6751.098,3681.134,6699.59,3633.027,6670.281,3593.561z"/>
		<path id="_x31_80638158" fill="none" stroke="#010101" stroke-width="80" d="M6684.584,3308.417
			c-14.938-87.476-94.65-140.269-143.872-206.977c-14.601-19.783-23.285-39.762-27.495-59.793
			c-16.542-24.471-39.803-58.552-63.818-72.997c-11.866-7.14-26.598-9.333-40.144-9.357
			c-61.302,16.152-135.503,16.992-207.026,24.76c-6.358,0.689-12.699,1.433-19.004,2.25
			c-128.379,16.609-234.186,29.053-358.936,39.924c-62.857,5.475-132.522-2.978-196.162-8.439
			c-26.668-2.29-45.05-6.874-57.338-14.057c-32.42-2.285-65.113-1.902-96.588,24.93c-51.594,97.434-125.607,184.748-196.166,269.807
			c-6.723,15.454-14.436,34.925-19.445,53.024c0.121,0.07,0.236,0.159,0.355,0.238c-21.771-14-79.226,77.312-104.839,131.235
			c-52.497,110.5-177.8,188.612-145.036,202.832c-6.495,4.961-11.822,11.18-13.323,18.705c-4.597,23.053-8.721,54.628,12.551,67.701
			c5.851,3.593,14.283,5.748,23.437,6.991c10.582-3.063,20.529-5.55,29.148-7.478c51.516-11.55,129.283-16.445,146.277,30.804
			c3.139,8.711,4.669,17.132,5.031,25.38c3.817,3.568,7.582,6.057,10.933,6.518c7.983,1.096,23.278-4.855,39.808-10.793
			c29.633-19.813,65.666-33.352,105.627-37.574c79.547-8.404,133.238,29.798,164.99,101.101
			c15.669,35.19,25.281,73.161,25.508,108.366l0.002-0.007c0.006,0.767,0.003,1.528-0.002,2.29
			c54.959-9.471,114.203-36.184,166.949-53.829c69.069-23.109,137.54-47.851,205.396-74.166
			c136.354-52.864,269.659-113.718,398.471-182.267c50.219-26.727,89.114-52.813,124.014-96.963
			c32.525-41.163,83.867-93.526,142.996-78.329c13.152,3.383,24.373,12.716,34.298,24.351c10.765,3.506,22.409,6.259,28.976,4.601
			c7.836-1.976,16.02-13.161,22.586-27.106C6682.541,3445.328,6696.3,3377.071,6684.584,3308.417z"/>
		<path id="_x31_80638168" fill="none" stroke="#010101" stroke-width="80" d="M5099.391,2185.657
			c193.699,78.326,370.506,217.656,444.428,413.038c38.209,100.971,36.688,194.468,14.934,298.842
			c-16.01,76.697-23.346,112.283,69.373,120.25c63.642,5.461,133.307,13.915,196.164,8.439
			c124.748-10.87,230.557-23.314,358.934-39.926c6.307-0.814,12.644-1.558,19.004-2.248l-0.11-2.006
			c-53.162,7.521-112.173-4.836-117.048-44.613c-21.235-173.441-65.808-366.021-102.506-513.314
			c-36.311-145.863-84.225-230.283-209.363-323.833c-68.801-51.434-129.976-75.027-208.879-108.642
			c-110.243-46.974-189.469-75.194-314.061-81.479c-86.967-4.384-192.979,42.396-270.948,61.578
			c-24.644,6.06-37.739-5.046-39.194-23.255l-31.5,11.027c0.297,58.927,0.597,118.395,0.893,177.35
			C4918.626,2135.433,5083.887,2179.39,5099.391,2185.657z"/>
		<path id="_x31_80638169" fill="none" stroke="#010101" stroke-width="80" d="M4909.111,2137.083
			c105.814,22.226,212.446,48.255,318.039,110.98c104.293,61.955,197.236,141.92,263.422,242.758
			c17.249,26.298,30.773,55.77,44.638,83.897c3.749,7.613,6.343,22.321-4.13,26.347c-6.65,2.559-15.792-7.254-18.396-11.719
			c-8.642-14.815-12.126-31.841-20.177-46.922c-43.402-81.321-101.588-143.855-172.369-203.211
			c-100.416-84.216-290.477-164.576-410.581-182.17L4909.111,2137.083z"/>
		<path id="_x31_80638170" fill="none" stroke="#010101" stroke-width="80" d="M4940.117,1948.489
			c1.455,18.208,14.551,29.314,39.195,23.255c77.969-19.181,183.982-65.96,270.949-61.578
			c124.59,6.285,203.815,34.504,314.059,81.479c78.903,33.614,140.078,57.208,208.879,108.642
			c125.139,93.55,173.055,177.969,209.365,323.833c36.696,147.294,81.269,339.873,102.506,513.314
			c4.873,39.778,63.884,52.134,117.047,44.613c13.721-1.939,27.053-5.202,38.965-9.662c86.192-32.282-3.862-236.111-22.336-298.852
			c-46.632-158.382-70.621-213.008-113.812-348.84c-36.459-114.71-104.033-205.389-211.18-278.175
			c-123.059-83.571-274.891-156.83-421.068-196.151c-140.354-37.781-365.306-87.786-493.861,24.654
			C4951.342,1899.057,4938.494,1928.188,4940.117,1948.489"/>
		<path id="_x31_80638171" fill="none" stroke="#010101" stroke-width="80" d="M6665.613,2593.183
			c-6.92,25.238-41.285,123.955-83.293,116.062c-59.337-11.161-2.223-144.162,4.395-178.654
			c18.089-94.187,6.443-137.087-49.518-218.802c-25.633-37.439-50.621-86.834-79.573-127.57c-0.204,0.466-0.427,0.917-0.616,1.394
			c0.189-0.477,0.412-0.929,0.616-1.394c-10.575-14.877-21.67-28.61-33.523-40.17c-57.632-56.197-162.157-105.25-231.647-146.159
			c-166.592-98.068-294.352-169.178-515.141-256.51c-165.1-65.308-332.684-144.588-516.221-90.954
			c-39.383,11.505-212.658,134.395-232.913,75.717l-20.702,6.386c0.367,73.132,0.752,149.59,1.141,226.989l31.5-11.027
			c-1.623-20.301,11.225-49.432,38.707-73.47c128.555-112.438,353.507-62.435,493.859-24.653
			c146.177,39.322,298.01,112.581,421.07,196.151c107.146,72.788,174.721,163.466,211.18,278.177
			c43.191,135.832,67.179,190.456,113.811,348.841c18.474,62.738,108.53,266.567,22.336,298.85
			c-11.912,4.459-25.242,7.723-38.965,9.663l0.111,2.005c116.847-12.69,240.845-6.877,304.064-79.574
			c45.59-52.431,175.562-243.631,172.888-380.78c-1.554-12.154-3.371-24.11-5.429-35.889
			C6677.094,2523.17,6675.022,2558.883,6665.613,2593.183z"/>
		<path id="_x31_80638159" fill="none" stroke="#010101" stroke-width="80" d="M4909.558,2157.046l2.438,591.068
			c0.031,0.009,0.061,0.015,0.097,0.021c12.781,2.693,23.196,18.796,20.832,40.548c-2.434,22.339,3.21,133.9-6.906,148.86
			c-7.611,11.266-11.637,17.581-13.163,20.013l1.282,311.075c37.902-2.399,96.926,27.879,87.025,71.181
			c-5.986,26.19-24.629,48.74-32.666,74.327c-8.767,27.982-5.027,57.714,0.01,85.986c2.996,16.851,7.031,33.456,10.602,50.185
			c6.238,29.209-10.002,77.628-61.012,63.134l-2.547-2.832l0.088,21.455c36.002,13.486,67.977,12.789,96.5,2.582
			c-55.851-103.469-35.923-363.444,93.738-255.761c16.582,13.777,34.848,27.515,47.855,44.707c11.904,15.733,12.95,31.8,6.4,48.464
			c26.879-48.552,53.438-94.997,89.035-138.582c98.484-120.534,211.229-243.444,263.34-391.498
			C5658.883,2526.163,5286.429,2228.587,4909.558,2157.046z"/>
		<path id="_x31_80638161" fill="none" stroke="#010101" stroke-width="80" d="M5181.44,3991.338
			c-16.085-97.592,68.136-192.718,187.118-205.29c79.545-8.405,133.238,29.799,164.989,101.099
			c45.163,101.441,40.081,225.975-95.367,240.705C5387.043,4133.416,5191.376,4051.604,5181.44,3991.338z"/>
		<path id="_x31_80638160" fill="none" stroke="#010101" stroke-width="80" d="M5112.67,3548.97
			c-6.516,8.199-13.568,16.097-20.014,24.152c-13.736,17.168-28.117,33.516-43.922,48.899c-1.874,1.823-27.939,26.536-28.754,25.387
			c-65.244-92.525-49.493-380.963,85.895-268.521c16.584,13.776,34.85,27.514,47.859,44.706
			c13.992,18.497,12.99,37.456,2.266,57.304c-9.737,18.03-21.654,36.01-32.684,53.357
			C5120.097,3539.317,5116.469,3544.199,5112.67,3548.97z"/>
		<path id="_x31_80638164" fill="none" stroke="#010101" stroke-width="80" d="M4918.102,3613.443
			c51.006,14.496,67.246-33.924,61.01-63.133c-3.572-16.729-7.605-33.335-10.602-50.186c-5.037-28.272-8.776-58.002-0.01-85.986
			c8.037-25.587,26.679-48.135,32.666-74.328c10.041-43.91-50.798-74.43-88.609-71.064L4918.102,3613.443z"/>
		<path id="_x31_80638166" fill="none" stroke="#010101" stroke-width="80" d="M6044.187,4387.941
			c-2.911-46.645-15.431-78.3-0.292-137.455c17.119-66.859,63.354-93.332,105.281-143.331
			c99.805-118.989,151.49-159.292,265.611-258.742c46.469-40.506,131.013-87.629,189.283-63.83
			c18.564,7.58,76.512,19.881,93.658,82.959l-8.773,17.174c-165.672-85.264-269.612,83.008-342.536,175.824
			c-60.938,77.567-118.392,158.159-177.13,237.334c-32.883,44.326-65.938,85.471-123.461,96.575L6044.187,4387.941z"/>
		<path id="_x31_80638162" fill="none" stroke="#010101" stroke-width="80" d="M4915.705,3643.232
			c42.721,16.727,86.644,9.262,73.102,103.61c-3.92,27.293-36.598,67.243-69.688,71.211L4915.705,3643.232z"/>
		<path id="_x31_80638165" fill="none" stroke="#010101" stroke-width="80" d="M4920.07,4053.797
			c199.684-9.895,217.359,41.729,233.774,162.295c10.537,77.369,13.25,156.309-32.601,225.096
			c-37.342,56.012-125.191,113.731-197.162,117.147L4920.07,4053.797z"/>
		<path id="_x31_80638177" fill="none" stroke="#010101" stroke-width="80" d="M4922.018,4558.446
			c16.608-4.189,33.518-3.052,50.39-8.629c42.675-14.114,81.567-37.322,113.692-68.378c15.023-14.53,30.606-30.808,40.844-48.883
			c15.344-27.094,30.13-67.897,31.906-99.215c7.244,40.077,17.539,61.865,42.121,76.296c12.938,7.597,23.736,9.564,38.381,11.307
			c28.778,3.406,56.475-3.144,84.029-12.223c66.591-21.946,89.949-48.025,138.552-42.292c28.51,3.365,50.554,69.32,94.64,94.438
			c86.162,49.097,177.428,5.721,272.023-22.424c18.05-5.361,99.25-24.229,121.874-28.18c12.89-2.259,84.319-15.646,93.616-13.442
			c2.404,0.571,6.739,95.368,3.623,114.784c-2.234,13.859-11.444,71.386-6.343,84.138c34.36,85.937,223.883,114.299,331.116,10.162
			c-69.992,56.051-140.797,142.952-140.797,142.952c-49.643,62.021-93.774,122.596-77.504,203.763
			c5.66-17.354,99.582-114.789,116.498-124.275c88.268-49.498,141.295,39.197,163.59,109.289
			c76.692,241.235-115.056,486.538-275.738,650.03c-179.714,182.857-413.324,384.401-675.297,428.575
			c-67.729,11.413-130.93-21.474-197.775-3.383c-119.612,32.383-262.538,18.511-356.623,8.732L4922.018,4558.446z"/>
		<path id="_x31_80638178" fill="none" stroke="#010101" stroke-width="80" d="M5192.736,5463.952
			c63.492,42.347,115.272-24.924,178.184-32.288c61.247-7.15,85.001,60.129,140.115,73.37
			c130.919,31.459,234.445-115.853,309.271-195.71c34.574-36.882,91.808-33.625,129.504-65.099
			c40.548-33.849,82.927-90.745,113.482-134.248c6.424-9.162,12.01-17.573,17.116-25.605c14.372-21.366,30.399-41.98,55.769-51.618
			c110.31-41.878,22.579,153.94,11.595,185.37c-46.124,131.895-84.859,268.439-149.761,393.213
			c-112.779,216.802-396.357,341.311-633.445,350.434c-65.299,2.517-127.957,4.411-192.212-8.221
			c-37.076-7.306-108.022,0.571-134.874-29.96c-23.216-26.417-16.645-82.925-24.812-115.372
			c-17.266-68.545-58.413-139.616-58.43-211.302l15.602,12.862c27.711,33.846,88.061,45.711,129.96,39.146
			c67.257-10.555,96.85-72.812,100.606-133.034L5192.736,5463.952z"/>
		<path id="_x31_80638180" fill="none" stroke="#010101" stroke-width="80" d="M5189.973,5473.078
			c-18.487-32.271-88.551-86.477-105.318-128.514c-3.69-9.268-9.562-52.136-2.85-60.738c9.167-11.771,19.66-22.375,36.775-31.284
			c43.201-22.618,84.667-29.215,120.775-41.837c38.209-13.355,70.908-32.312,111.857-41.771
			c23.351-6.985,81.197-61.382,119.266-87.709c37.152-25.692-16.805-84.284-28.42-96.571c-3.71-3.921-6.909-7.442-10.182-10.443
			c0.444,0.552,0.959,1.041,1.354,1.63c20.562,31.351-58.377,70.009-77.65,78.513c-48.23,21.292-101.684,25.951-151.98,40.722
			c-67.737,19.9-177.586,53.053-224.012,108.627c-51.48,61.641-11.225,131.875,6.964,197.018
			c10.265,36.768,1.397,71.377-10.448,106.568c-11.849,35.243-34.134,68.437-6.262,102.494
			c27.711,33.847,88.061,45.71,129.96,39.146c67.255-10.555,96.848-72.811,100.606-133.034
			C5201.457,5499.151,5197.021,5485.384,5189.973,5473.078z"/>
		<path id="_x31_80638179" fill="none" stroke="#010101" stroke-width="80" d="M4924.109,5072.968
			c56.127-13.203,112.165,3.178,153.117-41.553c51.951-56.719,32.359-146.993,9.773-236.833
			c-27.453-109.188-72.261-215.804-162.918-236.245L4924.109,5072.968z"/>
		<path id="_x31_80638181" fill="none" stroke="#010101" stroke-width="80" d="M5633.845,4896.458
			c91.489-46.479,209.101-210.584,269.431-333.138c21.05-42.761,53.94-149.645,108.184-163.465
			c-23.938,3.595-53.187,9.04-60.989,10.407c-22.626,3.951-103.824,22.822-121.872,28.182
			c-94.596,28.145-185.861,71.521-272.023,22.424c-44.086-25.12-66.132-91.073-94.642-94.438
			c-48.603-5.733-71.957,20.347-138.55,42.292c-27.555,9.079-55.251,15.628-84.031,12.221c-14.645-1.741-25.441-3.71-38.379-11.307
			c-24.584-14.431-34.877-36.217-42.121-76.296c-1.776,31.317-16.562,72.121-31.906,99.214
			c-10.237,18.078-25.824,34.355-40.844,48.886c-32.127,31.056-71.018,54.264-113.694,68.376
			c-15.95,5.271-31.932,4.552-47.661,7.993l0.733,0.868c89.72,21.217,134.21,127.282,161.521,235.903
			c22.586,89.844,42.178,180.114-9.773,236.833c-15.059,16.452-32.16,24.632-50.557,29.063l0.438,1.811
			c65.225-7.312,133.816-17.787,184.209-39.018c17.736-7.474,35.795-15.328,54.084-22.845
			c28.766-11.581,63.494-24.275,94.199-31.337c6.336-1.398,12.705-2.664,19.104-3.673c16.306-2.494,30.535-2.618,40.865,0.807
			c4.783,1.882,8.613,4.6,12.307,7.987c0.444,0.552,0.961,1.04,1.354,1.629c2.777,4.234,3.727,8.604,3.265,13.015l21.965-2.071
			C5446.166,4951.827,5542.051,4943.086,5633.845,4896.458z"/>
		<path id="_x31_80638281" fill="none" stroke="#010101" stroke-width="80" d="M6513.53,2153.632l-14.651,1.902
			c-19.293,3.069-34.068,12.261-41.257,28.684c28.952,40.735,53.942,90.131,79.573,127.571
			c55.961,81.713,67.606,124.614,49.52,218.801c-6.617,34.493-63.735,167.495-4.396,178.655
			c42.01,7.892,76.373-90.823,83.295-116.062c9.407-34.299,11.48-70.011,8.137-105.375c-0.76-4.345-1.566-8.657-2.393-12.956
			c-9.091-44.237-20.899-85.549-35.967-124.748c-1.912-4.357-3.873-8.726-5.918-13.119
			C6600.95,2275.652,6560.377,2211.18,6513.53,2153.632z"/>
		<path id="_x31_80638282" fill="none" stroke="#010101" stroke-width="80" d="M5710.041,4455.649
			c-93.343,95.104-309.595-87.599-161.515-108.251C5597.688,4340.542,5793.068,4371.025,5710.041,4455.649z"/>
		<path id="_x31_80638283" fill="none" stroke="#010101" stroke-width="80" d="M5260.483,3352.927
			c16.678,16.035-38.806,142.913-45.106,155.138c-29.793,57.89-87.42,172.361-163.166,178.021
			c-131.277,16.629,38.463-69.6,101.894-203.119C5180.347,3427.728,5240.007,3333.23,5260.483,3352.927z"/>
		<path id="_x31_80638284" fill="none" stroke="#010101" stroke-width="80" d="M6891.529,3504.086
			c-66.642,5.199-93.827,136.866-111.322,183.401c-39.064,103.88-92.032,199.975-142.444,298.901
			c-56.241,110.346-99.184,241.752-174.882,341.292c-66.998,88.104-275.838,306.677-390.016,278.994
			c-59.178-14.348,8.432-206.088-47.846-208.276c-62.422-2.417-98.997,118.709-121.746,164.923
			c-60.33,122.553-177.939,286.658-269.433,333.137c-92.048,46.759-188.224,55.417-175.291,90.616
			c36.796,100.164,26.724,80.953-23.452,122.001c-76.188,62.341-144.254,88.345-237.568,113.016
			c-49.764,13.163-112.998,28.004-118.164,87.45c-4.49,51.772,72.018,126.843,113.369,154.418
			c63.492,42.346,115.273-24.923,178.182-32.29c61.249-7.148,85.003,60.13,140.115,73.371
			c130.92,31.46,234.447-115.853,309.275-195.709c34.573-36.881,91.806-33.626,129.502-65.1
			c40.548-33.849,82.925-90.742,113.482-134.248c5.779-8.209,11.312-16.976,17.116-25.606c14.37-21.367,30.397-41.981,55.769-51.618
			c110.308-41.876,22.577,153.939,11.594,185.369c-46.123,131.896-84.858,268.443-149.762,393.215
			c-112.775,216.803-396.355,341.312-633.445,350.434c-65.299,2.519-127.957,4.413-192.21-8.218
			c-37.078-7.31-108.024,0.569-134.872-29.963c-23.218-26.417-16.646-82.926-24.816-115.372
			c-17.264-68.545-58.412-139.618-58.43-211.304c-0.01-69.434,53.353-120.833,32.313-196.195
			c-18.189-65.141-58.445-135.379-6.964-197.017c46.428-55.574,156.276-88.729,224.012-108.63
			c50.298-14.767,103.748-19.429,151.98-40.719c19.275-8.502,98.216-47.163,77.648-78.513c-0.395-0.593-0.909-1.082-1.354-1.631
			c-3.695-3.389-7.521-6.104-12.309-7.985c-10.332-3.426-24.558-3.301-40.861-0.809c-6.4,1.007-12.768,2.277-19.105,3.672
			c-30.702,7.064-65.434,19.756-94.199,31.339c-18.289,7.517-36.346,15.373-54.084,22.846
			c-78.727,33.166-201.871,40.089-287.207,49.697l4.729,948.622c94.083,9.776,237.009,23.65,356.625-8.733
			c66.846-18.092,130.045,14.797,197.775,3.383c261.971-44.173,495.579-245.715,675.297-428.571
			c160.68-163.497,352.43-408.802,275.738-650.035c-22.297-70.092-75.324-158.786-163.592-109.289
			c-2.47,1.385-7.17,5.182-13.247,10.575c-26.171,23.54-77.001,77.634-96.609,103.827c-2.52,3.504-4.839,6.88-6.644,9.873
			c-16.27-81.167,27.863-141.739,77.504-203.761c41.729-52.121,90.648-98.578,140.797-142.951
			c11.186-9.904,23.986-17.913,34.486-28.54c39.832-40.331,74.258-63.002,126.186-113.116c11.77-11.358,24.564-23.812,35.898-35.587
			c28.504-29.61,53.693-61.251,75.863-95.627c22.054-34.225,42.808-69.219,59.742-106.045
			c16.631-36.176,34.773-72.971,50.094-109.667c14.826-35.483,26.829-70.89,41.96-106.243c1.8-4.197,3.681-8.363,5.386-12.597
			c9.344-23.076,20.041-45.623,31.047-67.994c21.234-43.099,43.754-85.619,63.507-129.395c9.678-21.436,19.2-43.229,26.588-65.526
			c7-21.1,8.669-43.705,11.911-65.532c3.315-22.332,8.665-44.578,7.564-67.276c-1.096-22.313-0.736-44.896-8.492-66.203
			C6927.191,3517.247,6914.666,3502.33,6891.529,3504.086z"/>
		<path id="_x31_80638285" fill="none" stroke="#010101" stroke-width="80" d="M6811.146,3148.704
			c-6.512-47.325-12.029-94.699-25.606-141.432c-13.269-45.688-46.405-115.414-125.75-218.66
			c-32.683-42.539-23.63-147.54,25.964-156.448c64.891-11.653,121.609,195.464,125.279,222.263
			c3.406,24.911-5.146,59.314,0.073,83.465c6.019,27.9,13.881,55.782,21.094,83.481c14.983,57.055,36.542,111.447,47.493,169.723
			c4.074,21.664,20.928,77.863-5.008,93.523c-29.981,18.117-40.354-17.409-46.139-40.062
			C6820.414,3212.781,6815.551,3180.76,6811.146,3148.704z"/>
		<path id="_x31_80638286" fill="none" stroke="#010101" stroke-width="80" d="M4919.017,4053.668
			c61.837,2.25,162.796-9.155,202.048,48.367c36.493,53.465,37.979,149.882,38.561,215.188
			c0.563,62.585,26.878,107.344,98.724,104.024c56.067-2.582,156.829-46.143,187.784-95.271
			c27.049-42.912,8.316-86.312,62.63-114.722c55.519-29.053,104.792-6.879,136.764-71.129
			c19.603-39.376,50.013-113.526,1.015-144.058c-44.953-28.01-74.439,11.725-85.725,47.151
			c-13.213,41.474-22.266,46.02-62.285,66.713c-33.639,17.378-81.277,23.138-116.906,9.054
			c-51.77-20.47-92.678-35.966-138.664-63.022c-15.67-9.218-64.506-38.405-64.723-82.494
			c-0.339-67.405,49.914-112.656,28.922-170.949c-16.99-47.247-94.762-42.354-146.277-30.802
			c-40.23,9.016-109.402,30.035-137.211,66.141L4919.017,4053.668z"/>
		<path id="_x31_80638287" fill="none" stroke="#010101" stroke-width="80" d="M8494.865,3080.31
			c8.936,60.648,17.414,120.923,28.02,179.623c5.5,30.466,9.326,61.538,11.773,92.991c4.656,59.789,4.273,121.102,0.529,182.14
			c-4.801,79.798-15.176,159.192-27.334,234.507c-30.16,187.877-101.846,368.853-195.689,535.188
			c-47.715,84.589-100.934,168.921-161.528,245.421c-45.104,56.967-104.007,104.883-152.472,161.797
			c-13.824,16.251-72.86,83.663-136.975,143.745c-74.379,69.911-155.687,130.05-180.954,88.874
			c-24.188-39.324,10.806-69.95,45.987-94.471c116.885-81.392,205.311-168.818,297.15-277.326
			c32.664-38.567,63.721-77.791,96.234-115.835c105.975-124.019,196.793-283.636,246.148-437.804
			c37.469-116.952,61.127-229.705,76.035-350.947c2.203-17.946,3.871-35.895,5.078-53.832c2.566-37.446,3.143-74.952,2.344-112.444
			c-0.115-7.587-0.303-15.177-0.648-22.839c-0.189-7.584-0.459-15.172-0.877-22.76c-0.27-7.514-0.686-15.102-1.107-22.684
			c-0.844-15.471-1.914-31.015-2.984-46.482c-0.654-9.219-1.311-18.368-2.125-27.587c-0.412-5.729-0.82-11.378-1.305-17.104
			l-0.078,0.001c-0.979-12.717-2.111-25.357-3.17-37.996c-9.33-108.786-21.936-215.385-46.461-322.046
			c-38.742-168.977-125.004-335.956-228.322-476.17c-79.006-107.065-171.367-210.086-271.903-298.163
			c-118.417-103.79-228.397-215.53-370.194-287.892c-65.268-33.36-127.129-72.846-191.262-108.669
			c-114.477-63.938-264.314-155.214-400.61-135.801c-56.503,8.092-80.036,38.85-125.755,64.494
			c-94.789,53.323-225.471,2.826-296.11-65.762c-35.55-34.477-66.616-73.23-96.235-113.333
			c-31.08-42.028-60.484-85.48-91.715-126.611c-19.918-26.335-84.229-97.278-113.578-159.705
			c-11.428-24.243-17.504-47.189-13.775-65.744c1.789-8.943,5.878-16.86,12.797-23.46c1.367-1.35,2.891-2.626,4.568-3.829
			c23.826-17.741,63.033-0.701,99.283,21.197c30.044,18.149,58.043,39.664,73.44,47.584
			c87.714,45.169,172.93,94.522,260.338,139.396c67.106,34.386,135.575,66.159,207.607,91.283
			c202.764,70.635,391.208,150.308,582.71,246.103c197.097,98.581,364.207,221.049,515.002,366.26
			c52.285,50.274,102.601,103.314,151.549,159.044c16.217,18.404,32.281,37.106,48.191,56.108
			c31.287,37.337,62.348,75.569,92.035,114.852c69.92,92.329,132.457,190.588,174.098,297.639
			C8456.576,2834.32,8476.752,2957.902,8494.865,3080.31z"/>
		<path id="_x31_80638280" fill="none" stroke="#010101" stroke-width="80" d="M4911.07,2747.928c0.34,0.062,0.68,0.13,1.023,0.208
			c12.783,2.693,23.196,18.796,20.834,40.548c-2.434,22.339,3.211,133.902-6.906,148.861
			c-10.107,14.955-13.893,21.192-13.893,21.192L4911.07,2747.928z"/>
	</g>
</g>
</svg>
