<?xml version="1.0" encoding="utf-8"?>
<!-- Generator: Adobe Illustrator 16.0.0, SVG Export Plug-In . SVG Version: 6.00 Build 0)  -->
<!DOCTYPE svg PUBLIC "-//W3C//DTD SVG 1.1//EN" "http://www.w3.org/Graphics/SVG/1.1/DTD/svg11.dtd">
<svg version="1.1" id="Layer_1" xmlns="http://www.w3.org/2000/svg" xmlns:xlink="http://www.w3.org/1999/xlink" x="0px" y="0px"
	 width="9744px" height="6823.471px" viewBox="0 0 9744 6823.471" enable-background="new 0 0 9744 6823.471" xml:space="preserve">
<g transform="scale(1.0)">
	<g id="_x31_80638866" transform=" scale(1.0, 1.0)">
		<path id="_x31_80638868" fill="none" stroke="#010101" stroke-width="80" d="M4916.119,6197.774
			c173.811,6.846,352.203,17.993,519.601-38.732c164.895-55.865,294.978-153.353,442.046-242.271
			c125.409-75.827,250.982-152.672,362.299-247.968c144.799-123.956,295.109-186.864,396.852-353.028
			c98.598-161.041,194.791-347.197,166.865-539.428c-14.225-97.955-71.814-192.677-64.744-293.662
			c3.662-52.291,34.148-93.296,40.695-145.428c9.059-72.199,2.205-151.279-6.654-223.118
			c-15.941-128.964-41.117-263.829-19.355-393.11c16.583-98.472,61.835-179.088,102.141-269.101
			c47.14-105.255,69.338-223.779,72.377-343.845c-2.338,92.062,30.49,162.564,47.293,250.091
			c17.762,92.494,25.843,186.452,39.508,279.562c7.498,51.004,29.154,102.556,31.477,154.03
			c2.389,52.683-10.682,106.318-8.391,159.849c4.856,112.989,34.064,230.939,63.662,339.618
			c69.27,254.404,125.045,536.822,312.672,736.619c99.627,106.07,232.823,145.902,369.884,141.851
			c71.133-2.098,143.298-16.017,212.345-38.603c139.895-45.787,281.19-114.613,412.54-180.596
			c207.865-104.428,408.401-251.727,548.54-434.255c110.35-143.693,132.042-304.706,151.778-477.304
			c18.854-164.948,24.177-387.082-41.306-541.668c-33.81-79.814-72.674-187.728-48.828-275.339
			c11.959-43.961,36.332-64.797,58.942-102.484c25.133-41.912,39.325-90.812,56.136-136.268
			c72.4-195.88,15.788-411.598-75.531-589.975c-82.475-161.118-165.953-339.229-274.325-482.288
			c-74.65-98.561-161.354-192.4-251.855-277.218c-120.647-113.049-223.532-192.028-309.099-337.192
			c-91.52-155.252-228.722-279.843-367.103-394.249c-285.823-236.34-633.206-364.938-985.414-478.189
			c-123.771-39.803-247.438-87.592-375.485-112.852c-151.19-29.818-313.273-33.429-466.215-19.067
			c-57.494,5.394-115.033,10.218-172.596,14.868c-133.512,10.776-273.647,33.034-403.676,64.371
			c-27.482,6.656-54.536,14.846-80.961,24.741c-52.732,19.744-103.039,45.981-146.898,81.117
			c-155.537,124.572-86.764,354.692,53.258,458.281c-19.049-14.097-39.055-25.755-60.537-30.58
			c-107.332-24.1-247.977,71.987-301.479,154.317L4916.119,6197.774z"/>
		<path id="_x31_80638869" fill="none" stroke="#010101" stroke-width="80" d="M9078.355,3120.078
			c25.142-41.912,39.327-90.804,56.138-136.263c72.399-195.877,15.792-411.594-75.524-589.973
			c-82.476-161.119-165.962-339.229-274.323-482.29c-74.66-98.562-161.36-192.402-251.865-277.22
			c-120.64-113.05-223.522-192.03-309.09-337.193c-91.519-155.25-228.719-279.841-367.11-394.248
			c-285.826-236.343-633.206-364.938-985.406-478.19c-123.77-39.805-247.445-87.591-375.49-112.852
			c-151.184-29.818-313.27-33.427-466.209-19.067c-57.501,5.394-115.039,10.219-172.606,14.87
			c-133.509,10.776-273.644,33.029-403.674,64.37c-27.478,6.654-54.534,14.845-80.96,24.739
			c-52.727,19.746-103.041,45.982-146.899,81.119c-155.53,124.573-86.764,354.693,53.265,458.282
			c26.4,19.536,51.009,43.743,75.266,60.938c178.164,126.283,393.373,207.04,562.823,346.867
			c107.895,89.028,225.847,163.158,305.788,278.032c83.592,120.107,140.934,254.981,216.572,379.692
			c74.359,122.611,156.835,239.956,241.245,355.869c83.188,114.224,150.542,215.3,192.017,350.777
			c37.896,123.801,59.428,263.097,55.936,400.369c-2.336,92.071,30.48,162.564,47.29,250.094
			c17.755,92.501,25.836,186.458,39.507,279.558c7.498,51.007,29.15,102.562,31.48,154.031
			c2.383,52.686-10.689,106.318-8.389,159.849c4.858,112.99,34.062,230.941,63.65,339.626
			c69.271,254.404,125.048,536.82,312.674,736.611c99.633,106.08,232.833,145.904,369.883,141.858
			c71.141-2.1,143.301-16.017,212.348-38.614c139.893-45.784,281.197-114.604,412.54-180.584
			c207.876-104.427,408.403-251.732,548.55-434.255c110.341-143.697,132.035-304.706,151.769-477.311
			c18.853-164.947,24.184-387.085-41.303-541.663c-33.813-79.82-72.669-187.726-48.833-275.341
			C9031.383,3178.609,9055.752,3157.775,9078.355,3120.078z M8290.551,3654.012c-25.963,87.595-47.245,180.377-91.412,261.449
			c-22.811,41.705-104.992,177.466-143.234,145.211c-5.146-4.362-9.521-11.736-12.826-22.806
			c-1.381-4.521-1.763-10.318-1.375-17.251c0.074-1.132,0.15-2.338,0.227-3.541c0.154-1.281,0.309-2.637,0.461-4.07
			c0.23-1.658,0.462-3.467,0.77-5.275c0.386-2.638,0.844-5.276,1.459-8.065c0.232-1.356,0.539-2.788,0.844-4.22
			c11.909-55.548,47.859-138.562,58.918-163.896c80.575-185.636,107.928-294.854,135.05-455.983
			c16.138-95.863,15.38-213.546,8.63-300.179c-11.2-142.525-58.113-284.839-123.836-415.517
			c-95.596-190.22-278.742-340.808-453.826-458.635c-29.949-20.138-61.127-41.557-93.914-58.83
			c-46.385-24.329-95.918-40.211-149.52-32.359c-88.932,13.117-182.552,71.821-271.707,26.172
			c-60.898-31.235-134.924-95.975-174.393-150.904c-3.912-5.417-7.833-10.911-11.672-16.403
			c-22.419-31.377-44.996-63.811-68.033-96.017c-1.15-1.579-2.225-3.085-3.379-4.665
			c-98.361-138.832-203.329-279.989-335.334-383.577c-3.842-3.006-9.753-7.065-17.051-11.873
			c-46.997-31.11-150.896-95.72-121.863-141.278c2.613-4.073,6.223-7.995,11.057-11.698c3.228-2.491,6.836-3.856,10.678-4.388
			c7.068-0.917,14.897,1.104,22.809,4.479c13.823,6.002,27.645,16.301,36.783,22.16c9.676,6.161,19.352,12.322,28.951,18.56
			c105.666,67.772,208.336,137.735,314.77,205.505c85.007,54.172,179.464,88.963,264.938,143.812
			c93.299,59.958,196.662,115.303,291.499,177.519c37.169,24.421,72.952,49.822,106.354,76.963
			c122.256,99.236,249.342,194.017,371.209,294.535c60.203,49.622,119.182,100.674,175.771,154.368
			c43.387,41.286,88.692,110.672,119.098,162.904c31.636,54.266,60.352,110.121,85.23,167.412
			c34.782,80.026,62.269,162.931,80.536,248.259c6.834,31.858,12.357,64.021,16.504,96.561c-0.171-0.112-0.256-0.225-0.29-0.307
			l0.521,2.262C8382.82,3272.242,8342.253,3479.429,8290.551,3654.012z"/>
		<path id="_x31_80638937" fill="none" stroke="#010101" stroke-width="80" d="M8565.199,1665.404l-0.844,0.83l-83.714,72.778
			c-82.626-92.373-165.173-185.05-234.819-285.132c-68.414-98.351-136.602-195.648-213.465-286.149l49.92-57.199
			c53.291,57.543,101.67,119.164,141.44,186.6c85.54,145.185,188.438,224.188,309.079,337.213
			C8543.7,1644.573,8554.449,1654.876,8565.199,1665.404z"/>
		<path id="_x31_80638936" fill="none" stroke="#010101" stroke-width="80" d="M8480.642,1739.012l-185.324,161.107
			c-28.562-27.827-56.21-56.108-81.702-85.068c-127.241-144.357-226.525-306.167-354.913-448.187l173.655-199.134
			c76.863,90.501,145.051,187.799,213.465,286.149C8315.469,1553.962,8398.016,1646.638,8480.642,1739.012z"/>
		<path id="_x31_80638935" fill="none" stroke="#010101" stroke-width="80" d="M8295.317,1900.119l-60.293,52.394
			c-38.086-35.797-82.392-80.621-113.569-117.182c-114.184-134.058-209.401-261.218-328.883-392.48
			c-0.076-0.075-0.076-0.075-0.077-0.15l66.205-75.836c128.39,142.021,227.674,303.829,354.913,448.187
			C8239.107,1844.014,8266.755,1872.292,8295.317,1900.119z"/>
		<path id="_x31_80638934" fill="none" stroke="#010101" stroke-width="80" d="M8235.024,1952.512l-177.642,154.462
			c-137.681-157.751-301.785-290.739-472.875-425.903l207.987-238.371c0.001,0.075,0.001,0.075,0.079,0.15
			c119.481,131.261,214.699,258.421,328.881,392.48C8152.633,1871.891,8196.94,1916.717,8235.024,1952.512z"/>
		<path id="_x31_80638933" fill="none" stroke="#010101" stroke-width="80" d="M8057.383,2106.975l-122.423,106.373
			c-146.821-142.891-315.917-268.338-485.472-377.512l135.02-154.764C7755.598,1816.235,7919.702,1949.226,8057.383,2106.975z"/>
		<path id="_x31_80638932" fill="none" stroke="#010101" stroke-width="80" d="M7934.96,2213.348l-52.378,45.598
			c-121.867-100.517-248.955-195.299-371.209-294.536c-33.404-27.14-69.189-52.543-106.354-76.963l2.228-3.168l42.242-48.444
			C7619.043,1945.009,7788.139,2070.458,7934.96,2213.348z"/>
		<path id="_x31_80638943" fill="none" stroke="#010101" stroke-width="80" d="M8082.277,1110.533l-49.92,57.199
			c-49.913-58.905-103.512-115.016-163.18-166.595c-92.991-80.452-222.081-145.47-330.592-202.463
			c-225.615-118.341-447.854-218.455-700.587-269.167c-103.519-20.763-204.425-44.393-304.95-77.518
			c-29.718-9.817-60.051-19.935-90.928-29.298l-12.426-122.109c22.193,3.203,44.234,6.931,66.043,11.261
			c128.02,25.242,251.654,73.091,375.447,112.878c352.179,113.221,699.594,241.819,985.406,478.193
			C7934.844,967.644,8012.786,1035.616,8082.277,1110.533z"/>
		<path id="_x31_80638942" fill="none" stroke="#010101" stroke-width="80" d="M8032.357,1167.73l-173.655,199.134
			c-35.397-39.191-73.026-76.871-114.112-112.284c-248.723-214.512-447.311-289.277-767.926-405.491
			c-142.145-51.51-263.402-101.927-460.146-158.688c-15.671-4.494-31.95-9.136-48.614-13.702l-25.784-254.008
			c30.877,9.364,61.21,19.481,90.93,29.298c100.523,33.124,201.43,56.756,304.948,77.518
			c252.73,50.712,474.972,150.827,700.589,269.167c108.511,56.994,237.599,122.011,330.592,202.463
			C7928.846,1052.715,7982.444,1108.826,8032.357,1167.73z"/>
		<path id="_x31_80638941" fill="none" stroke="#010101" stroke-width="80" d="M7858.702,1366.865l-66.207,75.836
			c-125.627-137.956-221.999-195.046-397.935-266.611c-104.668-42.535-246.891-120.49-362.231-165.113
			c-130.321-50.402-226.542-87.527-380.129-144.967c-55.523-20.771-112.429-37.398-170.331-52.59l-13.966-136.721
			c16.666,4.565,32.945,9.208,48.612,13.702c196.748,56.761,318.004,107.179,460.148,158.687
			c320.615,116.216,519.203,190.981,767.93,405.493C7785.676,1289.994,7823.305,1327.674,7858.702,1366.865z"/>
		<path id="_x31_80638940" fill="none" stroke="#010101" stroke-width="80" d="M7792.495,1442.7l-207.987,238.371
			c-45.766-36.159-91.992-72.542-138.373-109.529c-122.482-97.803-284.287-164.646-421.516-244.344
			c-108.43-63.021-224.926-109.604-335.97-167.495c-58.669-30.561-119.72-68.954-182.61-108.472l-24.17-237.812
			c57.902,15.191,114.808,31.817,170.331,52.59c153.585,57.441,249.808,94.565,380.129,144.968
			c115.343,44.624,257.563,122.578,362.231,165.113C7570.496,1247.654,7666.868,1304.744,7792.495,1442.7z"/>
		<path id="_x31_80638939" fill="none" stroke="#010101" stroke-width="80" d="M7584.508,1681.072l-135.02,154.764
			c-83.09-53.497-166.253-103.075-246.965-148.891c-223.233-126.635-436.639-243.867-655.422-377.439
			c-5.066-3.08-10.366-6.009-15.742-8.711l-25.322-249.564c62.893,39.521,123.941,77.912,182.612,108.472
			c111.042,57.894,227.536,104.475,335.97,167.497c137.227,79.695,299.031,146.541,421.512,244.344
			C7492.516,1608.529,7538.742,1644.913,7584.508,1681.072z"/>
		<path id="_x31_80638938" fill="none" stroke="#010101" stroke-width="80" d="M7449.488,1835.835l-42.242,48.444l-2.228,3.168
			c-94.839-62.215-198.202-117.561-291.501-177.518c-85.474-54.848-179.929-89.641-264.938-143.812
			c-106.432-67.771-209.102-137.731-314.768-205.503l3.148-4.754l-5.602-55.063c5.376,2.702,10.676,5.631,15.742,8.71
			c218.783,133.573,432.188,250.806,655.422,377.438C7283.235,1732.762,7366.398,1782.339,7449.488,1835.835z"/>
		<path id="_x31_80638949" fill="none" stroke="#010101" stroke-width="80" d="M6429.695,300.582l12.426,122.109
			c-81.168-24.644-166.102-44.385-253.19-40.615c-72.956,3.143-124.488,30.959-190.075,47.048l-67.262-127.661
			c32.642-2.77,65.279-5.616,97.916-8.687C6160.371,280.489,6297.993,281.377,6429.695,300.582z"/>
		<path id="_x31_80638948" fill="none" stroke="#010101" stroke-width="80" d="M6442.121,422.69l25.784,254.008
			c-94.304-26.127-201.894-51.63-301.419-57.859c-10.059-0.66-38.012-0.083-66.199,2.905l-101.428-192.621
			c65.585-16.088,117.115-43.904,190.073-47.048C6276.02,378.306,6360.953,398.047,6442.121,422.69z"/>
		<path id="_x31_80638947" fill="none" stroke="#010101" stroke-width="80" d="M6467.905,676.698l13.964,136.722
			c-97.913-25.671-198.742-47.266-300.031-77.827c-5.84-1.721-14.902-4.57-25.882-8.167l-55.667-105.682
			c28.186-2.988,56.143-3.565,66.199-2.905C6266.012,625.068,6373.6,650.571,6467.905,676.698z"/>
		<path id="_x31_80638946" fill="none" stroke="#010101" stroke-width="80" d="M6481.869,813.42l24.17,237.812
			c-83.165-52.366-169.402-106.536-256.945-146.916l-93.14-176.89c10.981,3.595,20.044,6.445,25.882,8.166
			C6283.127,766.156,6383.956,787.75,6481.869,813.42z"/>
		<path id="_x31_80638945" fill="none" stroke="#010101" stroke-width="80" d="M6506.039,1051.23l25.322,249.562
			c-28.338-14.339-59.898-23.097-86.242-24.409l-196.025-372.069C6336.637,944.695,6422.874,998.865,6506.039,1051.23z"/>
		<path id="_x31_80638944" fill="none" stroke="#010101" stroke-width="80" d="M6531.361,1300.794l5.6,55.066l-3.146,4.752
			c-9.6-6.236-19.277-12.398-28.953-18.56c-9.135-5.86-22.958-16.158-36.781-22.16l-22.957-43.508
			C6471.461,1277.695,6503.023,1286.454,6531.361,1300.794z"/>
		<path id="_x31_80638954" fill="none" stroke="#010101" stroke-width="80" d="M5931.594,301.462l67.26,127.661
			c-53.912,13.128-117.344,18.364-210.037-4.527c-56.291-13.914-115.81-11.397-175.02-3.836l-64.887-69.803
			c101.604-20.296,206.738-35.172,307.959-43.263C5881.827,305.693,5906.711,303.615,5931.594,301.462z"/>
		<path id="_x31_80638953" fill="none" stroke="#010101" stroke-width="80" d="M5998.855,429.123l101.432,192.621
			c8.021,15.232,9.557,18.138,17.676,33.557c0.469,0.897-72.63-6.788-90.714-9.017l-2.841-0.825
			c-86.471-17.176-178.773-74.574-266.857-78.639c-2.078-0.071-4.992-0.292-8.602-0.589l-135.15-145.472
			c59.212-7.563,118.729-10.079,175.018,3.835C5881.51,447.487,5944.943,442.251,5998.855,429.123z"/>
		<path id="_x31_80638952" fill="none" stroke="#010101" stroke-width="80" d="M6155.954,727.424l93.138,176.892
			c-61.051-28.221-122.721-49.736-184.383-59.27c-21.655-3.354-41.471-4.146-59.21-2.759l-256.55-276.053
			c3.609,0.295,6.523,0.515,8.602,0.587c88.084,4.065,183.227,62.287,269.698,79.461l90.714,9.017
			c6.846,12.997,4.775,9.068,17.711,33.626C6146.577,709.624,6149.766,715.679,6155.954,727.424z"/>
		<path id="_x31_80638951" fill="none" stroke="#010101" stroke-width="80" d="M6249.094,904.316l196.025,372.069
			c-12.518-0.731-23.883,0.347-33.098,3.223l-406.522-437.322c17.739-1.388,37.555-0.592,59.21,2.759
			C6126.375,854.582,6188.041,876.094,6249.094,904.316z"/>
		<path id="_x31_80638950" fill="none" stroke="#010101" stroke-width="80" d="M6445.119,1276.384l22.959,43.508
			c-7.911-3.374-15.742-5.396-22.811-4.479l-33.246-35.804C6421.236,1276.73,6432.602,1275.654,6445.119,1276.384z"/>
		<path id="_x31_80638959" fill="none" stroke="#010101" stroke-width="80" d="M5548.914,350.957l64.885,69.803
			c-34.558,4.43-69.041,10.593-102.601,16.303c-143.919,24.288-311.194,149.426-258.604,317.119
			c2.306,7.305,4.992,14.382,8.063,21.382c27.025,60.754,83.471,110.304,142.752,152.92l-202.66-80.033l-3.38,2.267
			c-78.323-115.362-92.896-275.963,27.986-372.842c43.856-35.112,94.159-61.344,146.917-81.1
			c26.424-9.917,53.455-18.102,80.948-24.778C5484.635,364.482,5516.582,357.419,5548.914,350.957z"/>
		<path id="_x31_80638958" fill="none" stroke="#010101" stroke-width="80" d="M5837.37,1099.95l-263.324-104.036l-170.634-67.429
			c-50.913-30.726-37.424-24.103-80.27-66.446c-28.26-27.901-35.828-32.18-54.729-69.337l-7.752-17.138
			c-3.073-7-5.76-14.079-8.063-21.381c-1.644-5.241-3.069-10.44-4.293-15.595c-37.864-159.821,123.474-277.996,262.896-301.525
			c33.56-5.709,68.042-11.871,102.601-16.303l135.148,145.474c-57.058-5.174-294.357-33.836-348.507,69.023
			c-40.095,76.092,34.312,177.522,82.536,225.882c62.354,62.575,232.6,142.362,301.408,197.241
			C5801.662,1072.212,5819.399,1086.045,5837.37,1099.95z"/>
		<path id="_x31_80638957" fill="none" stroke="#010101" stroke-width="80" d="M6256.662,1265.568l-419.294-165.616
			c-17.969-13.908-35.708-27.74-52.987-41.57c-68.804-54.878-239.053-134.668-301.408-197.24
			c-48.225-48.361-122.631-149.791-82.536-225.881c54.151-102.862,291.449-74.198,348.509-69.024l256.553,276.053
			c-90.395,6.64-127.03,68.709-75.197,136.728c74.33,97.513,176.155,171.016,274.91,243.021
			C6223.025,1235.038,6240.076,1249.774,6256.662,1265.568z"/>
		<path id="_x31_80638956" fill="none" stroke="#010101" stroke-width="80" d="M6005.501,842.287l406.521,437.322
			c-17.665,5.456-27.725,17.68-23.658,38.015l-131.701-52.054c-16.586-15.793-33.633-30.529-51.445-43.532
			c-98.755-72.004-200.58-145.507-274.91-243.021C5878.472,910.997,5915.109,848.926,6005.501,842.287z"/>
		<path id="_x31_80638955" fill="none" stroke="#010101" stroke-width="80" d="M6412.021,1279.608l33.246,35.804
			c-3.838,0.533-7.45,1.898-10.678,4.389c-4.836,3.701-8.441,7.625-11.055,11.697l-35.172-13.876
			C6384.295,1297.286,6394.356,1285.063,6412.021,1279.608z"/>
		<path id="_x31_80638964" fill="none" stroke="#010101" stroke-width="80" d="M6390.553,1723.411
			c-1.15,0.754-2.303,1.36-3.455,2.04c-38.707,22.444-71.806,42.543-49.465,91.93c0.154,0.377,0.385,0.829,0.538,1.204
			c-35.628-67.217-72.098-133.906-115.714-196.589c-79.934-114.831-197.886-188.984-305.778-278
			c-169.399-139.838-384.651-220.602-562.808-346.861c-24.267-17.21-48.838-41.428-75.258-60.971
			c-31.175-23.075-58.819-52.409-81.241-85.444l3.38-2.267l202.66,80.032c36.398,26.306,73.949,49.896,106.43,71.991
			c187.758,127.673,382.041,231.002,560.58,383.255C6188.602,1484.555,6297.797,1599.334,6390.553,1723.411z"/>
		<path id="_x31_80638963" fill="none" stroke="#010101" stroke-width="80" d="M6408.297,1705.221l3.527,5.569
			c-7.062,4.458-14.203,8.614-21.271,12.62c-92.754-124.076-201.951-238.856-320.131-339.683
			c-178.537-152.251-372.822-255.581-560.578-383.253c-32.48-22.094-70.031-45.686-106.43-71.99l133.617,52.805
			c23.572,14.273,47.613,28.094,71.725,42.215c149.59,87.36,279.293,170.307,415.598,279.314
			c125.475,100.36,174.313,148.191,293.721,270.712C6358.387,1614.897,6395.934,1683.771,6408.297,1705.221z"/>
		<path id="_x31_80638962" fill="none" stroke="#010101" stroke-width="80" d="M6470.657,1666.612
			c-12.521,8.534-24.425,17.597-35.405,27.035c-7.299,6.267-15.279,11.93-23.428,17.145l-3.527-5.57
			c-12.365-21.449-49.91-90.323-90.227-131.691c-119.407-122.521-168.244-170.352-293.721-270.712
			c-136.305-109.007-266.008-191.954-415.596-279.313c-24.111-14.122-48.152-27.942-71.727-42.214l300.341,118.66
			c180.073,139.14,389.483,283.729,534.46,452.768C6404.772,1591.085,6437.793,1628.999,6470.657,1666.612z"/>
		<path id="_x31_80638961" fill="none" stroke="#010101" stroke-width="80" d="M6897.777,1868.228
			c-36.316-50.643-73.942-100.831-113.948-146.19c-47.53-53.71-107.499-168.049-166.404-137.808
			c-48.08,24.722-101.456,51.034-146.768,82.382c-32.862-37.614-65.885-75.528-98.825-113.896
			c-144.977-169.036-354.389-313.625-534.464-452.766l419.294,165.616c67.498,64.147,127.699,144.43,205.414,185.279l82.557,23.06
			l0.766-1.13c7.298,4.808,13.209,8.867,17.049,11.873C6694.45,1588.238,6799.418,1729.394,6897.777,1868.228z"/>
		<path id="_x31_80638960" fill="none" stroke="#010101" stroke-width="80" d="M6388.363,1317.622l35.172,13.878
			c-29.036,45.558,74.864,110.167,121.863,141.276l-0.768,1.13l-82.555-23.06c-77.715-40.848-137.916-121.132-205.414-185.278
			L6388.363,1317.622z"/>
		<path id="_x31_80638931" fill="none" stroke="#010101" stroke-width="80" d="M9141.471,2604.73l-110.742,17.298
			c-19.729-75.155-53.969-148.253-100.043-222.836c-52.288-84.818-77.703-181.814-125.306-268.749
			c-46.533-84.83-118.87-152.206-180.456-226.459c-46.301-55.822-95.289-110.359-144.282-164.971l83.714-72.778l0.844-0.83
			c78.788,76.409,153.812,159.378,219.462,246.132c108.346,143.11,191.81,321.222,274.351,482.308
			C9092.872,2460.011,9121.974,2531.233,9141.471,2604.73z"/>
		<path id="_x31_80638930" fill="none" stroke="#010101" stroke-width="80" d="M9030.729,2622.029l-203.587,31.929
			c3.839-3.17,5.912-10.935,5.914-24.421c0.011-92.371-93.824-244.47-136.285-306.779
			c-75.788-111.223-141.519-186.298-241.883-276.455c-52.065-46.772-107.43-95.498-159.57-146.186l185.324-161.105
			c48.991,54.612,97.981,109.149,144.282,164.97c61.584,74.254,133.923,141.63,180.456,226.46
			c47.603,86.937,73.018,183.931,125.306,268.749C8976.76,2473.774,9011,2546.872,9030.729,2622.029z"/>
		<path id="_x31_80638929" fill="none" stroke="#010101" stroke-width="80" d="M8833.056,2629.535
			c-0.002,13.485-2.075,21.251-5.914,24.422l-7.604,1.219c-42.237-11.829-171.389-266.183-197.722-304.26
			c-101.436-146.812-238.279-263.051-369.819-382.764c-5.453-4.963-11.134-10.225-16.973-15.641l60.296-52.395
			c52.14,50.688,107.502,99.414,159.569,146.186c100.364,90.156,166.093,165.231,241.883,276.454
			C8739.231,2385.067,8833.066,2537.166,8833.056,2629.535z"/>
		<path id="_x31_80638928" fill="none" stroke="#010101" stroke-width="80" d="M8803.104,2657.69l-415.553,65.15
			c-18.196-61.673-39.231-122.888-63.108-183.572c-66.339-168.348-158.481-308.021-267.06-432.295l177.642-154.462
			c5.839,5.415,11.52,10.678,16.973,15.643c131.54,119.71,268.384,235.95,369.819,382.762
			c26.333,38.077,155.484,292.432,197.722,304.26L8803.104,2657.69z"/>
		<path id="_x31_80638927" fill="none" stroke="#010101" stroke-width="80" d="M8387.551,2722.841l-83.325,13.032
			c-79.388-195.146-211.46-368.881-369.266-522.525l122.423-106.373c108.578,124.274,200.721,263.948,267.06,432.295
			C8348.319,2599.951,8369.354,2661.167,8387.551,2722.841z"/>
		<path id="_x31_80638926" fill="none" stroke="#010101" stroke-width="80" d="M8304.226,2735.873l-36.938,5.791l-4.605,1.965
			c-24.881-57.291-53.595-113.144-85.232-167.412c-30.405-52.232-75.709-121.617-119.096-162.903
			c-56.592-53.695-115.568-104.749-175.771-154.368l52.378-45.598C8092.766,2366.992,8224.838,2540.725,8304.226,2735.873z"/>
		<path id="_x31_80638917" fill="none" stroke="#010101" stroke-width="80" d="M8451.42,3007.371
			c6.835,43.46,12.362,87.074,16.658,130.991c-24.656-10.804-46.31-20.335-63.586-28.139l0.998-2.111
			c-16.741-29.506-16.583-72.449-21.8-110.412L8451.42,3007.371z"/>
		<path id="_x31_80638916" fill="none" stroke="#010101" stroke-width="80" d="M8405.49,3108.108l-1,2.111
			c-26.344-11.858-42.697-19.741-44.771-21.769c-4.145-32.542-9.67-64.703-16.504-96.561l40.475,5.805
			C8388.907,3035.66,8388.749,3078.602,8405.49,3108.108z"/>
		<path id="_x31_80638920" fill="none" stroke="#010101" stroke-width="80" d="M9081.3,3097.425l7.521,3.603
			c-3.224,6.484-6.758,12.895-10.442,19.081c-22.582,37.709-47.006,58.549-58.913,102.493
			c-17.058,62.489-2.161,135.243,20.027,200.825c-11.595-30.869-19.657-50.216-19.657-50.216s-68.651-28.81-161.728-68.202
			c-3.224-7.907-5.524-16.188-6.834-24.776c-8.897-58.676,36.878-112.325,70.744-153.824c12.752-15.693,24.732-31.085,35.79-46.626
			L9081.3,3097.425z"/>
		<path id="_x31_80638918" fill="none" stroke="#010101" stroke-width="80" d="M8451.42,3007.371l268.401,38.329
			c-41.701,55.299-81.569,118.355-58.303,174.972l-0.387,0.829c-0.999-0.45-2.074-0.901-3.149-1.35
			c-69.267-29.562-136.688-58.527-189.904-81.789C8463.78,3094.445,8458.255,3050.832,8451.42,3007.371z"/>
		<path id="_x31_80638919" fill="none" stroke="#010101" stroke-width="80" d="M8819.789,3288.802
			c-9.678-4.053-19.506-8.256-29.49-12.454c-41.699-17.631-85.778-36.391-129.167-54.846l0.387-0.83
			c-23.267-56.616,16.602-119.672,58.303-174.971l237.987,34.086c-11.06,15.541-23.04,30.931-35.79,46.625
			c-33.868,41.498-79.646,95.146-70.744,153.824c1.306,8.585,3.61,16.868,6.834,24.773
			C8845.742,3299.83,8832.92,3294.354,8819.789,3288.802z"/>
		<path id="_x31_80638925" fill="none" stroke="#010101" stroke-width="80" d="M9141.471,2604.73
			c33.089,124.709,38.608,255.87-6.945,379.135c-14.364,38.752-26.733,79.908-45.704,117.161l-7.521-3.602l-123.491-17.642
			c29.646-41.566,52.768-84.401,67.285-136.94c32.188-116.458,31.89-220.505,5.635-320.815L9141.471,2604.73z"/>
		<path id="_x31_80638924" fill="none" stroke="#010101" stroke-width="80" d="M9030.729,2622.029
			c26.255,100.31,26.553,204.357-5.635,320.814c-14.52,52.54-37.64,95.376-67.285,136.94l-237.987-34.087
			c22.506-29.876,45.546-57.49,59.446-80.645c54.687-90.656,76.739-212.375,23.838-307.361l16.433-2.516
			c2.994,0.898,5.531,0.517,7.604-1.22L9030.729,2622.029z"/>
		<path id="_x31_80638923" fill="none" stroke="#010101" stroke-width="80" d="M8803.104,2657.69
			c52.903,94.987,30.851,216.705-23.838,307.361c-13.898,23.155-36.938,50.771-59.444,80.646l-268.401-38.328
			c-15.044-95.96-36.229-190.852-63.871-284.53L8803.104,2657.69z"/>
		<path id="_x31_80638922" fill="none" stroke="#010101" stroke-width="80" d="M8451.42,3007.371l-67.729-9.675
			c-1.307-9.793-2.995-19.206-5.376-27.943c-13.744-49.476-27.561-98.799-42.917-147.669c-9.213-29.217-19.656-57.902-31.172-86.212
			l83.325-13.031C8415.191,2816.518,8436.378,2911.412,8451.42,3007.371z"/>
		<path id="_x31_80638921" fill="none" stroke="#010101" stroke-width="80" d="M8383.69,2997.696l-40.475-5.805
			c-18.268-85.33-45.754-168.233-80.534-248.26l4.605-1.967l36.938-5.791c11.516,28.311,21.959,56.995,31.172,86.213
			c15.358,48.871,29.175,98.196,42.917,147.669C8380.695,2978.49,8382.384,2987.903,8383.69,2997.696z"/>
		<path id="_x31_80638915" fill="none" stroke="#010101" stroke-width="80" d="M9106.132,3630.65
			c10.515,58.75,15.115,121.124,15.803,182.977c-18.212,155.463-13.556,430.15-111.565,621.917
			c-14.903,27.677-32.26,54.832-52.611,81.389c-136.638,166.974-316.427,310.741-509.655,414.075
			c-12.904,6.875-25.882,13.602-38.863,20.107c-131.331,66.004-272.638,134.818-412.567,180.645
			c-69.039,22.572-141.154,36.488-212.344,38.573c-64.047,1.922-127.248-5.802-186.537-25.36l83.032-196.867
			c160.353,35.731,338.442,12.891,483.058-59.167c293.914-146.382,739.046-393.382,781.7-754.269
			c13.985-118.086,8.317-236.966,7.405-355.479c-0.68-100.2,22.368-213.632,6.094-312.075
			c-10.055-60.256-77.553-102.781-100.972-162.109c93.076,39.39,161.728,68.202,161.728,68.202s8.062,19.347,19.657,50.216
			c4.681,13.781,9.67,27.334,14.815,40.282c17.044,47.511,37.08,107.976,51.747,166.565
			C9106.055,3630.422,9106.131,3630.498,9106.132,3630.65z"/>
		<path id="_x31_80638914" fill="none" stroke="#010101" stroke-width="80" d="M8959.08,3467.115
			c16.272,98.443-6.775,211.873-6.094,312.077c0.912,118.515,6.58,237.395-7.407,355.478
			c-42.654,360.889-487.784,607.891-781.698,754.271c-144.615,72.056-322.707,94.896-483.058,59.167l21.587-51.273
			c6.898-16.322,13.623-32.246,21.277-50.363l14.209-33.78c197.516,81.776,442.195-19.388,614.767-122.233
			c184.398-109.797,369.793-183.58,463.885-386.645c79.883-172.299,92.651-369.566,91.971-556.262
			c-0.295-94.176,25.902-178.604-4.121-271.675c-4.068-12.502-66.413-156.595-84.608-187.076
			c13.129,5.552,25.953,11.03,38.319,16.206C8881.525,3364.336,8949.025,3406.861,8959.08,3467.115z"/>
		<path id="_x31_80638913" fill="none" stroke="#010101" stroke-width="80" d="M8904.399,3475.878
			c30.021,93.069,3.824,177.499,4.123,271.675c0.677,186.697-12.091,383.967-91.975,556.262
			c-94.092,203.062-279.483,276.847-463.883,386.646c-172.571,102.846-417.253,204.01-614.767,122.233l41.862-99.298
			c282.763,35.513,567.686-72.805,751.707-269.469c124.577-133.125,184.569-311.188,227.211-497.656
			c54.312-237.274,41.046-416.941,30.775-668.114l0.845-1.809c9.984,4.202,19.812,8.402,29.49,12.455
			C8837.986,3319.282,8900.329,3463.377,8904.399,3475.878z"/>
		<path id="_x31_80638912" fill="none" stroke="#010101" stroke-width="80" d="M8790.299,3276.346l-0.845,1.81
			c10.271,251.172,23.538,430.841-30.775,668.114c-42.642,186.469-102.634,364.531-227.211,497.656
			c-184.021,196.666-468.946,304.981-751.709,269.469l37.796-89.494c49.375,16.787,104.592,21.887,165.417,11.836
			c1.766-0.305,3.532-0.609,5.221-0.914l2.456,13.482c125.485,9.799,304.661-116.112,399.896-196.143
			c103.374-86.898,153.529-193.447,196.628-317.237c71.359-204.902,63.86-477.627,56.353-690.757
			c-2.299-67.124,58.917-138.882,30.734-190.896c-7.369-13.549-14.28-20.767-20.729-22.943l4.452-10.178
			c1.073,0.45,2.15,0.903,3.147,1.352C8704.521,3239.956,8748.6,3258.714,8790.299,3276.346z"/>
		<path id="_x31_80638911" fill="none" stroke="#010101" stroke-width="80" d="M8674.262,3253.269
			c28.182,52.013-33.033,123.77-30.734,190.896c7.508,213.13,15.007,485.854-56.353,690.759
			c-43.099,123.79-93.254,230.335-196.628,317.233c-95.234,80.032-274.415,205.943-399.896,196.145l-2.456-13.484
			c200.136-35.311,362.573-190.724,462.576-354.543c84.104-137.729,116.293-290.951,130.057-448.744
			c11.761-135.107-9.271-269.48,6.257-402.638c3.687-31.801,26.128-212.437,66.448-198.567
			C8659.979,3232.502,8666.893,3239.72,8674.262,3253.269z"/>
		<path id="_x31_80638910" fill="none" stroke="#010101" stroke-width="80" d="M8657.982,3220.148l-4.45,10.178
			c-40.32-13.866-62.762,166.768-66.45,198.571c-15.524,133.157,5.504,267.528-6.255,402.638
			c-13.764,157.791-45.954,311.016-130.059,448.742c-100.003,163.819-262.438,319.232-462.574,354.543
			c-1.69,0.307-3.455,0.611-5.223,0.916c-60.823,10.051-116.04,4.951-165.417-11.838l34.103-80.754
			c105.978,12.396,229.09-48.171,308.423-102.555c93.469-64.056,177.415-199.066,221.969-299.425
			c105.849-238.269,99.345-530.056,97.448-784.857c-0.608-73.309-4.363-145.93-11.419-217.947
			C8521.294,3161.624,8588.716,3190.584,8657.982,3220.148z"/>
		<path id="_x31_80638909" fill="none" stroke="#010101" stroke-width="80" d="M8479.497,3356.306
			c1.896,254.804,8.4,546.591-97.448,784.859c-44.552,100.358-128.5,235.367-221.969,299.425
			c-79.333,54.382-202.445,114.951-308.423,102.555l202.478-480.135l1.77-2.34c38.24,32.257,120.424-103.506,143.234-145.211
			c44.167-81.072,65.449-173.854,91.412-261.447c51.702-174.583,92.27-381.768,69.399-563.606c-0.075-0.677-0.154-1.28-0.23-1.956
			c2.073,2.029,18.427,9.911,44.771,21.77c17.278,7.803,38.932,17.335,63.588,28.139
			C8475.132,3210.375,8478.889,3282.999,8479.497,3356.306z"/>
		<path id="_x31_80638908" fill="none" stroke="#010101" stroke-width="80" d="M7680.823,4948.109l-83.032,196.867
			c-67.654-22.258-130.238-59.973-183.299-116.457c-5.532-5.946-10.98-11.961-16.279-17.982c-2.688-3.008-5.301-6.017-7.91-9.102
			c-5.989-6.994-11.748-14.067-17.432-21.215c-2.531-3.161-4.988-6.396-7.445-9.556c-7.836-10.157-15.357-20.544-22.653-31.076
			c-2.458-3.462-4.839-6.926-7.14-10.387c-2.382-3.46-4.686-6.999-6.992-10.537c-6.832-10.456-13.513-21.146-19.884-31.983
			c-2.151-3.615-4.301-7.227-6.374-10.914c-1.768-3.085-3.611-6.245-5.376-9.408c-8.444-15.129-16.509-30.485-24.265-45.989
			c-9.29-18.818-18.118-37.941-26.488-57.288c-1.613-3.842-3.302-7.68-4.912-11.596c-0.848-1.957-1.615-3.84-2.457-5.797
			c-21.346-51.646-39.695-104.806-56.278-158.57c-0.461-1.656-0.999-3.312-1.458-4.895c-7.217-23.795-14.205-47.59-20.885-71.46
			c-2.226-8.211-4.527-16.344-6.758-24.55c-2.223-8.136-4.451-16.342-6.678-24.477c-11.668-43.377-22.802-86.604-34.086-129.152
			c0,0,38.318,20.878,84.398,10.703c4.76-1.064,9.446-1.977,13.978-2.738c2.688-0.006,5.296-0.16,7.907-0.316
			c9.127,134.096,14.576,197.295,106.869,358.441C7403.988,4834.903,7535.07,4915.741,7680.823,4948.109z"/>
		<path id="_x31_80638907" fill="none" stroke="#010101" stroke-width="80" d="M7702.41,4896.836l-21.587,51.273
			c-145.753-32.366-276.835-113.204-354.927-249.434c-92.293-161.147-97.742-224.348-106.869-358.441
			c45.928-2.564,84.173-13.179,115.889-30.643l0.463,0.83c72.324,181.371,171.99,359.53,343.082,470.959
			c16.511,10.744,41.619,23.605,58.979,31.336c-2.695,8.488-5.762,16.381-10.867,26.907c-0.982,2.021-2.346,4.737-2.883,6.849
			L7702.41,4896.836z"/>
		<path id="_x31_80638906" fill="none" stroke="#010101" stroke-width="80" d="M7614.674,4452.926
			c-19.58-30.777-36.55-64.051-50.755-98.607c-3.224-7.756-5.22-16.566-6.601-26.133c-5.988-43.386,2.619-100.736-16.118-128.125
			c2.152,2.934,4.376,5.867,6.526,8.879c-1.15-2.863-2.457-6.023-4.988-9.409c-12.826-17.534,5.146-17.563-58.904,2.663
			c-29.186,9.169-55.144,27.752-79.104,47.682c-1,0.831-1.998,1.658-2.998,2.57c-18.125,23.312-40.169,42.637-66.816,57.15
			l0.461,0.828c72.326,181.371,171.992,359.53,343.084,470.959c16.511,10.742,33.558,19.91,50.914,27.639
			c2.843,1.275,5.684,2.475,8.525,3.673l41.858-99.296l37.796-89.496C7732.695,4595.117,7664.893,4532.021,7614.674,4452.926z"/>
		<path id="_x31_80638905" fill="none" stroke="#010101" stroke-width="80" d="M7851.657,4543.145l-34.103,80.752
			c-84.859-28.783-152.662-91.877-202.881-170.971c-14.243-24.707-32.386-56.922-43.479-81.576
			c-8.751-19.443-11.866-32.895-13.876-43.168c-5.986-43.386,2.619-100.736-16.118-128.125c2.152,2.934,4.376,5.865,6.526,8.879
			c1.846,4.666,3.15,8.585,8.22,11.888c67.263,100.237,117.932,244.278,226.365,301.347
			C7804.047,4533.66,7827.391,4540.249,7851.657,4543.145z"/>
		<path id="_x31_80638904" fill="none" stroke="#010101" stroke-width="80" d="M8055.904,4060.67l-1.77,2.34l-202.478,480.135
			c-24.267-2.896-47.61-9.484-69.346-20.973c-108.432-57.068-159.103-201.109-226.365-301.347
			c7.754,5.261,24.569,8.923,66.118,11.261c84.477,4.824,197.144-65.668,240.688-103.416c43.47-37.746,56.298-42.818,99.843-85.541
			c53.84-52.908,58.832-50.356,58.832-50.356c39.535-37.54,24.035,2.669,24.035,2.669c-0.383,1.432-0.613,2.863-0.844,4.22
			c-0.617,2.788-1.074,5.428-1.461,8.065c-0.308,1.809-0.539,3.617-0.77,5.273c-0.151,1.357-0.305,2.715-0.459,4.07
			c-0.078,1.205-0.154,2.411-0.229,3.543c-0.386,6.933-0.004,12.73,1.375,17.249
			C8046.381,4048.935,8050.758,4056.31,8055.904,4060.67z"/>
		<path id="_x31_80638903" fill="none" stroke="#010101" stroke-width="80" d="M7188.721,4048.336
			c-15.966-107.711-16.646-213.941-49.353-318.985c-40.158-129.132-77.085-247.354-100.546-370.962l-60.951,12.928
			c16.148,88.45,24.116,178.137,37.168,267.042c7.498,51.009,29.15,102.562,31.48,154.03c2.383,52.685-10.688,106.32-8.389,159.851
			c4.858,112.99,34.064,230.939,63.65,339.624c3.738,13.725,7.436,27.53,11.117,41.4l0.842-0.162
			c6.312,3.152,41.674,19.401,83.398,10.188c4.76-1.064,9.446-1.977,13.978-2.737c-2.076,0.154-4.148,0.231-6.301,0.235
			c2.152-0.004,4.225-0.081,6.301-0.235c2.688-0.007,5.296-0.161,7.907-0.317c0.002-0.299-0.076-0.604-0.074-0.902
			C7214.196,4269.498,7208.292,4180.379,7188.721,4048.336z"/>
		<path id="_x31_80638902" fill="none" stroke="#010101" stroke-width="80" d="M7405.596,3280.611l-366.771,77.781
			c23.459,123.609,60.39,241.831,100.544,370.962c32.707,105.04,33.389,211.272,49.354,318.983
			c19.571,132.041,25.476,221.16,30.232,290.994c-0.002,0.299,0.076,0.602,0.076,0.902c45.926-2.564,84.171-13.179,115.889-30.643
			c26.648-14.512,48.691-33.837,66.816-57.15C7559.668,4049.498,7417.699,3547.145,7405.596,3280.611z"/>
		<path id="_x31_80638901" fill="none" stroke="#010101" stroke-width="80" d="M7615.604,3355.462
			c-8.484-38.219-18.238-75.954-29.27-113.182l-180.738,38.328c12.104,266.534,154.072,768.888-3.861,971.831
			c0.998-0.906,1.998-1.735,2.996-2.568c23.962-19.93,49.92-38.513,79.105-47.68c64.051-20.23,46.076-20.197,58.902-2.665
			c2.531,3.386,3.838,6.548,4.988,9.409c1.637,4.142,2.855,7.691,6.65,10.748c-33.362-44.267,23.656-188.203,40.204-265.729
			c17.29-81.023,46.208-178.995,52.802-283.867C7654.027,3564.474,7638.451,3458.375,7615.604,3355.462z"/>
		<path id="_x31_80638897" fill="none" stroke="#010101" stroke-width="80" d="M6854.492,2441.729
			c-105.576-193.894-245.025-371.454-358.666-561.567c-32.012-53.573-67.248-105.94-105.25-156.717
			c-1.156,0.672-2.318,1.341-3.469,2.008c-38.727,22.413-71.798,42.551-49.477,91.924c28.541,63.094,65.459,125.041,101.414,184.314
			c74.361,122.61,156.835,239.956,241.248,355.87c61.449,84.373,114.24,161.589,154.365,250.78l89.459-31.522
			C6901.988,2530.02,6877.887,2484.739,6854.492,2441.729z"/>
		<path id="_x31_80638896" fill="none" stroke="#010101" stroke-width="80" d="M6854.492,2441.729
			c23.395,43.009,47.496,88.291,69.625,135.09l155.766-54.879c-27.08-57.974-54.84-115.732-86.613-171.542
			c-144.584-254.252-331.64-465.031-522.612-683.787c-0.021-0.022-0.038-0.044-0.059-0.066c-12.499,8.634-24.38,17.644-35.36,27.103
			c-13.544,11.671-29.422,20.978-44.662,29.795c37.998,50.778,73.238,103.143,105.25,156.718
			C6609.467,2070.275,6748.916,2247.836,6854.492,2441.729z"/>
		<path id="_x31_80638895" fill="none" stroke="#010101" stroke-width="80" d="M6993.27,2350.397
			c31.773,55.81,59.533,113.569,86.613,171.543l66.051-23.271c-19.895-42.341-30.234-89.521-24.076-145.578
			c2.684-24.389,9.977-50.22,20.441-72.463c18.992-40.428,52.691-74.656,88.41-101.455c17.638-13.237,38.38-24.603,59.086-32.476
			c2.916-1.11,7.393-2.604,12.919-4.343c-49.501,12.699-99.149,18.617-147.514-6.159c-60.888-31.192-134.925-95.968-174.386-150.928
			c-62.324-86.788-125.8-182.601-197.034-263.222c-47.468-53.717-107.503-168.074-166.381-137.832
			c-48.079,24.687-101.501,51.036-146.801,82.333c0.021,0.021,0.038,0.043,0.059,0.065
			C6661.63,1885.369,6848.686,2096.146,6993.27,2350.397z"/>
		<path id="_x31_80638900" fill="none" stroke="#010101" stroke-width="80" d="M7013.17,3118.624
			c-1.531-74.661,1.089-149.479-0.363-224.139c-2.143-107.956-40.793-216.374-88.689-317.663l-89.459,31.52
			c14.193,31.553,26.815,64.593,37.652,99.998c37.896,123.798,59.428,263.094,55.936,400.367
			c-2.336,92.072,30.479,162.564,47.29,250.095c0.802,4.17,1.575,8.34,2.339,12.515l60.947-12.928
			C7024.292,3281.828,7014.926,3203.197,7013.17,3118.624z"/>
		<path id="_x31_80638899" fill="none" stroke="#010101" stroke-width="80" d="M7210.643,2782.252
			c-49.83-83.192-89.502-172.002-130.758-260.311l-155.768,54.88c47.896,101.29,86.547,209.707,88.689,317.662
			c1.452,74.661-1.168,149.48,0.363,224.14c1.756,84.574,11.122,163.203,25.654,239.767l366.771-77.78
			c-0.275-6.054-0.485-11.99-0.623-17.793C7400.765,3084.111,7299.639,2931.046,7210.643,2782.252z"/>
		<path id="_x31_80638898" fill="none" stroke="#010101" stroke-width="80" d="M7210.643,2782.252
			c88.996,148.794,190.122,301.859,194.33,480.565c0.134,5.802,0.346,11.739,0.623,17.792l180.738-38.328
			c-54.52-184.08-140.226-355.639-258.357-510.739c-61.175-80.319-141.473-146.534-182.041-232.871l-66.051,23.271
			C7121.141,2610.25,7160.812,2699.06,7210.643,2782.252z"/>
		<path id="_x31_80638894" fill="none" stroke="#010101" stroke-width="80" d="M7230.711,2179.174
			c-35.719,26.798-69.418,61.026-88.41,101.455c-10.465,22.244-17.758,48.077-20.441,72.463
			c-18.715,170.367,114.943,258.743,206.117,378.448c142.022,186.466,237.188,396.718,287.627,623.922
			c22.848,102.912,38.424,209.011,31.779,314.627c-6.594,104.872-35.512,202.842-52.802,283.867
			c-16.55,77.523-73.566,221.462-40.204,265.729c0.484,0.389,0.996,0.77,1.569,1.14c7.754,5.261,24.569,8.923,66.118,11.259
			c5.807,0.334,11.752,0.297,17.793-0.047c84.02-9.801,159.979-54.591,223.795-104.148c17.754-15.381,30.375-25.291,42.15-34.656
			c68.799-59.477,119.19-115.839,144.346-118.615l4.984-15.312c15.67-50.454,40.395-107.49,49.205-127.755
			c80.597-185.64,107.941-294.892,135.056-456.028c16.136-95.807,15.412-213.518,8.616-300.128
			c-11.182-142.539-58.074-284.857-123.794-415.565c-95.64-190.218-278.724-340.76-453.847-458.632
			c-1.868-1.256-3.742-2.521-5.621-3.788c-28.184-19.009-57.537-38.852-88.299-54.991c-0.406-0.211-0.809-0.417-1.211-0.626
			c-8.04-4.079-40.757-19.813-70.012-27.438c-25.124-6.187-51.178-8.286-78.279-4.291c-0.779,0.114-1.558,0.24-2.335,0.362
			c-6.524,1.068-13.148,2.413-20.222,3.923c-6.42,1.371-18.434,4.424-32.422,8.172c-22.953,6.467-46.089,13.892-69.254,19.834
			c-5.527,1.738-10.004,3.232-12.918,4.341C7269.091,2154.57,7248.349,2165.933,7230.711,2179.174z"/>
		<path id="_x31_80638870" fill="none" stroke="#010101" stroke-width="80" d="M4916.285,4284.442
			c113.994,38.712,252.452,10.248,361.977-32.646c112.58-44.082,240.146-36.503,358.539-47.594
			c114.657-10.733,222.504-14.849,335.158,10.199c97.834,21.752,204.945,24.15,298.068-23.379
			c122.041-62.285,228.699-176.33,259.018-299.222c16.36-66.308-1.358-162.535,59.075-209.179
			c61.788-47.691,148.114-33.334,165.605,39.033c16.579-98.479,61.829-179.096,102.139-269.098
			c47.133-105.263,69.341-223.788,72.39-343.862c3.484-137.27-18.049-276.554-55.945-400.36
			c-41.473-135.477-108.829-236.546-192.017-350.777c-84.41-115.914-166.884-233.261-241.245-355.869
			c-75.637-124.711-132.98-259.584-216.57-379.693c-79.943-114.875-197.894-189.005-305.79-278.033
			c-169.45-139.826-384.657-220.584-562.823-346.867c-24.255-17.194-48.865-41.4-75.264-60.938
			c-19.051-14.099-39.053-25.755-60.539-30.579c-107.327-24.101-247.982,71.987-301.484,154.317l-0.136,1490.044
			c20.315,41.79,48.72,90.994,76.38,126.988c-20.266,29.03-39.6,54.843-47.383,90.707c-5.174,23.803,7.494,90.19-29.026,79.034
			L4916.285,4284.442z"/>
		<path id="_x31_80638884" fill="none" stroke="#010101" stroke-width="80" d="M5367.725,1388.724
			c75.994,6.312,210.812,96.33,270.688,133.256c204.953,126.364,390.155,259.375,601.533,376.125
			c44.791,24.742,76.127,44.148,99.839,72.689l2.555-4.282c8.271-15.027,23.164-23.563,41.472-25.528
			c-34.678-29.561-70.404-41.364-123.229-68.456c-138.936-71.253-268.531-173.079-396.725-261.639
			c-144.23-99.64-260.809-199.882-427.016-259.958c-139.357-50.374-201.473,10.54-252.619,107.243
			c-32.406,61.305-115.86,152.206-174.203,185.805c-25.002,14.392-62.989,22.772-93.498,20.365l-0.004,43.479
			c99.904-12.475,203.748-79.741,272.643-149.264C5245.438,1501.756,5267.154,1380.372,5367.725,1388.724z"/>
		<path id="_x31_80638885" fill="none" stroke="#010101" stroke-width="80" d="M6439.049,2001.692
			c-19.465-32.091-37.713-64.857-55.512-97.869c-11.26-10.823-27.299-26.242-43.354-41.672
			c-29.373-28.238-31.109-48.773-31.109-48.773c-48.838-145.192-185.852-260.381-302.029-356.086
			c-189.543-156.16-412.119-257.946-638.334-353.88c-118.313-50.18-310.688-104.537-372.791,34.202
			c-58.578,130.875-19.961,322.541-40.033,430.982c-4.178,22.591-3.43,68.97-10.803,95.165c23.322-2.51,47.346-9.653,64.939-19.78
			c58.342-33.6,141.793-124.502,174.201-185.804c51.146-96.703,113.262-157.615,252.619-107.245
			c166.207,60.076,282.785,160.318,427.018,259.958c128.193,88.56,257.787,190.386,396.723,261.638
			c52.826,27.091,88.553,38.896,123.229,68.457c13.902,11.849,27.635,26.55,42.23,46.239c10.93,14.739,21.441,29.754,31.682,44.95
			C6451.545,2022.185,6445.325,2012.042,6439.049,2001.692z"/>
		<path id="_x31_80638886" fill="none" stroke="#010101" stroke-width="80" d="M4995.92,1137.615
			c62.101-138.74,254.476-84.381,372.789-34.203c226.215,95.935,448.793,197.72,638.336,353.88
			c116.176,95.706,253.191,210.895,302.029,356.087c0,0,1.732,20.534,31.107,48.774c16.055,15.429,32.096,30.847,43.355,41.671
			c-51.373-95.279-98.977-192.622-161.059-281.824c-79.941-114.874-197.894-189.006-305.788-278.032
			c-169.45-139.827-384.659-220.584-562.823-346.868c-24.255-17.193-48.865-41.4-75.266-60.937
			c-19.047-14.099-39.053-25.755-60.539-30.58c-107.325-24.099-247.98,71.988-301.484,154.317l-0.055,604.445
			c9.041,0.712,18.74,0.472,28.561-0.584c7.373-26.194,6.625-72.575,10.805-95.166
			C4975.955,1460.155,4937.342,1268.491,4995.92,1137.615z"/>
		<path id="_x31_80638873" fill="none" stroke="#010101" stroke-width="80" d="M6189.23,2736.876
			c-56.406,124.773,54.641,266.117,177.123,302.095c129.164,37.927,432.072,11.318,414.768-169.218
			c-4.24-44.248-21.719-99.93-45.528-153.146c-24.893-55.659-56.712-108.625-87.559-142.957
			C6561.366,2477.182,6236.906,2631.419,6189.23,2736.876z"/>
		<path id="_x31_80638875" fill="none" stroke="#010101" stroke-width="80" d="M6419.097,3272.859
			c-19.044,19.682-39.013,47.571-39.015,75.54c-0.009,12.755,4.406,24.354,13.466,35.46
			c37.022,45.324,138.374,63.125,204.624,35.913c46.488-19.078,66.983-54.883,60.932-106.387
			c-5.01-42.459-28.271-70.473-69.179-83.263C6524.746,3209.75,6462.178,3228.338,6419.097,3272.859z"/>
		<path id="_x31_80638874" fill="none" stroke="#010101" stroke-width="80" d="M6842.275,3423.24
			c-8.225,46-35.007,93.523-59.584,116.293c-53.416,49.518-205.716,111.315-241.957,17.201
			c-41.258-107.115,78.58-93.752,126.031-156.713c27.669-36.723,79.23-106.423,135.227-79.197
			C6841.738,3340.156,6849.819,3381.055,6842.275,3423.24z"/>
		<path id="_x31_80638876" fill="none" stroke="#010101" stroke-width="80" d="M6536.27,3739.351
			c-6.093-28.274-17.68-54.841-36.893-77.364c-67.844-79.518-226.5,38.491-283.957,86.624
			c-75.93,63.618-125.496,146.09-127.609,247.159c-0.717,34.468,3.158,69.002,9.024,102.92
			c6.956,40.299,11.478,99.176,55.116,119.175c18.952,8.684,42.708-0.79,61.38-5.56c26.831-6.855,51.589-19.456,75.552-32.869
			c60.167-33.713,117.41-73.984,160.771-127.715c15.882-19.67,30.265-40.35,42.44-62.413c16.603-30.109,29.412-64.169,37.375-97.505
			C6540.854,3844.102,6547.021,3789.073,6536.27,3739.351z"/>
		<path id="_x31_80638879" fill="none" stroke="#010101" stroke-width="80" d="M5269.381,3702.908
			c24.465-26.076,45.83-51.641,62.174-69.356c9.068-9.827,55.072-76.501,98.43-149.831c56.256-95.14,108.06-201.485,68.957-209.367
			c-23.746-4.79-44.301,0.44-62.6,11.281l0.164-0.102c21.594-12.745,41.155-49.477,55.701-68.762
			c44.419-58.884,52.17-113.565,74.674-181.72c21.453-64.948,52.81-126.033,93.648-181.376
			c13.367-18.112,30.012-35.635,44.475-54.269c5.006-6.453,22.131-22.929,39.291-23.405c17.158-0.479,34.35,15.042,37.137,20.786
			c7.341,15.124,17.665,28.911,32.883,40.569c57.557,44.077,148.19,34.011,208.02-1.24c30.301-17.853,56.607-38.814,81.216-61.049
			c8.612-7.783,24.71-16.483,39.741-9.938c16.065,6.991,30.813,29.907,30.846,42.039c0.242,103.246,92.434,202.49,192.219,231.799
			c53.453,15.696,136.666,20.339,214.623,7.593c72.914-11.921,128.895,54.577,99.123,99.69
			c-10.628,16.114-19.555,32.45-24.801,48.435c-2.303,7.019-7.619,26.023-21.469,33.333c-14.946,7.884-38.591,3.763-43.9,2.102
			c-65.184-20.371-127.748-1.785-170.83,42.737c-19.043,19.683-39.016,47.57-39.016,75.539
			c-0.007,12.758,4.406,24.354,13.466,35.459c24.675,30.204,77.917,48.185,130.301,48.766c9.946,0.111,30.321,38.428,21.071,49.393
			c-13.711,16.261-18.072,38.667-4.188,74.72c2.493,6.474,12.064,24.413-5.619,41.445c-21.481,20.688-71.697,40.258-77.367,39.044
			c-77.334-16.575-194.658,71.456-242.328,111.385C6154.9,3799.314,6111.13,3862,6094.785,3936.53
			c-1.823,8.319-17.35,36.774-38.018,41.8c-20.666,5.029-46.467-13.373-52.281-17.522c-81.385-58.075-241.791,16.923-319.363,50.173
			c-32.836,14.067-64.508,27.438-98.586,36.379c-27.318,7.168-80.371-6.992-88.816-23.951
			c-8.445-16.958-22.756-33.115-44.068-47.608c-41.035-27.915-92.463-46.86-145.354-60.12c-22.438-5.624-62.85-52.024-71.231-99.268
			C5228.684,3769.172,5252.33,3721.085,5269.381,3702.908z"/>
		<path id="_x31_80638880" fill="none" stroke="#010101" stroke-width="80" d="M6163.09,2687.604
			c-68.469-118.437-109.691-236.177-198.642-340.115c-110.381-128.957-195.368-205.549-253.126-260.568
			c-66.193-63.06-121.573-103.488-190.054-163.539c-41.124-36.053-98.778-56.263-153.892-72.457
			c-147.992-43.48-428.115-29.932-440.263-28.187c-0.306,0.045-0.449,0.081-0.404,0.111l-10.2-0.746l-0.018,224.694
			c83.026-2.661,183.962-2.79,259.658,22.142c45.553,15.002,80.44,27.739,121.077,52.424
			c67.973,41.296,137.03,102.76,187.403,162.943c12.943,15.46,23.664,32.391,33.477,49.915c-0.598-2.069-1.301-4.066-2.15-5.968
			c-6.973-15.606-12.648-30.649-15.846-43.827c-7.305-30.095,51.064,40.967,63.992,62.679
			c17.924,30.106,76.594,95.969,97.264,121.625c27.767,34.453,176.978,267.527,119.012,232.1
			c-12.817-7.834-21.135-20.375-28.49-34.569c-0.371-0.719-0.801-1.36-1.259-1.962c0.526,1.776,1.044,3.565,1.526,5.384
			c15.671,59.258,8.6,126.653,62.156,167.673c57.555,44.077,148.188,34.012,208.018-1.239
			c60.973-35.919,105.758-84.431,153.084-130.549L6163.09,2687.604z"/>
		<path id="_x31_80638881" fill="none" stroke="#010101" stroke-width="80" d="M5582.017,2448.787
			c39.684,68.986,114.115,119.803,147.173,173.024c17.915,28.846,25.557,63.352,51.191,79.022
			c57.964,35.427-91.245-197.65-119.01-232.102c-20.672-25.656-79.34-91.52-97.266-121.625
			c-12.924-21.711-71.295-92.772-63.992-62.68C5512.912,2337.143,5565.283,2419.687,5582.017,2448.787z"/>
		<path id="_x31_80638882" fill="none" stroke="#010101" stroke-width="80" d="M6357.783,2544.067
			c-28.676-21.712-55.002-56.715-74.814-78.917c-97.859-109.69-188.818-243.115-304.781-333.498
			c-75.044-58.489-158.14-127.243-238.054-180.399c-71.513-47.561-142.063-103.345-230.381-142.741
			c-165.467-73.825-396.948-62.008-566.05-21.758c-4.939,1.175-16.978,3.507-27.191,5.583l-0.004,29.725l10.606,0.679
			c12.149-1.748,292.272-15.295,440.263,28.185c55.115,16.193,112.768,36.404,153.894,72.46
			c68.479,60.049,123.862,100.477,190.052,163.538c57.758,55.019,142.745,131.611,253.128,260.566
			c88.948,103.939,130.173,221.679,198.642,340.117l12.326,17.965c33.779-32.92,68.852-64.621,112.029-89.658
			c32.131-18.621,66.66-34.851,99.951-52.933C6376.826,2557.141,6364.225,2548.946,6357.783,2544.067z"/>
		<path id="_x31_80638883" fill="none" stroke="#010101" stroke-width="80" d="M6466.975,2238.555
			c-20.737-67.682-65.279-127.93-88.639-195.473c-10.657-30.794-22.957-53.512-38.552-72.284
			c-23.71-28.542-55.048-47.949-99.839-72.691c-211.378-116.75-396.578-249.76-601.533-376.126
			c-59.877-36.925-194.693-126.943-270.684-133.255c-100.573-8.35-122.289,113.032-178.568,169.837
			c-68.893,69.524-172.736,136.791-272.643,149.264l-0.004,84.51c10.212-2.075,22.252-4.408,27.189-5.583
			c169.102-40.25,400.583-52.069,566.052,21.758c88.321,39.396,158.868,95.181,230.379,142.741
			c79.914,53.156,163.012,121.912,238.056,180.399c115.963,90.384,206.922,223.809,304.779,333.498
			c19.814,22.201,46.139,57.208,74.814,78.917c6.445,4.878,19.047,13.071,29.615,18.913c32.094-17.429,63.035-36.575,89.545-61.251
			c0,0,8.355-8.869,21.723-22.549C6445.555,2462.121,6477.164,2271.771,6466.975,2238.555z"/>
		<path id="_x31_80638871" fill="none" stroke="#010101" stroke-width="80" d="M4958.01,3495.154
			c2.484-12.4,7.639-23.091,16.08-30.088c78.016-64.71,196.812,52.958,157.332,71.191c77.207-33.573,154.236-84.821,208.844-146.581
			c27.817-31.452,56.783-80.85,96.238-104.144c21.596-12.745,41.155-49.479,55.703-68.762
			c44.419-58.885,52.17-113.565,74.672-181.721c21.455-64.948,52.812-126.033,93.65-181.375
			c22.627-30.656,54.641-59.626,69.559-95.137c41.842-99.619-60.869-182.979-126.168-244.89
			c-59.57-56.486-76.046-138.367-126.959-199.19c-50.383-60.188-111.759-121.662-179.727-162.957
			c-40.646-24.686-75.523-44.958-121.084-59.959c-75.69-24.937-176.625-24.807-259.662-22.147l-0.044,480.548
			c20.315,41.791,48.72,90.993,76.38,126.986c-20.264,29.03-39.6,54.845-47.383,90.707c-5.174,23.803,7.496,90.19-29.026,79.035
			l-0.028,295.282c125.525,45.536,90.958,188.843,59.479,287.023c-5.538,17.297-11.175,34.843-15.497,52.462
			c-0.559,2.271-1.059,4.523-1.51,6.765L4958.01,3495.154z"/>
		<path id="_x31_80638872" fill="none" stroke="#010101" stroke-width="80" d="M5131.42,3536.258
			c-52.088,18.69-125.637,78.747-147.346,57.749c-27.421-26.517-41.238-103.038-9.988-128.937
			C5052.105,3400.356,5170.902,3518.023,5131.42,3536.258z"/>
		<path id="_x31_80638878" fill="none" stroke="#010101" stroke-width="80" d="M5462.35,4185.443
			c0.078,22.393,17.113,27.435,36.595,26.367c67.392-3.678,136.669-10.549,204.904-14.402c59.872-3.377,121.923-2.105,181.538,2.307
			c19.518,1.443,37.591,7.164,56.678,9.983c33.809,4.993,72.592,22.78,105.91,6.983c32.754-15.534,21.672-66.879,21.797-96.316
			c0.137-34.598-14.986-70.511-25.651-102.799c-49.081-148.603-264.937-46.9-358.999-6.582
			c-32.834,14.069-64.506,27.44-98.584,36.379c-29.275,7.685-60.475,24.177-81.155,46.756
			c-12.239,13.366-16.687,32.095-26.69,47.064C5470.66,4153.196,5462.282,4170.533,5462.35,4185.443z"/>
		<path id="_x31_80638877" fill="none" stroke="#010101" stroke-width="80" d="M4908.71,3139.354
			c134.581,42.414,99.257,189.493,67.152,289.626c-5.538,17.296-11.175,34.842-15.499,52.463
			c-8.498,34.706-4.416,65.508,0.827,100.192c9.664,63.843,18.951,133.688,61.675,185.526c24.033,29.155,14.182,67.31-10.189,92.207
			c-20.151,20.624-74.223,36.233-96.351,11.419L4908.71,3139.354z"/>
		<path id="_x31_80638887" fill="none" stroke="#010101" stroke-width="80" d="M4916.115,6198.405
			c173.815,6.848,352.209,17.989,519.605-38.738c164.886-55.865,294.975-153.345,442.042-242.272
			c125.407-75.825,250.979-152.668,362.308-247.966c144.797-123.95,295.101-186.868,396.84-353.024
			c98.605-161.039,194.799-347.198,166.877-539.426c-14.238-97.958-71.824-192.683-64.752-293.659
			c3.662-52.3,34.158-93.296,40.691-145.437c9.07-72.201,2.223-151.279-6.654-223.12c-15.945-128.962-41.108-263.827-19.347-393.104
			c-17.489-72.367-103.817-86.727-165.604-39.035c-60.436,46.644-42.715,142.863-59.073,209.171
			c-38.051,154.282-169.508,314.329-329.963,355.056c-104.206,26.443-250.263-12.572-357.92-19.764
			c-145.303-9.704-295.013,21.026-440.752,24.672c-161.537,4.045-322.795,110.073-484.133,55.291L4916.115,6198.405z"/>
		<path id="_x31_80638889" fill="none" stroke="#010101" stroke-width="80" d="M6649.236,4518.722
			c-15.853,126.325-80.261,241.532-121.185,360.753c-44.492,129.644-81.769,258.979-148.413,380.281
			c-49.415,89.951-83.614,209.742-201.343,230.656c-77.647,13.779-237.042-155.498-224.228-286.109
			c3.812-38.9,152.123-391.426,325.159-678.654c105.346-174.845,204.853-236.447,220.114-237.467
			C6630.705,4279.392,6661.988,4417.072,6649.236,4518.722z"/>
		<path id="_x31_80638890" fill="none" stroke="#010101" stroke-width="80" d="M5139.746,5840.314
			c-43.387,24.808-41.449,45.479-84.256,58.717c-21.308,6.586-73.654-14.982-94.717,5.191c-21.04,20.163,3.51,45.229,12.951,70.38
			c17.914,47.685,49.988,109.005,112.465,137.847c92.317,42.62,211.349,28.592,303.508-2.967
			c102.49-35.089,318.544-86.031,436.316-161.58c55.625-35.688-28.734-70.404-58.871-138.021
			c-14.591-32.753-28.162-80.318-64.281-119.857c-43.863-48.006-71.012,65.516-97.966,105.239
			c-47.581,70.136-152.407,187.567-241.481,178.053c-42.727-4.565-115.507,1.339-140.91-41.817
			C5191.525,5878.869,5238.957,5783.596,5139.746,5840.314z"/>
		<path id="_x31_80638891" fill="none" stroke="#010101" stroke-width="80" d="M4916.178,5467.397
			c43.526-1.325,26.845,153.618,26.879,196.728c0.036,41.496-16.971,111.303,18.494,137.635
			c41.626,30.898,122.67-45.091,167.082-67.266c81.169-40.525,164.255-81.482,244.895-123.574
			c67.418-35.198,237.734-84.737,283.721-2.932c15.954,28.387,10.74,97.941,67.438,66.729
			c23.431-12.892,42.431-86.142,59.779-120.51c19.213-37.896,29.407-78.464,20.721-120.889
			c-10.61-51.854-66.545-123.481-103.279-160.976c-89.059-90.9-218.334-106.191-337.971-132.119
			c-106.143-23.006-222.41-59.497-331.245-28.395c-41.107,11.746-79.222,28.63-115.126,50.99
			C4919.504,5166.494,4916.178,5467.397,4916.178,5467.397z"/>
		<path id="_x31_80638893" fill="none" stroke="#010101" stroke-width="80" d="M5394.164,4665.951
			c-3.335-81.375-20.547-169.91-65.336-239.666c-68.984-107.439-174.258-95.258-287.107-104.332
			c-30.49-2.447-102.824,2.922-117.756-11.061l-0.586,65.229l4.416,2.569c118.33,79.623,181.367,243.519,170.604,378.656
			c-12.688,159.385-106.464,260.193-174.776,393.835c-1.088,2.132-4.101,6.878-7.355,11.975c0,0,6.85-2.711,12.34-7.114
			c45.943-36.844,179.673-61.068,221.398-81.086c86.839-41.66,166.056-97.402,217.733-179.249
			C5410.453,4828.056,5397.259,4741.473,5394.164,4665.951z"/>
		<path id="_x31_80638892" fill="none" stroke="#010101" stroke-width="80" d="M5098.396,4757.346
			c10.768-135.138-52.271-299.029-170.605-378.656l-4.414-2.568l-7.11,787.032c3.253-5.099,6.268-9.845,7.355-11.973
			C4991.935,5017.538,5085.71,4916.73,5098.396,4757.346z"/>
		<path id="_x31_80638888" fill="none" stroke="#010101" stroke-width="80" d="M6354.029,4165.691
			c-46.265,38.082-98.83,66.918-154.943,81.16c-104.208,26.441-250.265-12.572-357.922-19.765
			c-145.301-9.705-295.013,21.027-440.752,24.673c-112.111,2.807-224.094,54.738-336.059,67.938l-30.459,1.814
			c2.834,0.111,5.457,0.254,7.826,0.441c112.85,9.074,218.123-3.107,287.107,104.332c44.791,69.756,62.001,158.287,65.336,239.666
			c3.097,75.525,16.289,162.104-26.426,229.755c-51.678,81.847-130.895,137.591-217.733,179.249
			c-19.43,9.321-58.825,19.559-100.005,31.557l2.302,0.451c103.101-21.908,211.843,11.639,311.636,33.27
			c119.633,25.926,248.91,41.217,337.969,132.115c7.982,8.146,16.869,17.908,26.004,28.729l3.415-2.953
			c-14.931-31.016-21.485-63.589-2.647-90.878c9.128-13.238,152.246-255.917,298.182-501.966
			c-11.012,1.731-22.342,2.333-32.053,3.564c-38.063,4.833-77.149,21.069-116.041,5.955c-52.265-20.314-28.918-64.568-3.251-86.412
			c31.175-26.533,146.005-36.439,185.487,0.125c2.598,2.406,4.867,5.02,6.764,7.836c135.4-228.009,262.6-440.596,275.486-454.873
			L6354.029,4165.691z"/>
		<path id="_x31_80638966" fill="none" stroke="#010101" stroke-width="80" d="M8343.216,2991.89
			c6.834,31.858,12.359,64.019,16.504,96.561c-0.229-0.152-0.309-0.304-0.308-0.378l0.538,2.333
			c22.87,181.834-17.697,389.023-69.399,563.604c-25.963,87.595-47.245,180.377-91.412,261.449
			c-22.811,41.707-104.992,177.468-143.234,145.211c-5.146-4.36-9.521-11.734-12.826-22.804c-1.381-4.522-1.763-10.318-1.375-17.253
			c0.074-1.13,0.15-2.336,0.227-3.539c0.154-1.281,0.309-2.637,0.461-4.072c0.23-1.656,0.462-3.467,0.77-5.273
			c0.385-2.64,0.844-5.277,1.459-8.067c0.232-1.354,0.539-2.788,0.844-4.218c11.909-55.548,47.859-138.564,58.918-163.897
			c80.575-185.634,107.928-294.853,135.05-455.981c16.138-95.864,15.38-213.546,8.63-300.18
			c-11.2-142.524-58.113-284.84-123.836-415.516c-95.596-190.221-278.742-340.808-453.826-458.635
			c-29.949-20.138-61.127-41.558-93.914-58.83c-46.385-24.329-95.918-40.212-149.52-32.359
			c-88.932,13.116-182.552,71.82-271.707,26.171c-60.898-31.235-134.924-95.975-174.393-150.904
			c-3.912-5.417-7.833-10.911-11.672-16.403c-22.419-31.377-44.998-63.811-68.033-96.017c-1.15-1.579-2.225-3.084-3.379-4.664
			c-98.361-138.833-203.329-279.989-335.334-383.578c-3.842-3.006-9.753-7.065-17.051-11.873
			c-46.997-31.11-150.896-95.72-121.861-141.278c2.611-4.072,6.221-7.995,11.055-11.697c3.228-2.492,6.836-3.856,10.678-4.389
			c7.068-0.917,14.897,1.104,22.809,4.479c13.823,6.002,27.645,16.301,36.783,22.161c9.676,6.161,19.352,12.322,28.951,18.559
			c105.666,67.772,208.336,137.735,314.77,205.505c85.007,54.172,179.464,88.964,264.938,143.812
			c93.299,59.958,196.662,115.303,291.499,177.519c37.169,24.421,72.952,49.821,106.354,76.962
			c122.256,99.237,249.342,194.018,371.209,294.537c60.203,49.621,119.182,100.673,175.773,154.366
			c43.385,41.287,88.69,110.673,119.096,162.905c31.636,54.266,60.352,110.121,85.23,167.412
			C8297.462,2823.656,8324.948,2906.561,8343.216,2991.89z"/>
		<path id="_x31_80638967" fill="none" stroke="#010101" stroke-width="80" d="M6803.789,4776.977
			c-14.238-97.96-71.824-192.685-64.752-293.661c3.662-52.302,34.156-93.296,40.691-145.437
			c9.07-72.197,2.221-151.279-6.656-223.118c-15.941-128.962-41.106-263.827-19.346-393.106
			c-17.488-72.365-103.816-86.725-165.603-39.033c-60.436,46.645-42.717,142.871-59.075,209.179
			c-34.215,138.561-97.294,191.659-185.799,289.673c-28.009,31.033-596.084,998.962-614.572,1025.769
			c-37.676,54.579,26.223,130.306,55.533,172.389c37.858,54.333,23.275,109.727,3.607,169.118
			c-17.305,52.234-62.842,130.725-58.02,153.193c23.438,109.305,76.319,160.576,128.775,227.184
			c93.105-55.486,170.436-104.117,211.188-132.136c55.131-36.087,112.514-78.097,170.311-127.566
			c144.8-123.95,295.103-186.868,396.844-353.022C6735.52,5155.363,6831.711,4969.199,6803.789,4776.977z M6649.236,4518.722
			c-15.853,126.325-80.261,241.532-121.185,360.753c-44.492,129.644-81.769,258.979-148.413,380.281
			c-49.415,89.951-83.614,209.742-201.343,230.656c-77.647,13.779-237.042-155.498-224.228-286.109
			c3.812-38.9,152.123-391.426,325.159-678.654c105.346-174.845,204.853-236.447,220.114-237.467
			C6630.705,4279.392,6661.988,4417.072,6649.236,4518.722z"/>
		<path id="_x31_80638968" fill="none" stroke="#010101" stroke-width="80" d="M5363.418,5973.319
			c-42.729-4.565-115.505,1.337-140.91-41.819c-30.982-52.631,16.449-147.904-82.754-91.186
			c-37.225,21.279-81.348,92.521-127.393,41.906c-67.496-74.188,167.172-170.943,212.961-195.849
			c112.603-61.287,228.512-136.565,363.74-119.77c128.77,15.989,66.711,153.692,15.837,228.662
			C5557.318,5865.402,5452.49,5982.834,5363.418,5973.319z"/>
		<path id="_x31_80638969" fill="none" stroke="#010101" stroke-width="80" d="M4916.115,6198.405
			c173.815,6.848,352.209,17.989,519.605-38.738c71.454-24.216,166.924-68.228,295.582-150.389
			c-123.869,34.759-253.451,77.15-378.061,111.058c-129.412,35.226-276.834,32.667-353.961-88.832
			c-64.861-102.158-63.438-239.447-57.375-356.722c8.668-167.349,0.994-207.513-25.729-204.955L4916.115,6198.405z"/>
		<path id="_x31_80638970" fill="none" stroke="#010101" stroke-width="80" d="M5575.974,4476.139
			c-34.86-60.418-104.965-20.188-124.972,22.461c-18.992,40.501-12.137,94.58-13.539,137.938
			c-1.244,38.539,1.918,81.752-6.893,119.352c-7.466,31.822-67.811,119.731-18.957,147.178
			c40.889,22.853,85.024-95.301,97.924-121.513C5539.658,4720.359,5615.404,4544.496,5575.974,4476.139z"/>
		<path id="_x31_80638971" fill="none" stroke="#010101" stroke-width="80" d="M4916.285,4284.442
			c116.279,39.485,234.23,12.236,368.626-35.716c34.782-12.406,72.19-22.268,106.265-38.533
			c100.562-48.018,168.972-161.977,62.475-234.39c-75.847-51.597-187.186-72.548-277.68-83.598
			c-101.543-12.399-199.004,3.554-259.658,0.458L4916.285,4284.442z"/>
		<path id="_x31_80638972" fill="none" stroke="#010101" stroke-width="80" d="M5429.984,3483.721
			c-43.357,73.329-89.361,140.001-98.43,149.829c-52.227,56.62-155.764,193.391-247.729,170.929
			c-67.985-16.615-105.611-88.006-87.586-157.351c14.733-56.661,81.818-87.661,135.18-110.87
			c77.205-33.569,154.234-84.817,208.844-146.577c40.681-46.01,83.846-130.421,158.674-115.325
			C5538.042,3282.237,5486.24,3388.581,5429.984,3483.721z"/>
		<path id="_x31_80638973" fill="none" stroke="#010101" stroke-width="80" d="M6555.702,2188.706
			c-41.978-67.852-82.013-137.213-129.661-201.481c-18.008-24.292-34.703-40.993-52.021-54.11c3.282,2.486,6.54,5.1,9.791,7.871
			c-18.308,1.965-33.197,10.502-41.472,25.529l-2.555,4.283c-0.008-0.012-0.019-0.021-0.027-0.034
			c15.608,18.777,27.914,41.504,38.581,72.318c23.359,67.542,67.901,127.791,88.637,195.468
			c14.047,45.784-27.503,190.053,41.216,183.673c40.45-3.748,105.569-80.221,111.231-118.418
			C6624.91,2266.418,6575.94,2221.401,6555.702,2188.706z"/>
		<path id="_x31_80638974" fill="none" stroke="#010101" stroke-width="80" d="M6872.311,2708.338
			c-4.465-14.56-48.895-154.734-136.07-271.718c-46.81-62.829-98.25-94.946-136.435-42.414
			c-47.105,64.799,103.679,237.485,130.655,301.429c40.504,96.06,82.487,232.783,35.936,333.327
			c-27.51,59.323-181.22,180.174-84.655,251.307c89.738,66.102,223.306-79.665,246.464-155.225
			C6934.059,2985.635,6908.511,2826.617,6872.311,2708.338z"/>
		<path id="_x31_80638975" fill="none" stroke="#010101" stroke-width="80" d="M6036.509,4653.813
			c7.997-76.405-126.005-55.207-160.996-25.429c-25.665,21.844-49.012,66.096,3.249,86.412
			C5922.544,4731.811,6030.176,4714.347,6036.509,4653.813z"/>
		<path id="_x31_80638965" fill="none" stroke="#010101" stroke-width="80" d="M4916.44,2549.942
			c20.313,41.791,48.72,90.995,76.38,126.988c-20.264,29.031-39.6,54.844-47.383,90.707c-5.174,23.803,7.496,90.191-29.026,79.034
			L4916.44,2549.942z"/>
	</g>
</g>
</svg>
