<svg width="7152" height="6448" xmlns="http://www.w3.org/2000/svg">
<g transform="scale(1.0)">
<g id="180643107" order="1" parent_id="" graphic_group_label_id="28" graphic_group_label="Atlas - Adult Mouse" sub_image_id="100960104" transform=" scale(1.0, 1.0)"><path id="180643109" parent_id="180643107" order="0" structure_id="8" d="M6510.349,2008.888
			c-72.604-203.505-279.42-509.659-421.27-646.338c-82.406-79.407-189.109-129.602-292.938-177.844
			c-103.832-48.241-204.777-94.533-318.393-126.738c-166.237-47.114-335.18-69.438-500.415-116.274
			c-163.403-46.325-282.729-204.816-445.536-249.156c-116.24-31.655-203.39,58.595-314.382,30.897
			c-133.686-33.355-332.964-58.322-450.534-48.152c-140.308,12.145-260.703-40.453-416.942-23.511l145.954,2858.706
			l103.482,1988.556c70.834,65.698,49.941,159.179,139.373,195.197c108.498,43.684,262.712,37.327,375.202,31.135
			c168.55-9.286,329.566-37.741,496.387-69.046c228.57-42.894,428.497-87.263,588.266-192.706
			c128.586-84.866,230.673-155.489,382.458-315.352c100.599-105.963,225.037-324.28,281.801-468.176
			c109.194-276.814,73.438-402.808,17.654-632.226c-36.131-148.644-106.713-304.318-239.863-394.828
			c-49.14-33.4-111.466-63.813-149.738-110.257c-13.936-16.915-47.042-106.335-63.497-106.441c-6.86-0.023-14.077-2.299-21.61-6.505
			c25.781,2.248,50.771,3.57,74.788,3.853c38.505,0.449,90.454,13.819,125.808-11.463c47.221-33.772,77.495-109.909,128.494-121.668
			c133.959-30.882,360.389,42.658,481.499-81.795c20.236-20.804,43.184-40.549,60.933-60.509
			c152.972-172.05,211.725-318.853,228.504-534.396C6520.993,2429.258,6577.996,2198.53,6510.349,2008.888z" style="stroke:black;fill:#bfdae3"/><path id="180643110" parent_id="180643107" order="1" structure_id="354" d="M5880.516,4047.86
			c-36.131-148.644-106.713-304.318-239.863-394.828c-49.14-33.4-111.466-63.813-149.738-110.257
			c-13.936-16.915-47.042-106.335-63.497-106.441c-104-0.355-309.727-55.258-460.521-104.417
			c-140.022-45.635-143.892-89.511-218.39-94.34c-169.107-10.948-170.683,66.657-502.851,160.753
			c-199.886,56.619-318.166,93.399-527.142,125.975c-53.792,8.385-171.488-24.657-222.621-13.827l29.724,571.177l-0.004-0.158
			c0,0,36.368,10.645,35.34,31.469c-0.865,17.66-24.104,42.413-31.13,49.513l69.553,1336.556
			c70.834,65.698,49.941,159.179,139.373,195.197c108.498,43.684,262.712,37.327,375.202,31.135
			c168.55-9.286,329.566-37.741,496.387-69.046c228.57-42.894,428.497-87.263,588.266-192.706
			c128.586-84.866,230.673-155.489,382.458-315.352c100.599-105.963,225.037-324.28,281.801-468.176
			C5972.056,4403.271,5936.3,4277.278,5880.516,4047.86z" style="stroke:black;fill:#ff9bcd"/><path id="180643111" parent_id="180643107" order="2" structure_id="207" d="M3496.5,3512.5c53.572-10.955,180.166,20.794,236.513,12.281
			c6.37-0.96,12.646-1.92,18.85-2.886l20.325-4.608c-69.833,24.486-128.406,69.005-160.357,134.681
			c-30.761,63.228-57.238,144.462-97.33,199.532L3496.5,3512.5z" style="stroke:black;fill:#ffa5d2"/><path id="180643116" parent_id="180643107" order="3" structure_id="711" d="M4381.028,3861.535c-2.389,0.926-4.631,1.678-6.689,2.249
			c-101.972,28.39-248.497-44.247-262.944-151.739c-15.501-115.492,104.92-172.4,205.102-187.118
			c76.3-11.2,76.135,16.438,133.064,53.241c78.918,51.005,198.906,18.514,105.231,139.107
			C4512.302,3771.964,4448.934,3835.462,4381.028,3861.535z" style="stroke:black;fill:#ffa5d2"/><path id="180643117" parent_id="180643107" order="4" structure_id="1039" d="M3982.975,3560.234
			c-111.389-77.497,62.836-108.072,161.566-134.71c103.877-28.026,224.097-75.861,241.208-20.333
			c18.912,61.36-38.014,90.563-84.774,101.234c-39.599,9.043-82.65,20.762-117.286,42.319
			c-26.574,16.557-47.55,56.434-74.569,68.239C4055.896,3640.243,4024.157,3588.9,3982.975,3560.234z" style="stroke:black;fill:#ffa5d2"/><path id="180643118" parent_id="180643107" order="5" structure_id="903" d="M4901.097,3306.659
			c-78.156-35.468-92.068-65.159-152.591-69.082c-123.058-7.963-157.398,30.962-294.973,89.014l0.19,0.453
			c-36.12,28.898-35.657,43.987-39.417,81.745c-1.064,10.608-3.747,79.53-1,89.183c10.116,35.601,79.698,84.654,113.904,90.146
			c87.439,14.025,53.839-49.104,62.228-102.587c5.685-36.251,30.555-50.044,60.33-69.121
			c68.708-44.056,198.891-42.83,248.879-100.468L4901.097,3306.659z" style="stroke:black;fill:#ffa5d2"/><path id="180643112" parent_id="180643107" order="6" structure_id="666" d="M3836.44,3679.35l-12.431,9.98
			c-87.71,66.5-171.479,136.03-228.1,231.51l-1.66,3.16c-29.92,0.49-54.05-6.85-63.65-31.95c-16.97-44.359,46.8-132.83,63.34-175.34
			c42.27-108.63,133.77-102.729,224.77-47.52C3824.59,3672.76,3830.5,3676.14,3836.44,3679.35z" style="stroke:black;fill:#ffa5d2"/><path id="180643114" parent_id="180643107" order="7" structure_id="682" d="M4293.34,4005.66c-8.359,59.899-110.649,42.97-191.39,14.52
			c-2.23-0.79-4.45-1.59-6.641-2.39c-36.27-13.26-82.6-32.021-131.189-50.65c-6.09-23.12-20.03-85.819-14.5-158.069
			c3.02-23,13.79-40.061,32.81-57.71l7.58-6.98c3.971,1.69,7.95,3.43,11.92,5.21c96.87,43.44,284.79,117.141,291.851,243.87
			C4294.02,3997.84,4293.87,4001.9,4293.34,4005.66z" style="stroke:black;fill:#ffa5d2"/><path id="180643113" parent_id="180643107" order="8" structure_id="691" d="M3990.01,3744.38l-7.58,6.98
			c-19.02,17.649-29.79,34.71-32.81,57.71c-5.53,72.25,8.41,134.949,14.5,158.069c-71.101-27.279-147.03-54.31-203.39-63.51
			c-40.23-6.57-112.7,19.53-166.48,20.37l1.66-3.16c56.62-95.479,140.39-165.01,228.1-231.51l12.431-9.98
			C3886.16,3706.3,3937.94,3722.1,3990.01,3744.38z" style="stroke:black;fill:#ffa5d2"/><path id="180643122" parent_id="180643107" order="9" structure_id="429" d="M5643.647,4758.857
			c32.238-53.81,72.521-91.324,89.827-136.001c25.842-66.735,6.624-128.477,5.541-190.654
			c-2.259-129.383,13.707-357.205-33.205-449.014c-42.391-82.959-94.866-141.084-161.095-207.95
			c-47.239-47.693-128.852-87.172-185.717-127.811c-60.103-42.974-119.394-100.511-181.842-134.239
			c-179.791-97.089-445.75-14.956-518.776,189.563c-25.682,71.96,14.287,156.666,87.287,185.273
			c87.023,34.083,198.914-14.413,280.238,34.13c176.429,105.289,400.278,441.639,316.604,655.839
			c-42.13,107.876-143.024,221.831-75.035,336.931c43.816,74.181,130.125,97.509,212.691,104.406
			c18.159,1.521,34.308,7.083,49.621-6.327c15.977-13.972,32.953-41.602,39.661-60.77c14.081-40.256,28.502-80.6,41.445-121.131
			C5618.98,4805.759,5629.951,4781.722,5643.647,4758.857z" style="stroke:black;fill:#ffa5d2"/><path id="180643126" parent_id="180643107" order="10" structure_id="135" d="M5155.275,4825.486
			c76.199-48.994-91.408-214.385-118.405-100.275C5023.678,4780.996,5099.617,4861.265,5155.275,4825.486z" style="stroke:black;fill:#ffb3d9"/><path id="180643120" parent_id="180643107" order="11" structure_id="839" d="M3640.085,4068.171
			c53.775,12.14,279.145-17.43,334.901-41.616c57.682-25.022-128.809-90.496-173.95-98.184
			c-63.136-10.637-150.046-10.834-186.521,51.93c-19.028,32.744-10.359,61.119,22.616,85.251" style="stroke:black;fill:#ffb3d9"/><path id="180643121" parent_id="180643107" order="12" structure_id="136" d="M5405.5,5062.5c-19.36-53.92-96.08-74.71-120.87-123.46
			c-0.01,0-0.01-0.01-0.01-0.021c-6.26-7.369-11.99-15.38-17.14-24.1c-34.83-58.97-25.341-117.64-2.131-175.34
			c7.62-18.93,16.7-37.74,26.181-56.43c2.55-15.92-1.2-32.061-19.36-47.21c-4.939-1.7-10.229-4.091-15.9-7.301
			c-237.51-124.04-454.14-271.13-679.51-427.17c-80.8-55.96-171.88-161.8-263.21-200.09c-0.3-0.16-0.59-0.3-0.88-0.43
			c-7.43-3.431-14.21,0.04-19.33,4.71c-8.359,59.899-110.649,42.97-191.39,14.52c-118.76-11.85-123.34,68.61-86.41,110.59
			c4.46,1.75,9.24,3.931,14.36,6.58c454.729,209.931,718.76,669.48,1070.5,1004.41c5.18,4.96,10.609,9.471,16.239,13.55
			c81.38,59.08,205.45,29.171,257.36-7.31C5392.75,5134.72,5420.41,5104.03,5405.5,5062.5z M5155.275,4825.486
			c-55.658,35.778-131.598-44.49-118.405-100.275C5063.867,4611.102,5231.475,4776.492,5155.275,4825.486z" style="stroke:black;fill:#ffb3d9"/><path id="180643123" parent_id="180643107" order="13" structure_id="955" d="M4815.648,5607.85
			c34.049-75.685,78.293-110.763,158.41-132.873c147.447-40.697,0.523-161.171-85.785-180.7
			c-83.217-18.832-126.907-2.049-153.037,72.492c-21.116,60.245-178.931,190.001-140.059,244.909
			C4629.688,5660.432,4757.542,5599.371,4815.648,5607.85z" style="stroke:black;fill:#ffb3d9"/><path id="180643124" parent_id="180643107" order="14" structure_id="1098" d="M5272.17,4635.94c-4.939-1.7-10.229-4.091-15.9-7.301
			c-237.51-124.04-454.14-271.13-679.51-427.17c-80.8-55.96-171.88-161.8-263.21-200.09c-0.3-0.16-0.59-0.3-0.88-0.43
			c-17.939-27.13-3.64-89.88,101.38-144.391c113.55-58.93,174.76-90.319,256.23-34.76c16.5,29.23,42.62,53.391,75.39,66.23
			c87.021,34.08,198.91-14.42,280.24,34.13c176.42,105.28,400.27,441.63,316.6,655.83c-6.2,15.87-13.66,31.859-21.68,47.979
			C5310.02,4636.79,5294.76,4643.69,5272.17,4635.94z" style="stroke:black;fill:#ffb3d9"/><path id="180643125" parent_id="180643107" order="15" structure_id="1107" d="M4015.54,4130.77c4.46,1.75,9.24,3.931,14.36,6.58
			c454.729,209.931,718.76,669.48,1070.5,1004.41c5.18,4.96,10.609,9.471,16.239,13.55c-9.5,68.841,118.591,176.08,39.87,226.681
			c-47.02,32.24-97.64,29.59-129.25,7.13c-24.58-42.11-91.109-84.01-138.99-94.84c-83.21-18.84-126.899-2.05-153.029,72.489
			c-16.51,47.091-116.561,136.681-140.86,199.761c-32.375,14.539-31.085,24.729-62.505-32.871
			c-10.891-20.536-41.99-51.892-55.295-74.691c-25.059-42.943-83.604-137.421-134.08-171.794
			c-96-65.375-113.105-106.033-244-192.674c-57.793-38.254-198.445-141.567-228.937-197.85
			c-109.101-201.382-133.998-178.508-176.348-232.15c68.56-52.17,164.424-111.89,184.454-152.56
			c29.34-34.551,49.4-75.591,62.91-120.921c16.3-54.689,28.57-119.17,12.79-170.97C3952.79,4159.94,3957.04,4107.86,4015.54,4130.77
			z" style="stroke:black;fill:#ffb3d9"/><path id="180643115" parent_id="180643107" order="16" structure_id="859" d="M3859.911,3664.006
			c-75.386-41.037-133.542-75.08-102.758-113.297c45.203-56.127,151.926-8.856,196.991,21.376
			c72.032,48.33,112.365,99.729,131.551,188.238c-0.668,0.716-1.341,1.447-1.993,2.176
			C4052.168,3761.507,3944.938,3710.302,3859.911,3664.006z" style="stroke:black;fill:#ffb3d9"/><path id="180643119" parent_id="180643107" order="17" structure_id="773" d="M3568.033,4356.973
			c35.956-54.774,63.212-98.577,126.859-153.08c66.242-56.719,171.548-101.333,234.476-28.299
			c47.103,54.652,32.649,143.512,11.208,215.424c-28.077,94.206-84.387,169.851-193.538,207.279
			c-63.98,21.944-102.344,16.651-156.298-20.928C3549.936,4548.948,3534.198,4408.502,3568.033,4356.973z" style="stroke:black;fill:#ffb3d9"/><path id="180643127" parent_id="180643107" order="18" structure_id="512" d="M3349.938,651.771
			c156.24-16.942,286.38,33.788,426.688,21.644c117.568-10.174,307.103,16.664,440.788,50.019
			c110.992,27.697,198.142-62.553,314.382-30.897c162.807,44.34,282.133,202.832,445.536,249.156
			c165.235,46.836,334.178,69.16,500.415,116.274c113.342,32.125,214.775,78.673,318.393,126.738
			c104.116,48.305,210.34,98.246,292.938,177.844c141.85,136.679,348.666,442.833,421.27,646.338
			c67.647,189.642,10.645,420.37-4.517,614.963c-18.73,240.544-83.521,365.178-258.294,569.111
			c-40.043,46.721-102.62,78.522-169.437,90.482c-121.589,21.75-263.063-2.513-349.512,17.422
			c-48.1,11.094-79.08,89.091-122.188,121.353c-36.817,27.553-85.743,10.742-125.808,11.463
			c-146.709,2.651-329.119-41.592-513.699-101.765c-140.022-45.635-143.892-89.511-218.39-94.34
			c-169.107-10.948-170.683,66.657-502.851,160.753c-199.886,56.619-318.166,93.399-527.142,125.975
			c-53.792,8.385-171.488-24.657-222.621-13.827L3349.938,651.771z" style="stroke:black;fill:#f0f080"/><path id="180643135" parent_id="180643107" order="19" structure_id="10725" d="M4531.797,692.537
			c-116.24-31.655-203.39,58.595-314.382,30.897c-133.686-33.355-323.22-60.193-440.788-50.019
			c-140.309,12.144-270.449-38.586-426.688-21.644l6.262,122.657c162.084,23.739,320.57,61.113,491.747,67.975
			c150.454,6.028,299.26,24.703,449.217,35.61c36.066,2.619,259.889-4.596,240.161,76.537
			c-7.978,32.689-95.611,45.055-121.499,51.177c-83.317,19.716-168.69,32.083-253.465,43.372
			c-258.815,34.459-536.557,35.634-789.178,34.708l3.214,86.211c60.093-2.637,198.702-3.298,254.591-7.024
			c67.966-4.531,366.274,64.104,575.441,18.124c66.862-14.698,195.286-47.859,318.899-88.921
			c13.506-4.486,25.495-8.48,36.675-12.188c3.674-6.083,4.604-5.926,3.488-1.156c42.91-14.217,74.61-24.417,136.541-42.727
			c8.088-2.392,116.476-57.353,122.993-62.422c73.675-57.303,72.69-50.785,80.287-60.251
			C4776.511,849.654,4669.765,730.112,4531.797,692.537z" style="stroke:black;fill:#fffc91"/><path id="180643134" parent_id="180643107" order="20" structure_id="10723" d="M4162.361,1049.099
			c84.774-11.288,170.147-23.655,253.465-43.372c25.888-6.122,113.521-18.487,121.499-51.177
			c19.728-81.132-204.095-73.917-240.161-76.537c-149.957-10.907-298.763-29.582-449.217-35.61
			c-171.177-6.862-329.662-44.236-491.747-67.975l13.084,256.279l3.898,53.1C3625.805,1084.733,3903.546,1083.558,4162.361,1049.099
			z" style="stroke:black;fill:#ece754"/><path id="180643136" parent_id="180643107" order="21" structure_id="10728" d="M4562.005,1080.008
			C4562.005,1080.009,4562.005,1080.009,4562.005,1080.008C4562.005,1080.009,4562.005,1080.009,4562.005,1080.008
			c-11.18,3.708-23.169,7.702-36.675,12.188c-123.613,41.063-252.037,74.224-318.899,88.921
			c-209.167,45.979-507.476-22.655-575.441-18.124c-55.889,3.726-194.498,4.388-254.591,7.024l5.532,108.355l-0.941-30.046
			c176.744-43.434,323.517,17.418,494.31,58.108c124.11,29.573,262.964,57.132,389.647,27.999
			c77.352-17.788,153.096-44.02,228.922-70.016c25.97-63.681,66.932-165.502,71.625-185.567
			C4564.339,1079.234,4563.176,1079.62,4562.005,1080.008z" style="stroke:black;fill:#fffc91"/><path id="180643138" parent_id="180643107" order="22" structure_id="10728" d="M4067.736,1596.635
			c-101.852-20.923-176.727-79.929-280.678-88.619c-124.943-10.445-356.985,3.724-392.904,9.782l8.252,161.638
			c61.006-0.352,347.124,0.013,464.196,36.345c131.4,40.779,371.545,58.904,484.821,117.807
			c13.541,7.042,27.147,14.736,40.726,22.949c6.137-61.786,12.871-128.773,19.957-204.829
			c-25.544-13.105-51.906-24.626-79.239-33.991C4241.97,1586.581,4157.964,1615.175,4067.736,1596.635z" style="stroke:black;fill:#fffc91"/><path id="180643137" parent_id="180643107" order="23" structure_id="10726" d="M3875.299,1306.436
			c-170.793-40.69-317.566-101.542-494.31-58.108l0.941,30.046l12.224,239.424c35.919-6.058,267.961-20.228,392.904-9.782
			c103.951,8.69,178.826,67.696,280.678,88.619c90.228,18.541,174.233-10.054,265.131,21.083
			c27.333,9.364,53.695,20.885,79.239,33.991c0.068-0.737,0.146-1.514,0.229-2.312c0.015-0.144,0.029-0.284,0.044-0.43
			c0.081-0.768,0.168-1.563,0.261-2.383c0.021-0.176,0.041-0.355,0.062-0.534c0.097-0.841,0.198-1.702,0.307-2.595
			c0.016-0.123,0.031-0.252,0.047-0.376c0.104-0.85,0.214-1.723,0.328-2.618c0.021-0.154,0.039-0.304,0.059-0.459
			c0.122-0.939,0.249-1.907,0.382-2.894c0.032-0.238,0.064-0.478,0.097-0.718c0.132-0.979,0.269-1.977,0.411-3
			c0.033-0.237,0.067-0.479,0.102-0.718c0.137-0.978,0.277-1.972,0.424-2.987c0.021-0.141,0.039-0.277,0.06-0.418
			c0.159-1.101,0.324-2.23,0.493-3.373c0.041-0.28,0.082-0.559,0.124-0.841c0.165-1.113,0.335-2.245,0.509-3.396
			c0.047-0.309,0.095-0.621,0.143-0.932c0.18-1.184,0.362-2.379,0.551-3.601c0.03-0.192,0.062-0.39,0.092-0.583
			c0.177-1.141,0.357-2.299,0.542-3.471c0.043-0.275,0.086-0.546,0.129-0.823c0.198-1.255,0.401-2.53,0.607-3.819
			c0.056-0.345,0.11-0.692,0.166-1.039c0.211-1.31,0.424-2.633,0.642-3.976c0.041-0.248,0.082-0.499,0.122-0.748
			c0.212-1.301,0.427-2.615,0.646-3.945c0.032-0.194,0.063-0.386,0.096-0.582c0.236-1.43,0.477-2.88,0.72-4.342
			c0.052-0.312,0.104-0.623,0.156-0.937c0.241-1.447,0.486-2.908,0.735-4.384c0.047-0.282,0.095-0.565,0.143-0.847
			c0.533-3.159,1.081-6.38,1.645-9.659c0.039-0.229,0.078-0.457,0.117-0.687c0.281-1.638,0.566-3.29,0.855-4.955
			c0.032-0.188,0.064-0.377,0.098-0.566c4.125-23.805,8.924-50.254,13.865-76.856c-28.379-2.78-57.892-4.199-89.457-6.989
			c-30.904-2.737-56.739-22.398-87.062-27.364c-25.727-4.213-57.444,0.127-84.244-1.395c-72.923-4.149-145.979-8.665-217.809-22.509
			c-33.864-6.525-68.235-9.463-101.038-15.205c-55.231-9.672-103.455-31.164-160.226-37.184
			c-13.628-1.448-27.222-2.568-40.819-3.578c39.111-1.681,77.445-3.054,119.808,5.365c61.067,12.127,122.155,21.785,182.156,30.683
			c106.031,15.713,216.179,19.541,323.293,21.902c55.354,1.216,108.001,13.357,160.491,29.04
			c1.989-10.562,3.973-21.008,5.915-31.185c0.002-0.013,0.005-0.025,0.007-0.038c0.428-2.242,0.854-4.471,1.277-6.685
			c0.024-0.126,0.049-0.252,0.073-0.379c0.17-0.889,0.34-1.775,0.509-2.66c0.064-0.334,0.128-0.667,0.192-1.001
			c0.162-0.847,0.324-1.692,0.485-2.534c0.055-0.286,0.11-0.572,0.165-0.858c0.15-0.786,0.301-1.569,0.451-2.35
			c0.065-0.339,0.13-0.679,0.195-1.018c0.158-0.824,0.316-1.646,0.474-2.464c0.065-0.342,0.131-0.683,0.197-1.025
			c0.124-0.646,0.248-1.292,0.372-1.936c0.119-0.616,0.237-1.23,0.354-1.843c0.085-0.437,0.169-0.873,0.252-1.308
			c0.162-0.841,0.324-1.678,0.484-2.512c0.035-0.182,0.07-0.364,0.105-0.545c0.167-0.864,0.332-1.723,0.498-2.579
			c0.057-0.297,0.114-0.595,0.172-0.891c0.146-0.753,0.29-1.501,0.435-2.249c0.058-0.298,0.115-0.598,0.173-0.895
			c0.174-0.901,0.348-1.797,0.52-2.69c0.026-0.134,0.053-0.27,0.078-0.404c0.197-1.017,0.393-2.027,0.588-3.031
			c0.004-0.023,0.009-0.046,0.013-0.069c0.158-0.816,0.315-1.626,0.472-2.433c0.059-0.304,0.118-0.608,0.177-0.911
			c0.185-0.954,0.368-1.901,0.552-2.843c0.002-0.014,0.005-0.028,0.008-0.043c0.192-0.991,0.384-1.976,0.574-2.953
			c0.007-0.039,0.015-0.077,0.021-0.116c2.676-13.774,5.095-26.127,7.121-36.439c0.899-4.575,1.722-8.75,2.455-12.465
			c0.275-1.392,0.541-2.736,0.79-3.997c0.011-0.058,0.022-0.116,0.034-0.174c0.433-2.188,0.821-4.153,1.17-5.914
			c0.159-0.8,0.312-1.572,0.452-2.279c0.027-0.136,0.054-0.272,0.081-0.405c0.116-0.588,0.225-1.138,0.328-1.656
			c0.06-0.301,0.117-0.589,0.172-0.866c0.135-0.678,0.256-1.285,0.361-1.815c0.017-0.084,0.034-0.173,0.051-0.254
			c0.02-0.101,0.038-0.193,0.057-0.288c0.067-0.338,0.129-0.646,0.181-0.906c0.046-0.229,0.084-0.421,0.117-0.588
			c0.028-0.143,0.053-0.263,0.072-0.361c0.017-0.082,0.029-0.146,0.039-0.196c0.015-0.073,0.024-0.123,0.024-0.123
			s0.013-0.031,0.033-0.081c0.022-0.054,0.06-0.144,0.105-0.254c0.002-0.003,0.004-0.008,0.005-0.011
			c0.036-0.087,0.08-0.194,0.129-0.313c0.047-0.113,0.101-0.245,0.159-0.385c0.114-0.275,0.258-0.623,0.415-1.004
			c0.835-2.021,2.264-5.485,4.188-10.159c2.942-7.15,7.022-17.085,11.833-28.852c0.041-0.1,0.082-0.2,0.123-0.3
			c0.275-0.673,0.553-1.353,0.832-2.036c0.11-0.269,0.221-0.539,0.331-0.81c0.193-0.473,0.389-0.951,0.584-1.429
			c0.857-2.1,1.735-4.25,2.631-6.447c-75.826,25.996-151.57,52.228-228.922,70.016
			C4138.263,1363.567,3999.409,1336.009,3875.299,1306.436z" style="stroke:black;fill:#ece754"/><path id="180643139" parent_id="180643107" order="24" structure_id="10731" d="M4383.142,2606.804
			c-7.274-40.034-12.21-92.727-15.445-146.438c-13.523-12.864-28.022-25.112-43.738-36.603
			c-167.862-122.737-363.039-130.159-561.079-148.461c-54.225-5.01-115.238-13.152-164.264-18.46
			c-50.465-5.455-119.973-10.56-166.131,11.698l11.789,230.902c38.594-0.888,192.268-4.323,261.208-4.323
			c79.178,0,293.428,22.655,349.318,36.249s167.674,40.78,218.907,77.028c51.232,36.248,107.124,95.151,107.124,95.151
			s0.194,0.246,0.557,0.705c18.418,12.454,35.83,31.318,57.065,54.552C4438.452,2758.803,4396.912,2682.59,4383.142,2606.804z" style="stroke:black;fill:#fffc91"/><path id="180643142" parent_id="180643107" order="25" structure_id="10731" d="M3620.324,1873.516
			c73.028,11.473,141.993,32.885,216.746,39.662c163.644,14.846,344.054,27.172,496.687,93.021
			c14.397,6.212,28.497,13.326,42.263,21.163c-0.039,0.455-0.075,0.906-0.114,1.36c4.667-54.794,10.16-110.93,16.244-172.185
			c-13.578-8.213-27.185-15.908-40.726-22.949c-113.276-58.903-353.421-77.028-484.821-117.807
			c-117.072-36.333-403.189-36.697-464.196-36.345l9.871,193.327C3480.585,1872.121,3553.348,1862.993,3620.324,1873.516z" style="stroke:black;fill:#fffc91"/><path id="180643140" parent_id="180643107" order="26" structure_id="10729" d="M3598.615,2256.842
			c49.025,5.308,110.039,13.45,164.264,18.46c198.04,18.302,393.217,25.724,561.079,148.461
			c15.716,11.491,30.215,23.739,43.738,36.603c-0.038-0.631-0.075-1.264-0.112-1.895c-0.082-1.383-0.164-2.766-0.244-4.15
			c-0.045-0.791-0.091-1.582-0.136-2.374c-0.102-1.778-0.201-3.557-0.299-5.335c-0.042-0.775-0.084-1.551-0.126-2.326
			c-0.069-1.294-0.139-2.587-0.206-3.88c-0.041-0.771-0.081-1.542-0.121-2.313c-0.093-1.785-0.183-3.569-0.271-5.353
			c-0.04-0.794-0.078-1.588-0.117-2.382c-0.065-1.336-0.13-2.671-0.192-4.006c-0.034-0.706-0.068-1.412-0.102-2.118
			c-0.082-1.772-0.163-3.542-0.242-5.311c-0.036-0.794-0.071-1.587-0.106-2.38c-0.065-1.493-0.131-2.985-0.194-4.474
			c-0.036-0.85-0.072-1.697-0.107-2.545c-0.061-1.455-0.121-2.907-0.18-4.357c-0.031-0.797-0.063-1.593-0.096-2.389
			c-0.069-1.766-0.139-3.529-0.205-5.287c-0.025-0.669-0.05-1.335-0.074-2.003c-0.051-1.332-0.1-2.661-0.146-3.987
			c-0.027-0.755-0.055-1.51-0.082-2.264c-0.062-1.75-0.122-3.495-0.181-5.234c-0.024-0.717-0.048-1.431-0.071-2.146
			c-0.044-1.322-0.087-2.641-0.129-3.956c-0.021-0.667-0.043-1.335-0.063-2c-0.055-1.75-0.108-3.493-0.159-5.23
			c-0.021-0.714-0.043-1.425-0.063-2.137c-0.039-1.355-0.077-2.707-0.115-4.054c-0.019-0.686-0.038-1.372-0.057-2.056
			c-0.044-1.613-0.087-3.218-0.128-4.818c-0.019-0.706-0.036-1.41-0.055-2.113c-0.037-1.487-0.073-2.969-0.108-4.444
			c-0.019-0.747-0.036-1.492-0.053-2.236c-0.031-1.35-0.062-2.694-0.092-4.034c-0.015-0.673-0.029-1.345-0.044-2.015
			c-0.035-1.664-0.07-3.32-0.103-4.966c-0.013-0.59-0.023-1.174-0.034-1.762c-0.025-1.259-0.049-2.513-0.071-3.761
			c-0.012-0.634-0.023-1.268-0.034-1.898c-0.029-1.624-0.057-3.238-0.083-4.841c-0.01-0.584-0.019-1.164-0.027-1.746
			c-0.021-1.257-0.039-2.508-0.057-3.752c-0.009-0.543-0.017-1.089-0.024-1.63c-0.021-1.579-0.043-3.144-0.063-4.699
			c-0.007-0.583-0.014-1.163-0.021-1.743c-0.016-1.337-0.031-2.666-0.045-3.984c-0.005-0.422-0.01-0.845-0.014-1.265
			c-0.016-1.488-0.029-2.96-0.043-4.423c-0.005-0.567-0.01-1.131-0.014-1.694c-0.013-1.484-0.024-2.959-0.034-4.416
			c-0.003-0.393-0.005-0.779-0.007-1.169c-0.008-1.239-0.016-2.466-0.021-3.684c-0.003-0.502-0.005-1.004-0.008-1.501
			c-0.006-1.451-0.012-2.888-0.016-4.307c-0.001-0.399-0.002-0.791-0.003-1.187c-0.003-1.178-0.005-2.345-0.007-3.5
			c0-0.42-0.001-0.842-0.001-1.258c-0.001-1.383,0-2.749,0.001-4.098c0.001-0.412,0.002-0.819,0.002-1.229
			c0.002-1.125,0.005-2.237,0.008-3.337c0.001-0.335,0.002-0.675,0.003-1.007c0.005-1.315,0.011-2.607,0.019-3.884
			c0.002-0.386,0.004-0.768,0.006-1.15c0.008-1.203,0.016-2.391,0.024-3.558c0.002-0.167,0.003-0.336,0.004-0.502
			c0.011-1.223,0.021-2.418,0.034-3.601c0.003-0.353,0.007-0.705,0.011-1.054c0.013-1.189,0.026-2.363,0.041-3.508
			c0.003-0.21,0.006-0.413,0.009-0.622c0.014-0.994,0.027-1.969,0.043-2.929c0.004-0.314,0.009-0.631,0.014-0.942
			c0.018-1.081,0.036-2.142,0.056-3.177c0.005-0.239,0.01-0.471,0.015-0.708c0.018-0.903,0.035-1.788,0.055-2.654
			c0.004-0.22,0.009-0.445,0.014-0.663c0.022-0.987,0.046-1.948,0.07-2.885c0.006-0.238,0.012-0.471,0.019-0.707
			c0.021-0.833,0.045-1.649,0.068-2.441c0.004-0.134,0.008-0.273,0.012-0.406c0.026-0.877,0.054-1.72,0.082-2.543
			c0.008-0.219,0.016-0.435,0.023-0.65c0.028-0.813,0.058-1.61,0.089-2.368c0-0.004,0-0.009,0-0.013
			c-122.457-85.013-275.073-121.493-432.173-140.138c-110.729-13.143-210.838-43.832-330.489-42.971
			c-54.769,0.394-126.958,6.192-179.589-6.988l11.727,229.696C3478.643,2246.282,3548.15,2251.387,3598.615,2256.842z" style="stroke:black;fill:#ece754"/><path id="180643141" parent_id="180643107" order="27" structure_id="10729" d="M3603.37,2013.039
			c123.428,4.531,243.625,28.571,365.224,47.752c99.195,15.648,204.244,22.97,299.372,56.997
			c34.117,12.2,66.818,32.958,97.569,57.59c0.016-0.299,0.034-0.595,0.051-0.894c0.315-5.834,0.643-11.65,0.981-17.444
			c0.021-0.372,0.044-0.743,0.065-1.115c0.347-5.888,0.703-11.76,1.072-17.616c0.006-0.1,0.013-0.199,0.019-0.299
			c0.366-5.81,0.746-11.606,1.135-17.394c0.046-0.692,0.093-1.385,0.14-2.077c0.391-5.769,0.789-11.532,1.201-17.289
			c0.007-0.1,0.014-0.199,0.021-0.298c0.411-5.75,0.834-11.498,1.266-17.245c0.037-0.485,0.072-0.971,0.109-1.456
			c0.425-5.639,0.861-11.281,1.306-16.927c0.061-0.772,0.122-1.545,0.184-2.317c0.902-11.392,1.843-22.81,2.82-34.285
			c0.039-0.454,0.075-0.905,0.114-1.36c-13.766-7.836-27.865-14.951-42.263-21.163c-152.633-65.85-333.043-78.176-496.687-93.021
			c-74.753-6.777-143.718-28.189-216.746-39.662c-66.977-10.523-139.739-1.395-208.047-0.753l6.453,126.383
			C3477.257,2015.296,3543.014,2010.821,3603.37,2013.039z" style="stroke:black;fill:#ece754"/><path id="180643143" parent_id="180643107" order="28" structure_id="10734" d="M4048.986,2723.38
			c97.948,13.284,146.157-0.269,235.967-28.107c42.931-13.315,70.666-8.445,96.433,8.978c0,0,0,0,0.001,0
			c-0.362-0.458-0.557-0.705-0.557-0.705s-55.892-58.903-107.124-95.151c-51.233-36.248-163.017-63.435-218.907-77.028
			s-270.141-36.249-349.318-36.249c-68.939,0-222.614,3.435-261.208,4.323l12.274,240.4
			C3648.686,2729.619,3858.99,2697.628,4048.986,2723.38z" style="stroke:black;fill:#fffc91"/><path id="180643145" parent_id="180643107" order="29" structure_id="10734" d="M4348.421,3149.238
			c-43.695,5.757-56.536,31.047-89.244,52.045c-56.145,36.028-114.859,35.996-183.908,31.017
			c-145.278-10.478-272.636-75.218-415.984-85.908c-66.578-4.976-115.934-24.066-182.472-31.127l-5.624-88.637l24.704,483.85
			c51.133-10.83,168.829,22.212,222.621,13.827c208.976-32.575,327.256-69.355,527.142-125.975
			c271.468-76.9,322.131-142.784,423.89-158.32C4564.586,3226.913,4460.749,3134.437,4348.421,3149.238z" style="stroke:black;fill:#fffc91"/><path id="180643144" parent_id="180643107" order="30" structure_id="10732" d="M4667.373,3062.59
			c7.145-2.801,12.961-5.551,20.036-8.451c-7.374-64.033-73.558-104.776-116.497-145.536
			c-48.787-46.305-87.09-100.161-132.46-149.799c-21.235-23.234-38.647-42.098-57.065-54.552c0.538,0.681,0.535,0.678-0.001,0
			c-25.767-17.422-53.502-22.293-96.433-8.978c-89.81,27.838-138.019,41.391-235.967,28.107
			c-189.996-25.752-400.301,6.239-592.439,16.462l14.642,286.785l5.624,88.637c66.538,7.062,115.894,26.152,182.472,31.127
			c143.349,10.69,270.706,75.43,415.984,85.908c69.049,4.979,127.764,5.012,183.908-31.017
			c32.708-20.998,45.549-46.289,89.244-52.045c112.328-14.801,216.165,77.675,321.124,90.772c18.81-2.871,39.363-4.025,63.383-3.208
			c2.98-0.74,5.965-1.571,8.951-2.501C4747.391,3159.88,4685.5,3120.766,4667.373,3062.59z M4414.788,2952.365
			c-62.228,1.096-128.412,9.42-189.488,21.295c-66.887,13.016-140.557,36.815-208.57,38.525
			c-88.527,2.234-177.653-6.928-266.063-5.445c-14.144,0.24-284.821-18.184-277.083,2.93c-3.97-10.843-4.484-31.681-2.077-42.925
			c2.133-9.963,356.629-8.041,395.204-6.525c111.323,4.385,223.231,13.497,331.482-19.303
			c90.888-27.544,339.637-150.143,361.169,25.456C4511.32,2970.674,4462.436,2951.523,4414.788,2952.365z" style="stroke:black;fill:#ece754"/><path id="180643133" parent_id="180643107" order="31" structure_id="10680" d="M6510.349,2008.888
			c-72.604-203.505-279.42-509.659-421.27-646.338c-82.599-79.599-188.822-129.54-292.938-177.844
			c-103.617-48.064-205.051-94.613-318.393-126.738c-166.237-47.114-335.18-69.438-500.415-116.274
			c-24.93-7.067-48.83-16.757-72.019-28.242c-7.597,9.466-6.612,2.948-80.287,60.251c-6.518,5.069-114.905,60.031-122.993,62.422
			c-61.931,18.311-93.631,28.51-136.541,42.727c-4.693,20.066-45.654,121.887-71.625,185.567
			c45.311-15.534,90.65-30.983,136.38-44.496c241.646-71.418,454.033-119.99,704.785-79.611
			c299.686,48.245,446.185,252.009,595.784,492.614c59.188,95.185,117.417,188.772,189.211,274.512
			c66.027,78.862,138.079,167.023,174.286,263.718c-177.779,38.361-402.369-178.549-527.334-277.479
			c-142.488-112.8-333.219-165.671-492.728-250.329c-82.445-43.75-142.86-100.263-237.542-110.303
			c-48.807-5.172-126.379-22.333-162.639,12.117c32.333,31.383,99.299,92.551,161.538,125.309
			c86.09,45.31,348.89,176.71,421.387,212.958s321.704,235.614,421.387,271.862s312.642,176.71,371.545,208.428
			s145.249,101.96,192.571,140.387c36.305,29.48,55.449,42.141,69.017,59.961C6531.21,2383.222,6571.188,2179.442,6510.349,2008.888
			z" style="stroke:black;fill:#fffc91"/><path id="180643132" parent_id="180643107" order="32" structure_id="10678" d="M4874.072,1545.162
			c36.26-34.45,113.832-17.289,162.639-12.117c94.682,10.04,155.097,66.553,237.542,110.303
			c159.509,84.657,350.239,137.529,492.728,250.329c124.965,98.93,349.555,315.841,527.334,277.479
			c-36.207-96.695-108.259-184.856-174.286-263.718c-71.794-85.74-130.022-179.327-189.211-274.512
			c-149.6-240.604-296.099-444.369-595.784-492.614c-250.752-40.379-463.14,8.193-704.785,79.611
			c-45.729,13.513-91.069,28.962-136.38,44.496c-0.895,2.195-1.773,4.348-2.631,6.447c-0.196,0.479-0.391,0.955-0.584,1.429
			c-0.11,0.271-0.221,0.541-0.331,0.81c-0.279,0.685-0.557,1.363-0.832,2.036c-0.041,0.1-0.082,0.2-0.123,0.3
			c-4.81,11.765-8.89,21.7-11.833,28.852c-1.923,4.673-3.352,8.137-4.188,10.159c-0.157,0.381-0.667,1.614-0.703,1.702
			c-0.002,0.003-0.003,0.008-0.005,0.011c-0.049,0.119-0.082,0.199-0.105,0.254c-0.02,0.048-0.033,0.081-0.033,0.081
			s-0.01,0.05-0.024,0.123c-0.01,0.05-0.022,0.115-0.039,0.196c-0.02,0.098-0.044,0.217-0.072,0.361
			c-0.033,0.168-0.071,0.358-0.117,0.588c-0.052,0.261-0.113,0.567-0.181,0.906c-0.019,0.096-0.037,0.186-0.057,0.288
			c-0.017,0.081-0.034,0.169-0.051,0.254c-0.105,0.531-0.226,1.136-0.361,1.815c-0.055,0.276-0.112,0.566-0.172,0.866
			c-0.103,0.519-0.212,1.068-0.328,1.656c-0.026,0.132-0.054,0.27-0.081,0.405c-0.141,0.708-0.293,1.479-0.452,2.279
			c-0.349,1.761-0.737,3.726-1.17,5.914c-0.012,0.058-0.023,0.116-0.034,0.174c-0.249,1.261-0.515,2.605-0.79,3.997
			c-0.733,3.715-1.556,7.891-2.455,12.465c-2.026,10.312-4.444,22.664-7.121,36.439c-0.007,0.039-0.015,0.078-0.021,0.116
			c-0.19,0.978-0.382,1.962-0.574,2.953c-0.003,0.015-0.006,0.029-0.008,0.043c-0.183,0.941-0.367,1.89-0.552,2.843
			c-0.059,0.302-0.118,0.607-0.177,0.911c-0.156,0.808-0.313,1.617-0.472,2.433c-0.004,0.023-0.009,0.046-0.013,0.069
			c-0.195,1.004-0.391,2.015-0.588,3.031c-0.025,0.134-0.052,0.27-0.078,0.404c-0.172,0.892-0.346,1.789-0.52,2.69
			c-0.058,0.297-0.115,0.597-0.173,0.895c-0.145,0.747-0.289,1.496-0.435,2.249c-0.057,0.296-0.115,0.594-0.172,0.891
			c-0.166,0.856-0.331,1.715-0.498,2.579c-0.035,0.181-0.07,0.363-0.105,0.545c-0.16,0.834-0.322,1.672-0.484,2.512
			c-0.083,0.435-0.167,0.872-0.252,1.308c-0.117,0.612-0.235,1.227-0.354,1.843c-0.124,0.644-0.248,1.289-0.372,1.936
			c-0.066,0.342-0.132,0.684-0.197,1.025c-0.157,0.819-0.315,1.641-0.474,2.464c-0.065,0.339-0.13,0.677-0.195,1.018
			c-0.15,0.781-0.301,1.564-0.451,2.35c-0.055,0.286-0.11,0.572-0.165,0.858c-0.161,0.842-0.323,1.688-0.485,2.534
			c-0.064,0.333-0.128,0.667-0.192,1.001c-0.169,0.885-0.339,1.771-0.509,2.66c-0.024,0.126-0.049,0.253-0.073,0.379
			c-0.424,2.214-0.85,4.443-1.277,6.685c-0.002,0.013-0.005,0.025-0.007,0.038c-1.942,10.175-3.925,20.624-5.915,31.185
			c25.027,7.477,50.02,15.755,75.251,24.045c26.041,8.558,46.924,18.496,65.286,30.365l289.559,23.846
			C4873.559,1545.676,4873.81,1545.412,4874.072,1545.162z" style="stroke:black;fill:#ece754"/><path id="180643130" parent_id="180643107" order="33" structure_id="10683" d="M4392.149,1856.537
			c71.482,41.634,198.482,149.376,258.323,217.196c67.966,77.027,140.462,208.427,185.772,244.676s77.028,63.435,126.869,131.4
			s108.744,199.366,194.834,280.924s231.082,231.083,271.862,271.862s81.56,86.089,122.339,140.462s126.868,172.18,131.399,185.772
			l45.041-27.964c86.449-19.935,227.923,4.328,349.512-17.422c66.816-11.96,129.394-43.761,169.437-90.482
			c174.772-203.934,239.563-328.567,258.294-569.111c1.525-19.586,3.48-39.544,5.685-59.784
			c-13.567-17.82-32.712-30.48-69.017-59.961c-47.322-38.427-133.668-108.67-192.571-140.387s-271.862-172.179-371.545-208.428
			s-348.89-235.614-421.387-271.862s-335.297-167.648-421.387-212.958c-62.239-32.757-129.205-93.926-161.538-125.309
			c-10.214,9.704-17.152,23.499-19.243,42.814c-12.095,111.828,191.378,256.073,271.856,305.187
			c76.133,46.447,155.426,87.77,231.506,134.289c62.165,38.016,113.957,98.843,178.577,131.346
			c151.6,76.241,298.821,140.366,439.338,232.906c35.668,23.506,69.099,38.543,104.864,65.899
			c55.418,42.398,161.203,73.078,188.871,134.666c63.262,140.766-139.813,241.049-237.206,288.028
			c-0.166,0.081-0.335,0.163-0.507,0.242c-77.678,37.44-173.638,64.292-242.922,112.52c46.239,24.092,173.212,38.64,145.772,121.548
			c-24.794,74.918-148.243,65.058-199.878,34.021c-15.766-9.479-72.879-50.534-79.371-66.624
			c-24.167-59.939,28.891-47.968-22.723-90.663c-79.772-65.982-157.523-135.421-233.213-209.346
			c-109.295-106.732-199.008-230.103-285.046-355.259c-73.357-106.708-148.116-253.49-246.338-339.103
			c-36.97-32.225-84.284-49.486-116.456-87.087c-74.244-86.762-106.426-189.032-198.723-258.229
			c-44.645-33.472-91.326-65.059-141.126-90.609C4405.021,1727.764,4394.638,1820.728,4392.149,1856.537z" style="stroke:black;fill:#fffc91"/><path id="180643131" parent_id="180643107" order="34" structure_id="10681" d="M6080.971,2457.603
			c-35.766-27.356-69.196-42.393-104.864-65.899c-140.517-92.541-287.738-156.665-439.338-232.906
			c-64.62-32.502-116.412-93.33-178.577-131.346c-76.08-46.519-155.373-87.842-231.506-134.289
			c-80.479-49.114-283.951-193.359-271.856-305.187c2.037-18.819,8.685-32.386,18.472-42.046l-289.559-23.846
			c31.579,20.412,55.686,46.548,85.622,81.291c106.619,123.78,248.311,216.742,350.415,344.025
			c84.615,105.479,210.921,182.549,304.729,282.002c36.523,38.728,66.822,74.06,92.856,117.676
			c23.354,39.151,72.819,81.369,67.411,130.7c0.318-2.845-110.628-105.38-122.043-120.89
			c-34.346-46.684-69.642-96.019-109.204-138.929c-96.772-104.959-209.408-194.538-304.176-301.441
			c-60.423-68.165-119.827-139.026-183.479-204.334c-54.748-56.166-103.25-122.207-169.467-166.258
			c-52.93-35.207-103.495-45.652-158.292-51.021c-0.357,1.927-1.195,6.432-1.255,6.758c-0.693,3.748-1.383,7.488-2.067,11.215
			c-0.046,0.246-0.091,0.493-0.136,0.739c-0.296,1.612-0.59,3.219-0.884,4.824c-0.23,1.257-0.459,2.512-0.688,3.765
			c-0.293,1.603-0.585,3.204-0.874,4.799c-0.38,2.087-0.757,4.167-1.132,6.238c-0.171,0.947-0.342,1.891-0.512,2.834
			c-0.476,2.64-0.95,5.272-1.417,7.879c-0.004,0.026-0.009,0.052-0.014,0.079c-0.775,4.332-1.536,8.609-2.282,12.829
			c-0.089,0.501-0.178,1.005-0.266,1.504c-0.181,1.023-0.359,2.04-0.538,3.057c-0.158,0.903-0.316,1.804-0.474,2.7
			c-0.142,0.806-0.282,1.612-0.422,2.414c-0.306,1.752-0.61,3.497-0.909,5.222c-0.033,0.189-0.065,0.378-0.098,0.566
			c-0.289,1.665-0.574,3.317-0.855,4.955c-0.039,0.229-0.078,0.458-0.117,0.687c-0.563,3.279-1.111,6.5-1.645,9.659
			c-0.048,0.282-0.096,0.566-0.143,0.847c-0.249,1.476-0.494,2.937-0.735,4.384c-0.052,0.313-0.104,0.625-0.156,0.937
			c-0.243,1.462-0.483,2.912-0.72,4.342c-0.032,0.195-0.063,0.387-0.096,0.582c-0.219,1.33-0.434,2.644-0.646,3.945
			c-0.04,0.249-0.081,0.5-0.122,0.748c-0.218,1.343-0.431,2.666-0.642,3.976c-0.056,0.347-0.11,0.694-0.166,1.039
			c-0.206,1.289-0.409,2.563-0.607,3.819c-0.043,0.276-0.086,0.548-0.129,0.823c-0.185,1.172-0.365,2.33-0.542,3.471
			c-0.03,0.193-0.062,0.391-0.092,0.583c-0.188,1.221-0.371,2.417-0.551,3.601c-0.048,0.311-0.096,0.623-0.143,0.932
			c-0.174,1.151-0.344,2.283-0.509,3.396c-0.042,0.282-0.083,0.561-0.124,0.841c-0.169,1.143-0.334,2.272-0.493,3.373
			c-0.021,0.141-0.039,0.278-0.06,0.418c-0.146,1.015-0.287,2.009-0.424,2.987c-0.034,0.239-0.068,0.481-0.102,0.718
			c-0.143,1.022-0.279,2.021-0.411,3c-0.032,0.241-0.064,0.48-0.097,0.718c-0.133,0.986-0.26,1.955-0.382,2.894
			c-0.02,0.155-0.038,0.305-0.059,0.459c-0.114,0.895-0.224,1.769-0.328,2.618c-0.016,0.124-0.031,0.253-0.047,0.376
			c-0.108,0.894-0.21,1.754-0.307,2.595c-0.021,0.179-0.041,0.357-0.062,0.534c-0.093,0.82-0.18,1.616-0.261,2.383
			c-0.015,0.146-0.029,0.286-0.044,0.43c-0.083,0.798-0.161,1.575-0.229,2.312c49.8,25.55,96.481,57.137,141.126,90.609
			c92.297,69.197,124.479,171.467,198.723,258.229c32.172,37.601,79.486,54.862,116.456,87.087
			c98.222,85.613,172.98,232.395,246.338,339.103c86.038,125.156,175.751,248.527,285.046,355.259
			c75.689,73.924,153.44,143.364,233.213,209.346c51.613,42.694-1.444,30.724,22.723,90.663
			c6.492,16.09,63.605,57.146,79.371,66.624c51.635,31.036,175.084,40.896,199.878-34.021
			c27.439-82.908-99.533-97.456-145.772-121.548c69.284-48.228,165.244-75.08,242.922-112.52c0.172-0.08,0.341-0.162,0.507-0.242
			c97.394-46.979,300.468-147.262,237.206-288.028C6242.174,2530.681,6136.389,2500.001,6080.971,2457.603z" style="stroke:black;fill:#ece754"/><path id="180643128" parent_id="180643107" order="35" structure_id="10686" d="M5683.549,3328.83
			c-4.531-13.593-90.62-131.4-131.399-185.772s-81.559-99.683-122.339-140.462s-185.772-190.304-271.862-271.862
			s-144.993-212.959-194.834-280.924s-81.559-95.152-126.869-131.4s-117.807-167.648-185.772-244.676
			c-59.841-67.819-158.319-156.708-258.323-217.196c-6.034,60.748-11.486,116.462-16.128,170.826
			c46.35,26.386,88.869,61.046,125.85,97.775c51.292,50.953,87.075,109.242,128.101,167.231
			c30.479,43.08,72.697,82.659,104.897,128.75c102.623,146.897,156.468,294.466,299.058,412.658
			c130.411,108.1,295.466,180.697,394.769,322.254c35.467,50.55,88.115,114.561,26.86,164.718
			c-43.824,35.876-129.013,24.493-179.779,13.821c-45.026-9.46-85.785-40.003-129.175-55.006
			c-130.376-45.112-260.605-98.685-309.849-171.167c-68.229-100.411-135.554-199.149-214.293-288.138
			c-101.082-114.21-146.507-256.916-254.761-359.892c3.235,53.71,8.169,106.403,15.442,146.435c13.771,75.787,55.311,152,55.311,152
			c45.37,49.639,83.673,103.494,132.46,149.799c42.939,40.76,109.123,81.503,116.497,145.536c-7.075,2.9-12.892,5.65-20.036,8.451
			c18.127,58.176,80.018,97.29,74.506,171.711c-2.986,0.93-5.971,1.761-8.951,2.501c5.035,0.172,10.222,0.429,15.578,0.775
			c74.498,4.829,78.367,48.705,218.39,94.34c184.58,60.173,366.99,104.416,513.699,101.765c40.064-0.721,88.99,16.09,125.808-11.463
			c43.107-32.262,74.088-110.259,122.188-121.353" style="stroke:black;fill:#fffc91"/><path id="180643129" parent_id="180643107" order="36" structure_id="10684" d="M4622.46,2820.26
			c78.739,88.988,146.064,187.727,214.293,288.138c49.243,72.482,179.473,126.054,309.849,171.167
			c43.39,15.003,84.148,45.546,129.175,55.006c50.767,10.672,135.955,22.055,179.779-13.821
			c61.255-50.157,8.606-114.168-26.86-164.718c-99.303-141.557-264.357-214.154-394.769-322.254
			c-142.59-118.191-196.435-265.76-299.058-412.658c-32.2-46.091-74.419-85.67-104.897-128.75
			c-41.025-57.99-76.809-116.278-128.101-167.231c-36.98-36.729-79.5-71.389-125.85-97.775c-0.039,0.453-0.077,0.906-0.116,1.359
			c-0.978,11.476-1.918,22.893-2.82,34.285c-0.062,0.772-0.123,1.545-0.184,2.317c-0.444,5.646-0.881,11.287-1.306,16.927
			c-0.037,0.485-0.072,0.971-0.109,1.456c-0.432,5.748-0.854,11.494-1.266,17.245c-0.008,0.099-0.015,0.198-0.021,0.298
			c-0.412,5.757-0.811,11.52-1.201,17.289c-0.047,0.692-0.094,1.384-0.14,2.077c-0.389,5.789-0.769,11.584-1.135,17.394
			c-0.006,0.1-0.013,0.199-0.019,0.299c-0.369,5.856-0.726,11.728-1.072,17.616c-0.021,0.372-0.044,0.743-0.065,1.115
			c-0.339,5.795-0.666,11.609-0.981,17.444c-0.017,0.298-0.032,0.597-0.049,0.896c41.727,33.424,79.861,73.982,113.059,109.986
			c99.668,108.091,171.582,241.808,247.277,365.745c35.279,57.729,71.229,123.289,119.144,170.8
			c54.621,54.177,124.893,99.6,168.15,163.048c-115.667-2.425-181.686-157.497-244.422-233.965
			c-90.13-109.858-167.703-212.439-237.755-336.984c-44.488-79.091-101.841-139.151-167.982-185.068c0,0.004,0,0.008,0,0.012
			c-0.031,0.758-0.061,1.554-0.089,2.368c-0.008,0.215-0.016,0.432-0.023,0.65c-0.028,0.823-0.056,1.666-0.082,2.543
			c-0.004,0.133-0.008,0.272-0.012,0.406c-0.023,0.792-0.046,1.607-0.068,2.441c-0.007,0.235-0.013,0.468-0.019,0.707
			c-0.024,0.938-0.048,1.898-0.07,2.885c-0.005,0.218-0.01,0.442-0.014,0.663c-0.02,0.866-0.037,1.751-0.055,2.654
			c-0.005,0.237-0.01,0.469-0.015,0.708c-0.02,1.035-0.038,2.096-0.056,3.177c-0.005,0.311-0.01,0.628-0.014,0.942
			c-0.016,0.96-0.029,1.935-0.043,2.929c-0.003,0.209-0.006,0.412-0.009,0.622c-0.015,1.146-0.028,2.319-0.041,3.508
			c-0.004,0.349-0.008,0.701-0.011,1.054c-0.013,1.182-0.023,2.378-0.034,3.601c-0.001,0.167-0.002,0.335-0.004,0.502
			c-0.009,1.167-0.017,2.356-0.024,3.558c-0.002,0.382-0.004,0.764-0.006,1.15c-0.008,1.277-0.014,2.569-0.019,3.884
			c-0.001,0.333-0.002,0.672-0.003,1.007c-0.003,1.1-0.006,2.212-0.008,3.337c0,0.409-0.001,0.816-0.002,1.229
			c-0.001,1.349-0.002,2.715-0.001,4.098c0,0.417,0.001,0.838,0.001,1.258c0.002,1.155,0.004,2.322,0.007,3.5
			c0.001,0.396,0.002,0.788,0.003,1.187c0.004,1.419,0.01,2.856,0.016,4.307c0.003,0.498,0.005,1,0.008,1.501
			c0.006,1.218,0.014,2.445,0.021,3.684c0.002,0.391,0.004,0.777,0.007,1.169c0.01,1.457,0.021,2.932,0.034,4.416
			c0.004,0.563,0.01,1.128,0.014,1.694c0.014,1.463,0.027,2.935,0.043,4.423c0.004,0.419,0.009,0.843,0.014,1.265
			c0.014,1.318,0.029,2.647,0.045,3.984c0.008,0.58,0.015,1.16,0.021,1.743c0.02,1.556,0.041,3.121,0.063,4.699
			c0.008,0.541,0.016,1.087,0.024,1.63c0.018,1.244,0.036,2.495,0.057,3.752c0.009,0.582,0.018,1.161,0.027,1.746
			c0.026,1.603,0.054,3.217,0.083,4.841c0.011,0.63,0.022,1.265,0.034,1.898c0.022,1.248,0.046,2.502,0.071,3.761
			c0.011,0.587,0.021,1.172,0.034,1.762c0.032,1.645,0.067,3.302,0.103,4.966c0.015,0.669,0.029,1.342,0.044,2.015
			c0.03,1.339,0.061,2.684,0.092,4.034c0.017,0.744,0.034,1.489,0.053,2.236c0.035,1.475,0.071,2.957,0.108,4.444
			c0.019,0.703,0.036,1.407,0.055,2.113c0.041,1.6,0.084,3.205,0.128,4.818c0.019,0.684,0.038,1.37,0.057,2.056
			c0.038,1.348,0.076,2.699,0.115,4.054c0.021,0.711,0.042,1.423,0.063,2.137c0.051,1.737,0.104,3.48,0.159,5.23
			c0.021,0.665,0.042,1.333,0.063,2c0.042,1.315,0.085,2.634,0.129,3.956c0.023,0.715,0.047,1.43,0.071,2.146
			c0.059,1.74,0.119,3.485,0.181,5.234c0.027,0.753,0.055,1.509,0.082,2.264c0.047,1.327,0.096,2.656,0.146,3.987
			c0.024,0.667,0.049,1.334,0.074,2.003c0.066,1.758,0.136,3.521,0.205,5.287c0.032,0.796,0.064,1.592,0.096,2.389
			c0.059,1.45,0.119,2.902,0.18,4.357c0.035,0.848,0.071,1.696,0.107,2.545c0.063,1.489,0.129,2.981,0.194,4.474
			c0.035,0.793,0.07,1.586,0.106,2.38c0.079,1.769,0.16,3.539,0.242,5.311c0.033,0.706,0.067,1.412,0.102,2.118
			c0.063,1.335,0.127,2.67,0.192,4.006c0.039,0.794,0.077,1.587,0.117,2.382c0.089,1.784,0.179,3.568,0.271,5.353
			c0.04,0.771,0.08,1.542,0.121,2.313c0.067,1.293,0.137,2.586,0.206,3.88c0.042,0.775,0.084,1.551,0.126,2.326
			c0.098,1.778,0.197,3.557,0.299,5.335c0.045,0.792,0.091,1.583,0.136,2.374c0.08,1.384,0.162,2.767,0.244,4.15
			c0.037,0.633,0.076,1.265,0.115,1.897C4475.953,2563.345,4521.378,2706.05,4622.46,2820.26z" style="stroke:black;fill:#ece754"/><path id="180643147" parent_id="180643107" order="37" structure_id="1009" d="M3929.666,3830.899
			c16.155-31.234,79.669-13.229,63.011,22.21C3978.712,3882.832,3905.12,3878.379,3929.666,3830.899z" style="stroke:black;fill:#cccccc"/><path id="180643148" parent_id="180643107" order="38" structure_id="1009" d="M3599.375,5499.033
			c70.834,65.698,41.536,159.601,130.969,195.613c108.498,43.689,262.707,37.334,375.202,31.137
			c99.512-5.479,348.134-43.657,456.641-63.6c86.396-15.883-139.112-265.353-169.773-307.209
			c-59.671-81.485-205.167-157.952-205.167-157.952c-69.853-112.949-222.903-153.817-309.011-260.56
			c-53.738-66.609-82.542-153.084-131.231-203.504c-45.506-47.146-113.707-62.408-190.504-81.459l40,767L3599.375,5499.033z" style="stroke:black;fill:#cccccc"/><path id="180643149" parent_id="180643107" order="39" structure_id="1009" d="M5589.354,5147.849
			c-32.859,33.868-104.682,102.63-166.993,155.087c-51.329,43.221-91.774,71.085-115.975,87.471
			c-29.794,20.171-92.854,68.547-190.382,118.87c-64.037,33.037-132.098,55.432-182.824,71.419
			c-68.006,21.447-105.185,25.654-63.048-25.935c14.884-18.224,272.21-98.49,331.781-186.835
			c59.812-88.686-109.235-141.32-63.95-197.572c18.13-22.51,123.923,27.114,156.817,24.033
			c108.171-10.127,177.686-87.935,237.563-169.691c47.35-64.654,56.294-176.662,115.304-272.965
			c33.002-53.852,64.576-84.892,83.475-120.449c28.168-53.043,9.006-98.063,7.895-199.079
			c-1.435-129.395,16.945-295.054-33.572-444.839c-29.844-88.499-98.918-151.748-166.501-218.55
			c-48.204-47.642-123.299-83.505-181.343-124.087c-61.366-42.903-106.037-90.075-169.805-123.739
			c-128.042-67.587-224.025-57.053-357.486-12.513c-39.336,13.122-267.998,89.354-247.603-14.263
			c9.345-47.415,70.961-82.364,111.785-98.686c97.956-39.147,214.054-67.877,319.259-47.481
			c141.208,27.377,274.08,87.605,420.561,87.944c16.813,0.082,42.384,89.883,56.604,106.786
			c39.045,46.402,101.406,80.702,151.568,114.049c135.913,90.374,193.325,237.972,230.084,386.59
			c56.72,229.371,102.489,352.787-9.364,629.735C5805.057,4817.116,5692.242,5041.776,5589.354,5147.849z" style="stroke:black;fill:#cccccc"/><path id="180643150" parent_id="180643107" order="40" structure_id="1009" d="M4198.193,2940.917
			c-108.251,32.8-220.159,23.688-331.482,19.303c-38.575-1.516-393.071-3.438-395.204,6.525
			c-2.407,11.245-1.893,32.082,2.077,42.925c-7.737-21.114,262.94-2.69,277.083-2.93c88.409-1.483,177.535,7.679,266.063,5.445
			c68.014-1.709,141.684-25.509,208.57-38.525c61.076-11.875,127.261-20.2,189.488-21.295
			c47.647-0.842,96.532,18.309,144.574,14.008C4537.83,2790.774,4289.081,2913.373,4198.193,2940.917z" style="stroke:black;fill:#cccccc"/><path id="180643151" parent_id="180643107" order="41" structure_id="1009" d="M3418.941,2038.396
			c52.776,13.775,126.008,7.833,181.404,7.436c119.651-0.861,219.761,29.828,330.489,42.971
			c241.952,28.716,473.299,99.685,600.155,325.207c70.052,124.544,147.625,227.125,237.755,336.984
			c62.736,76.469,128.755,231.541,244.422,233.965c-43.258-63.448-113.529-108.871-168.15-163.048
			c-47.914-47.511-83.864-113.071-119.144-170.8c-75.695-123.937-147.609-257.654-247.277-365.745
			c-57.664-62.539-130.218-138.824-210.63-167.578c-95.128-34.026-200.177-41.348-299.372-56.997
			c-121.599-19.181-241.796-43.222-365.224-47.752c-60.994-2.241-127.507,2.367-186.497-14.398L3418.941,2038.396z" style="stroke:black;fill:#cccccc"/><path id="180643152" parent_id="180643107" order="42" structure_id="1009" d="M3386.833,1372.667
			c4.956-1.898,3.614-1.127,8.701-2.175c38.004-7.825,79.302,5.741,118.484,5.659c61.795-0.13,122.812,1.596,184.258,8.111
			c56.771,6.021,104.994,27.512,160.226,37.184c32.803,5.742,67.174,8.68,101.038,15.205
			c71.829,13.844,144.886,18.36,217.809,22.509c26.8,1.521,58.518-2.818,84.244,1.395c30.322,4.966,56.157,24.627,87.062,27.364
			c92.517,8.177,167.41,4.568,247.752,58.009c66.217,44.051,114.719,110.092,169.467,166.258
			c63.652,65.308,123.057,136.169,183.479,204.334c94.768,106.903,207.403,196.482,304.176,301.441
			c39.563,42.91,74.858,92.245,109.204,138.929c11.415,15.51,122.361,118.045,122.043,120.89
			c5.408-49.331-44.057-91.549-67.411-130.7c-26.034-43.616-56.333-78.948-92.856-117.676
			c-93.808-99.453-220.113-176.522-304.729-282.002c-102.104-127.284-243.796-220.245-350.415-344.025
			c-47.343-54.945-80.081-88.382-150.908-111.656c-78.152-25.677-153.997-51.289-235.742-53.085
			c-107.114-2.361-217.262-6.189-323.293-21.902c-60.001-8.898-121.089-18.556-182.156-30.683
			c-71.191-14.146-130.979-0.65-202.224-4.496c-62.923-3.408-118.96-20.959-180.039-20.9c-8.949,0.009,0.368-0.185-8.835,0.68
			C3386.167,1361.333,3387,1367.667,3386.833,1372.667z" style="stroke:black;fill:#cccccc"/><path id="180643146" parent_id="180643107" order="43" structure_id="164" d="M3525.612,4081.496l0.004,0.158l4.206,80.823
			c0,0-1.255,1.269,0,0c7.026-7.1,30.265-31.853,31.13-49.513C3561.979,4092.141,3525.612,4081.496,3525.612,4081.496z" style="stroke:black;fill:#aaaaaa"/></g>
</g>
</svg>