<?xml version="1.0" encoding="utf-8"?>
<!-- Generator: Adobe Illustrator 16.0.0, SVG Export Plug-In . SVG Version: 6.00 Build 0)  -->
<!DOCTYPE svg PUBLIC "-//W3C//DTD SVG 1.1//EN" "http://www.w3.org/Graphics/SVG/1.1/DTD/svg11.dtd">
<svg version="1.1" id="Layer_1" xmlns="http://www.w3.org/2000/svg" xmlns:xlink="http://www.w3.org/1999/xlink" x="0px" y="0px"
	 width="9744.01px" height="6823.46px" viewBox="0 0 9744.01 6823.46" enable-background="new 0 0 9744.01 6823.46"
	 xml:space="preserve">
<g transform="scale(1.0)">
	<g id="_x31_80627418" transform=" scale(1.0, 1.0)">
		<path id="_x31_80627420" fill="none" stroke="#010101" stroke-width="64" d="M4906.312,2265.705l1.32-1442.374
			c105.817-77.151,229.734-170.947,283.24-195.875c201.299-93.805,427.949-38.909,641.309-31.342
			c153.986,5.472,332.433,45.024,480.893,68.066c110.191,17.091,182.819,36.775,280.497,54.305
			c107.685,19.336,203.979,53.394,308.026,87.618c221.624,72.875,359.628,143.229,634.75,285.949
			c508.672,263.884,878.146,615.757,1119.923,1145.125c19.988,43.782,22.595,86.891,44.965,131.146
			c178.156,352.442,320.926,771.161,268.227,1160.204c-15.634,115.479-22.77,247.787-90.546,403.121
			c-43.276,99.157-104.718,198.104-136.792,299.069c-58.559,184.359-84.777,367.676-187.081,516.129
			c-186.888,271.153-358.717,566.654-524.762,857.256c-61.48,107.586-191.331,220.564-314.248,322.212
			c-71.585,59.206-136.498,120.534-195.53,159.019c-170.268,110.975-347.381,13.581-535.217,91.066
			c-163.319,67.371-214.998,131.59-394.967,138.77c-117.331,4.689-206.671,9.521-321.241-18.504
			c-41.68-10.186-50.724-70.871-65.664-96.146c-24.142-40.816-143.189-63.562-242.299-65.604
			c-62.734-1.306-364.948-26.494-387.049,30.418c-22.6,58.23-75.283,61.526-217.996,67.655
			c-112.727,4.844-310.613,9.137-453.405,10.373L4906.312,2265.705z"/>
		<path id="_x31_80627421" fill="none" stroke="#010101" stroke-width="64" d="M6313.076,664.181
			c-148.454-23.027-326.893-62.596-480.895-68.066c-213.357-7.567-440.007-62.463-641.309,31.343
			c-53.121,24.743-177.418,118.722-283.238,195.875l-1.343,1452.697c96.633,2.713,160.339-5.854,249.802-11.652
			c129.93-8.424,260.129-98.357,294.542-124.589c53.89-41.085,84.598-100.978,115.981-149.945
			c41.875-65.326,88.451-126.315,207.261-126.238c117.648,0.085,325.431,54.538,433.43,84.262
			c127.72,35.169,212.717,61.514,346.063,106.789c158.682,53.876,296.214,107.182,466.202,201.492
			c126.206,70.024,250.824,172.29,357.014,276.433c78.661,77.147,141.146,159.692,186.579,218.978
			c218.923,285.688,307.013,607.599,360.281,797.891c21.008,75.019,46.424,149.241,53.181,239.127
			c5.295,70.42,6.113,154.201-4.263,213.774c-20.01,114.963-32.474,200.956-54.439,297.396
			c-20.759,91.092-36.8,138.6-67.851,226.247c-37.445,105.728-94.074,219.463-133.95,284.204
			c-80.931,131.359-192.904,225.352-301.733,328.447c-65.312,61.894-114.762,133.195-170.468,203.282
			c-53.205,66.921-137.754,126.622-172.478,206.405c-40.85,93.835,10.699,155.907,39.298,242.463
			c32.795,99.275,65.009,195.715,113.983,288.092c36.401,68.638,80.896,68.198,155.463,58.438
			c47.435-6.206,94.075-21.846,140.317-51.992c59.032-38.481,123.944-99.809,195.528-159.019
			c122.915-101.644,252.769-214.626,314.249-322.21c166.044-290.604,337.876-586.104,524.762-857.254
			c102.303-148.457,128.522-331.771,187.085-516.133c32.073-100.965,93.514-199.906,136.79-299.066
			c67.772-155.335,74.912-287.645,90.543-403.124c52.446-387.203-93.814-819.335-268.224-1160.204
			c-23.53-45.993-26.103-93.447-46.842-138.866c-241.772-529.368-609.377-873.52-1118.048-1137.402
			c-275.119-142.719-413.127-213.075-634.749-285.95c-104.043-34.222-200.343-68.279-308.024-87.618
			C6495.895,700.955,6423.269,681.271,6313.076,664.181z"/>
		<path id="_x31_80627507" fill="none" stroke="#010101" stroke-width="64" d="M6365.491,800.208
			c-11.496-1.139-22.994-2.355-34.417-3.728c-78.146-9.536-146.2-41.602-222.089-56.11
			c-169.058-32.274-341.065-43.942-512.391-57.701l0.093-104.07c78.979,5.818,158.104,14.806,235.43,17.542
			c154.051,5.478,332.494,45.02,480.896,68.032c29,4.472,55.377,9.194,80.248,13.853l-0.081,0.311L6365.491,800.208z"/>
		<path id="_x31_80627506" fill="none" stroke="#010101" stroke-width="64" d="M6289.809,1133.489
			c-75.044-27.825-136.574-47.874-185.031-67.107c-143.18-56.871-296.975-96.781-447.994-126.968
			c-18.862-3.782-39.224-8.017-60.412-11.857l0.227-244.889c171.327,13.76,343.334,25.427,512.391,57.703
			c75.886,14.507,143.943,46.572,222.089,56.108c11.423,1.372,22.92,2.587,34.419,3.729l-74.1,326.305L6289.809,1133.489z"/>
		<path id="_x31_80627505" fill="none" stroke="#010101" stroke-width="64" d="M6289.809,1133.489l-105.857,466.162
			c-153.25-59.414-306.877-120.681-467.133-159.531c-39.596-9.638-81.076-12.84-120.91-9.015l0.463-503.548
			c21.191,3.84,41.55,8.075,60.412,11.857c151.02,30.187,304.814,70.097,447.994,126.968
			C6153.234,1085.616,6214.762,1105.665,6289.809,1133.489z"/>
		<path id="_x31_80627504" fill="none" stroke="#010101" stroke-width="64" d="M6110.902,1845.248
			c-116.449-31.492-285.786-88.521-407.625-66.115c-49.003,9.01-80.886,28.089-107.74,56.717l0.369-404.744
			c39.836-3.826,81.316-0.624,120.91,9.014c160.26,38.85,313.882,100.118,467.132,159.532l-56.817,250.022
			C6121.725,1848.17,6116.313,1846.669,6110.902,1845.248z"/>
		<path id="_x31_80627503" fill="none" stroke="#010101" stroke-width="64" d="M6110.305,1923.09
			c-108.188-27.695-245.984-59.001-332.102-59.029c-94.168-0.119-144.924,34.368-182.765,81.118l0.099-109.329
			c26.854-28.628,58.737-47.708,107.74-56.718c121.839-22.41,291.173,34.623,407.625,66.115c5.411,1.422,10.825,2.921,16.23,4.424
			l-15.695,69.076L6110.305,1923.09z"/>
		<path id="_x31_80627512" fill="none" stroke="#010101" stroke-width="64" d="M5583.672,681.618
			c-119.104-9.649-255.88-3.439-358.903,67.012c-37.374,25.546-75.349,56.049-107.548,91.224l-54.668-129.514
			c53.468-38.296,100.392-69.962,128.283-82.892c128.336-59.836,266.985-59.177,405.85-48.848l-0.094,104.068
			C5592.311,682.318,5587.951,681.968,5583.672,681.618z"/>
		<path id="_x31_80627511" fill="none" stroke="#010101" stroke-width="64" d="M5596.371,927.557
			c-78.82-14.253-169.065-22.758-234.414,20.828c-62.26,41.545-100.273,110.348-121.91,182.493l-122.826-291.023
			c32.199-35.175,70.173-65.676,107.548-91.224c103.021-70.449,239.8-76.662,358.903-67.012c4.278,0.348,8.639,0.699,12.926,1.05
			L5596.371,927.557z"/>
		<path id="_x31_80627510" fill="none" stroke="#010101" stroke-width="64" d="M5595.906,1431.106
			c-75.531,7.386-145.146,40.561-184.888,105.046l-170.968-405.2l-0.001-0.075c21.634-72.145,59.646-140.947,121.909-182.493
			c65.347-43.586,155.594-35.082,234.412-20.83L5595.906,1431.106z"/>
		<path id="_x31_80627509" fill="none" stroke="#010101" stroke-width="64" d="M5595.537,1835.851
			c-13.236,14.041-25.278,30.315-37.473,48.836l-147.049-348.535c39.742-64.486,109.359-97.659,184.889-105.045L5595.537,1835.851z"
			/>
		<path id="_x31_80627508" fill="none" stroke="#010101" stroke-width="64" d="M5558.064,1884.687
			c12.194-18.521,24.232-34.795,37.473-48.836l-0.099,109.331c-2.632,3.197-5.188,6.466-7.674,9.817L5558.064,1884.687z"/>
		<path id="_x31_80627490" fill="none" stroke="#010101" stroke-width="64" d="M8063.319,1561.902
			c-98.201-98.575-233.697-181.046-354.93-247.082c-57.537-31.305-115.824-59.816-174.488-87.781l51.197-107.683l0.604-1.164
			c482.973,260.056,831.059,593.391,1064.906,1105.517c18.148,39.69,36.485,122.786,58.093,161.984
			c28.361,51.359,53.937,104.838,77.558,159.799c0,0,0,0,0.001,0.08l-0.078-0.002l-93.294,38.719
			c-37.719-87.338-79.05-172.789-104.439-267.428c-38.569-143.887-109.252-260.963-185.416-386.58
			c-53.722-88.593-123.479-151.204-204.06-211.709C8141.223,1675.199,8112.573,1611.306,8063.319,1561.902z"/>
		<path id="_x31_80627489" fill="none" stroke="#010101" stroke-width="64" d="M8037.117,1947.757
			c-60.885-69.111-117.556-141.817-190.771-199.679c-47.534-37.655-98.839-66.613-148.404-100.694
			c-90.271-61.969-184.832-119.802-281.426-173.594l-0.001-0.075l117.387-246.675c58.664,27.964,116.951,56.477,174.489,87.779
			c121.231,66.037,256.728,148.506,354.929,247.083c49.254,49.4,77.903,113.295,135.653,156.67
			c80.581,60.504,150.338,123.116,204.06,211.709c76.164,125.618,146.847,242.692,185.416,386.581
			c25.395,94.639,66.721,180.089,104.439,267.428l-212.376,88.032c-27.01-49.29-55.15-97.327-80.577-143.452
			c-63.549-115.357-89.731-245.89-167.787-354.545C8173.154,2092.12,8103.479,2023.01,8037.117,1947.757z"/>
		<path id="_x31_80627488" fill="none" stroke="#010101" stroke-width="64" d="M7890.348,2031.505
			c-67.945-70.052-140.861-127.764-216.331-190.093c-44.306-36.678-114.081-77.161-165.834-106.503
			c-56.708-32.24-114.244-62.612-172.23-91.9l80.563-169.217c96.594,53.792,191.154,111.623,281.426,173.594
			c49.565,34.08,100.87,63.039,148.404,100.696c73.217,57.862,129.887,130.566,190.771,199.675
			c66.362,75.252,136.037,144.365,195.03,226.566c78.054,108.657,104.238,239.19,167.787,354.546
			c25.427,46.127,53.567,94.165,80.577,143.453l-164.564,68.192c-64.934-79.056-134.069-160.088-157.649-262.094
			C8117.652,2302.438,8011.825,2156.885,7890.348,2031.505z"/>
		<path id="_x31_80627487" fill="none" stroke="#010101" stroke-width="64" d="M8044.249,2853.12
			c-47.662-141.026-104.199-277.49-184.276-397.039c-63.338-94.619-141.412-182.074-234.313-246.497
			c-79.307-55.023-169.827-92.462-251.544-143.986c-66.994-42.206-129.033-77.648-187.923-107.781v-0.078l149.763-314.731
			c57.986,29.286,115.524,59.661,172.23,91.899c51.752,29.344,121.526,69.825,165.832,106.504
			c75.469,62.331,148.388,120.04,216.333,190.094c121.477,125.377,227.302,270.932,267.949,446.913
			c23.579,102.007,92.717,183.039,157.649,262.094L8044.249,2853.12z"/>
		<path id="_x31_80627486" fill="none" stroke="#010101" stroke-width="64" d="M8044.249,2853.12l-255.901,106.121l-0.076,0.001
			c-5.701-10.547-11.554-21.099-17.556-31.57c-158.01-277.565-362.151-486.877-625.012-661.946
			c-27.11-18.101-54.299-35.275-81.49-51.677l121.976-256.232c58.89,30.135,120.932,65.576,187.926,107.782
			c81.715,51.523,172.234,88.962,251.543,143.985c92.9,64.424,170.977,151.876,234.314,246.499
			C7940.05,2575.63,7996.587,2712.094,8044.249,2853.12z"/>
		<path id="_x31_80627485" fill="none" stroke="#010101" stroke-width="64" d="M7788.271,2959.242l-69.613,28.845l-2.856,1.649
			c-42.538-81.105-92.813-161.835-152.641-238.151l-14.109-17.983c-52.918-67.861-125.431-160.78-215.983-242.093
			c-103.918-93.343-203.277-167.847-295.36-221.753l0.302-0.544l26.203-55.16c27.19,16.4,54.376,33.575,81.488,51.677
			c262.865,175.068,467.004,384.38,625.015,661.945C7776.718,2938.143,7782.57,2948.692,7788.271,2959.242z"/>
		<path id="_x31_80627502" fill="none" stroke="#010101" stroke-width="64" d="M6819.231,893.932
			c-85.2-23.018-171.376-42.853-255.825-66.187c-64.684-17.931-131.565-21.071-197.913-27.537l27.69-121.87l0.077-0.312
			c69.876,13.402,128.328,27.519,200.311,40.437c91.065,16.393,174.006,43.221,260.4,71.875l0.003,0.078L6819.231,893.932z"/>
		<path id="_x31_80627501" fill="none" stroke="#010101" stroke-width="64" d="M6723.08,1179.961
			c-18.707-6.261-37.41-12.52-56.194-18.779c-72.795-24.362-308.522-127.862-369.329-33.253l-6.16-1.416l74.098-326.306
			c66.352,6.467,133.231,9.606,197.917,27.539c84.447,23.333,170.623,43.17,255.822,66.186L6723.08,1179.961z"/>
		<path id="_x31_80627500" fill="none" stroke="#010101" stroke-width="64" d="M6679.978,1308.155
			c-44.164-21.979-88.789-43.334-133.254-65.002c-98.703-48.203-184.191-82.589-256.913-109.663l1.586-6.977l6.16,1.415
			c60.807-94.609,296.529,8.892,369.329,33.253c18.784,6.259,37.487,12.519,56.194,18.78L6679.978,1308.155z"/>
		<path id="_x31_80627499" fill="none" stroke="#010101" stroke-width="64" d="M6538.989,1727.963
			c-37.338-13.684-75.426-27.436-114.188-40.176c-80.764-26.539-160.694-57.107-240.85-88.137l105.859-466.163
			c72.722,27.073,158.21,61.462,256.913,109.664c44.466,21.667,89.089,43.022,133.254,65.002l-0.002,0.077L6538.989,1727.963z"/>
		<path id="_x31_80627498" fill="none" stroke="#010101" stroke-width="64" d="M6464.314,1950.127
			c-112.914-37.245-228.918-70.984-337.185-100.456l56.818-250.02c80.158,31.031,160.088,61.598,240.851,88.139
			c38.765,12.739,76.853,26.493,114.188,40.175L6464.314,1950.127z"/>
		<path id="_x31_80627497" fill="none" stroke="#010101" stroke-width="64" d="M6441.325,2018.571
			c-75.126-24.344-143.04-44.879-227.94-67.974c-27.648-7.501-63.409-17.25-103.077-27.433l-0.003-0.074l1.134-4.342l15.691-69.077
			c108.268,29.475,224.268,63.212,337.185,100.456l-22.307,66.349L6441.325,2018.571z"/>
		<path id="_x31_80627496" fill="none" stroke="#010101" stroke-width="64" d="M7533.898,1227.039
			c-47.624-22.725-95.551-45.057-143.396-68.165c-128.226-61.951-242.745-150.948-376.013-202.721
			c-63.555-24.672-129.14-44.455-195.256-62.221l34.739-103.517l-0.001-0.078c15.701,5.204,31.552,10.482,47.628,15.759
			c221.622,72.907,359.609,143.281,634.751,285.981c16.6,8.599,33.05,17.279,49.35,26.114l-0.604,1.164L7533.898,1227.039z"/>
		<path id="_x31_80627495" fill="none" stroke="#010101" stroke-width="64" d="M7416.515,1473.714
			c-60.538-33.753-121.984-65.953-183.58-96.601c-166.227-82.591-335.864-139.156-509.854-197.152l96.151-286.03
			c66.115,17.767,131.701,37.55,195.255,62.223c133.271,51.773,247.787,140.769,376.013,202.72
			c47.85,23.109,95.775,45.439,143.397,68.165L7416.515,1473.714z"/>
		<path id="_x31_80627494" fill="none" stroke="#010101" stroke-width="64" d="M7335.955,1643.008
			c-139.195-70.369-281.092-134.833-420.653-205.506c-55.512-28.149-113.037-65.64-167.044-94.267
			c-22.609-11.954-45.367-23.594-68.278-35.003v-0.076l43.104-128.194c173.99,57.996,343.629,114.56,509.855,197.151
			c61.595,30.649,123.042,62.849,183.579,96.602l0.001,0.077L7335.955,1643.008z"/>
		<path id="_x31_80627493" fill="none" stroke="#010101" stroke-width="64" d="M7186.192,1957.74
			c-151.285-77.381-281.776-120.201-421.447-154.896c-71.975-17.869-147.249-46.157-225.756-74.881l140.989-419.734
			c22.913,11.408,45.67,23.049,68.278,35.004c54.008,28.626,111.536,66.118,167.045,94.268
			c139.562,70.672,281.458,135.138,420.653,205.506L7186.192,1957.74z"/>
		<path id="_x31_80627492" fill="none" stroke="#010101" stroke-width="64" d="M7064.214,2214.051
			c-125.882-75.743-253.801-134.758-393.608-189.879c-65.806-25.969-135.448-50.668-206.289-74.044l74.673-222.164
			c78.506,28.723,153.781,57.012,225.756,74.879c139.673,34.696,270.163,77.517,421.447,154.897v0.076L7064.214,2214.051z"/>
		<path id="_x31_80627491" fill="none" stroke="#010101" stroke-width="64" d="M7014.498,2256.494
			c-169.67-94.168-301.289-146.188-458.527-199.607c-41.546-14.11-78.957-26.63-114.643-38.237l-0.003-0.078l0.681-2.096
			l22.306-66.347c70.842,23.373,140.486,48.074,206.291,74.043c139.805,55.121,267.728,114.135,393.61,189.879l-26.203,55.158
			l-0.302,0.545C7029.898,2265.183,7022.159,2260.76,7014.498,2256.494z"/>
		<path id="_x31_80627484" fill="none" stroke="#010101" stroke-width="64" d="M8960.313,3602.146l-4.659-0.579l-0.073,0.003
			l-146.386-9.025c9.717-104.383,67.22-197.342,64.312-306.566c-3.415-128.415-60.579-238.718-82.936-361.779
			c-14.652-80.807-29.91-163.002-57.645-240.136c-12.143-33.862-25.867-66.937-40.039-99.777l93.294-38.717h0.078
			c31.422,73.079,59.308,148.817,85.538,225.579c83.343,244.089,132.029,503.642,97.677,757.415
			C8966.222,3552.347,8963.423,3576.898,8960.313,3602.146z"/>
		<path id="_x31_80627483" fill="none" stroke="#010101" stroke-width="64" d="M8480.512,2672.319l212.376-88.032
			c14.172,32.84,27.896,65.915,40.039,99.777c27.734,77.133,42.992,159.327,57.645,240.136
			c22.356,123.061,79.521,233.364,82.936,361.779c2.908,109.224-54.595,202.183-64.312,306.566l-183.801-11.409
			c8.404-72.421,13.058-145.032,4.036-223.959c-16.327-142.844-4.921-289.721-39.965-429.771
			C8567.832,2840.857,8525.672,2754.797,8480.512,2672.319z"/>
		<path id="_x31_80627482" fill="none" stroke="#010101" stroke-width="64" d="M8315.947,2740.516l164.564-68.193
			c45.16,82.475,87.32,168.537,108.954,255.085c35.046,140.052,23.638,286.929,39.965,429.773
			c9.021,78.923,4.369,151.536-4.037,223.96l-109.336-6.718c-5.521-45.371-12.317-90.42-18.812-134.775
			c-14.342-97.679-17.555-200.637-26.854-299.283c-13.248-141.093-32.543-245.224-119.162-356.126
			C8339.818,2769.632,8327.956,2755.113,8315.947,2740.516z"/>
		<path id="_x31_80627481" fill="none" stroke="#010101" stroke-width="64" d="M8044.249,2853.12l271.698-112.607
			c12.009,14.599,23.871,29.119,35.278,43.723c86.618,110.901,105.914,215.033,119.165,356.123
			c9.3,98.649,12.511,201.607,26.851,299.286c6.496,44.354,13.295,89.404,18.815,134.773l-240.916-14.938
			c-30.74-79.357-58.695-160.975-85.824-241.128C8138.5,3168.609,8096.714,3008.109,8044.249,2853.12z"/>
		<path id="_x31_80627480" fill="none" stroke="#010101" stroke-width="64" d="M8044.249,2853.12
			c52.465,154.989,94.251,315.489,145.066,465.229c27.13,80.155,55.085,161.774,85.825,241.131l-268.415-16.563
			c24.683-38.976-21.07-136.147-44.232-198.467c-49.552-133.275-105.873-261.151-174.146-385.209L8044.249,2853.12z"/>
		<path id="_x31_80627479" fill="none" stroke="#010101" stroke-width="64" d="M7923.452,3549.44
			c-39.549-141.483-98.199-351.508-207.65-559.705l2.856-1.649l69.613-28.845l0.076-0.001
			c68.272,124.061,124.594,251.938,174.146,385.212c23.162,62.317,68.915,159.489,44.232,198.464
			c-10.236,16.261-32.716,22.409-74.112,11.708l-3.381,2.581l-0.001,0.077l-0.076,0.001L7923.452,3549.44z"/>
		<path id="_x31_80627473" fill="none" stroke="#010101" stroke-width="64" d="M8848.583,3996.4
			c-38.324,77.553-81.379,155.223-106.474,234.281l-169.28-36.064c26.868-44.494,53.888-88.746,81.284-133.091
			c18.36-29.713,37.024-59.281,54.718-89.141l0.071,0.003l136.075,22.111l0.075-0.001L8848.583,3996.4z"/>
		<path id="_x31_80627472" fill="none" stroke="#010101" stroke-width="64" d="M8531.909,3992.096
			c17.956,1.472,31.5-16.286,41.518-41.673l135.399,21.968c-17.687,29.859-36.353,59.426-54.715,89.141
			c-27.398,44.34-54.414,88.596-81.287,133.086l-120.438-25.652c21.138-24.396,36.119-53.623,49.374-83.76
			c14.984-34.092,25.155-62.187,26.613-93.234L8531.909,3992.096z"/>
		<path id="_x31_80627471" fill="none" stroke="#010101" stroke-width="64" d="M8573.427,3950.423
			c-10.018,25.39-23.562,43.147-41.518,41.673l-3.535-0.125c0.537-10.212,0.093-20.811-1.473-32.095
			c-0.82-5.948-1.494-11.745-2.087-17.312L8573.427,3950.423z"/>
		<path id="_x31_80627470" fill="none" stroke="#010101" stroke-width="64" d="M8283.333,4132.975
			c29.954-44.511,52.766-94.228,65.82-148.736c5.426-22.872,9.058-45.651,10.881-68.412l164.78,26.741
			c0.593,5.563,1.267,11.36,2.087,17.309c1.565,11.284,2.01,21.883,1.473,32.099c-1.458,31.044-11.626,59.142-26.609,93.23
			c-13.254,30.14-28.241,59.359-49.378,83.765L8283.333,4132.975z"/>
		<path id="_x31_80627469" fill="none" stroke="#010101" stroke-width="64" d="M8283.333,4132.975h-0.075l-167.4-35.689
			c2.865-9.081,5.43-18.226,7.618-27.534c13.05-55.511,18.29-114.438,16.388-171.37c-0.225-6.109-0.443-12.301-0.737-18.484
			l220.908,35.85l-0.003,0.08c-1.82,22.761-5.452,45.544-10.881,68.412C8336.102,4038.747,8313.287,4088.464,8283.333,4132.975z"/>
		<path id="_x31_80627478" fill="none" stroke="#010101" stroke-width="64" d="M8955.654,3601.567l4.659,0.579
			c-12.039,97.443-27.616,206.21-81.385,329.543c-9.416,21.595-19.731,43.11-30.346,64.711l-3.53-1.905l-0.075,0.001
			l-136.075-22.111c59.984-101.027,109.38-205.059,99.724-327.613c-1.414-17.781-1.096-35.193,0.569-52.229l146.386,9.025H8955.654z
			"/>
		<path id="_x31_80627477" fill="none" stroke="#010101" stroke-width="64" d="M8573.427,3950.423
			c14.087-35.792,21.045-86.685,23.104-120.747c5.344-88.252,19.47-168.299,28.863-248.54l183.801,11.409
			c-1.665,17.033-1.983,34.448-0.568,52.23c9.653,122.555-39.742,226.586-99.725,327.613l-0.073,0.002L8573.427,3950.423z"/>
		<path id="_x31_80627476" fill="none" stroke="#010101" stroke-width="64" d="M8573.427,3950.423l-48.612-7.855
			c-7.747-77.386,7.853-125.34,4.184-220.628c-1.907-49.189-6.748-98.521-12.941-147.521l109.337,6.718
			c-9.396,80.237-23.521,160.288-28.862,248.54C8594.472,3863.738,8587.514,3914.631,8573.427,3950.423z"/>
		<path id="_x31_80627475" fill="none" stroke="#010101" stroke-width="64" d="M8524.814,3942.567l-164.78-26.741v-0.08
			c7.752-92.912-12.981-184.422-50.025-270.684c-12.072-28.061-23.625-56.666-34.868-85.578l240.916,14.938
			c6.193,48.998,11.033,98.324,12.943,147.515C8532.667,3817.228,8517.067,3865.182,8524.814,3942.567z"/>
		<path id="_x31_80627474" fill="none" stroke="#010101" stroke-width="64" d="M8042.952,3617.738
			c-20.346-20.484-68.351-39.023-99.925-28.385c-1.871-7.029-3.74-13.975-5.69-20.923l-8.106-11.147v-0.077l3.382-2.581
			c41.397,10.704,63.875,4.553,74.111-11.706l268.417,16.562c11.243,28.916,22.796,57.521,34.865,85.582
			c37.046,86.256,57.78,177.768,50.028,270.684l-220.908-35.85c-1.105-24.21-3.114-48.568-8.648-72.113
			c-6.814-28.957-19.113-56.163-29.533-83.85C8086.85,3686.762,8071.333,3646.119,8042.952,3617.738z"/>
		<path id="_x31_80627516" fill="none" stroke="#010101" stroke-width="64" d="M5117.221,839.854
			c-23.543,25.658-43.936,53.846-58.769,84.38c-41.412,85.469-23.993,186.603-23.851,278.055
			c0.018,65.072-3.277,130.092-7.617,195.046l-109.84-115.651l-9.994,0.084l0.42-458.44
			c50.762-36.959,105.653-77.821,154.985-112.988L5117.221,839.854z"/>
		<path id="_x31_80627517" fill="none" stroke="#010101" stroke-width="64" d="M5058.455,924.235
			c14.832-30.535,35.225-58.721,58.769-84.381l122.826,291.024l0.001,0.077c-6.107,20.324-10.857,40.871-14.486,61.096
			c-18.2,101.207-36.195,218.196-30.354,320.589c1.26,22.195,2.89,44.466,4.675,66.812l-172.904-182.037v-0.076
			c4.345-64.956,7.638-129.976,7.618-195.048C5034.459,1110.837,5017.043,1009.704,5058.455,924.235z"/>
		<path id="_x31_80627515" fill="none" stroke="#010101" stroke-width="64" d="M5372.641,1761.41l-172.754-181.883l-0.002-0.077
			c-1.781-22.347-3.414-44.616-4.674-66.812c-5.841-102.392,12.153-219.384,30.354-320.588c3.629-20.225,8.381-40.772,14.486-61.098
			l170.968,405.198c-12.039,19.603-21.377,42.123-27.266,67.629C5371.758,1655.88,5369.68,1708.589,5372.641,1761.41z"/>
		<path id="_x31_80627514" fill="none" stroke="#010101" stroke-width="64" d="M5411.02,1536.153l147.049,348.535
			c-8.801,13.229-17.761,27.7-27.316,43.255l-158.112-166.455l0.001-0.078c-2.961-52.82-0.879-105.529,11.112-157.63
			C5389.642,1578.276,5398.977,1555.754,5411.02,1536.153z"/>
		<path id="_x31_80627513" fill="none" stroke="#010101" stroke-width="64" d="M5572.871,1972.378l-42.121-44.358l0.002-0.076
			c9.556-15.557,18.516-30.025,27.316-43.256l29.696,70.309l0.001,0.076c-4.59,5.998-8.952,12.226-13.168,18.53L5572.871,1972.378z"
			/>
		<path id="_x31_80627522" fill="none" stroke="#010101" stroke-width="64" d="M5028.164,2238.067
			c-43.436,0.375-106.35,19.489-119.137,28.264l-2.78-0.596l0.903-983.967l9.994-0.086l109.837,115.652v0.078
			c-4.496,68.513-10.197,137.039-14.165,205.548c-9.313,158.462-14.704,300.334,3.338,458.176
			c6.261,54.805,9.139,111.031,21.643,164.774L5028.164,2238.067z"/>
		<path id="_x31_80627521" fill="none" stroke="#010101" stroke-width="64" d="M5070.682,2260.292
			c0.166-16.715-18.089-22.435-42.518-22.224l9.635-12.153c-12.502-53.743-15.381-109.97-21.645-164.775
			c-18.042-157.841-12.65-299.713-3.334-458.176c3.967-68.509,9.668-137.033,14.167-205.548l172.898,182.036l0.001,0.076
			c4.531,55.746,10.344,111.716,15.704,167.378c15.554,161.652,52.159,322.584,38.858,486.189l2.397,8.183
			c-27.964,9.138-57.054,15.889-86.063,18.77c-37.353,3.649-83.652,9.93-127.012,13.863
			C5059.548,2271.375,5070.601,2267.177,5070.682,2260.292z"/>
		<path id="_x31_80627520" fill="none" stroke="#010101" stroke-width="64" d="M5412.471,2165.109
			c-38.646,25.248-94.512,56.296-155.629,76.166l-2.396-8.183c13.301-163.605-23.301-324.536-38.857-486.188
			c-5.362-55.663-11.172-111.631-15.703-167.377l172.752,181.883v0.077c5.03,88.857,24.561,177.979,35.529,264.694
			c5.818,45.523,7.209,88.841,1.681,134.615L5412.471,2165.109z"/>
		<path id="_x31_80627519" fill="none" stroke="#010101" stroke-width="64" d="M5456.992,2132.845
			c-9.027,7.664-24.44,19.169-44.52,32.263l-2.625-4.309c5.53-45.775,4.141-89.093-1.68-134.615
			c-10.969-86.717-30.498-175.839-35.528-264.695l158.112,166.455l-0.002,0.078c-0.527,0.854-1.051,1.71-1.58,2.566
			c-5.944,9.567-48.277,118.336-23.117,133.59l0.076,0.002l7.812,4.96C5497.986,2091.792,5479.854,2113.538,5456.992,2132.845z"/>
		<path id="_x31_80627518" fill="none" stroke="#010101" stroke-width="64" d="M5530.75,1928.02l42.121,44.358l1.727,1.225
			c-9.106,13.54-17.761,27.698-26.418,41.933c-10.836,17.812-21.898,35.937-34.238,53.606l-7.811-4.96h-0.074
			c-25.164-15.258,17.172-124.022,23.117-133.591C5529.699,1929.733,5530.223,1928.875,5530.75,1928.02z"/>
		<path id="_x31_80627468" fill="none" stroke="#010101" stroke-width="64" d="M8657.53,4512.745
			c-69.327-40.025-141.888-74.759-216.71-103.051l3.013-8.149c17.936-56.714,64.718-99.594,94.674-149.684
			c11.439-19.131,22.805-38.189,34.322-57.244l169.28,36.064c-56.756,178.605-83.146,356.173-177.738,502.141
			C8608.019,4664.592,8632.963,4589.867,8657.53,4512.745z"/>
		<path id="_x31_80627467" fill="none" stroke="#010101" stroke-width="64" d="M8440.82,4409.694
			c-48.909-18.607-98.865-34.347-149.507-47.14c-9.915-2.468-22.913-5.686-37.414-8.73l4.602-21.627
			c63.926-49.99,131.752-97.699,188.091-156.836c1.957-2.109,3.914-4.215,5.795-6.398l120.442,25.654
			c-11.518,19.055-22.883,38.113-34.322,57.244c-29.96,50.086-76.738,92.97-94.674,149.684L8440.82,4409.694z"/>
		<path id="_x31_80627466" fill="none" stroke="#010101" stroke-width="64" d="M8119.757,4353.127l-130.54,2.055
			c116-43.482,224.433-118.929,294.041-222.207h0.075l169.054,35.99c-1.881,2.184-3.836,4.291-5.795,6.396
			c-56.339,59.137-124.165,106.846-188.09,156.839l-4.603,21.628C8209.566,4344.535,8150.808,4336.532,8119.757,4353.127z"/>
		<path id="_x31_80627465" fill="none" stroke="#010101" stroke-width="64" d="M7902.486,4367.766
			c5.956-23.108,11.091-45.822,15.394-68.066l6.339-30.614l9.282-44.887c-4.981,26.512-10.189,52.938-15.85,79.528
			c0.827-4.185,37.51-12.396,42.996-14.529c28.493-11.387,59.843-24.12,81.509-47.287c20.084-21.369,33.861-52.518,46.813-78.782
			c10.465-21.292,19.729-43.269,26.809-65.841l0.079-0.005l167.4,35.69c-69.608,103.277-178.041,178.724-294.041,222.205
			l-1.58,5.352c-24.642-7.216-49.815-8.699-71.389-2.166c-0.749,0.236-1.428,0.477-2.18,0.717
			C7908.954,4360.752,7905.269,4363.802,7902.486,4367.766z"/>
		<path id="_x31_80627422" fill="none" stroke="#010101" stroke-width="64" d="M8453.854,4414.706
			c-4.337-1.687-8.681-3.358-13.033-5.012c-35.336-13.446-71.226-25.386-107.521-35.802c-13.942-4.002-27.935-7.791-41.985-11.338
			c-9.915-2.468-22.913-5.686-37.414-8.73c-44.333-9.289-103.092-17.292-134.143-0.697c-44.06,23.594-4.662,85.148-0.635,116.453
			c5.747,44.67-11.137,99.364-31.388,138.692c-43.814,84.944-150.32,186.53-234.148,227.876
			c-60.446,29.691-93.146,37.475-158.838,52.361c-20.523,4.664-31.493,8.085-41.047,14.668c-9.626,6.579-17.824,16.246-32.87,33.469
			c-41.302,47.406-94.102,96.531-150.438,147.309c32.755,13.104,74.736,42.994,74.692,87.484
			c-0.042,49.598-58.439,138.467-90.333,172.625c-70.784,75.975-150.196,132.602-241.473,178.581
			c-40.446,20.386-91.191,41.101-141.527,24.978c-22.49,23.248-14.587,92.041-11.07,108.803
			c9.803,46.883,35.089,89.217,49.999,134.353c2.593,7.837,5.184,15.657,7.779,23.468c17.47,52.54,35.162,104.264,55.664,154.99
			c14.997,37.098,31.494,73.668,50.522,109.623c30.91,58.149,67.57,66.73,123.413,62.07l7.589-0.727
			c3.495-0.365,7.073-0.752,10.754-1.134c2.102-0.254,4.28-0.506,6.39-0.828c1.426-0.171,2.855-0.338,4.356-0.581
			c40.887-5.771,81.328-17.262,121.405-39.272c1.503-0.783,3.007-1.575,4.511-2.435c0.524-0.32,1.051-0.631,1.576-0.945
			c2.406-1.412,4.741-2.827,7.069-4.239c2.932-1.729,5.789-3.532,8.721-5.492c3.684-2.435,7.444-4.94,11.207-7.446
			c3.685-2.592,7.446-5.25,11.204-7.992c53.015-38.37,110.551-91.787,173.126-143.552
			c122.96-101.652,252.772-214.653,314.268-322.192c166.048-290.654,337.883-586.156,524.804-857.262
			c3.237-4.674,6.322-9.346,9.333-14.013c43.649-68.231,68.593-142.958,93.163-220.083
			C8592.236,4475.049,8524.076,4442.05,8453.854,4414.706z"/>
		<path id="_x31_80627464" fill="none" stroke="#010101" stroke-width="64" d="M8453.854,4414.706
			c-5.184,22.733-17.408,48.062-28.838,62.872c-27.797,36-52.336,54.408-49.194,106.488c2.785,46.098,8.386,82.676-11.62,127.404
			c-13.993,31.295-36.358,57.959-55.006,86.339c-27.023,41.144-62.627,72.56-92.594,110.464
			c-34.701,43.899-61.034,97.908-90.065,145.842c-34.007,56.161-58.908,116.082-99.292,168.302
			c-16.13,20.839-36.53,37.306-53.253,57.655c-42.325,51.535-88.874,102.396-116.723,164.186
			c-26.941,59.791-59.414,119.105-105.827,165.755c-40.95,41.173-104.907,59.118-154.23,87.907
			c-27.01,15.764-51.132,36.873-77.282,54.119c-57.304,37.799-107.923,84.191-163.465,124.327
			c-32.686,23.615-64.339,53.038-103.538,64.382c-15.795,4.567-57.103,28.156-78.8,28.492
			c14.999,37.096,31.496,73.664,50.524,109.619c30.907,58.149,67.567,66.732,123.411,62.073l7.591-0.733
			c3.494-0.357,7.07-0.748,10.751-1.13c2.104-0.254,4.282-0.506,6.388-0.825c1.427-0.17,2.857-0.336,4.358-0.58
			c40.886-5.771,81.33-17.266,121.405-39.276c1.503-0.783,3.005-1.572,4.511-2.435c0.525-0.315,1.052-0.628,1.576-0.943
			c2.406-1.414,4.741-2.826,7.069-4.241c2.932-1.729,5.789-3.529,8.725-5.492c3.68-2.435,7.441-4.94,11.203-7.446
			c3.685-2.587,7.447-5.25,11.204-7.992c53.015-38.37,110.551-91.787,173.126-143.549
			c122.959-101.652,252.77-214.654,314.267-322.192c166.046-290.655,337.884-586.159,524.804-857.265
			c3.238-4.674,6.323-9.344,9.332-14.01c43.648-68.23,68.592-142.957,93.165-220.084
			C8592.236,4475.049,8524.076,4442.05,8453.854,4414.706z"/>
		<path id="_x31_80627463" fill="none" stroke="#010101" stroke-width="64" d="M7252.927,5940.748
			c39.201-11.344,70.852-40.767,103.537-64.382c55.54-40.134,106.16-86.525,163.468-124.324
			c26.149-17.245,50.273-38.355,77.279-54.122c49.323-28.785,113.283-46.734,154.23-87.902
			c46.413-46.652,78.888-105.969,105.829-165.756c27.85-61.793,74.397-112.654,116.724-164.186
			c16.721-20.354,37.123-36.82,53.253-57.656c40.381-52.223,65.283-112.139,99.291-168.305
			c29.03-47.934,55.363-101.939,90.063-145.842c29.97-37.904,65.574-69.317,92.596-110.461
			c18.647-28.381,41.014-55.047,55.007-86.342c20.006-44.732,14.403-81.309,11.618-127.404
			c-3.143-52.077,21.398-70.484,49.196-106.484c11.433-14.814,23.65-40.141,28.837-62.873c-4.336-1.689-8.68-3.361-13.032-5.01
			c-35.339-13.451-71.226-25.389-107.52-35.807c-19.856,36.438-31.014,85.367-44.967,123.21
			c-30.873,83.763-81.788,141.465-130.643,213.437c-55.679,82.049-121.639,149.131-174.612,232.779
			c-36.762,58.037-69.069,132.535-116.646,180.9c-68.752,69.914-172.487,157.641-236.931,232.23
			c-95.409,110.432-190.819,168.938-300.137,267.205c-49.05,44.088-98.788,79.844-143.91,128.084
			c-20.42,21.836-48.99,38.262-66.993,62.513c17.469,52.542,35.161,104.265,55.665,154.993
			C7195.825,5968.904,7237.129,5945.315,7252.927,5940.748z"/>
		<path id="_x31_80627462" fill="none" stroke="#010101" stroke-width="64" d="M7185.459,5751.734
			c45.123-48.24,94.857-83.996,143.907-128.084c109.318-98.266,204.729-156.773,300.14-267.201
			c64.443-74.59,168.179-162.318,236.931-232.23c47.576-48.365,79.886-122.867,116.646-180.904
			c52.973-83.648,118.933-150.73,174.611-232.782c48.856-71.966,99.77-129.667,130.643-213.43
			c13.953-37.843,25.11-86.776,44.967-123.213c-13.945-4.003-27.938-7.786-41.989-11.335c-9.916-2.471-22.912-5.686-37.414-8.73
			c-44.332-9.289-103.093-17.292-134.141-0.697c-44.06,23.59-4.662,85.148-0.635,116.453c5.746,44.67-11.138,99.364-31.388,138.692
			c-43.814,84.941-150.32,186.527-234.151,227.876c-60.445,29.689-93.143,37.475-158.837,52.355
			c-20.524,4.666-31.493,8.092-41.045,14.674c-9.629,6.584-17.826,16.244-32.873,33.469
			c-41.302,47.406-94.098,96.531-150.433,147.309c32.752,13.104,74.734,42.992,74.69,87.486
			c-0.042,49.596-58.439,138.465-90.335,172.623c-70.785,75.975-150.194,132.602-241.474,178.581
			c-40.446,20.386-91.188,41.097-141.524,24.978c-22.493,23.248-14.589,92.041-11.073,108.803
			c9.803,46.883,35.089,89.217,50.001,134.354c2.594,7.836,5.182,15.656,7.779,23.467
			C7136.469,5789.996,7165.037,5773.57,7185.459,5751.734z"/>
		<path id="_x31_80627461" fill="none" stroke="#010101" stroke-width="64" d="M5070.731,2260.239
			c-0.222,21.463-105.571,16.569-133.125,16.807c-9.953,0.086-24.798-1.248-28.574-10.706
			C4929.07,2252.637,5071.227,2213.778,5070.731,2260.239z"/>
		<path id="_x31_80627460" fill="none" stroke="#010101" stroke-width="64" d="M7948.6,3622.461
			c7.06,42.107,24.855,109.388,26.367,119.179c2.705,17.577,1.885,37.836,3.226,55.62c5.29,70.427,4.546,145.518-5.83,205.091
			c-17.649,101.386-33.258,200.626-54.696,301.433c0.891-4.211,37.5-12.385,42.985-14.557
			c28.546-11.342,59.848-24.122,81.537-47.254c20.065-21.41,33.893-52.519,46.851-78.867c14.63-29.781,26.866-60.873,34.484-93.328
			c13.035-55.552,18.305-114.477,16.392-171.404c-1.02-30.345-2.466-61.064-9.432-90.618c-6.817-28.988-19.08-56.175-29.532-83.836
			c-14.051-37.226-29.551-77.817-57.938-106.251c-21.682-21.729-74.549-41.315-105.658-26.053
			C7936.842,3591.816,7946.07,3607.419,7948.6,3622.461z"/>
		<path id="_x31_80627459" fill="none" stroke="#010101" stroke-width="64" d="M7916.318,4358.415
			c-0.751,0.224-1.489,0.458-2.236,0.706c-20.565,6.814-18.229,35.643-24.334,53.957c-33.033,99.175-69.329,201.316-115.979,294.936
			c-13.174,26.445-28.454,56.283-45.454,81.741c-11.08,16.604-32.206,51.261-45.999,73.29c23.898-4.926,47.835-9.26,71.322-16.338
			c113.065-34.049,227.546-122.867,291.173-225.217c33.821-54.396,78.098-110.477,48.619-177.96
			C8068.465,4386.369,7977.845,4339.879,7916.318,4358.415z"/>
		<path id="_x31_80627458" fill="none" stroke="#010101" stroke-width="64" d="M7448.057,5106.974c0,0,32.301,14.812,43.941,24.383
			c48.735,39.97,5.679,116.476-24.188,152.403c-71.774,86.354-155.708,158.023-255.699,207.479
			c-27.895,13.777-72.781,40.246-104.72,39.361c-49.522-1.272,28.476-74.37,41.039-87.945
			c29.638-32.136,68.222-66.511,95.458-100.786c20.46-25.713,63.874-79.321,81.029-103.991
			C7363.824,5182.064,7448.057,5106.974,7448.057,5106.974z"/>
		<path id="_x31_80627433" fill="none" stroke="#010101" stroke-width="64" d="M7463.283,4967.141
			c74.208-29.912,161.646-82.634,233.13-176.104c81.933-107.142,128.955-245.673,167.528-355.428
			c54.079-153.824,76.84-310.112,83.091-464.96c6.698-165.914-2.387-337.384-121.552-617.939
			c-77.479-182.434-148.091-362.368-264.428-512.241c-58.832-75.777-91.947-126.87-231.485-254.616
			c-130.431-119.407-184.588-157.67-329.815-229.92c-138.968-58.761-239.663-97.449-345.561-130.481
			c-82.157-25.621-325.667-97.952-525.934-121.182c-130.161-15.096-237.807,5.708-285.585,21.805l-22.56,9.87
			c130.535-50.769,176.611-7.331,157.758,64.4c-17.82,67.827-75.328,199.887-126.177,331.863
			c-66.276,172.045-68.165,358.44-51.222,538.186c15.691,166.379,31.518,313.754-22.959,456.698
			c-3.885,10.174-3.885,10.174-28.944,44.41c-15.569,21.271,42.063-9.057,110.942-5.782c147.09,6.999,188.16,45.243,229.135,71.526
			c66.97,42.951,44.162,94.65,34.92,178.941c-5.407,49.359-36.482,171.819-56.66,324.175c-2.912,21.969-7.659,108.009,1.127,128.94
			c27.489,65.529,56.562,116.35,101.285,180.949c115.803,167.225,384.328,309.375,589.553,407.561
			c117.708,56.333,192.794,87.321,271.677,117.588c89.263,34.256,181.084,21.645,217.91,21.324
			C7314.211,4996.16,7425.696,4982.938,7463.283,4967.141"/>
		<path id="_x31_80627434" fill="none" stroke="#010101" stroke-width="64" d="M7346.033,5095.837
			c-107.704,116.741-254.944,215.112-415.948,175.731c-107.087-26.179-179.199-116.462-223.933-214.064
			c-6.617-14.455-38.058-118.832-51.562-123.975c14.736,5.613,63.09,42.443,125.742,74.326
			c33.594,17.107,64.787,32.326,116.436,49.293c47.547,15.621,225.803,33.742,274.279,20.84c10.278-2.734-8.55-21.855-32.22-39.055
			c-28.231-20.537-76.19-44.618-63.213-42.01c25.181,5.086,57.714,10.713,80.464,15.426c40.691,8.432,78.446,19.317,122.093,20.227
			c23.254,0.495,47.102-1.03,69.829-5.121c30.061-5.418,42.007-14.355,67.652-19.281
			C7382.138,5042.93,7373.631,5065.93,7346.033,5095.837z"/>
		<path id="_x31_80627457" fill="none" stroke="#010101" stroke-width="64" d="M7127.475,5932.305
			c-6.729,18.945-31.601,44.167-43.647,56.945c-23.263,24.668-51.315,44.217-76.797,66.289
			c-45.661,39.54-93.283,76.893-142.651,111.73c-71.079,50.15-187.674,99.622-271.223,63.836
			c-16.23-6.939-37.047-7.531-54.457-9.311c-69.599-7.131-136.282,8.949-205.316-4.384c-18.534-3.58-38.377-1.85-56.961-6.122
			c-26.23-6.03-51.447-13.935-77.745-18.691c2.014,1.824,4.911,5.867,8.406,14.694c10.352,26.155,19.414,56.92,40.499,76.288
			c19.762,18.178,44.401,17.676,68.813,23.158c31.998,7.166,69.699,11.41,102.435,12.351c27.72,0.797,55.463-0.775,83.192-0.767
			c59.845,0,116.597-1.511,175.983-12.551c74.754-13.879,140.676-49.072,208.191-83.318c47.579-24.131,97.741-48.234,149.087-62.184
			c67.535-18.346,86.875-16.484,191.461-17.385C7209.594,6143.03,7166.002,6035.915,7127.475,5932.305z"/>
		<path id="_x31_80627456" fill="none" stroke="#010101" stroke-width="64" d="M6333.383,6217.411
			c69.034,13.333,135.718-2.747,205.316,4.384c17.409,1.779,38.228,2.367,54.457,9.311c83.545,35.783,200.144-13.686,271.223-63.836
			c49.368-34.838,96.99-72.19,142.651-111.735c25.481-22.071,53.534-41.62,76.797-66.287c12.046-12.781,36.92-38.002,43.647-56.946
			c-15.823-42.549-30.793-84.505-42.728-118.201c-25.264,7.994-54.964,49.27-68.536,61.075
			c-22.728,19.745-44.968,40.059-65.96,61.636c-33.496,34.395-51.411,80.025-83.425,114.904
			c-13.668,14.902-61.475,55.026-84.058,41.775c-9.057-5.342-8.303-27.681-11.566-36.812
			c-14.598-41.029-59.455-31.387-94.921-18.268c-21.83,8.086-38.153,21.418-52.52,39.391
			c-14.315,17.915-15.392,37.907-36.923,49.404c-15.912,8.516-35.356,9.325-52.931,8.998c-40.844-0.76-104.034-1.517-142.344-16.426
			c-8.303-3.232-16.552-7.146-24.86-10.695c-73.628,30.385-126.834,54.768-170.165,81.822c-0.192,0.121-0.354,0.203-0.487,0.261
			c0.498,0.028,1.396,0.308,2.628,1.424c26.298,4.749,51.515,12.657,77.744,18.688
			C6295.005,6215.557,6314.849,6213.831,6333.383,6217.411z"/>
		<path id="_x31_80627455" fill="none" stroke="#010101" stroke-width="64" d="M6533.904,6136.213
			c17.574,0.324,37.021-0.486,52.931-8.998c21.537-11.501,22.606-31.492,36.924-49.406c14.369-17.973,30.688-31.307,52.521-39.393
			c35.464-13.121,80.321-22.764,94.922,18.271c3.261,9.129,2.506,31.472,11.565,36.81c22.579,13.251,70.388-26.873,84.055-41.777
			c32.014-34.875,49.932-80.506,83.426-114.905c20.993-21.575,43.232-41.884,65.96-61.634c13.57-11.805,43.273-53.078,68.537-61.073
			c-13.132-37.073-22.592-64.147-25.475-71.019c8.255,19.662-297.902,240.896-325.953,258.617
			c-62.104,39.222-133.13,8.512-195.564,39.061c-44.938,21.988-93.603,36.827-139.788,55.547
			c-10.825,4.385-21.227,8.639-31.265,12.781c8.307,3.551,16.561,7.462,24.86,10.697
			C6429.873,6134.692,6493.064,6135.449,6533.904,6136.213z"/>
		<path id="_x31_80627443" fill="none" stroke="#010101" stroke-width="64" d="M5000.025,2808.16
			c-41.438-39.963-61.533-71.707-94.113-118.179c3.714-35.394,3.704-27.658,0.063-52.188c-3.435-23.055,2.667-130.494,2.725-191.013
			c49.437-6.447,149.505-20.511,221.884-35.598c80.003-16.681,139.307-29.364,203.979-44.72c25.364-6.02,39.987-6.786,45.721-0.929
			c16.892,17.261,40.283,38.503,70.385,70.963c11.693,12.606,32.725,28.229,45.056,43.128
			c41.29,49.936,84.14,115.999,106.632,162.21c19.996,41.098,47.801,117.001,67.735,206.126
			c33.888,151.46,42.655,318.781,45.56,471.899c-37.848-139.756-217.637-179.945-334.814-236.284
			C5237.661,3014.756,5114.82,2918.89,5000.025,2808.16z"/>
		<path id="_x31_80627442" fill="none" stroke="#010101" stroke-width="64" d="M5462.486,3549.163
			c-38.634-21.251-54.562-20.646-86.408-14.724c7.464,52.803-2.6,92.864-3.867,114.793c-3.47,60.037-130.439,114.591-95.355,178.791
			c16.98,31.049,84.467,41.357,114.752,36.845c73.289-10.916,124.582-84.899,155.736-147.765
			C5590.535,3629.961,5536.342,3589.79,5462.486,3549.163z"/>
		<path id="_x31_80627444" fill="none" stroke="#010101" stroke-width="64" d="M4905.568,3062.659
			c50.075,24.713,141.818,80.636,196.537,123.389c106.781,83.425,129.111,114.507,183.945,180.24
			c23.861,28.594,48.987,62.839,63.789,97.46c5.143,12.014,17.562,40.436,21.245,52.679c67.054-0.577,88.427,8.539,137.516,45.474
			c57.151,42.989,66.541,59.8,72.746,119.705c30.088-29.915,40.76-41.63,59.065-75.012
			c55.857-101.891,114.664-243.314,41.883-353.557c-56.156-85.042-224.424-130.728-301.463-169.461
			c-147.701-74.24-296.657-189.122-391.496-286.049c-30.613-31.279-60.099-70.016-83.427-107.547L4905.568,3062.659z"/>
		<path id="_x31_80627435" fill="none" stroke="#010101" stroke-width="64" d="M7036.499,5309.34
			c108.863-6.965,192.734-60.008,269.16-137.158c25.879-26.126,131.885-122.926,128.16-166.734
			c52.543-21.356,52.771-18.922,82.062-31.993c36.445-16.255,73.896-37.206,88.352-48.153c30.983-23.457,60.111-51.734,70.47-61.513
			c-119.155,112.481-254.007,219.603-360.689,344.499c-36.017,42.177-72.089,84.315-108.729,125.943
			c-61.43,69.791-116.842,128.074-165.87,209.131c-18.812,31.111-3.863,112.227,5.486,158.565
			c3.03,14.964-59.775,69.704-129.748,130.728c-71.313,62.188-147.436,123.684-235.615,158.303
			c-19.365,7.609-55.306,26.247-69.269,2.718c-11.655-19.661,22.172-88.845,33.678-103.233
			c66.469-83.102,79.024-123.173,82.834-185.108c4.583-74.296-96.811-177.966-40.553-236.311
			c49.577-51.425,163.676-196.75,227.567-177.956C6935.455,5297.432,6983.777,5312.707,7036.499,5309.34z"/>
		<path id="_x31_80627436" fill="none" stroke="#010101" stroke-width="64" d="M7604.231,4925.301
			c-14.453,10.947-51.904,31.898-88.35,48.153c-29.291,13.071-29.521,10.637-82.065,31.99
			c3.725,43.812-102.278,140.611-128.16,166.737c-76.423,77.154-160.294,130.193-269.157,137.158
			c-52.725,3.367-101.044-11.904-122.708-18.28c-63.892-18.787-177.991,126.536-227.568,177.963
			c-56.257,58.345,45.138,162.013,40.555,236.311c-3.81,61.931-16.365,102.011-82.834,185.108
			c-11.506,14.389-45.337,83.568-33.678,103.23c13.963,23.532,49.903,4.893,69.269-2.715
			c88.177-34.619,164.302-96.115,235.616-158.303c69.97-61.021,132.774-115.764,129.747-130.728
			c-9.348-46.339-24.299-127.458-5.489-158.567c49.028-81.058,104.443-139.338,165.874-209.125
			c36.64-41.632,72.712-83.771,108.729-125.947c98.536-115.364,221.098-215.559,333.135-318.828
			C7634.711,4900.679,7619.705,4913.591,7604.231,4925.301z M7447.542,5058.197c-21.389,19.553-21.861,7.693-10.308-25.06
			c13.782-39.091,24.451-31.159,62.031-42.124C7527.445,4989.805,7471.045,5036.718,7447.542,5058.197z"/>
		<path id="_x31_80627437" fill="none" stroke="#010101" stroke-width="64" d="M7499.266,4991.014
			c-37.579,10.965-48.248,3.033-62.031,42.124c-11.552,32.753-11.084,44.608,10.308,25.06
			C7471.045,5036.718,7527.445,4989.805,7499.266,4991.014z"/>
		<path id="_x31_80627438" fill="none" stroke="#010101" stroke-width="64" d="M6218.517,5426.665
			c40.649,23.032,87.904,44.655,129.583,58.847c110.808,37.725,182.177,29.373,283.702-17.934
			c90.387-42.116,133.642-140.637,218.1-195.306c-4.232,2.737-77.071-54.698-85.575-63.003
			c-77.722-75.898-86.312-206.488-146.178-295.471c-27.562-40.969-73.744-49.286-104.704-86.043
			c-32.487-38.574-8.27-59.392-47.771-95.722c-55.736-51.269-131.919-73.204-190.362-123.927
			c-59.279-51.447-128.071-134.363-167.951-203.742c-6.633-11.563-30.681-86.977-48.128-91.15
			c-61.355-14.615-26.941,2.817-47.752,161.611c-12.368,94.378-24.312,191.209-47.695,283.807
			c-20.154,79.83-63.854,156.158-95.562,231.96c-27.607,66.013-35.137,81.552,19.948,123.642
			c103.279,78.939,163.449,167.006,260.878,258.877C6158.88,5382.366,6206.081,5419.625,6218.517,5426.665z"/>
		<path id="_x31_80627439" fill="none" stroke="#010101" stroke-width="64" d="M6295.126,5890.243
			c75.598,58.42,133.705,76.739,214.123,56.18c93.953-24.021,130.936-83.136,167.351-160.063
			c28.077-59.301,29.077-116.721-24.27-170.01c-83.391-83.3-191.573-70.582-297.634-44.394
			c-91.824,22.671-202.107,92.188-145.903,214.582C6223.01,5817.487,6266.211,5867.906,6295.126,5890.243z"/>
		<path id="_x31_80627440" fill="none" stroke="#010101" stroke-width="64" d="M5941.49,6109.486
			c13.902-78.988,14.844-229.719,104.083-261.944c55.568-20.062,143.009,5.996,194.381,29.942
			c27.173,12.656,230.415,115.357,173.387,162.617c-48.479,40.17-185.976,95.483-231.581,137.199
			c-3.947,3.592-26.855-15.023-78.5-28.137c-57.188-14.514-136.815-19.686-150.287-19.97
			C5951.374,6123.98,5940.57,6114.704,5941.49,6109.486z"/>
		<path id="_x31_80627441" fill="none" stroke="#010101" stroke-width="64" d="M4905.14,3539.152
			c26.512-16.513,60.569-43.736,90.497-24.69c25.779,16.4,30.209,25.933,38.51,36.471c44.351,56.29,43.262,142.555,111.703,179.383
			c16.711,8.988,35.475,14.008,54.055,17.127c83.111,13.955,137.981-60.188,150.418-132.837
			c19.068-111.339-37.697-182.773-102.449-264.771c-98.521-124.75-224.141-204.878-342.306-273.005L4905.14,3539.152z"/>
		<path id="_x31_80627450" fill="none" stroke="#010101" stroke-width="64" d="M5989.918,4437.709
			c-0.186,0.219-0.379,0.443-0.568,0.663c-0.227,0.266-0.451,0.523-0.686,0.788c-0.203,0.223-0.412,0.451-0.621,0.681
			c-0.235,0.252-0.478,0.509-0.719,0.758c-0.211,0.222-0.422,0.446-0.633,0.665c-0.273,0.283-0.559,0.555-0.835,0.837
			c-0.31,0.312-0.622,0.61-0.94,0.913c-0.322,0.314-0.643,0.623-0.971,0.933c-0.247,0.232-0.494,0.462-0.742,0.692
			c-0.248,0.227-0.492,0.453-0.731,0.673c-0.266,0.237-0.528,0.48-0.794,0.72c-0.23,0.206-0.459,0.41-0.688,0.613
			c-0.278,0.248-0.557,0.498-0.836,0.746c-0.178,0.158-0.359,0.314-0.537,0.477c-1.26,1.11-2.507,2.193-3.702,3.252
			c-0.128,0.116-0.261,0.232-0.393,0.348c-0.338,0.302-0.673,0.602-1.001,0.898c-0.16,0.145-0.314,0.289-0.477,0.43
			c-0.313,0.286-0.62,0.568-0.92,0.846c-0.143,0.129-0.279,0.257-0.418,0.389c-0.424,0.4-0.838,0.794-1.236,1.183
			c-0.037,0.036-0.074,0.075-0.111,0.108c-3.033,2.99-6.18,6.017-9.412,9.016c-0.529,0.492-1.059,0.976-1.586,1.456
			c-0.256,0.239-0.516,0.474-0.773,0.706c-4.215,3.844-8.527,7.554-13.001,11.061c-0.89,0.707-1.788,1.393-2.688,2.08
			c-0.112,0.082-0.223,0.172-0.336,0.255c-0.079,0.062-0.164,0.126-0.242,0.19c-17.449,13.113-36.58,22.431-55.686,19.609
			c-0.07-0.015-0.137-0.021-0.211-0.029c-0.568-0.092-1.139-0.19-1.711-0.302c-0.135-0.02-0.268-0.042-0.4-0.072
			c-0.524-0.104-1.048-0.222-1.572-0.349c-0.164-0.035-0.33-0.07-0.494-0.11c-0.63-0.155-1.262-0.33-1.893-0.513
			c-0.043-0.011-0.086-0.02-0.131-0.033c-2.002-0.592-3.949-1.3-5.854-2.122c-42.674-18.473-60.139-93.349-67.365-153.501
			c-0.023-0.193-0.047-0.385-0.07-0.572c-0.784-6.595-1.449-13.005-2.008-19.141c-1.363-14.933-2.119-28.25-2.551-38.584
			c-0.469-11.277-0.605-22.547-0.436-33.807c0.126-8.445,0.416-16.887,0.865-25.314c3.741-70.266,18.175-139.983,34.635-208.212
			c0.019-0.079,0.039-0.156,0.06-0.236c4.376-18.056,15.846-55.208,12.989-73.082c-3.277-20.493-13.068-23.38-25.945-18.794
			c-1.221,0.699-2.423,1.525-3.604,2.443c-2.309,5.801-4.34,11.445-5.938,16.888c-25.083,85.393-127.895,335.435-146.08,306.913
			c-4.98,5.623-9.983,11.103-15.021,16.445c-0.004,0.006-0.012,0.016-0.02,0.021c-18.172,20.892-39.229,39.438-62.391,54.247
			c-26.188,17.321-55.291,29.553-89.726,34.463c-1.836,0.27-3.683,0.511-5.525,0.729c-0.126,0.016-0.248,0.033-0.372,0.046
			c-24.057,2.798-52.115-0.056-76.336,3.653c-0.067,0.164-0.143,0.328-0.211,0.488c0.546,0.515,0.963,0.908,0.822,0.783
			c80.768,73.022,185.715,110.975,261.307,187.811c38.252,38.875,77.784,76.846,121.973,108.572
			c22.223,15.955,45.589,30.285,70.154,42.135c9.998,4.82,20.567,8.267,31.115,11.576c10.588,3.33,21.254,6.5,31.527,10.77
			c1.51,0.627,3.019,1.25,4.504,1.916c0.476,0.209,0.969,0.377,1.461,0.554c24.543-91.688,40.121-187.021,47.902-289.117
			c-0.139,0.18-0.284,0.353-0.422,0.534C5990.417,4437.089,5990.171,4437.398,5989.918,4437.709z"/>
		<path id="_x31_80627449" fill="none" stroke="#010101" stroke-width="64" d="M5937.211,4722.893
			c-10.27-4.264-20.938-7.436-31.525-10.762c-10.547-3.314-21.117-6.76-31.115-11.577c-24.562-11.854-47.931-26.183-70.152-42.135
			c-44.189-31.729-83.725-69.701-121.977-108.577c-75.619-76.863-180.621-114.817-261.402-187.895
			c0.354,0.318-0.099-0.109-0.727-0.699c-15.568,36.508-41.078,69.975-72.642,88.385c-8.755,5.098-17.505,8.919-26.237,11.889
			c3.729,10.074,11.672,20.875,17.513,29.174c7.017,9.979,15.051,19.17,23.736,27.632c17.577,17.145,37.687,31.255,58.146,44.489
			c52.663,34.061,111.685,64.75,143.044,122.905c33.834,62.735,61.354,122.464,108.736,177.05
			c48.15,4.893,83.074,26.205,87.36,78.475c0.169,2.114,0.23,4.219,0.192,6.318c27.744,12.053,58.307,23.955,82.613,42.324
			c42.994-86.559,76.062-173.682,100.357-264.369c0.014-0.053,0.028-0.104,0.041-0.154c-0.49-0.172-0.98-0.346-1.455-0.55
			C5940.229,4724.147,5938.719,4723.523,5937.211,4722.893z"/>
		<path id="_x31_80627448" fill="none" stroke="#010101" stroke-width="64" d="M5672.609,4862.765
			c-47.386-54.585-74.902-114.31-108.736-177.048c-31.36-58.154-90.381-88.844-143.044-122.903
			c-20.46-13.237-40.571-27.348-58.149-44.488c-5.152-5.023-9.93-9.597-14.446-15.176c-2.122-2.622-4.254-5.297-6.165-8.019
			c-4.379-6.221-8.529-12.514-12.625-18.865c-3.064-4.743-5.579-10.149-8.102-15.029c-0.057-0.102-19.631,3.436-21.768,3.546
			c-6.412,0.322-12.831-0.132-19.111-1.426c-11.819-2.454-22.703-7.851-33.436-13.269c-10.227-5.162-20.484-10.242-31.223-14.235
			c-1.701-0.632-3.424-1.116-5.158-1.471c11.113,7.897,16.391,16.515,6.775,24.74c-46.018,37.999-71.705,37.976-127.169,41.723
			c-2.086,0.14-9.987,0.44-21.435,0.757c44.586,23.189,86.521,43.17,129.287,71.869c42.025,28.203,75.481,69.5,103.733,112.206
			c40.869,61.776,53.618,142.5,68.688,228.334C5436.635,4905.43,5579.401,4853.303,5672.609,4862.765
			c-0.502-0.573-0.996-1.144-1.488-1.718C5671.615,4861.621,5672.106,4862.195,5672.609,4862.765z"/>
		<path id="_x31_80627446" fill="none" stroke="#010101" stroke-width="64" d="M5620.588,5123.865
			c35.085-48.253,138.355-109.834,139.574-176.307c-2.768-1.197-5.51-2.404-8.211-3.613c2.702,1.213,5.443,2.416,8.211,3.613
			c0.037-2.101-0.023-4.205-0.195-6.318c-4.285-52.271-39.209-73.584-87.359-78.476c0.533,0.608,1.057,1.231,1.591,1.846
			c-0.536-0.614-1.058-1.237-1.591-1.846c-93.209-9.462-235.975,42.661-302.082,51.246c0.994,5.657,1.997,11.338,3.018,17.032
			c24.605,137.131,9.254,154.669,35.444,278.234c2.179,10.285,4.274,21.407,6.481,32.93
			C5498.228,5229.117,5568.559,5195.42,5620.588,5123.865z"/>
		<path id="_x31_80627453" fill="none" stroke="#010101" stroke-width="64" d="M6028.09,3610.203
			c-25.152-24.701-132.787-49.86-159.355-37.112c-7.853,3.831-15.582,14.775-22.576,29.21
			c-9.379,19.363-17.447,45.033-22.741,68.295c-0.765,3.373-1.476,6.691-2.118,9.932c-0.371,1.85-0.711,3.666-1.039,5.457
			c-2.093,11.512-3.32,21.795-3.453,29.556c0.968,0.253,1.928,0.524,2.879,0.836c7.528,2.457,14.572,6.729,20.885,13.282
			c15.383,15.971,22.592,53.008,22.785,75.911c0.021,2.752-0.05,5.319-0.229,7.603c-0.105,1.378-0.24,2.763-0.402,4.15
			c48.432-13.243,83.791,0.291,107.156-53.325c0.355-2.776,0.724-5.533,1.11-8.257c5.782-40.64,15.247-75.012,28.04-98.561
			c0.046-0.09,0.085-0.178,0.132-0.269c0.981-1.87,2.065-3.713,3.218-5.52c3.227-5.237,6.645-9.827,10.254-13.69
			C6023.225,3625.06,6033.356,3615.377,6028.09,3610.203z"/>
		<path id="_x31_80627452" fill="none" stroke="#010101" stroke-width="64" d="M5999.167,4254.418
			c-7.523-77.472-9.856-105.979-14.859-183.623c-4.661-72.348-21.155-158.434-19.839-229.373
			c0.506-27.227,2.333-53.325,5.416-77.428c-23.368,53.619-58.729,40.082-107.16,53.331c-4.252,36.445-26.809,75.276-40.312,108.815
			c1.057-0.452,2.1-0.857,3.122-1.224c3.823-2.188,7.8-3.181,11.796-2.182c30.326,7.576,5.967,74.406,1.163,94.055
			c-0.02,0.076-0.042,0.157-0.06,0.235c-18.437,76.416-34.326,154.703-35.498,233.527c-0.168,11.26-0.035,22.529,0.437,33.809
			c0.428,10.336,1.185,23.648,2.551,38.584c0.562,6.133,1.222,12.547,2.009,19.139c0.022,0.188,0.043,0.383,0.068,0.576
			c7.23,60.152,24.691,135.023,67.367,153.497c1.903,0.822,3.85,1.532,5.851,2.12c0.04,0.016,0.087,0.023,0.131,0.037
			c0.633,0.184,1.263,0.359,1.894,0.514c0.168,0.039,0.328,0.07,0.495,0.107c0.521,0.128,1.046,0.248,1.571,0.352
			c0.134,0.025,0.266,0.05,0.4,0.072c0.572,0.105,1.145,0.207,1.713,0.299c0.068,0.012,0.139,0.015,0.209,0.029
			c20.022,2.922,39.681-7.641,55.686-19.609c0.197-0.154,0.385-0.299,0.579-0.445c0.901-0.685,1.801-1.373,2.688-2.076
			c4.464-3.517,8.808-7.25,12.998-11.064c0.26-0.229,0.521-0.463,0.777-0.706c0.531-0.48,1.061-0.964,1.584-1.452
			c3.182-2.959,6.316-5.976,9.412-9.016c0.038-0.037,0.076-0.076,0.113-0.109c0.397-0.389,0.812-0.786,1.238-1.186
			c0.135-0.129,0.273-0.258,0.416-0.389c0.299-0.279,0.605-0.557,0.92-0.848c0.158-0.14,0.318-0.287,0.474-0.425
			c0.331-0.3,0.667-0.599,1.001-0.896c0.133-0.119,0.266-0.236,0.393-0.352c1.196-1.058,2.442-2.141,3.703-3.253
			c0.179-0.162,0.358-0.316,0.537-0.481c0.279-0.242,0.559-0.495,0.836-0.741c0.229-0.204,0.455-0.409,0.687-0.612
			c0.266-0.238,0.528-0.479,0.796-0.722c0.239-0.224,0.486-0.446,0.729-0.674c0.25-0.229,0.5-0.46,0.746-0.692
			c0.324-0.309,0.646-0.619,0.971-0.932c0.318-0.299,0.627-0.603,0.936-0.913c0.282-0.278,0.561-0.554,0.837-0.835
			c0.212-0.22,0.422-0.443,0.633-0.664c0.245-0.255,0.485-0.509,0.718-0.762c0.211-0.226,0.418-0.453,0.625-0.68
			c0.232-0.262,0.458-0.519,0.684-0.79c0.191-0.219,0.381-0.439,0.566-0.665c0.256-0.306,0.498-0.616,0.742-0.927
			c0.137-0.182,0.286-0.354,0.42-0.53c1.195-1.588,2.219-3.198,2.977-4.834l-2.592-0.223c1.654-22.465,2.928-45.262,3.844-68.42
			c1.195-30.334,1.299-57.873,0.754-83.235C5996.062,4279.533,5999.861,4261.549,5999.167,4254.418z"/>
		<path id="_x31_80627447" fill="none" stroke="#010101" stroke-width="64" d="M5620.588,5123.865
			c-52.028,71.555-122.36,105.252-205.117,118.344c15.919,83.062,37.663,186.684,138.646,143.77
			c93.69-39.812,118.463-113.216,193.717-229.927c35.908-55.685,67.443-110.807,94.941-166.169
			c-24.307-18.37-54.871-30.272-82.613-42.324C5758.941,5014.031,5655.673,5075.612,5620.588,5123.865z"/>
		<path id="_x31_80627451" fill="none" stroke="#010101" stroke-width="64" d="M5496.855,4357.105
			c0.125-0.014,0.25-0.031,0.373-0.043c1.857-0.223,3.699-0.469,5.529-0.729c31.994-4.677,62.328-16.952,89.727-34.467
			c22.426-14.834,42.726-33.393,62.412-54.268c4.975-5.717,9.625-11.92,14.018-18.515c-0.117-0.319-0.228-0.651-0.332-1.007
			c-47.674-95.013,79.991-220.407,74.516-321.883c-0.005-0.137-0.015-0.277-0.021-0.41c-4.106-72.274-17.605-121.963-62.32-55.475
			c-0.468,0.691-0.956,1.437-1.467,2.235c-0.4,0.633-0.824,1.304-1.254,1.999c-0.306,0.489-0.618,0.995-0.938,1.52
			c-0.492,0.803-1.006,1.645-1.526,2.514c-13.956,23.212-37.829,67.49-49.231,62.955c-0.035-0.012-0.074-0.021-0.111-0.034
			c-0.16-0.068-0.314-0.163-0.467-0.246c-0.082-0.049-0.168-0.081-0.246-0.13c-0.078-0.055-0.154-0.126-0.232-0.184
			c-0.149-0.105-0.302-0.208-0.451-0.34c-0.023-0.025-0.053-0.061-0.076-0.082c-0.187-0.181-0.379-0.37-0.561-0.588
			c-0.053-0.057-0.098-0.132-0.145-0.197c-1.588-2.014-2.775-5.52-3.467-10.865c-1.44-11.147,1.848-23.26,4.222-36.73
			c0.001-0.01,0.003-0.02,0.006-0.021c3.952-25.459,9.689-46.379,17.469-64.102c0.298-0.695,0.603-1.359,0.906-2.025
			c0.186-0.406,0.368-0.812,0.554-1.219c0.107-0.222,0.211-0.466,0.32-0.688c0.052-0.119,0.113-0.228,0.168-0.347
			c6.654-14.109,14.688-26.148,24.253-36.856c0.026-0.03,0.05-0.062,0.074-0.089c0.034-0.034,0.071-0.074,0.103-0.107
			c7.427-8.289,15.768-15.781,25.093-22.832c-9.736-5.91-17.192-12.604-22.676-19.842c-28.214,10.379-66.978,37.637-73.868,42.316
			c-39.186,26.58-80.641,52.453-123.385,72.95c-8.414,4.042-18.364,7.263-28.461,10.447c-33.416,10.529-54.428,36.719-93.031,37.558
			c-20.167,0.434-48.336-2.29-70.996-10.668c50.695,53.148,82.752,101.698,71.52,198.298c15.289,16.534,31.095,31.239,43.494,51.499
			c28.209,46.09,46.222,103.553,39.447,158.71c-2.252,18.289-7.516,37.339-15.27,55.647
			C5444.742,4357.053,5472.797,4359.902,5496.855,4357.105z"/>
		<path id="_x31_80627454" fill="none" stroke="#010101" stroke-width="64" d="M5824.857,3570.917
			c-28.566-8.333-72.93,16.224-97.094,30.335c-32.064,18.715-64.945,59.008-68.822,97.566c-1.595,15.905,1.756,31.513,12.133,45.193
			c5.483,7.234,12.94,13.928,22.677,19.838c2.146-1.618,4.344-3.218,6.595-4.796c0.983-0.688,1.979-1.376,2.984-2.063
			c31.324-21.272,77.488-50.867,113.477-41.447c0.133-7.76,1.357-18.041,3.457-29.559c0.129-2.45,0.338-4.61,0.693-6.334
			c0.59-2.852,1.441-5.884,2.46-9.051c5.295-23.269,13.362-48.933,22.747-68.299
			C5847.344,3587.812,5842.479,3576.066,5824.857,3570.917z"/>
		<path id="_x31_80627445" fill="none" stroke="#010101" stroke-width="64" d="M5351.745,4116.875
			c51.37,64.4,74.298,142.879,46.222,225.159c-37.634,110.222-137.564,132.724-209.537,44.637
			c-24.395-29.845-37.578-71.137-57.896-103.952c23.474,12.857,32.854,23.414,65.276,17.328
			c36.445-6.843,55.207-23.476,76.592-45.633c18.72-19.4,35.734-41.414,49.386-65.712c11.003-19.589,23.526-47.595,28.708-71.821"/>
		<path id="_x31_80627423" fill="none" stroke="#010101" stroke-width="64" d="M4904.973,3728.715
			c29.992,10.306,41.588,29.91,51.295,56.306c15.694,42.64,38.939,18.413,42.588-10.694c3.973-31.641-13.621-55.529-24.176-82.408
			c-10.562-26.93-7.796-55.854-18.283-82.846c-4.748-12.233-51.27-55.315-51.268-57.029
			C4905.135,3552.312,4904.973,3728.715,4904.973,3728.715z"/>
		<path id="_x31_80627424" fill="none" stroke="#010101" stroke-width="64" d="M6327.399,5516.641
			c-72.938-51.895-114.134-59.045-163.359-99.175c-58.905-48.023-113.824-99.381-161.424-159.154
			c-57.485-72.2-110.286-107.577-175.006-173.612c-10.06-10.262-25.104,21.413-39.36,44.889
			c-35,57.637-87.52,161.295-149.564,224.705c-36.327,37.16-85.815,60.59-127.814,68.812
			c-65.662,12.849-105.111-109.341-120.044-208.508c-14.175-94.017-12.421-121.114-23.604-216.441
			c-4.501-38.378-15.22-90.374-27.435-134.523c-12.115-43.776-18.403-81.573-36.967-122.286
			c-34.898-76.586-104.571-167.077-181.922-199.83c-55.301-23.416-160.482-24.996-216.671-6.828
			c137.14-1.188,18.155,173.174,15.46,216.508c-4.303,69.178-2.103,189.506-2.115,256.637c-0.037,98.49-1.583,201.305-3.697,302.444
			c-0.908,43.237-1.914,86.173-2.951,128.331c-0.671,26.97,1.002,178.206,5.962,320.395c2.886,82.713,43.698,185.186,41.112,235.63
			c-1.682,32.904-45.327,30.603-55.134,31.43l1.366-1491.374l-1.567,1708.672l0.177-190.868
			c28.725-18.745,98.467-2.208,150.492,7.981c115.268,22.546,249.561,44.391,349.759,114.08
			c51.388,35.754,54.569,51.709-9.05,56.548c22.392-1.004,38.65-1.892,46.459-2.558c19.053-1.643,37.881-3.164,56.701-7.059
			c18.225-3.785,41.265-10.514,55.54-23.785c8.373-7.795,15.55-19.428,20.323-29.918c7.15-15.687,21.469-21.023,36.717-25.968
			c48.967-15.882,106.016-14.417,157.197-14.892c43.514-0.399,105.738-2.764,148.41,4.516c10.033-24.961,8.74-64.531,11.363-91.006
			c10.116-102.242,15.463-133.207,93.49-198.107c59.122-49.174,155.786,2.883,147.815-24.482
			c-16.863-57.887-10.99-89.633,6.685-124.652c17.839-35.336,44.531-64.365,69.914-94.604
			C6268.491,5570.211,6374.347,5547.182,6327.399,5516.641z"/>
		<path id="_x31_80627426" fill="none" stroke="#010101" stroke-width="64" d="M4904.973,3728.715
			c29.992,10.306,41.588,29.91,51.295,56.306c15.694,42.64,38.939,18.413,42.588-10.694c3.973-31.641-13.621-55.529-24.176-82.408
			c-10.562-26.93-7.796-55.854-18.283-82.846c-4.748-12.233-51.27-55.315-51.268-57.029
			C4905.135,3552.312,4904.973,3728.715,4904.973,3728.715z"/>
		<path id="_x31_80627425" fill="none" stroke="#010101" stroke-width="64" d="M5582.927,5491.545
			c-0.003,0.002-2.509-62.732,4.776-98.959c-14.113,10.076-29.644,15.832-29.883,15.932c-1.268,0.536-2.535,1.064-3.795,1.573
			c-0.074,0.031-0.146,0.06-0.221,0.09c-6.502,2.62-12.986,4.937-19.396,6.928c-0.003,0-0.006,0.003-0.011,0.003
			c-0.07,0.023-0.145,0.043-0.211,0.066c-0.076,0.027-0.151,0.051-0.229,0.07c-1.692,0.525-3.376,1.023-5.053,1.505
			c-0.008,0-0.019-0.003-0.028,0.005c-0.282,0.078-0.565,0.16-0.849,0.244c-0.188,0.05-0.373,0.098-0.559,0.147
			c-1.359,0.378-2.719,0.742-4.069,1.091c-0.282,0.079-0.567,0.162-0.849,0.227c-0.129,0.037-0.26,0.064-0.393,0.099
			c-0.166,0.04-0.332,0.079-0.5,0.124c-1.285,0.32-2.566,0.625-3.841,0.919c-0.166,0.036-0.332,0.077-0.501,0.12
			c-0.217,0.051-0.434,0.098-0.651,0.148c-1.942,0.438-3.878,0.855-5.794,1.23c-1.622,0.314-3.219,0.525-4.811,0.685
			c-0.16,0.015-0.318,0.038-0.474,0.048c-0.719,0.062-1.433,0.104-2.144,0.137c-0.203,0.006-0.401,0.014-0.602,0.021
			c-0.699,0.021-1.391,0.022-2.086,0.019c-0.197-0.002-0.394-0.01-0.589-0.018c-0.704-0.018-1.403-0.047-2.097-0.094
			c-0.154-0.009-0.303-0.027-0.451-0.037c-4.035-0.332-7.963-1.188-11.78-2.524c-0.135-0.048-0.269-0.093-0.399-0.135
			c-0.66-0.24-1.315-0.492-1.964-0.761c-0.183-0.072-0.364-0.143-0.546-0.218c-0.633-0.271-1.265-0.552-1.887-0.845
			c-0.184-0.08-0.369-0.172-0.555-0.26c-0.635-0.306-1.264-0.619-1.887-0.945c-0.152-0.081-0.299-0.165-0.447-0.242
			c-0.667-0.357-1.328-0.726-1.982-1.111c-0.014-0.015-0.033-0.021-0.051-0.033c-2.925-1.727-5.775-3.75-8.557-6.033
			c-0.146-0.121-0.295-0.232-0.441-0.363c-0.572-0.471-1.138-0.957-1.703-1.458c-0.191-0.167-0.38-0.335-0.571-0.509
			c-0.544-0.489-1.086-0.99-1.634-1.504c-0.191-0.184-0.392-0.37-0.583-0.557c-0.539-0.523-1.086-1.052-1.62-1.594
			c-0.171-0.178-0.34-0.354-0.514-0.529c-0.561-0.576-1.12-1.158-1.673-1.75c-0.08-0.09-0.157-0.176-0.239-0.265
			c-1.973-2.13-3.905-4.401-5.796-6.801c-0.017-0.019-0.03-0.039-0.05-0.06c-0.537-0.684-1.066-1.379-1.599-2.084
			c-0.156-0.205-0.317-0.412-0.474-0.623c-0.492-0.66-0.98-1.323-1.467-2.004c-0.188-0.259-0.375-0.524-0.564-0.784
			c-0.469-0.666-0.941-1.341-1.408-2.022c-0.191-0.277-0.385-0.561-0.573-0.839c-0.468-0.692-0.935-1.387-1.398-2.101
			c-0.169-0.252-0.339-0.521-0.508-0.779c-0.482-0.748-0.966-1.498-1.44-2.264c-0.096-0.146-0.186-0.299-0.273-0.443
			c-1.751-2.823-3.465-5.746-5.136-8.774c-26.34-44.892-43.556-110.243-47.084-158.046c-0.399-2.648-0.784-5.23-1.153-7.775
			c-0.037-0.264-0.08-0.533-0.119-0.796c-0.155-1.05-0.307-2.091-0.457-3.12c-0.047-0.342-0.1-0.689-0.146-1.027
			c-0.18-1.221-0.354-2.424-0.523-3.623c-0.021-0.139-0.039-0.287-0.062-0.422c-0.756-5.28-1.445-10.334-2.107-15.205
			c-0.006-0.067-0.018-0.138-0.023-0.208c-0.159-1.172-0.316-2.344-0.471-3.498c-0.008-0.054-0.015-0.108-0.021-0.161
			c-0.31-2.352-0.61-4.662-0.901-6.935c-0.008-0.063-0.019-0.129-0.027-0.193c-0.141-1.108-0.279-2.208-0.414-3.308
			c-0.006-0.051-0.016-0.102-0.023-0.151c-0.131-1.067-0.263-2.126-0.391-3.177c-0.009-0.076-0.02-0.157-0.031-0.233
			c-0.118-0.985-0.236-1.951-0.354-2.925c-0.021-0.145-0.036-0.301-0.057-0.443c-0.114-0.973-0.229-1.926-0.342-2.877
			c-0.016-0.137-0.034-0.277-0.051-0.413c-0.115-0.977-0.227-1.944-0.341-2.907c-0.015-0.107-0.025-0.22-0.036-0.324
			c-0.113-0.97-0.226-1.928-0.335-2.879c-0.012-0.105-0.024-0.211-0.034-0.314c-0.105-0.923-0.208-1.838-0.312-2.742
			c-0.017-0.145-0.031-0.287-0.046-0.428c-0.102-0.902-0.198-1.793-0.296-2.675c-0.018-0.143-0.031-0.292-0.052-0.435
			c-0.097-0.934-0.198-1.859-0.296-2.781c-0.01-0.088-0.021-0.175-0.029-0.267c-0.102-0.932-0.202-1.86-0.298-2.79
			c-0.01-0.076-0.021-0.158-0.028-0.24c-0.103-0.961-0.203-1.917-0.304-2.865c-0.005-0.039-0.006-0.073-0.011-0.107
			c-0.102-0.978-0.2-1.942-0.299-2.906c-0.004-0.02-0.004-0.035-0.007-0.057c-0.097-0.941-0.191-1.879-0.286-2.809
			c-0.004-0.055-0.01-0.102-0.014-0.152c-0.094-0.951-0.191-1.9-0.283-2.849c-0.001-0.019-0.002-0.032-0.004-0.048
			c-0.671-6.775-1.281-13.385-1.878-19.992c-3.769-25.204-7.456-52.01-10.35-92.392c0.368,26.466-4.51,50.749-17.521,60.062
			c-31.01,22.176-78.01-11.492-93.941-39.292c-28.818-50.248,37.334-167.458,89.793-106.841
			c9.393,10.854,17.197,36.965,20.276,64.418c-0.085-1.44-0.167-2.885-0.245-4.361c-0.031-0.496-0.067-1.005-0.098-1.509
			c-0.004-0.007-0.004-0.013-0.005-0.019c-0.239-1.729-0.481-3.48-0.741-5.248c-0.017-0.127-0.035-0.246-0.057-0.371
			c-0.234-1.605-0.477-3.233-0.729-4.873c-0.03-0.209-0.063-0.419-0.096-0.626c-0.544-3.532-1.128-7.135-1.741-10.782
			c-0.039-0.218-0.079-0.441-0.111-0.664c-0.305-1.771-0.609-3.555-0.924-5.357c-0.01-0.035-0.016-0.069-0.02-0.105
			c-0.34-1.922-0.689-3.859-1.045-5.807c-0.012-0.055-0.025-0.112-0.031-0.168c-0.334-1.826-0.678-3.656-1.026-5.498
			c-0.034-0.196-0.073-0.395-0.106-0.593c-0.727-3.825-1.484-7.688-2.268-11.573c-0.037-0.195-0.075-0.387-0.117-0.579
			c-0.383-1.899-0.773-3.798-1.168-5.7c-0.006-0.031-0.014-0.062-0.022-0.094c-0.421-2.031-0.85-4.06-1.282-6.098
			c-0.005-0.003-0.005-0.006-0.006-0.012c-0.411-1.933-0.833-3.861-1.258-5.798c-0.043-0.2-0.084-0.401-0.134-0.604
			c-0.864-3.929-1.747-7.857-2.66-11.782c-0.042-0.201-0.091-0.401-0.138-0.597c-0.434-1.861-0.874-3.725-1.314-5.573
			c-0.02-0.097-0.041-0.185-0.064-0.282c-0.476-2.008-0.959-4.005-1.445-5.994c-0.002-0.011-0.004-0.02-0.008-0.03
			c-2.638-10.12-5.242-19.938-7.576-29.165c-12.117-43.776-18.406-81.571-36.969-122.285
			c-34.896-76.59-104.568-167.078-181.917-199.829c-0.999-0.425-2.019-0.837-3.05-1.243c-0.15-0.06-0.306-0.121-0.459-0.18
			c-0.178-0.068-0.359-0.143-0.539-0.21c-0.717-0.279-1.438-0.548-2.168-0.822c-0.375-0.142-0.756-0.279-1.138-0.415
			c-0.776-0.285-1.562-0.562-2.353-0.836c-0.301-0.108-0.604-0.212-0.91-0.316c-1.096-0.379-2.208-0.745-3.335-1.101
			c-0.188-0.064-0.381-0.124-0.569-0.185c-0.949-0.299-1.908-0.596-2.877-0.883c-0.377-0.11-0.754-0.223-1.133-0.332
			c-0.799-0.236-1.606-0.469-2.42-0.693c-0.241-0.068-0.48-0.141-0.725-0.205c-0.17-0.049-0.332-0.097-0.498-0.142
			c-0.904-0.251-1.818-0.493-2.745-0.737c-0.292-0.079-0.587-0.158-0.882-0.234c-1.209-0.312-2.433-0.619-3.665-0.918
			c-0.31-0.073-0.623-0.144-0.936-0.219c-0.938-0.225-1.888-0.443-2.846-0.662c-0.17-0.04-0.351-0.078-0.527-0.115
			c-0.261-0.062-0.523-0.121-0.785-0.179c-0.875-0.196-1.755-0.382-2.641-0.568c-0.407-0.09-0.819-0.175-1.227-0.257
			c-1.063-0.222-2.128-0.438-3.203-0.646c-0.228-0.043-0.454-0.092-0.683-0.134c-0.002-0.003-0.006-0.003-0.008-0.005
			c-1.299-0.25-2.605-0.49-3.926-0.729c-0.389-0.075-0.78-0.139-1.177-0.206c-0.951-0.173-1.913-0.333-2.874-0.498
			c-0.193-0.032-0.387-0.064-0.58-0.096c-0.264-0.042-0.529-0.091-0.801-0.132c-0.95-0.154-1.902-0.309-2.861-0.453
			c-0.434-0.069-0.861-0.136-1.292-0.201c-1.345-0.203-2.698-0.4-4.06-0.59c-0.027-0.004-0.055-0.008-0.089-0.014
			c-0.065-0.004-0.132-0.017-0.196-0.025c-1.277-0.18-2.564-0.35-3.852-0.514c-0.227-0.033-0.459-0.054-0.686-0.087
			c-0.219-0.028-0.439-0.056-0.654-0.079c-0.979-0.127-1.964-0.243-2.953-0.355c-0.471-0.059-0.942-0.113-1.415-0.17
			c-1.05-0.115-2.104-0.23-3.161-0.342c-0.314-0.035-0.626-0.066-0.938-0.103c-0.06-0.005-0.116-0.009-0.172-0.019
			c-1.412-0.143-2.824-0.283-4.243-0.412c-0.282-0.022-0.563-0.051-0.85-0.074c-1.14-0.107-2.283-0.203-3.427-0.296
			c-0.514-0.044-1.027-0.086-1.543-0.122c-0.941-0.078-1.88-0.146-2.82-0.219c-0.529-0.034-1.057-0.07-1.586-0.114
			c-1.12-0.076-2.246-0.147-3.373-0.219c-0.105-0.009-0.21-0.009-0.316-0.017c-0.211-0.014-0.416-0.029-0.624-0.039
			c-1.415-0.084-2.827-0.165-4.244-0.229c-0.163-0.009-0.319-0.019-0.479-0.022c-0.248-0.017-0.486-0.03-0.731-0.039
			c-1.06-0.049-2.126-0.095-3.188-0.141c-0.509-0.021-1.016-0.039-1.524-0.061c-0.971-0.035-1.944-0.062-2.911-0.098
			c-0.516-0.015-1.033-0.031-1.553-0.042c-1.277-0.042-2.557-0.069-3.84-0.09c-0.164-0.007-0.32-0.007-0.484-0.014
			c-1.42-0.021-2.846-0.042-4.266-0.057c-0.502-0.001-0.998-0.005-1.502-0.008c-0.973-0.005-1.943-0.009-2.916-0.005
			c-0.541-0.002-1.073,0-1.617-0.002c-0.984,0.004-1.963,0.018-2.941,0.021c-0.471,0.007-0.94,0.007-1.41,0.017
			c-1.418,0.018-2.83,0.041-4.243,0.079c-0.253,0.003-0.501,0.011-0.757,0.021c-1.18,0.021-2.354,0.055-3.533,0.097
			c-0.034-0.001-0.062,0.001-0.096,0.003c-0.475,0.017-0.953,0.033-1.43,0.049c-0.938,0.029-1.872,0.068-2.804,0.107
			c-0.306,0.01-0.61,0.025-0.909,0.037l-0.279,1.438c52.955,61.709,3.938,137.094-15.221,201.244
			c-27.449,91.922-10.039,183.64-15.723,276.971c-4.788,78.681-4.514,159.153-8.294,238.887c-0.253,5.387-0.521,10.752-0.794,16.111
			c28.066,39.229,105.805-8.386,139.934-11.792l-0.031,1.044c8.259-1.017,16.971-0.416,26.139,1.96
			c31.305,8.114,97.862,57.261,122.045,80.192c26.277,24.923,51,83.591,67.397,114.63c19.993,37.854,37.172,77.187,43.491,120.228
			c9.432,64.208,2.482,129.532-3.48,193.852c-5.764,62.061-6.572,151.857-67.145,187.754c-12.253,7.262-24.522,12.679-36.725,16.43
			l0.016,0.641c35.961,88.09,122.508,116.922,204.947,148.826c26.537,10.273,53.739,31.031,82.379,29.646l1.043,0.852
			c-0.215-0.801-0.426-1.613-0.625-2.424c-0.01-0.041-0.021-0.08-0.031-0.121c-0.264-1.064-0.52-2.126-0.764-3.201
			c-0.052-0.244-0.104-0.486-0.156-0.729c-0.18-0.816-0.357-1.634-0.525-2.456c-0.068-0.331-0.131-0.669-0.195-1.004
			c-0.155-0.776-0.306-1.555-0.445-2.339c-0.057-0.315-0.117-0.635-0.172-0.95c-0.182-1.013-0.347-2.033-0.504-3.062
			c-0.012-0.069-0.023-0.137-0.035-0.212c-0.165-1.109-0.322-2.221-0.473-3.343c-0.037-0.311-0.076-0.629-0.117-0.938
			c-0.1-0.814-0.197-1.635-0.284-2.456c-0.044-0.389-0.085-0.772-0.122-1.161c-0.082-0.794-0.158-1.597-0.229-2.408
			c-0.034-0.36-0.067-0.716-0.096-1.076c-0.092-1.105-0.172-2.196-0.239-3.306c-0.008-0.062-0.012-0.122-0.016-0.187
			c-0.074-1.171-0.129-2.359-0.183-3.545c-0.015-0.365-0.026-0.732-0.038-1.098c-0.028-0.848-0.059-1.693-0.078-2.555
			c-0.006-0.423-0.015-0.844-0.021-1.273c-0.015-0.848-0.021-1.705-0.024-2.572c-0.001-0.385-0.003-0.768-0.001-1.156
			c0.002-1.238,0.016-2.485,0.043-3.748c0.996-46.384,15.899-98.533,50.994-130.128c0.617-0.557,1.229-1.083,1.838-1.599
			c0.182-0.145,0.356-0.292,0.532-0.439c0.444-0.365,0.888-0.726,1.332-1.075c0.185-0.144,0.368-0.284,0.549-0.425
			c0.476-0.361,0.95-0.717,1.421-1.057c0.125-0.091,0.253-0.188,0.381-0.279c1.254-0.891,2.493-1.699,3.72-2.418
			c0.04-0.027,0.08-0.051,0.12-0.072c0.578-0.339,1.157-0.658,1.729-0.963c0.065-0.036,0.131-0.07,0.19-0.105
			c0.598-0.311,1.192-0.611,1.787-0.887c0,0,0.004,0,0.006-0.003c0.627-0.282,32.473-22.8,67.54,53.069
			c3.957-16.918,10.907-71.068,14.387-119.941c-0.005-49.101-2.021-66.371-4.839-87.949c-7.074-54.122-33.82-137.456-53.051-196.65
			C5584.504,5544.268,5582.927,5491.545,5582.927,5491.545z"/>
		<path id="_x31_80627427" fill="none" stroke="#010101" stroke-width="64" d="M5345.947,4929.08
			c-52.456-60.618-118.609,56.594-89.791,106.838c15.928,27.799,62.931,61.474,93.936,39.295
			C5380.006,5053.822,5366.945,4953.348,5345.947,4929.08z"/>
		<path id="_x31_80627428" fill="none" stroke="#010101" stroke-width="64" d="M4980.466,4524.225
			c-13.425-15.646-34.464-17.814-48.728,0.694c-2.545,3.306-4.482,7.134-5.945,11.316c102.003,17.282-3.565,174.171-6.101,214.96
			c-4.306,69.173-2.105,189.506-2.118,256.637c-0.035,98.488-1.583,201.303-3.697,302.441c-0.908,43.24-1.912,86.174-2.951,128.331
			c-0.671,26.97,1.003,178.204,5.962,320.396c1.997,57.289,22.192,124.053,33.557,176.449c5.644-11.235,10.545-25.262,14.962-33.07
			c24.611-43.523,2.914-87.812-7.404-132.558c-21.187-91.909-9.307-186.392-18.875-279.867
			c-8.622-84.218-1.912-163.904,2.104-248.639c3.777-79.728,3.503-160.198,8.294-238.886
			c5.681-93.327-11.729-185.043,15.725-276.966C4984.403,4661.316,5033.42,4585.93,4980.466,4524.225z"/>
		<path id="_x31_80627430" fill="none" stroke="#010101" stroke-width="64" d="M5692.205,6125.688
			c-12.184-27.158-26.439-77.373-44.865-116.891l-0.004,0.006l0.004-0.006c-17.539-37.6-38.852-65.521-65.751-54.691
			c0,0.002,0,0.006,0,0.006c-0.618,0.248-1.243,0.522-1.87,0.811c-0.001,0.002-0.001,0.002-0.001,0.002
			c-0.598,0.281-1.197,0.572-1.79,0.888c-0.064,0.033-0.127,0.069-0.19,0.101c-0.575,0.305-1.153,0.629-1.73,0.973
			c-0.04,0.021-0.08,0.037-0.118,0.061c-1.232,0.73-2.471,1.532-3.723,2.422c-0.127,0.092-0.253,0.191-0.381,0.283
			c-0.47,0.338-0.945,0.692-1.416,1.051c-0.184,0.145-0.369,0.283-0.555,0.43c-0.445,0.351-0.885,0.709-1.331,1.077
			c-0.176,0.146-0.352,0.29-0.532,0.438c-0.611,0.514-1.221,1.044-1.838,1.598c-35.093,31.596-49.998,83.744-50.995,130.127
			c-0.026,1.262-0.036,2.509-0.042,3.744c-0.003,0.39,0.002,0.773,0.002,1.16c0.001,0.863,0.012,1.724,0.023,2.574
			c0.007,0.428,0.016,0.854,0.023,1.275c0.021,0.855,0.047,1.703,0.078,2.553c0.011,0.363,0.021,0.733,0.036,1.097
			c0.051,1.189,0.11,2.375,0.185,3.547c0.002,0.06,0.008,0.12,0.012,0.183c0.07,1.111,0.151,2.211,0.24,3.303
			c0.031,0.369,0.064,0.719,0.097,1.08c0.073,0.811,0.147,1.61,0.229,2.414c0.039,0.388,0.078,0.77,0.121,1.153
			c0.087,0.819,0.188,1.642,0.287,2.459c0.039,0.308,0.077,0.628,0.116,0.938c0.146,1.125,0.307,2.235,0.473,3.34
			c0.013,0.072,0.025,0.145,0.036,0.219c0.156,1.025,0.326,2.05,0.503,3.06c0.054,0.318,0.11,0.632,0.171,0.946
			c0.141,0.787,0.287,1.564,0.442,2.342c0.069,0.336,0.131,0.669,0.198,1.002c0.17,0.826,0.345,1.645,0.526,2.455
			c0.05,0.246,0.101,0.487,0.157,0.727c0.246,1.074,0.496,2.144,0.762,3.206c0.012,0.038,0.021,0.079,0.031,0.118
			c5.641,22.503,16.071,41.762,30.011,60.947c0.137-0.107,0.271-0.223,0.398-0.33c0.003-0.005,0.005-0.005,0.005-0.008
			c0.863-0.703,1.71-1.433,2.512-2.174c8.371-7.797,15.549-19.43,20.323-29.92c7.149-15.687,21.472-21.023,36.716-25.968
			c2.076-0.675,4.166-1.304,6.264-1.913c0.057-0.02,0.116-0.035,0.173-0.051c0.473-0.139,0.952-0.27,1.427-0.405
			c1.228-0.35,2.451-0.688,3.689-1.015c0.031-0.009,0.064-0.02,0.098-0.029c0.328-0.083,0.662-0.168,0.99-0.254
			c1.318-0.344,2.645-0.68,3.969-1c0.037-0.01,0.072-0.019,0.105-0.025c0.307-0.074,0.609-0.146,0.912-0.219
			c1.301-0.308,2.603-0.611,3.912-0.901c0.076-0.02,0.152-0.036,0.225-0.052c0.709-0.152,1.414-0.307,2.125-0.457
			c0.897-0.19,1.792-0.379,2.692-0.562c0.085-0.015,0.172-0.031,0.251-0.052c0.66-0.134,1.326-0.262,1.988-0.389
			c0.93-0.178,1.859-0.354,2.793-0.524c0.098-0.023,0.203-0.039,0.304-0.06c0.869-0.156,1.741-0.311,2.618-0.461
			c0.701-0.123,1.402-0.248,2.104-0.361c0.131-0.02,0.257-0.043,0.383-0.063c0.995-0.165,1.994-0.317,2.991-0.476
			c0.006,0,0.015-0.003,0.021-0.003c0.563-0.09,1.126-0.177,1.691-0.259c0.144-0.021,0.281-0.045,0.425-0.07
			c1.037-0.149,2.081-0.297,3.124-0.441c0.043-0.005,0.082-0.01,0.123-0.014c0.485-0.068,0.971-0.141,1.457-0.207
			c0.149-0.016,0.3-0.039,0.451-0.061c1.129-0.15,2.26-0.289,3.39-0.43c0.051-0.004,0.093-0.01,0.146-0.016
			c0.381-0.049,0.765-0.1,1.146-0.145c0.16-0.017,0.321-0.037,0.486-0.061c1.438-0.172,2.873-0.332,4.314-0.488
			c0.057-0.004,0.112-0.011,0.168-0.018c0.041-0.002,0.084-0.007,0.123-0.016c0.194-0.02,0.39-0.042,0.581-0.061
			c1.459-0.156,2.922-0.297,4.388-0.438c0.141-0.011,0.285-0.028,0.432-0.042c0.139-0.015,0.281-0.033,0.428-0.045
			c0.425-0.039,0.848-0.072,1.275-0.11c1.184-0.109,2.375-0.214,3.565-0.312c0.025-0.001,0.054-0.005,0.079-0.003
			c0.105-0.01,0.213-0.02,0.323-0.028c0.618-0.056,1.233-0.095,1.854-0.147c1.137-0.087,2.268-0.17,3.399-0.258
			c0.685-0.045,1.368-0.094,2.048-0.137c1.076-0.07,2.152-0.141,3.229-0.207c0.705-0.042,1.413-0.082,2.115-0.123
			c1.062-0.061,2.124-0.119,3.191-0.177c0.28-0.011,0.562-0.03,0.848-0.044L5692.205,6125.688z"/>
		<path id="_x31_80627432" fill="none" stroke="#010101" stroke-width="64" d="M5339.408,5563.697
			c-6.321-43.043-23.504-82.375-43.493-120.229c-16.397-31.04-41.121-89.711-67.397-114.636
			c-22.686-21.505-82.666-66.092-115.844-78.226c-2.189-0.801-4.262-1.456-6.201-1.957c-0.188-0.051-24.079-2.105-24.265-2.156
			c15.12,23.874,30.944,55.995,38.978,88.156c7.01,28.046,7.385,55.812,5.381,82.109c-0.053,0.021-0.101,0.041-0.156,0.062
			c-1.64,23.162-4.834,74.04-2.211,86.231c3.002,13.984,5.119,43.935,3.578,61.378c0.162,0.065,0.324,0.137,0.484,0.201
			c-20.935,92.664-3.697,148.98,8.752,192.822c4.746,16.713,23.535,68.264,85.412,120.032c1.891,1.581,39.984,27.948,43.768,29.621
			c7.105,3.14,23.264,10.392,29.108,14.997c1.546-2.725,13.333-20.84,14.7-23.689c20.34-42.371,21.957-98.179,25.922-140.872
			C5341.893,5693.229,5348.843,5627.902,5339.408,5563.697z"/>
		<path id="_x31_80627431" fill="none" stroke="#010101" stroke-width="64" d="M5277.727,5912.729
			c-4.335-1.913-8.43-3.722-11.532-5.621c-13.03-7.974-26.259-16.856-40.429-27.146c-46.261-33.577-79.283-83.549-95.504-144.519
			c-14.16-53.229-14.844-113.662-2-170.811c-0.162-0.064-0.323-0.136-0.484-0.201c1.541-17.443-0.576-47.394-3.578-61.378
			c-2.623-12.191,0.571-63.069,2.211-86.231c0.056-0.021,0.104-0.041,0.156-0.062c6.082-59.42-11.606-127.455-44.358-170.264
			c-18.577,1.734-34.904,11.582-49.031,27.934c-63.944,74.057-71.452,233.544-72.442,285.525
			c-0.418,21.781-0.818,44.818-0.533,68.342c0.879,72.357,8.316,149.37,42.19,208.982
			c55.097,96.969,161.313,170.284,266.393,108.021c10.536-6.244,19.263-14.125,26.521-23.199
			C5291.375,5918.768,5282.455,5914.822,5277.727,5912.729z"/>
		<path id="_x31_80627429" fill="none" stroke="#010101" stroke-width="64" d="M6327.399,5516.641
			c-72.938-51.895-114.134-59.045-163.359-99.175c-58.905-48.023-113.824-99.381-161.424-159.154
			c-57.485-72.2-110.286-107.577-175.006-173.612c-10.06-10.262-25.104,21.413-39.36,44.889
			c-35,57.637-87.52,161.295-149.564,224.705c-1.041,1.07-2.098,2.121-3.158,3.162c-0.002,0.003-0.004,0.006-0.006,0.009
			c-1.453,1.424-2.921,2.817-4.409,4.194c0,0-0.001,0-0.003,0c-0.741,0.691-1.479,1.365-2.223,2.039
			c-0.006,0.006-0.007,0.009-0.013,0.015c-1.474,1.329-2.957,2.643-4.468,3.932c0.002,0.005-0.003,0.005-0.007,0.007
			c-0.634,0.539-1.268,1.067-1.903,1.602c-2.49,2.086-5.023,4.119-7.588,6.097c-0.273,0.21-0.539,0.417-0.813,0.628
			c-0.007,0.005-0.015,0.011-0.019,0.016c-0.486,0.373-0.967,0.74-1.454,1.107c-0.003,0-0.003,0-0.003,0
			c-0.045,0.036-0.09,0.068-0.137,0.107c-1.135,0.854-2.271,1.688-3.416,2.521c-0.004,0.002-0.005,0.006-0.008,0.004
			c-1.113,0.809-2.232,1.604-3.356,2.391c-0.003,0.002-0.003,0.002-0.006,0.002c-0.722,0.501-1.453,0.998-2.181,1.497
			c-0.463,0.321-0.932,0.64-1.398,0.954c0,0-0.002,0-0.006,0.003c-0.582,0.391-1.16,0.774-1.744,1.161
			c-0.012,0.011-0.029,0.023-0.046,0.03c-0.444,0.294-0.894,0.583-1.338,0.878c-0.765,0.5-1.534,0.996-2.306,1.49
			c-0.012,0.01-0.023,0.02-0.039,0.021c-0.5,0.324-1.006,0.637-1.51,0.953c-0.721,0.451-1.441,0.902-2.164,1.352
			c-0.001,0-0.004,0-0.006,0.004c-0.254,0.152-0.506,0.303-0.759,0.455c-0.862,0.525-1.724,1.052-2.59,1.561
			c-9.05,16.815-6.542,54.824-7.144,73.576c-3.759,116.131,60.146,217.323,73.408,330.107c9.161,77.906,6.584,100.242-4.392,183.311
			c-0.865,6.537-3.178,21.966-4.144,29.318c18.426,39.518,32.684,89.732,44.865,116.891l2.416,2.51
			c-0.287,0.013-0.566,0.033-0.851,0.046c0.019-0.003,0.03-0.003,0.044-0.003c18.973-0.988,38.014-1.104,56.509-1.207
			c0.269,0.002,0.542-0.002,0.81-0.004c2.143-0.011,4.293-0.02,6.42-0.035c0.184,0,0.36,0,0.541,0.004
			c0.277-0.01,0.549-0.01,0.824-0.014c2.703-0.016,5.395-0.033,8.068-0.059c43.514-0.4,105.734-2.763,148.412,4.52
			c10.033-24.963,8.736-64.533,11.36-91.01c10.116-102.246,15.463-133.205,93.491-198.105
			c59.12-49.174,155.785,2.885,147.814-24.486c-16.862-57.885-10.989-89.629,6.683-124.648
			c17.843-35.335,44.533-64.366,69.917-94.603C6268.491,5570.211,6374.347,5547.182,6327.399,5516.641z"/>
		<path id="_x31_80627526" fill="none" stroke="#010101" stroke-width="64" d="M4904.268,4496.074
			c-0.012,10.754,174.922,5.52,185.985,4.777c55.468-3.746,81.153-3.729,127.171-41.724c21.301-18.247-30.507-38.335-56.948-48.515
			c-121.927-46.955-259.194-77.008-256.064-77.099C4904.411,4333.515,4904.268,4495.98,4904.268,4496.074z"/>
		<path id="_x31_80627527" fill="none" stroke="#010101" stroke-width="64" d="M4902.664,6243.362
			c44.758-0.467,128.858-0.551,176.597-2.548c61.841-2.586,170.694-3.857,295.973-8.665c82.626-3.169,83.878-18.618,27.862-57.597
			c-100.199-69.688-234.493-91.531-349.76-114.08c-52.025-10.188-121.77-26.723-150.494-7.975"/>
		<path id="_x31_80627528" fill="none" stroke="#010101" stroke-width="64" d="M5219.246,3833.674
			c88.404,92.129,156.719,134.057,130,285.804c-10.836,61.468-76.137,161.56-145.459,179.214
			c-78.156,19.896-123.451-74.9-144.54-134.8c-42.478-120.711-33.298-227.993-42.903-339.425
			c-3.382-39.285-6.537-82.603-18.669-122.348c-13.735-45.01-37.466-110.572-44.404-159.82
			c-5.655-40.239,27.406-44.181,59.591-16.336c34.149,29.538,56.32,96.518,73.15,138.639
			C5113.15,3732.586,5168.853,3781.154,5219.246,3833.674z"/>
		<path id="_x31_80627529" fill="none" stroke="#010101" stroke-width="64" d="M5863.127,3813.172
			c1.652-21.284-5.328-65.624-22.557-83.51c-36.795-38.199-98.418,0.967-137.239,27.332
			c-50.226,34.162-75.046,76.736-82.753,171.875c5.699,44.15,45.328-36.492,60.178-58.556c44.716-66.487,58.217-16.799,62.32,55.476
			c0.007,0.133,0.017,0.274,0.021,0.41c5.476,101.475-122.191,226.869-74.516,321.883c13.658,45.83,121.625-216.04,147.416-303.84
			C5827.246,3905.92,5859.678,3857.536,5863.127,3813.172z"/>
		<path id="_x31_80627530" fill="none" stroke="#010101" stroke-width="64" d="M6134.296,3709.707
			c-3.1-45.355-41.725-73.783-81.958-85.039c-15.01-4.21-28.297,0.823-39.705,13.033c-3.559,4.248-7.159,8.832-10.256,13.69
			c-1.143,1.85-2.255,3.777-3.35,5.788c-12.793,23.552-22.258,57.921-28.039,98.561c0.621,0.357,1.189,0.793,1.711,1.306
			c-0.923,2.437-1.865,4.746-2.82,6.953c-3.081,24.101-4.908,50.199-5.415,77.425c-1.317,70.941,15.177,157.026,19.839,229.371
			c5.003,77.645,7.336,106.151,14.857,183.626c2.688,27.708,10.885,50.502,35.022,47.405c43.213-5.528,29.917-84.325,30.159-115.667
			c0.567-71.62,24.938-169.834,39.69-257.609C6111.697,3882.978,6139.124,3780.147,6134.296,3709.707z"/>
		<path id="_x31_80627531" fill="none" stroke="#010101" stroke-width="64" d="M7158.834,5080.029
			c-76.009,3.4-180.366,3.487-287.416-32.337c-73.392-24.56-182.159-89.341-251.623-140.965
			c-64.245-47.739-153.97-97.317-125.733-155.592c11.307-36.853,205.643,83.438,321.142,132.628
			c120.191,51.189,229.516,93.812,283.822,130.018C7121.447,5028.729,7204.198,5077.988,7158.834,5080.029z"/>
		<path id="_x31_80627532" fill="none" stroke="#010101" stroke-width="64" d="M7917.88,4299.701
			c-4.303,22.242-9.437,44.959-15.394,68.068c-8.354,11.834-8.146,31.562-12.739,45.297
			c-25.849,77.518-53.652,156.759-86.862,232.409c-22.966,49.95-48.261,98.909-75.433,145.414
			c-6.7,10.189-16.781,26.378-26.719,42.396c-0.074,0.078-0.075,0.158-0.147,0.239c-16.178,22.188-34.908,41.927-55.368,59.514
			c-83.406,71.671-196.312,108.088-289.144,131.715c-83.889,21.384-66.736,3.124-156.536-2.518
			c-36.293-2.242-29.207-25.284,30.088-26.029c77.325-0.979,171.041-3.878,233.664-29.098
			c92.167-37.161,184.971-112.163,243.73-189.118c76.895-100.478,158.133-345.679,158.133-345.679
			c18.081-51.377,33.087-107.296,45.24-166.126l13.825,2.899L7917.88,4299.701z"/>
		<path id="_x31_80627533" fill="none" stroke="#010101" stroke-width="64" d="M7924.221,4269.088l-13.827-2.898
			c20.232-98.209,32.278-204.547,36.584-311.592c3.074-74.617,1.161-197.079-32.228-342.795
			c-32.41-141.548-116.184-320.716-116.184-320.716c-69.891-165.751-133.405-316.387-237.514-450.582
			c0,0-114.919-148.88-235.278-259.104c-129.075-118.193-194.715-161.806-335.479-231.773
			c-145.51-61.57-235.962-92.898-336.106-124.144c-71.223-22.208-325.681-97.926-525.937-121.187
			c-118.871-13.83-230.936,3.387-285.586,21.81c-50.596,16.995-118.797,62.77-177.377,103.434
			c-38.275,26.562-76.327,57.374-102.793,70.527c-36.917,18.345-154.18,52.396-275.567,77.122
			c-105.005,21.41-202.646,44.692-275.624,56.543c-49.38,8.01-102.594,13.035-102.594,13.035l-2.098-170.204
			c0,0,36.368,2.472,85.297,0.734c0.301-0.002,0.678-0.007,0.977-0.007c17.732-0.232,36.146-1.087,50.654-3.381
			c0.072-0.002,0.148-0.002,0.223-0.002c43.363-3.934,89.661-10.213,127.016-13.863c29.012-2.882,58.098-9.634,86.062-18.77
			c61.118-19.871,116.984-50.918,155.63-76.167c20.078-13.094,35.494-24.601,44.518-32.262
			c22.865-19.309,40.994-41.051,56.948-63.706c12.341-17.67,23.403-35.794,34.241-53.606c8.656-14.233,17.312-28.391,26.416-41.934
			c4.213-6.303,8.576-12.53,13.168-18.531v-0.075c2.484-3.349,5.042-6.62,7.672-9.816c37.841-46.75,88.6-81.232,182.765-81.12
			c86.118,0.031,223.915,31.336,332.104,59.031l0.003,0.076c39.671,10.18,75.429,19.931,103.077,27.429
			c84.9,23.097,152.814,43.635,227.942,67.977v0.076c35.687,11.607,73.101,24.129,114.645,38.237
			c157.237,53.421,288.856,105.441,458.526,199.609c7.658,4.266,15.396,8.686,23.211,13.26
			c92.085,53.907,191.439,128.411,295.361,221.753c90.553,81.312,163.061,174.226,215.983,242.092l14.108,17.985
			c59.826,76.315,110.104,157.045,152.638,238.149c109.453,208.196,168.104,418.224,207.651,559.704l5.703,7.845l0.076-0.002
			l8.106,11.148c1.95,6.945,3.819,13.894,5.692,20.92c-1.954,0.641-3.91,1.426-5.715,2.298c-0.528,0.238,8.704,15.782,11.244,30.849
			c4.561,26.967,13.469,64.256,19.681,90.201c6.499,42.422,10.672,85.403,12.36,127.792c2.127,55.922-0.325,110.881-8.265,161.859
			c-12.992,74.624-24.856,148.075-38.754,221.776c-0.001,0.075-0.079,0.075-0.079,0.075L7924.221,4269.088z"/>
		<path id="_x31_80627525" fill="none" stroke="#010101" stroke-width="64" d="M5851.689,2532.207
			c-66.275,172.048-68.162,358.441-51.221,538.187c15.692,166.379,31.52,313.751-22.959,456.7
			c-4.109,10.781-11.265,20.799-17.895,30.021c-17.79,24.716-38.905,45.18-61.031,65.965
			c-32.494,30.525-58.105,60.919-100.52,76.857c-11.039,4.15-30.561,10.264-21.496-8.125c7.303-14.812,19.499-26.443,30.877-37.944
			c12.317-12.456,20.041-24.555,28.791-39.946c15.535-27.323,32.348-54.796,44.202-84.055
			c48.006-118.468,36.185-193.211,31.596-313.634c-6.847-179.817-25.341-356.331-85.942-523.461
			c-27.717-76.438-81.901-153.502-131.707-218.271c-8.84-11.501-97.437-86.821-93.448-100.889
			c13.215-46.529,109.251-35.802,202.993-100.398c38.867-26.764,87.759-63.788,138.505-95.33
			c25.3-15.739,48.898-30.737,77.677-41.942c130.534-50.768,176.611-7.329,157.756,64.403
			C5960.047,2268.171,5902.54,2400.231,5851.689,2532.207z"/>
		<path id="_x31_80627523" fill="none" stroke="#010101" stroke-width="64" d="M4902.863,6026.064
			c9.807-0.83,53.455,1.474,55.134-31.433c2.589-50.444-38.228-152.913-41.112-235.625c-4.959-142.193-6.633-293.43-5.962-320.396
			c1.04-42.161,2.042-85.097,2.952-128.334c2.116-101.142,3.662-203.954,3.696-302.444c0.016-67.131-2.188-187.464,2.116-256.637
			c2.695-43.334,121.682-217.695-15.458-216.508"/>
		<path id="_x31_80627524" fill="none" stroke="#010101" stroke-width="64" d="M4904.973,3728.715
			c77.022,22.062,65.913,168.623,71.658,230.777c6.957,75.451,15.941,139.074,24.371,213.284
			c4.24,37.31,27.554,111.308-5.127,132.868c-16.57,10.949-71.37,7.309-91.444,5.953"/>
	</g>
</g>
</svg>
