<?xml version="1.0" encoding="utf-8"?>
<!-- Generator: Adobe Illustrator 16.0.0, SVG Export Plug-In . SVG Version: 6.00 Build 0)  -->
<!DOCTYPE svg PUBLIC "-//W3C//DTD SVG 1.1//EN" "http://www.w3.org/Graphics/SVG/1.1/DTD/svg11.dtd">
<svg version="1.1" id="Layer_1" xmlns="http://www.w3.org/2000/svg" xmlns:xlink="http://www.w3.org/1999/xlink" x="0px" y="0px"
	 width="9744.01px" height="6823.46px" viewBox="0 0 9744.01 6823.46" enable-background="new 0 0 9744.01 6823.46"
	 xml:space="preserve">
<g transform="scale(1.0)">
	<g id="_x31_80623029" transform=" scale(1.0, 1.0)">
		<path id="_x31_80623031" fill="none" stroke="#010101" stroke-width="64" d="M4925.279,5488.476
			c42.373,2.103,85.665,49.973,122.045,68.115c385.25,192.2,558.939,744.354,1027.973,758.519
			c210.487,6.355,545.109,34.559,774.742-113.027c117.746-75.682,253.342-267.763,366.761-463.479
			c35.126-60.603,56.789-153.174,83.765-218.063c24.547-59.055,64.061-93.017,106.393-128.143
			c63.728-52.863,120.4-139.379,179.881-196.068c84.182-80.23,195.658-265.45,307.932-418.141
			c124.637-169.512,148.637-294.385,193.494-413.758c61.898-164.699,102.412-284.922,138.123-413.455
			c59.428-213.908,110.291-450.283,124.973-570.956c23.344-191.922,25.549-287.782-20.326-535.569
			c-52.432-283.145-150.129-577.366-333.869-815.659c-230.961-299.549-574.986-522.586-877.316-658.053
			c-286.9-128.556-727.777-318.676-974.281-387.359c-186.98-52.105-878.611-139.914-1109.628,88.592
			c-49.583,49.047-114.866,125.375-132.848,216.453l8.688,1645.134L4925.279,5488.476z"/>
		<path id="_x31_80623032" fill="none" stroke="#010101" stroke-width="64" d="M7263.775,5625.145
			c12.4-36.854,23.996-73.84,36.787-104.608c24.544-59.056,64.061-93.014,106.395-128.14
			c63.725-52.865,120.4-139.381,179.881-196.07c84.18-80.23,195.658-265.45,307.928-418.141
			c124.639-169.511,148.637-294.387,193.496-413.758c61.9-164.699,102.412-284.922,138.119-413.453
			c59.432-213.912,110.295-450.286,124.975-570.959c23.346-191.923,25.553-287.78-20.324-535.569
			c-52.432-283.145-150.127-577.365-333.871-815.659c-230.959-299.548-574.984-522.587-877.316-658.051
			c-286.901-128.557-727.773-318.678-974.279-387.36c-186.982-52.104-878.609-139.915-1109.626,88.592
			c-49.589,49.046-111.95,125.359-129.929,216.441l4.58,1651.006c121.131,3.369,241.27-6.741,352.441-62.554
			c203.822-102.339,283.001-295.564,411.327-467.097c133.038-177.833,398.742-8.316,554.765,55.158
			c337.562,137.335,663.074,309.696,846.264,649.205c82.201,152.343,108.224,315.749,115.584,531.094
			c4.571,133.568-26.592,208.37-32.379,394.116c-2.623,167.566,9.091,322.608-3.927,420.23c0,0-17.923,102.638-64.171,200.435
			c-52.53,111.084-111.64,205.43-180.529,306.143c-38.576,56.401-81.797,113.748-98.609,172.727
			c-14.924,52.332-4.202,105.271-23.709,170.207c-33.867,112.74,155.775,152.218,241.156,192.32
			C7108.754,5538.95,7187.164,5580.969,7263.775,5625.145z"/>
		<path id="_x31_80623095" fill="none" stroke="#010101" stroke-width="64" d="M6043.11,1078.429
			c-86.712-17.462-175.017-15.254-263.466-12.971l-2.125-136.855c159.337,11.136,298.513,35.439,368.025,54.795
			c195.16,54.388,512.194,184.873,778.195,300.703l-55.6,112.336c-5.477-2.372-10.954-4.594-16.506-6.891
			c-146.008-59.757-293.473-115.755-439.26-175.965C6293.004,1164.256,6170.179,1104.071,6043.11,1078.429z"/>
		<path id="_x31_80623094" fill="none" stroke="#010101" stroke-width="64" d="M6127.535,1446.324
			c-111.079-45.242-226.981-81.602-343.598-112.782l-4.298-268.084c88.452-2.284,176.759-4.491,263.468,12.971
			c127.071,25.643,249.895,85.827,369.265,135.153c145.788,60.208,293.252,116.208,439.263,175.965
			c5.551,2.298,11.025,4.519,16.502,6.891l-159.424,321.727c0,0-0.072,0.076-0.073,0.001
			c-47.257-26.906-93.772-53.815-138.147-81.112C6432.4,1552.188,6276.354,1506.968,6127.535,1446.324z"/>
		<path id="_x31_80623093" fill="none" stroke="#010101" stroke-width="64" d="M6508.309,2110.573
			c-223.723-108.332-474.851-217.417-716.603-285.432l-0.003-0.076l-7.762-491.524c116.613,31.18,232.518,67.54,343.596,112.782
			c148.819,60.643,304.865,105.864,442.959,190.728c44.377,27.296,90.891,54.206,138.146,81.112l-195.519,394.712h-0.073
			C6511.494,2112.133,6509.863,2111.316,6508.309,2110.573z"/>
		<path id="_x31_80623092" fill="none" stroke="#010101" stroke-width="64" d="M5791.706,1825.141
			c241.752,68.014,492.878,177.098,716.603,285.432c1.555,0.743,3.186,1.558,4.739,2.3l-157.086,317.138
			c-112.967-52.96-229.017-103.652-341.884-151.285c-82.445-34.821-150.413-69.039-216.08-59.151L5791.706,1825.141z"/>
		<path id="_x31_80623091" fill="none" stroke="#010101" stroke-width="64" d="M6229.062,2464.922
			c-115.146-46.872-290.042-151.493-427.284-131.46l-2.21-12.894L5798,2219.575c65.668-9.888,133.635,24.333,216.08,59.151
			c112.865,47.632,228.918,98.324,341.882,151.285l-36.093,72.757l-0.072,0.227
			C6289.744,2489.953,6259.476,2477.287,6229.062,2464.922z"/>
		<path id="_x31_80623100" fill="none" stroke="#010101" stroke-width="64" d="M5203.609,1082.333
			c-107.584,71.197-149.448,225.325-163.057,347.636c-7.967,71.178-11.725,142.783-12.896,214.675l-123.363-134.393l-1.171-221.803
			c17.978-91.118,83.296-167.412,132.878-216.455c123.34-122.009,377.932-153.864,616.908-149.088
			c42.318,0.819,84.125,2.843,124.605,5.699l2.125,136.854c-85.793,2.27-171.807,4.613-256.736-10.755
			C5415.287,1035.255,5300.741,1018.095,5203.609,1082.333z"/>
		<path id="_x31_80623099" fill="none" stroke="#010101" stroke-width="64" d="M5194.248,1826.152l-166.589-181.508
			c1.169-71.892,4.925-143.497,12.894-214.675c13.608-122.311,55.477-276.439,163.057-347.635
			c97.132-64.237,211.681-47.079,319.3-27.631c84.926,15.368,170.94,13.024,256.735,10.755l4.297,268.084
			c-42.521-11.399-85.111-22.122-127.623-32.32c-177.818-42.626-307.527-21.732-394.153,158.078
			C5210.598,1566.283,5195.571,1699.105,5194.248,1826.152z"/>
		<path id="_x31_80623098" fill="none" stroke="#010101" stroke-width="64" d="M5420.16,2026.842
			c0.979,17.329,2.246,33.756,3.736,49.58l-229.648-250.272c1.323-127.045,16.351-259.868,67.917-366.851
			c86.627-179.812,216.335-200.705,394.153-158.078c42.512,10.198,85.102,20.922,127.623,32.319l7.767,491.526
			c-12.354-3.459-24.7-6.845-36.976-10.078C5568.385,1765.58,5407.404,1792.945,5420.16,2026.842z"/>
		<path id="_x31_80623097" fill="none" stroke="#010101" stroke-width="64" d="M5653.984,2327.138l-230.092-250.718
			c-1.486-15.825-2.756-32.25-3.733-49.581c-12.759-233.895,148.227-261.26,334.57-211.852c12.275,3.234,24.625,6.618,36.974,10.078
			v0.076l6.294,394.434c-41.174,6.152-81.44,29.708-123.848,81.266C5667.105,2309.358,5660.434,2318.176,5653.984,2327.138z"/>
		<path id="_x31_80623096" fill="none" stroke="#010101" stroke-width="64" d="M5653.984,2327.138
			c6.449-8.962,13.124-17.78,20.167-26.296c42.407-51.557,82.677-75.114,123.849-81.266l1.567,100.992l2.207,12.894
			c-37.409,5.382-72.038,20.129-101.872,47.829l-0.988-5.174L5653.984,2327.138z"/>
		<path id="_x31_80623078" fill="none" stroke="#010101" stroke-width="64" d="M8347.992,3402.204h-0.074l-139.434-3.367
			c0.928-6.232,1.855-12.389,2.781-18.625c17.102-117.751,41.275-252.125,33.336-371.166
			c-10.27-154.595-46.027-312.428-101.107-464.375l100.209-40.993c38.107,112.498,66.332,227.526,87.312,340.791
			c45.91,247.823,43.686,343.658,20.328,535.58c-0.846,7.057-1.842,14.415-2.908,22.225L8347.992,3402.204z"/>
		<path id="_x31_80623077" fill="none" stroke="#010101" stroke-width="64" d="M7967.846,3206.63
			c-11.775-189.105-54.502-365.359-122.773-539.972l298.42-121.987c55.078,151.949,90.84,309.784,101.109,464.378
			c7.939,119.039-16.234,253.414-33.336,371.163c-0.926,6.234-1.854,12.39-2.783,18.625l-227.096-5.516
			C7977.918,3309.301,7969.785,3237.985,7967.846,3206.63z"/>
		<path id="_x31_80623076" fill="none" stroke="#010101" stroke-width="64" d="M7749.137,2705.901l95.936-39.244
			c68.271,174.613,111,350.868,122.773,539.972c1.941,31.353,10.072,102.671,13.541,186.691l-83.16-2.022
			c-8.186-137.499-34.299-273.249-70.445-405.94C7800.07,2883.611,7777.959,2794.362,7749.137,2705.901z"/>
		<path id="_x31_80623075" fill="none" stroke="#010101" stroke-width="64" d="M7400.098,2848.576l348.969-142.674h0.07
			c28.822,88.461,50.93,177.711,78.643,279.457c36.146,132.692,62.262,268.443,70.447,405.94l-337.281-8.14
			c-7.16-110.94-25.165-220.622-61.911-326.897C7474.065,2983.913,7440.248,2914.612,7400.098,2848.576z"/>
		<path id="_x31_80623074" fill="none" stroke="#010101" stroke-width="64" d="M7283.928,3376.419
			c-45.431-143.223-107.258-286.883-184.756-404.868l300.852-122.975l0.076-0.001c40.148,66.039,73.966,135.338,98.938,207.687
			c36.743,106.277,54.752,215.958,61.912,326.899L7283.928,3376.419z"/>
		<path id="_x31_80623073" fill="none" stroke="#010101" stroke-width="64" d="M7009.94,3008.056v-0.074l89.229-36.43
			c77.495,117.986,139.324,261.645,184.755,404.868l-117.649-2.809l-1.546,0.308c-17.557-93.851-45.47-178.415-89.396-259.74
			C7055.201,3076.843,7033.304,3041.546,7009.94,3008.056z"/>
		<path id="_x31_80623084" fill="none" stroke="#010101" stroke-width="64" d="M7825.926,1977.397
			c-67.643-84.122-152.254-151.645-243.76-210.198v-0.075l64.992-81.996l0.293-0.453
			c129.311,99.846,250.062,214.894,349.693,344.164c110.266,142.945,189.473,306.092,246.557,474.84l-100.209,40.992
			C8068.33,2337.229,7957.195,2140.562,7825.926,1977.397z"/>
		<path id="_x31_80623083" fill="none" stroke="#010101" stroke-width="64" d="M7702.527,2381.245
			c-85.529-142.778-210.68-238.594-337.193-340.404l216.835-273.641c91.505,58.554,176.116,126.076,243.757,210.198
			c131.27,163.164,242.41,359.832,317.57,567.273l-298.422,121.989c-3.447-9.062-7.035-18.045-10.699-27.032
			C7794.643,2541.772,7756.387,2471.297,7702.527,2381.245z"/>
		<path id="_x31_80623082" fill="none" stroke="#010101" stroke-width="64" d="M7365.33,2040.841
			c126.518,101.812,251.668,197.626,337.193,340.404c53.863,90.052,92.117,160.527,131.848,258.384
			c3.666,8.984,7.254,17.97,10.701,27.031l-95.936,39.243h-0.074c-22.369-68.835-48.871-137.125-85.293-210.463
			c-64.336-129.614-210.502-246.474-319.34-343.428c-13.355-11.859-26.561-23.417-39.764-34.674l60.59-76.493
			C7365.258,2040.842,7365.258,2040.842,7365.33,2040.841z"/>
		<path id="_x31_80623081" fill="none" stroke="#010101" stroke-width="64" d="M7400.022,2848.574
			c-88.718-145.912-208.587-275.673-332.931-385.898c-7.047-6.265-14.17-12.453-21.363-18.567v-0.075l258.94-326.697
			c13.198,11.257,26.407,22.816,39.761,34.674c108.84,96.953,255.004,213.813,319.342,343.428
			c36.424,73.337,62.926,141.627,85.295,210.463l-348.969,142.674L7400.022,2848.574z"/>
		<path id="_x31_80623080" fill="none" stroke="#010101" stroke-width="64" d="M6839.385,2704.411l206.344-260.304
			c7.194,6.114,14.318,12.304,21.363,18.568c124.344,110.226,244.215,239.985,332.932,385.898l-300.852,122.975
			c-9.229-14.206-18.83-28.033-28.574-41.413c-61.515-84.38-142.179-159.354-231.213-225.649V2704.411z"/>
		<path id="_x31_80623079" fill="none" stroke="#010101" stroke-width="64" d="M7009.94,3007.981
			c-64.138-91.571-139.718-169.271-223.444-236.798l52.889-66.697c89.034,66.297,169.698,141.27,231.213,225.652
			c9.744,13.379,19.343,27.208,28.574,41.413L7009.94,3007.981z"/>
		<path id="_x31_80623090" fill="none" stroke="#010101" stroke-width="64" d="M7239.139,1580.578
			c-123.359-63.634-243.777-130.585-371-184.141l55.6-112.336l0.072,0c69.944,30.458,136.262,59.888,195.996,86.649
			c171.869,77.026,357.254,182.341,527.643,313.928l-0.295,0.452l-64.991,81.995
			C7471.912,1696.365,7351.613,1638.644,7239.139,1580.578z"/>
		<path id="_x31_80623089" fill="none" stroke="#010101" stroke-width="64" d="M6820.967,1706.969
			c-30.383-6.362-86.255-1.779-47.239,45.505l-1.169,2.034c-21.33-12.116-42.663-24.231-63.844-36.346l159.424-321.728
			c127.219,53.56,247.639,120.509,371,184.144c112.475,58.064,232.774,115.787,343.024,186.545l0.003,0.075L7365.33,2040.84
			c-0.072,0-0.072,0-0.072,0c-17.871-14.383-35.82-28.917-53.621-43.679C7189.559,1896.079,6995.21,1743.763,6820.967,1706.969z"/>
		<path id="_x31_80623088" fill="none" stroke="#010101" stroke-width="64" d="M7030.581,1911.128
			c-80.337-54.94-169.366-106.229-258.025-156.62l1.172-2.032c-39.018-47.285,16.856-51.869,47.239-45.505
			c174.243,36.793,368.592,189.108,490.672,290.192c17.799,14.76,35.746,29.295,53.619,43.679l-60.591,76.495
			C7216.844,2042.327,7131.523,1980.212,7030.581,1911.128z"/>
		<path id="_x31_80623087" fill="none" stroke="#010101" stroke-width="64" d="M7045.729,2444.034
			c-160.89-137.641-343.672-239.447-532.606-331.16l195.519-394.712c0,0.076,0.074,0,0.074,0
			c21.181,12.115,42.514,24.232,63.844,36.346c88.656,50.392,177.686,101.68,258.025,156.619
			c100.939,69.085,186.26,131.198,274.085,206.207L7045.729,2444.034z"/>
		<path id="_x31_80623086" fill="none" stroke="#010101" stroke-width="64" d="M6476.705,2488.183
			c-39.682-19.669-80.031-39.109-120.743-58.171l157.086-317.139h0.074c188.932,91.714,371.717,193.52,532.606,331.158v0.076
			l-206.344,260.304C6724.549,2618.669,6595.76,2547.261,6476.705,2488.183z"/>
		<path id="_x31_80623085" fill="none" stroke="#010101" stroke-width="64" d="M6786.496,2771.184
			c-138.825-112.097-299.803-196.012-466.703-268.188l0.072-0.225l36.097-72.758c40.716,19.063,81.062,38.501,120.747,58.17
			c119.051,59.081,247.838,130.489,362.674,216.229l0.002,0.075L6786.496,2771.184z"/>
		<path id="_x31_80623072" fill="none" stroke="#010101" stroke-width="64" d="M8347.992,3402.204l0.443,0.071
			c-15.232,107.838-52.912,285.952-98.578,461.415l-2.809-0.732h-0.078l-132.15-22.617
			c42.871-145.881,71.912-296.038,93.664-441.503l139.434,3.367H8347.992z"/>
		<path id="_x31_80623071" fill="none" stroke="#010101" stroke-width="64" d="M7870.275,3705.032
			c21.064,73.724,93.85-29.175,99.871-63.203c13.91-78.938,14.684-169.362,11.238-248.508l227.098,5.515
			c-21.754,145.466-50.795,295.621-93.666,441.502l-268.145-45.808C7855.084,3764.771,7863.125,3735.011,7870.275,3705.032z"/>
		<path id="_x31_80623070" fill="none" stroke="#010101" stroke-width="64" d="M7970.148,3641.831
			c-6.023,34.028-78.805,136.925-99.871,63.204c18.566-77.766,31.367-156.625,30.566-238.185
			c-0.279-25.211-1.152-50.419-2.613-75.548l83.158,2.021C7984.832,3472.47,7984.057,3562.891,7970.148,3641.831z"/>
		<path id="_x31_80623069" fill="none" stroke="#010101" stroke-width="64" d="M7556.727,3745.011
			c7.342-120.321,12.088-241.831,4.219-361.849l337.281,8.137c1.463,25.129,2.336,50.338,2.615,75.548
			c0.801,81.562-12.002,160.421-30.568,238.186c-7.148,29.979-15.189,59.738-23.602,89.498L7556.727,3745.011z"/>
		<path id="_x31_80623068" fill="none" stroke="#010101" stroke-width="64" d="M7364.639,3712.143
			c-2.244-33.678-12.977-65.964-20.256-102.164c-15.091-74.729-35.226-154.083-60.455-233.562l277.021,6.745
			c7.869,120.015,3.121,241.528-4.219,361.849l-192.092-32.792V3712.143z"/>
		<path id="_x31_80623067" fill="none" stroke="#010101" stroke-width="64" d="M7190.974,3645.261
			c-3.485-100.308-10.97-189.412-26.243-271.343l1.549-0.308l117.648,2.809c25.229,79.477,45.364,158.831,60.455,233.56
			c7.279,36.205,18.012,68.486,20.256,102.164l-170.879-29.157l-2.44-0.062C7191.551,3670.841,7191.413,3658.311,7190.974,3645.261z
			"/>
		<path id="_x31_80623105" fill="none" stroke="#010101" stroke-width="64" d="M5027.659,1644.644
			c-1.959,118.72,3.177,237.999,8.748,356.378l-122.609-89.451l-7.385,0.042l-2.12-401.361L5027.659,1644.644z"/>
		<path id="_x31_80623104" fill="none" stroke="#010101" stroke-width="64" d="M5036.407,2001.021
			c-5.571-118.379-10.707-237.658-8.747-356.378l166.588,181.508c-0.592,55.529,1.468,109.993,4.248,160.63
			c2.697,49.436,3.744,93.551,3.89,135.27L5036.407,2001.021z"/>
		<path id="_x31_80623103" fill="none" stroke="#010101" stroke-width="64" d="M5423.891,2076.422
			c6.824,75.299,17.258,136.174,11.107,215.444l-232.617-169.74c0,0,0,0,0-0.075c-0.146-41.719-1.189-85.836-3.889-135.271
			c-2.779-50.635-4.84-105.102-4.246-160.631L5423.891,2076.422z"/>
		<path id="_x31_80623102" fill="none" stroke="#010101" stroke-width="64" d="M5601.42,2413.27l-166.422-121.404
			c6.15-79.27-4.281-140.145-11.107-215.444l230.094,250.719C5634.408,2354.41,5617.359,2383.469,5601.42,2413.27z"/>
		<path id="_x31_80623101" fill="none" stroke="#010101" stroke-width="64" d="M5647.596,2446.858l-7.334-5.362l-0.074,0.001
			l-38.768-28.227c15.938-29.801,32.988-58.86,52.562-86.129l44.932,48.979l0.988,5.173c-8.966,8.304-17.479,17.729-25.547,28.502
			C5665.191,2422.075,5656.248,2434.429,5647.596,2446.858z"/>
		<path id="_x31_80623110" fill="none" stroke="#010101" stroke-width="64" d="M5042.727,2525.797l-125.742-11.47l-7.381,0.04
			l-3.186-602.754l7.383-0.042l122.609,89.451c1.326,27.308,2.578,54.538,3.828,81.694
			C5047,2230.426,5042.829,2377.673,5042.727,2525.797z"/>
		<path id="_x31_80623109" fill="none" stroke="#010101" stroke-width="64" d="M5042.727,2525.797
			c0.103-148.124,4.273-295.37-2.49-443.081c-1.251-27.156-2.5-54.387-3.829-81.694l165.974,121.03c0,0.076,0,0.076,0,0.076
			c0.471,116.53-5.657,214.412,0.565,357.997c0.835,18.381,1.827,38.934,2.903,60.541L5042.727,2525.797z"/>
		<path id="_x31_80623108" fill="none" stroke="#010101" stroke-width="64" d="M5432.76,2315.666
			c-10.729,93.33-13.041,159.375-27.292,243.118l-199.618-18.12c-1.076-21.604-2.068-42.158-2.904-60.539
			c-6.225-143.586-0.094-241.467-0.564-358l232.617,169.742C5434.449,2299.598,5433.681,2307.557,5432.76,2315.666z"/>
		<path id="_x31_80623107" fill="none" stroke="#010101" stroke-width="64" d="M5405.47,2558.784
			c14.249-83.743,16.562-149.788,27.292-243.118c0.919-8.11,1.688-16.068,2.236-23.8l166.422,121.404
			c-27.566,51.476-51.875,105.184-80.404,156.065l-115.546-10.475C5405.544,2558.784,5405.47,2558.784,5405.47,2558.784z"/>
		<path id="_x31_80623106" fill="none" stroke="#010101" stroke-width="64" d="M5562.092,2573.086l-41.076-3.752
			c28.533-50.88,52.838-104.591,80.404-156.066l38.77,28.229l0.072-0.001l7.339,5.362c-29.536,42.031-56.925,84.802-84.618,126.823
			l-0.814-0.596L5562.092,2573.086z"/>
		<path id="_x31_80623115" fill="none" stroke="#010101" stroke-width="64" d="M5023.711,2910.09
			c6.251-18.943,16.486-38.885,5.857-51.357c-38.936-45.561-81.355,73.679-53.703,80.356c1.188,0.295,2.296,0.514,3.476,0.582
			c-22.446,0.574-45.042,0.397-67.644-0.231l0.12-5.853l-2.216-419.22l7.383-0.042l125.74,11.47
			c-0.004,13.733-0.002,27.464,0.072,41.271c0.158,44.722-21.059,123.401-5.406,164.735c11.98,31.526,67.271,41.882,73.469,69.011
			c6.952,30.877-47.748,34.176-59.141,57.801c-9.423,19.562-5.906,56.084-0.998,76.768c-20.371,2.061-40.892,3.375-61.49,4.011
			C5004.654,2936.682,5018.983,2923.997,5023.711,2910.09z"/>
		<path id="_x31_80623114" fill="none" stroke="#010101" stroke-width="64" d="M5037.391,2731.802
			c-15.652-41.335,5.566-120.013,5.406-164.735c-0.072-13.808-0.072-27.539-0.07-41.271l163.127,14.868
			c3.58,76.745,7.014,167.817-1.363,232.098c-3.756,28.909-24.059,113.812-39.887,137.159l1.13,4.347
			c-37.677,10.56-76.112,17.222-115.008,21.113c-4.91-20.685-8.425-57.207,0.997-76.769c11.394-23.625,66.096-26.923,59.139-57.801
			C5104.661,2773.679,5049.371,2763.327,5037.391,2731.802z"/>
		<path id="_x31_80623113" fill="none" stroke="#010101" stroke-width="64" d="M5391.947,2627.292
			c-22.437,99.922-20.1,81.227-74.74,165.489l9.633,6.251c-1.912,1.586-3.896,3.323-5.885,4.984
			c-24.549,20.771-72.85,61.777-100.531,91.868c-18.051,7.229-36.256,13.255-54.695,18.383l-1.128-4.345
			c15.827-23.348,36.129-108.252,39.888-137.16c8.374-64.279,4.938-155.354,1.359-232.097l199.62,18.12c0,0,0.073-0.001,0,0.075
			C5401.89,2580.265,5397.506,2602.801,5391.947,2627.292z"/>
		<path id="_x31_80623112" fill="none" stroke="#010101" stroke-width="64" d="M5463.879,2656.239
			c-52.084,65.641-77.125,91.891-137.038,142.791l-9.634-6.25c54.643-84.264,52.307-65.567,74.741-165.489
			c5.558-24.493,9.941-47.027,13.524-68.433l115.543,10.476C5503.971,2599.742,5485.443,2629.032,5463.879,2656.239z"/>
		<path id="_x31_80623111" fill="none" stroke="#010101" stroke-width="64" d="M5562.982,2573.683
			c-78.677,119.662-159.824,232.885-299.9,303.211c-14.067,7.053-28.286,13.357-42.655,18.991
			c27.679-30.093,75.981-71.1,100.532-91.869c1.986-1.662,3.97-3.399,5.882-4.985c59.913-50.901,84.954-77.15,137.038-142.792
			c21.564-27.205,40.092-56.497,57.135-86.904l41.076,3.753h0.076L5562.982,2573.683z"/>
		<path id="_x31_80623066" fill="none" stroke="#010101" stroke-width="64" d="M7968.832,4203.493
			c61.646-113.868,108.992-236.888,145.988-363.151l132.15,22.617l0.078-0.002l2.809,0.735
			c-7.604,29.306-15.494,58.538-23.465,87.32c-26.086,93.864-54.709,183.314-92.404,288.948l-3.107-1.184h-0.074L7968.832,4203.493z
			"/>
		<path id="_x31_80623065" fill="none" stroke="#010101" stroke-width="64" d="M7713.264,4147.782
			c41.143-67.231,71.615-141.46,93.52-216.991c13.199-45.468,26.988-90.793,39.895-136.261l268.143,45.812
			c-36.996,126.264-84.34,249.283-145.988,363.151L7713.264,4147.782z"/>
		<path id="_x31_80623064" fill="none" stroke="#010101" stroke-width="64" d="M7516.318,4104.883
			c19.02-75.738,27.232-156.223,33.041-244.799c2.531-38.207,5.135-76.565,7.367-115.073l289.945,49.52
			c-12.902,45.47-26.691,90.793-39.889,136.261c-21.904,75.529-52.377,149.76-93.523,216.991l-0.076-0.001L7516.318,4104.883z"/>
		<path id="_x31_80623063" fill="none" stroke="#010101" stroke-width="64" d="M7323.748,3869.494
			c-46.129-51.523-85.219-98.583-133.247-160.152c-0.073,0.226-0.073,0.452-0.069,0.677c0.471-8.857,0.719-17.865,0.891-27.09
			l2.438,0.06c28.613,34.807,130.342,211.268,165.557,84.262c5.291-19.237,6.525-37.329,5.322-55.031l192.092,32.792
			c-2.234,38.509-4.837,76.864-7.368,115.073c-5.808,88.576-14.022,169.061-33.041,244.799l-124.792-27.158l-0.664-0.068
			c5.121-36.873,7.72-76.208,0.898-109.112C7383.43,3928.674,7349.746,3898.466,7323.748,3869.494z"/>
		<path id="_x31_80623062" fill="none" stroke="#010101" stroke-width="64" d="M7193.76,3682.985l170.879,29.157v0.076
			c1.201,17.702-0.031,35.791-5.32,55.031C7324.099,3894.255,7222.371,3717.796,7193.76,3682.985z"/>
		<path id="_x31_80623061" fill="none" stroke="#010101" stroke-width="64" d="M7866.014,4491.143
			c-27.803-6.75-54.227-17.711-80.494-28.827l0.654-1.578l13.443-13.806c66.141-73.971,121.9-155.992,169.215-243.441
			l161.979,35.287h0.072l3.109,1.18c-13.9,38.945-29.041,80.15-45.717,124.516c-23.449,62.258-41.129,125.984-70.439,196.752
			C7969.939,4538.672,7917.842,4503.77,7866.014,4491.143z"/>
		<path id="_x31_80623060" fill="none" stroke="#010101" stroke-width="64" d="M7473.417,4384.33
			c33.993-37.027,81.954-58.223,119.511-91.445c47.703-42.058,87.391-91.346,120.262-145.103l0.076,0.003l255.566,55.708
			c-47.314,87.454-103.074,169.468-169.215,243.44l-13.443,13.809l-0.654,1.577c-23.088-9.78-46.107-19.63-69.998-26.855
			c-53.18-15.995-108.748-23.722-163.009-35.053l-81.751-15.313C7471.424,4384.941,7472.235,4384.64,7473.417,4384.33z"/>
		<path id="_x31_80623059" fill="none" stroke="#010101" stroke-width="64" d="M7456.209,4384.5
			c-22.642-8.432-46.818-14.226-70.988-18.896c69.34-83.972,108.098-168.902,131.098-260.721l196.869,42.898
			c-32.873,53.758-72.559,103.046-120.264,145.102c-37.558,33.221-85.517,54.418-119.51,91.447c-1.182,0.307-1.99,0.611-2.652,0.764
			l-0.15,0.002l-0.961-0.219l-12.492-2.332L7456.209,4384.5z"/>
		<path id="_x31_80623058" fill="none" stroke="#010101" stroke-width="64" d="M7289.73,4348.941
			c-42.656-8.547-88.671-10.922-128.783-27.963c0.014,2.402-0.047,5.331-0.101,8.705c0.08-12.684,0.009-25.663-0.208-39.021
			c0.095,3.754,0.113,7.279,0.129,10.583c38.333,1.138,82.412,14.556,118.525,0.776c53.646-20.402,94.09-123.197,103.345-174.573
			c2.794-15.397,5.805-32.372,8.228-49.794l0.662,0.07l124.791,27.158c-22.998,91.818-61.756,176.749-131.096,260.719
			C7352.105,4359.105,7319,4354.782,7289.73,4348.941z"/>
		<path id="_x31_80623033" fill="none" stroke="#010101" stroke-width="64" d="M7866.035,4491.125
			c-31.582-7.685-61.344-20.818-91.295-33.42c-15.758-6.629-31.564-13.104-47.727-18.564c-3.791-1.278-7.605-2.506-11.439-3.665
			c-19.178-5.791-82.602-30.327-98.794-19.96c-0.091,0.062-0.179,0.115-0.266,0.179c-18.095,12.425-25.042,68.158-33.135,88.472
			c-12.563,31.533-24.714,61.316-42.64,90.342c-13.59,22-23.454,44.326-44.148,59.979c-20.078,15.191-41.416,28.707-62.96,41.643
			c-43.329,26.014-88.321,49.066-131.47,75.405c-66.928,40.851-128.188,86.703-179.674,146.577
			c-51.615,60.031-86.684,141.191-154.599,185.375c-34.704,22.574-85.38,15.588-123.415,27.521
			c-14.137,4.437-34.201,16.46-38.516,31.759c-12.541,44.338-7.018,93.262-16.895,138.84c-3.463,15.986-7.131,33.212-3.328,49.473
			c11.856,50.676,64.182,80.393,116.848,101.765c28.415,11.536,56.933,20.634,79.237,29.288c0.675,0.256,1.341,0.52,1.998,0.779
			c16.634,6.319,32.012,12.4,44.979,18.488c3.581,1.681,7.154,3.382,10.729,5.082c24.514,11.054,48.725,22.812,72.682,35.062
			c27.382,14,60.207,27.747,86.247,46.761c4.54,2.503,9.078,5.016,13.606,7.538c17.325,9.644,34.566,19.415,51.715,29.304
			c6.354-18.883,12.495-37.791,18.692-55.893c-0.005,0.021-0.007,0.023-0.014,0.039c1.233-3.042,18.979-50.342,20.2-53.596
			c7.432-19.873,23.111-43.355,37.047-59.374c27.834-32.014,50.402-49.266,82.059-76.923c11.949-10.422,23.248-22.42,33.877-34.211
			c6.973-7.736,9.41-14.047,17.417-20.691c-2.521-2.173-5.011-4.213-7.47-6.152c0.004,0.006,0.011,0.008,0.016,0.016
			c0.096,0.074,0.194,0.142,0.289,0.221c0.012,0.006,16.034-3.182,16.034-3.182c0.161-0.189,0.323-0.381,0.487-0.571
			c1.359-1.591,2.713-3.181,4.069-4.78c0.543-0.637,1.083-1.276,1.624-1.918c1.383-1.631,2.766-3.268,4.143-4.909
			c0.657-0.779,1.312-1.559,1.97-2.336c0.964-1.153,1.931-2.304,2.899-3.457c1.256-1.501,2.514-3.001,3.768-4.503
			c0.445-0.534,0.895-1.069,1.342-1.603c7.934-9.501,15.836-19.011,23.727-28.375c0.087-0.108,0.179-0.214,0.268-0.321
			c3.566-4.234,7.131-8.436,10.695-12.596c0.086-0.096,0.169-0.195,0.25-0.289c1.688-1.966,3.367-3.916,5.053-5.86
			c0.238-0.274,0.48-0.552,0.717-0.825c1.668-1.92,3.338-3.834,5.008-5.727c0.16-0.184,0.318-0.361,0.476-0.54
			c1.651-1.873,3.298-3.728,4.946-5.571c0.111-0.127,0.222-0.252,0.334-0.373c1.65-1.843,3.302-3.667,4.955-5.48
			c0.283-0.311,0.568-0.624,0.853-0.937c1.623-1.777,3.251-3.536,4.874-5.28c0.242-0.261,0.484-0.523,0.73-0.781
			c1.625-1.741,3.256-3.469,4.887-5.172c0.077-0.083,0.155-0.168,0.231-0.248c1.649-1.725,3.302-3.427,4.958-5.113
			c0.301-0.309,0.604-0.617,0.906-0.922c1.607-1.633,3.219-3.245,4.829-4.838c0.294-0.289,0.585-0.571,0.876-0.859
			c1.678-1.652,3.359-3.286,5.041-4.889c9.209-8.779,18.744-18.811,28.567-29.915c7.401-8.369,14.976-17.356,22.694-26.876
			c1.947-2.397,3.904-4.829,5.869-7.295c74.48-93.428,162.393-233.821,250.799-354.058c1.914-2.601,3.801-5.19,5.666-7.769
			c0.105-0.15,0.217-0.299,0.322-0.447c24.582-34.032,45.121-66.264,62.625-97.012c0.008-0.021,0.02-0.041,0.029-0.061
			c0.658-1.151,1.297-2.299,1.945-3.449c2.238-3.998,4.438-7.967,6.607-11.91c18.293-33.536,33.068-65.324,45.689-95.805
			c0.059-0.156,0.121-0.309,0.184-0.47C7969.936,4538.713,7917.859,4503.727,7866.035,4491.125z"/>
		<path id="_x31_80623057" fill="none" stroke="#010101" stroke-width="64" d="M7866.035,4491.125
			c-31.582-7.685-61.344-20.818-91.295-33.42c2.734,6.1,5.482,12.197,8.248,18.322c11.682,25.865,13.377,53.641,19.275,80.93
			c11.545,53.416,11.09,91.344-12.574,141.031c-46.225,97.047-129.148,165.207-205.55,235.763
			c-28.297,26.133-57.392,50.239-89.293,71.613c-41.378,27.726-77.154,61.146-121.606,83.911
			c-61.658,31.581-123.517,64.039-179.354,105.607c-45.991,34.237-105.978,66.628-137.624,116.373
			c-24.627,38.705-47.996,82.051-61.327,126.213c-4.563,15.129-9.147,29.795-13.116,44.666c0.676,0.259,1.34,0.52,2.001,0.781
			c16.633,6.32,32.007,12.397,44.978,18.49c3.581,1.68,7.156,3.381,10.73,5.081c24.512,11.05,48.725,22.812,72.679,35.058
			c27.385,14,60.208,27.748,86.25,46.762c4.538,2.502,9.076,5.014,13.604,7.539c17.326,9.645,34.566,19.42,51.715,29.301
			c6.353-18.881,12.494-37.789,18.694-55.887c-0.051,0.119-0.083,0.191-0.083,0.189c-57.479-29.746-82.438-25.65-49.34-94.955
			c0.029-0.062,0.059-0.123,0.088-0.184c20.865-43.643,43.403-73.176,92.332-132.12c42.404-51.079,82.547-69.22,140.135-23.827
			c0.094,0.076,0.194,0.14,0.289,0.219c0.012,0.008,16.034-3.178,16.034-3.178c0.161-0.19,0.323-0.384,0.485-0.575
			c1.359-1.589,2.712-3.178,4.07-4.778c0.544-0.637,1.082-1.277,1.625-1.917c1.383-1.634,2.763-3.27,4.143-4.909
			c0.655-0.779,1.311-1.561,1.97-2.336c0.964-1.154,1.931-2.306,2.899-3.459c1.258-1.5,2.514-3,3.768-4.501
			c0.445-0.536,0.895-1.072,1.34-1.604c7.936-9.5,15.838-19.009,23.725-28.373c0.091-0.109,0.183-0.217,0.271-0.324
			c3.566-4.233,7.131-8.436,10.695-12.593c0.086-0.098,0.169-0.196,0.25-0.292c1.688-1.965,3.367-3.916,5.053-5.86
			c0.238-0.271,0.48-0.55,0.717-0.823c1.668-1.922,3.338-3.834,5.004-5.729c0.162-0.181,0.32-0.36,0.479-0.539
			c1.651-1.869,3.296-3.729,4.946-5.57c0.111-0.126,0.222-0.251,0.334-0.373c1.65-1.842,3.302-3.668,4.955-5.48
			c0.285-0.312,0.568-0.626,0.855-0.938c1.62-1.775,3.248-3.534,4.869-5.279c0.244-0.263,0.486-0.523,0.732-0.781
			c1.625-1.741,3.256-3.467,4.887-5.174c0.077-0.08,0.158-0.168,0.231-0.248c1.649-1.723,3.302-3.424,4.958-5.111
			c0.301-0.311,0.604-0.616,0.906-0.924c1.607-1.633,3.219-3.245,4.829-4.836c0.292-0.291,0.585-0.572,0.876-0.859
			c1.678-1.652,3.359-3.287,5.041-4.891c9.209-8.777,18.744-18.807,28.567-29.914c7.401-8.37,14.976-17.357,22.694-26.875
			c1.945-2.396,3.904-4.828,5.869-7.294c74.48-93.429,162.393-233.821,250.799-354.058c1.914-2.601,3.801-5.192,5.666-7.768
			c0.105-0.152,0.217-0.303,0.322-0.447c24.582-34.034,45.121-66.266,62.625-97.015c0.008-0.019,0.02-0.04,0.033-0.058
			c0.654-1.154,1.293-2.302,1.941-3.451c2.238-3.998,4.438-7.967,6.609-11.91c18.291-33.535,33.066-65.323,45.688-95.805
			c0.061-0.157,0.121-0.309,0.184-0.47C7969.936,4538.713,7917.859,4503.727,7866.035,4491.125z"/>
		<path id="_x31_80623056" fill="none" stroke="#010101" stroke-width="64" d="M7056.263,5311.256
			c31.647-49.75,91.632-82.141,137.623-116.376c55.84-41.57,117.699-74.023,179.356-105.606
			c44.45-22.768,80.227-56.188,121.607-83.912c31.903-21.371,60.993-45.478,89.292-71.612
			c76.399-70.554,159.323-138.714,205.548-235.765c23.666-49.684,24.119-87.611,12.576-141.027
			c-5.9-27.291-7.596-55.066-19.275-80.93c-2.768-6.125-5.516-12.223-8.25-18.324c-15.756-6.628-31.564-13.105-47.725-18.564
			c-0.545,16.461-1.365,32.771-3.418,49.424c-3.777,30.635-3.662,60.664-12.852,90.52c-27.713,90.07-87.893,157.416-157.623,217.133
			c-57.777,49.479-122.75,91.994-189.676,127.481c-45.822,24.294-91.104,35.786-136.048,64.579
			c-35.161,22.529-69.298,46.59-101.427,73.509c-32.655,27.36-68.271,53.304-96.846,85.829
			c-14.195,16.162-29.635,35.224-37.618,55.561c-25.622,65.258-71.579,129.971-80.865,200.545
			c-2.022,15.373-6.231,32.322-8.06,49.123c28.415,11.529,56.933,20.633,79.239,29.283c3.967-14.871,8.548-29.538,13.112-44.666
			C7008.268,5393.301,7031.635,5349.959,7056.263,5311.256z"/>
		<path id="_x31_80623055" fill="none" stroke="#010101" stroke-width="64" d="M6991.506,5203.181
			c7.986-20.341,23.424-39.398,37.619-55.565c28.573-32.521,64.192-58.468,96.848-85.826c32.129-26.92,66.264-50.98,101.427-73.508
			c44.943-28.797,90.226-40.291,136.046-64.581c66.928-35.487,131.9-78.003,189.678-127.481
			c69.725-59.719,129.91-127.064,157.621-217.135c9.186-29.852,9.072-59.881,12.852-90.514c2.055-16.658,2.871-32.965,3.418-49.428
			c-3.795-1.28-7.605-2.506-11.439-3.665c-19.178-5.788-82.604-30.327-98.796-19.957c-0.089,0.058-0.177,0.112-0.266,0.175
			c-18.095,12.426-25.043,68.159-33.134,88.475c-12.564,31.531-24.715,61.312-42.641,90.34
			c-13.588,21.998-23.452,44.327-44.148,59.979c-20.079,15.188-41.414,28.708-62.961,41.64
			c-43.328,26.014-88.32,49.07-131.473,75.406c-66.924,40.85-128.185,86.706-179.672,146.578
			c-51.613,60.031-86.682,141.193-154.598,185.373c-34.705,22.574-85.379,15.588-123.413,27.521
			c-14.139,4.437-34.202,16.459-38.518,31.758c-12.54,44.342-7.017,93.262-16.896,138.84c-3.463,15.988-7.131,33.214-3.326,49.475
			c11.855,50.674,64.182,80.391,116.846,101.766c1.83-16.799,6.039-33.748,8.061-49.119
			C6919.926,5333.149,6965.885,5268.434,6991.506,5203.181z"/>
		<path id="_x31_80623052" fill="none" stroke="#010101" stroke-width="64" d="M5023.65,2910.027
			c6.289-18.882,16.537-38.825,5.883-51.296c-38.951-45.603-81.386,73.632-53.722,80.325
			C4995.572,2943.833,5017.678,2927.987,5023.65,2910.027z"/>
		<path id="_x31_80623054" fill="none" stroke="#010101" stroke-width="64" d="M7279.283,4302.016
			c53.66-20.465,94.107-123.238,103.379-174.57c8.662-47.949,19.184-110.453,9.098-158.949
			c-8.287-39.877-41.982-70.058-67.948-99.042c-41.926-46.774-98.263-115.393-133.315-160.145
			c-5.619,107.118-30.218,221.894-31.906,330.034c-0.811,51.899-0.127,102.453,0.624,156.506
			c0.394,28.369,1.438,75.695,1.596,105.395C7199.15,4302.341,7243.184,4315.765,7279.283,4302.016z"/>
		<path id="_x31_80623053" fill="none" stroke="#010101" stroke-width="64" d="M6939.784,5089.308
			c72.675-33.782,110.938-119.582,161.358-177.87c39.866-46.064,83.704-88.619,133.627-123.326
			c75.801-52.701,161.854-88.23,237.372-141.096c61.188-42.824,137.54-105.434,76.462-195.158
			c-55.822-82.004-173.57-85.829-258.879-102.937c-42.608-8.545-88.635-10.904-128.768-27.984
			c-0.057,20.644-4.412,128.478-6.299,138.631c-0.047,0.278-17.975,102.774-64.168,200.435
			c-52.531,111.072-111.629,205.405-180.51,306.113c-29.765,43.532-74.222,92.224-86.922,144.947
			C6856.895,5108.347,6908.127,5104.019,6939.784,5089.308z"/>
		<path id="_x31_80623034" fill="none" stroke="#010101" stroke-width="64" d="M7136.227,4464.672
			c0.285,2.415,10.363-505.856,10.227-509.686c-10.771-292.584-20.849-481.753-107.742-710.38
			c-116.67-306.993-453.389-471.386-752.008-545.974c-77.572-19.379-223.062-43.057-359.693,11.775
			c-113.209,72.507-177.236,117.294-218.887,149.389c-63.964,51.431-107.164,109.163-130.273,150.785
			c-89.88,161.841-49.523,218.075-44.01,405.438c6.68,226.87,72.396,425.439,92.17,673.018c1.173,14.648,3.68,30.758,3.746,44.224
			c95.589-13.568,200.027-11.01,280.288,48.898c67.536,50.415,120.718,118.624,189.32,168.107
			c96.366,69.508,183.583,119.115,286.392,163.521c125.824,54.335,183.119,77.292,345.189,110.664
			c118.283,24.371,202.105,51.43,308.208,100.875c0,0,26.167-55.176,68.147-145.452
			C7123.27,4545.541,7129.061,4506.604,7136.227,4464.672z"/>
		<path id="_x31_80623035" fill="none" stroke="#010101" stroke-width="64" d="M6723.648,4642.015
			c-162.066-33.38-219.367-56.335-345.186-110.671c-102.809-44.404-190.025-94.014-286.393-163.521
			c-137.195-98.957-216.809-270.828-438.99-219.902l-20.98,4.778c13.912,144.833,40.76,260.709,36.992,405.019
			c-21.029-136.822-24.09-202.613-42.357-329.934c-5.783-40.34-25.311-83.73-37.671-124.228c0,0-104.429,106.061-133.906,143.936
			c-80.817,103.782-189.444,206.231-218.494,340.093c-32.525,149.873-11.174,302.974,29.437,447.562
			c65.221,232.255,205.294,423.248,378.982,589.576c14.672,14.049,63.667,64.793,101.151,107.746
			c37.483,42.962,56.079,78.193,83.964,49.556c19.58-20.126,14.326-57.986,41.04-72.505c41.382-22.455,91.562,23.602,123.56,44.508
			c59.503,38.875,141.06,49.428,210.758,57.631c72.589,8.534,97.29-86.127,172.973-104.124
			c71.893-17.095,199.416,81.64,223.415,8.165c17.543-53.718,7.806-130.375,19.349-178.268
			c19.031-78.963,62.322-79.596,102.9-125.451c87.174-98.773,23.389-225.943,87.909-335.242
			c82.941-140.525,166.097-241.021,219.767-333.854C6925.757,4693.444,6841.932,4666.376,6723.648,4642.015z M5315.863,4902.869
			c-72.827,31.999-86.928-184.008-85.336-217.771c1.499-32.033,5.048-101.205,41.344-110.583
			c72.551-18.606,78.832,105.415,82.219,152.387C5356.848,4765.102,5358.438,4884.134,5315.863,4902.869z"/>
		<path id="_x31_80623046" fill="none" stroke="#010101" stroke-width="64" d="M5617.75,5816.749
			c-21.97-28.156-50.079-39.313-78.587-55.674c-28.759-12.291-57.888-21.29-73.52-24.567l0.012,2.505
			c-47.335,1.143-78.776,27.146-69.612,63.562c2.885,11.457,9.781,23.947,21.48,37.018c14.352,16.042,32.676,22.863,52.271,25.383
			c21.384,2.748,44.285,0.367,65.216-0.771C5554.32,5863.155,5632.697,5852.801,5617.75,5816.749z"/>
		<path id="_x31_80623047" fill="none" stroke="#010101" stroke-width="64" d="M6050.476,6041.818
			c-8.042-31.137-24.415-59.047-53.422-74.812c-17.767-9.646-65.258-15.932-72.63,10.788c-3.83,13.886,9.363,29.797,21.525,42.532
			c5.193,5.439,10.195,10.297,13.605,14.176c31.07,35.327-3.662,168.076,30.943,182.662c39.803,16.783,63.262-73.281,65.414-98.383
			C6058.028,6094.148,6056.963,6066.933,6050.476,6041.818z"/>
		<path id="_x31_80623048" fill="none" stroke="#010101" stroke-width="64" d="M6395.469,5849.067
			c-10.602,1.559-10.545,46.477-23.159,50.083c-14.503,4.134-35.638-38.842-46.96-37.266
			c-106.062,14.755-22.252,93.285,46.51,95.961c31.234,1.207,59.362-13.225,65.182-56.395c0.18-1.329,0.338-2.62,0.494-3.889
			C6444.467,5840.085,6427.01,5844.43,6395.469,5849.067z"/>
		<path id="_x31_80623049" fill="none" stroke="#010101" stroke-width="64" d="M6811.596,6200.594
			c14.616-35.391-20.834-92.736-48.177-110.65c-31.504-20.631-67.116-21.125-100.771-6.67
			c-37.187,15.979-82.364,35.934-111.834,64.916c-20.498,20.16-54.912,85.521-16.312,103.057
			c21.442,9.746,38.211-10.547,62.11,2.658c30.537,16.865,82.68,20.537,128.642,9.059c15.809-5.721,31.374-11.977,46.641-18.809
			C6789.822,6233.291,6804.061,6218.848,6811.596,6200.594z"/>
		<path id="_x31_80623050" fill="none" stroke="#010101" stroke-width="64" d="M7022.502,5885.434
			c-38.883-20.438-105.43,4.818-107.822,55.473c-1.404,29.833,11.557,67.287,45.82,71.234c49.344,5.672,104.775-50.199,91.786-93.89
			C7048.557,5905.734,7039.225,5894.217,7022.502,5885.434z"/>
		<path id="_x31_80623051" fill="none" stroke="#010101" stroke-width="64" d="M5271.873,4574.516
			c-36.298,9.381-39.845,78.553-41.342,110.583c-1.595,33.763,12.507,249.77,85.332,217.771
			c42.577-18.736,40.984-137.767,38.234-175.966C5350.707,4679.936,5344.424,4555.912,5271.873,4574.516z"/>
		<path id="_x31_80623045" fill="none" stroke="#010101" stroke-width="64" d="M7182.369,5597.472
			c-5.852,14.688-18.287,32.917-24.868,44.287c-12.538,21.677-28.681,40.959-42.208,61.974
			c-22.018,34.2-52.258,63.502-78.957,93.831c-23.135,26.271-50.517,48.325-77.952,69.719
			c-53.558,41.759-112.492,75.321-172.187,107.05c-59.516,31.633-99.53,89.674-159.429,119.678
			c-48.541,24.312-89.507,63.42-137.177,87.449c-54.906,27.676-114.592,26.18-174.263,25.139
			c-59.945-1.043-110.517,17.392-168.502,28.855c-53.147,10.518-108.505,4.584-157.226-16.966
			c-47.117-20.839-97.885-29.548-146.817-46.827c-40.622-14.354-85.027-21.279-120.359-47.188
			c-63.476-46.556-107.917-118.066-166.757-171.344c-30.312-27.445-55.66-59.951-85.872-88.154
			c-19.595-2.52-37.917-9.341-52.271-25.383c-11.701-13.07-18.595-25.561-21.482-37.018c-6.584-8.454-12.079-17.707-17.859-26.791
			c-13.623,19.082-19.088,35.906-19.088,35.906s129.988,159.855,263.533,286.631c80.271,76.199,99.836,94.791,240.564,168.994
			c87.481,46.117,212.107,47.789,212.107,47.789c174.785,5.281,435.168,25.618,649.955-52.143
			c-45.962,11.479-98.106,7.809-128.644-9.057c-23.899-13.205-40.665,7.085-62.108-2.661
			c-38.602-17.538-4.184-82.896,16.312-103.059c29.468-28.978,74.647-48.933,111.832-64.915
			c33.654-14.453,69.27-13.957,100.771,6.674c27.345,17.912,62.795,75.258,48.179,110.648
			c-7.537,18.254-21.773,32.697-39.703,43.558c27.086-12.122,53.234-26.062,78.145-42.071
			c117.748-75.684,253.344-267.764,366.761-463.479c18.476-31.871,26.366-52.539,40.124-93.412
			C7258.568,5640.287,7224.322,5620.023,7182.369,5597.472z M6960.497,6012.145c-34.261-3.951-47.224-41.405-45.823-71.236
			c2.395-50.652,68.945-75.912,107.826-55.473c16.725,8.783,26.056,20.304,29.785,32.818
			C7065.273,5961.943,7009.844,6017.811,6960.497,6012.145z"/>
		<path id="_x31_80623043" fill="none" stroke="#010101" stroke-width="64" d="M5465.658,5739.013l-0.013-2.505
			c15.63,3.277,44.759,12.273,73.521,24.567c-6.35-3.644-12.713-7.545-19.036-11.949c-11.298-7.871-21.899-18.19-32.776-27.8
			c-4.496,1.139-8.967,2.279-13.412,3.273c-16.89,3.769-36.02,2.95-51.531,11.297c-19.844,10.675-34.23,25.889-44.225,39.891
			c5.781,9.086,11.275,18.338,17.862,26.791C5386.883,5766.159,5418.324,5740.155,5465.658,5739.013z"/>
		<path id="_x31_80623044" fill="none" stroke="#010101" stroke-width="64" d="M6976.643,5722.686
			c-46.389,45.305-96.584,81.67-150.352,117.264c-29.561,19.572-60.801,37.51-88.396,59.357
			c-17.488,13.848-36.072,27.41-51.941,43.127c-9.398,9.312-16.809,21.348-28.086,28.467c-31.99,20.204-85.371,25.922-121.89,33.074
			c-30.007,5.879-60.896,4.523-90.937,10.158c-76.604,14.369-153.029,25.832-231.961,28.479
			c-39.321,1.32-79.486,4.661-118.386,2.098c-15.128-1-29.559-2.141-44.221-2.891c6.488,25.114,7.552,52.328,5.435,76.963
			c-2.151,25.102-25.611,115.166-65.41,98.383c-34.605-14.586,0.127-147.335-30.945-182.662c-3.408-3.875-8.412-8.736-13.604-14.176
			c-22.663-2.443-45.826-3.941-66.496-10.019c-23.27-6.842-38.302-37.044-48.613-58.684c-13.408-28.136-30.114-57.393-50.795-80.724
			c-9.877-11.146-19.439-19.273-33.671-23.961c-24.854-8.191-41.265-6.1-65.665-1.578c-18.639,3.457-40.987,3.67-52.104-14.701
			c0,0-10.835-13.891-10.854-13.914c14.945,36.053-63.428,46.404-82.734,47.455c-20.934,1.137-43.836,3.516-65.219,0.77
			c30.209,28.205,55.561,60.711,85.873,88.158c58.842,53.275,103.279,124.783,166.756,171.34
			c35.332,25.905,79.738,32.83,120.358,47.189c48.935,17.281,99.703,25.988,146.818,46.824
			c48.719,21.555,104.077,27.484,157.225,16.966c57.988-11.463,108.555-29.897,168.502-28.854
			c59.675,1.042,119.36,2.537,174.265-25.139c47.668-24.033,88.637-63.137,137.176-87.449c59.897-30,99.91-88.045,159.429-119.678
			c59.696-31.727,118.63-65.291,172.187-107.05c27.438-21.394,54.817-43.448,77.951-69.722c26.7-30.322,56.941-59.624,78.957-93.827
			c13.526-21.021,29.67-40.298,42.211-61.976c6.578-11.371,19.012-29.6,24.867-44.287c-30.068-16.162-64.089-33.494-91.685-47.189
			c-21.046,23.151-34.905,42.115-47.638,73.611C7026.964,5663.688,7007.461,5692.593,6976.643,5722.686z"/>
		<path id="_x31_80623042" fill="none" stroke="#010101" stroke-width="64" d="M5539.166,5761.071
			c35.309,15.09,70.062,35.143,78.586,55.678c0.019,0.023,10.854,13.911,10.854,13.911c11.113,18.371,33.465,18.154,52.104,14.701
			c24.402-4.52,40.809-6.609,65.662,1.578c14.234,4.692,23.797,12.816,33.676,23.963c20.679,23.329,37.385,52.586,50.793,80.724
			c10.312,21.641,25.344,51.84,48.613,58.683c20.67,6.079,43.833,7.574,66.494,10.02c-12.16-12.737-25.357-28.646-21.526-42.534
			c7.373-26.716,54.864-20.433,72.63-10.781c29.006,15.759,45.382,43.669,53.422,74.806c14.663,0.752,29.094,1.893,44.222,2.893
			c38.897,2.568,79.06-0.776,118.386-2.096c78.934-2.65,155.355-14.113,231.961-28.48c30.043-5.632,60.93-4.281,90.937-10.157
			c36.519-7.15,89.902-12.87,121.892-33.075c11.271-7.117,18.684-19.156,28.084-28.464c15.871-15.72,34.458-29.28,51.941-43.128
			c27.596-21.847,58.836-39.787,88.397-59.355c53.767-35.598,103.964-71.963,150.354-117.268
			c30.817-30.091,50.32-58.999,66.405-98.793c12.732-31.494,26.592-50.457,47.635-73.609
			c-27.056-13.429-47.935-23.354-52.867-25.245c-22.272-8.573-45.209-16.079-68.053-22.849
			c-49.609-14.701-2.253,27.473,10.08,42.129c15.565,18.502,27.836,39.745,31.357,64.139
			c12.541,86.768-47.787,109.871-97.117,137.42c-88.141,49.232-138.313,27.828-191.406,111.728
			c-39.493,62.437-148.695,149.843-228.379,100.669c-22.053-13.609-33.559-39.871-53.097-57.071
			c-1.293-1.135-2.503-2.364-3.667-3.646c-0.156,1.272-0.316,2.562-0.496,3.893c-5.819,43.17-33.946,57.604-65.182,56.39
			c-3.03,0.044-6.208-0.149-9.551-0.599c-28.155-3.812-75.436-23.151-87.647-53.461c-0.462-1.154-0.878-2.325-1.239-3.513
			c3.696,22.89,7.449,51.519,2.06,74.208c-9.038,38.067-71.14,44.375-143.876,21.018c-50.193-16.121-102.245-32.938-125.736-39.333
			c-27.866-7.577-60.021,2.425-93.512,5.515c-32.897,3.041-83.869-33.734-84.191-94.586c-0.133-24.992-13.865-49.824-37.125-58.81
			c-21.131-8.165-45.275-16.997-68.174-16.638c-21.891,0.34-38.184,13.055-58.83,1.271c-42.125-24.031-78.699-69.408-129.194-77.051
			c-16.021-2.422-31.895,1.507-47.494,5.458c10.877,9.614,21.481,19.931,32.776,27.803
			C5526.453,5753.53,5532.816,5757.432,5539.166,5761.071z"/>
		<path id="_x31_80623040" fill="none" stroke="#010101" stroke-width="64" d="M4912.434,3275.94
			c14.902-2.545,29.833-4.969,44.822-6.912c46.768-6.067,99.485-4.395,142.328,18.011c16.107,8.428,33.039,20.949,45.155,34.746
			l26.788,42.661c56.141-1.816,127.99,29.968,173.588,61.225c54.732,37.517,100.587,91.161,129.289,151.554
			c19.629,41.283,29.277,86.412,48.307,127.986c13.653,29.847,29.445,58.928,45.896,87.276l5.639,28.167
			c-10.06-76.32-20.414-144.092-39.467-226.426c-20.482-88.517-49.35-128.532-100.229-203.629
			c-47.052-69.452-101.037-153.575-101.037-153.575l-0.99-3.057c-35.141,11.501-98.483,6.487-142.966,9.472
			c-121.799,8.169-144.562,2.461-276.007,25.27"/>
		<path id="_x31_80623039" fill="none" stroke="#010101" stroke-width="64" d="M4918.285,4165.239
			c10.443-3.812,95.379,28.375,114.119,80.798c18.736,52.42,37.905,187.382,54.891,256.695
			c17.039,69.561,51.11,239.845,90.485,355.934c19.692,58.045,35.085,88.912,41.054,82.316c5.961-6.599-0.191-35.645-2.18-61.895
			c-1.839-24.317-17.216-114.338-13.932-191.265c3.29-76.935,12.201-137.011,57.922-217.925
			c55.588-98.365,266.555-329.109,266.555-329.109c14.016-26.968,58.228-44.09,52.516-77.83
			c-8.186-48.273,13.34-95.656,6.596-148.236l-12.066-94.07l-5.642-28.167c-16.448-28.35-32.241-57.43-45.896-87.278
			c-19.028-41.573-28.675-86.702-48.307-127.984c-28.701-60.391-74.559-114.039-129.289-151.555
			c-45.598-31.256-117.447-63.041-173.586-61.224l11.744,38.091c10.082,51.537-0.463,107.738-28.928,148.916
			c-47.434,68.6-116.088,119.939-169.037,183.93c-12.978,15.68-27.135,30.337-39.709,46.369
			c-12.646,16.11-20.734,32.659-28.928,51.26L4918.285,4165.239z"/>
		<path id="_x31_80623041" fill="none" stroke="#010101" stroke-width="64" d="M5144.741,3321.785
			c54.811,62.446,54.497,164.737,9.604,229.667c-47.432,68.603-116.088,119.941-169.039,183.932
			c-12.978,15.678-27.133,30.337-39.706,46.367c-12.647,16.11-20.735,32.661-28.928,51.264c-1.093-13.291-0.698-26.957-1.028-40.322
			c-0.797-31.483,1.33-62.564,0.208-94.146c-0.604-17.115-0.993-114.883-0.614-146.376c0.42-33.065-0.686-276.595-2.805-276.231
			c14.902-2.542,29.833-4.968,44.822-6.909c46.768-6.067,99.485-4.398,142.328,18.01
			C5115.691,3295.468,5132.623,3307.989,5144.741,3321.785z"/>
		<path id="_x31_80623036" fill="none" stroke="#010101" stroke-width="64" d="M6815.281,5416.484
			c-49.486-49.748-160.759,62.867-179.111,138.945c-11.566,47.902-3.68,121.475-21.229,175.201
			c-23.999,73.482-153.351-23.363-225.241-6.271c-75.683,18.001-102.789,111.867-182.186,101.578
			c-69.601-9.021-149.131-18.066-208.632-56.941c-91.097-59.52-126.175-61.826-153.373,32.74
			c-18.505,64.344,23.283,164.631,76.425,140.277c33.152-15.189,55.203-9.907,83.062-2.332
			c52.123,14.182,234.625,88.33,251.282,39.903c19.423-56.518-28.44-138.146,108.081-158.169
			c95.059-13.949,79.473,84.372,139.088,121.176c79.682,49.174,168.617-30.621,208.119-93.052
			c53.084-83.903,101.495-67.009,189.633-116.237c49.332-27.557,104.094-40.479,91.529-127.292
			C6983.141,5539.703,6872.416,5473.925,6815.281,5416.484z"/>
		<path id="_x31_80623038" fill="none" stroke="#010101" stroke-width="64" d="M4961.413,4965.507
			c52.562-16.774,82.596-33.663,119.773-51.94c25.62-12.592,61.803-33.901,81.821-45.935c-7.926-21.622-16.335-45.011-25.393-70.651
			c-18.747-53.059-73.368-260.352-90.498-357.808c-16.07-91.407-14.172-236.06-128.682-246.692c0,0,1.566,296.018,3.592,679.871
			c0.152,28.992,0.333,62.735,0.523,99.197C4935.238,4971.129,4948.924,4969.488,4961.413,4965.507z"/>
		<path id="_x31_80623037" fill="none" stroke="#010101" stroke-width="64" d="M5590.452,5599.279
			c-113.774-115.758-181.128-189.842-267.274-327.644c-4.316-6.905-8.191-39.337-8.191-39.337
			c-2.407-5.272-4.793-10.617-7.162-16.043c-59.15-135.422-90.535-200.514-144.813-348.624
			c-20.02,12.031-56.202,33.34-81.824,45.935c-37.178,18.277-67.212,35.166-119.771,51.94c-12.486,3.983-26.173,5.622-38.863,6.042
			c1.121,211.68,2.723,515.325,2.729,516.914c24.166,2.388,45.348,16.489,48.894,18.485c17.296,9.732,31.491,21.622,47.276,33.654
			c23.596,17.993,50.674,26.283,75.416,42.657c13.699,9.062,27.859,16.51,40.268,27.125c24.891,21.311,52.479,38.111,77.465,59.82
			c26.5,23.033,52.216,46.998,76.924,72.011c32.424,32.833,32.424,32.833,48.974,50.613c36.583-63.979,56.738-76.187,106.562-80.214
			c21.146-1.703,69.865-13.658,110.939,1.584c49.64,18.415,96.668,67.846,129.427,70.266c14.524,1.07,25.573-7.492,31.294-17.051
			C5739.599,5732.512,5614.849,5624.104,5590.452,5599.279z"/>
		<path id="_x31_80623117" fill="none" stroke="#010101" stroke-width="64" d="M5189.625,3243.473
			c-113.959,10.453-158.609,0.867-276.041,25.291l-2.994-329.319c0.369-0.001,0.738-0.005,1.107-0.006
			c22.599,0.627,45.197,0.806,67.644,0.23c3.323,0.433,6.646,0.341,9.892-0.278c20.597-0.637,41.119-1.95,61.488-4.011
			c38.898-3.89,77.334-10.554,115.013-21.114c18.435-5.128,36.642-11.155,54.696-18.383c14.368-5.631,28.588-11.938,42.654-18.991
			c140.074-70.325,221.225-183.549,299.898-303.211c27.689-42.021,55.082-84.792,84.618-126.825
			c8.647-12.428,17.593-24.783,26.758-37.064c8.065-10.774,16.583-20.198,25.546-28.502c29.834-27.7,64.463-42.447,101.873-47.829
			c137.242-20.033,312.139,84.589,427.284,131.46c30.417,12.365,60.687,25.032,90.735,38.076
			c166.898,72.174,327.874,156.087,466.699,268.186c83.728,67.526,159.311,145.228,223.445,236.798v0.074
			c23.365,33.49,45.264,68.787,65.395,106.122c43.926,81.325,71.839,165.89,89.395,259.74
			c15.275,81.931,22.761,171.033,26.245,271.341c0.44,13.056,0.579,25.582,0.347,37.67c-0.172,9.225-0.418,18.234-0.891,27.09
			c-2.795,16.149-3.13,37.01-4.725,56.527c-6.196,56.614-16.312,112.87-22.475,189.896c-0.209,2.475-0.416,4.952-0.625,7.503
			c-0.068,0.679-0.14,1.354-0.133,2.105c-2.091,24.321-3.511,48.791-3.896,73.331c-0.834,52.153-0.268,103.104,0.58,151.423
			c0.006,1.726,0.016,3.376,0.023,5.103c0.121,8.853,0.324,19.58,0.533,31.06c0.1,4.729,0.124,9.38,0.22,14.034
			c0.315,17.104,0.63,34.811,0.708,49.67c0.217,13.357,0.287,26.336,0.206,39.016c0.002,0.226,0.002,0.527,0.003,0.752
			c-0.561,33.471-3.931,108.448-5.83,126.17v0.074c-0.068,0.826-0.139,1.576-0.282,2.327c0.002,0.228-0.069,0.448-0.069,0.601
			c0.232,2.402-8.109-500.754-8.208-504.581c-10.773-292.584-20.856-481.77-107.798-710.385
			c-116.668-307.014-453.374-471.383-752.021-545.993c-350.253-87.458-567.627,98.318-786.941,349.613
			c-45.947,52.778-94.479,119-155.084,179.36C5325.297,3246.86,5213.836,3241.239,5189.625,3243.473z"/>
		<path id="_x31_80623118" fill="none" stroke="#010101" stroke-width="64" d="M5835.669,4523.041
			c32.811-57.913,132.091-11.652,158.89,22.898c35.977,46.416,57.119,95.982,85.725,153.357c17.07,34.234,65.821,110.94,36.2,96.092
			c-93.044-44.088-174.53,58.828-255.029-52.387C5811.857,4674.491,5802.867,4580.948,5835.669,4523.041z"/>
		<path id="_x31_80623119" fill="none" stroke="#010101" stroke-width="64" d="M7473.056,5324.498
			c-61.625-53.031-103.377-35.568-147.583,17.69c-49,59.03-71.533,88.56-92.424,132.304c-33.1,69.303-8.137,65.211,49.338,94.955
			c0.089,0.049,19.007-50.387,20.27-53.748c7.435-19.874,23.111-43.355,37.047-59.375c27.836-32.01,50.402-49.269,82.062-76.924
			c11.946-10.424,23.247-22.418,33.877-34.211C7462.611,5337.458,7465.051,5331.141,7473.056,5324.498"/>
		<path id="_x31_80623116" fill="none" stroke="#010101" stroke-width="64" d="M5939.124,2705.513
			c1.406-0.504,2.743-1.275,4.267-1.314c-5.009,1.964-10.035,3.398-14.939,5.799c-2.678,1.31-5.259,2.889-7.819,4.436
			c-11.086,6.672-21.403,14.729-32.45,21.634c-6.197,3.879-12.309,7.673-18.402,11.792c-25.718,17.376-52.106,32.954-77.318,51.212
			c-38.137,27.615-49.078,32.369-84.34,60.726c-63.962,51.429-107.165,109.162-130.273,150.785
			c-89.878,161.839-49.524,218.073-44.01,405.437c6.676,226.87,72.396,425.439,92.16,672.952
			c4.448,55.576,9.814,111.649,17.474,166.473c2.464,17.582,13.196,92.176,15.317,111.396c4.545,41.041,8.211,82.21,9.791,123.493
			c0.431,11.402,0.71,22.807,0.799,34.217c0.089,10.573-1.881,22.764-0.287,33.166c-21.029-136.822-24.09-202.609-42.357-329.93
			c-7.789-54.247-40.414-114.012-47.02-164.822c-6.313-48.564,13.343-95.657,6.6-148.234c-15.4-119.972-25.088-206.213-51.535-320.5
			c-20.477-88.496-49.334-128.502-100.186-203.571c-34.689-51.191-75.276-101.65-101.912-157.532
			c36.861-18.578,64.28-60.043,89.604-91.662c50.114-62.581,99.666-122.016,155.172-179.025
			c41.845-42.98,80.386-79.55,124.236-117.043c12.926-11.049,26.037-21.891,39.326-32.532
			C5805.641,2761.105,5863.484,2732.452,5939.124,2705.513z"/>
	</g>
</g>
</svg>
