<?xml version="1.0" encoding="utf-8"?>
<!-- Generator: Adobe Illustrator 16.0.0, SVG Export Plug-In . SVG Version: 6.00 Build 0)  -->
<!DOCTYPE svg PUBLIC "-//W3C//DTD SVG 1.1//EN" "http://www.w3.org/Graphics/SVG/1.1/DTD/svg11.dtd">
<svg version="1.1" id="Layer_1" xmlns="http://www.w3.org/2000/svg" xmlns:xlink="http://www.w3.org/1999/xlink" x="0px" y="0px"
	 width="9744.01px" height="6823.46px" viewBox="0 0 9744.01 6823.46" enable-background="new 0 0 9744.01 6823.46"
	 xml:space="preserve">
<g transform="scale(1.0)">
	<g id="_x31_80622809" transform=" scale(1.0, 1.0)">
		<path id="_x31_80622811" fill="none" stroke="#010101" stroke-width="64" d="M4915.822,3796.14
			c0.709-20.684-0.425-57.008,0.215-78.583c1.523-51.375,0.295-150.294,0.676-244.875c0.366-93.339-0.367-208.011,1.996-327.942
			c1.458-74.066,14.627-154.721,15.644-219.833c1.364-87.451,4.068-111.79,0.556-201.24c-5.854-149-19.693-367.177-14.57-566.499
			c2.106-81.979-1.721-277.921,1.039-376.393c2.086-74.529,2.775-211.966,20.65-275.719
			c41.765-148.955,132.394-294.05,234.168-390.67c237.088-225.081,626.065-194.498,818.741-151.817
			c255.491,56.592,750.557,230.545,1041.651,360.583c190.246,84.99,316.18,169.147,475.449,274.576
			c170.863,113.109,344.887,170.111,500.214,383.964c104.87,144.383,188.194,337.157,214.308,447.785
			c89.195,377.879,88.605,591.536,47.65,899.504c-15.926,119.734-61.855,356.515-131.887,566.1
			c-50.37,150.742-261.451,740.905-450.146,1001.262c-49.016,67.633-124.804,151.487-211.168,230.491
			c-61.025,55.82-124.371,110.219-189.68,162.21c-43.396,34.542-70.904,88.274-96.377,146.733
			c-28,64.23-53.547,134.168-95.035,190.641c-111.359,151.567-301.855,396.693-422.365,470.903
			c-235.019,144.716-497.983,170.079-712.253,162.046c-216.354-8.113-578.078-267.604-720.017-657.85
			c-59.705-164.137-203.822-291.572-264.475-437.986c-15.826-38.205-59.6-106.916-68.349-148.006L4915.822,3796.14z"/>
		<path id="_x31_80622812" fill="none" stroke="#010101" stroke-width="64" d="M6993.227,3414.953
			c21.815-169.709,70.957-280.547,8.583-385.062c-129.261-216.587-257.104-380.819-499.858-510.675
			c-144.471-77.275-265.334-124.939-418.075-177.528c-111.153-38.271-178.396-73.724-290.668-25.634
			c-75.853,32.49-113.057,95.39-173.521,210.709c-66.08,126.055-166.08,239.3-279.234,373.155
			c-16.734,19.803-28.369,44.252-28.426,70.293c-0.195,83.718,86.232,175.65,80.931,261.526
			c-3.437,55.592-32.183,81.899-68.812,129.007c-40.396,51.95-178.342,143.607-258.631,173.205
			c-80.287,29.603-148.99,7.056-148.99,7.056c0.281-22.666,0.096-45.72,0.188-68.326c0.366-93.34-0.367-208.012,1.998-327.943
			c1.459-74.064,14.629-154.719,15.644-219.832c1.364-87.45,4.066-111.789,0.556-201.24c-5.855-149-19.695-367.178-14.572-566.498
			c2.106-81.981-1.721-277.92,1.039-376.394c2.086-74.528,2.777-211.965,20.65-275.72
			c41.765-148.954,132.396-294.05,234.168-390.669c237.09-225.082,626.065-194.498,818.741-151.818
			c255.491,56.593,750.558,230.545,1041.651,360.584c190.248,84.989,316.18,169.146,475.449,274.577
			c170.863,113.108,344.887,170.11,500.214,383.963c104.87,144.385,188.194,337.157,214.308,447.786
			c89.195,377.878,88.605,591.534,47.65,899.5c-15.926,119.738-61.855,356.519-131.887,566.103
			c-50.37,150.742-261.451,740.903-450.146,1001.264c-50.613,69.846-129.02,154.903-218.703,236.679
			c-58.076,52.962-123.48,104.474-182.158,156.035c-36.996,32.502-63.158,74.857-86.752,125.223c0,0-246.664-91.348-294.241-108.875
			c-28.511-10.5-152.776-42.652-230.392-70.193c-49.475-17.553-58.602-54.152-60.41-72.229
			c-6.08-60.884,13.513-152.592,41.149-216.018c60.565-138.996,123.425-220.783,189.042-387.062
			c54.973-139.297,83.633-211.868,83.725-367.479c0.037-70.303,3.715-122.527,5.54-191.282
			c1.196-44.632,10.093-117.807,8.46-162.217C6962.77,3694.229,6975.49,3552.953,6993.227,3414.953z"/>
		<path id="_x31_80622862" fill="none" stroke="#010101" stroke-width="64" d="M7004.734,1445.81
			c-12.535-7.637-24.994-15.347-37.455-23.057c-154.48-95.748-329.345-133.488-496.988-199.98
			c-112.811-44.803-208.312-96.564-314.404-152.978c-43.77-23.298-91.167-41.463-140.531-54.639l-1.369-48.303
			c260.369,60.707,738.57,229.405,1022.667,356.287c7.135,3.149,14.118,6.373,21.028,9.521L7004.734,1445.81z"/>
		<path id="_x31_80622861" fill="none" stroke="#010101" stroke-width="64" d="M6863.522,1747.366
			c-77.253-42.171-154.888-83.898-231.387-127.708c-129.2-73.84-268.351-164.776-401.315-237.807
			c-72.375-39.699-138.635-87.207-208.83-127.274l-6.635-239.421c49.366,13.177,96.76,31.341,140.531,54.639
			c106.092,56.414,201.592,108.175,314.404,152.978c167.646,66.492,342.509,104.232,496.988,199.98
			c12.461,7.711,24.92,15.422,37.455,23.057L6863.522,1747.366z"/>
		<path id="_x31_80622860" fill="none" stroke="#010101" stroke-width="64" d="M6701.512,2093.138
			c-49.252-27.265-98.951-54.305-148.725-82.764c-168.162-96.231-344.414-176.537-517.191-263.388l-13.604-492.41
			c70.193,40.066,136.455,87.573,208.83,127.273c132.963,73.032,272.115,163.968,401.313,237.808
			c76.499,43.81,154.134,85.536,231.388,127.708L6701.512,2093.138z"/>
		<path id="_x31_80622859" fill="none" stroke="#010101" stroke-width="64" d="M6701.512,2093.138L6530.5,2458.265
			c-92.363-45.046-190.156-82.875-278.836-126.718c-68.705-33.949-133.713-72.288-202.736-100.575l-13.328-483.986
			c172.775,86.854,349.025,167.156,517.188,263.388C6602.561,2038.833,6652.26,2065.873,6701.512,2093.138z"/>
		<path id="_x31_80622858" fill="none" stroke="#010101" stroke-width="64" d="M6530.498,2458.265l-28.516,60.966
			c-144.455-77.311-265.305-124.967-418.099-177.554c-11.942-4.131-23.36-8.187-34.327-12.094l1.969-5.362l-2.6-93.249
			c69.025,28.288,134.031,66.626,202.736,100.575C6340.342,2375.391,6438.135,2413.221,6530.498,2458.265z"/>
		<path id="_x31_80622867" fill="none" stroke="#010101" stroke-width="64" d="M5215.861,1285.113l-77.459-131.913
			c12.369-13.681,25.035-26.615,37.854-38.803c237.021-225.047,626.049-194.479,818.723-151.845c6.162,1.36,12.549,2.792,19.011,4.3
			l1.37,48.303c-121.117-32.303-253.672-34.527-371.418-8.684C5479.172,1042.621,5324.139,1147.444,5215.861,1285.113z"/>
		<path id="_x31_80622866" fill="none" stroke="#010101" stroke-width="64" d="M5831.518,1178.185
			c-142.254-29.229-308.875,24.354-414.271,124.691c-41.99,39.912-77.988,87.888-108.361,140.651l-93.023-158.414
			c108.277-137.668,263.311-242.493,428.078-278.641c117.746-25.843,250.303-23.62,371.418,8.682l6.635,239.423
			C5963.207,1221.025,5901.707,1192.612,5831.518,1178.185z"/>
		<path id="_x31_80622865" fill="none" stroke="#010101" stroke-width="64" d="M5604.469,1549.943
			c-80.93,9.321-127.621,63.007-156.68,130.232l-138.901-236.648c30.372-52.763,66.372-100.74,108.36-140.651
			c105.395-100.336,272.016-153.92,414.271-124.692c70.189,14.427,131.691,42.842,190.473,76.392l13.604,492.411
			c-69.303-34.772-138.08-70.586-205.494-109.003C5764.789,1600.763,5684.425,1540.693,5604.469,1549.943z"/>
		<path id="_x31_80622864" fill="none" stroke="#010101" stroke-width="64" d="M6035.6,1746.987l13.328,483.986
			c-51.973-21.456-106.219-37.256-166.059-41.295c-34.356-2.328-78.748,7.837-119.929,27.104l-315.149-536.605
			c29.058-67.226,75.748-120.912,156.68-130.233c79.954-9.25,160.318,50.82,225.631,88.04
			C5897.518,1676.401,5966.295,1712.215,6035.6,1746.987z"/>
		<path id="_x31_80622863" fill="none" stroke="#010101" stroke-width="64" d="M6048.924,2230.973l2.602,93.251l-1.971,5.361
			c-84.732-30.267-146.102-52.792-234.009-22.175l-0.819-2.461l-51.788-88.166c41.181-19.268,85.572-29.433,119.926-27.103
			C5942.709,2193.717,5996.951,2209.516,6048.924,2230.973z"/>
		<path id="_x31_80622857" fill="none" stroke="#010101" stroke-width="64" d="M7873.866,1992.04
			c-98.432-106.33-265.788-195.254-390.78-267.669c-159.9-92.481-320.787-182.359-478.348-278.563l52.945-113.149
			c178.656,81.8,301.064,163.6,454.326,265.083c170.822,113.083,344.883,170.128,500.239,383.939
			c104.868,144.433,188.175,337.181,214.263,447.786c88.072,373.208,88.613,586.228,49.133,888.133l-154.631-12.569
			c0.232-3.203,0.545-6.482,0.852-9.761c14.494-156.854,45.146-311.877,55.432-469.115
			c10.596-161.637-16.113-291.621-68.631-443.144C8063.531,2252.902,7968.174,2093.886,7873.866,1992.04z"/>
		<path id="_x31_80622856" fill="none" stroke="#010101" stroke-width="64" d="M7909.391,3287.839
			c3.014-28.911,5.65-57.824,8.659-86.436c17.221-162.514-0.208-332.722-46.544-489.442
			c-53.488-180.593-109.283-370.881-221.793-525.174c-100.676-138.013-241.966-245.353-382.686-340.466
			c-81.205-54.779-157.252-99.11-250.25-131.411c-33.729-11.718-191.023-40.392-112.781,52.615l-0.906,1.562
			c-13.139-7.265-26.354-14.531-39.565-21.723l141.212-301.556c157.561,96.203,318.449,186.08,478.348,278.564
			c124.994,72.412,292.348,161.338,390.782,267.667c94.308,101.844,189.665,260.86,234.796,390.969
			c52.52,151.524,79.229,281.508,68.633,443.145c-10.283,157.239-40.938,312.262-55.432,469.115
			c-0.311,3.28-0.621,6.558-0.855,9.761L7909.391,3287.839z"/>
		<path id="_x31_80622855" fill="none" stroke="#010101" stroke-width="64" d="M7790.148,3039.468
			c-10.771-129.345-30.391-268.33-66.588-392.678c-34.786-119.349-79.859-215.173-138.521-320.573
			c-41.673-74.871-96.454-142.621-158.927-201.301c-156.516-147.181-337.807-254.032-523.023-355.827l0.906-1.562
			c-78.242-93.007,79.052-64.333,112.783-52.615c92.998,32.302,169.043,76.633,250.248,131.411
			c140.72,95.116,282.01,202.454,382.686,340.465c112.512,154.292,168.305,344.581,221.793,525.174
			c46.336,156.721,63.763,326.931,46.544,489.444c-3.009,28.612-5.646,57.523-8.659,86.435l-111.633-9.098
			C7800.688,3198.551,7796.408,3114.688,7790.148,3039.468z"/>
		<path id="_x31_80622854" fill="none" stroke="#010101" stroke-width="64" d="M7457.07,3250.987
			c-0.494-11.107-1.143-22.065-1.866-32.65c-23.178-347.616-173.354-721.739-455.702-938.281
			c-95.064-72.853-195.59-130.293-297.994-186.917l162.012-345.772c13.214,7.191,26.43,14.457,39.564,21.723
			c185.215,101.794,366.51,208.646,523.025,355.827c62.473,58.68,117.25,126.43,158.928,201.301
			c58.658,105.402,103.732,201.226,138.518,320.574c36.201,124.347,55.819,263.332,66.592,392.677
			c6.26,75.224,10.537,159.083,7.607,239.276L7457.07,3250.987z"/>
		<path id="_x31_80622853" fill="none" stroke="#010101" stroke-width="64" d="M7146.676,3225.772
			c-12.174-56.902-34.559-119.795-40.816-140.383c-23.4-76.61-50.021-157.178-100.826-220.746
			c-48.105-60.205-98.773-119.001-151.553-175.268c-43.707-46.478-92.482-82.239-142.301-121.728
			c-54.32-42.932-116.181-77.904-180.684-109.385l171.014-365.126c102.402,56.625,202.928,114.066,297.992,186.918
			c282.348,216.542,432.525,590.663,455.705,938.281c0.723,10.584,1.369,21.543,1.865,32.65L7146.676,3225.772z"/>
		<path id="_x31_80622852" fill="none" stroke="#010101" stroke-width="64" d="M7030.311,3216.29l-3.533-0.531
			c9.968-69.588,9.227-128.696-24.902-185.881c-129.258-216.576-257.154-380.822-499.891-510.648l28.516-60.966
			c64.502,31.48,126.365,66.454,180.684,109.384c49.818,39.488,98.592,75.249,142.303,121.728
			c52.777,56.267,103.445,115.062,151.551,175.268c50.804,63.566,77.426,144.135,100.826,220.746
			c6.258,20.589,28.641,83.48,40.816,140.384L7030.311,3216.29z"/>
		<path id="_x31_80622851" fill="none" stroke="#010101" stroke-width="64" d="M8156.455,3839.243h-0.076l-167.758-25.124
			c3.045-13.78,6.318-27.489,10.188-40.82c23.838-82.371,51.059-164.283,82.182-244.172
			c29.609-76.244,32.879-144.286,40.016-224.093l154.633,12.567c-0.461,3.799-0.922,7.6-1.459,11.4
			c-14.586,109.377-54.182,316.474-114.271,511.294L8156.455,3839.243z"/>
		<path id="_x31_80622848" fill="none" stroke="#010101" stroke-width="64" d="M7988.621,3814.117l-319.504-47.896
			c8.42-25.842,17.136-51.83,26.535-78.562c1.517-4.171,2.957-8.414,4.471-12.584l0.6,0.225
			c42.291,97.008,118.631-74.288,132.004-97.507c51.299-89.075,66.238-189.511,76.666-289.954l211.615,17.192
			c-7.137,79.81-10.406,147.849-40.014,224.092c-31.123,79.892-58.346,161.806-82.184,244.174
			C7994.939,3786.63,7991.668,3800.339,7988.621,3814.117z"/>
		<path id="_x31_80622850" fill="none" stroke="#010101" stroke-width="64" d="M7832.725,3577.792
			c-13.373,23.219-89.715,194.515-132.004,97.507l-0.602-0.225c37.434-104.77,78.912-203.19,91.627-315.105
			c3.003-26.303,4.961-53.502,6.016-81.227l111.631,9.097C7898.967,3388.284,7884.029,3488.717,7832.725,3577.792z"/>
		<path id="_x31_80622849" fill="none" stroke="#010101" stroke-width="64" d="M7425.902,3592.716
			c33.433-100.382,36.578-232.147,31.168-341.73l340.688,27.755c-1.055,27.725-3.007,54.924-6.014,81.228
			c-12.715,111.916-54.191,210.337-91.625,315.104c-1.514,4.17-2.956,8.415-4.469,12.586c-9.399,26.73-18.117,52.719-26.535,78.561
			l-292.9-43.801v-0.074C7396.719,3678.501,7412.561,3632.707,7425.902,3592.716z"/>
		<path id="_x31_80622847" fill="none" stroke="#010101" stroke-width="64" d="M7457.07,3250.987
			c5.412,109.581,2.265,241.349-31.168,341.73c-13.342,39.989-29.184,85.783-49.686,129.628l-105.371-15.713
			c-0.402-18.337-1.404-36.674-2.707-54.865c-3.906-55.016-1.258-116.799-27.734-167.18
			c-27.525-52.472-87.139-84.684-129.061-124.896c-35.996-34.534-68.395-64.733-90.077-109.661c0.458-2.459,0.917-4.842,1.224-7.226
			c22.896,41.204,105.826,124.758,127.846,73.241c7.947-18.611,4.361-53.13-3.66-90.271L7457.07,3250.987z"/>
		<path id="_x31_80622846" fill="none" stroke="#010101" stroke-width="64" d="M7146.676,3225.772
			c8.02,37.142,11.607,71.659,3.66,90.271c-22.02,51.519-104.952-32.035-127.846-73.241c1.602-9.237,3.059-18.178,4.283-27.044
			l3.533,0.531L7146.676,3225.772z"/>
		<path id="_x31_80622872" fill="none" stroke="#010101" stroke-width="64" d="M5070.151,1608.048
			c-8.653,56.546-11.591,113.335-11.897,170.277l-132.787-109.329l-1.053-0.078c2.426-61.484,6.962-125.794,17.672-163.852
			c36.525-130.188,110.337-257.366,196.316-351.867l77.46,131.912C5140.557,1380.834,5087.84,1492.494,5070.151,1608.048z"/>
		<path id="_x31_80622871" fill="none" stroke="#010101" stroke-width="64" d="M5183.315,1881.298l-125.06-102.973
			c0.307-56.943,3.247-113.731,11.897-170.279c17.69-115.554,70.403-227.213,145.71-322.935l93.024,158.414
			c-73.286,127.031-113.638,281.656-124.237,417.129C5184.104,1867.512,5183.635,1874.443,5183.315,1881.298z"/>
		<path id="_x31_80622870" fill="none" stroke="#010101" stroke-width="64" d="M5393.912,1912.8
			c-6.956,41.199-15.038,82.395-21.995,123.816l-188.602-155.317c0.319-6.857,0.789-13.787,1.335-20.643
			c10.6-135.476,50.951-290.098,124.237-417.128l138.901,236.648C5415.4,1755.144,5405.07,1846.943,5393.912,1912.8z"/>
		<path id="_x31_80622869" fill="none" stroke="#010101" stroke-width="64" d="M5447.789,1680.175l315.151,536.606
			c-35.238,16.526-68.083,39.691-90.267,67.432l-300.757-247.598c6.957-41.422,15.04-82.62,21.995-123.816
			C5405.07,1846.943,5415.4,1755.144,5447.789,1680.175z"/>
		<path id="_x31_80622868" fill="none" stroke="#010101" stroke-width="64" d="M5814.727,2304.948l0.821,2.461
			c-7.226,2.516-14.68,5.403-22.282,8.659c-17.84,7.63-33.58,16.979-47.897,28.343l-0.899-1.121l-71.793-59.077
			c22.182-27.742,55.026-50.907,90.265-67.432L5814.727,2304.948z"/>
		<path id="_x31_80622877" fill="none" stroke="#010101" stroke-width="64" d="M5063.764,2070.441
			c-0.879,73.116,0.201,145.864-8.193,217.991c-3.158,26.898-5.791,53.872-7.669,80.923l-128.013-40.969
			c-0.895-57.244-0.961-115.008,0.474-171.204c2.104-81.981-1.718-277.943,1.036-376.395c0.836-30.035,1.473-70.283,3.016-111.868
			l1.055,0.077l132.785,109.33C5057.76,1875.667,5064.859,1973.327,5063.764,2070.441z"/>
		<path id="_x31_80622876" fill="none" stroke="#010101" stroke-width="64" d="M5063.764,2070.441
			c1.096-97.114-6.004-194.774-5.51-292.115l125.059,102.974c-3.48,62.375-1.099,125.438-4.881,187.738
			c-4.805,79.216-15.91,153.2-12.598,233.257c1.482,34.961,1.91,70.217,2.342,105.547l-120.275-38.486
			c1.879-27.052,4.508-54.025,7.67-80.923C5063.965,2216.305,5062.889,2143.557,5063.764,2070.441z"/>
		<path id="_x31_80622875" fill="none" stroke="#010101" stroke-width="64" d="M5371.917,2036.616
			c-4.208,25.332-8.035,50.811-10.888,76.369c-13.57,123.168-22.34,221.307-29.752,347.1l-163.098-52.244
			c-0.43-35.33-0.857-70.586-2.34-105.546c-3.314-80.06,7.791-154.042,12.596-233.259c3.782-62.301,1.4-125.362,4.882-187.738
			L5371.917,2036.616z"/>
		<path id="_x31_80622874" fill="none" stroke="#010101" stroke-width="64" d="M5635.662,2340.799
			c11.43-20.152,22.781-37.025,29.85-46.97c1.561-2.268,3.191-4.509,4.893-6.723c1.295-1.724,2.093-2.725,2.268-2.891
			l-300.757-247.6c-4.206,25.332-8.034,50.811-10.886,76.369c-13.572,123.168-22.34,221.307-29.754,347.1l205.766,65.849
			c18.77-32.755,48.457-89.757,63.232-118.092C5609.906,2389.363,5622.478,2364.043,5635.662,2340.799z"/>
		<path id="_x31_80622873" fill="none" stroke="#010101" stroke-width="64" d="M5624.633,2517.431
			c1.336-2.54,2.66-5.059,3.975-7.543c0.064-0.124,0.128-0.244,0.193-0.365c1.24-2.349,2.471-4.668,3.695-6.973
			c0.281-0.53,0.564-1.062,0.848-1.59c1.266-2.384,2.53-4.75,3.783-7.084c0.164-0.303,0.322-0.602,0.484-0.905
			c1.113-2.07,2.217-4.118,3.314-6.15c0.289-0.531,0.576-1.065,0.863-1.592c1.207-2.225,2.406-4.426,3.598-6.602
			c0.24-0.437,0.477-0.869,0.716-1.302c1.009-1.84,2.015-3.66,3.015-5.467c0.297-0.536,0.596-1.077,0.891-1.608
			c1.152-2.071,2.298-4.12,3.438-6.147c0.1-0.177,0.2-0.362,0.302-0.541c0.132-0.234,0.286-0.503,0.448-0.79
			c3.134-5.552,6.236-10.947,9.309-16.174c3.021-5.061,5.969-9.971,8.913-14.734c0.442-0.714,0.882-1.419,1.322-2.125c0,0,0,0,0,0
			c0.003-0.004,0.005-0.008,0.006-0.012c0.694-1.113,1.387-2.22,2.079-3.317c0.021-0.038,0.05-0.078,0.072-0.116
			c0.676-1.073,1.354-2.138,2.029-3.197c0.04-0.06,0.078-0.122,0.117-0.183c0.663-1.036,1.326-2.066,1.988-3.086
			c0.051-0.08,0.102-0.16,0.154-0.24c0.648-0.996,1.293-1.986,1.941-2.97c0.07-0.108,0.141-0.215,0.21-0.321
			c0.636-0.959,1.265-1.911,1.897-2.857c0.084-0.124,0.166-0.247,0.248-0.371c0.622-0.927,1.242-1.85,1.865-2.763
			c0.094-0.14,0.189-0.278,0.281-0.417c0.608-0.892,1.217-1.779,1.826-2.66c0.111-0.162,0.225-0.323,0.337-0.485
			c0.594-0.86,1.188-1.709,1.785-2.558c0.124-0.175,0.245-0.349,0.368-0.523c0.584-0.83,1.172-1.654,1.757-2.475
			c0.134-0.188,0.269-0.374,0.402-0.56c0.577-0.801,1.15-1.598,1.728-2.388c0.147-0.201,0.295-0.402,0.441-0.604
			c0.565-0.77,1.131-1.538,1.695-2.299c0.161-0.215,0.32-0.431,0.48-0.646c0.555-0.741,1.111-1.48,1.667-2.215
			c0.171-0.227,0.345-0.454,0.517-0.68c0.547-0.713,1.09-1.424,1.639-2.132c0.188-0.243,0.375-0.481,0.563-0.725
			c0.534-0.686,1.069-1.367,1.603-2.045c0.201-0.252,0.398-0.502,0.598-0.752c0.527-0.662,1.055-1.324,1.584-1.978
			c0.209-0.259,0.42-0.517,0.63-0.774c0.521-0.637,1.039-1.274,1.56-1.905c0.224-0.27,0.447-0.537,0.672-0.804
			c0.51-0.618,1.023-1.229,1.537-1.835c0.234-0.276,0.467-0.547,0.699-0.82c0.505-0.594,1.011-1.187,1.52-1.775
			c0.246-0.285,0.496-0.568,0.744-0.853c0.496-0.566,0.99-1.133,1.486-1.692c0.264-0.298,0.528-0.592,0.795-0.888
			c0.484-0.542,0.968-1.083,1.457-1.619c0.277-0.307,0.554-0.607,0.832-0.91c0.477-0.52,0.957-1.04,1.436-1.554
			c0.286-0.312,0.583-0.617,0.872-0.927c0.472-0.5,0.942-1,1.415-1.496c0.303-0.317,0.609-0.628,0.912-0.943
			c0.465-0.478,0.926-0.958,1.395-1.434c0.318-0.327,0.64-0.647,0.961-0.97c0.453-0.457,0.906-0.914,1.363-1.365
			c0.336-0.335,0.674-0.661,1.013-0.993c0.444-0.433,0.887-0.871,1.335-1.298c0.355-0.34,0.707-0.676,1.062-1.012
			c0.434-0.416,0.87-0.833,1.309-1.244c0.373-0.349,0.751-0.693,1.127-1.041c0.419-0.39,0.842-0.779,1.264-1.165
			c0.402-0.367,0.812-0.729,1.215-1.093c0.4-0.359,0.801-0.722,1.201-1.077c0.434-0.382,0.869-0.757,1.304-1.136
			c0.38-0.332,0.759-0.665,1.142-0.992c0.469-0.399,0.936-0.794,1.406-1.188c0.355-0.3,0.707-0.604,1.064-0.898
			c0.525-0.438,1.056-0.87,1.584-1.3c0.307-0.249,0.607-0.501,0.912-0.749c0.839-0.675,1.68-1.344,2.526-2.006l-0.899-1.12
			l-63.693-52.411c-7.383-6.031-3.76-3.038-8.1-6.667c-0.175,0.168-0.977,1.169-2.27,2.893c-1.701,2.213-3.334,4.453-4.891,6.723
			c-7.07,9.944-18.421,26.816-29.852,46.971c-13.185,23.242-25.756,48.562-35.391,67.04
			c-14.773,28.336-44.463,85.337-63.232,118.093l70.842,22.7c4.079-7.293,8.012-14.512,11.865-21.879
			c1.345-2.572,2.674-5.106,3.996-7.626C5624.039,2518.563,5624.338,2517.995,5624.633,2517.431z"/>
		<path id="_x31_80622882" fill="none" stroke="#010101" stroke-width="64" d="M5054.494,2651.483
			c14.906,47.817,66.57,98.193,55.902,150.488c-1.07,5.439-2.584,10.576-4.479,15.565c-49.223-9.376-106.201-16.163-138.277-0.673
			c-20.1,9.708-28.566,25.562-31.926,43.739c1.098-43.227,1.711-73.934-0.748-136.921c-4.219-106.969-12.547-249.65-15.074-395.295
			l128.012,40.968c-3.135,45.459-4.013,91.069-1.355,136.618C5049.42,2554.725,5039.961,2604.862,5054.494,2651.483z"/>
		<path id="_x31_80622881" fill="none" stroke="#010101" stroke-width="64" d="M5110.396,2801.972
			c10.668-52.294-40.996-102.67-55.902-150.487c-14.533-46.623-5.074-96.76-7.943-145.512c-2.658-45.547-1.779-91.161,1.354-136.619
			l120.275,38.486c0.867,66.563,1.889,133.198,10.278,198.514c11.044,85.596,28.678,153.17,14.257,229.232
			c-5.109-1.132-10.219-2.189-15.33-3.173c-16.982-3.25-42.909-9.507-71.467-14.875
			C5107.812,2812.548,5109.33,2807.407,5110.396,2801.972z"/>
		<path id="_x31_80622880" fill="none" stroke="#010101" stroke-width="64" d="M5178.454,2606.353
			c-8.39-65.314-9.409-131.951-10.278-198.513l163.096,52.244c-0.709,11.55-1.418,23.399-2.055,35.474
			c-6.093,110.219-19.416,225.412-19.764,350.257l1.203,0.674c-3.554,6.773-7.031,13.62-10.281,20.543
			c-35.232-12.245-71.742-23.597-107.664-31.446C5207.135,2759.526,5189.502,2691.95,5178.454,2606.353z"/>
		<path id="_x31_80622879" fill="none" stroke="#010101" stroke-width="64" d="M5331.273,2460.084l205.764,65.849
			c-11.558,20.169-21.455,37.88-28.326,47.775c-63.861,91.728-145.524,173.941-197.979,272.78h-0.076l-1.201-0.674
			c0.346-124.845,13.671-240.038,19.764-350.257C5329.854,2483.484,5330.564,2471.637,5331.273,2460.084z"/>
		<path id="_x31_80622878" fill="none" stroke="#010101" stroke-width="64" d="M5345.443,2883.329
			c-14.721-5.48-29.82-10.964-45.068-16.298c3.251-6.923,6.731-13.77,10.281-20.543h0.076
			c52.454-98.839,134.113-181.053,197.979-272.78c6.871-9.894,16.77-27.606,28.326-47.775l70.844,22.703
			c-65.967,117.435-160.779,225.253-267.369,351.3C5343.459,2895.026,5345.427,2889.886,5345.443,2883.329z"/>
		<path id="_x31_80622845" fill="none" stroke="#010101" stroke-width="64" d="M8035.713,4188.33l-215.258-60.359
			c38.828-64.664,89.516-122.589,128.199-190.012c21.684-37.88,30.225-81.236,39.969-123.842l167.758,25.123h0.074l3.457,1.055
			c-5.691,18.393-11.531,36.714-17.598,54.808C8124.348,3948.722,8086.072,4058.031,8035.713,4188.33z"/>
		<path id="_x31_80622844" fill="none" stroke="#010101" stroke-width="64" d="M7669.117,3766.221l319.504,47.896
			c-9.742,42.607-18.281,85.962-39.967,123.842c-38.684,67.423-89.371,125.348-128.199,190.012l-289.261-81.132
			c1.13-1.039,2.261-2.079,3.392-3.122c45.762-43.479,81.754-116.425,101.238-175.031
			C7647.428,3833.614,7658.121,3800.029,7669.117,3766.221z"/>
		<path id="_x31_80622843" fill="none" stroke="#010101" stroke-width="64" d="M7531.198,4046.84h-0.077l-308.568-86.551
			c7.295-28.229,17.369-55.406,26.169-83.035l1.577,0.525c56.33-31.672,96.043-91.416,125.92-155.361l292.9,43.803
			c-10.998,33.809-21.691,67.394-33.293,102.468c-19.486,58.605-55.479,131.553-101.24,175.03
			C7533.461,4044.76,7532.328,4045.8,7531.198,4046.84z"/>
		<path id="_x31_80622842" fill="none" stroke="#010101" stroke-width="64" d="M7376.219,3722.422
			c-29.877,63.941-69.59,123.686-125.92,155.357l-1.577-0.525c5.687-18.018,10.851-36.266,14.359-54.967
			c7.099-38.066,8.71-76.895,7.765-115.654l105.373,15.713V3722.422z"/>
		<path id="_x31_80622841" fill="none" stroke="#010101" stroke-width="64" d="M7761.608,4309.007
			c3.128-70.8,27.046-128.201,58.847-181.032l215.256,60.356c-20.902,54.058-43.918,111.685-68.367,170.574h-0.074
			c-55.02-34.882-127.801-36.271-191.098-41.138c-5.038-0.389-10.072-0.773-15.186-1.16L7761.608,4309.007z"/>
		<path id="_x31_80622840" fill="none" stroke="#010101" stroke-width="64" d="M7760.986,4316.605
			c-127.723-9.887-261.006-20.086-381.34-64.389c-25.312-9.31-49.113-22.046-73.064-34.182
			c-10.137-5.174-24.845-16.095-39.26-24.109c-1.947-1.045-3.828-2.094-5.705-2.994l1.814-3.499
			c-0.074-0.221-0.223-0.595-0.299-1.043c27.611-32.794,48.895-61.505,90.51-74.589c57.946-18.252,130.297-23.053,177.48-64.961
			h0.075l289.261,81.135c-31.801,52.831-55.719,110.232-58.844,181.032L7760.986,4316.605z"/>
		<path id="_x31_80622839" fill="none" stroke="#010101" stroke-width="64" d="M7531.121,4046.84
			c-47.184,41.908-119.532,46.709-177.479,64.961c-41.615,13.079-62.898,41.795-90.51,74.589c0.074,0.448,0.225,0.822,0.299,1.043
			l-1.816,3.499c-8.484-4.197-16.674-6.904-23.518-6.398l-112.625-31.312l-0.68,1.411c-23.805-11.39-49.271-20.031-73.455-29.562
			c-13.598-5.33-67.178-17.102-96.393-28.884l0.229-0.596l0.074-27.28l0.455-0.82c28.232,14.835,79.91,33.607,88.023,35.941
			c36.291,10.383,78.613,13.33,108.764-12.971c37.082-32.322,57.976-83.844,70.061-130.172L7531.121,4046.84z"/>
		<path id="_x31_80622813" fill="none" stroke="#010101" stroke-width="64" d="M7913.236,4335.425
			c-29.387-5.841-67.066-11.022-104.035-15.295c-10.779-0.779-21.432-1.483-31.83-2.274c-0.398-0.031-0.799-0.061-1.195-0.092
			c-5.038-0.389-10.074-0.773-15.188-1.158c-32.73-2.535-65.832-5.089-98.98-8.232c-0.787-0.074-1.572-0.151-2.359-0.227
			c-42.611-2.852-85.081-6.488-126.742-14.257c-49.277-9.214-97.334-21.749-144.479-38.509c-2.934-1.033-5.861-2.09-8.779-3.164
			c-25.316-9.31-49.115-22.046-73.064-34.182c-1.59-0.812-3.287-1.763-5.081-2.819c-1.938-1.145-3.988-2.415-6.126-3.776
			c-8.492-5.391-18.34-12.109-28.051-17.516c-1.951-1.049-3.83-2.098-5.709-2.994c-8.486-4.197-16.674-6.904-23.517-6.398
			c-16.317,1.221-3.214,19.593,1.882,26.088c17.084,21.961,38.537,41.099,56.822,62.393c38.75,45.346,65.701,115.258,51.251,174.771
			c-24.717,101.523-125.058,115.488-207.865,149.326c-70.608,28.801-119.628,81.885-184.545,118.157
			c-70.788,39.612-141.746,86.597-206.394,135.616c-38.805,29.411-77.024,63.891-94.445,110.501
			c-8.105,21.669-14.174,41.403-19.727,63.673c-10.301,41.059-19.238,81.029-16.436,127.088c0.221,3.572,0.51,7.188,0.875,10.838
			c0.279,2.769,0.727,5.969,1.465,9.467c4.099,19.395,17.074,47.94,59.01,62.766c17.5,6.216,37.375,12.668,57.992,19.053
			c24.568,7.603,50.184,15.107,74.08,22.007c44.957,12.982,83.842,23.823,98.255,29.134c1.083,0.396,2.271,0.837,3.558,1.308
			c31.555,11.637,122.205,45.184,193.977,71.755c2.82,44.262,24.064,85.852,77.748,79.23c1.27-0.156,5.739-12.76,6.242-13.842
			c10.055-21.671,19.953-43.357,31.102-64.509c2.816-5.349,5.604-10.815,8.48-16.251c6.871-12.971,14.299-25.781,24.11-36.46
			c6.489-7.048,10.735-15.677,18.248-21.813c2.409-1.968,4.771-4.008,7.106-6.076c3.381-3.328,6.857-6.566,10.436-9.708
			c42.172-37.056,85.648-74.058,129.652-109.076c16.836-14.87,33.625-29.8,50.211-44.978c0.586-0.536,1.217-1.065,1.875-1.595
			c0.135-0.124,0.271-0.246,0.404-0.372c4.75-4.328,9.457-8.67,14.143-13.02c11.128-10.328,22.082-20.691,32.793-31.059
			c65.072-62.958,121.83-125.903,162.895-180.572c0.693-0.938,1.387-1.863,2.072-2.771c2.319-3.115,4.588-6.197,6.803-9.257
			c6.053-8.354,11.963-16.788,17.775-25.29c0.191-0.281,0.385-0.561,0.578-0.842c2.965-4.341,5.904-8.696,8.809-13.076
			c0.242-0.361,0.479-0.729,0.723-1.088c0.223-0.344,0.448-0.685,0.674-1.025c20.842-31.57,40.203-64.078,58.584-97.24
			c10.425-18.809,20.531-37.828,30.412-57.012c14.83-28.785,27.793-56.147,41.621-83.162c0.928-1.816,1.864-3.634,2.803-5.451
			c0.51-0.981,1.014-1.963,1.525-2.943c27.572-52.98,48.742-107.144,74.344-162.615c14.398-31.195,25.893-66.625,37.5-87.535
			C7972.26,4350.531,7948.832,4342.498,7913.236,4335.425z"/>
		<path id="_x31_80622814" fill="none" stroke="#010101" stroke-width="64" d="M5362.43,3109.919
			c-13.902-23.626-27.942-46.391-37.295-72.329c-1.903-5.278-3.658-10.683-5.213-16.172c-13.301-42.008-12.068-82.641,20.381-121.19
			c1.604-2.623,2.926-5.282,3.829-8.168c0.827-2.665,1.304-5.525,1.312-8.728c-1.982-0.74-3.971-1.479-5.963-2.219
			c-12.826-4.74-25.91-9.469-39.105-14.083c-35.232-12.245-71.742-23.597-107.664-31.446c-5.109-1.131-10.219-2.188-15.328-3.171
			c-16.987-3.251-42.909-9.508-71.467-14.875c-49.225-9.376-106.199-16.165-138.275-0.674c-13.084,6.321-21.235,15.24-26.262,25.712
			c-3.975,8.341-5.963,17.666-6.891,27.447c-1.695,17.847,0.139,37.211-0.136,54.884c-1.017,65.113-14.186,145.768-15.644,219.833
			c-1.626,82.473-1.785,162.46-1.848,234.734c-0.027,32.824-0.035,64.057-0.15,93.209c-0.094,22.607,0.094,45.658-0.186,68.323
			c0,0,0.005,0.005,0.02,0.009c0.023,0.009,0.059,0.02,0.109,0.037h0.043c0.29,0.095,0.947,0.305,1.947,0.59
			c5.629,1.602,22.094,5.764,45.307,7.135c26.914,1.592,62.893-0.569,101.561-14.827c4.094-1.51,8.351-3.177,12.752-4.994
			c5.508-2.276,11.236-4.782,17.15-7.493c46.322-21.42,103.229-55.659,149.777-89.604c1.191-0.868,2.377-1.738,3.555-2.606
			c33.389-24.625,61.062-48.831,74.912-67.769c0.164-0.244,0.323-0.491,0.484-0.735c0,0,0.374-0.359,1.071-1.058
			c4.491-4.696,23.108-24.793,39.776-51.958c10.317-17.284,20.104-37.999,25.892-60.926c1.693-6.706,3.046-13.601,3.969-20.654
			C5399.375,3191.555,5372.641,3127.27,5362.43,3109.919z"/>
		<path id="_x31_80622835" fill="none" stroke="#010101" stroke-width="64" d="M4969.397,3434.535
			c41.819-113.329,69.341-196.062,65.02-319.278c-1.812-52.105-16.853-104.766-8.89-157.142
			c8.73-56.995,61.756-89.646,80.391-140.577c-49.223-9.376-106.201-16.165-138.277-0.674c-13.08,6.321-21.235,15.241-26.26,25.712
			c-3.977,8.341-5.963,17.667-6.891,27.448c-1.658,17.858,0.163,37.217-0.078,54.901c0.241-17.683-1.58-37.043,0.078-54.901
			c-1.695,17.847,0.137,37.21-0.136,54.883c-1.015,65.113-14.185,145.769-15.644,219.833c-1.628,82.473-1.787,162.46-1.848,234.734
			c0.041-44.937,0.1-92.869,0.6-142.52c-0.5,49.651-0.559,97.583-0.6,142.52c-0.027,32.824-0.035,64.057-0.15,93.209
			c-0.092,22.607,0.094,45.658-0.188,68.324c0,0,0.006,0.004,0.021,0.008c0.094-6.025,0.109-12.05,0.127-18.225
			c-0.018,6.175-0.033,12.199-0.127,18.225c0.021,0.009,0.061,0.02,0.109,0.037h0.043c0.29,0.095,0.947,0.305,1.949,0.592
			c5.627,1.6,22.092,5.764,45.305,7.135C4963.824,3514.635,4966.515,3442.329,4969.397,3434.535z"/>
		<path id="_x31_80622834" fill="none" stroke="#010101" stroke-width="64" d="M5105.918,2817.537
			c-18.639,50.932-71.663,83.583-80.391,140.578c-7.963,52.375,7.078,105.037,8.89,157.142c4.321,123.216-23.2,205.95-65.02,319.276
			c-2.883,7.796-5.573,80.101-5.446,114.244c26.914,1.59,62.893-0.572,101.561-14.827c4.092-1.51,8.351-3.18,12.754-4.998
			c0.468-42.091-5.152-99.033-3.764-116.644c6.315-81.299,61.098-151.587,48.77-235.174
			c-14.539-99.242,14.059-189.502,51.151-280.332c8.705-21.294,14.549-41.551,18.29-61.218c-5.111-1.132-10.221-2.189-15.33-3.172
			C5160.398,2829.163,5134.476,2822.907,5105.918,2817.537z"/>
		<path id="_x31_80622833" fill="none" stroke="#010101" stroke-width="64" d="M5280.599,3303.525
			c7.042-45.074,7.206-104.253,0.185-148.547c-17.072-107.748-30.864-177.7,15.734-279.833c1.211-2.754,2.496-5.434,3.857-8.115
			c-35.23-12.245-71.74-23.599-107.66-31.446c-3.739,19.668-9.584,39.924-18.29,61.217
			c-37.095,90.831-65.688,181.089-51.149,280.334c12.324,83.586-42.46,153.874-48.771,235.173
			c-1.389,17.611,4.23,74.555,3.764,116.645c5.506-2.274,11.236-4.778,17.148-7.493c46.322-21.42,103.229-55.659,149.777-89.603
			C5237.215,3394.731,5275.215,3338.108,5280.599,3303.525z"/>
		<path id="_x31_80622832" fill="none" stroke="#010101" stroke-width="64" d="M5362.43,3109.919
			c-13.902-23.626-27.942-46.391-37.295-72.329c-1.903-5.278-3.658-10.683-5.213-16.172c-13.301-42.008-12.068-82.641,20.381-121.19
			c1.604-2.623,2.926-5.282,3.829-8.168c0.827-2.665,1.304-5.525,1.312-8.728c-1.982-0.74-3.971-1.479-5.963-2.219
			c-12.826-4.74-25.91-9.469-39.105-14.083c-1.363,2.68-2.648,5.36-3.859,8.115c-46.598,102.136-32.805,172.085-15.734,279.833
			c7.021,44.293,6.859,103.473-0.185,148.548c-5.384,34.581-43.384,91.204-35.405,128.332c1.189-0.867,2.377-1.738,3.555-2.604
			c33.389-24.627,61.062-48.833,74.912-67.769c0.164-0.245,0.321-0.493,0.482-0.737c0,0,0.375-0.358,1.073-1.057
			c4.491-4.695,23.108-24.793,39.776-51.958c10.317-17.285,20.104-37.997,25.892-60.926c2.381-11.161,3.308-22.497,2.151-33.685
			c-0.954-9.246-2.879-19.687-5.331-30.349c2.452,10.664,4.377,21.103,5.331,30.349c1.156,11.188,0.229,22.526-2.151,33.685
			c1.693-6.706,3.046-13.6,3.968-20.655C5399.375,3191.555,5372.641,3127.27,5362.43,3109.919z M5363.762,3112.348
			c3.592,6.642,7.772,16.866,11.953,28.728C5371.536,3129.214,5367.354,3118.989,5363.762,3112.348z M5377.055,3145.179
			c3.877,11.563,7.602,24.467,10.5,37.073C5384.279,3170.613,5381.006,3157.712,5377.055,3145.179z"/>
		<path id="_x31_80622838" fill="none" stroke="#010101" stroke-width="64" d="M7913.236,4335.425
			c19.133,5.445,37.396,12.928,54.033,23.479C7950.633,4348.357,7932.369,4340.872,7913.236,4335.425
			c-29.387-5.841-67.066-11.022-104.035-15.295c-10.779-0.779-21.432-1.483-31.83-2.274
			c-37.988,52.824-63.114,137.561-72.893,193.996c-14.395,83.078-53.678,163.148-110.691,225.369
			c-37.297,40.704-77.715,73.938-129.523,89.695c-45.814,13.93-69.139,60.001-107.258,85.438
			c-46.385,30.953-102.183,44.807-150.168,74.029c-45.256,27.566-81.64,62.247-111.082,106.232
			c-24.434,36.508-64.232,38.787-94.688,67.549c-41.189,38.926-40.547,112.34-87.189,146.552
			c31.555,11.637,122.205,45.184,193.977,71.755c-1.612-25.318,2.795-51.508,10.621-70.053
			c42.793-101.405,170.957-200.81,279.879-218.566c9.631-1.568,19.621-2.539,29.379-2.896c16.877-0.61,34.053,2.902,48.673,11.542
			c5.925,3.503,13.69,9.028,12.754,16.812c-0.228,1.702-0.776,3.256-1.548,4.691c11.128-10.328,22.082-20.692,32.795-31.059
			c61.83-59.875,116.222-119.716,156.742-172.492c-40.521,52.776-94.912,112.617-156.742,172.492
			c65.07-62.959,121.828-125.904,162.895-180.572c0.693-0.94,1.387-1.861,2.072-2.771c2.319-3.113,4.586-6.201,6.803-9.257
			c6.053-8.353,11.963-16.786,17.775-25.29c-2.955,4.313-5.936,8.613-8.951,12.89c3.018-4.28,5.996-8.576,8.951-12.89
			c0.191-0.281,0.385-0.562,0.578-0.842c2.965-4.342,5.904-8.699,8.809-13.076c0.242-0.362,0.48-0.729,0.723-1.09
			c0.225-0.342,0.45-0.681,0.675-1.021c20.841-31.572,40.202-64.08,58.583-97.242c9.947-17.973,19.6-36.131,29.027-54.441
			c0.455-0.817,0.907-1.711,1.361-2.529c-0.454,0.818-0.906,1.712-1.361,2.529c-9.428,18.311-19.078,36.473-29.027,54.441
			c10.425-18.809,20.531-37.831,30.412-57.012c14.83-28.785,27.795-56.148,41.621-83.16c-13.162,25.666-25.588,51.722-39.528,79.029
			c13.94-27.308,26.366-53.363,39.528-79.029c0.928-1.818,1.864-3.636,2.805-5.453c0.256-0.493,0.508-0.989,0.766-1.485
			c-0.258,0.496-0.51,0.992-0.766,1.485c0.508-0.981,1.014-1.963,1.523-2.942c27.572-52.981,48.744-107.143,74.346-162.618
			c14.396-31.193,25.891-66.623,37.498-87.535C7972.26,4350.531,7948.832,4342.498,7913.236,4335.425z"/>
		<path id="_x31_80622837" fill="none" stroke="#010101" stroke-width="64" d="M7760.986,4316.605
			c-32.731-2.535-65.83-5.089-98.98-8.232c-42.615,20.901-88.276,35.439-128.797,63.938c-64.942,45.68-40.59,73.711-31.75,142.973
			c10.825,84.794-65.564,165.027-150.559,171.943c-3.812,0.311-7.469,0.118-10.993-0.467c-24.924-4.108-43.232-27.456-66.042-26.469
			c-27.51,1.189-67.012,43.205-92.087,55.606c-39.101,19.35-63.952,44.76-93.595,76.033c-23.814,25.136-51.342,46.336-74.844,71.536
			c-30.048,32.215-31.844,54.898-42.975,95.18c-14.146,51.184-71.391,86.745-92.777,137.85
			c-24.406,58.316-44.607,119.46-65.521,179.778c44.957,12.982,83.844,23.823,98.257,29.13c1.081,0.4,2.271,0.837,3.556,1.312
			c46.643-34.212,46-107.626,87.189-146.55c30.457-28.763,70.254-31.043,94.688-67.551c29.442-43.987,65.824-78.666,111.082-106.232
			c47.985-29.225,103.783-43.08,150.166-74.031c38.123-25.438,61.443-71.508,107.258-85.438
			c51.811-15.758,92.227-48.993,129.525-89.694c57.012-62.222,96.297-142.292,110.689-225.37
			c9.78-56.436,34.906-141.17,72.893-193.994c-0.396-0.031-0.797-0.062-1.193-0.094
			C7771.136,4317.377,7766.1,4316.99,7760.986,4316.605z"/>
		<path id="_x31_80622836" fill="none" stroke="#010101" stroke-width="64" d="M6877.588,5096.496
			c21.389-51.103,78.633-86.664,92.777-137.846c11.133-40.283,12.928-62.967,42.977-95.182c23.5-25.2,51.027-46.4,74.846-71.535
			c29.639-31.274,54.492-56.684,93.593-76.034c25.073-12.397,64.577-54.415,92.085-55.606c22.808-0.987,41.117,22.36,66.043,26.469
			c3.525,0.583,7.18,0.775,10.992,0.469c84.996-6.916,161.384-87.151,150.559-171.942c-8.842-69.265-33.19-97.298,31.75-142.974
			c40.521-28.5,86.186-43.036,128.797-63.939c-0.787-0.072-1.572-0.147-2.359-0.225c-42.609-2.854-85.081-6.49-126.742-14.258
			c-49.277-9.212-97.334-21.752-144.479-38.506c-2.934-1.035-5.861-2.09-8.779-3.166c-25.314-9.31-49.115-22.046-73.064-34.184
			c-1.588-0.809-3.287-1.761-5.081-2.819c-1.938-1.145-3.986-2.415-6.124-3.774c-8.494-5.391-18.342-12.113-28.055-17.515
			c-1.951-1.048-3.828-2.097-5.707-2.997c-8.484-4.197-16.674-6.902-23.518-6.398c-16.316,1.223-3.211,19.594,1.883,26.092
			c17.084,21.959,38.537,41.098,56.824,62.389c38.747,45.346,65.699,115.258,51.249,174.772
			c-24.717,101.522-125.058,115.487-207.865,149.325c-70.606,28.803-119.628,81.887-184.544,118.161
			c-70.788,39.608-141.747,86.597-206.395,135.612c-38.803,29.415-77.023,63.893-94.445,110.5
			c-8.105,21.67-14.174,41.404-19.727,63.676c-10.299,41.061-19.237,81.027-16.436,127.09c0.221,3.572,0.51,7.184,0.875,10.836
			c0.279,2.768,0.729,5.967,1.465,9.466c4.099,19.396,17.074,47.939,59.01,62.767c17.5,6.217,37.375,12.666,57.992,19.053
			c24.57,7.603,50.184,15.105,74.08,22.008C6832.98,5215.957,6853.182,5154.812,6877.588,5096.496z"/>
		<path id="_x31_80622818" fill="none" stroke="#010101" stroke-width="64" d="M6996.45,3415.516
			c9.963-55.968,11.263-112.789,23.153-168.95c21.693,46.845,54.805,77.698,91.707,113.112
			c41.921,40.233,101.508,72.407,129.051,124.875c26.447,50.374,23.82,112.141,27.721,167.223
			c4.016,56.699,5.42,114.368-5.066,170.507c-8.885,47.563-28.421,91.409-40.525,138.022
			c-12.029,46.318-32.938,97.824-70.025,130.166c-30.149,26.281-72.518,23.329-108.763,12.959
			c-11.327-3.238-107.753-38.727-106.464-50.505c0,0,2.716-90,6.443-123.565c1.928-17.328,3.205-34.372,4.014-51.77
			c0.452-9.842,4.443-75.18,6.014-98.184c2.375-34.842,6.991-69.472,10.5-103.998c5.557-54.686,11.178-109.374,17.386-163.99
			C6985.272,3478.971,6990.812,3447.191,6996.45,3415.516z"/>
		<path id="_x31_80622819" fill="none" stroke="#010101" stroke-width="64" d="M6935.999,4084.367
			c7.229,14.896,97.128,33.518,115.288,40.686c38.846,15.332,81.135,28.207,113.986,54.434
			c68.132,54.396,147.23,141.613,153.914,232.253c6.279,85.235-68.625,127.976-142.926,145.447
			c-68.995,16.228-123.689,52.202-179.783,93.854c-30.396,22.569-63.83,39.013-95.488,59.536
			c-71.254,46.181-129.764,79.684-192.482,136.842c54.257-101.47,99.785-182.549,141.201-287.512
			c54.973-139.294,83.631-211.867,83.723-367.478C6933.452,4159.418,6934.764,4117.395,6935.999,4084.367z"/>
		<path id="_x31_80622815" fill="none" stroke="#010101" stroke-width="64" d="M5583.289,3732.139
			c-13.268-30.982-9.703-64.311-10.422-97.024c-0.718-32.704-7.128-64.952-10.674-97.417c-5.036-46.057-8.42-91.299-6.312-139.056
			c4.01-90.674-17.604-241.43,34.711-320.401c37.258-56.251,81.475-113.603,129.605-163.705
			c70.839-73.687,162.145-136.509,257.943-175.009c78.486-31.545,165.012-68.554,251.621-62.694
			c126.061,8.538,251.875,66.17,360.602,127.378c64.531,36.337,126.59,77.76,178.113,131.151
			c36.388,37.716,77.125,86.243,106.547,134.436c3.904,6.385,7.697,12.846,11.329,19.407
			c34.163,61.692,55.992,136.889,66.603,220.26c12.305,96.688,8.104,194.851,1.361,291.785
			c-6.31,90.711-19.252,180.685-26.615,271.248c-14.357,176.66,3.676,354.973-44.238,527.797
			c-14.077,50.782-49.047,158.354-94.447,192.863c-56.078,42.622-308.517-223.535-368.976-271.799
			c-50.491-40.308-100.425-81.326-152.021-120.25c-26.81-20.231-55.534-34.403-82.132-54.534
			c-28.615-21.658-58.361-42.955-92.057-56.194c-37.768-14.841-77.982-20.982-116.875-32.176
			c-49.283-14.174-120.566-16.201-162.386-46.304c-78.47-56.484-79.796-257.27-200.833-257.83
			C5597.658,3754,5588.617,3744.586,5583.289,3732.139z"/>
		<path id="_x31_80622816" fill="none" stroke="#010101" stroke-width="64" d="M6706.192,4798.023
			c21.729-41.082,99.808-128.639,44.749-173.779c-27.402-22.456-73.295-37.384-100.326-61.006
			c-54.492-47.625-112.828-101.566-167.66-148.785c-44.854-38.628-339.98-268.887-382.529-291.361
			c-42.547-22.478-249.339-72.72-284.416-77.787c-35.076-5.069-82.482-82.211-104.83-159.288
			c-22.328-77.024-110.787-91.905-118.416-91.946c4.068,31.076,7.67,62.074,9.389,92.887c2.768,49.416,19.25,100.571,15.881,147.875
			c-6.162-23.623-8.916-79.852-22.223-121.807c-12.762-40.232-36.051-66.252-43.614-88.313c-1.281-3.735-2.204-7.538-2.825-11.403
			c-30.141,24.352-57.771,65.568-72.506,85.865c-36.442,50.179-65.156,105.146-95.754,158.875
			c-48.192,84.591-93.775,171.019-129.788,261.498c-22.714,57.085-78.399,255.686-68.688,370.002
			c0.734,8.684,1.396,17.822,2.016,27.358c1.504-80.194,16.33-149.762,47.721-132.466c32.586,17.967,19.07,101.505,18.305,129.889
			c-1.111,40.786,24.846,179.107-13.285,203.004c-6.096,3.82-11.734,3.301-16.879-0.709c-13.16-10.263-23.068-43.357-29.123-84.99
			c3.1,46.057,7.551,95.704,15.508,146.181c5.623,35.644,14.889,67.329,14.76,101.929c-0.246,56.291-21.13,83.517,29.279,123.651
			c77.84,61.884,147.158-21.859,224.801,48.444c64.713,58.607,122.586,157.83,192.256,211.073
			c96.963,74.108,216.086,143.304,334.109,163.183c87.44,14.73,173.236,6.475,246.381-36.766
			c84.719-50.082,183.773-168.803,248.791-239.697c30.129-32.832,93.791-61.739,104.867-107.562
			c11.068-45.822-13.277-103.207-4.51-156.143C6609.002,5017.236,6643.209,4917.109,6706.192,4798.023z"/>
		<path id="_x31_80622826" fill="none" stroke="#010101" stroke-width="64" d="M6941.205,5737.824
			c3.816-3.695,7.399-7.662,10.727-11.851c0.084-0.116,0.17-0.226,0.252-0.343c2.729-3.906,5.77-7.973,8.162-12.069
			c1.783-3.056,3.837-6.135,5.395-9.294c2.845-5.77,5.375-12.164,7.293-18.27c1.104-3.52,2.234-7.322,3.198-11.258
			c1.677-8.06,2.454-16.252,2.21-24.402c-0.084-0.641-0.175-1.277-0.293-1.908c-1.146-6.121-1.52-12.226-3.117-18.255
			c-1.517-5.714-4.334-10.874-7.037-16.196c-4.361-8.578-11.088-16.045-16.627-23.968c-1.807-2.538-3.57-5.165-5.249-7.952
			c-1.761-2.498-3.641-4.489-7.022-6.451c-5.251-3.046-11.229-4.84-17.352-4.309c-6.312,0.547-12.061,3.534-16.736,7.679
			c-2.809,2.488-5.225,5.396-7.333,8.485c-1.274,1.875-6.372,8.457-5.812,10.701c1.825,7.322,3.793,15.488,7.087,22.269
			c3.026,6.228,6.548,11.43,5.509,18.714c-0.412,2.859-1.148,5.062-2.279,7.061c-3.596,8.043-12.018,13.992-22.107,17.67
			c-5.491,2.455-11.324,4.291-17.17,5.791c-20.624,5.298-35.274,3.998-41.111,28.871c-2.977,12.666-1.446,28.552,5.444,39.814
			c3.442,5.631,9.731,10.791,14.85,14.83c3.302,2.598,7.425,4.158,11.28,5.783c0.045,0.019,0.092,0.035,0.133,0.057
			c2.748,1.145,5.379,1.87,8.209,2.422c5.752,1.126,11.441,2.147,17.379,2.431c9.391,0.454,18.973-0.517,27.77-3.944
			c1.76-0.684,3.56-1.191,5.34-1.738c1.33-0.612,2.662-1.265,3.998-1.98c2.96-1.576,5.846-3.311,8.658-5.176
			c1.225-0.99,2.438-1.99,3.684-2.935C6932.896,5744.79,6937.201,5741.458,6941.205,5737.824z"/>
		<path id="_x31_80622827" fill="none" stroke="#010101" stroke-width="64" d="M5867.769,5915.648
			c56.028,28.998,64.737-43.824,41.733-86.225c-10.004-18.443-26.004-31.131-46.715-27.197
			C5818.65,5810.605,5841.248,5901.93,5867.769,5915.648z"/>
		<path id="_x31_80622828" fill="none" stroke="#010101" stroke-width="64" d="M5577.559,5638.497
			c-22.43,32.294,70.793,125.011,87.824,70.405c3.734-11.968-5.021-29.758-18.487-45.373c-4.524-4.387-8.94-8.824-13.231-13.301
			C5613.207,5632.421,5588.672,5622.496,5577.559,5638.497z"/>
		<path id="_x31_80622829" fill="none" stroke="#010101" stroke-width="64" d="M6214.662,5891.455
			c-12.66-10.342-46.74-46.979-60.99-50.018c-87.301-18.603,30.904,122.352,48.406,135.164c24.416,17.871,48.11,24.176,60.658,3.276
			c1.17-4.691,1.998-10.745,2.582-18.534c0.557-7.443-1.018-15.418-3.354-23.627
			C6251.064,5918.938,6229.009,5903.169,6214.662,5891.455z"/>
		<path id="_x31_80622830" fill="none" stroke="#010101" stroke-width="64" d="M5220.514,4916.625
			c5.145,4.01,10.781,4.531,16.879,0.709c38.133-23.895,12.176-162.214,13.287-203.004c0.768-28.384,14.279-111.92-18.307-129.887
			c-31.391-17.298-46.217,52.27-47.719,132.464c2.207,33.865,3.916,72.806,6.738,114.728
			C5197.447,4873.27,5207.355,4906.362,5220.514,4916.625z"/>
		<path id="_x31_80622825" fill="none" stroke="#010101" stroke-width="64" d="M6983.083,5357.582
			c-12.96-4.574-26.956-11.674-41.444-18.758c12.22,39.672,18.055,71.316,8.043,114.058c-8.943,38.183-25.887,85.239-6.951,123.031
			c11.445,22.839,29.846,34.167,34.447,61.477c7.775,46.163-19.945,96.926-60.988,118.82c-69.52,37.101-129.967-66.937-211.34-2.604
			c-32.498,25.696-52.34,64.116-81.52,93.064c-56.246,55.794-120.664,103.417-194.244,134.423
			c-49.922,21.037-110.131,22.12-155.293,50.573c-49.068,30.907-83.107,82.694-143.236,96.032
			c-107.176,23.781-269.887,7.617-362.883-53.965c-63.405-41.995-133.748-80.601-189.439-132.571
			c-62.51-58.331-122.094-121.099-165.934-194.723c-41.029-68.915-56.441-157.494-113.861-215.739
			c-27.994-28.396-61.824-57.695-72.422-97.584c-12.848-48.354,12.08-93.208,21.637-139.346c3.761-18.146,6.823-40.741,6.191-61.975
			c-3.819-2.254-7.505-4.672-10.996-7.203c-4-2.899-7.738-5.948-11.115-9.064c-12.521-11.553-17.688-26.161-38.388-21.049
			c-47.752,11.776-97.749,66.901-146.935,86.879c69.314,107.535,153.192,194.594,198.865,320.158
			c141.94,390.248,503.667,649.736,720.017,657.852c214.272,8.031,477.236-17.33,712.255-162.048
			c120.51-74.207,311.006-319.33,422.367-470.899c45.709-62.212,62.889-121.997,95.035-190.643
			C7125.375,5407.756,7053.938,5382.598,6983.083,5357.582z"/>
		<path id="_x31_80622823" fill="none" stroke="#010101" stroke-width="64" d="M6879.086,5763.871
			c-5.939-0.284-11.627-1.306-17.379-2.433c-2.83-0.553-5.461-1.274-8.209-2.421c-0.043-0.02-0.088-0.037-0.133-0.058
			c-3.855-1.626-7.979-3.187-11.28-5.784c-5.118-4.035-11.41-9.194-14.85-14.828c-6.887-11.265-8.419-27.146-5.444-39.814
			c5.839-24.873,20.487-23.575,41.111-28.869c5.846-1.504,11.677-3.338,17.17-5.793c-12.35,4.501-27.195,5.599-38.756,2.957
			c-45.307-10.356-75.037-66.361-130.191-52.096c-33.141,8.563-62.432,59.514-90.868,80.342
			c-44.759,32.785-81.997,78.761-131.304,105.361c-54.947,29.628-104.807-14.451-158.379-1.826
			c-35.996,8.49-67.359,43.467-78.846,77.047c-6.475,19.011,4.32,41.287,10.235,62.062c6.834,11.775,9.282,24.737,2.68,38.626
			c-0.601,1.263-1.243,2.428-1.907,3.534c-5.835,23.426-20.178,12.887-55.1,14.108c-48.076,1.664-90.903,19.085-138.383,26.81
			c-176.211,28.676-273.375-23.342-391.715-148.604c-35.519-37.595-74.361-72.604-104.508-114.812
			c-29.51-41.315-49.982-93.281-65.465-141.325c-10.697-33.185-18.115-64.534-38.06-95.284
			c-15.329-23.629-30.18-37.244-55.751-48.938c-40.611-18.571-62.217-38.716-81.867-78.327
			c-23.397-47.163-35.871-94.984-23.148-145.877c-5.752,0.064-11.484-0.21-17.129-1.18c-12.482-2.15-25.766-7.581-37.76-14.658
			c0.631,21.237-2.431,43.83-6.191,61.979c-9.559,46.135-34.486,90.99-21.639,139.344c10.599,39.889,44.43,69.187,72.424,97.586
			c57.42,58.244,72.831,146.822,113.861,215.737c43.839,73.625,103.422,136.392,165.932,194.722
			c55.693,51.97,126.033,90.577,189.441,132.573c92.994,61.583,255.703,77.747,362.881,53.964
			c60.13-13.336,94.168-65.123,143.236-96.032c45.164-28.454,105.371-29.532,155.295-50.573
			c73.579-31.008,137.996-78.631,194.242-134.421c29.182-28.948,49.025-67.372,81.52-93.064
			c79.812-63.1,139.488,35.761,207.342,4.581c-1.78,0.547-3.578,1.054-5.338,1.74
			C6898.059,5763.354,6888.477,5764.324,6879.086,5763.871z"/>
		<path id="_x31_80622824" fill="none" stroke="#010101" stroke-width="64" d="M6869.377,5447.198
			c-0.844,16.376-3.113,32.524-8.322,48.332c-6.781,20.564-27.053,50.772-16.324,72.925c9.607,19.842,38.691,30.715,51.92,49.316
			c8.01,11.261,8.945,20.787,5.529,28.429c1.131-1.999,1.867-4.198,2.277-7.06c1.041-7.28-2.482-12.484-5.507-18.713
			c-3.294-6.781-5.262-14.944-7.087-22.27c-0.561-2.242,4.535-8.826,5.812-10.7c2.106-3.091,4.522-5.996,7.331-8.485
			c4.677-4.146,10.428-7.127,16.738-7.678c6.121-0.531,12.101,1.261,17.352,4.308c3.377,1.964,5.26,3.951,7.022,6.449
			c-1.177-1.962-2.31-4.001-3.384-6.139c-18.936-37.794-1.992-84.849,6.951-123.031c10.012-42.745,4.177-74.386-8.042-114.058
			c-27.319-13.359-56.39-26.666-83.603-22.908c-5.504,0.761-10.178,2.369-14.133,4.673c2.852,9.735,8.027,22.146,10.076,29.87
			C6862.271,5381.699,6871.096,5413.771,6869.377,5447.198z"/>
		<path id="_x31_80622822" fill="none" stroke="#010101" stroke-width="64" d="M5331.889,5393.506
			c19.65,39.611,41.256,59.756,81.867,78.327c25.571,11.696,40.424,25.312,55.751,48.941c19.94,30.747,27.364,62.103,38.058,95.281
			c15.484,48.044,35.953,100.01,65.464,141.325c30.149,42.208,68.989,77.217,104.509,114.814
			c118.338,125.262,215.502,177.277,391.715,148.602c47.481-7.725,90.305-25.146,138.383-26.81
			c34.92-1.222,49.262,9.317,55.1-14.108c-12.546,20.898-36.24,14.594-60.656-3.273c-17.502-12.814-135.707-153.768-48.406-135.164
			c14.248,3.037,48.328,39.676,60.988,50.016c14.349,11.714,36.404,27.484,47.3,46.264c-5.911-20.773-16.71-43.051-10.235-62.061
			c11.488-33.582,42.85-68.558,78.848-77.051c53.57-12.621,103.432,31.457,158.379,1.826
			c49.307-26.601,86.545-72.572,131.301-105.359c28.438-20.828,57.729-71.777,90.867-80.342
			c55.158-14.266,84.887,41.739,130.195,52.094c11.561,2.644,26.404,1.546,38.754-2.955c6.385-2.855,12.307-6.552,17.234-11.588
			c2.105-2.152,3.703-4.014,4.875-6.083c3.414-7.642,2.477-17.168-5.529-28.429c-13.229-18.606-42.312-29.476-51.922-49.315
			c-10.729-22.153,9.545-52.363,16.325-72.924c5.212-15.808,7.481-31.958,8.323-48.336c1.717-33.425-7.105-65.497-15.396-96.734
			c-2.049-7.726-7.226-20.14-10.076-29.873c-32.242,18.773-16.695,83.765-13.342,113.097c5.479,47.852-5.832,83.435-61.301,80.846
			c-64.58-3.012-124.65-43.1-189.682-39.871c-55.174,2.748-72.081,52.476-91.357,95.604
			c-63.629,142.382-163.822,214.26-315.218,227.426c-124.034,10.786-281.368,16.059-395.733-40.35
			c-43.344-21.376-90.945-55.592-130.375-93.811c13.465,15.615,22.221,33.408,18.486,45.373
			c-17.031,54.611-110.252-38.111-87.824-70.405c11.111-15.999,35.648-6.076,56.107,11.733
			c-15.898-16.59-30.064-33.717-41.533-50.707c-22.832-33.822-44.123-68.816-72.842-98.185
			c-28.162-28.806-54.619-49.467-88.84-71.733c-56.914-37.013-127.164-111.183-73.387-182.632
			c-15.344-2.468-31.926,0.476-48.324,0.653C5296.012,5298.521,5308.49,5346.344,5331.889,5393.506z M5862.787,5802.225
			c20.711-3.932,36.711,8.756,46.715,27.197c23.004,42.402,14.295,115.225-41.733,86.227
			C5841.248,5901.93,5818.65,5810.605,5862.787,5802.225z"/>
		<path id="_x31_80622821" fill="none" stroke="#010101" stroke-width="64" d="M5495.164,3448.859
			c-21.738-75.443-38.56-148.072-41.902-226.696c-13.08,11.885-17.336,25.834-25.805,40.791
			c-34.828,61.542-83.363,103.911-128.539,157.354c-25.143,29.745-178.26,111.317-228.46,136.017
			c-50.197,24.706-154.131,12.852-154.131,12.852c-0.954,74.066,0.812,111.091-0.29,148.381
			c-3.427,115.591,1.623,231.432,0.245,347.109c-0.337,28.393-5.397,51.633,2.368,67.645c7.763,16.021,33.754,29.906,46.861,48.577
			c54.703,77.913,106.809,123.269,174.271,197.986c25.535,28.28,65.516,2.776,74.011-22.42
			c15.261-45.205,34.011-87.255,51.728-131.38c32.93-82,80.027-166.822,129.658-239.877
			c36.666-53.957,69.443-110.032,105.692-164.516c22.312-33.546,52.233-62.603,51.999-105.438
			C5552.401,3627.593,5519.283,3532.537,5495.164,3448.859z M5146.874,3682.264c-16.317,17.082-46.782,26.251-65.972,38.764
			c-12.799,8.342-30.082,23.035-47.064,30.18c-16.031,6.75-31.805,6.771-43.273-11.631c-22.861-36.696,27.254-63.135,41.236-91.033
			c9.977-19.894,20.012-45.952,26.215-67.223c8.459-28.989,59.027-56.838,82.666-28.91c15.707,18.543,28.9,42.532,29.723,66.978
			C5170.887,3633.778,5156.705,3671.962,5146.874,3682.264z"/>
		<path id="_x31_80622831" fill="none" stroke="#010101" stroke-width="64" d="M5033.838,3751.207
			c16.982-7.145,34.264-21.838,47.064-30.18c19.189-12.513,49.654-21.68,65.972-38.764c9.831-10.302,24.013-48.485,23.53-62.876
			c-0.822-24.445-14.016-48.435-29.723-66.978c-23.639-27.93-74.207-0.079-82.666,28.91c-6.205,21.268-16.24,47.329-26.215,67.223
			c-13.984,27.898-64.1,54.337-41.238,91.033C5002.033,3757.977,5017.807,3757.954,5033.838,3751.207z"/>
		<path id="_x31_80622817" fill="none" stroke="#010101" stroke-width="64" d="M6728.861,5272.621
			c-65.109-21.299-104.269-53.234-121.544-6.543c-15.148,40.949-54.745,52.488-98.11,99.764
			c-65.003,70.871-196.646,214.775-282.119,255.721c-180.172,86.291-402.242-10.406-571.064-139.436
			c-76.586-58.53-209.743-287.524-272.156-233.729c-65.596,56.539,1.752,132.375,74.943,175.432
			c117.58,69.17,158.08,217.188,286.793,295.187c94.232,57.103,172.285,69.265,253.586,65.904
			c84.6-3.498,205.154,1.743,285.816-32.767c173.141-74.064,190.784-254.944,265.85-291.826
			c52.5-25.791,196.506,46.188,242.613,16.197c17.111-11.127,18.096-40.683,17.754-76.975c-0.369-38.977-19.881-62.162-4.795-79.511
			C6824.182,5299.615,6768.307,5285.523,6728.861,5272.621z"/>
		<path id="_x31_80622820" fill="none" stroke="#010101" stroke-width="64" d="M5035.21,5264.33
			c-21.292-33.031-40.149-66.389-54.402-100.796c-15.827-38.206-62.495-114.456-68.348-148.009l2.317-840.363
			c0,0,92.197,106.838,136.804,151.302c37.491,37.368,114.419,89.75,116.181,132.608c3.979,96.848-13.785,227.914-13.957,290.03
			c-0.188,67.493,42.836,315.645,42.771,338.005c-0.06,22.359-2.717,74.524-35.373,101.773
			C5128.547,5216.121,5035.21,5264.33,5035.21,5264.33z"/>
		<path id="_x31_80622884" fill="none" stroke="#010101" stroke-width="64" d="M5607.881,2548.635
			c4.079-7.293,8.01-14.513,11.863-21.881c15.799-30.219,30.01-56.79,43.758-80.155c3.021-5.061,5.969-9.971,8.913-14.733
			c23.188-37.578,45.597-66.063,72.95-87.456c14.318-11.365,30.059-20.712,47.9-28.342c7.601-3.258,15.055-6.146,22.278-8.66
			c87.907-30.618,149.276-8.092,234.011,22.175c10.965,3.907,22.385,7.963,34.327,12.093
			c152.794,52.59,273.646,100.246,418.097,177.554c242.734,129.827,370.633,294.074,499.889,510.648
			c34.129,57.185,34.871,116.293,24.904,185.881c-1.227,8.866-2.683,17.807-4.285,27.044c-0.307,2.383-0.768,4.768-1.225,7.227
			c-0.598-1.122-1.119-2.314-1.643-3.433c-5.029,23.914-8.254,47.978-10.876,72.046c-5.497,29.948-11.073,61.909-15.454,96.332
			c-3.533,27.494-6.846,55.061-10.002,82.483c-0.076,0.669-0.078,1.265-0.23,1.862c-0.539,4.022-0.999,8.046-1.462,12.145
			c-6.167,54.618-11.806,109.309-17.372,164.004c-3.479,34.498-8.086,69.145-10.512,103.946c-0.234,3.13-0.473,6.931-0.781,11.327
			c-7.334,69.072-14.01,117.205-21.182,128.438c-5.439,8.483-7,1.625-6.121-17.008c0,0,0,0,0.002-0.074
			c0.236-4.32,0.549-8.72,0.861-13.039c0.156-1.865,0.312-3.876,0.468-5.89c4.507-51.862,17.483-149.54,25.912-261.917
			c1.169-15.278,2.268-30.778,3.211-46.504c4.007-62.223,6.358-124.9,3.45-187.219c-0.279-8.126-0.783-16.25-1.363-24.377
			c-0.433-7.156-1.012-14.312-1.67-21.47c-0.219-2.087-0.438-4.247-0.66-6.336c-0.585-6.337-1.242-12.675-2.053-19.013
			c0-0.447-0.074-0.894-0.148-1.268c-0.221-1.863-0.438-3.727-0.66-5.591c-0.66-5.219-1.401-10.363-2.135-15.509
			c-0.223-1.789-0.518-3.504-0.812-5.22c-0.664-4.472-1.331-8.946-2.145-13.348c-0.59-3.876-1.258-7.68-2-11.483
			c-1.853-10.142-3.928-20.21-6.156-30.053c-1.115-4.847-2.23-9.695-3.494-14.468c-1.113-4.773-2.38-9.473-3.72-14.173
			c-1.263-4.698-2.604-9.397-4.021-14.024c-1.34-4.622-2.756-9.25-4.248-13.725c-1.118-3.356-2.236-6.712-3.355-9.998
			c-3.506-10.146-7.238-19.993-11.195-29.545c-1.719-4.254-3.512-8.433-5.381-12.611c-1.418-3.134-2.84-6.343-4.334-9.477
			c-4.338-9.105-8.823-18.062-13.609-26.646c-4.34-7.838-8.904-15.602-13.695-23.292c-2.771-4.48-5.615-8.883-8.611-13.365
			c-2.17-3.36-4.494-6.646-6.74-10.006c-15.801-22.925-33.108-45.034-50.498-65.875c-15.663-18.751-32.531-36.461-50.306-53.206
			c-30.446-29.748-64.21-55.553-99.712-78.903c-20.34-13.769-41.281-26.721-62.678-38.854c-16.516-9.436-33.334-18.35-50.381-26.746
			c-96.33-50.572-203.358-93.867-310.709-101.835c-1.129-0.077-2.18-0.155-3.23-0.233c-20.072-1.693-40.223-2.045-60.898-3.517
			c-54.576-3.875-109.014-4.918-163.609-1.413c-121.83,7.722-216.806,120.456-292.756,205.369
			c-21.193,23.718-103.025,114.281-169.488,193.331c-51.675,61.426-75.508,114.13-118.235,148.748
			c-19.896,16.194-28.48-5.892-37.117-36.622c-0.075-0.149-0.073-0.374-0.151-0.523c-2.896-12.604-6.619-25.509-10.5-37.073
			c-0.445-1.343-0.893-2.759-1.34-4.103c-3.356-10.296-7.238-20.144-11.951-28.728c-0.376-0.822-0.822-1.643-1.271-2.388
			c-16.837-29.041-32.398-57.704-41.719-85.828c-0.223-0.747-0.523-1.567-0.748-2.388c-10.275-36.176-11.896-75.908,10.6-107.823
			c3.625-5.058,7.094-9.37,9.737-13.761c0-0.076,0.075-0.149,0.151-0.224C5447.104,2773.891,5541.916,2666.072,5607.881,2548.635z"
			/>
		<path id="_x31_80622885" fill="none" stroke="#010101" stroke-width="64" d="M7476.407,5098.503
			c-14.62-8.64-31.796-12.154-48.673-11.544c-9.758,0.359-19.75,1.328-29.379,2.9c-108.922,17.756-237.086,117.161-279.879,218.562
			c-7.827,18.549-12.235,44.737-10.621,70.054c2.82,44.263,24.064,85.851,77.748,79.233c1.271-0.159,5.741-12.763,6.244-13.844
			c10.053-21.671,19.953-43.356,31.1-64.508c2.818-5.351,5.604-10.816,8.48-16.251c6.871-12.975,14.299-25.781,24.11-36.459
			c6.489-7.049,10.735-15.68,18.249-21.814c2.408-1.97,4.77-4.008,7.107-6.078c3.381-3.328,6.855-6.564,10.436-9.707
			c42.171-37.055,85.646-74.057,129.65-109.077c16.836-14.868,33.627-29.798,50.212-44.976c0.585-0.537,1.216-1.067,1.876-1.594
			c0.133-0.125,0.27-0.248,0.402-0.371c4.75-4.332,9.457-8.676,14.143-13.021c0.771-1.434,1.32-2.986,1.548-4.691
			C7490.098,5107.527,7482.332,5102.004,7476.407,5098.503z"/>
		<path id="_x31_80622886" fill="none" stroke="#010101" stroke-width="64" d="M6152.939,4562.989
			c14.357,60.509-41.917,47.131-80.342,49.464c-47.463,2.894-101.141-15.432-145.181-67.471
			c-40.452-47.801-72.206-120.725-52.159-171.57C5938.6,4212.783,6128.168,4458.573,6152.939,4562.989z"/>
		<path id="_x31_80622883" fill="none" stroke="#010101" stroke-width="64" d="M5472.666,3353.069
			c-11.713-50.719-22.875-103.563-7.084-157.47c13.121-44.817,37.555-75.524,69.869-115.34
			c64.129-79.017,135.366-154.961,163.571-187.886c18.754-21.887,38.049-42.637,57.442-63.977
			c17.609-19.38,35.162-38.794,54.618-56.379c30.938-27.954,63.208-54.25,100.768-73.06c10.433-5.225,21.124-9.942,32.04-14.105
			c56.826-21.692,157.773-15.384,239.691-10.603c-0.532,0.696-4.901,1.326-5.792,1.518c-3.13,0.697-8.346,1.448-11.462,2.205
			c-25.468,6.183-48.818,12.589-74.019,19.809c-33.364,9.559-66.644,20.962-98.489,34.75c-5.258,2.279-10.383,4.871-15.689,7.004
			c-48.244,19.391-80.305,45.565-118.688,63.396c-24.992,11.607-47.916,32.793-66.305,47.286c-26.16,20.607-45.912,36.18-73.02,64.4
			c-48.059,50.021-92.272,107.374-129.533,163.624c-52.312,78.971-30.699,229.727-34.712,320.403
			c-2.106,47.771,1.28,93.026,6.319,139.101c4.756,43.486,10.996,87.72,15.473,135.48c6.685,71.338,20.533,143.025,24.48,213.735
			c2.765,49.413,19.247,100.568,15.877,147.872c-6.163-23.623-8.914-79.852-22.221-121.805
			c-12.76-40.234-36.051-66.254-43.616-88.313c-13.636-39.764,13.548-87.571,5.373-129.177
			c-16.153-82.241-19.804-90.739-41.679-180.263C5507.771,3482.044,5488.207,3420.354,5472.666,3353.069z"/>
	</g>
</g>
</svg>
