<svg width="9408" height="7728" xmlns="http://www.w3.org/2000/svg">
<g transform="scale(1.0)">
<g id="180640943" order="1" parent_id="" graphic_group_label_id="28" graphic_group_label="Atlas - Adult Mouse" sub_image_id="100960188" transform=" scale(1.0, 1.0)"><path id="180640945" parent_id="180640943" order="0" structure_id="8" d="M4093.313,6865.996c10.16,13.279,20.57,33.229,29.688,45.004
			c16.902,21.832,32.262,44.208,60.389,61.664c42.946,26.656,84.601,47.4,133.951,54.021
			c122.002,16.358,238.873,15.594,360.248-5.228c153.937-26.411,310.104-28.924,461.746-70.082
			c206.642-56.082,421.162-81.897,615.734-172.955c179.244-83.896,356.939-174.208,522.843-282.521
			c92.071-60.111,168.69-145.826,260.999-203.153c47.837-29.698,115.816-12.39,135.089,41.437
			c30.888,86.224-162.927,271.344-11.899,307.435c49.498,11.832,118.142-4.245,157.229-35.374
			c75.615-60.21,107.411-178.701,135.696-266.716c45.797-142.532,83.564-290.739,116.729-436.603
			c15.72-69.155,30.487-140.401,43.708-209.928c14.3-75.131-7.77-210.495,48.303-269.698c40.176-42.41,112.34,78.733,130.375,108.5
			c33.555,55.331,66.125,105.062,137.746,108.196c56.371,2.449,81.379-63.707,138.065-53.891
			c-5.472-1.188-56.026,112.04-60.166,123.979c-23.017,66.59-10.983,127.533-11.485,195.334
			c-0.483,65.012-14.81,125.842-2.197,191.344c20.944,108.779,59.313,216.35,130.949,302.824
			c208.746,251.982,558.416,6.225,715.736-179.539c44.283-52.279,85.948-107.047,123.528-164.301
			c18.16-27.672,45.568-51.798,61.846-81.157c23.188-41.792,50.501-84.399,31.805-135.476c45.153,9.566,93.241-59.182,98.647-67.725
			c37.139-58.691,63.971-125.473,91.021-189.2c13.816-32.599,24.473-66.748,30.738-101.644
			c20.143-112.188,27.523-252.33-18.762-358.809c-61.313-141.035-144.377-279.989-254.932-386.777
			c-36.816-35.551-55.782-76.479-86.156-116.598c-65.276-86.227-156.596-152.628-248.65-208.109
			c-118.604-71.477-245.75-127.69-363.43-201.209c-72.457-45.264-105.426-119.948-185.234-158.668
			c-73.117-35.472-159.16-46.887-239.705-40.823c-65.709,4.954-110.961-13.666-44.705-70.005
			c57.949-49.264,132.528-67.307,194.446-109.149c74.729-50.511,118.76-132.048,161.456-208.558
			c48.753-87.378,39.579-164.125,34.412-261.772c-4.538-85.941-22.7-180.429-73.177-252.269
			c-54.371-77.379-107.46-102.812-117.918-204.725c-11.3-110.002-34.771-220.295-84.235-319.864
			c-163.762-329.524-400.106-626.554-725.688-809.11c-76.438-42.857-192.146-146.057-282.625-129.411
			c-38.848,7.146-65.607,62.307-118.336,31.122c-45.68-27.031-57.132-123.161-75.279-167.449
			c-21.83-53.275-43.975-97.19-75.349-145.228c-76.771-117.577-165.237-223.619-262.492-325.546
			c-135.175-141.678-323.349-192.426-510.576-236.276c-115.326-27.01-231.128-6.901-346.886,4.139
			c-77.402,7.378-155.336,38.897-234.018,25.216c-50.693-8.818-98.553-33.753-151.131-42.459
			c-63.23-10.468-116.281-21.353-178.828-35.249L4093.313,6865.996z" style="stroke:black;fill:#bfdae3"/><path id="180640976" parent_id="180640943" order="1" structure_id="313" d="M4463.816,1191.427
			c21.793-96.288,69.781-162.903,145.856-208.565c52.17-31.313,88.745-66.019,136.196-103.612
			c55.242-43.766,101.586-34.974,169.795-43.077c48.354-5.737,99.744-28.693,148.293-33.357c115.24-11.07,234.5-27.757,349.289-0.78
			c186.361,43.795,376.688,104.315,511.203,245.946c96.785,101.902,185.836,212.149,262.224,329.696
			c26.867,41.341,47.467,85.41,73.883,146.53c51.125,146.064,79.11,380.868,29.474,568.68
			c-40.24,152.256-107.565,280.187-185.976,417.079c-62.562,109.237-110.231,215.864-226.871,276.879
			c-83.556,43.704-144.885,4.125-228.33-19.092c-155.994-43.425-330.021-141.519-455.793-242.335
			c-72.342-57.995-145.495-125.346-208.585-192.833c-90.762-97.099-193.898-196.562-303.707-269.897
			c-53.186-35.507-89.434-70.912-116.383-92.334c-54.148-43.026-93.248-52.636-149.13-59.761L4463.816,1191.427z" style="stroke:black;fill:#ff64ff"/><path id="180640977" parent_id="180640943" order="2" structure_id="313" d="M5187.4,3958.709
			c63.018,97.602,73.373,152.502,185.297,201.045c49.317,21.387,112.36,74.977,162.617,71.212
			c0.291-20.604-7.809-38.456-20.651-55.042c-14.737-19.025-57.642-33.544-78.417-43.953
			c-47.676-23.866-116.573-38.697-151.354-82.419c-45.826-57.595-89-119.417-124.189-184.147
			c-15.034-27.673-14.068-144.676-66.166-155.946c-64.809-14.011-28.207,75.125-19.305,95.896
			C5100.252,3863.705,5153.341,3905.97,5187.4,3958.709z" style="stroke:black;fill:#ff64ff"/><path id="180640979" parent_id="180640943" order="3" structure_id="811" d="M5218.854,1265.284
			c-271.479,16.332-471.567,211.86-383.934,494.272c96.4,310.689,465.404,516.448,772.68,555.426l28.75,3.968
			c1.019-2.491,2.145-4.969,3.404-7.432c27.988-54.703,95.994-101.032,131.126-154.513
			c162.26-246.966,38.694-754.722-131.551-841.731C5504.283,1281.799,5358.264,1256.901,5218.854,1265.284z" style="stroke:black;fill:#ff7aff"/><path id="180640978" parent_id="180640943" order="4" structure_id="820" d="M5636.35,2318.95l-28.75-3.968
			c-307.274-38.978-676.278-244.735-772.68-555.426c-87.635-282.413,112.453-477.94,383.934-494.272
			c139.41-8.384,285.431,16.515,420.477,49.989l151.936-357.952l5.678-12.323c-115.393-71.841-250.552-111.676-383.693-142.964
			c-114.789-26.977-234.049-10.29-349.289,0.78c-48.549,4.663-99.938,27.62-148.293,33.357
			c-68.209,8.104-114.554-0.688-169.795,43.077c-47.453,37.594-84.026,72.3-136.196,103.612
			c-76.075,45.662-124.063,112.277-145.856,208.565l-48.563,719.166c55.883,7.125,94.982,16.733,149.13,59.761
			c26.951,21.422,63.198,56.828,116.383,92.334c109.808,73.336,212.946,172.8,303.707,269.897
			c63.09,67.487,136.243,134.838,208.585,192.833c84.191,67.486,190.004,133.748,297.557,183.213
			c66.488-72.495,127.023-151.914,138.855-253.578C5635.063,2407.021,5619.15,2361.049,5636.35,2318.95z" style="stroke:black;fill:#ff7aff"/><path id="180640980" parent_id="180640943" order="5" structure_id="828" d="M6260.557,1524.208
			c-26.416-61.121-47.016-105.188-73.883-146.53c-76.388-117.547-165.438-227.794-262.223-329.695
			c-38.414-40.446-81.385-74.269-127.51-102.983l-5.678,12.323l-151.936,357.953c170.245,87.011,293.811,594.767,131.551,841.73
			c-35.132,53.48-103.139,99.811-131.126,154.513c-1.261,2.463-2.388,4.941-3.403,7.433l9.793,1.352l-9.793-1.352
			c-17.199,42.099-1.287,88.07-6.877,136.104c-11.832,101.664-72.367,181.083-138.855,253.578
			c53.12,24.43,106.663,44.766,158.236,59.123c83.444,23.217,144.774,62.796,228.33,19.092
			c116.64-61.016,164.31-167.643,226.871-276.879c78.408-136.893,145.733-264.822,185.975-417.079
			C6339.668,1905.076,6311.682,1670.273,6260.557,1524.208z" style="stroke:black;fill:#ff7aff"/><path id="180640981" parent_id="180640943" order="6" structure_id="460" d="M5187.4,3958.709
			c63.018,97.602,73.373,152.502,185.297,201.045c49.317,21.387,112.36,74.977,162.617,71.212
			c0.291-20.604-7.809-38.456-20.651-55.042c-14.737-19.025-57.642-33.544-78.417-43.953
			c-47.676-23.866-116.573-38.697-151.354-82.419c-45.826-57.595-89-119.417-124.189-184.147
			c-15.034-27.673-14.068-144.676-66.166-155.946c-64.809-14.011-28.207,75.125-19.305,95.896
			C5100.252,3863.705,5153.341,3905.97,5187.4,3958.709z" style="stroke:black;fill:#ff7aff"/><path id="180640961" parent_id="180640943" order="7" structure_id="771" d="M6094.193,4074.904
			c-58.906-79.182-142.104-105.514-222.938-159.251c-89.206-59.318-155.812-148.036-225.813-227.462
			c-20.022-22.715-120.373-97.209-70.521-131.978l10.098-23.788c-69.113-47.674-132.022-92.144-224.742-99.671
			c-119.703-9.705-262.604,122.716-305.471,150.468c5.445,33.705,4.887,68.741-23.566,104.826
			c-20.869,26.453-54.938,19.978-85.485,24.59c-59.248,8.953-116.715,29.438-174.517,46.088
			c-111.386,32.086-227.528,46.252-338.021,81.854c-48.216,15.544-76.183,35.359-94.86,82.86
			c-10.883,27.673-23.951,76.051-56.766,88.482l-46.074,638.755c-2.177,33.195-2.729,62.322-9.682,168.845
			c-0.813,12.456,199.453,36.235,331.078,64.704c26.264,5.68,108.885-5.387,183.772-22.718
			c88.048-20.378,131.019-17.567,168.065-16.792c73.727,21.492,172.045,25.816,239.174-8.325
			c41.905-21.302,90.896-57.885,114.697-104.669c16.333-32.102,16.119-68.376,18.198-99.902
			c9.899-150.467-75.146-366.138,141.474-382.802c127.916-9.842,290.662-11.967,427.404-24.838
			c136.736-12.867,243.264-55.212,322.223-12.272C6181.826,4168.073,6117.604,4106.369,6094.193,4074.904z M5372.697,4159.754
			c-111.924-48.543-122.279-103.444-185.297-201.045c-34.061-52.739-87.148-95.004-112.168-153.354
			c-8.902-20.773-45.504-109.908,19.305-95.897c52.098,11.271,51.132,128.274,66.166,155.947
			c35.189,64.729,78.363,126.553,124.189,184.146c34.779,43.722,103.678,58.554,151.354,82.419
			c20.775,10.41,63.68,24.928,78.417,43.953c12.845,16.586,20.942,34.438,20.651,55.043
			C5485.059,4234.73,5422.016,4181.141,5372.697,4159.754z" style="stroke:black;fill:#ff9b88"/><path id="180640962" parent_id="180640943" order="8" structure_id="771" d="M6335.023,5168.3c0.215-40.028,2.519-79.737,5.223-119.632
			c1-14.771-2.174-28.986-1.215-43.461c1.337-20.309,12.805-39.316,11.167-60.245c-76.849-9.356-153.729,33.101-195.056,96.03
			c-50.451,76.834-51.146,174.301-75.149,260.367c-32.821,117.688-98.478,223.856-126.703,344.793
			c-23.883,102.383-69.892,265.334-38.119,367.403c20.39,65.503,71.118,144.979,130.22,181
			c43.736,26.659,130.295,26.028,175.775,2.842l1.672,1.224c91.813-114.147,157.885-247.662,170.624-391.75
			c14.354-162.297-32.026-321.189-53.104-480.703C6333.492,5274.21,6334.762,5220.564,6335.023,5168.3z" style="stroke:black;fill:#ff9b88"/><path id="180640964" parent_id="180640943" order="9" structure_id="7" d="M6221.166,6197.398
			c-45.48,23.188-132.039,23.816-175.775-2.842c-59.102-36.021-109.83-115.498-130.22-181
			c-31.771-102.069,14.235-265.021,38.119-367.403c28.226-120.937,93.881-227.104,126.703-344.794
			c24.005-86.066,24.698-183.533,75.149-260.367c41.324-62.93,118.207-105.389,195.056-96.029
			c1.638,20.929-9.83,39.937-11.167,60.244c-0.959,14.476,2.215,28.689,1.215,43.461c-2.704,39.896-5.008,79.604-5.223,119.633
			c-0.264,52.266-1.531,105.91,5.334,157.869c21.076,159.513,67.457,318.404,53.104,480.703
			c-12.738,144.088-78.813,277.602-170.624,391.748L6221.166,6197.398z" style="stroke:black;fill:#ffae6f"/><path id="180640971" parent_id="180640943" order="10" structure_id="860" d="M5189.232,3740.298c22.15-9.599,40.696-23.278,64.672-25.05
			c0.31-0.479,0.625-0.955,0.953-1.43c16.683-24.106,41.336-41.33,68.787-45.512c-10.742-26.293-21.088-62.092-8.006-81.067
			c4.985-7.23,10.187-13.107,15.543-17.827c3.371-5.691,19.574-20.792,23.746-26.428c8.642-11.674,17.441-22.996,21.795-36.703
			c7.328-23.076,4.891-47.689,2.516-71.844c-5.945-0.579-12.25-1.137-18.964-1.682c-72.013-5.839-201.772,69.733-201.772,69.733
			c28.761,56.86-3.938,105.666-19.237,160.788c-7.931,28.583-12.313,57.408-11.974,86.015
			C5141.447,3756.082,5175.889,3746.08,5189.232,3740.298z" style="stroke:black;fill:#ffae6f"/><path id="180640972" parent_id="180640943" order="11" structure_id="868" d="M5376.723,3506.28
			c-4.353,13.707-13.152,25.03-21.793,36.702c-4.174,5.637-20.377,20.737-23.748,26.429c48.918-43.107,111.099,11.827,145.851,44.1
			c70.04,65.091,167.513,129.91,250.883,176.247l8.579,3.569c-30.688-34.033-59.898-69.789-91.052-105.136
			c-20.022-22.715-120.374-97.209-70.522-131.978c10.78-7.52,24.752-6.601,39.779-1.055l-59.398-45.897
			c-79.049-52.344-86.168-66.073-176.062-74.825C5381.613,3458.589,5384.051,3483.204,5376.723,3506.28z" style="stroke:black;fill:#ffae6f"/><path id="180640974" parent_id="180640943" order="12" structure_id="875" d="M5987.221,3981.814
			c-39.727-24.863-82.146-46.612-122.389-73.371c-29.602-19.681-55.994-41.815-80.623-65.498l3.264,3.396
			c15.211,28.971,7.205,71.127-27.549,78.512c-0.244-0.188-0.496-0.384-0.742-0.573c12.592,9.741,22.41,17.467,28.362,21.695
			c23.349,16.594,67.317,58.771,94.741,103.114C5927.6,4055.73,5977.133,4028.994,5987.221,3981.814z" style="stroke:black;fill:#ffae6f"/><path id="180640973" parent_id="180640943" order="13" structure_id="891" d="M5477.031,3613.511
			c-34.752-32.272-96.933-87.207-145.851-44.1c-0.433,0.729-0.665,1.313-0.622,1.694c-0.043-0.381,0.189-0.963,0.622-1.694
			c-5.356,4.72-10.558,10.597-15.542,17.827c-13.082,18.976-2.736,54.774,8.005,81.067c1.121-0.171,2.248-0.317,3.379-0.444
			c0.075-0.009,0.149-0.017,0.226-0.024c1.076-0.118,2.154-0.215,3.237-0.292c0.083-0.006,0.166-0.012,0.249-0.018
			c1.126-0.077,2.255-0.134,3.389-0.166c0.017,0,0.033-0.002,0.049-0.002c4.679-0.132,9.416,0.123,14.188,0.789
			c0.121,0.018,0.242,0.036,0.362,0.055c1.039,0.148,2.078,0.318,3.119,0.507c0.188,0.034,0.375,0.069,0.563,0.104
			c0.996,0.187,1.992,0.393,2.991,0.616c0.19,0.042,0.382,0.084,0.573,0.128c1.041,0.241,2.082,0.502,3.124,0.783
			c0.132,0.035,0.263,0.066,0.394,0.104c3.57,0.98,7.149,2.198,10.729,3.668c0.164,0.066,0.327,0.141,0.491,0.209
			c0.991,0.412,1.98,0.844,2.973,1.295c0.278,0.127,0.559,0.262,0.838,0.392c0.883,0.413,1.766,0.84,2.646,1.284
			c0.318,0.16,0.637,0.322,0.954,0.486c0.858,0.443,1.716,0.903,2.573,1.377c0.316,0.175,0.633,0.347,0.949,0.525
			c0.896,0.508,1.795,1.037,2.691,1.578c0.262,0.158,0.522,0.309,0.783,0.47c1.121,0.688,2.239,1.402,3.356,2.146
			c0.028,0.02,0.06,0.037,0.089,0.058c1.188,0.791,2.372,1.612,3.557,2.463c0.125,0.091,0.252,0.188,0.377,0.281
			c1.008,0.729,2.012,1.48,3.015,2.256c0.329,0.254,0.658,0.521,0.985,0.78c0.803,0.632,1.604,1.273,2.401,1.936
			c0.39,0.322,0.776,0.653,1.166,0.982c0.743,0.629,1.485,1.271,2.226,1.926c0.405,0.357,0.812,0.72,1.215,1.086
			c0.734,0.665,1.467,1.346,2.199,2.037c0.394,0.372,0.787,0.742,1.182,1.121c0.773,0.748,1.547,1.518,2.316,2.295
			c0.34,0.342,0.682,0.676,1.021,1.023c1,1.026,1.996,2.08,2.989,3.156c0.104,0.113,0.209,0.221,0.313,0.334
			c1.103,1.201,2.198,2.438,3.291,3.701c0.301,0.348,0.599,0.711,0.899,1.063c0.78,0.92,1.562,1.846,2.338,2.797
			c0.396,0.483,0.789,0.982,1.184,1.476c0.682,0.853,1.359,1.709,2.037,2.586c0.422,0.546,0.842,1.101,1.262,1.657
			c0.65,0.861,1.299,1.734,1.946,2.621c0.422,0.578,0.845,1.158,1.265,1.748c0.651,0.913,1.301,1.843,1.949,2.781
			c0.401,0.582,0.805,1.159,1.205,1.752c0.699,1.035,1.396,2.097,2.092,3.162c0.338,0.519,0.676,1.023,1.013,1.548
			c1.026,1.602,2.049,3.229,3.063,4.898c26.373,43.398,51.375,68.802,75.026,65.33c1.276-0.187,2.571-0.336,3.875-0.464
			c0.416-0.041,0.837-0.068,1.255-0.104c0.902-0.074,1.811-0.14,2.725-0.188c0.485-0.025,0.975-0.043,1.463-0.061
			c0.881-0.032,1.77-0.051,2.66-0.058c0.483-0.003,0.967-0.009,1.453-0.005c0.99,0.008,1.986,0.033,2.988,0.069
			c0.381,0.013,0.759,0.019,1.143,0.036c1.386,0.063,2.78,0.152,4.188,0.27c0.243,0.021,0.49,0.051,0.734,0.072
			c1.17,0.104,2.347,0.225,3.529,0.365c0.479,0.057,0.959,0.123,1.438,0.185c0.974,0.126,1.949,0.261,2.932,0.41
			c0.521,0.079,1.042,0.162,1.564,0.247c0.984,0.161,1.975,0.334,2.969,0.518c0.488,0.091,0.977,0.178,1.467,0.272
			c1.191,0.231,2.391,0.479,3.592,0.742c0.285,0.063,0.568,0.116,0.854,0.181c1.5,0.335,3.008,0.693,4.523,1.074
			c0.355,0.089,0.713,0.187,1.068,0.277c1.162,0.3,2.326,0.607,3.498,0.933c0.508,0.141,1.018,0.288,1.526,0.434
			c1.043,0.298,2.089,0.604,3.138,0.921c0.529,0.16,1.059,0.321,1.588,0.486c1.098,0.341,2.199,0.694,3.303,1.055
			c0.453,0.149,0.906,0.293,1.362,0.445c1.538,0.514,3.081,1.043,4.631,1.595c0.011,0.003,0.021,0.007,0.03,0.011
			c1.59,0.566,3.186,1.155,4.785,1.761c0.414,0.157,0.832,0.321,1.248,0.479c1.172,0.449,2.348,0.906,3.524,1.375
			c0.519,0.206,1.035,0.416,1.554,0.625c1.111,0.45,2.226,0.908,3.34,1.374c0.506,0.211,1.013,0.423,1.519,0.638
			c1.229,0.521,2.46,1.053,3.69,1.593c0.373,0.163,0.744,0.321,1.117,0.487c1.635,0.723,3.271,1.459,4.91,2.214
			c0.043,0.02,0.086,0.04,0.129,0.06c1.565,0.723,3.136,1.46,4.705,2.209c0.438,0.209,0.877,0.422,1.314,0.635
			c1.193,0.573,2.387,1.153,3.579,1.741c0.503,0.249,1.007,0.498,1.51,0.749c1.171,0.583,2.341,1.174,3.513,1.77
			c0.469,0.238,0.937,0.475,1.402,0.715c1.385,0.711,2.768,1.431,4.15,2.158c0.231,0.122,0.463,0.24,0.692,0.361
			c1.662,0.879,3.325,1.769,4.985,2.67c0.211,0.113,0.42,0.229,0.631,0.344c1.41,0.768,2.82,1.543,4.23,2.326
			c0.443,0.248,0.889,0.498,1.334,0.746c1.197,0.67,2.395,1.346,3.589,2.025c0.476,0.271,0.95,0.541,1.425,0.813
			c1.225,0.701,2.445,1.408,3.668,2.119c0.398,0.232,0.799,0.463,1.197,0.697c3.264,1.91,6.517,3.852,9.752,5.822
			c0.293,0.178,0.584,0.357,0.877,0.537c1.306,0.797,2.607,1.598,3.908,2.402c0.443,0.275,0.887,0.553,1.33,0.828
			c1.178,0.733,2.352,1.469,3.521,2.206c0.443,0.279,0.887,0.559,1.328,0.838c1.264,0.8,2.523,1.604,3.781,2.411
			c0.312,0.199,0.623,0.396,0.934,0.597c3.178,2.044,6.331,4.104,9.455,6.173c0.344,0.229,0.686,0.457,1.027,0.685
			c1.201,0.797,2.396,1.595,3.586,2.394c0.434,0.291,0.864,0.582,1.297,0.873c1.137,0.767,2.269,1.531,3.396,2.299
			c0.401,0.272,0.804,0.546,1.205,0.818c1.285,0.877,2.563,1.754,3.837,2.633c0.212,0.146,0.427,0.292,0.639,0.438
			c1.531,1.057,3.056,2.114,4.567,3.17c0.103,0.071,0.202,0.143,0.304,0.213c1.358,0.949,2.709,1.897,4.051,2.844
			c0.381,0.27,0.758,0.536,1.138,0.806c1.077,0.762,2.147,1.521,3.214,2.28c0.418,0.299,0.836,0.597,1.252,0.895
			c1.059,0.755,2.107,1.509,3.152,2.26c0.371,0.269,0.744,0.535,1.113,0.803c1.301,0.938,2.593,1.873,3.872,2.804
			c0.084,0.062,0.169,0.122,0.253,0.184c1.398,1.019,2.786,2.031,4.16,3.039c0.287,0.21,0.568,0.418,0.854,0.628
			c1.058,0.776,2.106,1.549,3.146,2.318c0.411,0.303,0.816,0.604,1.225,0.906c0.914,0.677,1.819,1.35,2.721,2.02
			c0.43,0.32,0.859,0.641,1.286,0.958c0.913,0.683,1.817,1.358,2.718,2.033c0.367,0.274,0.736,0.551,1.102,0.825
			c2.479,1.861,4.902,3.691,7.265,5.484c0.426,0.323,0.845,0.643,1.267,0.963c0.756,0.576,1.51,1.149,2.254,1.718
			c0.469,0.356,0.932,0.711,1.395,1.064c0.688,0.525,1.368,1.046,2.044,1.564c0.462,0.354,0.923,0.707,1.38,1.058
			c0.667,0.514,1.324,1.019,1.979,1.521c0.443,0.341,0.892,0.684,1.328,1.021c0.69,0.533,1.367,1.056,2.045,1.577
			c0.98,0.758,1.944,1.502,2.895,2.237c0.246,0.188,0.499,0.385,0.742,0.573c34.755-7.386,42.76-49.541,27.55-78.513l-3.265-3.396
			c-16.563-15.928-32.328-32.553-47.715-49.618l-8.58-3.569C5644.543,3743.421,5547.07,3678.602,5477.031,3613.511z" style="stroke:black;fill:#ffae6f"/><path id="180640975" parent_id="180640943" order="14" structure_id="899" d="M6094.193,4074.904
			c-29.58-39.762-66.905-68.01-106.975-93.09c-10.087,47.18-59.62,73.916-104.936,67.273
			c31.041,50.193,40.883,103.166-24.379,124.954c-19.23,6.419-39.254,3.774-59.203-4.103c3.938,14.123,2.129,33.262-6.713,44.482
			c-4.813,6.109-15.582,10.2-22.27,16.473c20.219-1.219,40.328-2.549,60.152-3.787c99.801-6.229,255.715-65.806,345.842-9.58
			c1.965,1.324,3.83,2.498,5.604,3.537C6157.514,4169.904,6127.684,4119.923,6094.193,4074.904z" style="stroke:black;fill:#ffae6f"/><path id="180640970" parent_id="180640943" order="15" structure_id="915" d="M5791.99,4214.424c8.842-11.223,10.65-30.359,6.712-44.482
			c-50.579-19.974-100.688-73.613-136.229-98.696c-87.58-61.82-189.494-102.11-274.875-166.925
			c-39.76-30.18-177.127-122.07-133.692-189.072c-23.976,1.771-42.521,15.451-64.672,25.05c-13.345,5.782-47.785,15.784-61.94,8.994
			c0.369,30.884,6.248,61.515,19.186,91.309c31.486,72.537,88.607,150.179,142.32,208.078c55.014,59.312,150.179,79.595,218.539,120
			c44.069,26.048,67.416,64.897,121.547,66.175c46.094,1.09,93.765-1.122,140.838-3.957
			C5776.408,4224.624,5787.176,4220.534,5791.99,4214.424z" style="stroke:black;fill:#ffae6f"/><path id="180640969" parent_id="180640943" order="16" structure_id="280" d="M4958.48,4256.203
			c155.313,64.27,101.203-174.662,93.402-245.909c-19.913-181.905-107.271-90.843-134.271,9.866
			C4900.71,4083.229,4882.659,4224.82,4958.48,4256.203z" style="stroke:black;fill:#ffba86"/><path id="180640966" parent_id="180640943" order="17" structure_id="880" d="M4521.02,4402.632
			c25.004-7.058,79.664-234.593,86.274-265.235c24.437-113.257-54.327-171.591-126.41-172.877
			c-78.313-1.393-115.153,43.336-106.929,134.703C4386.027,4233.363,4463.393,4418.88,4521.02,4402.632z" style="stroke:black;fill:#ffba86"/><path id="180640963" parent_id="180640943" order="18" structure_id="898" d="M5187.4,3958.709
			c-34.061-52.739-87.148-95.004-112.168-153.354c-8.902-20.773-45.504-109.908,19.305-95.897c2.206,0.478,4.311,1.159,6.33,2
			c19.566-62.345,71.441-123.798,30.764-185.716c-38.763,27.283-47.158,35.572-79.27,62.891c1.63,39.563,8.996,59.223-18.729,94.624
			c-20.34,25.951-75.184,30.554-104.937,35.099c-57.722,8.799-113.694,28.914-170.006,45.272
			c-108.5,31.511-221.62,45.459-329.257,80.421c-46.96,15.275-79.025,49.588-97.229,96.172
			c-10.617,27.138-23.113,55.441-52.004,71.614l-6.668,146.774c104.209,56.537,111.099,220.023,132.875,319.363
			c29.53,134.709,178.312,113.719,287.263,125.057c133.802,13.934,240.642,97.754,193.135,236.084c0,0-1.521,0.145-4.242,0.414
			c2.826,0.457,5.591,0.996,8.267,1.65c98.213,24.018,185.352,38.702,280.054-16.242c42.892-24.887,70.894-55.117,88.495-89.078
			c57.102-110.175,4.762-259.59-3.535-393.117c-7.377,17.361-17.466,32.439-30.884,43.793
			c-75.407,63.809-107.793-25.783-119.423-93.223c-17.727-102.867-54.566-274.632-30.342-376.489
			c18.725-78.755,39.213-36.993,80.658,24.466c39.408,58.41,79.814,120.188,100.428,187.146
			c6.599,21.436,12.108,48.941,14.785,78.317c12.576-40.28,17.402-72.582,14.311-102.375
			C5246.912,4067.135,5228.177,4021.862,5187.4,3958.709z M4607.294,4137.396c-6.61,30.643-61.271,258.179-86.274,265.234
			c-57.627,16.248-134.992-169.268-147.063-303.41c-8.226-91.367,28.612-136.095,106.929-134.702
			C4552.967,3965.806,4631.73,4024.14,4607.294,4137.396z M4736.699,4094.8c-86.438-10.18-95.001-171.288-2.218-185.814
			C4853.438,3890.36,4842.45,4107.247,4736.699,4094.8z M4958.48,4256.203c-75.821-31.383-57.771-172.975-40.869-236.043
			c27-100.709,114.358-191.771,134.271-9.866C5059.686,4081.541,5113.793,4320.473,4958.48,4256.203z" style="stroke:black;fill:#ffba86"/><path id="180640967" parent_id="180640943" order="19" structure_id="147" d="M5105.535,4293.313
			c11.63,67.438,44.016,157.03,119.423,93.223c62.894-53.219,52.879-188.061,31.321-258.1
			c-20.612-66.961-61.021-128.736-100.429-187.146c-41.444-61.459-61.935-103.221-80.658-24.466
			C5050.969,4018.681,5087.809,4190.443,5105.535,4293.313z" style="stroke:black;fill:#ffc395"/><path id="180640968" parent_id="180640943" order="20" structure_id="162" d="M4734.48,3908.984
			c118.955-18.625,107.97,198.263,2.219,185.814C4650.262,4084.62,4641.698,3923.512,4734.48,3908.984z" style="stroke:black;fill:#ffc395"/><path id="180640965" parent_id="180640943" order="21" structure_id="604" d="M4270.676,4157.07
			c106.96,55.07,113.756,220.658,135.73,320.902c29.53,134.709,178.312,113.719,287.263,125.057
			c133.802,13.934,240.642,97.754,193.135,236.084c0,0-108.008,10.197-150.281,22.123c-63.728,17.99-160.051,25.446-227.556,11.52
			c-88.989-18.359-113.604-37.471-164.334-110.221c-60.451-86.685-60.09-201.72-94.279-295.635L4270.676,4157.07z" style="stroke:black;fill:#ffc395"/><path id="180640946" parent_id="180640943" order="22" structure_id="354" d="M7072.6,5313.105
			c-43.592-91.701-98.305-171.943-123.724-271.349c-23.571-92.183-54.278-185.744-100.024-269.466
			c-3.744-6.848-7.404-13.703-11.026-20.55c-28.733-54.329-57.405-102.399-96.42-149.517c-16.353-19.742-25.019-38.785-34.47-61.883
			c-10.9-26.66-24.574-44.41-55.58-43.836c-26.475,0.502-50.988,13.558-73.363,26.562c-19.277,11.209-50.668,22.261-72.563,13.444
			c-25.644-10.311-59.273-86.172-59.273-86.172c-51.911-61.355-150.628-48.582-207.063-105.578
			c-64.975-65.644-98.86-145.508-209.515-126.881c-224.687,37.822-377.858,49.601-568.517,48.604
			c-143.644-0.755-188.871,43.57-161.266,195.396c12.866,70.744,27.805,171.279-5.43,252.463
			c-24.516,59.892-66.658,114.764-150.023,144.733c-27.27,9.802-47.658,8.905-87.538,14.073c-8.888,1.152-22.795,2.26-37.465,1.577
			c-43.478-2.019-112.909-26.224-178.179-17.76c-111.553,14.47-222.887,49.176-265.938,45.122
			c-96.806-9.105-146.7-31.918-204.626-41.158c-89.002-14.191-147.879-15.227-147.879-15.227L4092.79,6858.384
			c49.442,105.332,137.328,149.745,245.683,168.168c193,32.823,458.982-23.458,595.108-36.104
			c147.321-13.682,292.69-61.145,423.126-86.938c214.251-42.373,400.579-123.813,596.96-223.515
			c137.175-69.644,306.946-161.213,428.592-265.779c111.692-96.005,213.183-186.137,285.968-95.907
			c49.066,60.817-74.285,201.208-61.469,268.944c13.088,69.17,68.492,60.793,115.321,55.465
			c66.36-7.562,145.739-59.412,171.083-126.342c108.552-286.699,169.531-547.924,220.557-816.969l21.684-209.033
			C7113.922,5432.674,7099.43,5369.541,7072.6,5313.105z M6393.462,5806.872c-12.739,144.088-78.812,277.603-170.624,391.749
			l-1.672-1.223c-45.48,23.188-132.039,23.816-175.775-2.842c-59.102-36.021-109.83-115.498-130.22-181
			c-31.771-102.069,14.235-265.021,38.119-367.403c28.226-120.937,93.881-227.104,126.703-344.794
			c24.005-86.066,24.698-183.533,75.149-260.367c41.324-62.93,118.207-105.389,195.056-96.029
			c1.638,20.929-9.83,39.937-11.167,60.244c-0.959,14.476,2.215,28.689,1.215,43.461c-2.704,39.896-5.008,79.604-5.223,119.633
			c-0.264,52.266-1.531,105.91,5.334,157.869C6361.436,5485.682,6407.814,5644.574,6393.462,5806.872z" style="stroke:black;fill:#ff9bcd"/><path id="180640948" parent_id="180640943" order="23" structure_id="560" d="M6538.4,4923.434c-8.49-27.53-15.762-53.013-20.271-74.515
			c-43.327-206.601,236.966,19.954,290.063,93.998c99.977,139.414,151.744,305.271,248.176,446.312
			c55.203,80.738,69.209,130.388,68.867,199.129l10.164-97.982c-21.479-57.7-35.972-120.833-62.801-177.27
			c-43.594-91.699-98.306-171.942-123.725-271.348c-23.57-92.184-54.279-185.744-100.023-269.466
			c-3.744-6.849-7.405-13.703-11.027-20.55c-28.732-54.329-57.404-102.4-96.42-149.518c-16.354-19.742-25.02-38.783-34.469-61.883
			c-10.901-26.658-24.576-44.41-55.58-43.834c-26.476,0.5-50.989,13.557-73.364,26.561c-15.508,9.018-38.854,17.934-58.79,16.484
			l0.001-0.01c-73.955,22.223-153.179,50.721-160.679,115.193c-3.928,33.855,60.426,109.023,61.002,109.564
			c8.5,7.947,71.442,59.455,86.176,86.195c10.873,19.736,21.977,44.93,32.701,72.934L6538.4,4923.434z" style="stroke:black;fill:#ffa5d2"/><path id="180640947" parent_id="180640943" order="24" structure_id="101" d="M6597.991,5124.262
			c24.468,111.596,29.104,226.646,54.612,337.992c24.899,108.637,54.953,215.99,80.828,324.47
			c11.451,48.03,23.291,96.185,40.586,142.521c12.306,32.979,35.119,105.854,69.979,120.896
			c72.707,31.318,147.537-130.387,222.271-136.434c0,0,39.396-150.963,52.588-220.487c11.108-136.247,16.766-188.079-62.486-303.991
			c-96.432-141.041-148.199-306.896-248.176-446.313c-53.098-74.043-333.391-300.599-290.063-93.998
			C6533.113,4920.37,6578.59,5035.764,6597.991,5124.262z" style="stroke:black;fill:#ffa5d2"/><path id="180640952" parent_id="180640943" order="25" structure_id="653" d="M4603.698,4984.561
			c201.31,28.168,134.536,224.748,2.464,148.256C4547.757,5098.98,4486.672,4968.191,4603.698,4984.561z" style="stroke:black;fill:#ffb3d9"/><path id="180640951" parent_id="180640943" order="26" structure_id="661" d="M5543.227,6630.232c-3.026-2.154-5.965-4.504-8.812-7.067
			c-42.417-38.175-40.242-97.426-49.961-148.763c-7.252-38.25-2.956-124.231-63.556-114.778
			c-45.23,7.054-48.629,58.492-49.252,94.616c-1.682,96.911-7.267,352.617-170.972,314.292
			c-116.836-27.353-179.864-231.817-212.546-328.062c-13.632-40.133-23.514-97.607,7.189-132.707
			c28.949-33.1,77.215-26.223,114.275-42.403c56.965-24.872,81.604-85.585,148.576-97.946c51.678-9.539,105.133,4.93,157.453-0.336
			c82.834-8.352,115.744-92.58,195.753-92.804c65.551-0.179,135.536,62.478,175.019,109.69
			c43.862,52.455,118.192,230.504,91.737,300.141c-17.522,46.111-95.396,111.247-138.3,135.164
			C5682.504,6651.227,5601.277,6671.488,5543.227,6630.232z" style="stroke:black;fill:#ffb3d9"/><path id="180640953" parent_id="180640943" order="27" structure_id="576" d="M5127.677,5898.102
			c8.403,45.153,130.274,60.426,109.972-5.301C5228.318,5862.596,5115.684,5833.622,5127.677,5898.102z" style="stroke:black;fill:#ffb3d9"/><path id="180640955" parent_id="180640943" order="28" structure_id="1048" d="M4247.861,6032.273c-0.953,15.597-1.785,28.78-2.529,40.316
			c173.534,87.045,406.402,226.954,487.168,287.909c106,80,95.874,81.22,168,70c69.302-10.78,57.965-58.321,80.132-96.97h0.003
			c3.217-9.379,7.984-18.106,14.686-25.768c28.949-33.1,77.215-26.223,114.275-42.402c37.824-16.516,61.4-48.828,92.577-72.301
			l-0.003-0.002l-9.33-15.655c-21.915-34.929-73.715-133.233-91.813-169.917c-92.588-187.643-158.73-325.094-210.885-527.954
			c-18.428-71.679-118.037-322.86-157.562-356.698l-8.839-6.835l-0.007-0.006c-16.87,32.421-61.289,49.422-117.574,16.823
			c-51.392-29.771-104.849-134.6-37.229-148.203l-0.002-0.001c-49.674-2.89-56.813,38.728-102.431,101.89
			c-50.621,70.09-127.774,81.426-262.83,54.303l0,0l-19.097,295.818c2.145,1.737,3.391,2.772,3.381,2.754
			C4276.105,5622.941,4260.169,5830.439,4247.861,6032.273z" style="stroke:black;fill:#ffb3d9"/><path id="180640956" parent_id="180640943" order="29" structure_id="136" d="M5963.866,6112.355
			c-21.716-31.84-38.787-66.97-48.694-98.799c-8.5-27.305-11.434-58.965-10.713-92.656l0.004,0.003
			c-20.539-39.676-44.371-78.118-64.051-118.638c-32.928-67.789-153.013-52.295-216.93-98.778
			c-31.959-23.242-41.764-33.741-58.936-51.985c-24-25.5-65.633-107.512-94.496-127.494c-33.016-22.855-34.498,10.5-67.496-3
			c-24.899-10.187-46.879-23.117-67.496-43.498c-49.17-48.604-80.996-88.494-116.994-142.492
			c-28.629-42.944-82.234-120.019-146.992-160.492c-83.996-52.496-236.164-116.502-263.008-148.938
			c-41.563-50.223,0.49-109.736,51.396-167.465c-0.643,0.043,0.605-1.063,2.419-2.786c-6.929,0.231-13.847,0.742-20.717,1.633
			c-15.067,1.954-30.132,4.28-45.024,6.828c-0.939,0.81-1.836,1.334-2.681,1.456c-29.442,14.279-56.124,33.318-76.425,57.68
			c-34.322,41.187-15.427,65.647-3.938,113.799v0.002c20.748,26.141,22.483,56.498,10.641,79.258l0.007,0.006l8.839,6.836
			c39.523,33.838,139.134,285.021,157.563,356.697c52.152,202.859,118.295,340.313,210.883,527.954
			c18.099,36.683,69.897,134.987,91.813,169.917l9.33,15.654l0.003,0.004c15.775-11.879,33.496-21.494,55.999-25.647
			c51.679-9.539,105.133,4.931,157.453-0.335c82.834-8.352,115.744-92.581,195.753-92.805c23.119-0.063,46.789,7.697,69.479,19.832
			h0.008c42.012,15.886,74.101,70.649,107.252,80.037c53.051,15.023,29.717,20.095,95.568-18.644
			c34.244-20.146,51.096-17.426,80.188-43.146L5963.866,6112.355z M5127.677,5898.102c-11.993-64.479,100.644-35.506,109.972-5.301
			C5257.951,5958.525,5136.08,5943.255,5127.677,5898.102z" style="stroke:black;fill:#ffb3d9"/><path id="180640957" parent_id="180640943" order="30" structure_id="106" d="M5639.536,5265.639
			c86.672-6.445,109.44,67.23,119.494,136.869c4.544,31.521,19.394,78.438,7.256,108.859
			c-11.366,28.466-49.464,39.648-51.671,74.409c-1.626,25.708,24.093,56.337-10.198,70.231
			c-25.485,10.342-60.151-23.703-71.366-42.193c-30.021-49.546-11.439-119.684-31.45-174.161
			C5578.074,5375.609,5516.128,5274.809,5639.536,5265.639z" style="stroke:black;fill:#ffb3d9"/><path id="180640954" parent_id="180640943" order="31" structure_id="307" d="M4678.383,6776.734
			c41.432,11.723,76.354,22.832,125.784,37.365c50.252,15.709,113.671,44.045,160.418,64.883
			c31.556,10.777,65.666,35.496,94.99,22.985c121.478-51.821-89.72-336.151-168.198-405.505
			c-96.359-85.152-200.938-159.891-310.881-226.523c-101.841-61.725-229.611-149.338-329.4-201.66
			c-3.655,54.521-3.453,69.582-7.596,119.188c-2.415,28.996-2.813,153.176-5.73,182.12c-2.654,26.315-11.752,40.215-19.16,65.88
			c-20.806,72.083-11.633,58.45-13.133,79.043c-2.133,29.294,1.614,19.078,0.357,52.988c-0.689,18.627,0.202,32.317-2.49,51.668
			c-5.327,38.281-17.92,38.666-15.843,68c22.394,40.361,46.541,12,79,12c63.667,0,104.633-1.853,185.183,18.541
			C4557.172,6744.417,4580.833,6749.135,4678.383,6776.734z" style="stroke:black;fill:#ffb3d9"/><path id="180640958" parent_id="180640943" order="32" structure_id="852" d="M5115.146,4867.943
			c-54.401,31.039-70.52,44.705-40.737,69.168c35.196,28.912,87.994,79.194,184.788,192.332
			c96.794,113.137,148.336,191.076,198.618,333.125c86.737,231.301,222.502,260.215,222.502,260.215s-17.763-48.845-39.724-98.547
			h-0.002c-3.078-3.727-5.646-7.297-7.541-10.422c-30.021-49.547-11.438-119.684-31.449-174.162
			c-23.526-64.043-85.474-164.845,37.936-174.016c86.672-6.445,109.441,67.23,119.494,136.87
			c4.544,31.521,19.395,78.438,7.256,108.858c-4.034,10.104-11.436,18.028-19.404,25.604l-0.004-0.005
			c-11.945,33.482,6.476,82.623,23.947,131.764c18.818,52.928,82.754,55.233,122.826,36.778l0.006,0.006
			c29.543-25.606,47.817-60.62,60.082-97.917c0,0,2.004-4.419,5.354-11.309c5.188-10.67,13.606-27.267,22.795-42.535l-0.002-0.002
			c31.75-84.903,73.875-165.508,98.106-252.393c24.004-86.066,24.697-183.533,75.148-260.367
			c32.805-49.954,88.014-87.008,147.827-95.484l0.003,0.008c16.475-9.472,15.576-22.441,14.68-69.996
			c-1.258-66.623,3.771-77.938-15.086-163.418c-16.267-73.734-72.75-67.031-151.701-33.141v0.001
			c-49.709,24.771-98.334,49.832-148.771,65.153l-0.001-0.008c-86.893,38.541-147.176,72.432-150.814,118.838
			c-5.028,64.109-37.713,113.137-119.422,143.306c-192.332,74.167-325.582-47.769-412.319-140.792
			c-41.294-44.286-63.783-60.366-84.694-60.176l0.004,0.005c-25.26,25.106-57.42,45.836-97.748,57.174
			c-7.586,2.132-14.894,3.949-21.951,5.483H5115.146z" style="stroke:black;fill:#ffb3d9"/><path id="180640959" parent_id="180640943" order="33" structure_id="202" d="M5503.984,4267.119
			c-93.229-11.907-208.293,2.798-211.148,110.734c-2.912,110.162,40.313,223.399,4.143,333.886
			c-8.699,26.563-22.9,45.378-40.723,64.017c64.042,74.131,120.784,150.727,213.012,188.955
			c190.996,79.162,278.16,30.395,349.334-43.84c94.08-98.11-95.633-192.756-160.348-245.719
			c-77.105-63.1-190.277-152.166-236.911-238.896c-40.952-76.166-18.127-150.965,74.946-169.895" style="stroke:black;fill:#ffb3d9"/><path id="180640960" parent_id="180640943" order="34" structure_id="217" d="M6320.982,4611.993
			c-184.521,40.642-322.229,205.306-519.416,125.45c-91.192-36.932-140.168-82.042-208.961-145.402
			c-57.326-52.805-157.015-116.227-164.308-200.804c-11.841-137.444,97.282-120.006,187.192-125.532
			c109.054-6.705,223.201-22.051,332.088-36.884c168.597-22.958,259.765,15.179,317.196,180.345
			C6270.175,4424.706,6325.079,4611.088,6320.982,4611.993z" style="stroke:black;fill:#ffb3d9"/><path id="180640950" parent_id="180640943" order="35" structure_id="206" d="M4113.289,6492.984c1.282-17.414,52.884-11.168,65.079-20.746
			c72.778-57.149,53.199-155.901,57.19-236.986c5.021-102.049,6.199-102.955,12.304-202.979
			c12.308-201.834,28.244-409.332-59.907-592.897c0.646,1.196-55.729,800.761-64.282,937.621
			C4124.76,6359.363,4124.54,6321.486,4113.289,6492.984z" style="stroke:black;fill:#ffc6e2"/><path id="180640949" parent_id="180640943" order="36" structure_id="230" d="M4117.801,6487.736
			c186.836-20.461,15.255,319.107-24.496,373.463L4117.801,6487.736z" style="stroke:black;fill:#ffc6e2"/><path id="180640982" parent_id="180640943" order="37" structure_id="512" d="M6338.193,1866.658c0.313-58.023,4.97-139.146,47.248-185.691
			c18.207-9.629,39.44-32.064,67.666-35.777c90.808-11.959,205.229,86.489,281.299,129.324
			c324.054,182.451,559.235,479.407,722.144,808.881c49.222,99.547,72.554,209.834,83.765,319.83
			c10.383,101.908,63.221,127.322,117.324,204.687c50.225,71.823,68.271,166.305,72.771,252.238
			c5.103,97.647,14.22,174.39-34.349,261.78c-42.517,76.522-86.369,158.069-160.78,208.602
			c-61.649,41.859-135.896,59.925-193.594,109.205c-65.97,56.359-20.921,74.963,44.487,69.992
			c80.17-6.086,165.83,5.301,238.605,40.751c79.418,38.692,112.225,113.37,184.341,158.606
			c117.117,73.483,243.679,129.655,361.713,201.1c91.615,55.451,182.503,121.828,247.463,208.031
			c30.219,40.105,49.088,81.031,85.718,116.566c110.033,106.754,192.666,245.685,253.652,386.697
			c46.051,106.46,38.662,246.602,18.586,358.794c-6.252,34.901-8.555,69.595-22.322,102.194
			c-26.945,63.732-61.992,129.978-98.977,188.68c-5.381,8.544-48.242,76.57-93.193,67.016c18.6,51.068-13.63,94.42-36.719,136.22
			c-16.223,29.364-43.507,53.497-61.596,81.179c-37.425,57.263-78.918,112.037-123.015,164.332
			c-156.663,185.805-504.804,431.666-712.532,179.748c-71.288-86.455-109.443-194.013-130.268-302.781
			c-12.537-65.493,1.738-126.328,2.248-191.34c0.525-67.798-11.442-128.738,11.492-195.333
			c4.115-11.938,54.482-125.179,59.931-123.991c-56.426-9.805-81.337,56.361-137.455,53.93
			c-71.287-3.115-103.705-52.832-137.079-108.155c-17.954-29.757-67.331-111.843-106.077-117.581
			c-23.901-29.488-67.369-61.08-70.646-101.07c-2.752-33.713,8.277-62.619,0.402-96.879c-7.201-31.347-25.716-66.041-7.648-97.197
			c15.953-27.523,60.451-45.746,41.287-83.643c-32.806-64.869-83.398-113.83-131.867-165.955
			c-31.322-33.695-56.373-72.432-83.521-109.393c-27.618-37.57-53.408-56.475-89.539-85.436
			c-11.821-9.474-21.72-20.768-32.78-30.711c-11.332-10.176-23.184-18.26-33.183-30.095c-19.133-22.635-36.597-48.122-51.69-73.622
			c-15.299-25.857-44.463-40.993-74.672-42.884c-11.388-0.724-24.642,2.099-35.295,6.157
			c-33.349,12.689-78.779,47.875-116.11,32.852c-36.235-14.578-58.535-88.021-72.444-120.642
			c-22.949-53.836-39.502-101.358-53.199-158.377c-20.229-84.265-67.64-227.133-170.89-238.342
			c-31.78-3.447-48.522-6.248-66.644-33.513c-18.813-28.287-29.377-63.742-54.668-87.322c-23.985-22.363-54.096-44.461-81.53-63.176
			c-47.55-32.427-89.449-72.021-134.901-107.149c-41.924-32.412-90.912-53.114-132.244-85.946
			c-32.842-26.08-66.897-52.495-102.299-75.033c-92.1-58.662-161.25-124.91-276.334-134.258
			c-119.705-9.705-229.229,87.243-313.512,158.409c-42.537,35.913-86.838,54.139-138.829,73.324
			c-54.55,20.137-114.247,28.442-170.575,42.771c-104.814,26.676-220.62,65.367-330.043,60.104
			c-35.217-1.693-70.701-7.317-112.729-17.129l120.422-1814.648c68.545,15.594,93.771,29.59,142.317,68.168
			c37.815,30.051,78.28,57,118.474,83.834c109.807,73.336,220.633,182.762,311.396,279.86
			c63.088,67.483,124.634,127.128,196.978,185.124c125.771,100.816,280.957,192.459,436.946,235.885
			c83.446,23.217,191.146,69.126,274.705,25.422c116.64-61.016,180.452-212.035,243.013-321.272
			C6244.953,2307.334,6337.005,2081.965,6338.193,1866.658z" style="stroke:black;fill:#f0f080"/><path id="180640983" parent_id="180640943" order="38" structure_id="512" d="M4471.124,1122.451
			c21.339-89.374,62.931-113.69,132.144-169.179c52.871-42.385,92.627-61.6,140.078-99.193l68.641-28.225
			c-48.252-12.115-72.275-27.915-124.609-36.604c-62.945-10.451-126.763-23.068-189.021-36.943" style="stroke:black;fill:#f0f080"/><path id="180640999" parent_id="180640943" order="39" structure_id="10710" d="M5545.316,3339.702
			c-77.619-44.213-161.508-68.07-263.687-36.042c-74.247,23.267-132.588,77.828-204.758,105.058
			c-73.14,27.588-148.298,10.539-222.081,27.699c-82.342,19.155-154.592,59.696-234.7,82.53
			c-63.683,18.158-265.968,7.839-311.222,55.8c0.162-1.603-0.867-1.896-2.527-1.657l-11.755,177.143
			c42.026,9.813,77.511,15.437,112.728,17.129c109.424,5.264,225.229-33.428,330.043-60.104
			c56.328-14.326,116.025-22.634,170.576-42.771c51.99-19.187,96.291-37.412,138.828-73.324
			c84.283-71.166,193.808-168.113,313.512-158.409c65.064,5.285,115.448,28.76,163.598,58.768
			c6.396-15.705,17.742-49.987,19.897-99.596C5544.354,3378.513,5545.354,3360.867,5545.316,3339.702z" style="stroke:black;fill:#fffc91"/><path id="180641001" parent_id="180640943" order="40" structure_id="10710" d="M5105.999,2879.434
			c88.89,44.705,131.271,94.739,191.871,169.598c46.283,57.178,114.425,95.054,168.669,143.835
			c13.311,11.969,41.998,39.548,71.807,57.665c-2.965-18.59-7.088-38.317-12.797-59.028
			c-20.817-75.519-45.551-127.543-66.16-144.421c-41.867-25.988-222.271-260.048-362.08-346.926
			c-132.588-82.391-320.77-100.582-471.27-122.412c-87.93-12.76-151.877-44.61-243.943-34.498l-7.455,0.665l-23.136,348.639
			C4593.898,2871.012,4871.504,2761.512,5105.999,2879.434z" style="stroke:black;fill:#fffc91"/><path id="180641000" parent_id="180640943" order="41" structure_id="10708" d="M4308.871,3574.747
			c45.253-47.961,247.538-37.642,311.221-55.8c80.108-22.833,152.358-63.375,234.701-82.53
			c73.783-17.161,148.94-0.111,222.08-27.699c72.17-27.229,130.512-81.791,204.758-105.058
			c102.18-32.027,186.067-8.171,263.688,36.042c-0.042-25.121-1.559-55.222-6.973-89.173
			c-29.809-18.116-58.496-45.694-71.807-57.664c-54.244-48.781-122.387-86.657-168.669-143.836
			c-60.601-74.857-102.981-124.892-191.871-169.597c-234.495-117.922-512.101-8.421-754.494,13.115l-24.243,365.315
			c85.255-20.838,187.006-43.612,269.924-68.008c88.115-25.926,180.714-36.519,268.771-60.598
			c44.679-12.214,83.893-31.825,129.871-37.658c-150.865,107.495-337.098,120.043-506.799,182.943
			c-51.619,19.138-106.836,33.658-163.242,5.554l-19.443,292.992C4308.003,3572.852,4309.032,3573.145,4308.871,3574.747z" style="stroke:black;fill:#ece754"/><path id="180640995" parent_id="180640943" order="42" structure_id="10713" d="M6222.042,3913.964
			c3.028-0.019,5.966,0.015,8.825,0.068c-5.83-1.197-11.84-2.818-18.034-4.902c-70.581-23.76-105.978-105.146-149.278-159.653
			c-78.244-98.5-178.225-180.375-284.629-246.813c-80.004-49.953-153.463-117.308-233.607-162.96
			c0.035,21.165-0.965,38.811-1.548,52.227c-2.155,49.607-13.503,83.89-19.897,99.595c37.015,23.067,72.709,49.995,112.737,75.491
			c35.399,22.537,69.457,48.953,102.298,75.032c41.332,32.832,90.32,53.534,132.244,85.946
			c45.453,35.128,87.354,74.716,134.895,107.148c36.426,24.844,71.379,52.84,107.348,76.575
			C6149.855,3914.586,6185.453,3914.184,6222.042,3913.964z" style="stroke:black;fill:#fffc91"/><path id="180640997" parent_id="180640943" order="43" structure_id="10713" d="M6036.531,3284.847
			c-40.256-120.347-139.875-226.107-167.943-356.347c-14.118-65.504-11.466-93.67-11.023-97.096
			c-0.002,0.001-0.002,0.002-0.002,0.004l0.515-3.835c-76.554,17.153-165.616-19.27-236.956-39.118
			c-155.988-43.425-311.177-135.068-436.947-235.885c-72.342-57.996-133.889-117.641-196.977-185.124
			c-90.764-97.099-201.589-206.524-311.396-279.86c-40.192-26.834-80.658-53.784-118.473-83.834
			c-48.546-38.578-79.582-48.788-142.408-66.788l-15.652,235.879l4.373-0.471c58.149,0.489,158.723,48.446,149.666,115.358
			c-52.815,27.203-100.752-8.729-156.561-10.237l-4.354-1.044l-17.75,267.462l7.455-0.665
			c92.065-10.112,156.014,21.738,243.943,34.498c150.5,21.831,338.682,40.021,471.27,122.412
			c139.809,86.877,320.213,320.938,362.08,346.926c20.609,16.878,45.342,68.903,66.16,144.421
			c5.709,20.71,9.832,40.438,12.797,59.028c28.273,17.185,57.556,25.856,75.677,4.607c34.253-40.164,89.513-56.959,57.083-118.913
			c-22.641-43.264-85.252-99.045-42.057-149.696c62.166-72.873,166.488,34.041,200.543,84.364
			c45.229,66.884,65.686,148.929,108.588,217.53c23.152,37.018,83.215,92.743,135.842,107.961
			C6053.209,3335.525,6036.531,3284.847,6036.531,3284.847z" style="stroke:black;fill:#fffc91"/><path id="180640996" parent_id="180640943" order="44" structure_id="10711" d="M6299.264,3902.809
			c-6.328-11.551-15.279-28.016-22.348-41.506c-33.982-64.874-103.049-199.547-140.977-293.247
			c-16.543-40.874-41.267-111.282-61.918-171.669c-52.629-15.219-112.689-70.945-135.844-107.961
			c-42.901-68.603-63.356-150.646-108.588-217.529c-34.054-50.323-138.377-157.238-200.541-84.365
			c-43.196,50.652,19.414,106.434,42.056,149.697c32.429,61.952-22.83,78.748-57.083,118.912
			c-18.121,21.25-47.402,12.577-75.677-4.607c5.415,33.951,6.931,64.051,6.974,89.172c80.145,45.652,153.604,113.008,233.606,162.96
			c106.405,66.438,206.386,148.313,284.63,246.813c43.302,54.508,78.697,135.895,149.277,159.653
			c6.194,2.084,12.205,3.705,18.035,4.902C6256.377,3914.523,6275.743,3916.889,6299.264,3902.809z" style="stroke:black;fill:#ece754"/><path id="180640998" parent_id="180640943" order="45" structure_id="10711" d="M4553.305,2287.729
			c9.058-66.912-91.517-114.868-149.666-115.357l-4.373,0.471l-6.875,103.606l4.354,1.044
			C4452.552,2279.001,4500.488,2314.934,4553.305,2287.729z" style="stroke:black;fill:#ece754"/><path id="180640984" parent_id="180640943" order="46" structure_id="10722" d="M4476,1111.645
			c21.335-89.369,58.055-102.884,127.268-158.371c52.871-42.385,92.627-61.6,140.078-99.193l68.641-28.225
			c-48.252-12.115-72.275-27.915-124.609-36.604c-62.945-10.451-126.763-23.068-189.021-36.943L4476,1111.645z" style="stroke:black;fill:#fffc91"/><path id="180640994" parent_id="180640943" order="47" structure_id="10722" d="M5857.563,2831.404
			C5857.626,2830.917,5857.645,2830.93,5857.563,2831.404c-0.44,3.426-3.094,31.592,11.024,97.096
			c28.069,130.239,127.688,236,167.942,356.347c0,0,16.679,50.679,37.49,111.539c39.787,11.505,75.326-0.14,87.455-60.528
			c18.127-90.276-61.498-188.739-96.045-267.244c-51.043-115.989,34.379-162.838,69.393-263.813
			c17.979-51.86,27.169-106.718,49.43-157.116c82.522-186.8,170.424,82.78,198.537,159.626
			c54.732,149.647,89.451,316.946,40.738,471.078c-62.04,196.336,1.471,396.866,192.578,476.565
			c1.909-88.142,5.829-189.157-0.26-265.539c0.414-48.72,3.328-215.668-25.348-380.916
			c-16.595-95.632-47.645-176.039-79.826-255.657c-46.301-114.559-102.815-247.405-154.174-374.343
			c-25.858-63.914-64.105-182.366-91.66-249.959c-34.129,91.455-77.498,179.383-126.002,264.063
			c-62.561,109.237-126.373,260.257-243.013,321.272c-12.123,6.342-24.757,10.785-37.749,13.696l-0.514,3.835
			C5857.563,2831.406,5857.563,2831.405,5857.563,2831.404z" style="stroke:black;fill:#fffc91"/><path id="180640993" parent_id="180640943" order="48" structure_id="10720" d="M6616.105,3754.954
			c-191.107-79.699-254.617-280.229-192.578-476.565c48.713-154.132,13.994-321.431-40.737-471.078
			c-28.112-76.846-116.015-346.426-198.538-159.625c-22.26,50.396-31.451,105.254-49.43,157.115
			c-35.013,100.976-120.435,147.824-69.393,263.813c34.547,78.504,114.173,176.967,96.045,267.245
			c-12.128,60.389-47.667,72.033-87.454,60.527c20.651,60.387,45.375,130.795,61.919,171.669
			c37.927,93.7,106.992,228.374,140.977,293.247c7.066,13.491,16.019,29.956,22.347,41.506c1.536-0.92,3.087-1.897,4.661-2.963
			c26.373-17.834,45.734-46.957,56.1-79.121c9.043-35.221,8.43-74.781-2.219-108.828c-7.505-17.207-15.777-33.554-24.505-49.51
			c-24.247-39.006-52.728-76.123-67.396-119.859c-17.785-53.026-13.358-107.101-18.514-161.953
			c-5.123-54.584-13.191-111.178-6.917-165.944c0.938-8.21,2.84-16.795,5.254-25.622c0.121-1.075,0.229-2.149,0.356-3.226
			c4.519-37.439,34.597-89.194,20.377-126.79c0.06,0.156,0.114,0.316,0.174,0.475c-0.055-0.147-0.104-0.295-0.158-0.441
			c29.51,78.083,20.737,197.865,28.127,292.135c0.541,6.882,1.164,13.629,1.897,20.211c0.718,6.452,1.539,12.748,2.483,18.863
			c21.924,142.131,61.203,227.639,150.836,338.172c32.36,39.901,95,86.889,165.713,122.994
			C6614.91,3822.837,6615.35,3789.91,6616.105,3754.954z" style="stroke:black;fill:#ece754"/><path id="180640992" parent_id="180640943" order="49" structure_id="10674" d="M6510.673,2852.842
			c32.183,79.618,63.231,160.026,79.827,255.658c28.675,165.246,25.762,332.195,25.348,380.915
			c6.088,76.382,2.168,177.397,0.26,265.539c12.086,5.04,24.666,9.613,37.772,13.655c50.899,15.697,138.888,12.367,171.567-39.188
			c17.746-28.007,12.258-90.19,16.617-121.958c6.037-43.916,7.611-87.099,5.481-131.744c-3.81-79.877-16.035-159.074-29.351-237.825
			c-27.576-163.072-86.631-299.974-172.076-441.853c-74.362-123.488-250.905-344.27-220.842-500.178
			c37.758-195.806,241.398,118.321,289.069,97.159c82.003-36.416-20.386-230.701,36.544-286.355
			c113.873,116.92,197.913,260.824,324.702,368.649c137.677,117.08,254.647,232.053,311.12,408.837
			c45.646,142.92,56.206,309.319-29.7,440.663c-87.199,133.335-222.556,93.848-258.584,269.533
			c-18.552,90.463-59.626,268.781,37.429,327.342c27.465-40.6,59.172-82.598,71.209-100.38
			c70.696-104.442,172.705-211.978,220.818-302.246c63.766-119.643,158.395-332.995,132.948-518.604
			c-1.037-7.563-2.813-19.501-4.843-31.758c-7.555-18.241-13.016-39.34-15.68-65.479c-11.211-109.998-34.543-220.282-83.764-319.83
			c-162.907-329.474-398.091-626.426-722.143-808.881c-81.974-46.155-157.398-123.585-257.412-127.203
			c-176.721-6.384-132.316,243.09-148.02,351.405c-8.535,58.886-26.796,119.477-45.24,175.888
			c-5.924,18.115-12.238,36.093-18.896,53.938c27.555,67.592,65.802,186.044,91.66,249.959
			C6407.857,2605.438,6464.373,2738.284,6510.673,2852.842z" style="stroke:black;fill:#fffc91"/><path id="180640991" parent_id="180640943" order="50" structure_id="10672" d="M7135.857,3921.689
			c-97.054-58.561-55.979-236.879-37.428-327.341c36.029-175.686,171.385-136.198,258.584-269.534
			c85.906-131.344,75.348-297.742,29.7-440.662c-56.474-176.784-173.442-291.758-311.12-408.838
			c-126.789-107.824-210.829-251.729-324.702-368.648c-56.931,55.654,45.459,249.939-36.544,286.355
			c-47.671,21.162-251.313-292.966-289.068-97.159c-30.064,155.907,146.479,376.688,220.84,500.178
			c85.446,141.879,144.502,278.78,172.076,441.853c13.315,78.75,25.541,157.947,29.352,237.824
			c2.13,44.646,0.555,87.829-5.48,131.745c-4.36,31.767,1.127,93.951-16.619,121.958c-32.681,51.556-120.668,54.887-171.566,39.188
			c-13.107-4.041-25.688-8.614-37.773-13.654c-0.756,34.957-1.195,67.883-0.57,96.447c132.113,67.455,292.415,96.92,336.132-28.83
			c0.673-1.936,1.312-3.873,1.938-5.811c0.209-0.643,0.418-1.286,0.621-1.929c0.469-1.48,0.92-2.961,1.362-4.443
			c0.451-1.519,0.894-3.035,1.317-4.553c0.039-0.146,0.08-0.289,0.121-0.435c23.662-85.029,5.787-171.285-5.104-256.413
			c-2.477-19.371-2.939-38.499-2.34-57.514c-2.395-38.155-1.73-76.152,5.936-113.776c1.733-8.511,3.055-17.052,4.049-25.617
			c0.051-3.836,0.063-7.678,0.012-11.53c-1.038-76.818-2.379-168.103-16.596-242.635c-2.078-10.897-4.938-21.574-8.379-32.083
			c-5.549-16.066-12.102-31.678-19.354-47.019c-18.899-38.853-43.06-75.975-63.218-113.569c-1.876-3.209-3.751-6.423-5.618-9.649
			c-36.188-62.524-106.265-146.786-104.771-221.739c0-0.001,0-0.003,0-0.005c0.025,0.097,0.054,0.193,0.08,0.291
			c0.449,1.679,0.918,3.353,1.4,5.024c0.123,0.424,0.248,0.846,0.372,1.269c2.78,9.442,6.086,18.787,9.837,28.021
			c0.113,0.277,0.227,0.554,0.34,0.83c0.41,1.003,0.835,2.002,1.256,3.002c29.061,68.497,81.154,123.801,123.961,184.376
			c8.768,10.853,17.355,21.809,25.488,33.218c28.018,39.289,64.238,60.521,111.947,66.629c1.88,0.241,7.963,0.449,16.691,0.668
			c44.201-1.361,85.5-9.805,134.113,6.12c2.411,0.489,4.01,1.022,4.66,1.603c0.486,0.174,0.973,0.341,1.461,0.52
			c-2.404,3.966-5.061,7.458-7.926,10.561c-31.081,37.889-100.939,26.48-129.973,73.92c-22.513,36.795-28.022,81.951-29.254,124.067
			c-4.293,146.259-5.475,291.355-13.055,437.652c-0.415,8.019-0.98,16.508-1.604,25.363c-0.207,2.95-0.422,5.942-0.64,8.973
			c-0.108,1.514-0.218,3.038-0.328,4.57c-0.22,3.063-0.438,6.164-0.658,9.294c-1.644,23.477-3.172,48.691-3.161,74.007
			c0.023,64.13,9.928,128.901,52.904,167.676c0.045,0.042,0.086,0.081,0.129,0.12c0.381,0.344,0.766,0.668,1.146,1.008
			c16.125,14.155,37.189,26.127,60.443,34.855C7109.895,3961.253,7122.359,3941.645,7135.857,3921.689z" style="stroke:black;fill:#ece754"/><path id="180640989" parent_id="180640943" order="51" structure_id="10677" d="M7427.887,3519.064
			c-48.112,90.27-150.121,197.804-220.817,302.246c-12.037,17.782-43.745,59.781-71.21,100.381
			c17.98,10.85,40.704,17.589,69.189,18.896c95.806,4.397,146.338-58.2,217.338-108.03c46.611-32.699,104.315-40.338,149.875-74.88
			c22.551-17.103,47.236-32.708,74.151-58.069c3.437-2.476,4.824-3.633,8.229-7.449c14.222-22.473,27.816-45.748,41.418-70.229
			c48.565-87.39,39.449-164.132,34.348-261.78c-4.498-85.934-22.546-180.416-72.771-252.237
			c-40.227-57.521-79.746-86.331-101.646-139.208c2.03,12.257,3.806,24.193,4.843,31.758
			C7586.279,3186.07,7491.652,3399.423,7427.887,3519.064z" style="stroke:black;fill:#fffc91"/><path id="180640990" parent_id="180640943" order="52" structure_id="10675" d="M7353.182,3927.27
			c56.062-33.994,120.705-51.609,175.375-88.11c53.512-35.75,78.802-88.931,117.856-139.552
			c-26.915,25.36-51.601,40.967-74.151,58.069c-45.56,34.542-103.264,42.181-149.875,74.88
			c-71,49.83-121.533,112.428-217.338,108.03c-28.485-1.308-51.209-8.047-69.189-18.896l-35.602,57.945
			C7183.505,4011.996,7274.264,3975.111,7353.182,3927.27z" style="stroke:black;fill:#ece754"/><path id="180640988" parent_id="180640943" order="53" structure_id="10689" d="M8757.666,5121.48
			c-60.986-141.015-143.619-279.943-253.652-386.697c-36.63-35.536-55.499-76.461-85.718-116.566
			c-64.96-86.203-155.848-152.58-247.463-208.031c-118.034-71.443-244.597-127.615-361.713-201.1
			c-72.116-45.236-104.923-119.914-184.341-158.606c-72.775-35.45-158.438-46.837-238.605-40.751
			c-11.604,0.884-37.77,2.587-56.691-2.441c-17.738,9.164-36.411,17.896-38.564,21.408c-12.608,20.563-31.668,30.492-50.519,40.279
			c-15.229,7.906-26.89,22.439-38.339,35.695c-0.057,0.064-0.107,0.129-0.163,0.194c3.606-3.931,7.915-7.92,13.011-11.973
			c35.721-28.407,76.352,7.569,111.951,17.458c51.758,14.381,110.16,17.256,163.211,27.047
			c92.125,16.996,148.701,89.515,214.084,149.095c75.764,69.036,175.065,87.606,265.895,130.228
			c100.673,47.246,171.545,129.75,270.188,179.9c49.129,24.979,98.058,52.404,137.265,89.881c16.268,15.55,31.414,35.881,43,60
			c14.801,30.807,25.723,39.535,38.968,67.602c16.038,33.984,22.653,72.239,34.628,107.155
			c34.645,101.088,51.23,219.597,44.196,326.244c-4.994,75.66-18.996,146.877-66.832,205.813
			c-44.962,55.395-88.811,111.687-132.677,167.942c-30.026,38.521-72.968,66.619-99.18,108.224
			c-29.361,46.615-33.58,97.016-49.136,148.367c-12.74,42.092-39.004,84.117-60.989,121.994
			c-24.153,41.605-33.64,90.67-65.84,127.676c-23.177,26.627-56.09,42.76-78.212,70.377c-20.111,25.121-27.594,58.201-52.771,80.287
			c-119.842,105.133-256.869-14.058-320.511-115.136c-58.979-93.64-74.938-170.354-66.362-280.466
			c6.969-89.575,85.316-117.824,160.86-146.866c84.382-32.437,125.313-116.452,192.245-168.476
			c49.795-38.694,86.75-37.26,111.668-103.435c21.693-57.627,19.354-119.963,19.182-180.55
			c-0.688-250.479-147.099-530.268-356.992-659.845c-51.019-31.487-90.194-61.799-148.219-78.149
			c-40.047-11.281-117.181-49.549-162.799-37.398c8.316,1.007,9.189,1.721-6.608,2.213c2.118-0.871,4.325-1.604,6.608-2.213
			c-12.412-1.502-41.42-3.657-56.391-6.705c-79.471-11.398-59.302,12.313-137.137-15.869
			c-61.39-22.221-93.139-94.205-143.185-132.055c-43.905-33.199-111.386-32.289-155.562-1.924
			c36.803,20.654,73.842,46.071,92.485,73.125c68.271,103.588,210.214,170.41,334.206,234.099
			c146.796,75.412,246.107,162.354,336.221,300.765c118.715,182.334,194.903,343.809,43.143,538.063
			c-21.626,27.688-65.611,53.513-94.854,81.304c-1.838,1.748-5.32,4.395-9.588,7.494c0.078,0.015,0.153,0.022,0.232,0.037
			c-0.117-0.025-0.262,0.021-0.419,0.099c-0.185,0.133-0.375,0.271-0.562,0.405c-8.828,8.119-55.017,112.076-58.949,123.486
			c-22.937,66.594-10.967,127.535-11.494,195.333c-0.508,65.013-14.785,125.847-2.246,191.34
			c20.821,108.771,58.979,216.327,130.267,302.781c207.729,251.918,555.869,6.058,712.532-179.747
			c44.097-52.295,85.59-107.07,123.015-164.333c18.089-27.681,45.373-51.813,61.596-81.179
			c23.089-41.799,55.318-85.149,36.719-136.219c44.95,9.555,87.813-58.473,93.194-67.016
			c36.984-58.703,72.031-124.946,98.977-188.68c13.766-32.602,16.07-67.294,22.32-102.195
			C8796.328,5368.082,8803.717,5227.939,8757.666,5121.48z" style="stroke:black;fill:#fffc91"/><path id="180640987" parent_id="180640943" order="54" structure_id="10687" d="M7204.715,4170.922
			c36.4,35.664,121.5,63.006,175.771,81.367c19.18,5.162,38.547,10.193,56.412,18.579c29.723,13.954,54.785,34.509,81.514,52.481
			c51.027,28.264,102.534,55.377,153.852,83.058c175.492,88.249,356.103,204.033,482.597,354.534
			c10.253,12.064,19.966,24.268,29.033,36.58c26.463,35.732,49.361,74.814,62.787,117.25c0.138,0.434,0.27,0.867,0.405,1.301
			c0.298,0.955,0.597,1.908,0.884,2.866c0.449,1.493,0.888,2.985,1.31,4.479c0.723,2.558,1.424,5.123,2.113,7.691
			c0.275,1.027,0.543,2.059,0.813,3.087c0.375,1.427,0.748,2.854,1.112,4.285c0.384,1.5,0.761,3.002,1.134,4.507
			c0.152,0.618,0.303,1.236,0.454,1.855c19.51,79.728,24.361,165.477,18.769,247.194c-1.047,38.993-3.266,80.438-11.739,118.308
			c-2.188,11.598-4.958,22.722-8.577,32.932c-1.751,4.938-3.827,9.279-6.145,13.216c-0.32,0.729-0.623,1.47-0.951,2.192
			c-12.781,28.199-40.878,47.763-59.722,71.985c-7.53,13.966-13.734,28.981-19.225,44.545
			c-5.329,24.466-12.755,48.345-21.841,71.606c-8.31,28.237-17.246,55.844-30.147,80.082
			c-20.885,39.248-52.373,71.912-81.022,105.504c-13.349,15.65-29.11,29.334-44.087,43.734
			c-11.514,15.375-35.419,50.757-63.034,85.253c-1.644,2.151-3.343,4.247-5.09,6.295c-42.426,51.922-92.128,98.885-118.998,68.451
			c-11.599-13.155,17.763-44.767,24.2-52.968c76.691-97.818,170.204-182.126,229.486-292.934
			c47.816-89.379,85.097-185.646,109.496-284.033c21.196-85.467,0.213-175.707,14.24-262.508
			c0.371-25.426,1.138-50.879,2.635-76.438c0.317-5.409,0.359-10.8,0.189-16.17c-4.936-40.407-17.596-80.089-36.126-118.003
			c-8.524-15.884-17.918-31.196-27.467-45.78c-37.024-56.567-82.296-106.076-133.114-149.701
			c-127.256-106.318-293.176-182.246-435.851-231.867c-86.688-30.14-180.101-24.805-268.44-47.191
			c-83.879-21.259-151.988-74.646-240.537-81.34c-65.412-4.943-173.436-1.544-237.512,41.266
			c18.426,8.479,41.738,19.69,65.158,32.834c44.176-30.365,111.656-31.274,155.563,1.924
			c50.045,37.85,81.795,109.834,143.184,132.055c77.835,28.184,57.667,4.471,137.137,15.869c14.972,3.048,43.979,5.203,56.392,6.705
			c45.618-12.148,122.751,26.117,162.799,37.398c58.022,16.352,97.2,46.662,148.218,78.149
			c209.895,129.578,356.305,409.367,356.992,659.845c0.174,60.587,2.514,122.923-19.182,180.55
			c-24.918,66.174-61.873,64.739-111.668,103.435c-66.932,52.022-107.862,136.039-192.244,168.476
			c-75.545,29.042-153.894,57.291-160.861,146.866c-8.574,110.109,7.384,186.827,66.363,280.466
			c63.641,101.078,200.668,220.269,320.511,115.136c25.179-22.086,32.659-55.166,52.771-80.287
			c22.123-27.617,55.035-43.75,78.213-70.377c32.199-37.006,41.687-86.069,65.84-127.676
			c21.985-37.877,48.248-79.902,60.988-121.994c15.556-51.353,19.774-101.752,49.136-148.367
			c26.212-41.604,69.153-69.703,99.18-108.224c43.866-56.257,87.715-112.549,132.677-167.942
			c47.836-58.938,61.838-130.153,66.832-205.813c7.034-106.647-9.552-225.156-44.196-326.244
			c-11.975-34.916-18.59-73.171-34.628-107.155c-13.245-28.065-24.167-36.795-38.968-67.602c-11.586-24.119-26.732-44.45-43-60
			c-39.207-37.477-88.136-64.902-137.265-89.881c-98.645-50.15-169.516-132.654-270.188-179.9
			c-90.828-42.621-190.131-61.19-265.896-130.228c-65.382-59.58-121.958-132.099-214.084-149.095
			c-53.051-9.791-111.453-12.666-163.211-27.047c-35.601-9.89-76.229-45.865-111.95-17.459c-5.096,4.054-9.402,8.043-13.012,11.974
			C7180.939,4129.279,7186.473,4151.566,7204.715,4170.922z" style="stroke:black;fill:#ece754"/><path id="180640986" parent_id="180640943" order="55" structure_id="10692" d="M7675.51,5497.361
			c151.762-194.256,75.573-355.73-43.143-538.064c-90.111-138.409-189.424-225.352-336.221-300.764
			c-123.992-63.688-265.936-130.51-334.206-234.099c-18.646-27.054-55.685-52.472-92.485-73.125
			c-25.145,17.283-42.742,44.104-44.135,79.623c-1.174,29.967,10.611,59.64,27.258,83.865
			c32.199,46.89,77.101,83.069,119.265,120.511c19.103,16.972,37.176,35.211,57.005,51.095
			c25.721,20.595,41.65,40.392,67.547,59.235c45.1,32.804,88.074,68.302,134.252,99.69c65.18,44.306,132.363,85.59,200.348,125.454
			c145.373,85.268,271.014,206.309,219.785,389.699c-23.539,84.262-112.227,178.126-203.939,145.083
			c-106.665-38.422-179.707-172.229-239.459-263.649c-11.626-17.793-71.902-91.808-79.264-141.461
			c-5.908,5.99-11.451,12.113-15.317,18.785c-18.065,31.156,0.448,65.852,7.649,97.196c7.875,34.261-3.155,63.166-0.403,96.879
			c3.276,39.991,46.71,72.123,70.61,101.61c38.746,5.742,88.158,87.285,106.111,117.041
			c33.374,55.324,65.792,105.041,137.079,108.156c56.04,2.428,80.962-63.545,137.222-53.966c4.269-3.101,7.752-5.747,9.59-7.494
			C7609.898,5550.874,7653.884,5525.05,7675.51,5497.361z" style="stroke:black;fill:#fffc91"/><path id="180640985" parent_id="180640943" order="56" structure_id="10690" d="M7446.839,5505.566
			c91.714,33.043,180.401-60.822,203.938-145.084c51.229-183.392-74.41-304.432-219.783-389.699
			c-67.984-39.863-135.168-81.147-200.349-125.453c-46.179-31.391-89.153-66.889-134.252-99.691
			c-25.896-18.846-41.826-38.641-67.547-59.234c-19.829-15.883-37.901-34.123-57.005-51.095
			c-42.164-37.44-87.064-73.622-119.264-120.511c-16.646-24.228-28.434-53.898-27.26-83.865
			c1.394-35.521,18.992-62.34,44.135-79.623c-23.418-13.145-46.731-24.356-65.158-32.834
			c-35.006,23.387-56.896,58.533-51.554,110.512c15.138,147.302,167.207,264.154,250.382,374.34c2.25,2.979,4.496,5.99,6.742,9.016
			c0.938,1.262,1.871,2.524,2.805,3.789c1.061,1.437,2.119,2.879,3.181,4.326c10.785,14.697,21.371,29.554,31.967,44.403
			c24.321,34.042,49.284,68.692,76.426,100.479c0.856,1,1.718,2,2.581,2.998c1.259,1.457,2.518,2.914,3.786,4.359
			c36.751,41.509,86.912,72.99,130.963,106.152c0.892,0.67,1.802,1.346,2.72,2.021c13.082,8.729,26.209,17.899,38.324,27.388
			c10.631,8.035,20.896,16.699,29.453,26.293c11.711,12.391,20.361,25.101,23.881,37.896
			c-58.655-20.959-116.267-78.409-169.832-113.998c-8.217-3.176-16.914-4.62-25.989-2.988c-0.481,0.086-0.95,0.183-1.419,0.275
			c-1.217,17.623-16.881,30.811-30.594,44.717c7.359,49.654,67.637,123.669,79.263,141.461
			C7267.132,5333.337,7340.174,5467.145,7446.839,5505.566z" style="stroke:black;fill:#ece754"/><path id="180641005" parent_id="180640943" order="57" structure_id="1009" d="M5271.542,5151.295
			c-80.213-106.65-229.165-263.082-365.976-289.979c-90.381-17.739-168.231,88.515-91.818,160.408
			c88.427,83.209,222.77,96.139,309.854,180.424c93.403,90.422,138.713,218.974,247.201,297.783
			c60.982,44.301,78.924-4.396,75.588-60.196c-4.443-74.312-52.664-132.233-99.562-185.918
			C5318.771,5221.695,5297.182,5185.384,5271.542,5151.295z" style="stroke:black;fill:#cccccc"/><path id="180641006" parent_id="180640943" order="58" structure_id="1009" d="M5385.83,6896.498
			c128.904-29.238,258.383-60.977,378.484-117.475c178.457-83.946,355.371-174.307,520.551-282.668
			c91.675-60.141,167.968-145.875,259.876-203.229c47.627-29.715,115.287-12.423,134.464,41.396
			c30.709,86.211-162.268,271.389-11.939,307.433c49.262,11.817,117.603-4.284,156.521-35.422
			c75.289-60.229,106.979-178.728,135.16-266.753c36.229-113.159,92.878-317.281,114.447-428.389
			c-93.033-3.305-156.69,170.067-229.397,138.748c-34.858-15.043-57.673-87.916-69.978-120.896
			c-17.297-46.337-29.137-94.491-40.588-142.521c-25.875-108.479-55.928-215.834-80.826-324.471
			c-25.51-111.346-30.146-226.396-54.613-337.991c-16.012-73.046-68.477-286.407-167.959-295.144
			c-113.674-9.988-97.484,437.945-89.675,497.051c21.077,159.513,67.458,318.404,53.104,480.703
			c-10.381,117.285-99.181,325.875-199.223,419.321c-77.009,71.929-252.07-102.604-291.328-80.735
			c-68.541,38.187,22.952,229.556,3.498,298.715c-19.667,69.748-108.682,144.761-170.104,176.81
			c-72.568,37.864-120.822,35.013-147.066,28.91c-64.338-14.974-140.273-57.448-202.436-12.503
			c-39.233,28.366-48.051,58.506-74.576,95.361c-11.067,15.373-31.533,31.797-45.658,46.873
			c-28.656,30.619-68.547,52.349-92.865,86.98c-23.074,32.861-28.867,81.547,25.946,73.793
			C5260.964,6931.729,5325.143,6910.268,5385.83,6896.498z" style="stroke:black;fill:#cccccc"/><path id="180641007" parent_id="180640943" order="59" structure_id="1009" d="M4502.652,7037.284
			c-95.721,2.331-231.361-4.705-318.418-56.24c-47.098-27.875-80.887-210.515,3.018-258.175
			c55.915-31.77,173.279-22.01,215.686-10.904c181.391,47.51,445.793,104.313,608.905,200.367
			c48.201,28.422-3.935,54.016-34.229,64.576c-42.617,14.853-85.807,16.476-130.191,22.492
			C4732.4,7014.988,4618.876,7034.448,4502.652,7037.284z" style="stroke:black;fill:#cccccc"/><path id="180641008" parent_id="180640943" order="60" structure_id="1009" d="M4281.876,4962.092
			c-19.438,53.322-45.995,142.396,22.542,165.389c92.587,31.056,129.579-103.599,175.866-139.326
			c53.122-41.002,178.854-9.047,219.767-37.619c56.479-39.437-197.688-40.705-280.845-80.48
			C4331.32,4828.016,4310.268,4884.207,4281.876,4962.092z" style="stroke:black;fill:#cccccc"/><path id="180641009" parent_id="180640943" order="61" structure_id="1009" d="M6150.77,4000.646
			c20.308,17.906,48.154,12.972,72.688,18.791c66.56,15.795,104.507,85.515,127.668,144.414
			c34.511,87.734,49.849,182.578,87.782,269.142c17.979,41.043,39.252,115.231,97.408,106.453
			c35.234-5.332,67.527-36.021,103.063-40.513c71.027-8.967,91.301,42.181,129.09,95.856
			c37.767,53.642,95.054,83.649,141.84,132.831c20.826,21.889,37.867,44.93,55.586,69.152
			c28.014,38.313,58.978,72.504,90.498,108.154c21.883,24.752,42.362,50.744,63.756,76.029
			c19.627,23.213,23.744,52.133,50.774,67.963c57.795,33.838,120.785,100.572,185.026,123.527
			c-15.168-55.17-125.631-108.734-166.264-141.865c-74.083-60.406-129.436-151.598-186.563-227.256
			c-83.176-110.186-235.244-227.038-250.383-374.34c-15.123-147.123,187.92-159.422,289.065-151.777
			c88.548,6.693,156.658,60.082,240.536,81.34c88.341,22.389,181.753,17.054,268.441,47.191
			c214.34,74.549,440.904,185.916,568.965,381.568c34.588,52.83,67.205,115.153,63.402,179.953
			c-4.467,76.195-2.514,151.465-2.547,227.804c-0.061,133.276-61.87,279.367-123.824,395.176
			c-59.283,110.808-152.796,195.114-229.486,292.935c-6.438,8.201-35.799,39.813-24.201,52.967
			c49.102,55.612,174.44-147.213,192.306-166.478c23.448-25.263,47.444-46.162,68.222-75.426
			c48.642-68.494,89.312-144.935,105.558-227.983c8.683-44.348,58.709-67.033,77.083-107.569
			c28.045-61.933,26.704-145.479,28.446-212.224c1.956-74.379-5.136-151.222-25.43-223.047
			c-15.061-53.301-45.377-101.428-79.589-144.377c-130.225-163.471-324.695-287.123-511.527-379.676
			c-33.845-16.768-80.318-42.017-113.184-59.752c-37.633-20.303-68.781-50.295-108.079-68.744
			c-25.472-11.955-53.993-17.092-80.675-25.51c-42.057-13.272-217.448-67.422-154.165-140.688
			c11.449-13.256,23.11-27.79,38.339-35.696c18.852-9.787,37.909-19.716,50.52-40.279c4.146-6.769,28.588-13.217,37.973-23.383
			c-57.085-11.729,12.393-68.07,21.896-75.07c-15.189,11.188-66.938,33.194-86.801,41.445
			c-20.869,8.669-54.654,16.518-73.506,18.769c-58.519,6.989-111.32-13.576-150.543-48.601c-0.119-0.122-0.242-0.228-0.371-0.35
			c-72.383-65.307-50.949-204.35-46.516-289.883c7.58-146.297,8.762-291.394,13.055-437.652
			c1.23-42.117,6.742-87.273,29.254-124.068c31.377-51.271,110.453-33.796,136.709-84.118c3.963-7.593-144.945-7.888-155.737-9.271
			c-47.709-6.107-83.931-27.342-111.948-66.629c-20.512-28.78-43.921-54.689-65.799-83.271
			c-39.092-51.065-80.15-109.791-96.938-172.755c-1.494,74.953,68.582,159.215,104.771,221.74
			c49.132,84.872,102.268,162.613,106.741,265.042c3.176,72.76,16.853,145.952,2.362,217.061
			c-29.92,146.845,46.735,299.358-3.854,444.871c-67.116,193.058-409.025,20.286-501.844-94.164
			c-89.634-110.532-128.913-196.042-150.837-338.172c-15.106-97.848,1.269-241.841-32.522-331.242
			c14.219,37.595-15.859,89.351-20.377,126.79c-9.739,81.021,5.912,159.991,9.748,241.59c2.4,51.221-0.965,101.521,25.86,147.162
			c27.036,46.023,54.769,88.33,76.251,137.678c26.45,60.723,2.066,149.704-54.021,187.634
			c-28.385,19.201-50.071,13.928-81.883,14.118c-38.918,0.232-76.715,0.676-115.625-2.833
			C6101.02,3910.65,6144.223,3994.886,6150.77,4000.646z" style="stroke:black;fill:#cccccc"/><path id="180641010" parent_id="180640943" order="62" structure_id="1009" d="M5437.064,3737.402
			c26.373,43.397,51.375,68.801,75.026,65.33c88.508-12.965,242.175,119.596,275.452,143.242
			c49.775,35.375,193.281,187.031,70.361,228.067c-67.986,22.69-145.873-67.821-195.434-102.799
			c-87.58-61.82-189.494-102.11-274.876-166.925c-40.043-30.395-179.093-123.386-132.737-190.502
			C5293.99,3657.268,5376.982,3638.537,5437.064,3737.402z" style="stroke:black;fill:#cccccc"/><path id="180641011" parent_id="180640943" order="63" structure_id="1009" d="M5645.441,3688.191
			c70.002,79.426,130.185,160.941,219.391,220.252c80.829,53.746,170.455,87.278,229.361,166.461
			c36.574,49.166,68.808,104.248,93.568,160.324c20.837,47.203,34.973,97.176,80.43,127.472
			c36.806,24.544,78.463,27.626,117.808,44.526c20.78,8.929,43.627,24.746,58.915,41.26
			c-20.182-45.524-33.307-92.299-42.324-122.357c-14.546-48.488-30.709-98.594-51.721-161.63
			c-18.725-56.172-50.979-99.453-87.28-127.687c-10.362-8.062-28.271-15.73-47.705-18.699c-24.944-3.811-53.905-1.78-65.237-17.834
			c-16.896-23.937-24.403-44.117-38.953-71.338c-1.949-3.646-3.826-11.669-5.162-16.896c-0.852-3.322-0.631-4.399-2.816-6.101
			c-46.464-36.14-80.104-55.308-122.939-89.237c-51.537-40.829-101.609-88.736-142.689-115.598
			c-38.214-24.98-90.352-51.322-126.126-78.244c-26.407-19.876-100.274-92.297-137.039-66.652
			C5525.066,3590.98,5625.418,3665.477,5645.441,3688.191z" style="stroke:black;fill:#cccccc"/><path id="180641012" parent_id="180640943" order="64" structure_id="1009" d="M4489.029,3274.544
			c169.703-62.899,355.934-75.448,506.799-182.942c-45.979,5.832-85.192,25.443-129.871,37.657
			c-88.058,24.079-180.656,34.671-268.771,60.599c-82.918,24.395-184.668,47.168-269.924,68.007l-1.477,22.233
			C4382.193,3308.203,4437.411,3293.684,4489.029,3274.544z" style="stroke:black;fill:#cccccc"/><path id="180641003" parent_id="180640943" order="65" structure_id="145" d="M4280.201,4011.835
			c32.818-12.562,47.309-61.272,58.204-89.185c18.708-47.926,46.687-67.926,94.913-83.633
			c110.518-35.977,226.521-47.413,337.928-79.854c57.813-16.828,121.896-37.434,181.146-46.5
			c30.552-4.658,58.172-1.144,79.061-27.844c28.467-36.428,24.057-56.787,22.39-97.488c-38.074,39.555-93.297,54.263-145.681,73.793
			c-54.571,20.343-116.287,33.979-172.627,48.48c-104.838,26.955-218.649,60.816-328.078,55.564
			c-35.211-1.684-73.563-6.145-107.277-15.461L4280.201,4011.835z" style="stroke:black;fill:#aaaaaa"/><path id="180641004" parent_id="180640943" order="66" structure_id="145" d="M4235.516,4650.68c7.391,23.33,74.142,217.766-8.299,168.936
			L4235.516,4650.68z" style="stroke:black;fill:#aaaaaa"/><path id="180641002" parent_id="180640943" order="67" structure_id="153" d="M6837.824,4751.742c3.622,6.848,7.283,13.702,11.027,20.55
			c45.744,83.722,76.453,177.283,100.023,269.466c25.419,99.404,80.131,179.646,123.725,271.348
			c26.83,56.437,41.321,119.568,62.801,177.27c5.154-23.102,14.393-46.216,26.66-61.173c9.949-12.129,16.226-15.422,28.595-14.272
			c-23.899-29.488-67.334-61.621-70.61-101.611c-2.752-33.713,8.278-62.618,0.403-96.879c-7.201-31.346-25.716-66.04-7.649-97.197
			c15.955-27.523,60.451-45.746,41.289-83.643c-32.807-64.868-83.399-113.829-131.869-165.954
			c-31.321-33.696-56.373-72.433-83.52-109.394c-27.618-37.569-53.408-56.475-89.548-85.435
			c-28.155-22.571-51.993-46.334-76.285-73.367c-7.133-7.931-11.958-17.687-17.981-26.433
			c-8.104-11.768-13.789-19.943-22.361-32.488c-3.689-5.417-6.514-13.098-11.641-17.127c-1.404-1.111-18.408-10.516-18.453-9.666
			c-1.785,35.479,33.783,79.177,54.043,105.439C6787.87,4661.881,6813.828,4706.375,6837.824,4751.742z" style="stroke:black;fill:#aaaaaa"/></g>
</g>
</svg>