<svg width="9312" height="7024" xmlns="http://www.w3.org/2000/svg">
<g transform="scale(1.0)">
<g id="180623432" order="1" parent_id="" graphic_group_label_id="28" graphic_group_label="Atlas - Adult Mouse" sub_image_id="100960336" transform=" scale(1.0, 1.0)"><path id="180623434" parent_id="180623432" order="0" structure_id="8" d="M4803.77,5782.08
			c77.399,0.635,170.584,57.754,237.955,91.048c84.819,41.923,167.022,88.854,250.403,133.513
			c64.836,34.713,132.707,71.731,189.776,118.689c69.043,56.854,133.211,126.154,191.973,193.93
			c47.05,54.276,106.122,96.629,163.383,140.308c124.25,94.774,264.956,184.327,419.083,219.431
			c156.531,35.648,284.419-20.599,427.163-76.924c184.109-72.646,368.986-170.918,512.334-309.211
			c138.436-133.559,208.743-313.334,291.305-482.854c93.354-191.688,281.095-329.165,415.291-492.583
			c50.074-60.983,109.213-113.552,160.779-173.422c111.771-129.795,196.606-312.955,264.101-469.194
			c74.769-173.063,129.208-354.229,177.078-536.332c117.935-448.67,213.204-951.217,139.929-1412.836
			c-15.893-100.153-25.795-193.609-49.111-293.004c-18.331-78.108-41.197-144.358-75.575-216.521
			c-24.979-52.447-45.772-106.09-81.591-152.676c-75.93-98.756-142.943-206.366-230.917-295.331
			c-176.731-178.719-338.287-369.029-559.545-495.328c-170.406-97.275-345.854-202.707-532.804-263.779
			c-182.875-59.742-374.467-89.958-564.531-116.332c-253.166-35.131-509.29-49.622-762.836-81.988
			c-219.025-27.97-447.628-34.371-668.049-15.799c-233.602,19.689-518.223,122.25-530.984,403.605
			c7.857,171.49,62.97,1374.357,67.791,1479.598L4803.77,5782.08z" style="stroke:black;fill:#bfdae3"/><path id="180623435" parent_id="180623432" order="1" structure_id="688" d="M7545.604,5711.666
			c100.492-143.484,246.694-260.129,356.83-394.241c50.076-60.983,109.213-113.552,160.78-173.422
			c111.771-129.795,196.606-312.955,264.101-469.194c74.769-173.063,129.208-354.229,177.078-536.332
			c117.936-448.67,213.203-951.217,139.928-1412.836c-15.891-100.153-25.793-193.609-49.109-293.004
			c-18.332-78.108-41.198-144.358-75.576-216.521c-24.979-52.447-45.772-106.09-81.591-152.676
			c-75.93-98.756-142.943-206.366-230.917-295.331c-176.732-178.719-338.287-369.029-559.545-495.328
			c-170.406-97.275-345.854-202.707-532.805-263.779c-182.875-59.742-374.467-89.958-564.53-116.332
			c-253.166-35.131-509.29-49.622-762.836-81.988c-219.024-27.97-447.628-34.371-668.049-15.799
			c-233.601,19.689-518.215,122.25-530.983,403.605c7.856,171.49,62.969,1374.357,67.791,1479.598
			c231.152-7.663,443.61-85.09,617.559-237.9c43.596-38.293,82.055-81.433,119.01-126.114
			c35.555-43.007,61.783-104.046,103.456-140.546c77.069-67.496,225.771-71.726,321.513-61.094
			c46.045,5.111,88.049,15.759,134.299,23.684c341.912,58.604,700.312,185.725,975.111,406.972
			c165.415,133.181,276.299,247.64,393.004,428.55c53.529,82.983,83.34,193.553,110.311,284.056
			c72.099,241.948,119.498,527.688,99.605,780.739c-9.496,120.776-20.139,241.551-38.751,361.328
			c-7.196,46.328-20.203,231.155-78.495,251.039c-36.895,93.883-101.249,182.121-171.445,257.949
			c-105.34,113.799-151.24,220.019-185.955,356.57c-44.81,176.242-93.653,335.011,136.566,371.811
			c84.404,13.488,193.361,14.135,250.188,30.236C7475.945,5674.941,7522.427,5688.098,7545.604,5711.666z" style="stroke:black;fill:#b0ffb8"/><path id="180623499" parent_id="180623432" order="2" structure_id="320" d="M6486.477,884.286l-13.313,135.381
			c-87.649-9.078-175.317-13.067-261.679-12.196c-137.795,1.394-266.381-40.169-400.864-63.029
			c-86.408-14.723-174.517-33.787-263.29-50.986l-8.086-100.041l0.195-4.846c83.344,4.271,166.328,11.644,247.953,22.082
			C6019.686,840.372,6254.12,854.984,6486.477,884.286z" style="stroke:black;fill:#1f9d5a"/><path id="180623498" parent_id="180623432" order="3" structure_id="943" d="M6473.163,1019.667
			l-35.203,358.391c-6.522-0.635,0,0,0,0c-38.726-9.733-183.41-45.889-221.83-56.222
			c-240.229-64.635-413.792-161.348-650.947-208.027l-17.853-220.354c88.772,17.199,176.881,36.264,263.289,50.986
			c134.484,22.86,263.07,64.423,400.864,63.029C6297.846,1006.6,6385.514,1010.589,6473.163,1019.667z" style="stroke:black;fill:#1f9d5a"/><path id="180623497" parent_id="180623432" order="4" structure_id="648" d="M6437.96,1378.058l-40.071,408.653
			c-250.707-73.079-566.054-129.854-793.08-183l-39.625-489.901c237.154,46.68,410.717,143.393,650.946,208.027
			c38.42,10.333,76.983,20.158,115.709,29.892C6367.104,1360.538,6402.529,1369.256,6437.96,1378.058z" style="stroke:black;fill:#1f9d5a"/><path id="180623496" parent_id="180623432" order="5" structure_id="844" d="M6397.889,1786.711
			l-37.021,376.989c-152.96-62.046-314.5-105.685-476.774-141.7c-68.836-15.276-127.985-32.082-203.648-45.295
			c-14.293-2.515-29.938-5.384-46.145-7.811l-29.492-365.185C5831.835,1656.858,6147.182,1713.632,6397.889,1786.711z" style="stroke:black;fill:#1f9d5a"/><path id="180623495" parent_id="180623432" order="6" structure_id="882" d="M6360.868,2163.7l-6.991,71.292
			l-0.809,2.373c-132.258-45.23-267.881-78.38-401.03-101.219c-46.317-7.97-88.255-18.642-134.356-23.701
			c-48.787-5.438-111.24-6.996-171.053,1.749l-1.198-7.951l-11.13-137.348c16.207,2.427,31.852,5.296,46.145,7.811
			c75.662,13.213,134.813,30.019,203.647,45.295C6046.368,2058.016,6207.908,2101.654,6360.868,2163.7z" style="stroke:black;fill:#1f9d5a"/><path id="180623504" parent_id="180623432" order="7" structure_id="656" d="M5539.244,793.414l8.086,100.041
			c-150.031-29.071-302.072-52.878-451.091-41.631c-319.478,24.145-364.396,323.352-361.384,589.337l-140.682-116.233
			c-2.676-58.423-4.693-102.447-5.791-126.417c12.793-281.388,297.404-383.915,531.019-403.625
			c138.239-11.671,279.685-13.48,420.038-6.317L5539.244,793.414z" style="stroke:black;fill:#1f9d5a"/><path id="180623503" parent_id="180623432" order="8" structure_id="962" d="M5547.33,893.455
			l17.854,220.354c-17.086-3.387-34.576-6.506-52.387-9.358c-143.654-22.774-402.337-137.021-511.734-0.072
			c-98.195,123.008-75.039,337.198-58.438,508.405l-207.77-171.622c-3.014-265.986,41.906-565.192,361.383-589.337
			C5245.258,840.577,5397.299,864.384,5547.33,893.455z" style="stroke:black;fill:#1f9d5a"/><path id="180623502" parent_id="180623432" order="9" structure_id="767" d="M5565.184,1113.811l39.625,489.9
			c-21.242-4.948-41.815-9.843-61.392-14.784c-104.702-26.311-322.547-106.565-394.794,18.505
			c-25.341,43.944-28.464,99.547-22.413,156.981l-183.585-151.63c-16.602-171.207-39.759-385.396,58.438-508.405
			c109.397-136.948,368.08-22.702,511.734,0.072C5530.607,1107.304,5548.098,1110.422,5565.184,1113.811z" style="stroke:black;fill:#1f9d5a"/><path id="180623501" parent_id="180623432" order="10" structure_id="1021" d="M5604.809,1603.71l29.492,365.184
			c-49.287-7.249-104.375-10.063-145.271,16.581c-17.492,11.394-31.063,26.443-41.937,43.954l-320.883-265.016
			c-6.051-57.435-2.929-113.037,22.412-156.981c72.248-125.071,290.092-44.815,394.795-18.505
			C5562.992,1593.867,5583.564,1598.762,5604.809,1603.71z" style="stroke:black;fill:#1f9d5a"/><path id="180623500" parent_id="180623432" order="11" structure_id="1085" d="M5645.432,2106.242l1.197,7.951
			c-26.842,3.898-53.17,9.941-77.461,18.561l-1.328-3.525l-120.746-99.8c10.873-17.511,24.443-32.561,41.937-43.954
			c40.896-26.643,95.983-23.83,145.271-16.581L5645.432,2106.242z" style="stroke:black;fill:#1f9d5a"/><path id="180623482" parent_id="180623432" order="12" structure_id="558" d="M8667.25,2951.89l-1,0.046
			l-128.52,19.899c1.983-67.728,1.229-135.162-2.491-201.793c-10.54-191.833-79.386-409.352-184.278-605.452l112.524-59.615
			l1.544-0.904c20.826,35.907,36.68,74.295,54.587,112.004c34.417,72.231,57.301,138.485,75.638,216.541
			c23.32,99.426,33.191,192.879,49.039,293.065C8656.129,2800.198,8663.594,2875.748,8667.25,2951.89z" style="stroke:black;fill:#188064"/><path id="180623481" parent_id="180623432" order="13" structure_id="838" d="M8535.238,2770.042
			c3.721,66.632,4.475,134.065,2.491,201.793l-267.398,41.356c-0.733-132.485-6.248-245.571-8.342-273.08
			c-11.753-152.748-74.503-306.412-160.181-443.514l249.15-132.009C8455.853,2360.691,8524.698,2578.208,8535.238,2770.042z" style="stroke:black;fill:#188064"/><path id="180623480" parent_id="180623432" order="14" structure_id="654" d="M8261.989,2740.112
			c2.094,27.509,7.608,140.594,8.342,273.081l-109.312,16.935c-5.338-45.542-12.804-90.151-22.541-133.405
			c-40.444-180.121-92.345-360.887-183.391-522.345l146.721-77.778C8187.486,2433.701,8250.236,2587.364,8261.989,2740.112z" style="stroke:black;fill:#188064"/><path id="180623479" parent_id="180623432" order="15" structure_id="702" d="M8161.021,3030.127
			l-280.232,43.363c-36.818-141.008-100.143-279.885-180.521-394.209c-30.328-43.063-60.459-83.63-90.649-121.861l345.474-183.042
			c91.045,161.458,142.944,342.223,183.391,522.345C8148.217,2939.977,8155.682,2984.586,8161.021,3030.127z" style="stroke:black;fill:#188064"/><path id="180623478" parent_id="180623432" order="16" structure_id="889" d="M7880.788,3073.491
			l-326.438,50.566c-2.313-3.146-4.713-6.373-7.199-9.678c-95.035-126.581-189.946-252.25-293.752-368.172l356.219-188.789
			c30.189,38.231,60.32,78.8,90.649,121.861C7780.646,2793.607,7843.971,2932.482,7880.788,3073.491z" style="stroke:black;fill:#188064"/><path id="180623477" parent_id="180623432" order="17" structure_id="929" d="M7547.148,3114.38
			c2.487,3.305,4.888,6.531,7.199,9.678l-156.432,24.181c-20.016-61.882-44.241-124.654-77.813-176.574
			c-45.787-71.042-90.688-131.784-138.356-187.479l71.649-37.977C7357.203,2862.13,7452.113,2987.799,7547.148,3114.38z" style="stroke:black;fill:#188064"/><path id="180623488" parent_id="180623432" order="18" structure_id="878" d="M8465.028,2104.071l-1.544,0.905
			l-112.524,59.614c-85.833-160.528-195.771-306.525-317.88-412.435c-129.229-112.004-264.072-206.404-404.689-292.117
			l104.396-133.3l0.238-0.261c179.189,123.059,320.875,286.699,474.089,441.64c87.975,88.958,155.036,196.555,230.95,295.323
			C8448.085,2076.492,8456.965,2090.096,8465.028,2104.071z" style="stroke:black;fill:#188064"/><path id="180623487" parent_id="180623432" order="19" structure_id="657" d="M8350.96,2164.59
			l-249.149,132.01c-86.037-137.668-195.071-258.521-298.688-344.844c-112.376-93.678-233.216-179.129-359.413-255.911
			l184.682-235.806c140.617,85.712,275.461,180.113,404.689,292.117C8155.189,1858.064,8265.127,2004.063,8350.96,2164.59z" style="stroke:black;fill:#188064"/><path id="180623486" parent_id="180623432" order="20" structure_id="950" d="M7803.122,1951.755
			c103.616,86.324,212.649,207.176,298.688,344.845l-146.722,77.777c-11.175-20.004-23.083-39.641-35.563-59.001
			c-134.185-207.435-332.543-382.991-547.596-527.925l71.777-91.607C7569.906,1772.626,7690.746,1858.077,7803.122,1951.755z" style="stroke:black;fill:#188064"/><path id="180623485" parent_id="180623432" order="21" structure_id="974" d="M7955.089,2374.377
			l-345.474,183.042c-155.455-196.62-311.877-332.397-492.334-444.89l254.648-325.078
			c215.053,144.934,413.411,320.49,547.596,527.925C7932.006,2334.737,7943.914,2354.374,7955.089,2374.377z" style="stroke:black;fill:#188064"/><path id="180623484" parent_id="180623432" order="22" structure_id="1102" d="M7609.616,2557.42
			l-356.218,188.789c-111.277-124.335-232.719-237.447-375.244-328.41l239.127-305.269
			C7297.738,2225.021,7454.16,2360.8,7609.616,2557.42z" style="stroke:black;fill:#188064"/><path id="180623483" parent_id="180623432" order="23" structure_id="2" d="M7253.398,2746.208l-71.65,37.978
			c-73.753-86.19-154.122-160.235-254.652-241.113c-30.047-24.144-61.045-47.242-92.9-69.051l43.96-56.224
			C7020.68,2508.761,7142.12,2621.873,7253.398,2746.208z" style="stroke:black;fill:#188064"/><path id="180623494" parent_id="180623432" order="24" structure_id="450" d="M7733.023,1326.479l-0.237,0.261
			l-104.396,133.3c-132.217-80.76-269.592-153.944-412.054-227.146c-227.19-116.772-485.342-186.675-743.175-213.226l13.313-135.381
			c21.304,2.61,42.535,5.474,63.77,8.42c190.104,26.317,381.639,56.572,564.516,116.33
			c186.941,61.072,362.403,166.455,532.822,263.729C7677.043,1289.595,7705.471,1307.558,7733.023,1326.479z" style="stroke:black;fill:#188064"/><path id="180623493" parent_id="180623432" order="25" structure_id="854" d="M7628.391,1460.039
			l-184.682,235.806c-214.393-130.537-444.227-235.847-674.055-313.719c-37.188-12.557-207.147-76.159-323.5-87.341l27.008-275.118
			c257.834,26.55,515.984,96.453,743.176,213.226C7358.8,1306.094,7496.174,1379.279,7628.391,1460.039z" style="stroke:black;fill:#188064"/><path id="180623492" parent_id="180623432" order="26" structure_id="577" d="M7443.709,1695.844
			l-71.777,91.607c-124.697-84.107-254.926-157.869-381.53-221.706c-181.157-91.361-367.513-141.452-552.44-187.688l8.194-83.272
			c116.353,11.182,286.313,74.784,323.501,87.341C6999.482,1459.998,7229.316,1565.308,7443.709,1695.844z" style="stroke:black;fill:#188064"/><path id="180623491" parent_id="180623432" order="27" structure_id="625" d="M7371.932,1787.452
			l-254.649,325.078c-151.013-94.16-318.712-172.126-516.612-255.798c-59.189-24.978-128.143-48.254-202.78-70.021l40.071-408.652
			c184.929,46.235,371.283,96.326,552.44,187.688C7117.005,1629.583,7247.232,1703.345,7371.932,1787.452z" style="stroke:black;fill:#188064"/><path id="180623490" parent_id="180623432" order="28" structure_id="945" d="M7117.281,2112.53
			l-239.127,305.269c-29.986-19.226-60.928-37.406-92.902-54.54c-130.549-69.827-266.24-133.582-402.712-190.711
			c-7.228-3.005-14.369-6.014-21.672-8.848l37.021-376.989c74.639,21.768,143.59,45.044,202.779,70.021
			C6798.568,1940.403,6966.27,2018.37,7117.281,2112.53z" style="stroke:black;fill:#188064"/><path id="180623489" parent_id="180623432" order="29" structure_id="1026" d="M6878.154,2417.799
			l-43.961,56.223c-146.315-100.879-310.922-178.653-481.125-236.656l0.809-2.373l6.991-71.292
			c7.304,2.834,14.444,5.843,21.672,8.848c136.472,57.13,272.163,120.884,402.712,190.711
			C6817.229,2380.393,6848.168,2398.573,6878.154,2417.799z" style="stroke:black;fill:#188064"/><path id="180623476" parent_id="180623432" order="30" structure_id="873" d="M8667.25,2951.89
			c7.406,154.365-0.664,311.356-19.18,467.826l-159.599-6.699c27.972-144.894,45.085-293.793,49.258-441.182l128.521-19.899
			L8667.25,2951.89z" style="stroke:black;fill:#188064"/><path id="180623475" parent_id="180623432" order="31" structure_id="806" d="M8270.331,3013.193
			l267.398-41.357c-4.173,147.389-21.286,296.289-49.258,441.182l-238.81-9.99
			C8266.87,3298.073,8271.075,3145.929,8270.331,3013.193z" style="stroke:black;fill:#188064"/><path id="180623474" parent_id="180623432" order="32" structure_id="1035" d="M8161.021,3030.127l109.311-16.936
			c0.744,132.736-3.461,284.881-20.669,389.834l-82.142-3.492C8175.553,3274.486,8175.229,3149.069,8161.021,3030.127z" style="stroke:black;fill:#188064"/><path id="180623473" parent_id="180623432" order="33" structure_id="1090" d="M8161.021,3030.127
			c14.207,118.941,14.531,244.357,6.5,369.407l-237.642-9.961c-6.597-60.245-14.47-122.851-21.735-177.728
			c-6.021-45.844-15.316-92.204-27.355-138.354L8161.021,3030.127z" style="stroke:black;fill:#188064"/><path id="180623472" parent_id="180623432" order="34" structure_id="862" d="M7929.88,3389.573l-251.847-10.563
			c-13.188-87.631-46.717-151.396-123.686-254.952l326.439-50.567c12.039,46.151,21.334,92.512,27.354,138.354
			C7915.411,3266.723,7923.283,3329.328,7929.88,3389.573z" style="stroke:black;fill:#188064"/><path id="180623471" parent_id="180623432" order="35" structure_id="893" d="M7678.034,3379.011l-201.877-8.431
			l-13.438,3.368c-10.021-40.322-20.84-79.858-32.273-118.281c-10.057-33.815-20.575-70.446-32.527-107.428l156.433-24.181
			C7631.316,3227.615,7664.846,3291.38,7678.034,3379.011z" style="stroke:black;fill:#188064"/><path id="180623470" parent_id="180623432" order="36" structure_id="36" d="M8488.472,3413.018l159.599,6.699
			c-13.008,111.098-31.363,221.942-53.205,331.361l-3.201-0.688l-183.734-22.022c11.125-33.869,21.489-67.953,30.919-102.412
			C8457.932,3556.444,8474.6,3485.209,8488.472,3413.018z" style="stroke:black;fill:#009c75"/><path id="180623469" parent_id="180623432" order="37" structure_id="180" d="M8249.662,3403.025
			l238.81,9.991c-13.872,72.191-30.54,143.427-49.623,212.938c-9.43,34.459-19.794,68.543-30.919,102.412l-272.963-32.778
			c8.234-55.087,15.583-111.301,21.568-168.119l20.531,2.146C8212.852,3542.487,8235.556,3488.322,8249.662,3403.025z" style="stroke:black;fill:#009c75"/><path id="180623468" parent_id="180623432" order="38" structure_id="148" d="M8167.521,3399.534l82.141,3.491
			c-14.106,85.295-36.811,139.461-72.596,126.59l-20.53-2.146C8161.012,3484.982,8164.811,3442.275,8167.521,3399.534z" style="stroke:black;fill:#009c75"/><path id="180623467" parent_id="180623432" order="39" structure_id="187" d="M7929.88,3389.573l237.642,9.961
			c-2.711,42.741-6.51,85.448-10.984,127.936c-5.986,56.818-13.335,113.032-21.568,168.119l-189.521-22.675
			c1.908-49.376-0.202-99.068-3.806-154.029C7939.029,3480.059,7934.904,3435.545,7929.88,3389.573z" style="stroke:black;fill:#009c75"/><path id="180623466" parent_id="180623432" order="40" structure_id="638" d="M7490.95,3500.504
			c42.101,59.702,194.681,87.989,194.767,13.427c0.063-53.21-1.832-96.407-7.683-134.919l251.847,10.563
			c5.024,45.972,9.149,90.484,11.763,129.312c3.603,54.961,5.713,104.653,3.806,154.029l-259.461-31.146l-0.48,0.438
			c-31.756-35.99-71.086-62.544-117.575-74.258c-22.949-5.787-48.009-10.312-56.366-1.588c-3.184,3.314-5.24,7.579-6.427,12.638
			C7500.848,3552.675,7496.146,3526.536,7490.95,3500.504z" style="stroke:black;fill:#009c75"/><path id="180623465" parent_id="180623432" order="41" structure_id="662" d="M7678.034,3379.011
			c5.851,38.513,7.746,81.709,7.683,134.919c-0.086,74.563-152.666,46.275-194.767-13.427
			c-8.467-42.812-17.913-85.163-28.231-126.556l13.438-3.368L7678.034,3379.011z" style="stroke:black;fill:#009c75"/><path id="180623509" parent_id="180623432" order="42" structure_id="935" d="M4763.387,1889.121
			l-140.104-50.875l-5.576,0.256c-9.108-198.821-17.817-388.904-23.53-513.573l140.682,116.233
			c0.577,47.177,2.609,93.37,4.934,136.797C4745.943,1694.101,4754.029,1790.473,4763.387,1889.121z" style="stroke:black;fill:#40a666"/><path id="180623508" parent_id="180623432" order="43" structure_id="211" d="M4968.287,1963.548
			l-204.9-74.427c-9.356-98.648-17.441-195.021-23.598-311.162c-2.323-43.427-4.355-89.62-4.934-136.797l207.77,171.622
			c4.047,41.013,7.646,79.545,9.131,113.754C4955.178,1804.858,4961.555,1883.961,4968.287,1963.548z" style="stroke:black;fill:#40a666"/><path id="180623507" parent_id="180623432" order="44" structure_id="1015" d="M5177.092,2039.465
			l-208.805-75.917c-6.732-79.587-13.109-158.69-16.531-237.011c-1.482-34.208-5.084-72.741-9.131-113.754l183.585,151.63
			c7.501,72.713,29.644,148.259,39.646,206.346C5169.732,1993.516,5173.618,2016.439,5177.092,2039.465z" style="stroke:black;fill:#40a666"/><path id="180623506" parent_id="180623432" order="45" structure_id="919" d="M5126.21,1764.413
			l320.883,265.016c-17.019,27.218-27.595,60.311-36.351,94.905l-233.65-84.869c-3.475-23.025-7.359-45.949-11.236-68.706
			C5155.854,1912.672,5133.711,1837.126,5126.21,1764.413z" style="stroke:black;fill:#40a666"/><path id="180623505" parent_id="180623432" order="46" structure_id="927" d="M5567.839,2129.229l1.329,3.525
			c-21.666,7.665-41.646,17.503-59.016,29.809l-2.047-2.825l-97.363-35.403c8.757-34.595,19.333-67.688,36.352-94.905
			L5567.839,2129.229z" style="stroke:black;fill:#40a666"/><path id="180623514" parent_id="180623432" order="47" structure_id="588" d="M4895.689,2627.056
			c4.422-65.503-71.963-92.61-100.315-187.22c-23.722-79.059-0.875-221.132-8.276-302.607
			c-8.353-91.271-16.396-170.382-23.711-248.107l-140.104-50.875l-5.576,0.256c17.163,374.589,35.759,780.471,38.467,839.561
			c84.022-2.767,165.536-14.758,243.696-36.27L4895.689,2627.056z M4820.645,2658.266c-43.467,8.748-92.424,15.994-136.028,18.075
			c-4.494,0.206-15.162,0.361-15.162,0.361s12.371-8.489,18.226-11.76c18.201-10.509,43.92-31.619,72.801-49.288
			c37.724-23.079,73.408-43.313,95.918-27.079C4890.893,2613.348,4856.512,2651.118,4820.645,2658.266z" style="stroke:black;fill:#40a666"/><path id="180623513" parent_id="180623432" order="48" structure_id="296" d="M4895.689,2627.056
			c4.422-65.503-71.963-92.61-100.315-187.22c-23.722-79.059-0.875-221.132-8.276-302.607
			c-8.353-91.271-16.396-170.382-23.711-248.107l204.9,74.427c18.059,213.923,38.591,430.902,9.863,643.049l3.237,8.775
			c-26.728,10.064-53.931,18.816-81.521,26.419L4895.689,2627.056z" style="stroke:black;fill:#40a666"/><path id="180623512" parent_id="180623432" order="49" structure_id="772" d="M5187.508,2137.564
			c7.047,135.615,6.359,297.189-78.613,410.252l3.727,6.668c-42.273,23.871-86.047,44.141-131.23,60.889l-3.237-8.775
			c28.728-212.146,8.192-429.126-9.864-643.049l208.806,75.917C5181.923,2072.104,5185.843,2104.865,5187.508,2137.564z" style="stroke:black;fill:#40a666"/><path id="180623511" parent_id="180623432" order="50" structure_id="810" d="M5177.092,2039.465l233.65,84.869
			c-14.112,56.023-23.387,115.744-47.037,160.195c-25.805,48.386-80.186,130.188-119.639,179.199l0.708,0.886
			c-42.051,34.202-86.217,64.08-132.155,89.87l-3.726-6.668c84.974-113.063,85.66-274.637,78.612-410.252
			C5185.843,2104.865,5181.923,2072.104,5177.092,2039.465z" style="stroke:black;fill:#40a666"/><path id="180623510" parent_id="180623432" order="51" structure_id="819" d="M5410.742,2124.334l97.363,35.403
			l2.047,2.825c-4.845,3.475-9.516,7.107-13.924,10.979c-41.693,36.521-67.922,97.52-103.481,140.514
			c-36.979,44.729-75.453,87.856-118.983,126.129c-9.541,8.36-19.174,16.559-28.987,24.43l-0.708-0.885
			c39.453-49.011,93.834-130.813,119.639-179.199C5387.355,2240.078,5396.63,2180.357,5410.742,2124.334z" style="stroke:black;fill:#40a666"/><path id="180623464" parent_id="180623432" order="52" structure_id="996" d="M8591.664,3750.39l3.201,0.688
			c-24.669,124.143-53.761,246.402-84.606,364.99l-1.94-0.494l-237.469-44.414c9.325-20.358,18.567-40.715,27.556-61.143
			c40.642-92.266,78.135-185.889,109.524-281.65L8591.664,3750.39z" style="stroke:black;fill:#219866"/><path id="180623463" parent_id="180623432" order="53" structure_id="328" d="M8134.967,3695.589
			l272.963,32.778c-31.39,95.762-68.883,189.385-109.524,281.65c-8.988,20.428-18.23,40.782-27.556,61.143l-189.686-35.427
			c9.399-42.38,7.463-73.732,19.055-135.646C8112.484,3834.727,8124.354,3766.129,8134.967,3695.589z" style="stroke:black;fill:#219866"/><path id="180623462" parent_id="180623432" order="54" structure_id="1101" d="M7945.447,3672.914l189.52,22.675
			c-10.611,70.54-22.48,139.138-34.748,204.5c-11.592,61.912-9.654,93.265-19.055,135.646l-200.795-37.587
			c15.506-52.917,25.984-104.521,37.613-147.42C7935.24,3786.887,7943.066,3730.15,7945.447,3672.914z" style="stroke:black;fill:#219866"/><path id="180623461" parent_id="180623432" order="55" structure_id="783" d="M7685.986,3641.77l259.461,31.146
			c-2.381,57.237-10.207,113.973-27.465,177.813c-11.629,42.898-22.106,94.502-37.612,147.42l-103.38-19.282
			c15.402-117.046-17.16-252.577-91.484-336.657L7685.986,3641.77z" style="stroke:black;fill:#219866"/><path id="180623460" parent_id="180623432" order="56" structure_id="704" d="M8510.259,4116.068
			c-1.99,7.514-3.902,14.938-5.896,22.369c-37.71,143.506-79.452,286.36-132.14,425.131
			c21.824-71.555,11.141-126.357-101.546-155.806c-45.577-11.839-91.583-25.744-137.901-39.217l0.646-2.28
			c0.62-22.881,26.774-56.354,36.334-77.059c14.417-31.184,28.838-62.285,43.421-93.477c19.365-41.504,38.734-82.922,57.675-124.571
			l237.469,44.413L8510.259,4116.068z" style="stroke:black;fill:#219866"/><path id="180623459" parent_id="180623432" order="57" structure_id="694" d="M8081.164,4035.732
			l189.686,35.428c-18.94,41.648-38.31,83.068-57.675,124.57c-14.583,31.191-29.004,62.293-43.421,93.478
			c-9.561,20.704-35.714,54.179-36.334,77.058l-0.646,2.281c-73.203-21.416-147.213-42.21-221.549-53.732l1.223-7.896
			c18.249-11.261,98.484-94.833,133.854-172.931C8065.682,4090.985,8075.582,4061.342,8081.164,4035.732z" style="stroke:black;fill:#219866"/><path id="180623458" parent_id="180623432" order="58" structure_id="800" d="M7840.225,4306.893
			c-9.451-0.567-23.267-1.771-34.725,1.174l-0.465-10.152L7672,4277.57l1.1-6.973c124.041-53.973,175.967-165.686,207.271-272.452
			l200.794,37.587c-5.582,25.608-15.482,55.252-34.861,98.256c-35.369,78.098-115.605,161.67-133.854,172.931l-1.224,7.896
			C7887.622,4311.143,7863.895,4308.393,7840.225,4306.893z" style="stroke:black;fill:#219866"/><path id="180623457" parent_id="180623432" order="59" structure_id="675" d="M7673.1,4270.6l-1.1,6.972
			l-34.938-5.321l-0.515,1.525c-42.216-14.912-88.003-20.404-127.108-12.941c1.283-12.066,2.646-24.14,3.847-36.203
			c4.856-1.391,180.585-55.812,215.997-109.308c25.354-38.19,41.033-85.529,47.707-136.458l103.38,19.282
			C7849.066,4104.913,7797.141,4216.627,7673.1,4270.6z" style="stroke:black;fill:#219866"/><path id="180623436" parent_id="180623432" order="60" structure_id="698" d="M8371.891,4469.876
			c-0.843-1.582-1.75-3.144-2.717-4.688c-0.141-0.226-0.287-0.449-0.432-0.672c-0.289-0.453-0.584-0.902-0.885-1.353
			c-0.229-0.34-0.457-0.681-0.691-1.019c-0.199-0.287-0.404-0.572-0.607-0.857c-1.082-1.521-2.229-3.021-3.461-4.525
			c-16.641-20.248-45.815-36.772-92.453-48.959c-41.385-10.813-83.146-23.211-125.198-35.557c-4.224-1.234-8.444-2.471-12.672-3.7
			c-1.54-0.45-3.081-0.897-4.622-1.349c-30.33-8.856-60.794-17.576-91.363-25.543c-0.58-0.149-1.16-0.299-1.74-0.449
			c-3.709-0.963-7.42-1.914-11.131-2.854c-1.392-0.352-2.781-0.698-4.174-1.047c-2.639-0.661-5.278-1.313-7.918-1.961
			c-2.312-0.566-4.623-1.128-6.935-1.684c-1.696-0.408-3.396-0.812-5.093-1.213c-3.146-0.744-6.292-1.48-9.439-2.203
			c-0.766-0.176-1.53-0.35-2.297-0.523c-10.646-2.426-21.305-4.725-31.972-6.866c-1.799-0.36-3.599-0.713-5.397-1.065
			c-0.776-0.151-1.555-0.306-2.33-0.455c-2.406-0.467-4.813-0.92-7.222-1.371c-33.578-6.263-67.244-10.875-100.955-13.043
			c-7.89-0.506-18.83-1.396-28.87,0.018c-0.325,0.046-0.65,0.092-0.977,0.145c-0.301,0.047-0.6,0.098-0.897,0.148
			c-0.461,0.08-0.919,0.165-1.374,0.257c-0.188,0.037-0.378,0.074-0.564,0.112c-0.893,0.188-1.77,0.398-2.633,0.633
			c-0.348,0.095-0.693,0.188-1.035,0.289c-0.095,0.027-0.188,0.058-0.281,0.086c-4.914,1.502-9.275,3.854-12.502,7.457
			c-0.105,0.119-0.209,0.242-0.313,0.364c-0.188,0.22-0.367,0.444-0.546,0.672c-0.165,0.213-0.331,0.424-0.487,0.646
			c-0.037,0.049-0.07,0.104-0.106,0.153c-0.212,0.304-0.421,0.61-0.618,0.931c-6.074,9.687-2.852,21.961,1.837,33.236
			c2.286,5.488,4.916,10.744,6.987,15.346c0.426,0.944,0.828,1.862,1.199,2.748c14.998,35.854,22.399,73.946,22.317,112.266
			c-0.043,22.466-2.647,45.006-7.812,67.208c-4.674,20.091-11.041,38.579-18.894,55.651
			c-42.373,92.316-127.97,143.068-224.435,182.26c-16.732,6.771-33.967,12.508-51.488,17.596
			c-44.32,12.895-90.508,21.602-135.225,32.294c-7.321,1.756-14.604,3.562-21.832,5.451c-8.25,2.144-16.506,4.515-24.683,7.168
			c-0.082,0.026-0.164,0.054-0.246,0.079c-0.076,0.025-0.153,0.052-0.231,0.077c-16.026,5.233-31.74,11.578-46.492,19.494
			c-18.064,9.701-34.672,21.767-48.601,37.069c-32.075,35.125-60.067,72.469-84.371,111.771
			c-29.522,47.771-53.608,98.467-72.961,151.545c-11.047,30.313-20.565,61.41-28.655,93.227
			c-44.799,176.271-93.654,334.965,136.545,371.789c6.063,0.967,12.258,1.867,18.547,2.715c35.799,4.817,74.772,7.838,111.693,10.98
			c46.896,3.992,90.475,8.188,120.004,16.537c33.796,9.626,80.259,22.756,103.439,46.291c6.646-9.486,13.492-18.857,20.52-28.116
			c51.509-66.847,115.523-135.733,180.188-198.729c14.834-14.47,29.25-30.164,44.229-44.824
			c14.051-13.752,28.59-26.734,39.797-42.824c13.307-19.105,30.016-30.767,44.793-47.612c9.3-10.603,18.408-21.294,27.282-32.101
			c50.075-60.982,109.213-113.552,160.78-173.422c111.771-129.795,196.605-312.946,264.101-469.193
			C8363.1,4591.958,8399.223,4521.001,8371.891,4469.876z" style="stroke:black;fill:#9ad2bd"/><path id="180623456" parent_id="180623432" order="61" structure_id="276" d="M8371.892,4469.877
			c14.028,26.326,11.243,57.915,0.331,93.691c-10.134,33.658-27.602,71.069-44.943,111.229
			c17.342-40.158,34.81-77.57,44.943-111.229C8383.135,4527.792,8385.92,4496.203,8371.892,4469.877
			C8371.892,4469.876,8371.891,4469.876,8371.892,4469.877c-0.844-1.583-1.751-3.145-2.718-4.688
			c-0.141-0.227-0.287-0.449-0.432-0.674c-0.289-0.451-0.584-0.901-0.885-1.352c-0.229-0.34-0.457-0.68-0.691-1.02
			c-0.199-0.287-0.404-0.571-0.607-0.856c-1.082-1.521-2.229-3.022-3.443-4.504c-0.006-0.007-0.012-0.015-0.018-0.021
			c-16.641-20.25-45.815-36.773-92.453-48.959c-41.385-10.813-83.146-23.211-125.198-35.558c-4.224-1.235-8.444-2.472-12.672-3.7
			c-1.54-0.45-3.081-0.898-4.622-1.348c-5.611,29.361-6.561,60.607-10.335,89.677c-9.313,71.707-9.416,213.469-36.737,275.64
			c-25.781,58.582-88.766,83.76-126.055,132.873c-31.93,42.059-60.977,91.551-81.557,140.031
			c-28.402,66.908-60.637,140.709-125.693,179.131c-46.425,27.418-87.911,50.949-126.379,74.446
			c-87.357,53.374-163.145,116.099-228.928,194.714c-44.416,53.096-73.396,125.602-70.285,195.092
			c46.896,3.992,90.475,8.188,120.004,16.537c33.797,9.626,80.26,22.756,103.44,46.291c6.646-9.486,13.491-18.857,20.513-28.122
			l0.006,0.006c-70.176-74.614-57.568-168.908,14.518-235.291c56.391-51.937,160.283-123.69,241.916-113.873
			c13.963,1.681,21.766,6.22,25.167,12.554l15.666,15.832c3.967-4.435,7.854-8.783,11.739-13.211
			c9.299-10.603,18.408-21.295,27.281-32.101c50.076-60.983,109.213-113.552,160.78-173.422
			c111.771-129.795,196.606-312.946,264.101-469.194C8363.1,4591.958,8399.223,4521.001,8371.892,4469.877z" style="stroke:black;fill:#6acbba"/><path id="180623455" parent_id="180623432" order="62" structure_id="284" d="M7948.461,4376.546
			c-2.936,29.415-4.048,59.937-9.975,88.933c-11.526,56.398-20.563,115.061-36.391,170.726
			c-15.32,53.892-31.573,122.301-67.4,166.565c-25.605,31.633-65.867,54.285-97.795,79.373
			c-78.694,61.834-162.299,105.268-235.838,174.346c-66.026,62.023-144.5,132.784-204.179,199.977
			c-40.067,45.263-57.302,112.74-71.126,170c-17.178,71.151-15.421,138.845-15.27,211.357c35.799,4.818,74.773,7.838,111.694,10.98
			c-3.112-69.49,25.869-141.996,70.284-195.092c65.784-78.615,141.57-141.34,228.928-194.713
			c38.469-23.498,79.955-47.029,126.379-74.446c65.059-38.423,97.291-112.224,125.694-179.131
			c20.58-48.481,49.626-97.974,81.556-140.032c37.289-49.113,100.272-74.291,126.055-132.873
			c27.322-62.17,27.425-203.932,36.738-275.639c3.774-29.068,4.724-60.314,10.334-89.678c-30.33-8.857-60.793-17.576-91.362-25.543
			c-0.58-0.15-1.16-0.3-1.741-0.45c-3.708-0.963-7.419-1.913-11.131-2.853c-1.391-0.353-2.781-0.699-4.173-1.047
			c-2.64-0.662-5.278-1.313-7.919-1.961c-2.311-0.566-4.622-1.129-6.934-1.685c-1.697-0.408-3.396-0.812-5.094-1.213
			c-3.146-0.744-6.291-1.479-9.438-2.203c-0.767-0.176-1.53-0.349-2.298-0.522c-10.646-2.426-21.305-4.726-31.971-6.867
			C7953.979,4341.15,7950.043,4360.702,7948.461,4376.546z" style="stroke:black;fill:#6acbba"/><path id="180623454" parent_id="180623432" order="63" structure_id="291" d="M7191.943,5635.105
			c6.063,0.969,12.258,1.869,18.547,2.715c-0.152-72.514-1.91-140.205,15.269-211.356c13.824-57.26,31.058-124.737,71.126-170.001
			c59.68-67.191,138.15-137.952,204.178-199.977c73.541-69.078,157.145-112.512,235.838-174.346
			c31.93-25.088,72.189-47.738,97.797-79.373c35.826-44.266,52.078-112.675,67.399-166.564
			c15.826-55.666,24.862-114.326,36.392-170.727c5.926-28.995,7.037-59.518,9.974-88.932c1.582-15.845,5.519-35.396,7.63-53.689
			c-1.799-0.361-3.6-0.713-5.398-1.064c-0.775-0.152-1.554-0.307-2.33-0.457c-2.405-0.467-4.813-0.918-7.221-1.369
			c-33.578-6.264-67.244-10.877-100.955-13.045c-7.891-0.504-18.83-1.396-28.87,0.019c-0.325,0.046-0.651,0.092-0.976,0.144
			c-0.301,0.047-0.601,0.099-0.898,0.149c-0.461,0.08-0.919,0.165-1.374,0.257c-0.188,0.037-0.378,0.074-0.565,0.113
			c-0.892,0.188-1.769,0.397-2.633,0.633c-0.347,0.094-0.692,0.188-1.033,0.289c-0.096,0.026-0.188,0.057-0.283,0.084
			c-4.914,1.502-9.274,3.855-12.5,7.459c-0.106,0.119-0.211,0.242-0.313,0.363c-0.187,0.219-0.367,0.443-0.546,0.672
			c-0.165,0.213-0.331,0.424-0.488,0.645c-0.037,0.051-0.069,0.104-0.105,0.154c-0.212,0.305-0.421,0.611-0.618,0.93
			c-6.074,9.688-2.853,21.961,1.837,33.237c2.286,5.489,4.916,10.744,6.986,15.347c0.426,0.943,0.83,1.861,1.201,2.748
			c14.998,35.854,22.398,73.945,22.316,112.265c-0.043,22.466-2.648,45.006-7.813,67.208c-4.674,20.091-11.039,38.579-18.893,55.652
			c-42.373,92.315-127.971,143.067-224.434,182.258c-16.733,6.772-33.967,12.508-51.489,17.597
			c-44.319,12.894-90.508,21.601-135.226,32.294c-7.32,1.756-14.604,3.561-21.83,5.451c-8.25,2.145-16.508,4.514-24.684,7.168
			c-0.082,0.027-0.164,0.053-0.246,0.079c-0.076,0.024-0.154,0.052-0.23,0.077c-16.027,5.234-31.742,11.578-46.494,19.494
			c-18.063,9.701-34.67,21.766-48.6,37.07c-32.075,35.125-60.066,72.467-84.371,111.771
			c-29.523,47.772-53.607,98.467-72.961,151.545c-11.047,30.313-20.566,61.41-28.656,93.228
			C7010.602,5439.59,6961.744,5598.283,7191.943,5635.105z" style="stroke:black;fill:#6acbba"/><path id="180623453" parent_id="180623432" order="64" structure_id="19" d="M4856.396,2588.575
			c-22.511-16.232-58.194,4-95.918,27.079c-28.881,17.669-54.601,38.779-72.801,49.288c-5.854,3.271-18.226,11.76-18.226,11.76
			s10.668-0.155,15.162-0.361c43.604-2.082,92.562-9.327,136.028-18.075C4856.512,2651.118,4890.893,2613.348,4856.396,2588.575z" style="stroke:black;fill:#7ed04b"/><path id="180623452" parent_id="180623432" order="65" structure_id="583" d="M7776.99,3978.864
			c-6.674,50.929-22.354,98.267-47.707,136.458c-35.412,53.496-211.141,107.916-215.997,109.307
			c6.556-62.6,11.769-125.387,16.731-188.162c2.066-25.865,3.371-52.028,3.996-78.411c0.067-0.337,0.058-0.586,0.041-0.919
			c3.61-90.486-0.795-183.022-13.078-272.697c-0.734-5.137-1.648-10.517-2.732-15.971c-0.012-0.25-0.102-0.412-0.113-0.662
			c-3.694-29.688-8.057-59.344-12.992-88.808c1.187-5.06,3.242-9.322,6.426-12.638c8.357-8.724,33.418-4.199,56.367,1.588
			c46.488,11.714,85.818,38.268,117.574,74.258C7759.83,3726.287,7792.395,3861.818,7776.99,3978.864z" style="stroke:black;fill:#8ada87"/><path id="180623451" parent_id="180623432" order="66" structure_id="952" d="M7734.299,4334.014
			c45.811,47.855,59.368,119.875,52.461,183.908c-13.697,128.811-124.85,209.295-241.494,246.33
			c-52.859,16.685-107.229,27.766-161.742,37.519c-22.416,4.028-39.552,6.815-62.158,8.519
			c14.396-18.924,24.473-31.979,36.418-53.375c10.714-19.172,52.383-105.396,52.383-105.396s6.509-3.551,12.723-8.089
			c0.973-0.628,1.854-1.419,2.738-2.127c2.096-1.597,4.018-3.353,5.441-5.003c0.553-0.691,1.104-1.385,1.572-2.073
			c1.104-1.385,2.289-2.856,3.469-4.412c10.986-15.015,19.653-37.013,26.608-61.767c0.144-0.508,0.287-1.015,0.431-1.521
			c8.631-28.251,13.879-57.514,17.877-86.721c9.992-73.181,22.524-145.478,28.414-218.972c39.105-7.463,84.894-1.972,127.108,12.94
			C7674.439,4287.133,7709.512,4308.127,7734.299,4334.014z" style="stroke:black;fill:#a0ee9d"/><path id="180623439" parent_id="180623432" order="67" structure_id="672" d="M5556.381,4167.195
			c77.986-3.279,177.841,92.688,228.587,140.959c87.922,83.619,164.308,156.555,247.75,234.75
			c107.472,100.711,227.19,225.887,342.469,315.119c138.854,107.48,279.994,174.344,449.505,224.047
			c36.727,10.77,143.488,26.875,212.984,37.496c41.996,6.416,76.008-100.777,115.453-149.847
			c104.537-130.021,224.396-244.394,274.549-408.026c10.985-66.451,13.627-56.596,25.217-128.91
			c36.1-225.117,40.905-474.19,30.809-701.543c-5.128-115.463-25.882-234.177-65.732-343.043
			c-37.074-101.278-61.992-208.514-120.592-300.741c-40.267-63.366-94.758-127.809-142.158-186.218
			c-112.849-139.064-269.168-240.213-418.27-335.896c-165.712-106.344-370.768-159.733-567.032-156.358
			c-48.463,0.832-95.813,15.736-144.414,20.902c-55.457,5.896-110.54,15.907-164.327,30.688
			c-47.368,13.028-93.493,29.707-138.264,49.474c19.443,44.996-97.264,69.439-120.078,84.451
			c-101.194,66.564-165.598,160.037-194.666,277.08c-11.935,48.033-24.856,94.832-30.235,144.257
			c-5.576,51.196-0.845,102.108,2.69,153.218c6.117,88.354,44.908,169.83,61.463,256.103c7.369,38.386,7.612,77.405,12.703,115.84
			c4.674,35.305,18.019,68.208,22.83,104.155c12.021,89.624,53.803,170.438,66.277,259.943
			C5553.439,3973.513,5553.697,4135.137,5556.381,4167.195z" style="stroke:black;fill:#98d6f9"/><path id="180623440" parent_id="180623432" order="68" structure_id="56" d="M5558.623,4200.813
			c97.279-4.188,193.42,125.021,255.502,182.537c89.031,82.465,171.518,159.14,261.229,240.996
			c123.848,112.988,261.064,274.482,414.364,346.942c148.646,70.224,299.567,146.079,464.004,170.203
			c37.606,5.517,68.597-1.513,82.541,44.024c9.853,32.227-7.681,73.596-18.494,103.519c-29.56,81.845-20.798,163.819-36.047,247.308
			c-14.079,77.057-63.86,116.301-118.61,141.656c-73.713,34.139-160.291,34.939-238.187,53.837
			c-71.222,17.272-158.01,60.095-213.062,108.617c-55.377,48.804-159.5,200.034-230.078,135.642
			c-25.151-22.946-21.728-61.687-25.112-92.438c-6.924-62.742-54.853-121.076-100.75-161.192
			c-37.198-32.521-106.453-48.22-131.937-89.808c-21.563-35.196-43.021-75.353-39.125-116.604
			c4.521-47.867,33.896-111.977,7.082-159.09c-24.692-43.231-117.785-65.297-160.846-75.305
			c-66.593-15.469-124.699-21.701-173.785-72.023c-114.27-117.158-205.938-281.731-267.896-431.822
			c-42.383-102.677-67.848-206.559-44.457-312.421c38.871-175.894,136.828-229.769,275.461-327.892
			c-8.651,87.957,6.217,180.023,25.459,266.514c2.655,11.941,13.267,87.693,30.981,86.777c9.712-0.502,13.563-19.199,14.171-26.308
			c1.402-16.61-5.223-29.899-6.695-45.715c-1.898-20.243-1.739-40.615-4.069-60.897c-5.417-47.15-14.049-94.621-20.142-141.97
			C5559.992,4214.798,5558.818,4200.805,5558.623,4200.813z" style="stroke:black;fill:#80cdf8"/><path id="180623449" parent_id="180623432" order="69" structure_id="481" d="M6640.536,6046.48
			c-6.522-3.375-13.728-6.047-21.665-7.854c-52.195-11.892-82.604,22.034-93.479,64.983c-8.183,32.308-5.315,69.72,7.666,96.588
			c21.319,44.146,68.604,67.939,110.781,35.481C6701.081,6191.613,6707.535,6081.154,6640.536,6046.48z" style="stroke:black;fill:#80cdf8"/><path id="180623450" parent_id="180623432" order="70" structure_id="481" d="M5980.378,6160.928
			c-18.812,34.19-3.147,121.227,53.235,106.816c42.227-10.793,49.567-77.083,35.188-110.166
			C6048.813,6111.628,6000.902,6123.622,5980.378,6160.928z" style="stroke:black;fill:#80cdf8"/><path id="180623448" parent_id="180623432" order="71" structure_id="458" d="M7350.971,5670.641
			c-2.871,73.461-22.795,148.386-42.237,217.328c-31.208,110.633-86.217,214.229-174.517,289.899
			c-42.26,36.214-84.842,75.135-130.299,107.14c-51.129,35.987-101.078,56.967-157.629,81.375
			c-24.619,10.623-48.154,30.205-65.351,50.762c-15.632,18.686-14.392,50.809-36.677,59.047
			c-22.047,8.15-56.449,9.575-80.572,14.348c-64.336,12.727-124.092,33.771-186.137,52.143
			c-33.199,9.83-66.973,26.382-100.174,34.258c-32.824,7.786-75.395-6.469-108.307-11.553
			c-58.229-8.996-116.435-20.763-171.813-41.224c-48.747-18.01-94.008-51.336-136.574-81.703
			c-28.381-20.248-56.157-42.688-82.295-65.765c-49.948-44.095-97.22-89.264-138.517-141.967
			c-26.935-34.379-51.026-84.998-63.367-130.947c-1.107,0.466-2.148,0.883-3.109,1.236c-65.063,24.035-87.895,90.457-50.434,151.862
			c13.099,21.476,32.23,40.136,50.914,62.38c47.049,54.275,106.121,96.629,163.383,140.307
			c124.25,94.775,264.955,184.328,419.082,219.432c156.531,35.648,284.42-20.6,427.164-76.925
			c184.109-72.646,368.986-170.918,512.334-309.21c138.435-133.559,208.742-313.334,291.304-482.848
			c6.733-13.817,36.976-67.498,45.038-78.578C7502.613,5711.217,7460.131,5684.355,7350.971,5670.641z" style="stroke:black;fill:#80cdf8"/><path id="180623447" parent_id="180623432" order="72" structure_id="465" d="M5878.391,6376.695
			c26.138,23.074,53.914,45.516,82.295,65.764c42.565,30.367,87.826,63.693,136.574,81.703
			c55.379,20.461,113.586,32.229,171.813,41.223c32.911,5.084,75.481,19.34,108.306,11.554
			c33.201-7.876,66.976-24.429,100.174-34.258c62.045-18.372,121.801-39.416,186.138-52.144
			c24.123-4.771,58.524-6.195,80.571-14.347c22.287-8.237,21.045-40.36,36.678-59.047c17.194-20.556,40.73-40.138,65.351-50.761
			c56.55-24.408,106.499-45.389,157.628-81.375c45.457-32.006,88.04-70.926,130.3-107.141
			c88.299-75.67,143.308-179.268,174.517-289.898c19.441-68.943,39.367-143.869,42.236-217.33
			c-27.042-3.397-58.18-5.987-94.225-7.472c0.082,15.661-0.436,31.252-4.158,45.479c-22.896,87.53-37.441,173.545-95.383,247.094
			c-40.26,51.104-88.881,94.41-138.898,135.705c-41.552,34.303-80.646,75.063-126.521,103.631
			c-37.239,23.188-75.508,50.408-115.401,68.656c-35.342,16.166-72.269,43.082-106.024,63.832
			c-35.567,21.863-59.715,52.531-103.569,54.845c-33.829,1.784-57.606,6.187-89.203,22.088c-0.726,0.365-1.448,0.729-2.168,1.097
			c-50.631,25.647-87.479,49.824-147.095,52.494c-53.785,2.41-114.985-3.373-165.41-23.629
			c-67.573-27.152-146.578-50.123-203.719-95.895c-36.482-29.225-69.135-61.217-101.399-94.887
			c-26.838-28.004-60.042-56.629-78.103-91.57c-13.094-25.333-28.168-53.52-39.028-81.57
			c-28.214,14.871-51.153,27.771-64.155,33.242c12.34,45.951,36.434,96.569,63.367,130.947
			C5781.171,6287.432,5828.441,6332.602,5878.391,6376.695z" style="stroke:black;fill:#80cdf8"/><path id="180623446" parent_id="180623432" order="73" structure_id="473" d="M7256.746,5663.168
			c-14.178-0.583-29.089-1.001-44.835-1.225c7.185,34.49,8.589,68.696,4.188,105.517
			c-14.537,121.536-108.266,220.499-194.037,299.537c-48.735,44.91-203.752,210.74-291.808,109.133
			c-27.567-31.826-30.379-77.892-58.308-109.131c-9.957-11.138-20.545-17.595-31.412-20.519c67,34.674,60.545,145.133,3.306,189.198
			c-42.177,32.458-89.462,8.665-110.78-35.481c-12.982-26.869-15.85-64.28-7.668-96.588c-27.912,28.563-57.229,62.645-96.886,66.787
			c-30.256,3.162-56.56-18.787-82.161-30.541c-26.287-12.07-52.997-30.934-82.85-31.444c-30.533-0.522-64.609,3.702-84.295,29.687
			c-19.844,26.192-37.306,55.609-77.039,41.789c-51.771-18.004-60.875-117.297-96.029-154.065
			c-56.148-58.715-183.211,1.358-265.471,44.717c10.86,28.052,25.936,56.237,39.028,81.571c18.06,34.941,51.265,63.565,78.103,91.57
			c32.266,33.669,64.916,65.662,101.399,94.887c57.14,45.771,136.146,68.74,203.718,95.894
			c50.425,20.256,111.625,26.039,165.41,23.629c59.613-2.67,96.464-26.847,147.096-52.494c0.72-0.365,1.441-0.729,2.168-1.097
			c31.596-15.9,55.373-20.304,89.203-22.088c43.854-2.313,68.002-32.979,103.569-54.845c33.756-20.749,70.683-47.665,106.024-63.831
			c39.895-18.248,78.162-45.468,115.4-68.657c45.877-28.567,84.971-69.328,126.521-103.631
			c50.02-41.294,98.64-84.603,138.898-135.705c57.941-73.548,72.486-159.563,95.384-247.093
			C7256.311,5694.42,7256.827,5678.829,7256.746,5663.168z M6033.613,6267.744c-56.383,14.409-72.047-72.626-53.235-106.816
			c20.524-37.306,68.435-49.299,88.425-3.35C6083.182,6190.661,6075.84,6256.951,6033.613,6267.744z" style="stroke:black;fill:#80cdf8"/><path id="180623445" parent_id="180623432" order="74" structure_id="250" d="M5382.199,3416.514
			c-142.299,5.967-292.895-85.143-414.104-150.136c-81.084-43.491-225.742-80.779-262.405-174.712l11.624-2.862
			c38.792-9.921,66.448-28.665,107.211-52.079c48.169-27.672,96.945-54.354,147.204-78.288
			c70.333-0.472,130.399,64.117,177.146,109.282c32.559,31.445,63.264,59.74,88.666,97.427
			c32.098,47.621,77.242,82.14,105.752,134.22c18.422,33.646,30.914,68.94,42.099,104.834L5382.199,3416.514z" style="stroke:black;fill:#90cbed"/><path id="180623444" parent_id="180623432" order="75" structure_id="258" d="M5382.199,3416.514
			c-142.299,5.967-292.895-85.143-414.104-150.136c-81.084-43.491-223.564-75.535-260.226-169.468l-32.37,3.095l27.832,607.45
			c52.708,109.264,123.243,229.718,177.646,339.722c87.918,177.771,150.619,472.649,155.94,472.854
			c35.967,1.404,170.319-46.672,180.217-91.256c38.862-175.9,166.343-225.885,304.976-324.008
			c-1.268-27.657-0.543-32.004-1.676-64.896c-3.262-94.971-23.533-185.184-41.797-277.979
			c-18.929-96.131-41.22-191.025-70.916-284.325L5382.199,3416.514z" style="stroke:black;fill:#90cbed"/><path id="180623441" parent_id="180623432" order="76" structure_id="342" d="M7190.581,5679.93
			c-1.429-31.291-62.041-29.549-104.612-52.455c-41.537-22.353-67.271-61.844-75.205-48.679
			c-30.998,51.458-70.424,99.616-129.615,128.953c-82.944,41.116-207.871,54.431-254.316,65.696
			c-71.223,17.271-140.98,51.256-196.139,99.86c-56.074,49.483-118.263,134.493-196.67,146.829
			c-119.08,18.732-101.123-145.598-150.438-212.993c-42.387-57.915-113.611-80.55-163.305-129.924
			c-39.541-39.285-72.924-89.367-73.392-144.235c-0.426-50.364,39.394-110.59,12.556-157.804
			c-24.883-43.771-153.942-50.489-196.769-65.336c-74.396-25.787-109.049-57.122-178.015-95.188
			c-51.261,39.867-112.271,70.485-171.5,96.513c-53.533,23.521-131.541,40.795-172.942,17.653
			c-31.724-17.735-35.774,55.58-32.728,74.447c18.233,112.675,131.568,141.654,215.041,190.604
			c127.926,75.013,219.791,190.601,351.873,260.885c112.477,59.848,237.881,31.129,355.684,151.03
			c28.283,28.78,42.938,130.655,77.646,139.933c53.237,14.133,79.131-92.692,142.115-91.312
			c53.44,1.254,89.069,62.237,133.731,80.379c103.174,41.923,137.151-167.24,263.964-122.522
			c55.91,19.715,90.298,116.316,131.207,153.643c45.432,41.452,186.591-94.568,230.324-137.041
			C7118.896,5922.186,7197.902,5839.637,7190.581,5679.93z" style="stroke:black;fill:#a2b1d8"/><path id="180623442" parent_id="180623432" order="77" structure_id="564" d="M5100.777,4898.064
			c39.691-65.514,21.092-135.095-30.947-184.695c-63.406-60.434-65.092-167.797-81.796-248.143
			c-22.575-108.613-68.058-215.345-108.315-318.84c-51.922-133.485-110.974-245.177-173.336-372.352l61.867,1275.659l3.607,74.39
			c122.205-26.949,202.173-60.373,248.503-84.264C5042.105,4989.199,5074.875,4940.816,5100.777,4898.064z" style="stroke:black;fill:#96a7d3"/><path id="180623443" parent_id="180623432" order="78" structure_id="596" d="M5851.418,5940.486
			c-78.111-18.947-144.809-40.365-183.961-56.203c-152.771-61.807-220.802-184.564-307.939-230.904
			c-175.819-93.5-270.576-95.128-280.592-313.758c-3.67-80.04-78.481-108.016-81.943-192.436c-0.018-0.418-0.021-0.838-0.036-1.256
			c-1.205-35.695,8.519-71.429,23.415-106.108c-46.33,23.892-126.298,57.313-248.503,84.263l31.912,657.996
			c77.399,0.635,170.583,57.754,237.955,91.049c84.819,41.922,167.022,88.854,250.403,133.513
			c174.418,93.392,203.321,127.097,286.168,206.983c-20.65-91.717,41.258-127.642,117.592-163.849
			c43.578-20.67,137.326-58.058,190.633-71.283C5927.755,5968.266,5902.02,5952.768,5851.418,5940.486z" style="stroke:black;fill:#96a7d3"/><path id="180623437" parent_id="180623432" order="79" structure_id="1097" d="M5211.77,4493.646
			c8.025-2.983-2.061,58.221-0.719,120.959c0.977,45.164,22.074,101.939,25.959,111.396
			c47.854,116.398,97.912,244.082,174.23,344.376c18.748,24.625,48.706,76.997,69.462,105.235
			c6.533,8.904-15.095,19.043-21.845,23.938c-49.211,35.661-123.894,73.802-183.97,95.305c-43.835,15.688-104.431,26.324-165.271-21
			c-29.293-22.797-55.472-43.237-73.441-76.588c-28.827-53.475,2.131-110.494,23.866-162.229
			c20.821-49.545,44.728-94.528,72.524-140.394c39.717-65.525,14.922-142.554-37.131-192.16
			c-38.959-37.138-49.472-98.592-49.187-150.524C5079.911,4545.996,5160.52,4512.676,5211.77,4493.646z" style="stroke:black;fill:#e64438"/><path id="180623438" parent_id="180623432" order="80" structure_id="226" d="M5211.77,4493.646
			c8.025-2.983-2.061,58.221-0.719,120.959c0.977,45.164,22.074,101.939,25.959,111.396
			c47.854,116.398,97.912,244.082,174.23,344.376c18.748,24.625,48.706,76.997,69.462,105.235
			c6.533,8.904-15.095,19.043-21.845,23.938c-49.211,35.661-123.894,73.802-183.97,95.305c-43.835,15.688-104.431,26.324-165.271-21
			c-29.293-22.797-55.472-43.237-73.441-76.588c-28.827-53.475,2.131-110.494,23.866-162.229
			c20.821-49.545,44.728-94.528,72.524-140.394c39.717-65.525,14.922-142.554-37.131-192.16
			c-38.959-37.138-49.472-98.592-49.187-150.524C5079.911,4545.996,5160.52,4512.676,5211.77,4493.646z" style="stroke:black;fill:#f2483b"/><path id="180623516" parent_id="180623432" order="81" structure_id="1009" d="M4656.172,2678.061
			c84.021-2.766,165.536-14.757,243.695-36.269c27.59-7.603,54.795-16.354,81.521-26.419c45.186-16.748,88.958-37.018,131.23-60.889
			c45.938-25.79,90.104-55.668,132.155-89.87c9.813-7.872,19.446-16.07,28.987-24.431c43.53-38.272,82.004-81.4,118.983-126.129
			c35.56-42.994,61.788-103.992,103.481-140.514c4.408-3.872,9.08-7.505,13.924-10.979c17.367-12.305,37.35-22.145,59.016-29.809
			c24.291-8.619,50.618-14.662,77.461-18.561c59.813-8.745,122.266-7.188,171.053-1.749c46.103,5.06,88.039,15.73,134.356,23.7
			c133.149,22.84,268.772,55.989,401.03,101.22c170.203,58.003,334.81,135.776,481.125,236.657
			c31.856,21.809,62.854,44.907,92.9,69.051c100.531,80.877,180.9,154.922,254.652,241.113
			c47.67,55.693,92.569,116.436,138.357,187.479c33.57,51.92,57.796,114.693,77.813,176.575
			c11.951,36.98,22.471,73.612,32.526,107.428c11.435,38.423,22.253,77.959,32.272,118.281
			c10.319,41.394,19.767,83.743,28.232,126.556c5.195,26.032,9.896,52.171,14.188,78.495c-5.016,21.58,6.44,56.833,12.994,88.808
			c0.012,0.25,0.103,0.412,0.112,0.662c12.201,97.018,18.168,194.486,15.812,288.668c0.017,0.334,0.026,0.582-0.041,0.92
			c-3.513,88.979-13.508,178.424-20.809,266.66c0,0,0,0,0.08-0.088c-1.199,12.064-2.563,24.138-3.846,36.205
			c-5.158,45.771-11.074,91.412-18.162,136.938c-4.39,27.973-10.795,106.577-28.129,168.753c-0.145,0.507-0.287,1.015-0.432,1.521
			c-1.738,5.752-3.563,11.422-5.643,17.021c-5.623,15.604-11.496,31.218-20.967,44.745c-1.181,1.556-2.363,3.026-3.469,4.412
			c-2.299,2.606-4.608,4.965-7.015,7.076c-0.885,0.708-1.767,1.499-2.737,2.127c-3.227,2.399-6.563,4.222-10.096,5.384
			c10.135-71.854,28.523-143.752,40.143-216.007c36.054-225.159,40.903-474.242,30.739-701.537
			c-5.126-115.521-25.824-234.167-65.675-343.094c-37.08-101.214-62.012-208.49-120.611-300.712
			c-40.267-63.373-94.761-127.846-142.137-186.221c-112.869-139.024-269.206-240.196-418.285-335.862
			c-165.751-106.411-370.77-159.733-567.02-156.413c-48.498,0.888-95.854,15.733-144.403,20.96
			c-55.522,5.88-110.606,15.909-164.392,30.633c-47.358,13.012-93.463,29.719-138.258,49.535
			c-54.935,24.2-107.816,53.144-158.451,85.653c-42.858,27.483-85.097,57.607-124.926,89.289
			c-55.76,44.422-105.323,89.393-168.381,123.806c-97.559,53.175-199.158,101.864-299.386,149.573
			c-50.274,23.986-99.092,50.658-147.196,78.3c-53.957,30.993-85.019,53.851-149.258,58.796L4656.172,2678.061z" style="stroke:black;fill:#cccccc"/><path id="180623517" parent_id="180623432" order="82" structure_id="1009" d="M5783.131,4935.872
			c-75.802-53.772-105.452-97.763-143.23-168.574c-34.678-64.972-71.854-198.406-2.096-253.858
			c62.135-49.375,135.727,11.461,176.376,55.658c44.604,48.508,53.493,95.054,66.918,158.066
			c12.142,56.967,79.205,149.789,44.61,208.18C5897.139,4983.555,5819.855,4961.916,5783.131,4935.872z" style="stroke:black;fill:#cccccc"/><path id="180623518" parent_id="180623432" order="83" structure_id="1009" d="M7566.146,5683.516
			c51.51-66.848,115.524-135.734,180.188-198.729c14.834-14.47,29.249-30.164,44.228-44.824
			c19.595-19.155,101.017-97.312,32.019-105.61c-81.633-9.818-185.526,61.937-241.916,113.873
			C7508.578,5514.605,7495.973,5608.9,7566.146,5683.516z" style="stroke:black;fill:#cccccc"/><path id="180623515" parent_id="180623432" order="84" structure_id="81" d="M5722.914,2510.05
			c-54.939,24.265-107.828,53.184-158.498,85.702c-42.837,27.501-85.048,57.584-124.867,89.271
			c-55.825,44.42-105.357,89.411-168.443,123.8c-97.513,53.151-199.084,101.866-299.375,149.614
			c70.332-0.473,130.398,64.116,177.146,109.281c32.558,31.445,63.263,59.74,88.666,97.428
			c32.097,47.621,77.242,82.139,105.751,134.219c30.884,56.408,45.091,117.467,64.432,178.201
			c29.696,93.301,51.987,188.195,70.916,284.326c18.264,92.795,38.535,183.008,41.797,277.979
			c1.133,32.893,3.207,65.055-0.016,97.626c-8.65,87.957,6.218,180.024,25.459,266.515c2.656,11.94,13.268,87.693,30.982,86.777
			c9.711-0.503,13.563-19.199,14.17-26.309c1.402-16.609-5.222-29.899-6.695-45.715c-1.898-20.242-1.738-40.615-4.068-60.896
			c-4.576-39.813-12.07-79.219-17.379-118.943c-5.549-41.459-8.062-83.832-10.643-125.717c-4.254-68.975,1.191-139.695-8.35-208.111
			c-12.476-89.505-54.256-170.32-66.276-259.944c-4.813-35.947-18.157-68.851-22.83-104.155
			c-5.091-38.435-5.335-77.454-12.704-115.84c-16.555-86.271-55.346-167.749-61.462-256.102
			c-3.536-51.109-8.269-102.021-2.69-153.219c5.379-49.425,18.301-96.223,30.234-144.257
			c29.068-117.042,93.473-210.514,194.667-277.08C5625.65,2579.49,5742.357,2555.046,5722.914,2510.05z" style="stroke:black;fill:#aaaaaa"/></g>
</g>
</svg>