<svg width="7232" height="5776" xmlns="http://www.w3.org/2000/svg">
<g transform="scale(1.0)">
<g id="180610839" order="1" parent_id="" graphic_group_label_id="28" graphic_group_label="Atlas - Adult Mouse" sub_image_id="100960400" transform=" scale(1.0, 1.0)"><path id="180610841" parent_id="180610839" order="0" structure_id="8" d="M5232.236,3513.242
			c-17.91-6.752-38.129-17.801-57.395-21.342C5189.613,3499.512,5216.671,3507.482,5232.236,3513.242
			c34.596,12.813,63.353,35.133,92.971,56.949c44.318,32.644,82.252,65.453,126.553,98.121
			c127.195,93.813,210.101,143.645,246.23,167.133c41.066,26.685,73.111,53.287,115.529,77.761
			c16.992,9.807,29.861,20.545,48.129,27.854c14.342,5.731,33.14,21.656,45.918,29.455c28.402,17.326,53.688,48.293,59.244,80.455
			c4.545,26.28,2.029,53.152-2.511,79.246c-4.901,28.205-11.521,56.709-19.731,84.143
			c-31.621,105.514-93.168,139.025-168.141,208.624c-214.124,198.701-443.204,395.64-641.129,609.606
			c-111.883,120.938-237.637,260.614-384.484,338.455c-269.377,142.81-611.137-8.229-817.276-197.406
			c-111.963-102.737-242.396-270.942-278.496-422.513c-39.021-163.823-15.201-335.782-14.619-502.038
			c0.456-127.773,26.729-248.357,39.128-374.839c8.786-89.756,20.248-175.32,42.396-262.938
			c16.313-64.482,51.846-152.028,44.873-218.574c-4.085-38.912-37.644-80.092-45.645-120.18
			c-16.195-81.203,1.868-304.821,27.914-635.218c17.926-227.438,33.635-455.053,52.088-682.45
			c10.336-127.398,47.612-613.793,55.161-703.191c173.506-197.701,404.539-334.565,668.423-372.028
			c222.451-31.573,453.886,13.39,665.67,81.129c106.282,33.994,213.576,73.907,314.383,122
			c450.833,215.077,814.833,475.702,1002.716,958.19c91.013,233.752,176.505,490.044,141.778,743.841
			c-37.082,271.023-114.621,559.694-266.418,790.132c-73.473,111.535-116.115,244.668-214.426,339.096
			c-18.109,17.391-43.112,32.324-65.107,44.223c-21.032,11.38-43.678,19.617-67.43,22.923
			c-55.321,7.695-113.738-14.907-163.963-36.021c-25.959-10.914-47.814-24.871-71.326-39.964
			c-15.472-9.931-29.778-21.539-45.24-31.604c-24.674-16.065-48.893-32.826-73.601-48.845
			c-49.231-31.912-98.828-63.335-147.069-96.751c-26.621-18.436-52.908-37.36-78.398-57.338
			c-20.063-15.729-43.413-32.413-61.193-47.079c-11.17-9.21-18.459-15.221-28.267-23.057
			c-18.021-14.388-39.604-30.769-58.808-43.496C5282.93,3540.398,5260.583,3523.929,5232.236,3513.242z" style="stroke:black;fill:#bfdae3"/><path id="180610842" parent_id="180610839" order="1" structure_id="688" d="M6506.275,2040.637
			c-187.879-482.488-551.873-743.115-1002.709-958.188c-100.809-48.093-208.097-88.004-314.381-122.002
			c-211.78-67.739-443.215-112.701-665.666-81.129c-263.888,37.463-494.914,174.331-668.429,372.028
			c-7.549,89.399-44.812,575.801-55.155,703.191c-18.457,227.399-34.157,455.007-52.084,682.447
			c-26.045,330.396-44.109,554.019-27.912,635.221c7.998,40.087,41.56,81.268,45.644,120.177
			c6.97,66.549-28.147,152.356-44.469,216.839c-22.149,87.622-34.02,174.921-42.798,264.676
			c-12.407,126.481-38.683,247.065-39.131,374.84c-0.586,166.252-24.406,338.211,14.617,502.037
			c36.098,151.569,166.528,319.773,278.495,422.51c206.138,189.18,547.894,340.216,817.276,197.409
			c146.84-77.84,272.594-217.521,384.479-338.455c197.922-213.969,427-410.905,641.128-609.608
			c74.974-69.599,136.521-103.106,168.135-208.623c8.217-27.432,14.836-55.938,19.735-84.141
			c4.541-26.096,7.051-52.968,2.511-79.246c-5.56-32.163-30.839-63.129-59.248-80.456c-12.774-7.797-31.571-23.726-45.912-29.457
			c-11.229-4.493-20.422-10.284-29.783-16.356c12.763,7.534,25.808,14.47,40.097,20.479c50.225,21.113,108.642,43.719,163.961,36.02
			c23.754-3.302,46.399-11.539,67.433-22.918c21.994-11.902,46.996-26.834,65.108-44.226
			c98.306-94.425,140.948-227.56,214.422-339.095c151.799-230.438,229.34-519.106,266.424-790.133
			C6682.781,2530.678,6597.292,2274.393,6506.275,2040.637z M4590.032,4143.374c-50.478,6.795-40.997-41.185-45.487-80.171
			c-5.748-49.813-16.793-98.939-21.188-148.929c-5.511-62.759,97.131,36.713,110.174,73.258
			C4649.925,4033.465,4666.311,4133.109,4590.032,4143.374z" style="stroke:black;fill:#b0ffb8"/><path id="180610884" parent_id="180610839" order="2" structure_id="320" d="M5885.922,1459.599
			c-59.419-46.917-145.896-91.35-223.168-131.321l74.782-124.877c342.546,194.64,615.634,441.227,769.957,837.59
			c91.056,233.801,176.569,490.039,141.808,743.833c-35.061,256.618-106.473,529.084-242.946,752.868l-125.265-111.896
			c5.414-12.986,10.574-25.908,15.554-38.676c92.498-238.983,182.751-492.618,198.089-750.806
			c10.252-172.849-13.678-297.541-81.76-467.33C6293.555,1871.604,6197.262,1705.131,5885.922,1459.599z" style="stroke:black;fill:#1f9d5a"/><path id="180610883" parent_id="180610839" order="3" structure_id="943" d="M5662.754,1328.277
			c77.271,39.973,163.749,84.405,223.168,131.321c311.34,245.532,407.632,412.003,527.05,709.386
			c68.082,169.789,92.013,294.48,81.76,467.33c-15.338,258.187-105.591,511.821-198.089,750.805
			c-4.979,12.768-10.139,25.688-15.553,38.676l-345.896-309.16c124.713-208.765,131.397-611.087,79.084-757.924
			c-92.467-259.523-252.828-434.502-462.754-608.273c-28.76-23.848-61.452-48.828-97.116-74.366L5662.754,1328.277z" style="stroke:black;fill:#1f9d5a"/><path id="180610882" parent_id="180610839" order="4" structure_id="648" d="M5935.195,3116.635
			l-395.545-353.499c8.438-12.005,15.418-26.883,20.645-45.157c43.553-151.506-61.994-331.816-158.949-433.879
			c-59.336-62.481-127.021-126.344-200.271-185.269l253.336-422.761c35.664,25.539,68.355,50.519,97.115,74.365
			c209.926,173.772,370.287,348.752,462.754,608.274C6066.594,2505.548,6059.908,2907.87,5935.195,3116.635z" style="stroke:black;fill:#1f9d5a"/><path id="180610881" parent_id="180610839" order="5" structure_id="844" d="M5315.706,2559.846
			c-29-33.994-119.551-134.402-253.315-230.113l2.051-2.775l136.633-228.126c73.25,58.924,140.937,122.787,200.271,185.269
			c96.955,102.063,202.502,282.373,158.949,433.879c-5.227,18.274-12.207,33.152-20.645,45.157l-213.894-191.147
			C5325.758,2571.988,5322.313,2567.71,5315.706,2559.846z" style="stroke:black;fill:#1f9d5a"/><path id="180610888" parent_id="180610839" order="6" structure_id="656" d="M5190.409,960.791
			c106.347,34.042,213.593,73.928,314.442,122.038c80.488,38.374,158.271,78.217,232.685,120.569l-74.782,124.877
			c-26.104-13.518-51.159-26.537-73.747-38.953c-78.544-43.083-200.853-85.274-282.356-122.386
			c-190.604-86.847-485.47-126.46-692.795-137.969c-181.068-10.033-324.146,35.7-430.602,127.637l-73.6-120.98l-0.828-1.234
			c124.763-79.342,265.021-133.239,415.979-154.688C4747.186,848.06,4978.695,893.032,5190.409,960.791z" style="stroke:black;fill:#1f9d5a"/><path id="180610887" parent_id="180610839" order="7" structure_id="962" d="M5454.409,1676.07
			c-198.588-142.028-488.604-298.309-702.724-337.451c-188.938-34.484-322.703-27.897-410.283,77.935l-158.148-259.948
			c106.456-91.938,249.532-137.67,430.602-127.637c207.326,11.51,502.191,51.123,692.795,137.969
			c81.506,37.11,203.813,79.303,282.356,122.386c22.588,12.416,47.644,25.436,73.747,38.954L5454.409,1676.07z" style="stroke:black;fill:#1f9d5a"/><path id="180610886" parent_id="180610839" order="8" structure_id="767" d="M4751.686,1338.62
			c214.119,39.143,504.137,195.422,702.725,337.451l-253.335,422.761c-122.181-98.354-259.712-182.962-399.317-224.447
			c-68.213-20.204-127.832-16.656-179.517,3.813l-280.837-461.643C4428.982,1310.722,4562.748,1304.135,4751.686,1338.62z" style="stroke:black;fill:#1f9d5a"/><path id="180610885" parent_id="180610839" order="9" structure_id="1021" d="M4801.756,1874.384
			c139.605,41.485,277.139,126.095,399.318,224.447l-136.635,228.126l-2.051,2.775c-71.809-51.364-156.111-101.326-249.967-138.948
			l-190.183-312.588C4673.925,1857.727,4733.544,1854.18,4801.756,1874.384z" style="stroke:black;fill:#1f9d5a"/><path id="180610892" parent_id="180610839" order="10" structure_id="935" d="M4109.654,1035.625l73.6,120.98
			c-80.122,69.059-139.521,164.203-178.898,281.366c-9.825,29.313-18.502,60.052-25.857,92.146l-135.167-107.117l-0.665-0.05
			c6.254-79.727,11.342-143.969,13.646-171.253c74.266-84.651,159.066-158.044,252.515-217.309L4109.654,1035.625z" style="stroke:black;fill:#40a666"/><path id="180610891" parent_id="180610839" order="11" structure_id="211" d="M4052.206,1588.491
			c-35.687-28.261-16.914-13.396-51.155-40.511l-22.554-17.861c4.29-17.963,9.004-36.999,14.748-56.693
			c5.098-17.477,11.769-36.96,18.621-56.871c12.483-36.271,28.051-69.032,47.389-104.744c9.103-16.808,24.161-41.365,38.054-60.494
			c9.004-12.396,19.737-27.584,27.852-35.873c7.33-7.489,17.965-20.722,25.813-28.467c14.106-13.922,19.377-19.248,32.281-30.37
			l158.148,259.947c-38.945,46.96-68.73,113.446-90.242,204.58c-8.013,34.138-16.443,69.415-24.838,105.282L4052.206,1588.491z" style="stroke:black;fill:#40a666"/><path id="180610890" parent_id="180610839" order="12" structure_id="1015" d="M4341.402,1416.554
			l280.838,461.643c-40.809,16.098-76.631,42.699-107.808,76.517l-288.11-228.296c8.395-35.867,16.826-71.146,24.838-105.282
			C4272.672,1530,4302.457,1463.515,4341.402,1416.554z" style="stroke:black;fill:#40a666"/><path id="180610889" parent_id="180610839" order="13" structure_id="919" d="M4622.24,1878.196
			l190.182,312.588l-297.987-236.072C4545.609,1920.896,4581.434,1894.293,4622.24,1878.196z" style="stroke:black;fill:#40a666"/><path id="180610897" parent_id="180610839" order="14" structure_id="171" d="M3843.33,1423.001l135.167,107.117
			c-10.737,46.991-18.832,96.692-24.202,149.112c-17.744,172.283-44.093,339.901-71.441,510.793
			c-19.915,124.404-18.536,248.402-21.312,373.094l-109.975,43.035c16.929-217.048,32.024-434.233,49.62-651.231
			c7.168-88.531,27.385-350.369,41.478-531.969L3843.33,1423.001z" style="stroke:black;fill:#2fa850"/><path id="180610896" parent_id="180610839" order="15" structure_id="195" d="M3978.497,1530.118l73.709,58.373
			c-10.42,100.591-34.983,228.915-47.149,318.241c-23.67,173.178-50.573,362.603-62.758,536.645
			c-2.121,30.396-5.171,60.889-8.476,91.446l-72.281,28.294c2.774-124.69,1.396-248.689,21.312-373.094
			c27.35-170.892,53.697-338.51,71.441-510.793C3959.665,1626.813,3967.76,1577.109,3978.497,1530.118z" style="stroke:black;fill:#2fa850"/><path id="180610895" parent_id="180610839" order="16" structure_id="304" d="M4052.206,1588.491
			l174.117,137.926c-38.627,165.019-78.126,344.958-92.297,505.372c-6.192,70.02-16.204,150.719-23.035,233.666l-177.168,69.368
			c3.305-30.558,6.354-61.05,8.476-91.446c12.185-174.042,39.088-363.467,62.758-536.645
			C4017.223,1817.406,4041.786,1689.082,4052.206,1588.491z" style="stroke:black;fill:#2fa850"/><path id="180610894" parent_id="180610839" order="17" structure_id="363" d="M4226.323,1726.417l288.11,228.296
			c-96.431,104.412-148.266,276.977-164.34,417.072l-239.104,93.67c6.831-82.947,16.842-163.646,23.035-233.666
			C4148.197,2071.374,4187.695,1891.436,4226.323,1726.417z" style="stroke:black;fill:#2fa850"/><path id="180610893" parent_id="180610839" order="18" structure_id="84" d="M4812.422,2190.784l-13.884,5.399
			l-448.442,175.601c16.074-140.097,67.908-312.66,164.338-417.072L4812.422,2190.784z" style="stroke:black;fill:#2fa850"/><path id="180610868" parent_id="180610839" order="19" structure_id="707" d="M3838.946,3166.742
			c30.126,100.212,101.78,183.627,156.798,271.23l0.107,3.021c-1.762,0.035-3.438,0.076-5.198,0.111
			c-70.085,1.336-177.983,1.248-231.713-82.324l-1.306,0.654c-10.394-25.395-26.44-51.298-33.974-76.896L3838.946,3166.742z" style="stroke:black;fill:#59b363"/><path id="180610867" parent_id="180610839" order="20" structure_id="747" d="M4254.495,3383.538l-0.133,12.882
			c-78.333,27.503-168.78,42.458-258.511,44.575l-0.107-3.021c-55.017-87.604-126.672-171.021-156.798-271.231l126.331-126.856
			c13.537,29.23,30.541,56.882,52.088,82.026C4091.791,3208.55,4210.527,3274.833,4254.495,3383.538z" style="stroke:black;fill:#59b363"/><path id="180610866" parent_id="180610839" order="21" structure_id="556" d="M4272.911,3389.11
			l0.135,0.429c-6.123,2.385-12.323,4.681-18.685,6.881l0.133-12.882c-43.967-108.705-162.703-174.988-237.131-261.626
			c-21.547-25.146-38.551-52.796-52.088-82.025l173.33-174.047c54.684,146.513,165.783,166.347,295.6,84.371
			c18.194-11.521,35.935-24.752,53.627-38.487L4272.911,3389.11z" style="stroke:black;fill:#59b363"/><path id="180610865" parent_id="180610839" order="22" structure_id="827" d="M4685.16,2473.443l-197.328,438.279
			c-17.691,13.735-35.432,26.967-53.627,38.487c-129.814,81.977-240.916,62.143-295.6-84.371l226.41-227.478
			c10.807,15.463,26.233,26.252,48.104,29.322C4478.721,2676.975,4598.188,2534.534,4685.16,2473.443z" style="stroke:black;fill:#59b363"/><path id="180610864" parent_id="180610839" order="23" structure_id="1054" d="M4800.436,2201.015l-1.896-4.831
			l13.884-5.399l-127.263,282.659c-86.974,61.091-206.439,203.531-272.041,194.239c-21.869-3.069-37.297-13.857-48.104-29.321
			L4800.436,2201.015z" style="stroke:black;fill:#59b363"/><path id="180610876" parent_id="180610839" order="24" structure_id="448" d="M5188.746,3495.57
			c-53.766-26.399-112.296-114.018-162.244-155.532c-61.854-51.285-130.281-90.843-220.038-108.399l0.121-0.493l0.688-124.765
			c29.641,14.371,58.33,34.695,88.922,55.332c68.752,46.363,146.639,82.615,213.392,131.09
			c164.233,119.1,315.378,299.747,495.909,409.189l22.346,87.907c-23.387-15.155-46.768-30.394-69.873-45.946
			c-3.186-2.165-6.371-4.33-9.473-6.488c-18.223-12.59-37.861-26.375-58.898-41.604c-1.031-0.748-2.146-1.501-3.256-2.338
			c-10.146-7.545-20.129-15.077-30.006-22.854c-20.078-15.742-43.437-32.402-61.168-47.049
			c-11.193-9.214-18.443-15.201-28.316-23.06c-18.001-14.415-39.539-30.771-58.754-43.519c-3.107-2.076-6.217-4.152-9.326-6.228
			c-0.16-0.097-0.32-0.191-0.396-0.281c-20.735-14.788-42.063-28.364-66.172-37.295c-0.974-0.408-1.953-0.733-3.011-1.147
			C5216.43,3507.03,5202.551,3500.126,5188.746,3495.57z" style="stroke:black;fill:#248a5e"/><path id="180610875" parent_id="180610839" order="25" structure_id="412" d="M5037.947,2887.847
			c112.916,50.19,271.818,186.72,431.113,276.901l136.434,537.244c-180.53-109.443-331.676-290.091-495.908-409.189
			c-66.754-48.475-144.64-84.727-213.393-131.09c-30.592-20.637-59.281-40.962-88.922-55.332l1.77-307.009
			C4888.548,2816.325,4966.753,2856.117,5037.947,2887.847z" style="stroke:black;fill:#248a5e"/><path id="180610874" parent_id="180610839" order="26" structure_id="630" d="M5469.063,3164.748
			c-159.295-90.182-318.198-226.711-431.114-276.9c-71.194-31.73-149.399-71.522-228.905-88.476l1.937-350.358
			c91.742,17.873,184.224,88.207,252.896,136.741c37.517,26.515,118.422,93.802,204.851,146.687
			c34.651,21.193,70.151,40.021,104.002,52.951L5469.063,3164.748z" style="stroke:black;fill:#248a5e"/><path id="180610873" parent_id="180610839" order="27" structure_id="440" d="M5062.391,2329.732
			c133.766,95.711,224.315,196.119,253.315,230.113l-0.263,0.148l57.281,225.397c-33.852-12.929-69.352-31.758-104.002-52.952
			c-86.428-52.884-167.334-120.17-204.85-146.686c-68.674-48.534-161.154-118.868-252.896-136.742l1.443-258.229
			C4906.277,2228.406,4990.581,2278.368,5062.391,2329.732z" style="stroke:black;fill:#248a5e"/><path id="180610902" parent_id="180610839" order="28" structure_id="484" d="M3838.946,3166.742l-115.284,115.8
			c-1.005-3.34-1.842-6.668-2.514-9.983c-16.156-81.162,1.938-304.818,27.986-635.196c0.783-10.405,1.649-20.804,2.434-31.209
			l109.975-43.036c-0.849,37.941-2.125,76.02-4.496,114.181c-9.334,149.562-56.562,309.832-25.856,459.06
			C3833.343,3146.646,3835.927,3156.804,3838.946,3166.742z" style="stroke:black;fill:#248a5e"/><path id="180610901" parent_id="180610839" order="29" structure_id="524" d="M3965.277,3039.886
			l-126.331,126.856c-3.02-9.938-5.604-20.096-7.757-30.387c-30.705-149.228,16.521-309.498,25.856-459.059
			c2.371-38.162,3.647-76.239,4.496-114.181l72.281-28.294c-11.578,109.294-26.24,219.527-13.683,328.463
			C3927.271,2924.264,3940.027,2984.994,3965.277,3039.886z" style="stroke:black;fill:#248a5e"/><path id="180610900" parent_id="180610839" order="30" structure_id="582" d="M4138.605,2865.839
			l-173.33,174.048c-25.25-54.893-38.006-115.623-45.135-176.601c-12.559-108.935,2.104-219.169,13.682-328.463l177.168-69.368
			c-10.756,130.619-13.64,266.771,19.061,375.044C4132.734,2849.324,4135.525,2857.822,4138.605,2865.839z" style="stroke:black;fill:#248a5e"/><path id="180610899" parent_id="180610839" order="31" structure_id="620" d="M4365.016,2638.361
			l-226.408,227.478c-3.08-8.017-5.873-16.515-8.557-25.34c-32.699-108.274-29.814-244.425-19.061-375.044l239.104-93.67
			c-2.728,23.988-4.38,47.052-5.087,68.68C4343.4,2488.479,4329.952,2588.172,4365.016,2638.361z" style="stroke:black;fill:#248a5e"/><path id="180610898" parent_id="180610839" order="32" structure_id="910" d="M4798.538,2196.186l1.896,4.83
			l-435.418,437.347c-35.063-50.189-21.614-149.884-20.008-197.896c0.707-21.628,2.359-44.691,5.086-68.68L4798.538,2196.186z" style="stroke:black;fill:#248a5e"/><path id="180610872" parent_id="180610839" order="33" structure_id="969" d="M4807.271,3106.381
			l-0.688,124.764l-0.121,0.493c-26.561-5.265-55.023-8.58-85.66-9.715c-76.807-2.771-143.607,17.231-206.439,45.649
			c-10.556-85.512,89.099-148.242,157.828-171.613C4724.169,3078.273,4766.648,3086.663,4807.271,3106.381z" style="stroke:black;fill:#248a5e"/><path id="180610871" parent_id="180610839" order="34" structure_id="288" d="M4809.042,2799.372
			l-1.771,307.009c-40.623-19.718-83.104-28.105-135.08-10.422c-68.729,23.371-168.383,86.104-157.828,171.614
			c-71.154,32.229-137.246,75.054-206.902,107.396c-11.102,5.108-22.604,10.019-34.415,14.57l-0.135-0.429l214.921-477.388
			c59.135-46.027,117.407-98.396,189.6-114.392C4721.105,2787.645,4765.292,2790.051,4809.042,2799.372z" style="stroke:black;fill:#248a5e"/><path id="180610870" parent_id="180610839" order="35" structure_id="1125" d="M4810.979,2449.013
			l-1.937,350.359c-43.75-9.321-87.937-11.728-131.61-2.041c-72.191,15.995-130.465,68.364-189.6,114.392l197.328-438.28
			c20.156-14.22,38.645-24.046,54.234-26.556C4762.873,2443.047,4786.896,2444.186,4810.979,2449.013z" style="stroke:black;fill:#248a5e"/><path id="180610869" parent_id="180610839" order="36" structure_id="608" d="M4812.422,2190.784
			l-1.443,258.229c-24.082-4.827-48.104-5.966-71.582-2.125c-15.592,2.509-34.08,12.335-54.235,26.556L4812.422,2190.784z" style="stroke:black;fill:#248a5e"/><path id="180610880" parent_id="180610839" order="37" structure_id="996" d="M6281.09,3425.795l125.264,111.896
			c-7.56,12.572-15.439,24.955-23.48,37.241c-73.445,111.584-116.119,244.738-214.391,339.134
			c-18.136,17.388-43.117,32.332-65.109,44.237c-21.032,11.393-43.664,19.565-67.438,22.884
			c-55.33,7.721-113.729-14.927-163.959-36.036c-2.03-0.822-4.056-1.729-5.996-2.628c-1.217-0.512-2.43-1.104-3.563-1.607
			c-8.495-3.904-16.544-8.193-24.49-12.728c-0.083-0.007-0.16-0.097-0.237-0.186c-7.926-4.782-15.74-9.976-24.166-14.795
			c-1.449-0.778-2.808-1.635-4.172-2.407c-0.237-0.186-0.48-0.287-0.719-0.473c-2.633-1.705-5.269-3.41-7.984-5.122
			c-15.491-9.956-29.773-21.495-45.252-31.618c-14.202-9.272-28.311-18.707-42.416-28.14c-2.468-1.692-4.936-3.386-7.409-4.995
			c-7.89-5.281-15.78-10.563-23.767-15.686c-17.957-11.649-36.006-23.221-53.963-34.869l-22.347-87.907
			c59.806,36.23,122.793,64.664,190.58,80.482C6051.361,3841.879,6195.954,3629.253,6281.09,3425.795z" style="stroke:black;fill:#219866"/><path id="180610879" parent_id="180610839" order="38" structure_id="328" d="M5605.495,3701.992
			l-136.435-537.244c129.658,73.552,259.528,116.48,365.109,57.293c39.855-22.364,73.346-59.104,101.023-105.406l345.896,309.16
			c-85.136,203.458-229.728,416.084-485.015,356.68C5728.288,3766.656,5665.3,3738.223,5605.495,3701.992z" style="stroke:black;fill:#219866"/><path id="180610878" parent_id="180610839" order="39" structure_id="1101" d="M5372.727,2785.393
			c68.752,26.355,131.024,28.7,166.924-22.257l395.545,353.499c-27.679,46.303-61.168,83.042-101.023,105.406
			c-105.581,59.188-235.451,16.259-365.109-57.293L5372.727,2785.393z" style="stroke:black;fill:#219866"/><path id="180610877" parent_id="180610839" order="40" structure_id="783" d="M5325.758,2571.988
			l213.893,191.147c-35.898,50.957-98.172,48.612-166.924,22.257l-57.281-225.398l0.262-0.148
			C5322.313,2567.71,5325.758,2571.988,5325.758,2571.988z" style="stroke:black;fill:#219866"/><path id="180610843" parent_id="180610839" order="41" structure_id="698" d="M5966.813,4050.971
			c-5.558-32.16-30.842-63.128-59.244-80.455c-12.779-7.798-31.578-23.723-45.918-29.455c-11.233-4.495-20.428-10.288-29.793-16.361
			c-7.477-4.414-14.858-9.032-22.336-13.798c-0.057-0.032-0.113-0.066-0.17-0.1c-0.149-0.117-0.301-0.205-0.453-0.298
			c-34.436-20.346-62.285-42.092-94.469-64.086c-0.482-0.322-0.967-0.646-1.45-0.97c-2.468-1.692-4.937-3.386-7.409-4.995
			c-1.002-0.671-2.006-1.342-3.008-2.013c-1.514-0.998-3.035-1.997-4.572-2.996c-24.627-16.01-70.99-44.264-138.289-90.335
			c-0.576-0.387-1.156-0.77-1.732-1.157c-3.186-2.165-6.371-4.33-9.473-6.489c-0.549-0.379-1.11-0.769-1.662-1.149
			c-4.039-2.759-8.082-5.512-12.104-8.297c-15.201-10.526-30.286-21.222-45.184-32.173c-12.129-8.729-24.722-17.895-37.787-27.531
			c-44.301-32.667-82.233-65.479-126.554-98.121c-8.699-6.408-17.328-12.854-26.049-19.096
			c-21.269-14.291-41.25-27.937-65.603-37.332c-0.453-0.173-0.899-0.354-1.354-0.522c-0.183-0.076-0.366-0.142-0.549-0.213
			c-15.647-5.741-42.22-13.608-56.81-21.127c4.584,0.843,9.224,2.119,13.871,3.653c-53.756-26.418-112.273-114.01-162.213-155.518
			c-61.853-51.285-130.28-90.843-220.037-108.399c-26.561-5.265-55.023-8.58-85.66-9.716c-76.808-2.77-143.608,17.231-206.439,45.65
			c-71.154,32.229-137.247,75.054-206.902,107.396c-11.102,5.107-22.604,10.018-34.416,14.569
			c-6.123,2.386-12.322,4.681-18.684,6.882c-78.333,27.502-168.78,42.457-258.511,44.574c-1.761,0.035-3.438,0.076-5.198,0.111
			c-70.085,1.336-177.982,1.248-231.713-82.324l-1.305,0.655c-0.094-0.226-0.203-0.458-0.323-0.693
			c4.729,11.464,8.336,22.822,9.509,33.992c6.973,66.546-28.56,154.092-44.873,218.574
			c-22.147,87.618-33.609,173.184-42.396,262.938c-12.4,126.481-38.673,247.064-39.128,374.84
			c-0.582,166.256-24.402,338.215,14.619,502.037c36.101,151.569,166.532,319.774,278.496,422.513
			c206.14,189.177,547.898,340.216,817.276,197.407c146.849-77.841,272.603-217.52,384.483-338.455
			c197.926-213.969,427.006-410.906,641.129-609.607c74.974-69.599,136.52-103.11,168.142-208.623
			c8.211-27.434,14.829-55.938,19.731-84.143C5968.841,4104.124,5971.355,4077.252,5966.813,4050.971z M4590.032,4143.374
			c-50.478,6.795-40.997-41.185-45.487-80.171c-5.748-49.813-16.793-98.939-21.188-148.929
			c-5.511-62.759,97.131,36.713,110.174,73.258C4649.925,4033.465,4666.311,4133.109,4590.032,4143.374z" style="stroke:black;fill:#9ad2bd"/><path id="180610844" parent_id="180610839" order="42" structure_id="159" d="M3781.862,4444.582
			c15.521-4.039,97.62-20.633,113.386-23.551c31.296-5.801,85.229-20.096,134.891,5.971c30.863,16.199,56.697,25.199,77.518,35.832
			c90.396,46.187,284.993-67.028,225.973,83.982c-33.961,86.938-182.719,236.032-118.479,332.21
			c42.562,63.724,79.742,55.046,77.37,139.767c-2.055,73.348-47.086,180.623-95.639,241.846
			c-17.936,22.609-41.192,35.023-58.279,59.844c125.907,67.547,277.859,122.357,432.911,104.215
			c121.66-14.236,162.615-45.234,234.278-86.166c33.732-19.271,49.653-34.943,63.047-52.414
			c23.029-30.016-5.566-90.769-2.754-171.375c2.479-70.865,7.418-142.473,5.99-205.088c-3.35-147.266-23.867-302.59-76.317-441.052
			c-14.894-39.315-28.979-115.09-50.176-139.729l-9.081,23.515c-7.174,16.577-15.807,32.376-26.706,47.009
			c-23.853,32.029-57.104,56.004-83.224,86.126c-21.383,24.672-44.812,56.804-79.271,62.619
			c-41.909,7.08-44.673-56.485-45.138-84.576c-1.558-96.524,0.93-209.833,62.184-289.995c16.598-21.709,31.622-18.713,54.848-38.686
			c-9.563,3.104-19.361,7.186-36.832,8.607c-21.609,1.757-34.147-13.116-35.158-33.338c-1.215-24.338-2.504-46.719-5.902-70.89
			c-1.762-12.484-2.087-24.843-4.988-37.136c-1.197-5.08-2.055-11.643-4.451-16.269c-2.144-4.138-8.656-8.354-12.269-11.629
			c-0.106-0.106-66.356-61.344-108.901-74.293c-40.646-12.362-84.472,7.553-121.701,26.135
			c-60.854,30.375-108.642,76.58-167.946,108.739c-72.031,39.073-132.844,42.261-169.887,51.391
			c-76.946,18.971-158.254,35.551-237.45,40.72c-3.001,0.192-63.155-1.288-65.561,0.53c-0.199,1.771-0.396,3.541-0.594,5.313
			c-3.564,36.871-6.527,84.217-6.644,117.738c-0.095,26.539-1.466,53.153-2.923,79.744c-0.979,31.852-2.394,63.847-3.657,95.888
			c-0.427,25.521-0.685,50.541-0.685,50.541S3763.161,4449.443,3781.862,4444.582z" style="stroke:black;fill:#54bf94"/><path id="180610845" parent_id="180610839" order="43" structure_id="159" d="M5598.178,3771.419
			c-35.143-23.682-70.049-47.701-104.883-71.827c-30.334-21.012-59.207-44.506-88.979-66.631
			c-18.807-13.98-33.896-31.124-52.507-45.427c-32.976-25.345-70.76-44.714-107.28-64.72c-26.56-14.551-58.791-22.227-83.428-40.11
			c-26.934-19.558-99.764-110.606-122.54-133.326c2.454,2.449-20.095,40.638-22.092,45.835
			c-24.948,64.889-57.655,126.61-89.379,188.491c-5.364,10.465-10.702,20.935-15.97,31.425
			c-30.879,61.531-62.437,122.732-93.021,184.414c-17.951,36.175-30.098,58.801-50.493,93.622l117.388,9.99
			c48.912,7.247,220.969,23.069,285.435,74.518l57.414-14.815c82.362-32.692,174.082-58.609,251.729-104.608
			c12.541-7.429,24.728-15.362,36.435-23.952C5540.299,3816.471,5604.74,3775.846,5598.178,3771.419z" style="stroke:black;fill:#54bf94"/><path id="180610847" parent_id="180610839" order="44" structure_id="167" d="M4927.091,3583.704
			c-5.364,10.465-10.702,20.935-15.97,31.425c-30.879,61.531-62.437,122.732-93.021,184.414
			c-17.951,36.176-30.098,58.801-50.493,93.622l117.388,9.99c48.912,7.247,220.969,23.07,285.435,74.519l57.414-14.816
			c82.362-32.691,174.082-58.609,251.729-104.607c-131.104-106.104-318.114-103.063-460.293-189.043
			C4984.248,3648.021,4951.77,3617.095,4927.091,3583.704z" style="stroke:black;fill:#54bf94"/><path id="180610848" parent_id="180610839" order="45" structure_id="191" d="M4502.072,4407.828
			c1.529-82.113,12.504-169.127,62.271-234.259c16.598-21.709,31.622-18.713,54.848-38.687c-9.563,3.105-19.361,7.187-36.832,8.608
			c-21.609,1.757-34.147-13.116-35.158-33.338c-1.215-24.338-2.504-46.719-5.902-70.89c-1.762-12.484-2.087-24.844-4.988-37.137
			c-1.197-5.078-2.055-11.642-4.451-16.268c-2.144-4.138-8.656-8.355-12.269-11.629c-0.106-0.105-66.356-61.344-108.901-74.293
			c-40.646-12.362-84.472,7.553-121.701,26.135c-60.854,30.375-108.642,76.58-167.946,108.739
			c-56.868,30.848-106.744,39.328-143.451,46.024l0.335,1.8c-26.853,117.462,108.421,217.263,19.264,327.93l-4.677,3.688
			c12.528,2.234,25.211,6.229,37.626,12.746c30.863,16.197,56.697,25.197,77.518,35.832c76.469,39.068,227.498-35.926,236.5,31.446
			l1.83-0.245c50.976-23.393,104.379-55.07,151.595-86.252L4502.072,4407.828z" style="stroke:black;fill:#54bf94"/><path id="180610846" parent_id="180610839" order="46" structure_id="199" d="M4872.229,4948.225
			c-26.535,9.6-42.187,32.055-61.424,51.811c-18.399,18.896-43.867,29.37-66.074,44.799c-43.412,30.164-84.652,63.757-132.59,86.741
			c-55.512,26.616-116.437,35.504-176.824,22.371c-29.379-6.39-57.986-17.371-85.196-30.021
			c-12.114-5.631-49.942-34.316-67.933-39.726l0.006,0.001c6.066-23.23,9.77-45.563,10.324-65.408
			c2.373-84.721-34.809-76.042-77.369-139.766c-64.238-96.179,84.52-245.273,118.479-332.211
			c9.095-23.269,12.167-40.264,10.526-52.535l1.832-0.244c50.975-23.394,104.377-55.07,151.594-86.252l4.492,0.043
			c-0.354,18.949-0.202,37.639,0.09,55.736c0.464,28.091,3.229,91.656,45.137,84.576c34.459-5.816,57.889-37.947,79.271-62.619
			c26.118-30.122,59.37-54.098,83.223-86.126c10.899-14.633,19.533-30.433,26.707-47.009l9.08-23.514
			c21.195,24.639,35.283,100.412,50.176,139.729c52.451,138.462,72.97,293.786,76.318,441.052
			c0.285,12.522,0.314,25.405,0.162,38.569" style="stroke:black;fill:#54bf94"/><path id="180610849" parent_id="180610839" order="47" structure_id="160" d="M4866.082,5114.741
			c1.982-56.696,5.533-113.854,6.146-166.517c-26.535,9.599-42.187,32.054-61.424,51.81c-18.399,18.896-43.867,29.37-66.074,44.799
			c-43.412,30.164-84.652,63.757-132.59,86.741c-55.512,26.616-116.437,35.504-176.824,22.371
			c-29.379-6.389-57.986-17.371-85.196-30.021c-12.114-5.631-49.942-34.315-67.933-39.725
			c-16.355,62.623-49.893,131.782-85.309,176.438c-17.936,22.609-41.191,35.024-58.279,59.845
			c125.908,67.547,277.86,122.356,432.912,104.215c121.66-14.237,162.615-45.235,234.278-86.167
			c33.731-19.271,49.653-34.943,63.047-52.413C4891.866,5256.102,4863.27,5195.348,4866.082,5114.741z" style="stroke:black;fill:#54bf94"/><path id="180610850" parent_id="180610839" order="48" structure_id="160" d="M5598.178,3771.419
			c-35.143-23.682-70.049-47.701-104.883-71.827c-30.334-21.012-59.207-44.506-88.979-66.631
			c-18.807-13.98-33.896-31.124-52.507-45.427c-32.976-25.345-70.76-44.714-107.28-64.72c-26.56-14.551-58.791-22.227-83.428-40.11
			c-26.934-19.558-99.764-110.606-122.54-133.326c2.454,2.449-20.095,40.638-22.092,45.835
			c-24.948,64.889-57.655,126.61-89.379,188.491c24.679,33.391,57.157,64.316,92.188,85.502
			c142.179,85.979,329.188,82.938,460.293,189.042c12.541-7.43,24.728-15.362,36.435-23.953
			C5540.299,3816.471,5604.74,3775.846,5598.178,3771.419z" style="stroke:black;fill:#54bf94"/><path id="180610851" parent_id="180610839" order="49" structure_id="160" d="M3977.925,4082.638
			c-26.853,117.462,108.421,217.263,19.263,327.931l-4.676,3.688c-37.587-6.704-73.793,2.424-97.265,6.774
			c-15.767,2.918-97.864,19.512-113.386,23.551c-18.7,4.861-148.219,32.095-148.219,32.095s0.717-69.826,1.743-95.158
			c1.761-43.571,5.364-87.397,5.521-131.015c0.122-35.119,3.365-85.422,7.156-122.944c0.205-1.981,62.582-0.44,65.641-0.638
			c79.195-5.168,160.504-21.748,237.449-40.719c7.799-1.922,16.649-3.58,26.438-5.365L3977.925,4082.638z" style="stroke:black;fill:#54bf94"/><path id="180610863" parent_id="180610839" order="50" structure_id="1034" d="M3925.296,3780.582
			c4.404-64.061,29.431-123.426,49.292-183.714c15.771-47.868,30.509-105.7,33.293-157.859c-41.85,1.161-83.791,1.132-125.302-4.919
			c-25.892-3.763-51.781-10.189-74.224-24.09c-16.582-10.271-42.726-32.049-49.386-51.223
			c26.567,76.511-8.592,157.199-29.787,230.363c-33.813,116.735-43.475,236.989-58.67,356.593
			c-4.101,32.253-7.857,62.243-10.857,92.708c-2.233,22.736-9.896,69.508-9.896,69.508s70.304,1.419,76.728,0.506
			c82.733-11.762,164.326-30.197,245.738-48.701c-27.732-40.464-44.572-71.638-49.023-127.871
			C3919.215,3881.551,3921.839,3830.863,3925.296,3780.582z" style="stroke:black;fill:#62d09f"/><path id="180610862" parent_id="180610839" order="51" structure_id="1042" d="M4136.627,3631.064
			c9.225-55.395,24.693-145.916,9.618-206.488c-35.772,8.213-72.05,12.199-108.851,13.479c-9.828,0.342-19.668,0.682-29.514,0.953
			c-2.783,52.159-17.521,109.991-33.293,157.859c-19.861,60.287-44.888,119.653-49.292,183.714
			c-3.457,50.28-6.081,100.969-2.096,151.301c4.451,56.233,21.291,87.407,49.022,127.871c4.31-0.979,8.616-1.959,12.925-2.938
			c38.058-8.646,78.448-16.103,114.388-32.191C4017.77,3893.339,4114.163,3765.984,4136.627,3631.064z" style="stroke:black;fill:#62d09f"/><path id="180610861" parent_id="180610839" order="52" structure_id="1050" d="M4523.12,3860.17
			c-4.36-23.511,16.81-34.107,55.67-31.174c-45.056-52.394-130.578-158.356-200.913-232.91
			c-36.26-38.421-73.4-76.014-111.299-112.814c-25.826-25.088-49.313-45.48-72.699-72.911c1.663,1.948-24.619,8.339-27.848,9.235
			c-6.578,1.817-13.174,3.464-19.787,4.98c15.076,60.572-0.395,151.095-9.617,206.488c-22.465,134.92-118.857,262.273-37.092,393.56
			c2.467-1.104,4.914-2.247,7.338-3.437c59.517-29.204,106.146-78.467,166.332-106.615c54.056-25.279,120.805-51.55,176.326-15.485
			c9.938,6.453,80.437,48.673,79.498,61.593c1.027-14.195-13.938-56.688-0.17-64.873c6.322-3.76,15.321-1.591,24.381,3.593
			C4537.859,3887.041,4525.955,3875.42,4523.12,3860.17z" style="stroke:black;fill:#62d09f"/><path id="180610860" parent_id="180610839" order="53" structure_id="1067" d="M4129.805,5200.141
			c-113.344-22.265-171.875-162.877-206.653-258.685c-60.093-165.543-15.94-357.299,73.284-504.334
			c-71.228-8.788-173.479,19.416-177.377,20.552c-65.142,18.99-169.707,39.297-186.491,42.645
			c-6.425,85.321,13.875,206.078,16.313,220.967c10.884,66.414,41.045,137.275,75.862,194.588
			c57.626,94.838,125.516,180.172,207.329,255.239c57.568,52.819,116.084,96.866,186.817,138.588
			c2.404,1.423,32.697-31.972,34.924-34.304c17.519-18.416,36.121-36.814,50.615-57.813c4.881-7.075,9.574-14.283,14.061-21.614
			C4192.467,5204.953,4152.471,5204.594,4129.805,5200.141z" style="stroke:black;fill:#62d09f"/><path id="180610859" parent_id="180610839" order="54" structure_id="1075" d="M4169.752,4996.585
			c-39.411-52.528-85.964-102.979-106.052-166.89c-19.183-61.021-10.175-127.228,9.796-186.959
			c10.128-30.289,22.998-59.541,37.4-88.033c8.647-17.113,21.316-53.529,38.062-68.25c-38.542-5.201-76.062-16.896-109.837-36.598
			c-11.531-6.729-26.286-10.711-42.688-12.734c-89.225,147.035-133.375,338.791-73.283,504.334
			c34.777,95.809,93.311,236.42,206.654,258.686c22.664,4.453,62.662,4.813,88.683-4.172c7.925-12.949,15.175-26.301,21.614-40.035
			c-4.681-25.404-7.379-50.455-18.184-75.195C4208.66,5050.373,4189.553,5022.977,4169.752,4996.585z" style="stroke:black;fill:#62d09f"/><path id="180610858" parent_id="180610839" order="55" structure_id="1082" d="M4291.932,4585.893
			c10.482-21.944,43.539-65.406,28.033-89.022c-14.705-22.377-59.998-11.385-82.555-9.159c-29.279,2.9-59.161,2.695-88.452-1.257
			c-16.744,14.722-29.413,51.138-38.062,68.25c-14.401,28.493-27.272,57.744-37.4,88.034
			c-19.971,59.73-28.979,125.938-9.796,186.959c20.088,63.909,66.64,114.359,106.052,166.889
			c19.801,26.392,38.908,53.789,52.167,84.152c10.804,24.741,13.503,49.791,18.183,75.195c8.66-18.469,15.851-37.631,21.138-57.483
			c9.342-35.127,26.755-90.201,9.913-125.101c-17.029-35.307-62.045-53.168-81.111-90.965
			c-34.451-68.297,3.767-145.158,41.15-203.519C4250.975,4647.975,4276.066,4619.107,4291.932,4585.893z" style="stroke:black;fill:#62d09f"/><path id="180610854" parent_id="180610839" order="56" structure_id="276" d="M5963.33,4037.508
			c-16.084-44.628-55.939-69.111-101.672-96.449c-36.049-21.551-69.789-40.25-103.425-63.803
			c-45.179-31.629-90.731-60.324-136.521-90.683c-6.856,6.741-69.342,45.933-98.729,66.198c-1.39,0.959-2.867,1.933-4.396,2.914
			c20.162,15.485,53.432,44.28,69.603,57.26c67.06,53.84,145.962,83.954,148.685,183.836
			c2.756,101.496-71.469,197.311-164.188,232.68c-75.364,28.742-160.179,10.123-233.099,46.705
			c-67.154,33.692-114.886,98.244-142.146,166.726c-25.946,65.167-54.463,129.344-87.608,191.177
			c-15.244,28.455-32.371,55.652-44.069,85.145c-28.44,71.717-92.929,158.431-178.269,170.576
			c-0.321,22.293-0.602,44.543-0.439,66.707c0.384,54.269-4.387,107.506,4.451,161.517c2.381,14.575,2.593,35.354,10.939,47.909
			c-1.043-1.581,20.479-18.33,27.855-24.24c33.438-31.891,103.456-98.398,104.133-99.091c6.588-6.804,12.646-14.313,18.615-21.955
			c-10.771,10.207-24.846,19.599-39.23,13.438c-15.203-6.5-20.404-32.938-21.14-46.783c-0.162-3.158-0.285-6.367-0.325-9.615
			c-0.922-72.092,53.199-130.894,98.916-180.701c85.334-92.985,171.167-185.567,258.376-276.81
			c25.59-26.774,51.586-53.181,78.463-78.671c37.54-35.607,74.216-72.012,114.209-104.904
			c46.142-37.951,95.272-65.326,148.351-92.22c34.011-17.241,68.158-34.106,103.342-48.883c21.692-9.104,71.926-35.901,96.496-22.64
			c11.408,6.164,10.601,15.193,7.215,23.805c-6.724,17.1-20.558,34.061-28.99,41.604c-13.554,12.123,30.396-17.121,61.17-84.248
			c5.711-12.459,20.345-56.854,23.566-72.265C5964.5,4129,5975.827,4072.174,5963.33,4037.508z" style="stroke:black;fill:#6acbba"/><path id="180610857" parent_id="180610839" order="57" structure_id="276" d="M4960.938,3292.171
			c-73.099-48.772-162.33-70.322-249.498-70.967c-95.24-0.705-182.987,41.647-266,83.729c-7.729,3.92-23.728,13.488-43.89,25.339
			c17.548,3.283,31.604-10.246,50.332-10.724c19.71-0.502,41.983,13.377,58.459,22.647c35.541,20,65.97,46.832,99.547,69.604
			c92.938,63.029,198.99,107.465,291.263,169.631c41.383-83.717,91.09-162.646,114.731-254.427
			C5015.883,3327.005,4974.512,3301.229,4960.938,3292.171z" style="stroke:black;fill:#6acbba"/><path id="180610853" parent_id="180610839" order="58" structure_id="284" d="M5065.766,4819.211
			c11.697-29.49,28.824-56.688,44.068-85.145c33.146-61.832,61.662-126.01,87.609-191.177
			c27.26-68.479,74.99-133.032,142.146-166.726c72.92-36.582,157.733-17.963,233.099-46.705
			c92.721-35.369,166.943-131.184,164.188-232.68c-2.724-99.882-81.626-129.996-148.685-183.836
			c-16.172-12.979-49.439-41.773-69.604-57.259c-27.814,17.885-77.376,39.407-104.507,53.762
			c-81.454,43.092-113.875,54.867-231.467,87.87l5.054,23.05c-0.308,35.38-52.287,46.083-115.586,48.995
			c-37.578,78.428-64.896,190.247-97.856,271.069c-23.019,56.448-67.353,208.797-128.321,238.515
			c14.238,57.774,25.65,117.16,33.344,175.021c3.465,26.062,4.198,52.8,6.139,79.065c3.855,52.142,2.864,104.568,2.11,156.756
			C4972.837,4977.643,5037.323,4890.93,5065.766,4819.211z" style="stroke:black;fill:#6acbba"/><path id="180610856" parent_id="180610839" order="59" structure_id="284" d="M4510.342,3342.197
			c-16.477-9.271-38.749-23.15-58.459-22.648c-18.727,0.479-32.784,14.008-50.332,10.725
			c-60.635,35.638-158.943,91.925-183.396,77.354c25.071,14.943,41.586,41.523,61.313,62.931
			c25.49-24.584,99.809-16.809,127.495-9.603c41.61,10.831,77.354,35.325,108.915,63.986
			c69.533,63.146,121.01,143.979,195.172,202.426c29.693,23.401,58.76,39.767,92.922,53.678
			c29.395-55.358,56.503-111.915,82.662-169.174c4.676-10.238,9.54-20.372,14.518-30.44
			c-92.271-62.166-198.324-106.602-291.262-169.631C4576.313,3389.028,4545.883,3362.196,4510.342,3342.197z" style="stroke:black;fill:#6acbba"/><path id="180610852" parent_id="180610839" order="60" structure_id="291" d="M4974.227,4340.434
			c32.961-80.822,60.277-192.643,97.856-271.069c-84.062,3.866-188.082-6.009-217.562,9.92c-15.146,8.168-26.494,19.438-35.297,32.6
			c-37.467,56.058-46.785,124.976-64.842,188.8l18.651,44.759c12.31,23.946,46.36,137.048,55.687,169.265
			c6.104,21.071,11.836,42.547,17.183,64.242C4906.873,4549.229,4951.207,4396.881,4974.227,4340.434z" style="stroke:black;fill:#6acbba"/><path id="180610855" parent_id="180610839" order="61" structure_id="291" d="M4515.877,3524.941
			c-31.561-28.66-67.305-53.154-108.915-63.985c-27.687-7.206-102.005-14.981-127.495,9.603c0.316,0.346,0.634,0.692,0.953,1.034
			c72.316,77.407,154.716,143.78,220.445,227.408c18.944,24.112,37.188,48.776,55.687,73.237
			c16.174,21.379,34.188,58.155,60.472,67.519c14.567,5.193,27.985,13.537,41.461,21.606c25.051,15.009,54.879,21.971,82.75,29.438
			c22.234-35.936,42.996-72.578,62.736-109.755c-34.162-13.911-63.229-30.276-92.922-53.678
			C4636.887,3668.923,4585.41,3588.09,4515.877,3524.941z" style="stroke:black;fill:#6acbba"/><path id="180610904" parent_id="180610839" order="62" structure_id="1009" d="M5890.508,4272.848
			c-24.57-13.263-74.803,13.533-96.495,22.64c-35.185,14.774-69.332,31.642-103.343,48.883
			c-53.077,26.894-102.209,54.269-148.35,92.22c-39.994,32.895-76.67,69.297-114.209,104.904
			c-26.877,25.491-52.873,51.896-78.463,78.671c-87.209,91.241-173.043,183.823-258.377,276.81
			c-45.717,49.809-99.838,108.608-98.916,180.701c0.041,3.248,0.164,6.457,0.326,9.615c0.733,13.847,5.936,40.283,21.139,46.783
			c14.387,6.158,28.459-3.231,39.23-13.438c8.771-11.226,17.349-22.735,27.125-32.726c12.596-12.863,25.119-25.725,37.608-38.574
			c5.056-5.256,10.131-10.474,15.216-15.666c12.333-12.707,24.643-25.399,36.949-38.07
			c50.936-53.352,122.559-125.736,184.695-185.635c52.34-50.449,101.97-95.6,152.881-141.492
			c32.494-29.654,65.104-59.059,97.646-88.158c0.063-0.059,0.128-0.115,0.191-0.173c21.963-20.03,64.871-59.29,102.588-94.129
			c23.404-21.621,46.797-43.073,70.281-64.435c6.463-5.998,12.801-11.724,19.015-17.254c15.924-14.418,31.897-28.804,47.967-43.176
			C5858.242,4349.497,5922.863,4290.326,5890.508,4272.848z" style="stroke:black;fill:#cccccc"/><path id="180610905" parent_id="180610839" order="63" structure_id="1009" d="M4819.225,4111.883
			c8.805-13.161,20.151-24.432,35.299-32.6c51.676-27.922,332.43,23.449,333.146-58.916
			c0.774-95.532-241.095-108.095-302.675-117.213c-73.954-10.947-135.078-1.219-204.117-32.723
			c-33.455-15.265-109.889-59.681-147.045-35.836c-34.238,21.982,15.057,62.334,31.662,75.92
			c23.805,19.476,46.189,40.698,62.55,66.993c15.823,25.45,15.481,56.962,18.294,85.779c2.551,26.311-6.604,53.948-27.146,71.595
			c-18.342,15.762-38.248,16.977-54.847,38.686c-61.254,80.162-63.74,193.472-62.183,289.996
			c0.463,28.09,3.228,91.655,45.137,84.576c34.459-5.816,57.889-37.947,79.271-62.619c26.117-30.123,59.369-54.098,83.223-86.127
			C4770.777,4317.509,4760.922,4199.121,4819.225,4111.883z" style="stroke:black;fill:#cccccc"/><path id="180610903" parent_id="180610839" order="64" structure_id="98" d="M4633.529,3987.532
			c-13.043-36.545-115.685-136.017-110.174-73.259c4.396,49.988,15.44,99.116,21.188,148.93
			c4.491,38.986-4.989,86.966,45.487,80.171C4666.311,4133.109,4649.925,4033.465,4633.529,3987.532z" style="stroke:black;fill:#aaaaaa"/></g>
</g>
</svg>