<?xml version="1.0" encoding="utf-8"?>
<!-- Generator: Adobe Illustrator 16.0.0, SVG Export Plug-In . SVG Version: 6.00 Build 0)  -->
<!DOCTYPE svg PUBLIC "-//W3C//DTD SVG 1.1//EN" "http://www.w3.org/Graphics/SVG/1.1/DTD/svg11.dtd">
<svg version="1.1" id="Layer_1" xmlns="http://www.w3.org/2000/svg" xmlns:xlink="http://www.w3.org/1999/xlink" x="0px" y="0px"
	 width="9744px" height="6823.471px" viewBox="0 0 9744 6823.471" enable-background="new 0 0 9744 6823.471" xml:space="preserve">
<g transform="scale(1.0)">
	<g id="_x31_80639839" transform=" scale(1.0, 1.0)">
		<path id="_x31_80639841" fill="none" stroke="#010101" stroke-width="80" d="M4922.122,904.812
			c167.403-73.003,352.118-114.417,535.817-97.164c137.621,12.922,237.559,34.415,325.494,142.572
			c86.438,106.312,151.23,228.035,243.355,330.255c180.766,200.585,483.602,450.505,617.588,676.013
			c181.208,304.983,204.104,649.59,191.404,938.809c-8.932,203.408-54.034,495.764-18.301,860.449
			c46.469,474.282,189.961,54.03,263.197,316.768c22.838,81.934-61.75,195.364-5.661,432.546
			c12.634,53.392-57.854,192.538-21.275,283.468c29.354,72.984,132.328-5.936,176.451,66.369
			c111.147,182.111,176.011,499.416,156.046,558.639c-55.898,165.853-135.137,53.73-325.752,79.673
			c-89.756,12.214-217.812,58.712-351.692,150.628c-39.894,27.387-97.138,1.616-134.905,8.023
			c-37.76,6.4-70.374,46.036-119.494,104.904c-134.252,160.894-294.613,351.73-470.332,456.871
			c-214.779,128.519-433.045,105.629-745.236,156.014c-71.166,11.486-142.33,23.904-191.072,19.446
			c-48.744-4.456-72.418-25.795-102.436-33.125L4922.122,904.812z"/>
		<path id="_x31_80639842" fill="none" stroke="#010101" stroke-width="80" d="M8209.047,1465.177
			c153.797,152.032,340.354,315.875,440.723,512.696c83.619,163.98,151.107,277.659,151.764,431.882
			c0.572,134.228-85.318,209.165-69.068,503.656c8.09,146.703,56.693,435.307,36.17,574.058
			c-38.324,259.206-137.205,513.077-334.493,668.833c-100.948,79.71-295.906,193.487-460.419,143.628
			c-239.861-72.696-320.977-300.298-440.771-523.884c-95.984-179.146-240.687-363.021-309.618-531.89
			c-61.308-150.182-155.821-302.72-204.335-454.033c-41.782-130.323-17.87-174.977-61.016-245.831
			c-56.623-92.978-118.248-261.868-170.287-379.604c-63.285-143.131-155.336-263.455-241.518-383.03
			c-144.516-200.512-336.769-355.296-482.678-551.589c-73.537-98.92-148.322-198.042-206.9-306.824
			c-44.859-83.317-64.617-173.486-64.46-174.974c23.107-219.525,209.428-323.341,407.122-337.288
			c224.828-15.864,473.51,70.658,712.801,149.871c267.271,88.471,585.915,280.911,800.305,455.25
			C7922.162,1186.709,8017.539,1275.878,8209.047,1465.177z"/>
		<path id="_x31_80639843" fill="none" stroke="#010101" stroke-width="80" d="M8681.221,4965.621
			c-14.545,104.462-102.421,301.141-213.289,378.728c-139.002,97.284-312.814,26.374-334.536-106.76
			c-21.515-131.849,75.897-209.547,172.966-280.337C8360.534,4917.735,8698.734,4839.876,8681.221,4965.621z"/>
		<path id="_x31_80639844" fill="none" stroke="#010101" stroke-width="80" d="M7257.564,3947.48
			c104.854-10.883,200.258,83.67,201.168,297.443c0.911,213.771-73.438,358.266-153.414,353.627
			c-79.987-4.637-185.568-153.33-181.251-312.439C7128.383,4126.996,7157.653,3957.847,7257.564,3947.48z"/>
		<path id="_x31_80639845" fill="none" stroke="#010101" stroke-width="80" d="M6914.021,3078.922
			c53.282-13.493,140.491,133.643,150.747,193.255c10.254,59.615,70.862,208.499-58.994,228.935
			c-55.184,8.686-115.186-54.208-135.637-163.487C6849.691,3228.34,6854.105,3094.092,6914.021,3078.922z"/>
		<path id="_x31_80639846" fill="none" stroke="#010101" stroke-width="80" d="M8801.533,2409.756
			c-0.656-154.223-68.146-267.903-151.764-431.88c-100.369-196.819-286.926-360.666-440.723-512.697
			c-191.508-189.299-286.885-278.47-496.683-449.074c-214.39-174.339-533.034-366.781-800.304-455.25
			c-239.291-79.213-487.973-165.735-712.801-149.871c-197.693,13.948-384.016,117.763-407.121,337.289
			c-0.158,1.489,19.6,91.657,64.459,174.974c58.578,108.782,133.364,207.903,206.9,306.823
			c145.91,196.294,338.163,351.077,482.678,551.59c86.183,119.574,178.234,239.898,241.519,383.03
			c52.039,117.737,113.663,286.626,170.286,379.604c43.146,70.855,19.234,115.507,61.017,245.832
			c48.515,151.315,143.028,303.852,204.335,454.033c68.93,168.869,213.634,352.744,309.617,531.89
			c119.795,223.586,200.91,451.186,440.771,523.884c164.512,49.859,359.471-63.918,460.421-143.629
			c197.286-155.755,296.165-409.626,334.493-668.832c20.521-138.75-28.084-427.355-36.174-574.059
			C8716.215,2618.922,8802.104,2543.984,8801.533,2409.756z M7504.724,2119.405c-88.892,3.879-155.235-66.46-182.863-93.638
			c-13.455-8.818-20.452-14.605-22.64-17.951c-3.398-5.281,5.152-4.72,19.787-0.904c33.32,8.734,97.898,34.264,122.907,44.972
			c19.677,8.418,38.698,21.239,52.167,33.488c6.85,6.161,12.273,12.253,15.593,17.458
			C7515.788,2112.2,7515.291,2118.988,7504.724,2119.405z"/>
		<path id="_x31_80639920" fill="none" stroke="#010101" stroke-width="80" d="M7485.609,851.076l-13.738,13.183l-13.514,101.103
			c-115.507-84.899-231.229-167.113-368.907-212.545c-286.992-94.618-555.54-258.442-868.89-240.045
			c-89.486,5.224-173.93,32.648-238.457,89.745l-74.697-78.434l-1.507-1.708c76.774-67.961,183.298-103.608,293.388-111.379
			c224.826-15.861,473.479,70.639,712.801,149.873C7095.865,621.69,7303.835,731.63,7485.609,851.076z"/>
		<path id="_x31_80639919" fill="none" stroke="#010101" stroke-width="80" d="M7458.357,965.361l-26.662,199.446
			c-81.469-65.804-167.709-126.218-265.825-175.917c-132.448-67.006-269.159-149.43-413.923-186.255
			c-165.025-41.887-308.969-79.909-472.544-62.59c-45.034,4.738-95.077,12.333-132.763,35.088l-164.533-172.616
			c64.527-57.095,148.971-84.522,238.456-89.745c313.349-18.397,581.895,145.427,868.889,240.045
			C7227.131,798.249,7342.851,880.461,7458.357,965.361z"/>
		<path id="_x31_80639918" fill="none" stroke="#010101" stroke-width="80" d="M7431.695,1164.81l-23.396,174.82
			c-112.502-83.42-225.287-162.813-351.437-229.397c-159.207-83.969-354.122-243.929-539.469-234.497
			c-72.474,3.735-144.097,49.452-218.493,59.236l-152.26-159.841c37.686-22.752,87.73-30.348,132.764-35.086
			c163.574-17.319,307.521,20.704,472.545,62.59c144.763,36.826,281.475,119.25,413.922,186.255
			C7263.986,1038.59,7350.228,1099.005,7431.695,1164.81z"/>
		<path id="_x31_80639917" fill="none" stroke="#010101" stroke-width="80" d="M7408.299,1339.63l-43.591,326.291
			c-31.366-25-63.927-48.503-97.899-69.91c-147.853-93.339-364.156-276.474-549.236-256.753
			c-10.641,1.163-20.003,2.992-28.237,5.488L6298.9,934.971c74.396-9.785,146.02-55.5,218.493-59.236
			c185.349-9.432,380.263,150.527,539.47,234.497C7183.012,1176.816,7295.797,1256.209,7408.299,1339.63z"/>
		<path id="_x31_80639916" fill="none" stroke="#010101" stroke-width="80" d="M7364.709,1665.921l-42.428,317.485l-2.979,22.459
			l-18.148-19.015l-611.819-642.106c8.234-2.495,17.597-4.325,28.236-5.488c185.079-19.72,401.381,163.414,549.235,256.753
			C7300.783,1617.419,7333.342,1640.921,7364.709,1665.921z"/>
		<path id="_x31_80639915" fill="none" stroke="#010101" stroke-width="80" d="M7911.473,1183.519l-70.807,96.273
			c-0.603-0.52-1.128-0.965-1.73-1.484c-108.8-94.025-213.861-190.453-330.043-275.723c-16.92-12.382-33.689-24.84-50.536-37.224
			l13.515-101.102l13.738-13.184c82.617,54.315,159.77,110.59,226.795,165.044C7791.165,1080.22,7853.76,1132.754,7911.473,1183.519
			z"/>
		<path id="_x31_80639914" fill="none" stroke="#010101" stroke-width="80" d="M7840.666,1279.792l-109.786,149.235
			c-101.508-89.582-196.504-181.206-299.185-264.219l26.662-199.446c16.847,12.383,33.615,24.84,50.537,37.223
			c116.182,85.271,221.244,181.698,330.043,275.723C7839.538,1278.827,7840.064,1279.272,7840.666,1279.792z"/>
		<path id="_x31_80639913" fill="none" stroke="#010101" stroke-width="80" d="M7730.88,1429.027l-78.187,106.223
			c-46.582-41.937-93.981-83.051-144.295-120.797c-33.615-25.14-66.859-50.129-100.098-74.823l23.396-174.82
			C7534.376,1247.823,7629.37,1339.445,7730.88,1429.027z"/>
		<path id="_x31_80639912" fill="none" stroke="#010101" stroke-width="80" d="M7652.692,1535.25l-171.726,233.39
			c-37.411-36.159-75.867-70.749-116.258-102.719l43.59-326.291c33.24,24.693,66.482,49.684,100.098,74.823
			C7558.709,1452.199,7606.111,1493.312,7652.692,1535.25z"/>
		<path id="_x31_80639911" fill="none" stroke="#010101" stroke-width="80" d="M7480.967,1768.64l-158.011,214.839l-0.675-0.072
			l42.428-317.485C7405.1,1697.892,7443.556,1732.481,7480.967,1768.64z"/>
		<path id="_x31_80639925" fill="none" stroke="#010101" stroke-width="80" d="M6081.428,1146.704
			c1.129,1.263,2.26,2.601,3.314,3.864l-156.162-108.295c-25.652-38.594-49.884-78.166-71.945-119.013
			c-44.733-83.035-64.455-172.812-64.465-174.975c10.23-97.287,52.566-171.889,113.732-225.913l1.508,1.708l74.697,78.435
			c-22.104,19.557-41.949,42.608-58.774,69.452C5811.12,850.744,5968.056,1017.351,6081.428,1146.704z"/>
		<path id="_x31_80639924" fill="none" stroke="#010101" stroke-width="80" d="M6097.697,830.297
			c-4.307,10.161-7.33,21.509-8.926,34.192c-11.457,90.728,82.676,156.181,129.656,221.308
			c34.688,48.177,97.217,120.398,139.98,163.47c79.352,79.833,134.457,151.937,190.838,223.362l-464.504-322.062
			c-1.055-1.264-2.186-2.601-3.314-3.864c-113.372-129.353-270.308-295.959-158.096-474.734
			c16.826-26.843,36.669-49.895,58.775-69.451l164.533,172.614C6125.33,787.898,6107.938,805.57,6097.697,830.297z"/>
		<path id="_x31_80639923" fill="none" stroke="#010101" stroke-width="80" d="M6146.641,775.131l152.257,159.84
			c-12.812,1.695-25.704,2.345-38.675,1.506c-76.711-4.897-169.735-20.986-162.525-106.178
			C6107.938,805.57,6125.33,787.898,6146.641,775.131z"/>
		<path id="_x31_80639922" fill="none" stroke="#010101" stroke-width="80" d="M6973.824,1767.047l-424.578-294.416
			c-56.38-71.425-111.485-143.531-190.84-223.362c-42.762-43.072-105.29-115.293-139.979-163.47
			c-46.981-65.127-141.114-130.58-129.657-221.309c1.598-12.683,4.62-24.031,8.927-34.191
			c-7.207,85.193,85.817,101.282,162.524,106.178c12.971,0.839,25.863,0.189,38.676-1.506l390.436,409.774
			c-112.525,34.554-10.208,190.95,45.355,247.316c42.162,42.777,94.904,69.997,144.742,102.451
			C6912.285,1715.927,6943.576,1740.626,6973.824,1767.047z"/>
		<path id="_x31_80639921" fill="none" stroke="#010101" stroke-width="80" d="M6689.335,1344.745l611.821,642.106l-4.406,4.195
			l-322.926-223.999c-30.248-26.42-61.539-51.12-94.391-72.534c-49.84-32.455-102.581-59.674-144.743-102.451
			C6679.128,1535.695,6576.811,1379.299,6689.335,1344.745z"/>
		<path id="_x31_80639929" fill="none" stroke="#010101" stroke-width="80" d="M6393.828,1522.057l-149.754-82.219
			c-63.48-67.147-125.317-135.493-180.584-209.76c-45.916-61.776-92.283-123.625-134.91-187.804l156.162,108.294
			c94.316,108.181,176.457,226.555,272.863,332.713C6369.504,1496.357,6381.555,1509.282,6393.828,1522.057z"/>
		<path id="_x31_80639928" fill="none" stroke="#010101" stroke-width="80" d="M6790.645,1739.778l-396.816-217.723
			c-12.273-12.775-24.322-25.699-36.223-38.773c-96.406-106.158-178.547-224.534-272.863-332.714l464.504,322.063
			c9.119,11.595,18.314,23.266,27.658,34.858C6655.435,1605.297,6719.859,1665.206,6790.645,1739.778z"/>
		<path id="_x31_80639927" fill="none" stroke="#010101" stroke-width="80" d="M7148.386,1936.113l-357.741-196.335
			c-70.785-74.572-135.209-134.481-213.74-232.289c-9.344-11.593-18.539-23.264-27.658-34.858l424.578,294.416
			C7034.621,1820.334,7091.252,1880.796,7148.386,1936.113z"/>
		<path id="_x31_80639926" fill="none" stroke="#010101" stroke-width="80" d="M7301.156,1986.852l18.148,19.014l-0.295,1.046
			c-14.635-3.816-23.186-4.377-19.787,0.904l-9.873,5.635l-140.963-77.336c-57.134-55.317-113.766-115.78-174.562-169.068
			l322.927,223.999L7301.156,1986.852z"/>
		<path id="_x31_80639933" fill="none" stroke="#010101" stroke-width="80" d="M6645.685,1780.51
			c-14.245-0.612-28.493-1.297-42.735-1.388c-11.246-0.025-44.124,7.197-58.85-0.348
			c-89.357-123.415-196.785-229.526-300.026-338.938l149.754,82.22C6477.035,1608.957,6566.811,1689.639,6645.685,1780.51z"/>
		<path id="_x31_80639932" fill="none" stroke="#010101" stroke-width="80" d="M6790.645,1739.778
			c12.803,13.444,25.829,27.484,39.236,42.267c-17.719-6.115-35.946-9.319-54.764-9.017c-26.91,0.411-54.319,7.015-81.902,8.026
			c-15.891,0.588-31.709,0.133-47.528-0.544c-78.876-90.871-168.65-171.552-251.856-258.453L6790.645,1739.778z"/>
		<path id="_x31_80639931" fill="none" stroke="#010101" stroke-width="80" d="M7456.834,2210.66
			c-6.964,1.522-15.133,2.227-24.203,2.34c-68.065,0.882-183.8-31.593-183.8-31.593c-74.315-6.398-111.572-58.739-151.468-114.8
			c-61.312-86.321-152.922-245.148-267.484-284.562c-13.408-14.783-26.436-28.823-39.237-42.267l357.741,196.335
			c9.41,9.207,18.895,18.191,28.379,27.025C7279.947,2059.054,7361.808,2129.255,7456.834,2210.66z"/>
		<path id="_x31_80639930" fill="none" stroke="#010101" stroke-width="80" d="M7524.438,2154.223
			c-21.96,18.662-37.577,48.258-63.034,55.375c-1.423,0.38-2.995,0.759-4.569,1.063c-95.027-81.405-176.887-151.607-280.07-247.521
			c-9.484-8.834-18.968-17.819-28.378-27.024l140.964,77.335l9.871-5.634c2.188,3.346,9.185,9.132,22.641,17.951
			c27.629,27.177,93.972,97.517,182.864,93.638c10.567-0.418,11.063-7.207,4.951-16.576l110.05,36.002l-0.294,1.194
			c-23.188-5.793-47.257-6.587-72.037,0.975C7538.785,2143.646,7531.31,2148.376,7524.438,2154.223z"/>
		<path id="_x31_80639910" fill="none" stroke="#010101" stroke-width="80" d="M8209.082,1465.195
			c80.779,79.9,170.638,162.968,252.206,252.487l-98.192,37.997c-7.754-7.798-15.433-15.594-23.113-23.318
			c-60.455-60.971-121.585-121.34-181.666-182.687c-97.654-99.739-212.162-178.902-317.65-269.883l70.809-96.274
			C8007.412,1267.831,8089.461,1346.979,8209.082,1465.195z"/>
		<path id="_x31_80639909" fill="none" stroke="#010101" stroke-width="80" d="M8363.096,1755.679l-215.242,83.383
			c-4.08-7.589-9.516-16.291-16.379-26.18c-89.531-128.709-238.604-244.489-357.255-346.155
			c-14.598-12.542-29.044-25.083-43.34-37.701l109.786-149.234c105.488,90.981,219.996,170.144,317.65,269.883
			c60.081,61.346,121.211,121.716,181.666,182.687C8347.663,1740.084,8355.342,1747.88,8363.096,1755.679z"/>
		<path id="_x31_80639908" fill="none" stroke="#010101" stroke-width="80" d="M8147.854,1839.063l-75.291,29.102
			c-25.461-11.228-51.085-25.586-67.928-37.374c-83.459-58.263-161.326-123.856-237.179-191.474
			c-38.529-34.289-76.385-69.479-114.765-104.067l78.186-106.223c14.297,12.617,28.743,25.159,43.34,37.701
			c118.652,101.665,267.725,217.446,357.256,346.155C8138.338,1822.772,8143.773,1831.474,8147.854,1839.063z"/>
		<path id="_x31_80639907" fill="none" stroke="#010101" stroke-width="80" d="M8072.562,1868.165l-4.117,1.584l-351.604,136.158
			c-26.032-22.188-49.966-44.16-70.449-66.073c-54.298-58.161-108.593-116.4-165.425-171.195l171.726-233.389
			c38.379,34.588,76.235,69.777,114.765,104.067c75.852,67.616,153.719,133.211,237.178,191.474
			C8021.478,1842.577,8047.102,1856.937,8072.562,1868.165z"/>
		<path id="_x31_80639906" fill="none" stroke="#010101" stroke-width="80" d="M7716.841,2005.909l-204.914,79.313l-17.843,0.151
			c-13.471-12.25-32.49-25.069-52.168-33.49c-25.008-10.707-89.586-36.236-122.908-44.97l0.296-1.047l2.978-22.458l0.676,0.072
			l158.011-214.839c56.831,54.796,111.129,113.033,165.425,171.194C7666.877,1961.747,7690.809,1983.72,7716.841,2005.909z"/>
		<path id="_x31_80639905" fill="none" stroke="#010101" stroke-width="80" d="M8649.809,1977.892
			c83.607,164.007,151.109,277.67,151.768,431.883c0.453,106.786-53.752,176.069-67.787,348.167
			c-48.248-10.535-96.144-26.516-143.53-46.376c4.255-39.245,11.062-78.422,21.466-117.318
			c41.689-156.407,62.424-340.019,4.717-494.513c-50.425-135.211-152.984-242.687-253.346-344.057l98.192-37.997
			C8535.099,1798.506,8602.184,1884.504,8649.809,1977.892z"/>
		<path id="_x31_80639904" fill="none" stroke="#010101" stroke-width="80" d="M8616.441,2099.735
			c57.707,154.496,36.973,338.108-4.717,494.513c-10.404,38.896-17.211,78.075-21.466,117.318
			c-23.505-9.819-46.79-20.535-70.003-31.922c-20.135-10.058-40.193-20.561-60.106-31.441
			c-70.329-38.556-138.882-82.116-204.883-124.569c-5.413-3.408-10.749-6.889-16.087-10.373l4.319-6.655
			c119.247-22.948,62.95-128.084,29.075-213.923c-33.191-84.201-46.973-134.183-80.678-215.25
			c-34.309-82.333-78.713-123.385-121.025-201.508l-2.426-6.178l5.271-2.032c53.258-20.608,27.695-10.732,51.363-19.875
			l238.016-92.164C8463.457,1857.048,8566.017,1964.524,8616.441,2099.735z"/>
		<path id="_x31_80639903" fill="none" stroke="#010101" stroke-width="80" d="M8272.574,2292.687
			c33.875,85.84,90.172,190.976-29.075,213.924l-4.319,6.655c-3.156-2-6.312-4-9.395-6.076
			c-29.393-18.817-58.258-37.339-86.444-54.894c-7.817-4.889-15.634-9.704-23.376-14.667c-0.461-2.457-1.072-4.99-1.758-7.597
			c-44.875-169.391-256.008-300.197-401.366-424.122l351.604-136.157l2.426,6.177c42.312,78.123,86.717,119.175,121.025,201.508
			C8225.602,2158.503,8239.383,2208.485,8272.574,2292.687z"/>
		<path id="_x31_80639902" fill="none" stroke="#010101" stroke-width="80" d="M8118.207,2430.028
			c0.686,2.607,1.297,5.141,1.758,7.598c-131.238-82.073-257.233-165.363-390.558-244.297
			c-34.495-20.436-71.104-43.772-109.974-53.305l0.295-1.193l-110.051-36.002c-3.321-5.207-8.745-11.298-15.592-17.458l17.842-0.15
			l204.916-79.313C7862.199,2129.833,8073.332,2260.64,8118.207,2430.028z"/>
		<path id="_x31_80639901" fill="none" stroke="#010101" stroke-width="80" d="M8732.502,2913.435
			c8.119,146.725,56.727,435.341,36.176,574.058c-25.285,170.805-76.82,339.331-165.508,478.932l-109.633-184.181
			c74.775-150.505,84.994-338.098,98.245-501.245c15.384-189.853-22.088-381.272-1.524-569.433
			c47.388,19.86,95.283,35.842,143.529,46.378C8730.154,2802.182,8729.17,2853.193,8732.502,2913.435z"/>
		<path id="_x31_80639900" fill="none" stroke="#010101" stroke-width="80" d="M8590.259,2711.567
			c-20.564,188.16,16.907,379.579,1.525,569.431c-13.251,163.148-23.472,350.74-98.247,501.245l-82.751-139.026
			c27.4-96.464,37.719-208.441,54.284-296.954c23.967-128.067,32.903-265.543,20.282-395.247
			c-10.036-103.913-24.409-169.923,31.263-264.119l3.643-7.249C8543.469,2691.031,8566.754,2701.749,8590.259,2711.567z"/>
		<path id="_x31_80639899" fill="none" stroke="#010101" stroke-width="80" d="M8520.256,2679.645l-3.641,7.251
			c-55.674,94.196-41.301,160.207-31.263,264.119c12.621,129.704,3.685,267.179-20.284,395.247
			c-16.563,88.514-26.882,200.491-54.284,296.953l-55.948-93.95c6.515-19.267,11.607-38.155,15.277-56.366
			c36.558-181.963,19.257-407.472,34.965-591.734c6.713-78.629,1.681-203.89,51.428-246.308l3.644-6.652
			C8480.062,2659.084,8500.121,2669.589,8520.256,2679.645z"/>
		<path id="_x31_80639898" fill="none" stroke="#010101" stroke-width="80" d="M8460.149,2648.205l-3.644,6.654
			c-49.747,42.417-44.715,167.679-51.428,246.306c-15.708,184.262,1.593,409.771-34.965,591.735
			c-3.67,18.211-8.763,37.099-15.277,56.366l-221.682-372.379c18.434-36.992,31.084-76.866,39.141-103.449
			c32.084-106.176,39.982-205.392,41.617-314.574c0.764-49.743-15.283-191.662,34.727-224.982l6.628-10.245
			C8321.268,2566.089,8389.82,2609.649,8460.149,2648.205z"/>
		<path id="_x31_80639897" fill="none" stroke="#010101" stroke-width="80" d="M8255.267,2523.637l-6.628,10.246
			c-50.01,33.32-33.963,175.239-34.727,224.981c-1.635,109.182-9.533,208.397-41.617,314.575
			c-8.057,26.582-20.707,66.457-39.141,103.449l-41.074-69.03c57.483-56.321,38.119-185.175,37.6-254.526
			c-0.812-120.209-47.14-313.978,98.839-344.198l1.267-1.944c3.082,2.075,6.238,4.076,9.395,6.076
			C8244.518,2516.748,8249.854,2520.229,8255.267,2523.637z"/>
		<path id="_x31_80639896" fill="none" stroke="#010101" stroke-width="80" d="M8229.785,2507.188l-1.267,1.944
			c-145.979,30.22-99.651,223.989-98.839,344.198c0.52,69.352,19.884,198.205-37.6,254.526l-338.335-568.312l-97.552-163.948
			c82.634,58.341,184.223,113.992,270.068,133.914c69.035,16.04,213.772,28.929,193.703-71.883
			c7.742,4.964,15.559,9.778,23.376,14.667C8171.527,2469.85,8200.393,2488.371,8229.785,2507.188z"/>
		<path id="_x31_80639895" fill="none" stroke="#010101" stroke-width="80" d="M8119.965,2437.626
			c20.069,100.813-124.668,87.925-193.703,71.884c-85.845-19.922-187.435-75.573-270.068-133.914l-131.754-221.374
			c6.87-5.845,14.35-10.575,22.959-13.223c24.781-7.56,48.848-6.768,72.037-0.975c38.873,9.532,75.479,32.868,109.974,53.305
			C7862.731,2272.264,7988.727,2355.554,8119.965,2437.626z"/>
		<path id="_x31_80639894" fill="none" stroke="#010101" stroke-width="80" d="M8493.537,3782.245l109.633,184.182
			c-45.871,72.231-101.746,136.745-168.989,189.902c-100.938,79.696-295.886,193.493-460.421,143.628
			c-239.896-72.669-321.002-300.298-440.772-523.885c-95.968-179.168-240.683-363.051-309.618-531.893
			c-12.045-29.481-25.291-59.031-39.359-88.651l1.494-0.677c41.26-28.662,66.488-53.898,80.818-86.622
			c42.828,5.711,92.514,1.324,129.788,23.093c52.079,30.356,75.042,89.022,98.056,141.574
			c49.51,113.515,80.458,233.819,130.491,346.96c63.13,142.84,102.319,315.534,209.499,434.102
			c150.713,166.635,336.759,56.825,493.906-43.689c20.264-12.986,40.516-25.446,55.895-42.295
			c25.63-28.078,25.793-25.484,36.953-37.914c5.008-5.576,15.824-18.045,25.924-30.963c9.176-11.738,16.137-26.415,22.818-37.547
			C8479.388,3805.33,8487.604,3793.408,8493.537,3782.245z"/>
		<path id="_x31_80639893" fill="none" stroke="#010101" stroke-width="80" d="M8493.537,3782.245l-46.7,76.852l-62.878,68.878
			c-17.027,15.211-35.633,29.309-55.893,42.295c-157.148,100.515-343.193,210.324-493.908,43.691
			c-107.181-118.566-146.373-291.262-209.5-434.102c-50.032-113.143-80.98-233.446-130.49-346.962
			c-23.014-52.551-45.977-111.218-98.057-141.574c-37.274-21.767-86.957-17.382-129.787-23.093
			c8.092-18.677,12.725-39.8,14.714-65.387c4.122-52.814-15.3-142.744-15.828-196.359c-0.881-101.117-2.74-185.9,21.284-283.467
			c9.285-37.773,18.661-71.444,29.471-102.886l2.628,0.884c100.664,67.436,115.01,179.459,143.954,287.244
			c31.229,115.83,65.615,233.659,100.438,348.803c44.936,148.433,90.102,297.837,169.163,432.631
			c57.464,97.969,190.896,360.577,332.073,347.526c69.989-6.558,131.816-46.193,181.662-100.468l0.377,0.296
			c25.215-30.821,44.656-54.659,66.664-93.833c23.074-41.078,36.572-77.854,41.908-93.95l111.425,187.151
			C8486.6,3770.588,8477.65,3755.557,8493.537,3782.245z"/>
		<path id="_x31_80639892" fill="none" stroke="#010101" stroke-width="80" d="M8133.154,3176.887l221.682,372.379
			c-21.914,65.044-59.479,133.513-108.949,187.487c-49.848,54.274-111.674,93.91-181.663,100.468
			c-141.179,13.047-274.609-249.558-332.073-347.528c-79.062-134.793-124.227-284.197-169.162-432.629
			c-34.824-115.144-69.209-232.974-100.438-348.804c-28.946-107.785-43.291-219.807-143.955-287.244l-2.628-0.884
			c24.954-72.664,57.83-133.504,116.669-205.94l-0.006-1.193c9.07-0.112,17.239-0.819,24.203-2.339
			c19.638,16.772,39.877,34.061,60.945,52.242l-4.924,5.616c1.207,1.933,2.566,4.09,4.075,6.544l-9.054,3.469
			c6.659,102.883,71.188,187.325,109.738,279.634c40.597,97.295,82.311,193.394,133.009,286.695
			c53.419,98.211,127.536,445.557,285.026,425.131C8078.428,3264.443,8110.262,3222.922,8133.154,3176.887z"/>
		<path id="_x31_80639891" fill="none" stroke="#010101" stroke-width="80" d="M8092.08,3107.857l41.074,69.03
			c-22.893,46.035-54.727,87.556-97.508,93.106c-157.488,20.424-231.607-326.922-285.025-425.133
			c-50.698-93.301-92.412-189.399-133.009-286.695c-38.55-92.309-103.079-176.751-109.739-279.634l9.055-3.469
			c22.271,36.673,73.863,128.924,101.678,146.854c54.799,35.267,91.713,78.066,119.732,126.719
			c28.02,48.728,47.145,103.382,66.361,162.364c34.939,107.312,43.068,220.629,99.645,320.839
			c27.041,48.06,74.023,113.562,138.141,101.209C8063.309,3129.009,8079.539,3120.14,8092.08,3107.857z"/>
		<path id="_x31_80639889" fill="none" stroke="#010101" stroke-width="80" d="M7656.193,2375.597l97.552,163.948l-15.403,9.088
			c-28.019-48.653-64.934-91.45-119.732-126.717c-27.814-17.932-79.408-110.182-101.678-146.855
			c-1.51-2.454-2.868-4.609-4.076-6.544l4.924-5.615c19.035,16.327,38.824,33.395,59.591,51.354
			C7600.242,2334.071,7627.02,2354.986,7656.193,2375.597z"/>
		<path id="_x31_80639890" fill="none" stroke="#010101" stroke-width="80" d="M7753.745,2539.545l338.335,568.312
			c-12.541,12.282-28.771,21.149-49.594,25.19c-64.117,12.351-111.1-53.15-138.141-101.21
			c-56.576-100.211-64.705-213.527-99.645-320.838c-19.217-58.983-38.342-113.638-66.36-162.364L7753.745,2539.545z"/>
		<path id="_x31_80639888" fill="none" stroke="#010101" stroke-width="80" d="M7524.438,2154.223l131.756,221.375
			c-29.174-20.608-55.953-41.525-78.824-61.341c-20.768-17.959-40.555-35.027-59.59-51.353
			c-21.068-18.182-41.308-35.473-60.945-52.243c1.574-0.305,3.146-0.684,4.569-1.063
			C7486.86,2202.481,7502.478,2172.884,7524.438,2154.223z"/>
		<path id="_x31_80639881" fill="none" stroke="#010101" stroke-width="80" d="M7244.001,3064.011
			c-9.563-2.489-18.53-5.914-26.616-10.788c-45.244-27.251-77.99-94.229-98.055-141.275c-23.02-53.968-27.296-107.867-37.213-165.32
			c-15.297-89.125-40.235-171.497-86.361-247.293c-2.311-3.803-4.501-7.642-6.588-11.512l-22.322,72.488
			c30.974,62.253,13.599,109.568,52.151,229.811c38.998,121.632,107.714,244.053,165.017,365.405l1.493-0.678
			c32.768-22.762,55.419-43.37,70.534-67.279c3.916-6.195,7.335-12.608,10.284-19.342
			C7258.626,3067.211,7251.148,3065.871,7244.001,3064.011z"/>
		<path id="_x31_80639880" fill="none" stroke="#010101" stroke-width="80" d="M7198.391,2175.655
			c-0.848-0.282-1.705-0.558-2.568-0.824c-86.734-26.729-148.248-1.615-167.896,88.495c-6.367,29.21,0.664,92.55-11.908,137.627
			l-2.758,8.635l-24.093,78.235c2.088,3.87,4.276,7.708,6.587,11.512c46.128,75.795,71.066,158.168,86.363,247.293
			c9.912,57.454,14.193,111.352,37.213,165.32c20.066,47.045,52.811,114.024,98.055,141.275c8.086,4.875,17.055,8.299,26.615,10.788
			c44.379-58.746,3.514-141.914-6.801-205.934c-12.824-79.491-17.927-160.32-6.892-240.329
			c14.426-104.569,63.416-213.833,51.501-319.966C7275.861,2244.764,7251.992,2193.528,7198.391,2175.655"/>
		<path id="_x31_80639879" fill="none" stroke="#010101" stroke-width="80" d="M7431.309,2212.985
			c-68.256,0.504-182.515-31.593-182.515-31.593c-18.35-1.577-34.437-5.958-48.866-12.5l-1.537,6.763
			c53.602,17.873,77.471,69.109,83.419,122.127c11.915,106.134-37.074,215.397-51.501,319.966
			c-11.037,80.009-5.934,160.838,6.892,240.329c10.313,64.02,51.179,147.188,6.801,205.934c7.147,1.86,14.625,3.199,22.325,4.22
			c8.092-18.677,12.725-39.8,14.714-65.387c4.122-52.814-15.3-142.744-15.829-196.359c-0.881-101.117-2.739-185.9,21.284-283.467
			c9.285-37.773,18.662-71.444,29.472-102.886c24.955-72.665,57.831-133.505,116.668-205.939c0,0,0.621-1.204,0.931-1.209
			L7431.309,2212.985z"/>
		<path id="_x31_80639887" fill="none" stroke="#010101" stroke-width="80" d="M6924.213,2212.763
			c-42.753-152.874-155.584-283.559-254.19-403.57c-7.989-9.661-16.047-19.248-24.335-28.683c-0.004-0.004-0.012-0.012-0.016-0.018
			c-14.236-0.575-28.474-1.26-42.723-1.355c-12.986-0.083-54.914,9.576-64.295-4.968c20.296,31.476,46.865,61.663,68.968,92.457
			c22.478,31.33,44.708,62.834,66.045,94.944c42.872,64.518,83.57,131.782,114.028,203.118c0.008,0.011,28.859,67.593,28.859,67.593
			c2.042,4.899,4.094,9.838,6.152,14.809c0.054,0.13,0.105,0.256,0.16,0.386l102.199-31.61
			C6924.783,2214.831,6924.502,2213.796,6924.213,2212.763z"/>
		<path id="_x31_80639885" fill="none" stroke="#010101" stroke-width="80" d="M6775.073,1772.981
			c-26.897,0.465-54.343,7.021-81.895,8.06c-15.847,0.596-31.677,0.093-47.507-0.548c0.004,0.006,0.012,0.012,0.016,0.018
			c8.288,9.435,16.346,19.021,24.335,28.683c98.608,120.011,211.438,250.696,254.19,403.57c0.289,1.033,0.572,2.069,0.854,3.103
			l7.256-2.242l145.553-51.443l-2.279-14.202l-23.483-62.607l-35.22-52.696l-25.572-38.261l-157.38-210.929
			C6814.945,1776.438,6795.312,1772.637,6775.073,1772.981z"/>
		<path id="_x31_80639886" fill="none" stroke="#010101" stroke-width="80" d="M7016.893,2032.675l35.221,52.696l23.483,62.608
			l2.28,14.202l74.854-26.456c-0.061-0.058-0.123-0.12-0.184-0.179c-20.221-19.766-37.457-43.993-55.2-68.965
			c-60.565-85.248-150.77-241.321-263.403-283.097l157.38,210.929L7016.893,2032.675z"/>
		<path id="_x31_80639884" fill="none" stroke="#010101" stroke-width="80" d="M6933.149,2250.152
			c-2.281-11.555-4.997-22.978-8.083-34.286l-102.2,31.609c43.437,104.831,90.812,224.063,135.114,296.816
			c3.336,5.479,6.271,10.804,8.865,16.021l22.322-72.488C6949.75,2414.731,6949.012,2330.258,6933.149,2250.152z"/>
		<path id="_x31_80639883" fill="none" stroke="#010101" stroke-width="80" d="M7077.877,2162.18l-145.553,51.442l-7.256,2.243
			c3.086,11.309,5.801,22.732,8.083,34.287c3.03,15.313,5.51,30.786,7.813,46.309c9.742,65.678,16.321,132.242,48.204,191.362
			l24.091-78.235l2.76-8.635c12.574-45.076,5.543-108.417,11.906-137.627c0.513-2.348,1.061-4.639,1.629-6.899
			c9.536-37.913,26.988-63.471,50.967-77.776L7077.877,2162.18z"/>
		<path id="_x31_80639882" fill="none" stroke="#010101" stroke-width="80" d="M7152.73,2135.725l-74.854,26.456l2.645,16.471
			c29.451-17.568,68.74-18.17,115.304-3.82c0.864,0.266,1.718,0.542,2.568,0.824l1.538-6.763
			C7182.014,2160.769,7166.66,2149.308,7152.73,2135.725z"/>
		<path id="_x31_80639847" fill="none" stroke="#010101" stroke-width="80" d="M6644.378,1956.49
			c-133.984-225.507-436.821-475.428-617.587-676.011c-92.127-102.223-156.919-223.945-243.357-330.257
			c-87.934-108.157-187.869-129.65-325.494-142.573c-183.699-17.252-368.416,24.162-535.816,97.164l5.854,1375.847l0.003-0.007
			c0,0,16.912,48.66,57.71,92.974c43.809,47.586,125.803,64.439,112.982,126.299c-14.695,70.902-36.334,183.543-66.406,250.096
			c-39.059,86.45-93.477,122.798-101.74,129.786l5.98,1405.568c127.452,4.438,326.455-194.375,449.961-215.664
			c232.464-40.079,369.717-23.928,592.07-34.807c87.68-4.293,358.17,69.203,459.421-86.458
			c58.176-89.436,44.581-195.143-32.101-585.122c0,0-7.224-81.081-1.371-85.359c23.41-17.111,78.887-52.381,186.743-72.726
			c134.831-25.421,219.71,18.28,219.71,18.28l24.838-328.223C6848.483,2606.077,6825.586,2261.474,6644.378,1956.49z"/>
		<path id="_x31_80639860" fill="none" stroke="#010101" stroke-width="80" d="M6093.746,1423.18
			c-2.995,3.333-5.965,6.7-8.91,10.104c-142.781,24.008-405.912-154.583-652.158-182.308
			c-242.106-27.26-394.402,15.148-506.58,76.396l-0.109-11.037c18.543-8.448,30.514-31.712,39.85-62.636
			c62.354-101.55,206.119-231.65,472.256-174.721C5734.914,1142.475,5982.742,1386.533,6093.746,1423.18z"/>
		<path id="_x31_80639861" fill="none" stroke="#010101" stroke-width="80" d="M6097.961,1418.54
			c-1.416,1.542-2.815,3.082-4.215,4.642c-111.006-36.648-358.832-280.707-655.656-344.202
			c-266.135-56.929-409.901,73.17-472.256,174.721c12.657-41.969,20.447-98.039,33.186-150.354
			c24.735-101.577,51.776-170.86,224.067-194.833c347.665-48.355,632.245,161.875,778.315,421.951
			c16.294,29.015,27.011,57.43,58.391,71.675C6059.793,1402.138,6079.131,1413.22,6097.961,1418.54z"/>
		<path id="_x31_80639862" fill="none" stroke="#010101" stroke-width="80" d="M4965.836,1253.7
			c-9.334,30.925-21.307,54.188-39.848,62.636l-3.864-411.522c167.401-73.009,352.116-114.414,535.82-97.169
			c137.618,12.927,237.556,34.417,325.493,142.58c86.432,106.307,151.223,228.031,243.35,330.251
			c22.427,24.878,76.639,79.057,103.286,105.53c-11.112,10.409-21.8,21.284-32.108,32.534
			c-18.831-5.318-38.168-16.402-38.168-16.402c-31.381-14.244-42.098-42.659-58.393-71.674
			c-146.068-260.075-430.647-470.306-778.315-421.951c-172.293,23.972-199.331,93.256-224.066,194.833
			C4986.283,1155.662,4978.493,1211.73,4965.836,1253.7z"/>
		<path id="_x31_80639848" fill="none" stroke="#010101" stroke-width="80" d="M6835.037,2721.301
			c-144.932,139.103-97.644-210.153-106.275-256.58c-44.766-240.779-155.445-445.718-297.053-648.439
			c-60.829-87.095-137.856-188.685-225.262-248.665c-79.961-54.874-201.446-136.66-8.52-111.644
			c-18.73-18.417-37.178-36.638-55.162-54.614l-2.997,2.93c-112.932,105.651-176.591,258.515-256.667,388.206
			c-93.457,151.367-75.248,336.697-46.889,505.463c29.28,174.166,41.741,203.908,106.363,332.644
			c77.1,153.607,225.089,280.481,383.689,321.536c170.113,44.027,310.439,29.249,504.616-34.445c0,0,4.759-19.167,4.898-22.392
			c2.582-58.825,3.692-119.939,2.3-182.544C6836.206,2718.291,6835.037,2721.301,6835.037,2721.301z"/>
		<path id="_x31_80639854" fill="none" stroke="#010101" stroke-width="80" d="M5763.602,3013.448
			c-3.213-11.404-8.75-22.89-10.32-33.583c-6.027-41.086,22.762-89.971,0.848-128.387c-11.182-19.608-24.433-32.152-44.582-13.86
			c-23.835,21.642-6.282,59.115-3.385,83.807c3.759,32.018-1.518,68.359-20.594,94.334
			c-11.701,15.936-138.911,168.773-57.395,144.422c41.955-12.545,24.357-66.154,60.82-87.32
			c20.955-12.163,59.793-6.17,73.107-29.542C5767.504,3033.844,5766.49,3023.683,5763.602,3013.448z"/>
		<path id="_x31_80639855" fill="none" stroke="#010101" stroke-width="80" d="M5932.461,3394.043
			c15.897,17.413,46.166,29.749,46.166,55.391c-13.376,28.555-20.561,48.868-30.266,114.229
			c-2.99,20.105-19.131,13.404-42.635,3.312c-13.609-5.844-46.211-16.621-69.74-15.067c-34.721,5.972-77.332,11.226-119.207,21.814
			c-31.006,7.839-35.307,10.899-80.68,26.7c-54.193,18.869-110.27,50.755-194.313,58.123
			c-181.92,15.945-265.403,51.779-269.108,3.986c-4.721-43.716,89.266-72.465,131.443-111.146
			c46.611-25.967,88.797-52.082,117.299-75.92c89.645-74.954,185.836-174.595,213.992-214.674c1.715-2.437,3.41-4.882,5.11-7.346
			c49.97-42.123,104.956-60.799,151.899-12.066c9.95,28.2,25.863,54.77,42.873,75.859
			C5872.839,3363.771,5882.391,3379.606,5932.461,3394.043z"/>
		<path id="_x31_80639856" fill="none" stroke="#010101" stroke-width="80" d="M5993.973,2738.131
			c-26.091-30.861-53.047-62.753-70.705-97.94c-65.044-129.562-78.244-159.618-108.351-338.692
			c-30.161-179.478-45.005-366.721,49.797-520.248c16.439-26.632,32.202-53.991,48.388-82.522l-1.523-2.16
			c-30.008,35.018-99.629,66.757-258.057-51.6c-120.772-90.208-293.021-155.363-430.441-152.299
			c-58.896,1.308-141.102,32.286-242.229,35.824c-22.271-0.583-41.101-3.745-52.929-6.28l2.645,281.306l86.758,16.629
			c44.476,8.006,87.001,15.671,126.762,27.142c-1.273-3.826-3.797-6.889-8.582-8.663c-6.668-2.473-13.58-4.922-20.933-7.439
			c-41.548-14.225-14.01-31.931-7.624-29.796c32.973,11.01,145.018,54.558,176.209,70.228
			c47.938,24.082,125.969,65.594,128.436,127.667c2.699,68.354-52.736,1.462-70.137-18.595c-2.012-2.318-5.512-2.657-9.312-2.604
			c6.898,10.427,13.513,21.615,19.814,33.675l44.894,88.554c24.601,49.342,47.829,95.952,80.717,153.866
			c33.204,58.488,100.759,131.498,166.085,202.107c47.584,51.438,92.553,100.027,121.484,140.25
			c33.709,46.833,43.477,102.49,43.723,159.214c0.316,75.616-43.693,221.536,61.044,249.252
			c56.07,14.835,135.216-25.881,160.601-75.966C6056.281,2878.173,6030.047,2780.789,5993.973,2738.131z"/>
		<path id="_x31_80639857" fill="none" stroke="#010101" stroke-width="80" d="M5199.684,1866.868
			c-30.396-15.463-53.762-24.945-85.117-35.682c-41.547-14.225-14.008-31.929-7.623-29.796
			c32.972,11.011,145.02,54.559,176.211,70.229c47.938,24.083,125.967,65.595,128.434,127.668
			c2.699,68.354-52.734,1.461-70.136-18.595c-31.154-35.919-63.765-71.646-105.869-95.038
			C5227.395,1881.109,5210.975,1872.614,5199.684,1866.868z"/>
		<path id="_x31_80639859" fill="none" stroke="#010101" stroke-width="80" d="M5911.576,1696.567
			c-30.008,35.018-99.629,66.757-258.059-51.6c-120.771-90.208-293.02-155.362-430.439-152.298
			c-58.896,1.308-141.103,32.285-242.229,35.824c-22.271-0.583-41.103-3.745-52.93-6.28l-0.722-77.103
			c18.056-6.101,35.045-14.8,50.076-27.915c18.426-16.069,29.26-25.163,52.678-30.106c64.115-13.519,132.391-11.224,197.615-13.76
			c130.559-5.079,270.182,18.812,392.596,65.467c32.112,12.237,344.605,188.015,295.17,253.114
			C5914.158,1693.458,5912.904,1695.018,5911.576,1696.567z"/>
		<path id="_x31_80639858" fill="none" stroke="#010101" stroke-width="80" d="M5915.332,1691.909
			c49.438-65.099-263.058-240.877-295.17-253.114c-122.414-46.654-262.037-70.546-392.595-65.466
			c-65.226,2.535-133.503,0.242-197.614,13.758c-23.418,4.946-34.251,14.039-52.678,30.107
			c-15.03,13.116-32.022,21.816-50.078,27.915l-1.102-117.738c112.178-61.247,264.476-103.655,506.58-76.396
			c246.248,27.726,509.379,206.316,652.16,182.308c-62.554,72.382-111.303,158.596-158.734,242.491
			c-4.38,7.739-8.704,15.39-13,22.951l-1.525-2.159C5912.904,1695.018,5914.158,1693.458,5915.332,1691.909z"/>
		<path id="_x31_80639849" fill="none" stroke="#010101" stroke-width="80" d="M5747.574,2609.04
			c-67.374-93.623-229.633-240.062-288.815-344.298c-52.095-91.765-80.63-156.264-125.975-243.071
			c-85.181-163.058-226.649-158.691-406.749-197.148l1.941,456.13c0,0,16.912,48.658,57.709,92.972
			c43.81,47.586,125.805,64.44,112.983,126.299c-14.694,70.903-36.335,183.543-66.405,250.098
			c-45.582,100.894-112.098,133.549-101.737,130.928l0.601,140.948c2.727-17.594,9.264-33.99,24.845-46.984
			c24.067-20.071,62.403-20.604,83.269,4.273c36.925,44.028-4.256,133.135-14.685,182.312c-13.298,62.744-0.188,127.977-6.3,191.67
			c-6.169,64.288-16.499,128.092-25.929,191.954c-8.047,54.499-14.056,109.812-16.553,164.834
			c-0.966,21.361-3.604,42.93-6.038,64.571c12.381-44.885,46.664-74.577,122.621-113.729
			c97.25-50.127,256.943-125.031,329.056-185.336c89.646-74.95,185.835-174.594,213.992-214.671
			c43.659-62.165,81.862-130.75,107.325-202.449c-17.119,6.361-39.533,6.272-53.737,14.518
			c-36.464,21.166-18.866,74.774-60.819,87.319c-81.517,24.352,45.691-128.487,57.394-144.422
			c19.076-25.976,24.353-62.316,20.595-94.333c-2.898-24.692-20.452-62.167,3.385-83.809c20.146-18.292,33.4-5.748,44.58,13.861
			c21.913,38.418-6.874,87.302-0.847,128.386c1.044,7.122,3.849,14.592,6.554,22.155c6.834-27.199,11.65-54.712,14.058-82.368
			C5782.871,2816.565,5809.478,2695.039,5747.574,2609.04z"/>
		<path id="_x31_80639853" fill="none" stroke="#010101" stroke-width="80" d="M5979.703,3049.009l-0.235,0.062l0.219-0.055
			l-34.627,6.861c-47.452,8.931-96.511,18.167-127.462,46.62c-66.229,60.862-28.23,157.797,17.695,214.738
			c57.66,71.461,128.081,97.087,215.145,59.677c67.932-29.192,160.285-36.366,218.26-84.837
			c72.855-60.935-14.765-144.641-51.375-193.33c-21.836-29.046-41.303-65.958-78.33-77.413
			C6086.79,3005.183,6029.27,3038.161,5979.703,3049.009z"/>
		<path id="_x31_80639850" fill="none" stroke="#010101" stroke-width="80" d="M5067.336,4084.547
			c31.116,58.625,91.496,83.575,144.576,36.15c56.929-50.843,68.954-153.606,53.481-224.486
			c-17.861-81.714-90.87-125.496-158.286-69.034C5037.699,3885.284,5025.495,4005.672,5067.336,4084.547z"/>
		<path id="_x31_80639852" fill="none" stroke="#010101" stroke-width="80" d="M5956.082,4042.447
			c60.738,0.363,119.068,0.752,184.104,3.799c79.235,3.714,180.541,5.48,248.02-44.139
			c111.512-81.998,88.577-239.807,68.789-362.607c-14.647-90.896-61.648-271.864-179.994-287.354
			c-80.666-10.55-176.319,27.752-244.629,67.169c-69.275,39.974-64.203,83.633-74.883,155.593
			c-9.922,66.74,20.177,116.01,50.199,181.272c22.342,48.568,90.35,79.503,133.748,123.109
			c24.451,24.572,84.236,97.397,33.602,103.356c-59.658-15.305-110.561-56.002-162.127-89.582
			c-56.166-36.579-119.604-79.285-180.352-104.881c-87.617-36.916-206.758-33.238-309.104,52.031
			c-54.418,45.341-57.146,146.918,19.008,187.821c41.324,22.201,199.438,11.11,270.86,12.801
			C5859.516,4041.927,5910.021,4042.168,5956.082,4042.447z"/>
		<path id="_x31_80639851" fill="none" stroke="#010101" stroke-width="80" d="M4935.494,4046.752
			c72.274-45.047,35.893-113.13,30.303-181.608c-4.224-51.686,7.668-104.034,9.984-155.188
			c2.498-55.021,8.506-110.335,16.553-164.834c9.427-63.861,19.76-127.666,25.93-191.952c6.11-63.696-7-128.926,6.299-191.672
			c10.43-49.178,51.609-138.283,14.686-182.313c-20.865-24.876-59.201-24.343-83.27-4.273
			c-32.447,27.06-23.377,68.116-24.615,104.767c-3.419,100.827-2.633,201.888-0.277,303.045
			c4.223,181.369-0.322,362.83,3.322,544.193C4935.203,3966.863,4935.322,4006.888,4935.494,4046.752z"/>
		<path id="_x31_80639863" fill="none" stroke="#010101" stroke-width="80" d="M7230.19,4854.896
			c-44.123-72.305-147.096,6.615-176.449-66.369c-36.579-90.93,33.909-230.076,21.274-283.47
			c-56.089-237.18,28.5-350.61,5.66-432.55c-36.184-129.781-90.338-89.1-190.256-81.222
			c-41.578,3.278-79.775-234.144-89.459-469.431c-4.645-113.003-5.135-171.712,6.359-268.486c2.561-21.579,6.723-26.651,0.17-31.195
			c-6.506-4.513-39.756-14.406-54.77-16.932c-30.642-5.155-56.188-8.298-94.124-8.692c-27.864-0.289-56.962,5.963-83.368,12.496
			c-42.723,10.567-74.233,20.072-100.322,32.098c-13.877,6.398-23.74,14.772-38.355,20.945
			c-9.486,4.009-15.844,10.963-18.361,25.259c-15.508,88.071,92.066,383.347,69.453,593.775
			c-16.047,149.323-204.375,193.217-264.059,192.52c-233.572-2.71-442.394-23.001-729.631,5.554
			c-177.596,17.658-270.203,116.362-379.104,168.14c-137.164,65.21-178.252,60.409-178.09,97.702l4.003,941.121
			c36.718,39.809,36.788,78.815,38.412,130.715c1.439,45.828,8.173,91.391,10.444,137.24c4.908,99.283,26.217,183.838,4.84,284.229
			c-9.551,44.854-27.895,85.517-50.816,124.982l1.672,392.648c30.016,7.33,53.691,28.67,102.435,33.123
			c48.744,4.457,119.905-7.959,191.073-19.445c312.19-50.385,530.455-27.495,745.236-156.014
			c175.72-105.141,336.079-295.976,470.331-456.871c49.12-58.87,81.733-98.506,119.495-104.904
			c37.766-6.407,95.01,19.363,134.904-8.025c133.881-91.914,261.937-138.414,351.691-150.628
			c190.616-25.938,269.855,86.182,325.753-79.671C7406.203,5354.312,7341.34,5037.008,7230.19,4854.896z M5582.141,6156.408
			c-25.656-11.441-52.52-21.354-82.182-26.605c-88.367-15.658-179.509-9.45-268.008-27.297
			c-23.557-4.756-106.078-15.152-114.217-44.226c-5.57-19.911,64.26-60.323,64.26-60.323
			c99.566-56.352,230.555-130.359,353.672-100.785c64.566,15.508,108.97,61.006,119.006,126.76
			C5662.967,6078.298,5582.141,6156.408,5582.141,6156.408z"/>
		<path id="_x31_80639874" fill="none" stroke="#010101" stroke-width="80" d="M6572.276,3636.809
			c-20.005,9.406-89.257,35.528-89.148,63.496c-0.045,1.012-0.271,1.767-0.585,2.329
			c-27.129-224.024-101.416-404.273-36.776-431.775c34.927-14.88,153.459-69.853,263.426-65.355
			c38.513,1.595,102.039,14.93,98.132,47.869c-11.492,96.775-11.004,155.48-6.356,268.487c0.642,15.544,1.399,31.094,2.284,46.582
			c-21.027,0.071-42.224,8.745-62.041,14.576C6685.141,3599.524,6625.342,3611.853,6572.276,3636.809z"/>
		<path id="_x31_80639872" fill="none" stroke="#010101" stroke-width="80" d="M6810.716,3669.398l-3.503-0.286
			c-45.057-3.153-103.078,20.023-145.933,32.42c-58.201,16.841-116.43,31.058-173.981,47.111c-1.273-15.168-2.88-30.53-4.758-46.01
			c0.316-0.562,0.542-1.317,0.586-2.329c-0.109-27.97,69.143-54.09,89.148-63.496c53.063-24.956,112.865-37.284,168.935-53.794
			c19.815-5.831,41.015-14.502,62.04-14.575C6805.191,3602.642,6807.709,3636.549,6810.716,3669.398z"/>
		<path id="_x31_80639873" fill="none" stroke="#010101" stroke-width="80" d="M6887.641,3991.15l-0.289,1.641
			c-45.49-7.92-90.672-17.549-136.877-19.977c-27.289-1.436-55.295-5.232-82.504-5.196c-58.029,0.091-99.285,14.19-148.136-29.257
			c-11.095-9.873-18.326-20.55-23.003-31.803l-9.189-25.434c4.369-40.698,3.602-85.647-0.344-132.483
			c57.552-16.054,115.78-30.271,173.981-47.111c42.856-12.398,100.876-35.573,145.933-32.419l3.503,0.286
			C6826.523,3841.916,6855.927,3985.507,6887.641,3991.15z"/>
		<path id="_x31_80639866" fill="none" stroke="#010101" stroke-width="80" d="M6652.869,5400.59
			c9.15,0.609,24.327-4.727,32.107-6.186c11.771-2.207,23.463-4.827,34.963-8.168c24.006-6.975,46.982-17.122,68.088-30.494
			c45.052-28.531,80.236-70.017,106.158-116.101c13.564-24.127,28.574-51.272,36.652-77.82
			c30.956-101.821,17.123-201.538,19.879-305.397c2.314-87.199,19.755-136.57-38.025-211.662
			c-61.623-80.082-77.352-168.979-110.334-262.049c-8.035-22.678-31.346-53.342-60.39-87.921l-7.706-7.038
			c-16.314-5.321-31.504-12.554-47.449-18.938c-26.869-10.763-128.814,108.867-141.213,128.325
			c-45.416,71.291-6.227,140.979,7.49,214.409c16.225,86.822,44.105,177.516,49.237,265.606c1.404,24.192-1.806,49.664-4.697,73.622
			c-4.389,36.297-9.78,72.366-13.071,108.801c-3.649,40.277-9.012,80.724-10.084,121.176c-0.997,37.513,2.941,75.297,7.172,112.538
			c4.067,35.906,18.66,61.383,42.625,88.253c3.094,3.464,6.364,8.516,10.139,11.201
			C6639.334,5396.225,6651.795,5400.518,6652.869,5400.59z"/>
		<path id="_x31_80639865" fill="none" stroke="#010101" stroke-width="80" d="M6566.983,4134.422
			c-22.06-19.221-120.054-45.344-145.908-44.215c-60.53,2.65-133.042-5.666-177.96,43.812
			c-56.203,61.904-7.935,135.304,51.84,166.005c75.589,38.817,191.219,41.497,267.195-0.369
			C6652.117,4250.066,6621.795,4182.185,6566.983,4134.422z"/>
		<path id="_x31_80639867" fill="none" stroke="#010101" stroke-width="80" d="M5806.961,6221.762
			c10.369-0.818,21.086-2.408,32.199-4.887c59.085-13.175,158.191-99.871,212.531-44.528l1.596-1.948
			c148.917-109.154,285.161-272.859,401.584-413.635c20.066-24.266,37.355-45.252,53.361-62.002l-1.62-1.602
			c-32.062-75.276-59.653-147.628-60.29-228.432l-1.362,0.004c-26.89-10.803-40.792-19.789-69.275-19.609
			c-118.735,0.738-260.956,37.778-324.394,146.178c-12.604,21.529-14.285,46.679-26.851,67.263
			c-16.274,26.679-77.206,27.011-107.28,40.304c-34.922,15.434-73.217,33.188-105.299,53.277
			c-31.273,19.578-50.618,56.268-71.697,85.287c-49.752,68.493-91.663,155.178-66.309,242.265
			c19.348,66.464,77.207,104.454,132.834,138.424L5806.961,6221.762z"/>
		<path id="_x31_80639868" fill="none" stroke="#010101" stroke-width="80" d="M4940.273,4914.258
			c76.746-63.105,219.75-77.72,258.627,38.914c16.644,49.953,4.01,118.303-25.899,161.765
			c-24.069,34.981-70.226,62.802-111.854,70.341c-44.069,7.979-97.728-21.848-122.459-57.237L4940.273,4914.258z"/>
		<path id="_x31_80639864" fill="none" stroke="#010101" stroke-width="80" d="M6447.131,4930.902
			c22.584-2.254,56.275,12.816,79.002,75.87c26.758,74.259,70.136-62.873,46.414-111.819
			c-28.633-59.064-67.566-27.693-131.25-25.549c-59.145,1.996-89.786,36.293-83.635,96.998
			c1.885,18.693,23.232,81.648,49.785,72.918C6435.708,5030.038,6404.188,4935.236,6447.131,4930.902z"/>
		<path id="_x31_80639870" fill="none" stroke="#010101" stroke-width="80" d="M5170.412,4436.499
			c111.682,89.135,169.008,163.476,109.805,258.612c-39.082,62.808-109.48,97.152-181.312,127.637l0.893-3.619
			c19.826-85.317,11.557-180.65,1.336-266.945c-8.26-69.793-12.938-131.426-58.248-187.71l-1.6-2.168
			C5084.415,4377.536,5127.585,4402.323,5170.412,4436.499z"/>
		<path id="_x31_80639869" fill="none" stroke="#010101" stroke-width="80" d="M4936.775,4343.969l1.066,0.17
			c34.332-0.133,68.871,5.949,103.447,18.167l1.599,2.167c45.31,56.285,49.985,117.918,58.248,187.711
			c10.218,86.295,18.487,181.628-1.335,266.945l-0.893,3.618c-8.686,3.681-17.396,7.31-26.072,10.929l-38.619,16.323l-35.398,16.698
			c-19.58,9.594-39.795,19.494-59.729,26.113l-2.328-547.777C4936.758,4344.678,4936.758,4344.318,4936.775,4343.969z"/>
		<path id="_x31_80639871" fill="none" stroke="#010101" stroke-width="80" d="M6398.621,5046.57
			c83.975,42.104,145.363,82.551,139.946,133.623c-11.935,139.783-92.803,186.09-119.286,211.27
			c-20.133,14.993-43.773,32.206-51.555,32.252c-118.732,0.742-211.752,33.48-310.123,136.215
			c-17.281,18.048-47.281,57.115-59.848,77.691c-16.276,26.688-50.518,47.961-80.597,61.245
			c-34.921,15.435-73.217,33.189-105.29,53.282c-7.041,4.408-13.48,9.674-19.454,15.533
			c-121.063,70.627-84.255,134.471-251.558,130.816c-1.715-0.467-3.448-0.906-5.19-1.326c-34.413-8.268-69.433-8.438-104.215-3.17
			c-160.729,0.214-216.331,42.353-332.942-73.359c-83.966-86.008-100.216-416.603-18.957-532.174
			c81.258-115.578,251.898-440.787,319.607-607.428c24.994-61.508,47.096-88.07,71.436-160.316
			c7.328-21.75,17.736-84.447,15.347-100.332c-4.444-29.562-9.688-45.863-15.347-49.78c-16.369-11.338-20.469-7.093-34.305-8.305
			c-25.867-2.263-49.469-2.589-79.611,2.172c-69.756,11.016-214.838,55.851-174.203-75.844
			c21.666-59.134,48.75-88.696,70.426-104.83c97.508-61.812,289.814-94.071,782.772-86.01
			c150.854,4.919,170.749-3.618,185.429,74.632c-14.246,51.366,26.134,103.081,73.855,127.594
			c26.298,13.497,57.425,22.639,90.051,27.037c80.147,25.657,117.9,44.092,123.227,82.521
			c-22.209,42.347-40.09,61.618-62.467,134.389c-26.484,79.463-27.031,118.26-34.672,180.078
			c-8.596,69.57-55.803,120.951-63.928,188.145C6341.746,4995.51,6371.06,5032.752,6398.621,5046.57z"/>
		<path id="_x31_80639875" fill="none" stroke="#010101" stroke-width="80" d="M4989.623,5554.115
			c-2.273-45.852-9.007-91.412-10.443-137.24c-1.625-51.899-1.695-90.906-38.412-130.715l2.879,677.164
			c22.924-39.466,41.265-80.124,50.818-124.982C5015.84,5737.955,4994.532,5653.398,4989.623,5554.115z"/>
		<path id="_x31_80639876" fill="none" stroke="#010101" stroke-width="80" d="M5535.664,5897.172
			c-123.116-29.574-254.105,44.436-353.672,100.785c0,0-69.83,40.413-64.26,60.323c8.14,29.073,90.66,39.474,114.219,44.226
			c88.498,17.847,179.639,11.639,268.008,27.297c29.66,5.252,56.523,15.164,82.182,26.607c0,0,80.824-78.11,72.529-132.477
			C5644.635,5958.18,5600.232,5912.682,5535.664,5897.172z"/>
		<path id="_x31_80639878" fill="none" stroke="#010101" stroke-width="80" d="M5117.734,6058.282
			c8.141,29.073,90.66,39.472,114.219,44.226c88.497,17.847,179.639,11.638,268.007,27.297
			c29.661,5.252,56.524,15.164,82.183,26.606c0,0,80.824-78.111,72.529-132.476c-10.036-65.756-54.438-111.252-119.006-126.76
			c-123.117-29.576-254.105,44.434-353.672,100.783C5181.992,5997.957,5112.164,6038.372,5117.734,6058.282z"/>
		<path id="_x31_80639877" fill="none" stroke="#010101" stroke-width="80" d="M4939.351,5284.641
			c38.135,40.334,38.183,79.675,39.827,132.234c1.438,45.828,8.172,91.391,10.443,137.24c4.909,99.283,26.217,183.838,4.841,284.229
			c-9.747,45.766-28.643,87.168-52.216,127.387L4939.351,5284.641z"/>
		<path id="_x31_80639934" fill="none" stroke="#010101" stroke-width="80" d="M8681.221,4965.621
			c-14.545,104.462-102.421,301.141-213.289,378.728c-139.002,97.284-312.814,26.374-334.536-106.76
			c-21.515-131.849,75.897-209.547,172.966-280.337C8360.534,4917.735,8698.734,4839.876,8681.221,4965.621z"/>
		<path id="_x31_80639935" fill="none" stroke="#010101" stroke-width="80" d="M7257.564,3947.48
			c104.854-10.883,200.258,83.67,201.168,297.443c0.911,213.771-73.438,358.266-153.414,353.627
			c-79.987-4.637-185.568-153.33-181.251-312.439C7128.383,4126.996,7157.653,3957.847,7257.564,3947.48z"/>
		<path id="_x31_80639936" fill="none" stroke="#010101" stroke-width="80" d="M6914.021,3078.922
			c53.282-13.493,140.491,133.643,150.747,193.255c10.254,59.615,70.862,208.499-58.994,228.935
			c-55.184,8.686-115.186-54.208-135.637-163.487C6849.691,3228.34,6854.105,3094.092,6914.021,3078.922z"/>
		<path id="_x31_80639939" fill="none" stroke="#010101" stroke-width="80" d="M6914.021,3078.922
			c53.282-13.493,140.491,133.643,150.747,193.255c10.254,59.615,70.862,208.499-58.994,228.935
			c-55.184,8.686-115.186-54.208-135.637-163.487C6849.691,3228.34,6854.105,3094.092,6914.021,3078.922z"/>
		<path id="_x31_80639937" fill="none" stroke="#010101" stroke-width="80" d="M8681.221,4965.621
			c-14.545,104.462-102.421,301.141-213.289,378.728c-139.002,97.284-312.814,26.374-334.536-106.76
			c-21.515-131.849,75.897-209.547,172.966-280.337C8360.534,4917.735,8698.734,4839.876,8681.221,4965.621z"/>
		<path id="_x31_80639938" fill="none" stroke="#010101" stroke-width="80" d="M7257.564,3947.48
			c104.854-10.883,200.258,83.67,201.168,297.443c0.911,213.771-73.438,358.266-153.414,353.627
			c-79.987-4.637-185.568-153.33-181.251-312.439C7128.383,4126.996,7157.653,3957.847,7257.564,3947.48z"/>
		<path id="_x31_80639941" fill="none" stroke="#010101" stroke-width="80" d="M7509.676,2102.829
			c6.112,9.371,5.617,16.159-4.952,16.576c-88.891,3.879-155.233-66.46-182.862-93.639c-13.456-8.817-20.453-14.604-22.641-17.951
			c-3.396-5.28,5.152-4.719,19.787-0.903c33.32,8.734,97.898,34.264,122.908,44.972c19.676,8.417,38.697,21.239,52.166,33.488
			C7500.933,2091.531,7506.355,2097.622,7509.676,2102.829z"/>
		<path id="_x31_80639942" fill="none" stroke="#010101" stroke-width="80" d="M4943.873,5965.715
			c79.043-11.141,156.247-42.914,242.303-6.168c32.32,35.463-76.843,69.13-68.441,98.735c8.256,29.073,91.925,39.47,115.811,44.22
			c89.737,17.839,182.152,11.626,271.756,27.277c120.299,21.02,195.25,116.455,327.875,87.123
			c59.62-13.177,159.604-99.883,214.426-44.541l-63.543,41.273c-214.779,128.519-433.045,105.629-745.236,156.014
			c-71.166,11.486-142.329,23.903-191.073,19.446c-48.744-4.454-74.286-25.786-102.435-33.123L4943.873,5965.715z"/>
		<path id="_x31_80639943" fill="none" stroke="#010101" stroke-width="80" d="M6506.598,5693.158
			c-36.168-84.164-66.697-164.674-59.871-257.426c7.623-103.469,21.184-108.624,102.538-62.438
			c156.454,88.835,334.503-56.626,381.573-211.473c30.957-101.821,17.123-201.538,19.881-305.397
			c2.312-87.199,19.754-136.57-38.027-211.662c-61.621-80.082-77.352-168.979-110.333-262.049
			c-32.157-90.734-308.59-309.13-219.306-395.096c38.896-37.466,330.518,11.031,330.518,11.031
			c56.15-2.785,125.639-74.91,167.109,73.87c22.84,81.933-61.75,195.365-5.66,432.545c12.633,53.394-57.854,192.54-21.274,283.47
			c29.353,72.984,132.326-5.936,176.448,66.369c111.15,182.11,176.014,499.416,156.047,558.639
			c-55.898,165.853-135.135,53.73-325.753,79.672c-89.755,12.215-217.812,58.713-351.692,150.629
			c-39.893,27.387-96.951,2.824-134.904,8.023C6545.794,5655.707,6506.598,5693.158,6506.598,5693.158z"/>
		<path id="_x31_80639944" fill="none" stroke="#010101" stroke-width="80" d="M6199.953,1456.236
			c-195.816-25.854-73.746,56.316,6.494,111.381c87.405,59.98,164.434,161.57,225.262,248.665
			c141.605,202.721,252.287,407.657,297.053,648.437c8.632,46.429-38.656,395.685,106.275,256.581c0,0,6.719-109.403-8.467-228.657
			c-15.193-119.248-52.289-248.351-73.713-293.006c0,0-28.625-92.119-75.729-181.139
			c-45.455-85.906-108.781-168.062-143.318-208.203c-70.321-81.734-203.33-217.892-223.43-242.666
			C6290.279,1542.862,6199.953,1456.236,6199.953,1456.236z"/>
		<path id="_x31_80639945" fill="none" stroke="#010101" stroke-width="80" d="M6101.164,2903.357
			c42.535,12.254,221.188,67.95,257.721,78.468c129.672,37.342,334.818-3.899,474.602-39.281l-22.542,280.977
			c-125.779-49.806-223.124-23.295-327.915,14.431c-93.811,33.779-70.129,126.122-113.914,95.561
			c-61.587-42.991-31.443-168.329-109.781-254.95C6181.512,2992.511,6068.662,2893.998,6101.164,2903.357z"/>
		<path id="_x31_80639946" fill="none" stroke="#010101" stroke-width="80" d="M5113.204,3713.531
			c-0.53-57.843-38.615-50.248-104.231-0.087c-66.334,50.704-63.488,212.973,28.135,173.787
			C5111.933,3855.224,5113.662,3762.723,5113.204,3713.531z"/>
		<path id="_x31_80639947" fill="none" stroke="#010101" stroke-width="80" d="M5279.323,4728.881
			c-30.456,44.404-119.528,97.449-89.054,134.346c112.539,79.559,223.232-228.379,258.26-301.602
			c18.299-38.252,37.94-111.303,31.826-154.252c-12.774-89.796-54.833,6.852-69.719,57.467
			C5367.098,4612.894,5341.146,4638.748,5279.323,4728.881z"/>
		<path id="_x31_80639948" fill="none" stroke="#010101" stroke-width="80" d="M6486.831,4863.002
			c-5.353,1.961-50.143,3.046-62.542-14.65c-18.485-26.403-0.471-98.616,1.953-129.266c3.158-39.953,43.848-210.989,89.049-214.151
			c36.355-2.528,58.48,12.176,52.638,37.063c-12.277,52.254-61.017,159.458-71.505,226.512
			C6491.597,4799.347,6514.668,4852.822,6486.831,4863.002z"/>
		<path id="_x31_80639949" fill="none" stroke="#010101" stroke-width="80" d="M6517.694,5069.195
			c-51.622,48.744-141.382-107.917-74.679-135.754C6495.895,4911.369,6553.74,5035.146,6517.694,5069.195z"/>
		<path id="_x31_80639950" fill="none" stroke="#010101" stroke-width="80" d="M5733.766,3766.847
			c105.419-0.073,190.772,78.227,279.164,126.22c54.083,29.371,102.453,74.273,162.111,89.579
			c50.635-5.96-9.153-78.785-33.604-103.357c-43.396-43.606-100.458-68.848-133.748-123.108
			c-34.621-56.438-55.426-196.424-148.621-198.038c-76.943-1.336-159.81,28.013-284.559,70.794
			c-96.049,32.945-144.69,57.784-287.029,98.177c-135.65,38.541-63.945,113.271,113.488,75.771
			C5505.18,3780.859,5617.292,3766.921,5733.766,3766.847z"/>
		<path id="_x31_80639940" fill="none" stroke="#010101" stroke-width="80" d="M4927.979,2280.651c0,0,16.912,48.659,57.711,92.973
			c43.808,47.586,125.803,64.438,112.981,126.297c-14.694,70.905-36.335,183.545-66.407,250.098
			c-45.58,100.894-112.096,133.55-101.735,130.93L4927.979,2280.651z"/>
	</g>
</g>
</svg>
