<?xml version="1.0" encoding="utf-8"?>
<!-- Generator: Adobe Illustrator 16.0.0, SVG Export Plug-In . SVG Version: 6.00 Build 0)  -->
<!DOCTYPE svg PUBLIC "-//W3C//DTD SVG 1.1//EN" "http://www.w3.org/Graphics/SVG/1.1/DTD/svg11.dtd">
<svg version="1.1" id="Layer_1" xmlns="http://www.w3.org/2000/svg" xmlns:xlink="http://www.w3.org/1999/xlink" x="0px" y="0px"
	 width="9744px" height="6823.471px" viewBox="0 0 9744 6823.471" enable-background="new 0 0 9744 6823.471" xml:space="preserve">
<g transform="scale(1.0)">
	<g id="_x31_80640853" transform=" scale(1.0, 1.0)">
		<path id="_x31_80640855" fill="none" stroke="#010101" stroke-width="80" d="M4919.862,6242.078
			c12.821,14.403,43.17,27.291,66.087,40.699c36.297,21.235,70.289,39.549,108.512,52.175
			c157.056,51.902,265.305,50.932,417.942-0.679c148.025-50.049,301.559-80.698,449.714-130.488
			c190.729-64.096,358.891-181.668,555.11-234.593c138.321-37.298,260.544-134.732,367.037-229.126
			c100.451-89.042,192.383-188.528,284.562-286.346c78.05-82.833,189.575-112.053,270.576-183.937
			c76.881-68.224,114.665-219.491,124.658-318.525c10.821-107.183,39.988-251.36-7.788-372.731
			c37.362,6.675,112.878,101.717,140.534,36.672c37.852,48.06,91.702,106.834,151.606,125.113
			c71.396,21.785,111.472-33.55,174.513-56.322c-27.618,83.927-91.877,151.517-98.897,244.439
			c-13.286,175.811-15.086,318.847,76.88,474.872c100.439,170.402,333.504,319.135,498.54,152.39
			c270.864-273.667,488.293-602.887,590.854-979.97c26.214-96.403,26.502-221.238-1.93-316.791
			c-46.891-157.627-171.009-272.219-299.062-360.568c-45.452-31.363-89.328-47.998-139.747-68.854
			c-161.11-66.664-315.475-124.445-456.879-230.727c-105.283-79.132-200.647-135.703-325.45-171.611
			c-42.467-12.215-112.167-9.588-145.928-42.849c-68.371-67.353,23.852-152.671,52.56-216.581
			c129.941-289.24,34.556-696.011-128.1-952.581c-120.61-190.235-316.5-338.868-474.685-494.447
			c-148.921-146.465-346.952-211.797-535.342-289.189c-24.01-52.943-51.669-104.795-78.784-156.399
			c-97.497-185.552-230.285-356.859-413.894-455.22c-86.396-46.283-183.02-69.542-273.199-107.11
			c-169.653-70.673-340.131-59.124-517.83-30.398c-179.188,28.961-380.439,78.631-459.202,266.494L4919.862,6242.078z"/>
		<path id="_x31_80640885" fill="none" stroke="#010101" stroke-width="80" d="M6635.752,1431.522
			c-24.01-52.943-51.669-104.796-78.782-156.4c-97.497-185.552-230.285-356.86-413.895-455.22
			c-12.619-6.757-25.462-13.016-38.465-18.911c-76.024-34.462-157.727-56.12-234.735-88.201
			c-169.653-70.672-340.131-59.121-517.83-30.399c-179.189,28.964-380.439,78.633-459.202,266.497l4.189,661.479
			c11.618,29.901,53.903,50.287,55.134,82.183c0.907,23.771-34.081,70.277-54.466,79.252l1.23,27.659
			c108.649-15.839,200.256,93.442,270.254,160.685c52.304,50.26,103.946,98.276,147.792,157.301
			c71.944,96.842,181.573,147.67,275.123,218.425c9.941,7.519,19.707,15.26,29.223,23.311l0.014,0.015
			c64.752,54.781,117.945,122.686,184.49,175.554c43.634,34.666,114.696,73.557,171.171,67.178
			c31.447-3.552,58.626-25.156,88.28-35.307c49.68-17.011,106.665-23.817,158.892-25.077
			c100.021-2.406,111.826-33.734,176.861-112.888c95.755-116.541,162.125-228.42,221.765-368.486
			c41.461-97.385,74.274-208.297,81.919-314.594C6712.778,1633.39,6680.652,1530.545,6635.752,1431.522z"/>
		<path id="_x31_80640886" fill="none" stroke="#010101" stroke-width="80" d="M5825.535,3646.987
			c-1.177,99.433-42.077,136.735-68.794,31.72c-29.428-115.699,34.827-130.052,4.064-252.01
			c-22.079-87.544-114.048-155.358-136.205-220.06c-27.51-80.32-23.297-65.308,43.366-8.014
			C5797.928,3310.321,5827.427,3486.855,5825.535,3646.987z"/>
		<path id="_x31_80640889" fill="none" stroke="#010101" stroke-width="80" d="M5650.268,1006.018
			c-128.347,35.922-277.067,156.603-323.527,289.698c-83.206,238.352,61.41,352.694,210.914,505.343
			c77.85,79.492,156.041,146.451,241.564,216.201c9.296,7.582,18.675,14.832,28.158,21.662l1.899-4.788l-1.899,4.788
			c64.342,46.337,133.521,73.169,215.099,50.753c86.345-23.725,177.164-105.612,230.648-200.401
			c31.121-55.159,49.6-114.693,47.203-169.674c-2.543-58.37-16.409-117.834-37.11-172.161
			c-50.657-132.969-155.826-251.9-239.825-364.248c-52.574-70.321-109.518-130.547-177.427-163.149l-3.887,4.086l3.887-4.086
			C5789.559,992.964,5725.587,984.939,5650.268,1006.018z"/>
		<path id="_x31_80640887" fill="none" stroke="#010101" stroke-width="80" d="M5767.681,2180.009
			c20.403-40.879,21.11-95.798,35.921-131.567l3.775-9.518c-9.483-6.83-18.862-14.08-28.158-21.662
			c-85.521-69.748-163.717-136.709-241.564-216.2c-149.506-152.651-294.122-266.993-210.916-505.344
			c46.462-133.098,195.183-253.773,323.529-289.697c75.319-21.081,139.291-13.055,195.695,14.025l6.954-7.319
			c68.883-69.878,160.293-166.638,248.019-209.486l3.671-2.248c-76.024-34.461-157.726-56.12-234.735-88.2
			c-169.651-70.673-340.131-59.123-517.83-30.399c-179.189,28.964-380.438,78.633-459.203,266.497l4.191,661.479
			c11.617,29.9,53.902,50.287,55.134,82.183c0.906,23.772-34.081,70.277-54.467,79.252l1.231,27.658
			c108.648-15.84,200.257,93.441,270.253,160.686c52.304,50.26,103.946,98.276,147.792,157.3
			c71.944,96.842,181.573,147.669,275.123,218.424l17.416,0.631C5676.702,2333.703,5740.368,2234.713,5767.681,2180.009z"/>
		<path id="_x31_80640888" fill="none" stroke="#010101" stroke-width="80" d="M6635.752,1431.522
			c-24.01-52.943-51.669-104.796-78.782-156.4c-97.497-185.552-230.285-356.86-413.895-455.22
			c-12.619-6.757-25.462-13.016-38.465-18.911l-3.671,2.248c-87.726,42.849-179.14,139.608-248.017,209.486l-6.958,7.318
			c67.911,32.604,124.853,92.829,177.429,163.15c83.999,112.348,189.168,231.279,239.823,364.247
			c20.699,54.327,34.567,113.792,37.111,172.162c2.399,54.981-16.081,114.514-47.202,169.674
			c-53.485,94.792-144.304,176.676-230.65,200.401c-81.577,22.417-150.757-4.417-215.097-50.753l-3.775,9.518
			c-14.811,35.769-15.518,90.688-35.923,131.567c-27.309,54.703-90.977,153.694-158.167,156.494l-17.417-0.631
			c9.942,7.521,19.708,15.263,29.222,23.312l0.018,0.016c64.75,54.781,117.943,122.685,184.488,175.553
			c43.636,34.666,114.694,73.558,171.171,67.176c31.449-3.552,58.626-25.156,88.28-35.306
			c49.678-17.011,106.667-23.815,158.892-25.075c100.021-2.407,111.826-33.733,176.863-112.89
			c95.752-116.541,162.125-228.419,221.763-368.484c41.461-97.385,74.274-208.297,81.919-314.597
			C6712.778,1633.39,6680.652,1530.545,6635.752,1431.522z"/>
		<path id="_x31_80640890" fill="none" stroke="#010101" stroke-width="80" d="M5825.535,3646.987
			c-1.177,99.433-42.077,136.735-68.794,31.72c-29.428-115.699,34.827-130.052,4.064-252.01
			c-22.079-87.544-114.048-155.358-136.205-220.06c-27.51-80.32-23.297-65.308,43.366-8.014
			C5797.928,3310.321,5827.427,3486.855,5825.535,3646.987z"/>
		<path id="_x31_80640867" fill="none" stroke="#010101" stroke-width="80" d="M7361.416,5244.694
			c-10.593-22.633-19.942-45.91-28.178-69.556c-16.438-47.209-29.715-95.467-42.16-143.93
			c-21.146-82.396-21.694-160.327-55.553-239.028c-36.75-85.416-99.844-156.386-131.396-243.261
			c-11.919-32.833-23.038-126.405-42.791-218.692c-10.339-48.293-28.997-99.945-49.933-144.258
			c-26.053-55.159-57.578-151.829-119.19-235.304c-39.505-62.872-118.102-85.474-134.6-141.313
			c-18.795-63.625,41.646-131.278,63.397-178.373c-16.371-23.572-16.231-13.098-51.457-58.84c-0.044-0.065-0.098-0.125-0.149-0.193
			c-36.927-47.985-72.96-96.889-114.914-140.448c-124.964-129.735-292.172-220.689-424.97-345.483
			c-54.729-51.434-109.789-105.902-174.835-143.538c-47.387-27.422-89.618-38.024-128.487-80.551
			c-42.575-46.562-64.619-68.497-123.294-25.865c-37.556,27.295-61.731,69.937-97.038,99.5
			c-0.302,0.25-135.038,115.241-135.038,115.241c-20.246,24.137-9.723,66.238-31.018,92.788
			c-21.73,27.104-65.568,42.399-96.104,54.347c-62.607,24.498-130.035,31.688-193.312,53.524
			c-72.699,25.089-150.337,31.996-222.58,58.683c-27.741,10.25-60.064,21.149-78.914,45.305
			c-19.417,24.878-7.499,66.542-44.334,77.946l6.899,1382.064c94.356,44.396,68.247,184.697,66.373,268.956
			c-3.407,153.647,41.734,311.322,68.302,461.533c7.968,45.044,16.499,98.438,17.887,151.337
			c90.17,8.464,190.787-31.814,279.808-17.006c75.353,12.536,171.337,71.198,218.821,137.105
			c51.116,70.952,78.698,81.843,123.179,157.1c18.639,31.525,50.309,100.343,74.747,130.753
			c-5.367,27.042-12.027,52.518-38.394,63.082c-59.609,23.888-123.751-35.245-164.733-66.106
			c-118.261-89.063-374.921-115.346-493.387-21.729c-8.204,0.575-16.837-2.186-24.078-7.19c-6.639-4.585-11.979-11.287-15.953-18.93
			c3.572,55.988-7.925,118.729-32.972,156.725c-16.229,24.628-61.6,31.412-71.806,30.597c9.96,12.896,44.301,27.99,66.688,41.091
			c36.298,21.235,70.289,39.547,108.512,52.175c157.058,51.902,265.305,50.934,417.944-0.679
			c148.023-50.049,301.559-80.7,449.714-130.488c190.728-64.096,358.891-181.668,555.11-234.595
			c138.321-37.296,260.544-134.73,367.037-229.124c100.451-89.042,192.383-188.53,284.562-286.346
			c31.892-33.84,70.562-59.489,110.267-82.52c19.563-11.345,39.464-22.054,59.155-33.154c18.534-10.45,43.475-24.533,56.06-33.838
			C7386.342,5282.814,7371.112,5265.409,7361.416,5244.694z M5906.454,5427.579c-10.583,28.918-59.928,54.205-85.022,22.14
			C5820.128,5375.194,5927.883,5369.009,5906.454,5427.579z M5624.601,3206.637c-27.51-80.321-23.297-65.309,43.366-8.015
			c129.959,111.699,159.46,288.233,157.566,448.365c-1.177,99.433-42.077,136.735-68.794,31.72
			c-29.428-115.699,34.829-130.052,4.066-252.01C5738.727,3339.153,5646.758,3271.339,5624.601,3206.637z M6465.898,5718.986
			c-60.749,68.696-173.908,75.596-259.727,49.38c-36.479-11.141-119.271-81.141-153.718-41.857
			c-29.925,34.137,20.686,128.222,20.124,170.022c-0.493,36.089-17.312,115.706-80.146,144.885
			c-50.158,23.294-135.443-29.438-157.36-53.469c-51.883-56.9-74.122-146.788-65.118-223.373
			c25.746-218.929,151.478-195.303,307.122-261.686c160.334-68.388,323.333-271.954,402.69,34.968
			C6495.516,5598.766,6510.732,5668.29,6465.898,5718.986z"/>
		<path id="_x31_80640874" fill="none" stroke="#010101" stroke-width="80" d="M6490.612,3918.926
			c36.332,90.414,62.262,188.751,75.54,285.539c0.959,6.992,2.467,21.878,3.565,41.048c2.913,50.903,8.725,104.214-18.882,146.549
			l0.19,0.706c-24.094,30.075-48.313,45.156-48.153,84.155c0.175,41.999-10.921,75.156-12.31,107.666
			c-2.47,57.594-22.469,114.883-41.044,169.6c-20.317,59.849-65.083,100.277-65.35,167.6
			c-0.398,104.126,38.225,229.896,78.493,324.39l1.485-2.135c73.194,61.571,133.752,174.697,218.221,216.208
			c60.36,29.659,117.489-24.701,157.214-67.488c78.34-84.396,136.904-208.683,134.514-327.084
			c-1.495-74.047-49.479-145.172-70.223-215.491c-24.827-84.144-54.088-165.06-35.126-254.144
			c16.979-79.79,51.554-158.218,46.149-241.473c-4.099-63.018-41.974-116.414-63.42-174.637
			c-14.345-38.968-69.189-167.744-45.852-226.48l-1.206-13c-11.109-26.298-24.902-50.008-43.826-71.173
			c-85.984-96.196-219.785-97.459-272.851,35.441L6490.612,3918.926z"/>
		<path id="_x31_80640883" fill="none" stroke="#010101" stroke-width="80" d="M5958.157,3002.128
			c0.145,0.098,0.287,0.194,0.434,0.291c-1.574-5.806-2.006-9.517-3.79-12.889c0.002,0.003,0.004,0.007,0.006,0.01l-1.277-6.182
			c-18.804-13.978-34.664-30.062-33.414-45.893c3.174-40.21,35.293-40.849,74.109-25.959c-23.91-12.254-46.487-26.014-68.028-49.583
			c-42.573-46.562-64.619-68.497-123.292-25.865c-37.556,27.295-61.729,69.933-97.04,99.5
			c-44.755,37.474-87.029,77.843-132.843,113.508l-2.195,1.734c-6.547,12.551,147.023,196.846,161.608,218.892
			c6.51,9.849,12.903,19.782,19.161,29.804c10.498,1.053,21.039,1.77,31.649,2.068c2.929,0.083,5.767,0.311,8.551,0.631
			c-39.912-29.516-66.569-67.006-36.585-112.655c37.72-57.423,100.108,8.261,141.848,43.941c-0.016-0.014-0.027-0.027-0.044-0.04
			c0.288,0.269,0.569,0.537,0.856,0.804c3.388-0.897,7.186-1.673,11.455-2.281c60.978-7.595,111.504-27.755,172.253-12.367
			l7.115,0.819C6024.473,3164.821,5977.284,3088.093,5958.157,3002.128z M5954.535,2989.048c-0.01-0.017-0.02-0.03-0.026-0.046
			C5954.516,2989.018,5954.525,2989.031,5954.535,2989.048z M5954.225,2988.529c-0.01-0.015-0.02-0.026-0.026-0.043
			C5954.205,2988.503,5954.215,2988.515,5954.225,2988.529z M5953.883,2988.01c-0.003-0.008-0.01-0.016-0.014-0.02
			C5953.873,2987.999,5953.88,2988.003,5953.883,2988.01z M5951.854,2985.539c-0.036-0.037-0.073-0.076-0.111-0.114
			C5951.779,2985.463,5951.818,2985.502,5951.854,2985.539z M5951.37,2985.057c-0.063-0.063-0.129-0.127-0.192-0.19
			C5951.243,2984.931,5951.307,2984.994,5951.37,2985.057z M5870.56,3208.188c-0.1-0.095-0.199-0.189-0.302-0.282
			C5870.36,3207.999,5870.459,3208.093,5870.56,3208.188z M5868.178,3205.987c-0.152-0.136-0.301-0.275-0.453-0.413
			C5867.875,3205.712,5868.025,3205.851,5868.178,3205.987z M5865.759,3203.792c-0.192-0.173-0.382-0.346-0.573-0.518
			C5865.377,3203.446,5865.567,3203.621,5865.759,3203.792z M5863.322,3201.618c-0.229-0.203-0.46-0.409-0.691-0.612
			C5862.862,3201.208,5863.094,3201.415,5863.322,3201.618z M5860.849,3199.454c-0.26-0.225-0.521-0.455-0.786-0.68
			C5860.327,3198.999,5860.585,3199.229,5860.849,3199.454z M5858.331,3197.303c-0.284-0.241-0.566-0.481-0.853-0.723
			C5857.765,3196.817,5858.047,3197.062,5858.331,3197.303z M5855.79,3195.182c-0.308-0.251-0.613-0.507-0.921-0.76
			C5855.177,3194.675,5855.482,3194.929,5855.79,3195.182z M5853.203,3193.086c-0.325-0.26-0.646-0.521-0.973-0.779
			C5852.558,3192.564,5852.878,3192.827,5853.203,3193.086z M5850.59,3191.029c-0.344-0.267-0.687-0.537-1.031-0.798
			C5849.903,3190.496,5850.246,3190.765,5850.59,3191.029z M5847.947,3189.017c-0.364-0.271-0.726-0.547-1.094-0.818
			C5847.222,3188.469,5847.583,3188.745,5847.947,3189.017z M5845.247,3187.036c-0.377-0.272-0.753-0.548-1.134-0.82
			C5844.494,3186.487,5844.868,3186.761,5845.247,3187.036z M5842.496,3185.092c-0.388-0.27-0.775-0.543-1.168-0.809
			C5841.721,3184.549,5842.108,3184.822,5842.496,3185.092z M5839.704,3183.198c-0.399-0.268-0.8-0.537-1.205-0.801
			C5838.904,3182.661,5839.305,3182.933,5839.704,3183.198z M5836.881,3181.363c-0.422-0.265-0.839-0.537-1.264-0.799
			C5836.044,3180.826,5836.459,3181.099,5836.881,3181.363z M5834.001,3179.583c-0.437-0.264-0.87-0.533-1.309-0.792
			C5833.131,3179.05,5833.564,3179.319,5834.001,3179.583z M5831.04,3177.844c-0.442-0.256-0.882-0.517-1.332-0.767
			C5830.158,3177.328,5830.597,3177.586,5831.04,3177.844z M5828.023,3176.158c-0.447-0.245-0.897-0.496-1.353-0.737
			C5827.126,3175.664,5827.572,3175.914,5828.023,3176.158z M5824.922,3174.524c-0.452-0.229-0.897-0.464-1.353-0.691
			C5824.024,3174.06,5824.469,3174.295,5824.922,3174.524z M5821.752,3172.958c-0.45-0.215-0.896-0.436-1.352-0.648
			C5820.856,3172.521,5821.302,3172.741,5821.752,3172.958z M5818.481,3171.445c-0.44-0.197-0.872-0.4-1.314-0.591
			C5817.611,3171.045,5818.043,3171.248,5818.481,3171.445z M5814.963,3169.928c-0.369-0.152-0.728-0.312-1.097-0.46
			C5814.235,3169.616,5814.594,3169.775,5814.963,3169.928z M5872.809,3210.287c0.01,0.011,0.02,0.021,0.027,0.029
			C5872.828,3210.306,5872.818,3210.296,5872.809,3210.287z M5947.218,2981.612c-0.288-0.211-0.582-0.422-0.888-0.636
			C5946.636,2981.19,5946.93,2981.401,5947.218,2981.612z M5950.814,2984.527c-0.081-0.076-0.162-0.151-0.249-0.229
			C5950.652,2984.375,5950.733,2984.451,5950.814,2984.527z M5950.204,2983.979c-0.099-0.089-0.199-0.175-0.298-0.262
			C5950.005,2983.807,5950.104,2983.889,5950.204,2983.979z M5949.539,2983.411c-0.115-0.096-0.231-0.192-0.352-0.287
			C5949.308,2983.219,5949.424,2983.316,5949.539,2983.411z M5948.818,2982.826c-0.134-0.105-0.271-0.211-0.41-0.321
			C5948.547,2982.614,5948.685,2982.72,5948.818,2982.826z M5948.048,2982.228c-0.166-0.126-0.34-0.252-0.513-0.382
			C5947.706,2981.973,5947.882,2982.101,5948.048,2982.228z"/>
		<path id="_x31_80640879" fill="none" stroke="#010101" stroke-width="80" d="M6148.354,3107.269L6148.354,3107.269
			c-2.805-1.761-5.615-3.512-8.429-5.26c-0.734-0.454-1.469-0.907-2.205-1.36c-2.108-1.304-4.22-2.606-6.334-3.903
			c-0.855-0.525-1.712-1.053-2.569-1.577c-2.065-1.264-4.128-2.525-6.196-3.783c-0.785-0.477-1.567-0.955-2.354-1.43
			c-2.334-1.42-4.672-2.836-7.007-4.253c-0.46-0.278-0.921-0.556-1.381-0.835c-6.654-4.028-13.316-8.047-19.978-12.076
			c-1.732-1.045-3.458-2.091-5.183-3.14c-1.114-0.677-2.233-1.356-3.347-2.033c-1.75-1.062-3.498-2.126-5.245-3.193
			c-1.118-0.681-2.237-1.364-3.352-2.046c-1.779-1.091-3.559-2.181-5.334-3.275c-1.051-0.647-2.104-1.293-3.153-1.943
			c-2.056-1.269-4.105-2.543-6.156-3.821c-0.752-0.47-1.504-0.936-2.259-1.405c-2.796-1.748-5.589-3.505-8.377-5.273
			c-0.533-0.338-1.065-0.682-1.6-1.022c-2.231-1.421-4.462-2.849-6.69-4.285c-0.937-0.605-1.871-1.214-2.806-1.82
			c-1.842-1.197-3.681-2.396-5.515-3.604c-1.025-0.672-2.05-1.352-3.075-2.03c-1.772-1.177-3.547-2.36-5.318-3.549
			c-1.012-0.68-2.024-1.36-3.036-2.043c-1.875-1.271-3.742-2.554-5.612-3.84c-0.874-0.603-1.749-1.2-2.622-1.805
			c-2.719-1.889-5.434-3.792-8.133-5.716c-0.32-0.23-0.652-0.464-0.997-0.701c-0.214-0.148-0.439-0.3-0.658-0.45
			c-0.136-0.095-0.27-0.184-0.41-0.28c-0.294-0.202-0.603-0.405-0.909-0.61c-0.073-0.049-0.14-0.097-0.214-0.143
			c-0.741-0.49-1.521-0.998-2.332-1.52c-0.034-0.02-0.065-0.04-0.097-0.062c-11.535-7.404-29.823-17.842-45.942-29.827l1.277,6.184
			c1.779,3.37,2.212,7.079,3.784,12.879c-0.146-0.099-0.289-0.192-0.434-0.292c19.127,85.967,66.313,162.696,130.535,218.291
			c62.111,53.771,140.153,87.775,224.186,91.186c5.659,0.232,11.562,0.369,17.506,0.498c15.524,0.337,33.189,1.357,45.736,3.102
			c-2.73-3.829,13.533-3.337,9.965-6.245c-19.662-16.005-47.293-41.622-60.991-57.818c-26.968-25.836-54.171-51.41-82.376-75.828
			C6213.05,3149.628,6181.096,3127.84,6148.354,3107.269z"/>
		<path id="_x31_80640881" fill="none" stroke="#010101" stroke-width="80" d="M6573.484,3457.26
			c-37.75-13.5-75.298-47.971-103.125-71.363c-50.514-42.465-97.491-88.99-145.192-134.69c16.444,19.455,42.041,39.139,61.79,59.46
			c-14.182,5.466-50.236,10.51-50.236,10.51c-40.359-0.049-78.512,16.038-124.274,60.75l-8.403,7.635
			c46.653,19.655,93.372,39.589,140.399,62.605c56.037,27.426,161.689,83.335,138.042,164.952c-0.294,1.037-0.609,2.088-0.959,3.153
			c-0.439,1.337-0.89,2.645-1.351,3.936c-0.03,0.083-0.059,0.163-0.091,0.245c-0.448,1.248-0.903,2.467-1.369,3.67
			c3.468-3.242,6.546-6.036,9.126-8.209c20.231-20.122,33.994-43.642,42.805-71.08c5.73-17.851,8.088-33.024,7.51-46.479
			c-0.877-12.299-2.761-20.332-2.879-25.965C6535.054,3465.605,6541.318,3463.597,6573.484,3457.26z"/>
		<path id="_x31_80640882" fill="none" stroke="#010101" stroke-width="80" d="M6204.043,3389.562l8.401-7.636
			c45.765-44.712,82.253-59.9,121.755-60.698l41.903-6.888l-45.719-2.237c-5.943-0.13-11.847-0.267-17.506-0.498
			c-84.032-3.411-162.073-37.414-224.186-91.187l-7.115-0.817c-60.753-15.388-111.276,4.775-172.253,12.368
			c-4.24,0.602-8.019,1.375-11.392,2.265c6.588,5.604,12.648,10.424,17.994,13.839
			C6013.029,3310.147,6108.39,3349.264,6204.043,3389.562z"/>
		<path id="_x31_80640880" fill="none" stroke="#010101" stroke-width="80" d="M6670.938,3451.322l-8.236-11.15
			c-2.709-2.908-5.445-5.799-8.209-8.672c-0.459-0.477-0.926-0.949-1.387-1.424c-0.192,0.121-0.396,0.238-0.588,0.357
			c1.656,1.725,3.312,3.449,4.954,5.184c-25.134,29.955-54.621,32.141-83.987,21.643c-32.164,6.337-38.431,8.346-38.204,19.131
			c0.117,5.635,2.002,13.666,2.877,25.967c0.578,13.452-1.783,28.628-7.51,46.477c-8.811,27.438-22.575,50.958-42.805,71.082
			c-2.582,2.173-5.66,4.965-9.126,8.209c-13.106,33.912-33.359,49.622-57.299,53.259c-12.609,10.666-25.039,19.954-35.704,25.305
			c16.975,32.669,36.552,70.612,73.45,77.382l34.298,6.686c2.84-0.661,5.669-1.399,8.479-2.232
			c49.014-14.523,230.041-101.363,265.536-140.64C6822.908,3586.544,6726.785,3529.892,6670.938,3451.322z"/>
		<path id="_x31_80640884" fill="none" stroke="#010101" stroke-width="80" d="M6459.16,3784.069
			c-36.896-6.772-56.474-44.712-73.447-77.383c10.664-5.351,23.094-14.637,35.701-25.307
			c-71.896,10.924-177.025-86.939-221.552-127.227c-87.97-79.597-194.984-134.546-297.882-190.531
			c-25.364-13.799-73.404-34.224-110.185-61.425c-2.784-0.319-5.622-0.545-8.551-0.628c-10.609-0.299-21.153-1.017-31.649-2.071
			c4.453,7.132,8.851,14.301,13.134,21.543c4.241,7.168,8.388,14.402,12.43,21.694c5.815,10.501,11.413,21.13,16.72,31.913
			c2.421,4.925,4.854,9.48,7.919,14.019c1.948,2.885,3.898,5.77,5.846,8.65c5.875,8.691,11.783,17.369,17.863,25.914
			c127.507,179.104,149.911,357.145,398.738,342.561c96.194-5.637,187.876,43.913,269.217,24.961L6459.16,3784.069z"/>
		<path id="_x31_80640877" fill="none" stroke="#010101" stroke-width="80" d="M5618.477,3810.699
			c65.842-70.85-19.997-207.77-60.128-269.654c-8.163-12.606-28.383-50.318-45.615-51.111
			c-23.611-1.088-30.625,46.616-30.339,65.015c1.056,69.34,8.115,155.348,36.662,219.072
			C5536.885,3813.798,5580.688,3851.365,5618.477,3810.699z"/>
		<path id="_x31_80640872" fill="none" stroke="#010101" stroke-width="80" d="M5049.252,3754.364
			c25.202-40.54,34.092-140.262-0.075-177.677c-52.771-57.795-97.26,8.916-91.646,62.355
			C4960.444,3666.812,5001.016,3831.77,5049.252,3754.364z"/>
		<path id="_x31_80640868" fill="none" stroke="#010101" stroke-width="80" d="M5579.406,4004.774
			c6.254-63.745,36-111.705,89.354-133.377c0.657-0.268,1.321-0.531,1.986-0.792c16.979-3.994,35.979-2.547,53.05,8.273
			c21.386,13.552,35.25,37.699,42.342,66.189c58.121-122.261,81.962-267.657,76.469-396.133
			c-4.026-93.95-46.769-179.917-96.02-257.425c63.931,104.585,80.377,234.692,78.946,355.475
			c-1.177,99.433-42.077,136.733-68.793,31.72c-29.427-115.699,34.828-130.054,4.065-252.012
			c-22.08-87.544-114.05-155.357-136.207-220.058c-27.509-80.321-23.297-65.31,43.366-8.015
			c19.369,16.65,36.492,34.748,51.628,54.009c-40.416-51.764-154.431-190.977-148.767-201.828
			c-20.787,26.137-6.579,65.466-31.025,92.8c-23.121,25.848-65.561,42.386-96.099,54.333
			c-62.609,24.496-130.034,31.689-193.31,53.522c-72.701,25.09-150.338,31.997-222.58,58.684
			c-27.741,10.25-60.062,21.151-78.914,45.305c-19.416,24.879-7.497,66.539-44.333,77.946l3.562,368.976
			c0.104-0.508,0.183-1.011,0.227-1.503c1.96-21.322,9.416-36.784,32.405-22.735c39.533,24.169,43.239,124.146,45.824,165.394
			c4.964,79.066,53.561,148.222,121.298,179.896c61.371,28.685,160.292,36.676,221.472,1.986
			c48.155-27.304,87.178-96.334,147.902-85.212c36.028,6.592,87.56,105.23,39.009,128.385l-2.2,0.291
			c-50.894,21.451-100.011,47.459-149.858,71.603c49.854-22.661,98.976-47.075,149.877-67.209
			c36.08-14.27,70.892-25.02,102.696-42.91C5582.803,4102.485,5574.86,4051.117,5579.406,4004.774z M5049.252,3754.364
			c-48.236,77.405-88.808-87.553-91.721-115.321c-5.614-53.439,38.875-120.15,91.646-62.355
			C5083.344,3614.103,5074.454,3713.824,5049.252,3754.364z M5346.915,3687.238c-81.271-0.052-200.549-155.937-179.438-241.072
			c21.36-86.139,110.022-114.947,176.873-63.438C5417.688,3439.247,5504.713,3687.327,5346.915,3687.238z M5620.362,3283.278
			c54.139-10.78,92.249,94.559,107.427,132.563c11.298,28.306,18.562,53.109,19.215,64.676
			c1.661,29.076-4.372,102.683-40.736,110.149c-62.872,12.902-125.608-87.576-134.432-138.378
			C5564.386,3409.326,5562.229,3294.854,5620.362,3283.278z M5519.057,3774.021c-28.547-63.723-35.606-149.732-36.662-219.072
			c-0.288-18.398,6.726-66.104,30.339-65.013c17.232,0.793,37.452,38.503,45.615,51.109
			c40.131,61.885,125.972,198.805,60.128,269.654C5580.688,3851.365,5536.885,3813.798,5519.057,3774.021z"/>
		<path id="_x31_80640878" fill="none" stroke="#010101" stroke-width="80" d="M6148.094,5072.218
			c-56.184-47.583-126.188-213.277-220.327-326.583c-73.462-88.418-179.913-130.967-195.835-184.739
			c-22.413-75.685-17.209-58.051,2.257-81.39c29.035-13.157,116.199,46.565,190.213,61.114c45.906,9.023,94.48-9.803,97.601-42.497
			c4.989-52.254,24.071-102.017,41.497-152.027h0.002c13.093-74.271,5.039-177.839-28.086-259.744
			c-39.351-97.309-121.989-143.98-197.314-102.651c-54.104,29.685-66.03,60.722-79.016,86.604
			c-9.432,26.859-23.927,50.03-42.879,64.386l-0.002-0.006c-12.381,21.439-26.423,40.584-63.942,40.448
			c-59.547-0.22-89.885,6.075-131.009,26.808c-53.27,36.438-83.495,112.887-181.05,154.363
			c-44.476,18.907-114.042,6.469-177.724,19.089l-39.908,50.556c-45.767,77.104-53.514,91.261-71.306,159.407
			c-23.136,88.615-135.598,73.826-105.62,186.965c29.976,113.136,54.774,106.95,42.648,260.746
			c-12.128,153.798,28.315,305.11,57.454,445.28s99.987,151.534,259.54,166.797c159.549,15.266,184.086,64.531,237.688,113.214
			c29.819,27.081,57.576,108.318,140.423,96.694c56.25-7.894,63.911-67.131,80.41-132.432
			c35.208-139.377,55.566-153.526,282.272-207.453v0.004c10.18-3.755,20.518-7.812,30.994-12.281
			c68.617-29.269,137.725-83.295,200.555-111.469v0.004c4.69-12.807,8.735-26.36,11.791-40.549
			C6310.944,5250.917,6248.117,5156.927,6148.094,5072.218z M5906.454,5427.579c-10.583,28.918-59.928,54.205-85.022,22.14
			C5820.128,5375.194,5927.883,5369.009,5906.454,5427.579z M5340.199,4356.301c-44.476,18.905-114.042,6.469-177.722,19.089
			l-39.906,50.556"/>
		<path id="_x31_80640876" fill="none" stroke="#010101" stroke-width="80" d="M6049.988,3854.728
			c2.17-2.332,4.326-4.53,6.432-6.595c46.971-46.003,106.845-56.171,168.378-47.34c36.516,5.244,156.454,25.536,126.758,94.883
			c-14.083,32.807-84.595,36.502-112.39,44.258c-51.327,14.318-92.47,48.101-140.971,64.166
			c-25.657,8.503-75.719-26.665-84.252-50.293C6001.418,3919.126,6026.622,3879.771,6049.988,3854.728z"/>
		<path id="_x31_80640869" fill="none" stroke="#010101" stroke-width="80" d="M6435.871,4436.285
			c-9.523-37.58,41.331-84.077,58.197-110.826c27.725-43.948,31.151-84.063,24.364-135.684
			c-11.098-84.466-50.459-218.376-145.984-233.495c-73.668-11.66-162.305,11.431-223.749,59.785
			c-78.755,61.985-42.263,168.062-62.159,254.053c-17.712,76.561-57.041,149.478-64.538,228.005
			c-9.849,103.103-20.806,197.365,53.772,278.823c69.331,75.738,175.017,116.916,275.42,57.46
			c55.705-32.986,85.768-104.263,96.317-165.684c9.675-56.335,37.387-90.05,27.271-147.174
			C6468.368,4485.369,6437.417,4471.666,6435.871,4436.285z"/>
		<path id="_x31_80640870" fill="none" stroke="#010101" stroke-width="80" d="M5727.789,3415.842
			c-15.176-38.006-53.288-143.343-107.427-132.565c-58.136,11.578-55.979,126.05-48.524,169.013
			c8.817,50.8,71.562,151.28,134.43,138.378c36.364-7.467,42.397-81.073,40.736-110.149
			C5746.354,3468.951,5739.087,3444.147,5727.789,3415.842z"/>
		<path id="_x31_80640871" fill="none" stroke="#010101" stroke-width="80" d="M5344.351,3382.728
			c73.338,56.52,160.362,304.598,2.564,304.511c-81.271-0.056-200.549-155.938-179.438-241.072
			C5188.84,3360.027,5277.5,3331.219,5344.351,3382.728z"/>
		<path id="_x31_80640873" fill="none" stroke="#010101" stroke-width="80" d="M5514.068,4168.871
			c-71.258,30.038-139.03,69.022-210.206,99.283c-123.829,52.635-392.823,67.445-392.823,67.445l-0.415-100.551
			c0,0-2.231-126.596-0.788-190.128c1.499-65.673,1.421-129.794-0.806-195.17c-0.984-28.909-8.954-96.48,31.735-71.618
			c39.531,24.169,43.237,124.146,45.823,165.394c4.963,79.066,53.562,148.222,121.297,179.898
			c61.371,28.685,160.293,36.676,221.474,1.984c48.153-27.302,87.176-96.333,147.9-85.212c36.03,6.594,87.562,105.23,39.008,128.383
			"/>
		<path id="_x31_80640875" fill="none" stroke="#010101" stroke-width="80" d="M5668.76,3871.397
			c-53.355,21.672-83.1,69.63-89.354,133.377c-5.721,58.306,8.323,124.564,69.129,141.963
			c121.968,34.905,165.45-210.703,75.261-267.856c-17.071-10.818-36.072-12.27-53.05-8.275
			C5670.081,3870.866,5669.417,3871.132,5668.76,3871.397"/>
		<path id="_x31_80640856" fill="none" stroke="#010101" stroke-width="80" d="M5821.432,5449.721
			c25.095,32.063,74.439,6.776,85.022-22.14C5927.883,5369.009,5820.128,5375.194,5821.432,5449.721z"/>
		<path id="_x31_80640857" fill="none" stroke="#010101" stroke-width="80" d="M6077.075,5502.889
			c-155.646,66.389-281.379,42.757-307.122,261.686c-9.004,76.587,13.237,166.473,65.118,223.373
			c21.916,24.029,107.202,76.765,157.36,53.469c62.835-29.177,79.653-108.796,80.146-144.885
			c0.562-41.801-50.049-135.886-20.124-170.022c34.446-39.283,117.239,30.715,153.718,41.857
			c85.818,26.214,198.978,19.312,259.727-49.38c44.834-50.692,29.617-120.219,13.867-181.13
			C6400.408,5230.937,6237.409,5434.499,6077.075,5502.889z"/>
		<path id="_x31_80640858" fill="none" stroke="#010101" stroke-width="80" d="M7394.312,5304.205
			c-7.971-21.387-23.2-38.794-32.896-59.511c-10.593-22.633-19.942-45.908-28.178-69.554c-16.437-47.211-29.715-95.469-42.16-143.93
			c-21.146-82.398-21.694-160.329-55.553-239.03c-36.75-85.416-99.844-156.384-131.396-243.261
			c-11.919-32.833-23.038-126.405-42.791-218.692c-10.339-48.293-28.997-99.945-49.933-144.256
			c-36.585-77.447-94.332-243.26-179.749-296.139c-9.427-10.284-74.278-47.288-77.93-94.251
			c-4.776-61.42,54.304-136.932,66.023-162.301c24.464,51.109,140.741,121.163,147.347,125.815
			c130.262,68.646,231.11,168.183,301.425,300.3c51.933,97.566,92.846,202.147,147.856,297.702
			c48.209,83.719,108.939,142.771,139.897,221.423c47.773,121.371,18.609,265.549,7.786,372.737
			c-9.991,99.03-47.777,250.298-124.658,318.523C7425.759,5281.89,7409.79,5294.676,7394.312,5304.205z"/>
		<path id="_x31_80640859" fill="none" stroke="#010101" stroke-width="80" d="M5685.837,5974.484
			c-44.482-75.259-72.064-86.147-123.182-157.098c-47.483-65.909-143.47-124.569-218.82-137.105
			c-89.021-14.811-189.636,25.468-279.807,17.006c-1.393-52.901-9.92-106.293-17.89-151.339
			c-26.563-150.207-71.705-307.884-68.298-461.531c1.872-84.259,27.985-224.563-66.375-268.956l5.602,1122.063l0.038,7.443
			l1.475,295.806c0.21,0.304,0.446,0.609,0.681,0.915c10.205,0.815,55.576-5.967,71.807-30.595
			c25.047-37.996,64.797-130.033,73.001-130.606c118.468-93.614,375.128-67.334,493.388,21.729
			c40.981,30.861,105.122,89.994,164.734,66.108c26.366-10.562,33.026-36.038,38.394-63.082
			C5736.142,6074.829,5704.474,6006.016,5685.837,5974.484z"/>
		<path id="_x31_80640861" fill="none" stroke="#010101" stroke-width="80" d="M6883.514,3929.04
			c79.89-2.386,187.342,1.51,166.083-114.724l2.129-3.338c-6.61-4.654-207.512-126.592-231.974-177.697
			c-11.718,25.371-70.802,100.881-66.022,162.301c3.648,46.961,68.5,83.967,77.929,94.251L6883.514,3929.04z"/>
		<path id="_x31_80640860" fill="none" stroke="#010101" stroke-width="80" d="M7556.277,4578.521
			c-30.956-78.649-91.688-137.708-139.894-221.421c-55.013-95.554-95.925-200.136-147.858-297.702
			c-70.312-132.119-171.161-231.652-301.425-300.302l82.496,55.22c21.259,116.233-86.193,112.338-166.083,114.724l-29.114-22.012
			c73.056,65.28,123.766,208.578,157.006,278.945c20.936,44.311,39.592,95.963,49.933,144.254
			c19.753,92.291,30.872,185.859,42.791,218.694c31.551,86.873,94.644,157.849,131.396,243.261
			c33.858,78.701,34.407,156.632,55.553,239.028c12.445,48.467,25.724,96.719,42.16,143.932
			c8.235,23.644,17.585,46.921,28.178,69.552c9.696,20.717,24.926,38.126,32.896,59.513c15.478-9.531,31.446-22.315,45.095-34.423
			c76.883-68.224,114.667-219.494,124.658-318.525C7574.886,4844.074,7604.052,4699.896,7556.277,4578.521z"/>
		<path id="_x31_80640866" fill="none" stroke="#010101" stroke-width="80" d="M6206.172,5768.366
			c-36.479-11.141-119.271-81.141-153.718-41.857c-29.925,34.137,20.686,128.222,20.124,170.022
			c-0.493,36.089-17.312,115.706-80.146,144.885c-50.158,23.294-135.443-29.438-157.36-53.469
			c-51.883-56.9-74.122-146.788-65.118-223.373c25.746-218.929,151.478-195.303,307.122-261.686
			c160.334-68.388,323.333-271.954,402.69,34.968c15.752,60.911,30.967,130.438-13.864,181.13
			C6405.149,5787.683,6291.99,5794.582,6206.172,5768.366z"/>
		<path id="_x31_80640865" fill="none" stroke="#010101" stroke-width="80" d="M5906.454,5427.579
			c21.429-58.57-86.326-52.385-85.022,22.14C5846.526,5481.784,5895.871,5456.497,5906.454,5427.579z"/>
		<path id="_x31_80640862" fill="none" stroke="#010101" stroke-width="80" d="M5562.655,5817.387
			c-47.485-65.909-143.472-124.569-218.822-137.105c-89.019-14.811-189.636,25.468-279.807,17.006
			c1.449,55.029-4.83,109.522-27.523,153.526c-9.351,18.135-24.2,35.724-41.853,50.321c0.702-0.298,1.415-0.584,2.152-0.851
			c-0.737,0.269-1.45,0.555-2.152,0.851c-4.332,3.582-8.83,6.981-13.461,10.169c-7.11,9.239-7.912,21.619-2.319,32.649
			c27.32,17.477,42.03,61.35,45.161,110.41c3.98,7.643,9.315,14.345,15.957,18.932c7.241,5.005,15.872,7.764,24.078,7.19
			c118.468-93.616,375.128-67.334,493.386,21.73c40.985,30.86,105.124,89.993,164.736,66.105
			c26.364-10.561,33.026-36.038,38.392-63.082c-24.44-30.412-56.11-99.226-74.747-130.753
			C5641.354,5899.229,5613.772,5888.337,5562.655,5817.387z"/>
		<path id="_x31_80640864" fill="none" stroke="#010101" stroke-width="80" d="M4911.402,4815.428
			c94.437,44.363,68.311,184.711,66.438,268.989c-3.409,153.647,41.732,311.324,68.298,461.533
			c16.257,91.901,34.874,218.564-9.636,304.865c-21.642,41.972-72.699,81.042-119.877,86.771c-1.254-5.167-1.472-10.411-0.645-15.74
			L4911.402,4815.428z"/>
		<path id="_x31_80640863" fill="none" stroke="#010101" stroke-width="80" d="M4916.08,5945.469
			c117.182-59.432,135.11,174.413,74.987,265.621c-18.79,28.51-76.629,33.107-73.767,29.686L4916.08,5945.469z"/>
		<path id="_x31_80640891" fill="none" stroke="#010101" stroke-width="80" d="M4904.047,3307.399
			c54.808-24.495,120.204-28.853,178.09-44.517c65.513-17.732,131.233-41.418,194.821-65.502
			c80.537-30.502,161.889-61.261,235.972-106.391c70.8-43.134,129.368-102.202,192.935-155.427
			c35.311-29.566,59.484-72.206,97.04-99.5c58.673-42.632,80.721-20.697,123.292,25.865c38.871,42.526,81.101,53.129,128.487,80.551
			c65.046,37.633,120.108,92.105,174.837,143.539c132.798,124.791,300.006,215.745,424.97,345.484
			c108.135,112.271,173.276,254.179,312.608,327.595c130.262,68.647,231.11,168.185,301.425,300.302
			c51.931,97.566,92.846,202.147,147.856,297.702c48.209,83.719,108.939,142.771,139.896,221.423
			c37.362,6.677,112.878,101.719,140.534,36.676c37.852,48.06,91.702,106.83,151.604,125.111
			c71.398,21.785,111.472-33.552,174.515-56.318c-27.618,83.923-91.879,151.513-98.897,244.439
			c-13.284,175.803-15.086,318.843,76.88,474.868c100.438,170.4,333.502,319.135,498.54,152.388
			c270.862-273.661,488.291-602.885,590.852-979.966c26.214-96.405,26.504-221.239-1.93-316.791
			c-46.891-157.627-171.009-272.219-299.062-360.568c-45.45-31.365-90.744-52.556-141.161-73.412
			c-161.111-66.664-320.192-123.913-461.598-230.2c-105.279-79.132-194.515-131.674-319.315-167.582
			c-42.471-12.215-112.167-9.59-145.93-42.849c-68.369-67.353,23.854-152.67,52.562-216.582
			c129.941-289.239,34.556-696.011-128.102-952.58c-120.609-190.236-316.498-338.867-474.685-494.448
			c-148.919-146.464-346.95-211.795-535.342-289.188c44.9,99.022,77.026,201.868,68.96,314.056
			c-7.646,106.298-40.458,217.212-81.92,314.594c-59.636,140.064-126.002,251.947-221.764,368.485
			c-65.035,79.156-76.839,110.483-176.863,112.891c-52.227,1.26-109.214,8.065-158.89,25.074
			c-29.658,10.151-56.835,31.754-88.278,35.306c-56.479,6.38-127.539-32.511-171.173-67.176
			c-66.547-52.869-119.738-120.772-184.49-175.556c-99.04-83.79-224.77-134.607-304.359-241.75
			c-43.845-59.024-95.488-107.041-147.792-157.299c-69.994-67.246-161.601-176.525-270.252-160.687"/>
		<path id="_x31_80640904" fill="none" stroke="#010101" stroke-width="80" d="M5844.549,2567.605
			c-18.004-10.26-34.59-21.672-48.423-32.66c-66.545-52.867-119.738-120.771-184.488-175.553
			c-87.275-73.837-195.271-122.078-274.163-205.812l-31.217-1.162c-127.674,0.421-271.532,14.315-409.718-2.616l0,0l3.272,162.106
			c39.457-0.845,66.306-9.552,103.664,7.124c59.049,26.353,141.467,7.979,203.93,6.093c70.97-2.143,147.435,10.396,214.1,36.124
			c90.832,35.05,179.002,91.703,239.158,171.079c9.956,13.138,19.095,26.943,27.114,41.416
			c54.57,98.498,32.163,194.501-52.141,264.924c-79.401,66.329-181.899,30.975-274.773,55.598
			c-159.256,42.225-268.796,167.627-457.097,195.34l0.281,217.793c54.808-24.495,110.517-28.657,168.401-44.323
			c65.517-17.728,131.237-41.416,194.825-65.501c80.535-30.5,161.888-61.26,235.971-106.391
			c70.801-43.133,129.368-102.202,192.934-155.428c35.311-29.563,59.484-72.203,97.04-99.5
			c11.603-8.429,21.766-14.323,30.941-18.014C5877.726,2703.845,5858.267,2635.054,5844.549,2567.605z"/>
		<path id="_x31_80640903" fill="none" stroke="#010101" stroke-width="80" d="M5635.634,2838.669
			c84.306-70.422,106.713-166.424,52.143-264.924c-8.021-14.473-17.157-28.278-27.116-41.417
			c-60.155-79.377-148.322-136.029-239.156-171.078c-66.665-25.728-143.128-38.267-214.102-36.124
			c-62.461,1.884-144.877,20.259-203.93-6.094c-37.356-16.674-64.205-7.966-103.663-7.121l1.054,420.628
			c60.58-9.088,95.459-31.401,143.784-46.964c44.033-14.181,107.853-47.7,154.671-44.645c35.515,2.315,32.111-0.619,6.336,25.137
			c-35.438,35.414-104.186,56.051-149.585,72.847c-48.068,17.779-90.37,34.077-155.036,34.969l2.726,315.725
			c188.302-27.712,297.846-153.114,457.1-195.34C5453.734,2869.642,5556.232,2904.998,5635.634,2838.669z"/>
		<path id="_x31_80640901" fill="none" stroke="#010101" stroke-width="80" d="M6679.185,3400.278
			c-6.913-43.982,19.074-91.232,4.59-134.382c-12.806-38.142-63.62-74.016-89.846-103.73
			c-42.045-47.65-93.701-85.75-146.468-119.762c-66.318-42.75-151.564-83.982-191.266-157.45
			c-23.507-43.487-25.936-108.965,36.742-110.178c105.634-2.037,151.851,238.039,282.22,158.64
			c-75.962-75.624-143.07-141.51-143.07-141.51c-79.855-96.398-79.017-182.302-118.522-264.738l-4.767-7.974
			c-22.171,14.52-49.316,21.464-94.327,22.545c-52.227,1.261-109.213,8.065-158.888,25.077
			c-29.659,10.15-56.836,31.755-88.282,35.306c-38.575,4.357-83.954-12.406-122.752-34.519
			c13.72,67.451,33.18,136.24-20.388,250.639c37.249-14.972,58.196,6.523,92.352,43.878c38.87,42.527,81.1,53.13,128.487,80.551
			c65.046,37.634,120.106,92.105,174.836,143.538c127.81,120.105,287.485,208.873,410.706,331.035l58.61,3.946
			C6684.284,3416.926,6680.75,3410.23,6679.185,3400.278z"/>
		<path id="_x31_80640902" fill="none" stroke="#010101" stroke-width="80" d="M5306.258,2152.42l31.217,1.163
			c-10.633-11.288-20.744-23.212-30.198-35.939c-43.845-59.024-95.486-107.042-147.79-157.3
			c-69.995-67.245-151.914-176.721-260.567-160.881l-2.379,350.343l0,0C5034.726,2166.734,5178.586,2152.84,5306.258,2152.42z"/>
		<path id="_x31_80640900" fill="none" stroke="#010101" stroke-width="80" d="M6689.148,3421.191
			c15.88,13.93,45.935,2.005,67.992-6.781c51.165-20.383,102.887-47.339,116.857-107.178c3.994-17.121,4.172-34.167,1.691-50.999
			c-27.462-34.282-79.535-97.565-133.116-153.507c-42.356-44.224-107.633-109.787-167.418-169.31
			c-130.367,79.397-176.584-160.68-282.218-158.641c-62.678,1.213-60.251,66.69-36.744,110.179
			c39.701,73.468,124.949,114.7,191.266,157.448c52.767,34.013,104.423,72.115,146.469,119.762
			c26.225,29.715,77.041,65.588,89.845,103.731c14.484,43.151-11.505,90.399-4.59,134.381
			C6680.75,3410.23,6684.284,3416.926,6689.148,3421.191"/>
		<path id="_x31_80640899" fill="none" stroke="#010101" stroke-width="80" d="M6432.087,2791.907c0,0,67.106,65.885,143.068,141.51
			c1.071-0.654,2.15-1.327,3.237-2.022c52.778-33.944,10.266-145.003-1.269-190.563c-19.569-77.294-40.524-155.256-20.672-234.852
			c24.365-97.682,121.238-274.542,211.637-138.837c91.058,136.682,125.539,302.409,111.782,464.281
			c-11.48,135.177,13.488,264.058,114.812,357.612c19.966,18.426,53.017,42.148,90.249,62.029
			c-7.013-96.947-17.471-240.186-17.471-240.186c-3.532-51.542-24.757-147.42-31.583-198.602
			c-19.302-144.562-47.181-221.436-119.595-349.727c-74.025-131.165-157.423-368.084-278.165-464.047l-0.447-0.451
			c-7.723,21.248-15.958,42.079-24.575,62.32c-59.638,140.063-126.003,251.946-221.763,368.485
			c-35.769,43.536-55.441,72.597-82.54,90.343l4.767,7.975C6353.07,2609.604,6352.231,2695.506,6432.087,2791.907z"/>
		<path id="_x31_80640898" fill="none" stroke="#010101" stroke-width="80" d="M6994.021,3189.044
			c-101.327-93.553-126.293-222.434-114.811-357.608c13.757-161.874-20.728-327.601-111.784-464.282
			c-90.402-135.704-187.271,41.157-211.637,138.837c-19.856,79.593,1.102,157.557,20.672,234.851
			c11.532,45.562,54.045,156.622,1.265,190.562c-1.083,0.698-2.162,1.37-3.235,2.023c59.786,59.527,125.061,125.087,167.418,169.311
			c53.581,55.943,105.652,119.225,133.114,153.507c-7.999-54.182-43.625-106.121-68.66-151.095
			c-51.641-92.754-89.476-172.116-93.112-281.355c-1.889-56.823-0.732-115.242-11.144-171.368
			c23.368,107.587,41.001,224.341,80.321,327.033c38.703,101.079,127.006,242.595,217.787,300.575
			c23.832,15.219,54.943,29.422,89.028,40.207c-1.113-15.661-2.89-40.372-4.972-69.168
			C7047.042,3231.193,7013.985,3207.473,6994.021,3189.044z"/>
		<path id="_x31_80640897" fill="none" stroke="#010101" stroke-width="80" d="M6916.286,2462.548
			c72.414,128.289,100.291,205.162,119.593,349.728c6.826,51.181,28.051,147.059,31.585,198.601c0,0,10.458,143.238,17.471,240.186
			c57.123,30.506,124.083,51.976,168.729,31.404c51.73-23.895,51.084-128.591,50.676-176.388
			c-0.772-91.145-32.759-178.347-59.982-263.845c-73.468-230.715-225.317-407.388-352.047-607.79
			c-42.325-66.937-117.284-179.873-102.161-265.565c29.199-165.403,243.14,95.708,275.766,115.975
			c30.874,19.181,69.905,9.862,102.862,22.147c30.103,11.216,65.226,36.45,92.996,54.251
			c64.79,41.535,69.589,119.202,118.075,174.01c56.153,63.488,147.788,78.231,211.537,132.464
			c60.823,51.75,97.26,128.872,106.188,208.562c8.131,72.471,32.516,169.236-12.473,233.64
			c-23.924,34.258-60.78,62.892-87.441,95.86c-52.469,64.895-181.84,195.515-59.762,266.533
			c38.165,22.204,44.632,26.134,80.249,6.896c12.26-6.621,23.512-15.992,36.331-21.423c12.49-5.292,25.37-1.24,34.658,8.487
			c3.148,3.3,5.806,7.069,8.156,11.002c0.59,0.992,1.16,1.997,1.719,3.01c17.685-39.555,50.134-78.891,65.168-112.359
			c129.937-289.238,34.554-696.008-128.103-952.578c-120.607-190.237-316.5-338.867-474.684-494.449
			c-148.922-146.462-346.949-211.797-535.342-289.188c44.902,99.024,77.028,201.87,68.959,314.057
			c-6.055,84.205-27.912,171.299-57.342,252.275l0.447,0.45C6758.861,2094.464,6842.259,2331.379,6916.286,2462.548z"/>
		<path id="_x31_80640896" fill="none" stroke="#010101" stroke-width="80" d="M7689.142,3266.278
			c-9.29-9.726-22.171-13.779-34.662-8.485c-12.817,5.433-24.069,14.802-36.327,21.425c-35.617,19.234-42.09,15.308-80.249-6.898
			c-122.08-71.019,7.293-201.639,59.76-266.534c26.661-32.967,63.518-61.602,87.443-95.858
			c44.986-64.403,20.6-161.168,12.469-233.64c-8.929-79.692-45.363-156.813-106.188-208.563
			c-63.749-54.234-155.384-68.978-211.535-132.464c-48.484-54.81-53.285-132.478-118.076-174.01
			c-27.77-17.802-62.891-43.037-92.995-54.251c-32.955-12.289-71.984-2.968-102.862-22.147
			c-32.624-20.266-246.568-281.378-275.766-115.975c-15.125,85.693,59.836,198.63,102.161,265.565
			c126.729,200.402,278.579,377.076,352.047,607.79c27.224,85.498,59.212,172.698,59.982,263.845
			c0.408,47.797,1.053,152.492-50.678,176.388c-44.642,20.571-111.605-0.896-168.727-31.403c2.08,28.798,3.862,53.505,4.97,69.167
			c79.101,25.027,174.241,31.611,231.759-10.453c82.033-59.989,67.433-174.804,59.627-264.227
			c-11.187-128.166-16.496-260.448-68.685-379.404c-23.744-54.131-53.614-105.48-82.209-157.002
			c21.865-0.047,90.054,97.007,104.246,120.203c15.513,25.355,28.211,52.516,42.427,77.79c12.649,22.491-5.042,26.69,19.699,34.669
			c8.5,2.735,32.114-16.474,47.974-12.854c-43.49,104.063-36.037,204.825-39.279,315.609
			c-3.027,103.494-23.761,261.71,99.261,302.895c64.828,21.686,122.601-11.382,182.483-30.497c0.085,0.288,0.249,0.542,0.472,0.769
			c1.617-12.383,5.734-24.921,11.334-37.439c-0.559-1.013-1.133-2.017-1.721-3.01
			C7694.945,3273.347,7692.288,3269.579,7689.142,3266.278z"/>
		<path id="_x31_80640895" fill="none" stroke="#010101" stroke-width="80" d="M9078.688,4259.125
			c-34.996-117.647-113.012-211.311-203.574-287.991c6.995,65.908-6.014,132.29,5.957,197.479
			c11.536,62.815,32.126,111.868,30.331,176.853c-2.146,77.861,24.456,162.078,12.108,238.288
			c-13.799,85.166-68.695,181.958-101.271,261.711c-37.396,91.567-78.566,38.615-127.924-19.083
			c-29.49,91.891-53.722,187.32-92.005,275.9c-31.942,73.9-79.412,129.031-126.997,192.316
			c-41.749,55.51-91.249,145.819-157.895,171.365c-76.075,29.154-149.292-20.605-190.036-78.499
			c-31.918-45.36-79.46-66.013-116.314-110.733c-45.113-54.758-40.209-91.803-35.366-159.062
			c3.23-44.834-26.176-81.125-7.132-123.822c20.162-45.202,71.508-71.418,116.919-74.551
			c104.601-7.215,151.909-85.169,212.264-160.348c69.984-87.156,72.601-157.572,86.386-265.386
			c11.664-91.239,30.666-160.439,20.906-253.799c-9.093-87.01-32.19-172.421-86.411-241.676
			c-84.085-107.394-172.469-221.836-292.159-287.369c-63.112-34.568-127.357-73.359-198.07-88.95
			c-71.281-15.711-110.534,17.208-175.437,26.276c-111.296,15.547-201.567-113.397-316.604-47.78
			c-35.847,20.446-57.746,45.536-68.473,73.214c25.885,11.56,52.25,23.533,68.334,31.384
			c145.422,70.985,312.301,107.422,485.974,206.27c173.673,98.845,291.415,256.096,291.415,256.096
			c106.479,108.532,49.656,400.178-101.307,519.734c-28.101,82.64-91.019,149.765-97.963,241.659
			c-13.285,175.805-15.085,318.846,76.881,474.868c100.438,170.403,333.503,319.137,498.538,152.394
			c270.863-273.667,488.293-602.888,590.853-979.972C9106.831,4479.509,9107.122,4354.678,9078.688,4259.125z"/>
		<path id="_x31_80640894" fill="none" stroke="#010101" stroke-width="80" d="M7691,3441.566
			c-50.075,4.7-184.205-63.332-191.966,25.202c-4.592,51.991-111.328,80.606-148.494,98.451
			c-35.996,17.286-76.802,37.634-110.011,60.319c-13.397,9.154-25.029,12.518-34.844,20.466
			c14.611,6.39,38.199,16.752,62.206,27.475c10.727-27.68,32.624-52.768,68.473-73.216c115.039-65.613,205.309,63.327,316.604,47.78
			c64.902-9.07,104.155-41.985,175.437-26.274c70.715,15.593,134.958,54.382,198.07,88.948
			c119.69,65.537,208.072,179.976,292.159,287.371c54.223,69.255,77.318,154.666,86.411,241.676
			c9.758,93.359-9.242,162.558-20.906,253.799c-13.785,107.815-16.401,178.229-86.384,265.388
			c-60.356,75.175-107.665,153.131-212.266,160.348c-45.411,3.129-96.757,29.349-116.919,74.551
			c-19.044,42.697,10.362,78.99,7.132,123.818c-4.843,67.264-9.747,104.305,35.366,159.064
			c36.854,44.725,84.396,65.373,116.315,110.735c40.743,57.89,113.96,107.653,190.035,78.497
			c66.646-25.546,116.147-115.857,157.895-171.367c47.585-63.283,95.055-118.414,126.997-192.316
			c38.283-88.58,62.515-184.01,92.005-275.9c49.357,57.698,90.527,110.652,127.924,19.085
			c32.575-79.755,87.472-176.547,101.271-261.713c12.348-76.208-14.254-160.423-12.108-238.288
			c1.797-64.984-18.795-114.035-30.331-176.853c-11.971-65.187,1.038-131.57-5.957-197.479
			c-30.779-26.063-63.008-50.168-95.488-72.579c-45.45-31.363-91.896-50.62-142.314-71.478
			c-161.112-66.664-321.591-125.838-462.994-232.125c-105.279-79.134-191.966-131.683-316.767-167.588
			c-38.417-11.051-99.115-9.958-135.336-34.266C7722.308,3415.229,7707.381,3440.029,7691,3441.566z M8640.725,4200.832
			c5.463-61.492-16.264-149.103,37.753-196.011c60.445,109.21-3.614,322.548-39.461,430.681
			c-46.748,141.016-112.216,277.972-192.014,402.37c-51.042,79.573-132.348,258.667-233.105,278.518
			c3.403-111.232,116.227-208.506,167.953-297.948c65.782-113.786,135.293-226.043,183.003-349.528
			C8596.954,4385.844,8632.756,4290.513,8640.725,4200.832z"/>
		<path id="_x31_80640893" fill="none" stroke="#010101" stroke-width="80" d="M8113.614,4167.229
			c0,0-117.742-157.247-291.415-256.098c-173.677-98.848-340.554-135.282-485.974-206.268
			c-16.084-7.853-42.446-19.826-68.334-31.386c-19.738,50.931-1.615,110.637,37.297,166.402
			c158.362,226.919,486.733,153.597,669.642,349.414c102.38,109.587,105.328,283.226,13.735,401.555
			c-42.421,54.8-98.097,84.764-158.188,40.209c-48.048-35.626-49.776-123.055-113.298-138.524
			c-29.436-7.159-61.784,6.276-89.021-9.034c-52.879-29.722-58.081-115.153-95.514-159.097
			c-54.428-63.908-115.925-139.498-203.817-142.833c-3.458-0.03,3.347,0.184,0,0c27.922,59.629,52.607,114.637,85.213,171.257
			c48.211,83.72,105.273,150.137,142.343,225.695c31.908,11.521,115.944,102.343,143.595,37.297
			c37.855,48.058,97.327,108.513,157.233,126.793c71.396,21.785,107.551-25.743,150.928-52.509c-0.308,0.93,4.586-4.069,4.272-3.147
			C8163.271,4567.404,8220.093,4275.759,8113.614,4167.229z"/>
		<path id="_x31_80640892" fill="none" stroke="#010101" stroke-width="80" d="M7532.543,4324.4
			c37.435,43.943,42.634,129.377,95.512,159.097c27.24,15.307,59.589,1.877,89.024,9.034
			c63.52,15.47,65.247,102.896,113.296,138.522c60.088,44.557,115.768,14.593,158.187-40.207
			c91.595-118.327,88.646-291.968-13.733-401.555c-182.908-195.817-511.279-122.495-669.642-349.414
			c-38.912-55.766-57.035-115.472-37.297-166.4c-24.007-10.723-47.601-21.085-62.206-27.475c-0.506,0.408-1.01,0.823-1.506,1.257
			c-103.032,90.461,54.74,274.238,113.173,336.688c91.743,98.034,208.076,169.285,316.964,244.97
			c41.189,28.63,87.954,44.277,127.184,76.571c-90.898-12.045-222.436-93.714-293.34-151.84
			c-84.038-68.889-197.545-152.908-281.148-219.315c-10.555-7.927,8.57,5.349,0,0c31.448,37.866,58.539,81.904,82.774,127.443
			c21.159,39.746,39.741,78.802,58.941,119.793c3.347,0.184-3.458-0.032,0,0C7416.618,4184.902,7478.115,4260.492,7532.543,4324.4z"
			/>
		<path id="_x31_80640907" fill="none" stroke="#010101" stroke-width="80" d="M8213.897,5116.388
			c100.759-19.851,182.063-198.942,233.104-278.518c79.8-124.396,145.268-261.353,192.016-402.368
			c35.847-108.133,99.906-321.473,39.461-430.683c-54.017,46.91-32.29,134.521-37.753,196.011
			c-7.969,89.681-43.771,185.012-75.869,268.078c-47.712,123.486-117.223,235.743-183.005,349.527
			C8330.124,4907.88,8217.301,5005.149,8213.897,5116.388z"/>
		<path id="_x31_80640908" fill="none" stroke="#010101" stroke-width="80" d="M5254.989,5997.133
			c-37.61,0.007-148.757,30.889-175.383-6.379c-26.365-36.884,12.645-85.505,51.711-93.066
			c73.435-14.211,159.107,39.86,228.982,60.785c46.845,14.022,178.941,59.797,137.749,72.594
			C5416.019,6032.863,5338.318,5997.125,5254.989,5997.133z"/>
		<path id="_x31_80640909" fill="none" stroke="#010101" stroke-width="80" d="M4900.866,2732.538
			c50.021-15.07,92.129-30.936,141.87-46.958c44.034-14.181,107.854-47.702,154.674-44.648c35.519,2.316,32.11-0.619,6.336,25.14
			c-35.438,35.414-104.186,56.05-149.584,72.846c-49.821,18.43-100.543,28.703-153.122,34.962L4900.866,2732.538z"/>
		<path id="_x31_80640910" fill="none" stroke="#010101" stroke-width="80" d="M5665.871,3214.718
			c0.593,60.012,89.867,88.087,112.538,148.923c21.208,56.896-7.141,218.907,31.64,244.017
			c42.138,3.805,6.567-298.448-106.195-372.4C5703.857,3235.258,5685.375,3218.792,5665.871,3214.718z"/>
		<path id="_x31_80640911" fill="none" stroke="#010101" stroke-width="80" d="M5162.478,4375.388
			c-8.103,4.696-15.391,11.066-21.585,19.674c-19.689,27.364-45.036,93.862-80.165,110.14
			c-30.252,14.016-78.533-29.36-74.289-62.763c12.146-95.575,171.708-120.861,203.746-123.222
			c42.741-3.131,95.515-10.886,137.6-1.478c45.149,10.091,21.744,29.176-11.273,40.02
			C5270.821,4372.779,5205.332,4350.582,5162.478,4375.388z"/>
		<path id="_x31_80640912" fill="none" stroke="#010101" stroke-width="80" d="M6229.515,3086.008
			c133.564,125.49,301.838,216.369,427.957,349.609c-57.445,68.467-137.641-8.133-187.112-49.72
			c-79.096-66.493-149.526-142.955-227.644-210.586c-72.823-63.048-159.449-102.616-237.629-158.362
			c-20.567-14.664-87.49-47.587-84.975-79.484c7.363-93.239,170.351,26.283,211.596,58.85
			C6165.311,3022.842,6198.304,3056.682,6229.515,3086.008z"/>
		<path id="_x31_80640913" fill="none" stroke="#010101" stroke-width="80" d="M6481.523,3620.272
			c27.342-83.335-80.324-140.325-137.081-168.105c-143.455-70.214-284.059-111.748-428.514-204.095
			c-39.219-25.07-116.736-125.486-160.72-58.531c-57.608,87.718,93.882,145.307,146.77,174.08
			c102.896,55.983,209.914,110.932,297.881,190.529C6260.322,3608.854,6432.5,3769.714,6481.523,3620.272z"/>
		<path id="_x31_80640914" fill="none" stroke="#010101" stroke-width="80" d="M6569.72,4245.515
			c3.12,54.493,9.562,111.748-25.235,155.349c-15.756,19.755-93.886,93.559-108.613,35.424
			c-9.525-37.58,41.331-84.075,58.197-110.824c27.725-43.95,31.151-84.065,24.362-135.686
			c-13.873-105.612-67.758-198.162-124.016-285.65c-12.909-20.076-48.828-70.634-29.125-96.619
			c15.647-20.64,46.276-8.665,62.674,7.165c26.295,25.376,48.908,70.067,62.646,104.255c36.332,90.414,62.263,188.753,75.54,285.539
			C6567.111,4211.459,6568.622,4226.347,6569.72,4245.515z"/>
		<path id="_x31_80640915" fill="none" stroke="#010101" stroke-width="80" d="M7207.066,3651.189
			c10.119-8.884,22.333-17.2,36.419-26.825c35.014-23.911,77.878-39.567,115.709-58.036c27.146-13.254,53.976-28.401,81.687-40.309
			c23.695-10.176,52.616-18.684,60.257-48.225c2.472-9.564-1.934-18.758,0.681-27.469c6.395-21.262,29.523-26.998,48.273-28.371
			c44.411-3.254,120.705,39.695,160.092,10.178c25.021-18.752-9.835-114.515-20.109-111.233
			c-59.872,19.111-117.637,52.17-182.461,30.487c-123.022-41.185-102.288-199.401-99.261-302.895
			c3.244-110.784-4.211-211.547,39.278-315.61c-15.861-3.618-39.475,15.591-47.976,12.855c-24.739-7.979-7.047-12.178-19.699-34.67
			c-14.215-25.276-26.916-52.436-42.425-77.79c-14.193-23.195-82.38-120.25-104.249-120.204
			c28.594,51.523,58.468,102.871,82.21,157.005c52.188,118.955,57.498,251.235,68.684,379.401
			c7.808,89.421,22.409,204.238-59.622,264.227c-82.309,60.187-241.645,20.785-320.79-29.754
			c-90.781-57.981-179.084-199.495-217.784-300.576c-39.322-102.693-56.955-219.447-80.323-327.033
			c10.413,56.126,9.257,114.544,11.142,171.367c3.639,109.237,41.471,188.601,93.114,281.356
			c32.813,58.946,83.827,129.851,66.971,202.096c-13.97,59.836-65.693,86.793-116.859,107.176
			c-46.179,18.394-64.396,11.243-108.929,2.354c23.962,49.35,68.679,82.363,101.896,125.647
			c41.291,53.798,82.877,107.597,129.894,156.296c44.721,46.313,111.136,72.845,165.367,105.048
			c67.909,40.318,105.318,102.201,166.131,150.513c83.626,66.421,172.592,130.47,256.66,199.384
			c70.903,58.124,202.439,139.795,293.338,151.839c-39.23-32.297-85.992-47.942-127.184-76.57
			c-108.885-75.684-225.219-146.938-316.961-244.971C7261.808,3925.427,7104.033,3741.654,7207.066,3651.189z"/>
		<path id="_x31_80640916" fill="none" stroke="#010101" stroke-width="80" d="M6944.262,4036.138
			c-17.889-37.532-55.081-124.836-108.589-110.186c-80.805,22.137-1.848,206.032,15.803,253.98
			c21.446,58.223,59.318,111.617,63.42,174.639c5.404,83.251-29.172,161.681-46.151,241.471
			c-18.96,89.086,10.301,170.002,35.128,254.146c20.746,70.317,68.729,141.444,70.223,215.491
			c2.391,118.399-56.176,242.688-134.516,327.082c-39.723,42.787-96.848,97.147-157.212,67.49
			c-84.471-41.511-145.029-154.641-218.222-216.21c-116.553-98.057-209.855-173.525-284.64-308.743
			c-34.97-63.224-88.19-107.32-138.233-157.031c-55.368-55.023-101.027-124.809-151.027-186.142
			c-27.788-34.087-82.495-113.513-133.959-106.903c-67.692,8.693,12.896,118.42,35.763,141.358
			c59.92,60.102,132.996,101.754,182.725,174.436c50.979,74.508,86.246,157.421,145.145,226.376
			c65.838,77.093,149.768,137.721,227.736,200.821c78.204,63.294,328.146,324.391,264.214,295.722
			c-50.487-29.206-111.187-142.055-126.761-45.417c-10.296,63.901,41.343,117.914,18.646,184.886
			c-66.613,196.535-347.454,67.033-423.815,242.871c-24.935,57.531-26.756,133.833-109.942,140.846
			c-55.927,4.717-123.316-53.151-176.001-16.429c-46.301,32.279-17.961,116.06-71.808,137.63
			c-59.61,23.886-123.751-35.247-164.736-66.107c-119.38-89.906-379.813-115.859-496.737-19.062
			c-27.509,22.771-41.584,53.476-44.889,86.123c-8.256,81.482,50.585,175.093,135.146,187.793
			c119.27,17.896,246.096,16.195,361.459-22.807c148.014-50.042,301.543-80.689,449.69-130.478
			c190.727-64.096,358.891-181.67,555.11-234.597c138.321-37.298,260.544-134.73,367.036-229.124
			c100.45-89.042,192.067-188.841,284.563-286.348c70.083-73.874,188.279-119.527,225.481-149.51
			c-7.971-21.387-23.202-38.796-32.898-59.511c-10.593-22.633-19.942-45.91-28.176-69.554
			c-16.438-47.21-29.719-95.469-42.16-143.932c-21.147-82.396-21.693-160.327-55.553-239.028
			c-36.754-85.416-99.844-156.384-131.396-243.261c-11.921-32.833-23.04-126.407-42.793-218.694
			c-10.339-48.293-28.996-99.943-49.931-144.256C6990.649,4142.024,6969.33,4088.747,6944.262,4036.138z"/>
		<path id="_x31_80640905" fill="none" stroke="#010101" stroke-width="80" d="M4897.022,1610.368
			c11.618,29.901,53.901,50.287,55.136,82.182c0.905,23.771-34.082,70.278-54.468,79.253L4897.022,1610.368z"/>
		<path id="_x31_80640906" fill="none" stroke="#010101" stroke-width="80" d="M4904.047,3307.399
			c54.808-24.495,120.204-28.853,178.09-44.517c65.513-17.732,131.228-41.415,194.816-65.499
			c92.394-34.997,213.259-80.875,293.873-146.581c-19.521,22.197-5.312,64.15-31.018,92.79
			c-23.165,25.811-65.568,42.399-96.104,54.346c-62.607,24.497-130.034,31.689-193.31,53.523
			c-72.701,25.09-150.335,31.996-222.58,58.683c-27.741,10.25-60.064,21.151-78.914,45.306
			c-19.417,24.877-7.497,66.542-44.335,77.945L4904.047,3307.399z"/>
	</g>
</g>
</svg>
