<svg width="8336" height="7360" xmlns="http://www.w3.org/2000/svg">
<g transform="scale(1.0)">
<g id="180642730" order="1" parent_id="" graphic_group_label_id="28" graphic_group_label="Atlas - Adult Mouse" sub_image_id="100960120" transform=" scale(1.0, 1.0)"><path id="180642732" parent_id="180642730" order="0" structure_id="8" d="M7599.469,2571.984
			c-80.063-263.499-305.416-468.339-500.539-656.467c-171.438-165.311-303.937-322.049-508.604-434.982
			c-259.251-143.058-424.879-252.302-770.218-330.224c-184.241-41.572-320.768-198.574-590.49-282.977
			c-405.572-126.905-796.663-233.898-1193.38-222.874l18.207,5845.782l5.542-0.01c41.808,4.945,65.671,40.27,96.899,64.932
			c34.687,27.405,70.321,69.156,105.541,92.75c94.412,63.242,239.996,59.289,344.229,40.189
			c277.032-50.756,501.555-48.686,747.828-182.502c245.543-133.416,592.45-376.037,785.82-573.46
			c180.987-184.789,330.928-419.57,377.24-677.497c27.938-155.557,25.696-317.313-18.099-471.162
			c-44.387-155.948-138.337-237.99-247.068-345.706c-7.941-7.885-2.789-38.3-4.055-41.312c-0.529-0.141-0.824-0.263-0.249-0.262
			c0.104,0,0.183,0.104,0.249,0.262c0.727,0.193,1.897,0.424,1.897,0.424c72.539-8.454,150.041-61.365,224.205-80.387
			c428.351,31.927,491.272-123.309,634.351-250.94c191.684-170.985,245.407-292.312,302.902-521.168
			c32.486-129.285,146.965-215.168,198.459-358.188C7689.969,2964.523,7650.617,2740.279,7599.469,2571.984z M5231.173,3843.619
			c-103.688,14.761-199.601,49.394-238.195,57.56c55.332-32.045,145.257-84.996,208.918-112.91
			c68.688-30.122,120.463-36.405,174.573-17.174c25.12,8.926,76.34,38.569,94.455,66.229
			C5409.273,3827.633,5300.45,3836.475,5231.173,3843.619z" style="stroke:black;fill:#bfdae3"/><path id="180642733" parent_id="180642730" order="1" structure_id="354" d="M4059.966,6483.996
			c41.808,4.945,65.671,40.269,96.899,64.932c34.687,27.404,70.321,69.155,105.541,92.749
			c94.412,63.243,239.997,59.29,344.229,40.19c277.033-50.757,501.555-48.686,747.829-182.502
			c245.542-133.417,592.449-376.038,785.82-573.46c180.986-184.79,330.926-419.571,377.239-677.497
			c27.938-155.557,25.696-317.313-18.099-471.161c-44.387-155.949-138.338-237.992-247.068-345.707
			c-8.357-8.298-2.208-41.569-4.304-41.572c-29.168-0.023-60.304-5.351-60.304-5.351c-92.727-48.329-153.023-88.08-225.997-140.318
			c-35.762-25.601-76.017-54.353-121.809-88.282c-83.429-61.799-146.051-122.607-207.506-185.106
			c-44.629-45.385-88.619-84.96-144.896-132.599c-16.903-14.313-83.18-7.017-126.14-8.263
			c-41.534-1.202-140.363,8.646-169.024,15.77c-108.263,26.883-157.045,39.037-253.389,80.477
			c-147.141,63.279-274.074,100.063-429.167,148.247c-76.698,23.83-238.297,27.768-323.823,155.536
			c-29.576,44.188-46.882,77.755-43.948,130.418c1.832,32.947-55.082,32.732-94.134,34.244L4059.966,6483.996z" style="stroke:black;fill:#ff9bcd"/><path id="180642750" parent_id="180642730" order="2" structure_id="711" d="M4663.794,4070.691
			c-12.434-49.951,234.032-124.324,278.316-143.366c76.426-32.868,190.032-59.842,190.032-59.842
			c56.167,22.547,37.459,49.208,34.105,99.314c-3.212,47.898,18.439,74.419,53.575,102.479
			c23.561,18.816,76.104,66.442,63.124,102.189c-12.271,33.756-83.888,15.464-111.88,33.246
			c-37.039,23.519-46.371,56.51-81.268,84.92l0.308-0.222c-19.76-34.606-44.068-64.65-81.86-84.306
			c-48.604-25.283-103.5-36.35-156.595-47.685c-51.195-10.933-159.021-7.844-184.023-68.16
			C4664.977,4082.87,4665.241,4076.502,4663.794,4070.691z" style="stroke:black;fill:#ffa5d2"/><path id="180642751" parent_id="180642730" order="3" structure_id="903" d="M5475.052,3833.153
			c-7.426-6.473-68.123,8.275-79.05,9.529c-31.772,3.623-63.741,7.035-94.967,14.125c-48.82,11.09-124.63,33.513-119.646,95.066
			c3.175,39.075,21.017,83.757,49.459,110.848c25.2,23.991,67.878,43.349,68.25,84.438c0.461,48.788-17.954,60.304-55.694,67.152
			c-41.798,7.594-103.555,10.814-107.569,82.337c-2.063,36.827,43.805,68.801,74.888,77.978
			c66.439,19.641,115.436-49.107,149.563-94.641c20.605-27.513,36.544-57.251,56.026-85.482
			c20.615-29.891,44.354-57.471,66.597-86.213c21.903-28.304,48.985-36.126,73.896-57.992
			c27.421-24.059,44.567-77.991,37.065-113.569C5593.87,3936.729,5475.215,3833.299,5475.052,3833.153z" style="stroke:black;fill:#ffa5d2"/><path id="180642746" parent_id="180642730" order="4" structure_id="659" d="M4786.22,4400.65c13.09,72.55-39.18,75.34-84.95,35.59
			C4620.95,4366.49,4767.14,4294.93,4786.22,4400.65z" style="stroke:black;fill:#ffa5d2"/><path id="180642749" parent_id="180642730" order="5" structure_id="674" d="M4709.31,4181.64
			c-36.56,27.67-107.31,30.98-145.819,33.261c-88.73,5.27-155.2-19.17-193.53-101.811l-0.02-0.32c16.43-2.979,30.85-4.92,52.02-3.3
			c33.42,2.55,66.74,5.95,100.01,10.11c65.33,8.15,130.261,19.04,194.95,31.26c4.37,0.83,8.75,1.63,13.12,2.43l-2.37,6.521
			C4723.64,4168.39,4717.29,4175.59,4709.31,4181.64z" style="stroke:black;fill:#ffa5d2"/><path id="180642747" parent_id="180642730" order="6" structure_id="682" d="M4999.98,4221.76c-48.62-25.29-103.511-36.35-156.62-47.689
			c-37.61-8.04-75.521-13.931-113.32-20.801l-2.37,6.521c-4.03,8.6-10.38,15.8-18.36,21.85l1.811,3.15
			c21.63,24.43,47.07,64.06,58.51,95.44c11.25,30.859,45.351,200.46,88.11,257.51l3.42,6.8c126.38,18.78,264.729,15.62,270.39-87.5
			c1.521-27.73-6.56-62.71-27.06-106.43C5079.77,4297.88,5053.28,4249.49,4999.98,4221.76z" style="stroke:black;fill:#ffa5d2"/><path id="180642748" parent_id="180642730" order="7" structure_id="691" d="M4836.17,4540.52c-39.13-6.72-76.11-15.109-106.42-22.72
			c-0.66-0.16-1.31-0.33-1.97-0.51c-99-25.05-186.16-63.08-279.471-104.04c-48.859-21.45-101.359-42.92-155.67-43.16
			c-16.27-0.07-151.419,35.79-150.56,1.49c0-0.03,0.08-3.15-0.01-4.85c-2.93-52.66,14.37-86.23,43.95-130.421
			c42.631-63.68,104.15-98.149,164.641-119.659l3.96-1.03c5.43-1,10.46-1.97,15.32-2.851l0.02,0.32
			c38.33,82.641,104.8,107.08,193.53,101.811c38.51-2.28,109.26-5.591,145.819-33.261l1.811,3.15
			c21.63,24.43,47.07,64.06,58.51,95.44c11.25,30.859,45.351,200.46,88.11,257.51l3.42,6.8
			C4852.76,4543.29,4844.42,4541.94,4836.17,4540.52z M4701.27,4436.24c45.771,39.75,98.04,36.96,84.95-35.59
			C4767.14,4294.93,4620.95,4366.49,4701.27,4436.24z" style="stroke:black;fill:#ffa5d2"/><path id="180642745" parent_id="180642730" order="8" structure_id="437" d="M5352.358,4488.387
			c-93.835-91.18,36.289-196.804,66.332-223.226c91.838-80.754,167.877-8.781,249.067,33.064
			c69.088,35.596,140.072,60.029,206.125,101.224c148.327,92.494,378.725,226.831,462.727,389.39
			c111.83,216.409,24.862,540.93-51.7,754.798c-44.117,123.278-161.031,307.95-312.486,234.094
			c-236.784-115.485-103.224-499.465-179.4-698.996c-18.849-49.373-42.205-97.122-63.778-145.332
			C5683.695,4831.688,5497.28,4629.201,5352.358,4488.387z" style="stroke:black;fill:#ffa5d2"/><path id="180642734" parent_id="180642730" order="9" structure_id="135" d="M5212.857,5873.905
			c-147.506-42.182-0.472-291.822,100.289-183.107C5451.353,5839.909,5338.597,5909.862,5212.857,5873.905z" style="stroke:black;fill:#ffb3d9"/><path id="180642743" parent_id="180642730" order="10" structure_id="839" d="M4235.836,4433.225
			c23.842-70.285,153.928-18.108,194.765-2.426c30.823,11.834,133.884,64.199,161.006,95.298
			c52.419,60.101-179.034-2.163-210.829-8.032C4347.519,4511.915,4215.494,4493.607,4235.836,4433.225z" style="stroke:black;fill:#ffb3d9"/><path id="180642739" parent_id="180642730" order="11" structure_id="1048" d="M5398.95,5643.7
			c-47.181-12.79-116.724-2.087-161.913,19.913c-72.61,24.268-129.221,130.245-71.82,186.865
			c33.922,50.37,69.423,68.941,67.203,100.071c-24,120.01-249.02-33.01-396.04-36.01c-127.88,0.96-129.486,13.752-158.88,66.367
			c-12.419,22.229-29.899,56.941-44,76.593c-15.825,22.054-20,18-51.726,10c-47.835-12.063-62.074-42-133.399-151.971
			c-47.434-73.134-84.366-155.799-126.617-301.035c-20.143-69.241-53.472-139.892-62.672-190.491
			c-7.601-41.8-24.724-93.409-28.037-111.921c-21.32-119.102-31.35-152.065-46.12-200.063c-1.586-5.154-32.095-85.76-25.883-86.432
			c87.79,34.939,157.234-35.917,221.685-124.637c44.31-61,84.85-133.61,96.21-196.351c22.84-45.109,52.649-71.199,114.42-48.27
			c113.75,190.83,254.229,356.979,388.58,535.79C5103.53,5356.61,5264.55,5487.7,5398.95,5643.7z" style="stroke:black;fill:#ffb3d9"/><path id="180642736" parent_id="180642730" order="12" structure_id="83" d="M4056.666,5980.907
			c38.796,11.434,72.958,11.134,100.494,41.881c26.771,29.898,43.947,67.111,69.478,98.036
			c44.018,53.321,111.259,111.338,169.21,148.608c26.926,17.312,51.068,17.65,80.49,25.372c31.33,8.226,48.11,32.414,65.415,58.353
			c22.387,33.558,40.507,71.354,82.592,82.631c30.754,8.244,60.437,13.154,90.93,24.184
			c55.219,19.968,126.588,57.93,114.723,128.177c-15.797,93.551-142.38,60.261-193.57,23.976
			c-72.81-51.615-133.914-118.445-207.759-169.149c-38.225-26.257-78.18-45.361-124.336-52.079
			c-36.712-5.344-74.729-3.585-105.879-26.963c-76.563-57.451-60.605-177.501-141.311-230.228L4056.666,5980.907z" style="stroke:black;fill:#ffb3d9"/><path id="180642741" parent_id="180642730" order="13" structure_id="136" d="M5398.95,5643.7c-134.4-156-295.42-287.09-419.01-451.58
			c-134.351-178.811-274.83-344.96-388.58-535.79c-7.69-12.87-15.24-25.86-22.65-38.97c2.71-49.351,64.93-103.86,159.07-100.07
			c0.66,0.18,1.31,0.35,1.97,0.51c30.31,7.61,67.29,16,106.42,22.72l4.97,7.671c112.94,136.77,185.301,362.109,358.011,434.439
			c142.819,59.82,406.449,72.41,547.659-0.7l3.62-2.029c14.96,32.63,29.811,65.359,42.59,98.83
			c63.181,165.479-17.89,457.8,87.631,618.64c2.58,95.91-65.04,198.36-183.221,131.899c-30.14-27.689-61.76-53.72-95.42-75.51
			c-38.21-24.72-99.89-92.21-145.26-52.029c-2.09,1.85-4,3.72-5.75,5.63C5434.23,5685.61,5416.83,5664.43,5398.95,5643.7z" style="stroke:black;fill:#ffb3d9"/><path id="180642735" parent_id="180642730" order="14" structure_id="955" d="M5599.126,6181.865
			c31.366-3.776,62.492-22.414,104.517-50.821c36.628-24.769,72.665-51.775,100.425-86.878c42.5-53.77,9.225-99.792-32.437-142.222
			c-51.977-52.94-107.286-107.833-169.616-148.18c-38.211-24.728-99.895-92.214-145.262-52.038
			c-21.428,18.963-24.656,40.981-25.904,68.06c-4.971,109.01-93.759,204.04-190.114,247.249
			c-103.347,46.374-213.709-17.184-309.049-55.241c-61.481-24.543-144.986-66-207.076-21.564
			c-73.612,52.663-38.587,156.882,13.837,211.078c57.233,59.168,112.354,97.235,186.969,128.812
			c62.613,26.491,67.907,63.179,60.678,124.715c-3.956,33.584-15.14,113.98,32.444,123.342
			c37.314,7.313,107.544-54.247,133.563-74.915c36.857-29.268,45.178-74.362,96.282-76.878
			c40.369-1.993,73.522,30.662,114.458,7.326c61.543-35.071,33.927-167.531,53.349-225.8c16.687-50.019,43.343-38.472,78.583-13.245
			C5536.916,6174.814,5568.132,6185.583,5599.126,6181.865z" style="stroke:black;fill:#ffb3d9"/><path id="180642740" parent_id="180642730" order="15" structure_id="963" d="M5470.621,6415.148
			c45.651-6.07,101.091-60.472,116.195-71.043c26.805-18.761,86.859-46.761,94.141-81.216c10.452-49.407-37.91-74.301-86.26-58.095
			c-46.318,15.548-180.636,129.868-188.613,181.45C5400.354,6423.731,5440.586,6419.141,5470.621,6415.148z" style="stroke:black;fill:#ffb3d9"/><path id="180642744" parent_id="180642730" order="16" structure_id="852" d="M4861.16,4544.54c126.38,18.78,264.729,15.62,270.39-87.5
			c35.351-72.33,113.061-81.85,187.46-44.98c-1.27,25.24,7.62,51.33,33.351,76.33c144.92,140.811,331.34,343.301,376.88,445.011
			c6.95,15.52,14.08,31,21.189,46.5l-3.62,2.029c-141.21,73.11-404.84,60.521-547.659,0.7
			c-172.71-72.33-245.07-297.67-358.011-434.439l-4.97-7.671C4844.42,4541.94,4852.76,4543.29,4861.16,4544.54z" style="stroke:black;fill:#ffb3d9"/><path id="180642742" parent_id="180642730" order="17" structure_id="773" d="M4135.909,5003.858
			c-54.319-31.291-94.682-307.617-40.958-413.848c65.488-129.479,243.068-70.147,341.287-5.4
			c91.294,60.184,23.968,206.938-55.511,316.344C4310.524,4997.588,4235.396,5061.164,4135.909,5003.858z" style="stroke:black;fill:#ffb3d9"/><path id="180642738" parent_id="180642730" order="18" structure_id="230" d="M4057.196,6485.037
			c74.637-12.935,71.603-98.054,64.956-156.899c-7.726-68.377-26.435-96.848-65.911-149.734L4057.196,6485.037z" style="stroke:black;fill:#ffc6e2"/><path id="180642737" parent_id="180642730" order="19" structure_id="222" d="M4056.607,5962.198
			c56.143,61.442,128.522-14.313,128.321-75.996c-0.224-69.236-37.968-157.707-70.466-217.691
			c-19.905-36.748-40.45-67.948-59.098-105.457L4056.607,5962.198z" style="stroke:black;fill:#ffc6e2"/><path id="180642752" parent_id="180642730" order="20" structure_id="512" d="M4036.237,644.46
			c396.717-11.024,787.808,95.969,1193.38,222.874c269.723,84.402,406.249,241.404,590.49,282.977
			c345.339,77.922,510.967,187.166,770.218,330.224c204.668,112.934,337.166,269.672,508.604,434.982
			c195.123,188.128,420.477,392.969,500.539,656.467c51.148,168.295,90.5,392.539,10.668,614.221
			c-51.494,143.019-165.973,228.903-198.459,358.188c-57.495,228.857-111.219,350.183-302.902,521.168
			c-143.078,127.632-206,282.867-634.351,250.94c-95.958,24.612-197.474,105.948-286.655,74.352
			c-138.163-72.007-205.517-129.64-347.806-228.602c-146.1-101.605-288.556-290.526-435.75-378.77
			c-136.616-81.911-323.677,81.937-465.225,142.813c-147.141,63.279-274.074,100.063-429.167,148.247
			c-154.402,47.963-304.748,50.843-459.957,56.864L4036.237,644.46z" style="stroke:black;fill:#f0f080"/><path id="180642753" parent_id="180642730" order="21" structure_id="10725" d="M4044.302,2344.966
			c18.452,3.158,36.912,6.3,55.42,9.134c204.323,31.294,414.264,17.391,612.746-41.262
			c99.014-29.258,190.568-70.528,268.618-138.579c30.629-26.711,74.394-54.591,82.904-96.553
			c9.645-47.503-30.242-104.448-9.929-152.593c50.673-120.072,128.702-196.515,128.342-338.012
			c-0.287-112.812-130.321-167.582-212.307-213.993c-111.746-63.245-232.168-92.332-356.91-118.595
			c-188.768-39.735-378.06-60.43-569.56-82.04L4044.302,2344.966z" style="stroke:black;fill:#fffc91"/><path id="180642755" parent_id="180642730" order="22" structure_id="10725" d="M4039.369,760.868
			c311.645,28.536,618.051,6.638,910.84,134.841c139.167,60.934,297.085,114.421,421.88,202.207
			c138.291,97.269,155.395,207.465,212.563,352.854c19.815,50.383,58.404,110.912,110.366,141.715
			c28.205-43.99,53.71-90.175,67.959-137.19c35.58-117.404,98.294-188.377,161.856-278.968
			c-33.086-9.03-67.88-17.702-104.726-26.016c-184.241-41.572-320.768-198.574-590.49-282.977
			c-405.572-126.905-796.663-233.898-1193.38-222.874L4039.369,760.868z" style="stroke:black;fill:#fffc91"/><path id="180642754" parent_id="180642730" order="23" structure_id="10723" d="M4479.419,2601.629
			c73.686-18.566,151.325-63.276,226.327-71.518c71.106-7.813,138.935-0.57,208.406-23.225
			c51.609-16.832,101.475-42.031,151.171-63.804c43.158-18.908,203.101-92.675,196.473-155.586
			c-5.055-48.18-86.186-8.42-119.324-20.9c-20.944-7.894,43.84-39.964,45.527-40.603c31.894-12.15,67.027-0.448,96.836-14.018
			c47.894-21.79,56.483-121.291,75.785-166.23c39.955-93.017,86.448-173.17,110.874-272.452
			c61.956-251.808-168.139-430.481-369.6-546.54c-129.107-74.361-246.766-127.225-393.848-161.54
			c-115.041-26.841-233.054-35.866-349.767-52.414c-49.762-7.056-315.238-27.858-315.238-27.858l0.584,187.533
			c191.5,21.609,380.792,42.305,569.56,82.04c124.742,26.263,245.164,55.35,356.91,118.595
			c81.985,46.411,212.02,101.181,212.307,213.993c0.36,141.498-77.669,217.94-128.342,338.012
			c-20.313,48.145,19.573,105.09,9.929,152.593c-8.511,41.962-52.275,69.842-82.904,96.553
			c-78.05,68.051-169.604,109.321-268.618,138.579c-198.481,58.653-408.423,72.556-612.746,41.262
			c-18.508-2.834-36.968-5.976-55.42-9.134l0.803,257.78l214.714,22.491C4334.116,2625.152,4407.169,2619.834,4479.419,2601.629z" style="stroke:black;fill:#ece754"/><path id="180642756" parent_id="180642730" order="24" structure_id="10723" d="M5584.651,1450.77
			c-57.168-145.39-74.271-255.586-212.563-352.854c-124.795-87.786-282.713-141.272-421.88-202.207
			c-292.789-128.203-599.195-106.305-910.84-134.841l0.662,212.678l2.981,1.643c45.06-7.164,77.788,1.366,124.043,1.522
			c223.864,0.517,460.423,22.457,671.75,93.493c222.263,74.712,458.326,182.862,596.173,383.001
			c54.126,78.589,111.548,180.87,198.664,229.57c19.765-28.647,41.255-58.909,61.375-90.29
			C5643.056,1561.682,5604.467,1501.153,5584.651,1450.77z" style="stroke:black;fill:#ece754"/><path id="180642764" parent_id="180642730" order="25" structure_id="10731" d="M4920.506,3024.218
			c16.023-50.724-76.47-94.995-113.58-112.222c-138.349-64.258-295.815-94.699-445.338-119.944
			c-104.722-17.677-209.733-29.434-315.984-29.233l1.646,182.865c239.848,1.33,498.117,2.794,687.648,32.241
			C4809.283,2989.482,4873.507,3007.967,4920.506,3024.218z" style="stroke:black;fill:#fffc91"/><path id="180642763" parent_id="180642730" order="26" structure_id="10729" d="M4804.172,2918.399
			c37.327,17.328,130.705,62.015,113.307,113.11c9.313,2.603,17.48,5.23,24.241,7.876c51.306,20.076,116.453,50.221,176.276,85.462
			c1.604-5.196,3.559-10.754,2.673-16.517c-7.487-48.723-11.065-58.329-34.75-98.446c-26.628-45.104-80.601-96.743-124.489-127.009
			c-43.539-30.025-102.785-61.684-156.205-82.774c-53.854-21.262-106.524-30.644-164.497-35.567
			c-20.228-1.718-36.833,0.699-58.953-1.718c-22.939-2.494-53.964-8.163-76.03-11.7c-30.337-4.851-61.217-6.298-91.449-11.068
			c-45.757-7.215-91.595-4.75-134.657-20.549c-22.96-8.422-232.516-41.405-232.89-33.445c0,0.016-3.877,82.708-3.898,83.157v0.011
			c106.251-0.201,211.263,11.556,315.984,29.233C4508.356,2823.7,4665.823,2854.141,4804.172,2918.399z" style="stroke:black;fill:#ece754"/><path id="180642767" parent_id="180642730" order="27" structure_id="10734" d="M4724.273,3478.061
			c-228.105,32.649-416.109,114.945-483.079,345.025c-29.8,102.356-90.971,107.521-192.112,107.799l0.784,200.521
			c155.208-6.021,305.554-8.901,459.957-56.864c155.093-48.185,282.026-84.968,429.167-148.247
			c141.548-60.876,328.608-224.724,465.225-142.813c42.954,25.751,85.505,60.083,127.86,98.311
			c8.677-61.809-1.517-131.941-8.721-191.062C5344.996,3441.491,4999.749,3438.626,4724.273,3478.061z" style="stroke:black;fill:#fffc91"/><path id="180642768" parent_id="180642730" order="28" structure_id="10734" d="M4734.897,2977.925
			c-189.531-29.446-447.801-30.911-687.648-32.241l1.534,170.536c121.803,5.898,243.484,8.783,365.375,3.41
			c92.271-4.072,184.136-13.08,276.354-15.836c64.521-1.931,158.078-7.233,209.443-51.325c10.768-9.243,17.225-18.402,20.276-27.364
			c0.102-0.297,0.18-0.592,0.273-0.888C4873.507,3007.967,4809.283,2989.482,4734.897,2977.925z" style="stroke:black;fill:#fffc91"/><path id="180642769" parent_id="180642730" order="29" structure_id="10732" d="M5473.958,3534.278
			c-27.119-28.285-58.433-55.906-81.454-79.323c-55.933-56.89-133.862-109.902-207.223-140.881
			c-123.238-52.035-252.29-30.365-381.652-31.822c-59.868-0.674-119.47,5.512-180.909,8.871
			c-194.197,10.602-382.395,18.05-575.426,14.282l-0.141,131.903l1.929,493.578c101.141-0.277,162.313-5.442,192.112-107.799
			c66.97-230.081,254.974-312.376,483.079-345.025c275.476-39.434,620.723-36.57,799.08,212.671
			c-0.547-4.483-1.077-8.906-1.579-13.254C5517.277,3638.557,5498.693,3587.331,5473.958,3534.278z" style="stroke:black;fill:#ece754"/><path id="180642770" parent_id="180642730" order="30" structure_id="10732" d="M4468.698,3223.957
			c105.783-4.032,173.002-10.084,280.044-16.585c42.225-2.564,124.54-5.327,166.757-8.396
			c124.313-9.038,184.492-13.314,205.251-80.531c-59.823-35.241-124.971-65.386-176.276-85.462
			c-6.761-2.646-14.928-5.273-24.241-7.876c-3.052,8.962-9.509,18.121-20.276,27.364c-51.365,44.092-144.923,49.394-209.443,51.325
			c-92.219,2.756-184.084,11.764-276.354,15.836c-121.891,5.373-243.572,2.488-365.375-3.41l-1.665,126.279l0,0
			c10.637-0.414,20.736-0.61,31.381-1C4208.643,3236.676,4338.548,3228.927,4468.698,3223.957z" style="stroke:black;fill:#ece754"/><path id="180642757" parent_id="180642730" order="31" structure_id="10677" d="M6590.325,1480.535
			c-231.591-127.794-388.477-228.604-665.492-304.208c-63.563,90.591-126.276,161.563-161.856,278.968
			c-14.249,47.016-39.754,93.201-67.959,137.19c24.104,14.289,51.08,22.188,80.402,19.698
			c93.055-7.898,93.624-85.786,134.307-154.17c164.493-276.457,452.418,25.555,598.152,151.411
			c76.084,65.699,185.204,126.081,70.452,201.879c-88.61,58.533-258.502,40.58-359.954,42.991
			c-99.194,2.363-217.164-16.15-313.58,12.671c-0.082,0.024-0.162,0.049-0.243,0.073c-90.543,27.138-152.384,86.18-197.104,167.238
			c-38.292,69.413-35.243,172.3-89.771,227.654c33.733,97.616,103.577,188.67,191.527,248.414
			c7.73-9.939,15.007-19.295,20.99-26.987c27.68-35.587,146.022-159.649,146.022-159.649
			c116.892-108.532,235.961-201.266,382.756-267.407c160.785-72.444,313.736-89.594,485.508-102.168
			c82.989-6.075,158.385-36.976,236.214-56.304C6917.933,1739.06,6787.678,1589.432,6590.325,1480.535z" style="stroke:black;fill:#fffc91"/><path id="180642758" parent_id="180642730" order="32" structure_id="10675" d="M6507.879,1609.423
			c-145.734-125.855-433.659-427.868-598.152-151.411c-40.683,68.385-41.252,146.272-134.307,154.17
			c-29.322,2.49-56.299-5.41-80.402-19.698c-20.12,31.381-41.61,61.643-61.375,90.29c11.381,6.363,23.263,11.822,35.717,16.183
			c74.792,26.184,182.703,12.184,254.919-16.744c29.084-11.646,111.779-76.084,147.156-59.853
			c-103.974,173.566-406.604,30.956-483.883,243.622c-23.591,64.953-32.927,112.797-32.906,182.074
			c0.04,85.994-31.101,172.518-7.912,254.883c24.669,87.635,69.892,163.365,143.507,218.674
			c23.266,17.475,46.625,34.709,70.23,51.389c12.479-16.043,31.707-40.766,48.735-62.66
			c-87.95-59.744-157.794-150.798-191.527-248.414c54.528-55.354,51.479-158.241,89.771-227.654
			c44.72-81.059,106.561-140.101,197.104-167.238c0.081-0.024,0.161-0.049,0.243-0.073c96.416-28.821,214.386-10.308,313.58-12.671
			c101.452-2.411,271.344,15.542,359.954-42.991C6693.083,1735.503,6583.963,1675.122,6507.879,1609.423z" style="stroke:black;fill:#ece754"/><path id="180642759" parent_id="180642730" order="33" structure_id="10680" d="M7599.469,2571.984
			c-80.063-263.499-305.416-468.339-500.539-656.467c-6.127-5.909-12.2-11.805-18.233-17.689
			c-77.829,19.329-153.225,50.229-236.214,56.304c-171.771,12.574-324.723,29.724-485.508,102.168
			c-146.795,66.141-265.864,158.875-382.756,267.407c0,0-118.343,124.063-146.022,159.649c-5.983,7.692-13.26,17.048-20.99,26.987
			c42.847,29.105,89.989,50.781,139.35,62.162c122.109,28.14,303.749,64.125,421.179,7.702
			c87.993-42.282,172.847-127.902,210.441-217.822c62.084-148.514,241.76-299.942,419.033-290.206
			c145.726,8.012,206.243,134.429,249.061,256.154c59.189,168.226,44.353,332.351,81.477,498.083
			c32.068,143.141,173.776,269.61,79.13,423.531c-77.694,126.291-188.997,1.206-259.744-61.517
			c-141.967-125.81-535.94-336.93-725.972-250.729c-30.275,13.735-50.309,29.798-62.208,47.388
			c57.312,31.419,192.771,103.582,311.475,146.747c173.967,63.261,349.559,177.231,535.176,264.695
			c77.954,36.732,161.217,39.237,239.62,60.924c48.253-86.838,123.773-162.54,162.914-271.248
			C7689.969,2964.523,7650.617,2740.279,7599.469,2571.984z" style="stroke:black;fill:#fffc91"/><path id="180642760" parent_id="180642730" order="34" structure_id="10678" d="M7329.746,2826.416
			c-37.124-165.731-22.287-329.856-81.477-498.083c-42.817-121.725-103.335-248.142-249.061-256.154
			c-177.273-9.736-356.949,141.692-419.033,290.206c-37.595,89.92-122.448,175.54-210.441,217.822
			c-117.43,56.423-299.069,20.438-421.179-7.702c-49.36-11.381-96.503-33.057-139.35-62.162
			c-17.028,21.894-36.257,46.617-48.735,62.66c108.996,77.018,223.291,142.158,358.368,163.918
			c116.346,18.738,291.877,69.075,405.966,30.479c116.148-39.284,236.337-1.605,341.801-82.231
			c110.245-84.278,75.47-215.465,141.729-321.175c-34.1,54.417-2.56,220.598-12.444,285.212
			c-9.853,64.224-2.204,116.522,36.764,169.778c20.062,27.409,86.974,78.792,87.04,116.098
			c0.057,28.117-50.567-21.893-53.238-23.853c-0.029,0.005-0.045,0.018-0.075,0.021c-0.075-0.109-0.042-0.107,0.075-0.021
			c13.59-2.359-123.321-94.552-171.541-95.942c-137.95-3.947-281.21,18.32-418.142,23.171
			c-19.45,7.199-194.453,7.029-257.734,10.142c-20.497,1.01-32.738,9.23-38.748,22.405
			c44.989,28.957,132.334,87.298,159.989,102.662c4.773,2.652,11.795,6.551,20.673,11.418
			c11.899-17.589,31.933-33.653,62.208-47.388c190.031-86.2,584.005,124.919,725.972,250.729
			c70.747,62.723,182.05,187.808,259.744,61.517C7503.522,3096.025,7361.814,2969.556,7329.746,2826.416z" style="stroke:black;fill:#ece754"/><path id="180642761" parent_id="180642730" order="35" structure_id="10683" d="M6672.427,3131.834
			c-118.704-43.165-254.163-115.327-311.475-146.747c-70.661,104.453,146.146,262.832,216.667,308.546
			c103.552,67.12,221.504,105.391,337.926,143.415c48.188,15.742,96.593,38.654,145,51.439
			c49.447,13.059,107.971,4.553,146.279,45.183c102.105,108.28-133.12,263.272-204.341,325.194
			c-139.396,121.189-302.817,438.957-531.945,305.086c-117.183-68.473-67.341-246.657-109.655-352.631
			c-59.502-149.064-44.401-322.496-137.468-459.315c-65.019-95.581-138.278-187.685-206.282-281.656
			c-82.83-114.503-188.722-213.229-311.886-283.114c-97.214-55.169-274.609-109.885-384.958-59.178
			c-13.898,6.389-24.939,15.188-33.54,25.673c157.431,77.646,297.815,197.634,297.815,197.634
			c200.25,138.8,285.865,365.335,400.158,569.425c99.266,177.248,186.777,355.418,273.006,539.561
			c28.43,60.712,54.181,124.61,93.726,179.262c25.138,34.739,61.876,57.797,91.424,86.739c10.565-3.81,21.089-7.166,31.547-9.849
			c428.351,31.927,491.272-123.309,634.351-250.94c191.684-170.985,245.407-292.312,302.902-521.168
			c7.794-31.016,20.314-59.532,35.545-86.94c-78.403-21.688-161.666-24.192-239.62-60.924
			C7021.985,3309.065,6846.394,3195.095,6672.427,3131.834z" style="stroke:black;fill:#fffc91"/><path id="180642762" parent_id="180642730" order="36" structure_id="10681" d="M7206.824,3533.67
			c-38.309-40.63-96.832-32.125-146.279-45.183c-48.407-12.785-96.812-35.697-145-51.439
			c-116.422-38.024-234.374-76.295-337.926-143.415c-70.521-45.714-287.328-204.094-216.667-308.546
			c-8.878-4.868-15.899-8.766-20.673-11.418c-27.655-15.364-115-73.705-159.989-102.662
			c-30.467,66.793,99.301,260.989,126.479,289.317c174.446,181.872,330.828,394.13,580.023,478.709
			c-111.63-37.893-170.61-45.286-217.933,60.553c6.049-13.362-37.241,130.2-50.065,106.365
			c-46.001-85.587,29.06-186.33-39.292-277.913c-58.943-78.978-129.551-133.774-195.226-204.383
			c-113.027-121.506-222.479-257.422-315.903-394.411c-90.406-132.54-219.851-190.159-357.034-256.191
			c-71.521-34.412-137.579-77.506-217.653-89.388c-55.327-8.217-110.385,2.341-165.647-0.735
			c-43.21-2.398-83.693-16.573-126.617-20.98c-80.893-8.315-180.634-4.748-240.01,59.079
			c-12.235,13.154-19.252,26.322-22.219,39.401c67.75,8.106,194.045,29.445,282.069,64.129
			c21.938,8.644,43.872,18.508,65.486,29.169c8.601-10.486,19.642-19.285,33.54-25.673c110.349-50.708,287.744,4.009,384.958,59.178
			c123.164,69.885,229.056,168.611,311.886,283.114c68.004,93.972,141.264,186.076,206.282,281.656
			c93.066,136.819,77.966,310.251,137.468,459.315c42.314,105.974-7.527,284.158,109.655,352.631
			c229.128,133.871,392.549-183.896,531.945-305.086C7073.704,3796.942,7308.93,3641.95,7206.824,3533.67z" style="stroke:black;fill:#ece754"/><path id="180642765" parent_id="180642730" order="37" structure_id="10686" d="M6351.454,4239.611
			c-39.545-54.651-65.296-118.55-93.726-179.262c-86.229-184.143-173.74-362.313-273.006-539.561
			c-114.293-204.09-199.908-430.625-400.158-569.425c0,0-140.385-119.988-297.815-197.634
			c-36.221,44.16-29.006,118.344-8.096,169.465c34.565,84.503,106.917,99.268,171.418,148.172
			c61.913,46.932,91.254,128.429,134.73,190.368c65.727,93.67,94.987,190.401,143.376,291.499
			c39.611,82.797,102.138,170.493,166.026,236.801c32.831,34.07,429.104,388.878,273.14,446.565
			c-124.069,45.814-294.548-155.104-366.17-232.329c-48.969-52.801-97.466-104.906-154.9-148.684
			c-55.907-42.615-61.081-61.561-93.304-118.419c-9.266-16.355-19.155-31.818-29.616-46.437
			c7.204,59.12,17.397,129.253,8.721,191.062c102.787,92.767,204.425,208.504,307.89,280.459
			c142.289,98.962,209.643,156.595,347.806,228.602c79.463,28.153,168.718-33.352,255.108-64.503
			C6413.33,4297.408,6376.592,4274.351,6351.454,4239.611z" style="stroke:black;fill:#fffc91"/><path id="180642766" parent_id="180642730" order="38" structure_id="10684" d="M5894.204,3790.034
			c-63.889-66.308-126.415-154.004-166.026-236.801c-48.389-101.098-77.649-197.829-143.376-291.499
			c-43.477-61.938-72.817-143.436-134.73-190.368c-64.501-48.905-136.853-63.669-171.418-148.172
			c-20.91-51.122-28.125-125.306,8.096-169.465c-21.614-10.661-43.549-20.525-65.486-29.169
			c-88.024-34.684-214.319-56.023-282.069-64.129c-15.117,66.642,74.921,130.965,115.638,179.307
			c44.227,52.509,69.301,119.653,113.459,170.782c38.305,44.341,80.21,81.297,115.797,129.724
			c77.981,106.082,151.167,216.156,222.228,326.953c27.304,42.572,34.368,89.44,60.487,132.138
			c26.968,44.068,66.433,80.496,100.319,119.038c36.804,41.852,62.116,86.315,105.753,121.765
			c41.603,33.79,88.78,63.965,109.617,115.841c-46.765-6.88-96.364-63.585-128.455-94.516
			c-56.023-54.014-114.588-106.022-169.22-161.918c-35.927-36.732-42.353-71.485-68.926-113.849
			c-10.574-16.857-25.482-34.259-41.933-51.417c24.735,53.053,43.319,104.278,47.816,143.199c0.502,4.348,1.032,8.771,1.579,13.254
			c10.461,14.618,20.351,30.081,29.616,46.437c32.223,56.858,37.396,75.804,93.304,118.419
			c57.435,43.777,105.932,95.883,154.9,148.684c71.622,77.225,242.101,278.144,366.17,232.329
			C6323.308,4178.912,5927.035,3824.104,5894.204,3790.034z" style="stroke:black;fill:#ece754"/><path id="180642772" parent_id="180642730" order="39" structure_id="1009" d="M4192.636,6585.439
			c-38.962-36.542-69.995-69.115-26.679-113.174c42.887-43.621,100.976-61.684,140.487-57.65
			c45.183,4.611,108.705,39.323,147.801,63.987c66.069,41.664,133.99,137.91,209.533,157.814
			c21.529,5.673,45.798,9.707,63.572,24.229c-0.325,0.221-2.697,5.318-2.68,5.417c-32.525,9.569-66.229,14.4-99.603,20.107
			c-102.233,17.479-211.435,21.739-311.13-11.333C4282.429,6664.387,4232.918,6623.206,4192.636,6585.439z" style="stroke:black;fill:#cccccc"/><path id="180642773" parent_id="180642730" order="40" structure_id="1009" d="M4046.664,5551.697
			c24.467,67.438,112.219,187.578,126.978,275.008c6.76,40.029,20.033,194.833,81.86,251.29
			c43.049,39.316,103.322,84.482,175.059,138.74c56.801,42.961,104.001,98.936,123.091,111.293
			c98.508,63.732,365.899,192.537,418.734,87.683c40.225-79.838-193.603-170.126-241.78-200.899
			c-150.075-95.844-248.314-198.743-328.211-363.872c-25.107-51.895-43.584-71.01-77.422-161.913
			c-42.64-114.579-83.803-273.089-105.109-373.872c-38.193-180.737-62.27-357.336-172.804-332.791L4046.664,5551.697z" style="stroke:black;fill:#cccccc"/><path id="180642774" parent_id="180642730" order="41" structure_id="1009" d="M4824.606,4265.647
			c125.627-3.362,129.34,119.579,9.71,93.382C4759.678,4342.695,4742.562,4267.844,4824.606,4265.647z" style="stroke:black;fill:#cccccc"/><path id="180642775" parent_id="180642730" order="42" structure_id="1009" d="M5783.907,6214.6
			c111.828-60.343,293.97-218.719,356.396-282.458c180.987-184.789,330.928-419.57,377.24-677.497
			c27.938-155.557,25.696-317.313-18.099-471.162c-44.387-155.948-138.337-237.99-247.068-345.706
			c-8.357-8.298-2.208-41.569-4.304-41.573c-29.168-0.021-60.304-5.35-60.304-5.35c-92.727-48.329-153.024-88.079-225.997-140.318
			c-35.762-25.6-76.017-54.352-121.809-88.283c-23.02-17.056-88.241-52.77-88.241-52.77
			c-57.973-28.233-243.974-98.053-262.082,16.627c-18.19,115.144,326.348,238.162,397.149,282.086
			c148.309,92.007,363.85,217.198,447.85,378.888c111.826,215.263,28.803,539.772-47.761,752.512
			c-36.359,101.054-102.55,192.405-176.011,270.032c-45.779,48.363-94.254,87.315-159.558,88.459
			c-30.237,0.534-102.12-40.617-127.134-19.944c-39.525,32.653,45.329,93.059,19.41,140.856
			c-35.625,65.719-169.444,89.522-151.633,186.875C5694.119,6217.648,5724.856,6246.471,5783.907,6214.6z" style="stroke:black;fill:#cccccc"/><path id="180642776" parent_id="180642730" order="43" structure_id="1009" d="M4047.293,3305.404
			c193.032,3.768,381.229-3.68,575.426-14.282c61.439-3.358,121.041-9.545,180.909-8.871
			c129.362,1.457,258.414-20.213,381.652,31.822c73.36,30.979,151.29,83.992,207.223,140.881
			c36.986,37.622,95.379,86.091,123.387,130.74c26.573,42.364,32.999,77.117,68.926,113.849
			c54.632,55.896,113.196,107.904,169.22,161.918c32.091,30.931,81.69,87.636,128.455,94.516
			c-20.837-51.876-68.015-82.051-109.617-115.841c-43.637-35.449-68.949-79.913-105.753-121.765
			c-33.887-38.542-73.352-74.97-100.319-119.038c-26.119-42.698-33.184-89.565-60.487-132.138
			c-71.061-110.797-144.246-220.872-222.228-326.953c-35.587-48.426-77.492-85.383-115.797-129.724
			c-44.158-51.129-69.232-118.273-113.459-170.782c-48.708-57.829-167.996-138.528-93.419-218.708
			c59.376-63.826,159.117-67.394,240.01-59.079c42.924,4.407,83.407,18.582,126.617,20.98c55.263,3.076,110.32-7.482,165.647,0.735
			c80.074,11.882,146.133,54.976,217.653,89.388c137.184,66.033,266.628,123.651,357.034,256.191
			c93.424,136.989,202.876,272.905,315.903,394.411c65.675,70.608,136.282,125.405,195.226,204.383
			c68.352,91.583-6.709,192.326,39.292,277.913c12.824,23.835,56.114-119.728,50.065-106.365
			c47.322-105.839,106.303-98.446,217.933-60.553c-249.195-84.58-405.577-296.838-580.023-478.709
			c-32.54-33.916-212.138-305.595-87.731-311.723c63.281-3.112,238.284-2.943,257.734-10.142
			c136.932-4.852,280.191-27.118,418.142-23.171c48.321,1.393,185.72,93.979,171.466,95.963
			c-1.794-2.601,53.373,53.179,53.313,23.831c-0.066-37.306-66.979-88.688-87.04-116.098
			c-38.968-53.256-46.616-105.554-36.764-169.778c9.885-64.615-21.655-230.795,12.444-285.212
			c-66.259,105.71-31.483,236.896-141.729,321.175c-105.464,80.626-225.652,42.947-341.801,82.231
			c-114.089,38.595-289.62-11.742-405.966-30.479c-164.331-26.473-297.906-117.147-428.599-215.308
			c-73.615-55.309-118.838-131.039-143.507-218.674c-23.188-82.365,7.952-168.889,7.912-254.883
			c-0.021-69.277,9.315-117.122,32.906-182.074c77.279-212.666,379.909-70.055,483.883-243.622
			c-35.377-16.231-118.072,48.207-147.156,59.853c-72.216,28.928-180.127,42.927-254.919,16.744
			c-107.781-37.738-173.184-156.896-234.381-245.753c-137.847-200.139-373.91-308.289-596.173-383.001
			c-211.327-71.036-447.887-92.976-671.75-93.493c-46.255-0.156-77.498-8.692-122.553-1.526c0.296,2.505,0.021,6.984,0.021,6.984
			s263.988,20.843,313.748,27.912c116.714,16.576,234.727,25.617,349.767,52.503c147.083,34.375,264.741,87.33,393.849,161.816
			c201.462,116.257,431.558,295.231,369.604,547.461c-24.425,99.453-70.917,179.74-110.874,272.915
			c-19.301,45.012-27.891,144.684-75.783,166.511c-29.809,13.589-64.943,1.868-96.836,14.038
			c-1.688,0.643-66.472,32.767-45.527,40.672c33.139,12.504,114.27-27.324,119.325,20.937
			c6.628,63.017-153.315,136.901-196.473,155.843c-49.696,21.813-99.561,47.061-151.171,63.917
			c-69.471,22.687-137.301,15.443-208.404,23.265c-75.003,8.249-152.643,53.033-226.328,71.631
			c-72.25,18.236-145.303,23.563-219.6,23.649c-39.843,0.049-97.319-9.738-137.319-12.738c-29.402-2.205-49.369-2.055-78-7l-1,78
			c0,0,155,14,255,40c49.49,12.867,85.652,11.94,104,14c35.537,3.99,115.987,18.301,173,23
			c53.017,4.37,105.201,3.626,159.043,17.568c134.115,34.705,203.718,80.369,304.996,168.083
			c31.576,27.341,98.23,120.765,79.762,187.833c-5.309,19.278-17.692,29.986-36.801,39.516
			c-62.234,31.038-180.585,22.252-230.369,26.793c-81.996,7.475-805.106,47.593-805.019,46.902
			C4047.168,3265.313,4042.566,3288.074,4047.293,3305.404" style="stroke:black;fill:#cccccc"/><path id="180642771" parent_id="180642730" order="44" structure_id="145" d="M4047.917,4394.74
			c39.047-1.511,95.986,4.939,94.153-28.009c-2.933-52.661,14.374-86.229,43.949-130.417
			c42.761-63.879,104.531-98.365,165.208-119.854c0,0-199.93,11.009-301.361,14.946L4047.917,4394.74z" style="stroke:black;fill:#aaaaaa"/></g>
</g>
</svg>