<?xml version="1.0" encoding="utf-8"?>
<!-- Generator: Adobe Illustrator 16.0.0, SVG Export Plug-In . SVG Version: 6.00 Build 0)  -->
<!DOCTYPE svg PUBLIC "-//W3C//DTD SVG 1.1//EN" "http://www.w3.org/Graphics/SVG/1.1/DTD/svg11.dtd">
<svg version="1.1" id="Layer_1" xmlns="http://www.w3.org/2000/svg" xmlns:xlink="http://www.w3.org/1999/xlink" x="0px" y="0px"
	 width="9744.01px" height="6823.46px" viewBox="0 0 9744.01 6823.46" enable-background="new 0 0 9744.01 6823.46"
	 xml:space="preserve">
<g transform="scale(1.0)">
	<g id="_x31_80611098" transform=" scale(1.0, 1.0)">
		<path id="_x31_80611100" fill="none" stroke="#010101" stroke-width="64" d="M4919.387,3144.483
			c-0.396-146.761-7.005-300.777-3.659-448.732c4.392-194.333,1.436-400.229,0.947-559.789
			c-0.75-244.655-5.498-412.805,23.33-460.464c169.695-280.501,595.752-457.082,829.219-430.775
			c240.536,27.101,676.652,149.126,944.144,285.583c263.842,134.6,585.718,446.945,783.248,749.213
			c204.743,313.315,223.546,613.569,208.625,840.691c-15.671,238.355-50.778,303.347-118.935,539.714
			c-43.969,152.491-128.382,392.526-259.068,501.254c-29.416,24.468-74.658,13.31-76.085,23.608
			c-2.954,21.242,62.728,30.826,47.032,136.178c-20.191,135.596-75.408,275.734-259.223,438.803
			c-92.008,81.625-242.676,200.438-357.924,284.427c-65.643,47.849-62.352,83.434-120.023,129.129
			c-46.298,36.68-110.279,101.309-161.766,139.798c-233.648,174.656-480.232,340.514-718.959,322.539
			c-133.654-10.082-267.24-48.447-363.999-155.029c-67.166-73.977-115.138-183.139-158.03-295.111
			c-30.557-79.749-211.236-307.763-227.072-391.818c-2.17-11.508-4.087-23.051-5.742-34.637c-1.357-9.417-3.71-19.575-3.561-29.09
			c0.854-56.834-0.273-113.691-0.424-170.506c2.066-36.807,2.459-313.848-1.908-438.827
			C4914.229,3968.004,4920.8,3669.566,4919.387,3144.483z"/>
		<path id="_x31_80611101" fill="none" stroke="#010101" stroke-width="64" d="M7496.635,2284.139
			c-197.534-302.269-519.411-614.61-783.257-749.213c-267.502-136.454-703.621-258.478-944.162-285.579
			c-233.469-26.303-659.531,150.275-829.234,430.779c-28.822,47.662-24.073,215.81-23.318,460.466
			c0.487,159.558,3.442,365.457-0.949,559.788c-3.348,147.958,3.267,301.975,3.662,448.733
			c1.414,525.087-5.156,823.523,0.174,976.157c4.426,126.783,2.87,418.089,1.959,429.031c-2.3,27.494-0.168,55.056,0.555,82.548
			c0.688,26.748-1.051,53.478-0.333,80.222c0.417,15.523,1.493,31.049,3.688,46.436c1.656,11.652,3.589,23.25,5.762,34.822
			c15.838,84.055,196.521,312.066,227.076,391.819c17.227,44.956,23.485,62.675,43.261,104.63c1.206-0.75,57.651-38.5,101.82-57.283
			c16.044-6.82,71.265-24.461,88.376-25.238c117.908-5.361,150.477-4.05,230.912-6.066c86.659-2.172,166.58-31.307,245.518-61.674
			c77.795-29.92,177.229-72.01,261.518-44.422c68.287,22.353,132.383,68.816,189.467,109.85
			c8.981,6.466,99.301,86.445,100.359,87.528c-0.084,0.079,95.251-82.849,141.547-119.529
			c57.676-45.694,54.383-81.278,120.025-129.128c115.242-83.99,265.912-202.803,357.924-284.428
			c183.814-163.069,239.035-303.205,259.225-438.803c15.699-105.354-49.986-114.934-47.036-136.176
			c1.429-10.295,46.67,0.859,76.086-23.611c130.688-108.727,215.105-348.761,259.069-501.256
			c68.16-236.368,103.269-301.358,118.934-539.713C7720.182,2897.705,7701.382,2597.453,7496.635,2284.139z M5812.128,4240.764
			c-0.811,4.267-1.504,8.548-2.569,12.772c-1.907,7.576-3.327,15.355-10.17,20.6c-3.651,2.801-12.093,3.945-16.522,2.787
			c-8.811-2.305-13.598-11.686-17.541-18.684c-5.754-10.23-9.827-22.582-14.619-33.305c-11.6-25.979-20.826-53.787-41.453-74.818
			c-18.412-18.784-77.746-49.566-77.205-81.246c0.023-1.504,0.181-3.012,0.491-4.523c5.309-26.116,48.679-29.273,70.31-24.508
			c14.975,3.291,26.562,13.944,37.578,23.416c5.406,4.654,10.211,10.168,14.895,15.479c15.812,17.929,27.037,38.12,40.332,57.587
			C5815.269,4165.059,5818.323,4208.08,5812.128,4240.764z"/>
		<path id="_x31_80611138" fill="none" stroke="#010101" stroke-width="64" d="M7496.59,2279.522
			c204.78,313.293,223.572,613.585,208.633,840.668c-11.966,181.89-35.259,262.878-75.88,396.021l-151.211-72.964
			c1.958-12.155,3.914-23.755,5.73-34.663c34.309-204.928,75.298-391.577,60.888-599.255
			c-12.269-176.534-125.94-402.817-221.634-551.004c-80.598-124.894-173.295-254.71-286.92-354.903
			c-139.555-123-297.668-240.125-473.062-316.131c-53.125-22.985-108.097-45.752-164.461-67.19l39.217-105.654l0.219-0.485
			c100.33,36.084,195.295,75.534,275.225,116.326C6977.179,1664.934,7299.069,1977.219,7496.59,2279.522z"/>
		<path id="_x31_80611137" fill="none" stroke="#010101" stroke-width="64" d="M7544.75,2809.33
			c14.41,207.679-26.579,394.328-60.888,599.255c-1.812,10.908-3.772,22.508-5.73,34.663l-362.205-174.84
			c11.473-65.787,12.98-134.498,19.154-195.395c27.562-275.392-135.07-565.629-314.001-777.279
			c-98.631-116.663-245.788-215.606-379.178-293.748c-57.06-33.439-118.407-70.324-182.626-106.702l139.391-375.183
			c56.366,21.437,111.336,44.204,164.465,67.189c175.395,76.007,333.508,193.132,473.062,316.132
			c113.625,100.193,206.322,230.009,286.92,354.902C7418.81,2406.513,7532.481,2632.796,7544.75,2809.33z"/>
		<path id="_x31_80611136" fill="none" stroke="#010101" stroke-width="64" d="M6821.082,2295.734
			c178.931,211.65,341.563,501.888,314.001,777.279c-6.173,60.896-7.684,129.607-19.154,195.395l-373.862-180.457
			c0.954-1.811,1.757-3.69,2.567-5.568c83.352-193.643-73.254-380.728-201.34-515.252
			c-115.821-121.622-266.293-220.057-431.02-275.935l147.002-395.912c64.221,36.38,125.566,73.265,182.626,106.704
			C6575.294,2080.127,6722.449,2179.07,6821.082,2295.734z"/>
		<path id="_x31_80611135" fill="none" stroke="#010101" stroke-width="64" d="M6543.292,2567.132
			c128.09,134.522,284.693,321.607,201.338,515.251c-0.807,1.879-1.611,3.757-2.563,5.567l-781.67-377.22l-3.027-2.549
			l154.901-416.984C6277.003,2347.073,6427.473,2445.51,6543.292,2567.132z"/>
		<path id="_x31_80611142" fill="none" stroke="#010101" stroke-width="64" d="M6438.112,1413.959l-0.221,0.486l-39.219,105.654
			c-303.746-115.593-647.922-193.462-959.508-73.205c-136.062,52.546-227.584,140.415-288.766,247.249l-112.48-141.419l-1.108-0.965
			c201.607-207.08,535.521-329.212,732.366-307.052C5937.856,1263.711,6202.698,1329.375,6438.112,1413.959z"/>
		<path id="_x31_80611141" fill="none" stroke="#010101" stroke-width="64" d="M6398.671,1520.102l-139.395,375.181
			c-191.62-108.311-409.028-211.537-616.84-201.706c-187.547,8.872-273.053,88.027-328.082,206.55l-163.953-205.984
			c61.18-106.833,152.702-194.701,288.764-247.249C5750.751,1326.638,6094.925,1404.508,6398.671,1520.102z"/>
		<path id="_x31_80611140" fill="none" stroke="#010101" stroke-width="64" d="M6259.276,1895.284l-147.002,395.911
			c-97.67-33.119-200.389-51.215-303.791-50.292c-63.31,0.532-124.053,22.492-177.543,57.035l-316.588-397.812
			c55.029-118.522,140.531-197.679,328.082-206.551C5850.25,1683.749,6067.656,1786.973,6259.276,1895.284z"/>
		<path id="_x31_80611139" fill="none" stroke="#010101" stroke-width="64" d="M6112.274,2291.197l-154.903,416.985
			l-326.427-410.244c53.492-34.544,114.231-56.503,177.543-57.036C5911.886,2239.982,6014.601,2258.077,6112.274,2291.197z"/>
		<path id="_x31_80611146" fill="none" stroke="#010101" stroke-width="64" d="M5057.148,1961.755
			c-5.591,29.805-10.082,59.95-13.76,90.23l-127.233-91.364l-0.295,0.001c-0.181-148.919,2.864-249.908,24.141-285.154
			c26.563-43.884,59.396-85.31,96.81-123.71l1.104,0.965l112.482,141.419C5104.037,1774.861,5075.025,1866.502,5057.148,1961.755z"
			/>
		<path id="_x31_80611145" fill="none" stroke="#010101" stroke-width="64" d="M5150.401,1694.144l163.953,205.983
			c-22.205,47.674-39.453,101.701-56.396,160.099c-11.099,38.307-15.983,84.762-17.922,132.935l-151.454-108.772
			c-42.443-29.13-25.75-18.463-45.194-32.401c3.798-20.224,6.765-49.186,11.038-75.175c5.698-34.719,13.266-68.095,23.855-106.383
			C5097.097,1802.391,5127.03,1734.827,5150.401,1694.144z"/>
		<path id="_x31_80611144" fill="none" stroke="#010101" stroke-width="64" d="M5314.354,1900.127l316.588,397.812
			c-41.199,26.488-78.109,60.444-108.668,97.831l-282.237-202.611c1.937-48.173,6.823-94.628,17.922-132.934
			C5274.901,2001.828,5292.146,1947.8,5314.354,1900.127z"/>
		<path id="_x31_80611143" fill="none" stroke="#010101" stroke-width="64" d="M5630.942,2297.939l326.429,410.244l-11.447-8.257
			l-423.649-304.156C5552.833,2358.383,5589.743,2324.427,5630.942,2297.939z"/>
		<path id="_x31_80611151" fill="none" stroke="#010101" stroke-width="64" d="M4916.155,1960.62l127.233,91.363
			c-11.528,97.433-13.841,196.336-13.149,289.459c0.697,95.136,9.856,184.667-6.031,278.936
			c-9.213,54.739-13.34,108.268-14.379,161.153l-91.371,7.579l-3.684,0.023c-0.01-31.295,0.202-62.525,0.928-93.411
			c4.415-194.334,1.432-400.208,0.925-559.743c-0.172-63.913-0.624-122.618-0.767-175.357L4916.155,1960.62z"/>
		<path id="_x31_80611150" fill="none" stroke="#010101" stroke-width="64" d="M5088.583,2084.388
			c2.951,83.88-2.459,181.831-3.166,193.979c-6.139,99.897,0.465,199.229-8.184,299.074c-5.648,65.475-6.133,131.888-3.887,198.77
			l-63.518,5.323c1.036-52.885,5.166-106.413,14.379-161.154c15.888-94.269,6.729-183.798,6.031-278.936
			c-0.691-93.123,1.621-192.025,13.149-289.457L5088.583,2084.388z"/>
		<path id="_x31_80611149" fill="none" stroke="#010101" stroke-width="64" d="M5088.583,2084.388l151.454,108.771
			c-2.905,70.592,0.465,144.894-0.854,202.638c-2.173,95.779-16.514,190.453-24.366,284.601c-2.354,27.912-4.269,56.096-5.89,84.56
			l-135.584,11.253c-2.244-66.882-1.76-133.296,3.888-198.77c8.649-99.846,2.046-199.177,8.187-299.075
			C5086.124,2266.218,5091.536,2168.27,5088.583,2084.388z"/>
		<path id="_x31_80611148" fill="none" stroke="#010101" stroke-width="64" d="M5240.037,2193.158l282.237,202.611
			c-33.57,41.012-59.467,86.071-74.898,129.817c-25.234,71.634-38.816,146.803-45.463,223.318l-192.982,16.053
			c1.619-28.462,3.531-56.649,5.89-84.562c7.853-94.146,22.192-188.821,24.366-284.6
			C5240.502,2338.052,5237.138,2263.752,5240.037,2193.158z"/>
		<path id="_x31_80611147" fill="none" stroke="#010101" stroke-width="64" d="M5945.924,2699.925l-3.309,4.046l-540.702,44.935
			c6.646-76.514,20.229-151.684,45.463-223.318c15.432-43.746,41.328-88.804,74.898-129.818L5945.924,2699.925z"/>
		<path id="_x31_80611161" fill="none" stroke="#010101" stroke-width="64" d="M4919.835,3328.23l103.683-61.991
			c-3.215,65.945-9.468,97.556-1.144,206.18c7.105,93.152,68.547,165.218,73.665,259.701c-57.716-2.76-116.384-3.923-175.655-8.342
			c-0.072-110.478-0.206-241.424-0.619-395.547L4919.835,3328.23z"/>
		<path id="_x31_80611160" fill="none" stroke="#010101" stroke-width="64" d="M5523.294,3787.823l-23.574,58.576
			c-15.572-7.951-30.707-16.881-46.062-26.291c-69.543-42.801-142.123-64.069-217.037-75.47
			c-46.081-6.997-92.967-10.314-140.584-12.517c-5.118-94.485-66.559-166.549-73.664-259.701
			c-8.326-108.621-2.073-140.234,1.141-206.18l75.275-44.951c0.334,14.78,0.449,29.491,0.416,44.201
			c-0.211,85.845-5.332,154.852,48.429,221.902c60.345,75.264,116.495,70.89,189.913,103.186c10.479,4.657,21.33,10,32.619,16.453
			c71.458,40.913,82.975,130.569,143.023,177.244L5523.294,3787.823z"/>
		<path id="_x31_80611159" fill="none" stroke="#010101" stroke-width="64" d="M5373.579,3585.773
			c-7.232-3.077-14.317-6.363-21.255-9.927c-11.585-6.037-22.882-12.699-33.733-20.056
			c-112.68-76.467-115.342-189.425-116.402-310.859c-0.297-28.034-0.521-56.484-0.673-85.073l-102.724,61.43
			c0.336,14.779,0.447,29.491,0.412,44.202c-0.209,85.844-5.33,154.852,48.434,221.902c60.344,75.264,116.493,70.89,189.912,103.186
			c10.479,4.655,21.33,10,32.619,16.451c71.455,40.913,82.973,130.571,143.021,177.246l10.106,3.546l82.946-206.345
			C5533.233,3620.103,5448.103,3617.511,5373.579,3585.773z"/>
		<path id="_x31_80611158" fill="none" stroke="#010101" stroke-width="64" d="M5816.582,3058.253l-210.339,523.227
			c-73.01,38.623-158.143,36.033-232.666,4.294c-7.23-3.077-14.315-6.363-21.253-9.927c-11.585-6.037-22.882-12.699-33.733-20.056
			c-112.68-76.467-115.342-189.425-116.404-310.859c-0.295-28.034-0.521-56.484-0.673-85.073l198.677-118.721
			c1.579,38.781,3.448,77.144,4.808,114.886c1.349,36.007-0.106,69.952-1.199,103.059c-1.905,58.026-3.812,172.469,85.14,168.169
			c90.644-4.382,86.655-115.944,104.329-176.219c28.264-96.15,102.436-166.77,207.843-190.257
			C5806.269,3059.635,5811.425,3058.771,5816.582,3058.253z"/>
		<path id="_x31_80611157" fill="none" stroke="#010101" stroke-width="64" d="M5957.371,2708.183l-140.789,350.07
			c-5.157,0.518-10.313,1.382-15.47,2.525c-105.407,23.487-179.583,94.107-207.845,190.257
			c-17.674,60.276-13.686,171.837-104.329,176.219c-88.949,4.299-87.045-110.143-85.14-168.17
			c1.093-33.106,2.548-67.049,1.199-103.057c-1.355-37.742-3.227-76.106-4.808-114.887L5957.371,2708.183z"/>
		<path id="_x31_80611126" fill="none" stroke="#010101" stroke-width="64" d="M6810.687,3910.616l110.975,156.35l-0.658,1.322
			c-49.068-20.165-98.135-40.471-148.664-57.851c-92.878-32.038-185.539-65.05-276.292-102.164
			c-79.244-32.47-145.786-82.365-217.319-126.612c81.095-17.99,168.975-37.414,246.553-19.852
			c93.366,21.139,174.479,91.903,258.321,134.821C6792.312,3901.085,6801.315,3905.748,6810.687,3910.616z"/>
		<path id="_x31_80611125" fill="none" stroke="#010101" stroke-width="64" d="M6497.518,3469.273l313.169,441.341
			c-9.367-4.868-18.375-9.529-27.083-13.987c-83.843-42.918-164.957-113.681-258.321-134.821
			c-77.58-17.559-165.455,1.863-246.553,19.854c-3.914-2.404-7.826-4.811-11.812-7.213c-17.497-10.576-35.58-21.014-54.178-30.61
			l0.511-0.908l-104.394-422.311c88.453,30.469,170.359,66.947,217.795,84.763
			C6375.124,3423.609,6433.927,3447.254,6497.518,3469.273z"/>
		<path id="_x31_80611124" fill="none" stroke="#010101" stroke-width="64" d="M6310.638,3205.971l186.878,263.302
			c-63.589-22.02-122.394-45.664-170.866-63.892c-47.439-17.816-129.348-54.293-217.797-84.761l-41.65-168.371
			c3.102,1.646,6.126,3.155,9.151,4.595C6153.841,3194.317,6227.561,3200.937,6310.638,3205.971z"/>
		<path id="_x31_80611123" fill="none" stroke="#010101" stroke-width="64" d="M5957.371,2708.183l353.269,497.79
			c-83.079-5.036-156.799-11.654-234.286-49.129c-3.025-1.438-6.052-2.948-9.151-4.594L5957.371,2708.183z"/>
		<path id="_x31_80611156" fill="none" stroke="#010101" stroke-width="64" d="M5025.16,3192.811
			c0.081,29.84-0.597,53.3-1.643,73.43l-103.683,61.991h-0.072c-0.085-57.944-0.25-119.15-0.42-183.753
			c-0.314-116.096-4.546-236.748-4.568-355.342l3.681-0.024l91.372-7.578C5007.177,2918.605,5024.78,3051.802,5025.16,3192.811z"/>
		<path id="_x31_80611155" fill="none" stroke="#010101" stroke-width="64" d="M5098.79,3221.288l-75.274,44.952
			c1.048-20.131,1.726-43.59,1.643-73.431c-0.38-141.007-17.983-274.204-15.331-411.277l63.516-5.323
			C5078.239,2923.783,5095.962,3073.703,5098.79,3221.288z"/>
		<path id="_x31_80611154" fill="none" stroke="#010101" stroke-width="64" d="M5073.343,2776.21l135.584-11.252
			c-7.461,129.813-8.132,264.515-7.411,394.902l-102.726,61.429C5095.962,3073.703,5078.239,2923.783,5073.343,2776.21z"/>
		<path id="_x31_80611153" fill="none" stroke="#010101" stroke-width="64" d="M5208.927,2764.958l192.982-16.053
			c-8.438,96.79-5.739,195.728-1.719,292.232l-198.675,118.722C5200.795,3029.472,5201.466,2894.773,5208.927,2764.958z"/>
		<path id="_x31_80611152" fill="none" stroke="#010101" stroke-width="64" d="M5957.371,2708.183l-557.181,332.956
			c-4.019-96.504-6.715-195.444,1.719-292.233l540.706-44.934l3.309-4.046L5957.371,2708.183z"/>
		<path id="_x31_80611122" fill="none" stroke="#010101" stroke-width="64" d="M6108.853,3320.62l104.394,422.31l-0.513,0.908
			c-43.104-22.217-89.066-39.764-138.164-44.249c-29.271-2.67-73.49,0.498-116.145,13.715
			c-39.307,12.177-77.158,33.563-103.483,51.507l-19.164,20.275l-44.882,52.977l-0.432,4.515
			c-58.976-4.7-178.695,38.379-203.99,33.955c-32.002-5.491-59.965-16.352-86.754-30.133l23.574-58.576l82.949-206.344
			c13.098-6.881,25.754-15.08,37.887-24.662c88.479-70.016,42.582-171.81,110.342-244.471
			C5820.903,3241.082,5972.745,3273.792,6108.853,3320.62z"/>
		<path id="_x31_80611121" fill="none" stroke="#010101" stroke-width="64" d="M6067.202,3152.249l41.65,168.37
			c-136.107-46.828-287.949-79.538-354.381-8.273c-67.76,72.662-21.863,174.456-110.339,244.472
			c-12.138,9.58-24.79,17.781-37.89,24.66l210.339-523.226C5901.021,3049.47,5995.834,3115.983,6067.202,3152.249z"/>
		<path id="_x31_80611120" fill="none" stroke="#010101" stroke-width="64" d="M5957.371,2708.183l109.829,444.066
			c-71.37-36.266-166.18-102.779-250.62-93.996L5957.371,2708.183z"/>
		<path id="_x31_80611134" fill="none" stroke="#010101" stroke-width="64" d="M7478.132,3443.25l151.211,72.964
			c-12.643,41.371-26.883,87.674-43.021,143.708c-25.048,86.969-63.279,202.335-115.701,305.641l-105.924-88.025
			C7425.089,3753.356,7457.243,3568.288,7478.132,3443.25z"/>
		<path id="_x31_80611133" fill="none" stroke="#010101" stroke-width="64" d="M7115.929,3268.409l362.203,174.839
			c-20.889,125.042-53.039,310.11-113.436,434.289l-434.934-361.411c29.674-10.106,57.346-24.782,82.204-45.133
			C7075.577,3418.971,7102.501,3345.729,7115.929,3268.409z"/>
		<path id="_x31_80611132" fill="none" stroke="#010101" stroke-width="64" d="M6742.066,3087.951l373.86,180.458
			c-13.426,77.32-40.354,150.563-103.963,202.586c-24.857,20.351-52.527,35.024-82.205,45.133l-374.211-310.918
			C6636.072,3193.05,6707.698,3161.516,6742.066,3087.951z"/>
		<path id="_x31_80611131" fill="none" stroke="#010101" stroke-width="64" d="M5960.396,2710.73l781.673,377.221
			c-34.371,73.564-105.995,105.098-186.52,117.258L5960.396,2710.73z"/>
		<path id="_x31_80611130" fill="none" stroke="#010101" stroke-width="64" d="M7364.696,3877.537l105.922,88.025
			c-39.513,77.83-87.155,148.841-143.339,195.615c-29.414,24.468-74.698,13.302-76.145,23.579
			c-0.649,4.654,2.013,8.732,6.446,13.426c-21.936-17.422-50.412-27.515-77.047-36.648c-36.811-12.608-74.352-23.271-111.162-35.807
			c-50.461-17.175-99.377-37.203-148.371-57.439l0.66-1.322l-110.975-156.35c143.551,74.54,359.654,187.207,491.457,59.117
			C7325.892,3946.686,7346.59,3914.845,7364.696,3877.537z"/>
		<path id="_x31_80611129" fill="none" stroke="#010101" stroke-width="64" d="M6929.761,3516.128l434.936,361.409
			c-18.107,37.308-38.807,69.148-62.553,92.196c-131.803,128.09-347.906,15.423-491.457-59.118l-313.171-441.342
			C6638.495,3518.221,6802.815,3559.388,6929.761,3516.128z"/>
		<path id="_x31_80611128" fill="none" stroke="#010101" stroke-width="64" d="M6555.55,3205.21l374.211,310.918
			c-126.945,43.262-291.266,2.093-432.243-46.854l-186.878-263.302c10.246,0.629,20.712,1.19,31.328,1.817
			C6407.202,3211.615,6484.825,3215.921,6555.55,3205.21z"/>
		<path id="_x31_80611127" fill="none" stroke="#010101" stroke-width="64" d="M5960.396,2710.73l595.153,494.479
			c-70.725,10.712-148.346,6.405-213.582,2.58c-10.616-0.628-21.082-1.188-31.328-1.818l-353.269-497.79L5960.396,2710.73z"/>
		<path id="_x31_80611102" fill="none" stroke="#010101" stroke-width="64" d="M7251.226,4192.472
			c-30.39-14.357-59.037-26.943-70.688-30.938c-36.812-12.608-74.355-23.271-111.164-35.807
			c-50.459-17.175-99.379-37.203-148.368-57.439c-49.069-20.165-98.136-40.471-148.667-57.851
			c-92.874-32.038-185.539-65.05-276.292-102.164c-79.244-32.47-145.782-82.365-217.317-126.612
			c-3.914-2.401-7.828-4.809-11.812-7.213c-17.497-10.576-35.582-21.012-54.178-30.61c-43.104-22.217-89.068-39.764-138.166-44.249
			c-29.271-2.67-73.49,0.498-116.146,13.715c-39.304,12.177-77.159,33.563-103.483,51.507l-19.165,20.277l-44.884,52.977
			l-0.43,4.515c-58.976-4.7-178.697,38.377-203.99,33.953c-32.002-5.491-59.965-16.352-86.756-30.131
			c-15.57-7.951-30.705-16.881-46.062-26.291c-69.543-42.801-142.123-64.069-217.033-75.47
			c-46.082-6.997-92.969-10.316-140.587-12.519c-57.714-2.76-116.384-3.923-175.653-8.342c0.066,79.612,0.029,148.619-0.104,208.063
			l2.58,0.103l-2.582,0.017c0-0.039,0-0.081,0-0.121l-2.842-0.114c-0.052,78.94,0.447,141.086,2.117,188.911
			c4.365,124.979,3.975,402.021,1.908,438.827c0.065,24.717,0.312,49.439,0.505,74.17c0.032,1.072,0.062,2.145,0.091,3.216
			c0.217,8.354,0.193,16.707,0.086,25.061c0.09,20.595,0.064,41.19-0.193,61.781c0.311,7.765,0.799,15.524,1.525,23.263
			c0.661,4.094,1.398,8.166,1.969,12.102c1.653,11.588,3.573,23.131,5.744,34.637c15.836,84.057,196.516,312.071,227.07,391.82
			c14.113,36.84,28.776,73.375,44.492,108.455c28.249,63.061,59.899,121.402,97.873,168.345c-0.049-0.06-0.097-0.118-0.144-0.178
			c-0.43-0.528-0.858-1.062-1.284-1.597c-28.658-35.921-51.359-75.886-72.462-116.076c-4.585-9.072-9.038-18.266-13.419-27.564
			c1.209-0.744,85.957-53.273,127.294-66.884c14.778-4.861,29.608-8.802,44.499-11.995c1.854-0.398,3.711-0.788,5.566-1.164
			c78.205-15.803,157.887-11.686,238.331-13.693c86.649-2.175,165.389-36.06,244.327-66.426
			c77.793-29.92,162.494-67.586,246.779-39.998c51.805,16.952,99.45,44.682,144.355,74.992c14.289,9.65,28.309,19.554,42.09,29.461
			c8.983,6.467,91.617,90.83,92.677,91.912c-0.077,0.072-0.156,0.125-0.23,0.195c0.081-0.061,0.159-0.121,0.243-0.184
			c6.518-4.873,13.238-10.168,20.098-15.771c1.928-1.572,3.871-3.175,5.816-4.797c6.337-5.49,17.512-15.157,31.133-26.857
			c36.85-32.679,74.545-68.461,104.72-92.372c57.673-45.693,54.382-81.28,120.024-129.127
			c115.25-83.99,265.916-202.802,357.922-284.427c183.816-163.068,239.033-303.207,259.225-438.803
			c1.611-10.798,2.352-20.578,2.411-29.482C7299.155,4221.883,7254.079,4209.372,7251.226,4192.472z M6287.488,4331.689
			c1.804,100.093-52.533,194.821-131.667,258.403c-57.294,46.037-129.596,87.514-208.825,74.853
			c-52.936-8.465-101.378-45.062-130.921-85.713c-19.952-27.45-20.688-54.874-24.903-85.733
			c-7.062-10.531-12.257-23.268-14.569-35.201c-5.133-26.408-0.217-55.512,7.264-81.14c7.449-25.487,20.229-48.183,18.91-75.383
			c-0.134-2.759-0.362-25.638-5.936-26.228c-4.172,1.737-10.385,2.311-13.969,1.373c-8.812-2.305-13.602-11.688-17.543-18.684
			c-5.756-10.232-9.829-22.582-14.623-33.307c-11.595-25.979-20.822-53.785-41.451-74.816
			c-18.41-18.786-77.744-49.568-77.205-81.248c0.021-1.502,0.181-3.01,0.494-4.521c5.308-26.118,48.68-29.273,70.307-24.508
			c2.566,0.564,5.026,1.359,7.408,2.312c-6.61-4.116-13.283-8.327-19.839-13.172c-10.251-7.562-5.292-13.153,2.692-16.657
			c1.722-0.757,3.439-1.382,5.15-1.904c-6.654,1.774-13.263,4.338-13.105,7.103c-2.416-42.61,77.928-76.703,112.047-87.176
			c50.684-15.558,108.789-11.411,160.02-1.196c104.283,20.807,200.104,63.103,262.85,152.188
			C6274.319,4158.374,6285.882,4242.833,6287.488,4331.689z"/>
		<path id="_x31_80611104" fill="none" stroke="#010101" stroke-width="64" d="M5491.47,4168.552
			c64.109-47.945,138.686-80.097,208.145-27.316c18.554,14.101,31.124,34.334,39.318,55.168c0.013,0.027,0.021,0.054,0.038,0.094
			c8.121,20.646,13.262,46.195,27.573,64.053c20.07,25.035,39.416,24.701,34.92,58.562c-4.197,31.62-21.576,60.425-25.578,92.29
			c-35.434,281.934,132.447,182.217,229.543,397.588c45.456,100.84,111.307,280.354,52.346,278.99
			c-87.414-2.017-285.519,101.424-362.697,108.087c-51.461,4.438-86.033,13.285-119.769-2.728
			c-33.57-15.918-55.192-57.029-75.825-101.885c-18.572-40.357-37.101-83.531-50.066-117.66
			c-37.008-97.422-48.336-161.038-70.902-275.253C5345.248,4530.139,5316.507,4299.431,5491.47,4168.552z"/>
		<path id="_x31_80611106" fill="none" stroke="#010101" stroke-width="64" d="M5687.086,4623.393
			c27.283-14.833,79.288-27.29,98.198-55.71c-13.937-34.051-18.75-81.871-9.398-156.281c3.307-26.385,14.227-50.907,22.117-76.219
			c13.948-44.642-10.605-46.342-32.772-77.934c-12.188-17.371-18.639-41.386-26.28-60.806c-0.007-0.015-0.009-0.028-0.018-0.04
			c-8.198-20.836-20.767-41.069-39.318-55.17c-69.459-52.778-144.039-20.627-208.145,27.316
			c-174.963,130.881-146.222,361.589-112.953,529.989c7.918,40.085,14.455,73.935,21.201,105.204
			c49.62-34.143,96.184-72.834,146.946-105.536C5591.776,4669.155,5639.841,4649.088,5687.086,4623.393z"/>
		<path id="_x31_80611105" fill="none" stroke="#010101" stroke-width="64" d="M6005.429,4808.987
			c-71.467-158.525-181.281-146.35-220.146-241.305c-18.91,28.42-70.917,40.877-98.196,55.71
			c-47.245,25.695-95.312,45.763-140.422,74.814c-50.769,32.702-97.328,71.392-146.948,105.534
			c12.479,57.826,25.682,106.817,49.701,170.051c12.964,34.131,31.494,77.305,50.066,117.662
			c20.633,44.854,42.255,85.962,75.825,101.883c33.735,16.012,68.308,7.168,119.769,2.726
			c77.179-6.661,275.283-110.104,362.697-108.085C6116.735,5089.342,6050.883,4909.827,6005.429,4808.987z"/>
		<path id="_x31_80611116" fill="none" stroke="#010101" stroke-width="64" d="M5050.493,4545.593
			c-23.682-102.447,13.59-193.488,18.038-295.497c4.038-92.656,3.75-187.153-1.814-279.913c-2.776-0.414-5.546-0.823-8.321-1.208
			c-9.859-1.38-141.968-16.399-141.453-11.352l0.504-0.008c0.066,66.79,0.626,120.552,2.111,163.023
			c4.366,124.979,3.973,402.019,1.904,438.825c0.146,53.709,1.158,107.453,0.547,161.184l0.311,1.482
			c46.872,11.077,94.801,17.664,142.182,26.397c0.271-18.432,1.724-37.01,2.661-55.694
			C5069.712,4641.909,5061.937,4595.103,5050.493,4545.593z"/>
		<path id="_x31_80611115" fill="none" stroke="#010101" stroke-width="64" d="M5247.839,4107.358
			c-1.921-34.105-5.859-67.754-12.523-101.166c-5.761-1.439-11.531-2.859-17.307-4.258
			c-50.004-12.134-100.229-24.133-151.292-31.752c5.564,92.762,5.853,187.257,1.814,279.916
			c-4.448,102.006-41.72,193.05-18.038,295.494c11.443,49.508,19.219,96.312,16.667,147.244
			c-0.938,18.686-2.389,37.261-2.659,55.694c12.876,2.375,25.715,4.897,38.479,7.721c38.878,8.61,81.336,11.63,120.654,0.815
			c-4.043-72.169,10.184-149.746,13.936-211.873C5246.359,4399.751,5256.026,4252.943,5247.839,4107.358z"/>
		<path id="_x31_80611114" fill="none" stroke="#010101" stroke-width="64" d="M5328.902,4601.986
			c-1.966-130.027-22.425-251.792,56.722-365.11c21.078-30.173,48.404-58.295,77.635-81.688
			c9.078-7.275,56.562-33.363,38.525-47.467c-23.271-18.182-58.311-30.936-85.548-42.854
			c-58.009-25.395-119.159-43.262-180.919-58.676c6.662,33.41,10.603,67.059,12.521,101.166
			c8.191,145.584-1.479,292.391-10.27,437.834c-3.754,62.127-17.979,139.701-13.936,211.873
			c10.319-2.844,20.427-6.621,30.189-11.515C5306.31,4719.226,5329.704,4655.202,5328.902,4601.986z"/>
		<path id="_x31_80611119" fill="none" stroke="#010101" stroke-width="64" d="M5248.396,5053.501
			c-67.727-53.117-139.371-144.533-170.958-222.242c-7.216-17.754-10.7-35.722-12.133-53.855
			c-48.644-7.612-97.204-20.012-141.393-29.521l-0.275,0.042c0.622,3.77,1.288,7.511,1.813,11.137
			c1.655,11.586,3.574,23.129,5.744,34.635c11.748,62.375,114.272,204.021,178.864,305.531c2.079,3.192,4.11,6.406,6.096,9.64
			c8.308,13.234,15.857,25.681,22.348,37.048c0.915,1.443,1.821,2.889,2.759,4.322c6.598,10.123,11.48,21.115,15.84,32.352
			c0.406,0.993,0.8,1.976,1.168,2.93c6.043,15.773,12.193,31.484,18.479,47.06c8.509,19.687,21.842,51.664,24.207,57.342
			c0.069,0.155,0.135,0.315,0.203,0.472c0.362-0.245,94.005-63.279,155.654-76.396c56.438-12.012,112.459-10.352,168.155-10.695
			c-13.427-5.686-24.236-18.645-33.3-34.623c-0.794-0.188-1.586-0.37-2.379-0.561
			C5402.798,5147.253,5317.196,5107.472,5248.396,5053.501z"/>
		<path id="_x31_80611118" fill="none" stroke="#010101" stroke-width="64" d="M5065.305,4777.403
			c1.438,18.134,4.919,36.102,12.133,53.855c31.591,77.711,103.231,169.125,170.958,222.242
			c68.801,53.969,154.402,93.748,240.891,114.609c0.789,0.188,1.583,0.373,2.377,0.559c-17.396-30.663-28.354-72.455-39.005-95.311
			c-14.433-30.941-28.51-62.688-40.749-95.061c-27.361-5.348-100.617-45.738-114.631-56.74
			c-47.644-37.394-66.703-90.396-72.378-147.978C5175.771,4788.498,5120.489,4786.038,5065.305,4777.403z"/>
		<path id="_x31_80611117" fill="none" stroke="#010101" stroke-width="64" d="M5297.276,4921.562
			c14.016,10.998,87.271,51.391,114.629,56.738c-14.93-39.489-27.131-79.916-33.879-120.98
			c-7.744-47.119-18.406-172.417-90.424-115.979c-19.227,15.066-40.327,25.449-62.706,32.243
			C5230.571,4831.163,5249.635,4884.166,5297.276,4921.562z"/>
		<path id="_x31_80611164" fill="none" stroke="#010101" stroke-width="64" d="M5096.039,3732.122
			c0.386,6.38,0.477,12.903,0.276,19.498c-1.965,65.384-21.027,129.761-35.961,194.32c-54.848-5.418-137.417-13.438-137.49-13.994
			l-2.582,0.017c0.138-59.473,0.17-128.518,0.102-208.185C4979.653,3728.197,5038.323,3729.357,5096.039,3732.122z"/>
		<path id="_x31_80611163" fill="none" stroke="#010101" stroke-width="64" d="M5235.462,3751.309
			c26.267,64.858,16.017,145.352-3.115,211.671l-15.746,9.469c-36.285-8.936-72.933-16.271-109.727-21.59
			c-4.496-0.667-22.928-2.496-46.52-4.918c14.936-64.56,33.996-128.938,35.961-194.32c0.202-6.597,0.113-13.118-0.276-19.5
			c47.621,2.202,94.503,5.52,140.587,12.517L5235.462,3751.309z"/>
		<path id="_x31_80611162" fill="none" stroke="#010101" stroke-width="64" d="M5499.72,3846.396
			c26.789,13.782,54.752,24.643,86.754,30.134c25.295,4.424,145.015-38.655,203.99-33.955c27.497,2.188,41.755,14.661,27.398,47.018
			c-16.266,36.534-82.633,50.201-111.971,75.645c-5.59,4.822-10.884,9.576-15.956,14.254c-35.73,32.77-62.849,61.527-117.042,81.99
			c-35.856,13.549-76.123,3.875-110.576-8.816c-36.002-13.24-72.15-26.129-108.447-38.878
			c-44.777-15.754-90.731-29.832-137.27-41.341l15.746-9.467c19.132-66.321,29.382-146.814,3.115-211.673l1.158-6.67
			c74.914,11.402,147.494,32.669,217.037,75.47C5469.013,3829.521,5484.147,3838.446,5499.72,3846.396z"/>
		<path id="_x31_80611112" fill="none" stroke="#010101" stroke-width="64" d="M7262.526,4202.348
			c-22.53-20.048-53.303-30.983-81.977-40.822c-36.785-12.61-74.33-23.244-111.16-35.78
			c-101.006-34.389-196.213-80.529-297.062-115.312c-92.901-32.042-185.504-65.018-276.252-102.158
			c-83.683-34.25-153.098-87.893-229.196-133.872c-27.324-16.512-54.523-31.734-82.32-44.148c-1.963-0.878-3.927-1.736-5.895-2.582
			c10.947,90.275,74.774,137.78,145.962,195.062c78.377,63.076,163.473,104.751,257.495,143.612
			c91.635,37.869,188.211,63.1,279.684,100.733c86.209,35.474,183.063,89.684,193.631,187.601
			c9.121,84.475-65.312,116.324-139.172,134.336c-38.886,9.484-78.573,17.708-116.39,30.726
			c-102.456,35.269-207.735,44.739-262.556,145.511c-16.544,30.415-24.883,64.934-46.297,92.661
			c-18.652,24.151-43.674,45.228-66.492,65.774c-68.944,62.086-130.959,128.355-215.021,172.944
			c-12.755,6.765-75.013,34.257-105.966,32.878c0.434,3.455,0.822,6.889,1.143,10.283c0.902,9.708,1.332,19.15,1.214,28.225
			c-0.218,16.504,4.537,18.027,19.181,25.396c47.244,23.784,77.983,41.451,118.958,64.364
			c62.665,35.045,126.183,98.346,175.448,139.694c4.715-5.2,49.557-38.419,43.95-42c-24.073-15.399-43.503-33.368-44.844-71.392
			c-0.989-28.137,22.251-75.709,38.295-99.443c50.024-74.002,135.513-119.725,209.419-169.501
			c114.421-77.06,213.57-179.862,345.946-230.476c21.276-8.139,44.417-21.412,67.642-23.306c3.496-0.283,6.652-0.331,9.482-0.167
			l41.565,7.444c111.673-125.349,150.919-237.989,167.249-347.661C7304.747,4277.036,7297.872,4233.811,7262.526,4202.348z"/>
		<path id="_x31_80611113" fill="none" stroke="#010101" stroke-width="64" d="M6209.51,4996.633
			c84.062-44.589,146.074-110.86,215.021-172.944c22.818-20.549,47.838-41.623,66.492-65.774
			c21.414-27.728,29.749-62.246,46.297-92.661c54.822-100.773,160.1-110.242,262.554-145.509
			c37.816-13.02,77.504-21.243,116.392-30.728c73.859-18.012,148.289-49.863,139.172-134.336
			c-10.567-97.917-107.422-152.127-193.633-187.603c-91.471-37.635-188.047-62.862-279.682-100.731
			c-94.025-38.863-179.123-80.536-257.499-143.612c-71.184-57.281-135.013-104.786-145.958-195.062
			c-35.48-15.286-73.39-27.187-112.374-28.563c-21.204-0.749-42.005-0.666-65.019,2.999c-22.247,3.54-41.943,10.102-61.068,18.569
			c-10.467,79.857,107.399,143.123,166.7,177.69c74.036,43.156,154.761,76.279,227.448,121.373
			c117.273,72.766,339.438,146.393,365.628,254.768c31.261,129.32-168.187,107.918-242.979,129.575
			c-66.537,19.271-82.229,77.822-105.58,134.737c-30.475,74.213-59.544,159.525-107.335,225.844
			c-39.905,55.357-147.323,81.277-170.53,147.684c14.1,38.83,25.312,79.672,29.988,117.166
			C6134.497,5030.89,6196.755,5003.397,6209.51,4996.633z"/>
		<path id="_x31_80611111" fill="none" stroke="#010101" stroke-width="64" d="M6244.088,4764.66
			c47.792-66.315,76.86-151.628,107.335-225.841c23.351-56.919,39.045-115.465,105.58-134.739
			c74.791-21.657,274.24-0.253,242.978-129.577c-26.187-108.371-248.351-182-365.626-254.764
			c-72.686-45.096-153.414-78.217-227.447-121.375c-59.304-34.565-177.168-97.833-166.697-177.689
			c-26.283,11.636-51.479,26.89-80.694,42.948c-38.546,21.181-34.591,79.814-13.687,107.034
			c9.172,11.934,23.738,21.27,44.924,26.558c47.973,11.974,106.592,8.292,151.83,26.345
			c89.229,35.606,172.256,98.952,213.953,182.712c40.598,81.538,60.3,172.917,45.87,262.753
			c-12.462,77.588-36.304,142.329-97.979,198.053c-33.073,29.879-66.782,58.461-105.486,81.795
			c-54.003,32.563-106.4,43.817-168.151,30.486c47.389,13.201,80.623,99.915,98.928,134.16
			c15.118,28.284,30.719,62.68,43.842,98.824C6096.761,4845.938,6204.181,4820.021,6244.088,4764.66z"/>
		<path id="_x31_80611103" fill="none" stroke="#010101" stroke-width="64" d="M5934.954,4144.798
			c-51.594-52.322-141.914-139.228-223.889-136.834c-3.809,0.113-26.197,4.499-25.906,9.559
			c-2.418-42.608,77.928-76.701,112.047-87.174c50.682-15.558,108.789-11.413,160.02-1.196
			c104.283,20.807,200.104,63.101,262.85,152.187c54.244,77.035,65.809,161.492,67.413,250.351
			c1.804,100.093-52.533,194.821-131.667,258.403c-57.294,46.037-129.596,87.514-208.825,74.853
			c-52.936-8.465-101.378-45.062-130.921-85.713c-20.168-27.743-20.696-55.456-25.035-86.718c3.49,6.066,8.605,11.995,13.51,16.824
			c17.42,17.18,45.157,27.527,70.498,22.9c56.356-10.275,104.147-51.823,128.971-98.832c15.883-30.075,22.504-62.844,20.71-96.174
			C6021.491,4276.954,5978.858,4189.324,5934.954,4144.798z"/>
		<path id="_x31_80611110" fill="none" stroke="#010101" stroke-width="64" d="M6097.129,5279.731
			c-5.899-15.287-22.018-27.159-43.073-27.414c-28.798-0.336-98.808,22.423-98.262,58.676
			c0.979,65.008,114.273,38.836,137.756,1.803C6100.45,5301.899,6101.106,5290.046,6097.129,5279.731z"/>
		<path id="_x31_80611109" fill="none" stroke="#010101" stroke-width="64" d="M6306.56,5221.192
			c-13.777-9.907-27.797-19.811-42.088-29.463c-9.91,8.273-22.869,15.146-35.341,20.949c0.006,0.004,0.012,0.01,0.021,0.014
			c1.12,0.773,2.229,1.553,3.325,2.359c1.203,0.876,2.393,1.77,3.562,2.693c119.552,94.359-119.057,165.133-187.549,173.125
			c-76.008,8.857-141.83,62.191-214.27,82.856c-57.549,16.411-138.466,9.649-166.287-48.542c-0.475-0.992-0.92-1.975-1.346-2.949
			c-0.059-0.127-0.115-0.254-0.168-0.378c-0.391-0.909-0.758-1.81-1.105-2.698c-0.074-0.189-0.15-0.382-0.223-0.566
			c-0.325-0.852-0.632-1.69-0.92-2.524c-0.078-0.224-0.153-0.448-0.23-0.669c-0.266-0.805-0.521-1.606-0.758-2.398
			c-0.073-0.242-0.14-0.482-0.207-0.727c-0.199-0.688-0.382-1.373-0.552-2.051c-0.085-0.33-0.163-0.652-0.24-0.979
			c-0.134-0.577-0.263-1.152-0.378-1.721c-0.075-0.381-0.154-0.76-0.225-1.135c-0.105-0.568-0.199-1.139-0.291-1.699
			c-0.056-0.357-0.11-0.711-0.16-1.062c-0.084-0.6-0.153-1.194-0.215-1.785c-0.039-0.379-0.074-0.758-0.109-1.133
			c-0.047-0.559-0.083-1.113-0.11-1.664c0-0.014-0.002-0.028-0.006-0.041c-38.831-6.654-73.747-29.347-108.772-44.822
			c-54.986-24.281-139.102-58.812-166.809-116.154c-14.893,3.195-29.723,7.134-44.501,11.995
			c-41.335,13.61-126.083,66.14-127.294,66.884c4.383,9.299,8.836,18.492,13.419,27.562c21.106,40.19,43.81,80.155,72.462,116.078
			c0.426,0.535,0.854,1.066,1.286,1.597c0.047,0.06,0.095,0.116,0.142,0.179c0.688,0.85,1.373,1.69,2.064,2.529
			c0.719,0.871,1.438,1.742,2.156,2.607c0.575,0.691,1.158,1.381,1.739,2.07c0.663,0.784,1.326,1.572,1.995,2.354
			c0.74,0.86,1.485,1.717,2.229,2.571c0.525,0.603,1.045,1.21,1.572,1.807c1.297,1.47,2.598,2.928,3.908,4.372
			c1.16,1.281,2.334,2.541,3.504,3.801c0.436,0.465,0.863,0.934,1.299,1.396c0.356,0.378,0.719,0.748,1.076,1.128
			c0.568,0.601,1.138,1.198,1.707,1.796c1.158,1.206,2.319,2.409,3.49,3.6c0.445,0.454,0.889,0.909,1.334,1.359
			c29.838,30.049,64.162,55.221,101.517,75.66c0.004,0.002,0.01,0.004,0.018,0.008c16.752,9.025,33.987,16.958,51.597,23.914
			c0.016,0.006,0.029,0.012,0.043,0.016c7.514,2.97,15.099,5.758,22.74,8.379c0.071,0.023,0.143,0.048,0.211,0.072
			c7.611,2.607,15.281,5.048,23.004,7.328c0.092,0.025,0.184,0.052,0.273,0.078c2.455,0.725,4.912,1.43,7.374,2.121
			c0.15,0.046,0.3,0.084,0.448,0.129c5.143,1.436,10.304,2.81,15.488,4.113c0.066,0.014,0.131,0.031,0.195,0.047
			c2.426,0.609,4.854,1.203,7.283,1.781c0.314,0.076,0.629,0.152,0.949,0.227c2.468,0.586,4.938,1.159,7.416,1.716
			c0.025,0.007,0.053,0.015,0.078,0.017c5.104,1.146,10.223,2.23,15.354,3.258c0.438,0.09,0.881,0.178,1.316,0.266
			c2.172,0.43,4.342,0.848,6.52,1.26c0.373,0.07,0.747,0.143,1.12,0.211c5.042,0.942,10.092,1.829,15.153,2.664
			c0.514,0.086,1.031,0.168,1.551,0.253c2.005,0.328,4.014,0.646,6.027,0.956c0.587,0.094,1.178,0.182,1.769,0.274
			c2.304,0.353,4.608,0.692,6.915,1.021c0.175,0.024,0.349,0.053,0.52,0.076c2.518,0.357,5.039,0.701,7.562,1.037
			c0.533,0.071,1.062,0.137,1.593,0.207c1.95,0.252,3.905,0.5,5.858,0.741c0.722,0.085,1.441,0.175,2.162,0.263
			c1.92,0.232,3.846,0.455,5.773,0.674c0.574,0.065,1.147,0.133,1.725,0.195c2.467,0.275,4.932,0.541,7.402,0.795
			c0.441,0.045,0.886,0.086,1.325,0.131c2.024,0.205,4.042,0.402,6.066,0.591c0.78,0.077,1.563,0.147,2.344,0.219
			c1.774,0.161,3.55,0.319,5.325,0.47c0.741,0.064,1.479,0.13,2.222,0.189c2.454,0.207,4.905,0.402,7.355,0.588
			c2.189,0.166,4.378,0.31,6.568,0.445c0.185,0.01,0.37,0.02,0.55,0.029c2.115,0.125,4.227,0.238,6.338,0.336
			c0.006,0,0.006,0,0.006,0c48.879,1.026,97.706-3.566,144.441-13.647c0.002-0.002,0.004-0.002,0.004-0.002
			c0.092-0.021,0.178-0.042,0.264-0.06c1.989-0.447,3.977-0.906,5.969-1.372c0.543-0.13,1.089-0.261,1.632-0.392
			c1.551-0.371,3.108-0.744,4.661-1.123c0.639-0.156,1.279-0.318,1.918-0.474c1.488-0.37,2.977-0.745,4.465-1.126
			c0.635-0.162,1.273-0.326,1.912-0.492c1.574-0.408,3.152-0.822,4.724-1.241c0.521-0.138,1.044-0.274,1.56-0.413
			c4.242-1.139,8.482-2.318,12.725-3.543c0.363-0.105,0.723-0.211,1.083-0.316c1.729-0.504,3.46-1.008,5.191-1.528
			c0.591-0.177,1.181-0.354,1.769-0.53c1.523-0.459,3.043-0.92,4.566-1.39c0.637-0.196,1.277-0.394,1.916-0.593
			c1.522-0.475,3.047-0.954,4.572-1.438c0.584-0.187,1.167-0.371,1.75-0.56c1.73-0.553,3.459-1.113,5.186-1.681
			c0.365-0.119,0.729-0.234,1.094-0.354c4.258-1.406,8.518-2.847,12.778-4.333c0.466-0.161,0.932-0.326,1.397-0.489
			c1.636-0.574,3.271-1.15,4.904-1.734c0.6-0.215,1.205-0.429,1.804-0.646c1.53-0.55,3.059-1.106,4.589-1.667
			c0.607-0.223,1.216-0.445,1.824-0.67c1.604-0.588,3.204-1.185,4.808-1.785c0.501-0.189,1.003-0.375,1.503-0.564
			c2.051-0.777,4.102-1.557,6.151-2.348c0.037-0.015,0.07-0.024,0.106-0.039c2.191-0.846,4.382-1.701,6.572-2.568
			c0.188-0.071,0.373-0.148,0.555-0.219c1.912-0.756,3.822-1.52,5.73-2.289c0.512-0.208,1.03-0.417,1.54-0.623
			c1.602-0.652,3.202-1.305,4.802-1.965c0.584-0.238,1.172-0.481,1.757-0.725c1.573-0.652,3.149-1.308,4.728-1.974
			c0.549-0.231,1.094-0.458,1.643-0.692c1.752-0.735,3.502-1.482,5.257-2.235c0.343-0.146,0.688-0.292,1.032-0.443
			c4.299-1.852,8.598-3.735,12.898-5.657c0.329-0.146,0.658-0.295,0.991-0.444c1.772-0.794,3.543-1.591,5.313-2.397
			c0.524-0.236,1.049-0.479,1.572-0.719c1.609-0.736,3.225-1.477,4.836-2.221c0.541-0.252,1.086-0.502,1.625-0.753
			c1.671-0.773,3.34-1.556,5.006-2.341c0.445-0.209,0.887-0.417,1.333-0.626c2.04-0.962,4.081-1.931,6.12-2.907
			c0.055-0.025,0.108-0.051,0.161-0.077c4.327-2.075,8.652-4.179,12.978-6.319c0.389-0.192,0.781-0.389,1.175-0.584
			c1.722-0.854,3.448-1.714,5.173-2.579c0.499-0.249,0.996-0.499,1.494-0.751c1.672-0.838,3.338-1.687,5.011-2.535
			c0.467-0.234,0.93-0.471,1.391-0.708c1.835-0.933,3.667-1.875,5.497-2.821c0.273-0.14,0.549-0.281,0.818-0.424
			c4.355-2.249,8.711-4.533,13.062-6.848c0.104-0.056,0.21-0.111,0.313-0.167c1.999-1.062,4.001-2.134,6-3.21
			c0.388-0.206,0.773-0.417,1.161-0.625c1.754-0.947,3.507-1.897,5.26-2.852c0.432-0.236,0.863-0.472,1.295-0.706
			c1.779-0.976,3.562-1.95,5.347-2.933c0.341-0.189,0.683-0.375,1.024-0.566c6.493-3.586,12.979-7.234,19.469-10.944
			c0.191-0.107,0.381-0.214,0.573-0.326c1.933-1.105,3.864-2.215,5.8-3.333c0.342-0.201,0.689-0.4,1.037-0.6
			c1.824-1.054,3.648-2.115,5.477-3.18c0.334-0.196,0.669-0.389,1.006-0.586c1.955-1.145,3.903-2.291,5.855-3.443
			c0.165-0.098,0.33-0.195,0.496-0.289c6.533-3.861,13.072-7.78,19.605-11.752c0.189-0.115,0.378-0.229,0.564-0.346
			c1.959-1.189,3.914-2.383,5.866-3.58c0.271-0.169,0.546-0.335,0.815-0.504c1.948-1.194,3.895-2.398,5.844-3.6
			c0.193-0.121,0.387-0.241,0.58-0.36c8.715-5.398,17.425-10.887,26.125-16.457c0.143-0.096,0.289-0.187,0.438-0.284
			c2.025-1.296,4.049-2.6,6.074-3.904c0.17-0.11,0.34-0.219,0.509-0.327c10.934-7.06,21.853-14.241,32.759-21.532
			c0.035-0.025,0.071-0.051,0.112-0.074c13.175-8.814,26.329-17.786,39.452-26.886c2.542-1.759,5.08-3.54,7.62-5.313
			c14.433-10.174,49.954-35.572,55.543-39.527c0.616-0.447,1.249-0.893,1.871-1.336c5.832-4.229,11.654-8.471,17.474-12.73
			c0.072-0.057,0.146-0.111,0.221-0.162c5.744-4.207,11.48-8.423,17.211-12.65c0.128-0.095,0.26-0.19,0.391-0.283
			c5.693-4.202,11.379-8.417,17.06-12.637c0.136-0.104,0.272-0.207,0.411-0.308c5.672-4.214,11.336-8.437,16.995-12.665
			c0.087-0.068,0.179-0.134,0.268-0.199c0.073-0.07,0.153-0.125,0.229-0.195C6398.181,5312.019,6315.548,5227.657,6306.56,5221.192z
			"/>
		<path id="_x31_80611108" fill="none" stroke="#010101" stroke-width="64" d="M6236.04,5217.741
			c-1.17-0.922-2.359-1.813-3.561-2.694c-1.098-0.8-2.207-1.583-3.327-2.358c-0.012-0.006-0.021-0.015-0.025-0.021
			c-25.378-17.497-56.651-26.362-88.714-30.247c-0.155-0.018-0.311-0.037-0.461-0.058c-1.568-0.187-3.142-0.362-4.711-0.524
			c-0.271-0.03-0.542-0.059-0.814-0.086c-1.479-0.151-2.957-0.289-4.439-0.422c-0.367-0.031-0.735-0.067-1.102-0.098
			c-1.4-0.119-2.805-0.23-4.21-0.332c-0.448-0.031-0.897-0.065-1.349-0.096c-1.332-0.091-2.665-0.176-3.998-0.254
			c-0.521-0.029-1.039-0.06-1.562-0.09c-1.27-0.067-2.543-0.131-3.816-0.187c-0.579-0.026-1.16-0.051-1.739-0.073
			c-1.214-0.047-2.429-0.09-3.642-0.129c-0.645-0.019-1.283-0.037-1.927-0.055c-1.154-0.028-2.312-0.057-3.463-0.078
			c-0.696-0.014-1.392-0.02-2.089-0.031c-1.1-0.014-2.197-0.027-3.294-0.033c-0.754-0.004-1.503-0.004-2.253-0.004
			c-1.041-0.002-2.08-0.004-3.112,0.004c-0.817,0.004-1.626,0.014-2.435,0.021c-0.971,0.01-1.941,0.021-2.908,0.038
			c-0.887,0.013-1.768,0.036-2.651,0.055c-0.89,0.021-1.781,0.036-2.667,0.062c-0.977,0.026-1.944,0.06-2.918,0.089
			c-0.789,0.027-1.584,0.049-2.369,0.081c-1.127,0.042-2.247,0.093-3.365,0.14c-0.623,0.028-1.259,0.053-1.881,0.08
			c-1.743,0.08-3.477,0.171-5.2,0.268c-63.831,3.564-94.752,32.903-142.064,68.368c-41.584,31.167-80.989,46.833-132.041,61.884
			c-29.28,8.63-73.801,19.318-102.729,39.285c-0.683,0.473-1.353,0.951-2.019,1.431c-0.191,0.138-0.375,0.278-0.566,0.413
			c-0.51,0.377-1.016,0.756-1.516,1.139c-0.164,0.127-0.336,0.253-0.501,0.383c-0.63,0.489-1.253,0.982-1.863,1.481
			c-0.144,0.115-0.279,0.233-0.419,0.347c-0.48,0.396-0.953,0.795-1.42,1.198c-0.199,0.167-0.393,0.341-0.589,0.511
			c-0.461,0.407-0.917,0.816-1.369,1.232c-0.13,0.122-0.267,0.241-0.399,0.363c-0.541,0.506-1.074,1.019-1.598,1.537
			c-0.193,0.188-0.381,0.381-0.572,0.57c-0.354,0.361-0.706,0.723-1.053,1.085c-0.197,0.21-0.398,0.421-0.594,0.634
			c-0.438,0.473-0.872,0.955-1.295,1.438c-0.191,0.223-0.381,0.446-0.569,0.671c-0.325,0.38-0.646,0.761-0.959,1.149
			c-0.205,0.252-0.406,0.509-0.606,0.764c-0.259,0.334-0.519,0.672-0.771,1.011c-0.19,0.257-0.387,0.51-0.571,0.767
			c-0.38,0.524-0.746,1.052-1.105,1.584c-0.19,0.289-0.377,0.575-0.561,0.867c-0.201,0.311-0.398,0.621-0.593,0.933
			c-0.193,0.313-0.385,0.63-0.569,0.947c-0.184,0.309-0.356,0.624-0.529,0.934c-0.301,0.535-0.586,1.071-0.861,1.614
			c-0.158,0.309-0.319,0.621-0.471,0.934c-0.172,0.354-0.336,0.712-0.499,1.072c-0.126,0.273-0.248,0.553-0.366,0.83
			c-0.162,0.371-0.322,0.744-0.473,1.12c-0.102,0.253-0.197,0.509-0.291,0.761c-0.264,0.691-0.513,1.39-0.743,2.097
			c-0.083,0.259-0.169,0.514-0.247,0.774c-0.127,0.408-0.245,0.818-0.361,1.234c-0.068,0.251-0.133,0.508-0.197,0.759
			c-0.229,0.872-0.427,1.756-0.602,2.648c-0.022,0.122-0.05,0.237-0.074,0.356c-0.082,0.445-0.153,0.896-0.224,1.35
			c-0.04,0.252-0.077,0.508-0.114,0.76c-0.063,0.454-0.12,0.907-0.168,1.367c-0.025,0.221-0.041,0.439-0.061,0.662
			c-0.081,0.86-0.14,1.729-0.172,2.607c-0.01,0.24-0.021,0.48-0.029,0.725c-0.008,0.469-0.01,0.943-0.008,1.42
			c0.002,0.271,0.008,0.543,0.012,0.82c0.01,0.483,0.023,0.961,0.044,1.449c0,0.015,0.006,0.028,0.006,0.043
			c0.027,0.551,0.068,1.105,0.11,1.664c0.035,0.373,0.064,0.752,0.109,1.132c0.062,0.592,0.131,1.19,0.215,1.786
			c0.048,0.352,0.104,0.709,0.16,1.061c0.088,0.566,0.184,1.129,0.289,1.703c0.072,0.375,0.149,0.754,0.225,1.13
			c0.12,0.571,0.246,1.146,0.38,1.724c0.077,0.326,0.155,0.648,0.236,0.977c0.174,0.682,0.356,1.363,0.556,2.052
			c0.067,0.243,0.134,0.483,0.207,0.726c0.236,0.793,0.492,1.596,0.758,2.398c0.073,0.222,0.152,0.445,0.23,0.671
			c0.286,0.836,0.592,1.673,0.92,2.524c0.072,0.187,0.148,0.377,0.221,0.564c0.35,0.893,0.717,1.791,1.105,2.698
			c0.055,0.125,0.113,0.253,0.17,0.378c0.426,0.977,0.871,1.96,1.346,2.95c27.819,58.194,108.74,64.956,166.285,48.543
			c72.441-20.667,138.267-73.998,214.271-82.858C6116.987,5382.878,6355.592,5312.103,6236.04,5217.741z M6093.55,5312.798
			c-23.482,37.033-136.775,63.207-137.756-1.801c-0.546-36.255,69.464-59.016,98.262-58.678
			c21.058,0.256,37.174,12.127,43.073,27.416C6101.106,5290.046,6100.45,5301.899,6093.55,5312.798z"/>
		<path id="_x31_80611107" fill="none" stroke="#010101" stroke-width="64" d="M5551.921,5354.175
			c35.027,15.476,69.943,38.169,108.776,44.82c-0.026-0.488-0.036-0.968-0.046-1.449c-0.008-0.277-0.012-0.549-0.012-0.82
			c-0.004-0.475-0.002-0.951,0.008-1.42c0.006-0.244,0.018-0.484,0.025-0.727c0.034-0.876,0.093-1.745,0.172-2.605
			c0.023-0.223,0.039-0.443,0.062-0.662c0.048-0.458,0.107-0.913,0.17-1.367c0.037-0.254,0.074-0.508,0.113-0.76
			c0.071-0.453,0.139-0.902,0.223-1.348c0.024-0.121,0.05-0.236,0.077-0.356c0.172-0.895,0.368-1.778,0.599-2.65
			c0.064-0.251,0.127-0.508,0.197-0.757c0.117-0.415,0.236-0.828,0.362-1.236c0.077-0.261,0.163-0.516,0.247-0.772
			c0.231-0.709,0.478-1.407,0.742-2.099c0.097-0.252,0.188-0.508,0.291-0.761c0.146-0.372,0.309-0.749,0.471-1.12
			c0.12-0.277,0.242-0.555,0.368-0.83c0.161-0.36,0.327-0.717,0.497-1.072c0.154-0.314,0.312-0.623,0.473-0.934
			c0.275-0.541,0.562-1.079,0.863-1.614c0.173-0.308,0.348-0.623,0.529-0.934c0.185-0.315,0.375-0.632,0.565-0.947
			c0.194-0.31,0.394-0.622,0.593-0.933c0.188-0.292,0.37-0.578,0.562-0.865c0.359-0.532,0.726-1.063,1.104-1.584
			c0.191-0.257,0.384-0.512,0.573-0.769c0.252-0.339,0.51-0.673,0.772-1.011c0.2-0.255,0.403-0.512,0.606-0.764
			c0.315-0.387,0.636-0.771,0.959-1.151c0.188-0.221,0.378-0.446,0.567-0.669c0.427-0.482,0.859-0.965,1.298-1.438
			c0.192-0.213,0.397-0.422,0.593-0.632c0.347-0.364,0.699-0.726,1.055-1.085c0.19-0.191,0.377-0.385,0.57-0.572
			c0.523-0.517,1.053-1.029,1.6-1.535c0.127-0.124,0.264-0.241,0.397-0.365c0.451-0.414,0.906-0.825,1.373-1.232
			c0.194-0.17,0.388-0.342,0.581-0.511c0.469-0.401,0.941-0.8,1.422-1.196c0.141-0.115,0.279-0.233,0.42-0.349
			c0.609-0.499,1.232-0.99,1.864-1.481c0.165-0.128,0.337-0.256,0.499-0.383c0.502-0.381,1.008-0.76,1.516-1.136
			c0.191-0.138,0.377-0.278,0.568-0.413c0.666-0.482,1.338-0.959,2.021-1.434c28.926-19.965,73.449-30.655,102.726-39.285
			c51.051-15.053,90.46-30.717,132.042-61.884c47.309-35.465,78.231-64.806,142.065-68.368c1.719-0.097,3.454-0.188,5.198-0.268
			c0.623-0.027,1.255-0.052,1.88-0.08c1.12-0.047,2.238-0.096,3.363-0.142c0.788-0.028,1.584-0.052,2.373-0.079
			c0.974-0.029,1.938-0.064,2.916-0.091c0.885-0.026,1.779-0.04,2.667-0.061c0.886-0.019,1.767-0.04,2.651-0.055
			c0.967-0.017,1.939-0.028,2.908-0.038c0.811-0.008,1.617-0.02,2.435-0.023c1.032-0.006,2.073-0.006,3.112-0.004
			c0.75,0.002,1.499,0,2.253,0.006c1.096,0.006,2.196,0.02,3.296,0.033c0.696,0.012,1.391,0.02,2.091,0.03
			c1.151,0.022,2.305,0.049,3.464,0.079c0.639,0.018,1.275,0.034,1.923,0.055c1.21,0.037,2.425,0.082,3.64,0.129
			c0.582,0.024,1.163,0.047,1.742,0.072c1.273,0.059,2.543,0.118,3.814,0.188c0.524,0.028,1.044,0.059,1.564,0.09
			c1.331,0.078,2.666,0.161,3.996,0.254c0.451,0.028,0.9,0.064,1.352,0.096c1.404,0.102,2.805,0.213,4.209,0.33
			c0.366,0.032,0.736,0.066,1.104,0.098c1.478,0.131,2.956,0.271,4.438,0.424c0.272,0.027,0.542,0.056,0.812,0.084
			c1.574,0.164,3.143,0.338,4.711,0.526c0.152,0.018,0.307,0.036,0.463,0.058c32.066,3.875,63.336,12.748,88.712,30.247
			c0,0.002,0.002,0.004,0.008,0.004c12.474-5.801,25.431-12.673,35.341-20.946c-44.904-30.311-92.551-58.038-144.354-74.99
			c-84.285-27.586-168.988,10.077-246.781,39.998c-78.938,30.363-157.678,64.251-244.328,66.426
			c-80.442,2.01-160.124-2.107-238.332,13.691c-1.855,0.376-3.711,0.766-5.564,1.166
			C5412.821,5295.362,5496.938,5329.892,5551.921,5354.175z"/>
		<path id="_x31_80611166" fill="none" stroke="#010101" stroke-width="64" d="M5693.11,4012.326
			c-7.982,3.504-12.941,9.091-2.69,16.657c19.841,14.651,40.688,23.497,57.874,41.552c20.66,21.712,39.905,48.897,52.562,75.618
			c15.588,32.893,21.924,84.56,5.489,118.756c-1.604,3.354-6.081,9.737-10.229,10.672c6.278-1.4,6.517,23.325,6.659,26.198
			c1.316,27.198-11.463,49.894-18.912,75.381c-7.482,25.628-12.398,54.734-7.266,81.14c2.621,13.52,8.939,28.08,17.482,39.285
			c50.383,66.057,139.781,30.381,190.152-33.699c77.814-99.02,27.503-223.633-39.527-308.564
			c-18.357-23.263-40.27-42.434-63.187-61.671c-30.15-25.312-67.099-50.612-101.919-69.969
			c-12.115-6.736-26.344-9.528-40.143-11.993C5723.454,4008.823,5708.558,4005.534,5693.11,4012.326z"/>
		<path id="_x31_80611167" fill="none" stroke="#010101" stroke-width="64" d="M6446.61,5247.713
			c-1.149-1.068-2.256-2.161-3.322-3.269c-24.594-25.527-29.292-61.727-20.773-89.473
			c35.666-116.158,145.878-173.885,243.793-239.83c114.419-77.062,213.57-179.865,345.946-230.48
			c21.276-8.139,44.417-21.41,67.642-23.304c40.215-3.282,35.281,24.995,15.65,44.837
			c-77.064,77.906-160.439,142.427-253.289,215.773c-65.693,51.902-155.158,114.438-199.717,156.778
			c-24.947,23.7-38.187,53.838-62.711,78.077c-30.91,30.551-72.366,59.548-105.781,91.305
			C6468.989,5252.927,6451.878,5252.636,6446.61,5247.713z"/>
		<path id="_x31_80611165" fill="none" stroke="#010101" stroke-width="64" d="M5632.048,4068.87
			c-0.541,31.68,58.797,62.462,77.207,81.246c20.629,21.031,29.854,48.84,41.451,74.818c4.792,10.725,8.867,23.074,14.623,33.305
			c3.941,6.998,8.73,16.379,17.539,18.686c4.43,1.156,12.867,0.012,16.522-2.789c6.843-5.244,8.263-13.021,10.171-20.6
			c1.062-4.225,1.762-8.504,2.571-12.772c6.194-32.682,3.136-75.705-16.477-104.44c-13.294-19.467-24.521-39.658-40.329-57.587
			c-4.686-5.312-9.488-10.825-14.896-15.481c-11.014-9.47-22.604-20.12-37.578-23.414c-21.629-4.762-64.999-1.608-70.309,24.51
			C5632.229,4065.86,5632.071,4067.366,5632.048,4068.87z"/>
	</g>
</g>
</svg>
