<svg width="9120" height="7424" xmlns="http://www.w3.org/2000/svg">
<g transform="scale(1.0)">
<g id="180640375" order="1" parent_id="" graphic_group_label_id="28" graphic_group_label="Atlas - Adult Mouse" sub_image_id="100960208" transform=" scale(1.0, 1.0)"><path id="180640377" parent_id="180640375" order="0" structure_id="8" d="M5830.316,1411.535
			c459.301-136.748,971.185,28.693,1344.086,272.124c48.289,31.524,143.902,112.28,262.105,185.904
			c142.066,88.482,314.282,179.728,443.114,336.813c140.002,170.711,203.25,378.008,243.922,598.078
			c29.935,161.863,63.149,333.126,26.796,489.113c-41.169,176.572-137.939,396.315-269.277,591.211
			c-117.152,173.843-244.383,323.328-439.351,196.029c-370-241.594-544.511-919.041-714.144-1261.146
			c-101.531-204.768-315.389-370.301-442.113-535.557c-169.968-221.642-327.242-447.818-469.592-696.173
			C5754.462,1480.79,5760.549,1432.311,5830.316,1411.535z" style="stroke:black;fill:#bfdae3"/><path id="180640378" parent_id="180640375" order="1" structure_id="8" d="M8112.539,4791.848
			c154.82-41.801,361.852,55.197,389.558,217.058c40.963,239.385-194.074,563.571-342.69,730.614
			c-132.979,149.491-250.027,235.467-380.422,307.552c-203.133,112.3-366.347-40.631-491.891-179.001
			c-122.305-134.8-27.059-429.438,78.591-632.059C7475.166,5026.036,7829.223,4868.339,8112.539,4791.848z" style="stroke:black;fill:#bfdae3"/><path id="180640379" parent_id="180640375" order="2" structure_id="8" d="M7040.044,4191.966
			c-64.099-112.147-123.676-107.919-176.683-193.792c-51.061-82.714-90.481-185.663-89.33-263.925
			c1.687-114.009,58.793-204.083,36.955-338.847c-44.291-273.293-202.06-464.791-373.037-666.754
			c-57.578-68.021-167.672-199.418-268.781-165.156c-86.035,29.154-154.678,205.865-180.377,317.097
			c7.059-37.188,15.729-71.063,26.403-99.146c63.062-165.941,180.923-275.181,73.008-484.475
			c-75.802-147.021-179.396-342.908-287.097-516.079c-69.806-112.242-91.42-255.247-148.731-350.612
			c-95.571-159.02-234.834-279.209-389.981-371.845c-121.625-72.622-273.688-128.241-412.559-178.751
			c-116.211-42.268-217.702-85.42-336.827-89.14c-72.575-2.265-179.929,6.781-230.962,43.973
			c-70.165,51.132-160.609,95.269-219.362,81.279l-108.045,5692.835c70.806,33.768,151.769,75.82,326.802,96.032
			c104.344,12.054,220.416-27.612,345.635-45.965c87.648-12.847,200.303-5.622,266.475-5.349
			c214.887,0.885,459.695-126.893,631.046-244.879c72.317-49.805,226.552-125.959,303.019-176.504
			c132.689-87.684,371.86-192.071,462.403-313.599c84.215-113.04,131.33-176.274,208.948-337.001
			c24.581-50.908,47.438-163.824,100.04-154.083c91.245,16.896,115.403,30.396,166.015-12.073
			c38.065-31.934,66.707-163.115,74.896-218.055c6.342-42.549-20.245-78.549-39.015-137.371
			c-6.263-19.611-2.437-36.279-13.777-41.668c-6.313-3-11.734-5.479-16.876-7.832c9.601,3.975,19.353,7.584,29.306,10.83
			c224.22,73.141,360.196-115.513,379.974-321.889C7194.27,4545.439,7114.598,4322.411,7040.044,4191.966z M6029.527,3960.622
			c-0.011,0.666-0.033,1.339-0.064,2.019c-0.004,0.063-0.004,0.123-0.008,0.186c-0.035,0.73-0.082,1.468-0.141,2.213
			c0,0.011-0.002,0.021-0.002,0.033c-0.119,1.522-0.283,3.078-0.486,4.662c-3.426,26.579-18.377,61.865-25.021,108.486
			c-0.071,0.254-0.146,0.509-0.215,0.765c0.061-0.337,0.112-0.688,0.176-1.021c18.373-98.21-105.726-213.842-128.06-297.083
			c-25.547-95.215,27.851-127.704,62.754-319.044c15.026-82.321,15.756-200.558,22.535-310.13
			c1.998-32.277,4.411-63.799,7.06-93.449c-22.121,320.365,13.279,558.708,60.99,893.889c0.097,0.683,0.179,1.373,0.246,2.07
			c0.033,0.334,0.053,0.676,0.078,1.012c0.027,0.364,0.062,0.726,0.082,1.094c0.025,0.473,0.039,0.954,0.054,1.434
			c0.007,0.234,0.021,0.465,0.024,0.7c0.01,0.581,0.008,1.169,0,1.759C6029.527,3960.35,6029.531,3960.484,6029.527,3960.622z" style="stroke:black;fill:#bfdae3"/><path id="180640380" parent_id="180640375" order="3" structure_id="688" d="M5830.316,1411.535
			c459.301-136.748,971.185,28.693,1344.086,272.124c48.289,31.524,143.902,112.28,262.105,185.904
			c142.066,88.482,314.282,179.728,443.114,336.813c140.002,170.711,203.25,378.008,243.922,598.078
			c29.935,161.863,63.149,333.126,26.796,489.113c-41.169,176.572-137.939,396.315-269.277,591.211
			c-117.152,173.843-244.383,323.328-439.351,196.029c-370-241.594-544.511-919.041-714.144-1261.146
			c-101.531-204.768-315.389-370.301-442.113-535.557c-169.968-221.642-327.242-447.818-469.592-696.173
			C5754.462,1480.79,5760.549,1432.311,5830.316,1411.535z" style="stroke:black;fill:#b0ffb8"/><path id="180640436" parent_id="180640375" order="4" structure_id="593" d="M7706.098,2043.292l-8.17,22.538
			l-143.978,37.793c-62.127-51.104-127.933-92.669-201.711-139.52c-132.341-84.057-240.771-195.489-369.024-284.355
			c-179.438-124.443-383.065-167.354-594.071-203.116c-88.203-14.905-154.34-21.448-239.295-23.291l-103.201-84.337
			c398.013-41.14,812.539,108.917,1127.783,314.666c48.265,31.547,143.876,112.264,262.099,185.87
			C7520.852,1922.135,7615.814,1975.594,7706.098,2043.292z" style="stroke:black;fill:#08858c"/><path id="180640435" parent_id="180640375" order="5" structure_id="821" d="M7553.95,2103.623
			l-323.593,85.021c-6.927-12.222-15.338-25.216-25.146-39.146c-87.549-123.877-328.521-229.849-474.976-236.987
			c-6.569-0.289-12.979-0.409-19.228-0.112l-561.162-459.058c84.955,1.843,151.092,8.385,239.295,23.291
			c211.006,35.762,414.633,78.673,594.071,203.116c128.255,88.866,236.685,200.299,369.024,284.354
			C7426.02,2010.953,7491.823,2052.52,7553.95,2103.623z" style="stroke:black;fill:#08858c"/><path id="180640434" parent_id="180640375" order="6" structure_id="721" d="M7230.357,2188.645
			l-137.535,36.092l-381.813-312.339c6.248-0.296,12.655-0.177,19.228,0.112c146.453,7.14,387.426,113.11,474.976,236.987
			C7215.02,2163.428,7223.432,2176.422,7230.357,2188.645z" style="stroke:black;fill:#08858c"/><path id="180640439" parent_id="180640375" order="7" structure_id="805" d="M6621.486,2541.514
			l-40.135,26.989l-0.004,0.248c-20.398,0.197-32.41,1.462-31.047,4.221l-0.679,0.65
			c-91.724-101.349-191.991-195.485-264.126-289.509c-170.02-221.656-327.299-447.793-469.59-696.176
			c-61.48-107.156-55.314-155.652,14.418-176.372c71.075-21.19,143.426-35.07,216.32-42.563l103.201,84.337
			c-9.816-0.267-19.888-0.373-30.207-0.484c-69.328-0.639-131.379,10.038-159.727,82.549
			c-46.463,119.127,104.268,282.532,176.257,362.227c150.427,166.217,214.231,317.557,359.799,489.811
			C6541.885,2441.884,6580.79,2492.883,6621.486,2541.514z" style="stroke:black;fill:#08858c"/><path id="180640438" parent_id="180640375" order="8" structure_id="41" d="M6939.786,2327.617
			l-318.299,213.896c-40.696-48.631-79.603-99.629-125.519-154.072c-145.566-172.254-209.371-323.594-359.799-489.811
			c-71.99-79.694-222.72-243.1-176.256-362.227c28.347-72.511,90.396-83.188,159.726-82.549c10.319,0.111,20.392,0.218,30.208,0.484
			l561.162,459.057c-96.365,2.829-164.283,63.83-149.486,165.805c17.883,123.563,182.315,183.378,282.504,220.373
			C6871.059,2308.521,6904.16,2318.75,6939.786,2327.617z" style="stroke:black;fill:#08858c"/><path id="180640437" parent_id="180640375" order="9" structure_id="501" d="M7092.822,2224.736
			l-153.037,102.881c-35.625-8.867-68.729-19.095-95.76-29.043c-100.188-36.994-264.619-96.809-282.502-220.373
			c-14.797-101.974,53.121-162.975,149.485-165.804L7092.822,2224.736z" style="stroke:black;fill:#08858c"/><path id="180640433" parent_id="180640375" order="10" structure_id="836" d="M8120.496,2787.788l-0.584,0.072
			c-4.771-20.545-168.162-56.324-245.3-70.939c-24.788-101.83-36.078-204.317-72.745-303.058
			c-37.225-100.076-90.389-154.158-162.768-230.878c-27.826-29.507-56.135-55.463-85.149-79.361l143.978-37.793l8.17-22.538
			c61.717,46.375,121.146,99.25,173.543,163.09C8016.078,2372.832,8079.688,2573.857,8120.496,2787.788z" style="stroke:black;fill:#0d9f91"/><path id="180640432" parent_id="180640375" order="11" structure_id="427" d="M7874.611,2716.92
			c-6.222-1.11-11.943-2.212-16.924-3.05c-51.771-9.088-97.895-17.407-140.947-25.254
			c-134.969-24.563-239.643-44.416-392.732-70.313c-76.668-13.032-216.021-25.918-326.533-32.051
			c-43.322-2.387-82.254-3.78-111.224-3.744c-15.733,0.036-146.75-9.049-240.414-12.546c-8.229-9.43-16.29-18.855-24.351-28.447
			l318.299-213.897c171.584,42.642,401.196,54.156,290.571-138.973l323.593-85.021c29.016,23.898,57.323,49.854,85.148,79.361
			c72.379,76.72,125.543,130.802,162.769,230.878C7838.534,2512.602,7849.824,2615.09,7874.611,2716.92z" style="stroke:black;fill:#0d9f91"/><path id="180640431" parent_id="180640375" order="12" structure_id="988" d="M7230.357,2188.645
			c110.625,193.129-118.987,181.613-290.571,138.973l153.036-102.881L7230.357,2188.645z" style="stroke:black;fill:#0d9f91"/><path id="180640430" parent_id="180640375" order="13" structure_id="526" d="M6550.302,2572.972
			c-1.362-2.759,11.495-4.042,31.046-4.221c1.818-0.017,2.824-1.884,5.096-3.671c2.571-2.023,6.789-4.382,10.688-7.188
			c6.605-4.754,17.37-10.727,24.355-16.379c1.084-0.877,0.516,0.617,1.662,1.976c4.974,5.882,17.83,20.884,22.688,26.473
			c38.128,43.696,79.204,85.543,130.039,126.414c64.69,51.98,106.942,106.438,189.294,113.945
			c60.911,5.533,110.855,45.062,119.268,114.949c9.358,77.11-7.931,154.714,0.182,231.718
			c8.32,79.161,30.954,110.311,87.423,161.307c63.424,57.34,59.61,139.834,99.601,208.243c42,72.175,88.014,156.515,163.375,198.923
			c91.75,51.659,246.806,48.607,344.977,16.414c66.843-21.934,120.219-66.728,156.727-126.248
			c76.277-124.279,62.262-262.926,51.809-400.76c-12.58-166.113-67.212-318.274-109.039-478.478
			c-1.708-6.492-3.333-12.981-4.875-19.47c77.139,14.615,240.527,50.395,245.3,70.938l0.584-0.072
			c1.06,5.568,2.036,11.136,3.097,16.704c29.893,161.801,63.102,333.104,26.761,489.107
			c-41.144,176.533-137.962,396.326-269.271,591.208c-117.174,173.78-244.375,323.274-439.324,195.973
			c-370.006-241.56-544.524-919.026-714.172-1261.088c-43.858-88.274-108.416-169.237-177.963-246.069L6550.302,2572.972z" style="stroke:black;fill:#32b825"/><path id="180640429" parent_id="180640375" order="14" structure_id="543" d="M7988.525,3214.868
			c10.453,137.833,24.471,276.479-51.808,400.76c-36.508,59.521-89.884,104.313-156.728,126.248
			c-98.17,32.193-253.226,35.245-344.977-16.414c-75.361-42.408-121.375-126.749-163.374-198.923
			c-39.989-68.41-36.177-150.904-99.601-208.243c-56.47-50.997-79.104-82.146-87.424-161.308
			c-8.11-77.004,9.179-154.607-0.181-231.718c-8.412-69.888-58.356-109.417-119.269-114.948
			c-82.351-7.51-124.603-61.966-189.293-113.945c-50.836-40.871-91.912-82.719-130.039-126.414
			c93.664,3.498,224.681,12.582,240.414,12.546c28.97-0.036,67.899,1.356,111.224,3.743l-0.51,9.35
			c94.618,36.559,159.575,122.745,173.026,225.439c17.662,135.152-4.312,235.856,58.289,367.382
			c53.471,112.472,135.459,209.165,238.162,280.325c415.164,287.541,323.592-567.414,247.144-763.05l3.153-17.083
			c43.055,7.848,89.179,16.167,140.948,25.254c4.979,0.838,10.702,1.94,16.924,3.051c1.542,6.488,3.167,12.979,4.875,19.47
			C7921.314,2896.593,7975.945,3048.755,7988.525,3214.868z" style="stroke:black;fill:#32b825"/><path id="180640428" parent_id="180640375" order="15" structure_id="664" d="M7716.74,2688.615l-3.154,17.083
			c76.449,195.635,168.021,1050.591-247.144,763.049c-102.702-71.161-184.69-167.854-238.162-280.325
			c-62.601-131.524-40.627-232.229-58.289-367.382c-13.451-102.694-78.408-188.881-173.026-225.438l0.51-9.35
			c110.514,6.132,249.864,19.018,326.533,32.051C7477.098,2644.2,7581.771,2664.053,7716.74,2688.615z" style="stroke:black;fill:#32b825"/><path id="180640387" parent_id="180640375" order="16" structure_id="313" d="M6124.79,2432.261
			c-4.292-53.577-26.521-112.327-38.362-135.292c-75.802-147.021-179.395-342.908-287.096-516.079
			c-69.807-112.241-91.421-255.247-148.732-350.611c-95.57-159.021-234.834-279.21-389.981-371.845
			c-121.624-72.622-273.688-128.241-412.558-178.752c-116.211-42.268-217.703-85.42-336.828-89.14
			c-40.332-1.259-100.183-0.91-151.633,12.337c-42.977,11.064-77.146,33.193-99.734,46.778
			c-26.143,15.729-63.8,53.958-60.691,92.513c4.597,57.17,67.026,120.107,25.842,135.606
			c-38.283,14.41-78.123,20.737-110.179,30.374c-24.978,7.507-40.492,13.729-57.913,17.547l-19.22,1012.729
			c0.053,0.021,135.544,50.183,231.456,149.271c95.929,99.105,161.787,247.337,159.824,350.819
			c-1.475,77.61-43.908,196.827-113.674,287.717c-116.219,151.397-297.379,263.447-297.561,263.56l-20.229,1065.854
			c0,0,108.811,15.623,184.105,12.428c84.764-3.595,153.65-2.703,200.232-23.844c30.742-13.948,99.062-11.178,193.403-19.831
			c63.483-5.829,139.453-23.451,220.714-26.888c-39.992-0.715-72.318-18.594-94.759-36.957
			c-49.992-40.916-84.918-105.811-88.974-165.336c-6.418-94.004,9.633-154.693,50.498-190.973
			c32.74-29.076,121.812-17.934,154.942,5.028c44.481,30.83,53.354,90.812,65.562,143.445c1.75,7.556,3.801,15.6,5.984,23.991
			c-20.2-100.059-47.8-189.507-24.993-294.845c27.384-126.468,158.315-300.678,276.957-411.635
			c45.845-42.869,183.345-157.201,184.752-231.17c2.253-118.66,17.549-157.269,36.53-170.461
			c22.861-15.887,59.58-14.155,100.586-36.764c58.445-32.222,68.302-89.813,173.681-86.456c14.108,0.451,42.378,4.98,57.907,19.033
			c10.9,9.862,17.859,118.688,46.021,133.365c26.112,13.608,75.342-29.878,97.402-51.656c34.99-34.537,70.221-86.69,94.746-121.405
			c24.467-34.643,50.27-68.364,68.836-106.476c8.152-16.755,16.633-36.958,31.404-49.087c19.934-16.375,46.533-8.521,54.474,16.646
			c3.787,12.019-3.589,24.775,1.672,21.771C6102.133,2600.18,6130.658,2505.574,6124.79,2432.261z M4292.258,3753.313
			c-7.602,2.194-17.505,3.988-28.932,5.229c-70.65,7.646-199.677-6.487-201.022-86.158
			c-1.289-75.182,87.371-128.188,145.719-131.768c31.03-1.9,71.382,5.985,98.683,23.214
			C4392.18,3617.768,4388.947,3725.363,4292.258,3753.313z M4635.49,3604.759c-41.189,31.36-101.079,45.171-160.178,36.972
			c-61.287-8.52-134.838-44.515-157.396-120.004v-0.009c-21.14-70.747,3.358-146.312,63.918-197.181
			c61.879-51.987,143.569-64.333,213.216-32.246c54.286,25.011,92.889,83.4,100.698,152.387
			C4703.213,3510.536,4680.691,3570.373,4635.49,3604.759z" style="stroke:black;fill:#ff64ff"/><path id="180640399" parent_id="180640375" order="17" structure_id="851" d="M4583.221,1036.23
			c78.979-25.44,159.819-50.66,195.549-47.761c-5.398,18.101-10.25,35.11-13.59,48.351c0,0-4.33,30.66-8.92,63.91
			c-33.59,8.859-166.34,41.709-331.76,53.77c-185.2,13.5-268.05,12.12-367.03,1.24l0.53-30.061
			c24.39-5.75,61.23-16.949,105.33-30.46c23.641-7.25,56.51-7.78,69.41-17.78c20.609,6.37,41.25,10.841,62.439,13.311
			c48.58,5.689,100.021,0.939,160.41-15.11C4491.16,1066.18,4536.87,1051.17,4583.221,1036.23z" style="stroke:black;fill:#ff7aff"/><path id="180640400" parent_id="180640375" order="18" structure_id="842" d="M4590.46,917.3
			c15.771,25.32,0.63,90.84-6.99,117.48l-0.25,1.45c-46.351,14.939-92.06,29.949-127.63,39.409
			c-60.391,16.051-111.83,20.801-160.41,15.11c-82.721-108.09-26.7-152.76,62.85-187.77
			C4415.24,880.61,4547.99,849.11,4590.46,917.3z" style="stroke:black;fill:#ff7aff"/><path id="180640401" parent_id="180640375" order="19" structure_id="834" d="M4755.279,844.97l61.66,23.05
			c0,0-21.689,65.311-38.17,120.45c-35.729-2.899-116.569,22.32-195.551,47.761l0.25-1.45c7.621-26.641,22.762-92.16,6.99-117.48
			c-42.47-68.189-175.22-36.689-232.43-14.319c-89.55,35.01-145.57,79.68-62.85,187.77c-21.19-2.47-41.83-6.939-62.44-13.311
			c0.91-0.699,1.72-1.459,2.42-2.26c12.12-13.939,3.28-31.609-19.96-81.12c-9.391-20-14.96-41.939-14.08-62.37
			c1.12-25.8,17.689-42.319,31.96-57.72c13.42-14.479,34.36-22.59,56.899-37.239c75.851-49.301,150.451-48.45,223.03-46.19
			C4598.891,793.22,4675.609,816.4,4755.279,844.97z" style="stroke:black;fill:#ff7aff"/><path id="180640393" parent_id="180640375" order="20" structure_id="811" d="M4654.92,1783.37
			c0.109-0.14,0.23-0.32,0.37-0.521c0.08-0.119,0.09-0.149,0.04-0.09c5.85-8.68,40.12-59.359,45.689-70.83
			c33.211-68.39,50.899-98.97,35.181-171.869c-19.13-88.7-48.76-172.07-12.062-241.771c5.58-10.59,10.381-21.021,14.551-31.42
			l10.971-8.58c34.04-46.53,81.779-86.28,128.979-110.34c50.03-25.49,104.42-22.32,153.012-42.92
			c14.29-6.061,24.898-14.91,33.609-25.33l1.51,1.42c98.949,68.12,196.711,164.479,270.689,257.94
			c78.42,99.069,137.09,219.01,114.34,348.449c-42.35,240.93-343.529,252.36-534.59,216.811c-91-16.94-197.52-45.181-280.641-85.94
			l-6.399-4.35c13.229-16.97,24.229-30.38,25.14-31.25C4655.16,1783.01,4655.029,1783.2,4654.92,1783.37z M4654.66,1783.76
			c0.07-0.1,0.16-0.229,0.26-0.38C4654.811,1783.53,4654.721,1783.66,4654.66,1783.76z" style="stroke:black;fill:#ff7aff"/><path id="180640392" parent_id="180640375" order="21" structure_id="820" d="M5065.26,1079.7
			c-8.71,10.42-19.318,19.27-33.609,25.33c-48.59,20.6-102.979,17.43-153.011,42.92c-47.199,24.06-94.938,63.81-128.979,110.34
			l-10.97,8.58c23.3-58.05,26.949-115.15,35.51-194c10.09-92.98,63.431-198.94,63.431-198.94c91.43,33.26,193.879,71.221,287.91,114
			l-2.951,3.15C5096.93,1017.68,5087.07,1053.62,5065.26,1079.7z" style="stroke:black;fill:#ff7aff"/><path id="180640394" parent_id="180640375" order="22" structure_id="828" d="M6088.33,2621.85
			c-3.63-4.85-1.71-22.369-2.32-28.33c-0.84-7.989-1.148-18.229-6.778-24.629c-10.511-11.95-29.851-5.69-41.142,1.939
			c-24.688,16.689-31.949,45.79-46.069,70.13c-16.739,28.86-38.101,56.41-57.42,83.76c-24.528,34.71-59.76,86.87-94.75,121.41
			c-22.06,21.771-71.29,65.26-97.399,51.649c-28.16-14.68-35.119-123.5-46.021-133.359c-15.528-14.061-43.79-18.771-57.91-19.04
			c-81.819-1.53-88.931,16.28-151.25,74.46c-27.521,25.689-72.829,35.899-114.46,36.5c-21.479,0.31-74.221-7.11-96.659-23.9
			c-113.551-84.949-198.69-203.869-281.472-301.35c-63.58-74.87-95.34-172.771-141.108-258.96
			c-72.601-136.72-165.54-281.78-280.722-385.94c-2.1-1.89,13.551-11.47,18.4-18.97c9.811-15.18,25.51-36.01,38.92-53.19l6.4,4.351
			c83.119,40.76,189.64,69,280.64,85.94c191.06,35.55,492.24,24.119,534.59-216.811c22.75-129.439-35.92-249.38-114.34-348.45
			c-73.979-93.46-171.74-189.819-270.69-257.939l-1.51-1.42c21.812-26.08,31.67-62.021,57.33-88.62l2.951-3.15
			c48.779,22.2,95.299,45.69,136.85,70.5c155.15,92.641,294.41,212.83,389.99,371.85c57.311,95.36,78.92,238.37,148.73,350.61
			c107.699,173.17,211.289,369.06,287.09,516.08c69.67,135.12,43.1,231.83,0.06,325.74L6088.33,2621.85z" style="stroke:black;fill:#ff7aff"/><path id="180640403" parent_id="180640375" order="23" structure_id="460" d="M4987.729,2758.773
			c1.461-47.553,5.461-97.588-6.256-143.238c-18.902-73.692-102.819-83.524-103.303,6.997
			c-0.359,69.246,43.977,133.306,47.16,205.114c5.762,129.806,14.779,261.168-4.247,390.281
			c-7.615,51.726-19.776,101.939-37.608,151.101c-11.992,33.056-30.912,69.519-30.166,105.539
			c0.138,6.496,1.209,13.069,3.285,19.229c3.674,10.899,9.976,20.997,19.439,27.782c4.754,3.414,10.613,6.605,16.641,6.564
			c2.697-0.024,5.267-0.825,7.543-2.263c1.916-1.214,5.264-3.538,6.275-5.612c4.693-9.539,9.33-19.106,13.764-28.777
			c4.699-10.264,9.164-20.635,13.313-31.129c4.554-11.536,8.716-23.207,12.524-35.01c4.242-13.144,8.035-26.431,11.472-39.81
			c3.808-14.872,7.175-29.858,10.208-44.909c3.32-16.503,6.236-33.088,8.861-49.714c2.816-17.887,5.305-35.829,7.549-53.799
			c2.365-18.944,4.476-37.915,6.412-56.91c2-19.646,3.817-39.308,5.559-58.981c1.764-19.964,3.96-39.991,5.113-60
			C5005.074,2995.313,4987.729,2758.773,4987.729,2758.773z" style="stroke:black;fill:#ff7aff"/><path id="180640389" parent_id="180640375" order="24" structure_id="128" d="M4604.575,4221.076
			c-53.792,7.464-151.075,10.341-179.075,7.216c4.32-3.856,14.883-18.638,17.872-30.778c6.013-24.422,0.565-55.349-13.673-85.514
			c-9-19.066-42.137-36.957-37.199-48.55c12.482-29.306,170.68-67.05,205.951-78.113c17-5.332,11.384,9.043,14.549,26.663
			c7.41,41.248,27.532,77.441,37.496,91.414C4665.078,4123.859,4692,4166,4732,4200
			C4719.624,4205.896,4632.785,4217.162,4604.575,4221.076z" style="stroke:black;fill:#ff90ff"/><path id="180640396" parent_id="180640375" order="25" structure_id="26" d="M4718.2,1538.34
			c8.58,59.521,9.39,89.891-23.66,150c-3.22,5.85-6.38,11.46-9.47,16.82c-76.722-14.811-255-75.67-356.57-105.66
			c-94.609-27.93-222.5-38.811-278.34-29.72l3.42-193.671l7.49,0.75c-1.17,25.58,12.39,50,18.279,50.11
			c37.461,0.7,68.29,11.12,92.68,14.16c115.67,14.45,236.871,36.229,351.66,55.33c34.4,5.72,149.891,47.68,174.83,7.069
			c5.562-9.06,8.36-17.8,8.94-26.159C4711.029,1494.63,4714.641,1513.68,4718.2,1538.34z" style="stroke:black;fill:#ff90ff"/><path id="180640395" parent_id="180640375" order="26" structure_id="42" d="M4573.328,1752.39
			c-78.577-51.403-169.523-81.041-256.081-115.673c-27.166-10.861-87.84-15.292-108.446-34.945
			c-12.199-11.639-14.049-20.605-10.355-27.625l-147.165-19.405l-1.028,79.755c13.752,12.113,46.232,15.07,78.68,21.145
			c58.176,10.891,104.814,18.205,159.207,45.431c17.22,8.616,108.885,50.318,172.017,92.257
			c62.153,41.283,95.815,82.967,108.944,71.397C4645.216,1797.65,4590.51,1763.63,4573.328,1752.39z" style="stroke:black;fill:#ff90ff"/><path id="180640397" parent_id="180640375" order="27" structure_id="17" d="M4061.07,1376.86
			c0.76-16.601,7.72-33.7,27.01-44.96c31.779-18.561,72.2-5.83,105.46-0.78c50.86,7.7,129.37,33.68,205.91,42.51
			c71.96,8.311,142.06-0.5,189.95,6.33c25.729,3.66,92.359,30.6,112.391,70.75c1.869,8.76,3.77,17.45,5.67,26.66
			c-0.58,8.36-3.381,17.1-8.94,26.16c-24.938,40.609-140.431-1.351-174.83-7.07c-114.79-19.1-235.99-40.88-351.66-55.33
			c-24.39-3.04-55.22-13.46-92.68-14.16C4073.46,1426.86,4059.9,1402.439,4061.07,1376.86z" style="stroke:black;fill:#ff90ff"/><path id="180640398" parent_id="180640375" order="28" structure_id="10" d="M4756.26,1100.73
			c-3.3,24-6.75,49.34-8.8,65.5c-4.89,38.55-31.19,108.449-42.97,144.119c-11.771,35.66-17.771,59.011-10.26,101.94
			c2.438,13.97,4.979,26.26,7.56,38.42c-20.03-40.149-86.66-67.09-112.39-70.75c-47.892-6.83-117.99,1.98-189.951-6.33
			c-76.539-8.83-155.049-34.81-205.91-42.51c-33.26-5.05-73.68-17.78-105.459,0.78c-19.291,11.26-26.25,28.359-27.011,44.96
			l-7.489-0.75l3.89-220.37c98.979,10.88,181.829,12.26,367.03-1.24C4589.92,1142.439,4722.67,1109.59,4756.26,1100.73z" style="stroke:black;fill:#ff90ff"/><path id="180640388" parent_id="180640375" order="29" structure_id="795" d="M4900.217,3525.879
			c-2.277,1.438-4.846,2.238-7.544,2.263c-6.026,0.04-11.886-3.15-16.64-6.564c-9.465-6.785-15.768-16.884-19.439-27.782
			c-2.076-6.159-3.148-12.732-3.285-19.229c-0.747-36.021,18.174-72.483,30.165-105.539c17.832-49.161,29.994-99.375,37.608-151.101
			c19.027-129.113,10.008-260.476,4.248-390.281c-3.185-71.809-47.521-135.868-47.16-205.114
			c0.429-80.467,66.783-81.631,94.797-29.135c-0.152-1.523-0.233-2.322-0.233-2.322c1.615-33.285-23.8-76.325-47.546-126.493
			c-56.797-119.993-104.188-238.345-186.029-344.086c-53.513-69.132-99.983-136.423-163.615-196.649
			c-145.146-137.378-312.701-241.121-527.175-253.729l-8.889,468.309c0.037,0.014,135.539,50.176,231.457,149.272
			c95.929,99.105,161.787,247.336,159.824,350.818c-0.017,0.818-0.042,1.648-0.067,2.477c-0.006,0.673-0.004,1.352-0.018,2.021
			c-1.475,77.608-43.913,196.829-113.675,287.714c-116.276,151.477-297.483,259.424-297.483,259.424l-1.5,79.051
			c6.045-5.396,10.793-9.691,11.618-10.71c58.591-72.365,112.105,13.292,89.722,86.128
			c-23.836,77.534-59.861,130.071-66.656,214.424c-12.708,157.796-31.908,319.251-20.723,477.551
			c3.998,56.58,45.399,168.479-32.17,192.148v-0.09l-0.141,7.344c26.117,4.821,106.803-56.088,175.807-134.719
			c46.678-53.197,94.24-122.602,124.82-143.964c73.107-51.076,211.27-35.104,285.279-118.866
			c93.576-105.904,0.102-151.823,78.319-252.5c22.03-28.352,67.132-48.063,78.845-51.323c62.763-17.452,159.385-0.791,159.385-0.791
			c1.408-2.102,2.81-4.306,4.201-6.594C4903.759,3526.29,4901.145,3525.291,4900.217,3525.879z M4292.258,3753.313
			c-7.602,2.194-17.505,3.988-28.932,5.229c-70.65,7.646-199.677-6.487-201.022-86.158
			c-1.289-75.182,87.371-128.188,145.719-131.768c31.03-1.9,71.382,5.985,98.683,23.214
			C4392.18,3617.768,4388.947,3725.363,4292.258,3753.313z M4635.49,3604.759c-41.189,31.36-101.079,45.171-160.178,36.972
			c-61.287-8.52-134.838-44.515-157.396-120.004v-0.009c-21.14-70.747,3.358-146.312,63.918-197.181
			c61.879-51.987,143.569-64.333,213.216-32.246c54.286,25.011,92.889,83.4,100.698,152.387
			C4703.213,3510.536,4680.691,3570.373,4635.49,3604.759z" style="stroke:black;fill:#ff90ff"/><path id="180640391" parent_id="180640375" order="30" structure_id="616" d="M5294.557,3114.354
			c40.09-47.309,28.563-101.754,8.328-146.148c-38.514-84.48-140.828-153.08-205.492-210.895
			c-15.826-14.146-53.822-85.67-78.558-70.479c-19.09,11.729-11.248,89.003-11.003,107.295c0.529,38.451,8.273,80.256,8.938,117.638
			c0.631,35.608,5.828,66.161,4.994,102.229c-1.252,54.129-0.672,116.28-10.586,169.794c-9.154,49.343-23.797,183.021,58.94,133.386
			C5157.122,3264.979,5240.543,3178.089,5294.557,3114.354z" style="stroke:black;fill:#ff90ff"/><path id="180640390" parent_id="180640375" order="31" structure_id="757" d="M4409.861,4224.018
			c-209.813,145.408-217.24-239.985-22.854-145.439C4438.807,4103.77,4471.436,4181.342,4409.861,4224.018z" style="stroke:black;fill:#ff90ff"/><path id="180640402" parent_id="180640375" order="32" structure_id="872" d="M4022.191,3268.515
			c61.381-89.646,120.494,0.192,97.164,76.104c-23.834,77.533-59.86,130.07-66.655,214.424
			c-12.708,157.796-31.908,319.251-20.722,477.551c3.996,56.579,45.398,168.479-32.17,192.148L4022.191,3268.515z" style="stroke:black;fill:#ffa6ff"/><path id="180640404" parent_id="180640375" order="33" structure_id="771" d="M6503.016,5257.771
			c-56.297-180.967-139.646-340.736-183.561-528.149c-11.279-48.123,5.248-49.634-10.928-67.172l-0.121-5.679
			c-22.646-3.015-42.539-23.063-56.51-38.277c-86.818-94.561-161.711-193.671-211.351-322.457
			c-13.21-34.27-31.478-89.475-36.112-144.217c-5.328-63.045,4.65-126.289-10.821-160.316
			c-46.714-102.705-117.534-148.072-122.772-256.264c-3.474-71.82,38.896-130.486,56.732-211.496
			c24.193-109.896,29.15-220.293,34.488-355.459c5.201-131.766,18.416-293.146,54.543-388.201
			c19.941-52.471,45.364-99.272,67.393-145.361c0,0,5.65-40.836-0.555-50.414c-7.905-12.186-31.051-8.862-45.981,10.524
			c-33.048,42.897-69.711,109.455-98.584,150.319c-24.524,34.714-62.938,81.634-97.933,116.172
			c-22.063,21.778-69.981,62.419-97.398,51.656c-40.629-15.945-51.657-92.755-55.188-125.948
			c-2.207-20.767-34.629-26.187-48.746-26.452c-81.819-1.533-95.813,35.926-151.248,74.453
			c-31.055,21.597-88.982,19.45-112.791,43.795c-39.481,40.425-17.703,132.681-35.572,182.792
			c-19.645,55.097-67.92,110.938-109.461,151.239c-47.775,46.354-161.518,149.25-239.918,262.926
			c-71.137,103.143-109.561,215.992-110.904,287.766c-3.761,201.063,103.306,414.631-2.778,438.862
			c-217.673,49.737-409.638,40.528-506.237,65.033c-151.692,38.47-343.453,2.657-370.25,0.248l-23.784,1253.2
			c55.641,28.926,59.764,89.398,68.194,147.346c8.664,59.565,10.553,121.929,7.341,182.031
			c-5.714,106.859-1.548,213.814-2.234,320.736c-0.45,69.063,16.028,135.349-27.618,193.752
			c-19.986,26.742-27.803,53.992-34.935,85.862c-6.315,28.213-11.603,56.731-12.097,85.646
			c-0.333,20.101,5.851,50.654-18.366,60.155l6.154-361.017l-7.059,371.861c70.798,33.766,151.771,75.818,326.802,96.029
			c104.344,12.056,220.416-27.612,345.636-45.965c87.649-12.847,200.302-5.621,266.476-5.349
			c214.886,0.89,459.694-126.892,631.045-244.878c72.316-49.805,226.553-125.959,303.019-176.504
			c132.69-87.682,371.86-192.072,462.403-313.598c84.215-113.041,131.33-176.276,208.949-337
			c13.928-28.853,27.304-77.612,45.856-112.679l0.663,0.369C6548.803,5393.075,6525.609,5330.416,6503.016,5257.771z
			 M4682.15,6543.793c0,0-124.199-16.374-189.627-32.55c-31.779-7.854-194.604-53.339-190.481-99.994
			c4.563-51.638,373.205-51.849,373.205-51.849C4749.376,6405.805,4767.877,6502.034,4682.15,6543.793z" style="stroke:black;fill:#ff9b88"/><path id="180640405" parent_id="180640375" order="34" structure_id="771" d="M4894.221,4002.648
			c-1.584-8.734-3.26-17.375-4.987-25.937c-2.185-8.394-4.233-16.437-5.985-23.992c-12.205-52.635-21.078-112.614-65.561-143.444
			c-33.132-22.963-122.202-34.105-154.941-5.028c-40.867,36.278-56.916,96.968-50.5,190.973
			c4.057,59.524,38.981,124.419,88.975,165.335c22.439,18.363,54.768,36.242,94.759,36.958c4.675-0.196,9.364-0.356,14.071-0.456
			c0.006,0,0.01,0,0.014,0c16.498-0.348,33.361-3.316,48.329-9.563c19.892-8.304,36.425-22.403,44.25-43.905
			C4913.689,4113.227,4903.193,4052.102,4894.221,4002.648z" style="stroke:black;fill:#ff9b88"/><path id="180640406" parent_id="180640375" order="35" structure_id="771" d="M4595.052,3292.292
			c-69.647-32.086-151.337-19.741-213.216,32.246c-60.561,50.869-85.059,126.435-63.918,197.181v0.008
			c22.557,75.49,96.107,111.485,157.395,120.004c59.1,8.201,118.987-5.61,160.179-36.971c45.202-34.387,67.724-94.224,60.26-160.081
			C4687.939,3375.691,4649.338,3317.302,4595.052,3292.292z" style="stroke:black;fill:#ff9b88"/><path id="180640407" parent_id="180640375" order="36" structure_id="771" d="M4306.705,3563.83
			c-27.301-17.229-67.652-25.114-98.684-23.214c-58.348,3.58-147.007,56.586-145.719,131.768
			c1.348,79.671,130.372,93.804,201.023,86.158c11.425-1.241,21.329-3.035,28.932-5.229
			C4388.947,3725.363,4392.18,3617.768,4306.705,3563.83z" style="stroke:black;fill:#ff9b88"/><path id="180640414" parent_id="180640375" order="37" structure_id="82" d="M5605.188,3528.544
			c69.465,39.171,169.074-9.322,198.537-84.108c44.867-114.166-28.819-198.228-115.147-272.062
			c-18.638-15.922-17.694-56.09-16.601-102.598c0.861-37.826,1.871-80.617-7.905-116.667c-5.319-19.646-28.595-34.588-47.192-43.674
			c-39.86-19.491-101.224-31.791-134.891-18.659c-8.098,3.163-21.754,12.187-22.229,37.159
			c-2.449,132.903,30.975,272.259,54.951,402.328c10.529,57.123,22.291,132.116,63.992,177.211
			C5586.807,3516.23,5595.71,3523.199,5605.188,3528.544z" style="stroke:black;fill:#ffae6f"/><path id="180640409" parent_id="180640375" order="38" structure_id="7" d="M5843.012,4836.157
			c1.498-42.06-3.229-84.658-4.783-126.666c-2.467-66.921-7.858-130.733-20.826-196.112
			c-17.987-90.625,29.453-114.084,112.927-138.664c98.851-29.121,112.043,91.77,145.431,151.547
			c39.226,70.211,103.639,123.756,123.197,206.42c9.486,40.188,18.98,74.006,29.551,113.461
			c12.253,45.762,28.822,108.022,19.91,157.101c-16.369,89.76-134.621,185.14-159.814,306.321
			c-6.035,29.06,44.586,71.416,49.469,134.959c4.662,60.601-35.705,141.32-68.562,213.188
			c-36.342,79.465-79.169,161.953-168.296,205.108c-10.871,5.254-24.173,8.537-35.945,11.154c-11.11,2.482-22.537,3.57-33.895,2.271
			c-23.579-2.681-44.688-15.136-64.406-27.416c-6.258-3.896-12.457-7.893-18.633-11.916c-8.142-5.295-15.433-10.076-21.168-18.029
			c-1.854-2.555-6.513-8.951-6.513-8.951c-34.923-91.68-62.155-187.087-51.694-285.838c6.652-62.813,23.386-123.751,42.967-183.652
			c8.891-27.164,20.131-53.648,26.201-81.543c5.584-25.646,20.693-43.914,33.779-66.088c16.882-28.586,23.105-65.955,31.505-97.926
			C5827.282,5004.012,5839.961,4921.964,5843.012,4836.157z" style="stroke:black;fill:#ffae6f"/><path id="180640417" parent_id="180640375" order="39" structure_id="123" d="M5661.995,4077.091
			c-48.851,17.729-236.069,111.324-133.201,145.849c47.595,15.977,80.994,44.32,115.214,69.795
			c44.081,32.813,88.262,58.914,128.92,79.721c75.172,38.443,268.465-55.023,164.865-134.93
			c-40.419-31.179-66.92-72.654-98.109-112.754c-17.289-22.23-36.526-63.596-45.463-85.672l-36.412,7.72
			C5727.475,4043.773,5689.711,4067.043,5661.995,4077.091z" style="stroke:black;fill:#ffae6f"/><path id="180640421" parent_id="180640375" order="40" structure_id="860" d="M5420.779,3590.83l4.359-3.73
			c-7.318-7.119-14.85-14.26-22.609-21.449l-11.311-15.99c-112.568-53.45-205.898-148.38-339.971-152.08
			c-21.59,25.55-42.35,51.95-62.039,79.57c-10.963,15.365-21.08,30.954-30.364,46.558c-7.332,12.321-7.332,12.321-11.958,19.591
			c6.014,1.692,23.01,10.034,36.506,16.746c21.979,10.931,38.992,20.907,50.552,28.156c11.608,7.28,10.522,5.469,18.556,9.299
			c10.799,5.149,19.554,4.719,31.267,7.901c24.338,6.614,52.174,10.658,78.089,13.938c47.469,6.011,95.494,10.535,133.085,38.439
			c21.851,16.225,41.745,35.066,59.082,56.202l24.351-47.688C5379.79,3634.819,5392.475,3607.828,5420.779,3590.83z" style="stroke:black;fill:#ffae6f"/><path id="180640418" parent_id="180640375" order="41" structure_id="868" d="M5663.359,3931.37
			c-20.619-36.72-39.011-76.59-57.59-109.32c-52.41-92.358-105.471-161.979-180.631-234.95c-7.318-7.119-14.85-14.26-22.608-21.449
			l-11.312-15.99c53.932,25.61,112.271,41.7,181.621,33.68l12-2.949c31.84,65.279,65.351,129.84,93.311,199.939
			c15.779,39.55,32.449,68.18,48.58,95.87c14.369,24.67,22.75,51.06,36.01,81.979c6.8,15.879,17.061,31.779,22.41,51.899
			c2.689,10.09,5.721,19.74,9.068,29.021l-15.709,1.511c-13.66,4.715-49.181,9.409-49.181,9.409
			c-2.95-4.181-24.685-28.943-35.633-41.423c-9.401-10.729-27.019-30.313-42.106-42.112L5663.359,3931.37z" style="stroke:black;fill:#ffae6f"/><path id="180640420" parent_id="180640375" order="42" structure_id="875" d="M5663.359,3931.37l-11.771,35.114
			c0,0-25.786-19.413-88.962-27.633c-64.23-6.188-130.502-80.616-171.408-168.351c-6.448-15.739-37.197-56.521-37.197-56.521
			l24.33-47.314c1.334-31.635,14.012-58.771,42.429-75.837l4.358-3.729c75.16,72.97,128.222,142.59,180.631,234.949
			C5624.35,3854.78,5642.74,3894.65,5663.359,3931.37z" style="stroke:black;fill:#ffae6f"/><path id="180640422" parent_id="180640375" order="43" structure_id="883" d="M5391.221,3549.66
			c-112.569-53.45-205.899-148.381-339.971-152.08c32.05-37.971,65.891-74.07,100.63-109.58
			c37.729-38.561,78.92-74.07,116.562-113.4c20.789-21.75,86.608-87.96,124.119-70.84c55.92,25.561,93.09,216.28,107.449,266.92
			c21.32,75.14,52.19,142.8,84.83,209.71l-12,2.95C5503.49,3591.36,5445.15,3575.27,5391.221,3549.66z" style="stroke:black;fill:#ffae6f"/><path id="180640419" parent_id="180640375" order="44" structure_id="891" d="M5726.38,4045.84l2.95,4.18
			c-23.359,6.392-47.83,20-67.33,27.07c-25.37,9.21-88.07,38.881-128.07,70.12l-5.02-3.63
			c-22.018-14.227-49.607-31.859-75.352-49.684c-27.85-19.281-53.976-38.744-80.736-53.232c-4.83-2.75-5.557-3.248-11.027-6.218
			c19.373-13.279,9.897-46.181,0.722-67.962c-15.472-36.726-31.681-62.717-45.978-84.786c-37.976-58.625-41.342-63.758-67.299-94.91
			c-1.861-2.235-33.252-42.141-35.222-44.438c-34.063-39.739-57.526-69.427-80.356-88.77c-10.504-8.899-20.117-13.518-31.314-21.354
			c-7.256-5.078-37.084-23.82-40.799-31.722c6.992,1.113,28.482,6.317,35.469,8.272c16.676,4.667,34.906,6.307,47.613,8.108
			c44.055,6.242,85.348,12.185,106.896,18.739c11.588,3.525,25.277,10.744,43.414,22.153c41.09,30.51,75.271,70.28,98.521,117.15
			c26.181,52.779,60.54,108.979,111.21,141.801c41.359,26.779,91.82,22.67,134,44.199
			C5678.18,3981.11,5695.029,4014.38,5726.38,4045.84z" style="stroke:black;fill:#ffae6f"/><path id="180640423" parent_id="180640375" order="45" structure_id="915" d="M5333.102,4037.964
			c3.623,0.999,13.746,2.677,19.805,0.365c3.87-1.478,6.247-2.257,8.891-3.883c2.271,1.229,4.582,2.515,6.928,3.851
			c50.85,28.954,118.29,81.653,160.188,105.283l5.021,3.63c-30.29,23.649-47.56,48.2-25.729,65.431
			c-30.17-13.09-60.529-23.391-90.479-30.621c-50.84-12.27-94-14.01-131.938-5.299c-28.57,6.549-46.5,24.021-62.32,39.41
			c-11.54,11.24-22.439,21.869-36.49,27.521c-51.62,20.778-129.42-19.051-152.029-31.761
			c-83.811-47.121-100.826-125.479-122.687-209.391c-9.19-35.279-30.472-175.996-31.052-209.674
			c28.919,4.333,73.531,25.043,104.165,38.946c22.66,10.284,73.282,33.106,103.694,51.141c20.785,12.325,54.412,37.513,74.677,53.53
			c19.853,15.693,41.479,32.264,68.696,49.84c25.441,16.43,27.985,20.51,52.862,32.641
			C5301.438,4026.793,5310.161,4031.64,5333.102,4037.964z" style="stroke:black;fill:#ffae6f"/><path id="180640427" parent_id="180640375" order="46" structure_id="122" d="M5422.471,6302.48
			c-162.681-40.451-275.791-122.5-215.84-309.91l2.01-7.062c-0.17,0.104-0.34,0.207-0.51,0.312
			c-4.023,2.473-8.058,4.934-12.098,7.39c-1.791,1.09-3.581,2.181-5.375,3.267c-3.262,1.977-6.525,3.943-9.794,5.908
			c-2.681,1.611-5.358,3.221-8.041,4.824c-2.581,1.543-5.161,3.084-7.744,4.621c-3.506,2.086-7.011,4.166-10.519,6.242
			c-1.883,1.115-3.767,2.229-5.649,3.34c-4.382,2.586-8.76,5.162-13.138,7.729c-1.099,0.644-2.194,1.289-3.291,1.933
			c-5.31,3.109-10.608,6.207-15.901,9.293c-0.272,0.158-0.546,0.317-0.817,0.478c-5.521,3.218-11.029,6.422-16.522,9.612
			c-0.392,0.228-0.783,0.455-1.174,0.683c-1.858,1.08-3.71,2.153-5.565,3.229c-3.85,2.234-7.703,4.474-11.533,6.695
			c-9.308,5.398-18.652,10.824-28.021,16.273c-1.921,1.119-3.845,2.24-5.769,3.36c-2.655,1.548-5.313,3.099-7.974,4.651
			c-2.301,1.344-4.603,2.688-6.905,4.037c-2.422,1.418-4.848,2.84-7.271,4.265c-2.342,1.375-4.686,2.749-7.027,4.129
			c-2.644,1.556-5.287,3.119-7.93,4.683c-2.086,1.231-4.171,2.461-6.257,3.697c-4.545,2.694-9.089,5.399-13.632,8.117
			c-1.575,0.94-3.148,1.891-4.723,2.834c-3.193,1.916-6.387,3.832-9.578,5.76c-1.83,1.104-3.656,2.215-5.485,3.324
			c-2.974,1.804-5.944,3.609-8.915,5.424c-1.848,1.129-3.693,2.262-5.54,3.395c-3.019,1.854-6.033,3.711-9.046,5.576
			c-1.748,1.082-3.496,2.163-5.243,3.25c-3.315,2.063-6.628,4.137-9.937,6.216c-1.412,0.888-2.824,1.769-4.233,2.658
			c-9.502,5.997-18.967,12.063-28.379,18.206c-1.205,0.786-2.403,1.581-3.608,2.37c-3.463,2.271-6.922,4.55-10.369,6.843
			c-1.57,1.045-3.137,2.096-4.703,3.145c-1.76,1.178-3.513,2.363-5.268,3.547c1.782,0.229,3.135,0.406,3.135,0.406
			c199.695,26.76,257.127,221.131,166.216,372.25c0.336-0.057,0.672-0.107,1.007-0.165c0.801-0.136,1.602-0.276,2.4-0.415
			c1.17-0.203,2.338-0.409,3.508-0.621c0.801-0.146,1.602-0.297,2.401-0.445c1.165-0.219,2.329-0.438,3.494-0.666
			c0.806-0.158,1.61-0.318,2.415-0.479c1.164-0.233,2.329-0.472,3.494-0.715c0.803-0.167,1.605-0.338,2.408-0.51
			c1.169-0.25,2.339-0.505,3.51-0.765c0.803-0.18,1.605-0.359,2.41-0.543c1.176-0.268,2.352-0.541,3.529-0.817
			c0.799-0.188,1.601-0.379,2.4-0.571c1.186-0.285,2.37-0.578,3.557-0.873c0.804-0.201,1.605-0.4,2.41-0.605
			c1.192-0.305,2.389-0.615,3.586-0.93c0.799-0.211,1.6-0.42,2.401-0.637c1.21-0.324,2.424-0.657,3.64-0.993
			c0.795-0.222,1.59-0.438,2.389-0.663c1.232-0.348,2.469-0.704,3.707-1.063c0.786-0.229,1.572-0.453,2.361-0.687
			c1.269-0.374,2.543-0.76,3.817-1.146c0.767-0.232,1.528-0.461,2.297-0.697c1.319-0.404,2.646-0.824,3.974-1.243
			c0.733-0.231,1.465-0.46,2.203-0.696c1.398-0.446,2.808-0.91,4.215-1.373c0.674-0.223,1.345-0.438,2.021-0.664
			c1.563-0.52,3.138-1.057,4.713-1.596c0.528-0.182,1.054-0.355,1.583-0.538c1.973-0.681,3.957-1.378,5.952-2.089
			c0.14-0.051,0.278-0.098,0.418-0.146c2.179-0.777,4.37-1.574,6.578-2.389c14.366-5.298,29.315-10.805,44.698-16.545
			c0.139-0.051,0.277-0.104,0.416-0.154c1.296-0.483,2.598-0.971,3.898-1.457c0.666-0.25,1.336-0.5,2.004-0.75
			c1.748-0.654,3.504-1.313,5.263-1.975c1.097-0.412,2.19-0.823,3.29-1.236c0.979-0.369,1.963-0.739,2.945-1.11
			c1.18-0.444,2.361-0.894,3.545-1.34c0.824-0.312,1.645-0.621,2.47-0.935c1.854-0.703,3.715-1.41,5.579-2.121
			c0.744-0.283,1.49-0.566,2.234-0.852c1.529-0.584,3.063-1.169,4.598-1.757c0.568-0.218,1.135-0.435,1.703-0.651
			c2.012-0.771,4.027-1.549,6.05-2.328c0.595-0.229,1.188-0.459,1.782-0.688c1.717-0.663,3.438-1.329,5.16-1.999
			c0.466-0.181,0.932-0.36,1.396-0.543c2.125-0.825,4.254-1.655,6.387-2.491c0.438-0.171,0.878-0.344,1.316-0.518
			c1.933-0.756,3.869-1.519,5.809-2.283c0.322-0.127,0.646-0.254,0.969-0.383c2.235-0.883,4.478-1.771,6.722-2.664
			c0.31-0.123,0.618-0.246,0.929-0.369c2.071-0.826,4.147-1.656,6.228-2.492c0.267-0.106,0.53-0.213,0.798-0.319
			c2.303-0.926,4.609-1.856,6.921-2.793c0.212-0.086,0.425-0.173,0.638-0.26c2.191-0.89,4.388-1.783,6.586-2.685
			c0.205-0.084,0.41-0.168,0.615-0.252c2.379-0.974,4.758-1.953,7.142-2.938c0.089-0.036,0.177-0.071,0.267-0.108
			c2.313-0.959,4.631-1.922,6.949-2.892c0.166-0.069,0.33-0.138,0.496-0.207c4.832-2.021,9.672-4.065,14.516-6.138
			c0.131-0.056,0.264-0.11,0.395-0.166c4.873-2.086,9.75-4.194,14.629-6.33c0.104-0.045,0.207-0.09,0.311-0.136
			c4.895-2.144,9.789-4.313,14.682-6.511c0.097-0.043,0.191-0.086,0.287-0.129c4.903-2.203,9.806-4.435,14.699-6.692
			c0.08-0.036,0.16-0.073,0.24-0.11c4.905-2.265,9.807-4.558,14.694-6.879c0.067-0.031,0.138-0.063,0.205-0.098
			c4.896-2.325,9.78-4.68,14.651-7.063c0.063-0.031,0.129-0.063,0.192-0.096c4.877-2.389,9.74-4.805,14.585-7.251
			c0.053-0.026,0.104-0.054,0.157-0.08c4.853-2.451,9.687-4.935,14.497-7.446c0.047-0.023,0.096-0.049,0.143-0.074
			c4.815-2.516,9.609-5.063,14.377-7.642c0.041-0.021,0.082-0.043,0.123-0.063c4.77-2.582,9.514-5.193,14.228-7.838
			c0.041-0.022,0.082-0.045,0.123-0.068c4.713-2.645,9.396-5.32,14.044-8.031c0.04-0.022,0.08-0.047,0.12-0.069
			c4.651-2.712,9.271-5.457,13.853-8.235c0.028-0.019,0.059-0.037,0.088-0.055c4.588-2.784,9.137-5.604,13.645-8.454
			c0.023-0.017,0.049-0.03,0.073-0.047c4.511-2.854,8.979-5.744,13.401-8.668c0.021-0.015,0.041-0.026,0.063-0.042
			c4.426-2.927,8.807-5.889,13.135-8.887c0.018-0.012,0.034-0.022,0.051-0.035c2.15-1.488,4.287-2.985,6.411-4.492
			c0.021-0.015,0.04-0.027,0.06-0.043c2.135-1.514,4.258-3.037,6.365-4.567c0.021-0.017,0.041-0.03,0.063-0.045
			c2.06-1.498,4.106-3.005,6.142-4.521c0.071-0.053,0.145-0.105,0.215-0.16c2.066-1.539,4.119-3.088,6.158-4.646
			c0.008-0.006,0.018-0.013,0.024-0.021c1.983-1.517,3.954-3.043,5.911-4.578c0.117-0.092,0.234-0.184,0.354-0.274
			c3.931-3.086,7.804-6.209,11.619-9.366c0.151-0.127,0.307-0.253,0.459-0.38c3.771-3.129,7.483-6.294,11.136-9.494
			c0.187-0.163,0.373-0.325,0.56-0.487c3.611-3.176,7.16-6.385,10.646-9.631c0.21-0.195,0.421-0.392,0.63-0.586
			c1.747-1.631,3.479-3.271,5.192-4.92C5542.2,6324.391,5465.221,6313.12,5422.471,6302.48z" style="stroke:black;fill:#ffae6f"/><path id="180640425" parent_id="180640375" order="47" structure_id="105" d="M4878.29,6187.23c0,0-1.353-0.179-3.135-0.406
			c-1.767,1.191-3.538,2.373-5.299,3.57c-0.705,0.479-1.412,0.957-2.116,1.438c-4.396,2.996-8.773,6.014-13.137,9.049
			c-0.646,0.447-1.287,0.896-1.93,1.346c-4.527,3.162-9.043,6.34-13.533,9.547c-0.004,0-8.275,5.465-16.832,11.117
			c-9.171,6.062-18.67,12.34-18.67,12.34c-40.621,25.847-71.553,47.47-84.532,72.287c-4.185,8.002-6.515,16.336-6.685,25.252
			c-0.207,10.881,2.785,22.625,9.496,35.72c0.037,0.073,0.069,0.146,0.107,0.218c0.021,0.04,0.044,0.081,0.064,0.12
			c1.551,3.005,3.297,6.08,5.248,9.233c5.263,8.522,9.408,16.363,12.621,23.676c0.014,0.029,0.024,0.06,0.037,0.09
			c0.443,1.01,0.869,2.01,1.276,3c0.026,0.063,0.05,0.125,0.076,0.188c0.392,0.954,0.769,1.899,1.126,2.836
			c0.035,0.092,0.066,0.183,0.104,0.274c0.345,0.903,0.676,1.803,0.992,2.691c0.041,0.113,0.076,0.227,0.117,0.34
			c0.303,0.861,0.596,1.719,0.871,2.566c0.045,0.137,0.084,0.271,0.129,0.406c0.264,0.822,0.52,1.641,0.758,2.449
			c0.045,0.148,0.084,0.296,0.127,0.443c0.23,0.793,0.455,1.58,0.662,2.358c0.043,0.163,0.082,0.324,0.125,0.485
			c0.197,0.76,0.39,1.517,0.565,2.265c0.042,0.179,0.079,0.354,0.12,0.53c0.168,0.73,0.331,1.459,0.479,2.181
			c0.039,0.183,0.071,0.364,0.107,0.547c0.143,0.709,0.277,1.415,0.4,2.115c0.033,0.19,0.063,0.381,0.096,0.571
			c0.116,0.688,0.229,1.371,0.326,2.051c0.029,0.197,0.055,0.396,0.081,0.592c0.093,0.668,0.181,1.332,0.257,1.992
			c0.023,0.203,0.043,0.404,0.064,0.606c0.069,0.649,0.137,1.297,0.19,1.938c0.019,0.209,0.032,0.418,0.049,0.625
			c0.049,0.633,0.095,1.265,0.129,1.891c0.013,0.213,0.021,0.423,0.03,0.635c0.029,0.618,0.056,1.234,0.071,1.848
			c0.006,0.217,0.009,0.434,0.013,0.648c0.013,0.604,0.021,1.207,0.019,1.807c0,0.221-0.004,0.438-0.006,0.658
			c-0.006,0.594-0.017,1.187-0.033,1.774c-0.007,0.22-0.017,0.438-0.024,0.655c-0.021,0.586-0.047,1.172-0.082,1.754
			c-0.013,0.22-0.026,0.438-0.041,0.656c-0.037,0.578-0.078,1.154-0.127,1.729c-0.02,0.222-0.039,0.442-0.061,0.664
			c-0.053,0.569-0.107,1.14-0.171,1.705c-0.024,0.224-0.051,0.444-0.076,0.666c-0.065,0.565-0.136,1.129-0.212,1.69
			c-0.029,0.222-0.061,0.44-0.092,0.662c-0.08,0.563-0.163,1.125-0.252,1.686c-0.034,0.218-0.068,0.436-0.105,0.652
			c-0.092,0.563-0.188,1.123-0.289,1.685c-0.039,0.215-0.078,0.431-0.119,0.646c-0.104,0.563-0.213,1.127-0.326,1.688
			c-0.043,0.209-0.086,0.418-0.129,0.626c-0.117,0.567-0.237,1.138-0.363,1.705c-0.044,0.202-0.09,0.405-0.137,0.606
			c-0.129,0.576-0.263,1.15-0.399,1.726c-0.046,0.192-0.093,0.388-0.14,0.579c-0.144,0.587-0.289,1.175-0.439,1.764
			c-0.046,0.179-0.092,0.356-0.139,0.535c-0.156,0.604-0.315,1.209-0.479,1.813c-0.044,0.164-0.089,0.327-0.133,0.49
			c-0.171,0.623-0.345,1.246-0.521,1.87c-0.041,0.144-0.082,0.287-0.123,0.431c-0.188,0.654-0.379,1.312-0.572,1.967
			c-0.031,0.107-0.063,0.215-0.096,0.32c-0.207,0.699-0.418,1.398-0.633,2.102c-0.021,0.064-0.039,0.129-0.06,0.193
			c-3.425,11.171-7.679,22.797-11.339,36.126c-0.001,0.003-0.002,0.005-0.002,0.005c-3.05,11.109-5.686,23.396-7.081,37.587
			c5.868,0.677,13.465,1.53,22.378,2.487c0.33,0.035,0.662,0.07,0.995,0.106c0.429,0.045,0.856,0.092,1.291,0.138
			c0.771,0.082,1.547,0.166,2.336,0.248c0.008,0.002,0.017,0.002,0.024,0.004c47.367,5.008,126.803,12.317,185.226,12.09
			c5.001-0.019,9.907-0.064,14.729-0.146c0.131-0.002,0.258-0.005,0.387-0.007c2.211-0.037,4.404-0.081,6.582-0.132
			c0.613-0.015,1.219-0.032,1.83-0.048c1.688-0.043,3.369-0.087,5.037-0.139c0.846-0.026,1.68-0.059,2.52-0.086
			c1.42-0.049,2.838-0.097,4.244-0.15c0.979-0.038,1.947-0.081,2.92-0.123c1.256-0.055,2.513-0.105,3.758-0.166
			c1.045-0.05,2.078-0.104,3.115-0.159c1.168-0.062,2.336-0.12,3.496-0.187c1.074-0.062,2.144-0.127,3.211-0.192
			c1.105-0.067,2.211-0.138,3.311-0.21c1.1-0.073,2.193-0.15,3.288-0.229c1.058-0.076,2.114-0.152,3.166-0.232
			c1.106-0.086,2.211-0.176,3.313-0.266c1.03-0.086,2.061-0.172,3.086-0.263c1.11-0.097,2.217-0.198,3.322-0.302
			c1.006-0.094,2.008-0.189,3.008-0.288c1.111-0.11,2.222-0.224,3.328-0.34c0.992-0.104,1.98-0.211,2.97-0.319
			c1.104-0.123,2.207-0.248,3.308-0.377c0.98-0.113,1.959-0.232,2.938-0.353c1.1-0.136,2.197-0.272,3.293-0.414
			c0.979-0.127,1.959-0.259,2.938-0.392c1.084-0.146,2.168-0.295,3.248-0.449c0.985-0.141,1.97-0.285,2.951-0.432
			c1.07-0.158,2.142-0.318,3.209-0.484c1-0.153,1.996-0.315,2.994-0.478c0.733-0.119,1.467-0.237,2.199-0.36
			C5135.417,6408.361,5077.984,6213.99,4878.29,6187.23z" style="stroke:black;fill:#ffae6f"/><path id="180640426" parent_id="180640375" order="48" structure_id="114" d="M5595.063,6290.296c0.82-0.851,1.64-1.701,2.449-2.558
			c0.412-0.435,0.82-0.871,1.23-1.309c0.734-0.781,1.469-1.563,2.195-2.348c0.453-0.489,0.9-0.98,1.352-1.472
			c0.675-0.735,1.35-1.474,2.02-2.213c0.484-0.537,0.965-1.077,1.446-1.616c0.623-0.695,1.246-1.393,1.862-2.093
			c0.51-0.577,1.014-1.157,1.518-1.737c0.582-0.668,1.164-1.336,1.74-2.006c0.521-0.605,1.037-1.215,1.555-1.824
			c0.551-0.648,1.102-1.299,1.646-1.951c0.529-0.633,1.055-1.268,1.578-1.901c0.521-0.632,1.043-1.265,1.559-1.896
			c0.537-0.658,1.066-1.316,1.598-1.978c0.497-0.618,0.993-1.237,1.484-1.858c0.535-0.674,1.066-1.352,1.597-2.028
			c0.478-0.61,0.953-1.224,1.427-1.837c0.531-0.689,1.059-1.381,1.585-2.074c0.46-0.605,0.919-1.214,1.375-1.823
			c0.526-0.703,1.051-1.409,1.571-2.115c0.443-0.604,0.887-1.208,1.326-1.813c0.52-0.713,1.033-1.428,1.547-2.145
			c0.434-0.605,0.863-1.213,1.291-1.82c0.51-0.722,1.017-1.444,1.519-2.17c0.42-0.605,0.838-1.213,1.253-1.82
			c0.499-0.729,0.995-1.461,1.486-2.193c0.41-0.61,0.816-1.224,1.223-1.836c0.484-0.734,0.971-1.47,1.448-2.207
			c0.401-0.617,0.799-1.236,1.194-1.856c0.473-0.737,0.941-1.476,1.406-2.214c0.395-0.627,0.783-1.257,1.172-1.887
			c0.455-0.736,0.91-1.475,1.357-2.213c0.389-0.64,0.771-1.281,1.153-1.922c0.438-0.734,0.875-1.471,1.308-2.209
			c0.383-0.654,0.762-1.313,1.139-1.97c0.42-0.729,0.839-1.458,1.251-2.188c0.378-0.672,0.75-1.347,1.123-2.02
			c0.399-0.725,0.802-1.447,1.196-2.174c0.375-0.693,0.744-1.391,1.115-2.087c0.377-0.709,0.756-1.418,1.127-2.13
			c0.377-0.725,0.746-1.452,1.117-2.18c0.354-0.69,0.707-1.381,1.055-2.074c0.382-0.764,0.755-1.53,1.13-2.297
			c0.321-0.66,0.646-1.316,0.963-1.979c0.394-0.82,0.776-1.645,1.161-2.468c0.287-0.615,0.578-1.229,0.859-1.845
			c0.408-0.892,0.806-1.787,1.203-2.682c0.248-0.555,0.498-1.105,0.742-1.663c0.435-0.994,0.856-1.994,1.279-2.994
			c0.195-0.461,0.396-0.92,0.587-1.382c0.481-1.157,0.951-2.318,1.417-3.482c0.123-0.31,0.251-0.615,0.374-0.926
			c1.771-4.479,3.422-9.006,4.946-13.584c8.813-26.443,11.316-50.946,9.291-74.936c-4.563-54.036-32.141-105.462-62.612-170.557
			l-31.312-12.904c0.017,0.025-4.799-3.391-6.949-4.911c-29.776-12.921-61.888-19.575-96.23-19.987
			c-65.254-0.781-138.575,20.992-219.292,65.203c-13.592,7.445-27.392,15.518-41.397,24.234c-1.379,0.857-2.771,1.705-4.15,2.563
			c-3.004,1.862-6.006,3.731-9.025,5.574l-2.01,7.061c-59.951,187.41,53.16,269.46,215.84,309.91
			c42.75,10.641,119.729,21.909,160.779-0.381c1.234-1.188,2.459-2.381,3.676-3.578c0.098-0.098,0.193-0.193,0.291-0.289
			c1.104-1.089,2.202-2.182,3.292-3.277c0.245-0.246,0.485-0.494,0.729-0.742c0.938-0.949,1.873-1.898,2.801-2.854
			C5594.382,6291.006,5594.721,6290.65,5595.063,6290.296z" style="stroke:black;fill:#ffae6f"/><path id="180640416" parent_id="180640375" order="49" structure_id="880" d="M4263.327,3758.542
			c11.425-1.241,21.329-3.035,28.931-5.229c96.689-27.948,99.922-135.545,14.447-189.481
			c-27.301-17.229-67.652-25.114-98.684-23.214c-58.348,3.58-147.007,56.586-145.719,131.768
			C4063.65,3752.055,4192.676,3766.188,4263.327,3758.542z" style="stroke:black;fill:#ffba86"/><path id="180640424" parent_id="180640375" order="50" structure_id="1093" d="M4228.043,5052.186
			c-23.568-113.008-71.296-129.186-25.76-257.758c51.005-144.015,78.008-234.023,63.006-336.033
			c-15.002-102.011,18.004-138.013,186.02-165.017c258.025-48.005,474.047-108.013,627.063-54.006s177.018,321.032,165.018,417.042
			c-14.356,137.826-163.367,325.116-123.547,461.934l-0.365-3.897c5.418,62.121,33.16,122.324,75.586,172.063
			c78.922,92.539,210.201,133.846,318.145,97.729l1.496-0.516c104.702,11.715,174.521,139.746,52.719,274.787
			c-102.894,114.078-202.451,216.48-299.918,292.293l-0.002-0.006c-14.974,8.08-30.203,16.938-45.685,26.574
			c-46.487,28.932-94.457,56.771-140.851,83.689c-80.771,46.861-164.283,95.33-241.824,150.709
			c-0.008,0-35.506,23.452-35.506,23.452c-22.612,14.388-42.228,27.467-57.412,40.519l0.002,0.002
			c-56.06,24.549-114.899-3.246-186.227-17.172c-53.561-10.457-110.791,0.467-162.822-12c-46.138-11.057-95.213,6-134.889,12
			c-204.35,30.903-204.021-249.023-210.021-780.078c-2.578-245.016,147.818-235.071,178.662-326.553l0.008,0.005
			c11.271-17.935,16.135-39.7,10.813-66.121C4239.223,5073.27,4234.508,5062.09,4228.043,5052.186L4228.043,5052.186z" style="stroke:black;fill:#ffba86"/><path id="180640413" parent_id="180640375" order="51" structure_id="534" d="M5218.706,4265.3
			c-25.101,49.892-22.468,129.575,42.628,186.647c47.177,41.353,77.797,31.685,124.148,17.043
			c22.826-7.205,48.694-15.381,79.156-17.354c31.357-2.021,63.029-1.813,94.195,2.459c22.457,3.073,44.93,9.359,67.762,4.459
			c24.119-5.166,62.402-17.786,71.666-42.95c9.105-24.72-9.693-43.513-22.953-61.687c-14.566-19.955-32.361-35.533-52.41-50.088
			c-69.241-50.271-151.161-85.65-243.486-105.176C5307.439,4183.432,5247.375,4208.346,5218.706,4265.3z" style="stroke:black;fill:#ffba86"/><path id="180640408" parent_id="180640375" order="52" structure_id="574" d="M3985.195,4998.641
			c76.882-25.566,236.365-13.068,256.556,87.188c15.789,78.396-58.095,115.805-122.915,133.748
			c-25.293,7.003-53.133,14.188-79.544,12.473c-8.289-0.535-56.506-11.59-56.223-11.918L3985.195,4998.641z" style="stroke:black;fill:#ffba86"/><path id="180640412" parent_id="180640375" order="53" structure_id="621" d="M5714.314,4588.879
			c-33.283-74.139-105.686-122.671-252.937-113.242c-190.379,12.201-161.728,177.291-199.952,305.439
			c-24.518,82.223-94.73,141.922-125.939,221.326c-38.601,98.158-8.306,204.526,59.574,284.109
			c114.797,134.604,340.363,160.811,443.766-1.973c10.984-17.287,18.146-34.305,22.947-51.264l31.105-152.882
			c11.98-60.194,28.514-117.892,35.175-181.536C5738.958,4794.677,5752.818,4674.646,5714.314,4588.879" style="stroke:black;fill:#ffba86"/><path id="180640415" parent_id="180640375" order="54" structure_id="162" d="M4381.835,3324.538
			c-60.56,50.869-85.058,126.435-63.918,197.181v0.008c22.558,75.49,96.108,111.485,157.396,120.004
			c59.099,8.201,118.986-5.61,160.178-36.971c45.202-34.387,67.723-94.224,60.26-160.081
			c-7.811-68.985-46.412-127.376-100.698-152.387C4525.404,3260.205,4443.714,3272.55,4381.835,3324.538z" style="stroke:black;fill:#ffc395"/><path id="180640411" parent_id="180640375" order="55" structure_id="238" d="M4006.146,4783.831
			c8.164-91.79,15.039-183.882,29.394-275.042c15.03-95.382,71.174-242.463,182.065-131.184
			c67.045,67.279,44.054,202.888,3.569,279.522c-32.336,61.212-66.317,181.244-125.921,220.28
			C4015.682,4929.521,3999.854,4854.564,4006.146,4783.831z" style="stroke:black;fill:#ffc395"/><path id="180640410" parent_id="180640375" order="56" structure_id="358" d="M4662.744,3804.247
			L4662.744,3804.247c-40.866,36.278-56.916,96.968-50.499,190.973c4.056,59.525,38.981,124.419,88.974,165.335
			c26.84,21.965,67.814,43.254,119.145,35.287c33.061-5.135,62.625-12.75,76.962-34.446c34.54-52.315,0.267-146.797-14.077-208.674
			c-12.205-52.636-21.078-112.615-65.561-143.445C4784.555,3786.313,4695.484,3775.17,4662.744,3804.247z" style="stroke:black;fill:#ffc395"/><path id="180640381" parent_id="180640375" order="57" structure_id="354" d="M6548.389,5462.216
			c14.184-26.817,27.824-39.155,50.617-34.933c91.246,16.895,115.404,30.396,166.015-12.074
			c38.065-31.933,66.707-163.115,74.896-218.054c6.342-42.55-20.244-78.55-39.015-137.371c-6.263-19.612-2.437-36.28-13.776-41.668
			c-24.063-11.437-35.201-15.323-67-33.349c-31.205-17.692-94.183-61.455-149.604-121.854
			c-24.442-26.631-38.599-47.382-56.953-69.39c-10.274-12.316-23.345-23.527-36.698-40.023
			c-11.176-13.809-19.896-31.916-28.238-47.115c-22.778-41.514-37.674-79.875-53.422-91.064
			c-24.951-17.725-45.928,35.847-72.942,42.108c-5.2,1.205-10.299,1.356-15.265,0.698l1.328,7.036
			c14.113,16.297-1.26,18.959,9.72,65.812c43.915,187.418,127.263,347.187,183.56,528.154
			c22.597,72.643,45.787,135.305,43.881,209.93L6548.389,5462.216z" style="stroke:black;fill:#ff9bcd"/><path id="180640382" parent_id="180640375" order="58" structure_id="354" d="M3975.316,6536.271
			c0.493-28.914,5.779-57.434,12.097-85.646c7.132-31.87,14.948-59.12,34.934-85.862c43.647-58.403,27.168-124.688,27.619-193.752
			c0.687-106.922-3.479-213.877,2.233-320.736c3.213-60.104,1.324-122.466-7.34-182.031c-8.432-57.945-12.555-118.42-68.195-147.346
			l-13.561,714.515l-6.154,361.017C3981.167,6586.927,3974.984,6556.372,3975.316,6536.271z" style="stroke:black;fill:#ff9bcd"/><path id="180640383" parent_id="180640375" order="59" structure_id="354" d="M4675.247,6359.4
			c0,0-368.64,0.211-373.205,51.849c-4.124,46.655,158.702,92.14,190.481,99.994c65.429,16.176,189.627,32.55,189.627,32.55
			C4767.877,6502.034,4749.376,6405.805,4675.247,6359.4z" style="stroke:black;fill:#ff9bcd"/><path id="180640386" parent_id="180640375" order="60" structure_id="101" d="M6548.389,5462.216
			c14.184-26.817,27.824-39.155,50.617-34.933c91.246,16.895,115.404,30.396,166.015-12.074
			c38.065-31.933,66.707-163.115,74.896-218.054c6.342-42.55-20.244-78.55-39.015-137.371c-6.263-19.612-2.437-36.28-13.776-41.668
			c-24.063-11.437-35.201-15.323-67-33.349c-31.205-17.692-94.183-61.455-149.604-121.854
			c-24.442-26.631-38.599-47.382-56.953-69.39c-10.274-12.316-23.345-23.527-36.698-40.023
			c-11.176-13.809-19.896-31.916-28.238-47.115c-22.778-41.514-37.674-79.875-53.422-91.064
			c-24.951-17.725-45.928,35.847-72.942,42.108c-5.2,1.205-10.299,1.356-15.265,0.698l1.328,7.036
			c14.113,16.297-1.26,18.959,9.72,65.812c43.915,187.418,127.263,347.187,183.56,528.154
			c22.597,72.643,45.787,135.305,43.881,209.93L6548.389,5462.216z" style="stroke:black;fill:#ffa5d2"/><path id="180640385" parent_id="180640375" order="61" structure_id="642" d="M4682.15,6543.793
			c85.727-41.759,67.226-137.988-6.903-184.393c0,0-368.64,0.211-373.205,51.849c-4.124,46.655,158.702,92.14,190.481,99.994
			C4557.952,6527.419,4682.15,6543.793,4682.15,6543.793z" style="stroke:black;fill:#ffa5d2"/><path id="180640384" parent_id="180640375" order="62" structure_id="206" d="M3956.951,6596.428
			c24.217-9.5,18.033-40.056,18.365-60.154c0.494-28.914,5.78-57.434,12.098-85.646c7.132-31.869,14.947-59.119,34.934-85.862
			c43.647-58.403,27.168-124.688,27.619-193.752c0.688-106.921-3.479-213.877,2.234-320.735
			c3.211-60.104,1.323-122.467-7.341-182.031c-8.501-58.422-12.612-119.418-69.563-148.057L3956.951,6596.428z" style="stroke:black;fill:#ffc6e2"/><path id="180640440" parent_id="180640375" order="63" structure_id="512" d="M4033.85,2435.074
			c0,0,140.791-18.711,236.346,37.561c72.82,42.885,125.557,110.018,115.244,214.719c-12.717,129.1-152.457,284.231-191.918,316.614
			c-39.466,32.388-152.559,79.953-172.085,85.105L4033.85,2435.074z" style="stroke:black;fill:#f0f080"/><path id="180640441" parent_id="180640375" order="64" structure_id="512" d="M8112.539,4791.848
			c154.82-41.801,361.852,55.197,389.558,217.058c40.963,239.385-194.074,563.571-342.69,730.614
			c-132.979,149.491-250.027,235.467-380.422,307.552c-203.133,112.3-366.347-40.631-491.891-179.001
			c-122.305-134.8-27.059-429.438,78.591-632.059C7475.166,5026.036,7829.223,4868.339,8112.539,4791.848z" style="stroke:black;fill:#f0f080"/><path id="180640442" parent_id="180640375" order="65" structure_id="512" d="M6810.986,3395.402
			c21.838,134.764-35.27,224.838-36.955,338.847c-1.151,78.262,38.271,181.211,89.33,263.925
			c53.006,85.873,112.584,81.646,176.683,193.793c74.554,130.444,154.226,353.474,139.481,507.261
			c-19.775,206.376-155.754,395.028-379.973,321.89c-81.18-26.481-148.998-76.699-229.034-158.201
			c-12.595-12.828-38.426-50.25-81.442-94.694c-23.475-24.251-75.332-137.931-93.869-152.897
			c-26.924-21.752-54.406,56.115-88.217,42.854c-52.674-20.658-87.695-72.294-98.291-84.312
			c-88.6-100.562-168.119-253.832-198.242-373.625c-32.074-127.584,24.928-203.569,18.586-248.097
			c-53.606-376.614-91.678-630.967-50.065-1016.794c10.104-93.667,87.843-337.175,190.19-371.857
			c101.109-34.26,211.203,97.135,268.781,165.156C6608.928,2930.612,6766.695,3122.11,6810.986,3395.402z" style="stroke:black;fill:#f0f080"/><path id="180640443" parent_id="180640375" order="66" structure_id="10710" d="M4033.85,2435.074
			c0,0,140.791-18.711,236.346,37.561c72.82,42.885,125.557,110.018,115.244,214.719c-12.717,129.1-152.457,284.231-191.918,316.614
			c-39.466,32.388-152.559,79.953-172.085,85.105L4033.85,2435.074z" style="stroke:black;fill:#fffc91"/><path id="180640445" parent_id="180640375" order="67" structure_id="10722" d="M6332.662,3039.395
			c-18.402-46.465-37.618-92.883-57.336-138.129c-15.775-36.195-76.297-247.463-99.025-339.914c-2.381,0.623-4.76,1.336-7.133,2.141
			c-102.348,34.684-180.086,278.191-190.189,371.857c-41.611,385.828-3.541,640.181,50.066,1016.795
			c0.768,5.389,0.601,11.242-0.219,17.589l3.131-0.878c0,0,272.018-38.773,341.988-101.959
			c-27.326,4.635-54.855,0.227-80.328-20.729c-42.58-35.03-29.907-82.973-51.07-131.188c-20.523-46.75-58.498-84.795-74.988-132.191
			c-17.098-49.144-25.652-106.375-39.568-157.297c-5.229-19.131-10.287-38.368-14.926-57.806
			c-23.764-99.613-34.524-236.491,1.549-334.322c32.053-86.912,79.521-55.607,121.183,7.292
			c57.949,87.487,98.032,182.688,132.147,281.685c19.642,56.963,19.979,120.072,44.295,175.606
			c24.607,56.183,44.123,137.501,89.231,182.944c38.608,38.883,61.819,54.519,48.831,77.176l107.493-4.573
			c19.405,2.651,34.916,4.095,49.97,1.121c-33.937-44.746-107.308-170.523-107.308-170.523
			C6505.771,3402.378,6408.547,3230.985,6332.662,3039.395z" style="stroke:black;fill:#fffc91"/><path id="180640444" parent_id="180640375" order="68" structure_id="10720" d="M6501.469,3680.891
			c-45.107-45.441-64.623-126.761-89.23-182.943c-24.316-55.534-24.654-118.645-44.295-175.607
			c-34.116-98.995-74.199-194.197-132.148-281.684c-41.662-62.899-89.129-94.204-121.182-7.292
			c-36.074,97.832-25.313,234.709-1.55,334.321c4.64,19.438,9.696,38.676,14.927,57.807
			c13.915,50.922,22.473,108.154,39.568,157.297c16.49,47.396,54.465,85.439,74.987,132.191
			c21.164,48.215,8.491,96.155,51.071,131.188c68.996,56.76,153.09-7.799,207.357-45.003
			C6582.7,3745.232,6559.402,3739.236,6501.469,3680.891z" style="stroke:black;fill:#ece754"/><path id="180640450" parent_id="180640375" order="69" structure_id="10674" d="M6810.986,3395.402
			c-44.291-273.292-202.06-464.79-373.037-666.754c-56.228-66.425-162.533-193.284-261.648-167.297
			c22.729,92.451,83.25,303.719,99.025,339.914c19.717,45.246,38.933,91.664,57.336,138.129
			c75.885,191.591,173.107,362.984,267.793,544.696c0,0,73.371,125.779,107.307,170.524c13.16-2.601,25.971-8.574,40.729-20.079
			c12.67-9.877,21.09-21.032,27.519-33.208C6786.168,3602.143,6830.682,3516.947,6810.986,3395.402z" style="stroke:black;fill:#fffc91"/><path id="180640449" parent_id="180640375" order="70" structure_id="10689" d="M8502.097,5008.904
			c-27.706-161.859-234.737-258.857-389.558-217.059c-283.317,76.492-637.373,234.189-746.854,444.165
			c-105.647,202.619-200.896,497.258-78.591,632.058c125.544,138.371,288.758,291.301,491.891,179.002
			c130.395-72.086,247.442-158.062,380.422-307.553C8308.022,5572.477,8543.06,5248.289,8502.097,5008.904z M8338.335,5087.139
			c-9.448,52.611-23.467,109.953-53.115,155.14c-32.199,49.06-69.134,67.14-89.072,125.726
			c-18.165,53.4-51.226,119.598-93.551,158.472c-34.733,31.899-79.823,55.06-108.46,93.2
			c-31.415,41.863-49.09,69.302-95.589,100.245c-109.84,73.069-198.974,173.612-347.34,147.196
			c-161.735-28.805-167.196-219.896-144.985-349.985c1.75-10.245,3.313-20.526,4.832-30.771
			c12.89-86.615,23.107-170.692,120.853-206.75c55.716-20.535,110.121-47.75,166.767-65.301
			c47.336-14.672,82.289-5.018,129.715-5.978c83.89-1.694,174.221-60.756,228.268-122.272
			c42.157-47.978,77.835-87.055,132.844-121.762C8281.896,4906.025,8353.786,5001.083,8338.335,5087.139z" style="stroke:black;fill:#fffc91"/><path id="180640448" parent_id="180640375" order="71" structure_id="10687" d="M8189.498,4964.298
			c-55.009,34.707-90.688,73.784-132.844,121.761c-54.047,61.519-144.378,120.58-228.268,122.273
			c-47.426,0.96-82.379-8.693-129.715,5.977c-56.646,17.553-111.051,44.768-166.767,65.301
			c-97.744,36.059-107.963,120.135-120.853,206.752c-1.521,10.242-3.082,20.523-4.832,30.77
			c-22.211,130.09-16.75,321.182,144.985,349.986c148.366,26.414,237.5-74.127,347.34-147.197
			c46.499-30.943,64.174-58.382,95.589-100.245c28.637-38.142,73.727-61.3,108.46-93.2c42.325-38.874,75.386-105.07,93.551-158.471
			c19.938-58.588,56.873-76.666,89.072-125.727c29.648-45.186,43.667-102.527,53.115-155.139
			C8353.786,5001.083,8281.896,4906.025,8189.498,4964.298z" style="stroke:black;fill:#ece754"/><path id="180640447" parent_id="180640375" order="72" structure_id="10692" d="M7040.044,4191.966
			c-64.099-112.147-123.676-107.919-176.683-193.792c-28.922-46.852-54.105-100.193-70.301-151.865
			c-17.931,7.502-40.119,15.342-57.084,16.646c-33.881,2.605-104.248,10.426-122.49,18.244c-5.765,2.471-15.693,8.584-26.578,15.791
			c6.989-0.726,13.446,0.405,19.097,3.905c36.396,22.562,1.175,95.722,10.067,125.343c8.776,29.237,35.396,42.218,62.729,52.291
			c60.646,22.324,133.262,11.693,187.346,52.73c79.367,60.223,106.164,176.848,78.621,267.449
			c-14.888,48.953-23.933,102.639-16.258,153.646c8.34,55.375,41.332,90.543,45.084,146.496c0.86,12.887,0.438,26.059-1.196,39.203
			c-10.47,83.774-70.554,166.196-164.156,160.353c-69.122-4.313-172.008-84.659-218.287-133.81
			c-64.896-68.908-99.422-160.117-148.539-239.676c-27.918-45.221-90.651-61.021-69.64-127.429
			c2.139-6.756,4.785-13.629,7.838-20.603c-5.857,11.457-10.974,22.877-15.029,34.266c-7.096,19.918-6.723,42.971-7.256,63.818
			c-0.566,22.15-4.027,46.862-2.376,68.57c3.222,42.309,48.327,78.646,68.142,113.609c20.291,35.807,37.043,81.158,65.983,111.063
			c43.019,44.444,68.851,81.866,81.442,94.694c80.037,81.502,147.854,131.72,229.035,158.201
			c224.219,73.14,360.195-115.514,379.973-321.89C7194.27,4545.439,7114.598,4322.411,7040.044,4191.966z" style="stroke:black;fill:#fffc91"/><path id="180640446" parent_id="180640375" order="73" structure_id="10690" d="M6928.509,4552.354
			c-7.674-51.008,1.371-104.691,16.258-153.646c27.544-90.603,0.747-207.228-78.62-267.449
			c-54.085-41.037-126.7-30.405-187.346-52.731c-27.332-10.072-53.951-23.053-62.729-52.291
			c-8.894-29.621,26.329-102.78-10.067-125.342c-47.728-29.572-153.08,109.77-150.09,112.248
			c140.158,116.364-47.211,267.641-84.14,384.35c-21.015,66.408,41.722,82.209,69.64,127.43
			c49.117,79.559,83.643,170.768,148.539,239.676c46.278,49.148,149.164,129.494,218.287,133.809
			c93.603,5.846,153.688-76.576,164.155-160.353c1.636-13.146,2.058-26.315,1.196-39.203
			C6969.842,4642.898,6936.85,4607.729,6928.509,4552.354z" style="stroke:black;fill:#ece754"/><path id="180640452" parent_id="180640375" order="74" structure_id="1009" d="M4658.592,3757.342
			c-30.066-34.565-20.124-133.365,2.552-168.711c32.259-50.296,93.545-67.449,150.159-70.978
			c116.676-7.281,224.242,70.116,318.35,132.847c33.004,22,262.586,294.705,241.849,369c-21.06,75.446-209.784-88.082-254-118.273
			c-45-30.727-83.034-48.408-121-64.727c-44.574-19.157-90-35.988-145.56-53.459
			C4806.71,3769.132,4691.234,3794.865,4658.592,3757.342z" style="stroke:black;fill:#cccccc"/><path id="180640453" parent_id="180640375" order="75" structure_id="1009" d="M4093.576,6310.782
			c86.984-28.99,143.756-36.872,241.281-44.729c62.526-5.039,144.849,7.086,205.832,10.074
			c68.609,3.359,269.457,56.817,123.287,83.058c-69.345,12.45-357.371,0.427-361.935,52.063
			c-4.124,46.655,158.702,92.14,190.481,99.994c72.5,17.929,134.515,25.724,211.564,37.102
			c75.43,11.137,141.148,19.209,232.717,18.859c76.852-0.295,131.546-7.293,202.5-33.463
			c185.258-68.315,467.324-171.351,531.02-362.512c28.653-86.005-9.326-151.497-53.326-245.488
			c-6.818-14.58-130.076-163.929-92.08-192.201c31.018-23.082,194.74,84.375,210.463,95.043
			c59.584,40.459,101.961,65.227,165.836,34.174c89.129-43.326,131.965-126.146,168.31-205.949
			c32.86-72.146,73.231-153.195,68.577-214.03c-4.878-63.794-55.498-106.321-49.454-135.499
			c25.199-121.68,143.456-217.43,159.832-307.557c8.919-49.275-7.647-111.779-19.896-157.721
			c-10.563-39.615-20.058-73.563-29.543-113.922c-20.037-85.188-79.729-113.109-131.336-219.206
			c-46.762-96.131-33.506-195.33-12.799-164.946c24.295,35.653,131.789,229.518,227.414,298.263
			c55.322,39.767,21.086,26.313,35.727,88.786c43.915,187.418,127.264,347.188,183.561,528.155
			c22.596,72.644,45.787,135.304,43.879,209.929l-46.521,112.309c-77.618,160.727-124.733,223.961-208.948,337.001
			c-90.543,121.526-329.714,225.915-462.402,313.599c-76.467,50.545-230.701,126.699-303.02,176.504
			c-171.35,117.986-416.16,245.764-631.046,244.879c-66.172-0.273-178.825-7.498-266.476,5.349
			c-125.219,18.353-241.291,58.019-345.633,45.965c-175.033-20.212-233.802-72.022-304.599-105.791
			C3976.843,6598.87,3955.033,6356.96,4093.576,6310.782z" style="stroke:black;fill:#cccccc"/><path id="180640454" parent_id="180640375" order="76" structure_id="1009" d="M4982.555,2512.23
			c79.439,90.52,239.104,317.041,337.871,336.224c100.565,19.53,162.056-23.86,213.656-73.284
			c22.264-21.33,56.067-29.756,90.742-30.039c41.248-0.339,76.033,10.661,79.815,34.623c16.72,105.9,28.86,145.393,92.994,97.667
			c37.999-28.269,76.67-68.131,121.052-128.163c24.572-33.227,47.26-67.896,69.248-102.857
			c11.995-19.066,22.406-39.168,32.789-58.976c8.641-16.479,23.874-31.154,43.922-28.631c35.73,4.498,29.408,64.263,16.27,85.856
			c-62.291,102.35-86.576,222.354-89.81,236.406c-9.587,41.61-22.701,150.97-30.108,270.648
			c-6.779,109.572-7.51,227.81-22.535,310.129c-34.904,191.341-88.301,223.83-62.754,319.045
			c22.334,83.24,146.432,198.873,128.059,297.082c-7.443,39.817,0.203,108.348,11.383,167.912
			c1.742,9.274-26.57,10.297-33.523,11.793c-44.653,9.568-127.285-113.802-147.188-139.408
			c-32.796-42.194-46.751-105.883-66.281-153.068c-28.635-69.156-58.354-107.328-86.738-181.053
			c-14.434-37.479-138.211-260.896-63.3-246.873c114.741,21.474,169.081-50.682,184.875-91.769
			c45.767-119.05-32.949-198.158-113.69-268.828c-33.719-29.519-2.767-141.94-24.215-223.06
			c-12.363-46.752-132.056-83.396-181.932-63.457c-35.661,14.257-24.532,78.395-21.352,107.769
			c1.155,10.68,3.08,21.394,3.926,32.083c2.182,27.847-52.438-13.67-60.398-18.813c-30.902-19.957-60.227-44.049-88.646-67.316
			c-63.629-52.12-126.233-105.477-185.76-162.249c-24.24-23.126-48.596-46.304-70.971-71.258
			C4982.512,2624.028,4949.363,2474.415,4982.555,2512.23z" style="stroke:black;fill:#cccccc"/><path id="180640455" parent_id="180640375" order="77" structure_id="1009" d="M5661.139,4477.316
			c-40.172-39.612,74.067-64.857,113.121-39.283c28.529,18.686,47.269,89.219,51.928,114.845
			c7.604,41.851,17.578,262.127,16.824,283.278c-3.05,85.808-15.729,167.854-39.6,258.73
			c-14.324,54.529-47.299,189.583-113.789,184.193c-20.844-1.688-22.754-112.799-0.432-196.689
			C5722.996,4955.352,5795.962,4610.279,5661.139,4477.316z" style="stroke:black;fill:#cccccc"/><path id="180640456" parent_id="180640375" order="78" structure_id="1009" d="M4623.268,3909.263
			c86.354,20.91,24.793,62.865-35.443,76.677c-60.895,13.943-143.443,38.783-194.971,65.234
			c-30.539,15.664-80.646-9.717-109.953-44.178C4208.025,3918.896,4587.639,3900.638,4623.268,3909.263z" style="stroke:black;fill:#cccccc"/><path id="180640457" parent_id="180640375" order="79" structure_id="1009" d="M4161.667,4254.4
			c101.571-14.871,101.026-216.721,13.892-157.621C4138.828,4121.695,4072.794,4267.41,4161.667,4254.4z" style="stroke:black;fill:#cccccc"/><path id="180640458" parent_id="180640375" order="80" structure_id="1009" d="M4321.995,4834.686
			c-23.206,56.574-67.763,119.198-74.015,179.517c140.541,68.776,223.86-306.399,208.018-392.958
			c-5.068-27.704-33.453-133.532-76.631-117.781C4316.188,4526.686,4345.512,4777.359,4321.995,4834.686z" style="stroke:black;fill:#cccccc"/><path id="180640459" parent_id="180640375" order="81" structure_id="1009" d="M6106.102,4433.914
			c-43.065-77.939-155.41-291.393-86.09-390.854c39.787-57.091,147.974-41.4,210.992-49.858
			c83.465-11.194,245.026-17.085,271.719,83.772c31.082,117.506-100.041,227.238-138.14,334.183
			c-17.043,47.839,4.862,206.715-26.671,235.521C6277.199,4702.13,6125.979,4469.896,6106.102,4433.914z" style="stroke:black;fill:#cccccc"/><path id="180640451" parent_id="180640375" order="82" structure_id="140" d="M4039.479,2138.426
			c0,0,135.526,50.163,231.457,149.272c95.929,99.105,161.787,247.337,159.824,350.819c-1.475,77.61-43.908,196.828-113.674,287.717
			c-116.276,151.473-297.563,263.56-297.563,263.56l1.911-100.72c19.526-5.153,132.62-52.719,172.085-85.105
			c39.461-32.383,179.202-187.515,191.918-316.614c10.313-104.701-42.424-171.834-115.244-214.718
			c-95.555-56.272-236.345-37.562-236.345-37.562L4039.479,2138.426z" style="stroke:black;fill:#aaaaaa"/></g>
</g>
</svg>