<?xml version="1.0" encoding="utf-8"?>
<!-- Generator: Adobe Illustrator 16.0.0, SVG Export Plug-In . SVG Version: 6.00 Build 0)  -->
<!DOCTYPE svg PUBLIC "-//W3C//DTD SVG 1.1//EN" "http://www.w3.org/Graphics/SVG/1.1/DTD/svg11.dtd">
<svg version="1.1" id="Layer_1" xmlns="http://www.w3.org/2000/svg" xmlns:xlink="http://www.w3.org/1999/xlink" x="0px" y="0px"
	 width="9744.01px" height="6823.46px" viewBox="0 0 9744.01 6823.46" enable-background="new 0 0 9744.01 6823.46"
	 xml:space="preserve">
<g transform="scale(1.0)">
	<g id="_x31_80623552" transform=" scale(1.0, 1.0)">
		<path id="_x31_80623554" fill="none" stroke="#010101" stroke-width="64" d="M4931.372,5523.299
			c58.11,18.305,126.506,21.328,185.359,36.541c84.066,21.699,186.144,45.016,254,99.533
			c147.759,118.709,279.988,252.188,407.95,356.559c165.505,134.996,344.811,273.621,583.985,296.754
			c183.729,17.754,347.125-61.916,485.417-154.037c98.853-65.84,229.603-150.465,327.7-259.518
			c119.515-132.879,204.236-294.439,295.704-407.156c130.016-160.213,287.916-240.354,427.024-403.559
			c144.461-169.48,244.389-335.574,342.171-538.752c150.277-312.244,238.779-628.549,319.709-1177.815
			c82.829-562.11-12.485-1089.872-405.609-1472.818c-288.902-281.428-697.127-478.764-788.65-535.279
			c-358.225-221.218-700.53-366.907-1108.548-462.394c-470.272-110.053-1214.441-249.066-1375.926,283.43l15.308,1336.141
			L4931.372,5523.299z"/>
		<path id="_x31_80623555" fill="none" stroke="#010101" stroke-width="64" d="M7134.659,5388.748
			c127.88,77.5,296.596,156.225,296.596,156.225c13.343-18.559,26.771-36.252,40.286-52.926
			c130.005-160.236,287.888-240.396,427.024-403.572c144.438-169.533,244.387-335.605,342.171-538.756
			c150.226-312.277,238.759-628.584,319.703-1177.87c82.842-562.045-12.485-1089.822-405.658-1472.822
			c-288.868-281.387-697.106-478.765-788.625-535.255c-358.224-221.184-700.517-366.866-1108.57-462.371
			c-470.239-110.067-1214.417-249.062-1375.899,283.456l15.311,1336.141l-0.002-0.078c114.126,0.243,232.953-18.598,352.227-64.324
			c247.827-95.029,253.276-187.853,386.099-366.594c121.784-163.984,430.19-67.488,590.651-2.101
			c248.562,101.404,530.077,190.529,735.512,374.454c146.14,130.888,192.276,158.932,317.721,341.011
			c58.99,85.741,171.458,252.025,193.194,338.223c51.965,206.334,72.056,565.166,51.682,769.799
			c-10.254,103.1-19.149,284.873-29.215,312.115c0,0-35.186,233.664-144.522,386.963
			c-112.833,158.369-189.141,226.992-233.918,291.139c-64.595,92.453-101.76,153.203-112.56,307.961
			C7000.807,5252.756,6994.802,5304.004,7134.659,5388.748z"/>
		<path id="_x31_80623630" fill="none" stroke="#010101" stroke-width="64" d="M6154.667,1000.301
			c-101.45-31.135-236.754-68.771-378.538-90.445l-0.569-96.13l0.139-1.024v-0.078c169.925,19.048,338.603,55.25,481.886,88.777
			c189.295,44.279,364.479,99.423,533.606,167.846l0.002,0.079l-55.333,154.204
			C6541.976,1148.885,6353.317,1061.207,6154.667,1000.301z"/>
		<path id="_x31_80623629" fill="none" stroke="#010101" stroke-width="64" d="M6623.727,1535.806
			c-204.575-115.154-418.231-230.508-630.871-309.401c-72.705-27.007-144.185-59.297-215.351-84.125l-1.374-232.427
			c141.782,21.675,277.086,59.313,378.536,90.446c198.65,60.906,387.308,148.585,581.192,223.228L6623.727,1535.806z"/>
		<path id="_x31_80623628" fill="none" stroke="#010101" stroke-width="64" d="M6523.338,1815.472
			c-201.429-85.083-402.876-165.451-600.624-266.929c-41.06-21.035-90.671-41.724-143.121-59.078l-2.087-347.184
			c71.165,24.827,142.645,57.117,215.352,84.126c212.638,78.893,426.297,194.248,630.869,309.4L6523.338,1815.472z"/>
		<path id="_x31_80623627" fill="none" stroke="#010101" stroke-width="64" d="M6313.979,2036.192
			c-132.787-56.059-363.641-112.324-500.32-144.676c-10.63-2.542-21.25-3.824-31.7-3.931l-2.364-398.12
			c52.451,17.355,102.061,38.045,143.12,59.078c197.751,101.479,399.195,181.847,600.623,266.929l-96.282,268.14
			C6389.464,2067.804,6351.724,2052.156,6313.979,2036.192z"/>
		<path id="_x31_80623626" fill="none" stroke="#010101" stroke-width="64" d="M6225.972,2087.9
			c-112.906-46.007-298.918-107.385-441.759-82.668l-1.627-9.806l-0.628-107.842c10.45,0.107,21.067,1.392,31.698,3.932
			c136.68,32.352,367.533,88.617,500.32,144.675c37.747,15.964,75.484,31.612,113.075,47.421l-26.346,73.351
			C6341.601,2133.717,6282.958,2111.173,6225.972,2087.9z"/>
		<path id="_x31_80623635" fill="none" stroke="#010101" stroke-width="64" d="M5061.772,1165.732
			c-18.624,46.845-32.68,95.597-43.087,145.563l-134.883-133.148c114.946-364.113,506.55-408.877,891.896-365.525l0.002,0.079
			l-0.139,1.023l0.569,96.13C5487.558,865.779,5172.333,887.903,5061.772,1165.732z"/>
		<path id="_x31_80623634" fill="none" stroke="#010101" stroke-width="64" d="M5777.506,1142.281
			c-128.264-44.876-255.726-65.549-388.788,12.971c-143.969,84.944-174.38,206.689-177.474,346.178l-192.558-190.135
			c10.407-49.966,24.465-98.718,43.09-145.563c110.555-277.827,425.784-299.953,714.354-255.877L5777.506,1142.281z"/>
		<path id="_x31_80623633" fill="none" stroke="#010101" stroke-width="64" d="M5779.594,1489.465
			c-88.636-29.484-185.422-49.909-263.098-48.005c-103.035,2.53-133.159,109.649-138.123,225.028l-167.127-164.979l-0.001-0.078
			c3.097-139.488,33.506-261.234,177.475-346.178c133.061-78.521,260.52-57.848,388.789-12.971L5779.594,1489.465z"/>
		<path id="_x31_80623632" fill="none" stroke="#010101" stroke-width="64" d="M5781.958,1887.583
			c-45.219-0.621-88.6,19.958-125.319,53.82l-278.268-274.838l0.001-0.079c4.962-115.379,35.086-222.498,138.124-225.028
			c77.674-1.9,174.462,18.521,263.097,48.005L5781.958,1887.583z"/>
		<path id="_x31_80623631" fill="none" stroke="#010101" stroke-width="64" d="M5656.639,1941.404
			c36.72-33.862,80.101-54.441,125.319-53.82l0.628,107.842l1.627,9.806c-19.801,3.391-38.75,8.497-56.468,15.396l-1.102-10.125
			L5656.639,1941.404z"/>
		<path id="_x31_80623607" fill="none" stroke="#010101" stroke-width="64" d="M8572.378,2761.468l-109.228,17.541
			c-17.308-175.63-65.405-341.608-160.13-512.747c-27.607-49.888-58.599-97.929-92.745-143.651l89.229-57.383l0.676-0.48
			C8453.464,2270.303,8539.546,2506.872,8572.378,2761.468z"/>
		<path id="_x31_80623606" fill="none" stroke="#010101" stroke-width="64" d="M8012.792,2249.484l197.483-126.874
			c34.146,45.722,65.142,93.763,92.745,143.651c94.725,171.14,142.822,337.117,160.132,512.747l-270.228,43.268
			C8171.891,2619.022,8118.427,2420.881,8012.792,2249.484z"/>
		<path id="_x31_80623605" fill="none" stroke="#010101" stroke-width="64" d="M7865.15,2344.377l147.642-94.895
			c105.635,171.398,159.099,369.537,180.133,572.794l-134.021,21.541c-13.276-81.353-33.809-161.516-64.015-240.143
			C7960.78,2514.954,7919.901,2423.566,7865.15,2344.377z"/>
		<path id="_x31_80623604" fill="none" stroke="#010101" stroke-width="64" d="M7761.394,2700.335
			c-30.69-74.456-74.354-144.35-126.048-208.249l229.805-147.709c54.751,79.19,95.63,170.578,129.739,259.299
			c30.206,78.627,50.738,158.791,64.015,240.143l-244.451,39.175C7802.761,2821.116,7786.009,2760.087,7761.394,2700.335z"/>
		<path id="_x31_80623603" fill="none" stroke="#010101" stroke-width="64" d="M7474.981,2937.413
			c-18.638-33.886-38.71-67.519-60.15-101.292c-29.924-47.11-63.62-93.308-99.878-138.061l320.316-205.972l0.076-0.002
			c51.696,63.901,95.357,133.793,126.048,208.25c24.614,59.754,41.367,120.783,53.056,182.659l-339.392,54.418H7474.981z"/>
		<path id="_x31_80623602" fill="none" stroke="#010101" stroke-width="64" d="M7314.955,2698.062
			c36.258,44.754,69.954,90.951,99.878,138.061c21.438,33.774,41.515,67.404,60.15,101.291l-97.055,15.583
			c-35.028-56.481-72.23-111.124-98.722-149.631c-14.321-20.732-27.562-39.513-40.027-56.574l0.377-0.319L7314.955,2698.062z"/>
		<path id="_x31_80623625" fill="none" stroke="#010101" stroke-width="64" d="M7278.922,1456.739
			c-4.575-2.616-9.223-5.073-13.868-7.61c-167.714-90.608-341.477-153.866-517.937-221.259c-3.727-1.446-7.53-2.894-11.258-4.341
			l55.333-154.204c184.113,74.451,361.138,164.711,541.485,274.029L7278.922,1456.739z"/>
		<path id="_x31_80623624" fill="none" stroke="#010101" stroke-width="64" d="M7170.595,1684.78
			c-80.953-39.719-162.974-80.134-239.903-118.882c-45.241-22.788-238.328-93.984-255.869-78.045
			c-25.854,23.507-24.309,39.445-4.276,62.94l-4.591,8.782c-14.026-7.847-28.127-15.844-42.227-23.769l112.133-312.277
			c3.729,1.448,7.53,2.895,11.257,4.339c176.459,67.393,350.222,130.65,517.938,221.26c4.646,2.537,9.295,4.995,13.867,7.612
			L7170.595,1684.78z"/>
		<path id="_x31_80623623" fill="none" stroke="#010101" stroke-width="64" d="M7114.841,1802.201
			c-109.488-58.233-227.392-117.309-314.588-166.542c-44.205-24.921-89.027-50.388-134.301-76.084l4.591-8.781
			c-20.032-23.496-21.578-39.434,4.278-62.941c17.538-15.938,210.626,55.258,255.868,78.045
			c76.929,38.749,158.95,79.163,239.902,118.883L7114.841,1802.201z"/>
		<path id="_x31_80623622" fill="none" stroke="#010101" stroke-width="64" d="M7003.115,2037.594
			c-84.256-43.61-169.767-84.61-255.79-124.111c-74.532-34.218-149.264-66.468-223.987-98.013l100.391-279.667
			c14.1,7.925,28.2,15.923,42.227,23.768c45.272,25.697,90.093,51.164,134.3,76.088c87.2,49.233,205.102,108.305,314.588,166.54
			L7003.115,2037.594z"/>
		<path id="_x31_80623621" fill="none" stroke="#010101" stroke-width="64" d="M6747.325,1913.483
			c86.021,39.502,171.534,80.502,255.79,124.111l-126.003,265.284c-142.088-88.096-295.133-154.28-450.061-219.266l96.283-268.139
			C6598.062,1847.016,6672.794,1879.267,6747.325,1913.483z"/>
		<path id="_x31_80623620" fill="none" stroke="#010101" stroke-width="64" d="M6844.133,2371.909
			c-135.529-90.693-290.828-154.963-443.425-214.944l26.347-73.351c154.928,64.984,307.972,131.168,450.062,219.265l-31.869,67.21
			L6844.133,2371.909z"/>
		<path id="_x31_80623613" fill="none" stroke="#010101" stroke-width="64" d="M8210.275,2122.611
			c-104.599-140.519-237.957-259.613-387.947-343.289c-6.633-3.692-13.339-7.461-19.971-11.309l76.159-94.561l0.223-0.318
			c94.899,66.985,190.729,142.758,276.04,225.894c53.993,52.63,102.332,107.924,145.405,165.719l-0.68,0.482L8210.275,2122.611z"/>
		<path id="_x31_80623612" fill="none" stroke="#010101" stroke-width="64" d="M7923.54,2126.307
			c-70.091-82.695-157.204-144.586-250.873-197.119l129.688-161.173c6.634,3.848,13.34,7.618,19.969,11.308
			c149.992,83.675,283.351,202.771,387.951,343.289l-197.483,126.873C7986.404,2206.654,7956.776,2165.436,7923.54,2126.307z"/>
		<path id="_x31_80623611" fill="none" stroke="#010101" stroke-width="64" d="M7801.316,2265.456
			c-79.403-83.13-158.17-143.395-240.35-197.485l111.7-138.785c93.669,52.532,180.784,114.424,250.873,197.119
			c33.236,39.129,62.864,80.346,89.252,123.177l-147.642,94.895C7845.746,2316.319,7824.542,2289.774,7801.316,2265.456z"/>
		<path id="_x31_80623610" fill="none" stroke="#010101" stroke-width="64" d="M7635.271,2492.087
			c-68.981-85.225-152.377-159.817-238.416-220.306l164.111-203.811c82.18,54.09,160.946,114.354,240.35,197.485
			c23.226,24.317,44.43,50.861,63.834,78.921l-229.805,147.709L7635.271,2492.087z"/>
		<path id="_x31_80623609" fill="none" stroke="#010101" stroke-width="64" d="M7635.271,2492.087l-320.316,205.973
			c-43.17-53.391-89.953-104.775-137.987-152.998l219.888-273.279C7482.893,2332.271,7566.29,2406.862,7635.271,2492.087z"/>
		<path id="_x31_80623608" fill="none" stroke="#010101" stroke-width="64" d="M7176.968,2545.062
			c48.032,48.222,94.814,99.605,137.987,152.997l-75.402,48.41l-0.374,0.32c-43.776-59.989-78.163-100.125-114.626-136.624
			L7176.968,2545.062z"/>
		<path id="_x31_80623619" fill="none" stroke="#010101" stroke-width="64" d="M7802.355,1768.015
			c-174.47-98.78-346.031-214.338-523.434-311.273l53.754-113.387l0.076-0.001c11.133,6.702,22.268,13.56,33.402,20.419
			c64.449,39.768,286.147,149.518,512.585,309.364l-0.225,0.317L7802.355,1768.015z"/>
		<path id="_x31_80623618" fill="none" stroke="#010101" stroke-width="64" d="M7672.667,1929.189
			c-112.573-63.307-234.764-112.972-348.468-168.953c-49.729-24.462-101.44-49.843-153.607-75.455l108.33-228.04
			c177.4,96.935,348.962,212.493,523.434,311.273L7672.667,1929.189z"/>
		<path id="_x31_80623617" fill="none" stroke="#010101" stroke-width="64" d="M7324.199,1760.234
			c113.704,55.98,235.891,105.648,348.468,168.952l-111.7,138.785c-83.475-55.096-170.591-103.701-265.401-163.295
			c-51.411-32.302-114.512-67.211-180.723-102.475l55.751-117.421C7222.764,1710.392,7274.474,1735.774,7324.199,1760.234z"/>
		<path id="_x31_80623616" fill="none" stroke="#010101" stroke-width="64" d="M7384.869,2263.441
			c-122.354-84.014-250.498-157.975-381.754-225.847l111.728-235.392c66.211,35.264,129.312,70.172,180.723,102.475
			c94.812,59.594,181.927,108.2,265.401,163.294l-164.111,203.813C7392.885,2268.924,7388.839,2266.222,7384.869,2263.441z"/>
		<path id="_x31_80623615" fill="none" stroke="#010101" stroke-width="64" d="M7176.968,2545.062
			c-30.643-30.75-61.801-60.237-92.868-88.231c-65.344-58.778-134.758-109.254-206.987-153.955l126.003-265.283
			c131.255,67.87,259.4,141.831,381.754,225.847c3.97,2.781,8.012,5.483,11.986,8.341L7176.968,2545.062z"/>
		<path id="_x31_80623614" fill="none" stroke="#010101" stroke-width="64" d="M7124.555,2610.169
			c-44.436-44.731-91.911-84.077-163.069-147.814c-36.878-33.033-76.224-62.969-117.354-90.445l1.114-1.822l31.867-67.209
			c72.227,44.701,141.64,95.176,206.987,153.954c31.065,27.994,62.224,57.481,92.868,88.231L7124.555,2610.169z"/>
		<path id="_x31_80623601" fill="none" stroke="#010101" stroke-width="64" d="M8572.378,2761.468
			c24.437,189.774,19.305,389.498-9.552,594l-2.429-0.366l-124.46,2.953c12.375-76.481,21.336-153.863,27.403-232.231
			c9.509-121.803,10.772-236.193-0.188-346.816L8572.378,2761.468z"/>
		<path id="_x31_80623600" fill="none" stroke="#010101" stroke-width="64" d="M8200.584,3180.241
			c5.99-118.22,4.76-238.948-7.659-357.965l270.228-43.267c10.961,110.624,9.697,225.012,0.188,346.816
			c-6.067,78.367-15.028,155.75-27.403,232.23l-247.336,5.803C8194.921,3287.532,8198.547,3220.749,8200.584,3180.241z"/>
		<path id="_x31_80623599" fill="none" stroke="#010101" stroke-width="64" d="M8188.602,3363.857l-107.048,2.579
			c-3.508-48.458-6.111-97.161-4.182-146.787c4.981-127.014,1.648-252.744-18.468-375.832l134.021-21.542
			c12.419,119.017,13.649,239.741,7.659,357.964C8198.547,3220.749,8194.921,3287.532,8188.602,3363.857z"/>
		<path id="_x31_80623598" fill="none" stroke="#010101" stroke-width="64" d="M7852.236,3365.179
			c-11.091-161.56-8.033-324.55-37.783-482.185l244.451-39.176c20.116,123.087,23.449,248.816,18.468,375.832
			c-1.932,49.625,0.672,98.329,4.182,146.787l-228.863,5.418C7852.515,3369.656,7852.413,3367.377,7852.236,3365.179z"/>
		<path id="_x31_80623597" fill="none" stroke="#010101" stroke-width="64" d="M7604.884,3237.191
			c-34.773-106.948-77.084-204.214-129.826-299.778l339.392-54.419c29.75,157.635,26.696,320.625,37.785,482.186
			c0.177,2.2,0.278,4.476,0.456,6.674l-209.935,4.947C7633.033,3321.349,7613.052,3262.401,7604.884,3237.191z"/>
		<path id="_x31_80623596" fill="none" stroke="#010101" stroke-width="64" d="M7515.645,3379.787l-3.025,0.351
			c-9.873-88.547-23.322-171.628-40.217-238.549c-11.979-47.487-51.499-119.321-94.474-188.593l97.055-15.583h0.074
			c52.742,95.564,95.055,192.83,129.826,299.778c8.168,25.21,28.151,84.157,37.874,139.612L7515.645,3379.787z"/>
		<path id="_x31_80623589" fill="none" stroke="#010101" stroke-width="64" d="M8501.604,3722.457
			c-19.801,102.51-40.617,195.764-63.1,282.51l-184.186-47.566c25.347-54.945,48.568-110.178,68.036-162.455
			c11.68-31.352,22.531-62.773,32.616-94.418l141.471,20.895L8501.604,3722.457z"/>
		<path id="_x31_80623588" fill="none" stroke="#010101" stroke-width="64" d="M8148.948,3670.211l206.024,30.316
			c-10.086,31.646-20.935,63.066-32.616,94.418c-19.47,52.281-42.689,107.51-68.036,162.455l-259.756-67.148
			c5.032-10.203,9.987-20.482,14.793-30.842l20.462,1.4c55.596,27.457,93.395-64.197,119.056-190.6H8148.948z"/>
		<path id="_x31_80623587" fill="none" stroke="#010101" stroke-width="64" d="M8079.161,3659.908l69.712,10.303
			c-25.661,126.4-63.46,218.057-119.056,190.6l-20.462-1.4C8039.066,3795.611,8064.806,3728.867,8079.161,3659.908z"/>
		<path id="_x31_80623586" fill="none" stroke="#010101" stroke-width="64" d="M7855.842,3626.977l223.319,32.932
			c-14.355,68.959-40.095,135.701-69.806,199.502c-4.806,10.357-9.761,20.639-14.793,30.842l-172.487-44.564
			C7841.242,3773.918,7851.462,3700.764,7855.842,3626.977z"/>
		<path id="_x31_80623585" fill="none" stroke="#010101" stroke-width="64" d="M7855.842,3626.977
			c-4.38,73.787-14.596,146.941-33.767,218.711l-122.662-31.66c-1.3-27.418-4.754-57.875-11.046-91.443
			c-9.512-50.424-25.432-91.574-48.106-127.379L7855.842,3626.977z"/>
		<path id="_x31_80623595" fill="none" stroke="#010101" stroke-width="64" d="M8435.938,3358.056l124.46-2.95l2.429,0.364
			c-0.77,5.432-1.618,10.946-2.387,16.379c-18.972,128.678-38.319,244.627-58.836,350.608l-5.162-1.035l-141.471-20.895
			C8390.945,3588.225,8417.352,3474.154,8435.938,3358.056z"/>
		<path id="_x31_80623594" fill="none" stroke="#010101" stroke-width="64" d="M8354.971,3700.527l-206.022-30.316
			c19.138-94.408,31.614-208.309,39.653-306.353l247.336-5.803C8417.352,3474.154,8390.945,3588.225,8354.971,3700.527z"/>
		<path id="_x31_80623593" fill="none" stroke="#010101" stroke-width="64" d="M8081.554,3366.439l107.048-2.581
			c-8.039,98.044-20.516,211.944-39.653,306.353h-0.075l-69.712-10.301c7.754-36.963,12.247-74.514,12.342-112.561
			C8091.639,3486.503,8085.956,3426.674,8081.554,3366.439z"/>
		<path id="_x31_80623592" fill="none" stroke="#010101" stroke-width="64" d="M8079.161,3659.908l-223.316-32.93
			c5.089-84.568,2.518-170.062-3.154-255.123l228.863-5.417c4.402,60.235,10.085,120.064,9.949,180.909
			C8091.408,3585.395,8086.915,3622.947,8079.161,3659.908z"/>
		<path id="_x31_80623591" fill="none" stroke="#010101" stroke-width="64" d="M7640.261,3595.205
			c-27.841-44.146-65.895-80.31-114.616-115.947c-0.672,14.082-0.816,27.836-0.735,41.516c-1.663-26.078-3.702-52.148-5.966-77.984
			c24.174,34.683,83.061,78.291,114.698,43.705c18.32-20.191,17.292-63.729,9.116-109.693l209.935-4.948
			c5.67,85.062,8.239,170.557,3.151,255.123L7640.261,3595.205z"/>
		<path id="_x31_80623590" fill="none" stroke="#010101" stroke-width="64" d="M7633.638,3486.494
			c-31.636,34.586-90.522-9.022-114.696-43.707c-1.909-21.121-4.043-42.082-6.322-62.649l3.027-0.351l127.111-2.984
			C7650.934,3422.768,7651.96,3466.303,7633.638,3486.494z"/>
		<path id="_x31_80623640" fill="none" stroke="#010101" stroke-width="64" d="M4992.327,1727.062l-104.951-45.713l-5.688-496.494
			c0.653-2.286,1.384-4.497,2.118-6.707l134.881,133.146C4990.687,1444.958,4988.304,1587.663,4992.327,1727.062z"/>
		<path id="_x31_80623639" fill="none" stroke="#010101" stroke-width="64" d="M5219.964,1826.208l-227.637-99.147
			c-4.021-139.4-1.641-282.102,26.36-415.766l192.558,190.135l0.001,0.078c-1.402,62.826,2.767,129.197,4.53,197.407
			C5216.868,1741.036,5218.412,1783.543,5219.964,1826.208z"/>
		<path id="_x31_80623638" fill="none" stroke="#010101" stroke-width="64" d="M5389.605,1900.05l-169.642-73.842
			c-1.55-42.664-3.095-85.172-4.185-127.291c-1.767-68.211-5.935-134.582-4.532-197.406l167.129,164.979l-0.001,0.078
			C5374.672,1753.474,5385.264,1845.077,5389.605,1900.05z"/>
		<path id="_x31_80623637" fill="none" stroke="#010101" stroke-width="64" d="M5389.605,1900.05
			c-4.342-54.971-14.934-146.576-11.234-233.484l278.268,274.838c-17.012,15.617-32.625,34.126-46.323,54.732L5389.605,1900.05z"/>
		<path id="_x31_80623636" fill="none" stroke="#010101" stroke-width="64" d="M5610.316,1996.136
			c13.698-20.607,29.313-39.115,46.324-54.733l70.006,69.098l1.103,10.126c-11.837,4.706-23.207,10.191-33.888,16.612l-3.556-6.246
			L5610.316,1996.136z"/>
		<path id="_x31_80623645" fill="none" stroke="#010101" stroke-width="64" d="M4887.376,1681.349l104.951,45.713
			c2.248,77.088,6.526,153.283,9.558,226.353c4.72,114.316,7.545,228.735,11.809,342.975c2.839,76.059,8.701,164.655,92.454,190.822
			l2.326,11.371c-71.612,15.66-142.412,22.508-211.48,22.338L4887.376,1681.349z M5037.699,2461.8
			c-19.526-45.273-134.294,4.169-110.05,44.828c11.738,19.664,40.085,8.701,65.04-7.563
			C5009.228,2488.246,5045.246,2479.393,5037.699,2461.8z"/>
		<path id="_x31_80623644" fill="none" stroke="#010101" stroke-width="64" d="M5106.147,2487.209
			c-83.754-26.166-89.615-114.763-92.454-190.822c-4.264-114.24-7.087-228.659-11.809-342.976
			c-3.032-73.068-7.31-149.264-9.558-226.353l227.637,99.147c7.924,215.68,16.217,437.174-28.179,646.817l0.945,3.211
			c-28.144,8.917-56.308,16.336-84.257,22.343L5106.147,2487.209z"/>
		<path id="_x31_80623643" fill="none" stroke="#010101" stroke-width="64" d="M5249.222,2456.596
			c-18.848,7.228-37.705,13.75-56.491,19.641l-0.945-3.21c44.396-209.643,36.104-431.138,28.179-646.818l169.642,73.842
			c0.255,2.435,0.434,4.79,0.61,7.067c13.88,186.837,3.663,379.157-106.319,535.53
			C5272.897,2447.342,5261.362,2451.965,5249.222,2456.596z"/>
		<path id="_x31_80623642" fill="none" stroke="#010101" stroke-width="64" d="M5389.605,1900.05l220.711,96.087
			c-7.074,10.542-13.611,21.628-19.536,33.178c-45.784,88.526-113.303,190.371-128.128,291.014l3.62,5.458
			c-41.388,42.724-94.953,79.937-182.376,116.86c109.982-156.371,120.199-348.693,106.319-535.53
			C5390.039,1904.84,5389.86,1902.483,5389.605,1900.05z"/>
		<path id="_x31_80623641" fill="none" stroke="#010101" stroke-width="64" d="M5610.316,1996.136l79.989,34.857l3.556,6.246
			c-22.339,13.323-42.133,30.704-58.54,52.758c-74.727,100.519-109.098,173.891-169.049,235.788l-3.618-5.458
			c14.823-100.644,82.339-202.488,128.127-291.016C5596.706,2017.764,5603.243,2006.679,5610.316,1996.136z"/>
		<path id="_x31_80623584" fill="none" stroke="#010101" stroke-width="64" d="M8242.026,4536.811
			c-40.548-49.258-124.862-91.451-195.459-132.793l2.004-3.641c22.76-88.871,53.476-157.484,99.738-237.445
			c36.235-62.705,72.908-133.748,106.011-205.531l184.184,47.566c-53.669,206.691-116.776,376.322-197.768,544.754
			c-1.625,3.4-3.253,6.721-4.883,10.121C8241.387,4547.041,8243.717,4538.836,8242.026,4536.811z"/>
		<path id="_x31_80623583" fill="none" stroke="#010101" stroke-width="64" d="M7974.388,4356.406
			c-27.979-22.527-64.382-86.695-101.558-92.762l-50.95-58.486c66.413-65.984,121.003-212.24,161.356-292.131
			c3.775-7.512,7.627-15.109,11.326-22.777l259.756,67.148c-33.101,71.783-69.773,142.826-106.009,205.529
			c-46.263,79.965-76.979,148.58-99.74,237.447l-2.004,3.641C8019.353,4388.162,7994.258,4372.436,7974.388,4356.406z"/>
		<path id="_x31_80623582" fill="none" stroke="#010101" stroke-width="64" d="M7811.083,4214.727
			c-1.917-15.383-7.241-30.41-17.095-44.514c-20.864-30.088-55.049-52.539-91.118-67.816l3.978-9.637
			c16.844-23.867,34.225-46.645,47.86-72.672c29.638-56.887,51.537-115.17,67.369-174.398l172.487,44.564
			c-3.699,7.67-7.549,15.264-11.326,22.777c-40.355,79.893-94.945,226.148-161.356,292.133c-3.37,3.422-6.741,6.531-10.191,9.48
			L7811.083,4214.727z"/>
		<path id="_x31_80623581" fill="none" stroke="#010101" stroke-width="64" d="M7637.215,4082.611
			c-36.658-6.857-127.566,9.828-127.566,9.828l2.017-9.064c0,0,97.018-25.41,128.814-52.684
			c15.523-13.322,65.693-76.119,58.934-216.664l122.662,31.66c-15.83,59.23-37.729,117.512-67.369,174.395
			c-13.634,26.031-31.015,48.807-47.858,72.674l-3.979,9.639C7680.803,4093.156,7658.083,4086.52,7637.215,4082.611z"/>
		<path id="_x31_80623556" fill="none" stroke="#010101" stroke-width="64" d="M8241.976,4536.805
			c-22.441-27.307-117.152-86.072-217.349-144.336c-1.31-0.762-2.623-1.527-3.936-2.287c-43.252-25.105-66.272-61.393-99.416-92.252
			c-13.705-12.76-29.135-24.594-48.447-34.324c-15.549-7.836-32.802,0.408-44.757,20.199
			c-13.743,22.744-45.989,78.736-66.155,101.256c-36.47,40.709-79.762,79.955-120.9,115.562
			c-83.6,72.338-180.868,131.014-277.313,182.152c-40.972,21.727-76.038,53.564-117.022,75.201
			c-36.271,19.141-46.218,42.398-73.034,72.793c-108.889,123.4-159.183,226.764-169.84,378.732
			c-3.034,43.238-9.011,94.441,130.782,179.186c1.209,0.732,2.419,1.463,3.633,2.197c19.457,11.729,39.801,23.465,60.312,34.934
			c113.827,63.66,232.689,119.107,232.689,119.107c12.653-17.561,25.322-34.377,38.106-50.266c0.721-0.895,1.439-1.797,2.16-2.688
			c20.376-25.107,41.306-48.373,62.664-70.373c6.872-7.871,12.068-13.918,14.6-17.062c4.608-5.713,22.316-21.316,44.603-40.164
			c39.469-36.068,79.985-69.725,120.89-104.217c61.33-51.719,123.522-105.326,184.328-171.809
			C8014.611,4961.467,8254.773,4552.369,8241.976,4536.805z"/>
		<path id="_x31_80623580" fill="none" stroke="#010101" stroke-width="64" d="M8241.976,4536.805
			c-22.441-27.307-117.152-86.072-217.349-144.336c-1.807,11.031-4.476,22.26-5.48,33.057c-3.358,36.125,2.105,72.053,9.517,107.27
			c7.014,33.334,16.73,55.15,3.364,88.061c-31.798,78.326-99.909,141.221-161.956,193.641
			c-24.996,21.115-45.899,42.113-68.284,66.057c-113.728,121.57-286.306,167.475-415.563,268.67
			c-36.47,28.553-70.63,60.316-100.068,96.662c-18.57,22.922-34.138,48.209-48.395,74.188
			c-13.658,24.885-30.91,50.381-36.948,78.602c-1.757,8.205-1.593,17.822-2.275,27.145
			c113.827,63.664,232.69,119.109,232.69,119.109c12.655-17.564,25.324-34.379,38.108-50.268
			c-23.374,26.15-42.695,47.639-42.695,47.639c-67.238-30.609-88.723-51.795-83.878-92.865
			c12.203-103.475,198.07-245.787,296.094-235.219c32.975,3.553,57.479,16.232,75.396,45.943
			c61.331-51.719,123.524-105.326,184.326-171.809C8014.611,4961.467,8254.773,4552.369,8241.976,4536.805z"/>
		<path id="_x31_80623579" fill="none" stroke="#010101" stroke-width="64" d="M7237.759,5320.074
			c14.257-25.98,29.825-51.268,48.395-74.189c29.442-36.344,63.6-68.107,100.069-96.658
			c129.261-101.199,301.839-147.102,415.566-268.672c22.385-23.945,43.288-44.943,68.284-66.059
			c62.047-52.42,130.156-115.314,161.954-193.641c13.366-32.914,3.651-54.729-3.364-88.061
			c-7.408-35.215-12.875-71.145-9.515-107.266c1.003-10.801,3.672-22.029,5.479-33.061c-1.31-0.762-2.621-1.527-3.934-2.287
			c-43.254-25.104-66.274-61.393-99.418-92.25c-6.607,10.422-14.344,20.338-17.882,33.207c-3.435,12.477-5.43,26.27-6.309,39.182
			c-2.799,41.09,5.663,83.773-2.042,124.521c-8.345,44.121-39.756,87.098-75.027,112.293
			c-36.103,25.785-79.978,44.607-104.26,84.537c-37.976,62.445-113.008,101.9-172.705,138.947
			c-46.531,28.883-90.347,51.936-131.304,89.432c-32.777,30.014-64.165,61.803-93.053,95.857
			c-44.904,52.924-83.727,107.307-118.04,168.277c-14.579,25.902-28.004,53.615-40.466,80.184
			c-10.05,21.428-9.708,46.814-14.567,69.707c-3.954,18.611-5.42,37.521-7.395,56.814c19.456,11.729,39.8,23.467,60.311,34.936
			c0.685-9.322,0.519-18.941,2.275-27.146C7206.849,5370.457,7224.102,5344.961,7237.759,5320.074z"/>
		<path id="_x31_80623578" fill="none" stroke="#010101" stroke-width="64" d="M7160.186,5264.363
			c12.46-26.568,25.888-54.281,40.465-80.184c34.315-60.967,73.138-115.354,118.04-168.279
			c28.887-34.053,60.276-65.842,93.055-95.854c40.955-37.496,84.771-60.553,131.301-89.432
			c59.696-37.047,134.73-76.506,172.706-138.949c24.284-39.928,68.159-58.752,104.263-84.539
			c35.272-25.189,66.68-68.164,75.024-112.291c7.706-40.746-0.755-83.43,2.044-124.523c0.879-12.906,2.877-26.703,6.311-39.182
			c3.537-12.865,11.274-22.783,17.881-33.205c-13.703-12.762-29.134-24.594-48.446-34.324c-15.548-7.836-32.804,0.408-44.757,20.197
			c-13.741,22.746-45.991,78.738-66.155,101.258c-36.47,40.709-79.762,79.955-120.9,115.562
			c-83.602,72.338-180.868,131.014-277.313,182.152c-40.974,21.727-76.038,53.562-117.024,75.199
			c-36.269,19.143-46.216,42.398-73.032,72.797c-108.887,123.4-159.183,226.76-169.839,378.73
			c-3.033,43.24-9.012,94.439,130.781,179.188c1.208,0.73,2.42,1.463,3.633,2.193c1.972-19.291,3.441-38.203,7.394-56.812
			C7150.479,5311.178,7150.134,5285.791,7160.186,5264.363z"/>
		<path id="_x31_80623577" fill="none" stroke="#010101" stroke-width="64" d="M4927.652,2506.626
			c-24.243-40.656,90.522-90.099,110.049-44.826c7.545,17.594-28.474,26.446-45.011,37.265
			C4967.738,2515.328,4939.39,2526.291,4927.652,2506.626z"/>
		<path id="_x31_80623576" fill="none" stroke="#010101" stroke-width="64" d="M7511.673,4083.342c0,0,96.994-25.438,128.778-52.691
			c18.526-15.881,86.62-102.439,47.854-308.109c-21.218-112.576-74.418-178.805-162.712-243.348
			c-3.353,74.931,5.374,142.756,6.146,218.742c0.719,71.135-0.611,142.568-7.667,213.381
			C7522.417,3927.971,7511.673,4083.342,7511.673,4083.342z"/>
		<path id="_x31_80623575" fill="none" stroke="#010101" stroke-width="64" d="M7266.537,4730.354
			c1.47-15.867,101.642-67.119,117.389-77.941c37.914-26.08,75.306-53.012,111.698-81.355
			c85.103-66.299,168.329-123.381,244.668-200.348c47.145-47.529,99.756-134.475,53.688-200.57
			c-33.706-48.344-101.673-77.195-156.769-87.549c-36.691-6.887-127.577,9.801-127.577,9.801s-8.523,89.389-14.794,131.088
			c0,0-35.194,233.635-144.499,386.971C7328.711,4640.77,7270.092,4692.188,7266.537,4730.354z"/>
		<path id="_x31_80623564" fill="none" stroke="#010101" stroke-width="64" d="M7498.272,4083.25
			c-15.861,169.678-70.991,323.561-99.078,385.092c-66.072,144.723-138.784,224.438-218.708,298.797
			c-33.826,31.463-80.271,74.598-120.066,95.812c-84.792,45.203-179.655,82.775-274.322,71.504
			c-107.46-12.797-221.509-73.877-316.986-127.111c-82.113-45.775-364.557-269.129-414.704-338.791
			c-82.72-114.928-156.245-189.342-223.623-295.291c-68.469-107.643-148.622-121.783-165.689-196.268
			c-3.779-93.854-8.868-226.314-21.485-332.682c-10.478-88.305-25.148-176.004-38.966-260.89
			c-17.866-109.903-27.024-217.458-64.018-328.93c-32.445-97.732-10.831-213.078,9.336-313.008
			c50.496-250.234,334.551-305.161,519.886-394.872l9.723-4.257c20.426-3.955,38.481-6.157,53.432-6.402
			c118.521-1.952,223.597,19.617,337.73,50.637c84.612,22.994,163.933,68.885,244.152,105.145
			c170.078,76.881,322.11,157.454,450.568,302.53c89.51,101.083,263.791,349.23,293.664,515.184
			C7503.601,3556.516,7517.225,3798.588,7498.272,4083.25z"/>
		<path id="_x31_80623563" fill="none" stroke="#010101" stroke-width="64" d="M5715.268,4116.055
			c-20.323-39.051-11.179-44.539-7.069-39.217c110.825,108.502,214.413,247.691,300.621,378.52
			c18.682,28.355,73.4,77.234,122.626,128.182c50.839,52.617,115.226,88.256,172.452,132.484
			c55.362,42.777,107.958,89.697,168.126,125.352c116.909,69.311,225.645,119.166,368.011,118.605
			c121.013-0.479,209.435-61.533,239.472-83.527c0,0,63.805-48.594,56.451-30.156c-7.365,18.424-67.877,78.725-91.316,126.885
			c-24.05,49.426-51.346,96.402-60.626,161.891c-12.249,86.621,9.307,176.699,5.956,188.58
			c-29.018,102.803-183.453,35.906-240.31,125.838c-21.249,33.623,1.459,81.373-33.714,107.688
			c-38.932,29.1-103.663-13.686-141.591-26.244c-100.427-33.227-216.493-5.34-309.4-61.688
			c-84.49-51.221-137.126-187.199-168.484-279.742c-19.296-56.922-25.125-119.582-61.786-168.922
			c-83.032-111.727-229.157-163.031-353.024-203.521c-39.646-12.961-110.421-53.664-173.495-105.943
			c-14.177-11.758-48.581-55.5-27.354-72.357c16.059-12.744,74.567,8.49,106.799,14.576c46.319,8.758,96.347,0.939,143.267-1.957
			c57.99-3.588,105.761,4.912,141.605-33.189c29.927-31.818,30.944-108.471,30.944-108.471c2.55-25.578-10.042-112.385-43.6-170.434
			c-33.569-58.049-88.925-87.01-90.034-91.256C5761.872,4217.67,5752.781,4167.668,5715.268,4116.055z"/>
		<path id="_x31_80623571" fill="none" stroke="#010101" stroke-width="64" d="M5995.804,5807.668
			c-1.909,2.984-3.352,6.377-4.369,10.029c-7.201,25.783,6.759,64.678,28.093,67.814c2.876,0.422,5.884,0.203,8.991-0.793
			c6.192-1.986,42.586-13.729,47.714-21.553C6105.228,5818.957,6020.826,5768.486,5995.804,5807.668z"/>
		<path id="_x31_80623572" fill="none" stroke="#010101" stroke-width="64" d="M6570.783,5846.58
			c-5.269-22.211-14.654-48.752-28.029-63.42c-8.247-9.051-18.016-13.57-29.271-9.77c-8.734,2.953-18.36,10.9-28.865,25.662
			c-38.021,53.404,31.409,159.98,87.558,168.047C6621.88,5974.229,6578.812,5880.395,6570.783,5846.58z"/>
		<path id="_x31_80623570" fill="none" stroke="#010101" stroke-width="64" d="M7255.214,5480.684
			c4.207,54.729-21.911,109.545-41.276,157.867c-24.922,62.012-74.258,105.785-102.084,164.689
			c-38.686,81.855-70.759,149.369-148.358,198.742c-92.844,59.07-199.058,89.383-296.829,137.908
			c-102.362,50.797-258.918,141.861-372.845,78.721c-51.688-28.65-107.999-51.266-157.78-83.178
			c-29.307-18.787-54.105-42.031-85.328-57.619c-65.828-32.844-154.415-71.697-185.666-145.758
			c-13.462-31.918-4.278-55.109,2.165-84.006c-86.395,50.002-151.765,114.482-151.765,114.482
			c21.231,18.457,42.297,36.322,63.232,53.398c165.505,134.996,344.81,273.621,583.983,296.754
			c183.729,17.754,347.125-61.916,485.419-154.037c98.85-65.838,229.6-150.465,327.7-259.518
			c90.791-100.939,200.366-276.586,208.729-288.186l24.776-40.914C7364.364,5532.105,7309.903,5508.098,7255.214,5480.684z"/>
		<path id="_x31_80623569" fill="none" stroke="#010101" stroke-width="64" d="M7255.214,5480.684
			c-1.154-0.576-2.31-1.156-3.461-1.734c-35.444-17.859-68.573-25.758-96.382-22.227c-4.338,15.977-7.153,33.898-12.312,50.199
			c-10.486,33.125-27.01,65.197-36.21,98.557c-11.167,40.494-24.639,84.73-39.753,123.867
			c-22.898,59.299-81.548,104.666-130.678,139.402c-52.76,37.303-109.972,67.057-165.591,99.352
			c-39.856,23.139-82.654,38.289-123.959,58.365c-42.506,20.66-85.188,4.977-120.437-23.189
			c-12.228-9.771-22.061-29.141-36.651-34.754c-9.087-3.492-29.965-5.643-39.148-4.334c-10.706,1.531-21.617,5.93-31.611,10.439
			c-17.875,8.062-36.062,18.496-39.941,39.406c-3.027,16.305,7.178,31.094-7.036,44.576c-26.558,25.182-68.582,11.85-84.458-18.633
			c-23.211-44.576-37.66-89.229-87.057-110.393c-36.877-15.801-77.964-2.809-115.289,5.693
			c-12.852,2.932-31.917,10.635-44.884,5.365c-15.812-6.422-16.372-38.75-20.828-55.131c-21.334-3.139-35.293-42.031-28.093-67.814
			c-3.975-5.242-9.638-12.166-15.587-17.021c-37.66,10.396-74.762,27.771-108.631,47.373c-6.445,28.896-15.629,52.086-2.165,84.004
			c31.252,74.062,119.836,112.918,185.667,145.76c31.223,15.588,56.02,38.832,85.327,57.619
			c49.783,31.916,106.094,54.527,157.781,83.176c113.928,63.146,270.483-27.922,372.845-78.719
			c97.771-48.525,203.985-78.836,296.829-137.908c77.599-49.373,109.67-116.885,148.358-198.74
			c27.826-58.906,77.164-102.678,102.083-164.693C7233.305,5590.229,7259.421,5535.412,7255.214,5480.684z"/>
		<path id="_x31_80623568" fill="none" stroke="#010101" stroke-width="64" d="M5991.435,5817.697
			c1.019-3.652,2.459-7.045,4.368-10.029c25.023-39.182,109.421,11.289,80.427,55.498c-5.129,7.824-41.522,19.566-47.714,21.553
			c-3.108,0.996-6.116,1.215-8.992,0.793c4.46,16.381,5.017,48.707,20.827,55.135c12.966,5.266,32.031-2.438,44.887-5.369
			c37.322-8.502,78.41-21.494,115.285-5.693c49.399,21.164,63.848,65.816,87.06,110.393c15.873,30.484,57.897,43.814,84.458,18.633
			c14.214-13.482,4.008-28.271,7.035-44.576c3.882-20.91,22.067-31.344,39.943-39.406c9.992-4.51,20.902-8.908,31.609-10.439
			c9.185-1.309,30.063,0.842,39.149,4.334c14.59,5.615,24.422,24.98,36.652,34.754c35.246,28.164,77.931,43.848,120.435,23.188
			c41.306-20.076,84.104-35.223,123.961-58.363c55.618-32.295,112.829-62.047,165.591-99.35
			c49.129-34.738,107.778-80.109,130.676-139.404c15.117-39.135,28.59-83.373,39.753-123.867c9.2-33.363,25.724-65.432,36.21-98.555
			c5.159-16.303,7.979-34.221,12.311-50.197c-23.601,2.998-43.371,14.227-57.465,34.607c-30.669,44.396-32.716,74.545-97.12,115.182
			c-56.603,35.719-188.445,30.342-207.758,108.496c-15.843,64.123-3.324,101.725-71.666,134.611
			c-87.979,42.326-115.527-35.678-178.605-66.463c13.373,14.672,22.761,41.213,28.028,63.42
			c8.026,33.814,51.098,127.648,1.392,120.52c-56.148-8.068-125.578-114.643-87.56-168.049c10.507-14.76,20.133-22.709,28.867-25.66
			c-2.362-0.439-4.774-0.816-7.232-1.109c-68.163-8.152-123.892,34.08-186.364,50.031c-86.997,22.217-162.787-17.971-247.155-29.895
			c-31.567-4.465-64.433-0.695-96.883,8.258C5981.796,5805.533,5987.46,5812.455,5991.435,5817.697z"/>
		<path id="_x31_80623567" fill="none" stroke="#010101" stroke-width="64" d="M5563.324,3177.841
			c-33.498-22.593-65.438-42.606-95.787-69.253c-29.126-25.576-60.232-49.542-95.849-64.451
			c-36.45-15.257-74.497-25.997-110.411-42.726c-74.501-34.7-139.092-87.686-211.753-125.683
			c-43.904-22.957-102.539-28.414-150.835-39.491l1.891-0.674l-0.633-55.275c96.965-4.561,193.063-12.608,316.167-40.583
			c0,0,68.361-8.552,133.487,29.799c53.448,31.46,99.964,114.111,121.104,159.651c37.603,81.012,68.776,164.979,90.954,251.754
			L5563.324,3177.841z"/>
		<path id="_x31_80623566" fill="none" stroke="#010101" stroke-width="64" d="M4903.193,3063.493l2.487,217.192
			c0,0,35.459,10.297,68.931,67.528c33.464,57.236,133.193,168.676,208.487,351.164c75.285,182.494,59.864,281.99,82.79,300.059
			c22.925,18.045,203.17,121.959,218.104,89.025c32.164-70.906,160.626-123.025,160.626-123.025
			c-13.422-65.715-6.108-136.211-6.252-201.354c-0.365-152.688-29.078-306.041-51.658-459.047
			c-5.823-39.455-13.624-78.37-23.189-116.737l-0.193-10.458c-33.496-22.594-65.438-42.604-95.786-69.253
			c-29.125-25.576-60.232-49.541-95.85-64.45c-36.447-15.257-74.496-25.999-110.41-42.728
			c-74.501-34.699-139.092-87.686-211.753-125.683c-43.904-22.957-102.539-28.413-150.837-39.49L4903.193,3063.493z"/>
		<path id="_x31_80623562" fill="none" stroke="#010101" stroke-width="64" d="M5552.172,4846.398
			c34.151-21.945,59.345-27.559,114.611-9.486c123.859,40.492,269.963,91.797,352.977,203.508
			c36.663,49.338,34.924,112.092,54.209,169.014c31.363,92.551,91.585,228.426,176.067,279.65
			c92.911,56.35,208.977,28.463,309.396,61.686c37.938,12.555,110.791,52.48,155.227,33.729
			c52.757-22.271,41.648-94.891,62.899-128.518c56.862-89.934,200.932,13.844,238.999-124.789l133.886,95.916
			c-30.948,12.098-49.102,21.719-62.272,40.762c-30.672,44.398-32.715,74.549-97.124,115.182
			c-56.599,35.715-195.188,36.508-214.505,114.658c-15.85,64.131,3.184,95.033-64.915,128.451
			c-86.481,42.428-107.695-67.023-199.558-78.018c-68.155-8.162-139.439,34.76-201.922,50.715
			c-86.996,22.213-263.304-7.637-216.723-73.061c31.256-43.916,8.588-76.758-31.565-111.633
			c-74.202-64.438-168.296-86.443-260.666-112.729c-146.943-41.803-284.8-102.873-429.646-155.846
			c-74.927-27.402-43.599-191.35,18.492-317.174C5447.509,4911.957,5520.309,4866.906,5552.172,4846.398z"/>
		<path id="_x31_80623565" fill="none" stroke="#010101" stroke-width="64" d="M4905.953,3304.271
			c138.936,149.198,265.339,395.033,310.871,598.828c19.611,87.748-26.218,195.232-42.225,280.883
			c-15.794,84.58-14.042,167.922-2.914,254.098c8.122,62.896,10.765,185.803-1.677,225.467
			c-19.96,63.578-152.182,160.562-246.594,165.166L4905.953,3304.271z"/>
		<path id="_x31_80623561" fill="none" stroke="#010101" stroke-width="64" d="M5188.689,5575.822
			c99.985,34.4,141.071,50.643,182.042,83.551c123.567,99.279,220.411,187.287,328.854,281.568c0,0,134.699-125.541,252.048-163.777
			c57.915-18.871,154.904-27.924,120.704-112.477c-24.48-60.547-91.779-73.904-144.482-95.281
			c-63.09-25.598-157.332-50.338-223.22-68.744c-101.421-28.336-168.485-54.76-265.754-92.939
			c-65.508-25.711-284.134-147.139-326.949-84.479C5097.032,5345.043,5133.539,5556.834,5188.689,5575.822z"/>
		<path id="_x31_80623573" fill="none" stroke="#010101" stroke-width="64" d="M5656.842,4033.521
			c-18.727,40.973-28.121,90.525-25.299,135.516c1.802,28.756,12.37,83.385,36.971,105.965c2.851-4.844,5.942-9.355,9.306-13.387
			c17.064-20.461,42.559-30.666,69.145-23.135C5773.984,4246.146,5696.895,4104.51,5656.842,4033.521z"/>
		<path id="_x31_80623574" fill="none" stroke="#010101" stroke-width="64" d="M5656.842,4033.521
			c-13.272-23.525-22.48-39.291-22.48-39.291c-184.879,65.428-364.33,486.734-137.755,609.422
			c74.15,40.129,182.036,22.807,262.435,27.725c0,0-87.866-68.34-111.322-132.26c-14.545-39.629-9.389-91.561-8.968-121.73
			c2.714-22.67,10.719-70.053,29.76-102.383c-24.598-22.582-35.169-77.211-36.972-105.967
			C5628.723,4124.047,5638.115,4074.494,5656.842,4033.521z"/>
		<path id="_x31_80623557" fill="none" stroke="#010101" stroke-width="64" d="M4931.372,5523.299
			c60.5,19.061,163.621,27.783,204.951,41.562c0,0-19.771-67.02-42.287-150.996c-17.193-64.102-30.822-123.133,49.561-136.211
			c6.682-1.082,105.49,26.662,155.718,41.322c1.138,0.254-5.013-175.512,62.63-297.271
			c73.886-132.973,74.076-116.336,181.529-202.941c39.213-31.604-9.177-46.621-44.479-81.986
			c-24.717-24.756-49.504-75.91-69.609-126.881c-23.067-58.443-47.606-123.176-50.999-154.623
			c-8.735-81.061,1.856-169.025,26.429-226.965c0,0,42.019-79.145,46.852-97.533c4.825-18.406-170.189-92.232-195.543-102.398
			c-25.021-10.025-54.323,155.854-60.867,194.658c-14.186,84.018,7.864,246.197,11.29,324.76
			c3.423,78.566-1.354,102.207-28.543,152.336c-27.198,50.121-102.194,113.93-152.47,132.881
			c-50.266,18.973-101.817,21.633-101.817,21.633"/>
		<path id="_x31_80623558" fill="none" stroke="#010101" stroke-width="64" d="M4931.372,5523.299
			c37.488,11.812,76.709,16.521,115.313,22.986c14.96,2.512,74.532,16.174,89.638,18.574c-4.94-17.344-7.815-28.246-12.225-42.334
			c-15.509-49.578-34.598-117.799-45.181-172.611c-12.594-65.123-52.994-200.26-151.516-173.492L4931.372,5523.299z"/>
		<path id="_x31_80623559" fill="none" stroke="#010101" stroke-width="64" d="M5273.228,5265.396
			c-11.414-21.746-23.127-43.287-35.99-64.152c-26.127-42.389-56.031-82.469-91.365-117.049
			c-66.441-65.027-133.835-89.121-220.477-82.367l1.983,173.111c19.62-3.146,38.551-1.162,55.722,5.961
			c14.768,6.123,28.236,16.053,39.723,29.779c24.472,29.238,36.062,66.678,46.726,103.029c4.618,15.73,6.383,30.146,12.338,44.234
			c-4.635-39.834,5.77-71.191,61.707-80.289c6.685-1.084,105.491,26.662,155.72,41.32c0.025,0.006,0.049-0.084,0.067-0.258
			c-3.044-8.219-6.351-16.293-9.772-24.324C5285.163,5283.961,5278.476,5275.398,5273.228,5265.396z"/>
		<path id="_x31_80623560" fill="none" stroke="#010101" stroke-width="64" d="M5498.996,4736.775
			c-24.719-24.754-49.505-75.91-69.611-126.879c-23.065-58.443-47.605-123.174-50.999-154.621
			c-8.735-81.062,1.858-169.025,26.431-226.967c0,0,42.018-79.145,46.85-97.533c4.825-18.406-170.189-92.232-195.541-102.4
			c-25.02-10.023-54.325,155.855-60.867,194.658c-14.185,84.02,7.862,246.199,11.288,324.762
			c3.423,78.566-1.352,102.207-28.541,152.334c-27.199,50.123-102.196,113.934-152.469,132.883
			c-50.267,18.969-101.82,21.635-101.82,21.635l1.688,147.182c86.642-6.756,154.035,17.336,220.477,82.365
			c35.334,34.584,65.238,74.66,91.364,117.045c12.862,20.871,24.578,42.41,35.991,64.156c5.249,10.002,11.934,18.564,16.383,28.996
			c3.421,8.031,6.729,16.104,9.771,24.324c0.831-7.482-3.536-178.033,62.562-297.012c73.886-132.975,74.077-116.338,181.53-202.945
			C5582.687,4787.16,5534.298,4772.143,5498.996,4736.775z"/>
		<path id="_x31_80623647" fill="none" stroke="#010101" stroke-width="64" d="M7518.941,3442.789
			c2.266,25.834,4.305,51.906,5.964,77.984c0.36,57.93,5.994,113.201,6.837,173.562c0.173,15.088,0.193,30.025,0.135,44.723
			c-0.021,4.953-0.039,9.828-0.062,14.623c-0.096,4.875-0.116,9.672-0.213,14.467c-0.12,9.51-0.387,18.949-0.585,28.227
			c-0.817,27.838-2.103,54.346-3.863,79.125c-0.332,4.094-0.589,8.107-0.92,12.041c-0.666,8.186-1.405,16.133-2.152,23.846
			c-0.546,5.193-0.936,10.859-1.321,16.838c-2.235,29.506-6.415,87.963-8.952,124.074c-2.184,14.098-5.14,27.34-9.173,38.867
			c-1.758,5.129-3.824,9.951-6.046,14.381c15.7-387.965,5.293-529.33-39.412-796.045
			c-27.883-166.381-204.21-414.102-293.668-515.188c-128.508-145.096-280.505-225.681-450.637-302.581
			c-80.157-36.195-159.515-82.142-244.137-105.076c-114.1-31.058-219.154-52.635-337.721-50.701
			c-82.074,1.406-257.527,61.504-409.876,148.594c-114.28,65.319-211.805,158.965-268.039,181.511
			c-108.021,43.232-169.876,57.986-238.984,73.696c-123.115,27.931-219.196,36.033-316.151,40.531l-2.972-259.29l-0.002-0.08
			c69.066,0.171,139.868-6.677,211.48-22.339c27.951-6.006,56.112-13.427,84.256-22.344c18.789-5.89,37.644-12.412,56.492-19.641
			c12.14-4.629,23.672-9.253,34.674-13.949c87.424-36.923,140.989-74.137,182.375-116.858
			c59.95-61.897,94.322-135.27,169.049-235.786c16.41-22.058,36.201-39.437,58.54-52.761c10.681-6.42,22.049-11.906,33.886-16.612
			c17.717-6.9,36.664-12.006,56.469-15.397c142.842-24.714,328.846,36.664,441.756,82.671
			c56.988,23.27,115.633,45.815,174.736,69.061c152.596,59.981,307.893,124.255,443.425,214.945
			c41.131,27.478,80.475,57.414,117.353,90.444c71.16,63.739,118.636,103.086,163.069,147.814
			c36.467,36.497,70.852,76.633,114.627,136.622c12.464,17.062,25.704,35.84,40.026,56.574
			c26.492,38.506,63.694,93.151,98.723,149.63c42.973,69.273,82.493,141.105,94.472,188.593
			c16.898,66.923,30.344,150.004,40.219,238.549C7514.898,3400.705,7517.032,3421.668,7518.941,3442.789z"/>
		<path id="_x31_80623648" fill="none" stroke="#010101" stroke-width="64" d="M5733.077,4237.354
			c151.913,40.059,192.698,269.725,162.53,337.848c-73.597,166.125-240.263-0.043-254.461-111.531
			C5628.515,4364.416,5657.229,4217.361,5733.077,4237.354z"/>
		<path id="_x31_80623649" fill="none" stroke="#010101" stroke-width="64" d="M7638.853,5214.215
			c-98.021-10.564-283.889,131.744-296.094,235.219c-4.843,41.072,16.644,62.258,83.88,92.867c0,0,19.321-21.49,42.693-47.641
			c0.721-0.895,1.439-1.797,2.16-2.688c20.374-25.107,41.304-48.375,62.664-70.371c6.872-7.871,12.066-13.918,14.6-17.062
			c4.608-5.715,22.315-21.316,44.604-40.162c39.467-36.072,79.983-69.727,120.888-104.219
			C7696.333,5230.447,7671.829,5217.77,7638.853,5214.215z"/>
		<path id="_x31_80623646" fill="none" stroke="#010101" stroke-width="64" d="M5349.603,2769.5
			c-65.127-38.351-133.486-29.799-133.486-29.799c53.492-12.449,117.434-26.763,159.149-43.854
			c34.49-14.123,71.17-23.182,104.039-41.345c34.982-19.331,67.013-47.79,99.501-71.669c35.078-25.795,70.791-52.449,107.33-75.935
			c45.441-29.21,92.653-52.905,141.375-76.4c20.096-9.693,40.464-19.572,61.414-27.106c37.834-13.611,142.482-56.306,180.926-56.781
			c-185.337,89.71-469.392,144.638-519.889,394.871c-20.167,99.931-41.781,215.275-9.336,313.008
			c36.995,111.473,46.148,219.026,64.019,328.93c13.816,84.885,28.487,172.584,38.965,260.891
			c15.332,129.299,18.021,251.324,23.294,380.959c-42.312-73.162-28.347-177.207-28.535-261.189
			c-0.365-152.686-29.077-306.041-51.656-459.045c-19.382-131.384-60.726-256.816-116.002-375.885
			C5449.565,2883.612,5403.05,2800.962,5349.603,2769.5z"/>
	</g>
</g>
</svg>
