<svg width="4544" height="4160" xmlns="http://www.w3.org/2000/svg">
<g transform="scale(1.0)">
<g id="180606768" order="1" parent_id="" graphic_group_label_id="28" graphic_group_label="Atlas - Adult Mouse" sub_image_id="100960516" transform=" scale(1.0, 1.0)"><path id="180606770" parent_id="180606768" order="0" structure_id="8" d="M3556.003,3153.268
			c-54.267,77.079-131.813,136.509-199.972,200.468c-129.555,121.563-281.875,156.65-457.11,155.117
			c-449.91-3.957-734.858-508.487-749.249-904.828c-5.372-147.865,12.89-299.923,41.936-444.82
			c23.885-119.146,59.12-236.939,89.491-354.569c55.195-213.775,179.271-495.049,392.921-594.563
			c299.207-139.366,604.174,0.281,819.188,220.641c52.641,53.95,120.081,111.798,157.763,177.696
			c64.959,113.606,111.932,201.241,132.095,331.049c23.134,148.906,41.254,283.155,24.312,435.181
			c-30.347,272.35-90.232,549.287-250.283,777.082C3556.733,3152.232,3556.372,3152.752,3556.003,3153.268z" style="stroke:black;fill:#bfdae3"/><path id="180606771" parent_id="180606768" order="1" structure_id="688" d="M3783.065,1939.46
			c-20.163-129.811-67.14-217.445-132.096-331.054c-37.68-65.897-105.119-123.744-157.761-177.693
			c-215.019-220.359-519.983-360.007-819.197-220.643c-213.647,99.512-337.726,380.784-392.922,594.559
			c-30.373,117.631-65.609,235.426-89.498,354.571c-29.041,144.896-47.301,296.954-41.932,444.817
			c14.391,396.339,299.336,900.869,749.252,904.828c175.233,1.53,327.556-33.556,457.115-155.116
			c68.158-63.962,145.701-123.392,199.97-200.467c0.366-0.519,0.731-1.037,1.091-1.548
			c160.053-227.794,219.94-504.731,250.286-777.082C3824.319,2222.607,3806.197,2088.367,3783.065,1939.46z M2948.884,2223.4
			c-8.455,41.505-19.513,83.481-35.285,122.85c-10.677,26.671-24.572,48.944-46.115,68.021c-0.447-13.554,4.916-27.064,9.184-39.744
			c17.08-50.784,19.595-108.275,26.505-161.732c3.804-29.412-3.873-67.241,12.511-93.479c10.589-16.959,26.289-17.957,35.854,0.288
			C2966.606,2148.349,2954.894,2193.933,2948.884,2223.4z" style="stroke:black;fill:#b0ffb8"/><path id="180606772" parent_id="180606768" order="2" structure_id="698" d="M3783.064,1939.458
			c-20.163-129.808-67.136-217.443-132.095-331.049c-37.682-65.897-105.122-123.746-157.763-177.696
			c-215.014-220.359-519.98-360.006-819.188-220.641c-213.649,99.514-337.726,380.788-392.921,594.563
			c-30.371,117.63-65.606,235.424-89.491,354.569c-29.046,144.897-47.307,296.955-41.936,444.82
			c14.391,396.341,299.339,900.871,749.249,904.828c175.235,1.533,327.556-33.555,457.11-155.117
			c68.159-63.959,145.705-123.389,199.972-200.468c0.369-0.516,0.73-1.035,1.09-1.547
			c160.051-227.795,219.937-504.732,250.283-777.082C3824.318,2222.612,3806.198,2088.363,3783.064,1939.458z M2948.884,2223.4
			c-8.455,41.505-19.513,83.481-35.285,122.85c-10.677,26.671-24.572,48.944-46.115,68.021c-0.447-13.554,4.916-27.064,9.184-39.744
			c17.08-50.784,19.595-108.275,26.505-161.732c3.804-29.412-3.873-67.241,12.511-93.479c10.589-16.959,26.289-17.957,35.854,0.288
			C2966.606,2148.349,2954.894,2193.933,2948.884,2223.4z" style="stroke:black;fill:#9ad2bd"/><path id="180606773" parent_id="180606768" order="3" structure_id="507" d="M3783.065,1939.46
			c-20.163-129.811-67.14-217.445-132.096-331.054c-37.68-65.897-105.119-123.744-157.761-177.693
			c-215.019-220.359-519.983-360.007-819.197-220.643c-213.647,99.512-337.726,380.784-392.922,594.559
			c-30.373,117.631-65.609,235.426-89.498,354.571c-29.041,144.896-47.301,296.954-41.932,444.817
			c14.391,396.339,299.336,900.869,749.252,904.828c175.233,1.53,327.556-33.556,457.115-155.116
			c68.158-63.962,145.701-123.392,199.97-200.467c0.366-0.519,0.731-1.037,1.091-1.548
			c160.053-227.794,219.94-504.731,250.286-777.082C3824.319,2222.607,3806.197,2088.367,3783.065,1939.46z M2948.884,2223.4
			c-8.455,41.505-19.513,83.481-35.285,122.85c-10.677,26.671-24.572,48.944-46.115,68.021c-0.447-13.554,4.916-27.064,9.184-39.744
			c17.08-50.784,19.595-108.275,26.505-161.732c3.804-29.412-3.873-67.241,12.511-93.479c10.589-16.959,26.289-17.957,35.854,0.288
			C2966.606,2148.349,2954.894,2193.933,2948.884,2223.4z" style="stroke:black;fill:#9ad2bd"/><path id="180606774" parent_id="180606768" order="4" structure_id="212" d="M2232.506,2616.303
			c8.847-65.866,15.845-132.147,22.813-196.895c11.57-107.666-0.029-215.961,1.188-323.397
			c0.92-80.878,10.909-170.406,36.135-247.382c22.345-68.213,24.785-141.543,45.552-210.206
			c17.658-58.384,45.729-114.474,75.991-167.252c61.184-106.695,146.368-208.244,259.852-261.105
			c276.983-129.02,640.574-11.562,818.072,231.467c50.901,69.692,81.952,151.475,130.668,221.931
			c22.406,32.412,27.086,69.952,42.184,105.392c18.518,43.48,37.567,85.015,53.065,129.864
			c11.534,33.382,18.488,64.645,24.964,98.822c5.962,31.391,24.849,61.638,25.313,93.832
			c1.179,79.929-12.239,158.673-27.152,236.877c-13.632,71.549-15.073,145.099-68.522,199.822
			c-32.055,32.827-53.116,65.29-75.821,104.972c-15.945,27.86-40.286,52.814-51.968,82.892
			c-15.727,40.514-23.293,48.014-54.937,79.503c-22.18,22.052-23.984,49.824-42.744,74.146
			c-17.679,22.913-39.34,37.237-55.283,62.707c-22.533,35.985-47.407,70.206-71.854,104.968
			c-22.039,31.34-51.168,54.694-74.213,85.303c-20.498,27.245-37.504,56.351-63.887,78.444
			c-35.681,29.879-68.457,60.925-102.375,93.186c-46.408,44.12-81.547,89.4-142.599,114.293
			c-54.245,22.135-116.187,33.339-174.721,30.774c-102.535-4.5-173.653-43.473-257.875-99.067
			c-62.917-41.535-115.568-97.035-159.675-157.688c-68.034-93.559-111.096-199.9-131.528-314.2
			C2196.708,2776.281,2220.31,2706.91,2232.506,2616.303z M3399.364,2618.206c33.287-32.256,88.033-32.95,115.695-72.86
			c23.391-33.733,33.42-72.972,35.921-112.801c2.688-42.775,24.587-63.186,37.36-102.95c14.952-46.562,1.039-94.676-3.839-141.583
			c-8.104-77.923,26.512-154.315,15.435-230.384c-4.925-33.832-27.932-60.319-46.119-87.786
			c-20.404-30.811-28.801-68.243-36.338-103.869c-9.723-45.942-57.452-57.313-74.66-101.782
			c-11.825-30.567-7.614-66.685-26.593-94.677c-19.582-28.878-49.688-47.931-70.215-76.857
			c-25.096-35.345-48.586-72.1-76.595-105.262c-34.113-40.383-79.729-70.612-125.72-95.796
			c-39.765-21.767-92.213-63.368-135.137-74.481c-36.139-9.347-69.579,2.769-105.347,2.908c-33.193,0.126-64.059-4.018-98.021,1.29
			c-84.004,13.123-175.79,55.425-215.785,134.701c-44.13,87.478-91.939,175.198-127.676,266.696
			c-17.316,44.349-24.562,92.95-29.731,140.39c-5.161,47.455,13.752,93.057,11.53,141.046
			c-2.446,52.554-19.782,101.888-17.308,153.364c2.734,56.697,3.889,115.09-14.045,169.724c-9.246,28.19-9.668,33.513-0.344,61.6
			c21.589,64.982-1.278,163.595-18.776,229.731c-6.087,23.054-11.937,41.656-21.718,62.557
			c-7.292,15.587-29.858,35.34-33.566,50.145c-4.922,19.671,10.707,40.036,15.385,58.865c6.31,25.515,4.396,50.709,5.77,76.812
			c3.471,66.21-7.876,125.244-13.349,189.606c-5.56,65.388,28.794,93.95,63.488,141.981c41.192,57.021,75.94,106.938,135.288,147.92
			c54.037,37.312,124.315,59.539,189.81,53.197c89.012-8.615,202.234-48.852,260.885-118.886
			c33.01-39.424,36.874-88.448,81.597-120.296c63.96-45.537,88.452-119.137,129.464-182.111
			c19.484-29.914,47.651-44.201,70.502-69.081c6.48-7.038,12.381-14.485,17.887-22.234
			C3332.694,2733.244,3351.097,2664.995,3399.364,2618.206z" style="stroke:black;fill:#82c7ae"/><path id="180606778" parent_id="180606768" order="5" structure_id="220" d="M2687.879,2028.394
			c-23.298-144.492-77.907-312.432-1.352-450.281c29.765-53.616,74.094-116.691,135.913-135.032
			c101.479-30.11,196.597,46.774,240.229,133.7c34.542,68.801,84.721,128.452,117.9,199.549
			c45.9,98.301,120.765,168.799,149.518,276.183c19.227,71.768,18.817,161.139-4.339,232.38
			c-40.828,125.551-133.944,197.697-217.359,293.876c-71.313,82.23-125.211,169.297-174.399,265.51
			c-42.375,82.866-90.72,193.534-172.44,246.744c-68.79,44.795-185.517,2.857-219.77-69.54
			c-31.791-67.179-25.469-149.829-12.651-220.903c19.221-106.723,65.485-204.782,106.61-304.214
			c57.416-138.818,75.312-286.91,56.871-434.931C2691.224,2050.425,2689.647,2039.401,2687.879,2028.394z M2867.483,2414.271
			c21.543-19.077,35.438-41.352,46.115-68.019c15.771-39.37,26.828-81.353,35.292-122.854c6.009-29.469,17.714-75.053,2.646-103.801
			c-9.56-18.245-25.266-17.248-35.855-0.288c-16.374,26.234-8.698,64.065-12.501,93.481c-6.918,53.456-9.433,110.952-26.513,161.734
			C2872.4,2387.207,2867.036,2400.718,2867.483,2414.271z" style="stroke:black;fill:#82c7ae"/><path id="180606777" parent_id="180606768" order="6" structure_id="228" d="M2622.865,3147.418
			c67.473,38.797,154.659-15.05,204.674-60.932c80.973-74.266,124.926-177.032,172.39-273.809
			c48.527-98.905,107.358-177.975,179.88-260.395c76.46-86.902,173.029-134.318,196.467-260.424
			c48.694-262.005-121.793-532.6-275.714-731.311c-91.051-117.556-206.405-206.105-340.284-122.786
			c-78.883,49.09-117.032,153.377-128.725,241.809c-29.347,221.921,64.529,434.738,26.563,656.136
			c-19.175,111.828-87.349,211.345-115.01,321.151c-21.288,84.533-56.483,156.726-55.561,246.08
			C2488.577,3003.749,2533.871,3096.238,2622.865,3147.418z M2541.762,3021.465c-31.784-67.173-25.454-149.825-12.651-220.897
			c19.23-106.723,65.495-204.78,106.621-304.209c57.418-138.809,75.315-286.897,56.865-434.914
			c-1.377-11.013-2.954-22.032-4.73-33.04c-23.289-144.488-77.907-312.422-1.35-450.268
			c29.772-53.618,74.096-116.688,135.914-135.028c101.483-30.114,196.595,46.772,240.235,133.695
			c34.535,68.803,84.723,128.452,117.903,199.539c45.9,98.298,120.768,168.79,149.521,276.171
			c19.227,71.766,18.826,161.139-4.34,232.378c-40.821,125.544-133.94,197.693-217.356,293.871
			c-71.314,82.222-125.215,169.291-174.404,265.501c-42.376,82.861-90.722,193.53-172.445,246.736
			C2692.744,3135.796,2576.023,3093.855,2541.762,3021.465z" style="stroke:black;fill:#9ad2bd"/><path id="180606776" parent_id="180606768" order="7" structure_id="236" d="M2681.061,3198.682
			c62.478-0.822,126.586-41.475,172.016-80.932c77.366-67.21,125.55-168.771,171.335-258.362
			c24.808-48.54,49.583-97.367,78.289-143.664c19.369-31.241,40.525-61.323,64.661-89.387
			c57.096-66.372,123.375-127.088,183.544-188.646c41.306-42.267,73.601-115.447,82.055-173.174
			c10.226-69.786-0.38-148.251-20.047-215.696c-19.162-65.67-33.132-138.213-65.064-199.328
			c-34.225-65.472-83.399-117.864-123.879-178.401c-61.848-92.507-130.11-175.976-218.643-244.599
			c-89.753-69.561-202.771-97.248-294.113-15.029c-71.467,64.333-113.423,176.58-125.839,270.443
			c-26.092,197.222,47.311,393.784,39.107,591.779c-3.783,91.315-46.465,169.337-71.47,255.15
			c-49.949,171.368-156.294,422.092-19.995,580.255C2565.371,3146.635,2629.233,3199.364,2681.061,3198.682z M2543.105,2656.859
			c27.661-109.807,95.835-209.323,115.01-321.151c37.967-221.397-55.909-434.215-26.563-656.136
			c11.692-88.432,49.842-192.719,128.725-241.809c133.879-83.32,249.233,5.23,340.284,122.786
			c153.921,198.711,324.408,469.305,275.714,731.311c-23.438,126.105-120.007,173.521-196.467,260.424
			c-72.521,82.42-131.353,161.489-179.88,260.395c-47.464,96.776-91.417,199.543-172.39,273.809
			c-50.015,45.882-137.201,99.729-204.674,60.932c-88.994-51.18-134.288-143.669-135.32-244.479
			C2486.622,2813.585,2521.817,2741.393,2543.105,2656.859z" style="stroke:black;fill:#82c7ae"/><path id="180606775" parent_id="180606768" order="8" structure_id="244" d="M2544.354,3246.429
			c54.04,37.31,124.31,59.537,189.813,53.194c89.016-8.618,202.233-48.85,260.892-118.886
			c33.011-39.419,36.86-88.445,81.592-120.292c63.961-45.537,88.454-119.135,129.466-182.106
			c19.486-29.913,47.644-44.204,70.513-69.08c6.472-7.042,12.38-14.484,17.871-22.232c38.204-53.796,56.606-122.044,104.876-168.83
			c33.278-32.261,88.035-32.955,115.698-72.859c23.391-33.732,33.42-72.971,35.92-112.797c2.69-42.775,24.596-63.186,37.355-102.952
			c14.952-46.56,1.047-94.67-3.831-141.579c-8.113-77.917,26.505-154.311,15.435-230.377c-4.924-33.831-27.933-60.313-46.119-87.779
			c-20.413-30.809-28.802-68.245-36.348-103.87c-9.723-45.936-57.454-57.306-74.661-101.778
			c-11.826-30.563-7.615-66.683-26.594-94.669c-19.583-28.882-49.689-47.929-70.224-76.859
			c-25.089-35.34-48.579-72.093-76.589-105.254c-34.106-40.386-79.729-70.611-125.723-95.794
			c-39.766-21.766-92.223-63.365-135.148-74.475c-36.131-9.346-69.573,2.765-105.342,2.909c-33.192,0.125-64.066-4.019-98.021,1.29
			c-84.004,13.123-175.795,55.419-215.79,134.697c-44.132,87.48-91.942,175.196-127.68,266.689
			c-17.317,44.347-24.563,92.951-29.726,140.386c-5.169,47.453,13.753,93.058,11.522,141.045
			c-2.447,52.548-19.782,101.88-17.307,153.356c2.734,56.698,3.889,115.091-14.039,169.718c-9.238,28.19-9.676,33.512-0.343,61.602
			c21.588,64.977-1.279,163.586-18.777,229.726c-6.095,23.049-11.938,41.654-21.719,62.551
			c-7.292,15.59-29.858,35.338-33.568,50.144c-4.93,19.669,10.717,40.033,15.378,58.867c6.311,25.509,4.403,50.702,5.777,76.804
			c3.472,66.21-7.876,125.241-13.35,189.606c-5.551,65.382,28.804,93.942,63.499,141.972
			C2450.241,3155.533,2484.998,3205.448,2544.354,3246.429z M2553.013,2528.837c25.005-85.813,67.687-163.835,71.47-255.15
			c8.203-197.995-65.199-394.558-39.107-591.779c12.416-93.863,54.372-206.109,125.839-270.443
			c91.342-82.219,204.36-54.531,294.113,15.029c88.532,68.624,156.795,152.092,218.643,244.599
			c40.479,60.537,89.654,112.929,123.879,178.401c31.933,61.115,45.902,133.657,65.064,199.328
			c19.667,67.445,30.272,145.91,20.047,215.696c-8.454,57.727-40.749,130.907-82.055,173.174
			c-60.169,61.558-126.448,122.273-183.544,188.646c-24.136,28.063-45.292,58.146-64.661,89.387
			c-28.706,46.297-53.481,95.124-78.289,143.664c-45.785,89.591-93.969,191.152-171.335,258.362
			c-45.43,39.457-109.538,80.109-172.016,80.932c-51.827,0.683-115.689-52.047-148.043-89.59
			C2396.719,2950.929,2503.063,2700.205,2553.013,2528.837z" style="stroke:black;fill:#9ad2bd"/><path id="180606780" parent_id="180606768" order="9" structure_id="1009" d="M3783.078,1939.483
			c-20.162-129.806-67.141-217.441-132.096-331.045c-37.688-65.901-105.127-123.748-157.769-177.697
			c-16.458-16.867-33.444-33.258-50.913-49.09c17.869,18.986,34.533,38.98,49.817,59.906
			c50.91,69.69,81.955,151.471,130.671,221.924c22.405,32.408,27.094,69.946,42.191,105.385
			c18.509,43.479,37.56,85.018,53.058,129.865c11.534,33.382,18.499,64.639,24.973,98.814c5.963,31.391,24.841,61.636,25.313,93.831
			c1.171,79.925-12.248,158.667-27.152,236.869c-13.642,71.543-15.084,145.094-68.524,199.816
			c-32.064,32.826-53.118,65.288-75.824,104.973c-15.937,27.859-40.295,52.813-51.962,82.886
			c-15.735,40.512-23.301,48.012-54.946,79.5c-22.179,22.055-23.975,49.827-42.743,74.145
			c-17.682,22.916-39.342,37.239-55.286,62.709c-22.525,35.983-47.407,70.204-71.849,104.966
			c-22.04,31.336-51.177,54.692-74.214,85.304c-20.509,27.236-37.513,56.344-63.897,78.438
			c-35.682,29.873-68.459,60.918-102.377,93.182c-46.402,44.119-81.55,89.398-142.602,114.295
			c-54.24,22.128-116.19,33.338-174.726,30.769c-102.538-4.495-173.657-43.468-257.881-99.06
			c-52.29-34.515-97.484-78.681-136.581-127.435c128.885,171.414,310.109,294.196,531.157,296.141
			c175.242,1.532,327.563-33.553,457.115-155.113c68.167-63.962,145.71-123.393,199.978-200.468
			c0.367-0.515,0.733-1.033,1.091-1.549c160.053-227.79,219.939-504.731,250.288-777.081
			C3824.333,2222.634,3806.211,2088.395,3783.078,1939.483z" style="stroke:black;fill:#cccccc"/><path id="180606781" parent_id="180606768" order="10" structure_id="1009" d="M2232.481,2616.299
			c8.864-65.861,15.854-132.14,22.814-196.89c11.578-107.659-0.028-215.954,1.196-323.384
			c0.921-80.876,10.902-170.405,36.129-247.379c22.354-68.207,24.786-141.535,45.553-210.2c8.26-27.307,18.798-54.112,30.772-80.311
			c-38.933,83.145-67.89,169.242-87.843,246.521c-30.374,117.63-65.609,235.426-89.499,354.57
			c-29.048,144.896-47.309,296.955-41.939,444.816c5.396,148.611,48.831,312.433,124.738,459.373
			c-28.816-61.522-49.076-126.902-61.271-195.121C2196.683,2776.276,2220.301,2706.901,2232.481,2616.299z" style="stroke:black;fill:#cccccc"/><path id="180606779" parent_id="180606768" order="11" structure_id="98" d="M2876.667,2374.527
			c17.08-50.784,19.595-108.275,26.505-161.732c3.804-29.412-3.873-67.241,12.511-93.479c10.589-16.959,26.289-17.957,35.854,0.288
			c15.069,28.745,3.356,74.329-2.653,103.797c-8.455,41.505-19.513,83.481-35.285,122.85
			c-10.677,26.671-24.572,48.944-46.115,68.021C2867.036,2400.718,2872.399,2387.207,2876.667,2374.527z" style="stroke:black;fill:#aaaaaa"/></g>
</g>
</svg>