<svg width="4400" height="4064" xmlns="http://www.w3.org/2000/svg">
<g transform="scale(1.0)">
<g id="180606745" order="1" parent_id="" graphic_group_label_id="28" graphic_group_label="Atlas - Adult Mouse" sub_image_id="100960520" transform=" scale(1.0, 1.0)"><path id="180606747" parent_id="180606745" order="0" structure_id="8" d="M3318.444,3094.128
			c-59.808,76.077-128.246,143.62-207.248,194.036c-229.706,146.558-539.955,107.51-730.737-79.995
			c-89.62-88.094-135.555-192.358-199.033-297.218c-118.729-196.125-153.797-397.761-141.339-623.244
			c7.776-140.731,42.524-292.876,96.752-423.201c60.294-144.885,117.981-310.193,210.609-437.621
			c68.046-93.606,134.66-185.9,259.727-200.572c136.329-15.99,280.44-10.142,414.841,18.74
			c133.079,28.597,253.518,128.782,347.307,223.214c53.274,53.642,121.426,111.062,159.803,176.819
			c66.16,113.364,114.047,200.839,135.421,330.854c41.195,250.508-26.38,529.449-133.687,758.083
			C3474.339,2854.458,3405.542,2983.347,3318.444,3094.128z" style="stroke:black;fill:#bfdae3"/><path id="180606748" parent_id="180606745" order="1" structure_id="688" d="M3664.549,1975.935
			c-21.378-130.014-69.266-217.486-135.429-330.849c-38.371-65.758-106.522-123.178-159.797-176.82
			c-93.789-94.433-214.229-194.614-347.313-223.212c-134.401-28.883-278.511-34.73-414.844-18.742
			c-125.065,14.677-191.685,106.966-259.727,200.574c-92.628,127.425-150.315,292.734-210.611,437.616
			c-54.226,130.326-88.976,282.469-96.752,423.2c-12.46,225.481,22.608,427.113,141.336,623.237
			c63.477,104.861,109.418,209.124,199.036,297.218c190.777,187.503,501.036,226.552,730.742,79.994
			c79.003-50.414,147.443-117.957,207.25-194.035c87.099-110.779,155.896-239.665,212.413-360.102
			C3638.165,2505.379,3705.741,2226.443,3664.549,1975.935z M2778.716,2253.137c-4.729,16.619-35.434,91.126-52.628,92.024
			c8.918-1.229,0.175-164.613,10.494-182.978C2761.183,2118.418,2784.291,2233.548,2778.716,2253.137z" style="stroke:black;fill:#b0ffb8"/><path id="180606749" parent_id="180606745" order="2" structure_id="698" d="M3664.54,1975.935
			c-21.369-130.014-69.257-217.49-135.42-330.853c-38.371-65.754-106.522-123.178-159.797-176.816
			c-93.798-94.433-214.229-194.619-347.313-223.216c-134.401-28.879-278.511-34.73-414.844-18.738
			c-125.066,14.673-191.685,106.966-259.727,200.57c-92.628,127.425-150.323,292.734-210.611,437.615
			c-54.234,130.327-88.984,282.471-96.761,423.2c-12.459,225.48,22.617,427.113,141.344,623.237
			c63.477,104.861,109.409,209.124,199.028,297.218c190.785,187.503,501.034,226.551,730.742,79.994
			c79.003-50.413,147.443-117.956,207.25-194.031c87.1-110.783,155.896-239.67,212.421-360.102
			C3638.165,2505.379,3705.733,2226.439,3664.54,1975.935z M2778.716,2253.137c-4.729,16.619-35.434,91.126-52.628,92.024
			c8.918-1.229,0.175-164.613,10.494-182.978C2761.183,2118.418,2784.291,2233.548,2778.716,2253.137z" style="stroke:black;fill:#9ad2bd"/><path id="180606750" parent_id="180606745" order="3" structure_id="507" d="M3664.54,1975.935
			c-21.369-130.014-69.257-217.49-135.42-330.853c-38.371-65.754-106.522-123.178-159.797-176.816
			c-93.798-94.433-214.229-194.619-347.313-223.216c-134.401-28.879-278.511-34.73-414.844-18.738
			c-125.066,14.673-191.685,106.966-259.727,200.57c-92.628,127.425-150.323,292.734-210.611,437.615
			c-54.234,130.327-88.984,282.471-96.761,423.2c-12.459,225.48,22.617,427.113,141.344,623.237
			c63.477,104.861,109.409,209.124,199.028,297.218c190.785,187.503,501.034,226.551,730.742,79.994
			c79.003-50.413,147.443-117.956,207.25-194.031c87.1-110.783,155.896-239.67,212.421-360.102
			C3638.165,2505.379,3705.733,2226.439,3664.54,1975.935z M2778.716,2253.137c-4.729,16.619-35.434,91.126-52.628,92.024
			c8.918-1.229,0.175-164.613,10.494-182.978C2761.183,2118.418,2784.291,2233.548,2778.716,2253.137z" style="stroke:black;fill:#9ad2bd"/><path id="180606751" parent_id="180606745" order="4" structure_id="212" d="M3192.399,1335.274
			c12.327,12.792,28.304,24.608,38.325,39.343c10.546,15.498,12.508,35.619,24.555,50.346c6.754,8.219,20.699,8.056,29.917,12.103
			c31.476,13.857,48.765,26.084,57.911,61.386c9.457,36.507,34.197,36.851,56.734,63.949c8.006,9.611,3.204,23.357,9.329,32.664
			c8.86,13.464,18.322,7.42,31.2,13.784c19.887,9.829,40.538,39.576,46.852,60.195c9.459,30.904,20.078,49.638,36.932,75.999
			c14.838,23.217-9.094,38.521,0.785,60.599c9.75,21.729,41.641,11.708,46.42,42.351c4.122,26.448-24.184,41.269-9.628,71.105
			c22.217,45.563,29.834,78.333,32.477,128.41c2.11,40.072-15.544,83.79-9.421,125.252c6.654,45.12,6.899,81.631-5.418,126.892
			c24.146,29.936,31.763,70.618,7.513,102.241c-24.567,32.054-17.422,66.114-32.466,103.512
			c-16.311,40.54-48.199,67.844-63.809,108.263c-14.707,38.065-38.065,72.026-57.605,107.625
			c-24.652,44.894-54.933,68.088-91.589,101.587c-1.496-0.311-2.999-0.565-4.509-0.771c-34.852,40.621-88.251,69.43-115.963,115.182
			c-16.069,26.539-23.91,56.939-42.536,81.707c-1.969,2.607-4.058,5.156-6.276,7.63c-25.376,28.204-52.271,50.121-73.748,81.226
			c-28.821,41.734-75.559,73.128-119.36,98.115c-21.755,12.411-38.145,31.278-58.271,45.738
			c-17.287,12.42-35.393,15.234-54.483,23.146c-14.86,6.15-24.188,21.606-37.768,28.496c-13.086,6.646-27.521,4.228-40.813,10.632
			c-24.206,11.673-36.743,32.897-63.221,39.868c-29.364,7.729-62.762,11.978-91.947,1.592
			c-94.188-33.521-180.106-76.563-252.058-147.276c-89.628-88.094-135.561-192.355-199.038-297.217
			c-36.013-59.494-65.801-122.559-88.843-188.182c-11.37-32.394-17.44-66.028-27.352-98.645
			c-10.949-36.03-12.651-39.404,4.572-75.493c10.623-22.24,12.996-36.738,12.859-60.69c-0.125-22.822-0.915-50.166,4.884-72.278
			c6.428-24.487,23.189-43.277,25.725-69.156c5.827-59.629,17.306-120.11,20.723-180.091c3.266-57.345-10.515-113.703-5.175-171.707
			c2.371-25.74,6.343-51.17,3.31-76.998c-5.604-47.86,12.579-72.16,29.996-115.164c17.538-43.271,34.72-86.706,53.124-129.623
			c36.694-85.534,77.286-170.483,132.198-246.03c68.042-93.605,134.661-185.897,259.727-200.571
			c136.333-15.992,280.442-10.145,414.844,18.738C3089.438,1259.552,3145.345,1286.405,3192.399,1335.274z M2268.865,2293.263
			c-1.414,18.258-11.153,24.688-18.396,39.391c-10.943,22.217,1.752,45.557,3.445,68.407c2.17,29.363-17.781,44.747-23.35,72.552
			c-4.574,22.808,1.914,47.235-9.287,68.73c-8.171,15.684-25.756,24.586-30.686,42.412c-8.499,30.687,11.43,67.647,9.997,99.459
			c-1.229,26.934-7.609,53.97-7.662,80.883c-0.036,20.895,10.996,33.432,14.689,53.051c6.119,32.401-19.132,60.439-9.539,92.826
			c11.691,39.447,32.388,64.927,59.654,94.443c28.194,30.511,50.858,65.505,79.489,95.856
			c58.585,62.121,131.771,121.744,217.074,140.575c65.529,14.474,154.794-5.898,209.886-43.426
			c18.218-12.412,55.368-32.581,67.97-49.965c8.123-11.192,9.813-27.062,18.131-38.765c10.754-15.13,23.461-20.044,37.925-30.828
			c30.168-22.479,47.224-49.967,83.827-66.089c91.25-40.195,109.564-159.657,184.711-219.867
			c28.521-22.858,51.918-36.776,66.582-70.535c14.579-33.564,24.18-71.983,46.172-101.685c14.175-19.148,35.915-29.91,49.323-47.99
			c15.327-20.671,16.535-43.711,33.233-63.962c16.087-19.509,37.795-34.425,44.042-60.36
			c11.394-47.316,13.855-100.685,32.866-145.606c5.688-13.436,17.715-28.192,19.228-43.197c6.49-64.436-3.15-136.985-9.954-201.443
			c-3.521-33.403-19.384-63.982-22.116-96.624c-2.23-26.704,17.766-46.37,17.458-72.006c-0.402-34.173-31.553-63.841-48.53-90.663
			c-20.628-32.597-36.21-77.569-63.11-105.327c-13.962-14.408-33.613-19.021-46.359-35.413
			c-41.758-53.683-17.224-123.366-49.829-177.516c-14.114-23.432-46.648-31.695-70.236-41.624
			c-25.603-10.762-42.373-26.876-64.396-43.952c-28.609-22.171-67.152-40.869-103.654-43.922
			c-37.23-3.111-75.208-3.41-111.31-16.698c-51.281-18.87-77.454-74.369-133.455-82.983c-66.07-10.167-152.853-4.415-210.652,32.412
			c-97.383,62.047-111.487,197.109-156.349,293.994c-22.609,48.829-57.244,86.046-84.104,131.261
			c-14.461,24.334-6.241,38.341-2.547,62.408c4.23,27.614-6.188,59.609-13.78,85.856c14.453,14.912,14.14,43.577,11.836,63.071
			c-3.991,33.591-16.403,67.101-21.982,100.576c-6.246,37.494-8.976,72.202-6.034,110.657c2.203,28.794,6.503,44.781,0.663,72.652
			c-4.281,20.403,2.314,39.863,6.435,59.536C2268.21,2273.543,2269.647,2283.298,2268.865,2293.263z" style="stroke:black;fill:#82c7ae"/><path id="180606756" parent_id="180606745" order="5" structure_id="220" d="M2513.021,1651.327
			c19.879-39.336,58.764-95.604,99.182-117.013c48.939-25.919,102.326-22.321,150.328,3.622
			c91.953,49.703,146.682,146.665,205.329,228.117c63.929,88.799,145.546,169.279,175.687,277.57
			c28.302,101.756,22.094,206.166-14.342,305.212c-26.8,72.82-79.944,132.129-127.559,191.726
			c-35.446,44.365-75.621,93.911-97.474,146.113c-53.082,126.821-134.456,227.533-245.292,307.817
			c-25.258,18.294-60.055,43.563-92.016,47.262c-36.119,4.181-78.77-19.988-104.72-43.647
			c-21.452-19.551-36.63-50.304-43.742-77.892c-31.238-121.12-24.176-251.383,16.338-370.015
			c14.032-41.071,45.583-79.271,55.468-120.742c9.493-39.812,10.596-81.671,12.004-122.459
			c5.685-164.425-14.448-327.207-19.688-491.296C2480.759,1760.396,2485.448,1705.863,2513.021,1651.327z M2778.708,2253.15
			c5.575-19.59-17.534-134.72-42.135-90.955c-10.311,18.364-1.567,181.748-10.493,182.977
			C2743.282,2344.265,2773.986,2269.769,2778.708,2253.15z" style="stroke:black;fill:#82c7ae"/><path id="180606754" parent_id="180606745" order="6" structure_id="228" d="M3141.239,2449.133
			c101.981-175.989,72.008-386.741-11.685-563.345c-25.524-53.865-61.011-110.237-109.435-144.394
			c-13.271-9.36-25.796-20.05-37.689-31.622c-36.476-35.461-67.212-79.207-96.635-118.543
			c-44.317-59.272-78.826-109.874-156.264-125.57c-45.887-9.309-75.461,11.703-114.007,31.144
			c-43.303,21.841-66.065,50.178-89.485,90.012c-32.538,55.342-70.053,106.632-73.243,173.075
			c-7.731,161.663,26.225,323.431,12.257,485.011c-7.06,81.626-32.261,161.4-47.161,241.813
			c-31.876,171.981-102.018,384.347,17.17,537.307c36.977,47.463,121.568,83.882,178.917,57.169
			c59.198-27.57,120.123-83.024,160.611-133.157c26.727-33.081,52.222-67.694,77.861-101.624
			c61.25-81.052,101.377-174.284,166.684-253.458C3059.083,2544.512,3109.457,2503.997,3141.239,2449.133z M2904.18,2686.677
			c-53.09,126.824-134.463,227.54-245.292,307.821c-25.256,18.299-60.063,43.568-92.016,47.268
			c-36.127,4.181-78.77-19.992-104.721-43.649c-21.45-19.551-36.637-50.304-43.749-77.894
			c-31.237-121.123-24.176-251.39,16.346-370.025c14.024-41.072,45.584-79.274,55.46-120.746
			c9.501-39.812,10.596-81.675,12.004-122.458c5.685-164.428-14.448-327.225-19.69-491.318
			c-1.764-55.302,2.926-109.833,30.498-164.371c19.88-39.341,58.765-95.619,99.181-117.024
			c48.941-25.916,102.328-22.318,150.336,3.622c91.945,49.704,146.675,146.665,205.322,228.123
			c63.93,88.802,145.555,169.283,175.686,277.582c28.311,101.755,22.104,206.168-14.34,305.217
			c-26.8,72.823-79.937,132.133-127.551,191.735C2966.207,2584.921,2926.031,2634.474,2904.18,2686.677z" style="stroke:black;fill:#9ad2bd"/><path id="180606753" parent_id="180606745" order="7" structure_id="236" d="M3020.113,1741.417
			c48.431,34.156,83.918,90.531,109.441,144.386c83.693,176.602,113.667,387.348,11.685,563.335
			c-31.782,54.859-82.156,95.373-122.104,143.814c-65.314,79.169-105.44,172.401-166.684,253.447
			c-25.64,33.933-51.145,68.541-77.861,101.621c-40.489,50.135-101.421,105.589-160.612,133.153
			c-57.355,26.711-141.939-9.706-178.924-57.162c-119.188-152.957-49.046-365.32-17.162-537.293
			c14.893-80.409,40.102-160.189,47.161-241.811c13.961-161.578-19.987-323.337-12.257-484.995
			c3.183-66.442,40.706-117.726,73.243-173.066c23.42-39.833,46.183-68.173,89.487-90.014
			c38.545-19.44,68.119-40.451,114.007-31.146c77.437,15.704,111.946,66.305,156.262,125.571
			c29.425,39.339,60.16,83.083,96.636,118.54C2994.326,1721.364,3006.849,1732.059,3020.113,1741.417z M2416.239,1751.996
			c-5.545,27.191-9.063,55.076-10.554,83.397c-2.73,51.852,7.536,100.251,8.919,152.167c2.742,102.842,4.049,205.257,0.075,307.784
			c-4.893,126.166-44.223,248.559-63.445,372.973c-12.689,82.104-25.745,167.172-12.691,250.073
			c21.844,138.69,179.435,244.162,312.769,183.018c113.815-52.128,171.872-157.095,242.91-253.825
			c63.406-86.321,119.546-178.358,187.964-260.571c51.625-62.044,102.397-126.546,135.608-200.669
			c32.53-72.607,36.3-149.745,35.521-228.248c-1.556-157.291-77.471-302.687-173.797-422.955
			c-53.359-66.606-114.011-126.519-174.442-186.597c-50.317-50.012-103.889-105.26-174.662-124.568
			c-131.785-35.949-233.696,106.9-280.869,209.193C2432.124,1670.949,2424.498,1711.499,2416.239,1751.996z" style="stroke:black;fill:#82c7ae"/><path id="180606752" parent_id="180606745" order="8" structure_id="244" d="M2832.159,3148.476
			c8.114-11.192,9.813-27.067,18.132-38.767c10.753-15.132,23.451-20.045,37.923-30.833c30.162-22.476,47.216-49.965,83.827-66.091
			c91.242-40.196,109.564-159.657,184.712-219.875c28.519-22.859,51.909-36.775,66.573-70.535
			c14.579-33.565,24.18-71.981,46.173-101.688c14.183-19.148,35.923-29.911,49.331-47.996
			c15.318-20.659,16.526-43.708,33.225-63.951c16.095-19.519,37.803-34.437,44.042-60.37
			c11.394-47.316,13.864-100.689,32.874-145.606c5.68-13.44,17.707-28.197,19.219-43.202c6.5-64.438-3.143-136.989-9.946-201.449
			c-3.527-33.408-19.39-63.984-22.114-96.623c-2.239-26.709,17.757-46.372,17.456-72.016c-0.401-34.166-31.56-63.835-48.537-90.661
			c-20.619-32.599-36.212-77.568-63.111-105.327c-13.961-14.408-33.612-19.025-46.358-35.417
			c-41.758-53.685-17.216-123.37-49.829-177.517c-14.115-23.441-46.648-31.7-70.236-41.625
			c-25.603-10.767-42.375-26.882-64.396-43.958c-28.61-22.172-67.152-40.87-103.653-43.923
			c-37.232-3.111-75.209-3.411-111.31-16.695c-51.281-18.874-77.455-74.368-133.456-82.986
			c-66.07-10.171-152.854-4.415-210.652,32.409c-97.383,62.053-111.479,197.119-156.349,294.006
			c-22.608,48.827-57.235,86.049-84.096,131.265c-14.461,24.331-6.249,38.338-2.555,62.406c4.237,27.614-6.188,59.611-13.781,85.863
			c14.453,14.912,14.148,43.572,11.836,63.072c-3.991,33.592-16.403,67.103-21.982,100.579c-6.245,37.495-8.975,72.207-6.033,110.66
			c2.203,28.795,6.511,44.778,0.663,72.65c-4.282,20.404,2.322,39.867,6.434,59.542c2.036,9.718,3.466,19.475,2.692,29.438
			c-1.423,18.256-11.162,24.688-18.396,39.393c-10.944,22.212,1.743,45.558,3.437,68.409c2.17,29.363-17.781,44.749-23.35,72.554
			c-4.565,22.809,1.922,47.236-9.28,68.732c-8.17,15.684-25.762,24.582-30.693,42.414c-8.49,30.687,11.439,67.649,9.997,99.461
			c-1.229,26.935-7.602,53.972-7.662,80.885c-0.028,20.896,11.002,33.433,14.697,53.053c6.113,32.402-19.14,60.441-9.538,92.827
			c11.684,39.45,32.38,64.931,59.652,94.444c28.188,30.514,50.859,65.511,79.49,95.858
			c58.586,62.128,131.771,121.746,217.067,140.583c65.536,14.472,154.795-5.898,209.894-43.431
			C2782.407,3186.025,2819.558,3165.859,2832.159,3148.476z M2651.319,3101.423c-133.342,61.144-290.933-44.329-312.769-183.021
			c-13.062-82.904,0.002-167.98,12.685-250.081c19.23-124.421,58.552-246.813,63.453-372.984
			c3.972-102.528,2.666-204.952-0.084-307.792c-1.383-51.917-11.65-100.319-8.919-152.172c1.49-28.323,5.008-56.212,10.553-83.4
			c8.259-40.498,15.893-81.057,33.306-118.832c47.173-102.295,149.092-245.153,280.87-209.198
			c70.771,19.305,124.353,74.559,174.662,124.576c60.432,60.072,121.09,119.99,174.441,186.595
			c96.335,120.275,172.241,265.671,173.806,422.962c0.771,78.509-2.993,155.645-35.529,228.263
			c-33.211,74.121-83.983,138.625-135.608,200.67c-68.418,82.216-124.549,174.256-187.964,260.58
			C2823.184,2944.324,2765.136,3049.289,2651.319,3101.423z" style="stroke:black;fill:#9ad2bd"/><path id="180606758" parent_id="180606745" order="9" structure_id="1009" d="M3664.549,1975.919
			c-21.369-130.019-69.266-217.493-135.421-330.863c-38.379-65.755-106.532-123.177-159.807-176.825
			c-75.116-75.621-167.316-154.932-269.414-198.213c34.237,15.465,64.896,36.549,92.5,65.218
			c12.319,12.797,28.295,24.614,38.325,39.345c10.537,15.503,12.499,35.619,24.546,50.355c6.762,8.207,20.7,8.049,29.918,12.096
			c31.474,13.856,48.773,26.084,57.919,61.383c9.456,36.511,34.188,36.855,56.727,63.959c8.004,9.611,3.203,23.355,9.328,32.665
			c8.86,13.461,18.321,7.417,31.2,13.784c19.888,9.83,40.538,39.573,46.852,60.193c9.459,30.909,20.087,49.639,36.931,76.001
			c14.839,23.222-9.093,38.522,0.795,60.596c9.742,21.734,41.64,11.713,46.411,42.352c4.121,26.453-24.176,41.274-9.619,71.107
			c22.209,45.569,29.826,78.34,32.469,128.422c2.109,40.07-15.545,83.793-9.422,125.256c6.663,45.118,6.9,81.63-5.418,126.895
			c24.147,29.938,31.764,70.621,7.522,102.24c-24.569,32.052-17.431,66.117-32.476,103.517
			c-16.31,40.544-48.19,67.845-63.808,108.265c-14.699,38.066-38.065,72.025-57.604,107.631
			c-24.646,44.893-54.925,68.087-91.59,101.592c-1.488-0.312-2.991-0.57-4.501-0.776c-34.852,40.621-88.25,69.432-115.962,115.183
			c-18.36,30.316-27.557,64.764-50.961,92.088c-23.126,26.985-51.211,48.957-71.601,78.481
			c-28.82,41.738-75.558,73.131-119.36,98.121c-21.762,12.407-38.145,31.276-58.27,45.735
			c-17.289,12.425-35.394,15.24-54.484,23.146c-14.861,6.155-24.189,21.609-37.774,28.499c-13.087,6.646-27.515,4.228-40.815,10.637
			c-24.205,11.673-36.743,32.897-63.214,39.868c-20.114,5.294-42.112,8.952-63.354,7.397
			c150.654,35.276,314.419,13.468,450.084-73.097c79.004-50.414,147.443-117.959,207.249-194.036
			c87.1-110.785,155.898-239.677,212.413-360.116C3638.174,2505.377,3705.749,2226.432,3664.549,1975.919z" style="stroke:black;fill:#cccccc"/><path id="180606759" parent_id="180606745" order="10" structure_id="1009" d="M2082.657,2487.931
			c-0.125-22.819-0.916-50.168,4.893-72.276c6.428-24.489,23.181-43.279,25.716-69.162c5.827-59.627,17.307-120.111,20.73-180.098
			c3.267-57.341-10.521-113.702-5.175-171.711c2.372-25.735,6.334-51.167,3.302-76.995c-2.322-19.836-0.551-35.621,3.549-50.371
			c-53.558,129.698-87.875,280.659-95.595,420.384c-5.765,104.398-1.333,203.682,16.862,299.676
			c0.129-10.193,3.966-20.107,12.867-38.751C2080.421,2526.385,2082.802,2511.887,2082.657,2487.931z" style="stroke:black;fill:#cccccc"/><path id="180606757" parent_id="180606745" order="11" structure_id="98" d="M2726.088,2345.161
			c8.918-1.229,0.175-164.613,10.494-182.978c24.601-43.766,47.709,71.364,42.134,90.953
			C2773.986,2269.756,2743.282,2344.263,2726.088,2345.161z" style="stroke:black;fill:#aaaaaa"/></g>
</g>
</svg>