<svg width="6144" height="5376" xmlns="http://www.w3.org/2000/svg">
<g transform="scale(1.0)">
<g id="180609911" order="1" parent_id="" graphic_group_label_id="28" graphic_group_label="Atlas - Adult Mouse" sub_image_id="100960420" transform=" scale(1.0, 1.0)"><path id="180609913" parent_id="180609911" order="0" structure_id="8" d="M4164.914,2601.023
			c8.381-2.138-71.277,24.368-168.779,21.953c-75.938-1.879-166.66-8.189-260.878-19.575
			c-76.243-9.22-162.342-34.275-232.079-58.546c-14.604-5.084-30.951-12.979-44.51-18.361
			c-40.678-16.141-74.107-37.436-104.771-60.891c-64.365-49.246-103.741-99.645-116.205-177.826
			c-28.344-177.813-38.631-394.486,0.896-650.551c48.926-316.989,93.27-606.047,373.654-701.015
			c168.631-57.118,357.363-90.776,593.949-42.638c496.07,100.938,1075.088,436.206,1226.065,789.734
			c111.586,261.287,84.542,654.469-1.69,909.159c-63.664,188.015-232.685,466.104-410.84,587.362
			c-93.049,63.334-200.371-65.701-309.465-172.354c-56.188-54.938-105.763-91.537-135.971-117.979
			c-30.207-26.439-41.051-42.72-51.371-44.382c-17.447-2.812,179.008,139.19,325.006,330.226
			c67.885,88.825,103.252,195.165,115.107,279.775c41.026,292.893-113.31,690.627-301.09,906.824
			c-264.765,304.828-589.815,449.095-1066.578,333.189c-186.643-45.372-357.188-151.779-415.513-364.229
			c-108.83-396.476-28.381-1151.014,156.224-1420.899c192.586-281.551,509.968,5.412,746.473-206.104
			C4082.549,2703.9,4149.43,2604.95,4164.914,2601.023z" style="stroke:black;fill:#bfdae3"/><path id="180609914" parent_id="180609911" order="1" structure_id="688" d="M5432.255,1683.298
			c-150.974-353.528-729.993-688.789-1226.067-789.723c-236.586-48.14-425.314-14.48-593.95,42.639
			c-280.379,94.967-324.726,384.021-373.649,701.009c-39.515,256.06-29.236,472.734-0.892,650.544
			c12.467,78.181,51.843,128.577,116.2,177.822c30.664,23.453,64.1,44.75,104.78,60.892c13.554,5.383,30.112,16.028,44.72,21.111
			c69.73,24.271,155.625,46.574,231.866,55.793c94.22,11.385,184.937,17.694,260.877,19.575
			c83.579,2.071,155.597-17.54,169.187-21.843c0.627-0.333,1.205-0.576,1.719-0.707c1.194-0.305,0.545-0.01-1.719,0.707
			c-18.277,9.726-82.773,102.764-82.773,102.764c-236.504,211.516-553.885-75.441-746.473,206.105
			c-184.611,269.883-265.052,1024.416-156.219,1420.883c58.327,212.448,228.868,318.855,415.516,364.227
			c476.76,115.9,801.815-28.365,1066.576-333.189c187.78-216.193,342.117-613.928,301.088-906.818
			c-11.858-84.604-47.224-190.948-115.114-279.769c-145.997-191.033-342.451-333.033-325.009-330.226
			c10.327,1.662,21.172,17.945,51.382,44.387c30.209,26.438,79.782,63.035,135.97,117.971
			c109.094,106.65,216.41,235.688,309.463,172.354c178.16-121.262,347.177-399.344,410.838-587.361
			C5516.805,2337.757,5543.844,1944.582,5432.255,1683.298z M3911.857,3771.28c-16.584-0.588-78.672-90.072-43.947-126.822
			c63.271-66.967,200.23-121.728,208.167-54.229C4082.78,3647.314,3966.814,3769.229,3911.857,3771.28z" style="stroke:black;fill:#b0ffb8"/><path id="180609943" parent_id="180609911" order="2" structure_id="320" d="M5325.811,2209.158l176.471,5.171
			c-9.18,137.209-35.146,270.086-71.693,378.088c-13.084,38.737-30.703,81.3-51.955,125.562l-3.185-1.523l-114.046-105.114
			c7.004-17.192,13.186-34.581,18.532-51.916C5311.855,2455.412,5327.666,2332.639,5325.811,2209.158z" style="stroke:black;fill:#1f9d5a"/><path id="180609942" parent_id="180609911" order="3" structure_id="943" d="M5325.811,2209.158
			c1.855,123.48-13.955,246.253-45.877,350.266c-5.348,17.335-11.527,34.723-18.531,51.916l-237.584-218.952
			c17.225-68.903,23.715-132.542,20.985-191.521L5325.811,2209.158z" style="stroke:black;fill:#1f9d5a"/><path id="180609941" parent_id="180609911" order="4" structure_id="648" d="M5044.805,2200.866
			c2.729,58.979-3.763,122.618-20.985,191.521l-210.722-194.164l-0.517-4.171L5044.805,2200.866z" style="stroke:black;fill:#1f9d5a"/><path id="180609940" parent_id="180609911" order="5" structure_id="656" d="M5432.223,1683.305
			c64.271,150.441,82.556,344.684,70.059,531.024l-176.471-5.171c-2.252-152.148-31.209-305.325-89.649-425.744
			c-102.562-211.262-323.153-398.717-527.906-512.857c-92.687-51.618-187.741-92.607-285.987-132.631
			c-110.525-45.024-234.058-58.205-353.325-74.471c-151.917-20.746-304.874-5.068-443.774,80.373
			c-4.413,2.667-8.75,5.504-13.003,8.343L3497.76,993.892c33.058-23.496,70.952-42.916,114.496-57.652
			c168.629-57.146,357.354-90.825,593.928-42.664C4702.251,994.529,5281.296,1329.806,5432.223,1683.305z" style="stroke:black;fill:#1f9d5a"/><path id="180609939" parent_id="180609911" order="6" structure_id="962" d="M5236.16,1783.415
			c58.439,120.419,87.398,273.596,89.65,425.744l-281.008-8.292c-14.883-337.137-325.502-524.707-610.235-706.792
			c-88.524-56.538-283.804-140.36-387.407-160.392c-73.579-14.232-198.121-8.263-281.801,30.549l-153.196-212.06
			c4.253-2.839,8.591-5.676,13.003-8.343c138.9-85.44,291.857-101.118,443.774-80.373c119.268,16.267,242.8,29.446,353.325,74.471
			c98.246,40.022,193.303,81.012,285.987,132.631C4913.006,1384.698,5133.6,1572.152,5236.16,1783.415z" style="stroke:black;fill:#1f9d5a"/><path id="180609938" parent_id="180609911" order="7" structure_id="767" d="M4434.566,1494.074
			c284.734,182.085,595.354,369.656,610.236,706.792l-232.223-6.813l-92.693-86.584l-113.643-102.44l-99.91-75.13l-120.937-77.036
			l-106.912-55.611l-134.81-62.911l-135.25-50.469l-12.441-0.441L3765.36,1364.23c83.68-38.812,208.222-44.781,281.801-30.549
			C4150.766,1353.713,4346.043,1437.536,4434.566,1494.074z" style="stroke:black;fill:#1f9d5a"/><path id="180609958" parent_id="180609911" order="8" structure_id="171" d="M3497.758,993.892l114.405,158.28
			c-95.113,63.82-170.004,173.371-193.555,284.906c-4.201,20.116-7.335,40.602-9.644,61.2l-139.878-44.072l-0.249-0.009
			C3305.439,1260.321,3359.91,1091.828,3497.758,993.892z" style="stroke:black;fill:#2fa850"/><path id="180609957" parent_id="180609911" order="9" structure_id="304" d="M3612.163,1152.171l153.196,212.06
			c-23.389,10.799-43.547,24.203-58.49,40.45c-23.751,25.735-48.836,89.13-69.65,165.63l-228.252-72.033
			c2.308-20.599,5.44-41.084,9.643-61.2C3442.159,1325.542,3517.05,1215.992,3612.163,1152.171z" style="stroke:black;fill:#2fa850"/><path id="180609956" parent_id="180609911" order="10" structure_id="363" d="M3765.36,1364.23l230.627,319.197l-358.77-113.117
			c20.815-76.5,45.9-139.895,69.651-165.63C3721.813,1388.434,3741.972,1375.029,3765.36,1364.23z" style="stroke:black;fill:#2fa850"/><path id="180609949" parent_id="180609911" order="11" structure_id="448" d="M4175.628,2590.905l-70.584-356.718
			c24.26-0.22,47.183-0.238,66.886-0.787c82.381-2.147,153.838,29.783,210.013,89.909
			c119.462,128.063,292.753,321.482,397.24,461.97c39.718,53.396,81.711,84.783,123.905,98.735l40.281,307.142l-0.305,1.566
			c-76.842-18.253-161.355-113.02-232.795-185.313c-48.672-49.146-105.085-88.436-156.784-134.2
			c-13.851-12.284-30.217-21.501-36.03-35.577c-21.805-52.68-34.373-101.129-40.145-111.715
			c-35.079-64.777-77.674-128.409-142.479-144.158c-38.951-9.436-103-13.697-137.402,3.271c-6.593,3.254-13.51,6.25-20.58,8.905
			L4175.628,2590.905z" style="stroke:black;fill:#248a5e"/><path id="180609948" parent_id="180609911" order="12" structure_id="412" d="M4848.484,2467.652l54.603,416.363
			c-42.194-13.952-84.188-45.34-123.905-98.736c-104.486-140.487-277.777-333.907-397.239-461.969
			c-56.174-60.127-127.631-92.058-210.013-89.909c-19.703,0.548-42.625,0.566-66.886,0.787l-67.848-342.501
			c7.491-2.809,14.385-5.139,20.836-6.736c141.202-35.527,250.909,42.024,370.968,125.093
			c32.102,22.232,124.723,146.021,229.418,266.583C4725.289,2353.577,4791.104,2425.256,4848.484,2467.652z" style="stroke:black;fill:#248a5e"/><path id="180609947" parent_id="180609911" order="13" structure_id="630" d="M4008.429,1683.87l135.249,50.469l134.811,62.911
			l106.912,55.611l120.937,77.037l99.909,75.129l113.643,102.44l92.693,86.584l-4.146-0.146l4.664,4.317l35.388,269.429
			c-57.382-42.396-123.196-114.075-190.067-191.024c-104.695-120.563-197.316-244.352-229.418-266.583
			c-120.06-83.068-229.767-160.622-370.969-125.093c-6.451,1.599-13.345,3.929-20.836,6.736l-41.209-208.26L4008.429,1683.87z" style="stroke:black;fill:#248a5e"/><path id="180609955" parent_id="180609911" order="14" structure_id="484" d="M3269.088,1454.206l139.878,44.072
			c-10.135,89.171-6.692,181.896-26.869,270.877c-16.554,73.413-32.751,136.79-27.216,212.646
			c2.347,32.225,5.689,69.135,11.387,107.623l-139.477,89.988l-3.253,0.383c-16.336-155.471-16.828-336.209,15.063-542.543
			c9.689-62.526,19.092-123.984,30.236-183.056L3269.088,1454.206z" style="stroke:black;fill:#248a5e"/><path id="180609954" parent_id="180609911" order="15" structure_id="582" d="M3408.966,1498.277l228.252,72.033
			c-34.075,124.949-56.934,284.929-44.44,373.073l-226.51,146.039c-5.695-38.489-9.039-75.398-11.387-107.623
			c-5.535-75.855,10.662-139.232,27.217-212.646C3402.273,1680.173,3398.831,1587.448,3408.966,1498.277z" style="stroke:black;fill:#248a5e"/><path id="180609953" parent_id="180609911" order="16" structure_id="620" d="M3995.987,1683.429l-403.21,259.956
			c-12.492-88.145,10.365-248.124,44.44-373.072L3995.987,1683.429z" style="stroke:black;fill:#248a5e"/><path id="180609952" parent_id="180609911" order="17" structure_id="969" d="M4175.628,2590.905l1.222,3.032
			c-122.703,47.895-315.509,23.209-441.594,9.441c-125.01-13.646-274.811-54.25-390.697-144.895
			c-55.923-43.756-95.691-100.394-106.821-170.718c-5.507-34.496-10.378-70.463-14.198-107.972l3.253-0.383l139.478-89.988
			c17.782,119.311,58.821,252.65,165.793,299.544c132.568,58.181,273.192-89.986,388.533-133.988
			c47.23-18.01,120.479-20.232,184.449-20.791L4175.628,2590.905z" style="stroke:black;fill:#248a5e"/><path id="180609951" parent_id="180609911" order="18" structure_id="288" d="M4037.196,1891.688l67.848,342.502
			c-63.97,0.558-137.219,2.78-184.449,20.791c-115.341,44.002-255.965,192.168-388.532,133.987
			c-106.973-46.893-148.012-180.232-165.795-299.544l226.51-146.039c2.975,21.533,8.176,38.826,15.745,50.224
			C3689.977,2116.087,3921.508,1936.092,4037.196,1891.688z" style="stroke:black;fill:#248a5e"/><path id="180609950" parent_id="180609911" order="19" structure_id="1125" d="M3995.987,1683.429l41.209,208.259
			c-115.688,44.405-347.22,224.4-428.675,101.921c-7.568-11.397-12.771-28.69-15.744-50.224L3995.987,1683.429z" style="stroke:black;fill:#248a5e"/><path id="180609946" parent_id="180609911" order="20" structure_id="996" d="M5375.447,2716.454l3.185,1.524
			c-81.78,170.433-217.426,365.616-358.868,461.848c-24.083,16.339-49.932,19.244-76.699,12.896l0.305-1.566l-40.281-307.141
			c143.569,47.689,289.756-105.098,358.313-272.677L5375.447,2716.454z" style="stroke:black;fill:#219866"/><path id="180609945" parent_id="180609911" order="21" structure_id="328" d="M5023.818,2392.388L5261.4,2611.34
			c-68.558,167.579-214.744,320.366-358.313,272.676l-54.603-416.363c74.942,55.476,135.459,61.024,164.748-36.688
			C5017.186,2417.898,5020.712,2405.068,5023.818,2392.388z" style="stroke:black;fill:#219866"/><path id="180609944" parent_id="180609911" order="22" structure_id="1101" d="M4813.098,2198.225l210.722,194.164
			c-3.106,12.68-6.634,25.511-10.585,38.576c-29.29,97.711-89.807,92.163-164.748,36.688L4813.098,2198.225z" style="stroke:black;fill:#219866"/><path id="180609915" parent_id="180609911" order="23" structure_id="698" d="M4963.041,3455.086
			c-11.857-84.604-47.223-190.948-115.113-279.768c-141.283-184.865-329.813-323.811-326.035-330.045
			c-1.807-2.404-3.318-4.933-4.438-7.641c-21.805-52.68-34.373-101.129-40.145-111.715
			c-35.08-64.777-77.674-128.409-142.479-144.158c-38.95-9.436-102.999-13.697-137.401,3.271c-6.594,3.254-13.51,6.25-20.58,8.905
			l-0.248-0.614l-10.353,7.356c0.278-0.114,0.545-0.207,0.795-0.271c1.087-0.275,0.634-0.054-1.155,0.526l-6.211,4.413
			c-23.207,20.756-77.125,98.532-77.125,98.532c-236.504,211.516-553.886-75.442-746.474,206.104
			c-184.611,269.883-265.051,1024.416-156.218,1420.883c58.326,212.448,228.867,318.856,415.515,364.228
			c476.76,115.899,801.815-28.365,1066.576-333.19C4849.734,4145.712,5004.07,3747.979,4963.041,3455.086z M3911.857,3771.28
			c-16.584-0.588-78.672-90.072-43.947-126.822c63.271-66.967,200.23-121.728,208.167-54.229
			C4082.78,3647.314,3966.814,3769.229,3911.857,3771.28z" style="stroke:black;fill:#9ad2bd"/><path id="180609916" parent_id="180609911" order="24" structure_id="507" d="M3903.906,2832.117
			c-53.821,66.124-103.41,141.789-134.666,221.287c-55.036,139.947-0.633,397.581,65.883,578.811
			c42.941,117.026,27.68,208.594,57.468,331.48c34.312,141.55,27.656,291.294,57.492,436.208
			c6.461,31.36,29.464,165.42,73.25,249.449c26.021,49.918,80.051,65.132,80.051,65.132
			c-83.86,16.786-158.155,22.663-239.478,19.887c-78.211-2.662-162.914-13.144-268.528-39.274
			c-186.452-46.136-357.188-151.778-415.515-364.228c-108.834-396.467-28.395-1151,156.218-1420.883
			c157.612-230.402,398.784-80.078,610.817-133.797C3946.898,2776.189,3914.841,2818.684,3903.906,2832.117z" style="stroke:black;fill:#9ad2bd"/><path id="180609917" parent_id="180609911" order="25" structure_id="212" d="M3454.811,2804.919
			c-44.693,102.044-98.102,200.61-130.441,307.618c-52.046,172.266-39.75,348.854-41.775,526.445
			c-1.11,96.774-9.742,194.098-6.64,290.853c2.359,73.922,26.408,140.168,51.235,209.076
			c40.229,111.633,74.571,225.62,117.782,336.138c16.282,41.666,38.793,102.781,76.814,129.861
			c42.304,30.128,96.513,39.486,137.934,74.223c15.327,12.854,14.752,24.467-3.429,28.674
			c-28.687,6.638-82.896-22.08-111.226-30.162c-41.954-11.982-83.94-25.365-122.288-46.549
			c-67.09-37.047-126.576-86.983-172-148.949c-32.916-44.904-56.188-97.631-70.915-151.276
			c-108.833-396.467-28.394-1151,156.218-1420.883C3368.398,2862.743,3407.336,2835.137,3454.811,2804.919z" style="stroke:black;fill:#82c7ae"/><path id="180609921" parent_id="180609911" order="26" structure_id="220" d="M3903.906,2832.117
			c-53.821,66.124-103.41,141.789-134.666,221.287c-55.036,139.947-0.633,397.581,65.883,578.811
			c42.941,117.026,27.68,208.594,57.468,331.48c15.911,65.643,24.073,134.951,30.023,202.139
			c5.463,61.564,7.271,123.727,17.791,184.73c9.962,57.703,22.825,112.963,32.747,171.055c4.197,24.535,16.697,39.732-3.826,59.66
			c-33.938,32.943-92.801,16.381-131.771,2.926c-45.504-15.708-81.063-65.484-101.74-105.975
			c-47.693-93.33-92.721-188.976-120.286-290.33c-29.675-109.123-48.099-220.646-69.188-331.606
			c-28.904-152.082-51.844-306.913-53.285-462.015c-1.378-145.806,34.861-281.037,104.188-409.151
			c20.085-37.111,38.695-79.535,68.84-109.488c31.49-31.287,68.524-48.921,106.436-70.352
			c37.196-21.029,69.788-15.121,111.662-18.237c11.218-0.835,55.628-1.467,62.721-10.861
			C3946.898,2776.197,3914.841,2818.684,3903.906,2832.117z" style="stroke:black;fill:#82c7ae"/><path id="180609920" parent_id="180609911" order="27" structure_id="228" d="M3813.865,4572.592
			c-34.193-21.801-61.114-61.195-78.051-94.361c-47.693-93.33-92.721-188.975-120.286-290.33
			c-29.675-109.123-48.099-220.646-69.189-331.605c-28.903-152.082-51.843-306.913-53.284-462.016
			c-1.379-145.805,34.86-281.037,104.188-409.15c16.907-31.24,32.77-66.245,55.348-94.406c2.047-2.553,1.411-8.888-2.574-9.351
			c-4.276-0.496-12.004,4.978-12.004,4.978c-22.468,18.146-44.518,37.077-59.541,59.711c-24.738,37.24-32.455,73.492-49.056,113.976
			c-12.345,30.116-28.944,58.335-39.458,89.229c-62.273,182.974-13.94,381.398,0.771,567.224
			c7.635,96.491,26.464,188.972,43.875,283.461c2.617,14.213,5.212,28.463,7.717,42.789
			c10.553,60.121,31.984,115.013,52.646,172.045c20.578,56.813,32.843,114.656,60.418,169.017
			c30.914,60.94,61.424,114.619,105.713,167.114c5.925,7.02,15.832,16.451,23.656,26.563c3.913,5.056,20.396,13.385,27.639,11.501
			C3819.635,4587.096,3817.641,4574.999,3813.865,4572.592z" style="stroke:black;fill:#9ad2bd"/><path id="180609919" parent_id="180609911" order="28" structure_id="236" d="M3534.602,3999.947
			c-17.41-94.489-36.239-186.969-43.875-283.46c-14.711-185.825-63.045-384.251-0.771-567.224
			c10.513-30.896,27.113-59.113,39.458-89.229c16.6-40.481,24.316-76.733,49.055-113.976
			c25.354-38.196,70.721-65.853,104.326-96.966c8.908-8.235,20.418-16.308,17.889-29.642c-16.705,0.138-32.187,12.441-46.047,20.843
			c-44.086,26.72-76.564,49.869-106.436,91.688c-42.439,59.418-63.92,127.41-84.604,196.599
			c-15.806,52.848-28.718,107.149-34.318,162.073c-12.28,120.401,0.907,236.177,16.601,355.181
			c15.521,117.627,27.729,235.747,48.091,352.685c11.519,66.227,25.646,132.066,44.386,196.643
			c20.571,70.817,40.917,154.275,76.564,219.066c30.443,55.35,60.728,115.98,109.968,157.857
			c17.111,14.549,47.767,34.793,71.037,36.028c4.799-19.474-22.979-43.166-34.829-57.204
			c-44.289-52.495-74.798-106.174-105.713-167.113c-27.575-54.359-39.839-112.205-60.418-169.017
			c-20.661-57.033-42.093-111.924-52.646-172.046C3539.814,4028.41,3537.22,4014.16,3534.602,3999.947z" style="stroke:black;fill:#82c7ae"/><path id="180609918" parent_id="180609911" order="29" structure_id="244" d="M3449.7,2816.488
			c-43.597,97.945-94.216,193.09-125.332,296.049c-52.046,172.266-39.75,348.855-41.776,526.446
			c-1.11,96.773-9.742,194.097-6.639,290.852c2.358,73.923,26.408,140.168,51.234,209.076
			c40.229,111.633,74.571,225.62,117.782,336.138c16.283,41.666,38.793,102.781,76.815,129.861
			c42.304,30.128,172.182,62.123,172.182,62.123s70.532,13.467,82.532,1.467s-34.502-81.863-51.613-96.412
			c-49.24-41.877-79.522-102.51-109.968-157.857c-35.647-64.791-55.993-148.25-76.564-219.066
			c-18.74-64.576-32.867-130.417-44.386-196.643c-20.361-116.938-32.568-235.059-48.091-352.686
			c-15.692-119.004-28.88-234.778-16.601-355.181c5.602-54.923,18.513-109.227,34.318-162.073
			c20.687-69.188,42.165-137.181,84.604-196.598c18.694-26.176,38.411-45.036,61.356-62.036c6.447-4.776,54.94-57.448-13.06-73.448
			c-31.139-7.326-88.848-0.128-120.148,4.75C3463.278,2803.287,3451.415,2812.637,3449.7,2816.488z" style="stroke:black;fill:#9ad2bd"/><path id="180609922" parent_id="180609911" order="30" structure_id="159" d="M3938.906,4133.87
			c12.62,66.866,13.771,85.788,25.482,152.815c6.646,38.056,15.758,77.541,23.555,115.377
			c10.286,49.986,43.188,285.078,161.105,293.269c90.855,6.306,188.43-58.942,299.646-135.767
			c95.783-66.166,173.854-152.299,213.256-197.66c187.781-216.192,342.119-613.928,301.088-906.818
			c-11.857-84.604-47.223-190.948-115.113-279.768c-35.032-45.85-85.732-102.175-141.652-157.627
			c-37.277-36.957-75.737-74.672-114.289-108.854c-48.09-42.643-45.09-46.926-100.791-82.518
			c-141.279-90.263-427.373-140.039-542.853,1.827c-53.821,66.124-108.192,142.968-142.966,220.991
			c-80.609,180.833,0.396,451.612,44.662,565.484c30.882-22.347,98.951-69.221,154.395-91.744
			c41.483-16.853,83.916-29.186,122.742-34.355c41.436-5.523,127.792-19.645,139.374,38.765
			c8.812,44.409-34.537,95.754-59.104,129.152c-68.055,92.54-134.568,185.011-217.375,265.263
			c-31.588,30.606-49.339,71.288-48.334,115.442c0.18,7.599,5.901,98.429-4.619,97.602L3938.906,4133.87z" style="stroke:black;fill:#54bf94"/><path id="180609927" parent_id="180609911" order="31" structure_id="167" d="M4129.523,3482.082
			c-15.457-36.527-53.254-55.847-74.983-87.934c-1.063-1.568-2.037-3.205-3.049-4.809c-8.742-13.842-16.796-28.02-23.673-42.887
			c-7.299-15.777-13.655-32.01-19.385-48.418c-5.809-16.639-10.769-33.549-14.938-50.669c-4.024-16.521-7.534-33.2-10.199-49.996
			c-1.251-7.884-2.271-15.802-3.024-23.748c-0.364-3.839-0.67-7.686-0.938-11.531c-0.133-1.903-0.256-3.808-0.375-5.712
			c-0.063-1.029-0.916-4.916-0.348-5.695c1.643-2.251,5.395-2.374,7.887-2.69c6.521-0.831,12.861-2.446,19.354-3.412
			c13.091-1.948,26.195-3.654,39.317-5.374c13.151-1.725,26.392-2.938,39.593-4.208c13.088-1.261,26.172-2.573,39.256-3.867
			c12.812-1.267,25.617-2.626,38.39-4.25c1.547-0.197,3.093-0.396,4.64-0.598c57.422-7.534,116.429-3.873,172.929,8.469
			c29.265,6.394,58.104,15.376,85.873,26.589c18.612,7.516,77.106,26.547,53.537,56.984
			c-58.229,104.499-143.022,195.001-221.801,282.822l-3.976,1.062c-27.267-27.31-87.236-18.996-122.049-14.276L4129.523,3482.082z" style="stroke:black;fill:#54bf94"/><path id="180609923" parent_id="180609911" order="32" structure_id="175" d="M4269.328,3033.011
			c55.313,9.155,129.566,12.442,181.402,36.88c38.168,17.986,137.817,100.517,179.488,93.083
			c82.134-15.153-86.413-112.042-101.596-121.209c-83.235-50.254-196.26-156.946-301.396-91.737
			C4161.338,2990.903,4227.568,3026.097,4269.328,3033.011z" style="stroke:black;fill:#54bf94"/><path id="180609924" parent_id="180609911" order="33" structure_id="175" d="M3943.347,4102.512
			c-0.368,17.092-3.903,33.975-0.821,50.785c2.779,15.168,5.31,30.39,7.742,45.619c4.676,29.266,9.019,58.574,14.122,87.771
			c3.828,21.917,8.475,44.309,13.214,66.585l4.725,1.869c52.921,36.849,244.406,183.472,254.927,17.196
			c3.269-51.686-44.76-78.453-80.379-103.662c-20.134-14.25-39.483-29.65-57.271-46.765
			c-46.793-45.024-101.351-79.466-153.373-117.894L3943.347,4102.512z" style="stroke:black;fill:#54bf94"/><path id="180609926" parent_id="180609911" order="34" structure_id="183" d="M4257.583,3501.148
			c78.771-87.813,163.552-178.305,221.782-282.789c14.055-25.22,29.924-13.879,49.163,0.534
			c20.342,15.238,39.278,32.63,56.172,51.614c34.979,39.313,60.533,86.559,73.558,137.578
			c46.047,180.354-54.138,329.893-169.131,457.958c-28.824,32.101-56.814,64.887-83.959,98.455
			c-11.793,14.584-26.666,34-38.697,48.935c-10.834,13.447-25.421-2.47-37.484-12.83c-34.308-29.461-61.289-64.761-99.26-90.932
			c-37.01-25.496-90.912-79.189-135.055-88.313l-11.626-1.395c43.466-52.745,83.656-108.122,124.398-163.522
			c24.567-33.398,67.917-84.743,59.104-129.152c-2.098-10.578-6.647-18.777-12.939-25.08L4257.583,3501.148z" style="stroke:black;fill:#54bf94"/><path id="180609928" parent_id="180609911" order="35" structure_id="191" d="M4129.523,3482.082
			c-15.457-36.527-53.254-55.847-74.983-87.934c-42.636-62.955-70.43-161.639-75.528-235.073c-0.344-1.895-0.072-6.269-1.214-7.711
			c-1.399-1.772-6.233,0.761-7.925,1.229c-3.995,1.106-8.113,1.663-12.148,2.602c-4.875,1.131-9.733,2.329-14.563,3.642
			c-9,2.446-17.896,5.293-26.58,8.699c-8.536,3.348-16.859,7.229-24.913,11.613c-8.002,4.356-15.739,9.199-23.188,14.449
			c-7.464,5.263-14.646,10.934-21.457,17.019c-6.904,6.17-13.429,12.777-19.385,19.871c-6.21,7.397-11.778,15.325-16.593,23.699
			c-5.226,9.088-9.548,18.667-13.163,28.501c-3.988,10.847-7.129,21.986-9.853,33.213c-2.875,11.853-6.166,24.092-7.78,36.188
			l-0.095,0.021c15.454,106.417,47.404,204.696,69.882,262.52c30.882-22.347,98.951-69.221,154.395-91.745
			c41.482-16.852,125.616-34.742,127.127-34.947L4129.523,3482.082z" style="stroke:black;fill:#54bf94"/><path id="180609925" parent_id="180609911" order="36" structure_id="199" d="M4082.998,3819.964
			c-29.116,35.045-59.703,68.917-92.913,100.838c-31.567,30.334-49.301,70.661-48.283,114.437
			c0.108,4.496,2.198,38.383,1.632,64.803l2.887,1.494c52.014,38.111,106.563,72.271,153.352,116.925
			c26.212,25.017,55.675,46.28,86.602,65.892l19.561-8.959c84.674-28.533,95.98-101.232,120.346-176.52
			c6.203-19.166,21.367-40.831,24.399-59.922c2.446-15.399-10.405-30.23-21.667-39.821c-34.307-29.221-61.29-64.228-99.259-90.187
			c-37.004-25.287-90.901-78.536-135.032-87.594L4082.998,3819.964z" style="stroke:black;fill:#54bf94"/><path id="180609937" parent_id="180609911" order="37" structure_id="160" d="M4845.211,3301.585
			c-43.35-99.445-103.104-190.43-184.458-262.853c-48.203-42.918-104.002-83.061-165.265-104.284
			c-41.063-14.222-119.069-33.293-99.269-52.486c28.726-18.44,87.028,6.756,119.985,17.382
			c60.24,19.416,118.41,55.19,172.145,100.626c-31.626-31.175-63.962-62.401-96.365-91.131
			c-48.09-42.644-45.091-46.926-100.792-82.519c-141.278-90.262-427.373-140.037-542.853,1.828
			c-53.82,66.124-108.191,142.969-142.966,220.991c-39.678,89.01-40.198,199.812-25.219,302.966l0.094-0.02
			c1.615-12.096,4.906-24.335,7.781-36.188c2.723-11.226,5.863-22.366,9.853-33.213c3.614-9.834,7.938-19.413,13.162-28.501
			c4.814-8.374,10.384-16.302,16.594-23.699c5.956-7.094,12.479-13.7,19.385-19.871c6.813-6.084,13.993-11.756,21.457-17.018
			c7.447-5.251,15.186-10.093,23.188-14.45c8.054-4.386,16.377-8.266,24.912-11.612c8.687-3.406,17.58-6.254,26.58-8.699
			c4.83-1.313,9.689-2.512,14.564-3.643c4.035-0.938,8.153-1.494,12.148-2.601c1.69-0.468,6.523-3.001,7.925-1.229
			c1.141,1.443,0.87,5.817,1.214,7.711c0.307,4.421,0.7,8.938,1.17,13.528c-0.323-3.501-0.604-7.006-0.85-10.512
			c-0.134-1.903-0.257-3.809-0.375-5.712c-0.064-1.029-0.916-4.916-0.349-5.695c1.644-2.251,5.396-2.374,7.888-2.691
			c6.521-0.83,12.86-2.445,19.354-3.412c13.091-1.947,26.196-3.653,39.318-5.373c13.15-1.725,26.391-2.938,39.593-4.209
			c13.088-1.26,26.171-2.572,39.255-3.866c12.813-1.268,25.618-2.626,38.391-4.25c1.547-0.197,3.092-0.396,4.639-0.599
			c57.423-7.533,116.43-3.873,172.93,8.47c29.264,6.393,58.104,15.376,85.873,26.589c17.543,7.083,70.513,24.402,56.795,51.857
			c13.24-18.271,28.127-7.609,45.887,5.694c20.342,15.238,39.279,32.63,56.172,51.614c34.979,39.313,60.533,86.559,73.557,137.578
			c46.049,180.354-54.137,329.893-169.131,457.958c-28.822,32.101-56.813,64.887-83.959,98.455
			c-11.793,14.584-26.666,34-38.696,48.935c-7.69,9.547-17.272,4.291-26.502-3.267c7.019,8.403,12.25,18.464,10.61,28.782
			c-3.033,19.091-18.197,40.756-24.399,59.922c-24.364,75.286-35.672,147.984-120.347,176.52l-19.561,8.959
			c-1.102-0.697-2.193-1.402-3.291-2.104l-0.859,3.981c29.416,20.99,57.666,46.074,55.133,86.109
			c-10.521,166.275-202.007,19.65-254.927-17.195l-4.723-1.869c3.49,16.403,7.033,32.746,10.34,48.791
			c10.286,49.986,43.188,285.078,161.105,293.269c22.028,1.528,44.453-1.159,67.37-7.188l-0.904-5.277
			c-9.574,0.832-21.154-2.542-21.154-2.542c-53.092-16.883-93.277-76.19-52.719-113.979c61.554-57.342,185.235-99.183,284.1-185.115
			c96.398-83.791,135.639-136.388,195.368-240.162c87.823-152.561,159.922-289.201,209.819-459.481
			c18.861-64.365,29.764-129.517,33.428-194.239C4868.346,3416.954,4876.628,3373.688,4845.211,3301.585z M4630.221,3162.975
			c-41.672,7.433-141.32-75.098-179.489-93.084c-51.835-24.438-126.09-27.725-181.401-36.879
			c-41.76-6.914-107.99-42.107-42.101-82.983c105.138-65.209,218.16,41.483,301.396,91.737
			C4543.807,3050.932,4712.354,3147.82,4630.221,3162.975z" style="stroke:black;fill:#54bf94"/><path id="180609960" parent_id="180609911" order="38" structure_id="1009" d="M3867.909,3644.458
			c63.271-66.967,200.23-121.728,208.167-54.229c6.703,57.088-109.264,179.002-164.219,181.053
			C3895.273,3770.691,3833.186,3681.208,3867.909,3644.458z M4004.432,3522.881c-55.441,22.524-103.361,56.746-150.316,85.411
			c-27.723,16.916-7.692,49.467-2.44,75.688c21.188,105.975,22.452,214.718,47.063,320.186c7.78,33.316,8.624,68.123,18.513,101.201
			c2.715,9.064,7.48,28.409,19.866,29.382c10.521,0.827,4.799-90.003,4.62-97.603c-1.005-44.153,16.746-84.836,48.334-115.441
			c82.806-80.252,149.32-172.723,217.373-265.263c24.568-33.398,67.918-84.743,59.105-129.152
			c-11.582-58.408-97.938-44.288-139.374-38.765C4088.348,3493.696,4045.915,3506.029,4004.432,3522.881z" style="stroke:black;fill:#cccccc"/><path id="180609961" parent_id="180609911" order="39" structure_id="1009" d="M4221.619,4681.539
			c170.273-67.579,311.383-171.162,440.334-319.634c51.396-59.17,96.123-126.696,134.333-194.949
			c76.401-136.472,127.265-285.592,156.47-439.004c14.558-76.454,25.436-152.114,16.018-229.919
			c-9.266-76.689-22.186-154.434-65.453-231.472c-86.867-154.673-229.962-316.566-387.111-367.218
			c-32.957-10.627-91.262-35.822-119.986-17.383c-19.802,19.193,58.206,38.267,99.27,52.486
			c61.262,21.225,117.061,61.366,165.264,104.285c81.355,72.422,141.109,163.406,184.458,262.852
			c31.417,72.104,23.134,115.369,19.146,185.762c-3.664,64.723-14.564,129.873-33.428,194.238
			c-49.896,170.28-121.996,306.922-209.818,459.482c-59.73,103.773-98.97,156.371-195.369,240.161
			c-98.862,85.935-222.545,127.774-284.1,185.116c-40.561,37.788-0.373,97.096,52.719,113.979
			C4194.359,4680.323,4211.859,4685.422,4221.619,4681.539z" style="stroke:black;fill:#cccccc"/><path id="180609959" parent_id="180609911" order="40" structure_id="98" d="M3867.909,3644.458
			c63.271-66.967,200.23-121.728,208.167-54.229c6.703,57.088-109.264,179.002-164.219,181.053
			C3895.273,3770.691,3833.186,3681.208,3867.909,3644.458z" style="stroke:black;fill:#aaaaaa"/></g>
</g>
</svg>