<svg width="8016" height="7424" xmlns="http://www.w3.org/2000/svg">
<g transform="scale(1.0)">
<g id="180642794" order="1" parent_id="" graphic_group_label_id="28" graphic_group_label="Atlas - Adult Mouse" sub_image_id="100960116" transform=" scale(1.0, 1.0)"><path id="180642796" parent_id="180642794" order="0" structure_id="8" d="M3824.51,4177.642c51.468-5.291,106.917-1.933,158.628-0.662
			c94.401,2.307,261.159,3.127,375.954-4.779c104.317-7.168,127.961-37.271,214.816-73.869
			c187.42-78.94,365.623-180.902,527.476-186.852c143.692-5.3,155.745,108.163,228.81,191.575
			c56.35,64.35,115.104,120.894,224.213,180.078c127.116,68.951,250.804,221.041,427.95,238.8
			c88.829,8.918,187.234-79.529,263.612-58.66c337.27,92.154,637.666-256.595,813.586-581.653
			c148.525-274.435,296.311-593.19,307.486-833.939c9.641-207.855-63.14-393.347-134.246-591.237
			c-74.575-207.555-188.152-345.367-382.216-470.063c-133.231-85.613-188.307-174.799-297.635-283.567
			c-84.59-84.163-160.563-163.697-256.197-230.036c-88.602-61.462-178.016-120.943-283.153-157.175
			c-125.166-43.127-259.056,22.745-366.086-63.98c-465.1-376.811-978.119-596.053-1536.044-577.495L3824.51,4177.642
			c51.468-5.291,106.917-1.933,158.628-0.662c94.401,2.307,261.159,3.127,375.954-4.779c104.317-7.168,141.158,61.601,201.22-11.025
			c99.015-119.688,379.22-243.746,541.072-249.695c143.692-5.3,155.745,108.163,228.81,191.575
			c56.35,64.35,115.096,120.878,224.188,180.062c82.218,44.598,151.79,107.116,227.949,160.972
			c84.687,59.871,173.946,61.666,235.607,135.88c120.716,145.271,198.954,425.977,192.692,606.437
			c-13.044,375.333-91.29,693.419-418.7,949.839c-105.332,82.485-222.539,172.964-337.317,241.671
			c-114.202,68.366-179.819,109.064-275.153,163.42c-190.678,108.744-380.998,177.683-595.164,217.387
			c-255.296,47.343-553.296,64.793-794.475-42.681c-73.966-32.954-94.254-51.391-174.401-67.439L3824.51,4177.642z" style="stroke:black;fill:#bfdae3"/><path id="180642797" parent_id="180642794" order="1" structure_id="354" d="M6017.939,4579.968
			c-31.302-37.675-69.719-56.685-111.036-74.105c-27.403-8.904-53.531-20.701-78.647-34.366
			c-15.332-7.768-30.701-16.646-45.924-27.408c-0.539-0.381-1.075-0.768-1.613-1.149
			c-81.482-53.239-153.334-120.221-226.312-159.806c-107.404-58.26-166.015-113.961-221.569-177.067
			c-0.882-1.002-1.763-2.005-2.644-3.011c-73.064-83.412-85.117-196.875-228.81-191.575c-1.942,0.071-3.889,0.169-5.836,0.268
			c-37.749,2.005-81.529,10.14-127.738,22.936c-59.252,17.024-120.257,41.824-182.711,69.372
			c-93.979,45.17-178.868,101.614-224.787,157.12c-60.062,72.626-96.902,3.857-201.22,11.025
			c-114.795,7.906-281.553,7.086-375.954,4.779c-51.712-1.271-107.16-4.629-158.628,0.662l-22.039,260.446
			c9.208-0.449,31.932-0.264,36.845,12.022c6.904,17.271,21.401,43.518,25.194,48.009c3.801,4.487,15.415,31.898,3.452,58.705
			c-11.148,24.981-71.111,42.267-79.306,44.525L3615.42,6648.601c80.147,16.049,100.435,34.485,174.401,67.439
			c241.179,107.474,539.179,90.023,794.475,42.681c214.166-39.704,404.486-108.643,595.164-217.387
			c95.334-54.355,160.951-95.054,275.153-163.42c114.778-68.707,231.985-159.186,337.317-241.671
			c327.41-256.42,405.656-574.506,418.7-949.839C6216.894,5005.944,6138.655,4725.239,6017.939,4579.968z" style="stroke:black;fill:#ff9bcd"/><path id="180642818" parent_id="180642794" order="2" structure_id="207" d="M3801.826,4432.673
			c18.152,25.881,99.64-82.729,121.114-104.667c48.691-49.75,99.858-96.801,150.02-143.936l-0.609-5.697
			c-33.349-0.265-63.887-0.776-89.211-1.394c-51.712-1.271-107.16-4.629-158.628,0.662L3801.826,4432.673z" style="stroke:black;fill:#ffa5d2"/><path id="180642812" parent_id="180642794" order="3" structure_id="711" d="M4874.914,3966.025
			c-126.271,48.229-252.307,121.613-312.205,193.451c-14.238,17.093-27.2,26.303-40.05,30.519l-1.291-3.887
			c8.617,23.513,67.225,28.857,93.126,42.892c46.002,25.016,101.653,56.005,136.886,95.319
			c35.363,39.48,39.943,89.661,55.489,139.306c28.905,92.358,102.36-13.043,128.065-51.436
			c20.897-31.18,71.205-71.132,60.289-112.167c-11.477-43.136-73.146-62.693-105.008-84.724
			c-89.561-61.954-77.012-173.719-15.221-249.062L4874.914,3966.025z" style="stroke:black;fill:#ffa5d2"/><path id="180642811" parent_id="180642794" order="4" structure_id="903" d="M5101.385,3911.577c-14.506,0.337-29.166,1.052-43.322,3.898
			c-17.259,3.464-34.226,6.075-51.582,9.62c-10.892,2.229-22.384,3.846-32.813,7.748c-4.938,1.855-9.778,3.342-14.952,4.427
			c-7.448,1.543-14.189,4.918-21.401,7.167c-3.021,0.946-11.014,1.235-13.312,3.521c-0.09,0.081-64.724,55.159-78.157,108.699
			c-20.849,83.103,27.898,132.334,69.036,155.988c49.747,28.609,76.662,43.444,112.65,88.501
			c29.612,37.072,59.591,67.236,110.726,50.136c54.539-18.241,86.23-55.095,121.154-100.139
			c32.528-41.974,67.469-75.038,113.982-98.981c-18.403-19.106-29.953-39.565-48-58.254c-18.314-18.969-29.571-39.396-45.02-61.804
			c-8.975-13.016-16.365-26.77-25.097-39.96c-9.243-13.94-19.428-27.33-31.643-38.798c-6.969-6.538-15.213-12.386-23.115-17.73
			C5170.965,3915.593,5136.406,3910.769,5101.385,3911.577z" style="stroke:black;fill:#ffa5d2"/><path id="180642815" parent_id="180642794" order="5" structure_id="659" d="M4428.79,4395.3c25.71,12.53,36.2,75.63-5.71,93.41
			C4334.36,4519.37,4349.32,4363.96,4428.79,4395.3z" style="stroke:black;fill:#ffa5d2"/><path id="180642817" parent_id="180642794" order="6" structure_id="666" d="M4119.57,4200.48
			c109.22,110.88,109.439,213.609-4.011,272.989l-4.89,2.55c-25.689-6.06-51.78-9.27-78.05-8.77
			c-38.03,0.72-73.51,24.65-110.38,33.05c-22.76,5.21-45.71,13.92-60.56-11.78c-13.75-23.859,6.48-50.409,18.11-69.899
			c26.43-44.271,67.66-79.32,104.24-113.851c33.541-31.659,77.581-103.399,121.07-115.439
			C4113.37,4194.63,4119.57,4200.48,4119.57,4200.48z" style="stroke:black;fill:#ffa5d2"/><path id="180642814" parent_id="180642794" order="7" structure_id="682" d="M4607.36,4391.05
			c62.229,47.46,223.699,170.87,117.04,257.74c-94.54,76.99-227.971,62.58-323.67-8.93c-4.311-3.221-8.601-6.471-12.9-9.75
			c-0.521-7.12-0.34-15.011-0.34-15.011c15.01-66.6,44.34-112.6,74.96-173.17c21.89-47.229,49.939-83.62,69.81-106
			C4557.45,4353.97,4582.6,4372.16,4607.36,4391.05z" style="stroke:black;fill:#ffa5d2"/><path id="180642816" parent_id="180642794" order="8" structure_id="691" d="M4532.26,4335.93c-19.87,22.38-47.92,58.771-69.81,106
			c-30.62,60.57-59.95,106.57-74.96,173.17c0,0-0.181,7.891,0.34,15.011c-34.5-26.25-69-53.801-108.22-76.79
			c-42.07-24.67-83.87-49.891-129.471-65.761c-13.029-4.529-26.199-8.42-39.47-11.54l4.89-2.55
			c113.45-59.38,113.23-162.109,4.011-272.989c0,0-6.2-5.851-14.471-11.15c3-0.83,6-1.38,8.99-1.61l218.15-7.04
			C4394.84,4238.81,4463.74,4286.83,4532.26,4335.93z M4423.08,4488.71c41.91-17.78,31.42-80.88,5.71-93.41
			C4349.32,4363.96,4334.36,4519.37,4423.08,4488.71z" style="stroke:black;fill:#ffa5d2"/><path id="180642809" parent_id="180642794" order="9" structure_id="429" d="M5651.82,5924.34c-24.91-1.99-48.88-7.89-69.65-20.37
			c-32.9-19.76-63.07-54.64-81.33-88.3c-5.12-9.43-9.79-19.09-14.06-28.93l4.739-0.771
			c189.761-26.399,310.841-257.939,400.301-396.38c53.87-83.359,95.8-183.84,117.3-281.46c7.35-33.39,14.62-61.88,15.77-96.2
			c0,0,2.71-31.81-0.35-66.279c45.67,102.729,64.99,217.05,66.22,335.359c1.521,146.7-38.08,294.01-85.08,414.7
			c-17.76,45.59-32.3,84.24-52.109,128.84c-4.761,10.681-13.99,23.75-21.601,32.601c-35.51,41.35-120.05,50.989-169.77,58.989
			C5728.39,5921.58,5689.06,5927.32,5651.82,5924.34z" style="stroke:black;fill:#ffa5d2"/><path id="180642810" parent_id="180642794" order="10" structure_id="437" d="M5455.49,5509.51c24-80.55,71.88-169.45,64.42-238.609
			c-12.93-120-71.62-241.74-209.561-363.841c-40.51-35.859-185.489-138.47-220.04-179.699c-37.899-45.25-85.43-88.03-107.329-140.33
			c-9.33-22.28-14.011-46.3-11.301-72.971c5.431-53.479,47.19-91.029,97.65-112.92c40.96-17.76,87.65-25.21,125.34-22.46
			c72.24,5.261,144.88,11.13,211.54,40.45c68.57,30.16,129.96,73.7,194.31,111.57c147.551,86.819,294.98,192.439,386.53,343.14
			c14.09,23.2,26.55,47.17,37.49,71.811c3.06,34.47,0.35,66.279,0.35,66.279c-1.149,34.32-8.42,62.811-15.77,96.2
			c-21.5,97.62-63.43,198.101-117.3,281.46c-89.46,138.44-210.54,369.98-400.301,396.38l-4.739,0.771
			c-25.42-58.58-36.63-123.61-43.58-186.62C5440.15,5572.43,5445.92,5541.64,5455.49,5509.51z" style="stroke:black;fill:#ffa5d2"/><path id="180642800" parent_id="180642794" order="11" structure_id="135" d="M4999.228,5985.411
			c3.761-109.036-143.019-82.481-199.271-63.144c-63.042,21.665-111.399,78.141-30.343,125.496
			C4833.728,6085.229,4995.654,6089.278,4999.228,5985.411z" style="stroke:black;fill:#ffb3d9"/><path id="180642799" parent_id="180642794" order="12" structure_id="839" d="M3977.186,4631.667
			c103.408,40.362,137.886,0.707,234.089,51.757c86.758,46.031,229.891,57.979,206.102-2.181
			c-64.983-84.938-362.439-274.775-453.778-150.319c-24.561,33.466-19.744,66.088,10.908,97.442" style="stroke:black;fill:#ffb3d9"/><path id="180642802" parent_id="180642794" order="13" structure_id="83" d="M3768.453,6492.818c42.217-21.234,92.776-25.02,135.806,2.733
			c38.173,24.621,68.89,72.5,105.714,100.447c62.238,47.221,131.201,100.707,204.761,127.059
			c16.602,5.949,63.578,22.059,77.207,39.813l54.677,9.364c27.614,8.5,51.533,1.166,79.757-6.055
			c23.78-6.083,48.999-9.146,64.139-29.957c21.588-29.698,10.915-60.846-20.735-75.713c-13.434-6.311-28.094-12.491-42.957-18.656
			c-15.968-6.623-32.171-13.222-47.383-19.972c-25.608-11.346-54.197-15.927-79.375-28.41
			c-58.519-29.02-115.453-63.513-167.076-103.635c-40.634-31.591-42.883-92.139-78.107-129.065
			c-35.258-36.963-183.336-80.95-254.118-157.8l-31.066-5.827c-17.519-0.813-37.353,23.817-53.897,30.473
			c-11.2,4.5-22.287,8.244-33.763,11.599c-9.275,2.712-29.653,0.418-34.396,6.907l-4.167,66.417
			c-3.769-0.54,37.231,17.787,51.168,28.617c32.025,24.882,34.875,55.668,39.27,91.952L3768.453,6492.818z" style="stroke:black;fill:#ffb3d9"/><path id="180642807" parent_id="180642794" order="14" structure_id="136" d="M5486.78,5786.74c4.27,9.84,8.939,19.5,14.06,28.93
			c18.26,33.66,48.43,68.54,81.33,88.3c20.771,12.48,44.74,18.38,69.65,20.37c38.88,25.7,49.229,60.75-19.32,120.16
			c-90,78-204,128-350,70s-186,8-248-74c-13.34-17.34-23.12-48.92-36.46-75.14c-14.23-85.471-145.58-61.141-198.08-43.091
			c-7.84,2.69-15.45,5.931-22.62,9.62l-7.53-14.92c-91.06-161.43-137.619-343.5-200.64-516.63
			c-63.31-173.92-213.74-284.71-339.09-415.87c0,0-10.39-7.83-23.78-16.58c5.22-42.779,1.351-86.87-10.52-126.89
			c0.229-59.2,38.06-101.56,126.18-122.01c52.59,7.97,96.97,1.81,98.03-24.44c11.56,3.38,19.859,9.78,19.859,9.78
			c71.721,57.57,116.62,134.91,173.881,203.56c11.979,14.36,24.489,28.33,37.899,41.67c70.53,70.141,136.4,131.4,200.48,208.37
			c138.689,166.62,342.96,308.641,558.239,350.721c0,0,22.79,2.79,45.141,0.859c-9.57,32.13-15.34,62.92-12.29,90.61
			C5450.15,5663.13,5461.36,5728.16,5486.78,5786.74z" style="stroke:black;fill:#ffb3d9"/><path id="180642805" parent_id="180642794" order="15" structure_id="955" d="M4592.54,6256.049c7.155,1.138,14.043,1.938,20.451,1.905
			c40.569-0.232,77.597-13.572,116.2-25.377c81.113-24.89,162.039-50.547,243.438-74.503
			c92.143-27.114,215.652-78.859,305.447-22.111c30.449,19.245,143.522,86.981,94.767,128.797
			c-34.201,29.345-78.067,40.126-116.817,61.072c-44.67,24.159-80.854,60.772-125.109,85.527
			c-36.451,20.391-98.893,25.341-129.13,51.798c-34.022,29.767-12.028,65.02-25.08,100.265
			c-24.415,65.901-104.001,104.432-168.091,116.906c-54.571,10.619-212.388,32.854-244.461-34.104
			c-20.028-41.812-4.841-88.947-28.873-132.618c-34.478-62.66-105.82-191.21-26.737-254.398
			C4530.79,6241.454,4563.732,6251.469,4592.54,6256.049z" style="stroke:black;fill:#ffb3d9"/><path id="180642804" parent_id="180642794" order="16" structure_id="963" d="M4997.019,6564.161c2.469,19.85,25.349,29.112,82.12,11.391
			c34.575-10.79,187.892-67.111,166.556-117.556c-30.604-72.395-140.614-18.693-181.809,9.206
			C5026.663,6492.416,4993.705,6537.691,4997.019,6564.161z" style="stroke:black;fill:#ffb3d9"/><path id="180642806" parent_id="180642794" order="17" structure_id="1107" d="M4921.58,6066.85c53.51,15.98,62.75,70.261-15.66,111.221
			c-58.979,17.939-117.81,36.43-176.729,54.51c-38.601,11.8-75.631,25.14-116.2,25.37c-6.41,0.04-13.29-0.76-20.45-1.9
			c-28.81-4.58-61.75-14.6-84,3.16c-3.8,3.03-7.25,6.22-10.37,9.54c-55.027,26.363-129.578,85.016-217.899,79.35
			c-37.578-2.41-65.771-47.6-95.771-77.6c-45.909-45.909-77.928-75.284-150-174c-68.162-93.36-89.88-169.684-134-286
			c-31.706-83.589-24.037-138.775-36-232c-18.183-141.693-20-218,22-278c38.928-55.611,28-44,42-66c6-12,7.3-17.12,21.43-18.47
			c128.3-12.24,193.919-68.38,237.97-176.261c9.319-22.829,15.39-47.14,18.399-71.88c13.391,8.75,23.78,16.58,23.78,16.58
			c125.35,131.16,275.78,241.95,339.09,415.87c63.021,173.13,109.58,355.2,200.64,516.63l7.53,14.92
			c-50.45,25.95-78.7,74.41-7.729,115.87C4804.88,6068.37,4869.75,6078.87,4921.58,6066.85z" style="stroke:black;fill:#ffb3d9"/><path id="180642808" parent_id="180642794" order="18" structure_id="852" d="M5519.91,5270.9c7.46,69.159-40.42,158.06-64.42,238.609
			c-22.351,1.931-45.141-0.859-45.141-0.859c-215.279-42.08-419.55-184.101-558.239-350.721
			c-64.08-76.97-129.95-138.229-200.48-208.37c-13.41-13.34-25.92-27.31-37.899-41.67c-29.23-39.39-100.727-128.503-84.23-168.39
			c17.621-42.606,133.324-38.713,178-72c102-76,35-109,141-141c80.06-24.17,105.35,16.69,134.48,60.53
			c21.899,52.3,69.43,95.08,107.329,140.33c34.551,41.229,179.53,143.84,220.04,179.699
			C5448.29,5029.16,5506.98,5150.9,5519.91,5270.9z" style="stroke:black;fill:#ffb3d9"/><path id="180642813" parent_id="180642794" order="19" structure_id="859" d="M4650.376,4397.282
			c17.836,12.808,35.339,26.136,52.118,40.662c26.534,22.956,50.34,43.793,82.275,59.468
			c28.597-119.879-148.16-255.75-251.812-260.964c-81.958-4.122-35.898,49.994,6.246,82.396
			C4575.371,4346.642,4613.576,4370.85,4650.376,4397.282z" style="stroke:black;fill:#ffb3d9"/><path id="180642798" parent_id="180642794" order="20" structure_id="773" d="M3773.691,4877.911
			c20.784-95.725,25.941-132.261,101.215-187.673c78.344-57.665,242.007-2.485,296.798,93.633
			c41.023,71.969,49.827,173.553,16.194,255.896c-44.053,107.884-109.67,164.018-237.971,176.258
			c-72.212,6.896-103.66-45.787-154.519-98.445C3756.953,5077.758,3758.593,4947.426,3773.691,4877.911z" style="stroke:black;fill:#ffb3d9"/><path id="180642803" parent_id="180642794" order="21" structure_id="230" d="M3618.458,6578.91
			c73.739-62.989,171.778-194.227,25.137-251.052L3618.458,6578.91z" style="stroke:black;fill:#ffc6e2"/><path id="180642801" parent_id="180642794" order="22" structure_id="222" d="M3696.907,5647.654
			c-8.658,120.294,43.208,232.952,50.364,321.347c2.364,29.17-1.356,103.997,18.177,167.6l-0.325-0.809
			c17.576,65.804-70.116,88.964-116.33,96.517L3696.907,5647.654z" style="stroke:black;fill:#ffc6e2"/><path id="180642819" parent_id="180642794" order="23" structure_id="512" d="M4111.465,674.127
			c557.925-18.559,1070.944,200.684,1536.044,577.495c107.03,86.726,240.92,20.853,366.086,63.98
			c105.138,36.231,194.552,95.712,283.153,157.175c95.635,66.339,171.607,145.873,256.197,230.036
			c109.328,108.768,164.403,197.955,297.635,283.567c194.063,124.695,307.641,262.508,382.216,470.063
			c71.106,197.89,143.887,383.382,134.246,591.237c-11.176,240.749-158.961,559.505-307.486,833.939
			c-175.92,325.059-476.316,673.808-813.586,581.653c-76.378-20.869-174.783,67.578-263.612,58.66
			c-177.146-17.759-300.834-169.849-427.95-238.8c-109.109-59.185-167.863-115.729-224.213-180.078
			c-73.064-83.412-85.117-196.875-228.81-191.575c-161.853,5.949-340.056,107.911-527.476,186.852
			c-86.855,36.598-110.499,66.701-214.816,73.869c-114.795,7.906-281.553,7.086-375.954,4.779
			c-51.712-1.271-107.16-4.629-158.628,0.662L4111.465,674.127z" style="stroke:black;fill:#f0f080"/><path id="180642822" parent_id="180642794" order="24" structure_id="10725" d="M4040.065,2038.214
			c13.791-7.277,27.144-16.289,38.457-21.023c27.598-11.537,60.37-2.883,88.959-10.798c28.476-7.891,51.606-28.362,81.048-34.12
			c72.716-14.217,149.346-18.989,218.617-47.647c68.248-28.244,128.155-80.655,177.95-134.17
			c59.477-63.911,71.067-159.729,32.464-239.794c-103.254-214.158-403.325-264.071-611.213-299.267l-1.891-3.341l-65.588,800.794
			l0,0C4011.979,2051.07,4026.242,2045.51,4040.065,2038.214z" style="stroke:black;fill:#fffc91"/><path id="180642823" parent_id="180642794" order="25" structure_id="10725" d="M4439.687,839.127
			c127.424,15.691,255.271,42.932,369.245,104.313c165.654,89.138,377.359,173.869,492.885,329.529
			c47.52,64.036,107.387,157.689,181.921,211.031c25.734-29.245,53.474-59.321,83.49-90.41c0.012-0.012,0.023-0.024,0.035-0.037
			c25.413-26.321,87.027-73.469,115.147-119.202c-11.906-6.075-23.557-13.538-34.901-22.731
			c-465.1-376.811-978.119-596.053-1536.044-577.495l-11.346,138.517C4127.643,792.935,4405.765,834.951,4439.687,839.127z" style="stroke:black;fill:#fffc91"/><path id="180642824" parent_id="180642794" order="26" structure_id="10723" d="M4930.573,1284.69
			c81.975,55.599,163.161,114.194,246.499,167.526c60.882,38.96,111.685,110.328,177.942,139.684
			c0.569,0.252,1.161,0.495,1.765,0.732c0.198,0.078,0.404,0.151,0.606,0.227c0.415,0.157,0.834,0.312,1.265,0.462
			c0.248,0.086,0.501,0.17,0.753,0.254c0.4,0.133,0.806,0.265,1.218,0.393c0.275,0.085,0.552,0.17,0.832,0.253
			c0.41,0.122,0.828,0.241,1.249,0.358c0.288,0.08,0.575,0.161,0.868,0.239c0.443,0.118,0.898,0.232,1.354,0.346
			c0.279,0.069,0.553,0.141,0.836,0.208c0.631,0.151,1.274,0.297,1.925,0.439c0.389,0.086,0.786,0.168,1.182,0.25
			c0.458,0.096,0.915,0.192,1.382,0.284c0.406,0.08,0.821,0.156,1.234,0.234c0.382,0.072,0.763,0.143,1.149,0.212
			c0.45,0.081,0.906,0.159,1.363,0.237c0.353,0.06,0.706,0.119,1.063,0.178c0.491,0.08,0.984,0.16,1.483,0.237
			c0.314,0.049,0.633,0.097,0.951,0.145c0.548,0.083,1.097,0.165,1.653,0.244c0.204,0.029,0.411,0.057,0.615,0.086
			c3.022,0.423,6.161,0.804,9.394,1.155c0.035,0.004,0.07,0.008,0.105,0.012c28.235-37.124,59.5-75.334,94.478-115.084
			c-74.534-53.342-134.401-146.995-181.921-211.031c-115.525-155.66-327.23-240.392-492.885-329.529
			c-113.975-61.381-241.821-88.622-369.245-104.313c-33.922-4.176-312.044-46.193-339.567-26.484l-16.057,196.046
			c138.11,26.084,282.168,32.102,418.886,62.939C4661.365,1107.357,4797.991,1194.765,4930.573,1284.69z" style="stroke:black;fill:#ece754"/><path id="180642825" parent_id="180642794" order="27" structure_id="10723" d="M3971.313,2389.608
			c118.596,10.68,225.797-7.846,344.222,6.209c95.408,11.322,170.663-0.664,265.56-16.558
			c113.544-19.013,233.985-56.896,337.872-110.322c110.929-57.04,100.387-123.794,159.774-220.188
			c45.003-73.04,96.082-123.449,112.073-211.583c17.446-96.163,10.445-207.583-27.379-298.223
			c-60.808-145.723-244.777-243.896-381.541-305.732c-91.314-41.279-185.805-73.885-276.852-116.017
			c-128.252-59.363-282.69-57.166-421.623-70.238l-17.072,204.44c207.888,35.196,507.959,85.109,611.213,299.267
			c38.604,80.065,27.013,175.883-32.464,239.794c-49.795,53.515-109.702,105.926-177.95,134.17
			c-69.271,28.658-145.901,33.43-218.617,47.647c-29.441,5.758-52.572,26.229-81.048,34.12
			c-28.589,7.915-61.361-0.739-88.959,10.798c-11.313,4.735-24.666,13.746-38.457,21.023c-13.823,7.295-28.086,12.856-41.197,10.633
			l-15.946,194.691C3979.514,2320.32,3975.522,2389.987,3971.313,2389.608z" style="stroke:black;fill:#ece754"/><path id="180642829" parent_id="180642794" order="28" structure_id="10731" d="M4885.239,3123.647
			c1.024-3.491,1.835-7.016,2.445-10.57c0.002-0.008,0.003-0.015,0.005-0.023c0.609-3.556,1.02-7.14,1.241-10.746c0,0,0,0,0-0.001
			c0.677-11.017-0.418-22.24-2.889-33.495c-2.927-13.333-7.793-26.709-14.03-39.841c-0.003-0.006-0.006-0.011-0.008-0.017
			c-1.719-3.616-3.539-7.213-5.45-10.786c-0.015-0.028-0.03-0.057-0.046-0.085c-1.902-3.553-3.894-7.083-5.963-10.581
			c-0.022-0.038-0.045-0.077-0.067-0.115c-2.065-3.489-4.207-6.948-6.412-10.37c-0.028-0.043-0.056-0.086-0.083-0.129
			c-0.726-1.125-1.458-2.246-2.197-3.362c-0.019-0.029-0.038-0.057-0.057-0.086c-1.488-2.248-3.003-4.479-4.54-6.691
			c-0.03-0.043-0.061-0.087-0.091-0.13c-0.754-1.085-1.515-2.166-2.279-3.241c-0.043-0.06-0.085-0.12-0.128-0.179
			c-1.554-2.183-3.127-4.346-4.719-6.487c-0.021-0.028-0.041-0.057-0.063-0.084c-0.778-1.047-1.561-2.089-2.347-3.125
			c-0.063-0.084-0.127-0.168-0.191-0.252c-1.61-2.121-3.235-4.221-4.873-6.297c-0.005-0.006-0.01-0.013-0.015-0.019
			c-0.796-1.009-1.596-2.012-2.396-3.01c-0.078-0.097-0.156-0.194-0.234-0.292c-0.791-0.983-1.584-1.961-2.38-2.933
			c-0.044-0.054-0.088-0.108-0.132-0.162c-1.618-1.976-3.245-3.927-4.875-5.854c-0.087-0.102-0.173-0.205-0.26-0.307
			c-0.787-0.929-1.575-1.851-2.364-2.768c-0.078-0.09-0.156-0.181-0.234-0.271c-1.611-1.868-3.225-3.71-4.837-5.524
			c-0.088-0.099-0.176-0.199-0.265-0.298c-0.777-0.874-1.556-1.741-2.333-2.603c-0.105-0.117-0.211-0.233-0.316-0.35
			c-0.792-0.876-1.584-1.747-2.374-2.609c-0.014-0.014-0.026-0.028-0.039-0.042c-0.787-0.858-1.573-1.709-2.358-2.553
			c-0.088-0.095-0.175-0.189-0.263-0.283c-0.763-0.819-1.523-1.63-2.283-2.435c-0.123-0.131-0.247-0.262-0.37-0.392
			c-0.763-0.807-1.524-1.608-2.283-2.4c-0.067-0.071-0.135-0.141-0.202-0.211c-0.743-0.775-1.484-1.543-2.224-2.304
			c-0.073-0.076-0.147-0.153-0.222-0.229c-0.743-0.766-1.483-1.522-2.223-2.273c-0.138-0.14-0.275-0.28-0.413-0.42
			c-0.729-0.739-1.455-1.472-2.178-2.196c-0.103-0.103-0.204-0.204-0.307-0.307c-0.722-0.722-1.44-1.438-2.156-2.145
			c-0.044-0.044-0.088-0.088-0.132-0.131c-0.73-0.722-1.456-1.434-2.18-2.14c-0.128-0.125-0.257-0.251-0.385-0.376
			c-0.701-0.684-1.399-1.359-2.093-2.026c-0.123-0.119-0.245-0.235-0.367-0.354c-0.718-0.689-1.433-1.374-2.142-2.046
			c-139.615-132.537-269.631-136.545-448.759-166.328c-133.843-22.248-255.668-55.681-389.796-55.362l-18.421,224.908
			c36.332,2.472,122.537,3.399,177.354,4.848c161.451,4.269,388.327,13.079,538.138,79.31
			c103.116,45.587,179.455,83.284,240.958,125.073c0.39-1.156,0.755-2.316,1.096-3.479
			C4885.236,3123.656,4885.237,3123.652,4885.239,3123.647z" style="stroke:black;fill:#fffc91"/><path id="180642830" parent_id="180642794" order="29" structure_id="10729" d="M4784.664,2914.692
			c0.709,0.673,1.424,1.357,2.142,2.046c0.122,0.118,0.244,0.235,0.367,0.354c0.693,0.667,1.392,1.343,2.093,2.026
			c0.128,0.125,0.257,0.25,0.385,0.376c0.724,0.706,1.449,1.418,2.18,2.14c0.044,0.043,0.088,0.087,0.132,0.131
			c0.716,0.707,1.435,1.423,2.156,2.145c0.103,0.103,0.204,0.204,0.307,0.307c0.723,0.724,1.449,1.457,2.178,2.196
			c0.138,0.14,0.275,0.28,0.413,0.42c0.739,0.75,1.479,1.507,2.223,2.273c0.074,0.075,0.148,0.152,0.222,0.229
			c0.739,0.761,1.48,1.529,2.224,2.304c0.067,0.071,0.135,0.141,0.202,0.211c0.759,0.792,1.521,1.593,2.283,2.4
			c0.123,0.13,0.247,0.261,0.37,0.392c0.76,0.805,1.521,1.616,2.283,2.435c0.088,0.094,0.175,0.188,0.263,0.283
			c0.785,0.844,1.571,1.694,2.358,2.553c0.013,0.014,0.025,0.028,0.039,0.042c0.79,0.862,1.582,1.733,2.374,2.609
			c0.105,0.117,0.211,0.233,0.316,0.35c0.777,0.861,1.556,1.729,2.333,2.603c0.089,0.099,0.177,0.199,0.265,0.298
			c1.612,1.814,3.226,3.657,4.837,5.524c0.078,0.091,0.156,0.181,0.234,0.271c0.789,0.917,1.577,1.839,2.364,2.768
			c0.087,0.102,0.173,0.205,0.26,0.307c1.63,1.926,3.257,3.877,4.875,5.854c0.044,0.054,0.088,0.107,0.132,0.162
			c0.796,0.972,1.589,1.95,2.38,2.933c0.078,0.097,0.156,0.194,0.234,0.292c0.801,0.998,1.601,2,2.396,3.01
			c0.005,0.006,0.01,0.012,0.015,0.019c1.638,2.076,3.263,4.176,4.873,6.297c0.064,0.084,0.128,0.168,0.191,0.252
			c0.786,1.037,1.568,2.078,2.347,3.125c0.021,0.028,0.042,0.056,0.063,0.084c1.592,2.142,3.165,4.305,4.719,6.487
			c0.043,0.06,0.085,0.119,0.128,0.179c0.765,1.076,1.525,2.156,2.279,3.241c0.03,0.043,0.061,0.087,0.091,0.13
			c1.537,2.212,3.052,4.443,4.54,6.691c0.019,0.029,0.038,0.057,0.057,0.086c0.739,1.117,1.472,2.238,2.197,3.362
			c0.027,0.043,0.055,0.086,0.083,0.129c2.206,3.422,4.347,6.881,6.412,10.37c0.022,0.039,0.045,0.077,0.067,0.115
			c2.069,3.499,4.061,7.027,5.963,10.581c0.016,0.028,0.031,0.057,0.046,0.085c1.911,3.573,3.732,7.17,5.45,10.786
			c0.002,0.005,0.005,0.011,0.008,0.017c6.238,13.131,11.104,26.508,14.03,39.841c2.471,11.255,3.565,22.478,2.889,33.495
			c0,0,0,0,0,0c-0.222,3.606-0.632,7.19-1.241,10.747c-0.002,0.008-0.003,0.015-0.005,0.023c-0.61,3.554-1.421,7.079-2.445,10.57
			c-0.002,0.005-0.003,0.009-0.005,0.014c-0.341,1.164-0.706,2.324-1.096,3.479c59.734,40.587,105.473,85.045,148.141,144.336
			c5.91-2.502,11.521-5.41,16.711-8.79c44.695-29.097-157.995-347.036-185.325-377.94c0,0-48.199-43.592-105.546-83.642
			c-47.167-32.941-100.339-61.313-139.54-79.803c-109.288-51.545-190.97-84.468-313.123-96.663
			c-114.945-11.474-237.385-13.937-350.408-40.773l-8.938,109.136c134.128-0.319,255.953,33.114,389.796,55.362
			C4515.033,2778.147,4645.049,2782.155,4784.664,2914.692z" style="stroke:black;fill:#ece754"/><path id="180642820" parent_id="180642794" order="30" structure_id="10734" d="M4105.043,2922.758
			c-54.817-1.449-141.022-2.376-177.354-4.848l-18.204,222.25c1.859,1.552,3.743,2.987,5.652,4.309
			c49.822,23.686,118.029-5.641,170.256-6.32c89.235-1.157,177.642,8.792,266.349,16.902c89,8.13,168.546,4.577,254.402,26.993
			c77.897,20.337,188.98,49.275,253.793-16.487c0.682-0.691,1.346-1.386,2-2.083c0.203-0.216,0.401-0.434,0.602-0.651
			c0.452-0.488,0.899-0.978,1.338-1.468c0.221-0.248,0.439-0.495,0.657-0.743c0.427-0.486,0.847-0.973,1.261-1.46
			c0.192-0.228,0.387-0.455,0.577-0.683c0.513-0.614,1.016-1.23,1.509-1.848c0.076-0.096,0.155-0.19,0.231-0.286
			c0.581-0.732,1.146-1.468,1.701-2.206c0.104-0.14,0.206-0.28,0.31-0.42c0.443-0.596,0.879-1.194,1.305-1.793
			c0.141-0.197,0.277-0.395,0.416-0.592c0.396-0.567,0.786-1.135,1.168-1.705c0.122-0.182,0.244-0.363,0.364-0.545
			c0.443-0.672,0.878-1.346,1.302-2.022c0.041-0.066,0.085-0.132,0.126-0.199c0.97-1.556,1.884-3.123,2.747-4.699
			c0.055-0.101,0.108-0.202,0.164-0.303c0.374-0.689,0.738-1.381,1.093-2.074c0.056-0.11,0.112-0.22,0.168-0.33
			c0.383-0.757,0.757-1.515,1.116-2.276c0.008-0.016,0.015-0.031,0.022-0.046c1.156-2.45,2.193-4.922,3.115-7.414
			c0.013-0.036,0.026-0.072,0.04-0.108c0.302-0.819,0.592-1.64,0.869-2.463l0,0c-61.503-41.789-137.842-79.486-240.958-125.073
			C4493.37,2935.837,4266.494,2927.027,4105.043,2922.758z" style="stroke:black;fill:#fffc91"/><path id="180642837" parent_id="180642794" order="31" structure_id="10734" d="M5217.422,3801.001
			c-29.71-0.394-53.23,25.012-82.185,26.312c-32.082,1.434-67.956-17.828-98.194-27.615
			c-85.166-27.565-223.611-141.182-316.16-100.971c-79.433,34.526-109.028,150.592-189.688,192.318
			c-134.604,69.637-334.727,55.119-481.181,67.245c-68.749,5.687-141.551,3.409-208.942,17.138l-16.562,202.214
			c51.468-5.291,106.917-1.933,158.628-0.662c94.401,2.307,261.159,3.127,375.954-4.779
			c104.317-7.168,127.961-37.271,214.816-73.869c187.42-78.94,365.623-180.902,527.476-186.852
			c37.755-1.393,66.413,5.423,89.486,17.729c27.771-34.08,48.566-76.944,59.237-118.391
			C5241.491,3804.81,5230.93,3801.181,5217.422,3801.001z" style="stroke:black;fill:#fffc91"/><path id="180642821" parent_id="180642794" order="32" structure_id="10732" d="M4468.86,3350.204
			c153.017-7.428,341.469-60.971,490.781-3.302c56.203,21.702,99.81,67.761,147.233,103.542
			c0.09-26.766-29.547-94.673-46.611-115.745c-30.547-37.726-73.26-20.609-106.445-49.499c26.132-0.26,54.737-3.677,78.461-13.724
			c-42.668-59.291-88.406-103.749-148.141-144.336c-0.277,0.823-0.567,1.644-0.869,2.463c-0.014,0.036-0.027,0.072-0.04,0.108
			c-0.922,2.492-1.959,4.964-3.115,7.414c-0.008,0.015-0.015,0.03-0.022,0.046c-0.359,0.761-0.733,1.52-1.116,2.276
			c-0.056,0.11-0.112,0.22-0.168,0.33c-0.354,0.693-0.719,1.384-1.093,2.074c-0.056,0.101-0.109,0.202-0.164,0.303
			c-0.863,1.577-1.777,3.143-2.747,4.699c-0.041,0.066-0.085,0.132-0.126,0.199c-0.424,0.676-0.858,1.35-1.302,2.022
			c-0.12,0.182-0.242,0.363-0.364,0.545c-0.382,0.57-0.771,1.138-1.168,1.705c-0.139,0.198-0.275,0.395-0.416,0.592
			c-0.426,0.6-0.861,1.197-1.305,1.793c-0.104,0.14-0.205,0.281-0.31,0.42c-0.555,0.738-1.12,1.474-1.701,2.206
			c-0.076,0.096-0.155,0.19-0.231,0.286c-0.493,0.618-0.996,1.234-1.509,1.848c-0.19,0.228-0.385,0.455-0.577,0.683
			c-0.414,0.488-0.834,0.975-1.261,1.46c-0.218,0.248-0.437,0.495-0.657,0.743c-0.438,0.491-0.886,0.98-1.338,1.468
			c-0.2,0.217-0.398,0.435-0.602,0.651c-0.654,0.697-1.318,1.392-2,2.083c-64.813,65.763-175.896,36.824-253.793,16.487
			c-85.856-22.417-165.402-18.863-254.402-26.993c-88.707-8.11-177.113-18.059-266.349-16.902
			c-56.218,0.727-121.272,40.246-170.256,6.32c-1.948-0.926-3.868-1.93-5.758-3.023l-17.122,209.041
			C4083.468,3349.287,4278.434,3359.447,4468.86,3350.204z" style="stroke:black;fill:#ece754"/><path id="180642826" parent_id="180642794" order="33" structure_id="10732" d="M4531.195,3891.045
			c80.659-41.727,110.255-157.792,189.688-192.318c92.549-40.211,230.994,73.405,316.16,100.971
			c30.238,9.787,66.112,29.049,98.194,27.615c28.954-1.3,52.475-26.705,82.185-26.312c13.508,0.18,24.069,3.809,32.687,9.816
			c3.458-13.435,5.858-26.721,7.081-39.51c0.004-0.036,0.008-0.072,0.011-0.108c2.682-28.159-2.084-61.919-11.119-97.658
			c-0.333-0.318-0.662-0.641-0.995-0.959c-5.525-5.276-11.075-10.524-16.66-15.735c-0.035-0.032-0.07-0.064-0.105-0.097
			c-2.921-2.726-5.85-5.442-8.788-8.148c-0.098-0.09-0.196-0.179-0.294-0.27c-2.876-2.648-5.76-5.289-8.652-7.918
			c-0.165-0.15-0.332-0.299-0.497-0.449c-2.827-2.568-5.661-5.129-8.505-7.678c-0.236-0.212-0.475-0.421-0.711-0.633
			c-2.774-2.484-5.555-4.961-8.346-7.427c-0.342-0.302-0.686-0.601-1.027-0.902c-2.691-2.374-5.387-4.742-8.094-7.098
			c-0.42-0.367-0.845-0.729-1.266-1.095c-2.631-2.285-5.266-4.566-7.912-6.833c-0.548-0.47-1.101-0.934-1.649-1.403
			c-2.525-2.158-5.053-4.313-7.593-6.455c-0.677-0.571-1.359-1.135-2.037-1.705c-2.421-2.033-4.842-4.065-7.275-6.083
			c-0.775-0.643-1.557-1.278-2.334-1.919c-2.344-1.936-4.689-3.872-7.046-5.793c-0.889-0.724-1.785-1.439-2.676-2.162
			c-2.255-1.829-4.509-3.658-6.775-5.473c-1.038-0.832-2.087-1.653-3.128-2.481c-2.127-1.693-4.252-3.388-6.391-5.068
			c-1.285-1.01-2.582-2.008-3.871-3.014c-1.907-1.487-3.81-2.979-5.725-4.455c-1.531-1.181-3.075-2.347-4.612-3.521
			c-1.688-1.289-3.369-2.584-5.063-3.865c-3.236-2.445-6.484-4.876-9.746-7.291c-164.232-121.572-386.626-145.207-585.296-120.305
			c-77.296,9.693-143.757,8.016-222.19,2.615c-61.889-4.264-122.763-10.867-185.414-10.867c-73.221-0.02-144.527-9.42-218.115-7.928
			l-46.219,564.303c67.391-13.729,140.193-11.451,208.942-17.138C4196.469,3946.164,4396.592,3960.682,4531.195,3891.045z" style="stroke:black;fill:#ece754"/><path id="180642836" parent_id="180642794" order="34" structure_id="10677" d="M5567.263,1393.554
			c-0.012,0.012-0.023,0.024-0.035,0.037c-30.017,31.089-57.756,61.165-83.49,90.41c58.49,41.859,126.012,58.897,203.69,17.308
			c50.567-27.075,80.025-79.53,138.9-92.549c60.208-13.315,122.056,15.034,174.612,39.542
			c95.839,44.695,210.715,96.906,278.728,179.928c88.293,107.773,49.787,170.795-78.336,152.566
			c-58.681-8.345-113.609-11.123-173.816-9.02c-103.448,3.614-198.313,4.118-302.337,26.615
			c-150.198,32.484-288.807,111.636-318.306,274.845c-23.602,130.617,52.13,272.581,161.379,354.306
			c31.653-37.872,60.13-78.133,85.635-124.048c39.654-71.388,59.498-138.813,163.702-222.935
			c122.355-98.775,299.414-88.265,445.9-92.127c168.953-4.454,327.426-24.383,482.87-82.182
			c-67.83-61.952-117.57-127.981-193.414-203.436c-84.59-84.163-160.563-163.697-256.197-230.036
			c-88.602-61.462-178.016-120.943-283.153-157.175c-111.898-38.556-230.767,9.989-331.185-41.25
			C5654.29,1320.085,5592.676,1367.233,5567.263,1393.554z" style="stroke:black;fill:#fffc91"/><path id="180642835" parent_id="180642794" order="35" structure_id="10675" d="M5406.873,2073.236
			c29.499-163.209,168.107-242.361,318.306-274.845c104.024-22.498,198.889-23.001,302.337-26.615
			c60.207-2.104,115.136,0.674,173.816,9.02c128.123,18.229,166.629-44.792,78.336-152.566
			c-68.013-83.022-182.889-135.233-278.728-179.928c-52.557-24.508-114.404-52.857-174.612-39.542
			c-58.875,13.02-88.333,65.475-138.9,92.549c-77.679,41.589-145.2,24.551-203.69-17.308c-34.978,39.75-66.242,77.96-94.478,115.084
			c0.019,0.002,0.038,0.004,0.057,0.006c0.773,0.084,1.552,0.166,2.336,0.247c0.006,0.001,0.012,0.001,0.018,0.002
			c14.889,1.536,31.508,2.574,47.26,4.532c0.026,0.003,0.053,0.006,0.079,0.01c3.204,0.398,6.37,0.836,9.479,1.323
			c0.084,0.013,0.167,0.026,0.25,0.04c0.922,0.146,1.839,0.296,2.75,0.45c0.127,0.021,0.254,0.043,0.381,0.065
			c2.018,0.346,4.007,0.714,5.96,1.111c0.005,0.001,0.01,0.002,0.015,0.003c0.923,0.188,1.836,0.382,2.742,0.582
			c0.171,0.038,0.342,0.077,0.513,0.115c0.781,0.175,1.556,0.355,2.323,0.541c0.157,0.038,0.315,0.074,0.472,0.113
			c1.827,0.447,3.616,0.923,5.358,1.431c0.132,0.039,0.262,0.079,0.393,0.117c0.718,0.213,1.428,0.431,2.129,0.654
			c0.198,0.063,0.396,0.127,0.593,0.191c0.677,0.22,1.346,0.447,2.007,0.679c0.15,0.053,0.305,0.104,0.455,0.158
			c1.611,0.575,3.17,1.186,4.675,1.833c0.175,0.075,0.346,0.152,0.52,0.229c0.572,0.252,1.137,0.51,1.692,0.773
			c0.191,0.091,0.383,0.182,0.571,0.273c0.59,0.287,1.169,0.581,1.738,0.882c0.114,0.061,0.232,0.119,0.347,0.18
			c0.688,0.37,1.359,0.749,2.015,1.139c0.092,0.055,0.179,0.112,0.271,0.167c0.544,0.329,1.077,0.666,1.598,1.01
			c0.174,0.115,0.345,0.232,0.517,0.349c0.446,0.304,0.884,0.615,1.312,0.932c0.162,0.12,0.326,0.239,0.485,0.36
			c0.513,0.391,1.013,0.791,1.496,1.2c0.05,0.042,0.103,0.082,0.152,0.124c0.535,0.458,1.049,0.93,1.548,1.411
			c0.119,0.115,0.232,0.235,0.35,0.353c0.369,0.367,0.729,0.741,1.076,1.123c0.142,0.156,0.281,0.314,0.42,0.473
			c0.327,0.375,0.643,0.758,0.948,1.146c0.114,0.145,0.232,0.288,0.344,0.436c0.405,0.536,0.796,1.082,1.161,1.645
			c0.006,0.009,0.011,0.018,0.017,0.026c0.354,0.547,0.684,1.11,0.997,1.682c0.096,0.173,0.184,0.35,0.274,0.525
			c0.222,0.425,0.433,0.856,0.632,1.296c0.09,0.199,0.179,0.398,0.265,0.6c0.198,0.469,0.383,0.948,0.556,1.433
			c0.058,0.16,0.121,0.317,0.176,0.479c0.217,0.646,0.414,1.306,0.586,1.981c0.033,0.132,0.058,0.269,0.09,0.401
			c0.131,0.549,0.248,1.106,0.35,1.674c0.04,0.229,0.074,0.463,0.11,0.695c0.076,0.5,0.141,1.009,0.193,1.524
			c0.024,0.239,0.05,0.477,0.069,0.719c0.049,0.612,0.079,1.234,0.094,1.867c0.003,0.14,0.014,0.274,0.016,0.415
			c0.009,0.772-0.011,1.562-0.053,2.365c-0.012,0.218-0.033,0.442-0.049,0.663c-0.041,0.6-0.094,1.207-0.164,1.824
			c-0.032,0.284-0.069,0.571-0.107,0.859c-0.08,0.6-0.175,1.209-0.281,1.825c-0.047,0.27-0.09,0.537-0.142,0.811
			c-0.168,0.882-0.355,1.776-0.579,2.692c-89.283-62.031-109.458,60.537-139.672,116.902
			c-77.653,144.602-92.728,251.669-56.479,414.334c20.256,90.904,82.852,193.265,148.533,257.911c2.123,2.09,4.268,4.157,6.43,6.208
			c0.636,0.603,1.282,1.195,1.921,1.795c1.549,1.454,3.101,2.905,4.669,4.34c0.711,0.65,1.431,1.291,2.146,1.938
			c1.531,1.385,3.066,2.767,4.615,4.134c0.694,0.612,1.395,1.218,2.092,1.827c1.607,1.403,3.22,2.8,4.845,4.184
			c0.638,0.543,1.278,1.082,1.918,1.621c1.728,1.458,3.464,2.906,5.212,4.343c0.55,0.451,1.1,0.901,1.65,1.351
			c1.887,1.539,3.784,3.065,5.693,4.58c0.429,0.34,0.856,0.681,1.286,1.02c2.095,1.652,4.202,3.29,6.322,4.914
			c0.261,0.2,0.52,0.401,0.78,0.6c2.375,1.813,4.766,3.611,7.173,5.391c0.017,0.012,0.032,0.024,0.049,0.037
			c20.405-20.864,39.711-41.905,57.958-63.737C5459.003,2345.816,5383.271,2203.853,5406.873,2073.236z" style="stroke:black;fill:#ece754"/><path id="180642834" parent_id="180642794" order="36" structure_id="10680" d="M7232.796,2456.443
			c-74.575-207.555-188.152-345.367-382.216-470.063c-40.806-26.221-74.273-52.779-104.221-80.131
			c-155.444,57.799-313.917,77.729-482.87,82.182c-146.486,3.862-323.545-6.648-445.9,92.127
			c-104.204,84.122-124.048,151.547-163.702,222.935c-25.505,45.916-53.981,86.176-85.635,124.048
			c25.942,19.407,53.769,35.43,82.611,47.083c164.281,66.376,347.471,79.371,479.053-51.566
			c128.951-128.297,269.266-270.301,449.652-324.344c96.983-29.06,210.926-6.38,295.774,48.991
			c83.566,54.535,127.376,140.565,143.831,236.883c14.4,84.249,39.456,214.487,27.021,297.448
			c-9.925,66.242-22.271,105.138-0.739,171.697c39.725,122.807,101.32,240.692,117.354,371.211
			c5.953,48.418,4.41,125.13-38.969,158.247c-62.287,47.558-128.546-18.701-181.321-51.216
			c-40.342-24.845-64.513-59.611-98.729-91.514c-57.406-53.531-118.279-102.396-189.306-134.295
			c-136.204-61.17-254.864-141.845-398.402-186.239c-70.87-21.921-134.688-18.942-202.314,0.049
			c150.371,112.108,302.367,220.467,472.771,311.755c102.604,54.967,259.611,152.544,329.678,198.879
			c97.723,64.642,215.157,152.509,328.555,184.261l7.956,3.873c93.487-200.688,166.585-404.538,174.315-571.065
			C7376.683,2839.825,7303.902,2654.333,7232.796,2456.443z" style="stroke:black;fill:#fffc91"/><path id="180642833" parent_id="180642794" order="37" structure_id="10678" d="M5510.314,2491.293
			c1.764,1.304,3.539,2.595,5.319,3.881c0.325,0.235,0.649,0.471,0.976,0.706c1.708,1.228,3.425,2.447,5.147,3.659
			c0.369,0.26,0.739,0.519,1.108,0.778c1.744,1.221,3.494,2.435,5.253,3.64c0.274,0.188,0.55,0.374,0.825,0.562
			c9.908,6.764,20.045,13.272,30.384,19.541c0.18,0.109,0.358,0.219,0.538,0.328c1.919,1.161,3.845,2.312,5.776,3.457
			c0.3,0.177,0.599,0.354,0.898,0.531c1.92,1.134,3.847,2.261,5.779,3.379c0.243,0.141,0.487,0.28,0.73,0.421
			c10.676,6.159,21.543,12.082,32.575,17.785c0.006,0.003,0.012,0.006,0.017,0.009c2.097,1.083,4.199,2.157,6.307,3.226
			c0.244,0.123,0.488,0.247,0.732,0.371c2.048,1.035,4.102,2.063,6.16,3.084c0.243,0.121,0.487,0.241,0.73,0.361
			c2.118,1.048,4.241,2.09,6.37,3.123c0.023,0.012,0.048,0.023,0.072,0.035c3.676,1.783,7.372,3.536,11.077,5.275
			c7.626,3.58,15.308,7.076,23.046,10.479c0.207,0.091,0.414,0.183,0.621,0.274c2.125,0.933,4.254,1.859,6.387,2.78
			c0.274,0.118,0.548,0.236,0.821,0.354c2.151,0.926,4.306,1.847,6.464,2.761c0.14,0.059,0.28,0.118,0.42,0.177
			c7.908,3.344,15.867,6.599,23.859,9.782c3.635,1.447,7.274,2.884,10.924,4.3c0.208,0.081,0.416,0.162,0.624,0.243
			c2.137,0.828,4.276,1.65,6.418,2.468c0.348,0.133,0.695,0.265,1.043,0.397c2.115,0.806,4.232,1.607,6.352,2.402
			c0.294,0.11,0.587,0.22,0.881,0.33c11.599,4.346,23.251,8.546,34.931,12.618c0.255,0.089,0.51,0.178,0.764,0.267
			c2.08,0.724,4.16,1.442,6.242,2.158c0.465,0.16,0.93,0.32,1.395,0.479c2.014,0.691,4.029,1.379,6.045,2.063
			c0.48,0.163,0.961,0.326,1.442,0.488c2.06,0.697,4.119,1.392,6.179,2.081c0.277,0.093,0.554,0.185,0.83,0.277
			c9.186,3.07,18.373,6.069,27.553,9.005c0.35,0.112,0.699,0.225,1.05,0.337c1.965,0.627,3.929,1.251,5.893,1.873
			c0.604,0.191,1.209,0.383,1.813,0.574c1.877,0.593,3.753,1.183,5.629,1.771c0.664,0.208,1.329,0.416,1.994,0.624
			c1.87,0.584,3.74,1.168,5.609,1.748c0.592,0.184,1.184,0.366,1.775,0.549c1.961,0.607,3.921,1.213,5.88,1.815
			c0.179,0.055,0.357,0.109,0.536,0.165c6.648,2.042,13.283,4.057,19.9,6.047c0.498,0.15,0.998,0.301,1.496,0.451
			c1.816,0.545,3.631,1.088,5.444,1.63c0.748,0.224,1.497,0.447,2.244,0.67c1.702,0.508,3.402,1.014,5.102,1.518
			c0.86,0.255,1.72,0.511,2.578,0.765c1.661,0.492,3.321,0.983,4.979,1.473c0.856,0.253,1.712,0.505,2.567,0.757
			c1.66,0.489,3.318,0.978,4.975,1.465c0.791,0.232,1.58,0.463,2.37,0.695c5.936,1.742,11.849,3.467,17.735,5.18
			c0.588,0.171,1.178,0.343,1.766,0.514c1.701,0.495,3.398,0.987,5.095,1.48c0.847,0.246,1.695,0.492,2.541,0.737
			c1.648,0.478,3.294,0.955,4.938,1.432c0.854,0.247,1.707,0.495,2.561,0.742c1.837,0.532,3.673,1.064,5.504,1.594
			c0.139,0.041,0.278,0.081,0.418,0.121c3.781,1.094,7.546,2.184,11.3,3.271c0.428,0.124,0.858,0.249,1.286,0.373
			c2.596,0.752,5.188,1.503,7.77,2.252c88.172,25.584,177.342,43.984,269.362,46.839c77.914,2.417,248.498,14.668,315.771-26.603
			c52.581-32.269,72.634-86.494,98.786-138.645c23.294-46.47,57.357-77.004,84.443-121.004
			c18.291,130.982-114.689,291.572-21.945,414.578c24.715,32.792,57.941,55.306,87.262,83.058
			c18.51,17.511,49.633,74.717,69.207,84.257c-37.572-18.311-89.602-71.083-138.674-65.556c15.732-1.774,31.497-3.184,47.294-4.235
			c-40.585-38.884-79.992-82.957-133.768-103.696c-59.021-22.77-108.865-1.762-168.351-6.786
			c-32.561-2.746-63.676-26.441-97.064-32.435c-42.899-7.695-89.893-4.398-133.451-6.684c-89.9-4.719-180.825-10.27-267.818-35.212
			c-0.667-0.191-1.352-0.394-2.049-0.605c-0.221-0.067-0.451-0.14-0.675-0.209c-0.481-0.148-0.964-0.296-1.458-0.453
			c-0.277-0.088-0.563-0.181-0.844-0.271c-0.459-0.148-0.918-0.295-1.388-0.45c-0.299-0.098-0.604-0.201-0.907-0.302
			c-0.463-0.155-0.928-0.31-1.401-0.471c-0.317-0.108-0.642-0.219-0.964-0.33c-0.475-0.164-0.953-0.328-1.438-0.498
			c-0.321-0.112-0.646-0.226-0.971-0.341c-0.507-0.178-1.018-0.359-1.533-0.543c-0.314-0.112-0.629-0.225-0.946-0.339
			c-0.54-0.194-1.086-0.392-1.636-0.592c-0.304-0.11-0.606-0.221-0.912-0.333c-0.6-0.219-1.206-0.443-1.817-0.669
			c-0.259-0.096-0.517-0.191-0.777-0.288c-0.696-0.259-1.402-0.522-2.112-0.789c-0.182-0.068-0.36-0.135-0.542-0.203
			c-0.881-0.331-1.771-0.667-2.672-1.009c-0.009-0.003-0.017-0.006-0.024-0.009c-11.988-4.55-25.668-10.005-39.994-15.38
			c-2.047-0.768-4.105-1.534-6.176-2.296c-1.33-0.49-2.665-0.978-4.004-1.463c-1.254-0.455-2.512-0.908-3.771-1.357
			c-18.896-6.746-38.31-12.833-55.988-16.147c-0.029-0.005-0.058-0.011-0.086-0.016c-0.98-0.183-1.957-0.358-2.927-0.524
			c-0.047-0.008-0.094-0.016-0.141-0.024c-0.964-0.164-1.923-0.32-2.876-0.466c-0.038-0.006-0.076-0.011-0.114-0.017
			c-6.09-0.93-11.922-1.471-17.413-1.554c-2.533-0.038-5,0.012-7.375,0.184c-0.003,0-0.006,0-0.008,0
			c-0.786,0.057-1.562,0.128-2.328,0.209c-0.075,0.008-0.15,0.015-0.226,0.023c-0.726,0.079-1.44,0.171-2.149,0.272
			c-0.109,0.016-0.219,0.031-0.327,0.047c-0.686,0.103-1.361,0.216-2.029,0.34c-0.122,0.022-0.243,0.045-0.364,0.069
			c-0.658,0.126-1.308,0.264-1.948,0.412c-0.119,0.028-0.237,0.057-0.356,0.085c-0.641,0.154-1.273,0.317-1.896,0.494
			c-0.104,0.029-0.204,0.061-0.306,0.09c-0.636,0.185-1.264,0.379-1.88,0.589c-0.066,0.022-0.133,0.048-0.199,0.071
			c-0.645,0.223-1.273,0.467-1.896,0.718c92.301,66.844,181.602,135.189,271.479,202.198
			c67.627-18.992,131.444-21.971,202.314-0.049c143.538,44.394,262.198,125.069,398.402,186.239
			c71.026,31.899,131.899,80.764,189.306,134.295c34.217,31.903,58.388,66.668,98.729,91.514
			c52.775,32.516,119.034,98.774,181.321,51.216c43.379-33.117,44.922-109.828,38.969-158.247
			c-16.033-130.519-77.629-248.404-117.354-371.211c-21.531-66.559-9.186-105.455,0.739-171.697
			c12.435-82.961-12.621-213.2-27.021-297.448c-16.455-96.317-60.265-182.348-143.831-236.883
			c-84.849-55.371-198.791-78.051-295.774-48.991c-180.387,54.043-320.701,196.046-449.652,324.344
			c-131.582,130.937-314.771,117.942-479.053,51.566c-28.843-11.653-56.669-27.676-82.611-47.083
			c-18.247,21.832-37.553,42.873-57.958,63.737C5510.301,2491.283,5510.308,2491.288,5510.314,2491.293z" style="stroke:black;fill:#ece754"/><path id="180642832" parent_id="180642794" order="38" structure_id="10683" d="M6856.216,3430.611
			c-70.066-46.335-227.074-143.913-329.678-198.879c-170.403-91.289-322.399-199.647-472.771-311.755
			c-9.658,2.712-19.396,5.751-29.241,9.092c-38.57,83.318,35.55,156.663,84.298,210.003
			c52.199,57.113,80.585,113.158,143.521,157.337c68.232,47.907,132.37,110.25,208.7,145.008
			c78.62,35.809,174.864,74.863,260.899,101.58c-12.771-1.773-25.602-2.614-38.486-2.531c76.4-0.241,196.779,37.821,246.423,94.32
			c85.58,97.402-14.741,203.576-98.308,261.407c-46.132,31.92-97.917,53.597-137.642,91.566
			c-37.921,36.256-67.785,83.587-102.539,123.051c-69.23,78.645-148.306,159.079-250.576,192.006
			c-187.071,60.228-229.979-173.931-250.252-307.787c-36.783-242.809-134.563-455.695-230.036-679.043
			c-99.696-233.236-240.977-440.146-427.706-613.04c-46.863-43.395-113.024-91.298-179.405-62.478
			c-35.663-52.407-105.689-113.402-165.183-135.359c-49.113-18.136-196.533-31.286-217.894,30.843
			c-3.972,11.567-13.668,15.315-21.641,22.794c53.132,15.415,106.043,34.834,158.598,66.082
			c50.34,29.932,235.44,154.416,301.468,241.968s213.966,271.285,279.858,425.844c65.917,154.621,126.953,312.9,223.035,451.65
			c151.175,218.309,173.707,522.715,325.698,736.417c38.611-15.093,75.662-26.438,108.611-17.435
			c337.27,92.154,637.666-256.595,813.586-581.653c45.79-84.606,91.503-173.427,133.171-262.875l-7.956-3.873
			C7071.373,3583.12,6953.938,3495.253,6856.216,3430.611z" style="stroke:black;fill:#fffc91"/><path id="180642831" parent_id="180642794" order="39" structure_id="10681" d="M5782.086,2717.855
			c-0.746,0.307-1.477,0.631-2.189,0.979c-0.127,0.062-0.252,0.126-0.377,0.19c-0.639,0.32-1.26,0.66-1.869,1.016
			c-0.18,0.104-0.358,0.208-0.534,0.315c-0.56,0.34-1.101,0.702-1.634,1.073c-0.176,0.123-0.357,0.24-0.53,0.366
			c-0.678,0.495-1.337,1.011-1.969,1.56c27.437,77.125,84.11,137.049,127.002,205.553
			c100.558,160.635,198.028,315.743,306.269,471.297c44.728,64.281,78.173,132.127,142.808,179.726
			c90.104,66.343,206.953,126.9,319.223,136.517c-82.349,6.786-198.824,20.727-279.8-17.263
			c-3.508,82.961-35.842,154.499-59.151,232.067c7.326-66.709,18.363-179.766-0.771-243.835
			c-16.935-56.658-79.806-109.828-113.446-160.2c-62.863-94.137-144.155-177.492-205.72-274.699
			c-58.924-93.02-106.308-246.682-191.514-314.65c-33.43-77.995-107.226-133.325-171.916-183.136
			c-64.731-49.832-116.411-108.565-175.888-163.908c-141.735-131.883-339.219-217.772-535.038-190.921
			c-103.495,14.191-181.862,52.146-263.34,111.79c59.146,17.842,118.208,30,177.001,47.058c7.973-7.479,17.669-11.227,21.641-22.794
			c21.36-62.128,168.78-48.979,217.894-30.843c59.493,21.958,129.52,82.953,165.183,135.359
			c66.381-28.821,132.542,19.083,179.405,62.478c186.729,172.895,328.01,379.804,427.706,613.04
			c95.473,223.348,193.253,436.234,230.036,679.043c20.272,133.856,63.181,368.015,250.252,307.787
			c102.271-32.927,181.346-113.361,250.576-192.006c34.754-39.464,64.618-86.795,102.539-123.051
			c39.725-37.97,91.51-59.646,137.642-91.566c83.566-57.831,183.888-164.005,98.308-261.407
			c-49.644-56.5-170.022-94.561-246.423-94.32c-1.333,0.009-2.665,0.017-3.999,0.046c1.334-0.029,2.666-0.037,3.999-0.046
			c12.885-0.083,25.715,0.757,38.486,2.531c-86.035-26.717-182.279-65.771-260.899-101.58
			c-76.33-34.758-140.468-97.102-208.7-145.008c-62.937-44.179-91.322-100.224-143.521-157.337
			c-48.748-53.34-122.868-126.685-84.298-210.003c9.846-3.34,19.583-6.379,29.241-9.092
			c-89.878-67.008-179.179-135.354-271.479-202.198C5782.222,2717.805,5782.152,2717.828,5782.086,2717.855z" style="stroke:black;fill:#ece754"/><path id="180642828" parent_id="180642794" order="40" structure_id="10686" d="M5588.625,3292.64
			c-65.893-154.56-213.831-338.292-279.858-425.844s-251.128-212.036-301.468-241.968c-52.555-31.248-105.466-50.667-158.598-66.082
			c-5.641,5.291-10.42,12.447-11.692,25.576c-2.469,25.515,28.947,73.941,43.233,94.616
			c45.718,66.149,115.51,124.821,171.429,183.035c57.649,60.033,83.802,126.543,132.938,192.278
			c38.312,51.253,87.644,96.731,117.8,153.735c30.685,57.99,37.021,124.724,68.289,182.73
			c61.426,113.934,84.297,243.832,158.491,350.037c85.929,122.998,195.745,214.401,288.977,329.708
			c39.943,49.401,189.906,246.621,77.994,303.268c-120.058,60.435-242.39-158.503-308.518-221.833
			c-30.953-29.646-76.5-43.943-109.549-72.439c-58.177-50.156-128.861-105.483-170.283-168.968
			c-21.976-33.659-29.139-79.758-57.702-99.671c-10.671,41.446-31.467,84.311-59.237,118.391
			c64.743,34.53,85.456,112.351,139.323,173.847c56.35,64.35,115.104,120.894,224.213,180.078
			c127.116,68.951,250.804,221.041,427.95,238.8c50.508,5.07,104.111-21.334,155.001-41.226
			c-151.991-213.702-174.523-518.108-325.698-736.417C5715.578,3605.54,5654.542,3447.261,5588.625,3292.64z" style="stroke:black;fill:#fffc91"/><path id="180642827" parent_id="180642794" order="41" structure_id="10684" d="M4658.141,2521.775
			c-113.69,86.1-17.048,109.621,53.523,173.796c67.509,61.381,148.063,114.701,211.421,179.352
			c45.913,46.847,53.475,93.877,78.108,149.638c25.608,57.95,73.592,96.87,105.666,150.292
			c33.275,55.46,40.39,119.79,62.311,179.501c19.599,53.373,52.078,99.453,75.452,150.999
			c60.573,133.633,124.769,260.07,223.889,370.135c60.792,67.505,132.306,138.989,182.88,213.776
			c-112.634-58.985-183.758-184.736-268.29-275.426c-5.563-5.968-11.138-11.93-16.726-17.882c-0.006-0.006-0.011-0.012-0.017-0.018
			c-4.464-4.755-8.938-9.501-13.421-14.242c-0.638-0.675-1.275-1.351-1.914-2.025c-4.299-4.541-8.607-9.074-12.926-13.599
			c-0.772-0.81-1.545-1.618-2.318-2.427c-4.352-4.552-8.712-9.095-13.086-13.626c-0.596-0.617-1.193-1.232-1.789-1.849
			c-9.195-9.513-18.446-18.975-27.762-28.372c-0.578-0.584-1.155-1.168-1.734-1.751c-4.463-4.495-8.943-8.973-13.438-13.436
			c-0.738-0.733-1.478-1.467-2.218-2.199c-4.5-4.458-9.016-8.9-13.551-13.321c-0.607-0.593-1.218-1.184-1.826-1.775
			c-4.743-4.615-9.512-9.203-14.294-13.775c9.035,35.739,13.801,69.499,11.119,97.658c-0.003,0.036-0.007,0.072-0.011,0.108
			c-1.223,12.789-3.623,26.075-7.081,39.51c28.563,19.913,35.727,66.012,57.702,99.671
			c41.422,63.484,112.106,118.812,170.283,168.968c33.049,28.496,78.596,42.794,109.549,72.439
			c66.128,63.33,188.46,282.268,308.518,221.833c111.912-56.646-38.051-253.866-77.994-303.268
			c-93.231-115.307-203.048-206.71-288.977-329.708c-74.194-106.206-97.065-236.103-158.491-350.037
			c-31.269-58.006-37.604-124.74-68.289-182.73c-30.156-57.004-79.488-102.482-117.8-153.735
			c-49.137-65.734-75.289-132.245-132.938-192.278c-55.919-58.213-125.711-116.886-171.429-183.035
			c-14.286-20.674-45.702-69.101-43.233-94.616c1.272-13.129,6.052-20.285,11.692-25.576
			c-58.793-17.058-117.855-29.216-177.001-47.058C4667.19,2514.99,4662.674,2518.342,4658.141,2521.775z" style="stroke:black;fill:#ece754"/><path id="180642839" parent_id="180642794" order="42" structure_id="1009" d="M5271.863,6482.666
			c63.001-19.695,125.532-70.498,182.751-104.752c114.778-68.707,231.985-159.186,337.317-241.671
			c327.41-256.42,399.378-574.77,418.7-949.839c5.612-109.008-35.055-304.729-102.441-455.751
			c-26.803-60.074-66.153-115.685-95.806-151.965c-54.896-67.177-141.735-73.646-210.982-121.938
			c-98.584-68.739-156.436-120.269-242.228-172.533c-38.019-23.144-94.855-31.099-137.609-39.74
			c-48.26-9.75-106.835-34.502-138.51,20.598c-15.107,26.27-20.646,59.955-15.644,89.981c6.035,36.253,38.718,32.468,67.623,39.806
			c88.789,22.538,180.866,88.533,260.015,134.377c148.695,86.141,294.849,185.598,387.243,334.865
			c73.544,118.807,105.211,252.932,106.974,398.086c1.746,145.167-26.616,292.648-73.764,412.023
			c-30.083,76.172-45.084,131.53-92.419,198.954c-38.692,55.111-90.152,105.142-158.733,158.471
			c-114.008,88.626-183.052,131.761-331.982,113.755c-38.985-4.707-101.109-31.834-90.43,20.942
			c15.936,78.583,138.584,71.923,15.083,138.547c-55.132,29.742-115.647,41.292-106.17,119.485
			C5253.321,6444.777,5261.378,6465.524,5271.863,6482.666z" style="stroke:black;fill:#cccccc"/><path id="180642840" parent_id="180642794" order="43" structure_id="1009" d="M3702.958,6674.688
			c-9.227-35.931-14.798-119.915,29.897-158.157c46.498-39.773,115.347-57.138,171.404-20.979
			c38.173,24.621,68.89,72.5,105.714,100.447c62.238,47.221,131.201,100.707,204.761,127.059
			c26.566,9.522,130.893,45.044,51.964,71.725l0.008,0.228c-165.068,5.259-331.324-14.1-476.884-78.97
			c-33.438-14.903-55.911-26.834-77.905-36.918L3702.958,6674.688z" style="stroke:black;fill:#cccccc"/><path id="180642841" parent_id="180642794" order="44" structure_id="1009" d="M4319.085,6392.302
			c-141.265-108.455-259.592-222.02-342.232-382.748c-41.267-80.252-91.842-199.148-91.842-199.148
			c-16.39-57.361-17.088-164.968-24.406-224.192c-11.208-90.652-30.278-189.443,9.08-267.515
			c21.767-43.156,67.469-48.679,22.725-98.202c-33.665-37.251-109.702-38.794-155.031-32.65l-40.471,459.809
			c-8.658,120.294,43.208,232.952,50.364,321.347c3.281,40.468-3.241,172.379,53.491,233.972
			c70.782,76.85,218.86,120.837,254.118,157.8c35.225,36.927,37.474,97.475,78.107,129.065
			c92.655,72.009,347.975,223.433,409.668,123.514C4589.625,6537.273,4364.429,6427.124,4319.085,6392.302z" style="stroke:black;fill:#cccccc"/><path id="180642842" parent_id="180642794" order="45" structure_id="1009" d="M4508.26,4363.125
			c125.256,10.457,116.086,136.932-0.861,100.5C4434.439,4440.908,4408.937,4354.833,4508.26,4363.125z" style="stroke:black;fill:#cccccc"/><path id="180642843" parent_id="180642794" order="46" structure_id="1009" d="M4082.022,1008.311
			c138.73,26.412,283.535,32.329,420.926,63.318c158.417,35.729,295.043,123.136,427.625,213.062
			c81.975,55.599,163.161,114.194,246.499,167.526c60.882,38.96,111.685,110.328,177.942,139.684
			c39.01,17.283,161.805-2.416,146.097,61.95c-89.283-62.031-109.458,60.537-139.672,116.902
			c-77.653,144.602-92.728,251.669-56.479,414.334c20.256,90.904,82.852,193.265,148.533,257.911
			c128.951,126.925,330.212,182.121,499.585,231.25c88.172,25.584,177.342,43.984,269.362,46.839
			c77.914,2.417,248.498,14.668,315.771-26.603c52.581-32.269,72.634-86.494,98.786-138.645
			c23.294-46.47,57.357-77.004,84.443-121.004c18.291,130.982-114.689,291.572-21.945,414.578
			c24.715,32.792,57.941,55.306,87.262,83.058c18.51,17.511,49.633,74.717,69.207,84.257
			c-37.572-18.311-89.602-71.083-138.674-65.556c15.732-1.774,31.497-3.184,47.294-4.235
			c-40.585-38.884-79.992-82.957-133.768-103.696c-59.021-22.77-108.865-1.762-168.351-6.786
			c-32.561-2.746-63.676-26.441-97.064-32.435c-42.899-7.695-89.893-4.398-133.451-6.684c-89.9-4.719-180.825-10.27-267.818-35.212
			c-44.176-12.662-155.186-70.047-191.149-38.77c27.437,77.125,84.11,137.049,127.002,205.553
			c100.558,160.635,198.028,315.743,306.269,471.297c44.728,64.281,78.173,132.127,142.808,179.726
			c90.104,66.343,206.953,126.9,319.223,136.517c-82.349,6.786-198.824,20.727-279.8-17.263
			c-3.508,82.961-35.842,154.499-59.151,232.067c7.326-66.709,18.363-179.766-0.771-243.835
			c-16.935-56.658-79.806-109.828-113.446-160.2c-62.863-94.137-144.155-177.492-205.72-274.699
			c-58.924-93.02-106.308-246.682-191.514-314.65c-33.43-77.995-107.226-133.325-171.916-183.136
			c-64.731-49.832-116.411-108.565-175.888-163.908c-141.735-131.883-339.219-217.772-535.038-190.921
			c-109.223,14.977-190.458,56.402-276.899,121.877c-113.69,86.1-17.048,109.621,53.523,173.796
			c67.509,61.381,148.063,114.701,211.421,179.352c45.913,46.847,53.475,93.877,78.108,149.638
			c25.608,57.95,73.592,96.87,105.666,150.292c33.275,55.46,40.39,119.79,62.311,179.501
			c19.599,53.373,52.078,99.453,75.452,150.999c60.573,133.633,124.769,260.07,223.889,370.135
			c60.792,67.505,132.306,138.989,182.88,213.776c-112.634-58.985-183.758-184.736-268.29-275.426
			c-88.618-95.059-180.07-188.696-284.794-266.228c-164.232-121.572-386.626-145.207-585.296-120.305
			c-77.296,9.693-143.757,8.016-222.19,2.615c-61.889-4.264-122.763-10.867-185.414-10.867
			c-75.591-0.021-141.988-10.218-218.115-7.928l4.966-60.638c193.463-1.502,383.838,9.073,576.603-0.283
			c153.017-7.428,341.469-60.971,490.781-3.302c56.203,21.702,99.81,67.761,147.233,103.542
			c0.09-26.766-29.547-94.673-46.611-115.745c-30.547-37.726-73.26-20.609-106.445-49.499c32.642-0.325,69.149-5.563,95.172-22.514
			c44.695-29.097-157.995-347.036-185.325-377.94c-64.171-72.549-158.223-122.474-245.086-163.445
			c-109.288-51.545-190.97-84.468-313.123-96.663c-116.882-11.667-235.808-12.639-350.408-40.773l16.266-194.258
			c118.587,10.68,225.797-7.846,344.222,6.209c107.843,12.792,215.125,2.266,322.472-27.18
			c96.041-26.343,192.001-53.954,280.96-99.7c110.929-57.04,100.387-123.794,159.774-220.188
			c45.003-73.04,96.082-123.449,112.073-211.583c17.446-96.163,10.445-207.583-27.379-298.223
			c-60.808-145.723-244.777-243.896-381.541-305.732c-91.314-41.279-185.805-73.885-276.852-116.017
			c-128.252-59.363-287.279-57.548-426.212-70.619L4082.022,1008.311" style="stroke:black;fill:#cccccc"/><path id="180642838" parent_id="180642794" order="47" structure_id="164" d="M3867.962,4556.824c11.963-26.807,0.349-54.218-3.452-58.705
			c-3.793-4.491-18.291-30.737-25.194-48.009c-4.913-12.286-27.636-12.472-36.845-12.022l-13.815,163.262
			C3796.851,4599.091,3856.814,4581.806,3867.962,4556.824z" style="stroke:black;fill:#aaaaaa"/></g>
</g>
</svg>