<svg width="10576" height="8112" xmlns="http://www.w3.org/2000/svg">
<g transform="scale(1.0)">
<g id="180630784" order="1" parent_id="" graphic_group_label_id="28" graphic_group_label="Atlas - Adult Mouse" sub_image_id="100960273" transform=" scale(1.0, 1.0)"><path id="180630786" parent_id="180630784" order="0" structure_id="8" d="M5294.202,6981.069
			c201.783,12.166,376.216-13.493,578.43-40.938c208.216-28.258,248.399-91.549,392.491-151.031
			c158.701-65.533,372.163-130.469,487.353-208.24c26.345-19.422,75.932-80.176,95.04-73.833
			c27.084-4.56,51.325,79.437,111.925,161.979c1.104,1.507,19.108,29.313,19.108,29.313s80.919,91.195,151.012,134.68
			c217.807,135.117,286.218,194.345,529.225,282.889c323.811,117.97,532.205,123.326,684.369,32.272
			c135.89-81.304,304.905-249.945,386.636-381.194c76.784-123.298,231.783-389.233,326.848-492.708
			c110.162-119.928,262.529-466.25,402.261-805.166c70.084-169.966,83.15-256.918,154.023-403.08
			c72.708-149.947,200.185-434.988,250.259-590.563c48.661-151.157,110.998-432.048,75.591-586.88
			c-15.885-69.472,1.129-164.31-8.535-238.5c-6.14-47.155-8.292-138.927-11.873-185.858
			c-14.578-191.434-82.543-402.28-142.054-583.672c-33.564-102.276-131.464-279.312-217.814-369.638
			c-26.491-27.705-52.927-105.911-71.466-186.5c-16.071-52.149-325.078-585.751-463.452-729.88
			c-243.737-253.872-533.001-449.249-866.744-605.291c-241.521-112.916-531.588-224.58-847.895-294.608
			c-271.796-60.177-558.94-31.266-584.619-28.432c-106.256,11.723-206.583,0.728-331.388,10.314
			c-177.859,13.667-323.852,36.622-473.303,61.456c-94.326,15.682-199.811,8.792-285.91,35.753
			c-99.531,31.176-212.422,161.974-275.255,204.963l-14.05,1312.228L5294.202,6981.069z" style="stroke:black;fill:#bfdae3"/><path id="180630787" parent_id="180630784" order="1" structure_id="688" d="M5633.719,773.714
			c-99.531,31.168-210.002,160.252-272.835,203.241c0,0-16.542,1322.847-16.713,1336.329c41.36,9.639,147.056,17.013,186.532,10.886
			c117.098-18.175,179.694-35.059,256.187-83.976c49.515-31.664,95.772-77.007,130.465-124.496
			c62.443-85.47,141.388-159.708,215.955-176.86c60.438-13.907,86.977-18.764,164.443-10.346
			c127.371,13.838,333.897,78.42,454.138,110.896c120.24,32.473,329.472,103.324,420.524,143.804
			c91.045,40.475,285.593,123.643,364.164,163.988c78.58,40.346,190.188,101.834,289.175,177.742
			c98.987,75.907,214.274,178.98,273.956,239.953c117.941,120.496,196.716,224.502,230.045,262.351
			c55.467,62.967,204.797,291.188,255.813,381.137c51.016,89.945,140.803,258.307,165.003,317.789
			c26.337,64.733,56.206,187.723,74.113,262.761c17.906,75.038,23.462,185.407,26.458,247.696
			c1.697,35.363-27.327,222.176-40.378,276.091c-13.059,53.916-63.247,275.844-89.063,356.652s-124.228,339.644-141.371,387.281
			c-17.144,47.634-88,63.511-140.592,121.162c-52.601,57.651-154.576,188.137-184.104,228.031
			c-22.032,29.747-16.6,69.212-21.358,125.296s-35.554,213.771-46.639,278.102c-11.077,64.335-70.426,169.733-91.549,200.695
			c-21.123,30.957-122.222,152.546-193.127,172.576s-133.242,17.286-214.063-8.531c-52.471-16.762-99.572-45.969-149.233-69.126
			c-103.778-48.401-253.645-2.595-334.937,70.394c-42.514,38.169-84.053,78.538-122.156,121.149
			c-29.455,32.947-73.188,96.234-97.112,138.261c-3.54,6.196-22.73,38.852-22.73,38.852
			c43.342,58.598,84.897,108.659,166.831,159.506c217.807,135.117,286.227,194.353,529.225,282.889
			c323.811,117.979,532.205,123.326,684.369,32.272c135.882-81.312,304.905-249.945,386.636-381.194
			c76.784-123.298,231.783-389.233,326.848-492.708c110.162-119.928,262.529-466.25,402.261-805.166
			c70.084-169.966,83.15-256.918,154.023-403.08c72.708-149.947,200.185-434.988,250.259-590.563
			c48.661-151.157,110.998-432.048,75.591-586.88c-15.885-69.472,1.129-164.31-8.535-238.5
			c-6.14-47.155-8.292-138.927-11.873-185.858c-14.578-191.434-82.543-402.28-142.054-583.672
			c-33.564-102.276-131.464-279.312-217.814-369.638c-26.491-27.705-52.927-105.911-71.466-186.5
			c-16.071-52.149-325.078-585.751-463.452-729.88c-243.737-253.872-533.001-449.249-866.744-605.291
			c-241.521-112.916-531.588-224.58-847.895-294.608c-271.796-60.177-558.94-31.266-584.619-28.432
			c-106.256,11.723-206.583,0.728-331.388,10.314c-177.859,13.667-323.852,36.622-473.303,61.456
			C5825.303,753.642,5719.818,746.752,5633.719,773.714z" style="stroke:black;fill:#b0ffb8"/><path id="180630886" parent_id="180630784" order="2" structure_id="320" d="M6634.167,671.677l-1.212,113.174
			c-84.861,3.166-179.885,7.805-288.479,13.876c-61.079,3.422-190.409,12.1-281.564,20.522l-10.627-102.656
			c105.959-16.246,215.389-30.46,340.654-40.097C6482.164,669.635,6558.886,673.283,6634.167,671.677z" style="stroke:black;fill:#1f9d5a"/><path id="180630885" parent_id="180630784" order="3" structure_id="943" d="M6632.955,784.852
			l-3.947,368.708c-181.997-43.447-354.1-79.055-541.676-98.527l-24.421-235.782c91.155-8.422,220.485-17.101,281.564-20.522
			C6453.07,792.656,6548.094,788.018,6632.955,784.852z" style="stroke:black;fill:#1f9d5a"/><path id="180630884" parent_id="180630784" order="4" structure_id="648" d="M6629.008,1153.56l-3.993,372.95
			c-134.353-34.871-270.184-63.769-400.028-115.723c-31.716-12.731-68.741-34.417-106.606-55.364l-31.048-300.39
			C6274.908,1074.505,6447.011,1110.112,6629.008,1153.56z" style="stroke:black;fill:#1f9d5a"/><path id="180630883" parent_id="180630784" order="5" structure_id="844" d="M6625.015,1526.509l-4.063,379.519
			c-117.554-34.857-305.099-88.426-456.907-108.514l-45.665-442.092c37.865,20.947,74.891,42.633,106.606,55.364
			C6354.831,1462.74,6490.662,1491.639,6625.015,1526.509z" style="stroke:black;fill:#1f9d5a"/><path id="180630882" parent_id="180630784" order="6" structure_id="882" d="M6620.952,1906.028l-1.022,95.462
			c-130.508-36.659-287.683-76.015-374.073-77.688c-9.146-0.181-18.045-0.11-26.698,0.296c-2.663,0.138-5.242,0.276-7.822,0.415
			c-0.166-0.002-0.416-0.004-0.665-0.007c-3.079,0.217-6.242,0.433-9.239,0.733c-3.246,0.298-6.41,0.597-9.491,0.979
			c-3.163,0.299-6.244,0.682-9.327,1.148c-1.665,0.231-3.331,0.463-4.914,0.696l-0.469-2.833l-13.186-127.715
			C6315.854,1817.602,6503.398,1871.171,6620.952,1906.028z" style="stroke:black;fill:#1f9d5a"/><path id="180630891" parent_id="180630784" order="7" structure_id="656" d="M6052.284,716.594l10.627,102.656
			c-25.142,2.392-47.371,4.731-64.527,6.96c-87.776,11.368-142.988,18.263-239.471,34.859
			c-36.826,6.343-69.276,15.559-97.844,27.312l-46.502-107.53c6.433-2.759,12.778-5.103,19.12-7.114
			c86.114-26.938,191.576-20.071,285.97-35.776C5963.896,730.617,6007.801,723.436,6052.284,716.594z" style="stroke:black;fill:#1f9d5a"/><path id="180630890" parent_id="180630784" order="8" structure_id="962" d="M6062.911,819.25
			l24.421,235.782c-28.41-2.965-57.24-5.603-86.491-7.745c-113.845-8.454-187.717,24.687-236.134,80.47l-103.638-239.375
			c28.567-11.753,61.018-20.969,97.844-27.312c96.482-16.597,151.694-23.491,239.471-34.859
			C6015.54,823.981,6037.77,821.642,6062.911,819.25z" style="stroke:black;fill:#1f9d5a"/><path id="180630889" parent_id="180630784" order="9" structure_id="767" d="M6087.332,1055.032l31.048,300.39
			c-72.259-39.861-147.709-76.845-195.561-42.761c-21.705,15.403-37.831,38.017-50.091,64.582l-108.021-249.485
			c48.417-55.783,122.289-88.924,236.134-80.47C6030.092,1049.43,6058.922,1052.067,6087.332,1055.032z" style="stroke:black;fill:#1f9d5a"/><path id="180630888" parent_id="180630784" order="10" structure_id="1021" d="M6118.38,1355.422l45.665,442.092
			c-8.222-1.169-16.278-2.087-24.252-3.004c-33.393-3.684-58.993,2.695-79.184,16.534l-187.881-433.801
			c12.26-26.564,28.386-49.179,50.091-64.582C5970.671,1278.577,6046.121,1315.561,6118.38,1355.422z" style="stroke:black;fill:#1f9d5a"/><path id="180630887" parent_id="180630784" order="11" structure_id="1085" d="M6177.23,1925.229l0.469,2.833
			c-1.333,0.235-2.582,0.388-3.832,0.624c-14.996,2.501-29.17,5.842-42.521,10.107c-2.503,0.722-5.007,1.526-7.428,2.416
			c-2.086,0.643-4.09,1.37-6.095,2.18l-57.214-132.345c20.19-13.838,45.791-20.218,79.184-16.534
			c7.974,0.917,16.03,1.835,24.252,3.004L6177.23,1925.229z" style="stroke:black;fill:#1f9d5a"/><path id="180630869" parent_id="180630784" order="12" structure_id="981" d="M9576.742,2531.049
			l-1.847,1.561l-67.121,39.533c-41.794-65.648-83.33-132.125-119.581-210.605c-77.218-167.072-165.668-341.417-260.872-490.718
			c-87.189-136.741-207.435-231.006-326.202-338.894c-65.232-59.246-124.518-99.051-180.447-133.831l67.239-97.248
			c120.143,88.277,231.953,185.778,335.668,293.671c138.339,144.108,447.403,677.756,463.479,729.906
			c18.515,80.535,44.955,158.743,71.438,186.471C9564.499,2517.196,9570.581,2523.915,9576.742,2531.049z" style="stroke:black;fill:#188064"/><path id="180630868" parent_id="180630784" order="13" structure_id="201" d="M9507.774,2572.143
			l-241.035,142.125c-9.844-20.481-19.854-40.88-29.949-61.197c-202.463-407.844-450.187-689.678-819.698-960.426l203.58-294.55
			c55.93,34.779,115.215,74.584,180.447,133.831c118.768,107.888,239.013,202.153,326.202,338.894
			c95.204,149.301,183.654,323.646,260.872,490.718C9424.444,2440.018,9465.98,2506.495,9507.774,2572.143z" style="stroke:black;fill:#188064"/><path id="180630867" parent_id="180630784" order="14" structure_id="1047" d="M9266.739,2714.269
			l-145.458,85.765c-184.03-296.289-393.649-579.545-629.75-836.223c-47.269-51.403-102.051-100.142-161.192-145.684l86.753-125.481
			c369.512,270.748,617.235,552.582,819.698,960.426C9246.885,2673.389,9256.896,2693.788,9266.739,2714.269z" style="stroke:black;fill:#188064"/><path id="180630866" parent_id="180630784" order="15" structure_id="1070" d="M9121.281,2800.034
			l-250.659,147.761c-3.924-6.279-7.849-12.559-11.939-18.84c-91.304-140.86-221.717-240.806-315.189-381.023
			c-112.463-168.614-256.549-311.952-419.015-431.951l205.86-297.854c59.142,45.542,113.924,94.281,161.192,145.684
			C8727.632,2220.488,8937.251,2503.745,9121.281,2800.034z" style="stroke:black;fill:#188064"/><path id="180630865" parent_id="180630784" order="16" structure_id="1038" d="M8858.683,2928.955
			c4.091,6.281,8.016,12.561,11.939,18.84l-352.513,207.796c-18.248-27.806-36.575-55.945-55.063-84.585
			c-61.273-95.048-157.963-198.874-227.046-286.77c-74.746-95.026-170.674-176.805-263.397-254.891
			c-27.693-23.333-56.892-45.934-87.013-67.796l238.889-345.568c162.466,119.999,306.552,263.337,419.015,431.951
			C8636.966,2688.149,8767.379,2788.095,8858.683,2928.955z" style="stroke:black;fill:#188064"/><path id="180630864" parent_id="180630784" order="17" structure_id="1062" d="M8518.109,3155.591
			l-68.628,40.432c-63.447-93.823-133.458-188.299-207.93-277.833c-86.953-104.47-229.331-252.031-406.646-383.333l50.684-73.308
			c30.121,21.862,59.319,44.463,87.013,67.796c92.724,78.086,188.651,159.865,263.397,254.891
			c69.083,87.896,165.772,191.722,227.046,286.77C8481.534,3099.646,8499.861,3127.785,8518.109,3155.591z" style="stroke:black;fill:#188064"/><path id="180630881" parent_id="180630784" order="18" structure_id="1030" d="M7447.656,728.289
			l-31.048,119.175c-244.442-60.083-420.5-75.773-783.653-62.612l1.212-113.174c30.028-0.593,59.817-2.104,90.125-5.438
			c25.729-2.886,312.871-31.746,584.674,28.38C7355.761,704.934,7402.045,716.241,7447.656,728.289z" style="stroke:black;fill:#188064"/><path id="180630880" parent_id="180630784" order="19" structure_id="113" d="M7416.608,847.464
			l-88.811,340.938c-88.3-25.23-177.783-48.726-268.441-71.152c-90.327-22.34-260.888-62.089-357.05-13.22
			c-37.545,19.059-38.099,39.761-20.511,59.243l-3.018,2.213c-16.672-4.087-33.262-8.09-49.771-11.926l3.947-368.708
			C6996.108,771.69,7172.166,787.38,7416.608,847.464z" style="stroke:black;fill:#188064"/><path id="180630879" parent_id="180630784" order="20" structure_id="1094" d="M7327.798,1188.402
			l-44.582,171.423c-175.154-45.62-283.146-80.291-429.71-116.54c-33.592-8.343-137.354-41.888-171.71-80.013
			c-17.588-19.482-17.034-40.185,20.511-59.243c96.162-48.869,266.723-9.12,357.05,13.22
			C7150.015,1139.677,7239.498,1163.172,7327.798,1188.402z" style="stroke:black;fill:#188064"/><path id="180630878" parent_id="180630784" order="21" structure_id="1128" d="M7283.216,1359.825
			l-86.899,333.391c-146.089-41.732-296.416-83.76-437.398-128.598c-44.26-14.03-89.036-26.401-133.903-38.109l3.993-372.95
			c16.509,3.836,33.099,7.839,49.771,11.926l3.018-2.213c34.355,38.125,138.118,71.669,171.71,80.013
			C7000.069,1279.534,7108.062,1314.206,7283.216,1359.825z" style="stroke:black;fill:#188064"/><path id="180630877" parent_id="180630784" order="22" structure_id="478" d="M7196.316,1693.216
			l-96.358,370.131c-127.454-50.099-256.881-94.48-385.408-129.787c-19.403-5.364-52.146-15.279-93.598-27.532l4.063-379.519
			c44.867,11.708,89.644,24.079,133.903,38.109C6899.9,1609.456,7050.228,1651.483,7196.316,1693.216z" style="stroke:black;fill:#188064"/><path id="180630876" parent_id="180630784" order="23" structure_id="510" d="M7099.958,2063.347
			l-21.422,82.187l-0.855,2.236c-10.603-3.939-21.122-7.877-31.561-11.648c-97.918-35.728-153.28-53.619-260.963-86.125
			c-39.957-11.987-99.228-29.919-165.228-48.507l1.022-95.462c41.451,12.253,74.194,22.167,93.598,27.532
			C6843.077,1968.866,6972.504,2013.248,7099.958,2063.347z" style="stroke:black;fill:#188064"/><path id="180630875" parent_id="180630784" order="24" structure_id="1006" d="M8687.911,1300.847
			l-67.239,97.248c-50.064-31.141-97.595-58.179-144.31-91.446c-247.692-175.966-524.774-310.083-819.108-394.07
			c-90.539-25.835-168.565-47.461-240.646-65.116l31.048-119.175c262.39,69.424,503.377,164.731,709.178,260.911
			C8348.648,1078.909,8525.77,1181.6,8687.911,1300.847z" style="stroke:black;fill:#188064"/><path id="180630874" parent_id="180630784" order="25" structure_id="670" d="M8620.672,1398.095
			l-203.58,294.55c-6.023-4.472-12.047-8.86-18.154-13.251c-331.337-239.9-689.667-382.039-1071.14-490.992l88.811-340.938
			c72.08,17.654,150.106,39.28,240.646,65.116c294.334,83.987,571.416,218.104,819.108,394.07
			C8523.077,1339.917,8570.607,1366.955,8620.672,1398.095z" style="stroke:black;fill:#188064"/><path id="180630873" parent_id="180630784" order="26" structure_id="1086" d="M8417.092,1692.646
			l-86.753,125.481c-132.798-102.466-287.801-189.369-430.535-257.013c-204.875-97.167-350.686-133.74-568.982-189.054
			c-16.422-4.167-32.263-8.246-47.605-12.235l44.582-171.423c381.473,108.954,739.803,251.092,1071.14,490.992
			C8405.045,1683.785,8411.068,1688.174,8417.092,1692.646z" style="stroke:black;fill:#188064"/><path id="180630872" parent_id="180630784" order="27" structure_id="1111" d="M8330.339,1818.127
			l-205.86,297.854c-120.549-89.195-251.298-165.443-386.835-229.517c-132.806-62.879-263.346-112.097-405.856-154.041
			c-44.436-13.117-89.704-26.159-135.471-39.207l86.899-333.391c15.343,3.99,31.184,8.068,47.605,12.235
			c218.297,55.313,364.107,91.887,568.982,189.054C8042.538,1628.758,8197.541,1715.661,8330.339,1818.127z" style="stroke:black;fill:#188064"/><path id="180630871" parent_id="180630784" order="28" structure_id="9" d="M8124.479,2115.98
			l-238.889,345.568c-106.376-76.818-225.496-144.043-339.746-200.155c-142.708-70.055-292.923-138.11-445.886-198.047
			l96.358-370.131c45.767,13.048,91.035,26.09,135.471,39.207c142.511,41.943,273.051,91.161,405.856,154.041
			C7873.181,1950.537,8003.93,2026.785,8124.479,2115.98z" style="stroke:black;fill:#188064"/><path id="180630870" parent_id="180630784" order="29" structure_id="461" d="M7885.59,2461.549
			l-50.684,73.308c-72.689-54.003-151.231-105.159-234.253-149.542c-177.62-94.962-360.126-176.422-522.973-237.544l0.855-2.236
			l21.422-82.187c152.963,59.937,303.178,127.992,445.886,198.047C7660.094,2317.506,7779.214,2384.73,7885.59,2461.549z" style="stroke:black;fill:#188064"/><path id="180630863" parent_id="180630784" order="30" structure_id="873" d="M9938.776,3888.592
			c10.963,48.02,12.565,108.082,8.048,172.735l-0.167-0.002l-144.108-9.277c61.914-423.143,8.637-876.626-161.294-1247.03
			c-39.739-86.667-86.699-159.19-133.48-232.875l67.121-39.533l1.847-1.561c81.487,94.516,168.346,254.373,199.595,349.515
			c59.517,181.353,127.45,392.237,142.033,583.671c3.572,46.943,5.751,138.697,11.899,185.833
			C9939.87,3724.271,9922.887,3819.146,9938.776,3888.592z" style="stroke:black;fill:#188064"/><path id="180630862" parent_id="180630784" order="31" structure_id="806" d="M9641.255,2805.018
			c169.931,370.404,223.208,823.887,161.294,1247.03l-203.527-13.157c1.41-54.042,1.15-107.519,0.958-159.416
			c-1.584-403.614-155.688-799.712-333.24-1165.208l241.035-142.125C9554.556,2645.828,9601.516,2718.352,9641.255,2805.018z" style="stroke:black;fill:#188064"/><path id="180630861" parent_id="180630784" order="32" structure_id="1035" d="M9599.979,3879.476
			c0.192,51.896,0.452,105.374-0.958,159.416l-91.834-5.89c16.067-389.952-127.326-799.991-317.665-1120.714
			c-22.302-37.58-45.104-75.081-68.241-112.254l145.458-85.765C9444.291,3079.764,9598.396,3475.862,9599.979,3879.476z" style="stroke:black;fill:#188064"/><path id="180630860" parent_id="180630784" order="33" structure_id="1090" d="M9189.522,2912.288
			c190.339,320.724,333.732,730.762,317.665,1120.714l-285.057-18.438c-6.285-34.331-12.987-68.583-17.61-102.896
			c-13.952-102.774-47.697-213.328-81.407-311.74c-75.644-220.863-128.312-451.542-252.491-652.134l250.659-147.761
			C9144.418,2837.207,9167.221,2874.708,9189.522,2912.288z" style="stroke:black;fill:#188064"/><path id="180630859" parent_id="180630784" order="34" structure_id="862" d="M9222.131,4014.564
			l-303.673-19.551c-30.279-108.022-68.885-215.218-109.196-318.358c-75.527-192.918-180.276-351.802-291.152-521.064
			l352.513-207.796c124.18,200.591,176.848,431.271,252.491,652.134c33.71,98.412,67.455,208.966,81.407,311.74
			C9209.144,3945.981,9215.846,3980.234,9222.131,4014.564z" style="stroke:black;fill:#188064"/><path id="180630858" parent_id="180630784" order="35" structure_id="893" d="M8918.458,3995.013l-93.162-6.07
			c-0.392-2.25-0.867-4.5-1.342-6.75c-1.654-8.583-3.478-17.003-5.301-25.339c-1.502-7.251-3.09-14.337-4.678-21.34
			c-1.591-6.837-3.182-13.59-4.774-20.177c-1.116-4.503-2.149-8.921-3.268-13.258c-1.596-6.338-3.192-12.509-4.791-18.597
			c-3.676-14.011-7.358-27.356-11.051-39.788c-1.204-4.005-2.327-7.842-3.535-11.598c-4.66-15.269-9.335-29.125-13.779-41.231
			c-52.205-141.938-168.725-366.565-323.296-594.843l68.628-40.432c110.876,169.262,215.625,328.146,291.152,521.064
			C8849.573,3779.795,8888.179,3886.991,8918.458,3995.013z" style="stroke:black;fill:#188064"/><path id="180630857" parent_id="180630784" order="36" structure_id="897" d="M9946.657,4061.325l0.167,0.002
			c-9.94,143.852-50.056,309.834-83.607,414.095c-17.633,54.7-44.753,125.432-75.83,200.612l-2.568-1.025l-164.92-38.274
			c50.951-98.254,93.871-199.92,122.829-302.484c25.847-91.62,45.82-186.131,59.821-282.202L9946.657,4061.325z" style="stroke:black;fill:#11ad83"/><path id="180630856" parent_id="180630784" order="37" structure_id="1106" d="M9599.021,4038.892
			l203.527,13.157c-14.001,96.071-33.975,190.582-59.821,282.202c-28.958,102.564-71.878,204.23-122.829,302.484l-228.301-53.008
			c6.026-11.329,12.132-22.325,18.23-32.655c30.146,66.022,105.994-73.963,121.798-113.047
			C9581.604,4314.063,9595.486,4174.911,9599.021,4038.892z" style="stroke:black;fill:#11ad83"/><path id="180630855" parent_id="180630784" order="38" structure_id="1010" d="M9507.188,4033.002l91.834,5.89
			c-3.535,136.02-17.417,275.171-67.396,399.133c-15.804,39.084-91.651,179.069-121.798,113.047
			c-16.821-36.772,34.123-165.631,45.156-201.772C9486.186,4246.925,9502.708,4140.735,9507.188,4033.002z" style="stroke:black;fill:#11ad83"/><path id="180630854" parent_id="180630784" order="39" structure_id="1058" d="M9222.131,4014.564
			l285.057,18.438c-4.479,107.733-21.002,213.923-52.203,316.297c-11.033,36.142-61.978,165-45.156,201.772
			c-6.099,10.33-12.204,21.326-18.23,32.655l-224.485-52.053c22.632-24.374,39.244-53.471,43.248-93.43
			c8.858-89.473,26.693-178.435,28.571-268.398C9240.069,4117.881,9231.559,4066.145,9222.131,4014.564z" style="stroke:black;fill:#11ad83"/><path id="180630853" parent_id="180630784" order="40" structure_id="857" d="M9222.131,4014.564
			c9.428,51.58,17.938,103.316,16.801,155.281c-1.878,89.964-19.713,178.926-28.571,268.398
			c-4.004,39.959-20.616,69.056-43.248,93.43l-226.393-52.572c-3.31-32.636-9.325-61.142-17.831-82.273
			c-37.913-94.133-61.767-87.734-78.097-46.161c4.401-30.474,7.493-62.875,8.301-99.459c0.158-7.067,0.236-14.302,0.065-21.705
			l0.48,32.855c14.473,38.577,72.944,76.793,99.273,48.882c35.835-37.955,1.015-172.472-8.516-214.405
			c-7.704-33.931-16.321-67.954-25.938-101.822L9222.131,4014.564z" style="stroke:black;fill:#11ad83"/><path id="180630852" parent_id="180630784" order="41" structure_id="849" d="M8944.396,4096.835
			c9.53,41.934,44.351,176.45,8.516,214.405c-26.329,27.911-84.801-10.305-99.273-48.882l-0.48-32.855l-0.081-7.901
			c-0.061-2.163-0.119-4.409-0.18-6.572c-0.113-4.907-0.311-9.816-0.507-14.809c-0.196-4.991-0.476-9.984-0.754-14.978
			c-0.208-3.911-0.499-7.822-0.789-11.817c-0.432-6.242-0.864-12.484-1.462-18.811c-0.443-5.161-0.887-10.322-1.413-15.567
			c-0.453-4.246-0.907-8.492-1.36-12.738c-5-45.711-12.481-92.613-21.316-137.367l93.162,6.07
			C8928.075,4028.881,8936.692,4062.904,8944.396,4096.835z" style="stroke:black;fill:#11ad83"/><path id="180630896" parent_id="180630784" order="42" structure_id="935" d="M5614.567,780.852l46.502,107.53
			c-188.784,77.734-208.697,267.634-199.097,489.453l-103.991-97.584l-2.744-0.029l3.228-301.519
			C5417.277,938.415,5520.075,821.255,5614.567,780.852z" style="stroke:black;fill:#40a666"/><path id="180630895" parent_id="180630784" order="43" structure_id="211" d="M5661.069,888.381
			l103.638,239.375c-72.75,83.717-88.162,218.277-95.447,339.453c-1.927,32.414-4.193,65.406-6.712,98.728l-200.575-188.103
			C5452.372,1156.016,5472.285,966.115,5661.069,888.381z" style="stroke:black;fill:#40a666"/><path id="180630894" parent_id="180630784" order="44" structure_id="1015" d="M5764.707,1127.757
			l108.021,249.485c-35.159,75.885-38.98,184.208-50.255,250.785c-4.438,26.066-7.958,51.976-10.73,77.894l-149.195-139.983
			c2.519-33.322,4.785-66.313,6.712-98.728C5676.545,1346.034,5691.957,1211.474,5764.707,1127.757z" style="stroke:black;fill:#40a666"/><path id="180630893" parent_id="180630784" order="45" structure_id="919" d="M5872.729,1377.242
			l187.881,433.801c-24.296,16.622-40.807,44.057-53.727,77.933l-195.14-183.055c2.772-25.918,6.293-51.827,10.73-77.894
			C5833.748,1561.45,5837.569,1453.127,5872.729,1377.242z" style="stroke:black;fill:#40a666"/><path id="180630892" parent_id="180630784" order="46" structure_id="927" d="M6060.609,1811.043
			l57.214,132.345c-3.255,1.13-6.429,2.343-9.604,3.723c-2.505,0.971-4.928,1.943-7.351,2.998c-2.842,1.3-5.683,2.601-8.441,3.902
			c-3.511,1.708-7.022,3.417-10.368,5.211c-0.334,0.163-0.67,0.409-1.004,0.572l-1.223-2.342l-72.95-68.476
			C6019.803,1855.1,6036.313,1827.665,6060.609,1811.043z" style="stroke:black;fill:#40a666"/><path id="180630901" parent_id="180630784" order="47" structure_id="588" d="M5492.73,2280.165l-4.683,2.445
			c-14.133-31.587-68.874-29.845-96.702-25.07c-12.913,2.19-40.239-8.914-43.183,32.97c-1.072,14.709,8.084,21.709,19.937,25.496
			l-23.924-2.585l11.062-1033.199l2.744,0.029l103.991,97.584c2.872,65.814,8.292,134.4,12.706,203.723
			c7.974,125.247-9.042,246.402-8.142,372.073C5467.109,2032.228,5449.453,2197.701,5492.73,2280.165z" style="stroke:black;fill:#40a666"/><path id="180630900" parent_id="180630784" order="48" structure_id="296" d="M5492.73,2280.165
			c-43.277-82.463-25.621-247.937-26.193-326.534c-0.9-125.67,16.115-246.826,8.142-372.073
			c-4.414-69.323-9.834-137.909-12.706-203.723l200.575,188.103c-17.494,235.75-45.842,491.094-52.017,726.05l7.37,18.458
			c-75.111,16.827-136.568,16.751-147.713,16.798l-19.271-2.119c25.049-1.561,47.181-10.222,38.829-38.089
			c-0.481-1.585-1.049-3.005-1.698-4.426L5492.73,2280.165z" style="stroke:black;fill:#40a666"/><path id="180630899" parent_id="180630784" order="49" structure_id="772" d="M5662.548,1565.938
			l149.195,139.983c-9.32,85.975-10.652,171.538-9.184,259.624c1.413,85.508-7.95,183.292-8.449,268.78l1.31,1.927
			c-56.473,39.231-120.831,61.496-177.519,74.195l-7.37-18.458C5616.706,2057.031,5645.054,1801.688,5662.548,1565.938z" style="stroke:black;fill:#40a666"/><path id="180630898" parent_id="180630784" order="50" structure_id="810" d="M5966.699,2037.991l54.284-36.76
			c-67.818,58.071-115.998,138.308-185.635,203.013c-12.684,11.757-26.021,22.425-39.929,32.007l-1.31-1.927
			c0.499-85.488,9.862-183.272,8.449-268.78c-1.469-88.086-0.137-173.649,9.184-259.624l195.14,183.055
			C5990.627,1931.464,5980,1984.077,5966.699,2037.991z" style="stroke:black;fill:#40a666"/><path id="180630897" parent_id="180630784" order="51" structure_id="819" d="M6079.833,1957.452l1.223,2.342
			c-0.502,0.244-1.003,0.488-1.422,0.733c-2.259,1.223-4.517,2.446-6.776,3.753c-4.435,2.531-8.787,5.145-13.059,7.927
			c-2.177,1.39-4.271,2.782-6.366,4.256c-2.093,1.308-4.104,2.7-6.115,4.176c0,0-0.083-0.001-0.084,0.083
			c-4.106,2.867-8.214,5.9-12.155,9.018c-4.78,3.691-9.479,7.55-14.095,11.492l-54.284,36.76
			c13.301-53.914,23.928-106.527,40.184-149.016L6079.833,1957.452z" style="stroke:black;fill:#40a666"/><path id="180630851" parent_id="180630784" order="52" structure_id="120" d="M9784.818,4675.009l2.568,1.025
			c-57.205,138.688-127.381,292.706-174.496,390.003c-12.161,25.151-22.641,48.492-31.944,70.847
			c4.72-13.672,8.921-25.52,12.184-34.965c-34.105-14.836-123.204-43.151-221.552-69.818l1.992-7.381
			c86.836-117.662,174.571-249.453,246.328-387.985L9784.818,4675.009z" style="stroke:black;fill:#219866"/><path id="180630850" parent_id="180630784" order="53" structure_id="163" d="M9391.598,4583.727
			l228.301,53.008c-71.757,138.532-159.492,270.323-246.328,387.985l-1.992,7.381c-62.607-16.971-128.88-33.315-187.136-45.083
			l1.054-5.228c27.756-83.449,80.762-140.682,132.7-245.744C9337.068,4697.826,9363.586,4636.734,9391.598,4583.727z" style="stroke:black;fill:#219866"/><path id="180630849" parent_id="180630784" order="54" structure_id="344" d="M9167.112,4531.674l224.485,52.053
			c-28.012,53.008-54.529,114.1-73.401,152.319c-51.938,105.063-104.944,162.295-132.7,245.744l-1.054,5.228
			c-70.785-14.396-129.667-22.013-155.431-15.885l-103.579-27.389c-7.923-5.657-16.852-10.576-26.452-14.92
			c9.112-27.763,21.039-54.248,33.615-79.312c31.014-61.543,39.959-128.062,80.979-184.174
			C9054.762,4608.979,9122.688,4579.6,9167.112,4531.674z" style="stroke:black;fill:#219866"/><path id="180630848" parent_id="180630784" order="55" structure_id="314" d="M8940.72,4479.102l226.393,52.572
			c-44.424,47.926-112.351,77.305-153.538,133.665c-41.02,56.112-49.965,122.631-80.979,184.174
			c-12.576,25.063-24.503,51.549-33.615,79.312c-57.027-25.561-138.071-29.422-185.267-25.52c-0.833,0.074-1.582,0.149-2.332,0.308
			c17.32-56.449,32.532-110.177,45.612-158.938c-17.719,155.743,68.219,153.088,87.933,137.165
			C8924.204,4817.737,8954.506,4612.978,8940.72,4479.102z" style="stroke:black;fill:#219866"/><path id="180630788" parent_id="180630784" order="56" structure_id="698" d="M9593.13,5101.919
			c-34.105-14.836-123.204-43.151-221.552-69.818c-0.758-0.205-1.522-0.409-2.281-0.614c-25.167-6.807-50.893-13.499-76.439-19.833
			c-37.324-9.253-74.25-17.734-108.415-24.636c-70.785-14.396-129.667-22.013-155.431-15.885
			c-30.433,7.242-32.229,97.373-49.616,167.877c-31.124,126.159-96.243,242.808-178.32,343.223
			c-24.689,30.174-49.961,60.259-76.135,89.169c-15.99,17.626-35.726,27.811-52.028,43.604c-3.781,3.618-7.316,7.572-10.607,11.945
			c-19.069,25.659-15.505,57.799-15.836,88.732c-0.104,9.729-0.705,19.287-2.469,28.583
			c-15.684,82.247-59.864,169.596-99.898,242.519c-38.593,70.359-88.667,133.361-147.546,187.619
			c-67.698,62.397-138.94,137.314-231.662,159.94c-28.1,6.851-58.144,8.857-84.642,21.465c-23.07,10.896-13.127,45.434-9.671,64.349
			c7.305,40.163,3.109,82.449,1.012,123.011c-2.107,41.56-6.139,84.014-21.609,123.102c-8.404,21.362-24.542,19.579-37.525,31.607
			c-16.348,4.473-33.265,2.505-46.657-8.297c-44.58-60.561-144.925-82.774-215.553-58.724c-24.951,2.571-53.182,11.181-53.206-29.09
			c-0.004-6.246,1.17-12.875,3.029-19.741c6.938-15.928,13.103-32.105,17.497-48.407c4.621-13.358,7.844-26.418,6.564-38.256
			c1.591-25.582-3.02-51.229-17.645-76.469c-28.676-49.474-96.86-81.438-166.823-114.056
			c-87.302-40.717-207.215-14.762-291.486,37.957c-15.904,9.949-30.544,20.849-43.45,32.437
			c-42.514,38.169-84.053,78.538-122.156,121.149c-1.469,1.644-2.982,3.382-4.519,5.17c-29.259,34.058-69.862,93.16-92.594,133.091
			c-3.54,6.196-22.73,38.852-22.73,38.852c43.342,58.598,84.897,108.659,166.831,159.506
			c147.742,91.654,226.747,148.388,338.131,203.044c11.952,8.527,28.456,15.009,44.612,21.27
			c9.601,4.457,21.319,9.512,34.399,14.912c0.981,0.543,1.946,1.091,2.876,1.649c0.149-0.089,0.307-0.187,0.458-0.278
			c74.416,30.52,189.338,71.137,211.553,77.176c8.259,2.249,79.391,24.461,105.11,29.301c0.062-0.157,0.12-0.311,0.182-0.468
			c4.69,1.363,9.394,2.646,14.085,3.827c-0.008,0.02-0.016,0.037-0.022,0.057l0.166,0.085c2.386,0.546,4.76,1.08,7.127,1.608
			c1.272,0.292,2.543,0.575,3.812,0.849c3.912,0.864,7.794,1.707,11.629,2.525c19,4.112,37.509,7.637,55.523,10.574
			c4.151,0.627,8.303,1.336,12.454,1.963c8.22,1.252,16.357,2.421,24.414,3.339c8.056,1.084,15.947,1.917,23.756,2.749
			c11.05,1.033,21.935,1.897,32.572,2.594c0.666,0.007,1.331,0.015,2.078,0.105c3.74,0.206,7.481,0.33,11.222,0.536
			c46.468,1.994,89.159-0.626,128.736-7.604c10.999-1.962,21.835-4.257,32.425-6.889c5.337-1.356,10.591-2.714,15.764-4.238
			c10.344-2.967,20.442-6.269,30.295-9.905c4.927-1.86,9.853-3.72,14.698-5.747c9.689-3.972,19.133-8.278,28.331-12.92
			c9.281-4.641,18.315-9.617,27.188-14.928c135.929-81.294,304.896-249.972,386.638-381.245
			c76.832-123.258,231.787-389.223,326.87-492.659c110.146-119.908,262.552-466.236,402.237-805.215
			c3.075-7.535,6.064-14.905,8.97-22.109c2.563-6.376,5.125-12.669,7.438-18.882c4.87-12.173,9.32-23.935,13.519-35.366
			c1.454-3.811,2.909-7.62,4.28-11.431c33.753-92.118,52.954-161.105,87.86-244.395c4.708-11.313,9.718-22.879,15.095-34.804
			L9593.13,5101.919z" style="stroke:black;fill:#9ad2bd"/><path id="180630847" parent_id="180630784" order="57" structure_id="276" d="M9593.13,5101.919
			c-34.105-14.836-123.204-43.151-221.552-69.818c-0.758-0.205-1.522-0.409-2.281-0.614c-7.809,20.892-25.615,56.368-29.936,69.806
			c-8.826,27.444-20.305,54.495-32.897,80.469c-20.502,42.284-48.218,81.484-67.395,124.261
			c-32.437,72.35-60.461,146.564-91.476,219.512c-90.014,211.699-170.339,428.495-285.22,628.541
			c-81.665,142.236-188.425,273.302-271.819,419.034c-92.556,161.751-130.854,302.973-309.575,390.444
			c-24.745,12.111-51.579,20.539-78.014,28.039c-17.472,4.958-67.413,20.27-110.911,22.906
			c-116.953,7.089-139.706,1.359-147.128-3.427c-14.987,45.382-33.507,93.941-63.982,172.417l0.166,0.085
			c7.632,1.745,15.183,3.406,22.567,4.982c19,4.112,37.509,7.637,55.523,10.574c4.151,0.627,8.303,1.336,12.454,1.963
			c8.22,1.252,16.357,2.421,24.414,3.339c8.056,1.084,15.947,1.917,23.756,2.749c11.05,1.033,21.935,1.897,32.572,2.594
			c0.666,0.007,1.331,0.015,2.078,0.105c3.74,0.206,7.481,0.33,11.222,0.536c46.468,1.994,89.159-0.626,128.736-7.604
			c10.999-1.962,21.835-4.257,32.425-6.889c5.337-1.356,10.591-2.714,15.764-4.238c10.344-2.967,20.442-6.269,30.295-9.905
			c4.927-1.86,9.853-3.72,14.698-5.747c9.689-3.972,19.133-8.278,28.331-12.92c9.281-4.641,18.315-9.617,27.188-14.928
			c135.929-81.294,304.896-249.972,386.638-381.245c76.832-123.258,231.787-389.223,326.87-492.659
			c110.146-119.908,262.552-466.236,402.237-805.215c3.075-7.535,6.064-14.905,8.97-22.109c2.563-6.376,5.125-12.669,7.438-18.882
			c4.87-12.173,9.32-23.935,13.519-35.366c1.454-3.811,2.909-7.62,4.28-11.431c33.753-92.118,52.954-161.105,87.86-244.395
			c4.708-11.313,9.718-22.879,15.095-34.804L9593.13,5101.919z" style="stroke:black;fill:#6acbba"/><path id="180630846" parent_id="180630784" order="58" structure_id="284" d="M8092.055,7014.498
			c43.498-2.637,93.439-17.948,110.911-22.906c26.435-7.5,53.269-15.928,78.014-28.039
			c178.721-87.472,217.02-228.693,309.575-390.444c83.395-145.732,190.154-276.798,271.819-419.034
			c114.881-200.046,195.206-416.842,285.22-628.541c31.015-72.947,59.039-147.162,91.476-219.512
			c19.177-42.776,46.893-81.977,67.395-124.261c12.593-25.974,24.071-53.024,32.897-80.469c4.32-13.438,22.127-48.914,29.936-69.806
			c-25.167-6.807-50.893-13.499-76.439-19.833c-14.462,22.771-35.611,56.362-42.108,65.655
			c-10.802,15.45-22.249,30.322-32.516,46.174c-15.839,24.455-31.214,49.629-44.052,75.819
			c-58.918,120.257-119.947,283.031-202.718,389.726c-34.425,44.374-73.3,85.597-103.486,133.206
			c-77.93,122.937-75.745,288.11-165.889,400.263c-47.728,59.377-94.375,107.096-123.928,179.288
			c-25.694,62.764-46.347,142.345-78.246,205.304c-21.407,42.252-43.628,84.258-69.753,123.822
			c-33.364,50.527-74.017,98.164-127.072,128.721c-26.476,15.248-55.475,25.734-85.564,31.016
			c-9.455,1.66-68.297,14.192-118.804,19.407c-36.781,3.798-62.247,0.901-97.536,2.001c-6.047,32.483-17.975,64.241-26.227,95.919
			c-10.275,39.376-19.238,70.413-30.032,103.098C7952.349,7015.857,7975.102,7021.587,8092.055,7014.498z" style="stroke:black;fill:#6acbba"/><path id="180630845" parent_id="180630784" order="59" structure_id="291" d="M8098.722,6810.054
			c50.507-5.215,109.349-17.747,118.804-19.407c30.09-5.281,59.089-15.768,85.564-31.016
			c53.056-30.557,93.708-78.193,127.072-128.721c26.125-39.564,48.346-81.57,69.753-123.822
			c31.899-62.959,52.552-142.54,78.246-205.304c29.553-72.192,76.2-119.911,123.928-179.288
			c90.144-112.152,87.959-277.326,165.889-400.263c30.187-47.609,69.062-88.832,103.486-133.206
			c82.771-106.694,143.8-269.469,202.718-389.726c12.838-26.19,28.213-51.364,44.052-75.819
			c10.267-15.852,21.714-30.724,32.516-46.174c6.497-9.293,27.646-42.884,42.108-65.655c-37.324-9.253-74.25-17.734-108.415-24.636
			c-70.785-14.396-129.667-22.013-155.431-15.885c-30.433,7.242-32.229,97.373-49.616,167.877
			c-31.124,126.159-96.243,242.808-178.32,343.223c-24.689,30.174-49.961,60.259-76.135,89.169
			c-15.99,17.626-35.726,27.811-52.028,43.604c-3.781,3.618-7.316,7.572-10.607,11.945c-19.069,25.659-15.505,57.799-15.836,88.732
			c-0.104,9.729-0.705,19.287-2.469,28.583c-15.684,82.247-59.864,169.596-99.898,242.519
			c-38.593,70.359-88.667,133.361-147.546,187.619c-67.698,62.397-138.94,137.314-231.662,159.94
			c-28.1,6.851-58.144,8.857-84.642,21.465c-23.07,10.896-13.127,45.434-9.671,64.349c7.305,40.163,3.109,82.449,1.012,123.011
			c-2.107,41.56-6.139,84.014-21.609,123.102c-9.318,23.686-28.146,18.91-41.636,36.063c-12.816,16.329-4.155,46.278-3.444,65.33
			c0.537,14.984-0.995,29.762-3.718,44.392C8036.475,6810.955,8061.94,6813.852,8098.722,6810.054z" style="stroke:black;fill:#6acbba"/><path id="180630842" parent_id="180630784" order="60" structure_id="260" d="M7223.421,6645.877
			c-19.094-14.64-119.11-113.605-145.367-144.326c-29.259,34.058-69.862,93.16-92.594,133.091
			c-3.54,6.196-22.73,38.852-22.73,38.852c43.342,58.598,84.897,108.659,166.831,159.506
			c154.503,95.849,233.829,153.508,353.631,210.538c43.088-92.141,77.258-162.943,109.406-230.815
			c-50.799-12.624-129.809-45.06-133.452-46.17C7375.747,6741.136,7292.541,6698.874,7223.421,6645.877z" style="stroke:black;fill:#95e4c8"/><path id="180630841" parent_id="180630784" order="61" structure_id="268" d="M7688.259,6607.715
			c-26.233-17.918-79.716-54.095-85.591-60.247c-15.236-15.951-221.715-145.954-255.975-161.92
			c-13.34-6.218-70.737-30.846-98.515-42.753c-15.904,9.949-30.544,20.849-43.45,32.437
			c-42.514,38.169-84.053,78.538-122.156,121.149c-1.469,1.644-2.982,3.382-4.519,5.17
			c26.257,30.721,126.273,129.687,145.367,144.326c69.12,52.997,152.326,95.259,235.725,120.675
			c3.644,1.11,82.653,33.546,133.452,46.17c23.402-49.407,45.734-97.261,69.655-150.663
			C7670.103,6644.536,7679.34,6626.351,7688.259,6607.715z" style="stroke:black;fill:#95e4c8"/><path id="180630840" parent_id="180630784" order="62" structure_id="1139" d="M7602.668,6547.468
			c5.875,6.152,59.357,42.329,85.591,60.247c29.006-60.604,54.646-125.974,18.229-188.821
			c-28.676-49.474-96.86-81.438-166.823-114.056c-87.302-40.717-207.215-14.762-291.486,37.957
			c27.777,11.907,85.175,36.535,98.515,42.753C7380.953,6401.514,7587.432,6531.517,7602.668,6547.468z" style="stroke:black;fill:#95e4c8"/><path id="180630844" parent_id="180630784" order="63" structure_id="192" d="M7738.298,6925.725
			c-58.455-21.821-83.963-51.568-128.442-94.436l-4.473-6.217c-36.569,74.752-69.086,151.41-104.333,226.793
			c54.167,27.648,232.295,91.228,260.54,98.906c8.259,2.249,79.391,24.461,105.11,29.301
			c42.988-110.627,60.994-163.084,79.575-230.137l-11.285,1.261C7872.58,6954.688,7798.224,6948.103,7738.298,6925.725z" style="stroke:black;fill:#61e7b7"/><path id="180630843" parent_id="180630784" order="64" structure_id="200" d="M7986.153,6734.729
			c-22.479-107.462-190.188-143.535-270.285-86.619c-49.116,34.908-75.786,107.409-101.798,159.384
			c-2.926,5.846-5.814,11.708-8.688,17.578l4.473,6.217c44.479,42.867,69.987,72.614,128.442,94.436
			c59.926,22.378,134.282,28.964,196.692,25.472l11.285-1.261c4.1-14.791,8.227-30.289,12.655-47.282
			C7972.818,6849.379,7997.839,6790.619,7986.153,6734.729z" style="stroke:black;fill:#61e7b7"/><path id="180630839" parent_id="180630784" order="65" structure_id="19" d="M5403.333,2321.988
			c-20.433-3.455-57.237-2.712-55.199-31.489c2.973-41.84,30.332-30.791,43.236-32.996c29.073-4.958,87.578-6.631,98.411,29.541
			C5504.082,2334.803,5428.508,2326.24,5403.333,2321.988z" style="stroke:black;fill:#7ed04b"/><path id="180630838" parent_id="180630784" order="66" structure_id="583" d="M8809.222,4526.546
			c-2.347,11.678-0.073,21.131-4.767,34.23c-121.905,340.105,14.975,341.652,40.467,321.054
			c98.59-79.688,121.426-377.122,77.971-484.985C8843.646,4200.152,8826.122,4442.44,8809.222,4526.546z" style="stroke:black;fill:#8ada87"/><path id="180630837" parent_id="180630784" order="67" structure_id="952" d="M8691.962,4947.18
			c7.472-23.408,2.818-42.307,21.748-43.882c73.942-6.147,230.524,6.834,248.504,92.061
			c27.71,131.28-96.039,371.839-177.883,471.923c-34.938,42.717-71.498,84.028-109.188,124.35
			c-32.151,34.412-69.103,65.788-111.673,86.521c-18.752,9.124-38.746,15.454-59.251,19.319c-5.831,1.101-64.822,2.493-65.164,3.277
			c51.163-117.963,74.787-264.913,136.962-429.607C8602.833,5200.118,8653.744,5066.904,8691.962,4947.18z" style="stroke:black;fill:#a0ee9d"/><path id="180630836" parent_id="180630784" order="68" structure_id="966" d="M8145.464,6319.63
			c4.604-1.116,9.209-2.407,13.781-3.886c50.976-16.47,95.162-49.457,137.278-81.535c68.899-52.482,132.162-112.977,183.869-182.614
			c53.006-71.408,87.967-155.668,121.475-237.5c6.131-14.991,12.206-29.479,17.078-45.011c7.975-25.375,30.527-79.583-12.733-83.668
			c-21.594-2.042-44.162,11.54-63.799,18.517c-13.303,4.73-26.792,8.47-40.703,10.968c-14.017,2.513-34.555,0.061-47.378,5.404
			c-27.921,11.657-48.962,53.818-61.996,79.643c-15.495,30.719-28.952,61.452-63.076,75.197
			c-37.057,14.927-87.96-3.248-117.309,29.231c-6.814,7.545-14.643,42.051-16.47,60.993c-5.571,57.685-33.085,144.251-99.394,244.55
			c-23.844,36.077-68.973,81.36-96.56,108.363C8059.421,6329.14,8096.664,6331.503,8145.464,6319.63z" style="stroke:black;fill:#a0ee9d"/><path id="180630835" parent_id="180630784" order="69" structure_id="303" d="M8391.913,5766.075
			c68.664-198.856,158.556-439.073,87.65-419.043c-34.359,9.713-60.615,49.201-82.185,74.523
			c-41.32,48.475-76.671,101.086-117.52,149.857c-22.276,26.588-41.32,55.743-41.304,91.91c0.008,27.197-1.86,54.366-4.775,81.397
			c-3.46,32.18,5.278,74.157,23.21,101.208c19.978,30.134,55.061,24.116,81.543,7.443
			C8369.686,5833.76,8380.527,5799.066,8391.913,5766.075z" style="stroke:black;fill:#9de79c"/><path id="180630834" parent_id="180630784" order="70" structure_id="327" d="M7986.104,6344.688
			c-25.379,1.012-41.377,19.535-63.401,30.085c-31.826,15.243-79.083,22.227-113.955,20.862c-26.279-1.022-68.168-10.265-76.5-0.39
			c-14.439,17.128,2.55,48.804,6.846,67.385c6.506,28.236,8.487,55.057,1.486,83.285c-4.426,17.806-21.415,44.382-0.316,58.139
			c16.656,10.85,51.041-1.547,69.728-2.437c35.237-1.669,73.382,7.841,106.183,21.919c31.493,13.525,49.133,49.481,78.587,57.749
			c65.595,18.414,60.186-193.565,60.673-229.716C8056.116,6401.759,8051.309,6342.085,7986.104,6344.688z" style="stroke:black;fill:#84ea81"/><path id="180630823" parent_id="180630784" order="71" structure_id="672" d="M7210.56,2503.782
			c5.701-21.797,1.072-42.571-1.405-62.39c-4.312-34.401-10.565-62.154-5.595-60.352c55.231,19.99,158.466,52.681,213.486,73.881
			c69.37,26.734,104.104,46.631,137.83,60.863c87.626,36.971,119.469,58.041,233.066,129.527
			c114.271,71.912,250.827,190.122,357.732,292.618c89.178,85.506,146.065,152.188,194.922,221.567
			c91.483,129.884,171.524,250.522,250.412,387.532c25.151,43.655,64.416,107.202,103.275,192.831
			c6.448,14.2,70.54,144.458,100.791,295.858c18.004,90.046,31.655,134.383,31.647,215.874
			c-0.017,102.187-34.848,209.689-71.937,310.406c-73.276,199.048-180.003,416.006-272.607,606.326
			c-31.461,64.652-64.481,67.23-103.178,57.111c-76.265-19.945-159.393-54.634-231.849-95.345
			c-48.872-27.462-208.158-106.183-197.634-118.547c12.426-14.59,49.701-91.354,52.771-136.759
			c2.705-40.126-10.045-90.461-17.346-129.75c-23.584-127.078-25.525-214.916-46.396-326.917
			c-29.487-158.328-369.897-484.462-384.864-561.324c-9.312-47.833-118.609-273.34-197.132-408.528
			c-37.763-65.012-68.407-94.928-77.393-101.019c-13.896-9.417-32.801-18.354-50.351-23.064
			c-17.793-4.771-41.855,5.145-42.318-28.521c-0.577-42.627-19.938-103.117-42.977-160.549
			c-17.273-43.025-32.03-84.84-46.534-120.049c-13.14-31.871-26.767-58.472-29.365-73.082
			c-3.517-19.811-23.893-75.176,3.491-131.987c15.073-31.25,33.613-44.39,60.056-75.242c10.882-12.693,21.091-24.416,28.537-43.358
			c9.331-23.729,14.731-54.305,16.242-61.16C7185.774,2585.643,7195.39,2561.835,7210.56,2503.782z" style="stroke:black;fill:#98d6f9"/><path id="180630827" parent_id="180630784" order="72" structure_id="278" d="M6976.495,6607.16
			c38.94-60.758,73.406-101.757,121.434-158.47c49.506-58.447,99.401-113.748,171.095-144.093
			c74.063-31.371,160.22-59.588,240.684-37.137c77.386,21.594,141.379,75.172,221.64,91.09
			c96.819,19.197,122.66,15.023,187.345-20.863c69.483-38.559,121.028-78.507,188.66-181.737
			c81.316-124.098,75.566-279.677,106.313-433.201c6.302-31.445-16.989-166.754,36.829-227.845
			c59.43-67.466,142.654-154.738,180.832-237.024c-6.838-9.778-134.25-19.458-239.49-80.261
			c-77.687-44.885-257.023-150.986-265.396-145.529c-47.662,31.051-101.31,103.625-136.287,145.144
			c-36.764,43.654-78.904,75.375-119.632,114.101c-83.232,79.136-191.161,146.09-291.253,211.03
			c-57.497,37.287-129.328,66.057-188.124,93.623c-79.254,37.17-148.152,50.392-179.216,116.42
			c-24.834,52.811-26.759,108.802-50.082,159.298c-27.393,59.324-36.529,56.328-88.438,78.49
			c-53.145,22.69-46.964,35.529-75.884,96.904c-11.612,24.631-30.543,68.322-36.479,105.643
			c-5.944,37.361,11.045,70.117,17.802,85.434c6.772,15.324,36.95,44.057,63.733,67.214c26.045,22.524,45.104,58.699,63.442,94.241
			c17.891,34.685,9.77,58.317-13.433,89.259c-21.196,28.269-21.902,25.109-17.006,35.159c6.1,12.543,10.379,18.046,14.415,29.176
			c4.045,11.13,35.359,62.759,44.877,80.873c9.502,18.118,13.164,14.257,15.853,22.601
			C6953.415,6665.047,6970.68,6616.224,6976.495,6607.16z" style="stroke:black;fill:#80c0e2"/><path id="180630830" parent_id="180630784" order="73" structure_id="23" d="M7509.707,6267.461
			c-36.236-10.119-72.797-10.659-109.48-3.936c-17.882,3.277-89.624,24.055-92.913,20.494c-8.648-9.344,83.55-70.617,89.535-76.659
			c29.073-29.325,59.52-61.306,74.535-100.388c17.55-45.665,37.755-102.797,40.41-149.262c1.6-28.144-2.047-53.688-6.708-81.49
			c-2.038-12.189-19.531-60.677,1.031-66.081c15.869-4.179,25.184,31.607,30.04,41.47c11.768,23.885,22.503,48.28,33.264,72.623
			c33.735,76.297,106.386,94.488,179.931,112.249c62.702,15.146,145.635,7.918,197.446-31.274
			c6.676-5.043,10.785-5.681,13.156-3.854c4.954,3.797,2.388,18.297-0.211,25.923c-6.684,19.604-13.83,38.363-17.257,58.938
			c-7.033,42.237,3.801,84.017,32.402,116.24c7.821,8.808,17.322,19.345,28.514,23.682c8.608,3.329,22.885,0.333,28.432,9.27
			c6.862,11.054-3.63,21.099-10.436,28.713c-7.813,8.75-17.225,15.885-26.239,23.352c-23.438,19.409-49.92,35.485-76.468,50.217
			c-64.685,35.887-90.525,40.061-187.345,20.863C7651.086,6342.633,7587.093,6289.055,7509.707,6267.461z" style="stroke:black;fill:#80c0e2"/><path id="180630833" parent_id="180630784" order="74" structure_id="544" d="M8385.685,5246.063
			c-44.542-7.991-82.468-19.762-119.738-35.388l-6.869,16.25c-44.187,91.521-97.063,156.725-172.175,223.102
			c-64.351,56.868-103.479,137.867-145.31,212.309c-54.11,96.3-102.902,179.204-225.952,188.567
			c-53.437,4.064-122.352-8.442-171.915-28.691l-2.907-1.259c13.035,26.038,25.24,53.425,37.674,81.547
			c33.727,76.298,106.386,94.489,179.93,112.25c57.888,13.976,161.122,4.819,207.599-36.172
			c26.021-22.938,41.588-53.205,60.462-81.864c50.91-77.333,76.443-169.815,122.311-250.075
			c30.016-52.511,61.396-105.98,101.725-151.759c65.846-74.746,126.485-153.11,180.645-236.367
			C8417.641,5248.109,8403.372,5249.238,8385.685,5246.063z" style="stroke:black;fill:#80c0e2"/><path id="180630832" parent_id="180630784" order="75" structure_id="551" d="M8086.362,5155.867
			c-97.8-41.919-217.593-23.894-258.158,85.568c-46.573,125.675,120.134,201.973,220.778,157.976
			c20.317-8.882,41.466-18.536,60.24-30.468c10.893-6.922,19.91-16.441,30.745-23.134c13.25-8.185,34.965-13.965,42.292-29.812
			l0.324-0.628c0.11-0.131,0.22-0.264,0.328-0.397c15.974-19.619,10.85-62.721-0.328-83.345
			C8163.428,5196.28,8122.385,5171.307,8086.362,5155.867z" style="stroke:black;fill:#80c0e2"/><path id="180630831" parent_id="180630784" order="76" structure_id="559" d="M8178.622,5167.854
			c-38.94-21.151-104.762-60.526-165.328-93.254c-47.038-25.419-76.225-54.943-91.07-38.396
			c-75.753,84.431-182.415,189.241-251.704,255.131c-83.232,79.136-191.161,146.09-291.261,211.03
			c-35.173,22.791-73.699,40.085-112.38,58.813c-58.52,28.334,37.755,56.112,63.027,63.389
			c110.23,31.743,165.607,105.898,210.912,196.388l2.907,1.259c49.563,20.249,118.479,32.756,171.915,28.691
			c123.05-9.363,171.842-92.268,225.952-188.567c41.831-74.441,80.959-155.44,145.31-212.309
			c75.112-66.377,127.988-131.581,172.175-223.102l6.869-16.25C8237.35,5198.686,8209.138,5184.427,8178.622,5167.854z
			 M8182.912,5314.973c-0.108,0.134-0.218,0.267-0.328,0.397l-0.324,0.628c-7.327,15.847-29.042,21.627-42.292,29.812
			c-10.835,6.692-19.853,16.212-30.745,23.134c-18.774,11.932-39.923,21.586-60.24,30.468
			c-100.645,43.997-267.352-32.301-220.778-157.976c40.565-109.462,160.358-127.487,258.158-85.568
			c36.022,15.439,77.065,40.413,96.222,75.761C8193.762,5252.252,8198.886,5295.354,8182.912,5314.973z" style="stroke:black;fill:#80c0e2"/><path id="180630829" parent_id="180630784" order="77" structure_id="1105" d="M8107.352,6155.95
			c81.316-124.098,75.566-279.677,106.313-433.201c4.264-21.289-4.206-44.073,2.185-64.762c-5.319,3.354-9.169,11.954-12.62,17.123
			c-25.906,38.819-59.746,70.845-87.528,108.051c-26.271,35.181-45.17,75.632-68.452,113.001
			c-52.332,84.021-137.741,205.714-54.883,299.033C8041.944,6251.031,8079.033,6199.179,8107.352,6155.95z" style="stroke:black;fill:#80c0e2"/><path id="180630828" parent_id="180630784" order="78" structure_id="411" d="M7469.646,5755.302
			c8.73,27.056,9.648,56.133,15.316,84.195c21.878,108.29,9.518,181.79-56.66,278.102c-35.392,51.516-70.305,93.506-122.027,134.533
			c-71.839,56.974-146.95,124.065-208.346,196.559c-48.027,56.713-82.493,97.712-121.434,158.47
			c-5.815,9.063-23.08,57.887-25.769,49.538c-2.688-8.344-6.351-4.482-15.853-22.601c-9.518-18.114-40.832-69.743-44.877-80.873
			c-4.036-11.13-8.315-16.633-14.415-29.176c-4.896-10.05-4.19-6.891,17.006-35.159c23.202-30.941,31.323-54.574,13.433-89.259
			c-18.338-35.542-37.397-71.717-63.442-94.241c-26.783-23.157-56.961-51.89-63.733-67.214
			c-6.757-15.316-23.746-48.072-17.802-85.434c5.937-37.32,24.867-81.012,36.479-105.643c28.92-61.375,22.739-74.214,75.884-96.904
			c51.909-22.162,61.046-19.166,88.438-78.49c23.323-50.496,25.248-106.487,50.082-159.298
			c19.345-41.113,54.387-59.053,92.84-79.002c19.872-10.298,39.939-22.313,62.549-25.099
			c85.814-10.573,162.315,34.848,223.986,65.273C7426.612,5690.995,7457.204,5716.809,7469.646,5755.302z" style="stroke:black;fill:#80c0e2"/><path id="180630825" parent_id="180630784" order="79" structure_id="1022" d="M7965.518,4731.055
			c-19.19-117.013-23.852-235.061-62.857-343.728c-21.383-59.597-61.533-111.227-99.93-166.312
			c-47.849-68.659-125.835-157.021-178.769-212.991c-25.38-26.843-90.505-117.596-99.822-108.876l0.214,0.519
			c-27.041,75.71-60.438,136.041-88.216,221.289l3.103,3.581c66.406,76.943,105.793,282.479,118.601,383.237
			c26.808,210.867,60.518,386.939-26.841,561.664l-4.971,8.78c49.104-8.38,101.881-19.761,170.007-34.024
			c141.696-29.671,260.597-65.821,282.117-134.205C7992.796,4863.448,7979.177,4814.364,7965.518,4731.055z" style="stroke:black;fill:#8599cc"/><path id="180630824" parent_id="180630784" order="80" structure_id="1031" d="M7557.841,4507.774
			c-12.808-100.758-52.194-306.294-118.601-383.237l-3.103-3.581c-0.044,0.134-0.089,0.265-0.132,0.398
			c-2.012,6.183-3.994,12.497-5.942,18.958c-32.379,107.409-58.805,248.861-97.379,356.563
			c-34.693,96.859-49.661,155.839-110.683,239.989c-118.178,162.985-45.859,237.488-0.706,259.882
			c51.242,25.42,92.613,47.176,94.738,94.821l-0.088-1.637c1.535,12.808,51.31,7.549,130.116-0.597
			c26.842-2.772,52.847-6.488,79.967-11.116l4.971-8.78C7618.358,4894.714,7584.648,4718.642,7557.841,4507.774z" style="stroke:black;fill:#8599cc"/><path id="180630826" parent_id="180630784" order="81" structure_id="342" d="M7675.782,5269.817
			c-109.106,92.394-161.292,125.823-234.73,174.213c-90.038,59.328-251.38,145.42-353.307,181.258
			c-45.917,16.141-277.862,46.98-330.186-36.801c-36.976-59.21,49.4-141.858,110.259-200.492
			c54.785-52.787,88.967-88.979,94.505-88.39c87.229,9.25,81.941,0.195,114.475-11.252c80.35-28.245,114.896-46.521,138.935-62.962
			c31.413-21.497,76.646-56.292,91.346-84.269c16.697-31.802,121.451-29.568,145.018-33.012
			c83.988-12.271,161.171-22.775,208.265-33.114c54.184-11.893,84.361-15.097,141.217-32.532
			c88.406-27.125,148.308-73.699,127.623-42.295C7873.189,5085.161,7749.521,5179.126,7675.782,5269.817z" style="stroke:black;fill:#a2b1d8"/><path id="180630804" parent_id="180630784" order="82" structure_id="549" d="M5333.021,3354.828
			c47.776,2.225,69.419-2.449,98.972-39.338c28.643-35.749,33.004-86.368,61.606-121.227c24.582-29.963,70.937-69.74,105.443-88.158
			c55.508-29.625,94.878-31.124,135.28-13.107c47.249,21.07,72.773,71.688,142.776,63.9c37.714,2.542,28.644-32.845-3.24-77.617
			l7.585,1.876c13.806,7.877,30.268,12.701,51.423,12.929c31.77,0.337,214.307-24.749,236.258-24.851
			c45.705-0.203,143.815-5.153,236.948,6.696c82.298,10.472,160.643,35.871,196.14,63.093
			c65.991,50.606,107.985,79.846,138.918,108.351c21.334,19.661,159.944,74.186,213.552,144.567
			c54.362,71.38,80.276,172.385,120.184,232.067c50.911,76.147,150.93,175.496,174.968,260.723
			c12.571,44.544,35.27,104.331,16.632,194.573c-9.478,45.867-31.38,102.629-57.708,146.999
			c-60.696,102.269-127.452,200.488-150.832,235.746c-26.402,39.797-57.222,89.031-88.723,130.732
			c-45.868,60.697-74.471,93.453-103.974,130.563c-25.598,32.204-63.361,76.338-83.273,123.253
			c-23.754,55.962-130.059-15.369-310.947,43.801c-164.135,53.688-274.184,105.176-398.094,156.518
			c-115.953,48.056-171.225,68.858-292.464,129.933c-110.544,55.682-195.344,136.503-267.207,117.711
			c-112.688-29.46-165.337-28.1-200.817-16.003L5333.021,3354.828z" style="stroke:black;fill:#ff7080"/><path id="180630807" parent_id="180630784" order="83" structure_id="629" d="M6373.011,4792.71
			c18.297-12.166,36.586-24.348,55.256-35.851c86.246-53.108,175.041-114.734,247.327-185.858
			c59.641-58.683,102.487-129.921,135.272-206.466c51.674-120.659,89.705-265.019,26.345-389.202
			c-27.84-54.565-78.539-94.578-127.525-128.889c-21.878-15.316-48.686-27.9-72.277-40.228
			c-17.574-9.169-38.38-24.107-58.861-14.582c-16.023,7.455-27.027,42.404-34.669,56.859
			c-11.337,21.423-25.272,36.074-43.423,52.016c-40.557,35.635-80.821,70.125-135.963,80.857
			c-23.421,4.556-45.567,5.677-68.794,10.139c-17.955,3.448-14.561,10.273-12.182,24.826c2.94,18.013,10.558,33.451,15.414,50.867
			c52.746,189.147,45.795,437.704-119.403,574.32c-14.391,11.897-43.708,24.822-42.141,46.286
			c0.894,12.153,25.232,35.192,31.851,47.082c14.374,25.816,29.082,51.231,43.781,76.663c11.345,19.616,11.377,34.38,37.462,37.648
			c16.047,2.006,24.939-3.609,38.859-11.19C6318.479,4822.136,6345.351,4811.1,6373.011,4792.71z" style="stroke:black;fill:#ff8084"/><path id="180630810" parent_id="180630784" order="84" structure_id="685" d="M6146.604,4730.852
			c16.762,24.326,30.421,56.47,37.697,85.015c34.652,135.854-143.921,276.539-268.79,256.963
			c-99.735-15.646-147.292-83.639-142.81-182.573c2.957-65.249,59.203-125.723,109.813-168.354
			c67.12-56.515,152.196-88.674,227.471-31.092C6122.802,4700.621,6135.494,4714.735,6146.604,4730.852z" style="stroke:black;fill:#ff8084"/><path id="180630808" parent_id="180630784" order="85" structure_id="255" d="M6507.877,3872.395
			c-45.892,57.274-124.512,102.565-197.52,105.606c-26.792,1.121-50.083-12.726-75.632-19.934
			c-27.116-7.658-53.404-18.203-78.571-30.852c-29.162-14.654-82.884-29.695-100.474-59.122c-6.61-11.032-4.718-16.08-0.901-27.9
			c39.046-121.142,91.524-236.46,141.096-353.448c21.009-49.6,34.937-103.941,63.555-149.98
			c20.677-33.28,33.394-65.792,75.493-69.565c67.3-6.03,136.166,13.372,198.885,35.867c41.499,14.882,81.56,32.281,122.75,47.728
			c31.169,11.69,73.764,33.447,68.363,73.337c-5.011,36.926-29.31,73.398-44.52,106.666
			c-27.912,61.042-60.998,119.566-88.041,181.018c-22.674,51.492-44.958,107.275-78.604,152.932
			C6511.865,3867.311,6509.907,3869.865,6507.877,3872.395z" style="stroke:black;fill:#ff909f"/><path id="180630813" parent_id="180630784" order="86" structure_id="1096" d="M6084.56,4493.98
			c53.599-35.988,137.303-84.382,224.953-168.077l2.301-2.477c3.018-56.498-1.584-118.206-10.146-170.863
			c-6.993-42.956-15.674-88.873-31.737-127.322c-14.521-34.758-30.706-48.56-64.156-62.629c-5.344-2.25-10.631-4.458-15.715-6.752
			c-36.073-16.267-72.018-32.732-107.238-50.773c-14.22-7.289-26.125-18.723-42.457-18.167c-24.33,0.829-35.838,34.88-47.005,51.703
			c-12.668,19.072-25.134,38.323-38.348,57.034c-26.198,37.118-52.933,65.306-94.854,96.742
			c-48.004,36.001-117.715,71.648-175.764,86.416c-27.417,6.977-55.28,6.87-82.705,12.791c-8.43,1.819-17.81,4.584-17.582,14.642
			c0.325,14.558,6.059,28.489,6.001,43.245c-0.04,9.859-1.12,20.019-5.271,29.069c-4.774,10.407-15.178,15.162-20.847,24.659
			c-6.545,10.968-6.245,24.363-9.038,36.476c-1.941,8.41-6.01,15.934-10.014,23.511c-8.251,15.585-32.257,32.01-28.074,52.316
			c2.07,10.045,10.362,15.633,19.003,19.835c13.96,6.777,26.19,14.379,36.229,26.402c10.232,12.258,18.971,25.792,24.469,40.86
			c5.311,14.537,17.046,40.699,31.339,50.225c55.256,36.78,139.073-30.486,161.536-70.34
			c70.653-125.377,113.126-47.07,135.199,59.661c1.664,8.043,4.071,15.566,7.116,22.606l5.122-0.302
			C5990.095,4556.399,6041.737,4522.737,6084.56,4493.98z" style="stroke:black;fill:#ff909f"/><path id="180630812" parent_id="180630784" order="87" structure_id="1104" d="M6309.513,4325.903
			c-87.65,83.695-171.354,132.089-224.953,168.077c-42.822,28.757-94.465,62.419-147.682,70.491l-5.122,0.302
			c23.71,54.818,86.475,79.995,144.561,87.174c79.87,9.867,129.978-38.924,168.479-106.346
			c30.275-53.042,54.436-117.689,62.881-178.127c1.977-14.123,3.327-28.9,4.137-44.048L6309.513,4325.903z" style="stroke:black;fill:#ff909f"/><path id="180630809" parent_id="180630784" order="88" structure_id="64" d="M6175.223,3493.779
			c0.634-1.352,1.267-2.7,1.884-4.036c29.382-62.629,53.583-127.956,78.872-192.327c24.119-61.399,41.872-130.546,19.117-195.149
			c-15.642-44.402-70.296-33.211-105.988-33.032c-51.609,0.272-107.344,9.404-158.23,17.294
			c-23.161,3.589-59.544,4.889-80.504,13.489c-34.921,14.334-28.48,49.133-14.756,76.558
			c48.394,96.689,38.063,139.507,32.663,249.357c-1.227,24.932,4.23,49.871,11.678,73.487
			c14.918,47.252,64.969,108.437,120.248,97.81C6132.051,3587.269,6154.985,3537.093,6175.223,3493.779z" style="stroke:black;fill:#ff909f"/><path id="180630820" parent_id="180630784" order="89" structure_id="1120" d="M5322.203,4365.241
			c20.148,6.688,40.232,10.119,60.559,16.23c26.962,8.112,54.396,14.073,81.568,21.366c9.94,2.664,20.977,5.38,31.185,2.631
			c12.628-3.406,22.065-17.549,30.243-26.949c9.371-10.765,18.191-22.649,21.683-36.735c2.136-8.633,3.874-18.703-4.117-25.099
			c-6.367-5.096-14.496-7.195-22.292-8.929c-36.391-8.097-80.244-11.532-114.759-26.52c-27.263-11.832-40.459-16.929-82.965-19.17
			L5322.203,4365.241z" style="stroke:black;fill:#ff909f"/><path id="180630814" parent_id="180630784" order="90" structure_id="1113" d="M6090.228,3700.854
			c-21.967,68.976-56.466,128.707-88.405,193.2c-21.943,44.333-47.712,87.062-81.584,123.448
			c-76.761,82.449-179.199,140.714-290.889,157.126c-41.539,6.1-164.719,32.582-168.528-38.425
			c-4.58-85.425,124.537-76.65,176.723-84.272c46.851-6.846,93.271-24.737,130.92-53.457
			c88.486-67.494,150.255-178.273,189.058-280.908c10.396-27.518,24.42-54.11,27.929-83.748c1.827-15.43,4.296-47.159,26.767-34.393
			c21.48,12.202,34.628,16.611,61.111,12.543c16.551-2.55,40.638-12.145,42.668,12.047
			C6117.88,3646.548,6096.992,3679.601,6090.228,3700.854z" style="stroke:black;fill:#ff909f"/><path id="180630806" parent_id="180630784" order="91" structure_id="155" d="M6780.452,3359.364
			c14.236-4.053,34.214-9.632,37.561-26.174c3.265-16.141-20.457-26.69-28.773-37.349c-14.334-18.382-31.03-32.732-48.117-48.475
			c-30.933-28.501-72.927-57.741-138.91-108.343c-35.497-27.222-113.842-52.621-196.14-63.093
			c-25.752-3.277-53.071-12.933-79.295-10.403c-36,3.472-32.654,32.959-29.601,60.697c2.615,23.693,1.892,47.65,2.241,71.441
			c0.203,13.525-4.467,39.578,8.187,48.787c13.05,9.494,29.219,7.029,43.886,7.082c44.764,0.174,107.88,14.561,150.8,26.564
			c52.308,14.634,102.065,37.243,151.328,59.791c21.675,9.924,43.146,19.162,64.407,29.813c20.327,10.184,41.401-4.32,60.908-9.908
			C6779.429,3359.652,6779.933,3359.51,6780.452,3359.364z" style="stroke:black;fill:#ff909f"/><path id="180630815" parent_id="180630784" order="92" structure_id="626" d="M5971.733,3565.626
			c-14.423-36.768-61.866-34.949-91.5-26.658c-27.896,7.813-55.198,17.932-83.338,5.324c-3.843-1.721-7.546-3.75-11.123-6.008
			l-0.149,7.202c-1.063,89.121-31.964,198.105-75.071,274.289c-30.592,54.07-78.197,101.314-130.887,133.587
			c-25.37,15.532-59.405,34.535-79.01,57.562l-4.161,4.502c1.611,9.893-0.911,21.159,4.665,29.419
			c9.704,14.406,31.753,5.092,45.031,2.44c38.786-7.748,78.741-4.43,117.715-14.748c138.35-36.642,240.399-209.852,286.372-334.953
			C5963.133,3662.596,5986.376,3602.967,5971.733,3565.626z" style="stroke:black;fill:#ff909f"/><path id="180630816" parent_id="180630784" order="93" structure_id="636" d="M5579.665,3953.362
			c52.689-32.273,100.295-79.517,130.887-133.587c43.107-76.184,74.008-185.168,75.071-274.289l0.149-7.202
			c-16.634-10.502-30.419-26.245-41.421-42.028c-15.137-21.716-25.199-46.591-40.913-67.917
			c-6.741-9.145-22.09-26.336-32.712-29.906c-18.102-6.075-38.259,10.748-55.775,13.704c-16.615,2.794-39.362-0.516-51.455,14.062
			c-10.955,13.201-11.646,41.535-16.681,57.546c-6.708,21.302-15.665,41.734-25.127,61.927
			c-18.913,40.374-5.237,73.094,4.126,113.516c16.039,69.183,2.924,142.776-22.024,208.114c-9.64,25.26-23.056,48.207-37.966,70.641
			c-7.041,10.606-27.579,23.519-21.854,38.798c5.604,14.93,33.913,15.909,45.274,25.24c4.296,3.521,6.213,7.869,7.106,12.559
			c0.056,0.292,0.095,0.59,0.143,0.884l4.161-4.502C5520.26,3987.897,5554.295,3968.894,5579.665,3953.362z" style="stroke:black;fill:#ff909f"/><path id="180630811" parent_id="180630784" order="94" structure_id="366" d="M5700.791,4606.303
			c15.023,34.945,74.511,167.021,114.864,146.768c65.382-32.816,68.599-54.687,57.513-92.945
			c-10.046-34.648-48.401-103.701-71.79-127.594C5780.815,4511.522,5684.199,4567.695,5700.791,4606.303z" style="stroke:black;fill:#ff909f"/><path id="180630822" parent_id="180630784" order="95" structure_id="149" d="M5326.207,3991.726
			c42.668-3.703,81.909-7.398,113.191-43.098c61.533-70.235,90.525-200.18,69.792-289.621
			c-9.371-40.418-23.047-73.138-4.134-113.512c20.579-43.911,40.436-97.477,41.661-146.208
			c-23.713-3.817-42.806-12.689-62.224-26.901c-6.407-4.69-57.635-50.452-52.502-56.896c-29.553,36.89-51.195,41.563-98.972,39.338
			L5326.207,3991.726z" style="stroke:black;fill:#ff909f"/><path id="180630818" parent_id="180630784" order="96" structure_id="181" d="M5312.426,5278.556
			c35.48-12.097,92.808-12.669,204.942,18.824c35.928,10.091,75.591-8.782,114.548-31.851c34.896-20.668,70.563-42.81,102.09-68.444
			c24.469-19.896,62.662-27.973,76.225-59.056c20.399-46.741-31.453-115.571-41.328-160.923
			c-20.124-92.32-10.339-199.705-58.025-282.536c-38.899-67.566-99.458-81.97-168.91-91.073
			c-23.867-3.123-221.956-33.203-222.005-28.915C5319.864,4583.73,5312.426,5278.556,5312.426,5278.556z" style="stroke:black;fill:#ff909f"/><path id="180630819" parent_id="180630784" order="97" structure_id="189" d="M5320.084,4563.416
			c58.438,1.981,118.535,11.896,174.326,29.301c41.767,13.025,101.977,5.851,95.463-55.602
			c-2.144-20.156-11.824-43.991-23.818-60.209c-23.251-31.47-64.668-49.559-100.247-62.942
			c-46.753-17.582-96.364-26.04-143.678-41.808l-2.168,202.345" style="stroke:black;fill:#ff909f"/><path id="180630821" parent_id="180630784" order="98" structure_id="599" d="M5323.446,4249.504
			c47.086-1.811,86.196,24.835,129.944,34.682c48.369,10.89,78.515,18.694,95.244,13.505c15.787-4.934,34.457-32.468,32.776-48.316
			c-5.368-50.419-54.582-44.275-90.712-57.358c-54.063-19.572-51.357-76.785-24.104-107.998
			c32.054-36.707,27.376-75.701-21.293-86.672c-40.289-9.087-78.661,3.926-119.193,3.395l1.706,248.756" style="stroke:black;fill:#ff909f"/><path id="180630805" parent_id="180630784" order="99" structure_id="262" d="M6471.024,4890.39
			c180.88-59.154,287.177,12.169,310.931-43.793c19.912-46.915,57.676-91.049,83.273-123.253
			c29.503-37.109,58.105-69.865,103.974-130.563c31.501-41.701,72.131-101.151,98.524-140.949
			c23.381-35.257,80.334-123.261,141.03-225.529c26.328-44.37,48.23-101.132,57.708-146.999
			c18.638-90.242-1.202-150.934-16.632-194.573c-27.011-76.439-119.339-177.522-174.968-260.723
			c-15.934-23.831-26.613-53.773-38.031-79.952c-18.427-42.213-40.646-83.277-64.44-122.965
			c-22.853-38.096-48.296-77.154-97.794-77.174c-43.334-0.021-84.694,17.131-121.637,37.523
			c-13.222,7.301-13.116,20.294-13.026,33.625c0.081,14.874-2.737,23.356-8.3,36.687c-14.577,34.977-32.582,67.924-49.352,101.883
			c-19.929,40.39-44.901,80.35-60.331,122.681c-4.841,13.27-12.475,24.745-18.483,37.714c-6.408,13.83-22.82,38.206-14.383,54.106
			c6.188,11.658,22.609,13.57,33.711,17.643c14.577,5.348,27.497,13.672,41.246,20.834
			c86.189,44.885,170.583,107.945,201.801,203.802c19.271,59.203,23.323,109.167,13.505,170.501
			c-12.434,77.715-34.588,156.31-71.051,227.26c-40.801,79.399-89.754,146.309-154.154,208.212
			c-80.13,77.016-182.724,125.575-274.313,186.926c-54.599,36.581-117.073,65.447-167.521,107.669
			c-15.04,12.588-44.966,45.405-23.015,66.845c17.614,17.213,60.721-5.929,79.082-13.038
			C6335.857,4938.645,6402.23,4912.889,6471.024,4890.39z" style="stroke:black;fill:#ff909f"/><path id="180630817" parent_id="180630784" order="100" structure_id="483" d="M5431.992,3315.49
			c-5.133,6.444,46.095,52.206,52.502,56.896c19.418,14.212,38.511,23.084,62.224,26.901
			c130.993,21.07,202.052-120.037,196.043-230.017c-5.165-94.399-67.291-103.961-143.727-63.162
			c-34.507,18.419-80.854,58.196-105.436,88.154C5464.996,3229.122,5460.635,3279.737,5431.992,3315.49z" style="stroke:black;fill:#ff909f"/><path id="180630789" parent_id="180630784" order="101" structure_id="1097" d="M7009.571,5660.574
			c-228.721,1.709-271.998-34.097-277.634-90.294c-7.212-71.953,96.031-166.688,122.668-194.122
			c26.629-27.44,86.717-73.231,75.656-76.118c-11.062-2.896,23.031,2.245-19.791-12.076
			c-42.814-14.321-104.664-63.494-140.186-111.003c-35.53-47.504-43.927-100.128-39.785-168.138
			c3.15-51.861,31.802-104.807,23.178-109.862c-19.28-11.292-72.01-6.317-116.302-12.331c-49.515-6.725-91.468-0.987-141.566,17.886
			c-70.198,26.451-130.725,40.184-203.116,69.906c-124.958,51.305-231.149,98.712-359.227,151.397
			c-85.815,35.302-178.184,88.093-229.785,117.349c-34.182,19.369-83.322,62.374-127.062,70.109
			c-44.26,7.824-88.357-16.206-156.177-25.248c-47.094-6.282-51.382-14.797-102.593,1.668l-1.824,138.623
			c41.827,12.403,5.667,156.811,2.344,201.593c-5.498,74.247,3.963,148.352,3.24,220.495
			c-1.535,151.108-12.961,307.657-3.581,458.673c2.85,45.751,23.607,232.396-16.351,209.363l-6.08,461.947
			c201.784,12.165,374.819-12.815,577.033-40.26c196.464-26.663,323.949-121.788,299.862-108.363
			c-7.317,4.08-39.241-27.969-12.669-79.14c45.641-87.874,78.344-132.228,180.417-247.563
			c98.525-111.332,244.249-255.115,323.413-204.452c20.433,13.088,59.747,33.028,81.324,74.682
			c26.597,51.386,35.043,127.362,28.351,158.023c-7.226,33.086-38.131,59.021-75.538,79.987
			c19.921-10.582,38.299-21.384,54.684-32.446c14.634-10.793,39.11-41.515,61.622-58.947c17.988-13.939,36.212-16.237,36.212-16.237
			c8.356-4.069,111.47-54.249-49.035-209.824c-121.686-117.934-42.107-223.386-2.898-313.27
			c20.424-46.822,116.317-52.349,138.195-106.561c19.223-47.613,21.635-78.774,40.906-130.546
			C6998.909,5687.873,7027.202,5660.448,7009.571,5660.574z" style="stroke:black;fill:#e64438"/><path id="180630792" parent_id="180630784" order="102" structure_id="390" d="M6752.476,6580.86
			c26.345-19.422,75.932-80.176,95.04-73.833l2.794-1.352c8.356-4.069,105.688-49.376-49.035-209.824
			c-18.134-18.8-34.157-55.642-66.178-44.036c-6.48,2.351-79.619,43.573-71.409,48.819c20.441,13.083,59.723,33.032,81.292,74.661
			c26.597,51.386,35.043,127.362,28.351,158.023c-6.034,27.611-26.767,44.853-47.224,61.68
			C6734.877,6592.705,6745.256,6586.184,6752.476,6580.86z" style="stroke:black;fill:#ff5d50"/><path id="180630797" parent_id="180630784" order="103" structure_id="652" d="M5531.856,5461.949
			c63.536,11.061,160.264,38.708,180.022-17.059c6.853-44.15-5.086-82.658-48.875-91.901
			c-57.051-12.048-72.44-31.262-126.396-40.159c-6.519-1.074-12.302-2.12-17.516-3.143l-1.886,2.936
			C5470.128,5348.088,5462.056,5449.792,5531.856,5461.949z" style="stroke:black;fill:#ff5d50"/><path id="180630800" parent_id="180630784" order="104" structure_id="660" d="M5545.776,5491.733
			c-39.104,10.464-91.85,90.732-80.391,129.434c6.025,20.351,25.679,50.366,45.112,58.698l3.75,3.255
			c35.139-26.015,68.69-54.472,99.006-85.321c16.918-17.219,34.491-34.129,50.105-52.601l-1.704-2.326
			C5636.496,5511.618,5593.455,5478.971,5545.776,5491.733z" style="stroke:black;fill:#ff5d50"/><path id="180630801" parent_id="180630784" order="105" structure_id="87" d="M5711.879,5444.891
			c-19.759,55.767-116.486,28.119-180.022,17.059c-69.801-12.157-61.729-113.861-14.65-149.326l1.886-2.936
			c-14.217-2.789-24.136-5.396-32.689-7.867l-1.007,3.535c-10.557,65.955-121.686,70.368-167.797,73.045l-1.65-0.032l-0.358,16.693
			c73.31,15.886,91.131,22.663,85.136,99.733c-7.008,90.144-33.52,174.11-37.726,264.205l0.341,18.084
			c50.427-26.536,102.19-57.896,150.907-93.964l-3.75-3.255c-19.434-8.332-39.087-38.348-45.112-58.698
			c-11.459-38.701,41.287-118.97,80.391-129.434c47.679-12.763,90.72,19.885,115.879,51.139l1.704,2.326
			c18.407-21.776,34.091-45.725,42.742-74.937C5708.636,5461.709,5710.589,5453.2,5711.879,5444.891z" style="stroke:black;fill:#ff5d50"/><path id="180630799" parent_id="180630784" order="106" structure_id="110" d="M5400.726,5494.795
			c5.995-77.07-11.826-83.848-85.136-99.733l-0.707,32.947c43.63,10.097,6.84,156.719,3.487,201.904
			c-4.188,56.563,0.302,113.045,2.36,168.64c14.029-6.765,28.263-13.919,42.61-21.469L5363,5759
			C5367.206,5668.905,5393.718,5584.938,5400.726,5494.795z" style="stroke:black;fill:#ff5d50"/><path id="180630802" parent_id="180630784" order="107" structure_id="118" d="M5397.851,6300.521
			c-19.834-176.076-47.941-346.042-34.15-523.64c-14.466,7.618-28.825,14.852-42.97,21.678c0.644,17.378,1.052,34.669,0.88,51.849
			c-1.535,151.108-12.961,307.657-3.581,458.673c2.892,46.428,24.227,237.952-18.165,208.202l-0.667,68.074
			c4.76,31.885,13.071,69.887,41.865,81.646c9.868,0.824,20.543,1.066,31.64,0.848
			C5448.594,6636.342,5401.963,6337.047,5397.851,6300.521z" style="stroke:black;fill:#ff5d50"/><path id="180630803" parent_id="180630784" order="108" structure_id="347" d="M5658.506,6576.509l-0.009-0.01
			c-27.278-12.656-52.107-28.987-72.912-48.856c-47.313-45.182-49.619-114.149-57.432-174.834
			c-8.682-67.462-21.895-134.095-50.221-196.343c-67.762-148.916,13.075-310.517,114.767-418.06
			c19.751-20.894,39.393-36.538,59.843-47.813l-141.718-4.949c-47.6,34.925-97.99,65.363-147.124,91.238
			c-13.791,177.598,14.316,347.563,34.15,523.64c4.112,36.525,50.743,335.82-25.148,367.33
			c57.565-1.133,126.389-14.64,151.798-23.352C5584.483,6623.935,5631.25,6600.432,5658.506,6576.509z" style="stroke:black;fill:#ff5547"/><path id="180630795" parent_id="180630784" order="109" structure_id="700" d="M6105.352,5929.535l-7.904,14.415
			c-12.88,24.534-34.344,41.312-53.226,61.501c-41.198,44.064-80.398,92.556-128.694,129.259
			c-42.026,31.936-76.476,58.045-120.532,94.996c-86.814,72.817-154.032,128.856-247.4,192.789l-9.341,5.78
			c6.918,37.046,19.127,72.434,47.331,99.367c122.831,117.309,385.953,111.283,465.28-46.046
			c36.724-72.83,40.653-163.611,52.526-244.919c0.472-3.248,0.959-6.484,1.462-9.705
			C6120.063,6129.572,6128.815,6024.673,6105.352,5929.535z" style="stroke:black;fill:#ff4c3e"/><path id="180630793" parent_id="180630784" order="110" structure_id="708" d="M5794.995,6229.706
			c44.057-36.951,78.506-63.061,120.532-94.996c48.296-36.703,87.496-85.194,128.694-129.259
			c18.882-20.189,40.346-36.967,53.226-61.501l7.904-14.415c-13.434-54.472-37.422-105.745-76.827-150.572
			c-60.178-68.452-98.85-88.382-188.092-103.893c-18.397-3.196-35.649-5.621-51.963-7.089l-0.028,8.611
			c-8.789,158.813-199.472,340.535-330.692,398.869c-0.299,0.133-1.371,0.478-2.551,0.851c3.377,26.868,10.702,53.711,22.734,80.153
			c28.326,62.248,41.539,128.881,50.221,196.343c3.155,24.509,5.414,50.368,10.101,75.467l9.341-5.78
			C5640.963,6358.563,5708.181,6302.523,5794.995,6229.706z" style="stroke:black;fill:#ff4c3e"/><path id="180630794" parent_id="180630784" order="111" structure_id="724" d="M5788.441,5676.593l0.028-8.611
			c-80.051-7.201-137.437,8.718-195.771,70.425c-83.635,88.447-153.142,213.458-137.501,337.906c1.18-0.373,2.252-0.718,2.551-0.851
			C5588.97,6017.128,5779.652,5835.406,5788.441,5676.593z" style="stroke:black;fill:#ff4c3e"/><path id="180630798" parent_id="180630784" order="112" structure_id="439" d="M5485.396,5305.355l1.007-3.535
			c-19.367-5.595-31.784-10.496-71.497-15.241c-47.167-5.636-45.844-13.347-97.055,3.118l-1.902,88.671l1.65,0.032
			C5363.71,5375.724,5474.839,5371.311,5485.396,5305.355z" style="stroke:black;fill:#ff4c3e"/><path id="180630790" parent_id="180630784" order="113" structure_id="194" d="M7009.571,5660.574
			c-228.721,1.709-271.998-34.097-277.634-90.294c-7.212-71.953,96.098-166.625,122.668-194.122
			c50.562-52.325,85.645-65.872,76.312-82.428l-69.75-31.23l-50.437-41.774l-40.445-43.765l-26.775-51.524l-10.732-36.444
			l-5.063-52.785c0.033,34.149-104.794,51.171-149.191,56.308c-49.645,5.745-106.134,21.31-155.007,31.29
			c-65.545,13.38-128.32,36.943-191.827,57.444c-57.457,18.545-116.757,32.217-170.022,61.59
			c-59.998,33.09-114.466,83.273-187.84,76.744c-31.767-2.826-68.108-12.405-100.984-27.775c0,0-44.991,3.478-66.342,14.692
			s-43.496,46.489-43.496,46.489c52.031,10.983,59.097,63.283,43.098,117.272c-8.788,29.672-24.826,53.919-43.609,75.969
			c0,0-21.992,36.27-5.992,64.27s72.104,57.1,72.104,57.1c32.816-3.207,69.268,0.075,111.827,7.471
			c26.2,4.553,52.581,9.987,77.485,19.523c10.293,3.941,53.205,33.601,63.797,23.238c1.63-1.595,2.44-3.506,2.713-5.642
			c15.676,38.548,60.258,93.433,104.307,133.843c-3.329-1.576-6.729-2.728-10.229-3.314c-4.739,21.911,15.814,47.893,21.991,68.794
			c10.044,33.997,15.515,69.219,17.899,104.546c4.757,70.487-2.672,141.314-13.54,210.914c-0.503,3.221-0.99,6.457-1.462,9.705
			c-7.005,47.971-11.245,99.238-21.087,148.172l-1.805-0.35c2,44,8,76,94,116c55.153,25.653,124,20,166,6l-0.258-1.434
			c98.525-111.332,244.249-255.115,323.413-204.452l0.032,0.021c-8.21-5.246,64.929-46.469,71.409-48.819
			c12.305-4.46,22.247-1.766,30.855,4.31l2.429,0.169c-61.962-89.377-24.621-160.598,23.466-261.924
			c34.035-71.713,123.05-64.644,144.725-118.349c19.223-47.613,21.635-78.774,40.906-130.546
			C6998.909,5687.873,7027.202,5660.448,7009.571,5660.574z" style="stroke:black;fill:#f2483b"/><path id="180630796" parent_id="180630784" order="114" structure_id="173" d="M5716.5,6958.5c-46,0-68-14-90-30
			c-15.775-11.473-62.045-62.406-78-74c-41.352-30.048-64-58-70-92c-14.635-82.933,113.529-145.002,113.529-145.002
			c27.979-13.186,50.557-27.016,66.477-40.989l-0.009-0.01c133.777,62.07,326.477,35.779,392.368-94.902
			c15.057-29.861,24.601-62.74,31.439-96.747l-1.805-0.35c2,44,8,76,94,116c55.153,25.653,124,20,166,6l-0.258-1.434
			c-102.073,115.335-134.776,159.688-180.417,247.563c-26.572,51.171,5.352,83.22,12.669,79.14l-4.584,4.451
			c-79.711,43.306-141.911,83.107-295.274,103.886c-54.158,7.35-106.322,14.571-157.553,20.973" style="stroke:black;fill:#f2483b"/><path id="180630791" parent_id="180630784" order="115" structure_id="797" d="M5703.682,5243.168
			c39.712,43.891,112.469,71.283,170.145,76.415c73.374,6.529,127.842-43.654,187.84-76.744
			c53.266-29.373,112.565-43.045,170.022-61.59c63.507-20.501,126.282-44.064,191.827-57.444
			c48.873-9.98,105.362-25.545,155.007-31.29c44.397-5.137,149.225-22.158,149.191-56.308
			c-0.057-45.669,14.626-93.267,25.964-137.246c-19.28-11.292-72.01-6.317-116.302-12.331
			c-49.515-6.725-91.468-0.987-141.566,17.886c-70.198,26.451-130.725,40.184-203.116,69.906
			c-124.958,51.305-231.149,98.712-359.227,151.397C5847.651,5161.121,5755.283,5213.912,5703.682,5243.168z" style="stroke:black;fill:#f2483b"/><path id="180630905" parent_id="180630784" order="116" structure_id="1009" d="M7458.171,6183.781
			c25.321-21.484,37.121-59.934-4.337-62.987c-32.257-2.375-75.988,48.941-50.724,69.464
			C7420.213,6204.153,7441.88,6197.611,7458.171,6183.781z" style="stroke:black;fill:#cccccc"/><path id="180630906" parent_id="180630784" order="117" structure_id="1009" d="M6159.825,6752.629
			c45.641-87.874,78.344-132.228,180.417-247.563c98.525-111.332,244.249-255.115,323.413-204.452
			c20.433,13.088,59.747,33.028,81.324,74.682c26.597,51.386,35.043,127.362,28.351,158.023
			c-14.106,64.595-118.462,101.939-185.273,128.252c-85.466,33.657-172.491,64.1-255.772,101.217
			c-55.321,24.668-103.73,37.734-159.79,68.98C6165.177,6835.849,6133.253,6803.8,6159.825,6752.629z" style="stroke:black;fill:#cccccc"/><path id="180630907" parent_id="180630784" order="118" structure_id="1009" d="M5744.092,3169.168
			c-1.648-22.077-7.228-43.106-18.126-60.867c-7.146-11.646-19.531-18.715-29.431-27.77c21.919,5.437,32.436,10.606,46.753,18.492
			c30.202,16.636,54.752,41.965,88.365,52.519c17.29,5.425,33.109,0.02,50.879,3.557c66.332,13.168,67.948,154.105,70.637,203.611
			c3.598,66.507-15.715,165.105-91.89,186.188c-129.108,35.741-121.516-132.235-214.875-164.35
			c51.235-32.833,66.689-75.509,72.253-86.867C5735.476,3259.316,5747.292,3212.255,5744.092,3169.168z" style="stroke:black;fill:#cccccc"/><path id="180630908" parent_id="180630784" order="119" structure_id="1009" d="M6178.779,5811.342
			c91.216,246.75-257.152-97.952-192.087-141.152C6093.85,5599.028,6144.825,5719.496,6178.779,5811.342z" style="stroke:black;fill:#cccccc"/><path id="180630909" parent_id="180630784" order="120" structure_id="1009" d="M5898.547,4632.688
			c49.952-5.015,22.349-231.706-55.987-208.513C5783.235,4441.742,5848.594,4637.699,5898.547,4632.688z" style="stroke:black;fill:#cccccc"/><path id="180630910" parent_id="180630784" order="121" structure_id="1009" d="M7138.128,3638.2
			c69.257,3.508,99.604-24.225,129.417-48.515c35.489-28.907,79.327-96.718,72.424-161.394
			c-3.784-35.387-49.319-54.585-40.337-116.862c8.121-56.283,74.218-111.193,125.981-115.083
			c71.547-5.311,77.913,100.786,91.232,217.206c9.403,82.148,60.233,200.241,50.959,289.544
			c-21.643,208.439-89.965,278.755-137.741,437.217c-32.379,107.409-58.805,248.861-97.379,356.563
			c-34.693,96.859-49.661,155.839-110.683,239.989c-118.178,162.985-45.859,237.488-0.706,259.882
			c59.974,29.751,106.426,54.484,92.263,121.576c-17.524,82.977-237.67,194.946-334.644,185.619
			c-109.342-10.513-231.637-114.755-247.132-220.954c-7.374-50.562-4.711-185.725,94.765-306.695
			c135.077-164.248,216.442-282.926,276.408-377.516c82.478-130.104,132.625-207.091,152.595-270.731
			c38.282-121.999,16.997-228.519-44.35-324.814C7173.373,3743.839,7058.518,3634.164,7138.128,3638.2z" style="stroke:black;fill:#cccccc"/><path id="180630911" parent_id="180630784" order="122" structure_id="1009" d="M7081.15,3328.496
			c73.634-15.844,139.593-14.996,193.85,18.711c35.497,22.048,60.348,61.269,64.141,93.55
			c4.377,37.251-19.921,81.125-35.757,103.572c-28.148,39.895-49.189,63.235-113.225,88.889
			c-43.22,17.306-136.782-1.961-167.009-33.674c-89.43-93.823-97.469-140.523-67.633-187.844
			C6978.07,3375.902,6997.568,3346.479,7081.15,3328.496z" style="stroke:black;fill:#cccccc"/><path id="180630912" parent_id="180630784" order="123" structure_id="1009" d="M6117.823,1943.388
			c2.005-0.81,4.009-1.537,6.095-2.18c2.421-0.889,4.925-1.694,7.428-2.416c13.352-4.265,27.525-7.606,42.521-10.107
			c2.916-0.468,5.832-0.936,8.746-1.32c3.083-0.466,6.164-0.849,9.327-1.148c3.081-0.383,6.245-0.682,9.491-0.979
			c2.997-0.3,6.16-0.516,9.239-0.733c0.249,0.003,0.499,0.005,0.665,0.007c2.58-0.139,5.159-0.277,7.822-0.415
			c8.653-0.407,17.553-0.478,26.698-0.296c86.391,1.673,243.565,41.029,374.073,77.688c66,18.587,125.271,36.52,165.228,48.507
			c107.683,32.506,163.045,50.397,260.963,86.125c10.438,3.771,20.958,7.709,31.561,11.648
			c162.847,61.123,345.353,142.582,522.973,237.544c83.021,44.384,161.563,95.539,234.253,149.542
			c177.314,131.302,319.692,278.863,406.646,383.333c74.472,89.534,144.482,184.01,207.93,277.833
			c154.571,228.278,271.091,452.905,323.296,594.843c4.444,12.106,9.119,25.962,13.779,41.231c1.208,3.755,2.33,7.676,3.535,11.598
			c3.692,12.431,7.375,25.777,11.051,39.788c1.599,6.088,3.195,12.259,4.791,18.597c1.118,4.336,2.151,8.755,3.268,13.258
			c1.593,6.587,3.184,13.34,4.774,20.177c1.588,7.002,3.176,14.088,4.678,21.34c1.823,8.336,3.563,16.754,5.301,25.339
			c0.475,2.25,0.95,4.501,1.342,6.75c8.835,44.754,16.316,91.656,21.316,137.367c0.453,4.246,0.907,8.492,1.36,12.738
			c0.526,5.245,0.97,10.406,1.413,15.567c0.598,6.326,1.03,12.568,1.462,18.811c0.29,3.995,0.581,7.906,0.789,11.817
			c0.278,4.993,0.557,10.069,0.754,14.978c0.196,4.992,0.394,9.901,0.507,14.809c0.198,4.826,0.229,9.733,0.261,14.474
			c0.171,7.403,0.093,14.638-0.065,21.705c-0.808,36.584-3.899,68.985-8.301,99.459c-0.001,0.083-0.001,0.083-0.085,0.166
			c-17.271,44.142-26.232,127.626-34.778,172.359c-0.262,1.162-0.44,2.324-0.701,3.402c-2.548,12.697-6.4,30.702-11.381,53.187
			c-0.084,0.082-0.085,0.166-0.086,0.249c-23.52,68.441-35.989,122.365-40.767,164.645c-13.08,48.761-28.292,102.488-45.612,158.938
			c-16.165,2.904-12.285,21.159-19.428,43.537c-35.799,112.304-82.784,236.382-110.601,310.017
			c-1.883,4.887-3.596,9.525-5.307,13.998c-62.224,164.665-85.835,311.612-136.996,429.574
			c-5.885,13.659-19.947,37.626-31.525,54.884c-12.508,18.661-22.104,29.37-15.58,10.479
			c68.66-198.859,158.555-439.074,87.65-419.042c-62.146,17.548-219.052,263.781-343.33,414.226
			c-78.188,94.552-48.913-92.005,199.376-367.947c43.009-47.858,127.941-174.107,192.538-311.884
			c76.598-163.43,148.216-335.646,178.187-400.774c40.44-87.556,149.231-344.948,113.77-528.29
			c-23.639-122.421-48.008-246.514-96.062-348.905c-87.081-185.724-96.473-209.526-160.218-306.679
			c-131.175-199.668-170.288-282.752-326.35-464.973c-68.09-79.652-161.687-169.474-300.606-274.916
			c-154.511-117.336-195.142-151.785-355.117-232.504c-64.823-35.291-264.142-107.698-380.999-145.458
			c-149.511-48.339-393.116-124.464-586.059-147.653c-136.132-16.344-242.172-8.082-255.901,15.972
			c-58.876,170.439,10.712,327.782,161.747,427.949c135.429,89.77,380.926,82.335,453.069,210.682
			c105.847,188.419,134.671,300.334,112.455,371.285c-24.969,79.487-102.386,101.945-190.245,97.761
			c-64.42-3.102-111.711-67.977-154.698-107.607c-30.966-28.441-72.983-57.666-138.973-108.271
			c-35.47-27.242-113.787-52.697-196.091-63.142c-93.102-11.808-191.288-6.872-236.947-6.695
			c-21.956,0.098-204.521,25.171-236.286,24.832c-98.04-1.05-53.938-57.711-196.273-139.323
			c-113.405-65.001-242.176-69.79-398.637-59.322l6.23-582.001l23.924,2.585l0.165,0.085c11.356,3.531,25.153,4.262,35.032,5.947
			c10.543,1.776,29.811,4.228,47.62,3.088l19.271,2.119c11.145-0.047,72.602,0.029,147.713-16.798
			c56.688-12.699,121.046-34.964,177.519-74.195c13.908-9.582,27.245-20.25,39.929-32.007
			c69.637-64.705,117.816-144.941,185.635-203.013c4.616-3.942,9.314-7.801,14.095-11.492c3.94-3.035,7.965-6.069,12.155-9.018
			c0.001-0.083,0.084-0.083,0.084-0.083c2.011-1.392,4.021-2.785,6.115-4.176c2.095-1.475,4.189-2.866,6.366-4.256
			c4.271-2.782,8.624-5.396,13.059-7.927c2.259-1.223,4.518-2.53,6.776-3.753c0.419-0.245,0.92-0.489,1.422-0.733
			c0.334-0.163,0.67-0.409,1.004-0.572c3.429-1.793,6.857-3.503,10.368-5.211c2.759-1.301,5.6-2.602,8.441-3.902
			c2.422-0.972,4.846-2.027,7.351-2.998C6111.395,1945.731,6114.568,1944.518,6117.823,1943.388z" style="stroke:black;fill:#cccccc"/><path id="180630902" parent_id="180630784" order="124" structure_id="81" d="M6521.212,2224.036
			c-33.523-1.994-137.448-12.193-161.779,28.066c-32.443,53.712-18.094,157.26-8.056,202.978
			c11.889,54.184,43.512,132.588,156.784,211.647c33.346,23.274,77.435,43.025,128.946,60.311
			c66.982,22.475,143.28,38.076,191.349,58.877c92.832,40.183,104.493,43.545,137.96,92.608
			c56.855,74.633,103.431,203.217,120.761,275.393c9.615,40.062,9.785,96.787-10.411,130.871
			c-5.133,8.661-22.342,27.94-43.424,42.501c-21.09,14.565-47.354,20.981-58.487,25.017c2.021,5.567,8.349,9.863,22.097,7.861
			c15.309-5.725,46.932-23.177,89.763-33.69c42.83-10.517,99.117-1.714,99.945-14.18c3.761-56.579-33.775-149.91-68.793-241.914
			c-14.537-38.206-37.779-87.249-43.936-103.73c-21.942-58.731-22.016-92.84-2.436-160.813
			c14.041-48.706,77.36-52.125,91.467-127.923c10.298-55.333,44.544-154.597,47.103-192.161c1.641-24.237-5.563-63.125-5.978-89.465
			c-0.454-29.577-37.771-32.285-87.536-44.597c-76.793-19.003-167.229-48.016-212.464-60.145
			c-75.939-20.372-154.697-32.801-195.327-42.636C6654.844,2235.864,6578.003,2227.415,6521.212,2224.036z" style="stroke:black;fill:#aaaaaa"/><path id="180630903" parent_id="180630784" order="125" structure_id="129" d="M5337.934,2896.435
			c92.767-10.578,180.394-7.317,263.269,8.016c49.287,9.124,101.497,21.866,159.384,66.053
			c97.534,74.454,185.615,191.052,116.513,186.394c-70.003,7.788-95.527-42.83-142.776-63.9
			c-40.402-18.017-79.772-16.518-135.28,13.107c-34.507,18.418-80.861,58.195-105.443,88.158
			c-28.603,34.859-32.964,85.478-61.606,121.227c-29.553,36.89-51.195,41.563-98.972,39.338L5337.934,2896.435z" style="stroke:black;fill:#aaaaaa"/><path id="180630904" parent_id="180630784" order="126" structure_id="129" d="M5299.172,6516.789
			c43.318,32.334,21.765-161.028,18.857-207.708c-9.38-151.016,2.046-307.564,3.581-458.673
			c0.723-72.144-8.738-146.248-3.24-220.495c3.451-46.514,42.344-200.529-7.536-202.45L5299.172,6516.789z" style="stroke:black;fill:#aaaaaa"/></g>
</g>
</svg>