<svg width="8032" height="6848" xmlns="http://www.w3.org/2000/svg">
<g transform="scale(1.0)">
<g id="180611262" order="1" parent_id="" graphic_group_label_id="28" graphic_group_label="Atlas - Adult Mouse" sub_image_id="100960380" transform=" scale(1.0, 1.0)"><path id="180611264" parent_id="180611262" order="0" structure_id="8" d="M4238.077,1494.637c7.665-83.09,9.646-143.565,27.021-215.552
			c36.601-151.671,176.055-306.095,225.721-342.243c294.475-214.313,729.141-125.697,941.109-70.557
			c238.28,61.986,419.742,156.773,613,271.083c474.689,280.77,697.396,412.596,1010.815,883.024
			c288.192,432.558,388.495,816.32,362.29,1203.139c-14.477,213.688-80.518,425.263-161.701,644.037
			c-68.639,184.964-140.3,375.588-280.859,571.924c-39.98,55.836-77.91,52.799-74.943,78.568
			c15.837,137.622-55.924,276.943-140.031,404.434c-90.977,137.883-204.59,285.547-330.896,383.248
			c-102.518,79.291-214.478,108.096-320.832,212.539c-366.361,359.83-734.451,717.729-1145.886,713.086
			c-178.074-2.008-370.444-39.586-480.024-166.008c-154.01-177.672-253.652-397.094-310.414-637.422
			c-11.584-49.02,4.797-164.793,1.914-215.148c-4.881-85.016-51.002-122.878-58.849-212.96
			c-19.981-229.601-63.767-467.579-59.44-702.077c7.127-386.188,47.508-778.239,67.701-1132.457
			c11.754-206.13,26.142-407.712,34.564-607.982c7.021-166.736,34.628-559.957,54.627-782.201
			C4221.198,1683.702,4227.943,1604.42,4238.077,1494.637z" style="stroke:black;fill:#bfdae3"/><path id="180611265" parent_id="180611262" order="1" structure_id="688" d="
			M7055.744,2020.405c-313.438-470.419-536.165-602.256-1010.82-883.024c-193.223-114.305-374.713-209.095-613-271.082
			c-211.996-55.121-646.636-143.755-941.104,70.556c-49.663,36.125-189.118,190.536-225.727,342.242
			c-17.377,71.985-19.35,132.466-27.021,215.554c-10.131,109.76-16.879,189.063-25.108,280.475
			c-20.024,222.21-47.608,615.466-54.627,782.201c-8.436,200.249-22.813,401.854-34.566,607.981
			c-20.195,354.208-60.575,746.271-67.703,1132.456c-1.763,95.941,4.588,191.843,13.807,287.352
			c1.253,12.459,21.518,192.479,24.356,216.162c7.563,19.318,117.438,11.566,172.757,7.006
			c27.578-2.328,79.802-21.812,107.068-45.646c1.332-1.165,61.508-10.834,45.516,36.833c-17.848,50.384-24.468,96.674-33.654,148.81
			c-8.086,45.69-12.566,75.068-11.734,121.189c0.191,13.307-2.795,51.563,45.588,68.105c34.734,11.862,77.277-22.817,111.148-36.679
			c99.541-40.633,132.261-69.703,151.938-118.711c20.261-50.222,6.584-107.991,2.554-160.013
			c-4.433-55.978,9.35-108.057,28.229-160.127c26.871-73.938,73.901-140.59,103.597-213.002
			c13.09-32.063,26.34-71.75,41.453-111.158c-7.34,10.127-17.705,15.437-12.061-47.648c2.656-29.729,43.044-101.582,47.663-145.302
			c3.535-33.536-11.94-100.146,15.592-126.047c34.409-32.364,102.201,4.546,123.69,37.943c36.379,56.551-7.26,74.317-51.517,104.147
			c-10.772,7.262-20.584,14.612-29.584,22.164c57.211-44.084,81.31-19.633,127.908,36.193c27.705,33.128,51.885,70.2,61.983,112.764
			c9.822,41.709-3.621,83.777,6.631,124.095c-31.192,72.313-24.527,170.993-33.307,215.801
			c-15.176,77.817-35.208,158.235-37.966,191.827c-5.37,65.018,43.392,102.066,9.653,168.689
			c-29.787,58.863-88.252,100.332-104.992,166.592c-15.566,61.239-19.027,157.568,20.125,210.694
			c53.715,72.831,140.123,43.521,209.403,14.065c67.132-28.6,136.183-75.795,211.931-60.926
			c108.674,21.345,207.41,93.521,291.59,160.875c43.086,34.412,79.199,74.291,114.58,116.379
			c22.836,27.201,38.717,60.873,60.403,88.998l30.728-31.795c52.53-66.363,126.645-119.239,187.6-179.103
			c106.338-104.468,218.292-133.231,320.852-212.539c126.281-97.692,239.955-245.394,330.896-383.25
			c84.144-127.528,155.87-266.843,140.03-404.431c-2.951-25.781,34.967-22.732,74.918-78.571
			c140.604-196.388,212.262-386.955,280.869-571.959c81.242-218.767,147.289-430.361,161.723-644.001
			C7444.266,2836.718,7343.969,2452.931,7055.744,2020.405z" style="stroke:black;fill:#b0ffb8"/><path id="180611321" parent_id="180611262" order="2" structure_id="320" d="M7055.744,2020.405
			c288.225,432.526,388.521,816.313,362.289,1203.139c-0.393,5.826-0.866,11.646-1.346,17.55l-155.633-44.146
			c22.444-111.356,36.719-226.773,22.67-328.793c-21.846-157.722-105.012-287.458-169.15-429.126
			c-44.773-98.9-105.682-190.356-160.173-283.973c-83.787-144.158-179.985-267.832-292.858-389.698
			c-156.694-168.953-342.324-331.572-535.69-458.679c-65.254-42.924-136.468-85.494-211.761-125.832l0.006-0.084l53.904-88.092
			c25.527,14.507,51.111,29.435,76.922,44.711C6519.579,1418.148,6742.309,1549.985,7055.744,2020.405z" style="stroke:black;fill:#1f9d5a"/><path id="180611320" parent_id="180611262" order="3" structure_id="943" d="M7283.725,2868.154
			c14.049,102.02-0.225,217.437-22.668,328.793l-408.076-115.693c0.086-38.619-3.234-76.296-10.764-112.333
			c-72.921-348.256-284.584-647.31-504.867-918.851c-183.611-226.272-386.708-392.74-620.693-546.15l197.436-323.075
			c75.293,40.338,146.507,82.909,211.762,125.833c193.365,127.105,378.996,289.727,535.69,458.678
			c112.873,121.867,209.071,245.54,292.858,389.698c54.49,93.617,115.398,185.073,160.172,283.973
			C7178.714,2580.696,7261.88,2710.434,7283.725,2868.154z" style="stroke:black;fill:#1f9d5a"/><path id="180611319" parent_id="180611262" order="4" structure_id="648" d="M6852.98,3081.254L6360,2941.381
			c-35.124-144.232-117.337-294.389-164.236-390.255c-138.367-282.509-418.734-538.271-695.979-692.414l216.871-354.792
			c233.985,153.41,437.082,319.878,620.694,546.15c220.283,271.541,431.945,570.595,504.867,918.851
			C6849.745,3004.958,6853.066,3042.635,6852.98,3081.254z" style="stroke:black;fill:#1f9d5a"/><path id="180611318" parent_id="180611262" order="5" structure_id="844" d="M6360,2941.381l-769.874-218.331
			c3.146-30.638,0.573-60.823-5.56-80.298c-28.304-90.186-120.313-166.676-203.069-206.679
			c-61.948-29.911-133.584-48.768-203.69-50.55l321.979-526.812c277.244,154.142,557.611,409.905,695.979,692.414
			C6242.663,2646.992,6324.876,2797.148,6360,2941.381z" style="stroke:black;fill:#1f9d5a"/><path id="180611317" parent_id="180611262" order="6" structure_id="882" d="M5584.566,2642.753c6.133,19.474,8.703,49.66,5.56,80.298
			l-514.646-145.926l-8.014-8.898l-1.154-0.244l111.494-182.459c70.106,1.783,141.742,20.64,203.69,50.551
			C5464.253,2476.077,5556.264,2552.566,5584.566,2642.753z" style="stroke:black;fill:#1f9d5a"/><path id="180611316" parent_id="180611262" order="7" structure_id="656" d="M5968.002,1092.67l-53.904,88.092
			c-341.112-182.844-767.812-318.767-1123.662-218.684c-39.625,11.133-75.766,25.176-108.737,41.854l-36.358-149.5
			c276.506-103.739,609.348-34.231,786.584,11.866C5638.409,920.047,5802.197,998.349,5968.002,1092.67z" style="stroke:black;fill:#1f9d5a"/><path id="180611315" parent_id="180611262" order="8" structure_id="962" d="M5914.098,1180.762l-0.006,0.083l-197.437,323.075
			c-40.759-26.732-82.378-53.104-125.097-79.298c-261.359-160.349-544.43-316.136-837.238-121.528l-72.623-299.161
			c32.973-16.68,69.113-30.722,108.736-41.854C5146.286,861.996,5572.984,997.918,5914.098,1180.762z" style="stroke:black;fill:#1f9d5a"/><path id="180611314" parent_id="180611262" order="9" structure_id="767" d="M5716.654,1503.92l-216.871,354.792
			c-11.683-6.553-23.381-12.856-35.008-18.989c-217.145-114.155-445.151-228.373-578.683,5.86l-131.772-542.49
			c292.81-194.607,575.879-38.819,837.238,121.528C5634.277,1450.817,5675.896,1477.188,5716.654,1503.92z" style="stroke:black;fill:#1f9d5a"/><path id="180611313" parent_id="180611262" order="10" structure_id="1021" d="M5499.784,1858.713l-321.979,526.811
			c-53.744-1.437-106.649,7.05-153.637,28.223l-138.075-568.161c133.53-234.233,361.538-120.017,578.683-5.86
			C5476.402,1845.855,5488.102,1852.16,5499.784,1858.713z" style="stroke:black;fill:#1f9d5a"/><path id="180611312" parent_id="180611262" order="11" structure_id="1085" d="M5177.807,2385.523l-111.494,182.459l-5.025-1.091
			l-37.117-153.146C5071.154,2392.573,5124.061,2384.087,5177.807,2385.523z" style="stroke:black;fill:#1f9d5a"/><path id="180611311" parent_id="180611262" order="12" structure_id="36" d="M7261.057,3196.948l155.631,44.146
			c-16.705,207.635-81.373,413.637-160.377,626.452c-25.313,68.192-50.928,137.116-80.354,206.788l-1.061-0.406l-152.17-108.119
			c34.141-198.354,143.926-372.817,191.813-567.991C7229.854,3335.389,7247.07,3266.988,7261.057,3196.948z" style="stroke:black;fill:#009c75"/><path id="180611310" parent_id="180611262" order="13" structure_id="180" d="M6852.98,3081.254l408.074,115.693
			c-13.983,70.04-31.203,138.44-46.516,200.867c-47.889,195.175-157.674,369.638-191.813,567.992l-314.638-223.535
			c89.108,31.315,125.196-76.532,154.142-148.996c31.861-79.791,180.223-399.139-17.869-365.041l-5.287-0.94
			C6847.744,3177.882,6852.963,3128.823,6852.98,3081.254z" style="stroke:black;fill:#009c75"/><path id="180611309" parent_id="180611262" order="14" structure_id="148" d="M6844.361,3228.235
			c198.092-34.099,49.73,285.25,17.869,365.042c-28.944,72.463-65.033,180.312-154.142,148.994l-38.782-27.52
			c22.283-33.031,41.656-71.273,58.163-115.395c42.071-112.297,88.823-243.256,111.604-372.063L6844.361,3228.235z" style="stroke:black;fill:#009c75"/><path id="180611308" parent_id="180611262" order="15" structure_id="187" d="M6852.98,3081.254
			c-0.019,47.569-5.236,96.628-13.905,146.041c-22.78,128.807-69.533,259.768-111.604,372.063
			c-16.506,44.121-35.879,82.363-58.162,115.396l-607.168-431.375c117.082,35.537,191.545,49.649,271.438-64.369
			c52.611-75.053,51.457-174.87,26.423-277.627L6852.98,3081.254z" style="stroke:black;fill:#009c75"/><path id="180611307" parent_id="180611262" order="16" structure_id="638" d="M6360,2941.381
			c25.034,102.758,26.189,202.574-26.423,277.627c-79.892,114.02-154.354,99.905-271.438,64.369l-681.383-484.014
			c39.182,17.847,79.164,32.488,121.717,35.012c57.121,3.418,82.021-54.854,87.652-111.325L6360,2941.381z" style="stroke:black;fill:#009c75"/><path id="180611306" parent_id="180611262" order="17" structure_id="662" d="M5075.479,2577.125l514.646,145.926
			c-5.633,56.473-30.531,114.743-87.652,111.325c-42.554-2.524-82.535-17.165-121.717-35.012l-291.572-207.189L5075.479,2577.125z" style="stroke:black;fill:#009c75"/><path id="180611326" parent_id="180611262" order="18" structure_id="935" d="M4448.541,1245.186
			c-22.436,46.482-39.693,96.822-52.627,149.961l-106.343-187.976c54.097-125.785,159.496-239.929,201.249-270.315
			c48.258-35.133,100.318-62.151,154.518-82.422l36.359,149.5C4572.23,1059.116,4497.792,1142.987,4448.541,1245.186z" style="stroke:black;fill:#40a666"/><path id="180611325" parent_id="180611262" order="19" structure_id="211" d="M4681.697,1003.934l72.623,299.161
			c-5.508,3.561-10.946,7.375-16.476,11.268c-76.2,54.072-135.329,124.09-164.37,211.679
			c-13.838,41.708-24.04,84.079-31.598,126.878l-145.965-257.771c7.336-28.143,9.188-40.653,20.963-72.293
			c14.349-38.552,10.719-29.41,31.664-77.668C4497.792,1142.987,4572.23,1059.116,4681.697,1003.934z" style="stroke:black;fill:#40a666"/><path id="180611324" parent_id="180611262" order="20" structure_id="1015" d="M4754.32,1303.094l131.772,542.49
			c-6.72,11.671-13.08,24.202-19.245,37.583c-26.047,56.688-42.086,142.392-59.734,238.354l-265.24-468.521l0.006-0.083
			c7.557-42.799,17.758-85.17,31.597-126.878c29.041-87.588,88.17-157.606,164.37-211.679
			C4743.374,1310.469,4748.813,1306.654,4754.32,1303.094z" style="stroke:black;fill:#40a666"/><path id="180611323" parent_id="180611262" order="21" structure_id="919" d="M4886.094,1845.584l138.076,568.161
			c-13.703,6.103-26.896,13.326-39.414,21.681l-177.642-313.906c17.647-95.961,33.688-181.664,59.733-238.354
			C4873.014,1869.787,4879.374,1857.255,4886.094,1845.584z" style="stroke:black;fill:#40a666"/><path id="180611322" parent_id="180611262" order="22" structure_id="927" d="M5024.169,2413.746l37.117,153.146l-2.386-0.578
			l-74.146-130.887C4997.271,2427.071,5010.466,2419.848,5024.169,2413.746z" style="stroke:black;fill:#40a666"/><path id="180611332" parent_id="180611262" order="23" structure_id="171" d="M4289.57,1207.17l106.344,187.977
			c-9.248,38.088-16.248,77.579-21.482,118.192c-11.736,92.597-36.048,184.433-40.229,277.787
			c-3.873,87.522,4.357,174.104-5.528,261.558c-13.081,115.08-32.658,229.806-48.59,343.773l-111.567-24.298
			c11.764-188.822,30.037-437.234,44.449-597.035c8.229-91.411,14.978-170.715,25.107-280.475
			c7.671-83.089,9.645-143.568,27.02-215.554C4270.887,1255.074,4279.283,1230.892,4289.57,1207.17z" style="stroke:black;fill:#2fa850"/><path id="180611331" parent_id="180611262" order="24" structure_id="195" d="M4462.941,2409.91l4.224,0.617
			c-1.247,8.611-2.494,17.223-3.664,25.922l-183.416-39.992c15.933-113.969,35.509-228.694,48.59-343.773
			c9.888-87.454,1.655-174.033,5.528-261.558c4.181-93.354,28.49-185.19,40.229-277.787c5.234-40.614,12.234-80.104,21.482-118.193
			l34.154,60.315c-3.421,29.784-4.523,59.89-3.88,92.623c1.671,87.144,1.544,176.172-1.38,263.257
			c-3.717,110.106-11.762,219.922-33.993,328.117c-9.334,45.604-32.767,90.766-20.608,136.31
			C4383.626,2326.163,4427.41,2373.831,4462.941,2409.91z" style="stroke:black;fill:#2fa850"/><path id="180611330" parent_id="180611262" order="25" structure_id="304" d="M4541.879,1652.918l-0.006,0.083
			c-28.563,160.104-21.492,326.197-38.757,487.396c-9.749,90.389-23.306,180.188-35.951,270.132l-4.224-0.618
			c-35.531-36.079-79.315-83.747-92.734-134.143c-12.157-45.543,11.275-90.705,20.609-136.31
			c22.23-108.194,30.275-218.01,33.992-328.117c2.924-87.085,3.051-176.114,1.381-263.257c-0.645-32.732,0.459-62.839,3.879-92.623
			L4541.879,1652.918z" style="stroke:black;fill:#2fa850"/><path id="180611329" parent_id="180611262" order="26" structure_id="363" d="M4541.873,1653.001l265.241,468.521
			c-13.054,71.105-26.985,147.836-46.478,222.69c-13.086,50.453-25.861,100.008-37.998,148.771L4463.5,2436.45
			c1.17-8.7,2.417-17.312,3.664-25.921c12.646-89.944,26.202-179.743,35.951-270.133
			C4520.381,1979.198,4513.313,1813.105,4541.873,1653.001z" style="stroke:black;fill:#2fa850"/><path id="180611328" parent_id="180611262" order="27" structure_id="84" d="M4807.113,2121.521l177.643,313.905
			c-34.563,22.927-64.432,54.362-87.107,95.729l-175.01-38.173c12.138-48.763,24.912-98.316,38-148.771
			C4780.129,2269.357,4794.063,2192.626,4807.113,2121.521z" style="stroke:black;fill:#2fa850"/><path id="180611327" parent_id="180611262" order="28" structure_id="132" d="M5058.9,2566.313l-161.252-35.158
			c22.676-41.365,52.545-72.801,87.106-95.729L5058.9,2566.313z" style="stroke:black;fill:#2fa850"/><path id="180611337" parent_id="180611262" order="29" structure_id="707" d="M4246.873,3584.234c0.038,1.926,0.081,3.768,0.036,5.688
			c-50.353-7.145-100.92-12.296-151.356-14.43l-0.084-0.006c10.44-140.504,20.763-278.008,28.303-410.18
			c11.754-206.128,26.131-407.732,34.565-607.981c1.978-46.853,5.565-111.487,10.181-185.166l111.566,24.298
			c-1.241,8.528-2.395,16.979-3.553,25.511c-18.117,134.054-8.186,268.736-38.614,401.878
			c-28.66,125.486-11.872,252.688,0.8,378.943c6.32,62.709,16.094,128.827,10.68,192.001
			C4243.57,3464.126,4245.27,3517.244,4246.873,3584.234z" style="stroke:black;fill:#59b363"/><path id="180611336" parent_id="180611262" order="30" structure_id="556" d="M4488.432,3586.33
			c0.869,13.186-2.019,28.791-7.431,45.9c-28.979-5.457-56.569-10.404-81.644-15.517c-50.232-10.146-101.188-19.504-152.449-26.793
			c0.045-1.92,0.002-3.762-0.035-5.688c-1.604-66.989-3.304-120.107,2.523-189.441c5.414-63.175-4.357-129.292-10.68-192.001
			c-12.672-126.256-29.461-253.457-0.801-378.942c30.431-133.144,20.498-267.826,38.614-401.879
			c1.158-8.533,2.312-16.982,3.554-25.511l183.416,39.992c-10.426,75.546-20.028,151.313-25.811,227.423
			c-15.794,206.526-45.602,415.037-23.991,622.319C4424.298,3387.311,4482.197,3489.936,4488.432,3586.33z" style="stroke:black;fill:#59b363"/><path id="180611335" parent_id="180611262" order="31" structure_id="827" d="M4715.641,3678.84l-10.045,11.364
			c-42.184-16.711-88.486-29.353-134.691-39.729c-30.471-6.896-60.841-12.78-89.902-18.244c5.412-17.109,8.301-32.717,7.431-45.9
			c-6.233-96.396-64.133-199.02-74.729-300.139c-21.609-207.282,8.196-415.793,23.99-622.319
			c5.781-76.108,15.385-151.877,25.811-227.423l259.139,56.531C4620.009,2905.691,4562.012,3267.561,4715.641,3678.84z" style="stroke:black;fill:#59b363"/><path id="180611334" parent_id="180611262" order="32" structure_id="1054" d="M5028.204,2779.363L4856.646,3797.58
			c-12.86-15.159-26.521-29.621-41.412-43.161c-28.606-25.916-65.196-46.265-105.812-62.702c-1.304-0.507-2.524-1.007-3.828-1.513
			l10.044-11.364c-153.629-411.278-95.631-773.147,6.999-1185.858l175.01,38.173c-1.812,3.307-3.543,6.701-5.276,10.096
			c-53.293,106.359-32.742,221.105-44.855,335.498c-1.861,17.766-47.939,198.431-29.061,269.591
			c8.939,33.708,63.451,42.385,84.448-15.063c30.743-84.297,29.876-137.36,47.892-211.393
			C4964.277,2864.775,4992.469,2814.751,5028.204,2779.363z" style="stroke:black;fill:#59b363"/><path id="180611333" parent_id="180611262" order="33" structure_id="1081" d="M5058.9,2566.313l4.029,7.209l-34.727,205.841
			c-35.735,35.388-63.926,85.413-77.408,140.521c-18.017,74.033-17.148,127.096-47.893,211.394
			c-20.997,57.446-75.509,48.769-84.448,15.062c-18.88-71.16,27.198-251.824,29.06-269.591
			c12.114-114.392-8.437-229.138,44.856-335.497c1.733-3.395,3.466-6.79,5.276-10.096L5058.9,2566.313z" style="stroke:black;fill:#59b363"/><path id="180611295" parent_id="180611262" order="34" structure_id="448" d="M6203.264,4215.668l65.405,94.184l-2.085,8.639
			l-64.357-15.191l-2.035-0.806l-21.649-3.795l0.551-3.224C6159.592,4242.247,6172.73,4219.637,6203.264,4215.668z" style="stroke:black;fill:#248a5e"/><path id="180611341" parent_id="180611262" order="35" structure_id="448" d="M6203.264,4215.668l65.405,94.184l-2.085,8.639
			l-64.357-15.191l-2.035-0.806l-21.649-3.795l0.551-3.224C6159.592,4242.247,6172.73,4219.637,6203.264,4215.668z" style="stroke:black;fill:#248a5e"/><path id="180611294" parent_id="180611262" order="36" structure_id="412" d="M5991.88,3911.2l211.383,304.468
			c-30.53,3.969-43.671,26.579-24.171,79.807l-0.551,3.224l-229.715-40.259l-96.283-7.889l-65.9,16.475l-26.504,21.211l-1.639,0.727
			l-201.913-502.725c76.944,20.719,147.479,65.92,227.34,85.58C5857.2,3889.948,5925.531,3903.232,5991.88,3911.2z" style="stroke:black;fill:#248a5e"/><path id="180611340" parent_id="180611262" order="37" structure_id="412" d="M5991.88,3911.2l211.383,304.468
			c-30.53,3.969-43.671,26.579-24.171,79.807l-0.551,3.224l-229.715-40.259l-96.283-7.889l-65.9,16.475l-26.504,21.211l-1.639,0.727
			l-201.913-502.725c76.944,20.719,147.479,65.92,227.34,85.58C5857.2,3889.948,5925.531,3903.232,5991.88,3911.2z" style="stroke:black;fill:#248a5e"/><path id="180611293" parent_id="180611262" order="38" structure_id="630" d="M5441.871,3119.238L5991.88,3911.2
			c-66.349-7.968-134.681-21.252-207.953-39.384c-79.858-19.659-150.396-64.86-227.34-85.58l-235.28-585.977
			c6.375-7.765,13.143-15.169,20.304-22.212C5371.959,3148.15,5405.738,3129.436,5441.871,3119.238z" style="stroke:black;fill:#248a5e"/><path id="180611292" parent_id="180611262" order="39" structure_id="440" d="M5167.289,2723.828l274.582,395.41
			c-36.133,10.196-69.912,28.912-100.262,58.811c-7.162,7.043-13.93,14.448-20.304,22.212l-190.452-474.198
			C5143.273,2724.138,5155.441,2723.451,5167.289,2723.828z" style="stroke:black;fill:#248a5e"/><path id="180611291" parent_id="180611262" order="40" structure_id="488" d="M5078.711,2596.236l88.578,127.592
			c-11.848-0.377-24.016,0.311-36.436,2.235L5078.711,2596.236z" style="stroke:black;fill:#248a5e"/><path id="180611290" parent_id="180611262" order="41" structure_id="288" d="M5758.5,4288.962l-41.516,19.366l-40.244-2.034
			l-46.4-14.905l-44.328-24.629l-48.417-35.941l-89.752-54.1l-95.121-36.402l-81.926-24.982l-60.506-17.773l5.092-17.299
			c-0.226-27.771-6.962-59.408-1.955-86.66c12.38-67.306,47.771-122.447,97.396-160.498c38.61-29.678,85.886-48.908,137.58-55.552
			c38.283-4.869,73.859-0.558,108.186,8.688L5758.5,4288.962z" style="stroke:black;fill:#248a5e"/><path id="180611339" parent_id="180611262" order="42" structure_id="288" d="M5758.5,4288.962l-41.516,19.366l-40.244-2.034
			l-46.4-14.905l-44.328-24.629l-48.417-35.941l-89.752-54.1l-95.121-36.402l-81.926-24.982l-60.506-17.773l5.092-17.299
			c-0.226-27.771-6.962-59.408-1.955-86.66c12.38-67.306,47.771-122.447,97.396-160.498c38.61-29.678,85.886-48.908,137.58-55.552
			c38.283-4.869,73.859-0.558,108.186,8.688L5758.5,4288.962z" style="stroke:black;fill:#248a5e"/><path id="180611289" parent_id="180611262" order="43" structure_id="1125" d="M5321.307,3200.261l235.28,585.978
			c-34.325-9.244-69.901-13.557-108.185-8.688c-51.695,6.645-98.971,25.874-137.582,55.552l-8.222-14.514
			c-52.17-54.753-60.099-134.625-71.608-205.959C5210.495,3484.594,5232.479,3307.912,5321.307,3200.261z" style="stroke:black;fill:#248a5e"/><path id="180611288" parent_id="180611262" order="44" structure_id="608" d="M4978.156,3957.648
			c-21.004-19.637-47.89-61.237-64.763-85.11c-18.104-25.461-36.369-51.017-56.748-74.958l171.558-1018.217
			c24.715-24.425,53.063-41.918,82.739-49.371c6.722-1.722,13.33-3.033,19.911-3.93l190.452,474.198
			c-88.828,107.651-110.812,284.333-90.315,412.368c11.511,71.334,19.438,151.206,71.608,205.959l8.222,14.514
			c-49.625,38.051-85.015,93.191-97.395,160.498c-5.007,27.252,1.73,58.889,1.955,86.66l-5.092,17.299l-44.027-12.906
			l-81.888-35.514l-51.388-34.051L4975,3956.1l0.277-0.399C4976.88,3956.727,4977.84,3957.377,4978.156,3957.648z" style="stroke:black;fill:#248a5e"/><path id="180611338" parent_id="180611262" order="45" structure_id="608" d="M4978.156,3957.648
			c-21.004-19.637-47.89-61.237-64.763-85.11c-18.104-25.461-36.369-51.017-56.748-74.958l171.558-1018.217
			c24.715-24.425,53.063-41.918,82.739-49.371c6.722-1.722,13.33-3.033,19.911-3.93l190.452,474.198
			c-88.828,107.651-110.812,284.333-90.315,412.368c11.511,71.334,19.438,151.206,71.608,205.959l8.222,14.514
			c-49.625,38.051-85.015,93.191-97.395,160.498c-5.007,27.252,1.73,58.889,1.955,86.66l-5.092,17.299l-44.027-12.906
			l-81.888-35.514l-51.388-34.051L4975,3956.1l0.277-0.399C4976.88,3956.727,4977.84,3957.377,4978.156,3957.648z" style="stroke:black;fill:#248a5e"/><path id="180611287" parent_id="180611262" order="46" structure_id="680" d="M5078.711,2596.236l52.145,129.826
			c-6.582,0.896-13.19,2.209-19.912,3.931c-29.678,7.454-58.023,24.946-82.738,49.37l34.727-205.84L5078.711,2596.236z" style="stroke:black;fill:#248a5e"/><path id="180611305" parent_id="180611262" order="47" structure_id="996" d="M7174.896,4073.927l1.06,0.406
			c-50.408,119.427-111.679,241.219-200.515,365.171c-29.522,41.24-57.976,50.363-69.59,62.71l-42.146-6.091l-55.412-6.48
			l0.179-1.41l-110.453-121.787c65.795-8.707,128.767-37.584,184.176-82.102c102.248-82.17,119.143-178.1,137.849-302.247
			c0.785-5.465,1.729-10.836,2.683-16.289L7174.896,4073.927z" style="stroke:black;fill:#219866"/><path id="180611304" parent_id="180611262" order="48" structure_id="328" d="M6708.09,3742.271l314.637,223.535
			c-0.951,5.453-1.896,10.824-2.683,16.289c-18.706,124.148-35.601,220.077-137.849,302.247
			c-55.41,44.519-118.381,73.396-184.176,82.103l-413.321-455.811c25.72-3.289,51.829-7.388,78.504-12.451
			c134.644-25.484,235.245-78.17,306.104-183.433L6708.09,3742.271z" style="stroke:black;fill:#219866"/><path id="180611303" parent_id="180611262" order="49" structure_id="1101" d="M6062.141,3283.377l607.168,431.375
			c-70.86,105.263-171.463,157.947-306.105,183.434c-26.675,5.063-52.784,9.162-78.504,12.45l-724.202-798.729
			c149.342,17.053,314.712,115.358,435.694,151.324C6019.632,3270.239,6041.573,3277.146,6062.141,3283.377z" style="stroke:black;fill:#219866"/><path id="180611302" parent_id="180611262" order="50" structure_id="783" d="M5380.756,2799.364l681.384,484.014
			c-20.565-6.229-42.508-13.139-65.948-20.147c-120.982-35.966-286.354-134.271-435.695-151.324l-346.539-382.102
			C5271.695,2742.712,5325.508,2774.25,5380.756,2799.364z" style="stroke:black;fill:#219866"/><path id="180611301" parent_id="180611262" order="51" structure_id="831" d="M5089.184,2592.174l291.572,207.189
			c-55.248-25.113-109.061-56.651-166.8-69.56L5089.184,2592.174z" style="stroke:black;fill:#219866"/><path id="180611300" parent_id="180611262" order="52" structure_id="704" d="M6808.475,4488.232l-0.18,1.408l-29.617-3.41
			l-102.38-11.726l-96.625-23.963l-95.088-35.647l-145.669-71.733l-62.623-22.349l-9.709-2.324l2.085-8.639l-65.405-94.184
			c85.207-11.416,306.248,120.644,336.332,132.026c53.074,20.118,106.629,25.64,158.424,18.751L6808.475,4488.232z" style="stroke:black;fill:#219866"/><path id="180611299" parent_id="180611262" order="53" structure_id="694" d="M6284.698,3910.636l413.321,455.81
			c-51.797,6.889-105.351,1.367-158.424-18.75c-30.086-11.385-251.127-143.442-336.334-132.026L5991.88,3911.2
			C6090.318,3923.079,6184.516,3923.47,6284.698,3910.636z" style="stroke:black;fill:#219866"/><path id="180611298" parent_id="180611262" order="54" structure_id="800" d="M5560.496,3111.906l724.202,798.729
			c-100.185,12.834-194.379,12.443-292.817,0.564l-550.01-791.962C5479.375,3108.547,5519.266,3107.13,5560.496,3111.906z" style="stroke:black;fill:#219866"/><path id="180611297" parent_id="180611262" order="55" structure_id="675" d="M5213.956,2729.805l346.54,382.102
			c-41.23-4.776-81.121-3.358-118.625,7.332l-274.582-395.41C5183.152,2724.143,5198.727,2726.273,5213.956,2729.805z" style="stroke:black;fill:#219866"/><path id="180611296" parent_id="180611262" order="56" structure_id="699" d="M5089.184,2592.174l124.772,137.631
			c-15.229-3.53-30.804-5.664-46.667-5.977l-88.578-127.592l-6.445-16.067L5089.184,2592.174z" style="stroke:black;fill:#219866"/><path id="180611266" parent_id="180611262" order="57" structure_id="698" d="M6905.994,4502.087
			c-0.047,0.043-0.1,0.082-0.143,0.127l-42.146-6.091l-55.412-6.48l-29.617-3.41l-102.38-11.727l-96.625-23.963l-95.088-35.646
			l-145.669-71.734l-62.623-22.348l-9.709-2.324l-64.358-15.191l-2.035-0.807l-21.648-3.795l-229.715-40.258l-96.283-7.89
			l-65.9,16.476l-26.504,21.211l-1.639,0.727l-41.516,19.366l-40.244-2.034l-46.4-14.904l-44.328-24.631l-48.417-35.94
			l-89.752-54.101l-95.121-36.401l-81.926-24.981l-60.506-17.774l-44.028-12.906l-81.887-35.514l-51.387-34.051L4975,3956.1
			l0.277-0.399c1.603,1.027,2.563,1.678,2.879,1.949c-21.004-19.636-47.89-61.237-64.763-85.11
			c-18.104-25.461-36.369-51.016-56.748-74.958c-12.86-15.159-26.521-29.621-41.411-43.161
			c-28.607-25.916-65.197-46.265-105.813-62.703c-1.304-0.506-2.523-1.006-3.828-1.512c-42.184-16.711-88.486-29.352-134.691-39.729
			c-30.471-6.896-60.841-12.781-89.902-18.245c-28.979-5.457-56.569-10.404-81.643-15.517
			c-50.232-10.146-101.188-19.504-152.449-26.793c-50.352-7.144-100.92-12.296-151.357-14.43l-0.052-0.004
			c-17.435,235.888-34.963,480.227-39.431,722.266c-2.097,113.694,7.092,227.229,19.227,340.207
			c6.869,64.027,12.793,124.875,22.815,188.293c3.067,14.813,86.456,9.429,99.222,8.73c23.564-1.287,49.426,1.521,72.274-1.452
			c9.29-1.21,104.481-40.125,104.065-43.36c3.365,26.26,11.896,41.957,8.688,69.356c-11.071,94.545-85.908,239.719,28.728,295.461
			c48.696,23.679,70.217,2.463,110.783-21.8c111.519-66.702,233.392-92.258,200.115-255.744
			c-15.224-74.795-8.821-156.755,29.627-224.089c27.84-48.758,61.443-101.953,76.75-156.419
			c9.916-35.282,16.164-71.482,23.416-107.371c2.324-11.505,10.725-29.943,6.73-41.303c-3.034-8.635-16.579-9.543-18.514-20.729
			c-0.004-0.021-0.008-0.039-0.01-0.06c-8.601-50.643,39.582-112.131,54.519-157.812c14.709-44.983-17.703-92.28,9.437-134.909
			c23.117-36.31,63.037-38.527,98.416-17.289c29.492,17.703,50.654,43.035,47.236,78.501c-2.074,21.492-30.725,26.705-34.225,43.433
			c-5.018,23.981,19.703,29.061,38.313,46.674c36.175,34.238,69.904,88.666,84.191,136.514
			c26.027,87.169-7.726,158.096-15.664,242.669c-4.524,48.212-3.27,99.39-12.756,146.949c-7.5,37.306-23.619,72.562-27.602,110.661
			c-7.391,70.71,15.586,170.499-27.654,233.454c-19.431,28.29-47.233,46.117-63.709,77.058
			c-17.332,32.547-29.19,70.527-37.027,106.504c-14.872,68.268-25.467,160.926,44.059,202.929
			c47.078,28.442,114.275,26.896,164.527,12.698c36.902-10.426,73.783-24.09,108.921-39.461
			c36.442-15.941,68.312-45.123,108.228-52.748c41.403-7.909,84.726,4.9,122.691,20.646
			c78.807,32.682,147.436,86.99,213.543,139.836c29.749,23.779,56.154,50.152,81.295,78.051
			c11.282,12.521,22.311,25.347,33.27,38.385c22.865,27.188,38.732,60.847,60.418,88.973
			c73.069-68.355,145.748-139.592,218.356-210.907c106.354-104.442,218.313-133.248,320.832-212.538
			c126.306-97.702,239.92-245.365,330.896-383.248c84.107-127.49,155.869-266.813,140.031-404.434
			C6899.747,4511.271,6901.809,4506.48,6905.994,4502.087z M5829.863,4615.902c-22.035,69.256-84.883,122.111-138.582,167.246
			c-61.918,52.053-128.748,97.815-194.104,145.377c-16.252,11.834-39.876,31.699-61.104,30.752
			c-13.367-0.6-25.772-6.834-37.162-13.299c-53.129-30.151-118.232-44.592-177.896-25.664c9.571-3.039,17.335-61.972,18.885-69.697
			c8.243-41.23,13.333-82.995,19.875-124.503c7.177-45.517,18.125-89.276,36.747-131.616
			c27.348-62.152,85.396-189.898,10.672-241.527c-35.875-24.789-78.643,4.785-105.852,28.733
			c-7.918,6.97-30.043,34.449-30.043,34.449c11.819-14.674,3.104-74.187,0.855-91.796c-4.854-37.926-19.738-77.795-49.919-102.836
			c-22.451-18.623-47.793-45.203-50.099-65.863c-1.646-14.799,8.521-26.564,40.029-30.189c42.701-4.921,89.32,6.586,130.541,17.23
			c60.786,15.703,122.582,35.14,178.546,63.959c73.894,38.047,138.974,87.225,210.146,129.607
			c58.854,35.053,116.276,59.385,157.16,117.471C5820.764,4499.503,5847.794,4559.557,5829.863,4615.902z" style="stroke:black;fill:#9ad2bd"/><path id="180611271" parent_id="180611262" order="58" structure_id="159" d="M4709.499,4192.811
			c38.792-9.34,78.651-10.793,114.966-2.225c24.111,5.693,49.676,22.956,37.585,51.283c-6.972,16.324-12.806,29.465-14.923,47.464
			c-3.951,33.46-17.962,66.083-26.449,98.61c-15.813,60.596-33.122,120.903-61.813,177.312
			c-36.527,71.806-79.758,167.181-73.471,259.955c4.081,60.099,20.837,131.396-17.001,184.459
			c-25.815,36.209-67.124,61.56-107.74,77.288c-37.651,14.587-79.392,46.523-120.163,52.355
			c-19.885,2.848-47.564-9.996-58.311-27.541c-17.082-27.904-2.272-108.75,1.141-141.863
			c6.346-61.637,21.059-121.764,39.452-180.829c17.147-55.026,45.187-111.731,46.61-170.021c0.873-35.74-4.976-71.461-1.881-107.193
			c6.574-75.908,28.82-144.824,71.832-207.963C4575.871,4250.26,4641.031,4209.273,4709.499,4192.811z" style="stroke:black;fill:#54bf94"/><path id="180611272" parent_id="180611262" order="59" structure_id="159" d="M5407.04,5033.107
			c-69.28-203.476-347.3,26.012-403.401,135.058c-51.278,99.672-33.953,222.231,10.42,259.87
			c58.285,49.447,154.44,18.316,218.713-8.381C5380.012,5358.493,5459.99,5188.588,5407.04,5033.107z" style="stroke:black;fill:#54bf94"/><path id="180611274" parent_id="180611262" order="60" structure_id="191" d="M4709.499,4192.811
			c38.792-9.34,78.651-10.793,114.966-2.225c24.111,5.693,49.676,22.956,37.585,51.283c-6.972,16.324-12.806,29.465-14.923,47.464
			c-3.951,33.46-17.962,66.083-26.449,98.61c-15.813,60.596-33.122,120.903-61.813,177.312
			c-36.527,71.806-79.758,167.181-73.471,259.955c4.081,60.099,20.837,131.396-17.001,184.459
			c-25.815,36.209-67.124,61.56-107.74,77.288c-37.651,14.587-79.392,46.523-120.163,52.355
			c-19.885,2.848-47.564-9.996-58.311-27.541c-17.082-27.904-2.272-108.75,1.141-141.863
			c6.346-61.637,21.059-121.764,39.452-180.829c17.147-55.026,45.187-111.731,46.61-170.021c0.873-35.74-4.976-71.461-1.881-107.193
			c6.574-75.908,28.82-144.824,71.832-207.963C4575.871,4250.26,4641.031,4209.273,4709.499,4192.811z" style="stroke:black;fill:#54bf94"/><path id="180611273" parent_id="180611262" order="61" structure_id="199" d="M5407.04,5033.107
			c-69.28-203.476-347.3,26.012-403.401,135.058c-51.278,99.672-33.953,222.231,10.42,259.87
			c58.285,49.447,154.44,18.316,218.713-8.381C5380.012,5358.493,5459.99,5188.588,5407.04,5033.107z" style="stroke:black;fill:#54bf94"/><path id="180611280" parent_id="180611262" order="62" structure_id="1034" d="M4240.085,4379.85
			c-18.172-77.97-68.446-141.039-74.58-223.967c-6.813-91.33,4.746-190.736,20.213-282.021c-9.144,2.67-18.255,5.438-27.325,8.329
			c-9.63,3.067-86.129,23.746-86.732,32.101c-3.104,43.263-8.162,114.483-9.398,162.606c-1.898,73.627-4.84,147.202-6.191,220.854
			c-1.237,67.22,4.293,122.897,7.063,190.018c65.671-18.639,120.819-32.471,180.426-56.283
			C4244.904,4414.701,4244.225,4397.593,4240.085,4379.85z" style="stroke:black;fill:#62d09f"/><path id="180611279" parent_id="180611262" order="63" structure_id="1042" d="M4327.215,4053.738
			c3.782-73.467,4.628-145.039,20.018-214.822c-54.592,7.775-108.627,19.5-161.515,34.945
			c-15.467,91.283-27.026,190.69-20.213,282.021c6.134,82.929,56.408,145.998,74.58,223.967c4.14,17.744,4.819,34.853,3.474,51.638
			c35.279-14.094,72.123-31.685,113.635-55.84c-1.256-27.016-7.5-53.289-8.842-81.897
			C4344.468,4211.012,4322.825,4139.002,4327.215,4053.738z" style="stroke:black;fill:#62d09f"/><path id="180611278" parent_id="180611262" order="64" structure_id="1050" d="M4844.473,3924.591
			c-30.313-15.771-63.304-28.003-92.58-45.582c-59.313-35.61-127.918-47.002-196.401-50.2
			c-69.513-3.246-139.328,0.289-208.258,10.107c-15.39,69.783-16.235,141.355-20.019,214.822
			c-4.39,85.264,17.254,157.273,21.137,240.01c1.342,28.607,7.586,54.883,8.842,81.898c1.573-0.916,3.15-1.838,4.736-2.771
			c78.563-46.258,145.963-106.188,223.14-153.732c84.188-51.869,210.603-116.582,297.308-32.502
			c16.554-29.1,13.066-74.098,10.785-101.026c-2.469-29.062,4.188-83.652,49.92-79.185
			C4910.984,3979.885,4881.203,3943.686,4844.473,3924.591z" style="stroke:black;fill:#62d09f"/><path id="180611283" parent_id="180611262" order="65" structure_id="1067" d="M4214.604,4586.227
			c1.049-41.184,14.683-78.989,23.07-117.304c-11.604,4.373-23.514,8.616-35.814,12.839
			c-56.045,19.249-137.709,39.419-137.709,39.419s1.123,17.345,4.586,54.749c7.268,78.516,16.943,162.766,25.604,220.484
			c3.201,21.293,47.882,16.146,83,16.717c11.496,0.187,23.353,0.139,35.36-0.293
			C4211.422,4737.594,4212.758,4662.198,4214.604,4586.227z" style="stroke:black;fill:#62d09f"/><path id="180611282" parent_id="180611262" order="66" structure_id="1075" d="M4214.604,4586.227
			c-1.846,75.973-3.182,151.367-1.902,226.612c22.604-0.812,45.748-2.992,68.079-7.573c1.153-14.799,3.153-28.915,4.551-39.152
			c10.293-75.475,12.884-153.873,28.86-228.197c8.804-40.947,29.953-78.057,39.453-118.79c0.65-2.794,1.203-5.563,1.67-8.315
			c-37.551,24.662-75.559,42.256-117.641,58.113C4229.285,4507.236,4215.65,4545.043,4214.604,4586.227z" style="stroke:black;fill:#62d09f"/><path id="180611281" parent_id="180611262" order="67" structure_id="1082" d="M4314.191,4537.915
			c-15.979,74.324-18.568,152.724-28.861,228.198c-1.396,10.236-3.396,24.354-4.551,39.152
			c55.16-11.315,105.332-37.278,129.963-93.478c21.366-48.763,31.134-66.183,31.59-122.729c0.342-41.689-10.027-85.82,1.688-126.719
			c6.68-23.293,37.568-59.738,16.438-82.747c-0.18-0.192-0.285-0.31-0.398-0.44c-15.764-17.321-62.064,0.705-76.524,11.694
			c-9.416,7.157-18.804,13.776-28.22,19.961c-0.467,2.751-1.02,5.521-1.67,8.315
			C4344.145,4459.859,4322.994,4496.968,4314.191,4537.915z" style="stroke:black;fill:#62d09f"/><path id="180611345" parent_id="180611262" order="68" structure_id="496" d="M4246.909,3589.922
			c0.356,84.296-36.748,164.989-54.385,247.073c-2.47,0.67-4.854,1.346-7.247,2.104c-38.57,11.621-74.619,21.824-110.784,39.963
			l-0.166-0.013c6.359-102.153,13.763-203.651,21.143-303.563l0.083,0.006C4145.988,3577.626,4196.559,3582.778,4246.909,3589.922z" style="stroke:black;fill:#a4daa4"/><path id="180611344" parent_id="180611262" order="69" structure_id="360" d="M4481.001,3632.23
			c-16.456,52.065-56.14,117.621-83.964,167.168c-40.963,3.687-81.814,9.471-122.32,17.534
			c-27.707,5.496-55.153,12.097-82.191,20.063c17.637-82.084,54.742-162.777,54.385-247.073
			c51.262,7.289,102.216,16.646,152.449,26.793C4424.432,3621.826,4452.021,3626.773,4481.001,3632.23z" style="stroke:black;fill:#a4daa4"/><path id="180611343" parent_id="180611262" order="70" structure_id="646" d="M4709.424,3691.716l-0.294,0.648
			c-13.771,39.456-53.242,70.747-60.622,114.646c-19.939-4.35-39.803-7.354-59.268-8.83c-64.053-4.804-128.285-4.437-192.203,1.221
			c27.824-49.549,67.508-115.104,83.963-167.17c29.063,5.465,59.433,11.351,89.902,18.246
			c46.205,10.377,92.509,23.018,134.691,39.729C4706.898,3690.71,4708.12,3691.21,4709.424,3691.716z" style="stroke:black;fill:#a4daa4"/><path id="180611342" parent_id="180611262" order="71" structure_id="267" d="M4856.646,3797.58
			c20.379,23.941,38.645,49.497,56.748,74.958c16.873,23.873,43.758,65.476,64.762,85.11c-0.316-0.271-1.275-0.922-2.879-1.949
			c-23.191-15.688-177.014-116.645-326.77-148.689c7.379-43.897,46.853-75.188,60.621-114.646l0.295-0.647
			c40.613,16.438,77.203,36.787,105.812,62.702C4830.127,3767.959,4843.786,3782.421,4856.646,3797.58z" style="stroke:black;fill:#a4daa4"/><path id="180611286" parent_id="180611262" order="72" structure_id="276" d="M6901.637,4530.842
			c-0.715-7.873-3.797-18.484,2.41-24.988c-19.848-10.481-43.303-8.724-64.945-11.125c-6.146-0.682-12.255-1.731-18.372-2.638
			c-6.538-0.968-13.08-1.916-19.629-2.813c-13.095-1.791-26.22-3.381-39.388-4.521c-23.791-2.062-47.506-4.528-71.107-8.215
			c-22.268-3.478-44.391-7.878-66.271-13.28c-21.699-5.358-43.151-11.701-64.305-18.926c-21.988-7.51-43.648-15.965-65.004-25.121
			c-22.165-9.502-43.934-19.842-65.516-30.595c-21.949-10.935-43.768-22.136-65.899-32.696
			c-21.944-10.472-44.214-20.347-67.129-28.513c-11.169-3.979-22.49-7.549-33.97-10.53c-12.153-3.158-24.502-5.551-36.806-8.043
			c-25.558-5.174-51.203-9.89-76.883-14.412c-6.952-1.225-13.907-2.433-20.865-3.623c8.33,4.842,17.12,8.851,26.004,12.56
			c10.744,4.485,21.655,8.563,32.539,12.699c24.394,9.271,48.507,19.224,72.431,29.646c22.987,10.018,45.877,20.283,68.522,31.051
			c22.004,10.463,43.778,21.418,65.167,33.09c21.371,11.666,42.357,24.049,62.747,37.358c10.187,6.647,20.22,13.526,30.071,20.655
			c8.891,6.434,17.758,12.955,26.025,20.181c15.418,13.478,29.045,28.938,41.365,45.265c12.996,17.222,24.575,35.498,35.031,54.361
			c10.242,18.479,19.418,37.552,27.521,57.061c7.08,17.045,13.519,34.385,17.726,52.383c3.848,16.459,6.026,33.33,6.201,50.238
			c0.164,16.113-1.502,32.279-5.383,47.934c-3.729,15.039-9.525,29.59-17.551,42.861c-8.037,13.287-18.289,25.188-30.31,35.025
			c-12.983,10.627-27.885,18.744-43.649,24.426c-8.981,3.234-18.215,5.646-27.578,7.486c-12.668,2.488-25.465,4.292-38.303,5.641
			c-25.703,2.695-51.549,3.569-77.359,4.576c-25.248,0.983-50.563,2.017-75.652,5.174c-20.438,2.572-40.699,6.67-60.389,12.766
			c-18.357,5.684-36.139,13.109-53.168,22.01c-17.699,9.251-34.561,20.025-50.816,31.609c-8.838,6.295-17.502,12.83-26.049,19.515
			c-8.551,6.687-17.069,13.321-26.039,19.444c-18.154,12.394-37.141,23.508-55.42,35.709c-8.99,6.002-17.818,12.265-26.209,19.084
			c-8.252,6.709-15.78,14.047-23.004,21.84c-15.215,16.416-30.223,33.025-45.295,49.574c-15.076,16.553-30.219,33.049-45.696,49.227
			c-15.419,16.117-31.174,31.922-47.507,47.113c-16.271,15.138-33.123,29.666-50.727,43.236
			c-17.676,13.627-36.112,26.279-55.354,37.596c-10.131,5.957-20.458,11.582-31.12,16.531c-10.92,5.069-22.132,9.498-33.521,13.396
			c-21.44,7.339-43.527,13.1-65.764,17.46c-19.855,3.896-39.813,7.388-59.348,12.737c11.022,4.724,21.527,10.687,31.734,16.939
			c10.988,6.732,21.872,13.639,32.686,20.65c21.629,14.023,42.979,28.473,64.375,42.846c10.699,7.186,21.41,14.354,32.174,21.438
			c9.815,6.463,19.635,12.867,29.043,19.92c17.746,13.308,34.291,28.17,49.729,44.09c15.334,15.813,29.58,32.655,43.059,50.069
			c13.545,17.499,26.322,35.577,38.746,53.883c6.233,9.185,12.379,18.429,18.492,27.692c3.058,4.635,6.105,9.274,9.152,13.916
			c0.21,0.318,0.902,1.719,1.398,1.813c1.246-1.18,2.492-2.359,3.735-3.541c2.396-2.273,4.79-4.55,7.185-6.827
			c19.047-18.119,38.004-36.333,56.936-54.574c18.984-18.293,37.855-36.707,56.711-55.133
			c18.934-18.501,37.831-37.037,56.719-55.584c9.152-8.985,18.317-17.938,27.855-26.519c4.505-4.051,9.098-8.004,13.725-11.912
			c1.095-0.924,2.192-1.84,3.295-2.75c0.326-0.27,2.51-1.735,2.472-2.074c-0.045-0.396-0.09-0.795-0.136-1.193
			c-1.182-10.42-2.362-20.84-3.545-31.26c-0.061-0.537-0.112-0.822-0.334-1.33c-1.047-2.396-1.77-4.927-2.262-7.492
			c-1.035-5.398-1.1-10.995-0.439-16.443c1.285-10.641,5.121-21.153,9.816-30.732c9.561-19.5,23.984-36.195,39.492-51.206
			c9.035-8.745,18.346-17.222,27.602-25.729c8.988-8.265,18.023-16.478,27.105-24.637c16.337-14.678,32.829-29.184,49.468-43.518
			c14.247-12.272,28.604-24.42,43.046-36.463c12.122-10.107,24.307-20.142,36.504-30.155c10.529-8.644,20.982-17.385,31.552-25.979
			c17.417-14.166,35.956-26.975,55.362-38.26c17.617-10.246,35.998-19.309,55.115-26.41c15.449-5.74,31.608-10.43,48.086-11.875
			c6.408-0.563,12.914-0.613,19.287,0.352c2.739,0.415,5.453,1.023,8.084,1.896c1.225,0.404,2.431,0.867,3.606,1.395
			c0.595,0.268,1.604,1.053,2.237,1.055c9.978,0.015,19.953,0.029,29.932,0.045c4.878,0.006,9.757,0.015,14.637,0.021
			c0.465,0,0.93,0.001,1.395,0.002c0.07,0,0.143,0,0.214,0c0.16,0,0.759-0.945,0.876-1.092c0.572-0.721,1.146-1.439,1.718-2.159
			c4.084-5.138,8.159-10.28,12.228-15.429c15.615-19.762,30.521-40.058,44.953-60.695c14.154-20.242,27.898-40.766,41.719-61.238
			c7.081-10.49,14.184-20.967,21.361-31.392c7.299-10.601,14.256-21.368,20.92-32.38c13.176-21.771,26.578-43.377,38.676-65.777
			c12.037-22.283,22.987-45.108,32.848-68.438c9.874-23.365,19.048-47.078,26.279-71.407c3.578-12.033,6.674-24.22,9.041-36.551
			c2.461-12.815,4.763-25.675,6.432-38.622c1.482-11.499,2.457-23.077,2.529-34.676
			C6902.795,4554.236,6902.697,4542.451,6901.637,4530.842C6900.943,4523.209,6902.549,4540.828,6901.637,4530.842z" style="stroke:black;fill:#6acbba"/><path id="180611285" parent_id="180611262" order="73" structure_id="284" d="M5639.795,5374.002
			c36.188-8.326,70.449-18.719,103.329-36.496c106.054-57.35,181.853-151.854,262.956-238.984
			c32.291-34.686,82.648-56.867,120.341-86.877c67.776-53.947,122.306-83.668,207.425-92.345
			c60.915-6.202,123.014-2.422,183.279-14.674c115.022-23.384,143.668-135.94,107.492-236.124
			c-23.862-66.088-68.297-146.613-123.664-189.085c-64.306-49.324-137.197-86.819-210.91-119.927
			c-32.703-14.686-65.61-28.977-99.117-41.746c-26.41-10.064-46.502-17.371-62.967-26.941
			c-51.715-8.865-103.549-17.074-155.197-26.404c-7.045-1.271-14.127-2.589-21.236-3.882c1.09,0.198,2.181,0.397,3.271,0.597
			c5.603,45.433,23.933,91.153,47.916,127.922c17.967,27.543,39.087,41.383,63.651,61.203
			c26.467,21.356,43.813,54.209,70.316,77.739c40.251,35.737,99.458,38.019,148.404,53.78
			c36.832,11.863,55.283,24.476,69.955,60.521c7.441,18.283,15.758,53.971-3.076,69.223c-17.074,13.828-44.256-5.342-64.267-7.483
			c-46.726-5.026-94.33-8.069-140.25-17.533c-104.328-21.51-120.099,43.72-186,99.136
			c-76.851,64.619-179.955,104.959-239.479,188.41c-22.353,31.352-37.97,74.022-64.248,101.271
			c-23.633,24.521-49.707,30.494-80.305,43.016c-88.508,36.217-85.742,143.336-96.186,228.783c-1.02-0.61-2.03-1.227-3.035-1.846
			c28.771,17.732,63.311,31.691,89.942,44.085c-0.013-0.006-0.024-0.013-0.039-0.019
			C5594.133,5382.191,5622.648,5377.947,5639.795,5374.002z" style="stroke:black;fill:#6acbba"/><path id="180611284" parent_id="180611262" order="74" structure_id="291" d="M5577.416,5118.316
			c18.98-7.769,38.939-13.688,56.645-24.258c9.117-5.442,17.431-12.115,24.703-19.853c7.119-7.573,13.25-16.024,18.856-24.76
			c11.747-18.301,21.259-37.903,32.29-56.626c10.504-17.829,23.014-34.213,37.256-49.223c14.037-14.795,29.484-28.19,45.617-40.646
			c16.327-12.604,33.359-24.265,50.586-35.597c17.311-11.389,34.833-22.449,52.148-33.83c17.129-11.258,34.071-22.83,50.311-35.35
			c14.75-11.371,28.641-23.615,41.576-37.02c11.049-11.447,21.458-23.49,32.463-34.979c9.881-10.313,20.374-20.223,32.479-27.9
			c12.44-7.891,26.36-12.957,40.961-14.928c8.711-1.175,17.541-1.32,26.307-0.758c10.811,0.693,21.382,2.634,31.99,4.729
			c25.336,5.002,51,8.112,76.674,10.761c12.872,1.328,25.755,2.538,38.633,3.808c10.874,1.07,21.945,1.53,32.453,4.729
			c9.121,2.775,17.955,6.549,27.287,8.609c8.247,1.822,17.359,2.149,24.486-3.088c13.875-10.199,13.564-30.432,10.879-45.646
			c-1.379-7.818-3.563-15.525-6.459-22.919c-3.207-8.188-7.08-16.203-11.953-23.537c-4.222-6.354-9.27-12.14-15.146-17.017
			c-5.938-4.928-12.611-8.877-19.578-12.162c-17.359-8.187-36.206-13.094-54.82-17.473c-20.151-4.741-40.51-8.79-60.263-15.07
			c-19.392-6.166-38.28-14.656-54.058-27.717c-17.152-14.199-30.248-32.523-44.155-49.724c-6.858-8.483-13.967-16.813-21.937-24.284
			c-7.912-7.417-16.752-13.834-25.252-20.553c-8.074-6.381-16.054-12.904-23.436-20.086c-7.775-7.566-14.811-15.86-20.881-24.856
			c-13.087-19.396-23.732-40.606-32.091-62.438c-4.286-11.196-7.946-22.635-10.894-34.258c-1.467-5.785-2.756-11.615-3.85-17.482
			c-0.543-2.917-1.039-5.844-1.484-8.777c-0.213-1.403-0.414-2.81-0.604-4.217c-0.096-0.701-0.188-1.404-0.273-2.107
			c-0.063-0.486,0.08-0.672-0.451-0.77c-0.484-0.088-0.97-0.176-1.453-0.266c-24.023-4.385-48.18-8.512-72.603-9.768
			c-12.117-0.625-24.306-0.537-36.386,0.648c-9.239,0.907-18.377,2.949-27.072,6.213c-16.948,6.359-31.925,17.434-42.602,32.089
			c-5.395,7.403-9.93,15.763-12.832,24.47c-1.615,4.847-3.23,9.692-4.848,14.539c-0.32,0.963-0.641,1.924-0.961,2.885
			c-0.395,1.185,0.195,2.521,0.455,3.705c1.072,4.896,2.514,9.709,4.352,14.371c3.311,8.392,7.924,16.185,13.396,23.344
			c10.746,14.063,24.31,25.627,36.011,38.848c6.778,7.658,12.668,15.883,18.074,24.558c6.189,9.929,11.867,20.179,16.965,30.71
			c10.176,21.021,18.03,43.184,23.015,66.01c3.784,17.33,5.996,34.969,5.354,52.727c-0.535,14.783-2.908,29.475-6.897,43.715
			c-4.008,14.309-9.623,28.139-16.408,41.35c-7.022,13.676-15.289,26.693-24.371,39.091c-9.479,12.938-19.853,25.213-30.789,36.94
			c-11.347,12.168-23.31,23.754-35.657,34.899c-12.635,11.403-25.68,22.349-38.979,32.967
			c-13.361,10.669-26.983,21.008-40.754,31.144c-13.545,9.967-27.235,19.735-40.98,29.426c-13.199,9.304-26.45,18.531-39.662,27.817
			c-12.336,8.671-24.643,17.39-36.794,26.317c-10.976,8.065-21.836,16.301-32.379,24.928c-7.024,5.748-14.28,11.115-21.776,16.235
			c-7.571,5.174-15.256,10.192-22.611,15.676c-7.154,5.333-14.007,11.138-19.909,17.854c-6.153,7.002-11.146,14.959-14.621,23.617
			c-8.797,21.918-7.635,46.069-5.084,69.082c1.327,11.971,3.058,23.896,4.142,35.892c1.026,11.38,1.582,22.905-0.023,34.258
			c-3.113,21.987-12.561,42.36-19.456,63.292c-3.421,10.379-6.276,21.018-7.349,31.921c-0.563,5.706-0.666,11.465,0.179,17.149
			c0.827,5.566,2.479,11.037,4.841,16.146c4.885,10.568,12.372,19.661,20.843,27.563c8.925,8.324,18.979,15.521,29.399,21.849
			c1.008,0.621,2.02,1.235,3.035,1.845c2.068-16.931,3.556-33.926,5.287-50.893c1.767-17.311,3.754-34.617,6.793-51.757
			c2.931-16.53,6.832-32.962,12.72-48.706c5.588-14.941,13.042-29.273,23.065-41.738c10.307-12.816,23.221-23.311,37.832-30.854
			C5570.35,5121.384,5573.852,5119.773,5577.416,5118.316C5608.014,5105.796,5488.908,5154.533,5577.416,5118.316z" style="stroke:black;fill:#6acbba"/><path id="180611269" parent_id="180611262" order="75" structure_id="952" d="M5072.139,4155.657c2.307,20.661,27.647,47.241,50.1,65.864
			c30.182,25.041,45.064,64.91,49.919,102.836c2.248,17.609,10.964,77.121-0.854,91.795c0,0,22.125-27.479,30.043-34.449
			c27.207-23.949,69.976-53.522,105.851-28.733c74.724,51.63,16.675,179.376-10.672,241.528
			c-18.622,42.338-29.569,86.1-36.747,131.615c-6.542,41.508-11.632,83.271-19.875,124.504c-1.55,7.727-9.313,66.658-18.885,69.696
			c59.662-18.929,124.768-4.487,177.896,25.664c11.389,6.465,23.795,12.7,37.162,13.3c21.229,0.947,44.853-18.919,61.104-30.753
			c65.355-47.562,132.186-93.324,194.104-145.377c53.699-45.134,116.547-97.989,138.584-167.246
			c17.93-56.347-9.102-116.399-41.304-162.167c-40.884-58.085-98.306-82.417-157.161-117.471
			c-71.172-42.383-136.252-91.562-210.145-129.606c-55.965-28.819-117.76-48.257-178.547-63.959
			c-41.22-10.646-87.84-22.151-130.541-17.231C5080.66,4129.093,5070.493,4140.859,5072.139,4155.657z" style="stroke:black;fill:#a0ee9d"/><path id="180611268" parent_id="180611262" order="76" structure_id="56" d="M5077.727,4863.811c2.746-33.5,22.776-113.979,37.97-191.826
			c8.742-44.832,2.119-143.496,33.302-215.826l-7.788-128.164c-8.634-39.377-106.272-201.183-154.856-169.056
			c-22.898,15.144-48.389,33.185-65.805,54.587c-57.512,70.695-66.938,171.551-88.083,257.064
			c-16.797,67.975-49.504,128.033-82.112,189.451c-30.229,56.933-50.931,110.31-32.121,177.601
			c10.56,37.765,14.565,80.168,7.129,119.595c-6.543,34.697-23.15,67.742-50.303,90.854c-30.857,26.275-75.05,40.602-109.45,59.729
			c-39.069,21.725-100.955,52.166-102.511,103.938c-1.541,51.577,0.586,130.988,31.117,175.096
			c46.336,66.906,132.943,54.525,195.646,91.02c39.744,23.131,82.397,48.143,125.815,63.575
			c39.469,14.032,87.758,24.838,129.588,26.976c31.908,1.639,81.226-2.603,106.348-24.682c35.053-30.785-12.26-77.453-38.784-92.828
			c-25.862-14.988-47.196-32.678-56.713-62.602c-27.892-87.682-6.313-192.238,43.892-267.75
			c23.389-35.178,64.185-66.4,74.162-108.74L5077.727,4863.811z" style="stroke:black;fill:#80cdf8"/><path id="180611277" parent_id="180611262" order="77" structure_id="458" d="M5829.994,5640.216
			c-10.959-13.038-21.986-25.864-33.27-38.385c-3.519,13.54-5.727,26.147-6.953,39.588c2.57,8.537,2.496,17.543-1.248,27.005
			c-0.011,1.35-0.023,2.693-0.023,4.076c0-1.383,0.014-2.727,0.023-4.076c-3.021,7.635-8.429,15.566-16.765,23.788
			c-28.017,27.632-61.552,26.804-95.911,38.837c-34.247,11.994-72.258,18.887-106.037,32.979
			c-102.764,42.859-196.857,110.806-294.188,164.391c-78.74,43.346-166.246,42.555-247.127,78.997
			c-82.398,37.117-112.498,38.419-200.19-3.53c-59.409-28.432-146.646-32.492-198.554-66.791
			c-74.274-49.066-121.205-128.942-184.483-189.77c-87.978-84.585-98.209-237.484-80.972-359
			c3.301-23.215,7.735-55.662,3.668-78.553c-2.455-13.821-9.522-25.994-15.145-38.709c-12.045-27.246-25.652-54.685-43.354-78.512
			c-4.83-6.502-9.123-13.561-14.008-19.968c-0.828-1.087-1.78-2.416-2.797-3.845c-18.74,4.621-36.539,9.512-48.697,13.932
			c-8.703,3.158-59.414,13.686-68.644,21.268c-0.972,0.797-1.481,1.563-1.438,2.283c4.578,73.537-18.571,149.186-1.44,221.717
			c56.763,240.33,156.403,459.75,310.414,637.422c109.581,126.424,301.951,164.002,480.024,166.01
			c174.692,1.967,340.06-63.598,487.617-152.571c83.586-50.41,162.578-110.501,238.533-171.71
			c71.092-57.283,134.604-116.252,201.379-177.896C5868.729,5701.063,5852.859,5667.402,5829.994,5640.216z" style="stroke:black;fill:#80cdf8"/><path id="180611275" parent_id="180611262" order="78" structure_id="465" d="M4309.468,5192.551
			c17.7,23.827,31.31,51.266,43.354,78.512c5.621,12.715,12.688,24.888,15.145,38.709c4.066,22.891-0.368,55.338-3.669,78.553
			c-17.237,121.516-7.006,274.415,80.972,359c63.278,60.826,110.209,140.702,184.484,189.77
			c51.906,34.299,139.145,38.359,198.553,66.791c87.692,41.949,117.793,40.647,200.19,3.53
			c80.882-36.442,168.388-35.651,247.127-78.997c97.33-53.585,191.426-121.529,294.188-164.391
			c33.778-14.092,71.789-20.983,106.037-32.979c34.358-12.033,67.896-11.205,95.91-38.837c8.336-8.222,13.744-16.153,16.766-23.788
			c0.082-9.645,0.471-18.501,1.247-27.005c-11.028-36.617-70.735-64.604-98.383-82.935
			c-46.455-30.801-69.563-79.584-111.752-113.316c-12.867-10.288-27.13-14.018-42.674-16.87
			c-27.881-5.118-50.122,0.653-41.454,33.08c8.546,31.97,37.338,52.394,63.303,69.897c15.566,10.494,31.315,21.416,46.528,32.599
			c23.543,17.306,45.345,33.315,36.524,62.864c-8.03,26.916-24.358,46.846-48.414,61.279
			c-49.69,29.818-105.275,47.725-160.211,64.623c-123.518,37.995-246.979,79.468-375.123,99.427
			c-114.863,17.89-220.092,36.589-324.531-26.416c-69.937-42.19-133.021-88.002-186.246-151.396
			c-63.238-75.317-88.094-160.248-101.565-255.938c-9.646-68.516-7.013-137.493-9.819-206.268
			c-8.213-32.861-24.227-60.357-56.006-62.053c-1.41-0.073-46.567,8.698-87.283,18.738c1.016,1.429,1.969,2.758,2.797,3.845
			C4300.346,5178.99,4304.639,5186.049,4309.468,5192.551z" style="stroke:black;fill:#80cdf8"/><path id="180611276" parent_id="180611262" order="79" structure_id="473" d="M4547.34,5674.258
			c53.227,63.393,116.311,109.204,186.245,151.395c104.438,63.006,209.668,44.307,324.532,26.416
			c128.143-19.959,251.605-61.432,375.123-99.427c54.936-16.897,110.52-34.806,160.211-64.623
			c24.055-14.435,40.383-34.364,48.414-61.28c8.818-29.549-12.982-45.56-36.525-62.863c-15.213-11.182-30.961-22.104-46.527-32.6
			c-25.965-17.504-54.757-37.929-63.303-69.896c-8.668-32.426,13.572-38.198,41.453-33.08c15.545,2.854,29.808,6.582,42.674,16.87
			c42.188,33.731,65.297,82.517,111.752,113.315c27.647,18.332,87.354,46.317,98.383,82.936c1.229-13.439,3.437-26.048,6.955-39.588
			c-25.142-27.898-51.549-54.273-81.301-78.055c-91.055-72.77-309.736-249.586-414.047-111.295
			c-18.817,24.951,14.492,56.057,33.66,66.471c47.066,25.566,95.967,31.839,140.404,65.689
			c62.27,47.479,53.643,155.381-23.273,182.83c-74.293,26.519-155.793,18.299-232.604,10.635
			c-89.175-8.903-179.639-11.504-267.402,9.416c-180.248,42.963-335.781-39.666-438.039-186.063
			c-51.939-74.365-66.596-163.744-68.934-252.209c-0.6-22.771-0.67-62.904-9.238-97.198c2.81,68.772,0.174,137.751,9.82,206.267
			C4459.246,5514.009,4484.102,5598.939,4547.34,5674.258z" style="stroke:black;fill:#80cdf8"/><path id="180611270" parent_id="180611262" order="80" structure_id="258" d="M4210.616,4835.287
			c24.748,0.262,65.942-5.923,89.935-11.971c23.248-5.857,52.094-31.836,77.713-25.705c15.975,29.836-3.689,74.104-8.057,104.967
			c-9.58,67.74-18.55,136.812-15.331,205.33c1.229,26.203-176.95,82.875-187.571,54.285
			c-10.623-28.588-32.176-71.777-41.463-108.676c-17.482-69.461-16.099-139.735-26.531-206.61
			C4094.454,4815.77,4142.336,4834.546,4210.616,4835.287z" style="stroke:black;fill:#90cbed"/><path id="180611267" parent_id="180611262" order="81" structure_id="342" d="M5477.7,5599.221c15.99,31.24,23.623,60.875-35.534,90.074
			c-96.799,47.766-258.613,0.42-364.259,6.771c-82.667,4.973-167.103,33.816-250.036,28.828
			c-131.17-7.877-244.409-94.82-304.926-204.441c-29.48-53.396,32.186-61.19,69.689-56.916
			c58.742,6.696,97.858,45.321,145.645,74.524c85.191,52.054,216.182,78.617,320.785,39.306
			c47.174-17.734,60.452-49.426,97.508-64.412c37.839-15.285,93.338-13.681,133.066-9.864
			C5353.7,5509.247,5445.945,5537.12,5477.7,5599.221z" style="stroke:black;fill:#a2b1d8"/><path id="180611347" parent_id="180611262" order="82" structure_id="1009" d="M5292.927,4345.977
			c89.733,33.197,34.993,182.265,1.083,253.976c-28.646,60.528-39.919,158.673-54.671,253.826
			c-3.651,23.247-9.935,47.069-18.433,66.563c-9.729,22.84-22.486,39.789-36.971,42.578
			c-75.805,14.557-112.184-26.345-106.21-99.097c2.753-33.507,22.79-114.009,37.966-191.827
			c8.777-44.809,2.113-143.488,33.307-215.801c6.231-14.379,13.824-27.831,22.336-40.05c0.373-0.562,0.834-1.198,1.205-1.759
			C5209.004,4363.163,5261.275,4334.234,5292.927,4345.977z" style="stroke:black;fill:#cccccc"/><path id="180611348" parent_id="180611262" order="83" structure_id="1009" d="M6611.611,5116.65
			c4.561-67.89-118.371-32.354-209.869,43.707c-43.459,36.131-113.427,91.309-207.619,179.64
			c-23.812,22.325-46.123,48.804-52.812,81.551c-3.771,18.483,1.205,45.508,25.604,39.104c23.215-6.105,41.771-22.674,62.276-34.123
			c22.661-12.66,45.021-25.186,67.808-37.899c48.242-26.942,98.145-55.101,141.416-89.944c16.104-12.977,32.381-27.026,47.793-40.51
			c28.896-25.266,55.5-54.957,82.121-83.053c11.354-11.977,22.949-25.57,33.334-38.413
			C6605.607,5131.827,6611.154,5123.493,6611.611,5116.65z" style="stroke:black;fill:#cccccc"/><path id="180611346" parent_id="180611262" order="84" structure_id="81" d="M4865.064,4327.008
			c21.563-75.592,52.201-122.357,116.994-166.027c44.258-29.83,87.896-47.598,51.518-104.147
			c-21.49-33.397-89.282-70.308-123.691-37.943c-27.533,25.9-12.057,92.511-15.592,126.048
			c-4.619,43.72-45.006,115.571-47.662,145.302C4838.264,4383.729,4865.064,4327.008,4865.064,4327.008z" style="stroke:black;fill:#aaaaaa"/></g>
</g>
</svg>