<svg width="7104" height="5872" xmlns="http://www.w3.org/2000/svg">
<g transform="scale(1.0)">
<g id="180610550" order="1" parent_id="" graphic_group_label_id="28" graphic_group_label="Atlas - Adult Mouse" sub_image_id="100960404" transform=" scale(1.0, 1.0)"><path id="180610552" parent_id="180610550" order="0" structure_id="8" d="M3741.653,3421.493
			c-125.503-109.304-108.552-309.71-101.675-459.437c16.107-350.813,31.021-721.639,49.733-1083.06
			c11.255-217.5,4.019-416.254,67.718-563.271c50.617-116.814,149.813-216.414,233.832-322.676
			c306.575-387.688,1029.04-191.506,1378.598-37.133c608.01,268.514,996.646,802.964,1084.543,1354.154
			c51.989,326.033-52.845,753.092-243.763,1115.987c-77.144,146.63-177.543,268.871-272.649,347.396
			c-67.85,56.023-174.801,23.68-486.979-164.655c-240.266-144.957-530.391-313.014-522.001-298.093
			c9.672,17.183,197.835,105.854,405.949,227.895c116.147,68.108,262.754,156.452,374.915,220.193
			c174.745,99.303,136.467,171.005,136.665,183.446c3.472,209.52-85.165,352.966-216.528,522.953
			c-167.117,216.242-328.223,403.435-561.67,565.701c-296.924,206.383-768.047,350.754-1098.17,97.444
			c-125.354-96.179-253.707-236.331-289.012-389.929c-49.474-215.297-9.547-399.42-0.447-658.479
			c4.646-132.131-1.362-262.938,5.862-370.805c6.649-99.23,27.771-178.913,35.414-224.368
			C3724.504,3469.864,3741.653,3421.493,3741.653,3421.493z" style="stroke:black;fill:#bfdae3"/><path id="180610553" parent_id="180610550" order="1" structure_id="688" d="M6454.402,2310.1
			c-87.894-551.198-476.533-1085.659-1084.539-1354.177c-349.562-154.377-1072.028-350.564-1378.607,37.127
			c-84.023,106.268-183.216,205.866-233.835,322.683c-63.707,147.015-57.147,345.738-67.716,563.274
			c-17.18,353.555-34.141,732.724-49.743,1083.075c-6.664,149.735-23.826,350.136,101.676,459.443c0,0-17.147,48.366-19.662,63.271
			c-7.644,45.457-28.768,125.142-35.414,224.371c-7.227,107.871-1.217,238.679-5.862,370.813
			c-9.104,259.058-49.032,443.185,0.44,658.48c35.307,153.604,163.66,293.758,289.017,389.938
			c330.121,253.313,801.248,108.94,1098.175-97.441c233.442-162.27,394.556-349.463,561.667-565.71
			c131.365-169.989,220.009-313.437,216.539-522.959c-0.204-12.44,38.076-84.142-136.663-183.45
			c-32.312-18.361-67.487-38.77-103.964-60.143c195.966,107.501,276.936,120.339,332.08,74.808
			c95.104-78.526,195.505-200.768,272.65-347.401C6401.557,3063.198,6506.393,2636.136,6454.402,2310.1z M4564.988,4014.915
			c-9.097,27.334-23.045,52.248-37.953,76.604c1.455-4.41,1.237-8.908-2.015-14.123c-4.954-7.943-20.662-10.702-27.151-18.536
			c-0.008-0.009-0.015-0.017-0.021-0.024c-10.896-13.223-18.859-29.141-25.582-44.804c-10.947-25.513-25.42-62.819-17.102-91.002
			c7.301-24.731,33.668-36.529,43.355-38.553c0,0,0.412-2.405-9.514-2.561c14.795-0.255,29.582,1.593,40.92,8.268
			C4577.141,3917.996,4581.091,3966.525,4564.988,4014.915z" style="stroke:black;fill:#b0ffb8"/><path id="180610584" parent_id="180610550" order="2" structure_id="320" d="M6454.423,2310.078
			c50.42,316.451-46.828,728.072-227.222,1083.811l-1.146-0.555l-162.925-144.923c23.388-57.268,45.028-114.781,67.786-169.23
			c80.66-192.579,132.967-400.187,146.752-609.229c10.027-152.716-21.503-293.612-69.502-436.772
			c-58.968-175.889-132.652-326.59-238.404-475.248c-66.28-93.191-96.92-151.433-184.802-224.439
			c-72.569-60.167-151.741-118.712-250.819-168.462l67.078-82.714l2.353-3.826
			C6077.214,1368.842,6378.311,1833.159,6454.423,2310.078z" style="stroke:black;fill:#1f9d5a"/><path id="180610583" parent_id="180610550" order="3" structure_id="943" d="M6208.166,2033.179
			c47.999,143.16,79.529,284.058,69.502,436.772c-13.785,209.042-66.092,416.649-146.752,609.229
			c-22.757,54.449-44.398,111.965-67.786,169.23l-279.772-248.807c52.486-116.782,45.228-317.752,38.447-432.568
			c-14.125-239.202-29.576-420.374-147.401-617.8c-138.106-231.503-232.377-325.813-401.92-461.497l261.658-322.711
			c99.078,49.75,178.25,108.295,250.819,168.462c87.881,73.007,118.521,131.249,184.802,224.44
			C6075.514,1706.589,6149.198,1857.29,6208.166,2033.179z" style="stroke:black;fill:#1f9d5a"/><path id="180610582" parent_id="180610550" order="4" structure_id="648" d="M5821.805,2567.036
			c6.779,114.816,14.039,315.786-38.447,432.567l-298.59-265.574c46.064-13.37,64.104-67.199,18.153-180.215
			c-102.715-253.063-263.612-438.489-474.94-593.838c-26.804-19.646-55.929-41.573-86.809-63.582l331.311-408.655
			c169.543,135.684,263.813,229.994,401.92,461.497C5792.229,2146.662,5807.68,2327.834,5821.805,2567.036z" style="stroke:black;fill:#1f9d5a"/><path id="180610581" parent_id="180610550" order="5" structure_id="844" d="M4731.846,2158.564
			c-0.914-0.127-1.75-0.164-2.584-0.203l0.029-0.668l211.881-261.299c30.88,22.009,60.005,43.938,86.809,63.582
			c211.328,155.349,372.227,340.773,474.94,593.838c45.951,113.017,27.911,166.846-18.153,180.215l-290.707-258.601
			c0,0-38.65-38.688-95.514-89.094C4995.598,2295.143,4832.885,2165.631,4731.846,2158.564z" style="stroke:black;fill:#1f9d5a"/><path id="180610588" parent_id="180610550" order="6" structure_id="656" d="M5603.57,1078.488l-2.354,3.826
			l-67.077,82.714c-27.735-13.913-57.09-27.23-88.327-39.63c-112.532-44.761-217.624-72.938-330.602-117.134
			c-177.022-69.4-399.822-115.29-593.024-94.866c-119.522,12.674-260.635,85.376-356.542,154.295
			c-33.844,24.31-65.361,50.818-94.378,79.369l-90.452-139.167l-0.888-0.71c3.897-4.677,7.628-9.359,11.362-14.126
			c306.576-387.694,1029.041-191.546,1378.604-37.131C5451.852,992.086,5529.816,1033.166,5603.57,1078.488z" style="stroke:black;fill:#1f9d5a"/><path id="180610587" parent_id="180610550" order="7" structure_id="962" d="M5534.141,1165.028
			l-261.658,322.711c-6.94-5.593-13.967-11.188-21.153-16.875c-102.321-81.204-295.647-183.829-413.681-225.494
			c-121.326-42.819-178.697-58.428-298.9-52.816c-156.861,7.36-263.975,65.136-333.4,160.715l-134.078-206.207
			c29.016-28.549,60.533-55.059,94.377-79.368c95.908-68.92,237.021-141.621,356.543-154.296
			c193.201-20.423,416.002,25.467,593.024,94.867c112.978,44.194,218.067,72.373,330.601,117.134
			C5477.051,1137.798,5506.404,1151.116,5534.141,1165.028z" style="stroke:black;fill:#1f9d5a"/><path id="180610586" parent_id="180610550" order="8" structure_id="767" d="M5272.482,1487.739
			l-331.312,408.655c-134.942-96.263-303.464-194.065-455.86-112.591l-279.965-430.534c69.426-95.582,176.539-153.355,333.4-160.716
			c120.203-5.611,177.575,9.997,298.9,52.816c118.033,41.665,311.358,144.29,413.681,225.494
			C5258.516,1476.551,5265.541,1482.146,5272.482,1487.739z" style="stroke:black;fill:#1f9d5a"/><path id="180610585" parent_id="180610550" order="9" structure_id="1021" d="M4941.172,1896.395
			l-211.881,261.3l-0.188-6.873l-2.529,4.069l-241.264-371.086C4637.708,1702.329,4806.229,1800.133,4941.172,1896.395z" style="stroke:black;fill:#1f9d5a"/><path id="180610592" parent_id="180610550" order="10" structure_id="935" d="M3980.816,1007.896l90.451,139.166
			c-102.361,100.096-175.783,224.37-222.011,359.771l-123.524-91.552c7.981-35.291,18.299-68.549,31.691-99.574
			c48.4-111.613,141.107-207.463,222.504-308.521L3980.816,1007.896z" style="stroke:black;fill:#40a666"/><path id="180610591" parent_id="180610550" order="11" structure_id="211" d="M4071.268,1147.063
			l134.08,206.207c-33.062,45.523-57.561,99.643-74.772,160.959c-18.106,64.373-32.862,119.607-45.028,167.598l-198.81-147.24
			c-6.044-8.73-14.847-15.749-27.361-20.257l-10.118-7.496C3895.485,1371.432,3968.906,1247.157,4071.268,1147.063z" style="stroke:black;fill:#40a666"/><path id="180610590" parent_id="180610550" order="12" structure_id="1015" d="M4205.348,1353.27
			l279.965,430.535c-31.319,16.726-61.981,41.015-91.563,74.56c-8.388,9.491-16.696,20.912-24.726,33.518l-283.478-210.055
			c12.165-47.989,26.922-103.226,45.028-167.599C4147.787,1452.911,4172.286,1398.792,4205.348,1353.27z" style="stroke:black;fill:#40a666"/><path id="180610589" parent_id="180610550" order="13" structure_id="919" d="M4726.574,2154.89l-0.811,1.218
			l-356.739-264.228c8.028-12.604,16.337-24.026,24.726-33.518c29.58-33.546,60.242-57.834,91.563-74.56L4726.574,2154.89z" style="stroke:black;fill:#40a666"/><path id="180610597" parent_id="180610550" order="14" structure_id="171" d="M3725.732,1415.281l123.524,91.552
			c-16.729,48.951-29.927,99.404-39.563,150.688c-42.945,227.959-65.514,469.662-81.97,705.868l-61.175,12.509
			c7.639-168.144,15.448-338.203,23.154-496.886C3698.091,1707.306,3695.729,1547.325,3725.732,1415.281z" style="stroke:black;fill:#2fa850"/><path id="180610596" parent_id="180610550" order="15" structure_id="195" d="M3859.375,1514.328l27.361,20.257
			c30.147,43.403-7.921,130.547-16.456,179.708c-19.093,109.527-33.462,238.355-41.169,349.661
			c-6.893,99.039-10.171,185.019-15.289,281.879l-86.1,17.557c16.457-236.207,39.023-477.907,81.97-705.868
			c9.638-51.285,22.836-101.737,39.563-150.688L3859.375,1514.328z" style="stroke:black;fill:#2fa850"/><path id="180610595" parent_id="180610550" order="16" structure_id="304" d="M3886.737,1534.585
			l198.81,147.24c-39.208,153.886-52.797,234.705-69.099,312.637c-16.069,76.521-26.438,191.135-31.44,316.459l-171.185,34.911
			c5.118-96.86,8.397-182.84,15.289-281.879c7.707-111.306,22.077-240.135,41.169-349.661
			C3878.816,1665.133,3916.885,1577.989,3886.737,1534.585z" style="stroke:black;fill:#2fa850"/><path id="180610594" parent_id="180610550" order="17" structure_id="363" d="M4085.546,1681.826l283.478,210.055
			c-35.715,55.947-66.449,136.481-80.394,190.415c-12.612,48.638-29.492,111.813-42.963,175.478l-260.662,53.148
			c5.003-125.324,15.372-239.938,31.44-316.459C4032.749,1916.531,4046.338,1835.712,4085.546,1681.826z" style="stroke:black;fill:#2fa850"/><path id="180610593" parent_id="180610550" order="18" structure_id="84" d="M4725.766,2156.107l-2.623,4.232
			l-477.475,97.432c13.471-63.666,30.35-126.839,42.963-175.477c13.943-53.935,44.678-134.467,80.395-190.415L4725.766,2156.107z" style="stroke:black;fill:#2fa850"/><path id="180610576" parent_id="180610550" order="19" structure_id="448" d="M5516.298,3536.514l49.658,136.205
			l-1.087,1.791c-78.24-46.029-159.626-94.633-229.884-135.859c-8.149-4.812-16.304-9.537-24.376-14.178
			c-36.988-23.88-74.773-46.792-116.91-69.736c-10.127-5.487-20.091-10.884-30.059-16.195
			c-135.896-79.146-239.717-136.814-234.607-127.791c2.396,4.295,15.975,13.038,38.244,25.695
			c-21.587-11.119-43.654-22.681-66.457-34.692c-42.66-22.466-93.841-38.041-144.587-46.649l0.335-1.825l-6.16-246.788
			c10.918,2.846,21.961,6.617,33.125,11.397c80.535,34.334,130.626,80.913,196.723,138.021
			c71.494,61.708,129.853,136.038,209.858,187.339c98.875,63.301,200.968,122.145,303.103,180.07
			C5500.967,3527.689,5508.631,3532.145,5516.298,3536.514z" style="stroke:black;fill:#248a5e"/><path id="180610575" parent_id="180610550" order="20" structure_id="412" d="M5336.418,3042.691
			l179.88,493.821c-7.667-4.37-15.331-8.823-23.081-13.196c-102.135-57.927-204.229-116.771-303.104-180.07
			c-80.006-51.301-138.365-125.631-209.857-187.34c-66.098-57.106-116.188-103.687-196.723-138.021
			c-11.164-4.781-22.207-8.553-33.125-11.397l0.004-0.084l-7.599-306.617c166.851,39.386,307.455,167.296,451.426,258.365
			C5242.881,2988.929,5290.262,3017.973,5336.418,3042.691z" style="stroke:black;fill:#248a5e"/><path id="180610574" parent_id="180610550" order="21" structure_id="630" d="M5170.139,2586.242
			l166.279,456.451c-46.156-24.721-93.537-53.765-142.178-84.541c-143.972-91.067-284.576-218.979-451.426-258.364l-7.565-301.845
			c42.313,0.854,85.259,8.017,129.256,23.263C4985.456,2463.087,5080.893,2524.723,5170.139,2586.242z" style="stroke:black;fill:#248a5e"/><path id="180610573" parent_id="180610550" order="22" structure_id="440" d="M5097.666,2387.3l72.473,198.942
			c-89.246-61.52-184.683-123.155-305.633-165.036c-43.998-15.246-86.941-22.408-129.256-23.263l-5.939-238.826l2.536-0.553
			c101.039,7.066,263.751,136.579,366.701,227.771L5097.666,2387.3z" style="stroke:black;fill:#248a5e"/><path id="180610602" parent_id="180610550" order="23" structure_id="484" d="M3970.743,3366.931l-42.833,68.763
			l-0.274,2.33c-38.188-5.018-76.602-8.791-114.886-13.563c-19.055-2.466-45.891-8.637-62.432-3.872
			c-4.75,1.372-8.499,4.632-11.462,9.017c1.648-4.946,2.798-8.074,2.798-8.074c-125.556-109.307-108.564-309.747-101.691-459.428
			c8.095-176.241,17.188-379.724,26.586-586.205l61.176-12.509c-4.663,66.916-8.887,133.349-12.82,198.959
			c-14.122,230.957-68.32,554.49,145.281,711.365c23.969,17.591,51.271,42.783,80.572,68.152
			C3950.583,3350.27,3960.573,3358.763,3970.743,3366.931z" style="stroke:black;fill:#248a5e"/><path id="180610601" parent_id="180610550" order="24" structure_id="524" d="M3815.704,2995.62
			c42.729,95.709,215.115,233.281,127.792,343.106l-2.739,3.14c-29.302-25.369-56.604-50.563-80.571-68.152
			c-213.603-156.875-159.403-480.408-145.281-711.365c3.935-65.61,8.156-132.043,12.82-198.959l86.099-17.557
			c-3.019,56.612-6.539,116.883-11.788,185.613C3788.426,2711.117,3735.01,2815.301,3815.704,2995.62z" style="stroke:black;fill:#248a5e"/><path id="180610600" parent_id="180610550" order="25" structure_id="582" d="M4346.354,2764.613
			l-375.61,602.318c-10.171-8.168-20.16-16.662-29.986-25.064l2.739-3.139c87.322-109.826-85.063-247.398-127.792-343.107
			c-80.694-180.318-27.278-284.503-13.67-464.174c5.249-68.73,8.77-129.001,11.788-185.613l171.184-34.91
			c-7.479,184.724-3.222,392.752,11.776,536.405c12.685,121.114,135.372,44.972,266.827-37.968
			C4288.262,2793.836,4316.247,2778.632,4346.354,2764.613z" style="stroke:black;fill:#248a5e"/><path id="180610599" parent_id="180610550" order="26" structure_id="620" d="M4557.063,2426.756
			l-210.709,337.857c-30.106,14.019-58.092,29.223-82.744,44.748c-131.455,82.938-254.143,159.082-266.828,37.968
			c-14.998-143.653-19.254-351.683-11.775-536.406l260.662-53.148c-34.518,162.891-46.656,328.817,92.593,262.057
			C4411.781,2484.535,4484.096,2450.021,4557.063,2426.756z" style="stroke:black;fill:#248a5e"/><path id="180610598" parent_id="180610550" order="27" structure_id="910" d="M4723.143,2160.34
			l-166.078,266.416c-72.97,23.268-145.283,57.779-218.804,93.073c-139.249,66.761-127.108-99.166-92.593-262.058L4723.143,2160.34z
			" style="stroke:black;fill:#248a5e"/><path id="180610572" parent_id="180610550" order="28" structure_id="969" d="M4750.408,3006.488l0.004-0.083
			c-178.169-48.109-316.373,138.061-411.907,269.94c-30.83,42.527-83.506,99.621-139.847,132.607
			c-26.146,15.288-53.146,25.432-79.06,26.502c-49.897,2.061-101.229-30.262-148.856-68.525l-42.832,68.762l-0.274,2.332
			c37.521,4.986,74.82,11.137,111.633,20.611c22.254,5.709,42.122,14.155,60.652,24.381l1.733-3.102l51.193-23.011
			c4.544-15.108,24.107-23.752,36.258-31.313c4.738-2.963,9.477-5.843,14.291-8.635c33.387-19.811,68.064-36.801,103.121-52.852
			c46.764-21.289,94.284-40.869,141.073-62.743c8.039-3.732,74.7-24.526,74.978-30.54l0.004-0.084l29.752-4.492
			c43.742-21.094,123.346-24.804,203.908-11.143l0.336-1.826L4750.408,3006.488z" style="stroke:black;fill:#248a5e"/><path id="180610571" parent_id="180610550" order="29" structure_id="288" d="M4742.814,2699.788
			l7.598,306.618c-178.169-48.109-316.373,138.061-411.907,269.94c-30.83,42.527-83.506,99.621-139.847,132.607
			c-26.146,15.288-53.146,25.432-79.06,26.502c-49.897,2.061-101.229-30.263-148.856-68.525l375.611-602.317
			c112.05-52.274,253.859-89.119,363.367-71.451C4720.855,2694.929,4731.889,2697.109,4742.814,2699.788z" style="stroke:black;fill:#248a5e"/><path id="180610570" parent_id="180610550" order="30" structure_id="1125" d="M4735.249,2397.943
			l7.565,301.845c-10.926-2.678-21.959-4.858-33.094-6.625c-109.508-17.668-251.316,19.177-363.367,71.451l210.709-337.857
			C4615.68,2408.02,4674.711,2396.585,4735.249,2397.943z" style="stroke:black;fill:#248a5e"/><path id="180610569" parent_id="180610550" order="31" structure_id="608" d="M4729.311,2159.117
			l5.938,238.826c-60.538-1.357-119.569,10.076-178.187,28.813l166.08-266.416L4729.311,2159.117z" style="stroke:black;fill:#248a5e"/><path id="180610580" parent_id="180610550" order="32" structure_id="996" d="M6226.055,3393.334l1.146,0.555
			c-5.352,10.803-10.948,21.512-16.546,32.219c-77.127,146.621-177.577,268.901-272.669,347.399
			c-55.07,45.433-136.01,32.676-331.635-74.575c-13.693-7.995-27.549-16.165-41.482-24.422l1.088-1.791l-49.658-136.205
			c135.619,77.878,257.063,149.162,383.789,3.313c71.847-82.662,120.313-186.655,163.043-291.414L6226.055,3393.334z" style="stroke:black;fill:#219866"/><path id="180610579" parent_id="180610550" order="33" structure_id="328" d="M5783.355,2999.604
			l279.773,248.808c-42.729,104.759-91.195,208.752-163.043,291.415c-126.727,145.85-248.169,74.564-383.789-3.313l-179.88-493.821
			c140.75,75.519,270.556,110.524,391.056,29.176C5751.139,3055.963,5769.37,3030.77,5783.355,2999.604z" style="stroke:black;fill:#219866"/><path id="180610578" parent_id="180610550" order="34" structure_id="1101" d="M5484.768,2734.03l298.59,265.575
			c-13.986,31.164-32.22,56.357-55.885,72.264c-120.5,81.35-250.305,46.343-391.055-29.176l-166.279-456.451
			c54.689,37.583,107.119,75.146,161.609,107.949C5388.438,2728.35,5446.419,2745.243,5484.768,2734.03z" style="stroke:black;fill:#219866"/><path id="180610577" parent_id="180610550" order="35" structure_id="783" d="M5194.061,2475.43l290.707,258.601
			c-38.349,11.213-96.33-5.681-153.02-39.839c-54.49-32.804-106.92-70.366-161.609-107.949l-72.473-198.942l0.881-0.964
			C5155.409,2436.742,5194.061,2475.43,5194.061,2475.43z" style="stroke:black;fill:#219866"/><path id="180610554" parent_id="180610550" order="36" structure_id="698" d="M5709.875,3758.799
			c-112.161-63.74-258.768-152.085-374.915-220.193c-208.114-122.039-396.276-210.711-405.949-227.895l-2.69-0.393
			c-292.604-113.256-360.097-46.813-427.252-30.022c-75.02,18.755-278.268,121.537-343.182,166.813
			c-3.038,9.795-47.611,28.268-58.496,34.531c-11.316-6.923-22.577-11.902-48.229-20.238
			c-57.188-18.584-141.883-25.943-207.994-32.518c-54.487-5.418-95.861-5.941-95.861-5.941s-8.178,8.512-9.739,12.605
			c0,0-11.063,34.314-13.577,49.216c-7.645,45.455-28.765,125.138-35.414,224.368c-7.226,107.867-1.216,238.674-5.861,370.805
			c-9.101,259.059-49.026,443.182,0.446,658.479c35.306,153.598,163.657,293.75,289.011,389.93
			c330.123,253.31,801.248,108.938,1098.17-97.444c233.448-162.269,394.555-349.459,561.672-565.701
			c131.362-169.987,220-313.435,216.527-522.954C5846.342,3929.804,5884.62,3858.102,5709.875,3758.799z M4564.988,4014.915
			c-9.097,27.334-23.045,52.248-37.953,76.604c1.455-4.41,1.237-8.908-2.015-14.123c-4.954-7.943-20.662-10.702-27.151-18.536
			c-0.008-0.009-0.015-0.017-0.021-0.024c-10.896-13.223-18.859-29.141-25.582-44.804c-10.947-25.513-25.42-62.819-17.102-91.002
			c7.301-24.731,33.668-36.529,43.355-38.553c0,0,0.412-2.405-9.514-2.561c14.795-0.255,29.582,1.593,40.92,8.268
			C4577.141,3917.996,4581.091,3966.525,4564.988,4014.915z" style="stroke:black;fill:#9ad2bd"/><path id="180610555" parent_id="180610550" order="37" structure_id="159" d="M5824.311,3849.197
			c-82.707-99.712-290.778-173.863-389.311-241.09c-83.458-56.95-152.507-105.096-241.264-153.377
			c-97.201-52.881-186.94-97.156-292.912-152.951c-110.332-58.082-277.19-69.932-348.517-35.541
			c-3.267,1.576-19.933,89.393,2.875,210.789c17.474,93.029,67.724,206.104,106.981,313.216
			c-27.647-8.521-91.674-20.807-141.162-9.622c-56.293,18.338-170.137,83.021-100.338,111.527
			c-123.102-7.745-150.537-2.729-215.183,15.229c-39.692,11.025-111.385,94.642-166.005,83.401
			c-45.178-9.294-84.127-38.945-128.066-59.24c-75.854-35.047-172.289-52.604-226.188-86.767
			c-7.121-4.514,2.196,66.018-0.955,111.908c-8.46,123.065-5.112,262.953-17.328,390.179
			c-12.819,133.646-16.185,259.39,14.2,391.603c8.532,37.08,19.914,75.783,50.798,48.362
			c62.375-55.386,161.145-203.01,250.907-299.567c68.253-73.434,136.018-119.688,165.773-85.848
			c36.213,41.184,88.071,187.62,114.707,296.829c29.936,122.742,55.836,227.163,43.099,276.802
			c-15.058,58.578-66.491,82.527-127.063,123.902c-53.58,36.584-127.185,79.314-108.754,89.865
			c79.521,45.502,156.514,57.959,254.18,69.569c258.068,30.687,575.988-110.942,743.543-227.421
			c233.441-162.27,394.555-349.463,561.667-565.71c75.89-98.188,140.765-197.606,176.813-295.994
			c26.375-71.942,36.076-116.935,40.354-210.201C5849.085,3917.266,5848.332,3878.157,5824.311,3849.197z M4564.988,4014.915
			c-9.097,27.334-23.045,52.248-37.953,76.604c1.455-4.41,1.237-8.908-2.015-14.123c-4.954-7.943-20.662-10.702-27.151-18.536
			c-0.008-0.009-0.015-0.017-0.021-0.024c-10.896-13.223-18.859-29.141-25.582-44.804c-10.947-25.513-25.42-62.819-17.102-91.002
			c7.301-24.731,33.668-36.529,43.355-38.553c0,0,0.412-2.405-9.514-2.561c14.795-0.255,29.582,1.593,40.92,8.268
			C4577.141,3917.996,4581.091,3966.525,4564.988,4014.915z" style="stroke:black;fill:#54bf94"/><path id="180610558" parent_id="180610550" order="38" structure_id="167" d="M4662.166,3790.243
			c-39.259-107.112-89.509-220.188-106.982-313.216c-3.553-18.909-6.146-37.004-7.983-54.084l6.032,5.168
			c43.904,14.123,115.085,26.457,160.206,35.254c243.347,47.445,508.411,109.45,696.362,271.977
			c44.524,38.5,122.85,92.462,163.672,153.721l-3.703,4.249c-78.232,48.083-216.932,32.396-305.197,30.295
			c-161.161-3.821-327.475-22.411-488.195-8.142l-4.166,0.562c-4.728-34.058-14.23-64.629-30.309-87.325
			c-15.316-21.629-36.646-35.58-65.568-37.784L4662.166,3790.243z" style="stroke:black;fill:#54bf94"/><path id="180610557" parent_id="180610550" order="39" structure_id="183" d="M4772.209,3916.025l4.167-0.562
			c160.722-14.271,327.034,4.319,488.194,8.142c88.268,2.103,226.965,17.789,305.198-30.295l3.703-4.248
			c25.135,37.717,36.054,78.199,16.114,119.545c-55.776,115.646-249.869,179.205-345.797,246.572
			c-120.359,84.529-146.938,215.779-194.102,345.786c-19.311,53.231-51.909,99.608-92.873,136.899l5.912-4.723
			c-22.962-50.99-35.938-113.193-77.557-152.544c-78.348-74.071-202.069-98.247-281.937-175.757l0.546,0.314
			c68.771-118.707,113.533-162.559,136.529-220.715C4762.188,4129.123,4785.174,4009.455,4772.209,3916.025z" style="stroke:black;fill:#54bf94"/><path id="180610559" parent_id="180610550" order="40" structure_id="191" d="M4257.2,4762.947
			c-9.435-19.268-13.873-41.471-19.661-65.203c-17.809-73.017-36.266-147.627-66.268-216.771
			c-24.33-56.076-60.447-105.397-63.529-169.656c-1.941-40.479,6.5-80.603,6.124-121.048c-0.304-32.557-1.167-72.402-15.345-102.855
			c-11.398-24.488-35.928-38.207-49.782-60.724c-4.005-6.507-18.407-38.524-9.261-35.912c9.521,2.722,26.49-0.705,35.973-3.794
			c16.995-5.556,32.102-16.509,47.216-25.785c28.834-17.698,53.718-44.729,82.815-53.816
			c85.019-26.549,142.994-17.216,179.685-17.216c12.421,0,19.167,0.698,25.334,1.334c3.267,0.337,5.649,1.634,10.21,0.655
			c79.443-17.05,77.811-7.68,77.811-7.68c-9.688,2.023-36.055,13.821-43.355,38.553c-8.318,28.184,6.154,65.489,17.102,91.002
			c6.723,15.664,14.688,31.582,25.582,44.805c0.008,0.009,0.015,0.017,0.021,0.023c6.49,7.834,22.198,10.594,27.152,18.536
			c8.012,12.848-2.394,21.347-10.873,34.915c-16.781,26.855-33.672,53.93-44.86,83.712c-19.175,51.046-11.987,109.944,2.103,161.287
			c6.791,24.74,15.922,49.117,28.08,71.746c9.197,17.095,27.521,28.815,32.867,48.028c6.912,24.832,1.504,59.51-1.461,84.732
			c-6.898,58.684-25.426,115.773-53.941,167.518c-15.898,28.85-41.749,76.688-72.902,91.285
			c-27.422,12.85-68.646,2.631-94.951-9.057C4281.896,4799.484,4266.904,4782.77,4257.2,4762.947z" style="stroke:black;fill:#54bf94"/><path id="180610556" parent_id="180610550" order="41" structure_id="199" d="M4962.729,4733.145
			c-22.961-50.99-35.937-113.192-77.557-152.543c-78.348-74.072-202.068-98.248-281.936-175.758l0.545,0.315
			c-10.769,18.589-22.125,39.013-34.08,61.614c-9.545,18.047-23.484,17.845-38.303,5.465l0.938,4.848
			c6.911,24.831,1.503,59.509-1.462,84.732c-6.898,58.683-25.426,115.772-53.941,167.517
			c-15.897,28.851-41.748,76.688-72.902,91.286l0.421-3.787c39.36-1.648,78.8-6.45,102.769-3.218
			c96.597,13.036,194.304,37.797,291.039,11.235c5.194-1.428,10.36-2.963,15.494-4.605c52.771-16.887,102.1-45.09,143.063-82.38
			L4962.729,4733.145z" style="stroke:black;fill:#54bf94"/><path id="180610560" parent_id="180610550" order="42" structure_id="160" d="M4023.075,3985.736
			c-6.274-1.967-13.457-3.729-18.835-5.739c-10.956-4.096-21.452-9.543-31.723-15.104c-20.406-11.05-40.011-23.607-61.107-33.354
			c-75.855-35.046-172.288-52.603-226.188-86.767c-7.121-4.513,2.195,66.019-0.955,111.908
			c-8.461,123.066-5.112,262.953-17.328,390.18c-12.819,133.645-16.186,259.389,14.199,391.602
			c8.532,37.08,19.914,75.783,50.799,48.363c62.375-55.387,161.144-203.01,250.906-299.567
			c54.507-58.644,108.7-99.953,143.475-96.979l0.232-2.455c-10.016-23.885-17.481-48.807-18.811-76.504
			c-1.941-40.479,6.5-80.602,6.124-121.047c-0.304-32.558-1.167-72.403-15.345-102.858c-14.291-30.698-49.51-46.483-59.022-80.062
			c-2.388-8.427,0.136-14.412-7.874-18.377C4029.255,3987.801,4026.284,3986.742,4023.075,3985.736z" style="stroke:black;fill:#54bf94"/><path id="180610561" parent_id="180610550" order="43" structure_id="160" d="M4868.195,5136.161
			c-33.004-16.14,203.271-249.481,244.27-306.851c53.01-74.16,114.259-134.801,176.7-202.543
			c114.333-124.037,231.554-252.432,344.793-375.072c32.44-35.132,88.513-101.301,132.019-119.895
			c25.901-11.064,49.328,13.465,49.328,13.465c-29.391,86.674-70.84,162.414-128.42,243.777
			c99.35-139.063,162.599-269.193,159.655-446.799c-0.198-12.441,38.08-84.145-136.665-183.446
			c-112.161-63.741-258.768-152.085-374.915-220.192c-208.114-122.041-396.276-210.713-405.949-227.896l-2.69-0.392
			c-246.804-95.528-333.451-63.211-394.83-40.679l16.554,154.026l5.188,4.443c43.903,14.123,115.084,26.457,160.205,35.254
			c243.347,47.445,508.412,109.451,696.363,271.977c44.523,38.5,122.85,92.462,163.672,153.721
			c25.135,37.718,36.055,78.2,16.113,119.545c-55.775,115.646-249.869,179.207-345.797,246.573
			c-120.358,84.53-146.938,215.778-194.101,345.786c-18.41,50.752-48.905,95.266-87.207,131.62c0.083,0.185,0.163,0.373,0.246,0.558
			l-5.912,4.723c-40.964,37.29-90.293,65.494-143.063,82.38c-5.133,1.644-10.299,3.179-15.494,4.604
			c-96.735,26.563-194.442,1.801-291.039-11.234c-22.565-3.044-58.848,1.033-95.865,2.896c-2.406,1.556-4.848,2.947-7.324,4.107
			c-27.422,12.85-68.646,2.63-94.949-9.057c-27.186-12.08-42.176-28.795-51.881-48.617c-4.008-8.186-7.108-16.902-9.801-26.039
			c1.746,6.777,3.498,13.553,5.256,20.326c8.541,32.879,17.125,65.737,24.576,98.951c7.949,35.435,19.183,77.592,9.896,113.781
			c-7.434,28.97-33.747,64.899-64.369,72.36l7.626,0.015c-27.22,20.24-60.047,38.365-90.209,58.969
			c-35.437,24.188-60.03,33.208-97.613,75.12c322.814,183.826,747.345,47.026,1023.242-143.778
			C4981.589,5089.121,4883.323,5143.555,4868.195,5136.161z" style="stroke:black;fill:#54bf94"/><path id="180610568" parent_id="180610550" order="44" structure_id="1034" d="M4067.035,3469.561
			c-8.862-3.439-18.088-6.441-27.768-8.925c-36.813-9.476-74.111-15.625-111.633-20.612c-38.188-5.018-76.602-8.791-114.886-13.563
			c-19.056-2.466-45.892-8.637-62.433-3.872c-4.75,1.372-8.498,4.632-11.461,9.017c-5.841,8.688-8.777,21.61-10.891,32.98
			l-17.521,80.806c-13.809,69.175-22.53,138.832-25.115,209.693c-1.085,30.921-2.178,36.479-2.006,67.373
			c0.919,0.042,43.696,21.761,46.905,22.996c60.311,24.532,128.771,31.945,186.282,60.953c17.835,8.972,34.815,20.346,52.123,31.032
			C3921.214,3770.516,3877.1,3574.62,4067.035,3469.561z" style="stroke:black;fill:#62d09f"/><path id="180610567" parent_id="180610550" order="45" structure_id="1042" d="M4460.68,3707.862
			c-88.104-46.316-176.272-83.931-254.617-147.711c-34.375-27.945-66.084-55.601-103.142-76.136
			c-10.471-5.777-21.372-10.987-32.887-15.457c-185.504,102.545-151.819,291.924-103.113,464.951
			c22.229,13.896,44.824,27.118,70.315,33.049c47.621,11.061,80.873-22.232,114.934-49.463
			c59.434-47.491,129.064-45.467,201.93-42.789c18.049,0.662,45.916,2.61,45.916,2.61c-5.973-6.636,1.17-18.192,12.151-29.491
			c0.088-0.08,0.175-0.158,0.267-0.321c10.358-10.49,23.888-20.75,33.018-26.357c9.047-5.61,18.792-11.858,28.939-17.755
			c21.435-12.91,44.744-24.729,67.826-27.938C4542.216,3775.054,4499.992,3728.501,4460.68,3707.862z" style="stroke:black;fill:#62d09f"/><path id="180610566" parent_id="180610550" order="46" structure_id="1067" d="M4230.385,5042.342
			c-27.219,20.24-60.047,38.366-90.209,58.969c-35.455,24.203-60.057,33.217-97.676,75.189c-21-11-27.786-14.848-46.378-28.105
			c-10.542-7.51-20.276-14.133-32.622-23.895c-15.282-12.083-77.965-67.173-103.645-92.973
			c-42.804-42.998-80.004-88.711-112.355-140.027c-10.532-16.7-27-45-36-67c50.504-24.615,82.226-79.266,102.328-97.605
			c22.841-20.838,96.805-129.322,170.351-212.793l3.038,0.436c-7.863,158.896-108.348,471.656,110.531,519.05
			c40.353,8.745,83.49,11.918,124.67,8.741L4230.385,5042.342z" style="stroke:black;fill:#62d09f"/><path id="180610565" parent_id="180610550" order="47" structure_id="1075" d="M4252.656,4757.234
			c-5.142-19.795-10.267-39.598-15.117-59.49c-17.809-73.017-36.267-147.627-66.268-216.771
			c-8.084-18.633-19.219-57.013-39.957-65.188c-15.355-6.054-38.958,2.91-52.404,10.896c-10.377,6.165-93.964,77.991-89.748,81.801
			c-0.002-0.002-1.641-1.482-1.641-1.482c-4.858,156.316-112.169,478.431,110.225,526.586c37.021,8.017,86.346,17.349,123.977,9.002
			c31.063-6.89,57.887-43.324,65.403-72.621c9.286-36.188-1.946-78.348-9.896-113.781
			C4269.781,4822.973,4261.195,4790.113,4252.656,4757.234z" style="stroke:black;fill:#62d09f"/><path id="180610564" parent_id="180610550" order="48" structure_id="276" d="M4379.169,3422.143
			c52.542,2.318,95.03,2.164,145.703,6.743c-2.642-24.573-3.849-49.481-3.28-74.825c0.605-27.762,1.295-55.52,0.978-83.238
			c-0.276,6.014-66.938,26.808-74.978,30.54c-46.789,21.874-94.311,41.454-141.072,62.743
			c-34.546,15.816-68.725,32.554-101.662,51.994C4262.334,3413.835,4321.861,3419.612,4379.169,3422.143z" style="stroke:black;fill:#6acbba"/><path id="180610563" parent_id="180610550" order="49" structure_id="284" d="M4486.107,3534.54
			c20.336,3.813,41.393,10.767,62.008,13.16c-10.668-38.979-18.902-78.442-23.244-118.814c-50.672-4.579-93.16-4.425-145.703-6.743
			c-57.308-2.529-116.834-8.308-174.313-6.043c-0.484,0.287-0.975,0.568-1.459,0.856c-4.814,2.792-9.552,5.672-14.291,8.635
			c-12.148,7.563-31.714,16.205-36.258,31.313c-7.898,26.171,26.906,50.201,44.999,62.668c7.302,5.063,14.498,10.158,21.627,15.267
			c0.341-0.112,0.681-0.227,1.024-0.339c-0.346,0.112-0.685,0.227-1.024,0.339c0.442,0.317,0.885,0.634,1.326,0.95
			C4306.316,3519.746,4399.148,3518.229,4486.107,3534.54z" style="stroke:black;fill:#6acbba"/><path id="180610562" parent_id="180610550" order="50" structure_id="291" d="M4633.048,3783.134
			c-5.22-19.407-25.079-60.832-34.181-85.021c-18.912-49.938-36.89-99.767-50.752-150.412c-20.615-2.396-41.672-9.346-62.008-13.16
			c-86.959-16.313-179.791-14.794-265.308,1.249c55.717,39.983,107.198,80.726,169.29,113.646
			c51.229,27.298,110.704,57.231,152.527,97.906c16.508,15.992,12.982,5.284,21.651,26.105c12.728,1.756,21.713,2.923,28.694,3.996
			c16.549,2.351,22.021,3.438,40.438,7.047C4633.256,3784.064,4633.195,3783.561,4633.048,3783.134z" style="stroke:black;fill:#6acbba"/><path id="180610604" parent_id="180610550" order="51" structure_id="1009" d="M4741.9,3828.701
			c-15.316-21.629-36.646-35.58-65.567-37.785c-42.851-3.258-84.438-19.018-127.699-17.669
			c-36.899,1.144-75.343,27.43-106.196,46.474c-19.035,11.737-72.43,45.767-33.871,67.599c15.627,8.851,29.223,0.507,44.957-1.882
			c22.791-3.459,55.477-7.574,76.404,4.748c47.213,27.812,51.163,76.342,35.063,124.729
			c-21.875,65.729-71.789,117.474-95.698,181.101c-46.258,123.127,62.229,342.949,100.41,270.758
			c88.3-166.938,144.015-215.065,170.61-282.328C4770.162,4108.956,4802.08,3913.656,4741.9,3828.701z" style="stroke:black;fill:#cccccc"/><path id="180610605" parent_id="180610550" order="52" structure_id="1009" d="M5815.305,4145.268
			c0,0-23.426-24.53-49.328-13.467c-43.506,18.595-99.576,84.764-132.019,119.896c-113.239,122.642-230.46,251.036-344.793,375.073
			c-62.44,67.741-123.69,128.382-176.7,202.542c-40.998,57.369-277.273,290.711-244.27,306.851
			c15.127,7.395,113.394-47.039,197.608-103.508c0.845-0.584,1.694-1.168,2.536-1.752c21.873-15.205,43.111-30.627,63.779-46.271
			c28.938-22.354,49.162-39.627,49.162-39.627c180.692-144.042,318.205-311.002,459.845-494.277c0.642-0.83,1.267-1.65,1.905-2.479
			c15.271-20.014,29.916-39.695,43.852-59.201C5744.465,4307.68,5785.914,4231.939,5815.305,4145.268z" style="stroke:black;fill:#cccccc"/><path id="180610603" parent_id="180610550" order="53" structure_id="98" d="M4498.521,3884.479
			c-9.688,2.022-36.056,13.82-43.356,38.553c-8.317,28.183,6.153,65.488,17.103,91.002c6.722,15.663,14.687,31.581,25.582,44.804
			c0.006,0.009,0.014,0.017,0.021,0.024c6.49,7.834,22.198,10.593,27.151,18.535c3.252,5.215,3.471,9.713,2.015,14.124
			c14.908-24.356,28.856-49.271,37.954-76.604c16.102-48.389,12.15-96.919-35.063-124.73c-11.336-6.675-26.123-8.521-40.92-8.267
			C4498.934,3882.072,4498.521,3884.479,4498.521,3884.479z" style="stroke:black;fill:#aaaaaa"/></g>
</g>
</svg>