<svg width="5296" height="5472" xmlns="http://www.w3.org/2000/svg">
<g transform="scale(1.0)">
<g id="180609119" order="1" parent_id="" graphic_group_label_id="28" graphic_group_label="Atlas - Adult Mouse" sub_image_id="100960452" transform=" scale(1.0, 1.0)"><path id="180609121" parent_id="180609119" order="0" structure_id="8" d="M4626.941,2387.851
			c58.418,239.954,25.029,406.687-16.306,617.852c-30.892,157.801-105.965,321.094-144.462,414.031
			c-83.501,201.558-191.928,323.39-296.563,512.417c-99.465,179.694-239.617,392.594-391.261,529.457
			c-125.453,113.218-263.649,258.875-449.917,249.514c-231.747-11.641-502.253-221.886-606.078-426.562
			c-121.793-240.092-91.493-523.488-69.098-782.477c19.97-230.905,10.687-451.144,50.906-683.146
			c42.953-247.775,107.289-492.86,193.026-729.276c74.465-205.345,174.664-443.421,384.712-544.831
			c223.906-108.073,483.894,36.494,666.24,162.328c135.856,93.756,294.083,159.018,420.822,265.105
			C4509.203,2089.655,4589.17,2232.688,4626.941,2387.851z" style="stroke:black;fill:#bfdae3"/><path id="180609122" parent_id="180609119" order="1" structure_id="688" d="M4626.941,2387.836
			c-37.77-155.157-117.735-298.191-257.972-415.579c-126.744-106.085-284.964-171.347-420.821-265.1
			c-182.344-125.834-442.328-270.4-666.238-162.327c-210.047,101.399-310.243,339.479-384.708,544.814
			c-85.735,236.419-150.076,481.504-193.024,729.271c-40.218,232-30.943,452.237-50.906,683.139
			c-22.403,258.983-52.7,542.379,69.092,782.466c103.824,204.673,374.326,414.917,606.074,426.559
			c186.262,9.359,324.462-136.297,449.914-249.512c151.644-136.862,291.79-349.756,391.26-529.448
			c104.632-189.024,213.061-310.855,296.558-512.41c38.496-92.937,113.575-256.225,144.469-414.027
			C4651.971,2794.521,4685.361,2627.794,4626.941,2387.836z M3762.847,2780.444c-39.53,49.251-64.43,107.457-81.533,168.123
			c-7.869,27.924-14.235,55.307-24.561,82.099c-12.474,32.379-22.088,62.601-30.175,95.728
			c-4.468,18.293-31.872,47.546-38.053,14.468c-0.718-3.842-0.932-8.46-0.766-13.619c6.709-31.061,12.297-62.479,17.73-93.94
			c0.04-0.18,0.083-0.369,0.122-0.547c7.033-32.067,12.63-63.899,17.141-95.463c0.686-3.457,1.371-6.913,2.08-10.362
			c3.818-18.589,5.2-37.387,5.985-56.264c4.146-41.246,6.798-81.975,8.734-122.1c2.335-48.358-2.116-94.692-11.569-141.371
			c-0.171-0.839-0.413-1.861-0.699-3.009c-1.278-7.292-2.651-14.599-4.124-21.926c-1.6-7.952-3.23-15.896-4.863-23.838
			c-0.133-7.728,1.268-14.095,5.47-17.031c13.266-9.278,23.478,21.998,30.264,30.117c33.213,39.763,63.518,54.058,112.234,65.913
			c24.294,5.914,73.35,8.68,74.65,42.816C3842.151,2712.605,3782.593,2755.846,3762.847,2780.444z" style="stroke:black;fill:#b0ffb8"/><path id="180609123" parent_id="180609119" order="2" structure_id="698" d="M4626.941,2387.836
			c-37.77-155.157-117.735-298.191-257.972-415.579c-126.744-106.085-284.964-171.347-420.821-265.1
			c-182.344-125.834-442.328-270.4-666.238-162.327c-210.047,101.399-310.243,339.479-384.708,544.814
			c-85.735,236.419-150.076,481.504-193.024,729.271c-40.218,232-30.943,452.237-50.906,683.139
			c-22.403,258.983-52.7,542.379,69.092,782.466c103.824,204.673,374.326,414.917,606.074,426.559
			c186.262,9.359,324.462-136.297,449.914-249.512c151.644-136.862,291.79-349.756,391.26-529.448
			c104.632-189.024,213.061-310.855,296.558-512.41c38.496-92.937,113.575-256.225,144.469-414.027
			C4651.971,2794.521,4685.361,2627.794,4626.941,2387.836z M3762.847,2780.444c-39.53,49.251-64.43,107.457-81.533,168.123
			c-7.869,27.924-14.235,55.307-24.561,82.099c-12.474,32.379-22.088,62.601-30.175,95.728
			c-4.468,18.293-31.872,47.546-38.053,14.468c-0.718-3.842-0.932-8.46-0.766-13.619c6.709-31.061,12.297-62.479,17.73-93.94
			c0.04-0.18,0.083-0.369,0.122-0.547c7.033-32.067,12.63-63.899,17.141-95.463c0.686-3.457,1.371-6.913,2.08-10.362
			c3.818-18.589,5.2-37.387,5.985-56.264c4.146-41.246,6.798-81.975,8.734-122.1c2.335-48.358-2.116-94.692-11.569-141.371
			c-0.171-0.839-0.413-1.861-0.699-3.009c-1.278-7.292-2.651-14.599-4.124-21.926c-1.6-7.952-3.23-15.896-4.863-23.838
			c-0.133-7.728,1.268-14.095,5.47-17.031c13.266-9.278,23.478,21.998,30.264,30.117c33.213,39.763,63.518,54.058,112.234,65.913
			c24.294,5.914,73.35,8.68,74.65,42.816C3842.151,2712.605,3782.593,2755.846,3762.847,2780.444z" style="stroke:black;fill:#9ad2bd"/><path id="180609124" parent_id="180609119" order="3" structure_id="507" d="M4626.941,2387.836
			c-37.77-155.157-117.735-298.191-257.972-415.579c-47.974-40.157-100.463-74.464-154.544-106.683c0,0,35.281,75.062,49.92,122.902
			c38.134,124.562,54.404,270.598-19.914,389.957c-68.026,109.248-207.583,157.815-327.371,175.455
			c-100.035,14.696-233.17,13.133-277.814-96.738c-16.142-39.724-18.614-88.61-19.39-130.993
			c-2.028-111.094,4.904-237.373,22.532-347.069c4.791-29.815,9.945-61.396,17.185-90.715
			c12.935-52.255,30.595-105.455,58.282-151.962c11.214-18.828,24.956-36.505,36.8-54.731c10.18-15.666,56.747-61.013,56.747-61.013
			c-163.277-92.476-357.086-159.055-529.492-75.833c-210.047,101.399-310.243,339.475-384.708,544.814
			c-85.735,236.416-150.076,481.504-193.024,729.271c-40.218,232-30.935,452.237-50.906,683.139
			c-22.395,258.984-52.7,542.375,69.092,782.462c103.832,204.677,374.335,414.917,606.074,426.559
			c186.271,9.359,324.462-136.293,449.914-249.512c151.644-136.858,291.799-349.756,391.26-529.448
			c104.64-189.024,213.061-310.855,296.565-512.41c38.497-92.937,113.567-256.225,144.461-414.027
			C4651.971,2794.521,4685.361,2627.794,4626.941,2387.836z M3762.847,2780.444c-39.53,49.251-64.43,107.457-81.533,168.123
			c-7.869,27.924-14.235,55.307-24.561,82.099c-12.474,32.379-22.088,62.601-30.175,95.728
			c-4.468,18.293-31.872,47.546-38.053,14.468c-0.718-3.842-0.932-8.46-0.766-13.619c6.709-31.061,12.297-62.479,17.73-93.94
			c0.04-0.18,0.083-0.369,0.122-0.547c7.033-32.067,12.63-63.899,17.141-95.463c0.686-3.457,1.371-6.913,2.08-10.362
			c3.818-18.589,5.2-37.387,5.985-56.264c4.146-41.246,6.798-81.975,8.734-122.1c2.335-48.358-2.116-94.692-11.569-141.371
			c-0.171-0.839-0.413-1.861-0.699-3.009c-1.278-7.292-2.651-14.599-4.124-21.926c-1.6-7.952-3.23-15.896-4.863-23.838
			c-0.133-7.728,1.268-14.095,5.47-17.031c13.266-9.278,23.478,21.998,30.264,30.117c33.213,39.763,63.518,54.058,112.234,65.913
			c24.294,5.914,73.35,8.68,74.65,42.816C3842.151,2712.605,3782.593,2755.846,3762.847,2780.444z" style="stroke:black;fill:#9ad2bd"/><path id="180609129" parent_id="180609119" order="4" structure_id="212" d="
			M2979.584,3468.109c1.641,18.437,8.766,23.688,19.511,42.351c13.137,22.831,22.088,49.479,23.906,77.873
			c0.694,10.838,3.127,24.54-1.6,34.958c-2.004,4.415-18.227,19.139-18.308,19.838c-7.19,55.704,43.078,106.938,71.661,149.15
			c21.539,31.843,12.248,63.524,26.523,97.4c7.498,17.802,20.731,30.756,27.873,48.308c7.497,18.416,1.341,35.487,8.03,53.713
			c7.489,20.408,24.456,25.894,38.287,44.092c14.55,19.143,22.774,44.785,24.746,69.039c4.12,50.546-11.108,100.454,17.726,145.902
			c7.327,11.564,90.994,118.143,67.273,131.062c37.019-20.104,43.304,44.078,71.815,55.39c18.299,7.259,36.113,1.522,55.794,11.852
			c17.313,9.104,25.158,26.648,48.127,18.844c17.426-5.926,29.415-29.94,43.514-41.045c24.083-18.966,24.091-12.184,49.258-8.762
			c29.012,3.938,23.623,9.331,44.895-13.884c12.887-14.065,18.905-28.458,37.317-38.674c24.899-13.819,33.447-0.259,55.883-4.638
			c21.361-4.169,22.226-17.026,34.724-33.758c16.603-22.25,42.536-32.058,61.901-51.031c18.332-17.947,29.845-41.76,44.436-62.503
			c31.137-44.272,82.77-32.315,123.884-59.518c37.002-24.468,57.297-64.026,76.46-102.708
			c16.853-34.013,43.861-63.425,57.329-98.814c17.168-45.142,20.634-91.983,39.781-136.091
			c33.818-77.897,40.112-167.849,83.254-242.85c20.845-36.234,38.586-47.452,34.846-93.066
			c-1.479-17.955-11.537-35.438-12.482-52.332c-1.301-23.444,17.928-34.125,18.59-55.498c0.646-21.47-18.679-31.916-12.765-56.884
			c5.841-24.714,22.347-22.662,34.013-38.812c14.542-20.142,6.083-38.339,11.133-61.74c5.3-24.58,19.624-34.274,33.447-52.768
			c24.406-32.663,0.129-71.56,30.781-99.513c22.483-20.509,76.969-44.249,107.16-49.67c4.137-26.051,7.296-39.466,20.189-61.667
			c12.199-20.993,21.401-27.352,18.945-54.937c-4.29-47.966,3.991-77.256,30.636-116.168c23.155-33.814,49.484-70.776,53.12-112.832
			c4.597-53.091-23.761-101.674-16.474-155.811c7.094-52.655,23.324-105.798,15.245-159.617
			c-7.166-47.642-45.961-90.21-39.271-140.279c52.764,33.834,72.274,118.567,86.243,175.823
			c58.412,239.958,25.029,406.688-16.312,617.845c-30.895,157.803-105.965,321.091-144.461,414.027
			c-83.505,201.555-191.926,323.386-296.565,512.41c-99.462,179.692-239.617,392.586-391.261,529.448
			c-89.128,80.442-183.442,183.369-298.706,226.07c-121.639,45.072-282.92-82.644-317.7-191.864
			c-71.362-224.103-111.039-326.237-219.16-500.234c-58.533-94.177-116.88-263.904-146.457-370.438
			c-47.497-171.057-25.288-250.743-36.13-426.91c-10.471-170.155-27.59-407.302,2.254-575.729
			c31.896-179.988,72.55-361.28,134.759-532.817c74.465-205.339,174.661-443.415,384.708-544.814
			c100.616-48.571,208.528-46.086,314.331-15.657c28.034,8.067,54.93,14.999,82.221,25.623c14.85,5.781,22.12,16.396,1.002,18
			c-9.501,0.719-27.389-1.898-35.483,3.345c-10.6,6.879-1.269,21.773-11.125,31.031c-27.679,25.974-67.46-4.5-92.529-16.15
			c-31.395-14.59-75.167-10.389-107.758-2.714c-18.703,4.403-37.172,11.003-53.12,21.967c-27.17,18.695-31.322,43.877-45.792,72.699
			c-21.288,42.382-70.255,62.022-97.975,99.081c-26.217,35.051-8.814,79.542-35.968,112.944
			c-12.862,15.819-30.434,23.655-34.506,43.203c-4.831,23.178,7.627,43.638-4.71,70.513c-7.748,16.881-28.406,33.237-33.075,50.805
			c-5.599,21.114,7.562,45.404,0.016,68.485c-5.784,17.669-22.338,29.569-28.091,47.383c-7.603,23.587-0.484,38.193-11.698,59.51
			c-16.102,30.604-40.354,59.664-46.342,94.561c-6.843,39.87,9.865,64.285-16.287,100.927
			c-26.006,36.453-33.27,44.932-17.022,86.684c11.165,28.705,19.664,57.514,6.641,87.827c-6.302,14.671-21.086,23.449-28.01,37.086
			c-11.182,22.028-7.279,10.156-3.118,32.676c9.412,50.89,10.276,85.585-0.049,135.836c-9.331,45.433,2.488,91.482-4.54,137.036
			c-3.401,22.06-17.096,52.34-16.094,73.789c1.123,24.221,17.588,34.675,29.577,54.856c32.3,54.384,11.497,106.622-16.958,157.1
			c-32.615,57.857-0.477,88.243,9.024,148.237c3.846,24.313-4.347,48.103-5.154,72.242
			C2979.124,3459.364,2979.221,3464.054,2979.584,3468.109z" style="stroke:black;fill:#82c7ae"/><path id="180609125" parent_id="180609119" order="5" structure_id="220" d="
			M4293.592,2245.266c3.354-18.053,2.537-36.598,3.305-54.981c0.501-11.993-8.62-99.093-11.844-119.573
			c30.685,2.779,56.367,66.47,66.369,81.525c10.511,15.815,14.793,34.716,22.742,51.972c17.419,37.806,26.896,78.548,31.961,119.735
			c5.478,44.54,6.835,89.871,3.749,134.64c-10.431,151.413-79.95,264.813-176.688,375.156
			c-68.059,77.64-149.826,228.829-177.004,326.634c-31.307,112.674-47.667,182.585-57.28,292.015
			c-10.431,118.79-15.94,249.039-68.276,361.159c-64.132,137.379-269.113,320.275-426.218,228.413
			c-115.806-67.718-163.892-257.421-179.04-378.711c-16.796-134.583-32.979-260.397-16.271-394.509
			c19.374-155.447,43.942-325.785,47.747-481.075c2.384-97.34-10.446-171.258-22.104-267.814
			c-9.122-75.587-20.957-167.271-12.038-250.024c7.756-71.915,27.654-127.733,46.955-197.45
			c32.6-117.792,132.609-292.629,265.946-302.821c77.155-5.881,33.697,80.628,22.354,125.346
			c-14.76,58.12-22.549,155.027-31.273,217.555c-1.729,12.345-0.049,10.555-1.907,25.194
			c-54.372,95.95-37.357,252.274-15.56,377.963c12.999,74.981,34.877,134.685,30.547,228.434
			c-3.604,78.011-10.172,154.579-23.22,231.862c-7.384,43.724-18.194,88.521-26.313,131.914
			c-20.893,111.563-76.121,209.218-81.881,323.479c-2.149,42.548,12.522,114.718,50.623,144.408
			c17.168,13.383,41.018,27.893,66.902,10.207c84.119-57.453,89.653-245.944,102.862-325.716
			c12.2-73.664,14.979-153.836,37.601-231.968c21.579-74.537,31.039-129.498,67.46-194.636
			c61.223-109.51,172.447-191.06,245.296-293.46c42.229-59.365,23.275-37.883,81.582-76.177
			c74.828-49.149,98.871-103.613,120.919-171.416C4286.628,2277.041,4290.619,2261.25,4293.592,2245.266z" style="stroke:black;fill:#82c7ae"/><path id="180609126" parent_id="180609119" order="6" structure_id="228" d="
			M3606.899,1760.364c-0.606,0.209-1.217,0.416-1.833,0.619c-0.292,0.096-0.585,0.192-0.879,0.288
			c-0.623,0.201-1.25,0.399-1.882,0.595c-0.261,0.081-0.519,0.163-0.78,0.243c-1.779,0.543-3.589,1.066-5.422,1.57
			c-0.275,0.076-0.553,0.15-0.829,0.225c-0.657,0.179-1.316,0.355-1.979,0.529c-0.311,0.082-0.62,0.163-0.932,0.243
			c-0.668,0.173-1.339,0.343-2.012,0.512c-0.272,0.068-0.545,0.138-0.817,0.205c-1.881,0.466-3.775,0.917-5.678,1.354
			c-0.288,0.066-0.578,0.132-0.867,0.197c-0.678,0.155-1.355,0.308-2.035,0.459c-0.317,0.071-0.635,0.142-0.952,0.212
			c-0.689,0.152-1.378,0.303-2.067,0.452c-0.274,0.06-0.548,0.119-0.822,0.178c-1.911,0.411-3.819,0.813-5.72,1.207
			c-0.3,0.062-0.6,0.124-0.899,0.186c-0.675,0.139-1.349,0.278-2.021,0.415c-0.317,0.065-0.633,0.13-0.95,0.194
			c-0.72,0.147-1.437,0.293-2.152,0.438c-0.236,0.048-0.473,0.097-0.709,0.145c-0.928,0.188-1.852,0.375-2.769,0.562
			c-0.869,0.177-1.732,0.352-2.59,0.527c-0.265,0.054-0.527,0.108-0.791,0.162c-0.656,0.134-1.309,0.268-1.957,0.402
			c-0.303,0.062-0.605,0.125-0.906,0.187c-0.64,0.133-1.273,0.265-1.905,0.397c-0.266,0.056-0.532,0.111-0.797,0.167
			c-1.753,0.37-3.472,0.74-5.147,1.113c-0.245,0.055-0.486,0.109-0.729,0.164c-0.588,0.132-1.171,0.265-1.748,0.398
			c-0.282,0.065-0.562,0.13-0.841,0.195c-0.564,0.132-1.121,0.265-1.674,0.398c-0.245,0.06-0.493,0.118-0.736,0.178
			c-1.556,0.381-3.061,0.767-4.507,1.161c-0.223,0.061-0.439,0.123-0.66,0.184c-0.503,0.14-1,0.281-1.488,0.423
			c-0.237,0.069-0.474,0.139-0.708,0.208c-0.482,0.144-0.954,0.289-1.42,0.435c-0.203,0.063-0.408,0.126-0.607,0.19
			c-0.651,0.209-1.289,0.419-1.905,0.634c-0.612,0.214-1.202,0.431-1.778,0.651c-0.177,0.067-0.347,0.136-0.521,0.205
			c-0.397,0.156-0.788,0.314-1.166,0.474c-0.188,0.079-0.372,0.158-0.554,0.238c-0.367,0.16-0.722,0.323-1.069,0.488
			c-0.156,0.074-0.315,0.147-0.468,0.222c-0.482,0.237-0.951,0.478-1.391,0.723c-41.162,22.959-79.206,75.958-105.811,113.633
			c-55.996,79.283-78.965,138.216-106.264,240.959c-42.197,158.816-36.768,339.68-29.998,499.813
			c2.206,52.131,12.677,102.488,15.052,155.027c4.969,109.989-4.008,198.494-19.471,306.949
			c-5.47,38.32-52.393,184.445-50.195,279.26c4.331,186.203,60.957,431.266,137.312,593.855
			c36.089,76.827,61.555,135.005,110.045,160.856c37.721,20.107,105.682,11.972,162.292-3.316
			c87.771-23.694,208.262-98.159,272.183-177.486c49.904-61.935,89.233-179.776,116.451-338.326
			c26.977-157.164,14.833-296.645,48.394-397.09c17.992-53.812,47.804-121.695,92.174-192.395
			c51.101-81.433,118.124-165.615,152.831-220.133c67.291-105.717,90.51-132.667,120.104-256.317
			c29.497-123.271-1.316-266.084-64.342-372.559c-0.84-1.419-1.701-2.834-2.574-4.247c-0.299-0.482-0.607-0.963-0.91-1.445
			c-0.583-0.929-1.167-1.858-1.764-2.784c-0.367-0.57-0.741-1.139-1.113-1.708c-0.547-0.837-1.095-1.674-1.651-2.51
			c-0.399-0.599-0.804-1.197-1.207-1.795c-0.546-0.808-1.093-1.615-1.646-2.421c-0.416-0.605-0.835-1.21-1.255-1.815
			c-0.555-0.799-1.113-1.597-1.676-2.395c-0.425-0.604-0.852-1.207-1.28-1.811c-0.575-0.808-1.155-1.616-1.737-2.424
			c-0.42-0.583-0.839-1.167-1.263-1.75c-0.615-0.847-1.235-1.694-1.856-2.541c-0.396-0.54-0.79-1.08-1.188-1.619
			c-0.701-0.95-1.408-1.9-2.115-2.85c-0.322-0.432-0.641-0.864-0.964-1.295c-1.032-1.381-2.069-2.761-3.11-4.142
			c-0.086-0.114-0.174-0.229-0.26-0.344c-0.979-1.297-1.962-2.594-2.946-3.892c-0.329-0.433-0.659-0.867-0.988-1.3
			c-1.249-1.644-2.499-3.289-3.752-4.935c-0.369-0.485-0.737-0.97-1.106-1.456c-0.607-0.798-1.214-1.597-1.82-2.396
			c-0.51-0.672-1.02-1.344-1.528-2.016c-0.557-0.734-1.111-1.47-1.667-2.205c-0.517-0.685-1.032-1.37-1.548-2.056
			c-0.538-0.715-1.075-1.431-1.61-2.147c-0.209-0.279-0.42-0.558-0.628-0.837c-0.141-0.188-0.278-0.379-0.419-0.567
			c-1.638-2.197-3.269-4.399-4.88-6.611c12.411,18.845,22.054,40.12,27.302,48.019c10.511,15.813,14.793,34.713,22.742,51.969
			c17.419,37.804,26.896,78.544,31.961,119.729c5.478,44.537,7.796,89.942,3.749,134.633
			c-14.793,163.466-77.276,261.01-176.689,375.136c-67.807,77.854-149.825,228.817-176.995,326.616
			c-31.314,112.668-47.675,182.576-57.289,292c-10.43,118.783-15.939,249.026-68.275,361.141
			c-64.124,137.371-269.105,320.262-426.21,228.4c-115.806-67.714-163.892-257.402-179.04-378.69
			c-16.796-134.572-32.986-260.38-16.271-394.484c19.365-155.439,43.934-325.768,47.739-481.054
			c2.384-97.331-10.446-171.246-22.104-267.797c-9.121-75.583-20.957-167.267-12.037-250.011
			c7.756-71.911,27.654-127.73,46.947-197.44c0.48-1.736,0.978-3.486,1.487-5.247c0.019-0.065,0.037-0.131,0.056-0.197
			c0.497-1.711,1.009-3.436,1.532-5.168c0.035-0.116,0.069-0.231,0.104-0.347c0.512-1.688,1.038-3.387,1.575-5.094
			c0.053-0.168,0.104-0.335,0.157-0.502c0.53-1.678,1.074-3.366,1.629-5.061c0.063-0.194,0.127-0.388,0.19-0.582
			c0.55-1.674,1.113-3.356,1.687-5.046c0.075-0.221,0.149-0.441,0.225-0.662c0.572-1.676,1.156-3.36,1.751-5.049
			c0.082-0.233,0.164-0.466,0.246-0.7c0.595-1.681,1.2-3.368,1.817-5.061c0.09-0.248,0.18-0.495,0.271-0.743
			c0.618-1.69,1.248-3.386,1.889-5.087c0.094-0.249,0.188-0.498,0.282-0.747c0.645-1.704,1.299-3.413,1.966-5.127
			c0.097-0.25,0.194-0.5,0.292-0.75c0.672-1.721,1.355-3.447,2.049-5.177c0.096-0.237,0.191-0.475,0.287-0.713
			c0.703-1.747,1.418-3.498,2.144-5.252c0.091-0.22,0.183-0.44,0.274-0.66c0.736-1.775,1.483-3.553,2.242-5.334
			c0.084-0.198,0.17-0.396,0.254-0.593c0.771-1.804,1.553-3.612,2.348-5.422c0.075-0.172,0.152-0.345,0.229-0.518
			c0.809-1.839,1.628-3.68,2.461-5.523c0.061-0.134,0.121-0.269,0.183-0.402c0.853-1.887,1.718-3.774,2.596-5.664
			c0.034-0.075,0.069-0.149,0.104-0.224c1.82-3.914,3.692-7.833,5.616-11.753c0.025-0.052,0.051-0.105,0.076-0.157
			c0.939-1.913,1.893-3.826,2.856-5.738c0.057-0.112,0.113-0.225,0.17-0.337c0.941-1.865,1.896-3.729,2.859-5.592
			c0.082-0.159,0.164-0.318,0.246-0.477c0.949-1.83,1.911-3.659,2.883-5.485c0.1-0.188,0.198-0.375,0.299-0.563
			c0.959-1.8,1.93-3.597,2.91-5.392c0.118-0.217,0.236-0.434,0.354-0.65c0.97-1.771,1.951-3.539,2.941-5.304
			c0.133-0.237,0.266-0.475,0.399-0.712c0.984-1.75,1.98-3.497,2.985-5.241c0.143-0.249,0.286-0.498,0.43-0.746
			c1.003-1.734,2.016-3.465,3.038-5.191c0.149-0.252,0.299-0.504,0.447-0.755c1.025-1.725,2.06-3.445,3.104-5.162
			c0.151-0.248,0.303-0.496,0.455-0.745c1.05-1.72,2.109-3.435,3.179-5.145c0.148-0.237,0.297-0.474,0.446-0.711
			c1.078-1.718,2.165-3.43,3.262-5.137c0.145-0.223,0.289-0.446,0.433-0.669c1.109-1.719,2.228-3.433,3.356-5.139
			c0.133-0.202,0.268-0.403,0.401-0.605c1.145-1.725,2.298-3.444,3.462-5.154c0.119-0.175,0.238-0.35,0.358-0.524
			c1.185-1.737,2.378-3.466,3.583-5.187c0.095-0.136,0.191-0.271,0.286-0.407c1.234-1.759,2.479-3.51,3.733-5.25
			c0.059-0.082,0.118-0.162,0.177-0.244c1.294-1.792,2.598-3.574,3.913-5.345c0.014-0.018,0.026-0.035,0.04-0.053
			c1.332-1.792,2.675-3.573,4.029-5.342c0.027-0.036,0.055-0.073,0.083-0.109c1.325-1.731,2.663-3.45,4.01-5.158
			c0.074-0.094,0.148-0.189,0.223-0.284c1.31-1.658,2.631-3.304,3.96-4.938c0.115-0.142,0.229-0.284,0.345-0.425
			c1.303-1.597,2.615-3.181,3.936-4.755c0.145-0.172,0.288-0.345,0.433-0.517c1.302-1.545,2.612-3.078,3.932-4.6
			c0.167-0.192,0.334-0.386,0.501-0.578c1.307-1.502,2.624-2.99,3.948-4.468c0.183-0.203,0.364-0.407,0.547-0.61
			c1.315-1.461,2.641-2.909,3.973-4.345c0.196-0.211,0.392-0.422,0.589-0.633c1.326-1.423,2.661-2.833,4.004-4.229
			c0.207-0.214,0.412-0.428,0.619-0.642c1.343-1.39,2.693-2.766,4.052-4.128c0.208-0.209,0.417-0.417,0.626-0.625
			c1.363-1.36,2.734-2.707,4.114-4.038c0.207-0.2,0.414-0.398,0.622-0.597c1.389-1.334,2.785-2.654,4.19-3.958
			c0.197-0.183,0.396-0.365,0.593-0.547c1.419-1.311,2.846-2.606,4.281-3.885c0.187-0.167,0.375-0.332,0.563-0.498
			c1.451-1.287,2.911-2.56,4.379-3.813c0.169-0.144,0.339-0.286,0.508-0.429c1.493-1.27,2.994-2.523,4.504-3.757
			c0.139-0.113,0.277-0.224,0.416-0.336c1.544-1.257,3.097-2.497,4.658-3.714c0.098-0.077,0.197-0.151,0.295-0.228
			c1.605-1.248,3.219-2.478,4.842-3.683c0.044-0.032,0.087-0.063,0.131-0.095c1.645-1.221,3.299-2.418,4.961-3.594
			c0.039-0.027,0.077-0.055,0.115-0.082c1.646-1.162,3.301-2.298,4.964-3.414c0.098-0.066,0.195-0.133,0.293-0.199
			c1.617-1.082,3.243-2.139,4.876-3.176c0.146-0.093,0.292-0.188,0.438-0.28c1.598-1.01,3.205-1.996,4.818-2.962
			c0.184-0.11,0.366-0.222,0.55-0.331c1.588-0.945,3.183-1.866,4.785-2.768c0.212-0.119,0.424-0.24,0.637-0.359
			c1.585-0.885,3.178-1.746,4.776-2.588c0.231-0.121,0.462-0.244,0.693-0.365c1.588-0.829,3.184-1.633,4.786-2.418
			c0.245-0.12,0.49-0.241,0.736-0.36c1.595-0.773,3.196-1.523,4.804-2.251c0.257-0.116,0.513-0.232,0.769-0.347
			c1.606-0.72,3.22-1.417,4.84-2.09c0.259-0.107,0.518-0.214,0.776-0.321c1.624-0.667,3.254-1.312,4.891-1.933
			c0.257-0.097,0.514-0.193,0.771-0.289c1.645-0.615,3.295-1.208,4.953-1.775c0.25-0.085,0.502-0.169,0.752-0.253
			c1.671-0.563,3.347-1.104,5.03-1.617c0.236-0.072,0.474-0.141,0.71-0.212c1.703-0.511,3.412-0.999,5.129-1.458
			c0.214-0.057,0.429-0.111,0.643-0.167c1.744-0.459,3.494-0.894,5.252-1.297c0.182-0.042,0.364-0.08,0.546-0.121
			c1.793-0.406,3.593-0.786,5.399-1.133c0.14-0.027,0.279-0.051,0.419-0.077c1.853-0.351,3.712-0.674,5.579-0.961
			c0.021-0.003,0.043-0.008,0.065-0.011l-13.15-11.909c-0.827,0.31-1.668,0.611-2.516,0.909
			C3607.414,1760.189,3607.155,1760.276,3606.899,1760.364z" style="stroke:black;fill:#9ad2bd"/><path id="180609127" parent_id="180609119" order="7" structure_id="236" d="M3638.794,1728.938
			c-4.104-54.663-103.509-12.575-150.554,33.007c-100.979,97.845-141.229,157.96-181.648,263.217
			c-82.964,216.068-70.207,469.898-48.022,683.729c6.738,64.947,12.668,123.205,6.568,187.493
			c-20.133,212.349-89.572,366.928-76.282,582.871c4.969,80.709,17.079,119.362,33.924,221.809
			c22.396,136.239,76.242,227.311,147.96,384.422c17.192,37.664,52.174,93.029,84.806,103.201
			c125.152,39.014,351.552-75.256,441.083-177.447c86.115-98.272,133.878-172.74,152.8-296.284
			c20.294-132.459,37.171-298.825,73.106-425.335c29.724-104.631,47.416-180.888,83.901-254.067
			c25.126-50.368,47.974-86.566,98.807-143.346c39.426-44.03,61.578-87.839,92.82-138.353
			c84.337-136.353,78.553-241.735,80.62-355.435c1.576-86.498-29.02-201.466-75.886-262.983
			c-17.588-23.094-37.964-39.434-64.067-72.254c-21.999-27.659-45.703-60.899-54.032-34.336
			c13.767,54.751,61.748,98.156,89.888,145.688c63.024,106.481,93.838,249.301,64.341,372.579
			c-29.593,123.661-52.813,150.608-120.11,256.33c-34.7,54.521-101.724,138.708-152.823,220.145
			c-44.379,70.703-74.19,138.587-92.174,192.405c-33.568,100.449-21.426,239.938-48.402,397.11
			c-27.218,158.558-66.539,276.402-116.443,338.34c-63.929,79.335-184.42,153.804-272.19,177.499
			c-56.61,15.285-124.571,23.421-162.284,3.313c-48.49-25.853-73.964-84.033-110.045-160.865
			c-76.362-162.593-132.988-407.673-137.311-593.886c-2.206-94.815,44.726-240.952,50.187-279.271
			c15.472-108.465,24.447-196.97,19.471-306.969c-2.375-52.542-12.838-102.898-15.043-155.036
			c-6.771-160.138-12.199-341.014,29.997-499.839c27.299-102.749,50.268-161.685,106.264-240.968
			c26.612-37.681,64.648-90.679,105.812-113.643C3548.445,1768.041,3641.71,1767.673,3638.794,1728.938z" style="stroke:black;fill:#82c7ae"/><path id="180609128" parent_id="180609119" order="8" structure_id="244" d="
			M3636.184,2143.549c8.983-56.266,19.957-112.199,28.342-164.373c4.524-28.158,11.965-55.807,18.558-83.557
			c11.771-49.465,27.872-100.101,52.716-144.723c11.262-20.208,26.063-38.123,38.148-57.818
			c13.121-21.388,28.648-46.71,54.55-54.288c5.029-1.471,9.598-1.203,13.892,0.079c-48.971-29.316-101.144-56.934-155.012-79.242
			c7.773,5.578,8.254,12.086-7.922,13.311c-9.501,0.723-27.38-1.898-35.475,3.349c-10.6,6.875-1.269,21.772-11.133,31.03
			c-27.671,25.973-67.452-4.503-92.521-16.153c-31.396-14.59-75.168-10.385-107.759-2.71c-18.711,4.403-37.18,10.999-53.119,21.966
			c-27.17,18.689-31.322,43.875-45.792,72.691c-21.288,42.384-70.256,62.019-97.983,99.079
			c-26.208,35.049-8.806,79.538-35.968,112.938c-12.854,15.818-30.426,23.654-34.497,43.196c-4.831,23.181,7.627,43.64-4.71,70.514
			c-7.748,16.88-28.406,33.235-33.076,50.802c-5.599,21.114,7.563,45.402,0.017,68.482c-5.785,17.667-22.339,29.567-28.091,47.38
			c-7.603,23.585-0.485,38.191-11.698,59.507c-16.102,30.602-40.355,59.66-46.342,94.556c-6.843,39.868,9.864,64.281-16.287,100.921
			c-25.999,36.451-33.27,44.929-17.022,86.679c11.165,28.703,19.664,57.511,6.641,87.822c-6.294,14.671-21.086,23.448-28.002,37.084
			c-11.189,22.026-7.279,10.155-3.118,32.674c9.412,50.887,10.269,85.58-0.057,135.829c-9.331,45.43,2.488,91.478-4.541,137.028
			c-3.393,22.059-17.095,52.341-16.093,73.789c1.131,24.216,17.588,34.67,29.577,54.85c32.308,54.381,11.505,106.621-16.958,157.096
			c-32.615,57.851-0.469,88.234,9.024,148.226c3.854,24.313-4.347,48.1-5.146,72.238c-0.194,5.611-0.097,10.301,0.267,14.355
			c1.64,18.436,8.766,23.687,19.503,42.349c13.145,22.834,22.088,49.477,23.906,77.869c0.702,10.837,3.126,24.538-1.592,34.956
			c-2.012,4.415-18.227,19.138-18.315,19.837c-7.19,55.701,43.086,106.932,71.669,149.143
			c21.539,31.841,12.248,63.521,26.516,97.395c7.506,17.802,20.739,30.755,27.881,48.306c7.497,18.415,1.333,35.485,8.022,53.711
			c7.497,20.406,24.464,25.892,38.295,44.084c14.55,19.146,22.774,44.788,24.746,69.04c4.112,50.543-11.108,100.448,17.726,145.891
			c7.327,11.568,90.994,118.141,67.273,131.055c37.011-20.1,43.304,44.08,71.815,55.387c18.299,7.263,36.113,1.526,55.794,11.854
			c17.313,9.101,25.157,26.644,48.126,18.844c17.427-5.926,29.416-29.939,43.515-41.043c24.083-18.969,24.091-12.187,49.258-8.766
			c29.012,3.938,23.623,9.335,44.895-13.879c12.887-14.068,18.905-28.457,37.317-38.676c24.892-13.814,33.447-0.259,55.883-4.638
			c21.361-4.164,22.226-17.025,34.724-33.756c16.603-22.248,42.536-32.052,61.901-51.024c18.332-17.946,29.845-41.758,44.436-62.504
			c31.137-44.271,82.77-32.314,123.884-59.515c37.002-24.466,57.297-64.022,76.46-102.703c16.853-34.011,43.861-63.42,57.321-98.809
			c17.176-45.139,20.642-91.979,39.789-136.083c33.811-77.894,40.112-167.841,83.246-242.838
			c20.844-36.232,38.586-47.449,34.845-93.061c-1.47-17.955-11.528-35.438-12.474-52.329c-1.309-23.444,17.919-34.124,18.582-55.496
			c0.654-21.469-18.671-31.914-12.766-56.881c5.85-24.713,22.347-22.66,34.014-38.81c14.542-20.14,6.083-38.337,11.141-61.736
			c5.292-24.579,19.624-34.273,33.439-52.766c24.414-32.661,0.129-71.556,30.789-99.507c22.483-20.512,76.961-44.247,107.16-49.668
			c4.129-26.049,7.287-39.463,20.189-61.663c12.191-20.996,21.401-27.354,18.938-54.935c-4.29-47.962,3.991-77.251,30.636-116.161
			c23.154-33.813,49.484-70.772,53.128-112.825c4.589-53.089-23.769-101.669-16.481-155.804
			c7.094-52.656,23.324-105.792,15.245-159.612c-7.166-47.635-45.962-90.202-39.272-140.269
			c20.49,13.138,35.963,33.954,48.047,57.852c-45.084-109.606-115.888-210.639-219.774-297.595
			c-59.729-49.991-126.451-90.915-194.526-130.028c5.052,2.903,10.096,5.815,15.131,8.741c0,0,35.41,87.43,50.058,135.268
			c37.13,121.303,73.774,263.168,10.119,382.613c16.278-28.101,27.869-58.708,36.425-91.566c1.042-3.983,4.767-16.291,7.416-32.032
			c10.357-61.441-4.532-144.202-8.814-174.513c11.508,1.041,22.354,10.651,31.941,23.048
			c-14.092-20.389-26.161-41.637-32.021-64.944c8.321-26.562,32.033,6.677,54.032,34.334c26.104,32.819,46.479,49.158,64.066,72.247
			c46.867,61.519,77.462,176.48,75.887,262.974c-2.068,113.694,3.717,219.07-80.612,355.416
			c-31.25,50.512-53.395,94.317-92.82,138.346c-50.833,56.776-73.689,92.973-98.807,143.338
			c-36.493,73.176-54.178,149.43-83.909,254.055c-35.936,126.502-52.805,292.86-73.099,425.313
			c-18.93,123.537-66.685,198.006-152.8,296.273c-89.531,102.182-315.931,216.444-441.091,177.438
			c-32.632-10.171-67.614-65.538-84.798-103.196c-71.726-157.104-125.564-248.169-147.96-384.402
			c-16.845-102.439-28.955-141.092-33.924-221.797c-13.29-215.932,56.142-370.503,76.274-582.84
			c6.1-64.289,0.17-122.544-6.568-187.483c-22.186-213.819-34.941-467.636,48.021-683.693
			c40.42-105.251,80.67-165.368,181.649-263.204c47.045-45.583,146.449-87.665,150.553-33.009
			c1.091,14.524-11.343,23.655-28.608,30.118l13.15,11.909c-0.022,0.003-0.044,0.008-0.065,0.011
			c4.075-0.627,8.184-1.103,12.324-1.419c77.163-5.885,33.464,81.606,22.112,126.321c-14.752,58.117-25.077,146.408-30.757,209.207
			c-1.123,12.413-2.779,23.125-3.999,36.543L3636.184,2143.549z" style="stroke:black;fill:#9ad2bd"/><path id="180609130" parent_id="180609119" order="9" structure_id="151" d="M4189.583,1850.963
			c-81.154-47.161-164.854-90.953-241.435-143.806c-14.275-9.856-28.656-19.563-43.158-29.088
			c-12.207-8.019-23.946-16.752-36.614-24.031c-12.611-7.247-23.931-20.052-39.878-15.382c-25.901,7.574-41.43,32.898-54.55,54.287
			c-12.087,19.697-26.888,37.612-38.142,57.822c-24.843,44.624-40.944,95.263-52.716,144.731
			c-6.601,27.751-14.033,55.401-18.565,83.561c-17.62,109.697-46.697,236.008-44.669,347.102
			c0.775,42.383,3.248,91.269,19.39,130.993c44.645,109.871,177.779,111.434,277.814,96.738
			c119.788-17.64,259.345-66.207,327.371-175.455c74.318-119.359,33.334-267.633-4.8-392.194
			C4224.985,1938.398,4189.583,1850.963,4189.583,1850.963z" style="stroke:black;fill:#9df0d2"/><path id="180609131" parent_id="180609119" order="10" structure_id="188" d="
			M4081.598,1789.633c-45.469-25.775-90.412-52.64-133.449-82.341c-14.276-9.856-28.656-19.563-43.158-29.087
			c-12.208-8.018-23.955-16.755-36.623-24.03c-12.603-7.247-23.922-20.051-39.87-15.386c-25.901,7.578-41.429,32.9-54.55,54.288
			c-12.086,19.695-26.887,37.61-38.148,57.818c-7.805,14.016-26.968,40.037-6.682,50.176c22.863,11.415,48.725,18.561,72.219,28.796
			c32.413,14.122,65.513,30.687,96.286,47.906c26.184,14.663,56.828,28.727,87.843,23.351c16.676-2.892,33.367-15.806,48.854-22.547
			c21.772-9.472,34.239-11.98,57.458-10.83c22.573,1.119,45.372,5.199,65.028,16.925c9.372,5.586,32.009,29.551,44.483,25.274
			c21.135-7.247-1.826-28.873-10.834-58.243C4168.649,1839.005,4153.518,1830.401,4081.598,1789.633z" style="stroke:black;fill:#9df0d2"/><path id="180609133" parent_id="180609119" order="11" structure_id="196" d="M3917.061,2553.887
			c52.974-7.788,109.019-23.95,167.995-47.331c52.288-20.723,247.187-139.678,129.928-212.465
			c-42.755-26.543-80.848,14.76-125.799,24.201c-116.428,24.455-235.424,67.96-347.916-1.822
			c-22.443-13.924-72.881-78.689-97.029-75.235c-25.765,3.68-24.544,76.334-24.391,84.781c0.768,42.415,3.239,91.365,19.397,131.13
			C3683.891,2567.016,3817.042,2568.579,3917.061,2553.887z" style="stroke:black;fill:#95e4c8"/><path id="180609132" parent_id="180609119" order="12" structure_id="204" d="M3676.975,2154.623
			c-13.266-15.66-26.168-36.45-27.815-52.236c-3.28-31.28,4.33-62.468,10.05-93.004c5.963-31.777,14.89-70.514,20.69-98.85
			c3.942-19.271,10.486-42.675,25.441-85.628c28.082-19.607-9.945,89.018-12.426,124.103c-2.456,34.641,6.132,73.947,27.396,101.758
			c42.827,56,125.12,57.907,188.605,48.645c74.425-10.87,143.201-41.572,208.246-78.116c26.677-14.986,68.082-50.435,101.044-36.087
			c30.547,13.293,40.023,65.723,39.66,94.366c-0.719,57.54-32.574,77.045-83.376,99.27l10.633-3.946
			c-20.739,8.813-45.801,18.298-67.25,25.14c-35.273,11.241-70.708,21.243-107.322,27.718
			c-62.71,11.104-140.107,11.318-201.823-3.228c-29.012-6.834-57.789-16.492-83.562-31.696
			c-11.318-6.673-22.516-13.959-32.623-22.394C3687.776,2166.454,3682.348,2160.956,3676.975,2154.623z" style="stroke:black;fill:#9df0d2"/><path id="180609135" parent_id="180609119" order="13" structure_id="1009" d="M4350.881,2438.087
			c-13.937-91.607-30.402-153.65-62.387-213.302c-5.211-9.727-16.102-45.862-31.605-63.772
			c-20.149-23.27-51.294,5.174-71.766,13.883c-20.739,8.813-45.801,18.298-67.25,25.14c-35.273,11.241-70.708,21.243-107.322,27.718
			c-62.71,11.104-140.107,11.318-201.823-3.228c-52.327-12.328-94.653-31.942-127.681-66.64
			c-10.842-11.383-28.042-46.726-45.518-33.538c-6.358,4.794-14.372,18.452-17.427,27.984c-4.395,13.669-12.91,31.955-16.368,45.878
			c-21.555,86.836-15.051,168.208-2.698,255.784c4.95,35.092,12.131,69.745,19.261,104.429c-0.133-7.728,1.268-14.095,5.47-17.031
			c13.266-9.278,23.478,21.998,30.264,30.117c33.213,39.763,63.518,54.058,112.234,65.913c24.294,5.914,73.35,8.68,74.65,42.816
			c1.236,32.367-58.322,75.607-78.068,100.206c-39.53,49.251-64.43,107.457-81.533,168.123
			c-7.869,27.924-14.235,55.307-24.561,82.099c-12.474,32.379-22.088,62.601-30.175,95.728
			c-4.468,18.293-31.872,47.546-38.053,14.468c-0.718-3.842-0.932-8.46-0.766-13.619c-1.537,7.116-3.115,14.22-4.784,21.294
			c-28.051,118.965-106.87,245.899-61.999,370.564c14.882,41.346,57.773,92.822,105.286,66.793
			c21.644-11.855,36.34-36.107,46.221-57.709c12.013-26.264,21.264-53.69,28.583-81.602c10.172-38.83,16.449-78.54,21.144-118.359
			c8.24-69.996,11.593-140.547,22.928-210.172c8.572-52.664,26.597-103.296,39.394-154.983
			c11.739-47.389,28.019-93.024,52.353-135.506c28.171-49.189,66.571-90.011,105.504-130.8
			c18.274-19.146,36.59-38.336,54.073-58.214c19.745-22.45,41.559-44.634,59.857-68.365c7.457-9.666,45.558-45.515,25.36-55.088
			c-8.597-4.072-59.494,14.808-66.798,17.389c-31.307,11.047-64.729,16.634-97.466,21.437
			c-100.019,14.683-233.152,13.115-277.789-96.741c-16.167-39.763-18.631-88.711-19.398-131.124
			c-0.153-8.45-1.373-81.097,24.391-84.776c24.148-3.454,74.586,61.308,97.029,75.232c112.493,69.778,231.489,26.275,347.916,1.817
			c25.353-5.324,47.771-19.792,72.348-27.52c20.278-6.382,38.416-4.572,53.362,3.571c15.221,8.289,27.138,23.145,34.627,42.594
			c15.302,39.698,24.714,84.922,19.987,127.431c-4.75,42.631-19.551,84.494-34.748,124.374
			c-7.957,20.895-16.828,41.395-25.78,61.882c-39.813,91.126-101.876,181.137-159.068,262.335
			c-76.629,108.81-109.075,203.28-142.271,325.574c-33.351,122.851,3.806,300.394-46.721,417.763
			c-33.771,78.438-199.804,115.972-168.198,212.862c17.766,54.445,97.103,19.824,146.684-5.769
			c79.886-41.221,87.642-149.789,94.783-221.231c14.671-146.586,14.574-240.374,44.523-384.976
			c38.86-187.621,147.24-319.798,250.838-477.06C4289.965,2689.036,4368.646,2554.891,4350.881,2438.087z" style="stroke:black;fill:#cccccc"/><path id="180609136" parent_id="180609119" order="14" structure_id="1009" d="
			M3161.944,4495.767c-71.362-224.092-111.039-326.221-219.16-500.205c-58.533-94.176-116.88-263.895-146.466-370.422
			c-47.496-171.048-25.287-250.73-36.129-426.888c-10.471-170.146-27.582-407.281,2.254-575.699
			c31.896-179.974,72.55-361.261,134.759-532.79c-85.743,236.403-150.077,481.479-193.025,729.232
			c-40.226,231.987-30.942,452.209-50.905,683.103c-22.403,258.971-52.7,542.347,69.092,782.421
			c103.823,204.667,374.326,414.896,606.073,426.536c42.79,2.15,83.041-3.885,121.185-15.821
			C3332.888,4712.268,3193.928,4596.199,3161.944,4495.767z" style="stroke:black;fill:#cccccc"/><path id="180609134" parent_id="180609119" order="15" structure_id="98" d="M3588.525,3140.861
			c6.181,33.078,33.585,3.825,38.053-14.468c8.087-33.127,17.701-63.349,30.175-95.728c10.325-26.792,16.691-54.175,24.561-82.099
			c17.104-60.666,42.003-118.872,81.533-168.123c19.746-24.599,79.305-67.839,78.068-100.206
			c-1.301-34.136-50.356-36.903-74.65-42.816c-48.717-11.855-79.021-26.15-112.234-65.913c-6.786-8.119-16.998-39.395-30.264-30.117
			c-4.202,2.937-5.603,9.304-5.47,17.031c1.633,7.942,3.264,15.886,4.863,23.838c1.473,7.327,2.846,14.633,4.124,21.926
			c0.286,1.147,0.528,2.169,0.699,3.009c9.453,46.678,13.904,93.012,11.569,141.371c-1.937,40.125-4.588,80.854-8.734,122.1
			c-0.785,18.877-2.167,37.675-5.985,56.264c-0.709,3.449-1.395,6.905-2.08,10.362c-4.511,31.563-10.107,63.396-17.141,95.463
			c-0.039,0.178-0.082,0.367-0.122,0.547c-5.434,31.461-11.021,62.88-17.73,93.94
			C3587.594,3132.401,3587.808,3137.02,3588.525,3140.861z" style="stroke:black;fill:#aaaaaa"/></g>
</g>
</svg>