<?xml version="1.0" encoding="utf-8"?>
<!-- Generator: Adobe Illustrator 16.0.0, SVG Export Plug-In . SVG Version: 6.00 Build 0)  -->
<!DOCTYPE svg PUBLIC "-//W3C//DTD SVG 1.1//EN" "http://www.w3.org/Graphics/SVG/1.1/DTD/svg11.dtd">
<svg version="1.1" id="Layer_1" xmlns="http://www.w3.org/2000/svg" xmlns:xlink="http://www.w3.org/1999/xlink" x="0px" y="0px"
	 width="9744.01px" height="6823.46px" viewBox="0 0 9744.01 6823.46" enable-background="new 0 0 9744.01 6823.46"
	 xml:space="preserve">
<g transform="scale(1.0)">
	<g id="_x31_80611567" transform=" scale(1.0, 1.0)">
		<path id="_x31_80611569" fill="none" stroke="#010101" stroke-width="64" d="M5828.79,1074.439
			c90.715,20.8,180.188,48.442,271.525,67.917c225.143,48.014,433.228,148.873,643.073,241.438
			c190.598,84.075,374.358,185.472,543.876,308.104c320.048,231.542,579.745,450.668,707.327,844.456
			c36.684,113.177,57.039,230.018,72.648,347.896c10.09,76.215,21.262,152.96,26.352,229.886
			c14.65,221.329-45.48,459.708-124.277,663.021c-64.441,166.261-128.479,321.078-216.877,476.25
			c-89.215,156.589-110.101,337.437-177.394,502.516c-62.394,153.041-181.417,290.475-305.874,394.473
			c-57.262,47.843-108.648,99.664-162.016,149.822c-59.542,55.943-136.729,84.291-188.525,150.844
			c-80.924,103.974-132.504,228.33-223.17,325.373c-86.256,92.311-218.713,132.027-327.908,189.328
			c-117.848,61.826-245.277,138.438-377.251,158.068c-100.413,14.934-205.757,12.898-304.88-9.852
			c-171.496-39.34-375.768-183.01-459.064-345.104c-57.84-112.549-172.375-181.391-230.52-294.291
			c-66.987-130.089-43.549-282.821-46.404-424.008c-1.821-89.54-4.91-181.578-22.777-268.676
			c-13.83-67.447-40.943-132.031-49.119-200.552c-9.338-78.307,2.119-157.899,7.939-236.015
			c4.119-55.199,9.086-113.494,11.102-167.656c6.703-179.323-6.119-360.404,5.48-541.611
			c10.729-167.621,68.018-1829.618,72.77-1925.518c9.697-195.909,1.309-365.554,154.619-508.344
			c138.188-128.708,320.235-162.618,500.763-156.43C5697.808,1048.089,5763.623,1059.5,5828.79,1074.439z"/>
		<path id="_x31_80611570" fill="none" stroke="#010101" stroke-width="64" d="M8093.404,3119.238
			c-5.092-76.924-16.262-153.673-26.354-229.89c-15.605-117.879-35.961-234.722-72.646-347.899
			c-127.586-393.789-387.28-612.917-707.331-844.461c-169.524-122.633-353.282-224.032-543.886-308.106
			c-209.848-92.563-417.934-193.427-643.074-241.44c-91.336-19.474-180.813-47.119-271.528-67.917
			c-65.167-14.94-130.982-26.353-198.591-28.67c-180.527-6.185-362.574,27.729-500.761,156.434
			c-153.318,142.794-144.931,312.441-154.626,508.351c-4.758,95.901-65.059,1757.792-72.771,1925.531
			c-3.874,84.276-6.153,166.312-4.778,250.604c0.613,37.341-0.592,74.787,1.125,112.105c2.719,59.035,40.112,72.58,92.055,72.621
			c30.679,0.029,82.424-13.871,97.658-42.1c20.924-38.797,57.895-161.924,109.508-159.894c14.08,0.554,148.73,8.231,200.91,9.499
			c20.51,0.5,94.99,2.102,108.486-10.215c6.195-5.656,16.053-18.336,17.902-26.77c20.355-92.744,32.953-228.755,42.318-298.295
			c7.029-52.133,25.498-82.938,43.133-128.5l1.416-9.146c-1.252,3.247-2.475,6.614-3.953,9.54
			c-31.355,62.986-81.812,116.287-123.888,171.599c-45.538,59.831-87.852,167.058-153.63,197.84
			c-17.988-50.952,48.118-110.281,71.846-149.745c8.307-13.721,16.03-27.85,23.16-42.23
			c32.156-62.346,50.303-128.445,51.354-132.451c0.079-0.151,0.084-0.227,0.084-0.227s0.09-0.379,0.264-1.059
			c0.003-0.076,0.003-0.076,0.08-0.15c14.354-48.992,25.332-99.721,34.299-150.758c0.093-0.455,0.181-0.834,0.275-1.288
			c16.75-94.562,27.037-190.372,41.414-279.681c15.08-93.865,43.146-202.567,93.773-292.055
			c21.833-38.849,48.023-74.091,79.209-102.874c9.389-8.718,19.207-16.886,29.594-24.265c21.939-15.861,46.086-28.732,72.635-37.845
			c22.687-7.889,47.135-12.96,73.414-14.904c122.83-8.917,257.307,60.358,356.325,128.774
			c36.116,25.016,70.562,52.712,102.358,83.055c57.822,54.962,106.939,118.286,142.398,188.479c1.814,3.507,3.555,7.012,5.217,10.59
			c-0.072-0.079-0.147-0.082-0.219-0.161c2.225,4.516,4.375,9.028,6.382,13.385c1.036,2.255,2.077,4.435,2.97,6.606
			c4.336,10.097,8.444,20.263,12.319,30.647c0.88,2.479,1.757,5.033,2.637,7.51c15.938,47.816,21.11,93.224,24.563,152.463
			c4.017,70.102,4.119,134.708-12.134,174.462c-0.735,1.653-1.396,3.228-2.129,4.803c-1.137,2.323-2.271,4.646-3.476,6.813
			c-3.613,6.5-7.58,12.3-11.898,17.63c-1.414,1.774-2.9,3.474-4.46,5.092c-16.777,17.974-37.804,29.516-59.938,44.682
			c-10.678,7.141-20.943,15.287-30.644,24.3c-0.229,0.144-0.39,0.366-0.543,0.513c-1.239,1.098-2.481,2.271-3.575,3.449
			c-1.083,0.951-2.096,1.979-3.182,3.006c-14.925,14.531-28.188,30.658-39.996,47.908c-0.163,0.375-0.402,0.748-0.713,1.041
			c-28.597,41.484-50.558,89.645-64.506,135.828c-9.324,30.789-18.783,120.598-20.832,139.149
			c-3.3,29.879-4.664,59.988-1.484,88.825c0.02,13.363,0.203,26.352,0.623,38.967c0.818,25.918,1.256,48.004,1.55,73.9
			c-2.026-2.419-3.823-4.954-5.506-7.554l0.948,4.946c38.796,63.707,71.922,134.576,105.627,207.897
			c53.045,115.442,66.575,240.454-29.285,339.994c-44.203,45.895-109.04,61.577-155.355,103.886
			c-97.52,89.09-25.23,259.645,25.037,351.27c87.656,159.779,208.018,245.822,350.615,352.304
			c86.968,64.956,279.076,179.081,279.076,179.081s8.408-12.154,10.783-16.627c4.285-8.068,69.447-85.777,79.504-94.359
			c30.213-25.787,64.18-45.765,96.393-68.676c16.995-12.092,34.748-24.738,50.014-39.074
			c53.373-50.154,104.76-101.982,162.021-149.83c124.458-103.994,243.48-241.422,305.877-394.463
			c67.293-165.087,88.175-345.934,177.394-502.523c88.4-155.174,152.434-309.992,216.877-476.256
			C8047.924,3578.952,8108.055,3340.567,8093.404,3119.238z"/>
		<path id="_x31_80611616" fill="none" stroke="#010101" stroke-width="64" d="M7110.826,1574.758l-65.268,104.414
			c-67.722-34.656-137.23-67.704-208.062-101.261c-209.782-99.419-412.269-215.581-637.435-278.417
			c-85.649-23.908-171.117-48.724-257.244-69.901l10.512-123.596c48.778,12.914,97.632,25.829,146.948,36.319
			c225.202,48.025,433.281,148.906,643.1,241.454C6869.605,1439.435,6992.779,1502.69,7110.826,1574.758z"/>
		<path id="_x31_80611615" fill="none" stroke="#010101" stroke-width="64" d="M7045.559,1679.171l-129.143,206.354l-43.459,69.545
			c2.766-4.427,2.691-4.311,0,0l-69.939-45.435c-3.125-1.925-6.258-3.839-9.39-5.744
			c-126.161-76.636-258.097-135.722-394.259-196.211c-150.955-67.021-316.795-136.539-461.164-191.617
			c-6.422-2.467-12.771-4.856-19.191-7.322l23.801-279.152c86.13,21.177,171.596,45.993,257.246,69.902
			c225.165,62.837,427.65,178.999,637.432,278.417C6908.328,1611.468,6977.836,1644.515,7045.559,1679.171z"/>
		<path id="_x31_80611614" fill="none" stroke="#010101" stroke-width="64" d="M6872.957,1955.071l-208.863,333.884
			c-79.191-60.077-164.044-113.048-250.072-152.699c-182.516-83.916-351.285-184.777-524.349-283.059l29.339-344.452
			c6.422,2.467,12.77,4.854,19.192,7.321c144.37,55.079,310.208,124.596,461.165,191.616
			c139.542,61.991,274.648,122.51,403.648,201.956c21.66,13.298,43.147,27.199,64.464,41.706
			C6869.309,1952.561,6871.131,1953.854,6872.957,1955.071z"/>
		<path id="_x31_80611613" fill="none" stroke="#010101" stroke-width="64" d="M6664.094,2288.956l-239.941,383.593
			c-70.855-54.787-145.823-103.777-233.041-141.721c-133.179-58-253.365-73.49-354.835-51.288l53.396-626.341
			c173.062,98.281,341.833,199.143,524.349,283.059C6500.053,2175.907,6584.902,2228.878,6664.094,2288.956z"/>
		<path id="_x31_80611612" fill="none" stroke="#010101" stroke-width="64" d="M6424.156,2672.547l-59.205,94.574l-4.767,5.235
			c-31.796-30.343-66.241-58.042-102.358-83.056c-99.018-68.416-233.492-137.69-356.324-128.775
			c-26.279,1.944-50.729,7.017-73.414,14.907l8.19-95.893c101.472-22.203,221.655-6.712,354.835,51.287
			C6278.329,2568.768,6353.298,2617.761,6424.156,2672.547z"/>
		<path id="_x31_80611621" fill="none" stroke="#010101" stroke-width="64" d="M5953.329,1105.996l-10.512,123.597
			c-113.576-27.907-228.363-49.522-346.257-54.387c-97.932-4.077-204.293-1.005-292.972,47.282
			c-82.103,44.65-138.337,112.157-175.67,190.638l-67.733-129.497c18.355-27.99,41.095-55.197,69.265-81.427
			c138.14-128.733,320.242-162.658,500.751-156.403c67.6,2.273,133.432,13.721,198.604,28.653
			C5870.451,1083.954,5911.889,1094.976,5953.329,1105.996z"/>
		<path id="_x31_80611620" fill="none" stroke="#010101" stroke-width="64" d="M5942.817,1229.593l-23.802,279.152
			c-94.102-36.076-187.139-72.566-283.804-98.206c-200.674-53.169-346.553,56.478-369.927,241.113
			c-0.846,6.534-1.621,13.146-2.475,19.907l-134.891-258.434c37.332-78.482,93.568-145.988,175.67-190.639
			c88.678-48.285,195.039-51.359,292.971-47.28C5714.454,1180.069,5829.236,1201.686,5942.817,1229.593z"/>
		<path id="_x31_80611619" fill="none" stroke="#010101" stroke-width="64" d="M5919.016,1508.745l-29.34,344.452
			c-57.764-32.738-115.984-65.266-175.368-96.695c-138.882-73.57-250.241,14.218-265.731,162.588
			c-3.049,29.202-5.929,59.786-8.697,91.442l-177.069-338.974c0.854-6.76,1.628-13.375,2.474-19.907
			c23.373-184.635,169.253-294.282,369.928-241.113C5731.877,1436.179,5824.914,1472.669,5919.016,1508.745z"/>
		<path id="_x31_80611618" fill="none" stroke="#010101" stroke-width="64" d="M5889.676,1853.197l-53.395,626.341
			c-45.375,9.9-86.99,27.354-124.379,51.848l-272.023-520.852c2.769-31.658,5.648-62.24,8.697-91.443
			c15.49-148.371,126.85-236.158,265.731-162.587C5773.691,1787.931,5831.91,1820.459,5889.676,1853.197z"/>
		<path id="_x31_80611617" fill="none" stroke="#010101" stroke-width="64" d="M5836.276,2479.539l-8.19,95.894
			c-26.55,9.111-50.695,21.984-72.635,37.843l-3.473-5.175l-40.078-76.713C5749.293,2506.892,5790.906,2489.438,5836.276,2479.539z"
			/>
		<path id="_x31_80611610" fill="none" stroke="#010101" stroke-width="64" d="M8093.617,3114.163
			c10.109,152.506-15.355,313.16-57.922,464.818l-1.779-0.529l-170.795-25.498c1.629-7.497,3.258-14.914,4.889-22.408
			c51.045-233.335,174.904-495.347,92.09-730.964c-96.197-273.79-212.434-542.41-410.92-758.446
			c-148.791-162.004-319.619-267.91-503.623-361.964l65.268-104.415c60.309,36.733,119.184,75.701,176.469,117.125
			c320.018,231.578,579.711,450.707,707.312,844.47c36.68,113.155,57.047,230.023,72.658,347.925
			C8077.336,2960.499,8088.514,3037.22,8093.617,3114.163z"/>
		<path id="_x31_80611611" fill="none" stroke="#010101" stroke-width="64" d="M7960.102,2799.582
			c82.814,235.618-41.043,497.627-92.09,730.963c-1.631,7.496-3.258,14.914-4.889,22.408l-216.514-32.256
			c19.836-116.74,33.868-234.469,41.334-352.838c12.139-192.332,0.098-394.854-79.802-574.92
			c-53.328-120.377-143.85-225.417-228.708-323.745c-0.076-0.002-0.146-0.082-0.145-0.159
			c-37.442-43.392-308.596-309.933-467.125-376.718l133.393-213.144c184.006,94.053,354.834,199.959,503.625,361.963
			C7747.668,2257.171,7863.902,2525.792,7960.102,2799.582z"/>
		<path id="_x31_80611609" fill="none" stroke="#010101" stroke-width="64" d="M7608.142,2592.938
			c79.899,180.066,91.937,382.588,79.802,574.919c-7.466,118.37-21.498,236.1-41.334,352.836l-64.924-9.731
			c27.98-128.174,42.883-259.006,44.467-392.038c3.997-331.627-158.453-621.536-377.551-856.86
			c-108.865-116.911-245.357-218.031-375.645-306.996l39.21-62.753c158.529,66.784,429.681,333.325,467.124,376.717
			c-0.002,0.077,0.069,0.156,0.145,0.16C7464.295,2367.521,7554.813,2472.561,7608.142,2592.938z"/>
		<path id="_x31_80611608" fill="none" stroke="#010101" stroke-width="64" d="M7626.149,3118.927
			c-1.583,133.032-16.485,263.862-44.465,392.04l-366.388-54.643c5.113-58.062,5.883-112.095,4.057-154.854
			c-7.741-183.489,11.332-375.167-98.246-532.654c-62.922-90.438-171.707-211.393-240.081-284.332
			c-63.839-68.103-137.517-135.369-216.931-195.531l208.861-333.883c130.288,88.964,266.779,190.085,375.645,306.994
			C7467.695,2497.39,7630.147,2787.301,7626.149,3118.927z"/>
		<path id="_x31_80611607" fill="none" stroke="#010101" stroke-width="64" d="M7219.354,3301.473
			c1.826,42.756,1.059,96.79-4.057,154.852l-285.975-42.701c-0.992-15.388-2.646-29.045-5.162-39.757
			c-22.564-96.337-27.537-150.976-63.027-214.376c-24.828-44.424-74.422-130.829-102-124.277c-5.667,1.381-11.324,2.534-16.9,3.459
			l-0.062-0.308l-15.741-29.254l-0.733-0.335c16.02-33.579-25.68-101.116-61.654-131.929
			c-82.535-70.669-158.408-141.308-239.885-204.298l239.941-383.594c79.413,60.163,153.093,127.431,216.93,195.532
			c68.373,72.938,177.161,193.892,240.082,284.332C7230.685,2926.304,7211.612,3117.98,7219.354,3301.473z"/>
		<path id="_x31_80611606" fill="none" stroke="#010101" stroke-width="64" d="M6664.041,2876.846
			c35.973,30.813,77.672,98.351,61.653,131.929c-5.038,10.493-15.642,17.636-33.751,19.367
			c-58.686,5.559-142.002-32.613-188.287-67.877l-1.07,0.568c-35.459-70.194-84.577-133.518-142.398-188.479l4.766-5.234
			l59.205-94.574C6505.633,2735.539,6581.506,2806.177,6664.041,2876.846z"/>
		<path id="_x31_80611605" fill="none" stroke="#010101" stroke-width="64" d="M8033.916,3578.453l1.777,0.527
			c-19.209,68.426-41.863,135.039-66.34,198.22c-28.379,73.337-56.746,144.38-87.164,214.276l-3.607-1.67l-128.568-27.424
			c48.738-132.631,82.594-271.652,113.107-409.428L8033.916,3578.453z"/>
		<path id="_x31_80611604" fill="none" stroke="#010101" stroke-width="64" d="M7646.609,3520.694l216.514,32.259
			c-30.516,137.775-64.369,276.795-113.107,409.428l-270.513-57.672c13.632-53.604,24.468-110.522,38.323-162.133l0.741,0.181
			c70.825,67.537,101.565-82.218,108.671-117.675C7634.166,3590.381,7640.647,3555.587,7646.609,3520.694z"/>
		<path id="_x31_80611603" fill="none" stroke="#010101" stroke-width="64" d="M7581.685,3510.967l64.921,9.73
			c-5.961,34.89-12.441,69.684-19.367,104.385c-7.105,35.457-37.848,185.212-108.671,117.675l-0.743-0.181
			c3.584-13.605,7.455-26.812,11.602-39.48C7550.164,3639.768,7567.633,3575.702,7581.685,3510.967z"/>
		<path id="_x31_80611602" fill="none" stroke="#010101" stroke-width="64" d="M7215.301,3456.324l366.385,54.643
			c-14.053,64.735-31.521,128.801-52.26,192.129c-4.146,12.666-8.016,25.878-11.6,39.482
			c-13.855,51.608-24.691,108.527-38.323,162.131l-382.517-81.544C7171.085,3736.659,7204.088,3586.533,7215.301,3456.324z"/>
		<path id="_x31_80611601" fill="none" stroke="#010101" stroke-width="64" d="M6929.322,3413.621l285.975,42.701
			c-11.209,130.209-44.213,280.337-118.312,366.841l-213.021-45.406c13.853-49.549,23.785-102.384,35.004-167.383
			C6926.562,3565.93,6933.422,3475.56,6929.322,3413.621z"/>
		<path id="_x31_80611626" fill="none" stroke="#010101" stroke-width="64" d="M5060.187,1283.63l67.733,129.497
			c-53.986,113.028-68.848,248.746-65.848,371.344c0.299,11.924,0.742,23.931,1.266,35.862c1.551,32.283,3.998,64.604,6.666,97.009
			l-99.063-108.812c1.963-51.925,3.264-86.388,3.852-97.971C4982.709,1550.592,4978.582,1408.248,5060.187,1283.63z"/>
		<path id="_x31_80611625" fill="none" stroke="#010101" stroke-width="64" d="M5127.919,1413.126l134.891,258.435
			c-14.388,121.076-24.908,272.771-34.717,419.377l-99.711-109.525c-11.01-12.082,3.038,3.337-11.01-12.082
			c-13.137-14.417-4.565-5.011-16.748-18.381c-11.854-13.01-4.991-5.131-16.026-17.588l-14.594-16.017
			c-0.045-1.069-6.759-99.151-6.805-100.223c-0.463-10.873-0.855-21.795-1.127-32.65
			C5059.07,1661.872,5073.932,1526.155,5127.919,1413.126z"/>
		<path id="_x31_80611624" fill="none" stroke="#010101" stroke-width="64" d="M5262.81,1671.561l177.069,338.974
			c-7.981,92.309-14.998,192.829-22.784,287.896l-189.003-207.493C5237.901,1944.332,5248.422,1792.636,5262.81,1671.561z"/>
		<path id="_x31_80611623" fill="none" stroke="#010101" stroke-width="64" d="M5439.877,2010.533l272.023,520.853
			c-17.043,11.089-33.169,23.741-48.371,37.728l-246.438-270.684C5424.877,2203.363,5431.899,2102.844,5439.877,2010.533z"/>
		<path id="_x31_80611622" fill="none" stroke="#010101" stroke-width="64" d="M5751.98,2608.1l3.473,5.175
			c-10.387,7.38-20.205,15.547-29.594,24.266l-62.33-68.425c15.202-13.988,31.328-26.639,48.371-37.729L5751.98,2608.1z"/>
		<path id="_x31_80611632" fill="none" stroke="#010101" stroke-width="64" d="M5070.006,1917.345
			c7.775,93.387,17.562,187.083,13.737,280.397c-4.944,120.913-25.966,253.182-48.12,383.727l-91.793-23.844
			c11.206-308.359,21.568-600.409,27.113-749.093L5070.006,1917.345z"/>
		<path id="_x31_80611631" fill="none" stroke="#010101" stroke-width="64" d="M5128.154,2605.57l-92.529-24.103
			c22.154-130.544,43.174-262.812,48.12-383.725c3.823-93.314-5.964-187.01-13.738-280.399l58.377,64.071
			c3.685,41.15,4.321,83.707,6.269,121.352c6.242,118.145,7.415,301.074-4.609,417.201
			C5126.77,2551.071,5122.16,2579.905,5128.154,2605.57z"/>
		<path id="_x31_80611630" fill="none" stroke="#010101" stroke-width="64" d="M5128.382,1981.414l99.711,109.524
			c-7.39,110.356-14.298,217.827-22.246,307.315c-6.267,70.691-19.098,144.714-30.61,219.551l-47.082-12.233
			c-5.994-25.664-1.385-54.5,1.889-85.601c12.026-116.128,10.852-299.057,4.609-417.201
			C5132.705,2065.121,5132.067,2022.564,5128.382,1981.414z"/>
		<path id="_x31_80611629" fill="none" stroke="#010101" stroke-width="64" d="M5228.093,2090.938l189.002,207.493
			c-4.097,48.938-8.364,96.495-13.105,140.75c-8.22,76.876-10.979,155.8-13.36,234.664l-215.391-56.039
			c11.513-74.839,24.342-148.86,30.609-219.554C5213.795,2308.766,5220.703,2201.294,5228.093,2090.938z"/>
		<path id="_x31_80611628" fill="none" stroke="#010101" stroke-width="64" d="M5417.092,2298.431l246.438,270.685
			c-42.2,38.887-77.252,88.672-104.147,148.548l-168.758-43.82c2.382-78.863,5.142-157.787,13.362-234.664
			C5408.729,2394.926,5412.998,2347.369,5417.092,2298.431z"/>
		<path id="_x31_80611627" fill="none" stroke="#010101" stroke-width="64" d="M5663.529,2569.115l62.33,68.423
			c-31.188,28.785-57.377,64.026-79.209,102.876l-87.266-22.75C5586.28,2657.787,5621.329,2608.002,5663.529,2569.115z"/>
		<path id="_x31_80611637" fill="none" stroke="#010101" stroke-width="64" d="M5069.082,3130.513
			c-47.445-14.465-92.994-17.705-145.221-26.631l-0.508,13.496c6.461-173.007,13.663-369.502,20.479-559.753l91.793,23.844
			c-17.557,103.999-35.822,206.9-47.133,302.059C4976.944,2981.044,5026.232,3055.83,5069.082,3130.513z"/>
		<path id="_x31_80611636" fill="none" stroke="#010101" stroke-width="64" d="M5241.375,3213.492
			c-42.648-20.537-82.463-44.857-126.236-65.361c-15.744-7.339-31.027-13.056-46.055-17.616
			c-42.85-74.686-92.135-149.469-80.59-246.986c11.309-95.159,29.574-198.061,47.131-302.06l92.53,24.102
			c4.741,1.233,6.376,1.784,12.183,3.167c6.167,1.469,12.779,3.512,20.266,5.267l14.635,3.802
			c-0.46,3.188-7.127,47.903-7.574,51.093c-13.621,96.826-21.915,193.787-7.747,284.976
			C5174.611,3048.451,5217.266,3124.351,5241.375,3213.492z"/>
		<path id="_x31_80611635" fill="none" stroke="#010101" stroke-width="64" d="M5390.627,2673.844
			c-1.9,64.144-3.574,128.298-7.746,191.13c-8.82,134.352,9.511,269.39,7.876,403.794c-37.104-12.761-72.665-24.772-95.575-32.697
			c-18.695-6.539-36.523-14.264-53.804-22.58c-24.11-89.142-66.765-165.042-81.459-259.618
			c-14.635-94.193-5.301-194.545,9.11-294.544c1.949-13.896,4.043-27.711,6.212-41.525L5390.627,2673.844z"/>
		<path id="_x31_80611634" fill="none" stroke="#010101" stroke-width="64" d="M5390.627,2673.844l168.758,43.822
			c-25.18,56.05-43.279,120.855-53.447,193.837c-19.116,137.307-30.864,321.408-36.909,382.258l-0.753,2.11
			c-24.009-8.581-51.131-18.046-77.519-27.102c1.634-134.404-16.696-269.441-7.878-403.793
			C5387.051,2802.141,5388.725,2737.989,5390.627,2673.844z"/>
		<path id="_x31_80611633" fill="none" stroke="#010101" stroke-width="64" d="M5559.383,2717.666l87.266,22.749
			c-50.627,89.489-78.693,198.191-93.771,292.056c-14.382,89.311-24.665,185.12-41.416,279.682
			c-12.171-4.831-26.938-10.375-43.186-16.281l0.753-2.11c6.045-60.85,17.793-244.95,36.909-382.258
			C5516.105,2838.521,5534.203,2773.716,5559.383,2717.666z"/>
		<path id="_x31_80611600" fill="none" stroke="#010101" stroke-width="64" d="M7882.189,3991.474
			c-38.539,88.591-80.297,175.222-129.771,261.929L7628,4219.19c49.788-81.124,89.287-167.461,122.016-256.813l128.57,27.428
			L7882.189,3991.474z"/>
		<path id="_x31_80611599" fill="none" stroke="#010101" stroke-width="64" d="M7479.503,3904.709l270.513,57.672
			c-32.729,89.351-72.23,175.689-122.019,256.812l-275.442-75.734c43.645-45.401,79.035-98.222,100.503-153.201
			C7463.42,3963.792,7471.852,3934.799,7479.503,3904.709z"/>
		<path id="_x31_80611598" fill="none" stroke="#010101" stroke-width="64" d="M7096.986,3823.165l382.517,81.544
			c-7.651,30.09-16.084,59.081-26.442,85.549c-21.469,54.979-56.861,107.803-100.504,153.201l-0.074-0.006l-563.63-155.019
			c5.671-7.415,10.911-15.302,15.644-23.669c17.565-30.847,31.889-59.221,43.939-86.849l20.982,3.497
			C6970.76,3914.035,7044.275,3884.624,7096.986,3823.165z"/>
		<path id="_x31_80611597" fill="none" stroke="#010101" stroke-width="64" d="M6883.965,3777.757l213.021,45.408
			c-52.713,61.459-126.227,90.87-227.57,58.252l-20.98-3.497C6863.184,3844.215,6874.517,3811.821,6883.965,3777.757z"/>
		<path id="_x31_80611596" fill="none" stroke="#010101" stroke-width="64" d="M7627.997,4219.193l124.419,34.215
			c-37.457,65.877-62.937,135.891-84.805,207.341c0,0-120.811-22.769-249.793-43.188l0.486-2.958
			c75.842-51.387,127.212-71.357,181.451-151.464C7609.512,4248.703,7618.977,4234.033,7627.997,4219.193z"/>
		<path id="_x31_80611595" fill="none" stroke="#010101" stroke-width="64" d="M7352.555,4143.459l275.442,75.734
			c-9.021,14.842-18.485,29.51-28.238,43.943c-54.242,80.107-105.611,100.08-181.452,151.467l-0.487,2.958
			c-120.944-19.187-249.078-36.286-291.448-30.624l-3.495-14.491c-5.431-113.838,139.186-144.501,204.954-204.759
			c8.531-7.836,16.773-15.911,24.648-24.231L7352.555,4143.459z"/>
		<path id="_x31_80611594" fill="none" stroke="#010101" stroke-width="64" d="M6788.853,3988.438l563.628,155.019
			c-7.879,8.32-16.119,16.396-24.648,24.231c-65.773,60.258-210.387,90.921-204.956,204.759l3.497,14.491
			c-1.281,0.177-2.412,0.363-3.539,0.551c-11.466,2.221-46.141-1.51-75.713,14.279l-7.252-12.195l-148.501-100.295
			c-50.005-45.871-129.085-98.995-200.755-134.266c-14.994-7.385-142.189-51.408-201.71-61.382
			c-78.794-13.177-89.636-53.231-108.398-53.972l9.006-16.445c49.033,29.953,117.247,57.605,189.685,58.696
			C6656.791,4083.049,6738.893,4054.281,6788.853,3988.438z"/>
		<path id="_x31_80611571" fill="none" stroke="#010101" stroke-width="64" d="M7458.864,4424.164
			c-66.669-10.932-138.997-21.954-200.284-29.354c-62.929-7.599-114.216-11.375-135.756-7.292
			c-17.433,3.305-88.825-7.105-114.111,58.774c-13.084,34.088-26.318,67.271-38.842,101.062
			c-16.125,43.475-47.638,93.165-85.515,120.089c-16.526,11.756-81.167,52.044-97.132,61.109
			c-37.717,21.428-60.504,58.889-74.878,98.528c-29.636,81.68-82.366,86.14-103.999,99.568
			c-42.42,26.335-105.914,110.077-85.939,166.708c29.24,82.878,27.411,126.809,17.457,151.695
			c-8.412,21.039-22.627,28.474-28.796,34.299c0.06-0.125,53.407,39.271,97.651,71.466c25.562,18.599,48.086,34.796,55.534,39.573
			c43.505,27.9,86.889,55.893,130.874,83.003c24.988,15.403,50.1,30.604,75.329,45.593c0,0,37.022-54.688,43.255-61.908
			c6.312-7.307,36.971-40.498,47.023-49.084c10.723-9.146,30.348-23.566,51.888-39.001c32.999-23.644,70.481-49.667,87.364-62.815
			c4.811-4.053,9.033-7.743,12.326-10.809c17.166-16.201,34.162-32.553,51.234-48.874c8.969-8.584,16.985-16.235,22.223-21.15
			c0.068-0.065,0.137-0.128,0.205-0.19c9.418-8.909,18.904-17.775,28.49-26.582c17.789-16.346,35.926-32.465,54.698-48.153
			c124.456-103.995,243.487-241.425,305.878-394.466c20.084-49.27,92.594-295.207,92.594-295.207
			S7571.312,4442.596,7458.864,4424.164z"/>
		<path id="_x31_80611572" fill="none" stroke="#010101" stroke-width="64" d="M5581.283,3463.407
			c-28.327,39.14-54.967,71.667-83.645,110.662c-7.688,10.467-15.365,19.235-22.541,30.052
			c-32.404,48.846-60.204,107.783-101.801,152.745c-1.119,1.213-23.059,23.606-43.232,33.2c-4.72-14.742-2.045-34.38,3.537-48.412
			c6.918-17.375,17.629-31.396,27.968-46.764c8.171-12.131,20.657-25.635,24.653-32.094c4.465-7.223,16.57-23.24,19.697-31.143
			c0.885-2.238,1.555-4.418,2.035-6.555c8.768-12.37,17.657-24.911,22.715-38.377c18.514-38.637,33.439-79.24,45.789-121.088
			c0.089-0.377,0.254-0.83,0.348-1.283c0.004-0.076,0.004-0.076,0.081-0.15c2.747-11.194,23.968-97.257,34.3-150.759
			c0.094-0.455,0.182-0.833,0.275-1.287c-12.173-4.831-26.938-10.375-43.188-16.283c-24.009-8.579-51.129-18.043-77.519-27.099
			c-37.104-12.76-72.663-24.771-95.574-32.696c-18.696-6.54-36.524-14.265-53.805-22.579
			c-42.649-20.537-82.464-44.858-126.237-65.362c-15.746-7.339-31.027-13.055-46.057-17.617
			c-47.446-14.464-92.994-17.705-145.221-26.63l-0.51,13.496c-3.313,87.721-6.402,169.435-9.223,241.17
			c-5.287,15.509-1.232,51.79-3.381,64.162h0.395c-1.219,33.055-3.096,84.301-3.249,89.854
			c-1.096,41.231-3.974,82.344-5.866,123.519c-3.874,84.275-6.153,166.312-4.773,250.607c0.607,37.34-0.598,74.785,1.119,112.104
			c1.355,29.371,11.29,47.478,27.327,58.267c16.199,10.897,38.625,14.333,64.726,14.355c8.208,0.007,16.844-0.577,25.508-1.874
			c23.711-3.557,47.621-12.504,63.506-29.664c23.08-24.941,35.672-63.029,46.66-94.766c6.51-18.807,19.011-40.439,31.674-55.67
			c10.579-12.715,23.687-18.6,39.82-20.021c3.529-0.313,7.061-0.517,10.595-0.653c11.417-0.43,22.856-0.05,34.267,0.42
			c52.078,2.145,103.867,8.469,156.057,9.733c20.503,0.5,41.193,1.622,61.682,0.206c16.988-1.178,35.627-0.285,49.12-12.604
			c6.194-5.658,13.729-16.15,15.585-24.588c20.348-92.74,32.947-228.752,42.319-298.301c3.361-24.993,11.296-53.571,21.569-76.65
			c4.991-11.21,16.44-35.502,19.736-47.166C5600.65,3433.391,5586.69,3455.938,5581.283,3463.407z"/>
		<path id="_x31_80611593" fill="none" stroke="#010101" stroke-width="64" d="M4912.137,3395.852
			c-0.438,11.547-4.033,108.937-4.246,116.714c-1.096,41.231-3.975,82.342-5.867,123.518c-3.873,84.277-6.152,166.311-4.771,250.605
			c0.606,37.339-0.6,74.787,1.117,112.105c1.357,29.367,11.292,47.476,27.328,58.265c-0.432-2.394-0.81-4.883-1.283-7.438
			c-7.031-38.037-4.241-75.523-6.6-114.189c-0.463-7.576-0.773-15.148-0.867-22.637c-0.928-72.502,16.729-143.507,30.412-214.365
			c18.469-95.881,84.001-169.22,130.84-250.49c-27.348-9.864-54.402-20.689-80.729-30.771
			C4966.988,3405.499,4944.68,3400.693,4912.137,3395.852z"/>
		<path id="_x31_80611592" fill="none" stroke="#010101" stroke-width="64" d="M4916.953,3912.797
			c0.092,7.488,0.403,15.059,0.866,22.639c2.357,38.662-0.432,76.148,6.599,114.186c0.473,2.556,0.852,5.045,1.284,7.441
			c16.198,10.898,38.623,14.334,64.726,14.353c8.208,0.01,16.844-0.576,25.505-1.873c7.723-12.761,13.657-28.353,17.017-36.732
			c13.514-33.689,31.955-64.91,44.217-99.126c14.264-39.799,24.635-80.704,37.489-120.938
			c30.579-95.929,77.028-181.84,93.103-282.309c2.302-14.404,5.385-29.127,8.857-44.055c-18.715-4.799-37.459-9.23-55.922-13.425
			c-27.5-6.249-55.144-15.154-82.492-25.019c-46.838,81.271-112.369,154.609-130.838,250.49
			C4933.682,3769.288,4916.021,3840.293,4916.953,3912.797z"/>
		<path id="_x31_80611591" fill="none" stroke="#010101" stroke-width="64" d="M5114.655,3812.746
			c-12.855,40.233-23.226,81.139-37.489,120.938c-12.262,34.213-30.703,65.437-44.217,99.126
			c-3.361,8.378-9.297,23.972-17.017,36.732c23.712-3.554,47.624-12.505,63.509-29.665c23.078-24.94,35.669-63.029,46.657-94.764
			c6.51-18.809,19.013-40.438,31.675-55.668c10.58-12.719,23.688-18.6,39.82-20.024c3.529-0.313,7.061-0.517,10.596-0.651
			l8.256-33.234c25.689-110.137,84.123-203.354,125.542-304.782c-15.563-8.896-31.454-15.95-43.961-20.284
			c-26.403-9.148-53.873-17.019-81.411-24.082c-3.474,14.926-6.559,29.648-8.857,44.056
			C5191.684,3630.906,5145.234,3716.817,5114.655,3812.746z"/>
		<path id="_x31_80611590" fill="none" stroke="#010101" stroke-width="64" d="M5208.188,3868.768
			c11.418-0.432,22.857-0.049,34.266,0.418c52.078,2.147,103.869,8.469,156.059,9.735c20.502,0.5,41.192,1.62,61.681,0.206
			c16.987-1.178,35.626-0.287,49.12-12.605c6.195-5.656,13.729-16.152,15.586-24.586c20.348-92.74,32.947-228.752,42.319-298.301
			c3.36-24.993,11.295-53.57,21.568-76.65c4.992-11.213,16.44-35.502,19.737-47.168c-7.871,13.578-21.833,36.122-27.24,43.591
			c-28.326,39.14-54.966,71.667-83.644,110.662c-7.687,10.467-15.366,19.235-22.541,30.052
			c-32.404,48.846-60.204,107.783-101.8,152.745c-1.119,1.213-23.061,23.606-43.234,33.2c-4.718-14.742-2.044-34.38,3.537-48.412
			c6.918-17.375,17.631-31.396,27.97-46.764c8.169-12.131,20.656-25.635,24.651-32.094c4.466-7.223,16.57-23.24,19.7-31.143
			c7.124-18.018,0.343-32.283-8.067-50.217c-8.959-19.116-32.028-37.064-55.867-50.688
			c-41.418,101.429-99.854,194.643-125.541,304.782L5208.188,3868.768z"/>
		<path id="_x31_80611641" fill="none" stroke="#010101" stroke-width="64" d="M5069.082,3130.513
			c38.08,66.25,71.146,132.379,52.1,214.329c-7.253,31.479-19.738,60.616-34.869,88.58c-67.152-24.02-149.744-55.595-173.058-52.844
			c3.054-76.852,6.437-166.366,10.097-263.2l0.51-13.496C4976.083,3112.807,5021.635,3116.048,5069.082,3130.513z"/>
		<path id="_x31_80611640" fill="none" stroke="#010101" stroke-width="64" d="M5248.113,3241.323
			c15.921,74.009-9.514,154.636-28.031,230.573c-19.649-5.123-39.39-9.794-58.838-14.224c-17.074-3.878-44.423-13.276-74.932-24.249
			c15.133-27.964,27.616-57.101,34.869-88.582c19.045-81.95-14.02-148.078-52.1-214.327c15.027,4.56,30.311,10.278,46.055,17.616
			c43.774,20.505,83.588,44.826,126.238,65.361C5243.801,3222.599,5246.072,3231.852,5248.113,3241.323z"/>
		<path id="_x31_80611639" fill="none" stroke="#010101" stroke-width="64" d="M5390.756,3268.769
			c-0.339,34.73-2.1,69.407-5.955,104.074c-5.664,50.786-19.258,97.517-36.682,142.495c-16.219-8.729-32.777-14.346-49.555-20.12
			c-25.498-8.868-51.938-16.473-78.484-23.32c18.517-75.938,43.954-156.567,28.03-230.574c-2.04-9.473-4.31-18.724-6.735-27.832
			c17.281,8.315,35.108,16.042,53.803,22.58C5318.092,3243.998,5353.652,3256.009,5390.756,3268.769z"/>
		<path id="_x31_80611638" fill="none" stroke="#010101" stroke-width="64" d="M5511.459,3312.152
			c-0.093,0.455-0.182,0.832-0.275,1.287c-10.332,53.504-31.554,139.567-34.299,150.761c-0.077,0.072-0.077,0.072-0.08,0.148
			c-0.094,0.455-0.259,0.905-0.348,1.285c-13.567,45.969-30.223,90.443-51.354,132.451c-23.443-45.362-21.289-34.97-34.593-49.545
			c-13.729-15.125-27.938-25.457-42.396-33.202c17.422-44.978,31.021-91.712,36.683-142.495
			c3.855-34.669,5.615-69.343,5.955-104.074c26.388,9.055,53.508,18.521,77.52,27.1
			C5484.522,3301.777,5499.287,3307.321,5511.459,3312.152z"/>
		<path id="_x31_80611589" fill="none" stroke="#010101" stroke-width="64" d="M7458.864,4424.164
			c-13.21,76.703-36.433,151.382-44.202,229.232c-6.676,66.886-17.977,140.329-68.771,188.028
			c-38.957,36.585-90.066,54.442-141.54,62.88c-54.775,8.981-105.704,19.06-159.733,33.312
			c-52.483,13.842-86.061,35.442-119.65,78.562c-31.324,40.208-42.764,86.047-67.73,129.201
			c-19.297,33.34-57.441,52.764-79.957,83.383c-26.762,36.395-46.343,62.182-89.17,77.357
			c-30.743,10.894-60.743,18.031-79.383,44.696c25.56,18.599,48.085,34.796,55.533,39.575
			c43.503,27.898,86.889,55.891,130.873,83.001c24.986,15.403,50.101,30.604,75.329,45.593c0,0,37.023-54.688,43.255-61.908
			c6.312-7.307,36.971-40.498,47.023-49.084c10.722-9.146,30.346-23.566,51.887-39.001c-19.556,12.772-47.895,33.978-63.803,49
			c-10.018,9.462-19.421,20.009-28.211,30.587c-7.818,9.398-15.4,8.252-26.5,7.69c-6.269-0.321-12.465-1.683-17.973-4.851
			c-15.754-9.068-26.891-34.033-22.586-52.23c2.162-9.135,8.964-16.182,15.35-22.52c10.441-10.35,21.562-21.283,33.26-30.113
			c75.43-56.906,154.261-112.828,231.898-166.337c13.715-9.448,31.256-18.649,47.426-22.367
			c12.744-2.927,42.458-4.756,46.923,12.708c0.628,2.49,0.62,5.039,0.137,7.551c-1.554,8.205-8.913,15.211-14.035,20.414
			c-0.019,0.02-0.032,0.032-0.05,0.049c17.791-16.346,35.926-32.464,54.7-48.15c124.458-103.998,243.487-241.428,305.878-394.471
			c20.085-49.268,92.594-295.204,92.594-295.204S7571.312,4442.596,7458.864,4424.164z"/>
		<path id="_x31_80611588" fill="none" stroke="#010101" stroke-width="64" d="M6688.109,5306.121
			c42.829-15.176,62.406-40.963,89.17-77.357c22.514-30.619,60.659-50.046,79.955-83.383
			c24.967-43.152,36.408-88.993,67.731-129.201c33.589-43.117,67.168-64.719,119.649-78.562
			c54.031-14.256,104.957-24.331,159.732-33.312c51.477-8.438,102.584-26.295,141.542-62.88
			c50.798-47.699,62.099-121.143,68.772-188.028c7.77-77.853,30.992-152.531,44.202-229.234
			c-66.67-10.93-138.997-21.955-200.286-29.354c-15.287,36.003-20.195,77.687-16.249,116.57
			c5.595,55.089,65.03,120.817,10.624,171.308c-21.607,20.047-55.793,13.184-82.688,22.277
			c-52.807,17.852-106.811,17.914-160.656,28.848c-35.705,7.253-155.474,25.723-175.61,36.975
			c-21.392,11.957-23.987,34.023-31.856,55.561c-36.152,98.87-89.445,168.317-190.149,202.883
			c-36.226,12.43-37.854,103.408-37.525,119.117c0.729,34.881-13.739,68.475-34.601,96.701
			c-8.414,21.043-22.629,28.477-28.798,34.302c0.06-0.126,53.408,39.27,97.653,71.463
			C6627.364,5324.152,6657.365,5317.015,6688.109,5306.121z"/>
		<path id="_x31_80611587" fill="none" stroke="#010101" stroke-width="64" d="M6574.47,5148.35
			c-0.329-15.707,1.301-106.688,37.524-119.119c100.705-34.562,153.997-104.012,190.15-202.881
			c7.869-21.539,10.463-43.607,31.854-55.562c20.138-11.251,139.907-29.719,175.612-36.974
			c53.845-10.934,107.848-10.994,160.654-28.845c26.896-9.098,61.082-2.234,82.689-22.281
			c54.408-50.486-5.031-116.217-10.624-171.304c-3.948-38.884,0.961-80.568,16.249-116.571
			c-62.928-7.596-114.215-11.373-135.754-7.291c-17.434,3.303-88.826-7.104-114.112,58.773
			c-13.085,34.087-26.317,67.27-38.843,101.06c-16.124,43.478-47.637,93.165-85.514,120.089
			c-16.527,11.76-81.167,52.047-97.131,61.111c-37.717,21.428-60.505,58.889-74.879,98.528
			c-29.635,81.684-82.365,86.143-103.999,99.569c-42.421,26.334-105.913,110.078-85.939,166.708
			c29.241,82.878,27.411,126.809,17.458,151.694C6560.729,5216.826,6575.201,5183.23,6574.47,5148.35z"/>
		<path id="_x31_80611577" fill="none" stroke="#010101" stroke-width="64" d="M6788.853,3988.438
			c-49.96,65.844-132.058,94.611-209.661,93.469c-72.436-1.088-140.65-28.74-189.684-58.693c-6.73-4.156-13.162-8.305-19.143-12.511
			c-48.228-33.433-67.875-80.173-73.43-131.323c0-118.893,17.832-261.824,86.824-363.803c0.311-0.291,0.549-0.667,0.713-1.039
			c12.187-17.39,25.529-33.588,39.995-47.91c1.088-1.027,2.101-2.057,3.184-3.005c1.171-1.252,2.337-2.351,3.575-3.448
			c0.154-0.146,0.314-0.369,0.543-0.516c9.537-8.711,19.729-16.861,30.643-24.299c22.349-14.85,43.307-26.55,59.939-44.681
			c1.557-1.62,3.045-3.317,4.459-5.094c4.319-5.251,8.283-11.13,11.898-17.63c1.205-2.167,2.34-4.49,3.477-6.812
			c0.732-1.575,1.392-3.152,2.129-4.803c16.361-38.681,17.143-89.05,18.389-129.929c2.103-69.558-9.105-135.514-30.818-196.998
			c-0.878-2.479-1.756-5.034-2.636-7.511c-3.588-10.068-7.623-20.153-12.317-30.647c-0.893-2.173-1.934-4.352-2.973-6.606
			c-2.002-4.431-4.082-8.865-6.163-13.224c57.315,46.542,138.112,84.003,234.434,67.249c5.577-0.926,11.235-2.079,16.903-3.458
			c27.576-6.552,77.172,79.852,101.998,124.276c35.49,63.399,40.463,118.04,63.028,214.377c2.516,10.712,4.171,24.368,5.161,39.757
			c4.097,61.936-2.761,152.303-10.356,196.754c-11.214,64.998-21.148,117.834-35.002,167.38
			c-9.448,34.064-20.78,66.456-35.532,100.163c-12.05,27.625-26.375,56.004-43.938,86.848
			C6799.761,3973.136,6794.521,3981.021,6788.853,3988.438z"/>
		<path id="_x31_80611576" fill="none" stroke="#010101" stroke-width="64" d="M6891.363,4289.277
			c55.357,50.817,81.451,154.855,62.41,228.709c-14.298,55.41-55.021,104.742-98.631,139.297
			c-26.786,21.321-122.845,54.887-146.186,101.922c-16.205,32.58-37.353,116.661-71.795,126.531
			c-86.361,24.633-115.457,85.262-133.453,129.531c-21.636,53.439-3.824,99.191,10.048,150.135
			c5.464,19.916,13.067,52.438,5.329,72.98c-4.486,11.736-13.915,19.535-31.785,18.834c-10.39-0.408-79.516-61.39-102.562-83.523
			c-56.791-54.537-105.881-116.637-143.988-186.098c-50.223-91.619-122.545-262.149-25.061-351.248
			c46.373-42.312,111.207-58.014,155.398-103.928c18.857-19.568,78.678-96.706,71.254-181.607
			c-1.941-21.916-2.996-45.553-10.14-66.525c-0.071-0.079-0.071-0.079-0.071-0.079c-37.555-123.727-115.434-216.589-59.184-242.862
			c2.745-1.266,5.234-1.779,7.551-1.688c18.767,0.738,29.606,40.795,108.4,53.969c59.521,9.977,186.716,53.998,201.711,61.385
			C6762.28,4190.279,6841.362,4243.403,6891.363,4289.277z"/>
		<path id="_x31_80611574" fill="none" stroke="#010101" stroke-width="64" d="M6259.072,5059.598
			c-42.605-74.588-92.697-158.223-107.842-244.768c-1.82-10.414-12.672-111.666,7.934-120.875
			c11.548-3.628,20.707-9.662,26.502-18.637c7.166-11.113,10.587-27.451,5.473-48.591c-0.1-0.406-0.206-0.825-0.307-1.241
			c9.361-5.742,114.121-47.793,183.609-124.777c85.105-94.279,38.528-242.217-1.832-330.023
			c-67.132-146.071-158.113-390.658-401.9-438.869c-49.668-9.818-270.506-52.602-296.545-62.152
			c-30.359,35.808-73.334,92.922-96.241,134.328c-9.825,17.764-33.346,67.584-48.31,90.78
			c-27.581,42.772-72.35,72.308-107.251,108.49c-63.909,66.229-116.202,140.606-149.724,227.243
			c-34.15,88.256-52.512,182.268-90.884,268.943c-27.509,62.113-78.062,133.436-87.43,201.434
			c-14.583,105.979,71.831,201.559,124.174,288.742c69.624,115.956,100.704,305.97,221.706,377.791
			c111.408,66.132,268.79,94.232,394.32,109.063c78.031,9.216,167.604,21.76,242.119-17.21
			c47.236-24.698,87.341-60.486,124.685-98.477c47.112-47.916,174.127-116.042,175.757-159.166
			C6378.291,5169.721,6285.322,5105.553,6259.072,5059.598z"/>
		<path id="_x31_80611578" fill="none" stroke="#010101" stroke-width="64" d="M5127.764,5356.218
			c-8.157-68.679-33.332-132.774-55.909-197.679c-15.161-43.582-18.021-84.224-24.88-128.991
			c-1.165-7.606-5.874-29.175-11.438-57.519c-22.453-15.803-40.062-22.02-59.995,12.43c-11.43,19.753-6.583,73.833-6.169,96.547
			c2.352,125.76-57.706,258.47,35.288,364.655c28.158,32.152,88.053,45.542,117.136,10.897c2.551-7.013,5.204-14.252,7.11-22.391
			C5134.638,5409.713,5130.699,5380.926,5127.764,5356.218z"/>
		<path id="_x31_80611579" fill="none" stroke="#010101" stroke-width="64" d="M5868.579,5950.605
			c-3.26-22.141-12.028-43.752-15.421-65.986c-12.805-8.4-19.178-28.514-38.391-32.168c-30.023-5.662-42.027,25.861-58.991,38.918
			c0.155,21.014-5.571,40.301,1.664,63.105c9.405,29.631,27.696,47.773,44.493,70.841c18.869,4.27,38.86,1.628,56.566-6.532
			C5865.631,5995.838,5872.609,5977.975,5868.579,5950.605z"/>
		<path id="_x31_80611580" fill="none" stroke="#010101" stroke-width="64" d="M5465.312,5803.28
			c7.318-6.37,16.52-18.327,25.932-27.538c-1.041-1.43-2.039-2.958-2.998-4.603c-0.016-0.034,51.16-51.554,41.67-76.083
			c-7.055-18.231-25.83-24.572-46.463-27.74c-31.039,6.331-59.365,21.316-89.738,30.803c-26.549,8.291-52.842,16.795-79.254,24.951
			c-22.979,15.008-45.164,37.695-53.781,63.881c8.91,11.555,17.42,23.414,25.405,35.67c10.979,16.845,22.095,33.379,33.574,49.457
			c23.971-0.944,50.659-10.348,73.162-15.879C5412.835,5836.184,5445.078,5820.896,5465.312,5803.28z"/>
		<path id="_x31_80611585" fill="none" stroke="#010101" stroke-width="64" d="M5314.332,5722.61
			C5303.098,5726.079,5303.098,5726.079,5314.332,5722.61c0.76-0.495,1.521-0.987,2.282-1.468
			c-32.827-29.135-70.002-54.037-102.473-85.729c-33.439-32.626-89.511-82.331-98.943-129.992
			c-3.908-19.736,1.106-33.778,6.601-48.863c-29.084,34.645-88.979,21.255-117.137-10.897
			c-92.994-106.186-32.936-238.893-35.289-364.653c-0.414-22.714-5.258-76.796,6.17-96.547
			c19.931-34.451,37.543-28.234,59.995-12.43c-13.71-69.828-32.619-180.783-16.592-225.469
			c-14.785,7.275-90.196,47.443-88.968,50.918c7.672,21.74,17.602,163.607,19.419,253.125
			c2.858,141.184-20.58,293.928,46.411,424.012c63.463,123.232,181.713,204.189,264.739,311.873
			C5269.167,5760.305,5291.353,5737.616,5314.332,5722.61z"/>
		<path id="_x31_80611586" fill="none" stroke="#010101" stroke-width="64" d="M6703.217,5451.725
			c-6.311-4.373-12.344-8.451-18.205-12.342c21.276,43.338,90.365,90.455,52.648,130.344c-12.664,13.392-49.965,2.582-65.234,0.604
			c-66.371-8.666-78.668-22.145-109.48,42.542c-14.121,29.659-32.455,57.319-53.996,81.902
			c-17.082,19.493-34.611,29.524-36.223,56.685c-2.332,39.271,22.695,74.489-31.391,86.866
			c-52.939,12.116-89.549-38.538-139.885-36.101c-64.188,3.109-138.006,10.797-199.043,31.974
			c-55.895,19.399-82.609,52.599-119.623,97.228c-27.94,33.624-73.24,52.365-107.889,77.717c-5.145,3.764-10.653,6.988-16.4,9.639
			c-1.342,4.311-1.342,4.311,0,0c-17.705,8.16-37.697,10.799-56.566,6.529c2.299,3.156,2.299,3.156,0,0
			c-1.531-0.346-3.055-0.732-4.57-1.17c-12.309-3.56-17.33-9.622-30.12-7.912c-5.729,0.764-31.382,20.661-33.968,19.141
			c-61.15-35.928-76.628-123.54-136.501-159.271c-54.696-32.62-124.28-30.546-185.155-23.96c-5.809,0.631-12.181,1.941-18.926,3.6
			c-3.725,3.727-3.725,3.727,0,0c-22.503,5.529-49.191,14.936-73.162,15.88c38.127,53.378,80.334,101.564,135.326,138.302
			c70.265,46.938,148.225,85.219,230.545,104.104c99.119,22.736,204.471,24.773,304.883,9.842
			c131.962-19.621,259.363-96.208,377.195-158.033c90.104-47.279,188.835-79.281,271.74-140.077
			c46.505-34.108,84.492-78.811,117.218-126.421c33.209-48.314,65.925-113.088,101.545-157.537
			C6796.061,5504.139,6755.165,5487.682,6703.217,5451.725z"/>
		<path id="_x31_80611582" fill="none" stroke="#010101" stroke-width="64" d="M5035.537,4972.029
			c3.4,2.393,6.908,5.004,10.557,7.729C5042.446,4977.033,5038.938,4974.422,5035.537,4972.029
			c5.563,28.344,10.274,49.915,11.438,57.519c6.856,44.768,9.719,85.409,24.88,128.991c22.577,64.901,47.752,129,55.909,197.679
			c2.936,24.708,6.872,53.495,1.143,77.954c-1.906,8.141-4.561,15.377-7.112,22.39c2.944-3.509,5.577-7.503,7.824-12.027
			c-2.247,4.522-4.88,8.519-7.824,12.027c-5.489,15.084-10.504,29.126-6.599,48.86c9.432,47.661,65.504,97.369,98.944,129.992
			c32.468,31.691,69.646,56.596,102.473,85.729c-0.763,0.48-1.522,0.973-2.282,1.468c26.409-8.156,52.705-16.659,79.251-24.951
			c30.372-9.484,58.698-24.475,89.738-30.806c-20.976-3.223-43.874-3.168-58.33-8.994c-32.052-12.922-61.138-32.263-90.221-50.847
			c-45.111-28.827-94.231-64.175-121.592-112.116c-19.204-33.645-14.392-103.642-7.351-140.293
			c0.004-0.018,42.158,9.967,46.449,7.748c11.511-5.959,10.195-15.736,11.656-28.762c1.688-15.053,5.608-51.529-4.684-64.863
			c-13.075-16.938-48.465-15.493-66.014-27.125c-22.721-15.066-20.19-40.02-26.117-63.559
			c-6.152-24.436-17.398-47.805-25.199-71.891c-18.375-56.744-31.667-115.188-39.453-174.423
			c-4.67-35.515-18.029-65.821-23.636-100.618c-3.087-19.168-4.282-39.352-10.54-57.824c-5.186-15.31-17.391-28.877-22.123-44.029
			c-7.434,6.123-15.92,12.235-25.275,16.378c-0.424,0.188-1.088,0.507-1.945,0.929
			C5002.916,4791.248,5021.828,4902.2,5035.537,4972.029z"/>
		<path id="_x31_80611583" fill="none" stroke="#010101" stroke-width="64" d="M5755.776,5891.369
			c-4.657,3.584-9.685,5.78-15.565,5.431c-40.127-2.386-28.618-82.739-43.399-106.249c-50.142-79.711-162.522,43.948-205.696-15.27
			c-9.413,9.214-18.612,21.167-25.934,27.541c-20.232,17.614-52.477,32.9-72.492,52.916c6.748-1.656,13.117-2.969,18.926-3.597
			c60.876-6.585,130.463-8.66,185.156,23.957c59.871,35.73,75.35,123.343,136.5,159.271c2.586,1.519,28.24-18.377,33.969-19.141
			c12.791-1.71,17.811,4.353,30.121,7.912c1.515,0.439,3.037,0.824,4.568,1.17c-16.796-23.065-35.088-41.205-44.492-70.838
			C5750.205,5931.67,5755.932,5912.383,5755.776,5891.369z"/>
		<path id="_x31_80611584" fill="none" stroke="#010101" stroke-width="64" d="M5914.5,5852.4
			c-10.316,11.689-33.318,36.832-50.49,35.873c-4.195-0.232-7.713-1.597-10.852-3.654c3.393,22.234,12.161,43.846,15.421,65.986
			c4.026,27.371-2.946,45.234-10.083,68.178c5.746-2.652,11.254-5.875,16.403-9.637c34.647-25.354,79.948-44.092,107.886-77.718
			c37.016-44.628,63.729-77.825,119.626-97.229c61.038-21.176,134.857-28.866,199.042-31.974
			c50.334-2.436,86.947,48.221,139.885,36.104c54.086-12.38,29.06-47.599,31.391-86.87c1.61-27.154,19.143-37.189,36.221-56.685
			c21.541-24.583,39.877-52.237,53.998-81.902c30.812-64.687,43.107-51.206,109.48-42.538c15.27,1.978,52.571,12.788,65.235-0.604
			c37.719-39.893-31.374-87.008-52.647-130.344c-37.576-24.953-67.757-42.055-114.688-77.227
			c-15.376-11.523-35.245-32.527-55.285-45.87c-39.713,72.298,96.752,206.079-15.741,247.083
			c-27.34,9.965-42.598-14.901-69.462-9.596c-57.631,11.38-28.626,77.196-38.645,116.16
			c-11.701,45.501-70.604,29.412-102.789,25.262c-57.385-7.402-115.52,4.93-172.526,13.801
			c-41.634,6.479-81.583,20.756-117.893,42.326C5958.039,5775.055,5944.727,5818.156,5914.5,5852.4z"/>
		<path id="_x31_80611581" fill="none" stroke="#010101" stroke-width="64" d="M6118.935,5694.488
			c-55.062,6.279-138.637,14.896-223.102,21.393c-74.942,5.762-171.958-6.76-260.447-42.688
			c-70.486-28.627-143.259-55.911-193.226-87.777c-95.555-60.934-141.293-127.528-163.715-174.371
			c-14.4-30.08,14.115-47.55,24.938-62.072c20.854-27.979,65.488,0.668,31.148-69.576c-15.643-32.004-45.941-81.904-56.15-110.849
			c-24.792-70.337-38.197-106.43-73.475-168.976c-37.933-67.271-105.98-139.168-121.104-215.352
			c-5.685-28.661,0.21-70.418-7.028-76.031c-4.843-3.761-15.564,8.674-30.605,21.064c4.732,15.152,16.936,28.719,22.123,44.029
			c6.26,18.475,7.453,38.656,10.54,57.825c5.606,34.794,18.968,65.101,23.636,100.618c7.787,59.234,21.079,117.678,39.453,174.424
			c7.799,24.086,19.047,47.455,25.199,71.888c5.928,23.536,3.395,48.492,26.117,63.558c17.547,11.635,52.939,10.191,66.014,27.128
			c10.293,13.331,6.372,49.81,4.682,64.862c-1.461,13.027-0.141,22.805-11.654,28.76c-4.292,2.223-46.447-7.765-46.449-7.747
			c-7.043,36.654-11.855,106.647,7.349,140.294c27.362,47.943,76.481,83.289,121.594,112.115
			c29.081,18.584,58.169,37.922,90.22,50.849c14.46,5.823,37.355,5.772,58.331,8.992c6.813-1.389,6.813-1.389,0,0
			c20.634,3.171,39.408,9.512,46.463,27.745c9.49,24.524-41.683,76.046-41.67,76.08c0.958,1.643,1.959,3.178,2.999,4.604
			c6.227-6.092,6.227-6.092,0,0c43.17,59.216,155.553-64.443,205.696,15.27c14.781,23.506,3.273,103.863,43.399,106.248
			c5.879,0.35,10.91-1.846,15.565-5.432c-0.032-4.222-0.032-4.222,0,0c16.964-13.059,28.967-44.581,58.99-38.916
			c19.215,3.652,25.585,23.766,38.392,32.164c-1.004-6.569-1.004-6.569,0,0c3.139,2.061,6.655,3.422,10.852,3.658
			c17.172,0.959,40.173-24.186,50.491-35.874c17.347-19.657,29.871-43.138,44.29-65.094l13.546-14.993
			c7.338-7.914,15.661-15.055,25.647-20.985c36.312-21.569,76.26-35.849,117.893-42.325c51.67-8.039,104.268-18.926,156.389-15.383
			l12.926,0.897c45.979,9.024,95.622,15.784,106.004-24.58c10.02-38.966-18.984-104.782,38.644-116.161
			c26.866-5.305,42.122,19.562,69.464,9.596c112.491-41.008-23.971-174.782,15.74-247.084
			c-21.981-14.633-44.168-20.047-60.857,6.414c-17.623,27.93-18.369,101.832-29.621,137.098
			c-15.133,47.445-47.172,90.059-82.52,138.081c-29.459,40.028-115.996,81.813-162.475,89.063
			c-3.496,0.545-9.453,1.355-17.482,2.383L6118.935,5694.488z"/>
		<path id="_x31_80611575" fill="none" stroke="#010101" stroke-width="64" d="M4896.553,4177.706
			c-2.022,54.16-6.983,112.453-11.104,167.649c-5.817,78.113-17.278,157.707-7.942,236.018
			c8.177,68.527,49.268,195.379,49.268,195.379c76.588-44.479,140.906-69.662,179.322-155.227
			c25.981-57.844,70.449-137.22,89.803-196.914c31.783-98.021,64.128-219.482,118.277-306.518
			c13.1-21.057,101.83-126.57,133.744-156.65c12.553-11.828,70.573-64.316,56.113-68.527c-10.63-3.09-66.064,3.857-78.623,3.205
			c-48.653-2.531-97.102-8.125-145.801-10.406c-28.846-1.35-73.822-9.148-100.578,6.504c-25.543,14.953-45.623,82.49-66.104,119.339
			c-23.783,42.776-55.436,67.728-100.652,71.134c-44.285,3.34-65.516-1.787-113.74-28.021L4896.553,4177.706z"/>
		<path id="_x31_80611573" fill="none" stroke="#010101" stroke-width="64" d="M6264.214,5329.471
			c-48.099,34.383-133.509,164.657-274.124,170.584c-110.787,4.672-272.192-15.78-394.94-49.887
			c-67.921-18.873-133.788-40.648-173.229-67.898c-52.745-36.436-65.487-50.299-105.745-25.154
			c-20.21,12.619-32.623,57.367,1.924,93.613c37.811,39.669,103.537,101.719,200.188,151.047
			c71.742,36.609,134.739,67.108,210.265,82.714c48.222,9.964,107.012,11.815,158.659,11.964
			c104.811,0.304,259.195-24.68,336.792-45.939c54.848-15.021,88.912-52.238,117.398-85.108
			c47.494-54.769,64.291-113.474,68.521-129.024c11.903-43.799,32.142-157.186,5.114-184.973
			C6401.33,5237.307,6315.281,5292.963,6264.214,5329.471z"/>
		<path id="_x31_80611643" fill="none" stroke="#010101" stroke-width="64" d="M7228.551,5178.111
			c0.481-2.512,0.488-5.059-0.139-7.551c-4.465-17.464-34.18-15.635-46.922-12.708c-16.17,3.718-33.711,12.919-47.426,22.367
			c-77.639,53.509-156.469,109.431-231.899,166.337c-11.696,8.83-22.819,19.764-33.258,30.113
			c-6.386,6.338-13.188,13.385-15.351,22.52c-4.305,18.197,6.83,43.162,22.584,52.23c5.51,3.168,11.704,4.529,17.975,4.851
			c11.1,0.562,18.684,1.711,26.502-7.688c8.788-10.578,18.193-21.127,28.209-30.587c15.908-15.024,44.248-36.227,63.805-48.999
			c32.999-23.645,70.48-49.67,87.363-62.818c4.812-4.053,9.032-7.743,12.325-10.807c17.167-16.203,34.162-32.553,51.234-48.876
			c8.971-8.584,16.985-16.235,22.223-21.15c0.068-0.062,0.138-0.128,0.206-0.19c9.42-8.909,18.906-17.773,28.49-26.582
			c0.017-0.017,0.031-0.029,0.047-0.047C7219.637,5193.324,7226.993,5186.316,7228.551,5178.111z"/>
		<path id="_x31_80611644" fill="none" stroke="#010101" stroke-width="64" d="M6070.023,4400.434
			c61.791,58.974,107.66,170.59,121.112,226.294c5.114,21.14,1.696,37.478-5.473,48.591
			c-40.894,63.337-249.069-19.725-286.142-61.689c-63.2-71.555-27.787-218.498,68.605-247.798
			C6004.393,4354.813,6039.111,4370.941,6070.023,4400.434z"/>
		<path id="_x31_80611645" fill="none" stroke="#010101" stroke-width="64" d="M5646.648,2740.414
			c21.834-38.849,48.022-74.091,79.209-102.875c9.389-8.718,19.206-16.885,29.594-24.265c21.938-15.861,46.085-28.732,72.635-37.845
			c22.686-7.889,47.135-12.961,73.416-14.905c122.83-8.915,257.305,60.359,356.322,128.775
			c36.117,25.015,70.562,52.712,102.357,83.056c57.822,54.96,106.942,118.285,142.4,188.478c1.814,3.507,3.555,7.012,5.216,10.591
			c-0.071-0.079-0.147-0.082-0.22-0.162c2.229,4.517,4.377,9.029,6.383,13.385c1.037,2.255,2.078,4.434,2.971,6.607
			c4.335,10.097,8.444,20.261,12.319,30.646c0.88,2.479,1.757,5.032,2.638,7.51c15.938,47.817,21.109,93.225,24.562,152.463
			c4.016,70.103,4.119,134.709-12.134,174.463c-0.735,1.649-1.396,3.228-2.128,4.802c-1.137,2.324-2.271,4.645-3.477,6.812
			c-3.615,6.502-7.579,12.302-11.897,17.629c-1.415,1.778-2.901,3.475-4.461,5.097c-16.777,17.974-37.802,29.515-59.938,44.681
			c-10.678,7.14-20.943,15.288-30.644,24.299c-0.229,0.145-0.39,0.365-0.544,0.516c-1.238,1.096-2.481,2.27-3.574,3.447
			c-1.083,0.949-2.096,1.979-3.182,3.006c-14.926,14.531-28.188,30.658-39.996,47.907c-0.164,0.375-0.403,0.748-0.715,1.042
			c-28.595,41.484-50.557,89.645-64.506,135.828c-9.324,30.789-18.783,120.598-20.83,139.148c-3.3,29.879-4.664,59.988-1.484,88.826
			c0.02,13.363,0.201,26.352,0.622,38.967c0.817,25.918,1.256,48.004,1.551,73.9c-6.806-8.133-11.092-17.537-16.745-26.466
			c-6.004-9.553-12.006-19.104-18.625-28.224c-45.893-63.501-98.361-117.49-166.136-156.731
			c-107.63-62.417-232.107-63.414-349.672-92.775c-20.028-4.985-42.138-8.376-61.308-16.233c-4.053-1.686-8.689-1.867-12.828-3.328
			c14.486-24.705,31.902-45.707,33.062-76.358c1.454-40.489-26.213-65.248-46.385-96.126c-19.957-30.641-27.051-62.84-44.668-93.922
			c-3.256,4.913-5.193,12.624-8.188,18.54c-31.356,62.986-81.813,116.287-123.888,171.598
			c-45.538,59.831-87.85,167.059-153.629,197.84c-17.989-50.951,48.119-110.281,71.848-149.742
			c8.305-13.725,16.027-27.854,23.159-42.232c32.156-62.346,50.303-128.445,51.353-132.451c0.08-0.151,0.083-0.227,0.083-0.227
			s0.09-0.379,0.265-1.061c0.004-0.074,0.004-0.074,0.08-0.146c14.356-48.994,25.333-99.724,34.301-150.763
			c0.092-0.454,0.18-0.832,0.273-1.286c16.75-94.562,27.035-190.371,41.415-279.681
			C5567.955,2938.605,5596.021,2829.903,5646.648,2740.414z"/>
		<path id="_x31_80611642" fill="none" stroke="#010101" stroke-width="64" d="M5660.271,3684.412
			c27.553-31.832,53.812-70.719,44.476-116.979c-7.335-36.175-34.238-55.115-52.306-85.087
			c-15.3-25.358-21.627-56.352-37.066-80.691c-19.027,53.37-40.456,84.876-48.157,141.98
			c-16.147,119.918-30.703,235.432-39.403,357.039c44.328-68.736,68.468-145.219,124.072-206.795
			C5654.66,3690.799,5657.475,3687.643,5660.271,3684.412z"/>
	</g>
</g>
</svg>
