<svg width="9440" height="7584" xmlns="http://www.w3.org/2000/svg">
<g transform="scale(1.0)">
<g id="180641178" order="1" parent_id="" graphic_group_label_id="28" graphic_group_label="Atlas - Adult Mouse" sub_image_id="100960181" transform=" scale(1.0, 1.0)"><path id="180641180" parent_id="180641178" order="0" structure_id="8" d="M4332.533,6707.372
			c152.483,220.562,545.28,81.466,786.587,14.012c302.175-84.465,617.7-152.89,893.709-305.085
			c116.932-64.484,200.693-158.698,289.861-242.68c65.2-61.413,137.574-116.354,206.604-155.221
			c212.228-119.472,412.616-184.646,554.594-392.336c31.729-46.406,58.793-95.672,81.088-147.246
			c39.357-91.078,66.146-187.522,82.583-285.328c8.394-49.912,17.518-100.089,21.516-150.57c1.966-24.61,0.935-83.562,34.881-91.959
			c44.736-11.055,84.184,73.32,105.951,100.097c24.488,30.132,60.068,54.32,90.911,77.493
			c68.608,51.529,130.456,91.139,139.897,184.995c17.907,177.976,101.88,464.86,292.275,534.143
			c220.579,80.275,415.143-140.958,527.528-248.038c266.917-254.335,379.318-622.726,309.338-1035.618
			c-19.191-113.345-120.008-268.59-252.268-409.735c-233.531-249.265-613.581-439.257-853.693-490.827
			c-166.945-35.856,82.559-59.76,199.885-178.272c123.655-124.891,203.826-311.527,217.127-342.724
			c136.777-320.863,14.527-762.128-235.213-976.829c-78.236-67.26-194.506-216.916-355.895-254.104
			c-65.813-15.166-78.838-118.545-112.938-148.368c-258.134-225.816-390.207-332.803-709.782-473.456
			c-151.301-66.581-323.869-46.037-480.679-86.528c-167.856-43.339-254.148-159.401-393.559-245.304
			c-211.435-130.29-559.68-130.554-722.664-172.796c-100.694-26.098-99.613-63.952-197.744-91.411
			c-119.296-33.37-254.652-36.937-377.588-36.217L4332.533,6707.372z" style="stroke:black;fill:#bfdae3"/><path id="180641202" parent_id="180641178" order="1" structure_id="313" d="M4988.785,848.943
			c-59.561,33.788-122.672,62.778-167.393,105.39c-81.291,77.457-158.881,153.426-183.996,267.433
			c-33.78,153.292,111.72,313.4,219.206,457.479c44.655,59.853,40.764,112.219,82.474,146.247
			c118.378,96.575,249.529,78.163,372.729,168.473c87.922,64.448,315.513,162.725,406.969,226.938
			c38.24,26.85,75.616-65.053,131.021-198.658c51.294-123.708,104.566-261.254,114.873-334.286
			c35.108-248.757,143.923-445.944-26.731-616.51c-136.262-136.188-373.137-229.554-579.42-238.621
			C5195.63,825.669,5128.167,769.91,4988.785,848.943z" style="stroke:black;fill:#ff64ff"/><path id="180641205" parent_id="180641178" order="2" structure_id="811" d="M4913.433,1322.141
			c-12.287,33.996-16.264,67.955-13.494,101.016c10.052,119.789,108.697,227.857,221.446,283.529l-4.582-13.057l4.582,13.057
			c39.595,19.551,80.927,32.643,120.773,37.508c191.853,23.419,398.185-81.687,437.812-279.219
			c25.55-127.341-38.965-225.532-140.741-296.883c-55.523-38.926-119.305-64.264-184.751-75.687l-2.581,9.515l2.581-9.515
			C5174.084,1060.921,4981.042,1135.177,4913.433,1322.141z" style="stroke:black;fill:#ff7aff"/><path id="180641203" parent_id="180641178" order="3" structure_id="820" d="M5124.502,1715.568l-3.117-8.882
			c-112.749-55.672-211.395-163.74-221.446-283.529c-2.77-33.062,1.207-67.02,13.494-101.016
			c67.609-186.964,260.651-261.22,441.045-229.736l1.761-6.492c13.692-83.543-1.064-172.558-23.762-254.321l-0.105-0.374
			c-144.402-11.309-211.907-56.94-343.586,17.724c-59.561,33.788-122.672,62.778-167.393,105.39
			c-81.291,77.457-158.881,153.426-183.996,267.433c-33.78,153.292,111.72,313.4,219.206,457.479
			c44.655,59.853,40.764,112.219,82.474,146.247c29.48,24.051,59.754,40.968,90.499,54.211
			C5092.287,1846.61,5142.473,1788.118,5124.502,1715.568z" style="stroke:black;fill:#ff7aff"/><path id="180641204" parent_id="180641178" order="4" structure_id="828" d="M5937.937,1071.448
			c-136.262-136.188-373.137-229.554-579.42-238.621c-9.002-0.396-17.697-0.947-26.146-1.608l0.105,0.374
			c22.697,81.763,37.454,170.778,23.762,254.321l-1.761,6.492c65.446,11.423,129.228,36.761,184.751,75.687
			c101.776,71.351,166.291,169.542,140.741,296.883c-39.627,197.532-245.959,302.638-437.812,279.219
			c-39.847-4.865-81.179-17.957-120.773-37.508l3.117,8.882c17.971,72.55-32.215,131.042-94.927,164.134
			c92.71,39.934,189.712,46.442,282.23,114.262c87.922,64.448,315.513,162.725,406.969,226.938
			c38.24,26.85,75.616-65.053,131.021-198.658c51.294-123.708,104.566-261.254,114.873-334.286
			C5999.776,1439.201,6108.591,1242.014,5937.937,1071.448z" style="stroke:black;fill:#ff7aff"/><path id="180641206" parent_id="180641178" order="5" structure_id="771" d="M4419.738,4556.844
			c-6.419,67.979,160.092,73.557,277.057,50.835c54.385-10.559,112.15-34.743,113.491-47.194
			c2.254-20.906-20.146-41.808-32.729-66.329c-19.536-38.111-30.42-80.809-4.473-113.698c22.015-27.914,64.294-35.503,91.415-40.252
			c31.343-5.484-25.618-104.752-43.554-135.047c-47.723-80.612-106.073-178.064-184.761-232.832
			c-14.259-9.929-94.653,108.547-98.496,115.519c-37.241,67.486-76.221,163.789-99.118,251.117
			c-17.587,70.578-18.038,137.018-18.562,209.257C4419.986,4552.063,4419.904,4555.061,4419.738,4556.844z" style="stroke:black;fill:#ff9b88"/><path id="180641207" parent_id="180641178" order="6" structure_id="771" d="M5229.86,3742.521
			c32.146,70.549,110.111,23.172,156.192-1.966c21.975-11.993,110.74-81.056,56.778-86.52
			c-64.587-6.541-151.874,8.202-199.174-23.534C5216.832,3612.512,5206.127,3690.439,5229.86,3742.521z" style="stroke:black;fill:#ff9b88"/><path id="180641208" parent_id="180641178" order="7" structure_id="898" d="M4873.544,4310.256
			c-50.181-114.673-160.958-284.771-237.358-337.93c-14.259-9.929-94.653,108.547-98.496,115.519
			c-37.241,67.486-76.221,163.789-99.118,251.117c-17.587,70.578-18.038,137.018-18.562,209.257
			c-0.024,3.844-0.106,6.842-0.268,8.561c-8.576,89.514,268.574,75.949,376.678,17.936c49.092-26.346-58.395-80.475-35.344-173.547
			C4781.734,4317.776,4901.152,4373.339,4873.544,4310.256z M4524.681,4414.667c-30.453-82.449,68.73-153.315,138.992-107.885
			C4777.582,4380.437,4570.897,4539.794,4524.681,4414.667z" style="stroke:black;fill:#ffba86"/><path id="180641210" parent_id="180641178" order="8" structure_id="318" d="M4663.673,4306.782
			c-70.262-45.431-169.444,25.436-138.992,107.885C4570.897,4539.794,4777.582,4380.437,4663.673,4306.782z" style="stroke:black;fill:#ffba86"/><path id="180641209" parent_id="180641178" order="9" structure_id="147" d="M5229.86,3742.521
			c32.146,70.549,110.111,23.172,156.192-1.966c21.975-11.993,110.74-81.056,56.778-86.52
			c-64.587-6.541-151.874,8.202-199.174-23.534C5216.832,3612.512,5206.127,3690.439,5229.86,3742.521z" style="stroke:black;fill:#ffc395"/><path id="180641181" parent_id="180641178" order="10" structure_id="354" d="M7070.526,4662.202
			c-26.235-71.358-31.939-146.991-35.75-222.262c-1.13-22.413-1.585-46.756-8.589-68.348c-10.741-33.143-42.412-52.285-63.692-78.48
			c-71.963-88.628-222.155-297.098-354.074-182.034c-116.33,101.482,21.646,250.195-52.09,361.168
			c-52.37,78.817-180.656-28.012-220.579-119.139c-28.02-63.948-62.661-125.784-89.047-190.276
			c-22.746-55.604-44.185-109.566-74.186-162.957c-26.878-47.836-45.424-103.501-78.793-147.303
			c-33.748-44.294-79.919-78.042-124.469-110.611c-2.521-1.843-5.003-3.794-7.458-5.817c-10.119-12.792-25.677-26.874-44.121-41.226
			c-8.423-7.489-17.149-14.309-26.551-19.538c-40.192-28.161-87.011-55.578-121.292-74.568
			c-107.631-59.633-242.446-119.821-361.506-152.452c-59.995-16.447-227.006,64.771-237.697,107.188
			c-1.282,5.085-6.517,7.901-10.183,8.157c-4.67-0.866-9.769-0.52-14.651,2.365c4.428-2.612,18.159,22.068,19.09,25.221
			c2.998,10.221-0.256,19.362-2.958,29.283c-7.223,26.5-18.27,49.875-30.38,74.413c-40.442,81.893-162.659,90.44-237.743,120.572
			c-51.416,20.638-103.745,40.301-151.558,69.169c-27.117,16.393-92.13,47.431-65.728,89.254
			c9.771,15.479,24.258,28.206,35.048,43.055c12.439,17.107,23.875,34.905,36.376,51.964
			c26.995,36.844,52.184,74.946,75.611,114.174c26.041,43.6,54.459,95.771,70.656,132.784c14.657,33.495-37.355,37.42-75.076,50.205
			c-33.309,11.289-46.922,37.229-48.015,49.814c-1.442,16.611-0.979,52.31,21.04,76.449c45.609,49.997,35.478,91.861,13.211,99.149
			c-38.155,12.488-89.067,34.414-144.557,41.243c-52.854,6.521-88.376-2.133-141.449-1.332c-23.278,0.349-55.681-4.343-75.848-3.913
			c-23.607,0.496-59.337-11.086-60.849,21.077c-2.856,60.962-1.788,131.728-3.425,197.521c-1.946,78.285-7.715,148.977-8.23,228.03
			c-0.602,91.906-5.44,184.784-7.561,276.541c-4.627,199.885-28.198,1262.258-35.08,1353.507
			c17.603,12.528,31.725,31.448,46.813,46.946c19.557,20.098,42.283,36.461,67.568,48.604
			c99.987,48.027,223.878,37.623,329.61,18.078c114.58-21.178,225.109-58.492,336.256-92.585
			c270.402-82.941,628.198-156.798,904.207-308.993c202.436-111.63,317.621-300.014,481.077-392.03
			c212.211-119.471,428.005-190.517,569.982-398.206c115.067-168.322,158.446-358.206,184.463-573.963
			C7254.348,5002.406,7131.367,4827.681,7070.526,4662.202z M5386.118,3740.514c-17.896,9.771-36.441,19.131-55.011,27.528
			c-33.963,15.36-71.335,19.375-95.686-14.462c-17.16-23.843-15.052-48.633-13.995-76.238c0.422-10.981-1.345-23.059,4.107-33.069
			c4.061-7.461,10.963-10.106,10.389-16.761c-0.13-1.501,9.162,3.72,17.363,7.791c38.73,19.224,78.045,17.964,127.809,19.151
			c22.511,0.535,16.011,1.759,31.485-1.836c4.63,0.618,35.095,2.183,38.957,4.329
			C5482.703,3674.26,5412.406,3726.169,5386.118,3740.514z" style="stroke:black;fill:#ff9bcd"/><path id="180641183" parent_id="180641178" order="11" structure_id="112" d="M7235.799,5057.064c0.698-4.607,1.178-8.962,1.527-12.676
			c5.695-60.482-44.915-98.996-73.337-145.268c-42.056-68.458-107.178-105.724-164.695-159.577
			c-73.67-68.974-157.765-129.221-245.377-180.539c-23.839-13.959-157.415-100.328-174.925-45.086
			c-14.072,44.396,111.923,88.844,138.231,106.418c73.987,49.413,147.405,99.695,218.207,153.69
			c79.146,60.361,153.45,127.043,215.623,205.316c14.935,18.81,34.036,39.11,43.827,61.202
			c7.856,17.704,23.262,35.515,24.326,55.486C7229.209,5088.244,7233.613,5071.413,7235.799,5057.064z" style="stroke:black;fill:#ffa5d2"/><path id="180641185" parent_id="180641178" order="12" structure_id="96" d="M6575.383,4519.121l2.556,0.58l-0.007-0.001
			c0.103-1.926,0.449-3.854,1.061-5.781c17.51-55.242,151.086,31.127,174.925,45.086c87.612,51.318,171.707,111.565,245.377,180.539
			c21.649,20.271,44.377,38.191,66.547,56.31c62.77,30.135,70.121,30.964,54.065-29.529l-0.002-0.002
			c-17.304-36.06-33.647-73.128-46.973-109.743c-46.914-128.969-25.895-260.519-45.891-287.322
			c-39.081-52.391-133.763-150.818-185.771-219.219c-52.602-69.177-157.439-110.384-240.462-27.979
			c-77.943,77.411-7.954,219.836-21.702,316.423c-4.294,30.231-5.291,56.39-3.726,80.641L6575.383,4519.121z" style="stroke:black;fill:#ffa5d2"/><path id="180641184" parent_id="180641178" order="13" structure_id="101" d="M6730.427,5880.032
			c14.823-20.063,30.776-39.601,40.579-63.625c22.027-53.995,21.353-124.753,19.191-182.209
			c-7.646-203.898-64.594-409.459-83.371-613.504c-9.385-102.177-21.476-191.813-53.659-288.193
			c-28.184-84.419-42.666-115.334-59.333-182.667l4.667,2.667l20.666,15.333c29.334,22,89.891,45.692,115.057,62.503
			c73.987,49.413,147.405,99.695,218.207,153.69c79.146,60.361,153.45,127.043,215.623,205.316
			c14.935,18.81,34.036,39.11,43.827,61.202c6.874,15.491,19.528,31.063,23.298,48.095l0.176,0.749
			c-6.34,90.423-23.077,193.244-86.391,350.673c-63.584,158.104-172.525,290.288-418.439,430.146L6730.427,5880.032z" style="stroke:black;fill:#ffa5d2"/><path id="180641187" parent_id="180641178" order="14" structure_id="45" d="M6323.683,4852.632
			c-4.013-36.912-6.828-73.356-19.928-111.409c-19.906-57.826-99.43-77.205-168.989-95.56c0,0-222.667,82.295-273.404,146.105
			c-53.971,67.889,23.518,146.945,55.413,210.508c30.079,59.937,65.306,117.111,95.923,176.831
			c11.696-0.947,27.011-3.108,27.011-3.108C6168.458,5150.518,6281.981,4968.882,6323.683,4852.632z" style="stroke:black;fill:#ffa5d2"/><path id="180641186" parent_id="180641178" order="15" structure_id="69" d="M6488.247,5338.825
			c-41.836-123.529-78.861-246.782-135.551-367.842c-19.429-41.484-24.862-80.168-29.014-118.352
			c-41.701,116.25-155.225,297.886-283.975,323.367c0,0-15.314,2.161-27.011,3.108c5.247,10.235,10.375,20.536,15.301,30.947
			c61.894,130.794,75.62,205.931,47.04,348.813c-18.891,94.446-8.885,134.746,36.507,215.721c0,0,183.496,141.466,231.251,73.536
			C6452.997,5691.356,6518.745,5428.876,6488.247,5338.825z" style="stroke:black;fill:#ffa5d2"/><path id="180641182" parent_id="180641178" order="16" structure_id="653" d="M4869.104,4519.249
			c70.038-19.017,59.853-138.288-7.987-151.955C4724.692,4339.823,4761.283,4548.459,4869.104,4519.249z" style="stroke:black;fill:#ffb3d9"/><path id="180641195" parent_id="180641178" order="17" structure_id="661" d="M5212.529,6471.883
			c0.703-172.057,145.395-784.739,402.212-687.998c92.816,34.962,121.47-119.184,262.496-71.339
			c44.026,14.935,127.129,249.972,152.549,231.158c100.941-74.689,118.37-21.97,138.423,11.664
			c43.632,73.194-15.239,171.634-159.649,292.986c-69.043,58.021-166.715,135.559-208.384,128.132
			c-66.699-11.891-52.253-478.416-244.041-206.088c-71.838,102.006,10.9,248.696-100.328,336.487
			C5382.259,6564.943,5252.136,6568.368,5212.529,6471.883" style="stroke:black;fill:#ffb3d9"/><path id="180641201" parent_id="180641178" order="18" structure_id="576" d="M5411.902,5693.952
			c3.616-41.593-35.4-57.254-67.405-62.405c-26.78-4.314-74.283,9.422-78.776,41.077
			C5256.994,5734.073,5405.85,5763.686,5411.902,5693.952z" style="stroke:black;fill:#ffb3d9"/><path id="180641193" parent_id="180641178" order="19" structure_id="1048" d="M4441.964,6035.692
			c127.5-3.421,283.183-61.21,376.622-34.712c89.607,25.411,121.495,44.998,169.492,25.499c11.203-4.552,20.445-9.675,28.508-14.607
			l-0.918,1.258c15.851-22.239,39.355-37.981,68.814-42.036c26.805-3.687,47.13,0.334,62.384,9.69h0.001
			c54.64,11.145,124.181,30.467,121.696-6.803c-1.938-29.079-8.262-58.785-16.946-85.474l-0.005,0.002
			c-64.234-84.772-120.627-168.885-144.768-276.837c-43.078-192.657-76.882-434.793-114.669-615.893
			c-28.098-41.261-89.595-98.744-149.093-159.449c-73.544-75.036-118.881-43.377-161.325-42.454
			c-31.532,0.686-36.139-13.91-58.163,47.661c-13.032,36.434-34.171,223.997-46.897,267.19
			c-15.8,53.625-23.345,123.553-34.947,221.891l-7.039,143.57c1.806,115.377,5.714,125.154-8.612,182.523
			c-23.419,93.78-80.831-100.741-64.296,38.808c9.515,80.315,0.51,76.087-0.1,156.907c-0.469,61.735-11.187,122.371-19.743,183.264
			L4441.964,6035.692z" style="stroke:black;fill:#ffb3d9"/><path id="180641188" parent_id="180641178" order="20" structure_id="136" d="M4992.176,4995.78
			c37.787,181.1,71.591,423.235,114.669,615.893c33.899,151.59,131.393,256.169,224.895,381.581l0.472,0.606l0.181-0.32
			c67.729-146.202,162.914-254.646,282.35-209.655c92.816,34.962,121.47-119.184,262.496-71.339c1.032,0.35,2.086,0.82,3.159,1.406
			l-0.321-0.981c-3.521-9.92-12.243-16.317-12.243-16.317c-36.2-24.98-71.073-54.52-100.775-86.979
			c-85.944-93.922-176.096-190.089-254.166-290.859c-105.593-136.316-209.696-297.263-372.828-364.296 M5411.902,5693.952
			c-6.053,69.733-154.908,40.121-146.182-21.328c4.493-31.655,51.996-45.392,78.776-41.077
			C5376.502,5636.698,5415.519,5652.359,5411.902,5693.952z M5140.063,4954.52c-37.563,59.98-82.891,63.98-147.887,41.261" style="stroke:black;fill:#ffb3d9"/><path id="180641197" parent_id="180641178" order="21" structure_id="106" d="M5605.397,5230.563
			c-22.584-37.851-177.387-204.284-44.262-181.286c31.533,5.439,53.646,23.773,81.125,37.879
			c89.327,45.85,227.892,44.911,210.439,187.096C5835.873,5411.325,5645.116,5297.164,5605.397,5230.563z" style="stroke:black;fill:#ffb3d9"/><path id="180641198" parent_id="180641178" order="22" structure_id="307" d="M4915.452,6066.958
			c73.149,71.801,61.36,179.153,52.971,272.108c-4.18,46.285-12.045,97.736-2.811,143.814c6.687,33.353,51.537,91.496,11.606,118.41
			c-14.933,10.066-50.97-24.159-86.489-46.516c-38.995-24.543-84.258-50.196-102.229-58.275
			c-75.37-33.884-161.288-88.147-238.537-97.287c-46.35-5.483-88.139-3.286-126.686,53.286
			c1.917-27.166-21.702-35.719-24.667-59.334c-3.027-24.066,18.751-50.886,24.988-74.318
			c12.152-45.653,17.366-69.061,16.562-117.015c-0.321-19.013-12.424-164.38,9.96-165.538
			C4590.811,6030.204,4801.871,5955.478,4915.452,6066.958z" style="stroke:black;fill:#ffb3d9"/><path id="180641191" parent_id="180641178" order="23" structure_id="852" d="M6132.438,5789.758
			c-12.976-9.064-20.894-15.169-20.894-15.169c-45.392-80.975-55.397-121.274-36.507-215.721
			c28.58-142.883,14.854-218.02-47.04-348.813c-33.67-71.163-75.989-137.569-111.224-207.778
			c-15.336-30.562-41.211-64.704-57.947-99.466l0.006-0.011c-44.489-55.826-99.656-87.546-183.643-88.563v0.004
			c-18.61,3.543-37.28,6.108-55.858,7.595c-17.116,1.365-67.707,16.677-103.282-5.736c-45.338-28.556-95.726-70.766-138.89-107.381
			c-24.791-21.027-47.719-39.589-61.827-57.581l0.006-0.001c-39.199-31.625-61.278-33.943-117.272-0.087
			c-64.497,38.998-86.996,18-80.996,67.497s32.999,79.495,26.999,145.492s-4.007,90.481-4.007,90.481
			c163.132,67.033,267.235,227.979,372.828,364.296c78.07,100.771,168.222,196.938,254.166,290.859
			c29.702,32.459,64.575,61.998,100.775,86.979c0,0,8.722,6.397,12.243,16.317l0.313,0.978c16.462,8.976,37.68,44.952,59.161,85.926
			l-0.007,0.004c38.198,63.702,85.82,128.295,129.465,102.92C6106.483,5881.01,6119.775,5843.33,6132.438,5789.758
			L6132.438,5789.758z M5852.7,5274.251c-16.827,137.074-207.584,22.913-247.303-43.688
			c-22.584-37.851-177.387-204.284-44.262-181.286c31.533,5.439,53.646,23.773,81.125,37.879
			C5731.588,5133.005,5870.152,5132.066,5852.7,5274.251z" style="stroke:black;fill:#ffb3d9"/><path id="180641196" parent_id="180641178" order="24" structure_id="978" d="M4988.631,6352.046
			c3.917-90.789,7.626-167.462,4.144-257.897c-2.312-60.085,32.789-114.945,91.708-123.055
			c92.244-12.687,107.755,65.895,103.916,139.13c-5.021,95.88-34.82,187.689-55.722,280.733c-6.338,28.202-2.592,57.984-10.38,85.91
			c-10.311,37.015-25.639,34.305-56.441,49.669c-50.188,25.05-82.818,22.929-86.897-41.791
			C4976.159,6440.211,4986.726,6396.295,4988.631,6352.046z" style="stroke:black;fill:#ffb3d9"/><path id="180641194" parent_id="180641178" order="25" structure_id="1069" d="M5222.313,6531.48c3.717,6.057,5.586,13.76,5.127,23.388
			c-2.539,53.609-121.633,120.113-169.604,118.045c-34.665-1.503-62.465-14.08-80.819-45.362
			c-14.024-24.029,41.815-67.315,55.575-75.77C5062.654,6533.309,5194.436,6485.996,5222.313,6531.48z" style="stroke:black;fill:#ffb3d9"/><path id="180641189" parent_id="180641178" order="26" structure_id="209" d="M5516.05,4816.099
			c-45.338-28.556-95.726-70.766-138.89-107.381c-37.497-31.806-70.733-57.969-75.633-85.053
			c-4.484-24.88,25.903-68.279,36.669-82.34c84.496-110.314,61.438-150.98,137.248-226.945
			c38.847-38.968,77.798-83.307,132.387-82.803c185.832,1.714,350.068-137.192,485.493-231.024
			c55.364-38.354,100.036,129.124,120.515,183.858c58.253,155.692,23.348,177.484-125.061,260.376
			c-110.806,61.893-99.65,224.638-209.766,290.809c-77.208,46.398-169.521,79.028-259.681,86.239
			C5602.216,4823.2,5551.625,4838.512,5516.05,4816.099z" style="stroke:black;fill:#ffb3d9"/><path id="180641192" parent_id="180641178" order="27" structure_id="202" d="M5408.189,4169.884
			c19.325,27.742,53.175,49.335,67.548,75.152c15.344,27.564-30.583,60.288-53.938,108.271
			c-66.431,136.481-140.479,271.471-298.881,314.595c-81.933,22.304-119.69-73.86-142.164-135.043
			c-31.834-86.642-61.572-170.532-102.002-254.152c-33.598-69.477-77.128-133.702-119.918-198.121
			c-90.046-135.555-166-123.644,71.037-242.229c62.835-31.44,121.063-38.277,185.553-62.072
			c42.282-15.6,74.214-30.148,100.068-62.393c28.027-34.946,42.624-109.66,62.632-109.965c59.5-0.91,21.471,52.695,18.574,95.238
			c-1.89,27.678,7.845,65.643,30.01,82.291c36.457,27.386,68.417,7.089,105.927,4.656c37.529-2.441,39.768,21.88,40.251,48.076
			c1.187,63.904-3.595,128.027-6.711,191.801C5363.766,4075.315,5377.924,4126.442,5408.189,4169.884z" style="stroke:black;fill:#ffb3d9"/><path id="180641190" parent_id="180641178" order="28" structure_id="217" d="M5693.839,3732.108
			c-58.667-32.825-143.514-80.194-206.117-41.621c-71.387,43.985-84.976,71.984-80.73,149.972
			c5.281,97.055-45.801,274.786,22.705,321.57c153.089,104.541,407.766,3.579,505.469-75.226
			c53.728-43.331,151.854-111.582,159.146-184.358c5.622-56.111-46.476-112.971-105.902-116.42
			c11.168,0.642-52.078,21.109-73.532,24.64c-33.78,5.549-80.877-8.341-110.96-20.983
			C5766.168,3773.778,5781.455,3781.135,5693.839,3732.108z" style="stroke:black;fill:#ffb3d9"/><path id="180641199" parent_id="180641178" order="29" structure_id="206" d="M4380.071,4928.773c80.349,49.47,54.3,182.57,56.193,257.963
			c3.526,140.503-2.019,282.317,14.516,421.866c9.515,80.315,11.534,163.005,10.924,243.825
			c-0.776,102.111-29.588,201.213-30.287,303.446c-0.345,50.4,6.459,113.942-7.845,162.197
			c-13.979,47.142-50.546,61.678-83.396,91.143L4380.071,4928.773z" style="stroke:black;fill:#ffc6e2"/><path id="180641200" parent_id="180641178" order="30" structure_id="230" d="M4344.638,6396.84c83.323,4.651,60.573,87.653,47.54,146.125
			c-12.87,57.7-27.491,121.344-63.485,169.745L4344.638,6396.84z" style="stroke:black;fill:#ffc6e2"/><path id="180641211" parent_id="180641178" order="31" structure_id="512" d="M4474.846,657.459
			c122.937-0.719,258.292,2.848,377.588,36.217c98.021,27.426,90.237,47.824,186.791,85.598
			c30.229,11.826-69.611,60.873-83.712,68.868c-59.558,33.784-116.656,71.939-161.377,114.551
			c-81.291,77.457-151.869,150.123-176.988,264.13c-33.78,153.292,116.923,324.499,221.802,465.172
			c49.611,66.553,33.361,99.662,81.945,139.296c118.374,96.575,258.99,88.795,382.191,179.105
			c87.921,64.448,315.313,171.045,406.766,235.257c73.653,51.712,199.657-329.321,248.647-474.622
			c18.513-54.917,30.266-121.579,44.025-186.194c8.031-37.737,18.834-72.78,26.573-109.632
			c10.091-48.06,15.445-93.377,31.334-134.482c20.719-53.597,108.726-99.605,235.737-112.211
			c127.011-12.606,281.847,29.917,350.909,61.202c271.605,123.042,451.648,247.64,709.782,473.456
			c34.101,29.823,47.125,133.203,112.938,148.368c161.389,37.188,277.658,186.844,355.895,254.104
			c249.74,214.701,371.99,655.965,235.213,976.829c-13.301,31.196-93.472,217.833-217.127,342.724
			c-117.326,118.512-366.83,142.416-199.885,178.272c240.112,51.57,620.162,241.563,853.693,490.827
			c132.26,141.146,233.076,296.391,252.268,409.735c69.98,412.893-42.421,781.283-309.338,1035.618
			c-112.386,107.08-306.949,328.313-527.528,248.038c-190.362-69.274-279.324-355.671-292.259-534.086
			c-8.54-117.517-99.841-149.558-177.898-211.211c-100.077-79.032-100.702-154.827-130.27-274.854
			c-73.532-298.369-296.484-438.511-476.698-673.118c-53.268-69.359-159.422-110.691-243.436-28.072
			c-95.871,94.264,32.874,242.1-36.1,345.901c-52.37,78.817-180.656-28.012-220.579-119.139
			c-22.186-50.644-44.57-101.515-69.327-150.968c-23.128-46.195-42.263-94.21-61.958-141.929
			c-17.107-41.426-40.869-76.651-58.691-118.361c-31.144-72.858-79.191-133.568-146.633-176.599
			c-80.057-51.078-141.396-104.322-217.354-146.727c-38.293-21.381-131.788-58.431-161.478-76.721
			c-49.201-30.315-86.532-35.377-135.835-61.535c-46.897-24.879-113.544-38.533-151.094-32.777
			c-82.688,12.683-141.961,94.178-214.396,118.972c-205.149,70.229-508.271,197.175-712.841,167.271L4474.846,657.459z" style="stroke:black;fill:#f0f080"/><path id="180641213" parent_id="180641178" order="32" structure_id="10710" d="M5408.33,3448.358
			c102.707,28.149,217.124,76.808,315.715,127.924l4.708-3.504c-20.104-15.713-39.412-32.53-59.407-49.628
			c-46.532-39.797-317.864-136.895-310.418-198.583c9.468-78.423,189.889-113.715,273.138-99.011l-0.704-2.309
			c-24.618-8.494-49.281-17.149-74.824-22.896c-52.987-11.919-109.6-18.282-162.376-2.507
			c-58.821,17.575-89.493,55.32-135.014,92.882c-12.96,10.685-29.673,19.634-45.054,26.171
			c-25.704,10.92-60.715,11.57-88.323,19.927c-25.119,7.601-50.047,16.819-75.547,23.047c-22.23,5.427-46.236,11.627-66.517,22.844
			c-14.157,7.824-28.353,14.966-42.551,22.783c-28.649,15.767-58.229,30.416-88.4,43.083
			c-37.969,15.945-76.989,35.291-116.563,45.744c-30.372,8.023-62.043,7.577-93.195,8.304c-30.026,0.703-60.69,3.75-90.651,2.962
			c-25.488-0.679-51.269,0.3-76.16,6.264c-21.599,5.175-43.108,3.363-65.24,6.826l-4.803,215.053
			c204.569,29.904,507.691-97.042,712.841-167.271c72.436-24.794,131.708-106.289,214.396-118.972
			c11.151-1.709,24.879-1.695,39.883-0.195C5386.904,3445.604,5398.931,3445.782,5408.33,3448.358z" style="stroke:black;fill:#fffc91"/><path id="180641214" parent_id="180641178" order="33" structure_id="10710" d="M4420.851,3174.932
			c84.338-40.406,181.888-38.549,271.194-62.896c78.139-21.312,162.302-36.575,238.646-63.343
			c84.797-29.729,133.434-100.113,211.572-140.239c82.376-42.299,180.828,18.432,259.458,39.731
			c38.281,10.372,85.817,23.271,125.257,11.997c32.549-9.3,57.68-35.014,61.465-66.608
			c-163.063-80.903-351.849-127.957-508.151-164.86c-159.196-37.586-285.05-1.644-431.598,57.333
			c-70.181,28.243-147.052,30.331-222.213,37.072l-7.821,350.188L4420.851,3174.932z" style="stroke:black;fill:#fffc91"/><path id="180641215" parent_id="180641178" order="34" structure_id="10708" d="M4552.347,3505.59
			c29.961,0.788,60.625-2.259,90.651-2.962c31.152-0.727,62.823-0.28,93.195-8.304c39.573-10.453,78.594-29.799,116.563-45.744
			c30.172-12.667,59.751-27.316,88.4-43.083c14.198-7.816,28.394-14.958,42.551-22.783c20.28-11.217,44.286-17.417,66.517-22.844
			c25.5-6.228,50.428-15.446,75.547-23.047c27.608-8.356,62.619-9.007,88.323-19.927c15.381-6.537,32.094-15.486,45.054-26.171
			c45.521-37.562,76.192-75.307,135.014-92.882c52.776-15.775,109.389-9.413,162.376,2.507
			c68.571,15.429,130.81,51.817,202.834,49.774c43.652-1.239,103.696-15.011,112.707-66.37
			c3.315-18.882-38.805-107.563-61.251-102.307c3.417-0.805,6.805-0.118,10.278-0.573c-4.753-18.212-32.609-25.813-44.769-42.194
			c-9.06-12.205-16.639-26.042-20.892-40.592c-50.223-40.235-106.861-74.679-167.002-104.516
			c-3.785,31.594-28.916,57.308-61.465,66.608c-39.439,11.273-86.976-1.625-125.257-11.997
			c-78.63-21.3-177.082-82.03-259.458-39.731c-78.139,40.126-126.775,110.509-211.572,140.239
			c-76.344,26.768-160.507,42.031-238.646,63.343c-89.307,24.347-186.856,22.49-271.194,62.896l-1.52,98.622
			c-0.134,9.092,131.996-29.242,141.401-30.595c56.469-8.105,114.9-21.349,170.155-37.075
			c69.948-19.89,137.772-44.188,205.198-71.444c85.208-34.442,169.794-67.503,258.861-92.703
			c36.274-10.262,93.52-44.331,127.921-11.988c22.656,21.295-19.703,41.828-32.959,47.263
			c-68.296,28.04-143.375,42.986-213.986,64.184c-89.218,26.772-173.133,67.8-262.362,94.454
			c-53.443,15.966-108.084,22.97-162.4,34.905c-41.312,9.067-83.745,8.71-125.577,13.707
			c-35.489,4.236-73.759,24.963-109.713,14.015l-0.679,30.394c0.057,26.069-1.035,64.534-2.238,100.219l-2.005,89.79
			c22.132-3.463,43.641-1.651,65.24-6.826C4501.078,3505.89,4526.859,3504.911,4552.347,3505.59z" style="stroke:black;fill:#ece754"/><path id="180641216" parent_id="180641178" order="35" structure_id="10713" d="M5080.292,2728.714
			c156.303,36.903,345.088,83.957,508.151,164.86c1.002-8.363,0.515-17.136-1.733-26.128
			c-10.961-43.843-53.821-74.015-83.518-105.057c-38.883-40.649-95.34-70.59-141.836-101.925
			c-69.583-46.902-129.64-102.693-204.976-141.6c-78.317-40.443-155.367-89.217-245.117-98.354
			c-53.727-5.464-107.9-0.654-160.803-14.414c-46.772-12.163-84.968-52.049-133.714-58.817
			c-54.874-7.615-123.057,0.258-179.698,2.657l-10.567,473.184c75.161-6.742,152.033-8.83,222.213-37.072
			C4795.242,2727.07,4921.096,2691.128,5080.292,2728.714z" style="stroke:black;fill:#fffc91"/><path id="180641217" parent_id="180641178" order="36" structure_id="10713" d="M4577.787,1959.981
			c62.307,31.473,118.602,73.041,177.456,110.257c24.258,15.336,51.001,21.966,74.353,37.627
			c29.787,19.972,56.611,43.705,88.011,61.365c91.477,51.432,186.719,96.648,286.686,129.059
			c48.86,15.844,95.611,44.83,147.08,51.671c40.061,5.33,80.206-4.964,120.243-3.969c71.955,1.787,167.575,23.124,217.13,79.191
			c42.669,48.263,57.651,117.996,69.238,179.536c6.735,35.803,10.729,71.911,15.925,107.938
			c16.981,117.72,89.355,251.081,196.569,310.089c21.132,11.631,53.945,21.917,82.945,20.774
			c-54.693-99.657-101.21-203.529-148.922-307.02c-43.554-94.472-70.558-193.813-103.771-288.413
			c-22.508-64.104-56.195-129.588-71.777-198.088c-6.67,1.208-13.061-0.105-19.098-4.344
			c-91.452-64.212-318.845-170.809-406.766-235.257c-123.201-90.31-263.817-82.53-382.191-179.105
			c-48.584-39.634-32.334-72.744-81.945-139.296c-76.278-102.312-176.795-220.775-212.949-336.751
			c-29.349-32.977-63.905-94.948-89.274-116.91c-21.99-19.038-47.762-33.495-73.837-45.557l-14.271,638.994
			C4461.433,1891.311,4527.54,1934.606,4577.787,1959.981z" style="stroke:black;fill:#fffc91"/><path id="180641218" parent_id="180641178" order="37" structure_id="10711" d="M4616.747,2347.279
			c48.746,6.768,86.942,46.654,133.714,58.817c52.902,13.76,107.076,8.95,160.803,14.414c89.75,9.137,166.8,57.911,245.117,98.354
			c75.336,38.907,135.393,94.698,204.976,141.6c46.496,31.334,102.953,61.275,141.836,101.925
			c29.696,31.042,72.557,61.214,83.518,105.057c2.248,8.992,2.735,17.765,1.733,26.128
			c60.141,29.837,116.779,64.281,167.002,104.516c-0.334-1.142-0.653-2.288-0.945-3.438c20.477-2.165,38.336,34.067,52.802,49.451
			c0.894,0.883,1.789,1.765,2.677,2.652c21.439,20.564,46.592,37.459,72.927,51.057c61.202,31.611,109.806,35.198,175.651,41.986
			c17.892,1.854,37.697,7.105,56.643,8.078c-21.903-34.117-42.356-68.971-61.777-104.357c-29,1.143-61.813-9.144-82.945-20.774
			c-107.214-59.008-179.588-192.369-196.569-310.089c-5.196-36.027-9.189-72.134-15.925-107.938
			c-11.587-61.54-26.569-131.273-69.238-179.536c-49.555-56.067-145.175-77.404-217.13-79.191
			c-40.037-0.996-80.183,9.299-120.243,3.969c-51.469-6.841-98.22-35.827-147.08-51.671
			c-99.967-32.411-195.209-77.627-286.686-129.059c-31.399-17.66-58.224-41.393-88.011-61.365
			c-23.352-15.661-50.095-22.291-74.353-37.627c-58.854-37.217-115.148-78.785-177.456-110.257
			c-50.247-25.375-116.354-68.671-129.166-128.21l-11.572,518.165C4493.689,2347.537,4561.873,2339.664,4616.747,2347.279z" style="stroke:black;fill:#ece754"/><path id="180641219" parent_id="180641178" order="38" structure_id="10722" d="M5904.5,2736.5
			c47.712,103.49,94.229,207.362,148.922,307.02c24.232-0.955,45.803-9.889,55.673-32.694
			c20.467-47.309-1.442-96.851-13.357-143.712c-14.926-58.704-42.023-113.511-66.829-168.461
			c-28.596-63.376-71.005-120.694-95.205-186.093c-10.201-27.581-22.271-64.98-20.764-94.75
			c1.723-33.959,24.639-69.201,37.993-99.861c24.399-56.042,60.986-104.322,82.266-162.416
			c19.842-54.162,34.247-110.647,43.376-167.596c8.438-52.654,4.099-108.823,55.693-141.25
			c19.146-12.033,51.838,162.993,53.674,175.79c22.397,156.03,123.278,291.125,164.013,441.638
			c12.261,45.297,18.794,91.903,24.075,138.459c8.068,71.074-12.123,124.058-27.224,191.971
			c-15.88,71.476-31.131,140.978-32.378,214.579c-2.267,133.983,70.438,274.367,218.996,244.045
			c10.387-76.96,23.409-156.178,27.076-228.669c7.627-150.765-7.292-295.212-49.779-431.972
			c-74.719-240.503-193.332-431.72-229.808-680.441c-16.487-112.43-44.793-231.391-74.192-341.807
			c-27.973-105.059-73.152-191.906-71.836-299.261c-38.504,19.484-64.398,43.702-74.451,69.707
			c-15.889,41.104-21.243,86.422-31.334,134.482c-7.739,36.852-18.542,71.895-26.573,109.632
			c-13.76,64.615-25.513,131.277-44.025,186.194c-44.975,133.391-154.853,465.435-229.55,478.966
			c15.582,68.5,49.27,133.983,71.777,198.088C5833.942,2542.688,5860.946,2642.028,5904.5,2736.5z" style="stroke:black;fill:#fffc91"/><path id="180641222" parent_id="180641178" order="39" structure_id="10722" d="M4536.728,1238.335
			c25.369,21.962,59.925,83.933,89.274,116.91c-13.556-43.484-18.065-86.619-8.853-128.421
			c25.119-114.007,95.697-186.673,176.988-264.13c44.721-42.612,101.819-80.767,161.377-114.551
			c14.101-7.995,113.941-57.042,83.712-68.868c-96.554-37.773-88.771-58.172-186.791-85.598
			c-119.296-33.37-254.652-36.937-377.588-36.217l-2.217,99.271c5.901,0.1,14.67,0.212,18.369,0.335
			c56.1,1.875,114.6,6.505,169.512,15.78c17.063,2.885,69.399,11.473,80.832,25.422c44.483,54.288-182.089,121.928-255.347,132.696
			c-5.441,0.8-12.259,1.798-17.308,2.281l-5.796,259.532C4488.966,1204.84,4514.738,1219.297,4536.728,1238.335z" style="stroke:black;fill:#fffc91"/><path id="180641220" parent_id="180641178" order="40" structure_id="10720" d="M6314.428,3009.124
			c1.247-73.601,16.498-143.103,32.378-214.579c15.101-67.914,35.292-120.897,27.224-191.971
			c-5.281-46.557-11.814-93.162-24.075-138.459c-40.734-150.513-141.615-285.608-164.013-441.638
			c-1.836-12.797-34.527-187.823-53.674-175.79c-51.595,32.427-47.256,88.596-55.693,141.25
			c-9.129,56.949-23.534,113.435-43.376,167.596c-21.279,58.094-57.866,106.374-82.266,162.416
			c-13.354,30.66-36.271,65.902-37.993,99.861c-1.508,29.77,10.563,67.17,20.764,94.75c24.2,65.398,66.609,122.717,95.205,186.093
			c24.806,54.95,51.903,109.757,66.829,168.461c11.915,46.861,33.824,96.404,13.357,143.712
			c-9.87,22.805-31.44,31.739-55.673,32.694c19.421,35.386,39.874,70.24,61.777,104.357c18.347,0.942,35.886-2.128,50.097-16.194
			c26.536-26.285,21.255-68.043,16.799-100.962c-7.276-53.776,11.785-108.209,2.669-161.437
			c-16.519-96.501-31.777-190.565-25.163-289.553c2.173-32.508-6.505-64.875-10.331-97.229
			c47.633,52.821,33.832,150.155,37.302,214.933c4.721,88.262,18.57,176.834,24.879,264.958
			c9.925,138.605,43.542,253.99,176.903,318.153c42.796,20.591,88.545,42.595,135.004,59.209
			c2.529-28.202,6.104-57.228,10.066-86.585C6384.866,3283.491,6312.161,3143.106,6314.428,3009.124z" style="stroke:black;fill:#ece754"/><path id="180641221" parent_id="180641178" order="41" structure_id="10720" d="M4741.342,798.269
			c-11.433-13.949-63.769-22.537-80.832-25.422c-54.912-9.275-113.412-13.906-169.512-15.78c-3.698-0.124-12.467-0.235-18.369-0.335
			l-3.942,176.515c5.049-0.483,11.867-1.481,17.308-2.281C4559.252,920.196,4785.825,852.557,4741.342,798.269z" style="stroke:black;fill:#ece754"/><path id="180641224" parent_id="180641178" order="42" structure_id="10674" d="M6206.721,1570.28
			c29.399,110.417,57.705,229.377,74.192,341.807c36.476,248.721,155.089,439.938,229.808,680.441
			c42.487,136.76,57.406,281.207,49.779,431.972c-3.667,72.491-16.689,151.708-27.076,228.669c7.211-1.472,14.6-3.343,22.168-5.64
			c293.372-89.002,182.603-566.086,118.276-765.748c-43.777-135.814-159.328-237.829-217.374-367.115
			c-22.148-49.348-49.254-118.045-41.458-173.031c6.065-42.783,23.75-83.225,40.414-122.737
			c17.352-41.121,15.072-66.021-2.884-108.186c-31.879-74.869-98.342-144.439-61.597-231.244
			c57.074-134.665,260.814-13.638,344.86,25.123c91.586,42.238,189.396,70.221,275.708,120.889
			c85.655,50.278,167.255,106.174,227.778,186.499c98.33,130.497,120.309,283.886,136.087,441.748
			c5.095,50.993,7.143,101.547,0.317,152.504c-11.196,83.525-60.597,200.709-157.757,207.758
			c-46.41,3.368-92.065-11.025-138.045,2.316c-24.213,7.024-34.556,8.023-50.984,28.653
			c-35.271,44.298-7.711,101.807-12.285,151.508c-5.59,60.5,2.908,121.689-5.192,182.493
			c-11.879,89.022-0.292,193.523,21.231,281.542c17.796,72.772,49.457,139.122,96.021,195.499c3.103-7.717,5.843-15.464,8.019-23.27
			c40.195-144.179,67.196-264.08,137.014-399.129c131.592-254.542,255.109-515.105,222.572-808.916
			c-11.729-105.91-36.212-213.477-48.65-322.52c-47.219-30.244-60.919-112.859-90.802-138.994
			c-258.134-225.816-438.177-350.414-709.782-473.456c-69.063-31.286-223.898-73.808-350.909-61.202
			c-65.387,6.49-120.434,21.833-161.286,42.505C6133.568,1378.374,6178.748,1465.221,6206.721,1570.28z" style="stroke:black;fill:#fffc91"/><path id="180641223" parent_id="180641178" order="43" structure_id="10672" d="M7011.457,2978.959
			c8.101-60.804-0.397-121.994,5.192-182.493c4.574-49.701-22.986-107.21,12.285-151.508c16.429-20.629,26.771-21.629,50.984-28.653
			c45.979-13.341,91.635,1.052,138.045-2.316c97.16-7.048,146.561-124.232,157.757-207.758
			c6.825-50.957,4.777-101.511-0.317-152.504c-15.778-157.862-37.757-311.251-136.087-441.748
			c-60.523-80.324-142.123-136.221-227.778-186.499c-86.313-50.668-184.122-78.651-275.708-120.889
			c-84.046-38.76-287.786-159.788-344.86-25.123c-36.745,86.804,29.718,156.375,61.597,231.244
			c17.956,42.165,20.235,67.064,2.884,108.186c-16.664,39.512-34.349,79.955-40.414,122.737
			c-7.796,54.986,19.31,123.684,41.458,173.031c58.046,129.286,173.597,231.301,217.374,367.115
			c64.326,199.662,175.096,676.746-118.276,765.748c-7.568,2.296-14.957,4.168-22.168,5.64
			c-3.962,29.357-7.537,58.384-10.066,86.585c21.6,7.725,43.354,14.287,65.035,18.995c52.569,11.412,109.453,8.527,162.307,1.365
			c20.987-2.84,102.481-37.53,46.483-77.111c-19.865-14.036-37.676-5.627-59.491,2.031c-23.677,8.304-49.027,14.917-74.426,8.34
			c-27.414-7.097-30.429-25.696-3.754-34.982c32.508-11.318,73.89-12.009,107.982-11.68c25.293,0.244,55.226,6.021,79.179-4.696
			c44.695-19.971,45.906-82.136,46.459-123.81c0.528-40.849-5.866-82.453-13.707-122.449
			c-9.791-49.864-17.355-100.117-24.083-150.468c-8.734-65.313-30.363-132.805-26.301-198.67
			c3.868-62.791-14.235-130.813-27.69-192.361c-11.537-52.699-17.647-115.945-51.846-159.154
			c-20.897-26.415-42.844-52.13-55.502-84.423c-22.621-57.639,55.998-43.315,85.004-67.024
			c31.802-26.012,22.904-91.078,61.036-108.409c38.261-17.392,58.866,36.766,90.415,20.67c13.464-6.866,12.943-26,31.802-26.728
			c26.325-1.016,36.449,31.513,67.454,29.819c15.674-0.857,87.548-14.763,60.288,21c-19.24,25.208-72.061,12.87-98.816,28.507
			c-0.244,2.738-0.374,4.583-0.31,7.374c27.521,9.279,42.576-7.642,65.968-5.769c-6.938,24.131-60.841,39.918-82.494,49.912
			c-90.903,41.958-103.562,140.93-99.589,230.858c6.874,156.172,36.344,309.919,51.172,464.657
			c10.449,109.132-10.514,218.073,5.785,327.428c15.682,105.146,53.999,211.28,113.816,299.486
			c13.31,19.625,28.808,36.792,45.996,51.741c11.997-26.422,26.703-52.141,37.18-78.203
			c-46.564-56.376-78.226-122.727-96.021-195.499C7011.165,3172.482,6999.578,3067.981,7011.457,2978.959z" style="stroke:black;fill:#ece754"/><path id="180641225" parent_id="180641178" order="44" structure_id="10677" d="M7184.691,3512.731
			c102.474,86.983,207.571-18.732,245.532-115.66c54.251-138.557,155.164-254.55,191.297-400.599
			c35.628-144.009,33.028-314.444,33.02-462.251c0.009-41.255-27.219-142.27,7.492-172.975
			c81.039-71.651,163.443,178.605,174.745,221.274c35.418,133.625,41.715,272.563,46.378,410.023
			c2.446,72.37-8.759,140.722-21.669,211.463c-8.198,44.911-3.389,98.748-22.913,140.734c-12.569,27.057-39.609,42.852-61.06,62.051
			c-28.259,25.317-23.327,31.639-26.407,66.471c-3.201,36.165-64.602,74.198-90.196,94.872
			c-30.41,24.578-65.003,41.941-101.551,55.337c11.113,2.08,22.251,4.304,33.412,6.515c27.625-26.66,170.463-63.431,251.01-144.792
			c123.655-124.891,203.826-311.527,217.127-342.724c136.777-320.863,14.527-762.128-235.213-976.829
			c-78.236-67.26-194.506-216.916-355.895-254.104c-8.141-1.876-15.471-5.105-22.137-9.375
			c12.438,109.042,36.922,216.61,48.65,322.52c32.537,293.81-90.98,554.374-222.572,808.916
			c-69.817,135.049-96.818,254.95-137.014,399.129c-2.176,7.806-4.916,15.553-8.019,23.27
			C7145.436,3476.25,7164.065,3495.225,7184.691,3512.731z" style="stroke:black;fill:#fffc91"/><path id="180641226" parent_id="180641178" order="45" structure_id="10675" d="M7526.755,3617.952
			c10.843,1.584,21.712,3.482,32.604,5.521c36.548-13.396,71.141-30.759,101.551-55.337c25.595-20.674,86.995-58.708,90.196-94.872
			c3.08-34.833-1.852-41.154,26.407-66.471c21.45-19.2,48.49-34.995,61.06-62.051c19.524-41.986,14.715-95.823,22.913-140.734
			c12.91-70.741,24.115-139.093,21.669-211.463c-4.663-137.46-10.96-276.398-46.378-410.023
			c-11.302-42.669-93.706-292.925-174.745-221.274c-34.711,30.705-7.483,131.72-7.492,172.975
			c0.009,147.807,2.608,318.243-33.02,462.251c-36.133,146.048-137.046,262.042-191.297,400.599
			c-37.961,96.928-143.059,202.643-245.532,115.66c-20.626-17.507-39.256-36.482-55.981-56.732
			c-10.477,26.062-25.183,51.78-37.18,78.203c43.263,37.625,97.266,61.165,154.262,74.21c39.691,9.083,80.585,12.728,121.219,14.048
			c40.398,1.304,84.918-8.622,124.711-4.498C7506.547,3617.125,7519.656,3616.915,7526.755,3617.952z" style="stroke:black;fill:#ece754"/><path id="180641227" parent_id="180641178" order="46" structure_id="10689" d="M7675.602,5518.595
			c-3.176-7.461-6.271-15.248-9.209-23.272c-19.404-52.998-31.941-116.342-15.306-164.517c18.176-52.602,29.218-72.472,78.57-98.15
			c42.372-22.052,92.576-46.793,121.047-86.122c59.361-82.047,90.196-184.333,127.084-278.223
			c9.426-23.953,18.257-47.901,19.069-74.08c1.122-36.295-36.668-37.237-64.212-50.899c-44.802-22.21-86.605-52.806-124.07-85.716
			c-59.679-52.391-90.294-103.087-137.557-160.519c-23.312-28.313-70.314-38.615-100.427-57.343
			c-49.132-30.559-94.729-70.709-142.318-104.095c-82.282-57.721-207.945-196.029-324.288-164.626
			c-12.381,3.342-21.737,8.351-28.564,14.642c194.479,127.513,404.098,241.598,551.06,420.817
			c161.814,197.333,66.73,412.243-81.767,569.342c40.155,32.519,71.21,71.59,76.019,137.767
			c3.815,52.625,14.244,114.645,31.938,177.715c1.814,6.469,3.706,12.948,5.674,19.43L7675.602,5518.595z" style="stroke:black;fill:#fffc91"/><path id="180641229" parent_id="180641178" order="47" structure_id="10689" d="M7658.345,5510.745
			c3.24,10.668,6.688,21.342,10.35,31.98c45.952,133.553,125.319,261.664,244.297,304.961
			c220.579,80.275,415.143-140.958,527.528-248.038c266.917-254.335,379.318-622.726,309.338-1035.618
			c-19.191-113.345-120.008-268.59-252.268-409.735c-233.531-249.265-613.581-439.257-853.693-490.827
			c-52.334-11.24-63.738-21.306-51.125-33.48c-11.161-2.21-22.299-4.435-33.412-6.515c-55.47,20.33-115.445,31.516-172.158,44.87
			c-47.442,11.168-116.473,29.771-138.735,77.924c-44.111,95.433,96.307,126.016,159.95,106.414
			c35.978-11.079,66.219-34.901,101.067-46.886c106.869-36.766,129.124,22.434,207.409,83.452
			c55.656,43.368,84.005,23.002,136.769,46.658c42.112,18.883,66.139,53.979,114.71,73.244
			c65.87,26.118,130.627,41.198,190.753,82.246c94.6,64.594,193.596,185.223,243.069,288.358
			c58.443,121.803,110.721,247.026,118.537,383.593c3.461,60.113,0.309,112.41-25.48,165.491
			c-19.793,40.634-58.68,70.474-37.083,118.118c15.324,33.797,75.425,32.729,76.376,71.452
			c1.072,44.396-36.319,76.547-65.846,104.492c-35.304,33.402-71.176,67-107.975,98.659c-33.435,28.779-53.072,63.164-77.895,99.13
			c-3.844,5.554-7.638,11.136-11.424,16.718c-13.895,20.446-27.698,40.962-42.9,60.467c-20.297,26.069-44.721,41.295-72.265,59.365
			c-88.352,57.952-211.666,104.83-318.714,98.979c-70.095-3.839-120.487-52.361-150.266-112.292
			c-3.912-7.871-7.843-16.366-11.658-25.332L7658.345,5510.745z" style="stroke:black;fill:#fffc91"/><path id="180641228" parent_id="180641178" order="48" structure_id="10687" d="M7427.273,4335.659
			c47.589,33.386,93.187,73.536,142.318,104.095c30.112,18.728,77.115,29.03,100.427,57.343
			c47.263,57.432,77.878,108.128,137.557,160.519c37.465,32.91,79.269,63.506,124.07,85.716
			c27.544,13.662,65.334,14.604,64.212,50.899c-0.813,26.179-9.644,50.127-19.069,74.08
			c-36.888,93.89-67.723,196.176-127.084,278.223c-28.471,39.329-78.675,64.07-121.047,86.122
			c-49.353,25.679-60.395,45.549-78.57,98.15c-22.181,64.233,7.5,155.433,36.173,213.121
			c29.778,59.931,80.171,108.453,150.266,112.292c107.048,5.851,230.362-41.027,318.714-98.979
			c27.544-18.07,51.968-33.296,72.265-59.365c15.202-19.505,29.006-40.021,42.9-60.467c3.786-5.582,7.58-11.164,11.424-16.718
			c24.822-35.966,44.46-70.351,77.895-99.13c36.799-31.659,72.671-65.257,107.975-98.659
			c29.526-27.945,66.918-60.097,65.846-104.492c-0.951-38.724-61.052-37.655-76.376-71.452
			c-21.597-47.645,17.29-77.484,37.083-118.118c25.789-53.081,28.941-105.378,25.48-165.491
			c-7.816-136.566-60.094-261.79-118.537-383.593c-49.474-103.136-148.47-223.765-243.069-288.358
			c-60.126-41.048-124.883-56.128-190.753-82.246c-48.571-19.265-72.598-54.361-114.71-73.244
			c-52.764-23.656-81.112-3.29-136.769-46.658c-78.285-61.019-100.54-120.218-207.409-83.452
			c-34.849,11.984-65.09,35.807-101.067,46.886c-63.644,19.602-204.062-10.981-159.95-106.414
			c22.263-48.153,91.293-66.756,138.735-77.924c56.713-13.354,116.688-24.54,172.158-44.87c-10.893-2.039-21.762-3.937-32.604-5.521
			c-7.099-1.037-20.208-0.827-35.033,0.011c0.879,0.091,1.759,0.18,2.633,0.285c-0.903-0.109-1.818-0.199-2.739-0.279
			c-13.507,0.766-28.427,2.05-41.521,3.386c-20.548,4.069-41.358,10.655-58.107,15.584c-48.905,14.39-95.535,31.944-142.985,50.262
			c-39.562,15.259-79.805,37.437-91.391,81.539c-14.658,55.734,12.455,141.344,60.768,174.047
			c56.38,38.151,127.368,42.669,186.729,73.857c67.723,35.584,138.858,70.249,212.918,90.314
			c76.985,20.861,133.999,54.738,204.646,92.504c35.466,18.964,66.219,39.845,103.001,54.819
			c43.218,17.6,68.552,61.129,100.166,92.643c44.843,44.716,69.242,94.438,100.435,147.62
			c34.986,59.654,73.629,122.924,82.363,192.894c7.239,58.122-19.833,109.063-18.891,165.073
			c1.064,62.778,51.554,112.032,26.528,174.404c-18.217,45.398-57.063,78.143-82.632,118.716
			c-26.878,42.656-70.087,68.677-107.723,101.141c-48.872,42.152-114.685,139.792-181.327,144.216
			c-1.649-34.8,24.928-64.347,42.648-91.939c20.248-31.558,45.306-60.125,70.453-87.815
			c36.839-40.585,67.308-86.228,100.238-129.888c29.17-38.659,73.646-69.64,61.979-123.155
			c-17.469-80.158-41.853-158.285-66.431-236.469c-9.498-30.196-9.141-59.154-22.108-88.628
			c-14.796-33.646-33.427-65.923-58.484-93.008c-76.229-82.376-166.945-183.688-285.864-197.195
			c15.746-2.515,33.004-8.227,44.444-14.841c-49.229-10.518-100.166-31.659-146.845-47.377
			c-41.063-13.825-87.808-37.554-123.021-52.229c-93-38.769-175.542-96.054-268.883-131.435
			c-52.659-19.972-153.369-41.113-200.129-0.252c-7.158,6.256-12.774,13.172-17.054,20.607c32.562,23.454,65.99,46.088,99.884,68.31
			c6.827-6.291,16.184-11.3,28.564-14.642C7219.328,4139.63,7344.991,4277.938,7427.273,4335.659z" style="stroke:black;fill:#ece754"/><path id="180641231" parent_id="180641178" order="49" structure_id="10692" d="M7626.48,4606.492
			c-146.962-179.22-356.58-293.305-551.06-420.817c-49.622,45.72,34.712,159.333,68.646,195.533
			c60.816,64.879,126.044,125.675,195.059,181.754c65.521,53.231,140.313,100.309,189.696,170.403
			c32.402,46.021,65.098,119.069,47.386,176.314c-9.238,29.867-39.805,61.75-68.21,74.774
			c-100.809,46.22-169.709-62.156-179.719-147.063c-4.485-38.021,1.349-76.111-5.484-114.353
			c-8.223-45.996-32.078-67.73-63.587-100.316c-18.924-19.564-39.391-36.444-59.541-54.616c-7.67-6.918-14.945-14.202-21.943-21.737
			c59.106,80.435,107.389,169.772,134.842,281.167c29.567,120.027,30.192,195.822,130.27,274.854
			c34.102,26.935,70.729,48.218,101.88,73.444C7693.211,5018.735,7788.295,4803.825,7626.48,4606.492z" style="stroke:black;fill:#fffc91"/><path id="180641230" parent_id="180641178" order="50" structure_id="10690" d="M7199.666,4568.105
			c20.15,18.172,40.617,35.052,59.541,54.616c31.509,32.586,55.364,54.32,63.587,100.316c6.833,38.241,0.999,76.331,5.484,114.353
			c10.01,84.907,78.91,193.283,179.719,147.063c28.405-13.024,58.972-44.907,68.21-74.774
			c17.712-57.245-14.983-130.294-47.386-176.314c-49.384-70.095-124.176-117.172-189.696-170.403
			c-69.015-56.079-134.242-116.875-195.059-181.754c-33.934-36.2-118.268-149.813-68.646-195.533
			c-33.894-22.222-67.322-44.855-99.884-68.31c-38.91,67.612,33.186,178.386,70.452,230.526
			c25.382,35.519,39.95,76.884,65.105,112.435c4.314,6.104,8.638,12.218,12.992,18.315c18.62,22.045,36.578,44.515,53.636,67.727
			C7184.721,4553.903,7191.996,4561.188,7199.666,4568.105z" style="stroke:black;fill:#ece754"/><path id="180641212" parent_id="180641178" order="51" structure_id="846" d="M7036.171,4033.9
			c-18.086,15.356-216.184,30.98-296.451-44.607c-92.658-87.271-66.658-272.315-49.807-332.506
			c46.069-164.602,223.797,138.805,266.405,201.981C6972.576,3882.888,7078.836,3997.707,7036.171,4033.9z" style="stroke:black;fill:#fffdbc"/><path id="180641234" parent_id="180641178" order="52" structure_id="1009" d="M4420.637,6775.012
			c49.208,34.326,126.971,54.878,225.575,56.772c79.021,1.669,156.721-20.098,242.196-40.662
			c85.47-20.559,152.595-34.227,200.952-58.171c0,0-154.565-69.838-228.989-92.212c-82.428-24.779-441.777-31.519-506.446,75.304
			C4353.925,6716.043,4384.362,6749.711,4420.637,6775.012z" style="stroke:black;fill:#cccccc"/><path id="180641235" parent_id="180641178" order="53" structure_id="1009" d="M4423.594,4958.813
			c32.351,44.375,10.598,75.861,14.09,120.969c10.418,134.565,15.218,303.768,10.949,368.474
			c-7.966,120.93,36.687,190.967,63.444,214.241c16.347,14.214,25.343-254.332,31.216-362.036
			c4.533-83.125,105.271-453.403,54.144-593.878c-37.595-103.277-171.07-76.426-200.49-62.483
			C4396.948,4644.099,4379.328,4898.099,4423.594,4958.813z" style="stroke:black;fill:#cccccc"/><path id="180641236" parent_id="180641178" order="54" structure_id="1009" d="M4353.372,6709.098
			c45.074-65.626,59.747-169.338,71.33-225.266c11.888-57.396,68.956-114.404,178.261-66.976
			c93.151,40.42,180.309,84.495,271.906,128.486c27.137,13.04,164.8,114.612,80.695,119.601
			c-28.993,1.717-79.852-22.15-110.093-27.567c-27.015-4.847-55.169-9.056-82.577-11.179
			c-157.823-12.236-279.097,14.916-325.154,28.506C4392.155,6668.151,4353.372,6709.098,4353.372,6709.098z" style="stroke:black;fill:#cccccc"/><path id="180641237" parent_id="180641178" order="55" structure_id="1009" d="M6473.34,4476.396
			c113.598,31.014,82.43,39.1,127.65,128.912c72.212,143.429,99.427,342.639,109.581,460.02
			c9.658,111.662,37.894,237.813,58.912,363.246c21.489,128.3,35.3,255.857,1.972,366.208
			c-41.274,136.7-171.021,162.497-279.562,234.129c-23.471,15.488-77.122,49.95-120.465,89.168
			c-73.606,66.598-150.707,158.438-239.869,226.293c-47.706,36.314-129.01,99.412-292.446,154.329
			c-158.481,63.972-346.322,118.805-483.938,158.616c-110.778,32.057-188.019,56.081-198.786,54.164
			c-66.999-78.53,369.45-178.821,651.652-317.654c180.648-88.875,265.204-189.952,319.375-247.545
			c198.648-211.186-92.062-269.43-22.779-365.931c23.253-32.371,199.479,143.165,253.836,64.406
			c109.764-159.032,174.779-424.913,144.034-515.951c-42.179-124.881-79.547-249.509-136.574-371.85
			c-38.43-82.446-22.714-154.101-49.577-232.378c-42.5-123.808-351.914-72.189-268.302-207.128
			c23.052-37.198,235.432-153.211,280.505-146.929C6375.577,4377.07,6423.695,4462.843,6473.34,4476.396z" style="stroke:black;fill:#cccccc"/><path id="180641238" parent_id="180641178" order="56" structure_id="1009" d="M4935.5,4917.5
			c-21.788-25.993,6.575,4.902-25.018-24.92c-65.01-61.365-134.62-130.218-142.34-204.016
			c-11.293-107.981,108.829-149.406,200.266-95.685c63.066,37.046,267.09,352.563,111.625,409.334
			c-58.788,21.466-81.463-23.327-119.728-63.337L4935.5,4917.5z" style="stroke:black;fill:#cccccc"/><path id="180641239" parent_id="180641178" order="57" structure_id="1009" d="M5891.631,3789.655
			c38.152,1.472,104.771-7.939,71.536-51.755c-33.223-43.787-132.814-103.566-193.331-137.089
			c-107.631-59.633-242.446-119.821-361.506-152.452c-67.188-18.419-268.591,85.649-234.349,120.536
			c63.988,65.193,123.528,83.565,207.113,85.559c36.846,0.875,65.055-13.047,82.045-11.437
			c107.441,10.2,176.395,28.862,271.166,79.669C5778.647,3746.458,5839.873,3787.63,5891.631,3789.655z" style="stroke:black;fill:#cccccc"/><path id="180641240" parent_id="180641178" order="58" structure_id="1009" d="M6993.265,2144.31
			c12-5.708,58.093-19.62,59.835-34.319c1.759-14.813-43.298-5.284-56.447-11.557c14.833,7.073,66.79-15.555,81.989-21.78
			c65.927-26.996-18.939-23.96-44.822-25.697c-33.776-2.283-52.525-38.777-87.099-17.945c-27.032,16.288-28.736,27.725-56.51,8.269
			c-19.99-14-37.09-23.434-55.077,1.142c-22.058,30.134-15.302,103.674-62.032,110.62c-21.815,3.244-40.042-13.614-62.063,1.813
			c-18.445,12.934-20.073,36.027-14.496,56.115c14.04,50.715,68.743,81.985,81.689,133.865
			c16.146,64.708,36.657,124.735,41.347,192.054c4.528,65.186,18.203,129.52,25.087,194.484
			c4.634,43.728,11.158,86.576,20.56,129.643c8.891,40.741,21.173,82.585,23.753,124.181c2.357,37.909,15.394,73.965,16.274,112.366
			c1.035,44.165-2.618,133.321-56.961,145.933c-26.771,6.224-58.5-2.028-86.109,0.534c-31.687,2.932-67.729,8.452-97.767,19.35
			c-27.515,9.984-20.528,17.616,5.098,20.24c39.639,4.044,112.271-30.221,145.459-1.55c29.67,25.643-12.81,67.786-41.921,73.842
			c-45.3,9.44-95.626,4.446-141.527,1.087c-88.51-6.467-163.178-45.721-239.795-83.892
			c-57.775-28.787-104.79-80.344-133.996-139.796c-19.417-39.527-28.69-85.69-34.464-129.081
			c-13.687-102.847-24.68-208.411-30.531-311.997c-2.721-48.145-6.332-96.146-6.23-144.482c0.034-17.839-4.156-68.173-28.251-70.867
			c-10.209,22.793-4.016,54.32-1.615,78.026c2.847,28.019,2.977,56.16,5.179,84.226c4.721,60.266,12.532,120.246,21.29,180.048
			c4.089,27.942,13.475,58.988,12.975,87.171c-0.394,22.634-5.944,44.987-5.801,68.224c0.23,38.646,3.071,80.385-5.719,118.344
			c-14.447,62.396-75.073,53.024-126.181,46.127c-27.678-3.731-54.591-10.011-81.92-15.482
			c-58.825-11.773-178.802-83.09-214.894-132.808c39.549,83.077,86.11,74.896,112.791,161.604
			c36.086,117.266-178.955,100.246-215.511,81.385c-60.66-31.285-289.235,2.283-299.924,90.818
			c-7.446,61.688,263.886,158.785,310.418,198.583c39.354,33.653,76.028,66.237,121.405,91.397
			c99.64,55.229,245.131,135.137,308.369,232.092c73.835,113.179,128.97,248.908,187.856,370.708
			c47.354,97.959,85.156,227.902,198.685,269.785c149.946,55.323,84.75-196.661,80.955-258.612
			c-8.463-137.898,163.496-210.718,249.041-113.089c90.118,102.838,192.547,205.984,299.194,330.771
			c-45.742-90.146-256.176-350.707-62.302-376.962c112.771-15.271,216.579,47.074,311.789,97.648
			c69.598,36.974,141.996,67.532,214.782,97.627c32.867,13.591,229.696,50.608,119.055,68.616
			c42.798-6.955,113.709,31.518,146.871,56.905c48.018,36.771,87.206,82.99,129.158,126.174
			c45.031,46.363,59.793,96.576,78.823,155.979c16.742,52.25,33.11,104.615,50.348,156.706
			c17.032,51.534,40.181,99.817,23.789,154.972c-11.912,40.072-46.237,73.619-70.805,106.381
			c-53.62,71.497-114.091,137.425-166.799,209.662c-12.031,16.523-56.458,81.269-5.599,72.002
			c65.297-11.919,101.85-79.671,145.761-121.729c71.585-68.558,142.42-138.141,195.066-222.825
			c18.645-29.994,13.442-62.93,3.562-95.376c-6.844-22.42-15.897-44.61-20.853-65.445c-9.818-41.104,6.273-82.623,13.513-122.986
			c7.167-40.001-1.932-87.924-15.477-125.485c-25.427-70.543-68.642-139.28-105.954-204.265
			c-38.08-66.304-89.381-116.809-152.989-158.728c-84.419-55.646-168.813-103.465-263.564-139.883
			c-91.27-35.083-180.346-61.854-267.756-107.447c-80.965-42.228-188.58-39.029-233.617-132.49
			c-95.052-197.294,190.629-255.288,328.181-265.618c-130.305,9.784-282.049,12.775-392.359-69.051
			c-142.201-105.488-187.905-330.731-184.588-496.116c4.488-223.662-42.41-438.323-52.893-660.862
			C6875.202,2281.946,6896.31,2190.389,6993.265,2144.31z M7037.418,4036.145c-18.039,15.411-216.088,31.636-296.585-43.708
			c-92.922-86.989-67.483-272.112-50.814-332.354c45.569-164.741,224.217,138.125,267.017,201.173
			C6973.366,3885.325,7079.974,3999.822,7037.418,4036.145z" style="stroke:black;fill:#cccccc"/><path id="180641241" parent_id="180641178" order="59" structure_id="1009" d="M4425.954,3269.514
			c262.684-25.664,474.605-110.653,714.218-213.008c60.964-26.043,160.873-45.229,195.698-19.529
			c-1.859,18.917-329.441,145.769-566.219,212.743c-101.075,28.586-178.883,33.234-218.723,35.224
			c-44.794,2.24-84.75,10.255-127.8,19.879L4425.954,3269.514z" style="stroke:black;fill:#cccccc"/><path id="180641232" parent_id="180641178" order="60" structure_id="145" d="M4395.655,4626.333
			c57.701-21.5,27.362-113.534,37.419-195.738c12.805-104.686,65.621-249.772,115.404-341.998
			c74.838-138.684,202.19-208.576,352.034-270.224c75.185-30.938,201.139-47.565,241.055-131.437
			c83.776-176.122,3.365-126.725-178.064-62.58c-142.216,50.262-292.204,99.139-432.551,111.683
			c-37.26,3.335-70.78,2.027-116.457-2.454L4395.655,4626.333z" style="stroke:black;fill:#aaaaaa"/><path id="180641233" parent_id="180641178" order="61" structure_id="153" d="M7027.403,4367.531
			c122.62,130.154,235.075,257.3,283.784,452.379c16.517,66.186,24.183,118.935,44.606,166.145l1.058,10.986
			c0,0-55.098-51.094-75.941-49.454c-20.836,1.643-33.254,97.081-33.254,97.081c5.845-49.711-117.665-224.063-179.007-389.356
			c-47.924-129.141-27.085-261.055-47.423-287.863L7027.403,4367.531z" style="stroke:black;fill:#aaaaaa"/></g>
</g>
</svg>