<svg width="8464" height="6960" xmlns="http://www.w3.org/2000/svg">
<g transform="scale(1.0)">
<g id="180611567" order="1" parent_id="" graphic_group_label_id="28" graphic_group_label="Atlas - Adult Mouse" sub_image_id="100960368" transform=" scale(1.0, 1.0)"><path id="180611569" parent_id="180611567" order="0" structure_id="8" d="M5345.775,803.051
			c101,22.707,200.617,52.884,302.308,74.145c250.668,52.417,482.344,162.524,715.979,263.578
			c212.207,91.784,416.801,202.479,605.537,336.356c356.332,252.774,645.472,491.994,787.518,921.892
			c40.842,123.555,63.506,251.11,80.884,379.798c11.235,83.204,23.673,166.987,29.34,250.966
			c16.313,241.623-50.636,501.863-138.366,723.818c-71.748,181.508-143.046,350.522-241.467,519.92
			c-99.328,170.951-122.582,368.381-197.504,548.597c-69.467,167.074-201.984,317.112-340.551,430.644
			c-63.754,52.232-120.966,108.805-180.385,163.563c-66.292,61.071-152.23,92.019-209.898,164.674
			c-90.098,113.51-147.526,249.269-248.471,355.211c-96.035,100.774-243.508,144.134-365.083,206.688
			c-131.209,67.496-273.086,151.133-420.022,172.563c-111.797,16.304-229.084,14.08-339.444-10.753
			c-190.938-42.95-418.369-199.796-511.11-376.753c-64.397-122.866-191.916-198.021-256.654-321.274
			c-74.581-142.017-48.486-308.758-51.665-462.889c-2.028-97.751-5.467-198.227-25.36-293.313
			c-15.397-73.631-45.586-144.138-54.686-218.941c-10.398-85.488,2.359-172.379,8.839-257.656
			c4.586-60.262,10.116-123.904,12.36-183.033c7.463-195.763-6.814-393.449,6.101-591.275
			c11.946-182.991,75.728-1997.39,81.019-2102.084c10.797-213.873,1.457-399.075,172.151-554.959
			c153.854-140.51,356.539-177.529,557.534-170.774C5199.943,774.284,5273.219,786.742,5345.775,803.051z" style="stroke:black;fill:#bfdae3"/><path id="180611570" parent_id="180611567" order="1" structure_id="688" d="M7867.133,3035.355
			c-5.67-83.979-18.107-167.765-29.342-250.971c-17.376-128.688-40.039-256.246-80.884-379.8
			c-142.05-429.899-431.185-669.122-787.521-921.897c-188.744-133.879-393.334-244.576-605.547-336.36
			c-233.639-101.05-465.316-211.163-715.981-263.579c-101.692-21.26-201.312-51.44-302.313-74.145
			c-72.554-16.311-145.832-28.77-221.104-31.299c-200.994-6.752-403.68,30.271-557.533,170.778
			c-170.7,155.887-161.361,341.091-172.156,554.966c-5.296,104.695-72.434,1918.979-81.021,2102.1
			c-4.313,92.005-6.851,181.561-5.32,273.585c0.684,40.764-0.659,81.645,1.253,122.384c3.026,64.451,44.66,79.236,102.49,79.281
			c34.157,0.031,91.769-15.144,108.729-45.961c23.297-42.352,64.459-176.771,121.924-174.557
			c15.676,0.605,165.592,8.988,223.689,10.371c22.834,0.545,105.76,2.295,120.785-11.152c6.898-6.174,17.872-20.017,19.932-29.225
			c22.662-101.245,36.688-249.729,47.115-325.646c7.826-56.912,28.389-90.541,48.024-140.284l1.577-9.983
			c-1.395,3.545-2.756,7.22-4.404,10.414c-34.91,68.763-91.088,126.951-137.932,187.334
			c-50.701,65.317-97.811,182.377-171.047,215.982c-20.029-55.624,53.573-120.395,79.992-163.475
			c9.247-14.981,17.846-30.405,25.785-46.104c35.802-68.062,56.006-140.224,57.175-144.597c0.089-0.164,0.093-0.247,0.093-0.247
			s0.1-0.413,0.294-1.156c0.004-0.083,0.004-0.083,0.09-0.163c15.983-53.486,28.204-108.868,38.188-164.585
			c0.103-0.496,0.201-0.909,0.305-1.405c18.65-103.233,30.102-207.829,46.111-305.328
			c16.789-102.472,48.037-221.142,104.404-318.836c24.309-42.411,53.468-80.885,88.189-112.308
			c10.453-9.517,21.385-18.433,32.949-26.489c24.426-17.315,51.31-31.367,80.869-41.315c25.258-8.613,52.479-14.149,81.738-16.272
			c136.756-9.734,286.477,65.893,396.721,140.582c40.211,27.31,78.561,57.547,113.963,90.672
			c64.377,60.002,119.064,129.133,158.543,205.763c2.021,3.829,3.957,7.655,5.808,11.561c-0.08-0.086-0.164-0.089-0.244-0.176
			c2.478,4.93,4.872,9.856,7.106,14.612c1.154,2.462,2.313,4.841,3.307,7.213c4.827,11.022,9.4,22.12,13.716,33.457
			c0.979,2.706,1.956,5.494,2.935,8.199c17.746,52.201,23.504,101.773,27.348,166.443c4.471,76.532,4.586,147.062-13.509,190.461
			c-0.819,1.803-1.554,3.524-2.37,5.244c-1.266,2.536-2.529,5.071-3.871,7.438c-4.023,7.097-8.438,13.429-13.246,19.246
			c-1.575,1.939-3.23,3.793-4.966,5.561c-18.679,19.621-42.089,32.223-66.735,48.779c-11.888,7.795-23.317,16.69-34.117,26.527
			c-0.256,0.157-0.433,0.4-0.604,0.561c-1.38,1.197-2.763,2.479-3.979,3.765c-1.207,1.037-2.334,2.161-3.543,3.281
			c-16.617,15.865-31.385,33.469-44.531,52.302c-0.182,0.41-0.448,0.816-0.794,1.137c-31.839,45.289-56.29,97.864-71.821,148.283
			c-10.381,33.612-20.912,131.656-23.192,151.909c-3.675,32.619-5.192,65.488-1.653,96.969c0.021,14.591,0.226,28.77,0.694,42.542
			c0.91,28.295,1.397,52.405,1.726,80.678c-2.256-2.643-4.258-5.409-6.131-8.248l1.055,5.4
			c43.195,69.549,80.077,146.916,117.602,226.961c59.059,126.027,74.123,262.502-32.604,371.17
			c-49.215,50.105-121.403,67.223-172.97,113.411c-108.576,97.26-28.09,283.456,27.877,383.481
			c97.594,174.434,231.599,268.365,390.364,384.611c96.828,70.911,310.716,195.503,310.716,195.503s9.363-13.269,12.007-18.151
			c4.769-8.808,77.321-93.645,88.515-103.016c33.639-28.15,71.457-49.96,107.322-74.971c18.922-13.199,38.689-27.008,55.684-42.658
			c59.424-54.752,116.637-111.334,180.389-163.566c138.568-113.533,271.084-263.563,340.555-430.639
			c74.922-180.223,98.172-377.653,197.506-548.603c98.422-169.401,169.715-338.415,241.465-519.926
			C7816.494,3537.223,7883.443,3276.979,7867.133,3035.355z" style="stroke:black;fill:#b0ffb8"/><path id="180611616" parent_id="180611567" order="2" structure_id="320" d="M6773.157,1349.247l-72.667,113.989
			c-75.4-37.834-152.788-73.912-231.652-110.547c-233.565-108.535-459.008-235.349-709.701-303.947
			c-95.36-26.101-190.517-53.192-286.408-76.312l11.703-134.929c54.309,14.098,108.701,28.198,163.61,39.65
			c250.733,52.429,482.403,162.559,716.008,263.594C6504.59,1201.516,6641.727,1270.572,6773.157,1349.247z" style="stroke:black;fill:#1f9d5a"/><path id="180611615" parent_id="180611567" order="3" structure_id="943" d="M6700.49,1463.236l-143.783,225.275l-48.387,75.923
			c3.08-4.833,2.998-4.706,0,0l-77.867-49.601c-3.48-2.102-6.967-4.191-10.455-6.27
			c-140.463-83.664-287.357-148.168-438.955-214.204c-168.071-73.167-352.711-149.059-513.449-209.188
			c-7.149-2.693-14.219-5.3-21.367-7.993l26.5-304.75c95.894,23.119,191.049,50.211,286.41,76.312
			c250.692,68.599,476.135,195.412,709.699,303.947C6547.702,1389.324,6625.089,1425.401,6700.49,1463.236z" style="stroke:black;fill:#1f9d5a"/><path id="180611614" parent_id="180611567" order="4" structure_id="648" d="M6508.32,1764.436l-232.541,364.5
			c-88.17-65.586-182.642-123.413-278.424-166.701c-203.207-91.61-391.111-201.722-583.795-309.016l32.666-376.038
			c7.148,2.693,14.217,5.3,21.367,7.993c160.737,60.13,345.377,136.021,513.449,209.188
			c155.362,67.675,305.785,133.744,449.41,220.474c24.115,14.518,48.039,29.694,71.771,45.531
			C6504.258,1761.695,6506.287,1763.107,6508.32,1764.436z" style="stroke:black;fill:#1f9d5a"/><path id="180611613" parent_id="180611567" order="5" structure_id="844" d="M6275.779,2128.936l-267.144,418.768
			c-78.89-59.811-162.356-113.294-259.462-154.716c-148.277-63.318-282.089-80.229-395.063-55.99l59.449-683.777
			c192.683,107.293,380.588,217.404,583.795,309.016C6093.139,2005.521,6187.609,2063.35,6275.779,2128.936z" style="stroke:black;fill:#1f9d5a"/><path id="180611612" parent_id="180611567" order="6" structure_id="882" d="M6008.637,2547.703l-65.916,103.246l-5.307,5.714
			c-35.402-33.125-73.751-63.363-113.963-90.672c-110.243-74.69-259.964-150.317-396.721-140.583
			c-29.258,2.123-56.48,7.66-81.737,16.273l9.119-104.686c112.974-24.239,246.784-7.328,395.063,55.99
			C5846.279,2434.408,5929.747,2487.893,6008.637,2547.703z" style="stroke:black;fill:#1f9d5a"/><path id="180611621" parent_id="180611567" order="7" structure_id="656" d="M5484.432,837.502l-11.703,134.929
			c-126.453-30.466-254.254-54.063-385.513-59.373c-109.032-4.452-227.452-1.097-326.185,51.617
			c-91.41,48.745-154.021,122.441-195.586,208.119l-75.412-141.371c20.435-30.557,45.754-60.258,77.117-88.893
			c153.801-140.539,356.549-177.574,557.521-170.745c75.264,2.482,148.559,14.979,221.121,31.28
			C5392.159,813.438,5438.295,825.47,5484.432,837.502z" style="stroke:black;fill:#1f9d5a"/><path id="180611620" parent_id="180611567" order="8" structure_id="962" d="M5472.729,972.431l-26.5,304.75
			c-104.77-39.383-208.354-79.221-315.979-107.211c-223.424-58.045-385.842,61.656-411.866,263.222
			c-0.941,7.134-1.805,14.353-2.755,21.734l-150.183-282.133c41.564-85.678,104.176-159.375,195.586-208.119
			c98.731-52.714,217.151-56.07,326.185-51.617C5218.475,918.366,5346.273,941.965,5472.729,972.431z" style="stroke:black;fill:#1f9d5a"/><path id="180611619" parent_id="180611567" order="9" structure_id="767" d="M5446.229,1277.181l-32.666,376.038
			c-64.313-35.74-129.133-71.25-195.25-105.56c-154.627-80.318-278.611,15.521-295.857,177.496
			c-3.396,31.88-6.602,65.268-9.684,99.827l-197.144-370.056c0.951-7.382,1.813-14.602,2.755-21.733
			c26.023-201.566,188.441-321.268,411.866-263.223C5237.874,1197.96,5341.459,1237.798,5446.229,1277.181z" style="stroke:black;fill:#1f9d5a"/><path id="180611618" parent_id="180611567" order="10" structure_id="1021" d="M5413.563,1653.219l-59.449,683.777
			c-50.518,10.807-96.851,29.862-138.479,56.602l-302.863-568.614c3.082-34.561,6.287-67.948,9.684-99.828
			c17.246-161.976,141.23-257.814,295.857-177.496C5284.43,1581.969,5349.249,1617.479,5413.563,1653.219z" style="stroke:black;fill:#1f9d5a"/><path id="180611617" parent_id="180611567" order="11" structure_id="1085" d="M5354.111,2336.996l-9.119,104.686
			c-29.561,9.947-56.443,24-80.869,41.314l-3.867-5.65l-44.621-83.748C5257.264,2366.857,5303.596,2347.803,5354.111,2336.996z" style="stroke:black;fill:#1f9d5a"/><path id="180611610" parent_id="180611567" order="12" structure_id="182305693" d="M7867.368,3029.814
			c11.256,166.491-17.095,341.875-64.489,507.44l-1.979-0.577l-190.16-27.836c1.816-8.183,3.629-16.281,5.445-24.465
			c56.832-254.73,194.733-540.768,102.529-797.991c-107.104-298.896-236.518-592.148-457.507-827.995
			c-165.659-176.859-355.854-292.477-560.719-395.155l72.667-113.989c67.146,40.101,132.695,82.641,196.475,127.864
			c356.299,252.813,645.433,492.036,787.502,921.907c40.838,123.532,63.515,251.116,80.895,379.83
			C7849.242,2862.059,7861.686,2945.816,7867.368,3029.814z" style="stroke:black;fill:#188064"/><path id="180611611" parent_id="180611567" order="13" structure_id="182305697" d="M7718.716,2686.386
			c92.204,257.224-45.696,543.259-102.53,797.991c-1.815,8.184-3.629,16.282-5.444,24.465l-241.06-35.216
			c22.084-127.443,37.709-255.968,46.022-385.192c13.513-209.968,0.108-431.061-88.849-627.639
			c-59.375-131.416-160.158-246.088-254.638-353.432c-0.084-0.003-0.164-0.089-0.16-0.173
			c-41.688-47.372-343.582-338.354-520.084-411.263l148.517-232.69c204.865,102.679,395.06,218.296,560.719,395.156
			C7482.198,2094.237,7611.611,2387.491,7718.716,2686.386z" style="stroke:black;fill:#188064"/><path id="180611609" parent_id="180611567" order="14" structure_id="182305701" d="M7326.855,2460.794
			c88.957,196.578,102.359,417.67,88.849,627.639c-8.313,129.224-23.938,257.75-46.022,385.192l-72.283-10.622
			c31.152-139.931,47.744-282.759,49.508-427.99c4.449-362.036-176.418-678.53-420.354-935.433
			c-121.208-127.631-273.174-238.023-418.231-335.146l43.654-68.508c176.502,72.908,478.395,363.89,520.084,411.262
			c-0.004,0.083,0.076,0.17,0.16,0.173C7166.698,2214.706,7267.48,2329.378,7326.855,2460.794z" style="stroke:black;fill:#188064"/><path id="180611608" parent_id="180611567" order="15" structure_id="182305705" d="M7346.904,3035.014
			c-1.763,145.232-18.354,288.06-49.506,427.99l-407.926-59.654c5.693-63.386,6.551-122.373,4.516-169.051
			c-8.618-200.316,12.617-409.571-109.384-581.498c-70.054-98.732-191.175-230.778-267.3-310.405
			c-71.076-74.348-153.107-147.782-241.525-213.462l232.541-364.499c145.059,97.122,297.023,207.516,418.231,335.146
			C7170.486,2356.484,7351.355,2672.979,7346.904,3035.014z" style="stroke:black;fill:#188064"/><path id="180611607" parent_id="180611567" order="16" structure_id="182305709" d="M6893.988,3234.299
			c2.035,46.678,1.179,105.665-4.516,169.051l-318.396-46.616c-1.104-16.798-2.945-31.708-5.746-43.403
			c-25.123-105.171-30.66-164.821-70.174-234.034c-27.642-48.498-82.859-142.825-113.563-135.672
			c-6.31,1.507-12.61,2.765-18.817,3.776l-0.07-0.336l-17.525-31.937l-0.818-0.365c17.835-36.659-28.591-110.389-68.643-144.026
			c-91.893-77.15-176.367-154.266-267.082-223.033l267.144-418.769c88.417,65.679,170.449,139.115,241.524,213.462
			c76.125,79.627,197.246,211.672,267.301,310.405C6906.605,2824.729,6885.37,3033.982,6893.988,3234.299z" style="stroke:black;fill:#188064"/><path id="180611606" parent_id="180611567" order="17" structure_id="182305713" d="M6275.719,2770.736
			c40.051,33.638,86.478,107.369,68.643,144.027c-5.609,11.455-17.415,19.252-37.578,21.143
			c-65.339,6.068-158.1-35.604-209.634-74.102l-1.19,0.621c-39.479-76.631-94.166-145.762-158.543-205.763l5.306-5.714
			l65.917-103.246C6099.352,2616.471,6183.826,2693.586,6275.719,2770.736z" style="stroke:black;fill:#188064"/><path id="180611605" parent_id="180611567" order="18" structure_id="36" d="M7800.9,3536.678l1.979,0.577
			c-21.387,74.701-46.611,147.421-73.863,216.396c-31.595,80.061-63.178,157.619-97.045,233.925l-4.016-1.822l-143.146-29.94
			c54.265-144.793,91.959-296.561,125.932-446.97L7800.9,3536.678z" style="stroke:black;fill:#009c75"/><path id="180611604" parent_id="180611567" order="19" structure_id="180" d="M7369.682,3473.625l241.06,35.216
			c-33.974,150.409-71.667,302.177-125.931,446.97l-301.179-62.959c15.177-58.52,27.241-120.658,42.667-177l0.826,0.197
			c78.854,73.73,113.081-89.757,120.991-128.466C7355.829,3549.701,7363.045,3511.717,7369.682,3473.625z" style="stroke:black;fill:#009c75"/><path id="180611603" parent_id="180611567" order="20" structure_id="148" d="M7297.398,3463.004l72.281,10.622
			c-6.636,38.091-13.852,76.076-21.563,113.958c-7.91,38.709-42.138,202.196-120.991,128.466l-0.826-0.198
			c3.99-14.852,8.298-29.273,12.915-43.101C7262.303,3603.616,7281.754,3533.676,7297.398,3463.004z" style="stroke:black;fill:#009c75"/><path id="180611602" parent_id="180611567" order="21" structure_id="187" d="M6889.475,3403.35l407.924,59.654
			c-15.645,70.672-35.096,140.612-58.185,209.747c-4.617,13.826-8.925,28.249-12.915,43.102c-15.426,56.342-27.49,118.48-42.667,177
			l-425.884-89.022C6840.248,3709.393,6876.992,3545.501,6889.475,3403.35z" style="stroke:black;fill:#009c75"/><path id="180611601" parent_id="180611567" order="22" structure_id="638" d="M6571.076,3356.732l318.396,46.617
			c-12.48,142.151-49.226,306.042-131.726,400.479l-237.172-49.571c15.423-54.091,26.481-111.77,38.972-182.729
			C6568.003,3523.006,6575.641,3424.35,6571.076,3356.732z" style="stroke:black;fill:#009c75"/><path id="180611626" parent_id="180611567" order="23" structure_id="935" d="M4490.033,1031.423l75.413,141.371
			c-60.108,123.393-76.655,271.556-73.312,405.397c0.332,13.018,0.826,26.125,1.408,39.15c1.727,35.245,4.451,70.529,7.422,105.906
			l-110.295-118.791c2.186-56.686,3.635-94.309,4.289-106.955C4403.773,1322.866,4399.177,1167.469,4490.033,1031.423z" style="stroke:black;fill:#40a666"/><path id="180611625" parent_id="180611567" order="24" structure_id="211" d="M4565.445,1172.794l150.183,282.133
			c-16.017,132.179-27.733,297.784-38.653,457.834l-111.015-119.567c-12.258-13.191,3.383,3.641-12.258-13.191
			c-14.626-15.74-5.083-5.47-18.646-20.066c-13.199-14.203-5.558-5.602-17.844-19.201l-16.248-17.485
			c-0.051-1.168-7.525-108.244-7.576-109.414c-0.515-11.87-0.953-23.794-1.254-35.644
			C4488.79,1444.35,4505.338,1296.188,4565.445,1172.794z" style="stroke:black;fill:#40a666"/><path id="180611624" parent_id="180611567" order="25" structure_id="1015" d="M4715.628,1454.927l197.144,370.057
			c-8.886,100.774-16.699,210.512-25.367,314.297l-210.43-226.52C4687.895,1752.71,4699.611,1587.105,4715.628,1454.927z" style="stroke:black;fill:#40a666"/><path id="180611623" parent_id="180611567" order="26" structure_id="919" d="M4912.771,1824.983l302.862,568.614
			c-18.974,12.105-36.929,25.918-53.854,41.188l-274.377-295.506C4896.07,2035.495,4903.887,1925.758,4912.771,1824.983z" style="stroke:black;fill:#40a666"/><path id="180611622" parent_id="180611567" order="27" structure_id="927" d="M5260.257,2477.345l3.866,5.651
			c-11.564,8.057-22.495,16.973-32.948,26.49l-69.396-74.699c16.926-15.271,34.881-29.083,53.854-41.189L5260.257,2477.345z" style="stroke:black;fill:#40a666"/><path id="180611632" parent_id="180611567" order="28" structure_id="171" d="M4500.966,1723.249
			c8.658,101.952,19.554,204.24,15.295,306.111c-5.505,131.999-28.909,276.397-53.575,418.913l-102.199-26.03
			c12.475-336.636,24.012-655.466,30.186-817.785L4500.966,1723.249z" style="stroke:black;fill:#2fa850"/><path id="180611631" parent_id="180611567" order="29" structure_id="195" d="M4565.707,2474.584l-103.021-26.313
			c24.666-142.515,48.07-286.912,53.576-418.912c4.258-101.871-6.638-204.159-15.295-306.111l64.994,69.945
			c4.104,44.924,4.813,91.384,6.98,132.48c6.949,128.979,8.256,328.682-5.133,455.458
			C4564.165,2415.087,4559.034,2446.566,4565.707,2474.584z" style="stroke:black;fill:#2fa850"/><path id="180611630" parent_id="180611567" order="30" structure_id="304" d="M4565.96,1793.193l111.015,119.567
			c-8.228,120.476-15.918,237.802-24.768,335.495c-6.977,77.174-21.262,157.985-34.08,239.686l-52.42-13.356
			c-6.673-28.017-1.542-59.497,2.102-93.451c13.39-126.776,12.082-326.479,5.133-455.458
			C4570.773,1884.577,4570.063,1838.117,4565.96,1793.193z" style="stroke:black;fill:#2fa850"/><path id="180611629" parent_id="180611567" order="31" structure_id="363" d="M4676.975,1912.761l210.43,226.52
			c-4.561,53.426-9.313,105.344-14.592,153.657c-9.152,83.926-12.225,170.086-14.876,256.182l-239.81-61.177
			c12.819-81.701,27.104-162.511,34.08-239.687C4661.057,2150.563,4668.747,2033.236,4676.975,1912.761z" style="stroke:black;fill:#2fa850"/><path id="180611628" parent_id="180611567" order="32" structure_id="84" d="M4887.402,2139.28l274.377,295.506
			c-46.985,42.454-86.01,96.803-115.955,162.171l-187.89-47.839c2.651-86.095,5.724-172.255,14.876-256.183
			C4878.091,2244.624,4882.843,2192.706,4887.402,2139.28z" style="stroke:black;fill:#2fa850"/><path id="180611627" parent_id="180611567" order="33" structure_id="132" d="M5161.779,2434.786l69.396,74.698
			c-34.724,31.424-63.882,69.896-88.19,112.308l-97.16-24.835C5075.77,2531.589,5114.794,2477.24,5161.779,2434.786z" style="stroke:black;fill:#2fa850"/><path id="180611637" parent_id="180611567" order="34" structure_id="707" d="M4499.938,3047.664
			c-52.826-15.791-103.539-19.329-161.686-29.073l-0.566,14.733c7.195-188.871,15.213-403.385,22.801-611.081l102.199,26.03
			c-19.547,113.535-39.883,225.873-52.474,329.758C4397.355,2884.489,4452.229,2966.131,4499.938,3047.664z" style="stroke:black;fill:#59b363"/><path id="180611636" parent_id="180611567" order="35" structure_id="556" d="M4691.764,3138.252
			c-47.484-22.42-91.812-48.971-140.549-71.355c-17.53-8.012-34.545-14.252-51.276-19.232
			c-47.708-81.533-102.581-163.175-89.726-269.633c12.59-103.885,32.926-216.223,52.474-329.758l103.021,26.312
			c5.279,1.345,7.098,1.947,13.564,3.457c6.865,1.603,14.229,3.834,22.563,5.749l16.293,4.152
			c-0.512,3.48-7.934,52.296-8.433,55.777c-15.164,105.705-24.399,211.558-8.625,311.108
			C4617.43,2958.076,4664.921,3040.936,4691.764,3138.252z" style="stroke:black;fill:#59b363"/><path id="180611635" parent_id="180611567" order="36" structure_id="827" d="M4857.936,2549.119
			c-2.115,70.025-3.979,140.062-8.625,208.656c-9.82,146.672,10.59,294.092,8.77,440.821
			c-41.311-13.93-80.902-27.043-106.411-35.694c-20.815-7.139-40.664-15.572-59.903-24.65
			c-26.844-97.316-74.334-180.176-90.694-283.425c-16.294-102.83-5.903-212.384,10.142-321.554
			c2.17-15.17,4.502-30.252,6.916-45.332L4857.936,2549.119z" style="stroke:black;fill:#59b363"/><path id="180611634" parent_id="180611567" order="37" structure_id="1054" d="M4857.936,2549.119l187.89,47.839
			c-28.034,61.19-48.185,131.938-59.507,211.613c-21.283,149.897-34.363,350.88-41.093,417.31l-0.839,2.303
			c-26.73-9.367-56.927-19.7-86.307-29.586c1.82-146.729-18.59-294.149-8.77-440.821
			C4853.955,2689.18,4855.82,2619.145,4857.936,2549.119z" style="stroke:black;fill:#59b363"/><path id="180611633" parent_id="180611567" order="38" structure_id="1081" d="M5045.824,2596.958l97.16,24.835
			c-56.367,97.695-87.616,216.365-104.404,318.837c-16.012,97.5-27.461,202.094-46.111,305.328
			c-13.552-5.274-29.991-11.326-48.082-17.774l0.839-2.303c6.729-66.43,19.81-267.412,41.093-417.31
			C4997.641,2728.896,5017.79,2658.148,5045.824,2596.958z" style="stroke:black;fill:#59b363"/><path id="180611600" parent_id="180611567" order="39" structure_id="996" d="M7631.971,3987.574
			c-42.908,96.714-89.4,191.287-144.483,285.947l-138.524-37.35c55.432-88.563,99.41-182.816,135.849-280.362l143.146,29.941
			L7631.971,3987.574z" style="stroke:black;fill:#219866"/><path id="180611599" parent_id="180611567" order="40" structure_id="328" d="M7183.632,3892.852l301.179,62.959
			c-36.438,97.547-80.418,191.801-135.85,280.362l-306.67-82.679c48.593-49.562,87.995-107.229,111.898-167.246
			C7165.725,3957.352,7175.113,3925.701,7183.632,3892.852z" style="stroke:black;fill:#219866"/><path id="180611598" parent_id="180611567" order="41" structure_id="1101" d="M6757.748,3803.829l425.884,89.022
			c-8.519,32.85-17.908,64.498-29.442,93.396c-23.902,60.018-63.306,117.686-111.897,167.246l-0.083-0.003l-627.529-169.235
			c6.313-8.093,12.147-16.705,17.418-25.838c19.556-33.675,35.504-64.654,48.92-94.813l23.361,3.817
			C6617.211,3903.032,6699.061,3870.925,6757.748,3803.829z" style="stroke:black;fill:#219866"/><path id="180611597" parent_id="180611567" order="42" structure_id="783" d="M6520.576,3754.258l237.172,49.571
			c-58.688,67.096-140.537,99.203-253.37,63.594l-23.36-3.817C6497.439,3826.809,6510.057,3791.448,6520.576,3754.258z" style="stroke:black;fill:#219866"/><path id="180611596" parent_id="180611567" order="43" structure_id="704" d="M7348.961,4236.173l138.525,37.351
			c-41.703,71.918-70.073,148.352-94.42,226.355c0,0-134.506-24.857-278.113-47.146l0.542-3.23
			c84.44-56.1,141.634-77.902,202.022-165.355C7328.379,4268.391,7338.917,4252.374,7348.961,4236.173z" style="stroke:black;fill:#219866"/><path id="180611595" parent_id="180611567" order="44" structure_id="694" d="M7042.291,4153.495l306.67,82.679
			c-10.044,16.201-20.582,32.217-31.441,47.972c-60.391,87.453-117.584,109.257-202.023,165.356l-0.542,3.229
			c-134.655-20.944-277.317-39.615-324.49-33.431l-3.892-15.822c-6.047-124.275,154.965-157.75,228.19-223.534
			c9.499-8.554,18.676-17.37,27.444-26.452L7042.291,4153.495z" style="stroke:black;fill:#219866"/><path id="180611594" parent_id="180611567" order="45" structure_id="800" d="M6414.68,3984.257l627.528,169.235
			c-8.771,9.082-17.946,17.898-27.444,26.452c-73.228,65.784-234.238,99.259-228.191,223.534l3.893,15.822
			c-1.426,0.194-2.684,0.396-3.94,0.599c-12.765,2.426-51.371-1.646-84.297,15.591l-8.073-13.314l-165.338-109.492
			c-55.673-50.078-143.719-108.074-223.514-146.578c-16.694-8.063-158.31-56.119-224.578-67.01
			c-87.728-14.385-99.797-58.113-120.688-58.92l10.028-17.952c54.592,32.698,130.539,62.885,211.188,64.075
			C6267.648,4087.544,6359.057,4056.139,6414.68,3984.257z" style="stroke:black;fill:#219866"/><path id="180611571" parent_id="180611567" order="46" structure_id="698" d="M7160.654,4459.939
			c-74.228-11.932-154.756-23.967-222.992-32.045c-70.063-8.295-127.164-12.418-151.146-7.961
			c-19.409,3.608-98.895-7.756-127.049,64.164c-14.568,37.213-29.302,73.44-43.245,110.328
			c-17.953,47.463-53.038,101.709-95.209,131.101c-18.401,12.836-90.369,56.817-108.144,66.713
			c-41.992,23.392-67.364,64.289-83.367,107.563c-32.994,89.172-91.703,94.041-115.789,108.699
			c-47.23,28.75-117.922,120.172-95.683,181.996c32.556,90.478,30.519,138.436,19.437,165.605
			c-9.367,22.969-25.192,31.087-32.062,37.445c0.067-0.137,59.463,42.871,108.724,78.017c28.459,20.306,53.537,37.987,61.83,43.205
			c48.436,30.456,96.739,61.015,145.711,90.612c27.82,16.818,55.78,33.41,83.869,49.772c0,0,41.22-59.701,48.158-67.584
			c7.028-7.976,41.162-44.213,52.355-53.584c11.938-9.987,33.787-25.728,57.77-42.575c36.74-25.813,78.472-54.225,97.269-68.577
			c5.356-4.425,10.056-8.453,13.722-11.8c19.114-17.688,38.035-35.537,57.043-53.355c9.988-9.373,18.912-17.725,24.742-23.092
			c0.076-0.069,0.153-0.14,0.229-0.209c10.487-9.724,21.049-19.403,31.72-29.017c19.806-17.845,39.998-35.442,60.9-52.569
			c138.566-113.533,271.092-263.563,340.555-430.639c22.362-53.787,103.092-322.275,103.092-322.275
			S7285.85,4480.063,7160.654,4459.939z" style="stroke:black;fill:#9ad2bd"/><path id="180611572" parent_id="180611567" order="47" structure_id="698" d="M5070.207,3411.084
			c-31.538,42.729-61.198,78.24-93.127,120.809c-8.559,11.427-17.107,21-25.096,32.809
			c-36.078,53.324-67.03,117.666-113.342,166.751c-1.246,1.322-25.674,25.771-48.135,36.244
			c-5.254-16.095-2.276-37.533,3.938-52.853c7.703-18.966,19.629-34.274,31.14-51.05c9.096-13.243,22.998-27.987,27.447-35.036
			c4.971-7.887,18.449-25.372,21.932-33.999c0.984-2.444,1.73-4.823,2.265-7.157c9.761-13.502,19.658-27.194,25.29-41.896
			c20.613-42.18,37.229-86.505,50.98-132.191c0.099-0.412,0.283-0.905,0.387-1.401c0.004-0.083,0.004-0.083,0.09-0.163
			c3.057-12.221,26.684-106.176,38.188-164.585c0.104-0.496,0.203-0.909,0.306-1.405c-13.552-5.273-29.991-11.326-48.082-17.775
			c-26.731-9.366-56.927-19.699-86.308-29.584c-41.311-13.931-80.901-27.043-106.41-35.695
			c-20.815-7.139-40.664-15.572-59.904-24.65c-47.484-22.42-91.813-48.971-140.549-71.355
			c-17.531-8.012-34.546-14.252-51.277-19.232c-52.826-15.791-103.539-19.329-161.686-29.072l-0.566,14.732
			c-3.69,95.766-7.129,184.972-10.271,263.286c-5.884,16.932-1.371,56.54-3.762,70.045h0.438
			c-1.357,36.087-3.447,92.033-3.616,98.095c-1.22,45.014-4.425,89.894-6.532,134.846c-4.313,92.004-6.85,181.561-5.313,273.586
			c0.676,40.763-0.666,81.645,1.244,122.384c1.51,32.062,12.571,51.83,30.426,63.61c18.037,11.898,43.004,15.647,72.064,15.67
			c9.139,0.01,18.754-0.629,28.398-2.045c26.4-3.881,53.022-13.651,70.707-32.386c25.697-27.227,39.715-68.808,51.949-103.454
			c7.248-20.531,21.166-44.146,35.265-60.773c11.778-13.883,26.373-20.305,44.335-21.858c3.93-0.342,7.861-0.564,11.796-0.712
			c12.712-0.471,25.448-0.054,38.151,0.456c57.983,2.343,115.644,9.245,173.75,10.628c22.826,0.545,45.863,1.77,68.674,0.225
			c18.914-1.285,39.666-0.313,54.69-13.76c6.897-6.176,15.285-17.634,17.351-26.842c22.656-101.246,36.682-249.729,47.117-325.656
			c3.742-27.283,12.576-58.483,24.015-83.678c5.558-12.238,18.304-38.758,21.974-51.492
			C5091.771,3378.316,5076.227,3402.929,5070.207,3411.084z" style="stroke:black;fill:#9ad2bd"/><path id="180611593" parent_id="180611567" order="48" structure_id="1034" d="M4325.199,3337.334
			c-0.488,12.605-4.49,118.926-4.727,127.415c-1.221,45.014-4.426,89.894-6.533,134.846c-4.312,92.004-6.85,181.561-5.312,273.585
			c0.675,40.764-0.667,81.646,1.244,122.385c1.51,32.062,12.571,51.83,30.426,63.609c-0.479-2.613-0.901-5.332-1.429-8.123
			c-7.828-41.523-4.721-82.449-7.347-124.658c-0.515-8.271-0.862-16.539-0.965-24.713c-1.034-79.149,18.626-156.668,33.86-234.024
			c20.563-104.672,93.524-184.736,145.672-273.459c-30.447-10.769-60.569-22.584-89.879-33.592
			C4386.268,3347.865,4361.432,3342.618,4325.199,3337.334z" style="stroke:black;fill:#62d09f"/><path id="180611592" parent_id="180611567" order="49" structure_id="1042" d="M4330.561,3901.681c0.102,8.175,0.449,16.44,0.965,24.713
			c2.625,42.208-0.481,83.134,7.346,124.658c0.525,2.791,0.948,5.509,1.43,8.123c18.035,11.899,43.002,15.647,72.063,15.671
			c9.14,0.009,18.754-0.629,28.397-2.046c8.598-13.929,15.205-30.953,18.947-40.101c15.046-36.779,35.576-70.862,49.229-108.217
			c15.881-43.447,27.428-88.104,41.739-132.025c34.046-104.725,85.761-198.515,103.659-308.195
			c2.561-15.726,5.994-31.799,9.861-48.094c-20.836-5.24-41.705-10.078-62.262-14.658c-30.616-6.821-61.395-16.544-91.844-27.313
			c-52.147,88.724-125.109,168.788-145.672,273.459C4349.186,3745.012,4329.525,3822.53,4330.561,3901.681z" style="stroke:black;fill:#62d09f"/><path id="180611591" parent_id="180611567" order="50" structure_id="1050" d="M4550.677,3792.457
			c-14.313,43.922-25.858,88.579-41.739,132.025c-13.651,37.354-34.183,71.438-49.229,108.217
			c-3.742,9.146-10.352,26.172-18.947,40.101c26.401-3.88,53.023-13.65,70.709-32.385c25.696-27.228,39.713-68.808,51.947-103.454
			c7.248-20.532,21.168-44.146,35.266-60.773c11.779-13.884,26.373-20.306,44.335-21.858c3.929-0.342,7.86-0.565,11.796-0.712
			l9.193-36.284c28.602-120.237,93.66-221.999,139.774-332.729c-17.327-9.711-35.019-17.412-48.944-22.143
			c-29.397-9.988-59.981-18.58-90.641-26.291c-3.867,16.294-7.301,32.368-9.861,48.094
			C4636.438,3593.943,4584.723,3687.732,4550.677,3792.457z" style="stroke:black;fill:#62d09f"/><path id="180611590" parent_id="180611567" order="51" structure_id="1059" d="M4654.813,3853.616
			c12.713-0.472,25.449-0.054,38.151,0.456c57.983,2.343,115.644,9.245,173.751,10.628c22.826,0.545,45.863,1.769,68.674,0.224
			c18.913-1.285,39.665-0.313,54.689-13.76c6.897-6.175,15.285-17.633,17.352-26.841c22.656-101.246,36.682-249.729,47.117-325.656
			c3.742-27.284,12.576-58.483,24.014-83.678c5.558-12.239,18.305-38.759,21.974-51.493c-8.763,14.821-24.308,39.434-30.327,47.588
			c-31.538,42.729-61.198,78.24-93.127,120.809c-8.559,11.427-17.107,21-25.096,32.809
			c-36.078,53.324-67.03,117.666-113.342,166.751c-1.246,1.322-25.674,25.771-48.135,36.244
			c-5.254-16.095-2.276-37.533,3.938-52.853c7.703-18.966,19.629-34.274,31.14-51.05c9.096-13.243,22.998-27.987,27.447-35.036
			c4.971-7.887,18.449-25.372,21.932-33.999c7.932-19.67,0.383-35.243-8.98-54.823c-9.977-20.868-35.66-40.461-62.201-55.334
			c-46.115,110.73-111.174,212.491-139.775,332.729L4654.813,3853.616z" style="stroke:black;fill:#62d09f"/><path id="180611641" parent_id="180611567" order="52" structure_id="496" d="M4499.938,3047.664
			c42.396,72.325,79.211,144.518,58.006,233.982c-8.076,34.366-21.975,66.176-38.822,96.703
			c-74.766-26.223-166.72-60.693-192.678-57.692c3.4-83.898,7.167-181.62,11.241-287.333l0.567-14.733
			C4396.396,3028.334,4447.111,3031.873,4499.938,3047.664z" style="stroke:black;fill:#a4daa4"/><path id="180611640" parent_id="180611567" order="53" structure_id="360" d="M4699.264,3168.635
			c17.727,80.794-10.592,168.816-31.209,251.717c-21.877-5.595-43.854-10.692-65.508-15.528
			c-19.01-4.234-49.459-14.494-83.426-26.474c16.849-30.527,30.746-62.336,38.822-96.703
			c21.205-89.465-15.609-161.657-58.006-233.982c16.731,4.979,33.746,11.221,51.277,19.232
			c48.736,22.386,93.063,48.936,140.549,71.355C4694.465,3148.193,4696.993,3158.294,4699.264,3168.635z" style="stroke:black;fill:#a4daa4"/><path id="180611639" parent_id="180611567" order="54" structure_id="646" d="M4858.079,3198.597c-0.377,37.915-2.337,75.771-6.63,113.617
			c-6.305,55.442-21.441,106.46-40.841,155.563c-18.056-9.532-36.492-15.661-55.173-21.967
			c-28.387-9.681-57.826-17.983-87.382-25.459c20.617-82.9,48.937-170.923,31.209-251.717c-2.271-10.341-4.798-20.441-7.499-30.383
			c19.24,9.078,39.089,17.512,59.904,24.649C4777.177,3171.554,4816.77,3184.667,4858.079,3198.597z" style="stroke:black;fill:#a4daa4"/><path id="180611638" parent_id="180611567" order="55" structure_id="267" d="M4992.468,3245.958c-0.103,0.496-0.202,0.909-0.306,1.405
			c-11.504,58.41-35.131,152.365-38.188,164.585c-0.086,0.08-0.086,0.08-0.09,0.163c-0.104,0.496-0.288,0.988-0.387,1.402
			c-15.105,50.185-33.649,98.737-57.176,144.597c-26.101-49.523-23.703-38.177-38.513-54.086
			c-15.285-16.513-31.106-27.792-47.203-36.248c19.397-49.104,34.536-100.121,40.841-155.563
			c4.293-37.848,6.253-75.701,6.63-113.617c29.38,9.886,59.575,20.22,86.308,29.586
			C4962.477,3234.632,4978.916,3240.684,4992.468,3245.958z" style="stroke:black;fill:#a4daa4"/><path id="180611589" parent_id="180611567" order="56" structure_id="276" d="M7160.654,4459.939
			c-14.709,83.736-40.563,165.263-49.213,250.254c-7.434,73.019-20.016,153.196-76.57,205.271
			c-43.374,39.938-100.277,59.434-157.587,68.646c-60.985,9.803-117.687,20.805-177.843,36.365
			c-58.432,15.11-95.818,38.693-133.215,85.767c-34.874,43.896-47.613,93.938-75.409,141.049
			c-21.485,36.396-63.953,57.604-89.022,91.03c-29.797,39.73-51.596,67.883-99.279,84.451
			c-34.229,11.892-67.63,19.684-88.384,48.793c28.459,20.305,53.537,37.986,61.83,43.205
			c48.435,30.455,96.739,61.015,145.711,90.612c27.819,16.817,55.78,33.409,83.869,49.772c0,0,41.22-59.701,48.158-67.584
			c7.028-7.977,41.162-44.213,52.354-53.584c11.938-9.987,33.787-25.728,57.77-42.576c-21.773,13.944-53.325,37.092-71.036,53.492
			c-11.153,10.328-21.623,21.842-31.409,33.391c-8.704,10.262-17.146,9.009-29.505,8.395c-6.979-0.35-13.878-1.838-20.011-5.295
			c-17.539-9.899-29.938-37.155-25.146-57.021c2.408-9.969,9.98-17.664,17.092-24.583c11.624-11.299,24.006-23.237,37.029-32.873
			c83.982-62.125,171.75-123.177,258.189-181.592c15.27-10.315,34.8-20.36,52.803-24.417c14.188-3.197,47.271-5.193,52.242,13.874
			c0.699,2.717,0.69,5.499,0.153,8.244c-1.731,8.957-9.924,16.604-15.627,22.285c-0.019,0.019-0.035,0.034-0.054,0.052
			c19.807-17.844,39.998-35.441,60.901-52.568c138.567-113.533,271.092-263.563,340.556-430.64
			c22.361-53.787,103.092-322.274,103.092-322.274S7285.85,4480.063,7160.654,4459.939z" style="stroke:black;fill:#6acbba"/><path id="180611588" parent_id="180611567" order="57" structure_id="284" d="M6302.516,5422.771
			c47.685-16.566,69.481-44.72,99.279-84.451c25.068-33.426,67.536-54.635,89.021-91.029c27.797-47.109,40.535-97.154,75.41-141.049
			c37.396-47.072,74.783-70.654,133.215-85.766c60.156-15.563,116.855-26.563,177.842-36.367
			c57.311-9.213,114.213-28.707,157.588-68.646c56.556-52.074,69.138-132.253,76.569-205.271
			c8.651-84.992,34.505-166.519,49.214-250.256c-74.229-11.931-154.757-23.967-222.993-32.045
			c-17.021,39.306-22.485,84.811-18.092,127.26c6.229,60.14,72.403,131.896,11.829,187.016
			c-24.057,21.885-62.118,14.393-92.063,24.32c-58.793,19.49-118.92,19.557-178.869,31.492c-39.754,7.92-173.1,28.082-195.52,40.365
			c-23.818,13.053-26.706,37.144-35.468,60.656c-40.251,107.938-99.586,183.753-211.707,221.486
			c-40.332,13.571-42.146,112.892-41.78,130.041c0.813,38.08-15.297,74.756-38.523,105.571
			c-9.367,22.97-25.193,31.087-32.063,37.446c0.067-0.138,59.463,42.869,108.725,78.016
			C6234.885,5442.456,6268.286,5434.664,6302.516,5422.771z" style="stroke:black;fill:#6acbba"/><path id="180611587" parent_id="180611567" order="58" structure_id="291" d="M6175.993,5250.532
			c-0.366-17.149,1.448-116.47,41.78-130.042c112.121-37.732,171.455-113.55,211.707-221.486
			c8.762-23.514,11.648-47.604,35.467-60.655c22.42-12.284,155.767-32.446,195.521-40.365
			c59.949-11.937,120.075-12.003,178.868-31.493c29.945-9.928,68.007-2.436,92.063-24.32
			c60.576-55.119-5.601-126.875-11.828-187.016c-4.395-42.449,1.07-87.954,18.092-127.259
			c-70.063-8.294-127.164-12.417-151.146-7.96c-19.409,3.607-98.895-7.756-127.049,64.163
			c-14.568,37.213-29.302,73.44-43.245,110.328c-17.953,47.463-53.038,101.709-95.209,131.101
			c-18.401,12.836-90.369,56.817-108.144,66.713c-41.992,23.393-67.364,64.289-83.367,107.563
			c-32.994,89.173-91.703,94.042-115.789,108.7c-47.23,28.749-117.922,120.172-95.683,181.996
			c32.556,90.477,30.519,138.436,19.437,165.605C6160.695,5325.288,6176.807,5288.611,6175.993,5250.532z" style="stroke:black;fill:#6acbba"/><path id="180611577" parent_id="180611567" order="59" structure_id="583" d="M6414.68,3984.257
			c-55.623,71.882-147.03,103.287-233.43,102.041c-80.648-1.189-156.596-31.377-211.188-64.075
			c-7.494-4.539-14.655-9.066-21.314-13.658c-53.695-36.498-75.57-87.525-81.754-143.366c0-129.794,19.854-285.833,96.668-397.162
			c0.346-0.32,0.611-0.728,0.794-1.136c13.569-18.984,28.423-36.667,44.53-52.303c1.211-1.121,2.338-2.243,3.545-3.28
			c1.303-1.367,2.6-2.567,3.979-3.765c0.173-0.16,0.35-0.403,0.605-0.561c10.619-9.511,21.967-18.41,34.117-26.528
			c24.883-16.213,48.217-28.985,66.734-48.778c1.734-1.768,3.391-3.621,4.966-5.562c4.808-5.733,9.222-12.149,13.246-19.246
			c1.342-2.366,2.606-4.901,3.871-7.437c0.815-1.72,1.55-3.441,2.37-5.244c18.217-42.229,19.085-97.215,20.473-141.844
			c2.342-75.936-10.138-147.94-34.311-215.063c-0.979-2.705-1.955-5.494-2.936-8.199c-3.994-10.99-8.487-22.001-13.715-33.457
			c-0.992-2.373-2.151-4.751-3.308-7.213c-2.229-4.837-4.545-9.678-6.862-14.436c63.814,50.81,153.771,91.706,261.012,73.415
			c6.208-1.011,12.509-2.27,18.818-3.776c30.703-7.152,85.922,87.174,113.563,135.672c39.514,69.213,45.051,128.863,70.174,234.034
			c2.801,11.695,4.645,26.604,5.746,43.403c4.563,67.616-3.073,166.271-11.529,214.796c-12.487,70.96-23.547,128.638-38.971,182.729
			c-10.52,37.189-23.137,72.55-39.561,109.347c-13.416,30.159-29.365,61.14-48.92,94.813
			C6426.826,3967.552,6420.992,3976.164,6414.68,3984.257z" style="stroke:black;fill:#8ada87"/><path id="180611576" parent_id="180611567" order="60" structure_id="952" d="M6528.814,4312.684
			c61.633,55.478,90.685,169.053,69.486,249.681c-15.919,60.49-61.26,114.347-109.813,152.071
			c-29.824,23.274-136.772,59.918-162.76,111.268c-18.043,35.566-41.588,127.357-79.934,138.134
			c-96.152,26.89-128.547,93.079-148.583,141.407c-24.089,58.342-4.257,108.29,11.188,163.904
			c6.082,21.742,14.549,57.246,5.933,79.672c-4.995,12.813-15.493,21.328-35.388,20.562c-11.569-0.446-88.531-67.019-114.192-91.183
			c-63.228-59.539-117.885-127.334-160.312-203.162c-55.916-100.021-136.438-286.188-27.902-383.457
			c51.631-46.192,123.816-63.334,173.016-113.457c20.996-21.363,87.598-105.576,79.332-198.261
			c-2.162-23.925-3.336-49.729-11.289-72.627c-0.08-0.086-0.08-0.086-0.08-0.086c-41.811-135.074-128.519-236.45-65.892-265.13
			c3.056-1.383,5.827-1.943,8.407-1.844c20.893,0.806,32.962,44.535,120.688,58.92c66.271,10.891,207.885,58.945,224.58,67.009
			C6385.096,4204.609,6473.143,4262.604,6528.814,4312.684z" style="stroke:black;fill:#a0ee9d"/><path id="180611574" parent_id="180611567" order="61" structure_id="56" d="M5824.839,5153.643
			c-47.435-81.429-103.206-172.732-120.069-267.215c-2.026-11.367-14.107-121.906,8.832-131.957
			c12.859-3.961,23.056-10.547,29.508-20.347c7.979-12.133,11.787-29.968,6.092-53.047c-0.108-0.442-0.227-0.901-0.34-1.353
			c10.422-6.269,127.06-52.178,204.426-136.22c94.754-102.925,42.896-264.429-2.041-360.285
			c-74.742-159.466-176.037-426.481-447.463-479.113c-55.301-10.718-301.174-57.424-330.166-67.853
			c-33.801,39.092-81.648,101.445-107.151,146.646c-10.94,19.395-37.127,73.782-53.787,99.106
			c-30.708,46.693-80.551,78.938-119.41,118.438c-71.155,72.303-129.376,153.499-166.698,248.082
			c-38.021,96.348-58.465,198.98-101.188,293.602c-30.627,67.812-86.912,145.672-97.342,219.906
			c-16.236,115.696,79.975,220.041,138.252,315.22c77.517,126.589,112.121,334.028,246.842,412.433
			c124.039,72.196,299.263,102.877,439.025,119.064c86.879,10.063,186.604,23.758,269.57-18.787
			c52.59-26.963,97.242-66.034,138.819-107.505c52.453-52.312,193.868-126.683,195.683-173.763
			C5957.574,5273.863,5854.066,5203.811,5824.839,5153.643z" style="stroke:black;fill:#80cdf8"/><path id="180611578" parent_id="180611567" order="62" structure_id="481" d="M4565.273,5477.462
			c-9.082-74.978-37.112-144.951-62.248-215.806c-16.881-47.58-20.065-91.945-27.701-140.819
			c-1.297-8.304-6.539-31.851-12.734-62.794c-24.998-17.251-44.605-24.038-66.797,13.57c-12.725,21.564-7.33,80.604-6.869,105.401
			c2.618,137.291-64.248,282.169,39.289,398.093c31.35,35.102,98.035,49.717,130.415,11.896c2.841-7.655,5.795-15.557,7.918-24.442
			C4572.925,5535.863,4568.54,5504.436,4565.273,5477.462z" style="stroke:black;fill:#80cdf8"/><path id="180611579" parent_id="180611567" order="63" structure_id="481" d="M5390.074,6126.352
			c-3.629-24.17-13.391-47.763-17.168-72.037c-14.257-9.168-21.352-31.129-42.744-35.114c-33.426-6.185-46.791,28.229-65.678,42.483
			c0.172,22.943-6.203,43.998,1.852,68.893c10.471,32.35,30.836,52.154,49.537,77.336c21.009,4.66,43.266,1.779,62.979-7.131
			C5386.793,6175.734,5394.561,6156.23,5390.074,6126.352z" style="stroke:black;fill:#80cdf8"/><path id="180611580" parent_id="180611567" order="64" structure_id="481" d="M4941.089,5965.521
			c8.149-6.957,18.392-20.01,28.872-30.066c-1.158-1.559-2.271-3.23-3.338-5.025c-0.018-0.037,56.96-56.281,46.393-83.058
			c-7.854-19.903-28.758-26.825-51.73-30.286c-34.559,6.911-66.096,23.273-99.912,33.629c-29.559,9.051-58.833,18.336-88.238,27.24
			c-25.584,16.383-50.285,41.15-59.879,69.736c9.92,12.615,19.394,25.563,28.285,38.941c12.223,18.391,24.599,36.443,37.381,53.993
			c26.688-1.03,56.402-11.296,81.457-17.334C4882.662,6001.439,4918.561,5984.75,4941.089,5965.521z" style="stroke:black;fill:#80cdf8"/><path id="180611585" parent_id="180611567" order="65" structure_id="458" d="M4772.991,5877.451
			C4760.484,5881.238,4760.484,5881.238,4772.991,5877.451c0.847-0.542,1.694-1.078,2.542-1.602
			c-36.55-31.805-77.939-58.994-114.091-93.588c-37.231-35.619-99.659-89.881-110.161-141.916
			c-4.35-21.543,1.234-36.873,7.348-53.342c-32.381,37.82-99.065,23.205-130.416-11.896
			c-103.537-115.924-36.67-260.802-39.289-398.093c-0.461-24.797-5.854-83.837,6.869-105.4
			c22.19-37.609,41.799-30.822,66.797-13.571c-15.265-76.231-36.317-197.36-18.472-246.142
			c-16.462,7.944-100.423,51.793-99.054,55.588c8.541,23.733,19.597,178.607,21.621,276.334
			c3.182,154.131-22.914,320.881,51.672,462.895c70.658,134.532,202.314,222.912,294.754,340.471
			C4722.706,5918.602,4747.407,5893.834,4772.991,5877.451z" style="stroke:black;fill:#80cdf8"/><path id="180611586" parent_id="180611567" order="66" structure_id="458" d="M6319.336,5581.725
			c-7.025-4.772-13.743-9.223-20.268-13.471c23.688,47.311,100.611,98.747,58.617,142.296c-14.099,14.62-55.629,2.817-72.631,0.659
			c-73.896-9.461-87.586-24.177-121.892,46.441c-15.722,32.381-36.135,62.574-60.118,89.412
			c-19.018,21.283-38.535,32.234-40.329,61.883c-2.597,42.873,25.269,81.321-34.948,94.834
			c-58.941,13.226-99.703-42.072-155.744-39.412c-71.464,3.392-153.652,11.787-221.609,34.904
			c-62.232,21.18-91.975,57.425-133.186,106.145c-31.107,36.707-81.543,57.166-120.118,84.842
			c-5.729,4.11-11.862,7.631-18.261,10.521c-1.494,4.708-1.494,4.708,0,0c-19.713,8.91-41.97,11.791-62.979,7.131
			c2.559,3.445,2.559,3.445,0,0c-1.705-0.378-3.402-0.8-5.088-1.277c-13.705-3.887-19.295-10.504-33.535-8.639
			c-6.379,0.835-34.941,22.557-37.82,20.896c-68.084-39.223-85.315-134.869-151.976-173.875
			c-60.896-35.61-138.37-33.347-206.147-26.155c-6.467,0.687-13.561,2.117-21.07,3.929c-4.146,4.066-4.146,4.066,0,0
			c-25.055,6.037-54.77,16.304-81.457,17.334c42.448,58.271,89.441,110.879,150.668,150.984
			c78.23,51.245,165.029,93.034,256.682,113.65c110.356,24.822,227.652,27.047,339.448,10.746
			c146.923-21.424,288.769-105.033,419.958-172.526c100.318-51.615,210.244-86.55,302.549-152.922
			c51.777-37.237,94.07-86.037,130.507-138.015c36.974-52.742,73.399-123.457,113.058-171.981
			C6422.705,5638.947,6377.174,5620.979,6319.336,5581.725z" style="stroke:black;fill:#80cdf8"/><path id="180611582" parent_id="180611567" order="67" structure_id="465" d="M4462.59,5058.043
			c3.785,2.611,7.691,5.462,11.753,8.438C4470.282,5063.505,4466.375,5060.654,4462.59,5058.043
			c6.195,30.943,11.438,54.491,12.734,62.794c7.635,48.874,10.82,93.239,27.701,140.819
			c25.136,70.854,53.166,140.828,62.248,215.806c3.267,26.974,7.65,58.401,1.271,85.101c-2.123,8.888-5.077,16.787-7.918,24.442
			c3.277-3.829,6.208-8.19,8.711-13.129c-2.503,4.938-5.434,9.3-8.711,13.129c-6.111,16.47-11.695,31.799-7.348,53.342
			c10.502,52.034,72.93,106.297,110.162,141.915c36.15,34.594,77.541,61.784,114.09,93.588c-0.848,0.523-1.694,1.061-2.541,1.602
			c29.404-8.903,58.68-18.188,88.237-27.24c33.815-10.354,65.354-26.717,99.912-33.629c-23.354-3.519-48.847-3.459-64.944-9.819
			c-35.686-14.108-68.068-35.222-100.449-55.51c-50.225-31.47-104.914-70.058-135.377-122.396
			c-21.381-36.731-16.023-113.145-8.183-153.16c0.003-0.017,46.938,10.883,51.715,8.459c12.817-6.504,11.351-17.178,12.978-31.397
			c1.879-16.433,6.244-56.256-5.215-70.812c-14.557-18.49-53.959-16.914-73.498-29.614c-25.297-16.446-22.479-43.688-29.078-69.386
			c-6.85-26.674-19.371-52.188-28.055-78.481c-20.458-61.95-35.257-125.753-43.927-190.419
			c-5.198-38.771-20.073-71.855-26.315-109.844c-3.438-20.926-4.768-42.959-11.735-63.127
			c-5.774-16.713-19.362-31.525-24.631-48.068c-8.276,6.686-17.726,13.359-28.142,17.882c-0.471,0.204-1.211,0.552-2.166,1.013
			C4426.271,4860.684,4447.325,4981.811,4462.59,5058.043z" style="stroke:black;fill:#80cdf8"/><path id="180611583" parent_id="180611567" order="68" structure_id="465" d="M5264.484,6061.684
			c-5.186,3.914-10.783,6.313-17.33,5.931c-44.676-2.606-31.863-90.328-48.32-115.993c-55.826-87.02-180.948,47.979-229.016-16.669
			c-10.481,10.058-20.723,23.108-28.873,30.065c-22.527,19.229-58.426,35.92-80.711,57.771c7.512-1.811,14.604-3.242,21.07-3.928
			c67.777-7.19,145.253-9.455,206.148,26.155c66.658,39.006,83.891,134.651,151.976,173.875c2.879,1.658,31.44-20.063,37.819-20.897
			c14.24-1.865,19.83,4.752,33.535,8.639c1.687,0.479,3.383,0.9,5.088,1.277c-18.701-25.182-39.066-44.985-49.537-77.336
			C5258.281,6105.682,5264.657,6084.627,5264.484,6061.684z" style="stroke:black;fill:#80cdf8"/><path id="180611584" parent_id="180611567" order="69" structure_id="465" d="M5441.202,6019.143
			c-11.487,12.761-37.095,40.211-56.215,39.164c-4.671-0.256-8.588-1.746-12.081-3.992c3.777,24.274,13.539,47.867,17.168,72.037
			c4.484,29.881-3.281,49.383-11.225,74.43c6.397-2.893,12.53-6.411,18.262-10.521c38.575-27.676,89.012-48.135,120.118-84.842
			c41.211-48.72,70.952-84.965,133.187-106.145c67.957-23.118,150.146-31.514,221.608-34.904
			c56.041-2.66,96.804,52.638,155.744,39.412c60.217-13.513,32.353-51.961,34.948-94.834c1.794-29.647,21.313-40.601,40.329-61.883
			c23.983-26.838,44.396-57.03,60.118-89.412c34.305-70.619,47.995-55.902,121.893-46.441c17,2.159,58.531,13.961,72.631-0.659
			c41.994-43.549-34.931-94.985-58.617-142.296c-41.836-27.241-75.438-45.91-127.688-84.307
			c-17.12-12.58-39.241-35.51-61.554-50.076c-44.215,78.927,107.72,224.975-17.525,269.74
			c-30.439,10.879-47.427-16.267-77.338-10.476c-64.163,12.424-31.87,84.274-43.025,126.813
			c-13.027,49.674-78.608,32.108-114.443,27.578c-63.889-8.08-128.616,5.383-192.086,15.066
			c-46.354,7.072-90.831,22.659-131.259,46.207C5489.677,5934.707,5474.854,5981.758,5441.202,6019.143z" style="stroke:black;fill:#80cdf8"/><path id="180611581" parent_id="180611567" order="70" structure_id="473" d="M5668.813,5846.75
			c-61.303,6.857-154.354,16.264-248.395,23.355c-83.438,6.291-191.452-7.379-289.973-46.604
			c-78.478-31.249-159.5-61.035-215.133-95.823c-106.388-66.521-157.312-139.223-182.275-190.361
			c-16.034-32.84,15.716-51.912,27.764-67.764c23.217-30.546,72.912,0.729,34.68-75.958c-17.417-34.938-51.15-89.413-62.516-121.013
			c-27.603-76.785-42.529-116.189-81.805-184.47c-42.234-73.437-117.995-151.929-134.834-235.099
			c-6.329-31.287,0.234-76.875-7.826-83.004c-5.391-4.105-17.328,9.469-34.074,22.996c5.268,16.543,18.855,31.355,24.631,48.067
			c6.969,20.168,8.298,42.201,11.736,63.127c6.242,37.987,21.117,71.073,26.314,109.845c8.67,64.666,23.469,128.469,43.927,190.418
			c8.683,26.295,21.205,51.81,28.056,78.481c6.6,25.696,3.779,52.938,29.078,69.386c19.537,12.701,58.94,11.125,73.498,29.614
			c11.459,14.556,7.094,54.38,5.213,70.812c-1.627,14.222-0.158,24.896-12.977,31.398c-4.777,2.424-51.712-8.477-51.715-8.46
			c-7.842,40.017-13.199,116.429,8.182,153.161c30.465,52.338,85.153,90.926,135.379,122.395
			c32.379,20.289,64.764,41.4,100.449,55.51c16.098,6.36,41.59,6.303,64.943,9.82c7.587-1.518,7.587-1.518,0,0
			c22.973,3.461,43.876,10.383,51.73,30.286c10.567,26.774-46.408,83.021-46.393,83.058c1.066,1.795,2.18,3.469,3.338,5.025
			c6.932-6.65,6.932-6.65,0,0c48.066,64.646,173.189-70.352,229.016,16.669c16.457,25.665,3.646,113.388,48.321,115.993
			c6.546,0.382,12.146-2.016,17.329-5.93c-0.035-4.61-0.035-4.61,0,0c18.887-14.256,32.252-48.67,65.678-42.484
			c21.394,3.986,28.487,25.945,42.744,35.113c-1.117-7.174-1.117-7.174,0,0c3.494,2.248,7.41,3.736,12.082,3.992
			c19.119,1.049,44.728-26.402,56.215-39.164c19.315-21.459,33.258-47.092,49.312-71.062l15.082-16.366
			c8.17-8.639,17.437-16.436,28.554-22.911c40.429-23.548,84.906-39.135,131.26-46.207c57.526-8.776,116.088-20.658,174.119-16.791
			l14.39,0.979c51.192,9.851,106.463,17.232,118.021-26.834c11.156-42.539-21.137-114.391,43.026-126.813
			c29.911-5.791,46.897,21.354,77.338,10.476c125.245-44.767-26.688-190.813,17.526-269.74
			c-24.474-15.978-49.176-21.888-67.758,7.002c-19.621,30.489-20.451,111.17-32.979,149.668
			c-16.849,51.795-52.519,98.316-91.875,150.742c-32.799,43.699-129.147,89.318-180.894,97.229
			c-3.893,0.595-10.525,1.483-19.465,2.603L5668.813,5846.75z" style="stroke:black;fill:#80cdf8"/><path id="180611575" parent_id="180611567" order="71" structure_id="258" d="M4307.848,4190.88
			c-2.252,59.128-7.775,122.767-12.363,183.024c-6.477,85.276-19.238,172.172-8.843,257.66
			c9.103,74.813,54.853,213.295,54.853,213.295c85.27-48.558,156.881-76.049,199.652-169.461
			c28.927-63.146,78.436-149.802,99.984-214.97c35.387-107.009,71.398-239.608,131.686-334.624
			c14.586-22.988,113.375-138.177,148.907-171.013c13.976-12.914,78.574-70.216,62.476-74.813
			c-11.836-3.376-73.555,4.209-87.537,3.498c-54.17-2.763-108.111-8.871-162.33-11.36c-32.117-1.473-82.193-9.989-111.983,7.099
			c-28.438,16.325-50.794,90.056-73.597,130.282c-26.479,46.7-61.719,73.94-112.063,77.657
			c-49.306,3.646-72.944-1.948-126.634-30.591L4307.848,4190.88z" style="stroke:black;fill:#90cbed"/><path id="180611573" parent_id="180611567" order="72" structure_id="342" d="M5830.564,5448.262
			c-53.551,37.533-148.646,179.754-305.201,186.225c-123.348,5.098-303.053-17.227-439.717-54.462
			c-75.621-20.604-148.955-44.375-192.867-74.124c-58.726-39.775-72.912-54.91-117.734-27.459
			c-22.501,13.775-36.322,62.625,2.141,102.197c42.097,43.306,115.276,111.047,222.885,164.896
			c79.875,39.967,150.014,73.263,234.103,90.301c53.688,10.876,119.144,12.897,176.646,13.06
			c116.694,0.33,288.582-26.941,374.975-50.153c61.066-16.399,98.992-57.028,130.709-92.912
			c52.877-59.79,71.578-123.88,76.288-140.856c13.252-47.813,35.785-171.6,5.694-201.935
			C5983.223,5347.648,5887.42,5408.408,5830.564,5448.262z" style="stroke:black;fill:#a2b1d8"/><path id="180611643" parent_id="180611567" order="73" structure_id="1009" d="M6904.227,5283.025
			c0.537-2.744,0.545-5.526-0.153-8.244c-4.972-19.067-38.056-17.07-52.241-13.873c-18.003,4.056-37.534,14.102-52.803,24.416
			c-86.44,58.416-174.207,119.467-258.19,181.592c-13.022,9.637-25.405,21.574-37.028,32.873
			c-7.11,6.92-14.685,14.614-17.092,24.584c-4.791,19.865,7.605,47.121,25.146,57.021c6.133,3.458,13.03,4.946,20.011,5.296
			c12.357,0.613,20.801,1.867,29.506-8.395c9.785-11.549,20.256-23.063,31.408-33.391c17.711-16.4,49.264-39.548,71.037-53.492
			c36.74-25.813,78.472-54.225,97.269-68.577c5.356-4.425,10.056-8.453,13.722-11.8c19.114-17.688,38.035-35.537,57.043-53.355
			c9.988-9.373,18.912-17.725,24.742-23.092c0.076-0.069,0.153-0.14,0.229-0.209c10.487-9.724,21.049-19.403,31.72-29.017
			c0.018-0.019,0.035-0.034,0.053-0.052C6894.303,5299.63,6902.494,5291.982,6904.227,5283.025z" style="stroke:black;fill:#cccccc"/><path id="180611644" parent_id="180611567" order="74" structure_id="1009" d="M5614.359,4434.032
			c68.795,64.383,119.865,186.233,134.842,247.045c5.693,23.079,1.888,40.914-6.094,53.047
			c-45.529,69.146-277.307-21.532-318.582-67.345c-70.365-78.117-30.938-238.535,76.385-270.521
			C5541.284,4384.229,5579.941,4401.835,5614.359,4434.032z" style="stroke:black;fill:#cccccc"/><path id="180611645" parent_id="180611567" order="75" structure_id="1009" d="M5142.984,2621.792
			c24.309-42.411,53.467-80.884,88.189-112.307c10.453-9.518,21.384-18.434,32.948-26.49c24.426-17.315,51.31-31.367,80.87-41.315
			c25.257-8.612,52.479-14.149,81.738-16.272c136.756-9.733,286.477,65.894,396.72,140.583
			c40.212,27.309,78.562,57.546,113.963,90.672c64.377,60.001,119.065,129.132,158.544,205.762c2.02,3.829,3.956,7.655,5.807,11.562
			c-0.08-0.086-0.164-0.089-0.244-0.177c2.479,4.931,4.873,9.857,7.106,14.612c1.155,2.462,2.313,4.841,3.308,7.213
			c4.826,11.023,9.4,22.12,13.715,33.457c0.979,2.706,1.957,5.494,2.936,8.199c17.745,52.202,23.504,101.774,27.348,166.444
			c4.47,76.531,4.586,147.061-13.51,190.461c-0.819,1.802-1.554,3.523-2.369,5.244c-1.266,2.535-2.529,5.07-3.871,7.437
			c-4.024,7.097-8.438,13.429-13.246,19.246c-1.576,1.94-3.23,3.793-4.967,5.562c-18.679,19.621-42.088,32.223-66.734,48.778
			c-11.889,7.795-23.318,16.691-34.117,26.528c-0.256,0.157-0.434,0.4-0.605,0.561c-1.379,1.196-2.763,2.478-3.979,3.765
			c-1.207,1.037-2.334,2.161-3.544,3.28c-16.617,15.865-31.384,33.47-44.53,52.303c-0.183,0.41-0.449,0.815-0.795,1.136
			c-31.838,45.289-56.289,97.865-71.82,148.284c-10.382,33.611-20.913,131.656-23.193,151.908
			c-3.674,32.619-5.191,65.488-1.652,96.97c0.021,14.59,0.225,28.769,0.693,42.542c0.91,28.295,1.398,52.404,1.727,80.678
			c-7.577-8.879-12.35-19.148-18.645-28.896c-6.684-10.428-13.367-20.854-20.735-30.81
			c-51.097-69.325-109.513-128.263-184.972-171.103c-119.832-68.141-258.422-69.229-389.315-101.283
			c-22.298-5.444-46.913-9.146-68.257-17.721c-4.514-1.841-9.675-2.039-14.282-3.635c16.129-26.971,35.519-49.897,36.81-83.359
			c1.619-44.203-29.184-71.232-51.643-104.942c-22.219-33.451-30.117-68.601-49.732-102.535c-3.625,5.362-5.783,13.782-9.117,20.239
			c-34.91,68.762-91.088,126.951-137.932,187.333c-50.701,65.318-97.811,182.377-171.047,215.983
			c-20.029-55.625,53.573-120.395,79.992-163.475c9.247-14.982,17.846-30.406,25.785-46.105
			c35.802-68.062,56.006-140.224,57.175-144.597c0.089-0.164,0.093-0.247,0.093-0.247s0.1-0.413,0.294-1.156
			c0.004-0.082,0.004-0.082,0.09-0.162c15.983-53.486,28.204-108.868,38.188-164.586c0.103-0.496,0.201-0.908,0.305-1.404
			c18.65-103.234,30.102-207.829,46.111-305.328C5055.368,2838.158,5086.617,2719.488,5142.984,2621.792z" style="stroke:black;fill:#cccccc"/><path id="180611642" parent_id="180611567" order="76" structure_id="81" d="M5158.152,3652.354
			c30.676-34.752,59.912-77.203,49.517-127.707c-8.167-39.49-38.12-60.168-58.237-92.888
			c-17.033-27.683-24.078-61.519-41.268-88.091c-21.184,58.265-45.042,92.659-53.616,155
			c-17.978,130.913-34.183,257.021-43.871,389.778c49.354-75.039,76.231-158.534,138.138-225.757
			C5151.904,3659.325,5155.037,3655.88,5158.152,3652.354z" style="stroke:black;fill:#aaaaaa"/></g>
</g>
</svg>