<svg width="5184" height="4544" xmlns="http://www.w3.org/2000/svg">
<g transform="scale(1.0)">
<g id="180608952" order="1" parent_id="" graphic_group_label_id="28" graphic_group_label="Atlas - Adult Mouse" sub_image_id="100960464" transform=" scale(1.0, 1.0)"><path id="180608954" parent_id="180608952" order="0" structure_id="8" d="M4578.273,1839.321
			c89.411,264.389,80.081,567.506-35.203,817.342c-50.978,110.468-80.979,200.689-106.422,317.824
			c-26.593,122.503-66.811,244.444-138.501,348.348c-204.939,296.979-676.524,961.691-1119.903,754.04
			c-330.422-154.752-727.263-436.776-741.262-841.267c-7.502-216.644,53.883-414.194,77.139-626.102
			c41.31-376.401,139.561-745.44,255.395-1105.174c43.783-135.981,100.415-270.793,178.365-390.918
			c94.509-145.639,268.637-169.001,430.474-166.301c121.647,2.029,250.58,45.788,364.853,83.899
			c143.287,47.788,278.924,116.86,397.555,210.741C4344.855,1403.254,4493.787,1589.5,4578.273,1839.321z" style="stroke:black;fill:#bfdae3"/><path id="180608955" parent_id="180608952" order="1" structure_id="688" d="M4578.271,1839.292
			c-84.484-249.809-233.417-436.053-437.509-597.55c-118.633-93.875-254.264-162.948-397.552-210.734
			c-114.278-38.11-243.208-81.868-364.856-83.898c-161.83-2.701-335.963,20.665-430.468,166.302
			c-77.955,120.122-134.584,254.928-178.366,390.898c-115.831,359.726-214.086,728.75-255.392,1105.144
			c-23.256,211.902-84.641,409.452-77.139,626.089c13.998,404.476,410.839,686.495,741.252,841.239
			c443.377,207.649,914.964-457.045,1119.903-754.015c71.688-103.901,111.908-225.839,138.499-348.339
			c25.445-117.131,55.444-207.351,106.426-317.814C4658.353,2406.784,4667.685,2103.675,4578.271,1839.292z M3626.211,2154.537
			c-11.252,56.933-57.028,106.619-81.093,158.891c-30.945,67.176-41.219,139.978-65.766,209.201
			c-4.879,13.753-52.698,250.965-73.845,229.969c-22.259-22.107,48.178-247.278,54.152-264.182
			c23.264-65.864,31.736-135.489,42.459-204.146c6.529-41.818,9.61-89.239,9.806-133.847c0.057-12.424-0.115-24.632-0.489-36.436
			c-0.752-22.998-25.456-163.598,7.981-171.413c24.752-5.794,45.966,52.443,54.161,68.749c16.188,32.207,48.04,60.508,53.94,97.336
			C3629.758,2122.64,3628.988,2140.478,3626.211,2154.537z" style="stroke:black;fill:#b0ffb8"/><path id="180608956" parent_id="180608952" order="2" structure_id="698" d="M4578.271,1839.292
			c-84.484-249.809-233.417-436.053-437.509-597.55c-118.633-93.875-254.264-162.948-397.552-210.734
			c-114.278-38.11-243.208-81.868-364.856-83.898c-161.83-2.701-335.963,20.665-430.468,166.302
			c-77.955,120.122-134.584,254.928-178.366,390.898c-115.831,359.726-214.086,728.75-255.392,1105.144
			c-23.256,211.902-84.641,409.452-77.139,626.089c13.998,404.476,410.839,686.495,741.252,841.239
			c443.377,207.649,914.964-457.045,1119.903-754.015c71.688-103.901,111.908-225.839,138.499-348.339
			c25.445-117.131,55.444-207.351,106.426-317.814C4658.353,2406.784,4667.685,2103.675,4578.271,1839.292z M3626.211,2154.537
			c-11.252,56.933-57.028,106.619-81.093,158.891c-30.945,67.176-41.219,139.978-65.766,209.201
			c-4.879,13.753-52.698,250.965-73.845,229.969c-22.259-22.107,48.178-247.278,54.152-264.182
			c23.264-65.864,31.736-135.489,42.459-204.146c6.529-41.818,9.61-89.239,9.806-133.847c0.057-12.424-0.115-24.632-0.489-36.436
			c-0.752-22.998-25.456-163.598,7.981-171.413c24.752-5.794,45.966,52.443,54.161,68.749c16.188,32.207,48.04,60.508,53.94,97.336
			C3629.758,2122.64,3628.988,2140.478,3626.211,2154.537z" style="stroke:black;fill:#9ad2bd"/><path id="180608957" parent_id="180608952" order="3" structure_id="507" d="M4578.279,1839.292
			c-84.492-249.809-233.425-436.053-437.517-597.546c-118.633-93.879-254.264-162.948-397.552-210.734
			c-114.271-38.11-243.208-81.868-364.856-83.895c-161.83-2.7-335.963,20.665-430.468,166.302
			c-77.947,120.122-134.584,254.929-178.357,390.899c-115.831,359.729-214.085,728.753-255.393,1105.148
			c-23.256,211.902-84.64,409.452-77.131,626.09c13.997,404.479,410.838,686.49,741.261,841.235
			c443.377,207.645,914.953-457.05,1119.895-754.023c71.689-103.901,111.91-225.839,138.5-348.339
			c25.437-117.131,55.443-207.351,106.416-317.818C4658.36,2406.78,4667.692,2103.675,4578.279,1839.292z M3626.211,2154.537
			c-11.252,56.933-57.028,106.619-81.093,158.891c-30.945,67.176-41.219,139.978-65.766,209.201
			c-4.879,13.753-52.698,250.965-73.845,229.969c-22.259-22.107,48.178-247.278,54.152-264.182
			c23.264-65.864,31.736-135.489,42.459-204.146c6.529-41.818,9.61-89.239,9.806-133.847c0.057-12.424-0.115-24.632-0.489-36.436
			c-0.752-22.998-25.456-163.598,7.981-171.413c24.752-5.794,45.966,52.443,54.161,68.749c16.188,32.207,48.04,60.508,53.94,97.336
			C3629.758,2122.64,3628.988,2140.478,3626.211,2154.537z M3974.587,1796.582c-4.78,20.856-12.634,44.137-26.582,60.822
			c-13.214,15.816-30.079,18.831-47.991,28.734c-56.555,31.292-105.813,66.22-166.16,91.4c-25.347,10.578-54.879,15.13-81.551,9.745
			c-19.612-3.951-37.661-13.262-51.382-29.499c-27.898-32.975-66.762-100.212-64.661-143.729
			c3.138-65.301,9.602-129.609,17.625-202.415c9.995-90.571,64.131-169.494,162.132-192.896
			c96.823-23.129,234.865,20.907,272.241,120.883C4016.769,1615.938,3992.229,1719.795,3974.587,1796.582z" style="stroke:black;fill:#9ad2bd"/><path id="180608958" parent_id="180608952" order="4" structure_id="212" d="
			M4027.718,1162.696c12.896,8.503,15.468,31.672,20.746,44.938c23.437,58.83,71.46,108.405,122.026,145.016
			c16.359,11.849,37.245,20.465,52.224,33.772c15.574,13.83,24.474,35.868,35.767,53.064c24.482,37.253,56.425,66.29,83.504,101.182
			c30.153,38.867,53.092,83.947,70.757,129.678c12.626,32.689,20.667,66.923,32.205,99.993
			c10.157,29.102,28.656,54.531,39.746,83.294c4.895,12.682,2.303,23.427,1.643,36.979c-0.858,17.331,0.4,34.74,5.066,51.502
			c7.574,27.2,6.707,51.386-2.55,77.048c-11.497,31.88-7.412,69.791-5.916,102.889c0.646,14.181,4.166,26.802,2.426,41.473
			c-4.053,34.205-28.313,59.426-44.093,88.524c-16.996,31.341-25.217,66.335-34.443,100.506
			c-7.894,29.221-32.865,54.131-50.017,78.314c-19.072,26.888-37.825,54.062-59.023,79.349
			c-28.788,34.343-70.332,33.688-105.542,54.719c-53.98,32.234-77.613,111.043-111.705,161.333
			c-21.883,32.276-40.71,66.567-56.562,102.187c-10.747,24.142-20.651,49.322-33.839,72.177
			c-16.222,28.094-31.593,56.537-42.632,87.135c-21.148,58.601-16.587,121.266-9.266,181.963
			c7.509,62.351,12.689,123.093,9.201,185.99c-6.881,123.984-47.036,239.869-133.481,330.783
			c-66.264,69.681-136.76,151.019-230.592,182.788c-36.037,12.2-76.779,7.301-111.368,23.223
			c-26.633,12.265-58.075,21.063-87.02,25.367c-36.321,5.413-71.771-0.837-105.608-14.395
			c-29.074-11.646-43.063-43.527-60.339-67.415c-20.853-28.837-44.574-55.423-67.21-82.839
			c-28.593-34.616-53.262-71.787-78.985-108.518c-13.286-18.978-18.859-46.099-27.178-68.112
			c-20.805-55.114-41.831-109.523-69.81-161.492c-53.213-98.846-126.331-187.286-141.979-301.918
			c-12.233-89.651-22.161-177.611-9.455-267.839c7.42-52.659,12.332-97.263,35.522-144.556
			c23.591-48.079,8.374-98.824,13.131-151.723c2.346-26.067,5.181-52.082,8.285-78.065c2.706-22.823,11.27-51.182,7.985-74.028
			c-2.738-18.993-11.286-37.29-13.852-56.843c-3.081-23.513-2.681-48.66,10.559-69.253c20.64-32.096,31.458-72.271,22.929-110.324
			c-6.783-30.336-23.061-63.242-18.297-95.069c5.435-36.301,26.655-68.684,29.32-105.479
			c10.353-143.083,31.991-284.851,72.227-422.796c8.948-30.687,16-61.856,23.224-92.993c6.692-28.853,14.146-57.742,23.06-86.007
			c32.638-103.514,87.216-181.77,173.759-247.08c44.821-33.813,87.361-69.922,131.61-104.396
			c14.014-10.913,32.065-15.93,49.92-17.907c33.323-3.689,66.908-6.239,100.453-4.752c16.088,0.715,30.642,2.255,46.585,0.682
			c13.378-1.332,33.919-6.112,46.961-2.725c-44.96-11.656-76.306-18.401-116.067-23.904l-93.375-11.02
			c-161.837-2.697-335.963,20.669-430.468,166.306c-78.528,121.013-131.217,276.451-158.247,417.676
			c-47.853,249.973-76.47,501.223-131.693,750.375c-88.236,398.133-119.965,789.642,64.515,1167.731
			c87.761,179.879,210.898,344.404,357.746,480.343c145.609,134.792,325.046,203.022,514.584,108.849
			c116.706-57.987,215.59-129.416,307.731-221.985c66.613-66.919,128.553-137.841,188.279-210.926
			c62.365-76.332,66.271-156.692,73.209-252.122c7.787-107.088,20.272-219.325,53.171-321.924
			c51.881-161.76,163.055-281.347,272.92-405.979c93-105.509,138.254-213.504,146.147-352.723
			c8.294-146.532-10.917-294.298-57.97-433.447c-84.492-249.809-233.425-436.053-437.517-597.546
			C4140.763,1241.746,4089.404,1203.381,4027.718,1162.696z" style="stroke:black;fill:#82c7ae"/><path id="180608962" parent_id="180608952" order="5" structure_id="220" d="M3577.599,3574.496
			c55.502-48.256,80.931-119.89,92.158-190.67c43.465-273.975-88.088-591.642,94.691-833.626
			c40.783-54.001,96.815-102.968,150.158-144.244c41.521-32.127,87.379-65.95,132.225-102.447
			c121.674-99.025,246.599-220.385,233.401-392.836c-5.016-65.586-30.806-124.845-62.683-180.725
			c-35.497-62.216-60.43-129.249-99.128-190.419c-71.052-112.331-171.35-212.492-286.438-279.623
			c-38.113-22.233-81.693-39.477-127.351-50.216c-84.213-19.806-175.501-17.463-252.639,16.665
			c-134.642,59.573-211.978,231.636-234.856,368.975c-8.882,53.354-10.738,108.291-11.058,162.298
			c-0.511,88.399,25.986,174.769,30.826,261.5c0.057,1.015,0.128,2.029,0.179,3.043c0.036,0.733,0.056,1.466,0.089,2.199
			c0.104,2.293,0.208,4.586,0.28,6.88c0.056,1.784,0.08,3.568,0.115,5.352c0.024,1.244,0.065,2.486,0.079,3.73
			c0.033,2.87,0.032,5.741,0.008,8.613c-0.002,0.158,0.002,0.315,0,0.473v0c0,0.001,0,0.002,0,0.003
			c-1.038,105.227,11.31,205.059-9.504,309.925c-16.245,81.823-29.875,163.038-53.768,243.174
			c-38.178,128.122-74.026,247.525-66.95,383.047c6.799,130.153,42.427,259.349,104.915,374.04
			c29.965,55.015,54.585,111.216,95.295,159.75c42.415,50.56,101.725,90.363,162.457,93.791c0.89,0.051,1.78,0.076,2.67,0.111
			c0.624,0.023,1.248,0.061,1.872,0.077C3509.602,3614.252,3544.899,3602.929,3577.599,3574.496z M3395.727,3059.778
			c-38.446,4.363-19.849-85.276-17.12-102.737c9.749-62.285-4.951-124.682,24.393-184.133l2.525-20.306
			c-22.268-22.112,48.17-247.279,54.151-264.187c23.257-65.864,31.729-135.483,42.451-204.143
			c6.529-41.821,9.61-89.243,9.807-133.847c0.057-12.424-0.115-24.636-0.49-36.436c-0.752-22.999-25.455-163.602,7.982-171.417
			l25.234,11.509c-36.642-33.028-62.699-47.667-75.13-100.744c-8.694-37.134-3.938-71.649,5.14-107.824
			c10.779-43.018,38.228-117.356,82.614-151.336l1.006-9.679c17.013-78.861,69.662-144.722,157.727-165.755
			c96.823-23.129,234.865,20.907,272.241,120.883c10.409,27.851,13.744,59.388,12.935,91.927l2.518,1.136
			c79.002,72.847,149.253,168.394,111.753,201.566c-20.518-8.352-27.121-25.311-40.71-44.232
			c-25.144-34.99-49.423-74.109-77.619-108.612c-5.272,40.553-14.603,80.608-22.547,115.17
			c-4.78,20.856-12.634,44.137-26.582,60.822c-13.214,15.816-30.079,18.831-47.991,28.734l-36.73,23.693
			c18.123-9.389,66.63-40.648,88.931-29.457c46.438,23.312-99.809,158.065-115.136,174.408
			c-128.44,137.016-224.538,289.223-284.802,467.908c-21.377,63.423-48.295,124.915-67.514,189.057
			c-8.531,28.448-20.903,58.608-21.385,88.249c-0.605,36.6,5.581,73.611,13.941,109.12c7.99,33.942,8.057,68.675-14.382,97.413
			C3451.316,3021.41,3415.035,3057.584,3395.727,3059.778z" style="stroke:black;fill:#82c7ae"/><path id="180608961" parent_id="180608952" order="6" structure_id="228" d="M3620.532,1150.366
			c-42.885,2.056-85.899-2.627-127.998,10.418c-105.626,32.727-188.663,121.863-243.005,214.963
			c-48.833,83.67-77.866,180.654-89.199,276.659c-12.617,106.799,7.411,227.171,27.676,331.726
			c34.819,179.764,11.032,375.792-36.468,549.97c-36.479,133.784-91.947,272.63-91.751,412.978
			c0.14,96.723,8.54,216.107,43.008,307.031c11.529,30.443,32.114,56.131,47.018,84.679
			c62.397,119.485,76.731,273.54,227.928,315.376c73.691,20.388,168.479,19.599,230.412-29.69
			c57.772-45.976,93.972-140.415,103.908-211.864c11.611-83.539-14.251-161.98-14.798-244.099
			c-0.613-91.701-4.331-183.36-3.743-275.069c0.449-72.803,25.129-184.15,66.557-244.783
			c71.558-104.729,161.862-173.611,260.271-251.853c180.189-143.288,384.91-344.87,285.226-600.387
			c-42.771-109.63-107.185-209.765-176.545-304.307c-63.737-86.89-128.89-182.42-220.229-242.831
			c-24.645-16.286-89.734-46.944-94.631-80.45C3785.714,1178.014,3649.181,1149.001,3620.532,1150.366z M3831.984,1259.902
			c115.089,67.131,215.386,167.292,286.445,279.623c38.691,61.17,63.63,128.204,99.128,190.419
			c31.877,55.879,57.659,115.138,62.685,180.725c13.196,172.452-111.729,293.812-233.402,392.836
			c-44.847,36.496-90.705,70.321-132.223,102.446c-53.344,41.282-109.367,90.248-150.16,144.249
			c-182.772,241.988-51.219,559.652-94.684,833.626c-11.228,70.781-36.657,142.415-92.157,190.67
			c-32.704,28.438-68.009,39.76-102.972,38.841c-0.624-0.017-1.248-0.054-1.872-0.077c-0.89-0.035-1.78-0.061-2.67-0.111
			c-60.737-3.421-120.055-43.229-162.474-93.796c-40.71-48.533-65.331-104.734-95.295-159.75
			c-62.487-114.69-98.115-243.886-104.914-374.039c-7.076-135.521,28.771-254.925,66.956-383.048
			c23.894-80.136,37.524-161.352,53.769-243.174c20.813-104.866,8.467-204.699,9.513-309.924c0.002-0.158-0.002-0.315,0-0.474
			c0.024-2.872,0.025-5.743-0.008-8.613c-0.014-1.244-0.055-2.486-0.079-3.73c-0.035-1.784-0.06-3.568-0.115-5.352
			c-0.072-2.293-0.176-4.587-0.28-6.88c-0.033-0.733-0.053-1.466-0.089-2.199c-0.051-1.014-0.122-2.028-0.179-3.043
			c-4.841-86.732-31.346-173.104-30.833-261.504c0.326-54.008,2.173-108.944,11.064-162.299
			c22.879-137.339,100.215-309.398,234.856-368.971c77.138-34.131,168.426-36.473,252.639-16.665
			C3750.291,1220.428,3793.871,1237.67,3831.984,1259.902z" style="stroke:black;fill:#9ad2bd"/><path id="180608960" parent_id="180608952" order="7" structure_id="236" d="M4001.38,1281.372
			c-34.017-33.805-136.517-111.946-187.213-112.539c4.896,33.506,69.986,64.165,94.631,80.45
			c91.34,60.41,156.492,155.941,220.229,242.831c69.36,94.542,133.774,194.677,176.545,304.307
			c99.685,255.517-105.036,457.099-285.226,600.387c-98.408,78.241-188.713,147.124-260.271,251.853
			c-41.428,60.633-66.107,171.98-66.557,244.783c-0.588,91.709,3.13,183.368,3.743,275.069
			c0.547,82.118,26.409,160.56,14.798,244.099c-9.937,71.449-46.136,165.889-103.908,211.864
			c-61.933,49.289-156.721,50.078-230.412,29.69c-151.196-41.836-165.53-195.891-227.928-315.376
			c-14.903-28.548-35.488-54.235-47.018-84.679c-34.468-90.924-42.868-210.309-43.008-307.031
			c-0.196-140.348,55.272-279.193,91.751-412.978c47.5-174.179,71.287-370.206,36.468-549.97
			c-20.265-104.555-40.293-224.927-27.676-331.726c11.333-96.005,40.366-192.989,89.199-276.659
			c54.342-93.1,137.379-182.236,243.005-214.963c42.099-13.045,85.113-8.363,127.998-10.418
			c28.648-1.365,165.182,27.648,193.635,18.468c-26.695-52.223-211.294-65.547-261.573-59.431
			c-255.621,31.055-384.984,281.134-424.484,509.211c-18.827,108.715-8.596,223.828,8.728,332.246
			c23.085,144.533,37.352,286.694,18.206,432.175c-19.048,144.808-92.217,284.833-124.419,428.401
			c-28.258,126.013-20.151,251.611,14.422,375.908c19.064,68.492,47.093,133.92,82.345,195.659
			c39.697,69.55,53.85,151.307,97.388,218.867c51.414,79.781,137.224,112.245,230.641,106.068
			c71.582-4.74,118.069-16.199,176.929-57.532c76.552-53.741,114.051-166.156,119.092-255.978
			c14.767-263.394-110.608-552.396,89.91-779.886c81.062-91.95,185.403-152.548,277.244-231.517
			c52.615-45.248,107.494-95.906,146.399-153.849c39.231-58.433,73.306-124.789,90.286-193.333
			c49.61-200.271-53.522-370.11-167.531-522.514C4129.445,1435.376,4070.527,1350.081,4001.38,1281.372z" style="stroke:black;fill:#82c7ae"/><path id="180608959" parent_id="180608952" order="8" structure_id="244" d="M4491.393,1942.124
			c-4.666-16.764-5.924-34.172-5.067-51.504c0.67-13.552,3.254-24.297-1.634-36.983c-11.097-28.763-29.588-54.192-39.754-83.294
			c-11.538-33.065-19.57-67.303-32.196-99.989c-17.675-45.734-40.604-90.815-70.757-129.682
			c-27.08-34.892-59.022-63.928-83.504-101.181c-11.301-17.197-20.192-39.235-35.767-53.061
			c-14.987-13.312-35.864-21.928-52.232-33.776c-50.558-36.611-98.581-86.187-122.018-145.016
			c-5.278-13.266-7.851-36.436-20.738-44.942c61.679,40.685,113.037,79.054,113.037,79.054
			c-118.634-93.88-254.265-162.952-397.552-210.738c-114.271-38.111-243.2-81.868-364.85-83.895l93.368,11.015
			c39.762,5.507,71.107,12.249,116.067,23.905c-13.042-3.383-33.584,1.397-46.961,2.725c-15.943,1.573-30.497,0.033-46.585-0.682
			c-33.545-1.487-67.122,1.063-100.453,4.756c-17.854,1.974-35.906,6.995-49.912,17.903
			c-44.247,34.479-86.797,70.584-131.618,104.397c-86.544,65.309-141.122,143.565-173.759,247.079
			c-8.915,28.261-16.367,57.155-23.06,86.008c-7.224,31.132-14.275,62.302-23.23,92.993
			c-40.237,137.94-61.875,279.708-72.229,422.796c-2.664,36.796-23.877,69.174-29.32,105.475
			c-4.763,31.827,11.515,64.737,18.306,95.069c8.521,38.058-2.298,78.229-22.938,110.329
			c-13.237,20.586-13.638,45.735-10.558,69.248c2.565,19.558,11.114,37.849,13.851,56.843c3.285,22.849-5.279,51.209-7.983,74.032
			c-3.105,25.984-5.94,51.999-8.285,78.066c-4.757,52.895,10.451,103.639-13.132,151.719
			c-23.199,47.296-28.109,91.895-35.529,144.555c-12.706,90.228-2.779,178.188,9.454,267.84
			c15.648,114.631,88.758,203.076,141.98,301.917c27.979,51.969,49.003,106.383,69.808,161.492
			c8.319,22.018,13.892,49.135,27.179,68.112c25.725,36.734,50.395,73.905,78.986,108.52c22.635,27.418,46.348,54.005,67.202,82.842
			c17.283,23.887,31.263,55.767,60.338,67.415c33.839,13.557,69.286,19.808,105.607,14.398
			c28.944-4.311,60.397-13.107,87.019-25.367c34.591-15.926,75.334-11.023,111.37-23.223
			c93.842-31.77,164.329-113.107,230.592-182.789c86.454-90.912,126.608-206.794,133.48-330.777
			c3.497-62.903-1.683-123.646-9.192-185.996c-7.322-60.691-11.882-123.362,9.267-181.963c11.047-30.597,26.41-59.035,42.631-87.129
			c13.196-22.855,23.092-48.035,33.837-72.182c15.854-35.619,34.681-69.904,56.572-102.188
			c34.091-50.285,57.715-129.093,111.703-161.329c35.211-21.028,76.747-20.372,105.545-54.72
			c21.195-25.286,39.941-52.454,59.021-79.343c17.152-24.188,42.124-49.097,50.018-78.317
			c9.227-34.172,17.446-69.161,34.442-100.507c15.78-29.094,40.041-54.319,44.094-88.52c1.74-14.676-1.781-27.292-2.427-41.474
			c-1.487-33.102-5.58-71.013,5.925-102.889C4498.108,1993.509,4498.969,1969.322,4491.393,1942.124z M4355.279,2035.845
			c-16.98,68.544-51.055,134.9-90.286,193.333c-38.905,57.942-93.784,108.601-146.399,153.849
			c-91.841,78.969-196.183,139.566-277.244,231.517c-200.519,227.489-75.144,516.492-89.91,779.886
			c-5.041,89.821-42.54,202.236-119.092,255.978c-58.859,41.333-105.347,52.792-176.929,57.532
			c-93.417,6.177-179.227-26.287-230.641-106.068c-43.538-67.561-57.69-149.317-97.388-218.867
			c-35.252-61.739-63.28-127.167-82.345-195.659c-34.573-124.297-42.68-249.896-14.422-375.908
			c32.202-143.568,105.371-283.594,124.419-428.401c19.146-145.481,4.879-287.642-18.206-432.175
			c-17.323-108.417-27.555-223.53-8.728-332.246c39.5-228.077,168.863-478.156,424.484-509.211
			c50.279-6.116,234.878,7.208,261.573,59.431c50.696,0.593,153.196,78.734,187.213,112.539
			c69.147,68.708,128.065,154.004,186.368,231.958C4301.757,1665.734,4404.89,1835.574,4355.279,2035.845z" style="stroke:black;fill:#9ad2bd"/><path id="180608963" parent_id="180608952" order="9" structure_id="151" d="M3716.017,1418.744
			c-98.001,23.402-152.137,102.325-162.132,192.896c-8.023,72.806-14.487,137.114-17.625,202.415
			c-2.101,43.517,36.763,110.754,64.661,143.729c13.721,16.237,31.77,25.548,51.382,29.499c26.672,5.385,56.204,0.833,81.551-9.745
			c60.347-25.18,109.605-60.108,166.16-91.4c17.912-9.903,34.777-12.918,47.991-28.734c13.948-16.685,21.802-39.966,26.582-60.822
			c17.642-76.786,42.182-180.643,13.671-256.955C3950.882,1439.651,3812.84,1395.615,3716.017,1418.744z" style="stroke:black;fill:#9df0d2"/><path id="180608964" parent_id="180608952" order="10" structure_id="196" d="M3652.303,1987.283
			c-19.612-3.951-37.661-13.262-51.382-29.499c-27.898-32.975-66.754-100.205-64.67-143.72c1.455-30.234-2.94-69.935,16.27-96.046
			c36.969-50.232,87.075,19.15,112.072,45.584c36.698,38.79,95.198,59.295,147.945,50.597c35.383-5.838,100.01-32.015,127.238,6.304
			c21.58,30.373-31.722,59.528-51.734,71.789c-49.952,30.598-99.961,62.621-154.188,85.247
			C3708.507,1988.117,3678.975,1992.668,3652.303,1987.283z" style="stroke:black;fill:#95e4c8"/><path id="180608966" parent_id="180608952" order="11" structure_id="1009" d="M4621.872,2012.579
			c14.527,85.784,19.292,173.191,14.369,260.163c-7.895,139.224-53.156,247.216-146.157,352.727
			c-109.864,124.629-221.038,244.216-272.919,405.976c-32.898,102.594-45.384,214.836-53.173,321.923
			c-6.765,92.959-10.647,171.617-68.493,246.178c81.5-102.427,150.653-201.434,202.646-276.774
			c71.688-103.901,111.908-225.838,138.507-348.336c25.438-117.134,55.445-207.353,106.417-317.816
			C4633.804,2459.988,4658.889,2230.359,4621.872,2012.579z" style="stroke:black;fill:#cccccc"/><path id="180608967" parent_id="180608952" order="12" structure_id="1009" d="M3594.775,4038.396
			c-189.546,94.175-368.983,25.941-514.592-108.852c-146.842-135.943-269.987-300.468-357.739-480.347
			c-184.472-378.095-152.742-769.603-64.506-1167.732c55.231-249.151,83.84-500.402,131.7-750.375
			c27.029-141.224,79.72-296.659,158.248-417.676c-77.947,120.122-134.584,254.928-178.366,390.898
			c-115.832,359.729-214.077,728.753-255.393,1105.148c-23.256,211.897-84.64,409.447-77.139,626.086
			c13.998,404.479,410.839,686.494,741.26,841.242c328.411,153.803,672.292-170.993,911.831-470.455
			c-59.512,72.788-121.228,143.417-187.574,210.076C3810.355,3908.981,3711.472,3980.41,3594.775,4038.396z" style="stroke:black;fill:#cccccc"/><path id="180608968" parent_id="180608952" order="13" structure_id="1009" d="M3963.27,2220.966
			c-48.916,35.435-99.202,69.055-147.16,105.823c-92.363,70.787-156.354,137.76-186.059,254.331
			c-59.732,234.361,39.828,563.129-122.939,715.757c-22.644,21.232-116.615,61.835-59.773,80.38
			c82.858,27.028,154.434-138.907,170.031-189.63c46.692-151.723,25.978-343.752,39.977-499.215
			c12.99-144.193,64.047-220.951,174.346-311.531c93.041-76.404,200.015-162.224,306.645-238.899
			c56.056-40.305-7.103-56.741-53.468-32.081C4031.256,2134.427,4011.678,2185.898,3963.27,2220.966z" style="stroke:black;fill:#cccccc"/><path id="180608969" parent_id="180608952" order="14" structure_id="1009" d="M3612.155,2196.08
			c-18.753,40.431-48.996,78.154-67.037,117.348c-67.652,146.932-69.401,312.139-142.128,459.48
			c-29.343,59.448-14.651,121.843-24.4,184.128c-2.729,17.465-21.326,107.101,17.119,102.738
			c19.31-2.195,55.592-38.365,67.211-53.25c22.439-28.734,22.374-63.469,14.382-97.407c-8.351-35.51-14.545-72.526-13.941-109.122
			c0.482-29.64,12.863-59.805,21.386-88.253c19.22-64.141,46.137-125.634,67.522-189.052
			c60.264-178.689,156.359-330.893,284.799-467.905c15.33-16.347,161.584-151.096,115.138-174.412
			c-22.292-11.191-70.807,20.068-88.922,29.457c-43.179,22.353-84.477,48.951-129.437,67.708
			c-43.955,18.349-100.542,18.561-132.935-19.754c-27.897-32.976-66.753-100.217-64.661-143.733
			c1.405-29.306,5.605-64.667,6.774-94.097c1.423-35.863,18.385-75.155,52.437-91.399c37.997-18.116,85.303,4.677,125.221,3.967
			c45.924-0.821,87.271-18.962,130.597-31.623c38.364-11.216,75.39,11.979,103.851,36.574
			c47.991,41.477,82.875,101.422,119.622,152.554c13.582,18.92,20.192,35.88,40.711,44.231c10.117,4.122,4.543-54.646,3.139-58.389
			c-12.053-32.056-37.246-59.768-59.554-85.03c-46.905-53.13-105.552-125.609-180.37-135.864
			c-21.214-2.914-42.557-0.311-63.157,5.054c-22.529,5.863-44.674,20.763-67.113,24.865c-24.955,4.56-47.975,4.556-73.027,1.353
			c-23.551-3.007-44.135-9.52-68.053-9.917c-74.287-1.225-118.282,111.833-132.665,169.179
			c-9.07,36.179-13.834,70.694-5.132,107.824c12.422,53.081,38.48,67.715,75.129,100.749c18.452,16.636,21.655,45.514,33.921,66.297
			c16.964,28.747,43.446,54.041,48.938,88.279c2.239,13.981,1.47,31.819-1.308,45.877
			C3623.4,2168.788,3618.416,2182.581,3612.155,2196.08z" style="stroke:black;fill:#cccccc"/><path id="180608965" parent_id="180608952" order="15" structure_id="98" d="M3511.925,2150.422
			c0.057-12.424-0.115-24.632-0.489-36.436c-0.752-22.998-25.456-163.598,7.981-171.413c24.752-5.794,45.966,52.443,54.161,68.749
			c16.188,32.207,48.04,60.508,53.94,97.336c2.239,13.981,1.47,31.819-1.308,45.877c-11.252,56.933-57.028,106.619-81.093,158.891
			c-30.945,67.176-41.219,139.978-65.766,209.201c-4.879,13.753-52.698,250.965-73.845,229.969
			c-22.259-22.107,48.178-247.278,54.152-264.182c23.264-65.864,31.736-135.489,42.459-204.146
			C3508.648,2242.451,3511.729,2195.03,3511.925,2150.422z" style="stroke:black;fill:#aaaaaa"/></g>
</g>
</svg>