<?xml version="1.0" encoding="utf-8"?>
<!-- Generator: Adobe Illustrator 16.0.0, SVG Export Plug-In . SVG Version: 6.00 Build 0)  -->
<!DOCTYPE svg PUBLIC "-//W3C//DTD SVG 1.1//EN" "http://www.w3.org/Graphics/SVG/1.1/DTD/svg11.dtd">
<svg version="1.1" id="Layer_1" xmlns="http://www.w3.org/2000/svg" xmlns:xlink="http://www.w3.org/1999/xlink" x="0px" y="0px"
	 width="9744.011px" height="6823.461px" viewBox="0 0 9744.011 6823.461" enable-background="new 0 0 9744.011 6823.461"
	 xml:space="preserve">
<g transform="scale(1.0)">
	<g id="_x31_80609059" transform=" scale(1.0, 1.0)">
		<path id="_x31_80609061" fill="none" stroke="#000000" stroke-width="80" d="M6647.173,3203.691
			c71.115,137.638,73.397,288.261,57.315,455.291c-17.551,182.391-53.941,363.652-107.787,539.375
			c-86.348,281.809-229.885,531.93-416.417,754.748c-106.447,127.157-272.987,336.081-420.565,341.428
			c-129.815,4.707-259.987-63.2-366.259-133.864c-254.096-168.96-448.032-411.837-439.486-737.82
			c3.459-131.815-40.418-259.114-36.451-392.198c4.058-136.061,18.161-263.947,34.71-398.801
			c25.628-208.699,41.282-414.254,93.55-617.681c30.45-118.553,65.051-254.157,154.953-340.221
			c111.57-106.827,294.225-90.842,433.774-60.751c330.067,71.188,708.14,212.854,938.339,481.001
			C6603.394,3129.783,6627.833,3166.255,6647.173,3203.691z"/>
		<path id="_x31_80609062" fill="none" stroke="#000000" stroke-width="80" d="M6647.155,3203.684
			c-19.342-37.436-43.779-73.914-74.32-109.492c-230.195-268.147-608.258-409.832-938.32-481.018
			c-139.547-30.094-322.201-46.076-433.771,60.744c-89.902,86.062-124.5,221.669-154.955,340.215
			c-52.263,203.429-67.924,408.977-93.552,617.672c-16.552,134.855-30.655,262.744-34.714,398.8
			c-3.969,133.078,39.91,260.379,36.445,392.2c-8.547,325.98,185.379,568.855,439.47,737.817
			c106.274,70.662,236.436,138.574,366.246,133.872c147.581-5.347,314.118-214.267,420.566-341.415
			c186.534-222.815,330.068-472.931,416.423-754.741c53.848-175.723,90.241-356.978,107.792-539.368
			C6720.546,3491.946,6718.269,3341.317,6647.155,3203.684z M5912.288,3525.486c4.25,29.423-44.15,74.239-59.197,98.465
			c-30.119,48.494-46.438,103.848-55.621,160.75c-5.46,33.806-11.865,67.433-17.679,101.17
			c-5.393,31.242-13.415,61.566-18.253,93.208c-1.307,8.525-0.913,24.726-8.668,29.812c-3.865-5.323-3.342-17.184-4.057-23.785
			c-1.061-9.74-0.595-19.621-1.76-29.331c-11.569-96.054,5.641-193.163,5.635-289.762c-0.005-20.375-1.655-39.706-4.486-58.521
			c-6.543-43.463-19.448-84.12-33.152-128.317c-3.268-10.543-23.479-46.491-12.508-56.284c8.91-7.967,16.227,9.066,22.325,14.479
			c34.442,30.554,72.587,49.245,117.281,55.754C5864.195,3496.339,5907.807,3494.453,5912.288,3525.486z"/>
		<path id="_x31_80609063" fill="none" stroke="#000000" stroke-width="80" d="M6647.155,3203.684
			c-19.342-37.436-43.779-73.914-74.32-109.492c-230.195-268.147-608.258-409.832-938.32-481.018
			c-139.547-30.094-322.201-46.076-433.771,60.744c-89.902,86.062-124.5,221.669-154.955,340.215
			c-52.263,203.429-67.924,408.977-93.552,617.672c-16.552,134.855-30.655,262.744-34.714,398.8
			c-3.969,133.078,39.91,260.379,36.445,392.2c-8.547,325.98,185.379,568.855,439.47,737.817
			c106.274,70.662,236.436,138.574,366.246,133.872c147.581-5.347,314.118-214.267,420.566-341.415
			c186.534-222.815,330.068-472.931,416.423-754.741c53.848-175.723,90.241-356.978,107.792-539.368
			C6720.546,3491.946,6718.269,3341.317,6647.155,3203.684z M5912.288,3525.486c4.25,29.423-44.15,74.239-59.197,98.465
			c-30.119,48.494-46.438,103.848-55.621,160.75c-5.46,33.806-11.865,67.433-17.679,101.17
			c-5.393,31.242-13.415,61.566-18.253,93.208c-1.307,8.525-0.913,24.726-8.668,29.812c-3.865-5.323-3.342-17.184-4.057-23.785
			c-1.061-9.74-0.595-19.621-1.76-29.331c-11.569-96.054,5.641-193.163,5.635-289.762c-0.005-20.375-1.655-39.706-4.486-58.521
			c-6.543-43.463-19.448-84.12-33.152-128.317c-3.268-10.543-23.479-46.491-12.508-56.284c8.91-7.967,16.227,9.066,22.325,14.479
			c34.442,30.554,72.587,49.245,117.281,55.754C5864.195,3496.339,5907.807,3494.453,5912.288,3525.486z"/>
		<path id="_x31_80609064" fill="none" stroke="#000000" stroke-width="80" d="M6647.159,3203.688
			c-19.342-37.436-43.781-73.911-74.322-109.491c-137.33-159.968-311.662-255.635-429.279-313.196c0,0-99.617-43.819-99.628-43.824
			c5.679,2.502,8.104,14.051,10.23,19.202c24.29,58.875,57.156,111.591,88.67,166.354c10.73,18.645,15.687,44.702,20.569,65.797
			c7.444,32.2,10.957,61.702,13.668,94.125c0.97,11.612,0.86,23.292-0.147,34.869c-2.419,27.804-8.069,55.039-14.702,82.018
			c-5.42,22.088-10.011,58.392-22.774,77.045l-5.67,8.292c-22.179,13.419-37.185,53.061-56.866,71.908
			c-18.324,17.548-41.795,32.307-62.855,46.135c-40.529,26.608-86.895,49.804-136.174,50.145
			c-44.596,0.315-98.512-27.257-130.175-60.94c-55.148-58.662-78.673-151.235-76.896-229.215
			c1.239-54.571-16.985-83.815-13.479-125.757c3.807-45.444,11.965-92.131,32.028-132.977c17.413-35.448,47.282-64.984,81.39-82.856
			c8.872-4.651,21.305-18.484,22.383-28.594c1.309-12.123-6.699-27.453-8.473-39.507c-4.604-31.296-4.055-85.364,31.132-94.561
			c0,0-122.938-32.899-181.28-45.48c-139.552-30.094-322.206-46.076-433.778,60.747c-89.903,86.063-124.504,221.668-154.958,340.216
			c-52.264,203.43-67.925,408.982-93.555,617.68c-16.552,134.853-30.654,262.745-34.715,398.798
			c-3.969,133.079,39.91,260.386,36.446,392.2c-8.55,325.985,185.379,568.864,439.472,737.822
			c106.275,70.663,236.438,138.574,366.261,133.873c147.574-5.345,314.116-214.268,420.571-341.419
			c186.539-222.817,330.076-472.934,416.422-754.743c53.848-175.724,90.241-356.98,107.801-539.374
			C6720.551,3491.954,6718.274,3341.323,6647.159,3203.688z M5912.288,3525.486c4.25,29.423-44.15,74.239-59.197,98.465
			c-30.119,48.494-46.438,103.848-55.621,160.75c-5.46,33.806-11.865,67.433-17.679,101.17
			c-5.393,31.242-13.415,61.566-18.253,93.208c-1.307,8.525-0.913,24.726-8.668,29.812c-3.865-5.323-3.342-17.184-4.057-23.785
			c-1.061-9.74-0.595-19.621-1.76-29.331c-11.569-96.054,5.641-193.163,5.635-289.762c-0.005-20.375-1.655-39.706-4.486-58.521
			c-6.543-43.463-19.448-84.12-33.152-128.317c-3.268-10.543-23.479-46.491-12.508-56.284c8.91-7.967,16.227,9.066,22.325,14.479
			c34.442,30.554,72.587,49.245,117.281,55.754C5864.195,3496.339,5907.807,3494.453,5912.288,3525.486z"/>
		<path id="_x31_80609065" fill="none" stroke="#000000" stroke-width="80" d="M6647.165,3203.845
			c-19.342-37.433-43.781-73.905-74.32-109.482c-1.369-1.596-2.75-3.183-4.131-4.77c-30.5-34.937-106.714-116.398-141.508-116.11
			c-2.832,41.791,45.797,65.065,65.49,96.465c24.925,39.746,48.484,91.959,63.703,137.125
			c30.669,90.974,83.217,143.897,43.701,242.365c-22.919,57.136-46.469,109.758-56.508,171.553
			c-10.469,64.391,3.047,128.03-56.254,166.092c-63.516,40.776-135.986,74.183-159.697,153.518
			c-19.585,65.542-14.432,134.409-7.027,201.843c17.801,162.245,7.508,349.302-38.035,506.666
			c-23.383,80.788-84.703,130.653-130.305,196.348c-46.255,66.627-120.498,87.835-192.943,109.792
			c-80.808,24.494-141.379,153.973-232.277,101.947c-93.874-53.727-161.371-161.139-220.746-248.995
			c-70.949-104.979-122.984-222.159-164.385-342.181c-36.456-105.668-76.645-211.8-91.935-323.266
			c-6.192-45.117-14.778-80.445-27.695-123.067c-14.448-47.636,1.542-87.583,6.156-135.523
			c8.003-83.166-10.378-159.575-33.058-238.446c-20.301-70.561-18.437-138.609,0.279-206.986
			c15.961-58.316-5.205-112.071-2.437-170.053c2.183-45.561,27.497-84.116,41.983-126.091
			c26.189-75.894,7.391-173.638,14.445-252.78c6.84-76.749,36.322-128.562,102.543-163.752
			c33.878-18.004,64.145-43.373,98.062-60.581c39.181-19.875,79.2-14.104,121.267-19.854c28.299-3.864,46.41-9.566,38.469-22.467
			c-2.887-4.692-7.512-15.045-19.753-17.185c-20.007-3.5-38.108-6.766-55.187-9.493c-99.704-11.867-206.779-7.395-289.737,43.404
			c-10.357,6.852-20.357,14.543-29.942,23.163c-106.467,95.781-102.248,265.921-115.637,399.79
			c-22.334,223.521-109.582,438.505-111.097,664.923c-1.509,226.595,39.054,455.072,107.691,670.53
			c75.499,237.021,183.552,457.661,350.485,641.482c102.561,112.947,235.742,255.619,397.886,212.945
			c35.544-9.356,68.338-25.606,98.958-46.405c89.009-73.418,173.38-177.715,236.574-253.19
			c186.539-222.801,330.076-472.898,416.427-754.688c53.856-175.711,90.243-356.954,107.804-539.335
			C6720.549,3492.084,6718.274,3341.467,6647.165,3203.845z"/>
		<path id="_x31_80609069" fill="none" stroke="#000000" stroke-width="80" d="M6113.586,2907.542
			c63.991,35.958,120.568,87.2,175.501,148.839c64.194,72.037,111.347,158.398,116.096,251.559
			c1.951,38.309-0.83,79.311-8.523,116.787c-23.662,115.393-95.234,199.689-174.131,279.85
			c-117.328,119.225-175.711,302.434-151.754,471.938c17.439,123.389,50.951,260.013,25.541,383.83
			c-14.815,72.193-72.605,143.821-132.196,174.333c-55.325,28.331-110.897,35.714-173.319,24.856
			c-40.766-7.086-59.551-40.369-87.01-69.965c-61.918-66.729-92.284-145.811-128.683-228.227
			c-35.824-81.102-63.622-165.732-69.892-254.848c-4.38-62.2,7.02-126.932,9.931-189.207c4.927-105.117,8.894-204.147-5.685-309.656
			c-11.643-84.278-20.465-170.225-39.939-252.805c-18.926-80.222-49.979-157.268-65.303-238.405
			c-16.593-87.784-4.762-156.928,25.979-238.685c26.547-70.631,52.268-155.229,115.266-200.919
			c65.592-47.589,156.629-32.233,227.178-3.151c8.631,3.558,38.646,20.018,20.965,33.697c-12.721,9.848-28.951,17.2-42.801,25.394
			c-56.902,33.657-78.539,104.344-89.327,167.21c-1.993,11.681-3.257,23.497-3.862,35.354c-0.403,7.885-0.541,12.944-0.28,26.726
			c-9.134,17.024-15.822,57.73-16.724,71.094c-2.051,30.145-0.086,60.66,2.601,90.747c1.443,16.114,3.101,32.203,4.644,48.306
			c0,0,9.893,87.769,61.718,147.549c-26.979,0.217,2.204,48.725,5.478,59.261c13.701,44.205,26.61,84.864,33.149,128.332
			c2.837,18.809,4.483,38.149,4.485,58.522c0.006,96.605-17.197,193.713-5.633,289.777c0.997,8.243,0.211,42.83,7.4,47.63
			l-6.628,97.167c-1.264,43.901-0.83,104.846,22.886,143.793c14.645,24.049,49.6,33.444,62.65-1.559
			c19.502-52.262-10.252-121.119-11.477-175.402c-3.325-147.172,20.621-282.277,80.554-415.647
			c15.599-34.717,29.179-80.764,48.401-112.573c21.342-35.333,63.816-46.582,93.459-71.953
			c50.015-42.832,112.338-118.398,113.081-187.514c-5.944-5.961-23.603,5.277-23.603,5.277
			c17.625-18.694,23.032-63.244,28.453-85.335c6.625-26.977,12.275-54.211,14.687-82.013c4.122-47.294-7.755-82.934-25.37-125.994
			c-10.052-24.574-20.91-48.658-32.33-72.416L6113.586,2907.542z"/>
		<path id="_x31_80609068" fill="none" stroke="#000000" stroke-width="80" d="M5433.569,2897.256
			c-27.028,86.365-64.799,177.695-58.207,270.287c1.939,27.292,4.766,54.501,8.376,81.601
			c8.279,62.147,20.688,123.747,36.017,184.563c21.758,86.328,31.535,176.186,44.492,264.303
			c16.215,110.304,11.609,213.854,5.916,323.762c-3.371,65.11-16.273,132.8-11.451,197.83
			c10.703,144.152,73.363,260.67,138.722,385.733c33.466,64.042,65.239,149.927,127.913,189.525
			c80.172,50.652,172.023,13.017,248.202-23.305c67-31.941,132.034-106.865,148.796-182.365
			c28.737-129.478-8.707-272.303-28.123-401.301c-16.959-112.717,12.246-224.12,61.674-322.793
			c24.316-48.548,52.041-89.7,84.716-132.284c50.573-65.925,119.781-115.264,155.28-192.017
			c37.275-80.614,65.723-173.919,41.003-263.672c-17.808-64.646-40.911-121.856-79.388-177.122
			c-11.595-16.655-38.189-34.461-44.967-53.266c-1.723-4.782-2.638-8.458-2.872-11.187l-81.018-41.646
			c20.538,19.318,40.597,40.217,60.437,62.479c64.194,72.038,111.348,158.399,116.096,251.56c1.951,38.31-0.83,79.311-8.523,116.787
			c-23.66,115.393-95.234,199.689-174.131,279.85c-117.328,119.225-175.709,302.433-151.754,471.938
			c17.441,123.389,50.953,260.013,25.541,383.828c-14.813,72.195-72.605,143.823-132.194,174.335
			c-55.325,28.33-110.899,35.714-173.319,24.856c-40.768-7.086-59.551-40.369-87.012-69.965
			c-61.918-66.729-92.282-145.811-128.683-228.227c-35.823-81.104-63.622-165.732-69.892-254.848
			c-4.378-62.2,7.021-126.932,9.931-189.207c4.929-105.117,8.894-204.148-5.683-309.657
			c-11.645-84.278-20.465-170.226-39.941-252.804c-18.926-80.223-49.98-157.269-65.303-238.405
			c-16.593-87.785-4.762-156.928,25.979-238.686c26.548-70.63,52.27-155.229,115.266-200.919
			c38.822-28.166,86.557-34.28,133.682-28.55l-56.967-33.006c-24.377,16.018-55.736,17.46-81.601,29.432
			C5473.338,2775.815,5454.352,2830.859,5433.569,2897.256z"/>
		<path id="_x31_80609067" fill="none" stroke="#000000" stroke-width="80" d="M5383.731,3248.96
			c-3.608-27.101-6.438-54.309-8.375-81.602c-6.598-92.597,31.178-183.933,58.205-270.306
			c20.772-66.398,39.767-121.446,106.998-152.57c27.5-12.732,61.205-13.551,86.129-32.636
			c-23.246-33.731-86.097-3.059-112.096,8.234c-55.277,24.029-72.211,76.461-93.998,129.534
			c-22.195,54.07-49.583,108.116-65.101,164.807c-17.378,63.446-4.949,127.644,0.287,192.121
			c16.082,197.617,57.208,388.718,85.745,584.743c15.97,109.678-3.039,219.815-13.609,328.666
			c-5.453,56.173-12.135,116.316-4.814,172.744c7.172,55.282,35.961,109.825,57.317,161.062
			c42.675,102.371,95.997,199.751,153.306,294.221c25.133,41.432,66.15,97.281,111.133,113.614
			c83.281,30.249,188.271-28.934,257.291-72.253c75.541-47.404,140.779-122.721,158.646-214.103
			c16.286-83.301-7.389-169.652-5.602-253.729c2.199-103.546-32.936-211.062-3.588-312.576
			c27.502-95.141,62.572-169.327,128.211-243.338c85.133-95.992,182.053-223.426,199.234-357.43
			c7.206-56.116-0.303-115.238-17.879-171.242c-15.137-48.208-37.74-94.099-64.857-133.782
			c-8.092-11.817-104.608-114.385-83.786-56.597c6.778,18.808,33.38,36.611,44.97,53.271c38.478,55.264,61.58,112.48,79.389,177.133
			c24.721,89.756-3.72,183.069-40.992,263.688c-35.5,76.754-104.709,126.094-155.287,192.025
			c-32.662,42.583-60.391,83.74-84.706,132.289c-49.42,98.682-78.632,210.089-61.673,322.812
			c19.418,129.004,56.872,271.838,28.129,401.32c-16.765,75.504-81.794,150.436-148.787,182.377
			c-76.18,36.322-168.041,73.963-248.203,23.303c-62.68-39.598-94.454-125.49-127.924-189.532
			c-65.357-125.071-128.02-241.595-138.719-385.757c-4.83-65.035,8.074-132.726,11.451-197.844
			c5.686-109.909,10.289-213.47-5.926-323.772c-12.965-88.123-22.736-177.993-44.496-264.321
			C5404.423,3372.714,5392.021,3311.112,5383.731,3248.96z"/>
		<path id="_x31_80609066" fill="none" stroke="#000000" stroke-width="80" d="M5535.062,2596.472
			c17.078,2.729,35.178,5.993,55.186,9.492c12.242,2.141,16.867,12.493,19.754,17.186c7.941,12.899-10.169,18.604-38.469,22.467
			c-42.066,5.75-82.086-0.021-121.266,19.855c-33.918,17.207-64.183,42.574-98.062,60.58
			c-66.22,35.191-95.703,87.003-102.543,163.751c-7.053,79.144,11.745,176.888-14.445,252.782
			c-14.488,41.974-39.801,80.53-41.981,126.091c-2.769,57.981,18.396,111.735,2.436,170.051
			c-18.715,68.379-20.581,136.428-0.281,206.987c22.681,78.871,41.063,155.28,33.06,238.446
			c-4.617,47.941-20.607,87.889-6.157,135.522c12.917,42.623,21.505,77.951,27.695,123.067
			c15.29,111.468,55.479,217.599,91.935,323.268c41.402,120.021,93.436,237.199,164.385,342.181
			c59.375,87.854,126.873,195.269,220.748,248.993c90.896,52.027,151.47-77.45,232.275-101.947
			c72.445-21.957,146.688-43.165,192.941-109.791c45.604-65.693,106.925-115.559,130.307-196.347
			c45.545-157.366,55.836-344.423,38.035-506.667c-7.404-67.435-12.56-136.3,7.027-201.842
			c23.711-79.336,96.182-112.744,159.699-153.52c59.297-38.06,45.781-101.698,56.253-166.092
			c10.038-61.795,33.588-114.418,56.509-171.552c39.514-98.469-13.033-151.392-43.703-242.366
			c-15.221-45.165-38.776-97.376-63.703-137.123c-19.693-31.4-68.322-54.674-65.489-96.466
			c16.071-0.134,40.976,17.172,66.129,39.277c0.791,0.697,1.587,1.398,2.38,2.105c24.691,21.977,16.512,14.165-10.232-10.206
			c-10.072-9.176-20.328-18.177-30.756-27.004c-103.738-87.529-212.957-147.895-297-189.665c-6.621-3.216-13.266-6.388-19.929-9.521
			c-17.308-7.615-68.869-30.295-87.259-38.385c-1.812-0.744-3.627-1.482-5.438-2.222c4.851,3.455,7.086,13.736,9.06,18.518
			c24.288,58.875,57.155,111.591,88.669,166.354c0.76,1.318,1.482,2.683,2.188,4.072c29.109,19.316,56.787,41.85,83.629,67.097
			l81.021,41.646c-2.582-30.242,79.23,56.939,86.646,67.778c27.125,39.679,49.727,85.568,64.863,133.773
			c17.575,56.003,25.077,115.119,17.879,171.238c-17.186,133.993-114.111,261.424-199.247,357.417
			c-65.641,74.002-100.71,148.184-128.206,243.314c-29.355,101.51,5.77,209.019,3.57,312.558
			c-1.789,84.076,21.886,170.419,5.599,253.719c-17.868,91.378-83.106,166.689-158.641,214.087
			c-69.021,43.317-174.024,102.501-257.3,72.254c-44.983-16.336-85.996-72.178-111.133-113.608
			c-57.307-94.468-110.62-191.837-153.293-294.207c-21.358-51.234-50.146-105.771-57.314-161.047
			c-7.321-56.432-0.64-116.57,4.814-172.736c10.572-108.849,29.587-218.978,13.621-328.653
			c-28.537-196.015-69.66-387.099-85.74-584.705c-5.234-64.478-17.655-128.673-0.283-192.11
			c15.518-56.689,42.906-110.731,65.1-164.799c21.79-53.069,38.721-105.498,94-129.526c26-11.298,88.852-41.965,112.098-8.235
			c-1.475,1.131-2.986,2.194-4.521,3.201l56.967,33.007c32.498,3.951,64.703,13.531,93.497,25.4
			c4.34,1.789,14.083,6.841,20.456,13.16c-1.034-10.94-6.948-23.438-8.443-33.607c-4.588-31.184-4.055-84.973,30.76-94.455
			c-3.403-0.98-6.807-1.954-10.207-2.92c-25.486-6.755-91.873-24.21-141.377-35.97c-9.804-2.221-19.57-4.38-29.295-6.477
			C5603.13,2606.627,5569.534,2600.575,5535.062,2596.472z"/>
		<path id="_x31_80609070" fill="none" stroke="#000000" stroke-width="80" d="M6133.773,3284.876
			c-22.177,13.42-37.183,53.062-56.864,71.908c-18.326,17.549-41.797,32.308-62.857,46.137
			c-40.529,26.608-86.895,49.802-136.174,50.144c-44.596,0.315-98.512-27.258-130.175-60.941
			c-55.148-58.66-78.671-151.234-76.896-229.215c1.239-54.57-16.985-83.814-13.478-125.755
			c6.07-72.571,27.854-165.583,93.463-204.395c15.436-9.127,31.08-18.996,48.642-29.048c18.196-10.413,4.269-25.755,2.351-40.954
			c-4.266-33.749-9.381-66.35,17.097-91.694c14.946-14.306,54.728,6.178,77.942,12.464c36.052,9.754,71.689,27.041,104.433,36.849
			c29.202,8.748,35.628,42.756,49.273,67.512c36.556,66.341,72.106,132.979,101.013,203.638
			c17.622,43.06,29.492,78.702,25.378,125.996c-2.419,27.805-8.069,55.038-14.702,82.018c-5.42,22.088-10.011,58.392-22.774,77.045
			L6133.773,3284.876z"/>
		<path id="_x31_80609073" fill="none" stroke="#000000" stroke-width="80" d="M5854.433,2796.341
			c-23.561-4.699-71.35-11.853-73.72-44.484c-0.767-10.582,2.479-24.263,10.889-30.954c20.345-16.192,44.96-5.662,67.858-5.604
			c22.04,0.055,39.824,2.808,61.375,9.783c26.078,8.443,51.561,19.485,76.105,31.952c24.639,12.521,52.449,19.235,62.45,48.473
			c1.279,3.73,6.63,15.873,4.384,19.678c-5.298,8.956-30.645-7.072-36.221-10.018c-15.519-8.181-29.518-9.912-46.967-11.935
			C5938.841,2798.399,5895.8,2804.593,5854.433,2796.341z"/>
		<path id="_x31_80609071" fill="none" stroke="#000000" stroke-width="80" d="M6135.763,3282.478
			c-26.946,18.838-37.672,54.002-58.846,74.286c-18.324,17.548-41.795,32.308-62.855,46.135
			c-40.527,26.607-86.886,49.802-136.174,50.142c-60.63,0.42-120.5-40.72-154.705-90.646
			c-23.434-34.202-39.813-76.972-44.84-118.299c-2.617-21.571-12.412-63.597,7.431-79.282c22.993-18.174,54.55,6.094,73.456,19.073
			c82.795,56.89,187.032,32.706,274.836,4.859c25.654-8.143,46.666-27.764,72.633-34.775c14.135-3.815,56.938-5.173,64.095,6.727
			C6166.657,3180.649,6156.077,3246.025,6135.763,3282.478z"/>
		<path id="_x31_80609072" fill="none" stroke="#000000" stroke-width="80" d="M5657.343,3037.139
			c4.983-59.532,17.547-122.466,55.131-169.202c20.611-25.625,56.636-60.756,92.869-55.999
			c9.654,33.083-59.116,36.832-52.475,77.113c6.174,37.422,51.271,60.695,82.78,69.765c39.394,11.339,87.316,9.029,127.921,8.003
			c36.016-0.906,56.98-12.327,84.209-34.827c16.486-13.625,40.955-35.872,63.27-21.843c20.855,13.116,31.584,59.563,40.503,81.362
			c17.616,43.06,29.491,78.698,25.371,125.995l0.81-16.745c-32.204-22.19-57.705-26.287-101.625-19.524
			c-43.709,6.728-85.994,20.966-129.37,29.231c-15.114,2.877-30.358,5.033-45.849,5.886c-58.252,3.222-118.07-7.01-170.596-34.641
			c-29.426-15.479-53.158-43.108-70.877-22.801L5657.343,3037.139z"/>
		<path id="_x31_80609075" fill="none" stroke="#000000" stroke-width="80" d="M5446.823,5039.766
			c-166.932-183.822-274.984-404.459-350.485-641.482c-68.638-215.459-109.202-443.938-107.689-670.532
			c1.515-226.416,88.761-441.402,111.097-664.922c13.386-133.869,9.17-304.009,115.638-399.789
			c9.581-8.621,19.585-16.312,29.939-23.164c-15.8,9.676-30.728,21.025-44.56,34.268
			c-89.901,86.059-124.502,221.651-154.959,340.193c-52.266,203.411-67.93,408.948-93.561,617.628
			c-16.553,134.851-30.658,262.725-34.713,398.766c-3.975,133.075,39.899,260.361,36.44,392.171
			c-8.56,325.958,185.371,568.813,439.456,737.755c106.275,70.656,236.434,138.565,366.252,133.856
			c59.965-2.17,123.064-37.955,183.989-88.206c-30.621,20.8-63.417,37.049-98.959,46.406
			C5682.565,5295.384,5549.386,5152.715,5446.823,5039.766z"/>
		<path id="_x31_80609076" fill="none" stroke="#000000" stroke-width="80" d="M5946.735,3110.656
			c-15.109,2.875-30.358,5.03-45.841,5.883c-58.253,3.222-118.069-7.003-170.596-34.638c-29.425-15.479-62.026-57.008-79.159-6.3
			c-19.405,57.406-9.06,136.513-3.275,196.772c10.309,107.559,86.552,205.054,194.284,220.751
			c22.047,3.215,65.659,1.329,70.14,32.361c4.252,29.425-44.148,74.241-59.197,98.467c-30.107,48.473-46.418,103.795-55.605,160.67
			c-16.914,104.726-46.616,209.127-49.67,315.943c-1.262,43.898-0.828,104.841,22.885,143.784
			c14.645,24.048,49.6,33.441,62.652-1.561c19.5-52.259-10.253-121.114-11.477-175.396
			c-3.324-147.162,20.627-282.254,80.564-415.623c15.6-34.714,29.176-80.756,48.401-112.568
			c21.345-35.329,63.81-46.575,93.458-71.944c50.02-42.83,110.607-118.39,113.088-187.5c-8.834-3.206-15.223,0.202-23.602,5.274
			c-22.181,13.419-37.184,53.057-56.865,71.904c-18.327,17.546-41.796,32.302-62.857,46.13
			c-40.526,26.61-86.893,49.806-136.174,50.144c-60.63,0.422-120.5-40.719-154.701-90.641
			c-23.443-34.196-39.816-76.965-44.841-118.296c-2.618-21.566-12.417-63.588,7.423-79.273c23.002-18.175,54.559,6.087,73.464,19.07
			c82.795,56.888,187.033,32.704,274.835,4.854c28.956-9.185,56.286-34.373,86.426-37.875
			c52.619-6.114,116.394,37.829,138.756,85.268c28.41,60.286,3.26,147.138-21.439,203.887
			c-91.104,209.301-241.404,364.881-261.375,605.627c-6.641,79.966-11.047,174.324,3.865,253.748
			c11.023,58.719,37.459,122.727,11.967,180.197c-5.82,13.112-32.58,45.107-8.789,56.352c16.991,8.018,36.758-20.914,44.018-32.871
			c34.406-56.635,4.627-151.168,1.052-214.195c-4.979-87.611-12.355-175.418-7.278-263.092
			c5.145-88.703,23.478-176.494,70.186-251.645c99.396-159.928,293.653-369.646,178.023-574.349
			c-41.28-73.093-105.531-132.075-193.368-118.554C6032.402,3088.15,5990.112,3102.394,5946.735,3110.656z"/>
		<path id="_x31_80609074" fill="none" stroke="#000000" stroke-width="80" d="M5748.2,3607.495
			c-6.543-43.464-19.447-84.121-33.15-128.318c-3.268-10.543-23.48-46.491-12.508-56.284c8.908-7.967,16.227,9.066,22.325,14.479
			c34.442,30.554,72.587,49.245,117.279,55.756c22.049,3.212,65.66,1.326,70.142,32.359c4.25,29.423-44.15,74.239-59.197,98.465
			c-30.119,48.494-46.438,103.848-55.621,160.75c-5.46,33.806-11.865,67.433-17.679,101.17
			c-5.393,31.242-13.415,61.566-18.253,93.209c-1.307,8.524-0.913,24.725-8.668,29.811c-3.865-5.323-3.342-17.184-4.057-23.785
			c-1.061-9.74-0.595-19.621-1.76-29.331c-11.569-96.054,5.641-193.162,5.635-289.762
			C5752.683,3645.641,5751.032,3626.309,5748.2,3607.495z"/>
	</g>
</g>
</svg>
