<svg width="4864" height="4224" xmlns="http://www.w3.org/2000/svg">
<g transform="scale(1.0)">
<g id="180608795" order="1" parent_id="" graphic_group_label_id="28" graphic_group_label="Atlas - Adult Mouse" sub_image_id="100960476" transform=" scale(1.0, 1.0)"><path id="180608797" parent_id="180608795" order="0" structure_id="8" d="M4379.6,1842.695
			c7.386,45.981,12.576,92.452,16.275,139.134c8.137,102.825,23.601,207.487,6.011,309.992
			c-31.772,185.126-138.683,343.566-182.884,523.513c-46.271,188.357-114.191,378.444-232.015,533.542
			c-123.851,163.03-274.928,315.211-456.435,413.313c-135.709,73.354-288.468,138.727-444.393,147.395
			c-202.1,11.229-425.976-156.043-581.666-269.333c-164.164-119.462-280.292-285.198-305.527-491.867
			c-29.584-242.209,57.553-499.207,90.117-737.469c13.685-100.148,59.425-191.288,79.57-289.618
			c17.438-85.159,21.664-171.702,43.166-256.731c56.932-225.121,86.869-443.859,222.435-642.703
			c101.526-148.907,241.832-288.204,416.13-345.789c176.217-58.219,372.427-13.094,537.125,61.789
			c301.274,136.979,542.853,290.716,697.008,596.973C4333.643,1632.424,4362.497,1736.237,4379.6,1842.695z" style="stroke:black;fill:#bfdae3"/><path id="180608798" parent_id="180608795" order="1" structure_id="688" d="M4395.88,1981.837
			c-3.695-46.679-8.888-93.152-16.271-139.131c-17.112-106.463-45.959-210.278-95.079-307.87
			c-154.162-306.253-395.729-459.99-697.003-596.97c-164.691-74.883-360.906-120.005-537.122-61.786
			c-174.291,57.585-314.593,196.882-416.116,345.791c-135.571,198.843-165.501,417.577-222.434,642.707
			c-21.503,85.033-25.725,171.569-43.168,256.731c-20.136,98.327-65.876,189.47-79.56,289.617
			c-32.566,238.264-119.696,495.262-90.122,737.473c25.239,206.667,141.361,372.405,305.526,491.873
			c155.684,113.289,379.563,280.563,581.658,269.331c155.926-8.67,308.681-74.046,444.389-147.396
			c181.505-98.102,332.578-250.286,456.422-413.319c117.82-155.096,185.742-345.185,232.009-533.538
			c44.203-179.947,151.113-338.392,182.887-523.519C4419.486,2189.325,4404.016,2084.661,4395.88,1981.837z M3412.971,1957.17
			c-34.677,60.974-64.323,128.861-93.259,192.843c-4.092,9.033-8.063,18.025-11.977,26.989
			c-16.813,38.529-32.486,76.505-51.32,114.908c-25.636,52.24-48.555,116.828-85.827,162.126
			c1.455-22.307,11.297-42.98,18.527-63.747c23.759-68.235,48.279-136.835,70.243-205.463
			c32.089-100.291,82.083-211.455,50.697-319.061c-3.364-11.548-23.638-43.082-10.941-54.047
			c18.835-16.218,72.638,37.231,84.841,46.511C3421.641,1886.892,3440.354,1909.005,3412.971,1957.17z" style="stroke:black;fill:#b0ffb8"/><path id="180608799" parent_id="180608795" order="2" structure_id="698" d="M4395.88,1981.837
			c-3.695-46.679-8.888-93.152-16.271-139.131c-17.112-106.463-45.959-210.278-95.079-307.87
			c-154.162-306.253-395.729-459.99-697.003-596.97c-164.691-74.883-360.906-120.005-537.122-61.786
			c-174.291,57.585-314.593,196.882-416.116,345.791c-135.571,198.843-165.501,417.577-222.434,642.707
			c-21.503,85.033-25.725,171.569-43.168,256.731c-20.136,98.327-65.876,189.47-79.56,289.617
			c-32.566,238.264-119.696,495.262-90.122,737.473c25.239,206.667,141.361,372.405,305.526,491.873
			c155.684,113.289,379.563,280.563,581.658,269.331c155.926-8.67,308.681-74.046,444.389-147.396
			c181.505-98.102,332.578-250.286,456.422-413.319c117.82-155.096,185.742-345.185,232.009-533.538
			c44.203-179.947,151.113-338.392,182.887-523.519C4419.486,2189.325,4404.016,2084.661,4395.88,1981.837z M3412.971,1957.17
			c-34.677,60.974-64.323,128.861-93.259,192.843c-4.092,9.033-8.063,18.025-11.977,26.989
			c-16.813,38.529-32.486,76.505-51.32,114.908c-25.636,52.24-48.555,116.828-85.827,162.126
			c1.455-22.307,11.297-42.98,18.527-63.747c23.759-68.235,48.279-136.835,70.243-205.463
			c32.089-100.291,82.083-211.455,50.697-319.061c-3.364-11.548-23.638-43.082-10.941-54.047
			c18.835-16.218,72.638,37.231,84.841,46.511C3421.641,1886.892,3440.354,1909.005,3412.971,1957.17z" style="stroke:black;fill:#9ad2bd"/><path id="180608800" parent_id="180608795" order="3" structure_id="507" d="M4395.875,1981.83
			c-3.699-46.682-8.89-93.153-16.275-139.134c-17.103-106.458-45.957-210.271-95.083-307.86
			c-154.155-306.256-395.733-459.994-697.008-596.973c-164.698-74.882-360.908-120.007-537.125-61.789
			c-174.298,57.585-314.604,196.882-416.13,345.789c-135.566,198.844-165.503,417.582-222.435,642.703
			c-21.502,85.029-25.728,171.572-43.166,256.731c-20.145,98.33-65.885,189.47-79.57,289.618
			c-32.564,238.262-119.701,495.26-90.117,737.469c25.235,206.669,141.364,372.405,305.527,491.867
			c155.69,113.29,379.566,280.563,581.666,269.333c155.925-8.668,308.684-74.041,444.393-147.395
			c181.507-98.103,332.584-250.283,456.435-413.313c117.823-155.098,185.743-345.185,232.015-533.542
			c44.201-179.946,151.111-338.387,182.884-523.513C4419.476,2189.316,4404.012,2084.655,4395.875,1981.83z M3412.971,1957.17
			c-34.677,60.974-64.323,128.861-93.259,192.843c-4.092,9.033-8.063,18.025-11.977,26.989
			c-16.813,38.529-32.486,76.505-51.32,114.908c-25.636,52.24-48.555,116.828-85.827,162.126
			c1.455-22.307,11.297-42.98,18.527-63.747c23.759-68.235,48.279-136.835,70.243-205.463
			c32.089-100.291,82.083-211.455,50.697-319.061c-3.364-11.548-23.638-43.082-10.941-54.047
			c18.835-16.218,72.638,37.231,84.841,46.511C3421.641,1886.892,3440.354,1909.005,3412.971,1957.17z" style="stroke:black;fill:#9ad2bd"/><path id="180608801" parent_id="180608795" order="4" structure_id="212" d="M2505.141,1948.646
			c5.135,93.777-32.396,186.722-57.515,276.063c-100.182,356.283-103.021,721.612,40.297,1067.496
			c46.218,111.557,136.21,226.739,211.411,320.46c93.461,116.48,227.52,201.621,379.046,209.914
			c147.766,8.091,279.025-67.354,402.304-139.038c163.503-95.067,214.961-281.199,252.687-453.685
			c20.581-94.097,64.761-186.685,117.124-266.974c95.055-145.755,228.741-260.222,346.172-386.71
			c97.4-104.913,118.888-293.64,137.576-430.552c9.81-71.871,17.428-146.66,18.018-219.299c0.211-26.209-0.016-53.603-0.962-81.558
			c-4.625-136.157-38.876-257.666-99.079-369.73c-154.638-267.063-383.693-409.419-664.689-537.177
			c-164.7-74.878-360.915-119.998-537.123-61.782c-2.949,0.975-5.891,1.981-8.828,3.001c-2.085,0.727-4.164,1.467-6.239,2.217
			c-0.512,0.184-1.022,0.366-1.533,0.551c-122.822,44.762-228.247,129.958-314.556,229.389
			c-81.892,115.332-100.174,257.592-148.152,390.784C2517.975,1649.471,2496.536,1791.34,2505.141,1948.646z M2720.57,2220.605
			c52.8-133.467,17.128-299.976,15.381-440.227c-0.622-49.648,0.122-99.657,3.356-149.467
			c6.995-107.824,25.677-214.709,67.494-314.969c28.968-69.436,66.395-135.593,116.89-191.63
			c71.958-79.856,168.945-172.489,277.053-196.365c191.492-42.297,374.46,29.634,520.98,150.566
			c71.068,58.661,124.904,145.714,203.081,194.837c73.592,46.24,127.726,107.569,175.827,181.829
			c56.358,87.005,100.829,203.51,112.903,306.833c11.75,100.506-0.154,226.484-36.012,322.004
			c-34.58,92.123-93.438,164.899-157.462,237.284c-63.92,72.254-127.362,143.684-187.724,218.494
			c-56.479,69.998-118.539,122.55-201.544,159.551c-31.491,14.034-50.593,25.99-71.684,54.989
			c-45.918,63.116-61.396,155.843-53.617,231.457c13.635,132.444-21.284,255.859-58.363,380.313
			c-17.533,58.847-42.312,120.795-73.091,173.989c-45.618,78.85-136.298,135.541-224.924,152.576
			c-172.285,33.099-354.639-121.891-426.549-267.864c-62.941-127.766-114.002-254.812-148.534-393.288
			c-47.802-191.691-48.4-399.75,27.957-583.754C2634.751,2368.795,2689.629,2298.828,2720.57,2220.605z" style="stroke:black;fill:#82c7ae"/><path id="180608805" parent_id="180608795" order="5" structure_id="220" d="M3170.587,2454.132
			c1.456-22.309,11.298-42.987,18.527-63.756c23.76-68.239,48.288-136.839,70.244-205.471
			c32.089-100.301,82.083-211.467,50.705-319.079c-3.372-11.548-23.646-43.084-10.941-54.05c0,0,8.831-11.662,41.114,11.217
			c-47.325-41.374-72.451-87.75-40.03-166.414c46.411-112.589,146.544-68.159,197.524,15.608
			c32.526,53.452,61.575,135.913,56.949,199.353c-5.653,77.568-69.937,148.282-114.755,207.573
			c-89.685,118.606-154.6,245.174-204.229,385.276c-50.301,142.019-97.416,286.965-141.393,431.01
			c-8.087,26.489-27.69,59.206-41.972,18.678c-19.894-56.433-3.752-130.822,6.332-187.845
			c12.001-67.896,30.998-135.101,60.475-197.578c12.454-26.393,30.302-48.898,47.932-71.587L3170.587,2454.132z M3697.504,2222.548
			c70.009-49.53,147.652-95.465,189.6-173.07c42.206-78.106,67.47-168.621,55.954-257.701
			c-7.237-56.036-25.604-110.426-49.177-161.586c-33.666-73.043-82.051-151.913-136.444-211.572
			c-89.046-97.677-164.61-223.622-298.596-264.365c-237.499-72.218-415.721,200.206-433.311,405.773
			c-8.402,98.097,24.9,194.974,37.468,292.027c8.402,64.956,22.409,131.538,20.985,197.246
			c-1.196,55.817-17.079,113.887-26.743,168.892c-41.35,235.466-301.233,376.862-282.334,633.075
			c12.745,172.79,105.633,382.354,226.355,506.293c93.857,96.362,217.572,66.339,258.323-115.141
			c25.118-111.882-4.278-229.753,13.505-343.964c20.169-129.52,50.236-262.469,116.979-376.793
			c32.259-55.247,76.026-106.059,124.774-152.536C3572.382,2314.268,3636.859,2265.458,3697.504,2222.548z" style="stroke:black;fill:#82c7ae"/><path id="180608804" parent_id="180608795" order="6" structure_id="228" d="M3914.672,1559.873
			c-45.101-67.56-98.839-128.929-142.679-197.569c-47.025-73.622-98.508-125.638-163.39-184.173
			c-39.214-35.374-84.865-70.124-135.595-84.863c-89.806-26.101-162.354-2.325-242.497,37.638
			c-104.929,52.328-211.24,197.072-237.063,309.937c-15.987,69.873-24.762,153.082-17.047,224.617
			c5.394,49.991,18.034,99.667,33.245,147.542c39.344,123.774,40.653,247.164,2.232,373.635
			c-27.512,90.552-65.788,180.849-127.007,252.202c-191.451,223.116-181.981,544.694-38.696,791.773
			c36.133,62.312,82.804,128.202,135.692,177.618c62.698,58.575,165.403,91.955,239.229,31.144
			c40.168-33.084,49.307-74.471,59.974-121.829c12.308-54.62,31.086-107.567,37.265-163.481
			c9.486-85.801,7.877-173.826,9.187-260.043c1.197-79.173,16.061-151.061,40.055-229.586
			c31.782-104.001,100.465-181.116,185.67-245.968c76.139-57.94,162.007-108.024,237.467-178.107
			c97.399-90.451,218.26-233.314,215.753-375.244C4004.462,1751.163,3978.939,1656.135,3914.672,1559.873z M3887.104,2049.478
			c-41.947,77.605-119.591,123.54-189.6,173.07c-60.645,42.91-125.122,91.72-182.661,146.579
			c-48.748,46.478-92.516,97.289-124.774,152.536c-66.742,114.324-96.81,247.273-116.979,376.793
			c-17.783,114.211,11.613,232.082-13.505,343.964c-40.751,181.479-164.466,211.503-258.323,115.141
			c-120.723-123.939-213.61-333.503-226.355-506.293c-18.899-256.213,240.984-397.609,282.334-633.075
			c9.664-55.005,25.547-113.075,26.743-168.892c1.424-65.708-12.583-132.29-20.985-197.246
			c-12.567-97.054-45.87-193.93-37.468-292.027c17.59-205.567,195.812-477.992,433.311-405.773
			c133.985,40.743,209.55,166.688,298.596,264.365c54.394,59.659,102.778,138.529,136.444,211.572
			c23.573,51.16,41.939,105.55,49.177,161.586C3954.573,1880.857,3929.31,1971.372,3887.104,2049.478z" style="stroke:black;fill:#9ad2bd"/><path id="180608803" parent_id="180608795" order="7" structure_id="236" d="M3553.248,2418.467
			c-85.205,64.852-153.888,141.967-185.67,245.968c-23.994,78.525-38.857,150.413-40.055,229.586
			c-1.31,86.217,0.3,174.242-9.187,260.043c-6.179,55.914-24.957,108.861-37.265,163.481
			c-10.667,47.358-19.806,88.745-59.974,121.829c-73.826,60.812-176.531,27.432-239.229-31.144
			c-52.889-49.416-99.56-115.307-135.692-177.618c-143.285-247.079-152.755-568.657,38.696-791.773
			c61.219-71.354,99.495-161.65,127.007-252.202c38.421-126.471,37.111-249.861-2.232-373.635
			c-15.211-47.876-27.852-97.551-33.245-147.542c-7.715-71.535,1.06-154.744,17.047-224.617
			c25.822-112.864,132.134-257.608,237.063-309.937c80.143-39.963,152.691-63.739,242.497-37.638
			c50.729,14.739,96.381,49.489,135.595,84.863c64.882,58.535,116.364,110.551,163.39,184.173
			c43.84,68.64,97.578,130.009,142.679,197.569c64.268,96.262,89.79,191.29,91.796,305.242
			c2.507,141.93-118.354,284.793-215.753,375.244C3715.255,2310.442,3629.387,2360.526,3553.248,2418.467z M3828.78,2247.003
			c120.925-106.787,233.625-236.501,226.541-396.501c-3.332-75.279-11.508-150.369-41.624-220.213
			c-57.919-134.315-173.369-229.942-263.806-341.072c-74.287-91.284-168.323-190.837-279.188-235.85
			c-135.028-54.819-307.532,43.654-398.398,142.568c-61.348,66.784-107.484,144.267-130.613,231.649
			c-15.939,60.213-24.22,130.329-19.57,192.648c4.796,64.155,30.48,106.597,47.576,165.689
			c36.771,127.146,59.609,267.014,18.624,396.845c-25.304,80.16-59.253,149.52-116.646,212.418
			c-210.537,230.763-202.41,575.85-67.041,839.867c36.868,71.892,87.646,137.082,148.76,190.174
			c35.712,31.019,93.187,57.383,138.069,71.552c254.069,80.216,256.933-351.29,259.957-499.019
			c2.191-107.345-0.971-217.581,35.356-320.983c33.642-95.793,100.335-174.202,180.793-234.661
			c39.998-30.052,83.797-48.556,123.585-80.993C3733.952,2326.237,3781.98,2288.337,3828.78,2247.003z" style="stroke:black;fill:#82c7ae"/><path id="180608802" parent_id="180608795" order="8" structure_id="244" d="M2574.033,3031.52
			c34.532,138.477,85.593,265.522,148.534,393.288c71.91,145.974,254.264,300.963,426.549,267.864
			c88.626-17.035,179.306-73.727,224.924-152.576c30.779-53.194,55.558-115.143,73.091-173.989
			c37.079-124.454,71.998-247.869,58.363-380.313c-7.779-75.614,7.699-168.341,53.617-231.457
			c21.091-28.999,40.192-40.955,71.684-54.989c83.005-37.001,145.064-89.553,201.544-159.551
			c60.361-74.811,123.804-146.24,187.724-218.494c64.024-72.385,122.882-145.161,157.462-237.284
			c35.857-95.521,47.762-221.499,36.012-322.004c-12.074-103.324-56.545-219.829-112.903-306.833
			c-48.102-74.26-102.235-135.589-175.827-181.829c-78.177-49.123-132.013-136.176-203.081-194.837
			c-146.521-120.933-329.488-192.864-520.98-150.566c-108.107,23.876-205.095,116.509-277.053,196.365
			c-50.495,56.037-87.922,122.194-116.89,191.63c-41.817,100.259-60.499,207.145-67.494,314.969
			c-3.234,49.81-3.979,99.818-3.356,149.467c1.747,140.251,37.419,306.76-15.381,440.227
			c-30.941,78.223-85.819,148.189-118.58,227.16C2525.633,2631.77,2526.231,2839.828,2574.033,3031.52z M2871.676,2395.097
			c57.394-62.898,91.343-132.25,116.646-212.409c40.985-129.824,18.147-269.684-18.624-396.818
			c-17.096-59.089-42.788-101.528-47.584-165.685c-4.642-62.312,3.64-132.423,19.579-192.637
			c23.129-87.376,69.257-164.851,130.604-231.631c90.874-98.913,263.378-197.38,398.398-142.564
			c110.864,45.01,204.908,144.558,279.188,235.836c90.437,111.124,205.887,206.745,263.806,341.053
			c30.116,69.841,38.301,144.926,41.632,220.201c7.085,159.991-105.624,289.697-226.541,396.479
			c-46.799,41.331-94.828,79.229-137.633,114.111c-39.779,32.436-83.587,50.938-123.585,80.992
			c-80.45,60.452-147.144,138.861-180.785,234.644c-36.327,103.4-33.165,213.626-35.349,320.97
			c-3.032,147.719-5.896,579.201-259.965,498.989c-44.874-14.172-102.356-40.535-138.069-71.551
			c-61.113-53.086-111.892-118.272-148.76-190.159C2669.267,2970.91,2661.139,2625.847,2871.676,2395.097z" style="stroke:black;fill:#9ad2bd"/><path id="180608807" parent_id="180608795" order="9" structure_id="1009" d="M4395.882,1981.766
			c-3.696-46.677-8.896-93.147-16.279-139.12c-17.104-106.458-45.95-210.267-95.079-307.857
			c-10.371-20.602-21.15-40.492-32.305-59.755c60.203,112.065,94.454,233.574,99.079,369.73c0.946,27.956,1.173,55.349,0.962,81.558
			c-0.59,72.639-8.208,147.428-18.018,219.299c-18.688,136.912-40.176,325.639-137.576,430.552
			c-117.431,126.488-251.117,240.955-346.172,386.71c-52.363,80.289-96.543,172.877-117.124,266.974
			c-37.726,172.485-89.184,358.617-252.687,453.685c-123.278,71.685-254.538,147.129-402.304,139.038
			c-151.526-8.293-285.585-93.434-379.046-209.914c-75.201-93.721-165.193-208.903-211.411-320.46
			c-143.317-345.884-140.479-711.213-40.297-1067.496c25.118-89.342,62.649-182.286,57.515-276.063
			c-8.604-157.307,12.834-299.176,65.957-446.628c47.979-133.192,66.261-275.453,148.152-390.784
			c-30.778,35.458-59.131,72.722-84.968,110.612c-135.571,198.832-165.501,417.557-222.426,642.67
			c-21.511,85.028-25.732,171.563-43.168,256.716c-20.145,98.322-65.877,189.459-79.568,289.601
			c-32.558,238.25-119.695,495.233-90.113,737.43c25.239,206.66,141.361,372.389,305.527,491.846
			c155.683,113.282,379.563,280.548,581.657,269.315c155.926-8.669,308.681-74.042,444.389-147.389
			c181.505-98.1,332.578-250.271,456.423-413.295c117.819-155.087,185.742-345.164,232.008-533.508
			c44.203-179.94,151.105-338.371,182.879-523.492C4419.479,2189.241,4404.017,2084.588,4395.882,1981.766z" style="stroke:black;fill:#cccccc"/><path id="180608808" parent_id="180608795" order="10" structure_id="1009" d="M3307.735,2177.002
			c-16.813,38.529-32.486,76.505-51.32,114.908c-19.353,39.447-34.006,82.266-56.957,119.833
			c-24.754,40.502-59.827,73.402-80.32,116.813c-29.477,62.474-48.474,129.678-60.475,197.565
			c-10.084,57.02-26.226,131.405-6.332,187.838c14.282,40.526,33.885,7.812,41.972-18.68
			c43.978-144.032,91.092-288.975,141.394-430.985c49.63-140.09,114.544-266.65,204.221-385.254
			c44.818-59.283,109.109-129.998,114.763-207.561c4.626-63.436-24.431-145.892-56.957-199.337
			c-50.972-83.762-151.105-128.194-197.517-15.611c-35.68,86.552-1.334,135.921,56.213,178.393
			c9.268,6.841,17.564,15.721,27.536,23.306c37.686,28.663,56.398,50.776,29.016,98.941
			C3372.819,2027.774,3340.196,2102.642,3307.735,2177.002z" style="stroke:black;fill:#cccccc"/><path id="180608806" parent_id="180608795" order="11" structure_id="98" d="M3383.955,1858.229
			c-12.203-9.28-66.006-62.729-84.841-46.511c-12.696,10.965,7.577,42.5,10.941,54.047c31.386,107.605-18.608,218.77-50.697,319.061
			c-21.964,68.628-46.484,137.228-70.243,205.463c-7.23,20.767-17.072,41.44-18.527,63.747
			c37.272-45.298,60.191-109.886,85.827-162.126c18.834-38.403,34.507-76.379,51.32-114.908c3.914-8.964,7.885-17.956,11.977-26.989
			c28.936-63.981,58.582-131.869,93.259-192.843C3440.354,1909.005,3421.641,1886.892,3383.955,1858.229z" style="stroke:black;fill:#aaaaaa"/></g>
</g>
</svg>