<svg width="6464" height="5408" xmlns="http://www.w3.org/2000/svg">
<g transform="scale(1.0)">
<g id="180610081" order="1" parent_id="" graphic_group_label_id="28" graphic_group_label="Atlas - Adult Mouse" sub_image_id="100960416" transform=" scale(1.0, 1.0)"><path id="180610083" parent_id="180610081" order="0" structure_id="8" d="M5782.457,1795.689
			c-122.382-339.934-401.922-625.295-703.928-812.134c-153.283-94.82-326.688-139.718-497.424-188.69
			c-184.518-52.923-379.422-75.26-570.047-45.714c-115.179,17.851-239.496,47.851-319.464,108.693
			c-94.903,72.208-163.058,186.326-220.749,315.651c-59.831,134.102-76.633,227.21-94.902,352.788
			c-16.506,113.47-26.82,255.821-43.324,367.229c-27.394,184.871-55.889,363.296-22.064,548.147
			c17.077,93.331,43.331,170.636,94.104,250.781c47.363,74.757,89.067,170.125,163.91,222.382
			c32.701,22.827,71.024,35.876,105.773,55.039c-73.135,24.228-128.178,69.09-169.504,126.896
			c-132.949,185.945-121.215,518.278-115.766,715.545c6.996,253.283,82.427,481.223,236.691,683.799
			c99.446,130.588,197.354,237.705,369.209,259.062c164.814,20.479,365.197-8.437,517.552-76.083
			c228.05-101.254,447.873-334.13,561.319-554.688c104.812-203.77,284.926-719.697,87.838-907.297l0.762,0.127
			c209.741,43.324,392.164-253.959,490.926-403.5c87.495-132.48,151.048-290.509,170.914-448.061
			C5848.477,2173.791,5848.758,1979.855,5782.457,1795.689z" style="stroke:black;fill:#bfdae3"/><path id="180610084" parent_id="180610081" order="1" structure_id="688" d="M5782.457,1795.689
			c-122.382-339.934-401.922-625.295-703.928-812.134c-153.283-94.82-326.688-139.718-497.424-188.69
			c-184.518-52.923-379.422-75.26-570.047-45.714c-115.179,17.851-239.496,47.851-319.464,108.693
			c-94.903,72.208-163.058,186.326-220.749,315.651c-59.831,134.102-76.633,227.21-94.902,352.788
			c-16.506,113.47-26.82,255.821-43.324,367.229c-27.394,184.871-55.889,363.296-22.064,548.147
			c17.077,93.331,43.331,170.636,94.104,250.781c47.363,74.757,89.067,170.125,163.91,222.382
			c26.331,18.382,56.307,30.423,85.128,44.421c6.972,3.386,13.877,6.886,20.646,10.617c-6.429,2.129-12.708,4.428-18.858,6.871
			c-63.837,25.353-112.949,67.3-150.646,120.024c-132.949,185.945-121.214,518.278-115.765,715.545
			c6.994,253.283,82.426,481.224,236.69,683.798c99.446,130.589,197.353,237.706,369.209,259.063
			c164.813,20.479,365.196-8.437,517.552-76.084c228.05-101.254,447.873-334.129,561.32-554.688
			c103.761-201.729,281.324-709.396,93.644-901.563c-1.897-1.943-3.833-3.855-5.806-5.733l0.761,0.127
			c2.345,0.483,4.687,0.911,7.024,1.312c206.785,35.369,386.244-256.94,483.9-404.812
			c87.495-132.479,151.048-290.508,170.914-448.06C5848.477,2173.791,5848.758,1979.855,5782.457,1795.689z M4339.955,3559.013
			c-3.9,8.89-34.331,44.591-41.262,53.64c-14.547,19.027-23.912,31.561-35.072,52.609c-8.396,15.836-17.561,39.497-31.979,55.703
			c-14.53,16.336-38.506,27.609-54.672,33.01c-22.768,7.6-42.851-3.288-65.205-37.645c-15.916-24.604-3.498-48.441,14.819-68.509
			c33.55-36.725,99.729-97.61,151.46-106.685C4309.033,3535.698,4352.745,3529.871,4339.955,3559.013z" style="stroke:black;fill:#b0ffb8"/><path id="180610114" parent_id="180610081" order="2" structure_id="320" d="M5661.1,2204.798l174.291,48.276
			c-2.56,37.548-6.438,75.096-11.142,112.563c-19.806,157.619-83.351,315.652-170.907,448.103l-114.708-104.888
			c27.233-61.646,48.606-126.014,66.681-187.658c10.563-35.898,19.146-70.311,25.912-102
			C5646.245,2348.719,5656.23,2276.841,5661.1,2204.798z" style="stroke:black;fill:#1f9d5a"/><path id="180610113" parent_id="180610081" order="3" structure_id="943" d="M5196.326,2075.979
			l464.773,128.819c-4.869,72.043-14.854,143.921-29.875,214.396c-6.767,31.688-15.35,66.102-25.912,102
			c-18.072,61.645-39.445,126.013-66.68,187.657l-368.386-336.777C5204.908,2286.579,5207.055,2173.604,5196.326,2075.979z" style="stroke:black;fill:#1f9d5a"/><path id="180610112" parent_id="180610081" order="4" structure_id="648" d="M5196.326,2075.979
			c10.729,97.625,8.582,210.601-26.078,296.096l-358.152-327.454c30.287,5.94,51.082-0.66,55.455-32.103
			c1.155-8.17,0.248-17.742-2.558-28.388L5196.326,2075.979z" style="stroke:black;fill:#1f9d5a"/><path id="180610111" parent_id="180610081" order="5" structure_id="844" d="M4864.993,1984.13
			c2.806,10.646,3.713,20.218,2.558,28.388c-4.373,31.441-25.168,38.043-55.455,32.103l-117.845-107.776L4864.993,1984.13z" style="stroke:black;fill:#1f9d5a"/><path id="180610118" parent_id="180610081" order="6" structure_id="656" d="M5782.492,1795.729
			c53.311,148.131,63.543,302.614,52.896,457.347l-174.289-48.276c2.558-38.291,3.713-76.5,3.301-114.708
			c-1.32-137.897-65.193-261.93-117.185-386.458c-51.495-123.455-123.951-258.546-223.062-351.303
			c-129.232-121.063-258.547-187.081-385.057-247.571c-222.896-106.621-376.887-159.601-629.986-184.357
			c-168.597-16.505-297.992-17.577-448.681,71.878c-60.489,35.898-114.791,88.054-161.004,147.801l-134.679-138.805
			c30.121-45.389,62.801-83.02,102.082-118.669c84.669-76.83,202.513-111.488,344.206-133.44
			c190.63-29.543,385.551-7.18,570.074,45.719c170.741,48.936,344.124,93.829,497.453,188.648
			C5380.52,1170.365,5660.109,1455.73,5782.492,1795.729z" style="stroke:black;fill:#1f9d5a"/><path id="180610117" parent_id="180610081" order="7" structure_id="962" d="M5664.4,2090.09
			c0.412,38.208-0.744,76.417-3.301,114.708l-464.773-128.819c-4.292-39.198-10.646-76.004-17.908-107.527
			c-16.67-72.868-65.441-181.057-104.559-244.766c-106.703-173.877-294.361-308.143-495.143-387.86
			c-143.921-57.188-326.464-109.015-484.744-62.306c-63.213,18.65-114.048,60.902-154.979,113.306l-239.566-246.746
			c46.213-59.747,100.514-111.902,161.004-147.8c150.688-89.456,280.086-88.383,448.682-71.878
			c253.1,24.757,407.088,77.736,629.985,184.356c126.509,60.49,255.823,126.51,385.056,247.571
			c99.11,92.756,171.566,227.848,223.063,351.303C5599.207,1828.16,5663.08,1952.193,5664.4,2090.09z" style="stroke:black;fill:#1f9d5a"/><path id="180610116" parent_id="180610081" order="8" structure_id="767" d="M5196.326,2075.979l-331.333-91.849
			c-16.753-65.854-102.66-171.649-192.774-235.688c-105.879-75.263-209.033-110.087-324.566-115.533
			c-47.038-2.229-95.479,10.067-134.102,36.723l-274.556-282.808c40.933-52.403,91.768-94.655,154.979-113.305
			c158.279-46.709,340.822,5.116,484.744,62.305c200.779,79.718,388.438,213.984,495.143,387.861
			c39.116,63.707,87.889,171.896,104.559,244.765C5185.68,1999.974,5192.034,2036.78,5196.326,2075.979z" style="stroke:black;fill:#1f9d5a"/><path id="180610115" parent_id="180610081" order="9" structure_id="1021" d="M4335.852,1795.563
			l-122.301-125.931c38.621-26.655,87.063-38.951,134.102-36.723c115.533,5.446,218.688,40.271,324.566,115.532
			c90.115,64.038,176.021,169.834,192.774,235.688l-170.742-47.286c0,0-34.164-29.213-94.324-60.902
			c-60.077-31.771-146.149-65.937-249.8-76.004l-8.005,2.063L4335.852,1795.563z" style="stroke:black;fill:#1f9d5a"/><path id="180610122" parent_id="180610081" order="10" structure_id="171" d="M3564.749,1001.274l134.679,138.804
			c-56.94,73.693-101.669,158.939-130.305,239.482c-23.768,66.598-45.389,136.329-64.204,207.795l-131.13-33.588
			c3.054-25.83,5.859-49.762,8.335-70.805c16.505-140.29,55.126-228.095,107.28-342.473
			C3514.327,1085.86,3538.589,1040.638,3564.749,1001.274z" style="stroke:black;fill:#2fa850"/><path id="180610121" parent_id="180610081" order="11" structure_id="304" d="M3699.428,1140.079
			l239.566,246.746c-46.709,59.665-80.626,132.285-105.383,198.056c-9.243,24.51-19.063,51.165-28.885,79.389l-299.809-76.912
			c18.814-71.465,40.437-141.198,64.204-207.795C3597.759,1299.02,3642.487,1213.771,3699.428,1140.079z" style="stroke:black;fill:#2fa850"/><path id="180610120" parent_id="180610081" order="12" structure_id="363" d="M3938.994,1386.824l274.556,282.808
			c-22.28,15.351-41.345,35.403-55.044,60.242c-4.208,7.675-7.757,15.02-10.729,22.281l-343.052-87.889
			c9.82-28.223,19.642-54.878,28.884-79.388C3858.368,1519.109,3892.285,1446.489,3938.994,1386.824z" style="stroke:black;fill:#2fa850"/><path id="180610119" parent_id="180610081" order="13" structure_id="84" d="M4213.551,1669.632l122.3,125.931
			l-4.374,3.714l-183.697-47.121c2.972-7.263,6.521-14.606,10.729-22.281C4172.206,1705.035,4191.27,1684.982,4213.551,1669.632z" style="stroke:black;fill:#2fa850"/><path id="180610106" parent_id="180610081" order="14" structure_id="448" d="M5165.214,3027.559l81.78,189.475
			c-27.563,5.611-55.785,6.105-84.586,0.165l-2.229-1.568c0,0-160.18-139.877-242.538-195.086
			c-77.653-51.989-183.615-119.659-268.202-150.604c-105.548-38.621-203.833-86.814-305.007-95.811l0.495-5.199l-0.908-298.734
			c67.752-7.51,143.344,15.597,187.329,58.509c22.28,21.787,39.116,48.606,58.509,72.786c26.16,32.597,50.918,66.02,77.902,97.873
			C4774.382,2825.128,4973.759,3019.553,5165.214,3027.559z" style="stroke:black;fill:#248a5e"/><path id="180610105" parent_id="180610081" order="15" structure_id="412" d="M4925.07,2471.514
			l240.144,556.043c-191.455-8.005-390.832-202.43-497.453-328.195c-26.983-31.854-51.742-65.276-77.901-97.873
			c-19.394-24.181-36.229-51-58.51-72.786c-43.984-42.912-119.576-66.02-187.328-58.509l-0.744-283.882
			c103.155-6.271,190.465,13.864,298.736,101.257C4709.188,2341.787,4820.514,2431.49,4925.07,2471.514z" style="stroke:black;fill:#248a5e"/><path id="180610104" parent_id="180610081" order="16" structure_id="630" d="M4727.509,2013.921
			l197.562,457.593c-104.558-40.023-215.881-129.727-283.057-183.945c-108.271-87.393-195.581-107.527-298.736-101.256
			l-0.742-246.498c6.271-0.33,12.627-0.908,18.897-1.567c74.271-8.252,156.136,11.141,209.033,19.228
			C4620.145,1965.067,4676.921,1991.722,4727.509,2013.921z" style="stroke:black;fill:#248a5e"/><path id="180610103" parent_id="180610081" order="17" structure_id="440" d="M4694.251,1936.844l33.258,77.077
			c-50.588-22.199-107.364-48.854-157.043-56.446c-52.897-8.087-134.763-27.479-209.033-19.228
			c-6.271,0.66-12.626,1.238-18.897,1.567L4342.122,1802l8.005-2.063c103.65,10.067,189.723,44.232,249.8,76.004
			C4660.087,1907.63,4694.251,1936.844,4694.251,1936.844z" style="stroke:black;fill:#248a5e"/><path id="180610126" parent_id="180610081" order="18" structure_id="484" d="M3373.789,1553.77l131.13,33.587
			c-55.703,211.59-86.897,438.859-75.757,648.8c4.457,83.101,5.363,219.183,40.437,312.434l-97.955,85.165
			c-30.039-60.241-48.194-121.64-61.066-192.114c-33.835-184.854-9.408-319.614,15.844-504.798
			C3341.605,1825.354,3360.09,1670.127,3373.789,1553.77z" style="stroke:black;fill:#248a5e"/><path id="180610125" parent_id="180610081" order="19" structure_id="582" d="M3504.919,1587.355
			l299.81,76.912c-24.593,70.394-49.35,150.441-66.02,230.571c-19.725,94.242-28.225,188.566-12.296,267.376
			c10.894,54.219,38.456,83.68,75.427,97.542L3469.6,2548.59c-35.072-93.251-35.979-229.333-40.438-312.434
			C3418.021,2026.217,3449.216,1798.947,3504.919,1587.355z" style="stroke:black;fill:#248a5e"/><path id="180610124" parent_id="180610081" order="20" structure_id="620" d="M4201.915,1911.921
			l-400.075,347.837c-36.971-13.863-64.533-43.324-75.427-97.542c-15.928-78.81-7.428-173.135,12.296-267.376
			c16.67-80.13,41.427-160.178,66.02-230.57l343.052,87.888c-17.99,42.913-15.599,78.066-0.083,105.795
			C4160.652,1881.14,4179.387,1898.883,4201.915,1911.921z" style="stroke:black;fill:#248a5e"/><path id="180610123" parent_id="180610081" order="21" structure_id="910" d="M4331.477,1799.277
			l-129.562,112.645c-22.528-13.039-41.263-30.781-54.22-53.97c-15.515-27.729-17.906-62.883,0.084-105.795L4331.477,1799.277z" style="stroke:black;fill:#248a5e"/><path id="180610102" parent_id="180610081" order="22" structure_id="969" d="M4344.021,2470.194l0.908,298.735
			l-0.496,5.198c-61.894-5.446-124.857,3.714-191.289,38.621c-57.85,30.534-110.748,70.724-174.291,90.858
			c-32.103,10.232-65.771,13.039-98.039,22.363c-33.174,9.655-55.207,17.99-88.959,25.83c-32.516,7.593-80.379,9.737-114.132,18.237
			l-3.383-0.165c-34.743-19.146-73.116-32.185-105.796-55.043c-74.85-52.236-116.523-147.635-163.893-222.4
			c-12.379-19.642-23.354-39.116-33.01-58.675l97.955-85.165c8.83,23.521,19.807,44.315,33.588,60.82
			c106.373,127.911,297.003,102.494,454.788,94.737c142.353-6.933,193.105-47.039,265.892-165.048
			C4249.777,2497.179,4294.836,2475.559,4344.021,2470.194z" style="stroke:black;fill:#248a5e"/><path id="180610101" parent_id="180610081" order="23" structure_id="288" d="M4343.277,2186.313
			l0.742,283.882c-49.185,5.364-94.242,26.985-120.153,68.907c-72.786,118.009-123.538,158.114-265.892,165.047
			c-157.784,7.757-348.414,33.174-454.787-94.737c-13.782-16.505-24.759-37.302-33.588-60.82l332.24-288.833
			c91.354,34.083,240.145-27.066,336.779-43.737C4217.182,2202.487,4282.953,2189.861,4343.277,2186.313z" style="stroke:black;fill:#248a5e"/><path id="180610100" parent_id="180610081" order="24" structure_id="1125" d="M4342.535,1939.814
			l0.742,246.498c-60.324,3.548-126.096,16.175-204.658,29.707c-96.635,16.67-245.426,77.82-336.779,43.737l400.075-347.837
			C4241.277,1934.616,4291.948,1942.785,4342.535,1939.814z" style="stroke:black;fill:#248a5e"/><path id="180610099" parent_id="180610081" order="25" structure_id="608" d="M4342.122,1802l0.413,137.814
			c-50.587,2.971-101.257-5.199-140.62-27.894l129.562-112.645L4342.122,1802z" style="stroke:black;fill:#248a5e"/><path id="180610110" parent_id="180610081" order="26" structure_id="996" d="M5538.634,2708.852l114.708,104.889
			c-85.164,129.066-232.717,368.056-406.348,403.293l-81.78-189.476c51,2.229,101.505-8.83,149.451-37.961
			C5419.471,2925.972,5488.872,2821.744,5538.634,2708.852z" style="stroke:black;fill:#219866"/><path id="180610109" parent_id="180610081" order="27" structure_id="328" d="M5170.248,2372.073
			l368.386,336.778c-49.763,112.893-119.164,217.119-223.969,280.744c-47.946,29.132-98.451,40.189-149.451,37.961l-240.144-556.043
			c69.401,26.572,135.834,31.276,184.521-10.646C5136.248,2437.927,5156.055,2407.311,5170.248,2372.073z" style="stroke:black;fill:#219866"/><path id="180610108" parent_id="180610081" order="28" structure_id="1101" d="M4812.096,2044.62l358.152,327.454
			c-14.193,35.236-34,65.854-60.654,88.795c-48.688,41.922-115.121,37.218-184.522,10.646l-197.562-457.593
			C4759.279,2027.867,4788.576,2039.998,4812.096,2044.62z" style="stroke:black;fill:#219866"/><path id="180610107" parent_id="180610081" order="29" structure_id="783" d="M4694.251,1936.844
			l117.845,107.776c-23.52-4.622-52.814-16.752-84.586-30.699L4694.251,1936.844z" style="stroke:black;fill:#219866"/><path id="180610085" parent_id="180610081" order="30" structure_id="698" d="M5160.174,3215.645
			c0,0-160.141-139.928-242.552-195.105c-77.662-52.013-183.615-119.66-268.2-150.605c-170.035-62.207-321.252-149.324-496.26-57.16
			c-57.855,30.47-110.754,70.668-174.268,90.831c-32.129,10.194-65.832,13.013-98.093,22.371
			c-33.146,9.614-55.187,17.956-88.931,25.806c-32.564,7.583-80.396,9.742-114.16,18.212l-26.053-11.733
			c7.664,3.692,15.255,7.51,22.684,11.604c-73.135,24.228-128.178,69.09-169.504,126.896
			c-132.949,185.945-121.215,518.278-115.766,715.545c6.995,253.283,82.426,481.224,236.691,683.799
			c99.445,130.588,197.353,237.705,369.209,259.062c164.814,20.479,365.197-8.437,517.552-76.083
			c228.05-101.254,447.873-334.13,561.319-554.688C5178.925,3920.1,5359.711,3402.03,5160.174,3215.645z M4339.955,3559.013
			c-3.9,8.89-34.331,44.591-41.262,53.64c-14.547,19.027-23.912,31.561-35.072,52.609c-8.396,15.836-17.561,39.497-31.979,55.703
			c-14.53,16.336-38.506,27.609-54.672,33.01c-22.768,7.6-42.851-3.288-65.205-37.645c-15.916-24.604-3.498-48.441,14.819-68.509
			c33.55-36.725,99.729-97.61,151.46-106.685C4309.033,3535.698,4352.745,3529.871,4339.955,3559.013z" style="stroke:black;fill:#9ad2bd"/><path id="180610086" parent_id="180610081" order="31" structure_id="507" d="M3742.625,4561.189
			c-25.384-30.947-46.675-64.588-65.352-99.824c114.013-57.127,273.484-44.127,293.888-202.981
			c5.729-44.614-0.693-89.245,7.213-134.013c25.088-141.967,98.521-311.511,41.794-452.414
			c-44.074-109.496-81.139-221.877-107.95-336.888c-24.459-104.942-60.297-183.889-126.533-272.062
			c-86.688-115.396-185.298-85.316-264.401,12.141c-6.211,7.326-12.058,15.006-17.558,22.98c-1.689,2.451-3.36,4.937-5.017,7.441
			c-0.01,0.016-0.021,0.03-0.029,0.045c-0.347,0.523-0.691,1.049-1.036,1.576c-83.543,124.871-106.503,305.691-110.934,469.751
			c-1.289,37.66-1.236,75.46-0.586,113.229c0.522,39.871,1.633,77.396,2.567,111.26c0.496,17.953,1.315,35.896,2.455,53.813
			c13.595,237.129,88.971,451.563,234.961,643.276c47.646,62.563,97.975,124.502,160.56,172.832
			c30.818,23.79,64.238,43.1,100.004,58.482c37.757,16.248,77.213,16.521,117.072,24.42
			C3908.068,4701.988,3812.779,4646.721,3742.625,4561.189z" style="stroke:black;fill:#9ad2bd"/><path id="180610091" parent_id="180610081" order="32" structure_id="212" d="M3503.727,3098.13
			c13.828-20.051,29.81-38.28,48.409-53.544c16.585-13.604,35.169-38.627,58.29-39.11c3.385,25.476-28.108,48.402-42.809,65.044
			c-21.864,24.749-32.744,55.85-44.993,86.303c-23.758,59.024-38.909,121.207-46.354,184.356
			c-18.754,159.044-5.786,323.68,1.418,483.263c5.979,132.4,40.473,246.476,89.293,368.803
			c49.926,125.074,88.914,262.205,175.646,367.946c70.153,85.528,165.442,140.798,261.118,193.067
			c-39.859-7.897-79.315-8.172-117.072-24.418c-35.766-15.385-69.186-34.693-100.004-58.483
			c-62.585-48.33-112.914-110.271-160.559-172.832c-154.265-202.578-229.696-430.519-236.691-683.802
			c-2.82-102.02-7.422-205.633,1.402-307.44c7.769-89.646,18.246-178.184,43.913-264.503
			C3449.223,3194.063,3473.739,3141.615,3503.727,3098.13z" style="stroke:black;fill:#82c7ae"/><path id="180610087" parent_id="180610081" order="33" structure_id="220" d="M3697.939,3772.275
			c-5.521-59.418-9.914-118.957-13.838-178.377c-7.923-119.933-20.64-234.725-0.233-353.884
			c10.969-64.077,15.683-129.901,29.093-193.446c14.522-68.809,49.619-15.507,73.079,15.754
			c66.236,88.174,102.074,167.118,126.533,272.063c26.813,115.009,63.876,227.392,107.95,336.888
			c56.727,140.902-16.706,310.446-41.794,452.413c-7.906,44.769-1.482,89.397-7.213,134.013
			c-4.19,32.646-14.546,67.074-37.724,91.252c-58.202,60.707-94.267-11.943-123.384-63.424
			c-56.912-100.625-78.356-236.975-93.936-350.064C3709.012,3881.289,3702.999,3826.835,3697.939,3772.275z" style="stroke:black;fill:#82c7ae"/><path id="180610089" parent_id="180610081" order="34" structure_id="228" d="M3795.596,4349.591
			c-1.837-29.996-14.354-68.585-16.447-79.03c-14.434-71.981-43.461-139.42-62.198-210.031
			c-29.149-109.916-38.755-221.557-47.83-334.551c-3.563-44.364-6.406-88.785-8.832-133.224
			c-6.165-112.655-18.955-227.375-7.737-340.756c7.165-72.401,25.16-143.216,32.889-215.545c0.6-5.598,9.428-30.762,17.063-31.954
			c8.929-1.395,16.808,21.708,16.808,21.708c-2.396,5.065-4.532,11.76-6.348,20.36c-13.41,63.545-18.124,129.369-29.093,193.447
			c-20.405,119.158-7.688,233.95,0.233,353.884c3.925,59.419,8.316,118.958,13.837,178.377
			c5.062,54.559,11.073,109.013,18.535,163.186c15.578,113.091,37.023,249.44,93.936,350.064
			c8.832,15.614,18.303,33.176,28.836,48.374c3.524,5.087-3.045,37.781-14.695,42.758
			C3812.898,4381.635,3796.166,4358.895,3795.596,4349.591z" style="stroke:black;fill:#9ad2bd"/><path id="180610088" parent_id="180610081" order="35" structure_id="236" d="M3660.287,3592.755
			c-6.165-112.655-18.955-227.375-7.737-340.756c7.165-72.401,25.16-143.216,32.89-215.545c1.298-12.146,3.11-31.091-6.817-41.093
			c-20.325-20.479-20.438,12.402-18.56,26.176c10.477,76.834-27.934,144.988-35.082,219.421
			c-6.736,70.161-1.909,139.42-10.477,209.153c-5.335,43.414,5.893,80.3,10.855,122.318c7.485,63.278,11.936,129.652,11.895,193.374
			c-0.032,62.481,8.833,122.714,19.52,184.066c7.744,44.47,16.957,90.881,28.021,135.503
			c11.314,45.654,28.037,86.705,43.962,130.619c13.7,37.789,33.519,75.826,37.015,116.459c0.936,10.824-5.617,60,15.885,54.271
			c31.64-8.431,0.887-99.237-2.507-116.162c-14.434-71.981-43.462-139.42-62.198-210.032
			c-29.149-109.916-38.756-221.557-47.83-334.551C3665.559,3681.613,3662.713,3637.191,3660.287,3592.755z" style="stroke:black;fill:#82c7ae"/><path id="180610090" parent_id="180610081" order="36" structure_id="244" d="M3766,4365.796c-1.167-12.931,0.238-27.931-0.229-33.343
			c-3.498-40.633-23.314-78.671-37.016-116.46c-15.925-43.913-32.646-84.965-43.962-130.619
			c-11.063-44.622-20.275-91.032-28.021-135.503c-10.688-61.353-19.553-121.585-19.521-184.065
			c0.041-63.722-4.407-130.097-11.895-193.374c-4.964-42.021-16.19-78.905-10.855-122.318
			c8.566-69.734,3.739-138.993,10.478-209.154c7.147-74.433,45.558-142.587,35.081-219.421c-0.425-3.116-0.748-7.213-0.759-11.446
			c-0.013-5.645-2.885-8.625-7.613-10.054c-4.729-1.428-44.135,24.076-47.245,29.347c-9.335,15.81-26.906,29.904-36.827,41.137
			c-21.864,24.749-32.744,55.849-44.993,86.303c-23.758,59.023-38.909,121.207-46.354,184.355
			c-18.753,159.045-5.786,323.681,1.418,483.264c5.979,132.399,40.473,246.475,89.294,368.802
			c30.009,75.183,56.066,154.719,90.918,229.177c2.668,5.699,47.137,16.208,73.642,2.243
			C3758.047,4410.7,3766.584,4372.262,3766,4365.796z" style="stroke:black;fill:#9ad2bd"/><path id="180610092" parent_id="180610081" order="37" structure_id="159" d="M5247.749,3428.296
			c-5.487-69.862-31.696-163.677-85.353-209.476c-44.172-37.709-89.367-80.47-135.303-115.929
			c-26.805-20.688-54.156-40.648-81.259-60.95c-26.337-19.735-53.56-37.184-80.88-55.493
			c-15.771-10.573-31.672-20.961-47.709-31.132c-52.883-33.541-108.859-63.803-167.828-85.377
			c-170.035-62.207-321.254-149.323-496.264-57.162c-57.854,30.472-110.754,70.67-174.266,90.832
			c-32.131,10.195-65.834,13.017-98.094,22.373c-33.146,9.613-55.188,17.946-88.932,25.805c-23,5.358-47.507,8.051-71.048,10.451
			c-9.058,0.928-17.979,2.83-26.907,4.078c-6.882,0.967-14.26,4.151-21.19,4.723c16.06-0.646,32.894,0.117,48.599,3.144
			c109.305,21.06,172.334,181.608,207.141,273.513c34.152,90.155,43.72,186.17,79.203,275.648
			c35.468,89.404,71.482,184.292,68.234,282.07c-3.908,117.539-56.984,225.716-68.848,341.271
			c-12.862,125.381-9.324,250.827-150.389,289.229c-37.975,10.34-77.753,21.349-115.598,32.34
			c-18.727,5.438-33.868,12.59-48.392,20.715c14.83,25.238,31.284,49.459,49.954,72.222
			c70.153,85.528,165.441,140.798,261.118,193.067c-23.73-4.701-47.317-6.703-70.488-10.979c11.877,3.252,23.967,5.951,36.278,8.021
			c26.756,4.504,49.771,8.011,76.897,8.873c175.693,5.592,304.46-9.735,464.761-80.903
			c228.052-101.253,451.27-334.133,561.321-554.688c34.862-69.871,67.462-141.049,92.267-215.117
			C5214.868,3759.857,5260.232,3587.162,5247.749,3428.296z M4339.955,3559.013c-3.9,8.89-34.331,44.591-41.262,53.64
			c-14.547,19.027-23.912,31.561-35.072,52.609c-8.396,15.836-17.561,39.497-31.979,55.703
			c-14.53,16.336-38.506,27.609-54.672,33.01c-22.768,7.6-42.851-3.288-65.205-37.645c-15.916-24.604-3.498-48.441,14.819-68.509
			c33.55-36.725,99.729-97.61,151.46-106.685C4309.033,3535.698,4352.745,3529.871,4339.955,3559.013z" style="stroke:black;fill:#54bf94"/><path id="180610095" parent_id="180610081" order="38" structure_id="167" d="M4896.436,3207.707
			c-42.188,41.955-96.063,77.277-140.912,118.41c-50.586,46.396-127.379,116.031-195.373,131.224l-6.539,3.379
			c-0.416-1.649-0.979-3.288-1.696-4.91c-14.185-31.993-67.155-20.204-94.201-18.655c-19.081,1.093-41.565,3.071-65.319,6.582
			l-1.416-7.025c-32.221-121.198-66.567-276.391-61.894-402.303l3.642-5.566c199.41-9.706,434.826,31.006,568.927,174.267
			L4896.436,3207.707z" style="stroke:black;fill:#54bf94"/><path id="180610097" parent_id="180610081" order="39" structure_id="175" d="
			M4306.93,4569.563c33.09-30.81,47.854-73.707,13.482-111.816c-19.85-22.01-43.994-39.473-68.952-55.221
			c-24.78-15.65-44.646-35.959-67.115-54.695c-20.614-17.189-43.301-33.719-70.308-38.563
			c-75.35-13.498-103.259,29.607-108.175,85.109c-10.814,122.189,63.786,184.605,177.628,214.505
			C4222.424,4619.102,4273.84,4600.373,4306.93,4569.563z" style="stroke:black;fill:#54bf94"/><path id="180610093" parent_id="180610081" order="40" structure_id="183" d="M4560.15,3457.341
			c67.992-15.19,144.787-84.827,195.373-131.224c44.849-41.133,98.723-76.455,140.91-118.41l5.217-4.601
			c35.576,38.005,64.021,83.227,82.771,136.639c40.893,116.483-10.702,221.846-80.09,314.104
			c-81.54,108.408-159.374,216.303-229.02,332.955c-34.721,58.166-72.115,114.566-109.205,171.138l-1.832-1.214
			c-14.095-15.707-30.229-28.852-47.232-41.375c-99.246-73.11-215.295-125.993-278.734-239.206l-1.203-5.493
			c33.217-9.311,66.066-31.175,86.522-57.931c13.604-17.794,25.36-37.264,38.19-55.663
			c49.717-71.257,78.713-160.688,148.076-222.395c17.516-15.577,50.666-46.459,43.717-73.946L4560.15,3457.341z" style="stroke:black;fill:#54bf94"/><path id="180610096" parent_id="180610081" order="41" structure_id="191" d="M4038.5,3600.5c28.273,18.612,80.928,7.388,108.843-7.12
			c23.007-11.958,33.209-32.299,47.694-52.524c45.403-63.398,123.598-86.221,197.354-97.118c0.001,0-1.415-7.026-1.415-7.026
			c-32.221-121.197-66.566-276.39-61.893-402.303l-0.358-5.566c-30.634,1.491-56.419,4.174-84.856,7.855
			c-83.723,10.842-193.179,65.428-240.125,121.804c-25.564,30.699-33.168,47.659-46.243,92c-4.175,14.155-0.727,29.94-0.443,45
			c0.443,23.62,6.379,40.498,7.443,67l1.247,15.686c11.701,48.991,23.205,97.983,41.913,145.159
			c8.866,22.352,17.769,45.045,26.082,68.041L4038.5,3600.5z" style="stroke:black;fill:#54bf94"/><path id="180610094" parent_id="180610081" order="42" structure_id="199" d="M4114.039,4309.268
			c-11.34-2.033-20.493-3.389-28.956-4.965c-13.122-2.444-28.541-1.428-43.916-8.303c-14.125-4.004-28.922-8.727-36.343-20
			c-12.813-19.463-3.033-59.465-1.735-86.992c1.237-26.219,5.94-72.521,12.056-95.31c15.551-57.938,35.079-149.081,62.689-202.531
			c18.281-35.392,53.752-25.241,89.56-18.416c18.828,3.589,38.026,3.873,54.271,1.302c5.125-0.812,10.287-1.953,15.438-3.397
			l1.203,5.493c63.44,113.213,179.489,166.096,278.735,239.205c17.004,12.523,33.139,25.668,47.232,41.375l1.832,1.215
			c-30.402,46.373-60.6,92.859-88.949,140.525c-19.956,33.553-41.852,68.2-74.018,91.404c-16.074,11.596-44.164,19.492-63.08,33.303
			l-5.885,5.025c-2.377,2.601-4.017,5.729-5.086,9.188l-21.646,7.134c-17.003-16.008-36.24-29.54-55.984-41.998
			c-24.781-15.65-44.646-35.96-67.115-54.695C4163.73,4330.641,4141.045,4314.111,4114.039,4309.268z" style="stroke:black;fill:#54bf94"/><path id="180610098" parent_id="180610081" order="43" structure_id="160" d="M5126.84,3337.528
			c-0.359-0.904-0.734-1.825-1.121-2.757c-0.127-0.307-0.262-0.618-0.391-0.927c-0.267-0.636-0.535-1.272-0.813-1.921
			c-0.159-0.369-0.323-0.744-0.485-1.117c-0.262-0.601-0.524-1.203-0.797-1.813c-0.176-0.397-0.355-0.801-0.537-1.203
			c-0.271-0.604-0.547-1.213-0.826-1.825c-0.186-0.404-0.369-0.811-0.559-1.219c-0.297-0.644-0.6-1.293-0.904-1.945
			c-0.18-0.383-0.356-0.764-0.539-1.148c-0.351-0.742-0.709-1.492-1.068-2.244c-0.146-0.306-0.289-0.606-0.438-0.914
			c-0.516-1.066-1.039-2.145-1.572-3.231c-0.057-0.113-0.113-0.229-0.17-0.345c-0.479-0.974-0.964-1.953-1.458-2.941
			c-0.185-0.368-0.372-0.741-0.558-1.11c-0.373-0.741-0.746-1.483-1.125-2.232c-0.222-0.438-0.444-0.876-0.668-1.314
			c-0.354-0.694-0.711-1.394-1.07-2.095c-0.234-0.456-0.471-0.913-0.706-1.371c-0.366-0.711-0.735-1.426-1.108-2.145
			c-0.229-0.439-0.457-0.879-0.688-1.321c-0.396-0.759-0.794-1.521-1.194-2.283c-0.217-0.412-0.432-0.823-0.648-1.237
			c-0.463-0.878-0.932-1.762-1.4-2.646c-0.155-0.295-0.311-0.588-0.467-0.885c-0.633-1.19-1.271-2.39-1.916-3.593
			c-0.117-0.218-0.235-0.438-0.354-0.655c-0.525-0.981-1.055-1.965-1.586-2.952c-0.225-0.417-0.452-0.837-0.678-1.257
			c-0.435-0.803-0.869-1.604-1.306-2.412c-0.248-0.455-0.496-0.914-0.744-1.371c-0.422-0.776-0.847-1.557-1.271-2.336
			c-0.254-0.467-0.508-0.934-0.764-1.399c-0.43-0.788-0.859-1.576-1.292-2.366c-0.242-0.44-0.481-0.883-0.726-1.324
			c-0.49-0.896-0.979-1.791-1.473-2.687c-0.182-0.329-0.359-0.657-0.541-0.986c-0.633-1.15-1.266-2.303-1.9-3.457
			c-0.045-0.082-0.09-0.164-0.136-0.246c-2.392-4.346-4.798-8.706-7.196-13.056c-0.26-0.472-0.52-0.943-0.778-1.414
			c-0.386-0.699-0.771-1.398-1.153-2.097c-0.348-0.628-0.691-1.255-1.037-1.882c-0.322-0.588-0.646-1.176-0.97-1.763
			c-0.403-0.733-0.806-1.468-1.208-2.2c-0.273-0.498-0.548-0.996-0.818-1.492c-0.547-0.997-1.092-1.991-1.635-2.984
			c-0.125-0.229-0.252-0.46-0.377-0.688c-0.664-1.216-1.324-2.427-1.982-3.636c-0.195-0.36-0.391-0.72-0.586-1.078
			c-0.462-0.852-0.923-1.699-1.381-2.545c-0.246-0.455-0.49-0.907-0.734-1.36c-0.405-0.751-0.812-1.501-1.213-2.247
			c-0.263-0.487-0.522-0.973-0.783-1.457c-0.388-0.723-0.771-1.44-1.155-2.158c-0.254-0.477-0.508-0.951-0.761-1.425
			c-0.393-0.734-0.78-1.466-1.168-2.195c-0.24-0.454-0.481-0.909-0.721-1.361c-0.412-0.78-0.82-1.555-1.227-2.327
			c-0.203-0.39-0.41-0.779-0.613-1.168c-1.209-2.31-2.391-4.591-3.541-6.836c-0.171-0.336-0.339-0.668-0.509-1.002
			c-0.399-0.781-0.796-1.563-1.187-2.336c-0.207-0.407-0.408-0.813-0.611-1.218c-0.35-0.696-0.697-1.391-1.04-2.079
			c-0.211-0.425-0.42-0.847-0.628-1.269c-0.329-0.666-0.654-1.328-0.977-1.986c-0.205-0.42-0.41-0.84-0.612-1.257
			c-0.323-0.667-0.642-1.327-0.956-1.986c-0.188-0.39-0.375-0.781-0.561-1.168c-0.349-0.732-0.688-1.457-1.024-2.179
			c-0.14-0.298-0.282-0.599-0.419-0.894c-0.473-1.017-0.934-2.021-1.383-3.013c-0.043-0.095-0.082-0.187-0.125-0.28
			c-0.4-0.889-0.793-1.768-1.174-2.636c-0.137-0.308-0.266-0.608-0.396-0.914c-0.283-0.647-0.562-1.292-0.83-1.927
			c-0.148-0.351-0.293-0.694-0.438-1.04c-0.244-0.583-0.483-1.162-0.718-1.733c-0.145-0.352-0.284-0.699-0.424-1.048
			c-0.225-0.56-0.443-1.112-0.656-1.659c-0.131-0.337-0.264-0.674-0.391-1.006c-0.215-0.561-0.42-1.111-0.621-1.658
			c-0.111-0.3-0.225-0.602-0.331-0.896c-0.229-0.634-0.444-1.252-0.655-1.866c-0.065-0.193-0.139-0.393-0.203-0.585
			c-0.271-0.805-0.528-1.594-0.77-2.364c-0.041-0.135-0.076-0.262-0.117-0.395c-0.191-0.627-0.375-1.244-0.543-1.848
			c-0.068-0.241-0.128-0.476-0.191-0.714c-0.131-0.48-0.256-0.959-0.369-1.424c-0.063-0.261-0.123-0.517-0.182-0.771
			c-0.1-0.43-0.193-0.853-0.277-1.267c-0.053-0.254-0.102-0.505-0.147-0.753c-0.076-0.404-0.144-0.799-0.205-1.188
			c-0.036-0.232-0.074-0.468-0.104-0.694c-0.056-0.399-0.099-0.785-0.137-1.167c-0.02-0.195-0.044-0.396-0.061-0.586
			c-0.035-0.457-0.056-0.897-0.064-1.327c-0.003-0.097-0.012-0.201-0.014-0.297c-0.004-0.522,0.013-1.022,0.047-1.502
			c0.01-0.11,0.027-0.21,0.037-0.317c0.029-0.302,0.058-0.604,0.104-0.888l-15.974-52.613c-5.442-4.399-10.901-8.786-16.348-13.132
			c-20.506-15.48-41.216-30.691-61.783-46.1c-26.337-19.735-53.561-37.184-80.88-55.493c-7.292-4.89-14.614-9.732-21.962-14.538
			c-60.546-38.126-127.271-76.363-185.084-98.775c-2.825-1.079-5.652-2.154-8.491-3.193
			c-110.255-40.338-212.599-91.146-318.646-96.763c-0.013-0.001-0.023-0.001-0.035-0.002c-1.992-0.104-3.985-0.188-5.98-0.263
			c-0.799-0.028-1.598-0.059-2.396-0.081c-0.729-0.022-1.459-0.041-2.188-0.06c-1.604-0.037-3.21-0.07-4.816-0.086
			c-0.035,0-0.069,0-0.104,0c-1.832-0.019-3.665-0.021-5.5-0.01c-0.155,0.001-0.312,0.002-0.467,0.003
			c-36.87,0.271-74.272,6.382-112.7,20.625c-0.271,0.101-0.541,0.202-0.813,0.304c-1.631,0.608-3.263,1.234-4.896,1.873
			c-0.326,0.127-0.65,0.25-0.979,0.379c-1.617,0.639-3.235,1.297-4.856,1.963c-0.817,0.338-1.636,0.68-2.455,1.023
			c-0.798,0.335-1.597,0.678-2.396,1.02c-8.951,3.844-17.961,8.133-27.033,12.91c-14.838,7.814-29.349,16.271-43.795,24.861
			c-31.235,18.592-62.179,37.807-95.486,52.587c-0.096,0.042-0.188,0.086-0.283,0.128c-0.214,0.095-0.431,0.186-0.645,0.28
			c-11.06,4.878-22.379,9.268-34.059,12.976c-0.577,0.185-1.159,0.348-1.737,0.525c-1.335,0.414-2.68,0.822-4.039,1.223
			c-0.172,0.05-0.345,0.102-0.518,0.15c-59.019,17.26-139.451,22.596-180.136,75.589c1.369-1.493-4.19,0.793-4.805,1.189
			c-7.406,4.788-4.871,14.677,2.229,26.272c39.84,33.35,71.221,85.052,95.77,136.386c7.246,10.17,15.757,18.935,26.744,25.074
			c21.106-7.229,66.086-7.086,78.51-25.146c27.175,3.109,34.175-15.973,50.98-26.449c16.881-10.521,36.604-18.595,54.77-30.871
			c43.53-29.423,95.577-44.175,147.218-50.859c262.648-34.007,640.252,17.371,740.545,303.05
			c40.893,116.483-10.702,221.847-80.09,314.104c-81.54,108.408-159.374,216.303-229.02,332.956
			c-35.121,58.835-72.977,115.864-110.483,173.091c-1.29,1.969-2.579,3.939-3.868,5.91c-2.717,4.148-5.432,8.3-8.143,12.453
			c-1.586,2.43-3.168,4.861-4.752,7.292c-2.431,3.731-4.856,7.466-7.279,11.202c-1.682,2.592-3.357,5.188-5.034,7.782
			c-2.33,3.608-4.655,7.22-6.976,10.833c-1.699,2.646-3.396,5.293-5.088,7.941c-2.311,3.613-4.609,7.234-6.906,10.856
			c-1.662,2.621-3.324,5.24-4.979,7.865c-2.357,3.74-4.701,7.49-7.043,11.24c-1.562,2.501-3.127,5-4.682,7.506
			c-2.566,4.14-5.111,8.292-7.654,12.446c-1.297,2.117-2.604,4.229-3.896,6.351c-3.817,6.278-7.612,12.574-11.371,18.894
			c-19.956,33.553-41.851,68.199-74.017,91.403c-16.076,11.597-44.166,19.492-63.08,33.304l-5.885,5.025
			c-0.34,0.372-0.662,0.758-0.973,1.15c-0.102,0.127-0.195,0.258-0.292,0.388c-0.208,0.274-0.41,0.556-0.604,0.839
			c-0.102,0.148-0.201,0.3-0.299,0.451c-0.188,0.289-0.365,0.583-0.539,0.881c-0.082,0.141-0.166,0.277-0.246,0.421
			c-0.24,0.433-0.471,0.873-0.686,1.321c-0.025,0.055-0.048,0.109-0.072,0.164c-0.188,0.403-0.369,0.813-0.539,1.23
			c-0.065,0.164-0.129,0.331-0.191,0.497c-0.122,0.317-0.238,0.638-0.352,0.96c-0.063,0.182-0.123,0.363-0.184,0.549
			c-3.15,9.775-1.668,22.273,0.512,32.947c9.994,16.011,12.235,32.526,8.859,48.377c-3.965,18.612-15.667,36.309-31.645,51.185
			c-33.09,30.81-84.506,49.538-123.439,39.319c-113.839-29.898-188.439-92.313-177.627-214.5c1.696-19.174,6.08-39.449,17.01-55.646
			c9.455-14.014,37.688-22.418,25.639-40.129c-4.295-6.314-46.973-25.672-54.375-21.822c-8.65,4.5-8.093,27.752-10.526,35.912
			c-5.517,18.482-13.217,36.566-23.807,52.731c-23.979,36.601-61.457,59.135-103.145,70.485
			c-37.974,10.34-77.753,21.349-115.598,32.34c-18.726,5.438-33.868,12.59-48.392,20.715c14.83,25.238,31.284,49.459,49.955,72.222
			c27.904,34.021,60.49,63.925,95.502,90.49c34.967,26.533,72.273,49.813,110.287,71.694c10.109,5.818,20.274,11.541,30.473,17.205
			c5.193,2.883,10.395,5.752,15.602,8.61c4.424,2.429,9.516,5.993,14.375,7.325c11.981,3.283,25.128,3.262,37.568,3.657
			c175.686,5.593,304.45-9.733,464.742-80.896c9.635-4.276,32.057-9.104,36.859-19.59c9.039-19.726-15.373-15.289-27.979-20.15
			c-39.344-15.176-59.859-67.264-38.198-103.848c0.724-1.223,1.467-2.436,2.226-3.642c4.465-7.11,9.519-13.948,15.055-20.552
			c0.044-0.055,0.085-0.109,0.13-0.162c0.106-0.127,0.22-0.249,0.327-0.376c1.374-1.63,2.773-3.246,4.207-4.847
			c0.275-0.31,0.553-0.617,0.831-0.924c1.215-1.345,2.454-2.676,3.708-4c0.523-0.556,1.046-1.11,1.575-1.66
			c1.206-1.252,2.433-2.494,3.672-3.729c0.687-0.686,1.378-1.365,2.071-2.043c1.117-1.09,2.244-2.175,3.387-3.252
			c0.768-0.727,1.543-1.443,2.318-2.161c0.953-0.881,1.912-1.758,2.881-2.63c0.688-0.621,1.375-1.243,2.069-1.857
			c1.338-1.187,2.69-2.363,4.056-3.537c0.461-0.395,0.922-0.791,1.385-1.185c1.61-1.371,3.24-2.733,4.885-4.086
			c0.25-0.206,0.502-0.41,0.754-0.616c1.703-1.395,3.42-2.779,5.155-4.154c0.063-0.051,0.128-0.104,0.192-0.154
			c0.021-0.018,0.045-0.034,0.066-0.053c1.669-1.32,3.355-2.631,5.053-3.936c0.724-0.557,1.447-1.113,2.174-1.667
			c0.467-0.354,0.938-0.707,1.408-1.062c23.037-17.424,47.461-32.905,71.813-48.455c6.607-4.226,13.171-8.429,19.639-12.629
			c1.502-0.978,3.004-1.955,4.502-2.938c0.336-0.22,0.672-0.44,1.008-0.66c2.055-1.351,4.105-2.704,6.153-4.065
			c0.328-0.217,0.653-0.436,0.981-0.652c1.563-1.041,3.121-2.09,4.679-3.141c1.382-0.933,2.758-1.867,4.124-2.801
			c0.242-0.166,0.484-0.332,0.727-0.498c6.939-4.763,13.672-9.553,20.119-14.4c0.395-0.297,0.789-0.594,1.182-0.893
			c1.395-1.057,2.771-2.115,4.139-3.178c1.342-1.045,2.683-2.097,4.012-3.16c0.456-0.364,0.913-0.729,1.366-1.095
			c2.009-1.626,4.005-3.269,5.978-4.94c104.313-88.479,202.642-258.321,257.023-377.966
			C5041.923,3799.249,5211.057,3549.342,5126.84,3337.528z" style="stroke:black;fill:#54bf94"/><path id="180610128" parent_id="180610081" order="44" structure_id="1009" d="M5233.38,3654.672
			c-12.888,66.438-31.567,132.497-51.94,199.549c-19.574,64.431-43.381,128.273-70.121,190.078
			c-11.701,27.028-23.998,53.905-37.474,80.104c-53.915,104.823-124.285,200.91-204.028,287.521
			c-46.162,50.135-89.955,94.449-144.674,134.672c-48.967,35.983-113.172,94.597-176.162,98.344
			c-49.974,2.975-96.619-59.436-67.123-109.248c44.559-75.246,154.508-120.238,220.002-175.789
			c104.314-88.479,202.643-258.32,257.024-377.965c83.039-182.688,252.173-432.596,167.956-644.408
			c-24.418-61.418-112.811-189.651-79.8-189.651c88.713,12.379,180.835,135.834,194.785,220.356
			C5258.137,3467.012,5251.496,3561.221,5233.38,3654.672z" style="stroke:black;fill:#cccccc"/><path id="180610129" parent_id="180610081" order="45" structure_id="1009" d="M4330.646,3539.02
			c23.621,5.391,0.178,34.226-8.944,45.299c-20.356,24.725-39.916,48.975-55.333,77.164c-18.117,33.139-25.7,57.018-53.641,77.027
			c-31.971,22.903-119.008,9.323-112.906,66.566c6.423,59.765,70.732,77.066,121.844,68.977
			c38.168-6.043,78.334-30.423,101.963-61.328c13.604-17.795,25.36-37.265,38.19-55.664
			c49.716-71.257,78.712-160.687,148.075-222.395c18.566-16.513,54.704-50.223,42.02-78.855
			c-14.184-31.994-67.154-20.205-94.201-18.656c-83.596,4.787-232.508,26.595-267.469,119.587
			c-2.45,6.511-5.964,20.228,3.738,22.299c14.53,3.103,31.351-15.949,43.115-23.049c28.207-17.013,59.646-23.169,92.26-17.238
			C4329.801,3538.833,4330.229,3538.922,4330.646,3539.02z" style="stroke:black;fill:#cccccc"/><path id="180610127" parent_id="180610081" order="46" structure_id="98" d="M4263.621,3665.262
			c-8.396,15.836-17.561,39.497-31.979,55.703c-14.53,16.336-38.506,27.61-54.672,33.01c-22.768,7.601-42.851-3.288-65.205-37.644
			c-15.916-24.604-3.498-48.442,14.819-68.509c33.55-36.726,99.729-97.61,151.46-106.686c30.986-5.439,74.699-11.268,61.909,17.875
			c-3.899,8.889-34.331,44.59-41.263,53.64C4284.146,3631.68,4274.782,3644.212,4263.621,3665.262z" style="stroke:black;fill:#aaaaaa"/></g>
</g>
</svg>