<?xml version="1.0" encoding="utf-8"?>
<!-- Generator: Adobe Illustrator 16.0.0, SVG Export Plug-In . SVG Version: 6.00 Build 0)  -->
<!DOCTYPE svg PUBLIC "-//W3C//DTD SVG 1.1//EN" "http://www.w3.org/Graphics/SVG/1.1/DTD/svg11.dtd">
<svg version="1.1" id="Layer_1" xmlns="http://www.w3.org/2000/svg" xmlns:xlink="http://www.w3.org/1999/xlink" x="0px" y="0px"
	 width="9744.01px" height="6823.46px" viewBox="0 0 9744.01 6823.46" enable-background="new 0 0 9744.01 6823.46"
	 xml:space="preserve">
<g transform="scale(1.0)">
	<g id="_x31_80630513" transform=" scale(1.0, 1.0)">
		<path id="_x31_80630517" fill="none" stroke="#010101" stroke-width="64" d="M4909.945,6275.102
			c464.641,23.434,774.379-128.098,1173.594-311.17c101.91-46.738,138.529-110.941,195.955-209.633
			c26.965,89.051,115.186,84.92,156.029,164.34c33.609,65.363,35.873,128.305,83.5,187.508
			c107.545,133.666,255.074,191.453,407.842,249.577c166.803,63.454,338.453,161.179,521.566,108.798
			c153.68-43.96,282.223-187.623,380.328-311.119c55.932-70.414,109.225-142.816,162.752-215.08
			c75.615-102.088,135.475-215.062,198.859-325.347c97.377-169.438,197.41-338.646,281.5-515.591
			c45.004-94.706,89.338-187.41,133.812-282.455c83.004-177.41,165.072-355.284,248.121-532.672
			c85.104-181.738,212.633-346.238,223.641-555.593c7.273-138.187,9.908-276.733,4.242-415.047
			c-2.443-59.618-10.139-122-24.188-179.92c-12.762-52.538-37.25-101.532-36.676-156.979c1.246-117.254-20-245.515-58.309-358.265
			c-34.104-100.372-57.094-201.677-104.732-296.677c-49.41-98.528-103.721-194.407-152.525-293.24
			c-81.5-165.054-191.795-333.152-298.531-482.061c-79.641-111.111-167.242-217.056-263.045-313.654
			C7826.998,911.48,7447.062,726.1,7025.586,601.162c-172.918-51.257-343.574-111.552-519.539-151.07
			c-172.219-38.67-334.967-41.848-510.086-41.394c-147.912,0.386-305.082,0.364-451.486,22.885
			c-136.729,21.033-262.684,54.655-388.6,114.282c-109.152,51.683-256.998,107.234-256.709,256.058
			c0.918,465.686,2.15,1091.745,2.15,1091.745L4909.945,6275.102z"/>
		<path id="_x31_80630518" fill="none" stroke="#010101" stroke-width="64" d="M4899.161,801.923
			c-0.284-148.824,147.562-204.373,256.714-256.058c125.916-59.625,251.87-93.25,388.6-114.281
			c146.404-22.523,303.574-22.498,451.486-22.887c175.117-0.454,337.867,2.724,510.082,41.396
			c175.969,39.516,346.625,99.812,519.543,151.068c421.477,124.939,801.408,310.321,1118.096,629.661
			c95.803,96.597,183.404,202.542,263.045,313.653c106.734,148.908,217.031,317.007,298.531,482.061
			c48.805,98.833,103.115,194.712,152.525,293.24c47.639,95.003,70.629,196.305,104.732,296.679
			c38.309,112.749,59.553,241.01,58.309,358.263c-0.578,55.447,23.914,104.441,36.676,156.979
			c14.049,57.919,21.744,120.303,24.188,179.92c5.666,138.314,3.031,276.857-4.242,415.047
			c-11.008,209.354-138.537,373.854-223.641,555.593c-83.049,177.388-165.117,355.262-248.119,532.674
			c-44.477,95.043-88.812,187.747-133.814,282.453c-84.09,176.945-184.123,346.156-281.5,515.591
			c-63.385,110.284-123.248,223.259-198.859,325.347c-53.527,72.268-106.82,144.666-162.752,215.083
			c-98.105,123.501-226.648,267.156-380.332,311.116c-183.109,52.385-354.76-45.344-521.562-108.798
			c-152.768-58.12-300.297-115.911-407.842-249.577c-33.775-41.975-44.73-85.844-60.236-131.107
			c-6.039-17.619,22.564-101.154,28.072-123.285c38.332-154.015,111.48-343.866,287.914-352.73
			c90.82-4.567,178.268,20.818,267.562,32.727c81.852,10.91,183.746,0.235,263.096-23.184c42.746-12.602,89.045-25.43,122.49-57.393
			c34.008-32.496,68.312-82.064,86.768-125.652c17.906-42.305,38.859-93.242,39.539-140.259
			c0.363-25.372,13.154-46.467,27.045-66.382c10.633-15.253,33.785-28.002,39.676-45.263c8.369-24.542,2.832-54.295,10.51-80.846
			c7.086-24.518,23.273-42.19,36.646-63.146c19.219-30.115,35.441-66.123,50.088-98.92c9.135-20.436,17.229-41.504,23.52-63.066
			c4.941-16.938,4.393-42.392,11.723-57.58c-14.174,29.375-50.529,60.924-73.641,82.25c-29.064,26.809-55.865,54.191-81.396,84.699
			c-24.109,28.812-50.162,62.342-64.986,95.774c-13.752,31.011-16.686,58.099-53.143,73.069
			c-23.518,9.66-58.672-10.197-67.324-34.531c-9.832-27.648,12.432-59.534,27.039-80.334
			c45.787-65.163,94.68-120.79,154.613-172.203c10.99-9.43,22.186-20.23,33.643-28.765c20.102-14.972,37.26-37.968,59.123-52.146
			c33.148-21.49,64.67-15.61,90.076-51.9c76.162-108.81,126.287-234.645,193.344-349.343
			c159.02-271.979,159.213-574.753,82.211-876.108c-48.771-190.812-137.131-387.424-237.727-555.028
			c-21.047-35.062-38.877-70.84-57.91-107.156c-41.91-79.96-108.373-150.989-160.027-224.607
			c-57.508-81.932-123.578-156.248-193.928-226.64c-140.463-140.536-304.018-260.362-477.502-353.39
			c-170.83-91.604-346.438-168.98-500.213-224.797c-101.352-36.802-211.496-79.926-318.35-90.329
			c-108.092-10.525-211.209-20.51-318.246-43.214c-47.18-9.991-129.746-37.922-172.328-3.938
			c-49.061,39.161-84.172,84.029-129.1,129.384c-36.242,36.585-76.77,68.885-117.207,100.339
			c-72.391,56.32-150.41,102.25-241.484,112.771c-39.191,4.529-74.113,6.914-112,1.731c-38.066-5.205-75.346-5.945-114.396-10.174
			L4899.161,801.923z"/>
		<path id="_x31_80630617" fill="none" stroke="#010101" stroke-width="64" d="M6047.094,408.756l0.002,0.074l-10.406,96.458
			c-44.229,1.57-88.377,4.909-132.229,10.098c-104.252,12.388-232.834,17.48-359.838,31.271l-22.743-111.441
			c7.454-1.236,14.987-2.473,22.591-3.633c146.377-22.502,303.619-22.532,451.525-22.869
			C6013.154,408.704,6030.16,408.614,6047.094,408.756z"/>
		<path id="_x31_80630616" fill="none" stroke="#010101" stroke-width="64" d="M6036.689,505.288l-32.16,297.138
			c-157.4-45.149-267.166-68.087-421.72-68.828l-38.187-186.942c127.004-13.788,255.586-18.88,359.838-31.271
			C5948.311,510.196,5992.461,506.858,6036.689,505.288z"/>
		<path id="_x31_80630615" fill="none" stroke="#010101" stroke-width="64" d="M6004.529,802.426l-35.09,324.541
			c-19.857-7.453-39.633-14.98-59.266-22.663c-91.447-35.962-176.705-73.158-270.725-93.184l-56.64-277.524
			C5737.363,734.339,5847.129,757.276,6004.529,802.426z"/>
		<path id="_x31_80630614" fill="none" stroke="#010101" stroke-width="64" d="M5969.439,1126.97l-42.123,389.358
			c-13.432-2.528-27.012-4.831-40.588-6.976c-47.385-7.358-100.746-24.024-153.061-36.764l-94.219-461.466
			c94.02,20.024,179.277,57.22,270.725,93.182C5929.803,1111.986,5949.582,1119.517,5969.439,1126.97z"/>
		<path id="_x31_80630613" fill="none" stroke="#010101" stroke-width="64" d="M5927.316,1516.328l-8.426,77.979l-0.441,3.311
			c-42.824-5.82-85.803-13.023-129.381-22.231c-14.926-3.145-34.104-8.058-54.697-12.123l16.619-6.015l-17.322-84.659
			c52.314,12.742,105.676,29.407,153.061,36.764C5900.305,1511.495,5913.885,1513.796,5927.316,1516.328z"/>
		<path id="_x31_80630622" fill="none" stroke="#010101" stroke-width="64" d="M5521.873,435.215l22.75,111.441
			c-55.114,6.043-109.922,13.702-162.342,24.283c-82.91,16.76-158.875,37.903-222.416,80.517l-44.256-86.874
			c13.716-6.323,27.277-12.565,40.244-18.732C5274.787,489.577,5393.771,456.394,5521.873,435.215z"/>
		<path id="_x31_80630621" fill="none" stroke="#010101" stroke-width="64" d="M5544.623,546.656l38.183,186.941
			c-20.661-0.141-42.146,0.106-64.665,0.814c-106.066,3.23-217.34,9.39-278.752,73.011l-79.523-155.967
			c63.541-42.611,139.511-63.756,222.416-80.516C5434.701,560.358,5489.509,552.699,5544.623,546.656z"/>
		<path id="_x31_80630620" fill="none" stroke="#010101" stroke-width="64" d="M5582.81,733.598l56.64,277.524
			c-17.541-3.76-35.375-6.903-53.652-9.275c-104.453-13.861-159.551,36.518-189.391,113.591l-157.018-308.015
			c61.412-63.622,172.686-69.78,278.752-73.011C5540.66,733.704,5562.145,733.457,5582.81,733.598z"/>
		<path id="_x31_80630619" fill="none" stroke="#010101" stroke-width="64" d="M5639.449,1011.123l94.219,461.465
			c-57.613-14.124-113.941-23.396-159.422-10.204c-0.295,0.074-0.524,0.154-0.82,0.23l-177.02-347.179
			c29.84-77.07,84.939-127.45,189.391-113.592C5604.074,1004.219,5621.912,1007.362,5639.449,1011.123z"/>
		<path id="_x31_80630618" fill="none" stroke="#010101" stroke-width="64" d="M5733.668,1472.588l17.322,84.658l-16.619,6.016
			c-38.283-7.518-81.33-12.339-111.062,1.616l-1.586-7.543l-48.297-94.721c0.296-0.076,0.525-0.156,0.82-0.23
			C5619.727,1449.191,5676.055,1458.464,5733.668,1472.588z"/>
		<path id="_x31_80630600" fill="none" stroke="#010101" stroke-width="64" d="M8743.373,2101.362l-85.879,24.154
			c-13.627-25.314-27.254-50.626-40.805-75.945c-50.457-94.332-84.303-197.762-145.932-284.466
			c-75.027-105.632-148.115-213.651-235.498-309.346c-117.73-128.846-249.629-250.68-387.826-355.805
			c-19.197-14.613-38.844-28.301-58.787-41.295l58.174-77.859c104.131,72.897,203.27,155.652,296.844,250.031
			c95.812,96.614,183.449,202.544,263.031,313.639c106.732,148.943,217.088,317.053,298.564,482.104
			C8717.691,2051.657,8730.426,2076.589,8743.373,2101.362z"/>
		<path id="_x31_80630599" fill="none" stroke="#010101" stroke-width="64" d="M8657.494,2125.515l-275.088,77.319
			c-58.713-119.809-114.584-231.84-208.496-348.391c-163.459-202.941-345.615-323.045-562.221-469.143
			c-14.939-10.074-29.949-20.07-44.959-29.836l221.916-296.809c19.943,12.997,39.59,26.683,58.787,41.295
			c138.197,105.125,270.096,226.959,387.826,355.807c87.383,95.694,160.471,203.712,235.498,309.345
			c61.629,86.706,95.475,190.132,145.932,284.464C8630.24,2074.886,8643.867,2100.202,8657.494,2125.515z"/>
		<path id="_x31_80630598" fill="none" stroke="#010101" stroke-width="64" d="M8382.406,2202.834l-141.195,39.661
			c-81.652-139.34-192.361-261.343-302.611-376.879c-145.902-152.921-294.297-282.826-456.234-397.324l84.365-112.825
			c15.01,9.766,30.02,19.759,44.959,29.834c216.605,146.1,398.762,266.202,562.221,469.144
			C8267.822,1970.994,8323.693,2083.029,8382.406,2202.834z"/>
		<path id="_x31_80630597" fill="none" stroke="#010101" stroke-width="64" d="M8241.211,2242.496l-295.068,82.953
			c-15.406-21.39-31.416-42.391-47.863-63.009c-138.037-172.707-320.633-325.68-483.609-473.354
			c-34.146-30.919-69.562-60.453-106.092-88.445l173.787-232.348c161.938,114.5,310.332,244.405,456.232,397.325
			C8048.85,1981.152,8159.559,2103.154,8241.211,2242.496z"/>
		<path id="_x31_80630596" fill="none" stroke="#010101" stroke-width="64" d="M7946.143,2325.448l-342.33,96.224
			c-14.137-19.235-28.348-38.468-42.633-57.623c-72.768-97.86-161.076-168.688-253.121-246.215
			c-64.777-54.528-130.221-105.133-197.518-152.345l198.037-264.848c36.529,27.994,71.945,57.527,106.092,88.446
			c162.977,147.675,345.578,300.646,483.615,473.354C7914.727,2283.058,7930.736,2304.059,7946.143,2325.448z"/>
		<path id="_x31_80630595" fill="none" stroke="#010101" stroke-width="64" d="M7603.812,2421.672l-62.547,17.594
			c-42.996-53.39-89.418-103.698-137.844-152.158c-100.676-100.687-213.188-190.823-332.682-267.943l1.41-2.308l38.385-51.368
			c67.303,47.212,132.746,97.817,197.518,152.344c92.051,77.525,180.355,148.356,253.127,246.215
			C7575.465,2383.204,7589.676,2402.437,7603.812,2421.672z"/>
		<path id="_x31_80630612" fill="none" stroke="#010101" stroke-width="64" d="M6796.074,530.236l-32.566,92.238
			c-97.021-28.566-194.123-56.671-293.295-78.077c-141.479-30.459-287.932-44.364-433.529-39.109l10.406-96.457l-0.002-0.074
			c155.898,0.43,303.6,6.408,458.969,41.321C6603.959,472.024,6700.166,500.515,6796.074,530.236z"/>
		<path id="_x31_80630611" fill="none" stroke="#010101" stroke-width="64" d="M6763.51,622.474l-112.006,317.361
			c-94.494-32.803-201.014-70.521-241.773-84.811c-92.699-32.647-319.15-142.177-391.746-74.774
			c-7.965,7.394-8.021,15.553-2.41,24.169l-1.268,0.847c-3.285-0.921-6.57-1.921-9.777-2.841l32.156-297.136
			c145.596-5.257,292.045,8.647,433.527,39.107C6569.385,565.803,6666.486,593.908,6763.51,622.474z"/>
		<path id="_x31_80630610" fill="none" stroke="#010101" stroke-width="64" d="M6651.504,939.834l-38.641,109.403
			c-19.115-6.373-38.221-12.748-57.33-19.202c-115.096-38.715-225.328-70.429-333.811-122
			c-29.414-13.99-180.039-63.07-206.148-103.617c-5.609-8.62-5.551-16.777,2.41-24.17c72.598-67.403,299.047,42.125,391.752,74.775
			C6450.49,869.314,6557.01,907.031,6651.504,939.834z"/>
		<path id="_x31_80630609" fill="none" stroke="#010101" stroke-width="64" d="M6612.863,1049.238l-94.73,268.396
			c-62.553-22.51-126.67-44.942-192.951-67.756c-117.557-40.329-238.473-79.272-355.742-122.91l35.09-324.541
			c3.209,0.92,6.492,1.919,9.777,2.84l1.268-0.847c26.109,40.547,176.734,89.625,206.148,103.617
			c108.482,51.571,218.715,83.285,333.811,122C6574.643,1036.49,6593.748,1042.865,6612.863,1049.238z"/>
		<path id="_x31_80630608" fill="none" stroke="#010101" stroke-width="64" d="M6518.133,1317.633l-113.566,321.672
			c-54.404-14.125-109.926-28.094-167.17-43.912c-103.145-28.483-204.643-59.357-310.08-79.066l42.123-389.358
			c117.268,43.638,238.182,82.58,355.742,122.908C6391.463,1272.691,6455.58,1295.124,6518.133,1317.633z"/>
		<path id="_x31_80630607" fill="none" stroke="#010101" stroke-width="64" d="M6404.566,1639.306l-19.285,54.742v0.075
			c-89.873-32.805-185.115-66.529-277.924-75.546c-64.086-6.267-126.457-12.305-188.908-20.959l0.441-3.311l8.426-77.979
			c105.436,19.708,206.936,50.579,310.08,79.066C6294.641,1611.21,6350.162,1625.181,6404.566,1639.306z"/>
		<path id="_x31_80630606" fill="none" stroke="#010101" stroke-width="64" d="M7846.826,980.799l-58.18,77.86
			c-109.857-71.584-229.904-122.459-343.707-187.883c-158.314-90.947-320.439-147.565-494.92-194.705
			c-62.469-16.967-124.49-35.398-186.512-53.598l32.566-92.238c76.5,23.657,152.707,48.236,229.504,70.966
			C7322.471,689.128,7598.77,807.167,7846.826,980.799z"/>
		<path id="_x31_80630605" fill="none" stroke="#010101" stroke-width="64" d="M7788.646,1058.659l-221.916,296.808
			c-237.805-156.319-483.76-283.307-756.619-362.554c-24.854-7.217-88.373-28.803-158.607-53.078l112.004-317.36
			c62.025,18.199,124.043,36.629,186.512,53.598c174.48,47.138,336.607,103.756,494.92,194.703
			C7558.742,936.2,7678.789,987.073,7788.646,1058.659z"/>
		<path id="_x31_80630604" fill="none" stroke="#010101" stroke-width="64" d="M7566.73,1355.467l-84.365,112.825
			c-105.395-74.593-216.447-142.635-336.289-206.286c-171.514-91.171-351.246-151.853-533.213-212.769l38.641-109.403
			c70.234,24.274,133.754,45.858,158.607,53.079C7082.971,1072.159,7328.926,1199.148,7566.73,1355.467z"/>
		<path id="_x31_80630603" fill="none" stroke="#010101" stroke-width="64" d="M7482.365,1468.292l-173.787,232.348
			c-142.012-109.049-300.76-196.073-468.797-262.23c-104.805-41.183-210.807-80.982-321.65-120.776l94.727-268.394
			c181.973,60.914,361.705,121.596,533.219,212.767C7265.918,1325.657,7376.971,1393.699,7482.365,1468.292z"/>
		<path id="_x31_80630602" fill="none" stroke="#010101" stroke-width="64" d="M7308.578,1700.64l-198.043,264.849
			c-97.32-68.363-198.588-129.717-307.307-185.753c-133.871-69.03-263.061-105.271-398.662-140.43l113.566-321.672
			c110.846,39.796,216.844,79.595,321.648,120.779C7007.818,1504.568,7166.566,1591.591,7308.578,1700.64z"/>
		<path id="_x31_80630601" fill="none" stroke="#010101" stroke-width="64" d="M7110.541,1965.487l-38.387,51.37l-1.414,2.308
			c-47.275-30.602-95.666-59.125-144.799-85.492c-170.846-91.559-346.508-168.947-500.273-224.797
			c-13.367-4.843-26.801-9.758-40.385-14.753l-0.002-0.075l19.285-54.742c135.602,35.158,264.795,71.399,398.668,140.427
			C6911.947,1835.771,7013.215,1897.126,7110.541,1965.487z"/>
		<path id="_x31_80630594" fill="none" stroke="#010101" stroke-width="64" d="M9080.016,3281.435l-2.609,0.231l-90.102,2.911
			c0.631-97.836-23.807-196.497-39.879-291.777c-19.1-112.907-35.814-230.278-70.271-339.865
			c-32.35-103.044-66.648-211.86-110.553-310.278c-32.969-73.794-70.777-145.583-109.107-217.142l85.879-24.154
			c37.965,72.868,77.561,144.887,114.406,218.446c47.627,94.952,70.652,196.309,104.715,296.659
			c38.336,112.738,59.553,240.961,58.363,358.267c-0.637,55.422,23.85,104.438,36.633,156.922
			C9069.225,3179.912,9076.486,3231.252,9080.016,3281.435z"/>
		<path id="_x31_80630593" fill="none" stroke="#010101" stroke-width="64" d="M8947.426,2992.8
			c16.072,95.28,40.51,193.941,39.879,291.777l-245.984,8.023c-0.453-4.235-0.91-8.391-1.443-12.622
			c-43.596-359.819-139.117-647.863-298.381-958.108c-20.896-40.781-40.143-80.332-59.09-119.036l275.088-77.319
			c38.33,71.559,76.139,143.349,109.107,217.143c43.904,98.416,78.203,207.234,110.553,310.279
			C8911.611,2762.521,8928.326,2879.893,8947.426,2992.8z"/>
		<path id="_x31_80630592" fill="none" stroke="#010101" stroke-width="64" d="M8739.877,3279.978
			c0.533,4.231,0.99,8.387,1.443,12.622l-112.699,3.617c-10.1-52.719-20.646-105.358-29.553-158.159
			c-35.096-208.572-89.629-404.969-195.99-588.475c-58-100.178-103.041-206.522-161.568-306.549
			c-0.074-0.152-0.225-0.384-0.299-0.539l141.195-39.661c18.951,38.704,38.193,78.255,59.092,119.036
			C8600.76,2632.115,8696.281,2920.156,8739.877,3279.978z"/>
		<path id="_x31_80630591" fill="none" stroke="#010101" stroke-width="64" d="M8628.621,3296.217l-272.465,8.812
			c-36.328-153.771-94.123-298.052-148.824-462.504c-61.229-184.231-148.104-360.668-261.189-517.077l295.068-82.953
			c0.068,0.155,0.225,0.386,0.299,0.539c58.527,100.026,103.568,206.371,161.568,306.549
			c106.361,183.506,160.895,379.903,195.99,588.475C8607.975,3190.859,8618.521,3243.498,8628.621,3296.217z"/>
		<path id="_x31_80630590" fill="none" stroke="#010101" stroke-width="64" d="M8356.156,3305.029l-214.803,7
			c-25.541-49.938-55.914-97.409-67.377-122.035c-63.596-136.503-138.285-264.535-216.121-393.795
			c-78.271-129.876-164.668-252.974-254.043-374.527l342.33-96.224c113.086,156.409,199.961,332.846,261.189,517.077
			C8262.033,3006.977,8319.828,3151.262,8356.156,3305.029z"/>
		<path id="_x31_80630589" fill="none" stroke="#010101" stroke-width="64" d="M8141.354,3312.029l-112.555,3.617
			c-50.969-163.455-127.818-327.354-213.51-470.157c-21.102-35.082-38.924-70.864-57.945-107.182
			c-41.926-79.946-108.377-150.944-159.994-224.573c-17.873-25.465-36.645-50.315-56.084-74.469l62.547-17.594
			c89.375,121.554,175.771,244.651,254.043,374.527c77.836,129.26,152.525,257.292,216.121,393.795
			C8085.439,3214.62,8115.812,3262.091,8141.354,3312.029z"/>
		<path id="_x31_80630588" fill="none" stroke="#010101" stroke-width="64" d="M9081.717,3311.605
			c5.643,138.317,3.002,276.87-4.26,415.042c-3.955,74.822-22.764,143.879-49.182,210.096l-1.795-0.771l-136.566-31.923
			c8.688-18.171,16.561-36.805,23.461-56.128c30.268-84.849,5.73-158.574,8.689-245.092c3.105-91.6,51.279-171.607,61.918-261.674
			c2.279-18.784,3.283-37.719,3.322-56.577l90.102-2.911l2.609-0.231C9080.705,3291.593,9081.324,3301.599,9081.717,3311.605z"/>
		<path id="_x31_80630587" fill="none" stroke="#010101" stroke-width="64" d="M8741.32,3292.6l245.984-8.023
			c-0.039,18.858-1.043,37.793-3.322,56.577c-10.639,90.066-58.812,170.074-61.918,261.674
			c-2.959,86.518,21.578,160.243-8.689,245.092c-6.9,19.32-14.773,37.957-23.461,56.123l-201.188-47.039l0.592-2.696
			c21.871,7.606,55.047-36.214,64.4-99.031c8.904-59.431,11.629-116.468,9.42-176.503
			C8759.67,3482.862,8752.543,3387.807,8741.32,3292.6z"/>
		<path id="_x31_80630586" fill="none" stroke="#010101" stroke-width="64" d="M8763.139,3578.769
			c2.209,60.036-0.516,117.077-9.42,176.508c-9.354,62.817-42.531,106.635-64.4,99.03c-13.363-4.611-22.512-28.311-19.477-78.502
			c4.404-73.74,1.283-143.786-3.41-217.596c-5.543-88.285-21.158-175.257-37.811-261.992l112.699-3.617
			C8752.543,3387.807,8759.67,3482.862,8763.139,3578.769z"/>
		<path id="_x31_80630585" fill="none" stroke="#010101" stroke-width="64" d="M8667.535,3852.016l-289.547-67.691
			c9.42-64.275,15.623-133.096,15.072-186.591c-1.105-105.147-15.164-200.66-36.904-292.704l272.465-8.81
			c16.652,86.737,32.268,173.707,37.811,261.99c4.693,73.814,7.814,143.855,3.41,217.599c-3.035,50.191,6.113,73.888,19.477,78.5
			l-0.592,2.696L8667.535,3852.016z"/>
		<path id="_x31_80630584" fill="none" stroke="#010101" stroke-width="64" d="M8393.061,3597.733
			c0.551,53.493-5.652,122.315-15.072,186.591l-161.195-37.678l-2.906,0.385c-12.84-118.529-54.994-238.657-150.826-304.938
			c-2.109-9.394-4.359-18.704-6.695-28.092c35.537,15.522,87.709,106.16,118.916,46.408c17.314-33.113-5.254-92.289-33.928-148.378
			l214.803-7.002C8377.896,3397.073,8391.955,3492.586,8393.061,3597.733z"/>
		<path id="_x31_80630583" fill="none" stroke="#010101" stroke-width="64" d="M8141.354,3312.029
			c28.674,56.093,51.242,115.268,33.928,148.377c-31.207,59.756-83.379-30.882-118.916-46.407
			c-1.127-4.464-2.254-9.007-3.379-13.468c-7.217-28.241-15.33-56.564-24.188-84.885L8141.354,3312.029z"/>
		<path id="_x31_80630627" fill="none" stroke="#010101" stroke-width="64" d="M5115.609,564.584l44.256,86.871
			c-32.629,21.804-61.96,49.306-87.33,84.728c-51.845,72.392-64.662,153.301-66.588,237.51L4899.252,844.53
			c-0.025-14.316-0.053-28.481-0.086-42.566C4898.908,670.803,5013.664,612.069,5115.609,564.584z"/>
		<path id="_x31_80630626" fill="none" stroke="#010101" stroke-width="64" d="M5159.865,651.456l79.523,155.967
			c-16.751,17.253-29.76,38.814-37.986,65.761c-30.315,99.162-34.746,195.767-34.252,295.678l-161.203-195.169
			c1.926-84.21,14.743-165.118,66.588-237.51C5097.905,700.761,5127.236,673.26,5159.865,651.456z"/>
		<path id="_x31_80630625" fill="none" stroke="#010101" stroke-width="64" d="M5239.389,807.423l157.018,308.015
			c-31.016,80.458-34.381,190.068-37.322,285.902l-191.934-232.478c-0.494-99.911,3.937-196.515,34.252-295.677
			C5209.629,846.24,5222.638,824.676,5239.389,807.423z"/>
		<path id="_x31_80630624" fill="none" stroke="#010101" stroke-width="64" d="M5396.406,1115.438l177.02,347.177
			c-57.624,17.053-63.374,52.078-74.678,107.816l-139.67-169.09C5362.025,1305.506,5365.391,1195.895,5396.406,1115.438z"/>
		<path id="_x31_80630623" fill="none" stroke="#010101" stroke-width="64" d="M5621.723,1557.337l1.586,7.541
			c-4.547,2.16-8.869,4.779-12.74,7.859c-23.459,18.722-42.366,38.516-60.604,59.006l-2.686-2.54l-48.526-58.772
			c11.299-55.737,17.049-90.765,74.673-107.816L5621.723,1557.337z"/>
		<path id="_x31_80630632" fill="none" stroke="#010101" stroke-width="64" d="M5021.861,1556.443
			c8.195,109.298,7.96,253.084-16.984,352.165l-0.51,4.696c-15.445-1.837-30.216-2.827-45.062-3.664
			c16.783-1.089,39.294-7.724,39.883-12.573c1.398-10.548,6.533-15.398-22.429-26.926c-14.557-5.84-70.718-3.338-73.214,18.986
			c-0.073,0.46-0.076,0.922-0.07,1.309l-2.164,0.001c-0.094-47.418-1.191-605.544-2.059-1045.908l106.695,129.163
			c-1.443,61.042,2.852,123.772,2.08,186.351C5006.424,1290.897,5012.135,1426.214,5021.861,1556.443z"/>
		<path id="_x31_80630631" fill="none" stroke="#010101" stroke-width="64" d="M5171.027,1548.646
			c3.582,74.659-4.886,282.34-23.543,355.399l1.135,7.003c-6.485,1.16-12.972,2.087-19.609,2.86
			c-39.228,4.571-77.863,5.672-115.766,0.468c-2.986-0.383-5.969-0.766-8.877-1.071l0.51-4.696
			c24.944-99.081,25.186-242.867,16.984-352.163c-9.727-130.231-15.438-265.548-13.828-396.404
			c0.77-62.579-3.529-125.306-2.086-186.348l161.203,195.169c0.15,38.101,1.047,76.741,1.496,116.151
			C5169.545,1361.984,5167.373,1471.828,5171.027,1548.646z"/>
		<path id="_x31_80630630" fill="none" stroke="#010101" stroke-width="64" d="M5167.15,1168.862l191.934,232.478
			c-0.915,30.867-1.822,60.349-3.561,86.905c-4.418,66.278-10.943,124.394-25.732,189.834
			c-12.053,53.272-15.94,124.474-56.858,179.693l3.444,6.54c-39.938,22.119-82.195,38.853-127.758,46.734l-1.132-7.003
			c18.654-73.06,27.125-280.739,23.54-355.4c-3.654-76.816-1.482-186.659-2.379-263.633
			C5168.197,1245.603,5167.301,1206.964,5167.15,1168.862z"/>
		<path id="_x31_80630629" fill="none" stroke="#010101" stroke-width="64" d="M5359.084,1401.34l139.669,169.092
			c-9.53,46.728-22.985,108.159-74.303,185.862l0.828,1.077c-18.022,14.945-36.419,29.43-54.817,43.76
			c-30.158,23.498-61.373,45.147-94.085,63.183l-3.442-6.54c40.917-55.218,44.805-126.422,56.857-179.695
			c14.789-65.438,21.314-123.556,25.732-189.834C5357.262,1461.688,5358.169,1432.207,5359.084,1401.34z"/>
		<path id="_x31_80630628" fill="none" stroke="#010101" stroke-width="64" d="M5549.965,1631.74
			c-19.795,22.261-38.844,45.442-62.295,69.09c-19.727,19.951-40.8,38.591-62.397,56.542l-0.822-1.078
			c51.317-77.701,64.771-139.135,74.303-185.862l48.521,58.772L5549.965,1631.74z"/>
		<path id="_x31_80630582" fill="none" stroke="#010101" stroke-width="64" d="M9026.48,3935.971l1.795,0.771
			c-47.51,119.034-119.719,228.69-174.463,345.497c-38.326,81.923-76.508,163.93-114.615,246.007
			c14.785-31.877,29.645-63.754,44.424-95.628c-65.451-17.355-125.787-48.563-181.486-80.388l2.52-4.778
			c22.582-47.892,43.678-94.704,76.777-140.682c71.488-99.345,155.221-191.46,208.482-302.728L9026.48,3935.971z"/>
		<path id="_x31_80630581" fill="none" stroke="#010101" stroke-width="64" d="M8688.727,3857l201.188,47.043
			c-53.262,111.268-136.994,203.383-208.482,302.734c-33.1,45.971-54.195,92.783-76.777,140.675l-2.52,4.782
			c-43.832-24.991-84.844-50.281-123.213-69.502c-15.383-7.688-54.062-29.596-94.23-48.428l17.676-1.55
			c1.221-61.501,90.766-117.757,121.924-167.735c49-78.467,69.27-163.692,143.244-213.004L8688.727,3857z"/>
		<path id="_x31_80630580" fill="none" stroke="#010101" stroke-width="64" d="M8377.988,3784.324l289.547,67.691
			c-73.975,49.312-94.244,134.537-143.244,213.004c-31.158,49.979-120.701,106.23-121.924,167.732l-17.676,1.553
			c-32.553-15.297-66.07-28.592-88.898-30.576l0.217-1.694l-65.93-34.583c71.928-64.176,55.768-129.818,101.5-197.668
			C8347.352,3946.453,8365.473,3869.387,8377.988,3784.324z"/>
		<path id="_x31_80630579" fill="none" stroke="#010101" stroke-width="64" d="M8216.793,3746.646l161.195,37.678
			c-12.516,85.062-30.637,162.129-46.408,185.459c-45.736,67.85-29.572,133.492-101.5,197.668l-7.457,0.459
			c-25.383-49.089-71.576-61.754-161.162-100.182c-0.742,2.464-1.484,5.006-2.301,7.465c1.406-4.615,2.818-9.236,4.148-13.934
			c112.268,4.006,150.781-97.093,154.541-195.695c1.42-37.869,0.447-78.123-3.963-118.533L8216.793,3746.646z"/>
		<path id="_x31_80630519" fill="none" stroke="#010101" stroke-width="64" d="M8612.301,4358c-3.402-1.918-6.801-3.846-10.166-5.77
			c-23.051-13.141-45.311-26.355-66.82-38.738c-19.398-11.165-38.197-21.65-56.393-30.76c-15.383-7.69-54.062-29.596-94.23-48.428
			c-32.553-15.297-66.07-28.592-88.898-30.576c-15.895-1.449-26.627,2.564-28.314,15.032
			c-9.852,71.823-24.436,166.817-39.42,210.392c-16.316,47.5-44.363,122.648-71.73,164.235
			c-40.828,61.914-89.494,121.063-148.859,164.364c-22.047,16.023-50.375,22.664-74.67,34.923
			c-11.025,5.548-21.232,12.249-29.646,21.569c-23.666,26.186-62.363,223.266-86.494,281.009
			c-43.504,104.101-187.072,416.714-321.723,444.747c-25.652,5.331-71.506,15.521-96.928,23.158
			c-34.959,10.49-17.99,105.078-17.781,135.408c0.234,45.175,1.129,98.854-26.549,136.685c-6.355,4.149-13.385,6.729-24.648,5.69
			c-13.996-1.287-23.646-8.814-33.889-16.867c-12.311-14.633-29.766-27.537-42.941-35.273
			c-38.514-22.623-90.34-21.958-131.854-2.668c-0.201-0.354-0.418-0.708-0.646-1.07c-49.648,11.037-44.705-6.016-50.654-42.732
			c6.461-50.743-2.553-94-31.639-142.857c-49.383-82.959-175.676-104.815-262.639-100.453
			c-88.127,4.434-150.477,54.01-195.6,121.729c-33.943,50.943-58.137,112.146-76.207,172.115
			c-5.994,19.902-11.322,39.672-16.102,58.887c-5.508,22.135-34.109,105.67-28.072,123.282
			c15.506,45.268,26.461,89.14,60.236,131.112c86.096,107.002,197.811,165.381,317.328,214.238c0.084-0.193,0.17-0.39,0.252-0.581
			c18.615,8.751,37.379,17.239,56.865,23.353l222.188,88.067c0.074-0.237,0.15-0.476,0.225-0.708
			c14.561,6.81,29.496,12.626,43.922,16.229c3.098,1,6.217,1.999,9.393,2.994c4.328,1.381,8.658,2.688,12.986,3.992
			c4.328,1.307,8.656,2.533,13.062,3.766c4.176,1.15,8.357,2.303,12.537,3.373c0.445,0.158,0.82,0.232,1.268,0.307
			c4.105,1.076,8.211,2.073,12.389,3.074c4.178,0.996,8.357,1.994,12.615,2.836c2.986,0.771,6.041,1.387,9.029,1.92
			c2.758,0.614,5.521,1.147,8.209,1.609c3.877,0.768,7.688,1.459,11.49,2.071c2.832,0.46,5.596,0.919,8.355,1.302
			c5.52,0.844,11.119,1.61,16.711,2.297c4.324,0.462,8.654,0.92,12.906,1.301c3.285,0.302,6.49,0.537,9.697,0.688
			c1.795,0.232,3.508,0.305,5.225,0.383c8.428,0.53,16.783,0.754,25.213,0.747c35.432-0.021,71.225-4.509,107.531-14.85
			c153.717-43.982,282.252-187.626,380.322-311.157c55.957-70.395,109.219-142.785,162.781-215.103
			c75.588-102.042,135.484-215,198.818-325.348c97.381-169.408,197.443-338.588,281.533-515.53
			c45.02-94.709,89.365-187.416,133.781-282.506c20.725-44.357,41.443-88.706,62.1-133.133
			c23.84-51.123,47.607-102.33,71.447-153.532c14.783-31.878,29.639-63.759,44.418-95.63
			C8722.131,4416.32,8665.16,4387.783,8612.301,4358z"/>
		<path id="_x31_80630578" fill="none" stroke="#010101" stroke-width="64" d="M8612.301,4358
			c-39.078,53.325-68.119,94.761-95.674,122.251c-88.035,87.843-42.771,300.113-152.275,392.82
			c-52.852,44.745-84.027,53.817-114.607,120.007c-29.236,63.305-51.371,130.42-83.469,192.121
			c-90.486,173.91-146.58,369.578-246.18,538.824c-78.705,133.752-185.41,250.062-290.012,362.291
			c-54.027,57.978-116.098,119.947-196.316,124.773c-71.627,4.316-164.791-7.295-200.455-15.492
			c-32.264,81.314-65.297,162.438-91.061,245.311c0.295,0.078,0.668,0.153,0.969,0.307c4.33,1.46,8.656,2.92,12.986,4.38
			c4.254,1.379,8.58,2.761,12.988,4.147c4.328,1.377,8.654,2.685,12.984,3.992c4.33,1.303,8.658,2.533,13.064,3.764
			c4.176,1.15,8.355,2.301,12.533,3.375c0.447,0.154,0.818,0.23,1.271,0.309c4.105,1.073,8.203,2.07,12.387,3.068
			c4.18,0.996,8.357,1.998,12.611,2.841c2.986,0.769,6.045,1.382,9.029,1.915c2.762,0.614,5.525,1.152,8.209,1.613
			c3.883,0.768,7.686,1.458,11.488,2.072c2.834,0.459,5.604,0.918,8.363,1.297c5.518,0.851,11.113,1.613,16.709,2.299
			c4.326,0.463,8.654,0.918,12.908,1.299c3.279,0.311,6.488,0.537,9.695,0.688c1.791,0.231,3.51,0.31,5.219,0.384
			c8.436,0.529,16.787,0.755,25.217,0.745c35.434-0.021,71.227-4.507,107.533-14.847c153.719-43.98,282.254-187.629,380.322-311.16
			c55.957-70.391,109.217-142.782,162.781-215.103c75.582-102.034,135.48-215.003,198.816-325.348
			c97.377-169.405,197.447-338.587,281.535-515.53c45.016-94.708,89.363-187.414,133.783-282.506
			c20.721-44.35,41.441-88.7,62.094-133.127c23.844-51.127,47.611-102.334,71.449-153.538c14.787-31.876,29.643-63.756,44.42-95.628
			C8722.131,4416.32,8665.16,4387.783,8612.301,4358z"/>
		<path id="_x31_80630577" fill="none" stroke="#010101" stroke-width="64" d="M7433.768,6211.092
			c80.219-4.83,142.289-66.8,196.316-124.773c104.602-112.232,211.307-228.539,290.012-362.295
			c99.6-169.246,155.693-364.914,246.18-538.818c32.098-61.707,54.232-128.82,83.469-192.127
			c30.58-66.187,61.756-75.262,114.607-120.007c109.504-92.707,64.24-304.978,152.277-392.815
			c27.553-27.495,56.594-68.931,95.672-122.256c-3.402-1.918-6.801-3.842-10.166-5.766c-23.051-13.145-45.307-26.355-66.82-38.742
			c-37.992,38.777-77.537,87.143-98.678,138.811c-20.699,50.59-29.473,107.218-55.982,155.186
			c-30.129,54.538-55.389,111.697-100.422,153.059c-58.955,54.141-119.602,89.204-161.809,162.904
			c-144.402,252.181-222.494,512.747-347.805,776.08c-42.92,90.171-99.768,159.79-131.396,198.293
			c-20.031,24.399-73.727,75.762-107.988,86.669c-48.453,15.433-79.084,28.574-139.885,32.233
			c-29.035,1.755-59.199-24.726-85.846-17.41c-2.043,5.795-4.047,11.602-5.955,17.436c-19.602,60.212-42.717,119.578-66.236,178.844
			C7268.977,6203.793,7362.141,6215.404,7433.768,6211.092z"/>
		<path id="_x31_80630576" fill="none" stroke="#010101" stroke-width="64" d="M7391.348,6016.731
			c60.803-3.664,91.434-16.806,139.887-32.238c34.262-10.907,87.957-62.27,107.988-86.669
			c31.629-38.503,88.477-108.122,131.396-198.285c125.311-263.341,203.402-523.901,347.805-776.088
			c42.207-73.7,102.854-108.764,161.809-162.904c45.033-41.358,70.293-98.521,100.422-153.059
			c26.51-47.968,35.283-104.596,55.982-155.186c21.141-51.676,60.686-100.033,98.678-138.805
			c-19.398-11.165-38.197-21.656-56.393-30.766c-15.383-7.688-54.062-29.596-94.23-48.428
			c-32.553-15.297-66.07-28.592-88.898-30.576c-15.895-1.449-26.627,2.564-28.314,15.032
			c-9.852,71.823-24.436,166.817-39.418,210.394c-16.318,47.503-44.365,122.646-71.732,164.233
			c-40.828,61.916-89.494,121.063-148.859,164.364c-22.047,16.023-50.375,22.664-74.67,34.923
			c-11.025,5.548-21.232,12.249-29.646,21.569c-23.666,26.191-62.363,223.266-86.494,281.014
			c-43.504,104.096-187.072,416.709-321.723,444.745c-25.652,5.328-71.506,15.519-96.928,23.155
			c-34.959,10.492-17.99,105.082-17.781,135.408c0.236,45.648,1.164,99.984-27.404,137.879
			c-19.045,25.336-15.924,55.436-22.508,84.994c-5.912,26.699-15.75,52.176-24.811,77.882
			C7332.15,5992.001,7362.314,6018.481,7391.348,6016.731z"/>
		<path id="_x31_80630573" fill="none" stroke="#010101" stroke-width="64" d="M6580.244,5858.929
			c-59.924-45.153-69.793-56.413-77.283-66.061c-5.996,19.901-11.322,39.672-16.102,58.886
			c-5.51,22.131-34.111,105.666-28.072,123.285c15.506,45.264,26.461,89.133,60.236,131.107
			c86.092,107.008,197.812,165.387,317.328,214.238c59.047-134.66,106.527-237.553,151.84-343.736
			c-29.586-0.504-87.281-5.865-105.621-7.473C6763.807,5958.765,6661.494,5920.139,6580.244,5858.929z"/>
		<path id="_x31_80630572" fill="none" stroke="#010101" stroke-width="64" d="M7057.514,5796.333
			c-31.475-12.136-144.434-43.598-254.102-83.085c-104.252-37.541-206.09-85.185-224.244-92.494
			c-33.943,50.939-58.137,112.145-76.207,172.114c7.49,9.647,17.359,20.907,77.283,66.061
			c81.25,61.21,183.562,99.836,302.33,110.249c18.336,1.605,76.031,6.967,105.619,7.471c4.539-10.63,9.055-21.298,13.561-32.032
			C7026.518,5885.604,7045.682,5837.847,7057.514,5796.333z"/>
		<path id="_x31_80630571" fill="none" stroke="#010101" stroke-width="64" d="M7057.514,5796.333
			c21.783-76.396,18.721-131.635-20.107-196.858c-49.383-82.961-175.676-104.814-262.639-100.451
			c-88.127,4.43-150.482,54.008-195.6,121.73c18.154,7.31,119.992,54.953,224.244,92.494
			C6913.08,5752.735,7026.039,5784.197,7057.514,5796.333z"/>
		<path id="_x31_80630575" fill="none" stroke="#010101" stroke-width="64" d="M6997.984,6021.43l-2.182-5.927
			c-41.072,95.542-85.295,194.441-137.58,313.683l257.434,102.039c27.246-87.631,62.402-173.398,96.244-259.493l-4.77-2.276
			C7138.305,6128.641,7038.688,6095.891,6997.984,6021.43z"/>
		<path id="_x31_80630574" fill="none" stroke="#010101" stroke-width="64" d="M7308.834,5847.795
			c-6.705-23.553-36.615-47.238-56.635-58.992c-48.518-28.499-118.178-20.042-161.711,16.056
			c-35.467,29.401-47.607,99.325-65.305,141.511c-9.654,23.009-19.426,45.971-29.381,69.134l2.182,5.927
			c40.703,74.461,140.32,107.211,209.146,148.023l4.77,2.278c21.479-54.642,42.428-109.399,60.484-164.856
			C7286.969,5962.086,7322.562,5896.08,7308.834,5847.795z"/>
		<path id="_x31_80630570" fill="none" stroke="#010101" stroke-width="64" d="M4976.759,1870.14
			c28.962,11.527,23.827,16.38,22.429,26.928c-0.589,4.848-23.102,11.48-39.883,12.572c0,0-0.072,0-0.146-0.001
			c-8.949-0.532-17.979-1.063-27.153-1.672c-0.077-0.001-0.077-0.001-0.077-0.001c-14.248-2.302-28.434-7.293-28.453-17.53
			c-0.002-0.385-0.002-0.846,0.07-1.308C4906.041,1866.803,4962.202,1864.302,4976.759,1870.14z"/>
		<path id="_x31_80630569" fill="none" stroke="#010101" stroke-width="64" d="M8063.316,4061.229
			c112.293,4.012,150.779-97.029,154.539-195.691c5.652-148.81-26.232-334.59-154.762-423.443
			C8098.979,3577.73,8129.322,3834.607,8063.316,4061.229z"/>
		<path id="_x31_80630568" fill="none" stroke="#010101" stroke-width="64" d="M8222.623,4167.91
			c40.734,78.562,1.457,209.138-26.812,285.976c-30.047,81.536-67.812,145.372-122.887,210.452
			c-37.205,43.979-92.697,83.733-152.238,113.646c-52.535,26.282-108.289,44.79-157.584,51.6c0.074-0.229,0.078-0.386,0.146-0.614
			c0.6-2.695,1.188-5.392,1.775-8.157c1.26-5.854,2.367-11.78,3.326-17.631c0.52-3.005,1.031-5.928,1.475-8.932
			c0.52-2.925,0.957-5.923,1.32-8.851c0.441-3.005,0.883-5.928,1.254-8.932c1.984-14.932,3.666-29.867,5.285-44.876
			c0.582-5.468,1.24-11.014,1.832-16.472c2.926-26.101,6.23-52.041,11.855-77.445c0.441-2.156,0.887-4.235,1.406-6.391
			c0.514-2.079,1.035-4.157,1.551-6.158c0.742-2.926,1.482-5.774,2.295-8.625c0.82-2.926,1.629-5.771,2.521-8.625
			c2.072-6.927,4.447-13.854,7.119-20.629c0.816-2.232,1.707-4.465,2.67-6.702c0.525-1.229,0.965-2.386,1.562-3.54
			c0.887-2.231,1.854-4.389,2.895-6.465c0.225-0.694,0.596-1.387,0.893-2.08c1.484-3.085,2.973-6.162,4.607-9.164
			c1.707-3.236,3.492-6.469,5.348-9.703c51.74-88.862,94.223-183.414,146.555-272.971c2.979-5.085,5.877-10.09,8.701-15.171
			c2.82-5.083,5.646-10.087,8.322-15.171c2.748-5.08,5.426-10.163,8.025-15.323c2.451-4.693,4.832-9.392,7.135-14.167
			c2.75-5.467,5.348-10.931,7.949-16.477c2.223-4.62,4.307-9.238,6.383-13.859c0.67-1.392,1.264-2.852,1.938-4.315
			c1.854-4.233,3.783-8.467,5.566-12.78c2.225-5.158,4.383-10.395,6.461-15.553c2.148-5.16,4.229-10.393,6.158-15.626
			c2.078-5.24,4.006-10.472,5.938-15.713c4.375-11.932,8.451-23.868,12.238-35.876c1.256-3.775,2.441-7.546,3.553-11.396
			c0.816-2.463,1.559-5.001,2.299-7.469C8151.047,4106.156,8197.24,4118.821,8222.623,4167.91z"/>
		<path id="_x31_80630567" fill="none" stroke="#010101" stroke-width="64" d="M7824.277,4834.236
			c44.373-5.107,19.5,17.229,16.219,55.103c-5.322,61.043-31.322,116.175-48.73,176.456
			c-26.154,90.229-67.771,168.466-113.934,248.934c-52.703,91.859-114.654,186.121-223.367,205.445
			c-34.078,6.023-102.471,45.482-109.904,22.699c-12.158-37.554,23.498-37.271,48.766-48.756
			c72.584-33.151,120.908-114.004,149.41-186.917c12.76-32.726,23.885-66.521,29.562-101.396
			c4.049-24.553-0.043-59.039,19.164-77.451c8.633-8.318,21.52-17.41,31.055-25.879c32.615-28.969,50.217-67.23,70.729-105.043
			c10.334-15.324,19.18-32.807,26.975-50.283c11.447-22.252,22.062-45.043,30.672-68.987
			C7764.246,4841.205,7788.557,4838.266,7824.277,4834.236z"/>
		<path id="_x31_80630565" fill="none" stroke="#010101" stroke-width="64" d="M7485.305,4868.111
			c-15.248,19.891-27.488,41.133-41.977,61.631c-14.934,21.103-26.117,29.031-31.205,55.639
			c-6.859,35.88,24.566,64.287,57.77,61.799c29.383-2.199,44.76-35.655,56.16-60.763c19.688-43.376,47.195-80.929,77.699-115.735
			c29.467-33.63,65.969-68.113,98.221-98.82c18.951-18.041,51.932-42.105,51.297-72.435c-1.248-12.116-4.998-21.696-12.037-27.468
			c-0.33-0.269-0.664-0.523-1.002-0.771c-16.186-7.724-44.443,6.818-67.615,22.803c-9.014,6.853-16.902,13.311-22.418,16.998
			c-5.682,4.711-10.127,8.755-12.719,11.387C7587.971,4772.451,7528.545,4811.688,7485.305,4868.111z"/>
		<path id="_x31_80630566" fill="none" stroke="#010101" stroke-width="64" d="M7358.99,5635.673
			c-6.828-39.955-17.115-73.413-42.727-94.702c-8.219-6.817-37.842-6.043-67.479,1.129c-22.443,5.424-77.041,10.402-117.463,9.703
			c-27.268-0.48-40.766-1.711-68.07,0.65c-9.203,0.799-16.328,3.202-18.879,8.395c-4.631,9.41,13.242,23.82,17.467,31.76
			c26.545,49.752,32.465,97.771,28.312,155.283c-2.785,38.635,33.773,10.904,52.762,5.964c34.01-8.85,80.236-2.198,111.125,13.128
			c14.156,7.038,28.396,19.881,39.945,30.77c8.357,7.88,17.783,23.728,28.725,27.77c23.008,8.513,32.059-27.774,36.303-44.727
			C7368.236,5743.943,7367.521,5685.623,7358.99,5635.673z"/>
		<path id="_x31_80630558" fill="none" stroke="#010101" stroke-width="64" d="M6490.701,2020.665
			c0.557-10.575-4.859-21.064-10.68-31.685c-20.137-36.81-52.896-63.219-89.586-74.98c-42.172-13.515-75.711-27.749-116.195-45.651
			c-39.914-17.65-79.266-30.102-119.865-46.49c29.678,11.976,87.021,17.558,119.566,22.023c36.264,4.98,70.223,9.274,105.602,20.11
			c56.951,17.458,110.035,14.189,165.875,35.41c79.746,30.306,158.207,68.022,237.652,99.837
			c102.25,40.94,189.736,75.534,285.598,143.474c99.895,70.801,213.002,158.772,310.045,252.518
			c89.141,86.095,181.846,174.324,261.119,281.753c50.109,67.925,105.758,137.216,146.41,211.792
			c103.383,189.631,135.105,259.457,169.875,355.901c37.969,105.36,40.584,114.016,78.068,247.835
			c57.91,206.688,30.844,443.135-38.148,643.886c-37.332,108.655-104.596,195.831-166.432,290.088
			c-59.336,90.444-119.146,182.972-200.23,254.527c-37.955,33.496-84.902,59.972-131.533,77.753
			c-89.27,34.047-192.951,48.209-286.357,24.951c-72.24-17.994-194.734-84.678-148.537-184.615
			c73.408-158.833,150.994-304.035,172.473-479.716c14.51-118.671,4.533-223.214-32.959-325.824
			c-15.371-42.039-55.963-137.899-79.859-174.624c-58.334-89.631-101.596-138.416-169.559-220.335
			c-28.111-33.861-57.971-70.591-90.096-100.306c-31.857-29.455-82.912-63.711-79.342-113.387
			c1.996-27.827-239.969-341.924-245.791-342.925c-9.766-1.682-25.742-15.557-44.588-21.85c-4.789-1.603-25.865-2.278-44.746,5.158
			c-10.736,4.231,0.369-16.755-1.314-38.486c-2.398-31.057-14.832-69.028-17.668-82.928
			c-10.143-49.732-18.438-100.068-32.301-148.819c-24.09-84.713-77.197-191.567-39.236-282.028
			c18.721-44.633,44.08-68.382,71.012-108.031C6457.535,2122.952,6487.957,2072.544,6490.701,2020.665z"/>
		<path id="_x31_80630559" fill="none" stroke="#010101" stroke-width="64" d="M5371.191,2029.194
			c-107.567-50.581-340.82,58.358-469.453,75.771c0.09,47.144,0.094,50.655,0.198,104.219
			C5058.181,2191.886,5401.609,2171.409,5371.191,2029.194z"/>
		<path id="_x31_80630557" fill="none" stroke="#010101" stroke-width="64" d="M7753.27,4699.427
			c0.635,30.329-32.346,54.394-51.297,72.435c-32.252,30.707-68.75,65.19-98.221,98.82c-30.504,34.807-58.012,72.359-77.697,115.732
			c-11.396,25.11-26.779,58.564-56.162,60.766c-33.203,2.488-64.629-25.924-57.77-61.799c5.088-26.607,16.271-34.536,31.205-55.639
			c14.488-20.504,26.729-41.74,41.977-61.631c43.24-56.424,102.666-95.66,152.174-145.736c2.596-2.632,7.037-6.676,12.719-11.387
			c-0.168,0.111-0.336,0.226-0.494,0.336c-94.939,62.154-207.809,96.725-318.434,105.247
			c-78.027,6.013-187.273-26.204-248.164-78.729c-19.928-17.175-28.828-34.778-55.404-41.014
			c-31.68-7.426-94.654,85.358-113.848,105.829c-49.615,52.881-105.543,99.871-167.125,137.205
			c-25.258,15.313-50.109,24.885-69.818,47.955c-22.559,26.416-34.072,59.456-48.303,91.151
			c-28.01,62.351-57.506,136.282-128.754,154.096c-66.727,16.685-151.121-12.692-186.707,64.011
			c-26.387,56.876-29.053,121.844-50.078,180.314c-19.486,54.207,9.166,114.993,25.621,164.992
			c14.791,44.959,7.25,88.146,17.074,132.732c16.277,73.902,110.344,87.08,136.982,158.562
			c8.607-42.723,19.773-78.332,25.273-100.467c38.332-154.018,119.383-343.488,295.805-352.353
			c90.822-4.569,167.072,15.052,256.367,26.957c81.848,10.906,188.307,7.644,267.654-15.772
			c42.744-12.615,91.379-25.861,124.83-57.824c34.008-32.488,74.537-83.48,92.986-127.066
			c16.551-39.1,22.875-109.321,39.592-168.789l75.703-64.74c0,0-9.381-76.522,55.133-153.996
			C7699.744,4891.211,7759.691,4761.67,7753.27,4699.427z"/>
		<path id="_x31_80630561" fill="none" stroke="#010101" stroke-width="64" d="M7506.908,5305.871
			c39.65-92.446-41.234-119.458-101.426-164.697c-41.713-31.351-81.223-23.36-117.756,14.179
			c-39.037,40.126-72.258,88.144-124.471,111.001c-92.83,40.639-201.387-42.404-276.34-89.623
			c-38.273-24.111-75.312-50.309-111.17-78.095c-58.232-45.13-112.721-104.113-138.041-42.429
			c-20.045,48.846-39.562,97.096-73.041,138.062c-18.865,23.109,29.418,42.882,43.088,49.374
			c34.627,16.428,60.625,30.406,86.729,60.223c31.52,36.012,47.459,87.604,45.457,134.203c-1.68,38.904,22.639,42.359,57.453,42.76
			c78.318,0.913,131.707,14.848,222.797,26.987c81.852,10.906,188.311,7.64,267.658-15.779
			c42.742-12.608,91.379-25.854,124.828-57.813C7440.613,5407.523,7486.094,5354.393,7506.908,5305.871z"/>
		<path id="_x31_80630563" fill="none" stroke="#010101" stroke-width="64" d="M7450.59,4796.602
			c-47.92,16.916-92.018,23.927-132.146,24.109l-3.926,9.337c-26.963,62.472-45.518,132.989-85.213,188.646
			c-38.381,53.796-119.045,102.694-173.348,137.758c-20.914,13.519-53.625,45.793-79.467,47.155l-10.504,2.318
			c37.529,26.046,76.926,49.375,120.01,50.193c91.799,1.762,134.783-77.525,197.809-131.064
			c39.434-33.496,63.422-39.514,87.494-93.143c21.127-47.078,31.637-79.396,62.102-122.403
			c31.447-44.38,74.473-93.649,105.797-136.626C7509.711,4774.408,7479.586,4786.367,7450.59,4796.602z"/>
		<path id="_x31_80630562" fill="none" stroke="#010101" stroke-width="64" d="M7055.961,5156.452
			c54.305-35.063,134.969-83.962,173.348-137.759c39.691-55.66,58.248-126.174,85.209-188.646l3.926-9.337
			c-136.727,0.631-227.338-77.947-265.857-113.629c-44.223-40.972-93.6,47.492-138.766,95.615
			c-49.617,52.863-105.521,99.836-167.096,137.166c-34.895,21.156-76.918,24.078-45.387,66.053
			c24.652,32.802,55.775,52.121,87.809,76.586c34.268,26.164,78.41,57.377,113.768,79.655
			c20.639,12.996,41.545,28.833,63.074,43.769l10.504-2.317C7002.332,5202.245,7035.045,5169.971,7055.961,5156.452z"/>
		<path id="_x31_80630564" fill="none" stroke="#010101" stroke-width="64" d="M7750.297,4724.021
			c-12.443,67.112-64.66,172.312-74.203,195.576c-13.797,33.609-42.219,58.879-50.633,95.146
			c-6.707,28.943,4.725,64.918-26.971,84.514c-30.766,19.028-44.445-1.631-50.441-30.861
			c-13.516-65.877-1.803-111.955,43.246-163.364C7645.299,4843.404,7711.938,4797.761,7750.297,4724.021z"/>
		<path id="_x31_80630560" fill="none" stroke="#010101" stroke-width="64" d="M6468.02,5833.211
			c-5.504,22.135-16.666,57.744-25.281,100.467c-26.635-71.482-120.701-84.66-136.977-158.562
			c-9.822-44.587-2.285-87.773-17.072-132.732c-16.455-49.999-45.109-110.785-25.625-164.992
			c21.025-58.471,23.691-123.438,50.076-180.314c29.008-62.51,95.477-53.892,151.275-59.518
			c129.588-13.059,277.209,60.683,256.262,213.373c-5.576,40.672-47.678,51.734-76.184,69.453
			C6544.777,5582.352,6493.441,5730.995,6468.02,5833.211z"/>
		<path id="_x31_80630556" fill="none" stroke="#010101" stroke-width="64" d="M7081.812,4370.734
			c141.236-116.713,142.008-290.414,130.979-405.479c-15.883-165.842-60.143-238.574-147.795-385.979
			c-46.984-78.998-182.377-215.959-236.41-278.292c-68.656-79.215-96.564,66.89-143.289,190.741
			c-31.305,82.98-57.047,138.742-71.07,202.318c-17.242,78.26-28.553,155.572-46.537,212.25
			c-35.83,112.877-59.553,208.361-88.875,268.952c-38.562,79.649-84.174,156.409-14.904,228.854
			c27.594,28.847,51.98,64.852,93.502,79.887C6691.768,4532.649,6949.967,4479.672,7081.812,4370.734z"/>
		<path id="_x31_80630555" fill="none" stroke="#010101" stroke-width="64" d="M7138.658,4390.516
			c-11.17,40.912-65.141,130.941-69.438,140.361c-71.553,156.684-220.703,346.524-379.156,417.633
			c-50.346,22.577-90.721,2.784-135.865-23.953c-102.086-60.465-204.328-114.619-302.244-184.523
			c-80.865-57.744-166.033-103.914-238.887-173.553c-34.883-33.336,86.098-264.643,126.465-172
			c42.459,97.47,102.928,113.795,176.803,135.863c62.453,18.67,145.17,29.572,203.881,4.996
			c16.445-6.882,13.211-30.107,27.301-29.529c31.084,1.27,75.703,12.351,120.611,12.754c49.309,0.445,136.877-11.008,183.934-24.515
			c77.758-22.304,124.309-33.63,193.793-75.815c22.963-13.941,43.727-29.908,63.426-48.312c6.002-5.618,20.715-17.144,29.299-15.381
			C7154.33,4357.785,7141.572,4379.834,7138.658,4390.516z"/>
		<path id="_x31_80630538" fill="none" stroke="#010101" stroke-width="64" d="M4903.766,2870.165
			c-0.025,5.344,27.768,11.113,31.194,10.015c10.776-3.468,15.22-16.646,22.903-24.289c22.383-22.296,37.159,2.086,59.77-5.229
			c17.842-5.793,43.555-50.917,55.758-65.735c27.379-33.216,59.652-63.572,103.641-67.381c48.066-4.167,94.712,18.194,142.58,18.995
			c12.264,0.203,25.793-1.099,37.805-3.439c31.225-6.086,49.203-22.045,74.295-39.297c27.068-18.602,63.484-33.634,85.816-48
			c14.133-9.098,90.742-26.412,117.441-29.99c37.492-5.036,60.713-9.699,98.818-5.844c25.033,2.539,47.58,11.188,71.838,18.006
			c35.379,9.94,74.186,17.37,106.729,34.774c30.051,16.052,56.777,31.228,83.943,51.846
			c54.555,41.396,110.289,95.544,160.084,127.583c56.895,36.617,30.896,110.4,47.602,187.268
			c9.203,42.352,19.453,76.124,41.227,102.603c41.123,50.008,121.209,72.637,154.373,107.658
			c59.441,62.769,31.529,114.302,31.41,203.01c-0.014,10.213-2.643,46.607-8.758,91.215
			c-11.67,85.189-24.238,146.295-30.496,180.785c-9.928,54.818-27.537,114.913-52.578,163.606
			c-43.641,84.87-85.715,185.983-139.207,264.677c-33.348,49.064-73.943,117.689-73.814,184.454
			c-40.145,3.938-79.273,10.152-116.152,25.95c-113.576,48.645-128.352,55.796-228.438,23.185
			c-55.969-18.229-86.498-64.339-143.273-82.7c-68.91-22.287-108.652,38.178-135.263,93.336
			c-39.14,81.141-81.794,130.912-143.89,164.319c-95.586,51.419-151.531,69.381-270.803,105.38
			c-53.421,16.12-97.051-17.684-176.593-2.236C4911.051,4627.75,4903.699,2890.619,4903.766,2870.165z"/>
		<path id="_x31_80630539" fill="none" stroke="#010101" stroke-width="64" d="M6007.727,3622.154
			c-9.176,74.393-46.295,163.524-85.641,226.175c-37.834,60.229-71.219,112.087-122.748,160.444
			c-24.369,22.865-80.729,43.678-110.572,38.566c-53.844-9.226,33.436-118.508,59.473-168.475
			c40.932-78.547,60.461-184.434,62.727-273.568c0.424-16.775-1.773-33.629-3.146-50.318c-1.535-18.857-3.654-33.933,13.951-44.544
			c16.41-9.88,34.982-16.079,50.643-27.278c15.889-11.366,32.395-21.774,48.752-32.393c10.447-6.777,33.367-29.324,46.594-26.092
			c31.641,7.73,38.738,50.033,42.195,78.463C6014.793,3542.985,6012.607,3582.566,6007.727,3622.154z"/>
		<path id="_x31_80630542" fill="none" stroke="#010101" stroke-width="64" d="M5956.17,3395.064
			c-17.443,25.519-41.637,37.826-65.324,56.236c-23.229,18.047-46.555,34.934-74.295,46.056
			c-60.953,24.42-84.383-57.705-115.385-94.03c-30.283-35.506-80.215-73.642-122.014-93.562
			c-42.713-20.352-85.195-18.55-110.087-31.356c-48.54-24.984,19.922-72.251,39.632-94.624
			c22.509-25.556,37.243-57.274,53.874-86.978c35.403-63.184,74.187-124.823,110.169-187.164
			c29.695-51.459,67.867-97.27,97.033-149.087c7.42-13.199,19.434-54.124,33.834-59.693c17.66-6.833,26.59,25.876,33.01,37.25
			c23.816,42.222,69.578,69.76,88.361,114.316c16.26,38.564,8.904,74.946,37.631,108.117c14.527,16.769,33.096,30.219,53.455,38.227
			c14.354,5.644,24.605,1.403,24.977,20.413c0.26,13.289-2.158,30.735-2.951,43.887c-1.682,27.68-6.893,54.938-11.711,82.169
			C6011.689,3228.311,6004.609,3324.218,5956.17,3395.064z"/>
		<path id="_x31_80630545" fill="none" stroke="#010101" stroke-width="64" d="M5745.082,3492.342
			c-21.859-24.062-36.086-53.648-57.172-78.37c-30.281-35.513-66.502-65.567-108.311-85.489
			c-31.637-15.091-70.609-19.42-105.072-23.336c-12.68-1.442-18.123,2.088-29.63,7.274c-15.776,7.099-27.206,41.95-32.212,57.754
			c-28.883,91.188-80.75,176.521-139.176,251.473c-22.109,28.363-37.713,56.572-64.052,80.928
			c-15.69,14.521-69.956,37.959-69.737,62.493c0.139,14.355,17.199,23.545,25.165,33.756c14.032,17.978,17.833,47.903,16.132,69.962
			c-1.176,15.24-5.895,26.14,2.207,39.905c14.957,25.407,35.073,44.547,57.832,60.705c30.084,21.352,46.939,52.983,46.645,91.327
			l3.266-1.56c120.518-32.157,251.011-56.615,392.615-118.298l14.578-7.418c38.197-62.496,68.953-132.833,84.664-204.998
			c9.396-43.161,12.785-102.307,14.418-146.869C5800.092,3503.842,5777.326,3527.818,5745.082,3492.342z"/>
		<path id="_x31_80630544" fill="none" stroke="#010101" stroke-width="64" d="M5290.967,4059.163l-3.266,1.561
			c-0.047,6.56-0.588,13.315-1.66,20.253c-5.058,32.545-34.506,62.38,12.937,86.867c62.934,32.487,132.644,67.602,186.896,116.072
			c49.489,44.191,95.582-23.641,119.861-61.02c16.959-26.09,35.008-52.447,44.898-82.459c11.043-33.553,4.559-66.197,4.143-100.665
			c-0.078-6.38,0.141-12.808,0.879-19.308c3.707-32.518,22.871-55.388,39.318-81.842c1.07-1.721,2.131-3.445,3.188-5.176
			l-14.578,7.424C5541.982,4002.548,5411.488,4027.01,5290.967,4059.163z"/>
		<path id="_x31_80630543" fill="none" stroke="#010101" stroke-width="64" d="M5733.787,2609.969
			c-38.105-3.854-61.33,0.809-98.822,5.844c-26.697,3.578-103.307,20.892-117.439,29.99c-22.334,14.365-58.748,29.399-85.814,48
			c-25.092,17.252-43.076,33.211-74.293,39.297c17.725-3.456,37.814-26.047,57.27-16.441c21.852,10.782,16.394,48.947,15.981,68.747
			c-1.097,52.551,1.41,104.903-5.174,157.286c-4.221,33.658-11.574,68.341-26.446,99.347
			c-11.498,23.934-22.396,34.165-17.447,50.354c9.49,31.036,40.344,107.074,66.799,109.697
			c38.551,3.823,83.116-88.838,99.699-118.428c35.4-63.2,74.191-124.832,110.164-187.186c24.627-42.67,54.682-81.573,80.971-123.11
			c12.9-20.396,23.688-41.469,34.678-62.941c4.635-9.037,27.572-57.01,20.516-71.701
			C5784.373,2617.793,5754.131,2612.031,5733.787,2609.969z"/>
		<path id="_x31_80630552" fill="none" stroke="#010101" stroke-width="64" d="M4905.328,3931.145
			c-0.026-14.705,268.674,58.111,269.764-4.035c0.465-29.181-74.514-41.475-92.096-47.405
			c-21.15-10.249-177.865-48.306-177.841-38.366C4905.149,3841.52,4905.328,3930.905,4905.328,3931.145z"/>
		<path id="_x31_80630546" fill="none" stroke="#010101" stroke-width="64" d="M5334.782,3494.471
			c-15.063,25.332-30.599,50.334-45.671,75.316c-40.076,66.41-108.197,179.076-197.479,172.041
			c-25.062-1.976-52.268-22.1-62.468-55.797c-11.265-37.201,11.771-63.395,42.078-96.245
			c51.737-56.099,80.638-84.731,148.85-168.163c46.603-57.006,66.544-67.17,99.239-112.961
			c21.067-29.517,34.529-53.209,48.528-73.409c12.015-17.329,15.876-45.077,42.603-44.856c26.597,0.225,34.855,27.782,34.15,48.566
			c-1.416,41.6-28.805,87.333-43.188,126.017C5384.523,3410.387,5359.354,3453.166,5334.782,3494.471z"/>
		<path id="_x31_80630541" fill="none" stroke="#010101" stroke-width="64" d="M6083.816,2835.331
			c-24.719-44.102-45.904-89.154-87.533-120.742c-27.164-20.619-53.887-35.789-83.934-51.84
			c-32.543-17.404-71.35-24.834-106.729-34.772c15.566,51.594,30.881,98.359,70.873,138.108
			c20.363,20.187,50.791,55.635,62.279,82.867c11.455,27.187,6.201,52.795,19.094,79.969
			c21.494,45.312,76.055,76.136,122.275,59.446c22.422-8.088,49.451-34.664,53.475-59.361c4.844-29.805-19.277-43.754-33.061-65.424
			C6094.652,2854.306,6089.15,2844.836,6083.816,2835.331z"/>
		<path id="_x31_80630548" fill="none" stroke="#010101" stroke-width="64" d="M5340.34,3088.768
			c-12.273-9.585-23.115-20.819-32.974-33.021c-2.722-3.362-5.358-6.809-7.945-10.301l-1.721,13.073
			c-12.026,43.574-18.546,85.71-37.714,127.016c-21.037,45.326-62.45,147.586-113.365,173.269l-7.734,3.272
			c22.821,16.523,46.887,31.834,58.786,35.178c40.384,11.368,94.273-84.758,116.632-114.249
			c23.213-30.64,62.799-77.902,73.914-115.765C5401.333,3122.581,5369.354,3111.417,5340.34,3088.768z"/>
		<path id="_x31_80630549" fill="none" stroke="#010101" stroke-width="64" d="M5259.986,3185.536
			c19.168-41.306,25.688-83.442,37.714-127.016l1.721-13.073c-14.966-20.244-27.78-42.419-40.306-63.655
			c-15.927-26.968-24.875-70.303-63.646-68.171c-24.218,1.323-42.385,26.834-37.503,51.801
			c11.682,59.849,14.552,114.952-7.736,173.811c-17.261,45.565-106.5,134.177-60.859,182.416
			c8.371,8.843,28.411,25.155,49.516,40.429l7.732-3.276C5197.536,3333.122,5238.949,3230.861,5259.986,3185.536z"/>
		<path id="_x31_80630554" fill="none" stroke="#010101" stroke-width="64" d="M4904.441,3478.293
			c42.877-3.884,55.189-11.219,83.205-41.111c39.703-42.363,47.153-42.367,65.637-128.337
			c15.893-73.939,38.655-106.519,74.264-164.905c11.15-18.289,35.167-98.887,24.604-134.072
			c-10.021-33.354-8.651-77.104-7.681-112.897c0.762-28.025-0.509-56.033-2.607-84.251c-1.633-22.158-2.939-60-16.984-76.104
			c-8.244,5.469-16.276,11.84-24.291,18.839c-19.938,17.405-37.204,44.181-52.943,65.673c-8.541,11.682-13.869,21.828-30.015,29.532
			c-7.731,3.688-23.364-3.032-32.329-3.826c-12.796-1.118-18.928,2.494-29.043,10.777c-6.645,5.44-12.587,21.247-19.589,22.388
			c-10.739,1.742-27.079-4.854-33.434-11.396L4904.441,3478.293z"/>
		<path id="_x31_80630547" fill="none" stroke="#010101" stroke-width="64" d="M5139.203,3379.345
			c29.076,20.486,51.072,47.425,48.586,53.848c-17.096,44.262-86.117,95.452-115.539,123.612
			c-17.211,16.484-30.199,23.397-46.748,0.645c-14.166-19.474-52.182-78.846-33.425-93.99
			c39.383-31.811,62.622-68.661,82.417-121.279C5079.506,3328.83,5115.553,3362.677,5139.203,3379.345z"/>
		<path id="_x31_80630550" fill="none" stroke="#010101" stroke-width="64" d="M4911.729,4654.691
			c79.537-15.451,123.166,18.354,176.59,2.232c119.27-35.998,175.219-53.961,270.804-105.38
			c67.313-36.208,136.772-112.728,147.299-193.927c2.177-16.771-8.815-31.406-19.345-42.641
			c-24.648-26.326-57.024-43.836-86.527-63.528c-36.162-24.146-70.878-50.412-111.926-65.266
			c-38.199-13.821-77.931-22.345-117.557-30.483c-88.121-18.1-175.863-38.944-265.395-50.077L4911.729,4654.691z"/>
		<path id="_x31_80630551" fill="none" stroke="#010101" stroke-width="64" d="M4905.345,3940.127
			c88.063,15.484,220.062,19.817,307.146,38.273c50.182,10.629,61.693,52.689,58.64,108.996
			c-5.924,109.062-226.201,27.096-288.832,17.837c-24.867-3.677-48.022-12.563-72.922-13.736L4905.345,3940.127z"/>
		<path id="_x31_80630553" fill="none" stroke="#010101" stroke-width="64" d="M4905.055,3829.801
			c21.753-0.947,68.86-3.857,116.959,12.745c65.777,22.708,125.386,55.021,131.844,35.83c7.733-22.964,33.99-49.052-16.323-84.659
			c-39.846-28.199-88.077-62.459-103.33-73.055c-28.816-19.988-35.45-65.323-18.813-82.093c10.531-10.619,24.935-40.78,12.76-58.708
			c-5.336-7.842-12.193-14.416-17.246-23.102c-3.439-5.904-36.533-74.992-61.709-74.01c-16.633,0.647-27.797,6.26-44.654,5.801
			L4905.055,3829.801z"/>
		<path id="_x31_80630540" fill="none" stroke="#010101" stroke-width="64" d="M5587.309,4293.73
			c17.402-5.138,34.133-5.295,50.967,0.158c56.773,18.359,87.303,64.473,143.266,82.7c100.092,32.611,114.869,25.464,228.445-23.185
			c36.875-15.795,76.006-22.008,116.152-25.95c-0.131-66.765,40.467-135.386,73.814-184.454
			c53.49-78.692,95.564-179.807,139.203-264.677c25.039-48.692,42.648-108.782,52.578-163.606
			c6.258-34.49,18.826-95.591,30.5-180.781c6.115-44.611,8.74-81.002,8.754-91.217c0.119-88.708,28.033-140.238-31.408-203.01
			c-33.164-35.023-113.25-57.65-154.371-107.657c-24.82-30.183-36.604-72.271-42.25-110.679
			c-3.682-25.066-14.77-44.685-28.01-65.724c-22.943-36.493-33.697-20.284-45.447,3.822c-10.264,21.038-26.648,31.903-46.547,36.592
			c-22.506,5.309-27.416,6.138-28.834,29.988c-1.5,25.223-4.783,50.44-6.621,75.622c-2.734,37.331-10.586,71.642-14.971,108.521
			c-5.58,46.819-16.199,93.191-32.93,137.123c-6.57,17.262-21.676,37.145-17.123,56.897c4.35,18.771,17.428,20.417,27.689,35.455
			c12.156,17.807,13.137,41.938,15.047,63.496c4.102,46.374,2.182,75.223-3.492,121.232
			c-7.387,59.854-25.217,118.652-51.264,172.594c-19.598,40.603-41.395,81.875-67.506,118.065
			c-25.773,35.7-52.893,70.364-85.078,100.565c-30.344,28.465-64.799,50.045-107.473,49.502c-8.129-0.1-22.727-6.451-29.795-1.021
			c-13.818,10.647-9.639,47.919-12.686,64.22c-7.578,40.709-26.703,72.615-48.723,106.537
			C5611.314,4246.99,5583.018,4278.478,5587.309,4293.73z"/>
		<path id="_x31_80630520" fill="none" stroke="#010101" stroke-width="64" d="M6624.887,5001.795
			c-9.389-34.631-71.086-60.912-106.441-76.896c-66.039-29.857-125.174-74.065-187.801-110.302
			c-55.438-32.08-106.488-71.629-159.564-107.59c-55.781-37.787-112.279-74.963-162.941-120.002
			c-42.588-37.854,0.328-118.944,31.98-169.363c9.996-15.904,19.82-34.543,34.174-46.756c13.801-11.725,34.791-20.598,52.406-26.492
			c-47.066-8.457-95.66,21.998-135.213,36.262c-24.199,8.73-66.762,27.717-112.355,31.595
			c-68.914,5.868-139.193-36.94-192.736-77.994c-49.533-37.977-114.748-43.982-149.865,20.87
			c-29.45,54.363-44.02,103.183-78.051,142.467c-34.04,39.273-87.549,69.021-148.987,100.801
			c-69.544,35.979-226.157,80.557-278.393,70.32c-48.332-9.465-78.964-14.553-121.836-2.474l0.028,60.704
			c30.939,7.727,30.557,38.435,30.064,66.277c-0.443,24.998-5.843,48.805-8.554,76.977c-3.643,37.909-5.638,83.271-7.218,123.167
			c-3.888,98.006-0.92,166.767-0.75,254.01c0.081,40.973,2.938,74.729,2.727,115.458c-0.17,32.367,1.302,73.951,1.445,106.478
			c0.389,89.479,11.143,179.583,11.914,269.081c0.248,29.021,7.594,88.733-29.161,97.338l0.187,439.369
			c271.297,13.682,489.777-32.285,704.1-109.35c-18.645,6.293-37.271,9.784-55.852,17.34
			c-34.048,13.857-92.006,39.848-91.495-19.281c0.487-57.367,54.969-113.226,89.196-152.156
			c74.256-84.451,149.619-172.68,236.197-243.953c69.543-57.253,146.387-85.746,233.539-62.191
			c57.068,15.431,138.053,78.466,151.736,141.207c6.508,29.843-5.439,54.834-26.543,75.844
			c36.492-28.846,67.525-65.371,90.779-107.008c13.492-24.15,33.127-49.805,38.346-76.559c5.736-29.343,0.52-64.232-8.715-92.297
			c-16.453-50.011-47.18-117.051-27.691-171.256c21.027-58.467,25.445-139.439,51.828-196.309
			c35.594-76.704,127.08-50.809,193.807-67.49c44.865-11.215,71.105-36.371,91.213-78.964
			C6598.432,5094.454,6636.404,5044.24,6624.887,5001.795z"/>
		<path id="_x31_80630521" fill="none" stroke="#010101" stroke-width="64" d="M4907.893,2707.27
			c62.492,0.361,169.033-48.977,119.087-132.216c0,0-32.354-15.368-51.009-20.5c-18.658-5.113-68.392-6.355-68.392-6.355
			l-4.661,159.077"/>
		<path id="_x31_80630524" fill="none" stroke="#010101" stroke-width="64" d="M6032.342,5707.509
			c41.725-25.899,82.674-30.489,130.512-22.142c44.785,7.824,81.678,28.873,118.383,55.273
			c-23.695,51.143-63.025,127.386-117.881,169.975c19.348-33.293,22.576-56.611,4.432-90.355
			C6143.879,5775.792,6092.998,5730.569,6032.342,5707.509z"/>
		<path id="_x31_80630527" fill="none" stroke="#010101" stroke-width="64" d="M5073.236,4920.129
			c-55.984,36.154-59.357,110.494-41.308,170.654l2.755,4.234c8.443-7.4,15.599-13.951,20.814-18.631
			c30.838-27.653,53.801-63.215,77.297-97.326c15.401-22.362,29.648-45.58,41.582-69.846l-2.32-0.697
			C5143.777,4902.457,5097.221,4904.645,5073.236,4920.129z"/>
		<path id="_x31_80630526" fill="none" stroke="#010101" stroke-width="64" d="M5089.977,4707.648l3.225-2.284L5089.977,4707.648
			c-15.824,29.943-19.313,64.742,7.052,91.497c27.386,27.78,94.823,29.956,109.586-16.368l2.979-4.883
			c2.623-45.143-2.756-96.548-35.555-125.955l-2.117-4.393c-14.935,4.1-29.655,7.846-43.564,11.104l-4.021,6.155
			C5111.094,4676.191,5098.678,4691.188,5089.977,4707.648z"/>
		<path id="_x31_80630528" fill="none" stroke="#010101" stroke-width="64" d="M5209.594,4777.889l-2.979,4.885
			c-14.763,46.328-82.2,44.152-109.586,16.369c-26.365-26.752-22.876-61.551-7.052-91.498l-6.578,4.657
			c-33.975,31.239-142.449,8.024-142.449,8.024c61.954,43.621,26.617,252.84,22.446,296.452
			c-4.037,42.161-3.206,84.619,1.097,126.704l0.633,3.364c24.75-13.886,50.452-35.057,69.562-51.832l-2.758-4.233
			c-18.05-60.16-14.675-134.5,41.31-170.655c23.982-15.485,70.539-17.669,98.814-11.616l2.324,0.702
			c16.626-33.823,28.754-69.669,33.186-108.103C5208.421,4793.677,5209.129,4785.881,5209.594,4777.889z"/>
		<path id="_x31_80630529" fill="none" stroke="#010101" stroke-width="64" d="M4963.396,5016.787
			c4.171-43.621,39.507-252.84-22.446-296.458c-7.992-5.631-17.603-8.501-29.109-7.904l-2.717-0.136l-0.045,14.606
			c31.156,7.646,30.768,38.419,30.277,66.327c-0.443,24.998-5.838,48.805-8.554,76.977c-3.643,37.909-5.638,83.271-7.218,123.167
			c-2.543,64.093-2.15,115.687-1.531,168.114c12.795-0.225,27.749-6.03,43.072-14.627l-0.633-3.371
			C4960.189,5101.397,4959.358,5058.941,4963.396,5016.787z"/>
		<path id="_x31_80630532" fill="none" stroke="#010101" stroke-width="64" d="M4959.24,5150.024
			c-13.127,6.769-25.814,11.185-36.896,11.456l-0.287,0.24c0.324,27.659,0.72,55.557,0.783,85.655
			c0.075,40.973,2.933,74.732,2.723,115.458c-0.172,32.368,1.3,73.951,1.443,106.478c0.316,73.244,7.58,146.913,10.633,220.325
			l0.912,0.319c52.172-60.345,63.063-330.616,35.764-478.481c-4.151-22.49-10.797-33.693-13.115-56.494L4959.24,5150.024z"/>
		<path id="_x31_80630533" fill="none" stroke="#010101" stroke-width="64" d="M4961.199,5154.98
			c2.318,22.801,8.963,34.003,13.115,56.498c27.3,147.861,16.408,418.135-35.764,478.478l-0.914-0.319l0.914,0.319
			c41.218,19.444,101.604,34.678,132.137,71.139c2.482,2.964,4.816,6.134,7.021,9.474c0,0,5.045-12.257,29.95-24.67
			c18.827-9.382,43.984-8.191,43.984-8.191c-9.841-21.359-18.128-44.248-25.526-67.807
			c-38.855-123.742-67.975-258.35-50.086-388.654c13.671-99.62,58.695-183.904,120.275-257.403l-63.512-44.782
			c-23.494,34.111-46.459,69.673-77.293,97.329c-17.973,16.114-58.92,54.394-96.26,73.64L4961.199,5154.98z"/>
		<path id="_x31_80630522" fill="none" stroke="#010101" stroke-width="64" d="M4937.209,5815.575
			c-1.892,24.897-3.771,49.745-2.438,75.009c2.473,47.105,20.248,75.771,54.859,107.09c20.594,18.65,57.539,41.469,86.831,31.529
			c62.769-21.281,40.914-114.119,33.292-162.17c-5.49-34.599-16.279-78.732-39.066-105.941
			c-30.533-36.458-90.919-51.697-132.137-71.136c0.031,0.016,1.647,71.825,1.467,78.474
			C4939.615,5784.24,4938.404,5799.92,4937.209,5815.575z"/>
		<path id="_x31_80630534" fill="none" stroke="#010101" stroke-width="64" d="M4907.893,2707.27
			c62.492,0.361,169.033-48.977,119.087-132.216c0,0-32.354-15.368-51.009-20.5c-18.658-5.113-68.392-6.355-68.392-6.355
			l-4.661,159.077"/>
		<path id="_x31_80630535" fill="none" stroke="#010101" stroke-width="64" d="M5469.736,5503.922
			c-46.331,36.393-76.361,80.861-117.821,121.889c-55.034,54.477-120.229,100.811-178.155,152.497l-0.061,0.032
			c31.337,48.646,75.74,83.496,144.255,90.129c121.13,11.735,292.056-24.904,364.933-133.695
			c9.721-14.502,17.801-29.787,24.475-45.643c33.904-80.457,31.896-175.779,27.006-261.489c-1.363-23.907-2.443-47.866-2.643-71.834
			l-12.41,2.622C5625.439,5371.655,5542.012,5447.137,5469.736,5503.922z"/>
		<path id="_x31_80630537" fill="none" stroke="#010101" stroke-width="64" d="M5673.814,4979.365
			c-78.15-59.811-139.201-49.666-228.393-61.127c-70.252-9.031-138.904-7.005-192.99,45.502
			c-19.805,19.217-38.611,39.206-56.086,60.061c5.953,3.39,12.912,7.407,14.636,8.247c125.208,61.327,132.79,123.964,77.569,255.63
			c-20.049,47.809-120.852,261.12-204.896,186.656l-5.028-4.234c9.699,68.114,27.273,135.428,47.49,199.801
			c12.349,39.34,27.203,76.807,47.58,108.439l0.062-0.032c57.926-51.687,123.117-98.021,178.152-152.497
			c41.46-41.027,71.49-85.491,117.821-121.887c72.276-56.787,155.704-132.269,249.577-145.494l12.408-2.616
			c-0.447-53.841,3.539-107.714,18.686-161.103C5772.803,5115.792,5742.805,5032.166,5673.814,4979.365z"/>
		<path id="_x31_80630536" fill="none" stroke="#010101" stroke-width="64" d="M5288.551,5287.674
			c55.221-131.662,47.639-194.299-77.569-255.626c-1.724-0.847-8.683-4.857-14.636-8.247
			c-61.596,73.5-106.643,157.807-120.316,257.445c-8.582,62.522-6.34,126.025,2.598,188.852l5.028,4.231
			C5167.699,5548.798,5268.502,5335.479,5288.551,5287.674z"/>
		<path id="_x31_80630525" fill="none" stroke="#010101" stroke-width="64" d="M4940.949,4720.329c0,0,108.475,23.212,142.449-8.027
			l6.578-4.653c8.701-16.461,21.117-31.457,34.355-42.845l4.025-6.158c-39.996,9.35-73.333,14.647-86.061,12.637
			c-48.635-7.683-90.162-17.12-133.034-5.041l-0.142,46.048l2.717,0.136C4923.347,4711.828,4932.957,4714.698,4940.949,4720.329z"/>
		<path id="_x31_80630531" fill="none" stroke="#010101" stroke-width="64" d="M5623.936,4948.982
			c-4.812-37.375-12.689-105.314-43.912-108.634l0.734,0.541c-17.377-5.191-52.544-24.602-63.361-37.007
			c-24.357-27.909-28.963-69.226-26.902-95.776c3.62-46.585,41.768-100.907,84.959-113.181l1.896-0.103
			c3.616,0.48,7.376,0.855,11.286,1.109c68.67,4.43,137.898-38.294,193.266-75.399c29.562-19.814,77.266-58.893,50.115-99.031
			c-3.799-5.608-9.1-10.218-15.199-14.146l-14.533-6.273c25.182,8.768,51.115,13.361,76.852,11.169
			c45.59-3.878,88.152-22.864,112.352-31.595c39.555-14.264,88.15-44.719,135.213-36.262l-2.988-3.416
			c-32.254,21.998-63.535,44.744-83.592,76.667c-31.648,50.416-74.564,131.507-31.979,169.36
			c50.662,45.035,107.16,82.215,162.939,120.003c53.076,35.96,104.129,75.509,159.566,107.591
			c62.625,36.24,121.76,80.448,187.799,110.3c35.355,15.983,97.053,42.269,106.441,76.901
			c11.523,42.443-26.449,92.653-44.496,130.883c-20.107,42.59-46.348,67.744-91.213,78.96
			c-66.727,16.681-158.213-9.214-193.807,67.487c-26.383,56.871-30.799,137.842-51.828,196.313
			c-19.488,54.202,11.238,121.243,27.691,171.251c9.717,29.547,13.781,61.988,10.445,92.873l-0.438,1.072
			c-36.709-26.396-73.6-47.447-118.389-55.268c-47.836-8.349-88.783-3.76-130.512,22.139l0.561-0.221
			c-38.709-20.2-103.855-45.723-125.34-52.746c-61.262-20.018-117.967-30.273-181.943-31.176l1.926-1.785
			c12.439-63.404,10.4-131.24,6.822-193.935c-4.438-77.616-5.85-155.772,16.041-232.938c22.398-78.919-7.604-162.545-76.594-215.342
			c-17.783-13.607-34.682-23.597-51.225-31.041L5623.936,4948.982z"/>
		<path id="_x31_80630530" fill="none" stroke="#010101" stroke-width="64" d="M5908.834,5673.615
			c-62.689-20.484-120.605-30.745-186.418-31.223l0.086,1.501c-3.988,15.477-8.967,30.608-15.135,45.239
			c-6.68,15.858-14.76,31.142-24.479,45.646c-72.879,108.785-243.805,145.428-364.935,133.689
			c-86.384-8.369-134.453-61.578-166.311-130.762l-2.034,0.172c-34.94-1.046-59.213,14.366-71.9,32.689
			c18.047,27.253,27.15,65.633,32.045,96.469c6.477,40.821,23.215,113.973-10.396,148.106c-3.799,44.548-4.9,100.103,11.372,168.454
			c17.774,74.688,44.769,76.895,114.906,80.938l-5.192-0.723c96.854-12.482,188.18-33.033,277.33-59.666l1.707-3.318
			c-18.676,0.834-33.039-7.452-32.782-37.018c0.482-57.369,54.969-113.227,89.196-152.156
			c74.254-84.449,149.619-172.677,236.197-243.955c54.504-44.865,113.486-72.069,178.406-70.401
			C5944.58,5686.518,5920.393,5677.389,5908.834,5673.615z"/>
		<path id="_x31_80630523" fill="none" stroke="#010101" stroke-width="64" d="M5686.4,4334.26
			c25.48,19.534,51.123,36.764,79.945,50.592c20.027,9.605,52.232,16.785,65.67,36.65c27.15,40.137-20.553,79.217-50.115,99.031
			c-55.367,37.105-124.596,79.829-193.266,75.396c-135.893-8.77-94.562-162.403-52.105-240.799
			C5571.646,4290.274,5636.861,4296.28,5686.4,4334.26z"/>
		<path id="_x31_80630636" fill="none" stroke="#010101" stroke-width="64" d="M5622.48,6162.689
			c-21.465,8.404-42.904,11.704-64.287,20.405c-34.048,13.853-92.011,39.849-91.495-19.284
			c0.482-57.369,54.969-113.227,89.196-152.156c74.254-84.449,149.619-172.677,236.197-243.955
			c69.543-57.253,146.385-85.746,233.537-62.188c57.07,15.428,138.057,78.469,151.732,141.207
			c19.805,90.775-131.145,136.688-191.363,161.988C5864.691,6059.68,5744.969,6114.729,5622.48,6162.689z"/>
		<path id="_x31_80630637" fill="none" stroke="#010101" stroke-width="64" d="M5363.771,3085.896
			c-44.506,8.681-93.979-67.722-104.662-104.113c-11.367-38.705-161.26-239.511-75.254-264.971
			c39.18-11.596,95.309,19.065,135.752,19.728c12.268,0.203,25.797-1.099,37.812-3.439c17.723-3.456,37.812-26.047,57.27-16.441
			c21.85,10.782,16.392,48.947,15.984,68.746c-2.062,98.766,6.749,195.391-45.445,283.005
			C5378.937,3078.984,5371.611,3084.364,5363.771,3085.896z"/>
		<path id="_x31_80630638" fill="none" stroke="#010101" stroke-width="64" d="M5519.326,5095.368
			c13.254,23.688,12.562,69.269,59.729,30.748c40.908-59.139,61.363-85.794,47.307-160.446
			c-5.844-31.062-10.611-147.473-62.772-121.771C5487.742,4881.266,5474.412,5015.173,5519.326,5095.368z"/>
		<path id="_x31_80630639" fill="none" stroke="#010101" stroke-width="64" d="M6359.818,3185.987
			c41.738,1.748,74.633-17.279,112.895-50.243c47.406-40.839,58.588-86.147,64.359-147.579
			c8.234-87.557-24.008-223.663,91.158-251.542c58.678-14.203,87.105,20.716,93.234,76.052
			c15.336,138.435,84.477,258.188,62.449,402.764c-5.963,39.16-20.066,76.109-37.482,111.263
			c-17.715,35.782-25.607,69.69-38.049,107.862c-25.064,76.905-61.221,149.231-83.029,227.396
			c-27.824,99.749-49.898,230.949-83.26,331.037c-18.773,56.315-34.252,115.485-56.135,170.495
			c-23.371,58.733-68.201,107.76-55.139,176.653c11.771,62.052,100.986,92.835,107.443,145.914
			c9.109,74.896-94.678,65.842-143.852,61.589c-95.137-8.215-227.988-57.703-259.58-160.315
			c-41.377-134.417,75.021-237.134,124.301-345.594c49.99-110.023,111.104-205.787,132.15-328.506
			c7.859-45.832,15.352-92.484,23.029-138.898c8.697-52.551,19.35-122.897,19.141-175.579
			c-0.234-55.217,17.004-85.959-17.928-139.566c-26.844-41.152-102.238-71.018-104.326-78.435
			C6336,3189.568,6344.768,3185.353,6359.818,3185.987z"/>
		<path id="_x31_80630640" fill="none" stroke="#010101" stroke-width="64" d="M6294.344,2858.325
			c36.08-6.006,109.426-13.755,149.178-29.178c91.887-35.649,99.744,43.752,94.945,133.57
			c-1.852,34.651-13.35,105.868-27.297,126.814c-11.172,16.769-46.992,64.454-94.357,84.691
			c-122.572,52.374-205.803-44.72-215.35-156.323c-3.652-42.676-57.785-103.302-87.289-134.642
			c-29.43-31.257-68.504-66.657,85.723-32.127C6237.744,2859.6,6272.158,2862.019,6294.344,2858.325z"/>
		<path id="_x31_80630641" fill="none" stroke="#010101" stroke-width="64" d="M7541.266,2439.266
			c19.439,24.156,38.211,49.005,56.084,74.469c51.617,73.628,118.068,144.629,159.994,224.574
			c19.021,36.319,36.844,72.099,57.945,107.181c85.691,142.803,162.541,306.702,213.51,470.157
			c8.857,28.321,16.971,56.645,24.188,84.885c1.125,4.464,2.252,9.004,3.379,13.468c2.336,9.388,4.586,18.701,6.695,28.093
			l-0.002,0.078c16.402,70.572,28.254,141.07,34.656,211.186c0.076,1.541,0.227,3.082,0.385,4.623
			c9.178,118.373,4.75,255.775-29.602,384.807c-0.074,0.229-0.146,0.459-0.148,0.693c-1.627,5.928-3.336,11.855-5.041,17.781
			c-1.33,4.697-2.742,9.314-4.148,13.934c-1.111,3.851-2.297,7.621-3.557,11.396c-3.783,12.008-7.859,23.944-12.234,35.881
			c-1.932,5.236-3.932,10.47-5.938,15.708c-2.002,5.233-4.004,10.39-6.162,15.626c-2.078,5.158-4.232,10.395-6.457,15.553
			c-1.781,4.233-3.639,8.548-5.572,12.785c-0.668,1.459-1.262,2.919-1.932,4.311c-2.076,4.621-4.16,9.239-6.383,13.859
			c-2.602,5.546-5.203,11.01-7.949,16.477c-2.303,4.775-4.684,9.474-7.135,14.167c-2.6,5.16-5.277,10.246-8.025,15.323
			c-2.748,5.086-5.5,10.168-8.326,15.171c-2.82,5.081-5.723,10.163-8.697,15.171c-52.332,89.557-94.816,184.108-146.555,272.971
			c-1.855,3.232-3.641,6.467-5.348,9.703c-1.637,3.083-3.123,6.085-4.609,9.164c-0.295,0.693-0.666,1.386-0.891,2.08
			c-1.041,2.155-2.004,4.309-2.895,6.465c-0.598,1.154-1.037,2.312-1.562,3.542c-0.893,2.233-1.854,4.468-2.67,6.7
			c-2.676,6.775-5.049,13.702-7.119,20.629c-0.895,2.854-1.781,5.779-2.521,8.625c-0.814,2.851-1.627,5.775-2.295,8.625
			c-0.518,2.001-1.037,4.079-1.551,6.158c-0.447,2.076-0.967,4.234-1.406,6.391c-5.625,25.404-8.93,51.345-11.855,77.445
			c-0.666,5.461-1.25,11.008-1.838,16.47c-1.613,15.011-3.295,29.942-5.279,44.878c-0.369,2.928-0.812,5.927-1.254,8.932
			c-0.363,2.928-0.881,5.929-1.32,8.854c-0.443,3.001-0.959,5.924-1.475,8.929c-0.959,5.851-2.068,11.776-3.326,17.631
			c-0.59,2.688-1.176,5.462-1.775,8.157c-0.07,0.229-0.072,0.385-0.146,0.614c-4.213,18.477-9.695,36.647-17.123,54.358
			c-7.494,17.938-15.732,40.498-25.758,63.211c-8.324,16.25-17.166,32.262-25.939,48.358c-0.367,0.617-0.662,1.306-1.035,1.921
			c-16.885,24.953-37.807,44.291-64.945,48.775c-18.365-44.094,31.822-87.699,47.781-126.578
			c14.402-35.111,126.75-257.107,51.42-252.664c-43.408,2.57-78.297,51.935-109.498,77.666
			c-47.436,38.98-94.359,73.42-132.674,123.479c-21.355,27.804-36.805,61.605-65.328,82.791
			c-14.375,10.786-54.9,35.831-71.799,16.061c-23.326-27.158,46.896-84.934,62-106.342
			c57.127-81.097,146.504-109.099,214.328-175.113c59.033-57.459,113.135-121.31,157.531-191.541
			c43.721-69.223,93.271-133.918,137.146-203.073c37.322-58.752,70.588-135.903,90.818-202.886
			c41.506-137.35,65.537-318.486,47.727-461.025c-20.988-167.633-78.969-329.543-144.012-483.753
			c-76.82-182.064-181.133-351.488-303.986-504.037c-110.885-137.704-238.676-258.617-377.996-365.129
			c-70.373-53.755-138.217-112.593-210.596-163.115c-70.736-49.367-164.264-84.167-244.955-114.286
			c-71.363-26.582-140.955-65.098-211.639-90.144c-67.629-23.966-150.225-35.301-221.037-49.338
			c-137.822-27.462-316.305-56.124-462.959-62.411c-179.48-7.804-282.25,113.964-292.523,126.055
			c-71.811,84.719-111.795,235.075-9.75,313.595c71.193,54.752,179.289,62.531,263.836,81.174
			c71.119,15.731,142.303,28.923,213.787,43.19c95.52,19.022,185.85,20.42,237.217,119.989
			c49.865,96.875,103.316,345.921-54.912,374.282c-72.623,12.981-138.762-50.861-188.9-95.469
			c-91.461-81.454-183.586-122.876-302.604-145.577c-60.289-11.429-119.553,8.242-178.316,17.519
			c-134.293,21.031-278.711,16.437-412.799-9.488c-28.657-5.6-197.991-89.382-253.004-71.025l-0.669-339.833
			c156.233-17.275,499.685-37.759,469.272-179.983c-107.586-50.574-352.033,56.436-469.467,81.535
			c-0.189-94.909,0.863-205.289,0.863-205.289c10.074,1.073,19.773,1.911,29.318,2.52c0,0,0,0,0.075,0
			c11.27,1.84,22.605,1.909,27.153,1.674c0.08-0.001,0.148-0.003,0.148-0.003c14.846,0.839,29.621,1.83,45.062,3.665
			c2.908,0.308,5.893,0.691,8.879,1.073c37.902,5.207,76.539,4.103,115.764-0.466c6.635-0.776,13.123-1.703,19.609-2.862
			c45.559-7.883,87.818-24.616,127.754-46.733c32.713-18.036,63.924-39.685,94.088-63.185c18.398-14.331,36.793-28.813,54.815-43.76
			c21.591-17.948,42.665-36.591,62.393-56.541c23.451-23.649,42.497-46.829,62.293-69.088
			c18.238-20.488,37.144-40.283,60.603-59.004c3.873-3.082,8.197-5.699,12.738-7.859c29.734-13.953,72.783-9.135,111.066-1.618
			c20.594,4.066,39.771,8.979,54.697,12.122c43.578,9.21,86.559,16.414,129.385,22.234c62.447,8.652,124.818,14.692,188.906,20.958
			c92.811,9.017,188.051,42.743,277.924,75.549c13.588,4.993,27.02,9.911,40.383,14.751
			c153.766,55.851,329.43,133.24,500.273,224.798c49.137,26.367,97.523,54.891,144.801,85.493
			c119.494,77.12,232.008,167.253,332.682,267.941C7451.848,2335.567,7498.27,2385.875,7541.266,2439.266z"/>
		<path id="_x31_80630633" fill="none" stroke="#010101" stroke-width="64" d="M5832.434,1794.468
			c-4.852,0.35-9.709,0.804-14.568,1.415c-58.451,7.354-107.537,28.49-157.168,61.002c-46.631,30.552-85.492,73.021-112.445,122.756
			c-40.626,74.955-49.289,181.31,17.994,244.498c27.473,25.793,54.629,34.832,88.789,46.662
			c37.035,12.826,72.492,21.656,111.217,28.883c48.467,9.056,97.502,22.236,145.783,28.622c14.473,1.912,28.336,6.701,42.635,9.579
			c30.252,6.083,60.346,11.72,90.42,18.751c87.725,20.497,197.139,21.448,244.875,115.662
			c13.217,26.092,21.318,54.333,29.613,82.374c19.111,64.586,29.381,127.497,15.688,194.527
			c-5.938,29.079-15.416,60.881-38.779,78.027c-22.008,16.153-37.969,23.399-63.021,26.447
			c40.672,16.364,82.891-2.157,124.316-6.501c26.518-2.784,67.672-6.326,84.424-32.231c17.082-26.423-13.891-96.673-18.688-126.606
			c-9.301-58.1-19.086-116.524-38.248-172.787c-30.947-90.888-70.73-192.973-7.266-276.86c14.668-19.39,29.982-35.869,41.309-57.94
			c23.701-46.161,68.658-94.524,69.033-149.292c0.373-53.998-41.883-95.333-88.498-113.706c-23.1-9.112-46.082-18.588-69.057-28.09
			c-42.281-17.479-84.619-34.792-127.721-49.99c-16.01-5.649-30.725-11.614-46.986-15.619c-18.217-4.48-36.35-5.048-53.553-7.816
			c-28.479-4.59-56.992-5.418-85.072-10.599c-30.346-5.604-63.6-8.157-94.326-8.618
			C5892.844,1796.566,5862.312,1792.32,5832.434,1794.468z"/>
		<path id="_x31_80630634" fill="none" stroke="#010101" stroke-width="64" d="M4906.895,4726.395
			c33.378,6.713,32.965,38.28,32.461,66.828c-0.443,24.998-5.843,48.805-8.554,76.977c-3.643,37.909-5.638,83.271-7.218,123.167
			c-3.888,98.006-0.92,166.77-0.75,254.01c0.081,40.973,2.938,74.732,2.727,115.458c-0.17,32.368,1.302,73.951,1.445,106.478
			c0.389,89.479,11.143,179.583,11.914,269.081c0.253,29.207,7.695,89.486-29.844,97.5
			C4909.076,5835.893,4906.917,4727.43,4906.895,4726.395z"/>
		<path id="_x31_80630635" fill="none" stroke="#010101" stroke-width="64" d="M5211.078,2631.5
			c105.176,15.285,217.594,18.595,324.928,4.541c-35.898,19.837-71.703,37.693-105.771,58.795
			c-31.354,19.414-44.339,37.989-86.434,40.664c-46.723,2.978-96.367-11.928-142.867-18.044
			c-40.504-5.325-70.521,11.957-100.342,37.999c-19.941,17.408-37.208,44.181-52.947,65.675
			c-8.541,11.682-13.867,21.826-30.012,29.53c-7.731,3.69-23.367-3.032-32.329-3.826c-12.799-1.117-18.931,2.497-29.046,10.779
			c-6.645,5.438-12.587,21.245-19.589,22.386c-10.739,1.742-27.075-4.853-33.434-11.396c1.14-52.604-0.204-140.15-0.317-161.324
			c0.175-8.739,64.666,8.932,110.568-39.844c10.252-10.891,28.125-29.449,27.249-50.052c-1.029-24.083-21.454-49.544-15.009-47.328
			C5082.855,2589.662,5116.115,2617.703,5211.078,2631.5z"/>
	</g>
</g>
</svg>
