<svg width="9872" height="7808" xmlns="http://www.w3.org/2000/svg">
<g transform="scale(1.0)">
<g id="182599149" order="1" parent_id="" graphic_group_label_id="28" graphic_group_label="Atlas - Adult Mouse" sub_image_id="100960320" transform=" scale(1.0, 1.0)"><path id="182599151" parent_id="182599149" order="0" structure_id="8" d="M9157.752,3118.907
			c-0.016-0.05-30.137-30.964-30.162-31.013c-41.781-93.55-23.16-89.655-30.828-181.186
			c-15.113-180.466-72.004-393.802-153.875-556.752c-0.082-0.175-0.129-0.265-0.242-0.485
			c-107.637-218.809-234.715-410.102-411.211-576.956c-345.229-326.356-784.951-543.274-1224.701-715.161
			c-177.357-69.321-368.896-130.937-557.298-159.88c-200.545-30.798-325.008-56.144-614.09-65.752
			c-219.844-7.305-461.351-7.859-675.067,21.793c-205.002,28.45-243.205,200.885-419.125,287.876
			c-3.166,1.563-6.811,661.773-21.002,1519.113l-51.063,3210.938c0.024,0.004,0.052,0.008,0.076,0.014
			c-0.005,0.012-0.021,0.021-0.021,0.035c0.197,30.732-2.281,208.835-4.686,372.184c-2.014,136.817-3.975,263.285-4.268,284.135
			c-0.008,0.301-0.084,3.617-0.043,3.617l-0.095,382.373c58.416-1.967,338.778,37.422,401.165,48.726
			c357.829,64.806,301.206-122.127,286.635-212.897c-17.546-109.258-312.262-167.646-338.389-171.441
			c24.834,2.621,5.289-39.859-15.104-46.423c227.345,67.159,516.505,30.009,700.308,146.903
			c147.83,94.017,197.398,251.811,363.102,337.898c160.698,83.479,292.895,151.645,469.172,103.406
			c182.164-49.853,364.123-172.051,516.561-282.888c125.428-91.22,208.797-245.601,296.836-370.112
			c68.883-97.399,80.791-87.832,193.569-149.135c359.024-195.393,610.376-498.436,806.04-853.49
			c158.799-288.174,258.588-570.494,354.676-882.197c103.934-337.117,242.191-631.643,251.078-992.037
			C9250.092,3412.168,9227.957,3275.902,9157.752,3118.907z" style="stroke:black;fill:#bfdae3"/><path id="182599152" parent_id="182599149" order="1" structure_id="688" d="M5016.383,2664.623
			c140.336,18.275,268.745,7.968,381.514-37.756c153.5-62.232,281.524-182.807,403.524-319.162
			c216.086-241.473,642.94-0.07,893.103,96.071c166.748,64.087,333.549,127.155,488.824,216.105
			c73.41,42.067,136.644,80.158,199.863,125.165c65.781,46.84,128.161,104.027,188.691,158.334
			c83.811,75.195,153.137,162.898,211.465,258.844c126.85,208.615,212.787,446.297,271.326,682.328
			c23.174,93.448,54.978,187,62.349,283.321c7.944,103.856-6.235,207.167-25.462,309.082
			c-12.461,66.024-10.492,133.698-21.439,199.927c-9.156,55.378-28.638,108.568-43.965,162.451
			c-42.486,149.311-88.541,312.864-185.133,437.52c-77.606,100.166-194.51,155.658-287.303,239.106
			c-107.92,97.067-201.59,234.239-266.348,362.795c-6.438,12.789-94.369,139.265-93.287,140.362
			c3.158,3.234,204.369,208.856,259.885,253.943c53.96,43.825,214.835,186.505,292.327,130.427
			c19.763-14.304,48.44-24.381,87.588-45.651c98.2-53.438,190.944-116.521,276.978-187.883
			c78.715-65.306,149.143-138.41,221.97-216.541c16.661-17.883,30.91-38.356,46.783-57.129
			c22.247-26.305,42.773-54.006,62.631-82.139c21.911-31.037,44.454-60.432,65.188-92.413
			c19.334-29.821,39.682-57.964,57.592-88.724c24.926-42.765,50.934-85.201,74.9-128.664
			c158.799-288.174,258.588-570.494,354.678-882.196c103.932-337.117,242.188-631.644,251.078-992.037
			c4.391-177.942-17.742-314.209-87.949-471.204c-0.016-0.049-30.137-30.964-30.16-31.013
			c-41.781-93.55-23.162-89.655-30.832-181.186c-15.109-180.466-72.002-393.802-153.871-556.752
			c-0.082-0.175-0.131-0.265-0.244-0.485c-107.637-218.809-234.713-410.102-411.213-576.955
			c-345.227-326.357-784.949-543.275-1224.699-715.161c-177.357-69.322-368.896-130.938-557.298-159.88
			c-200.545-30.799-280.685-44.399-586.368-59.806c-219.688-11.072-489.072-13.808-702.789,15.847
			c-205.003,28.449-243.205,200.885-419.126,287.875C5037.984,1142.954,5016.383,2664.623,5016.383,2664.623" style="stroke:black;fill:#b0ffb8"/><path id="182599228" parent_id="182599149" order="2" structure_id="320" d="M6408.709,1003.477
			c-148.129-20.595-257.518-19.541-405.977-34.551c-14.162-1.45-29.658-2.918-45.987-4.564l-13.167-138.09l0.021-1.502
			c64.981,0.576,129.271,2.979,191.785,6.94c293.235,18.79,413.563,34.991,614.108,65.748
			c99.149,15.237,199.172,39.581,297.534,69.323l-0.002,0.083l-39.866,148.109
			C6802.45,1065.721,6595.391,1029.451,6408.709,1003.477z" style="stroke:black;fill:#1f9d5a"/><path id="182599227" parent_id="182599149" order="3" structure_id="943" d="M6762.395,1483.55
			c-245.582-121.239-502.561-244.89-772.407-301.396c-4.242-0.895-8.483-1.787-12.728-2.682l-20.515-215.112
			c16.329,1.646,31.826,3.114,45.987,4.564c148.459,15.01,257.848,13.956,405.977,34.551
			c186.682,25.975,393.741,62.245,598.451,111.497l-102.523,380.663l-13.641,50.617
			C6847.654,1525.374,6804.732,1504.5,6762.395,1483.55z" style="stroke:black;fill:#1f9d5a"/><path id="182599226" parent_id="182599149" order="4" structure_id="648" d="M6030.063,1733.923l-52.804-554.449
			c4.242,0.895,8.483,1.788,12.728,2.682c269.848,56.505,526.826,180.155,772.406,301.396
			c42.339,20.949,85.262,41.823,128.604,62.703l-118.186,438.509c-99.646-39.354-199.477-77.461-298.829-113.809
			C6333.708,1819.601,6174.749,1774.076,6030.063,1733.923z" style="stroke:black;fill:#1f9d5a"/><path id="182599225" parent_id="182599149" order="5" structure_id="844" d="M6601.91,2267.691
			c-183.652-69.396-332.165-110.354-511.583-154.58c-5.403-1.327-13.964-3.699-24.771-6.521l-35.494-372.668
			c144.687,40.153,303.646,85.678,443.92,137.031c99.354,36.348,199.184,74.454,298.828,113.809l-85.012,315.668
			C6659.173,2289.352,6630.541,2278.521,6601.91,2267.691z" style="stroke:black;fill:#1f9d5a"/><path id="182599224" parent_id="182599149" order="6" structure_id="882" d="M6074.371,2203.991l0.133-3.502
			l-8.945-93.898c10.806,2.821,19.365,5.193,24.77,6.521c179.418,44.227,327.93,85.184,511.583,154.581
			c28.631,10.83,57.263,21.658,85.89,32.738l-23.586,87.686l-1.295,3.152C6498,2324.386,6270.329,2210.99,6074.371,2203.991z" style="stroke:black;fill:#1f9d5a"/><path id="182599233" parent_id="182599149" order="7" structure_id="656" d="M5155.686,1434.104l-115.903-111.58
			l-2.002-0.028c1.368-115.528,2.362-180.588,3.37-181.074c175.999-86.97,214.122-259.465,419.168-287.879
			c152.887-21.219,320.12-30.39,483.282-28.771l-0.021,1.501l13.166,138.09c-63.729-6.565-139.439-15.553-192.602-32.147
			c-126.176-39.309-240.65-8.626-354.061,59.031c-119.043,70.998-189.121,106.642-225.104,239.455
			C5166.418,1299.184,5161.684,1363.273,5155.686,1434.104z" style="stroke:black;fill:#1f9d5a"/><path id="182599232" parent_id="182599149" order="8" structure_id="962" d="M5977.26,1179.474
			c-347.466-72.274-565.479-94.934-620.732,264.283c-8.168,53.112-11.238,111.469-11.594,172.533l-189.249-182.188
			c5.998-70.829,10.733-134.918,29.295-203.402c35.981-132.813,106.062-168.457,225.104-239.455
			c113.408-67.657,227.883-98.34,354.06-59.031c53.161,16.596,128.871,25.582,192.603,32.147L5977.26,1179.474z" style="stroke:black;fill:#1f9d5a"/><path id="182599231" parent_id="182599149" order="9" structure_id="767" d="M5641.361,1901.592
			l-296.429-285.303c0.354-61.064,3.425-119.42,11.595-172.533c55.254-359.217,273.267-336.559,620.731-264.283l52.804,554.449
			c-3.406-0.965-6.73-1.846-10.139-2.812c-82.773-22.852-250.313-57.483-319.175,34.323
			C5673.46,1801.845,5654.936,1849.723,5641.361,1901.592z" style="stroke:black;fill:#1f9d5a"/><path id="182599230" parent_id="182599149" order="10" structure_id="1021" d="M5830.775,2083.864
			l-189.414-182.272c13.574-51.869,32.099-99.748,59.389-136.156c68.861-91.808,236.4-57.176,319.175-34.324
			c3.407,0.965,6.731,1.846,10.14,2.812l35.494,372.668C6010.947,2092.145,5897.96,2064.282,5830.775,2083.864z" style="stroke:black;fill:#1f9d5a"/><path id="182599229" parent_id="182599149" order="11" structure_id="1085" d="M6074.371,2203.991
			c-39.107-1.382-76.939,1.425-112.764,9.767l-1.265-5.106l-129.567-124.787c67.185-19.582,180.172,8.278,234.781,22.727
			l8.945,93.898L6074.371,2203.991z" style="stroke:black;fill:#1f9d5a"/><path id="182599211" parent_id="182599149" order="12" structure_id="981" d="M8232.082,1672.322l68.294-92.9
			c80.671,59.863,157.943,124.016,231.06,193.117c176.451,166.824,303.502,358.15,411.145,576.987
			c0.164,0.169,0.162,0.252,0.244,0.42c81.896,162.997,138.811,376.284,153.887,556.782c6.73,79.434-6.475,87.008,17.27,148.826
			l-2.18,0.887h-0.084l-108.311,19.34c-22.053-111.185-33.496-241.158-54.016-342.811
			c-44.234-219.199-162.199-409.981-275.246-600.361C8563.703,1946.688,8407.184,1798.414,8232.082,1672.322z" style="stroke:black;fill:#188064"/><path id="182599210" parent_id="182599149" order="13" structure_id="201" d="M8331.435,2280.732
			c-81.911-102.345-190.344-193.381-291.651-274.807c-11.14-8.916-22.36-17.75-33.588-26.25v-0.083l225.888-307.271
			c175.102,126.092,331.62,274.365,442.062,460.287c113.049,190.381,231.014,381.164,275.246,600.362
			c20.52,101.652,31.965,231.626,54.016,342.811l-251.91,44.86c-1.973-8.205-3.941-16.49-5.992-24.862
			c-31.574-128.337-70.441-224.406-106.639-332.368C8577.123,2579.007,8451.471,2430.832,8331.435,2280.732z" style="stroke:black;fill:#188064"/><path id="182599209" parent_id="182599149" order="14" structure_id="1047" d="M8096.787,2266.352
			c-59.135-54.723-121.818-106.241-187.376-155.131l96.783-131.545c11.228,8.5,22.449,17.333,33.588,26.25
			c101.31,81.426,209.741,172.463,291.652,274.808c120.036,150.099,245.688,298.273,307.429,482.68
			c36.199,107.962,75.064,204.031,106.639,332.368c2.053,8.372,4.021,16.658,5.992,24.861l-180.152,32.101
			C8485.867,2822.256,8350.704,2501.335,8096.787,2266.352z" style="stroke:black;fill:#188064"/><path id="182599208" parent_id="182599149" order="15" structure_id="1070" d="M7985.439,2657.403
			c-84.832-90.289-187.113-173.731-296.133-246.755l220.104-299.428c65.558,48.889,128.241,100.408,187.376,155.131
			c253.917,234.983,389.08,555.904,474.555,886.391l-251.494,44.783c-18.853-47.817-39.13-95.155-60.5-141.924
			C8196.937,2919.074,8090.414,2769.081,7985.439,2657.403z" style="stroke:black;fill:#188064"/><path id="182599207" parent_id="182599149" order="16" structure_id="1038" d="M7754.426,2973.445
			c-72.438-99.793-174.247-187.065-284.202-264.691l0.001-0.083l219.083-298.021c109.019,73.023,211.3,156.466,296.133,246.755
			c104.974,111.678,211.496,261.671,273.907,398.198c21.37,46.769,41.647,94.105,60.5,141.923l-382.386,68.145
			C7888.691,3173.717,7829.971,3077.62,7754.426,2973.445z" style="stroke:black;fill:#188064"/><path id="182599206" parent_id="182599149" order="17" structure_id="1062" d="M7571.865,2903.396
			c-48.529-43.479-98.117-88.891-149.777-129.242l0.002-0.083l48.135-65.317c109.955,77.626,211.766,164.898,284.201,264.691
			c75.545,104.175,134.268,200.271,183.037,292.224l-84.475,15.085l-2.689,1.381c-20.951-40.839-43.25-80.863-66.98-119.906
			C7725.01,3066.306,7655.659,2978.57,7571.865,2903.396z" style="stroke:black;fill:#188064"/><path id="182599223" parent_id="182599149" order="18" structure_id="1030" d="M7480.021,1258.5
			c-148.539-56.892-309.977-104.287-472.86-143.527l39.866-148.109l0.002-0.083c88.561,26.686,175.725,57.689,259.775,90.569
			c71.938,28.122,143.942,57.495,215.426,88.363l-42.127,112.788L7480.021,1258.5z" style="stroke:black;fill:#188064"/><path id="182599222" parent_id="182599149" order="19" structure_id="113" d="M7118.266,1497.711
			c-30.076-8.931-191.543-66.087-208.394-0.666l-5.235-1.408l102.523-380.662c162.885,39.239,324.32,86.635,472.859,143.526
			l-123.596,330.479C7280.752,1553.463,7202.762,1522.671,7118.266,1497.711z" style="stroke:black;fill:#188064"/><path id="182599221" parent_id="182599149" order="20" structure_id="1094" d="M7298.007,1745.172
			c-136.104-69.148-273.431-134.31-407.011-198.918l13.641-50.617l5.235,1.408c16.851-65.421,178.317-8.265,208.394,0.666
			c84.496,24.96,162.486,55.752,238.16,91.268L7298.007,1745.172z" style="stroke:black;fill:#188064"/><path id="182599220" parent_id="182599149" order="21" structure_id="1128" d="M7150.576,2139.389
			c-124.986-52.808-251.236-104.716-377.766-154.626l118.186-438.509c133.58,64.608,270.907,129.77,407.011,198.918
			L7150.576,2139.389z" style="stroke:black;fill:#188064"/><path id="182599219" parent_id="182599149" order="22" structure_id="478" d="M7034.52,2449.783
			c-116.824-57.7-231.959-105.03-346.72-149.354l85.013-315.668c126.527,49.91,252.777,101.818,377.765,154.626L7034.52,2449.783z" style="stroke:black;fill:#188064"/><path id="182599218" parent_id="182599149" order="23" structure_id="510" d="M7004.706,2529.373
			c-101.476-45.805-205.787-85.475-310.095-125.563c-10.289-3.981-20.826-8.135-31.693-12.541l1.295-3.152l23.587-87.687
			c114.76,44.322,229.896,91.653,346.72,149.354L7004.706,2529.373z" style="stroke:black;fill:#188064"/><path id="182599217" parent_id="182599149" order="24" structure_id="450" d="M7733.709,1372.762
			c-78.088-41.723-163.486-79.71-253.605-114.26l42.127-112.788c273.08,117.62,540.184,256.931,778.146,433.708l-68.294,92.9
			C8074.247,1558.402,7901.395,1462.458,7733.709,1372.762z" style="stroke:black;fill:#188064"/><path id="182599216" parent_id="182599149" order="25" structure_id="854" d="M7621.648,1731.35
			c-89.949-52.566-176.039-100.742-265.225-142.371l123.596-330.478l0.084,0.001c90.119,34.55,175.518,72.538,253.604,114.26
			c167.685,89.697,340.538,185.641,498.373,299.561l-225.888,307.271C7883.624,1885.438,7756.118,1809.986,7621.648,1731.35z" style="stroke:black;fill:#188064"/><path id="182599215" parent_id="182599149" order="26" structure_id="577" d="M7909.411,2111.221
			c-187.59-139.781-397.929-257.773-611.403-366.049l58.418-156.193c89.185,41.629,175.274,89.805,265.225,142.371
			c134.469,78.637,261.975,154.089,384.546,248.243l-0.001,0.083L7909.411,2111.221z" style="stroke:black;fill:#188064"/><path id="182599214" parent_id="182599149" order="27" structure_id="625" d="M7345.051,2222.453
			c-64.35-27.85-129.201-55.621-194.475-83.064l147.431-394.217c213.478,108.275,423.813,226.268,611.403,366.049l-220.104,299.428
			C7577.729,2335.836,7459.154,2271.855,7345.051,2222.453z" style="stroke:black;fill:#188064"/><path id="182599213" parent_id="182599149" order="28" structure_id="945" d="M7034.52,2449.783
			l116.058-310.396c65.272,27.444,130.125,55.216,194.476,83.064c114.104,49.401,232.677,113.383,344.256,188.194l-219.082,298.022
			c-82.363-58.134-169.389-111.078-252.049-159.873C7156.366,2512.309,7095.254,2479.667,7034.52,2449.783z" style="stroke:black;fill:#188064"/><path id="182599212" parent_id="182599149" order="29" structure_id="1026" d="M7383.2,2745.078
			c-63.274-45.021-126.397-83.112-199.81-125.188c-58.184-33.268-117.918-62.971-178.686-90.519l29.813-79.589
			c60.734,29.883,121.848,62.524,183.656,99.014c82.661,48.795,169.686,101.738,252.049,159.873l-0.001,0.083l-48.135,65.316
			C7409.213,2764.13,7396.252,2754.354,7383.2,2745.078z" style="stroke:black;fill:#188064"/><path id="182599205" parent_id="182599149" order="30" structure_id="873" d="M9111.801,3056.443l2.18-0.887
			c3.625,9.395,8.063,20.052,13.564,32.393c0.084,0.001,30.186,30.957,30.186,30.957c70.215,156.993,92.334,293.29,87.922,471.263
			c-2.145,87.736-11.996,171.526-27.068,252.991l-5.158-0.99l-0.084-0.001l-123.479,0.356
			c19.598-94.75,32.607-189.676,31.09-283.887c-2.182-136.101-67.242-286.097-102.215-415.899
			c-5.711-21.188-10.734-43.7-15.332-66.957l108.313-19.34L9111.801,3056.443z" style="stroke:black;fill:#188064"/><path id="182599204" parent_id="182599149" order="31" structure_id="806" d="M8842.656,3843.235
			c-7.943-153.618-3.859-284.292-33.016-436.539c-19.203-100.132-35.223-189.29-58.146-286.054l251.912-44.86
			c4.598,23.257,9.621,45.77,15.332,66.957c34.973,129.803,100.031,279.799,102.215,415.899
			c1.516,94.211-11.492,189.137-31.09,283.887L8842.656,3843.235z" style="stroke:black;fill:#188064"/><path id="182599203" parent_id="182599149" order="32" structure_id="1035" d="M8571.342,3152.742l180.152-32.101
			c22.924,96.765,38.943,185.923,58.146,286.054c29.156,152.248,25.072,282.922,33.016,436.539l-116.805,0.366l-0.082-0.001
			c-15.316-163.398-67.004-285.176-102.563-462.541C8608.002,3305.094,8590.969,3228.602,8571.342,3152.742z" style="stroke:black;fill:#188064"/><path id="182599202" parent_id="182599149" order="33" structure_id="1090" d="M8474.81,3844.257
			c-16.555-223.817-73.262-440.021-154.962-646.731l251.494-44.783c19.627,75.86,36.66,152.352,51.865,228.316
			c35.559,177.365,87.246,299.143,102.563,462.541L8474.81,3844.257z" style="stroke:black;fill:#188064"/><path id="182599201" parent_id="182599149" order="34" structure_id="862" d="M7937.462,3265.669l382.386-68.146
			c81.7,206.711,138.407,422.916,154.962,646.732l-290.674,0.852c-27.483-74.886-68.729-173.824-109.908-277.602
			C8034.902,3468.345,7992.568,3369.641,7937.462,3265.669z" style="stroke:black;fill:#188064"/><path id="182599200" parent_id="182599149" order="35" structure_id="893" d="M7852.988,3280.755l84.474-15.085
			c55.106,103.972,97.44,202.676,136.767,301.838c41.178,103.777,82.424,202.716,109.908,277.602l-127.566,0.383l-1.591,0.395
			c-0.078-0.418-0.237-0.837-0.315-1.256c-47.535-191.965-113.244-384.936-204.363-562.495L7852.988,3280.755z" style="stroke:black;fill:#188064"/><path id="182599193" parent_id="182599149" order="36" structure_id="36" d="M9105.943,4249.127
			c-36.814,108.941-76.061,218.6-111.369,333.068c-3.844,12.461-7.688,24.838-11.533,37.213l-1.576-0.521l-0.086-0.001
			l-133.539-31.737c62.998-96.061,107.67-200.054,129.813-297.854c4.357-19.211,8.965-38.501,13.742-57.873L9105.943,4249.127z" style="stroke:black;fill:#009c75"/><path id="182599192" parent_id="182599149" order="37" structure_id="180" d="M8581.672,4523.938
			c17.539-36.963,34.551-78.271,52.994-126.317l9.791,3.808c73.727-45.854,76.402-10.692,130.707-105.373
			c15.99-27.893,28.607-59.084,38.5-92.232l177.73,27.602c-4.777,19.371-9.385,38.662-13.742,57.873
			c-22.143,97.801-66.814,201.793-129.813,297.854L8581.672,4523.938z" style="stroke:black;fill:#009c75"/><path id="182599191" parent_id="182599149" order="38" structure_id="148" d="M8775.164,4296.053
			c-54.305,94.682-56.98,59.521-130.707,105.375l-9.791-3.809c2.6-6.973,5.369-14.023,8.057-21.245
			c20.273-53.692,39.902-120.828,55.477-190.438l115.465,17.886C8803.771,4236.971,8791.154,4268.161,8775.164,4296.053z" style="stroke:black;fill:#009c75"/><path id="182599190" parent_id="182599149" order="39" structure_id="187" d="M8390.675,4478.548
			c39.458-106.985,65.937-216.489,79.178-328.015l228.347,35.4c-15.574,69.611-35.203,136.746-55.477,190.439
			c-2.688,7.221-5.457,14.272-8.057,21.244c-18.443,48.047-35.455,89.355-52.994,126.318L8390.675,4478.548z" style="stroke:black;fill:#009c75"/><path id="182599189" parent_id="182599149" order="40" structure_id="638" d="M8257.218,4446.813
			c8.288-79.475,5.188-161.943,5.451-210.496c0.171-36.037,0.787-80.078-8.758-119.34l215.941,33.559
			c-13.241,111.523-39.72,221.027-79.178,328.014L8257.218,4446.813z" style="stroke:black;fill:#009c75"/><path id="182599199" parent_id="182599149" order="41" structure_id="897" d="M9218.582,3843.16
			c-25.98,139.544-67.469,272.281-112.639,405.967l-114.549-17.706c31.738-127.7,71.441-258.126,98.469-388.896l123.477-0.356
			l0.084,0.001L9218.582,3843.16z" style="stroke:black;fill:#11ad83"/><path id="182599198" parent_id="182599149" order="42" structure_id="1106" d="M8813.664,4203.82
			c32.826-110.082,35.508-242.027,29.645-347.479c-0.273-4.425-0.463-8.767-0.652-13.106l247.207-0.711
			c-27.027,130.771-66.73,261.196-98.469,388.896L8813.664,4203.82z" style="stroke:black;fill:#11ad83"/><path id="182599197" parent_id="182599149" order="43" structure_id="1010" d="M8698.199,4185.936
			c19.494-87.326,32.535-178.664,32.07-252.588c-0.227-31.539-1.813-61.261-4.418-89.746l116.805-0.366
			c0.189,4.341,0.379,8.682,0.652,13.106c5.863,105.451,3.182,237.396-29.645,347.479L8698.199,4185.936z" style="stroke:black;fill:#11ad83"/><path id="182599196" parent_id="182599149" order="44" structure_id="1058" d="M8698.199,4185.936l-228.347-35.4
			c6.428-53.889,9.775-108.235,10.041-162.961c0.257-48.134-1.493-95.879-5.084-143.316l250.96-0.656l0.082,0.001
			c2.605,28.485,4.191,58.208,4.418,89.747C8730.734,4007.271,8717.693,4098.607,8698.199,4185.936z" style="stroke:black;fill:#11ad83"/><path id="182599195" parent_id="182599149" order="45" structure_id="857" d="M8088.484,3937.542
			c22.654,14.583,87.361,52.615,121.817,40.667c15.51-5.373,1.878-56.621-26.167-133.1l290.674-0.853
			c3.591,47.438,5.341,95.183,5.084,143.315c-0.266,54.727-3.613,109.073-10.041,162.961l-215.941-33.559
			c-9.228-38.089-27.943-71.806-65.652-89.688c-27.432-13.064-61.451-32.313-92.724-33.25l-0.083-0.002
			c-3.855-16.655-9.007-36-14.488-55.683L8088.484,3937.542z" style="stroke:black;fill:#11ad83"/><path id="182599194" parent_id="182599149" order="46" structure_id="849" d="M8054.979,3845.886l1.592-0.395
			l127.565-0.382c28.045,76.479,41.677,127.727,26.167,133.1c-34.456,11.948-99.163-26.084-121.818-40.667l-7.521,0.813
			C8071.189,3903.595,8060.59,3868.157,8054.979,3845.886z" style="stroke:black;fill:#11ad83"/><path id="182599238" parent_id="182599149" order="47" structure_id="935" d="M5156.904,1841.498
			l-119.338-62.907l-5.09-0.071c2.324-189.683,4.01-345.834,5.303-456.024l2.002,0.028l115.902,111.58
			c-0.292,3-0.5,5.916-0.792,8.916c-6.284,73.411,7.456,158.616,7.009,232.276
			C5161.548,1730.354,5159.52,1785.888,5156.904,1841.498z" style="stroke:black;fill:#40a666"/><path id="182599237" parent_id="182599149" order="48" structure_id="211" d="M5161.9,1675.296
			c0.447-73.66-13.293-158.865-7.008-232.276c0.291-3,0.5-5.916,0.791-8.916l189.25,182.187
			c-0.818,106.109,6.261,220.17,8.244,328.737l-196.273-103.529C5159.52,1785.888,5161.548,1730.354,5161.9,1675.296z" style="stroke:black;fill:#40a666"/><path id="182599236" parent_id="182599149" order="49" structure_id="1015" d="M5608.833,2079.755
			l-255.655-134.729c-1.982-108.566-9.063-222.628-8.244-328.736l296.429,285.303
			C5626.116,1959.611,5617.059,2022.639,5608.833,2079.755z" style="stroke:black;fill:#40a666"/><path id="182599235" parent_id="182599149" order="50" structure_id="919" d="M5763.945,2161.602
			l-155.112-81.847c8.226-57.116,17.283-120.144,32.528-178.163l189.414,182.272c-21.526,6.206-38.369,17.399-47.131,35.381
			C5776.857,2133.25,5770.234,2147.423,5763.945,2161.602z" style="stroke:black;fill:#40a666"/><path id="182599234" parent_id="182599149" order="51" structure_id="927" d="M5901.339,2234.021
			l-137.394-72.42c6.289-14.179,12.912-28.353,19.699-42.356c8.762-17.981,25.604-29.175,47.131-35.381l129.567,124.787l1.265,5.106
			C5940.766,2218.639,5920.648,2225.282,5901.339,2234.021z" style="stroke:black;fill:#40a666"/><path id="182599243" parent_id="182599149" order="52" structure_id="588" d="M5032.479,1778.52l5.088,0.071
			l119.338,62.907c-8.545,181.252-24.125,364.408-14.279,543.165c2.596,47.006,6.675,125.068,30.357,167.531
			c21.563,38.929,81.019,52.86,77.569,102.534l1.433,10.949c-72.144,10.336-148.974,9.844-229.756-0.297l0.186-1.332
			c20.166,1.701,40.825,3.909,61.082,5.025c18.589,1.096,140.303,7.556,143.471-16.011c2.607-19.485-42.881-41.813-57.805-42.522
			c-30.012-1.588-139.26,13.232-146.363,49.926l-2.586-0.036C5025.704,2327.796,5029.611,2024.841,5032.479,1778.52z" style="stroke:black;fill:#40a666"/><path id="182599242" parent_id="182599149" order="53" structure_id="296" d="M5142.624,2384.662
			c-9.845-178.756,5.735-361.913,14.28-543.165l196.272,103.529c0.288,15.188,0.495,30.208,0.536,45.142
			c0.584,220.424,9.527,511.128-17.48,652.577l1.434,4.858c-27.725,7.871-56.341,13.896-85.684,18.072l-1.432-10.949
			c3.448-49.675-56.007-63.604-77.57-102.534C5149.299,2509.73,5145.219,2431.668,5142.624,2384.662z" style="stroke:black;fill:#40a666"/><path id="182599241" parent_id="182599149" order="54" structure_id="772" d="M5336.232,2642.746
			c27.01-141.449,18.064-432.153,17.48-652.577c-0.041-14.935-0.248-29.954-0.536-45.142l255.655,134.729
			c-4.158,28.809-8.129,56.116-12.643,80.581c-26.199,143.212-57.751,275.42-121.25,407.181l6.749,18.532
			c-27.08,15.472-54.972,29.181-83.75,40.875c-19.634,7.984-39.753,14.877-60.274,20.681L5336.232,2642.746z" style="stroke:black;fill:#40a666"/><path id="182599240" parent_id="182599149" order="55" structure_id="810" d="M5601.82,2502.969
			c-38.563,31.246-78.5,59.219-120.131,83.08l-6.748-18.531c63.498-131.762,95.051-263.97,121.25-407.182
			c4.514-24.465,8.482-51.772,12.642-80.581l155.112,81.847c-66.051,147.242-108.354,296.652-162.535,340.861L5601.82,2502.969z" style="stroke:black;fill:#40a666"/><path id="182599239" parent_id="182599149" order="56" structure_id="819" d="M5801.445,2307.708
			c-63.906,71.521-129.586,138.677-199.625,195.262l-0.41-0.506c54.181-44.209,96.484-193.619,162.535-340.862l137.394,72.42
			C5864.732,2250.528,5831.109,2274.585,5801.445,2307.708z" style="stroke:black;fill:#40a666"/><path id="182599188" parent_id="182599149" order="57" structure_id="120" d="M8841.9,5029.148
			c-14.303-21.225-206.564-137.211-264.83-170.563v-0.084l1.965-3.31l15.383-8.127c101.301-66.91,187.436-158.976,253.422-259.916
			l133.539,31.736l0.086,0.001l1.576,0.522c-44.025,141.295-89.305,276.73-141.057,409.74H8841.9z" style="stroke:black;fill:#219866"/><path id="182599187" parent_id="182599149" order="58" structure_id="163" d="M8561.508,4849.939
			c-31.992-15.215-107.615-36.295-184.386-58.896l2.72-9.556c98.865-83.629,152.225-152.711,201.83-257.553l266.168,63.211
			c-65.986,100.941-152.121,193.007-253.422,259.916l-15.383,8.127l-1.965,3.311
			C8569.125,4853.969,8563.66,4850.973,8561.508,4849.939z" style="stroke:black;fill:#219866"/><path id="182599186" parent_id="182599149" order="59" structure_id="344" d="M8377.122,4791.045
			c-40.545-11.997-81.335-24.332-116.288-36.501l7.449-1.731c48.809-59.801,73.908-154.224,100.76-218.922
			c7.599-18.33,14.865-36.832,21.632-55.342l190.997,45.39c-49.605,104.841-102.965,173.923-201.83,257.552L8377.122,4791.045z" style="stroke:black;fill:#219866"/><path id="182599185" parent_id="182599149" order="60" structure_id="314" d="M8107.077,4700.916
			c-22.44-11.994-45.397-22.911-46.448-19.339l6.073-28.614c134.216,43.094,177.119-77.609,190.516-206.15l133.457,31.736
			c-6.767,18.51-14.033,37.012-21.632,55.342c-26.852,64.698-51.951,159.121-100.76,218.922l-7.449,1.731
			c0,0-0.083-0.002-0.167-0.003c-41.927-14.52-75.183-28.751-88.937-41.541c-0.164-0.169-0.412-0.339-0.576-0.592l-0.082-0.001
			l-62.625-13.976L8107.077,4700.916z" style="stroke:black;fill:#219866"/><path id="182599153" parent_id="182599149" order="61" structure_id="698" d="M8581.902,4861.363
			c-1.695-0.979-3.313-1.908-4.832-2.778v-0.084c-7.945-4.532-13.41-7.528-15.563-8.562
			c-31.992-15.215-107.615-36.295-184.386-58.896c-2.194-0.649-4.39-1.3-6.585-1.951c-38.358-11.381-76.642-23.039-109.703-34.55
			c0,0-0.083-0.002-0.167-0.003c-41.927-14.521-75.183-28.751-88.937-41.541c45.508,44.854,72.999,137.01,88.433,196.71
			c44.866,174.074-65.398,327.038-224.836,393.05c-41.286,17.108-108.778,23.088-173.101,28.86
			c-68.75,6.379-133.906,12.392-159.619,31.387c-124.936,92.523-220.914,178.611-313.265,303.378
			c-48.726,65.726-99.534,149.276-134.935,222.614c-18.646,38.865-98.635,73.203,34.273,185.771
			c38.586,32.631,68.475,71.777,97.438,97.831c2.662,2.396,5.315,4.688,7.969,6.847c27.34,22.265,53.416,45.804,80.04,68.707
			c23.42,20.147,47.265,39.808,72.782,57.655c44.282,31.071,124.93,92.603,185.542,65.587l13.864-7.911
			c4.408-3.19,9.267-6.171,14.58-9.114c47.311-20.437,120.006-63.207,155.951-84.754c63.168-37.863,123.692-83.496,185.557-132.688
			c15.546-12.363,32.273-24.837,46.009-39.309c10.465-11.015,22.354-21.018,33.683-31.123
			c14.723-13.133,31.811-26.351,44.354-42.389c-0.01,0.012-0.019,0.023-0.027,0.035c35.734-35.496,70.796-72.509,106.428-110.734
			c16.661-17.883,30.91-38.357,46.783-57.131c22.247-26.304,42.773-54.004,62.631-82.138c21.911-31.037,44.454-60.431,65.188-92.413
			c19.332-29.82,39.68-57.964,57.592-88.725c24.924-42.764,50.932-85.199,74.9-128.662
			c79.398-144.088,144.047-286.711,200.855-432.274l1.1-2.922C8827.971,5008.479,8645.25,4897.927,8581.902,4861.363z" style="stroke:black;fill:#9ad2bd"/><path id="182599184" parent_id="182599149" order="62" structure_id="276" d="M8581.902,4861.363
			c5.965,47.263,21.111,90.559,20.881,138.41c-0.268,55.478-21.162,112.047-44.504,161.631
			c-16.645,35.354-32.166,71.278-47.355,107.365c-31.016,73.66-60.698,147.989-95.911,219.506
			c-57.713,117.217-158.049,223.1-269,291.842c-115.638,71.638-254.952,73.39-377.021,128.711
			c-61.723,27.973-111.687,69.191-150.024,125.065c-48.699,70.942-96.625,142.788-144.839,214.263
			c23.42,20.146,47.264,39.807,72.782,57.654c44.282,31.07,124.929,92.604,185.542,65.587l13.863-7.911
			c4.41-3.191,9.268-6.172,14.582-9.113c-9.258,4-17.551,7.148-24.397,9.11c-85.28,24.423-149.79-86.603-88.519-157.325
			c70.237-81.059,220.961-135.458,311.346-190.303c53.785-32.644,202.493-161.738,265.399-86.432
			c16.263,19.463,23.738,52.949,13.163,76.189c-3.017,6.629-6.951,12.762-11.467,18.531
			c35.734-35.496,70.796-72.508,106.428-110.734c16.661-17.883,30.91-38.357,46.783-57.13
			c22.247-26.304,42.773-54.005,62.631-82.138c21.911-31.037,44.454-60.432,65.188-92.414c19.334-29.82,39.682-57.963,57.594-88.724
			c24.924-42.765,50.932-85.2,74.898-128.663c79.4-144.087,144.047-286.71,200.855-432.273l1.102-2.922
			C8827.971,5008.479,8645.25,4897.927,8581.902,4861.363z" style="stroke:black;fill:#6acbba"/><path id="182599183" parent_id="182599149" order="63" structure_id="284" d="M7768.992,5908.829
			c122.068-55.321,261.384-57.074,377.021-128.712c110.95-68.742,211.286-174.625,269-291.842
			c35.213-71.516,64.896-145.846,95.912-219.505c15.188-36.087,30.711-72.011,47.355-107.365
			c23.34-49.585,44.234-106.153,44.504-161.632c0.23-47.852-14.918-91.146-20.883-138.41c-1.695-0.979-3.313-1.908-4.832-2.777
			l0.002-0.084c-7.945-4.533-13.41-7.529-15.564-8.562c-31.99-15.215-107.614-36.296-184.385-58.896
			c-2.194-0.649-4.39-1.301-6.585-1.951c-22.462,19.162-53.556,50.899-59.102,69.188c-13.507,44.538,24.723,105.633,37.821,146.746
			c87.336,274.031-161.301,380.961-356.859,481.045c-63.152,32.318-130.304,52.65-191.733,87.044
			c-107.312,60.097-181.935,176.793-240.119,281.483c-31.276,56.27-71.714,107.192-98.313,166.143
			c-12.709,28.164-14.896,62.551-28.283,89.27c-11.397,22.75-39.137,38.551-47.826,62.592c2.662,2.395,5.315,4.688,7.969,6.846
			c27.34,22.266,53.416,45.805,80.04,68.708c48.214-71.474,96.14-143.317,144.839-214.263
			C7657.307,5978.021,7707.271,5936.801,7768.992,5908.829z" style="stroke:black;fill:#6acbba"/><path id="182599182" parent_id="182599149" order="64" structure_id="291" d="M7462.23,6020.742
			c26.6-58.949,67.037-109.873,98.313-166.143c58.186-104.69,132.809-221.388,240.119-281.483
			c61.432-34.394,128.581-54.726,191.734-87.044c195.559-100.084,444.194-207.014,356.858-481.045
			c-13.099-41.113-51.328-102.208-37.821-146.746c5.546-18.287,36.64-50.025,59.102-69.188
			c-38.358-11.381-76.642-23.039-109.703-34.551c0,0-0.083-0.002-0.167-0.002c-41.927-14.521-75.183-28.752-88.937-41.541
			c45.508,44.854,72.999,137.01,88.433,196.709c44.866,174.074-65.398,327.039-224.836,393.051
			c-41.286,17.107-108.778,23.088-173.101,28.86c-68.75,6.379-133.906,12.392-159.619,31.386
			c-124.936,92.523-220.914,178.611-313.265,303.379c-48.726,65.726-99.534,149.275-134.935,222.613
			c-18.646,38.866-98.635,73.203,34.273,185.771c38.586,32.631,68.475,71.777,97.438,97.832
			c8.689-24.041,36.429-39.842,47.826-62.592C7447.334,6083.293,7449.521,6048.906,7462.23,6020.742z" style="stroke:black;fill:#6acbba"/><path id="182599181" parent_id="182599149" order="65" structure_id="19" d="M5226.902,2653.002
			c2.629-19.479-42.854-41.77-57.801-42.52c-30.97-1.558-146.317,14.226-146.754,53.571c20.215,1.67,40.844,3.866,61.107,5.031
			C5102.084,2670.139,5223.717,2676.585,5226.902,2653.002z" style="stroke:black;fill:#7ed04b"/><path id="182599180" parent_id="182599149" order="66" structure_id="583" d="M8091.58,4436.955
			c-1.816,9.652-18.438,142.074-24.059,194.547c-1.392,12.992-2.107,21.083-1.76,21.195
			c218.19,71.043,196.317-289.186,196.977-416.398c0.361-70.921,2.236-172.564-74.427-209.055
			c-27.931-13.299-62.627-32.949-94.354-33.376c9.849,0.138,25.293,168.44,25.508,187.559
			C8120.447,4267.184,8107.441,4352.912,8091.58,4436.955z" style="stroke:black;fill:#8ada87"/><path id="182599179" parent_id="182599149" order="67" structure_id="952" d="M7786.734,5298.743
			c29.744,31.981,98.89,6.231,133.928,0.353c60.337-10.121,116.881-18.903,170.252-52.004
			c86.936-53.94,143.226-137.655,146.081-240.811c2.304-83.462-19.184-221.018-86.333-280.021
			c-6.281-5.521-87.959-51.645-90.007-44.676c-28.755,98.209-53.22,190.941-85.001,284.963
			c-22.631,66.996-48.268,133.721-83.543,195.199C7861.658,5214.841,7823.861,5251.13,7786.734,5298.743z" style="stroke:black;fill:#a0ee9d"/><path id="182599163" parent_id="182599149" order="68" structure_id="672" d="M8081.693,4017.488
			c-7.467-6.687-48.33-123.051-84.4-227.837c-31.266-90.806-101.609-290.632-159.829-402.69
			c-57.181-110.035-133.292-211.818-197.675-280.849c-63.4-67.964-251.643-200.978-375.777-273.63
			c-76.198-44.592-231.933-129.283-402.021-185c-93.68-30.669-197.373-51.954-295.143-73.645
			c-70.896-15.733-173.123-48.313-262.022-55.121c-59.465-4.554-154.406,25.574-199.674,59.77
			c-18.974,14.337-65.151,51.466-98.897,78.107c-33.733,26.643-123.354,154.461-138.359,183.448
			c-54.632,105.535-89.48,209.613-106.145,326.839c-4.735,33.318-3.902,70.22-3.224,103.916
			c0.673,33.406,15.792,161.107,22.021,197.06c9.188,52.985,20.58,104.601,26.449,157.642
			c5.556,50.134,28.166,211.047,29.73,248.611c1.557,37.564,16.193,183.769,13.383,235.869c-2.816,52.104,4.002,77.635,2.457,117.45
			c-0.457,11.858,58.543,42.587,94.895,79.976c97.224,100.01,100.836,275.819,119.443,406.287
			c10.123,71.058,66.667,303.357,104.977,397.752c38.309,94.391,110.807,293.533,214.895,392.332
			c107.027,101.609,380.689,290.645,502.77,341.467c57.527,23.953,140.804,75.636,243.231,80.062
			c111.372,4.821,114.599-99.534,164.419-180.153c36.482-59.062,77.227-115.381,122.059-168.388
			c96.801-114.405,212.194-187.717,326.563-283.138c65.545-54.674,127.234-146.658,161.945-224.615
			c62.231-139.769,105.123-297.474,133.929-458.019c26.046-145.166,40.574-292.653,47.47-431.302
			C8092.118,4120.361,8108.123,4072.102,8081.693,4017.488" style="stroke:black;fill:#98d6f9"/><path id="182599164" parent_id="182599149" order="69" structure_id="998" d="M6416.499,5577.111
			c-124.101-74.039,164.938,299.467,329.468,414.609c15.879,11.104,304.607,189.863,309.505,181.363
			c23.7-41.334,46.672-81.871,74.194-120.696c16.707-23.558,43.961-68.446,34.881-98.792
			c-62.301-1.336-115.52-18.792-174.715-37.911C6777.736,5847.154,6599.475,5699.424,6416.499,5577.111z" style="stroke:black;fill:#80cdf8"/><path id="182599178" parent_id="182599149" order="70" structure_id="481" d="M6595.825,6588.229
			c-54.839-47.349-119.063,15.859-105.088,78.19C6514.416,6771.943,6675.695,6657.193,6595.825,6588.229z" style="stroke:black;fill:#80cdf8"/><path id="182599177" parent_id="182599149" order="71" structure_id="458" d="M7493.52,6317.012
			c-9.189,135.726-76.114,220.789-163.705,324.981c-121.795,144.877-254.476,266.405-449.416,297.36
			c-151.674,24.08-371.517,45.734-508.149-42.506c-83.099-53.688-137.994-122.881-165.424-213.086
			c-18.537,12.318-36.519,23.518-53.774,32.621c-30.808,16.25-72.355,28.965-48.088,57.722
			c64.129,75.97,153.267,186.688,213.451,219.159c44.688,24.104,94.98,51.236,142.726,75.404
			c82.438,41.746,173.688,70.106,266.832,67.987c75.124-1.715,161.987-36.115,223.344-61.147
			c101.458-41.369,181.674-95.916,273.317-155.75c53.4-34.863,107.822-71.123,156.198-112.803
			c50.826-43.795,93.845-97.881,133.271-151.943c46.059-63.188,152.684-218.892,169.44-236.351
			C7625.88,6399.816,7554.787,6359.07,7493.52,6317.012z" style="stroke:black;fill:#80cdf8"/><path id="182599176" parent_id="182599149" order="72" structure_id="465" d="M6372.248,6896.848
			c136.634,88.242,356.477,66.586,508.15,42.506c194.939-30.955,327.619-152.482,449.416-297.359
			c87.59-104.193,154.515-189.257,163.703-324.98c-26.185-17.976-50.578-36.188-71.355-53.035
			c-71.592,64.098-15.893,218.578-92.424,277.688c-55.23,42.671-87.157,40.569-120.854-7.946
			c-25.858-37.196-35.891-68.182-97.018-72.271c-73.148-4.896-99.301,59.337-103.096,122.84
			c-6.097,102.201,94.705,120.691-11.864,192.573c-117.286,79.12-238.812,98.078-293.908-52.09
			c-87.718-41.431-152.864,71.513-254.347,31.897c-46.736-18.24-100.438-90.696-136.461-145.229
			c-36.318,23.97-71.762,49.991-105.367,72.323C6234.254,6773.967,6289.15,6843.161,6372.248,6896.848z" style="stroke:black;fill:#80cdf8"/><path id="182599175" parent_id="182599149" order="73" structure_id="473" d="M7405.43,6250.04
			c-49.64-42.581-176.41-235.426-222.262-220.026c-35.779,12.014-144.486,320.617-195.747,385.237
			c-62.967,79.386-162.763,152.688-292.836,161.321c-97.53,6.463-124.521-54.367-221.522-38.941
			c-53.502,8.506-108.108,38.986-160.869,73.809c36.021,54.533,89.724,126.99,136.459,145.23
			c101.482,39.613,166.629-73.328,254.348-31.898c55.098,150.168,176.622,131.211,293.908,52.09
			c106.57-71.881,5.77-90.371,11.863-192.572c3.795-63.503,29.946-127.736,103.097-122.84c61.127,4.09,71.158,35.074,97.017,72.271
			c33.697,48.518,65.625,50.617,120.854,7.946c76.53-59.11,20.832-213.592,92.424-277.688
			C7416.281,6259.21,7410.689,6254.552,7405.43,6250.04z M6490.736,6666.419c-13.977-62.331,50.25-125.539,105.088-78.19
			C6675.695,6657.193,6514.416,6771.943,6490.736,6666.419z" style="stroke:black;fill:#80cdf8"/><path id="182599170" parent_id="182599149" order="74" structure_id="250" d="M5756.43,3464.109
			c-42.627-39.313-114.352-53.062-166.065-81.674c-58.546-32.388-113.933-70.771-163.442-115.853
			c-69.465-63.257-131.01-142.91-210.515-193.681c-59.582-38.041-132.492-52.737-201.903-57.213l0.265-16.677
			c0.813-27.511,0,0,1.034-65.007c80.256-5.094,77.08-6.159,119.314-10.123c51.515-4.845,101.248-13.523,147.66-19.487
			c24.375-3.133,59.5-7.982,87.092-14.073c23.721-5.231,31.303-7.093,41.025-0.116c67.244,48.224,138.275,88.128,192.479,156.34
			c39.508,49.728,88.799,118.202,107.35,178.777c8.646,28.288,18.482,72.844,24.292,101.499
			c10.276,50.736,21.726,102.332,35.181,152.307L5756.43,3464.109z" style="stroke:black;fill:#90cbed"/><path id="182599169" parent_id="182599149" order="75" structure_id="258" d="M5756.43,3464.109
			c-42.627-39.313-114.352-53.062-166.065-81.674c-58.546-32.388-113.933-70.771-163.442-115.853
			c-69.465-63.257-131.01-142.91-210.515-193.681c-59.582-38.041-132.492-52.737-201.903-57.213l-0.498,17.729
			c-0.918,147.224-4.428,291.83-6.321,438.847c-0.396,30.463-5.14,101.735,4.101,126.897c0.334,0.392,0.664,0.787,1.015,1.163
			c14.604,15.719,55.931,24.543,75.677,45.103c75.559,78.691,108.229,205.737,137.593,308.025
			c19.282,67.143,29.667,111.53,47.249,200.868c10.497,53.371,10.719,137.183,3.516,196.103
			c-6.17,50.304-23.516,85.867-51.863,134.688c-18.623,32.076-102.621,116.281-55.211,152.061
			c43.482,32.798,113.072-14.596,150.104-37.253c50.66-30.989,106.131-57.603,154.196-90.313
			c107.787-73.354,210.623-155.654,316.474-231.979c24.578-17.729,39.527-21.393,41.519-36.258
			c10.093-75.637,1.353-218.23-4.295-313.605c-1.492-25.182-5.474-81.72-6.929-108.659
			c-5.994-111.277-21.613-232.238-50.631-339.976L5756.43,3464.109z" style="stroke:black;fill:#90cbed"/><path id="182599165" parent_id="182599149" order="76" structure_id="342" d="M6295.572,5475.307
			c-41.58-51.785-126.471-44.469-184.834-41.211c-87.358,4.877-165.307,46.582-250.215,60.541
			c-95.203,15.653-243.267-38.955-288.902-3.748c-34.355,26.521-2.999,90.449,10.79,123.209
			c56.519,134.272,76.783,176.271,160.013,340.121c15.279,30.097,88.59,35.932,128.668,45.604
			c188.185,45.415,368.824,121.251,547.855,197.47c22.042,9.381,143.904,76.414,214.615,163.604
			c48.214,59.446,35.814,123.552,20.779,154.629c-20.307,41.976,102.586,26.263,137.478,12.353
			c89.987-35.873,155.821-115.494,201.763-197.922c22.941-41.164,43.742-82.177,55.877-127.729
			c1.301-4.889-208.646-109.82-233.107-125.596c-152.9-98.631-299.236-228.959-398.21-381.942
			C6357.289,5600.605,6335.823,5525.438,6295.572,5475.307z" style="stroke:black;fill:#a2b1d8"/><path id="182599166" parent_id="182599149" order="77" structure_id="298" d="M6490.678,6507.628
			c-57.795-1.547-107.553,30.22-157.957,60.358c-77.008,46.043-73.729,44.215-147.334,95.263
			c-9.82,6.819-55.883,39.446-79.938,50.325c-35.466,16.041-48.876,13.91-85.969-17.893
			c-37.943-32.533-67.752-50.258-123.846-65.641c-5.634-1.548-1.852-16.71,33.494-158.044
			c26.148-104.524,52.504-174.46,106.156-282.169c33.523-67.307,35.193-104.896,157.213-56.191
			c194.961,77.812,176.416,74.03,327.279,161.006c83.618,48.205,130.075,165.155,110.073,203.823
			C6600.201,6555.746,6600.482,6510.551,6490.678,6507.628z" style="stroke:black;fill:#a2b1d8"/><path id="182599168" parent_id="182599149" order="78" structure_id="564" d="M5004.941,3624.612
			c80.549,53.271,139.486,172.831,183.269,317.505c35.597,117.627,64.144,207.145,62.646,313.695
			c-1.783,127.754-38.74,184.383-104.217,293.305c-78.44,130.48-79.685,129.208-160.528,242.48L5004.941,3624.612z" style="stroke:black;fill:#96a7d3"/><path id="182599167" parent_id="182599149" order="79" structure_id="596" d="M5633.938,6104.958
			c16.912-46.379,190.01-93.144,220.184-84.521c94.252,26.943,225.952,31.102,181.921,115.176
			c-26.454,50.533-80.063,159.674-92.495,201.014c-21.874,72.693-61.163,197.287-70.698,282.668
			c-0.845,7.475-48.211-8.678-116.509-20.404c-83.104-14.272-176.504-25.41-220.729-26.031
			c-10.266-0.146,14.933-76.018,22.492-116.488c13.929-74.604,18.543-152.146,27.918-206.088
			C5596.77,6188.367,5622.305,6136.844,5633.938,6104.958z" style="stroke:black;fill:#96a7d3"/><path id="182599173" parent_id="182599149" order="80" structure_id="537" d="M6212.605,5293.383
			c-32.738-81.751-64.635-150.389-88.511-232.751c-40.534-139.849-85.374-307.788-98.28-428.94
			c-2.617-24.584-8.192-59.152-15.613-95.717c-3.081,36.281-15.68,61.804-38.538,90.791c-40.51,51.344-102.04,115.34-127.669,31.58
			c-35.669-116.549,49.118-204.232,113.529-289.433c-8.725-14.142-18.523-25.53-29.73-34.761
			c-13.768-11.334-28.004-22.109-41.584-33.668c-5.832-4.965-11.51-10.103-16.943-15.502c-4.613-4.584-10.313-14.529-15.564-17.588
			c-0.076-0.045-0.152-0.088-0.229-0.129c-1.861-1.026-16.694,3.263-18.795,3.316c-1.547,11.169-2.986,30.191-5.672,40.738
			c-10.867,42.687-12.328,36.224-31.81,86.729c-5.767,14.945-9.349,25.436-11.854,34.5c-7.535,27.271-7.256,39.682-10.845,61.072
			c-6.644,39.588-8.81,57.396-11.188,96.84c-1.125,18.646-3.355,89.811-1.566,108.408c1.135,11.795-1.486,62.021,0.125,74.816
			c12.702,7.771,28.973,17.023,41.859,28.925c16.645,15.371,29.066,34.285,35.742,50.99c25.687,64.282,27.65,147.772,40.069,216.087
			l1.503,91.794c-27.098-0.319-72.375-1.845-99.727-3c38.723,45.91,107.185,96.017,143.64,140.954
			c17.467,21.531,30.328,39.126,47.146,61.41c15.449,20.471,33.363,40.296,47.595,59.754c38.479-6.992,77.353-11.673,116.472-13.102
			c14.664-0.537,136.242-3.537,139.099,9.444C6265.468,5372.354,6229.498,5335.557,6212.605,5293.383z" style="stroke:black;fill:#b3c0df"/><path id="182599171" parent_id="182599149" order="81" structure_id="498" d="M5781.314,5158.482
			c-32.313-1.617-64.578-3.922-96.428-7.129c-212.326-21.338-307.242-284.746-93.123-383.258
			c55.253-25.416,119.659-19.971,170.104,5.592c1.119-10.135,0.609-14.81-0.453-25.859c-1.705-17.736-0.398-41.034-0.821-61.45
			c-0.81-39.069,0.847-79.942,4.924-121.481c4.756-48.463,10.702-87.028,18.862-121.756c1.701-7.234,3.498-14.304,5.399-21.26
			c5.749-21.024,13.685-41.408,21.358-61.119c8.058-20.691,16.389-42.09,21.877-63.644c2.319-9.106,0.838-17.812,1.662-26.535
			c-9.48,5.876-18.896,15.706-24.56,20.181c-19.313,15.26-38.864,30.217-58.499,45.06c-99.29,75.056-201.876,147.522-288.12,237.938
			c-74.916,78.541-97.054,111.726-124.042,219.346c-23.898,95.291-17.788,227.789,26.75,323.654
			c34.025,73.239,90.167,121.095,163.212,142.879c48.515,14.459,110.233,29.676,145.981,68.973
			c10.475-25.271,29.957-46.465,56.67-61.541c25.51-14.396,56.348-22.324,86.834-22.324c5.271,0,26.197,2.855,31.336,3.331
			c12.07,1.117,41.342,19.646,52.186,26.556C5873.846,5242.852,5807.898,5191.995,5781.314,5158.482z" style="stroke:black;fill:#b3c0df"/><path id="182599172" parent_id="182599149" order="82" structure_id="513" d="M5834.591,5245.464
			c-59.722-5.526-132.091,20.036-159.19,83.147c2.445,3.297,12.03,15.59,14.117,19.201c19.199,33.227,13.18,82.084,42.596,108.76
			c60.082,54.492,192.979-16.371,258.555-30.264c1.317-0.279,27.711-5.436,29.028-5.708c-9.347-11.976-17.951-21.396-26.294-31.819
			c-22.904-28.615-43.545-60.244-68.445-89.345C5900.725,5271.121,5872.548,5248.977,5834.591,5245.464z" style="stroke:black;fill:#b3c0df"/><path id="182599174" parent_id="182599149" order="83" structure_id="554" d="M5843.994,4658.346
			c25.629,83.76,87.159,19.764,127.669-31.58c22.858-28.987,35.457-54.51,38.538-90.791c-6.602-32.533-14.664-66.645-23.404-96.709
			c-8.422-28.972-17.938-51.983-29.271-70.353C5893.111,4454.111,5808.325,4541.797,5843.994,4658.346z" style="stroke:black;fill:#b3c0df"/><path id="182599154" parent_id="182599149" order="84" structure_id="1097" d="M4969.046,5871.271
			c0.418-9.742,40.383,11.262,41.558,28.205c3.43,49.381,2.316,138.125-0.776,189.748c-1.966,32.896-2.792,65.791-1.345,98.731
			c2.72,61.899,16.14,124.467,43.894,180.104c28.185,56.516,94.774,104.537,151.397,129.145
			c89.274,38.794,198.342,60.632,294.338,73.039c3.977,0.052,26.783-92.354,28.537-101.795
			c18.059-97.775,23.799-210.324,56.304-297.469c19.338-51.83,55.92-120.188,150.329-160.577
			c20.021-8.558-30.193-77.595-83.039-176.358c-52.911-98.897-105.745-193.361-116.921-289.465
			c-6.507-56.045,7.579-93.748,57.537-86.789c34.274,4.771,122.821,3.733,85.565-79.615
			c-21.123-47.264-84.063-84.025-134.117-92.672c-70.848-12.233-125.428-55.967-171.31-113.744
			c-91.545-115.306-83.006-330.416-21.354-460.541c21.676-45.763,58.404-111.724-62.942-56.979
			c-52.008,23.455-115.669,57.048-174.364,25.205c-84.578,105.255-127.487,114.837-129.196,245.009L4969.046,5871.271z" style="stroke:black;fill:#e64438"/><path id="182599155" parent_id="182599149" order="85" structure_id="72" d="M5109.898,5150.021
			c-0.264-80.654,31.687-146.67,97-125.176c51.984,17.114,56.483,65.26,69.289,115.684c16.412,64.604-2.638,146.975-62.854,169.456
			L5109.898,5150.021z" style="stroke:black;fill:#ff5547"/><path id="182599157" parent_id="182599149" order="86" structure_id="263" d="M5434.137,6521.377
			c72.194,57.326,87.674-21.378,106.104-129.91c12.417-73.111,11.902-131.279-34.361-194.564
			c-40.674-55.627-199.058-186.063-276.047-128.893C5122.344,6147.85,5346.975,6452.184,5434.137,6521.377z" style="stroke:black;fill:#ff5547"/><path id="182599156" parent_id="182599149" order="87" structure_id="272" d="M5106.359,6008.816
			c8.229,59.989,73.215,265.91-35.537,276.599c-24.699,2.424-50.77-5.979-55.34-34.403c-15.701-97.832,2.928-195.957-2.067-294.151
			c-0.956-18.886-2.435-38.295-8.37-56.507c-3.643-11.221-11.129-17.13-17.458-26.424c11.466,4.221,25.426,2.943,37.356,6.884
			c28.746,9.483,52.453,21.181,64.515,51.128C5099.199,5956.167,5102.83,5983.081,5106.359,6008.816z" style="stroke:black;fill:#ff5547"/><path id="182599159" parent_id="182599149" order="88" structure_id="452" d="M4982.494,5113.479
			c28.632,44.775,40.327,89.391,46.493,142.014c10.199,86.938,17.001,238.469,44.413,366.079
			c17.45,81.252,77.109,141.219,91.125,195.244c5.206,20.091-22.432,74.289-83.915,34.28
			c-46.073-29.981-61.204-90.02-108.25-113.449L4982.494,5113.479z" style="stroke:black;fill:#ff5547"/><path id="182599161" parent_id="182599149" order="89" structure_id="523" d="M5103.968,5872.622c5.151-3.271,11.321-7.127,17.44-7.164
			c7.387-0.044,13.576-1.894,20.174-5.215c10.31-5.19,18.631-16.231,21.813-27.301c0.729-2.541,1.243-5.347,1.633-7.909
			c0.485-3.191-0.554-8.389-1.271-11.54c-1.029-4.515-2.983-8.763-4.703-13.041c-11.444-28.499-29.152-54.213-44.446-80.701
			c-17.801-30.832-33.687-63.16-41.207-98.181c-27.412-127.61-34.214-279.143-44.413-366.08
			c-6.166-52.623-17.861-97.236-46.493-142.014l4.608-31.221c133.225,18.549,231.277,220.799,279.771,375.858
			c37.683,120.474,43.366,234.169,127.399,334.802c74.168,88.809,164.099,175.693,244.599,257.876l10.916,15.24
			c-30.95,32.3-55.287,73.99-66.836,104.946c-14.979,40.156-24.274,85.709-31.711,132.725l-4.81-0.441
			c-2.799-36.246-14.321-70.48-40.553-106.36c-40.673-55.626-199.048-186.058-276.048-128.894
			c-28.668,21.295-33.711,58.558-24.038,103.068l-3.271,0.055c-24.242,13.289-69.983-7.402-69.983-7.402
			s-19.013-102.646-26.179-154.913c-3.529-25.735-7.16-52.649-16.901-76.876c-2.01-4.988-4.343-9.473-6.97-13.523
			C5071.305,5901.163,5087.809,5882.883,5103.968,5872.622z" style="stroke:black;fill:#ff5547"/><path id="182599162" parent_id="182599149" order="90" structure_id="763" d="M4970.833,5812.834
			c0.706,7.752-0.333,16-0.755,27.667c-0.206,5.702-2.168,18.584,0.422,24.952c3.378,8.299,25.91,10.714,36.333,10.714
			c6.926,0,19.08-4.129,26-10.799c3.667-3.534,6.562-17.599,5.334-24.201c-5.127-27.588-20.079-57-31.667-71.666
			c-7.154-9.056-35-35.366-35-27.334C4971.5,5752.833,4969.863,5802.18,4970.833,5812.834z" style="stroke:black;fill:#ff5547"/><path id="182599158" parent_id="182599149" order="91" structure_id="1109" d="M5488.656,5421.342
			c26.526,10.873,54.063,16.113,106.435,31.643c22.034,6.526,61.03,9.512,78.002-8.637c17.159-18.359,12.049-58.059-7.118-87.695
			c-29.882-46.215-187.594-108.309-243.748-70.156C5367.074,5323.973,5444.04,5403.063,5488.656,5421.342z" style="stroke:black;fill:#ff5547"/><path id="182599160" parent_id="182599149" order="92" structure_id="226" d="M5595.091,5452.982
			c-52.37-15.526-79.907-20.769-106.435-31.642c-44.617-18.28-121.582-97.369-66.431-134.847
			c22.567-15.332,61.538-14.469,102.021-4.957c-62.694-16.611-114.582-61.097-154.563-115.362
			c-90.059-122.233-81.693-324.832-20.043-454.958c21.676-45.762,58.404-111.723-62.941-56.979
			c-52.006,23.455-115.662,57.045-174.354,25.211c-6.728-3.647-98.74,115.938-107.097,132.338
			c-29.429,57.758-25.668,129.963-19.424,192.22c2.615,26.095-1.271,56.886,4.896,81.801l3.955-2.293
			c41.865,8.083,80.155,34.239,114.417,71.074c-0.781-7.896,0.939-17.401,1.441-24.828c3.554-52.554,29.438-126.948,96.363-104.915
			c51.984,17.113,56.482,65.26,69.288,115.684c14.131,55.645,3.856,133.94-51.492,164.258c-4.681,2.564-9.647,4.873-14.552,7.072
			c23.122,48.838,42.162,99.676,56.729,146.256c37.683,120.473,43.367,234.169,127.4,334.802
			c74.168,88.808,164.098,175.692,244.598,257.876l10.916,15.24l-0.065,0.07c20.03-20.918,44.615-37.883,67.446-48.269
			c8.39-3.815,20.211-7.733,20.557-17.026c0.255-6.836-5.46-20.063-10.238-28.627c-38.41-68.821-79.508-142.562-95.651-172.504
			c-16.235-30.113-40.701-78.246-55.308-110.522c-16.559-36.588-19.795-45.282-30.373-81.841
			c-29.651-102.48-14.651-160.148,55.516-149.604L5595.091,5452.982z" style="stroke:black;fill:#f2483b"/><path id="182599246" parent_id="182599149" order="93" structure_id="1009" d="M4960.146,6531.425
			c0,0,146.227,12.479,179.494,19.203c33.275,6.722,228.959,42.101,243.396,45.122c320.26,67.051,280.972,191.645,275.577,279.169
			c-5.949,96.417-97.346,100.146-280.771,92.004c-63.349-2.804-359.373-55.092-417.789-53.124L4960.146,6531.425z" style="stroke:black;fill:#cccccc"/><path id="182599247" parent_id="182599149" order="94" structure_id="1009" d="M5879.539,5069.689
			c-12.419-68.314-14.384-151.806-40.068-216.088c-33.03-82.651-153.647-128.772-247.705-85.506
			c-214.119,98.512-119.203,361.92,93.123,383.258c64.696,6.516,131.115,9.363,196.153,10.129L5879.539,5069.689z" style="stroke:black;fill:#cccccc"/><path id="182599248" parent_id="182599149" order="95" structure_id="1009" d="M8102.404,6136.932
			c-61.862,49.19-122.388,94.823-185.557,132.688c-42.979,25.764-138.507,81.877-180.348,93.866
			c-85.28,24.423-149.791-86.603-88.52-157.325c70.238-81.059,220.962-135.458,311.346-190.303
			c53.785-32.644,202.494-161.738,265.399-86.432c16.263,19.463,23.738,52.949,13.163,76.189
			c-11.394,25.039-35.785,43.035-55.795,60.886c-11.327,10.104-23.217,20.108-33.682,31.122
			C8134.68,6112.096,8117.951,6124.568,8102.404,6136.932z" style="stroke:black;fill:#cccccc"/><path id="182599249" parent_id="182599149" order="96" structure_id="1009" d="M8119.465,4181.427
			c-0.219-19.117-15.66-187.421-25.264-187.491c0.418,0.006,0.834,0.012,1.25,0.103c-3.854-16.656-9.006-36-14.487-55.684
			c-9.774-34.759-20.374-70.198-25.985-92.468c-0.078-0.418-0.237-0.837-0.315-1.256
			c-47.535-191.965-113.243-384.937-204.362-562.495c-20.953-40.839-43.252-80.863-66.981-119.906
			c-58.308-95.924-127.658-183.659-211.452-258.833c-48.529-43.478-98.117-88.89-149.777-129.242l0.002-0.082
			c-12.877-9.941-25.838-19.718-38.89-28.994c-63.274-45.021-126.397-83.112-199.81-125.188
			c-58.184-33.268-117.918-62.971-178.686-90.519c-101.475-45.806-205.787-85.476-310.096-125.563
			c-10.289-3.98-20.826-8.134-31.692-12.541c-164.918-66.883-392.589-180.279-588.547-187.277
			c-39.106-1.383-76.938,1.425-112.765,9.767c-20.842,4.88-40.957,11.522-60.269,20.263c-36.604,16.506-70.229,40.563-99.894,73.687
			c-63.906,71.52-129.586,138.677-199.625,195.262c-38.563,31.246-78.5,59.219-120.131,83.08
			c-27.08,15.472-54.971,29.181-83.75,40.875c-19.633,7.983-39.752,14.877-60.273,20.68c-27.725,7.871-56.341,13.896-85.684,18.072
			c-72.143,10.336-148.973,9.844-229.756-0.297c-1.914-0.277-3.914-0.472-5.828-0.749l-3.758,268.334
			c32.028,0.447,371.608-25.414,508.76-84.646c137.066-59.232,488.727-250.697,551.708-280.1
			c46.188-21.628,129.849-56.081,232.938-48.213c88.838,6.834,191.082,39.384,262.023,55.144
			c97.725,21.726,201.461,42.95,295.139,73.628c170.08,55.692,325.82,140.383,402.033,185
			c124.041,72.651,312.227,205.685,375.681,273.648c64.356,69.062,140.521,170.826,197.629,280.832
			c58.247,112.107,128.616,311.902,159.881,402.691c23.952,69.576,54.173,153.496,73.951,204.01l0,0
			c0.024,0.063,0.046,0.117,0.071,0.181c0.233,0.599,0.471,1.202,0.701,1.791c5.258,13.415,6.819,17.221,7.471,18.596
			c2.822,6.833,5.247,12.417,7.195,16.531c17.524,48.799,4.021,93.631,1.336,147.63c-6.896,138.648-21.424,286.136-47.471,431.302
			c-6.014,33.513,1.813,45.761,7.813,47.011c8.717,1.816,16.631-13.506,18.021-26.498c5.62-52.473,22.236-184.895,24.059-194.547
			C8107.441,4352.912,8120.447,4267.184,8119.465,4181.427z" style="stroke:black;fill:#cccccc"/><path id="182599244" parent_id="182599149" order="97" structure_id="81" d="M5828.523,4344.545c4.145,0.938,18.951-27.453,21.688-59.48
			c10.051-117.937-9.944-397.912-27.079-548.222c-18.583-162.948-67.391-339.523-65.209-507.042
			c1.385-106.963,29.258-213.351,73.707-312.922c35.891-80.39,94.712-186.313,173.464-259.266
			c118.922-110.157,230.841-134.769,230.841-134.769c-27.48-7.693-148.314,35.399-171.471,47.991
			c-112.029,60.89-224.592,117.408-337.328,176.936c-100.233,52.544-212.877,108.756-324.523,137.787
			c-12.863,3.342,135.257,72.109,161.777,114.195c14.313,22.699,80.727,83.104,122.813,166.487
			c35.954,71.23,47.278,157.754,56.323,198.233c0,0,43.443,174.424,51.021,228.752c7.588,54.337,26.313,206.15,29.588,270.166
			c3.273,64.008,18.877,240.811,15.396,290.818c-3.488,50.001-8.762,129.178-7.703,152.837
			C5832.598,4324.23,5828.523,4344.545,5828.523,4344.545z" style="stroke:black;fill:#aaaaaa"/><path id="182599245" parent_id="182599149" order="98" structure_id="129" d="M4960.146,6531.425
			c-0.041,0,0.035-3.315,0.043-3.617c0.642-45.743,9.314-599.845,8.953-656.317c-0.014-1.1,17.637,2.918,19.166,3.668
			c12.252,6.066,17.299,24.887,20.408,36.789c3.887,14.896,4.705,30.619,5.347,45.938c2.44,58.991-12.438,182.718-1.712,271.116
			c6.241,51.446,18.793,107.166,46.863,151.563c14.381,22.72,36.265,42.25,56.229,60.119
			c36.299,32.494,83.157,58.961,129.289,73.929c16.644,5.397,32.806,11.843,49.515,17.112c20.771,6.551,40.746,50.508,13.947,46.295
			c-14.561-2.295-135.277-20.67-168.555-27.391C5106.373,6543.902,4960.146,6531.425,4960.146,6531.425z" style="stroke:black;fill:#aaaaaa"/></g>
</g>
</svg>