<?xml version="1.0" encoding="utf-8"?>
<!-- Generator: Adobe Illustrator 16.0.0, SVG Export Plug-In . SVG Version: 6.00 Build 0)  -->
<!DOCTYPE svg PUBLIC "-//W3C//DTD SVG 1.1//EN" "http://www.w3.org/Graphics/SVG/1.1/DTD/svg11.dtd">
<svg version="1.1" id="Layer_1" xmlns="http://www.w3.org/2000/svg" xmlns:xlink="http://www.w3.org/1999/xlink" x="0px" y="0px"
	 width="9744px" height="6823.471px" viewBox="0 0 9744 6823.471" enable-background="new 0 0 9744 6823.471" xml:space="preserve">
<g transform="scale(1.0)">
	<g id="_x31_80636371" transform=" scale(1.0, 1.0)">
		<path id="_x31_80636373" fill="none" stroke="#010101" stroke-width="80" d="M9157.635,2336.721
			c-45.657-130.24-106.912-252.495-175.309-370.922c-92.161-159.571-215.671-293.891-319.894-445.531
			c-208.188-302.91-483.726-619.662-789.155-802.356c-309.095-184.885-632.172-330.722-972.227-443.263
			c-255.389-84.529-497.981-112.952-764.289-114.658c-137.469-0.881-273.839-49.722-411.814-54.02
			c-110.763-3.451-232.186-33.544-334.922,3.751c-219.145,79.555-362.939,239.782-460.99,477.069
			c-5.025,12.159-11.183,37.416-11.183,37.416s1.235,546.486,1.358,601.162c46.362,37.96,48.03,81.554,56.338,140.214
			c23.1,163.215,61.861,307.25,185.542,420.938c110.332,101.425,277.271,126.24,417.521,150.584
			c60.899,10.573,109.383,10.236,166.059,27.272c-2.485-0.614-4.955-1.168-7.4-1.638c-107.704-20.669-220.162-27.226-344.571-48.6
			c-105.845-18.186-251.032-36.208-333.94,53.086c-37.348,40.227-30.449,108.347-57.158,157.438
			c-22.68,41.7-45.9,56.626-80.166,84.86l7.771,3436.796c84.002,3.664,380.417,20.279,430.043-88.193
			c41.65-91.031-191.515-358.133,63.473-303.792c103.139,21.966,183.322,109.669,278.878,153.103
			c111.792,50.809,235.461,75.194,356.933,60.762c211.422-25.146,402.933-177.621,540.088-362.392
			c-18.54,29.29-36.1,59.764-49.254,89.602c-23.415,53.104-32.893,104.204-9.113,142.969
			c50.629,82.511,176.195,46.923,247.382,94.66c93.319,62.591,149.919,174.546,231.271,251.397
			c101.881,96.248,229.631,236.689,379.896,214.359c104.607-15.549,200.203-85.145,307.544-83.539
			c47.25,0.705,86.987,24.342,132.739,29.521c188.967,21.412,378.151-53.404,532.313-163.938
			c146.122-104.786,296.238-211.764,419.34-348.116c92.679-102.652,148.049-193.662,201.21-326.842
			c46.817-117.282,95.694-248.734,130.537-354.422c28.987-87.953,64.898-183.781,88.596-273.602
			c29.852-113.174,22.968-200.443-15.558-304.588c-54.852-148.266-8.97-296.893,36.207-427.09
			c46.2-133.153,48.353-251.773,52.045-393.431C9291.84,2943.973,9259.711,2627.892,9157.635,2336.721z"/>
		<path id="_x31_80636374" fill="none" stroke="#010101" stroke-width="80" d="M9268.583,3505.48
			c21.374-123.537,13.654-265.329,13.859-389.74c0.438-262.645-38.775-531.497-125.344-778.448
			c-45.655-130.24-106.912-252.495-175.311-370.922c-92.159-159.572-215.671-293.89-319.891-445.53
			c-208.188-302.911-491.957-624.693-788.622-802.93c-308.762-185.503-632.707-330.149-972.76-442.69
			c-255.389-84.527-497.982-112.951-764.291-114.659c-137.469-0.88-273.838-49.721-411.814-54.019
			c-110.764-3.45-231.65-34.119-334.385,3.177c-219.145,79.555-363.479,240.355-461.528,477.641
			c-5.024,12.16-11.183,37.417-11.183,37.417s1.236,546.484,1.358,601.161c46.362,37.959,48.03,81.554,56.337,140.213
			c23.102,163.215,61.863,307.25,185.543,420.938c110.332,101.426,277.272,126.239,417.521,150.585
			c70.395,12.222,124.195,9.846,193.242,36.601c68.822,26.676,126.412,82.578,199.766,96.932
			c228.393,44.696,219.809,139.96,334.045,286.418c82.119,105.282,170.828,171.196,268.182,251.7
			c120.433,99.591,210.359,209.327,314.477,327.78c116.682,132.742,218.777,246.353,266.273,416.662
			c44.541,159.711-5.164,345.119-65.193,493.036c-23.775,58.595-58.424,111.39-81.242,170.961
			c-83.404,217.773-149.372,452.646-210.746,678.355c-25.268,92.91-59.729,180.703-104.063,265.24
			c-27.325,52.119-104.993,146.172-143.985,234.61c-23.416,53.104-32.893,104.206-9.116,142.971
			c50.631,82.511,176.198,46.923,247.384,94.661c93.318,62.59,149.918,174.545,231.27,251.396
			c101.883,96.25,229.632,236.691,379.897,214.359c104.604-15.549,200.204-85.146,307.542-83.539
			c47.253,0.705,86.988,24.343,132.743,29.521c188.966,21.413,378.149-53.408,532.31-163.938
			c118.465-84.952,241.146-165.751,346.73-268.528c92.185-89.723,156.315-150.076,202.843-250.603
			c91.699-198.13,176.796-439.062,236.513-615.058c35.441-104.455,71.358-226.698,73.668-299.604
			c2.086-65.781-22.048-131.354-40.078-189.961c-21.025-68.361-23.188-95.656-20.203-166.589
			C9175.039,3779.101,9244.6,3644.123,9268.583,3505.48z M8464.344,3798.465c-0.674,31.166-1.644,62.335-2.837,93.425
			c-0.911,24.526-2.789,49.217-5.335,73.903c-1.235,12.188-2.695,24.379-4.304,36.565l-2.379-0.071c0,0-0.221,1.092-0.515,3.281
			c-0.443,0-0.814,0.079-1.262,0.081c-0.288,4.375-0.649,8.672-1.011,13.048c-10.13,58.059-46.108,256.859-86.945,378.89
			c-31.694,88.422-70.677,175.612-111.679,257.339c-5.256,10.403-10.512,20.727-15.84,30.973c-0.814,1.643-1.703,3.285-2.592,5.005
			c-3.33,6.493-6.736,12.983-10.215,19.397c-3.627,6.961-7.402,13.922-11.105,20.883c-5.627,10.48-11.326,21.041-17.027,31.521
			c-0.297,0.469-0.519,0.939-0.816,1.408c-42.806,72.67-112.521,180.479-122.75,193.942c-0.148,0.235-0.297,0.47-0.52,0.703
			c-0.146,0.158-0.221,0.312-0.368,0.472c0,0.077-0.077,0.077-0.075,0.154c0,0.078-0.074,0.08-0.148,0.158
			c-6.674,8.451-13.568,16.752-20.539,24.893c-0.072-0.078-0.072-0.078-0.072-0.078s-16.166,17.928-26.031,28.416
			c-1.04,1.098-2.078,2.192-3.19,3.211c-12.164,12.375-51.862,46.527-71.753,61.422c-0.889,0.705-1.705,1.331-2.598,1.881
			c-1.188,0.861-2.373,1.725-3.637,2.587c-0.521,0.313-1.039,0.704-1.558,1.02c-11.731,7.45-22.272,14.271-32.666,20.546
			c-0.521,0.393-1.114,0.707-1.634,0.941c-12.027,6.984-24.504,13.496-37.501,19.543c-1.335,0.629-2.747,1.18-4.159,1.807
			c-1.187,0.552-2.672,1.102-4.381,1.809c-10.178,3.773-28.007,9.836-47.696,15.193c-2.228,0.553-4.456,1.186-6.687,1.738
			c-6.912,1.658-14.193,3.316-21.996,4.977c0.075,0,0.15,0,0.223,0c-34.256,6.88-65.553,7.742-64.481-11.865
			c1.64-30.469,126.241-64.138,150.659-82.552c173.967-131.275,275.617-319.46,368.621-517.468
			c26.268-55.992,44.645-115.088,67.711-172.48c42.953-106.648,54.604-214.078,74.652-324.186
			c21.297-116.748,5.607-248.713,1.03-366.647c-4.496-113.323-21.256-226.386-46.483-336.688
			c-23.652-103.358-40.922-210.871-74.974-311.155c-61.298-180.355-104.404-372.238-205.731-534.137
			c-80.885-129.223-167.123-260.074-266.408-374.643c-154.445-178.246-225.824-247.271-397.324-372.672
			c-86.533-63.206-174.754-149.92-269.799-197.483c-48.676-24.403-100.088-41.847-148.989-66.017
			c-105.688-52.301-227.63-92.22-349.954-104.564c-0.149-0.077-0.297-0.077-0.447-0.077c-35.107-7.098-82.092-6.197-125.797-2.337
			c-0.594,0.001-1.188,0.081-1.783,0.16c-22.301,1.541-44.523,4.253-66.371,8.292c-0.075-0.078-0.148-0.078-0.223,0
			c-26.457,4.206-46.225,8.552-53.133,10.913c-6.165,2.124-12.48,4.483-18.793,7c-20.949,7.083-39.811,17.207-57.477,29.046
			c-0.15,0.077-0.298,0.155-0.445,0.313c-15.963,9.959-30.807,21.168-43.715,33.384c-0.221,0.234-0.445,0.393-0.742,0.626
			c-13.43,11.282-26.71,22.877-40.365,34.081c-13.435,10.344-26.719,20.063-39.559,30.017c-0.223,0.157-0.447,0.313-0.594,0.469
			c-2.375,1.646-4.678,3.37-6.902,5.094c-6.605,5.172-12.912,10.734-19.069,16.607c-1.484,1.488-3.042,2.898-4.526,4.384
			c-6.158,5.796-12.016,11.906-17.577,18.558c-0.593,0.626-1.112,1.174-1.632,1.8c-9.494,10.49-18.836,21.294-28.327,31.784
			c-1.263,1.408-2.522,2.818-3.857,4.149c-19.21,19.811-40.134,38.453-62.406,52.178c-0.073,0.079-0.222,0.158-0.296,0.234
			c-0.223,0.079-0.447,0.158-0.668,0.313c-37.802,18.295-77.793,20.662-113.418,14.424c-0.074,0-0.074,0-0.148,0
			c-22.76-4.394-45.08-12.539-65.477-23.736c-8.114-4.901-15.711-10.426-22.564-16.581c-0.074,0-0.594,0.47-1.411,1.41
			c-0.595-0.39-1.19-0.778-1.712-1.245c-17.947-13.313-33.447-29.129-45.309-46.988c-15.219-22.926-25.235-47.347-31.464-72.64
			c-18.605-74.704-4.89-157.378,0.142-233.392c2.444-37.107,7.576-69.224,19.4-100.183c6.355-17.122,14.791-33.781,25.906-50.916
			c4.371-6.728,9.414-12.599,14.904-17.533c25.521-23.419,62.01-29.682,98.889-27.901c33.086,1.558,66.487,9.519,92.525,17.342
			c89.721,26.876,182.477,47.421,276.027,58.823c111.475,13.466,226.913,37.78,339.609,66.941
			c62.934,16.245,124.978,34.13,185.014,52.413c95.451,29.128,190.547,65.756,280.232,110.911
			c30.369,15.233,60.586,30.388,90.655,45.544c169.849,85.569,334.796,173.26,480.433,302.085
			c45.742,40.423,81.322,94.386,119.795,141.857c27.211,33.596,57.312,62.733,84.299,96.251
			c57.41,71.325,114.98,149.835,169.439,232.259c66.47,100.671,128.269,207.368,179.361,314.093
			c21.364,44.625,40.869,89.254,58.066,133.498c27.37,70.464,56.969,139.75,83.296,210.139
			c29.32,77.723,54.625,156.627,68.865,239.621c2.412,14.21,4.82,28.342,7.16,42.395c23.889,141.941,42.929,277.96,47.048,422.453
			c0.236,5.545,0.396,11.013,0.482,16.56C8466.039,3660.442,8465.898,3729.49,8464.344,3798.465z"/>
		<path id="_x31_80636477" fill="none" stroke="#010101" stroke-width="80" d="M9064.074,2117.133l-94.612,44.84
			c-30.098-59.364-62.194-116.928-95.775-172.146c-47.161-77.676-95.956-153.632-146.675-227.708l78.467-50.034
			c62.857,81.623,124.898,163.638,176.921,253.723C9011.062,2015.49,9038.532,2065.802,9064.074,2117.133z"/>
		<path id="_x31_80636476" fill="none" stroke="#010101" stroke-width="80" d="M8969.462,2161.972l-193.019,91.483
			c-15.592-24.564-31.853-48.502-48.56-71.816c-71.82-100.111-119.764-194.111-193.446-296.715l192.574-122.806
			c50.719,74.078,99.514,150.031,146.675,227.709C8907.268,2045.043,8939.364,2102.606,8969.462,2161.972z"/>
		<path id="_x31_80636475" fill="none" stroke="#010101" stroke-width="80" d="M8776.443,2253.457l-104.786,49.709
			c-74.092-117.994-151.093-239.26-230.911-358.408l93.691-59.833c73.682,102.606,121.626,196.607,193.444,296.715
			C8744.591,2204.953,8760.852,2228.893,8776.443,2253.457z"/>
		<path id="_x31_80636474" fill="none" stroke="#010101" stroke-width="80" d="M8671.657,2303.166l-288.002,136.479
			c-18.816-35.493-39.338-70.042-61.866-103.416c-49.381-73.377-96.76-148.556-144.363-223.577l263.324-167.896
			C8520.566,2063.906,8597.565,2185.17,8671.657,2303.166z"/>
		<path id="_x31_80636473" fill="none" stroke="#010101" stroke-width="80" d="M8383.654,2439.645l-136.498,64.708
			c-59.661-114.437-119.891-218.404-184.576-318.378l114.846-73.322c47.602,75.022,94.982,150.201,144.363,223.577
			C8344.317,2369.602,8364.839,2404.151,8383.654,2439.645z"/>
		<path id="_x31_80636472" fill="none" stroke="#010101" stroke-width="80" d="M8247.156,2504.353l-41.44,19.631l-6.017,3.142
			c-51.093-106.726-112.892-213.423-179.361-314.094l1.336-1.019l40.906-26.036
			C8127.264,2285.947,8187.495,2389.914,8247.156,2504.353z"/>
		<path id="_x31_80636471" fill="none" stroke="#010101" stroke-width="80" d="M9157.652,2336.774
			c42.8,121.899,73.495,248.671,93.933,377.343l-78.925,13.555c-41.707-197.355-113.884-389.789-203.198-565.701l94.612-44.84
			C9099.399,2188.201,9131.161,2261.152,9157.652,2336.774z"/>
		<path id="_x31_80636470" fill="none" stroke="#010101" stroke-width="80" d="M9172.66,2727.674l-186.755,32.106
			c-36.99-181.745-112.471-354.879-209.462-506.323l193.019-91.484C9058.776,2337.883,9130.953,2530.32,9172.66,2727.674z"/>
		<path id="_x31_80636469" fill="none" stroke="#010101" stroke-width="80" d="M8985.905,2759.78l-113.333,19.499
			c-36.566-159.329-95.785-308.524-183.979-449.133c-5.597-8.969-11.267-17.936-16.937-26.983l104.786-49.708
			C8873.435,2404.899,8948.915,2578.035,8985.905,2759.78z"/>
		<path id="_x31_80636468" fill="none" stroke="#010101" stroke-width="80" d="M8872.572,2779.279l-338.955,58.344
			c-37.708-137.376-83.515-273.328-149.963-397.979l288.001-136.479c5.67,9.046,11.34,18.012,16.938,26.981
			C8776.787,2470.755,8836.006,2619.95,8872.572,2779.279z"/>
		<path id="_x31_80636467" fill="none" stroke="#010101" stroke-width="80" d="M8533.617,2837.623l-133.547,22.987
			c-39.219-115.893-86.98-228.639-143.058-337.305c-3.286-6.318-6.573-12.637-9.856-18.956l136.498-64.706
			C8450.103,2564.295,8495.909,2700.246,8533.617,2837.623z"/>
		<path id="_x31_80636466" fill="none" stroke="#010101" stroke-width="80" d="M8400.07,2860.61l-59.007,10.148
			c-26.327-70.389-55.926-139.674-83.295-210.138c-17.2-44.244-36.705-88.874-58.069-133.498l6.017-3.141l41.44-19.633
			c3.287,6.319,6.572,12.638,9.856,18.956C8313.09,2631.969,8360.852,2744.719,8400.07,2860.61z"/>
		<path id="_x31_80636465" fill="none" stroke="#010101" stroke-width="80" d="M9284.029,3089.037
			c0.087,5.234,0.174,10.388,0.26,15.623l-1.712,0.004l-70.617,3.927c1.645-127.01-12.622-254.917-39.298-380.917l78.923-13.557
			C9271.417,2838.183,9281.737,2963.99,9284.029,3089.037z"/>
		<path id="_x31_80636464" fill="none" stroke="#010101" stroke-width="80" d="M9172.66,2727.674
			c26.678,126,40.942,253.907,39.298,380.917l-202.937,11.291c1.395-41.089,2.193-81.632,2.03-121.074
			c-0.328-80.608-9.136-160.646-25.146-239.027L9172.66,2727.674z"/>
		<path id="_x31_80636463" fill="none" stroke="#010101" stroke-width="80" d="M9011.052,2998.807
			c0.163,39.443-0.636,79.985-2.03,121.075l-91.434,5.072c-1.099-26.712-2.723-53.418-4.862-79.97
			c-7.495-91.684-20.557-180.147-40.153-265.706l113.333-19.5C9001.916,2838.162,9010.724,2918.199,9011.052,2998.807z"/>
		<path id="_x31_80636462" fill="none" stroke="#010101" stroke-width="80" d="M8917.588,3124.957l-307.302,17.1
			c-18.853-84.622-40.898-168.378-62.349-250.807c-4.65-17.875-9.374-35.751-14.32-53.626l338.955-58.344
			c19.597,85.559,32.658,174.023,40.153,265.706C8914.865,3071.534,8916.489,3098.245,8917.588,3124.957z"/>
		<path id="_x31_80636461" fill="none" stroke="#010101" stroke-width="80" d="M8610.286,3142.056l-131.056,7.283
			c-20.738-97.976-47.125-194.374-79.16-288.727l133.547-22.989c4.946,17.875,9.67,35.75,14.32,53.626
			C8569.388,2973.678,8591.434,3057.434,8610.286,3142.056z"/>
		<path id="_x31_80636460" fill="none" stroke="#010101" stroke-width="80" d="M8479.23,3149.339l-62.144,3.437
			c-2.336-14.054-4.748-28.186-7.158-42.396c-14.238-82.994-39.547-161.898-68.865-239.621l59.007-10.148
			C8432.105,2954.965,8458.492,3051.363,8479.23,3149.339z"/>
		<path id="_x31_80636489" fill="none" stroke="#010101" stroke-width="80" d="M8552.675,1370.059l-2.596,2.271l-71.156,61.888
			c-227.961-271.403-490.185-505.224-797.931-684.1c-45.633-26.521-91.563-52.649-137.939-78.151l48.622-99.166l2.44-5.317
			c93.857,47.724,186.83,98.025,279.208,150.438C8085.628,838.376,8350.088,1107.732,8552.675,1370.059z"/>
		<path id="_x31_80636488" fill="none" stroke="#010101" stroke-width="80" d="M8478.923,1434.217l-176.075,153.225
			c-28.182-35.078-56.811-69.997-85.807-104.917c-49.127-59.083-120.362-129.905-174.387-184.756
			c-137.928-140.25-279.656-218.235-447.512-309.668c-54.712-29.778-111.123-55.332-168.57-78.543l116.482-237.59
			c46.374,25.502,92.305,51.631,137.938,78.152C7988.738,928.993,8250.962,1162.814,8478.923,1434.217z"/>
		<path id="_x31_80636487" fill="none" stroke="#010101" stroke-width="80" d="M8302.848,1587.444l-71.082,61.886
			c-24.012-31.809-48.244-63.147-72.773-93.783c-99.158-124.021-223.238-254.228-355.176-342.784
			c-90.244-60.542-228.494-145.488-329.973-176.165c-32.062-9.681-63.533-19.836-94.633-30.378l47.361-96.663
			c57.447,23.21,113.857,48.765,168.569,78.542c167.854,91.433,309.585,169.419,447.513,309.668
			c54.024,54.852,125.26,125.674,174.385,184.756C8246.037,1517.443,8274.666,1552.363,8302.848,1587.444z"/>
		<path id="_x31_80636486" fill="none" stroke="#010101" stroke-width="80" d="M8231.766,1649.328l-229.127,199.366
			c-117.613-164.592-249.991-315.243-423.84-427.048c-106.543-68.466-214.234-119.199-323.691-162.275l124.105-253.153
			c31.099,10.544,62.57,20.699,94.633,30.379c101.479,30.676,239.729,115.622,329.971,176.164
			c131.94,88.556,256.018,218.764,355.178,342.785C8183.521,1586.181,8207.754,1617.52,8231.766,1649.328z"/>
		<path id="_x31_80636485" fill="none" stroke="#010101" stroke-width="80" d="M8002.639,1848.694l-110.26,95.961
			c-26.918-35.159-54.803-70.55-83.877-106.33c-168.266-207.11-375.062-357.029-611.711-459.923l58.316-119.031
			c109.457,43.075,217.148,93.806,323.691,162.275C7752.647,1533.452,7885.025,1684.103,8002.639,1848.694z"/>
		<path id="_x31_80636484" fill="none" stroke="#010101" stroke-width="80" d="M7892.379,1944.657l-41.477,36.113
			c-26.989-33.519-57.09-62.655-84.303-96.252c-38.469-47.471-74.053-101.433-119.793-141.857
			c-145.635-128.823-310.583-216.516-480.432-302.086l1.037-2.268l29.377-59.904c236.648,102.898,443.445,252.813,611.709,459.925
			C7837.576,1874.105,7865.461,1909.498,7892.379,1944.657z"/>
		<path id="_x31_80636501" fill="none" stroke="#010101" stroke-width="80" d="M6788.22,240.677l-0.222,0.939l-18.795,104.87
			c-90.531-23.907-182.463-42.499-275.943-54.683c-170.299-22.222-289.774,42.364-497.49-21.161l13.928-120.793l0.22-1.642
			c42.243,6.689,84.556,11.502,126.858,11.789C6363.605,161.454,6573.23,182.248,6788.22,240.677z"/>
		<path id="_x31_80636500" fill="none" stroke="#010101" stroke-width="80" d="M6769.203,346.485l-49.481,276.632
			c-122.274-55.305-247.427-101.698-380.774-122.92c-87.979-13.992-282.272-91.457-364.029-49.147l20.855-180.407
			c207.715,63.525,327.189-1.061,497.49,21.161C6586.74,303.986,6678.672,322.578,6769.203,346.485z"/>
		<path id="_x31_80636499" fill="none" stroke="#010101" stroke-width="80" d="M6719.722,623.117l-19.603,109.48
			c-66.375-26.233-134.16-51.369-204.32-74.704c-174.842-58.061-350.971-125.728-521.393-202.392l0.51-4.453
			c81.759-42.307,276.047,35.154,364.029,49.147C6472.293,521.419,6597.447,567.812,6719.722,623.117z"/>
		<path id="_x31_80636498" fill="none" stroke="#010101" stroke-width="80" d="M6700.117,732.598l-55.869,312.345
			c-183.255-63.196-372.264-107.007-553.232-177.708c-48.219-18.859-100.622-48.019-155.037-78.343l38.428-333.389
			c170.422,76.664,346.549,144.331,521.391,202.392C6565.959,681.229,6633.744,706.363,6700.117,732.598z"/>
		<path id="_x31_80636497" fill="none" stroke="#010101" stroke-width="80" d="M6644.248,1044.94l-22.173,124.015
			c-47.16-11.831-94.466-21.477-141.766-28.309c-186.147-27.102-382.476-117.682-569.708-132.129l25.377-219.63
			c54.415,30.327,106.819,59.485,155.037,78.344C6271.984,937.934,6460.993,981.745,6644.248,1044.94z"/>
		<path id="_x31_80636496" fill="none" stroke="#010101" stroke-width="80" d="M6622.075,1168.957l-10.278,57.28l-1.326,5.472
			c-112.698-29.163-228.137-53.479-339.609-66.943c-93.551-11.401-186.305-31.946-276.027-58.823
			c-26.038-7.822-59.436-15.783-92.525-17.341l0.422-11.64l7.873-68.444c187.232,14.447,383.561,105.027,569.707,132.131
			C6527.609,1147.48,6574.915,1157.125,6622.075,1168.957z"/>
		<path id="_x31_80636495" fill="none" stroke="#010101" stroke-width="80" d="M7594.115,567.483l-2.44,5.318l-48.622,99.165
			c-247.205-135.99-504.262-254.223-773.85-325.481l18.795-104.87l0.222-0.939c37.417,10.138,74.987,21.449,112.856,34.006
			C7140.724,353.983,7370.08,453.463,7594.115,567.483z"/>
		<path id="_x31_80636494" fill="none" stroke="#010101" stroke-width="80" d="M7543.053,671.967l-116.48,237.59
			c-183.28-74.288-376.469-124.805-554.576-213.479c-50.538-25.102-101.148-49.812-152.274-72.961l49.481-276.632
			C7038.791,417.744,7295.846,535.977,7543.053,671.967z"/>
		<path id="_x31_80636493" fill="none" stroke="#010101" stroke-width="80" d="M7426.572,909.557l-47.361,96.662
			c-237.344-80.477-449.979-183.281-679.092-273.622l19.603-109.48c51.128,23.147,101.738,47.858,152.277,72.96
			C7050.104,784.751,7243.292,835.269,7426.572,909.557z"/>
		<path id="_x31_80636492" fill="none" stroke="#010101" stroke-width="80" d="M7379.211,1006.221l-124.105,253.152
			c-174.496-68.686-353.482-117.991-539.726-188.755c-23.589-9.001-47.325-17.533-71.134-25.677l55.869-312.343
			C6929.23,822.938,7141.867,925.741,7379.211,1006.221z"/>
		<path id="_x31_80636491" fill="none" stroke="#010101" stroke-width="80" d="M7255.105,1259.372l-58.314,119.031
			c-12.205-5.359-24.559-10.562-36.985-15.607c-171.673-70.101-353.696-147.983-537.729-193.839l22.171-124.014
			c23.809,8.141,47.545,16.673,71.134,25.675C6901.625,1141.382,7080.61,1190.686,7255.105,1259.372z"/>
		<path id="_x31_80636490" fill="none" stroke="#010101" stroke-width="80" d="M7196.791,1378.4l-29.379,59.904l-1.037,2.268
			c-30.069-15.154-60.287-30.311-90.654-45.542c-89.686-45.155-184.785-81.783-280.232-110.91
			c-60.036-18.284-122.08-36.169-185.014-52.414l1.326-5.472l10.278-57.28c184.032,45.855,366.056,123.738,537.729,193.839
			C7172.232,1367.839,7184.586,1373.042,7196.791,1378.4z"/>
		<path id="_x31_80636506" fill="none" stroke="#010101" stroke-width="80" d="M6009.917,148.208l-0.22,1.64l-13.928,120.794
			c-19.789-6.044-40.475-13.333-61.979-21.872c-77.018-30.658-165.613-53.869-255.371-64.107l-10.814-80.817l0.146-1.484
			c19.333,1.67,38.444,3.028,57.253,3.606C5820.471,109.006,5915.166,133.215,6009.917,148.208z"/>
		<path id="_x31_80636505" fill="none" stroke="#010101" stroke-width="80" d="M5974.916,451.047l-0.51,4.453
			c-57.156-25.633-113.568-52.28-169.166-79.948c-36.992-18.418-72.576-38.793-108.596-55.106l-18.225-135.784
			c89.756,10.239,178.354,33.449,255.371,64.108c21.504,8.537,42.189,15.826,61.979,21.87L5974.916,451.047z"/>
		<path id="_x31_80636504" fill="none" stroke="#010101" stroke-width="80" d="M5974.406,455.502l-38.428,333.389
			c-61.338-34.135-125.354-69.749-189.047-93.489l-50.287-374.954c36.019,16.312,71.602,36.688,108.594,55.106
			C5860.836,403.22,5917.25,429.869,5974.406,455.502z"/>
		<path id="_x31_80636503" fill="none" stroke="#010101" stroke-width="80" d="M5935.979,788.889l-25.377,219.629
			c-16.062-1.367-32.12-2.028-48.033-2.065c-26.986-0.089-51.216,3.254-72.688,9.479l-42.951-320.531
			C5810.624,719.143,5874.643,754.755,5935.979,788.889z"/>
		<path id="_x31_80636502" fill="none" stroke="#010101" stroke-width="80" d="M5910.605,1008.519l-7.875,68.444l-0.422,11.64
			c-36.879-1.782-73.367,4.481-98.889,27.9l-13.534-100.571c21.472-6.225,45.702-9.567,72.689-9.48
			C5878.481,1006.491,5894.542,1007.153,5910.605,1008.519z"/>
		<path id="_x31_80636511" fill="none" stroke="#010101" stroke-width="80" d="M5667.607,103.846l10.812,80.817
			c-85.295-9.706-171.68-7.689-250.369,10.785c-82.924,19.58-159.102,63.67-218.882,126.699l-49.021-77.282
			c65.738-57.966,141.766-103.15,229.941-135.163c85.277-30.914,183.447-15.461,277.661-7.34L5667.607,103.846z"/>
		<path id="_x31_80636510" fill="none" stroke="#010101" stroke-width="80" d="M5678.42,184.663l18.227,135.785
			c-57.752-26.254-116.596-41.807-184.125-21.64c-93.539,27.886-168.292,77.206-226.276,144.76l-77.073-121.42
			c59.777-63.029,135.957-107.119,218.882-126.699C5506.74,176.972,5593.125,174.958,5678.42,184.663z"/>
		<path id="_x31_80636509" fill="none" stroke="#010101" stroke-width="80" d="M5696.645,320.448l50.289,374.954
			c-61.909-23.198-123.494-35.148-182.125-23.754c-37.75,7.359-68.998,30.325-94.35,62.414l-184.214-290.494
			c57.984-67.555,132.737-116.874,226.276-144.761C5580.051,278.641,5638.893,294.193,5696.645,320.448z"/>
		<path id="_x31_80636508" fill="none" stroke="#010101" stroke-width="80" d="M5746.932,695.402l42.952,320.531
			c-42.868,12.215-75.155,35.884-98.206,66.953l-221.221-348.824c25.352-32.091,56.6-55.055,94.35-62.414
			C5623.439,660.25,5685.024,672.204,5746.932,695.402z"/>
		<path id="_x31_80636507" fill="none" stroke="#010101" stroke-width="80" d="M5789.884,1015.932l13.536,100.571
			c-5.49,4.935-10.532,10.806-14.902,17.536c-11.115,17.134-19.551,33.792-25.908,50.913l-8.332-3.416l-62.6-98.651
			C5714.729,1051.817,5747.016,1028.146,5789.884,1015.932z"/>
		<path id="_x31_80636517" fill="none" stroke="#010101" stroke-width="80" d="M5612.963,1879.484
			c-8.742,13.143-11.023,23.694-7.88,33.217c5.54,16.701,33.817,28.267,64.765,36.47c-28.93-3.833-58.227-6.336-91.174-12.032
			c-140.271-24.329-307.231-49.216-417.567-150.635c-123.668-113.65-162.43-257.663-185.548-420.93
			c-8.312-58.64-9.973-102.22-56.301-140.221c-0.124-54.676-1.359-601.126-1.359-601.126s6.114-25.245,11.143-37.442
			c58.636-141.76,133.539-256.066,231.108-341.92l49.021,77.281c-2.374,2.429-4.672,4.934-6.825,7.439
			c-1.778,1.801-3.337,3.602-4.968,5.402c-80.014,90.965-146.661,206.422-168.24,329.42
			c-9.543,54.075-11.939,111.725-12.331,168.825c-0.218,35.461,0.31,70.611,0.535,104.664c0.592,97.011,9.657,193.61,13.89,290.455
			c5.408,123.477,13.861,244.758,75.959,352.314c29.782,51.79,74.654,104.324,124.908,134.97
			c25.459,15.48,39.422,41.143,65.769,54.746c29.997,15.467,63.926,28.036,96.361,36.703c35.038,9.363,72.743,15.125,105.935,30.508
			c6.549,3.029,13.77,7.228,21.438,11.818c25.385,15.089,55.687,34.384,80.658,30.26L5612.963,1879.484z"/>
		<path id="_x31_80636516" fill="none" stroke="#010101" stroke-width="80" d="M5312.786,1694.89
			c-140.386-75.568-198.924-121.037-229.577-295.613c-25.529-144.904-29.943-288.538-41.277-435.276
			c-3.373-43.967-5.402-87.547-4.98-130.743c0.859-80.611,10.271-160.151,35.518-238.946
			c28.273-88.335,147.639-168.623,129.878-264.728c-1.778,1.801-3.337,3.602-4.968,5.402
			c-80.016,90.965-146.662,206.422-168.24,329.42c-9.543,54.076-11.941,111.726-12.333,168.826
			c-0.217,35.46,0.31,70.61,0.535,104.665c0.592,97.01,9.657,193.608,13.89,290.453c5.41,123.478,13.861,244.759,75.959,352.316
			c29.782,51.789,74.656,104.322,124.908,134.97c25.46,15.478,39.422,41.142,65.771,54.744
			c29.995,15.468,63.926,28.037,96.359,36.704c35.038,9.362,72.743,15.125,105.935,30.507c6.55,3.029,13.771,7.229,21.438,11.818
			l13.604-0.816C5502.314,1771.35,5378.141,1730.108,5312.786,1694.89z"/>
		<path id="_x31_80636515" fill="none" stroke="#010101" stroke-width="80" d="M5535.713,1745.725
			c19.354,10.886,111.766,76.888,130.777,68.717l2.98,3.116c-11.494,12.138-23.363,24.429-35.675,37.036
			c-9.124,9.318-16.017,17.46-20.835,24.893l-10.705,0.183c-24.972,4.124-55.273-15.17-80.657-30.26l13.604-0.816
			c-32.889-77.244-157.062-118.485-222.417-153.704c-140.386-75.567-198.924-121.037-229.577-295.611
			c-25.529-144.905-29.943-288.539-41.277-435.278c-3.373-43.967-5.402-87.547-4.98-130.742
			c0.859-80.612,10.271-160.15,35.518-238.947c28.273-88.334,147.639-168.621,129.878-264.728c2.151-2.505,4.449-5.009,6.825-7.438
			l77.073,121.422c-42.192,49.003-75.515,107.512-100.716,174.359c-27.047,71.694-41.242,173.115-41.589,250.053
			c-0.829,192.776-32.351,455.693,66.47,627.519C5277.807,1612.651,5425.468,1683.513,5535.713,1745.725z"/>
		<path id="_x31_80636514" fill="none" stroke="#010101" stroke-width="80" d="M5753.046,1722.523
			c-8.453,10.489-16.827,20.978-24.464,30.525c-0.075,0.157-0.223,0.312-0.371,0.469c-18.686,21.214-38.116,42.354-58.736,64.041
			l-2.98-3.117c-19.013,8.171-111.425-57.831-130.779-68.717c-110.245-62.209-257.904-133.073-325.305-250.223
			c-98.821-171.826-67.298-434.742-66.47-627.518c0.347-76.939,14.54-178.36,41.589-250.054
			c25.201-66.848,58.523-125.356,100.716-174.36l184.214,290.494c-69.391,87.657-95.131,243.706-92.32,336.336
			C5385.121,1299.163,5480.823,1702.666,5753.046,1722.523z"/>
		<path id="_x31_80636513" fill="none" stroke="#010101" stroke-width="80" d="M5819.84,1638.152
			c-5.484,7.746-11.045,15.415-16.603,22.849c-13.495,16.283-32.103,39.136-50.192,61.522
			c-272.224-19.854-367.926-423.359-374.911-652.125c-2.812-92.631,22.933-248.679,92.319-336.335l221.221,348.824
			c-83.089,111.906-46.635,319.662,46.041,437.14l5.349-1.497c6.229,25.289,16.245,49.714,31.464,72.64
			C5786.393,1609.023,5801.893,1624.841,5819.84,1638.152z"/>
		<path id="_x31_80636512" fill="none" stroke="#010101" stroke-width="80" d="M5754.275,1181.536l8.334,3.416
			c-11.824,30.961-16.958,63.076-19.4,100.185c-5.033,76.012-18.748,158.688-0.142,233.392l-5.349,1.498
			c-92.678-117.477-129.129-325.233-46.041-437.14L5754.275,1181.536z"/>
		<path id="_x31_80636483" fill="none" stroke="#010101" stroke-width="80" d="M8805.479,1712.087l-78.467,50.032
			c-78.101-114.155-160.573-223.77-248.089-327.901l71.156-61.887l2.596-2.271c39.224,50.75,76.062,101.193,109.776,150.24
			C8707.876,1586.342,8756.938,1649.096,8805.479,1712.087z"/>
		<path id="_x31_80636482" fill="none" stroke="#010101" stroke-width="80" d="M8727.012,1762.118l-192.574,122.805
			c-8.504-11.852-17.304-23.858-26.624-36.019c-67.557-88.251-135.259-175.171-204.966-261.463l176.075-153.225
			C8566.438,1538.349,8648.911,1647.963,8727.012,1762.118z"/>
		<path id="_x31_80636481" fill="none" stroke="#010101" stroke-width="80" d="M8534.438,1884.922l-93.689,59.833
			c-67.586-101.06-137.25-200.55-208.982-295.428l71.082-61.887c69.707,86.292,137.409,173.212,204.966,261.462
			C8517.134,1861.063,8525.934,1873.07,8534.438,1884.922z"/>
		<path id="_x31_80636480" fill="none" stroke="#010101" stroke-width="80" d="M8231.766,1649.328
			c71.732,94.878,141.396,194.368,208.982,295.428l-263.322,167.896c-56.779-89.37-113.779-178.583-174.787-263.958
			L8231.766,1649.328z"/>
		<path id="_x31_80636479" fill="none" stroke="#010101" stroke-width="80" d="M8177.426,2112.652l-114.846,73.322
			c-52.971-81.958-108.984-161.255-170.201-241.318l110.26-95.962C8063.646,1934.069,8120.646,2023.283,8177.426,2112.652z"/>
		<path id="_x31_80636478" fill="none" stroke="#010101" stroke-width="80" d="M7892.379,1944.657
			c61.217,80.063,117.23,159.358,170.201,241.318l-40.904,26.036l-1.336,1.02c-54.459-82.426-112.031-160.936-169.438-232.259
			L7892.379,1944.657z"/>
		<path id="_x31_80636459" fill="none" stroke="#010101" stroke-width="80" d="M9284.287,3104.66
			c2.135,122.314,1.525,247.681-10.465,369.171c-3.418,34.454-10.92,69.858-20.578,105.889l-4.314-1.236l-123.637-0.549
			c22.32-58.091,39.877-118.825,53.567-179.629c21.419-95.114,31.981-192.075,33.098-289.713l70.619-3.929L9284.287,3104.66z"/>
		<path id="_x31_80636458" fill="none" stroke="#010101" stroke-width="80" d="M9009.021,3119.882l202.937-11.291
			c-1.116,97.64-11.679,194.599-33.098,289.713c-13.69,60.802-31.247,121.538-53.567,179.629l-230.325-0.901
			c4.451-37.269,8.457-74.616,11.867-112.037c40.579,92.846,79.998,1.827,84.334-53.797
			C8998.466,3317.524,9005.6,3217.37,9009.021,3119.882z"/>
		<path id="_x31_80636457" fill="none" stroke="#010101" stroke-width="80" d="M8917.588,3124.957l91.434-5.074
			c-3.422,97.489-10.556,197.644-17.853,291.314c-4.336,55.626-43.755,146.645-84.334,53.797
			C8917.211,3351.474,8922.081,3237.733,8917.588,3124.957z"/>
		<path id="_x31_80636456" fill="none" stroke="#010101" stroke-width="80" d="M8906.835,3464.992
			c-3.41,37.421-7.416,74.769-11.867,112.037l-231.884-0.978c0.553-19.45,0.582-38.899,0.018-58.19
			c-3.63-125.826-24.954-251.763-52.815-375.808l307.302-17.1C8922.081,3237.733,8917.211,3351.474,8906.835,3464.992z"/>
		<path id="_x31_80636455" fill="none" stroke="#010101" stroke-width="80" d="M8663.102,3517.865
			c0.564,19.289,0.535,38.736-0.018,58.19l-135.159-0.521c-2.217-92.865-8.002-185.331-21.967-277.779
			c-7.47-49.814-16.432-99.313-26.728-148.417l131.056-7.283C8638.147,3266.102,8659.472,3392.04,8663.102,3517.865z"/>
		<path id="_x31_80636454" fill="none" stroke="#010101" stroke-width="80" d="M8527.925,3575.535l-63.79-0.309
			c-4.116-144.492-23.159-280.508-47.048-422.453l62.144-3.438c10.296,49.105,19.258,98.605,26.728,148.42
			C8519.923,3390.204,8525.708,3482.67,8527.925,3575.535z"/>
		<path id="_x31_80636445" fill="none" stroke="#010101" stroke-width="80" d="M8531.04,3803.137l113.32,7.995
			c-3.56,36.487-6.6,72.894-8.377,108.982c-1.352,26.794-4.038,55.312-7.838,84.691c-0.22,1.874-0.511,3.75-0.806,5.626
			c-10.481-0.365-20.966-0.492-31.598-0.467c-28.472,0.228-56.36-2.359-84.465-4.006c0-0.391,0.073-0.859,0.146-1.25l-59.557-2.351
			c1.61-12.187,3.068-24.378,4.304-36.565c16.697,18.548,59.335-63.183,60.813-67.016
			C8527.7,3871.025,8530.746,3837.275,8531.04,3803.137z"/>
		<path id="_x31_80636444" fill="none" stroke="#010101" stroke-width="80" d="M8466.352,3798.537l64.688,4.6
			c-0.294,34.135-3.34,67.886-14.057,95.643c-1.479,3.831-44.116,85.562-60.812,67.017c2.546-24.691,4.424-49.378,5.335-73.904
			c1.193-31.092,2.163-62.261,2.837-93.425L8466.352,3798.537z"/>
		<path id="_x31_80636448" fill="none" stroke="#010101" stroke-width="80" d="M9202.917,4108.022l-24.622-6.03l-0.146,0.467
			c-23.958-7.204-84.347-16.502-133.727-23.563c-1.259-30.226,1.424-60.93-3.402-91.146c-7.616-47.157-19.631-99.461-18.926-149.843
			l152.952,10.781C9158.895,3939.416,9179.524,4021.065,9202.917,4108.022z"/>
		<path id="_x31_80636446" fill="none" stroke="#010101" stroke-width="80" d="M8628.146,4004.806
			c3.8-29.378,6.486-57.897,7.838-84.691c1.777-36.089,4.817-72.495,8.377-108.982l214.893,15.235
			c-4.84,29.929-9.752,59.7-14.667,89.314c-6.527,38.916-15.34,87.365,3.992,121.998l-0.954,4.846
			c-10.34-2.241-20.678-4.479-31.018-6.562c-13.76-2.777-27.52-5.476-41.354-8.019c-48.42-8.938-97.28-15.689-147.913-17.513
			C8627.635,4008.556,8627.926,4006.68,8628.146,4004.806z"/>
		<path id="_x31_80636447" fill="none" stroke="#010101" stroke-width="80" d="M9041.021,3987.751
			c4.826,30.215,2.144,60.919,3.402,91.146c-35.771-5.145-65.816-9.13-72.214-10.362c-34.956-6.707-69.17-14.12-103.164-21.453
			c-7.139-1.547-14.282-3.088-21.421-4.555l0.954-4.846c-19.332-34.633-10.52-83.082-3.992-121.998
			c4.915-29.616,9.827-59.388,14.667-89.312l162.842,11.538C9021.39,3888.29,9033.404,3940.593,9041.021,3987.751z"/>
		<path id="_x31_80636453" fill="none" stroke="#010101" stroke-width="80" d="M9248.93,3578.483l4.314,1.234
			c-22.043,82.465-55.084,167.687-74.227,249.513c-1.547,6.564-2.87,12.973-3.971,19.459l-152.952-10.781
			c0.177-20.702,2.584-41.172,8.338-60.794c17.854-61.047,60.11-114.658,84.51-173.302c3.55-8.604,7.023-17.202,10.351-25.88
			L9248.93,3578.483z"/>
		<path id="_x31_80636452" fill="none" stroke="#010101" stroke-width="80" d="M8894.968,3577.033l230.325,0.901
			c-3.327,8.679-6.801,17.278-10.351,25.88c-24.399,58.646-66.656,112.255-84.51,173.302c-5.754,19.62-8.161,40.092-8.338,60.793
			l-162.842-11.538C8872.449,3744.084,8884.898,3660.711,8894.968,3577.033z"/>
		<path id="_x31_80636451" fill="none" stroke="#010101" stroke-width="80" d="M8663.084,3576.056l231.886,0.978
			c-10.071,83.678-22.521,167.055-35.717,249.338l-214.893-15.237C8651.843,3732.771,8661.179,3653.932,8663.084,3576.056z"/>
		<path id="_x31_80636450" fill="none" stroke="#010101" stroke-width="80" d="M8527.925,3575.535l135.159,0.519
			c-1.905,77.882-11.241,156.716-18.724,235.076l-113.32-7.993c0.369-34.836-2.09-70.138-2.01-100.053
			C8529.158,3660.438,8528.912,3617.949,8527.925,3575.535z"/>
		<path id="_x31_80636449" fill="none" stroke="#010101" stroke-width="80" d="M8529.03,3703.088
			c-0.08,29.915,2.379,65.215,2.01,100.053l-64.688-4.602l-2.008-0.074c1.555-68.973,1.695-138.021,0.275-206.678
			c-0.086-5.545-0.248-11.013-0.484-16.561l63.79,0.309C8528.912,3617.949,8529.158,3660.438,8529.03,3703.088z"/>
		<path id="_x31_80636375" fill="none" stroke="#010101" stroke-width="80" d="M8719.634,5405.152
			c-8.255-0.998-20.76-7.996-33.939-16.943c-1.356-0.918-2.719-1.857-4.082-2.811c-23.547-16.461-48.062-37.839-53.413-41.958
			c-2.234-1.712-4.544-3.424-6.852-5.06c-15.637-11.604-31.776-22.357-48.277-32.503c-21.689-13.331-44.013-25.605-66.669-37.351
			c-27.838-14.457-56.194-28.211-84.479-42.042c-36.766-18.029-73.312-36.371-108.597-57.138
			c-25.162-14.854-49.584-30.961-72.969-49.025c-7.148-5.567-37.842-31.82-71.477-61.571l-3.057-4.181
			c39.717,132.943-82.086,133.596-103.064,135.905c-75.595,8.321-155.417,0.688-230.438-8.631
			c-33.936-4.219-70.116-21.319-103.723-4.508c-6.123,3.066-9.225,8.337-10.105,15.071c-7.611,14.547,7.43,47.654,10.367,62.584
			c4.271,21.691,4.125,46.358,0.668,68.668c-21.787,34.542-46.633,37.411-66.236,41.962c-41.152,9.555-194.664,18.659-228.74,26.158
			c-55.223,12.163-109.398,28.988-163.88,44.282c-54.279,15.233-109.857,26.935-164.635,41.006
			c-13.472,3.46-26.549,8.206-39.37,13.702c-24.231,10.384-47.545,23.442-70.865,35.562c-0.546,0.286-3.156,1.974-7.057,4.564
			c-18.072,12.022-64,43.618-62.215,46.411c0.018,0.02,17.148,21.609,26.088,33.137c21.502,27.697,47.392,56.822,72.982,80.335
			c34.805,31.979,68.472,64.979,103.268,96.54c73.108,66.314,169.282,126.427,269.936,111.471
			c74.617-11.09,143.361-47.725,215.268-69.408c72.661-21.906,114.666-20.514,186.779,7.336c-0.322-0.127-0.672-0.822-1.045-1.984
			c7.619,2.219,14.971,3.893,22.488,5.502c0.669,1.379,1.346,2.143,2.022,2.21l-1.624,0.386c5.22,1.048,10.498,1.908,15.857,2.516
			c188.967,21.413,378.153-53.406,532.314-163.937c121.657-87.228,245.088-173.435,354.156-275.058l2.193-3.014
			C8725.505,5405.061,8722.904,5405.537,8719.634,5405.152z"/>
		<path id="_x31_80636432" fill="none" stroke="#010101" stroke-width="80" d="M7785.41,5699.794
			c-0.046-34.789,0.457-69.614,0.918-104.446c-16.244,26.621-39.681,51.029-53.47,75.387
			c-25.936,45.803-47.708,95.989-89.674,130.151c-64.729,52.7-152.978,45.89-230.004,41.68
			c-102.601-5.608-214.81-63.943-285.579-140.021c-50.842-54.659-92.369-114.574-138.855-171.649
			c-18.074,12.024-64.002,43.618-62.217,46.411c0.018,0.021,17.147,21.611,26.088,33.139c21.502,27.697,47.393,56.82,72.98,80.335
			c34.807,31.978,68.474,64.978,103.27,96.54c73.109,66.312,169.282,126.427,269.936,111.469
			c74.617-11.09,143.361-47.723,215.268-69.406c72.663-21.906,114.666-20.516,186.779,7.334
			C7796.104,5834.879,7785.425,5712.478,7785.41,5699.794z"/>
		<path id="_x31_80636431" fill="none" stroke="#010101" stroke-width="80" d="M7413.181,5842.563
			c77.026,4.208,165.275,11.017,230.004-41.678c41.966-34.164,63.738-84.349,89.674-130.153
			c13.791-24.354,37.226-48.762,53.47-75.386c0.334-25.401,0.641-50.804,0.701-76.198c-36.072,24.787-70.316,57.487-102.647,86.109
			c-30.973,27.418-47.515,69.896-78.621,96.68c-62.681,53.968-188.805,95.282-269.992,57.961
			c-59.477-27.343-93.894-90.172-130.751-142.973c-34.036-48.764-84-100.324-138.352-126.157
			c-24.229,10.384-47.543,23.442-70.865,35.562c-0.544,0.286-3.154,1.974-7.055,4.564c46.486,57.077,88.016,116.989,138.857,171.647
			C7198.371,5778.622,7310.58,5836.959,7413.181,5842.563z"/>
		<path id="_x31_80636430" fill="none" stroke="#010101" stroke-width="80" d="M7205.018,5616.93
			c36.857,52.803,71.274,115.628,130.751,142.969c81.188,37.326,207.312-3.991,269.992-57.959
			c31.106-26.781,47.648-69.262,78.621-96.68c32.331-28.622,66.575-61.321,102.647-86.107c0.086-38.516-0.406-77.014-2.291-115.453
			c-1.004-20.515-40.091-105.787-52.795-84c-22.349,38.307-48.32,41.203-68.65,45.926c-41.152,9.554-194.664,18.66-228.74,26.159
			c-55.223,12.161-109.398,28.986-163.88,44.28c-54.279,15.235-109.857,26.938-164.635,41.006
			c-13.472,3.462-26.549,8.206-39.37,13.702C7121.018,5516.605,7170.981,5568.164,7205.018,5616.93z"/>
		<path id="_x31_80636435" fill="none" stroke="#010101" stroke-width="80" d="M8719.634,5405.152
			c-8.255-0.998-20.76-7.996-33.939-16.943c-1.356-0.918-2.719-1.857-4.082-2.811l-3.519,6.608
			c-67.22,62.947-125.064,36.39-205.716,50.062c-44.352,7.52-73.446,44.68-104.103,74.878
			c-24.301,23.944-51.769,37.347-79.867,55.376c-66.771,42.822-146.42,111.203-225.365,51.376
			c-45.216-34.257-52.597-101.059-100.686-132.754c-41.17-27.126-81.732-28.938-107.512-77.808
			c-9.503-18.002-13.561-40.324-25.17-57.001c-12.311-17.694-23.605-18.172-37.629-26.253c-1.22-0.701-5.85-3.096-10.93-5.768
			c41.954,82.365,23.81,176.921,22.699,267.16c-0.837,67.66,9.516,250.021,20.497,251.165l-1.622,0.384
			c5.219,1.05,10.497,1.908,15.859,2.516c188.967,21.415,378.15-53.406,532.312-163.937
			c121.655-87.228,245.086-173.438,354.158-275.058l2.189-3.012C8725.505,5405.061,8722.904,5405.537,8719.634,5405.152z"/>
		<path id="_x31_80636434" fill="none" stroke="#010101" stroke-width="80" d="M7829.676,5356.14
			c11.609,16.675,15.667,38.999,25.17,56.999c25.779,48.869,66.342,50.682,107.512,77.812
			c48.089,31.692,55.47,98.494,100.686,132.751c78.945,59.825,158.595-8.553,225.365-51.376
			c28.099-18.027,55.566-31.43,79.867-55.374c30.656-30.198,59.751-67.36,104.103-74.877
			c80.651-13.675,138.496,12.883,205.716-50.062l3.519-6.61c-23.547-16.461-48.062-37.837-53.413-41.956
			c-2.234-1.714-4.544-3.426-6.852-5.061c-15.637-11.606-31.776-22.359-48.277-32.503l-11.628,5.706
			c-98.407,38.272-158.388,106.95-264.368,131.705c-68.826,16.067-147.219,27.587-214.633-6.591
			c-109.75-55.643-141.658-168.646-284.363-167.453l-50.236,0.809c11.404,19.029,22.67,35.273,26.708,42.107
			c2.339,3.956,4.523,7.941,6.567,11.955c5.08,2.67,9.71,5.063,10.93,5.768C7806.07,5337.969,7817.365,5338.445,7829.676,5356.14z"
			/>
		<path id="_x31_80636433" fill="none" stroke="#010101" stroke-width="80" d="M8082.441,5436.703
			c67.414,34.176,145.807,22.658,214.633,6.589c105.98-24.753,165.961-93.434,264.368-131.705l11.628-5.705
			c-21.689-13.333-44.013-25.607-66.669-37.351c-27.838-14.457-56.194-28.213-84.479-42.042
			c-36.766-18.029-73.312-36.371-108.597-57.138c-25.162-14.856-49.584-30.961-72.969-49.025
			c-7.148-5.567-37.842-31.822-71.477-61.571l-3.057-4.181c39.717,132.943-82.086,133.596-103.064,135.905
			c-75.595,8.319-155.417,0.687-230.438-8.635c-33.936-4.217-70.116-21.317-103.723-4.504c-18.195,9.104-9.805,37.645,4.667,66.45
			c4.478,8.921,9.54,17.864,14.575,26.268l50.236-0.811C7940.783,5268.057,7972.691,5381.057,8082.441,5436.703z"/>
		<path id="_x31_80636423" fill="none" stroke="#010101" stroke-width="80" d="M7655.712,3686.601
			c-34.251,268.955-267.747,679.788-474.755,1001.212c45.498,19.085,144.994,58.836,199.951,79.07
			c11.047,4.069,24.73,9.217,40.361,14.973c157.203-162.457,317.703-348.288,395.125-502.199
			c38.191-75.927,63.381-166.949,87.619-248.766c94.604-319.379,53.16-641.498-37.441-956.749
			c-29.959-104.247-75.316-209.117-123.723-305.374c-72.557-144.296-153.811-262.229-245.799-374.507
			c-104.063-127.02-227.499-237.691-357.027-336.04c-51.098-38.798-281.496-216.735-477.613-243.728
			c-48.338-6.652-77.518-0.217-128.541,15.945l-3.683,0.708c-10.682,44.112-37.144,128.478-37.144,128.478
			c54.198,9.746,114.754,25.248,170.28,44.299c69.833,23.962,140.587,41.908,207.482,74.17
			c57.157,27.564,110.816,65.315,163.187,101.996c74.02,51.839,144.305,102.639,212.268,163.684
			c66.094,59.369,133.214,123.395,191.838,190.563c13.475,15.435,25.57,31.806,37.688,48.401
			c22.88,31.338,44.573,66.547,53.049,104.77l19.586,47.006C7631.867,3004.508,7693.043,3393.497,7655.712,3686.601z"/>
		<path id="_x31_80636426" fill="none" stroke="#010101" stroke-width="80" d="M8102.617,4789.305
			c17.352-28.686,81.714-136.537,132.861-251.723c25.143-56.633,44.659-115.109,67.762-172.484
			c42.959-106.67,54.57-214.146,74.65-324.248c21.291-116.729,5.61-248.652,0.984-366.583
			c-4.437-113.382-21.23-226.447-46.471-336.713c-23.655-103.327-40.873-210.852-74.955-311.141
			c-61.312-180.412-104.4-372.272-205.713-534.123c-80.908-129.247-167.107-260.072-266.406-374.663
			c-154.471-178.269-225.834-247.308-397.328-372.681c-86.512-63.245-174.73-149.938-269.845-197.524
			c-48.634-24.331-98.329-43.277-148.984-65.994c-78.718-35.305-92.352-42.398-183.165-71.53
			c-48.677-15.618-167.125-37-167.114-32.111c0.021,8.958-22.337,142.686-25.821,159.077c-3.512,16.514-6.489,32.724-9.352,48.784
			c2.884-12.541,7.016-24.627,14.326-35.317c17.02-24.883,45.74-26.049,72.449-25.999c58.96,0.104,246.976,46.646,281.816,58.806
			c60.795,21.211,119.65,48.706,176.949,78.674c170.105,88.969,310.441,221.359,447.336,357.708
			c22.246,22.16,205.767,251.836,281.635,338.8c113.824,130.462,259.589,455.429,279.5,498.201
			c84.875,182.343,138.811,408.708,167.509,608.172c17.485,121.499,40.065,241.197,43.394,364.478
			c8.336,308.838-95.683,698.751-254.115,960.571L8102.617,4789.305z"/>
		<path id="_x31_80636425" fill="none" stroke="#010101" stroke-width="80" d="M6852.211,1662.184
			c243.082,80.811,484.295,266.475,663.096,454.052c25.107,26.341,295.099,359.429,311.301,383.391
			c228.932,338.338,304.178,729.853,368.653,1130.8c52.039,323.592-26.657,624.648-197.621,897.135
			c-33.161,52.859-172.621,201.208-201.921,228.056c-16.84,15.429-112.054,82.373-137.879,93.979
			c3.967,0.611,7.91,1.178,11.824,1.695c74.585,6.814,136.722-0.154,207.252-12.477c69.215-12.089,215.191-45.266,217.492-49.023
			c157.66-258.57,262.6-650.479,254.225-960.62c-3.328-123.28-25.91-242.979-43.392-364.478
			c-28.698-199.464-82.634-425.828-167.511-608.173c-19.909-42.771-165.676-367.737-279.498-498.201
			c-75.868-86.963-259.391-316.64-281.635-338.797c-136.895-136.351-277.23-268.74-447.336-357.708
			c-57.301-29.971-116.155-57.465-176.951-78.677c-34.839-12.158-222.854-58.701-281.815-58.803
			c-26.712-0.052-55.433,1.115-72.449,25.997c-7.312,10.69-11.443,22.778-14.327,35.317c-2.579,14.475-5.078,28.829-7.775,43.163
			C6588.096,1596.398,6833.787,1656.059,6852.211,1662.184z"/>
		<path id="_x31_80636424" fill="none" stroke="#010101" stroke-width="80" d="M6662.41,1814.491
			c196.115,26.992,426.516,204.928,477.613,243.728c129.528,98.351,252.966,209.022,357.029,336.04
			c91.988,112.278,173.24,230.214,245.801,374.508c48.402,96.255,93.76,201.127,123.723,305.374
			c90.602,315.252,132.045,637.369,37.438,956.75c-24.235,81.814-49.428,172.841-87.619,248.764
			c-77.42,153.913-237.92,339.742-395.123,502.199c7.699,2.838,15.869,5.816,24.443,8.893
			c55.27,19.209,111.492,36.926,160.275,48.749c17.484,4.031,34.889,7.484,51.852,10.101
			c25.827-11.606,121.041-78.555,137.877-93.98c29.3-26.849,168.761-175.195,201.924-228.055
			c170.961-272.486,249.659-573.541,197.62-897.135c-64.478-400.948-139.723-792.463-368.655-1130.802
			c-16.2-23.959-286.191-357.05-311.3-383.391c-178.8-187.578-420.013-373.242-663.093-454.051
			c-18.426-6.126-264.117-65.789-276.268-33.377c-3.062,16.285-6.392,32.548-10.447,48.948
			c-12.555,50.736-22.632,99.638-34.627,150.527c-0.218,0.931-0.448,1.89-0.685,2.861l3.683-0.707
			C6584.894,1814.275,6614.072,1807.84,6662.41,1814.491z"/>
		<path id="_x31_80636419" fill="none" stroke="#010101" stroke-width="80" d="M6947.984,4783.606
			c52.544-146.625,88.276-301.705,160.479-439.776c75.391-144.158,194.73-255.764,263.859-404.34
			c193.96-416.828,47.525-907.222-197.173-1262.63c-3.573-5.188-12.685-17.833-21.986-30.678
			c-7.294-3.626-14.546-7.209-21.687-10.803c-26.23-13.199-52.803-29.15-82.165-32.951c-2.354-0.305-6.104,0.398-10.572,1.826
			c75.599,21.528,215.39,290.777,231.296,324.725c79.462,169.583,123.229,338.062,144.787,524.746
			c11.878,102.83,4.065,208.634-20.79,309.75c-55.718,226.641-216.143,377.01-312.641,580.558
			c-51.188,107.972-89.636,222.243-126.744,336.2c-16.26,49.9-32.133,99.98-48.886,149.709
			c-22.83,67.77-68.447,132.514-104.342,192.979c-20.164,33.968-52.333,140.969-102.568,141.321
			c9.607,1.239,19.815,1.143,29.866,0.174c1.827-0.232,3.669-0.487,5.519-0.746c10.991-12.629,24.004-27.444,28.072-32.94
			C6841.295,5024.057,6902.121,4911.59,6947.984,4783.606z"/>
		<path id="_x31_80636422" fill="none" stroke="#010101" stroke-width="80" d="M6660.919,5131.159
			c-3.697-48.068,65.624-130.642,78.628-152.548c39.586-66.698,80.386-134.224,101.734-210.275
			c54.563-194.395,99.264-400.582,193.939-578.908c62.768-118.235,166.479-205.104,222.517-328.626
			c71.974-158.633,80.86-354.53,55.707-526.185c-17.041-116.335-69.454-222.901-125.19-323.546
			c-55.551-100.299-107.226-200.631-165.24-299.476c-13.025-22.19-31.088-60.724-19.441-88.471
			c-5.535,4.483-9.498,9.097-10.256,13.171c-5.719,30.67-2.953,62.034,2.533,92.492c9.197,51.076,29.66,101.052,48.885,148.887
			c28.965,72.061,46.32,147.722,69.17,221.846c9.99,32.415,44.809,182.367,54.377,223.838c4.729,20.537-0.736,40.484-2.613,60.938
			c-2.025,22.065,4.201,43.202,5.782,65.091c4.444,61.539-3.696,125.404-16.198,185.467c-4.684,22.467-10.128,44.897-16.419,66.936
			c-13.916,48.778-30.417,97.584-49.427,144.445c-23.775,58.596-58.425,111.392-81.241,170.964
			c-102.98,268.879-164.048,506.61-210.747,678.353c-6.545,24.07-13.438,48.053-21.06,71.764
			c-18.024,56.072-69.217,163.97-69.217,163.97c-5.077,12.599-53.115,93.567-53.115,93.567c0,0.02,1.747,37.136,1.87,49.723
			C6656.08,5093.225,6657.032,5112.742,6660.919,5131.159z"/>
		<path id="_x31_80636421" fill="none" stroke="#010101" stroke-width="80" d="M7023.016,2711.595
			c58.015,98.845,109.688,199.175,165.238,299.478c55.738,100.646,108.153,207.211,125.192,323.546
			c25.151,171.654,16.267,367.552-55.708,526.187c-56.038,123.522-159.75,210.391-222.518,328.626
			c-94.676,178.325-139.375,384.514-193.938,578.906c-21.347,76.052-62.15,143.579-101.734,210.275
			c-13.003,21.906-82.326,104.48-78.629,152.548c0.613,2.9,1.29,5.772,2.056,8.611c0.247,0.919,0.606,1.862,1.03,2.808
			c4.732,8.606,11.035,14.291,18.379,17.887c0.145,0.057,0.293,0.123,0.437,0.173c5.032,1.724,10.429,2.888,16.029,3.611
			c50.235-0.352,82.403-107.353,102.567-141.319c35.895-60.465,81.51-125.211,104.342-192.98
			c16.755-49.73,32.63-99.809,48.886-149.711c37.11-113.957,75.557-228.228,126.745-336.198
			c96.499-203.548,256.922-353.918,312.64-580.559c24.856-101.116,32.669-206.917,20.792-309.75
			c-21.559-186.684-65.325-355.162-144.788-524.747c-15.907-33.948-155.696-303.196-231.295-324.726
			c-10.64,3.401-25.37,10.931-35.167,18.87C6991.928,2650.871,7009.99,2689.405,7023.016,2711.595z"/>
		<path id="_x31_80636420" fill="none" stroke="#010101" stroke-width="80" d="M7548.425,2734.511l-19.585-47.005
			c3.625,16.346,4.835,33.242,2.685,50.623c-6.099,49.248-31.677,80.087-42.05,97.172c-16.231,26.735-42.941,49.026-56.725,47.936
			c-31.037-2.454-60.896-34.043-79.105-53.543c-23.711-25.39-45.723-53.679-65.195-82.761
			c-32.484-48.514-84.918-75.711-135.286-100.75c9.302,12.848,18.413,25.492,21.984,30.68
			c244.698,355.41,391.135,845.803,197.175,1262.629c-69.129,148.576-188.469,260.184-263.859,404.342
			c-72.204,138.071-107.935,293.149-160.479,439.774c-45.863,127.985-106.691,240.45-185.679,347.127
			c-4.067,5.492-17.082,20.31-28.073,32.939c4.074-0.572,8.197-1.198,12.361-1.852c2.908-0.563,7.903-1.349,14.011-2.19
			c12.703-1.943,25.622-3.684,38.434-4.205c11.292-0.854,20.854-1.082,24.489,0.002c1.74,0.522,3.532,1.035,5.335,1.534
			c6.187,1.005,12.279,2.507,18.243,4.638c3.515,0.825,6.216,1.427,7.493,1.71c7.614-10.836,22.899-31.958,44.112-61.579
			c6.848-9.766,13.819-19.43,20.783-29.101c6.482-9.103,13.338-18.756,20.54-28.931c0.081-0.118,0.165-0.236,0.245-0.354
			c23.793-34.408,124.039-180.625,150.321-219.357c12.581-18.539,41.694-61.6,63.319-94.455c3.487-5.346,6.986-10.725,10.496-16.132
			c6.372-10.195,11.693-19.01,15.629-25.973c0.299,0.126,0.61,0.258,0.914,0.384c207.008-321.426,440.502-732.254,474.756-1001.21
			C7693.043,3393.497,7631.867,3004.508,7548.425,2734.511z"/>
		<path id="_x31_80636414" fill="none" stroke="#010101" stroke-width="80" d="M6760.595,5255.505
			c5.218,3.958,5.45,11.037-1.827,22.95c-28.225,46.171-134.838,47.748-175.84,23.701c-57.193-33.54-41.967-88.561-17.948-138.632
			c0.052-0.177,0.11-0.341,0.169-0.508c-24.748,47.212-59.032,119.71-24.896,175.356c17.661,28.794,39.042,41.471,62.066,44.471
			c44.986,3.646,87.93-21.264,105.549-29.301c0.559-0.257,1.115-0.518,1.674-0.775c4.746-2.377,9.428-4.757,14.035-7.086
			c6.971-3.86,13.701-8.178,20.002-13.145c20.947-18.625,61.545-61.975,88.952-100.217c1.879-2.686,3.714-5.379,5.483-8.058
			c4.854-7.356,17.699-29.277,21.633-41.765c0.239-1.021,0.426-2.008,0.57-2.961l-0.006,0.002l0.006-0.002
			c0.202-1.351,0.303-2.635,0.303-3.844c-0.213-0.896-0.559-1.938-0.963-3.024L6760.595,5255.505z"/>
		<path id="_x31_80636418" fill="none" stroke="#010101" stroke-width="80" d="M7393.297,2484.773
			c-42.402-46.331-92.098-84.145-135.435-129.459c-54.608-57.103-234.896-195.026-387.053-277.222
			c-46.59-25.167-271.806-94.785-322.572-108.467c-100.236-27.011-214.054-6.408-291.64,53.193
			c-47.536,36.516-80.791,100.78-137.148,95.102c11.164,18.524,33.549,24.79,47.744,41.457
			c16.771,19.688,29.141,35.208,43.825,56.586c33.229,48.364,62.28,99.557,98.372,145.828
			c82.119,105.281,161.598,163.361,268.18,250.857c120.766,99.144,211.975,210.856,315.629,329.757
			c24.138,27.693,48.615,55.054,72.323,83.163c43.069,51.053,84.448,104.054,118.413,162.342
			c36.719,63.021,58.299,125.118,81.535,193.815c-17.825-76.973-57.277-144.915-80.279-219.778
			c-23.435-76.281-44.476-153.215-72.232-228.171c-31.704-85.595-76.721-174.221-126.87-249.393
			c-84.054-125.987-213.038-245.604-342.16-318.856c-54.085-30.684-115.727-47.359-167.297-82.775
			c-32.286-22.181-84.999-84.652-69.336-131.886c21.194-63.923,106.149-49.398,152.714-34.795
			c59.932,18.793,124.813,43.763,181.586,71.432c89.58,43.66,190.248,80.333,271.88,139.493
			c88.348,64.035,185.354,113.293,262.321,191.319c22.43,22.739,167.344,193.16,185.335,216.099
			c16.173,20.615,71.595,110.128,78.415,136.699c1.277,4.98,0.847,8.211-0.787,10.116c28.748-10.048,51.645-45.7,67.176-70.73
			C7583.671,2685.253,7472.447,2571.25,7393.297,2484.773z"/>
		<path id="_x31_80636413" fill="none" stroke="#010101" stroke-width="80" d="M6633.566,5256.494
			c34.053,8.172,109.306-14.434,127.028-0.993l98.962-82.832c-0.855-2.292-1.994-4.794-2.867-6.608
			c-0.8-0.68-1.725-1.27-2.796-1.749c-2.239-1.004-4.505-1.897-6.79-2.714c-5.023-1.184-11.705-2.824-18.243-4.638
			c-9.765-1.585-19.759-1.942-29.822-1.536c-12.599,0.953-27.345,2.676-38.432,4.205c-4.707,0.721-9.384,1.467-14.013,2.19
			c0,0-0.006,0-0.012,0.003c-5.781,1.115-11.793,2.011-17.865,2.596c-0.705,0.092-1.412,0.186-2.115,0.269
			c-14.462,1.767-28.525,1.905-40.334-2.544h-0.004c-13.427-4.578-20.834-12.543-23.855-22.695
			c-1.232-2.633-2.342-5.498-3.305-8.635c-2.646-8.633-5.082-105.969-5.082-105.969s-57.578,78.789-87.297,135.165
			c-0.207,0.395-0.42,0.797-0.628,1.192c-0.375,0.771-0.749,1.545-1.119,2.317
			C6559.694,5181.371,6594.09,5247.021,6633.566,5256.494z"/>
		<path id="_x31_80636416" fill="none" stroke="#010101" stroke-width="80" d="M6999.916,2478.347
			c-69.273-33.01-132.168-78.306-198.426-117.157c-9.865-5.785-310.086-151.633-310.187-134.936
			c0.022,39.504,53.528,63.808,81.555,77.155c106.405,50.669,194.243,123.375,271.483,215.545
			c78.312,93.444,134.543,194.256,178.672,300.624c-9.087-23.796-17.317-48.023-22.68-74.346
			c-5.281-25.939-13.281-65.216-8.189-96.713c1.441-8.909,0.186-11.848,4.078-19.034c1.074-1.983,6.766-6.028,9.132-7.757
			c2.61-1.907,7.612-4.743,9.909-6.615c4.91-4,7.873-4.313,14.852-7.582c4.672-2.189,11.848-4.818,17.188-4.623
			c30.361,1.116,64.966,21.548,89.053,34.905c40.745,22.588,99.483,47.597,133.046,84.082
			c-15.566-21.699-31.141-43.222-47.656-63.625C7164.818,2587.945,7080.198,2516.606,6999.916,2478.347z"/>
		<path id="_x31_80636415" fill="none" stroke="#010101" stroke-width="80" d="M6566.148,5161.104
			c-10.076,13.176,25.859,85.419,67.418,95.391c44.078,10.576,157.195-30.411,125.201,21.958
			c-28.225,46.174-134.838,47.749-175.84,23.702C6524.812,5268.074,6541.472,5211.816,6566.148,5161.104z"/>
		<path id="_x31_80636417" fill="none" stroke="#010101" stroke-width="80" d="M7439.547,2871.114
			c-6.82-26.57-62.242-116.083-78.415-136.7c-17.991-22.938-162.905-193.358-185.335-216.099
			c-76.967-78.026-173.976-127.285-262.321-191.318c-81.632-59.161-182.3-95.835-271.88-139.494
			c-56.771-27.669-121.654-52.638-181.586-71.432c-46.564-14.604-131.52-29.125-152.714,34.795
			c-15.663,47.234,37.05,109.706,69.336,131.886c51.57,35.416,113.212,52.092,167.297,82.775
			c129.122,73.252,258.108,192.871,342.16,318.856c50.149,75.172,95.166,163.797,126.87,249.392
			c27.759,74.958,48.798,151.892,72.232,228.172c23.004,74.862,62.456,142.804,80.279,219.777c1.951-4.471,3.289-8.544,4.18-12.4
			c1.219-7.113,1.395-15.761,0.863-25.19c-0.548-5.583-1.306-11.552-1.758-18.476c0-0.02-0.004-0.043-0.004-0.065
			c-1.018-7.958-2.34-16.101-3.812-24.062c-5.262-23.427-14.289-49.282-18.118-69.463c-5.032-26.502-11.174-52.642-17.813-78.642
			c-1.736-6.728-3.482-13.441-5.236-20.144c-6.548-24.759-13.408-49.448-20.069-74.254c-6.83-24.359-13.884-48.525-21.264-72.476
			c-8.966-28.479-18.433-56.691-27.835-84.441c-3.387-9.564-6.837-19.097-10.375-28.582c-6.992-18.213-14.352-35.959-21.223-53.949
			c-44.129-106.37-100.359-207.181-178.672-300.624c-77.24-92.167-165.078-164.874-271.482-215.545
			c-28.027-13.348-81.533-37.651-81.556-77.155c0.099-16.699,300.322,129.152,310.188,134.935
			c66.255,38.854,129.151,84.148,198.425,117.158c80.282,38.259,164.903,109.596,221.83,179.924
			c16.514,20.401,32.09,41.927,47.654,63.623c3.963,4.307,7.578,8.773,10.768,13.414c5.865,8.537,12.255,18.025,19.065,27.83
			c17.156,23.206,34.998,45.916,54.665,66.973c13.752,12.837,31.203,30.67,48.344,41.912c7.102,4.03,15.291,8.018,22.252,10.051
			c4.773,0.924,9.361,0.822,13.66-0.623c0.204-0.069,0.404-0.151,0.606-0.222
			C7440.394,2879.324,7440.824,2876.095,7439.547,2871.114z"/>
		<path id="_x31_80636443" fill="none" stroke="#010101" stroke-width="80" d="M9215.064,4153.842
			c-4.048-15.454-8.173-30.756-12.147-45.819l-24.622-6.03l-0.146,0.469c-23.958-7.204-84.347-16.504-133.727-23.563
			c0.396,10.386,1.311,20.694,3.118,30.843c5.571,31.308,20.061,59.859,34.694,88.332c10.681,20.826,21.433,41.655,28.693,63.508
			c37.876,113.633-29.982,220.812-76.298,319.349c-53.939,114.723-101.702,231.694-145.071,351.233
			c-28.372,78.258-65.672,153.569-99.178,229.891c-33.506,76.241-55.336,154.094-102.316,222.168l-2.371,3.988
			c13.18,8.949,25.685,15.947,33.939,16.943c9.199-8.459,18.25-16.994,27.228-25.611c15.865-18.787,39.149-45.559,60.959-67.484
			c42.428-42.756,93.483-117.164,131.54-186.699c5.62-13.996,10.794-27.053,15.673-38.623
			c17.527-41.132,33.579-77.104,48.743-110.963c33.113-85.846,70.393-169.986,101.571-256.531
			c20.668-64.57,47.306-153.448,70.688-236.225c13.275-46.586,25.442-91.297,35.021-128.577
			C9225.799,4297.143,9233.214,4223.78,9215.064,4153.842z"/>
		<path id="_x31_80636442" fill="none" stroke="#010101" stroke-width="80" d="M8628.017,5328.447
			c-41.801-40.902,20.989-120.732,44.771-157.113c66.236-101.006,131.467-219.898,184.97-329.15
			c62.162-126.773,91.958-266.74,126.219-403.675c10.314-41.112,39.065-280.044,92.914-237.378l5.345-3.059
			c10.681,20.828,21.433,41.655,28.693,63.51c37.876,113.631-29.982,220.812-76.298,319.347
			c-53.939,114.725-101.702,231.696-145.071,351.235c-28.372,78.258-65.672,153.569-99.178,229.891
			c-33.506,76.241-55.336,154.094-102.316,222.168l-2.371,3.988c-24.72-16.73-51.837-40.406-57.495-44.767
			c-2.234-1.712-4.544-3.424-6.852-5.061L8628.017,5328.447z"/>
		<path id="_x31_80636441" fill="none" stroke="#010101" stroke-width="80" d="M9076.891,4201.131
			c-53.849-42.666-82.6,196.264-92.914,237.378c-34.261,136.933-64.057,276.901-126.219,403.675
			c-53.503,109.254-118.733,228.145-184.97,329.15c-23.782,36.381-86.572,116.211-44.771,157.113l-6.669,9.937
			c-36.192-26.855-75.051-49.179-114.946-69.853l2.884-6.256c19.103-68.393,66.429-82.184,113.462-127.291
			c119.805-115.045,174.779-297.803,227.213-454.467c39.949-119.373,75.358-240.922,83.398-367.715
			c3.374-53.903,8.014-106.404-13.808-155.637c-11.133-25.048-71.233-71.213-51.167-106.491l0.661-3.593
			c33.992,7.333,68.208,14.746,103.164,21.451c6.397,1.232,36.443,5.222,72.214,10.362c0.396,10.388,1.311,20.696,3.118,30.845
			c5.571,31.308,20.061,59.859,34.694,88.332L9076.891,4201.131z"/>
		<path id="_x31_80636440" fill="none" stroke="#010101" stroke-width="80" d="M8919.551,4157.166
			c21.821,49.23,17.182,101.731,13.808,155.637c-8.04,126.791-43.449,248.34-83.398,367.713
			c-52.434,156.664-107.408,339.422-227.213,454.467c-47.033,45.113-94.359,58.898-113.462,127.291l-2.884,6.256
			c-27.838-14.457-56.194-28.213-84.479-42.042l15.439-10.896c7.851-46.809,26.821-73.413,54.021-111.053
			c113.394-157.205,246.204-340.789,307.111-530.045c58.913-182.688,6.109-355.492,17.819-536.734l0.292-1.797
			c10.34,2.085,20.678,4.321,31.018,6.562c7.139,1.467,14.282,3.008,21.421,4.555l-0.661,3.595
			C8848.317,4085.951,8908.418,4132.118,8919.551,4157.166z"/>
		<path id="_x31_80636439" fill="none" stroke="#010101" stroke-width="80" d="M8816.606,4035.963l-0.292,1.797
			c-11.71,181.242,41.094,354.047-17.819,536.734c-60.907,189.256-193.718,372.836-307.111,530.045
			c-27.2,37.64-46.171,64.241-54.021,111.053l-15.439,10.896c-36.766-18.029-73.312-36.371-108.597-57.138
			c39.467-37.592,76.761-82.208,113.32-122.839c134.97-150.153,263.674-341.456,308.707-547.231
			c32.599-148.801,12.68-311.453,38.8-463.99l1.1-7.345C8789.087,4030.487,8802.847,4033.186,8816.606,4035.963z"/>
		<path id="_x31_80636438" fill="none" stroke="#010101" stroke-width="80" d="M8775.253,4027.944l-1.1,7.345
			c-26.12,152.537-6.201,315.188-38.8,463.988c-45.033,205.775-173.737,397.078-308.707,547.231
			c-36.56,40.631-73.854,85.247-113.32,122.839c-25.162-14.854-49.584-30.961-72.969-49.025
			c-7.598-5.917-41.787-35.199-77.844-67.211l10.627-2.836c0.743,0.7,1.488,1.322,2.457,1.943
			c124.559-84.594,190.623-295.03,244.953-433.498c34.372-87.57,90.179-164.647,121.427-253.691
			c35.677-101.867,69.574-235.598,85.362-354.598C8677.973,4012.259,8726.833,4019.007,8775.253,4027.944z"/>
		<path id="_x31_80636437" fill="none" stroke="#010101" stroke-width="80" d="M8173.141,5050.275l-10.627,2.836
			c-26.223-23.287-53.338-47.98-72.041-66.213c2.681,1.87,4.395,3.037,4.395,3.037c120.879-100.519,243.705-327.734,301.22-471.994
			c98.469-246.682,97.191-384.465,115.19-511.982c28.106,1.646,55.993,4.233,84.465,4.006c10.632-0.025,21.116,0.102,31.598,0.467
			c-15.788,119-49.686,252.73-85.361,354.596c-31.249,89.044-87.055,166.123-121.428,253.691
			c-54.33,138.47-120.395,348.906-244.953,433.5C8174.629,5051.598,8173.884,5050.976,8173.141,5050.275z"/>
		<path id="_x31_80636436" fill="none" stroke="#010101" stroke-width="80" d="M8451.503,4005.487
			c20.146-1.303,39.997-0.648,59.774,0.474c-17.999,127.52-16.722,265.301-115.19,511.982
			c-57.515,144.26-180.341,371.474-301.22,471.994c0,0-1.714-1.167-4.395-3.034c-0.072-0.079-0.072-0.154-0.149-0.154
			c-15.05-14.728-24.517-25.247-23.554-27.36c-0.002-0.078,0.075-0.078,0.075-0.156c0.147-0.156,0.222-0.312,0.368-0.47
			c0.594-0.625,1.113-1.329,1.558-1.956c48.19-59.406,85.882-126.285,122.528-194.098c8.74-14.707,16.292-28.005,21.918-38.641
			c27.983-52.718,67.143-127.644,108.551-227.495c1.775-4.298,3.548-8.677,5.323-12.979
			c54.494-131.438,96.337-268.938,114.009-409.971C8444.99,4050.961,8448.506,4028.299,8451.503,4005.487z"/>
		<path id="_x31_80636427" fill="none" stroke="#010101" stroke-width="80" d="M6177.428,1989.513
			c-35.76,4.359-192.555,10.171-192.555,10.171l-143.42-26.154l-86.583-6.4c34.979,10.642,74.389,32.171,74.389,32.173l0.19,1.191
			c22.792,13.634,45.035,28.72,68.604,41.853c64.124,35.727,139.368,37.057,204.686,69.883c12.524,6.292,24.593,7.605,36.066,5.546
			c29.747-5.341,54.65-34.215,74.901-56.032c121.037-130.414,278.434-101.021,278.434-101.021
			c9.283-20.718,22.91-68.688,37.831-128.794c-51.921,16.133-142.79,45.458-161.849,58.778
			C6341.096,1909.599,6213.188,1985.154,6177.428,1989.513z"/>
		<path id="_x31_80636429" fill="none" stroke="#010101" stroke-width="80" d="M5693.701,1798.71
			c58.168,73.236,190.283,156.993,284.249,149.676c74.73-5.815,144.587-35.757,211.736-68.914
			c126.071-62.25,180.695-168.803,286.856-228.54c45.703-25.718,99.271-21.742,99.271-21.742s38.261-201.435,43.184-244.347
			c0.213-3.168,0.307-5.847,0.267-7.974c-81.322-16.529-226.462,9.642-247.755,16.923c-41.963,14.347-87.855,38.758-120.412,69.792
			c-57.775,55.079-88.402,59.26-171.203,157.104c-35.554,42.014-98.699,66.043-159.709,58.986
			c-27.914-3.229-102.486-35.86-99.214-40.107c-27.789,36.067-54.419,71.826-85.255,106.963
			c-13.027,14.846-26.049,29.723-39.3,44.353C5694.514,1795.68,5693.521,1798.485,5693.701,1798.71z"/>
		<path id="_x31_80636428" fill="none" stroke="#010101" stroke-width="80" d="M6575.812,1629.19c0,0-0.682-0.05-1.955-0.104
			c-10.027-0.413-56.768-0.97-97.314,21.846c-106.161,59.737-160.786,166.288-286.856,228.54
			c-67.148,33.156-137.002,63.098-211.736,68.914c-93.966,7.317-226.081-76.439-284.249-149.676c-0.18-0.223,0.814-3.03,2.714-7.825
			c-20.06,22.146-40.654,43.714-62.642,63.705c-26.738,24.3-33.635,43.262-28.708,58.127c9.866,29.732,90.165,42.32,132.205,50.019
			c5.58,1.024,11.526,2.545,17.603,4.396l86.584,6.398l143.419,26.154c0,0,156.795-5.812,192.554-10.171
			c35.758-4.36,163.668-79.916,190.695-98.805c19.058-13.322,109.93-42.648,161.848-58.779
			c14.839-59.769,30.958-131.537,45.367-200.456L6575.812,1629.19z"/>
		<path id="_x31_80636412" fill="none" stroke="#010101" stroke-width="80" d="M7169.447,4705.639
			c-1.879,2.95-3.957,6.174-6.199,9.626c-26.328,41.98-69.799,106.515-109.865,165.133c-23.865,35.093-46.485,67.873-67.377,97.847
			c-5.268,7.604-9.922,14.311-13.803,19.903c-11.057,15.935-116.793,165.342-116.793,165.342s0.541,1.038,1.279,2.575
			c2.628,2.234,3.828,5.512,3.83,9.631c0.19,0.801,0.283,1.49,0.23,1.996c-0.055,0.528-0.159,1.116-0.284,1.729
			c49.624-23.587,232.594-79.155,296.54-139.038c73.766-69.086,168.297-159.357,264.063-258.312
			c-119.876-42.779-229.191-89.549-240.115-94.246C7177.109,4693.794,7173.272,4699.732,7169.447,4705.639z"/>
		<path id="_x31_80636410" fill="none" stroke="#010101" stroke-width="80" d="M6815.656,5406.402
			c24.133,28.674,75.061,43.58,115.618,37.488c20.452-3.071,49.575-11.926,69.3-21.626c18.102-8.899,23.717-13.606,36.889-28.954
			c41.377-48.215,100.043-75.459,157.502-94.609c34.461-11.484,69.74-20.393,105.35-26.994
			c99.481-18.451,201.447-26.627,297.678-60.738c27.711-9.817,49.439-17.363,86.036-40.736c13.868-8.857,20.68-21.254,32.199-32.682
			c1.673-30.498,126.271-63.203,150.649-82.545c75.655-60.033,108.775-98.778,117.488-107.978
			c56.176-59.311,98.291-128.276,117.521-157.179c-5.382,8.097-48.325,11.676-58.195,14.038
			c-20.456,4.895-40.896,9.856-61.371,14.647c-40.5,9.467-81.276,17.311-122.262,24.111c-41.586,6.91-82.616,8.969-124.575,11.101
			c-39.577,2.017-78.586-3.735-78.586-3.735c-30.71,18.864-63.273,38.281-93.511,57.953c-49.435,32.164-89.333,56.59-135.758,87.035
			c-52.777,34.596-96.08,62.852-139.5,86.471c-51.562,28.048-108.551,49.692-158.855,72.414
			c-108.338,48.93-258.11,80.027-316.838,198.826C6801.14,5375.562,6804.482,5393.131,6815.656,5406.402z"/>
		<path id="_x31_80636411" fill="none" stroke="#010101" stroke-width="80" d="M7037.463,5393.312
			c-13.17,15.35-18.787,20.055-36.889,28.956c-19.725,9.7-48.848,18.553-69.3,21.626c-40.558,6.088-91.485-8.816-115.618-37.49
			c-11.174-13.275-14.517-30.838-3.221-53.691c58.729-118.799,208.502-149.895,316.838-198.824
			c50.307-22.722,107.293-44.37,158.857-72.416c43.42-23.619,86.723-51.873,139.498-86.471
			c46.426-30.443,86.324-54.87,135.758-87.033c30.238-19.672,62.801-39.091,93.512-57.953c0,0,0.048,0.006,0.133,0.018
			c-15.691-2.541-32.844-6.122-51.041-10.534c-56.689-13.069-114.207-32.226-160.277-48.75c-8.246-2.865-16.471-5.767-24.646-8.679
			c-95.766,98.953-190.297,189.229-264.063,258.312c-63.946,59.882-246.914,115.45-296.539,139.037
			c-0.199,0.942-0.469,1.972-0.818,3.079c-2.995,12.837-13.402,30.688-27.116,49.822c-31.786,45.441-77.706,90.669-84.821,96.817
			c-1.354,1.167-2.733,2.294-4.13,3.399c-5.157,4.586-9.125,7.671-11.409,8.814c-2.831,1.414-5.696,2.863-8.592,4.328
			c-4.594,2.54-9.291,4.881-14.035,7.084c-34.791,17.424-72.836,34.557-107.223,30.078c-4.758-0.385-9.535-1.087-14.31-2.165
			c17.602,10.161,66.661,19.138,85.269,20.69c18.801,1.578,82.562,9.657,114.651,31.225c0.19,0.128,0.392,0.242,0.59,0.371
			c16.339,10.753,30.099,24.363,44.257,37.828c27.938,26.567,62.451,67.189,74.98,82.597
			c18.63-38.304,116.129-146.529,154.727-185.105C7053.615,5375.943,7045.233,5384.258,7037.463,5393.312z"/>
		<path id="_x31_80636408" fill="none" stroke="#010101" stroke-width="80" d="M7780.521,5149.457
			c83.199-17.617,109.597-36.704,156.714-66.549c15.063-9.541,68.757-55.446,80.812-68.168
			c9.518-10.048,27.963-30.369,27.963-30.369s29.301,18.6,38.197,25.998c17.748,14.776,34.786,30.203,49.738,48.258
			c17.803,21.488,23.639,60.054,5.554,83.365c-30.526,39.329-196.356,27.04-220.401,24.171
			C7865.531,5159.777,7842.85,5155.717,7780.521,5149.457z"/>
		<path id="_x31_80636409" fill="none" stroke="#010101" stroke-width="80" d="M7691.621,5163.442
			c1.02,20.096,5.041,40.429,9.232,60.009c5.138,24.018,14.536,48.125,11.34,73.246c-4.552,35.765-38.824,40.773-66.518,42.35
			c-21.212,1.204-118.057,7.191-145.197,12.259c-82.124,15.315-161.639,36.937-241.262,62.456
			c-22.811,7.311-45.693,14.438-68.877,20.342c-46.766,11.908-97.893,18.239-141.622,39.197
			c-32.282,15.466-126.835,71.623-134.804,88.702c-10.471-13.384,3.529,3.688-4.896-7.023
			c-7.076-9.004,80.493-109.402,89.503-118.913c28.262-29.834,48.788-61.322,78.497-81.182
			c66.858-44.717,145.845-68.807,223.294-83.175c99.481-18.448,201.447-26.624,297.678-60.735
			C7627.757,5200.424,7657.16,5187.299,7691.621,5163.442z"/>
		<path id="_x31_80636399" fill="none" stroke="#010101" stroke-width="80" d="M6715.259,4235.744
			c33.607-19.139,62.604-26.266,113.644-48.303c60.463-26.117,110.419-96.557,129.188-131.862
			c31.534-59.316,40.168-78.209,57.379-140.74l20.273-53.063c44.371-119.442,63.792-251.694,13.701-374.211
			c-9.021-22.08-19.49-41.597-29.602-62.702c-38.94-81.259-40.371-178.052-83.416-258.022
			c-36.353-67.537-84.862-133.106-138.822-185.937c0,0-131.865-108.73-188.375-176.392
			c-48.71-58.331-102.699-111.369-160.231-159.975l-38.683-35.201c-42.428,215.282-86.43,434.295-90.868,654.945
			c-2.232,111.308-8.009,224.87,15.249,334.386c15.916,75.004,41.244,147.977,63.655,221.3
			c19.896,65.074,22.476,134.734,45.681,198.405c11.302,31.018,30.504,66.966,51.608,85.141
			c20.841,17.953,30.429,29.538,65.803,55.808c35.374,26.271,39.73,35.707,56.478,45.43
			C6634.672,4214.471,6715.259,4235.744,6715.259,4235.744z"/>
		<path id="_x31_80636406" fill="none" stroke="#010101" stroke-width="80" d="M6716.25,3823.018
			c44.883,3.097,74.875-9.257,119.508,2.344c-22.272,96.251-72.575,120.832-134.27,183.012
			c-39.652,39.955-104.707,145.059-175.302,114.799c-84.19-36.087-99.732-147.705-110.328-228.455
			c-5.968-45.351-35.519-93.589-31.542-143.455C6499.757,3778.414,6604.055,3815.283,6716.25,3823.018z"/>
		<path id="_x31_80636407" fill="none" stroke="#010101" stroke-width="80" d="M6596.721,4146.215
			c-18.182,31.617,6.733,51.904,25.543,61.125c24.188,11.853,66.137,17.849,92.995,28.408c8.661-6.536,57.262-25.301,67.489-29.064
			c56.309-20.723,108.507-53.258,140.396-97.748c52.268-72.946,71.783-153.651,108.646-232.916
			c19.897-42.787,81.044-312.114,18.593-276.061c-31.09,17.95-117.812,166.531-132.925,190.048
			c-64.391,100.171-142.108,161.544-222.474,248.556c-36.51,39.527-46.336,56.749-81.58,88.08
			C6613.238,4126.796,6596.836,4146.016,6596.721,4146.215z"/>
		<path id="_x31_80636403" fill="none" stroke="#010101" stroke-width="80" d="M6716.591,3287.619
			c46.798-0.562,47.297,4.837,93.777-5.051c59.065-12.567,128.163-7.416,147.899-37.144c1.129-1.7,3.871-7.34,6.204-12.589
			c-7.235-23.951-16.044-47.26-28.149-69.211c-26.242-47.586-75.265-117.485-124.633-169.498l-0.283-0.39
			c0.117,54.841-43.119,72.813-91.248,72.965c-52.971,0.164-95.576-23.497-125.12-18.459c-21.86,3.727-36.569,23.181-43.019,79.663
			c-4.208,36.822-8.55,87.669-18.152,126.785l5.086,3.18C6564.688,3284.889,6680.387,3288.051,6716.591,3287.619z"/>
		<path id="_x31_80636404" fill="none" stroke="#010101" stroke-width="80" d="M7049.345,3484.332
			c-9.022-22.068-19.491-41.599-29.603-62.702c-28.186-58.808-36.309-126.015-55.269-188.796
			c-2.333,5.248-5.075,10.889-6.204,12.589c-19.736,29.728-88.83,24.579-147.898,37.142c-46.48,9.89-46.979,4.491-93.777,5.051
			c-36.205,0.432-151.903-2.727-177.639-29.748l-5.086-3.182c-1.329,5.418-2.758,10.617-4.305,15.516
			c-8.912,28.244-25.706,50.131-43.887,70.557l8.867,5.092c131.417,69.928,228.967,273.366,179.393,427.192l-5.008,13.121
			c50.947,12.308,104.283,13.836,154.793,2.712c84.097-18.519,119.537-94.62,176.991-167.019
			c20.095-25.327,44.29-69.519,47.624-101.235C7048.338,3520.627,7052.933,3493.108,7049.345,3484.332z"/>
		<path id="_x31_80636405" fill="none" stroke="#010101" stroke-width="80" d="M6494.547,3345.854l-8.867-5.093
			c-32.679,36.712-69.85,68.699-73.848,124.356c-11.871,165.254,113.077,286.252,257.1,321.051l5.008-13.121
			C6723.514,3619.221,6625.964,3415.783,6494.547,3345.854z"/>
		<path id="_x31_80636402" fill="none" stroke="#010101" stroke-width="80" d="M6448.898,2641.312
			c30.077,24.93,58.645,50.649,85.949,78.862c13.938,14.399,27.55,27.893,40.923,42.875c12.648,14.19,64.138,77.71,80.222,88.367
			c9.293,6.157,56.293,50.766,71.906,65.022c26.266,23.975,73.017,56.845,47.926,100.026
			c-25.442,43.788-116.914,17.367-153.466,6.935c-68.305-19.498-134.465-60.085-191.976-106.986
			c-74.505-60.753-39.364-162.889-30.783-249.904c0.701-7.134,13.728-54.433,10.717-57.172
			C6410.318,2609.338,6448.892,2641.308,6448.898,2641.312z"/>
		<path id="_x31_80636400" fill="none" stroke="#010101" stroke-width="80" d="M6396.736,3076.287
			c-1.402,18.269-4.814,44.567-6.124,62.839c-7.532,105.125,8.479,183.165,6.853,288.983
			c-1.082,70.302,12.607,136.75,34.312,196.286c12.524,34.346,30.39,101.922-22.637,98.6c-50.669-3.175-63.786-50.008-77-139.799
			c-16.418-111.569-16.604-215.867-14.332-328.175c1.702-84.903,9.09-160.805,21.713-244.65
			c2.688-17.853,6.436-65.962,10.965-83.344c14.367-55.131,41.385-43.774,58.228-2.751
			C6419.928,2951.59,6399.904,3035.082,6396.736,3076.287z"/>
		<path id="_x31_80636401" fill="none" stroke="#010101" stroke-width="80" d="M6415.812,3331.225
			c-24.643-32.794-14.498-144.089-10.925-182.37c5.897-63.251,24.661-180.281,111.979-148.339
			c67.067,24.62,10.741,129.4,4.377,176.069c-5.664,41.548-7.453,94.756-34.203,128.416
			C6452.328,3348.682,6429.954,3350.045,6415.812,3331.225z"/>
		<path id="_x31_80636376" fill="none" stroke="#010101" stroke-width="80" d="M4929.207,5646.312c0,0-0.977-431.363-0.977-431.549
			c0.021-12.736,201.654,0.803,215.715,2.432c30.154,3.494,61.454,2.148,91.181,9.152c30.267,7.126,60.251,14.752,79.983,35.389
			c-17.564,18.542-12.865,28.41-12.691,51.491c0.095,12.646,5.685,28.178,6.197,30.13c7.609,28.998,17.643,51.824,27.41,80.358
			c11.482,33.518,37.941,102.24,23.225,134.403C5309.623,5666.592,5013.209,5649.977,4929.207,5646.312z"/>
		<path id="_x31_80636377" fill="none" stroke="#010101" stroke-width="80" d="M4929.207,5646.312c0,0-0.977-431.363-0.977-431.549
			c0.021-12.736,201.654,0.803,215.715,2.432c30.154,3.494,61.454,2.148,91.181,9.152c30.267,7.126,60.251,14.752,79.983,35.389
			c-17.564,18.542-12.865,28.41-12.691,51.491c0.095,12.646,5.685,28.178,6.197,30.13c7.609,28.998,17.643,51.824,27.41,80.358
			c11.482,33.518,37.941,102.24,23.225,134.403C5309.623,5666.592,5013.209,5649.977,4929.207,5646.312z"/>
		<path id="_x31_80636378" fill="none" stroke="#010101" stroke-width="80" d="M6703.643,4242.775
			c-1.42,0.785-4.09,1.324-7.797,1.658l-45.031-16.334c-17.361-7.766-40.92-12.917-65.729-25.875
			c-24.809-12.957-65.807-58.414-91.869-76.57c-26.062-18.159-55.902-63.651-70.865-105.269
			c-23.139-64.354-25.57-128.577-51.247-193.849c-72.906-185.325-87.906-381.347-83.91-580.4
			c4.437-220.642,92.815-615.893,100.159-654.96c-1.929-1.867-2.031-4.137-0.495-2.883l31.733-113.989
			c-53.699-49.081-103.125-101.562-150.433-171.147c-32.24-47.416-68.173-114.265-92.38-133.918
			c-0.185-0.192-33.034-34.468-56.736-48.822c-40.816-27.491-150.225-49.233-170.895-55.84
			c-61.924-19.799-143.939-88.99-210.879-101.837c-82.6-15.854-194.918-22.888-344.572-48.6
			c-105.844-18.185-251.031-36.209-333.939,53.085c-37.349,40.228-30.449,108.347-57.159,157.439
			c-22.679,41.698-45.901,56.625-80.167,84.859l1.606,709.787c0.012,0,22.744,1.146,19.716,18.538
			c-9.172,52.745-14.662,93.768-12.654,160.161c2.078,68.554,9.66,338.774,4.498,341.716c-10.089,5.726-10.361,5.882-10.369,5.885
			l3.945,1745.727c12.097-12.771,201.654,0.805,215.717,2.43c30.152,3.496,61.519,1.854,91.172,9.152
			c85.973,21.171,98.98,48.685,109.748,45.718c39.296-10.836,122.398,15.314,151.486,32.738
			c28.328,16.979,44.482,24.026,82.004,48.585c-16.266-11.433-15.385-10.864,1.664,1.096c-0.554-0.364-1.121-0.737-1.664-1.096
			c2.529,1.78,5.131,3.495,7.79,5.148c19.143,11.911,39.766,29.223,54.315,38.429c42.82,27.125,80.448,44.525,128.773,60.836
			c93.271,31.496,192.193,45.388,289.354,33.824c309.014-36.752,577.888-345.713,694.264-636.68
			c27.087-67.718,45.332-138.596,65.43-212.096c22.639-82.795,45.75-178.729,74.24-261.424
			c5.693-16.523,14.107-42.391,24.084-73.203L6703.643,4242.775z"/>
		<path id="_x31_80636397" fill="none" stroke="#010101" stroke-width="80" d="M5194.996,2074.71
			c62.236-4.645,136.713-4.479,197.103,13.882c54.523,16.582,104.862,30.908,162.829,34.038
			c135.346,7.31,293.521,17.775,417.242,81.545c33.428,17.229,70.559,35.271,102.047,56.618c-2.562-9.372-4.291-21.039-4.33-33.19
			c-0.745-6.899-0.904-13.504-0.283-19.112c1.46-13.284,8.271-27.059,17.666-36.812c3.775-4.263,8.266-7.954,13.57-10.866
			c9.173-5.042,24.91-9.145,39.479-8.749c-22.636-7.981-70.032-21.825-81.149-24.081c-53.814-10.932-107.992-17.782-161.623-30.226
			c-105.213-24.415-212.179-49.92-318.336-68.979c-117.99-21.187-348.395-50.545-413.156-50.39
			c-31.574,0.075-86.961,2.172-126.514,19.327c-9.895,23.145-14.098,49.98-20.176,75.942
			C5070.18,2090.271,5180.348,2075.804,5194.996,2074.71z"/>
		<path id="_x31_80636398" fill="none" stroke="#010101" stroke-width="80" d="M5579.211,2028.776
			c106.156,19.061,213.123,44.564,318.336,68.979c53.629,12.444,107.807,19.294,161.623,30.226
			c11.117,2.257,58.512,16.1,81.149,24.081c11.224,0.306,21.757,3.283,28.065,10.568c-25.472-29.425-58.523-50.197-93.645-64.41
			c-58.75-23.78-129.254-26.055-182.667-61.109c-61.024-40.049-130.032-71.044-201.418-82.8
			c-23.031-3.794-46.079-6.385-69.189-9.424c-76.3-10.03-152.839-17.705-228.768-30.751
			c-105.845-18.185-251.03-36.21-333.938,53.086c-8.312,8.955-14.432,19.292-19.219,30.494
			c39.554-17.155,94.939-19.252,126.516-19.328C5230.816,1978.231,5461.221,2007.59,5579.211,2028.776z"/>
		<path id="_x31_80636387" fill="none" stroke="#010101" stroke-width="80" d="M5774.262,4968.951
			c15.064-17.041,179.035-187.562,238.312-228.178c56.854-38.963,118.138-70.3,176.715-106.191
			c46.269-28.354,82.023-70.628,117.572-111.898c37.33-43.33,78.773-76.561,126.9-106.066
			c58.871-36.098,124.028-67.253,187.195-94.121l-4.197,22.148c-1.491,57.028,48.039,121.344,67.363,168.915
			c42.185,103.876,36.3,217.761-16.246,316.031c-66.491,124.367-143.145,229.901-252.928,316.356
			c-184.879,145.579-394.719,227.33-623.561,156.601c-73.096-22.606-118.086-60.522-98.833-148.583
			c11.819-54.079,61.906-90.516,82.833-140.865c7.104-17.106,19.028-45.389-4.658-39.973l1.908-0.083L5774.262,4968.951z"/>
		<path id="_x31_80636385" fill="none" stroke="#010101" stroke-width="80" d="M5294.176,4366.84
			c-16.004-10.334-128.849-100.023-145.324-114.975c-25.508-23.137-52.699-45.71-86.615-52.312
			c-16.605-3.238-36.449-0.784-49.514,11.063c-15.288,13.866-17.32,36.632-15.148,56.421c4.461,40.637,33.135,73.855,43.119,112.715
			c20.268,78.867-13.555,189.609,26.109,196.67c36.904,6.572,64.48,20.011,89.93,40.131c33.683,26.629,63.51,60.422,81.369,101.307
			c30.607,70.063,10.332,148.396,25.462,221.344c16.708,80.568,97.956,138.562,154.379,191.658
			c18.809,17.695,77.767,78.468,97.652,103.934c39.575,50.682,115.031-93.418,136.903-129.866
			c16.855-28.079,62.877-72.729,62.877-72.729c17.954-22.939,51.252-60.456,51.252-60.456s-62.541,12.027-79.12-22.035
			c-22.321-45.852,35.513-75.882,44.115-111.311c11.198-46.125-23.429-122.058-47.321-159.71
			c-34.602-54.519-101.814-11.504-142.537-24.058c-56.525-17.422-55.934-84.236-45.55-105.43
			c9.865-20.131-42.232-50.832-57.042-66.607C5415.612,4457.502,5301.97,4371.86,5294.176,4366.84z"/>
		<path id="_x31_80636380" fill="none" stroke="#010101" stroke-width="80" d="M6519.463,4146.447
			c-9.518-8.602-18.534-16.366-26.246-21.732c-26.062-18.16-55.902-63.654-70.865-105.27
			c-16.666-46.359-24.688-104.173-34.416-148.977c-10.771-49.576-35.29-82.017-50.48-132.658
			c-11.684-38.947-16.642-78.766-22.549-118.928c-0.913-6.222-15.017-24.461-28.148-26.338
			c-14.362-2.05-27.883,12.674-29.541,15.435c-15.082,25.108-37.448,50.472-70.428,79.439
			c-70.008,61.497-156.721,63.142-217.457,0.549c-86.178-88.813-135.178-162.679-161.106-279.27
			c-1.173-5.269-15.973-42.604-42.123-58.325c-26.449-15.9-64.3-10.134-73.912-5.615c-92.274,43.322-206.712,40.258-302.032,4.793
			c-9.733-3.621-66.523-25.461-98.51-1.055c-21.525,16.424-32.608,78.815-33.912,88.206c-5.796,41.736-20.596,83.009-34.428,120.574
			c-3.521,9.562-11.428,53.797-9.319,70.861c2.198,17.807,14.487,42.729,18.134,48.247c26.502,40.105,17.955,116.7-12.739,151.721
			c-13.468,15.367-26.47,17.74-40.8,18.556c0,0-39.756,2.761-55.748,19.972c-17.389,18.71-27.051,55.738-28.896,67.786
			c-6.922,45.24-17.275,89.967-35.947,136.735c-2.34,5.865-10.658,53.88,2.647,92.093c10.227,29.368,41.49,51.023,47.618,55.035
			c14.395,9.412,27.709,20.955,40.594,32.643c16.477,14.956,129.322,104.641,145.324,114.973
			c7.794,5.023,121.438,90.665,144.992,115.752c3.605,3.84,41.469,27.547,62.164,25.142c5.131-0.599,10.216-1.99,15.082-3.839
			c-22.134,38.561-32.889,80.581-16.73,114.496c31.389,65.809,112.639,37.322,159.779,11.053
			c8.473-4.721,16.953-9.484,25.435-14.281c-5.72,5.367-13.593,15.602-14.751,25.859c-1.598,14.135,8.35,28.526,14.152,37.664
			c17.586,27.716,40.996,76.181,47.652,118.223c0.913,5.76,7.928,22.665,16.383,24.332c13.676,2.703,30.94-12.188,30.94-12.188
			l27.594-22.771c103.238-91.903,217.927-168.201,329.31-249.003c75.883-55.033,137.413-128.798,213.063-184.198
			c42.569-31.174,96.479-71.957,153.163-99.223c12.704-6.113,39.963-28.998,42.021-52.123
			C6546.687,4175.307,6522.907,4149.557,6519.463,4146.447z M5388.068,4249.617c-52.43-113.676,69.612-279.127,180.295-268.635
			c91.738,8.708,248.055,149.123,191.404,257.274c-32.265,61.578-89.633,143.235-155.789,148.802
			C5511.516,4394.824,5426.51,4332.966,5388.068,4249.617z"/>
		<path id="_x31_80636382" fill="none" stroke="#010101" stroke-width="80" d="M5726.248,3104.891
			c-82.244-67.362-194.855-136.282-295.837-165.127c-6.954-1.988-13.827-4.204-20.644-6.574c1.572,0.164,3.113,0.313,4.643,0.451
			l-11.03-2.732c-73.454-26.849-139.966-72.828-215.832-92.478c-39.409-10.21-70.565-19.673-104.879-21.414
			c-46.728,13.933-130.159,6.597-155.396,2.049c64.309,13.062,101.234,8.794,164.396,31.75
			c47.331,17.204,154.782,72.17,131.871,146.206c-5.298,17.131-14.9,34.72-29.062,45.375c-6.856,5.15-14.96,7.406-22.155,11.841
			c-7.906,4.87-11.77,12.31-16.062,20.474c-1.703,3.237-2.148,10.98-0.798,21.914c1.188-10.884,6.24-19.128,16.812-22.982
			c17.758-6.479,43.874,7.06,70.332,30.464c59.705,52.82,114.897,156.091,97.607,183.474c-12.689,20.091-38.441,14.106-63.156,0.266
			c6.232,4.588,12.736,9.057,19.562,13.37c20.947,13.237,42.57,27.086,64.984,37.411c100.275,46.214,228.893,54.814,330.589,7.066
			c31.054-14.594,52.567-40.845,70.456-71.354l16.561-52.797C5783.91,3179.695,5767.036,3138.296,5726.248,3104.891z"/>
		<path id="_x31_80636383" fill="none" stroke="#010101" stroke-width="80" d="M5340.211,3287.581
			c17.29-27.382-37.902-130.654-97.605-183.476c-26.459-23.404-52.576-36.941-70.334-30.463
			c-10.569,3.855-15.623,12.1-16.813,22.983c5.085,41.242,35.788,128.044,121.599,191.22
			C5301.771,3301.687,5327.521,3307.672,5340.211,3287.581z"/>
		<path id="_x31_80636396" fill="none" stroke="#010101" stroke-width="80" d="M6158.732,2668.785
			c-14.605-38.045-58.164-71.511-98.997-97.72c-64.579-41.438-148.681-121.274-141.317-210.242
			c3.094-37.395,25.311-69.175,53.896-91.556c18.567-14.533,59.431-20.98,104.073-1.605c-0.771-2.11-1.5-4.41-2.17-6.867
			c-31.488-21.349-68.619-39.388-102.047-56.619c-123.721-63.77-281.896-74.235-417.242-81.545
			c-57.965-3.129-108.304-17.456-162.829-34.037c-60.39-18.361-134.866-18.528-197.103-13.882
			c-14.648,1.093-124.814,15.561-175.631-1.054c-4.197,17.917-9.287,35.418-17.765,51.001c-5.236,9.624-10.502,17.812-15.924,25.077
			c17.145,2.258,43.287,34.544,57.056,42.984c69.009,42.299,146.721,77.229,224.807,93.33
			c64.282,13.256,125.418,44.198,189.965,58.411c96,21.14,177.064,45.188,258.043,105.2
			c72.861,54.001,137.717,121.19,217.287,164.767c36.391,19.923,72.475,49.774,109.853,66.236
			c32.747,14.421,74.915,11.962,109.708,14.446l8.733,0.068C6162.74,2686.711,6162.245,2677.931,6158.732,2668.785z"/>
		<path id="_x31_80636395" fill="none" stroke="#010101" stroke-width="80" d="M6152.391,2695.108
			c-34.789-2.484-76.961-0.023-109.708-14.447c-37.376-16.462-73.462-46.314-109.852-66.236
			c-79.571-43.575-144.425-110.765-217.288-164.767c-80.98-60.014-162.041-84.062-258.043-105.198
			c-64.545-14.213-125.683-45.155-189.965-58.412c-78.086-16.1-155.797-51.03-224.807-93.328
			c-13.77-8.442-39.91-40.727-57.056-42.985c-18.067,24.21-37.886,38.067-64.241,59.782l0.513,226.429h0.007
			c110.036-0.281,239.252-19.801,340.679,34.972c86.634,46.788,160.298,102.507,210.634,192.188
			c32.611,58.11,81.66,136.36,52.667,203.688c-26.411,61.361-54.847,72.693-115.564,66.456c6.943,2.317,16.984,5.64,20.041,6.514
			c100.981,28.844,213.591,97.767,295.837,165.127c40.788,33.406,57.662,74.805,52.957,116.656l-16.562,52.795
			c25.484-43.466,43.609-95.58,71.467-135c89.463-126.635,176.151-239.113,269.299-362.594
			c18.582-24.631,51.889-51.048,57.716-81.571L6152.391,2695.108z"/>
		<path id="_x31_80636394" fill="none" stroke="#010101" stroke-width="80" d="M5525.935,2866.792
			c28.993-67.328-20.056-145.578-52.667-203.688c-50.336-89.684-124.001-145.4-210.634-192.189
			c-101.424-54.771-230.644-35.252-340.679-34.971h-0.008l0.667,294.483c36.353,3.677,188.757,9.16,192.396,54.506
			c1.281,16.001-12.082,26.039-32.344,32.082c34.312,1.739,65.471,11.202,104.88,21.411
			c75.868,19.652,142.378,65.631,215.832,92.479c0,0,2.981,1.003,6.991,2.343C5471.09,2939.485,5499.525,2928.155,5525.935,2866.792
			z"/>
		<path id="_x31_80636379" fill="none" stroke="#010101" stroke-width="80" d="M4926.039,4245.578
			c51.188-21.502,111.15-121.367,131.955-173.486c22.571-56.544,28.729-96.431,37.588-147.892c1.795-10.425,5.4-18.407,7.404-23.227
			c4.457-10.719,6.296-16.056,13.812-25.657c10.509-13.428,7.79-10.16,22.874-19.049c8.885-5.235,56.444-6.114,68.023-16.492
			c24.131-21.641,31.117-44.49,34.689-57.355c5.096-18.361,8.604-51.783,2.845-71.477c-9.608-32.867-28.944-58.747-30.173-75.799
			c-1.295-17.973-1.295-17.973,0.408-36.536c0.297-3.247,1.242-22.449,5.012-32.698c28.305-76.949,63.949-167.702,18.391-250.345
			c-28.141-51.037-72.779-91.458-100.893-143.423c-21.872-40.434-11.156-91.277-28.488-133.614
			c-20.193-49.294-60.837-90.63-105.15-115.326c-21.16-11.797-46.664-30.633-81.35-27.942L4926.039,4245.578z"/>
		<path id="_x31_80636381" fill="none" stroke="#010101" stroke-width="80" d="M5127.739,3635.145
			c-27.56,8.688-33.099,11.236-39.939,50.588c-3.906,22.46,22.417,91.648,22.605,88.26c0.526,1.281,0.981,2.45,1.333,3.467
			c14.434,41.689,68.143,96.657,107.646,51.584c38.533-43.965,42.163-153.45-14.64-174.007c-7.012-2.538-18.603-8.317-32.374-15.276
			C5173.329,3638.943,5139.064,3631.574,5127.739,3635.145z"/>
		<path id="_x31_80636391" fill="none" stroke="#010101" stroke-width="80" d="M6287.221,3257.847
			c-1.039,51.771-2.162,103.583-0.941,155.367c2.973,127.24,1.783,188.793-103.193,281.009
			c-70.01,61.499-158.603,53.385-219.339-9.211c-94.014-96.887-138.195-172.093-162.033-308.28
			c-15.099-86.318,20.569-171.626,72.093-241.192c66.506-89.795,137.995-177.185,201.822-268.871
			c49.629-71.286,107.764-154.515,201.807-124.836c86.088,27.175,50.252,162.485,40.4,225.911
			C6302.956,3063.456,6289.172,3160.747,6287.221,3257.847z"/>
		<path id="_x31_80636393" fill="none" stroke="#010101" stroke-width="80" d="M6176.789,2395.086
			c4.113,15.301,3.505,31.764,6.943,47.23c3.873,17.422,10.602,35.272,22.876,48.068c11.296,11.771,30.372,19.781,45.022,25.682
			c19.118,7.706,39.822,9.35,57.655,20.633c14.606,9.247,32.235,25.52,39.369,42.108c5.533,12.867,7.952,32.944,4.164,46.741
			c-31.064,112.986-202.757-10.84-245.722-50.183c-30.521-27.946-68.305-49.315-96.479-80.245
			c-34.151-37.473-72.997-100.674-61.401-155.136c9.333-43.846,64.668-64.473,103.125-56.584
			c38.15,7.826,75.684,29.28,102.87,60.626C6169.829,2360.885,6173.273,2382.014,6176.789,2395.086z"/>
		<path id="_x31_80636389" fill="none" stroke="#010101" stroke-width="80" d="M5388.068,4249.617
			c-52.43-113.676,69.612-279.127,180.295-268.635c91.738,8.708,248.055,149.123,191.404,257.274
			c-32.265,61.578-89.633,143.235-155.789,148.802C5511.516,4394.824,5426.51,4332.966,5388.068,4249.617z"/>
		<path id="_x31_80636392" fill="none" stroke="#010101" stroke-width="80" d="M4925.445,3982.498
			c24.848,33.711,38.889,75.345,44.275,117.69c6.802,53.501-8.177,107.909-43.682,145.393"/>
		<path id="_x31_80636388" fill="none" stroke="#010101" stroke-width="80" d="M6648.582,4280.943l42.57-29.91
			c-111.115-72.428-254.363,38.469-345.568,105.259c-75.651,55.403-137.18,129.165-213.064,184.202
			c-135.566,98.342-276.031,190.018-394.791,311.28c-21.115,21.548-63.727,49.515-58.46,86.112
			c6.603,45.902,60.523,42.564,93.366,35.157l-1.908,0.083l3.535-4.174c15.062-17.04,179.035-187.563,238.309-228.178
			c56.855-38.961,118.141-70.299,176.716-106.191c46.271-28.354,82.024-70.628,117.573-111.898
			c37.329-43.33,78.773-76.561,126.9-106.064c58.871-36.1,124.029-67.255,187.195-94.121L6648.582,4280.943z"/>
		<path id="_x31_80636390" fill="none" stroke="#010101" stroke-width="80" d="M4925.037,4621.038
			c56.012,21.536,130.336,103.165,91.06,142.081c-31.058,0.742-62.027-16.569-88.944-28.829L4925.037,4621.038z"/>
		<path id="_x31_80636386" fill="none" stroke="#010101" stroke-width="80" d="M4927.201,4755.77
			c56.506,22.025,116.199,47.685,157.215,94.578c41.119,47.006,62.428,129.318,34.686,187.505
			c-34.057,71.412-113.496,129.021-188.489,131.886L4927.201,4755.77z"/>
		<path id="_x31_80636384" fill="none" stroke="#010101" stroke-width="80" d="M4921.455,4269.557
			c55.271,24.865,89.947,87.173,98.197,145.642c8.006,56.745,11.475,245.465-95.574,193.147L4921.455,4269.557z"/>
		<path id="_x31_80636519" fill="none" stroke="#010101" stroke-width="80" d="M5803.42,1116.502
			c25.521-23.417,62.01-29.682,98.889-27.9c33.088,1.558,66.487,9.518,92.525,17.341c89.721,26.878,182.477,47.422,276.027,58.823
			c111.475,13.467,226.913,37.78,339.609,66.943c62.934,16.244,124.978,34.128,185.016,52.413
			c95.449,29.127,190.547,65.755,280.232,110.911c30.367,15.232,60.584,30.388,90.654,45.542
			c169.849,85.57,334.795,173.261,480.432,302.086c45.742,40.424,81.322,94.387,119.795,141.857
			c27.211,33.597,57.312,62.732,84.299,96.252c57.41,71.325,114.98,149.834,169.439,232.259
			c66.47,100.671,128.269,207.369,179.361,314.094c21.364,44.624,40.869,89.253,58.066,133.498
			c27.37,70.464,56.969,139.749,83.296,210.138c29.32,77.723,54.625,156.627,68.865,239.622c2.412,14.209,4.82,28.34,7.16,42.395
			c23.889,141.942,42.929,277.96,47.048,422.452c0.236,5.546,0.396,11.012,0.482,16.561c1.42,68.655,1.277,137.703-0.273,206.678
			c-0.674,31.168-1.646,62.335-2.839,93.426c-0.909,24.527-2.787,49.216-5.335,73.903c-1.235,12.187-2.693,24.378-4.304,36.564
			l-2.377-0.071c0,0-0.223,1.095-0.515,3.281c-0.447,0.002-0.818,0.081-1.262,0.083c-0.288,4.374-0.649,8.67-1.015,13.046
			c-10.127,58.059-46.107,256.859-86.943,378.892c-31.694,88.42-70.677,175.61-111.679,257.339
			c-5.254,10.401-10.51,20.727-15.84,30.971c-0.812,1.643-1.701,3.285-2.59,5.007c-3.332,6.491-6.736,12.981-10.217,19.397
			c-3.627,6.961-7.404,13.922-11.104,20.883c-5.627,10.481-11.328,21.039-17.031,31.52c-0.295,0.469-0.516,0.939-0.812,1.408
			c-42.806,72.672-112.521,180.481-122.75,193.942c-0.148,0.235-0.298,0.473-0.521,0.705c-0.147,0.156-0.221,0.313-0.37,0.47
			c0,0.078-0.073,0.078-0.073,0.154c0,0.08-0.072,0.08-0.148,0.16c-6.672,8.449-13.566,16.75-20.537,24.891
			c-0.076-0.078-0.076-0.078-0.076-0.078s-16.166,17.928-26.029,28.418c-1.038,1.098-2.076,2.192-3.189,3.21
			c-12.165,12.374-51.863,46.528-71.753,61.421c-0.888,0.705-1.708,1.331-2.597,1.881c-1.189,0.859-2.376,1.725-3.637,2.587
			c-0.521,0.313-1.041,0.704-1.558,1.018c-11.731,7.452-22.272,14.273-32.666,20.548c-0.521,0.393-1.114,0.707-1.636,0.943
			c-12.029,6.982-24.502,13.497-37.5,19.541c-1.336,0.629-2.748,1.18-4.158,1.809c-1.19,0.55-2.676,1.1-4.383,1.807
			c-10.176,3.773-28.005,9.836-47.694,15.193c-2.228,0.555-4.46,1.186-6.688,1.738c-6.91,1.658-14.191,3.316-21.994,4.977
			c0.073,0,0.15,0,0.223,0c-34.258,6.881-65.553,7.742-64.484-11.867c1.641-30.465,126.242-64.136,150.662-82.551
			c173.967-131.272,275.615-319.459,368.619-517.467c26.266-55.992,44.645-115.088,67.71-172.48
			c42.956-106.648,54.607-214.076,74.653-324.186c21.297-116.748,5.609-248.713,1.032-366.646
			c-4.496-113.324-21.256-226.388-46.487-336.689c-23.648-103.357-40.92-210.869-74.973-311.155
			c-61.295-180.356-104.405-372.238-205.731-534.138c-80.882-129.223-167.12-260.073-266.405-374.643
			c-154.447-178.247-225.826-247.271-397.326-372.672c-86.533-63.206-174.755-149.92-269.799-197.483
			c-48.676-24.403-100.088-41.847-148.988-66.017c-105.689-52.301-227.631-92.219-349.957-104.562
			c-0.147-0.079-0.297-0.079-0.445-0.077c-35.107-7.099-82.092-6.199-125.797-2.338c-0.596,0.001-1.189,0.081-1.783,0.161
			c-22.301,1.541-44.521,4.251-66.371,8.291c-0.075-0.078-0.15-0.078-0.225,0c-26.455,4.206-46.221,8.551-53.131,10.913
			c-6.165,2.124-12.48,4.484-18.793,7c-20.949,7.083-39.811,17.206-57.477,29.045c-0.148,0.079-0.297,0.157-0.443,0.313
			c-15.963,9.96-30.807,21.168-43.717,33.385c-0.221,0.234-0.443,0.392-0.74,0.626c-13.431,11.283-26.712,22.876-40.367,34.08
			c-13.434,10.345-26.719,20.064-39.557,30.017c-0.225,0.157-0.447,0.313-0.595,0.469c-2.374,1.646-4.679,3.371-6.903,5.094
			c-6.606,5.173-12.912,10.734-19.069,16.608c-1.483,1.487-3.042,2.897-4.526,4.384c-6.157,5.796-12.016,11.905-17.577,18.558
			c-0.593,0.626-1.112,1.174-1.633,1.8c-9.493,10.491-18.835,21.294-28.328,31.784c-1.261,1.408-2.521,2.819-3.855,4.149
			c-19.21,19.81-40.134,38.454-62.406,52.178c-0.073,0.079-0.221,0.157-0.296,0.234c-0.223,0.078-0.445,0.158-0.668,0.313
			c-37.802,18.295-77.795,20.661-113.418,14.424c-0.074,0-0.074,0-0.146,0c-22.762-4.395-45.082-12.539-65.478-23.737
			c-8.115-4.9-15.71-10.426-22.565-16.58c-0.074,0-0.592,0.47-1.409,1.41c-0.595-0.39-1.192-0.779-1.714-1.245
			c-17.946-13.312-33.447-29.129-45.307-46.987c-15.219-22.926-25.235-47.348-31.464-72.64
			c-18.605-74.703-4.892-157.378,0.142-233.392c2.442-37.107,7.574-69.224,19.4-100.185c6.355-17.122,14.791-33.779,25.906-50.914
			C5792.888,1127.307,5797.93,1121.437,5803.42,1116.502z"/>
		<path id="_x31_80636520" fill="none" stroke="#010101" stroke-width="80" d="M5586.091,5335.102
			c-19.753-12.305-36.759-29.655-39.911-51.751c-4.824-34.022,60.301-95.45,75.711-125.251
			c24.266-46.912,47.974-84.628,88.02-120.338c16.047-14.305,45.503-65.469,64.377-69.773c23.686-5.414,11.768,24.99,4.662,42.093
			c-20.928,50.353-71.019,84.668-82.838,138.747c-19.25,88.058,24.355,127.438,97.455,150.046
			c228.842,70.728,441.15-11.353,626.029-156.929c109.783-86.457,186.066-192.379,252.557-316.742
			c52.546-98.271,57.715-212.9,15.531-316.775c-27.1-66.705-112.406-165.119-34.371-231.402
			c51.131-43.41,115.634-63.695,175.59-89.582c60.463-26.119,93.404-77.23,129.81-133.036
			c37.284-57.136,54.099-130.895,77.862-194.874c44.373-119.457,62.861-252.686,12.771-375.199
			c-9.022-22.068-19.491-41.601-29.603-62.702c-38.938-81.248-39.58-178.516-83.416-258.008
			c-28.768-52.163-84.907-131.137-138.869-183.973c-62.277-60.979-131.818-110.699-188.326-178.364
			c-48.709-58.329-102.701-111.368-160.232-159.974c-49.653-41.948-103.041-94.677-164.426-114.357
			c-33.815-10.841-73.296-20.103-90.707-56.067c-19.082-39.411-9.336-89.532-35.547-126.11
			c-22.193-30.958-63.347-44.615-79.327-80.777c-30.672-69.408,16.171-133.947,90.456-98.978
			c23.929,11.263,63.579,86.309,98.813,138.131c105.95,155.851,222.521,225.92,374.014,364.1
			c107.767,98.305,236.778,257.296,357.827,398.326c26.176,30.498,50.458,67.279,71.242,102.095
			c21.654,36.231,42.502,70.604,58.143,110.06c9.332,23.548,19.869,47.182,25.479,72.172c10.355,46.208,17.019,90.415,15.88,138.261
			c-1.393,58.462-9.746,117.585-22.303,174.587c-8.194,37.199-19.051,76.449-32.504,111.92
			c-9.795,25.834-16.405,53.094-29.199,77.614c-10.814,20.722-39.981,80.771-44.36,90.095
			c-9.176,19.552-42.594,94.116-51.46,119.003c-35.754,100.373-80.551,244.644-98.455,296.606
			c-28.488,82.695-51.601,178.629-74.24,261.424c-20.098,73.5-38.341,144.378-65.43,212.097
			c-116.376,290.966-385.252,599.925-694.266,636.681c-97.159,11.563-196.081-2.33-289.352-33.828
			c-48.327-16.307-85.951-33.711-128.775-60.834C5625.856,5364.325,5605.233,5347.016,5586.091,5335.102z"/>
		<path id="_x31_80636521" fill="none" stroke="#010101" stroke-width="80" d="M4922.985,2895.262
			c49.7-1.35,91.352,34.014,129.474,64.113c28.787,22.724,53.912,76.417,87.149,89.338c69.694,27.095,110.456-71.114,69.224-120.592
			c-37.062-44.469-105.561-78.808-160.175-89.757c-43.212-8.663-82.834-9.942-125.845-20.217L4922.985,2895.262z"/>
		<path id="_x31_80636522" fill="none" stroke="#010101" stroke-width="80" d="M5056.139,4577.076
			c3.091-0.373,6.459-0.443,10.127-0.146c72.178,5.674,137.59,70.443,169.093,135.203c34.048,69.997,14.728,149.382,32.023,224.649
			c24.872,108.159-54.476,137.22-115.358,208.595c-25.438,29.818-118.965,61.617-95.109-13.705
			c8.75-27.645,39.113-51.803,54.255-75.979c69.999-111.796-36.407-207.771-63.351-310.538
			C5039.121,4711.955,4995.264,4584.354,5056.139,4577.076z"/>
		<path id="_x31_80636523" fill="none" stroke="#010101" stroke-width="80" d="M5888.899,4351.676
			c18.757-4.824,37.565-8.742,56.241-11.582c55.355-8.453,121.938,7.808,53.002,65.344
			c-102.996,85.949-221.668,157.846-338.682,223.068c-47.141,26.266-128.389,54.756-159.777-11.053
			c-37.416-78.535,49.407-142.98,107.76-164.806c53.97-20.198,109.562-35.227,161.732-58.624
			C5807.018,4377.053,5847.83,4362.229,5888.899,4351.676z"/>
		<path id="_x31_80636524" fill="none" stroke="#010101" stroke-width="80" d="M5305.715,5020.393
			c43.479,45.451,99.475,96.76,112.226,110.469c70.633,75.887,135.394,129.984,102.544,140.338
			c-60.746-11.564-128.768-30.8-177.814-72.238c-33.274-28.103-60.184-43.129-93.749-91.203
			C5222.553,5069.984,5287.275,5001.109,5305.715,5020.393z"/>
		<path id="_x31_80636525" fill="none" stroke="#010101" stroke-width="80" d="M4920.138,2730.159
			c31.221,3.701,191.144,8.311,194.874,54.775c4.445,55.519-167.369,39.279-192.199,33.212L4920.138,2730.159z"/>
		<path id="_x31_80636518" fill="none" stroke="#010101" stroke-width="80" d="M4930.104,3098.005
			c-2.01-66.394,3.48-107.416,12.655-160.163c3.025-17.393-19.711-18.538-19.718-18.538l1.19,526.302
			c0.005-0.003,0.248-0.138,10.368-5.884C4939.763,3436.781,4932.181,3166.559,4930.104,3098.005z"/>
	</g>
</g>
</svg>
