<svg width="9744" height="7584" xmlns="http://www.w3.org/2000/svg">
<g transform="scale(1.0)">
<g id="180624123" order="1" parent_id="" graphic_group_label_id="28" graphic_group_label="Atlas - Adult Mouse" sub_image_id="100960324" transform=" scale(1.0, 1.0)"><path id="180624125" parent_id="180624123" order="0" structure_id="8" d="M4944.253,6231.787
			c144.263,192.318,633.672,231.329,858.481,374.4c132.432,84.297,180.517,209.574,303.758,269.883
			c302.771,148.156,653.854,170.67,952.871-27.66c203.463-134.941,348.83-284.133,411.146-380.03
			c62.315-95.882,51.565-162.479,149.026-241.171c234.951-189.709,386.062-170.285,578.848-396.203
			c430.494-504.518,751.141-1288.068,873.383-1944.427c70-375.811-30.895-754.415-122.586-1058.755
			c-104.918-348.205-181.715-603.3-458.507-924.496c-493.468-572.608-1194.205-765.194-1908.491-941.722
			c-318.719-78.763-791.799-211.716-1123.316-166.521c-154.25,21.013-514.612,205.654-514.612,416.319
			c0,0.407,0.188,1116.871,0.188,1462.845L4944.253,6231.787z" style="stroke:black;fill:#bfdae3"/><path id="180624126" parent_id="180624123" order="1" structure_id="688" d="
			M4944.249,1211.361c2.832-213.502,360.401-395.218,514.621-416.242c331.507-45.221,804.575,87.687,1123.34,166.447
			c714.226,176.542,1414.959,369.186,1908.429,941.778c276.795,321.212,353.656,576.265,458.578,924.509
			c91.684,304.275,192.525,682.89,122.576,1058.75c-122.242,656.358-442.922,1439.866-873.439,1944.379
			c-192.773,225.935-343.83,206.494-578.823,396.219c-2.249,1.752-20.817,18.188-20.817,18.188s-168.293-89.939-251.398-161.689
			c-83.105-71.836-174.871-161.524-149.057-221.847c32.31-75.506,166.211-326.554,260.808-421.331
			c94.515-94.695,271.134-349.997,332.422-488.076c45.8-103.372,82.522-196.482,83.104-198.066
			c42.637-65.412,124.908-381.951,84.521-793.854c-35.141-358.34-288.371-795.606-368.229-917.333
			c-131.82-200.987-180.535-267.064-355.322-407.73c-102.508-82.515-221.67-132.24-340.999-172.287
			c-168.043-56.233-295.532-89.939-461.41-147.842c-184.78-64.492-546.599-221.011-641.86-104.791
			c-144.728,176.542-158.717,309.783-441.342,410.568c-135.982,48.475-280.793,77.508-405.535,53.146L4944.249,1211.361z" style="stroke:black;fill:#b0ffb8"/><path id="180624208" parent_id="180624123" order="2" structure_id="320" d="M6933.535,1051.84l-32.643,124.563
			c-71.114-23.111-142.896-44.637-216.258-62.24c-213.676-51.145-432.35-86.437-642.11-152.847
			c-38.056-12.016-81.856-24.112-129.321-34.875l5.162-112.968c234.494,36.46,475.983,101.704,663.846,148.093
			C6699.957,990.684,6817.37,1020.219,6933.535,1051.84z" style="stroke:black;fill:#1f9d5a"/><path id="180624207" parent_id="180624123" order="3" structure_id="943" d="M6900.893,1176.403
			l-80.023,305.193c-19.984-10.846-39.971-21.858-60.039-33.039c-106.755-59.569-242.072-88.604-384.301-137.246
			c-162.63-55.648-316.434-105.708-474.4-143.419l11.076-241.452c47.465,10.764,91.266,22.86,129.32,34.875
			c209.762,66.411,428.436,101.703,642.109,152.848C6757.997,1131.768,6829.777,1153.292,6900.893,1176.403z" style="stroke:black;fill:#1f9d5a"/><path id="180624206" parent_id="180624123" order="4" structure_id="648" d="M6820.868,1481.597l-114,434.931
			c-152.888-75.506-309.771-142.668-465.99-204.158c-89.101-35.125-226.083-101.954-357.569-134.325l18.819-410.15
			c157.967,37.711,311.771,87.77,474.399,143.419c142.229,48.641,277.547,77.675,384.301,137.246
			C6780.896,1459.738,6800.883,1470.751,6820.868,1481.597z" style="stroke:black;fill:#1f9d5a"/><path id="180624205" parent_id="180624123" order="5" structure_id="844" d="M6706.868,1916.527
			l-102.591,391.462c-184.447-62.824-331.423-123.229-519.201-181.132c-64.619-19.855-153.471-61.154-223.585-73.586l21.815-475.229
			c131.487,32.372,268.471,99.2,357.57,134.325C6397.098,1773.859,6553.98,1841.021,6706.868,1916.527z" style="stroke:black;fill:#1f9d5a"/><path id="180624204" parent_id="180624123" order="6" structure_id="882" d="M6604.277,2307.99l-15.405,58.736
			v0.082c-49.63-15.602-100.51-32.205-155.719-51.478c-155.054-54.147-434.765-173.038-577.075-141.167v-3.504l5.413-117.389
			c70.114,12.432,158.966,53.729,223.585,73.587C6272.854,2184.761,6419.83,2245.166,6604.277,2307.99z" style="stroke:black;fill:#1f9d5a"/><path id="180624213" parent_id="180624123" order="7" structure_id="656" d="M5918.365,813.475l-5.162,112.968
			c-294.367-67.246-730.879-86.937-826.643,243.204c-19.485,67.162-20.567,153.014-21.566,223.014c0,0.333,0,0.584,0,0.917
			l-120.745-127.65v-54.563c2.832-213.502,360.401-395.217,514.621-416.242C5595.021,776.515,5754.986,788.028,5918.365,813.475z" style="stroke:black;fill:#1f9d5a"/><path id="180624212" parent_id="180624123" order="8" structure_id="962" d="M5913.203,926.441
			l-11.075,241.451c-61.622-14.685-123.909-27.532-187.612-38.045c-154.72-25.613-320.514,14.685-381.636,167.865
			c-40.888,102.621-46.966,216.756-47.465,328.888l-220.421-233.024c0-0.333,0-0.584,0-0.917c0.999-70,2.081-155.852,21.566-223.015
			C5182.324,839.505,5618.836,859.195,5913.203,926.441z" style="stroke:black;fill:#1f9d5a"/><path id="180624211" parent_id="180624123" order="9" structure_id="767" d="M5902.128,1167.895l-18.819,410.15
			c-91.101-22.527-179.617-28.45-247.733,4.088c-97.929,46.889-111.752,180.212-123.409,284.336l-226.75-239.867
			c0.499-112.132,6.578-226.267,47.465-328.888c61.122-153.181,226.916-193.479,381.636-167.864
			C5778.219,1140.361,5840.506,1153.209,5902.128,1167.895z" style="stroke:black;fill:#1f9d5a"/><path id="180624210" parent_id="180624123" order="10" structure_id="1021" d="M5883.309,1578.044
			l-21.816,475.228c-11.658-2.084-22.816-3.336-33.227-3.586c-37.14-0.834-67.617,22.359-92.016,53.729l-224.085-236.946
			c11.657-104.124,25.479-237.447,123.409-284.336C5703.689,1549.594,5792.208,1555.518,5883.309,1578.044z" style="stroke:black;fill:#1f9d5a"/><path id="180624209" parent_id="180624123" order="11" structure_id="1085" d="M5861.491,2053.271l-5.413,117.39
			v3.504c-14.988,3.337-28.479,8.343-40.055,15.352l-2.998-4.923l-76.775-81.179c24.398-31.37,54.876-54.564,92.016-53.73
			C5838.674,2049.936,5849.833,2051.188,5861.491,2053.271z" style="stroke:black;fill:#1f9d5a"/><path id="180624185" parent_id="180624123" order="12" structure_id="558" d="M9026.744,3108.77l-2.166,0.5
			l-162.463,30.453c-10.576-52.646-20.65-105.375-29.061-158.271c-35.975-225.684-105.174-461.378-213.428-672.878l108.42-66.412
			c100.344,184.801,155.219,366.85,221.17,585.69C8975.781,2915.874,9003.012,3010.152,9026.744,3108.77z" style="stroke:black;fill:#188064"/><path id="180624184" parent_id="180624123" order="13" structure_id="838" d="M8862.115,3139.722
			l-302.36,56.566c-7.495-31.37-14.573-63.575-20.901-96.781c-42.802-224.767-125.158-420.997-237.409-595.871l318.183-195.063
			c108.254,211.5,177.453,447.195,213.428,672.879C8841.465,3034.348,8851.539,3087.077,8862.115,3139.722z" style="stroke:black;fill:#188064"/><path id="180624183" parent_id="180624123" order="14" structure_id="654" d="M8559.755,3196.289
			l-140.147,26.281c-31.893-101.87-66.7-205.326-99.427-312.619c-35.974-117.889-86.853-226.018-149.14-326.302l130.402-80.011
			c112.251,174.873,194.607,371.104,237.409,595.871C8545.182,3132.714,8552.26,3164.918,8559.755,3196.289z" style="stroke:black;fill:#188064"/><path id="180624182" parent_id="180624123" order="15" structure_id="702" d="M8419.607,3222.57
			l-358.152,67.079c-54.709-106.876-113.25-211.917-168.209-317.375c-29.063-55.649-60.455-109.129-94.099-160.606l371.894-228.02
			c62.287,100.285,113.166,208.413,149.141,326.302C8352.907,3017.244,8387.715,3120.7,8419.607,3222.57z" style="stroke:black;fill:#188064"/><path id="180624181" parent_id="180624123" order="16" structure_id="889" d="M8061.455,3289.648
			l-223.419,41.8c-74.778-146.673-156.469-276.91-245.819-392.964l206.932-126.816c33.643,51.479,65.036,104.957,94.098,160.605
			C7948.205,3077.732,8006.745,3182.773,8061.455,3289.648z" style="stroke:black;fill:#188064"/><path id="180624180" parent_id="180624123" order="17" structure_id="929" d="M7838.036,3331.448
			l-78.108,14.601c-67.617-138.664-134.567-250.212-169.043-302.856c-17.653-26.865-33.809-51.395-48.881-73.921l50.213-30.786
			C7681.566,3054.538,7763.258,3184.775,7838.036,3331.448z" style="stroke:black;fill:#188064"/><path id="180624191" parent_id="180624123" order="18" structure_id="981" d="M8728.047,2242.162
			l-108.42,66.412c-68.033-133.074-151.555-256.47-252.064-361.761c-152.471-159.772-321.598-307.363-511.207-421.414l63.12-90.607
			c209.513,121.395,402.454,272.739,571.163,468.553C8593.479,2022.653,8668.758,2132.866,8728.047,2242.162z" style="stroke:black;fill:#188064"/><path id="180624190" parent_id="180624123" order="19" structure_id="201" d="M8619.627,2308.574
			l-318.183,195.063c-157.217-244.873-373.142-447.779-621.292-628.074c-15.156-11.014-30.313-21.692-45.634-32.122l221.837-318.042
			c189.609,114.051,358.736,261.642,511.207,421.414C8468.072,2052.104,8551.594,2175.5,8619.627,2308.574z" style="stroke:black;fill:#188064"/><path id="180624189" parent_id="180624123" order="20" structure_id="1047" d="M8301.444,2503.637
			l-130.403,80.012c-144.228-232.524-349.41-422.834-570.746-595.453c-14.406-11.264-28.896-22.276-43.469-33.206l77.692-111.548
			c15.321,10.429,30.478,21.107,45.634,32.121C7928.303,2055.857,8144.229,2258.765,8301.444,2503.637z" style="stroke:black;fill:#188064"/><path id="180624188" parent_id="180624123" order="21" structure_id="1070" d="M8171.041,2583.648
			l-371.895,228.02c-130.985-200.737-295.031-370.438-479.646-516.359l237.325-340.319c14.572,10.93,29.063,21.942,43.468,33.206
			C7821.631,2160.816,8026.813,2351.124,8171.041,2583.648z" style="stroke:black;fill:#188064"/><path id="180624187" parent_id="180624123" order="22" structure_id="1038" d="M7799.146,2811.668
			l-206.931,126.816c-106.172-137.746-223.086-255.469-351.741-356.922c-24.48-19.272-52.128-37.877-81.773-55.648l160.799-230.605
			C7504.115,2441.23,7668.161,2610.931,7799.146,2811.668z" style="stroke:black;fill:#188064"/><path id="180624186" parent_id="180624123" order="23" structure_id="1062" d="M7592.217,2938.484
			l-50.213,30.785c-98.262-146.089-155.053-212-306.441-333.811c-33.143-26.698-67.949-49.894-104.006-70.5l27.146-39.046
			c29.646,17.771,57.292,36.376,81.772,55.648C7369.131,2683.016,7486.045,2800.738,7592.217,2938.484z" style="stroke:black;fill:#188064"/><path id="180624197" parent_id="180624123" order="24" structure_id="1030" d="M7344.213,1320.684
			l55.361-123.821c-151.572-54.937-307.646-101.896-466.039-145.021l-32.644,124.563c118.329,38.462,234.993,81.347,354.655,117.723
			C7285.493,1303.216,7315.025,1311.989,7344.213,1320.684z" style="stroke:black;fill:#188064"/><path id="180624196" parent_id="180624123" order="25" structure_id="113" d="M6862.254,1500.453
			c-77.775-83.182,50.047-60.655,96.346-36.626c81.357,42.133,170.541,79.177,250.649,125.565c3.931,2.274,7.856,4.541,11.782,6.804
			l123.182-275.513c-29.188-8.693-58.72-17.468-88.664-26.558c-119.662-36.376-236.326-79.261-354.655-117.723l-80.024,305.193
			c13.324,7.259,26.646,14.435,39.888,21.692L6862.254,1500.453z" style="stroke:black;fill:#188064"/><path id="180624195" parent_id="180624123" order="26" structure_id="1094" d="M6958.6,1463.826
			c-46.299-24.028-174.121-46.557-96.346,36.626l-1.499,2.837c108.591,58.699,216.063,116.064,319.278,184.602l40.998-91.695
			c-3.926-2.264-7.854-4.529-11.783-6.805C7129.141,1543.003,7039.957,1505.959,6958.6,1463.826z" style="stroke:black;fill:#188064"/><path id="180624194" parent_id="180624123" order="27" structure_id="1128" d="M7180.033,1687.891
			c-103.215-68.535-210.688-125.902-319.277-184.602c-13.24-7.259-26.563-14.434-39.888-21.692l-114,434.931
			c101.631,50.207,201.519,104.094,298.302,162.467L7180.033,1687.891z" style="stroke:black;fill:#188064"/><path id="180624193" parent_id="180624123" order="28" structure_id="478" d="M6865.084,2392.313
			l140.086-313.318c-96.783-58.373-196.671-112.26-298.302-162.467l-102.591,391.461c54.71,18.688,112.75,37.545,176.12,56.65
			C6807.236,2372.723,6835.729,2381.996,6865.084,2392.313z" style="stroke:black;fill:#188064"/><path id="180624192" parent_id="180624123" order="29" structure_id="510" d="M6780.396,2364.64
			c-63.369-19.105-121.41-37.962-176.119-56.649l-15.405,58.736v0.082c83.278,26.276,162.826,49.805,252.377,78.813l23.835-53.31
			C6835.729,2381.996,6807.236,2372.723,6780.396,2364.64z" style="stroke:black;fill:#188064"/><path id="180624203" parent_id="180624123" order="30" structure_id="450" d="M7399.574,1196.861
			l-55.361,123.821c176.561,52.593,340.445,102.253,506.23,201.127c1.999,1.168,3.997,2.337,5.912,3.589l63.12-90.607
			C7755.072,1339.402,7580.531,1262.447,7399.574,1196.861z" style="stroke:black;fill:#188064"/><path id="180624202" parent_id="180624123" order="31" structure_id="854" d="M7344.213,1320.684
			l-123.182,275.513c141.465,81.545,279.961,155.432,413.486,247.245l221.837-318.041c-1.915-1.252-3.913-2.421-5.912-3.589
			C7684.658,1422.938,7520.771,1373.275,7344.213,1320.684z" style="stroke:black;fill:#188064"/><path id="180624201" parent_id="180624123" order="32" structure_id="577" d="M7180.033,1687.891
			c22.95,15.239,45.691,31.024,68.188,47.506c101.842,74.672,207.515,144.004,308.605,219.593l77.691-111.548
			c-133.525-91.814-272.021-165.7-413.486-247.246L7180.033,1687.891z" style="stroke:black;fill:#188064"/><path id="180624200" parent_id="180624123" order="33" structure_id="625" d="M7180.033,1687.891
			l-174.863,391.104c109.398,65.979,214.83,137.693,314.332,216.313l237.324-340.318
			c-101.092-75.589-206.765-144.921-308.605-219.593C7225.727,1718.915,7202.982,1703.13,7180.033,1687.891z" style="stroke:black;fill:#188064"/><path id="180624199" parent_id="180624123" order="34" structure_id="945" d="M6865.084,2392.313
			c97.613,34.309,204.889,80.299,293.618,133.601l160.799-230.604c-99.501-78.621-204.933-150.334-314.331-216.314
			L6865.084,2392.313z" style="stroke:black;fill:#188064"/><path id="180624198" parent_id="180624123" order="35" structure_id="1026" d="M6841.249,2445.623
			c17.364,5.625,35.099,11.453,53.313,17.55c80.774,27.115,161.549,58.653,236.992,101.787l27.146-39.046
			c-88.73-53.302-196.005-99.292-293.618-133.6L6841.249,2445.623z" style="stroke:black;fill:#188064"/><path id="180624179" parent_id="180624123" order="36" structure_id="873" d="M9026.744,3108.77
			c44.551,185.553,76.443,386.457,66.617,590.363l-6.328-0.25l-133.818,5.174c-7.744-188.724-53.211-376.027-91.1-564.334
			l162.463-30.452L9026.744,3108.77z" style="stroke:black;fill:#188064"/><path id="180624178" parent_id="180624123" order="37" structure_id="806" d="M8953.215,3704.055
			l-275.297,10.68c-12.992-173.039-73.529-332.06-118.163-518.446l302.36-56.566
			C8900.004,3328.028,8945.471,3515.332,8953.215,3704.055z" style="stroke:black;fill:#188064"/><path id="180624177" parent_id="180624123" order="38" structure_id="1035" d="M8677.918,3714.734l-144.478,5.59
			c-16.238-167.615-61.205-330.475-113.833-497.754l140.147-26.281C8604.389,3382.675,8664.926,3541.697,8677.918,3714.734z" style="stroke:black;fill:#188064"/><path id="180624176" parent_id="180624123" order="39" structure_id="1090" d="M8533.44,3720.324l-290.619,11.263
			c-42.219-154.015-108.42-299.521-181.366-441.938l358.152-67.078C8472.235,3389.852,8517.202,3552.709,8533.44,3720.324z" style="stroke:black;fill:#188064"/><path id="180624175" parent_id="180624123" order="40" structure_id="862" d="M8242.821,3731.587l-229.831,8.927
			c-53.627-149.093-111.751-284.919-174.954-409.065l223.419-41.8C8134.4,3432.066,8200.603,3577.572,8242.821,3731.587z" style="stroke:black;fill:#188064"/><path id="180624174" parent_id="180624123" order="41" structure_id="893" d="M8012.99,3740.515l-96.596,3.754
			c-39.222-139.331-98.095-278.829-156.469-398.22l78.109-14.602C7901.238,3455.595,7959.363,3591.422,8012.99,3740.515z" style="stroke:black;fill:#188064"/><path id="180624167" parent_id="180624123" order="42" structure_id="36" d="M9020.414,4102.107l4.914,1.168
			c-27.563,114.053-60.455,230.439-98.262,347.244l-6.578-2.17l-154.387-33.205c52.463-100.869,93.848-208.412,124.91-290.928
			c4.496-12.014,8.742-24.027,12.738-36.042L9020.414,4102.107z" style="stroke:black;fill:#009c75"/><path id="180624166" parent_id="180624123" order="43" structure_id="180" d="M8637.197,4056.305
			l266.553,31.871c-3.996,12.014-8.242,24.028-12.738,36.043c-31.063,82.515-72.447,190.058-124.91,290.927l-319.264-68.664
			c8.66-28.2,16.82-55.981,24.481-82.765l3.664,1.084C8550.678,4355.324,8608.469,4167.686,8637.197,4056.305z" style="stroke:black;fill:#009c75"/><path id="180624165" parent_id="180624123" order="44" structure_id="148" d="M8524.947,4042.872l112.25,13.433
			c-28.729,111.381-86.52,299.021-162.214,208.496l-3.664-1.084c7.078-24.779,13.823-48.642,20.318-71.252
			C8506.294,4141.654,8517.202,4091.847,8524.947,4042.872z" style="stroke:black;fill:#009c75"/><path id="180624164" parent_id="180624123" order="45" structure_id="187" d="M8293.034,4015.173l231.913,27.699
			c-7.745,48.976-18.653,98.783-33.31,149.593c-6.495,22.609-13.24,46.473-20.318,71.251c-7.661,26.782-15.821,54.563-24.481,82.765
			l-165.878-35.709C8296.698,4211.904,8300.695,4114.874,8293.034,4015.173z" style="stroke:black;fill:#009c75"/><path id="180624163" parent_id="180624123" order="46" structure_id="638" d="M8047.049,4152.585
			c-28.396-21.776-77.525-69.082-77.775-69.249l-1.75,0.084c-0.416-10.847-0.916-21.775-1.582-32.705
			c33.227,24.695,141.729,141.75,139.897,72.252c-1.166-43.051-9.326-90.857-18.319-132.323l205.516,24.529
			c7.661,99.701,3.664,196.731-12.074,295.599l-144.229-30.953c-3.414-13.683-8.076-27.199-14.072-40.297
			C8106.089,4203.229,8078.275,4176.445,8047.049,4152.585z" style="stroke:black;fill:#009c75"/><path id="180624162" parent_id="180624123" order="47" structure_id="662" d="M8105.839,4122.967
			c1.832,69.498-106.672-47.557-139.897-72.252c-1.332-24.863-3.08-49.893-5.412-75.089l0.916-0.084l126.073,15.102
			C8096.514,4032.109,8104.673,4079.916,8105.839,4122.967z" style="stroke:black;fill:#009c75"/><path id="180624173" parent_id="180624123" order="48" structure_id="897" d="M9087.033,3698.882l6.328,0.25
			c-3.08,62.323-9.91,124.897-21.568,187.472c-13.238,70.918-28.727,143.336-46.465,216.672l-4.914-1.168l-116.664-13.933
			c42.803-129.069,54.711-256.887,49.465-384.121L9087.033,3698.882z" style="stroke:black;fill:#11ad83"/><path id="180624172" parent_id="180624123" order="49" structure_id="1106" d="M8953.215,3704.055
			c5.246,127.234-6.662,255.051-49.465,384.121l-266.553-31.871c6.828-26.113,11.99-48.057,15.404-61.238
			c26.316-100.702,31.977-192.395,25.316-280.332L8953.215,3704.055z" style="stroke:black;fill:#11ad83"/><path id="180624171" parent_id="180624123" order="50" structure_id="1010" d="M8677.918,3714.734
			c6.66,87.938,1,179.629-25.316,280.33c-3.414,13.184-8.576,35.125-15.404,61.239l-112.25-13.433
			c17.57-110.965,18.652-217.674,8.493-322.549L8677.918,3714.734z" style="stroke:black;fill:#11ad83"/><path id="180624170" parent_id="180624123" order="51" structure_id="1058" d="M8533.44,3720.324
			c10.159,104.874,9.077,211.583-8.493,322.548l-231.913-27.699c-5.912-76.341-18.569-154.35-37.972-235.862
			c-3.831-16.019-7.911-31.871-12.241-47.723L8533.44,3720.324z" style="stroke:black;fill:#11ad83"/><path id="180624169" parent_id="180624123" order="52" structure_id="857" d="M8293.034,4015.173
			l-205.517-24.528c-7.576-34.959-15.654-65.41-20.567-84.601c-17.069-67.246-26.313-87.938-49.963-154.349
			c-1.332-3.754-2.665-7.51-3.997-11.181l229.831-8.927c4.33,15.852,8.41,31.704,12.241,47.723
			C8274.465,3860.823,8287.122,3938.832,8293.034,4015.173z" style="stroke:black;fill:#11ad83"/><path id="180624168" parent_id="180624123" order="53" structure_id="849" d="M7961.445,3975.542l-0.916,0.084
			c-0.418-5.006-0.916-10.096-1.416-15.103c-6.912-70.082-22.067-143.168-42.72-216.254l96.597-3.754
			c1.332,3.67,2.664,7.426,3.996,11.18c23.649,66.412,32.894,87.103,49.963,154.349c4.914,19.188,12.992,49.642,20.568,84.601
			L7961.445,3975.542z" style="stroke:black;fill:#11ad83"/><path id="180624218" parent_id="180624123" order="54" structure_id="935" d="M5069.157,1667.984
			c8.827,57.316,10.576,108.628,9.326,160.938l-132.817-76.423h-1.332l-0.084-486.575l120.744,127.65
			C5062.912,1532.574,5054.835,1574.958,5069.157,1667.984z" style="stroke:black;fill:#40a666"/><path id="180624217" parent_id="180624123" order="55" structure_id="211" d="M5285.665,1734.729
			c0,91.191-0.167,155.601-0.167,213.252l-207.016-119.058c1.25-52.312-0.498-103.623-9.326-160.938
			c-14.321-93.026-6.244-135.411-4.162-274.408l220.42,233.025C5285.248,1662.979,5285.665,1699.188,5285.665,1734.729z" style="stroke:black;fill:#40a666"/><path id="180624216" parent_id="180624123" order="56" structure_id="1015" d="M5285.415,1626.602
			l226.75,239.867c-1.749,15.853-3.498,30.953-5.496,45.053c-7.245,52.563-15.321,101.537-23.149,150.345l-198.021-113.886
			c0-57.65,0.167-122.061,0.167-213.25C5285.665,1699.188,5285.248,1662.979,5285.415,1626.602z" style="stroke:black;fill:#40a666"/><path id="180624215" parent_id="180624123" order="57" structure_id="919" d="M5512.165,1866.469
			l224.085,236.946c-18.32,23.612-33.311,51.812-45.051,77.925l-207.68-119.474c7.826-48.808,15.903-97.782,23.148-150.344
			C5508.667,1897.421,5510.416,1882.32,5512.165,1866.469z" style="stroke:black;fill:#40a666"/><path id="180624214" parent_id="180624123" order="58" structure_id="927" d="M5813.025,2184.594l2.998,4.924
			c-9.576,5.673-17.819,12.598-24.73,21.023c-5.413,6.591-10.659,13.1-15.654,19.607l-1.416-1.086l-83.022-47.723
			c11.741-26.113,26.729-54.313,45.051-77.925L5813.025,2184.594z" style="stroke:black;fill:#40a666"/><path id="180624223" parent_id="180624123" order="59" structure_id="588" d="M5173.081,2669.833
			c-79.19,14.851-157.218,18.354-228.665,4.422l-0.083-921.755h1.332l132.817,76.423c-0.998,43.134-4.162,86.938-7.244,135.243
			c-9.076,144.087-20.65,235.194-20.817,379.615c-0.083,79.594-13.739,182.799,44.218,243.121
			c24.898,25.947,56.042,41.048,76.527,71.835L5173.081,2669.833z M5007.619,2682.015c18.652,0.834,137.814,0.334,140.646-23.276
			c2.332-19.523-96.014-36.293-110.918-36.793c-30.979-1.168-90.851,11.764-90.685,51.06
			C4966.816,2674.422,4987.384,2681.18,5007.619,2682.015z" style="stroke:black;fill:#40a666"/><path id="180624222" parent_id="180624123" order="60" structure_id="296" d="M5286.664,2118.6
			c1.249,89.605,18.402,166.613,5.246,254.384c-13.24,87.854-22.898,191.894-61.788,281.583l0.666,2.753
			c-19.235,4.839-38.472,9.011-57.707,12.515l-1.915-11.096c-20.484-30.787-51.629-45.889-76.527-71.835
			c-57.957-60.321-44.301-163.526-44.217-243.121c0.166-144.42,11.74-235.528,20.817-379.615
			c3.081-48.307,6.245-92.109,7.244-135.243l207.015,119.057C5285.581,2005.048,5285.831,2055.441,5286.664,2118.6z" style="stroke:black;fill:#40a666"/><path id="180624221" parent_id="180624123" order="61" structure_id="772" d="M5285.498,1947.98l198.021,113.886
			c-10.41,65.243-20.652,130.153-28.563,203.323c-10.825,100.034-3.414,220.427-54.793,320.545l5.745,13.516
			c-17.402,7.509-35.975,14.768-55.958,21.859c-39.222,13.933-79.192,26.364-119.163,36.209l-0.666-2.754
			c38.889-89.688,48.548-193.729,61.788-281.582c13.157-87.771-3.997-164.778-5.246-254.384
			C5285.831,2055.441,5285.581,2005.048,5285.498,1947.98z" style="stroke:black;fill:#40a666"/><path id="180624220" parent_id="180624123" order="62" structure_id="810" d="M5483.52,2061.866L5691.2,2181.34
			c-6.328,14.1-11.741,27.616-16.237,39.38c-47.881,125.147-69.865,191.644-114.498,266.981l8.66,11.682
			c-40.722,36.209-91.934,69.416-163.215,99.867l-5.744-13.516c51.379-100.118,43.967-220.51,54.793-320.545
			C5462.867,2192.02,5473.109,2127.109,5483.52,2061.866z" style="stroke:black;fill:#40a666"/><path id="180624219" parent_id="180624123" order="63" structure_id="819" d="M5774.223,2229.063l1.416,1.086
			c-81.773,104.539-121.412,193.479-206.516,269.233l-8.66-11.681c44.634-75.34,66.617-141.834,114.499-266.982
			c4.496-11.764,9.909-25.279,16.237-39.38L5774.223,2229.063z" style="stroke:black;fill:#40a666"/><path id="180624161" parent_id="180624123" order="64" structure_id="120" d="M8927.066,4450.52
			c-49.836,154.129-100.844,274.398-129.998,349.656c-30.967,79.932,4.182-6.953-18.701,45.615
			c-3.209,7.372-5.023-18.369-12.266-29.29c-5.723-8.63-18.182-16.39-30.465-22.714c-30.867-15.895-66.494-27.057-106.434-39.825
			c-49.63-15.853-96.179-29.618-142.395-39.38l0.666-3.421l62.454-29.201c86.521-51.896,158.134-155.185,216.173-266.815
			l154.387,33.207L8927.066,4450.52z" style="stroke:black;fill:#219866"/><path id="180624160" parent_id="180624123" order="65" structure_id="163" d="M8766.102,4415.145
			c-58.039,111.633-129.652,214.922-216.173,266.815l-62.454,29.201l-0.666,3.421c-65.868-13.85-130.987-19.605-203.185-11.514
			l-0.166-1.67c73.945-90.772,124.325-227.185,163.38-354.918L8766.102,4415.145z" style="stroke:black;fill:#219866"/><path id="180624159" parent_id="180624123" order="66" structure_id="344" d="M8280.96,4310.771l165.878,35.709
			c-39.055,127.733-89.435,264.146-163.38,354.918l0.166,1.67c-6.828,0.75-13.822,1.668-20.817,2.67l-82.771-15.603
			c26.479-72.503,39.971-131.989,56.209-186.138C8255.979,4438.089,8270.884,4374.098,8280.96,4310.771z" style="stroke:black;fill:#219866"/><path id="180624158" parent_id="180624123" order="67" structure_id="314" d="M7921.891,4631.232
			c0.584,6.676,159.467,12.266,174.705-0.5c39.305-33.039,37.39-116.138,42.053-162.691c6.078-61.99,13.49-127.316-1.916-188.223
			l144.229,30.953c-10.076,63.324-24.981,127.316-44.717,193.229c-16.238,54.146-29.729,113.634-56.209,186.137l-20.068-3.838
			c-49.213-38.713-136.898-31.537-195.105-27.783c-21.566,1.418-30.479,2.42-51.296,2.838c-3.83,8.426-7.661,16.853-11.325,25.278
			c5.579-16.603,11.075-35.458,16.404-56.231L7921.891,4631.232z" style="stroke:black;fill:#219866"/><path id="180624127" parent_id="180624123" order="68" structure_id="698" d="M8764.406,4828.932c-7.186-22.281-27.039-36.6-51.875-47.5
			c-25.297-11.099-55.766-18.646-83.303-27.438c-45.78-14.615-88.949-27.477-131.625-37.044c-8.66-1.94-17.301-3.744-25.938-5.401
			c-0.83-0.158-1.66-0.318-2.49-0.476c-0.666-0.125-1.333-0.248-1.999-0.372c-1.657-0.307-3.315-0.611-4.973-0.907
			c-0.048-0.009-0.096-0.019-0.144-0.024c-32.324-5.764-64.706-9.393-98.07-10.219c-19.527-0.482-39.391-0.008-59.779,1.569
			c-0.6,0.047-1.201,0.099-1.803,0.146c-1.399,0.112-2.801,0.229-4.205,0.354c-1.052,0.092-2.105,0.188-3.16,0.287
			c-0.912,0.085-1.826,0.172-2.741,0.262c-1.404,0.138-2.81,0.278-4.219,0.428c-0.502,0.053-1.005,0.105-1.507,0.16
			c-7.83,0.843-15.741,1.846-23.746,3.021c-43.254,6.289-56.054,29.404-54.216,75.039c1.562,38.863-12.49,72.312-26.723,108.355
			c-22.961,58.17-56.556,110.268-101.02,152.248c-18.521,17.493-38.912,33.247-61.221,46.938
			c-34.035,20.803-71.41,38.144-109.121,52.396c-3.695,1.399-7.396,2.758-11.097,4.101c-1.342,0.485-2.683,0.963-4.022,1.441
			c-2.065,0.734-4.131,1.462-6.195,2.18c-1.332,0.465-2.666,0.949-3.998,1.406c-41.436,14.214-82.45,27.186-122.6,41.675
			c-57.635,20.799-113.486,44.729-166.226,79.978c0,0-86.371,117.938-137.358,169.031
			c-94.56,94.749-228.437,345.746-260.754,421.307c-25.121,58.701,61.141,145.311,142.405,216.086
			c2.203,1.92,4.403,3.83,6.599,5.727c11.252,9.716,24.066,19.764,37.813,29.876c87.786,64.58,213.625,131.791,213.67,131.8
			c11.746-10.341,40.304-32.375,49.655-40.764c27.236-24.424,52.369-37.015,82.658-57.02
			c57.748-38.141,129.707-72.938,190.934-103.477c86.477-43.147,152.996-94.039,170.049-107.711
			c22.975-18.445,42.57-36.095,62.607-57.506h2.147c-0.877-0.682-1.769-1.326-2.67-1.947c0.374-0.392,0.739-0.783,1.095-1.18
			c0.445,0.393,0.896,0.771,1.332,1.184c13.744-14.112,27.662-29.357,41.807-45.933c32.206-37.745,63.561-76.388,94.03-115.72
			c3.554-4.588,7.104-9.181,10.633-13.787c0.213-0.276,0.427-0.554,0.639-0.83c2.202-2.873,4.391-5.754,6.582-8.635
			c1.756-2.309,3.515-4.615,5.265-6.93c1.351-1.784,2.694-3.57,4.04-5.357c2.6-3.451,5.195-6.903,7.78-10.363
			c0.786-1.051,1.569-2.104,2.354-3.154c3.163-4.244,6.317-8.494,9.46-12.752c0.355-0.48,0.711-0.961,1.065-1.443
			c14.851-20.146,29.467-40.441,43.839-60.869c3.248-4.616,6.469-9.248,9.671-13.893c0.629-0.912,1.251-1.828,1.878-2.74
			c2.455-3.572,4.896-7.152,7.325-10.742c1.03-1.521,2.055-3.047,3.08-4.572c1.979-2.942,3.948-5.892,5.911-8.844
			c1.245-1.875,2.489-3.75,3.729-5.629c1.638-2.483,3.266-4.974,4.893-7.465c1.476-2.258,2.954-4.517,4.42-6.781
			c1.021-1.574,2.03-3.155,3.045-4.732c3.38-5.253,6.731-10.521,10.064-15.805c0.513-0.812,1.021-1.623,1.533-2.437
			c3.105-4.937,6.196-9.88,9.264-14.84c0.145-0.233,0.29-0.467,0.435-0.7c20.767-33.6,40.675-67.727,59.975-102.189
			c53.544-95.361,102.59-193.479,153.055-290.677c5.234-10.083,10.396-20.491,15.502-31.119
			c23.502-48.935,45.756-102.565,67.9-151.304c2.734-6.02,5.465-11.965,8.195-17.813c5.996-12.834,9.805-24.317,11.762-34.653
			C8768.289,4850.583,8767.635,4838.947,8764.406,4828.932z" style="stroke:black;fill:#9ad2bd"/><path id="180624157" parent_id="180624123" order="69" structure_id="276" d="M8764.406,4828.932
			c-7.186-22.281-27.039-36.6-51.875-47.5c-25.297-11.099-55.766-18.646-83.303-27.438c-45.78-14.615-88.949-27.477-131.625-37.044
			c3.627,15.717,9.102,33.606,10.891,45.597c6.64,44.465,9.047,85.929,2.323,130.455c-9.222,61.084-20.525,116.594-44.101,174.123
			c-32.162,78.485-65.674,156.64-99.422,234.449c-40.466,93.299-89.884,183.811-160.25,258.102
			c-41.619,43.939-91.25,76.75-147.816,98.048c-56.403,21.241-118.621,13.696-177.781,23.872
			c-55.535,9.55-108.271,21.34-157.039,50.939c-48.498,29.438-95.933,66.361-131.666,110.865
			c-41.041,51.108-73.738,108.336-116.262,158.633c-31.223,36.93-66.291,70.457-91.381,111.524
			c87.796,64.587,213.652,131.806,213.652,131.806s18.558-16.375,20.785-18.152c5.345-4.314,49.865-39.305,55.125-43.408
			c-0.606-4.1-14.17-0.18-26.662-2.752c-9.063-1.865-18.465-10.063-18.576-13.034c-0.488-13.015-2.531-16.086,7.547-36.321
			c14.862-29.847,42.301-54.248,69.133-73.105c77.059-54.15,166.778-84.523,250.903-125.678
			c40.888-20.004,151.787-101.239,199.569-55.973c13.744-14.111,27.662-29.357,41.807-45.932
			c32.206-37.746,63.561-76.388,94.03-115.721c-24.106,31.087-48.781,61.736-73.991,91.836c25.21-30.1,49.885-60.749,73.991-91.836
			c3.554-4.588,7.104-9.18,10.633-13.786c0.213-0.276,0.427-0.554,0.639-0.831c2.202-2.872,4.391-5.754,6.582-8.634
			c1.756-2.31,3.515-4.616,5.265-6.931c1.351-1.783,2.694-3.57,4.04-5.356c2.6-3.451,5.195-6.903,7.78-10.364
			c0.786-1.051,1.569-2.103,2.354-3.154c3.163-4.243,6.317-8.493,9.46-12.751c0.355-0.481,0.711-0.962,1.065-1.444
			c14.851-20.146,29.467-40.441,43.839-60.869c3.248-4.615,6.469-9.248,9.671-13.892c0.629-0.912,1.251-1.828,1.878-2.741
			c2.455-3.572,4.896-7.152,7.325-10.741c1.03-1.522,2.055-3.048,3.08-4.573c1.979-2.941,3.948-5.891,5.911-8.843
			c1.245-1.875,2.489-3.751,3.729-5.63c1.638-2.482,3.266-4.973,4.893-7.464c1.476-2.259,2.954-4.517,4.42-6.782
			c1.021-1.574,2.03-3.154,3.045-4.732c3.38-5.252,6.731-10.521,10.064-15.804c0.513-0.812,1.021-1.624,1.533-2.437
			c3.105-4.937,6.196-9.881,9.264-14.84c0.145-0.233,0.29-0.467,0.435-0.701c20.767-33.599,40.675-67.726,59.975-102.188
			c53.544-95.362,102.592-193.479,153.053-290.677c5.234-10.083,10.398-20.491,15.504-31.119
			c23.504-48.934,29.018-54.77,51.16-103.506c2.734-6.02,18.936-42.908,21.668-48.758c5.996-12.834,18.094-36.128,20.051-46.464
			C8773.311,4855.627,8767.635,4838.947,8764.406,4828.932z" style="stroke:black;fill:#6acbba"/><path id="180624156" parent_id="180624123" order="70" structure_id="284" d="M7592.742,5843.398
			c35.732-44.504,83.168-81.428,131.666-110.865c48.768-29.601,101.504-41.391,157.038-50.939
			c59.161-10.176,121.378-2.631,177.782-23.872c56.566-21.298,106.197-54.108,147.816-98.048
			c70.366-74.291,119.784-164.803,160.25-258.102c33.748-77.811,67.26-155.963,99.422-234.449
			c23.575-57.529,34.879-113.039,44.101-174.123c6.724-44.526,4.316-85.99-2.323-130.455c-1.789-11.988-7.264-29.879-10.891-45.597
			c-8.66-1.94-17.301-3.744-25.938-5.401c-0.83-0.158-1.66-0.318-2.49-0.476c-0.666-0.125-1.333-0.248-1.999-0.372
			c-1.657-0.307-3.315-0.611-4.973-0.907c-0.048-0.009-0.096-0.019-0.144-0.024c-32.324-5.764-64.706-9.393-98.07-10.219
			c-1.635,30.364-6.98,59.982-14.555,89.73c-15.602,61.277-31.045,121.523-53.867,181.102
			c-10.915,28.496-22.88,56.928-34.742,85.377c-16.229,38.922-35.571,78.26-54.497,115.908
			c-33.618,66.875-94.648,116.453-158.191,153.371c-32.351,18.797-65.017,39.166-99.269,54.279
			c-31.463,13.891-64.504,22.536-94.706,39.573c-45.395,25.599-91.624,51.183-135.089,79.983
			c-53.812,35.672-101.69,78.138-142.604,128.293c-39.717,48.699-75.465,102.277-110.265,154.59
			c-26.869,40.398-52.81,81.39-75.778,124.158c-31.158,58.012-47.836,107.969-49.739,172.039c2.203,1.92,4.403,3.83,6.599,5.727
			c11.252,9.716,24.066,19.764,37.813,29.876c25.09-41.067,60.158-74.597,91.381-111.524
			C7519.003,5951.734,7551.701,5894.508,7592.742,5843.398z" style="stroke:black;fill:#6acbba"/><path id="180624155" parent_id="180624123" order="71" structure_id="291" d="M7466.206,5781.757
			c34.799-52.312,70.548-105.89,110.265-154.589c40.912-50.156,88.793-92.622,142.604-128.293
			c43.465-28.802,89.694-54.387,135.089-79.984c30.202-17.037,63.243-25.683,94.706-39.572
			c34.252-15.114,66.918-35.483,99.269-54.28c63.543-36.917,124.574-86.495,158.191-153.371
			c18.926-37.647,38.268-76.985,54.497-115.908c11.862-28.449,23.827-56.881,34.742-85.376
			c22.822-59.578,38.266-119.823,53.867-181.102c7.574-29.748,12.92-59.367,14.555-89.73c-19.527-0.482-39.391-0.009-59.779,1.568
			c-0.6,0.047-1.201,0.099-1.803,0.146c-1.399,0.111-2.801,0.229-4.205,0.354c-1.052,0.092-2.105,0.188-3.16,0.287
			c-0.912,0.084-1.826,0.172-2.741,0.261c-1.404,0.138-2.81,0.278-4.219,0.429c-0.502,0.053-1.005,0.105-1.507,0.16
			c-7.83,0.842-15.741,1.846-23.746,3.021c-43.254,6.29-56.054,29.405-54.216,75.04c1.562,38.863-12.49,72.311-26.723,108.355
			c-22.961,58.17-56.556,110.268-101.02,152.248c-18.521,17.492-38.912,33.246-61.221,46.938
			c-34.035,20.802-71.41,38.143-109.121,52.395c-3.695,1.399-7.396,2.758-11.097,4.101c-1.342,0.485-2.683,0.964-4.022,1.442
			c-2.065,0.734-4.131,1.461-6.195,2.18c-1.332,0.464-2.666,0.949-3.998,1.406c-41.436,14.213-82.45,27.186-122.6,41.674
			c-57.633,20.815-113.483,44.766-166.238,80.021c52.755-35.255,108.605-59.204,166.238-80.021
			c-57.635,20.799-113.486,44.729-166.226,79.979c0,0-86.371,117.938-137.358,169.031
			c-94.56,94.749-228.437,345.746-260.754,421.307c-25.121,58.701,61.141,145.311,142.405,216.086
			c1.903-64.07,18.582-114.027,49.739-172.039C7413.396,5863.146,7439.337,5822.156,7466.206,5781.757z" style="stroke:black;fill:#6acbba"/><path id="180624150" parent_id="180624123" order="72" structure_id="19" d="M5148.27,2658.737
			c2.352-19.529-96.006-36.273-110.938-36.812c-30.934-1.124-90.794,11.749-90.672,51.104c20.2,1.385,40.725,8.146,60.975,9.019
			C5026.24,2682.846,5145.423,2682.365,5148.27,2658.737z" style="stroke:black;fill:#7ed04b"/><path id="180624149" parent_id="180624123" order="73" structure_id="583" d="M8047.08,4152.592
			c31.17,23.865,59.006,50.662,75.611,86.927c32.805,71.626,23.451,152.64,15.938,228.533
			c-4.604,46.556-2.756,129.629-42.034,162.646c-15.239,12.799-174.091,7.201-174.726,0.576c-0.383-4.029,0.984-14.203,3.365-28.049
			c7.847-45.638,26.707-131.182,30.244-168.219c8.701-91.141,17.996-179.087,13.174-270.404c-0.877-16.578-0.604-33.412-0.16-50.139
			c0.278-10.436,0.625-20.83,0.804-31.094C7969.518,4083.516,8018.617,4130.797,8047.08,4152.592z" style="stroke:black;fill:#8ada87"/><path id="180624148" parent_id="180624123" order="74" structure_id="952" d="M8159.966,4686.299
			c54.293,42.717-0.25,153.348-21.401,201.738c-28.729,65.744-48.131,124.896-111.25,164.276
			c-75.694,47.306-165.713,76.924-250.066,105.124c-39.721,13.266-85.188,33.623-126.24,39.129
			c30.811-48.475,63.12-95.945,92.682-145.922c17.903-30.453,33.31-65.661,47.799-98.199
			c30.562-68.915,56.959-138.08,85.604-207.161c8.327-14.269,16.82-34.041,25.146-58.653c3.664-8.426,7.496-16.853,11.326-25.278
			c20.817-0.417,29.729-1.419,51.295-2.837C8023.066,4654.762,8110.752,4647.586,8159.966,4686.299z" style="stroke:black;fill:#a0ee9d"/><path id="180624135" parent_id="180624123" order="75" structure_id="672" d="M6047.502,2580.919
			c130.666-58.802,247.061-71.659,276.766-71.781c134.578-0.546,266.617,3.658,395.803,39.198
			c95.747,26.334,189.898,66.412,280.475,107.23c192.088,86.536,328.893,198.192,472.83,358.888
			c100.301,111.973,252.182,373.235,318.084,545.509c40.408,105.604,152.109,346.96,157.615,542.65
			c3.761,133.771-20.974,327.847-45.849,456.496c-18.226,94.219-34.397,157.201-55.885,208.873
			c-22.55,54.213-102.894,211.283-154.467,299.588c-55.722,95.359-162.909,299.947-243.132,322.988
			c-68.771,19.75-820.4,89.348-938.764-29.249c-55.037-55.144-89.33-116.513-127.681-177.994
			c-55.519-88.987-113.229-209.067-190.834-292.013c-47.313-50.547-156.136-141.834-172.79-171.035
			c-54.533-95.619-64.438-145.957-93.682-210.664c-17.459-38.621-47.224-118.565-72.862-164.778
			c-29.747-53.61-54.379-72.726-54.663-101.438c-1.05-104.666-1.294-210.942-12.93-315.918
			c-10.744-96.916-25.545-205.401-40.125-298.603c-11.172-71.479-64.39-239.108-68.771-396.212
			c-3.253-117.236,21.037-211.064,31.527-258.402C5739.16,2834.335,5854.171,2698.09,6047.502,2580.919z" style="stroke:black;fill:#98d6f9"/><path id="180624136" parent_id="180624123" order="76" structure_id="56" d="M6762.648,6092.938
			c50.5-4.418,97.715-35.883,145.426-51.168c49.24-15.773,113.522-11.504,158.729-34.188
			c88.25-44.34,116.207-199.797,163.527-279.938c22.934-38.752,57.314-101.926,106.041-177.994
			c56.641-77.744,113.183-124.902,91.697-126.338c-68.779,14.357-115.167,18.658-178.214,22.979
			c-101.31,6.909-210.628,10.934-320.946,10.934c-221.541,0-343.383-17.191-407.521-56.984
			c-87.436-54.229-208.18-283.667-258.145-373.355c-45.83-82.275-166.543-189.81-226.916-244.039
			c-32.941-29.592,8.588,40.217-14.67,151.904c-4.024,19.343-15.687,47.564-101.643,105.699
			c-2.82,28.427,9.896,43.834-20.907,76.751c-20.817,22.243,81.013,70.362,134.626,120.976
			c72.172,68.131,83.459,104.006,106.863,151.563c23.965,48.688,8.252,93.664,52.744,125.146
			c42.791,30.276,110.961,61.395,142.992,104.43c58.764,78.968,96.008,157.3,134.896,248.031
			C6530.968,6006.768,6593.063,6107.766,6762.648,6092.938z" style="stroke:black;fill:#80cdf8"/><path id="180624154" parent_id="180624123" order="77" structure_id="481" d="M6513.932,6540.404
			c-28.959,4.147-124.6,1.973-124.908,41.717c-0.537,70.371,203.813,59.362,223.443,32.672
			c38.855-52.838,269.585,85.834,249.621-63.201C6851.184,6470.182,6586.794,6529.977,6513.932,6540.404z" style="stroke:black;fill:#80cdf8"/><path id="180624153" parent_id="180624123" order="78" structure_id="458" d="M7519.303,6239.4
			c-6.574,53.625-24.303,116.119-50.867,161.586c-38.023,65.08-150.783,105.572-208.283,152.901
			c-139.791,115.062-308.188,254.875-481.142,322.33c-71.692,27.962-152.021,48.422-229.136,50.06
			c-128.828,2.746-244.67-46.336-350.395-116.08c-80.13-52.858-144.259-102.84-199.867-181.775
			c-10.516-14.926-19.449-34.006-29.682-50.188c-58.399,41.037-102.012,78.209-102.012,78.209
			c93.827,80.01,133.975,168.445,238.57,219.627c302.771,148.158,653.854,170.67,952.871-27.66
			c203.463-134.94,348.83-284.133,411.146-380.029c62.315-95.882,52.812-147.032,109.913-204.229
			C7573.966,6270.615,7549.85,6258.664,7519.303,6239.4z" style="stroke:black;fill:#80cdf8"/><path id="180624152" parent_id="180624123" order="79" structure_id="465" d="M6199.48,6810.198
			c105.726,69.744,221.565,118.825,350.395,116.08c77.115-1.638,157.443-22.099,229.137-50.06
			c172.951-67.455,341.351-207.27,481.141-322.33c57.501-47.33,170.26-87.822,208.283-152.902
			c26.564-45.467,44.293-107.961,50.868-161.586c-17.424-10.988-36.938-24.355-56.463-38.046
			c-22.647,14.354-40.446,60.8-48.335,83.024c-12.216,34.426,5.096,82.953-28.229,107.285
			c-28.045,20.479-67.309,21.244-95.851,41.117c-38.554,26.871-68.903,65.826-104.767,96.078
			c-104.334,88.002-226.412,178.994-351.849,233.643c-124.231,54.116-300.228,105.104-435.259,70.068
			c-85.031-22.064-153.938-88.418-214.35-149.377c-30.207-30.48-52.776-66.528-73.729-103.787
			c-12.459-22.158-23.436-45.433-34.218-68.558c-29.229,16.987-60.476,36.037-88.251,54.896c-6.156,4.18-12.189,8.354-18.074,12.488
			c10.23,16.184,19.165,35.264,29.682,50.188C6055.223,6707.357,6119.352,6757.339,6199.48,6810.198z" style="stroke:black;fill:#80cdf8"/><path id="180624151" parent_id="180624123" order="80" structure_id="473" d="M7345.781,6124.012
			c0,0-22.836,45.545-29.83,72.481c-18.256,70.306-26.582,61.963-66.104,97.942c-155.581,141.523-405.812,173.496-603.315,203.633
			c-88.914,13.574-175.334,49.799-267.121,42.897c-90.313-6.786-151.873-112.381-200.129-86.929
			c-13.164,6.947-55.416,29.142-103.021,56.812c10.782,23.125,21.759,46.399,34.218,68.558
			c20.951,37.258,43.521,73.307,73.729,103.787c60.41,60.959,129.316,127.313,214.349,149.377
			c135.032,35.035,311.026-15.953,435.259-70.068c125.438-54.646,247.516-145.641,351.85-233.643
			c35.861-30.252,66.211-69.207,104.766-96.078c28.542-19.873,67.807-20.64,95.852-41.117
			c33.321-24.332,16.012-72.859,28.228-107.285c7.888-22.226,25.687-68.67,48.335-83.024
			C7410.541,6164.688,7358.177,6125.715,7345.781,6124.012z M6612.467,6614.793c-19.631,26.691-223.98,37.699-223.443-32.672
			c0.31-39.744,95.949-37.568,124.908-41.717c72.862-10.43,337.252-70.225,348.156,11.188
			C6882.052,6700.628,6651.322,6561.955,6612.467,6614.793z" style="stroke:black;fill:#80cdf8"/><path id="180624144" parent_id="180624123" order="81" structure_id="250" d="M5679.462,3411.938
			c-46.108-55.461-99.585-107.557-157.062-152.719c-39.164-30.766-69.992-69.507-113.061-95.328
			c-63.023-37.805-130.503-68.276-199.666-92.752c-76.516-27.082-165.837-55.388-224.695-114.359
			c33.779-1.866,155.492-8.743,285.215-34.262l20.979-4.229c0,0,63.104,12.327,131.86,62.428
			c70.929,51.68,118.451,109.162,141.848,159.352c36.366,77.957,71.253,152.214,99.438,228.558L5679.462,3411.938z" style="stroke:black;fill:#90cbed"/><path id="180624142" parent_id="180624123" order="82" structure_id="258" d="M4945.637,2965.35
			c38.838-24.443,77.375,25.681,113.539,45.513c47.49,26.048,99.666,42.278,150.5,60.276
			c69.162,24.475,136.643,54.947,199.666,92.752c43.066,25.819,73.896,64.562,113.06,95.328
			c57.478,45.162,105.772,90.765,151.882,146.232l36.748,124.366c33.699,166.228,40.416,308.177,64.479,473.735
			c6.066,41.699,12.549,142.308,8.597,217.494c-4.115,78.086-9.854,87.392-11.938,106.619
			c-3.732,5.021-73.767,57.295-127.486,104.664c-47.066,41.488-71.229,88.272-92.688,77.52
			c-38.685-19.376-187.533-56.057-251.459-64.596c-12.986-1.729,1.017-32.004,2.146-92.851
			c1.668-90.146-2.27-231.703-56.143-396.222c-29.895-91.285-59.34-187.868-98.871-271.332
			c-89.248-188.455-199.25-335.715-199.25-335.715L4945.637,2965.35z" style="stroke:black;fill:#90cbed"/><path id="180624138" parent_id="180624123" order="83" structure_id="342" d="M6340.027,6497.107
			c-76.652-38.75-129.885-55.388-77.189-113.854c120.354-133.507-104.911-226.731-202.032-282.087
			c-47.021-26.807-212.563-73.988-325.469-209.443c-158.216-189.809-309.099-450.189-322.679-588.195
			c-14.572-148.09-25.584-199.566,99.927-89.688c67.252,58.891,78.092,64.22,166.356,97.641
			c93.168,35.277,168.504,34.488,260.42,83.824c77.719,41.715,140.277,71.52,223.006,126.354
			c65.299,43.279,117.865,67.396,165.485,131.34c55.826,75.022,94.169,157.136,131.104,243.32
			c56.754,132.464,138.562,246.354,298.729,223.963c92.421-12.923,165.649-69.988,251.459-62.443
			c53.313,4.676,120.126-46.457,155.517-117.375c10.287-20.612,46.58,48.756,62.455,64.66
			c27.056,27.105,95.642,85.834,87.442,95.938c-28.218,34.774-23.046,81.419-41.888,120.634
			c-29.86,62.15-92.444,85.632-150.646,114.939c-135.105,68.017-268.941,106.375-419.49,121.726
			C6623.299,6466.425,6402.318,6528.607,6340.027,6497.107z" style="stroke:black;fill:#a2b1d8"/><path id="180624139" parent_id="180624123" order="84" structure_id="298" d="M5722.999,6563.871
			c0,0,68.604-166.604,86.894-213.191c24.209-61.693,63.162-197.142,79.522-262.696c4.302-17.24,85.694,6.99,137.545,34.448
			c57.933,30.667,204.229,93.859,229.976,174.425c14.345,44.894-21.502,79.716-77.377,116.315
			c-73.529,48.186-125.481,88.187-195.972,129.063c-7.051,4.09-120.34,109.19-128.995,102.115
			c-5.68-4.644-24.109-21.414-51.855-38.162C5776.523,6590.367,5741.33,6574.73,5722.999,6563.871z" style="stroke:black;fill:#a2b1d8"/><path id="180624141" parent_id="180624123" order="85" structure_id="564" d="M4944.366,4103.502l-0.032,689.805
			c0,0,144.693-46.72,182.117-85.338c70.919-73.215,151.395-257.043,154.736-362.033c2.666-83.465-25.819-301.983-92.412-488.811
			c-90.729-254.549-244.377-467.275-244.377-467.275L4944.366,4103.502z" style="stroke:black;fill:#96a7d3"/><path id="180624140" parent_id="180624123" order="86" structure_id="596" d="M5859.596,6064.289
			c30.088-2.15-36.537,150.732-51.582,208.874c-17.19,43.067-68.174,270.21-110.176,279.774c0,0-89.177-30.791-150.383-53.726
			c-34.322-12.86-128.121-38.869-128.121-38.869c56.006-124.815,8.896-167.356,11.76-193.912
			c8.596-79.685,19.347-105.513,101.018-176.574c42.082-36.616,100.805-55.976,156.891-55.976
			C5749.178,6033.882,5760.727,6031.993,5859.596,6064.289z" style="stroke:black;fill:#96a7d3"/><path id="180624145" parent_id="180624123" order="87" structure_id="537" d="M5751.391,4761.471
			c48.254,4.513,111.453,46.985,142.353,167.379c36.911,167.043,123.371,17.225,103.03-135.576
			c-12.488-93.86-43.717-166.863-70.779-223.181c-25.186-52.405-77.45-216.418-124.909-254.466
			c-10.408-8.344-10.416,77.4-21.28,88.449c-4.246,4.324-8.193,3.797-11.66,0.87
			C5759.508,4523.527,5722.318,4643.396,5751.391,4761.471z" style="stroke:black;fill:#b3c0df"/><path id="180624146" parent_id="180624123" order="88" structure_id="537" d="M6128.879,5402.018
			c-32.463-126.59-161.355-180.854-243.717-266.91c-27.848,22.405-65.66,22.391-102.799,12.521
			c4.582,14.237,16.387,29.396,20.844,42.795c6.285,18.89,11.08,38.285,16.291,57.49c9.054,33.369,18.635,59.215,34.396,87.479
			c67.202,19.638,110.14,48.328,167.353,79.375c23.149,12.563,91.117,67.683,112.408,56.644
			C6151.706,5462.047,6132.059,5414.408,6128.879,5402.018z" style="stroke:black;fill:#b3c0df"/><path id="180624147" parent_id="180624123" order="89" structure_id="498" d="M5803.207,5190.422
			c-4.458-13.398-16.262-28.557-20.844-42.795c-40.625-10.797-80.442-33.385-105.521-51.352
			c-56.632-40.584-119.524-99.629-114.476-176.877c3.44-52.521,49.166-109.326,98.715-133.979
			c19.672-9.794,40.621-16.784,61.99-22.063c8.459-2.092,18.051-2.844,28.315-1.885c-29.069-118.074,8.118-237.941,16.753-356.523
			c-8.516-7.186-14.126-28.865-14.126-28.865c-172.968,147.146-383.571,385.107-354.892,635.238
			c15.703,136.914,193.152,247.853,319.062,288.541c30.983,10.015,68.896,19.791,100.423,26.609
			c12.531,2.709,24.234,5.693,35.283,8.922c-15.76-28.266-25.342-54.111-34.395-87.48
			C5814.287,5228.707,5809.492,5209.311,5803.207,5190.422z" style="stroke:black;fill:#b3c0df"/><path id="180624128" parent_id="180624123" order="90" structure_id="1097" d="M4944.253,4811.784
			c135.397-13.655,220.728-75.252,278.913-196.685c25.786-53.84,45.132-142.127,77.368-137.81
			c45.188,6.028,104.78,11.586,165.487,30.146c40.854,12.481,89.508,29.234,75.229,49.521
			c-25.794,36.6-80.255,118.125-128.958,204.57c-47.954,85.11-43.083,194.565-30.86,287.529
			c17.362,132.059-10.295,204.449,16.654,310.784c38.115,150.373,112.417,266.981,204.018,396.301
			c41.578,58.696,85.354,112.633,143.644,171.036c51.272,51.371,102.008,77.175-8.327,83.434
			c-56.705,3.217-119.598-4.084-172.537,21.379c-89.477,43.035-163.777,132.74-167.634,221.795
			c-2.146,49.521,38.685,68.896,36.537,118.418c-1.521,34.953-49.207,77.761-49.207,77.761
			c-174.14-49.487-361.867-113.577-440.325-218.179L4944.253,4811.784L4944.253,4811.784z" style="stroke:black;fill:#e64438"/><path id="180624133" parent_id="180624123" order="91" structure_id="72" d="M5175.333,5165.863
			c74.944,100.119,158.771-190.931,158.217-254.467c-0.813-92.695-64.577-86.764-114.304-8.424
			C5187.693,4952.682,5134.38,5111.152,5175.333,5165.863z" style="stroke:black;fill:#ff5547"/><path id="180624129" parent_id="180624123" order="92" structure_id="263" d="M5181.579,6227.535
			c26.331,56.137,84.751,173.604,156.135,104.29c117.328-113.913-40.61-351.782-131.153-425.503
			c-41.164-33.52-79.328-28.695-87.437,29.201C5102.471,6054.414,5153.271,6167.178,5181.579,6227.535z" style="stroke:black;fill:#ff5547"/><path id="180624131" parent_id="180624123" order="93" structure_id="452" d="M5075.361,5952.21
			c5.313-155.399-10.881-189.808-32.646-298.271c-7.642-38.09-26.015-84.276-37.797-122.074
			c-13.7-43.98-36.761-85.504-60.667-125.262v566.807C5007.55,5995.573,5071.079,6077.404,5075.361,5952.21z" style="stroke:black;fill:#ff5547"/><path id="180624132" parent_id="180624123" order="94" structure_id="523" d="M5427.799,5815.369
			c-46.498-90.73-89.121-187.686-125.568-283.152c-32.084-84.076-56.393-161.93-113.98-234.41
			c-52.684-66.297-156.807-171.806-243.996-191.606v300.405c23.906,39.758,46.967,81.279,60.667,125.261
			c11.783,37.798,30.155,83.985,37.797,122.075c21.765,108.463,37.959,142.869,32.646,298.27c-0.439,12.879-1.51,23.563-3.14,32.351
			c1.166-1.097,2.324-2.317,3.476-3.649c8.154-18.574,20.682-41.539,36.562-59.77c0.372-0.455,0.74-0.891,1.104-1.291
			c0.524-0.579,1.059-1.15,1.595-1.721c21.278-23.136,48.199-37.271,78.476-21.883c55.289,28.104,100.957,105.096,130.881,156.422
			c1.42,2.437,2.826,4.887,4.217,7.348c6.476,11.445,12.613,23.158,18.254,35.109c0.139,0.295,0.283,0.586,0.422,0.881
			c0.592,1.26,1.16,2.528,1.738,3.793c0.559,1.219,1.128,2.433,1.676,3.655c0.548,1.226,1.07,2.458,1.607,3.688
			c0.556,1.271,1.123,2.541,1.664,3.817c0.595,1.397,1.16,2.806,1.737,4.208c0.462,1.121,0.938,2.236,1.39,3.359
			c0.564,1.412,1.104,2.834,1.652,4.252c0.438,1.125,0.887,2.246,1.313,3.375c0.922,2.444,1.813,4.898,2.682,7.359
			c0.038,0.107,0.08,0.215,0.117,0.322c0.729,2.07,1.424,4.151,2.111,6.233c0.168,0.504,0.348,1.004,0.512,1.509
			c0.705,2.163,1.375,4.337,2.035,6.514c0.131,0.43,0.273,0.854,0.4,1.283c1.172,3.914,2.27,7.85,3.287,11.804
			c1.02,3.955,1.959,7.931,2.816,11.925c0.133,0.621,0.259,1.243,0.379,1.868c0.027,0.146,0.053,0.294,0.08,0.44
			c0.086,0.463,0.172,0.928,0.252,1.394c6.298,36.763-8.193,80.017,25.62,102.981c-2.22-7.818-3.448-16.332-3.028-26.002
			c3.854-89.055,78.156-178.76,167.633-221.795c3.336-1.604,6.686-3.059,10.045-4.379
			C5514.4,5953.249,5472.02,5901.678,5427.799,5815.369z" style="stroke:black;fill:#ff5547"/><path id="180624130" parent_id="180624123" order="95" structure_id="763" d="M5018.803,6266.77
			c17.768-38.299,3.885-85.553-2.18-124.774c-9.576-61.979-19.546-111.869-72.37-146.368v236.161
			c13.657,18.208,30.634,35.187,50.265,51.075C5003.824,6284.566,5012.402,6280.563,5018.803,6266.77z" style="stroke:black;fill:#ff5547"/><path id="180624134" parent_id="180624123" order="96" structure_id="226" d="M5663.133,5842.462
			c-90.551-128.595-187.5-258.737-240.131-410.462c-20.411-58.859-39.488-138.9-39.587-194.949
			c-0.153-87.555,7.376-141.225-6.953-227.05c-13.767-82.431-5.595-174.955,35.821-248.464
			c48.711-86.453,103.172-167.979,128.967-204.578c14.278-20.287-34.375-37.04-75.229-49.521
			c-60.707-18.561-120.298-24.117-165.487-30.146c-32.235-4.317-51.582,83.97-77.367,137.81
			c-58.187,121.433-143.516,183.028-278.914,196.685v294.415c87.189,19.802,191.313,125.311,243.996,191.607
			c57.59,72.479,81.897,150.332,113.98,234.408c36.448,95.47,79.07,192.424,125.568,283.153
			c44.222,86.31,86.604,137.88,147.129,212.245c67.631-26.57,139.953,1.648,202.047-23.259
			C5860.245,6014.784,5698.8,5893.115,5663.133,5842.462z M5175.333,5165.863c-40.953-54.711,12.36-213.183,43.913-262.892
			c49.727-78.339,113.49-84.271,114.305,8.425C5334.104,4974.934,5250.277,5265.982,5175.333,5165.863z" style="stroke:black;fill:#f2483b"/><path id="180624225" parent_id="180624123" order="97" structure_id="1009" d="M8154.674,5878.882
			c-20.037,21.411-39.635,39.06-62.607,57.506c-17.054,13.671-83.572,64.563-170.049,107.711
			c-61.227,30.538-133.187,65.336-190.934,103.476c-131.29,86.668-132.08-13.721-24.98-88.986
			c77.06-54.15,166.78-84.523,250.906-125.68c50.199-24.557,147.393-94.789,199.813-54.025" style="stroke:black;fill:#cccccc"/><path id="180624226" parent_id="180624123" order="98" structure_id="1009" d="M5756.879,4760.096
			c57.723-0.342,109.197,84.361,122.428,124.888c14.711,45.041,58.242,164.827,35.188,211.041
			c-73.978,148.222-368.535-38.944-352.125-176.625C5573.486,4826.124,5669.207,4760.616,5756.879,4760.096z" style="stroke:black;fill:#cccccc"/><path id="180624227" parent_id="180624123" order="99" structure_id="1009" d="M4944.416,2674.255
			c71.447,13.933,149.475,10.429,228.665-4.422c19.235-3.504,38.472-7.677,57.707-12.515c39.972-9.846,79.94-22.276,119.163-36.209
			c19.984-7.093,38.555-14.351,55.958-21.859c71.28-30.453,122.493-63.659,163.214-99.868
			c85.104-75.756,124.741-164.694,206.516-269.233c4.996-6.509,10.242-13.017,15.654-19.607c6.911-8.426,15.154-15.352,24.73-21.023
			c11.574-7.009,25.064-12.015,40.055-15.353c142.313-31.871,422.021,87.021,577.075,141.167
			c55.209,19.273,106.089,35.876,155.719,51.479c99.427,31.371,193.524,58.818,305.69,96.363
			c80.774,27.115,161.549,58.653,236.992,101.787c36.058,20.607,70.864,43.803,104.008,70.5
			c151.389,121.811,208.181,187.723,306.44,333.812c15.071,22.526,31.228,47.056,48.881,73.921
			c34.476,52.646,101.425,164.193,169.042,302.856c58.374,119.392,117.247,258.89,156.468,398.22
			c20.651,73.086,35.808,146.172,42.72,216.256c0.5,5.006,0.998,10.096,1.416,15.102c2.33,25.196,4.08,50.227,5.412,75.089
			c0.666,10.931,1.166,21.858,1.582,32.705c0.25,6.175,0.5,12.433,0.666,18.605l-19.152,0.584
			c-5.496-195.647-117.163-437.017-157.551-542.642c-65.951-172.287-217.839-433.512-318.1-545.478
			c-143.978-160.69-280.793-272.405-472.817-358.924c-90.601-40.798-184.781-80.929-280.544-107.21
			c-129.154-35.542-261.225-39.797-395.792-39.213c-93.183,0.333-272.883,53.063-447.004,146.423
			c-130.571,69.999-249.649,161.274-313.853,185.219c-123.16,45.888-193.607,61.239-272.217,77.509
			c-140.063,28.95-245.152,36.543-346.744,40.214V2674.255L4944.416,2674.255z" style="stroke:black;fill:#cccccc"/><path id="180624224" parent_id="180624123" order="100" structure_id="81" d="M5423.035,2980.716
			c-68.757-50.101-131.861-62.428-131.861-62.428c60.901-12.922,133.676-27.058,181.256-45.219
			c45.125-17.225,122.631-45.358,161.104-70.07c121.825-78.25,240.032-156.394,408.764-222.08
			c72.66-28.281-273.554,119.827-334.127,393.335c-10.492,47.338-34.781,141.166-31.528,258.402
			c4.383,157.103,57.601,324.731,68.771,396.212c14.582,93.2,29.383,201.687,40.125,298.603
			c17.865,161.111,25.795,358.889-5.732,476.604c-23.16,7.315-0.887-84.522,4.302-183.028c3.952-75.187-2.528-175.793-8.597-217.492
			c-24.063-165.561-30.779-307.508-64.479-473.736c-8.727-43.069-20.297-84.466-33.941-125.034
			c-30.033-89.257-70.123-174.506-112.207-264.717C5541.486,3089.878,5493.963,3032.396,5423.035,2980.716z" style="stroke:black;fill:#aaaaaa"/></g>
</g>
</svg>