<?xml version="1.0" encoding="utf-8"?>
<!-- Generator: Adobe Illustrator 16.0.0, SVG Export Plug-In . SVG Version: 6.00 Build 0)  -->
<!DOCTYPE svg PUBLIC "-//W3C//DTD SVG 1.1//EN" "http://www.w3.org/Graphics/SVG/1.1/DTD/svg11.dtd">
<svg version="1.1" id="Layer_1" xmlns="http://www.w3.org/2000/svg" xmlns:xlink="http://www.w3.org/1999/xlink" x="0px" y="0px"
	 width="9744.01px" height="6823.46px" viewBox="0 0 9744.01 6823.46" enable-background="new 0 0 9744.01 6823.46"
	 xml:space="preserve">
<g transform="scale(1.0)">
	<g id="_x31_82599275" transform=" scale(1.0, 1.0)">
		<path id="_x31_82599277" fill="none" stroke="#010101" stroke-width="64" d="M8774.672,3000.671
			c-23.014-166.848-57.525-219.044-138.619-320.581c-97.195-121.757-85.289-329.608-147.496-474.237
			c-40.225-93.514-93.275-185.165-140.203-268.23c-45.441-80.435-114.486-152.008-168.73-220.031
			c-350.078-438.989-842.365-661.675-1323.797-824.054c-219.641-74.074-430.518-137.627-649.758-171.003
			c-185.887-28.292-377.092-36.609-569.707-63.234c-445.889-6.531-472.201-8.769-658.442,235.39
			c-4.89,8.396-130.434,137.196-133.857,145.71c0.936,51.037,10.585,641.882,25.942,1413.989l53.674,2748.234
			c-1.355-2.431-2.479-3.736-3.324-3.719l16.629,905.946c0,0,0.708,0.381,2.018,1.075c-0.369,0.012-0.754,0.023-1.115,0.037
			l5.598,305.087c74.494-7.403,572.326-19.216,583.689-97.878c9.104-63.029-90.95-112.562-212.406-147.395
			c30.92,3.401-4.105-38.963-43.092-67.19c57.785,11.021,121.381,11.995,190.504,6.954c169.35-12.34,252.589-6.749,339.234,24.248
			c65.102,23.275,116.371,84.596,198.811,150.854c66.162,53.156,156.48,109.629,259.01,151.35
			c256.434,104.367,373.504,1.283,580.102-126.017c199.223-122.771,293.736-209.531,409.693-415.104
			c12.359-18.174,50.076,3.762,87.043-5.295c56.455-13.843,119.641-56.741,154.346-85.723
			c162.592-135.809,324.85-291.281,455.174-436.951c109.184-122.055,200.701-255.003,286.25-393.932
			c113.451-184.209,263.332-453.832,404.949-908.383c51.91-166.545,118.379-373.611,147.459-545.707
			C8811.104,3355.981,8796.594,3159.542,8774.672,3000.671z"/>
		<path id="_x31_82599278" fill="none" stroke="#010101" stroke-width="64" d="M7660.807,3464.205
			c23.303,83.398,43.697,168.111,61.51,252.873c11.885,56.553,24.51,113.138,30.406,170.705c2.334,22.74,7.1,52.723,0.439,74.797
			c-6.77,22.447,0.762,49.32,1.535,72.307c2.881,85.417,10.469,173.504,6.586,258.447c-6.299,137.999-62.777,264.676-147.189,373.3
			c-37.512,48.243-92.615,86.007-122.406,139.808c-27.629,49.895-34.314,109.791-63.518,160.095
			c-21.836,37.599-58.654,64.163-93.693,88.481c-63.863,44.328-138.52,70.447-206.998,106.456
			c-59.594,31.341-111.393,78.019-149.197,133.466c-39.271,57.62-52.744,126.428-89.33,185.671
			c-26.111,42.282-54.994,66.289-9.129,95.162c48.836,30.745,65.455,28.995,114.572,58.578
			c94.979,57.181,144.971,101.847,193.354,139.567c36.365,28.364,62.934,84.877,102.445,106.309
			c64.262,34.822,154.137-41.887,200.217-80.364c162.592-135.812,324.852-291.282,455.176-436.954
			c109.182-122.053,200.699-255.003,286.252-393.929c113.451-184.212,263.332-453.835,404.945-908.386
			c51.906-166.545,118.381-373.609,147.459-545.706c26.861-158.9,12.352-355.339-9.57-514.21
			c-23.014-166.849-57.525-219.045-138.617-320.582c-97.197-121.758-85.291-329.609-147.498-474.237
			c-40.225-93.515-93.275-185.165-140.203-268.232c-45.441-80.433-114.484-152.005-168.73-220.031
			c-350.078-438.988-842.365-661.673-1323.797-824.054c-219.641-74.074-430.516-137.627-649.758-171.002
			c-185.887-28.292-377.092-36.609-569.707-63.235c-445.889-6.531-472.201-8.77-658.441,235.39
			c-4.891,8.396-130.435,137.197-133.858,145.71c0.673,39.287,25.942,1413.989,25.942,1413.989
			c116.124,11.167,218.422,20.239,310.424-20.468c143.291-63.401,290.563-150.875,386.01-269.424
			c62.764-77.977,85.292-133.444,138.3-146.919c82.11-20.867,183.47,8.711,288.476,38.07
			c103.242,28.868,210.146,57.113,288.158,84.534c230.795,81.085,291.779,112.415,419.193,164.23
			c154.771,62.939,216.396,103.775,269.686,139.509c55.465,37.188,104.492,77.408,155.846,120.995
			c71.078,60.324,169.773,156.956,223.254,233.396C7467.086,2966.551,7606.232,3268.881,7660.807,3464.205"/>
		<path id="_x31_82599358" fill="none" stroke="#010101" stroke-width="64" d="M5921.469,690.055
			c95.865,9.001,190.91,18.245,284.627,32.502c173.902,26.492,342.602,71.927,514.549,126.6l-1.422,4.347l-45.686,128.252
			c-235.213-55.725-470.736-95.438-693.863-133.773c-22.857-3.911-47.367-8.384-73.162-13.126L5921.469,690.055z"/>
		<path id="_x31_82599357" fill="none" stroke="#010101" stroke-width="64" d="M6339.01,1370.213
			c-115.707-24.292-298.684-59.227-409.08-100.604c-20.678-7.751-42.713-16.073-65.647-24.374l-0.001-0.075l42.232-410.305
			c25.793,4.744,50.307,9.217,73.162,13.127c223.127,38.337,458.65,78.049,693.867,133.773l-151.455,424.957
			C6461.049,1392.584,6397.912,1382.523,6339.01,1370.213z"/>
		<path id="_x31_82599356" fill="none" stroke="#010101" stroke-width="64" d="M6153.338,1748.1
			c-101.316-24.446-214.045-90.56-327.355-131.279l-0.003-0.074l38.298-371.513c22.936,8.301,44.973,16.622,65.648,24.375
			c110.4,41.375,293.377,76.312,409.08,100.604c58.906,12.311,122.043,22.372,183.08,36.499l-144.258,404.781
			C6303.799,1787.665,6228.99,1766.385,6153.338,1748.1z"/>
		<path id="_x31_82599355" fill="none" stroke="#010101" stroke-width="64" d="M6148.348,2006.956
			c-76.672-28.982-230.854-107.847-349.781-123.734l27.416-266.401c113.309,40.718,226.035,106.834,327.355,131.279
			c75.652,18.285,150.461,39.565,224.49,63.393l-88.303,247.952l-0.074,0.002C6242.67,2042.192,6195.736,2024.868,6148.348,2006.956
			z"/>
		<path id="_x31_82599354" fill="none" stroke="#010101" stroke-width="64" d="M6262.938,2133.848
			c-75.932-25.425-174.359-51.57-269.725-78.223c-77.744-21.74-153.459-43.597-220.934-45.006l13.752-6.021l12.535-121.375
			c118.928,15.887,273.109,94.751,349.781,123.734c47.389,17.912,94.322,35.236,141.1,52.49l-26.367,74.102L6262.938,2133.848z"/>
		<path id="_x31_82599363" fill="none" stroke="#010101" stroke-width="64" d="M5921.469,690.055l-14.955,144.8
			c-202.875-37.197-484.275-89.94-652.34-10.628c-218.66,103.155-306.692,329.218-295.49,555.724
			c0.096,1.336,0.121,2.677,0.221,4.013l-105.132-89.276l-5.318,0.115c-2.515-145.179-4.027-235.815-4.366-254.418
			c3.437-8.484,129.002-137.297,133.869-145.735c186.246-244.133,212.518-241.931,658.393-235.373
			C5731.914,672.45,5827.102,681.171,5921.469,690.055z"/>
		<path id="_x31_82599362" fill="none" stroke="#010101" stroke-width="64" d="M5906.512,834.855l-42.235,410.306
			c-144.78-52.71-326.991-107.167-457.517-36.535c-90.751,49.101-95.002,103.458-123.573,208.571
			c-18.753,68.581-34.554,134.495-48.394,201.185l-275.891-234.418c-0.098-1.337-0.124-2.677-0.223-4.013
			c-11.202-226.506,76.832-452.569,295.493-555.724C5422.236,744.915,5703.639,797.655,5906.512,834.855z"/>
		<path id="_x31_82599361" fill="none" stroke="#010101" stroke-width="64" d="M5825.979,1616.747
			c-85.624-30.804-171.507-47.163-253.073-20.214c-79.705,26.314-132.143,88.83-168.272,166.04l-169.839-144.192
			c13.842-66.691,29.639-132.604,48.393-201.185c28.572-105.115,32.824-159.47,123.576-208.571
			c130.525-70.632,312.735-16.177,457.516,36.534v0.076L5825.979,1616.747z"/>
		<path id="_x31_82599360" fill="none" stroke="#010101" stroke-width="64" d="M5572.906,1596.534
			c81.569-26.95,167.449-10.591,253.076,20.213v0.075l-27.41,266.4c-41.094-5.613-78.006-3.572-106,10.564
			c-20.344,10.328-37.818,38.164-52.775,68.551l-235.158-199.69l-0.004-0.075
			C5440.767,1685.363,5493.201,1622.851,5572.906,1596.534z"/>
		<path id="_x31_82599359" fill="none" stroke="#010101" stroke-width="64" d="M5798.566,1883.222l-12.535,121.375l-13.752,6.021
			c-23.616-0.47-46.211,1.492-67.545,6.929l-64.938-55.134v-0.076c14.954-30.388,32.429-58.224,52.774-68.551
			C5720.568,1879.649,5757.479,1877.608,5798.566,1883.222z"/>
		<path id="_x31_82599341" fill="none" stroke="#010101" stroke-width="64" d="M8560.732,2767.115
			c-12.908-25.56-25.963-50.966-38.279-76.835c-32.033-67.29-43.91-146.764-51.77-219.923
			c-21.584-200.162-135.998-390.778-247.449-554.88c-129.322-190.527-291.395-352.449-479.109-486.292
			c-9.945-7.085-19.893-14.098-29.908-20.885l52.947-75.55l1.24-1.74c150.049,106.943,289.291,233.615,411.254,386.554
			c54.232,68.014,123.293,139.587,168.688,220.07c46.936,83.054,100.027,174.691,140.266,268.233
			c62.156,144.594,50.307,352.454,147.49,474.205c12.428,15.52,23.711,29.947,34.078,43.725L8560.732,2767.115z"/>
		<path id="_x31_82599340" fill="none" stroke="#010101" stroke-width="64" d="M8560.732,2767.115l-208.543,82.545
			c-29.51-96.82-66.219-190.215-107.996-273.899c-74.072-148.587-148.943-263.213-261.277-385.388
			c-81.588-88.731-134.826-200.536-221.275-284.324c-76.451-74.096-165.109-139.677-257.535-198.03l210.107-299.718
			c10.014,6.787,19.963,13.799,29.908,20.884c187.713,133.841,349.789,295.766,479.109,486.292
			c111.453,164.102,225.867,354.719,247.447,554.878c7.859,73.159,19.738,152.633,51.773,219.923
			C8534.77,2716.148,8547.824,2741.556,8560.732,2767.115z"/>
		<path id="_x31_82599339" fill="none" stroke="#010101" stroke-width="64" d="M8122.354,2719.756
			c-27.162-99.847-91.432-179.934-141.373-271.412c-44.355-81.175-226.223-337.74-517.031-555.913
			c-19.68-14.772-39.355-29.247-58.797-43.206l-0.002-0.074l98.957-141.132c92.424,58.353,181.086,123.931,257.535,198.028
			c86.447,83.79,139.686,195.595,221.275,284.326c112.332,122.175,187.203,236.801,261.275,385.389
			c41.777,83.684,78.486,177.079,107.996,273.898l-170.979,67.612C8160.896,2851.596,8140.432,2785.999,8122.354,2719.756z"/>
		<path id="_x31_82599338" fill="none" stroke="#010101" stroke-width="64" d="M7924.449,3018.845
			c-156.236-362.584-359.625-685.024-732.164-865.004c-0.15-0.07-0.375-0.139-0.529-0.212l-0.002-0.074l213.398-304.328
			c19.441,13.96,39.117,28.433,58.801,43.206c290.805,218.173,472.672,474.738,517.027,555.914
			c49.941,91.479,114.213,171.564,141.373,271.412c18.078,66.244,38.543,131.84,58.857,197.515L7924.449,3018.845z"/>
		<path id="_x31_82599337" fill="none" stroke="#010101" stroke-width="64" d="M7636.219,3132.915
			c-15.521-28.853-31.262-57.776-47.457-86.84c-50.992-91.532-109.344-188.043-174.807-271.752
			c-106.436-135.849-223.668-239.163-356.172-349.822c-11.57-9.657-23.584-19.08-36.043-28.349l170.014-242.523
			c0.152,0.071,0.377,0.14,0.531,0.212c372.539,179.981,575.928,502.419,732.164,865.004v0.073L7636.219,3132.915z"/>
		<path id="_x31_82599336" fill="none" stroke="#010101" stroke-width="64" d="M7549.688,3167.19
			c-60.889-136.806-134.004-274.097-200.344-368.878c-53.486-76.44-152.158-173.072-223.188-233.439
			c-47.582-40.387-93.156-77.84-143.705-112.656l0.877-1.284l38.416-54.775c12.461,9.265,24.471,18.69,36.041,28.347
			c132.504,110.66,249.734,213.975,356.172,349.823c65.461,83.707,123.812,180.218,174.805,271.751
			c16.199,29.063,31.939,57.987,47.459,86.841L7549.688,3167.19z"/>
		<path id="_x31_82599353" fill="none" stroke="#010101" stroke-width="64" d="M7058.936,1090.523
			c-126.91-42.74-256.086-78.214-385.396-108.768l45.686-128.252l1.42-4.346c44.773,14.167,89.791,29.078,135.186,44.352
			c82.799,27.96,166.004,57.7,248.656,89.981L7058.936,1090.523z"/>
		<path id="_x31_82599352" fill="none" stroke="#010101" stroke-width="64" d="M6926.674,1401.332
			c-106.832-42.938-372.592-145.958-378.691-37.374c-1.338,25.115,33.41,48.354,70.395,66.634l-1.068,3.148
			c-30.477-10.822-62.561-19.527-95.223-27.03l151.453-424.957c129.311,30.557,258.49,66.028,385.4,108.767L6926.674,1401.332z"/>
		<path id="_x31_82599351" fill="none" stroke="#010101" stroke-width="64" d="M6869.484,1535.633
			c-67.877-27.455-133.01-52.14-174.881-71.583c-14.965-6.98-46.277-18.604-76.227-33.457
			c-36.984-18.279-71.732-41.518-70.395-66.635c6.102-108.586,271.859-5.564,378.693,37.375l0.002,0.073l-57.117,134.223
			L6869.484,1535.633z"/>
		<path id="_x31_82599350" fill="none" stroke="#010101" stroke-width="64" d="M6694.604,1464.05
			c41.871,19.443,107.004,44.128,174.881,71.582l-168.041,395.083c-106.475-43.84-214.234-84.228-323.615-119.222l144.26-404.782
			c32.66,7.501,64.746,16.206,95.223,27.03l1.066-3.15C6648.32,1445.446,6679.637,1457.07,6694.604,1464.05z"/>
		<path id="_x31_82599349" fill="none" stroke="#010101" stroke-width="64" d="M6597.055,2176.03
			c-103.355-41.525-204.99-78.839-307.529-116.584l88.305-247.954c109.383,34.996,217.141,75.383,323.613,119.224L6597.055,2176.03z
			"/>
		<path id="_x31_82599348" fill="none" stroke="#010101" stroke-width="64" d="M6597.055,2176.03l-30.822,72.332
			c-67.59-28.205-145.123-59.106-284.816-108.203c-5.959-2.106-12.143-4.209-18.477-6.311l0.145-0.3l26.367-74.1l0.074-0.001
			C6392.064,2097.191,6493.699,2134.505,6597.055,2176.03z"/>
		<path id="_x31_82599347" fill="none" stroke="#010101" stroke-width="64" d="M7714.217,1408.301
			c-202.727-139.404-425.363-240.504-655.277-317.778l45.549-107.032c230.527,90.062,457.443,200.079,663.918,347.522l-1.242,1.738
			L7714.217,1408.301z"/>
		<path id="_x31_82599346" fill="none" stroke="#010101" stroke-width="64" d="M7504.109,1708.019
			c-63.541-40.201-128.965-76.938-193.357-110.646c-119.707-62.618-215.812-133.697-345.426-180.625
			c-6.939-2.532-20.455-8.056-38.648-15.341l-0.002-0.073l132.264-310.811c229.916,77.274,452.551,178.373,655.277,317.78
			L7504.109,1708.019z"/>
		<path id="_x31_82599345" fill="none" stroke="#010101" stroke-width="64" d="M7310.748,1597.373
			c64.398,33.708,129.82,70.444,193.359,110.646l-98.957,141.133c-157.137-113.418-301.74-201.564-349.6-228.55
			c-52.098-29.427-120.305-58.437-185.99-84.972l57.115-134.223c18.195,7.285,31.709,12.808,38.65,15.34
			C7094.939,1463.676,7191.043,1534.754,7310.748,1597.373z"/>
		<path id="_x31_82599344" fill="none" stroke="#010101" stroke-width="64" d="M7191.754,2153.554
			c-161.199-77.826-324.182-154.497-490.309-222.838l168.041-395.083l0.074-0.002c65.688,26.534,133.893,55.546,185.992,84.973
			c47.857,26.984,192.467,115.131,349.598,228.55l0.004,0.074L7191.754,2153.554z"/>
		<path id="_x31_82599343" fill="none" stroke="#010101" stroke-width="64" d="M6701.443,1930.717
			c166.125,68.341,329.107,145.013,490.309,222.839l0.002,0.073l-170.014,242.525c-97.412-72.765-218.658-133.414-327.5-179.883
			c-32.631-13.905-64.951-27.294-97.189-40.239L6701.443,1930.717z"/>
		<path id="_x31_82599342" fill="none" stroke="#010101" stroke-width="64" d="M6970.309,2443.907
			c-53.34-35.727-114.939-76.565-269.727-139.487c-50.285-20.455-90.172-37.706-134.35-56.058l30.82-72.332
			c32.238,12.944,64.557,26.334,97.189,40.237c108.844,46.47,230.09,107.121,327.502,179.884l-38.418,54.776l-0.879,1.284
			C6978.426,2449.393,6974.404,2446.651,6970.309,2443.907z"/>
		<path id="_x31_82599335" fill="none" stroke="#010101" stroke-width="64" d="M8670.18,2723.799
			c57.309,76.51,85.07,135.553,104.525,276.876c21.951,158.84,36.424,355.277,9.584,514.175c-2.838,16.808-6.047,33.92-9.551,51.341
			l-7.371-1.485l-90.771-0.993c1.814-7.332,3.479-14.735,5.143-22.14c44.516-200.137-18.021-422.587-59.018-618.766
			c-8.209-38.983-20.883-72.213-38.254-108.101c-7.715-15.993-15.725-31.828-23.734-47.589L8670.18,2723.799z"/>
		<path id="_x31_82599334" fill="none" stroke="#010101" stroke-width="64" d="M8560.732,2767.115
			c8.01,15.761,16.021,31.598,23.734,47.59c17.371,35.887,30.045,69.119,38.254,108.101
			c40.996,196.18,103.533,418.63,59.018,618.765c-1.664,7.404-3.328,14.81-5.143,22.142l-252.979-2.796
			c9.914-104.87,8.906-208.84,3.32-309.142c-7.252-129.671-34.164-269.124-74.748-402.114L8560.732,2767.115z"/>
		<path id="_x31_82599333" fill="none" stroke="#010101" stroke-width="64" d="M8352.189,2849.66
			c40.584,132.99,67.496,272.443,74.748,402.114c5.586,100.3,6.594,204.271-3.32,309.142l-126.453-1.436
			c0.553-10.582,0.957-21.164,1.217-31.739c2.822-115.663-24.516-270.145-52.229-383.604
			c-18.637-76.281-41.676-151.577-64.941-226.867L8352.189,2849.66z"/>
		<path id="_x31_82599332" fill="none" stroke="#010101" stroke-width="64" d="M8181.211,2917.271
			c23.266,75.29,46.305,150.585,64.941,226.865c27.713,113.459,55.051,267.942,52.229,383.605
			c-0.26,10.575-0.664,21.155-1.217,31.737l-183.945-2.015c-28.795-143.733-87.115-287.738-137.555-414.565
			c-16.58-41.708-33.604-83.112-51.211-123.981l-0.004-0.075L8181.211,2917.271z"/>
		<path id="_x31_82599331" fill="none" stroke="#010101" stroke-width="64" d="M7924.453,3018.918
			c17.611,40.869,34.631,82.272,51.211,123.983c50.438,126.824,108.76,270.831,137.555,414.562l-267.074-3.019
			c-31.42-86.883-70.148-167.504-90.277-202.737c-42.047-73.705-80.32-146.001-119.65-218.794L7924.453,3018.918z"/>
		<path id="_x31_82599330" fill="none" stroke="#010101" stroke-width="64" d="M7660.805,3464.174
			c-23.818-85.254-63.756-191.013-111.115-296.986l86.529-34.274c39.328,72.793,77.602,145.088,119.646,218.793
			c20.131,35.233,58.859,115.856,90.279,202.737l-158.158-1.738l-3.879,0.977
			C7671.986,3505.551,7662.734,3471.056,7660.805,3464.174z"/>
		<path id="_x31_82599323" fill="none" stroke="#010101" stroke-width="64" d="M8567.6,3909.168l101.539,19.898l8.545,0.192
			c-14.006,45.554-27.881,89.69-40.834,131.354c-18.471,59.269-37.074,115.414-55.736,168.587h-0.074l-1.285-0.497l-130.281-38.573
			c25.691-41.629,50.023-83.902,68.537-128.586C8538.316,4012.363,8551.373,3960.055,8567.6,3909.168z"/>
		<path id="_x31_82599322" fill="none" stroke="#010101" stroke-width="64" d="M8567.6,3909.168
			c-16.227,50.884-29.283,103.195-49.59,152.375c-18.514,44.684-42.846,86.955-68.537,128.586l-213.09-63.037
			c7.043-16.453,14.094-32.456,20.852-47.932l-0.998-5.562c4.854-0.771,10.721-3.8,17.885-9.382
			c52.377-41.448,77.66-121.481,93.865-194.177L8567.6,3909.168z"/>
		<path id="_x31_82599321" fill="none" stroke="#010101" stroke-width="64" d="M8367.986,3870.039
			c-16.205,72.694-41.488,152.725-93.865,194.177c-7.164,5.582-13.031,8.608-17.885,9.382
			c-36.607,6.275-14.326-110.911-7.514-152.068c3.979-24.129,8.033-48.258,12.086-72.463L8367.986,3870.039z"/>
		<path id="_x31_82599320" fill="none" stroke="#010101" stroke-width="64" d="M8248.723,3921.529
			c-6.812,41.16-29.094,158.35,7.514,152.068l0.998,5.564c-6.758,15.474-13.809,31.479-20.852,47.93l-163.662-48.518
			c25.9-83.173,44.639-168.801,53.23-255.924l134.857,26.416C8256.756,3873.271,8252.701,3897.4,8248.723,3921.529z"/>
		<path id="_x31_82599319" fill="none" stroke="#010101" stroke-width="64" d="M8125.951,3822.647
			c-8.592,87.126-27.33,172.753-53.23,255.927l-162.984-48.16l-0.002-0.076c-11.432-47.178-42.312-88.287-70.75-126.921
			c-19.6-26.608-50.357-81.418-88.268-85.016c-10.678,18.464-0.785,38.874-16.6-42.829l2.912-0.579
			c29.684,20.813,103.762,96.226,131.488,71.6c16.518-14.713,24.314-39.071,25.631-69.394L8125.951,3822.647z"/>
		<path id="_x31_82599318" fill="none" stroke="#010101" stroke-width="64" d="M7868.518,3846.593
			c-27.727,24.626-101.805-50.786-131.488-71.6l-2.912,0.579c-1.904-9.782-3.881-19.644-5.863-29.575l3.285-0.663l162.609,31.865
			C7892.832,3807.526,7885.035,3831.88,7868.518,3846.593z"/>
		<path id="_x31_82599329" fill="none" stroke="#010101" stroke-width="64" d="M8676.596,3563.712l90.771,0.993l7.371,1.485
			c-23.422,116.245-60.566,244.313-97.055,363.068l-8.545-0.192l-101.539-19.898c3.326-10.566,6.811-21.061,10.586-31.489
			C8615.123,3775,8651.344,3670.021,8676.596,3563.712z"/>
		<path id="_x31_82599328" fill="none" stroke="#010101" stroke-width="64" d="M8676.596,3563.712
			c-25.252,106.31-61.473,211.288-98.41,313.968c-3.775,10.43-7.26,20.922-10.586,31.49l-199.613-39.128
			c9.76-44.05,16.193-85.351,23.24-113.785c16.049-64.95,26.316-130.303,32.391-195.341L8676.596,3563.712z"/>
		<path id="_x31_82599327" fill="none" stroke="#010101" stroke-width="64" d="M8423.617,3560.915
			c-6.074,65.038-16.342,130.39-32.393,195.339c-7.045,28.434-13.479,69.736-23.238,113.785l-107.178-20.973
			c16-95.914,31.537-192.642,36.355-289.586L8423.617,3560.915z"/>
		<path id="_x31_82599326" fill="none" stroke="#010101" stroke-width="64" d="M8297.164,3559.48
			c-4.818,96.944-20.355,193.672-36.355,289.586l-134.857-26.419c2.852-28.421,4.578-57.044,5.098-85.714
			c1.094-58.904-5.783-119.128-17.83-179.473L8297.164,3559.48z"/>
		<path id="_x31_82599325" fill="none" stroke="#010101" stroke-width="64" d="M8113.219,3557.465
			c12.047,60.341,18.924,120.564,17.83,179.473c-0.52,28.67-2.246,57.291-5.098,85.713l-231.803-45.447
			c2.717-60.204-19.654-144.073-48.004-222.758L8113.219,3557.465z"/>
		<path id="_x31_82599324" fill="none" stroke="#010101" stroke-width="64" d="M7846.145,3554.445
			c28.35,78.68,50.721,162.551,48.004,222.754l-162.609-31.865l-3.285,0.663c-13.99-68.188-30.797-138.701-44.15-192.315
			l3.883-0.974L7846.145,3554.445z"/>
		<path id="_x31_82599368" fill="none" stroke="#010101" stroke-width="64" d="M4853.771,1294.688l105.132,89.275
			c4.801,94.215,17.896,187.138,18.567,280.769c0.208,27.761,2.233,52.432,5.134,79.691l-126.662-57.708l-0.523,0.011
			c-2.836-154.55-5.124-287.378-6.965-391.924L4853.771,1294.688z"/>
		<path id="_x31_82599367" fill="none" stroke="#010101" stroke-width="64" d="M5195.873,1841.622l-213.27-97.2
			c-2.897-27.258-4.924-51.93-5.134-79.69c-0.671-93.631-13.767-186.554-18.567-280.769l275.892,234.417
			C5219.777,1690.382,5207.102,1763.301,5195.873,1841.622z"/>
		<path id="_x31_82599366" fill="none" stroke="#010101" stroke-width="64" d="M5354.654,1913.991l-158.781-72.369
			c11.229-78.321,23.904-151.24,38.922-223.241l169.844,144.192v0.074C5382.711,1809.262,5366.88,1861.328,5354.654,1913.991z"/>
		<path id="_x31_82599365" fill="none" stroke="#010101" stroke-width="64" d="M5354.654,1913.991
			c12.223-52.664,28.055-104.731,49.984-151.345l235.162,199.69v0.075c-11.562,23.395-21.598,48.243-30.385,67.709
			L5354.654,1913.991z"/>
		<path id="_x31_82599364" fill="none" stroke="#010101" stroke-width="64" d="M5646.975,2047.197l-37.559-17.076
			c8.788-19.463,18.823-44.313,30.385-67.709l64.937,55.135c-21.485,5.438-38.046,17.846-54.202,35.903l-3.483-6.18
			L5646.975,2047.197z"/>
		<path id="_x31_82599373" fill="none" stroke="#010101" stroke-width="64" d="M5008.146,2442.202
			c3.803-33.8-57.319-23.956-75.26-21.419c-11.882,1.739-53.444,7.375-58.603,20.438c-3.723,9.383,2.488,12.975,10.537,14.593
			c-4.881-0.494-9.836-0.911-14.791-1.4c-5.717-287.142-10.598-549.14-14.606-767.685l0.523-0.012l126.66,57.709
			c0.189,2.005,0.376,4.087,0.642,6.166c5.746,51.911,11.313,110.303,4.025,162.415c-8.215,58.608-41.895,110.084-44.452,170.88
			c-4.211,101.252,60.128,279.148,79.669,375.957l-0.005,3.87c-15.061,0.241-30.354-0.106-45.958-0.896
			C4990.684,2462.518,5006.279,2458.767,5008.146,2442.202z"/>
		<path id="_x31_82599372" fill="none" stroke="#010101" stroke-width="64" d="M5022.485,2459.84
			c-19.536-96.806-83.878-274.704-79.667-375.956c2.557-60.796,36.236-112.271,44.453-170.88
			c7.285-52.111,1.723-110.503-4.029-162.417c-0.264-2.078-0.449-4.159-0.639-6.165l213.27,97.202
			c-0.738,4.705-1.4,9.409-2.061,14.187c-19.901,140.663-47.521,318.111-40.896,479.134c1.256,31.685,5.285,63.533,11.402,94.669
			l3.62,9.452c-45.759,17.935-94.133,24.237-145.459,24.645L5022.485,2459.84z"/>
		<path id="_x31_82599371" fill="none" stroke="#010101" stroke-width="64" d="M5312.046,2164.929
			c-13.62,82.764-4.94,147.494-48.427,227.834l0.619,1.253c-27.84,14.283-55.851,27.525-83.803,39.873
			c-4.166,1.8-8.324,3.6-12.496,5.176l-3.62-9.453c-6.117-31.135-10.146-62.985-11.402-94.669
			c-6.628-161.022,20.994-338.47,40.896-479.134c0.66-4.778,1.325-9.481,2.061-14.187l158.781,72.368
			C5333.891,2003.606,5323.504,2095.012,5312.046,2164.929z"/>
		<path id="_x31_82599370" fill="none" stroke="#010101" stroke-width="64" d="M5600.608,2048.469
			c-14.124,26.722-58.784,125.028-85.52,162.808l4.886,4.736c-71.831,71.558-162.336,130.257-255.734,178l-0.621-1.251
			c43.489-80.34,34.811-145.07,48.428-227.835c11.457-69.916,21.846-161.324,42.609-250.937l254.76,116.129
			C5606.321,2037.034,5603.359,2043.274,5600.608,2048.469z"/>
		<path id="_x31_82599369" fill="none" stroke="#010101" stroke-width="64" d="M5515.089,2211.279
			c26.735-37.781,71.399-136.087,85.52-162.81c2.751-5.193,5.713-11.435,8.808-18.348l37.559,17.076l0.074,0.073l3.486,6.179
			c-23.725,26.33-46.776,64.704-84.07,111.044c-14.361,17.869-29.936,35.021-46.49,51.521L5515.089,2211.279z"/>
		<path id="_x31_82599317" fill="none" stroke="#010101" stroke-width="64" d="M8579.754,4228.702l1.285,0.495
			c-56.469,161.307-113.428,295.752-167.93,409.373c0.146-0.299,0.215-0.672,0.359-0.975
			c39.771-111.602-16.469-158.357-99.023-201.58l1.738-3.24c14.969-37.836,32.807-74.461,52.465-110.083
			c24.805-44.886,53.533-88.368,80.824-132.563L8579.754,4228.702z"/>
		<path id="_x31_82599316" fill="none" stroke="#010101" stroke-width="64" d="M8449.473,4190.126
			c-27.291,44.196-56.02,87.678-80.824,132.563c-19.658,35.625-37.496,72.25-52.465,110.083l-1.738,3.238
			c-14.531-7.587-29.879-15.153-45.688-22.862c-42.648-20.912-87.393-37.316-132.705-52.145l1.354-3.9
			c33.312-75.586,67.414-156.996,98.977-230.018L8449.473,4190.126z"/>
		<path id="_x31_82599315" fill="none" stroke="#010101" stroke-width="64" d="M8236.383,4127.092
			c-31.562,73.02-65.664,154.428-98.977,230.016l-1.354,3.898c-29.777-9.793-59.775-18.842-89.543-27.967
			c-16.049-4.948-44.451-17.008-63.287-10.284l-2.746-10.733c35.5-74.814,67.191-152.975,92.244-233.447L8236.383,4127.092z"/>
		<path id="_x31_82599314" fill="none" stroke="#010101" stroke-width="64" d="M8072.721,4078.574
			c-25.053,80.473-56.744,158.633-92.244,233.447l-99.139-23.971l-1.309,2.26c-23.631-13.645-50.496-19.779-79.078-25.285
			l3.848-19.062c87.723,14.53,115-124.498,108.891-192.034c-0.746-8.024-2.086-15.813-3.953-23.516L8072.721,4078.574z"/>
		<path id="_x31_82599279" fill="none" stroke="#010101" stroke-width="64" d="M8314.445,4436.016
			c-13.047-6.818-26.768-13.615-40.875-20.516c-1.602-0.783-3.203-1.564-4.812-2.351c-38.008-18.638-77.682-33.691-117.936-47.243
			c-4.914-1.651-9.838-3.289-14.77-4.9c-29.779-9.797-59.775-18.846-89.543-27.971c-16.049-4.947-44.451-17.006-63.287-10.28
			c-3.65,1.266-6.914,3.195-9.631,6.009c-17.436,17.783,5.203,63.09,10.145,83.309c29.895,122.047-6.072,257.168-114.064,330.674
			c-60.621,41.252-149.861,66.721-221.723,71.287c-32.711,2.102-73.43-3.518-109.064,2.59c-17.629,2.977-33.941,8.754-47.451,19.83
			c-35.959,29.268-31.508,71.826-51.164,111.32c-26.377,53.184-68.566,90.176-117.408,119.86
			c-80.865,49.119-186.996,68.619-255.543,127.082c-62.057,52.891-112.336,122.73-146.312,211.06
			c-17.172,44.504-98.287,140.819-41.248,169.916c69.352,35.45,131.775,72.656,192.375,113.766
			c24.592,16.684,48.893,34.013,73.223,52.134c14.143,10.53,28.293,21.317,42.531,32.409
			c56.873,44.512,68.355,126.975,154.15,110.059c44.289-12.32,91.869-41.385,126.176-66.674c1.408-1.145,2.734-2.14,4.066-3.064
			c1.33-1.067,2.66-2.063,3.916-2.983c1.902-1.482,3.742-2.946,5.553-4.395c43.123-33.518,92.893-79.724,147.221-127.146
			c90.357-78.885,169.428-159.886,169.428-159.886c-0.322-0.271-0.666-0.507-1.002-0.759
			c52.434-52.453,102.295-104.976,148.178-156.277c109.201-121.994,200.736-255.008,286.32-393.921
			c3.568-5.737,7.133-11.616,10.77-17.499c51.219-84.004,109.311-185.419,170.447-312.88c0.146-0.302,0.213-0.673,0.359-0.974
			C8453.24,4525.996,8397,4479.238,8314.445,4436.016z"/>
		<path id="_x31_82599313" fill="none" stroke="#010101" stroke-width="64" d="M8314.445,4436.016
			c-13.047-6.818-26.768-13.615-40.875-20.516c-43.082,66.039-45.34,136.603-51.502,211.314
			c-5.957,72.136-55.982,131.912-83.961,196.355c-33.084,76.215-69.246,149.829-112.686,222.084
			c-48.256,80.275-106.934,152.843-178.6,213.459c-86.586,73.217-199.748,95.442-303.326,134.361
			c-108.268,40.679-184.861,108.908-267.92,184.367c-52.66,47.848-84.047,111.323-130.225,164.141
			c14.143,10.529,28.297,21.316,42.535,32.413c56.871,44.509,68.352,126.969,154.148,110.054
			c44.291-12.317,91.869-41.384,126.178-66.673c1.404-1.146,2.73-2.14,4.064-3.062c1.332-1.071,2.662-2.065,3.918-2.987
			c1.91-1.488,3.758-2.958,5.576-4.415c-69.598,54.098-121.891,75.158-148.094,14.932
			c-21.826-50.133,386.994-360.197,463.711-302.699c52.438-52.457,102.297-104.977,148.18-156.279
			c109.201-121.992,200.738-255.008,286.322-393.921c3.566-5.734,7.129-11.613,10.771-17.497
			c51.215-84.004,109.309-185.42,170.445-312.879c0.146-0.301,0.213-0.674,0.357-0.977
			C8453.24,4525.996,8397,4479.238,8314.445,4436.016z"/>
		<path id="_x31_82599312" fill="none" stroke="#010101" stroke-width="64" d="M7275.576,5577.445
			c83.059-75.462,159.656-143.689,267.922-184.37c103.576-38.92,216.738-61.142,303.324-134.362
			c71.67-60.618,130.344-133.181,178.6-213.457c43.441-72.257,79.605-145.871,112.691-222.08
			c27.973-64.445,77.998-124.221,83.955-196.357c6.162-74.715,8.422-145.279,51.502-211.318c-1.602-0.781-3.201-1.562-4.809-2.348
			c-38.012-18.639-77.686-33.689-117.939-47.242c-43.119,36.145-38.291,101.324-47.033,152.311c-0.393,2.309-0.785,4.61-1.166,6.88
			c-14.854,88.15-33.461,163.146-71.959,243.108c-82.145,170.562-199.613,246.611-369.523,315.051
			c-115.51,46.523-212.834,113.968-307.631,193.169c-79.998,66.827-121.566,135.362-177.209,221.241
			c-44.443,68.539-82.463,116.26-104.17,191.785c24.596,16.683,48.895,34.015,73.225,52.133
			C7191.535,5688.77,7222.918,5625.289,7275.576,5577.445z"/>
		<path id="_x31_82599311" fill="none" stroke="#010101" stroke-width="64" d="M7353.51,5276.428
			c94.797-79.203,192.117-146.645,307.631-193.168c169.91-68.445,287.379-144.492,369.523-315.053
			c38.5-79.963,57.107-154.959,71.959-243.108c0.385-2.269,0.773-4.569,1.166-6.882c8.746-50.986,3.916-116.166,47.035-152.311
			c-4.914-1.654-9.836-3.289-14.77-4.902c-29.779-9.795-59.773-18.845-89.541-27.969c-16.053-4.947-44.453-17.006-63.291-10.283
			c-3.648,1.269-6.91,3.198-9.631,6.009c-17.436,17.786,5.205,63.093,10.146,83.31c29.895,122.049-6.074,257.168-114.064,330.676
			c-60.619,41.252-149.861,66.721-221.721,71.284c-32.711,2.104-73.434-3.515-109.068,2.593
			c-17.629,2.975-33.939,8.754-47.447,19.83c-35.961,29.266-31.508,71.826-51.168,111.32
			c-26.375,53.184-68.566,90.173-117.406,119.86c-80.861,49.119-186.996,68.619-255.543,127.081
			c-62.057,52.891-112.338,122.729-146.312,211.061c-17.17,44.503-98.289,140.818-41.25,169.916
			c69.352,35.45,131.777,72.654,192.377,113.766c21.703-75.527,59.723-123.246,104.166-191.785
			C7231.939,5411.787,7273.512,5343.248,7353.51,5276.428z"/>
		<path id="_x31_82599310" fill="none" stroke="#010101" stroke-width="64" d="M4932.885,2420.782
			c17.939-2.535,79.063-12.381,75.261,21.419c-1.87,16.565-17.464,20.316-31.622,20.615c-0.375,0.008-0.676,0.015-1.047,0.021
			c-29.18-1.397-59.205-4.042-90.284-6.961c-0.15,0.004-0.227-0.069-0.376-0.065c-8.048-1.618-14.259-5.208-10.537-14.591
			C4879.439,2428.158,4921.003,2422.521,4932.885,2420.782z"/>
		<path id="_x31_82599309" fill="none" stroke="#010101" stroke-width="64" d="M7754.697,4034.885
			c1.436,42.512,3.996,84.98,5.723,127.473c0.447,10.887-1.236,25.123-0.604,38.521c0.752,15.842,4.744,30.512,19.328,37.084
			c108.059,48.67,141.223-110.297,134.492-184.017c-5.225-57.302-41.539-105.556-74.666-150.517
			c-19.613-26.625-50.338-81.393-88.271-85.033c-10.721,18.467,2.617,46.314,4.143,65.689c1.904,24.139,5.457,54.842-1.68,78.49
			C7746.393,3985.024,7753.924,4011.898,7754.697,4034.885z"/>
		<path id="_x31_82599308" fill="none" stroke="#010101" stroke-width="64" d="M7614.094,4666.631
			c-38.264,49.197-71.557,73.154-115.924,130.211c-0.654,0.835,36.025-1.68,37.344-1.939c23.338-4.578,46.109-3.973,69.549-4.129
			c48.551-0.325,95.758-5.619,141.398-22.545c44.693-16.586,88.939-22.566,126.527-55.586
			c101.146-88.85,124.945-264.641,53.098-377.666c-39.148-61.558-99.271-63.625-163.818-77.648
			c-9.436,74.686-1.057,124.438-37.672,214.244C7696.26,4541.081,7660.197,4607.324,7614.094,4666.631z"/>
		<path id="_x31_82599288" fill="none" stroke="#010101" stroke-width="64" d="M7736.256,3973.639
			c-4.176-54.128-15.969-107.004-24.219-160.596c-9.443-61.34-22.076-121.682-34.85-182.402
			c-13.371-63.51-34.365-123.988-56.082-184.984c-38.025-106.811-67.121-220.689-125.793-318.811
			c-31.752-53.125-68.895-102.287-105.229-152.315c-45.152-62.187-103.811-135.602-160.98-195.088
			c-66.633-69.348-145.029-132.764-222.66-189.662c-53.166-38.957-80.818-49.644-136.682-79.004
			c-63.562-33.409-244.625-100.609-334.58-130.081c-77.283-25.305-156.057-51.195-240.678-70.319
			c-47.297-10.688-94.793-18.816-143.297-21.769c-68.775-4.186-136.426-1.506-204.98,4.688c-19.35,1.742-34.434,5.979-50.205,17.497
			c-28.117,20.541-56.99,42.546-82.473,66.34c-29.199,27.261-53.025,59.567-68.436,96.206
			c-14.422,34.292-28.326,68.685-44.168,102.36c-11.588,24.634-100.187,210-94.924,309.182c2.582,48.727-6.337,162.56,0.327,205.568
			c7.799,50.349,21.368,133.69,27.293,175.365c5.922,41.692,37.552,171.689,43.365,208.148
			c4.96,30.995,18.132,144.208,17.209,187.815c-0.585,27.376,2.88,108.247,2.88,108.247s48.883,5.682,77.188,17.166
			c93.47,37.936,101.695,183.501,115.613,264.898c1.119,6.551,2.221,13.107,3.311,19.662c0.355-15.625,8.207-19.576,33.154-1.278
			c24.047,17.63,27.441,87.853,30.592,116.873c4.572,42.19,40.646,174.122,22.271,211.407
			c-15.166,30.783-29.869-1.068-41.824-49.298c7.09,40.274,14.875,80.397,23.898,120.229
			c16.238,71.673,14.994,194.247,67.607,221.203c164.332,84.229,206.439,152.882,262.111,192.991
			c101.07,72.778,213.916,113.952,320.627,136.095c215.289,44.65,462.35,48.57,659.262-61.465
			c100.439-56.125,142.43-110.324,189.68-160.09c86.275-90.877,172.76-176.051,224.863-295.432
			c40.551-92.896,55.709-195.75,58.785-298.975C7746.555,4126.053,7741.986,4047.887,7736.256,3973.639z"/>
		<path id="_x31_82599289" fill="none" stroke="#010101" stroke-width="64" d="M7003.838,5212.949
			c79.084-65.169,180.268-101.111,268.539-152.463c27.184-15.8,174.971-105.324,149.615-151.381
			c-17.629-31.801-66.994,21.31-82.523,32.953c-145.252,108.989-386.701,157.848-578.494,129.055
			c-110.211-16.549-219.088-33.832-322.898-75.321c-104.172-41.646-195.682-111.742-270.846-183.509
			c-29.438-28.109-95.609-13.447-114.338,30.836c-18.963,45.073,68.912,62.851,97.551,83.239
			c73.314,52.159,129.777,121.925,175.738,203.573c56.105,99.657,77.75,265.363,177.463,323.808
			c55.029,32.254,118.773,42.462,180.096,56.817c25.75,6.044,123.975,46.861,142.451,21.623
			C6901.527,5429.295,6899.363,5298.975,7003.838,5212.949z"/>
		<path id="_x31_82599307" fill="none" stroke="#010101" stroke-width="64" d="M6282.943,6119.383
			c-14.322,49.748,24.406,57.047,56.715,26.602c17.254-16.266,54.238-72.012,32.236-94.998
			C6340.137,6017.848,6290.223,6094.084,6282.943,6119.383z"/>
		<path id="_x31_82599306" fill="none" stroke="#010101" stroke-width="64" d="M7202.633,5827.6
			c-4.867-5.412-11.619-12.297-19.822-20.204c-2.678,44.776-63.883,83.948-88.148,114.989c-19.537,24.98-33.16,47.031-33.34,79.034
			c-0.355,63.745,50.27,111.396-21.947,159.666c-43.551,29.114-104.318-8.419-130.471,42.977
			c-15.215,29.886,8.395,55.117-38.795,66.874c-42.854,10.686-65.961-39.524-115.73-25.884
			c-76.787,21.026-134.082,94.219-209.332,120.338c-110.719,38.426-154.869-58.101-252.057-73.827
			c-59.84-9.689-106.678,25.939-162.637-15.97c-45.301-33.92-88.291-80.364-116.967-129.108c-6.5-11.047-9.945-20.833-11.049-30.016
			c-17.982,31.182-64.453,110.268-55.152,119.148c0,0,23.021,24.006,38.98,33.501c21.912,13.061,41.197,31.484,61.979,46.354
			c47.287,33.847,97.33,63.899,149.783,89.206c41.945,20.244,99.068,44.787,166.24,59.943
			c71.201,16.062,146.074,12.176,214.711-13.22c63.193-23.386,116.975-56.157,170.387-88.919
			c102.025-62.518,200.785-120.891,289.746-198.928c72.709-63.785,130.23-141.017,180.865-222.796
			C7259.514,5876.732,7234.258,5862.742,7202.633,5827.6z"/>
		<path id="_x31_82599305" fill="none" stroke="#010101" stroke-width="64" d="M6130.354,6275.593
			c55.957,41.909,102.797,6.28,162.637,15.97c97.188,15.727,141.338,112.253,252.055,73.827
			c75.252-26.116,132.547-99.312,209.33-120.338c49.773-13.641,72.881,36.569,115.732,25.884
			c47.188-11.757,23.582-36.988,38.793-66.874c26.156-51.397,86.92-13.862,130.475-42.977
			c72.217-48.271,21.592-95.921,21.947-159.666c0.178-32.003,13.803-54.054,33.336-79.032
			c24.273-31.043,85.475-70.215,88.152-114.991c-18.115-17.462-43.352-39.894-71.223-62.446
			c-35.998,11.029-69.02,60.83-85.779,91.842c-28.832,53.337-34.678,108.945-33.297,169.012
			c0.672,28.697,24.633,79.548,5.047,104.539c-5.225,6.594-9.309,11.39-16.82,14.223c-55.654-48.617-129.031-77.761-187.918-18.526
			c-24.473,24.62-23.135,57.188-60.283,72.036c-63.26,25.294-126.354,2.268-190.672,35.45
			c-88.469,45.632-121.184,24.694-213.518,13.769c-35.355-4.18-74.705-5.736-101.611-31.923
			c-30.148-29.343-59.898-74.765-78.07-112.505c-3.812-7.929-8.031-19.064-13.039-30.578c-9.277-21.328-21.262-43.949-38.404-49.795
			c-0.297-0.102-0.592-0.191-0.889-0.284c-42.086,21.722-66.002,59.376-87.557,102.794c-0.912,1.836-3.225,5.891-6.439,11.467
			c1.104,9.183,4.549,18.965,11.049,30.016C6042.062,6195.232,6085.051,6241.678,6130.354,6275.593z"/>
		<path id="_x31_82599304" fill="none" stroke="#010101" stroke-width="64" d="M6911.092,5666.242
			c-3.807,14.523-16.215,100.94-45.734,162.862c-38.604,81.01-127.92,142.267-176.918,160.04
			c-54.625,19.818-136.002,51.52-192.18,46.836c-119.943-10.031-261.598-85.796-382.164-41.574
			c-6.268,2.301-12.166,4.916-17.758,7.804c0.295,0.095,0.592,0.183,0.889,0.284c17.145,5.846,29.129,28.465,38.406,49.795
			c5.008,11.512,9.225,22.65,13.041,30.576c18.17,37.744,47.924,83.167,78.068,112.508c26.904,26.186,66.252,27.742,101.611,31.924
			c92.332,10.928,125.045,31.862,213.514-13.772c64.322-33.179,127.414-10.156,190.678-35.446
			c37.145-14.851,35.809-47.416,60.281-72.035c58.887-59.237,132.266-30.092,187.918,18.524c7.51-2.831,11.596-7.63,16.82-14.222
			c19.584-24.988-4.379-75.842-5.047-104.54c-1.377-60.062,4.461-115.673,33.295-169.013c16.76-31.01,49.783-80.814,85.777-91.84
			C7029.83,5678.803,6925.363,5611.67,6911.092,5666.242z M6339.658,6145.984c-32.309,30.447-71.035,23.146-56.715-26.602
			c7.279-25.299,57.193-101.535,88.947-68.399C6393.896,6073.973,6356.914,6129.719,6339.658,6145.984z"/>
		<path id="_x31_82599296" fill="none" stroke="#010101" stroke-width="64" d="M5089.975,2644.002
			c65.915-12.194,132.438-22.902,196.902-41.284c4.238-1.209,37.079,43.246,41.031,47.785
			c14.332,16.482,30.587,31.539,47.873,44.942c21.07,16.335,40.639,33.291,58.068,53.539
			c28.636,33.274,54.717,62.943,74.777,103.271c29.061,58.402,53.348,117.716,69.593,181.603l30.911,187.229
			c-25.056-73.65-103.302-129.807-164.514-171.204c-53.928-36.466-106.279-70.67-165.908-97.537
			c-47.164-21.252-94.623-42.154-139.168-68.591c-28.486-16.914-59.074-26.779-88.018-43.579
			c-60.424-35.057-145.011-91.914-169.893-160.23C4881.634,2679.949,5015.383,2657.797,5089.975,2644.002z"/>
		<path id="_x31_82599295" fill="none" stroke="#010101" stroke-width="64" d="M5370.014,4208.41
			c38.299-24.713,37.521-67.16,15.579-101.58c-22.698-35.584-61.565-61.258-105.213-61.752
			c-63.476-0.717-281.483,113.139-299.379,169.951l23.282-34.258c29.49-36.488,77.717-73.34,95.281-97.782
			c153.602-213.636,78.817-370.813,0.225-551.619c-28.247-65.007-52.385-128.863-89.475-189.354
			c-24.318-39.65-127.569-193.433-127.569-193.433l-3.138-170.831l-5.479-298.721l7.506,0.92
			c24.885,68.316,109.47,125.174,169.89,160.23c28.946,16.8,59.533,26.664,88.02,43.579c44.545,26.438,92.003,47.336,139.168,68.591
			c59.627,26.864,111.982,61.07,165.91,97.536c61.211,41.398,139.454,97.556,164.512,171.204l9.76,32.769
			c17.855,92.5,39.203,186.99,48.002,280.83c8.068,86.025,11.123,174.659,4.297,260.916
			c-6.148,77.653-41.891,138.035-91.793,196.869c-56.041,66.088-115.868,133.578-182.666,191.877L5370.014,4208.41z"/>
		<path id="_x31_82599294" fill="none" stroke="#010101" stroke-width="64" d="M5031.875,4333.062
			c33.527,41.736,184.971-28.083,249.865-66.612c30.62-18.187,58.389-38.767,88.272-58.038c38.3-24.713,37.519-67.16,15.58-101.582
			c-22.698-35.583-61.567-61.258-105.214-61.752c-63.475-0.713-281.483,113.139-299.379,169.953
			C4973.914,4237.512,4987.781,4278.16,5031.875,4333.062z"/>
		<path id="_x31_82599290" fill="none" stroke="#010101" stroke-width="64" d="M6096.582,4930.115
			c198.895,98.463,231.678,318.535,328.451,498.191c31.322,58.123,128.086,85.869,174.43,91.557
			c41.113,5.042,289.377,57.746,290.273,105.885c3.643,195.984-145.348,337.486-328.414,379.095
			c-21.32,4.849-106.598,19.282-142.438-2.587c-26.518-16.189,97.561-133.953,62.596-163.209
			c-81.959-68.576-179.211-143.91-260.955-212.668c-83.83-70.531-157.441-55.285-246.797,2.691
			c-64.365,41.768-165.674,134.279-249.498-7.792c-15.541-26.353,9.807-65.175,15.098-95.272
			c16.841-95.805-22.248-191.104-34.463-283.711c-15.582-118.256,45.76-168.426,132.993-236.45
			c47.425-36.999,91.929-86.125,142.269-118.033C6018.791,4863.304,6064.643,4914.303,6096.582,4930.115z"/>
		<path id="_x31_82599291" fill="none" stroke="#010101" stroke-width="64" d="M5944.545,5674.255
			c-17.592,27.288-24.271,75.019-31.625,114.186c-14.711,78.221-7.945,166.446,50.162,196.858
			c69.986,36.618,142.965-22.574,216.9-28.587c74.385-6.062,189.023,52.291,210.301,18.228
			c20.02-32.058,84.033-117.144,63.195-129.73c-25.766-15.572-61.061-41.164-119.752-93.631
			c-44.711-39.975-81.211-62.23-91.572-72.754c-35.676-36.111-75.781-68.812-128.092-71.646
			c-48.148-2.615-83.641,14.123-128.396,41.762C5971.498,5657.699,5954.562,5658.726,5944.545,5674.255z"/>
		<path id="_x31_82599293" fill="none" stroke="#010101" stroke-width="64" d="M4902.234,4211.104
			c80.424-53.611,133.934-92.318,187.816-175.889c72.594-112.558,102.389-217.139,42.148-358.193
			c-90.043-210.811-115.771-271.534-248.309-465.606L4902.234,4211.104z"/>
		<path id="_x31_82599292" fill="none" stroke="#010101" stroke-width="64" d="M5822.268,5715.934
			c29.938,2.307,61.322-15.02,90.393-9.371c-5.633,34.051-19.227,82.676-20.328,117.051c-0.992,30.492-5.766,63.224,0.455,93.039
			c6.471,31.02,16.6,54.368,43.775,74.367c23.119,17.015,57.641,18.972,65.23,51.717c12.521,54.048-65.258,120.332-84.867,168.678
			c-39.658-51.274-77.707-63.244-126.477-85.422c-53.608-24.383-134.938-29.871-192.828-26.697
			c-26.754,1.465-34.776-79.984-39.418-105.932c-13.503-75.506-60.644-132.043-31.187-201.631
			c21.288-50.279,81.173-105.413,122.682-149.169c36.773-38.762,85.841,34.519,109.345,52.282
			C5778.139,5709.266,5799.771,5714.216,5822.268,5715.934z"/>
		<path id="_x31_82599300" fill="none" stroke="#010101" stroke-width="64" d="M6093.422,4767.725
			c-26.109-8.369-66.178-19.838-96.801-27.001c-45.033-10.542-89.02-22.872-125.512-29.884
			c-68.077-13.064-121.733-11.385-175.039-10.85c-5.471,0.053-16.598,2.137-31.738,5.115
			c-5.162,51.824,59.435,113.403,87.33,146.311c32.838,38.732,70.418,65.653,111.425,92.919
			c66.015-57.692,138.737-115.695,212.448-150.694C6094.697,4784.551,6117.855,4775.537,6093.422,4767.725z"/>
		<path id="_x31_82599301" fill="none" stroke="#010101" stroke-width="64" d="M5842.631,4315.688
			c-14.135,21.772-20.729,51.107-18.848,71.066c0.117,1.213,0.244,2.453,0.379,3.713l-0.211,1.679
			c4.793,50.778,27.912,137.413,66.477,174.229c17.648,16.852,37.521,24.697,60.316,29.707c5.42,26.611,13.812,51.911,29.023,71.595
			c-76.779-39.558-161.145-53.067-240.637-79.64c-27.846-9.307-45.52-27.014-66.477-46.861l0.078,1.734
			c-7.246-42.432-12.572-85.52-10.076-128.799c2.176-37.766,8.992-78.424,16.061-118.756l0.822,5.481
			c27.109,42.819,62.21,103.495,117.982,69.353c18.338-11.227,32.975-31.574,44.48-55.192L5842.631,4315.688z"/>
		<path id="_x31_82599298" fill="none" stroke="#010101" stroke-width="64" d="M5751.662,4851.416
			c-27.896-32.906-92.494-94.484-87.33-146.309c-37.047,7.289-98.188,19.959-159.807,21.561
			c-55.385,1.457-82.317,12.188-166.369-6.952c-54.234-12.354-108.459-38.372-151.26-58.38
			c-22.988-10.746-29.871,0.066,8.404,21.877c67.356,38.373,135.293,75.859,205.017,109.862
			c52.45,25.589,123.628,47.569,147.19,106.351c6.33,15.795,12.845,32.646,20.262,49.319c19.505-30.801,45.116-44.444,81.303-61.06
			c86.045-39.505,132.678,28.631,191.287,76.707c7.479-6.658,15.057-13.355,22.725-20.059
			C5822.08,4917.069,5784.5,4890.151,5751.662,4851.416z"/>
		<path id="_x31_82599299" fill="none" stroke="#010101" stroke-width="64" d="M5662.75,3909.251
			c-13.013,31.545-28.279,58.512-51.051,87.843c-78.203,100.75-163.846,202.082-273.003,270.882
			c-48.387,30.514-139.765,82.048-182.187,118.296c-38.273,32.702-102.696,121.264-114.259,140.938
			c94.548-79.771,216.374-132.279,345.093-119.732c104.217,10.166,166.9,42.119,249.187,102.7
			c14.053,10.341,25.511,20.946,36.126,30.999l0.079,1.736c-7.247-42.432-12.573-85.521-10.079-128.801
			c4.004-69.488,23.716-148.775,31.824-217.801c11.84-100.949,4.063-175.939-25.659-274.887L5662.75,3909.251z"/>
		<path id="_x31_82599297" fill="none" stroke="#010101" stroke-width="64" d="M5649.074,4887.688
			c-36.188,16.616-61.794,30.262-81.305,61.059c17.498,39.369,40.051,77.721,77.291,98.698
			c52.145,29.382,105.961-2.726,145.113-37.96c16.124-14.512,32.893-29.693,50.191-45.091
			C5781.752,4916.32,5735.119,4848.181,5649.074,4887.688z"/>
		<path id="_x31_82599302" fill="none" stroke="#010101" stroke-width="64" d="M5850.19,4305.652
			c-19.306,21.931-28.597,57.865-26.407,81.102c4.793,50.776,28.08,142.805,66.643,179.621
			c17.65,16.852,37.523,24.697,60.318,29.707c-6.49-31.887-8.713-65.656-13.225-93.926
			c-11.254-70.395-21.078-141.531-31.896-212.558C5882.488,4281.66,5863.839,4290.154,5850.19,4305.652"/>
		<path id="_x31_82599303" fill="none" stroke="#010101" stroke-width="64" d="M5878.725,4129.168l3.092,18.15
			c8.873,47.204,16.562,94.719,23.809,142.281c-21.488-7.371-40.248-0.52-53.553,13.883l-1.881,2.17
			c-5.277,5.996-9.807,13.041-13.557,20.587l-2.104,3.386c-11.187,15.576-25.658,33.623-37.008,40.569
			c-55.774,34.142-90.875-26.536-117.984-69.353l-0.821-5.484c5.942-33.88,12.061-67.533,15.759-99.045
			c11.842-100.948,4.067-175.941-25.655-274.887l-6.067-12.17c4.889-11.85,9.46-24.348,13.992-37.857
			c8.48-25.28,3.604-43.889,29.246-56.239c103.131-49.679,120.868,101.903,140.738,175.835
			c13.837,51.492,25.193,103.719,35.086,156.326"/>
		<path id="_x31_82599280" fill="none" stroke="#010101" stroke-width="64" d="M5695.33,5358.146
			c-4.979-53.196-32.18-215.518-42.959-242.3c-22.111-54.983-67.149-80.978-89.896-135.261
			c-49.008-116.95-151.854-157.279-260.762-209.605c-72.298-34.734-138.613-83.084-205.016-127.443
			c-40.834-27.281-90.212-60.568-63.353-128.131c8.019-20.187,41.979-63.119,69.359-100.091
			c27.233-36.769,42.287-69.013,21.351-61.864c-145.229,49.584-146.438-157.611-221.945-122.562l18.791,997.86
			c2.928,160.571,5.898,321.153,8.843,481.728l-9.387-511.574c11.241-0.236,17.485,237.84,14.499,278.842
			c-2.902,39.625,2.012,264.182,2.639,297.693c0.123,6.541,1.723,16.562,4.504,26.545c1.775,5.826,3.718,11.379,5.781,16.248
			c1.715,3.767,3.613,7.168,5.674,9.916c1.982,2.648,3.988,5.089,6.016,7.439c21.655,19.67,29.707,37.506,40.021,51.147
			c6.52,8.612,16.243,24.679,25.719,40.136c9.029,13.838,17.465,26.722,23.426,35.5c21.309,26.125,47.477,53.409,75.795,74.883
			c0.184,0.124,0.369,0.258,0.551,0.379c24.764,16.658,52.523,31.363,81.078,42.487c20.459,7.103,41.267,12.423,62.225,17.317
			c60.417,14.113,225.103,5.976,270.637,3.522c18.316-0.987,2.49-40.945-3.805-82.304c-16.084-105.706-94.843-201.037,0.061-299.66
			c55.298-57.461,110.131-96.249,154.59-161.678C5727.609,5501.633,5701.09,5419.719,5695.33,5358.146z"/>
		<path id="_x31_82599284" fill="none" stroke="#010101" stroke-width="64" d="M5036.82,4979.89
			c10.058,56.019,32.471,108.199,77.844,144.805c45.465,36.687,132.861,35.693,140.967-33.343c3.426-29.215-2.34-55.782-4.63-83.881
			c-6.749-10.695-13.943-21.15-21.673-31.308c-42.977-56.477-123.05-104.009-194.078-145.947
			C5021.351,4868.301,5029.596,4939.282,5036.82,4979.89z"/>
		<path id="_x31_82599285" fill="none" stroke="#010101" stroke-width="64" d="M5322.973,5698.486
			c-60.91,1.552-90.26,51.566-83.162,109.371c7.177,58.4,53.678,115.408,100.637,148.221
			c50.82,35.524,158.014,44.113,156.775-52.826C5495.91,5800.651,5442.059,5695.467,5322.973,5698.486z"/>
		<path id="_x31_82599283" fill="none" stroke="#010101" stroke-width="64" d="M5068.842,5530.756
			c16.526,21.679,48.153,85.416,56.393,112.334c16.713,54.6,62.93,162.443-0.763,213.942
			c-34.665,28.019-100.313,18.809-135.271,1.106c-38.49-19.484-51.246-55.014-50.802-96.34c0.425-40.7-2.327-80.006-3.365-120.711
			c-0.921-36.01,1.642-74.604-1.704-110.474c-5.523-59.13,42.051-70.12,82.215-45.263
			C5031.457,5495.209,5053.481,5510.609,5068.842,5530.756z"/>
		<path id="_x31_82599281" fill="none" stroke="#010101" stroke-width="64" d="M4902.59,4230.617
			c13.51-8.453,18.096-5.221,28.014-2.23c48.295,14.588,65.961,132.463,74.504,180.824c9.347,52.646,13.311,87.523-16.605,134.389
			c-22.725,35.595-57.615,68.461-48.818,114.597c7.662,40.234,19.324,74.935,21.59,116.929
			c2.484,46.147,11.914,88.721,8.116,137.078c-4.787,61.137-9.468,114.9,2.36,175.436c9.602,49.121,17.965,143.077-47.227,152.747
			c-8.381,6.817,0.631,3.669,0.471,6.8L4902.59,4230.617z"/>
		<path id="_x31_82599282" fill="none" stroke="#010101" stroke-width="64" d="M5688.526,5540.064
			c-43.633-45.09-132.071-71.118-186.435-106.396c-150.034-97.342-160.939-283.336-251.091-426.197
			c2.286,28.099,8.054,54.666,4.63,83.881c-8.105,69.036-95.497,70.032-140.967,33.343c-45.371-36.606-67.786-88.782-77.844-144.805
			c-7.225-40.607-15.474-111.589-1.57-149.672c-23.129-13.656-45.299-26.719-64.914-39.302l-8.203-2.984
			c3.267,41.32,10.7,80.416,7.26,124.269c-4.789,61.138-9.468,114.897,2.36,175.438c9.423,48.208,17.646,139.599-43.687,152.112
			c6.164,69.86,8.994,207.701,6.785,237.994c-0.188,2.562-0.346,5.912-0.469,9.923c10.144-8.496,24.009-13.585,40.35-12.939
			c41.918,1.654,70.211,22.468,91.66,51.655c26.031,35.443,41.973,83.226,59.922,124.069
			c14.199,32.317,31.021,80.413,31.444,124.034c11.716,35.4,64.774,44.556,81.024,15.498c0.435-49.885,29.668-90.111,84.191-91.502
			c95.098-2.41,148.593,64.182,166.955,143.355c-3.73-41.037,5.607-81.657,45.245-122.848
			c55.296-57.461,110.13-96.248,154.59-161.68c2.505-3.684,4.729-7.484,6.694-11.385L5688.526,5540.064z"/>
		<path id="_x31_82599286" fill="none" stroke="#010101" stroke-width="64" d="M5562.475,4980.588
			c-49.008-116.952-151.854-157.281-260.762-209.607c-2.301-1.1-31.528-9.318-31.528-9.318
			c-1.556,59.267,55.627,122.772,92.86,159.953c45.561,45.488,152.35,108.967,213.481,96.006
			C5576.526,5017.621,5565.124,4986.895,5562.475,4980.588z"/>
		<path id="_x31_82599287" fill="none" stroke="#010101" stroke-width="64" d="M5695.33,5358.146
			c-4.979-53.196-32.18-215.518-42.959-242.3c-16.81-41.802-46.863-66.856-70.309-100.317
			c-80.082,19.104-165.162-40.143-219.018-93.914c-45.99-45.924-92.17-100.008-93.605-167.197
			c-59.996-32.647-116.338-73.203-172.742-110.881c-40.834-27.283-86.432-58.793-66.932-118.748
			c7.648-23.482,56.502-81.185,83.941-122.729c20.699-31.333,21.122-53.939,2.851-48.448
			c-78.981,23.752-113.068-29.744-141.407-74.426l-1.965,0.17c17.688,42.338,26.584,99.654,31.918,129.855
			c9.344,52.646,13.31,87.523-16.607,134.389c-22.725,35.594-57.615,68.461-48.816,114.597c7.66,40.234,19.322,74.935,21.59,116.925
			c0.23,4.303,0.521,8.566,0.859,12.811l0.895,1.742c92.567,49.492,202.299,102.391,266.303,186.49
			c110.975,145.818,111.496,352.875,272.771,457.511c61.08,39.634,148.187,56.351,193.75,116.313l0.607-4.057
			C5724.188,5490.879,5700.711,5415.646,5695.33,5358.146z"/>
		<path id="_x31_82599376" fill="none" stroke="#010101" stroke-width="64" d="M5861.396,4619.285
			c69.123,18.291,304.217,134.455,298.617,154c-5.299,18.529-77.051-9.709-166.861-33.654
			c-74.221-19.814-159.463-41.949-224.304-40.586c-132.933,2.791-253.61,41.311-360.556,31.971
			c-96.447-8.423-128.861-25.164-227.174-72.456c-62.035-29.853-122.309-58.397-141.096-98.079
			c-19.025-40.163,54.472-79.741,118.312-112.254c76.334-38.834,229.447-55.942,298.506-31.046
			c141.451,50.991,172.792,90.731,233.019,140.255C5745.023,4602.802,5805.611,4604.525,5861.396,4619.285z"/>
		<path id="_x31_82599377" fill="none" stroke="#010101" stroke-width="64" d="M7628.969,5679.791
			c-141.998,123.946-252.85,239.587-295.291,142.058c-21.92-50.354,390.588-362.931,464.719-301.94
			C7798.398,5519.905,7719.328,5600.907,7628.969,5679.791z"/>
		<path id="_x31_82599378" fill="none" stroke="#010101" stroke-width="64" d="M4943.482,6411.05
			c74.494-7.403,572.326-19.216,583.689-97.878c19.948-138.129-484.357-211.471-589.287-207.209L4943.482,6411.05z"/>
		<path id="_x31_82599379" fill="none" stroke="#010101" stroke-width="64" d="M5909.613,4178.762
			c-3.928-66.646-43.622-152.566,16.748-108.289c24.047,17.631,27.439,87.854,30.592,116.872
			c4.572,42.189,40.646,174.121,22.27,211.407C5943.797,4470.658,5910.916,4200.834,5909.613,4178.762z"/>
		<path id="_x31_82599380" fill="none" stroke="#010101" stroke-width="64" d="M7753.162,3962.58
			c7.934-26.309-0.678-85.262-12.729-152.984c-0.053-0.305-0.109-0.613-0.16-0.916c-0.135-0.742-0.266-1.479-0.398-2.225l0,0
			c-1.811-10.119-3.736-20.434-5.758-30.88c-1.904-9.782-3.881-19.642-5.863-29.575c-13.99-68.191-30.797-138.704-44.15-192.318
			c-12.121-48.128-21.373-82.625-23.299-89.507c-23.818-85.253-63.76-191.013-111.117-296.987
			c-60.889-136.804-134.004-274.097-200.344-368.876c-53.486-76.44-152.158-173.074-223.188-233.439
			c-47.582-40.389-93.156-77.842-143.705-112.659c-4.025-2.816-8.045-5.562-12.145-8.305
			c-53.342-35.727-114.941-76.565-269.727-139.487c-50.285-20.455-90.174-37.705-134.35-56.057
			c-67.592-28.206-145.125-59.106-284.818-108.203c-5.957-2.108-12.141-4.211-18.475-6.31
			c-75.932-25.425-174.359-51.57-269.725-78.223c-77.744-21.741-153.459-43.598-220.934-45.007
			c-23.616-0.471-46.211,1.491-67.545,6.929c-21.484,5.438-38.043,17.847-54.199,35.902
			c-23.725,26.331-46.776,64.705-84.068,111.044c-14.36,17.869-29.936,35.021-46.494,51.521
			c-71.829,71.558-162.332,130.257-255.734,178c-27.838,14.282-55.85,27.525-83.802,39.875c-4.163,1.8-8.325,3.6-12.493,5.176
			c-45.763,17.932-94.133,24.235-145.459,24.642c-15.062,0.242-30.357-0.105-45.96-0.895c-0.374,0.008-0.675,0.014-1.047,0.021
			c-1.648,0.036-3.296-0.006-4.872-0.046c-4.725-0.198-9.524-0.396-14.402-0.591c-17.322-0.751-35.101-1.72-51.861-4.419
			c-4.438-0.725-12.38-0.632-19.146-1.905c-0.15,0.004-0.227-0.069-0.377-0.066c-4.881-0.492-9.834-0.909-14.789-1.401l4.09,222.86
			c26.366-0.554,125.352-17.673,246.744-38.907c56.551-9.899,140.582-24.991,209.764-49.074
			c90.551-31.53,142.896-66.351,192.652-91.144c113.396-56.575,202.336-106.533,240.895-133.1
			c39.074-26.95,72.109-56.303,156.666-67.461c78.273-10.353,141.873-15.786,220.008-9.312
			c105.229,8.729,171.613,24.157,249.596,47.01c141.654,41.61,251.588,82.102,319.588,108.29
			c114.271,44.048,227.604,94.146,289.152,140.27c70.973,53.072,219.057,171.666,282.078,253.044
			c61.1,78.887,161.746,197.212,219.371,299.102c54.453,96.37,82.295,204.764,143.896,376.168
			c26.719,74.453,47.334,185.298,63.619,279.61l0,0c0.008,0.041,0.016,0.086,0.021,0.129c6.977,40.413,13.158,77.779,18.691,107.947
			c4.182,26.643,7.797,53.033,9.398,73.795c5.729,74.248,10.297,152.418,7.975,230.374c-0.299,10.081,7.369,14.856,9.832,15.018
			c5.146,0.338,6.293-6.797,5.756-18.147c-0.637-13.399,0.801-23.146,0.602-38.521c-0.463-36.158-4.287-84.961-5.723-127.473
			C7753.918,4011.898,7746.393,3985.024,7753.162,3962.58z"/>
		<path id="_x31_82599374" fill="none" stroke="#010101" stroke-width="64" d="M5285.534,2601.275
			c76.378-13.823,159.355-61.91,227.59-96.625c46.628-23.726,92.782-48.281,138.75-73.226
			c41.718-22.65,83.029-44.671,121.345-72.745c20.469-14.997,41.464-29.646,65.133-39.405c13.671-5.636,26.278-11.083,40.691-14.244
			c11.996-2.635,27.502-7.964,39.719-6.548c-6.189,3.887-13.217,5.422-19.223,9.708c-44.091,31.448-92.604,65.171-124.934,111.717
			c-12.518,18.033-24.864,37.409-32.75,57.959c-31.93,83.101-74.861,171.542-105.605,255.161
			c-12.982,35.341-25.679,74.592-28.727,112.29c-2,24.898-1.539,121.819-2.924,146.457c-3.022,53.706,1.309,105.803,10.804,158.613
			c4.284,23.821,5.708,47.754,9.887,71.461c4.527,25.685,9.415,51.305,14.478,76.889c10.412,52.46,33.47,125.944,39.039,179.258
			c11.061,105.815,18.426,212.079,15.155,318.513c-0.515,16.586-6.217,33.613-11.272,49.318
			c-4.159,12.895-16.614,47.812-18.709,52.596c-2.752-14.102,1.156-28.4,2.433-42.452c1.983-21.688,2.261-43.69,5.369-65.221
			c9.625-66.607,1.45-136.567-1.282-203.412c-3.793-93.099-20.338-171.462-38.123-266.322
			c-9.852-52.479-22.137-103.855-28.645-156.953c-2.647-21.572-6.193-43.03-10.468-64.344
			c-14.481-72.242-35.192-145.156-66.948-211.841c-19.283-40.519-41.131-77.972-69.377-113.093
			c-29.668-36.889-64.951-68.071-102.352-97.165C5334.871,2662.294,5288.188,2600.792,5285.534,2601.275z"/>
		<path id="_x31_82599375" fill="none" stroke="#010101" stroke-width="64" d="M4920.356,5198.902
			c11.241-0.236,17.485,237.84,14.499,278.844c-2.902,39.623,2.014,264.183,2.639,297.693c0.241,13.029,6.359,39.885,15.959,52.705
			c9.602,12.83,19.654,20.866,30.65,36.578c17.311,24.762,56.871,87.201,69.367,104.615c12.492,17.422,48.735,52.955,71.51,68.288
			c38.891,26.164,85.174,47.522,130.327,57.742c45.153,10.214,93.28,79.917,59.376,70.397
			c-33.899-9.521-178.756-41.836-220.061-46.555c-41.302-4.713-157.641-14.36-157.641-14.36L4920.356,5198.902z"/>
	</g>
</g>
</svg>
