<?xml version="1.0" encoding="utf-8"?>
<!-- Generator: Adobe Illustrator 16.0.0, SVG Export Plug-In . SVG Version: 6.00 Build 0)  -->
<!DOCTYPE svg PUBLIC "-//W3C//DTD SVG 1.1//EN" "http://www.w3.org/Graphics/SVG/1.1/DTD/svg11.dtd">
<svg version="1.1" id="Layer_1" xmlns="http://www.w3.org/2000/svg" xmlns:xlink="http://www.w3.org/1999/xlink" x="0px" y="0px"
	 width="9744.01px" height="6823.46px" viewBox="0 0 9744.01 6823.46" enable-background="new 0 0 9744.01 6823.46"
	 xml:space="preserve">
<g transform="scale(1.0)">
	<g id="_x31_80632198" transform=" scale(1.0, 1.0)">
		<path id="_x31_80632200" fill="none" stroke="#010101" stroke-width="64" d="M4917.562,6399.49
			c103.607-6.877,184.508-1.938,264.807-10.396c148.138-15.598,232.593-32.688,320.812-73.636
			c65.024-30.184,135.419-65.05,210.431-148.271c73.331-81.357,122.49-152.797,186.027-212.469
			c36.645-34.406,79.957-59.301,130.59-94.314c79.839-55.213,111.231-82.094,174.104-128.283
			c38.686-28.219,61.152-47.854,127.248-62.689c21.379-10.36-10.244,60.822,15.878,124.949
			c22.741,55.838,101.743,102.485,139.004,134.351c46.69,39.938,270.427,201.737,424.415,296.185
			c93.154,57.115,235.961,174.672,520.507,161.148c202.464-9.609,359.657-110.559,490.674-258.114
			c145.458-163.825,258.684-382.428,366.026-539.87c132.586-194.459,207.778-357.787,303.559-574.585
			c86.718-196.3,143.854-339.287,199.079-548.159c9.386-35.504,153.403-256.128,234.743-394.358
			c35.919-61.058,72.089-251.298,72.614-286.438c1.09-76.348,27.352-144.732,19.687-220.127
			c-3.448-33.91-22.688-196.919-24.524-257.574c-2.729-90.309-44.661-135.979-41.321-232.089
			c7.535-217.465-40.755-415.951-113.195-592.796c-51.488-125.686-87.023-200.642-151.898-326.943
			c-26.647-51.855-113.452-137.795-128.544-185.661c-28.967-91.78-35.161-128.254-82.547-211.435
			c-41.44-72.745-89.188-148.162-155.644-215.683c-62.301-63.302-98.376-146.092-153.137-208.132
			c-152.239-172.446-352.513-321.353-549.946-423.729c-164.69-85.391-364.958-173.508-551.887-253.074
			c-73.853-31.441-150.161-59.804-220.091-84.81c-214.326-76.646-410.666-125.787-616.711-160.114
			c-122.263-20.369-221.313-16.739-338.877-26.645c-121.299-10.222-241.186-2.424-365.487-8.652
			c-142.685-7.15-338.445,1.296-474.427,58.252c-115.291,48.292-159.505,117.51-290.428,187.06L4917.562,6399.49z"/>
		<path id="_x31_80632201" fill="none" stroke="#010101" stroke-width="64" d="M9117.766,3564.412
			c-3.448-33.91-22.688-196.919-24.527-257.574c-2.726-90.309-44.658-135.979-41.32-232.089
			c7.537-217.469-40.753-415.951-113.195-592.796c-51.486-125.688-87.021-200.642-151.896-326.943
			c-26.647-51.855-113.452-137.796-128.544-185.663c-28.969-91.778-35.161-128.253-82.547-211.435
			c-41.44-72.743-89.188-148.163-155.644-215.681c-62.301-63.302-98.376-146.092-153.137-208.133
			c-152.239-172.446-352.515-321.352-549.946-423.728c-169.788-88.041-377.925-179.44-570.229-260.46
			c-67.915-28.614-155.663-61.762-220.104-84.811c-214.317-76.644-392.312-118.4-598.359-152.727
			c-122.259-20.369-221.312-16.741-338.873-26.645c-121.299-10.222-241.189-2.424-365.487-8.651
			c-142.687-7.15-338.447,1.296-474.429,58.251c-115.293,48.294-159.505,117.512-290.426,187.062l10.98,1085.547
			c0,0,0.034,3.339,0.094,9.438l0.025,0.013l-0.035-3.74c12.23,2.598,27.159,5.015,44.205,6.572
			c6.22,0.615,12.799,1.075,19.602,1.457c15.062,0.818,31.357,0.869,48.303,0.002c61.578-3.022,132.964-18.814,194.352-61.874
			c2.395-1.694,4.787-3.465,7.182-5.234c43.521-32.476,87.037-72.308,127.201-111.269c22.439-21.554,43.709-42.943,63.459-62.647
			c8.897-8.893,17.283-17.782,25.311-26.287c12.729-13.409,24.73-25.976,37.34-36.428c10.365-8.604,21.182-15.699,33.043-20.758
			c16.885-7.084,36-10.022,59.348-6.713c80.648,11.331,168.817,29.251,253.025,45.774c52.43,10.273,98.052,19.407,139.061,27.757
			c85.607,17.496,151.016,32.022,215.713,48.76c150.207,38.783,210.111,58.376,325.004,102.625
			c114.961,44.246,282.988,132.352,357.494,179.392c72.446,45.771,136.541,89.208,242.346,174.428
			c31.977,25.663,67.717,55.151,108.627,89.664c144.984,122.255,181.958,164.849,275.549,263.701
			c48.163,50.814,82.495,92.602,136.847,162.762c20.953,27.073,41.112,54.758,60.984,83.131c0,0,0,0,0.001,0.075
			c29.145,41.543,57.64,84.683,87.332,130.089c55.747,85.311,111.498,170.924,156.523,258.399l0.072-0.001
			c9.917,19.306,19.316,38.618,28.064,58.086c20.561,45.656,40.464,91.542,59.05,137.219
			c28.474,69.46,53.944,138.416,74.718,205.073c10.645,33.934,34.925,86.142,45.277,170.129c0.163,1.591,0.324,3.184,0.558,4.772
			c0.401,3.408,0.731,6.74,1.054,10.075c0.245,2.726,0.493,5.379,0.74,8.181c0.326,3.335,0.506,6.595,0.754,9.777
			c6.17,89.49-10.798,203.727-33.246,325.229c-15.041,81-25.716,138.145-47.976,198.902c-1.843,5.172-3.769,10.277-5.688,15.377
			c-12.741,33.735-26.22,66.565-38.16,100.139c-0.068,0.227-0.215,0.383-0.211,0.607c-0.783,1.982-1.494,3.885-2.207,5.711
			c-32.609,85.287-51.881,188.403-57.958,267.031c-2.175,15.874-2.317,30.816-2.147,47.347c0,0.073,0,0.224,0,0.302
			c-0.084,5.99-0.027,11.753,0.176,17.136c0.054,5.308,0.106,10.54,0.229,15.697c1.717,82.942,9.796,144.505,9.276,201.609
			c-0.843,82.745,2.687,142.614-12.4,218.764c-12.868,64.673-32.521,122.749-60.491,175.149c-5.334,7.49-10.08,15.05-14.042,20.779
			c-11.455,16.504-22.832,33.311-34.5,50.045c-9.652,13.833-19.896,27.215-30.432,40.297
			c-94.646,107.273-130.305,93.407-139.504,72.574c101.438-86.415,163.614-152.613,187.798-218.169
			c48.368-131.185,48.919-163.192,56.33-333.669c2.546-59.028,18.62-145.879,17.175-223.896c-0.013-1.059-0.021-2.042-0.031-3.108
			c-1.878-98.634-3.951-108.624-20.955-207.702c-5.203-30.279-16.638-18.78-38.248,11.789
			c-34.875,49.294-229.53,247.062-281.646,332.943c-47.225,77.865-90.509,205.73-114.152,274.242
			c-23.642,68.506-40.1,95.91-49.655,148.414c-4.919,27.002-15.976,31.391-23.647,24.564c3.724,33.512,15.685,66.498,39.647,99.854
			c43.333,60.32,101.997,71.383,164.331,97.99c34.41,14.691,57.31,37.162,43.358,77.428c-11.373,32.81-34.69,58.643-71.555,57.557
			c-36.06-1.064-53.794-27.951-64.535-60.424c-4.706-14.232-7.853-45.283-18.386-54.818c-18.884-17.089-65.944,19.871-85.074,27.176
			c-16.444,6.27-33.457,10.689-50.146,16.199c-67.628,22.341-135.479,44.07-203.461,65.287
			c-75.614,23.618-151.019,56.73-203.878,119.814c-59.046,70.474-117.279,143.015-173.799,215.735
			c-53.756,69.141-103.941,129.603-158.006,200.196c91.592,66.895,226.773,160.947,330.385,224.48
			c93.156,57.115,235.965,174.672,520.511,161.148c202.464-9.613,359.653-110.559,490.669-258.119
			c145.461-163.82,258.684-382.423,366.031-539.865c132.584-194.465,207.778-357.789,303.556-574.588
			c86.721-196.297,143.856-339.284,199.082-548.156c9.386-35.508,153.403-256.134,234.74-394.358
			c35.917-61.062,72.092-251.298,72.613-286.438C9099.167,3708.191,9125.426,3639.803,9117.766,3564.412z"/>
		<path id="_x31_80632202" fill="none" stroke="#010101" stroke-width="64" d="M6258.005,1769.275
			c-76.303-80.082-120.454-109.935-205.981-134.255c-52.992-15.121-80.822-21.263-108.65-26.646
			c-64.507-12.34-124.128-18.44-202.29-7.883c-145.669,19.713-263.511,124.129-424.299,195.496
			c-81.628,36.228-224.042,81.383-444.298,147.028l-0.1-9.911l-0.023,0.021c0.038,3.77,0.074,7.54,0.113,11.309l20.85-7.64
			l-20.85,7.64c1.145,112.973,2.268,223.959,2.268,224.133c0.107,10.721,18.231,31.512,23.793,40.469
			c15.334,24.696,27.463,43.04,35.963,58.057c31.316,55.38,71.496,108.241,111.297,157.597c8.738,10.832,17.653,21.97,28.07,31.144
			c36.869,32.45,108.213,112.569,179.229,149.713c32.664,17.077,85.562,49.546,138.16,51.578
			c61.746,2.379,155.469-54.673,192.85-80.468c24.186-16.683,114.77-90.983,142.548-115.301
			c14.573-12.763,30.815-25.13,48.839-34.604c9.18-4.833,18.525-9.31,27.998-13.485c7.743-3.422,15.262-7.598,23.092-10.872
			c7.213-3.006,14.802-4.383,22.076-6.957c4.4-1.558,11.807-2.403,20.99-2.737c-11.084-0.513-13.761-1.318-3.951-3.769
			c34.605-10.538,210.344-70.39,315.658-134.781c80.973-57.757,156.586-110.527,175.853-192.713
			C6374.467,1961.379,6309.046,1822.788,6258.005,1769.275z"/>
		<path id="_x31_80632316" fill="none" stroke="#010101" stroke-width="64" d="M5509.73,468.707
			c-22.199-5.75-43.438-10.068-64.074-12.952l-1.891-78.239c63.615-3.649,125.74-3.19,180.213-0.447
			c117.571,5.923,231.292-0.776,345.887,7.228l-4.525,101.665c-43.676,2.372-87.494,5.427-131.898,8.261
			C5721.556,501.432,5615.828,496.139,5509.73,468.707z"/>
		<path id="_x31_80632315" fill="none" stroke="#010101" stroke-width="64" d="M5586.059,645.248
			c-44.081-15.9-90.084-33.674-136.814-44.16l-3.588-145.333c20.637,2.884,41.871,7.203,64.074,12.952
			c106.098,27.433,211.825,32.725,323.711,25.517c44.404-2.836,88.223-5.891,131.898-8.263l-11.169,253.934
			c0,17.995-1.46,15.81-1.317,29.914l-60.116-12.712C5799.304,731.572,5683.687,680.431,5586.059,645.248z"/>
		<path id="_x31_80632314" fill="none" stroke="#010101" stroke-width="64" d="M5548.854,897.342
			c-30.744-26.737-60.011-37.413-93.728-54.413l-5.883-241.842c46.73,10.488,92.733,28.26,136.814,44.16
			c97.623,35.185,213.245,86.326,306.679,111.85l3.16,0.667c12.915,2.878,1.448,0.307,27.364,5.787
			c6.93,1.465,23.443,4.958,29.592,6.259l-1.773,40.341l-12.961,293.311c-79.853-26.505-158.208-57.045-233.648-94.975
			C5648.572,980.354,5597.37,939.583,5548.854,897.342z"/>
		<path id="_x31_80632313" fill="none" stroke="#010101" stroke-width="64" d="M5455.127,842.929
			c33.717,16.999,62.983,27.676,93.728,54.413c48.516,42.241,99.718,83.014,155.616,111.145
			c75.44,37.929,153.796,68.47,233.648,94.974l-13.137,297.788c-141.715-37.434-289.997-73.657-412.232-99.704
			c-17.43-3.75-32.863-5.025-46.521-4.27L5455.127,842.929z"/>
		<path id="_x31_80632312" fill="none" stroke="#010101" stroke-width="64" d="M5470.166,1397.18l-1.566-2.865l-2.368-97.04
			c13.659-0.755,29.089,0.517,46.522,4.27c122.234,26.044,270.514,62.27,412.23,99.704l-2.62,58.874l-0.765,3.876
			c-41.01-8.349-86.631-17.484-139.06-27.756c-84.21-16.524-172.382-34.446-253.026-45.775
			C5506.162,1387.157,5487.047,1390.096,5470.166,1397.18z"/>
		<path id="_x31_80632321" fill="none" stroke="#010101" stroke-width="64" d="M5443.766,377.516l1.891,78.239
			c-76.477-10.618-144.412-0.626-220.045,36.218c-57.012,27.77-130.127,60.493-182.85,107.704l-36.059-74.985l-0.518-0.752
			c43.293-33.23,83.907-63.704,143.363-88.619C5233.672,400.053,5340.639,383.417,5443.766,377.516z"/>
		<path id="_x31_80632320" fill="none" stroke="#010101" stroke-width="64" d="M5445.656,455.755l3.59,145.333
			c-49.955-11.212-100.771-13.992-151.029,2.782c-86.017,28.617-144.904,80.672-182.6,147.286l-72.855-151.479
			c52.723-47.213,125.838-79.934,182.85-107.702C5301.244,455.129,5369.18,445.137,5445.656,455.755z"/>
		<path id="_x31_80632319" fill="none" stroke="#010101" stroke-width="64" d="M5434.333,831.781
			c-91.734-52.462-166.422-38.226-190.302,79.347c-6.613,32.53-8.425,62.809-7.328,91.763l-121.086-251.734
			c37.695-66.613,96.583-118.669,182.6-147.285c50.258-16.775,101.074-13.992,151.029-2.783l5.881,241.842
			C5448.442,839.513,5441.463,835.874,5434.333,831.781z"/>
		<path id="_x31_80632318" fill="none" stroke="#010101" stroke-width="64" d="M5244.031,911.128
			c23.88-117.573,98.567-131.809,190.302-79.347c7.13,4.094,14.109,7.734,20.794,11.149l11.102,454.344
			c-32.062,1.79-54.513,14.851-71.34,34.676l-158.186-328.985c0,0,0,0,0-0.075C5235.606,973.934,5237.419,943.658,5244.031,911.128z
			"/>
		<path id="_x31_80632317" fill="none" stroke="#010101" stroke-width="64" d="M5466.229,1297.274l2.371,97.04l1.562,2.865
			c-11.858,5.059-22.676,12.154-33.041,20.759l-2.296-3.008l-0.075-0.075l-39.861-82.907
			C5411.716,1312.125,5434.166,1299.064,5466.229,1297.274z"/>
		<path id="_x31_80632305" fill="none" stroke="#010101" stroke-width="64" d="M7825.094,1079.486
			c-45.577-26.5-91.665-52.842-138.335-78.8l51.157-79.349c190.604,101.966,382.217,246.387,529.039,412.756
			c54.778,62.042,90.843,144.837,153.161,208.162c66.457,67.523,114.21,142.914,155.652,215.641
			c47.395,83.203,53.609,119.686,82.527,211.432c4.681,14.735,16.119,33.114,30.498,52.978l-66.952,35.006
			c-89.001-157.824-154.98-322.572-262.165-472.085c-32.171-44.845-92.786-134.729-128.5-175.517
			C8112.515,1273.975,7979.103,1169.111,7825.094,1079.486z"/>
		<path id="_x31_80632304" fill="none" stroke="#010101" stroke-width="64" d="M7685.228,1376.303
			c-57.444-36.38-123.57-57.121-185.107-86.101v-0.075l186.639-289.441c46.67,25.958,92.758,52.3,138.335,78.8
			c154.009,89.625,287.421,194.488,406.083,330.225c35.714,40.788,96.329,130.671,128.5,175.518
			c107.185,149.512,173.164,314.259,262.165,472.083l-256.105,133.907c-71.827-121.839-156.081-229.362-243.596-348.755
			c-65.212-89.001-124.27-191.034-195.621-272.762C7858.644,1491.802,7771.062,1430.725,7685.228,1376.303z"/>
		<path id="_x31_80632303" fill="none" stroke="#010101" stroke-width="64" d="M7467.342,1409.086
			c-11.089-5.491-22.252-10.828-33.561-16.015l66.339-102.869c61.533,28.98,127.663,49.72,185.107,86.101
			c85.834,54.422,173.416,115.5,241.292,193.4c71.352,81.728,130.409,183.761,195.621,272.762
			c87.515,119.393,171.769,226.915,243.596,348.755l-103.156,53.978c-56.007-104.189-125.472-209.143-187.323-305.309
			c-107.582-166.948-255-291.527-411.165-406.229C7603.424,1489.124,7536.605,1443.519,7467.342,1409.086z"/>
		<path id="_x31_80632302" fill="none" stroke="#010101" stroke-width="64" d="M7544.11,1874.697
			c-90.979-78.709-180.453-153.491-278.046-221.585v-0.079l167.643-259.961l0.074,0c11.306,5.186,22.472,10.524,33.561,16.014
			c69.264,34.432,136.082,80.037,196.75,124.572c156.165,114.703,303.583,239.281,411.165,406.23
			c61.852,96.166,131.316,201.118,187.323,305.31l-272.752,142.581C7866.52,2197.492,7718.984,2025.822,7544.11,1874.697z"/>
		<path id="_x31_80632301" fill="none" stroke="#010101" stroke-width="64" d="M7540.365,2313.583
			c-123.627-156.689-281.092-284.343-441.229-401.58l166.928-258.892c97.593,68.095,187.066,142.876,278.046,221.585
			c174.874,151.125,322.404,322.797,445.718,513.083l-282.347,147.613C7653.735,2460.223,7597.814,2386.438,7540.365,2313.583z"/>
		<path id="_x31_80632300" fill="none" stroke="#010101" stroke-width="64" d="M7099.137,1912.003
			c160.137,117.236,317.602,244.891,441.229,401.579c57.449,72.857,113.37,146.638,167.116,221.811l-63.318,33.07
			c-19.873-28.372-40.03-56.059-60.988-83.13c-54.352-70.16-88.684-111.949-136.847-162.763
			c-93.591-98.851-130.562-141.446-275.546-263.701c-40.907-34.513-76.651-64.001-108.627-89.663l0.575-0.765L7099.137,1912.003z"/>
		<path id="_x31_80632311" fill="none" stroke="#010101" stroke-width="64" d="M6224.625,485.713
			c-87.91-6.625-173.316-4.481-259.285,0.248l4.525-101.665c6.507,0.383,13.092,0.919,19.6,1.455
			c117.539,9.866,216.602,6.284,338.852,26.639c206.065,34.307,402.416,83.431,616.734,160.113
			c69.896,24.945,146.26,53.31,220.097,84.81c186.938,79.558,387.192,167.693,551.903,253.03
			c6.979,3.639,13.887,7.281,20.865,10.995l-51.157,79.349c-309.631-172.482-641.897-328.792-982.786-412.362
			C6541.553,548.537,6394.814,498.57,6224.625,485.713z"/>
		<path id="_x31_80632310" fill="none" stroke="#010101" stroke-width="64" d="M6397.229,780.34
			c-113.428-29.325-230.869-29.637-347.479-34.433c-21.789-0.901-61.811-5.622-95.576-6.012l11.168-253.934
			c85.967-4.728,171.373-6.872,259.286-0.248c170.187,12.856,316.925,62.824,479.348,102.611
			c340.888,83.569,673.155,239.88,982.785,412.362l-186.639,289.441c-9.839-4.521-19.535-9.345-29.014-14.472
			c-76.051-40.805-148.589-88.244-221.841-134.158c-88.328-55.382-183.547-76.563-275.019-124.933
			C6791.958,920.197,6596.814,831.778,6397.229,780.34z"/>
		<path id="_x31_80632309" fill="none" stroke="#010101" stroke-width="64" d="M6262.961,872.498
			c-109.033-14.205-219.523-6.178-311.881-62.349v-0.076l3.091-70.18c33.769,0.391,73.79,5.112,95.576,6.012
			c116.609,4.795,234.054,5.108,347.477,34.432c199.591,51.44,394.734,139.859,577.021,236.228
			c91.472,48.37,186.691,69.551,275.022,124.931c73.251,45.917,145.787,93.355,221.839,134.158
			c9.481,5.129,19.173,9.952,29.015,14.472v0.075l-66.341,102.87h-0.072c-98.021-45.417-203.703-82.256-294.041-141.183
			c-61.205-39.901-115.492-82.08-182.889-112.512c-113.864-51.387-221.553-127.639-340.951-162.131
			C6498.408,943.263,6384.436,888.313,6262.961,872.498z"/>
		<path id="_x31_80632308" fill="none" stroke="#010101" stroke-width="64" d="M5951.08,810.149
			c92.357,56.17,202.848,48.144,311.881,62.349c121.473,15.815,235.447,70.765,352.865,104.747
			c119.398,34.493,227.086,110.744,340.955,162.131c67.393,30.432,121.68,72.611,182.887,112.515
			c90.336,58.923,196.02,95.762,294.039,141.18l-167.643,259.961c-53.287-37.183-108.967-72.446-168.639-105.238
			c-158.002-86.85-313.08-166.681-479.232-235.547c-217.74-90.295-454.887-133.816-680.074-208.788L5951.08,810.149z"/>
		<path id="_x31_80632307" fill="none" stroke="#010101" stroke-width="64" d="M6188.74,1474.737
			c-78.723-23.334-169.746-48.655-263.758-73.489l13.137-297.788c225.188,74.972,462.334,118.494,680.074,208.788
			c166.152,68.866,321.23,148.697,479.232,235.548c59.672,32.793,115.352,68.055,168.639,105.239v0.076l-166.928,258.892
			c-45.941-33.7-92.17-66.486-137.877-98.9c-194.844-138.167-390.998-211.256-612.023-286.424
			C6295.852,1508.528,6242.03,1490.536,6188.74,1474.737z"/>
		<path id="_x31_80632306" fill="none" stroke="#010101" stroke-width="64" d="M5922.361,1460.122l2.621-58.875
			c94.012,24.833,185.037,50.158,263.758,73.489c53.29,15.799,107.115,33.792,160.498,51.94
			c221.027,75.169,417.182,148.256,612.021,286.424c45.713,32.414,91.936,65.2,137.879,98.901l-36.408,56.438l-0.575,0.764
			c-105.805-85.221-169.897-128.657-242.345-174.428c-74.505-47.039-242.531-135.146-357.495-179.392
			c-114.892-44.249-174.794-63.843-325.005-102.625c-64.697-16.737-130.103-31.266-215.711-48.76L5922.361,1460.122z"/>
		<path id="_x31_80632299" fill="none" stroke="#010101" stroke-width="64" d="M8668.528,2135.595
			c-16.409-25.832-31.878-51.978-46.687-78.283l66.952-35.005c32.312,44.616,79.614,96.806,98.028,132.701
			c64.93,126.313,100.474,201.227,151.952,326.929c28.55,69.758,53.331,142.818,72.449,219.123l-89.972,20.472
			c-4.156-13.149-8.602-26.525-13.348-40.274C8842.394,2490.19,8777.548,2307.305,8668.528,2135.595z"/>
		<path id="_x31_80632298" fill="none" stroke="#010101" stroke-width="64" d="M8443.706,2342.414
			c-23.708-53.583-49.861-103.5-77.97-151.195l256.105-133.906c14.809,26.305,30.277,52.449,46.687,78.282
			c109.02,171.71,173.865,354.594,239.376,545.663c4.746,13.749,9.191,27.123,13.348,40.272l-275.76,62.533
			c-2.766-6.264-5.533-12.525-8.374-18.864C8574.911,2626.571,8506.385,2484.221,8443.706,2342.414z"/>
		<path id="_x31_80632297" fill="none" stroke="#010101" stroke-width="64" d="M8298.45,2316.09
			c-11.126-23.538-23.131-47.219-35.87-70.892l103.156-53.978c28.108,47.695,54.262,97.611,77.97,151.195
			c62.679,141.806,131.205,284.156,193.412,422.783c2.838,6.339,5.608,12.603,8.374,18.868l-110.095,25.011
			c-27.91-63.927-57.776-126.845-87.779-188.472C8398.137,2518.994,8346.623,2418.394,8298.45,2316.09z"/>
		<path id="_x31_80632296" fill="none" stroke="#010101" stroke-width="64" d="M8224.515,2838.171
			c-65.853-159.82-143.672-310.185-234.687-450.393l272.752-142.581c12.739,23.673,24.744,47.353,35.87,70.892
			c48.173,102.304,99.687,202.904,149.168,304.512c30.003,61.628,59.869,124.546,87.779,188.474l-296.318,67.308h-0.072
			C8234.565,2863.54,8229.686,2850.779,8224.515,2838.171z"/>
		<path id="_x31_80632295" fill="none" stroke="#010101" stroke-width="64" d="M7962.668,2939.075
			c-76.251-140.066-162.454-273.957-255.187-403.682l282.347-147.614c91.015,140.208,168.834,290.573,234.687,450.393
			c5.171,12.608,10.051,25.369,14.492,38.214L7962.668,2939.075z"/>
		<path id="_x31_80632294" fill="none" stroke="#010101" stroke-width="64" d="M7731.494,2698.628
			c-29.689-45.407-58.189-88.546-87.331-130.088c0-0.078,0-0.078,0-0.078l63.318-33.07
			c92.732,129.725,178.936,263.616,255.187,403.682l-71.456,16.25l-3.124,1.703h-0.072
			C7842.99,2869.552,7787.242,2783.937,7731.494,2698.628z"/>
		<path id="_x31_80632293" fill="none" stroke="#010101" stroke-width="64" d="M9011.224,2701.06
			c29.395,117.222,45.273,241.945,40.688,373.716c-3.268,96.043,38.63,141.765,41.372,232.051
			c1.021,35.859,8.247,107.442,14.623,167.053l-3.21,0.341l-123.881,6.277c0.601-171.464-17.174-346.445-17.867-515.999
			c-0.25-90.089-15.966-162.334-41.697-242.97L9011.224,2701.06z"/>
		<path id="_x31_80632292" fill="none" stroke="#010101" stroke-width="64" d="M8737.087,3075.023
			c-23.012-107.28-48.795-192.463-91.595-290.959l275.76-62.533c25.731,80.634,41.447,152.881,41.697,242.968
			c0.693,169.553,18.468,344.534,17.867,515.999l-188.301,9.56c0.048-2.046,0.103-4.173,0.081-6.22
			c0.084-20.626-0.858-41.545-3.194-62.983C8776.896,3304.59,8761.628,3189.263,8737.087,3075.023z"/>
		<path id="_x31_80632291" fill="none" stroke="#010101" stroke-width="64" d="M8535.397,2809.076l110.095-25.013
			c42.8,98.498,68.583,183.678,91.595,290.959c24.541,114.241,39.81,229.569,52.315,345.833c2.336,21.435,3.278,42.357,3.194,62.983
			c0.021,2.047-0.033,4.17-0.081,6.22l-98.024,4.937c-0.869-100.319-8.832-201.013-29.569-300.509
			C8637.348,3062.384,8589.931,2933.604,8535.397,2809.076z"/>
		<path id="_x31_80632290" fill="none" stroke="#010101" stroke-width="64" d="M8292.233,3073.727
			c-15.652-66.335-30.579-133.132-53.154-197.344l296.318-67.308c54.533,124.529,101.95,253.308,129.524,385.41
			c20.737,99.496,28.7,200.19,29.569,300.509l-334.099,16.91c0.5-73.184,5.608-146.42-8.282-218.914
			C8337.922,3219.434,8309.564,3147.097,8292.233,3073.727z"/>
		<path id="_x31_80632289" fill="none" stroke="#010101" stroke-width="64" d="M7962.668,2939.075l276.339-62.691h0.072
			c22.575,64.212,37.502,131.011,53.154,197.344c17.331,73.37,45.688,145.707,59.877,219.263
			c13.891,72.494,8.782,145.73,8.282,218.914l-200.207,10.144c-19.499-34.444-46.32-63.726-83-84.558
			c8.529,26.598,14.488,59.293,18.012,90.042c-10.349-83.987-34.629-136.195-45.275-170.129
			c134.44,163.475,127.511,70.882,78.852-57.887C8081.465,3174.301,8025.444,3054.569,7962.668,2939.075z"/>
		<path id="_x31_80632288" fill="none" stroke="#010101" stroke-width="64" d="M7916.156,3015.113
			c-8.747-19.47-18.151-38.782-28.068-58.087l3.124-1.701l71.456-16.25c62.776,115.494,118.797,235.23,166.105,360.441
			c48.659,128.769,55.589,221.358-78.852,57.887c-20.771-66.657-46.244-135.613-74.72-205.073
			C7956.616,3106.657,7936.713,3060.767,7916.156,3015.113z"/>
		<path id="_x31_80632326" fill="none" stroke="#010101" stroke-width="64" d="M4869.346,910.435l-7.307,0.079l-2.919-288.132
			c63.386-33.678,106.455-67.211,147.065-98.442l0.518,0.754l36.059,74.984c-24.408,21.804-44.4,46.742-56.456,75.691
			c-32.394,77.853-31.001,172.021-27.825,261.925c0.887,22.665,1.774,45.102,2.286,66.861L4869.346,910.435z"/>
		<path id="_x31_80632325" fill="none" stroke="#010101" stroke-width="64" d="M4960.767,1004.152l-2.286-66.859
			c-0.113-3.294-0.23-6.594-0.34-9.899c-2.892-86.884-3.038-177.026,28.165-252.025c12.056-28.95,32.048-53.89,56.456-75.691
			l72.855,151.479c-17.086,30.217-29.758,63.493-38.605,98.852c-19.455,77.939-22.147,165.784-21.5,251.318l-54.622-55.987
			l-12.726-13.046C4965.748,1009.269,4979.033,1022.915,4960.767,1004.152z"/>
		<path id="_x31_80632324" fill="none" stroke="#010101" stroke-width="64" d="M5077.012,850.008
			c8.848-35.359,21.52-68.635,38.605-98.852l121.086,251.735c0,0.075,0,0.075,0,0.075c4.093,108.472,48.711,198.985,36.134,321.137
			l-217.325-222.777C5054.864,1015.792,5057.557,927.947,5077.012,850.008z"/>
		<path id="_x31_80632323" fill="none" stroke="#010101" stroke-width="64" d="M5272.837,1324.103
			c12.577-122.151-32.038-212.665-36.134-321.137l158.186,328.985c-17.479,20.512-28.742,48.312-38.383,77.994L5272.837,1324.103z"
			/>
		<path id="_x31_80632322" fill="none" stroke="#010101" stroke-width="64" d="M5434.825,1414.931l2.296,3.008
			c-12.611,10.452-24.611,23.019-37.34,36.428l-43.275-44.421c9.641-29.682,20.908-57.482,38.385-77.996l39.862,82.907
			L5434.825,1414.931z"/>
		<path id="_x31_80632332" fill="none" stroke="#010101" stroke-width="64" d="M4960.926,1056.02
			c-3.645,159.82-36.309,311.69-40.282,468.101c-2.161,82.377-6.118,110.405-5.426,185.85l-0.847,10.246
			c-17.043-1.557-31.975-3.973-44.205-6.571l-0.006-0.606l-8.121-802.526l7.307-0.08l91.421,93.72
			C4961.164,1021.894,4961.34,1039.256,4960.926,1056.02z"/>
		<path id="_x31_80632331" fill="none" stroke="#010101" stroke-width="64" d="M4920.646,1524.121
			c3.971-156.411,36.635-308.281,40.279-468.101c0.414-16.763,0.24-34.126-0.159-51.867l27.397,28.14
			c-0.73,21.772-1.775,41.196-0.146,50.658c11.013,62.442-3.83,119.857-10.284,182.414
			c-11.243,109.322-19.183,220.351-33.514,327.812c-4.958,37.136-6.942,79.473-9.563,116.583l-0.684,11.913
			c-6.799-0.381-13.382-0.841-19.602-1.456l0.847-10.247C4914.529,1634.525,4918.482,1606.499,4920.646,1524.121z"/>
		<path id="_x31_80632330" fill="none" stroke="#010101" stroke-width="64" d="M4934.654,1709.759
			c2.622-37.111,4.604-79.448,9.562-116.583c14.334-107.459,22.273-218.49,33.517-327.812
			c6.454-62.557,21.294-119.972,10.284-182.415c-1.631-9.461-0.584-28.884,0.146-50.657l67.348,69.031
			c0.47,82.577,4.062,163.072-1.615,230.475c-9.522,113.247-54.543,264.644-71.618,389.878c-16.946,0.868-33.244,0.817-48.306-0.004
			L4934.654,1709.759z"/>
		<path id="_x31_80632329" fill="none" stroke="#010101" stroke-width="64" d="M5053.896,1331.799
			c5.677-67.402,2.085-147.897,1.615-230.473l217.325,222.777c-0.261,2.81-0.598,5.696-0.935,8.582
			c-14.047,113.826-60.253,220.345-95.348,327.044l0.075,0.076c-61.391,43.06-132.776,58.851-194.352,61.873
			C4999.354,1596.441,5044.374,1445.044,5053.896,1331.799z"/>
		<path id="_x31_80632328" fill="none" stroke="#010101" stroke-width="64" d="M5311.012,1543.3
			c-40.162,38.961-83.683,78.792-127.199,111.268c-2.394,1.769-4.79,3.542-7.183,5.235l-0.073-0.076
			c35.093-106.699,81.299-213.218,95.346-327.044c0.337-2.885,0.676-5.772,0.939-8.582l83.664,85.843
			c-14.666,45.356-25.342,95.293-47.783,130.802L5311.012,1543.3z"/>
		<path id="_x31_80632327" fill="none" stroke="#010101" stroke-width="64" d="M5374.471,1480.652
			c-19.752,19.704-41.021,41.093-63.459,62.648l-2.289-2.553c22.441-35.509,33.114-85.446,47.783-130.802l43.275,44.421
			C5391.756,1462.871,5383.369,1471.76,5374.471,1480.652z"/>
		<path id="_x31_80632287" fill="none" stroke="#010101" stroke-width="64" d="M9041.895,4034.701l-151.484-42.105
			c45.599-108.708,71.151-226.908,82.677-344.35c5.432-55.34,7.568-111.328,7.729-167.748l123.881-6.277l3.21-0.341
			c4.439,41.204,8.452,76.65,9.909,90.515c7.632,75.441-18.646,143.83-19.7,220.129
			C9097.688,3814.254,9071.636,3955.133,9041.895,4034.701z"/>
		<path id="_x31_80632286" fill="none" stroke="#010101" stroke-width="64" d="M8680.254,3886.371
			c10.86,83.754,71.868-33.242,78.687-110.361c8.713-99.664,32.215-189.173,33.575-285.952l188.301-9.56
			c-0.161,56.423-2.298,112.412-7.729,167.752c-11.525,117.438-37.078,235.638-82.677,344.35l-228.58-63.485
			c4.978-13.856,9.513-27.856,13.462-42.007L8680.254,3886.371z"/>
		<path id="_x31_80632285" fill="none" stroke="#010101" stroke-width="64" d="M8758.94,3776.01
			c-6.818,77.119-67.826,194.11-78.687,110.356c-2.218-16.81-2.397-41.679,0.321-76.589
			c7.942-103.222,14.914-208.783,13.916-314.786l98.024-4.936C8791.155,3586.837,8767.653,3676.346,8758.94,3776.01z"/>
		<path id="_x31_80632284" fill="none" stroke="#010101" stroke-width="64" d="M8360.393,3511.904l334.099-16.91
			c0.998,106.005-5.974,211.562-13.916,314.783c-2.719,34.91-2.539,59.782-0.321,76.594l-4.962,0.736
			c-3.949,14.15-8.484,28.15-13.462,42.007l-287.28-79.829c1.066-31.939,0.742-63.858-0.522-95.241
			c-3.139-78.982-14.095-157.502-13.727-236.602C8360.282,3515.621,8360.338,3513.727,8360.393,3511.904z"/>
		<path id="_x31_80632283" fill="none" stroke="#010101" stroke-width="64" d="M8206.944,3802.728
			c3.808-93.315-1.591-200.788-46.762-280.68l200.21-10.144c-0.055,1.822-0.11,3.717-0.092,5.538
			c-0.368,79.097,10.588,157.615,13.727,236.602c1.265,31.378,1.589,63.298,0.522,95.238L8206.944,3802.728z"/>
		<path id="_x31_80632275" fill="none" stroke="#010101" stroke-width="64" d="M7970.933,4333.323
			c-48.191,3.94-32.331-13.204-31.341-18.666c1.709-9.417-0.661-14.195,9.71-10.146c12.229,4.783,64.697-19.434,76.494-23.582
			c45.224-15.963,98.113-32.236,126.247-75.463c15.401-23.599,22.727-50.902,27.195-78.857l102.978,43.998
			c-25.133,37.051-50.922,74.039-66.651,115.688c-15.159,39.9-24.433,83.913-34.305,126.711c-0.771,3.496-1.614,6.92-2.383,10.338
			l-0.361,0.232c-13.607-23.135-42.741-42.075-74.501-53.789C8054.354,4351.598,7999.117,4331.045,7970.933,4333.323z"/>
		<path id="_x31_80632278" fill="none" stroke="#010101" stroke-width="64" d="M8736.45,4637.186
			c2.779-21.641-79.531-67.154-180.01-109.438l3.99-10.282c0.628-2.737,1.481-5.474,2.476-8.139
			c10.25-27.108,39.985-42.373,54.352-67.022c20.541-35.488,37.583-70.329,55.576-104.727l148.924,63.593l0.073,0.076l1.544,0.97
			c-17.957,30.909-30.149,53.637-32.612,63.145c-29.561,111.722-59.681,204.637-94.555,296.931
			C8706.995,4730.627,8719.175,4692.352,8736.45,4637.186z"/>
		<path id="_x31_80632276" fill="none" stroke="#010101" stroke-width="64" d="M8232.544,4432.85l-51.284-19.844
			c9.872-42.798,19.146-86.811,34.305-126.711c15.729-41.648,41.519-78.637,66.651-115.688l198.755,84.891
			c-22.368,35.427-43.932,70.85-63.373,106.703c-15.213,27.994-20.524,59.073-24.079,90.654l-3.877,13.844
			c-66.05-20.357-124.572-33.143-156.922-30.817l-0.176-2.958V4432.85z"/>
		<path id="_x31_80632277" fill="none" stroke="#010101" stroke-width="64" d="M8556.44,4527.748
			c-53.794-22.615-112.842-44.346-166.799-61.049l3.877-13.844c3.555-31.581,8.866-62.66,24.079-90.654
			c19.441-35.854,41.005-71.271,63.373-106.703l191.863,82.01v0.07c-17.993,34.397-35.035,69.238-55.576,104.727
			c-14.366,24.649-44.102,39.914-54.352,67.022c-0.994,2.665-1.848,5.401-2.476,8.142L8556.44,4527.748z"/>
		<path id="_x31_80632282" fill="none" stroke="#010101" stroke-width="64" d="M8672.834,4337.578v-0.07
			c19.357-37.067,39.741-73.541,66.782-109.701c52.062-69.271,107.43-136.838,143.155-217.307
			c2.646-5.943,5.217-11.887,7.639-17.904l151.484,42.105c-5.41,14.469-10.911,26.889-16.442,36.276
			c-59.558,101.202-152.725,246.681-202.002,331.239l-0.075,0.002l-1.544-0.972l-0.073-0.071L8672.834,4337.578z"/>
		<path id="_x31_80632281" fill="none" stroke="#010101" stroke-width="64" d="M8480.971,4255.498
			c66.462-105.298,139.43-210.363,180.859-326.384l228.58,63.481c-2.424,6.018-4.998,11.961-7.639,17.904
			c-35.726,80.469-91.093,148.035-143.157,217.307c-27.039,36.16-47.426,72.634-66.78,109.701L8480.971,4255.498z"/>
		<path id="_x31_80632280" fill="none" stroke="#010101" stroke-width="64" d="M8282.216,4170.605
			c26.641-39.42,52.619-78.906,65.022-124.24c17.411-63.356,25.283-130.402,27.312-197.083l287.28,79.832
			c-41.43,116.021-114.397,221.086-180.859,326.384L8282.216,4170.605z"/>
		<path id="_x31_80632279" fill="none" stroke="#010101" stroke-width="64" d="M8282.216,4170.605l-102.978-43.996
			c2.68-16.486,4.412-33.111,6.223-49.285c8.181-72.736,12.78-145.36,18.18-218.368c1.354-17.836,2.553-36.731,3.304-56.229
			l167.605,46.555c-2.028,66.681-9.9,133.727-27.312,197.083C8334.835,4091.699,8308.856,4131.186,8282.216,4170.605z"/>
		<path id="_x31_80632203" fill="none" stroke="#010101" stroke-width="64" d="M8582.223,4538.849
			c-8.429-3.713-17.032-7.42-25.782-11.101c-22.417-9.427-45.755-18.691-69.253-27.51c-32.88-12.342-66.079-23.795-97.546-33.539
			c-66.05-20.361-124.572-33.143-156.922-30.822c-14.971,1.076-24.282,5.425-26.172,13.71
			c-15.397,67.05-20.743,138.318-43.616,203.33c-17.122,48.642-71.141,213.104-122.827,319.833
			c-22.263,45.973-45.937,74.893-63.036,89.788c-17.459,15.206-35.465,19.576-43.639,42.185
			c-9.314,25.734,8.105,49.887,4.574,76.695c-2.845,22.098-6.643,43.979-12.051,65.575c-12.085,47.904-34.666,91.301-61.957,131.638
			c-43.416,64.475-124.887,151.887-179.438,206.555c-16.568,16.557-36.358,32.395-57.602,41.726
			c-17.463,7.698-37.825,10.269-56.551,8.806c-10.165-0.798-21.042-6.822-30.485-0.959c-14.086,8.799-17.206,40.08-21.361,55.141
			c-17.135,61.759-58.787,134.258-40.894,198.138c2.01,7.163,4.285,13.903,6.792,20.284c0.691,8.689,1.546,16.775,1.006,21.35
			c-5.162,43.658-47.743,29.248-79.094,34.101c-32.393,5.019-67.267,13.476-99.869,8.345c-36.223-5.701-69.965-8.695-105.015-20.031
			c-44.682-14.451-79.282-27.511-119.737-52.115c-65.629-39.914-120.385-89.644-181.029-137.521
			c-25.053-19.774-79.003-68.828-110.604-27.749c-16.956,22.044-34.548,43.575-51.617,65.535
			c-21.047,27.069-41.544,52.806-61.94,78.347c-31.704,39.693-63.166,78.896-96.065,121.854
			c85.729,62.613,209.648,149.02,310.123,211.92c-0.055,0.315-0.123,0.623-0.172,0.936c0.287-0.16,0.553-0.348,0.823-0.523
			c6.648,4.156,13.187,8.211,19.61,12.146c0,0,9.195,7.481,9.211,7.489c0.034,0.021,0.277-0.377,0.701-1.123
			c7.07,4.416,14.354,8.658,21.702,12.694c-0.124,0.269-0.25,0.539-0.374,0.812c56.607,36.641,134.314,88.654,246.316,117.704
			c8.612,5.636,21.115,6.802,29.887,8.733c1.734,0.383,7.119,0.923,13.627,1.54c58.387,12.167,120.485,17.056,199.437,13.304
			c85.972-4.082,163.778-24.645,234.895-58.241c12.248-2.513,24.574-8.817,33.598-17.282l0.561-0.135
			c23.492-12.863,46.228-27.182,68.273-42.812c45.207-31.962,87.577-69.51,127.494-111.425c8.75-9.192,17.351-18.617,25.877-28.188
			c145.453-163.868,258.707-382.438,366.003-539.896c132.644-194.441,207.798-357.771,303.607-574.558
			c2.854-6.477,5.639-12.798,8.5-19.203c36.571-83.285,67.837-157.335,95.95-231.729c-0.005-0.153,0.066-0.229,0.066-0.307
			c10.789-31.66,22.972-69.939,40.245-125.102C8738.983,4617.427,8670.599,4577.771,8582.223,4538.849z"/>
		<path id="_x31_80632274" fill="none" stroke="#010101" stroke-width="64" d="M8582.223,4538.849
			c-9.812,40.167-20.771,76.993-42.548,114.024c-22.5,38.263-53.418,68.574-79.962,103.409
			c-17.918,23.514-33.084,47.503-30.322,78.606c3.133,35.267,38.278,71.826,37.309,105.447
			c-2.184,75.375-57.691,74.329-112.306,86.135c-111.468,24.099-70.897,55.775-39.953,139.422
			c8.94,24.177,19.371,35.387,6.664,59.984c-23.558,45.607-74.049,76.797-104.677,118.23
			c-38.123,51.602-69.371,108.044-100.713,164.213c-49.786,89.256-104.961,169.597-146.462,264.076
			c-19.558,44.539-39.175,94.32-70.127,131.952c-27.536,33.479-61.143,59.239-88.978,94.272
			c-24.254,30.535-42.812,65.789-65.754,97.393c-23.123,31.863-51.764,54.323-83.472,75.033c-1.723,1.127-3.574,2.139-5.485,3.086
			c5.494,15.419,10.581,30.928,15.452,46.299c8.155,25.85,16.691,60.711,26.495,90.71l3.049-0.731
			c23.49-12.859,46.229-27.178,68.276-42.814c45.203-31.961,87.575-69.504,127.494-111.419c8.75-9.2,17.347-18.622,25.877-28.188
			c145.45-163.872,258.703-382.442,365.999-539.901c132.647-194.441,207.802-357.766,303.608-574.559
			c2.856-6.475,5.642-12.799,8.498-19.204c36.576-83.282,67.837-157.331,95.95-231.729c0-0.146,0.071-0.229,0.071-0.299
			c10.787-31.665,22.967-69.945,40.242-125.109C8738.983,4617.427,8670.599,4577.771,8582.223,4538.849z"/>
		<path id="_x31_80632273" fill="none" stroke="#010101" stroke-width="64" d="M7744.395,6096.014
			c22.941-31.605,41.5-66.857,65.754-97.393c27.835-35.033,61.441-60.799,88.978-94.272c30.952-37.632,50.569-87.413,70.127-131.956
			c41.501-94.476,96.676-174.816,146.462-264.072c31.342-56.169,62.59-112.611,100.713-164.213
			c30.628-41.434,81.119-72.627,104.677-118.23c12.707-24.598,2.276-35.813-6.664-59.988
			c-30.944-83.643-71.515-115.319,39.953-139.418c54.614-11.806,110.122-10.76,112.306-86.135
			c0.97-33.621-34.176-70.184-37.309-105.451c-2.762-31.104,12.404-55.089,30.322-78.603
			c26.544-34.835,57.462-65.146,79.962-103.409c21.777-37.031,32.736-73.857,42.548-114.024c-8.429-3.713-17.032-7.42-25.782-11.101
			c-22.417-9.427-45.755-18.697-69.253-27.513c-7.48,10.483-13.774,22.812-19.151,31.011
			c-38.758,59.097-75.183,116.475-107.219,180.178c-25.549,50.732-16.521,113.111-44.695,159.998
			c-28.538,47.498-70.407,86.809-100.284,137.323c-33.463,56.558-50.656,120.319-85.151,176.737
			c-10.122,16.539-20.966,32.568-32.015,48.434c-28.274,40.652-57.816,80.352-79.555,125.448
			c-29.675,61.606-48.508,133.819-72.377,198.987c-43.323,118.404-85.053,173.969-155.644,267.072
			c-25.474,33.614-57.268,61.406-85.898,91.965c-26.475,28.258-47.935,59.717-69.348,91.926
			c-7.205,10.835-14.248,21.941-21.548,32.473c-4.152,5.984-8.559,12.305-13.191,18.398c23.13,34.734,40.104,74.031,54.326,113.943
			c1.911-0.947,3.763-1.958,5.485-3.087C7692.631,6150.337,7721.271,6127.875,7744.395,6096.014z"/>
		<path id="_x31_80632272" fill="none" stroke="#010101" stroke-width="64" d="M7635.851,6009.318
			c21.413-32.213,42.873-63.672,69.348-91.93c28.631-30.552,60.425-58.351,85.898-91.965
			c70.591-93.104,112.32-148.666,155.644-267.068c23.869-65.168,42.702-137.383,72.377-198.991
			c21.738-45.097,51.28-84.796,79.555-125.447c11.049-15.866,21.893-31.896,32.015-48.435
			c34.495-56.418,51.688-120.178,85.151-176.732c29.877-50.514,71.746-89.83,100.284-137.324
			c28.175-46.891,19.146-109.268,44.695-160.002c32.036-63.703,68.461-121.076,107.219-180.178
			c5.377-8.193,11.671-20.527,19.151-31.008c-32.88-12.342-66.079-23.795-97.546-33.539
			c-66.05-20.357-124.572-33.143-156.922-30.817c-14.971,1.071-24.282,5.42-26.172,13.705
			c-15.397,67.05-20.743,138.318-43.616,203.33c-17.122,48.642-71.141,213.104-122.827,319.833
			c-22.263,45.973-45.937,74.893-63.036,89.788c-17.459,15.208-35.465,19.576-43.639,42.185
			c-9.314,25.734,8.105,49.887,4.574,76.695c-2.845,22.098-6.643,43.979-12.051,65.575c-12.085,47.907-34.666,91.301-61.957,131.638
			c-43.416,64.475-124.887,151.893-179.438,206.555c-16.568,16.557-36.358,32.395-57.602,41.726
			c-17.463,7.698-37.825,10.269-56.551,8.806c-10.165-0.798-21.042-6.822-30.485-0.959c-14.086,8.804-17.206,40.08-21.361,55.141
			c-17.135,61.764-58.787,134.258-40.894,198.138c18.801,66.985,60.688,97.166,97.276,138.097
			c9.548,10.699,18.217,22.113,26.17,34.054c4.633-6.093,9.039-12.411,13.191-18.399
			C7621.603,6031.256,7628.646,6020.156,7635.851,6009.318z"/>
		<path id="_x31_80632266" fill="none" stroke="#010101" stroke-width="64" d="M6848,6026.666
			c-56.445-39.662-129.84-79.162-167.12-142.379l-4.322-5.707c-31.704,39.693-63.166,78.896-96.065,121.855
			c91.59,66.895,226.771,160.947,330.385,224.48c0,0,9.195,7.477,9.211,7.484c0.471,0.291,40.532-78.076,64.791-125.605
			l-7.612-2.036C6930.486,6086.215,6889.651,6055.952,6848,6026.666z"/>
		<path id="_x31_80632265" fill="none" stroke="#010101" stroke-width="64" d="M7013.131,5857.908
			c-29.965-29.954-79.392-69.387-112.412-95.461c-25.055-19.774-79.003-68.828-110.604-27.749
			c-16.955,22.044-34.55,43.581-51.616,65.541c-21.047,27.067-41.544,52.808-61.941,78.341l4.323,5.707
			c37.28,63.213,110.675,102.717,167.116,142.379c41.655,29.286,82.49,59.549,129.266,78.093l7.613,2.036
			c8.978-17.584,15.788-30.949,17.628-34.541c26.88-52.43,30.081-85.628,37.024-133.113
			C7045.372,5899.109,7038.217,5882.994,7013.131,5857.908z"/>
		<path id="_x31_80632268" fill="none" stroke="#010101" stroke-width="64" d="M7004.846,6123.414l-4.857-0.732
			c-20.227,40.394-39.471,81.742-57.871,122.102c58.927,38.145,140.715,92.951,260.263,121.168
			c8.178-20.357,35.991-99.163,54.235-150.742l-16.971,0.439C7146.28,6224.934,7088.756,6146.926,7004.846,6123.414z"/>
		<path id="_x31_80632267" fill="none" stroke="#010101" stroke-width="64" d="M7281.162,5985.162
			c-51.414-28.181-144.293-56.561-199.102-55.961c-13.604,0.144-21.666,50.393-27.332,67.274
			c-5.768,17.178-11.689,44.82-20.383,60.601c-11.769,21.361-23.209,43.34-34.358,65.605l4.858,0.732
			c83.91,23.512,141.435,101.52,234.799,92.234l16.971-0.436c7.538-21.317,13.448-37.984,15.657-43.949
			C7299.488,6097.834,7309.145,6000.498,7281.162,5985.162z"/>
		<path id="_x31_80632271" fill="none" stroke="#010101" stroke-width="64" d="M7658.117,6240.068
			c-7.212-22.77-15.509-45.42-24.388-67.721c-7.279,12.082-26.308,23.943-36.076,30.219c-0.584,0.373-30.112,13.535-43.585,18.736
			c-16.943,6.541-34.718,10.809-52.496,14.003c-38.435,6.915-78.96,9.492-117.65,3.287c-22.985-3.687-44.138-7.022-66.575-14.06
			c-13.181-4.131-28.384-7.744-40.847-14.25c-18.767,52.58-36.617,106.975-55.416,160.127
			c61.585,13.882,126.433,19.637,210.3,15.654c92.199-4.377,175.018-27.702,250.256-65.742
			C7671.892,6296.112,7666.305,6265.912,7658.117,6240.068z"/>
		<path id="_x31_80632270" fill="none" stroke="#010101" stroke-width="64" d="M7383.922,6238.593
			c38.69,6.205,79.216,3.628,117.65-3.287c17.778-3.194,35.553-7.462,52.496-14.003c13.473-5.201,43.001-18.357,43.585-18.736
			c9.769-6.273,28.797-18.137,36.076-30.219c-4.572-11.486-9.292-22.883-14.104-34.156c-6.997-16.391-21.704-43.037-40.169-70.678
			c-17.701-1.342-58.398,0.006-92.79,11.945c-14.923,5.181-61.564,25.391-69.421,29.588c-11.007,5.875-63.186,26.604-78.631,31.498
			c-10.267,3.254-32.219,7.955-43.62,12.537c-2.706,11.403-5.955,22.697-9.969,33.639c-2.868,7.803-5.705,15.662-8.522,23.562
			c12.464,6.506,27.663,10.123,40.844,14.256C7339.784,6231.57,7360.937,6234.906,7383.922,6238.593z"/>
		<path id="_x31_80632269" fill="none" stroke="#010101" stroke-width="64" d="M7417.245,6109.047
			c7.856-4.197,54.498-24.407,69.421-29.588c34.392-11.939,75.089-13.287,92.79-11.945
			c-32.514-48.673-76.682-100.418-110.942-104.607c-19.026-2.33-103.105,9.029-125.278,17.787
			c-36.349,14.35-30.105,95.943-48.241,172.383c11.401-4.576,33.354-9.277,43.62-12.531
			C7354.06,6135.644,7406.238,6114.922,7417.245,6109.047z"/>
		<path id="_x31_80632260" fill="none" stroke="#010101" stroke-width="64" d="M5055.056,1939.626
			c83.646-37.237,174.1-59.698,264.243-81.38c-3.987-22.101-7.646-41.995-10.816-58.67
			c-82.828,35.667-223.041,80.586-436.014,144.05l0.881,87.2c13.156,3.046,26.558,5.458,39.982,7.795
			C4915.133,1985.258,5011.556,1958.991,5055.056,1939.626z"/>
		<path id="_x31_80632259" fill="none" stroke="#010101" stroke-width="64" d="M5055.056,1939.626
			c-43.5,19.365-139.923,45.632-141.724,98.995c25.096,4.371,50.271,8.477,74.084,15.943c2.476,0.778,4.887,1.635,7.27,2.537
			l0.045,0.008c1.684-41.583,60.47-61.822,86.686-70.037c82.113-25.755,165.195-47.951,248.491-69.168
			c-3.696-21.035-7.266-41.12-10.608-59.658C5229.155,1879.93,5138.702,1902.389,5055.056,1939.626z"/>
		<path id="_x31_80632258" fill="none" stroke="#010101" stroke-width="64" d="M5323.178,1919.622
			c-81.039,20.7-161.861,42.39-241.762,67.451c-26.216,8.215-85.002,28.454-86.686,70.037l-0.045-0.008
			c22.335,8.446,40.785,22.257,58.321,39.245c2.991,2.892,5.905,5.838,8.767,8.823c42.89-8.091,89.455,15.104,111.659,24.625
			c63.728,27.357,128.263,44.905,193.071,68.172c3.93,1.41,7.789,2.815,11.6,4.212l-48.805-282.749
			C5327.172,1919.49,5325.121,1919.554,5323.178,1919.622z"/>
		<path id="_x31_80632262" fill="none" stroke="#010101" stroke-width="64" d="M6063.061,1923.776
			c-30.545-80.889-137.338-108.159-211.998-114.099c-71.525-5.682-146.812,9.393-216.814,23.723
			c-89.031,18.218-175.119,51.921-263.436,74.153c-15.883,3.994-31.762,8.015-47.635,12.068c33.116-1.165,95.317-0.836,98.353-1.565
			c83.999-20.195,132.778-40.154,217.449-56.72c66.571-13.037,138.22-26.325,206.232-21.208
			c70.974,5.346,158.274,19.435,187.294,92.753c25.002,63.196,11.43,119.103-34.291,163.992
			c-44.377,43.56-84.325,43.012-148.111,46.536c-22.415,1.238-46.836,20.769-67.825,29.024
			c-35.787,14.107-76.332,22.338-110.524,39.274c-33.324,16.505-77.811,27.59-114.802,29.687
			c-73.083,4.154-121.919-18.812-190.443-43.426c-64.813-23.267-129.347-40.814-193.073-68.172
			c-22.205-9.521-68.77-32.719-111.66-24.625c2.17,2.262,4.309,4.544,6.408,6.858c25.631,1.316,63.211,19.907,79.945,27.447
			c67.036,30.22,128.115,73.887,196.282,99.587c72.093,27.185,149.687,42.591,226.541,38.066
			c38.906-2.296,77.417-10.406,112.468-28.598c35.935-18.66,67.383-46.128,105.014-61.678c22.058-9.093,47.504-13.236,71.072-14.588
			c67.083-3.855,109.328-20.611,155.966-68.648C6063.523,2054.145,6089.393,1993.506,6063.061,1923.776z"/>
		<path id="_x31_80632264" fill="none" stroke="#010101" stroke-width="64" d="M6258.002,1769.276
			c-76.322-80.05-120.477-109.912-205.982-134.256c-52.983-15.091-80.84-21.274-108.664-26.611
			c-64.486-12.406-124.104-18.479-202.277-7.917c-145.703,19.688-263.529,124.108-424.318,195.466
			c-2.693,1.195-5.454,2.401-8.275,3.616c3.168,16.676,6.829,36.57,10.814,58.67c52.18-12.551,104.252-24.843,154.84-39.589
			c103.124-30.05,209.292-70.9,316.18-81.69c30.616-3.094,62.521-0.63,93.227,0.238c72.191,2.047,142.229,10.78,203.106,54.545
			c57.319,41.199,102.064,109.407,119.917,179.609c19.879,78.068-13.058,139.282-64.017,186.457
			c-39.208,36.318-89.091,64.307-133.763,85.24c-63.265,29.665-128.904,58.193-197.267,72.223c-2.71,0.555-5.423,1.114-8.14,1.675
			c-1.656,0.338-3.314,0.681-4.972,1.022c-1.537,0.317-3.071,0.632-4.611,0.949c-2.198,0.453-4.399,0.907-6.603,1.358
			c-0.639,0.133-1.277,0.263-1.92,0.394c-5.553,1.142-11.119,2.282-16.702,3.417c-0.249,0.052-0.499,0.103-0.75,0.153
			c-2.495,0.506-4.995,1.013-7.497,1.518c-0.471,0.096-0.943,0.191-1.412,0.286c-2.44,0.492-4.884,0.98-7.327,1.468
			c-0.342,0.068-0.681,0.136-1.021,0.203c-8.525,1.7-17.085,3.375-25.668,5.005c-0.257,0.051-0.512,0.099-0.77,0.146
			c-2.684,0.511-5.369,1.016-8.057,1.517c-0.174,0.032-0.348,0.064-0.522,0.098c-8.736,1.624-17.497,3.198-26.276,4.707
			c-0.062,0.01-0.127,0.021-0.188,0.031c-2.879,0.494-5.758,0.979-8.643,1.458c-0.068,0.011-0.139,0.022-0.207,0.034
			c-11.809,1.959-23.652,3.781-35.513,5.424c-0.009,0.001-0.017,0.001-0.022,0.003c-23.785,3.294-47.645,5.864-71.472,7.353
			c-0.002,0-0.005,0-0.005,0c-11.889,0.742-23.77,1.213-35.627,1.371c-0.066,0-0.123,0.001-0.188,0.002
			c-2.931,0.038-5.862,0.058-8.792,0.057c-0.005,0-0.01,0-0.012,0c-7.643,14.734-25.638,29.266-36.348,37.908
			c-5.162,4.167-15.988,8.744-27.037,13.248c4.077-0.417,8.161-0.903,12.255-1.476c163.373-22.798,186.669-37.333,313.356,14.123
			c6.197-3.036,12.434-6.043,18.727-8.859c3.913-1.751,7.844-3.436,11.8-5.004c14.981-5.924,28.932-11.241,44.282-15.933
			c34.654-10.562,210.35-70.421,315.668-134.753c81.01-57.756,156.627-110.57,175.858-192.77
			C6374.447,1961.385,6309.014,1822.782,6258.002,1769.276z"/>
		<path id="_x31_80632263" fill="none" stroke="#010101" stroke-width="64" d="M5386.105,2253.236
			c-14.065-4.263-27.983-9.005-41.697-14.176c-68.164-25.699-129.245-69.367-196.283-99.588
			c-16.732-7.538-54.313-26.129-79.943-27.448c9.78,10.761,18.85,22.039,27.43,33.686c2.607,3.292,5.131,6.511,7.455,9.524
			c16.343,16.6,33.601,27.421,40.516,33.756c17.053,15.651,34.862,30.409,52.996,44.676c48.912,38.493,102.72,70.178,160.406,92.153
			c55.594,21.175,113.325,29.087,171.637,29.11c2.928,0.001,5.861-0.019,8.793-0.057c0.062-0.001,0.125-0.001,0.186-0.001
			c11.857-0.158,23.738-0.63,35.627-1.372c0,0,0.003,0,0.008-0.001c23.827-1.486,47.684-4.058,71.469-7.352
			c0.006-0.002,0.014-0.002,0.022-0.003c11.86-1.643,23.704-3.466,35.513-5.424c0.071-0.012,0.139-0.023,0.207-0.035
			c2.885-0.478,5.764-0.964,8.643-1.458c0.061-0.011,0.125-0.021,0.188-0.033c8.778-1.507,17.539-3.082,26.275-4.708
			c0.177-0.032,0.349-0.063,0.524-0.096c2.688-0.502,5.371-1.006,8.055-1.516c0.258-0.049,0.513-0.096,0.77-0.146
			c8.586-1.634,17.141-3.307,25.668-5.005c0.34-0.068,0.679-0.137,1.021-0.203c2.443-0.488,4.887-0.978,7.327-1.47
			c0.469-0.095,0.942-0.19,1.412-0.286c2.502-0.503,5.002-1.009,7.497-1.518c0.25-0.049,0.501-0.1,0.75-0.15
			c5.587-1.137,11.154-2.276,16.704-3.418c0.641-0.131,1.279-0.263,1.918-0.394c2.207-0.453,4.404-0.907,6.605-1.359
			c1.537-0.317,3.076-0.633,4.608-0.948c1.657-0.342,3.317-0.685,4.974-1.025c2.717-0.558,5.428-1.119,8.138-1.673
			c68.362-14.03,134.002-42.557,197.267-72.221c44.672-20.934,94.555-48.922,133.763-85.24
			c50.961-47.176,83.896-108.39,64.017-186.458c-17.853-70.201-62.598-138.41-119.917-179.609
			c-60.878-43.764-130.915-52.499-203.106-54.547c-30.706-0.865-62.61-3.332-93.223-0.236
			c-106.892,10.789-213.059,51.639-316.182,81.69c-50.59,14.746-102.662,27.038-154.842,39.588
			c3.343,18.538,6.912,38.623,10.611,59.66c13.629-3.474,27.266-6.923,40.904-10.353c88.314-22.23,174.407-55.935,263.438-74.151
			c70.004-14.328,145.287-29.407,216.811-23.722c74.66,5.938,181.455,33.208,211.998,114.098
			c26.335,69.729,0.463,130.366-47.589,179.837c-46.639,48.037-88.885,64.792-155.966,68.648
			c-23.573,1.353-49.018,5.495-71.076,14.588c-37.63,15.55-69.075,43.018-105.015,61.678
			c-35.051,18.189-73.562,26.302-112.466,28.598C5508.712,2280.792,5445.996,2271.383,5386.105,2253.236"/>
		<path id="_x31_80632261" fill="none" stroke="#010101" stroke-width="64" d="M6032.504,1932.882
			c-29.018-73.319-116.318-87.406-187.293-92.754c-68.013-5.116-139.664,8.172-206.233,21.209
			c-84.669,16.565-133.448,36.526-217.45,56.719c-2.854,0.686-58.125,0.436-92.229,1.374l48.804,282.749
			c62.603,22.945,109.954,43.13,178.847,39.215c36.992-2.097,81.477-13.183,114.8-29.688c34.197-16.936,74.74-25.165,110.524-39.273
			c20.992-8.256,45.412-27.788,67.83-29.025c63.786-3.524,103.734-2.976,148.107-46.536
			C6043.934,2051.985,6057.508,1996.077,6032.504,1932.882z"/>
		<path id="_x31_80632257" fill="none" stroke="#010101" stroke-width="64" d="M5533.223,2457.578
			c-55.365,23.506-114.897,40.83-174.372,24.934c-57.392-15.342-109.451-49.844-151.251-92.907
			c-39.398-40.588-75.734-84.452-107.003-132.115c-31.146-47.468-59.134-100.074-102.815-137.17
			c-25.002-21.234-50.533-42.061-75.593-63.411c-4.458-3.791-22.345-10.423-12.11-15.457c5.106-2.51-0.289-2.191-36.727-10.626
			l1.393,137.741c6.568,16.988,19.693,35.808,47.578,82.897c9.829,16.599,22.195,29.113,31.348,43.734
			c16.814,26.862,39.258,62.371,58.428,86.102c29.603,36.64,38.828,46.469,68.705,80.263c24.491,27.714,37.494,33.274,68.884,66.107
			c15.589,16.319,61.536,54.711,111.682,82.839c21.054,11.811,41.087,23.267,61.216,30.919
			c27.436,10.458,53.562,15.105,68.674,15.696c61.744,2.379,155.471-54.67,192.848-80.467
			c24.188-16.684,114.777-90.991,142.548-115.301c0.39-0.343,0.794-0.693,1.209-1.052c4.82-4.198,9.655-8.264,14.603-12.17
			C5687.581,2393.79,5584.697,2435.746,5533.223,2457.578z"/>
		<path id="_x31_80632255" fill="none" stroke="#010101" stroke-width="64" d="M5528.607,2354.929
			c-58.31-0.023-116.036-7.936-171.623-29.11c-57.687-21.976-111.494-53.661-160.406-92.153
			c-18.134-14.267-35.943-29.025-52.996-44.676c-6.915-6.334-24.173-17.153-40.516-33.756c-2.328-3.014-4.848-6.231-7.455-9.524
			c21.086,28.62,39.232,59.48,57.762,90.459c39.062,65.287,92.225,119.448,161.977,148.122
			c48.934,20.121,98.798,27.021,149.873,21.793c11.049-4.504,21.875-9.08,27.037-13.248
			C5502.97,2384.195,5520.968,2369.663,5528.607,2354.929z"/>
		<path id="_x31_80632256" fill="none" stroke="#010101" stroke-width="64" d="M5477.476,2404.61
			c-55.36,7.732-109.285,1.408-162.126-20.32c-69.752-28.672-122.915-82.833-161.977-148.12
			c-29.831-49.867-58.654-99.438-100.368-139.823c-14.349-13.895-29.302-25.67-46.492-34.123c-0.244-0.122-0.486-0.25-0.733-0.371
			c-0.486-0.236-0.982-0.45-1.471-0.68c-5.396-2.536-11.001-4.759-16.893-6.604c-1.271-0.4-2.556-0.767-3.836-1.148
			c-17.016-4.87-34.613-6.981-51.865-10.767c-5.473-1.197-16.53-3.712-21.637-1.201c-10.234,5.036,7.652,11.667,12.11,15.458
			c25.058,21.349,50.591,42.176,75.593,63.41c43.686,37.096,71.67,89.701,102.815,137.169
			c31.269,47.664,67.604,91.527,107.003,132.116c41.8,43.063,93.859,77.564,151.251,92.909
			c59.475,15.895,119.007-1.43,174.372-24.934c51.475-21.834,154.358-63.79,209.244-9.444c11.388-8.99,23.371-17.109,37.176-23.897
			c3.717-1.825,7.45-3.67,11.191-5.503C5664.144,2367.276,5640.851,2381.811,5477.476,2404.61z"/>
		<path id="_x31_80632254" fill="none" stroke="#010101" stroke-width="64" d="M7970.905,4206.295
			c14.362-40.846,31.115-80.602,46.176-121.812c22.229-60.787,32.9-117.9,47.922-198.945
			c22.508-121.461,39.421-235.691,33.248-325.17c-2.662-38.766-9.393-86.475-21.081-122.858
			c139.507,79.126,136.789,281.073,126.439,421.463c-5.395,72.962-9.98,145.647-18.174,218.347
			c-4.932,43.662-8.971,90.664-33.396,128.18c-28.141,43.232-81.028,59.461-126.272,75.436c-11.78,4.156-65.16,30.365-76.493,23.578
			c-10.583-6.334-1.278-21.202,1.033-30.508C7956.045,4250.834,7963.126,4228.406,7970.905,4206.295z"/>
		<path id="_x31_80632253" fill="none" stroke="#010101" stroke-width="64" d="M7907.945,4974.193
			c15.145-76.152,11.575-136.053,12.405-218.797c0.589-60.668-8.584-126.29-9.513-217.278c-0.323-32.14-1.477-56.372,6.394-87.448
			c11.096-43.902-2.883-81.565,35.431-112.06c12.909-10.279,38.953-3.632,68.252,3.046
			c69.488,15.848,167.788,57.475,165.556,111.939c-2.834,68.86-24.357,140.281-47.258,205.266
			c-24.527,69.568-37.02,133.105-69.165,207.399c-29.924,69.2-52.7,133.856-109.376,183.276
			c-28.659,24.991-44.994,39.959-83.681,36.51C7891.228,5051.492,7900.626,5010.941,7907.945,4974.193z"/>
		<path id="_x31_80632252" fill="none" stroke="#010101" stroke-width="64" d="M7798.923,5220.154
			c11.686-16.711,23.06-33.549,34.528-50.008c12.595-18.049,32.318-54.363,58.846-49.896c31.042,5.222,28.475,50.295,25.433,74.045
			c-14.572,113.5-84.479,207.421-160.535,285.209c-11.697,11.951-22.305,25.192-33.364,37.779
			c-25.892,29.492-53.139,61.393-87.056,81.152c-32.404,18.889-105.289,22.959-89.462-32.617
			c10.826-38.023,24.135-79.396,48.763-109.924c28.253-35.021,61.92-65.058,90.908-99.428
			C7724.857,5311.547,7765.093,5268.555,7798.923,5220.154z"/>
		<path id="_x31_80632251" fill="none" stroke="#010101" stroke-width="64" d="M7831.061,4358.254
			c21.615-30.572,33.069-42.076,38.244-11.796c17.146,100.186,19.188,109.333,21.017,210.841
			c0.292,16.445-0.109,32.919-1.107,49.312c-0.352,5.842,2.342,38.021-9.004,35.371c-6.78-1.578-10.394-7.975-14.44-13.324
			c-16.01-21.135-37.958-45.106-57.687-62.329c-16.007-13.976-30.902-25.81-47.729-42.124c-8.793-8.522-34.525-29.796-35.668-32.674
			c-5.557-13.768,13.151-26.174,20.455-34.285c12.246-13.596,24.597-27.082,36.786-40.728
			C7798.739,4397.705,7816.416,4378.976,7831.061,4358.254z"/>
		<path id="_x31_80632250" fill="none" stroke="#010101" stroke-width="64" d="M7562.437,5326.359
			c-37.029-5.74-71.05-23.277-102.586-45.84c-53.481-38.269-87.089-96.172-74.231-166.67c9.556-52.45,25.982-79.912,49.646-148.418
			c23.671-68.51,66.909-196.389,114.153-274.244c33.909-55.879,79.218-105.311,123.352-152.456
			c9.726-10.384,15.419-22.649,28.884-29.042c20.463-9.686,42.94,16.34,56.843,27.961c22.905,19.146,41.983,37.306,63.4,58.316
			c23.592,23.146,48.625,50.244,56.584,84.48c7.721,33.141-3.92,67.139-5.385,100.743c-7.406,170.517-7.941,202.451-56.303,333.64
			c-18.534,50.27-55.259,94.861-92.822,131.146c-37.301,36.014-72.076,78.881-125.694,82.096
			C7586.013,5328.802,7574.088,5328.166,7562.437,5326.359z"/>
		<path id="_x31_80632248" fill="none" stroke="#010101" stroke-width="64" d="M6912.289,5584.512
			c-16.9,20.177-32.955,41.844-50.399,61.412c-8.519,9.584-17.729,19.003-20.894,32.062c-7.806,32.127,28.773,42.733,49.477,56.991
			c31.441,21.662,61.811,45.484,90.789,70.626c42.926,37.245,86.463,75.735,126.861,51.275
			c52.854-32.008,87.775-114.771,106.051-171.783c18.549-57.841,46.268-154.217,17.95-212.527
			c-21.844-44.977-57.29-28.243-96.817-14.063c-20.287,7.268-40.557,12.451-60.725,20.321
			C7014.103,5502.433,6958.211,5529.703,6912.289,5584.512z"/>
		<path id="_x31_80632249" fill="none" stroke="#010101" stroke-width="64" d="M7440.747,5867.15
			c20.882-43.764,30.744-98.477,45.102-146.209c16.169-53.758,33.063-107.006,49.883-160.466
			c5.125-16.284,18.646-45.445,13.632-62.927c-6.548-22.797-38.217-14.942-53.451-27.775
			c-20.197-16.997-32.285-50.463-35.997-76.111c-1.356-9.455,3.547-19.99-1.505-29.308c-10.022-18.491-15.855-14.46-31.638-8.519
			c-33.511,12.641-63.597,31.223-98.166,41.412c-21.088,6.209-41.421,10.636-61.845,19.231
			c-20.397,8.589-21.929,19.257-16.654,41.287c16.719,69.892,15.641,134.577-7.793,203.354
			c-17.169,50.369-33.455,102.703-62.237,147.262c-42.539,65.865-96.538,66.766-60.545,92.607
			c50.306,36.097,134.006,43.953,190.426,40.895c29.216-1.583,62.964-6.486,82.66-16.065
			C7419.937,5912.519,7429.37,5891.013,7440.747,5867.15z"/>
		<path id="_x31_80632236" fill="none" stroke="#010101" stroke-width="64" d="M8058.725,3625.241
			c0.152-88.438-15.003-157.81-34.133-242.292c-21.546-95.178-30.403-116.657-47.985-168.826
			c-24.229-71.88-56.997-140.61-103.421-230.161c-103.011-198.74-245.384-359.329-409.755-530.161
			c-61.412-63.847-222.472-184.165-369.516-287.929c-109.323-77.126-150.89-103.559-199.003-135.915c0,0-2.765-2.813-27.675,62.866
			c-26.86,70.803-40.048,181.355-43.509,213.749c-7.517,70.229,3.773,103.284,19.93,164.724c0,0,15.449,82.295,26.348,113.418
			c9.721,27.737,34.803,76.253,26.117,106.87c-9.367,33.097-20.236,24.649-38.105,25.063l-8.214,1.041
			c64.056,10.675,82.53,31.328,99.55,88.013c35.477,75.445,7.518,134.581,7.518,134.581c0.191-0.255,0.398-0.492,0.6-0.743
			c7.924,26.184,183.979,306.639,255.844,388.434c-9.8,13.241,60.742,81.977,120.445,167.412
			c51.277,73.396,104.833,233.934,109.192,423.471c2.328,101.361-10.006,164.156-32.062,202.584
			c-29.916,52.135-126.542,249.229-127.784,251.634c-19.695,38.755-23.271,46.38,24.46,68.608
			c19.373,9.033,72.845,30.458,127.795,51.053c80.363,30.139,169.524,56.744,206.11,25.57
			c45.216-38.526,86.949-105.01,151.004-182.385c56.706-68.484,119.064-145.232,133.479-170.18
			c45.474-78.862,75.467-124.052,92.266-210.186C8036.884,3859.75,8058.502,3739.006,8058.725,3625.241"/>
		<path id="_x31_80632240" fill="none" stroke="#010101" stroke-width="64" d="M6396.514,5857.55
			c53.977,44.046,112.332,87.369,164.988,128.94c51.545-70.564,104.227-135.889,157.979-205.031
			c56.525-72.719,114.76-145.26,173.81-215.735c52.868-63.081,128.262-96.199,203.886-119.819
			c67.967-21.216,135.818-42.942,203.455-65.283c0,0,95.201-29.767,150.725-41.957c21.506-4.721,16.028,119.203,74.341,129.514
			c44.235,7.822,71.521-31.164,75.415-43.182c1.064-3.283,21.59-35.021,0-65.613c-14.621-20.719-123.168-54.449-155.241-77.363
			s-97.123-125.422-93.723-162.082c1.074-11.619,15.7-76.663,32.238-127.414c16.534-50.723,74.836-186.602,130.464-287.688
			c39.692-72.147,56.083-98.555,90.355-142.531c0,0-117.609-36.857-178.401-56.203c-80.642-25.668-168.81-88.025-233.424-78.344
			c-18.237,2.734-116.128,78.998-214.053,151.484c-57.782,42.768-111.056,87.627-144.603,153.226
			c-28.065,54.841-39.301,88.903-64.428,133.411c-13.363,23.695-45.008,68.709-79.263,112.093
			c-31.792,40.289-61.351,75.567-84.142,109.616c-8.097,12.098-23.34,25.514-36.576,71.162
			c-15.972,55.049-48.034,128.484-75.695,193.207c-8.74,20.435-28.673,67.778-52.752,113.572
			c-14.555,27.706-32.16,65.518-47.49,90.415c-15.281,24.815-25.216,35.35-44.889,78.222
			c-15.722,34.28-13.109,108.956-12.017,118.174C6339.892,5773.078,6344.902,5815.426,6396.514,5857.55z"/>
		<path id="_x31_80632244" fill="none" stroke="#010101" stroke-width="64" d="M7426.804,4506.102
			c-58.918-18.754-121.853-57.084-176.687-72.603c67.305,27.188,108.429,110.55,120.194,180.231
			c11.126,65.903,1.956,136.733-26.753,193.186c-13.697,26.922-35.93,42.609-61.88,45.24l-3.41,4.398
			c-20.362,65.924-119.205,185.592-170.166,231.752c-66.433,60.16-138.044-0.016-192.653-46.379
			c-55.648-47.248-51.922-202.85-103.17-254.861l-2.619-2.289c-12.811,28.229-23.22,52.506-39.348,81.079
			c-47.588,84.267-18.955,116.288,14.485,204.279c21.933,57.728,49.657,92.385,83.337,127.185
			c20.119,20.774,42.355,41.604,66.74,67.425c25.286,26.756,41.097,40.874,65.037,9.396
			c85.24-112.064,240.889-110.723,355.743-51.268c28.771,14.893,14.128-27.618,8.967-40.975
			c-9.562-24.789-15.261-49.584-10.12-73.406c8.246-38.281,13.346-65.218,29.884-115.969
			c16.534-50.723,74.836-186.602,130.464-287.688c39.692-72.147,56.083-98.555,90.355-142.531
			C7605.205,4562.305,7487.596,4525.447,7426.804,4506.102z"/>
		<path id="_x31_80632243" fill="none" stroke="#010101" stroke-width="64" d="M7370.311,4613.73
			c-12.736-75.443-59.888-166.926-137.422-185.793c-51.221-12.446-51.667,24.546-65.412,72.15
			c-32.949,114.115-41.021,279.766,48.427,331.873c62.029,36.145,101.042,27.242,127.652-25.045
			C7372.268,4750.464,7381.438,4679.634,7370.311,4613.73z"/>
		<path id="_x31_80632245" fill="none" stroke="#010101" stroke-width="64" d="M6915.449,5041.934
			c54.609,46.362,126.221,106.535,192.653,46.375c50.961-46.162,149.804-165.83,170.166-231.754l3.41-4.395
			c-24.457,2.48-52.223-6.639-79.271-28.904c-43.801-36.068-56.604-98.945-57.654-161.14
			c-0.953-56.841,7.188-112.266,24.535-163.312c12.166-35.809,12.971-65.53,35.518-72.014c-3.883,0.098-7.695,0.408-11.427,0.967
			c-18.237,2.734-116.125,78.998-214.051,151.484c-57.784,42.768-111.055,87.627-144.604,153.226
			c-10.043,19.624-17.926,36.577-25.062,52.31l2.62,2.289C6863.527,4839.078,6859.801,4994.685,6915.449,5041.934z"/>
		<path id="_x31_80632246" fill="none" stroke="#010101" stroke-width="64" d="M7300.631,5380.621
			c30.167-9.957,73.411-14.069,96.633-38.324c27.261-28.465,10.524-75.488-19.781-94.771
			c-82.688-52.635-214.625-68.153-302.453-19.767c-46.164,25.437-77.388,70.989-79.568,126.123
			c-2.762,69.774,34.19,113.104,101.715,92.022C7165.143,5424.687,7232.994,5402.967,7300.631,5380.621z"/>
		<path id="_x31_80632247" fill="none" stroke="#010101" stroke-width="64" d="M7608.984,5397.82
			c0.193-6.834-0.927-13.632-3.64-20.08c-19.141-45.502-83.493-51.365-115.058-17.059c-31.305,34.013-5.524,96.826,35.409,107.496
			C7563.163,5477.957,7607.794,5436.982,7608.984,5397.82z"/>
		<path id="_x31_80632242" fill="none" stroke="#010101" stroke-width="64" d="M6893.29,5565.724
			c14.872-17.751,32.509-34.075,51.066-47.544c33.851-24.577,54.452-22.076,49.38-67.676c-4.397-39.416-3.792-79.752-20.811-116.506
			c-14.388-31.039-54.9-62.961-79.642-85.881c-45.857-42.471-77.106-76.242-116.114-140.277
			c-19.367-31.764-24.69-138.188-61.709-139.621c-38.375-1.467-136.916,164.861-149.445,203.34
			c-20.076,61.704-45.973,120.899-71.395,180.398c-23.313,54.562-52.879,153.075-99.664,190.218
			c301.845-10.692,394.246,93.202,418.856,118.214C6815.07,5661.672,6888.29,5571.686,6893.29,5565.724z"/>
		<path id="_x31_80632241" fill="none" stroke="#010101" stroke-width="64" d="M6719.48,5781.459
			c21.158-27.217,37.25-57.602,61.029-82.584c28.443-29.877,34.975-30.771,28.389-42.224c-9.215-16.04-44.312-38.06-82.205-59.769
			c-76.422-43.798-157.855-54.361-245.415-59.258c-37.78-2.114-86.474,0.938-87.6,9.807c-3.76,29.709-25.384,45.695-44.195,86.742
			c-15.718,34.287-13.104,108.948-12.013,118.17c2.421,20.734,7.432,63.082,59.041,105.206
			c53.977,44.046,112.334,87.377,164.99,128.94C6613.047,5915.926,6665.729,5850.602,6719.48,5781.459z"/>
		<path id="_x31_80632239" fill="none" stroke="#010101" stroke-width="64" d="M7425.719,3917.15
			c-4.347-189.539-58.861-338.699-110.137-412.088c-59.681-85.431-123.929-150.311-123.929-150.311
			c-24.099,31.881-44.931,65.15-71.142,116.412c-39.557,77.4-53.402,138.976-76.211,232.117
			c-12.999,53.12-23.764,91.526-33.582,121.907c11.45,4.623,25.4,10.814,33.996,19.131c41.926,40.551,47.18,116.574,45.451,171.86
			c-2.539,80.888-18.305,160.571-20.291,241.432c-1.195,48.876-3.458,102.555-16.62,149.563l-1.403,4.564
			c13.967-2.291,27.869-4.214,41.425-5.639c71.88-7.548,132.121,13.521,141.344,4.791c45.843-43.47,133.313-248.021,149.441-277.162
			C7407.992,4090.502,7428.051,4018.506,7425.719,3917.15z"/>
		<path id="_x31_80632238" fill="none" stroke="#010101" stroke-width="64" d="M7069.879,4257.61
			c1.984-80.86,17.749-160.544,20.287-241.432c1.729-55.286-3.523-131.31-45.447-171.86c-8.597-8.316-22.55-14.508-34-19.131
			c-20.346,62.918-36.666,91.381-60.55,144.537c-23.413,52.108-106.024,173.674-256.536,285.27
			c-117.913,87.428-178.475,124.408-248.359,192.291c-86.842,84.365-212.912,174.498-194.766,252.371
			c17.186,73.744,66.184,96.014,161.049,26.684c199.986-146.139,345.438-225.324,459.52-267.893
			c37.952-14.161,110.186-35.145,180.779-46.709l1.404-4.564C7066.422,4360.165,7068.682,4306.486,7069.879,4257.61z"/>
		<path id="_x31_80632237" fill="none" stroke="#010101" stroke-width="64" d="M6501.994,5056.498
			c22.586-8.802,45.38-9.428,61.898-5.102c23.201,6.061,16.379,36.969,23.463,31.336c9.672-7.682,19.32-16.469,31.502-31.298
			c53.842-65.513,117.955-151.188,146.637-194.972c25.262-38.605,27.289-69.816,55.357-124.657
			c33.555-65.595,98.545-126.438,156.479-168.982c83.872-61.581,129.159-87.725,181.877-142.272
			c-37.958-6.355-89.498-4.491-166.742,13.195c-75.338,17.252-76.601,19.818-117.813,32.885c-22.623,7.164,34.003-5.98,0.045,45.472
			c-28.25,42.804-40.258,53.8-79.037,91.893c-49.455,48.571-67.695,65.813-108.586,102.282
			c-52.082,46.461-104.197,91.485-155.771,133.144c-31.062,25.085-56.779,46.118-96.734,69.304
			c-28.531,16.539-46.015,26.881-87.183,35.711c-21.932,4.694,8.049,2.163,9.849,25.801c1.453,19.205-18.077,61.348-20.896,85.537
			c-2.59,22.168,13.281,36.573,19.911,41.49C6393.051,5124.661,6429.26,5084.838,6501.994,5056.498z"/>
		<path id="_x31_80632214" fill="none" stroke="#010101" stroke-width="64" d="M4902.62,4922.881
			c81.575-63.448,103.626-98.07,155.802-130.613c83.508-52.091,160.004-75.678,256.521-107.061
			c170.356-55.402,351.886-114.534,513.412-178.115c178.327-70.191,284.788-113.092,360.238-148.008
			c109.117-50.479,155.838-70.731,214.684-89.553c33.748-10.774,85.527-27.467,133.521-69.701
			c131.022-115.309,153.922-145.688,189.153-207.475c35.232-61.771,60.783-129.605,89.186-211.436
			c18.674-53.808,47.035-127.506,68.236-194.692c62.855-199.156,76.98-346.062,57.262-407.901
			c-19.549-61.271-79.713-84.444-130.252-114.229c-63.079-37.15-116.525-48.967-176.789-137.416
			c-20.639-30.277-64.289-124.418-102.1-160.029c-21.377-20.129-44.938-40.687-55.355-53.426
			c-21.801-26.66-43.272-54.676-62.021-83.661c-14.152-21.89-27.068-43.709-45.357-62.292
			c-39.143-39.783-108.948-83.553-148.77-101.751c-55.365-25.31-77.059-28.824-95.572-34.514
			c-53.457-16.434-100.904-26.549-157.241-32.941c-30.483-3.463-53.673-7.657-87.799-10.08c-6.604-0.469-14.933,2.625-20.979,5.024
			c-8.051,3.182-17.185,4.543-25.542,7.209c-14.97,4.762-28.922,12.716-43.163,19.253c-36.664,16.846-33.281,19.776-63.04,41.881
			c-29.542,21.944-118.36,98.617-142.548,115.3c-37.377,25.795-131.104,82.847-192.848,80.468
			c-15.112-0.591-41.236-5.238-68.672-15.696c-20.131-7.653-40.163-19.109-61.218-30.919
			c-50.145-28.128-96.093-66.52-111.682-82.841c-31.387-32.831-46.73-41.02-71.214-68.72c-4.42-4.997-11.314-17.649-30.002-33.807
			c16.775,32.683,11.043,37.792-11.269,59.529c-15.077,15.328-26.429,27.259-40.683,42.151
			c-14.765,15.415-18.622,18.593-39.113,39.673c-13.504,13.876-24.93,33.703-29.422,48.279
			c-11.41,37.022-5.916,77.794,14.635,123.074c6.166,13.555,19.199,39.125,27.059,56.251c8.369,18.213,14.013,29.868-7.957,25.059
			c-9.534-2.099-25.062,7.139-37.611,14.938c-16.157,10.041-29.135,12.953-42.678-4.59L4902.62,4922.881z"/>
		<path id="_x31_80632226" fill="none" stroke="#010101" stroke-width="64" d="M6003.053,4301.709
			c48.01-74.922,93.833-151.463,135.753-230.24c19.331-36.318-7.236-43.865-36.71-43.861c-17.992,0-35.982,0.339-53.893-1.918
			c-52.394-6.594-70.328-67.64-57.795-115.01c21.105-79.859,38.256-146.661,49.674-231.68
			c12.51-93.148,0.075-185.633-13.217-278.161c-2.492-17.329-7.943-56.698-17.214-70.702
			c-13.188-19.914-46.507-11.664-66.743-10.985c-30.93,1.017-61.738-2.082-92.475-5.25c-40.584-4.188-61.331-14.271-75.034,35.256
			c-14.715,53.232-34.125,100.899-60.283,149.311c-28.706,53.124-66.642,101.028-110.962,140.916
			c-60.292,54.274-131.549,107.676-207.205,136.504c-21.576,8.219-60.06,8.402-71.881,32.4
			c-8.684,17.634-3.753,54.773,12.957,66.163c22.41,15.288,51.284,12.613,76.334,19.489c23.127,6.354,44.352,17.955,62.549,34.062
			c18.582,16.447,28.635,42.025,51.959,51.531c13.199,5.372,28.996-8.312,40.281-13.439c28.984-13.174,67.129-37.642,99.932-32.961
			c43.081,6.145,76.95,75.46,79.719,114.776c3.566,50.615-10.182,104.835-19.916,154.172c-9.857,49.987-7.83,102.606,8.381,150.947
			c15.899,47.431,70.067,129.204,128.163,120.253c27.888-4.303,47.04-37.144,62.824-58.485
			c26.122-35.331,49.399-73.487,73.187-110.554C6001.973,4303.397,6002.518,4302.561,6003.053,4301.709z"/>
		<path id="_x31_80632225" fill="none" stroke="#010101" stroke-width="64" d="M5752.304,4536.194
			c-59.56,22.196-119.489,43.249-179.589,63.789c-30.443,10.399-61.081,20.241-91.496,30.718
			c-21.551,7.426-43.193,11.811-63.329-2.246c-29.464-20.58-112.44-77.956-72.417-123.312
			c35.648-40.391,111.732,5.973,153.812-18.471c47.446-27.592,6.741-71.396-22.252-94.654
			c-12.149-9.727-28.177-20.088-31.422-37.141c-8.674-45.488,52.544-81.262,70.648-117.211
			c16.939-33.633,40.678-72.459,46.361-110.457c3.113-20.795-1.139-44.414-3.221-64.973c-1.801-17.797-10.776-35.814-9.355-53.962
			c1.566-19.812,33.107-31.657,48-37.368c20.05-7.692,42.895-22.242,65.17-19.059c43.078,6.14,57.654,59.2,60.422,98.512
			c3.567,50.617-10.175,104.833-19.916,154.18c-9.863,49.982-7.83,102.605,8.373,150.939
			c16.806,50.121,45.483,83.174,80.051,120.265C5823.017,4508.878,5777.012,4526.986,5752.304,4536.194z"/>
		<path id="_x31_80632218" fill="none" stroke="#010101" stroke-width="64" d="M6373.52,2973.929
			c14.656-6.281,30.252-2.356,57.731,16.04c80.205,53.688,155.709,142.867,209.816,223.538
			c71.413,106.49,75.822,243.397,53.535,366.93c-3.013,16.7-7.021,31.296-12.743,47.367
			c-34.277,96.325-88.35,193.908-148.924,275.069c-92.106,123.42-216.342,185.682-252.854,289.019
			c-5.193,14.685-8.308,35.78-8.035,51.518c0.322,18.153,13.909,38.306,9.691,55.966c-5.672,23.775-46.359,38.199-65.305,46.866
			c-51.39,23.538-120.295,53.3-184.764,79.897c-36.141,14.902-97.832,29.146-67.647-19.854
			c59.975-97.382,117.015-196.688,177.524-293.718c57.859-92.816,124.505-179.199,182.382-271.852
			c32.757-52.452,61.649-108.111,79.019-168.199c18.792-65.021,22.8-139.883,14.768-207.231
			c-10.677-89.474-80.008-172.031-129.368-241.905c-22.223-31.454-3.238-71.064,6.608-103.883
			C6312.518,3061.011,6308.549,3001.792,6373.52,2973.929z"/>
		<path id="_x31_80632219" fill="none" stroke="#010101" stroke-width="64" d="M6395.768,3467.062
			c-9.834-82.442-67.945-155.95-114.943-219.223c-44.502-59.895-155.664-71.749-202.408-6.217
			c-25.631,35.938-48.686,68.846-40.648,114.961c6.688,38.347,13.726,76.539,19.488,115.286c4.026,27.01,7.053,53.872,8.016,81.164
			c3.039,86.545-10.093,167.195-24.178,251.733c-11.59,69.482-71.82,186.393,35.488,199.892
			c38.799,4.878,65.842,13.596,100.451-6.917c44.703-26.495,70.285-78.268,98.738-120.624c32.191-47.915,64.79-94.85,85.898-149.49
			C6393.585,3644.983,6406.322,3555.61,6395.768,3467.062z"/>
		<path id="_x31_80632223" fill="none" stroke="#010101" stroke-width="64" d="M6268.498,3048.086
			c-11.338,0.628-26.468,8.293-40.256,13.019c-16.439,5.645-35.808,6.89-53.019,8.802c-47.153,5.268-93.181-4.337-136.548-23.88
			c-84.672-38.172-162.23-114.149-262.387-73.344c-33.603,13.682-40.584,32.982-33.603,65.709
			c8.036,37.704,4.145,84.804-15.524,119.008c-17.514,30.444-50.019,49.911-17.623,79.53
			c55.316,50.579,107.727,59.891,154.119,64.674c45.753,4.713,89.335,4.552,134.496-4.546c43.555-8.79,48.094-41.908,73.617-71.987
			c24.553-28.938,79.799-45.851,116.252-42.603c39.545,3.529,64.783,17.007,79.734-27.458c8.378-24.879,17.492-53.148,18.461-79.67
			C6286.996,3053.499,6279.532,3047.471,6268.498,3048.086z"/>
		<path id="_x31_80632224" fill="none" stroke="#010101" stroke-width="64" d="M5584.108,2576.657
			c-20.741,14.309-42.466,25.284-64.064,37.957c-14.867,8.723-21.016,14.346-17.354,32.008c6.25,30.191,25.936,53.712,40.926,79.276
			c28.189,48.092,58.697,94.597,87.737,142.127c19.613,32.115,38.435,58.396,63.967,85.549c22.79,24.22,41.503,17.259,69.179,7.239
			c74.968-27.133,157.221-2.521,222.175,39.91c79.502,51.921,146.468,69.76,241.587,40.97
			c39.656-11.997,149.699-67.184,136.662-124.069c-4.639-20.225-10.644-25.666-3.211-48.006
			c6.871-20.669,19.511-38.602,31.998-55.741c5.958-8.2,71.258-91.998,82.43-100.651c-21.801-26.655-43.272-54.675-62.02-83.66
			c-14.152-21.889-27.066-43.708-45.357-62.292c-39.144-39.783-108.95-83.551-148.771-101.75
			c-55.365-25.31-77.059-28.825-95.569-34.515c-53.458-16.433-100.907-26.548-157.241-32.941
			c-30.486-3.462-53.674-7.656-87.799-10.08c-6.607-0.47-14.936,2.625-20.982,5.025c-8.049,3.181-17.185,4.544-25.542,7.208
			c-14.968,4.764-28.922,12.717-43.163,19.255c-36.664,16.846-33.277,19.775-63.037,41.879
			C5697.111,2483.3,5608.293,2559.974,5584.108,2576.657z"/>
		<path id="_x31_80632233" fill="none" stroke="#010101" stroke-width="64" d="M4889.123,3589.639
			c155.584-32.022,118.979-362.757-3.775-373.822L4889.123,3589.639z"/>
		<path id="_x31_80632221" fill="none" stroke="#010101" stroke-width="64" d="M5199.039,2980.871
			c-39.596,59.197-24.842,99.312-37.691,154.969c-15.979,69.169-28.714,357.981,114.164,254.5c0.885-0.639,1.771-1.283,2.668-1.955
			c115.199-86.19,61.316-298.07,3.139-400.829l-0.17-1.711c0.01,0,0.012,0,0.016,0c-25.809,3.278-51.734,0.137-78.599-11.942
			c0,0,0.005,0,0.007,0.003L5199.039,2980.871z"/>
		<path id="_x31_80632222" fill="none" stroke="#010101" stroke-width="64" d="M5567.451,3151.423
			c-36.5-54.04-71.836-101.463-118.658-146.416c-16.684-16.018-38.357-51.677-63.9-53.999c-5.562-0.504-11.308,0.572-17.236,3.777
			c-29.445,15.933-57.906,27.433-86.508,31.06l0.17,1.711c58.178,102.758,112.061,314.638-3.139,400.824
			c-0.898,0.671-1.783,1.32-2.668,1.959l-4.644,8.723c-46.294,73.867-39.45,180.759-33.872,263.889l0.437,6.728
			c18.532-3.764,36.712-8.928,54.119-15.17c152.976-54.88,252.149-171.736,289.101-335.293
			C5593.512,3262.268,5601.895,3202.422,5567.451,3151.423z"/>
		<path id="_x31_80632220" fill="none" stroke="#010101" stroke-width="64" d="M5270.868,3399.063l4.644-8.723
			c-142.878,103.481-130.143-185.331-114.164-254.5c12.85-55.657-1.904-95.768,37.691-154.969l3.533-6.964
			c-7.256-3.263-14.582-7.172-21.996-11.789c-25.753-16.06-67.694-44.085-91.975-61.566c-8.871-6.373-44.795-36.768-55.666-30.17
			c-4.912,2.985,3.139,30.755,3.971,36.422c9.808,67.251-14.063,175.751-60.862,244.585c-22.249,32.728-48.407,40.833-19.3,82.144
			c20.539,29.173,37.723,51.351,46.155,87.402c14.21,60.726,17.854,123.004-2.587,182.82c-7.437,21.751-23.52,47.567-24.855,71.044
			c-3.047,53.399,94.342,83.705,130.053,93.375c42.259,11.438,88.078,10.414,131.926,1.506l-0.437-6.728
			C5231.418,3579.828,5224.574,3472.93,5270.868,3399.063z"/>
		<path id="_x31_80632228" fill="none" stroke="#010101" stroke-width="64" d="M5399.038,3907.367
			c83.991,22.852,145.604,108.885,146.451,199.252c0.402,43.264-24.978,97.281-49.724,130.602
			c-41.535,55.915-78.352,102.467-186.25,92.268c-83.641-7.912-159.967-105.369-167.79-193.687
			c-10.257-115.733,89.709-221.396,194.19-233.243C5357.877,3900.074,5379.081,3901.941,5399.038,3907.367z"/>
		<path id="_x31_80632229" fill="none" stroke="#010101" stroke-width="64" d="M5323.109,4525.526
			c0.711-6.927,0.523-14.134-0.713-21.563c-11.807-71.277-86.471-92.718-145.166-74.871
			c-72.203,21.945-83.394,110.799-31.168,163.287C5198.357,4644.926,5315.264,4601.548,5323.109,4525.526z"/>
		<path id="_x31_80632234" fill="none" stroke="#010101" stroke-width="64" d="M4881.432,2829.508
			c0.355-0.55,14.834,21.318,31.766,9.758c21.75-14.845,41.178-23.421,60.65-19.624c39.995,7.867,50.558,94.757,50.035,123.964
			c-1.193,66.932-26.109,142.417-63.238,197.021c-18.846,27.723-47.897,56.243-75.297,75.188L4881.432,2829.508z"/>
		<path id="_x31_80632230" fill="none" stroke="#010101" stroke-width="64" d="M4895.123,4182.346
			c26.709-0.088,65.896,42.041,84.727,59.455c31.832,29.459,58.029,64.176,87.742,95.08c32.524,33.822,73.189,60.096,51.967,113.062
			c-17.402,43.43-26.647,99.612,3.621,139.419c30.865,40.581,85.635,37.705,129.732,27.845
			c22.856-5.115,41.536-24.586,64.083-29.564c24.138-5.326,40.841,11.246,58.036,26.689c51.347,46.093-18.658,57.406-60.088,70.875
			c-96.518,31.384-173.015,54.97-256.521,107.061c-52.176,32.546-74.224,67.165-155.802,130.613L4895.123,4182.346z"/>
		<path id="_x31_80632231" fill="none" stroke="#010101" stroke-width="64" d="M4894.987,4169.086
			c66.271,5.186,125.341,101.555,167.616,148.223c34.11,37.646,82.219,77.584,132.189,86.84
			c38.195,7.076,63.831-19.01,53.061-58.082c-13.479-48.913-66.146-64.013-90.072-103.392
			c-24.619-40.509-40.335-95.373-32.341-143.39c12.747-76.576,63.571-156.7,131.81-192.144
			c28.443-14.787,57.959-23.575,50.068-63.272c-5.703-28.691-27.544-49.588-55.862-51.902
			c-45.174-3.682-65.003,27.012-124.247,54.205c-72.876,33.456-156.277,54.053-234.814,66.984L4894.987,4169.086z"/>
		<path id="_x31_80632232" fill="none" stroke="#010101" stroke-width="64" d="M4889.248,3601.288
			c47.303-3.892,62.955,2.425,101.396,30.221c32.373,23.397,88.091,46.767,126.735,54.677c21.508,4.398,78.388-3.568,89.011,18.38
			c29.425,60.655-41.379,104.063-85.861,123.965c-52.576,23.496-93.964,38.602-149.62,52.909
			c-25.806,6.635-52.126,13.794-78.662,16.559L4889.248,3601.288z"/>
		<path id="_x31_80632227" fill="none" stroke="#010101" stroke-width="64" d="M5298.805,3665.929
			c-1.11,0.34-2.219,0.668-3.334,0.988c-18.988,5.466-54.367,11.552-67.045,29.424c-13.1,18.481-5.332,65.277,12.075,78.391
			c21.512,16.21,61.563,5.011,85.155,0.647c135.869-25.162,273.029-140.139,352.316-253.785
			c25.012-35.827,46.196-74.719,62.818-115.46c12.967-31.794,34.241-77.734,13.322-110.425
			c-18.131-28.317-52.12-45.06-79.943-60.718c-50.365-28.331-61.641,17.054-72.723,59.468
			c-13.109,50.133-23.354,98.266-46.781,144.903c-35.816,71.307-90.085,137.979-156.82,179.892
			C5367.566,3638.274,5332.77,3655.683,5298.805,3665.929z"/>
		<path id="_x31_80632216" fill="none" stroke="#010101" stroke-width="64" d="M5564.992,2787.025
			c-15.629-27-31.161-53.858-47.479-79.611c-30.767-48.567-44.409-7.121-57.207,30.822c-7.204,21.301-18.538,49.992-27.657,70.534
			c-11.055,24.899-10.986,18.977-2.746,42.373c6.26,17.794,13.033,24.679,1.731,44.21c-6.269,10.827-22.609,17.439-22.625,31.529
			c-0.036,34.705,48.905,64.395,69.165,87.365c37.198,42.157,75.07,85.957,106.713,132.792
			c16.75,24.815,24.785,63.978,61.201,58.035c95.584-15.625,110.104-168.899,50.209-229.57
			C5642.936,2921.453,5603.652,2853.795,5564.992,2787.025z"/>
		<path id="_x31_80632217" fill="none" stroke="#010101" stroke-width="64" d="M6531.623,2766.523
			c-23.855-25.752-39.991-33.883-68.336-10.489c-19.184,15.823-33.993,37.256-48.5,57.464
			c-24.783,34.526-59.188,77.025-26.768,118.557c27.381,35.085,72.676,54.079,105.297,83.099
			c29.199,25.978,57.693,54.379,84.779,82.755c52.201,54.71,108.676,140.133,128.56,215.912
			c73.831,281.375-87.543,550.482-284.157,733.736c-36.162,33.712-76.764,64.749-102.511,108.439
			c-16.626,28.209-32.058,62.916-26.491,96.63c10.119,61.38,49.592,37.241,87.508,24.311
			c74.079-25.286,110.74-37.474,155.791-77.108c131.021-115.309,153.922-145.688,189.156-207.475
			c35.232-61.771,60.778-129.605,89.18-211.436c18.677-53.808,47.037-127.502,68.239-194.692
			c62.856-199.156,76.979-346.062,57.261-407.901c-19.545-61.271-79.713-84.444-130.25-114.229
			c-63.08-37.149-116.523-48.967-176.791-137.416c-25.032-36.729-42.936-78.429-67.349-115.685
			C6560.584,2802.325,6547.252,2783.394,6531.623,2766.523z"/>
		<path id="_x31_80632235" fill="none" stroke="#010101" stroke-width="64" d="M5173.828,2660.796
			c-18.227,53.518-47.573,110.89-66.814,164.091c-16.418,45.403-36.146,42.357-52.327,36.935
			c-43.795-14.674-83.046-60.145-101.938-102.043c-10.637-23.604-26.211-49.71-28.941-76.087
			c-5.773-55.8,2.493-84.393,37.744-121.739c14.414-15.282,40.916-39.11,61.48-62.596c8.104-9.242,21.71-21.729,31.35-31.936
			c10.195-10.814-11.369-49.042-11.455-49.163l44.137,49.89c-25.019-16.659-10.963,30.763,5.787,69.623
			C5103.221,2561.822,5120.146,2605.674,5173.828,2660.796z"/>
		<path id="_x31_80632215" fill="none" stroke="#010101" stroke-width="64" d="M5419.176,2890.908
			c-1.695,2.226-10.745,11.998-13.23,14.413c-31.611,30.541-77.961,57.556-121.162,63.238
			c-28.354,3.733-75.785-2.743-100.057-17.865c-17.976-11.207-112.746-63.658-95.787-91.698
			c6.443-10.646,13.514-21.487,18.074-34.109c19.241-53.201,48.585-110.569,66.814-164.091
			c11.705,12.51,33.771,31.394,37.547,34.928c74.939,63.649,95.049,64.37,135.516,91.42c3.271,2.186,21.711,28.591,39.859,44.631
			C5408.645,2851.112,5438.705,2865.373,5419.176,2890.908z"/>
		<path id="_x31_80632204" fill="none" stroke="#010101" stroke-width="64" d="M6579.194,5069.789
			c-14.729-49.725-138.804,12.87-174.396,31.303c-31.311,16.199-62.458,3.312-68.361-34.584
			c-5.381-34.556,46.186-100.24,7.387-113.188c-29.338-9.802-56.586,5.026-113.316-3.832c-29.266-4.569-61.774-24.535-80.276-48.937
			c-21.589-28.486-28.54-65.195-28.874-98.371c-0.73-71.487,17.361-105.738,46.012-178.71c9.475-24.13,32.29-58.097,49.158-77.632
			c38.83-44.974,66.11-76.416,85.342-97.203c54.637-59.049,198.961-213.015,198.961-213.015
			c-48.055,35.269-96.111,42.238-129.151,55.115c-60.065,23.402-89.146,36.989-198.271,87.468
			c-75.451,34.918-167.371,70.08-345.697,140.27c-161.525,63.576-343.078,120.818-513.436,176.214
			c-96.514,31.386-162.081,51.06-245.604,103.159c-52.175,32.544-84.334,74.852-165.914,138.303l0.385,37.92
			c0.239,0.162,36.288,24.351,35.318,60.274c-1.326,49.306-5.316,136.557-7.369,174.497c-2.047,37.935-5.632,195.326-5.217,206.701
			c4.736,128.853,10.557,275.197,12.242,397.035c0.735,53.256,23.51,123.731,17.474,192.236c-1.64,18.604-3.567,43.559-9.5,54.135
			c-8.897,15.854-27.466,12.621-31.844,12.672l-2.966-293.01l6.281,620.877c14.6-2.055,242.928-6.367,283.08-10.598
			c40.152-4.224,178.796-24.691,244.311-50.058c65.52-25.356,170.217-78.694,229.962-132.427
			c37.299-33.54,114.542-127.258,150.614-173.152c36.076-45.894,101.266-103.473,141.187-130.457
			c16.585-11.197,79.518-41.932,64.634-52.51c-24.536-17.433-0.715-70.773-0.715-70.773
			c18.784-69.713,31.938-111.402,78.406-195.492c56.23-101.725,103.107-162.902,142.756-216.42
			c15.375-20.752,64.334-84.473,117.936-140.312c49.453-51.496,103.888-95.598,115.836-108.688
			c34.933-38.297,61.714-39.849,87.354-33.818C6598.562,5090.826,6581.371,5077.107,6579.194,5069.789z"/>
		<path id="_x31_80632207" fill="none" stroke="#010101" stroke-width="64" d="M5081.067,6028.995
			c-41.58-44.897-84.722-95.229-133.122-135.271c5.622,35.526,10.947,73.599,7.646,111.09c-1.64,18.607-3.567,43.56-9.5,54.137
			c-8.897,15.855-27.466,12.622-31.844,12.674l-2.073-204.715l0,0l3.884,384.17c35.704,12.91,67.686,40.542,106.161,44.302
			c63.088,6.166,113.348-56.987,118.373-117.47C5145.029,6124.455,5115.865,6066.561,5081.067,6028.995z"/>
		<path id="_x31_80632208" fill="none" stroke="#010101" stroke-width="64" d="M5358.291,5371.484
			c3.512-8.093,15.963-38.381,17.927-47.42c20.628-94.968,27.712-150.072,23.162-239.125
			c-3.322-64.875-57.647-69.047-115.983-84.045c-70.041-18.014-91.834-21.272-164.654-24.751
			c-62.781-2.998-75.842,3.449-101.549,75.046c-17.769,49.487-16.111,80.639-24.979,132.926
			c-7.085,41.797,0.581,93.572,36.057,119.464c36.678,26.761,87.521,26.694,124.898,52.978
			c39.09,27.499,94.389,81.897,147.151,72.955C5334.665,5423.686,5346.346,5399.037,5358.291,5371.484z"/>
		<path id="_x31_80632211" fill="none" stroke="#010101" stroke-width="64" d="M5374.828,5547.785l4.119-7.068
			c-30.857-8.311-62.688-14.242-91.282-27.828l-0.788,9.314c11.018,115.923-175.9,182.652-257.434,198.075l-3.168,0.054
			c12.594,33.469,27.051,66.484,42.896,99.314c25.633,53.105,55.866,106.611,90.311,154.155c4.266,5.882,8.922,11.847,13.91,17.765
			l3.056-7.475C5234.742,5832.3,5294.989,5685.796,5374.828,5547.785z"/>
		<path id="_x31_80632212" fill="none" stroke="#010101" stroke-width="64" d="M5286.875,5522.203l0.788-9.314
			c-5.023-2.387-9.951-4.998-14.751-7.912c-19.969-12.129-38.666-36.406-55.317-53.379c-36.241-36.965-71.471-82.318-124.618-94.586
			c-94.904-21.926-121.853,79.108-116.232,150.244c5.889,74.5,23.807,144.734,49.527,213.076l3.17-0.054
			C5110.977,5704.855,5297.895,5638.129,5286.875,5522.203z"/>
		<path id="_x31_80632213" fill="none" stroke="#010101" stroke-width="64" d="M5424.299,5556.396
			c-14.512-6.698-29.809-11.488-45.352-15.68l-4.119,7.068c-79.841,138.011-140.086,284.515-198.385,436.307l-3.055,7.475
			c36.238,42.996,90.145,83.734,140.319,75.707c71.671-11.467,104.87-104.65,124.026-176.023
			c15.892-59.158,21.783-124.258,31.013-171.06C5483.646,5644.634,5504.133,5593.226,5424.299,5556.396z"/>
		<path id="_x31_80632210" fill="none" stroke="#010101" stroke-width="64" d="M5316.408,5424.806
			c22.357-9.845,32.031-30.596,41.885-53.321c3.513-8.093,8.668-15.758,11.187-24.641c22.603-79.828,34.45-172.852,29.9-261.904
			c-0.953-18.621-6.109-32.243-14.354-42.559c-4.006-5.006-12.982-17.928-12.166-31.529c0.816-13.609,22.27-16.08,22.27-16.08
			c69.135-10.676,129.449-49.625,187.264-87.936c58.444-38.728,121.697-70.371,182.434-105.214
			c135.369-77.669,281.735-154.146,416.938-234.792c0,0,14.376-10.053,32.346,7.805c17.968,17.858,5.658,34.994,5.658,34.994
			c-43.627,42.211-76.102,123.417-78.478,189.166c-2.517,69.498,26.445,136.93,89.218,150.692
			c54.936,12.05,83.982-5.97,113.318,3.825c38.797,12.955-20.027,78.721-7.387,113.195c13.152,35.879,37.049,50.783,68.359,34.584
			c17.799-9.217,52.305-28.053,86.711-39.896c0,0,11.729-7.831,23.162,6.622c11.438,14.456,2.957,27.907,2.957,27.907
			c-38.717,24.975-89.611,77.289-145.457,131.539c-137.625,133.704-261.133,355.701-281.036,392.34
			c-11.315,20.82-57.916,121.553-67.88,190.175c0,0-4.349,50.534-47.637,76.895c-87.184,53.089-77.351,21.663-77.351,21.663
			c-5.192-51.721-45.588-106.941-94.649-113.627c-89.914-12.245-125.992,77.682-171.11,138.203
			c-33.362,44.76-70.794,86.354-112.716,122.598c-18.783,16.238-40.944,31.714-64.955,44.588c0,0-38.693,1.704-60.746-28.91
			c-22.052-30.607-3.576-61.447-3.576-61.447c22.414-34.971,36.868-79.914,47.221-118.49
			c15.895-59.162,21.785-124.258,31.014-171.062c14.901-75.554,35.387-126.965-44.451-163.797
			c-21.727-10.024-45.222-15.795-68.674-21.639c0,0-35.035-8.615-48.922-53.681
			C5292.819,5436.002,5316.408,5424.806,5316.408,5424.806z"/>
		<path id="_x31_80632209" fill="none" stroke="#010101" stroke-width="64" d="M5200.639,6388.891
			c-38.088,3.981-114.389,16.945-138.324-24.107c-23.547-40.379,23.316-61.617,45.823-84.844
			c31.015-32.02,48.767-70.673,50.141-114.652c2.972-94.023,61.933-58.993,123.462-38.692
			c80.201,26.454,176.956-18.272,238.051-71.08c41.924-36.248,79.355-77.843,112.713-122.597
			c45.123-60.527,81.201-150.449,171.111-138.205c53.412,7.275,96.551,72.076,95.181,127.258
			c-0.989,34.348-54.368,87.238-73.272,111.285c-36.07,45.895-113.312,139.617-150.613,173.156
			c-59.745,53.728-164.439,107.07-229.957,132.424C5379.445,6364.197,5240.828,6384.662,5200.639,6388.891z"/>
		<path id="_x31_80632205" fill="none" stroke="#010101" stroke-width="64" d="M6371.679,4290.737
			c-60.067,23.406-89.146,36.991-198.271,87.466c-75.451,34.922-167.375,70.082-345.7,140.273
			c-161.522,63.578-343.075,120.818-513.433,176.211c-96.516,31.389-162.082,51.061-245.604,103.16
			c-30.861,19.26-54.953,45.893-84.107,67.308c-8.874,6.522-24.846,13.736-20.909,27.36c5.595,19.353,24.465,21.723,41.188,22.24
			c22.345,0.702,44.495,1.082,66.761,3.791c39.342,4.794,79.815,14.219,118.434,26.245c71.556,22.288,127.504,61.964,205.092,49.979
			c69.135-10.674,129.453-49.621,187.264-87.931c58.444-38.729,121.697-70.376,182.434-105.219
			c147.061-84.378,307.1-167.341,451.702-255.784c38.829-44.969,66.109-76.416,85.344-97.198
			c54.636-59.054,198.962-213.018,198.962-213.018C6452.775,4270.893,6404.719,4277.861,6371.679,4290.737z M5591.958,4841.416
			c-40.058,56.994-205.063,76.309-264.608,74.482c-22.995-0.702-93.774-10.849-103.409-34.789
			c-9.979-24.965,24.35-47.68,65.991-65.342c46.23-19.605,101.471-32.975,115.177-36.244c38.485-9.157,89.786-24.305,129.526-20.584
			C5566.115,4761.888,5623.898,4795.969,5591.958,4841.416z"/>
		<path id="_x31_80632206" fill="none" stroke="#010101" stroke-width="64" d="M5534.635,4758.942
			c-39.74-3.718-91.041,11.424-129.523,20.581c-13.706,3.27-68.949,16.641-115.18,36.244
			c-41.642,17.662-75.971,40.377-65.991,65.342c9.635,23.943,80.414,34.092,103.409,34.791
			c59.545,1.826,224.551-17.49,264.611-74.484C5623.898,4795.969,5566.115,4761.888,5534.635,4758.942z"/>
		<path id="_x31_80632336" fill="none" stroke="#010101" stroke-width="64" d="M5510.77,4478.322
			c36.285-25.659-25.197-83.142-53.41-103.052c-24.498-17.28-58.553-35.583-94.039-24.257
			c-32.777,10.471-53.067,27.938-49.389,53.621c3.939,27.521,21.053,54.382,67.739,73.836
			C5417.137,4493.252,5476.288,4502.721,5510.77,4478.322z"/>
		<path id="_x31_80632337" fill="none" stroke="#010101" stroke-width="64" d="M5757.815,5480.416
			c26.849-20.354,21.739-77.966-28.802-138.086c-21.551-25.622-67.846-45.425-82.554-33.219
			c-19.026,15.783-28.591,62.871,17.595,113.559C5695.511,5457.195,5732.433,5499.646,5757.815,5480.416z"/>
		<path id="_x31_80632338" fill="none" stroke="#010101" stroke-width="64" d="M7060.104,5191.463
			c34.289-33.979-96.92-130.521-124.209-81.186c-15.926,28.908,20.34,55.754,42.012,66.578
			C6992.463,5184.139,7046.152,5205.284,7060.104,5191.463z"/>
		<path id="_x31_80632339" fill="none" stroke="#010101" stroke-width="64" d="M6399.686,5539.135
			c37.175-58.537,65.793-118.254,99.096-196.972c23.637-55.869,101.701-233.597,74.147-256.106
			c-34.233-27.963-111.122,54.132-200.759,141.207c-137.625,133.704-261.131,355.701-281.034,392.34
			c-12.989,23.9-72.473,153.095-69.667,218.143c2.713,4.889,18.406,24.949,32.836,5.832
			c90.61-60.455,182.896-140.044,211.725-152.578c48.727-21.684,56.907-32.215,78.545-61.523
			C6367.83,5592.453,6380.967,5568.636,6399.686,5539.135z"/>
		<path id="_x31_80632340" fill="none" stroke="#010101" stroke-width="64" d="M6909.634,2979.232
			c38.13-25.059,64.696-52.465,75.196-98.086c15.969-69.394,54.885,6.991,99.293,63.375c27.012,23.158,55.885-20.645,87.676-2.848
			c37.622,21.079,77.225,103.524,92.66,129.797c24.569,41.846,24.633,86.944,23.293,134.351
			c-1.2,62.583-86.41,107.231-167.242,265.342c-39.555,77.403-53.4,138.976-76.209,232.122
			c-39.926,163.109-58.717,187.613-94.133,266.439c-23.417,52.108-106.026,173.674-256.537,285.27
			c-117.914,87.428-178.475,124.408-248.359,192.291c-86.843,84.365-212.912,174.498-194.764,252.377
			c17.186,73.743,66.18,96.008,161.045,26.678c495.107-361.811,728.682-370.192,63.705,156.66
			c-105.767,83.798-264.879,93.887-321.326,22.457c-83.895-106.154,17.764-294.758,42.312-332.229
			c28.793-43.917,258.725-296.213,350.557-382.987c66.297-62.615,118.283-102.174,151.902-155.211
			c25.592-40.36,55.827-80.233,89.531-179.184c38.559-113.179,77.131-193.588,118.834-353.918
			c47.483-182.518,64.461-320.247,3.557-371.616c-87.655-73.901-217.959-112.793-257.58-177.352
			c3.457-1.814,34.084,34.741,102.792,48.231C6838.213,3017.351,6877.678,3000.25,6909.634,2979.232z"/>
		<path id="_x31_80632341" fill="none" stroke="#010101" stroke-width="64" d="M6565.592,2796.615
			c62.268,14.484,119.541,2.576,171.55-18.934c26.646-11.021,79.876-64.294,112.659-59.994
			c64.367,8.433,82.533,31.327,99.553,88.012c20.666,68.886,26.805,121.044-13.065,153.703
			c-70.237,57.569-117.758,57.389-184.116,39.928c-56.686-14.907-95.293-45.203-128.818-91.491
			C6607.918,2886.524,6559.955,2795.307,6565.592,2796.615z"/>
		<path id="_x31_80632342" fill="none" stroke="#010101" stroke-width="64" d="M5087.06,2468.146
			c-25.019-16.659-10.962,30.763,5.788,69.623c12.472,28.939,34.452,86.567,118.527,157.954
			c74.939,63.648,95.049,64.37,135.516,91.42c5.72,3.83,57.914,81.854,73.57,48.492c25.037-53.359,37.462-89.513,58.75-152.309
			c10.861-32.019-62.35-22.69-100.155-27.342c-36.591-4.489-69.812-17.271-99.005-34.305
			c-39.741-23.208-64.49-36.773-120.207-83.363C5132.856,2515.739,5106.689,2481.202,5087.06,2468.146z"/>
		<path id="_x31_80632343" fill="none" stroke="#010101" stroke-width="64" d="M7629.022,5333.033
			c101.438-86.415,163.619-152.61,187.8-218.167c48.366-131.187,48.919-163.194,56.328-333.671
			c2.546-59.028,18.623-145.879,17.176-223.891c-0.014-1.064-0.021-2.048-0.032-3.114l20.825-0.375
			c1.718,82.942,9.793,144.507,9.274,201.609c-0.842,82.745,2.687,142.614-12.399,218.764
			c-12.866,64.673-32.524,122.749-60.494,175.149c-5.331,7.49-10.077,15.05-14.04,20.782
			c-11.454,16.501-22.829,33.312-34.498,50.046c-9.651,13.829-19.895,27.211-30.433,40.293
			C7673.881,5367.732,7638.223,5353.866,7629.022,5333.033z"/>
		<path id="_x31_80632344" fill="none" stroke="#010101" stroke-width="64" d="M7385.643,5113.877
			c-8.656,47.491-36.29,25.045-31.112-5.348c6.548-38.671,13.369-65.286,29.884-115.969
			c16.513-50.76,74.845-186.608,130.458-287.693c39.685-72.17,70.095-114.512,104.363-158.487
			c39.533-50.709,95.65-116.688,173.262-210.429c56.674-68.488,119.111-145.229,133.477-170.184
			c45.46-78.905,75.478-124.051,92.291-210.229c18.617-95.827,40.268-216.564,40.504-330.313
			c0.133-88.423-15.043-157.798-34.17-242.295c-21.494-95.162-30.41-116.6-47.965-168.811
			c-6.104-17.981-12.639-35.733-19.836-53.702l18.404-8.084c28.476,69.456,53.948,138.412,74.72,205.069
			c10.646,33.936,34.927,86.147,45.275,170.134c0.163,1.588,0.326,3.179,0.562,4.768c0.396,3.408,0.727,6.744,1.049,10.075
			c0.249,2.73,0.493,5.379,0.743,8.181c0.325,3.335,0.503,6.595,0.755,9.777c6.171,89.49-10.799,203.727-33.248,325.229
			c-15.038,81-25.714,138.145-47.973,198.902c-1.848,5.176-3.771,10.281-5.692,15.38c-12.739,33.732-26.22,66.562-38.156,100.136
			c-0.072,0.229-0.215,0.383-0.212,0.612c-0.786,1.978-1.497,3.88-2.21,5.71c-32.607,85.283-51.877,188.401-57.953,267.027
			c-2.18,15.874-2.319,30.816-2.152,47.347c0,0.073,0.002,0.228,0.002,0.302c-0.081,5.994-0.024,11.753,0.174,17.136
			c0.056,5.31,0.106,10.54,0.233,15.697l-20.825,0.375c-1.874-98.634-3.948-108.624-20.955-207.7
			c-5.203-30.277-16.635-18.782-38.248,11.79c-34.875,49.291-229.53,247.06-281.643,332.94
			c-47.228,77.865-90.512,205.736-114.152,274.242C7411.653,5033.974,7395.195,5061.373,7385.643,5113.877z"/>
		<path id="_x31_80632345" fill="none" stroke="#010101" stroke-width="64" d="M4933.973,1721.672
			c15.062,0.821,31.359,0.872,48.306,0.004c61.575-3.022,132.961-18.813,194.352-61.874c2.393-1.695,4.789-3.464,7.179-5.236
			c43.521-32.475,87.037-72.305,127.203-111.268c22.438-21.554,43.707-42.943,63.459-62.647
			c8.898-8.893,17.285-17.782,25.311-26.287c12.727-13.409,24.729-25.978,37.34-36.426c10.365-8.606,21.182-15.701,33.041-20.76
			c16.885-7.084,36-10.021,59.348-6.713c80.648,11.331,168.82,29.252,253.027,45.777c52.43,10.271,98.05,19.406,139.059,27.753
			c85.607,17.495,151.016,32.026,215.715,48.762c150.205,38.781,210.109,58.376,325.002,102.623
			c114.967,44.249,282.99,132.354,357.494,179.394c72.446,45.772,136.541,89.208,242.346,174.428
			c31.979,25.663,67.717,55.15,108.627,89.664c144.986,122.254,181.958,164.85,275.549,263.702
			c48.163,50.812,82.495,92.602,136.847,162.762c20.958,27.07,41.115,54.758,60.985,83.132c0,0,0,0,0.003,0.075
			c29.142,41.542,57.642,84.685,87.331,130.088c55.745,85.312,111.496,170.926,156.521,258.4h0.072
			c9.917,19.304,19.321,38.615,28.064,58.084c20.561,45.654,40.464,91.543,59.05,137.221l-18.404,8.085
			c-21.665-53.831-48.758-109.272-83.563-176.461c-103.008-198.771-245.387-359.351-409.791-530.155
			c-61.377-63.866-222.491-184.201-369.482-287.931c-109.381-77.143-210.689-144.289-258.812-176.675
			c-88.666-59.624-262.41-149.791-390.723-213.08c-114.355-56.462-192.452-90.115-149.133-55.248
			c70.882,57.011,95.996,97.536,126.607,147.403c32.841,53.409,37.773,121.907,55.753,179.495
			c24.621,79.129,38.513,108.628,62.872,161.447c18.161,39.614,89.225,100.416,116.366,132.349
			c105.466,123.976,131.521,170.785,155.907,240.966c17.387,49.937,4.617,131.292-50.241,176.858
			c-33.988,28.201-102.19,48.434-153.944,39.596c-62.885-10.765-108.731-56.751-132.414-85.765
			c-42.99-52.538-83.5-112.611-107.441-145.944c-53.972-54.391-109.004-83.593-148.725-101.739
			c-55.434-25.331-74.607-28.079-93.152-33.792c-59.673-18.308-127.393-30.31-159.656-33.675
			c-70.088-7.349-126.604-2.868-101.525-9.132c34.606-10.538,210.342-70.39,315.656-134.781
			c80.973-57.757,156.586-110.525,175.853-192.713c17.256-100.06-48.162-238.651-99.203-292.163
			c-76.303-80.082-120.454-109.935-205.981-134.255c-52.992-15.121-80.822-21.263-108.65-26.646
			c-64.507-12.34-124.128-18.44-202.29-7.883c-145.669,19.713-263.511,124.129-424.299,195.496
			c-81.628,36.228-224.042,81.383-444.298,147.028l-2.32-229.369c12.229,2.598,27.159,5.013,44.205,6.571
			C4920.591,1720.831,4927.17,1721.291,4933.973,1721.672z"/>
		<path id="_x31_80632333" fill="none" stroke="#010101" stroke-width="64" d="M6295.27,1720.836
			c-43.327-34.849,34.782-1.189,149.154,55.252c128.275,63.31,296.537,151.372,385.197,210.979
			c3.133,2.097,25.691,14.93,45.965,28.888c25.762,17.728,16.562,11.19-8.349,76.87c-26.86,70.804-40.048,181.356-43.511,213.75
			c-7.515,70.229,3.775,103.282,19.932,164.723c0,0,15.449,82.296,26.348,113.417c9.721,27.739,34.803,76.252,26.117,106.87
			c-9.369,33.099-20.236,24.651-38.105,25.062c-41.998,0.984-37.758,6.282-69.602,28.25c-9.063,6.26-32.684,19.787-25.886,14.5
			c56.208-43.715,67.669-126.911,50.285-176.859c-24.43-70.173-50.519-116.991-155.915-240.966
			c-27.168-31.966-98.209-92.763-116.442-132.387c-24.284-52.817-38.208-82.3-62.837-161.409
			c-17.934-57.623-22.899-126.062-55.707-179.496C6391.266,1818.376,6366.189,1777.892,6295.27,1720.836"/>
		<path id="_x31_80632334" fill="none" stroke="#010101" stroke-width="64" d="M4914.247,6071.625
			c4.378-0.052,22.944,3.182,31.841-12.674c5.936-10.577,7.86-35.529,9.503-54.137c6.032-68.504-16.739-138.979-17.474-192.231
			c-1.686-121.842-7.509-268.189-12.242-397.04c-0.415-11.373,3.17-168.764,5.217-206.699c2.053-37.938,6.043-125.191,7.369-174.498
			c0.973-36.045-35.326-60.277-35.326-60.277L4914.247,6071.625z"/>
		<path id="_x31_80632335" fill="none" stroke="#010101" stroke-width="64" d="M4913.197,2839.266
			c21.777-14.859,41.229-23.434,60.709-19.617c18.307,3.594-46.053-96.81-50.102-135.958c-5.771-55.8,2.492-84.393,37.744-121.739
			c14.416-15.282,40.918-39.11,61.482-62.596c8.104-9.242,21.71-21.729,31.35-31.936c10.195-10.814-11.372-49.042-11.457-49.163
			c-5.494-7.824-19.661-17.486-28.322-30.024c-0.95-1.385-34.674-43.69-40.793-58.963c0-0.021-16.018-26.01-22.29-36.414
			c-2.146-3.582-22.222-32.091-28.435-41.402c-12.035-18.013-35.96-61.379-48.301-79.094c-0.168-0.249,6.648,657.152,6.648,657.152
			C4881.787,2828.958,4896.268,2850.827,4913.197,2839.266z"/>
	</g>
</g>
</svg>
