<svg width="10144" height="7648" xmlns="http://www.w3.org/2000/svg">
<g transform="scale(1.0)">
<g id="180627285" order="1" parent_id="" graphic_group_label_id="28" graphic_group_label="Atlas - Adult Mouse" sub_image_id="100960309" transform=" scale(1.0, 1.0)"><path id="180627287" parent_id="180627285" order="0" structure_id="8" d="M5076.131,6888.93
			c85.063,0.804,566.277,54.289,664.671-17.78c84.916-62.209-226.007-256.258-168.664-247.653
			c237.396,35.596,421.739-54.418,618.481-7.822c140.188,33.203,235,141.895,353.651,219.797
			c122.821,80.629,190.257,127.664,334.136,138.144c92.302,6.716,241.801-26.085,330.111-67.788
			c129.869-61.339,200.058-188.125,315.207-255.607c142.16-83.336,198.388,25.115,348.912-42.584
			c149.815-67.369,266.979-178.573,375.863-305.09c118.701-137.916,207.715-296.994,314.881-444.91
			c272.477-375.98,512.943-791.396,672.646-1230.698c132.004-363.114,285.68-678.5,279.32-1079.542
			c-6.232-393.344-170.727-708.616-333.404-1148.059c-219.719-593.5-650.256-923.651-1114.691-1207.454
			c-371.394-226.953-562.439-247.271-718.676-300.105c-115.166-38.942-221.715-77.563-341.043-100.521
			c-108.233-20.839-188.653-43.483-310.801-64.1c-164.533-27.767-313.668-60.963-484.516-69.898
			c-236.709-12.376-501.921-45.577-726.169,51.552c-116.2,50.329-260.592,214.417-354.002,242.729l-13.896,1476.25L5076.131,6888.93
			z" style="stroke:black;fill:#bfdae3"/><path id="180627288" parent_id="180627285" order="1" structure_id="688" d="M7663.723,6618.73c61.309,6.766,117.666,29.498,207.916-11.1
			c149.815-67.369,266.979-178.573,375.863-305.089c118.701-137.916,207.715-296.994,314.881-444.91
			c272.477-375.981,512.943-791.396,672.646-1230.699c132.004-363.114,285.68-678.5,279.318-1079.542
			c-6.23-393.344-170.725-708.616-333.402-1148.059c-219.719-593.5-650.256-923.651-1114.691-1207.454
			c-371.394-226.953-562.439-247.271-718.676-300.105c-115.166-38.942-221.715-77.563-341.043-100.521
			c-108.233-20.839-188.653-43.483-310.801-64.1c-164.533-27.767-313.668-60.963-484.516-69.898
			c-236.709-12.376-501.921-45.577-726.169,51.552c-116.2,50.329-260.592,214.417-354.002,242.729l-13.896,1476.25
			c0,0,131.041,15.532,247.479-3.227c142.583-22.97,298.134-122.199,337.313-148.75
			c241.166-163.459,146.485-295.727,375.832-291.483c130.563,2.419,299.258,83.686,418,120.714
			c130.992,40.855,279.011,80.561,421.959,143.688c164.056,72.448,337.533,153.005,518.979,268.636
			c117.977,75.181,146.746,110.828,254.328,209.925c107.512,99.021,163.876,162.976,241.256,290.041
			c65.423,107.474,147.063,221.85,217.594,364.893c93.263,189.146,177.461,376.716,210.132,494.105
			c20.298,72.926,34.91,148.578,37.852,224.199c6.435,166.168,13.879,277.018-36.442,511.92
			c-20.844,97.291-54.248,224.699-111.762,353.449c-42.641,95.453-108.365,213.761-186.299,296.436
			c-29.227,31.01-72.241,70.225-121.977,109.375c-79.971,62.958-176.418,132.639-254.377,219.337
			c-90.35,100.472-98.266,228.442-100.408,327.146C7581.714,6143.354,7543.496,6395.175,7663.723,6618.73L7663.723,6618.73z" style="stroke:black;fill:#b0ffb8"/><path id="180627375" parent_id="180627285" order="2" structure_id="320" d="M5818.422,769.588l-16.408-126.439
			c137.354-6.214,277.859,7.121,409.587,13.95c170.826,8.949,319.987,42.134,484.464,69.958c17.154,2.914,33.477,5.82,49.13,8.804
			l-32.685,131.482c-19.321-3.269-38.646-6.286-58.057-8.805c-121.965-15.913-240.973-44.728-363.361-59.81
			c-101.562-12.551-202.758-10.502-304.473-24.472C5933.473,767.002,5876.434,765.297,5818.422,769.588z" style="stroke:black;fill:#1f9d5a"/><path id="180627374" parent_id="180627285" order="3" structure_id="943" d="M5818.422,769.588
			c58.012-4.292,115.05-2.586,168.198,4.67c101.714,13.97,202.911,11.921,304.474,24.473
			c122.39,15.081,241.396,43.896,363.36,59.809c19.411,2.519,38.733,5.536,58.056,8.805l-88.865,357.583
			c-135.551-43.565-319.975-96.602-437.223-108.549c-109.498-11.208-218.512-29.583-326.702-28.935L5818.422,769.588z" style="stroke:black;fill:#1f9d5a"/><path id="180627373" parent_id="180627285" order="4" structure_id="648" d="M6509.986,1681.954
			c-131.74-49.536-262.842-96.23-394.834-145.687c-59.014-22.076-134.592-47.812-204.729-57.896l0.001-0.083l-50.704-390.844
			c108.19-0.649,217.204,17.727,326.702,28.935c117.248,11.948,301.672,64.983,437.223,108.549L6509.986,1681.954z" style="stroke:black;fill:#1f9d5a"/><path id="180627372" parent_id="180627285" order="5" structure_id="844" d="M6153.965,1905.646
			c-85.982-37.094-147.823-51.271-194.004-45.534l-49.538-381.742c70.138,10.086,145.717,35.821,204.729,57.896
			c131.992,49.455,263.094,96.15,394.834,145.687l-85.222,342.771C6330.949,1986.972,6234.878,1940.608,6153.965,1905.646z" style="stroke:black;fill:#1f9d5a"/><path id="180627371" parent_id="180627285" order="6" structure_id="882" d="M6412.107,2075.653
			c-106.563-39.457-231.959-89.518-333.953-91.479c-43.783-0.83-75.771,3.373-100.541,11.898l-17.652-135.96
			c46.182-5.738,108.021,8.44,194.004,45.535c80.913,34.961,176.984,81.324,270.801,119.076L6412.107,2075.653z" style="stroke:black;fill:#1f9d5a"/><path id="180627380" parent_id="180627285" order="7" structure_id="656" d="M5802.014,643.148l16.408,126.439
			c-161.847,11.822-331.131,69.45-442.847,178.584l-59.526-118.088l-2.476-3.026c58.084-47.331,118.006-95.062,171.858-118.409
			C5584.932,665.544,5692.447,648.123,5802.014,643.148z" style="stroke:black;fill:#1f9d5a"/><path id="180627379" parent_id="180627285" order="8" structure_id="962" d="M5818.422,769.588l41.298,317.854
			c-87.836,0.424-175.207,13.363-261.992,52.751c-38.702,17.568-67.054,43.158-88.192,73.655l-133.959-265.677
			C5487.291,839.038,5656.575,781.41,5818.422,769.588z" style="stroke:black;fill:#1f9d5a"/><path id="180627378" parent_id="180627285" order="9" structure_id="767" d="M5859.721,1087.443l50.703,390.844
			c-24.24-3.398-47.748-4.954-69.778-3.91c-74.604,3.718-118.901,48.51-145.317,107.817l-185.791-368.346
			c21.14-30.497,49.49-56.087,88.191-73.655C5684.514,1100.807,5771.884,1087.867,5859.721,1087.443z" style="stroke:black;fill:#1f9d5a"/><path id="180627377" parent_id="180627285" order="10" structure_id="1021" d="M5910.423,1478.371l49.538,381.742
			c-41.755,5.194-70.734,26.692-93.091,62.266l-171.543-340.184c26.416-59.308,70.712-104.1,145.317-107.817
			c22.029-1.044,45.537,0.512,69.778,3.91V1478.371z" style="stroke:black;fill:#1f9d5a"/><path id="180627376" parent_id="180627285" order="11" structure_id="1085" d="M5977.613,1996.073
			c-23.932,8.032-41.145,20.132-55.72,35.509l-55.024-109.204c22.356-35.573,51.336-57.069,93.092-62.266L5977.613,1996.073z" style="stroke:black;fill:#1f9d5a"/><path id="180627358" parent_id="180627285" order="12" structure_id="981" d="M8332.416,1499.597
			c-50.132-44.096-108.205-68.666-165.928-95.066l65.91-107.981c399.158,262.169,755.582,580.572,948.934,1102.633
			c68.326,184.649,137.027,347.448,194.197,503.217l-2.93,1.057l-169.033,39.864c-15.523-52.195-27.531-105.692-41.641-157.54
			c-33.863-124.186-57.914-253.867-103.152-374.823c-48.57-130.413-122.23-253.388-188.395-375.459
			c-44.684-82.415-93.508-167.955-164.063-231.178c-60.217-53.867-133.201-89.421-196.291-139.229
			C8446.354,1614.944,8393.137,1553.052,8332.416,1499.597z" style="stroke:black;fill:#188064"/><path id="180627357" parent_id="180627285" order="13" structure_id="201" d="M8029.309,1728.794
			c-2.98-2.364-5.961-4.728-8.941-7.091c-10.598-8.441-21.277-16.883-31.958-25.325l178.08-291.849
			c57.723,26.4,115.796,50.971,165.928,95.066c60.721,53.455,113.938,115.348,177.61,165.494
			c63.09,49.808,136.074,85.361,196.291,139.229c70.555,63.223,119.379,148.763,164.061,231.178
			c66.164,122.071,139.828,245.046,188.395,375.459c45.238,120.956,69.291,250.638,103.154,374.823
			c14.107,51.848,26.117,105.345,41.639,157.54l-251.793,59.353c-0.9-1.843-1.801-3.687-2.701-5.53
			c-18.074-38.205-18.885-84.841-40.139-122.242c0.871-3.912,2.654-7.148,5.352-10.042
			c-31.166-127.246-79.316-257.905-136.172-376.136c-65.613-136.246-186.02-246.815-285.396-358.521
			c-62.563-70.405-130.606-143.447-200.832-206.251C8209.831,1850.689,8115.164,1796.916,8029.309,1728.794z" style="stroke:black;fill:#188064"/><path id="180627356" parent_id="180627285" order="14" structure_id="1047" d="M8121.854,2007.761
			c-64.264-67.001-145.646-114.145-227.483-157.289l94.039-154.094c10.681,8.442,21.36,16.884,31.958,25.325
			c2.98,2.363,5.961,4.727,8.941,7.091c85.855,68.122,180.522,121.896,262.576,195.154
			c70.226,62.804,138.269,135.846,200.832,206.251c99.375,111.706,219.781,222.275,285.395,358.521
			c56.857,118.229,105.006,248.889,136.172,376.135c-2.697,2.895-4.479,6.131-5.35,10.043
			c21.252,37.401,22.063,84.037,40.137,122.242c0.902,1.844,1.801,3.688,2.701,5.53l-148.721,35.134
			c-13.809-30.492-27.789-60.568-40.439-90.132c-60.475-141.702-151.324-264.089-225.372-399.163
			C8425.223,2344.181,8282.184,2174.676,8121.854,2007.761z" style="stroke:black;fill:#188064"/><path id="180627355" parent_id="180627285" order="15" structure_id="1070" d="M7781.268,2266.382
			c-30.951-25.981-62.242-51.467-93.953-76.539l207.056-339.371c81.838,43.145,163.222,90.287,227.483,157.289
			c160.33,166.915,303.369,336.42,415.387,540.75c74.049,135.074,164.898,257.46,225.373,399.163
			c12.648,29.563,26.629,59.641,40.439,90.133l-345.174,81.412c-49.31-158.029-111.422-320.601-209.939-443.644
			C8119.163,2514.795,7937.678,2397.729,7781.268,2266.382z" style="stroke:black;fill:#188064"/><path id="180627354" parent_id="180627285" order="16" structure_id="1038" d="M7924.098,2900.822
			c-119.25-162.441-250.799-303.229-418.929-412.58l0.001-0.083l182.063-298.317c0.082,0.001,0.082,0.001,0.082,0.001
			c31.711,25.072,63.002,50.558,93.953,76.539c156.41,131.347,337.896,248.413,466.672,409.193
			c98.518,123.042,160.63,285.613,209.939,443.644l-322.938,76.198C8074.613,3091.334,7995.417,2998.001,7924.098,2900.822z" style="stroke:black;fill:#188064"/><path id="180627353" parent_id="180627285" order="17" structure_id="1062" d="M7691.43,2727.136
			c-95.761-88.149-129.019-126.083-218.369-186.313l32.108-52.581c168.129,109.352,299.679,250.138,418.929,412.58
			c71.319,97.179,150.517,190.512,210.844,294.594l-77.662,18.287l-0.504,0.329c-43.291-70.724-86.396-134.938-124.098-196.853
			C7855.3,2890.165,7798.934,2826.158,7691.43,2727.136z" style="stroke:black;fill:#188064"/><path id="180627370" parent_id="180627285" order="18" structure_id="1030" d="M6999.816,916.427
			c-96.916-9.588-191.287-32.831-287.308-49.083l32.685-131.482c96.17,18.088,168.642,37.289,261.727,55.265
			c89.589,17.275,171.921,43.325,256.148,71.727L7231.27,971.24C7158.279,945.195,7082.734,924.715,6999.816,916.427z" style="stroke:black;fill:#188064"/><path id="180627369" parent_id="180627285" order="19" structure_id="113" d="M6712.51,867.344
			c96.021,16.252,190.391,39.495,287.309,49.083c82.916,8.288,158.461,28.769,231.451,54.813l-89.967,306.274
			c-54.307-17.11-105.299-31.771-146.258-40.248c-101.647-21.06-138.588-31-241.854-4.362c-25.168,6.52-39.923,14.388-46.677,22.999
			l-9.612-6.764l-0.166-0.085c-21.867-7.462-46.563-15.619-73.092-24.127L6712.51,867.344z" style="stroke:black;fill:#188064"/><path id="180627368" parent_id="180627285" order="20" structure_id="1094" d="M6706.516,1255.902
			c6.754-8.611,21.508-16.479,46.676-22.999c103.266-26.638,140.205-16.696,241.854,4.362
			c40.959,8.478,91.952,23.138,146.259,40.248l-55.065,187.575c-69.596-32.352-139.945-64.127-215.51-91.363
			C6818.271,1354.88,6674.686,1296.642,6706.516,1255.902z" style="stroke:black;fill:#188064"/><path id="180627367" parent_id="180627285" order="21" structure_id="1128" d="M6985.41,1808.546
			c-156.262-41.092-316.502-66.875-472.098-125.394c-1.08-0.428-2.244-0.855-3.326-1.199l113.658-457.027
			c26.527,8.508,51.225,16.665,73.092,24.127l0.166,0.085l9.611,6.763c-31.83,40.739,111.757,98.979,164.212,117.823
			c75.563,27.236,145.915,59.011,215.51,91.363l-0.001,0.083L6985.41,1808.546z" style="stroke:black;fill:#188064"/><path id="180627366" parent_id="180627285" order="22" structure_id="478" d="M6577.92,2076.714
			c-48.264-12.215-100.307-30.723-153.154-51.989l85.223-342.771c1.081,0.344,2.245,0.771,3.325,1.199
			c155.597,58.519,315.837,84.301,472.099,125.394l-108.237,368.578C6779.925,2131.833,6681.854,2103.05,6577.92,2076.714z" style="stroke:black;fill:#188064"/><path id="180627365" parent_id="180627285" order="23" structure_id="510" d="M6863.038,2225.453
			c-125.479-50.146-252.604-84.957-366.877-120.565c-25.948-8.085-54.212-18.276-84.054-29.235l12.658-50.929
			c52.849,21.268,104.891,39.774,153.153,51.99c103.935,26.336,202.005,55.119,299.253,100.41L6863.038,2225.453z" style="stroke:black;fill:#188064"/><path id="180627364" parent_id="180627285" order="24" structure_id="450" d="M7589.355,1112.992
			c-126.472-42.313-238.789-99.34-358.086-141.753l31.799-108.388c28.021,9.44,56.207,19.131,84.893,28.827
			c156.234,52.771,347.223,73.086,718.686,300.044c55.814,34.142,111.207,68.945,165.754,104.825l-65.911,107.981
			c-35.548-16.184-71.005-33.116-104.407-55.701c-72.605-49.229-136.895-104.637-217.46-141.097
			C7761.979,1170.42,7675.416,1141.746,7589.355,1112.992z" style="stroke:black;fill:#188064"/><path id="180627363" parent_id="180627285" order="25" structure_id="854" d="M7456.031,1382.157
			c-81.094-24.87-204.701-69.909-314.729-104.644l89.967-306.274c119.297,42.413,231.615,99.438,358.086,141.753
			c86.062,28.753,172.622,57.428,255.267,94.741c80.564,36.459,144.854,91.866,217.459,141.096
			c33.402,22.585,68.859,39.519,104.408,55.701l-178.08,291.849C7825.713,1568.061,7658.057,1444.033,7456.031,1382.157z" style="stroke:black;fill:#188064"/><path id="180627362" parent_id="180627285" order="26" structure_id="577" d="M7086.236,1465.089l55.065-187.575
			c110.026,34.734,233.636,79.773,314.729,104.644c202.023,61.876,369.682,185.902,532.377,314.221l-94.039,154.094
			c-15.271-8.067-30.545-15.969-45.734-23.87c-74.292-38.4-136.195-81.44-213.593-126.629
			c-74.411-43.406-154.028-74.269-236.929-102.158c-111.086-37.332-210.643-85.646-311.879-132.644L7086.236,1465.089z" style="stroke:black;fill:#188064"/><path id="180627361" parent_id="180627285" order="27" structure_id="625" d="M7260.467,1909.646
			c-89.066-46.132-181.368-76.362-275.057-101.101l100.824-343.374c101.236,46.997,200.793,95.313,311.879,132.643
			c82.898,27.891,162.518,58.752,236.929,102.159c77.397,45.188,139.301,88.229,213.593,126.629
			c15.189,7.9,30.463,15.802,45.734,23.87l-207.056,339.371c0,0,0,0-0.083-0.001
			C7553.35,2084.316,7411.953,1988.229,7260.467,1909.646z" style="stroke:black;fill:#188064"/><path id="180627360" parent_id="180627285" order="28" structure_id="945" d="M6877.173,2177.124l108.237-368.578
			c93.688,24.738,185.99,54.968,275.057,101.101c151.486,78.582,292.882,174.67,426.766,280.195l-182.063,298.317
			c-13.1-8.548-26.532-16.933-40.135-25.068c-183.389-109.996-383.92-188.623-576.484-280.688
			C6884.73,2180.615,6880.994,2178.829,6877.173,2177.124z" style="stroke:black;fill:#188064"/><path id="180627359" parent_id="180627285" order="29" structure_id="1026" d="M7437.083,2517.212
			c-181.5-115.565-354.903-196.19-518.961-268.635c-18.272-8.097-36.636-15.777-55.084-23.124l14.135-48.329
			c3.821,1.705,7.558,3.491,11.378,5.278c192.564,92.066,393.098,170.693,576.484,280.688c13.603,8.136,27.035,16.521,40.135,25.068
			l-0.002,0.083l-32.107,52.581C7462.038,2533.296,7450.102,2525.509,7437.083,2517.212z" style="stroke:black;fill:#188064"/><path id="180627352" parent_id="180627285" order="30" structure_id="873" d="M9375.531,2902.398
			c78.717,214.942,135.537,416.75,139.145,644.832c2.82,178.694-26.146,340.407-70.742,496.885l-142.746-14.69
			c40.742-110.221,73.172-223.521,91.035-339.963c34.313-224.805-58.98-441.887-150.688-641.771
			c-15.363-33.51-27.461-68.656-37.969-104.373l169.033-39.863L9375.531,2902.398z" style="stroke:black;fill:#188064"/><path id="180627351" parent_id="180627285" order="31" structure_id="806" d="M9026.996,3136.755
			c-22.674-45.673-52.963-88.749-75.225-134.084l251.795-59.353c10.508,35.716,22.605,70.862,37.971,104.371
			c91.705,199.885,185,416.967,150.686,641.771c-17.861,116.441-50.293,229.743-91.035,339.963l-145.246-14.798
			C9211.203,3700.018,9167.791,3420.681,9026.996,3136.755z" style="stroke:black;fill:#188064"/><path id="180627350" parent_id="180627285" order="32" structure_id="1035" d="M9155.941,4014.627l-172.414-17.639
			c5.73-59.085,5.545-119.228,7.023-178.603c2.654-104.739-37.391-210.133-60.213-311.108
			c-21.697-96.211-33.84-197.504-58.973-292.246c-15.705-59.537-41.752-119.006-68.314-177.227l148.721-35.134
			c22.262,45.335,52.551,88.411,75.225,134.084C9167.791,3420.681,9211.203,3700.018,9155.941,4014.627z" style="stroke:black;fill:#188064"/><path id="180627349" parent_id="180627285" order="33" structure_id="1090" d="M8457.878,3119.217l345.173-81.412
			c26.563,58.221,52.609,117.689,68.314,177.227c25.133,94.742,37.275,196.035,58.973,292.246
			c22.822,100.977,62.867,206.369,60.213,311.109c-1.477,59.375-1.293,119.517-7.023,178.602l-338.074-34.63
			c-22.535-228.761-74.69-456.549-136.084-668.826C8493.213,3237.661,8476.418,3178.781,8457.878,3119.217z" style="stroke:black;fill:#188064"/><path id="180627348" parent_id="180627285" order="34" structure_id="862" d="M8173.201,3268.929
			c-11.523-25.216-24.391-49.608-38.262-73.513l322.938-76.199c18.54,59.563,35.335,118.443,51.491,174.315
			c61.394,212.276,113.549,440.064,136.084,668.825l-175.412-18c-12.299-31.479-26.688-62.311-40.576-93.304
			C8342.304,3655.717,8262.293,3462.866,8173.201,3268.929z" style="stroke:black;fill:#188064"/><path id="180627347" parent_id="180627285" order="35" structure_id="893" d="M8150.282,3381.986
			c-29.874-60.588-61.716-116.023-93.507-167.955l0.503-0.329l77.662-18.287c13.871,23.903,26.737,48.297,38.261,73.513
			c89.093,193.938,169.104,386.788,256.265,582.125c13.888,30.993,28.277,61.824,40.576,93.303l-94.831-9.65
			c-4.402-19.728-9.39-39.292-14.796-58.611C8327.737,3758.76,8243.506,3571.292,8150.282,3381.986z" style="stroke:black;fill:#188064"/><path id="180627340" parent_id="180627285" order="36" structure_id="36" d="M9142.871,4853.126l-197.758-62.92
			c23.754-42.399,33.902-92.769,46.254-137.694c9.934-36.106,27.15-66.307,46.688-94.899l196.063,57.315l4.82,1.797
			c-1.199,3.326-2.398,6.65-3.598,9.977c-27.828,76.477-58.07,152.348-90.555,227.277L9142.871,4853.126z" style="stroke:black;fill:#009c75"/><path id="180627339" parent_id="180627285" order="37" structure_id="180" d="M9038.055,4557.611
			c-19.537,28.594-36.754,58.793-46.688,94.899c-12.352,44.926-22.502,95.295-46.256,137.694l-184.289-58.539
			c37.139-46.361,74.885-113.068,87.326-167.67l6.25-8.283c3.961,4.709,8.678,8.59,14.322,11.563
			c23.986,12.737,42.225-10.696,56.787-42.589L9038.055,4557.611z" style="stroke:black;fill:#009c75"/><path id="180627338" parent_id="180627285" order="38" structure_id="148" d="M8925.508,4524.688
			c-14.563,31.894-32.801,55.328-56.785,42.59c-5.645-2.974-10.363-6.854-14.322-11.563c-11.135-13.283-16.039-32.933-16.316-56.623
			L8925.508,4524.688z" style="stroke:black;fill:#009c75"/><path id="180627337" parent_id="180627285" order="39" structure_id="187" d="M8642.605,4441.865l195.479,57.227
			c0.277,23.691,5.182,43.34,16.316,56.623l-6.252,8.283c-12.441,54.602-50.188,121.309-87.324,167.67l-192.023-61.114
			c11.237-24.084,17.321-50.135,18.996-77.396c29.965-37.502,46.652-91.229,53.1-138.129
			C8641.521,4450.695,8642.063,4446.281,8642.605,4441.865z" style="stroke:black;fill:#009c75"/><path id="180627336" parent_id="180627285" order="40" structure_id="638" d="M8642.605,4441.865c-0.543,4.416-1.084,8.831-1.709,13.163
			c-6.447,46.899-23.135,100.627-53.1,138.13c1.459-22.09,0.007-45.042-3.942-68.518c-6.318-37.68-17.404-73.9-31.669-109.151
			L8642.605,4441.865z" style="stroke:black;fill:#009c75"/><path id="180627346" parent_id="180627285" order="41" structure_id="897" d="M9443.934,4044.115
			c-54.686,191.498-132.82,375.103-204.914,572.609h-0.082l-4.822-1.799l-196.061-57.314c23.26-34.146,49.836-66.093,71.289-103.259
			c43.498-75.162,78.992-159.49,114.854-238.728c27.602-61.131,53.709-123.193,76.99-186.2L9443.934,4044.115z" style="stroke:black;fill:#11ad83"/><path id="180627345" parent_id="180627285" order="42" structure_id="1106" d="M9038.055,4557.611l-112.547-32.924
			c16.098-35.131,27.783-80.396,37.883-98.652c35.129-63.479,107.898-146.872,132.734-215.62
			c27.32-75.563,43.895-108.354,58.234-187.211c0.527-2.831,1.055-5.746,1.582-8.577l145.246,14.799
			c-23.281,63.007-49.389,125.068-76.99,186.199c-35.861,79.237-71.355,163.565-114.854,238.729
			C9087.891,4491.52,9061.314,4523.465,9038.055,4557.611z" style="stroke:black;fill:#11ad83"/><path id="180627344" parent_id="180627285" order="43" structure_id="1010" d="M8983.527,3996.988l172.414,17.639
			c-0.527,2.831-1.055,5.746-1.582,8.577c-14.34,78.854-30.914,111.647-58.234,187.211
			c-24.836,68.748-97.605,152.142-132.734,215.62c-10.1,18.256-21.785,63.521-37.883,98.652l-87.424-25.597
			c-1.635-109.869,94.471-306.399,112.508-352.688C8969.229,4098.199,8978.629,4047.99,8983.527,3996.988z" style="stroke:black;fill:#11ad83"/><path id="180627343" parent_id="180627285" order="44" structure_id="1058" d="M8642.605,4441.865
			c20.246-157.04,18.932-318.538,2.848-479.507l338.074,34.63c-4.898,51.002-14.297,101.211-32.936,149.414
			c-18.037,46.289-114.143,242.819-112.508,352.688L8642.605,4441.865z" style="stroke:black;fill:#11ad83"/><path id="180627342" parent_id="180627285" order="45" structure_id="857" d="M8401.93,4117.713
			c73.055,54.57,112.793,24.417,97.351-71.818c-5.673-35.337-16.368-68.802-29.239-101.537l175.412,18.001
			c16.084,160.97,17.398,322.468-2.848,479.507l-90.42-26.375c-38.795-96.539-101.019-185.291-152.314-274.107l0.001-0.083
			c-0.262-7.677-0.604-15.521-0.947-23.448L8401.93,4117.713z" style="stroke:black;fill:#11ad83"/><path id="180627341" parent_id="180627285" order="46" structure_id="849" d="M8499.28,4045.895
			c15.442,96.235-24.296,126.391-97.351,71.818l-3.005,0.139c-0.195-5.758-0.475-11.6-0.669-17.522
			c-2.146-55.572-10.631-111.121-23.046-165.622l94.831,9.65C8482.912,3977.093,8493.607,4010.559,8499.28,4045.895z" style="stroke:black;fill:#11ad83"/><path id="180627385" parent_id="180627285" order="47" structure_id="935" d="M5126.198,1503.598l0.001-0.083l5.2-552.137
			c50.106-15.209,114.929-69.484,182.174-124.319l2.476,3.026l59.526,118.088c-17.343,17.021-33.362,35.219-47.726,54.687
			c-123.358,167.496-81.056,396.275-77.477,591.826L5126.198,1503.598z" style="stroke:black;fill:#40a666"/><path id="180627384" parent_id="180627285" order="48" structure_id="211" d="M5250.374,1594.686
			c-3.579-195.551-45.883-424.33,77.476-591.826c14.363-19.467,30.383-37.666,47.727-54.687l133.96,265.677
			c-49.638,71.601-59.161,170.604-68.49,257.766c-9.237,86.328-7.133,172.846-5.028,259.363L5250.374,1594.686z" style="stroke:black;fill:#40a666"/><path id="180627383" parent_id="180627285" order="49" structure_id="1015" d="M5436.018,1730.979
			c-2.104-86.519-4.209-173.035,5.027-259.363c9.329-87.161,18.854-186.165,68.49-257.766l185.792,368.346
			c-31.187,69.771-37.706,159.795-39.92,226.587c-0.929,27.767-0.604,55.379-0.28,82.991L5436.018,1730.979z" style="stroke:black;fill:#40a666"/><path id="180627382" parent_id="180627285" order="50" structure_id="919" d="M5655.126,1891.773
			c-0.324-27.612-0.647-55.226,0.28-82.992c2.215-66.792,8.733-156.815,39.92-226.587l171.543,340.184
			c-15.834,25.125-28.314,57.288-39.854,95.632l-171.893-126.152C5655.209,1891.774,5655.126,1891.773,5655.126,1891.773z" style="stroke:black;fill:#40a666"/><path id="180627381" parent_id="180627285" order="51" structure_id="927" d="M5827.018,2018.01
			c11.537-38.344,24.02-70.507,39.854-95.632l55.023,109.204c-10.109,10.748-18.983,23.009-28.037,36.688l-10.924-9.277
			l-0.166-0.085L5827.018,2018.01z" style="stroke:black;fill:#40a666"/><path id="180627390" parent_id="180627285" order="52" structure_id="588" d="M5117.495,2427.635l8.703-924.037l124.176,91.088
			c0.112,5.757,0.226,11.597,0.254,17.352c0.586,97.18,2.587,203.549-18.077,298.695c-33.133,152.498-10.441,284.919,11.166,435.097
			c3.838,26.478,3.527,59.339,15.572,82.474l0.117,5.09C5181.316,2435.243,5117.495,2427.635,5117.495,2427.635z M5231.672,2411.361
			c31.59-32.9-62.563-35.039-97.254-9.258C5089.227,2435.71,5209.604,2434.258,5231.672,2411.361z" style="stroke:black;fill:#40a666"/><path id="180627389" parent_id="180627285" order="53" structure_id="296" d="M5250.374,1594.686l185.644,136.293
			c1.752,70.666,3.424,141.248-0.994,211.688c-9.998,158.305-46.429,315.526-46.34,474.344l0.558,2.841
			c-8.106,1.759-16.213,3.352-24.231,4.609c-35.17,5.674-71.729,8.166-105.602,8.932l-0.118-5.089
			c-12.044-23.135-11.733-55.997-15.571-82.474c-21.607-150.179-44.299-282.6-11.166-435.098
			c20.664-95.146,18.662-201.515,18.076-298.695C5250.6,1606.282,5250.486,1600.442,5250.374,1594.686z" style="stroke:black;fill:#40a666"/><path id="180627388" parent_id="180627285" order="54" structure_id="772" d="M5539.376,2367.298
			c-46.831,21.663-98.815,41.443-150.136,52.554l-0.558-2.841c-0.089-158.816,36.341-316.039,46.34-474.344
			c4.417-70.441,2.746-141.022,0.993-211.688l219.109,160.796c0,0,0.082,0.001-0.002,0.083
			c0.903,63.484,1.895,126.637-11.467,190.32c-20.697,98.565-67.183,189.713-105.754,282.021L5539.376,2367.298z" style="stroke:black;fill:#40a666"/><path id="180627387" parent_id="180627285" order="55" structure_id="810" d="M5655.125,1891.857l171.893,126.152
			c-16.192,54.232-30.25,120.829-48.406,197.73c-20.951,19.32-45.997,39.354-76.302,59.921
			c-23.002,15.548-86.026,56.159-162.933,91.636l-1.473-3.1c38.57-92.308,85.057-183.455,105.753-282.021
			C5657.02,2018.494,5656.027,1955.342,5655.125,1891.857z" style="stroke:black;fill:#40a666"/><path id="180627386" parent_id="180627285" order="56" structure_id="819" d="M5893.855,2068.27
			c-26.063,39.459-53.316,90.416-115.246,147.472c18.158-76.902,32.215-143.499,48.406-197.73l55.751,40.896l0.166,0.085
			L5893.855,2068.27z" style="stroke:black;fill:#40a666"/><path id="180627335" parent_id="180627285" order="57" structure_id="120" d="M8857.16,4962.373c-18.604-8.684-37.203-17.783-55.801-26.8
			l4.422-9.134c9.609-45.953,69.379-59.902,100.922-87.716c15.98-14.112,28.398-30.595,38.41-48.519l197.758,62.92l1.912,0.853
			c-39.053,90.385-81.35,179.487-126.301,267.313c5.342-18.135,5.432-36.566-6.758-52.947
			C8973.504,5017.02,8913.879,4989.016,8857.16,4962.373z" style="stroke:black;fill:#219866"/><path id="180627334" parent_id="180627285" order="58" structure_id="163" d="M8801.359,4935.573
			c-50.156-23.994-100.818-47.16-154.668-59.679l1.133-5.16c-2.48-46.567,25.848-69.822,59.289-95.699
			c14.871-11.371,33.801-19.617,46.115-34.099c2.529-2.979,5.064-6.125,7.596-9.271l184.289,58.539
			c-10.012,17.922-22.43,34.403-38.41,48.518c-31.543,27.813-91.313,41.764-100.922,87.716L8801.359,4935.573z" style="stroke:black;fill:#219866"/><path id="180627333" parent_id="180627285" order="59" structure_id="344" d="M8360.601,4617.877
			c-9.972,49.119-19.267,97.243-35.319,145.555c14.923,0.809,28.647,4.94,42.121,9.071c16.137,4.823,32.106,9.646,50.047,8.896
			c36.381-1.492,69.059-17.033,96.72-40.295c24.72-20.869,42.627-44.641,54.632-70.552l192.023,61.114
			c-2.533,3.146-5.066,6.291-7.596,9.271c-12.314,14.479-31.244,22.728-46.115,34.099c-33.441,25.877-61.77,49.131-59.289,95.699
			l-1.133,5.16c-16.563-3.91-33.467-6.821-50.635-8.4c-13.251-1.209-23.008-1.468-30.202,0.8l-15.354-6.044l-42.827-15.939
			c-18.472-7.576-47.294-17.713-64.833-24.217c-10.64-3.938-116.733-39.97-129.131-25.572
			C8334.174,4731.484,8349.179,4670.402,8360.601,4617.877z" style="stroke:black;fill:#219866"/><path id="180627289" parent_id="180627285" order="60" structure_id="698" d="M9011.725,5068.344
			c-38.221-51.324-97.846-79.328-154.564-105.971c-11.961-5.582-23.918-11.342-35.875-17.137
			c-6.643-3.219-13.285-6.443-19.926-9.664c-42.283-20.229-84.926-39.867-129.537-53.033c-8.305-2.451-16.678-4.68-25.131-6.645
			c-16.563-3.91-33.467-6.822-50.635-8.4c-13.251-1.209-23.008-1.469-30.202,0.799c-11.711,3.478-16.559,13.356-17.931,35.114
			c-3.071,51.521-7.735,95.101-23.888,145.078c-29.038,89.646-67.611,164.437-144.221,221.519
			c-63.674,47.611-138.896,81.437-215.812,100.063c-64.875,15.738-146.058,26.984-190.207,82.788
			c-46.094,58.371-86.696,153.912-130.731,215.224c-47.585,66.28-87.673,115.867-142.541,176.156
			c-41.722,45.9-112.056,29.975-113.551,73.752c-2.629,75.379-12.635,190.144-11.842,274.229
			c0.112,12.154,0.351,24.391,0.729,36.682c1.344,43.612,4.498,87.936,10.375,131.969c12.006,89.957,35.369,178.701,77.883,257.672
			c2.084,0.187,4.168,0.457,6.25,0.727c10.164,1.348,20.242,2.943,30.401,4.624c13.824,2.299,27.733,4.515,42.233,5.819
			c2.002,0.186,4.002,0.371,6.086,0.475c2.75,0.191,5.584,0.387,8.42,0.496c2.834,0.109,5.67,0.221,8.588,0.248
			c30.693,0.289,64.775-5.063,105.904-23.525c149.773-67.32,266.932-178.489,375.891-305.084
			c118.659-137.846,207.657-296.99,314.815-444.871c82.481-113.748,162.651-229.937,236.263-349.689
			c10.504-17.084,21.008-34.167,31.43-51.336c26.516-43.374,52.783-86.918,78.303-130.803
			c28.32-48.695,55.566-98.903,82.891-148.275c9.166-16.68,21.111-36.252,26.887-56.05
			C9023.824,5103.157,9023.914,5084.725,9011.725,5068.344z" style="stroke:black;fill:#9ad2bd"/><path id="180627332" parent_id="180627285" order="61" structure_id="276" d="M9011.725,5068.344
			c-38.221-51.324-97.846-79.328-154.564-105.971c-11.961-5.582-23.918-11.342-35.875-17.137
			c17.035,46.85,25.396,99.946,21.891,129.513c-5.961,50.302-39.389,104.562-62.768,148.366
			c-25.957,48.691-76.41,83.941-105.213,133.734c-37.5,64.804-74.422,129.985-109.643,196.058
			c-32.174,60.367-76.289,100.26-124.484,147.001c-50.672,49.133-100.432,99.137-151.275,148.014
			c-44.188,42.478-79.61,92.701-128.688,130.69c-58.084,44.962-125.471,75.849-184.482,119.446
			c-30.766,22.722-53.962,48.867-79.238,77.024c-27.563,30.726-63.336,50.483-100.164,70.226
			c-60.416,32.412-121.106,93.717-186.672,113.268c-9.539,2.844-17.57,3.439-24.312,2.289
			c12.006,89.957,35.369,178.701,77.883,257.672c2.084,0.188,4.167,0.457,6.249,0.727c10.164,1.348,20.242,2.943,30.402,4.625
			c13.824,2.299,27.732,4.515,42.233,5.818c2.001,0.186,4.001,0.371,6.085,0.475c2.751,0.192,5.585,0.387,8.42,0.496
			c2.835,0.11,5.67,0.221,8.589,0.248c30.692,0.289,64.774-5.063,105.903-23.525c149.774-67.32,266.932-178.488,375.892-305.083
			c118.659-137.847,207.657-296.991,314.815-444.872c82.482-113.748,162.65-229.936,236.264-349.689
			c10.504-17.084,21.008-34.166,31.43-51.336c26.516-43.373,52.783-86.918,78.303-130.803
			c28.318-48.695,55.566-98.902,82.891-148.275c9.166-16.68,21.111-36.252,26.885-56.049
			C9023.824,5103.157,9023.914,5084.725,9011.725,5068.344z" style="stroke:black;fill:#6acbba"/><path id="180627331" parent_id="180627285" order="62" structure_id="284" d="M7610.548,6358.576
			c65.565-19.551,126.256-80.855,186.673-113.268c36.827-19.74,72.602-39.5,100.164-70.226
			c25.275-28.158,48.475-54.304,79.238-77.024c59.013-43.599,126.398-74.484,184.482-119.446
			c49.076-37.99,84.499-88.214,128.687-130.69c50.844-48.877,100.604-98.881,151.275-148.014
			c48.195-46.741,92.311-86.634,124.484-147.001c35.222-66.071,72.144-131.254,109.644-196.058
			c28.801-49.793,79.254-85.043,105.211-133.734c23.379-43.807,56.809-98.064,62.77-148.366
			c3.504-29.565-4.857-82.663-21.893-129.513c-6.643-3.219-13.283-6.443-19.924-9.664c-42.285-20.229-84.928-39.867-129.539-53.033
			c-13.688,17.681-22.551,40.151-24.371,61.179c-5.031,58.062,28.176,113.651,16.574,172.206
			c-15.662,79.055-69.773,135.421-124.944,190.652c-105.922,106.056-221.193,210.688-340.392,302.179
			c-174.65,134.043-379.945,192.741-484.001,407.077c-26.339,54.238-63.592,113.363-99.78,159.457
			c-14.158,18.033-28.103,35.238-39.045,53.607c1.344,43.612,4.498,87.936,10.375,131.969
			C7592.979,6362.016,7601.01,6361.42,7610.548,6358.576z" style="stroke:black;fill:#6acbba"/><path id="180627330" parent_id="180627285" order="63" structure_id="291" d="M7714.688,6015.832
			c104.057-214.336,309.352-273.034,484.002-407.077c119.198-91.489,234.47-196.123,340.392-302.179
			c55.169-55.231,109.282-111.6,124.944-190.652c11.6-58.555-21.604-114.146-16.576-172.206
			c1.822-21.026,10.688-43.498,24.375-61.179c-8.305-2.451-16.68-4.68-25.133-6.645c-16.561-3.91-33.465-6.822-50.633-8.4
			c-13.252-1.209-23.009-1.469-30.203,0.799c-11.711,3.478-16.559,13.356-17.931,35.114c-3.071,51.521-7.735,95.101-23.888,145.078
			c-29.038,89.646-67.611,164.437-144.221,221.519c-63.674,47.611-138.896,81.437-215.811,100.063
			c-64.877,15.738-146.059,26.984-190.209,82.788c-46.092,58.371-86.695,153.912-130.73,215.224
			c-47.585,66.28-87.673,115.867-142.541,176.156c-41.723,45.9-112.055,29.975-113.551,73.752
			c-2.629,75.379-12.635,190.144-11.842,274.229c0.111,12.154,0.352,24.391,0.729,36.682c10.943-18.369,24.888-35.574,39.045-53.607
			C7651.096,6129.195,7688.35,6070.07,7714.688,6015.832z" style="stroke:black;fill:#6acbba"/><path id="180627329" parent_id="180627285" order="64" structure_id="19" d="M5231.672,2411.361
			c-22.068,22.896-142.445,24.349-97.254-9.258C5169.109,2376.322,5263.262,2378.46,5231.672,2411.361z" style="stroke:black;fill:#7ed04b"/><path id="180627328" parent_id="180627285" order="65" structure_id="583" d="M8325.281,4763.432
			c16.053-48.312,25.348-96.436,35.319-145.555c0.436-1.914,0.787-3.829,1.222-5.66c2.445-11.654,4.803-22.895,6.992-33.966
			c0.435-1.831,0.786-3.747,1.137-5.578c11.78-55.106,20.484-111.412,25.854-167.748c0.447-3.249,0.729-6.583,0.927-9.834
			c0.171-0.415,0.174-0.749,0.094-1.167c0.558-6.083,1.115-12.084,1.588-18.002c0.095-1.25,0.19-2.5,0.285-3.751
			c0.761-9.918,1.437-19.671,1.944-29.259c0.001-0.083,0.002-0.25,0.003-0.334c0.096-1.25,0.107-2.501,0.202-3.751
			c0.29-4.168,0.412-8.338,0.618-12.506c0.018-1.835,0.118-3.669,0.219-5.504c0.2-3.584,0.317-7.17,0.352-10.757
			c1.869-56.785,0.118-109.936-2.165-168.68c51.296,88.816,113.52,177.568,152.314,274.107
			c14.265,35.251,25.351,71.473,31.669,109.15c3.949,23.477,5.401,46.429,3.942,68.519c-1.675,27.26-7.759,53.312-18.996,77.396
			c-12.005,25.91-29.912,49.682-54.632,70.552c-27.661,23.263-60.339,38.802-96.72,40.295c-17.94,0.748-33.91-4.073-50.047-8.896
			C8353.929,4768.372,8340.204,4764.238,8325.281,4763.432z" style="stroke:black;fill:#8ada87"/><path id="180627327" parent_id="180627285" order="66" structure_id="952" d="M8139.188,5187.225
			c-52.276,72.834-131.889,144.144-198.793,201.563c20.549,9.344,59.965,9.111,105.449-2.275
			c134.014-33.57,248.071-60.992,352.689-142.314c82.528-64.15,134.195-197.246,144.384-298.619
			c2.64-26.354,15.063-80.018-12.397-90.693c-13.529-5.26-54.738-21.524-72.274-28.004c-5.484-2.023-36.604-13.369-66.975-21.088
			c-31.186-7.924-59.474-16.846-61.979-7.168C8293.809,4935.93,8222.058,5071.768,8139.188,5187.225z" style="stroke:black;fill:#a0ee9d"/><path id="180627326" parent_id="180627285" order="67" structure_id="966" d="M7835.254,5657.861
			c54.802-77.015,154.736-257.139,86.552-237.275c-60.487,17.618-125.755,79.921-164.079,115.695
			c-56.251,52.502-107.307,116.281-129.299,190.815c-8.666,29.38-29.053,85.153-9.684,113.476
			c15.615,22.856,57.93,21.244,76.703-0.59C7745.402,5781.902,7790.869,5720.238,7835.254,5657.861z" style="stroke:black;fill:#a0ee9d"/><path id="180627301" parent_id="180627285" order="68" structure_id="672" d="M6120.816,2318.219
			c145.319-52.154,105.742-8.734,84.155,68.221c-20.396,72.75-91.676,214.616-149.312,355.877
			c-57.285,140.433-64.918,292.343-58.711,441.368c1.85,44.485,9.692,90.522,12.227,135.759
			c3.682,65.586,2.158,130.101,0.146,195.938c-0.863,28.96-0.041,58.027-0.692,87.017c-3.729,166.529,29.771,223.547-12.747,321.019
			c0,0,133.354-64.092,199.846-38.438c49.019,18.908,78.431,64.936,100.627,109.993c17.846,36.231,32.783,80.559,57.848,112.536
			c66.596,84.959,10.841,180.427,7.079,273.934c-1.198,29.549-1.271,59.584,1.14,89.078c2.803,34.553,1.238,69.533,2.68,104.197
			c3.396,82.048-1.661,176.534,7.454,241.966c6.196,44.44,92.556,62.034,140.931,90.995c51.9,31.066,107.437,58.621,161.098,86.645
			c37.15,19.402,74.098,39.351,110.703,59.799c144.277,80.564,250.076,173.625,398.753,245.654
			c65.78,31.875,133.142,60.279,199.218,92.083c37.289,17.942,77.063,34.815,116.338,47.894
			c222.596,74.113,431.122-61.731,574.928-221.263c96.059-106.554,163.492-243.011,231.148-408.625
			c34.363-84.104,68.55-227.457,84.662-353.701c16.934-132.562,14.905-246.302,14.905-254.267
			c-0.04-64.211-14.923-139.485-27.287-202.53c-27.849-142.063-74.513-249.038-129.966-370.302
			c-89.582-195.898-160.585-313.711-254.313-452.832c-90.487-134.313-154.289-224.584-320.201-376.668
			c-146.744-134.52-503.117-327.574-670.658-398.662c-137.412-58.305-353.263-117.948-526.992-135.64
			c-106.59-10.854-212.928,10.446-279.304,28.015" style="stroke:black;fill:#98d6f9"/><path id="180627302" parent_id="180627285" order="69" structure_id="998" d="M7487.971,5502.816
			c-148.041-1.394-185.582-1.748-283.422-19.35c-164.364-39.086-342.485-167.964-297.361-88.296
			c91.448,102.632,130.938,198.771,204.863,315.411c67.809,106.992,99.248,126.838,163.563,198.953
			c27.507,30.846,74.448,66.339,109.05,81.661c41.934,18.565,82.626,6.897,146.844-18.78c80.24-32.07,36.189-78.898,50.818-166.058
			c8.928-53.229,21.485-107.343,48.139-156.228c25.625-47.015,67.004-88.687,105.434-124.121
			C7735.898,5526.012,7565.236,5491.034,7487.971,5502.816z" style="stroke:black;fill:#80cdf8"/><path id="180627325" parent_id="180627285" order="70" structure_id="481" d="M6714.34,6837.188
			c-73.961-3.612-152.635-62.336-150.104-139.748c1.197-36.467,63.104-187.873,120.901-146.719
			c56.455,40.324-40.67,155.633,12.192,209.934C6718.158,6782.051,6801.006,6841.428,6714.34,6837.188z" style="stroke:black;fill:#80cdf8"/><path id="180627324" parent_id="180627285" order="71" structure_id="458" d="M7656.921,6605.441
			c-21.007-31.01-57.497-134.943-63.028-171.586c-5.147-34.057-9.664-60.821-13.453-84.401
			c-33.192,71.071-116.147,129.878-161.498,183.88c-59.983,71.459-107.242,150.232-181.819,208.725
			c-54.858,43.035-132.565,72.221-200.528,85.48c-92.947,18.145-206.086,23.912-302.772,9.314
			c-5.229,0.578-11.661,0.715-19.479,0.332c-73.961-3.611-152.635-62.334-150.103-139.746c0.13-3.961,0.978-9.277,2.456-15.556
			c-8.754-33.214-11.521-68.949-2.174-99.044c0.459-1.479,0.938-2.88,1.43-4.244c-68.371,46.766-118.213,106.378-96.334,176.783
			c9.351,30.098,48.861,52.712,74.178,68.212c13.236,8.104,24.771,18.349,37.859,26.612c15.551,9.81,58.679,37.104,64.765,40.83
			c76.483,46.864,141.166,74.795,247.991,82.578c92.302,6.715,241.801-26.086,330.111-67.789
			c129.869-61.338,200.058-188.125,315.207-255.606c56.92-33.364,80.246-30.582,121.25-32.979L7656.921,6605.441z" style="stroke:black;fill:#80cdf8"/><path id="180627323" parent_id="180627285" order="72" structure_id="465" d="M6566.693,6681.885
			c12.139-51.525,66.922-167.85,118.444-131.164c56.455,40.324-40.67,155.633,12.192,209.934
			c18.947,19.467,89.226,70.367,36.487,76.199c96.688,14.599,209.825,8.83,302.772-9.313
			c67.963-13.261,145.67-42.444,200.528-85.479c74.578-58.492,121.836-137.267,181.819-208.726
			c45.351-54.002,128.306-112.81,161.498-183.88c-7.248-45.117-11.832-78.561-13.06-128.959c-4.694-0.436-10.149,0.542-16.487,3.314
			c-31.146,13.627-42.914,55.367-63.744,79.449c-32.662,37.767-67.541,74.166-103.551,108.744
			c-53.002,50.883-100.113,105.631-147.895,161.508c-44.652,52.217-84.288,98.484-154.346,114.101
			c-48.129,10.729-92.309,3.418-140.344-0.026c-45.969-3.299-92.111-0.526-135.527-19.1
			c-76.894-32.893-44.156-116.338-93.688-162.223c-0.914-0.847-1.822-1.633-2.729-2.388
			c-45.709,19.019-98.381,44.118-143.123,74.722c-0.49,1.363-0.971,2.765-1.43,4.244
			C6555.172,6612.936,6557.939,6648.671,6566.693,6681.885z" style="stroke:black;fill:#80cdf8"/><path id="180627322" parent_id="180627285" order="73" structure_id="473" d="M6805.486,6668.484
			c43.416,18.572,89.56,15.801,135.527,19.1c48.035,3.445,92.214,10.758,140.344,0.027
			c70.057-15.615,109.691-61.885,154.346-114.101c47.779-55.877,94.893-110.626,147.895-161.509
			c36.01-34.577,70.889-70.979,103.551-108.744c20.829-24.081,32.6-65.82,63.744-79.449c6.338-2.771,11.792-3.75,16.486-3.314
			c-0.334-13.709-0.422-28.668-0.244-45.467c0.342-32.662,5.254-102.285,9.676-141.709c5.58-49.799-30.006-41.613-69.91-31.248
			c-25.193,6.554-56.139,17.957-66.938,21.617c-35.352,12.002-49.477,67.483-74.637,102.172
			c-42.069,57.998-83.603,113.461-120.225,144.149c-64.895,54.342-139.667,108.549-218.896,138.714
			c-77.737,29.592-161.521,37.525-239.69,65.488c-19.839,7.096-47.106,17.041-77.442,29.664c0.905,0.754,1.813,1.541,2.729,2.388
			C6761.33,6552.146,6728.594,6635.593,6805.486,6668.484z" style="stroke:black;fill:#80cdf8"/><path id="180627309" parent_id="180627285" order="74" structure_id="250" d="M5956.402,3385.179
			c-11.705-150.929-26.953-295.479-79.457-440.347c-30.072-82.943-94.313-164.372-147.666-236.181
			c-34.324-46.196-154.752-163.374-154.752-163.374c-15.451,4.772-31.1,9.501-46.812,14.115
			c-196.033,57.629-394.519,53.738-394.795,65.297l10.517-2.896c71.824,80.834,77.178,146.009,145.166,234.233
			c22.881,29.705,61.242,59.992,95.896,91.973c13.147,12.134,25.39,25.601,37,38.5c25.121,27.91,63.765,91.719,87.825,123.926
			c65.902,88.201,120.184,148.379,198.32,214.087c70.822,59.534,177.779,64.837,250.662,119.838L5956.402,3385.179z" style="stroke:black;fill:#90cbed"/><path id="180627306" parent_id="180627285" order="75" structure_id="258" d="M5941.521,3888.686
			c-11.533-122.177-184.328-56.225-245.306-27.166c-36.628,17.465-73.28,38.056-104.536,64.36
			c-25.592,21.544-47.585,46.92-62.963,77.561c-20.402,40.612-50.716,86.46-60.184,133.87c-0.474,2.369-4.785,24.689-0.602,33.576
			c0.646,1.373,2.794,8.365,4.834,12.474c3.872,7.795,6.689,12.013-6.561-4.442l-9.94-12.426
			c22.049-126.703,108.918-249.348,116.94-376.882c6.402-101.637-47.006-204.932-91.472-292.717
			c-63.379-125.181-138.315-246.603-227.091-355.469c-35.262-43.243-73.74-95.785-124.238-122.177l2.516-394.558l10.516-2.896
			c71.826,80.834,110.801,203.176,188.531,278.435c41.329,40.005,74.383,73.682,117.699,124.139
			c25.738,29.999,52.04,82.796,78.17,113.343c70.132,81.985,101.67,121.096,179.809,186.804
			c70.822,59.534,177.779,64.837,250.662,119.838l6.801,56.146c10.15,130.231,27.549,174.041,0.914,346.174
			c-4.064,26.207-15.916,65.188-31.597,106.746L5941.521,3888.686z" style="stroke:black;fill:#90cbed"/><path id="180627307" parent_id="180627285" order="76" structure_id="266" d="M5591.682,3925.88c-25.592,21.544-47.586,46.92-62.963,77.56
			c-21.765,43.321-54.801,92.598-61.789,143.375c-4.457,32.311,12.525,45.723,29.265,71.037
			c29.584,44.76,77.226,27.486,120.624,13.75c46.977-14.869,89.158-37.338,130.928-63.024c19.867-12.222,39.832-26.317,57.53-41.313
			c53.336-45.16,143.292-164.055,136.246-238.578c-11.533-122.177-184.328-56.225-245.306-27.166
			C5659.589,3878.982,5622.936,3899.574,5591.682,3925.88z" style="stroke:black;fill:#90cbed"/><path id="180627308" parent_id="180627285" order="77" structure_id="310" d="M5125.29,3368.168
			c89.108,132.271,124.093,255.574,145.517,416.346c14.738,110.59,36.16,194.123,95.215,276.75
			c12.937,18.101,27.678,36.155,44.549,54.442c23.72,25.711,39.043,43.325,45.696,50.785c5.731-32.933,16.703-70.172,29.503-102.704
			c36.448-92.635,81.5-179.791,87.438-274.178c6.402-101.637-47.006-204.932-91.472-292.717
			c-63.379-125.182-138.315-246.604-227.091-355.47c-35.262-43.243-73.74-95.784-124.238-122.176
			c-5.279,78.158-3.228,157.054-4.025,235.367C5126.146,3276.264,5112.624,3349.38,5125.29,3368.168z" style="stroke:black;fill:#90cbed"/><path id="180627305" parent_id="180627285" order="78" structure_id="342" d="M7133.626,5790.916
			c-76.354-104.643-134.819-225.12-209.341-332.641c-26.475-38.211-67.127-132.317-104.139-160.858
			c-28.933-22.306-63.672-41.354-92.809-63.876c-22.62-17.475-44.645-31.438-67.402-48.843
			c-86.379-66.062-157.203-141.248-209.438-197.991c-75.881-82.438-98.827-134.391-98.827-134.391
			c-23.809,43.068-74.277,246.783-167.378,427.989c-72.819,141.753-185.938,261.681-238.778,333.485
			c80.744,43.549,172.541,106.752,235.229,174.18c49.954,53.723,106.654,129.439,169.08,187.215
			c49.277,45.6,103.805,76.089,149.841,102.893c59.483,34.621,109.676-36.35,163.574-60.865
			c75.588-34.373,146.558-21.492,218.049,15.654c146.509,76.126,177.624,185.497,178.382,340.84
			c52.203-30.688,89.354-30.664,137.957-79.828c47.332-47.887,162.295-184.063,188.311-239.348
			c19.225-40.822-35.433-65.06-69.299-86.209C7241.535,5921.432,7183.736,5859.584,7133.626,5790.916z" style="stroke:black;fill:#a2b1d8"/><path id="180627304" parent_id="180627285" order="79" structure_id="298" d="M6676.65,6035.262
			c59.672-18.086,135.521-8.986,211.248,32.289c6.735,3.67,12.789,8.472,18.89,13.102
			c56.739,43.171,162.074,184.305,132.638,261.578c-26.879,70.534-180.735,88.816-241.541,104.98
			c-45.842,12.186-239.055-14.865-264.908-65.752c-53.237-104.767-21.887-132.479,10.36-213.998
			C6568.848,6102.925,6614.046,6054.229,6676.65,6035.262z" style="stroke:black;fill:#a2b1d8"/><path id="180627303" parent_id="180627285" order="80" structure_id="596" d="M6205.43,6397.842
			c51.078-168.591,269.097-13.496,356.293,31.148c22.139,11.334,118.465,20.893,118.17,50.354
			c-0.261,25.702-54.769,38.938-72.24,48.085c-83.383,43.667-139.578,102.26-179.473,206.146
			c-38.797-14.729-76.289-59.604-114.85-75.688c-14.711-6.137-28.086-15.061-42.877-21.02
			c-65.813-26.533-104.039-29.742-124.647-31.559C6145.807,6605.311,6183.592,6469.939,6205.43,6397.842z" style="stroke:black;fill:#96a7d3"/><path id="180627316" parent_id="180627285" order="81" structure_id="537" d="M6318.575,4793.854
			c0.731-22.773,0.099-45.511-1.875-68.112c-21.987,41.392-67.96,100.24-84.604,22.183
			c-15.845-74.303-24.435-166.998,42.228-218.086c-3.319-14.76-6.283-29.582-8.69-44.523
			c-36.74,51.563-57.35,113.299-58.435,176.198c-1.466,84.985,65.062,211.554,5.692,282.254
			c-48.93,58.255-149.123,21.515-182.592-33.706c-61.125-100.874-29.129-212.186,5.847-314.682
			c16.634-48.707,27.149-76.688,56.033-119.857c28.621-42.768,61.983-68.146,98.257-100.557
			c20.823-18.615,47.402-55.559,58.918-85.649c-1.346-16.485-2.725-32.97-4.127-49.452
			c-23.805,44.938-40.926,159.255-110.434,138.748c-46.965-13.874-63.483-67.999-61.521-110.402
			c1.733-37.51,12.147-111.063,19.429-145.76c6.133-29.229,15.685-72.976,44.852-88.43c25.324-13.417,56.427-2.113,76.021,17.866
			c-5.127-16.277-10.18-32.545-14.172-48.754c-4.888-19.902-9.105-44.502-7.705-65.13c0.84-12.344,6.582-27.348-7.078-35.493
			c-0.084-0.05-0.17-0.095-0.254-0.144c7.678,50.176-86.429,91.185-117.875,109.568c-8.957,5.237-19.563,10.722-30.09,13.281
			c1.615,16.946,2.17,34.118,2.935,51.122c0.835,18.563,1.376,37.142,1.507,55.724c0.123,17.432-0.116,34.865-0.826,52.283
			c-0.674,16.539-1.773,33.064-3.391,49.541c-1.562,15.894-3.604,31.74-6.191,47.502c-2.542,15.486-5.609,30.89-9.225,46.162
			c-3.623,15.317-7.795,30.504-12.49,45.526c-4.805,15.374-10.155,30.576-15.99,45.59c-6.082,15.655-12.688,31.104-19.724,46.354
			c-7.453,16.155-15.386,32.088-23.69,47.82c-8.908,16.876-18.242,33.525-27.892,49.988c-10.39,17.727-21.142,35.237-32.151,52.584
			c-21.56,33.963-47.313,64.914-74.826,94.183c-10.512,11.181-21.287,22.108-31.836,33.254
			c-7.895,8.342-14.894,17.677-22.847,25.834c-0.472,0.481-0.918,0.983-1.354,1.493c14.611,13.336,74.752,70.387,64.713,97.189
			c-3.961,10.601-28.99,36.277-68.842,60.551c29.778,9.984,68.494,38.935,88.592,53.393c31.658,22.771,59.537,50.371,83.789,80.852
			c49.666,62.424,83.629,135.867,112.631,209.687c14.453,36.788,25.652,73.03,60.998,90.692c6.092-9.58,12.299-19.571,18.729-30.143
			c74.977-123.294,120.6-268.852,178.943-400.773c10.572-23.924,16.935-49.547,20.461-75.416
			C6321.297,4835.127,6317.907,4814.813,6318.575,4793.854z" style="stroke:black;fill:#b3c0df"/><path id="180627312" parent_id="180627285" order="82" structure_id="498" d="M6039.29,5271.846
			c-29.002-73.817-62.964-147.262-112.631-209.686c-24.252-30.48-52.131-58.079-83.788-80.852
			c-20.098-14.459-58.813-43.408-88.592-53.394c-5.284,3.22-10.818,6.413-16.609,9.544c-40.701,22.014-92.033,37.98-149.172,43.781
			c-10.903,1.105-21.808,1.957-32.711,2.631c-8.459,74.107,134.369,114.434,144.983,180.752
			c25.179-7.653,50.585-13.53,75.026-14.365c47.976-1.633,141.239-33.912,63.605,87.773
			c-27.979,43.857-112.135,103.227-78.454,160.238c23.267,39.361,151.185,51.537,143.94,100.594
			c21.34,10.588,39.528,33.078,57.824,48.188c61.453-75.084,96.91-120.561,137.574-184.516
			C6064.943,5344.876,6053.744,5308.634,6039.29,5271.846z" style="stroke:black;fill:#b3c0df"/><path id="180627313" parent_id="180627285" order="83" structure_id="505" d="M5700.771,5164.625
			c-10.614-66.318-153.442-106.645-144.983-180.752c-42.938,2.658-85.897,2.457-128.991,3.172
			c-33.934,0.559-66.701,0.391-100.645,0.708c-4.951,0.054-54.604,2.216-63.834-0.44c9.334,27.862,23.892,54.229,64.642,86.707
			c51.44,41.006,96.16,60.396,123.788,173.324c53.146-20.694,109.848-36.32,163.991-53.6
			C5641.805,5185.107,5671.13,5173.634,5700.771,5164.625z" style="stroke:black;fill:#b3c0df"/><path id="180627314" parent_id="180627285" order="84" structure_id="546" d="M6232.096,4747.923
			c16.646,78.058,62.617,19.209,84.604-22.183c-1.543-17.68-3.905-35.276-7.076-52.746c-2.826-15.555-6.28-31.01-10.377-46.326
			c-8.629-32.338-17.635-64.431-24.925-96.832C6207.661,4580.925,6216.251,4673.62,6232.096,4747.923z" style="stroke:black;fill:#b3c0df"/><path id="180627318" parent_id="180627285" order="85" structure_id="521" d="M5904.891,5498.865
			c7.24-49.057-120.674-61.23-143.94-100.593c-33.681-57.015,50.476-116.381,78.454-160.239
			c77.634-121.687-15.631-89.405-63.605-87.772c-24.441,0.834-49.849,6.711-75.026,14.365
			c-29.642,9.009-58.966,20.481-86.032,29.119c-54.145,17.278-110.846,32.903-163.991,53.601c1.274,5.213,2.517,10.613,3.718,16.236
			c18.441,86.354,39.538,174.957,47.243,205.232c13.761,54.033,31.584,139.838,50.385,209.748
			c96.054-47.438,208.349-59.192,299.099-120.951C5887.174,5533.123,5902.627,5514.193,5904.891,5498.865z" style="stroke:black;fill:#b3c0df"/><path id="180627320" parent_id="180627285" order="86" structure_id="554" d="M6137.552,4034.018
			c-29.167,15.455-38.718,59.201-44.851,88.43c-7.281,34.697-17.695,108.251-19.43,145.76
			c-1.964,42.404,14.557,96.529,61.521,110.402c69.506,20.508,86.627-93.811,110.433-138.748
			c-2.541-29.84-5.157-59.676-7.771-89.521c-2.85-32.604-13.52-65.552-23.883-98.456
			C6193.979,4031.904,6162.876,4020.602,6137.552,4034.018z" style="stroke:black;fill:#b3c0df"/><path id="180627315" parent_id="180627285" order="87" structure_id="562" d="M6190.436,4374.963
			c-36.272,32.41-69.637,57.79-98.258,100.557c-28.883,43.17-39.398,71.15-56.033,119.858
			c-34.975,102.496-66.971,213.808-5.847,314.681c33.47,55.222,133.663,91.961,182.592,33.707
			c59.368-70.701-7.158-197.269-5.692-282.254c1.086-62.899,21.693-124.638,58.435-176.198c-2.661-16.513-4.649-33.168-5.687-50.039
			c-2.98-48.71-6.629-97.349-10.592-145.96C6237.837,4319.404,6211.258,4356.348,6190.436,4374.963z" style="stroke:black;fill:#b3c0df"/><path id="180627311" parent_id="180627285" order="88" structure_id="529" d="M5851.191,5557.611
			c-90.75,61.758-203.047,73.514-299.1,120.949c5.93,22.045,11.953,42.512,17.979,59.898
			c20.299,58.581,28.086,109.059,84.508,105.059c32.564-2.301,61.18-33.185,83.937-55.51
			c105.237-103.274,117.595-111.311,186.202-194.692c13.744-16.706,26.337-32.017,37.997-46.263
			c-18.296-15.109-36.485-37.601-57.825-48.188C5902.627,5514.193,5887.174,5533.123,5851.191,5557.611z" style="stroke:black;fill:#b3c0df"/><path id="180627319" parent_id="180627285" order="89" structure_id="569" d="M5781.779,4260.355
			c29.957,2.906,63.414-26.211,82.377-45.863c19.487-20.193,49.623-53.552,50.931-83.604c1.172-26.926-22.039-41.258-46.571-37.336
			c-4.922,5.125-10.023,10.162-15.313,15.055c-32.398,29.96-68.443,57.463-107.07,80.831
			C5745.135,4219.878,5743.325,4256.623,5781.779,4260.355z" style="stroke:black;fill:#b3c0df"/><path id="180627317" parent_id="180627285" order="90" structure_id="578" d="M5782.607,4742.85
			c10.549-11.146,21.324-22.074,31.836-33.254c27.515-29.269,53.268-60.221,74.826-94.184
			c11.011-17.346,21.764-34.857,32.151-52.584c9.647-16.463,18.983-33.111,27.892-49.988c8.306-15.732,16.237-31.664,23.69-47.819
			c7.035-15.251,13.642-30.7,19.724-46.354c5.834-15.015,11.187-30.217,15.99-45.59c4.694-15.023,8.867-30.209,12.49-45.526
			c3.613-15.272,6.683-30.676,9.225-46.163c2.587-15.762,4.631-31.607,6.191-47.502c1.617-16.477,2.717-33.001,3.391-49.541
			c0.71-17.417,0.949-34.852,0.826-52.282c-0.131-18.582-0.672-37.16-1.507-55.724c-0.765-17.004-1.317-34.177-2.935-51.123
			c-13.367,3.252-26.607,1.785-36.183-10.912c-8.047-10.673-8.776-42.885-4.806-64.789c-9.969,6.42-19.479,13.066-28.299,19.762
			c-18.955,14.393-49.994,73.677-98.598,124.277c24.532-3.92,47.743,10.412,46.57,37.336c-1.308,30.054-31.441,63.412-50.93,83.604
			c-18.964,19.651-52.421,48.771-82.378,45.862c-38.454-3.731-36.646-40.478-35.647-70.918
			c-68.478,41.429-145.072,69.86-223.881,75.931c0,0,27.621,55.897,17.017,101.548c-6.329,27.282-15.663,50.965-32.026,74.121
			c-21.138,29.902-51.896,44.738-87.334,49.316c-14.164,1.832-31.383,13.235-27.295,29.465c2.639,10.455,12.683,13.912,21.73,17.19
			c15.266,5.526,125.584,76.717,132.459,73.356l8.398-4.092c93.271-62.143,239.936,49.787,200.056,161.063
			c0,0,1.155,1.015,3.153,2.838c0.436-0.51,0.883-1.011,1.354-1.493C5767.715,4760.525,5774.714,4751.189,5782.607,4742.85z" style="stroke:black;fill:#b3c0df"/><path id="180627321" parent_id="180627285" order="91" structure_id="602" d="M6000.217,4014.301
			c17.113,22.698,45.938,9.521,66.271-2.367c31.446-18.386,125.553-59.395,117.875-109.569
			c-41.814-24.621-120.572,4.403-183.244,43.522c-1.92,1.198-3.818,2.409-5.707,3.625
			C5991.439,3971.417,5992.17,4003.629,6000.217,4014.301z" style="stroke:black;fill:#b3c0df"/><path id="180627310" parent_id="180627285" order="92" structure_id="287" d="M5687.602,4625.328
			c-41.231-27.706-70.375-40.283-130.09-7.314c0,0,113.799,84.174,139.61,104.033l45.558,33.09
			C5759.751,4700.38,5733.563,4656.23,5687.602,4625.328z" style="stroke:black;fill:#b3c0df"/><path id="180627290" parent_id="180627285" order="93" structure_id="1097" d="M5115.23,4436.443
			c19.066,5.824,50.898,15.598,87.285,26.902c27.44-67.259-56.031-265.723-84.369-336.895L5115.23,4436.443z" style="stroke:black;fill:#e64438"/><path id="180627291" parent_id="180627285" order="94" structure_id="1097" d="M6513.354,6103.234
			c-38.854-7.318-76.158-32.694-112.069-56.666c-113.301-75.613-158.06-187.803-265.789-267.334
			c-115.558-85.305-202.086-168.024-223.246-134.861c-37.501,58.745-110.134,137.645-151.071,171.654
			c-68.664,57.049-92.334,63.078-119.401,58.65c-86.128-14.08-102.239-118.318-117.079-188.779
			c-29.951-142.082-49.605-194.412-71.932-334.319c-8.977-56.308-27.197-109.888-47.179-157.53
			c-14.115-33.658-52.179-68.606-83.921-92.539c-51.813-39.06-56.423-61.694-81.07-101.56
			c-18.082-29.241-113.463-19.562-130.594-8.308l-1.305,138.438c0,0,13.832,6.387,11.461,37.646
			c-2.377,31.254-6.979,519.17-7.119,533.766c-0.138,14.593-7.696,596.316-7.787,604.658
			c-0.072,8.341,36.068,156.734,27.631,167.084c-8.435,10.341-36.979,19.516-37.021,19.529l-0.149,15.924
			c113.886,12.877,225.972,34.211,330.213,68.783c85.623,28.391,161.486,70.646,236.481,131.518
			c23.433,19.021,74.487,60.941,97.735,99.124c-46.34-80.974-215.477-191.933-172.006-184.617
			c113.823,19.134,229.047,3.132,330.969-9.396c115.508-14.205,205.832-10.646,205.832-10.646
			c15.947-67.978,25.381-115.61,49.049-188.535c22.369-68.913,32.185-115.676,113.873-115.297
			c12.602,0.062,142.696,33.599,173.137,49.187c44.27,22.654,15.184-61.168,26.016-105.412
			C6498.971,6194.543,6558.023,6111.656,6513.354,6103.234z" style="stroke:black;fill:#e64438"/><path id="180627295" parent_id="180627285" order="95" structure_id="452" d="M5115.23,4436.443
			c19.066,5.824,50.898,15.598,87.285,26.902c27.44-67.259-56.031-265.723-84.369-336.895L5115.23,4436.443z" style="stroke:black;fill:#ff5547"/><path id="180627296" parent_id="180627285" order="96" structure_id="452" d="M5112.99,4990.352c3.805-3.738,48.717-11.313,75.223-8.959
			c19.32,1.715,39.316,7.025,43.479,29.283c3.772,20.17-4.12,45.809-11.013,64.754c-10.01,27.485-74.357,144.177-101.75,70.151
			c-3.016-8.149-3.847-11.298-10.207-18.287" style="stroke:black;fill:#ff5547"/><path id="180627300" parent_id="180627285" order="97" structure_id="523" d="M5204.67,5812.318
			c1.914-15.651,5.542-31.147,11.529-46.377c31.254-79.44,130.291-77.037,189.149-29.033c31.042,25.314,60.91,61.858,80.476,90.426
			c72.054,105.188,72.664,217.832,88.459,343.813c2.793,22.191,5.556,50.518,6.011,80.561
			c1.188,78.149-13.228,168.006-83.366,192.271c-3.331,1.151-6.633,2.206-9.904,3.163l2.035-0.049
			c30.953,45.648,84.828,89.926,128.326,120.756c22.32,15.82,48.805,22.279,74.26,31.486c26.354,9.53,45.164,2.166,72.277,2.215
			l-0.326-0.076c11.341-59.541,24.568-144.319,60.764-187.066c53.168-62.788,87.983-32.077,109.008,21.325l0.717-1.651
			c6.176-10.97,7.965-27.768,10.648-38.4c3.579-14.166,6.791-28.441,9.205-42.855c4.007-23.922,5.771-48.256,3.24-72.438
			c-5.607-53.563-31.374-102.916-56.302-149.732c-52.627-98.845-146.671-201.474-134.095-319.445l-5.605,4.822
			c-68.664,57.049-110.62,72.973-148.496,47.951c-70.465-46.543-69.87-109.09-95.977-215.688
			c-35.229-143.847-41.599-158.89-63.939-296.712c-9.115-56.283-27.197-109.889-47.178-157.529
			c-14.115-33.66-52.18-68.607-83.922-92.539c-47.892-36.104-55.455-58.176-75.789-92.791l-0.539-3.281
			c8.197,40.037-10.414,86.684-30.002,123.012c-9.723,18.031-24.015,35.994-42.006,51.006
			c21.004,27.002,31.297,59.252,30.074,81.008c-6.07,108.012-6.07,142.199-6.07,240.024c0,42.479-4.693,111.299-3,153.015
			c1.551,38.191,3,114.013,12.001,165.018L5204.67,5812.318z" style="stroke:black;fill:#ff5547"/><path id="180627297" parent_id="180627285" order="98" structure_id="133" d="M5119.313,5185.09
			c91.088,15.609,59.94,89.811,59.558,170.167c-0.536,112.646-4.423,225.132-1.864,338.849
			c2.722,121.215,27.733,240.767,30.537,362.002c0.799,35.039-1.799,70.799,1.336,105.565c3.519,38.804,12.607,76.245,8.887,115.569
			c-5.93,62.635-43.414,100.647-103.854,70.006" style="stroke:black;fill:#ff5547"/><path id="180627299" parent_id="180627285" order="99" structure_id="689" d="M5760.566,6629.339
			c68.147-4.578,132.74-14.481,195.922-21.091l-4.614-4.966c3.438-31.437,6.125-64.588,0.604-95.923
			c-14.858-84.604-53.336-181.27-128.119-92.954c-40.205,47.483-52.071,146.828-64.492,205.836L5760.566,6629.339z" style="stroke:black;fill:#ff5547"/><path id="180627294" parent_id="180627285" order="100" structure_id="740" d="M5383.604,6038.872c-2.115-0.185-4.25-0.401-6.429-0.694
			c-86.71-11.613-80.3-181.565-14.53-202.748c24.03-7.738,55.981,4.375,94.215,51.34
			C5507.771,5949.281,5478.322,6047.143,5383.604,6038.872z" style="stroke:black;fill:#ff4c3e"/><path id="180627293" parent_id="180627285" order="101" structure_id="748" d="M5558.768,6053.23
			c-14.092-112.123-31.516-196.311-147.203-312.095c-1.933-1.935-3.944-3.79-6.018-5.585l-4.434,7.57
			c-15.435,29.693-37.183,54.472-38.373,89.311l-0.097,2.997c24.03-7.739,55.981,4.374,94.215,51.34
			c50.913,62.513,21.463,160.373-73.256,152.103l0.097,4.373c2.98,125.145,23.946,218.168,96.041,317.67
			c13.676,18.873,25.168,35.318,29.697,58.862l0.434,15.649c13.74-8.174,25.987-19.315,35.896-33.758
			c25.308-36.877,33.028-86.018,32.834-137.215C5578.363,6201.691,5565.079,6103.438,5558.768,6053.23z" style="stroke:black;fill:#ff4c3e"/><path id="180627292" parent_id="180627285" order="102" structure_id="756" d="M5479.741,6360.914
			c-72.095-99.501-93.062-192.525-96.041-317.669l-0.097-4.373c-2.115-0.185-4.25-0.401-6.43-0.694
			c-86.71-11.613-80.3-181.565-14.529-202.748l0.097-2.996c1.19-34.84,22.938-59.617,38.372-89.311l4.434-7.57
			c-55.521-48.101-159.217-46.192-189.348,30.391c-25.078,63.782-8.771,132.26,1.523,197.21
			c10.092,63.614,11.939,130.856,11.524,195.34c-0.537,85.009,31.164,194.664,96.808,251.724
			c49.319,42.877,128.645,58.035,183.816,25.213l-0.434-15.65C5504.909,6396.232,5493.417,6379.787,5479.741,6360.914z" style="stroke:black;fill:#ff4c3e"/><path id="180627298" parent_id="180627285" order="103" structure_id="226" d="M5766.781,5811.206
			c-12.576,117.974,81.467,220.603,134.095,319.444c24.929,46.817,50.694,96.172,56.302,149.733
			c2.531,24.183,0.768,48.517-3.24,72.438c-2.414,14.414-5.626,28.688-9.205,42.854c-2.984,11.819-4.859,31.256-12.887,41.837
			l2.013-0.523c8.297,21.433,14.407,46.386,18.619,70.369c5.521,31.334,2.834,64.485-0.604,95.922l0.854,7.088
			c98.944-9.804,172.21-6.916,172.21-6.916c15.948-67.978,25.381-115.609,49.05-188.535c8.179-25.192,24.696-65.401,38.373-87.922
			c36.149-59.549,206.319-0.174,268.063,24.771c16.965-27.25,1.563-92.586,9.504-123.632c15.166-59.3,94.191-110.333-13.961-140.549
			c-60.146-16.799-89.974-54.153-125.715-84.595c-82.006-69.879-126.813-158.84-214.758-223.758
			c-115.559-85.305-202.086-168.024-223.246-134.861c-34.664,54.299-99.342,125.816-141.262,163.189L5766.781,5811.206z" style="stroke:black;fill:#f2483b"/><path id="180627393" parent_id="180627285" order="104" structure_id="1009" d="M7625.714,5497.789
			c-10.367-6.354,128.885-45.747,257.666-124.775c67.033-41.074,130.114-105.459,174.537-154.754
			c96.009-106.529,163.439-242.939,231.146-408.625c34.323-84.09,68.537-227.401,84.658-353.703
			c16.93-132.549,14.914-246.258,14.906-254.266s-0.265-16.186-0.687-24.529l11.434-0.643c0.987,19.109,2.977,38.146,3.214,57.25
			c0.261,25.443,0.188,50.883-0.552,76.316c-0.117,3.586-0.234,7.172-0.352,10.756c-0.101,1.836-0.201,3.67-0.219,5.504
			c-0.206,4.168-0.412,8.338-0.618,12.506c-0.095,1.25-0.106,2.502-0.202,3.752c-0.001,0.084-0.002,0.25-0.003,0.334
			c-0.593,9.754-1.185,19.506-1.944,29.258c-0.095,1.252-0.19,2.502-0.285,3.752c-0.474,6.002-0.947,12.002-1.588,18.002
			c0.08,0.418,0.077,0.752-0.094,1.166c-0.281,3.252-0.646,6.5-0.927,9.834c-5.052,49.25-13.155,103.725-25.854,167.748
			c-0.351,1.832-0.702,3.748-1.137,5.578c-2.878,13.318-5.587,26.473-8.214,39.627c-11.422,52.524-26.427,113.607-46.892,178.644
			c-0.589,0.495-0.929,1.159-1.103,1.908c-0.78,3.162-1.644,6.24-2.507,9.401c-16.412,50.978-36.099,104.258-60.042,157.834
			c-14.23,31.896-31.071,66.437-50.166,101.205c-23.916,41.814-50.069,82.022-77.37,120.135
			c-52.15,72.746-131.645,143.896-198.413,201.239c-0.085,0.166-0.253,0.248-0.337,0.33
			C7815.043,5472.881,7691.645,5538.281,7625.714,5497.789z" style="stroke:black;fill:#cccccc"/><path id="180627394" parent_id="180627285" order="105" structure_id="1009" d="M5092.131,6888.93
			c119.932,4.574,241.866,16.553,364.053,18.304c55.977,0.799,271.916,6.847,310.459-47.12
			c29.584-41.428-68.844-122.396-104.234-151.124c-74.995-60.87-150.859-103.127-236.48-131.519
			c-104.244-34.571-216.332-55.905-330.22-68.783L5092.131,6888.93z" style="stroke:black;fill:#cccccc"/><path id="180627395" parent_id="180627285" order="106" structure_id="1009" d="M5119.125,4022.89
			c2.932,8.691,2.631,61.151,5.475,69.871c33.654,103.074,55.476,216.453,120.297,305.778
			c65.121,89.744,203.322,145.182,273.715,27.156c69.227-116.056-33.91-229.648-108.041-309.989
			c-93.897-101.771-121.797-196.379-139.764-331.192c-21.424-160.771-56.407-284.074-145.518-416.346L5119.125,4022.89z" style="stroke:black;fill:#cccccc"/><path id="180627396" parent_id="180627285" order="107" structure_id="1009" d="M5110.001,4991.643
			c55.894-26.215,132.573,3.308,198.493-1.607c170.098-12.688,375.141,31.212,506.686-109.79
			c37.779-26.754-44.912-102.604-94.599-140.604c-235.92-180.431-247.707-194.181-605.351-303.195L5110.001,4991.643z" style="stroke:black;fill:#cccccc"/><path id="180627397" parent_id="180627285" order="108" structure_id="1009" d="M6260.605,4451.4
			c4.887,77.553,38.543,154.756,52.65,239.607c13.326,80.16-5.368,169.922,21.479,154.506
			c61.848-35.509,13.791-415.393,29.664-496.523c17.97-91.891,51.228-163.183-10.196-241.482
			c-29.069-37.059-97.851-238.643-150.347-199.516c-40.881,30.464,28.027,184.17,31.955,223.426
			C6246.277,4235.982,6253.992,4346.506,6260.605,4451.4z" style="stroke:black;fill:#cccccc"/><path id="180627398" parent_id="180627285" order="109" structure_id="1009" d="M7196.247,5479.221
			c99.869,23.877,497.792,44.248,361.562-11.889c-122.554-50.497-293.58-128.721-373.771-167.557
			c-148.677-72.029-254.476-165.09-398.753-245.654c-89.509-49.988-181.764-97.67-271.801-146.443
			c-25.486-13.803-100.749-34.109-116.616-15.696c-23.206,26.888,160.585,218.38,268.29,296.556
			C6828.234,5306.9,6997.959,5431.811,7196.247,5479.221z" style="stroke:black;fill:#cccccc"/><path id="180627399" parent_id="180627285" order="110" structure_id="1009" d="M5778.609,2215.74
			c61.93-57.055,89.185-108.014,115.246-147.473c9.055-13.677,17.929-25.938,28.039-36.687
			c14.574-15.377,31.787-27.478,55.72-35.509c24.771-8.525,56.757-12.729,100.54-11.898
			c101.994,1.961,227.391,52.021,333.953,91.479c29.842,10.958,58.105,21.149,84.055,29.234
			c114.271,35.609,241.396,70.422,366.877,120.565c18.447,7.347,36.811,15.027,55.084,23.124
			c164.057,72.445,337.461,153.069,518.961,268.635c13.018,8.297,24.955,16.083,35.978,23.611
			c89.351,60.23,122.608,98.163,218.369,186.313c107.503,99.021,163.87,163.029,241.248,290.043
			c37.702,61.914,80.806,126.129,124.099,196.854c31.791,51.932,63.633,107.367,93.506,167.955
			c93.225,189.305,177.455,376.773,210.133,494.107c5.406,19.319,10.394,38.886,14.796,58.611
			c12.415,54.501,20.9,110.051,23.046,165.622c0.194,5.924,0.474,11.767,0.669,17.522c0.343,7.928,0.686,15.771,0.947,23.447
			c-0.247-0.336-0.411-0.588-0.575-0.922c-0.781,12.086-0.561,24.101,0.077,36.117l-11.434,0.644
			c-0.713-13.659-1.959-27.663-3.588-41.812c-5.319-46.186-14.727-93.905-23.013-136.189
			c-27.855-142.063-74.56-249.02-129.972-370.238c-89.573-195.943-160.616-313.639-254.312-452.902
			c-90.487-134.228-154.28-224.58-320.258-376.533c-146.705-134.508-503.057-327.625-670.629-398.686
			c-137.414-58.265-353.306-117.936-526.969-135.669c-135.414-13.787-270.482,24.396-323.604,40.743
			c-95.701,29.46-246.303,113.79-320.278,148.125c-38.119,17.741-168.94,65.555-304.276,105.319
			c-195.977,57.626-394.459,53.755-394.734,65.264l1.188-196.924c0,0,63.821,7.606,141.912,5.757
			c33.873-0.766,70.432-3.257,105.602-8.932c8.02-1.26,16.125-2.852,24.232-4.609c51.318-11.111,103.305-30.891,150.136-52.554
			c76.905-35.476,139.931-76.088,162.933-91.636C5732.613,2255.094,5757.659,2235.061,5778.609,2215.74z" style="stroke:black;fill:#cccccc"/><path id="180627392" parent_id="180627285" order="111" structure_id="81" d="M6055.662,2742.313
			c-75.133,184.141-62.012,433.851-44.841,627.94c6.655,75.229-5.962,154.243-2.19,232.146
			c5.237,108.152,23.158,232.08-12.746,321.019c-14.459,35.812-85.804,106.231-117.985,128.174
			c-9.88,6.744,35.913-43.532,56.528-98.175c15.68-41.557,27.53-80.538,31.596-106.745c26.637-172.133,9.236-215.942-0.913-346.174
			c-15.092-193.472-22.438-374.306-88.163-555.664c-30.073-82.943-94.314-164.372-147.667-236.181
			c-34.323-46.196-154.906-148.146-142.396-157.733c38.502-29.527,191.16-70.795,245.066-96.791
			c51.486-24.839,115.834-58.32,174.415-87.631c57.276-28.655,75.458-36.148,107.493-47.646
			c145.313-52.153,112.699-9.366,91.113,67.591C6184.577,2459.189,6113.297,2601.056,6055.662,2742.313z" style="stroke:black;fill:#aaaaaa"/><path id="180627391" parent_id="180627285" order="112" structure_id="129" d="M5108.697,5130.08c0,0,13.832,6.387,11.461,37.646
			c-2.379,31.254-6.98,519.17-7.119,533.766c-0.139,14.593-7.697,596.316-7.787,604.658c-0.074,8.341,36.067,156.734,27.629,167.084
			s-37.021,19.529-37.021,19.529L5108.697,5130.08z" style="stroke:black;fill:#aaaaaa"/></g>
</g>
</svg>