<svg width="9184" height="7760" xmlns="http://www.w3.org/2000/svg">
<g transform="scale(1.0)">
<g id="182623993" order="1" parent_id="" graphic_group_label_id="28" graphic_group_label="Atlas - Adult Mouse" sub_image_id="100960168" transform=" scale(1.0, 1.0)"><path id="182623995" parent_id="182623993" order="0" structure_id="8" d="M4595.923,671.215
			c117.573-13.842,370.388-4.704,528.539,64.338c87.331,38.127,139.622,77.937,225.071,120.155
			c82.451,40.738,169.646,60.078,254.939,91.746c106.766,39.646,192.662,114.238,288.79,172.674
			c99.897,60.738,201.142,75.415,317.844,73.981c81.776-1.011,135.802-10.002,214.345,19.824
			c66.717,25.335,130.067,45.229,192.688,81.101c105.177,60.253,208.366,133.118,304.087,207.425
			c90.81,70.512,204.604,234.938,387.288,292.293c221.275,69.469,459.689,248.224,490.268,274.255
			c255.957,217.884,419.168,516.493,439.04,857.733c26.211,449.683-290.306,595.475-432.199,734.018
			c-72.946,71.216-109.584,151.498-110.356,254.98c-1.125,149.155,182.293,130.67,288.285,155.998
			c128.373,30.674,230.943,103.975,304.592,211.916c312.957,458.717,323.563,1076.276-126.427,1354.625
			c-325.175,201.143-533.606-113.709-581.377-397.429c-23.597-140.164-70.976-210.521-204.75-255.546
			c-52.763-17.757-87.208-47.9-111.7-85.689c7.191,48.69-36.93,124.203-66.594,160.209c-19.965,24.238-42.24,43.791-50.158,75.695
			c-13.789,55.577,13.717,117.977,4.879,176.132c-8.658,56.958-39.602,115.358-79.535,156.588
			c-23.679,24.452-37.313,53.921-56.332,81.87c-14.131,20.786-21.43,23.715-43.192,28.068
			c-72.63,91.758-191.579,146.401-277.354,227.312c-80.213,75.663-148.875,161.479-218.612,247.267
			c-141.992,174.699-281.272,337.787-450.86,486.604c-128.071,112.382-256.901,190.757-406.47,268.276
			c-205.345,106.432-340.495,182.629-568.597,248.258c-141.406,40.688-357.267,104.871-506.092,73.354
			c-125.511-26.577-161.223-127.042-238.633-214.861L4595.923,671.215z" style="stroke:black;fill:#bfdae3"/><path id="182623996" parent_id="182623993" order="1" structure_id="354" d="M4416.016,4592.703
			c39.324-123.363,170.487-278.238,199.769-319.316c100.88-141.513,238.377-302.431,411.972-351.238
			c54.019-15.184,110.228-24.928,166.307-27.571c12.551-0.586,141.951-20.974,142.456-20.558
			c116.728,50.051,248.049,50.404,371.031,74.729c39.228,7.754,8.854-31.786,61.373-41.218
			c128.446-23.06,277.681-91.029,354.496-79.008c94.181,14.73,144.664,117.582,88.789,194.228
			c-13.912,19.092,37.581,15.228,92.625,27.407c67.042,14.841,143.687,44.387,168.496,53.509
			c119.089,43.841,232.541,93.949,339.021,163.153c91.494,59.479,169.996,92.82,228.158,156.854
			c81.939,90.202,63.426,284.209,85.58,399.551c28.338,147.534-9.848,317.379-40.537,462.12
			c-21.527,101.54-45.678,209.543-111.596,292.835c-72.63,91.758-191.579,146.402-277.354,227.313
			c-80.213,75.662-148.875,161.479-218.613,247.267c-141.992,174.699-281.271,337.787-450.859,486.604
			c-128.072,112.381-256.902,190.756-406.471,268.276c-205.346,106.431-340.495,182.628-568.598,248.257
			c-141.405,40.688-357.266,104.871-506.09,73.354c-125.512-26.576-163.875-129.957-241.276-217.776L4416.016,4592.703z" style="stroke:black;fill:#ff9bcd"/><path id="182624007" parent_id="182623993" order="2" structure_id="112" d="M7045.688,5185.169
			c14.043,32.151,43.625,95.104,53.48,45.688c5.497-27.549,18.383-74.354,15.833-98.028c-4.862-45.196-24.011-71.086-52.331-105.494
			c-61.08-74.218-132.495-138.274-206.697-199.285c-23.244-19.112-101.894-91.086-115.26-73.631
			c-9.953,13,38.934,47.819,68.672,77.052c42.524,41.813,76.229,75.811,103.172,112.111
			C6989.675,5047.484,6987.605,5052.075,7045.688,5185.169z" style="stroke:black;fill:#ffa5d2"/><path id="182624016" parent_id="182623993" order="3" structure_id="96" d="M7118.396,4929.952
			c-7.359-65.425-10.774-131.127-16.342-196.957c-8.555-101.149-42.605-214.367-104-296.933
			c-30.035-40.395-61.15-75.961-101.109-106.062c-72.4-54.536-145.957-103.806-227.729-143.874
			c-23.371-11.452-47.035-23.395-71.297-32.857c-24.867-9.701-50.813-10.049-77.824-10.899
			c-13.965,25.604-15.975,25.403-5.488,55.935c24.939,72.629,46.12,144.519,63.598,220.08
			c13.431,58.068,30.886,120.953,43.348,177.5c5.073,23.019,4.146,40.453,17.186,61.306c12.088,19.331,28.196,36.269,43.955,52.616
			l0.646,0.802c19.316,10.885,37.577,23.049,53.417,39.438l4.017,4.31c13.521-17.194,91.988,54.608,115.203,73.694
			c74.201,61.012,145.617,125.067,206.696,199.285c27.923,33.926,46.919,59.584,52.106,103.617
			c5.004-36.571,8.242-73.483,9.723-111.957C7125.659,4988.861,7121.719,4959.488,7118.396,4929.952z" style="stroke:black;fill:#ffa5d2"/><path id="182624017" parent_id="182623993" order="4" structure_id="101" d="M7045.688,5185.169
			c-58.082-133.094-56.014-137.685-133.131-241.586c-26.942-36.302-60.646-70.3-103.172-112.112
			c-29.738-29.231-78.625-64.052-68.672-77.052c0.019-0.022,0.039-0.041,0.059-0.063l-4.018-4.311
			c-15.84-16.389-34.101-28.553-53.416-39.438l-0.646-0.803c-16.514-17.129-25.425-2.389-23.604,20.729
			c2.375,30.126,16.508,64.441,21.322,95.643c14.055,91.072,17.407,183.315,27.643,274.815
			c9.709,86.782,9.569,176.295,26.492,261.397c11.953,60.11,16.649,107.488,16.313,160.11
			c-0.231,36.024-10.626,71.108-14.117,107.047c-2.112,21.761-3.731,57.722,25.987,61.828c30.09,4.159,86.406-45.229,109.426-62.722
			c59.101-44.906,109.621-79.635,146.287-145.655c19.162-34.506,30.117-71.028,40.502-109.047
			c5.457-19.979,11.783-39.806,17.054-59.951c4.024-15.378,8.043-30.916,11.987-46.588c1.763-7.003,3.438-13.953,5.074-20.883
			C7080.234,5260.891,7057.482,5212.173,7045.688,5185.169z" style="stroke:black;fill:#ffa5d2"/><path id="182624010" parent_id="182623993" order="5" structure_id="53" d="M5927.352,4999.259l-5.607-1.704
			c-30.512,19.173-59.068,42.084-83.874,68.393c-41.458,43.959-90.019,106.162-89.864,161.299
			c0.244,86.525,85.728,112.252,156.541,102.147c27.301-3.897,75.74-23.694,105.535-24.158c6.306-0.099,12.047,0.376,17.283,1.351
			l5.131-4.457C6177.443,5181.748,6037.275,5035.325,5927.352,4999.259z" style="stroke:black;fill:#ffa5d2"/><path id="182624011" parent_id="182623993" order="6" structure_id="61" d="M6361.677,5170.762
			c0,0,0.586-7.373,1.063-15.354c0.849-14.183-22.119-43.681-29.234-55.979c-12.199-21.084-26.318-40.652-39.543-61.043
			c-17.52-27.016-33.455-50.285-60.848-68.633c-98.98-66.299-217.854-30.961-311.373,27.804l5.607,1.704
			c109.926,36.066,250.093,182.488,105.145,302.869l-5.131,4.458c29.834,5.554,42.728,27.962,43.205,61.035l6.203-2.138
			C6167.539,5327.77,6343.563,5287.854,6361.677,5170.762z" style="stroke:black;fill:#ffa5d2"/><path id="182624012" parent_id="182623993" order="7" structure_id="69" d="M6325.047,5242.41
			c-4.671,4.959-9.111,10.48-14.995,14.279c-64.64,41.731-169.493,82.289-233.28,108.795l-6.201,2.137
			c0.605,41.917-18.734,100.968-48.858,164.588c-50.386,106.395-118.299,219.984-103.687,342.417
			c46.631,83.769,136.584,174.841,237.469,175.817c111.465,1.071,183.516-149.474,218.4-237.998
			c42.455-107.746,63.549-222.859,61.543-336.748c-3.801-29.375-3.076-58.774-6.594-86.303
			c-5.64-44.141-15.535-83.605-22.463-111.503c-7.391-29.761-35.332-105.461-42.551-113.383l-15.401,45.808L6325.047,5242.41z" style="stroke:black;fill:#ffa5d2"/><path id="182623997" parent_id="182623993" order="8" structure_id="661" d="M5768.579,5952.672c14.213-1.977,28.712-1.833,43.625,1.584
			c66.351,15.18,101.373,82.627,137.767,133.379c76.717,106.984,131.225,188.848,46.638,313.43
			c-47.28,69.611-146.545,128.377-222.89,157.924c-53.146,20.559-103.465,19.684-140.818-25.986
			c-45.123-55.162,1.246-141.585-49.262-190.162c-44.041-42.325-124.48-3.84-176.217-18.79
			c-75.808-21.938-79.072-122.226-67.084-184.94c15.614-81.646,93.596-127.617,173.059-135.555
			c43.796-4.366,87.258,6.805,130.508-6.675C5685.158,5984.01,5725.559,5958.643,5768.579,5952.672z" style="stroke:black;fill:#ffb3d9"/><path id="182624015" parent_id="182623993" order="9" structure_id="1048" d="M5245.627,6289.059
			c57.089-26.828,62.098-71.434,92.799-138.758l-30.253-22.881c-153.681-111.709-228.614-274.383-276.142-452.676
			c-26.231-98.412-24.774-200.297-19.351-301.168c2.731-50.783,6.257-101.545,6.97-152.41c0.639-45.66-4.697-89.707,0.301-135.813
			c-23.565-4.771-55.523-17.677-69.975-35.362c-21.701-26.56-30.098-47.187-27.998-80.666c0.723-11.526,2.568-20.627-7.323-29.291
			c-28.638-25.078-99.677,5.551-127.978,15.147c-9.271,10.905-19.369,20.513-30.364,28.22
			c-57.608,40.379-134.33,62.767-156.813,67.246c0.158,29.713-4.354,80.146-7.5,136.865c-3.715,66.972-14.59,143.463-23.393,215.849
			c-15.021,123.541-14.968,378.548-42.455,461.069c-28.586,85.822-156.557,62.396-123.553,116.402s44.054,102.902,53.055,219.914
			s27.002,162.018,108.012,162.016c81.008,0,240.022,33.004,360.035,108.013c94.073,58.796,121.779,51.226,145.254,9.076
			C5087.887,6384.49,5158.188,6282.619,5245.627,6289.059z" style="stroke:black;fill:#ffb3d9"/><path id="182624013" parent_id="182623993" order="10" structure_id="136" d="M5338.43,6150.301
			c0.578-3.841,1.219-7.579,1.908-11.193c15.614-81.646,93.596-127.615,173.059-135.554c43.796-4.366,87.258,6.806,130.508-6.675
			c41.255-12.869,81.654-38.236,124.676-44.207c14.213-1.977,28.712-1.833,43.625,1.584c20.471,4.684,37.96,14.342,53.425,26.947
			c-5.804-9.006-17.994-17.153-17.994-17.153c-69.615-48.224-110.567-128.422-185.022-177.081
			c-79.324-51.848-140.403-115.749-200.465-189.355c-62.703-76.842-114.797-162.303-155.029-252.932
			c-20.417-45.991-37.779-93.346-51.846-141.661c-13.041-44.804-25.086-90.267-29.387-136.923
			c-40.479,26.367-86.001,25.457-124.777,27.48c-7.744,0.404-80.104-1.824-80.584-8.541c-6.313,46.422-0.293,92.448-0.858,135.109
			c-0.677,50.982-4.203,101.863-6.946,152.762c-5.451,101.092-6.978,203.203,19.313,301.834
			c47.526,178.295,122.46,340.967,276.142,452.676l30.252,22.881" style="stroke:black;fill:#ffb3d9"/><path id="182624008" parent_id="182623993" order="11" structure_id="307" d="M5002.669,6556.023
			c55.81,63.281,76.849,185.258-31.153,198.412c-73.233,8.92-149.537-22.48-221.016-35.937
			c-82.311-15.493-158.564-13.964-222-11.425c-85.563,3.425-131.298,20.425-164.292-26.855
			c-27.711-39.713,35.104-103.426,52.755-146.771c23.686-58.208,37.744-125.364,103.837-145.918
			c71.049-22.099,189.396,22.252,257.229,40.733C4856.734,6449.706,4947.967,6494.02,5002.669,6556.023z" style="stroke:black;fill:#ffb3d9"/><path id="182624009" parent_id="182623993" order="12" structure_id="852" d="M5847.635,5964.05
			c-69.615-48.224-110.568-128.422-185.021-177.081c-79.324-51.848-140.404-115.749-200.467-189.355
			c-119.91-146.953-202.746-327.976-234.633-515.051c-11.728-70.814,75.854-188.648,142.731-190.241s150.179,47.123,164.013,95.541
			c19.108,66.879,58.916,49.362,119.426,74.841c56.14,23.637,83.496,45.904,96.057,145.641h-0.005
			c-1.144,6.367-1.747,12.681-1.729,18.902c0.239,84.852,82.448,111.232,152.412,102.693l0,0l3.527,1.25
			c62.586,20.998,138.917,91.441,132.523,168.145l0.002,0.002c-4.559,10.773-9.494,21.754-14.76,32.873
			c-50.386,106.395-118.299,219.984-103.687,342.417c14.267,25.627,32.586,51.937,54.033,76.142l0.353-0.304
			C5994.803,6002.85,5937.923,6017.061,5847.635,5964.05z" style="stroke:black;fill:#ffb3d9"/><path id="182624014" parent_id="182623993" order="13" structure_id="970" d="M4434.77,4623.611
			c14.406,14.703,37.838,25.729,59.356,40.987c50.778,36.026,114.724,80.944,177.595,93.312v0.004
			c29.931,10.807,54.041,12.363,78.389,17.971c37.133,8.014,74.247,15.561,111.575,22.73l-2.489,12.985
			c-19.506,57.728-51.306,135.647-102.879,171.799c-57.609,40.379-134.33,62.767-156.814,67.245
			c-18-160.146-37.402-166.948-69.141-221.529c-40.217-69.168-57.861-101.615-110.527-178.615
			c-7.305-10.681,6.484-21.537,14.938-26.897L4434.77,4623.611z" style="stroke:black;fill:#ffb3d9"/><path id="182623998" parent_id="182623993" order="14" structure_id="978" d="M5234.5,6867.352
			c-19-69.852-191.741-155.896-169.188-363.883c14.416-132.896,138.416-298.271,273.641-166.262
			c60.452,59.088,63.354,175.077,96.764,250.256c37.654,84.709,46.155,63.381,58.83,157.74L5346.5,6849.574l-56.245,17.777H5234.5
			L5234.5,6867.352z" style="stroke:black;fill:#ffb3d9"/><path id="182623999" parent_id="182623993" order="15" structure_id="169" d="M4494.126,4664.6
			c85.526,60.682,208.411,146.59,300.601,59.68c89.312-84.212,125.107-211.191-1.377-281.889
			c-80.321-44.898-161.67-52.229-251.322-53.867c-35.7-0.646-98.791,142.535-113.436,174.102
			C4401.57,4620.813,4451.588,4634.436,4494.126,4664.6" style="stroke:black;fill:#ffb3d9"/><path id="182624005" parent_id="182623993" order="16" structure_id="1069" d="M5024.146,6941.486
			c-58.398-35.265-127.525-61.441-195.162-74.865c-48.162-9.563-96.805-16.57-145.883-17.703c-19.287-0.443-109,8.223-122.334-6.924
			c-16.803-19.088,78.976-41.955,97.66-44.36c93.717-12.022,188.238-18.999,282.844-18.213
			c90.802,0.754,263.427-11.735,285.027,103.927c12.438,66.646-85.205,144.122-110.977,131.697
			C5081.604,6998.791,5059.009,6962.538,5024.146,6941.486z" style="stroke:black;fill:#ffb3d9"/><path id="182624002" parent_id="182623993" order="17" structure_id="209" d="M5985.686,4484.13
			c14.832,21.711,30.056,43.088,43.137,66.411c24.802,44.193,71.163,113.957,76.596,174.756
			c5.426,60.691-59.434,73.749-106.268,89.75c-116.702,39.874-261.244,131.546-381.408,110.895
			c-116.645-20.064-166.818-268.729-159.952-375.938c5.669-88.605,23.142-180.262,47.349-265.766
			c18.685-66.015,25.647-351.949,161.955-262.069c46.785,30.854,62.75,89.229,87.99,136.059
			c24.176,44.817,62.953,77.382,103.451,106.929c55.598,40.57,63.53,109.465,94.768,167.263
			C5963.1,4450.544,5974.282,4467.438,5985.686,4484.13z" style="stroke:black;fill:#ffb3d9"/><path id="182624003" parent_id="182623993" order="18" structure_id="202" d="M5196.057,3894.674
			c150.821-7.176,344.056-11.271,323.358,193.917c-14.604,144.831-74.576,292.647-84.474,441.689
			c-5.008,75.455,3.91,150.491,28.076,226.802c31.203,98.512,32.996,103.915-71.929,104.682
			c-91.885,0.662-183.892-9.295-274.847-21.479c-122.795-16.457-245.026-38.267-366.136-64.399
			c100.998-54.311,187.246-182.672,119.724-295.28c-63.693-106.235-208.524-105.621-317.27-110.933
			C4713.568,4136.316,4889.624,3909.254,5196.057,3894.674" style="stroke:black;fill:#ffb3d9"/><path id="182624004" parent_id="182623993" order="19" structure_id="217" d="M5809.573,4169.305
			c49.685,40.453,115.438,57.578,195.53,71.103c43.119,7.28,108.125,50.886,143.58-0.798c26.193-38.225,12.543-104.9,31.154-150.003
			c20.354-49.347,57.072-83.056,52.38-141.419c-16.127-200.542-263.476-80.13-370.11-63.547
			c-86.598,13.455-168.373,17.07-140.826,129.367C5739.484,4088.196,5769.223,4136.447,5809.573,4169.305z" style="stroke:black;fill:#ffb3d9"/><path id="182624006" parent_id="182623993" order="20" structure_id="765" d="M5788.078,4914.641
			c-55.084,17.658-106.602,26.78-160.555,47.742c-28.102,10.922-41.801,12.434-49.881,45.136
			c17.83,63.481,273.535,9.726,392.322-51.546c45.48-23.462,280.1-114.186,262.881-174.458
			c-14.67-51.351-56.218-28.694-109.755-3.881c-56.021,25.966-124.179,55.528-142.181,62.761
			C5918.88,4865.33,5851.691,4894.232,5788.078,4914.641z" style="stroke:black;fill:#ffb3d9"/><path id="182624000" parent_id="182623993" order="21" structure_id="206" d="M4314.24,6676.35c33.32-48.809,65.229-99.271,84.721-157.063
			c60.979-180.873,70.35-445.668-48.728-592.719L4314.24,6676.35z" style="stroke:black;fill:#ffc6e2"/><path id="182624001" parent_id="182623993" order="22" structure_id="230" d="M4313.27,6677.881
			c69.652,57.704,63.865,172.762-4.313,228.045L4313.27,6677.881z" style="stroke:black;fill:#ffc6e2"/><path id="182624018" parent_id="182623993" order="23" structure_id="512" d="M4600.093,671.415
			c117.569-13.842,370.388-4.704,528.531,64.338c87.331,38.127,139.622,77.937,225.08,120.16
			c82.452,40.733,169.638,60.073,254.938,91.741c106.758,39.646,192.654,114.237,288.791,172.679
			c99.891,60.733,201.133,75.412,317.836,73.978c81.783-1.01,135.802-10.002,214.353,19.829
			c66.708,25.331,130.067,45.226,192.679,81.097c105.187,60.252,208.367,133.117,304.088,207.425
			c90.816,70.512,204.604,234.938,387.287,292.292c221.276,69.469,459.698,248.224,490.274,274.256
			c255.949,217.884,419.16,516.493,439.042,857.732c26.202,449.685-290.313,595.477-432.208,734.02
			c-72.938,71.216-109.575,151.498-110.356,254.98c-1.125,149.155,182.293,130.67,288.293,155.998
			c128.365,30.674,230.937,103.976,304.584,211.916c312.965,458.717,323.563,1076.277-126.427,1354.627
			c-325.166,201.142-533.606-113.709-581.368-397.426c-23.598-140.168-70.984-210.524-204.759-255.551
			c-52.763-17.756-87.208-47.9-111.7-85.688c-28.924-44.631-43.967-99.916-58.904-158.047
			c-17.504-68.116-33.533-136.845-65.494-200.033c-28.256-55.817-53.709-74.536-99.98-117.862
			c-79.911-74.828-143.313-101.699-228.15-156.85c-106.487-69.209-219.939-119.316-339.028-163.152
			c-46.304-17.053-175.672-52.112-253.286-70.108c-22.708-5.267,16.186-32.621,8.667-93.521
			c-5.417-43.901-57.081-118.096-124.033-112.418c-94.319,7.994-228.231,57.932-358.96,85.055
			c-32.922,6.834-35.779,36.641-38.167,36.07c-121.915-29.226-254.296-24.681-371.022-74.73
			c-101.765-43.637-171.185-142.171-280.832-171.563c-66.691-17.883-146.049-24.644-215.151-28.81
			c-128.26-7.721-260.917,33.431-379.672,13.818L4600.093,671.415z" style="stroke:black;fill:#f0f080"/><path id="182624033" parent_id="182623993" order="24" structure_id="10713" d="M4530.298,3207.583
			c39.528-17.541,81.247-24.509,122.795-30.796c32.246-4.879,68.593-11.184,76.909-9.982c48.102,6.973,234.198-1.877,360.73-64.703
			c64.313-31.938,112.517-95.272,109.828-125.683c-7.362-83.254-128.357-72.355-167.381-48.323
			c-29.867,18.392-94.123,50.914-128.603,78.726c-43.763,35.313-148.915,105.312-246.37,136.394
			c-86.355,27.549-137.248-18.903-172.602,15.426l-1.176,24.656C4488.824,3201.13,4502.04,3220.13,4530.298,3207.583z" style="stroke:black;fill:#fffc91"/><path id="182624035" parent_id="182623993" order="25" structure_id="10713" d="M5245.09,1730.97
			c171.934,122.835,301.342,308.033,317.738,522.565c7.615,99.597-38.039,199.17-17.072,296.361
			c19.801,91.791,52.323,200.07,110.52,274.988c40.396,51.989,107.473,94.211,164.117,92.027
			c-10.404-85.914-25.361-173.072-36.076-252.4c-22.148-163.988-56.101-328.141-111.604-487.599
			c-121.662-349.534-378.857-735.271-784.541-768.431c-104.145-8.508-211.921-34.095-317.441-34.098l-6.508,136.418
			c50.016,10.802,315.815,19.479,335.104,24.608C5019.488,1567.414,5144.507,1659.11,5245.09,1730.97z" style="stroke:black;fill:#fffc91"/><path id="182624032" parent_id="182623993" order="26" structure_id="10711" d="M5522.127,2967.867
			c29.354-113.99-124.277-212.231-210.012-245.729c-184.525-72.087-396.297-5.722-580.073,36.601
			c-79.873,18.399-147.472,42.202-229.506,45.077l-16.929,354.822c35.354-34.329,86.244,12.124,172.602-15.426
			c97.455-31.081,202.607-101.08,246.37-136.393c34.479-27.812,98.733-60.334,128.603-78.727
			c39.022-24.032,160.019-34.93,167.381,48.324c2.688,30.41-45.515,93.746-109.828,125.682
			c-126.533,62.827-312.631,71.676-360.73,64.704c-8.316-1.201-44.663,5.103-76.909,9.981
			c-41.548,6.289-83.267,13.257-122.795,30.797c-28.258,12.545-41.474-6.455-45.867-24.289l-9.442,197.914
			c5.139-0.7,8.84-0.838,11.89-0.657c7.405,0.364,10.74,2.635,21.787,3.243c1.04,0.057,2.146,0.099,3.328,0.123
			c102.929,2.15,207.845-20.668,305.125-53.076c129.421-43.109,249.142-105.887,370.069-166.271
			c33.93-20.791,67.037-43.151,99.189-67.354C5344.875,3053.182,5501.984,3046.104,5522.127,2967.867z" style="stroke:black;fill:#ece754"/><path id="182624034" parent_id="182623993" order="27" structure_id="10711" d="M4808.491,2628.569
			c129.466-9.384,257.131-34.634,387.224-37.272c157.028-3.181,223.517,53.248,303.98,176.865
			c64.654,99.309,132.716,192.133,250.672,230.073c24.548,7.895,51.949,12.946,79.313,14.016
			c-2.153-31.292-5.398-63.225-9.287-95.339c-56.646,2.184-123.724-40.038-164.117-92.027
			c-58.196-74.918-90.72-183.197-110.521-274.988c-20.966-97.19,24.688-196.765,17.071-296.361
			c-16.396-214.532-145.805-399.73-317.737-522.565c-100.583-71.859-225.603-163.557-345.765-195.559
			c-19.287-5.129-285.088-13.808-335.104-24.608l-35.618,746.592c-8.106,207.602-15.597,381.787-18.538,399.779
			C4611.877,2635.352,4704.973,2636.063,4808.491,2628.569z" style="stroke:black;fill:#ece754"/><path id="182624029" parent_id="182623993" order="28" structure_id="10722" d="M4888.172,1408.482
			c405.684,33.16,662.879,418.896,784.541,768.431c55.503,159.458,89.454,323.61,111.604,487.598
			c10.715,79.329,25.672,166.487,36.076,252.401c41.08-1.583,76.676-26.52,92.623-88.032
			c36.979-142.647-38.592-362.991-76.515-502.104c-43.421-159.285-112.776-315.983-126.574-481.856
			c-7.208-86.609,41.558-175.827,38.86-266.408c-3.73-125.254-67.426-212.487-142.945-310.398
			c-110.292-142.979-252.977-213.131-430.701-231.262c-126.729-12.935-254.907-7.147-358.031,76.8
			c-47.566,38.726-84.721,90.406-102.127,149.567c-48.502,4.797-92.309-0.403-138.163-16.446l-6.088,127.614
			C4676.251,1374.388,4784.027,1399.975,4888.172,1408.482z" style="stroke:black;fill:#fffc91"/><path id="182624031" parent_id="182623993" order="29" structure_id="10722" d="M4881.072,792.373
			c90.76,12.454,188.662,32.303,269.283,80.176c79.088,46.96,148.604,81.259,239.969,107.001
			c81.613,22.994,185.854,29.257,261.635,64.806c146.023,68.509,281.477,195.97,349.193,342.446
			c99.133,214.476,116.367,456.236,149.746,686.968c20.826,143.959,59.133,291.834,59.035,437.771
			c-0.072,135.403-51.24,265.214-50.125,400.703c0.996,120.617,94.844,254.965,200.986,275.72
			c2.417-27.128,4.833-53.153,8.117-75.464c10.643-72.298,19.997-144.404,23.587-215.999
			c19.258-384.071-73.384-824.948-178.769-1193.121c-51.779-180.901-140.549-348.168-191.678-528.576
			c-43.889-11.475-86.46-28.938-128.791-54.676c-96.128-58.437-182.025-133.028-288.79-172.674
			c-85.295-31.668-172.487-51.008-254.94-91.746c-85.449-42.22-137.74-82.028-225.07-120.155
			c-158.152-69.042-402.634-77.782-520.203-63.938l-6.063,127.088C4626.768,763.511,4852.732,788.489,4881.072,792.373z" style="stroke:black;fill:#fffc91"/><path id="182624030" parent_id="182623993" order="30" structure_id="10720" d="M4714.982,1263.217
			c17.405-59.161,54.56-110.841,102.127-149.566c103.123-83.947,231.303-89.734,358.03-76.801
			c177.726,18.131,320.409,88.284,430.701,231.263c75.521,97.911,139.215,185.145,142.944,310.398
			c2.696,90.581-46.067,179.798-38.859,266.408c13.798,165.874,83.152,322.572,126.574,481.856
			c37.923,139.112,113.493,359.457,76.516,502.104c-15.949,61.512-51.543,86.449-92.623,88.032
			c3.889,32.114,7.133,64.047,9.287,95.339c79.821,3.12,159.334-27.711,166.838-121.249c11.51-143.522,9.033-278.051,2.33-422.218
			c-3.422-73.59-19.418-145.421-29.592-218.189c-6.72-48.015-32.547-82.826-40.033-127.156
			c-6.264-37.108,12.299-68.101,22.439-103.119c12.227-42.204,14.58-92.911,24.248-136.865
			c-7.559,34.372,21.234,89.563,18.855,128.162c-2.646,42.994-15.564,77.561-10.369,122.554
			c8.35,72.369,43.486,138.339,53.586,209.755c9.474,66.952,1.662,140.025,1.711,208.35
			c0.139,165.369-11.892,358.871,70.414,508.711c46.967,85.508,141.131,167.082,244.059,196.291
			c2.557-22.852,4.594-46.472,6.629-69.313c-106.145-20.755-199.991-155.104-200.986-275.72
			c-1.115-135.488,50.053-265.3,50.125-400.703c0.099-145.938-38.209-293.812-59.035-437.771
			c-33.379-230.732-50.612-472.493-149.746-686.969c-67.719-146.477-203.17-273.938-349.193-342.445
			c-75.781-35.55-180.021-41.813-261.635-64.807c-91.363-25.742-160.881-60.041-239.969-107.001
			c-80.62-47.873-178.523-67.722-269.283-80.176c-28.34-3.884-254.307-28.862-282.877,6.33l-21.376,448.067
			C4622.674,1262.813,4666.48,1268.014,4714.982,1263.217z" style="stroke:black;fill:#ece754"/><path id="182624028" parent_id="182623993" order="31" structure_id="10674" d="M6392.5,2896.501
			c-3.59,71.594-12.945,143.701-23.587,215.999c-3.284,22.311-5.7,48.336-8.117,75.464c56.431,11.034,116.333-10.028,167.608-82.348
			c106.773-150.585,84.799-413.739,55.524-584.875c-24.671-144.277-86.883-274.361-120.538-415.222
			c-27.832-116.426-23.661-236.313-78.087-345.834c-35.683-71.782-303.769-456.998-67.009-458.704
			c106.333-0.767,212.414,92.617,297.872,144.782c95.451,58.253,186.862,120.791,269.56,196.404
			c67.679,61.879,131.705,152.395,50.313,231.938c-73.696,72.01-84.407,149.217-112.801,243.979
			c-35.92,119.826,20.321,263.357,39.228,382.264c17.787,111.859,9.514,220.656,8.015,333.115
			c-1.433,107.826,23.925,369.783,161.194,425.746c-8.6-194.754,22.129-413.209,55.047-570.72
			c24.711-111.196,121.974-179.436,167.959-279.254c60.11-130.483,18.992-267.077-6.395-400.552
			c-14.729-77.434-22.156-162.989-13.471-244.744c-140.246-71.917-234.847-201.113-312.592-261.479
			c-95.721-74.308-198.91-147.173-304.086-207.426c-62.619-35.87-125.972-55.765-192.688-81.1
			c-78.543-29.827-132.568-20.835-214.346-19.825c-67.25,0.826-129.367-3.699-189.053-19.306
			c51.129,180.408,139.896,347.674,191.678,528.576C6319.116,2071.554,6411.758,2512.431,6392.5,2896.501z" style="stroke:black;fill:#fffc91"/><path id="182624027" parent_id="182623993" order="32" structure_id="10672" d="M6870.48,2833.466
			c1.498-112.458,9.772-221.256-8.016-333.116c-18.904-118.904-75.146-262.437-39.227-382.263
			c28.394-94.764,39.104-171.97,112.801-243.979c81.393-79.544,17.365-170.061-50.313-231.938
			c-82.696-75.614-174.108-138.151-269.56-196.405c-85.459-52.164-191.539-145.548-297.873-144.781
			c-236.76,1.706,31.326,386.922,67.01,458.704c54.426,109.521,50.254,229.409,78.086,345.834
			c33.655,140.86,95.867,270.944,120.539,415.222c29.272,171.135,51.248,434.289-55.524,584.875
			c-51.276,72.319-111.181,93.382-167.608,82.348c-2.035,22.84-4.074,46.46-6.629,69.313c40.887,11.603,83.153,14.951,124.397,6.984
			c82.688-15.977,173.001-129.51,208.758-200.949c56.2-112.305,34.136-286.417,16.94-407.248
			c-9.326-65.551-10.873-136.669-28.946-200.368c-22.651-79.813-48.942-159.777-66.162-240.983
			c-15.134-71.383-10.882-144.732-24.093-216.229c-10.255-55.472-28.654-115.232-28.443-171.799
			c0.1-26.101,24.225-89.493,6.027-111.14c70.234,83.531,55.379,228.832,67.686,328.994
			c24.013,195.403,95.453,383.543,132.112,577.061c25.608,135.102,44.456,270.953,73.949,405.386
			c24.183,110.24,102.769,280.21,207.116,356.729c-6.125-39.744-9.938-81.543-11.835-124.502
			C6894.404,3203.249,6869.049,2941.292,6870.48,2833.466z" style="stroke:black;fill:#ece754"/><path id="182624026" parent_id="182623993" order="33" structure_id="10677" d="M7761.793,3704.66
			c6.926-4.617,28.432-27.892,44.829-43.899c141.896-138.543,458.41-284.335,432.199-734.018
			c-19.873-341.24-183.084-639.851-439.041-857.733c-30.577-26.031-268.99-204.787-490.267-274.255
			c-26.281-8.251-51.131-18.728-74.697-30.813c-8.686,81.754-1.258,167.31,13.471,244.743
			c25.387,133.475,66.506,270.068,6.395,400.553c-45.984,99.818-143.247,168.057-167.958,279.254
			c-32.918,157.512-63.646,375.966-55.048,570.719c15.861,6.467,33.214,10.191,52.197,10.602
			c166.939,3.607,152.418-398.306,298.955-463.75c82.256-36.73,166.817-31,202.688-131.629
			c30.479-85.515,2.19-183.345-30.625-263.666c-29.176-71.396-257.155-365.546-180.056-439.449
			c24.062-22.885,142.277,14.246,168.92,24.854c57.455,22.889,107.076,62.818,152.117,104.342
			c90.68,83.582,165.278,184.311,229.096,289.442c129.742,213.718,207.536,474.098,173.669,725.096
			c-22.212,164.623-47.282,360.813-229.991,419.873c-112.589,36.393-62.971-64.183-106.488-111.53
			c-56.502-61.466-231.09,39.528-280.457,81.521c-74.561,63.435-33.949,183.247,39.976,235.542
			c54.905,38.844,159.211,9.859,215.313-23.145C7736.99,3717.313,7754.867,3709.277,7761.793,3704.66z" style="stroke:black;fill:#fffc91"/><path id="182624025" parent_id="182623993" order="34" structure_id="10675" d="M7736.99,3717.313
			c-56.104,33.002-160.409,61.987-215.314,23.144c-73.924-52.295-114.535-172.108-39.976-235.542
			c49.367-41.992,223.956-142.986,280.458-81.52c43.52,47.347-6.102,147.922,106.488,111.529
			c182.709-59.06,207.778-255.25,229.99-419.873c33.867-250.998-43.926-511.378-173.668-725.096
			c-63.816-105.132-138.416-205.861-229.096-289.441c-45.042-41.523-94.662-81.454-152.117-104.343
			c-26.643-10.608-144.859-47.737-168.92-24.854c-77.102,73.903,150.879,368.054,180.055,439.448
			c32.816,80.322,61.104,178.152,30.625,263.668c-35.871,100.627-120.433,94.897-202.688,131.627
			c-146.537,65.445-132.015,467.358-298.955,463.75c-18.983-0.408-36.335-4.134-52.196-10.601
			c1.896,42.959,5.709,84.758,11.834,124.502c72.791,53.377,158.115,61.286,246.262-28.301
			c84.79-86.175,163.404-176.724,252.96-258.511c91.47-83.541,192.5-194.031,219.655-318.487
			c16.429-75.248,2.32-148.032-20.437-220.177c-18.229-57.805-28.345-128.537-49.962-182.236
			c28.825,71.62,71.93,136.877,93.676,211.433c24.893,85.345,31.732,175.554,60.2,260.8c19.035,57.023,55.55,109.021,71.367,166.848
			c18.188,66.523,8.112,139.189,14.522,207.238c-7.479-79.354-33.362-232.053-139.149-228.399
			c-109.819,3.795-175.388,151.042-245.728,215.534c-74.047,67.893-140.854,140.669-213.728,209.49
			c-76.547,72.291-79.919,142.216-21.877,232.41c68.81,106.916,155.22,116.698,266.343,152.215
			c-20.534,2.736-42.587,2.741-65.576,1.222c11.366,3.469,22.712,7.171,33.9,11.407c35.033-3.634,66.252-9.812,99.385-26.668
			C7679.854,3771.883,7703.335,3737.107,7736.99,3717.313z" style="stroke:black;fill:#ece754"/><path id="182624024" parent_id="182623993" order="35" structure_id="10689" d="M8289.142,4283.656
			c-73.647-107.942-176.218-181.244-304.592-211.918c-101.663-24.293-274.552-8.283-287.513-138.553
			c-31.408-31.996-61.506-66.454-98.289-90.707c-16.783-11.064-34.586-19.383-52.809-26.283c-5.713,0.593-11.523,1.121-17.464,1.612
			c-92.535,7.652-181.202,8.19-263.101,59.896c-62.131,39.222-173.303,207.926-116.824,283.675
			c106.912,143.287,342.955-312.753,423.443-117.138c8.576,20.854,17.666,98.294,10.816,118.433
			c-19.117,55.676-66.74,58.192-61.006,129.06c9.031,111.773,134.457,9.504,193.565-8.785
			c219.776-68.022,380.739,86.623,426.728,291.938c20.599,92.011,68.426,187.187,107.474,272.708
			c31.529,69.055,84.618,133.872,98.514,210.105c7.396,40.606-11.524,47.258-36.563,72.53c-22.358,22.558-26.105,56.021-46.175,79.5
			c-37.874,44.293-96.388,60.754-144.875,89.655c-103.874,61.939-237.054,158.25-364.946,145.568
			c-40.871-4.048-79.594-29.648-105.707-60.648c-27.188-32.291-26.063-72.209-39.608-110.174
			c-11.317-31.754-19.06-59.627-19.19-86.893c-0.137-27.971,7.737-55.3,27.996-85.525c35.121-52.416,82.403-96.985,129.172-138.867
			c10.345-9.262,20.021-19.269,29.656-29.254c39.396-40.875,77.102-85.066,126.802-113.455
			c24.386-13.93,64.997-26.807,58.497-62.949c-7.469-41.537-99.377-100.551-130.189-126.191
			c-46.793-38.941-100.844-37.395-150.472-67.836c-56.778-34.832-102.741-95.789-164.515-126.479
			c-48.533-24.114-101.854-24.155-146.943-46.744c0,0-39.448-7.162-56.837-19.808c-3.162,67.974,42.987,69.929,42.987,69.929
			c16.541,3.992,47.951,9.49,52.733,10.248c45.955,7.23,90.663,15.229,106.33,67.367c0.58,1.931,1.125,3.914,1.624,5.967
			c-2.762-11.383-55.492-1.629-63.507-2.265c-19.979-1.597-38.192-14.099-58.692-13.59c0.537-0.017,14.236,15.606,16.631,17.035
			c7.795,4.64,17.504,4.722,24.803,10.603c11.402,9.174,24.744,23.701,29.297,37.658c8.438,25.889-1.377,53.379,9.727,78.814
			c10.4,23.854,25.412,47.221,38.402,69.9c28.043,49.008,58.621,99.752,65.453,156.86c3.602,30.165-0.479,60.771-8.412,89.938
			c-5.115,18.791-10.117,55.684-25.129,69.248c-15.207-15.088,2.826-53.731-16.403-61.946
			c-20.843-8.897-70.756,46.735-77.972,27.563c-4.563-12.101,9.194-29.299,11.346-41.32c2.216-12.449-1.238-25.322,0.7-37.459
			c1.409-8.846,6.239-16.229,8.838-25.074c17.063-57.984-37.354-89.855-58.317-136.503c-15.184-33.776-31.155-67.282-42.403-102.651
			c-9.862-30.979-15.817-74.002-35.397-100.521c-30.512-41.332-112.101-23.958-133.945,16.034
			c-11.623,21.286-12.201,46.093-6.898,69.293c4.18,18.254,17.951,67.728,34.233,78.246c19.418,12.543,34.86,30.882,50.401,47.758
			c16.086,17.479,17.756,33.224,21.471,56.38c2.802,17.496-3.372,48.234-25.389,47.221c-11.291-0.517-20.838-7.949-28.554-17.709
			l-4.228,3.459c6.133,13.695,13.027,26.752,20.971,39.004c24.492,37.789,58.938,67.934,111.7,85.689
			c24.896,8.38,46.797,17.639,66.112,28.061c48.145,25.976,80.197,59.193,102.426,104.073
			c11.429,23.075,20.265,49.228,27.342,79.075c3.31,13.954,6.238,28.709,8.869,44.337
			c47.771,283.72,256.203,598.569,581.377,397.429C8612.703,5359.934,8602.098,4742.372,8289.142,4283.656z" style="stroke:black;fill:#fffc91"/><path id="182624022" parent_id="182623993" order="36" structure_id="10687" d="M7276.697,4874.863
			c22.017,1.015,28.189-29.726,25.389-47.222c-3.715-23.155-5.384-38.899-21.471-56.38c-15.541-16.876-30.983-35.215-50.401-47.758
			c-16.282-10.52-30.056-59.992-34.233-78.246c-5.303-23.2-4.725-48.007,6.898-69.293c21.846-39.992,103.436-57.366,133.945-16.034
			c19.58,26.521,25.535,69.543,35.397,100.522c11.248,35.369,27.222,68.873,42.403,102.65
			c20.965,46.646,75.381,78.52,58.317,136.503c-2.599,8.847-7.429,16.229-8.838,25.074c-1.938,12.138,1.517,25.01-0.7,37.459
			c-2.15,12.022-15.907,29.222-11.346,41.319c7.215,19.174,57.129-36.461,77.972-27.563c19.229,8.215,1.196,46.857,16.403,61.947
			c15.013-13.565,20.014-50.459,25.129-69.25c7.933-29.166,12.014-59.771,8.412-89.938c-6.832-57.107-37.41-107.854-65.453-156.861
			c-12.99-22.68-28.002-46.047-38.402-69.899c-11.104-25.437-1.287-52.927-9.727-78.815c-4.553-13.955-17.895-28.482-29.297-37.658
			c-7.299-5.881-17.008-5.963-24.803-10.602c-2.395-1.43-16.095-17.051-16.631-17.035c20.5-0.509,38.713,11.994,58.692,13.59
			c8.015,0.637,60.745-9.118,63.507,2.266c-13.979-57.521-60.298-65.836-107.954-73.334c-6.606-1.047-62.826-10.899-62.872-13.811
			c0.348,22.156,54.093,44.287,42.925,68.016c-15.158-1.764-23.06-19.35-32.237-29.9c-10.76-12.348-18.58-16.818-34.291-22.301
			c-20.893-7.29-17.179-13.952-29.998-29.086c-8.951-10.572-28.476-20.122-40.498-27.074c-6.02-3.486-12.967-6.007-20.451-7.668
			c-27.457-6.13-62.024-0.754-83.594,10.828c-28.074,15.057-67.729,60.158-41.787,92.539
			c41.305,51.546,68.813,98.561,83.336,162.494c10.394,45.803,16.776,94.664,29.891,140.29c1.027,3.5,2.072,6.979,3.139,10.437
			c1.595,5.06,3.283,10.072,5.082,15.029C7235.564,4839.434,7251.961,4873.73,7276.697,4874.863z" style="stroke:black;fill:#ece754"/><path id="182624023" parent_id="182623993" order="37" structure_id="10687" d="M7125.574,3865.723
			c-48.152,77.536-68.182,208.131-37.734,295.359c11.23,32.197,23.196,70.625,41.53,103.977
			c18.538,33.694,43.576,62.19,80.954,73.81c39.596,12.317,117.449-20.881,164.271-41.043c3.598-1.942,7.297-3.624,11.049-4.979
			c-1.691,1.086-3.363,2.201-5.025,3.33c0,0-77.096,61.711-63.27,75.537c11.064,11.065,53.235,17.691,53.235,17.691
			c-0.413-0.091-0.806-0.191-1.21-0.285c45.436,23.427,99.469,23.154,148.594,47.563c61.771,30.69,107.734,91.647,164.514,126.479
			c49.629,30.442,103.679,28.896,150.473,67.836c30.813,25.642,122.721,84.655,130.189,126.19
			c6.5,36.145-34.111,49.021-58.498,62.949c-49.701,28.39-87.403,72.58-126.802,113.457c-9.636,9.984-19.313,19.992-29.655,29.252
			c-46.77,41.883-94.051,86.451-129.172,138.869c-40.01,59.69-31.733,108.088-8.807,172.418
			c13.546,37.965,12.422,77.883,39.609,110.174c26.112,31,64.834,56.601,105.707,60.647
			c127.893,12.683,261.071-83.629,364.945-145.567c48.486-28.902,107.001-45.363,144.875-89.656
			c20.069-23.479,23.816-56.941,46.175-79.5c25.038-25.273,43.959-31.924,36.563-72.531
			c-13.896-76.232-66.984-141.052-98.514-210.104c-39.048-85.522-86.875-180.696-107.475-272.708
			c-45.986-205.314-206.949-359.961-426.727-291.938c-59.107,18.289-184.534,120.559-193.566,8.783
			c-5.733-70.865,41.891-73.383,61.006-129.059c6.851-20.139-2.24-97.577-10.815-118.434
			c-80.489-195.614-316.532,260.426-423.444,117.139c-56.478-75.749,54.694-244.453,116.824-283.675
			c81.898-51.705,170.565-52.243,263.102-59.896c5.939-0.492,11.751-1.02,17.464-1.611c-11.188-4.236-22.534-7.938-33.899-11.407
			C7376.234,3795.813,7207.688,3733.528,7125.574,3865.723z" style="stroke:black;fill:#ece754"/><path id="182624021" parent_id="182623993" order="38" structure_id="989" d="M5422.204,3570.823
			c-50.157-51.416-117.763-80.868-190.961-69.47c-62.188,9.677-131.624,9.786-189.763,35.879
			c-65.291,29.285-82.25,108.354-2.664,132.968c55.623,17.21,113.705,29.294,168.473,48.532
			c65.633,23.059,153.818,93.644,226.113,63.314c30.561-12.82,45.467-33.969,49.945-58.469
			C5492.797,3671.977,5456.046,3605.529,5422.204,3570.823z" style="stroke:black;fill:#fffdbc"/><path id="182624019" parent_id="182623993" order="39" structure_id="91" d="M6370.889,3472.615c-30.967-5.376-61.983-9.926-92.91-14.499
			c-81.598-12.063-162.641-24.313-240.922-52.397c-108.785-39.021-202.389-113.684-323.049-114.324
			c-90.694-0.479-153.99,59.729-186.521,139.024c-18.628,45.399-64.533,152.608,16.901,168.517
			c37.842,7.375,69.461-28.133,102.699-39.552c34.683-11.92,74.649-8.381,109.274,2.252
			c69.688,21.401,129.286,52.328,187.653,95.065c52.047,38.105,110.797,65.686,171.705,86.386
			c56.853,19.315,102.229,14.921,160.912,17.625c27.996,1.291,54.051,6.533,81.564,10.146c70.031,9.166,202.111,62.248,256.96-4.229
			c42.802-51.884,29.298-153.859-10.784-204.393C6556.538,3501.912,6442.646,3485.068,6370.889,3472.615z" style="stroke:black;fill:#fffdbc"/><path id="182624020" parent_id="182623993" order="40" structure_id="846" d="M7036.012,4050.664c-4.69-90.765-5.018-180.6-26.138-270.311
			c-21.39-90.857-58.497-174.092-157.297-196.133c-77.784-17.349-143.522,13.896-181.888,83.943
			c-24.101,43.996-29.949,77.016-12.029,125.548c13.563,36.727,44.717,56.791,62.139,91.037
			c35.26,69.29,35.195,161.271,49.808,236.862c17.993,93.089,70.496,188.048,181.603,161.052
			c90.297-21.938,92.405-110.396,86.703-185.554C7037.738,4081.595,7036.818,4066.123,7036.012,4050.664z" style="stroke:black;fill:#fffdbc"/><path id="182624038" parent_id="182623993" order="41" structure_id="1009" d="M6592.4,4481.438
			c-26.635-106.797-51.787-282.896-131.004-365.672c-38.576-40.306-170.916-71.22-218.564-36.767
			c-152.54,110.313,121.729,637.374,194.766,744.921c58.636,86.316,228.476,336.395,221.39,85.918
			C6654.922,4766.958,6626.919,4619.814,6592.4,4481.438" style="stroke:black;fill:#cccccc"/><path id="182624039" parent_id="182623993" order="42" structure_id="1009" d="M4349.084,5910.695
			c11.879,46.781,66.5,36.127,136.409-15.02c71.135-52.025,63.571-297.913,72.36-405.684
			c6.781-83.174,74.498-450.107,11.334-583.963c-52.979-112.279-131.273-243.834-162.894-230.483L4349.084,5910.695z" style="stroke:black;fill:#cccccc"/><path id="182624040" parent_id="182623993" order="43" structure_id="1009" d="M4545.953,7129.246
			c176.813,37.463,397.893-27.913,560.949-96.01c-69.868-142.509-324.042-191.93-466.482-182.559
			c-108.011,7.11-220.461,28.508-319.729,75.477C4387.573,7011.479,4431.471,7104.998,4545.953,7129.246z" style="stroke:black;fill:#cccccc"/><path id="182624041" parent_id="182623993" order="44" structure_id="1009" d="M4923.198,4990.865
			c10.824,107.132,157.558,109.579,232.883,98.588c53.203-7.759,115.731-30.436,87.51-94.434
			C5207.631,4913.445,4909.1,4851.402,4923.198,4990.865z" style="stroke:black;fill:#cccccc"/><path id="182624042" parent_id="182623993" order="45" structure_id="1009" d="M4377.583,6778.745
			c0.416-5.403,2.069-11.651,5.201-18.84c27.131-62.342,153.815-48.711,206.231-52.304c29.588-2.027,189.658,0.506,149.734,31.074
			c-44.691,34.226-183.902,62.244-226.689,64.969C4485.003,6805.371,4373.628,6830.727,4377.583,6778.745z" style="stroke:black;fill:#cccccc"/><path id="182624043" parent_id="182623993" order="46" structure_id="1009" d="M7129.37,4265.059
			c-18.334-33.352-30.3-71.778-41.53-103.977c-30.446-87.229-10.418-217.823,37.734-295.359
			c96.014-154.572,310.204-43.246,452.042-62.154c-111.123-35.518-197.533-45.299-266.343-152.215
			c-58.042-90.193-54.67-160.118,21.877-232.41c72.874-68.821,139.68-141.598,213.727-209.49
			c70.34-64.492,135.908-211.738,245.729-215.534c105.787-3.653,131.672,149.046,139.148,228.399
			c-6.41-68.049,3.666-140.715-14.521-207.238c-15.816-57.826-52.332-109.824-71.367-166.847
			c-28.467-85.246-35.309-175.456-60.2-260.8c-21.747-74.557-64.851-139.813-93.676-211.434
			c21.617,53.701,31.733,124.432,49.962,182.237c22.757,72.145,36.863,144.929,20.436,220.176
			c-27.154,124.457-128.187,234.948-219.654,318.487c-89.555,81.789-168.17,172.337-252.96,258.511
			c-214.508,218.014-412.326-141.288-453.377-328.428c-29.493-134.435-48.341-270.285-73.949-405.386
			c-36.66-193.519-108.101-381.656-132.112-577.061c-12.307-100.164,2.551-245.463-67.686-328.994
			c18.195,21.646-5.93,85.038-6.027,111.139c-0.211,56.567,18.188,116.328,28.443,171.8c13.211,71.497,8.959,144.847,24.093,216.229
			c17.22,81.206,43.511,161.17,66.162,240.983c18.073,63.698,19.621,134.815,28.946,200.368
			c17.194,120.832,39.26,294.943-16.94,407.248c-35.757,71.439-126.069,184.974-208.758,200.949
			c-145.071,28.02-302.832-83.8-368.457-203.275c-82.306-149.841-70.274-343.343-70.413-508.711
			c-0.049-68.323,7.762-141.396-1.711-208.35c-10.1-71.416-45.236-137.387-53.586-209.755
			c-5.195-44.993,7.723-79.562,10.368-122.554c2.379-38.6-26.414-93.79-18.854-128.162c-9.668,43.955-12.022,94.662-24.248,136.865
			c-10.142,35.02-28.703,66.011-22.439,103.119c7.484,44.33,33.313,79.142,40.033,127.156c10.173,72.769,26.17,144.6,29.591,218.189
			c6.703,144.167,9.181,278.695-2.329,422.218c-10.076,125.604-149.999,138.156-246.15,107.233
			c-117.957-37.939-186.018-130.765-250.672-230.073c-80.465-123.617-146.953-180.046-303.98-176.865
			c-130.093,2.639-257.758,27.889-387.225,37.272c-103.787,7.514-202.383,6.516-304.506,28.52
			c5.152,47.498-1.975,100.278-2.271,146.717c82.184-2.818,150.35-26.643,230.329-45.066
			c183.776-42.321,395.548-108.688,580.073-36.601c85.734,33.497,239.366,131.738,210.012,245.729
			c-20.143,78.237-177.252,85.314-235.75,129.352c-141.431,106.459-301.194,177.644-469.26,233.624
			c-97.279,32.409-233.514,53.407-345.887,53.745c-7.307,94.279-14.396,299.913-14.396,299.913
			c97.333,1.877,255.443-18.574,383.708-10.853c69.095,4.166,148.46,10.926,215.151,28.809
			c109.641,29.393,179.067,127.927,280.824,171.563c116.727,50.051,248.049,50.404,371.03,74.729
			c11.379,2.239,15.427-23.747,33.899-34.188c32.678-18.457,83.813-28.235,110.104-32.287
			c113.566-17.513,192.02-62.478,275.832-49.384c85.318,13.325,143.8,109.981,80.357,195.907
			c-5.92,8.021,37.068,6.655,88.862,18.882c65.421,15.435,146.351,44.813,176.724,55.987
			c74.648,27.478,149.836,52.675,219.086,91.746c35.594,20.082,78.736,39.088,114.11,59.183
			c39.992,22.709,68.28,47.16,107.865,71.158c56.958,34.543,142.644,101.487,184.524,160.678
			c-11.565-57.98,59.234-105.99,106.198-100.492c16.097,1.895,44.024,5.455,61.649,15.809c21.672,12.73,32.614,33.312,45.844,44.263
			c10.203,8.448,19.93,3.274,30.035,12.646c4.562,4.239,51.121,51.728,49.004,44.263c-12.227-43.112-75.349-68.259-78.33-115.036
			c-2.67-42.533,48.438-73.139,76.508-96.579c-43.047,18.171-135.209,61.345-179.5,47.565
			C7172.945,4327.249,7147.908,4298.753,7129.37,4265.059z M5483.35,3723.58c-4.479,24.5-19.387,45.648-49.945,58.469
			c-72.296,30.328-160.48-40.257-226.113-63.314c-54.769-19.238-112.851-31.322-168.474-48.532
			c-79.585-24.614-62.627-103.682,2.664-132.967c58.14-26.093,127.575-26.203,189.763-35.879
			c73.199-11.399,140.805,18.053,190.961,69.469C5456.046,3605.529,5492.797,3671.977,5483.35,3723.58z M6615.158,3766.63
			c-54.85,66.476-186.93,13.396-256.96,4.228c-27.515-3.611-53.569-8.854-81.563-10.145c-58.686-2.704-104.062,1.689-160.914-17.625
			c-60.908-20.701-119.658-48.28-171.705-86.386c-58.367-42.737-117.965-73.664-187.652-95.065
			c-34.625-10.633-74.593-14.172-109.273-2.252c-33.239,11.419-64.858,46.928-102.701,39.553
			c-81.435-15.907-35.528-123.116-16.9-168.518c32.531-79.296,95.826-139.504,186.521-139.023
			c120.66,0.64,214.263,75.301,323.047,114.323c78.283,28.084,159.326,40.334,240.922,52.397
			c30.928,4.574,61.943,9.123,92.912,14.499c71.758,12.454,185.648,29.297,233.484,89.624
			C6644.456,3612.771,6657.96,3714.746,6615.158,3766.63z M6952.208,4282.663c-111.106,26.996-163.608-67.963-181.603-161.052
			c-14.611-75.591-14.547-167.572-49.808-236.862c-17.422-34.246-48.577-54.311-62.14-91.037
			c-17.918-48.532-12.069-81.552,12.03-125.548c38.362-70.047,104.103-101.292,181.888-83.943
			c98.799,22.041,135.908,105.275,157.297,196.133c21.119,89.709,21.445,179.545,26.138,270.311
			c0.808,15.459,1.728,30.931,2.899,46.445C7044.613,4172.27,7042.504,4260.725,6952.208,4282.663z" style="stroke:black;fill:#cccccc"/><path id="182624044" parent_id="182623993" order="47" structure_id="1009" d="M6729.336,5670.119
			c0.395-1.568,0.777-3.139,1.161-4.705c0.374-1.523,0.745-3.05,1.108-4.573c0.373-1.56,0.742-3.12,1.105-4.679
			c0.365-1.568,0.723-3.137,1.077-4.703c0.34-1.5,0.685-3,1.015-4.498c0.42-1.898,0.822-3.797,1.227-5.692
			c0.443-2.082,0.878-4.164,1.303-6.245c0.396-1.941,0.793-3.883,1.172-5.823c0.277-1.417,0.543-2.833,0.813-4.25
			c0.315-1.666,0.629-3.332,0.935-4.997c0.264-1.447,0.521-2.895,0.775-4.342c0.295-1.675,0.582-3.35,0.863-5.023
			c0.236-1.401,0.475-2.804,0.701-4.205c0.306-1.879,0.597-3.758,0.885-5.637c0.183-1.189,0.373-2.378,0.551-3.568
			c0.433-2.916,0.844-5.834,1.236-8.752c0.162-1.203,0.311-2.406,0.465-3.609c0.243-1.887,0.484-3.773,0.711-5.663
			c0.16-1.336,0.313-2.672,0.464-4.009c0.203-1.789,0.399-3.579,0.587-5.369c0.141-1.331,0.279-2.661,0.41-3.993
			c0.188-1.91,0.363-3.821,0.533-5.733c0.105-1.188,0.219-2.373,0.318-3.561c0.25-2.993,0.48-5.988,0.688-8.99
			c0.057-0.813,0.1-1.63,0.15-2.443c0.149-2.301,0.291-4.602,0.414-6.905c0.063-1.215,0.117-2.433,0.176-3.647
			c0.09-1.938,0.176-3.875,0.248-5.815c0.047-1.269,0.092-2.538,0.131-3.81c0.062-1.972,0.108-3.946,0.151-5.924
			c0.024-1.183,0.054-2.365,0.071-3.549c0.037-2.482,0.056-4.971,0.063-7.461c0.001-0.662,0.012-1.324,0.012-1.987
			c-0.002-3.104-0.033-6.22-0.084-9.337c-0.017-1.038-0.047-2.08-0.068-3.12c-0.046-2.16-0.102-4.323-0.171-6.491
			c-0.039-1.204-0.086-2.411-0.133-3.618c-0.079-2.063-0.171-4.133-0.272-6.205c-0.058-1.187-0.115-2.371-0.181-3.56
			c-0.127-2.317-0.272-4.644-0.429-6.972c-0.061-0.905-0.112-1.81-0.178-2.717c-0.229-3.211-0.481-6.431-0.764-9.659
			c-0.064-0.745-0.143-1.496-0.21-2.242c-0.229-2.52-0.472-5.044-0.731-7.575c-0.119-1.144-0.246-2.291-0.371-3.437
			c-0.238-2.186-0.487-4.373-0.75-6.566c-0.145-1.199-0.289-2.398-0.44-3.602c-0.286-2.277-0.589-4.563-0.901-6.852
			c-0.146-1.057-0.283-2.109-0.433-3.169c-0.474-3.326-0.965-6.661-1.493-10.011c-28.271-179.058-116.051-340.654-226.709-480.375
			c-22.889-28.897-49.277-58.736-69.096-89.574c-1.43-2.225-2.84-4.438-4.234-6.645c-1.124-1.777-2.229-3.545-3.332-5.313
			c-0.268-0.426-0.54-0.856-0.807-1.283c-1.819-2.926-3.605-5.834-5.373-8.734c-0.352-0.575-0.699-1.148-1.047-1.723
			c-1.664-2.742-3.311-5.477-4.934-8.201c-0.066-0.112-0.135-0.227-0.202-0.338c-1.831-3.078-3.638-6.148-5.422-9.213
			c-0.042-0.072-0.083-0.146-0.126-0.217c-1.787-3.069-3.555-6.135-5.303-9.197c-0.903-1.582-1.801-3.164-2.695-4.745
			c-0.085-0.149-0.17-0.3-0.254-0.45c-22.59-39.984-42.508-80.006-67.475-127.529c-0.235-0.447-0.474-0.897-0.709-1.348
			c-1.063-2.02-2.133-4.055-3.215-6.102c-0.248-0.472-0.496-0.94-0.746-1.414c-1.307-2.472-2.623-4.959-3.959-7.474
			c-0.047-0.089-0.097-0.181-0.144-0.269c-1.228-2.308-2.468-4.635-3.72-6.979c-0.392-0.73-0.785-1.466-1.179-2.2
			c-0.979-1.831-1.97-3.674-2.967-5.528c-0.396-0.736-0.792-1.473-1.19-2.213c-1.362-2.527-2.735-5.069-4.131-7.644
			c-50.914-93.839-66.342-207.485-146.406-283.978c-40.529-38.713-201.216-116.131-228.428-18.599
			c-22.09,79.269,67.578,172.233,106.422,232.104c1.418,2.184,2.818,4.388,4.209,6.605c0.117,0.188,0.234,0.378,0.353,0.566
			c1.278,2.047,2.547,4.108,3.806,6.183c0.162,0.267,0.324,0.534,0.485,0.801c1.224,2.021,2.437,4.054,3.644,6.097
			c0.166,0.279,0.332,0.561,0.498,0.842c1.217,2.064,2.428,4.141,3.633,6.224c0.14,0.241,0.278,0.479,0.418,0.722
			c1.248,2.162,2.489,4.33,3.729,6.504c0.257,0.453,0.514,0.908,0.771,1.36c1.006,1.772,2.013,3.551,3.016,5.331
			c0.512,0.907,1.021,1.816,1.533,2.725c0.324,0.576,0.646,1.153,0.973,1.729c12.791,22.79,25.492,45.921,40.094,67.328
			c0.009,0.013,0.018,0.024,0.025,0.038c15.858,28.113,32.809,49.471,82.455,90.846c15.381,12.816,30.17,26.949,44.606,42.533
			c-0.067,0.055-0.134,0.11-0.202,0.164c-0.645,0.512-1.283,1.029-1.915,1.56c-0.14,0.116-0.274,0.235-0.414,0.353
			c-0.578,0.49-1.151,0.985-1.722,1.49c-0.16,0.144-0.319,0.287-0.479,0.433c-0.542,0.487-1.08,0.981-1.612,1.483
			c-0.168,0.16-0.336,0.318-0.504,0.479c-0.521,0.499-1.037,1.004-1.549,1.515c-0.166,0.166-0.33,0.33-0.496,0.498
			c-0.512,0.52-1.019,1.045-1.521,1.576c-0.153,0.162-0.31,0.326-0.463,0.49c-0.515,0.553-1.022,1.111-1.526,1.676
			c-0.133,0.148-0.266,0.295-0.396,0.443c-0.539,0.611-1.069,1.23-1.597,1.855c-0.09,0.106-0.181,0.211-0.27,0.316
			c-2.484,2.98-4.82,6.116-6.994,9.389c-0.093,0.139-0.182,0.278-0.271,0.418c-0.438,0.664-0.871,1.332-1.295,2.008
			c-0.133,0.215-0.265,0.432-0.397,0.646c-0.374,0.605-0.745,1.215-1.108,1.829c-0.151,0.255-0.299,0.513-0.449,0.769
			c-0.338,0.582-0.674,1.166-1.002,1.756c-0.156,0.278-0.311,0.561-0.465,0.842c-0.313,0.574-0.623,1.149-0.929,1.73
			c-0.153,0.293-0.308,0.588-0.459,0.883c-0.297,0.576-0.588,1.156-0.876,1.738c-0.146,0.301-0.296,0.602-0.441,0.903
			c-0.283,0.588-0.562,1.181-0.836,1.774c-0.139,0.299-0.277,0.597-0.412,0.896c-0.277,0.614-0.547,1.231-0.813,1.853
			c-0.122,0.283-0.247,0.563-0.366,0.849c-0.283,0.67-0.557,1.345-0.826,2.021c-0.096,0.236-0.193,0.472-0.286,0.709
			c-0.325,0.83-0.642,1.666-0.948,2.506c-0.031,0.084-0.064,0.168-0.096,0.254c-0.345,0.944-0.676,1.896-0.996,2.853
			c-0.021,0.063-0.039,0.125-0.061,0.188c-0.289,0.867-0.568,1.74-0.838,2.617c-0.085,0.276-0.164,0.557-0.247,0.834
			c-0.198,0.664-0.396,1.33-0.582,1.998c-0.097,0.347-0.188,0.693-0.28,1.041c-0.162,0.604-0.324,1.209-0.479,1.815
			c-0.096,0.379-0.188,0.76-0.277,1.14c-0.142,0.582-0.279,1.162-0.41,1.744c-0.09,0.398-0.176,0.797-0.263,1.195
			c-0.121,0.568-0.24,1.137-0.354,1.707c-0.082,0.411-0.16,0.822-0.237,1.234c-0.106,0.563-0.208,1.131-0.306,1.696
			c-0.071,0.414-0.143,0.828-0.209,1.244c-0.092,0.569-0.178,1.144-0.262,1.715c-0.061,0.412-0.12,0.824-0.176,1.235
			c-0.078,0.582-0.148,1.166-0.218,1.75c-0.048,0.404-0.099,0.81-0.144,1.215c-0.064,0.604-0.121,1.211-0.176,1.815
			c-0.035,0.386-0.074,0.771-0.105,1.155c-0.055,0.67-0.098,1.34-0.141,2.012c-0.021,0.32-0.045,0.643-0.063,0.965
			c-0.055,0.993-0.098,1.988-0.124,2.984c-1.498,54.326,38.11,96.037,69.192,136.986c32.1,42.225,58.09,95.676,81.816,143.793
			c67.823,137.504,90.85,303.581,62.596,456.875c-0.406,2.199-0.817,4.406-1.234,6.62c-0.145,0.765-0.293,1.535-0.438,2.301
			c-0.277,1.458-0.554,2.914-0.836,4.378c-0.174,0.9-0.353,1.807-0.526,2.708c-0.259,1.327-0.515,2.651-0.776,3.981
			c-0.205,1.037-0.414,2.078-0.621,3.117c-0.24,1.207-0.479,2.41-0.724,3.619c-0.224,1.106-0.452,2.219-0.679,3.328
			c-0.233,1.145-0.465,2.287-0.703,3.434c-0.24,1.167-0.486,2.339-0.73,3.508c-0.229,1.096-0.456,2.188-0.688,3.286
			c-0.254,1.192-0.512,2.394-0.768,3.589c-0.23,1.082-0.461,2.162-0.695,3.245c-0.267,1.231-0.539,2.468-0.811,3.702
			c-0.229,1.044-0.455,2.087-0.688,3.133c-0.281,1.271-0.568,2.546-0.854,3.818c-0.229,1.021-0.456,2.039-0.688,3.06
			c-0.293,1.293-0.592,2.589-0.891,3.884c-0.23,1.002-0.459,2.003-0.691,3.007c-0.311,1.332-0.627,2.668-0.94,4.003
			c-0.228,0.964-0.453,1.928-0.685,2.893c-0.326,1.371-0.658,2.744-0.99,4.117c-0.227,0.936-0.451,1.869-0.68,2.806
			c-0.341,1.396-0.688,2.795-1.034,4.192c-0.228,0.914-0.452,1.828-0.681,2.744c-0.354,1.412-0.713,2.828-1.074,4.242
			c-0.229,0.903-0.457,1.809-0.689,2.713c-0.367,1.434-0.741,2.867-1.115,4.303c-0.229,0.883-0.459,1.766-0.691,2.648
			c-0.383,1.459-0.772,2.92-1.164,4.381c-0.229,0.857-0.457,1.717-0.688,2.574c-0.4,1.485-0.809,2.973-1.215,4.459
			c-0.229,0.834-0.457,1.67-0.688,2.506c-0.416,1.502-0.836,3.004-1.26,4.506c-0.23,0.821-0.461,1.645-0.693,2.465
			c-0.432,1.518-0.866,3.033-1.305,4.551c-0.232,0.807-0.465,1.611-0.699,2.418c-0.446,1.535-0.898,3.068-1.354,4.604
			c-0.232,0.785-0.465,1.57-0.699,2.355c-0.464,1.553-0.934,3.104-1.402,4.653c-0.233,0.769-0.467,1.536-0.703,2.306
			c-0.48,1.568-0.967,3.139-1.457,4.707c-0.231,0.746-0.465,1.49-0.697,2.235c-0.5,1.588-1.006,3.176-1.514,4.763
			c-0.23,0.724-0.464,1.446-0.697,2.17c-0.519,1.606-1.041,3.213-1.568,4.815c-0.23,0.703-0.463,1.407-0.695,2.108
			c-0.535,1.619-1.076,3.234-1.623,4.852c-0.23,0.688-0.465,1.376-0.697,2.063c-0.557,1.635-1.117,3.27-1.684,4.899
			c-0.229,0.66-0.458,1.319-0.688,1.979c-0.576,1.649-1.158,3.299-1.746,4.946c-0.229,0.644-0.457,1.286-0.688,1.929
			c-0.598,1.664-1.198,3.326-1.807,4.986c-0.227,0.617-0.453,1.234-0.681,1.854c-0.62,1.683-1.245,3.361-1.875,5.039
			c-0.222,0.592-0.444,1.185-0.669,1.774c-0.643,1.696-1.29,3.394-1.943,5.085c-0.22,0.57-0.44,1.139-0.662,1.708
			c-0.664,1.709-1.334,3.416-2.01,5.12c-0.219,0.549-0.438,1.098-0.655,1.645c-0.688,1.724-1.381,3.443-2.082,5.16
			c-0.212,0.521-0.426,1.041-0.64,1.561c-0.715,1.741-1.435,3.479-2.162,5.214c-0.205,0.49-0.412,0.979-0.619,1.47
			c-0.742,1.76-1.488,3.516-2.244,5.268c-0.199,0.46-0.398,0.919-0.599,1.379c-0.771,1.775-1.546,3.548-2.329,5.314
			c-0.191,0.432-0.384,0.86-0.576,1.291c-0.799,1.793-1.604,3.582-2.417,5.365c-0.183,0.399-0.366,0.799-0.55,1.197
			c-0.83,1.811-1.666,3.617-2.51,5.416c-0.172,0.364-0.346,0.729-0.516,1.092c-0.864,1.832-1.734,3.66-2.613,5.48
			c-0.156,0.323-0.314,0.646-0.473,0.969c-0.9,1.857-1.809,3.711-2.726,5.559c-0.14,0.277-0.278,0.555-0.418,0.832
			c-0.94,1.887-1.89,3.77-2.851,5.645c-0.117,0.229-0.235,0.457-0.354,0.687c-0.984,1.918-1.977,3.83-2.98,5.733
			c-0.096,0.181-0.19,0.358-0.287,0.539c-1.029,1.951-2.068,3.896-3.119,5.83c-0.065,0.121-0.133,0.24-0.199,0.361
			c-1.084,1.992-2.178,3.979-3.283,5.954c-0.024,0.047-0.053,0.095-0.078,0.142c-24.388,43.558-54.053,82.918-90.351,114.508
			c-2.104,1.832-4.228,3.647-6.377,5.428c-91.713,75.892-219.892-6.83-287.259-81.467c-43.259-47.931-138.295-186.453-138.539-95.94
			c-0.212,78.999,191.253,295.123,212.057,353.612c16.771,47.155,17.902,81.801,7.623,131.181
			c-25.25,121.153-225.268,227.405-317.307,291.494c-55.703,38.799-425.406,206.563-300.967,266.812
			c33.574,16.258,331.047-138.869,364.611-159.789c79.961-49.75,156.125-105.516,226.914-167.711
			c170.523-149.804,310.635-313.979,453.416-489.838c53.474-65.873,109.299-131.814,165.549-195.262
			c10.402-11.738,18.315-23.128,24.527-34.407c-1.169,3.035-2.38,6.076-3.645,9.125c49.717-32.021,53.375-58,70.967-111.696
			c7.26-22.166,13.705-43.945,19.252-65.539C6728.542,5673.236,6728.943,5671.677,6729.336,5670.119z" style="stroke:black;fill:#cccccc"/><path id="182624037" parent_id="182623993" order="48" structure_id="145" d="M4410.086,4625.626
			c39.527-123.353,187.698-310.338,217.143-351.418c101.459-141.483,239.744-302.364,414.383-351.116
			c54.344-15.174,110.895-24.896,167.314-27.521c12.625-0.583,145.479-18.033,145.982-17.61
			c-39.683-33.028-96.25-56.286-139.215-88.667c-46.963-35.402-94.353-71.208-152.264-86.659
			c-67.105-17.902-146.952-24.688-216.471-28.87c-129.051-7.762-255.877,22.55-391.414,4.912L4410.086,4625.626z" style="stroke:black;fill:#aaaaaa"/><path id="182624036" parent_id="182623993" order="49" structure_id="153" d="M7275.631,4903.465
			c19.467,28.271-38.191,123.536-69.029,159.305c-20.754,24.078-43.926,43.49-52.104,75.225
			c-14.254,55.288,14.555,117.455,5.473,175.313c-8.886,56.674-41.002,114.731-82.541,155.676
			c-24.623,24.285-38.763,53.584-58.521,81.361c-14.686,20.65-22.275,23.551-44.952,27.836
			c68.517-82.75,89.106-188.509,111.31-289.52c31.66-143.996,70.121-314.604,40.254-461.502
			c-23.36-114.85,0.797-307.943-84.807-397.905c48.324,43.229,74.895,61.91,104.46,117.533
			c33.46,62.965,50.312,131.407,68.72,199.239C7229.587,4803.916,7245.137,4859.137,7275.631,4903.465z" style="stroke:black;fill:#aaaaaa"/></g>
</g>
</svg>