<svg width="8864" height="7888" xmlns="http://www.w3.org/2000/svg">
<g transform="scale(1.0)">
<g id="180650179" order="1" parent_id="" graphic_group_label_id="28" graphic_group_label="Atlas - Adult Mouse" sub_image_id="100960156" transform=" scale(1.0, 1.0)"><path id="180650181" parent_id="180650179" order="0" structure_id="8" d="M4417.996,6935.659
			c14.3,52.439,36.563,91.533,66.681,129.774c149.093,189.309,351.802,182.466,564.014,120.792
			c108.68-31.583,195.711-106.174,299.247-149.15c74.138-30.771,141.025-77.824,206.868-123.129
			c108.045-74.343,222.36-133.785,327.271-211.506c121.718-90.191,227.635-203.905,340.865-304.381
			c72.292-64.142,131.024-141.488,197.995-210.822c123.105-127.449,308.959-186.344,403.85-344.003
			c15.139-25.161,23.896-50.713,31.318-78.833c26.643-100.99,29.257-201.572,33.371-304.939c1.28-32.173-14.967-79.946-7.944-109.57
			c4.298-18.113,56.309-14.59,71.146-21.194c84.707-37.697,159.071-115.476,187.857-204.017
			c23.783-73.165,21.445-150.357-7.937-222.93c-22.39-55.303-67.648-38.96-111.525-65.721
			c-30.002-18.303-24.954-37.932-13.502-67.027c22.497-57.118,21.898-113.98,0.298-172.095
			c101.929,77.312,327.514,238.228,417.643,47.436c36.378-76.997-14.037-177.876-32.072-252.973
			c-23.21-96.65,46.8-85.337,115.461-105.997c84.642-25.464,96.07-100.656,103.413-178.258c4.188-44.304,9.944-55.122-15.235-91.912
			c-82.348-120.317,63.596-129.587,139.857-186.235c63.633-47.291,141.771-100.436,188.844-163.009
			c52.231-69.421,88.849-155.232,124.142-234.128c37.851-84.629,86.346-167.8,119.439-254.382
			c77.083-201.656,117.193-430.276,20.041-631.583c-87.982-182.292-249.925-307.979-400.537-435.873
			c-64.39-54.676-143.39-90.296-204.068-149.684c-61.523-60.224-100.747-139.842-166.024-196.624
			c-57.793-50.258-133.717-113.027-200.188-149.037c-74.229-40.208-168.873-33.646-245.479-75.232
			c-255.351-138.62-437.854-424.488-745.951-456.519c-53.013-5.511-105.127-14.54-158.165-16.855
			c-91.215-3.977-163.64,28.626-246.605-22.463c-73.479-45.249-131.806-111.354-206.87-154.381
			c-102.076-58.514-235.573-79.931-349.177-103.791c-91.811-19.281-186.049-34.569-275.803-62.312
			c-96.819-29.928-188.583-11.702-289.284-13.165c-87.164-1.269-165.884-3.827-253.246-8.083L4417.996,6935.659z" style="stroke:black;fill:#bfdae3"/><path id="180650182" parent_id="180650179" order="1" structure_id="354" d="M6818.052,5128.188
			c-13.588-59.341-21.42-120.914-48.397-176.034c-33.167-67.783-94.302-128.993-133.216-201.881
			c0.689-0.699,1.362-1.413,2.035-2.129c73.525,21.9,109.963,123.937,199.453,109.938c40.869-6.397,70.058-46.043,112.921-46.105
			c23.676-0.034,46.234,11.738,68.379,22.837c-27.842-17.958-22.859-37.357-11.655-65.811
			c22.497-57.118,21.898-113.98,0.298-172.095c-11.812-31.78-30.296-60.849-57.167-87.086
			c-50.209-49.021-89.748-101.958-132.221-157.553c-95.505-125.009-197.741-241.871-342.563-314.608
			c-90.282-45.345-219.324-66.166-315.597-113.287c-107.833-52.783-173.982-116.809-271.057-114.125
			c-83.174,2.293-108.972,68.421-215.783,122.229c-24.772,12.481-187.306,85.779-247.465,93.038
			c-85.447,10.297-159.342-34.995-243.32-43.772c-60.721-6.348-121.845,14.847-177.929,36.865
			c-83.565,32.813-165.852,81.311-235.424,138.276c-68.891,56.397-97.985,125.994-138.1,202.615
			c-40.913,78.135-85.329,160.088-140.606,229.845c-24.642,31.09-52.321,55.947-61.788,91.378l-10.854,2254.937
			c14.3,52.439,36.563,91.533,66.681,129.774c149.093,189.309,351.802,182.466,564.014,120.792
			c108.68-31.583,195.711-106.174,299.247-149.15c74.138-30.771,141.025-77.824,206.868-123.129
			c108.045-74.343,222.36-133.785,327.271-211.506c121.718-90.191,227.635-203.905,340.865-304.381
			c72.292-64.142,131.024-141.488,197.995-210.822c123.105-127.449,308.959-186.344,403.85-344.003
			c15.139-25.161,23.896-50.713,31.318-78.833c26.643-100.99,29.257-201.572,33.371-304.939c1.28-32.173-14.967-79.946-7.944-109.57
			c0.124-0.529,0.421-0.978,0.627-1.475c-0.197,0.48-0.493,0.921-0.619,1.442
			C6833.881,5312.121,6831.049,5184.946,6818.052,5128.188z" style="stroke:black;fill:#ff9bcd"/><path id="180650190" parent_id="180650179" order="2" structure_id="96" d="M6158.757,4108.852
			c8.515-34.318,31.197-65.449,70.454-87.753c165.456-93.964,357.43,74.511,467.18,180.09
			c71.316,68.62,135.462,152.272,191.382,233.762c42.483,61.903,123.21,128.871,133.226,206.573
			c21.327,165.579-173.675,255.019-304.115,183.779c-119.583-65.294-178.538-223.211-257.647-327.811
			c-54.083-71.501-107.692-129.589-181.227-178.404C6207.737,4272.435,6135.512,4202.553,6158.757,4108.852z" style="stroke:black;fill:#ffa5d2"/><path id="180650193" parent_id="180650179" order="3" structure_id="691" d="M5593.566,5085.724
			c57.931,19.727,137.728,20.593,191.422-11.965c94.604-57.367,44.889-210.801-44.948-211.233
			c-85.609-0.412-186.972-0.337-272.775-7.899c-41.506-3.659-164.119-26.212-183.482,30.75
			c-25.638,75.425,143.346,128.584,190.092,149.278C5511.182,5051.172,5555.173,5072.652,5593.566,5085.724z" style="stroke:black;fill:#ffa5d2"/><path id="180650185" parent_id="180650179" order="4" structure_id="437" d="M6415.603,5145.74
			c-29.536-55.785-88.406-107.607-141.313-157.376c-81.411-76.586-174.642-134.113-266.011-116.687l1.231,0.502
			c87.655,36.544,160.647,101.188,137.832,204.131c-18.604,83.89-112.962,171.756-202.339,175.807l-4.002-0.051
			c17.886,23.748,35.547,47.243,50.394,70.518c36.475,57.166,89.636,128.506,100.612,194.723
			c14.506,87.5-29.652,173.732-0.124,261.623c34.146,101.593,205.705,215.068,205.705,215.068
			c81.739-19.717,141.513-113.095,158.72-189.939c11.435-51.109,25.854-98.325,34.151-150.265
			C6515.68,5495.76,6490.826,5287.822,6415.603,5145.74z" style="stroke:black;fill:#ffa5d2"/><path id="180650184" parent_id="180650179" order="5" structure_id="77" d="M6147.343,5076.311
			c22.815-102.942-50.177-167.587-137.832-204.131l-1.231-0.502c-32.676,6.232-65.114,22.046-96.688,50.01
			c-132.016,116.917-49.13,226.097,29.411,330.379l4.002,0.051C6034.381,5248.066,6128.739,5160.2,6147.343,5076.311z" style="stroke:black;fill:#ffa5d2"/><path id="180650200" parent_id="180650179" order="6" structure_id="143" d="M5757.933,6179.41
			c-61.744-49.934-183.568-17.549-213.887,55.168c-34.05,81.726-23.175,155.369,70.513,184.979
			C5763.137,6466.522,5895.225,6290.436,5757.933,6179.41z" style="stroke:black;fill:#ffb3d9"/><path id="180650187" parent_id="180650179" order="7" structure_id="1048" d="M5177.919,5586.553
			c-25.54-63.552-57.854-125.496-82.519-189.803c-36.383-94.854-105.251-223.023-116.885-320.598l-0.183-2.712
			c-93.398,89.242-246.115,170.896-419.567,129.454c-8.661,0.145-16.854,43.558-26.816,86.671c0,0-3.646,106.702,12.854,210.197
			c13.806,81.051,43.05,196.926,44.659,248.49c2.38,76.241,26.517,99.865-36.502,239.733
			c-11.977,26.582-60.876,95.96-45.936,148.492c14.077,49.498,87.569,128.761,124.056,145.493
			c86.996,39.896,173.991,122.997,317.983,137.996c83.59,9.438,218.08-0.514,255.321-60.356l-0.008-0.004
			c0.56-13.995,2.528-27.975,6.161-41.921c22.974-88.227,145.988-110.265,223.149-84.219c15.935,5.38,27.611,13.88,36.7,24.427
			l-0.001,0.006c34.548,12.047,53.572,6.809,68.021-8.679l-0.007-0.002c1.714-4.847,3.599-9.729,5.646-14.642
			c9.643-23.127,28.547-42.168,51.825-55.785l-7.01-2.147C5378.818,6118.407,5251.404,5769.367,5177.919,5586.553z" style="stroke:black;fill:#ffb3d9"/><path id="180650198" parent_id="180650179" order="8" structure_id="83" d="M5100.811,6912.537
			c34.969,19.249,59.373,45.784,68.932,84.392c5.556,22.454,11.96,44.994,14.429,68.053c7.622,71.22-50.702,87.22-107.944,56.757
			c-19.064-10.146-53.048-39.16-53.048-39.16c-58.907-62.758-138.266-83.486-231.867-73.058
			c-21.206,2.354-43.139,6.281-65.73,11.623c-22.991,5.431-66.183,16.012-103.818,32.26c0,0-10.235,3.966-21.483,9.695
			c-8.271,4.213-17.829,10.901-18.846,11.677c-28.474,21.725-58.813-40.171-66.162-59.776
			c-14.898-39.736-26.995-147.955,26.774-167.356c0,0,139.844-22.015,167.088-25.973c112.72-16.36,387.475,90.725,388.799,90.306
			L5100.811,6912.537z" style="stroke:black;fill:#ffb3d9"/><path id="180650188" parent_id="180650179" order="9" structure_id="136" d="M5963.359,5924.96
			c-142.222-80.689-232.489-210.267-335.432-341.473c-147.709-188.264-304.652-369.179-325.738-617.21c0,0-1.043-11.428-1.81-23.746
			c-14.278-15.44-21.991-32.417-18.319-50.778h0.009c-13.213-43.903-61.846-105.206-121.515-105.206
			c-60.227,0-82.979,33.725-95.617,109.155h0.017c6.489,61.542-26.031,117.845-80.823,172.111c-1.898,1.88-3.838,3.755-5.798,5.627
			l0.183,2.712c11.634,97.574,80.502,225.743,116.885,320.598c24.664,64.307,56.979,126.251,82.519,189.803
			c73.485,182.814,200.899,531.854,410.942,590.093l7.01,2.147c46.866-27.416,111.479-32.825,154.049-5.192l-0.211,0.295
			c27.995-4.248,46.835-33.304,60.231-76.563l-0.005-0.002c0.02-61.167,13.771-110.01,67.705-116.146l-0.001-0.001
			c32.505-18.612,53.896-44.083,93.947-52.114C5955.063,5922.646,5963.359,5924.96,5963.359,5924.96z" style="stroke:black;fill:#ffb3d9"/><path id="180650183" parent_id="180650179" order="10" structure_id="307" d="M5166.637,6497.691
			c-130.612-86.428-322.105-74.765-471.872-75.069c-136.919-0.275-170.083,53.177-187.011,183.969
			c-5.799,44.797,24.274,57.606,44.543,68.743c56.578,31.088,107.491,41.143,185.695,53.498
			c159.4,25.178,324.582,83.851,425.7,207.207c3.75,4.574,25.004,25.068,30.415,27.461c43.846,19.385,30.965,13.711,53.393,8
			c28.835-7.342,52.646-21.068,74.263-54.922c16.906-26.478,12.799-63.689,9.606-92.975
			C5318.599,6706.314,5269.939,6566.041,5166.637,6497.691z" style="stroke:black;fill:#ffb3d9"/><path id="180650186" parent_id="180650179" order="11" structure_id="852" d="M5627.928,5583.487
			c102.942,131.206,193.21,260.783,335.432,341.473c0,0,22.062,2.447,38.586,8.871c2.498-0.5,18.137-0.628,20.61-1.064
			c66.655-11.763,111.265-28.409,140.212-50.454l-0.002-0.003c-31.459-32.508-59.205-68.639-70.882-103.38
			c-29.528-87.891,14.63-174.123,0.124-261.623c-10.977-66.217-64.138-137.557-100.612-194.723
			c-53.03-83.134-141.975-169.081-148.819-259.369h0.024c-9.188-8.983-25.852-7.112-42.515-0.258l-0.389,0.171
			c-4.452,3.822-9.349,7.381-14.709,10.631c-53.694,32.558-133.491,31.691-191.422,11.965
			c-38.394-13.071-82.385-34.552-119.692-51.069c-33.843-14.982-131.747-46.98-173.494-92.123c0.767,12.318,1.81,23.746,1.81,23.746
			C5323.275,5214.309,5480.219,5395.224,5627.928,5583.487z" style="stroke:black;fill:#ffb3d9"/><path id="180650189" parent_id="180650179" order="12" structure_id="970" d="M5026.949,4803.616l5.765,8.153
			c62.895,95.887,30.147,178.068-48.583,256.044c-92.368,91.484-248.274,177.392-425.365,135.081c-8.661,0.145,25.498,7.5,0,0
			c3.548-27.355,9.664-48.537,26.348-120.769c4.034-17.465,8.974-58.267,6.729-91.927c-1.336-20.029-9.139-35.41-10.408-47.668
			c-3.535-34.133-39.572-66.953-60.332-103.305l0,0c23.095,8.861,47.127,12.836,72.099,13.176
			c100.172,1.355,209.871-6.278,308.745-21.684C4927.475,4826.74,4983.401,4820.946,5026.949,4803.616L5026.949,4803.616z" style="stroke:black;fill:#ffb3d9"/><path id="180650202" parent_id="180650179" order="13" structure_id="978" d="M5350.557,6740.549
			c11.574,40.479,22.038,113.091,53.86,143.229c93.924-51.698,172.894-128.532,251.186-201.639
			c81.637-76.232,157.669-158.229,236.586-237.234c55.297-55.36,150.636-124.582,172.799-203.656
			c14.614-52.137-25.193-102.005-49.494-145.165c-23.353-41.474-70.846-115.479-125.746-115.548
			c-152.483-0.212-31.249,291.54-75.416,370.858c-44.957,80.719-98.474,103.565-200.308,82.745
			c-140.48-28.718-86.365-168.944-180.336-200.671c-77.161-26.046-200.176-4.008-223.149,84.219
			C5172.996,6461.829,5313.106,6609.52,5350.557,6740.549z" style="stroke:black;fill:#ffb3d9"/><path id="180650201" parent_id="180650179" order="14" structure_id="169" d="M4490.639,4589.345
			c-12.202,15.391-40.442,46.651-40.442,46.651c-32.867,28.153-27.356,85.504-18.994,122.498
			c9.933,43.947,40.346,58.563,79.384,76.331c26.288,11.968,53.83,17.186,82.614,17.577c100.172,1.355,209.871-6.278,308.745-21.684
			c47.396-7.387,199.562-21.026,182.778-103.136c-14.823-72.543-168.058-143.826-222.64-177.876
			c-49.553-30.917-102.406-56.324-152.007-87.404c-23.686-14.836-95.92-31.915-98.838-66.492
			C4611.239,4395.811,4537.303,4530.45,4490.639,4589.345z" style="stroke:black;fill:#ffb3d9"/><path id="180650197" parent_id="180650179" order="15" structure_id="209" d="M5524.852,4216.916
			c19.592,5.7,42.618,6.881,67.708,2.904c79.209-12.563,128.841-30.311,209.357-14.792
			c118.114,22.768,228.591,48.672,266.344-106.984c30.208-124.567,13.527-273.99-135.992-284.74
			c-86.895-6.246-143.956,54.314-211.54,95.162c-94.34,57.017-224.708,65.563-256.852,190.357
			C5448.149,4159.907,5475.725,4202.617,5524.852,4216.916z" style="stroke:black;fill:#ffb3d9"/><path id="180650195" parent_id="180650179" order="16" structure_id="202" d="M4640.064,4351.561
			c-36.596,52.782,13.906,64.549,56.8,80.213c53.175,19.41,104.086,47.935,153.93,74.413
			c77.105,40.956,162.344,77.97,228.302,135.832c55.97,49.106,78.659,96.281,152.364,126.751
			c108.532,44.871,173.126-42.837,157.789-147.555c-21.516-146.974-43.767-242.771,6.635-384.827
			c6.429-18.128,59.67-214.116,38.463-211.729c-85.432,10.076-159.321-34.293-243.292-42.899
			c-60.73-6.218-121.844,14.536-177.926,36.098c-83.562,32.128-165.844,79.63-235.409,135.42
			C4708.834,4208.515,4640.064,4351.561,4640.064,4351.561z" style="stroke:black;fill:#ffb3d9"/><path id="180650194" parent_id="180650179" order="17" structure_id="225" d="M5759.598,4237.927
			c75.292-1.042,148.823,13.031,223.247,14.442c52.097,0.984,113.945-28.521,145.799,29.185
			c63.688,115.486-93.065,414.306-199.805,461.404c-97.988,43.24-251.008,51-355.498,30.958
			c-210.112-40.3-284.417-505.578-29.238-524.426C5590.703,4246.05,5671.744,4239.152,5759.598,4237.927z" style="stroke:black;fill:#ffb3d9"/><path id="180650196" parent_id="180650179" order="18" structure_id="765" d="M6283.844,4704.139
			c16.55-21.939-36.196-50.758-59.211-72.937c-35.938-34.646-62.43-71.834-84.169-116.458c-9.1-18.668-48.329,69.154-49.333,72.577
			c-10.67,36.348-17.463,50.508-41.907,77.787c-25.912,28.912-115.474,118.916-86.949,162.839
			c30.59,47.073,147.103-48.488,174.67-68.596c20.844-15.218,39.912-29.539,64.986-37.049c20.426-6.112,51.22,0.213,69.454-8.807
			C6277.324,4710.562,6281.362,4707.423,6283.844,4704.139z" style="stroke:black;fill:#ffb3d9"/><path id="180650199" parent_id="180650179" order="19" structure_id="781" d="M6193.66,3943.338
			c25.716,10.163,70.61,21.992,70.882,31.681c0.16,5.754-36.367,33.979-40.593,37.084c-21.68,15.933-41.012,32.644-59.511,54.108
			c-10.186,11.801-26.434,52.432-43.626,53.279c-29.574,1.465-12.026-90.411-7.79-107.497c7.748-31.244,10.024-85.416,49.359-81.342
			C6165.146,3930.943,6184.879,3939.869,6193.66,3943.338z" style="stroke:black;fill:#ffb3d9"/><path id="180650192" parent_id="180650179" order="20" structure_id="230" d="M4422.441,6666.929
			c101.401,71.605,90.365,224.584-2.15,300.862L4422.441,6666.929z" style="stroke:black;fill:#ffc6e2"/><path id="180650191" parent_id="180650179" order="21" structure_id="222" d="M4423.429,6674.748
			c70.471-82.495,93.469-200.944,92.063-306.62c-0.712-53.977-6.66-110.144-23.81-161.584
			c-13.791-41.377-67.345-100.965-68.18-141.974L4423.429,6674.748z" style="stroke:black;fill:#ffc6e2"/><path id="180650203" parent_id="180650179" order="22" structure_id="512" d="M4431.043,4225.271
			c253.087-6.461,431.226-149.772,586.911-336.486c73.352-87.976,134.418-107.399,246.803-87.941
			c33.646,5.834,69.143,9.882,102.073,18.577c52.499,13.866,100.584,29.424,148.275,55.386
			c29.336,15.974,46.312,51.483,69.739,74.187c25.76,24.966,93.095-23.612,132.652-45.555
			c85.889-47.64,96.928-92.849,180.116-91.061c125.343,2.692,169.643,83.833,273.125,118.314
			c127.241,42.398,217.842,72.467,305.181,106.968c150.729,59.544,247.058,189.6,342.563,314.608
			c42.473,55.595,82.012,108.531,132.221,157.553c26.871,26.237,45.355,55.306,57.167,87.086
			c101.929,77.312,327.514,238.228,417.643,47.436c36.378-76.997-14.037-177.876-32.072-252.973
			c-23.21-96.65,46.8-85.337,115.461-105.997c84.642-25.464,96.07-100.656,103.413-178.258c4.188-44.304,9.944-55.122-15.235-91.912
			c-82.348-120.317,63.596-129.587,139.857-186.235c63.633-47.291,141.771-100.436,188.844-163.009
			c52.231-69.421,88.849-155.232,124.142-234.128c37.851-84.629,86.346-167.8,119.439-254.382
			c77.083-201.656,117.193-430.276,20.041-631.583c-87.982-182.292-249.925-307.979-400.537-435.873
			c-64.39-54.676-143.39-90.296-204.068-149.684c-61.523-60.224-100.747-139.842-166.024-196.624
			c-57.793-50.258-133.717-113.027-200.188-149.037c-74.229-40.208-168.873-33.646-245.479-75.232
			c-255.351-138.62-437.854-424.488-745.951-456.519c-53.013-5.511-105.127-14.54-158.165-16.855
			c-91.215-3.977-163.64,28.626-246.605-22.463c-73.479-45.249-131.806-111.354-206.87-154.381
			c-102.076-58.514-235.573-79.931-349.177-103.791c-91.811-19.281-186.049-34.569-275.803-62.312
			c-96.819-29.928-188.583-11.702-289.284-13.165c-87.164-1.269-165.884-3.827-253.246-8.083L4431.043,4225.271z" style="stroke:black;fill:#f0f080"/><path id="180650207" parent_id="180650179" order="23" structure_id="10707" d="M4911.541,3708.628
			c-36.892-41.547-84.448-87.152-128.709-120.565c-45.261-34.152-107.028-52.118-159.061-73.417
			c-45.867-18.783-134.924-59.479-185.543-36.278l-1.322,137.456c24.53,2.687,49.597,9.279,67.071,13
			c0.012,0.002,0.023,0.005,0.035,0.007c143.102,30.505,279.109,160.175,375.558,255.506c25.361,25.068,49.628,51.611,71.893,79.67
			c22.693-24.065,44.811-49.221,66.491-75.223c16.509-37.777,19.695-76.286,12.509-114.326
			C4988.034,3756.018,4946.639,3748.158,4911.541,3708.628z" style="stroke:black;fill:#fffc91"/><path id="180650208" parent_id="180650179" order="24" structure_id="10705" d="M4977.191,3657.975
			c-13.059-8.038-26.207-15.666-39.516-22.631c-84.599-44.282-123.656-127.805-203.031-173.881
			c-4.688-2.721-9.403-5.287-14.141-7.739c-7.197-3.537-14.408-6.957-21.623-10.246c-49.064-21.194-100.693-30.26-154.66-36.519
			c-22.024-2.545-79.896-17.406-105.217-9.162l-0.775,80.571c50.619-23.201,139.676,17.495,185.543,36.278
			c52.032,21.298,113.8,39.264,159.061,73.417c44.261,33.413,91.817,79.019,128.709,120.565
			c35.098,39.53,76.493,47.39,118.922,65.831c8.569,3.724,17.18,7.878,25.79,12.814c58.981,33.81,71.323-3.721,136.453-2.665
			C5116.121,3757.167,5047.985,3701.548,4977.191,3657.975z" style="stroke:black;fill:#ece754"/><path id="180650211" parent_id="180650179" order="25" structure_id="10713" d="M4781.685,3032.955
			c57.837-18.284,116.297-35.693,175.042-50.831c36.632-9.442,73.597-18.621,108.493-33.481
			c32.524-13.848,58.546-36.844,92.139-47.255c22.061-6.835,44.354-13.041,65.271-23.015c36.476-17.396,49.298-49.852,72.778-80.613
			c22.43-29.399,41.917-69.696,73.874-89.496c17.271-10.706,34.057-19.828,49.873-30.534c-20.79-33.717-43.95-69.45-69.554-106.532
			c-71.685-103.821-61.965-111.21-128.156-177.509l-1.637,9.343c1.099-14.51,47.106-189.632,19.598-309.119
			c-19.561-84.951-101.578-178.983-161.124-243.804c-181.326-197.376-410.278-113.423-633.68-108.918l-4.588,1402.11
			c41.696-12.187,83.398-24.588,124.892-37.467C4637.748,3083.229,4708.979,3055.938,4781.685,3032.955z" style="stroke:black;fill:#fffc91"/><path id="180650210" parent_id="180650179" order="26" structure_id="10711" d="M5175.3,3009.346
			c88.412-44.282,154.777-103.156,231.738-162.766c22.803-17.662,50.916-38.652,78.745-53.81
			c-18.631-34.369-40.798-73.145-66.629-115.038c-15.816,10.706-32.602,19.828-49.873,30.534
			c-31.957,19.8-51.444,60.096-73.874,89.496c-23.48,30.761-36.303,63.217-72.778,80.613c-20.916,9.974-43.21,16.18-65.271,23.015
			c-33.593,10.411-59.614,33.407-92.139,47.255c-34.896,14.861-71.861,24.04-108.493,33.481
			c-58.745,15.138-117.205,32.546-175.042,50.831c-72.705,22.983-143.937,50.274-216.779,72.881
			c-41.493,12.879-83.195,25.28-124.892,37.467l-0.418,127.719c18.611-5.579,105.978-32.136,191.494-64.256
			C4811.688,3138.975,5002.143,3096.07,5175.3,3009.346z" style="stroke:black;fill:#ece754"/><path id="180650215" parent_id="180650179" order="27" structure_id="10722" d="M5078.281,1850.111
			c59.546,64.821,141.563,158.854,161.124,243.804c27.509,119.486-18.499,294.609-19.598,309.119l1.637-9.343
			c66.191,66.299,56.472,73.688,128.156,177.509c25.604,37.082,48.764,72.815,69.554,106.532
			c12.09-8.184,23.613-17.292,34.351-28.744c26.349-28.103,48.162-46.34,83.748-60.786c33.322-13.53,71.615-32.141,91.971-63.04
			c20.48-31.094,15.493-70.055,9.196-104.701c-14.248-78.306-27.702-158.816-48.258-235.684
			c-5.13-19.175-11.095-38.118-16.144-57.309c-4.722-17.912-6.093-36.322-13.406-53.21c-16.321-37.682-35.971-73.792-55.081-110.095
			c-17.314-32.896-24.611-71.685-45.241-102.621c-18.191-27.281-40.241-53.07-59.389-79.882
			c-16.797-23.508-39.005-45.27-58.613-66.253c-19.576-20.963-27.414-48.916-43.666-72.086
			c-13.837-19.735-34.149-28.349-54.154-39.79c-33.296-19.038-65.046-47.444-93.051-73.553
			c-32.687-30.48-72.135-49.808-108.977-74.702c-19.979-13.5-40.783-26.847-58.02-43.77c-31.484-30.907-75.852-42.31-115.776-57.56
			c-31.103-11.886-61.368-12.667-93.835-19.361c-26.244-5.415-53.179-10.025-80.037-10.02
			c-60.459,0.011-119.107-19.756-180.096-14.921c-7.432,0.589-54.574,4.541-68.669,1.89l-1.406,429.657
			C4668.003,1736.688,4896.955,1652.734,5078.281,1850.111z" style="stroke:black;fill:#fffc91"/><path id="180650216" parent_id="180650179" order="28" structure_id="10722" d="M4617.757,966.501
			c77.146,3.664,154.142-12.039,221.026-50.009c34.992-19.863,73.093-30.681,112.79-36.113
			c128.15-17.542,270.742-10.526,393.738,30.624c62.464,20.895,124.295,44.101,185.617,68.134
			c47.604,18.657,100.264,36.816,139.69,70.573c114.309,97.865,70.642,241.231,91.722,370.415
			c17.638,108.107,77.66,203.821,102.473,310.22c21.117,90.565,50.992,177.708,70.084,268.741
			c19.331,92.2,37.533,184.894,45.25,278.907c5.912,72.071,12.003,144.56,15.67,216.78c3.653,71.853-8.331,142.169-8.667,213.746
			c-0.531,113.777,73.781,256.997,192.386,287.944c14.532,3.792,31.439,6.236,48.533,7.016
			c-16.071-95.93-33.687-191.884-40.335-289.359c0.295-61.281-11.078-114.506-1.938-175.508
			c37.733-251.817-61.702-502.841-110.7-730.384c-29.584-137.417-85.909-217.533-142.331-394.912
			c-21.57-67.812-97.916-254.25-58.073-347.21c-17.144-4.442-34.482-11.548-52.309-22.525
			c-73.479-45.249-131.806-111.354-206.87-154.381c-102.076-58.514-235.573-79.931-349.177-103.791
			c-91.811-19.281-186.049-34.569-275.803-62.312c-96.819-29.928-188.583-11.702-289.284-13.165
			c-87.164-1.269-165.884-3.827-253.246-8.083l-0.803,245.436c7.443,2.487,43.843,14.296,63.073,13.987
			C4547.06,960.677,4581.398,964.775,4617.757,966.501z" style="stroke:black;fill:#fffc91"/><path id="180650214" parent_id="180650179" order="29" structure_id="10720" d="M4514.677,1309.646
			c60.988-4.835,119.637,14.932,180.096,14.921c26.858-0.006,53.793,4.604,80.037,10.02c32.467,6.693,62.732,7.475,93.835,19.361
			c39.925,15.25,84.292,26.653,115.776,57.56c17.236,16.923,38.04,30.27,58.02,43.77c36.842,24.894,76.29,44.222,108.977,74.702
			c28.005,26.108,59.755,54.515,93.051,73.553c20.005,11.44,40.317,20.054,54.154,39.79c16.252,23.17,24.09,51.124,43.666,72.086
			c19.608,20.983,41.816,42.745,58.613,66.253c19.147,26.812,41.197,52.602,59.389,79.882
			c20.63,30.937,27.927,69.726,45.241,102.621c19.11,36.303,38.76,72.414,55.081,110.095c7.313,16.888,8.685,35.298,13.406,53.21
			c5.049,19.191,11.014,38.133,16.144,57.309c20.556,76.867,34.01,157.377,48.258,235.684c6.297,34.646,11.284,73.607-9.196,104.701
			c-20.355,30.898-58.648,49.509-91.971,63.04c-35.586,14.445-57.399,32.683-83.748,60.786
			c-10.737,11.452-22.261,20.561-34.351,28.744c25.831,41.894,47.998,80.669,66.629,115.038c9.18-5,18.329-9.367,27.247-12.769
			c20.646-7.878,135.45,10.519,125.529,18.354c122.263-96.604,125.214-268.742,117.05-408.983
			c-10.711-184.063-22.621-368.34-99.103-538.972c-31.167-69.529-50.431-143.579-80.096-213.337
			c-23.104-54.338-61.99-102.207-82.063-157.482c-30.735-84.657-80.591-223.891-152.972-279.98
			c-73.675-57.092-204.795-66.99-294.941-77.625c-56.907-6.718-552.094,10.395-599.87,19.127l-0.558,170.433
			C4460.103,1314.187,4507.245,1310.234,4514.677,1309.646z" style="stroke:black;fill:#ece754"/><path id="180650226" parent_id="180650179" order="30" structure_id="10720" d="M4828.355,1080.315
			c94.158-3.692,199.623-4.928,300.622,7.85c125.452,15.869,265.394,115.681,390.609,63.452
			c-72.878,126.789,27.135,241.059,65.411,359.675c79.528,246.509,175.851,483.077,235.25,736.981
			c41.407,177.009-0.259,369.356,56.63,542.815c9.347,28.503,13.747,72.073,34.646,92.78c19.43,19.252,55.866,13.074,76.49,33.299
			c22.054,21.623,21.592,63.398,44.38,86.506c24.771,25.125,63.296,34.566,95.657,45.886c34.102,11.928,73.067,24.944,112.354,31.03
			c-3.843-25.722-8.03-51.417-12.336-77.113c-17.094-0.78-34.001-3.224-48.533-7.016
			c-118.604-30.947-192.917-174.167-192.386-287.944c0.336-71.577,12.32-141.894,8.667-213.746
			c-3.667-72.22-9.758-144.709-15.67-216.78c-7.717-94.014-25.919-186.707-45.25-278.907
			c-19.092-91.033-48.967-178.176-70.084-268.741c-24.813-106.399-84.835-202.113-102.473-310.22
			c-21.08-129.184,22.587-272.55-91.722-370.415c-39.427-33.756-92.086-51.916-139.69-70.573
			c-61.322-24.033-123.153-47.239-185.617-68.134c-122.996-41.149-265.588-48.166-393.738-30.624
			c-39.697,5.432-77.798,16.25-112.79,36.113c-66.885,37.971-143.88,53.673-221.026,50.009c-36.358-1.726-70.697-5.824-107.483-5.23
			c-19.23,0.309-55.63-11.5-63.073-13.987l-0.425,129.804C4531.5,1131.603,4732.739,1084.093,4828.355,1080.315z" style="stroke:black;fill:#ece754"/><path id="180650213" parent_id="180650179" order="31" structure_id="10737" d="M4504.013,3628.832
			c-0.012-0.002-0.023-0.005-0.035-0.007c-17.475-3.721-42.541-10.313-67.071-13l-2.033,211.381l1.043-37.892
			c61.286,28.06,143.806,46.591,141.127,126.738c-2.808,84.231-79.077,98.404-144.153,117.289l-1.847,191.932
			c217.843-5.562,380.156-112.516,520.42-261.264c-22.265-28.06-46.531-54.603-71.893-79.67
			C4783.122,3789.007,4647.114,3659.336,4504.013,3628.832z" style="stroke:black;fill:#fffc91"/><path id="180650209" parent_id="180650179" order="32" structure_id="10735" d="M4577.043,3916.051
			c2.679-80.146-79.841-98.678-141.127-126.738l-1.043,37.892l-1.983,206.135
			C4497.966,4014.455,4574.235,4000.282,4577.043,3916.051z" style="stroke:black;fill:#ece754"/><path id="180650212" parent_id="180650179" order="33" structure_id="10735" d="M4429.167,4034.429
			c65.853-19.458,145.015-32.535,147.876-118.377c2.679-80.146-79.841-98.678-141.127-126.738L4429.167,4034.429z" style="stroke:black;fill:#ece754"/><path id="180650225" parent_id="180650179" order="34" structure_id="10674" d="M5932.765,1413.314
			c56.422,177.379,112.747,257.495,142.331,394.912c48.998,227.542,148.434,478.567,110.7,730.384
			c-9.14,61.002,2.233,114.228,1.938,175.508c6.648,97.475,24.264,193.429,40.335,289.359c19.399,0.885,39.039-0.375,55.721-4.245
			c109.278-25.353,120.149-121.897,122.168-217.35c1.818-86.227,23.343-173.338,9.123-259.226
			c-5.194-31.405-17.442-58.947-15.582-91.224c3.492-60.76-20.5-118.632-31.977-177.791
			c-14.143-72.952-29.577-145.461-43.157-218.533c-7.064-37.979-16.301-75.721-23.071-113.65
			c-5.817-32.587-2.062-66.834-5.306-99.866c-4.17-42.491-1.863-85.959-12.647-127.592c-5.528-21.295-17.479-31.215-26.262-49.4
			c-8.42-17.44-2.582-38.317-7.39-56.756c0,0-52.929-92.734-79.627-131.052c-9.8-14.073-24.988-25.91-33.135-40.762
			c-8.244-15.044-4.258-31.083-9.331-46.838c-11.073-34.363-49.15-60.287-72.854-85.134c-18.904-19.816-38.904-40.912-43.109-69.055
			c-9.497-63.508,30.153-77.721,84.057-77.413c42.919,0.247,91.565,5.835,134.011,11.328c55.322,7.154,99.751,42.931,142.792,75.566
			c50.969,38.636,99.522,80.3,149.293,120.444c43.031,34.709,80.243,75.984,122.23,111.956
			c34.917,29.908,54.968,57.381,56.526,104.765c0.655,19.953-3.981,37.159-9.981,56.048
			c-18.554,58.419-44.388,120.054-54.521,180.403c-10.813,64.376-0.33,129.606,1.832,194.213
			c3.196,95.391,23.597,189.185,29.742,284.199c7.422,114.696,6.14,230.164,20.779,344.247
			c4.515,35.208,6.008,74.259,22.306,106.456c15.821,31.267,44.227,60.055,78.063,81.679
			c16.584-121.16,49.473-247.132,71.562-350.608c18.294-38.112,13.026-76.438,14.302-117.483
			c4.244-137.313,8.825-273.624,15.753-410.654c7.726-152.855-23.683-290.137,18.349-429.501
			c-223.286-147.135-399.968-388.475-681.574-417.751c-53.013-5.511-105.127-14.54-158.165-16.855
			c-71.616-3.123-131.65,16.297-194.297,0.062C5834.849,1159.064,5911.194,1345.503,5932.765,1413.314z" style="stroke:black;fill:#fffc91"/><path id="180650224" parent_id="180650179" order="35" structure_id="10672" d="M6710.7,2727.217
			c-16.298-32.197-17.791-71.248-22.306-106.456c-14.64-114.083-13.357-229.551-20.779-344.247
			c-6.146-95.014-26.546-188.808-29.742-284.199c-2.162-64.607-12.646-129.837-1.832-194.213
			c10.133-60.349,35.967-121.984,54.521-180.403c6-18.889,10.637-36.095,9.981-56.048c-1.559-47.384-21.609-74.857-56.526-104.765
			c-41.987-35.972-79.199-77.247-122.23-111.956c-49.771-40.144-98.324-81.808-149.293-120.444
			c-43.041-32.636-87.47-68.412-142.792-75.566c-42.445-5.493-91.092-11.081-134.011-11.328
			c-53.903-0.309-93.554,13.905-84.057,77.413c4.205,28.144,24.205,49.239,43.109,69.055c23.703,24.847,61.78,50.771,72.854,85.134
			c5.073,15.755,1.087,31.793,9.331,46.838c8.146,14.852,23.335,26.689,33.135,40.762c26.698,38.318,79.627,131.052,79.627,131.052
			c4.808,18.439-1.03,39.316,7.39,56.756c8.783,18.185,20.733,28.105,26.262,49.4c10.784,41.633,8.478,85.101,12.647,127.592
			c3.244,33.032-0.512,67.279,5.306,99.866c6.771,37.93,16.007,75.671,23.071,113.65c13.58,73.072,29.015,145.581,43.157,218.533
			c11.477,59.159,35.469,117.031,31.977,177.791c-1.86,32.277,10.388,59.819,15.582,91.224
			c14.22,85.888-7.305,172.999-9.123,259.226c-2.019,95.453-12.89,191.997-122.168,217.35c-16.682,3.87-36.321,5.129-55.721,4.245
			c4.306,25.696,8.493,51.391,12.336,77.113c38.789,6.008,77.89,5.26,112.927-9.979
			c395.473-172.032,136.938-783.366,93.831-1077.002c-14.832-101.079-2.96-203.861-18.817-304.052
			c-13.82-87.289-54.89-168.288-80.404-252.459c-1.386-0.447,16.528-0.438,14.917,0.219
			c23.978,66.127,55.813,127.755,76.008,196.305c42.182,143.168,21.994,291.568,54.896,433.152
			c28.321,121.796,68.824,237.215,86.736,361.373c24.901,172.587,52.754,352.697,197.072,470.713
			c0.706,0.577,1.413,1.136,2.119,1.703c1.652-29.935,4.825-60.641,9.072-91.667
			C6754.927,2787.272,6726.521,2758.483,6710.7,2727.217z" style="stroke:black;fill:#ece754"/><path id="180650223" parent_id="180650179" order="36" structure_id="10677" d="M8189.401,2545.867
			c-76.984-159.506-210.596-275.672-343.696-387.9c-19.012-16.031-38.016-31.988-56.841-47.973
			c-64.39-54.676-143.39-90.296-204.068-149.684c-61.523-60.224-100.747-139.842-166.024-196.624
			c-57.793-50.258-133.717-113.027-200.188-149.037c-74.229-40.208-168.873-33.646-245.479-75.232
			c-21.956-11.919-43.372-24.926-64.377-38.768c-42.031,139.364-10.623,276.646-18.349,429.501
			c-6.928,137.03-11.509,273.341-15.753,410.654c-1.275,41.045,3.992,79.371-14.302,117.483
			c-22.089,103.477-54.978,229.449-71.562,350.608c49.62,31.71,110.92,48.009,161.345,34.102
			c47.178-13.014,67.491-67.254,81.921-109.904c13.421-39.669,30.359-82.903,31.76-124.792
			c1.201-35.749-0.484-77.118,16.811-109.598c12.098-22.711,29.984-39.021,38.228-64.616c7.663-23.773,7.164-49.006,14.771-72.841
			c8.634-27.045,23.207-51.875,29.593-79.691c25.907-112.782-50.884-202.255-92.498-300.423
			c-33.102-78.087-90.384-178.395-42.056-264.337c26.571-47.244,84.845-50.803,132.01-37.493
			c144.11,40.683,212.334,192.656,277.101,313.036c38.22,71.032,82.984,147.26,144.599,200.528
			c61.769,53.386,136.771,88.583,204.326,133.673c97.06,64.786,201.39,138.225,270.473,233.554
			c38.754,53.484,53.818,109.739,65.581,173.571c13.664,74.101,23.126,143.071,10.113,218.284
			c-7.757,44.821-36.745,168.65-106.62,125.908c-29.889-18.274-49.897-54.186-67.86-83.02
			c-26.638-42.747-48.786-81.852-86.791-116.124c-15.935-14.372-28.917-40.431-42.808-58.877c1.174,0.161,2.228-0.046,3.169-0.625
			c-84.917-66.151-186.691-129.989-276.757-31.818c-74.849,81.586-38.483,204.062-102.288,293.838
			c-46.343,65.218-123.865,63.114-193.058,73.791c-48.49,7.483-124.95,34.239-153.192,77.541
			c-17.637,27.039-14.703,72.103-5.133,101.668c0.156,0.482,0.325,0.958,0.484,1.439c57.169,17.204,114.373,34.93,164.849,37.116
			c64.104,2.776,138.036,4.641,200.597-9.311c63.369-14.132,125.266-52.663,169.069-92.974
			c32.76-30.146,46.174-65.187,92.674-70.575c74.318-8.612,181.245,64.293,240.82,103.852c0.029,0.02,0.06,0.04,0.09,0.06
			c29.939,19.89,65.175,56.204,101.007,82.73c33.527-69.203,71.091-138.009,98.27-209.117
			C8246.443,2975.794,8286.554,2747.174,8189.401,2545.867z" style="stroke:black;fill:#fffc91"/><path id="180650222" parent_id="180650179" order="37" structure_id="10675" d="M7249.486,2746.313
			c44.133-58.687,77.485-124.396,122.068-183.15c40.384-53.217,96.745-115.917,99.089-187.378
			c2.351-73.032-48.605-119.347-79.146-178.169c-37.779-72.751-61.212-141.811-116.742-206.004
			c36.976,42.742,74.292,87.964,107.395,133.65c67.94,93.793,103.934,198.28,177.727,286.703
			c68.421,81.97,182.771,133.818,274.093,183.462c-1.886,0.256-9.565,1.782-10.491,4.283
			c-74.584-17.261-127.024-74.059-197.773-92.917c-172.322-45.945-293.342,226.246-367.713,339.431
			c-22.313,33.958-54.852,55.82-80.102,86.332c-20.31,24.557-28.899,55.924-53.695,76.6c-17.543,14.626-49.37,16.044-69.93,31.565
			c-78.011,58.93-118.743,166.333-96.248,261.88c45.04,3.692,94.489,18.178,143.969,33.068c-0.159-0.481-0.328-0.957-0.484-1.439
			c-9.57-29.565-12.504-74.629,5.133-101.668c28.242-43.302,104.702-70.058,153.192-77.541
			c69.192-10.677,146.715-8.573,193.058-73.791c63.805-89.776,27.439-212.252,102.288-293.838
			c90.065-98.17,191.84-34.333,276.757,31.818c-0.941,0.579-1.995,0.786-3.169,0.625c13.891,18.446,26.873,44.506,42.808,58.877
			c38.005,34.272,60.153,73.377,86.791,116.124c17.963,28.834,37.972,64.746,67.86,83.02
			c69.875,42.742,98.863-81.087,106.62-125.908c13.013-75.213,3.551-144.184-10.113-218.284
			c-11.763-63.832-26.827-120.087-65.581-173.571c-69.083-95.329-173.413-168.768-270.473-233.554
			c-67.555-45.089-142.558-80.287-204.326-133.673c-61.614-53.268-106.379-129.496-144.599-200.528
			c-64.767-120.379-132.99-272.353-277.101-313.036c-47.165-13.31-105.438-9.75-132.01,37.493
			c-48.328,85.942,8.954,186.25,42.056,264.337c41.614,98.168,118.405,187.642,92.498,300.423
			c-6.386,27.816-20.959,52.646-29.593,79.691c-7.607,23.835-7.108,49.068-14.771,72.841c-8.243,25.595-26.13,41.905-38.228,64.616
			c-17.295,32.48-15.609,73.849-16.811,109.598c-1.4,41.889-18.339,85.123-31.76,124.792c-14.43,42.65-34.743,96.89-81.921,109.904
			c-50.425,13.907-111.725-2.392-161.345-34.102c-4.247,31.025-7.42,61.731-9.072,91.667
			C6949.017,3036.481,7143.52,2887.226,7249.486,2746.313z" style="stroke:black;fill:#ece754"/><path id="180650219" parent_id="180650179" order="38" structure_id="10680" d="M7585.688,3914.358
			c-55.949,56.933,55.889,120.149,5.236,166.816c-41.367-8.817-17.094-48.258-37.587-72.024
			c-28.909-33.526-85.415-44.18-119.737-77.063c-61.383-58.828-69.966-157.93-162.99-182.535c-33.091-8.75-67.431-5.663-98.257,6.37
			c56.366,92.493,124.133,214.969,135.478,285.86c73.704,65.03,187.031,127.043,293.03,141.096
			c6.039-23.777,8.979-49.632,11.452-75.762c4.188-44.304,9.944-55.122-15.235-91.912
			c-80.426-117.51,56.908-129.094,134.408-182.345c-4.729,2.866-9.427,5.715-14.075,8.551
			C7680.422,3863.986,7614.984,3884.54,7585.688,3914.358z" style="stroke:black;fill:#fffc91"/><path id="180650220" parent_id="180650179" order="39" structure_id="10680" d="M7969.994,3303.777
			c-59.575-39.559-166.502-112.464-240.82-103.852c-46.5,5.388-59.914,40.428-92.674,70.575
			c-43.804,40.311-105.7,78.841-169.069,92.974c-62.561,13.952-136.493,12.087-200.597,9.311
			c-50.476-2.187-107.68-19.913-164.849-37.116c37.921,114.726,155.144,187.13,264.871,222.052
			c96.465,30.71,203.285,66.644,305.431,48.046c42.436-7.72,81.514-26.809,117.234-50.484
			c36.622-24.283,74.126-50.276,109.063-76.925c82.396-63,117.527-11.431,89.28,80.296c-1.921,6.241-4.114,12.467-6.552,18.667
			c25.454-47.593,47.276-97.801,68.608-145.487c6.765-15.126,13.874-30.205,21.17-45.265c-35.832-26.526-71.067-62.84-101.007-82.73
			C7970.054,3303.817,7970.023,3303.797,7969.994,3303.777z" style="stroke:black;fill:#fffc91"/><path id="180650221" parent_id="180650179" order="40" structure_id="10678" d="M7898.584,3478.357
			c-34.937,26.649-72.44,52.642-109.063,76.925c-35.721,23.675-74.799,42.764-117.234,50.484
			c-102.146,18.598-208.966-17.336-305.431-48.046c-109.728-34.922-226.95-107.326-264.871-222.052
			c-49.479-14.89-98.929-29.376-143.969-33.068c6.935,29.457,19.873,57.787,39.588,83.222
			c75.455,97.359,198.23,162.293,300.141,228.188c99.212,64.15,245.218,143.29,378.042,135.058
			c36.665-6.661,73.202-12.329,104.365-28.255c1.229-0.627,2.45-1.265,3.661-1.925c-1.215,0.663-2.44,1.287-3.661,1.925
			c-33.006,17.269-68.193,26.013-104.365,28.255c-26.341,4.786-52.747,10.087-77.271,20.083
			c-99.06,40.37-88.546,51.602-179.729,2.089c-88.439-48.019-196.751-89.884-292.148-88.1c13.008,20.121,28.85,45.107,45.716,72.783
			c30.826-12.033,65.166-15.12,98.257-6.37c93.024,24.605,101.607,123.708,162.99,182.535
			c34.322,32.884,90.828,43.537,119.737,77.063c20.493,23.767-3.78,63.207,37.587,72.024
			c50.652-46.667-61.186-109.884-5.236-166.816c29.296-29.819,94.733-50.372,131.723-72.948c4.648-2.836,9.346-5.685,14.075-8.551
			c1.852-1.272,3.67-2.568,5.449-3.89c63.633-47.291,141.771-100.436,188.844-163.009c20.662-27.461,38.873-57.492,55.533-88.641
			c2.438-6.199,4.631-12.426,6.552-18.667C8016.111,3466.926,7980.98,3415.357,7898.584,3478.357z" style="stroke:black;fill:#ece754"/><path id="180650218" parent_id="180650179" order="41" structure_id="10689" d="M7307.831,4041.782
			c-0.017-0.106-0.038-0.217-0.056-0.324c-11.497-70.939-79.141-193.183-135.422-285.536
			c-51.409,20.067-93.051,65.016-102.848,121.446c-18.173,104.653,51.411,163.758-53.092,246.45
			c-46.812,37.04-80.209,97.509-60.7,146.713c8.16,20.581,25.569,39.192,55.135,53.292c74.398,35.46,134.323-6.389,196.448-45.509
			c38.924-24.516,157.205-83.98,160.337,7.987c2.139,62.672-55.321,85.614-99.032,112.728
			c-50.923,31.575-59.054,52.192-66.388,109.457c-6.093,47.541-33.778,198.184-97.297,154.714l-0.409,1.22
			c110.529,68.62,253.621,122.564,321.004-20.076c36.378-76.997-14.037-177.876-32.072-252.973
			c-23.21-96.65,46.8-85.337,115.461-105.997c56.141-16.89,80.067-55.659,91.961-102.496
			C7494.862,4168.825,7381.535,4106.813,7307.831,4041.782z" style="stroke:black;fill:#fffc91"/><path id="180650217" parent_id="180650179" order="42" structure_id="10687" d="M7367.634,4286.302
			c-3.132-91.968-121.413-32.503-160.337-7.987c-62.125,39.12-122.05,80.969-196.448,45.509
			c-29.565-14.1-46.975-32.711-55.135-53.292c-19.509-49.204,13.889-109.673,60.7-146.713
			c104.503-82.692,34.919-141.797,53.092-246.45c9.797-56.431,51.438-101.379,102.848-121.446
			c-16.866-27.676-32.708-52.662-45.716-72.783c-97.306,1.819-181.177,49.052-216.811,181.52
			c-9.723,36.132-21.312,71.79-31.45,107.813c-10.039,35.674-21.408,71.643-30.379,107.493c-8.63,34.48-2.198,71.718,4.223,106.034
			c6.926,37.013,22.379,78.792,43.417,112.905c5.284,8.567,10.913,16.659,16.855,24.062c15.179,18.893,36.038,30.974,54.746,45.835
			c16.585,13.179,27.911,32.069,43.01,47.404c29.716,30.191,45.874,67.73,56.622,108.506c10.091,38.268-9.768,84.397,15.282,116.095
			c79.795,100.986,113.284-79.443,120.061-132.32c7.334-57.265,15.465-77.882,66.388-109.457
			C7312.313,4371.916,7369.772,4348.974,7367.634,4286.302z" style="stroke:black;fill:#ece754"/><path id="180650206" parent_id="180650179" order="43" structure_id="989" d="M4901.997,3366.961
			c-35.757,47.995,21.099,118.415,68.78,139.676c10.635,4.744,38.698,12.225,50.069,8.329
			c64.18-21.979,116.978-51.514,174.362-52.086c56.315-0.57,187.91,73.384,250.506,42.991
			c34.153-16.583,28.599-69.666,31.181-112.67c5.599-93.464-54.525-193.251-142.517-195.691
			c-85.805-2.375-209.138,43.566-285.905,76.625c-48.457,20.868-109.684,48.362-144.448,90.258
			C4903.319,3365.237,4902.646,3366.099,4901.997,3366.961z" style="stroke:black;fill:#fffdbc"/><path id="180650204" parent_id="180650179" order="44" structure_id="91" d="M6388.743,3911.747
			c55.616-62.329,69.923-131.81,127.764-196.674c40.439-45.345,188.926-56.199,219.644-112.408
			c1.354-2.477,5.904-12.598,9.105-20.381c-25.194-1.693-48.926-7.388-63.368-25.281c-23.373-28.954-19.175-80.366-27.929-115.102
			c-10.812-42.899-12.324-104.907-38.459-141.762c-35.084-49.483-94.156-13.442-135.475,6.444
			c-56.983,27.417-122.354,18.99-184.117,10.091c-121.64-17.529-235.975-64.247-346.143-116.939
			c-99.852-47.755-209.927-101.019-323.954-94.528c-86.116,4.907-129.355,30.443-137.298,122.386
			c-1.158,13.396-1.064,26.209,0.289,38.331c6.573,58.731,42.857,101.14,110.807,113.391c44.57,8.033,88.548,18.871,131.961,31.73
			c52.581,15.572,81.915,70.939,138.765,83.259c81.788,17.737,215.673-31.427,235.482,93.584
			c11.771,74.258,54.315,50.445,108.247,34.766c62.382-18.128,126.886,5.899,115.043,79.154
			c-10.305,63.698-74.675,104.945-53.138,176.182c7.385,24.431,22.438,44.134,41.657,59.166
			C6343.262,3950.569,6369.892,3932.871,6388.743,3911.747z" style="stroke:black;fill:#fffdbc"/><path id="180650205" parent_id="180650179" order="45" structure_id="846" d="M6929.471,3590.087
			c-24.772-21.461-80.648-3.522-111.68-6.495c-20.341-1.952-47.179,0.396-72.535-1.309c-3.201,7.784-7.752,17.904-9.105,20.381
			c-30.718,56.209-179.204,67.063-219.644,112.408c-57.841,64.864-72.147,134.346-127.764,196.674
			c-18.852,21.125-45.481,38.823-71.116,25.407c14.652,11.46,31.726,20.207,49.681,26.249
			c45.498,15.31,84.577,36.618,129.217,55.898c90.752,39.202,185.364,105.413,280.835,35.8
			c91.933-67.026,68.183-207.685,103.652-302.764C6896.356,3711.205,6975.756,3630.178,6929.471,3590.087z" style="stroke:black;fill:#fffdbc"/><path id="180650229" parent_id="180650179" order="46" structure_id="1009" d="M5554.806,6913.946
			c108.045-74.343,222.36-133.785,327.271-211.506c121.718-90.191,227.635-203.905,340.865-304.381
			c72.292-64.142,131.024-141.488,197.995-210.822c123.105-127.449,308.959-186.344,403.85-344.003
			c15.139-25.161,23.896-50.713,31.318-78.833c26.643-100.99,29.257-201.572,33.371-304.939c1.28-32.173-14.967-79.946-7.944-109.57
			c-47.66-37.738-50.483-164.945-63.48-221.703c-36.138-157.824-18.337-149.487-145.509-318.254
			c-64.6-85.727-121.358-172.722-180.994-262.228c-45.343-68.054-261.052-330.896-330.186-144.402
			c-76.146,205.378,174.894,280.071,265.116,407.159c-73.704-35.555-179.027-130.07-261.939-63.539
			c-53.049,42.566-17.869,106.059,15.935,148.374c73.368,91.841,181.833,154.298,238.259,259.459
			c76.244,142.086,95.204,336.814,69.658,494.848c-8.403,51.938-25.562,106.854-37.151,157.962
			c-17.427,76.844-75.74,149.859-148.4,194.241c-75.354,46.025-91.971,68.079-170.208,21.493
			c-41.902-24.955-113.133-104.788-167.845-93.267c-67.137,14.131,9.072,107.543,33.072,140.116
			c103.794,140.815,89.031,176.393-17.067,283.888c-59.673,60.474-139.354,121.96-191.865,188.581
			c-59.853,75.938-125.896,147.593-200.297,209.538c-73.437,61.142-160.623,110.506-238.338,167.17
			c-34.038,24.81-88.871,44.794-105.29,86.933c-27.386,70.259,47.462,44.797,84.466,32.749
			C5413.146,7011.779,5482.952,6963.385,5554.806,6913.946z" style="stroke:black;fill:#cccccc"/><path id="180650230" parent_id="180650179" order="47" structure_id="1009" d="M4791.316,7008.402
			c-21.206,2.379-43.139,6.338-65.73,11.729c-42.805,10.207-155.647,38.409-172.259,88.055c-8.214,24.6,33.846,59.267,85.18,81.427
			c44.484,19.197,94.087,31.326,142.395,34.342c55.994,3.493,111.457-3.062,154.766-10.909
			c65.281-11.829,95.512-20.726,146.244-37.98C5023.435,7039.61,4921.061,6993.813,4791.316,7008.402z" style="stroke:black;fill:#cccccc"/><path id="180650231" parent_id="180650179" order="48" structure_id="1009" d="M4420.559,6077.715
			c310.544-142.763,103.633-505.539,105.149-730.7c0.504-75.749,38.552-163.886,54.602-239.702
			c8.204-38.754,12.344-74.778,10.91-107.801c-3.867-89.099-48.309-156.344-162.958-196.398L4420.559,6077.715z" style="stroke:black;fill:#cccccc"/><path id="180650232" parent_id="180650179" order="49" structure_id="1009" d="M4709.139,6806.879
			c-46.963,2.548-151.919,52.129-182.278-15.846c-24.763-55.461,52.088-76.652,95.615-74.206
			c80.579,4.517,188.507,18.968,264.569,49.596c0.146,0.058,0.293,0.115,0.439,0.173c46.063,18.381,275.693,118.906,205.988,132.502
			C5001.833,6864.689,4811.23,6801.388,4709.139,6806.879z" style="stroke:black;fill:#cccccc"/><path id="180650233" parent_id="180650179" order="50" structure_id="1009" d="M5731.457,4822.951
			c-8.182-49.88-185.556-36.599-171.226,16.191C5574.337,4891.093,5737.952,4862.516,5731.457,4822.951z" style="stroke:black;fill:#cccccc"/><path id="180650234" parent_id="180650179" order="51" structure_id="1009" d="M7559.876,2411.963
			c-73.793-88.423-109.786-192.909-177.727-286.703c-33.103-45.687-70.419-90.908-107.395-133.65
			c55.53,64.193,78.963,133.252,116.742,206.004c30.541,58.822,81.497,105.138,79.146,178.169
			c-2.344,71.461-58.705,134.162-99.089,187.378c-44.583,58.754-77.936,124.463-122.068,183.15
			c-106.409,141.501-302.096,291.428-471.915,152.546c-144.318-118.016-172.171-298.126-197.072-470.713
			c-17.912-124.157-58.415-239.577-86.736-361.373c-32.902-141.584-12.715-289.984-54.896-433.152
			c-20.195-68.549-52.03-130.177-76.008-196.305c1.611-0.657-16.303-0.666-14.917-0.219c25.515,84.171,66.584,165.17,80.404,252.459
			c15.857,100.19,3.985,202.973,18.817,304.052c43.106,293.636,301.642,904.97-93.831,1077.002
			c-70.522,30.673-157.509,2.654-225.28-21.051c-32.361-11.32-70.886-20.76-95.657-45.886
			c-22.788-23.108-22.326-64.883-44.38-86.506c-20.624-20.225-57.061-14.047-76.49-33.299c-20.899-20.708-25.3-64.277-34.646-92.78
			c-56.889-173.459-15.223-365.807-56.63-542.815c-59.399-253.904-155.722-490.472-235.25-736.981
			c-38.276-118.616-138.289-232.886-65.411-359.675c-125.216,52.229-265.157-47.583-390.609-63.452
			c-100.999-12.777-206.464-11.542-300.622-7.85c-95.635,3.779-298.703,51.271-383.414-3.303
			c-10.013,18.249-9.779,41.861-6.575,65.356c-1.115-8.179,548.208-27.46,608.069-20.394
			c90.146,10.635,221.267,20.533,294.941,77.625c72.381,56.09,122.236,195.323,152.972,279.98
			c20.072,55.275,58.959,103.145,82.063,157.482c29.665,69.758,48.929,143.808,80.096,213.337
			c76.481,170.632,88.392,354.909,99.103,538.972c8.164,140.241,5.213,312.379-117.05,408.983
			c9.921-7.836-104.884-26.233-125.529-18.354c-35.95,13.713-75.667,43.09-105.992,66.579
			c-76.961,59.61-143.326,118.484-231.738,162.766c-173.157,86.725-363.611,129.629-544.161,197.4
			c-52.867,19.842-140.093,79.012-195.803,57.112c-1.465,10.186-7.367,134.355-2.23,134.617
			c105.515,5.372,208.142,8.788,301.539,62.987c79.375,46.077,118.433,129.599,203.023,173.881
			c59.793,31.284,112.619,74.058,174.481,101.288c130.481,57.422,278.514,70.442,402.956,138.175
			c29.336,15.974,46.427,51.361,69.739,74.187c34.287,33.561,38.009-0.454,80.28-16.557
			c92.097-35.074,149.313-117.766,232.488-120.059c101.923-2.807,143.743,54.295,254.362,109.867
			c88.8,44.612,204.482,55.306,323.943,115.416c151.48,76.222,260.682,205.932,359.335,336.415
			c72.614,96.04,128.227,204.019,235.287,268.109c4.801-79.956,2.489-145.853-47.128-210.899
			c-34.565-45.307-74.307-86.754-109.118-131.587c-113.691-146.413-47.713-274.268-4.468-435.04
			c70.568-262.337,330.312-190.419,508.959-93.42c91.184,49.512,80.67,38.281,179.729-2.089
			c24.573-10.018,51.04-15.309,77.433-20.104c-132.864,8.305-278.953-70.86-378.203-135.037
			c-101.91-65.895-224.686-130.829-300.141-228.188c-83.664-107.939-45.4-268.005,56.66-345.103
			c20.56-15.521,52.387-16.939,69.93-31.565c24.796-20.676,33.386-52.042,53.695-76.6c25.25-30.512,57.788-52.375,80.102-86.332
			c74.371-113.185,195.391-385.375,367.713-339.431c70.749,18.858,123.189,75.656,197.773,92.917
			c0.926-2.501,8.605-4.027,10.491-4.283C7742.647,2545.782,7628.297,2493.934,7559.876,2411.963z M4947.604,3495.255
			c-40.024-23.346-71.361-94.94-42.69-134.213c30.973-42.419,112.553-71.318,158.891-89.62
			c272.155-107.5,256.626-82.267,331.762-54.116c50.948,19.094,72.02,85.31,78.727,138.275
			c5.621,44.408,17.551,128.142-34.158,151.651c-56.714,25.778-159.569-32.001-218.501-37.263
			c-51.646-4.615-98.826,0.528-145.891,25.503C5029.906,3519.8,4999.063,3525.267,4947.604,3495.255z M6881.012,3752.336
			c-35.47,95.079-11.72,235.738-103.652,302.764c-95.471,69.613-190.083,3.402-280.835-35.8
			c-44.64-19.28-83.719-40.589-129.217-55.898c-41.507-13.968-78.323-42.358-91.338-85.415
			c-21.537-71.237,42.833-112.484,53.138-176.182c11.843-73.255-52.661-97.282-115.043-79.154
			c-53.932,15.679-96.477,39.493-108.247-34.766c-19.81-125.011-153.694-75.847-235.482-93.584
			c-56.85-12.32-86.184-67.688-138.765-83.259c-43.413-12.859-87.391-23.697-131.961-31.73
			c-67.949-12.25-104.233-54.66-110.807-113.391c-1.354-12.122-1.447-24.936-0.289-38.331
			c7.942-91.942,51.182-117.479,137.298-122.386c114.027-6.49,224.103,46.773,323.954,94.528
			c110.168,52.692,224.503,99.411,346.143,116.939c61.763,8.899,127.134,17.326,184.117-10.091
			c41.318-19.886,100.391-55.927,135.475-6.444c26.135,36.855,27.647,98.863,38.459,141.762
			c8.754,34.735,4.556,86.147,27.929,115.102c28.979,35.902,95.353,22.698,135.903,26.59c31.031,2.973,86.907-14.966,111.68,6.495
			C6975.756,3630.178,6896.356,3711.205,6881.012,3752.336z" style="stroke:black;fill:#cccccc"/><path id="180650228" parent_id="180650179" order="52" structure_id="145" d="M4431.043,4225.271
			c253.087-6.461,431.226-149.772,586.911-336.486c73.352-87.976,134.418-107.399,246.803-87.941
			c33.646,5.834,69.143,9.882,102.073,18.577c52.499,13.866,100.584,29.424,148.275,55.386
			c29.336,15.974,45.886,51.93,69.739,74.195c22.993,21.461,9.063,21.394-38.382,40.67c-41.905,24.87-66.949,29.385-120.445,35.836
			c-85.447,10.305-159.342-34.996-243.32-43.765c-60.721-6.34-121.845,14.847-177.929,36.865
			c-83.565,32.805-165.852,81.311-235.424,138.276c-68.891,56.397-97.985,125.994-138.1,202.615
			c-40.913,78.135-85.329,160.088-140.606,229.845c-24.642,31.09-52.321,55.947-61.788,91.378L4431.043,4225.271z" style="stroke:black;fill:#aaaaaa"/><path id="180650227" parent_id="180650179" order="53" structure_id="153" d="M6818.052,5128.188
			c12.997,56.758,15.829,183.933,63.488,221.671c4.355-18.072,56.309-14.558,71.138-21.162
			c84.707-37.697,159.071-115.476,187.857-204.017c23.783-73.165,21.445-150.357-7.937-222.93
			c-15.364-37.95-46.388-40.98-80.561-52.424c-10.242-3.428-20.501-8.365-30.85-13.532c-22.772-11.373-45.971-23.856-70.341-23.818
			c-42.863,0.063-72.052,39.708-112.921,46.105c-89.49,13.999-125.928-88.037-199.453-109.938c-0.673,0.716-1.346,1.43-2.035,2.129
			c38.914,72.888,100.049,134.098,133.216,201.881C6796.632,5007.274,6804.464,5068.848,6818.052,5128.188z" style="stroke:black;fill:#aaaaaa"/></g>
</g>
</svg>