<svg width="7936" height="6912" xmlns="http://www.w3.org/2000/svg">
<g transform="scale(1.0)">
<g id="180642501" order="1" parent_id="" graphic_group_label_id="28" graphic_group_label="Atlas - Adult Mouse" sub_image_id="100960132" transform=" scale(1.0, 1.0)"><path id="180642503" parent_id="180642501" order="0" structure_id="8" d="M7501.264,2313.583
			c-16.359-60.404-156.92-283.703-222.668-391.729c-30.872-50.752-32.593-125.974-50.273-151.988
			c-264.485-389.031-670.341-554.93-1127.929-753.252c-132.499-57.423-51.735-87.921-174.511-139.672
			c-70.392-29.673-114.775-93.63-222.29-126.056c-153.864-46.4-224.652-19.038-441.006-115.673
			c-190.546-85.104-296.139-90.451-470.9-136.203c-291.271-76.258-555.653-122.148-879.409-147.804L3793.706,3718.58
			l-11.237,318.818l-71.882,2100.516c51.505,18.504,95.992,176.438,152.379,234.864c61.815,64.059,325.859,116.465,484.197,54.609
			c87.988-34.384,150.654-53.922,198.147-57.701c52.986-4.204,87.211,8.915,119.07-4.151
			c220.171-90.308,318.608-146.962,513.675-248.968c108.397-56.684,190.965-90.629,302.06-164.615
			c111.648-74.354,243.778-179.699,345.314-267.41c164.017-141.689,449.226-553.718,370.275-975.895
			c-6.396-34.191-9.563-69.83-10.144-106.521c11.957,6.335,25.931,1.789,42.478-21.686c30.407-43.151,25.709-105.648,41.59-154.32
			c13.772-42.203,9.477-87.645,21.648-130.075c7.669-26.797,33.993-66.146,10.649-92.328c-5.558-6.236-12.868-9.481-21.028-11.173
			c15.816-1.951,30.461-6.703,41.997-14.912c54.383-38.678,95.677-122.556,257.727-130.016
			c198.606-9.143,420.877-149.702,563.226-352.93c83.706-119.505,73.08-253.774,143.882-373.259
			c38.369-64.729,135.176-172.709,163.822-227.902C7628.078,2753.248,7591.367,2646.414,7501.264,2313.583z" style="stroke:black;fill:#bfdae3"/><path id="180642504" parent_id="180642501" order="1" structure_id="354" d="M3710.587,6137.914
			c51.505,18.504,95.992,176.438,152.379,234.864c61.815,64.059,325.859,116.465,484.197,54.609
			c87.988-34.384,150.654-53.922,198.147-57.701c52.986-4.204,87.211,8.915,119.07-4.151
			c220.171-90.308,318.608-146.962,513.675-248.968c108.397-56.684,190.965-90.629,302.06-164.615
			c111.648-74.354,243.778-179.699,345.314-267.41c164.017-141.689,449.226-553.718,370.275-975.895
			c-72.979-390.152-352.916-642.508-510.278-834.429c-80.946-98.717-139.215-174.589-234.59-230.809
			c-51.121-30.119-82.456-59.146-139.063-80.005c-156.526-57.673-439.672-15.481-552.718-4.858
			c-94.102,8.846-340.141,61.044-435.158,93.167c-141.337,47.783-253.206,80.797-348.564,181.755
			c-35.613,37.708-149.355,153.302-192.865,203.93L3710.587,6137.914z" style="stroke:black;fill:#ff9bcd"/><path id="180642522" parent_id="180642501" order="2" structure_id="711" d="M4942.678,3949.274
			c-30.847-16.433-45.829-65.904-23.988-93.639c34.331-43.547,105.352-19.132,149.102-11.902
			c24.943,4.131,81.547-0.724,100.053,18.91c23.664,25.094-4.421,55.183-25.601,71.51
			C5088.213,3975.853,5003.281,3981.572,4942.678,3949.274z" style="stroke:black;fill:#ffa5d2"/><path id="180642523" parent_id="180642501" order="3" structure_id="903" d="M5076.148,3816.277
			c85.515,15.005,188.919,5.294,273.566-10.193c23.087-4.236,68.487-3.009,65.615-35.342
			c-3.166-35.467-68.147-81.497-50.296-119.923c10.227-22.067,38.402-8.898,23.101-45.542
			c-11.015-26.392-65.255-40.13-89.943-50.084c-58.013-23.422-123.7-20.722-185.211-21.241
			c-71.649-0.617-150.152,15.151-181.897,84.979c-16.309,35.854-39.464,89.921-21.397,128.593
			C4935.104,3801.882,5025.018,3807.313,5076.148,3816.277z" style="stroke:black;fill:#ffa5d2"/><path id="180642521" parent_id="180642501" order="4" structure_id="682" d="M4926.12,4339.72c-70.37,28.771-145.65,27.17-227.21,18.57
			c-7.34-0.771-14.62-1.68-21.87-2.72l-1.51-5.07c-20.84-52.01-24.19-126.25-20.07-181.3c4.64-62.2,24.99-113.61-7.79-172.97
			l-4.17-8.061c22.78,0.25,46.28,1.6,71.05,4.86c74.66,9.83,146.04,12.34,199.87,60.68c29.05,26.08,52.8,54.57,85.5,76.87
			c19.4,13.22,32.46,33.7,33.2,58.65c1.25,43.159-15.37,95.96-53.601,121.829C4962.03,4322.89,4944.24,4332.31,4926.12,4339.72z" style="stroke:black;fill:#ffa5d2"/><path id="180642520" parent_id="180642501" order="5" structure_id="691" d="M4446.15,4288.71c-51.931-20.68-102.011-47.37-132.78-88.77
			c-25.38-34.16-57.93-67.091-68.42-104.9c-1.16-4.17-2.05-8.41-2.641-12.71c-2.51-18.521,0.7-38.29,12.771-59.97
			c34.18-61.431,107.729-33.75,163.09-29.63c81.21,6.02,149.34-5.41,225.33-4.561l4.17,8.061c32.78,59.359,12.43,110.77,7.79,172.97
			c-4.12,55.05-0.77,129.29,20.07,181.3l1.51,5.07c-71.85-10.261-139.35-32.95-208.271-58.24
			C4461.23,4294.56,4453.67,4291.7,4446.15,4288.71z" style="stroke:black;fill:#ffa5d2"/><path id="180642519" parent_id="180642501" order="6" structure_id="437" d="M5587.75,5580.568
			c34.127-11.977,92.833-46.548,122.799-75.347c0,0,12.623-10.023,56.731-55.073c100.792-102.896,174.052-193.513,222.942-328.432
			c63.697-175.731,45.867-301.629,25.426-414.134c-22.515-123.879-102.945-211.237-172.173-305.518
			c-74.463-101.373-156.705-172.856-246.394-250.386c-44.152-38.167-98.902-84.474-137.666-123.432l-1.983-0.716
			c-106.391-2.183-228.358,1.861-310.013,79.521c-44.104,41.95-61.894,94.951-94.158,144.236
			c-31.939,48.802-82.269,84.292-96.065,144.204c-21.184,91.94,43.525,174.986,113.63,228.503
			c61.239,46.754,114.743,102.054,175.331,149.692c84.74,66.66,120.48,192.685,118.524,295.507
			c-2.126,112.239-42.806,204.768,34.538,303.11c38.537,49.01,74.327,82.769,110.613,133.527
			c11.258,15.748,28.074,27.943,40.998,54.722L5587.75,5580.568z" style="stroke:black;fill:#ffa5d2"/><path id="180642511" parent_id="180642501" order="7" structure_id="939" d="M4940.449,5442.305
			c21.353-42.019,104.075-4.333,103.773,31.126c-0.304,35.459-60.706,93.24-92.131,68.387
			C4935.515,5528.714,4919.308,5483.916,4940.449,5442.305z" style="stroke:black;fill:#ffb3d9"/><path id="180642510" parent_id="180642501" order="8" structure_id="143" d="M5000.44,5709.735
			c37.276,11.115,116.254-7.579,125.68-56.037c14.181-72.997-131.717-95.178-172.892-74.442
			C4874.727,5618.796,4939.589,5691.591,5000.44,5709.735z" style="stroke:black;fill:#ffb3d9"/><path id="180642515" parent_id="180642501" order="9" structure_id="1048" d="M4866.94,5550.65c0,0,4.529,15.1,6.05,28.43
			c-7.601-16.51-18.931-29.24-40.721-32.99c-82.96-14.26-73.609,57.57-70.27,114.53c-15.52,96.63-57,220.479-93.62,133.899
			c21.28-42.319,35.95-94.42,42.23-149.239c17.18-150.05-71.94-276.09-231.591-258.391c-82.5,9.15-176.39,53.67-179.189,133.351
			c-4,113.45,59.96,237.02,117.41,303.41c43.49,68.279,85.689,150.84-36.74,172.85c-28.182,4.785-52.634-30.763-71.157-51.019
			c-45.727-50.002-105.507-109.508-202.412-216.691c-44.881-49.641-127.329-169.151-204.108-197.022
			c-32-11.616-19.874-43.623-12.426-82.193c12.426-64.345,3.152-108.709-5.17-191.834c-6.31-63.021-24.267-98.228-24.973-103.634
			c-10.878-83.472-13.705-137.872-5.414-195.644c17.646-122.96,35.964-274.635,45.119-393.181
			c3.84-49.718-43.857-88.752-63.759-140.452c40.75,43.53,119.57,95.6,138.33,24.09c11.89-45.36,11.16-99.97,26.189-151.39
			c14.19-48.53,26.45-52.74,24.29-97.19l4.021,4.311c62.739,81.979,193.91,192.359,261.649,273.02
			c52.08,61.99,104.65,129.561,148.57,197.53c70.86,109.689,121.34,241.01,205.93,339.79l8.69,11.42c-4.53,2.38-8.74,5-12.59,7.87
			c-33.5,24.939-37.391,77.47-6.7,106.92c18.97,18.2,48.87,23.04,80.26,23.92l4.09,6.85c37.04,55.91,62.851,111.41,85.41,181.74
			C4825.35,5419.27,4847.54,5486.35,4866.94,5550.65z" style="stroke:black;fill:#ffb3d9"/><path id="180642507" parent_id="180642501" order="10" structure_id="83" d="M4835.279,6292.271
			c4.162-69.544-60.023-129.407-103.639-176.321c-44.787-48.17-110.634-94.546-179.891-78.598
			c-33.778,7.783-63.064,19.686-86.975,44.662c-18.429,19.253-17.894,15.897-45.812,24.517
			c-33.277,10.276-47.779-5.86-93.716-24.164l0.652-1.179c-20.064-10.899-37.799-23.421-48.809-33.898
			c-54.485-51.869-103.88-130.928-166.683-124.793c-45.235,4.413-81.853-25.834-108.313-64.319
			c-12.095-17.591-16.111-81.827-25.579-103.132c-21.609-48.573-94.342-125.031-94.342-125.031
			c-96.292-5.217-97.981,109.181-98.177,176.496c-0.329,111.181,62.753,219.877,18.124,330.985
			c-17.57,43.751-27.578,79.368-8.829,121.172c17.311,38.603,40.076,83.446,69.672,114.111
			c61.815,64.059,325.859,116.465,484.197,54.609c87.988-34.384,150.654-53.922,198.147-57.701
			c11.244-0.892,22.746-0.853,34.017-0.65c16.691,0.29,33.294,2.475,49.971,2.605c14.872,0.117,29.279-3.265,42.939-9.098
			c3.972-1.702,7.944-3.396,11.913-5.09c8.101-3.455,16.193-6.913,24.285-10.369c28.979-12.352,57.944-24.73,86.829-37.3
			C4808.608,6303.979,4821.951,6298.143,4835.279,6292.271z" style="stroke:black;fill:#ffb3d9"/><path id="180642517" parent_id="180642501" order="11" structure_id="136" d="M5246.16,4773.69c84.74,66.659,120.479,192.68,118.52,295.51
			c-1.529,81.05-23.17,151.81-5.949,221.92c-5.591,31.53-25.03,54.26-85.431,35.979c-46.77-25.859-125.319-66.38-153.12-52.229
			c-3.46,1.76-33.68,8.63-40.68,62.63c3,44,11.881,55.795-6,76c-28.138,31.795-65.822-4.602-113,7
			c-65.964,16.221-97.414,69.577-103,65c-15.237-12.484-61-163-104-268c-1.297-3.167-38.932-44.997-15-49
			c21.076-3.525,113.162,10.751,142,14c71,8,104,10,143.01,3.91c5.931-0.72,11.82-1.66,17.641-2.83
			c140.699-28.33-51.15-167.58-130.82-173.86c-63.73-5.02-192.04-17.34-256.46,16.69l-8.69-11.42
			c-84.59-98.78-135.069-230.101-205.93-339.79c-43.92-67.97-96.49-135.54-148.57-197.53
			c-67.739-80.66-198.91-191.04-261.649-273.02l-4.021-4.311v-0.01c-0.22-4.49-0.479-8.87-0.8-13.13
			c44.16-107.15,128.2-142.101,218.1-104.87c0.591,4.3,1.48,8.54,2.641,12.71c10.49,37.81,43.04,70.74,68.42,104.9
			c30.77,41.399,80.85,68.09,132.78,88.77l1.159,5.771c43.591,133.17,113.4,235.38,235.32,308.729
			c94.55,56.89,190.58,91.74,301.88,77.39c25.4-3.27,79.63-9.71,103.431-33.92l4.71-5.43
			C5145.06,4683.96,5192.87,4731.79,5246.16,4773.69z" style="stroke:black;fill:#ffb3d9"/><path id="180642514" parent_id="180642501" order="12" structure_id="203" d="M4926.524,5184.175
			c38.964,4.938,77.969,6.786,114.625-0.593c140.704-28.33-51.149-167.587-130.814-173.865
			c-68.217-5.368-210.391-19.11-269.057,24.567c-33.501,24.94-37.389,77.467-6.693,106.918
			c39.292,37.699,125.441,18.1,174.628,24.619C4846.523,5170.767,4886.51,5179.104,4926.524,5184.175z" style="stroke:black;fill:#ffb3d9"/><path id="180642512" parent_id="180642501" order="13" structure_id="955" d="M4299.826,5520.239
			c-4.405,125.025,73.72,262.338,134.71,321.87c141.303,137.925,255.173-14.348,276.072-196.827
			c17.183-150.052-71.939-276.09-231.59-258.389C4396.521,5396.044,4302.634,5440.561,4299.826,5520.239z" style="stroke:black;fill:#ffb3d9"/><path id="180642513" parent_id="180642501" order="14" structure_id="955" d="M5317.146,5640.644
			c-45.874-84.084-154.408-87.946-200.019-164.305c-27.58-46.177-61.624-168.531,3.054-201.471
			c34.669-17.651,148.228,49.711,180.724,67.677c54.944,30.372,91.47,78.372,135.195,122.234
			c20.592,20.676,61.78,46.545,64.633,77.198c-22.471,1.154-48.679-17.396-70.333-3.739c-37.659,23.733,0.081,91.235-5.688,125.361
			c-4.263,25.263-73.874,57.114-72.712,65.19C5347.491,5697.72,5332.268,5668.363,5317.146,5640.644z" style="stroke:black;fill:#ffb3d9"/><path id="180642508" parent_id="180642501" order="15" structure_id="963" d="M5544.813,5852.702
			c-39.353,27.398-89.21,54.67-132.851,75.693c-36.722,17.682-93.775,37.114-108.259,23.603
			c-7.767-7.232-3.336-23.923,22.989-55.406c37.606-44.96,85.429-87.587,132.564-122.722
			c52.7-39.263,129.611-144.723,200.47-103.504C5719.845,5705.353,5590.433,5820.924,5544.813,5852.702z" style="stroke:black;fill:#ffb3d9"/><path id="180642518" parent_id="180642501" order="16" structure_id="852" d="M4677.04,4355.57c7.25,1.04,14.53,1.949,21.87,2.72
			c81.56,8.6,156.84,10.2,227.21-18.57c18.55,4.16,35.08,14.95,41.01,27.16c-4.189,8.96-7.59,18.43-9.93,28.61
			c-21.19,91.939,43.52,174.99,113.63,228.51c7.38,5.63,14.64,11.39,21.82,17.25l-4.71,5.43
			c-23.801,24.21-78.03,30.65-103.431,33.92c-111.3,14.351-207.33-20.5-301.88-77.39c-121.92-73.35-191.729-175.56-235.32-308.729
			l-1.159-5.771c7.52,2.99,15.08,5.85,22.619,8.62C4537.69,4322.62,4605.19,4345.31,4677.04,4355.57z" style="stroke:black;fill:#ffb3d9"/><path id="180642509" parent_id="180642501" order="17" structure_id="978" d="M5210.765,5576.443
			c48.42,20.056,87.378,78.006,95.432,128.916c6.771,42.847-15.966,58.642-44.726,76.242c-24.655,15.089-53.26,33.422-76.889,49.587
			c-61.382,41.993-127.817,88.75-178.047,143.826c-34.626,37.957-57.003,86.256-86.914,127.695
			c-12.486,17.299-33.897,41.238-51.616,67.121c-10.631,15.529-15.937,26.087-22.882,37.327
			c-16.495,26.696-61.933-68.285-84.76-87.514c-35.844-30.206-83.453-59.501-105.423-102.538
			c-29.656-58.12,30.524-92.485,58.945-135.288c38.387-57.882,46.955-123.475,48.82-194.842
			c1.503-57.452-26.994-157.482,69.56-140.891c51.324,8.825,44.616,67.488,67.901,107.959c21.456,37.289,38.994,51.745,81,69.617
			c64.896,27.621,150.859,6.346,169.706-66.525C5163.386,5608.675,5144.303,5548.945,5210.765,5576.443z" style="stroke:black;fill:#ffb3d9"/><path id="180642526" parent_id="180642501" order="18" structure_id="169" d="M3854.845,3957.192
			c66.2-14.058,142.261,7.513,204.637-12.81c70.687-23.017,105.039-110.088,112.595-177.824c2.212-19.841,2.117-39.801,0.364-59.676
			l-0.571-1.357c-73.665,29.842-138.189,66.175-196.535,127.943c-21.873,23.155-73.208,75.691-119.644,124.505L3854.845,3957.192z" style="stroke:black;fill:#ffb3d9"/><path id="180642525" parent_id="180642501" order="19" structure_id="202" d="M4323.898,3651.714
			c-11.86,4.013-23.765,7.856-35.571,12.036c-20.312,7.192-40.789,13.522-60.896,21.271c-9.871,3.81-20.77,5.367-30.361,9.753
			c-10.285,4.708-8.24,12.114-7.228,21.537c0.802,7.545,1.39,15.11,2.031,22.674c2.346,27.488,4.54,54.992,6.343,82.521
			c1.779,27.259,3.212,54.544,4.11,81.854c1.738,52.734,12.581,80.141,68.796,44.067c34.981-22.441,59.712-58.434,89.14-87.098
			c68.06-66.285,80.447-240.928,80.447-240.928C4393.729,3630.841,4352.142,3642.159,4323.898,3651.714z" style="stroke:black;fill:#ffb3d9"/><path id="180642524" parent_id="180642501" order="20" structure_id="225" d="M4463.234,3672.313
			c-4.167,51.736-22.6,101.203-40.672,150.148c-11.405,30.903-53.749,88.65-21.937,119.762c30.301,29.624,110.96-2.75,146.592-6.924
			c49.648-5.815,90.867-22.282,138.406-36.499c48.479-14.503,140.269-52.006,169.498-93.667
			c22.189-31.637,12.621-78.421,21.259-114.413c8.309-34.621,39.449-74.624,30.278-110.925
			c-3.034-11.979-13.13-19.686-27.636-24.294c-8.093-2.577-25.313-6.996-25.313-6.996c-37.537,3.746-70.095,7.352-94.637,9.537
			c-55.724,4.962-164.742,24.499-264.102,46C4494.973,3604.043,4465.785,3640.646,4463.234,3672.313z" style="stroke:black;fill:#ffb3d9"/><path id="180642516" parent_id="180642501" order="21" structure_id="773" d="M3941.229,4090.975
			c-107.967,11.634-130.167,29.883-138.126,130.751c-4.442,56.208-15.671,132.526,14.523,179.938
			c26.893,42.199,134.542,132.476,156.901,47.253c11.897-45.361,11.166-99.965,26.194-151.385
			c14.192-48.529,26.444-52.742,24.287-97.2C4021.45,4127.093,4005.599,4084.04,3941.229,4090.975z" style="stroke:black;fill:#ffb3d9"/><path id="180642505" parent_id="180642501" order="22" structure_id="230" d="M3718.855,5804.389
			c76.235,28.351,88.023,208.662,58.845,264.261c-15.189,28.918-35.418,49.063-67.489,60.216L3718.855,5804.389z" style="stroke:black;fill:#ffc6e2"/><path id="180642506" parent_id="180642501" order="23" structure_id="222" d="M3735.88,5391.061
			c-1.885,78.383-4.677,156.741-7.14,235.106c-0.41,12.916-13.744,160.44-5.16,163.801c45.247,17.69,69.889-136.642,82.04-167.175
			C3841.217,5533.259,3806.841,5449.435,3735.88,5391.061z" style="stroke:black;fill:#ffc6e2"/><path id="180642527" parent_id="180642501" order="24" structure_id="512" d="M3793.706,3718.58
			c36.032,4.048,119.153,64.867,167.814,53.206c154.735-37.086,245.031-86.039,422.036-135.356
			c220.095-61.313,442.896-95.68,698.99-100.565c151.151-2.887,314.79-16.926,435.822,26.469
			c136.43,48.904,174.371,145.351,251.877,273.146c58.534,96.552,154.457,225.216,248.694,284.156
			c52.665,32.939,144.597,53.69,200.664,68.264c35.454,9.21,77.273,8.249,103.292-10.266
			c54.383-38.678,95.677-122.556,257.727-130.016c198.606-9.143,420.877-149.702,563.226-352.93
			c83.706-119.505,73.08-253.774,143.882-373.259c38.369-64.729,135.176-172.709,163.822-227.902
			c176.526-340.278,139.815-447.112,49.712-779.943c-16.359-60.404-156.92-283.703-222.668-391.729
			c-30.872-50.752-32.973-125.72-50.273-151.988c-256.148-388.735-670.341-554.93-1127.929-753.252
			c-132.499-57.423-51.735-87.921-174.511-139.672c-70.392-29.673-114.775-93.63-222.29-126.056
			c-153.864-46.4-224.652-19.038-441.006-115.673c-190.546-85.104-296.139-90.451-470.9-136.203
			c-291.271-76.258-555.653-122.148-879.409-147.804L3793.706,3718.58z" style="stroke:black;fill:#f0f080"/><path id="180642533" parent_id="180642501" order="25" structure_id="10722" d="M5042.642,1669.624
			c21.428-92.84,55.601-188.276,22.578-282.887c-27.877-79.928-77.381-155.738-148.129-203.245
			c-41.231-27.689-83.998-53.035-127.761-76.504c-134.184-71.959-284.551-101.885-426.372-152.447
			c-77.865-27.761-158.363-42.147-239.999-53.421c-68.373-9.442-153.77-37.354-226.697-44.452l-8.028,224.16
			c31.974,20.962,61.363,44.007,100.466,54.124c0.015,0.003,0.028,0.007,0.042,0.011c40.771,10.517,83.954-4.282,125.196,3.946
			c116.623,23.265,221.337,79.089,340.622,97.511c79.364,12.251,128.047,33.416,185.576,101.219
			c65.909,77.698,28.547,135.684,8.351,221.809c-24.475,104.354,19.041,126.291-74.656,173.634
			c-36.052,18.214-50.425,42.906-91.047,48.113c-53.403,6.84-95.447-9.116-147.866,12.091
			c-58.069,23.491-135.273,110.736-188.397,118.408c-63.541,9.177-116.237,45.246-162.146,8.639
			c-42.93-34.249-80.208-73.316-122.333-108.167l-18.498,516.48c10.483-4.714,55.888,0.179,82.695,3.871
			c44.777,6.156,89.749-13.063,134.083-16.715c52.274-4.298,105.874-0.938,158.385-3.639c98.045-5.045,192.241-20.65,288.861-35.988
			c56.467-8.967,114.382-13.153,171.345-21.905c121.873-137.249,228.503-304.124,268.414-368.61
			C4997.195,1805.085,5023.442,1752.89,5042.642,1669.624z" style="stroke:black;fill:#fffc91"/><path id="180642534" parent_id="180642501" order="26" structure_id="10722" d="M4421.243,653.319
			c91.854-24.15,182.109-72.367,269.193-110.258c30.956-13.469,61.361-27.971,88.118-47.477
			c-285.717-74.248-534.19-120.354-864.192-144.306l-9.995,279.066C4068.293,668.414,4255.011,697.027,4421.243,653.319z" style="stroke:black;fill:#fffc91"/><path id="180642531" parent_id="180642501" order="27" structure_id="10720" d="M4454.561,1236.418
			c-119.285-18.421-223.999-74.246-340.622-97.511c-41.242-8.228-84.426,6.571-125.196-3.946
			c-33.905-8.748-65.008-43.143-98.641-35.537l-27.544,722.996c43.457,4.858,89.067,71.793,121.838,97.926
			c45.889,36.592,98.585,0.523,162.126-8.654c53.124-7.672,130.328-94.917,188.397-118.408
			c52.419-21.207,94.463-5.251,147.866-12.091c40.622-5.207,54.995-29.899,91.047-48.113c93.697-47.343,50.182-69.28,74.656-173.634
			c20.196-86.125,57.559-144.111-8.351-221.809C4582.607,1269.834,4533.925,1248.67,4454.561,1236.418z" style="stroke:black;fill:#ece754"/><path id="180642532" parent_id="180642501" order="28" structure_id="10720" d="M4507.569,2276.172
			c-96.62,15.338-190.816,30.943-288.861,35.988c-52.511,2.702-106.11-0.659-158.385,3.639
			c-44.335,3.652-89.307,22.872-134.083,16.715c-26.807-3.692-72.211-8.584-82.695-3.871l-2.392,66.771
			c211.893,9.261,424.536-13.318,634.693-39.231c40.273-4.966,80.729-10.755,121.232-17.286c2.67-0.431,5.342-0.887,8.013-1.323
			l72.756-83.15C4621.229,2263.066,4563.684,2267.261,4507.569,2276.172z" style="stroke:black;fill:#ece754"/><path id="180642535" parent_id="180642501" order="29" structure_id="10725" d="M5866.15,1388.09
			c20.752-36.937,138.471-276.54,207.076-384.371c-94.029-49.386-34.088-79.04-147.344-126.778
			c-70.392-29.673-114.775-93.63-222.29-126.056c-153.864-46.4-224.652-19.038-441.006-115.673
			c-190.546-85.104-296.139-90.451-470.9-136.203c-4.387-1.148-8.763-2.29-13.132-3.425c-26.757,19.506-57.162,34.008-88.118,47.477
			c-87.084,37.891-177.34,86.108-269.193,110.258c-166.232,43.708-352.95,15.095-516.875-22.975l-8.105,226.322
			c72.927,7.098,158.324,35.01,226.697,44.452c81.636,11.273,162.134,25.66,239.999,53.421
			c141.821,50.562,292.188,80.488,426.372,152.447c43.763,23.469,86.529,48.814,127.761,76.504
			c70.748,47.507,120.252,123.317,148.129,203.245c33.022,94.611-1.15,190.047-22.578,282.887
			c-19.199,83.266-45.446,135.462-95.313,216.034c-39.911,64.486-146.541,231.361-268.414,368.61
			c30.525-4.69,60.778-10.688,90.387-19.442c106.198-31.402,295.533-51.052,361.551-149.368
			c135.037-201.1,246.175-389.193,249.026-629.337c0.561-46.463-15.665-101.541-34.628-143.443
			c-39.089-86.424-113.734-152.806-187.785-209.335c-50.788-38.781-97.953-73.708-156.008-102.242
			c-33.404-16.424-63.765-40.099-93.625-62.66c-44.287-33.469-82.7-74.143-103.611-126.305
			c-21.094-52.638-1.625-100.746,43.135-134.991c118.72-90.824,322.771-7.808,430.772,69.885
			c112.505,80.937,245.622,112.404,375.645,155.1c63.889,20.979,189.952,48.181,198.226,137.729
			c6.217,67.443-102.742,136.245-137.936,196.854c-53.353,91.911-51.04,252.555,17.458,331.38
			c8.171,9.404,18.432,17.447,30.194,24.206c4.261-9.301,7.97-17.461,11.029-24.26
			C5803.617,1499.429,5865.551,1389.157,5866.15,1388.09z" style="stroke:black;fill:#fffc91"/><path id="180642536" parent_id="180642501" order="30" structure_id="10723" d="M5731.521,1568.09
			c-68.498-78.826-70.811-239.47-17.458-331.38c35.193-60.609,144.152-129.41,137.936-196.854
			c-8.273-89.547-134.337-116.75-198.226-137.729c-130.022-42.696-263.14-74.163-375.645-155.1
			c-108.001-77.693-312.053-160.708-430.772-69.885c-44.76,34.245-64.229,82.353-43.135,134.991
			c20.911,52.163,59.324,92.836,103.611,126.305c29.86,22.562,60.221,46.236,93.625,62.66
			c58.055,28.534,105.22,63.461,156.008,102.242c74.051,56.53,148.696,122.911,187.785,209.335
			c18.963,41.902,35.188,96.98,34.628,143.443c-2.852,240.145-113.989,428.238-249.026,629.337
			c-66.018,98.316-255.353,117.966-361.551,149.368c-29.607,8.754-59.858,14.752-90.383,19.441c-0.356,0.055-0.714,0.104-1.07,0.159
			l-72.756,83.15c138.288-22.629,277.053-53.881,411.072-91.001c61.94-17.159,128.789-22.873,192.083-33.594
			c48.197-8.161,105.114-17.506,144.509-50.163c33.917-28.122,59.915-74.062,79.272-112.282
			c30.307-59.853,53.175-120.934,72.886-184.959c16.893-54.935,29.128-111.645,35.643-168.745
			c11.368-99.858,6.527-199.883-10.085-298.827c-14.614-87.059-17.184-179.969-60.079-259.158
			c-13.834-25.535-58.069-66.832-43.648-100.014c8.615-19.829,32.364,3.299,42.282,14.188
			c87.757,96.38,85.834,243.985,109.046,364.272c18.203,94.21,35.474,196.598,116.253,256.459
			c7.243,5.369,14.933,10.015,22.987,14.039c17.602-37.429,32.99-70.58,44.402-95.496
			C5749.952,1585.538,5739.691,1577.494,5731.521,1568.09z" style="stroke:black;fill:#ece754"/><path id="180642530" parent_id="180642501" order="31" structure_id="10734" d="M4125.823,3106.981
			c118.449-22.463,412.816-82.659,593.405-76.301c43.329-0.285,87.371,0.418,131.414,0.479
			c-50.313-48.962-139.665-87.823-175.933-100.416c-110.302-38.291-221.761-53.788-336.082-74.272
			c-42.865-7.679-92.963-3.851-135.776-10.836c-83.068-13.567-164.186,4.992-250.242-0.481c-43.74-2.774-84.105,4.799-127.601,1.073
			l-10.556,294.736l16.143,1.076C3830.595,3142.04,4039.567,3123.331,4125.823,3106.981z" style="stroke:black;fill:#fffc91"/><path id="180642529" parent_id="180642501" order="32" structure_id="10732" d="M4988.356,2984.982
			c-49.387-39.391-111.903-89.676-171.388-113.252c-83.946-33.291-192.552-29.417-272.565-78.508
			c-81.297-49.879-131.838-61.822-225.755-83.105c-111.505-25.273-225.338-52.225-337.898-72.78
			c-52.629-9.604-135.129-6.187-148-7.264l-7.741,216.156c43.496,3.726,83.861-3.847,127.601-1.073
			c86.057,5.473,167.174-13.086,250.242,0.481c42.813,6.985,92.911,3.157,135.776,10.836
			c114.321,20.484,225.78,35.981,336.082,74.272c35.602,12.362,122.358,50.033,173.124,97.726
			c63.494-1.178,137.571-2.694,190.3-4.208C5022.093,3011.747,5005.686,2998.812,4988.356,2984.982z" style="stroke:black;fill:#ece754"/><path id="180642544" parent_id="180642501" order="33" structure_id="10737" d="M5587.042,3546.482
			l16.963,60.914L5587.042,3546.482l-84.526-40.411c-92.424-47.075-206.382-50.654-307.416-59.542
			c-121.483-10.696-260.386-7.054-382.212,0.613c-66.217,4.173-128.29,18.638-194.838,21.045
			c-75.609,2.729-152.144,15.161-225.547,34.935c-90.207,24.3-188.853,80.688-280.962,99.212
			c-71.917,14.47-210.008,20.179-233.299-73.975c-32.317-130.662,158.884-178.974,241.76-200.711
			c62.392-16.365,106.02-60.42,170.126-77.086c135.08-35.095,266.071-55.16,405.518-61.701
			c56.035-2.624,119.751,3.738,164.652-38.43c43.565-40.916,27.736-82.884-9.655-119.272c-44.043-0.061-88.085-0.764-131.414-0.479
			c-180.589-6.358-474.956,53.838-593.405,76.301c-86.256,16.35-295.228,35.059-295.228,35.059l-16.143-1.076l-24.866,694.31
			c48.479-112.349,123.273-51.826,171.934-63.487c154.735-37.086,245.031-86.039,422.036-135.356
			c220.095-61.313,442.896-95.68,698.99-100.565c151.151-2.887,314.79-16.926,435.822,26.469
			c36.639,13.134,66.175,29.696,91.281,49.374L5587.042,3546.482z" style="stroke:black;fill:#fffc91"/><path id="180642543" parent_id="180642501" order="34" structure_id="10735" d="M5537.694,3448.021
			c-49.6-68.053-147.65-159.794-210.746-215.013c-54.934-48.086-106.659-70.094-166.041-114.942
			c-44.473-33.582-82.466-62.361-122.773-93.805c-52.729,1.514-126.806,3.03-190.3,4.208
			c39.385,37.002,57.106,80.035,12.464,121.962c-44.901,42.168-108.617,35.807-164.652,38.43
			c-139.446,6.541-270.438,26.605-405.518,61.701c-64.106,16.666-107.734,60.721-170.126,77.086
			c-82.876,21.737-274.077,70.049-241.76,200.711c23.291,94.153,161.382,88.444,233.299,73.975
			c92.109-18.524,190.755-74.912,280.962-99.212c73.403-19.773,149.938-32.206,225.547-34.935
			c66.548-2.407,128.621-16.872,194.838-21.045c121.826-7.667,260.729-11.31,382.212-0.613
			c101.034,8.888,214.992,12.467,307.416,59.542l97.296,46.516C5579.156,3534.728,5556.805,3474.226,5537.694,3448.021z" style="stroke:black;fill:#ece754"/><path id="180642538" parent_id="180642501" order="35" structure_id="10677" d="M6466.948,2272.127
			c89.681-84.742,113.934-198.023,236.095-247.1c129.684-52.089,244.309-28.73,372.703-31.885
			c82.416-2.025,171.632,21.914,251.652,8.346c-18.302-29.85-35.163-57.224-48.803-79.635
			c-30.872-50.752-33.021-125.684-50.273-151.988c-252.135-384.42-670.341-554.93-1127.929-753.252
			c-10.274-4.453-19.263-8.743-27.167-12.894c-68.605,107.832-186.324,347.435-207.076,384.371
			c-0.6,1.067-62.533,111.339-93.406,179.946c-3.06,6.799-6.769,14.959-11.029,24.26c63.244,36.335,169.941,35.483,229.086,8.811
			c87.913-39.665,111.774-113.783,101.706-202.274c-6.362-55.786-14.625-123.563,3.112-177.749
			c21.281-64.979,86.716-81.527,146.953-60.462c56.805,19.869,95.274,55.94,133.164,100.469
			c23.012,27.037,46.225,53.844,77.659,70.149c63.234,32.778,121.771,65.768,189.095,89.763
			c57.794,20.603,119.896,47.863,172.844,78.147c59.885,34.26,109.253,73.203,155.879,124.019
			c40.231,43.853,86.561,111.628,79.686,174.424c-6.963,63.658-82.746,61.822-130.76,54.457
			c-28.874-4.428-57.514-11.878-85.463-20.256c-48.168-14.438-93.089-38.417-140.871-53.032
			c-84.178-25.749-186.83-25.468-268.268,8.164c-51.489,21.255-100.548,52.11-144.409,86.329
			c-53.353,41.642-100.974,90.052-152.619,133.788c-41.038,34.754-103.76,57.487-156.044,66.449
			c-121.92,20.903-247.146,122.113-234.803,256.588c5.058,54.993,41.739,106.642,83.521,141.109
			c13.642,11.254,27.525,22.147,41.54,32.886c69.951-19.841,155.803-41.711,236.838-57
			C6298.659,2409.509,6331.844,2399.749,6466.948,2272.127z" style="stroke:black;fill:#fffc91"/><path id="180642537" parent_id="180642501" order="36" structure_id="10675" d="M5821.183,2471.189
			c-41.781-34.468-78.463-86.117-83.521-141.109c-12.343-134.475,112.883-235.685,234.803-256.588
			c52.284-8.962,115.006-31.695,156.044-66.449c51.646-43.736,99.267-92.146,152.619-133.788
			c43.861-34.219,92.92-65.074,144.409-86.329c81.438-33.631,184.09-33.913,268.268-8.164
			c47.782,14.615,92.703,38.593,140.871,53.032c27.949,8.378,56.589,15.828,85.463,20.256c48.014,7.365,123.797,9.201,130.76-54.457
			c6.875-62.796-39.454-130.572-79.686-174.424c-46.626-50.816-95.994-89.759-155.879-124.019
			c-52.948-30.285-115.05-57.544-172.844-78.147c-67.323-23.995-125.86-56.985-189.095-89.763
			c-31.435-16.305-54.647-43.112-77.659-70.149c-37.89-44.529-76.359-80.6-133.164-100.469
			c-60.237-21.065-125.672-4.517-146.953,60.462c-17.737,54.186-9.475,121.963-3.112,177.749
			c10.068,88.491-13.793,162.609-101.706,202.274c-59.145,26.672-165.842,27.524-229.086-8.811
			c-11.412,24.917-26.801,58.067-44.402,95.496c74.839,37.387,181.535,20.317,261.527,15.818
			c61.816-3.471,123.187-29.854,174.637-62.946c20.844-13.406,45.429-23.672,62.461-41.792
			c31.774-33.816,49.672-71.981,71.077-111.823c15.671-29.166,65.018-20.779,70.255,15.591c5.283,36.538-36.06,73.437-61.381,92.667
			c-77.43,58.787-175.164,106.152-265.925,140.443c-57.172,21.597-118.203,28.25-171.818,60.263
			c-41.069,24.534-74.025,60.631-100.557,100.086c-25.057,37.257-37.338,60.703-58.712,100.264
			c-20.854,38.599-45.717,114.95-59.925,156.539c-10.497,30.749-15.992,59.719-20.038,90.15s-6.642,62.325,1.179,94.524
			c10.196,41.986,13.894,55.81,25.679,73c32.263,47.055,45.715,64.029,100.596,124.619c26.622-14.263,81.855-24.633,115.354-31.893
			C5848.047,2492.813,5834.498,2482.174,5821.183,2471.189z" style="stroke:black;fill:#ece754"/><path id="180642540" parent_id="180642501" order="37" structure_id="10680" d="M7501.264,2313.583
			c-12.966-47.873-103.943-198.062-173.865-312.095c-80.021,13.568-169.236-10.371-251.652-8.346
			c-128.395,3.154-243.02-20.205-372.703,31.885c-122.161,49.077-146.414,162.358-236.095,247.1
			c-135.104,127.622-168.289,137.382-367.388,174.948c-81.035,15.29-166.887,37.16-236.838,57
			c9.555,7.321,19.168,14.572,28.813,21.808c80.87,60.714,189.222,127.706,290.917,140.657c75.159,9.575,153.48-4.21,227.689-15.297
			c75.017-11.204,156.865-16.626,229.182-39.656c59.185-18.836,120.199-36.985,157.597-89.63
			c42.619-59.958,37.938-123.437,47.17-194.313c4.197-32.307,20.03-72.618,41.439-97.35c80.855-93.408,256.018-34.612,350.073-0.276
			c186.193,67.971,193.527,270.316,180.665,439.248c-6.373,83.923-21.6,160.36-52.667,238.051
			c-31.171,77.9-13.164,146.634-78.533,203.709c-117.601,102.664-211.526-48.033-305.614-85.721
			c-40.81-16.347-181.857-67.618-222.963-73.657c-50.514-7.425-199.661,3.385-237.808,40.136c-7.32,7.052-12.31,15.255-15.4,24.193
			c67.397,20.426,133.414,40.503,156.008,50.931c48.835,22.54,191.585,63.862,191.585,63.862
			c101.428,33.809,200.884,69.049,288.097,99.217c57.682,19.954,109.465,44.067,162.967,69.237
			c44.145-65.083,124.039-156.426,149.613-205.699C7628.078,2753.248,7591.367,2646.414,7501.264,2313.583z" style="stroke:black;fill:#fffc91"/><path id="180642539" parent_id="180642501" order="38" structure_id="10678" d="M7235.603,2230.019
			c-94.056-34.335-269.218-93.132-350.073,0.276c-21.409,24.732-37.242,65.042-41.439,97.35
			c-9.231,70.876-4.551,134.354-47.17,194.313c-37.397,52.645-98.412,70.793-157.597,89.63
			c-72.316,23.03-154.165,28.453-229.182,39.656c-74.209,11.087-152.53,24.872-227.689,15.297
			c-101.695-12.952-210.047-79.943-290.917-140.657c-9.646-7.236-19.259-14.487-28.813-21.809c11.68,8.896,13.432,10.223,0,0
			c-0.335-0.256-0.667-0.516-1.001-0.772c-33.498,7.26-93.6,20.053-120.222,34.316c104.382,115.424,253.559,197.674,392.693,248.696
			c72.928,26.745,150.656,40.768,227.754,48.503c33.526,3.364,66.456-2.38,99.805-2.269c31.359,0.101,63.333,2.868,94.873,1.542
			c76.001-3.191,152.124-9.061,226.835-23.817c48.106-9.499,103.078-16.573,147.87-37.385
			c41.509-19.295,81.514-43.97,122.354-65.161c35.381-18.361,50.585-64.633,73.457-95.241c4.671-6.256,38.961-38.126,39.025-37.632
			c3.671,27.272-16.045,53.833-25.501,78.477c-18.589,48.404-33.71,92.213-38.731,143.666
			c-6.826,69.773-15.362,72.927-49.292,79.131c-16.776,3.063-99.614-17.84-125.034-20.831c-52.492-6.176-104.977-3.861-157.57,0.025
			c-169.617,12.529-360.561,36.423-396.976,55.569c-23.402,12.304-33.369,30.642-34.517,51.879
			c27.845,11.79,96.986,32.673,164.737,53.207c3.091-8.939,8.08-17.141,15.4-24.193c38.146-36.751,187.294-47.562,237.808-40.136
			c41.105,6.039,182.153,57.31,222.963,73.657c94.088,37.688,188.014,188.384,305.614,85.721
			c65.369-57.076,47.362-125.809,78.533-203.709c31.067-77.691,46.294-154.127,52.667-238.051
			C7429.13,2500.334,7421.796,2297.99,7235.603,2230.019z" style="stroke:black;fill:#ece754"/><path id="180642546" parent_id="180642501" order="39" structure_id="10683" d="M6850.875,3130.771
			c0,0-142.75-41.322-191.585-63.862c-22.594-10.428-88.61-30.505-156.008-50.931c-14.14,40.89,11.661,97.268,38.064,130.293
			c68.069,85.075,195.454,132.609,301.095,155.751c76.149,16.684,254.07-8.111,275.18,93.681
			c13.071,63.011-43.879,128.77-78.296,175.668c-69.78,95.056-149.399,214.64-267.034,248.553
			c-129.499,37.341-351.064-10.086-355.827-158.703c-2.167-67.957,19.088-133.644,14.114-201.376
			c-4.412-60.276-53.938-89.54-77.038-141.936c-84.9-192.547-333.719-302.959-482.452-437.283
			c-64.5-58.241-331.869-386.798-428.258-289.315c-3.35,3.388-6.381,6.819-9.109,10.291
			c38.273,38.633,81.651,82.545,124.897,127.217c341.848,353.118,450.953,547.098,455.15,559.514
			c13.068,38.658,41.14,83.293,52.447,107.218c37.854,80.004,82.103,159.059,104.915,245.017
			c25.152,94.775,75.524,174.438,130.291,254.419c44.403,64.846,76.105,135.462,115.723,201.927
			c36.823-24.98,86.533-45.755,163.478-49.297c198.606-9.143,420.877-149.702,563.226-352.93
			c83.706-119.505,73.08-253.774,143.882-373.259c4.115-6.942,8.906-14.384,14.209-22.203
			c-53.502-25.17-105.285-49.284-162.967-69.237C7051.759,3199.82,6952.303,3164.581,6850.875,3130.771z" style="stroke:black;fill:#fffc91"/><path id="180642545" parent_id="180642501" order="40" structure_id="10681" d="M6418.829,3122.056
			c66.899,77.943,132.458,151.493,212.608,216.601c29.604,24.044,138.247,50.656,149.523,67.354
			c26.09,38.67-15.664,114.906-62.78,106.449c-37.954-6.806-41.318-35.227-58.799-63.75
			c-31.242-50.982-100.786-90.514-142.159-137.12c-63.261-71.266-146.209-125.417-213.395-193.953
			c-107.139-109.321-233.229-187.156-345.514-289.536c-61.731-56.283-122.185-109.792-186.54-159.021
			c-54.267-41.509-76.573-114.457-131.003-154.216c-93.17-68.024-215.552-87.625-305.421-13.042
			c22.833,23.677,57.714,58.743,98.371,99.782c2.728-3.472,5.759-6.903,9.108-10.291c96.389-97.483,363.758,231.074,428.258,289.315
			c148.733,134.324,397.552,244.736,482.452,437.283c23.1,52.396,72.626,81.66,77.038,141.936
			c4.974,67.732-16.281,133.419-14.114,201.376c4.763,148.617,226.328,196.044,355.827,158.703
			c117.635-33.913,197.254-153.497,267.034-248.553c34.417-46.898,91.367-112.657,78.296-175.668
			c-21.109-101.792-199.03-76.997-275.18-93.681c-105.641-23.143-233.025-70.676-301.095-155.751
			c-26.403-33.026-52.204-89.404-38.064-130.293c-67.751-20.533-136.893-41.417-164.737-53.207
			C6335.805,3013.54,6383.504,3080.886,6418.829,3122.056z" style="stroke:black;fill:#ece754"/><path id="180642542" parent_id="180642501" order="41" structure_id="10686" d="M5770.245,3835.479
			c58.534,96.552,154.457,225.216,248.694,284.156c52.665,32.939,144.597,53.69,200.664,68.264
			c35.454,9.21,77.273,8.249,103.292-10.266c28.561-20.313,53.521-53.089,94.249-80.719
			c-39.617-66.465-71.319-137.081-115.723-201.927c-54.767-79.981-105.139-159.644-130.291-254.419
			c-22.813-85.958-67.062-165.013-104.915-245.017c-11.308-23.925-39.379-68.561-52.447-107.218
			c-4.197-12.416-113.303-206.396-455.15-559.514c-43.246-44.671-86.624-88.584-124.897-127.217
			c-84.607,107.68,122.52,254.158,168.96,331.357c62.146,103.304,83.471,209.583,110.471,325.18
			c27.078,115.972,90.393,204.654,169.68,290.626c59.661,64.673,91.709,137.203,141.264,207.837
			c46.797,66.709,209.171,180.798,144.238,279.046c-64.831,98.022-173.792-18.36-229.238-60.924
			c-58.162-44.638-119.569-87.256-164.819-142.989L5770.245,3835.479z" style="stroke:black;fill:#fffc91"/><path id="180642541" parent_id="180642501" order="42" structure_id="10684" d="M5323.057,2512.802
			c-157.49,151.452-70.783,244.058,25.795,381.005c75.218,106.706,75.374,225.743,106.567,342.015
			c21.621,80.515,70.002,157.156,123.479,219.616c25.994,30.338,59.711,57.162,82.379,89.939l136.392,192.575
			c-2.979-1.636-87.1-40.352-83.64-25.786c29.644,124.236,131.55,190.788,225.065,262.559
			c55.446,42.563,164.407,158.946,229.238,60.924c64.933-98.248-97.441-212.337-144.238-279.046
			c-49.555-70.634-81.603-143.164-141.264-207.837c-79.287-85.972-142.602-174.654-169.68-290.626
			c-27-115.596-48.325-221.876-110.471-325.18c-46.44-77.2-253.568-223.678-168.959-331.357
			c-40.657-41.039-75.538-76.105-98.371-99.782C5331.182,2505.28,5327.079,2508.932,5323.057,2512.802z" style="stroke:black;fill:#ece754"/><path id="180642528" parent_id="180642501" order="43" structure_id="989" d="M4582.536,2492.646
			c121.537-11.453,250.498-84.669,361.58-125.992c69.912-26.013,171.771-27.55,251.711-13.243
			c29.023,5.191,138.216,8.793,131.44,30.966c-15.381,50.313-151.744,60.041-171.419,96.977
			c-17.065,32.037,77.218,19.411,69.32,75.041c-70.979,36.95-126.543,91.831-204.188,114.927
			c-110.825,32.966-69.786-76.169-138.342-74.404c-69.973,1.798-228.462,133.311-292.784,130.084
			c-67.751-3.401-164.909-63.651-206.347-116.368C4260.594,2454.243,4531.608,2497.44,4582.536,2492.646z" style="stroke:black;fill:#fffdbc"/><path id="180642549" parent_id="180642501" order="44" structure_id="1009" d="M6195.863,4702.329
			c-73.188-391.667-353.938-644.997-511.768-837.66c-81.169-99.091-141.892-169.754-237.556-226.186
			c-4.362-2.564-33.159-9.546-33.159-9.546c-137.551,21.75,12.363,110.881,20.46,167.824c5.005,35.182-17.29,60.225-19.238,94.724
			c-2.688,48.016,7.891,94.621,40.059,127.727c142.594,146.771,274.076,224.613,384.862,376.456
			c69.043,94.622,155.538,196.967,177.962,321.321c20.353,112.936,39.101,220.66-24.454,397.091
			c-35.959,99.82-85.277,180.952-151.555,256.021c-31.614,35.81-59.041,64.421-78.068,83.972
			c-41.609,42.716-124.541,124.461-187.933,128.211c-50.208,2.967-119.907-103.487-158.833-47.402
			c-27.234,39.231,21.088,81.605,13.048,118.739c-11.353,52.449-70.839,67.604-112.959,93.503
			c-97.992,60.248-202.657,127.996-285.443,208.493c-35.999,35.016-60.254,73.363-132.75,171.338
			c-34.396,46.489-80.89,109.169-66.353,161.034c0,0,211.96-103.668,342.961-172.238c108.717-56.907,191.533-90.991,302.968-165.263
			c111.978-74.646,244.523-180.408,346.35-268.46C5988.978,5539.782,6275.048,5126.143,6195.863,4702.329z M5544.813,5852.702
			c-39.353,27.398-89.21,54.67-132.851,75.693c-36.722,17.682-93.775,37.114-108.259,23.603
			c-7.767-7.232-3.336-23.923,22.989-55.406c37.606-44.96,85.429-87.587,132.564-122.722
			c52.7-39.263,129.611-144.723,200.47-103.504C5719.845,5705.353,5590.433,5820.924,5544.813,5852.702z" style="stroke:black;fill:#cccccc"/><path id="180642550" parent_id="180642501" order="45" structure_id="1009" d="M3812.94,6295.999
			c15.893,30.455,32.379,58.493,50.025,76.779c61.815,64.059,325.859,116.465,484.197,54.609l-0.618-2.108
			c-25.229-18.583-47.282-34.315-74.365-50.256c-74.357-43.774-399.892-214.225-457.951-79.761L3812.94,6295.999z" style="stroke:black;fill:#cccccc"/><path id="180642551" parent_id="180642501" order="46" structure_id="1009" d="M4074.719,5691.737
			c48.775,55.55,81.115,95.85,139.262,153.037c64.53,63.471,119.983,127.548,166,183.878c20.863,25.544,83.876,66.94,38.983,77.878
			c-42.679,7.126-113.932-32.652-141.872-59.241c-54.485-51.869-103.88-130.928-166.683-124.793
			c-45.235,4.413-81.853-25.834-108.313-64.319c-12.095-17.591-16.111-81.827-25.579-103.132
			c-21.609-48.573-60.398-84.465-91.333-128.237c-29.026-41.066-111.228-120.459-2.845-100.403
			C3967.942,5542.234,4023.043,5632.878,4074.719,5691.737z" style="stroke:black;fill:#cccccc"/><path id="180642552" parent_id="180642501" order="47" structure_id="1009" d="M3739.112,5304.378
			c12.47,46.621,53.061,210.766,122.309,158.728c70.46-52.928,18.639-230.455,1.713-296.959
			c-27.045-106.313-10.085-201.509,6.167-308.41c11.572-76.093,15.564-151.313,30.311-226.851
			c22.371-114.654-77.647-222.811-130.623-199.639L3739.112,5304.378z" style="stroke:black;fill:#cccccc"/><path id="180642553" parent_id="180642501" order="48" structure_id="1009" d="M4892.513,4034.762
			c-49.571-14.264-170.392-41.109-158.185-70.247c12.884-30.753,126.572-4.501,143.331,2.749
			C4925.457,3987.937,4919.216,4042.451,4892.513,4034.762z" style="stroke:black;fill:#cccccc"/><path id="180642554" parent_id="180642501" order="49" structure_id="1009" d="M7115.583,2724.082
			c11.063-40.109,57.217-106.038,42.653-146.624c-2.445-6.849-27.877,33.464-29.305,36.03
			c-21.147,38.166-44.79,71.863-82.839,95.032c-43.704,26.634-89.148,52.953-137.979,69.002
			c-123.642,40.635-250.526,59.782-381.52,56.279c-95.198-2.549-187.189,6.255-280.554-20.085
			c-68.188-19.245-133.832-29.868-198.403-61.631c-146.571-72.104-291.677-184.289-386.915-317.782
			c-67.813-95.066-47.347-206.41-12.684-309.951c37.761-112.806,94.582-237.719,185.758-318.045
			c45.265-39.881,131.378-47.456,187.452-64.498c57.386-17.443,101.805-52.329,155.752-76.816
			c39.972-18.142,80.48-35.712,115.064-63.33c23.041-18.41,112.212-124.406,29.597-131.863
			c-37.015-3.335-44.954,39.801-58.788,63.646c-19.503,33.588-46.691,62.687-77.224,86.537
			c-61.803,48.279-139.194,81.59-218.026,86.019c-63.024,3.544-128.957,16.019-191.724,4.037
			c-60.803-11.605-116.312-58.072-143.726-113.277c-58.55-117.892-59.26-249.21-86.189-375.847
			c-8.754-41.148-13.851-72.824-34.841-108.891c-14.662-25.188-26.831-73.165-61.505-78.533
			c-29.002-4.483-20.266,39.956-13.911,55.247c12.788,30.816,42.462,51.863,54.813,83.45
			c19.453,49.755,26.049,106.225,27.715,159.04c1.15,36.682,13.762,74.801,18.086,112.075
			c19.315,166.147,12.136,287.825-42.548,446.995c-28.385,82.621-58.613,202.115-126.009,260.528
			c-92.542,80.199-228.065,61.523-351.62,95.75c-175.866,48.71-359.906,87.364-540.317,109.61
			c-210.212,25.919-421.528,48.554-633.473,39.273l-7.566,234.102c-6.455,2.747,86.844-3.009,145.942,7.776
			c112.561,20.556,226.394,47.507,337.898,72.78c93.917,21.284,144.458,33.227,225.755,83.105
			c80.014,49.091,188.619,45.217,272.565,78.508c59.484,23.577,122.001,73.861,171.388,113.252
			c60.874,48.581,110.38,86.137,172.551,133.083c59.382,44.848,111.107,66.856,166.041,114.942
			c63.096,55.219,161.146,146.96,210.746,215.013c19.11,26.205,41.462,86.707,62.117,104.566c5.697,4.925-12.991-7.795-8.311,6.76
			c5.999,18.653,9.198,43.278,22.462,55.811c11.274,10.653,44.037,41.843,53.078,54.981c7.006,10.182,27.136,22.303,45.959,31.361
			c39.741,19.125,73.314,29.326,84.669,36.452c-1.331-1.18-126.826-178.706-136.392-192.575
			c-22.668-32.777-56.385-59.602-82.379-89.939c-53.478-62.46-101.858-139.101-123.479-219.616
			c-31.193-116.272-31.35-235.309-106.567-342.015c-96.578-136.947-183.285-229.553-25.795-381.005
			c90.743-87.289,220.223-69.118,317.715,2.062c54.43,39.76,76.736,112.707,131.003,154.216
			c64.355,49.229,124.809,102.738,186.54,159.021c112.284,102.38,238.375,180.215,345.514,289.536
			c67.186,68.536,150.134,122.688,213.395,193.953c41.373,46.606,110.917,86.138,142.159,137.12
			c17.48,28.523,20.845,56.944,58.799,63.75c47.116,8.457,88.87-67.779,62.78-106.449c-11.276-16.698-113.792-38.653-140.729-60.654
			c-75.591-61.714-141.543-130.036-209.018-200.275c-39.682-41.323-134.982-174.39-75.313-220.886
			c36.387-28.351,95.34-34.003,140.347-43.24c37.909-7.772,186.373-20.968,223.079-24.228
			c49.548-4.391,121.035-13.575,170.577-8.309c49.224,5.232,98.525,17.67,146.708,28.932c42.689,9.989,58.836-4.505,61.202-50.334
			C7099.655,2791.244,7106.391,2757.38,7115.583,2724.082z M5327.268,2384.376c-15.381,50.313-151.744,60.041-171.419,96.977
			c-17.065,32.037,74.435,19.313,69.32,75.041c-70.979,36.95-126.543,91.831-204.188,114.927
			c-110.825,32.966-69.786-76.169-138.342-74.404c-69.973,1.798-228.462,133.311-292.784,130.084
			c-67.751-3.401-164.909-63.651-206.347-116.368c-122.915-156.389,148.1-113.192,199.027-117.986
			c121.537-11.453,250.498-84.669,361.58-125.992c69.912-26.013,171.771-27.55,251.711-13.243
			C5224.851,2358.602,5334.043,2362.203,5327.268,2384.376z" style="stroke:black;fill:#cccccc"/><path id="180642547" parent_id="180642501" order="50" structure_id="145" d="M3782.469,4037.398
			c43.51-50.628,157.252-166.222,192.865-203.93c38.13-40.368,135.44-105.849,135.44-105.849
			c-46.104,15.908-93.499,30.805-149.254,44.166c-48.661,11.661-131.782-49.158-167.814-53.206L3782.469,4037.398z" style="stroke:black;fill:#aaaaaa"/><path id="180642548" parent_id="180642501" order="51" structure_id="153" d="M6219.604,4187.898
			c-55.104-17.871-147.999-35.324-200.664-68.264c-94.237-58.94-190.16-187.604-248.694-284.156
			c-77.506-127.795-115.447-224.241-251.877-273.146c-121.032-43.395-281.788-32.041-432.94-29.156l91.666,3.792
			c49.637,4.038,96.017,12.189,134.681,26.437c56.606,20.858,90.027,49.959,141.145,80.077
			c95.375,56.22,151.562,132.02,232.508,230.736c81.2,99.036,170.56,190.512,248.5,289.717
			c75.621,96.257,140.245,199.956,192.43,314.856c18.605,40.958,45.105,181.911,101.683,101.649
			c25.429-36.083,25.358-80.435,31.797-122.14c6.404-41.485,24.506-81.093,23.995-123.571
			c-0.446-36.835,28.759-70.525,24.938-107.237C6303.306,4175.214,6256.953,4200.006,6219.604,4187.898z" style="stroke:black;fill:#aaaaaa"/></g>
</g>
</svg>