<svg width="4800" height="4416" xmlns="http://www.w3.org/2000/svg">
<g transform="scale(1.0)">
<g id="180608816" order="1" parent_id="" graphic_group_label_id="28" graphic_group_label="Atlas - Adult Mouse" sub_image_id="100960472" transform=" scale(1.0, 1.0)"><path id="180608818" parent_id="180608816" order="0" structure_id="8" d="M4440.922,1887.981
			c17.831,81.302,27.063,164.231,28.514,244.182c2.059,114.644,4.07,254.09-33.336,362.623
			c-43.287,125.639-117.783,238.671-147.738,369.219c-43.38,189.034-108.376,380.137-223.818,537.009
			c-121.333,164.898-270.059,319.369-450.034,420.232c-160.514,89.953-389.655,186.512-575.932,146.141
			c-167.063-36.212-315.023-155.968-451.842-252.364c-165.963-116.93-284.604-280.866-313.008-487.121
			c-18.334-133.195-6.605-286.4,20.111-440.502c17.208-99.275,46.294-195.631,58.719-298.229
			c12.153-100.344,42.136-195.8,60.767-294.425c16.131-85.416,33.38-168.371,53.59-253.719
			c43.097-182.124,114.668-356.412,189.699-527.378c59.836-136.344,153.774-233.42,268.146-325.716
			c184.897-149.228,432.81-124.223,648.885-61.905c132.376,38.174,298.123,87.312,400.639,182.8
			c115.042,107.163,236.962,210.671,326.538,341.324C4368.508,1648.864,4414.293,1766.602,4440.922,1887.981z" style="stroke:black;fill:#bfdae3"/><path id="180608819" parent_id="180608816" order="1" structure_id="688" d="M4469.437,2132.165
			c-1.447-79.951-10.675-162.881-28.506-244.182c-26.63-121.379-72.426-239.12-140.104-337.832
			c-89.578-130.651-211.495-234.159-326.547-341.326c-102.517-95.485-268.265-144.625-400.63-182.799
			c-216.08-62.317-463.982-87.322-648.888,61.905c-114.364,92.299-208.301,189.374-268.144,325.718
			c-75.029,170.964-146.599,345.256-189.701,527.375c-20.201,85.349-37.458,168.308-53.592,253.717
			c-18.632,98.627-44.453,222.214-68.18,324.727c-54.222,234.276-87.937,475.268-71.415,708.432
			c14.718,207.679,147.043,370.191,313.01,487.123c136.82,96.396,284.777,216.153,451.836,252.362
			c186.28,40.374,415.429-56.184,575.937-146.137c179.98-100.867,328.697-255.335,450.04-420.237
			c115.432-156.873,180.434-347.973,223.812-537.003c29.954-130.55,104.449-243.584,147.738-369.221
			C4473.496,2386.253,4471.499,2246.808,4469.437,2132.165z M3451.229,2159.74c-29.177,49.064-55.912,98.037-81.329,147.692
			c-36.398,71.093-91.462,146.613-94.721,228.946c-0.518,13.266,1.496,45.188-18.155,48.176
			c-34.482,5.191-0.712-77.142,2.054-88.119c42.771-169.691,126.858-345.469,106.884-524.194
			c-3.493-31.186-19.344-67.446,23.76-64.058c44.639,3.51,103.236,67.231,115.439,107.175
			C3520.033,2064.02,3475.103,2119.607,3451.229,2159.74z" style="stroke:black;fill:#b0ffb8"/><path id="180608820" parent_id="180608816" order="2" structure_id="698" d="M4469.437,2132.165
			c-1.448-79.951-10.675-162.881-28.507-244.183c-26.63-121.379-72.426-239.12-140.104-337.832
			c-89.577-130.651-211.495-234.159-326.546-341.326c-102.518-95.485-268.265-144.625-400.63-182.795
			c-216.081-62.321-463.982-87.326-648.889,61.901c-114.364,92.299-208.309,189.374-268.144,325.718
			c-75.029,170.968-146.598,345.255-189.7,527.379c-47.664,201.338-71.723,410.557-124.053,610.52
			c-54.375,207.796-98.611,462.265-69.134,676.355c28.401,206.251,147.043,370.188,313.009,487.123
			c136.821,96.396,284.778,216.149,451.836,252.358c186.28,40.374,415.429-56.184,575.944-146.138
			c179.973-100.862,328.689-255.334,450.033-420.236c115.432-156.873,180.434-347.969,223.811-537.003
			c29.954-130.55,104.45-243.584,147.739-369.221C4473.496,2386.253,4471.498,2246.808,4469.437,2132.165z M3451.229,2159.74
			c-29.177,49.064-55.912,98.037-81.329,147.692c-36.398,71.093-91.462,146.613-94.721,228.946
			c-0.518,13.266,1.496,45.188-18.155,48.176c-34.482,5.191-0.712-77.142,2.054-88.119
			c42.771-169.691,126.858-345.469,106.884-524.194c-3.493-31.186-19.344-67.446,23.76-64.058
			c44.639,3.51,103.236,67.231,115.439,107.175C3520.033,2064.02,3475.103,2119.607,3451.229,2159.74z" style="stroke:black;fill:#9ad2bd"/><path id="180608821" parent_id="180608816" order="3" structure_id="507" d="M4469.437,2132.165
			c-1.447-79.951-10.675-162.881-28.506-244.182c-26.63-121.379-72.426-239.12-140.104-337.832
			c-89.578-130.651-211.495-234.159-326.547-341.326c-102.517-95.485-268.265-144.625-400.63-182.799
			c-216.08-62.317-463.982-87.322-648.888,61.905c-114.364,92.299-208.301,189.374-268.144,325.718
			c-75.029,170.964-146.599,345.256-189.701,527.375c-20.201,85.349-37.458,168.308-53.592,253.717
			c-18.632,98.627-48.618,194.084-60.772,294.425c-11.791,97.366-40.451,196.814-58.71,298.231
			c-26.525,147.253-39.812,297.365-20.112,440.502c28.401,206.255,147.043,370.191,313.01,487.123
			c136.82,96.396,284.777,216.153,451.836,252.362c186.28,40.374,415.429-56.184,575.937-146.137
			c179.98-100.867,328.697-255.335,450.04-420.237c115.432-156.873,180.434-347.973,223.812-537.003
			c29.954-130.55,104.449-243.584,147.738-369.221C4473.496,2386.253,4471.499,2246.808,4469.437,2132.165z M3451.229,2159.74
			c-29.177,49.064-55.912,98.037-81.329,147.692c-36.398,71.093-91.462,146.613-94.721,228.946
			c-0.518,13.266,1.496,45.188-18.155,48.176c-34.482,5.191-0.712-77.142,2.054-88.119
			c42.771-169.691,126.858-345.469,106.884-524.194c-3.493-31.186-19.344-67.446,23.76-64.058
			c44.639,3.51,103.236,67.231,115.439,107.175C3520.033,2064.02,3475.103,2119.607,3451.229,2159.74z" style="stroke:black;fill:#9ad2bd"/><path id="180608822" parent_id="180608816" order="4" structure_id="212" d="
			M2753.506,1339.891c-57.53,107.959-102.679,223.548-122.443,344.688c-6.897,42.269-6.412,84.266-17.039,126.11
			c-15.785,62.185-37.846,122.661-52.144,184.842c-23.322,101.438-35.259,203.518-54.797,305.558
			c-29.654,154.861-49.329,311.368-73.129,467.176c-26.492,173.403-3.922,350.22,50.494,516.099
			c65.649,200.118,181.121,413.95,355.336,539.457c68.674,49.478,182.213,79.576,265.119,89.033
			c109.172,12.453,220.504-13.905,317.61-63.678c138.236-70.842,256.175-139.524,326.304-284.237
			c59.365-122.487,81.782-258.696,133.578-384.163c49.273-119.342,113.184-236.601,196.188-335.919
			c69.514-83.194,140.743-165.649,200.69-256.214c49.549-74.865,101.506-122.289,115.577-215.365
			c24.657-163.146,58.84-314.162,33.27-483.32c-18.616-123.15-59.964-241.517-127.295-339.715
			c-89.578-130.65-211.495-234.154-326.547-341.313c-102.517-95.486-268.265-144.62-400.63-182.792
			c-216.08-62.319-463.982-87.318-648.888,61.902C2844.531,1152.784,2801.816,1249.228,2753.506,1339.891z M3002.903,1242.427
			c56.123-87.468,125.411-149.132,222.688-187.68c63.83-25.295,133.077-29.431,200.238-16.468
			c64.598,12.469,96.08,15.227,151.078,53.638c42.699,29.823,114.105,47.233,164.543,58.207
			c47.874,10.416,87.678,57.997,125.921,85.645c75.377,54.491,144.641,118.949,205.397,189.322
			c33.576,38.896,54.982,92.55,84.782,135.438c39.787,57.269,77.521,117.78,96.832,185.388
			c20.84,72.997,39.633,164.852,41.364,240.862c4.285,188.643-68.156,371.876-193.761,511.308
			c-32.518,36.099-70.882,57.095-107.256,87.905c-52.581,44.536-87.71,98.991-123.171,156.474c-1.124,1.804-2.288,3.566-3.493,5.285
			c-31.191,44.233-93.509,59.314-145.143,70.777c-71.812,15.942-100.075,63.083-113.531,134.225
			c-10.796,57.066-0.437,117.663,9.113,174.386c19.87,118.039-16.456,246.385-57.125,356.641
			c-39.626,107.43-104.353,207.456-205.754,265.801c-101.595,58.474-195.191,39.637-302.221,13.84
			c-97.729-23.54-125.241-80.606-190.688-148.594c-34.491-35.84-43.848-73.579-66.094-118.29
			c-13.788-27.749-39.157-47.779-53.099-75.136c-12.906-25.336-20.015-55.615-32.55-82.055
			c-21.252-44.812-53.47-83.514-73.93-128.762c-30.682-67.866-31.247-157.308-34.296-230.692c-3-72.266-2.936-143.787,0.97-216.049
			c4.343-80.457,74.698-127.974,81.427-207.719c3.825-45.357-6.865-81.763,22.546-121.945
			c22.077-30.154,35.647-66.767,44.219-103.544c16.053-68.913,5.92-141.688,21.495-211.042
			c11.104-49.445,31.87-96.622,35.267-147.672c4.885-73.288-17.896-145.748-11.087-219.048
			c6.13-65.954,20.743-135.065,40.758-198.141C2873.895,1442.775,2939.858,1340.695,3002.903,1242.427z" style="stroke:black;fill:#82c7ae"/><path id="180608826" parent_id="180608816" order="5" structure_id="220" d="M3243.714,2549.891
			c1.464-19.13,10.739-35.162,15.365-53.499c42.771-169.702,126.857-345.49,106.884-524.226
			c-3.485-31.183-19.344-67.444,23.759-64.056l-4.755-2.349c-26.501-7.363-36.609-25.741-38.712-53.535
			c-3.275-43.341,3.017-92.982,32.267-127.355c20.354-23.917,62.115-41.958,93.848-40.224
			c114.502,6.263,194.562,129.458,203.352,234.648c3.275,39.157,1.343,79.583-30.132,106.524
			c-35.339,30.245-65.746,57.611-95.344,93.876c-31.862,39.035-59.511,81.103-86.586,123.526
			c-38.477,60.3-83.262,117.054-113.28,182.371c-12.777,27.794-20.694,59.208-32.856,87.984
			c-14.354,34.01-29.193,67.816-42.569,102.222c-26.662,68.564-59.252,138.491-63.174,213.012
			c-2.984,56.826-5.33,114.489-13.684,170.831c-12.13,81.867-45.949,65.722-62.713-6.041
			c-20.783-88.996-4.521-180.033,40.475-259.127c17.532-30.819,34.231-62.131,48.957-94.39c5.079-11.115,12.324-22.57,15.851-34.163
			C3245.792,2589.067,3243.608,2551.387,3243.714,2549.891z M3872.506,2280.78c89.586-79.053,159.845-184.663,156.464-308.209
			c-2.086-76.187-42.698-166.448-75.216-234.244c-34.773-72.519-84.354-150.634-139.651-209.454
			c-95.109-101.162-175.735-258.937-330.735-275.074c-110.272-11.487-196.68,67.097-261.747,145.264
			c-62.843,75.495-114.614,136.474-142.36,233.775c-51.456,180.389,26.233,332.183,54.149,507.279
			c20.12,126.196-33.487,242.209-99.071,346.493c-33.415,53.127-69.095,105.474-98.078,161.184
			c-132.146,254.016-78.579,555.68,86.61,779.345c34.021,46.063,93.598,105.4,154.346,102.142
			c42.504-2.276,110.571-42.173,133.028-78.62c41.971-68.12,70.242-168.87,62.285-248.4c-8.241-82.308,2.685-164.526-3.721-247.756
			c-6.703-87.141,24.536-181.846,57.393-261.392c22.037-53.369,69.733-107.526,109.521-148.56
			c17.896-18.45,38.348-34.47,59.939-49.398C3690.188,2429.805,3785.984,2357.128,3872.506,2280.78z" style="stroke:black;fill:#82c7ae"/><path id="180608825" parent_id="180608816" order="6" structure_id="228" d="
			M2957.262,2562.337c-80.375,96.638-131.484,184.757-138.107,310.462c-3.558,67.539-1.164,146.428,10.457,212.991
			c16.545,94.738,51.594,186.367,101.068,268.761c37.087,61.745,84.759,126.906,138.398,175.506
			c63.579,57.604,174.967,90.634,247.854,28.703c39.666-33.692,68.221-97.321,78.168-144.838
			c11.475-54.798,18.793-92.865,24.114-148.865c8.176-85.932-4.196-166.954-4.213-253.169c-0.008-79.18-2.628-153.733,20.16-232.613
			c30.188-104.466,130.441-177.71,214.642-243.846c75.239-59.101,160.329-110.486,234.712-181.709
			c170.446-163.198,262.216-404.246,142.838-625.409c-21.802-40.388-61.815-71.428-89.376-108.428
			c-45.73-61.393-89.068-126.696-137.622-186.136c-42.455-51.993-88.179-98.721-138.754-142.954
			c-39.746-34.756-85.922-68.804-136.861-82.762c-116.386-31.897-215.037,19-296.229,97.75
			c-66.717,64.725-119.217,139.331-159.901,222.659c-58.824,120.489-54.44,278.719-12.551,403.817
			c41.243,123.15,52.621,247.723,16.142,374.754C3046.079,2397.966,3017.379,2490.055,2957.262,2562.337z M3133.409,2140.183
			c-27.924-175.09-105.606-326.878-54.149-507.261c27.746-97.297,79.518-158.274,142.36-233.766
			c65.067-78.165,151.475-156.742,261.747-145.259c155,16.141,235.626,173.905,330.735,275.068
			c55.298,58.813,104.878,136.929,139.651,209.445c32.518,67.793,73.13,158.047,75.216,234.231
			c3.372,123.542-66.878,229.152-156.464,308.198c-86.521,76.35-182.318,149.02-276.845,214.366
			c-21.592,14.928-42.044,30.947-59.939,49.396c-39.796,41.031-87.483,95.191-109.528,148.554
			c-32.857,79.544-64.089,174.245-57.385,261.386c6.405,83.223-4.521,165.438,3.712,247.747
			c7.958,79.523-20.313,180.27-62.276,248.387c-22.457,36.445-90.524,76.345-133.037,78.617
			c-60.74,3.259-120.315-56.076-154.337-102.138c-165.189-223.657-218.757-525.31-86.61-779.315
			c28.983-55.708,64.663-108.049,98.077-161.173C3099.913,2382.383,3153.529,2266.373,3133.409,2140.183z" style="stroke:black;fill:#9ad2bd"/><path id="180608824" parent_id="180608816" order="7" structure_id="236" d="M3649.803,2535.374
			c-84.2,66.143-184.453,139.39-214.642,243.859c-22.788,78.879-20.168,153.439-20.152,232.618
			c0.009,86.222,12.381,167.244,4.214,253.179c-5.329,56.001-12.648,94.074-24.123,148.875
			c-9.939,47.514-38.502,111.149-78.159,144.843c-72.887,61.93-184.275,28.898-247.862-28.704
			c-53.64-48.602-101.312-113.77-138.39-175.517c-49.483-82.393-84.532-174.024-101.077-268.767
			c-11.613-66.566-14.015-145.458-10.448-212.999c6.614-125.714,57.724-213.836,138.099-310.479
			c60.126-72.28,88.826-164.373,114.946-255.33c36.472-127.04,25.094-251.614-16.142-374.768
			c-41.897-125.108-46.28-283.339,12.543-403.837c40.685-83.327,93.185-157.94,159.901-222.663
			c81.191-78.754,179.843-129.652,296.229-97.758c50.939,13.958,97.115,48.007,136.862,82.769
			c50.574,44.235,96.298,90.961,138.754,142.959c48.553,59.442,91.898,124.748,137.621,186.143
			c27.561,36.997,67.574,68.042,89.376,108.432c119.378,221.167,27.608,462.228-142.838,625.433
			C3810.132,2424.888,3725.042,2476.275,3649.803,2535.374z M3922.677,2359.72c119.272-108.622,205.405-243.721,195.871-403.585
			c-4.48-75.216-13.813-150.169-44.987-219.542c-59.964-133.409-176.867-227.252-268.984-336.987
			c-75.668-90.132-171.223-188.229-282.764-231.539c-111.033-43.111-193.171,9.316-277.452,73.053
			c-161.623,122.208-281.592,289.016-262.377,502.116c6.987,77.443,34.838,149.586,44.348,225.962
			c13.166,105.715,53.18,230.819,22.255,334.25c-24.074,80.536-48.763,151.624-105.185,215.393
			c-56.584,63.955-95.668,137.926-133.515,213.735c-28.7,57.461-26.395,92.805-21.3,155.538
			c3.186,39.29-10.028,77.262-5.104,116.155c4.675,36.941,12.648,76.017,20.096,112.9c16.198,80.125,40.281,159.348,74.683,233.609
			c28.902,62.406,65.172,100.342,106.762,151.604c36.617,45.133,73.485,122.629,134.226,137.771
			c54.368,13.558,133.959-0.974,183.636-22.954c35.098-15.526,69.224-49.977,88.527-82.425
			c39.908-67.061,46.943-154.819,47.729-231.188c0.97-93.338-6.519-187.024-8.208-280.379
			c-1.416-77.872-1.351-157.236,23.613-231.931c32.178-96.29,130.416-170.802,209.935-232.477
			c39.536-30.661,83.043-49.839,122.329-82.874C3829.071,2440.391,3876.517,2401.764,3922.677,2359.72z" style="stroke:black;fill:#82c7ae"/><path id="180608823" parent_id="180608816" order="8" structure_id="244" d="
			M2797.587,1752.87c-6.809,73.3,15.972,145.76,11.087,219.048c-3.396,51.051-24.163,98.228-35.267,147.672
			c-15.575,69.354-5.442,142.129-21.495,211.042c-8.571,36.777-22.142,73.39-44.219,103.544
			c-29.411,40.183-18.721,76.588-22.546,121.945c-6.729,79.745-77.084,127.262-81.427,207.719
			c-3.905,72.262-3.97,143.783-0.97,216.049c3.049,73.385,3.614,162.826,34.296,230.692c20.46,45.248,52.678,83.95,73.93,128.762
			c12.535,26.439,19.644,56.719,32.55,82.055c13.941,27.356,39.311,47.387,53.099,75.136c22.246,44.711,31.603,82.45,66.094,118.29
			c65.446,67.987,92.958,125.054,190.688,148.594c107.029,25.797,200.626,44.634,302.221-13.84
			c101.401-58.345,166.128-158.371,205.754-265.801c40.669-110.256,76.995-238.602,57.125-356.641
			c-9.55-56.723-19.909-117.319-9.113-174.386c13.456-71.142,41.72-118.282,113.531-134.225
			c51.634-11.463,113.951-26.544,145.143-70.777c1.205-1.719,2.369-3.481,3.493-5.285c35.461-57.482,70.59-111.938,123.171-156.474
			c36.374-30.811,74.738-51.807,107.256-87.905c125.604-139.432,198.046-322.665,193.761-511.308
			c-1.731-76.01-20.524-167.865-41.364-240.862c-19.312-67.607-57.045-128.119-96.832-185.388
			c-29.8-42.887-51.206-96.542-84.782-135.438c-60.757-70.373-130.021-134.831-205.397-189.322
			c-38.243-27.648-78.047-75.229-125.921-85.645c-50.438-10.974-121.844-28.384-164.543-58.207
			c-54.998-38.411-86.48-41.168-151.078-53.638c-67.161-12.963-136.408-8.827-200.238,16.468
			c-97.276,38.548-166.564,100.212-222.688,187.68c-63.045,98.268-129.009,200.348-164.559,312.302
			C2818.33,1617.805,2803.717,1686.916,2797.587,1752.87z M3026.331,1969.274c-9.51-76.377-37.369-148.518-44.348-225.958
			c-19.215-213.093,100.745-379.894,262.377-502.093c84.281-63.734,166.419-116.163,277.451-73.05
			c111.542,43.303,207.097,141.401,282.765,231.53c92.117,109.726,209.021,203.566,268.984,336.97
			c31.175,69.374,40.507,144.32,44.987,219.537c9.534,159.859-76.599,294.952-195.871,403.571
			c-46.16,42.038-93.605,80.663-135.867,116.199c-39.286,33.038-82.793,52.211-122.33,82.871
			c-79.518,61.672-177.757,136.182-209.934,232.468c-24.965,74.691-25.029,154.057-23.614,231.922
			c1.69,93.355,9.171,187.037,8.209,280.368c-0.785,76.369-7.82,164.12-47.729,231.178c-19.312,32.447-53.431,66.896-88.535,82.423
			c-49.669,21.983-129.26,36.511-183.636,22.953c-60.732-15.138-97.601-92.631-134.218-137.767
			c-41.599-51.26-77.859-89.194-106.771-151.594c-34.394-74.263-58.483-153.482-74.674-233.604
			c-7.456-36.882-15.43-75.956-20.096-112.896c-4.933-38.893,8.289-76.863,5.095-116.147c-5.087-62.735-7.392-98.077,21.309-155.536
			c37.847-75.804,76.922-149.775,133.514-213.728c56.422-63.767,81.111-134.851,105.186-215.385
			C3079.511,2200.08,3039.497,2074.985,3026.331,1969.274z" style="stroke:black;fill:#9ad2bd"/><path id="180608828" parent_id="180608816" order="9" structure_id="1009" d="
			M4469.436,2132.23c-1.447-79.948-10.675-162.871-28.506-244.173c-26.63-121.371-72.426-239.107-140.104-337.815
			c67.331,98.199,108.679,216.565,127.295,339.715c25.57,169.158-8.612,320.174-33.27,483.32
			c-14.071,93.076-66.028,140.5-115.577,215.365c-59.947,90.564-131.177,173.02-200.69,256.214
			c-83.004,99.318-146.914,216.577-196.188,335.919c-51.796,125.467-74.213,261.676-133.578,384.163
			c-70.129,144.713-188.067,213.396-326.304,284.237c-97.106,49.772-208.438,76.131-317.61,63.678
			c-82.906-9.457-196.445-39.556-265.119-89.033c-174.215-125.507-289.687-339.339-355.336-539.457
			c-54.416-165.879-76.986-342.695-50.494-516.099c23.8-155.808,43.475-312.314,73.129-467.176
			c19.538-102.04,31.475-204.121,54.797-305.558c14.298-62.181,36.358-122.657,52.144-184.842
			c10.627-41.844,10.142-83.841,17.039-126.11c19.765-121.14,64.913-236.729,122.443-344.688
			c48.311-90.663,91.025-187.106,171.255-251.852c-114.364,92.296-208.309,189.367-268.144,325.706
			c-75.029,170.958-136.142,335.899-187.187,522.928c-23.088,84.609-38.057,178.595-54.197,264.001
			c-18.633,98.619-35.995,184.401-62.682,288.548c-21.397,83.542-36.431,170.339-52.879,259.323
			c-29.428,159.118-47.284,324.358-25.935,479.382c28.393,206.247,147.035,370.178,313.001,487.104
			c136.82,96.392,284.777,216.142,451.836,252.353c186.28,40.372,415.429-56.185,575.944-146.132
			c179.973-100.863,328.689-255.328,450.032-420.221c115.432-156.867,180.434-347.96,223.812-536.986
			c29.962-130.541,104.449-243.575,147.738-369.203C4473.504,2386.309,4471.498,2246.873,4469.436,2132.23z" style="stroke:black;fill:#cccccc"/><path id="180608829" parent_id="180608816" order="10" structure_id="1009" d="M3369.9,2307.433
			c-22.336,43.611-43.685,87.67-66.636,130.586c-14.176,26.512-20.929,56.278-25.223,85.822
			c-2.143,14.741-2.078,31.554-7.787,45.458c-4.529,11.015-22.239,30.414-27.714,8.35c4.836,19.48-11.37,46.319-18.405,63.689
			c-13.457,33.199-30.698,62.271-48.278,93.178c-44.996,79.09-61.258,170.124-40.476,259.116
			c16.765,71.761,50.584,87.905,62.714,6.041c8.354-56.335,10.699-114,13.683-170.82c3.923-74.518,36.513-144.445,63.167-213.003
			c13.384-34.408,28.215-68.214,42.577-102.223c12.162-28.775,20.079-60.188,32.856-87.981
			c30.019-65.311,74.804-122.062,113.28-182.359c27.075-42.426,54.724-84.492,86.586-123.522
			c29.598-36.268,60.005-63.629,95.344-93.873c31.475-26.944,33.407-67.369,30.132-106.524
			c-8.79-105.186-88.858-228.372-203.352-234.635c-31.741-1.739-73.493,16.307-93.848,40.218
			c-29.25,34.372-35.542,84.011-32.267,127.355c2.103,27.79,12.211,46.166,38.712,53.529
			c55.726,15.482,116.272,70.956,122.758,122.483c6.283,49.894-32.703,91.422-56.495,131.422
			C3422.053,2208.805,3395.317,2257.777,3369.9,2307.433z" style="stroke:black;fill:#cccccc"/><path id="180608827" parent_id="180608816" order="11" structure_id="98" d="M3369.9,2307.433
			c-36.398,71.093-91.462,146.613-94.721,228.946c-0.518,13.266,1.496,45.188-18.155,48.176
			c-34.482,5.191-0.712-77.142,2.054-88.119c42.771-169.691,126.858-345.469,106.884-524.194
			c-3.493-31.186-19.344-67.446,23.76-64.058c44.639,3.51,103.236,67.231,115.439,107.175
			c14.872,48.661-30.059,104.248-53.932,144.381C3422.053,2208.805,3395.317,2257.777,3369.9,2307.433z" style="stroke:black;fill:#aaaaaa"/></g>
</g>
</svg>