<svg width="6976" height="5696" xmlns="http://www.w3.org/2000/svg">
<g transform="scale(1.0)">
<g id="180610378" order="1" parent_id="" graphic_group_label_id="28" graphic_group_label="Atlas - Adult Mouse" sub_image_id="100960408" transform=" scale(1.0, 1.0)"><path id="180610380" parent_id="180610378" order="0" structure_id="8" d="M3606.764,2843.676
			c-2.279,64.752,35.01,156.234,60.131,216.062c28.575,68.05,74.92,114.877,138.397,150.729
			c-38.821,47.628-33.149,82.332-40.44,139.106c-17.389,135.603-55.099,270.439-58.205,407.886
			c-1.911,84.323-5.379,173.688-6.233,264.848c-2.798,300.748,22.836,621.061,226.7,844.236
			c83.204,91.077,188.015,134.247,304.13,164.273c61.213,15.834,125.483,22.642,188.628,21.387
			c125.186-2.495,226.988-46.316,342.377-86.471c104.695-36.408,202.271-62.955,291.779-133.871
			c145.054-114.903,265.563-276.504,366.207-429.723c101.51-154.51,214.181-329.253,266.715-507.833
			c24.162-82.185,64.83-293.226-28.533-349.187c67.25,40.23,247.346-122.633,283.09-168.273
			c48.127-61.455,82.193-130.738,129.365-192.711c48.951-64.313,91.465-133.847,128.248-205.762
			c125.182-244.644,170.617-561.266,125.029-831.564c-28.324-167.972-88.184-332.595-169.393-482.425
			c-57.312-105.755-129.383-217.798-221.308-295.246c-59.706-50.286-121.487-97.866-181.372-148.026
			c-318.152-266.521-728.12-347.664-1127.157-395.854c-222.597-26.881-465.502-48.78-651.177,104.604
			c-106.764,88.193-210.723,209.779-278.116,330.604c-101.837,182.569-79.551,378.762-81.057,602.482L3606.764,2843.676z" style="stroke:black;fill:#bfdae3"/><path id="180610381" parent_id="180610378" order="1" structure_id="688" d="M6324.154,2146.838
			c-28.33-167.975-88.201-332.607-169.395-482.436c-57.313-105.759-129.387-217.801-221.316-295.25
			c-59.701-50.283-121.475-97.864-181.361-148.031c-318.15-266.52-728.111-347.662-1127.134-395.851
			c-222.588-26.886-465.495-48.782-651.168,104.603c-106.755,88.195-210.718,209.786-278.114,330.607
			c-101.835,182.572-79.533,378.776-81.047,602.497l-7.809,980.73c-2.267,64.756,35.013,156.245,60.138,216.073
			c28.571,68.051,74.913,114.879,138.377,150.723c-38.809,47.63-33.136,82.337-40.427,139.113
			c-17.39,135.61-55.098,270.44-58.213,407.889c-1.908,84.326-5.371,173.69-6.223,264.852
			c-2.808,300.754,22.835,621.068,226.699,844.246c83.191,91.089,188.004,134.251,304.113,164.285
			c61.229,15.836,125.494,22.633,188.635,21.379c125.172-2.488,226.974-46.318,342.369-86.464
			c104.685-36.414,202.263-62.968,291.767-133.878c145.062-114.911,265.556-276.514,366.2-429.729
			c101.512-154.51,214.182-329.257,266.705-507.836c24.17-82.188,64.839-293.238-28.532-349.203
			c67.259,40.246,247.341-122.623,283.091-168.273c48.122-61.451,82.188-130.729,129.354-192.704
			c48.955-64.315,91.463-133.854,128.256-205.765C6324.291,2733.77,6369.727,2417.141,6324.154,2146.838z M4530.703,3873.294
			c-57.613,88.272-149.552-1.156-112.621-93.293c24.834-61.908,122.268-97.671,144.835-11.64
			C4571.059,3799.346,4547.816,3847.08,4530.703,3873.294z" style="stroke:black;fill:#b0ffb8"/><path id="180610410" parent_id="180610378" order="2" structure_id="320" d="M6324.116,2146.85
			c45.58,270.277,0.198,586.929-124.992,831.531c-31.991,62.598-68.36,123.34-109.515,180.488l-0.576-0.418l-157.768-135.881
			c46.391-84.541,100.377-164.889,139.669-253.621c121.498-274.624,123.424-573.42,36.444-848.617l150.318-25.755
			C6287.143,1976.813,6309.691,2061.402,6324.116,2146.85z" style="stroke:black;fill:#1f9d5a"/><path id="180610409" parent_id="180610378" order="3" structure_id="943" d="M6107.381,1920.333
			c86.979,275.197,85.053,573.993-36.445,848.617c-39.291,88.731-93.277,169.08-139.668,253.621l-272.939-235.099
			c41.705-40.819,61.977-85.679,77.02-154.189c27.78-126.513,11.989-316.709-20.289-445.449
			c-13.558-54.119-37.457-122.725-67.01-188.801L6107.381,1920.333z" style="stroke:black;fill:#1f9d5a"/><path id="180610408" parent_id="180610378" order="4" structure_id="648" d="M5715.057,2187.833
			c32.279,128.74,48.07,318.937,20.291,445.449c-15.045,68.511-35.314,113.37-77.021,154.189l-630.243-542.771
			c104.7,42.467,208.316,98.269,290.764,147.547c67.924,40.563,74.24-48.723,60.77-127.948
			c-13.15-77.648-48.081-144.756-95.667-202.832l364.099-62.436C5677.6,2065.107,5701.5,2133.715,5715.057,2187.833z" style="stroke:black;fill:#1f9d5a"/><path id="180610407" parent_id="180610378" order="5" structure_id="844" d="M5379.616,2264.3
			c13.472,79.227,7.153,168.511-60.769,127.948c-82.447-49.278-186.063-105.08-290.765-147.547l-135.028-116.255l390.895-66.979
			C5331.535,2119.544,5366.466,2186.65,5379.616,2264.3z" style="stroke:black;fill:#1f9d5a"/><path id="180610414" parent_id="180610378" order="6" structure_id="656" d="M6257.699,1894.578l-150.318,25.755
			c-40.244-127.219-99.414-249.427-174.56-361.882c-60.79-90.896-131.558-176.557-223.122-237.912
			c-96.35-64.453-202.863-83.399-308.316-124.96c-114.377-45.018-228.287-85.725-341.06-135.373
			c-220.836-97.109-465.97-129.749-705.802-100.535c-133.518,16.255-279.451,67.894-389.504,156.067l-62.844-118.172l-1.563-1.584
			c23.939-23.539,48.45-45.748,73.197-66.131c185.646-153.379,428.531-131.443,651.166-104.592
			c398.985,48.176,808.937,129.319,1127.156,395.878c59.819,50.121,121.646,97.687,181.301,147.972
			c91.952,77.516,164.035,189.535,221.327,295.323C6194.617,1737.955,6229.396,1815.169,6257.699,1894.578z" style="stroke:black;fill:#1f9d5a"/><path id="180610413" parent_id="180610378" order="7" structure_id="962" d="M6107.381,1920.333
			l-459.333,78.7c-31.021-69.649-68.354-136.523-106.586-181.112c-124.312-145.019-286.164-252.505-457.577-342.819
			c-204.275-107.604-458.009-278.603-675.678-255.205c-138.563,14.896-235.703,68.353-303.92,157.802l-139.27-261.958
			c110.054-88.174,255.987-139.813,389.504-156.067c239.832-29.214,484.967,3.425,705.803,100.535
			c112.771,49.647,226.682,90.354,341.061,135.373c105.451,41.562,211.967,60.507,308.315,124.96
			c91.563,61.355,162.332,147.015,223.122,237.912C6007.966,1670.906,6067.137,1793.114,6107.381,1920.333z" style="stroke:black;fill:#1f9d5a"/><path id="180610412" parent_id="180610378" order="8" structure_id="767" d="M5541.462,1817.92
			c38.231,44.589,75.565,111.463,106.586,181.112l-364.099,62.436c-84.41-102.655-208.947-176.994-324.013-230.883
			c-194.194-91.047-451.978-263.729-634.538-100.968c-7.586,6.827-15.093,14.15-22.271,21.975l-198.84-373.895
			c68.217-89.449,165.357-142.907,303.92-157.803c217.668-23.396,471.4,147.602,675.678,255.206
			C5255.298,1565.416,5417.15,1672.901,5541.462,1817.92z" style="stroke:black;fill:#1f9d5a"/><path id="180610411" parent_id="180610378" order="9" structure_id="1021" d="M4464.247,2054.467h-0.083
			l-161.036-302.875c7.179-7.824,14.687-15.147,22.271-21.975c182.562-162.761,440.344,9.92,634.539,100.968
			c115.063,53.89,239.603,128.228,324.012,230.883l-390.895,66.979C4649.704,2052.564,4502.292,2052.734,4464.247,2054.467z" style="stroke:black;fill:#1f9d5a"/><path id="180610418" parent_id="180610378" order="10" structure_id="935" d="M3902.174,997.567l62.844,118.172
			c-29.739,23.665-56.766,50.083-80.328,79.176c-36.347,45-66.521,96.421-91.423,152.021l-91.573-96.903
			c51.313-89.397,122.263-178.745,198.918-254.05L3902.174,997.567z" style="stroke:black;fill:#40a666"/><path id="180610417" parent_id="180610378" order="11" structure_id="211" d="M3965.018,1115.739
			l139.27,261.958c-40.795,53.422-71.236,119.675-94.053,198.242c-0.001,0.082-0.085,0.248-0.086,0.33l-181.831-192.307
			l-35.05-37.027c24.899-55.601,55.075-107.021,91.423-152.021C3908.252,1165.822,3935.278,1139.404,3965.018,1115.739z" style="stroke:black;fill:#40a666"/><path id="180610416" parent_id="180610378" order="12" structure_id="1015" d="M4104.287,1377.698
			l198.841,373.895c-20.198,21.741-38.849,47.386-55.692,75.612l-237.287-250.934c0-0.083,0.084-0.248,0.086-0.331
			C4033.051,1497.373,4063.492,1431.12,4104.287,1377.698z" style="stroke:black;fill:#40a666"/><path id="180610415" parent_id="180610378" order="13" structure_id="919" d="M4303.128,1751.592
			l161.036,302.875c-0.663-0.005-1.326,0.074-1.906,0.07l-214.822-227.332C4264.279,1798.979,4282.93,1773.333,4303.128,1751.592z" style="stroke:black;fill:#40a666"/><path id="180610423" parent_id="180610378" order="14" structure_id="171" d="M3701.693,1250.033l91.574,96.904
			c-91.692,204.307-112.916,464.854-110.642,668.8c0.965,78.313-3.502,163.468-3.071,247.413l-68.236,18.352l3.312-418.524
			c1.504-223.725-20.793-419.932,81.027-602.459C3697.585,1257.048,3699.598,1253.499,3701.693,1250.033z" style="stroke:black;fill:#2fa850"/><path id="180610422" parent_id="180610378" order="15" structure_id="195" d="M3827.148,1385.116
			c29.051,29.859,14.521,108.234,2.845,180.995c-21.099,130.949-40.427,294.311-52.582,426.397
			c-7.868,85.711-5.581,164.614-0.234,244.448l-97.621,26.191c-0.431-83.944,4.036-169.099,3.071-247.412
			c-2.275-203.944,18.948-464.493,110.641-668.801l35.051,37.027L3827.148,1385.116z" style="stroke:black;fill:#2fa850"/><path id="180610421" parent_id="180610378" order="16" structure_id="304" d="M4010.148,1576.271
			c-0.17,0.578-0.34,1.157-0.51,1.736c-55.908,194.024-78.495,410.729-78.228,617.477l-154.235,41.473
			c-5.347-79.834-7.634-158.737,0.234-244.448c12.155-132.087,31.483-295.448,52.582-426.397
			c11.676-72.76,26.205-151.135-2.845-180.995l1.168-1.152L4010.148,1576.271z" style="stroke:black;fill:#2fa850"/><path id="180610420" parent_id="180610378" order="17" structure_id="363" d="M4010.148,1576.271l237.287,250.934
			c-53.299,88.97-89.041,204.325-98.119,309.75l-217.904,58.529c-0.269-206.748,22.318-423.452,78.228-617.477
			C4009.809,1577.429,4009.979,1576.85,4010.148,1576.271z" style="stroke:black;fill:#2fa850"/><path id="180610419" parent_id="180610378" order="18" structure_id="84" d="M4247.436,1827.205l214.822,227.332
			c-5.223,0.296-7.876,0.527-7.876,0.527l-305.065,81.891C4158.395,2031.53,4194.137,1916.174,4247.436,1827.205z" style="stroke:black;fill:#2fa850"/><path id="180610402" parent_id="180610378" order="19" structure_id="448" d="M5449.341,3306.705l75.897,160.854
			c-70.08-40.246-141.172-77.683-207.229-124.612c-74.716-53.038-154.867-98.738-230.752-150.541
			c-87.679-59.92-181.39-97.839-281.08-133.479c-40.423-14.44-81.981-19.94-123.604-28.425l0.002-0.249l-42.227-189.877
			c9.445-0.021,18.807,0.624,27.91,2.093c152.301,24.475,287.023,136.833,422.393,202.791
			c57.152,27.813,114.924,74.604,167.123,111.996C5315.088,3198.327,5379.633,3260.495,5449.341,3306.705z" style="stroke:black;fill:#248a5e"/><path id="180610401" parent_id="180610378" order="20" structure_id="412" d="M5076.225,2516.406
			l373.117,790.299c-69.709-46.21-134.254-108.378-191.566-149.449c-52.199-37.392-109.971-84.184-167.124-111.996
			c-135.367-65.958-270.091-178.315-422.392-202.791c-9.104-1.47-18.465-2.113-27.91-2.093l-87.668-394.442
			c125.188-47.221,230.058-54.305,361.78-13.479C4963.497,2447.617,5019.802,2478.406,5076.225,2516.406z" style="stroke:black;fill:#248a5e"/><path id="180610400" parent_id="180610378" order="21" structure_id="630" d="M4931.453,2209.829
			l144.771,306.577c-56.422-38-112.728-68.789-161.763-83.952c-131.724-40.826-236.592-33.741-361.781,13.479l-53.483-240.916
			c103.963-32.612,218.021-38.89,323.059-21.775C4857.35,2188.946,4894.079,2198.061,4931.453,2209.829z" style="stroke:black;fill:#248a5e"/><path id="180610399" parent_id="180610378" order="22" structure_id="440" d="M4893.057,2128.447l38.396,81.382
			c-37.374-11.771-74.104-20.883-109.198-26.587c-105.036-17.113-219.097-10.836-323.058,21.775l-32.414-145.728l-2.537-4.823
			C4502.292,2052.734,4649.704,2052.564,4893.057,2128.447z" style="stroke:black;fill:#248a5e"/><path id="180610428" parent_id="180610378" order="23" structure_id="484" d="M4010.186,3099.482l-27.017,62.216
			c-25.613,1.319-51.313,3.136-76.289,8.354c-34.104,7.063-82.065,17.183-105.458,45.612c-0.668,0.741-1.253,1.482-1.838,2.309
			c1.757-2.475,3.679-4.946,5.768-7.502c-63.479-35.81-109.815-82.607-138.359-150.666c-25.119-59.83-62.455-151.314-60.196-216.101
			l4.522-562.204l68.236-18.352c0.445,69.276,4.212,137.666,17.129,200.646c37.467,183.133,38.075,597.957,288.575,633.449
			c6.457,0.955,13.164,1.663,20.039,2.04C4006.955,3099.379,4008.612,3099.473,4010.186,3099.482z" style="stroke:black;fill:#248a5e"/><path id="180610427" parent_id="180610378" order="24" structure_id="524" d="M3978.021,3015.325
			c8.182,27.896,12.993,51.629,7.412,80.677l-0.175,1.242c-250.5-35.492-251.108-450.315-288.575-633.449
			c-12.916-62.98-16.684-131.369-17.129-200.646l97.621-26.191c3.396,49.741,7.947,99.739,11.987,151.971
			c9.609,123.698-4.269,240.609,45.378,349.744C3878.88,2836.169,3947.4,2911.125,3978.021,3015.325z" style="stroke:black;fill:#248a5e"/><path id="180610426" parent_id="180610378" order="25" structure_id="582" d="M4228.927,2595.896
			l-218.741,503.588c-1.574-0.012-3.229-0.104-4.888-0.199c-6.875-0.377-13.582-1.085-20.039-2.04l0.175-1.242
			c5.581-29.048,0.77-52.779-7.413-80.677c-30.621-104.2-99.141-179.156-143.479-276.654
			c-49.646-109.134-35.77-226.045-45.378-349.744c-4.04-52.231-8.594-102.229-11.987-151.971l154.235-41.473
			c-0.03,41.515,0.936,82.622,2.736,122.988c6.482,144.891-8.369,345.239,147.578,320.352
			C4131.661,2630.873,4180.57,2615.375,4228.927,2595.896z" style="stroke:black;fill:#248a5e"/><path id="180610425" parent_id="180610378" order="26" structure_id="620" d="M4374.443,2261.107
			l-145.518,334.787c-48.355,19.479-97.266,34.979-147.201,42.93c-155.947,24.888-141.095-175.461-147.578-320.352
			c-1.801-40.367-2.767-81.474-2.735-122.988l217.903-58.529c-4.758,54.658-2.373,106.547,8.435,150.704
			c22.742,93.044,82.401,68.42,140.923,28.375C4325.395,2297.735,4351.889,2276.12,4374.443,2261.107z" style="stroke:black;fill:#248a5e"/><path id="180610424" parent_id="180610378" order="27" structure_id="910" d="M4463.574,2055.872
			l-89.13,205.236c-22.556,15.012-49.051,36.627-75.772,54.927c-58.521,40.044-118.181,64.668-140.922-28.375
			c-10.808-44.156-13.192-96.045-8.435-150.704l305.065-81.892c0,0,2.653-0.23,7.877-0.526L4463.574,2055.872z" style="stroke:black;fill:#248a5e"/><path id="180610398" parent_id="180610378" order="28" structure_id="969" d="M4304.246,3089.361
			l-48.279,20.558c-35.858,9.205-71.106,26.287-105.793,33.679c-37.84,8.113-76.315,12.496-114.865,15.304
			c-17.161,1.293-34.648,1.838-52.139,2.798l27.017-62.215c156.231,6.685,308.04-105.073,432.797-186.603
			c53.349-34.776,129.499-71.968,197.366-72.506l42.227,189.877l-0.002,0.249c-10.59-2.227-21.182-4.617-31.688-7.34
			c-40.327-10.598-78.752-15.871-120.227-11.504c-35.567,3.746-65.182,23.656-98.848,32.904
			c-43.578,11.972-84.878,29.84-127.32,45.298L4304.246,3089.361z" style="stroke:black;fill:#248a5e"/><path id="180610397" parent_id="180610378" order="29" structure_id="288" d="M4552.682,2445.934
			l87.668,394.442c-67.867,0.538-144.02,37.729-197.367,72.506c-124.756,81.528-276.564,193.286-432.797,186.603l218.742-503.588
			c72.119-28.933,142.971-66.656,214.217-101.728C4481.887,2475.122,4518.039,2459.041,4552.682,2445.934z" style="stroke:black;fill:#248a5e"/><path id="180610396" parent_id="180610378" order="30" structure_id="1125" d="M4499.197,2205.018
			l53.482,240.916c-34.643,13.107-70.794,29.188-109.536,48.235c-71.247,35.07-142.099,72.794-214.218,101.728l145.518-334.788
			c5.328-3.527,10.486-6.726,15.312-9.427C4424.271,2232.439,4461,2216.941,4499.197,2205.018z" style="stroke:black;fill:#248a5e"/><path id="180610395" parent_id="180610378" order="31" structure_id="608" d="M4466.783,2059.291
			l32.414,145.729c-38.197,11.924-74.926,27.42-109.441,46.662c-4.824,2.702-9.983,5.899-15.312,9.428l89.13-205.236
			L4466.783,2059.291z" style="stroke:black;fill:#248a5e"/><path id="180610406" parent_id="180610378" order="32" structure_id="996" d="M6089.033,3158.451l0.577,0.418
			c-6.104,8.494-12.377,16.986-18.729,25.313c-47.15,61.997-81.258,131.208-129.399,192.701
			c-31.845,40.721-73.896,71.347-113.967,103.479c-49.403,39.773-97.292,75.83-164.049,59.057
			c-43.76-10.983-79.212-37.572-117.427-59.871c-6.934-4.024-13.866-8.049-20.8-11.989l-75.897-160.853
			c81.504,53.994,170.117,86.078,262.67,37.064c98.543-52.205,139.26-155.512,183.569-251.171
			c11.015-23.791,23.104-47.077,35.687-70.029L6089.033,3158.451z" style="stroke:black;fill:#219866"/><path id="180610405" parent_id="180610378" order="33" structure_id="328" d="M5658.327,2787.473
			l272.938,235.098c-12.582,22.952-24.672,46.238-35.687,70.029c-44.312,95.659-85.026,198.967-183.569,251.171
			c-92.554,49.015-181.166,16.931-262.67-37.064l-373.117-790.3c101.379,68.3,203.264,159.804,264.301,226.174
			c51.33,55.863,156.725,155.181,237.52,105.177C5611.409,2827.098,5637.559,2807.801,5658.327,2787.473z" style="stroke:black;fill:#219866"/><path id="180610404" parent_id="180610378" order="34" structure_id="1101" d="M5028.084,2244.702
			l630.243,542.771c-20.771,20.328-46.918,39.625-80.284,60.283c-80.795,50.004-186.189-49.313-237.52-105.177
			c-61.037-66.37-162.922-157.874-264.301-226.173l-144.771-306.577C4963.371,2219.739,4995.771,2231.641,5028.084,2244.702z" style="stroke:black;fill:#219866"/><path id="180610403" parent_id="180610378" order="35" structure_id="783" d="M4893.057,2128.447
			l135.027,116.255c-32.313-13.062-64.713-24.963-96.631-34.873L4893.057,2128.447z" style="stroke:black;fill:#219866"/><path id="180610382" parent_id="180610378" order="36" structure_id="698" d="M5658.416,3545.12
			c3.441,2.06,7.184,3.577,11.182,4.615c-41.418-17.785-92.25-51.919-123.56-70.188c-6.933-4.023-13.866-8.049-20.8-11.988
			c-70.079-40.246-141.172-77.683-207.229-124.612c-74.717-53.038-154.867-98.738-230.752-150.541
			c-87.68-59.92-181.39-97.839-281.08-133.479c-40.424-14.44-81.982-19.94-123.604-28.425c-10.591-2.227-21.183-4.617-31.688-7.34
			c-40.326-10.598-78.752-15.871-120.226-11.504c-35.567,3.746-65.183,23.656-98.849,32.904
			c-43.578,11.972-84.877,29.84-127.32,45.298l-0.245-0.499l-48.28,20.558c-35.857,9.205-71.105,26.287-105.791,33.679
			c-37.84,8.113-76.316,12.496-114.866,15.304c-17.161,1.293-34.648,1.838-52.14,2.798c-25.612,1.319-51.313,3.136-76.289,8.354
			c-34.104,7.063-82.064,17.183-105.457,45.612c-0.668,0.741-1.254,1.483-1.838,2.31c0.031-0.046,0.021-0.094-0.016-0.144
			c-32.533,43.95-27.809,77.937-34.719,131.743c-17.388,135.604-55.098,270.439-58.205,407.886
			c-1.911,84.323-5.378,173.688-6.232,264.849c-2.799,300.748,22.836,621.061,226.699,844.235
			c83.204,91.077,188.016,134.247,304.131,164.272c61.213,15.834,125.483,22.643,188.627,21.388
			c125.186-2.495,226.989-46.315,342.377-86.472c104.695-36.406,202.271-62.953,291.779-133.871
			c145.055-114.902,265.563-276.502,366.208-429.722c101.51-154.51,214.181-329.253,266.714-507.833
			C5711.111,3812.123,5751.779,3601.081,5658.416,3545.12z M4530.703,3873.294c-57.613,88.272-149.552-1.156-112.621-93.293
			c24.834-61.908,122.268-97.671,144.835-11.64C4571.059,3799.346,4547.816,3847.08,4530.703,3873.294z" style="stroke:black;fill:#9ad2bd"/><path id="180610383" parent_id="180610378" order="37" structure_id="507" d="M3700.934,4045.873
			c0.309,141.174,15.981,282.999,119.952,329.516c26.146,11.697,57.354,17.362,94.513,15.478
			c163.445-8.29,174.839-215.002,182.631-352.68c7.646-135.08-1.205-280.839-92.716-383.87
			c-38.63-43.486-262.894-200.698-281.317-63.676c-7.429,55.236-14.354,113.596-15.625,169.402
			C3706.938,3823.362,3700.691,3934.426,3700.934,4045.873z" style="stroke:black;fill:#9ad2bd"/><path id="180610384" parent_id="180610378" order="38" structure_id="220" d="M3907.314,4099.799c22.593,8.703,47.767,7.725,72.811-9.29
			c75.609-51.433,48.445-193.448,41.857-269.192c-3.584-41.213-6.627-124.375-48.721-147.414
			c-116.271-63.614-164.886,273.584-142.504,338.973C3843.268,4049.381,3872.188,4086.271,3907.314,4099.799z" style="stroke:black;fill:#82c7ae"/><path id="180610385" parent_id="180610378" order="39" structure_id="244" d="M4005.314,3654.314
			c-38.631-43.485-262.895-200.697-281.318-63.676c-7.428,55.236-14.354,113.596-15.625,169.402
			c-1.434,63.32-7.68,174.384-7.438,285.831c0.309,141.174,15.981,282.999,119.952,329.517
			c26.146,11.696,57.354,17.361,94.513,15.477c163.445-8.29,174.839-215.002,182.631-352.68
			C4105.676,3903.105,4096.823,3757.348,4005.314,3654.314z M3980.124,4090.509c-25.044,17.015-50.218,17.993-72.81,9.29
			c-35.127-13.525-64.047-50.418-76.558-86.925c-22.382-65.388,26.233-402.587,142.504-338.972
			c42.095,23.037,45.136,106.199,48.722,147.412C4028.57,3897.061,4055.734,4039.076,3980.124,4090.509z" style="stroke:black;fill:#9ad2bd"/><path id="180610386" parent_id="180610378" order="40" structure_id="159" d="M4407.109,3231.422
			c-38.646-134.081-48.396-161.285-102.619-141.558c42.465-15.456,83.701-33.315,127.355-45.304
			c18.604-5.11,37.004-11.522,55.323-17.369c48.179-15.354,82.965-5.127,130.625,3.293c62.825,11.095,126.369,16.822,186.069,41.056
			c91.892,37.3,181.758,74.301,266.664,125.937c171.797,104.469,336.416,224.17,516.345,313.955
			c24.938,12.44,49.86,32.586,75.276,44.013c32.182,14.483,43.543,33.989,47.168,68.616l6.901,49.92
			c2.492,51.618-2.136,104.981-12.931,155.477c-4.652,21.768-10.059,43.555-16.338,64.906
			c-52.523,178.579-165.192,353.326-266.705,507.836c-100.646,153.214-221.14,314.816-366.199,429.729
			c-89.504,70.91-187.082,97.463-291.767,133.877c-115.396,40.146-217.198,83.977-342.37,86.465
			c-63.141,1.254-127.404-5.543-188.635-21.379c-8.448-2.187-69.266-18.188-68.093-25.746c4.71-27.617,11.149-56.645,18.166-83.769
			c12.817-49.657,33.047-98.019,51.729-145.701c21.168-54.043,38.412-127.632,42.686-186.157
			c4.191-57.479-27.236-138.079-89.066-155.975c-51.422-14.873-133.877-1.354-174.668,30.01
			c-49.466,38.031-86.695,104.703-109.449,161.311c-12.566,31.23-22.252,63.462-34.414,94.822
			c-2.022,5.203-18.918,50.103-28.523,34.707c-59.062-94.742-87.277-195.823-108.315-304.998
			c-9.192-47.666-22.487-121.897-24.591-171.729c29.825,93.475,103.129,147.348,201.994,138.669
			c157.021-13.785,193.571-112.476,211.713-324.135c12.614-147.125,14.168-312.479-71.588-415.716
			c1.707,1.974,45.582,13.868,76.523,17.082c39.318,4.095,76.702,1.886,114.879,14.236c42.48,13.745,84.986,35.63,122.057,60.644
			c9.248,6.241,25.619,15.848,49.82,31.187c4.248-14.938,5.009-12.498,6.354-19.619c-39.739-26.039-49.498-86.557-24.688-118.84
			c19.574-28.229,68.845-51.332,119.791-49.454c-2.76-11.692-6.304-18.632-10.123-30.495c-4.839-15.011-9.136-30.224-13.425-45.408
			c-8.504-30.095-16.313-60.383-24.299-90.627C4448.127,3378.377,4426.223,3297.752,4407.109,3231.422 M4418.479,3779.997
			c-34.842,83.081,35.662,159.195,89.342,118.411c-17.551,17.315-63.98,14.25-75.819,61.58c-5.122,20.437,4.087,35.245,8.778,53.639
			c5.974,23.43,5.608,48.648,7.623,72.743c4.621,55.184,10.236,110.29,17.842,165.149c7.438,53.518,20.068,98.172,73.354,49.604
			c61.434-55.974,106.051-134.789,131.063-213.322c26.362-82.797,52.476-150.395,110.283-217.429
			c30.48-35.35,64.127-67.325,91.227-105.604c14.07-19.879,40.718-54.528,31.857-81.196c-7.606-22.884-36.996-27.146-57.429-31.054
			c-44.577-8.532-89.642-13.104-134.646-18.004c-88.742-9.67-252.303-58.936-318.621,26.407
			C4375.988,3683.245,4369.646,3746.913,4418.479,3779.997z" style="stroke:black;fill:#54bf94"/><path id="180610389" parent_id="180610378" order="41" structure_id="167" d="M4904.025,3681.572
			c-7.606-22.885-36.996-27.146-57.429-31.053c-44.577-8.533-89.642-13.105-134.646-18.006
			c-50.75-5.529-125.971-24.01-193.479-22.855l-4.884,0.063c-2.76-11.693-6.304-18.633-10.123-30.496
			c-4.839-15.011-9.136-30.224-13.425-45.407c-8.504-30.095-16.313-60.384-24.299-90.627
			c-16.688-63.289-37.223-138.974-55.587-203.158l7.963-5.673c30.567-4.17,62.944-4.825,97.388-1.385
			c239.039,23.885,497.49,125.916,706.273,240.742c19.945,10.967,46.852,24.303,75.893,39.935l0.324,5.571
			c-63.043,147.931-250.317,179.547-392.629,165.158" style="stroke:black;fill:#54bf94"/><path id="180610388" parent_id="180610378" order="42" structure_id="183" d="M4645.662,4152.116
			c9.773-21.14,18.125-42.737,24.997-64.313c26.362-82.797,52.476-150.396,110.282-217.43c30.48-35.35,64.127-67.324,91.227-105.604
			c12.539-17.713,35.06-47.151,33.553-72.223l-0.353-6.166c142.312,14.389,329.586-17.229,392.629-165.158l-0.324-5.571
			c89.972,48.43,200.446,118.903,187.979,209.301c-12.721,92.253-127.81,162.941-187.179,224.841
			c-60.243,62.832-130.253,111.488-193.345,170.528c-64.321,60.176-49.895,111.271-68.367,189.491
			c-24.961,105.71-104.435,178.158-195.691,238.038l0.542-6.323c-10.979-72.836,12.17-187.609-46.521-239.548
			c-53.606-47.448-131.879-48.698-147.764-134.647L4645.662,4152.116z" style="stroke:black;fill:#54bf94"/><path id="180610390" parent_id="180610378" order="43" structure_id="191" d="M4049.146,3676.729
			c4.125,2.515,46.31,13.735,76.201,16.836c39.332,4.076,76.717,1.926,114.916,14.196c42.5,13.793,85.025,35.706,122.063,60.648
			c9.237,6.276,25.58,15.917,49.838,31.243l-0.083-0.018c-13.479,63.275,29.893,119.177,74.988,108.593l-9.043,5.295
			c-22.4,10.656-37.806,17.011-46.026,46.464c-5.681,20.287,4.087,35.246,8.778,53.64c5.974,23.43,5.608,48.647,7.623,72.743
			c2.85,34.023,6.076,68.02,9.914,101.945l0.313,8.82c-57.621,61.863-56.69,143.869-84.349,221.1
			c-15.026,41.93-25.545,101.333-48.6,140.538l-2.175,4.408c-37.301-53.101-69.992-105.569-100.332-163.606
			c-25.95-49.623-64.758-123.262-119.151-146.817l-7.791,0.707c11.592-44.021,18.729-97.522,24.199-161.272
			c12.285-142.521,14.092-302.172-63.717-405.858L4049.146,3676.729z" style="stroke:black;fill:#54bf94"/><path id="180610387" parent_id="180610378" order="44" structure_id="199" d="M4459.32,4197.063
			c2.113,18.176,4.41,36.33,6.924,54.459c7.437,53.517,20.067,98.172,73.353,49.604c42.188-38.438,76.446-87.65,101.87-140.146
			l5.863,6.354c15.883,85.949,94.155,87.199,147.764,134.646c58.689,51.938,35.539,166.713,46.52,239.549l-0.541,6.322
			c-78.463,51.485-165.64,93.68-234.371,139.734c-102.685,68.811-206.379-18.361-264.065-97.659
			c-6.513-8.951-12.884-17.854-19.127-26.742l2.175-4.408c23.055-39.205,33.572-98.608,48.6-140.538
			c27.658-77.23,26.728-159.234,84.349-221.1L4459.32,4197.063z" style="stroke:black;fill:#54bf94"/><path id="180610391" parent_id="180610378" order="45" structure_id="160" d="M5716.611,3684.015
			c-0.135-3.782-0.322-7.541-0.563-11.271l-6.317-45.688c-5.041-22.207-13.043-42.045-24.902-57.821
			c-6.08-5.155-13.537-9.677-22.678-13.791c-25.416-11.426-50.34-31.57-75.277-44.013
			c-179.93-89.784-344.548-209.485-516.344-313.955c-84.907-51.635-174.773-88.636-266.664-125.936
			c-59.701-24.232-123.245-29.961-186.07-41.056c-47.66-8.42-82.445-18.647-130.625-3.293
			c-18.318,5.847-36.721,12.259-55.322,17.368c-43.655,11.988-84.892,29.849-127.356,45.304
			c54.224-19.729,63.974,7.478,102.62,141.559c0,0,165.391-6.922,323.391,41.078c67.818,20.604,188.643,55.154,314,110
			c134.135,58.685,265.099,139.639,265.099,139.639c87.485,48.15,187.976,116.373,176.056,202.813
			c-12.722,92.254-127.811,162.941-187.18,224.842c-60.243,62.831-130.253,111.488-193.346,170.527
			c-64.32,60.176-49.894,111.271-68.367,189.492c-24.961,105.709-104.434,178.158-195.69,238.037l0.542-6.322l-0.541,6.312
			c-1.311,0.86-2.623,1.717-3.938,2.571c-0.771,0.5-1.537,1.002-2.308,1.5c-1.751,1.131-3.508,2.256-5.267,3.379
			c-0.717,0.459-1.434,0.92-2.152,1.377c-1.824,1.16-3.654,2.313-5.486,3.463c-0.658,0.414-1.314,0.83-1.975,1.242
			c-1.896,1.187-3.796,2.365-5.699,3.543c-0.602,0.373-1.2,0.746-1.802,1.117c-1.972,1.215-3.944,2.424-5.921,3.629
			c-0.538,0.328-1.075,0.658-1.613,0.986c-2.053,1.249-4.107,2.491-6.166,3.73c-0.463,0.278-0.926,0.56-1.389,0.838
			c-2.158,1.297-4.318,2.588-6.48,3.875c-0.361,0.215-0.724,0.433-1.084,0.646c-2.252,1.338-4.506,2.67-6.763,3.999
			c-0.278,0.165-0.56,0.331-0.84,0.496c-2.388,1.403-4.776,2.804-7.168,4.199c-0.138,0.079-0.272,0.16-0.41,0.239
			c-30.845,17.987-61.862,35.158-91.567,52.234c-0.127,0.074-0.254,0.146-0.381,0.221c-2.297,1.32-4.588,2.642-6.869,3.961
			c-0.396,0.23-0.791,0.461-1.188,0.691c-2.016,1.168-4.027,2.336-6.027,3.503c-0.601,0.351-1.193,0.7-1.791,1.051
			c-1.799,1.051-3.595,2.103-5.379,3.153c-0.735,0.434-1.463,0.867-2.195,1.301c-1.646,0.974-3.293,1.945-4.927,2.92
			c-0.825,0.492-1.642,0.983-2.463,1.476c-1.528,0.915-3.062,1.83-4.579,2.746c-0.955,0.576-1.898,1.153-2.852,1.729
			c-1.375,0.836-2.756,1.67-4.123,2.506c-1.037,0.635-2.063,1.271-3.094,1.905c-1.27,0.78-2.545,1.563-3.805,2.347
			c-1.109,0.688-2.204,1.379-3.307,2.067c-1.168,0.731-2.345,1.463-3.504,2.194c-1.16,0.733-2.306,1.47-3.457,2.203
			c-1.09,0.693-2.187,1.388-3.268,2.082c-1.387,0.892-2.754,1.785-4.126,2.681c-0.828,0.539-1.666,1.076-2.489,1.615
			c-2.19,1.438-4.365,2.879-6.521,4.324c-1.113,0.746-2.229,1.468-3.342,2.179c-0.255,0.162-0.509,0.324-0.764,0.483
			c-1.097,0.69-2.192,1.367-3.289,2.022c-0.142,0.084-0.283,0.166-0.424,0.248c-0.998,0.595-1.998,1.172-2.998,1.736
			c-0.237,0.135-0.477,0.271-0.713,0.404c-1.09,0.607-2.18,1.201-3.269,1.774c-0.209,0.11-0.418,0.217-0.628,0.326
			c-0.973,0.508-1.943,1.002-2.915,1.483c-0.199,0.099-0.399,0.199-0.601,0.297c-1.086,0.533-2.174,1.049-3.262,1.549
			c-0.246,0.111-0.492,0.224-0.738,0.334c-1.008,0.457-2.018,0.902-3.024,1.332c-0.121,0.053-0.243,0.106-0.365,0.158
			c-1.097,0.463-2.19,0.906-3.287,1.338c-0.258,0.102-0.517,0.201-0.772,0.301c-1.104,0.428-2.207,0.844-3.312,1.237
			c-0.039,0.015-0.078,0.026-0.117,0.041c-1.073,0.383-2.146,0.747-3.22,1.101c-0.256,0.084-0.51,0.168-0.766,0.25
			c-1.087,0.351-2.173,0.688-3.258,1.008c-0.162,0.047-0.324,0.092-0.484,0.14c-0.978,0.283-1.953,0.554-2.929,0.813
			c-0.235,0.063-0.474,0.127-0.709,0.188c-1.077,0.278-2.153,0.546-3.229,0.797c-0.221,0.051-0.44,0.101-0.662,0.149
			c-0.959,0.219-1.918,0.426-2.877,0.621c-0.191,0.039-0.383,0.08-0.574,0.119c-1.076,0.213-2.15,0.412-3.226,0.599
			c-0.25,0.043-0.5,0.084-0.75,0.126c-1.007,0.168-2.015,0.326-3.019,0.471c-0.105,0.016-0.213,0.033-0.317,0.047
			c-1.082,0.151-2.162,0.285-3.242,0.41c-0.26,0.028-0.521,0.059-0.778,0.086c-1.082,0.117-2.162,0.225-3.239,0.313
			c-0.082,0.007-0.162,0.013-0.244,0.019c-1.019,0.082-2.035,0.149-3.054,0.209c-0.256,0.015-0.512,0.028-0.769,0.043
			c-1.062,0.054-2.122,0.098-3.183,0.125c-0.183,0.006-0.363,0.008-0.545,0.012c-0.942,0.021-1.885,0.032-2.824,0.033
			c-0.231,0-0.465,0.002-0.695,0.001c-1.053-0.005-2.104-0.021-3.154-0.051c-0.23-0.007-0.463-0.017-0.694-0.022
			c-0.935-0.031-1.868-0.071-2.801-0.123c-0.183-0.01-0.366-0.018-0.549-0.027c-1.05-0.063-2.099-0.137-3.146-0.223
			c-0.254-0.021-0.51-0.043-0.765-0.064c-0.992-0.087-1.983-0.182-2.974-0.29c-0.088-0.01-0.179-0.019-0.268-0.026
			c-1.053-0.117-2.104-0.25-3.152-0.392c-0.264-0.035-0.524-0.071-0.787-0.106c-1.045-0.146-2.088-0.301-3.129-0.471
			c-0.115-0.02-0.229-0.04-0.346-0.059c-0.959-0.158-1.917-0.328-2.874-0.506c-0.252-0.047-0.505-0.094-0.758-0.143
			c-1.026-0.195-2.054-0.4-3.076-0.619c-0.196-0.042-0.394-0.087-0.59-0.13c-0.899-0.194-1.797-0.399-2.692-0.61
			c-0.228-0.055-0.455-0.105-0.684-0.16c-1.016-0.246-2.025-0.5-3.037-0.767c-0.238-0.063-0.479-0.128-0.718-0.19
			c-0.899-0.242-1.797-0.489-2.692-0.746c-0.174-0.051-0.351-0.098-0.524-0.147c-1.009-0.293-2.017-0.599-3.021-0.91
			c-0.26-0.081-0.52-0.163-0.777-0.245c-0.965-0.307-1.927-0.617-2.889-0.939c-0.072-0.024-0.146-0.049-0.22-0.072
			c-1.01-0.342-2.017-0.695-3.022-1.057c-0.264-0.096-0.527-0.189-0.791-0.287c-0.994-0.361-1.987-0.73-2.979-1.111
			c-0.146-0.057-0.292-0.113-0.438-0.172c-0.891-0.346-1.777-0.697-2.664-1.059c-0.25-0.101-0.5-0.201-0.748-0.304
			c-0.979-0.401-1.955-0.813-2.929-1.231c-0.209-0.09-0.418-0.183-0.626-0.272c-0.846-0.367-1.688-0.741-2.527-1.122
			c-0.225-0.102-0.447-0.2-0.67-0.303c-0.965-0.439-1.926-0.89-2.883-1.346c-0.246-0.117-0.49-0.234-0.735-0.354
			c-0.851-0.41-1.7-0.826-2.548-1.248c-0.165-0.082-0.331-0.162-0.496-0.246c-0.957-0.479-1.912-0.971-2.863-1.467
			c-0.26-0.135-0.52-0.271-0.776-0.406c-0.926-0.487-1.849-0.979-2.771-1.479c-0.092-0.051-0.184-0.101-0.274-0.149
			c-0.921-0.504-1.839-1.018-2.755-1.535c-0.262-0.146-0.521-0.295-0.779-0.441c-0.936-0.533-1.867-1.072-2.797-1.619
			c-0.168-0.1-0.334-0.2-0.502-0.299c-0.816-0.484-1.633-0.975-2.444-1.471c-0.243-0.146-0.485-0.295-0.729-0.443
			c-0.916-0.563-1.83-1.13-2.74-1.706c-0.222-0.14-0.441-0.282-0.664-0.423c-0.779-0.497-1.56-0.999-2.336-1.505
			c-0.211-0.14-0.424-0.274-0.635-0.414c-0.901-0.592-1.801-1.19-2.697-1.796c-0.248-0.166-0.494-0.334-0.74-0.502
			c-0.795-0.54-1.586-1.083-2.375-1.632c-0.154-0.108-0.312-0.215-0.465-0.323c-0.894-0.623-1.781-1.254-2.668-1.891
			c-0.258-0.184-0.515-0.369-0.771-0.554c-0.879-0.635-1.756-1.272-2.629-1.918c-0.104-0.077-0.206-0.153-0.311-0.231
			c-0.821-0.608-1.641-1.226-2.457-1.845c-0.254-0.19-0.506-0.384-0.76-0.576c-0.861-0.659-1.723-1.321-2.578-1.99
			c-0.188-0.146-0.371-0.293-0.559-0.438c-0.732-0.574-1.461-1.152-2.188-1.734c-0.237-0.189-0.476-0.378-0.711-0.568
			c-0.844-0.678-1.684-1.36-2.521-2.049c-0.226-0.185-0.448-0.371-0.673-0.557c-0.71-0.587-1.418-1.177-2.123-1.77
			c-0.201-0.17-0.404-0.34-0.605-0.51c-0.828-0.699-1.651-1.404-2.475-2.113c-0.243-0.21-0.484-0.421-0.729-0.632
			c-0.728-0.631-1.453-1.265-2.174-1.901c-0.145-0.127-0.287-0.252-0.431-0.379c-0.819-0.727-1.635-1.457-2.448-2.191
			c-0.243-0.221-0.486-0.439-0.73-0.662c-0.812-0.736-1.619-1.477-2.424-2.221c-0.123-0.113-0.244-0.229-0.367-0.342
			c-0.72-0.668-1.435-1.34-2.147-2.013c-0.237-0.226-0.476-0.449-0.714-0.675c-0.785-0.745-1.566-1.492-2.346-2.244
			c-0.187-0.18-0.369-0.359-0.556-0.539c-0.657-0.639-1.312-1.277-1.964-1.92c-0.143-0.141-0.286-0.281-0.43-0.422l-10.59-13.357
			c-1.066-0.354-2.164-0.71-3.277-1.064c-11.22-12.27-21.479-24.987-30.588-37.511c-6.512-8.951-12.883-17.854-19.127-26.742
			l-0.293-0.422c-37.179-52.955-69.778-105.302-100.039-163.185c-25.949-49.625-64.758-123.263-119.15-146.818l-7.781,0.706
			c-0.807,3.069-1.639,6.09-2.491,9.065c-0.045,0.158-0.091,0.318-0.136,0.478c-0.407,1.419-0.821,2.826-1.24,4.226
			c-0.08,0.269-0.162,0.535-0.243,0.804c-1.267,4.194-2.579,8.296-3.943,12.304c-0.127,0.371-0.254,0.742-0.382,1.111
			c-1.336,3.881-2.721,7.673-4.155,11.378c-0.155,0.401-0.313,0.806-0.47,1.207c-0.46,1.172-0.923,2.339-1.395,3.493
			c-0.091,0.223-0.183,0.439-0.272,0.661c-0.908,2.213-1.837,4.392-2.784,6.538c-0.174,0.395-0.346,0.789-0.521,1.18
			c-0.476,1.063-0.955,2.117-1.44,3.164c-0.199,0.434-0.404,0.861-0.606,1.293c-0.927,1.967-1.869,3.908-2.832,5.817
			c-0.155,0.31-0.31,0.621-0.466,0.929c-0.493,0.971-0.996,1.929-1.5,2.883c-0.26,0.492-0.521,0.981-0.783,1.471
			c-1.621,3.018-3.293,5.959-5.019,8.827c-0.31,0.515-0.62,1.028-0.934,1.539c-0.518,0.842-1.035,1.681-1.563,2.509
			c-0.315,0.499-0.639,0.988-0.959,1.482c-0.898,1.391-1.813,2.762-2.739,4.113c-0.369,0.538-0.737,1.076-1.11,1.607
			c-0.526,0.752-1.059,1.496-1.593,2.235c-0.4,0.552-0.806,1.097-1.209,1.642c-0.859,1.156-1.73,2.301-2.612,3.429
			c-0.464,0.595-0.927,1.188-1.396,1.774c-0.537,0.668-1.082,1.328-1.627,1.986c-0.461,0.557-0.926,1.107-1.392,1.654
			c-0.537,0.633-1.072,1.266-1.617,1.887c-0.871,0.994-1.753,1.975-2.645,2.941c-0.536,0.582-1.082,1.151-1.625,1.725
			c-0.53,0.561-1.066,1.118-1.605,1.67c-0.549,0.563-1.1,1.124-1.656,1.677c-0.722,0.718-1.454,1.424-2.188,2.127
			c-0.734,0.701-1.478,1.394-2.225,2.08c-0.635,0.583-1.271,1.164-1.916,1.735c-0.558,0.496-1.118,0.987-1.684,1.475
			c-0.697,0.602-1.403,1.195-2.112,1.784c-0.707,0.589-1.419,1.174-2.139,1.751c-0.85,0.682-1.703,1.355-2.567,2.02
			c-0.557,0.429-1.118,0.85-1.682,1.271c-0.744,0.556-1.496,1.104-2.251,1.647c-0.523,0.375-1.044,0.756-1.573,1.127
			c-1.165,0.816-2.346,1.617-3.538,2.405c-0.531,0.353-1.07,0.694-1.606,1.039c-0.83,0.535-1.667,1.063-2.511,1.585
			c-0.551,0.339-1.1,0.68-1.653,1.014c-1.263,0.76-2.537,1.508-3.829,2.237c-0.454,0.257-0.917,0.504-1.375,0.757
			c-0.979,0.54-1.962,1.073-2.957,1.598c-0.561,0.295-1.122,0.59-1.688,0.879c-1.11,0.57-2.233,1.129-3.366,1.681
			c-0.463,0.224-0.923,0.45-1.389,0.671c-1.308,0.621-2.632,1.229-3.968,1.822c-0.552,0.246-1.108,0.486-1.666,0.729
			c-1.106,0.479-2.224,0.95-3.351,1.412c-0.472,0.193-0.938,0.393-1.412,0.582c-1.515,0.607-3.047,1.198-4.596,1.775
			c-0.509,0.188-1.024,0.373-1.539,0.56c-1.189,0.433-2.393,0.856-3.604,1.271c-0.528,0.183-1.055,0.363-1.587,0.541
			c-1.625,0.543-3.267,1.07-4.929,1.582c-0.388,0.117-0.782,0.23-1.173,0.349c-1.374,0.413-2.761,0.815-4.159,1.208
			c-0.555,0.154-1.107,0.311-1.664,0.461c-1.627,0.441-3.268,0.875-4.929,1.29c-0.163,0.04-0.321,0.083-0.482,0.123
			c-1.798,0.444-3.62,0.867-5.457,1.278c-0.548,0.123-1.101,0.244-1.65,0.363c-1.522,0.332-3.061,0.652-4.61,0.962
			c-0.399,0.079-0.793,0.163-1.194,0.241c-1.899,0.37-3.823,0.723-5.767,1.061c-0.5,0.088-1.007,0.17-1.511,0.256
			c-1.576,0.266-3.167,0.521-4.771,0.767c-0.515,0.078-1.024,0.158-1.541,0.235c-2.013,0.297-4.043,0.578-6.1,0.845
			c-0.372,0.047-0.751,0.09-1.124,0.138c-1.752,0.22-3.521,0.426-5.306,0.623c-0.577,0.063-1.154,0.127-1.734,0.188
			c-2.14,0.225-4.294,0.438-6.479,0.631c-96.856,8.503-169.174-43.037-200.117-133.025c4.426,51.763,10.945,103.115,20.309,153.478
			c0.776,4.121,1.537,8.104,2.271,11.918c21.5,109.946,56.931,214.903,114.182,308.726c9.445-2.451,21.131-33.474,22.791-37.744
			c12.162-31.36,21.848-63.592,34.414-94.822c22.754-56.607,59.984-123.277,109.449-161.311
			c40.791-31.364,123.246-44.883,174.669-30.01c61.829,17.896,93.258,98.496,89.065,155.975c-0.174,2.4-0.379,4.834-0.599,7.282
			c-0.056,0.625-0.112,1.252-0.172,1.879c-0.216,2.327-0.446,4.668-0.7,7.033c-0.016,0.138-0.027,0.272-0.042,0.411
			c-0.274,2.547-0.578,5.12-0.896,7.706c-0.064,0.53-0.133,1.063-0.199,1.597c-0.314,2.51-0.645,5.031-0.996,7.571
			c-0.012,0.075-0.021,0.149-0.03,0.226c-0.381,2.74-0.787,5.5-1.211,8.271c-0.052,0.339-0.104,0.677-0.157,1.017
			c-0.867,5.615-1.816,11.283-2.848,16.984c-0.023,0.132-0.049,0.264-0.072,0.396c-0.523,2.895-1.066,5.795-1.631,8.701
			c-7.96,41.013-19.762,82.946-33.132,117.084c-18.685,47.684-38.913,96.045-51.729,145.701
			c-7.017,27.125-13.457,56.15-18.166,83.77c-1.104,7.115,52.735,21.715,66.09,25.223c0.668,0.174,1.334,0.351,2.002,0.522
			c61.229,15.836,125.496,22.633,188.635,21.379c125.172-2.487,226.975-46.317,342.371-86.464
			c104.684-36.414,202.262-62.968,291.766-133.878c-6.861,5.587-14.703,9.808-21.792,15.075
			c-20.536,15.236-50.509,29.799-75.415,16.665c-17.512-9.229-26.29-24.498-29.234-43.592c-3.392-21.938,3.391-39.856,10.705-60.192
			c55.51-154.263,233.877-279.574,332.135-403.071c51.755-65.063,95.41-137.034,143.459-204.806
			c55.639-78.452,114.96-148.967,166.352-230.869c16.095-25.633,46.811-88.822,80.756-94.94
			c67.963-12.255,6.48,123.582-4.824,151.778c-13.293,33.195-27.836,68.702-43.773,102.467
			c30.206-61.079,56.088-123.341,74.54-186.076c0.549-1.866,1.083-3.74,1.618-5.613c12.342-43.611,27.938-117.524,28.299-186.856
			C5716.873,3695.919,5716.792,3689.957,5716.611,3684.015z" style="stroke:black;fill:#54bf94"/><path id="180610394" parent_id="180610378" order="46" structure_id="1034" d="M4304.491,3089.86l-0.245-0.499l-48.279,20.558
			c-35.858,9.205-71.106,26.287-105.793,33.679c-37.84,8.113-76.315,12.496-114.865,15.304c-13.434,1.012-27.064,1.564-40.741,2.219
			l-15.07,0.772c-24.396,1.308-48.833,3.19-72.616,8.159c-30.765,6.372-72.808,15.23-97.918,37.775l-7.688,7.731
			c-34.41,45.063-29.394,79.282-36.422,134.014c-8.479,66.115-21.786,132.049-33.562,198.189l-0.57,3.938
			c2.111-5.868,4.882-11.07,7.979-15.606c9.714-15.182,24.431-22.707,42.258-24.41c53.896-5.188,114.398,29.523,159.303,55.265
			c15.513,8.926,29.496,21.848,43.507,34.381l0.005,0.004l4.535-8.123c109.619-155.192,225.959-317.336,407.703-353.168
			l14.041-5.474c-7.844-28.217-15.696-56.432-23.567-84.64c-4.929-17.659-8.524-36.617-15.146-53.703
			c-9.824-25.354-31.914-16.775-54.283-11.648L4304.491,3089.86z" style="stroke:black;fill:#62d09f"/><path id="180610393" parent_id="180610378" order="47" structure_id="1042" d="M4513.59,3611.72
			c-2.76-11.692-6.305-18.632-10.123-30.495c-4.839-15.011-9.137-30.224-13.425-45.408c-8.504-30.095-16.313-60.383-24.299-90.627
			c-16.688-63.289-37.222-138.973-55.587-203.157l-14.148-1.989c-181.744,35.831-298.084,197.975-407.703,353.167l-4.535,8.123
			c7.31,6.539,14.627,12.972,22.173,18.676c16.323,12.374,26.068,29.593,46.822,36.112c23.813,7.452,48.534,15.656,73.459,18.227
			c39.332,4.076,78.875,1.359,117.074,13.715c27.707,8.979,53.881,22.018,79.226,36.246c12.817,7.197,25.441,14.732,38.06,22.275
			c5.892,3.521,12.37,6.057,18.378,9.38c4.098,2.268,13.57,12.087,18.854,10.229c5.406-1.901-1.432-7.623-3.459-11.299
			c-4.211-7.633-7.412-15.838-10.168-24.093c-8.051-24.153-6.609-49.034,9.146-69.879c27.116-35.875,71.394-48.164,120.254-49.58
			L4513.59,3611.72z" style="stroke:black;fill:#62d09f"/><path id="180610392" parent_id="180610378" order="48" structure_id="1067" d="M4205.066,4774.9
			c21.16-54.047,44.479-109.688,48.744-168.217c4.191-57.475-16.176-137.428-78.013-155.322
			c-79.995-23.145-164.959,30.301-207.06,95.955c-11.313,17.645-21.33,35.629-30.426,53.9
			c-24.453,49.135-42.247,100.426-60.785,153.228c-1.675,4.795-13.949,30.472-11.4,34.151c6.045,8.725,9.629,13.879,12.309,17.625
			c3.188,4.289,6.393,8.558,9.67,12.762c1.528,1.945,3.356,4.27,5.721,7.291c8.974,11.271,18.287,22.176,27.916,32.793
			c6.506,6.947,13.223,13.837,20.617,21.343c4.45,4.499,8.828,8.828,13.189,13.021c18.515,17.301,38.193,33.528,59.612,48.244
			c0.233,0.166,0.565,0.377,0.825,0.56c1.439,0.959,2.904,1.905,4.377,2.86c6.547,4.184,15.293,9.422,22.284,13.465
			c8.108,4.615,16.687,9.236,25.95,13.945c3.934,1.999,41.875,18.033,60.009,26.255c3.155,1.198,6.425,2.396,9.783,3.604
			c4.718-27.617,9.67-55.144,16.687-82.275C4167.895,4870.432,4186.383,4822.583,4205.066,4774.9z" style="stroke:black;fill:#62d09f"/><path id="180610430" parent_id="180610378" order="49" structure_id="1009" d="M4564.566,3784.023
			c0.179-16.617-5.703-32.571-16.078-46.08c-27.965-36.459-83.36-17.912-107.645,8.5c-2.646,2.873-26.743,32.094-21.751,34.625
			c-18.53-9.357-28.638-31.485-34.908-50.268c-8.051-24.154-6.61-49.034,9.146-69.879c65.252-86.33,229.879-36.078,318.621-26.408
			c45.006,4.899,90.068,9.473,134.646,18.005c20.433,3.908,49.821,8.169,57.429,31.054c8.859,26.668-17.787,61.316-31.857,81.195
			c-27.1,38.279-60.745,70.255-91.227,105.604c-57.809,67.034-83.92,134.632-110.283,217.429
			c-25.012,78.533-69.629,157.35-131.063,213.322c-53.284,48.567-65.916,3.912-73.354-49.604
			c-7.604-54.86-13.222-109.967-17.842-165.149c-2.015-24.096-1.649-49.313-7.623-72.743c-4.691-18.395-14.459-33.353-8.778-53.64
			c11.798-42.269,38.388-36.964,79.22-65.071C4539.15,3875.689,4564.229,3814.947,4564.566,3784.023z" style="stroke:black;fill:#cccccc"/><path id="180610431" parent_id="180610378" order="50" structure_id="1009" d="M5661.01,3826.194
			c-33.945,6.118-64.661,69.309-80.756,94.939c-51.391,81.903-110.712,152.417-166.352,230.869
			c-48.049,67.771-91.703,139.742-143.459,204.806c-98.258,123.498-276.625,248.811-332.135,403.072
			c-7.314,20.336-14.096,38.255-10.705,60.191c2.945,19.095,11.725,34.363,29.234,43.592c24.906,13.135,54.879-1.428,75.416-16.664
			c7.088-5.269,14.93-9.488,21.791-15.076c70.314-57.235,112.924-100.838,165.967-160.645
			c72.323-82.752,137.162-173.495,195.408-261.756c1.615-2.447,3.227-4.893,4.826-7.327c22.071-33.597,44.67-68.147,67.064-103.489
			c32.904-52.797,64.706-106.016,95.035-160.317c10.395-19.183,20.447-38.507,30.064-57.951
			c15.938-33.765,30.48-69.271,43.773-102.467C5667.491,3949.775,5728.973,3813.939,5661.01,3826.194z" style="stroke:black;fill:#cccccc"/><path id="180610429" parent_id="180610378" order="51" structure_id="98" d="M4530.703,3873.294
			c17.113-26.214,40.354-73.948,32.214-104.933c-22.567-86.031-120.001-50.27-144.835,11.64
			C4381.15,3872.138,4473.09,3961.566,4530.703,3873.294z" style="stroke:black;fill:#aaaaaa"/></g>
</g>
</svg>