<?xml version="1.0" encoding="utf-8"?>
<!-- Generator: Adobe Illustrator 16.0.0, SVG Export Plug-In . SVG Version: 6.00 Build 0)  -->
<!DOCTYPE svg PUBLIC "-//W3C//DTD SVG 1.1//EN" "http://www.w3.org/Graphics/SVG/1.1/DTD/svg11.dtd">
<svg version="1.1" id="Layer_1" xmlns="http://www.w3.org/2000/svg" xmlns:xlink="http://www.w3.org/1999/xlink" x="0px" y="0px"
	 width="9744.01px" height="6823.46px" viewBox="0 0 9744.01 6823.46" enable-background="new 0 0 9744.01 6823.46"
	 xml:space="preserve">
<g transform="scale(1.0)">
	<g id="_x31_80629725" transform=" scale(1.0, 1.0)">
		<path id="_x31_80629727" fill="none" stroke="#010101" stroke-width="64" d="M4867.557,6217.137
			c142.965-34.621,261.404,5.303,403.885-2.748c177.35-10.029,483.051-9.391,630.906-120.682
			c58.223-43.855,71.319-108.236,134.871-147.332c163.478-100.567,332.779-11.635,450.838,113.754
			c119.888,127.326,184.477,234.402,367.609,280.537c287.517,72.438,599.085,58.277,826.93-143.084
			c210.055-185.617,358.764-436.372,502.364-672.602c205.727-338.418,374.862-696.033,555.089-1047.86
			c85.113-166.141,201.203-299.968,260.825-479.979c69.455-209.695,46.754-509.371,29.365-728.26
			c-41.878-527.231-286.461-1040.461-559.539-1486.628c-360.476-588.947-820.567-1014.68-1519.232-1170.581
			c-440.978-98.398-929.327-152.344-1380.482-134.504c-201.269,7.964-405.631,94.685-550.563,232.456
			c-25.463,24.199-69.367,59.71-99.422,94.472c-0.381,52.258-11.205,1095.632-12.814,1253.542L4867.557,6217.137z"/>
		<path id="_x31_80629728" fill="none" stroke="#010101" stroke-width="64" d="M4920.999,804.069
			c30.034-34.698,68.45-65.906,106.013-102.316c35.137-34.059,81.592-58.14,123.043-92.291
			c42.813-35.25,112.201-60.313,163.724-80.19c136.162-52.528,279.358-58.143,424.292-57.284
			c155.605,0.957,318.081,5.909,472.847,22c91.804,9.513,182.711,17.831,273.775,32.83c68.037,11.229,133.227,21.84,201.493,32.104
			c136.619,20.683,285.719,47.712,417.961,92.187c123.254,41.497,235,76.729,348.797,139.672
			c53.271,29.433,109.709,58.155,163.212,86.997c56.718,30.579,105.122,65.984,154.767,104.888
			c41.15,32.221,71.914,51.059,111.651,88.908c49.785,47.369,116.211,105.579,164.628,154.349
			c63.367,63.824,111.162,107.463,157.337,177.221c50.463,76.331,107.716,135.201,155.987,212.921
			c73.555,118.56,157.082,231.494,218.395,356.772c58.878,120.357,136.933,232.647,188.714,356.206
			c32.129,76.537,71.234,146.974,94.718,223.729c39.268,128.125,83.038,256.141,116.654,385.776
			c18.505,71.438,26.641,143.156,34.384,216.355c6.231,59.004,18.729,115.544,19.176,175.236
			c0.893,125.625,18.401,250.586,17.265,376.27c-0.886,101.258-13.686,214.215-50.428,309.581
			c-47.7,123.853-129.26,230.177-195.793,344.21c-43.593,74.516-75.148,155.082-117.092,230.357
			c-46.618,83.624-92.318,173.49-134.442,258.639c-108.715,219.67-222.575,428.006-344.748,641.324
			c-83.315,145.508-187.913,300.396-277.181,432.861c-41.199,61.178-89.496,117.76-140.308,171.277
			c-51.649,54.328-111.349,102.121-167.46,151.805c-35.483,31.38-79.842,55.557-123.455,73.504
			c-142.162,58.706-283.464,62.852-434.625,53.697c-46.256-2.791-108.086-11.289-153.676-20.312
			c-96.436-19.057-172.037-46.912-247.518-108.914c-31.229-25.674-69.645-67.449-107.845-108.627
			c-23.782-25.602-62.679-72.503-83.579-93.553c-21.564-21.724-37.213-34.709-18.885-63.572
			c18.406-29.016,52.805-56.912,76.879-81.939c57.342-59.699,112.268-125.723,146.924-200.989
			c16.52-35.784,38.056-69.597,61.219-101.089c23.545-32.006,153.66-7.449,225.166-19.425
			c52.686-8.807,116.158-6.604,156.674-30.591c41.199-24.426,76.458-70.213,112.172-101.816
			c50.193-44.245,96.191-96.762,142.895-144.747c110.716-113.86,224.945-211.575,265.322-368.456
			c16.042-62.443,90.48-104.166,123.889-160.14c50.148-83.96,68.762-192.114,102.66-303.47
			c31.953-105.064,78.73-211.551,135.759-351.058c8.397-20.567,130.497-284.961,62.506-506.518
			c-28.288-92.093-67.437-180.646-116.687-265.203c-64.757-111.355-130.58-243.878-180.244-354.277
			c-10.8-24.004-34.847-67.798-49.348-89.908c-26.193-40.029-60.023-75.005-86.438-115.259
			c-22.568-34.353-44.395-67.664-64.841-103.333c-20.596-35.897-40.034-82.25-65.774-114.926
			c-49.327-62.584-101.37-116.954-156.598-175.435c-33.378-35.268-74.205-62.214-111.234-93.21
			c-32.78-27.395-58.678-59.105-92.911-84.211c-84.056-61.783-177.142-106.276-268.979-156.103
			c-61.572-33.444-115.652-57.317-184.467-80.878c-75.775-25.925-163.141-57.226-239.383-82.188
			c-66.272-21.68-129.979-44.602-197.506-62.434c-36.043-9.456-69.256-23.566-104.167-34.198
			c-34.681-10.558-72.838-19.217-108.304-26.59c-83.151-17.229-162.751-36.878-246.223-52.181
			c-76.799-14.131-173.687-25.322-232.416,37.924c-44.52,47.931-77.955,106.431-119.943,156.61
			c-54.618,65.363-112.917,108.271-195.098,136.038c-26.469,8.968-56.252,18.945-83.871,23.301
			c-22.129,3.514-252.535,21.557-252.395-0.046L4920.999,804.069z"/>
		<path id="_x31_80629831" fill="none" stroke="#010101" stroke-width="64" d="M6174.438,490.392l-0.505,5.713l-9.392,87.966
			c-12.021,0.19-23.825,0.677-35.483,1.613c-41.429,3.189-77.947,10.433-120.201,5.673c-51.787-5.887-104.292-14.823-155.295-24.042
			c-48.974-8.905-97.289-1.322-147.211,1.494c-45.641,2.633-89.821,2.533-134.408,5.844l-13.732-97.456
			c59.41-4.81,119.448-5.608,179.857-5.213C5881.504,472.833,6030.76,477.144,6174.438,490.392z"/>
		<path id="_x31_80629830" fill="none" stroke="#010101" stroke-width="64" d="M6164.542,584.071l-36.312,340.225
			c-135.298-76.425-356.257-166.838-532.682-181.641l-23.606-168c44.589-3.312,88.773-3.212,134.41-5.844
			c49.924-2.817,98.235-10.401,147.209-1.494c51.001,9.218,103.509,18.153,155.295,24.041c42.252,4.759,78.774-2.485,120.203-5.674
			C6140.713,584.749,6152.521,584.259,6164.542,584.071z"/>
		<path id="_x31_80629829" fill="none" stroke="#010101" stroke-width="64" d="M6128.229,924.294l-49.28,462.015
			c-144.911-76.512-273.773-179.385-426.663-240.23l-56.74-403.426C5771.973,757.457,5992.932,847.871,6128.229,924.294z"/>
		<path id="_x31_80629828" fill="none" stroke="#010101" stroke-width="64" d="M6078.949,1386.309l-31.909,299.354
			c-14.009-4.432-27.939-8.937-41.862-13.666c-63.348-21.507-126.658-32.102-189.051-58.646c-0.076-0.075-0.227-0.076-0.302-0.152
			c-23.157-13.125-48.349-25.898-72.964-36.291c-10.541-5.071-21.311-9.919-32.02-13.949l-58.555-416.879
			C5805.176,1206.924,5934.038,1309.797,6078.949,1386.309z"/>
		<path id="_x31_80629827" fill="none" stroke="#010101" stroke-width="64" d="M6047.038,1685.664l-8.971,83.741
			c-94.571-24.833-207.533-51.315-290.492-58.371c-5.703-0.72-11.405-1.367-17.185-1.938l0.418-4.303l-19.679-140.05
			c10.331,3.509,20.956,7.613,31.729,12.166c27.07,12.94,52.689,27.573,72.966,36.292c0.075,0.076,0.224,0.078,0.302,0.151
			c58.943,33.271,125.697,37.213,189.051,58.646C6019.101,1676.727,6033.031,1681.231,6047.038,1685.664z"/>
		<path id="_x31_80629836" fill="none" stroke="#010101" stroke-width="64" d="M5558.213,477.198l13.732,97.455
			c-19.1,1.312-38.279,3.295-57.699,6.384c-49.371,7.723-105.633-1.173-153.049,13.767
			c-104.631,32.99-202.33,108.208-266.25,201.847l-64.518-98.136c34.668-32.355,79.467-56.005,119.625-89.055
			c42.815-35.25,112.203-60.314,163.726-80.192C5393.209,498.653,5475.037,483.947,5558.213,477.198z"/>
		<path id="_x31_80629835" fill="none" stroke="#010101" stroke-width="64" d="M5571.943,574.653l23.604,168
			c-31.981-2.664-62.412-2.862-90.688-0.074c-123.504,12.252-255.352,83.526-307.236,197.392c-1.15,2.514-2.302,5.102-3.31,7.618
			l-99.37-150.94c63.924-93.638,161.623-168.856,266.254-201.846c47.416-14.94,103.678-6.045,153.049-13.767
			C5533.666,577.947,5552.846,575.966,5571.943,574.653z"/>
		<path id="_x31_80629834" fill="none" stroke="#010101" stroke-width="64" d="M5652.288,1146.079
			c-0.076-0.002-0.227-0.004-0.299-0.079c-146.829-58.265-213.515,18.792-238.816,134.161l-218.859-332.573
			c1.006-2.514,2.157-5.103,3.31-7.618c51.883-113.864,183.732-185.138,307.236-197.392c28.278-2.788,58.707-2.59,90.688,0.075
			L5652.288,1146.079z"/>
		<path id="_x31_80629833" fill="none" stroke="#010101" stroke-width="64" d="M5652.288,1146.079l58.554,416.879
			c-29.562-11.328-59.027-17.387-83.688-8.772c-0.223,0.072-0.451,0.145-0.682,0.292c-0.223-0.002-0.373,0.071-0.6,0.217
			c-5.051,1.585-9.506,3.849-13.297,6.934c-0.077,0-0.223,0.073-0.305,0.22c-3.104,2.124-6.055,4.547-8.938,7.194l-190.161-288.881
			c25.302-115.37,91.987-192.425,238.813-134.161C5652.062,1146.077,5652.212,1146.078,5652.288,1146.079z"/>
		<path id="_x31_80629832" fill="none" stroke="#010101" stroke-width="64" d="M5711.128,1564.743l19.677,140.051l-0.418,4.302
			c-12.008-1.148-24.102-1.85-36.195-1.958l-89.678-136.301c0.764-1.106,1.6-2.212,2.441-3.319c1.6-2.14,3.347-3.978,5.316-5.667
			c0.082-0.147,0.229-0.22,0.305-0.22c4.16-2.861,8.62-5.196,13.299-6.934c0.225-0.147,0.375-0.219,0.598-0.217
			C5647.201,1548.205,5677.656,1553.38,5711.128,1564.743z"/>
		<path id="_x31_80629814" fill="none" stroke="#010101" stroke-width="64" d="M8767.638,2329.04
			c17.82,42.555,37.845,83.196,56.134,124.045l-4.9,2.108l-84.902,43.114c-8.789-14.703-17.201-29.626-24.482-45.285
			c-82.78-178.628-142.959-363.146-244.994-532.594c-14.996-24.856-29.086-50.598-44.164-75.68
			c-45.948-76.659-109.893-149.993-167.194-218.811c-68.372-82.06-125.278-174.932-200.839-251.189
			c-35.922-36.26-71.084-73.323-107.311-109.065l60.252-72.514l4.023-4.194c13.396,12.669,26.191,25.108,37.941,36.943
			c63.369,63.824,111.162,107.465,157.337,177.223c50.463,76.33,107.72,135.2,155.991,212.921
			c73.551,118.56,157.078,231.494,218.391,356.772C8637.798,2093.191,8715.853,2205.48,8767.638,2329.04z"/>
		<path id="_x31_80629813" fill="none" stroke="#010101" stroke-width="64" d="M8733.969,2498.307l-223.19,113.363
			c-5.215-12.073-10.648-24.371-16.231-36.896c-52.949-119.932-114.063-234.889-188.074-345.063
			c-86.156-128.178-161.909-244.452-261.166-362.428c-95.021-112.962-211.202-229.009-330.447-324.595l230.125-277.005
			c36.227,35.74,71.389,72.805,107.311,109.064c75.564,76.257,132.467,169.128,200.839,251.189
			c57.302,68.818,121.246,142.15,167.194,218.812c15.078,25.082,29.168,50.821,44.166,75.679
			c102.033,169.447,162.212,353.965,244.992,532.595C8716.768,2468.679,8725.18,2483.604,8733.969,2498.307z"/>
		<path id="_x31_80629812" fill="none" stroke="#010101" stroke-width="64" d="M8510.778,2611.67l-129.764,65.875
			c-50.206-101.793-112.188-205.028-177.254-294.112c-77.954-106.869-126.347-231.289-212.921-332.889
			c-104.465-122.625-223.866-240.335-334.546-357.668c-11.742-12.503-23.718-24.639-35.844-36.553l94.409-113.634
			c119.245,95.584,235.426,211.632,330.449,324.595c99.255,117.975,175.01,234.25,261.164,362.428
			c74.011,110.174,135.125,225.132,188.077,345.062C8500.13,2587.299,8505.563,2599.598,8510.778,2611.67z"/>
		<path id="_x31_80629811" fill="none" stroke="#010101" stroke-width="64" d="M8381.013,2677.546l-285.427,145.021
			c-18.67-40.853-37.039-81.85-54.874-123.216c-51.016-118.208-112.536-222.479-177.534-332.72
			c-107.835-182.866-251.786-294.561-421.818-420.076c-12.828-9.469-25.429-19.087-38.03-28.925l217.117-261.311
			c12.128,11.914,24.102,24.049,35.845,36.554c110.681,117.335,230.078,235.043,334.549,357.668
			c86.572,101.6,134.967,226.021,212.921,332.89C8268.827,2472.517,8330.811,2575.751,8381.013,2677.546z"/>
		<path id="_x31_80629810" fill="none" stroke="#010101" stroke-width="64" d="M8095.586,2822.567l-255.751,129.853
			c-100.812-193.567-228.855-406.387-378.964-547.686c-90.281-85.005-175.279-164.096-265.072-237.288l207.535-249.815
			c12.599,9.839,25.201,19.455,38.025,28.926c170.034,125.515,313.985,237.211,421.82,420.075
			c64.998,110.242,126.521,214.512,177.536,332.719C8058.547,2740.718,8076.916,2781.715,8095.586,2822.567z"/>
		<path id="_x31_80629809" fill="none" stroke="#010101" stroke-width="64" d="M7839.835,2952.42l-71.377,36.254
			c-5.37-11.481-10.737-22.961-16.18-34.369c-29.423-61.812-74.282-105.946-111.719-163.078
			c-20.346-31.069-40.313-62.354-61.487-93.28c-7.035-10.238-13.388-20.76-19.44-31.357c-0.296-0.523-0.59-1.12-0.886-1.643
			c-11.572-21.784-23.199-45.868-36.051-67.812c-0.147-0.299-0.291-0.521-0.441-0.746c-11.29-20.221-23.559-39.931-39.005-58.259
			c-42.315-50.272-87.884-98.348-134.9-144.355c-1.117-1.199-2.228-2.471-3.417-3.668c-8.402-8.837-17.182-17.156-26.269-25.108
			c-0.146-0.075-0.222-0.227-0.372-0.299c-48.441-46.096-99.166-90.206-152.17-131.296c-4.764-4.275-9.68-8.476-14.746-12.531
			l44.424-53.425c89.795,73.194,174.797,152.286,265.072,237.29C7610.979,2546.033,7739.022,2758.852,7839.835,2952.42z"/>
		<path id="_x31_80629826" fill="none" stroke="#010101" stroke-width="64" d="M6686.188,558.92
			c75.776,11.449,155.359,24.86,233.777,42.197l-0.71,3.187l-33.118,108.837c-26.904-7.147-53.729-14.515-80.4-22.107
			c-46.897-13.414-94.326-19.04-141.867-28.82c-86.229-17.853-171.019-36.508-258.022-52.438
			c-75.971-13.823-161.72-26.992-241.309-25.706l9.395-87.967l0.504-5.711c12.238,1.15,24.394,2.372,36.48,3.593
			c91.8,9.515,182.707,17.831,273.773,32.831C6552.729,538.047,6617.921,548.655,6686.188,558.92z"/>
		<path id="_x31_80629825" fill="none" stroke="#010101" stroke-width="64" d="M6886.139,713.141l-92.453,304.229
			c-67.154-23.843-135.309-45.466-204.236-65.241c-96.721-27.747-185.462-49.926-282.383-57.704
			c-32.584-2.595-136.492-33.153-144.664,16.44c-2.242,13.717,0.715,25.918,7.666,36.67l-1.359,0.806
			c-12.396-7.759-25.91-15.824-40.479-24.048l36.312-340.225c79.587-1.286,165.336,11.883,241.309,25.706
			c87,15.931,171.791,34.586,258.021,52.438c47.543,9.782,94.968,15.408,141.869,28.821
			C6832.41,698.626,6859.234,705.995,6886.139,713.141z"/>
		<path id="_x31_80629824" fill="none" stroke="#010101" stroke-width="64" d="M6793.686,1017.371l-38.406,126.163
			c-104.687-42.593-214.01-72.382-322.64-103.724c-45.029-12.954-222.046-28.43-262.571-92.275
			c-6.949-10.752-9.906-22.954-7.666-36.67c8.172-49.594,112.08-19.037,144.664-16.44c96.921,7.778,185.66,29.957,282.383,57.703
			C6658.377,971.905,6726.531,993.528,6793.686,1017.371z"/>
		<path id="_x31_80629823" fill="none" stroke="#010101" stroke-width="64" d="M6755.279,1143.536l-131.33,432.173
			c-65.269-17.293-130.375-35.995-194.584-53.649c-103.403-28.326-209.396-67.664-305.936-113.45
			c-15.027-7.114-29.832-14.597-44.48-22.3l49.284-462.015c14.565,8.224,28.083,16.288,40.478,24.048l1.357-0.806
			c40.525,63.845,217.542,79.321,262.571,92.274C6541.273,1071.153,6650.593,1100.942,6755.279,1143.536z"/>
		<path id="_x31_80629822" fill="none" stroke="#010101" stroke-width="64" d="M6623.949,1575.708l-75.415,247.885
			c-165.933-49.382-337.249-85.669-501.498-137.93l31.911-299.355c14.648,7.704,29.451,15.188,44.479,22.302
			c96.539,45.785,202.532,85.124,305.938,113.449C6493.58,1539.713,6558.681,1558.416,6623.949,1575.708z"/>
		<path id="_x31_80629821" fill="none" stroke="#010101" stroke-width="64" d="M6548.536,1823.593l-28.457,93.66l-0.075,0.148
			c-7.639-2.592-15.355-5.258-23.14-7.93c-120.853-41.547-204.571-69.104-311.785-99.618c-0.075-0.001-0.229-0.078-0.298-0.152
			c-12.73-4.421-25.531-8.842-38.489-12.818c-28.765-8.796-59.946-16.206-90.014-22.714c-5.997-1.538-12.063-3.151-18.209-4.766
			l8.971-83.739C6211.287,1737.925,6382.604,1774.212,6548.536,1823.593z"/>
		<path id="_x31_80629820" fill="none" stroke="#010101" stroke-width="64" d="M8009.26,1188.976l-4.023,4.194l-60.252,72.512
			c-39.125-38.885-79.619-76.221-123.988-109.586c-89.926-67.553-174.748-142.038-269.019-203.767
			c-68.891-45.166-138.239-89.594-215.711-118.95c-75.746-28.67-155.915-44.017-234.153-64.47
			c-72.09-18.838-144.334-36.715-215.975-55.768l33.118-108.839l0.712-3.185c62.975,13.781,125.247,30.153,184.182,49.988
			c123.254,41.497,235,76.729,348.797,139.671c53.271,29.434,109.709,58.155,163.212,86.997
			c56.718,30.58,105.124,65.985,154.769,104.889c41.146,32.221,71.911,51.059,111.647,88.909
			C7920.304,1107.472,7967.514,1149.549,8009.26,1188.976z"/>
		<path id="_x31_80629819" fill="none" stroke="#010101" stroke-width="64" d="M7820.996,1156.098
			c44.369,33.363,84.863,70.699,123.988,109.586l-230.125,277.003c-20.045-16.142-40.104-31.615-60.239-46.421
			c-167.202-123.041-310.218-223.519-493.849-319.978c-118.457-62.241-241.079-114.425-367.086-158.917l92.455-304.23
			c71.639,19.056,143.885,36.932,215.979,55.77c78.234,20.452,158.403,35.801,234.151,64.472
			c77.468,29.354,146.821,73.782,215.709,118.948C7646.248,1014.06,7731.07,1088.543,7820.996,1156.098z"/>
		<path id="_x31_80629818" fill="none" stroke="#010101" stroke-width="64" d="M7714.859,1542.687l-94.409,113.634
			c-145.44-142.52-313.124-240.913-489.952-341.1c-101.602-57.561-214.411-98.891-319.715-147.652
			c-18.317-8.479-36.877-16.441-55.504-24.034l38.406-126.163c126.003,44.492,248.625,96.676,367.084,158.917
			c183.633,96.459,326.646,196.936,493.851,319.977C7674.756,1511.072,7694.814,1526.545,7714.859,1542.687z"/>
		<path id="_x31_80629817" fill="none" stroke="#010101" stroke-width="64" d="M7620.45,1656.321l-217.118,261.311
			c-69.328-53.708-135.922-111.028-208.677-160.461c-105.656-71.926-211.011-108.141-336.43-128.945
			c-77.94-12.951-156.341-31.771-234.272-52.519l131.326-432.171c18.629,7.591,37.187,15.555,55.508,24.032
			c105.3,48.762,218.109,90.092,319.711,147.653C7307.326,1415.408,7475.01,1513.802,7620.45,1656.321z"/>
		<path id="_x31_80629816" fill="none" stroke="#010101" stroke-width="64" d="M7403.332,1917.632l-207.533,249.815
			c-87.703-71.618-180.056-137.412-286.363-197.615c-113.701-64.425-235.797-109.031-360.899-146.238l75.417-247.887
			c77.934,20.748,156.336,39.568,234.276,52.52c125.417,20.803,230.77,57.018,336.43,128.944
			C7267.41,1806.604,7334.002,1863.924,7403.332,1917.632z"/>
		<path id="_x31_80629815" fill="none" stroke="#010101" stroke-width="64" d="M7195.797,2167.447l-44.426,53.426
			c-3.428-2.852-7.005-5.558-10.582-8.189c-15.74-11.574-31.781-22.484-48.053-33.023c0,0-0.078-0.001-0.152-0.077
			c-40.59-28.132-82.545-54.346-125.885-78.273c-62.012-34.336-120.488-61.887-177.427-85.786
			c-30.746-13.79-62.175-26.1-97.516-38.298c-56.741-21-113.28-39.848-171.757-59.825l0.077-0.148l28.457-93.66
			c125.103,37.207,247.196,81.811,360.897,146.238C7015.741,2030.034,7108.096,2095.828,7195.797,2167.447z"/>
		<path id="_x31_80629808" fill="none" stroke="#010101" stroke-width="64" d="M9032.563,3330.137
			c0.46,65.489,5.429,130.864,9.94,196.241l-93.664,4.056c2.926-73.101-1.908-144.27-14.083-217.437
			c-28.959-173.393-40.249-348.187-85.616-518.686c-15.919-59.981-37.036-118.305-54.242-177.408
			c-12.702-43.769-37.95-80.373-60.93-118.596l84.902-43.114l4.9-2.108c14.619,32.725,28.11,65.587,38.58,99.685
			c39.268,128.125,83.038,256.142,116.658,385.773c18.5,71.439,26.641,143.158,34.38,216.357
			C9019.625,3213.904,9032.121,3270.442,9032.563,3330.137z"/>
		<path id="_x31_80629807" fill="none" stroke="#010101" stroke-width="64" d="M8934.757,3312.997
			c12.174,73.165,17.009,144.334,14.083,217.437l-205.748,8.985c-10.087-137.44-36.734-273.174-64.502-408.024
			c-20.338-98.627-55.21-200.879-83.369-297.721c-23.664-81.285-51.984-148.285-84.441-222.002l223.189-113.365
			c22.979,38.22,48.228,74.827,60.93,118.596c17.206,59.104,38.323,117.424,54.242,177.409
			C8894.508,2964.809,8905.799,3139.601,8934.757,3312.997z"/>
		<path id="_x31_80629806" fill="none" stroke="#010101" stroke-width="64" d="M8743.092,3539.419l-104.863,4.548
			c-2.461-24.078-4.714-46.224-6.408-64.056c-25.859-270.922-113.624-498.895-220.577-738.175
			c-9.482-21.244-19.554-42.718-30.23-64.195l129.766-65.875c32.458,73.719,60.778,140.721,84.442,222.005
			c28.159,96.842,63.031,199.091,83.369,297.719C8706.357,3266.247,8733.005,3401.979,8743.092,3539.419z"/>
		<path id="_x31_80629805" fill="none" stroke="#010101" stroke-width="64" d="M8638.229,3543.969l-263.556,11.512
			c-16.71-122.502-53.403-244.661-111.676-373.479c-54.445-120.542-112.366-239.258-167.411-359.431l285.427-145.023
			c10.68,21.477,20.749,42.95,30.23,64.194c106.953,239.281,194.718,467.254,220.577,738.175
			C8633.515,3497.746,8635.768,3519.892,8638.229,3543.969z"/>
		<path id="_x31_80629804" fill="none" stroke="#010101" stroke-width="64" d="M8374.673,3555.48l-248.972,10.9
			c-58.895-170.476-151.938-344.889-228.273-500.075c-18.033-36.689-37.257-74.875-57.593-113.886l255.747-129.853
			c55.049,120.175,112.97,238.89,167.415,359.431C8321.27,3310.816,8357.963,3432.979,8374.673,3555.48z"/>
		<path id="_x31_80629803" fill="none" stroke="#010101" stroke-width="64" d="M8125.701,3566.381l-64.801,2.828
			c-11.762-32.846-25.936-64.969-41.543-96.443c-0.217-0.597-0.51-1.118-0.807-1.641c-32.418-70.6-73.693-141.872-108.24-209.522
			c-19.594-38.334-42.59-74.923-62.945-112.298c-28.543-52.379-53.535-106.579-78.908-160.559l0.001-0.072l71.377-36.255
			c20.34,39.009,39.56,77.195,57.593,113.884C7973.764,3221.492,8066.807,3395.908,8125.701,3566.381z"/>
		<path id="_x31_80629802" fill="none" stroke="#010101" stroke-width="64" d="M9049.832,3706.403
			c-0.888,101.261-13.684,214.217-50.425,309.584c-18.218,47.354-41.443,92.206-66.909,135.856l-0.749-0.452l-147.14-49.36
			c13.52-21.78,27.112-43.26,41.004-64.52c41.527-63.547,78.852-135.152,86.914-210.66c9.299-86.779,27.674-171.625,34.197-258.425
			c0.958-12.761,1.688-25.375,2.115-37.993l93.664-4.06C9046.627,3586.327,9050.373,3646.273,9049.832,3706.403z"/>
		<path id="_x31_80629801" fill="none" stroke="#010101" stroke-width="64" d="M8743.092,3539.419l205.748-8.985
			c-0.428,12.618-1.157,25.232-2.113,37.991c-6.525,86.802-24.9,171.647-34.199,258.425c-8.062,75.51-45.387,147.111-86.914,210.662
			c-13.892,21.26-27.484,42.739-41.004,64.518l-173.055-57.98c16.667-35.785,35.529-80.082,41.913-109.204l0.074-0.001
			c8.154,18.342,22.795,19.508,47.914-12.115c68.051-85.584,49.059-264.234,43.016-363.624
			C8744.088,3552.496,8743.627,3545.959,8743.092,3539.419z"/>
		<path id="_x31_80629800" fill="none" stroke="#010101" stroke-width="64" d="M8744.472,3559.105
			c6.043,99.391,25.032,278.043-43.014,363.625c-25.121,31.625-39.762,30.455-47.916,12.117
			c-19.238-43.678-1.486-185.396-1.668-211.607c-0.375-44.178-7.436-117.74-13.646-179.271l104.863-4.545
			C8743.627,3545.959,8744.088,3552.496,8744.472,3559.105z"/>
		<path id="_x31_80629799" fill="none" stroke="#010101" stroke-width="64" d="M8653.542,3934.846l-0.074-0.001
			c-6.384,29.122-25.246,73.419-41.913,109.204l-250.334-83.92c26.236-140.973,31.416-272.932,13.452-404.648l263.556-11.512
			c6.21,61.529,13.271,135.094,13.646,179.271C8652.056,3749.449,8634.304,3891.168,8653.542,3934.846z"/>
		<path id="_x31_80629798" fill="none" stroke="#010101" stroke-width="64" d="M8374.673,3555.48
			c17.964,131.717,12.784,263.676-13.452,404.648l-216.711-72.7c-32.666-46.03-58.13-24.433-73.139,17.829
			c2.376-12.229,4.456-24.61,6.164-37.143c2.85-21.206,4.864-42.424,5.982-63.643c6.924,6.295,15.701,15.062,24.863,23.164
			c0,0,0.074,0,0.074,0.072c8.002,11.134,18.592,18.729,32.541,21.154c0.602,0.082,1.199,0.234,1.801,0.315
			c88.91,12.679,18.51-164.358,8.73-199.931c-7.534-27.464-16.27-55.083-25.826-82.863L8374.673,3555.48z"/>
		<path id="_x31_80629797" fill="none" stroke="#010101" stroke-width="64" d="M8151.527,3649.244
			c9.779,35.574,80.18,212.611-8.732,199.93c-0.6-0.079-1.197-0.23-1.799-0.315c-9.518-2.235-21.301-11.176-32.541-21.155
			c0-0.072-0.074-0.07-0.074-0.07c-13.188-18.308-19.59-46.281-23.039-76.75c0.004-0.074,0.004-0.224,0.006-0.299
			c-0.22-22.274-1.57-44.707-4.427-67.008c-1.335-30.967-2.545-59.264-7.92-77.506c-3.632-12.43-7.716-24.719-12.101-36.859
			l64.801-2.83C8135.258,3594.157,8143.992,3621.78,8151.527,3649.244z"/>
		<path id="_x31_80629841" fill="none" stroke="#010101" stroke-width="64" d="M5030.426,698.517l64.518,98.136
			c-24.793,36.304-44.502,75.473-57.537,115.967c-14.898,46.343-10.897,95.527-13.416,143.466
			c-4.487,86.303-6.229,175.823-4.942,263.292l-102.646-65.811l4.598-449.498c30.034-34.698,68.45-65.905,106.013-102.316
			C5028.15,700.648,5029.291,699.544,5030.426,698.517z"/>
		<path id="_x31_80629840" fill="none" stroke="#010101" stroke-width="64" d="M5094.941,796.65l99.368,150.939
			c-53.11,124.099-23.444,250.284-23.337,379.466c0.066,30.44,0.883,60.812,2.151,91.041l-154.078-98.719
			c-1.286-87.467,0.457-176.988,4.944-263.293c2.517-47.938-1.486-97.122,13.414-143.465
			C5050.441,872.126,5070.154,832.956,5094.941,796.65z"/>
		<path id="_x31_80629839" fill="none" stroke="#010101" stroke-width="64" d="M5194.313,947.59l218.859,332.572
			c-13.944,63.426-15.388,138.398-10.769,208.822c1.689,25.629,3.445,52.151,5.122,79.337l-234.4-150.225
			c-1.269-30.229-2.087-60.601-2.151-91.041C5170.865,1197.873,5141.199,1071.689,5194.313,947.59z"/>
		<path id="_x31_80629838" fill="none" stroke="#010101" stroke-width="64" d="M5413.173,1280.162
			c-13.944,63.426-15.388,138.398-10.769,208.822c1.689,25.629,3.445,52.151,5.122,79.337l142.51,91.34l5.747,3.689
			c4.59-15.03,9.549-29.76,15.243-43.295c8.702-20.561,19.104-38.582,32.308-51.012L5413.173,1280.162z"/>
		<path id="_x31_80629837" fill="none" stroke="#010101" stroke-width="64" d="M5604.514,1570.837l89.678,136.3
			c-21.49-0.12-42.771,1.843-62.887,7.08l-0.727-2.901l-74.795-47.966c4.588-15.03,9.547-29.761,15.243-43.295
			C5581.425,1602.85,5592.781,1586.767,5604.514,1570.837z"/>
		<path id="_x31_80629846" fill="none" stroke="#010101" stroke-width="64" d="M5058.277,2076.113l0.184,3.789
			c-1.803,0.132-3.607,0.19-5.41,0.247c-0.226,0.073-0.526,0.07-0.753,0.068c-11.198,0.049-22.47,0.317-33.821,1.032
			c11.879-1.304,20.171-3.604,21.033-7.159c7.765-31.931-53.635-30.923-73.926-30.364c-16.838,0.443-89.437,24.215-40.705,34.901
			c0.898,0.155,1.874,0.386,2.924,0.545c-4.504-0.41-8.484-0.82-11.709-1.369c-5.167-1.532-8.079-3.414-8.057-5.862l8.364-818.374
			l102.645,65.811c0.167,20.269,0.639,40.393,1.263,60.372c2.245,74.26-0.157,140.092,8.564,213.303
			C5046.93,1745.262,4972.91,1937.181,5058.277,2076.113z"/>
		<path id="_x31_80629845" fill="none" stroke="#010101" stroke-width="64" d="M5173.126,1418.096
			c7.44,169.043,30.454,335.852,19.099,506.284c-2.672,40.662,3.715,106.941-17.379,141.648l0.645,3.049
			c-5.044,1.142-10.09,2.136-15.055,2.908c-9.031,1.405-53.104,5.313-101.971,7.916l-0.188-3.788
			c-85.365-138.936-11.346-330.852-29.402-483.066c-8.72-73.207-6.318-139.039-8.564-213.302
			c-0.622-19.977-1.096-40.103-1.263-60.37L5173.126,1418.096z"/>
		<path id="_x31_80629844" fill="none" stroke="#010101" stroke-width="64" d="M5407.526,1568.321
			c7.819,131.999,11.05,278.807-26.962,403.044l0.377,0.449c-54.895,40.637-122.182,73.66-188.578,93.183
			c-0.227,0.07-0.378,0.144-0.605,0.143c-5.423,1.51-10.846,2.8-16.268,3.938l-0.645-3.048
			c21.096-34.708,14.707-100.987,17.379-141.648c11.357-170.433-11.658-337.24-19.099-506.284L5407.526,1568.321z"/>
		<path id="_x31_80629843" fill="none" stroke="#010101" stroke-width="64" d="M5550.036,1659.661l-142.51-91.34
			c7.819,131.999,11.05,278.807-26.962,403.044l0.377,0.449c2.042-1.543,4.012-3.008,5.98-4.624
			c18.272-16.169,35.516-34.278,52.48-54.543c17.343-20.703,33.197-42.834,48.975-65.038c9.849-15.133,19.547-29.968,29.906-43.98
			c0.148-6.831,0.515-13.51,1.032-19.961c13.516-28.462,23.015-75.742,36.47-120.317L5550.036,1659.661z"/>
		<path id="_x31_80629842" fill="none" stroke="#010101" stroke-width="64" d="M5630.578,1711.316l0.727,2.902
			c-26.973,7.032-51.678,20.024-71.965,41.818c-3.414,3.683-6.838,7.513-10.105,11.344c-0.152,0.072-0.228,0.146-0.305,0.292
			c-11.16,10.961-21.197,23.121-30.65,35.955c0.148-6.83,0.515-13.511,1.03-19.962c13.516-28.462,23.015-75.743,36.474-120.316
			L5630.578,1711.316z"/>
		<path id="_x31_80629796" fill="none" stroke="#010101" stroke-width="64" d="M8931.749,4151.392l0.749,0.452
			c-40.992,70.458-87.821,137.967-128.89,208.354c-43.592,74.516-75.148,155.084-117.091,230.359
			c-19.365,34.721-38.515,70.482-57.371,106.54c-52.372-43.832-113.508-75.785-178.744-96.418l2.871-8.736
			c133.631-143.347,227.735-322.611,331.336-489.913L8931.749,4151.392z"/>
		<path id="_x31_80629795" fill="none" stroke="#010101" stroke-width="64" d="M8611.555,4044.049l173.055,57.98
			c-103.601,167.302-197.705,346.566-331.336,489.915l-2.871,8.734c-70.327-22.309-145.375-31.377-219.047-27.81l-0.13-2.078
			c37.819-24.457,97.985-73.804,121.274-102.846c121.777-152.366,167.128-236.889,243.16-390.701
			C8600.265,4067.928,8605.792,4056.471,8611.555,4044.049z"/>
		<path id="_x31_80629794" fill="none" stroke="#010101" stroke-width="64" d="M8361.221,3960.129l250.334,83.92
			c-5.763,12.422-11.29,23.879-15.895,33.197c-76.032,153.811-121.383,238.335-243.164,390.703
			c-23.284,29.04-83.451,78.387-121.271,102.844l0.13,2.078c-34.505,1.622-68.662,5.99-101.872,13.118
			c-0.413,10.835,0.981,21.46,2.678,32.022l-10.085,1.543c-6.419-40.596-30.102-76.295-57.775-110.992
			c-5.418-6.805-11.211-13.32-17.305-19.685l14.838-11.222c45.949-33.074,85.252-70.285,126.953-107.107
			c76.66-67.688,140.402-261.552,161.44-356.766C8354.245,3995.703,8357.885,3977.845,8361.221,3960.129z"/>
		<path id="_x31_80629793" fill="none" stroke="#010101" stroke-width="64" d="M8144.51,3887.429l216.711,72.7
			c-3.336,17.716-6.976,35.574-10.993,53.652c-21.038,95.213-84.78,289.08-161.44,356.768
			c-41.701,36.819-81.004,74.029-126.951,107.105l-14.84,11.224c-18.289-19.169-38.998-36.658-58.815-53.54
			c-12.142-10.356-32.276-32.435-51.464-44.414c26.035,3.501,78.5-27.51,95.49-43.241c85.492-79.04,182.447-324.132,129.288-431.073
			C8155.604,3904.824,8149.914,3895.195,8144.51,3887.429z"/>
		<path id="_x31_80629729" fill="none" stroke="#010101" stroke-width="64" d="M8450.402,4600.679
			c-4.553-1.438-9.119-2.829-13.707-4.161c-38.902-11.301-79.107-18.62-119.604-22.071c-28.548-2.435-57.245-2.954-85.735-1.577
			c-34.505,1.624-68.662,5.992-101.872,13.117c-0.413,10.838,0.981,21.463,2.678,32.023c3.391,20.896,8.142,41.574,2.733,63.281
			c-13.082,52.149-47.637,95.568-88.488,129.869c-81.778,68.756-182.748,118.703-280.857,168.082
			c-66.615,33.478-73.291,3.053-164.607,115.449c-48.474,59.628-72.021,62.457-89.574,125.408
			c-5.926,21.251,0.961,38.686,2.785,58.678c1.508,14.27,0.446,29.775-9.516,48.914c-40.237,77.295-137.676,178.352-162.695,237.369
			c-16.858,39.656-55.26,106.766-83.833,168.121c-21.409,32.002-44.909,67.408-84.917,61.053
			c-16.578-6.733-38.176-9.229-51.581-11.861c-23.819-4.678-81.765-21.029-121.024-15.937c-30.2-3.022-52.681-15.519-57.92-49.112
			c0.631-57.223-3.473-117.273-47.395-133.416c-37.706-13.856-83.995-7.049-123.934-4.828
			c-44.695,2.482-76.913,78.035-94.713,116.645c-11.767,25.525-25.865,49.978-41.59,73.49
			c-30.647,45.834-67.485,88.062-105.371,127.52c-2.83,2.953-5.809,5.943-8.886,8.965c-23.048,22.664-51.743,47.362-67.976,72.995
			c-18.301,28.858-2.682,41.842,18.879,63.558c20.885,21.033,59.828,67.963,83.577,93.559
			c38.195,41.174,76.641,82.963,107.841,108.619c30.027,24.689,60.085,43.952,91.467,59.41c8.332,5.156,18.434,9.634,30.055,14.581
			c4.703,2.006,9.543,3.415,14.395,4.588l0.124,0.211c17.556,6.521,36.321,12.354,56.528,17.444
			c99.75,25.134,202.4,39.83,303.438,39.912c20.753,2.391,43.994-0.648,64.148-4.117c17.105-0.664,34.139-1.711,51.14-3.209
			c12.56-1.15,25.121-2.52,37.684-4.111c12.041-1.603,24.083-3.424,36.05-5.543c3.616-0.637,7.229-1.35,10.843-2.057
			c3.162-0.565,6.246-1.207,9.412-1.848c6.246-1.279,12.42-2.637,18.672-4.066c3.768-0.855,7.456-1.71,11.223-2.72
			c2.488-0.569,4.973-1.216,7.457-1.86c3.318-0.861,6.632-1.722,10.023-2.656c5.949-1.657,11.982-3.384,17.935-5.186
			c3.165-0.937,6.333-1.947,9.571-2.96c3.019-0.935,6.033-1.948,9.049-2.96c3.094-1.011,6.262-2.094,9.354-3.185
			c5.502-1.878,10.931-3.912,16.436-5.938c6.94-2.611,13.882-5.37,20.821-8.201c43.615-17.945,87.974-42.123,123.457-73.506
			c56.109-49.68,115.809-97.475,167.458-151.801c50.815-53.518,99.108-110.1,140.306-171.276
			c89.268-132.466,193.866-287.355,277.181-432.864c122.175-213.316,236.035-421.654,344.752-641.325
			c4.063-8.204,7.902-16.04,11.663-23.505c1.841-3.619,3.604-7.319,5.45-11.012c3.604-7.168,6.98-14.043,10.356-20.695
			c1.685-3.249,3.294-6.503,4.901-9.756c11.205-22.395,21.324-42.128,31.519-61.783c4.368-8.424,8.739-16.922,13.18-25.348
			C8576.774,4653.27,8515.639,4621.312,8450.402,4600.679z"/>
		<path id="_x31_80629792" fill="none" stroke="#010101" stroke-width="64" d="M8450.402,4600.679
			c-4.553-1.438-9.119-2.829-13.707-4.161c3.521,27.092,3.53,55.515,0.298,82.17c-0.005,0.02-0.007,0.035-0.009,0.056
			c-3.737,30.745-12.968,60.453-17.482,91.047c-10.945,74.259-53.842,130.897-107.311,182.06
			c-51.865,49.632-123.359,89.205-162.227,150.073c-36.938,57.838-45.16,131.166-73.081,192.964
			c-38.037,84.21-80.509,168.338-123.095,250.446c-77.371,149.179-169.234,291.124-275.399,421.946
			c-82.103,101.174-169.164,212.824-310.229,198.493c-67.272-6.833-181.668-24.499-224.203-88.667
			c-2,27.758-1.92,55.748-0.387,83.676c4.059,73.167,13.757,153.215,54.666,216.391c25.551-0.436,50.885-1.695,76.158-3.917
			c12.56-1.151,25.121-2.522,37.684-4.116c12.041-1.601,24.079-3.418,36.048-5.543c3.618-0.635,7.229-1.348,10.845-2.053
			c3.162-0.567,6.246-1.209,9.412-1.848c6.246-1.281,12.42-2.637,18.672-4.064c3.768-0.859,7.456-1.714,11.223-2.724
			c2.486-0.567,4.973-1.216,7.457-1.858c3.316-0.861,6.628-1.724,10.021-2.658c5.953-1.655,11.984-3.382,17.937-5.186
			c3.165-0.937,6.332-1.945,9.573-2.957c3.017-0.936,6.031-1.949,9.047-2.961c3.094-1.011,6.262-2.094,9.354-3.186
			c5.502-1.879,10.931-3.913,16.434-5.938c6.94-2.61,13.882-5.37,20.823-8.202c43.613-17.943,87.972-42.123,123.457-73.504
			c56.107-49.682,115.809-97.477,167.458-151.803c50.812-53.518,99.106-110.102,140.308-171.276
			c89.268-132.464,193.864-287.355,277.179-432.864c122.175-213.316,236.035-421.654,344.75-641.324
			c4.065-8.205,7.905-16.039,11.665-23.504c1.84-3.621,3.604-7.317,5.446-11.011c3.604-7.169,6.984-14.046,10.36-20.698
			c1.685-3.251,3.29-6.503,4.901-9.753c11.204-22.396,21.324-42.129,31.519-61.786c4.368-8.424,8.739-16.92,13.18-25.348
			C8576.774,4653.27,8515.639,4621.312,8450.402,4600.679z"/>
		<path id="_x31_80629784" fill="none" stroke="#010101" stroke-width="64" d="M7368.164,6165.772
			c141.062,14.331,228.123-97.323,310.226-198.495c106.165-130.82,198.028-272.764,275.399-421.944
			c42.586-82.108,85.056-166.239,123.095-250.448c27.921-61.796,36.143-135.127,73.081-192.964
			c38.865-60.868,110.361-100.442,162.227-150.073c53.469-51.162,96.365-107.801,107.311-182.058
			c4.515-30.596,13.745-60.304,17.484-91.049c0-0.019,0.002-0.037,0.007-0.054c3.232-26.655,3.223-55.078-0.298-82.17
			c-38.902-11.301-79.107-18.62-119.604-22.071c-19.627,47.183-9.692,90.743-14.439,139.304
			c-4.708,48.145-27.931,89.825-58.751,128.09c-61.143,75.906-148.396,126.089-216.186,195.551
			c-114.072,116.883-123.711,283.062-187.449,427.376c-79.842,180.751-200.59,554.993-469.988,504.92
			c-0.023-0.004-0.033-0.007-0.041-0.011c-56.125-10.455-141.998-44.52-195.21-30.164c-0.61,1.525-1.167,2.924-1.661,4.154
			c-17.246,42.979-26.126,87.892-29.402,133.438C7186.492,6141.271,7300.888,6158.938,7368.164,6165.772z"/>
		<path id="_x31_80629783" fill="none" stroke="#010101" stroke-width="64" d="M7370.236,5969.676
			c0.008,0.004,0.018,0.004,0.041,0.011c269.398,50.073,390.146-324.171,469.988-504.92
			c63.738-144.313,73.377-310.489,187.447-427.38c67.791-69.461,155.045-119.641,216.188-195.547
			c30.82-38.265,54.043-79.945,58.751-128.09c4.747-48.562-5.188-92.123,14.439-139.308c-28.548-2.431-57.245-2.952-85.735-1.573
			c-34.505,1.619-68.662,5.99-101.872,13.117c-0.413,10.838,0.981,21.461,2.678,32.023c3.391,20.895,8.142,41.574,2.733,63.279
			c-13.082,52.149-47.637,95.57-88.488,129.871c-81.778,68.756-182.748,118.703-280.857,168.082
			c-66.615,33.476-73.291,3.049-164.607,115.449c-48.474,59.628-72.021,62.457-89.574,125.406
			c-5.926,21.253,0.961,38.688,2.785,58.677c1.508,14.272,0.446,29.776-9.516,48.915
			c-40.235,77.295-137.674,178.351-162.695,237.371c-21.25,49.996-76.762,143.637-103.632,214.373
			c-13.476,35.22-50.587,128.329-63.284,160.076C7228.238,5925.156,7314.109,5959.221,7370.236,5969.676z"/>
		<path id="_x31_80629778" fill="none" stroke="#010101" stroke-width="64" d="M6798.467,5989.701
			c-42.732-1.221-84.414-2.516-126.561-9.91c-32.832-5.759-64.162-16.472-93.236-32.582c-16.712-9.256-46.941-22.486-57.892-41.508
			c-23.048,22.662-51.743,47.362-67.976,72.993c-18.301,28.86-2.682,41.842,18.879,63.56c20.885,21.031,59.826,67.963,83.577,93.557
			c38.195,41.174,76.641,82.963,107.841,108.623c34.941,28.729,69.926,50.127,106.99,66.711
			c32.172-36.975,66.432-83.488,91.016-125.711c23.157-39.782,42.627-83.559,55.947-127.507
			c7.668-25.32,14.007-51.457,18.817-78.005c-4.794,1.851-10.237,2.968-16.386,3.22
			C6879.268,5984.796,6838.766,5990.855,6798.467,5989.701z"/>
		<path id="_x31_80629777" fill="none" stroke="#010101" stroke-width="64" d="M6943.059,5800.6
			c-0.301-2.66-0.537-5.445-0.723-8.335c-28.874-1.675-91.54-0.364-99.841,0.034c-51.428,2.5-104.989,5.414-155.089-8.586
			c-15.633-4.369-34.274-13.637-52.367-14.498c-30.651,45.834-67.487,88.062-105.375,127.52c-2.83,2.953-5.805,5.943-8.882,8.965
			c10.95,19.023,41.181,32.252,57.894,41.51c29.068,16.11,60.398,26.82,93.23,32.582c42.148,7.395,83.83,8.688,126.561,9.91
			c40.299,1.149,80.799-4.907,121.021-6.558c6.15-0.252,11.59-1.368,16.386-3.22
			C6946.606,5920.681,6949.734,5859.402,6943.059,5800.6z"/>
		<path id="_x31_80629776" fill="none" stroke="#010101" stroke-width="64" d="M6842.495,5792.299
			c8.303-0.398,70.969-1.711,99.841-0.034c-4.196-64.818,17.826-184.499-47.064-208.354c-37.706-13.854-83.995-7.049-123.934-4.825
			c-44.695,2.479-76.913,78.034-94.713,116.642c-11.766,25.524-25.865,49.978-41.59,73.49c18.093,0.859,36.736,10.131,52.371,14.501
			C6737.506,5797.713,6791.067,5794.799,6842.495,5792.299z"/>
		<path id="_x31_80629781" fill="none" stroke="#010101" stroke-width="64" d="M7051.634,5964.197
			c-28.188-5.773-63.832-5.926-86.853-14.014l-3.451-1.311c-2.768,38.952-7.182,77.525-18.632,115.304
			c-13.322,43.946-32.792,87.72-55.954,127.505c-24.571,42.224-58.832,88.742-91.004,125.713l3.403,5.825
			c17.556,6.522,36.319,12.354,56.528,17.444c104.9,26.432,213,41.332,319.072,39.82l4.148-2.992
			c-50.902-64.553-57.637-154.462-55.789-234.109c1.174-50.959,1.588-102.623,12.465-151.315l-10.875-3.322
			C7099.601,5985.629,7076.689,5969.322,7051.634,5964.197z"/>
		<path id="_x31_80629779" fill="none" stroke="#010101" stroke-width="64" d="M7121.614,5782.375
			c-31.947-6.279-125.293-33.56-152.584-1.918c-13.075,15.184-1.069,45.217-0.989,63.117c0.112,25.472-3.472,52.174-4.965,77.717
			c-0.541,9.213-1.098,18.404-1.75,27.582l3.451,1.311c23.021,8.088,58.666,8.238,86.853,14.014
			c25.056,5.123,47.967,21.432,73.06,24.55l10.873,3.32c7.749-34.694,20.809-67.882,43.258-98.226
			c9.491-12.84,17.512-55.361,17.703-72.732C7196.832,5791.434,7145.823,5787.133,7121.614,5782.375z"/>
		<path id="_x31_80629775" fill="none" stroke="#010101" stroke-width="64" d="M4965.588,2043.727
			c20.289-0.561,81.69-1.566,73.926,30.364c-0.864,3.554-9.154,5.855-21.037,7.159c-0.229,0.073-0.453,0.071-0.68,0.068
			c-8.117,0.594-60.414,0.495-89.768-2.146c-0.076,0.074-0.148,0-0.223-0.001c-1.052-0.16-2.027-0.391-2.926-0.547
			C4876.149,2067.942,4948.748,2044.17,4965.588,2043.727z"/>
		<path id="_x31_80629774" fill="none" stroke="#010101" stroke-width="64" d="M8144.51,3887.429
			c5.404,7.767,11.095,17.394,16.985,29.177c53.159,106.943-43.796,352.035-129.288,431.075
			c-16.99,15.733-69.455,46.742-95.49,43.241c-6.124-3.77-12.105-6.495-17.731-7.584c-5.594-4.061-8.927-9.062-10.67-14.721
			c2.688-5.621,5.077-11.391,7.091-17.313c8.67-24.938,14.946-50.569,24.283-75.138c0.078-0.219,0.158-0.367,0.232-0.515
			c-0.002-0.077,0.074-0.222,0.079-0.296c19.214-49.348,40.914-99.414,61.349-150.381c2.312-5.771,4.622-11.469,6.861-17.238
			c26.297-65.839,49.739-132.154,63.162-202.412c0.074,0.002-0.002-0.072-0.002-0.072
			C8086.38,3862.996,8111.844,3841.396,8144.51,3887.429z"/>
		<path id="_x31_80629772" fill="none" stroke="#010101" stroke-width="64" d="M8122.076,4619.55
			c2.822,17.991,2.252,36.847-2.762,57.067c-13.008,52.228-47.635,95.57-88.413,129.875c-2.733,2.352-5.532,4.628-8.412,6.824
			c-2.8,2.203-5.678,4.331-8.481,6.533c-40.203,29.854-85.437,51.645-129.188,75.898c-4.155,2.344-8.389,4.674-12.622,7.316
			c-0.679,0.361-1.283,0.729-1.888,1.019c-7.178,3.947-14.282,7.813-21.312,11.835c-16.551,9.43-39.619,24.291-64.478,37.582
			c-16.919,8.456-33.972,15.506-50.847,19.887c-26.974,6.959-47.576,8.479-61.733,4.416c-9.579-4.023-16.06-9.426-19.976-15.848
			c0.004-0.072-0.072-0.147-0.072-0.22c-4.196-8.649-4.902-20.386-2.196-35.21c5.849-20.885,21.2-45.098,39.476-68.914
			c5.485-7.227,11.268-14.377,17.201-21.376c14.426-14.497,28.998-28.841,41.322-44.023c12.682-12.952,24.166-26.44,32.736-41.429
			c0.457-0.592,0.763-1.182,1.066-1.697c16.535-29.844,27.393-62.713,36.523-95.968c0.543-1.703,1.01-3.331,1.4-4.961
			c1.643-6.071,3.286-12.22,4.846-18.294c1.724-6.516,3.362-12.965,5.01-19.406c0.859-3.48,1.723-6.889,2.658-10.301
			c0.941-3.771,1.883-7.48,2.896-11.18c4.372-16.223,7.699-32.822,10.95-49.57c6.559-24.144,13.273-48.66,20.814-73.385
			c5.129-16.733,10.562-33.541,16.444-50.486c5.284-9.601,10.865-19.131,16.147-28.808c4.914-2.854,10.414-4.289,16.797-3.787
			c0.975,0.083,2.025,0.243,3.001,0.397c3.579,2.704,8.14,4.978,13.681,6.732c1.276,0.381,2.625,0.692,4.051,0.854
			c19.188,11.979,39.322,34.06,51.464,44.416c19.817,16.881,40.526,34.369,58.815,53.538c6.094,6.364,11.887,12.88,17.305,19.683
			C8091.975,4543.258,8115.657,4578.957,8122.076,4619.55z"/>
		<path id="_x31_80629773" fill="none" stroke="#010101" stroke-width="64" d="M7503.55,5279.721
			c2.182,29.119-30.951,58.443-47.516,83.39c-21.138,31.808-46.611,61.272-57.442,76.916
			c-37.68,54.677-112.195,199.671-198.189,122.129c-29.783-26.847-0.621-78.85,34.917-122.485
			c48.835-43.51,93.765-94.705,139.405-141.586c16.854-17.296,33.709-34.219,50.485-51.065
			c24.481-13.222,48.608-13.968,68.872,10.567C7500.094,5264.912,7503.021,5272.363,7503.55,5279.721z"/>
		<path id="_x31_80629771" fill="none" stroke="#010101" stroke-width="64" d="M7235.922,5703.906
			c-35.273,103.128-133.36,60.049-213.769,24.061c-42.427-18.994-71.683-52.607-57.954-87.756
			c37.479-96.013,188.025-54.173,250.137-29.3C7267.295,5632.113,7250.906,5660.106,7235.922,5703.906z"/>
		<path id="_x31_80629767" fill="none" stroke="#010101" stroke-width="64" d="M7775.826,4524.595
			c27.42-109.259,70.021-192.761,114.445-290.321c21.061-46.252,47.495-91.088,65.086-138.024
			c75.693-201.917,103.46-247.567,77.007-410.756c-15.3-94.389-93.675-308.538-168.407-432.128
			c-38.774-64.124-85.11-133.125-120.686-199.063c-33.23-61.577-63.693-127.118-100.793-186.513
			c-27.459-43.959-65.619-87.818-98.914-124.624c-52.436-57.982-98.175-115.822-154.122-171.375
			c-53.062-52.711-116.052-105.752-180.524-168.211c-65.424-63.359-114.17-102.487-193.775-155.172
			c-40.025-26.489-101.18-54.416-145.146-73.466c-50.105-21.704-102.796-39.491-154.068-57.918
			c-110.068-39.547-222.155-68.846-332.553-107.458c-27.975-9.776-175.444-55.013-220.895-68.654
			c-38.875-11.667-78.712-13.367-117.77-23.405c-37.336-9.595-65.438-17.477-98.041-12.808
			c30.354,16.303,96.562,29.999,127.268,45.692c34.338,17.533,60.389,32.187,97.393,53.018
			c42.646,23.992,108.692,40.789,141.624,76.766c57.831,63.178-11.244,70.732-97.566,189.048
			c-45.651,62.561-74.716,132.131-90.947,207.495c-26.753,124.212,51.165,227.134,75.372,344.507
			c13.477,65.368,12.156,121.57-14.078,182.925c-7.326,17.129-14.66,40.084-20.681,58.863c45.743,3.488,94.937,40.45,107.66,55.294
			c36.698,42.791,65.74,87.792,68.897,164.83c22.289,9.293,195.964,85.581,203.38,87.72c41.808,12.051,175.391,91.09,184.928,98.144
			c234.765,173.66,450.967,429.064,418.903,737.678c-7.609,73.288-28.526,158.998-63.965,224.436
			c-25.822,47.694-39.444,97.562-63.317,144.71c-46.711,92.271-199.39,259.434-155.035,330.36
			c12.874,20.581,82.065,22.035,117.972,36.329c95.418,37.979,292.273,87.606,384.693,38.727
			c51.053-27.037,78.387-57.606,121.234-99.138c66.405-64.359,147.621-125.955,202.984-194.912
			C7725.857,4646.752,7763.312,4574.475,7775.826,4524.595z"/>
		<path id="_x31_80629769" fill="none" stroke="#010101" stroke-width="64" d="M5222.295,2201.325
			c-57.801,9.413-186.201,23.076-186.201,23.076c80.832,70.358,172.416,154.837,248.363,228.224
			c30.623,29.582,187.926,142.769,187.956,89.379c0.042-64.962-27.401-198.847-35.589-254.603
			c-2.328-8.3-14.596-46.626-17.326-55.917C5385.619,2136.454,5307.633,2187.444,5222.295,2201.325z"/>
		<path id="_x31_80629770" fill="none" stroke="#010101" stroke-width="64" d="M5129.73,2436.836
			c31.83,21.717,71.197,43.024,59.242,84.677c-19.477,67.877-211.892,25.312-284.713,43.215
			c0.574,54.022,0.09,113.843,0.754,170.764c140.143-5.146,331.522,17.377,470.871,0.53c50.43-6.103,192.048-17.29,141.222-94.003
			c-32.442-48.964-153.962-101.353-200.212-137.913c-60.863-48.103-217.281-183.853-246.438-119.082
			C5062.148,2403.47,5122.529,2431.926,5129.73,2436.836z"/>
		<path id="_x31_80629759" fill="none" stroke="#010101" stroke-width="64" d="M6415.845,5993.852
			c-24.466-20.739-156.771-101.996-202.731-87.43c16.025-25.967,30.52-45.338,46.478-64.674
			c47.331-57.318,83.962-108.352,119.339-172.642c68.125-123.776,110.226-254.61,160.613-385.368
			c30.217-78.387,32.873-152.021,99.797-206.984c74.744-61.369,159.652-147.287,265.244-131.832
			c90.455,13.282,176.412,58.021,270.066,68.758c89.828,10.289,179.9,6.925,268.711-10.266
			c39.956-7.73,112.661-47.712,148.873-37.486c30.453,55.855-117.417,203.027-148.951,237.475
			c-32.444,35.436-61.928,56.363-106.309,110.408c-18.789,22.871-76.935,52.514-122.566,105.932
			c-56.402,66.025-111.992,114.066-166.576,124.709c-83.836,16.346-297.457,6.592-320.988,38.568
			c-23.164,31.478-51.01,68.998-67.484,104.736c-34.711,75.288-89.643,141.314-146.975,201.023
			C6480.514,5921.969,6435.943,5951.514,6415.845,5993.852z"/>
		<path id="_x31_80629760" fill="none" stroke="#010101" stroke-width="64" d="M6560.245,5218.965
			c-4.182,18.756-16.9,54.9-20.702,64.773c-50.388,130.758-92.486,261.59-160.613,385.367
			c-35.377,64.288-72.008,115.32-119.339,172.639c-15.958,19.34-30.452,38.709-46.478,64.674c0,0,48.871,4.094,98.877,24.453
			c45.629,18.59,92.178,53.084,103.854,62.979c20.099-42.336,64.669-71.883,96.54-105.079
			c57.332-59.703,112.264-125.731,146.975-201.021c16.473-35.737,44.32-73.262,67.484-104.734
			c23.531-31.98,237.15-22.221,320.986-38.568c54.582-10.646,110.172-58.685,166.578-124.71
			c18.951-22.181,27.234-29.549,46.789-44.749c0,0-35.295-172.584-93.447-169.121c-86.125,5.124-193.021,79.779-280.691,79.139
			c-35.934-0.262-86.389-2.628-133.248-12.333C6702.838,5262.121,6565.49,5195.494,6560.245,5218.965z"/>
		<path id="_x31_80629764" fill="none" stroke="#010101" stroke-width="64" d="M7124.721,5005.026
			c-25.36-5.251-62.471-17.829-102.611-30.38l-2.342,7.16c-35.053,120.944-141.271,221.459-179.369,273.084l-11.631,14.561
			c41.616,2.676,95.977-1.432,150.674-18.26c70.347-21.642,85.438-27.688,118.255-52.145c32.817-24.462,16.603-30.779,15.632-59.252
			c-0.963-28.459-6.974-31.72,15.752-70.391C7155.843,5023.865,7135.002,5007.152,7124.721,5005.026z"/>
		<path id="_x31_80629763" fill="none" stroke="#010101" stroke-width="64" d="M7019.766,4981.807l2.342-7.16
			c-38.981-12.184-80.815-24.336-117.523-29.725c-105.594-15.459-190.502,70.463-265.246,131.83
			c-47.025,38.625-53.301,69.432-72.605,119.99c-1.531,4.014,25.098,8.092,56.182,17.831
			c53.611,16.786,141.893,45.29,173.547,51.058c9.527,1.738,20.399,3.055,32.307,3.82l11.633-14.561
			C6878.496,5203.266,6984.715,5102.751,7019.766,4981.807z"/>
		<path id="_x31_80629761" fill="none" stroke="#010101" stroke-width="64" d="M7467.209,5080.49
			c-5.855,33.454,19.92,56.51,55.992,28.536c31.521-24.438,48.477-74.443,67.736-108.202c18.714-32.798-6.778-44.961-35.604-33.231
			c-36.573,14.888-64.969,60.515-81.724,93.934C7470.363,5068.025,7468.27,5074.426,7467.209,5080.49z"/>
		<path id="_x31_80629762" fill="none" stroke="#010101" stroke-width="64" d="M7266.895,5209.038
			c-29.02,24.046-42.755,95.608,11.531,93.818c26.98-0.888,128.898-89.553,136.709-116.579
			C7441.67,5094.367,7294.599,5186.095,7266.895,5209.038z"/>
		<path id="_x31_80629765" fill="none" stroke="#010101" stroke-width="64" d="M6563.721,3392.198
			c95.597,56.463,189.383,115.035,269.345,190.315c85.585,80.579,155.255,169.152,207.681,265.43
			c101.429,186.26,105.628,343.758,35.768,544.148c-36.77,105.466-128.391,303.082-183.275,287.897
			c-92.41-25.577-207.754-74.259-293.814-108.442c-96.244-38.229-187.092-74.069-259.813-126.695
			c-39.416-28.52-63.179-67.387-107.636-129.038c-26.654-36.962-23.146-78.612-30.701-119.681
			c-3.613-19.631,21.109-100.461,26.896-137.353c10.236-65.24,28.389-126.102,51.575-188.608
			c34.221-92.286,86.515-173.069,140.086-255.443c25.37-38.996,50.371-78.626,70.065-120.775
			c17.945-38.418,34.848-70.131,44.045-119.059C6543.85,3380.554,6553.787,3386.327,6563.721,3392.198z"/>
		<path id="_x31_80629766" fill="none" stroke="#010101" stroke-width="64" d="M6445.744,4536.753
			c-67.011-26.788-110.91-73.869-126.947-77.241c0,0-6.791,113.161-76.572,105.355c-44.57-4.984-88.068-36.44-117.956-66.285
			c-33.23-33.128-73.054-79.84-73.054-79.84c-40.48-7.136-205.183,28.918-240.773,32.484c-11.287,1.13,7.295,22.346,66.647,95.879
			c30.146,37.354,49.374,69.737,79.026,109.596c54.195,72.879,119.704,130.445,189.67,189.169
			c156.449,131.332,211.534,200.344,395.641,254.133c52.438,15.319,95.566-57.687,149.369-95.175
			c52.536-36.595,145.298-64.271,149.646-122.389c3.006-40.178,2.167-57.361,62.942-154.104
			c21.642-34.45-220.709-97.046-278.042-119.431C6571.701,4587.942,6507.482,4561.438,6445.744,4536.753z"/>
		<path id="_x31_80629768" fill="none" stroke="#010101" stroke-width="64" d="M5151.891,2474.154
			c-64.078-68.381-163.477-93.88-246.562-136.646c-0.48,65.626-1.274,137.489-2.145,209.548c33.312-3.237,59.354-1.797,89.899-1.901
			C5047.103,2544.976,5238.511,2566.594,5151.891,2474.154z"/>
		<path id="_x31_80629745" fill="none" stroke="#010101" stroke-width="64" d="M4881.82,4637.748
			c66.007-25.389,122.119-50.969,186.725-74.414c84.855-30.788,139.5-44.955,223.861-31.398
			c75.5,12.146,158.306,85.553,251.387,31.965c79.361-45.688,92.828-90.078,172.16-119.093
			c42.958-15.706,82.154-9.313,126.021-15.576c73.365-10.473,131.21-28.864,208.748-24.103
			c-91.234-134.804,54.545-388.517,82.289-515.244c29.865-136.342,54.215-130.073,20.372-297.131
			c-16.502-81.475-134.834-96.939-154.134-216.348c-9.951-61.586-1.076-120.836,24.365-177.964
			c12.559-28.208,49.971-110.913,90.279-125.287c-77.346-37.932-108.768-52.212-167.158-72.151
			c-62.439-21.311-136.395-71.583-198.635-94.697c-27.35-10.157-83.058-30.395-112.193-20.445
			c-27.681,9.457-22.567,19.341-52.731,30.205c-18.026,6.495-46.524,6.91-71.085,17.786
			c-60.941,26.968-59.882,90.625-140.303,80.542c-23.555-2.953-50.165-5.511-74.893-0.355c-41.886,8.738-62.014,26.33-87.064,39.73
			c-59.485,31.815-74.791-34.083-174.746-23.918c-46.136,4.689-94.416,38.27-137.395,54.519L4881.82,4637.748z"/>
		<path id="_x31_80629751" fill="none" stroke="#010101" stroke-width="64" d="M5677.486,4013.145
			c-10.266,7.679-21.379,14.254-32.826,19.662c-20.78,9.816-42.051,18.855-62.656,28.929c-13.357,6.53-34.325,18.942-42.399-1.623
			c-5.323-13.562,7.989-23.94,16.351-32.466c10.604-10.799,19.32-23.117,28.09-35.438c20.281-28.488,38.336-58.47,56.663-88.197
			c30.185-48.965,64.864-100.326,70.411-158.821c1.853-19.522,1.461-40.831,5.218-59.935c3.341-16.985,13.909-29.867,25.235-42.535
			c8.258-9.232,41.924-67.992,55.295-58.042c7.427,5.528,4.295,29.316,3.393,37.23c-1.58,14.055-1.067,28.018-1.187,42.239
			c-0.232,27.431-1.742,54.982-4.744,82.248C5783.855,3841.401,5759.461,3951.917,5677.486,4013.145z"/>
		<path id="_x31_80629749" fill="none" stroke="#010101" stroke-width="64" d="M5946.738,3001.006
			c30.048,10.261,63.068,22.608,92.295,38.633c-47.76,61.714-77.058,144.024-103.805,217.471
			c-9.931,27.291-21.089,54.13-33.097,80.595c-21.239,46.816-45.085,92.469-70.026,137.446
			c-10.354,18.671-13.608,38.166-23.91,56.622c-11.16,19.983-25.592,37.907-39.336,56.169
			c-16.088,21.374-31.454,56.729-56.044,68.875c-39.667,19.593-100.169,28.566-143.515,20.269
			c-63.215-12.107-108.207-53.381-150.979-97.555c-15.904-16.43-29.156-34.871-43.854-52.289
			c-13.315-15.791-11.638-26.695,6.019-39.171c19.068-13.493,33.969-27.967,50.086-45.011c24.918-26.342,47.064-54.94,66.68-85.346
			c33.355-51.697,59.322-107.493,88.119-161.69c18.625-35.061,34.91-79.519,44.783-118.021
			c5.122-19.979,62.099-195.832,5.76-192.146c29.138-9.95,84.844,10.286,112.193,20.446
			C5810.344,2929.423,5884.293,2979.697,5946.738,3001.006z"/>
		<path id="_x31_80629754" fill="none" stroke="#010101" stroke-width="64" d="M5691.487,3679.795
			c-51.202,12.179-96.476,18.453-148.268,4.859c-40.755-10.685-76.468-41.796-106.16-69.813
			c-33.536-31.661-44.653-4.408-60.784,29.674c-24.188,51.079-42.772,104.11-60.241,157.694
			c-11.45,35.082-23.368,68.613-40.169,101.047c-15.42,29.777-15.541,59.953-11.535,92.277c0.374,3.033,0.9,6.032,1.562,8.983
			c116.521-0.433,232.133-23.151,336.918-68.667l10.996-6.936c2.199-3.739,4.402-7.44,6.641-11.076
			c22.93-37.192,47.062-73.683,63.486-114.297c12.591-31.127,18.334-67.116,19.057-100.482
			C5703.166,3694.13,5703.31,3676.978,5691.487,3679.795z"/>
		<path id="_x31_80629753" fill="none" stroke="#010101" stroke-width="64" d="M5265.893,4004.519
			c4.643,20.735,15.908,39.47,27.932,56.817c8.557,12.35,17.735,27.054,31.83,33.721c16.051,7.566,33.013,2.33,49.923,1.605
			c9.705-0.422,19.581-1.753,29.147-3.384c26.935-4.609,48.303-9.942,72.867-21.921c28.514-13.906,54.154-33.385,75.647-56.52
			c6.955-7.492,13.765-15.354,20.513-23.49c15.535-18.742,27.593-41.202,40.051-62.434l-10.998,6.938
			C5498.023,3981.365,5382.414,4004.084,5265.893,4004.519z"/>
		<path id="_x31_80629747" fill="none" stroke="#010101" stroke-width="64" d="M5623.408,2885.435
			c56.344-3.688-0.639,172.166-5.758,192.145c-9.862,38.498-26.08,75.532-44.707,110.6c-19.707,37.076-37.626,75.073-58.193,111.713
			c-10.412,18.537-21.346,36.83-33.461,54.333c-16.855,24.354-126.716,180.262-161.904,117.804
			c-9.084-16.13,3.914-36.673,16.27-46.531c32.195-25.697,57.852-78.596,75.337-125.427c15.714-42.09,39.544-85.403,34.498-131.701
			c-4.333-39.773-7.096-77.485,6.241-116.021c7.324-21.149,15.072-47.479-16.305-47.788l-0.965-0.165
			c33.308-23.333,60.766-66.74,97.525-77.582C5560.363,2918.445,5611.021,2917.916,5623.408,2885.435z"/>
		<path id="_x31_80629750" fill="none" stroke="#010101" stroke-width="64" d="M4886.898,4140.375
			c22.422,0.199,51.329-1.627,74.321-7.561c75.151-19.407,149.446-107.725,234.454-61.119c23.139,12.682,45.82,39.6,72.791,43.345
			c13.081,1.814,23.986-0.187,36.066-5.286c22.519-9.516,5.967-13.479-3.469-25.966c-7.275-9.614-14.633-19.411-21.279-29.487
			c-13.646-20.661-23.059-43.14-28.412-67.25c-3.323-14.98,5.852-40.288-3.121-52.826c-5.898-8.229-18.982-6.217-27.967-7.372
			c-13.772-1.759-34.536-10.615-47.368-1.952c-14.276,9.642-15.939,34.992-29.749,47.397
			c-24.479,21.979-56.523,35.198-89.668,35.693c-27.451,0.401-67.724-15.761-92.137-27.505
			c-26.635-12.805-44.615-22.027-72.357-46.117L4886.898,4140.375z"/>
		<path id="_x31_80629748" fill="none" stroke="#010101" stroke-width="64" d="M5310.79,3777.811
			c-2.693,8.437-5.298,16.963-7.8,25.587c-9.016,31.06-30.758,116.909-71.924,115.95c-12.173-0.28-41.604-3.487-51.151-11.856
			c-11.4-9.989-4.889-29.564-5.899-42.527c-1.372-17.431-1.225-34.304-1.059-52.065c0.659-70.342,42.594-141.859,87.373-194.729
			c20.083-23.709,35.135-50.837,55.805-74.208c19.807-22.398,29.85-39.345,50.275-9.492c9.75,14.26,26.861,28.442,26.966,46.714
			c0.113,19.754-17.335,36.488-25.329,53.389C5345.6,3682.043,5326.534,3728.599,5310.79,3777.811z"/>
		<path id="_x31_80629757" fill="none" stroke="#010101" stroke-width="64" d="M5310.553,3433.922
			c-12.818,25.259,0.912,46.107,9.396,56.926c10.084,12.851,3.859,27.967-5.524,38.227c-11.451,12.532-20.169,26.247-30.728,39.669
			c-12.525,15.919-23.971,32.708-37.335,47.958c-15.491,17.658-30.317,41.897-52.503,19.026
			c-30.322-31.239-57.18-62.484-73.456-102.972c-13.204-32.873-4.815-69.616,7.196-101.271
			c11.648-30.716,22.228-61.605,29.151-93.739c10.821-50.253,20.007-100.917,26.589-151.877
			c14.577,52.775,45.902,107.826,61.199,148.479C5253.87,3359.141,5266.143,3426.721,5310.553,3433.922z"/>
		<path id="_x31_80629758" fill="none" stroke="#010101" stroke-width="64" d="M4892.089,3632.479
			c25.29,0.229,55.344-0.75,75.601-18.039c27.375-23.362,48.72-50.874,73.254-76.755c20.775-21.916,47.513-39.365,59.343-68.227
			c20.647-50.357,37.832-101.269,48.114-154.639c8.914-46.338,17.23-94.181,17.737-141.435c0.255-22.508-1.732-44.909-7.464-66.729
			c-3.092-11.745-11.733-51.871-22.623-58.268c-29.174-17.095-68.029-21.89-100.965-18.54
			c-42.089,4.275-106.084,54.802-137.395,54.519L4892.089,3632.479z"/>
		<path id="_x31_80629755" fill="none" stroke="#010101" stroke-width="64" d="M5183.604,3719.084
			c22.993-49.921,40.294-42.915,0.865-81.1c-18.954-18.355-36.162-38.317-50.282-60.557c-9.861-15.531-17.094-28.387-22.664-45.621
			c-2.141-6.625-8.002-30.616-19.133-26.811c-11.488,3.928-21.25,19.646-29.997,27.347c-27.984,24.639-50.228,54.543-77.108,80.279
			c-10.427,9.984-17.335,12.218-12.504,28.316c16.41,54.64,21.236,116.962,9.498,173.626c-4.496,21.701-16.475,41.949-28.001,60.658
			c-10.874,17.643-26.483,33.527-37.759,50.973c-10.263,15.891,7.628,22.503,20.667,29.809
			c11.472,6.433,23.296,12.393,35.319,17.738c53.719,23.844,101.91,34.45,149.54,1.275c33.485-23.33,40.561-68.99,41.612-106.515
			c0.611-21.442-3.494-85.312-2.74-63.938C5161.096,3809.587,5158.551,3773.49,5183.604,3719.084z"/>
		<path id="_x31_80629752" fill="none" stroke="#010101" stroke-width="64" d="M4881.82,4637.748
			c66.007-25.389,122.119-50.969,186.725-74.414c84.855-30.788,139.5-44.955,223.861-31.398
			c39.143,6.292,74.553,25.982,111.85,38.254c23.837,7.84,50.869,14.256,76.108,12.809c11.626-0.664,62.365-8.073,59.229-25.209
			c-1.776-9.67-14.196-11.615-21.395-15.738c-9.39-5.383-17.824-13.306-25.636-20.662c-16.135-15.158-30.152-32.34-44.369-49.206
			c-30.888-36.615-83.413-80.981-84.316-132.633c-0.902-51.626,38.643-93.78,67.707-133.02
			c23.315-31.487,45.227-64.664,73.926-91.763c9.732-9.179,38.451-26.494,28.049-41.635c-12.992-18.921-52.688,10.879-67.92,16.299
			c-37.828,13.428-81.183,17.961-121.087,18.896c-27.4,0.636-48.475,18.989-76.991,15.05c-26.995-3.725-48.834-29.723-71.986-42.405
			c-85.005-46.603-163.078,43.532-238.225,62.939c-22.997,5.936-48.141,7.798-70.561,7.593L4881.82,4637.748z"/>
		<path id="_x31_80629756" fill="none" stroke="#010101" stroke-width="64" d="M4889.008,3934.371
			c29.807-21.82,64.412-69.496,81.268-125.146c10.684-35.268,6.691-77.226,1.01-113.105c-2.125-13.414-2.773-40.426-12.82-50.429
			c-14.041-13.971-49.005-5.142-66.475-3.313L4889.008,3934.371z"/>
		<path id="_x31_80629746" fill="none" stroke="#010101" stroke-width="64" d="M5995.515,3377.004
			c-8.065-29.681-11.912-64.191,1.063-87.851c-60.223-7.973-109.561,109.979-122.691,136.368
			c-19.145,38.5-41.979,75.559-54.523,116.878c-12.416,40.881-8.682,81.574-9.06,123.636c-0.7,79.602-13.757,175.324-44.914,249.35
			c-17.251,40.99-43.062,76.342-78.706,103.604c-41.47,31.732-92.514,42.093-135.434,69.283
			c-45.873,29.061-76.314,76.077-107.869,118.701c-29.063,39.234-68.614,81.39-67.709,133.02
			c0.908,51.65,53.426,96.018,84.311,132.633c14.782,17.521,30.026,34.896,47.16,50.225c37.074,33.186,63.922,27.457,99.527-4.039
			c33.884-29.963,65.815-58.105,109.285-74.003c42.958-15.704,82.156-9.312,126.023-15.576
			c73.361-10.47,131.208-28.86,208.746-24.103c-91.234-134.802,54.545-388.517,82.291-515.244
			c29.863-136.34,54.215-130.07,20.368-297.134c-8.485-41.938-48.619-75.882-82.981-98.406
			c-32.736-21.456-48.556-47.393-63.585-84.11C6002.923,3400.718,5998.857,3389.272,5995.515,3377.004z"/>
		<path id="_x31_80629730" fill="none" stroke="#010101" stroke-width="64" d="M6505.271,5109.449
			c-40.369-15.01-76.316-32.732-113.673-53.49c-45.546-25.291-93.306-60.231-139.888-97.77
			c-98.783-79.614-132.317-103.277-214.188-180.111c-99.312-93.202-141.124-172.592-231.404-268.348
			c-118.904-126.1-168.768,52.966-287.641,81.168c-97.593,23.146-187.873-47.41-284.389-50.202
			c-74.285-2.147-160.592,31.428-203.391,50.14c-12.682,5.541-149.059,61.018-149.032,61.764
			c54.782,14.535,32.319,85.453,25.063,125.192c-9.985,54.692-10.133,109.553-14.256,165.067
			c-4.926,66.336-0.119,131.05-0.747,195.506c-1.29,134.994-2.771,229.848-7.484,364.949c-1.329,38.225,0.001,122.842-1.642,160.85
			c-2.613,60.352,14.027,117.573,5.706,176.996c-0.867,6.166-0.258,24.738-15.116,21.41l8.475-1209.969l-14.109,1564.541
			c38.533-0.353,70.521-12.613,109.54-12.72c25.142-0.066,50.168,2.228,75.206,4.35l5.563-5.468c2.88-3.084,5.88-6.025,8.985-8.842
			l0,0l0,0c44.932-40.756,111.824-55.219,163.061-87.384c37.529-23.565,72.682-45.373,109.669-64.979
			c25.261-13.385,51.39-25.76,79.724-36.963c127.191-50.272,273.432-60.58,405.346-24.01c33.478,9.285,137.467,27.564,108.87,82.736
			c-5.093,9.819-13.789,19.129-24.513,27.771c3.344-2.492,6.646-5.039,9.863-7.656c27.094-22.086,45.219-84.646,116.619-136.525
			c29.932-21.74,118.861-45.023,159.645-48.746c57.187-81.152,71.705-102.244,114.391-164.16
			c48.444-70.286,84.061-138.449,122.499-223.48c29.882-66.104,51.343-138.145,77.243-205.329
			c15.668-40.665,25.102-66.596,42.612-125.829c2.679-9.086,0.399-33.396,0.438-42.688
			C6552.361,5121.049,6516.367,5113.573,6505.271,5109.449z"/>
		<path id="_x31_80629731" fill="none" stroke="#010101" stroke-width="64" d="M4899.56,2993.44
			c29.759-1.387,52.151-11.139,69.892-37.423c18.822-27.891,38.472-55.117,41.288-88.718l-108.224-9.326L4899.56,2993.44"/>
		<path id="_x31_80629733" fill="none" stroke="#010101" stroke-width="64" d="M6069.252,5929.086
			c-20.166-31.375-58.486-27.529-89.854-21.506c-41.382,7.939-84.464,17.074-126.644,21.265
			c-54.002,5.372-122.846-7.111-166.168,30.969c46.806,1.872,93.256,8.888,138.064,21.312c19.249,5.338,38.76,9.807,57.81,15.92
			c17.515,5.626,42.396,16.543,52.374,32.981c7.118,11.72,0.186,22.997-1.162,35.065c0.261-2.368,6.207-7.642,7.732-9.811
			c6.121-8.691,11.654-17.836,17.902-26.506c16.732-23.188,33.828-45.475,54.959-64.916c5.373-4.934,10.508-9.084,16.588-13.224
			C6034.6,5948.072,6068.127,5927.347,6069.252,5929.086z"/>
		<path id="_x31_80629741" fill="none" stroke="#010101" stroke-width="64" d="M5100.158,4726.88
			c44.035-95.487-111.139-123.248-104.334-26.036C5000.436,4766.675,5065.955,4801.006,5100.158,4726.88z"/>
		<path id="_x31_80629742" fill="none" stroke="#010101" stroke-width="64" d="M5130.174,4574.268
			c-40.772,1.173-78.226,11.678-115.057,25.043l-88.188,35.76c31.791,13.905,35.854,37.633,35.587,72.092
			c-0.052,6.197-0.422,13.322-1.046,21.061l41.055,1.92c-3.58-8.71-5.955-18.586-6.701-29.297
			c-6.805-97.209,148.369-69.451,104.334,26.039c-3.381,7.313-7.062,13.559-10.959,18.837l13.578,8.018
			c10.598-15.335,21.732-30.298,33.096-44.943c18.115-23.344,46.139-48.518,47.471-79.892
			C5184.574,4600.07,5160.846,4573.389,5130.174,4574.268z"/>
		<path id="_x31_80629743" fill="none" stroke="#010101" stroke-width="64" d="M5002.529,4730.143l-41.059-1.922
			c-3.269,40.649-13.475,98.407-20.539,129.703c-9.169,40.683-20.499,85.528-22.585,127.249
			c-3.501,69.715-19.649,136.882-11.392,206.14c1.49,12.476,3.934,25.087,6.551,37.764l0.053,3.504
			c93.867-82.193,83.067-217.826,120.076-342.058c14.678-49.288,39.875-94.458,69.143-136.785l-13.578-8.018
			C5060.037,4785.208,5018.77,4769.684,5002.529,4730.143z"/>
		<path id="_x31_80629740" fill="none" stroke="#010101" stroke-width="64" d="M4926.934,4635.068l-45.271,17.528
			c54.786,14.538,32.323,85.452,25.065,125.193c-9.985,54.69-10.131,109.553-14.258,165.067
			c-4.926,66.336-0.119,131.05-0.745,195.504c-0.382,40.139-0.785,76.726-1.278,111.881c8.342-5.567,16.029-11.465,23.111-17.667
			l-0.055-3.504c-2.615-12.679-5.059-25.285-6.549-37.763c-8.26-69.26,7.889-136.425,11.392-206.14
			c2.084-41.724,13.414-86.562,22.583-127.251c8.409-37.257,21.273-112.018,21.587-150.762
			C4962.787,4672.703,4958.725,4648.971,4926.934,4635.068z"/>
		<path id="_x31_80629739" fill="none" stroke="#010101" stroke-width="64" d="M4884.243,5503.312
			c-1.329,38.227,0.001,122.844-1.644,160.85c-1.513,34.943,6.002,102.227,6.186,102.229c0.051,0.004,10.17,0.241,15.229,0.412
			l0.083-0.361c17.611-45.259,1.606-108.606,0.521-156.597c-1.309-57.882,0.32-115.754,1.316-173.64
			c0.67-38.96,15.617-76.386,18.787-114.601c2.545-30.63-2.611-53.291-8.953-84.035l-2.205-4.99
			c-7.082,6.203-14.77,12.095-23.111,17.664C4889.27,5333.324,4887.555,5408.387,4884.243,5503.312z"/>
		<path id="_x31_80629738" fill="none" stroke="#010101" stroke-width="64" d="M4913.559,5232.58l2.203,4.992
			c6.346,30.742,11.502,53.403,8.955,84.033c-3.168,38.215-18.115,75.643-18.787,114.599c-0.994,57.886-2.625,115.76-1.316,173.642
			c1.086,47.99,17.093,111.338-0.521,156.597l-0.081,0.359c31.535,1.075,63.647,3.586,93.875,13.052
			c19.707,6.172,98.104,24.438,88.586-20.944l0.104-0.073c-8.389-16.773-15.195-35.391-20.285-55.895
			c-14.156-57.07-25.064-140.967-16.77-196.897c10.052-67.81-5.383-120.839-21.637-187.574
			c-16.271-66.828-18.881-138.015,3.474-203.871c7.481-22.037,18.755-42.223,30.881-62.053
			c15.512-25.357,13.331-62.662,7.937-90.503c-4.456-22.953-15.861-56.75-36.547-70.66c-0.059-0.041-0.123-0.083-0.186-0.122
			c0,0-46.145,231.86-65.433,267.95C4948.715,5195.303,4913.559,5232.58,4913.559,5232.58z"/>
		<path id="_x31_80629732" fill="none" stroke="#010101" stroke-width="64" d="M4879.684,5766.219
			c6.816,98.893-14.645,197.578-7.569,296.82c5.048,70.943,50.661,105.015,123.45,88.305
			c70.305-16.137,115.311-99.649,119.201-163.777c4.523-74.505-19.205-163.606-92.476-198.291
			C4979.033,5768.797,4926.812,5767.043,4879.684,5766.219"/>
		<path id="_x31_80629744" fill="none" stroke="#010101" stroke-width="64" d="M4899.56,2993.44
			c29.759-1.387,52.151-11.139,69.892-37.423c18.822-27.891,38.472-55.117,41.288-88.718l-108.224-9.326L4899.56,2993.44"/>
		<path id="_x31_80629736" fill="none" stroke="#010101" stroke-width="64" d="M5591.236,5680.174
			c6.699-21.926,12.016-44.266,16.574-66.708c4.566-22.513,8.334-45.173,11.78-67.874c0.581-3.816,1.151-7.625,1.716-11.445
			c-2.008,0.168-4.014,0.332-6.018,0.503c-1.995,0.167-4.107-0.082-6.115-0.066c-2.148,0.021-4.296,0.085-6.441,0.185
			c-8.885,0.42-17.725,1.508-26.479,3.041c-18.586,3.256-36.785,8.5-54.607,14.6c-18.066,6.184-35.79,13.308-53.363,20.739
			c-16.034,6.783-31.934,13.87-47.983,20.618c-17.276,7.266-34.929,13.616-52.327,20.586c-20.674,8.282-41.164,16.997-61.468,26.126
			c-20.064,9.023-39.94,18.445-59.629,28.248c-19.557,9.731-38.925,19.836-58.101,30.267
			c-19.148,10.414-38.105,21.154-56.893,32.186c-9.401,5.527-18.766,11.121-28.085,16.782c-4.011,2.442-8.153,4.767-12.046,7.386
			c-1.054,0.709-2.108,1.419-3.16,2.128c-0.492,0.331-0.98,0.656-1.465,0.983c-0.531,0.364-0.612,0.26-0.287,0.894
			c10.137,19.671,22.631,37.985,38.342,53.778c15.735,15.817,34.066,28.639,54.115,38.605c20.013,9.955,41.82,16.516,63.842,20.491
			c22.046,3.983,44.432,5.286,66.825,4.941c20.792-0.315,41.581-1.63,62.245-3.962c20.975-2.366,41.869-5.784,62.377-10.776
			c18.036-4.394,35.916-9.925,52.514-18.259c13.521-6.783,26.062-15.402,36.889-25.895c10.084-9.773,18.55-21.028,25.652-33.06
			c7.425-12.571,13.408-25.921,18.765-39.456c5.874-14.867,11.021-30.002,16.212-45.109
			C5586.955,5693.869,5589.159,5687.041,5591.236,5680.174C5591.268,5680.078,5590.236,5683.479,5591.236,5680.174z"/>
		<path id="_x31_80629735" fill="none" stroke="#010101" stroke-width="64" d="M5092.061,5755.145
			c97.042-59.76,197.161-111.605,307.756-153.145c54.684-20.54,144.033-69.526,215.465-67.348l6.025-0.506
			c-0.514,3.477-1.032,6.949-1.557,10.422c9.275-61.277,16.34-123.241,30.492-183.459c19.848-84.525,18.588-165.02,4.66-272.8
			c-9.664-74.802-26.299-160.437-121.914-160.615c-58.004-0.108-147.677-30.08-207.999-30.432
			c-68.318-0.409-100.796,12.653-158.302,50.545c-129.396,85.247-177.121,213.302-138.799,370.657
			c16.252,66.738,31.685,119.77,21.637,187.577c-8.295,55.933,2.613,139.827,16.77,196.899c5.193,20.93,12.184,39.89,20.816,56.933
			c-0.178-0.347-0.354-0.69-0.533-1.038L5092.061,5755.145z"/>
		<path id="_x31_80629734" fill="none" stroke="#010101" stroke-width="64" d="M5758.778,4472.943
			c12.203,9.487,37.067,25.061,64.794,55.738c36.734,40.646,77.827,97.404,119.904,147.555
			c49.356,58.835,98.495,109.382,120.099,126.207c82.007,63.842,135.942,116.296,188.138,155.742
			c41.75,31.555,90.545,66.096,134.291,94.014c36.254,23.143,78.898,42.238,119.268,57.248c11.096,4.124,47.09,11.598,47.045,27.771
			c-0.037,9.292,1.808,26.043-0.361,35.263c-11.775,50.003-27.02,92.589-42.691,133.251c-25.896,67.188-47.4,139.208-77.239,205.331
			c-44.202,97.969-64.565,144.003-113.017,214.283c-42.684,61.916-76.193,103.253-123.873,173.356l-4.691,4.234
			c-39.605-0.715-79.937,7.084-120.144,25.654c-0.973,0.447-1.051,0.496-1.051,0.496c-20.167-31.382-58.485-27.533-89.85-21.51
			c-41.383,7.938-84.466,17.072-126.644,21.263c-57.049,5.666-102.393,5.454-156.617,23.672c-27.832,9.35-64.689,14.54-93.541,6.838
			c-30.461-8.128-63.688-42.932-86.605-63.521c-11.4-10.241-22.365-27.674-32.031-38.192l-9.555-7.696
			c69.141-28.365,86.936-81.594,110.375-149.766c37.334-108.598,39.083-226.863,65.457-339.072
			c19.848-84.525,18.592-165.02,4.66-272.801c-9.662-74.801-26.301-160.438-121.914-160.615
			c-29.002-0.051-65.922-7.572-103.132-15.122c0,0-2.215,0.091-2.822-0.328c-28.841-19.7,18.57-51.318,28.228-67.104
			c16.786-27.445,27.713-65.387,31.458-96.986c4.933-41.617,2.964-75.438,20.374-115.47c13.661-31.399,38.252-47.587,65.502-66.184
			c30.432-20.774,56.533-46.565,85.82-68.759c32.031-24.264,33.607-30.307,74.129-32.213
			C5732.547,4465.53,5758.061,4472.389,5758.778,4472.943z"/>
		<path id="_x31_80629737" fill="none" stroke="#010101" stroke-width="64" d="M5056.363,6204.921
			c44.451-48.989,118.154-63.066,173.549-97.847c37.527-23.562,72.682-45.368,109.666-64.973
			c25.264-13.389,51.393-25.764,79.727-36.965c51.953-20.533,107.082-34.404,163.111-41.127c6.434-0.773,6.237-9.707-0.798-13.813
			c-24.003-14.012-47.9-38.437-65.624-54.358c-11.4-10.242-22.363-27.676-32.027-38.191l-5.171-4.168c0,0-1.394-1.703-3.433-2.604
			c-2.07-0.918-3.803,0.205-4.191,0.357c-11.878,4.637-24.193,8.189-36.584,11.207c-20.508,4.992-41.402,8.408-62.379,10.775
			c-20.662,2.335-41.451,3.646-62.244,3.965c-22.396,0.342-44.776-0.96-66.826-4.944c-22.02-3.977-43.829-10.535-63.842-20.491
			c-20.047-9.967-38.381-22.787-54.111-38.604c-15.024-15.104-27.103-32.504-36.995-51.192c-0.454-0.858-1.278-0.716-1.148,0.381
			c3.579,29.921-35.275,28.72-64.02,23.546c-1.151-0.207-3.198,0.337-3.095,1.239c0.098,0.903,2.359,2.17,2.359,2.17
			c73.27,34.683,97,123.786,92.479,198.291c-3.893,64.126-48.9,147.638-119.205,163.774c0,0-6.297,1.399-9.439,6.428
			c-5.611,8.966-7.661,25.412,7.936,37.178c16.652,12.557,38.025,16.585,50.914,15.357
			C5050.926,6209.742,5056.363,6204.921,5056.363,6204.921z"/>
		<path id="_x31_80629850" fill="none" stroke="#010101" stroke-width="64" d="M5339.579,6042.1
			c25.263-13.389,51.394-25.764,79.726-36.965c127.189-50.273,273.432-60.582,405.344-24.01
			c33.476,9.285,137.465,27.564,108.87,82.733c-18.903,36.478-87.586,65.981-124.905,79.861
			c-91.262,33.965-185.529,47.405-282.158,53.42c-77.558,4.815-154.606,15.737-232.193,20.199
			c-79.363,4.565-158.698-8.002-237.9-12.425c44.453-48.984,118.156-63.062,173.549-97.844
			C5267.441,6083.512,5302.586,6061.702,5339.579,6042.1z"/>
		<path id="_x31_80629851" fill="none" stroke="#010101" stroke-width="64" d="M5501.987,4902.155
			c15.329-5.046,27.056-17.124,32.054-38.195c14.598-61.605-45.909-191.986-124.704-176.146c-20.17,4.055-49.2,32.184-58.729,49.939
			C5307.309,4818.662,5437.01,4923.523,5501.987,4902.155z"/>
		<path id="_x31_80629852" fill="none" stroke="#010101" stroke-width="64" d="M5410.993,3300.073
			c15.712-42.09,39.544-85.404,34.5-131.7c-4.337-39.773-7.094-77.484,6.239-116.022c7.322-21.148,15.07-47.478-16.307-47.787
			c-14.916-0.155-30.697,12.188-45.826,14.32c-16.837,2.37-32.781-1.176-49.121-4.719c-57.949-12.583-140.695,30.136-159.763,87.021
			c-23.547,70.26,39.837,169.406,63.827,233.166c11.482,30.524,19.859,78.129,52.811,95.726
			C5341.396,3453.604,5386.149,3366.621,5410.993,3300.073z"/>
		<path id="_x31_80629853" fill="none" stroke="#010101" stroke-width="64" d="M7367.799,5069.135
			c-64.5-59.776-289.881,31.758-195.178,92.188C7228.945,5197.254,7446.734,5142.277,7367.799,5069.135z"/>
		<path id="_x31_80629854" fill="none" stroke="#010101" stroke-width="64" d="M5848.977,4479.413
			c39.316,42.679,151.987,150.151,35.957,176.733c-75.749,17.334-289.51-80.707-241.16-180.881
			C5680.797,4398.558,5809.621,4436.703,5848.977,4479.413z"/>
		<path id="_x31_80629855" fill="none" stroke="#010101" stroke-width="64" d="M6520.184,3426.431
			c-33.234,99.892-104.153,191.632-157.543,276.861c-68.98,110.111-107.902,228.173-135.074,354.636
			c-18.085,84.15-42.719,162.658-1.104,243.788c32.709,63.763,117.909,127.839,88.631,207.442
			c-52.076,141.572-213.133-16.883-256.113-85.156c-88.092-139.969,3.074-317.604,46.419-454.577
			c39.63-125.2,115.935-368.8-19.824-462.659c-28.78-19.904-52.127-30.707-65.591-76.766c78.289,78.84,252.444,6.83,305.525-82.572
			c20.523-34.588,12.431-76.836,23.707-113.695c14.045-45.869,77.602-113.004,133.971-96.826
			c60.281,17.297,51.537,112.663,54.935,160.642C6541.287,3342.005,6533.988,3384.925,6520.184,3426.431z"/>
		<path id="_x31_80629856" fill="none" stroke="#010101" stroke-width="64" d="M6037.725,3155.867
			c22.236-43.808,50.514-77.267,80.049-86.428c158.814-49.27,301.826,219.266,174.827,323.642
			c-59.18,48.628-206.2,105.919-270.268,40.852C5957.944,3368.552,6002.27,3225.752,6037.725,3155.867z"/>
		<path id="_x31_80629857" fill="none" stroke="#010101" stroke-width="64" d="M6069.65,2679.011
			c57.031,73.347,92.201,190.818,26.172,269.513c-108.471,129.248-205.281,15.009-322.762-32.823
			c-99.149-40.391-184.75-31.287-287.957-27.389c-96.967,3.583-197.031-20.409-295.299-21.218c-1.129-0.012-2.18-0.021-3.31,0.044
			c-98.801-0.666-184.453,5.91-284.019-7.976c0.39-37.787,0.359-79.439,0.284-123.241c0,0,333.743,16.962,473.147,0.102
			c50.406-6.081,192.006-17.278,141.171-93.982c-32.409-48.995-153.901-101.39-200.19-137.963
			c-7.751-6.084-16.992-13.592-27.352-21.925l16.496-11.062c52.322,41.673,163.066,116.097,166.378,70.913
			c3.661-48.818-15.286-113.952-8.383-98.446c8.813,19.829,22.649,41.113,53.302,56.16c39.476,19.361,99.546,30.669,135.834,38.121
			c93.881,19.332,187.508,26.413,277.821,55.957C5983.408,2610.897,6035.233,2634.674,6069.65,2679.011z"/>
		<path id="_x31_80629858" fill="none" stroke="#010101" stroke-width="64" d="M7150.764,2221.683
			c5.145,3.832,10.291,7.815,15.355,11.72c22.857,20.622,43.365,43.229,67.578,63.493c27.641,23.115,57.406,44.021,84.59,67.802
			c0.15,0.076,0.227,0.225,0.374,0.3c2.308,2.172,4.608,4.422,6.92,6.594c7.588,7.345,15.179,14.688,22.764,22.181
			c54.046,57.132,104.894,110.525,153.181,171.765c7.345,9.348,14.229,19.803,20.727,30.849c0.15,0.226,0.294,0.449,0.443,0.747
			c12.32,22.383,23.506,45.351,36.049,67.812c0.292,0.522,0.59,1.118,0.886,1.641c2.505,4.774,5.087,9.401,7.67,13.88
			c20.448,35.67,42.274,68.979,64.843,103.333c26.412,40.256,60.244,75.229,86.438,115.26
			c14.499,22.109,38.548,65.903,49.348,89.907c49.668,110.398,115.487,242.922,180.244,354.275
			c49.254,84.56,88.398,173.113,116.688,265.205c3.56,11.688,6.673,23.521,9.257,35.425c3.332,19.109,5.916,38.362,7.598,57.755
			c0.074,0.224,0.067,0.521,0.068,0.813c0.484,11.216,1.12,22.585,2.133,33.8c0.071,0.301,0.068,0.521,0.069,0.743
			c0.901,21.538,0.76,43.142-0.365,64.735c0.003,0.227-0.003,0.448-0.007,0.67c-0.006,0.669-0.087,1.336-0.172,2.001
			c-11.684,158.11-75.153,295.999-81.089,310.574c-30.441,74.557-58.009,139.644-81.921,200.157
			c-4.832,9.835-9.141,19.889-11.495,29.449c-6.406,16.646-12.511,32.926-18.235,49.057c-15.499,16.713-22.363,48.945-27.815,67.684
			c-7.247,25.174-11.952,51.709-17.104,78.094c-22.102,81.912-41.451,159.398-78.025,223.515
			c-34.867,44.603-90.818,78.474-112.178,131.809c-0.075,0.146-0.077,0.221-0.152,0.369c-6.877,10.851-12.25,22.313-15.379,34.534
			c-7.355,28.439-17.094,54.932-28.849,79.92c-2.11,1.092-3.98-0.039-5.593-3.91c13.289-57.862,57.328-109.884-40.493-81.438
			c-30.521,8.859-166.161,83.736-151.567,37.834c6.756-21.172,94.523-87.943,167.836-158.93
			c64.199-62.078,79.762-70.329,96.777-95.643c17.4-25.978,68.529-88.471,82.153-134.75
			c18.993-64.641,40.196-139.659,67.964-202.369c55.225-124.75,113.138-248.364,162.531-375.617
			c45.61-117.707,64.285-253.996,19.76-374.6c-39.043-105.922-72.555-223.6-128.201-322.4
			c-45.164-80.143-95.166-157.805-142.52-237.149c-40.926-68.449-68.252-144.646-114.242-210.246
			c-47.914-68.287-108.977-129.642-161.889-194.339c-74.51-91.172-167.837-164.473-255.02-243.137
			c-91.799-82.791-163.662-153.449-276.848-209.706c-103.021-51.188-211.352-82.456-320.295-112.611
			c-124.08-34.377-243.08-87.716-367.761-121.951c-125.653-34.541-271.42-79.358-402.584-59.677
			c-85.412,12.743-146.966,65.421-214.331,113.592c-79.783,56.97-153.754,104.71-245.475,139.074
			c-17.875,6.818-73.723,23.391-159.077,37.247c-57.798,9.428-186.229,25.571-186.229,25.571
			c80.807,70.368,172.438,154.864,248.332,228.232c4.69,4.497,12.214,10.949,21.604,18.458l-16.495,11.061
			c-71.17-57.361-193.637-153.718-219.087-97.151c-8.308,18.485,52.118,46.944,59.28,51.833
			c31.861,21.744,71.166,43.035,59.244,84.653c-12.309,42.876-122.604,41.511-202.675,39.675
			c-46.204-1.083-83.282,2.146-83.282,2.146c0.061-5.417,0.111-10.838,0.168-16.256c33.323-3.262,59.379-1.767,89.886-1.865
			c54.027-0.182,245.413,21.438,158.819-71.03c-64.07-68.36-163.443-93.904-246.562-136.673
			c1.094-143.576,2.484-242.975,2.686-262.721c-0.012,1.186,3.061,2.18,8.086,3.042c9.211,2.683,25.73,4.019,46.088,4.423
			c16.678,0.82,35.23,0.838,49.972-0.365c0.074,0,0.225,0.001,0.377,0.004c13.076-0.401,26.535-0.95,39.764-1.647
			c0.227,0.002,0.527,0.005,0.753-0.068c37.423-0.329,73.851,0.963,108.875-7.112c9.865-2.286,19.885-4.943,29.83-7.898
			c0.228,0.004,0.379-0.07,0.605-0.142c17.705-4.742,35.5-10.743,51.938-16.312c56.704-19.163,102.057-45.557,142.621-81.496
			c1.968-1.395,3.936-2.937,5.906-4.477c42.721-33.62,69.672-75.323,95.549-115.106c9.836-13.795,19.67-27.665,29.801-41.235
			c-0.076,0.519-0.084,1.04-0.09,1.559c24.74-23.609,53.93-56.831,84.703-75.856c0,0,53.662-23.273,115.5-22.716
			c3.906,0.108,7.961,0.217,12.091,0.478c7.583,0.367,15.245,1.25,22.895,2.581c85.654,14.879,211.378,42.591,277.51,56.326
			c2.401,0.542,4.804,1.084,7.202,1.551c5.996,1.242,12.146,2.558,18.294,3.875c36.269,9.681,69.16,18.887,95.761,26.328
			c11.159,3.145,22.096,6.212,32.738,9.203c0.07,0.075,0.225,0.152,0.299,0.153c21.41,7.617,42.824,15.309,65.377,21.229
			c67.522,17.832,131.23,40.754,197.506,62.434c61.934,20.307,131.263,44.762,195.65,67.094c9.961,3.507,19.771,6.859,29.35,10.138
			c4.875,1.677,9.66,3.354,14.381,4.957c1.498,0.533,2.994,0.991,4.418,1.523c32.26,11.874,64.67,24.489,97.513,38.299
			c27.377,12.272,54.142,25.655,82.534,41.057c74.653,40.466,150.088,77.447,220.779,123c0.072,0.076,0.148,0.077,0.148,0.077
			C7112.354,2193.199,7131.753,2207.256,7150.764,2221.683z"/>
		<path id="_x31_80629849" fill="none" stroke="#010101" stroke-width="64" d="M5722.084,2549.507
			c60.209,12.147,109.646,22.536,169.674,32.23c26.27,4.241,134.529,49.7,150.288,64.158
			c45.877,42.098,74.645,109.487,85.155,169.537c10.534,60.256,0.854,101.583-40.914,148.465
			c-31.254,35.071-83.134,41.346-117.486,44.017c36.645,32.047,100.229,30.642,126.437,74.052
			c30.106-13.707,45.185-18.524,69.612-16.128c-2.883-1.496,33.846-93.926,36.357-105.176
			c29.311-131.765-47.918-245.558-75.811-368.78c-22.529-99.514,30.064-208.978,75.531-295.463
			c16.61-31.584,33.23-57.102,59.341-82.683c37.976-37.187,105.28-79.001,52.069-133.894
			c-33.924-34.996-91.625-54.958-135.356-75.875c-120.28-57.575-267.755-181.511-491.878-22.436
			c-39.325,27.909-79.787,56.877-120.197,83.084c-57.248,37.145-126.354,82.438-193.177,98.468
			c45.376,43.379,63.067,101.621,73.11,161.006c8.089,47.857,9.736,136.528,52.945,167.282
			c43.6,30.996,109.754,35.653,161.133,45.917C5675.893,2540.68,5704.867,2546.03,5722.084,2549.507z"/>
		<path id="_x31_80629847" fill="none" stroke="#010101" stroke-width="64" d="M4873.191,5862.568
			c14.858,3.33,14.249-15.242,15.116-21.408c8.323-59.423-8.319-116.645-5.708-176.998c1.645-38.006,0.314-122.623,1.644-160.85
			c4.714-135.1,6.194-229.957,7.484-364.947c0.622-64.458-4.181-129.172,0.747-195.506c4.123-55.515,4.271-110.379,14.256-165.069
			c7.256-39.741,29.719-110.655-25.063-125.193L4873.191,5862.568z"/>
		<path id="_x31_80629848" fill="none" stroke="#010101" stroke-width="64" d="M4897.691,3084.37
			c-0.105,20.098,82.943-40.233,90.926-43.643c33.713-14.392,94.852-14.369,128.604,1.197
			c35.945,16.585,40.676,29.967,85.131,14.903c30.834-10.445,58.613-27.83,89.242-38.965c34.178-12.422,52.929-7.02,88.186,0.245
			c63.416,13.061,97.514-75.156,152.205-91.288c28.379-8.375,79.036-8.903,91.426-41.383c-30.085-0.268-74.644-0.544-107.769,0.679
			c-44.599,1.655-74.095-0.264-115.265-5.156c-64.643-7.694-92.605-13.218-165.254-16.35c-39.33-1.696-117.824,1.417-160.438,1.036
			c-16.973-0.154-48.92,1.792-63.946,1.656c0,0-9.046,35.706-38.411,82.249c-23.867,37.836-49.861,45.139-71.809,42.042
			C4898.855,3216.059,4897.832,3070.651,4897.691,3084.37z"/>
	</g>
</g>
</svg>
