<svg width="10384" height="7664" xmlns="http://www.w3.org/2000/svg">
<g transform="scale(1.0)">
<g id="182622911" order="1" parent_id="" graphic_group_label_id="28" graphic_group_label="Atlas - Adult Mouse" sub_image_id="100960301" transform=" scale(1.0, 1.0)"><path id="182622914" parent_id="182622911" order="0" structure_id="8" d="M5296.029,2510.073
			c0,0,81.967-1452.521,82.104-1455.021c1.25-22.14,141.074-118.176,161.188-136.915c58.459-54.453,117.355-111.053,188.647-148.594
			c198.804-104.673,482.964-73.703,697.749-52.331c169.646,16.883,354.648,66.812,517.152,102.149
			c120.61,26.233,191.78,43.771,298.537,69.575c254.403,61.494,488.953,200.076,733.405,292.299
			c171.708,64.773,335.916,175.434,492.218,269.924c237.488,143.583,447.559,348.594,618.371,567.207
			c140.531,179.861,248.211,376.797,335.301,587.247c223.834,540.928,392.254,1178.054,240.613,1759.048
			c-48.508,185.863-132.813,375.422-236.354,537.373c-104.15,162.924-193.055,334.064-291.855,500.787
			c-45.943,77.566-93.631,153.762-141.074,229.973c-181.115,291.033-350.088,603.859-566.505,871.308
			c-82.501,101.963-177.162,195.617-287.731,266.944c-114.945,74.146-236.149,92.924-364.146,132.109
			c-128.249,39.238-262.586,47.334-395.52,57.627c-236.02,18.291-474.984,47.156-692.74-67.992
			c-186.465-98.586-389.074-204.436-609.573-186.254c-71.138,5.857-147.647,23.662-205.149,68.018
			c-46.146,35.605-78.492,105.48-130.937,131.392c-84.912,41.879-203.997,5.853-293.983-1.875
			c-130.433-11.215-265.028-27.412-395.429-39.974L5296.029,2510.073z" style="stroke:black;fill:#bfdae3"/><path id="182622915" parent_id="182622911" order="1" structure_id="688" d="M8142.732,5563.898
			c83.451-138.308,189.605-260.664,265.136-403.031c64.587-121.721,91.382-252.156,138.632-379.439
			c39.959-107.709,21.996-215.252,20.746-327.621c-1.016-92.088-5.375-187.778-21.996-278.455
			c-7.289-39.842-21.064-78.162-28.914-118.037c-40.252-205.016-116.674-396.627-212.447-581.865
			c-194.5-376.212-475.675-697.141-848.938-906.953c-199.979-112.413-413.434-201.493-623.479-293.021
			c-77.438-33.742-159.67-56.697-238.243-85.797c-186.91-69.218-394.78-131.261-547.534,37.943
			c-205.613,227.752-454.668,270.375-749.666,282.453c0,0,81.966-1452.52,82.104-1455.02
			c1.25-22.141,141.074-118.177,161.188-136.915c58.459-54.453,117.356-111.054,188.647-148.595
			c198.804-104.673,482.965-73.703,697.75-52.331c169.646,16.884,354.648,66.812,517.151,102.149
			c120.61,26.234,191.781,43.771,298.537,69.575c254.403,61.495,488.954,200.077,733.406,292.299
			c171.708,64.774,335.916,175.434,492.218,269.924c237.488,143.583,447.559,348.595,618.371,567.207
			c140.531,179.861,248.211,376.798,335.301,587.247c223.834,540.928,392.254,1178.055,240.613,1759.049
			c-48.508,185.862-132.813,375.422-236.354,537.373c-104.15,162.924-193.055,334.063-291.855,500.787
			c-45.943,77.565-93.631,153.762-141.074,229.973c-181.115,291.033-350.088,603.859-566.505,871.307
			c-82.501,101.963-177.162,195.617-287.731,266.945c-114.945,74.146-236.149,92.924-364.146,132.109
			c-128.249,39.237-262.586,47.334-395.52,57.627c-39.457,3.061-87.438,6.961-128.979,10.104
			c-9.343-2.326-18.287-6.084-26.601-11.771c-35.941-24.631-53.84-86.434-64.399-126.024
			c-25.869-96.865-2.646-202.683,19.278-298.369c22.256-97.229,83.24-135.008,151.31-213.604
			c65.302-75.402,157.097-157.324,225.354-231.48c67.996-73.869,105.725-120.088,192.104-183.408
			c49.214-36.076,92.827-66.832,143.151-77.953c45.473-10.053,83.81,4.834,112.52-26.953
			C8078.438,5716.559,8094.323,5644.139,8142.732,5563.898z" style="stroke:black;fill:#b0ffb8"/><path id="182623003" parent_id="182622911" order="2" structure_id="320" d="M6910.161,812.073l-0.444,1.973
			l-32.229,119.728c-80.235-13.603-162.501-25.154-249.752-41.317c-166.752-30.972-366.649-82.379-547.808-77.867l-6.467-118.498
			c121.934-2.442,245.578,10.528,352.207,21.125C6584.119,732.984,6755.848,777.558,6910.161,812.073z" style="stroke:black;fill:#1f9d5a"/><path id="182623002" parent_id="182622911" order="3" structure_id="943" d="M6877.486,933.773
			l-99.1,367.871c-168.465-49.302-361.38-97.566-520.75-144.273c-52.58-15.372-106.662-26.249-160.626-28.877l-17.085-313.904
			c181.158-4.512,381.057,46.896,547.809,77.867C6714.984,908.619,6797.251,920.171,6877.486,933.773z" style="stroke:black;fill:#1f9d5a"/><path id="182623001" parent_id="182622911" order="4" structure_id="648" d="M6778.389,1301.645
			l-133.235,494.815c-70.28-35.102-138.159-71.483-189.749-99.953c-112.07-61.686-235.007-137.389-334.846-135.53l-23.547-432.482
			c53.965,2.628,108.047,13.506,160.627,28.877C6417.008,1204.077,6609.923,1252.343,6778.389,1301.645z" style="stroke:black;fill:#1f9d5a"/><path id="182623000" parent_id="182622911" order="5" structure_id="844" d="M6645.152,1796.46l-84.039,311.942
			c-149.809-56.821-322.574-115.439-417.723-127.386l-22.834-420.04c99.839-1.857,222.773,73.844,334.846,135.53
			C6506.993,1724.977,6574.871,1761.358,6645.152,1796.46z" style="stroke:black;fill:#1f9d5a"/><path id="182622999" parent_id="182622911" order="6" structure_id="882" d="M6561.113,2108.403l-16.535,61.422
			l-0.699,2.042c-131.449-45.797-269.691-78.907-389.619-24.984l-2.145-4.782l-8.725-161.083
			C6238.539,1992.962,6411.307,2051.581,6561.113,2108.403z" style="stroke:black;fill:#1f9d5a"/><path id="182623008" parent_id="182622911" order="7" structure_id="656" d="M6073.46,696.091l6.467,118.498
			c-43.765,1.027-86.467,5.36-127.251,14.048c-115.773,24.604-246.813,76.232-325.527,165.531
			c-24.641,27.997-44.192,58.778-59.942,91.521l-67.366-136.92c18.773-14.008,33.818-25.396,39.443-30.657
			c58.514-54.391,117.403-111.009,188.707-148.61C5828.117,716.795,5949.861,698.524,6073.46,696.091z" style="stroke:black;fill:#1f9d5a"/><path id="182623007" parent_id="182622911" order="8" structure_id="962" d="M6079.927,814.589
			l17.085,313.904c-98.387-4.72-196.15,17.9-283.087,90.585c-59.589,49.834-87.463,101.209-103.022,158.605l-143.696-291.994
			c15.75-32.744,35.304-63.524,59.942-91.521c78.717-89.299,209.754-140.929,325.527-165.531
			C5993.46,819.949,6036.162,815.616,6079.927,814.589z" style="stroke:black;fill:#1f9d5a"/><path id="182623006" parent_id="182622911" order="9" structure_id="767" d="M6097.012,1128.493l23.547,432.483
			c-39.416,0.688-75.271,13.484-105.387,44.087c-44.771,45.426-78.6,109.368-103.813,179.957L5710.9,1377.684
			c15.562-57.396,43.436-108.771,103.023-158.605C5900.861,1146.395,5998.625,1123.773,6097.012,1128.493z" style="stroke:black;fill:#1f9d5a"/><path id="182623005" parent_id="182622911" order="10" structure_id="1021" d="M6137.602,1980.357
			c-38.643-4.18-67.104,28.098-92.412,76.787l-133.83-272.123c25.213-70.59,59.041-134.531,103.813-179.957
			c30.115-30.603,65.97-43.397,105.386-44.088l22.834,420.04C6141.404,1980.821,6139.505,1980.547,6137.602,1980.357z" style="stroke:black;fill:#1f9d5a"/><path id="182623004" parent_id="182622911" order="11" structure_id="1085" d="M6152.116,2142.1l2.146,4.783
			c-16.996,7.615-33.595,17.002-49.801,28.325l-3.854-5.462l-55.418-112.602c25.31-48.688,53.771-80.966,92.412-76.787
			c1.903,0.189,3.804,0.464,5.791,0.66L6152.116,2142.1z" style="stroke:black;fill:#1f9d5a"/><path id="182622984" parent_id="182622911" order="12" structure_id="981" d="M8989.297,2081.676
			c-70.234-108.192-173.117-217.646-272.184-303.24l68.621-81.543l2.221-2.455c108.678,99.707,208.35,209.978,297.408,323.896
			c140.531,179.926,248.219,376.813,335.328,587.276c70.039,169.205,134.633,347.843,185.725,531.213l-123.928,20.063
			c-17.939-52.378-49.094-84.522-72.982-134.739c-26.205-22.458-43.865-57.67-49.002-93.508l0.004-0.083
			c0,0,0.004-0.083-0.078-0.088c-0.125-0.756-0.17-1.425-0.295-2.181c-0.021,0.415-0.045,0.83-0.064,1.162
			c-2.879-6.49-3.396-1.773-8.553-6.311c-30.561-27.865-44.334-196.893-58.318-241.139c-30.008-95.268-66.289-188.475-103.6-281.156
			C9143.176,2283.252,9056.473,2185.118,8989.297,2081.676z" style="stroke:black;fill:#188064"/><path id="182622983" parent_id="182622911" order="13" structure_id="201" d="M8717.113,1778.436
			c99.066,85.595,201.949,195.048,272.184,303.24c67.176,103.442,153.879,201.576,200.303,317.167
			c37.311,92.683,73.592,185.89,103.6,281.156c13.984,44.246,27.758,213.272,58.318,241.139c5.156,4.537,5.674-0.18,8.553,6.311
			c-0.324,2.812-0.105,3.323,0.434,1.189c5.137,35.838,22.797,71.05,49.002,93.509c23.889,50.216,55.043,82.36,72.982,134.738
			l-341.117,55.26c-59.113-176.914-148.227-478.731-336.988-727.48c-102.287-134.729-227.734-264.768-359.419-383.089
			L8717.113,1778.436z" style="stroke:black;fill:#188064"/><path id="182622982" parent_id="182622911" order="14" structure_id="1047" d="M9141.371,3212.145
			l-121.992,19.757c-37.23-97.091-79.414-194.876-122.496-284.138c-95.037-196.84-144.938-306.883-316.529-513.205
			c-51.764-62.278-139.629-156.064-222.569-229.428l87.18-103.555c131.685,118.321,257.132,248.361,359.419,383.089
			C8993.146,2733.413,9082.258,3035.23,9141.371,3212.145z" style="stroke:black;fill:#188064"/><path id="182622981" parent_id="182622911" order="15" structure_id="1070" d="M9019.379,3231.9
			l-320.533,51.926c-73.699-181.067-173.268-350.689-303.162-503.708c-86.724-102.214-181.983-196.252-282.662-284.27
			l244.763-290.719c82.94,73.363,170.806,167.149,222.569,229.428c171.592,206.322,221.492,316.365,316.529,513.204
			C8939.965,3037.023,8982.148,3134.811,9019.379,3231.9z" style="stroke:black;fill:#188064"/><path id="182622980" parent_id="182622911" order="16" structure_id="1038" d="M8698.846,3283.826
			l-367.414,59.52c-57.004-91.879-117.545-181.543-178.425-269.645c-82.043-118.768-175.431-215.029-275.817-297.868
			l235.832-279.983c100.68,88.017,195.938,182.054,282.662,284.269C8525.578,2933.137,8625.146,3102.759,8698.846,3283.826z" style="stroke:black;fill:#188064"/><path id="182622979" parent_id="182622911" order="17" structure_id="1062" d="M8331.432,3343.346
			l-92.082,14.867c-113.122-193.531-251.032-369.73-414.447-520.313l52.287-62.067c100.389,82.839,193.774,179.102,275.817,297.868
			C8213.887,3161.803,8274.428,3251.467,8331.432,3343.346z" style="stroke:black;fill:#188064"/><path id="182622998" parent_id="182622911" order="18" structure_id="1030" d="M7241.406,888.958
			c186.929,45.182,363.264,132.056,540.601,211.494l-0.578,1.383l-46.842,108.663c-175.94-77.612-390.944-143.108-567.056-205.911
			c-97.358-34.715-192.242-54.305-290.045-70.813l32.229-119.728l0.444-1.973c11.013,2.536,21.951,4.9,32.725,7.258
			C7063.448,845.615,7134.639,863.119,7241.406,888.958z" style="stroke:black;fill:#188064"/><path id="182622997" parent_id="182622911" order="19" structure_id="113" d="M7601.45,1519.171
			c-170.317-93.194-345.959-176.118-530.534-218.752c-79.383-18.382-169.98-32.735-184.994-16.017
			c-12.628,14.271-12.563,29.344-3.6,44.585l-7.354,1.999c-30.915-9.82-63.245-19.637-96.58-29.344l99.099-367.87
			c97.805,16.509,192.688,36.099,290.045,70.813c176.111,62.803,391.114,128.299,567.057,205.911L7601.45,1519.171z" style="stroke:black;fill:#188064"/><path id="182622996" parent_id="182622911" order="20" structure_id="1094" d="M7536.986,1668.631
			c-110.523-58.103-219.174-119.929-331.859-173.657c-30.486-14.458-279.667-92.456-322.805-165.985
			c-8.963-15.241-9.028-30.313,3.6-44.585c15.014-16.72,105.611-2.366,184.994,16.017
			c184.575,42.634,360.217,125.557,530.534,218.752L7536.986,1668.631z" style="stroke:black;fill:#188064"/><path id="182622995" parent_id="182622911" order="21" structure_id="1128" d="M7205.127,1494.974
			c112.688,53.729,221.336,115.556,331.859,173.657l-162.75,377.598c-160.818-52.031-326.752-90.117-492.515-146.009
			c-66.995-22.512-153.497-62.275-236.569-103.76l133.234-494.816c33.335,9.707,65.665,19.523,96.58,29.344l7.355-1.999
			C6925.46,1402.518,7174.641,1480.516,7205.127,1494.974z" style="stroke:black;fill:#188064"/><path id="182622994" parent_id="182622911" order="22" structure_id="478" d="M7374.236,2046.229
			l-143.303,332.409c-177.787-86.207-364.157-148.673-549.59-223.323c-36.632-14.722-77.52-30.765-120.23-46.912l84.039-311.942
			c83.072,41.483,169.574,81.248,236.569,103.76C7047.484,1956.111,7213.418,1994.197,7374.236,2046.229z" style="stroke:black;fill:#188064"/><path id="182622993" parent_id="182622911" order="23" structure_id="510" d="M7230.936,2378.638
			l-24.228,56.076l-2.744,5.839c-123.034-57.726-248.321-110.917-372.476-165.042c-77.433-33.758-159.721-56.717-238.246-85.874
			c-16.312-5.999-32.789-12.007-49.362-17.77l0.698-2.042l16.536-61.423c42.712,16.147,83.599,32.19,120.229,46.912
			C6866.777,2229.965,7053.146,2292.431,7230.936,2378.638z" style="stroke:black;fill:#188064"/><path id="182622992" parent_id="182622911" order="24" structure_id="450" d="M8709.336,1771.669
			c-288.061-246.111-605.759-391.913-947.225-548.795c-9.09-4.176-18.266-8.274-27.524-12.376l46.842-108.663l0.578-1.383
			c63.983,28.669,128.022,56.343,192.827,80.813c171.674,64.716,335.843,175.38,492.184,269.868
			c113.67,68.771,221.135,151.592,320.938,243.305l-2.221,2.455l-68.621,81.543
			C8714.496,1776.123,8711.959,1773.898,8709.336,1771.669z" style="stroke:black;fill:#188064"/><path id="182622991" parent_id="182622911" order="25" structure_id="854" d="M8444.964,2101.575
			c-212.584-190.986-441.456-351.505-615.335-452.395c-75.211-43.622-151.137-87.866-228.18-130.01l133.138-308.673
			c9.26,4.102,18.437,8.2,27.524,12.376c341.465,156.883,659.163,302.684,947.225,548.795c2.623,2.229,5.16,4.454,7.777,6.766
			L8444.964,2101.575z" style="stroke:black;fill:#188064"/><path id="182622990" parent_id="182622911" order="26" structure_id="577" d="M7829.629,1649.181
			c173.879,100.89,402.751,261.408,615.335,452.395l-87.18,103.555c-27.514-24.363-54.406-46.444-79.283-64.415
			c-244.446-176.633-420.995-308.392-688.778-444.716c-17.642-8.988-35.272-18.143-52.734-27.369l64.463-149.46
			C7678.493,1561.314,7754.418,1605.561,7829.629,1649.181z" style="stroke:black;fill:#188064"/><path id="182622988" parent_id="182622911" order="27" structure_id="625" d="M7589.723,1696
			c267.783,136.324,444.332,268.083,688.778,444.716c24.877,17.972,51.77,40.052,79.283,64.415l-244.763,290.719
			c-95.754-83.825-196.39-162.266-299.224-237.166c-139.056-101.338-287-163.134-439.563-212.453l162.752-377.599
			C7554.449,1677.858,7572.081,1687.012,7589.723,1696z" style="stroke:black;fill:#188064"/><path id="182622986" parent_id="182622911" order="28" structure_id="945" d="M7877.189,2775.833
			c-166.978-137.629-353.457-237.979-539.975-342.079c-35.027-19.542-70.458-37.859-106.281-55.116l143.303-332.409
			c152.563,49.319,300.508,111.115,439.563,212.453c102.834,74.901,203.471,153.342,299.224,237.168L7877.189,2775.833z" style="stroke:black;fill:#188064"/><path id="182622985" parent_id="182622911" order="29" structure_id="1026" d="M7824.902,2837.9
			c-111.345-102.604-234.599-193.31-369.916-269.377c-81.821-45.993-165.863-88.032-251.022-127.971l2.744-5.839l24.228-56.076
			c35.822,17.257,71.252,35.573,106.28,55.116c186.519,104.1,372.997,204.45,539.974,342.079L7824.902,2837.9z" style="stroke:black;fill:#188064"/><path id="182622978" parent_id="182622911" order="30" structure_id="873" d="M9606.416,3136.822
			c112.131,402.851,159.119,828.583,54.924,1227.801c-0.006,0.083-0.098,0.244-0.102,0.327l-111.723-14.796
			c13.84-72.646,15.219-144.248,24.922-223.288c26.602-219.113,24.977-416.009-29.311-629.78
			c-26.967-106.334-29.4-218.111-57.572-323.764c-1.508-5.746-3.199-11.17-5.066-16.438L9606.416,3136.822z" style="stroke:black;fill:#188064"/><path id="182622977" parent_id="182622911" order="31" structure_id="806" d="M9545.127,3497.086
			c54.287,213.771,55.912,410.667,29.311,629.78c-9.703,79.04-11.082,150.642-24.922,223.288l-260.047-34.406
			c20.297-91.18,31.15-175.814,34.867-238.709c17.324-289.317-52.586-525.699-155.383-787.164
			c-8.594-21.797-17.689-47.951-27.582-77.73l341.117-55.259c1.867,5.267,3.559,10.689,5.066,16.437
			C9515.727,3278.975,9518.16,3390.751,9545.127,3497.086z" style="stroke:black;fill:#188064"/><path id="182622976" parent_id="182622911" order="32" structure_id="1035" d="M9168.953,3289.875
			c102.797,261.464,172.707,497.845,155.383,787.163c-3.717,62.896-14.57,147.53-34.867,238.71l-101.227-13.371
			c5.797-57.032,7.422-116.798,7.313-193.063c-0.258-203.396-31.215-402.78-82.93-595.76
			c-23.318-86.897-55.719-183.965-93.246-281.654l121.992-19.757C9151.264,3241.924,9160.359,3268.079,9168.953,3289.875z" style="stroke:black;fill:#188064"/><path id="182622975" parent_id="182622911" order="33" structure_id="1090" d="M9195.555,4109.314
			c0.109,76.265-1.516,136.029-7.313,193.063l-258.98-34.18c-21.742-191.537-74.643-388.58-105.334-552.817
			c-27.889-149.011-68.932-293.603-125.082-431.554l320.533-51.926c37.527,97.688,69.928,194.757,93.246,281.654
			C9164.34,3706.535,9195.297,3905.919,9195.555,4109.314z" style="stroke:black;fill:#188064"/><path id="182622974" parent_id="182622911" order="34" structure_id="862" d="M8929.262,4268.198
			l-241.949-32.052c11.641-29.23-0.699-121.836-8.438-146.998c-34.381-112.164-82.699-217.788-127.125-326.023
			c-59.796-145.65-136.349-285.002-220.318-419.779l367.414-59.521c56.15,137.952,97.193,282.543,125.082,431.554
			C8854.619,3879.617,8907.52,4076.66,8929.262,4268.198z" style="stroke:black;fill:#188064"/><path id="182622973" parent_id="182622911" order="35" structure_id="893" d="M8687.313,4236.146
			c-2.822,7.25-7.178,10.666-13.445,8.147c-46.818-18.626-82.619-51.032-114.576-76.313l-14.904,2.988
			c-7.412-38.298-20.479-75.249-28.053-113.639c-40.21-205.067-116.647-396.612-212.418-581.922
			c-20.569-39.705-42.007-78.795-64.565-117.197l92.082-14.867c83.97,134.775,160.522,274.129,220.317,419.779
			c44.426,108.236,92.746,213.859,127.125,326.023C8686.613,4114.311,8698.953,4206.916,8687.313,4236.146z" style="stroke:black;fill:#188064"/><path id="182622967" parent_id="182622911" order="36" structure_id="36" d="M9520.518,4707.661l11.943,2.256
			c-32.492,66.849-68.688,131.406-107.496,192.153c-23.1,36.076-45.387,72.53-67.277,109.342l-4.027-2.394L9168,4926.613
			c64.152-92.367,135.496-182.332,197.283-266.674c0.9-1.199,1.807-2.479,2.789-3.672L9520.518,4707.661z" style="stroke:black;fill:#009c75"/><path id="182622966" parent_id="182622911" order="37" structure_id="180" d="M9368.072,4656.268
			c-0.982,1.193-1.889,2.475-2.789,3.672c-61.787,84.344-133.131,174.308-197.283,266.676l-147.73-65.613
			c13.859-22.861,29.188-46.639,47.441-72.082l12.936-9.427c2.57,3.144,6.6,4.035,12.428,2.533
			c47.305-12.149,77.418-103.19,105.637-182.769L9368.072,4656.268z" style="stroke:black;fill:#009c75"/><path id="182622965" parent_id="182622911" order="38" structure_id="148" d="M9129.268,4575.857l69.443,23.398
			c-28.219,79.577-58.332,170.619-105.637,182.77c-5.828,1.502-9.857,0.608-12.428-2.533
			C9067.58,4763.188,9096.555,4686.4,9129.268,4575.857z" style="stroke:black;fill:#009c75"/><path id="182622964" parent_id="182622911" order="39" structure_id="187" d="M8935.645,4510.65l193.623,65.207
			c-32.713,110.543-61.689,187.33-48.621,203.635l-12.936,9.426c-18.254,25.443-33.582,49.222-47.441,72.082l-171.365-76.104
			c29.145-48.807,51.484-97.995,63.139-139.295C8924.211,4602.581,8931.758,4557.387,8935.645,4510.65z" style="stroke:black;fill:#009c75"/><path id="182622963" parent_id="182622911" order="40" structure_id="638" d="M8708.934,4434.254l226.711,76.396
			c-3.887,46.734-11.434,91.931-23.602,134.951c-11.654,41.299-33.994,90.488-63.139,139.295l-130.107-57.793
			c4.52-56.438,12.313-111.942,4.504-168.328c-5.75-41.201-13.184-82.08-23.148-122.354L8708.934,4434.254z" style="stroke:black;fill:#009c75"/><path id="182622972" parent_id="182622911" order="41" structure_id="897" d="M9549.516,4350.154l111.723,14.795
			c-30.279,116.092-74.621,233.554-128.777,344.967l-11.943-2.256l-152.445-51.394c51.781-69.34,114.314-112.349,148.705-195.073
			C9532.574,4423.208,9542.633,4386.563,9549.516,4350.154z" style="stroke:black;fill:#11ad83"/><path id="182622971" parent_id="182622911" order="42" structure_id="1106" d="M9289.469,4315.748
			l260.047,34.406c-6.883,36.408-16.941,73.054-32.738,111.039c-34.391,82.727-96.924,125.733-148.705,195.073l-169.361-57.011
			c6.727-18.936,13.338-37.209,20.094-53.646C9249.623,4470.096,9272.832,4390.734,9289.469,4315.748z" style="stroke:black;fill:#11ad83"/><path id="182622970" parent_id="182622911" order="43" structure_id="1010" d="M9188.242,4302.377
			l101.227,13.371c-16.637,74.986-39.846,154.348-70.664,229.863c-6.756,16.437-13.365,34.711-20.094,53.646l-69.443-23.399
			c10.787-36.271,21.947-76.185,32.096-118.817C9174.752,4401.268,9183.145,4352.872,9188.242,4302.377z" style="stroke:black;fill:#11ad83"/><path id="182622969" parent_id="182622911" order="44" structure_id="1058" d="M8929.262,4268.198
			l258.979,34.179c-5.098,50.496-13.49,98.891-26.877,154.662c-10.148,42.635-21.309,82.547-32.098,118.818l-193.623-65.206
			C8942.277,4432.938,8938.656,4351.063,8929.262,4268.198z" style="stroke:black;fill:#11ad83"/><path id="182622968" parent_id="182622911" order="45" structure_id="857" d="M8559.289,4167.982
			c31.957,25.279,67.758,57.687,114.576,76.313c6.268,2.52,10.623-0.898,13.447-8.148l241.949,32.053
			c9.395,82.865,13.016,164.737,6.383,242.453l-226.711-76.397l-8.781,2.169c-6.789-27.189-14.678-54.107-24.082-80.697
			c-19.889-56.233-68.174-147.703-127.645-170.791c-0.102,6.238,0.547,12.437,1.613,18.656l-0.084-0.005
			c-1.381-9.485-3.014-18.901-4.732-28.239c-0.254-1.43-0.5-2.94-0.836-4.375L8559.289,4167.982z" style="stroke:black;fill:#11ad83"/><path id="182623013" parent_id="182622911" order="46" structure_id="935" d="M5499.839,948.771l67.366,136.92
			c-57.008,119.162-62.548,264.537-71.654,396.393c-4.444,64.02-19.27,139.355-32.729,230.339l-113.959-90.181l-2.738-0.154
			c17.069-302.485,31.938-565.968,32-567.046C5379.021,1039.107,5451.678,984.932,5499.839,948.771z" style="stroke:black;fill:#40a666"/><path id="182623012" parent_id="182622911" order="47" structure_id="211" d="M5567.205,1085.689
			l143.695,291.994c-14.814,54.526-18.699,114.497-28.345,183.635c-10.75,76.898-18.429,226.233-23.537,306.448l-196.196-155.345
			c13.459-90.982,28.283-166.321,32.729-230.339C5504.657,1350.229,5510.197,1204.854,5567.205,1085.689z" style="stroke:black;fill:#40a666"/><path id="182623011" parent_id="182622911" order="48" structure_id="1015" d="M5710.9,1377.686l200.459,407.336
			c-27.639,76.695-45.146,161.207-55.742,238.364l-196.599-155.618c5.108-80.215,12.787-229.55,23.537-306.448
			C5692.202,1492.182,5696.086,1432.21,5710.9,1377.686z" style="stroke:black;fill:#40a666"/><path id="182623010" parent_id="182622911" order="49" structure_id="919" d="M5911.359,1785.021
			l133.828,272.123c-13.084,25.318-25.332,55.015-37.758,86.364l-151.813-120.124
			C5866.215,1946.229,5883.723,1861.717,5911.359,1785.021z" style="stroke:black;fill:#40a666"/><path id="182623009" parent_id="182622911" order="50" structure_id="927" d="M6100.605,2169.746l3.854,5.462
			c-9.618,6.7-19.03,14.161-28.31,22.212l-9.989-7.39l-58.729-46.521c12.424-31.351,24.674-61.046,37.758-86.364L6100.605,2169.746z
			" style="stroke:black;fill:#40a666"/><path id="182623018" parent_id="182622911" order="51" structure_id="588" d="M5438.18,2007.488
			c-1.222,163.269-3.346,324.822-5.313,488.049l0.595,5.694c-44.61,4.226-90.465,6.883-137.443,8.811
			c0,0,27.059-479.496,50.107-887.955l2.739,0.154l113.959,90.181C5450.342,1796.385,5439.029,1893.564,5438.18,2007.488z
			 M5320.127,2501.745c37.344,2.106,119.385,1.409,99.264-38.854c-9.795-19.7-73.146-18.279-101.071-2.873
			C5294.521,2473.077,5287.68,2499.914,5320.127,2501.745z" style="stroke:black;fill:#40a666"/><path id="182623017" parent_id="182622911" order="52" structure_id="296" d="M5659.02,1867.768
			c-0.084,1.494-0.168,2.988-0.248,4.398c-10.162,159.434-28.963,325.874-47.765,483.488c-5.88,49.619-22.163,74.092-41.065,119.896
			l1.342,7.235c-44.592,8.306-90.547,14.205-137.822,18.445l-0.596-5.693c1.97-163.228,4.094-324.78,5.313-488.049
			c0.853-113.923,12.163-211.104,24.644-295.065L5659.02,1867.768z" style="stroke:black;fill:#40a666"/><path id="182623016" parent_id="182622911" order="53" structure_id="772" d="M5659.02,1867.768l196.599,155.618
			c-0.923,6.025-1.675,11.978-2.429,17.929c-18.803,148.791-18.815,296.56-102.922,385.471l0.392,6.349
			c-57.292,22.408-117.05,38.351-179.376,49.651l-1.341-7.235c18.901-45.803,35.187-70.276,41.065-119.895
			c18.801-157.615,37.602-324.056,47.764-483.489C5658.852,1870.755,5658.936,1869.261,5659.02,1867.768z" style="stroke:black;fill:#40a666"/><path id="182623015" parent_id="182622911" order="54" structure_id="810" d="M5855.617,2023.385
			l151.813,120.124c-27.959,70.601-56.549,149.407-97.121,204.478c-50.963,35.669-104.147,63.471-159.65,85.146l-0.391-6.349
			c84.104-88.911,84.119-236.681,102.922-385.47C5853.941,2035.362,5854.693,2029.411,5855.617,2023.385z" style="stroke:black;fill:#40a666"/><path id="182623014" parent_id="182622911" order="55" structure_id="819" d="M5918.721,2342.05
			c-2.777,2.009-5.556,4.017-8.41,5.937c40.57-55.07,69.16-133.877,97.121-204.478l58.729,46.521l9.989,7.39
			c-10.34,9.157-20.479,19.158-30.424,30.168C6005.143,2272.584,5962.802,2310.322,5918.721,2342.05z" style="stroke:black;fill:#40a666"/><path id="182622962" parent_id="182622911" order="56" structure_id="120" d="M9353.66,5009.02l4.027,2.394
			c-56.387,94.888-109.627,191.533-164.422,287.677c6.627-21.521,6.707-43.578-5.801-65.348
			c-23.816-41.221-74.973-55.264-113.307-78.155c-10.549-6.34-21.359-12.444-32.35-18.31l2.316-4.199
			c32.963-69.234,76.496-138.457,123.875-206.463L9353.66,5009.02z" style="stroke:black;fill:#219866"/><path id="182622961" parent_id="182622911" order="57" structure_id="163" d="M9020.27,4861.001
			l147.73,65.612c-47.379,68.006-90.912,137.229-123.875,206.465l-2.316,4.197c-48.727-26.143-100.973-47.405-154.748-60.764
			l2.67-10.423C8949.268,4990.611,8978.336,4929.896,9020.27,4861.001z" style="stroke:black;fill:#219866"/><path id="182622960" parent_id="182622911" order="58" structure_id="344" d="M8774.373,5061.162
			c-4.076-0.063-8.072-0.039-11.744,0.087l-0.117-2.338l-110.105-31.604c-11.293-9.379-24.996-17.313-39.848-24.145l22.723-1.382
			c78.461-33.118,158.363-124.265,213.623-216.884L9020.27,4861c-41.934,68.896-71.002,129.61-130.539,205.09l-2.67,10.422
			C8849.949,5067.342,8812.129,5061.877,8774.373,5061.162z" style="stroke:black;fill:#219866"/><path id="182622959" parent_id="182622911" order="59" structure_id="314" d="M8492.138,4947.832
			c27.669,9.803,77.839-20.666,102.472-32.264c30.197-14.363,66.664-27.707,90.205-52.437c29.83-31.45,30.209-77.966,32.756-118.698
			c0.41-5.805,0.816-11.525,1.227-17.33l130.107,57.792c-55.26,92.62-135.162,183.767-213.623,216.884l-22.723,1.382
			c-42.77-19.563-94.998-29.337-127.429-34.414c3.727-11.444,7.281-22.815,10.925-34.267
			C8494.723,4938.902,8493.387,4943.406,8492.138,4947.832z" style="stroke:black;fill:#219866"/><path id="182622916" parent_id="182622911" order="60" structure_id="698" d="M9187.465,5233.742
			c-23.816-41.221-74.973-55.264-113.307-78.156c-10.549-6.34-21.359-12.443-32.35-18.31c-2.576-1.382-5.168-2.742-7.762-4.097
			c-46.498-24.266-96.055-44.017-146.986-56.668c-11.732-2.898-23.535-5.424-35.385-7.551c-25.633-4.598-51.482-7.311-77.303-7.799
			c-4.076-0.063-8.072-0.039-11.744,0.086c-43.059,1.815-62.703,19.438-67.57,67.367c-7.633,76.242-38.531,159.082-79.953,223.345
			c-21.451,33.422-42.408,72.865-75.754,94.294c-31.012,19.979-61.506,39.57-91.957,58.414
			c-89.623,55.383-178.788,104.131-278.549,137.046c-1.02,0.358-2.033,0.635-3.137,0.989c-5.516,1.853-56.816,16.939-73.315,24.584
			c0,0,0,0-0.083-0.006l-1.814-1.746c-21.367,43.744-45.267,87.787-88.625,135.789l-7.476,9.285
			c-20.776,22.97-37.16,46.271-52.446,69.302c-29.205,43.974-54.287,87.181-98.029,126.171
			c-45.314,40.316-87.807,86.62-130.132,130.02c-1.5,1.498-3.452,3.635-5.842,6.164c-22.646,25.112-82.147,95.516-103.659,115.28
			c-23.77,21.868-29.663,66.899-31.98,100.183c-8.686,31.726-6.994,68.668-13.099,100.053
			c-9.563,49.184-22.129,81.333-67.961,83.145c-10.293-2.314-20.276-4.267-27.95-5.23c-48.759-6.141-98.063-7.061-146.918-12.467
			c-29.229-3.234-56.023-15.318-86.154-9.879c-23.629,4.27-39.147,16.473-49.636,32.801l-6.478,3.123
			c-10.264,45.242-20.25,92.492-24.803,139.794c-4.684,48.665-3.613,97.385,8.844,144.028
			c10.562,39.592,28.459,101.395,64.4,126.024c8.313,5.687,17.257,9.442,26.6,11.771c41.543-3.146,89.523-7.045,128.98-10.105
			c39.807-3.084,79.645-5.869,119.4-9.555c8.131-0.756,18.473-1.086,28.746-1.65c3.192,0.305,6.631-0.007,10.149-0.669
			c6.403-0.511,12.474-1.207,17.591-2.271c1.24-0.258,2.102-1.549,2.652-3.672c3.166-1.033,6.115-1.926,8.69-2.431
			c16.379-3.203,35.218-1.763,52.634-3.347l-0.184,0.162c0.869-0.131,1.736-0.272,2.606-0.404c3.313-0.361,6.567-0.846,9.735-1.51
			c16.896-2.675,33.738-5.646,50.51-9.014c31.273-6.277,62.304-13.883,92.983-23.27c127.997-39.186,249.201-57.963,364.146-132.109
			c110.57-71.328,205.231-164.981,287.732-266.944c216.416-267.446,385.389-580.272,566.506-871.308
			c47.443-76.211,95.131-152.405,141.074-229.973c8.59-14.496,54.293-92.15,63.477-107.965l-3.32,4.23
			C9199.441,5279.033,9200.422,5256.294,9187.465,5233.742z" style="stroke:black;fill:#9ad2bd"/><path id="182622958" parent_id="182622911" order="61" structure_id="276" d="M9187.465,5233.742
			c-23.816-41.221-74.973-55.264-113.307-78.156c-10.549-6.34-21.359-12.443-32.35-18.31c-2.576-1.382-5.168-2.742-7.762-4.097
			c4.146,47.756-37.637,145.742-52.664,183c-24.412,60.516-55.84,117.979-88.598,174.307
			c-57.352,98.623-164.895,165.146-246.146,244.547c-84.182,82.238-104.068,209.725-182.316,293.711
			c-42.477,45.59-76.649,87.49-103.712,145.279c-35.235,75.244-76.097,146.914-128.273,211.854
			c-53.108,66.113-135.019,112.02-203.444,160.727c-45.902,32.662-98.484,55.207-141.488,90.367
			c-42.541,34.777-106.244,57.609-159.419,69.465c-12.035,2.683-132.623,28.354-168.405,31.142
			c0.955,20.192,2.477,40.24,4.496,59.912c3.513,33.665,10.801,140.554,54.588,139.112l-0.849,0.752
			c21.04-3.145,42.001-6.74,62.853-10.928c31.274-6.277,62.305-13.883,92.984-23.27c127.997-39.186,249.201-57.963,364.146-132.109
			c110.569-71.328,205.23-164.981,287.731-266.944c216.417-267.446,385.39-580.272,566.505-871.308
			c47.445-76.211,95.133-152.405,141.074-229.973c8.59-14.496,54.295-92.15,63.479-107.965l-3.322,4.23
			C9199.441,5279.033,9200.422,5256.294,9187.465,5233.742z" style="stroke:black;fill:#6acbba"/><path id="182622957" parent_id="182622911" order="62" structure_id="284" d="M7887.402,6636.971
			c43.004-35.16,95.586-57.705,141.488-90.367c68.427-48.707,150.336-94.612,203.445-160.727
			c52.177-64.939,93.038-136.609,128.273-211.854c27.063-57.789,61.235-99.689,103.712-145.279
			c78.249-83.986,98.136-211.473,182.315-293.711c81.254-79.4,188.795-145.924,246.148-244.547
			c32.758-56.328,64.184-113.791,88.596-174.307c15.029-37.258,56.811-135.244,52.666-183
			c-46.5-24.266-96.055-44.017-146.988-56.668c-11.73-2.898-23.535-5.424-35.383-7.551c-6.813,2.822-12.637,6.435-17.104,10.908
			c-39.521,39.576-31.162,118.336-52.26,166.313c-22.152,50.377-30.195,105.04-48.93,156.58
			c-18.754,51.576-48.215,65.569-83.961,100.396c-39.141,38.141-57.744,95.317-101.27,129.203
			c-33.48,26.063-79.335,33.399-112.541,61.817c-58.751,50.276-107.786,127.174-158.177,187.765
			c-23.142,27.813-47.623,55.059-73.272,81.211c-59.449,60.646-98.613,150.709-163.268,203.896
			c-76.153,62.646-141.756,114.944-208.541,184.937c-29.166,30.564-61.781,57.701-90.701,88.385
			c-24.644,26.145-44.285,61.756-73.119,83.397c-26.606,19.972-67.151,28.646-102.19,32.625c-0.877,14.28-2.073,29.375-3.729,45.705
			c-4.449,44.146-5.176,90.175-3.035,135.478c35.783-2.787,156.371-28.459,168.405-31.142
			C7781.159,6694.58,7844.861,6671.748,7887.402,6636.971z" style="stroke:black;fill:#6acbba"/><path id="182622956" parent_id="182622911" order="63" structure_id="291" d="M7741.652,6440.371
			c28.92-30.684,61.537-57.818,90.701-88.384c66.787-69.991,132.389-122.29,208.543-184.937
			c64.651-53.188,103.816-143.25,163.267-203.896c25.649-26.152,50.131-53.398,73.272-81.211
			c50.391-60.59,99.426-137.486,158.177-187.764c33.206-28.418,79.06-35.756,112.542-61.818
			c43.525-33.885,62.127-91.063,101.268-129.203c35.746-34.824,65.209-48.818,83.961-100.395
			c18.736-51.541,26.777-106.203,48.93-156.58c21.1-47.979,12.738-126.738,52.262-166.314c4.465-4.475,10.289-8.085,17.102-10.907
			c-25.633-4.599-51.482-7.312-77.303-7.8c-4.076-0.063-8.072-0.039-11.744,0.087c-43.059,1.815-62.703,19.438-67.57,67.366
			c-7.633,76.243-38.531,159.082-79.953,223.346c-21.451,33.422-42.408,72.865-75.754,94.293
			c-31.012,19.979-61.506,39.57-91.957,58.414c-89.623,55.383-178.788,104.131-278.549,137.047c-1.02,0.358-2.033,0.635-3.137,0.988
			c-5.516,1.854-56.816,16.939-73.315,24.584c0,0,0,0-0.083-0.005l-1.814-1.747c-21.367,43.745-45.267,87.788-88.625,135.789
			l-7.476,9.285c-20.776,22.971-37.16,46.271-52.446,69.302c-29.205,43.974-54.287,87.181-98.029,126.171
			c-45.314,40.316-87.807,86.62-130.132,130.02c-1.5,1.498-3.452,3.635-5.842,6.164c-22.646,25.112-82.147,95.516-103.659,115.28
			c-26.344,24.237-30.732,76.938-32.629,110.547c-4.113,72.909-1.227,121.722-5.313,188.302
			c35.039-3.979,75.584-12.654,102.19-32.625C7697.369,6502.127,7717.012,6466.516,7741.652,6440.371z" style="stroke:black;fill:#6acbba"/><path id="182622955" parent_id="182622911" order="64" structure_id="192" d="M7538.85,6806.822
			c-2.104-32.722-0.893-66.049,0.414-99.434c-14.832,3.934-28.508,10.889-43.449,15.176c-57.765,16.575-118.963,14.32-177.758,4.945
			c-29.963-4.776-59.594-11.438-89.021-18.785c-14.451-3.607-28.854-7.396-43.252-11.217c-11.481-3.047-24.997-4.701-36.476-8.443
			c-4.685,48.665-3.613,97.385,8.844,144.027c10.561,39.592,28.458,101.396,64.4,126.025c8.313,5.686,17.256,9.443,26.6,11.77
			c41.543-3.145,89.523-7.045,128.98-10.104c39.806-3.084,79.644-5.869,119.4-9.556c16.057-1.492,40.738-1.317,56.486-4.59
			C7566.563,6944.029,7540.814,6837.178,7538.85,6806.822z" style="stroke:black;fill:#61e7b7"/><path id="182622954" parent_id="182622911" order="65" structure_id="200" d="M7229.036,6708.727
			c29.427,7.347,59.058,14.008,89.021,18.785c58.795,9.375,119.994,11.629,177.758-4.945c14.941-4.288,28.617-11.242,43.449-15.176
			c1.01-25.836,2.078-51.704,1.705-77.348c-0.373-25.094,20.064-54.313,2.095-74.768c-1.623-1.838-53.856-16.322-79.767-19.582
			c-48.76-6.141-98.063-7.061-146.918-12.467c-29.229-3.234-56.023-15.318-86.154-9.879c-23.629,4.27-39.148,16.473-49.637,32.801
			l-6.477,3.123c-10.264,45.242-20.25,92.492-24.803,139.794c11.479,3.743,24.994,5.397,36.476,8.444
			C7200.182,6701.33,7214.585,6705.118,7229.036,6708.727z" style="stroke:black;fill:#61e7b7"/><path id="182622953" parent_id="182622911" order="66" structure_id="19" d="M5318.279,2459.995
			c27.986-15.382,91.275-16.774,101.121,2.93c20.131,40.265-61.974,40.902-99.319,38.795
			C5287.711,2499.895,5294.521,2473.043,5318.279,2459.995z" style="stroke:black;fill:#7ed04b"/><path id="182622952" parent_id="182622911" order="67" structure_id="583" d="M8492.147,4947.863
			c15.909-55.662,34.196-112.109,54.353-166.437c39.959-107.709,21.996-215.252,20.746-327.621
			c-0.715-64.533-0.836-129.621-6.023-193.892c-2.027-25.123-12.922-50.289-12.801-75.006
			c59.441,23.113,107.754,114.551,127.633,170.853c23.23,65.819,37.639,134.008,47.242,203.043
			c8.629,62.129-1.828,123.181-5.715,185.653c-2.533,40.707-2.938,87.188-32.785,118.658c-23.5,24.767-59.953,38.113-90.221,52.437
			C8569.98,4927.189,8519.826,4957.627,8492.147,4947.863z" style="stroke:black;fill:#8ada87"/><path id="182622951" parent_id="182622911" order="68" structure_id="952" d="M8139.584,5561.613
			c12.297-18.76,27.378-36.697,39.895-55.703c26.009-39.479,53.387-78.037,80.766-116.582
			c52.469-73.89,105.181-148.492,147.625-228.461c32.825-61.861,48.815-129.236,77.145-192.115
			c57.646,8.92,178.145,33.086,196.383,100.16c6.754,24.854-1.33,50.569-9.033,74.158c-24.586,75.334-45.748,163.838-94.395,228.051
			c-42.289,55.826-102.672,96.414-162.421,131.438c-32.81,19.229-66.617,37.021-100.838,53.608
			c-50.472,24.461-103.014,35.947-154.581,57.984c-7.729,3.303-48.604,12.67-51.373,18.094
			c11.543-22.68,16.551-48.748,30.504-70.133C8139.363,5561.953,8139.471,5561.787,8139.584,5561.613z" style="stroke:black;fill:#a0ee9d"/><path id="182622950" parent_id="182622911" order="69" structure_id="966" d="M7690.337,6126.786
			c-40.212,45.767-81.731,89.628-126.368,132.647c-30.372,29.254-55.182,76.474-96.793,88.027
			c-18.521,5.115-107.505,0.51-106.105-33.128c2.179-50.41,131.354-157.591,148.42-175.274
			c75.359-78.5,148.433-168.115,236.75-232.813c49.156-36.104,92.768-66.858,143.098-78.006c0,0,61.535-7.601,39.93,30.06
			c-2.031,3.549-5.022,7.875-8.805,12.906c-37.047,48.691-150.538,161.17-183.589,201.014
			C7721.508,6090.75,7705.996,6108.938,7690.337,6126.786z" style="stroke:black;fill:#a0ee9d"/><path id="182622949" parent_id="182622911" order="70" structure_id="327" d="M7528.443,6421.195
			c13.336,24.524,14.74,49.408,0.008,73.535c-22.955,37.606-55.635,26.551-92.705,21.604
			c-48.638-6.484-97.713-11.262-146.537-16.127c-43.304-4.332-50.756,0.482-35.738-50.131
			c22.281-75.051,80.195-70.688,171.416-62.475C7466.309,6391.328,7520.02,6405.719,7528.443,6421.195z" style="stroke:black;fill:#84ea81"/><path id="182622929" parent_id="182622911" order="71" structure_id="672" d="M6363.445,3997.48
			c-27.865-72.158-130.515-39.058-173.348-2.974c-19.871,16.742-42.55,39.634-55.311,62.435
			c-0.512,0.896-54.408-41.754-63.313-32.281c26.234-22.201,88.671-69.768,110.318-93.408
			c44.328-48.396,55.869-99.201,76.504-165.359c11.762-37.695,12.629-78.065,21.307-116.553
			c28.93-128.538-13.434-270.16-14.838-400.02c-1.811-168.205,24.936-303.796,100.465-454.887
			c39.246-78.48,78.289-158.259,123.436-233.561c12.713-21.186,56.553-62.48,60.285-86.738c3.395-21.969-8.604-36.937-28.97-46.88
			c-58.028-28.355-183.938-15.925-214.694-8.685c40.738-9.59,78.028-29.278,131.787-34.278c77.641-7.22,155.855,3.125,233.512,8.953
			c131.229,9.857,264.251,50.446,382.67,106.958c108.842,51.94,215.313,104.035,324.35,155.348
			c350.996,165.178,614.338,440.188,819.828,764.313c71.625,112.953,117.056,235.411,159.776,361.314
			c115.213,339.511,206.091,709.902,113.89,1067.054c-31.048,120.312-67.388,254.582-139.962,357.588
			c-55.009,78.082-118.144,148.069-175.604,223.521c-32.662,42.877-77.891,104.465-120.806,136.809
			c-92.349,69.607-215.881,82.709-330.226,87.375c-176.862,7.24-356.289-81.275-502.623-172.361
			c-66.024-41.088-123.104-109.219-164.321-174.104c-27.028-42.56-46.696-88.235-61.755-136.308
			c-33.539-107.074-53.621-214.467-81.503-322.789c-43.921-170.588-122.957-369.824-292.142-453.594
			c-41.045-61.59-130.439-209.455-191.195-237.199c2.719-7.594-24.286-26.271-42.518-31.672
			C6385.693,4056.896,6366.318,4004.91,6363.445,3997.48z" style="stroke:black;fill:#98d6f9"/><path id="182622931" parent_id="182622911" order="72" structure_id="998" d="M7626.376,5741.299
			c-13.345,22.559-58.118,48.037-165.36,104.422c-106.787,56.146-186.78,108.387-221.854,95.709
			c-118.298-42.748-162.795-208.133-189.662-297.826c-16.283-54.418-60.213-178.99-3.44-224.355
			c27.694-21.965,60.058,7.941,78.652,27.021c85.318,87.547,320.218,197.158,382.572,208.418
			c43.068,7.779,111.787,23.9,124.053,37.633C7642.577,5704.906,7636.871,5723.592,7626.376,5741.299z" style="stroke:black;fill:#80cdf8"/><path id="182622935" parent_id="182622911" order="73" structure_id="250" d="M5520.467,3210.229
			c90.57,71.868,196.457,128.987,304.438,169.909c38.346,14.521,136.059,60.313,176.002,26.52
			c33.752-28.552,52.291-177.211,50.213-216.404c-8.531-161.313-156.311-371.022-275.559-473.788
			c-115.311-99.373-353.488-28.495-490.033-20.362l-12.266,217.366C5375.594,2997.355,5413.955,3125.727,5520.467,3210.229z" style="stroke:black;fill:#90cbed"/><path id="182622936" parent_id="182622911" order="74" structure_id="310" d="M5454.646,3363.243
			c30.795,21.854,60.528,47.528,87.396,73.698c30.26,29.461,56.608,56.324,82.606,85.14
			c44.854,49.709,82.973,103.191,122.656,162.325c8.044,11.988,15.445,24.375,22.5,36.685c12.42,20.397,24.465,41.222,36.17,62.501
			c33.904,52.891,72.186,82.409,152.105,28.227c72.477-49.136,108.752-148.65,87.996-234.045
			c-19.141-78.78-85.311-104.406-139.58-132.754c-99.184-51.815-173.551-69.863-280.137-125.418
			c-41.786-21.785-84.961-53.117-121.26-88.711c-36.503-35.8-48.248-66.729-83.387-71.304c-34.213-4.452-0.941,43.946-26.112,69.287
			c-29.465,29.656-116.269,37.878-142.737,46.061c36.729,13.04,115.797,36.174,162.924,63.305
			C5428.842,3345.746,5441.829,3354.164,5454.646,3363.243z" style="stroke:black;fill:#90cbed"/><path id="182622938" parent_id="182622911" order="75" structure_id="278" d="M7842.824,5697.248
			c-2.126-2.383,31.624-24.996,33.67-26.377c20.105-13.709,51.373-34.447,69.889-46.518c-26.674,9.672-59.278,27.078-90.06,32.272
			c-37.437,6.326-78.054,8.117-109.353,26.888c-48.734,29.219-81.146,79.516-129.109,110.141
			c-29.611,18.9-138.339,68.406-171.245,85.955c-43.563,23.23-92.794,46.113-140.157,73.951
			c-61.665,36.242-129.305,94.416-166.034,156.139c-24.505,41.17-6.722,74.717-9.14,117.896
			c-1.965,34.826-7.176,72.936-21.138,105.627c-32.069,75.006-93.599,130.359-153.308,183.721
			c-70.707,63.181-141.813,137.328-193.502,218.547c-29.65,46.613-58.679,117.291-77.947,157.301
			c188.031,99.422,390.602,89.777,537.129,78.91c-12.208-1.998-16.939-6.369-27.549-13.637
			c-35.941-24.619-51.154-86.787-61.714-126.375c-15.674-58.678-7.517-108.959,0.081-170.551
			c4.545-36.949,12.104-97.072,26.859-131.688c20.324-47.658,42.59-99.043,72.729-133.256
			c32.613-37.017,66.884-83.726,124.611-142.82c60.375-61.814,100.457-92.453,176.197-171.83
			c67.842-71.096,105.618-104.637,174.654-169.131c37.971-35.475,122.785-80.816,162.688-104.592
			c47.655-8.404,63.272,29.141,69.912-16.729c3.808-26.336,43.621-55.797,59.449-75.861
			c16.022-20.322,87.282-100.506,45.926-112.463C7986.545,5585.439,7922.964,5747.184,7842.824,5697.248z" style="stroke:black;fill:#80c0e2"/><path id="182622939" parent_id="182622911" order="76" structure_id="23" d="M7705.313,5917.793
			c43.095-39.381-102.307-92.607-116.179-105.068c-4.562-4.086-165.75,74.758-272.676,135.849
			c-48.054,27.459-80.765,52.772-90.959,62.856c-34.538,34.133-60.772,57.457-85.075,98.271
			c-24.505,41.17-6.721,74.717-9.141,117.896c-1.965,34.826-7.176,72.937-21.137,105.627
			c-32.07,75.006-93.598,130.359-153.307,183.722c-70.709,63.181-141.813,137.328-193.502,218.547
			c-29.651,46.612-58.68,117.291-77.948,157.301c188.031,99.422,390.601,89.776,537.129,78.91
			c-12.208-1.998-16.94-6.369-27.549-13.638c-35.942-24.619-51.153-86.787-61.714-126.375
			c-25.869-96.865,3.318-201.1,25.244-296.787c6.654-29.063,41.736-102.084,67.046-130.803
			c32.614-37.014,71.836-91.502,108.452-127.08c52.339-50.85,90.286-91.381,115.984-112.785
			C7460.163,6155.76,7633.868,5983.094,7705.313,5917.793z" style="stroke:black;fill:#80c0e2"/><path id="182622940" parent_id="182622911" order="77" structure_id="1105" d="M7914.969,5773.512
			c28.824-12.289,56.853-34.065,77.332-53.098c18.822-17.492,45.334-39.197,31.834-68.43c-20.567-44.56-58.58-2.086-76.641,15.26
			c-14.789,14.205-33.175,24.483-51.355,32.996c-17.104,8.01-42.664,14.553-47.201,34.619
			C7837.118,5787.168,7904.295,5778.066,7914.969,5773.512z" style="stroke:black;fill:#80c0e2"/><path id="182622941" parent_id="182622911" order="78" structure_id="1105" d="M7713.221,5819.918
			c38.944-8.52,81.867-31.332,68.174-68.408c-16.549-44.801-81.43-10.713-103.387,9.283c-15.925,14.514-48.02,57.123-6.55,62.383
			C7681.921,5824.508,7697.236,5823.42,7713.221,5819.918z" style="stroke:black;fill:#80c0e2"/><path id="182622930" parent_id="182622911" order="79" structure_id="1022" d="M6541.07,4528.586
			c-55.473,150.396-84.287,367.611,15.568,505.229c40.357,54.826-2.249,60.066,28.701,129.908
			c39.668,89.49,115.141,131.967,206.709,153.422c43.313,10.15,100.74,16.318,145.165,9.621
			c77.209-11.66,37.833-59.731,19.676-117.578c-33.54-107.088-53.621-214.487-81.513-322.799
			c-43.912-170.592-126.73-375.047-292.14-453.584C6567.086,4463.271,6541.07,4528.586,6541.07,4528.586z" style="stroke:black;fill:#8599cc"/><path id="182622934" parent_id="182622911" order="80" structure_id="342" d="M6155.18,5474.143
			c-38.467,43.424-69.305,97.283-60.644,133.08c10.554,43.49,61.674,61.201,91.414,88.654
			c41.04,37.873,80.487,77.891,123.793,114.463c103.663,87.504,212.446,177.791,345.875,214.809
			c77.403,21.474,161.505,8.535,241.571,9.722c64.758,0.957,125.555,32.226,190.426,30.99
			c31.785-0.599,127.063-35.644,114.84-81.845c-6.031-22.809-66.058-92.311-76.756-109.369
			c-68.701-109.576-156.602-289.998-135.731-423.912c5.737-36.791,29.789-72.75-10.431-93.834
			c-34.174-17.885-119.856-5.617-159.85-10.102c-95.798-10.738-200.661-72.703-237.18-136.293
			c-7.379-12.861-44.767-76.369-26.356-95.469c-40.106,43.451-94.84,13.037-132.737-44.353
			c-4.887,193.117-44.888,283.567-182.982,335.709C6216.512,5415.424,6183.751,5441.902,6155.18,5474.143z" style="stroke:black;fill:#a2b1d8"/><path id="182622932" parent_id="182622911" order="81" structure_id="298" d="M6712.988,6105.807
			c-68.727,45.078-126.373,150.799-120.01,232.771c6.811,87.91,79.467,143.14,150.229,184.442
			c103.842,60.58,200.873-19.168,275.087-94.229c91.284-92.304,141.545-274.774-1.348-341.244
			C6925.591,6045.039,6797.707,6050.254,6712.988,6105.807z" style="stroke:black;fill:#a2b1d8"/><path id="182622933" parent_id="182622911" order="82" structure_id="596" d="M6262.396,6718.66
			c8.189-62.51,5.365-149.824,20.098-227.074c11.867-62.205,33.238-155.193,112.404-147.701
			c37.226,3.521,75.051,15.877,107.933,33.303c61.812,32.736,112.884,77.822,166.789,121.474
			c25.967,21.035,56.706,37.127,80.772,60.347c16.063,15.504,43.855,61.41,32.379,85.453
			c-19.156,40.112-47.688,74.619-68.769,113.905c-11.25,20.981-22.524,42.72-34.254,63.44
			c-10.146,17.898-20.526,39.693-27.419,53.541c-33.346-18.5-108.793-55.293-171.609-84.381
			C6414.137,6760.15,6317.18,6727.816,6262.396,6718.66z" style="stroke:black;fill:#96a7d3"/><path id="182622937" parent_id="182622911" order="83" structure_id="581" d="M5861.025,3955.836
			c17.297-11.512,12.629-37.859-6.502-77.782c-15.568-32.505-31.746-63.901-48.549-94.462c-12.045-18.791-23.556-40.5-36.17-62.501
			c-78.774-129.39-172.94-241.612-295.523-342.917c-4.025-3.324-8.102-6.506-12.191-9.582c-2.459-1.806-4.936-3.596-7.428-5.361
			c-1.51-1.071-3.012-2.18-4.528-3.223c-2.46-1.708-5.009-3.324-7.517-4.988c-59.863-39.075-127.52-57.159-189.752-80.086
			l-30.146,534.215l-0.057,1.047c99.506,6.989,177.471,45.959,265.492,89.908c34.684,17.322,76.6,60.621,125.715,83.41
			c7.838,3.637,15.569,6.914,23.232,9.818l0,0C5707.835,4020.139,5772.695,4014.607,5861.025,3955.836z" style="stroke:black;fill:#96a7d3"/><path id="182622947" parent_id="182622911" order="84" structure_id="537" d="M6383.827,4424.816c4.101-45,7.694-90.033,10.536-135.156
			c1.372-22.037,7.005-45.492,6.413-67.436c-0.495-17.892,6.071-37.607-9.181-50.412c-9.02-7.572-19.862-16.484-30.838-19.74
			c-0.746,19.604-10.098,39.854-16.47,58.069c-6.903,19.731-15.545,39.698-23.84,59.01c-2.717,53.729-16.429,107.458-25.974,160.194
			c-10.598,58.554-21.818,117.311-28.215,176.508c-8.531,79-11.088,159.396-17.258,232.127
			c-6.217,73.195,6.826,100.287,11.729,160.92c2.497,30.89,2.729,61.918,5.756,92.771c2.604,26.564,12.243,53.245,14.815,79.634
			c27.43,30.519,55.881,60.306,91.58,77.655c29.479-68.41,31.199-141.184,16.113-218.838c-5.844-30.117-4.87-53.431-13.984-130.445
			c-28.166-114.855-15.293-237.771-3.143-353.789C6376.102,4505.57,6380.167,4465.211,6383.827,4424.816z" style="stroke:black;fill:#b3c0df"/><path id="182622943" parent_id="182622911" order="85" structure_id="529" d="M5983.299,5617.227
			c-18.723,7.395-36.643,16.711-53.656,27.451c-33.498,21.15-63.219,47.717-90.787,76.033
			c-55.881,57.395-103.09,122.842-161.443,177.886c-21.673,20.442-45.622,42.478-71.686,57.925
			c52.412,52.669,106.566,102.837,174.615,138.23c44.854,23.32,88.145-3.035,100.115-48.949
			c31.52-120.903,48.103-237.524,105.506-350.903c14.465-28.565,30.773-60.127,48.892-92.112
			C6018.868,5600.99,5996.385,5612.059,5983.299,5617.227z" style="stroke:black;fill:#b3c0df"/><path id="182622948" parent_id="182622911" order="86" structure_id="578" d="M5571.596,5712.123
			c62.121-86.613,104.436-165.336,149.533-260.816c67.492-142.922,131.082-273.289,173.842-425.176
			c52.826-187.567,119.442-390.137,262.254-528.387c-7.703-5.336-6.178-19.898-1.803-38.58
			c11.104-47.443,41.934-88.127,44.555-138.24c3.91-74.582-81.791-134.861-84.526-204.916c-5.356,17.006-15.84,28.339-30.045,40.021
			c-27.722,22.799-63.976,38.33-97.274,50.744c-31.5,11.742-79.685,29.108-111.959,10.804
			c-11.713-6.644-17.978-18.603-19.229-31.543c-17.934,27.153-32.021,57.123-42.361,85.313
			c-34.426,93.834-66.568,188.832-89.728,286.149c-21.737,91.315-21.51,181.416-35.431,272.965
			c-11.826,77.776-25.455,155.349-46.22,231.187c-57.761,210.94-262.424,356.094-276.588,585.186
			c-4.806,77.932,34.048,120.621,87.646,165.777C5509.656,5778.693,5529.964,5770.193,5571.596,5712.123z" style="stroke:black;fill:#b3c0df"/><path id="182622944" parent_id="182622911" order="87" structure_id="585" d="M6064.432,5265.252
			c-24.438-46.199-62.972-85.48-90.924-129.705c-16.039-25.375-29.264-52.205-44.812-77.846
			c-10.132-16.707-22.007-36.103-26.692-56.313c-2.375,8.271-4.717,16.521-7.033,24.742
			c-42.761,151.887-106.35,282.254-173.842,425.176c-45.099,95.48-87.412,174.203-149.533,260.816
			c-41.631,58.069-61.938,66.57-117.334,100.487c4.174,3.517,8.434,7.046,12.771,10.608
			c50.063,41.111,93.736,88.125,138.693,133.301c26.063-15.447,50.013-37.481,71.686-57.926
			c58.354-55.043,105.563-120.49,161.443-177.886c27.568-28.315,57.289-54.882,90.787-76.032
			c17.015-10.741,34.936-20.059,53.656-27.451c13.086-5.168,35.568-16.236,51.555-14.439
			c34.685-61.231,76.008-124.002,123.739-170.315c-17.063-26.452-31.024-56.731-47.062-83.834
			C6095.27,5321.154,6079.363,5293.484,6064.432,5265.252z" style="stroke:black;fill:#b3c0df"/><path id="182622946" parent_id="182622911" order="88" structure_id="585" d="M6260.732,4998.902
			c-4.902-60.633-17.946-87.726-11.729-160.92c6.169-72.732,8.726-153.127,17.257-232.127
			c6.396-59.199,17.618-117.955,28.215-176.508c9.546-52.737,23.257-106.465,25.975-160.195c-0.443,1.031-0.892,2.068-1.332,3.098
			c-15.414,36.017-27.621,73.769-44.254,109.17c-15.934,33.92-55.235,101.517-92.51,114.89c-12.604,4.533-20.527,4.64-25.129,1.437
			c-123.789,119.834-190.326,287.994-240.26,452.822c13.18-5.963,31.93-4.514,46.076-6.284c35.703-4.47,58.9,17.931,88.092,32.121
			c22.881,11.123,44.074,25.188,64.338,40.519c37.035,28.016,69.938,60.588,104.969,90.932
			c21.354,18.505,40.838,41.174,60.863,63.454c-2.572-26.39-12.211-53.069-14.814-79.634
			C6263.463,5060.818,6263.229,5029.791,6260.732,4998.902z" style="stroke:black;fill:#b3c0df"/><path id="182622945" parent_id="182622911" order="89" structure_id="594" d="M6220.439,5107.854
			c-35.03-30.342-67.935-62.916-104.969-90.932c-20.264-15.33-41.457-29.395-64.338-40.518c-29.19-14.19-52.389-36.59-88.092-32.121
			c-14.146,1.771-32.896,0.32-46.076,6.283c-5.148,16.996-10.123,33.955-14.963,50.821c4.688,20.211,16.563,39.606,26.693,56.313
			c15.548,25.64,28.771,52.47,44.813,77.845c27.951,44.224,66.483,83.506,90.922,129.705c14.935,28.231,30.838,55.901,47.102,83.385
			c16.037,27.103,29.999,57.382,47.063,83.834c12.619-12.245,25.681-23.354,39.191-32.963
			c46.413-33.008,98.484-33.742,135.709-83.235c16.521-21.959,29.514-44.39,39.391-67.31
			C6311.122,5218.947,6271.045,5151.705,6220.439,5107.854z" style="stroke:black;fill:#b3c0df"/><path id="182622942" parent_id="182622911" order="90" structure_id="602" d="M5876.17,4217.577
			c32.275,18.306,80.459,0.938,111.959-10.804c33.3-12.414,69.555-27.945,97.275-50.744c14.205-11.684,24.688-23.017,30.045-40.021
			c-0.508-12.975,1.832-26.284,8.112-40.082c-38.638-43.264-77.696-24.301-105.676,0.703c-19.569,17.479-61.933,16.08-103.028,46.25
			c-22.485,16.518-41.76,38.693-57.916,63.154C5858.193,4198.975,5864.458,4210.936,5876.17,4217.577z" style="stroke:black;fill:#b3c0df"/><path id="182622926" parent_id="182622911" order="91" structure_id="549" d="M5178.018,4601.338
			c48.597,13.832,61.438,121.059,60.512,199.785c-0.188,15.844-0.35,31.697-0.657,47.529c-0.544,28.481-1.151,57.035-3.013,85.465
			c-1.654,25.354-2.679,51.182-6.615,76.315c10.91-8.062,19.726-16.396,30.447-24.713c37.127-28.783,64.359-71.194,75.545-116.687
			c12.354-50.254,11.332-103.416,16.551-154.731c4.398-42.981,10.755-85.765,16.088-128.649
			c14.02-112.604,56.26-238.203,191.497-238.881c37.461-0.179,87.349,23.799,120.384,40.469
			c17.145,8.66,32.307,29.469,52.559,21.668c21.363-8.244,34.92-93.477,47.33-124.029c11.088-27.35,60.902-108.252,47.209-119.071
			c-34.416,2.635-83.256-13.22-122.146-26.291c-40.374-13.58-82.161-28.774-125.44-26.916
			c-88.037,3.763-172.795,35.207-257.563,55.153c-35.032,8.252-89.969,8.435-118.63,7.209" style="stroke:black;fill:#ff7080"/><path id="182622928" parent_id="182622911" order="92" structure_id="149" d="M5178.018,4601.338
			c48.597,13.832,61.438,121.059,60.512,199.785c-0.471,39.574-0.949,79.182-2.896,118.711c-1.08,21.916-1.737,58.602-6.859,89.516
			c62.843-41.485,102.795-96.024,110.197-172.02c8.604-88.33,17.533-168.271,27.905-251.678
			c5.081-40.801,12.492-85.209,29.489-122.867c15.332-33.959,42.248-59.705,59.984-92.013
			c22.721-41.377,29.448-90.604,50.609-132.543c21.817-43.229,68.824-47.819,111.723-57.595
			c14.457-3.301,98.387-8.719,77.607-38.199c-6.763-9.61-24.408-15.256-35.065-18.313c-27.524-7.885-54.246-12.752-82.956-11.525
			c-88.038,3.763-172.796,35.207-257.563,55.154c-35.033,8.252-89.97,8.434-118.631,7.209L5178.018,4601.338z" style="stroke:black;fill:#ff909f"/><path id="182622927" parent_id="182622911" order="93" structure_id="15" d="M5568.909,4208.471
			c-44.521,14.76-75.01,55.836-48.077,85.99c36.146,40.47,109.109,58.463,156.343,68.447c36.299,7.666,75.878,15.541,86.836-29.514
			c6.233-25.658,14.937-47.398,25.869-71.271c8.79-19.184,11.29-34.453-6.372-50.203
			C5735.445,4169.063,5622.969,4190.551,5568.909,4208.471z" style="stroke:black;fill:#ff909f"/><path id="182622917" parent_id="182622911" order="94" structure_id="1097" d="M6636.966,6039.957
			c-157.521-48.434-297.188-166.477-403.571-256.381c-42.469-35.877-149.979-162.664-191.205-120.586
			c-74.237,75.77-106.049,324.459-130.416,417.877c-11.973,45.918-105.043,69.463-149.896,46.143
			c-126.423-65.748-207.504-196.274-315.939-285.326c-60.049-49.324-120.943-115.453-115.758-199.449
			c14.156-229.104,213.771-371.985,271.531-582.928c23.71-86.598,43.199-161.902,53.109-250.293
			c6.016-53.496,7.688-98.98,16.795-152.064c4.569-26.686,13.369-61.459,20.918-87.471c5.567-19.115,10.146-45.994,12.557-66.02
			c-20.885,45.354-63.436,71.604-76.016,122.688c-14.189,57.646,1.347,124.063-16.633,180.498
			c-28.037,87.992-116.203,38.199-143.492-20.535c-7.096-15.252-25.756-57.735-43.598-31.683
			c-13.143,19.201-2.029,55.222,3.628,74.66c6.56,22.484,14.181,40.273,13.499,63.857c-0.689,23.75-8.328,51.652-14.448,74.518
			c-4.188,15.676-13.692,37.104-27.59,41.15c-37.933,11.055-43.329-64.885-58.199-70.846c-17.931-7.188-32.209,13.766-41.746,25.742
			c-13.677,17.172-25.073,32.789-43.149,45.362c-18.435,12.828-29.799,23.787-34.799,42.019c-2.037,7.438-4.383,15.108-5.633,22.707
			c-2.013,12.272-5.998,24.084-9.854,35.905c-14.732,45.217-28.516,71.576-42.079,115.403c-3.522,11.383-8.06,23.763-9.237,35.674
			c-2.272,23.041-3.002,46.187-4.246,69.295c-1.16,21.859-4.406,43.361-4.586,65.229c-0.315,38.248-2.638,75.729-4.967,113.942
			c-2.906,47.717-6.607,95.375-9.107,143.097c-2.874,54.924-4.1,108.194-8.563,164.86c-1.883,23.89-1.729,47.838-3.078,71.73
			c-3.522,62.424-7.734,128.049-10.746,192.088c-0.787,16.719-1.875,33.414-2.801,50.127c-1.59,28.805-5.179,57.916-1.51,86.564
			c4.367,34.063,10.18,58.248,16.405,82.77c6.802,26.791,10.187,54.32,10.95,81.934c0.999,35.976-5.26,72.57-41.876,94.683
			c-6.494,3.92-13.831,9.731-20.146,12.369l-6.104,132.865c193.632,10.926,363.522,58.89,550.571,81.522
			c60.869,7.369,152.615-0.901,206.537,29.478c27.68,15.584,39.156,31.836,34.903,52.879c-7.801,6.067-1.291-0.212,13.287-11.461
			c57.502-44.354,134.013-62.16,205.149-68.019c51.795-4.276,102.601-1.705,152.438,6.021l6.429-113.992
			c2.354-37.097,5.91-74.461,11.858-111.158c8.062-49.701,22.419-112.117,58.401-149.612c30.164-31.422,70.61-35.926,109.832-25.248
			c86.845,23.641,116.756,83.602,155.692-16.183c24.741-63.418,49.888-109.571,77.591-157.963
			C6675.521,6090.441,6688.947,6055.936,6636.966,6039.957z" style="stroke:black;fill:#e64438"/><path id="182622918" parent_id="182622911" order="95" structure_id="390" d="M5974.534,6724.26c-24.96,8.033-51.332,17.063-74.604,31.904
			c-8.418,5.36-41.688,19.795-43.369,30.74c7.735-50.496-66.682-66.771-100.222-74.867c57.599-33.146,119.028-64.287,187.724-56.804
			c21.34,2.324,72.721,11.722,80.463,37.59C6031.855,6717.309,5988.764,6719.684,5974.534,6724.26z" style="stroke:black;fill:#ff5d50"/><path id="182622924" parent_id="182622911" order="96" structure_id="55" d="M5258.549,5008.575l-0.061-1.647
			c5.57-5.101,12.482-10.248,21.193-18.045c14.043-12.565,41.633-63.487,61.99-50.59c13.938,8.836,13.143,26.461,18.872,40.029
			c5.901,14.018,17.338,33.727,35.181,32.813c14.229-0.729,22.523-20.727,32.199-28.953c18.394-15.637,42.209-12.504,64.66-8.807
			c34.06,5.629,57.817,19.842,68.28,55.18c33.872,114.39-75.276,213.179-170.133,247.191
			c-48.321,17.33-99.931,54.482-150.231,64.754c-14.814,3.023-39.914,2.033-55.125,1.025c-1.938-25.553-4.867-51.174,4.135-75.73
			c9.838-26.867,31.655-49.484,46.308-73.799c16.903-28.053,25.535-59.426,27.163-92.027
			C5264.514,5069.285,5259.121,5039.023,5258.549,5008.575" style="stroke:black;fill:#ff5d50"/><path id="182622925" parent_id="182622911" order="97" structure_id="110" d="M5258.549,5008.575l-1.204,0.3
			c-1.007,0.701-1.987,1.395-2.953,2.086c-13.05,9.348-22.267,17.947-27.925,29.484L5226,5040.5
			c-6.063,13.961-8.713,36.646-12.211,51.197c-3.611,15.008-11.323,29.137-16.404,43.67
			c-17.801,50.844-41.129,97.547-44.237,152.766c-0.115,2.036-1.235,22.955-3.063,57.148l35.379-2.584l-35.375,2.519l35.375-2.519
			c-0.029-0.392-0.056-0.781-0.084-1.172c-1.939-25.553-4.869-51.174,4.133-75.73c9.838-26.867,31.656-49.484,46.309-73.799
			c16.904-28.053,25.535-59.426,27.163-92.027C5264.514,5069.285,5259.121,5039.023,5258.549,5008.575z" style="stroke:black;fill:#ff5d50"/><path id="182622922" parent_id="182622911" order="98" structure_id="523" d="M5195.439,5341.986c0.535,7.181,1.02,14.844,1.067,22.574
			c0.138,22.237-5.663,42.565-11.272,62.226c-4.28,15.004-8.324,29.176-9.844,43.972c-1.953,19.029-2.885,39.377-3.787,59.055
			c-0.494,10.77-1.004,21.906-1.675,32.674c-5.433,87.27,0.842,175.167,7.696,249.639c1.144,12.428,1.914,24.888,2.391,37.355
			l2.302,1.042c-4.138,36.09,38.269,21.819,54.006,9l0.119,0.142c18.532-14.75,41.135-23.291,63.472-23.291
			c7.98,0,15.879,1.082,23.474,3.217c13.099,3.684,25.858,10.119,37.929,19.129l6.72,5.016l0.993,1.162
			c26.242,22.484,49.705,57.863,71.509,107.753c13.08,29.92,31.688,59.937,49.687,88.964c15.737,25.387,32.013,51.637,44.869,78.173
			c15.338,31.651,21.816,75.005,17.775,118.942c-4.111,44.705-18.074,84.808-39.316,112.92
			c-10.533,13.938-25.094,27.099-41.778,37.886l0.299,0.383l-11.838,6.504c-24.629,13.534-50.312,20.688-74.265,20.688
			c-0.002,0-0.002,0-0.004,0c-21.08,0-39.963-5.608-55.793-16.42l2.16,2.892c-29.269-3.653-76.451-14.858-100.244,10.382
			c-25.447,26.999-27.537,117.145-25.447,133.494c7.695,60.23,110.846,94.229,177.965,98.592
			c28.207,1.834,77.519,16.523,106.598,19.091c41.068,3.625,103.708,15.769,142.977,20.254c51.969,5.937,68.61-3.19,121.196,9.217
			l0.964-2.569c57.6-33.146,119.027-64.287,187.723-56.804c10.67,1.162,28.851,4.092,45.33,9.965l1.672,0.44
			c-21.486-51.426-62.428-97.899-91.588-141.772c-75.274-113.295-127.271-251.24-97.188-387.834l1.095,0.079
			c-15.539-0.266-30.084-3.165-41.506-9.104c-126.422-65.748-207.504-196.274-315.938-285.326
			c-60.05-49.324-120.944-115.453-115.758-199.449c9.24-149.549,97.503-262.358,173.752-381.342l-3.58,7.57
			c6-39.004-29.69-29.596-63.007-15.002l-0.023,0.848c-15.457,8.709-31.211,15.924-46.588,21.438
			c-48.32,17.33-99.931,54.482-150.231,64.754c-11.608,2.369-29.53,2.273-44.063,1.637L5195.439,5341.986z" style="stroke:black;fill:#ff5547"/><path id="182622923" parent_id="182622911" order="99" structure_id="133" d="M5105.167,6187.266
			c-3.522,66.109,29.01,129.775,29.051,195.972c0.024,34.312-9.188,59.065-32.038,83.692
			c-17.646,19.031-30.625,20.955-30.625,20.955s58.824,13.133,78.857-4.762c52.688-47.066,54.172-118.959,43.394-183.594
			c-5.431-32.652-19.465-61.402-28.426-92.889c-11.015-38.767-0.935-72.127,3.563-110.773c3.352-28.883-4.271-55.549-2.914-83.896
			c3.148-66.244,7.728-132.715,1.64-198.93c-7.687-83.52-12.938-167.328-7.72-251.178c1.892-30.324,2.436-62.31,5.496-92.127
			c3.676-35.801,21.291-68.107,21.063-105.111c-0.046-7.284-0.5-14.604-1.046-21.928l-35.378,2.584
			C5139.542,5542.521,5105.479,6181.568,5105.167,6187.266z" style="stroke:black;fill:#ff5547"/><path id="182622921" parent_id="182622911" order="100" structure_id="748" d="M5500.404,6371.979c0.242-0.279,0.484-0.561,0.725-0.842
			c0.559-0.654,1.104-1.313,1.643-1.974c0.22-0.269,0.441-0.534,0.658-0.804c0.73-0.91,1.449-1.826,2.144-2.744
			c0.647-0.855,1.286-1.725,1.918-2.604c0.052-0.072,0.103-0.146,0.153-0.221c18.967-26.515,30.849-63.211,34.877-101.07
			c0.139-1.3,0.269-2.604,0.389-3.911c3.757-40.849-1.875-80.996-15.467-110.793c-0.441-0.967-0.893-1.925-1.352-2.873
			c-0.814-1.685-1.646-3.366-2.488-5.046c-0.438-0.873-0.887-1.745-1.331-2.617c-0.399-0.784-0.796-1.57-1.201-2.354
			c-0.589-1.142-1.188-2.281-1.79-3.422c-0.262-0.494-0.518-0.988-0.779-1.482c-0.691-1.303-1.393-2.604-2.098-3.904
			c-0.172-0.317-0.343-0.638-0.516-0.955c-0.773-1.422-1.556-2.842-2.344-4.262c-0.102-0.184-0.201-0.366-0.304-0.549
			c-0.842-1.514-1.69-3.027-2.548-4.539c-0.045-0.078-0.09-0.158-0.134-0.236c-9.165-16.166-19.104-32.195-28.837-47.896
			c-2.365-3.814-4.741-7.648-7.113-11.496c-0.381-0.617-0.762-1.236-1.143-1.854c-0.676-1.099-1.352-2.194-2.027-3.295
			c-7.992-13.03-15.797-26.088-23.002-39.233c-0.031-0.058-0.063-0.114-0.095-0.172c-0.974-1.776-1.935-3.556-2.884-5.336
			c-0.08-0.149-0.161-0.301-0.241-0.45c-0.888-1.669-1.765-3.339-2.629-5.012c-0.132-0.254-0.265-0.506-0.396-0.761
			c-0.797-1.545-1.58-3.092-2.355-4.64c-0.186-0.369-0.373-0.738-0.557-1.107c-0.707-1.42-1.4-2.843-2.088-4.266
			c-0.231-0.479-0.467-0.955-0.695-1.434c-0.634-1.325-1.252-2.652-1.869-3.979c-0.257-0.556-0.521-1.109-0.775-1.664
			c-0.685-1.492-1.35-2.985-2.01-4.48c-0.153-0.35-0.316-0.7-0.471-1.051c-0.646-1.48-1.296-2.947-1.945-4.4
			c-0.043-0.098-0.086-0.193-0.129-0.291c-11.205-25.037-22.774-46.08-34.897-63.418c-0.17-0.242-0.339-0.485-0.509-0.729
			c-0.491-0.695-0.982-1.384-1.477-2.068c-0.362-0.504-0.727-1.006-1.092-1.506c-0.369-0.504-0.739-1.008-1.109-1.506
			c-0.563-0.756-1.13-1.508-1.701-2.258c-0.209-0.273-0.417-0.551-0.627-0.824c-2.566-3.336-5.218-6.588-7.953-9.736
			c-0.061-0.068-0.122-0.141-0.184-0.21c-0.905-1.039-1.819-2.067-2.744-3.085c-0.004-0.004-0.008-0.008-0.012-0.012
			c-1.885-2.07-3.811-4.09-5.773-6.051c-0.102-0.102-0.203-0.201-0.307-0.304c-0.83-0.824-1.668-1.638-2.512-2.44
			c-0.185-0.174-0.367-0.351-0.551-0.522c-0.922-0.87-1.853-1.729-2.791-2.571c-0.027-0.024-0.056-0.051-0.084-0.076
			c-3.099-2.776-6.289-5.403-9.574-7.858l-0.068-0.052l-3.539,7.041c-25.391,43.227,3.449,94.982,7.329,139.191
			c4.506,51.434,3.985,99.973,15.163,151.521c17.191,79.304,22.85,170.978,72.721,234.979l8.41,8.188l0,0l0.063-0.033
			c3.729-2.052,7.373-4.229,10.911-6.521c0.399-0.258,0.794-0.523,1.192-0.787c0.692-0.455,1.387-0.914,2.071-1.379
			c0.481-0.326,0.959-0.658,1.438-0.99c0.611-0.424,1.223-0.851,1.828-1.28c0.455-0.325,0.91-0.649,1.36-0.979
			c0.668-0.483,1.329-0.975,1.987-1.467c0.367-0.273,0.735-0.547,1.101-0.824c0.999-0.761,1.99-1.526,2.966-2.304
			c0.016-0.013,0.031-0.024,0.047-0.036c1.053-0.84,2.09-1.689,3.113-2.546c0.147-0.124,0.293-0.25,0.44-0.375
			c0.856-0.724,1.705-1.452,2.541-2.187c0.202-0.179,0.403-0.357,0.604-0.537c0.804-0.713,1.597-1.433,2.379-2.155
			c0.17-0.157,0.34-0.313,0.508-0.472c0.91-0.851,1.81-1.705,2.688-2.568c0.021-0.02,0.039-0.037,0.058-0.057
			c1.836-1.801,3.598-3.631,5.289-5.48c0.203-0.223,0.401-0.443,0.604-0.666C5499.217,6373.337,5499.816,6372.659,5500.404,6371.979
			z" style="stroke:black;fill:#ff4c3e"/><path id="182622920" parent_id="182622911" order="101" structure_id="756" d="M5374.287,6164.486
			c-11.177-51.549-10.657-100.088-15.163-151.521c-3.88-44.209-32.72-95.965-7.329-139.191l3.539-7.041l0,0
			c-11.084-8.272-22.743-14.166-34.65-17.517c-6.715-1.888-13.703-2.843-20.77-2.843c-28.782,0-58.157,15.872-76.661,41.422
			c-29.918,41.316-13.153,100.432,1.636,152.592c5.73,20.204,11.144,39.288,13.699,56.402c2.483,16.633,4.627,33.519,6.701,49.857
			c4.478,35.282,9.106,71.766,17.334,107.073c10.633,45.662,23.865,102.49,54.074,140.731c16.881,21.361,40.832,32.652,69.27,32.652
			h0.003c22.276,0,46.292-6.727,69.448-19.451l-8.409-8.189C5397.137,6335.463,5391.479,6243.789,5374.287,6164.486z" style="stroke:black;fill:#ff4c3e"/><path id="182622919" parent_id="182622911" order="102" structure_id="226" d="M6024.908,6706.805
			c-6.729-73.319-66.552-136.438-105.432-194.938c-65.604-98.736-129.006-248.82-99.938-370.268l4.757-6.633
			c39.788-4.914,79.896-25.021,87.479-54.101c24.367-93.418,56.178-342.106,130.416-417.877
			c41.227-42.078,148.735,84.709,191.205,120.586c92.785,78.416,182.819,153.242,288.535,213.799
			c28.856,16.53,121.951,38.108,143.03,62.894c35.683,41.955-54.506,117.639-69.767,166.727
			c-11.348,36.508-19.033,74.754-43.279,104.395c-44.757,54.717-74.814-10.014-137.139-18.844
			c-40.244-5.711-79.668-6.174-109.83,25.248c-35.983,37.496-50.342,99.912-58.402,149.613
			c-5.949,36.696-9.505,74.063-11.857,111.158l-6.43,113.992c-49.839-7.726-100.645-10.297-152.438-6.021
			c-16.03,1.319-32.334,3.247-48.631,5.946L6024.908,6706.805z" style="stroke:black;fill:#f2483b"/><path id="182623022" parent_id="182622911" order="103" structure_id="1009" d="M7690.337,6126.786
			c15.659-17.849,31.171-36.036,46.536-54.567c33.051-39.842,146.542-152.319,183.589-201.013l21.487,8.705
			c-29.205,43.974-54.287,87.181-98.03,126.171c-45.315,40.316-87.806,86.62-130.132,130.02c-1.5,1.498-3.452,3.635-5.842,6.164
			L7690.337,6126.786z" style="stroke:black;fill:#cccccc"/><path id="182623023" parent_id="182622911" order="104" structure_id="1009" d="M6051.091,3190.27
			c-0.62-12.605-2.14-25.512-4.479-38.631l19.33-3.238c1.832,10.344,3.412,20.673,4.652,31.148
			c6.82,56.163-10.689,120.11,10.85,173.607c25.563,63.381,91.541,92.08,113.242,163.4c23.598,77.506-0.059,144.104-50.16,205.796
			c-105.119,129.351-247.506,302.469-431.439,301.579l0.109-15.229c44.765,0.444,91.528-15.397,147.838-52.847
			c17.301-11.512,12.631-37.916-6.516-77.791c-15.564-32.514-31.775-63.897-48.531-94.48
			c33.896,52.862,72.189,82.413,152.088,28.229c122.918-83.308,132.019-272.604-0.283-341.677
			c-99.142-51.799-222.117-95.786-320.771-142.978c-62.659-30.011-98.813-63.52-148.528-111.946
			c-11.604-11.229-54.947-64.873-72.349-54.533c-5.683,3.342-6.077,42.781-9.78,49.397c-31.816,57.813-98.408,53.223-153.511,64.849
			l20.399-361.489c102.322,83.946,140.699,212.32,247.24,296.755c90.518,71.875,196.433,129.051,304.433,169.945
			c38.312,14.482,136.042,60.292,175.995,26.499C6034.666,3378.072,6053.21,3229.434,6051.091,3190.27z" style="stroke:black;fill:#cccccc"/><path id="182623024" parent_id="182622911" order="105" structure_id="1009" d="M5613.882,3983.535
			c34.071,15.824,66.106,24.96,99.313,25.168l-0.11,15.229c-12.655,0.035-25.427-0.852-38.399-2.583
			c-67.172-9.034-111.106-46.313-164.636-83.217c-45.922-31.563-93.127-44.8-146.444-58.881
			c-46.271-12.103-96.521-14.188-143.614-22.009l2.655-47.053c99.504,7.03,177.477,45.979,265.49,89.907
			C5522.871,3917.46,5564.721,3960.697,5613.882,3983.535z" style="stroke:black;fill:#cccccc"/><path id="182623025" parent_id="182622911" order="106" structure_id="1009" d="M6383.827,4424.816
			c4.101-45,7.694-90.033,10.536-135.156c6.673-106.451,30.91-214.887,63.086-318.256c23.701-76.207,67.852-147.422,85.262-225.432
			c9.806-43.916-15.446-120.185,33.482-147.652c34.141-19.161,84.855,12.658,109.921,34.449
			c76.485,66.56,32.403,160.802,16.933,242.139c-12.5,65.731-21.519,126.617-21.957,193.193
			c-0.422,64.449-1.776,131.508-21.762,193.389c-29.814,92.283-84.547,175.713-118.257,267.096
			c-55.497,150.457-84.313,367.771,15.683,505.379c18.75,25.791,27.914,50.109,3.929,77.019
			c-48.378,54.237-106.788,7.627-137.269-40.297c-30.203-47.508-35.153-116.957-48.4-171.006
			c-28.166-114.854-15.293-237.771-3.143-353.789C6376.102,4505.57,6380.167,4465.211,6383.827,4424.816z" style="stroke:black;fill:#cccccc"/><path id="182623026" parent_id="182622911" order="107" structure_id="1009" d="M6157.225,4497.744
			c-7.703-5.336-6.178-19.898-1.803-38.58c11.104-47.443,41.934-88.127,44.555-138.24c4.635-88.395-116.608-156.699-76.414-244.998
			c28.184-61.92,115.556-135.883,189.559-118.861c34.668,7.971,55.05,38.18,60.342,71.045
			c12.973,80.529-23.409,171.928-54.344,244.141c-15.414,36.017-27.623,73.769-44.254,109.17
			c-15.935,33.92-55.236,101.517-92.51,114.89C6169.749,4500.842,6161.826,4500.947,6157.225,4497.744z" style="stroke:black;fill:#cccccc"/><path id="182623027" parent_id="182622911" order="108" structure_id="1009" d="M5442.152,4885.232
			c-3.627-35.48-33.848-105.912-16.801-130.804c17.856-26.047,36.502,16.431,43.597,31.683
			c27.289,58.733,115.456,108.526,143.493,20.535c17.979-56.435,2.441-122.853,16.632-180.498
			c12.581-51.084,55.131-77.336,76.017-122.689c39.311-85.416-75.644-157.008-146.635-156.68
			c-135.312,0.621-177.561,126.254-191.578,238.873c-10.35,83.244-23.742,164.608-22.33,248.576
			c0.729,44.762-6.389,147.143,40.203,174.36c39.092,22.826,56.877-91.908,57.729-115.644
			C5442.552,4890.625,5442.43,4888.027,5442.152,4885.232z" style="stroke:black;fill:#cccccc"/><path id="182623028" parent_id="182622911" order="109" structure_id="1009" d="M5065.369,6622.137
			c193.632,10.926,363.521,58.89,550.57,81.523c60.871,7.369,152.617-0.902,206.539,29.477
			c27.679,15.584,39.155,31.836,34.902,52.879c-26.072,20.283-67.695,95.254-117.648,119.931
			c-84.912,41.879-203.996,5.853-293.982-1.875c-130.434-11.215-265.029-27.412-395.43-39.974L5065.369,6622.137z" style="stroke:black;fill:#cccccc"/><path id="182623029" parent_id="182622911" order="110" structure_id="1009" d="M7602.585,5728.146
			c88.873-39.013-51.601-64.224-95.304-73.459c-37.045-7.83-54.439-18.535-91.283-29.949
			c-23.621-7.316-73.402-36.799-103.932-40.986c-48.426-6.645,48.021,134.734,68.346,152.105
			C7435.73,5783.168,7534.693,5757.947,7602.585,5728.146z" style="stroke:black;fill:#cccccc"/><path id="182623030" parent_id="182622911" order="111" structure_id="1009" d="M8197.408,3419.866
			c-205.486-324.119-468.773-599.136-819.764-764.298c-109.072-51.36-215.527-103.405-324.402-155.338
			c-118.438-56.551-251.432-97.105-382.658-107.009c-77.68-5.799-155.852-16.121-233.516-8.932
			c-53.73,5.043-91.053,24.666-131.805,34.271c-97.113,22.908-166.368,84.686-241.695,115.399
			c-45.334,18.504-234.832,128.024-281.713,97.24c76.179,50.087,128.832,155.623,174.824,233.144
			c51.838,87.508,92.129,183.439,109.262,284.057l-19.33,3.238c-26.896-154.783-161.109-340.43-271.063-435.213
			c-115.274-99.33-353.461-28.438-490.033-20.328l10.5-186.056c46.979-1.928,92.834-4.584,137.444-8.812
			c47.276-4.241,93.229-10.14,137.821-18.445c62.326-11.301,122.084-27.243,179.377-49.651
			c55.502-21.677,108.688-49.478,159.65-85.147c-0.545,0.803-1.089,1.604-1.717,2.401l10.127-8.336
			c44.082-31.729,86.422-69.466,127.007-114.462c9.944-11.011,20.084-21.011,30.424-30.168c9.278-8.051,18.69-15.512,28.31-22.212
			c16.207-11.323,32.806-20.71,49.801-28.325c119.928-53.922,258.17-20.813,389.619,24.984c16.574,5.763,33.053,11.771,49.363,17.77
			c78.525,29.157,160.813,52.116,238.246,85.874c124.152,54.125,249.439,107.317,372.475,165.042
			c85.16,39.938,169.201,81.978,251.022,127.971c135.317,76.067,258.571,166.773,369.916,269.377
			c163.415,150.582,301.325,326.78,414.447,520.313c22.559,38.403,43.996,77.492,64.565,117.198
			c95.771,185.309,172.208,376.854,212.418,581.921c7.574,38.39,20.641,75.341,28.053,113.639c0.336,1.436,0.584,2.946,0.836,4.377
			c1.721,9.338,3.354,18.754,4.732,28.238c11.922,76.432,15.855,155.741,17.078,232.9c0.092,5.748,0.096,11.576,0.188,17.326
			c1.316,112.379,19.227,219.867-20.734,327.588c-18.555,49.984-35.465,101.812-50.431,153.082
			c-3.644,11.449-7.198,22.82-10.925,34.266c-0.083-0.004-0.083-0.004-0.166-0.009c-28.276,62.924-44.315,130.284-77.109,192.12
			c-2.614,5.014-5.306,9.939-8.086,14.945c-2.692,4.926-5.473,9.931-8.33,14.848c-27.997,49.12-59.474,96.462-91.991,143.078
			c-4.164,5.926-8.333,11.936-12.497,17.859c-8.867,12.569-17.735,25.141-26.687,37.705c-21.793,30.655-43.591,61.394-64.661,92.506
			c-3.536,5.129-6.994,10.345-10.457,15.645c-1.906,2.807-3.813,5.611-5.637,8.423c-12.563,19.021-27.646,36.985-39.943,55.771
			c-0.093,0.162-0.186,0.322-0.359,0.479c-11.029,16.942-16.487,36.948-24.043,55.753c-7.387,15.816-14.912,32.625-22.77,49.415
			c0,0,0,0-0.083-0.005c-2.993,1.413-4.812,2.643-4.937,3.385c-0.678,4.624-1.482,8.574-2.52,12.18
			c-4.525,9.4-9.214,18.711-14.055,27.762c-0.092,0.161-0.18,0.24-0.271,0.4c-1.999,2.967-4.184,6.258-6.551,9.871
			c-16.32,25.137-32.966,47.174-50.988,68.552c-0.082-0.005-0.082-0.005-0.004,0.083c-5.345,4.693-10.985,8.787-16.845,12.286
			c-20.847,12.394-61.763,35.228-55.175-10.688c3.816-26.342,43.609-55.814,59.479-75.898
			c16.049-20.323,87.256-100.473,45.891-112.463c-59.798-17.277-123.371,144.473-203.469,94.496
			c-5.714-3.484,141.195-97.427,153.684-104.798c69.48-40.701,111.858-101.248,158.974-163.108
			c57.454-75.43,120.597-145.459,175.619-223.523c72.577-102.965,108.879-237.279,139.976-357.57
			c92.168-357.189,1.346-727.535-113.944-1067.045C8314.496,3655.247,8269.041,3532.8,8197.408,3419.866z" style="stroke:black;fill:#cccccc"/><path id="182623019" parent_id="182622911" order="112" structure_id="81" d="M6519.982,2427.254
			c-58.028-28.355-183.939-15.925-214.695-8.686c-97.169,22.875-166.432,84.693-241.718,115.4
			c-45.351,18.495-234.825,128.03-281.701,97.214c76.162,50.082,128.842,155.652,174.792,233.162
			c57.209,96.523,100.262,203.308,113.915,315.245c6.834,56.133-10.666,120.055,10.899,173.579
			c25.521,63.361,91.487,92.06,113.217,163.412c23.58,77.461-0.063,144.11-50.146,205.755
			c-112.282,138.229-267.172,326.33-469.861,299.041c-13.574-1.827-26.184-4.822-38.127-8.717l-2.979,105.695
			c94.563,21.121,191.396,87.815,270.104,13.412c26.063-24.635,58.23-32.769,90.537-43.076c34.285-10.943,48.49-39.57,74.148-62.611
			c46.583-41.828,96.357-63.455,132.632-118.984c26.04-39.865,44.821-95.406,57.299-141.194
			c10.382-38.105,12.63-78.074,21.308-116.562c28.93-128.538-13.435-270.16-14.838-400.02
			c-1.811-168.205,24.936-303.796,100.465-454.887c39.246-78.48,78.289-158.259,123.436-233.561
			c12.712-21.186,56.552-62.48,60.285-86.738C6552.346,2452.166,6540.35,2437.198,6519.982,2427.254z" style="stroke:black;fill:#aaaaaa"/><path id="182623020" parent_id="182622911" order="113" structure_id="129" d="M5178.018,4601.338
			c48.597,13.832,61.438,121.059,60.512,199.785c-0.98,82.238-2.271,171.375-16.721,252.518
			c-13.994,78.508-64.174,154.877-68.662,234.492c-0.779,13.779-47.615,892.449-47.98,899.133
			c-4.529,84.965,86.917,256.299-33.611,300.619L5178.018,4601.338z" style="stroke:black;fill:#aaaaaa"/><path id="182623021" parent_id="182622911" order="114" structure_id="129" d="M5510.036,3938.164
			c-45.926-31.627-93.078-44.859-146.464-58.896c-46.21-12.151-96.463-14.177-143.564-22.029l-17.932,317.726
			c28.661,1.226,83.598,1.043,118.63-7.209c84.767-19.946,169.524-51.394,257.563-55.153c18.246-0.783,36.733,1.606,55.31,5.756
			l2.979-105.695C5589.378,3997.277,5552.787,3967.62,5510.036,3938.164z" style="stroke:black;fill:#aaaaaa"/></g>
</g>
</svg>