<?xml version="1.0" encoding="utf-8"?>
<!-- Generator: Adobe Illustrator 16.0.0, SVG Export Plug-In . SVG Version: 6.00 Build 0)  -->
<!DOCTYPE svg PUBLIC "-//W3C//DTD SVG 1.1//EN" "http://www.w3.org/Graphics/SVG/1.1/DTD/svg11.dtd">
<svg version="1.1" id="Layer_1" xmlns="http://www.w3.org/2000/svg" xmlns:xlink="http://www.w3.org/1999/xlink" x="0px" y="0px"
	 width="9744.011px" height="6823.461px" viewBox="0 0 9744.011 6823.461" enable-background="new 0 0 9744.011 6823.461"
	 xml:space="preserve">
<g transform="scale(1.0)">
	<g id="_x31_80606943" transform=" scale(1.0, 1.0)">
		<path id="_x31_80606945" fill="none" stroke="#000000" stroke-width="49.9771" d="M6429.442,3126.071
			c74.244,291.735,48.014,623.764,36.747,907.22c-6.842,172.215,16.474,352.444-27.774,516.02
			c-39.205,144.931-106.743,255.921-203.203,348.585c-178.866,171.841-398.45,336.946-648.348,250.035
			c-247.916-86.235-428.283-211.018-570.887-491.361c-100.854-198.28-108.229-439.096-97.31-657.345
			c7.868-157.233-1.358-313.753,5.445-470.973c11.625-268.606,27.065-525.4,76.286-784.251
			c45.535-239.455,141.48-370.975,340.824-425.344c178.312-48.638,342.135-1.606,520.342,79.334
			c140.176,63.666,275.956,222.277,383.297,351.072C6336.907,2859.501,6394.38,2988.294,6429.442,3126.071z"/>
		<path id="_x31_80606946" fill="none" stroke="#000000" stroke-width="49.9771" d="M6429.442,3126.071
			c-35.062-137.777-92.535-266.57-184.578-377.009c-107.341-128.796-243.123-287.405-383.299-351.072
			c-178.207-80.94-342.027-127.972-520.342-79.333c-199.343,54.37-295.287,185.89-340.822,425.342
			c-49.221,258.852-64.662,515.647-76.286,784.252c-6.806,157.22,2.423,313.74-5.447,470.973
			c-10.919,218.249-3.544,459.064,97.31,657.345c142.605,280.344,322.971,405.126,570.887,491.359
			c249.897,86.911,469.481-78.192,648.348-250.033c96.46-92.664,164-203.655,203.203-348.585
			c44.25-163.576,20.935-343.805,27.776-516.018C6477.456,3749.835,6503.687,3417.807,6429.442,3126.071z M5705.681,3293.276
			c-5.867,39.062-22.086,65.901-38.436,97.031c-14.215,27.061-16.627,62.255-22.843,93.449
			c-6.362,31.921-10.241,64.619-15.104,96.921c-3.273,21.742-9.957,124.072-34.195,125.261
			c-6.485-26.743,8.307-64.737,12.023-91.084c4.817-34.147,8.271-69.295,9.061-104.324c1.535-68.155,11.713-134.946,12.692-202.641
			c0.619-43.233,0.146-83.389-2.823-126.763c-1.55-22.683-0.869-69.491,26.149-37.735
			C5685.458,3182.476,5713.884,3238.667,5705.681,3293.276z"/>
		<path id="_x31_80606947" fill="none" stroke="#000000" stroke-width="49.9771" d="M6429.442,3126.071
			c-35.062-137.777-92.535-266.57-184.578-377.009c-107.341-128.796-243.123-287.405-383.299-351.072
			c-178.207-80.94-342.027-127.972-520.342-79.333c-199.343,54.37-295.287,185.89-340.822,425.342
			c-49.221,258.852-64.662,515.647-76.286,784.252c-6.806,157.22,2.423,313.74-5.447,470.973
			c-10.919,218.249-3.544,459.064,97.31,657.345c142.605,280.344,322.971,405.126,570.887,491.359
			c249.897,86.911,469.481-78.192,648.348-250.033c96.46-92.664,164-203.655,203.203-348.585
			c44.25-163.576,20.935-343.805,27.776-516.018C6477.456,3749.835,6503.687,3417.807,6429.442,3126.071z M5705.681,3293.276
			c-5.867,39.062-22.086,65.901-38.436,97.031c-14.215,27.061-16.627,62.255-22.843,93.449
			c-6.362,31.921-10.241,64.619-15.104,96.921c-3.273,21.742-9.957,124.072-34.195,125.261
			c-6.485-26.743,8.307-64.737,12.023-91.084c4.817-34.147,8.271-69.295,9.061-104.324c1.535-68.155,11.713-134.946,12.692-202.641
			c0.619-43.233,0.146-83.389-2.823-126.763c-1.55-22.683-0.869-69.491,26.149-37.735
			C5685.458,3182.476,5713.884,3238.667,5705.681,3293.276z"/>
		<path id="_x31_80606948" fill="none" stroke="#000000" stroke-width="49.9771" d="M6429.442,3126.071
			c-35.062-137.777-92.535-266.57-184.578-377.009c-107.341-128.796-243.123-287.405-383.299-351.072
			c-178.207-80.94-342.027-127.972-520.342-79.333c-199.343,54.37-295.287,185.89-340.822,425.342
			c-49.221,258.852-64.662,515.647-76.286,784.252c-6.806,157.22,2.423,313.74-5.447,470.973
			c-10.919,218.249-3.544,459.064,97.31,657.345c142.605,280.344,322.971,405.126,570.887,491.359
			c249.897,86.911,469.481-78.192,648.348-250.033c96.46-92.664,164-203.655,203.203-348.585
			c44.25-163.576,20.935-343.805,27.776-516.018C6477.456,3749.835,6503.687,3417.807,6429.442,3126.071z M5705.681,3293.276
			c-5.867,39.062-22.086,65.901-38.436,97.031c-14.215,27.061-16.627,62.255-22.843,93.449
			c-6.362,31.921-10.241,64.619-15.104,96.921c-3.273,21.742-9.957,124.072-34.195,125.261
			c-6.485-26.743,8.307-64.737,12.023-91.084c4.817-34.147,8.271-69.295,9.061-104.324c1.535-68.155,11.713-134.946,12.692-202.641
			c0.619-43.233,0.146-83.389-2.823-126.763c-1.55-22.683-0.869-69.491,26.149-37.735
			C5685.458,3182.476,5713.884,3238.667,5705.681,3293.276z"/>
		<path id="_x31_80606949" fill="none" stroke="#000000" stroke-width="49.9771" d="M6410.376,3127.388
			c20.445,172.934-9.07,344.506-47.703,509.844c-54.448,233.008-176.404,420.968-242.117,647.508
			c-20.632,71.146-45.749,144.529-59.637,219.108c-8.824,47.429-23.493,92.444-35.08,138.657
			c-10.131,40.381-11.537,89.944-26.956,126.991c-31.8,76.419-97.565,150.354-155.353,196.128
			c-264.187,209.279-562.378-101.173-681.685-410.842c-70.036-181.781-102.299-377.229-118.224-571.667
			c-7.83-95.555-12.268-191.776-15.165-287.256c-3.047-100.011,11.238-198.288,7.86-298.857
			c-3.954-117.735-38.656-233.037-35.932-351.266c3.881-168.284,5.352-362.852,66.526-512.349
			c49.796-121.698,168.466-185.877,274.319-214.745c178.31-48.636,342.133-1.603,520.34,79.339
			c140.174,63.667,275.954,222.282,383.297,351.08c49.985,59.971,102.373,130.541,128.631,210.341
			C6391.935,3015.425,6403.763,3071.483,6410.376,3127.388z M5144.827,2718.2c-24.461,49.927-19.859,106.622-19.025,164.898
			c0.83,57.96,9.146,116.066,20.254,173.28c9.879,50.912,14.488,102.371,24.527,153.43c12.039,61.222,31.764,120.514,31.18,182.221
			c-0.652,69.261-9.172,137.325-7.268,206.942c1.504,54.701-3.746,108.607-12.676,161.178
			c-7.466,43.926-26.713,78.307-33.94,121.617c-39.936,239.195,40.712,436.411,132.421,651.556
			c28.72,67.376,56.367,138.007,96.398,197.417c57.184,84.869,147.5,114.525,228.828,137.173
			c35.008,9.754,72.75,39.475,107.89,40.419c42.803,1.142,75.357-38.836,101.934-72.755c19.286-24.621,28.599-60.34,39.45-92.033
			c11.52-33.627,22.385-67.625,34.033-101.16c19.832-57.1,27.424-115.257,18.529-180.044c-4.047-29.43-15.781-59.772-16.426-89.529
			c-0.664-30.151,7.162-63.922,13.967-92.185c18.735-77.715,0.518-167.317,47.968-231.394
			c30.681-41.422,43.341-66.033,55.142-121.536c19.81-93.223,104.496-131.499,145.686-206.771
			c55.031-100.584,115.426-196.308,131.152-322.58c7.729-62.048-4.563-148.008-9.477-212.144
			c-3.381-44.099-21.896-83.096-29.102-126.275c-5.355-32.126-14.725-62.104-32.449-88.021
			c-19.431-28.417-44.736-39.565-67.42-62.316c-10.28-10.312-19.978-22.301-28.272-35.062
			c-13.013-20.027-18.562-44.125-22.262-68.146c-3.931-25.482-15.074-48.089-25.869-71.451
			c-43.899-94.99-119.761-137.839-184.642-209.819c-36.413-40.396-61.547-75.899-108.695-87.338
			c-39.793-9.657-80.598-21.098-119.853-35.295c-87.041-31.477-182.073-56.294-267.985-25.996
			c-58.877,20.764-120.362,50.551-160.293,108.053C5183.337,2549.594,5180.615,2645.154,5144.827,2718.2z"/>
		<path id="_x31_80606953" fill="none" stroke="#000000" stroke-width="49.9771" d="M5897.29,3619.32
			c-3.02,3.598-72.948,68.273-96.097,100.822c-82.433,115.893-87.974,307.03-84.196,465.664
			c2.283,95.457,22.441,193.775,26.838,288.943c4.432,96.158,8.27,186.906-69.079,197.939
			c-31.207,4.448-58.087-12.391-85.849-31.054c-71.33-47.951-120.931-116.495-165.793-210.732
			c-29.752-62.5-48.553-142.786-65.012-212.156c-24.982-105.39-22.941-207.798,4.299-308.199
			c35.224-129.825,97.542-266.743,88.912-412.573c-3.353-56.617-4.338-131.188-19.771-185.077
			c-15.251-53.233-51.098-151.637-64.205-206.064c-41.551-172.636-26.807-405.226,93.853-489.695
			c79.123-55.374,170.631-27.536,244.755,41.457c53.521,49.802,114.612,111.461,153.506,184.158
			c38.424,71.811,76.033,111.956,115.454,182.741c34.132,61.275,70.278,141.417,81.487,216.773
			C6081.507,3411.218,5977.161,3523.866,5897.29,3619.32z M5626.048,3181.108c2.971,43.372,3.444,83.531,2.826,126.766
			c-0.977,67.697-11.162,134.485-12.689,202.646c-0.791,35.027-4.252,70.18-9.062,104.32c-3.717,26.355-18.515,64.342-12.027,91.092
			c24.245-1.191,30.924-103.525,34.193-125.261c4.871-32.306,8.744-65.003,15.104-96.924c6.227-31.196,8.638-66.396,22.846-93.452
			c16.354-31.132,32.572-57.978,38.438-97.035c8.204-54.614-20.229-110.804-53.476-149.888
			C5625.173,3111.614,5624.5,3158.421,5626.048,3181.108z"/>
		<path id="_x31_80606952" fill="none" stroke="#000000" stroke-width="49.9771" d="M5402.157,4450.791
			c38.547,107.901,88.689,187.958,173.553,239.877c33.021,20.204,72.662,48.034,109.716,43.836
			c91.83-10.408,87.017-106.508,81.469-208.352c-5.498-100.794-13.993-203.187-16.981-304.248
			c-4.957-167.941,1.074-370.144,98.641-491.448c27.402-34.058,94.536-103.357,98.109-107.116
			c94.586-99.71,201.879-193.534,171.563-372.755c-13.532-79.937-41.155-154.807-81.872-220.201
			c-47.023-75.566-91.047-152.901-136.885-229.537c-46.395-77.586-103.4-141.844-167.105-195.435
			c-88.242-74.242-196.818-113.764-290.619-56.457c-143.051,87.412-170.349,392.072-120.498,575.46
			c15.727,57.816,44.009,109.221,62.264,165.796c18.496,57.306,28.99,137.389,33.135,197.361
			c10.676,154.484-46.822,283.244-88.278,420.063c-32.062,105.812-26.333,215.162,3.643,327.11
			C5351.756,4308.439,5376.735,4379.619,5402.157,4450.791z M5362.406,3910.554c35.229-129.821,97.539-266.737,88.909-412.562
			c-3.346-56.62-4.338-131.186-19.77-185.077c-15.254-53.23-51.098-151.632-64.205-206.06
			c-41.549-172.626-26.803-405.217,93.855-489.682c79.123-55.374,170.632-27.538,244.756,41.452
			c53.518,49.801,114.609,111.457,153.502,184.153c38.426,71.81,76.035,111.952,115.454,182.737
			c34.14,61.271,70.28,141.413,81.487,216.767c25.111,168.95-79.227,281.593-159.104,377.046
			c-3.018,3.6-72.948,68.278-96.097,100.819c-82.435,115.892-87.976,307.029-84.192,465.658
			c2.285,95.454,22.438,193.767,26.838,288.935c4.43,96.156,8.268,186.904-69.082,197.938
			c-31.212,4.452-58.086-12.391-85.852-31.054c-71.33-47.948-120.927-116.491-165.787-210.731
			c-29.758-62.493-48.551-142.779-65.012-212.147C5333.12,4113.361,5335.168,4010.958,5362.406,3910.554z"/>
		<path id="_x31_80606951" fill="none" stroke="#000000" stroke-width="49.9771" d="M5946.655,3623.332
			c-3.572,3.76-70.701,73.059-98.102,107.118c-97.572,121.305-103.6,323.51-98.646,491.46
			c2.988,101.064,11.486,203.458,16.986,304.258c5.545,101.836,10.357,197.939-81.473,208.349
			c-37.051,4.198-76.695-23.628-109.715-43.835c-84.864-51.922-135.008-131.979-173.555-239.883
			c-25.414-71.18-50.402-142.359-70.142-216.053c-29.983-111.948-35.71-221.299-3.648-327.109
			c41.452-136.828,98.956-265.589,88.276-420.076c-4.139-59.973-14.641-140.061-33.127-197.364
			c-18.266-56.58-46.549-107.983-62.268-165.801c-49.852-183.395-22.555-488.062,120.498-575.473
			c93.8-57.308,202.377-17.782,290.616,56.46c63.706,53.594,120.704,117.854,167.108,195.442
			c45.84,76.635,89.863,153.974,136.883,229.541c40.719,65.396,68.344,140.267,81.871,220.207
			C6148.539,3429.797,6041.241,3523.622,5946.655,3623.332z M6148.979,3244.332c-14.464-82.238-43.943-159.316-87.333-226.73
			c-50.129-77.895-97.061-157.594-145.918-236.577c-49.467-79.966-110.206-146.284-178.07-201.674
			c-94.009-76.722-209.623-117.858-309.436-59.387c-152.228,89.176-188.09,401.303-134.855,590.043
			c16.787,59.516,46.936,112.472,66.418,170.725c19.736,58.985,24.299,123.828,28.766,185.492
			c11.498,158.848-35.9,309.343-79.918,449.786c-34.043,108.617-34.902,220.15-2.891,335.356
			c21.076,75.835,47.727,149.126,74.854,222.404c41.125,111.089,101.616,194.512,192.003,248.274
			c35.183,20.927,77.41,49.712,116.852,45.569c97.758-10.258,106.644-107.279,100.65-211.987
			c-5.932-103.632-21.686-209.757-24.946-313.655c-5.423-172.656-7.384-348.169,96.386-472.393
			c29.145-34.881,100.551-105.793,104.354-109.652C6066.517,3557.889,6181.405,3428.695,6148.979,3244.332z"/>
		<path id="_x31_80606950" fill="none" stroke="#000000" stroke-width="49.9771" d="M5280.298,4533.315
			c28.721,67.376,56.375,138.003,96.404,197.41c57.182,84.867,147.497,114.523,228.826,137.164
			c35.007,9.752,72.75,39.473,107.891,40.418c42.803,1.142,75.357-38.836,101.931-72.752c19.292-24.618,28.601-60.339,39.454-92.028
			c11.514-33.629,22.386-67.626,34.035-101.164c19.828-57.095,27.42-115.255,18.525-180.037
			c-4.045-29.434-15.782-59.774-16.432-89.525c-0.656-30.157,7.162-63.926,13.975-92.187c18.729-77.712,0.518-167.315,47.97-231.388
			c30.681-41.421,43.334-66.033,55.142-121.535c19.809-93.215,104.496-131.492,145.677-206.764
			c55.04-100.582,115.431-196.306,131.155-322.574c7.729-62.046-4.562-148.004-9.472-212.141
			c-3.386-44.095-21.901-83.092-29.099-126.272c-5.361-32.124-14.734-62.103-32.455-88.019
			c-19.423-28.417-44.73-39.568-67.42-62.314c-10.273-10.312-19.976-22.302-28.27-35.061c-13.008-20.03-18.557-44.129-22.266-68.143
			c-3.928-25.481-15.071-48.087-25.868-71.456c-43.897-94.984-119.761-137.831-184.64-209.808
			c-36.411-40.396-61.545-75.898-108.693-87.337c-39.795-9.655-80.59-21.095-119.853-35.291
			c-87.043-31.478-182.073-56.289-267.986-25.996c-58.876,20.767-120.362,50.552-160.292,108.057
			c-45.189,65.059-47.917,160.618-83.705,233.663c-24.461,49.926-19.859,106.619-19.027,164.893
			c0.83,57.959,9.152,116.062,20.252,173.273c9.884,50.913,14.497,102.369,24.533,153.426
			c12.039,61.223,31.759,120.511,31.176,182.223c-0.653,69.258-9.166,137.319-7.262,206.932
			c1.504,54.707-3.746,108.61-12.676,161.178c-7.468,43.926-26.714,78.308-33.949,121.617
			C5107.945,4120.965,5188.597,4318.174,5280.298,4533.315z M5308.64,3916.018c44.017-140.438,91.41-290.934,79.912-449.778
			c-4.457-61.661-9.025-126.501-28.762-185.484c-19.478-58.253-49.632-111.211-66.418-170.722
			c-53.228-188.737-17.365-500.864,134.855-590.035c99.817-58.467,215.428-17.335,309.439,59.389
			c67.859,55.385,128.6,121.699,178.064,201.664c48.859,78.981,95.797,158.676,145.919,236.571
			c43.395,67.411,72.869,144.487,87.332,226.724c32.425,184.36-82.466,313.554-183.079,415.595
			c-3.804,3.854-75.211,74.766-104.355,109.646c-103.77,124.223-101.809,299.732-96.394,472.389
			c3.266,103.889,19.016,210.012,24.95,313.646c5.992,104.7-2.893,201.721-100.65,211.984
			c-39.443,4.141-81.666-24.642-116.85-45.571c-90.389-53.761-150.877-137.183-192.004-248.267
			c-27.127-73.276-53.775-146.564-74.854-222.398C5273.733,4136.167,5274.599,4024.634,5308.64,3916.018z"/>
		<path id="_x31_80606955" fill="none" stroke="#000000" stroke-width="49.9771" d="M6429.448,3126.085
			c-14.295-56.182-32.322-110.869-54.898-163.429c17.832,54.944,29.35,109.914,35.836,164.748
			c20.444,172.928-9.078,344.499-47.705,509.829c-54.45,233.008-176.416,420.965-242.129,647.499
			c-20.632,71.142-45.746,144.529-59.629,219.102c-8.826,47.429-23.497,92.444-35.08,138.659
			c-10.133,40.377-11.537,89.943-26.957,126.989c-31.797,76.415-97.564,150.349-155.35,196.12
			c-264.19,209.279-562.379-101.164-681.685-410.826c-70.034-181.776-102.299-377.224-118.228-571.653
			c-7.824-95.555-12.262-191.771-15.165-287.248c-3.045-100.011,11.238-198.286,7.862-298.854
			c-3.947-117.731-38.654-233.028-35.93-351.255c3.814-165.312,5.305-355.985,63.353-504.385
			c-27.847,56.566-48.329,123.74-63.333,202.643c-49.219,258.851-64.665,515.646-76.287,784.245
			c-6.809,157.219,2.42,313.738-5.452,470.968c-10.917,218.246-3.541,459.061,97.312,657.339
			c142.597,280.341,322.966,405.124,570.88,491.355c249.898,86.916,469.481-78.192,648.354-250.026
			c96.455-92.667,163.997-203.657,203.199-348.586c44.249-163.572,20.934-343.799,27.776-516.012
			C6477.458,3749.845,6503.696,3417.818,6429.448,3126.085z"/>
		<path id="_x31_80606954" fill="none" stroke="#000000" stroke-width="49.9771" d="M5652.204,3143.392
			c33.254,39.083,61.68,95.276,53.477,149.883c-5.867,39.062-22.086,65.902-38.436,97.032
			c-14.215,27.061-16.627,62.255-22.843,93.449c-6.362,31.921-10.241,64.619-15.104,96.921
			c-3.273,21.742-9.957,124.072-34.195,125.261c-6.485-26.743,8.307-64.737,12.023-91.084c4.817-34.147,8.271-69.295,9.061-104.324
			c1.535-68.155,11.713-134.946,12.692-202.642c0.619-43.233,0.146-83.388-2.823-126.762
			C5624.504,3158.444,5625.187,3111.637,5652.204,3143.392z"/>
	</g>
</g>
</svg>
