<?xml version="1.0" encoding="utf-8"?>
<!-- Generator: Adobe Illustrator 16.0.0, SVG Export Plug-In . SVG Version: 6.00 Build 0)  -->
<!DOCTYPE svg PUBLIC "-//W3C//DTD SVG 1.1//EN" "http://www.w3.org/Graphics/SVG/1.1/DTD/svg11.dtd">
<svg version="1.1" id="Layer_1" xmlns="http://www.w3.org/2000/svg" xmlns:xlink="http://www.w3.org/1999/xlink" x="0px" y="0px"
	 width="9744.01px" height="6823.46px" viewBox="0 0 9744.01 6823.46" enable-background="new 0 0 9744.01 6823.46"
	 xml:space="preserve">
<g transform="scale(1.0)">
	<g id="_x31_80609003" transform=" scale(1.0, 1.0)">
		<path id="_x31_80609005" fill="none" stroke="#000000" stroke-width="80" d="M6546.939,2962.834
			c88.994,161.808,113.428,344.488,111.615,524.433c-0.85,84.34-7.112,169.242-12.505,252.837
			c-5.508,85.195-32.374,161.224-40.251,245.795c-6.789,72.9,3.256,147.651-3.279,219.134
			c-6.481,70.95-31.093,140.554-50.379,206.791c-51.643,177.4-133.57,321.931-210.904,483.031
			c-68.479,142.639-129.861,295.197-228.275,412.95c-284.306,340.192-675.857-66.552-887.9-356.041
			c-68.885-94.049-143.52-189.483-185.934-301.983c-40.086-106.315-54.654-224.105-73.086-335.242
			c-43.768-263.891-42.238-527.216-40.48-790.394c2.153-322.09,5.613-621.64,76.222-929.574
			c65.026-283.593,412.523-260.549,625.507-228.907c222.65,33.08,443.418,122.761,634.564,274.884
			C6370.551,2727.052,6476.3,2834.41,6546.939,2962.834z"/>
		<path id="_x31_80609006" fill="none" stroke="#000000" stroke-width="80" d="M6546.926,2962.788
			c-70.635-128.423-176.379-235.768-285.068-322.264c-191.138-152.117-411.891-241.797-634.527-274.869
			c-212.978-31.639-560.447-54.678-625.467,228.892c-70.607,307.921-74.065,607.451-76.217,929.524
			c-1.756,263.16-3.287,526.47,40.482,790.343c18.432,111.129,32.998,228.907,73.085,335.223
			c42.409,112.49,117.037,207.916,185.915,301.959c212.036,289.477,603.561,696.19,887.852,356.02
			c98.404-117.746,159.785-270.294,228.256-412.932c77.332-161.09,159.252-305.608,210.893-482.996
			c19.281-66.242,43.893-135.84,50.374-206.781c6.532-71.476-3.507-146.223,3.277-219.122
			c7.872-84.567,34.741-160.583,40.251-245.781c5.385-83.585,11.648-168.478,12.5-252.819
			C6660.345,3307.251,6635.913,3124.582,6546.926,2962.788z M5826.131,3476.438c-49.151,83.139-74.854,188.854-69.67,294.7
			c1.207,24.729,11.371,154.074-16.881,161.355c-17.785,4.585-21.149-26.542-22.475-40.698c-2.584-27.482,4.827-55.4,6.383-82.389
			c4.582-79.498-5.282-159.396-8.867-239.186c-0.983-22.032-3.533-42.975-7.207-63.38c-8.498-47.155-23.086-91.435-38.621-139.564
			c-3.705-11.48-25.183-50.821-14.961-61.168c12.516-12.655,58.383,52.563,67.576,60.582c17.303,15.097,37.182,24.823,58.062,28.595
			c18.572,3.352,39.059-5.677,53.344,13.905C5849.65,3432.287,5837.443,3457.297,5826.131,3476.438z"/>
		<path id="_x31_80609007" fill="none" stroke="#000000" stroke-width="80" d="M6546.926,2962.788
			c-70.635-128.423-176.379-235.768-285.068-322.264c-191.138-152.117-411.891-241.797-634.527-274.869
			c-212.978-31.639-560.447-54.678-625.467,228.892c-70.607,307.921-74.065,607.451-76.217,929.524
			c-1.756,263.16-3.287,526.47,40.482,790.343c18.432,111.129,32.998,228.907,73.085,335.223
			c42.409,112.49,117.037,207.916,185.915,301.959c212.036,289.477,603.561,696.19,887.852,356.02
			c98.404-117.746,159.785-270.294,228.256-412.932c77.332-161.09,159.252-305.608,210.893-482.996
			c19.281-66.242,43.893-135.84,50.374-206.781c6.532-71.476-3.507-146.223,3.277-219.122
			c7.872-84.567,34.741-160.583,40.251-245.781c5.385-83.585,11.648-168.478,12.5-252.819
			C6660.345,3307.251,6635.913,3124.582,6546.926,2962.788z M5826.131,3476.438c-49.151,83.139-74.854,188.854-69.67,294.7
			c1.207,24.729,11.371,154.074-16.881,161.355c-17.785,4.585-21.149-26.542-22.475-40.698c-2.584-27.482,4.827-55.4,6.383-82.389
			c4.582-79.498-5.282-159.396-8.867-239.186c-0.983-22.032-3.533-42.975-7.207-63.38c-8.498-47.155-23.086-91.435-38.621-139.564
			c-3.705-11.48-25.183-50.821-14.961-61.168c12.516-12.655,58.383,52.563,67.576,60.582c17.303,15.097,37.182,24.823,58.062,28.595
			c18.572,3.352,39.059-5.677,53.344,13.905C5849.65,3432.287,5837.443,3457.297,5826.131,3476.438z"/>
		<path id="_x31_80609008" fill="none" stroke="#000000" stroke-width="80" d="M6546.948,2962.852
			c-70.642-128.431-176.397-235.787-285.087-322.294c-191.152-152.133-411.924-241.821-634.583-274.896
			c-212.989-31.637-560.487-54.682-625.517,228.916c-70.616,307.941-74.071,607.499-76.221,929.6
			c-1.768,263.184-3.286,526.51,40.484,790.404c18.432,111.143,32.994,228.931,73.084,335.253
			c42.418,112.5,117.048,207.937,185.938,301.989c212.046,289.496,603.606,696.242,887.922,356.043
			c98.411-117.756,159.795-270.317,228.272-412.962c77.336-161.103,159.265-305.634,210.909-483.034
			c19.292-66.248,43.896-135.85,50.387-206.798c6.529-71.487-3.516-146.236,3.269-219.14
			c7.882-84.576,34.751-160.603,40.261-245.811c5.387-83.586,11.652-168.488,12.503-252.836
			C6660.383,3307.344,6635.943,3124.659,6546.948,2962.852z M5826.131,3476.438c-49.151,83.139-74.854,188.854-69.67,294.7
			c1.207,24.729,11.371,154.074-16.881,161.355c-17.785,4.585-21.149-26.542-22.475-40.698c-2.584-27.482,4.827-55.4,6.383-82.389
			c4.582-79.498-5.282-159.396-8.867-239.186c-0.983-22.032-3.533-42.975-7.207-63.38c-8.498-47.155-23.086-91.435-38.621-139.564
			c-3.705-11.48-25.183-50.821-14.961-61.168c12.516-12.655,58.383,52.563,67.576,60.582c17.303,15.097,37.182,24.823,58.062,28.595
			c18.572,3.352,39.059-5.677,53.344,13.905C5849.65,3432.287,5837.443,3457.297,5826.131,3476.438z M6011.124,3046.594
			c2.697,24.909,6.773,49.835,6.282,74.712c-0.43,21.159-7.872,39.656-17.506,56.517c-14.738,25.801-42.441,78.017-58.125,96.634
			c-19.344,22.95-44.818,36.538-71.913,48.54c-23.419,10.374-54.687,13.508-80.433,9.664c-51.607-7.703-99.6-39.535-133.527-86.63
			c-35.777-49.655-49.072-115.246-52.395-175.515c1.356,7.093-17.375-155.428-1.078-239.575
			c11.574-59.698,33.953-135.459,89.838-155.039c31.484-11.036,75.623-6.135,108.279,5.792
			c89.245,32.604,144.512,136.31,177.431,228.914C5993.649,2954.703,6006.096,3000.194,6011.124,3046.594z"/>
		<path id="_x31_80609009" fill="none" stroke="#000000" stroke-width="80" d="M6491.898,4463.92
			c8.754-105.072-23.714-211.904-16.84-315.27c6.516-97.886,38.244-187.71,73.621-273.591
			c45.541-110.555,79.844-227.614,97.424-350.653c25.532-178.755-9.926-399.219-99.145-561.423
			c-1.498-2.726-3.018-5.437-4.547-8.142c-0.448-0.792-0.896-1.582-1.345-2.371c-1.375-2.414-2.759-4.817-4.157-7.213
			c-0.727-1.251-1.467-2.494-2.201-3.738c-0.701-1.185-1.402-2.37-2.108-3.55c-70.176-117.407-169.161-216.432-270.721-297.25
			c-36.646-29.165-74.385-56.025-113.015-80.639c-12.926-7.44-29.341-17.252-51.278-31.046
			c74.787,71.355,81.096,122.006,133.989,175.998c68.643,70.045,123.72,152.26,180.453,234.683
			c38.186,55.479,78.541,107.768,99.776,174.214c23.563,73.697,17.192,149.848,0.187,220.406
			c-14.562,60.403-46.348,103.622-42.432,169.175c6.316,105.503-59.835,167.544-99.023,253.277
			c-44.621,97.633-101.453,201.831-113.5,314.284c-7.529,70.303-0.391,153.647,4.916,225.775
			c4.689,63.845,27.699,119.449,38.512,181.613c16.654,95.74-8.963,174.916-31.627,262.785
			c-19.754,76.6-52.812,136.051-87.229,203.012c-65.871,128.128-193.67,327.613-353.546,276.324
			c-141.231-45.311-170.134-213.409-250.339-333.292c-59.124-88.372-109.603-181.78-163.403-274.002
			c-33.822-57.983-75.539-106.714-94.944-173.165c-18.482-63.295-37.832-124.146-50.607-189.625
			c-10.281-52.717-15.91-108.205-30.025-160.036c-28.397-104.312,9.469-209.974-7.271-315.214
			c-8.926-56.098-26.021-109.641-35.143-165.514c-11.561-70.973-34.953-139.547-43.498-211.287
			c-13.606-114.257-17.367-231.259-22.312-345.777c-9.562-221.424,19.834-493.354,188.768-620.81
			c94.772-71.505,212.016-70.032,326.251-63.078c-30.189-4.27-60.353-8.69-90.526-12.403
			c-189.531-21.117-436.623-16.376-527.932,166.713c-4.742,11.004-8.929,22.655-12.49,35.008
			c-34.646,120.113-31.219,250.549-26.626,378.847c4.749,132.383,1.665,263.824-1.724,395.412
			c-2.918,113.29-23.381,251.905,10.371,364.426c12.314,41.053,23.278,81.214,31.449,123.273
			c22.427,115.254,32.351,231.703,43.568,347.799c11.043,114.229,27.755,218.533,60.085,330.371
			c23.358,80.799,61.536,148.465,108.371,215.947c72.587,104.586,147.824,207.071,221.95,310.299
			c110.109,153.339,227.657,341.603,405.255,388.523c88.292,23.318,190.108-38.715,245.649-105.167
			c98.418-117.742,159.803-270.288,228.281-412.933C6403.829,4764.494,6479.012,4618.361,6491.898,4463.92z"/>
		<path id="_x31_80609013" fill="none" stroke="#000000" stroke-width="80" d="M6011.147,3046.503
			c2.694,24.903,6.773,49.826,6.28,74.7l-9.027,42.426c31.036-54.623,14.887,25.098,10.967,36.266
			c-31.172,88.862-85.636,157.656-125.984,239.826c-29.04,59.159-51.612,128.14-76.851,186.132
			c-31.401,72.141-43.175,155.969-39.729,238.858c3.702,88.993,3.413,183.084,23.288,271.265
			c6.727,29.853,22.135,70.706,8.525,99.128c-22.769,47.568-51.174,2.244-66.173-29.479
			c-20.522-43.436-29.443-92.764-32.054-140.108c-0.668-12.168,5.468-143.157,13.984-137.808l0.439-2.996
			c-5.248-9.291-6.84-24.459-7.66-33.18c-2.586-27.481,4.823-55.395,6.378-82.392c4.581-79.484-5.284-159.382-8.869-239.173
			c-0.989-22.021-3.53-42.969-7.206-63.373c-8.5-47.153-23.089-91.435-38.623-139.563c-3.701-11.476-25.182-50.817-14.96-61.164
			c0,0,8.56-2.976,16.677,4.771c-82.277-54.572-83.158-165.795-86.895-263.225c-1.048-27.188-15.768-109.587,12.229-111.281
			c0.354-40.897,6.615-105.26,6.615-105.26c11.572-59.693,33.945-135.451,89.824-155.023c31.482-11.035,75.613-6.138,108.268,5.788
			c75.301,27.511,126.401,105.625,160.295,184.988l4.422,3.276c30.92-1.913,60.859,23.617,86.197,68.694
			c6.313,11.223,18.25,42.776,1.181,44.251c-20.504,1.781-37.801-40.521-66.622-48.428
			C5986.064,2934.423,6007.373,3011.709,6011.147,3046.503z M5392.515,3303.586c47.604,144.098,102.713,279.359,104.19,438.782
			c1.66,179.318-11.947,360.464,11.661,540.267c9.201,70.048,39.108,127.104,65.58,192.078
			c27.918,68.492,58.46,135.936,97.229,198.201c67.282,108.076,144.759,239.951,272.515,215.408
			c95.426-18.34,125.988-125.92,136.536-222.916c15.116-139.077-28.101-280.242-59.426-418.397
			c-34.104-150.354-34.434-317.745,7.475-458.756c37.205-125.166,137.361-216.89,195.488-327.997
			c31.201-59.633,73.092-138.585,82.096-209.061c14.632-114.548-44.003-250.716-106.104-344.534
			c-44.769-67.616-103.445-132.816-160.757-186.608c-164.522-154.419-471.105-246.756-623.845-64.785
			c-109.733,130.738-103.2,356.603-57.842,530.991C5367.748,3226.402,5379.861,3265.309,5392.515,3303.586z"/>
		<path id="_x31_80609012" fill="none" stroke="#000000" stroke-width="80" d="M5422.916,2588.533
			c-25.504,24.397-46.072,58.106-62.14,91.319c-32.778,67.801-48.496,147.795-64.534,223.715
			c-10.473,49.601-5.176,107.1,7.537,157.922c12.834,51.324,19.36,104.224,29.427,156.729
			c28.647,149.484,107.214,285.878,122.362,438.292c11.346,114.239-9.893,226.248-0.099,339.041
			c14.646,168.661-2.874,358.385,86.721,509.787c45.041,76.117,82.694,157.227,129.684,232.002
			c36.478,58.066,66.637,142.802,116.447,187.102c40.858,36.336,115.032,43.192,158.794,25.299
			c36.943-15.107,74.781-45.531,100.717-79.863c31.17-41.24,52.562-94.162,62.976-150.238
			c27.687-149.102-14.451-288.582-55.491-435.721c-39.277-140.832-44.369-290.853,20.551-413.519
			c25.285-47.78,31.883-92.192,42.215-149.953c12.29-68.745,81.535-107.336,109.823-166.853
			c64.764-136.308,159.792-301.576,96.128-472.855c-47.355-127.292-130.801-237.481-219.818-331.998
			c-19.84-21.062-60.658-48.889-68.154-79.929c-0.002-0.011-0.004-0.023-0.008-0.033l-34.975,18.956
			c13.312,10.465,25.994,21.334,37.928,32.534c57.313,53.795,115.994,118.993,160.763,186.617
			c62.103,93.814,120.753,229.99,106.114,344.537c-9.01,70.482-50.908,149.44-82.109,209.079
			c-58.146,111.106-158.299,202.836-195.512,328.011c-41.916,141.011-41.591,308.404-7.492,458.77
			c31.33,138.159,74.545,279.327,59.423,418.415c-10.547,96.996-41.116,204.583-136.552,222.916
			c-127.766,24.553-205.25-107.328-272.533-215.406c-38.773-62.268-69.32-129.713-97.229-198.214
			c-26.471-64.975-56.385-122.032-65.583-192.088c-23.609-179.802-9.997-360.96-11.655-540.28
			c-1.474-159.427-56.585-294.694-104.189-438.792c-12.648-38.285-24.77-77.19-35.207-117.333
			c-45.353-174.394-51.882-400.267,57.861-531.008c36.316-43.264,81.332-71.014,131.063-86.122l-31.742-20.426
			C5488.003,2566.24,5449.181,2563.415,5422.916,2588.533z"/>
		<path id="_x31_80609011" fill="none" stroke="#000000" stroke-width="80" d="M6324.031,3080.736
			c63.666,171.28-31.362,336.546-96.129,472.856c-28.287,59.513-97.531,98.107-109.82,166.851
			c-10.337,57.763-16.932,102.172-42.217,149.953c-64.92,122.666-59.826,272.688-20.549,413.519
			c41.04,147.139,83.178,286.619,55.491,435.725c-10.413,56.072-31.806,108.996-62.978,150.235
			c-25.934,34.331-63.773,64.755-100.715,79.862c-43.762,17.894-117.935,11.039-158.796-25.297
			c-49.81-44.302-79.97-129.037-116.445-187.104c-46.989-74.771-84.646-155.885-129.686-232.002
			c-89.593-151.4-72.075-341.127-86.721-509.787c-9.792-112.791,11.442-224.802,0.099-339.041
			c-15.148-152.411-93.715-288.806-122.36-438.291c-10.067-52.504-16.594-105.405-29.429-156.727
			c-12.713-50.826-18.01-108.321-7.536-157.923c16.039-75.92,31.757-155.914,64.535-223.716
			c16.065-33.212,36.634-66.921,62.14-91.317c28.211-26.981,70.918-21.707,97.178-43.781
			c-18.837-45.926-102.865,12.75-123.975,27.567c-46.145,32.392-58.988,91.926-78.574,146.024
			c-22.715,62.785-46.016,128.3-61.783,194.415c-12.056,50.599-6.803,109.165,6.695,160.895
			c13.638,52.239,20.297,106.115,30.86,159.568c30.073,152.188,115.336,290.785,130.483,446.027
			c15.937,163.414-15.975,321.489-6.33,483.941c6.645,111.868,36.494,263.869,99.646,358.58
			c57.637,86.426,101.609,183.589,154.218,273.681c67.46,115.526,145.685,250.909,281.429,199.196
			c40.912-15.589,82.959-46.783,111.932-81.906c34.8-42.18,58.934-96.229,71-153.431c16.746-79.442,16.227-170.483,4.621-253.677
			c-9.415-67.49-37.176-141.465-51.793-210.795c-14.821-70.359-42.123-138.629-37.767-211.406
			c3.827-63.845,24.945-137.505,55.101-189.39c28.379-48.824,36.113-94.117,48.102-153.028
			c14.262-70.119,91.037-109.811,122.852-170.604c68.973-131.84,152.526-317.107,90.519-480.958
			c-42.929-113.449-124.36-200.015-193.452-294.043c-9.326-12.699-128.596-167.687-137.02-144.383
			c-2.15,5.997-2.211,11.95-0.797,17.783c7.496,31.041,48.314,58.867,68.152,79.928
			C6193.232,2843.255,6276.677,2953.444,6324.031,3080.736z"/>
		<path id="_x31_80609010" fill="none" stroke="#000000" stroke-width="80" d="M6511.806,3113.93
			c-21.235-66.448-61.589-118.737-99.776-174.214c-56.734-82.424-111.811-164.639-180.453-234.684
			c-52.889-53.983-59.201-104.629-133.959-175.968c-148.754-85.573-309.023-139.257-470.296-163.211
			c-22.736-3.377-47.013-6.655-72.312-9.475c30.176,3.712,60.334,8.132,90.526,12.405c-114.235-6.957-231.477-8.43-326.251,63.077
			c-168.934,127.455-198.33,399.386-188.767,620.81c4.946,114.518,8.707,231.52,22.312,345.775
			c8.546,71.742,31.938,140.314,43.497,211.289c9.121,55.875,26.217,109.414,35.141,165.514
			c16.744,105.24-21.123,210.902,7.273,315.214c14.115,51.831,19.741,107.319,30.025,160.034
			c12.775,65.479,32.125,126.33,50.607,189.629c19.405,66.447,61.122,115.182,94.943,173.16
			c53.8,92.225,104.282,185.633,163.404,274.006c80.205,119.882,109.107,287.979,250.341,333.293
			c159.874,51.285,287.673-148.196,353.546-276.326c34.415-66.963,67.473-126.414,87.226-203.012
			c22.667-87.869,48.282-167.043,31.628-262.783c-10.812-62.166-33.822-117.772-38.512-181.615
			c-5.309-72.126-12.445-155.473-4.917-225.775c12.048-112.455,68.882-216.651,113.501-314.284
			c39.188-85.735,105.342-147.774,99.023-253.276c-3.918-65.556,27.867-108.771,42.434-169.176
			C6528.996,3263.776,6535.369,3187.625,6511.806,3113.93z M6276.811,3570.41c-31.812,60.793-108.588,100.484-122.85,170.604
			c-11.988,58.911-19.725,104.204-48.104,153.028c-30.155,51.885-51.272,125.543-55.101,189.39
			c-4.356,72.777,22.945,141.045,37.769,211.404c14.617,69.332,42.376,143.307,51.793,210.797
			c11.607,83.193,12.125,174.234-4.623,253.675c-12.064,57.206-36.2,111.253-70.997,153.433
			c-28.974,35.12-71.022,66.315-111.935,81.906c-135.744,51.711-213.967-83.67-281.427-199.196
			c-52.61-90.094-96.583-187.255-154.22-273.683c-63.152-94.711-93.002-246.71-99.645-358.578
			c-9.646-162.452,22.265-320.533,6.328-483.941c-15.147-155.242-100.41-293.839-130.483-446.028
			c-10.565-53.453-17.221-107.329-30.861-159.568c-13.495-51.729-18.75-110.296-6.691-160.896
			c15.765-66.112,39.065-131.627,61.78-194.413c19.586-54.098,32.434-113.633,78.576-146.025
			c21.107-14.817,105.138-73.491,123.973-27.567c-1.812,1.524-3.709,2.905-5.667,4.188l31.742,20.427
			c144.284-43.832,328.284,18.834,454.906,118.364l34.978-18.956c-1.402-5.821-1.343-11.764,0.805-17.749
			c8.422-23.305,127.693,131.684,137.02,144.383c69.092,94.026,150.525,180.594,193.452,294.043
			C6429.337,3253.301,6345.783,3438.568,6276.811,3570.41z"/>
		<path id="_x31_80609014" fill="none" stroke="#000000" stroke-width="80" d="M5800.545,2681.694
			c-32.654-11.928-76.795-16.828-108.277-5.792c-55.885,19.579-78.264,95.341-89.838,155.04
			c-16.299,84.146,2.433,246.667,1.078,239.575c3.322,60.27,16.617,125.86,52.395,175.514
			c33.928,47.095,81.922,78.928,133.525,86.631c25.746,3.843,57.016,0.708,80.435-9.665c27.094-12.002,52.567-25.591,71.913-48.539
			c15.682-18.618,43.387-70.833,58.123-96.634c9.636-16.861,17.078-35.357,17.508-56.517c0.491-24.878-3.587-49.804-6.282-74.713
			c-5.03-46.4-17.475-91.891-33.146-135.984C5945.059,2818.004,5889.792,2714.298,5800.545,2681.694z"/>
		<path id="_x31_80609015" fill="none" stroke="#000000" stroke-width="80" d="M6005.769,3166.633
			c-13.919,25.993-27.442,54.653-49.472,87.007c-4.596,6.751-9.269,15.025-14.49,20.702c-20.191,21.965-44.812,36.533-71.906,48.529
			c-23.416,10.373-54.681,13.509-80.424,9.665c-51.603-7.698-99.588-39.527-133.512-86.621
			c-37.745-52.405-47.552-113.968-52.572-176.903c-1.168-14.622-8.582-46.917,4.229-56.308
			c15.304-11.223,24.434,16.717,35.516,24.755c15.519,11.253,33.647,20.746,51.123,25.659c36.619,10.299,74.047,7.981,109.062-1.696
			c33.757-9.326,66.888-19.673,92.262-46.487c21.461-22.685,54.544-82.683,90.481-80.511
			C6011.88,3019.093,6028.895,3135.778,6005.769,3166.633z"/>
		<path id="_x31_80609017" fill="none" stroke="#000000" stroke-width="80" d="M6546.96,2962.981
			c89.215,162.205,124.676,382.668,99.144,561.423c-17.58,123.039-51.883,240.101-97.424,350.653
			c-35.377,85.883-67.105,175.707-73.619,273.593c-6.876,103.365,25.592,210.197,16.838,315.268
			c-12.887,154.439-88.069,300.576-150.678,430.979c77.338-161.088,159.268-305.613,210.914-483.008
			c19.283-66.234,43.898-135.832,50.38-206.774c6.539-71.483-3.505-146.229,3.283-219.128
			c7.878-84.57,34.753-160.586,40.263-245.786c5.389-83.583,11.656-168.479,12.51-252.819
			C6660.383,3307.448,6635.951,3124.775,6546.96,2962.981z"/>
		<path id="_x31_80609018" fill="none" stroke="#000000" stroke-width="80" d="M5867.29,5412.998
			c-177.598-46.921-295.146-235.185-405.255-388.523c-74.126-103.228-149.363-205.713-221.95-310.299
			c-46.835-67.484-85.013-135.15-108.371-215.949c-32.33-111.836-49.042-216.141-60.085-330.369
			c-11.218-116.098-21.144-232.547-43.568-347.799c-8.171-42.062-19.135-82.221-31.451-123.275
			c-33.752-112.521-13.287-251.136-10.369-364.425c3.389-131.589,6.473-263.03,1.724-395.411
			c-4.593-128.299-8.021-258.734,26.626-378.848c3.562-12.353,7.748-24.004,12.49-35.007
			c-10.662,21.375-19.201,45.181-25.271,71.664c-70.612,307.919-74.074,607.455-76.238,929.529
			c-1.759,263.166-3.294,526.477,40.464,790.354c18.437,111.131,32.997,228.911,73.082,335.223
			c42.411,112.493,117.042,207.92,185.931,301.965c212.035,289.473,603.574,696.191,887.893,356.005
			C6057.398,5374.283,5955.578,5436.314,5867.29,5412.998z"/>
		<path id="_x31_80609019" fill="none" stroke="#000000" stroke-width="80" d="M5941.79,3274.574
			c-20.196,21.966-44.816,36.537-71.917,48.532c-23.414,10.375-54.683,13.512-80.422,9.665
			c-51.608-7.698-99.594-39.527-133.527-86.618c-37.744-52.405-47.555-113.972-52.572-176.908
			c-1.169-14.623-8.576-46.922,4.236-56.314c15.303-11.226,24.434,16.721,35.516,24.754c15.514,11.26,33.643,20.75,51.122,25.666
			c36.622,10.297,74.052,7.98,109.069-1.698c33.768-9.329,66.904-19.678,92.273-46.491c21.465-22.682,51.583-77.358,84.588-80.163
			c30.02-2.536,52.029,49.855,72.533,48.08c17.07-1.478,5.133-33.031-1.184-44.259c-41.242-73.354-94.652-94.953-144.644-30.731
			c-51.198,65.763-167.764,126.678-248.278,71.031c-12.324-8.514-20.786-22.559-32.744-31.487
			c-6.818-5.094-34.004-17.445-40.203-7.706c-14.349,22.526-4.173,80.513-2.023,107.724c7.662,97.192,1.062,202.691,86.898,263.231
			c20.249,14.271,32.322,39.533,50.896,55.809c17.303,15.097,37.184,24.826,58.061,28.595c18.574,3.352,39.061-5.677,53.346,13.905
			c16.836,23.098,4.629,48.107-6.684,67.248c-49.151,83.139-74.854,188.854-69.67,294.706
			c7.838,160.236-9.654,170.928-32.134,156.823c-8.517-5.343-14.653,125.651-13.988,137.813
			c2.613,47.352,11.525,96.676,32.058,140.11c14.992,31.73,43.402,77.059,66.178,29.487c13.61-28.425-1.797-69.281-8.522-99.131
			c-19.876-88.189-19.585-182.283-23.286-271.277c-3.443-82.891,8.325-166.73,39.736-238.867
			c25.24-57.998,47.813-126.983,76.858-186.138c40.356-82.177,94.833-150.975,126.007-239.842
			c3.914-11.163,18.745-78.776-3.834-46.969c-22.617,31.866-36.956,70.459-58.994,102.816
			C5951.943,3262.718,5947.016,3268.9,5941.79,3274.574z"/>
		<path id="_x31_80609020" fill="none" stroke="#000000" stroke-width="80" d="M6211.611,3322.208
			c11.107-84.506-5.674-177.548-37.948-258.226c-6.973-17.415-56.12-130.361-73.37-81.042
			c-9.289,26.595,27.562,88.229,36.777,113.311c29.098,79.221,45.279,167.561,29.518,248.926
			c-18.967,97.935-92.506,156.279-139.91,233.383c-26.148,42.513-49.988,101.7-64.056,151.855
			c-20.309,72.39-33.278,156.458-36.724,233.923c-7.39,166.256,59.564,337.144,55.329,504.333
			c-1.028,40.749-10.292,79.201-29.349,111.741c-10.706,18.283-54.565,70.433-23.826,96.23c21.811,18.28,70.639-7.246,84.227-24.933
			c50.973-66.392,4.738-212.733-7.824-291.319c-16.52-103.27-43.123-203.881-46.962-308.545
			c-3.085-83.961,5.687-165.453,24.82-244.343c20.495-84.525,56.702-160.378,99.825-230.832
			C6131.99,3495.203,6197.832,3427.117,6211.611,3322.208z"/>
		<path id="_x31_80609016" fill="none" stroke="#000000" stroke-width="80" d="M5707.416,3506.841
			c-8.5-47.155-23.088-91.437-38.623-139.564c-3.707-11.483-25.183-50.822-14.961-61.169c12.516-12.654,58.383,52.564,67.576,60.583
			c17.303,15.097,37.184,24.822,58.062,28.595c18.574,3.35,39.059-5.679,53.346,13.903c16.834,23.1,4.629,48.107-6.686,67.25
			c-49.148,83.137-74.854,188.852-69.67,294.7c1.207,24.728,11.371,154.074-16.881,161.354
			c-17.785,4.585-21.146-26.54-22.473-40.696c-2.584-27.482,4.825-55.402,6.381-82.39c4.582-79.497-5.282-159.395-8.865-239.185
			C5713.636,3548.188,5711.088,3527.246,5707.416,3506.841z"/>
	</g>
</g>
</svg>
