<?xml version="1.0" encoding="utf-8"?>
<!-- Generator: Adobe Illustrator 16.0.0, SVG Export Plug-In . SVG Version: 6.00 Build 0)  -->
<!DOCTYPE svg PUBLIC "-//W3C//DTD SVG 1.1//EN" "http://www.w3.org/Graphics/SVG/1.1/DTD/svg11.dtd">
<svg version="1.1" id="Layer_1" xmlns="http://www.w3.org/2000/svg" xmlns:xlink="http://www.w3.org/1999/xlink" x="0px" y="0px"
	 width="9744px" height="6823.471px" viewBox="0 0 9744 6823.471" enable-background="new 0 0 9744 6823.471" xml:space="preserve">
<g transform="scale(1.0)">
	<g id="_x31_80640125" transform=" scale(1.0, 1.0)">
		<path id="_x31_80640127" fill="none" stroke="#010101" stroke-width="80" d="M8174.68,1556.356
			c46.695,37.456,95.131,73.182,147.277,105.723c232.779,145.243,434.061,399.023,466.809,679.8
			c12.574,107.804-49.979,217.321-52.291,328.509c-2.537,121.743,17.027,242.935,6.805,364.705
			c-20.285,241.676,44.152,491.836-111.723,704.763c-146.754,200.463-401.117,496.229-681.631,370.059
			c-49.414-22.226-92.899-56.811-128.783-96.988c-64.459-72.186-108.945-159.57-147.008-247.899
			c-37.525-87.071-50.609-182.588-122.771-250.44c-155.159-145.867-198.035-365.304-332.334-526.463
			c-61.223-73.47-114.076-153.712-155.896-239.772c-42.525-87.522-65.086-178.357-96.639-269.549
			c-12.087-34.958-30.334-64.399-50.58-94.886c-70.637-106.333-104.711-236.956-168.346-347.722
			c-124.698-217.067-277.875-434.454-470.803-596.221c-120.315-100.896-219.156-239.566-309.237-368.999
			c-47.173-67.777-120.845-114.691-102.331-208.786c16.152-82.125,98.338-143.713,161.199-190.588
			c235.223-175.41,591.332-41.422,827.654,57.153c159.756,66.637,324.985,113.703,477.125,198.22
			c204.723,113.726,393.863,253.789,575.269,401.331C7999.072,1403.632,8083.57,1483.277,8174.68,1556.356z"/>
		<path id="_x31_80640128" fill="none" stroke="#010101" stroke-width="80" d="M8797.363,4979.584
			c29.369-65.811,89.273-206.363,30.902-272.69c-61.293-69.596-195.684-12.897-262.762,17.786
			c-46.613,21.325-88.045,50.86-136.918,67.699c-161.664,55.68-318.881,96.391-379.246,279.654
			c-60.46,183.543,61.779,338.674,246.227,358.48C8517.301,5454.32,8721.119,5150.452,8797.363,4979.584z"/>
		<path id="_x31_80640129" fill="none" stroke="#010101" stroke-width="80" d="M4910.326,942.045
			c49.936-1.175,101.387-36.946,150.192-49.875c79.329-21.011,150.027-15.557,231.315-17.19
			c163.824-3.295,334.673,44.169,474.824,132.057c104.328,65.422,158.543,165.789,232.371,259.763
			c49.694,63.251,143.609,87.137,203.658,143.654c80.553,75.823,176.262,139.218,240.998,228.255
			c126.959,174.634,252.374,336.067,333.973,537.415c83.676,206.445,73.287,428.792,46.376,645.665l-11.646,107.119
			c57.461-48.725,115.266-86.013,180.2-28.29c67.382,59.906,115.019,164.729,145.913,247.634
			c33.4,89.619,40.594,190.39-12.371,274.5c-46.617,74.042-131.047,111.157-209.557,61.365
			c-66.756-42.336-101.037-122.15-126.875-193.514l-1.021,170.097c1.074,106.108,11.346,219.833,93.518,296.45
			c55.405,51.652,155.02,62.986,198.46,126.351c2.246,5.065,10.45,12.639,20.506,45.694
			c30.226-60.042,97.476-152.221,213.901-157.521c113.783-5.206,179.592,69.923,212.486,170.612
			c41.314,126.397,51.359,274.244,53.303,406.52c1.401,95.814-9.677,218.27-114.594,256.031
			c-86.5,31.131-165.4-15.338-222.881-77.086c43.67,64.236,109.088,150.672,130.225,256.168
			c20.074,100.2-33.324,185.982-61.734,277.779c-40.584,131.134-79.855,277.828-193.479,364.975
			c-62.241,47.747-134.135,106.328-208.979,129.129c-84.278,25.676-178.204,22.307-264.127,44.199
			c-159.808,40.715-228.783,174.417-334.087,286.913c-100.039,106.886-207.311,211.878-335.163,285.219
			c-146.119,83.817-340.194,122.207-505.401,147.847c-187.156,29.045-372.449,45.889-557.94,7.096L4910.326,942.045z"/>
		<path id="_x31_80640130" fill="none" stroke="#010101" stroke-width="80" d="M8174.68,1556.356
			c46.695,37.456,95.131,73.182,147.277,105.723c232.779,145.243,434.061,399.023,466.809,679.8
			c12.574,107.804-49.979,217.321-52.291,328.509c-2.537,121.743,17.027,242.935,6.805,364.705
			c-20.285,241.676,44.152,491.836-111.723,704.763c-146.754,200.463-401.117,496.229-681.631,370.059
			c-49.414-22.226-92.899-56.811-128.783-96.988c-64.459-72.186-108.945-159.57-147.008-247.899
			c-37.525-87.071-50.609-182.588-122.771-250.44c-155.159-145.867-198.035-365.304-332.334-526.463
			c-61.223-73.47-114.076-153.712-155.896-239.772c-42.525-87.522-65.086-178.357-96.639-269.549
			c-12.087-34.958-30.334-64.399-50.58-94.886c-70.637-106.333-104.711-236.956-168.346-347.722
			c-124.698-217.067-277.875-434.454-470.803-596.221c-120.315-100.896-219.156-239.566-309.237-368.999
			c-47.173-67.777-120.845-114.691-102.331-208.786c16.152-82.125,98.338-143.713,161.199-190.588
			c235.223-175.41,591.332-41.422,827.654,57.153c159.756,66.637,324.985,113.703,477.125,198.22
			c204.723,113.726,393.863,253.789,575.269,401.331C7999.072,1403.632,8083.57,1483.277,8174.68,1556.356z"/>
		<path id="_x31_80640201" fill="none" stroke="#010101" stroke-width="80" d="M7545.818,1058.635l-16.938,105.925
			c-13.102-7.989-26.279-15.827-39.611-23.588c-158.141-92.141-313.324-212.989-486.303-277.483
			c-108.16-40.309-224.082-69.877-329.579-114.146c-49.511-20.842-93.993-35.596-146.698-48.135
			c-132.599-31.389-344.391-20.938-455.915,73.608l-83.118-72.758l-0.459-0.609c13.402-10.589,26.724-20.495,39.207-29.866
			c235.246-175.39,591.335-41.382,827.69,57.196c159.729,66.629,324.932,113.69,477.129,198.22
			C7404.66,967.78,7476.039,1011.914,7545.818,1058.635z"/>
		<path id="_x31_80640200" fill="none" stroke="#010101" stroke-width="80" d="M7495.617,1372.831
			c-169.268-111.935-345.159-217.011-517.242-323.689c-137.652-85.295-271.253-135.339-431.498-164.583
			c-86.443-15.725-235.711-18.627-290.816,52.441l-185.281-162.182c111.525-94.545,323.312-104.995,455.914-73.606
			c52.705,12.54,97.189,27.292,146.698,48.134c105.497,44.269,221.417,73.837,329.579,114.146
			c172.979,64.494,328.162,185.341,486.303,277.483c13.332,7.761,26.51,15.598,39.611,23.587L7495.617,1372.831z"/>
		<path id="_x31_80640199" fill="none" stroke="#010101" stroke-width="80" d="M6390.807,998.845
			c-11.723,10.588-18.418,23.23-21.307,37.471l-113.439-99.318c55.105-71.069,204.373-68.165,290.814-52.442
			c160.247,29.244,293.846,79.289,431.5,164.585c172.083,106.678,347.975,211.754,517.241,323.688l-12.835,80.795
			c-190.446-126.849-388.66-250.8-556.932-346.515C6837.717,1057.047,6502.408,898.358,6390.807,998.845z"/>
		<path id="_x31_80640198" fill="none" stroke="#010101" stroke-width="80" d="M6807.645,1419.891L6369.5,1036.316
			c2.891-14.241,9.584-26.882,21.309-37.472c111.6-100.485,446.908,58.202,535.045,108.267
			c168.271,95.715,366.483,219.667,556.93,346.516l-54.148,339.096c-72.452-58.905-142.465-121.236-212.33-187.299
			c-71.617-67.888-129.614-164.262-225.664-199.932C6942.121,1387.469,6852.561,1384.157,6807.645,1419.891z"/>
		<path id="_x31_80640197" fill="none" stroke="#010101" stroke-width="80" d="M7428.633,1792.723l-23.924,149.861l-14.932-13.089
			l-582.133-509.605c44.916-35.732,134.477-32.422,182.996-14.399c96.048,35.672,154.047,132.045,225.662,199.933
			C7286.168,1671.488,7356.183,1733.818,7428.633,1792.723z"/>
		<path id="_x31_80640196" fill="none" stroke="#010101" stroke-width="80" d="M8038.109,1440.51l-1.522,1.751l-60.146,47.619
			c-48.6-34.777-95.91-69.098-140.322-103.495c-59.955-46.346-108.948-100.157-173.395-139.494
			c-45.098-27.471-89.049-55.319-133.844-82.331l16.938-105.924c124.782,83.475,244.311,175.024,360.642,269.697
			C7951.713,1365.165,7994.985,1402.988,8038.109,1440.51z"/>
		<path id="_x31_80640195" fill="none" stroke="#010101" stroke-width="80" d="M7495.617,1372.831l33.264-208.269
			c44.795,27.011,88.746,54.86,133.844,82.329c64.446,39.336,113.439,93.15,173.395,139.495
			c44.412,34.396,91.727,68.718,140.322,103.494l-151.496,119.995c-28.339-20.241-56.297-40.56-82.732-60.878
			c-61.631-47.183-110.083-83.787-174.758-127.921C7543.686,1404.867,7519.689,1388.733,7495.617,1372.831z"/>
		<path id="_x31_80640194" fill="none" stroke="#010101" stroke-width="80" d="M7482.781,1453.626l12.836-80.795
			c24.072,15.902,48.068,32.036,71.838,48.244c64.673,44.134,113.125,80.738,174.758,127.921
			c26.436,20.318,54.392,40.636,82.732,60.878l-54.053,42.742c-8.836-6.62-18.13-13.47-28.036-20.471
			C7660.507,1573.779,7572.521,1513.435,7482.781,1453.626z"/>
		<path id="_x31_80640193" fill="none" stroke="#010101" stroke-width="80" d="M7511.52,1858.018
			c-28.033-21.231-55.611-42.998-82.885-65.295l54.148-339.096c89.738,59.809,177.724,120.153,260.075,178.52
			c9.903,7,19.198,13.851,28.034,20.471L7511.52,1858.018z"/>
		<path id="_x31_80640192" fill="none" stroke="#010101" stroke-width="80" d="M7511.52,1858.018l-106.811,84.567l23.924-149.862
			C7455.907,1815.02,7483.486,1836.786,7511.52,1858.018z"/>
		<path id="_x31_80640206" fill="none" stroke="#010101" stroke-width="80" d="M6400.244,1501.014l-105.496-45.717l-0.076-0.076
			c-5.942-5.099-11.887-10.198-17.902-15.222c-120.296-100.913-219.133-239.605-309.205-369.012
			c-47.172-67.747-120.836-114.696-102.371-208.818c12.918-65.72,68.186-118.284,122.006-160.72l0.459,0.609l83.117,72.758
			c-6.09,5.104-11.877,10.512-17.281,16.15c-107.104,110.991-31.255,279.237,58.809,377.499
			C6211.125,1276.166,6302.563,1391.79,6400.244,1501.014z"/>
		<path id="_x31_80640205" fill="none" stroke="#010101" stroke-width="80" d="M6256.061,936.999
			c-18.037,23.232-26.021,54.303-18.463,95.494c23.665,128.598,146.389,206.438,217.638,307.451h0.075
			c2.058,3.045,4.193,6.091,6.25,9.21c74.151,111.672,170.908,203.915,268.428,294.79l-329.742-142.928
			c-97.681-109.225-189.119-224.848-287.941-332.548c-90.06-98.263-165.91-266.508-58.807-377.499
			c5.402-5.636,11.188-11.045,17.28-16.15L6256.061,936.999z"/>
		<path id="_x31_80640204" fill="none" stroke="#010101" stroke-width="80" d="M6369.5,1036.316
			c-20.745,101.282,152.13,279.079,91.9,299.437l-6.092,4.114v0.075l-0.076,0.001c-71.25-101.013-193.973-178.852-217.637-307.451
			c-7.559-41.191,0.424-72.262,18.463-95.494L6369.5,1036.316z"/>
		<path id="_x31_80640203" fill="none" stroke="#010101" stroke-width="80" d="M6461.4,1335.753
			c60.228-20.358-112.646-198.154-91.9-299.437l438.145,383.574c-15.227,12.114-25.348,28.641-27.014,50.648
			c-6.586,86.274,73.795,172.892,125.304,233.251c7.392,8.679,14.782,17.355,22.097,26.031l-198.043-85.878
			c-97.52-90.875-194.278-183.119-268.428-294.789c-2.057-3.12-4.192-6.166-6.25-9.211v-0.076L6461.4,1335.753z"/>
		<path id="_x31_80640202" fill="none" stroke="#010101" stroke-width="80" d="M6928.031,1729.821
			c-7.314-8.677-14.705-17.353-22.099-26.031c-51.509-60.36-131.89-146.977-125.304-233.251
			c1.664-22.007,11.785-38.535,27.012-50.648l582.135,509.605l-0.307,0.381L6928.031,1729.821z"/>
		<path id="_x31_80640210" fill="none" stroke="#010101" stroke-width="80" d="M6607.375,1812.887
			c-90.76-131.082-194.082-254.77-312.627-357.588l105.496,45.717c42.363,47.419,85.943,93.696,131.811,137.534
			c52.646,50.384,105.9,104.5,156.114,161.967c-47.368,1.848-80.114,5.289-78.282,10.619L6607.375,1812.887z"/>
		<path id="_x31_80640209" fill="none" stroke="#010101" stroke-width="80" d="M6820.27,1728.651
			c23.544,22.529,49.219,46.502,74.896,71.922c-66.337-2.103-148.053-2.37-206.995-0.06
			c-50.212-57.467-103.467-111.583-156.114-161.966c-45.867-43.838-89.447-90.116-131.811-137.535l329.742,142.928
			C6760.233,1672.102,6790.557,1700.187,6820.27,1728.651z"/>
		<path id="_x31_80640208" fill="none" stroke="#010101" stroke-width="80" d="M6895.166,1800.575
			c-25.678-25.419-51.353-49.394-74.896-71.922c-29.713-28.466-60.036-56.549-90.281-84.709l198.043,85.878
			c21.869,25.576,43.508,51.227,64.995,76.955C6972.92,1804.043,6937.127,1801.927,6895.166,1800.575z"/>
		<path id="_x31_80640207" fill="none" stroke="#010101" stroke-width="80" d="M6928.031,1729.821l461.441,200.056l0.305-0.381
			l14.932,13.089c-80.588-36.97-291.881-115.609-406.2-134.976c-1.675-0.304-3.502-0.532-5.484-0.836
			C6971.537,1781.047,6949.9,1755.396,6928.031,1729.821z"/>
		<path id="_x31_80640191" fill="none" stroke="#010101" stroke-width="80" d="M8038.109,1440.51
			c45.1,39.345,89.973,78.464,136.598,115.831c46.7,37.52,95.152,73.208,147.258,105.777
			c46.773,29.142,92.176,62.701,135.299,99.917l-107.145,18.4c-114.51-107.162-248.355-200.607-373.676-290.555l60.146-47.618
			L8038.109,1440.51z"/>
		<path id="_x31_80640190" fill="none" stroke="#010101" stroke-width="80" d="M8081.535,1826.468
			c-39.7-48.411-84.271-92.021-140.643-133.495c-37.1-27.395-76.863-55.17-115.945-83.098l151.496-119.996
			c125.318,89.945,259.164,183.393,373.676,290.555L8081.535,1826.468z"/>
		<path id="_x31_80640189" fill="none" stroke="#010101" stroke-width="80" d="M7970.797,1812.888
			c-84.561-62.098-124.485-104.036-199.904-160.272l54.053-42.742c39.08,27.928,78.846,55.703,115.947,83.098
			c56.374,41.474,100.944,85.084,140.641,133.495l-77.062,13.208C7994.643,1831.303,7983.596,1822.325,7970.797,1812.888z"/>
		<path id="_x31_80640188" fill="none" stroke="#010101" stroke-width="80" d="M7511.52,1858.018l259.375-205.401
			c75.421,56.236,115.344,98.174,199.904,160.272c12.799,9.436,23.848,18.415,33.674,26.788l-420.046,72.066
			C7559.742,1894.164,7535.441,1876.281,7511.52,1858.018z"/>
		<path id="_x31_80640187" fill="none" stroke="#010101" stroke-width="80" d="M7584.425,1911.742l-179.716,30.843l106.811-84.567
			C7535.441,1876.281,7559.742,1894.164,7584.425,1911.742z"/>
		<path id="_x31_80640186" fill="none" stroke="#010101" stroke-width="80" d="M8788.797,2341.88
			c11.617,99.137-40.432,199.823-50.588,301.785c-36.715-20.847-74.729-44.357-113.35-67.49
			c17.666-175.671,30.998-340.15-52.316-509.764c-52.748-107.34-131.533-200.964-222.426-285.976l107.145-18.4
			C8628.83,1910.364,8762.65,2117.493,8788.797,2341.88z"/>
		<path id="_x31_80640185" fill="none" stroke="#010101" stroke-width="80" d="M8209.486,2018.372
			c-23.702-40.422-46.186-77.57-69.275-112.053c-18.824-28.242-38.104-54.656-58.678-79.851l268.584-46.034
			c90.893,85.013,169.678,178.636,222.426,285.975c83.314,169.614,69.982,334.093,52.316,509.766
			c-37.631-22.599-75.795-44.893-113.73-64.218c-20.643-10.421-41.209-20.007-61.547-28.221
			c-10.664-4.334-21.023-8.442-31.23-12.473c-50.727-20.081-96.199-36.963-144.49-54.074c-6.854-2.434-13.789-4.869-20.793-7.302
			C8328.482,2289.621,8283.717,2145.196,8209.486,2018.372z"/>
		<path id="_x31_80640184" fill="none" stroke="#010101" stroke-width="80" d="M7584.418,1911.346l420.045-72.066
			c30.012-4.715,22.654-3.541,27.236-4.269c10.25-1.63,8.311-1.424,49.831-8.938l31.522,42.897l27.154,36.954
			c23.09,34.482,45.572,71.63,69.275,112.053c74.232,126.824,119,271.251,43.582,391.516c-23.994-8.364-48.899-16.882-75.787-26.006
			c-30.389-10.343-75.404-27.836-121.947-49.209c6.836-38.457-10.169-90-42.4-126.535c-84.878-96.21-218.637-156.836-324.6-225.625
			C7652.828,1959.058,7618.242,1935.47,7584.418,1911.346z"/>
		<path id="_x31_80640183" fill="none" stroke="#010101" stroke-width="80" d="M7404.709,1942.586l179.716-30.842
			c33.824,24.123,68.407,47.712,103.905,70.769c105.965,68.787,239.723,129.414,324.601,225.623
			c32.231,36.536,49.237,88.078,42.401,126.535c-33.821-15.595-68.48-33.17-98.95-51.583
			c-115.942-70.078-377.312-250.807-520.442-325.134C7424.744,1952.171,7414.307,1946.998,7404.709,1942.586z"/>
		<path id="_x31_80640182" fill="none" stroke="#010101" stroke-width="80" d="M8631.617,3739.891
			c-38.283,52.253-83.875,110.982-135.332,167.049l-0.381-0.306l-104.266-191.687c55.496-48.909,100.479-107.712,126.498-167.346
			c123.324-282.857,70.037-580.024,97.625-879.516c2.805-30.993,5.988-61.604,9.098-91.911
			c38.621,23.132,76.635,46.643,113.35,67.489c-0.91,8.909-1.518,17.818-1.662,26.728c-0.598,30.229,0.102,60.383,1.406,90.536
			c0.002,0.152,0.002,0.305,0.002,0.381c0.117,85.207,11.422,171.398,6.59,256.604c-0.305,5.711-0.758,11.499-1.213,17.209
			C8723.031,3276.815,8787.49,3526.92,8631.617,3739.891z"/>
		<path id="_x31_80640181" fill="none" stroke="#010101" stroke-width="80" d="M8518.137,3547.602
			c-26.02,59.634-71.002,118.437-126.498,167.348l-10.215-18.805l-42.451-78.03c-2.127-4.397-6.67-11.11-8.283-15.23
			c-1.082-2.768-3.064-4.833-3.303-6.007c-0.078-0.396-0.656,0.641,0,0c0.545-0.532,13.49-7.614,15.381-9.374
			c0.229-0.151,0.379-0.306,0.607-0.457c32.965-24.382,56.242-85.764,71.684-122.474c35.758-84.917,50.037-177.134,60.961-267.979
			c26.709-222.507,27.746-455.283,32.6-679.606l2.51-5.027c37.936,19.324,76.1,41.617,113.73,64.215
			c-3.109,30.309-6.293,60.92-9.098,91.911C8588.174,2967.576,8641.461,3264.744,8518.137,3547.602z"/>
		<path id="_x31_80640180" fill="none" stroke="#010101" stroke-width="80" d="M8449.582,2483.736
			c20.338,8.214,40.904,17.799,61.547,28.221l-2.51,5.028c-4.854,224.324-5.891,457.099-32.6,679.605
			c-10.926,90.846-25.203,183.062-60.961,267.979c-15.441,36.709-38.719,98.093-71.684,122.474
			c-0.229,0.152-0.379,0.305-0.607,0.458c-4.951,3.582-10.205,6.857-15.381,9.375l-24.086-44.231
			c43.082-49.896,56.459-118.049,74.854-192.449c54.279-219.17,60.189-458.65,52.473-687.08
			c-3.01-88.249-2.793-117.413-12.807-200.482l0.531-1.371C8428.559,2475.294,8438.918,2479.402,8449.582,2483.736z"/>
		<path id="_x31_80640179" fill="none" stroke="#010101" stroke-width="80" d="M8273.861,2417.189
			c48.291,17.111,93.764,33.995,144.49,54.074l-0.531,1.37c10.014,83.07,9.797,112.234,12.807,200.483
			c7.717,228.43,1.807,467.909-52.473,687.079c-18.395,74.399-31.771,142.555-74.854,192.45l-212.035-389.919
			c7.842-1.144,15.763-3.128,23.679-5.874c70.054-24.321,140.298-132.935,152.069-203.83
			c30.004-180.249,43.637-352.265-4.039-527.301L8273.861,2417.189z"/>
		<path id="_x31_80640178" fill="none" stroke="#010101" stroke-width="80" d="M8267.014,2953.02
			c-11.773,70.898-82.016,179.51-152.069,203.833c-7.918,2.744-15.839,4.727-23.681,5.873l-31.404-57.703
			c26.121,2.348,52.547-6.192,79.039-29.047c159.639-137.817-4.038-523.265,91.109-626.104l7.606-17.821
			c5.632-7.312,10.808-14.624,15.45-22.163c7.006,2.433,13.941,4.867,20.793,7.299l-10.885,8.534
			C8310.648,2600.758,8297.018,2772.774,8267.014,2953.02z"/>
		<path id="_x31_80640177" fill="none" stroke="#010101" stroke-width="80" d="M8177.28,2383.882
			c26.886,9.126,51.793,17.641,75.788,26.005c-4.643,7.542-9.818,14.852-15.452,22.165l-7.606,17.821
			c-95.149,102.837,68.529,488.286-91.109,626.103c-26.49,22.855-52.916,31.396-79.037,29.048l-502.506-923.868
			c127.209,64.286,259.996,170.45,400.974,202.823c60.781,13.984,90.47-11.31,97.003-49.308
			C8101.873,2356.045,8146.889,2373.539,8177.28,2383.882z"/>
		<path id="_x31_80640176" fill="none" stroke="#010101" stroke-width="80" d="M7557.355,2181.155l-121.414-223.201
			c143.129,74.327,404.5,255.056,520.44,325.134c30.472,18.412,65.131,35.986,98.95,51.583
			c-6.533,37.999-36.222,63.292-97.001,49.307C7817.354,2351.604,7684.566,2245.441,7557.355,2181.155z"/>
		<path id="_x31_80640175" fill="none" stroke="#010101" stroke-width="80" d="M7219.047,2988.136c0,0,11.082-78.435,23.615-158.772
			c0.986,0.228,1.979,0.377,2.967,0.455c26.959,3.032,49.268-9.998,77.299-1.786c128.112,37.632,216.987,214.706,259.838,327.687
			c40.562,106.735,95.591,205.016,143.081,308.701c73.41,160.633,138.144,337.64,337.765,369.303
			c111.5,17.693,234.545-36.426,328.027-118.777l104.266,191.687l0.381,0.306c-145.844,158.901-338.916,296.277-546.328,203.016
			c-49.438-22.214-92.86-56.837-128.748-97.027c-64.459-72.157-108.973-159.551-147.016-247.862
			c-37.582-87.091-50.646-182.572-122.795-250.463C7396.202,3368.704,7353.381,3149.274,7219.047,2988.136z"/>
		<path id="_x31_80640174" fill="none" stroke="#010101" stroke-width="80" d="M7322.928,2828.034
			c-28.029-8.212-50.338,4.818-77.297,1.786c-0.989-0.078-1.982-0.228-2.969-0.455c8.582-54.602,17.77-110.039,24.686-142.402
			c17.1-79.96,32.24-289.364,34.113-357.896c0.225-8.986,0.374-17.894,0.444-26.728l12.871,0.069
			c59.048,60.89,96.702,135.572,168.876,260.265c108.683,187.571,119.215,412.879,224.016,603.575
			c54.874,99.952,125.125,176.599,180.684,276.171c57.62,103.227,178.756,213.582,308.513,174.994
			c41.651-12.354,72.104-30.412,95.097-52.811c3.744-3.682,2.828-2.476,6.695-6.778c3.68-4.091,4.432-5.803,4.936-4.647
			c1.982,4.533,12.395,21.773,15.154,27.828c1.221,2.678,4.109,7.547,5.447,10.008c1.686,3.09,1.346,2.472,3.193,5.861
			l11.586,21.239c6.943,12.765,15.449,27.052,22.082,40.587c7.098,14.488,12.869,23.652,20.369,37.441l10.215,18.803
			c-93.482,82.355-216.527,136.473-328.027,118.779c-199.619-31.664-264.354-208.67-337.765-369.303
			c-47.49-103.688-102.519-201.966-143.083-308.703C7539.916,3042.74,7451.042,2865.668,7322.928,2828.034z"/>
		<path id="_x31_80640173" fill="none" stroke="#010101" stroke-width="80" d="M7234.569,2095.941
			c2.972,1.521,6.016,2.815,9.141,3.879c35.646,12.474,76.763-3.842,116.671-1.271v0.154l179.037,161.117
			c25.521,20.471,47.694,46.808,67.355,76.268l-0.686,0.456c29.522,111.389,97.078,296.617,135.51,405.487
			c38.584,109.479,80.289,224.362,154.66,315.475c46.404,56.935,117.636,117.134,195.006,105.222l212.037,389.919
			c-3.58,4.113-7.307,8.149-11.342,11.959c-22.99,22.395-53.445,40.456-95.097,52.811
			c-129.753,38.588-250.889-71.77-308.513-174.996c-55.561-99.572-125.81-176.219-180.686-276.17
			c-104.801-190.697-115.332-416.004-224.013-603.576c-72.175-124.692-109.83-199.373-168.877-260.263l-12.871-0.068
			c0.583-59.319-3.479-116.501-23.372-157.915C7267.402,2121.283,7252.168,2109.335,7234.569,2095.941z"/>
		<path id="_x31_80640172" fill="none" stroke="#010101" stroke-width="80" d="M7741.598,2742.031
			c-38.432-108.871-105.985-294.098-135.51-405.487l0.686-0.457c49.84,74.45,83.695,169.462,114.037,243.156
			c36.671,89.227,180.487,511.002,339.051,525.78l31.402,57.703c-77.37,11.914-148.602-48.286-195.006-105.22
			C7821.889,2966.395,7780.182,2851.51,7741.598,2742.031z"/>
		<path id="_x31_80640171" fill="none" stroke="#010101" stroke-width="80" d="M7382.773,2102.422
			c53.084,15.663,101.229,44.196,151.197,67.321c7.771,3.652,15.617,7.456,23.385,11.411l502.506,923.868
			c-158.563-14.778-302.38-436.555-339.051-525.779c-30.342-73.694-64.199-168.707-114.037-243.156
			c-19.661-29.459-41.834-55.797-67.354-76.268l-179.037-161.117l-0.003-0.154C7367.92,2099.08,7375.385,2100.219,7382.773,2102.422
			z"/>
		<path id="_x31_80640170" fill="none" stroke="#010101" stroke-width="80" d="M7360.381,2098.55
			c-39.908-2.57-81.025,13.744-116.671,1.271c-3.125-1.064-6.169-2.357-9.141-3.879c-15.999-12.176-33.901-25.646-52.419-50.156
			c-0.228-0.228-0.381-0.456-0.532-0.685c-15.239-21.086-28.655-43.771-42.446-60.822c-12.419-15.375-24.918-30.751-37.49-46.051
			c-0.379-0.608-0.915-1.293-1.522-1.902c-50.521-63.941-104.238-129.173-101.65-128.717
			c114.317,19.366,325.612,98.004,406.2,134.976c9.598,4.412,20.035,9.587,31.232,15.368l121.414,223.201
			c-7.768-3.957-15.613-7.76-23.385-11.411c-49.968-23.125-98.111-51.658-151.197-67.32
			C7375.385,2100.219,7367.92,2099.08,7360.381,2098.55z"/>
		<path id="_x31_80640168" fill="none" stroke="#010101" stroke-width="80" d="M7133.117,2756.999
			c-40.698-69.502-47.973-158.283-46.714-237.17c0.815-56.423,30.386-175.298-17.156-217.993
			c-6.771-6.077-13.35-10.517-19.762-13.847l-97.13,166.739c7.625,12.071,12.814,20.269,14.145,24.093
			c31.75,91.114,54.105,182.016,96.629,269.53c41.818,86.06,94.674,166.301,155.896,239.771l0.018,0.015
			c0,0,11.084-78.435,23.615-158.772C7194.831,2823.218,7158.038,2799.553,7133.117,2756.999z"/>
		<path id="_x31_80640169" fill="none" stroke="#010101" stroke-width="80" d="M7278.531,2144.426
			c-11.129-23.143-26.363-35.091-43.962-48.483c-14.604-11.115-30.795-23.311-47.587-43.994l-137.497,236.04
			c6.412,3.331,12.99,7.77,19.762,13.847c47.542,42.696,17.968,161.57,17.156,217.993c-1.259,78.887,6.016,167.668,46.713,237.169
			c24.922,42.556,61.715,66.22,109.546,72.366c8.582-54.601,17.77-110.038,24.686-142.401c17.1-79.961,32.24-289.366,34.113-357.897
			c0.225-8.985,0.374-17.893,0.444-26.727C7302.49,2243.023,7298.428,2185.84,7278.531,2144.426z"/>
		<path id="_x31_80640167" fill="none" stroke="#010101" stroke-width="80" d="M6940.818,2229.631
			c-26.446-46.894-33.477-100.802-57.412-148.534c-49.925-99.499-119.117-193.736-195.235-280.581
			c-0.006-0.006-0.01-0.013-0.016-0.019c-48.653,1.885-81.819,5.467-78.075,11.076c32.647,48.911,51.787,78.339,97.172,156.056
			c66.688,114.188,133.393,266.447,181.034,371.124c23.524,51.687,48.733,91.68,64.071,115.974l97.131-166.74
			C7009,2266.966,6975.098,2290.483,6940.818,2229.631z"/>
		<path id="_x31_80640166" fill="none" stroke="#010101" stroke-width="80" d="M7045.378,2024.978
			c-25.171-43.413-45.839-74.822-69.114-117.152c-10.307-18.74-56.303-70.838-86.865-107.437
			c-65.277-1.965-143.986-2.106-201.245,0.109c0.006,0.006,0.012,0.011,0.016,0.018c76.12,86.846,145.312,181.083,195.237,280.581
			c23.934,47.732,30.966,101.64,57.41,148.534c34.281,60.853,68.182,37.335,108.668,58.357l62.814-107.837
			c-2.762-21.753-9.355-49.247-23.281-81.937C7082.29,2082.422,7045.378,2024.978,7045.378,2024.978z"/>
		<path id="_x31_80640165" fill="none" stroke="#010101" stroke-width="80" d="M7182.15,2045.785
			c-0.228-0.228-0.381-0.456-0.532-0.685c-15.239-21.086-28.655-43.771-42.446-60.822c-12.419-15.375-24.918-30.751-37.49-46.051
			c-0.379-0.608-0.915-1.293-1.522-1.902c-50.521-63.941-104.238-129.173-101.65-128.717l1.177,0.191
			c-0.403-0.07-0.808-0.138-1.207-0.206c-19.308-3.27-60.472-5.745-109.08-7.207c30.562,36.597,76.559,88.697,86.863,107.437
			c23.275,42.33,43.945,73.74,69.116,117.152c0,0,36.908,57.445,43.64,73.236c13.928,32.691,20.521,60.185,23.283,81.936
			l74.68-128.201C7185.376,2049.972,7183.766,2047.924,7182.15,2045.785z"/>
		<path id="_x31_80640149" fill="none" stroke="#010101" stroke-width="80" d="M6777.66,2176.125
			c-81.601-201.347-207.016-362.78-333.977-537.415c-64.734-89.039-160.441-152.433-240.998-228.255
			c-60.051-56.519-153.966-80.403-203.658-143.654c-73.828-93.974-128.043-194.341-232.369-259.763
			c-140.155-87.888-311.002-135.352-474.826-132.057c-81.288,1.634-151.986-3.821-231.314,17.19
			c-48.805,12.929-100.258,48.7-150.193,49.875l0.537,1221.235l1.102-2.585c44.502,100.689,181.32,124.576,215.025,228.485
			c46.225,142.496-81.105,328.371-143.827,449.553c-14.425,27.856-40.456,39.57-70.88,41.53l-1.106-2.418l0.543,1233.421
			c0,0,150.194-24.691,293-78.819c96.184-36.454,179.282-102.497,243.645-121.937c87.781-26.521,236.734,13.015,281.78,4.952
			c142.15-25.443,600.973-60.231,662.473-180.502c65.284-127.648-5.594-385.969-58.814-557.818
			c43.483,93.041,103.068-70.984,136.023-92.112c90.512-58.018,236.896-52.554,330.257-11.667
			c6.614-102.74,15.438-151.769,22.581-240.369c0.456-3.734,0.906-7.463,1.372-11.202
			C6850.945,2604.919,6861.336,2382.569,6777.66,2176.125z"/>
		<path id="_x31_80640162" fill="none" stroke="#010101" stroke-width="80" d="M5968.718,1351.372
			c-18.321,28.473-34.94,61.72-49.961,97.615c-105.856-64.641-388.737-159.046-550.503-179.809
			c-169.254-21.735-333.125-9.515-425.244,31.109c6.84-7.734,12.398-16.475,16.969-25.979
			c72.721-68.884,211.314-194.075,354.863-191.309C5606.356,1063.768,5815.662,1315.912,5968.718,1351.372z"/>
		<path id="_x31_80640163" fill="none" stroke="#010101" stroke-width="80" d="M5966.359,1343.579l6.859,0.953
			c-1.512,2.25-3.006,4.526-4.501,6.839c-153.054-35.46-362.361-287.604-653.872-268.373
			c-143.553-2.767-282.145,122.424-354.865,191.308c11.383-23.666,16.615-52.11,20.1-81.947
			c15.402-132.049,32.924-200.147,181.789-223.066c157.711-24.286,301.868,2.192,442.451,75.486
			c68.623,35.769,128.428,79.664,180.074,137.439C5812.136,1213.252,5923.551,1334.861,5966.359,1343.579z"/>
		<path id="_x31_80640164" fill="none" stroke="#010101" stroke-width="80" d="M4959.979,1274.308
			c-4.568,9.503-10.129,18.245-16.969,25.979c-6.94,7.867-15.195,14.698-25.064,20.283l-6.953,1.016l-0.678-379.536
			c49.943-1.176,101.402-36.952,150.201-49.875c79.328-21.02,150.03-15.559,231.312-17.194
			c163.828-3.301,334.673,44.171,474.828,132.061c104.326,65.416,158.541,165.783,232.367,259.761
			c5.607,7.129,14.648,17.208,21.259,23.452l-4.438,3.172c-15.112,13.993-29.315,31.283-42.623,51.107l-6.859-0.953
			c-42.808-8.719-154.224-130.327-181.967-161.36c-51.645-57.778-111.453-101.672-180.074-137.44
			c-140.585-73.295-284.744-99.771-442.451-75.487c-148.865,22.92-166.387,91.019-181.789,223.067
			C4976.594,1222.197,4971.36,1250.641,4959.979,1274.308z"/>
		<path id="_x31_80640150" fill="none" stroke="#010101" stroke-width="80" d="M6755.686,2725.895
			c-77.82-15.325-44.594-96.149-41.686-149.15c21.971-400.58-169.008-936.316-569.876-1110.338
			c-37.1-16.102-146.292-25.732-144.802-83.037c1.051-40.547,34.504-50.734,74.674-46.879c-2.596-0.896-5.07-1.732-7.368-2.494
			c-102.612-34.011-161.7,193.373-202.917,376.638c-36.77,163.499-63.762,327.899-57.912,401.042
			c16.639,208.25,98.327,441.77,281.021,561.887c113.643,74.709,262.859,103.365,397.481,104.178
			c70.058,0.425,142.386-6.905,211.79-15.926c38.059-4.948,74.809-15.288,102.089-37.546
			C6786.284,2728.251,6772.252,2729.159,6755.686,2725.895z"/>
		<path id="_x31_80640153" fill="none" stroke="#010101" stroke-width="80" d="M5589.453,3141.585
			c-1.855-44.95,51.506-128.682,60.252-147.212c16.279-34.506,30.489-69.852,46.396-104.517
			c11.693-25.485,23.383-50.839,34.295-76.68c9.161-21.699,15.557-51.358,10.312-74.627c-9.282-41.162-47.426-82.412-44.596-125.342
			c1.062-16.086,20.857-18.468,30.702-11.52c50.261,35.483,45.834,117.646,43.999,171.821
			c-1.868,54.944-16.252,112.407-30.525,165.263c-9.594,35.536-19.055,71.182-31.441,105.869
			c-10.416,29.16-25.268,56.772-44.551,81.04c-10.951,13.775-35.608,49.839-57.191,42.576
			C5595.085,3164.216,5589.996,3154.5,5589.453,3141.585z"/>
		<path id="_x31_80640157" fill="none" stroke="#010101" stroke-width="80" d="M5959.836,3240.332
			c36.308,24.736,58.362,55.869,37.707,83.399c-88.443,50.256-152.062,96.05-158.211,154.005
			c-9.534,110.795-40.039,151.566-76.268,177.774c-10.483,7.584-129.83,14.847-164.568,19.053
			c-17.668,2.139-63.038,44.154-74.174,59.768c-14.344,20.115-17.104,90.722-30.85,136.02
			c-10.304,33.958-27.012,29.726-50.707,37.422c-14.984,4.87-40.533,26.648-58.434,11.902
			c-18.906-15.575-22.286-67.631-30.787-94.761c-15.426-49.211-130.515-169.686-98.751-223.741
			c24.981-42.517,227.415-199.416,216.468-200.725c113.162-106.734,201.518-238.986,248.246-386.939
			c4.982-15.774,9.85-32.747,14.502-50.273c19.752-37.745,40.317-45.283,81.07-29.17c48.982,19.382,25.9,54.945,30.953,114.604
			c-7.605,47.208,23.825,109.732,42.863,145.455C5902.703,3220.023,5928.197,3234.369,5959.836,3240.332z"/>
		<path id="_x31_80640158" fill="none" stroke="#010101" stroke-width="80" d="M6225.305,2783.229
			c-1.037-7.164-9.152-14.196-15.783-18.839l-0.916-0.644c0,0-6.695-5.785-10.299-8.907
			c-46.217-14.185-86.774-32.831-123.568-57.129c-200.316-132.271-290.122-390.184-290.226-618.688
			c-0.02-56.285,5.394-110.775,15.938-161.173l8.787-49.542c7.191-42.66,18.158-103.53,33.506-170.548l-2.139-0.445
			c-2.593,12.359-13.42,22.903-36.344,30.011c-29.888,9.258-96.604-71.581-116.178-87.108
			c-103.129-81.8-231.368-130.562-362.186-142.08c-62.912-5.538-129.403-10.552-192.047-0.865
			c-17.241,2.657-78.804,17.173-118.979,18.232c-47.814,4.327-85.124-5.219-103.561-11.507l0.484,270.269
			c0,0,175.006-20.556,412.09,100.564c16.969-9.405,79.53,2.499,115.342,24.834c77.175,48.142,144.183,118.379,201.9,188.371
			c22.572,27.375,140.779,165.328,104.191,207.045c-19.098,21.777-57.525-39.129-86.263-88.825
			c50.369,108.279,87.786,217.658,111.341,325.469c14.736,67.483,22.494,129.205,23.709,188.686
			c0.425,20.873-3.564,43.856-7.773,68.192c-8.385,48.392-17.055,98.419,10.225,126.885c26.891,28.063,78.133,13.745,123.355,1.125
			l34.61-8.948l21.812-4.525c77.092-15.837,193.58-39.782,238.447-96.053c4.977-6.249,10.658-14.937,10.656-22.099
			C6225.424,2784.391,6225.378,2783.805,6225.305,2783.229z"/>
		<path id="_x31_80640159" fill="none" stroke="#010101" stroke-width="80" d="M5366.258,1921.909
			c-116.417-67.452,14.245-58.87,72.969-22.244c77.173,48.141,144.183,118.38,201.898,188.368
			c22.574,27.376,140.779,165.33,104.191,207.047c-28.801,32.843-101.574-122.386-118.757-143.584
			C5549.484,2056.382,5464.279,1978.706,5366.258,1921.909z"/>
		<path id="_x31_80640160" fill="none" stroke="#010101" stroke-width="80" d="M5840.605,1697.316
			c-2.593,12.357-13.42,22.901-36.344,30.009c-29.888,9.259-96.604-71.58-116.178-87.108
			c-103.129-81.8-231.368-130.562-362.186-142.08c-62.912-5.538-129.403-10.552-192.047-0.865
			c-17.241,2.657-78.804,17.173-118.979,18.232c-47.814,4.327-85.124-5.219-103.561-11.507l-0.01-7.105
			c22.129-4.083,68.146-13.996,96.15-30.093c36.582-25.729,102.668-31.001,144.053-40.026
			c110.717-24.129,226.842-21.097,335.434,12.318c88.98,27.375,164.359,77.85,240.898,129
			C5747.954,1581.542,5850.169,1651.76,5840.605,1697.316z"/>
		<path id="_x31_80640161" fill="none" stroke="#010101" stroke-width="80" d="M5918.757,1448.987
			c-32.473,77.644-57.457,167.699-76.011,248.771l-2.139-0.444c9.563-45.554-92.651-115.773-112.773-129.224
			c-76.537-51.15-151.918-101.625-240.896-129c-108.592-33.416-224.717-36.448-335.434-12.319
			c-41.385,9.026-107.471,14.298-144.053,40.026c-28.005,16.097-74.021,26.011-96.152,30.092l-0.309-175.304l6.953-1.017
			c9.869-5.584,18.124-12.417,25.064-20.282c92.119-40.625,255.988-52.845,425.244-31.11
			C5530.02,1289.94,5812.9,1384.346,5918.757,1448.987z"/>
		<path id="_x31_80640151" fill="none" stroke="#010101" stroke-width="80" d="M5326.803,1903.195
			c-64.215-38.206-151.031-68.154-223.396-85.439c-65.232-15.584-124.201-22.584-191.605-22.554l0.162,365.493
			c44.502,100.689,181.32,124.576,215.023,228.485c46.227,142.496-81.104,328.369-143.825,449.553
			c-14.427,27.856-40.458,39.57-70.88,41.53l-0.025,46.158c103.412,13.892,114.68,120.378,102.363,203.258
			c-20.992,141.269-83.46,249.855-64.379,396.927c7.073,54.551-4.468,106.626-7.582,160.556
			c-3.582,62.025,8.204,124.128,8.148,186.184c-0.017,21.52,4.684,50.993,7.154,81.224c0.101-2.038,0.217-3.931,0.361-5.637
			c5.891-69.918-23.771-145.141,5.746-211.758c28.907-65.273,103.184-98.304,166.149-122.358
			c268.683-102.617,501.863-324.473,589.29-601.314c7.225-22.889,14.211-48.279,20.653-74.271
			c-9.548,35.385-18.979,70.872-31.313,105.41c-10.416,29.16-25.268,56.77-44.551,81.038
			c-10.953,13.777-35.608,49.841-57.191,42.578c-12.024-4.043-17.113-13.758-17.654-26.672
			c-1.857-44.95,51.506-128.682,60.252-147.212c16.279-34.505,30.489-69.851,46.398-104.517
			c11.691-25.485,23.383-50.839,34.293-76.68c9.163-21.699,15.557-51.357,10.311-74.627c-9.282-41.161-47.424-82.412-44.594-125.342
			c1.062-16.086,20.857-18.468,30.704-11.52c47.113,33.262,46.175,107.536,44.36,161.33
			c9.666-187.066-67.127-413.248-142.196-569.049C5563.773,2058.631,5453.117,1978.354,5326.803,1903.195z"/>
		<path id="_x31_80640156" fill="none" stroke="#010101" stroke-width="80" d="M5997.534,2950.211
			c-59.889,20.128-122.019,40.083-142.471,73.306c-29.129,47.423,11.151,128.041,33.833,170.603
			c53.418,100.207,281.81,27.549,363.852-34.625c68.617-52.007-14.812-222.363-96.617-241.455
			C6118.455,2909.25,6058.996,2929.548,5997.534,2950.211z"/>
		<path id="_x31_80640154" fill="none" stroke="#010101" stroke-width="80" d="M5198.965,3719.848l-8.771,0.471
			c-69.16,6.547-94.703,57.08-113.504,136.488c-3.168,13.369-4.873,27.45-6.681,42.367c-2.636,21.748-5.374,44.244-13.04,65.328
			c-3.755,10.333-10.945,21.161-18.556,32.605c-21.589,32.5-29.04,49.072-16.087,61.368c15.58,14.813,105.033-5.739,240.07-73.014
			c47.417-23.603,76.937-52.085,87.749-84.669c9.038-27.213,4.821-58.135-12.528-91.887
			C5312.441,3759.923,5248.941,3719.135,5198.965,3719.848z"/>
		<path id="_x31_80640152" fill="none" stroke="#010101" stroke-width="80" d="M5668.585,3913.582
			c-35.439-7.909-74.654-11.484-104.726-20.893c-36.118-11.298-58.111-84.298-51.945-115.743
			c10.328-52.61,59.812-92.245,109.805-89.166c111.498,6.858,238.006,63.02,341.916,94.323
			c56.947,17.148,147.842,36.553,144.668-45.754c-3.881-100.696-140.963-161.744-234.273-216.909
			c-109.451-64.698,99.035-190.125,196-232.326c87.559-38.114,212.135-85.162,282.633,5.933
			c32.098,41.474,49.515,133.903,54.438,184.275c8.176,83.66,25.789,202.724-18.92,264.612
			c-54.186,74.993-215.482,103.614-314.092,120.066c-109.396,18.259-225.845,39.668-335.339,53.564
			C5719.751,3917.979,5691.539,3918.713,5668.585,3913.582z"/>
		<path id="_x31_80640155" fill="none" stroke="#010101" stroke-width="80" d="M4908.495,2925.948
			c106.911,11.782,118.59,119.853,106.126,203.732c-20.992,141.268-83.46,249.854-64.379,396.927
			c7.073,54.55-4.468,106.627-7.582,160.555c-3.582,62.027,8.204,124.128,8.148,186.186
			c-0.045,60.291,36.925,183.013-41.805,209.995L4908.495,2925.948z"/>
		<path id="_x31_80640137" fill="none" stroke="#010101" stroke-width="80" d="M7373.605,4783.918
			c-7.058-35.244-20.578-70.364-37.936-105.156c14.322,32.578,24.965,66.805,32.432,88.904
			c35.578,105.328-59.646,268.472-142.531,124.914c-18.039-31.238-51.66-148.568-49.486-227.711
			c1.304-47.271,47.192-91.726,94.118-71.363c13.358,5.798,25.335,17.314,36.048,31.961
			c-41.85-69.783-94.083-137.84-135.219-202.566c-8.129-12.645-16.213-25.961-24.63-40.994
			c-41.759-74.589-46.464-178.188-44.688-261.695c1.574-73.842,23.948-171.077-21.048-236.711
			c-8.938-13.038-20.261-23.871-33.085-33.312c-49.486-36.423-121.373-52.016-165.379-93.04
			c-82.173-76.617-92.441-190.344-93.518-296.45c-1.451-142.531-0.279-257.746,9.197-388.281
			c-93.445-40.017-238.248-44.953-328.053,12.612c-26.881,17.232-71.479,129.535-110.604,119.861
			c20.095,47.646,40.501,107.339,53.555,181.062c27.167,153.446,40.763,333.755,2.705,376.911
			c-45.67,51.793-225.885,101.635-375.646,132.161c-141.782,28.899-294.447,48.348-515.312,25.608
			c-80.434-8.283-175.124,76.219-274.107,116.871c-174.6,71.709-338.688,91.527-338.688,91.527l0.467,1062.189
			c95.969,81.951,62.1,237.85,81.1,351.523c19.932,119.236,53.871,275.399,39.42,396.609
			c-8.373,70.172-45.484,101.872-116.512,83.135l-3.906-597.278l0.397,901.866c185.491,38.791,370.784,21.947,557.94-7.098
			c165.207-25.64,359.282-64.029,505.402-147.847c127.854-73.339,235.123-178.335,335.162-285.22
			c96.374-102.953,162.332-223.654,295.322-274.599c12.326-4.72,25.209-8.86,38.763-12.312c17.829-4.541,36.007-7.988,54.368-10.838
			c29.25-4.859,57.568-7.749,86.631-11.05c10.617-1.206,21.276-2.374,32.13-3.739c31.007-4.194,61.588-9.611,90.996-18.572
			c74.847-22.799,146.742-81.382,208.981-129.129c113.623-87.148,152.893-233.841,193.477-364.975
			C7340.279,4969.895,7393.678,4884.116,7373.605,4783.918z M5644.477,5986.719c-7.514,18.829-22.033,32.303-38.518,43.14
			c-18.803,12.347-35.834,28.264-55.342,39.546c-22.638,13.094-46.969,14.932-70.828,23.908l-19.137,2.529
			c-19.447-0.665-39.044-2.278-58.783-5.85c-62.254-11.266-231.809,3.324-266.193-63.326
			c-21.356-41.395,78.572-63.068,77.334-105.862l2.699,0.029c33.541-3.124,67.041-9.534,100.838-8.995
			c31.016,0.486,61.147,8.975,91.895,9.197c19.314,0.135,37.643,3.484,53.731-8.848c23.017-17.65,37.589-38.856,66.992-48.137
			c39.094-12.346,72.269,7.303,97.732,34.639C5651.594,5925.193,5658.457,5951.66,5644.477,5986.719z"/>
		<path id="_x31_80640148" fill="none" stroke="#010101" stroke-width="80" d="M6800.081,3073.361
			c-9.907,104.674-9.69,112.096-11.247,207.682l-6.039,6.268c-4.826,5.295-11.999,10.004-22.732,15.904
			c-34.609,19.021-69.592,42.297-104.433,59.985c-55.11,27.967-110.465,59.455-168.626,80.485
			c-12.389,4.478-48.538,15.684-61.5,19.668l-0.4,0.099c-3.594-25.933-5.834-52.194-12.32-77.503
			c-37.82-147.61-26.312-119.687-48.969-169.983c-3.229-7.165,20.568-16.166,46.732-48.522
			c29.404-36.364,53.342-87.646,101.135-103.456c63.975-21.161,63.975-21.161,133.111-21.886c38.406-0.4,71.768,4.514,98.207,12.258
			C6776.452,3064.157,6800.081,3073.361,6800.081,3073.361z"/>
		<path id="_x31_80640147" fill="none" stroke="#010101" stroke-width="80" d="M6782.793,3287.311l6.039-6.268
			c-0.924,56.941-0.808,115.532-0.154,179.653c0.012,0.742,0.016,1.473,0.025,2.215l-2.733,0.291
			c-61.41,6.581-138.35,24.083-196.296,45.997c-45.511,17.213-123.844,38.766-153.01,80.204
			c-0.492-14.535-1.104-29.077-2.322-43.739c-2.287-27.456-5.446-54.881-9.242-82.212l0.398-0.099
			c12.966-3.984,49.115-15.19,61.5-19.668c58.163-21.031,113.516-52.519,168.63-80.487c34.839-17.688,69.821-40.963,104.431-59.984
			C6770.796,3297.314,6777.967,3292.605,6782.793,3287.311z"/>
		<path id="_x31_80640146" fill="none" stroke="#010101" stroke-width="80" d="M7019.712,3833.754
			c-4.858-2.674-13.306-3.213-18.649-4.039c-21.715-3.406-42.848,0.63-64.031,5.33c-21.268,4.729-42.556,9.513-63.271,14.973
			c-39.425,10.404-75.673,8.947-115.378,1.802c-22.938-4.122-45.225-5.823-68.488-6.255c-71.26-1.314-137.777,3.647-201.69-32.104
			c-24.567-13.747-45.847-29.072-56.413-56.382c-6.844-17.689,1.967-40.619,3.669-58.31c2.05-21.298,4.206-42.696,2.993-64.115
			c-0.861-15.173-1.271-30.201-1.789-45.25c29.166-41.437,107.495-62.987,153.01-80.204c57.946-21.91,134.882-39.414,196.296-45.996
			l2.733-0.29c1.199,105.471,11.889,218.149,93.496,294.239c20.197,18.834,45.184,31.667,69.983,43.313
			c12.899,6.054,24.111,14.255,37.524,18.71C7003.896,3823.89,7007.741,3827.169,7019.712,3833.754z"/>
		<path id="_x31_80640140" fill="none" stroke="#010101" stroke-width="80" d="M6541.406,5343.193
			c21.532,17.596,41.546,41.952,54.92,51.334c141.89,99.468,324.359-181.412,356.401-282.587
			c36.554-115.426-9.771-241.685,25.899-359.084c15.275-50.282,54.713-105.575,46.143-160.162
			c-10.291-65.632-75.106-90.128-115.742-132.882c-42.083-44.275-51.845-98.486-64.998-156.235
			c-13.113-57.563-20.551-136.175-59.405-183.549l-5.981-3.253c-87.357-40.189-174.35,40.143-237.08,86.283
			c-173.102,127.359,34.495,230.989,82.268,362.613c47.771,131.644,24.537,278.418-17.296,408.693
			c-16.436,51.203-33.856,100.481-46.558,153.18c-16.694,69.237-32.079,166.201-5.442,234.293L6541.406,5343.193z"/>
		<path id="_x31_80640142" fill="none" stroke="#010101" stroke-width="80" d="M6537.416,3948.103
			c26.315,98.817,60.264,175.685-60.867,216.181c-83.08,27.774-263.371,24.788-306.464-74.879
			c-34.556-80.047-50.604-135.362,41.474-173.887c80.715-33.771,168.801-58.289,256.697-47.033
			C6510.408,3873.876,6525.692,3904.055,6537.416,3948.103z"/>
		<path id="_x31_80640141" fill="none" stroke="#010101" stroke-width="80" d="M6014.174,6147.637
			c-27.234-21.991-46.023-14.604-78.402-6.158c-60.589,15.825-115.447,28.33-177.881,13.824
			c-22.65-5.26-38.598-16.258-58.632-27.654c-6.392-3.635-12.802-6.866-19.239-9.734l-4.753-13.278
			c-25.02-77.421-10.644-182.831,30.969-251.548c55.965-92.432,153.138-101.393,249.323-123.433
			c33.705-7.724,86.674-15.646,108.34-46.958c13.086-18.926,8.206-45.105,14.674-66.508
			c23.672-78.24,97.402-162.223,169.182-199.106c67.814-34.847,184.256-34.458,226.861,43.776l6.236-0.828
			c8.746,61.275,12.775,147.682,56.309,167.486c7.707,3.508,18.164,2.045,30.311-1.529l1.705,3.25
			c-108.908,57.544-171.064,164.834-257.979,257.675c-89.764,95.897-185.333,190.272-296.383,261.634L6014.174,6147.637z"/>
		<path id="_x31_80640143" fill="none" stroke="#010101" stroke-width="80" d="M6491.795,4895.059
			c70.565,8.561,102.699,74.351,58.85,220.711c-49.633,165.636-183.871,224.422-306.084,285.038
			c-137.259,68.079-156.243,153.144-178.052,207.917c-25.303,63.541-59.708,91.164-209.589,133.349
			c-32.51,9.646-54.265,21.931-68.542,35.038c-31.348,16.055-59.075,38.826-80.787,73.754
			c-30.239,11.462-79.142,10.156-151.209,3.057c-256.234-42.704-257.267,67.217-401.079,9.01
			c-113.412-47.682-131.997-182.029-149.464-420.795c-22.728-339.34,136.413-346.393,212.3-398.358
			c56.279-32.052,76.349-99.538,4.469-181.817c-31.371-35.913-71.242-58.305-116.451-61.736
			c-11.232-13.754-22.433-41.244,5.694-103.984c54.803-66.71,79.421-151.986,49.797-254.736
			c-21.458-74.456-62.591-128.258-115.173-172.072c-38.734-63.344-49.536-132.18-0.937-166.209
			c58.57-14.193,130.774-35.287,204.872-65.721c98.983-40.649,193.682-125.152,274.107-116.875
			c202.646,20.864,347.875,6.217,479.966-18.656c94.711-0.959,139.731,17.517,146.515,60.094
			c-18.146,33.381-3.471,75.093,19.087,127.346c30.112,69.649,127.245,92.083,211.36,89.787
			c33.676,10.355,33.469,29.351,32.305,89.693c-0.85,43.623-18.707,91.861-51.885,115.668c-4.125-0.157-8.221-0.101-12.281,0.184
			c-131.641,9.151-129.63,121.498-130.9,196.264c-1.482,87.397,6.223,185.449,85.081,253.307
			C6347.735,4872.135,6432.107,4921.156,6491.795,4895.059z"/>
		<path id="_x31_80640139" fill="none" stroke="#010101" stroke-width="80" d="M4975.872,4994.818
			c17.536,18.88,39.603,33.858,61.94,45.211c142.178,72.246,315.49-28.455,184.801-178.07
			c-40.377-46.217-94.835-70.035-156.623-59.881c-53.023,8.719-141.18,71.948-121.613,138.969
			C4950.391,4961.627,4961.646,4979.508,4975.872,4994.818z"/>
		<path id="_x31_80640138" fill="none" stroke="#010101" stroke-width="80" d="M6550.473,4804.57
			c3.014-21.973,3.731-45.205,7.976-68.146c12.393-66.968,26.454-135.46-0.496-201.028
			c-28.786-70.062-125.716-156.341-208.362-150.65c-131.645,9.149-129.634,121.492-130.904,196.252
			c-1.477,87.405,6.229,185.457,85.081,253.307c47.433,40.798,141.878,94.642,201.64,53.158
			C6536.967,4865.551,6546.123,4836.37,6550.473,4804.57z"/>
		<path id="_x31_80640144" fill="none" stroke="#010101" stroke-width="80" d="M5046.479,4269.432
			c52.58,43.816,93.713,97.616,115.171,172.072c29.622,102.746,5.006,188.024-49.795,254.736
			c-48.519,59.075-120.706,103.592-199.825,132.795l-0.044-98.508l4.925-1.861c146.303-56.318,70.174-357.549-0.195-437.827
			l-4.919-6.481l-0.046-101.569l3.649,2.087C4963.107,4210.494,5007.883,4237.27,5046.479,4269.432z"/>
		<path id="_x31_80640145" fill="none" stroke="#010101" stroke-width="80" d="M4916.715,4290.836
			c70.369,80.277,146.498,381.51,0.195,437.826l-4.927,1.861l-0.189-446.168L4916.715,4290.836z"/>
		<path id="_x31_80640131" fill="none" stroke="#010101" stroke-width="80" d="M7270.198,4593.504
			c-46.928-20.36-92.812,24.094-94.118,71.363c-2.174,79.143,31.445,196.473,49.486,227.711
			c82.885,143.557,178.109-19.584,142.531-124.912c-7.465-22.102-18.109-56.326-32.434-88.904
			c-8.91-17.859-18.832-35.636-29.422-53.299C7295.533,4610.822,7283.559,4599.302,7270.198,4593.504z"/>
		<path id="_x31_80640132" fill="none" stroke="#010101" stroke-width="80" d="M4910.758,5189.98
			c97.766,81.612,63.439,238.52,82.535,352.762c19.934,119.236,53.873,275.399,39.422,396.609
			c-8.373,70.172-45.486,101.874-116.514,83.135L4910.758,5189.98z"/>
		<path id="_x31_80640133" fill="none" stroke="#010101" stroke-width="80" d="M5479.789,6093.312
			c23.859-8.979,48.19-10.812,70.828-23.908c19.508-11.282,36.537-27.197,55.342-39.546c16.486-10.835,31.006-24.31,38.518-43.14
			c13.979-35.059,7.117-61.525-17.577-88.027c-25.464-27.336-58.643-46.986-97.732-34.639c-29.405,9.28-43.976,30.486-66.992,48.135
			c-16.089,12.336-34.417,8.982-53.729,8.85c-30.747-0.225-60.883-8.711-91.896-9.199c-33.797-0.535-67.297,5.875-100.838,8.997
			l-2.701-0.029c1.24,42.794-98.69,64.468-77.334,105.862c34.387,66.648,203.941,52.059,266.193,63.326
			c19.739,3.567,39.338,5.185,58.783,5.848L5479.789,6093.312z"/>
		<path id="_x31_80640134" fill="none" stroke="#010101" stroke-width="80" d="M7270.198,4593.504
			c-46.928-20.36-92.812,24.094-94.118,71.363c-2.174,79.143,31.445,196.473,49.486,227.711
			c82.885,143.557,178.109-19.584,142.531-124.912c-7.465-22.102-18.109-56.326-32.434-88.904
			c-8.91-17.859-18.832-35.636-29.422-53.299C7295.533,4610.822,7283.559,4599.302,7270.198,4593.504z"/>
		<path id="_x31_80640136" fill="none" stroke="#010101" stroke-width="80" d="M5479.789,6093.312
			c23.859-8.979,48.19-10.812,70.828-23.908c19.508-11.282,36.537-27.197,55.342-39.546c16.486-10.835,31.006-24.31,38.518-43.14
			c13.979-35.059,7.117-61.525-17.577-88.027c-25.464-27.336-58.643-46.986-97.732-34.639c-29.405,9.28-43.976,30.486-66.992,48.135
			c-16.089,12.336-34.417,8.982-53.729,8.85c-30.747-0.225-60.883-8.711-91.896-9.199c-33.797-0.535-67.297,5.875-100.838,8.997
			l-2.701-0.029c1.24,42.794-98.69,64.468-77.334,105.862c34.387,66.648,203.941,52.059,266.193,63.326
			c19.739,3.567,39.338,5.185,58.783,5.848L5479.789,6093.312z"/>
		<path id="_x31_80640135" fill="none" stroke="#010101" stroke-width="80" d="M4910.758,5189.98
			c97.766,81.612,63.439,238.52,82.535,352.762c19.934,119.236,53.873,275.399,39.422,396.609
			c-8.373,70.172-45.486,101.874-116.514,83.135L4910.758,5189.98z"/>
		<path id="_x31_80640211" fill="none" stroke="#010101" stroke-width="80" d="M8828.266,4706.894
			c-61.293-69.596-195.684-12.897-262.762,17.786c-46.613,21.325-88.045,50.86-136.918,67.699
			c-161.664,55.68-318.881,96.391-379.246,279.654c-60.46,183.543,61.779,338.674,246.227,358.48
			c221.734,23.805,425.553-280.063,501.797-450.928C8826.732,4913.773,8886.637,4773.221,8828.266,4706.894z"/>
		<path id="_x31_80640212" fill="none" stroke="#010101" stroke-width="80" d="M7527.553,3942.281
			c-32.896-100.689-98.703-175.816-212.488-170.612c-101.625,4.64-172.697,73.724-213.964,157.653
			c16.08,60.33,1.843,132.693,0.604,190.885c-1.775,83.508,2.93,187.107,44.69,261.695c30.614,54.664,56.786,86.715,96.981,145.844
			c57.481,61.748,136.386,108.216,222.881,77.086c104.917-37.76,115.995-160.216,114.594-256.029
			C7578.914,4216.525,7568.867,4068.681,7527.553,3942.281z"/>
		<path id="_x31_80640213" fill="none" stroke="#010101" stroke-width="80" d="M6812.389,2928.908
			c57.461-48.725,115.268-86.013,180.2-28.29c67.382,59.906,115.02,164.729,145.913,247.634c33.4,89.619,40.596,190.39-12.369,274.5
			c-46.619,74.042-131.049,111.157-209.557,61.365c-66.758-42.336-101.991-120.244-127.828-191.609L6812.389,2928.908z"/>
		<path id="_x31_80640218" fill="none" stroke="#010101" stroke-width="80" d="M6812.389,2928.908
			c57.461-48.725,115.268-86.013,180.2-28.29c67.382,59.906,115.02,164.729,145.913,247.634c33.4,89.619,40.596,190.39-12.369,274.5
			c-46.619,74.042-131.049,111.157-209.557,61.365c-66.758-42.336-101.991-120.244-127.828-191.609L6812.389,2928.908z"/>
		<path id="_x31_80640215" fill="none" stroke="#010101" stroke-width="80" d="M8828.266,4706.894
			c-61.293-69.596-195.684-12.897-262.762,17.786c-46.613,21.325-88.045,50.86-136.918,67.699
			c-161.664,55.68-318.881,96.391-379.246,279.654c-60.46,183.543,61.779,338.674,246.227,358.48
			c221.734,23.805,425.553-280.063,501.797-450.928C8826.732,4913.773,8886.637,4773.221,8828.266,4706.894z M8388.029,5212.625
			c-105.496,13.866-43.932-106.572-13.127-137.876c24.725-25.108,118.012-114.026,150.986-85.812
			C8575.865,5031.688,8437.611,5206.091,8388.029,5212.625z"/>
		<path id="_x31_80640214" fill="none" stroke="#010101" stroke-width="80" d="M8525.889,4988.938
			c-32.977-28.217-126.262,60.699-150.986,85.808c-30.805,31.306-92.371,151.742,13.127,137.878
			C8437.611,5206.091,8575.865,5031.688,8525.889,4988.938z"/>
		<path id="_x31_80640217" fill="none" stroke="#010101" stroke-width="80" d="M7527.553,3942.281
			c-32.896-100.689-98.703-175.816-212.488-170.612c-101.625,4.64-172.697,73.724-213.964,157.653
			c16.08,60.33,1.843,132.693,0.604,190.885c-1.775,83.508,2.93,187.107,44.69,261.695c30.614,54.664,56.786,86.715,96.981,145.844
			c57.481,61.748,136.386,108.216,222.881,77.086c104.917-37.76,115.995-160.216,114.594-256.029
			C7578.914,4216.525,7568.867,4068.681,7527.553,3942.281z M7399.021,4396.264c-30.334,52.971-86.562,28.289-117.209-6.826
			c-40.523-46.436-54.225-108.454-74.886-164.859c-23.038-62.896-58.667-119.387-74.046-185.086
			c-18.789-80.274,62.695-171.926,142.032-164.801c52.544,4.715,99.393,43.791,115.308,93.775
			c18.533,58.209-20.119,112.604-15.623,171.408c3.726,48.601,32.894,90.151,41.822,137.195c0.934,4.88,1.646,9.926,2.155,15.078
			C7422.013,4326.939,7415.87,4366.842,7399.021,4396.264z"/>
		<path id="_x31_80640216" fill="none" stroke="#010101" stroke-width="80" d="M7416.422,4277.07
			c-8.929-47.044-38.095-88.597-41.821-137.195c-4.497-58.803,34.157-113.199,15.622-171.408
			c-15.914-49.984-62.762-89.061-115.306-93.775c-79.339-7.123-160.819,84.53-142.034,164.801
			c15.379,65.699,51.008,122.189,74.046,185.086c20.663,56.407,34.362,118.424,74.888,164.859
			c30.643,35.115,86.873,59.797,117.209,6.826c16.847-29.42,22.991-69.322,19.554-104.113
			C7418.07,4286.996,7417.355,4281.95,7416.422,4277.07z"/>
		<path id="_x31_80640220" fill="none" stroke="#010101" stroke-width="80" d="M6438.854,4669.59
			c-71.021,13.758-31.35-110.834-24.455-149.95c6.693-37.976,16.434-96.714,55.933-116.212
			c31.419-15.508,64.857,0.615,61.816,41.318c-3.367,44.914-36.377,79.02-44.315,122.914c-5.714,31.586-0.527,87.102-39.672,99.525
			C6444.869,4668.229,6441.764,4669.025,6438.854,4669.59z"/>
		<path id="_x31_80640221" fill="none" stroke="#010101" stroke-width="80" d="M6417.125,4794.585
			c60.008,27.968,68.809-73.224,14.674-78.019C6384.707,4712.402,6378.851,4776.746,6417.125,4794.585z"/>
		<path id="_x31_80640222" fill="none" stroke="#010101" stroke-width="80" d="M4914.937,6023.755
			c63.471,13.937,104.368-8.2,116.523-62.691c5.048-22.632-8.714-118.802,34.936-113.52c42.429,5.164,106.741,14.303,135.707,48.896
			c50.421,60.239-91.481,81.658-66.427,130.228c34.389,66.646,203.939,52.059,266.193,63.326
			c103.397,18.705,202.92-16.094,297.39,37.658c20.034,11.395,35.979,22.393,58.632,27.652
			c62.434,14.504,117.29,2.001,177.881-13.824c32.379-8.45,51.166-15.835,78.402,6.156c-15.225,10.156-25.002,16.734-38.14,24.495
			c-146.119,83.817-340.196,122.209-505.401,147.849c-187.156,29.045-372.447,45.889-557.941,7.096L4914.937,6023.755z"/>
		<path id="_x31_80640223" fill="none" stroke="#010101" stroke-width="80" d="M5082.129,3784.399
			c35.896-75.431,108.014-117.544,89.416-147.881c-7.293-11.896-78.387-5.772-149.195,52.131
			c-16.365,13.385-30.735,31.2-39.956,52.252c-9.929,22.638-14.396,41.519-14.726,72.821
			c-0.44,42.373-11.554,190.162,41.578,190.898C5053.664,4005.232,5044.463,3863.536,5082.129,3784.399z"/>
		<path id="_x31_80640224" fill="none" stroke="#010101" stroke-width="80" d="M7373.605,4783.918
			c-7.058-35.244-20.578-70.364-37.936-105.156c14.322,32.578,24.965,66.805,32.432,88.904
			c35.578,105.328-59.646,268.472-142.531,124.914c-18.039-31.238-51.66-148.568-49.486-227.711
			c1.304-47.271,47.192-91.726,94.118-71.363c13.358,5.798,25.335,17.314,36.048,31.961
			c-50.785-84.682-116.881-166.832-159.851-243.561c-41.758-74.588-46.464-178.188-44.688-261.695
			c1.574-73.842,23.948-171.077-21.048-236.711c-66.406-96.867-170.444-20.789-256.763-21.761
			c-77.358-0.872-201.742-42.697-254.68,41.939c-90.253,144.365,165.322,155.295,215.409,216.349
			c38.853,47.378,46.294,125.986,59.405,183.55c13.153,57.749,22.913,111.96,64.998,156.235
			c40.636,42.754,105.449,67.248,115.744,132.883c8.568,54.586-30.869,109.879-46.143,160.161
			c-35.674,117.399,10.652,243.658-25.901,359.084c-32.044,101.177-214.512,382.055-356.401,282.587
			c-26.758-18.762-80.049-97.408-118.949-62.146c-23.809,21.571-4.558,82.472,0.312,108.128
			c11.503,60.605,11.069,164.986,59.474,187.006c15.427,7.021,41.797-5.858,70.8-15.7c65.338-22.172,120.348-27.124,178.324-33.707
			c38.116-4.332,76.74-8.176,123.127-22.313c74.845-22.799,146.74-81.383,208.979-129.128
			c113.623-87.149,152.895-233.842,193.479-364.978C7340.279,4969.895,7393.678,4884.116,7373.605,4783.918z"/>
		<path id="_x31_80640225" fill="none" stroke="#010101" stroke-width="80" d="M6354.123,2792.861
			c7.348,1.234,180.381,8.035,248.781,2.653c48.624-3.832,180.725,10.611,223.379-13.914c-7.56,124.301-18.416,170.798-26.2,291.76
			c-93.36-40.886-239.747-46.349-330.257,11.665c-34.023,21.814-96.434,195.938-140.201,82.246
			c-32.382-84.136-50.939-216.938-112.537-288.722C6204.355,2798.452,6292.765,2782.56,6354.123,2792.861z"/>
		<path id="_x31_80640226" fill="none" stroke="#010101" stroke-width="80" d="M6777.668,2165.947
			c52.399,127.75,68.152,271.881,65.666,408.861c-1.031,56.698,3.803,169.105-87.648,151.088
			c-77.82-15.325-44.594-96.149-41.686-149.15c21.971-400.58-169.008-936.317-569.876-1110.338
			c-37.1-16.102-146.292-25.732-144.8-83.037c2.426-93.757,172.018-2.895,203.391,26.273
			c80.552,74.885,176.244,137.502,240.967,225.442C6570.645,1807.591,6696.058,1967.047,6777.668,2165.947z"/>
		<path id="_x31_80640227" fill="none" stroke="#010101" stroke-width="80" d="M5263.371,4633.971
			c0.061-0.037,14.064-3.23,14.131-3.261c57.904-32.177,45.878-189.216,49.228-245.509c6.37-107.117-43.429-129.957-81.251-40.572
			C5235.084,4369.196,5202.966,4666.832,5263.371,4633.971z"/>
		<path id="_x31_80640228" fill="none" stroke="#010101" stroke-width="80" d="M5524.123,3694.606
			c-62.106,7.819-331.787,76.323-321.262-43.872c6.201-70.854,55.455-91.747,105.713-125.959
			c118.488-80.65,321.819-162.867,451.832-73.812c88.867,60.876,344.801,169.718,348.945,279.344
			c3.176,83.913-75.492,76.422-132.438,58.935C5821.885,3741.642,5692.611,3673.392,5524.123,3694.606z"/>
		<path id="_x31_80640219" fill="none" stroke="#010101" stroke-width="80" d="M4911.963,2160.695
			c44.502,100.689,181.32,124.576,215.025,228.485c46.225,142.496-81.105,328.371-143.827,449.551
			c-14.425,27.858-40.456,39.572-70.88,41.532L4911.963,2160.695z"/>
	</g>
</g>
</svg>
