<?xml version="1.0" encoding="utf-8"?>
<!-- Generator: Adobe Illustrator 16.0.0, SVG Export Plug-In . SVG Version: 6.00 Build 0)  -->
<!DOCTYPE svg PUBLIC "-//W3C//DTD SVG 1.1//EN" "http://www.w3.org/Graphics/SVG/1.1/DTD/svg11.dtd">
<svg version="1.1" id="Layer_1" xmlns="http://www.w3.org/2000/svg" xmlns:xlink="http://www.w3.org/1999/xlink" x="0px" y="0px"
	 width="9744.01px" height="6823.46px" viewBox="0 0 9744.01 6823.46" enable-background="new 0 0 9744.01 6823.46"
	 xml:space="preserve">
<g transform="scale(1.0)">
	<g id="_x31_80606872" transform=" scale(1.0, 1.0)">
		<path id="_x31_80606874" fill="none" stroke="#000000" stroke-width="49.5821" d="M6283.242,4393.556
			c-22.52,67.747-50.352,131.78-78.105,186.966c-103.768,206.264-339.707,370.017-531.01,397.063
			c-231.258,32.702-440.076-97.515-577.429-325.558c-80.882-134.285-172.95-319.087-208.472-481.266
			c-30.667-140.001-11.707-288.461-12.355-431.139c-1.323-291.288-52.171-593.754,39.643-870.369
			c30.25-91.146,54.853-196.919,107.448-272.875c62.622-90.431,157.679-137.649,250.636-162.705
			c120.541-32.488,273.797-6.673,385.352,57.976c67.439,39.083,154.639,89.58,211.884,147.596
			c166.464,168.71,275.985,382.999,323.04,643.361c18.201,100.716,35.966,201.959,45.105,304.573
			c7.561,84.928-3.916,162.229,19.045,245.073c21.449,77.37,61.102,149.907,70.76,231.73
			C6341.247,4169.527,6318.918,4286.205,6283.242,4393.556z"/>
		<path id="_x31_80606875" fill="none" stroke="#000000" stroke-width="49.5821" d="M5870.833,2639.246
			c-57.246-58.016-144.444-108.513-211.884-147.594c-111.555-64.651-264.812-90.465-385.354-57.978
			c-92.958,25.056-188.012,72.275-250.635,162.706c-52.596,75.954-77.199,181.728-107.448,272.874
			c-91.814,276.615-40.965,579.081-39.644,870.369c0.65,142.678-18.312,291.138,12.356,431.139
			c35.522,162.179,127.589,346.982,208.472,481.266c137.354,228.043,346.172,358.26,577.43,325.558
			c191.303-27.047,427.242-190.8,531.01-397.065c27.754-55.184,55.586-119.217,78.105-186.966
			c35.675-107.349,58.004-224.026,45.541-329.568c-9.659-81.825-49.312-154.362-70.762-231.732
			c-22.961-82.842-11.484-160.145-19.045-245.073c-9.138-102.614-26.906-203.859-45.104-304.572
			C6146.818,3022.243,6037.295,2807.956,5870.833,2639.246z M5510.35,3350.476c5.033,27.433,2.285,42.424-5.396,67.601
			c-11.874,38.907-13.17,79.779-13.596,121.064c-0.346,33.782,2.508,71.219-10.407,102.18c-8.544-20.359-4.016-51.167-4.852-74.138
			c-0.908-24.775-2.67-49.599-4.06-74.842c-3.064-55.256-6.23-107.138-13.561-160.77l4.535,49.46
			c-2.551-18.925-19.362-108.364,8.041-113.961C5494.051,3262.368,5507.027,3332.422,5510.35,3350.476z"/>
		<path id="_x31_80606876" fill="none" stroke="#000000" stroke-width="49.5821" d="M5870.833,2639.246
			c-57.246-58.016-144.444-108.513-211.884-147.594c-111.555-64.651-264.812-90.465-385.354-57.978
			c-92.958,25.056-188.012,72.275-250.635,162.706c-52.596,75.954-77.199,181.728-107.448,272.874
			c-91.814,276.615-40.965,579.081-39.644,870.369c0.65,142.678-18.312,291.138,12.356,431.139
			c35.522,162.179,127.589,346.982,208.472,481.266c137.354,228.043,346.172,358.26,577.43,325.558
			c191.303-27.047,427.242-190.8,531.01-397.065c27.754-55.184,55.586-119.217,78.105-186.966
			c35.675-107.349,58.004-224.026,45.541-329.568c-9.659-81.825-49.312-154.362-70.762-231.732
			c-22.961-82.842-11.484-160.145-19.045-245.073c-9.138-102.614-26.906-203.859-45.104-304.572
			C6146.818,3022.243,6037.295,2807.956,5870.833,2639.246z M5510.35,3350.476c5.033,27.433,2.285,42.424-5.396,67.601
			c-11.874,38.907-13.17,79.779-13.596,121.064c-0.346,33.782,2.508,71.219-10.407,102.18c-8.544-20.359-4.016-51.167-4.852-74.138
			c-0.908-24.775-2.67-49.599-4.06-74.842c-3.064-55.256-6.23-107.138-13.561-160.77l4.535,49.46
			c-2.551-18.925-19.362-108.364,8.041-113.961C5494.051,3262.368,5507.027,3332.422,5510.35,3350.476z"/>
		<path id="_x31_80606877" fill="none" stroke="#000000" stroke-width="49.5821" d="M5870.833,2639.246
			c-57.246-58.016-144.444-108.513-211.884-147.594c-111.555-64.651-264.812-90.465-385.354-57.978
			c-92.958,25.056-188.012,72.275-250.635,162.706c-52.596,75.954-77.199,181.728-107.448,272.874
			c-91.814,276.615-40.965,579.081-39.644,870.369c0.65,142.678-18.312,291.138,12.356,431.139
			c35.522,162.179,127.589,346.982,208.472,481.266c137.354,228.043,346.172,358.26,577.43,325.558
			c191.303-27.047,427.242-190.8,531.01-397.065c27.754-55.184,55.586-119.217,78.105-186.966
			c35.675-107.349,58.004-224.026,45.541-329.568c-9.659-81.825-49.312-154.362-70.762-231.732
			c-22.961-82.842-11.484-160.145-19.045-245.073c-9.138-102.614-26.906-203.859-45.104-304.572
			C6146.818,3022.243,6037.295,2807.956,5870.833,2639.246z M5510.35,3350.476c5.033,27.433,2.285,42.424-5.396,67.601
			c-11.874,38.907-13.17,79.779-13.596,121.064c-0.346,33.782,2.508,71.219-10.407,102.18c-8.544-20.359-4.016-51.167-4.852-74.138
			c-0.908-24.775-2.67-49.599-4.06-74.842c-3.064-55.256-6.23-107.138-13.561-160.77l4.535,49.46
			c-2.551-18.925-19.362-108.364,8.041-113.961C5494.051,3262.368,5507.027,3332.422,5510.35,3350.476z"/>
		<path id="_x31_80606878" fill="none" stroke="#000000" stroke-width="49.5821" d="M4921.545,3254.455
			c12.143,137.855,37.718,273.076,47.89,411.519c11.87,161.466,12.165,327.061,45.089,485.114
			c12.98,62.293,32.477,124.643,54.152,183.113c42.145,113.723,101.973,211.753,169.36,304.57
			c32.328,44.531,65.135,89.166,102.029,128.084c35.474,37.422,79.981,79.158,123.808,100.156
			c53.924,25.842,115.809,52.59,174.098,39.607c41.425-9.229,89.707-34.35,121.509-68.795
			c25.718-27.857,43.543-64.562,58.815-101.916c16.802-41.103,34.922-81.307,49.255-123.993
			c49.465-147.312,50.128-310.466,68.448-466.318c12.305-104.643,52.719-182.71,98.436-268.808
			c50.438-95.002,88.396-229.812,112.374-339.706c23.3-106.797-0.932-225.678-16.218-332.349
			c-15.691-109.46-36.934-225.211-80.569-323.875c-4.089-9.245-8.478-18.362-13.12-27.362
			c-46.776-78.123-102.226-149.528-166.061-214.218c-57.241-58.013-144.445-108.508-211.883-147.587
			c-111.557-64.645-264.814-90.46-385.359-57.97c-92.955,25.058-188.013,72.276-250.641,162.709c-1.15,1.665-2.281,3.354-3.41,5.042
			c-31.008,46.604-52.098,103.709-70.643,161.556c-9.309,33.961-16.496,69.381-21.891,105.571
			C4907.715,2998.116,4911.232,3137.428,4921.545,3254.455z M5024.42,2994.892c12.711-58.868-4.812-116.787,6.191-175.962
			c11.182-60.175,38.318-114.693,66.013-164.819c21.132-38.247,50.798-99.104,91.343-108.175
			c16.217-3.625,32.021,4.612,48.789,0.006c21.811-5.992,39.996-23.084,61.136-31.21c21.748-8.36,43.565-16.78,66.416-19.242
			c99.908-10.766,165.566,27.064,244.285,96.269c38.108,33.5,73.784,64.44,114.733,92.186
			c29.553,20.013,73.631,45.792,95.984,77.724c21.561,30.795,32.639,71.854,52.978,104.656
			c38.749,62.505,85.247,117.61,113.817,188.68c31.111,77.391,63.295,171.842,50.936,259.726
			c-7.224,51.315-18.756,99.283-23.336,152.06c-12.418,142.892-51.652,275.263-126.182,387.329
			c-47.991,72.179-84.814,133.456-98.938,228.729c-29.448,198.781,54.312,500.777-109.461,637.121
			c-109.836,91.441-269.221,42.044-357.459-66.157c-96.432-118.246-151.319-249.212-196.639-405.12
			c-29.342-100.922-15.894-229.199-14.84-335.002c0.66-66.461,36.596-102.693,41.803-165.412
			c7.926-95.644-64.279-176.812-68.281-268.988c-2.158-49.758,3.599-87.197-9.258-137.45
			C5045.216,3227.554,4998.082,3116.874,5024.42,2994.892z"/>
		<path id="_x31_80606882" fill="none" stroke="#000000" stroke-width="49.5821" d="M5744.266,3110.251
			c33.717,50.118,63.188,105.081,79.398,167.436c58.441,224.909-138.471,342.743-194.66,521.139
			c-20.725,65.81-38.424,133.833-45.402,204.265c-6.059,61.205,2.21,116.927,7.407,177.354
			c8.955,104.087,32.649,252.74-21.76,344.614c-51.272,86.567-151.655,15.3-188.587-57.915
			c-30.771-60.982-59.947-128.219-76.047-197.543c-16.605-71.533-11.989-146.391-14.48-219.723
			c-3.336-97.777,37.595-194.135,44.353-291.326c8.218-118.16-2.807-240.839-39.522-351.471
			c-32.111-96.739-76.484-187.178-90.053-290.323c-13.598-103.339,2.73-230.579,61.454-309.202
			c80.654-107.999,179.879-46.109,257.741,29.553c40.535,39.396,78.551,82.438,114.656,127.844
			C5675.691,3011.384,5710.635,3060.277,5744.266,3110.251z M5458.467,3331.552c7.334,53.625,10.502,105.513,13.559,160.771
			c1.393,25.239,3.153,50.065,4.067,74.837c0.835,22.977-3.698,53.782,4.846,74.143c12.916-30.959,10.06-68.399,10.407-102.179
			c0.426-41.283,1.722-82.155,13.595-121.069c7.688-25.176,10.431-40.166,5.397-67.598c-3.32-18.06-16.294-88.116-39.297-83.411
			c-27.403,5.599-10.59,95.035-8.041,113.964"/>
		<path id="_x31_80606881" fill="none" stroke="#000000" stroke-width="49.5821" d="M5557.775,4602.168
			c71.68-17.592,80.52-117.351,75.981-191.848c-6.899-113.418-26.741-221.885-21.894-337.002
			c4.221-100.308,24.41-196.361,66.678-282.18c23.717-48.158,41.811-91.468,75.781-128.322
			c18.863-20.465,37.056-44.221,53.51-70.338c46.242-73.381,78.751-165.395,73.764-255.273c-3.162-56.965-16.133-113.867-38-164.273
			c-40.145-92.528-100.585-164.94-162.941-234.672c-66.83-74.732-128.408-154.316-208.512-208.53
			c-74.891-50.688-167.707-56.958-236.334,12.308c-76.396,77.122-73.955,199.556-65.963,309.442
			c2.533,34.76,0.254,67.817,6.765,102.404c24.048,127.598,92.948,232.395,120.201,358.439
			c18.011,83.337,22.481,170.587,16.01,256.114c-8.64,114.208-48.312,221.317-50.604,336.653
			c-2.448,123.23,42.832,252.043,92.846,356.448C5397.517,4550.139,5468.691,4624.031,5557.775,4602.168z M5304.625,4269.607
			c-16.605-71.531-11.988-146.389-14.48-219.719c-3.334-97.777,37.596-194.132,44.354-291.32
			c8.222-118.156-2.809-240.83-39.524-351.46c-32.104-96.737-76.478-187.173-90.045-290.317
			c-13.597-103.337,2.731-230.579,61.45-309.194c80.66-108,179.885-46.115,257.74,29.548
			c40.535,39.393,78.553,82.438,114.66,127.841c36.926,46.427,71.87,95.321,105.492,145.291
			c33.725,50.115,63.195,105.077,79.395,167.431c58.449,224.903-138.463,342.735-194.652,521.131
			c-20.727,65.81-38.424,133.83-45.404,204.257c-6.057,61.205,2.211,116.932,7.404,177.354
			c8.957,104.084,32.655,252.73-21.759,344.605c-51.275,86.568-151.655,15.303-188.588-57.91
			C5349.898,4406.162,5320.723,4338.928,5304.625,4269.607z"/>
		<path id="_x31_80606880" fill="none" stroke="#000000" stroke-width="49.5821" d="M5831.519,3596.78
			c-50.228,71.159-109.786,128.63-145.913,213.806c-56.235,132.644-65.186,272.229-50.548,419.251
			c11.562,116.12,54.685,369.821-80.669,401.181c-154.88,35.885-255.777-173.277-291.379-329.639
			c-9.104-39.986-23.254-80.033-27.938-121.203c-16.23-142.856,41.446-269.993,52.548-409.004
			c9.775-122.428-3.609-246.939-45.534-358.395c-41.988-111.621-96.842-225.842-97.401-351.718
			c-0.426-95.083-7.568-207.784,38.3-289.685c60.013-107.151,168.271-133.367,261.282-86.67
			c119.025,59.748,226.217,159.495,309.743,279.642c75.916,109.204,167.472,263.708,158.964,415.061
			C5907.721,3472.842,5879.037,3529.449,5831.519,3596.78z M5881.584,3337.187c-3.156-56.967-16.13-113.872-38.002-164.278
			c-40.146-92.531-100.579-164.947-162.942-234.678c-66.823-74.735-128.404-154.322-208.507-208.539
			c-74.9-50.69-167.709-56.965-236.342,12.306c-76.396,77.121-73.947,199.556-65.957,309.445
			c2.529,34.764,0.251,67.824,6.769,102.408c24.046,127.601,92.946,232.4,120.196,358.45c18.016,83.34,22.484,170.592,16.012,256.12
			c-8.639,114.213-48.312,221.321-50.604,336.66c-2.447,123.234,42.837,252.049,92.85,356.454
			c42.447,88.606,113.63,162.499,202.707,140.642c71.688-17.596,80.521-117.353,75.986-191.855
			c-6.898-113.417-26.744-221.887-21.902-337.006c4.226-100.313,24.418-196.367,66.683-282.193
			c23.72-48.157,41.812-91.463,75.785-128.316c18.858-20.467,37.052-44.225,53.509-70.34
			C5854.066,3519.084,5886.572,3427.068,5881.584,3337.187z"/>
		<path id="_x31_80606879" fill="none" stroke="#000000" stroke-width="49.5821" d="M5074.451,3341.835
			c12.855,50.254,7.099,87.692,9.256,137.451c4.002,92.175,76.207,173.344,68.281,268.987
			c-5.207,62.719-41.143,98.953-41.805,165.412c-1.051,105.803-14.5,234.08,14.842,335.004
			c45.321,155.906,100.208,286.874,196.641,405.118c88.236,108.201,247.621,157.599,357.458,66.159
			c163.772-136.348,80.014-438.34,109.46-637.123c14.123-95.274,50.947-156.548,98.938-228.729
			c74.529-112.066,113.764-244.438,126.182-387.329c4.58-52.776,16.113-100.744,23.336-152.059
			c12.359-87.885-19.822-182.335-50.936-259.726c-28.568-71.071-75.068-126.175-113.818-188.68
			c-20.338-32.803-31.416-73.861-52.979-104.656c-22.351-31.933-66.43-57.71-95.982-77.726
			c-40.949-27.745-76.623-58.685-114.732-92.184c-78.718-69.205-144.376-107.034-244.286-96.271
			c-22.849,2.464-44.666,10.885-66.415,19.243c-21.141,8.127-39.326,25.219-61.137,31.212c-16.768,4.605-32.57-3.633-48.789-0.008
			c-40.543,9.071-70.209,69.928-91.342,108.176c-27.694,50.125-54.83,104.644-66.014,164.818
			c-11.002,59.176,6.52,117.094-6.189,175.962C4998.082,3116.874,5045.216,3227.554,5074.451,3341.835z M5287.625,3771.195
			c9.781-122.43-3.609-246.936-45.533-358.388c-41.988-111.621-96.84-225.837-97.4-351.709
			c-0.423-95.081-7.564-207.784,38.304-289.68c60.016-107.148,168.271-133.365,261.288-86.676
			c119.025,59.75,226.209,159.495,309.738,279.633c75.916,109.202,167.47,263.701,158.957,415.054
			c-5.251,93.432-33.93,150.035-81.45,217.363c-50.229,71.158-109.786,128.63-145.911,213.809
			c-56.236,132.64-65.188,272.221-50.551,419.243c11.562,116.112,54.682,369.81-80.672,401.172
			c-154.874,35.884-255.773-173.271-291.375-329.627c-9.104-39.987-23.256-80.034-27.938-121.202
			C5218.851,4037.331,5276.527,3910.198,5287.625,3771.195z"/>
		<path id="_x31_80606884" fill="none" stroke="#000000" stroke-width="49.5821" d="M6036.9,2853.5
			c4.643,8.999,9.033,18.118,13.121,27.362c43.637,98.663,64.879,214.415,80.568,323.875
			c15.286,106.669,39.518,225.552,16.218,332.35c-23.976,109.892-61.937,244.702-112.374,339.704
			c-45.717,86.098-86.129,164.163-98.434,268.808c-18.322,155.853-18.984,319.007-68.45,466.318
			c-14.333,42.688-32.452,82.89-49.255,123.993c-15.271,37.354-33.096,74.059-58.815,101.916
			c-31.802,34.445-80.084,59.566-121.509,68.795c-58.287,12.984-120.172-13.766-174.098-39.607
			c-43.826-20.996-88.334-62.734-123.808-100.156c-36.894-38.918-69.701-83.553-102.029-128.084
			c-67.388-92.817-127.214-190.848-169.358-304.57c-21.676-58.471-41.172-120.822-54.152-183.113
			c-32.925-158.055-33.219-323.648-45.09-485.114c-10.172-138.442-35.746-273.664-47.891-411.519
			c-10.312-117.026-13.829-256.34,5.469-385.854c5.396-36.191,12.582-71.61,21.891-105.571
			c-11.519,35.921-22.06,72.124-33.39,106.274c-91.815,276.613-40.974,579.068-39.647,870.354
			c0.646,142.675-18.312,291.136,12.354,431.133c35.521,162.178,127.591,346.977,208.47,481.254
			c137.355,228.036,346.175,358.252,577.435,325.544c191.303-27.049,427.25-190.804,531.018-397.066
			c27.754-55.185,55.586-119.214,78.104-186.96c35.681-107.354,58.008-224.029,45.544-329.568
			c-9.656-81.822-49.312-154.363-70.761-231.73c-22.962-82.839-11.479-160.142-19.041-245.069
			c-9.14-102.612-26.909-203.854-45.108-304.568C6164.87,3122.109,6112.105,2979.108,6036.9,2853.5z"/>
		<path id="_x31_80606883" fill="none" stroke="#000000" stroke-width="49.5821" d="M5463.014,3381.032
			c-2.551-18.925-19.362-108.365,8.041-113.961c22.996-4.704,35.973,65.351,39.295,83.404c5.033,27.433,2.285,42.424-5.395,67.601
			c-11.875,38.907-13.172,79.779-13.598,121.064c-0.346,33.782,2.508,71.219-10.407,102.18c-8.544-20.359-4.016-51.167-4.852-74.138
			c-0.908-24.775-2.67-49.599-4.06-74.842c-3.064-55.256-6.23-107.138-13.561-160.77"/>
	</g>
</g>
</svg>
