<svg width="9152" height="7536" xmlns="http://www.w3.org/2000/svg">
<g transform="scale(1.0)">
<g id="180640490" order="1" parent_id="" graphic_group_label_id="28" graphic_group_label="Atlas - Adult Mouse" sub_image_id="100960204" transform=" scale(1.0, 1.0)"><path id="180640492" parent_id="180640490" order="0" structure_id="8" d="M6861.775,4238.875
			c27.158-88.214,55.875-189.266,57.482-269.749c3.305-164.979-60.743-300.329-159.482-459.361
			c-29.574-47.627-62.379-94.146-93.602-140.741c-82.343-122.884-184.666-239.811-305.486-326.545
			c-42.162-30.266-83.571-49.065-129.953-16.141c-67.082,47.626-119.391,146.296-156.448,217.313
			c-21.672,41.532-43.229,83.627-63.257,126.449c36.729-82.387,75.695-153.314,113.131-220.176
			c72.295-129.093,61.063-343.357,18.229-482.646c-37.5-121.961-109.516-232.826-167.854-345.509
			c-87.7-169.376-176.874-339.443-312.513-475.358c-136.984-137.25-281.262-271.22-467.135-338.185
			c-48.203-17.362-96.553-28.881-146.602-39.601c-107.434-23.011-236.502-36.367-346.359-28.658
			c-179.731,12.609-358.07,89.309-539.25,46.627l-225.168,5695.169c157.719,79.606,305.28,129.933,486.918,119.987
			c137.199-7.517,265.918-24.976,401.508-49.363c267.701-48.154,512.752-150.872,762.613-259.747
			c217.432-94.748,432.427-209.349,602.285-377.658c100.622-99.717,188.971-210.425,280.854-317.972
			c74.901-87.696,157.336-92.426,247.646-160.01c92.997-69.605,137.638-188.082,134.748-297.695
			c-2.877-109.002-41.062-154.965-115.274-209.393c64.888,35.584,142.92,53.91,228.524,36.623
			c109.12-22.045,257.183-104.554,311.229-208.686C7516.305,4999.617,6702.843,4754.968,6861.775,4238.875z M5855.587,3896.456
			c25.612-84.422,38.397-172.339,61.015-257.824c5.179-19.584,10.541-38.583,16.063-57.052
			c-25.706,102.249-30.781,203.549-35.042,308.273c-3.998,98.5-6.317,194.627,23.41,290.084
			c33.425,107.301,55.597,213.418,72.302,320.49c-25.166-110.774-103.873-205.572-156.303-304.707
			C5785.615,4098.443,5826.325,3992.9,5855.587,3896.456z M6014.482,4657.492c7.646,65.037,14.336,130.789,21.313,197.721
			C6027.412,4774.814,6020.338,4709.279,6014.482,4657.492z" style="stroke:black;fill:#bfdae3"/><path id="180640493" parent_id="180640490" order="1" structure_id="8" d="M8100.896,5322.762
			c135.113,24.955,304.92,80.905,372.479,200.92c72.887,129.5,19.819,282.762-36.486,407.239
			c-79.305,175.3-171.511,346.763-302.775,489.118c-147.849,160.328-381.016,458.85-631.963,356.006
			c-212.463-87.089-383.864-417.07-332.248-641.436c45.228-196.574,189.408-345.441,328.506-481.748
			c150.951-147.934,323.821-372.899,564.14-336.535C8074.915,5318.195,8087.743,5320.328,8100.896,5322.762z" style="stroke:black;fill:#bfdae3"/><path id="180640500" parent_id="180640490" order="2" structure_id="313" d="M6142.391,2667.275
			c-37.5-121.961-109.517-232.826-167.855-345.509c-87.7-169.376-176.874-339.443-312.514-475.358
			c-136.983-137.25-281.261-271.22-467.133-338.185c-48.205-17.362-96.554-28.881-146.603-39.601
			c-107.433-23.011-236.502-36.367-346.358-28.658c-179.732,12.609-358.071,89.309-539.252,46.627l-43.891,1085.831
			c4.448,25.346,47.949,53.539,63.316,67.174c26.265,23.306,54.291,44.466,81.34,66.809c38.178,31.538,75.24,65.704,102.504,107.415
			c26.771,40.963,44.869,87.004,72.381,127.447c34.867,51.241,68.146,103.66,97.002,158.56
			c35.332,67.211,65.033,138.095,82.398,212.188c13.667,58.291,37.688,160.521,13.637,217.811
			c-14.596,34.768-51.002,53.785-81.777,71.98c-98.829,58.422-203.049,105.969-304.855,157.993
			c-62.451,31.923-106.299,77.211-177.515,88.384l-50.439,1247.857c55.278-6.215,196.3-12.967,338.233-46
			c184.414-42.917,226.691-56.891,396.144-128.697c95.856-40.621,204.423-129.139,228.937-199.723
			c38.516-110.898-63.801-201.051-41.336-351.844c13.155-88.291,33.885-145.404,53.252-232.297
			c22.192-99.571,22.998-263.051,106.912-334.982c173.365-148.618,387.459,34.524,450.625-29.182
			c84.59-85.307-60.908-250.056,61.238-295.41c100.744-37.405,168.607-9.923,292.236-68.494
			c113.781-53.909,170.469-168.981,221.136-259.48C6206.501,3002.869,6180.859,2792.375,6142.391,2667.275z M4332.454,4509.854
			c-32.237,49.088-72.958,54.283-101.437,49.989c-53.885-8.119-103.482-55.128-120.629-114.308
			c-10.017-34.595-14.144-71.635-12.688-108.727c2.311-58.843,18.675-117.824,47.884-167.418
			c15.788-26.801,40.071-58.816,66.104-59.117c23.986-0.277,52.648,25.316,82.889,74.009
			C4353.707,4279.516,4394.708,4415.044,4332.454,4509.854z M4574.184,4424.422c-49.709-6.156-85.164-31.146-111.836-73.604
			c-48.983-77.938-36.455-164.449,3.873-238.896c80.562-148.668,272.059-249.199,306.226-137.146
			c5.903,19.373-3.987,37.748-20.998,65.695c0,0-12.257,20.945-12.257,20.953c-11.701,21.741-22.869,47.307-16.857,72.314
			c6.412,26.66,27.744,39.104,54.739,54.854l5.378,3.152c11.791,6.912,18.123,38.828,13.535,55.24
			c-15.854,56.576-101.841,130.758-157.854,165.379C4620.281,4423.396,4598.754,4427.46,4574.184,4424.422z M4919.202,4691.104
			c-65.244,107.957-336.071-5.478-295.397-128.824c24.328-73.76,195.047-111.267,245.886-58.432
			C4908.088,4543.749,4951.057,4638.398,4919.202,4691.104z" style="stroke:black;fill:#ff64ff"/><path id="180640504" parent_id="180640490" order="3" structure_id="811" d="M5671.73,2178.3
			c126.648,151.061,273.959,344.47,269.299,551.681c-2.379,105.35-47.109,252.319-113.359,335.869
			c-62.561,78.891-137.55,146.82-215.09,210.65c-71.62,58.97-145,128.88-234.05,159.83c-104.74-37.28-192.851-113.2-269.979-196.83
			c-52.53-56.97-67.97-46.105-109.168-112.367c-2.695-4.335-19.623-31.031-26.582-59.406l2.879-20.427
			c-6.75-50.239-8.358-101.39-21.148-147.479c-16.102-57.971-70.221-97.12-107.012-141.62
			c-64.049-77.479-112.988-173.67-109.789-276.06c1.869-59.881-4.511-80.261-25.801-105.091l-19.729-16.09
			c-45.141-46.83-87.74-98.03-139.061-134.3c45.701-28.63,95.33-50.021,143.17-74.71c48.801-25.181,89-57.82,132.99-90.04
			c52.949-38.78,102.379-75.601,150.08-119.67c25.869-23.91,42.789-55.381,61.42-84.83c24.08-38.04,52.141-68.51,85.22-98.92
			c0.261-0.24,0.521-0.48,0.771-0.71C5323.811,1890.97,5515.62,1992.13,5671.73,2178.3z" style="stroke:black;fill:#ff7aff"/><path id="180640505" parent_id="180640490" order="4" structure_id="820" d="M5126.79,1757.78c-0.25,0.229-0.51,0.47-0.771,0.71
			c-33.08,30.41-61.141,60.88-85.221,98.92c-18.63,29.45-35.55,60.92-61.42,84.83c-47.7,44.069-97.13,80.89-150.08,119.67
			c-43.99,32.22-84.189,64.859-132.99,90.04c-47.84,24.689-97.471,46.08-143.169,74.71c-11.86-8.391-24.19-15.98-37.13-22.54
			c-123.55-62.591-242.859-100.49-381.27-111.511l27.939-606.02c181.18,42.68,359.51-34.02,539.25-46.63
			c109.852-7.7,238.92,5.649,346.359,28.66c50.041,10.72,98.391,22.239,146.601,39.6c42.062,15.15,81.99,33.74,120.19,55.01
			l-5.812,7.69c-25.329,28.29-56.369,50.41-82.789,77.6C5191.9,1684.08,5163.33,1724,5126.79,1757.78z" style="stroke:black;fill:#ff7aff"/><path id="180640506" parent_id="180640490" order="5" structure_id="828" d="M6142.391,2667.28
			c38.471,125.09,64.109,335.59-18.229,482.64c0,0-81.36,140.88-81.36,140.89c-103.67,179.521-368.199,176.79-542.75,169.4
			c-42.898-1.82-83.31-10.28-121.52-23.88c89.05-30.95,162.43-100.86,234.05-159.83c77.54-63.83,152.53-131.76,215.09-210.65
			c66.25-83.55,110.979-230.52,113.36-335.869c4.66-207.211-142.65-400.621-269.301-551.681
			c-156.109-186.17-347.92-287.33-544.939-420.52c36.54-33.78,65.109-73.7,99.689-109.261c26.42-27.189,57.461-49.31,82.789-77.6
			l5.812-7.689c130.601,72.76,240.96,176.989,346.938,283.18c135.642,135.91,224.812,305.98,312.512,475.359
			C6032.87,2434.45,6104.891,2545.311,6142.391,2667.28z" style="stroke:black;fill:#ff7aff"/><path id="180640508" parent_id="180640490" order="6" structure_id="460" d="M4947.134,4156.4
			c-13.69-0.539-25.144,8.269-25.591,19.674c-0.448,11.408,10.282,21.086,23.968,21.625c13.688,0.537,25.144-8.273,25.595-19.68
			C4971.553,4166.616,4960.822,4156.936,4947.134,4156.4z" style="stroke:black;fill:#ff7aff"/><path id="180640509" parent_id="180640490" order="7" structure_id="460" d="M4948.844,4007.557
			c-13.688-0.538-25.287,11.963-25.914,27.938c-0.629,15.971,9.955,29.347,23.645,29.881c13.689,0.538,25.289-11.964,25.915-27.933
			C4973.113,4021.468,4962.534,4008.096,4948.844,4007.557z" style="stroke:black;fill:#ff7aff"/><path id="180640510" parent_id="180640490" order="8" structure_id="460" d="M4955.657,3834.1
			c-11.405-0.447-21.015,8.434-21.461,19.838c-0.448,11.403,8.433,21.013,19.837,21.461c11.409,0.446,21.014-8.435,21.461-19.838
			C4975.941,3844.15,4967.063,3834.546,4955.657,3834.1z" style="stroke:black;fill:#ff7aff"/><path id="180640511" parent_id="180640490" order="9" structure_id="460" d="M4969.182,3805.673
			c0.539-13.682-11.971-25.289-27.938-25.914c-15.963-0.626-29.346,9.962-29.88,23.645c-0.539,13.682,11.972,25.288,27.935,25.914
			C4955.264,3829.946,4968.643,3819.354,4969.182,3805.673z" style="stroke:black;fill:#ff7aff"/><path id="180640512" parent_id="180640490" order="10" structure_id="460" d="M4964.68,3288.453
			c18.242,0.716,33.764-17.19,34.662-40.004c0.896-22.81-13.172-41.881-31.42-42.594c-18.248-0.718-33.767,17.189-34.662,40
			C4932.363,3268.667,4946.434,3287.735,4964.68,3288.453z" style="stroke:black;fill:#ff7aff"/><path id="180640513" parent_id="180640490" order="11" structure_id="460" d="M4899.744,3045.994
			c13.689,0.539,25.145-8.271,25.592-19.678c0.447-11.404-10.279-21.082-23.968-21.621c-13.69-0.539-25.144,8.27-25.591,19.674
			C4875.329,3035.777,4886.059,3045.455,4899.744,3045.994z" style="stroke:black;fill:#ff7aff"/><path id="180640514" parent_id="180640490" order="12" structure_id="460" d="M4899.673,2942.583
			c6.838,0.271,12.606-5.063,12.873-11.906c0.271-6.839-5.063-12.607-11.901-12.874c-6.838-0.269-12.607,5.063-12.877,11.902
			C4887.497,2936.544,4892.83,2942.313,4899.673,2942.583z" style="stroke:black;fill:#ff7aff"/><path id="180640515" parent_id="180640490" order="13" structure_id="460" d="M4990.83,3359.799
			c-25.982-0.455-33.751,37.411-33.751,37.411s-8.364,53.317,29.856,61.706c27.01,0.028,30.649-32.396,34.44-41.786
			c3.791-9.389-4.08-34.571-4.08-34.571S5004.889,3360.254,4990.83,3359.799z" style="stroke:black;fill:#ff7aff"/><path id="180640501" parent_id="180640490" order="14" structure_id="128" d="M4909.167,4811.834
			c18.293-30.268-129.976-76.275-183.333-95.333c-28-10-84-57.36-98-80.202c-17.908-29.217-2.885-94.395-51.834-85.141
			c-35.438,6.699-131.766,67.887-157.5,85.141c-44.02,29.512-75.273,52.54-80,66.868c-5.988,18.159,37.616,72.423,65.333,91.334
			c30,20.47,49.642,27.175,72,92.574c6.142,17.961,25.187,98.239,48.429,107.651c30.398,12.31,180.903-55.688,208.237-67.021
			c19.901-8.252,47.995-19.918,93.403-46.042C4838.624,4874.348,4901.307,4824.841,4909.167,4811.834z" style="stroke:black;fill:#ff90ff"/><path id="180640502" parent_id="180640490" order="15" structure_id="795" d="M5050.332,3520.259
			c-1.881-84.594-1.072-188.706-32.453-268.435c-19.902-50.551-43.809-100.087-57.238-153.083
			c-16.738-66.056-13.599-137.593-30.896-199.888c-16.097-57.979-70.213-97.133-107.001-141.625
			c-64.059-77.478-112.995-173.67-109.798-276.063c2.922-93.32-14.209-90.716-76.614-158.489
			c-36.006-39.091-72.615-77.538-120.979-102.041c-123.55-62.59-242.854-100.489-381.266-111.504l-15.422,455.854
			c-4.353,27.05,46.545,59.624,63.437,74.61c26.265,23.306,54.29,44.466,81.34,66.808c38.177,31.538,75.24,65.704,102.503,107.415
			c26.771,40.963,44.87,87.004,72.381,127.448c34.867,51.241,68.146,103.659,97.003,158.559
			c35.332,67.211,65.032,138.095,82.397,212.188c13.668,58.291,37.688,160.521,13.638,217.811
			c-14.597,34.768-51.002,53.785-81.778,71.98c-98.828,58.422-203.049,105.969-304.855,157.994
			c-63.3,32.355-112.398,79.189-180.316,88.243l-1.666,41.267c154.568,57.168,60.688,233.507,33.539,344.076
			c-15.586,63.494-31.129,143.035-10.821,206.92c23.948,75.385,20.942,147.201,25.854,226.565
			c6.188,99.8-5.32,198.247-58.211,284.407c-7.789,12.677-28.743,32.389-34.705,35.518l24.603-608.896l-27.843,689.123
			c116.57-1.627,148.564-184.438,239.435-286.349c221.978-248.955,375.149-218.153,566.922-374.822
			c55.556-45.389,110.728-85.141,117.565-126.309c2.569-15.508-9.502-37.877,0.92-53.914c3.545-5.453,39.262-26.242,37.424-18.816
			c30.766-124.395,35.406-247.59,48.018-374.441C5035.943,3726.688,5052.706,3626.833,5050.332,3520.259z M4332.454,4509.854
			c-32.237,49.088-72.958,54.283-101.437,49.989c-53.885-8.119-103.482-55.128-120.629-114.308
			c-10.017-34.595-14.144-71.635-12.688-108.727c2.311-58.843,18.675-117.824,47.884-167.418
			c15.788-26.801,40.071-58.816,66.104-59.117c23.986-0.277,52.648,25.316,82.889,74.009
			C4353.707,4279.516,4394.708,4415.044,4332.454,4509.854z M4795.984,4246.986c-15.854,56.576-101.84,130.758-157.854,165.379
			c-17.852,11.03-39.378,15.095-63.948,12.057c-49.71-6.156-85.164-31.146-111.836-73.604
			c-48.983-77.938-36.455-164.449,3.872-238.896c80.563-148.668,272.059-249.199,306.227-137.146
			c5.902,19.373-3.987,37.748-20.998,65.695c0,0-12.258,20.945-12.258,20.953c-11.701,21.741-22.869,47.307-16.856,72.314
			c6.411,26.66,27.744,39.104,54.739,54.854l5.377,3.152C4794.241,4198.658,4800.573,4230.574,4795.984,4246.986z M4933.26,3245.854
			c0.896-22.81,16.414-40.716,34.662-40c18.247,0.713,32.314,19.785,31.42,42.595c-0.898,22.813-16.42,40.72-34.662,40.004
			C4946.434,3287.735,4932.363,3268.667,4933.26,3245.854z M4900.645,2917.804c6.838,0.267,12.172,6.035,11.901,12.874
			c-0.267,6.844-6.035,12.176-12.873,11.906c-6.843-0.27-12.176-6.039-11.905-12.877
			C4888.036,2922.867,4893.807,2917.535,4900.645,2917.804z M4899.744,3045.994c-13.686-0.539-24.415-10.217-23.967-21.625
			c0.447-11.404,11.9-20.212,25.591-19.674c13.688,0.539,24.415,10.216,23.968,21.621
			C4924.889,3037.725,4913.434,3046.532,4899.744,3045.994z M4911.363,3803.402c0.535-13.682,13.918-24.271,29.881-23.645
			c15.967,0.625,28.477,12.232,27.938,25.914c-0.539,13.683-13.918,24.273-29.884,23.645
			C4923.335,3828.689,4910.825,3817.084,4911.363,3803.402z M4971.105,4178.021c-0.453,11.404-11.905,20.217-25.596,19.679
			c-13.686-0.539-24.416-10.216-23.968-21.625c0.446-11.405,11.899-20.213,25.591-19.674
			C4960.822,4156.936,4971.553,4166.616,4971.105,4178.021z M4972.488,4037.441c-0.627,15.97-12.226,28.472-25.916,27.934
			c-13.688-0.534-24.272-13.91-23.644-29.881c0.626-15.976,12.226-28.477,25.914-27.938
			C4962.534,4008.096,4973.113,4021.468,4972.488,4037.441z M4954.033,3875.396c-11.404-0.447-20.285-10.057-19.837-21.461
			c0.446-11.403,10.056-20.284,21.461-19.838c11.403,0.447,20.285,10.054,19.837,21.461
			C4975.047,3866.964,4965.441,3875.845,4954.033,3875.396z M5021.922,3410.657c-1.073,27.366-16.738,48.976-34.984,48.259
			c-18.244-0.716-32.166-23.487-31.094-50.857c1.074-27.367,16.738-48.977,34.986-48.26
			C5009.077,3360.516,5022.999,3383.286,5021.922,3410.657z" style="stroke:black;fill:#ff90ff"/><path id="180640503" parent_id="180640490" order="16" structure_id="616" d="M5549.533,3773.327
			c-30.826,31.051-102.326,4.553-137.686-4.145c-58.258-14.333-103.193-31.23-164.364-28.409
			c-65.175,2.996-184.263,73.845-184.813-33.455c-0.313-62.058,2.176-142.808,2.655-208.097
			c0.433-58.483-7.793-117.501-8.12-179.558c-0.119-23.016,4.324-31.651,28.891-33.34c51.149-3.504,138.192,87.613,175.625,111.313
			c48.994,31.011,111.478,45.193,165.006,65.908c44.422,17.187,124.049,5.292,127.291,68.932
			C5558.001,3610.607,5609.523,3712.913,5549.533,3773.327z" style="stroke:black;fill:#ff90ff"/><path id="180640507" parent_id="180640490" order="17" structure_id="872" d="M4053.107,4951.277
			c52.891-86.16,64.398-184.606,58.211-284.406c-4.914-79.365-1.908-151.182-25.854-226.565
			c-20.307-63.885-4.765-143.427,10.821-206.921c27.149-110.568,121.029-286.908-33.539-344.076l-44.343,1097.487
			C4024.364,4983.666,4045.318,4963.955,4053.107,4951.277z" style="stroke:black;fill:#ffa6ff"/><path id="180640516" parent_id="180640490" order="18" structure_id="771" d="M6595.762,6058.715
			c-30.646-32.797-72.664-48.677-104.658-79.438c-28.748-27.635-32.975-76.203-45.541-112.492
			c-41.15-118.767-77.515-239.316-104.463-362.147c-13.403-61.085-24.36-122.771-32.506-184.771
			c-6.75-51.324-5.647-110.422,1.524-161.517c-0.06,0.05-0.138,0.119-0.26,0.237c-43.956,42.818-107.806,43.057-160.396-23.439
			c-58.055-73.414-103.905-186.282-113.668-279.938c-21.068-202.037-33.871-310.321-39.809-342.029
			c-21.762-116.302-104.523-214.543-158.956-317.462c-51.416-97.276-10.706-202.82,18.556-299.265
			c25.612-84.422,38.397-172.34,61.015-257.824c8.931-33.762,33.745-118.204,58.632-185.366
			c23.131-62.428,43.73-100.587,48.859-112.313c-33.266,75.978-186.404,118.135-258.965,131.822
			c-75.85,14.307-181.228-12.47-182.045,78.496c-0.678,75.458,39.83,151.979-8.252,229.04
			c-48.418,77.603-196.103-12.22-260.873-16.297c-35.846-2.256-77.586-1.351-112.305,8.454
			c-59.598,16.837-109.742,47.514-133.574,106.554c-25.363,62.826-31.719,133.3-45.337,199.242
			c-7.842,37.956-15.081,77.7-27.399,114.492c-33.316,99.524-32.34,138.407-44.98,232.633
			c-8.84,65.858,73.564,180.174,55.591,269.676c-16.626,82.8-26.033,101.004-136.547,176.626
			c-110.349,75.509-241.44,118.621-350.875,157.193c-109.135,38.467-195.106,52.998-341.899,69.297
			c-42.244,4.689-117.966,2.959-160.234,7.496l-39.333,1035.1c40.022-4.137,42.057,55.713,49.624,84.648
			c22.574,86.338,110.492,140.004,98.402,236.463c-16.584,132.196-77.871,268.965-124.127,393.162
			c-27.293,73.301-54.216,140.406-57.752,219.414l17.948-515.113l-23.65,622.411c157.718,79.606,305.28,129.933,486.917,119.987
			c137.199-7.517,265.919-24.976,401.509-49.363c267.701-48.154,512.751-150.872,762.612-259.747
			c217.432-94.748,432.443-209.341,602.285-377.658c100.623-99.717,188.972-210.425,280.854-317.972
			c53.766-62.955,110.41-82.689,172.214-114.096C6627.832,6139.809,6629.369,6094.688,6595.762,6058.715z M4687.302,7185.387
			c-56.356-9.916-125.377-47.265-151.841-69.209c-28.619-23.744-85.854-75.645-26.414-101.691
			c13.943-6.109,37.828-2.104,57.471-3.445c0,0-0.238-3.104-0.23-3.104c76.385,7.983,163.432-3.801,184.541,93.078
			C4767.602,7178.008,4740.896,7194.82,4687.302,7185.387z" style="stroke:black;fill:#ff9b88"/><path id="180640517" parent_id="180640490" order="19" structure_id="771" d="M4795.984,4246.986
			c4.588-16.412-1.744-48.328-13.535-55.24l-5.377-3.153c-26.996-15.748-48.328-28.192-54.739-54.854
			c-6.013-25.008,5.155-50.572,16.856-72.313c0-0.008,12.258-20.953,12.258-20.953c17.011-27.946,26.9-46.321,20.998-65.696
			c-34.168-112.052-225.666-11.521-306.227,137.147c-40.327,74.446-52.855,160.958-3.872,238.896
			c26.672,42.457,62.126,67.447,111.836,73.604c24.569,3.038,46.099-1.024,63.948-12.058
			C4694.145,4377.744,4780.132,4303.563,4795.984,4246.986z" style="stroke:black;fill:#ff9b88"/><path id="180640518" parent_id="180640490" order="20" structure_id="771" d="M4211.689,4110.273
			c-26.033,0.301-50.315,32.316-66.104,59.117c-29.208,49.595-45.573,108.576-47.884,167.418
			c-1.456,37.092,2.671,74.133,12.688,108.727c17.146,59.18,66.744,106.188,120.629,114.309
			c28.479,4.293,69.199-0.902,101.437-49.989c62.254-94.81,21.253-230.339-37.876-325.569
			C4264.338,4135.591,4235.676,4109.997,4211.689,4110.273z" style="stroke:black;fill:#ff9b88"/><path id="180640519" parent_id="180640490" order="21" structure_id="771" d="M4623.805,4562.279
			c-40.674,123.348,230.153,236.781,295.397,128.824c31.854-52.705-11.114-147.354-49.513-187.256
			C4818.852,4451.014,4648.133,4488.521,4623.805,4562.279z" style="stroke:black;fill:#ff9b88"/><path id="180640523" parent_id="180640490" order="22" structure_id="82" d="M5968.322,3474.881
			c-19.875,53.717-37.082,108.381-51.723,163.75c-22.616,85.485-35.4,173.402-61.014,257.824
			c-25.641,84.533-60.088,176.048-33.59,262.869c0,0-85.633-104.989-85.371-209.737c0.095-38.015-4.762-254.596-71.924-229.657
			c-25.694,9.539-29.486,38.237-25.488,81.059c0,0-19.387-15.938-19.984-17.99c-10.373-10.247-22.715-17.689-36.338-23.092
			l4.945-5.491c26.514-68.308-5.357-136.146-4.754-203.145c0.816-90.966,106.195-64.189,182.045-78.496
			c72.561-13.688,225.699-55.847,258.964-131.823C6024.092,3340.951,5984.988,3429.816,5968.322,3474.881z" style="stroke:black;fill:#ffae6f"/><path id="180640526" parent_id="180640490" order="23" structure_id="7" d="M5755.657,5265.674
			c0.009-0.023,4.513-6.027,4.513-6.027c-2.371,48.775-6.711,94.922-5.187,127.273c1.64,34.844,5.249,68.479,11.638,102.925
			c12.513,67.54,10.707,146.188,4.631,214.571c-4.184,47.025-19.431,79.604-50.07,107.453l-1.393-1.604
			c-36.496,60.192-49.069,129.62-52.771,199.233c-2.762,51.902-9.182,103.979-10.436,155.885
			c-0.961,39.66,8.953,77.592,12.582,116.879c3,32.431,8.429,62.274,18.078,93.402l-3.92-4.872
			c15.646,23.519,26.508,50.181,45.039,71.796c54.092,63.13,142.52,83.752,217.244,45.333
			c69.27-35.615,120.537-102.842,153.84-171.603c18.023-37.232,27.043-76.148,35.108-116.547
			c10.563-52.93,26.757-114.957,13.827-168.808c-14.061-58.606-73.6-99.927-80.598-159.085
			c-7.689-65.113,39.554-134.188,83.563-177.089c48.874-47.633,80.604-92.544,92.057-164.028
			c16.947-105.748-7.004-208.164-47.875-306.119c-37.811-90.66-123.188-94.084-210.934-85.945
			C5900.604,5146.493,5801.006,5189.527,5755.657,5265.674z" style="stroke:black;fill:#ffae6f"/><path id="180640533" parent_id="180640490" order="24" structure_id="123" d="M6077.802,5009.536
			c-6.998-56.147-35.832-107.517-41.668-162.979c-6.034-57.25-4.821-116.242-15.511-172.857
			c-3.121-16.536-5.39-40.427-10.403-62.626c-10.249-12.007-22.206-21.179-22.206-21.179
			c-42.82-27.877-132.573,53.881-161.421,80.861c-46.104,43.102-104.271,74.494-123.629,146.122l-1.78,8.992
			c48.801,33.515,41.56,111.129,63.61,171.993c16.196,44.697,42.386,82.954,87.165,97.996c31.682,10.637,57.93,12.083,90.516,9.484
			C6031.872,5098.213,6091.193,5116.938,6077.802,5009.536z" style="stroke:black;fill:#ffae6f"/><path id="180640539" parent_id="180640490" order="25" structure_id="860" d="M5100.207,4200.535
			c74.032,0.441,162.016-14.66,223.824,35.117c28.148,22.667,43.635,53.287,57.583,85.113
			c67.28,15.133,172.888,22.111,207.244,85.916c6.179,11.475,10.438,21.486,13.952,30.563c-11.416-35.588-10.9-68.894,2.396-100.769
			l-1.049-5.364c-23.172-85.535-69.74-149.679-136.682-205.981l-9.906-8.865c-136.449-66.137-266.371-224.952-337.807-300.543
			l-3.693-4.778c-1.86,1.467-3.703,2.96-5.516,4.5c-58.527,49.761-73.632,151.241-86.955,240.78
			c-4.391,29.504-8.537,57.364-14.043,81.885l-15.865,63.723C5031.915,4196.209,5078.633,4200.407,5100.207,4200.535z" style="stroke:black;fill:#ffae6f"/><path id="180640535" parent_id="180640490" order="26" structure_id="868" d="M5457.57,4116.266l9.906,8.867
			c66.939,56.303,113.509,120.445,136.682,205.98l1.049,5.363c16.354-39.205,52.025-76.256,108.646-112.736l7.853-6.027
			c-11.9-38.115-22.383-75.953-31.24-114.672l-11.551,9.713C5608.855,4160.896,5532.236,4152.455,5457.57,4116.266z" style="stroke:black;fill:#ffae6f"/><path id="180640534" parent_id="180640490" order="27" structure_id="875" d="M5605.207,4336.479
			c-13.297,31.875-13.813,65.181-2.396,100.769c2.613,6.752,4.814,12.983,7.082,18.915c5.515,12.896,12.51,26.098,20.941,39.643
			c5.555,8.392,11.58,16.91,17.646,26.01c0.039,0.059,0.08,0.117,0.119,0.176c6.215,8.494,12.934,17.117,20.183,25.89
			c20.858,25.233,48.11,57.021,79.833,75.937c7.477,4.391,15.061,8.06,22.672,10.799c9.359,3.315,19.029,5.293,28.971,5.51
			c7.056,0.037,14.049-0.961,20.92-3.179c-6.871,2.217-13.865,3.216-20.92,3.179c6.487,0.143,13.09-0.459,19.795-1.931
			c26.541-5.817,50.36-31.997,70.033-50.039c0.283-0.259,1.054-0.878,1.865-1.526c-9.826,0.41-19.705-2.262-28.58-8.391
			c-9.887-6.828-16.789-17.389-23.285-27.273c-9.963-15.146-18.291-31.664-24.004-48.867c-9.533-28.687-20.326-56.881-28.979-85.869
			c-6.381-21.377-11.456-43.365-19.175-64.311c-17.04-46.298-32.56-90.438-46.224-134.203l-7.853,6.027
			C5657.232,4260.223,5621.563,4297.271,5605.207,4336.479" style="stroke:black;fill:#ffae6f"/><path id="180640538" parent_id="180640490" order="28" structure_id="883" d="M5457.57,4116.266
			c74.666,36.189,151.285,44.633,221.345-3.513l11.55-9.713c-10.837-47.376-19.241-96.077-24.775-148.272
			c-2.662-24.992-21.879-82.228-27.107-137.699l-18.771-13.854c-0.313-1.075-0.611-2.088-1.209-4.14
			c-10.377-10.248-22.721-17.689-36.338-23.093l-0.485-7.97c-2.077,4.097-4.384,8.19-6.946,12.295
			c-23.813,38.168-87.652,27.141-123.77,20.857c-38.557-6.713-75.297-20.564-113.294-29.593
			c-12.813-3.041-26.017-5.289-39.419-6.677c-63.8-6.604-131.906,6.343-182.277,46.049l3.694,4.779
			C5191.199,3891.313,5321.122,4050.13,5457.57,4116.266" style="stroke:black;fill:#ffae6f"/><path id="180640537" parent_id="180640490" order="29" structure_id="891" d="M5826.593,4670.757
			c28.849-26.981,118.601-108.737,161.421-80.86c0,0,11.957,9.17,22.206,21.178c-4.254-18.831-10.481-36.445-20.905-47.311
			c-7.361-7.683-16.939-10.306-27.308-8.97c-8.892,1.164-18.554,4.241-26.372,8.653c-6.491,3.66-10.646,9.865-16.797,14.018
			c-8.318,5.623-17.58,8.773-26.887,9.162c-0.813,0.648-1.584,1.268-1.867,1.525c-19.672,18.043-43.49,44.222-70.033,50.039
			c-6.705,1.472-13.307,2.072-19.793,1.932c-9.6-0.05-19.309-2.032-28.972-5.51c-7.778-2.756-15.345-6.432-22.672-10.8
			c-40.666-23.886-78.162-69.084-100.017-101.824c-6.492-8.872-12.42-17.599-17.766-26.187c-5.912-8.93-11.292-17.713-15.604-26.892
			c-1.946-4.144-3.66-8.365-5.338-12.751c-2.728-6.379-5.082-12.682-7.082-18.915c-3.514-9.077-7.772-19.09-13.951-30.563
			c-34.356-63.805-139.963-70.783-207.244-85.916c11.328,25.854,21.644,52.502,36.9,76.33c5.823,9.088,12.398,17.403,19.475,25.188
			c37.437,41.168,90.42,68.264,124.494,112.161c28.976,37.337,96.916,271.183-13.742,249.052c-1.203-0.24-2.396-0.59-3.584-1.02
			c4.612,6.49,10.484,14.771,16.709,22.35c31.496,0.959,62.826,2.07,93.108,5.343c19.457,2.103,34.452,7.628,46.208,15.702
			l1.779-8.992C5722.322,4745.251,5780.488,4713.857,5826.593,4670.757z" style="stroke:black;fill:#ffae6f"/><path id="180640536" parent_id="180640490" order="30" structure_id="915" d="M5472.67,4676.416
			c-62.336-87.293-146.621-162.334-223.564-236.547c-51.778-49.941-104.947-88.32-173.953-109.902
			c-25.926-8.108-73.305-14.475-105.381-32.478c-4.894,21.692-9.36,44.485-13.155,69.81c-1.556,10.352-2.472,20.405-2.856,30.188
			c-2.205,56.175,13.291,103.423,28.351,149.344c11.5,35.063,22.226,68.26,24.356,103.027c7.771,17.352,21.707,35.799,34.192,52.164
			l3.483,4.559c13.972,18.395,27.852,32.391,42.426,42.811c89.773,64.168,219.015,22.111,321,42.725
			c49.205,9.947,101.982,11.119,154.299,12.712c-6.225-7.577-12.097-15.858-16.709-22.351
			C5514.486,4771.389,5489.116,4699.452,5472.67,4676.416z" style="stroke:black;fill:#ffae6f"/><path id="180640532" parent_id="180640490" order="31" structure_id="122" d="M5617.203,6649.366
			c-28.27,75.929-90.051,62.013-154.459,67.683c-58.8,5.181-105.833,65.838-157.012,90.069
			c-91.588,43.362-155.313-86.394-143.314-163.204l3.061-10.7c-60.692,44.332-121.935,86.235-190.506,119.065l2.402,4.312
			c56.234,114.851,72.712,204.601-54.424,268.938c-49.898,25.25-121.708,37.672-176.713,20.778
			c12.25,32.653,13.857,69.179,19.484,103.203c4.252,25.664,6.127,42.31,33.949,50.623c31.078,9.283,80.854,1.381,112.207-3.735
			c117.115-19.112,231.707-60.604,338.85-111.065c78.359-36.905,157.372-72.506,226.104-126.165
			c67.592-52.759,121.811-123.068,141.48-207.393c7.918-33.933,7.42-70.359,0.919-106.561L5617.203,6649.366z" style="stroke:black;fill:#ffae6f"/><path id="180640531" parent_id="180640490" order="32" structure_id="105" d="M4922.951,7025.529
			c127.137-64.338,110.658-154.088,54.424-268.938l-2.402-4.312c-15.113,7.235-30.582,14.035-46.48,20.318
			c-58.605,23.137-128.355,51.8-189.281,60.139c-60.202,8.242-112.229,35.258-77.154,98.396
			c19.248,34.63,53.36,58.803,73.527,92.759c4.275,7.199,7.762,14.701,10.654,22.416
			C4801.243,7063.201,4873.052,7050.779,4922.951,7025.529z" style="stroke:black;fill:#ffae6f"/><path id="180640530" parent_id="180640490" order="33" structure_id="114" d="M5305.732,6807.118
			c51.179-24.231,98.211-84.89,157.012-90.069c64.408-5.67,126.189,8.246,154.459-67.683l2.027-4.149
			c-11.338-63.143-40.957-125.592-76.151-172.9c-11.586-15.596-29.326-20.361-47.858-22.441c-17.213-1.929-34.307,0.525-50.99,4.855
			c-73.541,19.088-123.045,64.313-182.504,107.527c-32.588,23.683-64.344,47.652-96.248,70.957l-3.061,10.699
			C5150.42,6720.725,5214.146,6850.48,5305.732,6807.118z" style="stroke:black;fill:#ffae6f"/><path id="180640521" parent_id="180640490" order="34" structure_id="880" d="M4211.689,4110.273
			c-26.033,0.301-50.315,32.316-66.104,59.117c-29.208,49.595-45.573,108.576-47.884,167.418
			c-1.456,37.092,2.671,74.133,12.688,108.727c17.146,59.18,66.744,106.188,120.629,114.309
			c28.479,4.293,69.199-0.902,101.437-49.989c62.254-94.81,21.253-230.339-37.876-325.569
			C4264.338,4135.591,4235.676,4109.997,4211.689,4110.273z" style="stroke:black;fill:#ffba86"/><path id="180640527" parent_id="180640490" order="35" structure_id="1093" d="M4706.421,4958.744
			c60.663-3.505,80.026,40.506,127.155,68.783c25.487,15.292,43.938,28.419,63.397,37.771l-0.004,0.002
			c23.045,13.398,51.205,21.819,81.812,23.022c30.315,1.188,58.795-4.868,82.681-16.207l0.248-0.123
			c64.287-4.851,116.717,6.849,106.351,122.026c-1.48,16.465,0.164,30.832,4.268,43.367h-0.012
			c0.752,47.516,10.973,96.533,24.877,140.986c32.557,104.115,80.678,208.707,105.182,313.857
			c20.43,87.72-11.053,181.412,90.063,230.58c17.496,8.504,34.219,15.226,50.19,20.299l-0.001,0.006
			c21.949,18.931,53.164,32.467,103.415,59.36c106.494,56.997,73.497,181.491,40.498,278.985
			c-32.999,97.495-235.487,193.49-358.481,289.485c-233.987,181.49-395.979,229.489-491.976,251.987
			c-95.996,22.5-151.583,67.566-373.583,101.566c-75.654,11.587-101.159-10.947-143.313-43.297
			c-70.814-54.348-75.33-181.521-79.238-266.467c-6.257-136-18.785-322.65-37.07-372.27
			c-17.123-46.463-51.762-106.986-59.762-272.986c-7.677-159.305,82.867-285.805,113.514-393.534l0.006,0.004
			c32.319-50.92,47.938-114.229,71.317-169.662c11.962-28.362,31.021-105.801,29.378-160.532l-0.007-0.003
			c23.524-86.94,46.796-115.698,129.174-147.253c84.871-32.51,121.422-56.915,166.67-81.775v0.002
			c49.002-17.193,101.226-35.771,153.252-57.979V4958.744z" style="stroke:black;fill:#ffba86"/><path id="180640525" parent_id="180640490" order="36" structure_id="534" d="M5180.744,4932.895
			c-1.229,15.443-0.176,29.688,3.732,39.567c25.791,65.169,95.221,26.74,149.199,17.737c40.875-6.824,85.688,8.608,126.242,12.713
			c53.684,5.431,108.84,1.658,163.039,3.496c30.959,1.045,59.502,7.345,80.912-18.16c22.645-26.976,21.086-78.125,6.629-107.666
			c-37.572-76.774-120.615-61.537-208.875-62.65c-84.59-1.07-221.346-28.738-290.037,32.92
			C5195.031,4865.704,5183.227,4901.73,5180.744,4932.895z" style="stroke:black;fill:#ffba86"/><path id="180640522" parent_id="180640490" order="37" structure_id="621" d="M5700.622,5429.482
			c-38.036-156.582-64.155-277.082-196.578-375.674c-68.218-50.795-127.276-57.176-206.196-24.662
			c-149.799,61.703-139.93,223.668-100.653,349.228c32.556,104.115,80.677,208.707,105.181,313.858
			c20.43,87.719-11.053,181.412,90.063,230.58C5715.32,6079.75,5749.588,5631.066,5700.622,5429.482z" style="stroke:black;fill:#ffba86"/><path id="180640520" parent_id="180640490" order="38" structure_id="162" d="M4782.45,4191.746l-5.378-3.152
			c-26.995-15.748-48.328-28.192-54.738-54.854c-6.013-25.008,5.155-50.573,16.856-72.313c0-0.009,12.257-20.953,12.257-20.953
			c17.012-27.947,26.9-46.322,20.998-65.696c-34.167-112.052-225.665-11.521-306.227,137.147
			c-40.326,74.445-52.854,160.957-3.871,238.896c26.672,42.457,62.125,67.446,111.836,73.604
			c24.569,3.037,46.098-1.025,63.947-12.058c56.014-34.621,142-108.804,157.854-165.379
			C4800.573,4230.574,4794.241,4198.658,4782.45,4191.746z" style="stroke:black;fill:#ffc395"/><path id="180640528" parent_id="180640490" order="39" structure_id="238" d="M4045.064,5376.355
			c-7.205,52.744-71.604,346.256,56.021,258.653c75.455-51.795,93.038-148.504,126.87-228.722
			c15.814-37.498,44.033-160.771,20.421-203.951c-23.481-42.922-85.589-63.75-126.735-38.068
			C4071.52,5195.563,4053.771,5312.58,4045.064,5376.355z" style="stroke:black;fill:#ffc395"/><path id="180640524" parent_id="180640490" order="40" structure_id="350" d="M4836.628,4968.988
			c-2.46,62.625,61.313,116.156,142.153,119.334c80.842,3.174,148.619-45.189,151.074-107.816
			c2.461-62.639-61.31-116.156-142.149-119.334C4906.863,4857.999,4839.088,4906.354,4836.628,4968.988z" style="stroke:black;fill:#ffc395"/><path id="180640529" parent_id="180640490" order="41" structure_id="358" d="M4919.202,4691.104
			c31.854-52.705-11.114-147.354-49.513-187.256c-50.84-52.834-221.558-15.328-245.887,58.433
			C4583.13,4685.627,4853.958,4799.063,4919.202,4691.104z" style="stroke:black;fill:#ffc395"/><path id="180640494" parent_id="180640490" order="42" structure_id="354" d="M6310.121,5158.328
			c-7.176,51.1-8.277,110.207-1.527,161.54c8.146,62,19.103,123.685,32.506,184.771c26.949,122.83,63.313,243.381,104.463,362.147
			c12.566,36.289,16.793,84.856,45.541,112.491c31.994,30.762,74.013,46.641,104.658,79.438
			c33.607,35.975,32.07,81.095,48.139,124.198c24.504-12.44,49.646-26.619,75.432-45.914
			c92.998-69.606,137.638-188.082,134.748-297.696c-2.877-109.002-41.061-154.965-115.274-209.392
			c-148.763-83.334-234.294-272.353-281.776-370.815c-21.295-44.181-99.178-178.082-95.564-226.082
			C6357.357,5087.57,6337.67,5131.336,6310.121,5158.328z" style="stroke:black;fill:#ff9bcd"/><path id="180640495" parent_id="180640490" order="43" structure_id="354" d="M4000.964,6855.05
			c46.257-124.198,107.544-260.966,124.126-393.163c12.092-96.459-75.828-150.124-98.401-236.462
			c-7.566-28.937-9.602-88.785-49.624-84.649l-15.905,418.574l-17.948,515.113C3946.748,6995.456,3973.669,6928.35,4000.964,6855.05
			z" style="stroke:black;fill:#ff9bcd"/><path id="180640496" parent_id="180640490" order="44" structure_id="354" d="M4566.287,7007.936
			c-0.008,0,0.23,3.104,0.23,3.104c-19.643,1.343-43.526-2.663-57.471,3.446c-59.439,26.047-2.205,77.947,26.414,101.69
			c26.463,21.944,95.482,59.293,151.841,69.21c53.595,9.434,80.3-7.379,63.524-84.373
			C4729.718,7004.135,4642.672,7015.92,4566.287,7007.936z" style="stroke:black;fill:#ff9bcd"/><path id="180640499" parent_id="180640490" order="45" structure_id="101" d="M6310.121,5158.328
			c-7.176,51.1-8.277,110.207-1.527,161.54c8.146,62,19.103,123.685,32.506,184.771c26.949,122.83,63.313,243.381,104.463,362.147
			c12.566,36.289,16.793,84.856,45.541,112.491c31.994,30.762,74.013,46.641,104.658,79.438
			c33.607,35.975,32.07,81.095,48.139,124.198c24.504-12.44,49.646-26.619,75.432-45.914
			c92.998-69.606,137.638-188.082,134.748-297.696c-2.877-109.002-41.061-154.965-115.274-209.392
			c-148.763-83.334-234.294-272.353-281.776-370.815c-21.295-44.181-108.57-195.705-110.691-255.779
			c-11.309,28.271-13.428,40.992-16.255,53.007C6324.934,5078.198,6313.117,5146.788,6310.121,5158.328z" style="stroke:black;fill:#ffa5d2"/><path id="180640498" parent_id="180640490" order="46" structure_id="642" d="M4687.302,7185.387
			c-56.356-9.916-125.377-47.265-151.841-69.209c-28.619-23.744-85.854-75.645-26.414-101.691
			c13.943-6.109,37.828-2.104,57.471-3.445c0,0,7.242-0.795,7.25-0.795c76.385,7.983,155.951-6.109,177.061,90.77
			C4767.602,7178.008,4740.896,7194.82,4687.302,7185.387z" style="stroke:black;fill:#ffa5d2"/><path id="180640497" parent_id="180640490" order="47" structure_id="206" d="M3975.738,6140.925
			c41.312-5.614,43.3,55.245,50.949,84.5c22.574,86.338,110.494,140.003,98.402,236.462
			c-16.583,132.197-77.87,268.965-124.126,393.163c-27.294,73.3-54.216,140.406-57.752,219.413L3975.738,6140.925z" style="stroke:black;fill:#ffc6e2"/><path id="180640540" parent_id="180640490" order="48" structure_id="512" d="M8100.896,5322.762
			c135.113,24.955,304.92,80.905,372.479,200.92c72.887,129.5,19.819,282.762-36.486,407.239
			c-79.305,175.3-171.511,346.763-302.775,489.118c-147.849,160.328-381.016,458.85-631.963,356.006
			c-212.463-87.089-383.864-417.07-332.248-641.436c45.228-196.574,189.408-345.441,328.506-481.748
			c150.951-147.934,323.821-372.899,564.14-336.535C8074.915,5318.195,8087.743,5320.328,8100.896,5322.762z" style="stroke:black;fill:#f0f080"/><path id="180640541" parent_id="180640490" order="49" structure_id="512" d="M6457.027,5259.096
			c-15.211-31.543-59.258-108.823-81.896-167.92c-9.068-23.676-29.564-73.39-28.531-87.119
			c-10.265,18.951-12.498,46.16-18.16,71.063c-8.636,37.981-14.893,77.226-33.162,96.328
			c-39.041,40.823-99.486,9.476-145.813-36.298c-59.528-72.223-103.905-186.282-113.668-279.938
			c-25.754-246.979-48.53-462.658-114.765-675.274c-29.729-95.457-27.408-191.584-23.41-290.084
			c4.262-104.729,9.336-206.034,35.045-308.288c29.766-118.393,85.33-230.046,141.619-337.916
			c37.06-71.018,89.367-169.688,156.448-217.313c46.382-32.926,87.791-14.125,129.954,16.141
			c120.82,86.735,223.145,203.661,305.486,326.545c31.223,46.595,64.026,93.114,93.601,140.741
			c98.74,159.032,162.788,294.382,159.483,459.36c-1.608,80.483-30.326,181.535-57.483,269.75
			c-158.933,516.093,654.528,760.742,416.784,1218.974c-54.048,104.132-202.109,186.64-311.23,208.687
			c-85.604,17.287-163.638-1.039-228.524-36.623C6590.042,5546.577,6504.51,5357.559,6457.027,5259.096z" style="stroke:black;fill:#f0f080"/><path id="180640542" parent_id="180640490" order="50" structure_id="512" d="M4067.407,3762.299
			c0.25-0.005,0.5-0.002,0.755-0.012c90.285-1.041,188.34-63.02,269.225-98.721c67.034-29.587,138.348-58.026,190.584-111.873
			c45.137-46.531,49.035-111.783,47.188-173.361c-3.127-104.523-33.393-205.432-89.293-294.068
			c-46.32-73.455-105.627-144.02-190.164-172.617c-12.135-4.105-195.711-40.853-191.562-22.73L4067.407,3762.299z" style="stroke:black;fill:#f0f080"/><path id="180640544" parent_id="180640490" order="51" structure_id="10710" d="M4575.159,3378.333
			c-3.128-104.524-33.394-205.433-89.293-294.067c-46.321-73.457-105.627-144.021-190.165-172.618
			c-12.135-4.105-195.711-40.853-191.561-22.73l-36.732,873.382c0.25-0.004,0.5-0.002,0.755-0.012
			c90.285-1.041,188.34-63.02,269.226-98.721c67.033-29.587,138.347-58.025,190.584-111.873
			C4573.107,3505.163,4577.006,3439.911,4575.159,3378.333z M4163.993,3181.541c-11.31,53.618-24.351,84.092-74.897,108.374
			l9.297-236.787c13.723,10.088,38.355,3.238,54.943,14.207c20.021,13.226,5.948,29.67,6.33,48.248
			C4160.135,3138.268,4168.926,3158.169,4163.993,3181.541z" style="stroke:black;fill:#fffc91"/><path id="180640543" parent_id="180640490" order="52" structure_id="10708" d="M4153.336,3067.333
			c-16.587-10.968-41.221-4.118-54.943-14.207l-9.297,236.787c50.547-24.281,63.588-54.755,74.897-108.374
			c4.933-23.372-3.858-43.273-4.327-65.959C4159.284,3097.003,4173.355,3080.561,4153.336,3067.333z" style="stroke:black;fill:#ece754"/><path id="180640546" parent_id="180640490" order="53" structure_id="10722" d="M6078.605,4538.169
			c20.867-4.328,41.138-13.944,57.936-27.028c16.966-13.217,39.005-19.162,54.691-34.125c5.666-5.402,10.254-10.435,13.569-17.172
			c0.315-0.643,0.64-1.262,0.961-1.891c4.224-12.807,17.253-26.133,20.19-42.387c3.096-17.127-0.318-36.916-5.721-55.732
			c-3.766-13.091-8.488-25.721-12.648-36.645c-15.726-41.301-47.404-74.756-63.203-116.188
			c-24.596-64.493-30.996-136.805-55.926-199.83c-18.826-47.613-38.728-75.151-40.666-127.604
			c-2.084-56.41-2.074-112.387,4.754-168.545c5.287-43.486,20.869-295.408,127.03-215.58
			c54.461,40.948,75.03,143.969,97.204,204.342c18.092,49.271,38.682,100.314,50.764,151.443
			c4.625,19.598-0.519,41.996,7.022,59.019c6.351,14.321,25.819,19.53,32.624,34.483c13.007,28.577,0.33,65.597,3.302,95.904
			c3,30.606,8.612,61.957,14.127,92.227c11.288,61.904,27.328,126.802,71.741,173.957c33.963,36.021,84.65,39.387,129.039,23.447
			c-28.648-122.32-75.434-343.348-100.881-413.737c-24.471-67.688-54.105-133.366-86.018-197.842
			c-29.761-60.131-58.705-120.741-88.78-180.699c-27.46-54.745-62.405-104.965-85.298-162.235
			c-36.85-92.185-74.99-210.143-38.857-308.025c-45.832,51.43-82.996,121.729-111.277,175.924
			c-56.289,107.87-111.854,219.523-141.619,337.916c-25.709,102.253-30.784,203.559-35.045,308.288
			c-3.998,98.5-6.318,194.627,23.41,290.085c36.04,115.692,59.211,232.295,76.998,354.353l0.594-0.17
			C6019.13,4524.959,6052.844,4543.507,6078.605,4538.169z" style="stroke:black;fill:#fffc91"/><path id="180640545" parent_id="180640490" order="54" structure_id="10720" d="M6362.794,4396.775
			c-10.368-11.556-13.575-27.289-20.671-40.736c-10.413-19.732-18.604-36.9-26.122-57.909
			c-7.674-21.438-11.241-44.026-19.673-65.205c-17.971-45.138-40.512-84.224-50.797-132.526
			c-5.079-23.873-7.878-48.688-14.42-72.195c-2.131-7.652-6.587-13.958-8.831-21.352c-0.765-2.535-0.135-27.051,2.571-24.79
			c6.393,5.336,7.608,22.589,9.588,30.316c3.842,15.005,5.601,30.772,11.93,45.042c5.529,12.464,17.32,22.133,21.171,35.146
			c7.999,27.036,0.913,55.884,11.575,82.36c8.109,20.159,17.635,40.547,26.314,60.816c7.58,17.703,10.565,36.541,21.998,52.109
			c18.717,25.49,35.832,57.064,60.137,77.768c25.889,22.051,59.661,20.51,91.738,31.617c24.236,8.394,45.979,15.03,71.185,17.498
			c16.28-8.652,31.56-19.041,48.194-30.199c-3.715-14.082-8.215-32.629-13.283-54.271c-44.39,15.938-95.076,12.574-129.039-23.447
			c-44.414-47.155-60.453-112.053-71.742-173.957c-5.515-30.27-11.127-61.619-14.127-92.227
			c-2.972-30.309,9.705-67.327-3.301-95.905c-6.806-14.952-26.274-20.162-32.625-34.482c-7.541-17.021-2.396-39.421-7.021-59.019
			c-12.082-51.129-32.672-102.173-50.764-151.443c-22.174-60.373-42.744-163.395-97.205-204.343
			c-106.162-79.827-121.744,172.095-127.03,215.58c-6.827,56.159-6.837,112.136-4.754,168.546
			c1.938,52.452,21.84,79.99,40.667,127.604c24.93,63.024,31.33,135.337,55.925,199.829c15.799,41.435,47.479,74.889,63.203,116.188
			c4.16,10.925,8.885,23.554,12.649,36.646c5.4,18.816,8.814,38.605,5.721,55.731c-2.938,16.254-15.969,29.58-20.191,42.388
			c4.42-8.664,9.223-16.123,13.148-24.01c-3.927,7.887-8.729,15.347-13.148,24.01c-3.076,9.326-1.48,18.377,12.086,28.082
			c20.672,14.789,75.613-0.724,98.16-4.617c52.234-9.051,101.996-26.379,152.883-39.989c-23.78-8.675-48.834-13.201-72.211-23.25
			C6384.523,4412.953,6371.723,4406.727,6362.794,4396.775z" style="stroke:black;fill:#ece754"/><path id="180640548" parent_id="180640490" order="55" structure_id="10674" d="M6882.635,4168.523
			c-22.665-11.895-18.563-50.348-22.322-71.287c-1.443-8.047-3.903-15.793-7-23.338c3.097,7.545,5.557,15.291,7,23.338
			C6864.07,4118.177,6859.971,4156.63,6882.635,4168.523c19.322-68.695,35.432-139.702,36.624-199.397
			c3.306-164.979-60.743-300.329-159.483-459.361c-29.572-47.627-62.377-94.146-93.601-140.741
			c-82.343-122.884-184.666-239.811-305.485-326.545c-42.164-30.266-83.572-49.065-129.955-16.141
			c-15.889,11.28-30.945,25.427-45.17,41.389c-36.133,97.883,2.008,215.842,38.857,308.026
			c22.893,57.271,57.838,107.49,85.298,162.235c30.075,59.958,59.021,120.568,88.78,180.699
			c31.912,64.475,61.547,130.152,86.018,197.842c25.448,70.39,72.232,291.417,100.881,413.736
			c22.532-8.09,43.443-21.148,59.716-37.446c106.324-106.499-15.812-294.053-73.47-392.473
			c-61.576-105.125-94.533-220.649-147.539-327.696c-45.772-92.4-87.44-210.035-81.877-314.386c19.795-56.25,42.195-29.868,60-7.046
			c26.041,71.97,83.763,138.24,110.981,168.064c71.81,78.676,117.683,170.737,164.135,266.457
			c39.961,82.364,76.435,166.346,111.826,250.751c9.129,21.765,16.435,44.209,26.306,65.688
			c11.517,25.063,29.119,46.58,38.473,72.757" style="stroke:black;fill:#fffc91"/><path id="180640547" parent_id="180640490" order="56" structure_id="10672" d="M6618.368,4371.535
			c22.853-14.709,39.288-34.354,61.345-50.016c23.701-16.84,49.938-24.311,73.766-32.644c11.249-3.927,21.518,15.755,28.741-4.91
			c5.451-15.583-12.125-24.666-24.78-25.187c11.418-28.461,47.164-59.192,69.123-80.441c11.826-11.453,25.959-12.982,31.592-30.662
			c7.633-23.955,1.617-52.479-5.631-75.564c-7.679-24.461-26.314-46.58-37.045-69.934c-9.871-21.479-17.176-43.925-26.306-65.688
			c-35.392-84.406-71.865-168.389-111.826-250.752c-46.453-95.72-92.326-187.781-164.135-266.457
			c-27.22-29.824-84.94-96.096-110.981-168.064c-17.805-22.822-40.205-49.204-60,7.046
			c-5.563,104.351,36.104,221.985,81.877,314.386c53.006,107.046,85.963,222.571,147.539,327.696
			c57.658,98.42,179.793,285.974,73.47,392.474c-16.272,16.297-37.185,29.355-59.716,37.446
			c5.068,21.644,9.568,40.188,13.283,54.271C6605.006,4380.294,6611.521,4375.943,6618.368,4371.535z" style="stroke:black;fill:#ece754"/><path id="180640551" parent_id="180640490" order="57" structure_id="10689" d="M8473.375,5523.682
			c-67.559-120.015-237.364-175.965-372.479-200.92c-13.153-2.434-25.981-4.564-38.351-6.435
			c-240.317-36.365-413.188,188.603-564.14,336.535c-139.098,136.306-283.278,285.174-328.506,481.748
			c-51.617,224.362,119.785,554.347,332.248,641.435c250.947,102.845,484.114-195.678,631.963-356.006
			c131.266-142.354,223.472-313.817,302.775-489.117C8493.194,5806.441,8546.262,5653.182,8473.375,5523.682z M8251.815,5925.396
			c-71.905,148.084-172.614,285.142-280.612,408.918c-107.789,123.539-337.513,338.453-520.03,220.875
			c-114.407-73.713-164.81-250.607-137.541-375.504c22.536-103.242,79.108-208.881,148.179-288.597
			c28.551-32.938,65.271-49.688,97.383-77.826c6.76-5.914,13.248-12.319,19.601-18.95c29.583-30.831,56.647-66.552,98.024-81.438
			c28.896-10.396,59.639-2.469,89.57-6.397c87.4-11.472,207.4-73.929,250.951-145.71c6.116-10.081,12.594-26.182,21.604-33.775
			c12.58-10.621,26.317-5.599,37.397-14.106c65.004-49.944,109.408-163.621,205.738-84.874
			C8447.924,5563.624,8321.48,5781.891,8251.815,5925.396z" style="stroke:black;fill:#fffc91"/><path id="180640552" parent_id="180640490" order="58" structure_id="10687" d="M8282.078,5428.012
			c-96.33-78.746-140.734,34.93-205.738,84.875c-11.08,8.508-24.816,3.484-37.396,14.105c-9.01,7.596-15.486,23.695-21.604,33.775
			c-43.551,71.783-163.551,134.239-250.951,145.711c-29.934,3.93-60.676-4-89.571,6.396c-41.377,14.887-68.44,50.605-98.024,81.438
			c-6.353,6.631-12.84,13.037-19.6,18.951c-32.113,28.138-68.833,44.889-97.383,77.826
			c-69.07,79.715-125.643,185.354-148.18,288.596c-27.268,124.896,23.135,301.791,137.541,375.504
			c182.52,117.579,412.242-97.336,520.031-220.874c107.998-123.776,208.706-260.834,280.612-408.918
			C8321.48,5781.891,8447.924,5563.624,8282.078,5428.012z" style="stroke:black;fill:#ece754"/><path id="180640550" parent_id="180640490" order="59" structure_id="10692" d="M6861.361,4502.984
			c-1.795-5.785-3.479-11.604-5.057-17.455c-49.52-46.449-88.34-51.029-105.807-51.029c-9.623,0-20.631,4.168-29.467,8.493
			c2.002,1.46,3.91,3.138,5.703,5.063c4.088,4.39,6.652,9.179,7.883,14.138c2.354,9.491-0.19,19.604-6.349,28.737
			c-5.858,8.687-11.696,17.803-20.021,24.369c-3.748,2.957-8.133,4.674-11.979,7.416c-4.123,2.94-7.188,7.08-10.771,10.605
			c-5.301,5.218-11.098,9.934-15.701,15.822c-6.328,8.096-13.694,14.701-19.057,24.115c-5.331,9.361-11.62,18.565-15.736,28.615
			c-4.211,10.278-8.441,19.301-14.92,28.082c-3.807,5.156-5.828,10.127-8.028,15.898c-11.853,31.085-0.905,63.406,26.043,81.507
			c25.22,16.938,57.114,20.302,86.706,21.562c17.21,0.733,34.438,0.467,51.654,0.299c45.295-0.439,89.722,12.25,127.596,37.092
			c41.729,27.373,38.518,59.795,65.539,98.254c18.377,26.152,92.016,163.564,96.902,193.463
			c17.69,108.258,37.416,218.137-9.494,322.74c-55.09,122.85-245.386,165.389-349.791,77.602
			c-50.225-42.23-77.521-109.088-114.776-161.854c-38.647-54.74-101.104-95.664-136.903-149.742
			c-17.998-27.185-30.041-59.545-50.738-84.86c-17.659-21.599-55.334-45.215-56.632-76.71c-0.106-2.589,0.304-5.285,1.106-7.999
			c-0.02,0.067-0.047,0.136-0.066,0.204l-1.785,2.829c-0.12-0.317-0.51,0.946-0.915,2.259c-3.612,48,89.226,212.415,110.526,256.596
			c47.482,98.463,133.016,287.481,281.776,370.815c64.888,35.584,142.92,53.91,228.524,36.623
			c109.121-22.046,257.184-104.554,311.23-208.687C7471.867,5085.268,6970.213,4853.885,6861.361,4502.984z" style="stroke:black;fill:#fffc91"/><path id="180640549" parent_id="180640490" order="60" structure_id="10690" d="M6632.708,4535.464
			c0.005,0.015,0.009,0.028,0.015,0.043c0.069,0.202,0.129,0.405,0.18,0.608c0.014,0.049,0.025,0.101,0.036,0.15
			c0.099,0.436,0.149,0.87,0.147,1.307c0,0.055-0.002,0.107-0.004,0.162c-0.008,0.188-0.022,0.377-0.051,0.564
			c-0.004,0.031-0.006,0.063-0.012,0.096c-0.035,0.213-0.086,0.428-0.148,0.64c-0.016,0.054-0.035,0.106-0.053,0.159
			c-0.059,0.174-0.125,0.348-0.203,0.521c-0.021,0.049-0.04,0.097-0.063,0.145c-0.102,0.21-0.217,0.418-0.35,0.626
			c-0.029,0.046-0.063,0.091-0.094,0.138c-0.115,0.17-0.242,0.34-0.379,0.51c-0.043,0.054-0.086,0.106-0.131,0.162
			c-0.176,0.203-0.365,0.408-0.574,0.609c-0.033,0.032-0.071,0.063-0.104,0.096c-0.187,0.174-0.39,0.349-0.603,0.521
			c-0.068,0.054-0.137,0.108-0.207,0.162c-0.261,0.201-0.531,0.399-0.83,0.597c-2.203,1.449-1.851,5.027-4.349,6.564
			c-0.158,0.098-0.327,0.188-0.51,0.268c-2.729,1.194-8.907-0.381-12.035-0.207c-8.565,0.473-16.401,2.893-23.543,7.728
			c-16.875,11.423-29.244,29.451-37.376,47.856c-5.169,11.701-8.732,24.088-10.242,36.81c-1.868,15.746-10.771,52.826-15.729,67.866
			c-23.453,71.227-19.758,142.066,25.119,203.434c17.174,23.481,35.832,42.926,61.873,55.629c16.766,8.19,31.756,20.51,43.82,34.683
			c5.736,6.748,12.521,14.251,15.779,22.588c3.194,8.173,5.234,18.093,7.281,26.63c1.998,8.27,5.14,16.225,7.121,24.486
			c1.814,7.576,1.375,15.72,2.063,23.563c0.807,9.234,2.307,18.359,5.768,27.012c3.603,9.024,10.731,13.201,17.834,19.426
			c8.529,7.476,17.445,13.222,22.269,24.135c5.041,11.394,10.992,32.26-8.374,29.529c-11.682-1.65-22.402-8.409-32.461-14.162
			c-36.439-20.854-59.457-64.468-90.607-92.282c-24.57-21.937-50.156-42.703-77.217-61.505
			c-11.998-8.341-48.256-24.04-56.162-31.268c-8.635-7.891-22-12.52-32.847-17.615c-9.565-4.496-20.201-5.584-29.707-10.258
			c-11.31-5.551-17.34-13.039-30.623-7.438c-0.604,0.255-1.215,0.546-1.83,0.854c-0.116,0.06-0.231,0.115-0.351,0.176
			c-0.592,0.307-1.188,0.637-1.787,0.987c-0.117,0.067-0.231,0.142-0.35,0.21c-0.605,0.365-1.212,0.746-1.818,1.154
			c-0.021,0.014-0.041,0.025-0.062,0.039c-0.62,0.418-1.241,0.865-1.858,1.326c-0.119,0.09-0.24,0.179-0.358,0.27
			c-0.601,0.455-1.196,0.928-1.79,1.419c-0.109,0.091-0.218,0.185-0.327,0.276c-0.589,0.494-1.174,1.004-1.753,1.533
			c-0.031,0.027-0.063,0.055-0.096,0.084c-0.596,0.547-1.184,1.113-1.766,1.692c-0.111,0.11-0.225,0.222-0.335,0.334
			c-0.565,0.571-1.124,1.155-1.671,1.755c-0.091,0.1-0.182,0.201-0.271,0.302c-0.537,0.597-1.065,1.202-1.582,1.819
			c-0.033,0.041-0.067,0.082-0.103,0.121c-0.53,0.643-1.046,1.297-1.549,1.959c-0.095,0.123-0.187,0.246-0.278,0.369
			c-0.49,0.656-0.967,1.32-1.426,1.992c-0.067,0.1-0.133,0.199-0.199,0.297c-0.445,0.666-0.877,1.336-1.289,2.014
			c-0.03,0.05-0.063,0.1-0.094,0.148c-0.422,0.699-0.818,1.406-1.199,2.115c-0.068,0.129-0.138,0.258-0.205,0.385
			c-0.369,0.705-0.719,1.412-1.043,2.121c-0.041,0.092-0.08,0.186-0.121,0.277c-0.312,0.695-0.601,1.393-0.863,2.09
			c-0.021,0.061-0.048,0.12-0.07,0.182c-0.268,0.72-0.502,1.438-0.715,2.156c-0.805,2.715-1.215,5.41-1.107,8
			c1.298,31.494,38.973,55.11,56.632,76.709c20.698,25.316,32.74,57.678,50.737,84.86c35.799,54.079,98.256,95.002,136.904,149.743
			c37.255,52.766,64.553,119.622,114.775,161.854c104.406,87.787,294.703,45.248,349.793-77.602
			c46.908-104.604,27.185-214.482,9.494-322.741c-4.889-29.897-78.526-167.31-96.903-193.462
			c-27.022-38.46-23.812-70.881-65.539-98.255c-37.874-24.842-82.3-37.53-127.595-37.092c-17.219,0.168-34.445,0.437-51.655-0.298
			c-29.592-1.26-61.487-4.624-86.706-21.563c-26.948-18.101-37.896-50.422-26.043-81.506c2.2-5.771,4.223-10.742,8.027-15.899
			c6.479-8.78,10.709-17.804,14.92-28.082c4.117-10.049,10.406-19.253,15.737-28.615c5.36-9.414,12.728-16.021,19.058-24.115
			c4.604-5.89,10.398-10.604,15.699-15.821c3.584-3.525,6.648-7.666,10.771-10.605c3.848-2.743,8.23-4.459,11.979-7.417
			c8.324-6.565,14.164-15.683,20.021-24.369c9.375-13.903,10.374-30.084-1.534-42.875c-24.216-26.013-69.095-7.66-95.474,4.135
			c-7.619,3.403-77.317,62.26-64.063,62.826c17.442,0.746,36.167,2.431,52.421,9.192c3.659,1.522,11.257,6.191,13.07,11.215
			l0.006,0.004C6632.701,4535.439,6632.703,4535.451,6632.708,4535.464z" style="stroke:black;fill:#ece754"/><path id="180640554" parent_id="180640490" order="61" structure_id="1009" d="M6643.898,6182.913
			c-23.045,12.78-49.633,21.06-86.826,43.884c-32.924,20.193-65.582,47.018-85.388,70.211
			c-91.882,107.547-180.229,218.255-280.853,317.973c-169.858,168.31-384.854,282.91-602.285,377.658
			c-249.862,108.875-494.912,211.592-762.613,259.746c-135.59,24.39-264.311,41.849-401.509,49.363
			c-181.638,9.943-329.199-40.381-486.917-119.986c0.331-87.57,32.398-265.572,114.407-316.836
			c90.418-56.512,146.903,1.239,216.106,53.738c54.586,41.417,131.082,15.766,192.551,13.411
			c32.64-1.247,139.457,7.175,138.358,51.192c-1.108,44.48-63.416,19.621-89.885,31.217c-59.44,26.049-2.205,77.948,26.414,101.691
			c103.342,85.701,247.765,101.216,376.418,80.223c117.116-19.112,231.708-60.604,338.851-111.065
			c78.359-36.905,157.371-72.506,226.104-126.165c67.592-52.759,121.811-123.068,141.48-207.393
			c21.728-93.119-19.862-205.028-75.233-279.461c-45.772-61.543-114.524-103.303-160.854-164.25
			c-24.06-31.655-98.194-136.424-47.435-172.31c34.222-24.196,90.294,37.146,114.819,55.454
			c47.086,35.148,93.683,70.98,143.006,102.973c27.763,18,57.035,35.429,78.828,60.795c22.883,26.646,34.068,60.953,56.916,87.611
			c54.092,63.13,142.52,83.752,217.244,45.333c69.27-35.615,120.537-102.842,153.84-171.603
			c18.023-37.232,27.043-76.148,35.108-116.547c10.563-52.93,26.757-114.957,13.827-168.808
			c-14.061-58.606-73.6-99.927-80.598-159.085c-7.689-65.113,39.554-134.188,83.563-177.089
			c48.874-47.633,80.604-92.544,92.057-164.028c12.115-75.615-0.473-151.703-23.813-223.901
			c-10.365-32.054-21.233-66.569-37.663-96.097c-8.971-16.133-26.906-55.565-32.462-75.615c16.054,18.086,40.454,44.549,70.8,50.479
			c55.605,10.861,82.355-21.898,89.857-27.3c-7.176,51.099-8.278,110.207-1.528,161.54c8.146,62,19.103,123.686,32.507,184.77
			c26.948,122.832,63.313,243.383,104.463,362.148c12.566,36.289,16.792,84.855,45.54,112.491
			c31.995,30.761,74.013,46.642,104.659,79.438C6629.369,6094.688,6627.832,6139.809,6643.898,6182.913z" style="stroke:black;fill:#cccccc"/><path id="180640555" parent_id="180640490" order="62" structure_id="1009" d="M5437.99,4422.283
			c37.436,41.168,90.42,68.264,124.493,112.161c28.976,37.337,96.917,271.183-13.741,249.052
			c-32.277-6.452-58.988-83.152-76.072-107.08c-62.336-87.293-146.621-162.334-223.564-236.547
			c-51.777-49.941-104.947-88.32-173.953-109.902c-37.365-11.688-119.307-19.742-135.751-64.258
			c-30.474-82.477,117-65.434,160.808-65.174c74.031,0.441,162.016-14.66,223.824,35.117
			c51.014,41.08,60.443,108.281,94.483,161.444C5424.339,4406.186,5430.914,4414.5,5437.99,4422.283z" style="stroke:black;fill:#cccccc"/><path id="180640556" parent_id="180640490" order="63" structure_id="1009" d="M5577.938,5121.516
			c-41.045-52.349-49.037-85.371,28.801-100.32c212.02-40.734,142.817,250.314,148.246,365.727
			c1.639,34.844,5.248,68.479,11.638,102.924c12.513,67.541,10.706,146.188,4.63,214.572
			c-5.012,56.329-25.902,91.938-70.087,123.502c-28.835,20.592-83.847,60.352-99.97,3.355
			c-10.98-38.863,19.994-36.881,47.242-57.164c27.473-20.449,62.029-45.496,65.584-93.965
			c7.142-97.394,13.513-132.276-13.398-250.662c-23.773-104.588-47.652-216.705-117.686-301.754
			C5581.217,5125.643,5579.545,5123.575,5577.938,5121.516z" style="stroke:black;fill:#cccccc"/><path id="180640557" parent_id="180640490" order="64" structure_id="1009" d="M5824.012,4521.706
			c20.595,41.647,46.795,71.937,79.588,62.979c16.162-4.403,46.357-38.619,52.403-53.772
			c18.521-46.381-20.528-91.478-36.974-131.688c-18.711-45.735-32.264-94.529-51.947-141.312
			c-43.278-102.858-128.195-189.606-130.457-308.325c-0.725-38.004-4.761-254.596-71.924-229.658
			c-59.299,22.022-3.754,191.836,0.93,236.396c15.205,144.997,52.117,263.285,102.113,400.327
			C5777.366,4383.004,5795.2,4463.456,5824.012,4521.706z" style="stroke:black;fill:#cccccc"/><path id="180640558" parent_id="180640490" order="65" structure_id="1009" d="M6479.303,4397.238
			c-32.076-11.108-65.85-9.566-91.737-31.617c-24.306-20.703-41.42-52.277-60.138-77.769c-11.432-15.569-14.416-34.407-21.998-52.11
			c-8.68-20.27-18.203-40.656-26.313-60.815c-10.662-26.478-3.576-55.324-11.575-82.36c-3.852-13.014-15.643-22.683-21.171-35.146
			c-6.329-14.27-8.087-30.037-11.929-45.042c-1.979-7.729-3.196-24.98-9.59-30.316c-2.705-2.261-3.336,22.254-2.57,24.79
			c2.244,7.394,6.7,13.698,8.831,21.352c6.542,23.508,9.341,48.323,14.42,72.196c10.286,48.303,32.826,87.39,50.797,132.525
			c8.433,21.18,11.999,43.768,19.673,65.205c7.52,21.008,15.709,38.177,26.122,57.909c7.097,13.446,10.304,29.183,20.671,40.735
			c8.93,9.951,21.729,16.179,33.887,21.403c23.379,10.049,48.432,14.575,72.211,23.25c9.66-2.584,19.36-5.03,29.125-7.265
			l33.162-10.293c6.674-2.752,13.063-5.815,19.31-9.136C6525.283,4412.27,6503.54,4405.631,6479.303,4397.238z" style="stroke:black;fill:#cccccc"/><path id="180640559" parent_id="180640490" order="66" structure_id="1009" d="M4994.391,3955.732
			c-23.48,69.234-115.158,191.795-72.035,199.691c93.248-4.609,122.713-228.615,114.633-322.624
			c-2.598-30.526,18.444-116.805-15.244-101.585C4967.971,3758.203,5010.445,3908.395,4994.391,3955.732z" style="stroke:black;fill:#cccccc"/><path id="180640560" parent_id="180640490" order="67" structure_id="1009" d="M4191.496,4905.811
			c39.62-33.16,70.755,7.176,113.557-4.129c43.438-11.473,60.932-85.174,94.197-92.063c60.08-12.468,89.27,92.582,58.807,130.362
			c-25.021,31.047-89.693,32.315-123.166,59.906c-37.136,30.618-77.242,95.326-132.609,77.247
			C4137.128,5055.863,4142.98,4946.449,4191.496,4905.811z" style="stroke:black;fill:#cccccc"/><path id="180640561" parent_id="180640490" order="68" structure_id="1009" d="M4251.048,5715.529
			c41.703,33.557,108.801-219.932,100.188-260.217c-13.186-61.707-62.445-156.071-67.672-60.635
			c-2.08,37.947,3.934,110.467-9.236,165.094c-11.667,48.369-52.23,103.41-31.424,144.726
			C4245.48,5709.615,4248.205,5713.236,4251.048,5715.529z" style="stroke:black;fill:#cccccc"/><path id="180640562" parent_id="180640490" order="69" structure_id="1009" d="M6347.415,5000.241
			c-35.921,67.826-7.153,233.935-141.574,177.638c-52.308-21.914-105.085-100.721-121.399-149.565
			c-14.974-44.828-38.631-91.177-46.512-137.372c-8.74-51.248-7.395-108.557-11.506-160.682
			c-3.5-44.345-37.291-101.383-10.25-143.338c22.643-35.121,78.641-42.599,116.287-36.692
			c59.201,9.288,111.279,18.099,171.152,2.431c56.125-14.687,114.211-50.682,175.275-35.973
			c11.902,2.867,22.229,14.984,30.07,23.657c7.767,8.56,15.914,23.397,29.646,13.821c13.474-9.396,18.847-24.608,34.806-31.276
			c14.728-6.162,30.646-4.521,45.063,1.776l14.225,10.763c0.957,2.655,0.297,5.409-3.416,7.851c-2.201,1.449-1.85,5.027-4.348,6.564
			c-0.158,0.098-0.327,0.188-0.51,0.268c-2.729,1.194-8.907-0.381-12.035-0.207c-8.566,0.473-16.4,2.893-23.543,7.728
			c-16.875,11.423-29.244,29.451-37.376,47.856c-5.169,11.701-8.733,24.088-10.242,36.81c-1.868,15.746-10.771,52.826-15.729,67.866
			c-23.451,71.227-19.758,142.066,25.119,203.434c17.174,23.481,35.834,42.926,61.873,55.629
			c16.767,8.19,31.758,20.51,43.821,34.683c5.737,6.748,12.521,14.251,15.778,22.588c3.195,8.173,5.235,18.093,7.283,26.63
			c1.996,8.27,5.139,16.225,7.119,24.486c1.815,7.576,1.375,15.72,2.063,23.563c0.808,9.234,2.308,18.359,5.767,27.012
			c3.604,9.024,10.732,13.201,17.836,19.426c8.528,7.476,17.444,13.222,22.268,24.135c5.041,11.394,10.992,32.26-8.374,29.529
			c-11.681-1.65-22.401-8.409-32.461-14.162c-36.44-20.854-59.457-64.468-90.606-92.282c-24.571-21.937-50.158-42.703-77.217-61.505
			c-12-8.341-48.258-24.04-56.162-31.268c-8.635-7.891-22-12.52-32.848-17.615c-9.564-4.496-20.201-5.584-29.707-10.258
			c-11.311-5.551-17.34-13.039-30.623-7.438c-10.74,4.527-23.521,17.829-27.229,30.663L6347.415,5000.241z" style="stroke:black;fill:#cccccc"/><path id="180640563" parent_id="180640490" order="70" structure_id="1009" d="M4134.738,2092.61
			c28.713,0.337,147.471,5.35,82.203-45.531c33.778-12.544,74.763,3.962,111.653-0.055
			c-7.427-58.366-138.894-120.127-187.487-116.617L4134.738,2092.61z" style="stroke:black;fill:#cccccc"/><path id="180640553" parent_id="180640490" order="71" structure_id="140" d="M4067.407,3762.299
			c0.25-0.005,0.5-0.002,0.755-0.012c90.285-1.041,188.34-63.02,269.225-98.721c67.034-29.587,138.348-58.026,190.584-111.873
			c45.137-46.531,49.035-111.783,47.188-173.361c-3.127-104.523-33.393-205.432-89.293-294.068
			c-46.32-73.455-105.627-144.02-190.164-172.617c-12.135-4.105-195.711-40.853-191.562-22.73l14.526-323.93
			c-4.349,27.05,46.545,59.624,63.437,74.61c26.265,23.306,54.29,44.466,81.34,66.808c38.177,31.538,75.24,65.704,102.503,107.415
			c26.771,40.963,44.87,87.004,72.381,127.448c34.867,51.241,68.146,103.66,97.003,158.559
			c35.332,67.211,65.032,138.096,82.397,212.188c13.668,58.291,37.688,160.521,13.638,217.812
			c-14.597,34.767-51.002,53.784-81.778,71.979c-98.828,58.422-203.049,105.969-304.855,157.994
			c-63.3,32.355-107.466,78.471-180.415,88.846L4067.407,3762.299z" style="stroke:black;fill:#aaaaaa"/></g>
</g>
</svg>