<?xml version="1.0" encoding="utf-8"?>
<!-- Generator: Adobe Illustrator 16.0.0, SVG Export Plug-In . SVG Version: 6.00 Build 0)  -->
<!DOCTYPE svg PUBLIC "-//W3C//DTD SVG 1.1//EN" "http://www.w3.org/Graphics/SVG/1.1/DTD/svg11.dtd">
<svg version="1.1" id="Layer_1" xmlns="http://www.w3.org/2000/svg" xmlns:xlink="http://www.w3.org/1999/xlink" x="0px" y="0px"
	 width="9744.01px" height="6823.46px" viewBox="0 0 9744.01 6823.46" enable-background="new 0 0 9744.01 6823.46"
	 xml:space="preserve">
<g transform="scale(1.0)">
	<g id="_x31_80631705" transform=" scale(1.0, 1.0)">
		<path id="_x31_80631707" fill="none" stroke="#010101" stroke-width="64" d="M4911.133,6303.148
			c123.344,6.057,267.033,3.457,402.331-16.108c63.88-9.242,127.329-21.372,183.229-39.824
			c131.845-43.501,210.104-146.63,328.293-222.448c39.4-25.276,104.828-43.08,149.363-60.549
			c203.621-79.859,203.452-94.594,306.039-166.432c23.438-17.913,59.82-63.524,77.076-57.963
			c24.297-4.428,28.584,111.869,84.1,186.19c40.954,54.833,110.01,108.202,186.205,154.652
			c197.52,120.39,375.846,282.51,616.576,286.379c204.167,3.28,387.375-34.518,523.038-118.802
			c121.157-75.263,203.782-204.946,275.618-324.984c67.492-112.771,181.439-240.07,265.621-335.038
			c146.461-165.25,256.383-302.636,359.865-478.612c59.639-101.402,79.16-188.867,81.273-304.664
			c1.459-79.559,44.068-168.911,83.947-244.26c79.879-150.91,179.299-287.322,262.82-428.168
			c76.912-129.694,35.418-253.484,78.486-395.277c41.85-137.781,17.422-297.775-16.369-437.996
			c-15.154-62.913-48.141-68.611-57.764-135.876c-6.111-42.75,15.881-78.259,12.072-120.836
			c-15.516-173.674-96.775-451.376-152.561-615.456c-31.453-92.509-134.363-245.171-213.139-326.277
			c-24.174-24.884-45.082-66.037-54.678-143.432c-15.105-47.184-348.928-551.685-475.15-681.097
			c-222.33-227.95-474.267-404.488-766.264-522.239c-328.732-132.555-770.474-267.369-1117.107-335.003
			c-176.713-34.471-282.49-27.584-458.088-27.89c-261.663-0.451-523.537-33.495-771.941,74.737
			c-86.038,37.484-99.354,77.023-130.39,105.459c-41.479,38.009-84.201,60.213-82.029,69.93L4911.133,6303.148z"/>
		<path id="_x31_80631708" fill="none" stroke="#010101" stroke-width="64" d="M9158.646,3299.246
			c-15.152-62.912-48.141-68.61-57.764-135.877c-6.109-42.75,15.881-78.258,12.072-120.835
			c-15.514-173.674-96.775-451.375-152.557-615.456c-31.457-92.508-134.365-245.172-213.143-326.277
			c-24.174-24.884-45.078-66.037-54.676-143.432c-15.107-47.182-348.93-551.684-475.152-681.096
			c-222.328-227.951-474.266-404.488-766.262-522.24c-328.734-132.555-770.476-267.368-1117.104-335.004
			c-176.716-34.47-282.493-27.584-458.091-27.89c-261.665-0.451-523.536-33.495-771.943,74.737
			c-86.038,37.484-99.352,77.025-130.388,105.461c-41.481,38.01-84.2,60.213-82.031,69.93l3.772,1167.975l0.004,0.001l-0.005-1.087
			c0.899,0.302,18.548,1.191,45.021,1.393c49.202,0.558,128.833-1.178,187.72-13.391c11.131-2.353,21.592-5.006,30.855-8.11
			c11.95-4.014,50.301-29.197,96.408-62.166c31.484-22.535,66.613-48.77,99.436-74.252c57.953-45.136,83.951-99.458,127.448-129.251
			c13.355-9.15,28.36-15.96,46.522-19.451c18.385-3.568,38.794-4.719,60.928-4.514c40.454,0.264,86.756,5.356,137.242,9.388
			c44.578,3.583,91.103,8.145,136.738,13.918c45.254,5.696,89.469,12.678,130.101,21.098
			c114.71,23.755,235.95,57.247,338.685,101.329c22.088,9.495,44.105,18.989,65.894,28.408
			c197.31,85.225,383.245,168.648,573.813,274.571c58.882,32.795,124.687,80.385,190.287,133.562
			c186.305,151.011,370.961,346.803,390.865,374.426c43.488,60.373,146.506,192.43,254.783,355.219
			c100.764,151.62,206.1,329.817,271.932,501.407c0.678,1.661,1.357,3.321,1.959,4.983c13.125,34.498,25.654,71.34,36.994,109.389
			c0.15,0.453,0.303,0.905,0.379,1.358c13.93,52.624,27.883,113.554,30.619,127.067c6.078,29.672,11.186,59.725,14.35,89.929
			c0.078,0.603,0.152,1.13,0.227,1.736c0.004,0.38,0.078,0.678,0.08,1.056c0.619,5.966,1.158,11.856,1.631,17.822
			c0.932,11.478,1.641,22.878,2.053,34.358c0.16,3.244,0.244,6.416,0.256,9.516c0.438,20.539-0.018,40.55-1.525,59.886
			c-0.002,0.228,0,0.452-0.074,0.754c-0.791,9.516-1.885,18.805-3.201,27.944c-0.877,5.895-1.832,11.709-2.934,17.522
			c-1.324,7.177-2.795,14.276-4.27,21.3c-1.029,4.986-2.061,9.971-3.166,14.881c-0.736,3.626-1.547,7.327-2.434,10.951
			c-0.883,3.93-1.768,7.857-2.654,11.707c-0.883,3.853-1.844,7.633-2.803,11.406c-1.033,4.535-2.141,8.992-3.322,13.449
			c-4.135,16.39-8.492,32.479-13.08,48.34c-2.215,7.629-4.438,15.183-6.73,22.74c-4.438,14.955-9.102,29.607-13.916,44.036
			c-0.295,0.982-0.594,1.964-0.887,2.948c-0.223,0.529-0.371,0.979-0.52,1.512c-2.59,8.008-5.256,15.861-8,23.72
			c-2.666,7.856-5.408,15.638-8.148,23.342c-2.668,7.703-5.484,15.412-8.229,22.964c-2.74,7.629-5.559,15.187-8.299,22.666
			c-2.818,7.551-5.561,15.03-8.381,22.359c-2.592,6.877-5.186,13.67-7.707,20.471c-5.785,15.107-11.494,29.992-17.129,44.647
			c-13.795,35.958-27.141,70.56-38.996,104.099c-0.223,0.453-0.369,0.982-0.594,1.51c-10.158,26.669-19.775,58.547-26.43,81.963
			c-36.82,130.302-47.666,244.796-64.338,338c-1.615,9.138-3.232,18.126-4.922,26.89c-1.617,8.837-3.309,17.448-4.928,25.979
			c-0.221,1.363-0.516,2.721-0.807,4.079c-1.104,5.591-2.209,11.179-3.24,16.62c-1.324,6.418-2.574,12.764-3.902,18.955
			c-2.281,10.878-4.492,21.454-6.773,31.799c-1.326,6.048-2.654,12.009-3.98,17.903c-2.064,9.064-4.129,17.901-6.121,26.516
			c-0.297,1.507-0.664,2.944-1.033,4.38c-2.139,8.911-4.281,17.672-6.422,26.133c-0.812,3.248-1.623,6.496-2.436,9.744
			c-1.553,5.895-3.029,11.633-4.506,17.299c-7.535,28.326-14.93,53.781-22.184,76.672c-1.406,4.457-2.738,8.76-4.146,12.99
			c-0.963,2.947-1.924,5.816-2.887,8.688c-23.479,70.479-44.726,113.694-60.27,139.385c-10.056,11.715-21.388,22.678-30.396,35.297
			c-9.812-5.502,8.706-84.059,18.75-121.602c8.87-33.235,54.439-138.776,86.336-264.77
			c28.055-110.809,92.209-459.232-22.998-382.848c-3.059,2.041-6.266,4.384-9.621,7.03
			c-50.717,39.923-138.891,152.069-211.869,291.468c-51.577,98.369-103.426,205.052-99.961,305.938
			c1.889,55.213,0.053,99.692-9.805,90.812c16.516,20.076,49.001,33.537,64.943,50.033c32.824,33.949,39.824,60.406,44.171,74.53
			c15.514,50.382,24.356,159.85-89.444,212.081c0,0-69.215,30.271-164.631,7.703c-46.529-11.002-88.362-25.309-146.279-48.648
			c-52.209-21.036-59.729-45.01-145.653-23.533c-84.214,21.049-210.675,118.451-253.498,156.703
			c-92.954,83.027-157.515,171.455-204.833,253.201c-30.633,52.924-39.873,123.947-96.051,156.768
			c8.363,5.027,17.025,13.637,24.645,20.74c42.166,32.059,47.668,38.731,101.686,71.66
			c197.52,120.393,375.847,282.513,616.576,286.382c204.168,3.283,387.373-34.518,523.039-118.801
			c121.154-75.266,203.781-204.944,275.619-324.987c67.492-112.768,181.438-240.068,265.617-335.037
			c146.463-165.248,256.387-302.634,359.869-478.61c59.637-101.403,79.158-188.865,81.271-304.667
			c1.461-79.555,44.066-168.91,83.945-244.258c79.879-150.908,179.301-287.322,262.824-428.168
			c76.91-129.693,35.416-253.482,78.482-395.277C9216.865,3599.461,9192.438,3439.468,9158.646,3299.246z"/>
		<path id="_x31_80631709" fill="none" stroke="#010101" stroke-width="64" d="M4896.642,2199.037
			c3.496,1.991,16.353,16.226,26.3,40.333c7.162,17.366,8.538,38.695,21.7,61.335c8.408,14.479,20.23,30.711,33.669,42.612
			c46.865,41.489,80.335,72.196,131.371,123.373c67.275,67.466,150.66,124.594,231.363,154.593
			c124.502,46.269,254.744-119.122,335.135-119.25c-57.904-8.785-99.076-69.762-126.559-82.347
			c-42.161-19.217-25.228-31.844-3.857-36.471c30.486-6.599,96.218-28.408,194.392-77.436
			c126.241-63.175,200.458-120.034,247.335-214.852c60.027-121.488,18.916-233.139-95.685-291.935
			c-317.269-162.669-583.992,208.899-890.014,219.078c-55.179,1.864-82.974,8.612-105.699,10.973l-0.002-1.09l-0.004,0.002
			L4896.642,2199.037z"/>
		<path id="_x31_80631815" fill="none" stroke="#010101" stroke-width="64" d="M5980.059,390.892l0.018,5.21l-14.505,140.251
			c-70.273,4.067-139.685-1.379-209.829-3.353c-81.885-2.34-152.148-16.698-233.75-24.626c-33.288-3.216-67.316-5.827-101.495-6.701
			l-18.444-108.426c156.008-14.645,315.021-2.333,473.92-2.105C5913.361,391.181,5947.606,390.922,5980.059,390.892z"/>
		<path id="_x31_80631814" fill="none" stroke="#010101" stroke-width="64" d="M5965.573,536.352l-27.479,265.922
			c-121.899-51.313-228.908-99.167-345.932-121.409c-49.605-9.394-98.003-15.692-143.77-15.799l-27.894-163.394
			c34.177,0.874,68.208,3.486,101.493,6.7c81.604,7.931,151.865,22.287,233.75,24.627
			C5825.887,534.974,5895.298,540.42,5965.573,536.352z"/>
		<path id="_x31_80631813" fill="none" stroke="#010101" stroke-width="64" d="M5938.094,802.274l-0.941,9.591l-30.529,295.226
			c-69.781-28.555-138.46-62.626-208.379-86.801c-54.199-18.753-129.188-38.392-194.592-31.384l-55.26-323.84
			c45.767,0.108,94.164,6.405,143.77,15.8C5709.186,703.107,5816.194,750.961,5938.094,802.274z"/>
		<path id="_x31_80631812" fill="none" stroke="#010101" stroke-width="64" d="M5906.623,1107.09l-33.571,324.982
			c-106.335-24.671-211.075-41.79-301.186-43.14l-68.214-400.026c65.404-7.01,140.395,12.631,194.592,31.383
			C5768.162,1044.464,5836.842,1078.536,5906.623,1107.09z"/>
		<path id="_x31_80631811" fill="none" stroke="#010101" stroke-width="64" d="M5863.694,1521.719
			c-45.631-5.772-92.155-10.336-136.733-13.918c-50.486-4.031-96.788-9.123-137.244-9.388l0.06-4.456l-17.912-105.027
			c90.11,1.35,194.851,18.47,301.186,43.14l-8.991,86.777L5863.694,1521.719z"/>
		<path id="_x31_80631820" fill="none" stroke="#010101" stroke-width="64" d="M5402.053,393.245l18.446,108.426
			c-114.639-3.064-230.342,13.128-319.529,87.975l-45.778-97.751c13.132-8.698,29.105-17.396,48.816-26.024
			C5201.528,423.415,5301.14,402.704,5402.053,393.245z"/>
		<path id="_x31_80631819" fill="none" stroke="#010101" stroke-width="64" d="M5420.499,501.671l27.894,163.394
			c-103.713-0.584-193.868,30.008-253.381,125.293l-94.042-200.713C5190.16,514.8,5305.86,498.607,5420.499,501.671z"/>
		<path id="_x31_80631818" fill="none" stroke="#010101" stroke-width="64" d="M5448.393,665.065l55.26,323.84
			c-29.377,3.124-56.793,11.606-79.549,27.94c-34.537,24.727-56.841,64.999-71.575,109.717l-157.517-336.205
			C5254.524,695.074,5344.68,664.481,5448.393,665.065z"/>
		<path id="_x31_80631817" fill="none" stroke="#010101" stroke-width="64" d="M5503.652,988.906l68.214,400.026
			c-19.142-0.359-37.61,0.035-55.33,1.26c-11.733,0.767-23.991,3.95-36.31,9.096l-127.698-272.724
			c14.734-44.72,37.04-84.99,71.578-109.717C5446.859,1000.512,5474.275,992.029,5503.652,988.906z"/>
		<path id="_x31_80631816" fill="none" stroke="#010101" stroke-width="64" d="M5571.866,1388.931l17.91,105.028l-0.058,4.456
			c-22.134-0.206-42.545,0.946-60.928,4.513l-48.564-103.641c12.321-5.146,24.576-8.329,36.312-9.096
			C5534.256,1388.967,5552.725,1388.573,5571.866,1388.931z"/>
		<path id="_x31_80631798" fill="none" stroke="#010101" stroke-width="64" d="M8747.258,2100.802l-71.086,53.683
			c-22.98-30.789-41.186-64.226-48.273-105.678c-32.766-190.272-146.473-320.207-247.252-476.432
			c-98.674-152.906-257.932-288.763-399.621-400.847c-41.23-32.587-84.25-62.375-128.604-90.199l52.545-76.095
			c110.553,79.944,214.334,170.543,312.461,271.04c126.191,129.394,460.049,633.913,475.156,681.097
			C8702.178,2034.767,8723.1,2075.903,8747.258,2100.802z"/>
		<path id="_x31_80631797" fill="none" stroke="#010101" stroke-width="64" d="M8627.898,2048.807
			c7.088,41.453,25.293,74.89,48.273,105.678l-207.518,156.817c-11.293-22.569-22.357-45.442-33.125-68.613
			c-37.047-79.938-77.225-179.281-112.373-250.311c-67.889-137-179.748-251.001-285.916-362.893
			c-106.77-112.57-235.088-206.772-368.357-282.24l183.539-265.917c44.355,27.824,87.373,57.611,128.604,90.198
			c141.689,112.085,300.947,247.943,399.621,400.849C8481.426,1728.6,8595.131,1858.534,8627.898,2048.807z"/>
		<path id="_x31_80631796" fill="none" stroke="#010101" stroke-width="64" d="M8468.654,2311.302l-107.568,81.281
			c-41.057-72.231-82.27-144.16-120.191-217.679c-56.734-110.051-138.998-205.276-214.092-303.755
			c-59.998-78.632-151.627-157.084-228.77-218.786c-71.747-57.401-143.438-121.976-219.729-173.86l90.579-131.258
			c133.27,75.467,261.588,169.669,368.357,282.241c106.168,111.892,218.027,225.893,285.916,362.893
			c35.148,71.03,75.326,170.372,112.373,250.31C8446.297,2265.86,8457.361,2288.734,8468.654,2311.302z"/>
		<path id="_x31_80631795" fill="none" stroke="#010101" stroke-width="64" d="M8361.086,2392.583l-233.252,176.248
			c-57.959-95.248-118.525-187.472-180.047-274.107c-149.859-211.157-375.895-393.47-569.169-527.03l199.686-289.19
			c76.292,51.885,147.982,116.459,219.729,173.86c77.143,61.701,168.771,140.154,228.77,218.786
			c75.094,98.479,157.357,193.705,214.092,303.755C8278.816,2248.423,8320.029,2320.352,8361.086,2392.583z"/>
		<path id="_x31_80631794" fill="none" stroke="#010101" stroke-width="64" d="M8127.836,2568.833l-266.598,201.428
			c-96.149-134.709-200.202-263.217-304.408-392.707c-108.859-135.3-218.506-257.914-348.279-363.439l170.067-246.421
			c193.274,133.561,419.31,315.873,569.169,527.03C8009.309,2381.359,8069.875,2473.585,8127.836,2568.833z"/>
		<path id="_x31_80631793" fill="none" stroke="#010101" stroke-width="64" d="M7861.238,2770.261l-53.111,40.073
			c-108.277-162.789-211.295-294.848-254.785-355.22c-19.904-27.621-204.561-223.414-390.863-374.426l46.072-66.574
			c129.775,105.527,239.42,228.141,348.279,363.44C7661.036,2507.044,7765.089,2635.552,7861.238,2770.261z"/>
		<path id="_x31_80631810" fill="none" stroke="#010101" stroke-width="64" d="M6692.73,503.348l-17.715,70.4
			c-86.783-36.318-178.113-68.706-267.056-79.496c-76.899-9.369-146.23,33.138-219.841,46.271
			c-73.088,13.057-147.035-8.698-220.978-4.248c-0.521,0-1.043,0.077-1.565,0.077l14.502-140.25l-0.02-5.21
			c119.79-0.489,214.908,1.008,354.003,28.14C6445.996,440.901,6567.9,469.784,6692.73,503.348z"/>
		<path id="_x31_80631809" fill="none" stroke="#010101" stroke-width="64" d="M5957.573,791.305
			c-9.174,7.485-13.259,14.587-13.237,21.309l-7.184-0.75l0.941-9.591l27.479-265.922c0.523,0,1.046-0.076,1.568-0.077
			c73.942-4.45,147.89,17.305,220.978,4.248c73.61-13.133,142.938-55.639,219.841-46.271
			c88.942,10.79,180.272,43.178,267.054,79.496l-62.459,247.903c-24.335-9.492-45.742-16.722-64.154-21.461
			c-124.004-31.978-248.338-48.853-375.907-50.622C6115.512,748.793,6013.432,745.791,5957.573,791.305z"/>
		<path id="_x31_80631808" fill="none" stroke="#010101" stroke-width="64" d="M6612.555,821.653l-36.398,144.801
			c-97.771-35.479-191.05-69.375-296.402-67.235c-45.908,0.95-335.238-30.121-335.422-86.605c-0.02-6.722,4.067-13.824,13.24-21.309
			c55.859-45.514,157.939-42.512,214.921-41.735c127.569,1.767,251.903,18.642,375.909,50.622
			C6566.812,804.931,6588.222,812.161,6612.555,821.653z"/>
		<path id="_x31_80631807" fill="none" stroke="#010101" stroke-width="64" d="M6576.158,966.455l-77.299,307.049
			c-30.985-9.26-62.496-18.217-94.828-27.023c-121.316-33.112-249.152-69.694-370.076-97.22
			c-43.105-9.854-85.4-24.992-127.332-42.171l30.531-295.226l7.182,0.749c0.18,56.486,289.509,87.554,335.42,86.605
			C6385.106,897.08,6478.385,930.976,6576.158,966.455z"/>
		<path id="_x31_80631806" fill="none" stroke="#010101" stroke-width="64" d="M6498.857,1273.504l-82.465,327.519
			c-30.619-11.374-61.389-22.447-92.23-33.216c-123.82-43.458-289.398-98.278-451.11-135.735l33.571-324.982
			c41.93,17.179,84.225,32.317,127.332,42.171c120.922,27.525,248.758,64.107,370.076,97.22
			C6436.363,1255.287,6467.874,1264.244,6498.857,1273.504z"/>
		<path id="_x31_80631805" fill="none" stroke="#010101" stroke-width="64" d="M6416.393,1601.024l-18.015,71.53
			c-21.79-9.419-43.806-18.914-65.896-28.407c-102.732-44.082-223.976-77.573-338.683-101.329
			c-40.632-8.421-84.847-15.402-130.105-21.099l0.366-2.87l8.994-86.777c161.709,37.456,327.289,92.276,451.107,135.733
			C6355.004,1578.577,6385.773,1589.649,6416.393,1601.024z"/>
		<path id="_x31_80631804" fill="none" stroke="#010101" stroke-width="64" d="M7904.967,1005.233l-52.545,76.095
			c-118.535-74.575-246.147-135.021-370.926-197.205c-106.95-53.292-205.998-113.234-322.01-147.863
			c-122.526-36.587-249.943-59.35-367.584-111.497c-37.515-16.654-76.68-34.214-116.887-51.015l17.715-70.4
			c261.568,70.212,535.839,160.955,758.434,250.686C7614.313,819.808,7765.036,904.019,7904.967,1005.233z"/>
		<path id="_x31_80631803" fill="none" stroke="#010101" stroke-width="64" d="M7852.422,1081.328l-183.539,265.917
			c-13.935-7.992-27.944-15.683-42.022-23.221c-158.124-84.43-251.183-119.081-404.444-203.516
			c-90.789-50.058-227.365-107.249-318.299-156.399c-120.898-65.36-219.162-114.128-291.562-142.455l62.461-247.904
			c40.207,16.802,79.372,34.361,116.887,51.015c117.641,52.146,245.058,74.91,367.584,111.497
			c116.014,34.629,215.06,94.571,322.01,147.863C7606.274,946.307,7733.887,1006.752,7852.422,1081.328z"/>
		<path id="_x31_80631802" fill="none" stroke="#010101" stroke-width="64" d="M7668.883,1347.245l-90.579,131.258
			c-5.469-3.771-10.94-7.391-16.413-10.936c-102.279-66.359-201.706-127.358-313.07-182.005
			c-222.438-109.29-435.422-232.939-668.846-317.676c-1.271-0.454-2.543-0.906-3.816-1.433l36.396-144.802
			c72.4,28.329,170.664,77.094,291.562,142.456c90.934,49.151,227.51,106.341,318.299,156.4
			c153.264,84.434,246.32,119.086,404.444,203.516C7640.938,1331.562,7654.948,1339.253,7668.883,1347.245z"/>
		<path id="_x31_80631801" fill="none" stroke="#010101" stroke-width="64" d="M7578.304,1478.503l-199.686,289.19
			c-15.517-10.784-30.804-21.116-45.792-31.22c-148.299-99.47-296.607-200.522-446.91-294.855
			c-126.328-79.25-250.832-127.237-387.059-168.115l77.299-307.05c1.275,0.527,2.547,0.979,3.818,1.433
			c233.424,84.736,446.406,208.385,668.844,317.676c111.364,54.647,210.791,115.646,313.072,182.006
			C7567.363,1471.112,7572.835,1474.732,7578.304,1478.503z"/>
		<path id="_x31_80631800" fill="none" stroke="#010101" stroke-width="64" d="M7378.618,1767.693l-170.069,246.421
			c-52.705-42.92-108.692-82.967-169.305-119.915c-196.598-119.736-407.543-213.483-622.852-293.178l82.465-327.519
			c136.225,40.877,260.728,88.864,387.059,168.115c150.303,94.332,298.611,195.386,446.91,294.855
			C7347.814,1746.579,7363.102,1756.91,7378.618,1767.693z"/>
		<path id="_x31_80631799" fill="none" stroke="#010101" stroke-width="64" d="M7208.549,2014.115l-46.07,66.573
			c-65.601-53.179-131.407-100.769-190.287-133.563c-190.57-105.923-376.508-189.346-573.813-274.571l18.015-71.531
			c215.311,79.694,426.254,173.441,622.852,293.178C7099.856,1931.147,7155.844,1971.194,7208.549,2014.115z"/>
		<path id="_x31_80631792" fill="none" stroke="#010101" stroke-width="64" d="M9183.953,3423.225l-3.738,0.608l-107.199,9.012
			c-10.369-61.839-29.932-123.215-41.27-183.543c-16.207-86.453-10.436-175.265-27.914-262.321
			c-7.598-37.902-6.895-74.226-7.393-113.117c-1.072-76.422-29.59-155.386-46.506-229.527
			c-17.746-77.692-46.998-151.974-89.613-219.294c-42.314-66.945-69.088-136.471-121.846-196.985
			c-21.545-24.75-43.529-48.292-62.303-73.572l71.086-53.683c78.775,81.107,181.713,233.783,213.117,326.26
			c55.787,164.123,137.068,441.798,152.584,615.473c3.805,42.588-18.219,78.102-12.1,120.839
			c9.641,67.277,42.635,72.985,57.793,135.876C9168.352,3339.265,9177.236,3380.943,9183.953,3423.225z"/>
		<path id="_x31_80631791" fill="none" stroke="#010101" stroke-width="64" d="M9073.016,3432.845l-200.865,16.804
			c2.736-102.707-1.994-200.498-24.252-286.038c-33.996-130.46-50.041-258.75-113.377-375.59
			c-88.988-164.167-183.912-313.074-265.867-476.718l207.518-156.817c18.773,25.281,40.76,48.822,62.303,73.572
			c52.758,60.515,79.531,130.041,121.846,196.985c42.615,67.32,71.867,141.602,89.613,219.294
			c16.916,74.141,45.434,153.105,46.506,229.527c0.498,38.892-0.205,75.215,7.393,113.117
			c17.479,87.057,11.707,175.869,27.914,262.321C9043.084,3309.629,9062.646,3371.005,9073.016,3432.845z"/>
		<path id="_x31_80631790" fill="none" stroke="#010101" stroke-width="64" d="M8847.898,3163.61
			c22.258,85.54,26.988,183.329,24.252,286.038l-97.934,8.246c-6.867-136.453-31.033-279.612-76.225-403.644
			c-49.039-134.374-130.639-256.559-190.201-385.036c-44.125-95.335-95.268-186.285-146.705-276.632l107.568-81.283
			c81.955,163.646,176.879,312.552,265.867,476.72C8797.857,2904.861,8813.902,3033.15,8847.898,3163.61z"/>
		<path id="_x31_80631789" fill="none" stroke="#010101" stroke-width="64" d="M8774.217,3457.895l-242.951,20.391
			c-28.846-133.64-74.369-268.017-129.125-390.528c-77.127-172.561-171.693-350.39-274.305-518.923l233.252-176.249
			c51.436,90.345,102.578,181.295,146.703,276.633c59.562,128.474,141.162,250.661,190.201,385.034
			C8743.184,3178.282,8767.352,3321.442,8774.217,3457.895z"/>
		<path id="_x31_80631788" fill="none" stroke="#010101" stroke-width="64" d="M8080.059,3311.741
			c25.096,14.703,67.811,65.636,98.051,53.223c41.895-17.256-3.201-88.655-16.67-115.148
			c-49.744-97.899-112.102-189.141-169.232-282.579c-41.273-67.624-85.227-132.982-130.969-196.976l266.596-201.43
			c102.613,168.536,197.18,346.365,274.307,518.924c54.756,122.514,100.279,256.891,129.125,390.53l-314.643,26.347
			c-37.982-68.763-88.879-153.292-123.363-157.789c5.781,7.848,15.758,41.292,25.75,79.267
			c-11.34-38.05-23.869-74.892-36.992-109.39C8081.416,3315.062,8080.736,3313.399,8080.059,3311.741z"/>
		<path id="_x31_80631787" fill="none" stroke="#010101" stroke-width="64" d="M8161.439,3249.815
			c13.469,26.493,58.564,97.89,16.67,115.148c-30.24,12.413-72.955-38.521-98.051-53.223
			c-65.832-171.589-171.17-349.787-271.932-501.407l53.111-40.073c45.742,63.994,89.695,129.354,130.969,196.976
			C8049.338,3060.674,8111.695,3151.917,8161.439,3249.815z"/>
		<path id="_x31_80631786" fill="none" stroke="#010101" stroke-width="64" d="M9183.953,3423.225
			c17.09,105.785,20.961,215.582-8.932,314.011c-29.152,95.856-19.598,183.523-34.197,270.306l-176.66-36.534
			c15.527-53.631,28.062-108.472,43.727-165.952c22.986-84.146,62.832-179.562,70.703-266.489
			c3.174-35.348,0.295-70.609-5.578-105.721l107.199-9.012L9183.953,3423.225z"/>
		<path id="_x31_80631785" fill="none" stroke="#010101" stroke-width="64" d="M8964.164,3971.009l-206.373-42.704
			c0.215-3.621,0.354-7.174,0.342-10.724l1.189-1.736c6.297,4.603,13.635,7.915,22.24,9.721
			c57.617,12.104,73.508-206.759,77.314-256c5.74-74.012,11.334-148.177,13.271-219.917l200.867-16.804
			c5.871,35.111,8.752,70.371,5.578,105.721c-7.873,86.927-47.719,182.343-70.703,266.489
			C8992.227,3862.535,8979.691,3917.376,8964.164,3971.009z"/>
		<path id="_x31_80631784" fill="none" stroke="#010101" stroke-width="64" d="M8774.217,3457.895l97.934-8.246
			c-1.938,71.74-7.531,145.905-13.273,219.917c-3.805,49.241-19.697,268.104-77.314,256c-8.605-1.806-15.943-5.118-22.238-9.721
			c-78.252-58.002,18.479-321.341,16.779-406.674C8775.754,3492.253,8775.172,3475.109,8774.217,3457.895z"/>
		<path id="_x31_80631783" fill="none" stroke="#010101" stroke-width="64" d="M8776.104,3509.169
			c1.697,85.335-95.031,348.672-16.781,406.674l-1.189,1.738c0.012,3.55-0.127,7.101-0.342,10.724l-217.367-44.954
			c20.221-106.423,24.057-215.396,6.436-323.067c-4.424-27.183-9.672-54.589-15.596-81.998l242.953-20.391
			C8775.172,3475.109,8775.754,3492.253,8776.104,3509.169z"/>
		<path id="_x31_80631782" fill="none" stroke="#010101" stroke-width="64" d="M8546.861,3560.283
			c17.619,107.671,13.783,216.645-6.438,323.067l-239.586-49.54c1.123-22.431,0.975-44.86-0.443-67.289
			c-3.777-58.219-8.723-130.786-39.918-181.806c-8.719-14.264-24.6-45.137-43.854-80.084l314.645-26.347
			C8537.188,3505.694,8542.436,3533.101,8546.861,3560.283z"/>
		<path id="_x31_80631825" fill="none" stroke="#010101" stroke-width="64" d="M5055.191,491.895l45.778,97.751
			c-10.069,8.393-19.833,17.615-29.224,27.667c-95.754,102.415-95.898,243.557-91.508,375.783c0.086,3.549,0.248,7.099,0.334,10.647
			l-80.576-83.068l-7.48,0.008l-0.9-279.414c-2.199-9.74,40.573-31.906,82.026-69.93
			C4997.5,549.417,5010.94,520.935,5055.191,491.895z"/>
		<path id="_x31_80631824" fill="none" stroke="#010101" stroke-width="64" d="M5100.97,589.646l94.042,200.713
			c-5.952,9.37-11.529,19.343-16.803,29.994c-49.924,101.015-67.459,205.472-74.07,310.975l-123.566-127.584
			c-0.086-3.549-0.248-7.098-0.334-10.648c-4.391-132.228-4.246-273.368,91.508-375.784
			C5081.137,607.261,5090.9,598.039,5100.97,589.646z"/>
		<path id="_x31_80631823" fill="none" stroke="#010101" stroke-width="64" d="M5195.012,790.358l157.517,336.205
			c-18.145,54.767-24.901,116.245-28.784,164.127c-1.87,22.808-4.801,41.163-8.036,58.836l-211.569-218.198
			c6.613-105.503,24.146-209.96,74.07-310.974C5183.482,809.702,5189.06,799.727,5195.012,790.358z"/>
		<path id="_x31_80631822" fill="none" stroke="#010101" stroke-width="64" d="M5352.528,1126.563l127.698,272.724
			c-23.598,9.839-47.545,27.157-68.41,49.452l-96.108-99.214c3.235-17.673,6.166-36.027,8.034-58.835
			C5327.627,1242.808,5334.384,1181.33,5352.528,1126.563z"/>
		<path id="_x31_80631821" fill="none" stroke="#010101" stroke-width="64" d="M5480.227,1399.287l48.564,103.641
			c-18.162,3.49-33.167,10.302-46.522,19.45l-2.105-3.168l-68.347-70.471C5432.682,1426.444,5456.629,1409.127,5480.227,1399.287z"
			/>
		<path id="_x31_80631830" fill="none" stroke="#010101" stroke-width="64" d="M4901.906,1790.706
			c-0.558,12.915,18.527,18.183,38.493,18.164l0.002,0.679c-26.472-0.202-44.122-1.091-45.021-1.392l-2.865-887.475l7.479-0.007
			l80.576,83.068c5.318,165.604,5.189,332.801-0.188,498.338c-1.627,50.976,0.301,92.433,0.465,143.481
			c0.175,54.751,7.789,96.277,7.918,135.923l-2.467,0.908C4976.733,1760.807,4903.587,1756.118,4901.906,1790.706z"/>
		<path id="_x31_80631829" fill="none" stroke="#010101" stroke-width="64" d="M4982.612,1797.88
			c4.841-5.744,5.647-11.031,3.687-15.483l2.465-0.908c-0.127-39.646-7.741-81.175-7.916-135.923
			c-0.164-51.049-2.094-92.508-0.465-143.482c5.375-165.538,5.508-332.732,0.188-498.339l123.568,127.584
			c-5.627,87.455-3.547,175.659-6.333,263.033c-3.251,104.519-23.401,300.732,29.323,397.042l0.988,4.757
			c-58.885,12.213-138.512,13.95-187.718,13.392l-0.005-0.681C4958.344,1808.854,4976.948,1804.607,4982.612,1797.88z"/>
		<path id="_x31_80631828" fill="none" stroke="#010101" stroke-width="64" d="M5104.139,1131.328l211.569,218.197
			c-4.187,23.338-8.9,45.393-12.171,74.85c-7.922,70.991-27.432,188.817-51.406,290.786l3.252,10.721
			c-46.105,32.968-84.458,58.152-96.409,62.166c-9.264,3.105-19.722,5.757-30.856,8.11l-0.988-4.758
			c-52.727-96.309-32.574-292.522-29.323-397.042C5100.592,1306.986,5098.512,1218.782,5104.139,1131.328z"/>
		<path id="_x31_80631827" fill="none" stroke="#010101" stroke-width="64" d="M5315.708,1349.525l96.108,99.214
			c-45.979,48.904-77.596,122.108-60.838,194.591l3.842,8.301c-32.822,25.482-67.953,51.719-99.438,74.252l-3.25-10.72
			c23.975-101.97,43.482-219.797,51.406-290.788C5306.808,1394.918,5311.523,1372.863,5315.708,1349.525z"/>
		<path id="_x31_80631826" fill="none" stroke="#010101" stroke-width="64" d="M5480.163,1519.21l2.105,3.168
			c-43.497,29.797-69.495,84.116-127.448,129.253l-3.842-8.301c-16.757-72.48,14.857-145.687,60.838-194.591L5480.163,1519.21z"/>
		<path id="_x31_80631781" fill="none" stroke="#010101" stroke-width="64" d="M8964.164,3971.009l176.66,36.532
			c-6.896,41.617-19.398,82.937-44.311,124.948c-83.52,140.845-182.906,277.319-262.803,428.2
			c-54.908-30.68-117.816-61.357-179.748-89.619l4.23-9.443c12.031-25.463,21.07-51.521,37.371-75.4
			c23.441-34.309,58.129-60.243,86.973-89.494c42.334-43.011,79.178-94.547,109.146-146.833
			C8925.664,4090.662,8946.859,4031.664,8964.164,3971.009z"/>
		<path id="_x31_80631780" fill="none" stroke="#010101" stroke-width="64" d="M8964.164,3971.009
			c-17.305,60.655-38.5,119.653-72.48,178.891c-29.969,52.286-66.812,103.822-109.146,146.833
			c-28.844,29.251-63.531,55.186-86.973,89.492c-16.301,23.881-25.34,49.939-37.371,75.402l-4.23,9.443
			c-34.521-15.822-68.744-30.898-101.092-44.762c-24.562-10.627-54.973-26.686-86.344-40.171l18.916-0.093
			c12.703-48.568,45.066-100.1,78.387-132.455c72.453-70.224,187.137-215.172,193.961-325.285L8964.164,3971.009z"/>
		<path id="_x31_80631779" fill="none" stroke="#010101" stroke-width="64" d="M8540.424,3883.351l217.367,44.954
			c-6.824,110.113-121.508,255.062-193.961,325.285c-33.32,32.355-65.686,83.887-78.387,132.455l-18.918,0.093
			c-36.24-15.521-73.816-27.493-105.582-23.46l-65.133-46.914l-1.344,0.229c-0.617-4.605-1.379-9.137-2.289-13.588l8.594-1.746
			c84.088-102.707,182.861-197.424,219.223-329.235C8527.979,3942.342,8534.84,3912.959,8540.424,3883.351z"/>
		<path id="_x31_80631778" fill="none" stroke="#010101" stroke-width="64" d="M8258.682,4234.24
			c-27.898-26.023-66.314-20.178-109.527-18.021c-41.42,2.078-87.598,12.391-121.014,38.401
			c-7.906,6.202-0.738-20.163,13.057-56.121c44.311,13.855,107.721,13.417,146.512-14.41
			c50.059-35.919,68.855-119.454,84.377-175.811c15.52-56.649,26.098-115.411,28.75-174.468l239.588,49.54
			c-5.584,29.608-12.445,58.991-20.426,88.072c-36.365,131.812-135.137,226.528-219.227,329.233l-8.594,1.746
			c-2.965-14.799-7.797-29.295-15.018-43.107C8271.666,4248.729,8265.508,4240.578,8258.682,4234.24z"/>
		<path id="_x31_80631710" fill="none" stroke="#010101" stroke-width="64" d="M8658.082,4472.908
			c-17.486-8.016-34.902-15.84-52.043-23.43c-18.102-8.012-35.898-15.763-53.152-23.188
			c-52.928-22.775-132.494-71.177-191.949-63.626c-41.363,5.259-48.617,44.677-58.518,78.967
			c-22.494,77.905-48.314,159.373-86.494,231.662c-30.512,57.772-72.887,107.396-114.146,157.437
			c-63.076,76.506-94.996,104.543-149.01,166.896c-34.945,40.342-7.893,150.307-23.617,211.469
			c-21.164,82.314-45.303,146.771-90.896,217.201c-16.215,25.037-99.668,128.249-141.561,160.603
			c-39.156,30.247-106.367,56.739-137.467,61.778c-31.799,5.146-41.305,49.771-53.213,74.955c-2.716,5.762-8.342,14.754-8.771,21.17
			c-1.495,21.824,30.188,44.965,44.537,58.633c6.854,6.526,13.88,12.793,21.014,18.898c4.828,4.789,9.396,9.81,12.112,16.237
			c5.499,13.026,0.697,29.716-4.673,42.921c-6.057,5.432-12.343,13.3-19.934,23.178c-28.087,36.558-66.055,60.933-109.407,74.602
			c-19.562,6.16-31.672,11.541-52.396,9.804c-8.862-0.735-15.883,0.032-21.428,1.999c-10.082-1.407-18.79-0.494-29.349-11.517
			c-3.319-3.466-5.914-7.298-8.042-11.336c-2.657-41.866-10.972-82.31-39.426-117.244
			c-49.695-61.007-141.525-85.278-214.156-104.255c-68.695-17.959-122.57-53.318-183.016-90.852
			c-76.428-47.457-136.223-37.824-195.504,31.422c-37.951,44.334-70.832,93.652-100.091,144.207
			c-2.954,5.111-5.712,10.392-8.334,15.787c-24.519,50.502-36.96,111.332-87.716,140.98c8.364,5.027,17.024,13.637,24.645,20.74
			c42.168,32.061,47.668,38.731,101.684,71.666c197.516,120.379,375.824,282.49,616.535,286.38
			c21.882,0.352,58.25,1.101,87.365-1.182c11.248-0.89,31.672-1.626,47.225-2.938c20.633-1.248,40.956-5.634,61.356-8.494
			c7.965,2.781,48.972-5.818,49.171-5.85c34.045-4.604,78.139-15.472,121.72-29.43c53.126-17.02,108.603-41.319,156.246-70.911
			c35.634-22.138,65.767-47.116,96.128-77.911c9.197-9.322,18.209-19.61,28.031-27.539c0.258-0.213,0.193-0.703-0.16-1.441
			c7.883-8.103,15.912-17.908,19.596-26.307c0.529,0.449,1.055,0.895,1.584,1.34c49.443-60.352,91.656-128.318,130.439-193.129
			c67.492-112.77,181.438-240.068,265.617-335.037c146.461-165.248,256.385-302.634,359.867-478.609
			c59.639-101.404,79.16-188.866,81.275-304.668c1.457-79.553,44.064-168.909,83.945-244.258
			C8779.994,4530.629,8718.637,4500.658,8658.082,4472.908z"/>
		<path id="_x31_80631777" fill="none" stroke="#010101" stroke-width="64" d="M8658.082,4472.908
			c-10.637,58.624-32.715,101.735-19.055,165.229c8.715,40.575,13.848,67.65,2.738,109.636
			c-30.619,115.67-143.211,215.446-225.244,294.727c-84.479,81.646-120.836,167.803-169.795,274.769
			c-30.684,67.062-51.539,136.974-104.703,189.914c-63.766,63.489-105.225,135.824-159.322,207.521
			c-33.16,43.956-57.605,94.759-88.877,140.158c-18.068,26.239-37.535,50.89-59.645,73.742
			c-20.822,21.53-47.201,38.938-64.849,63.675c47.503,41.59,94.782,83.387,143.233,124.109
			c49.445-60.354,91.658-128.318,130.439-193.129c67.49-112.771,181.438-240.068,265.619-335.038
			c146.461-165.25,256.385-302.636,359.867-478.609c59.639-101.405,79.158-188.868,81.275-304.665
			c1.455-79.557,44.064-168.911,83.943-244.26C8779.994,4530.629,8718.637,4500.658,8658.082,4472.908z"/>
		<path id="_x31_80631776" fill="none" stroke="#010101" stroke-width="64" d="M7834.18,5928.604
			c22.109-22.854,41.576-47.503,59.645-73.742c31.271-45.397,55.717-96.202,88.877-140.158
			c54.098-71.697,95.557-144.032,159.322-207.521c53.164-52.94,74.02-122.853,104.703-189.914
			c48.959-106.966,85.316-193.122,169.795-274.769c82.033-79.282,194.625-179.057,225.244-294.727
			c11.109-41.985,5.977-69.061-2.738-109.636c-13.66-63.494,8.418-106.605,19.055-165.231c-17.486-8.014-34.902-15.84-52.043-23.428
			c-28.348,31.482-50.91,68.861-75.58,102.971c-41.633,57.577-51.26,96.386-60.762,169.055
			c-9.209,70.371-55.791,134.594-91.904,195.783c-61.57,104.332-158.666,176.401-214.994,284.041
			c-63.766,121.846-116.635,247.383-196.133,358.954c-59.158,83.028-104.201,167.394-172.076,244.149
			c-33.223,37.574-55.625,96.537-92.776,129.264c22.653,19.395,45.114,38.965,67.518,58.584
			C7786.979,5967.543,7813.359,5950.135,7834.18,5928.604z"/>
		<path id="_x31_80631775" fill="none" stroke="#010101" stroke-width="64" d="M7794.59,5804.43
			c67.875-76.754,112.918-161.119,172.076-244.149c79.498-111.569,132.367-237.108,196.133-358.954
			c56.328-107.638,153.424-179.711,214.994-284.041c36.113-61.188,82.695-125.41,91.904-195.781
			c9.502-72.669,19.129-111.478,60.762-169.057c24.67-34.111,47.232-71.488,75.58-102.971
			c-18.102-8.012-35.898-15.763-53.152-23.188c-52.93-22.775-132.494-71.178-191.949-63.626
			c-41.363,5.261-48.617,44.675-58.518,78.966c-22.494,77.906-48.312,159.374-86.494,231.661
			c-30.512,57.774-72.887,107.397-114.146,157.438c-63.076,76.506-94.996,104.543-149.01,166.896
			c-34.945,40.342-7.893,150.304-23.617,211.471c-21.164,82.311-45.303,146.768-90.896,217.197
			c-16.215,25.041-99.668,128.249-141.561,160.606c-39.156,30.247-106.367,56.737-137.467,61.774
			c-31.799,5.148-41.305,49.773-53.213,74.956c-2.716,5.765-8.342,14.757-8.771,21.171c-1.495,21.824,30.188,44.965,44.537,58.633
			c41.338,39.36,88.484,69.831,131.852,106.334c9.434,7.938,18.822,15.92,28.179,23.928
			C7738.965,5900.969,7761.367,5842.004,7794.59,5804.43z"/>
		<path id="_x31_80631774" fill="none" stroke="#010101" stroke-width="64" d="M7385.542,6300.621
			c-13.422-40.781-25.851-79.925-35.419-119.768c-78.155,1.582-151.727-13.854-226.715-36.696
			c-75.701-23.065-156.299-68.801-229.076-101.515c-115.915-52.1-210.863-111.48-305.175-195.359
			c-24.521,50.5-36.964,111.33-87.718,140.98c8.364,5.027,17.022,13.639,24.643,20.742c42.17,32.057,47.67,38.731,101.688,71.661
			c197.512,120.382,375.824,282.49,616.533,286.381c21.883,0.354,58.25,1.101,87.365-1.182c19.215-1.521,65.191-2.587,67.957-6.856
			C7408.295,6345.59,7389.787,6313.488,7385.542,6300.621z"/>
		<path id="_x31_80631773" fill="none" stroke="#010101" stroke-width="64" d="M7123.408,6144.157
			c74.99,22.843,148.56,38.282,226.717,36.696c-9.918-41.311-16.758-83.375-18.4-128.805
			c-2.516-69.725,5.826-143.007-41.467-201.073c-49.696-61.005-141.525-85.276-214.158-104.255
			c-68.695-17.957-122.57-53.318-183.014-90.85c-76.43-47.459-136.227-37.824-195.508,31.42
			c-37.949,44.334-70.83,93.654-100.086,144.209c-2.957,5.108-5.715,10.39-8.335,15.785
			c94.312,83.881,189.26,143.263,305.175,195.361C6967.111,6075.356,7047.709,6121.092,7123.408,6144.157z"/>
		<path id="_x31_80631831" fill="none" stroke="#010101" stroke-width="64" d="M7802.15,6052.07
			c-16.062-15.053-31.787-29.634-44.748-41.63c-15.601,16.767-26.221,47.616-38.977,66.309
			c-14.201,20.803-29.266,41.073-47.333,58.621c-37.816,36.729-85.403,53.8-137.538,55.96c-32.449,1.344-65.944,0.283-97.689-7.209
			c-28.883-6.824-50.002-28.711-75.973-38.328c12.346,54.87,30.07,109.004,49.9,161.556c6.107,16.187,12.83,39.419,30.158,46.972
			c7.176,3.127,49.268-5.703,49.472-5.734c34.041-4.605,78.138-15.471,121.72-29.428c53.125-17.021,108.6-41.321,156.244-70.914
			c35.633-22.137,65.766-47.113,96.131-77.908c9.195-9.323,18.205-19.612,28.029-27.541
			C7894.818,6140.105,7847.174,6094.258,7802.15,6052.07z"/>
		<path id="_x31_80631833" fill="none" stroke="#010101" stroke-width="64" d="M7727.396,5982.61
			c-11.531-10.973-23.053-22.02-34.688-32.952c-10.817,20.656-16.899,43.428-28.765,65.876
			c-27.865,52.72-88.987,81.261-145.725,76.735c-54.481-4.347-113.172-22.82-166.791-5.428c1.559,18.982,3.56,36.975,8.047,57.111
			c0.133,0.615,0.281,1.228,0.418,1.84c25.971,9.617,47.088,31.504,75.971,38.324c31.747,7.496,65.24,8.557,97.691,7.213
			c52.135-2.162,99.719-19.231,137.536-55.96c18.067-17.548,33.132-37.817,47.332-58.624c12.759-18.691,23.379-49.539,38.979-66.306
			C7742.545,5996.691,7731.32,5986.345,7727.396,5982.61z"/>
		<path id="_x31_80631832" fill="none" stroke="#010101" stroke-width="64" d="M7518.219,6092.27
			c56.737,4.527,117.859-24.016,145.725-76.735c11.865-22.448,17.947-45.22,28.765-65.872
			c-22.207-20.858-44.85-41.279-68.854-59.925c-37.164-28.859-47.938-18.405-73.554,14.931
			c-28.085,36.558-66.053,60.931-109.407,74.602c-19.56,6.16-31.67,11.541-52.394,9.806c-50.407-4.2-41.398,40.231-38.617,77.533
			c0.519,6.952,1.007,13.653,1.549,20.233C7405.047,6069.449,7463.737,6087.923,7518.219,6092.27z"/>
		<path id="_x31_80631768" fill="none" stroke="#010101" stroke-width="64" d="M5506.674,2002.522
			c-70.959,7.906-159.332,22.647-213.973,68.769c-99.031,83.566,123.1,125.978,177.011,119.379
			c62.075-7.598,180.565-46.527,202.82-114.109C5700.07,1992.976,5557.311,1996.869,5506.674,2002.522z M5421.316,2132.694
			c-112.473-21.379,8.877-83.129,52.73-92.252c35.758-7.435,83.835-6.353,91.701,38.455
			C5576.312,2139.065,5455.875,2139.253,5421.316,2132.694z"/>
		<path id="_x31_80631770" fill="none" stroke="#010101" stroke-width="64" d="M5891.811,1799.017
			c-317.294-162.713-584.021,208.839-890.039,219.074c-36.945,1.237-82.977,8.612-105.684,10.967l0.389,117.208
			c38.34-6.798,81.482-17.29,119.81-4c25.3,8.776,46.323,30.998,69.503,44.641c58.812,34.631,110.318,80.068,166.701,118.336
			c56.81,38.562,98.574,64.613,168.071,72.327c21.202,2.349,41.487,8.565,61.96,13.895c25.872,6.739,43.531,17.474,67.084,28.249
			c-42.166-19.282-25.249-31.848-3.855-36.501c30.503-6.634,96.25-28.369,194.406-77.462
			c126.21-63.119,200.443-119.988,247.312-214.828C6047.522,1969.409,6006.427,1857.781,5891.811,1799.017z M5788.188,2206.08
			c-106.461,104.014-310.236,131.855-450.4,100.645c-73.761-16.431-238.316-93.386-256.919-176.687
			c-12.653-56.624,77.372-95.146,128.157-112.562c88.674-30.408,176.19-65.055,265.793-91.571
			c66.346-19.636,133.835-34.807,203.78-40.495c52.235-4.25,106.222-2.509,141.501,42.858
			C5874.258,1997.913,5848.97,2146.687,5788.188,2206.08z"/>
		<path id="_x31_80631769" fill="none" stroke="#010101" stroke-width="64" d="M5678.599,1885.41
			c-69.945,5.688-137.435,20.859-203.78,40.495c-89.602,26.516-177.117,61.163-265.793,91.571
			c-50.785,17.417-140.809,55.938-128.157,112.562c18.603,83.301,183.158,160.255,256.919,176.687
			c140.166,31.21,343.939,3.369,450.4-100.645c60.782-59.393,86.07-208.167,31.914-277.811
			C5784.82,1882.9,5730.839,1881.16,5678.599,1885.41z M5672.534,2076.562c-22.257,67.581-140.747,106.511-202.822,114.108
			c-53.911,6.597-276.042-35.813-177.011-119.378c54.641-46.123,143.019-60.865,213.973-68.771
			C5557.311,1996.869,5700.07,1992.976,5672.534,2076.562z"/>
		<path id="_x31_80631767" fill="none" stroke="#010101" stroke-width="64" d="M5474.045,2040.441
			c-43.852,9.123-165.201,70.874-52.73,92.252c34.559,6.559,154.998,6.372,144.434-53.797
			C5557.88,2034.087,5509.805,2033.007,5474.045,2040.441z"/>
		<path id="_x31_80631772" fill="none" stroke="#010101" stroke-width="64" d="M5632.078,2484.52
			c-14.991-9.425-24.51-17.743-34.359-25.838c-20.576-16.914-35.32-33.125-48.113-38.968
			c-23.551-10.774-41.212-21.509-67.084-28.249c-6.47-1.684-12.92-3.456-19.39-5.169c20.3,6.235,39.431,15.3,58.843,27.383
			c20.775,12.914,61.897,28.925,64.369,57.416c-81.218-7.424-173.977,3.039-250.304-30.48
			c-40.998-17.999-75.71-49.216-109.982-78.488c-5.884-5.04-11.755-10.007-17.646-14.845
			c-69.811-57.354-137.107-123.215-214.68-169.816c-41.416-24.885-19.23-48.193,19.74-36.119
			c-37.617-11.851-79.592-1.715-116.996,4.916l0.165,52.773c4.003,11.341,15.634,16.641,21.06,27.334
			c4.797,9.452,7.469,24.353,10.918,34.706c9.439,28.306,13.225,43.408,31.988,64.158c18.762,20.75,43.268,37.716,65.776,60.35
			c22.503,22.633,59.853,58.473,81.419,79.217c68.648,66.044,150.658,124.598,231.371,154.594
			c124.523,46.279,256.658-117.29,337.047-117.366C5676.219,2502.032,5649.561,2495.521,5632.078,2484.52z"/>
		<path id="_x31_80631771" fill="none" stroke="#010101" stroke-width="64" d="M4993.735,2177.468
			c77.571,46.599,144.866,112.46,214.677,169.816c5.891,4.837,11.762,9.804,17.646,14.843
			c34.271,29.273,68.983,60.491,109.983,78.487c76.325,33.521,169.087,23.057,250.302,30.479
			c-2.472-28.491-43.592-44.501-64.369-57.414c-19.412-12.083-38.543-21.149-58.841-27.384c-12.542-3.317-25.144-6.4-38.064-8.162
			c-1.497-0.193-2.99-0.396-4.506-0.563c-69.495-7.714-111.259-33.768-168.07-72.327c-56.383-38.268-107.888-83.705-166.702-118.336
			c-23.182-13.643-44.2-35.865-69.501-44.64c-0.936-0.323-1.876-0.622-2.815-0.918
			C4974.504,2129.274,4952.318,2152.582,4993.735,2177.468z"/>
		<path id="_x31_80631766" fill="none" stroke="#010101" stroke-width="64" d="M4982.582,1797.848
			c-11.896,14.164-81.802,17.437-80.645-7.151C4903.914,1748.837,5010.551,1764.555,4982.582,1797.848z"/>
		<path id="_x31_80631765" fill="none" stroke="#010101" stroke-width="64" d="M8300.367,3766.516
			c-3.76-58.232-8.707-130.788-39.865-181.799c-25.852-42.299-112.789-231.114-164.748-237.902
			c13.711,18.99,49.523,184.396,54.281,207.73c6.186,30.289,11.412,60.846,14.557,91.628c5.73,56.017,6.859,113.405-3.689,168.905
			c-27.391,144.112-76.146,270.147-119.713,383.441c44.307,13.83,107.709,13.386,146.484-14.429
			c50.109-35.948,68.92-119.458,84.389-175.781C8293.545,3930.116,8305.609,3847.827,8300.367,3766.516z"/>
		<path id="_x31_80631764" fill="none" stroke="#010101" stroke-width="64" d="M8258.711,4234.246
			c6.775,6.309,12.941,14.483,18.422,25.023c30.887,59.389,18.418,129.768,3.48,191.812
			c-18.607,77.212-49.047,152.539-86.031,222.562c-30.508,57.773-71.959,107.056-113.213,157.099
			c-41.486,50.302-84.264,99.928-133.748,142.42c-30.453,26.144-74.697,66.795-115.043,75.551
			c24.775-74.184,52.148-178.597,78.264-324.67c16.656-93.148,27.498-207.66,64.336-338.002
			c12.473-44.107,35.576-117.935,52.932-131.414c33.482-26.012,79.604-36.331,121.039-38.411
			C8192.4,4214.052,8230.752,4208.247,8258.711,4234.246z"/>
		<path id="_x31_80631763" fill="none" stroke="#010101" stroke-width="64" d="M7859.547,5073.232
			c137.68-10.203-28.363,326.764-94.01,411.654c-35.91,46.453-90.021,115.327-152.886,126.637
			c-59.55,10.711-78.624-33.249-73.845-82.764c3.822-39.586,24.506-75.525,47.982-106.503
			c24.906-32.868,45.248-67.068,72.621-98.456c27.977-32.089,57.016-63.432,81.221-98.618c15.49-22.531,38.557-39.708,50.209-64.544
			C7799.943,5141.252,7839.119,5074.746,7859.547,5073.232z"/>
		<path id="_x31_80631762" fill="none" stroke="#010101" stroke-width="64" d="M7823.133,4452.648
			c1.73-1.016-54.509,51.951-64.291,64.156c-16.4,20.474-38.82,39.909-47.114,65.393c-12.169,37.371,28.048,74.269,45.339,104.406
			c15.296,26.654,31.748,52.26,47.873,78.2c6.76,10.865,19.342,52.085,36.4,50.047c14.891-1.791,19.982-38.585,21.91-49.231
			c6.738-37.301,13.578-74.717,18.496-112.317c4.549-34.829,18.707-152.149-4.297-191.732
			C7856.07,4424.79,7813.539,4458.297,7823.133,4452.648z"/>
		<path id="_x31_80631761" fill="none" stroke="#010101" stroke-width="64" d="M7760.637,5101.768
			c11.748-44.031,30.938-86.495,45.592-129.6c11.592-34.099,29.729-68.527,26.145-105.575c-2.803-28.919-21.426-65.103-34.85-90.866
			c-10.906-20.941-91.762-173.106-123.703-137.971c-30.17,33.197-50.792,75.693-71.361,114.945
			c-51.563,98.382-103.381,205.05-99.935,305.922c1.942,57.106,4.427,99.088,46.932,141.75
			c17.604,17.668,36.237,38.959,62.132,42.566C7693.736,5254.389,7743.04,5167.738,7760.637,5101.768z"/>
		<path id="_x31_80631760" fill="none" stroke="#010101" stroke-width="64" d="M6802.325,5578.299
			c42.822-38.256,169.284-135.654,253.5-156.707c85.925-21.477,93.444,2.499,145.651,23.539
			c57.919,23.331,99.75,37.641,146.278,48.641c22.435,5.314,45.565,9.48,68.661,8.995c20.672-0.438,35.316-2.779,55.635,3.251
			c51.197,15.181,73.923,95.301,57.973,141.584c-6.255,18.133-15.782,34.897-25.18,51.639
			c-10.305,18.351-17.136,41.373-33.629,55.309c-18.249,15.413-44.893,25.499-67.875,30.459
			c-46.738,10.098-85.265,32.372-133.415,18.15c-16.696-4.936-34.342-15.029-49.917-22.609
			c-40.996-19.961-98.301-34.959-142.221-46.436c-68.691-17.956-123.052-54.171-183.497-91.701
			c-18.938-11.764-48.036-24.198-69.891-28.892c-12.584-2.706-28.189,2.563-37.389-7.353
			C6776.564,5594.886,6794.454,5585.324,6802.325,5578.299z"/>
		<path id="_x31_80631759" fill="none" stroke="#010101" stroke-width="64" d="M7525.184,5911.735
			c17.58-18.05,52.867-51.396,31.413-75.542c-16.72-18.816-36.771-41.336-56.819-56.38c-21.094-15.821-40.068-1.103-61.542,5.981
			c-40.919,13.513-82.587,26.576-125.571,31.201c-38.273,4.107-10.909,22.676,0.244,42.908
			c8.009,14.514,15.075,30.271,20.205,46.034c5.473,16.823,5.303,37.253,13.037,53.104c12.695,25.988,57.63,14.892,80.461,10.549
			C7463.543,5962.575,7499.253,5938.376,7525.184,5911.735z"/>
		<path id="_x31_80631748" fill="none" stroke="#010101" stroke-width="64" d="M6676.931,1946.467
			c32.9,14.821,67.925,27.842,82.153,32.854c49.909,17.569,79.861,28.868,128.537,50.226
			c59.252,25.992,93.613,45.224,122.322,61.553c64.397,36.635,125.938,67.724,219.82,144.536
			c93.711,76.684,179.396,176.673,270.074,275.386c50.152,54.605,105.045,114.428,152.594,174.797
			c142.222,180.533,290.133,373.752,382.576,571.057c68.119,145.379,100.934,300.403,103.035,454.269
			c3.061,223.621-84.141,409.81-200.646,576.634c-86.99,124.557-199.323,217.296-301.729,345.775
			c-41.057-161.528-172.747-209.003-298.836-265.551c-46.047-19.205,43.273-111.062,60.003-176.004
			c27.177-105.537,40.532-250.204-1.121-345.487c-53.601-122.632-116.304-236.216-329.933-282.063
			c-60.478-78.818-258.093-553.201-251.498-604.722c4.932-31.47,3.152-58.521-2.119-77.403c-5.489-19.632-14.67-30.59-19.746-36.794
			c-7.758-9.469-12.348-19.466-24.381-23.577c-16.688-32.239-25.4-70.764-42.107-112.13
			c-37.482-92.819-62.508-144.145-73.882-203.986c-7.29-38.389-8.661-80.352-5.126-138.761
			c2.947-48.558,24.9-104.801,35.984-146.347c10.946-41.042,29.539-114.249,0.387-169.916c-3.678-7.025-17.734-25.957-32.857-44.337
			c-10.188-12.385-22.719-21.71-27.223-36.79c-16.068-53.791-29.66-53.2-37.579-61.319
			C6575.613,1898.097,6625.734,1923.388,6676.931,1946.467z"/>
		<path id="_x31_80631752" fill="none" stroke="#010101" stroke-width="64" d="M6410.734,5690.68
			c-18.348,43.455-39.088,48.025-32.158,75.867c34.098,136.844,66.892,168.293,99.387,200.969
			c29.842,30.02,60.762-92.135,122.146-175.209c54.357-73.578,115.777-157.737,205.941-238.264
			c41.544-37.115,175.292-133.66,256.986-154.078c83.338-20.828,78.043,8.777,147.574,29.158
			c58.077,17.025,96.629,37.071,141.895,47.184c58.889,13.171,111.893,8.584,143.539-5.93
			c110.373-50.658,105.688-145.941,90.629-194.811c-14.658-47.602-45.117-49.731-96.504-126.273
			c-17.07-25.418-21.677-62.197-23.006-103.443c-0.779-24.078,3.36-45.328,6.126-66.842c3.544-27.475,6.193-36.994,13.397-64.113
			c11.123-41.872,25.092-85.66,54.848-141.057c13.6-25.31,26.352-46.561,56.135-91.152c6.645-9.963,30.488-29.623,28.668-41.402
			c-8.647-56.139-56.07-119.776-85.092-145.192c-30.686-26.873-159.355-93.864-219.391-124.663
			c-8.619-4.435-22.744,25.173-27.931,34.006c-130.566,222.526-428.191,431.074-531.251,472.482
			c-99.236,39.873-261.479,80.622-319.121,169.578c-59.084,91.219-6.527,330.024,1.535,473.239
			C6448.057,5573.596,6432.348,5639.486,6410.734,5690.68z"/>
		<path id="_x31_80631753" fill="none" stroke="#010101" stroke-width="64" d="M6445.088,5520.731
			c2.969,52.864-12.74,118.755-34.354,169.948c-18.348,43.455-39.088,48.025-32.158,75.867
			c34.093,136.844,66.892,168.293,99.387,200.969c29.842,30.02,60.76-92.135,122.145-175.209
			c57.398-77.685,112.797-140.326,123.881-175.482c17.689-56.087-5.439-124.633-45.705-165.736
			c-58.438-59.635-135.219-40.549-206.762-19.192C6423.873,5446.124,6442.643,5477.299,6445.088,5520.731z"/>
		<path id="_x31_80631757" fill="none" stroke="#010101" stroke-width="64" d="M7381.717,4681.808
			c16.287,1.663,33.182,0.706,49.923-3.157c64.407-14.859,110.344-93.26,77.147-157.311c-5.25-10.129-11.548-19.834-18.745-28.855
			l33.212-9.702c7.588,5.074,13.735,9.577,17.992,13.309c29.021,25.416,76.444,89.054,85.09,145.192
			c1.822,11.779-22.021,31.438-28.668,41.402c-29.781,44.592-42.535,65.843-56.133,91.148
			c-29.758,55.398-43.728,99.188-54.848,141.059c-7.204,27.119-9.854,36.641-13.396,64.113c-2.767,21.516-6.906,42.766-6.129,66.844
			c0.6,18.516,1.189,36.111,5.352,54.273c2.543,11.101,11.113,28.785,6.653,40.283c-0.29,0.725-0.597,1.422-0.935,2.077
			c-8.711,17.142-34.158,10.726-49.635,14.862c-56.056,14.986-115.891,66.737-159.16,103.352
			c-26.746,22.629-54.943,46.811-73.49,77.092c-8.838,14.434-12.316,27.201-13.682,43.648
			c-2.748,33.111-21.246,24.347-43.086,16.201c-24.432-9.104-51.79-3.761-76.143,2.33c-14.271,3.564-28.982,8.944-42.568,14.547
			c-11.539,4.76-26.346,18.609-38.134,20.59c-16.69,2.797-15.452-14.53-20.343-28.232c-11.664-32.709-26.052-64.365-41.354-95.498
			c-54.063-110.125-112.382-218.1-169.684-326.533c-8.838-16.714-17.666-32.996-28.512-48.473
			c-28.035-40.053,10.977-46.7,40.229-58.455c10.475-4.211,22.957-10.145,37.072-17.645l18.934,17.6
			c6.939,32.299,44.14,66.982,62.249,88.303c39.052,45.997,82.179,87.289,127.183,127.265c43.262,38.43,93.986,65.253,145.766,23.03
			c61.332-50.014,102.053-119.846,135.406-190.848c21.146-44.974,41.658-90.675,57.506-137.885
			c8.418-25.029,18.77-50.556,24.527-76.361c2.803-12.572,2.969-19.865-0.248-24.907L7381.717,4681.808z"/>
		<path id="_x31_80631756" fill="none" stroke="#010101" stroke-width="64" d="M7265.365,4541.703
			c-12.676,98.195,78.933,157.101,166.274,136.947c64.407-14.863,110.344-93.26,77.147-157.311
			c-19.135-36.908-52.168-68.247-91.949-81.014C7352.336,4419.641,7274.43,4471.479,7265.365,4541.703z"/>
		<path id="_x31_80631758" fill="none" stroke="#010101" stroke-width="64" d="M6818.085,4861.308
			c-0.129,0.728-0.237,1.462-0.316,2.201c-3.772,35.925,42.327,78.136,63.16,102.663c39.052,45.995,82.179,87.287,127.183,127.263
			c43.262,38.43,93.986,65.255,145.766,23.03c61.33-50.014,102.051-119.844,135.406-190.846
			c21.145-44.977,41.658-90.677,57.506-137.885c8.416-25.031,18.771-50.559,24.528-76.361c5.604-25.146,0.659-29.173-20.79-36.32
			c-14.899-4.961-29.001-12.395-41.498-21.979c-17.169-13.165-26.884-28.633-35.217-48.309
			c-7.264-17.13-16.701-31.298-37.164-33.688c-40.322-4.701-73.807,3.258-101.903,32.512
			c-60.311,62.779-139.294,130.002-220.998,185.294C6885.062,4808.295,6820.133,4850.014,6818.085,4861.308z"/>
		<path id="_x31_80631754" fill="none" stroke="#010101" stroke-width="64" d="M7352.506,5476.307
			c58.889,13.169,111.893,8.584,143.539-5.93c140.285-64.389,93.814-198.734,70.197-231.867
			c-26.898-37.742-75.248-78.161-125.668-64.694c-56.062,14.982-102.082,54.301-145.359,90.92
			c-49.375,41.782-151.311,127.083-44.232,172.226C7284.916,5451.274,7315.658,5468.067,7352.506,5476.307z"/>
		<path id="_x31_80631755" fill="none" stroke="#010101" stroke-width="64" d="M6806.051,5554.041
			c32.357-28.9,68.609-50.782,103.507-76.15c22.735-16.516,48.558-29.084,37.317-60.561c-11.666-32.715-26.054-64.367-41.354-95.506
			c-54.065-110.119-112.384-218.098-169.685-326.524c-21.652-40.978-45.293-92.542-101.494-72.509
			c-66.364,23.653-150.951,63.219-190.789,124.707c-37.799,58.35-29.487,145.051-25.25,210.963
			c2.781,43.274,8.741,88.4,14.057,131.388c4.738,38.366,11.856,30.822,41.143,22.063c23.173-6.927,50.055-12.006,74.071-14.252
			c53.53-4.998,109.984,4.824,149.159,44.803c22.046,22.501,37.842,51.5,45.924,82.01c4.037,15.234,7.195,32.491,5.687,48.303
			c-0.597,6.398-7.107,23.59-0.429,28.348c7.248,5.168,21.207-12.591,25.064-16.828
			C6783.182,5573.117,6794.773,5564.104,6806.051,5554.041z"/>
		<path id="_x31_80631749" fill="none" stroke="#010101" stroke-width="64" d="M7342.371,3778.597
			c-65.82-116.276-170.633-180.137-283.781-196.078c-5.449,9.834-52.193,117.968-84.58,188.938
			c18.68,46.515,19.051,105.062,22.301,152.971c4.514,66.504,4.685,133.338,1.731,199.9
			c-6.021,135.429-38.978,353.942-113.087,470.935c37.002-11.472,66.614-20.477,78.623-23.379
			c52.303-12.634,129.012-36.527,177.45-45.475c20.548-3.796,36.388-18.914,44.774-26.473
			c91.337-82.33,151.701-209.792,178.578-273.919C7426.525,4077.755,7419.576,3914.979,7342.371,3778.597z"/>
		<path id="_x31_80631750" fill="none" stroke="#010101" stroke-width="64" d="M6996.311,3924.425
			c-3.251-47.908-3.621-106.456-22.299-152.969c-7.908,17.334-14.963,32.453-20.35,43.376
			c-44.828,90.928-74.251,162.43-136.693,266.325c-57.342,95.396-166.334,214.854-237.467,307.953
			c-14.746,19.286-80.08,94.39-89.063,125.322c-6.628,22.826,41.334,13.369,79.524,32.362c13.336,6.621,44.85,23.333,43.985,54.678
			c-0.582,21.205-16.507,50.049-57.065,74.509c-15.098,9.109,49.922,0.849,91.078-9.407
			c48.145-11.993,158.998-47.127,236.998-71.312c74.107-116.992,107.063-335.507,113.085-470.937
			C7000.995,4057.763,7000.824,3990.931,6996.311,3924.425z"/>
		<path id="_x31_80631751" fill="none" stroke="#010101" stroke-width="64" d="M7005.91,4703.995
			c-64.254,47.612-124.525,92.913-187.457,127.614c-45.752,25.225-92.658,46.811-139.852,62.718
			c-32.828,11.07-80.016,26.651-124.326,43.247c-44.156,16.551-58.96,32.51-101.547,57.683
			c-22.387,13.236-65.435-3.714-119.77-41.42c-19.213-13.333-16.004-77.401-0.449-139.71c10.487-42.029,16.502-98.42,44.558-94.673
			c40.12,5.359,94.262-8.628,126.589-19.646c13.332-4.541,85.209-2.786,168.638-21.929
			c115.058-26.391,251.589-73.689,282.171-83.334c112.048-35.346,251.631-81.561,207.225-36.066
			C7146.937,4573.599,7082.43,4647.304,7005.91,4703.995z"/>
		<path id="_x31_80631724" fill="none" stroke="#010101" stroke-width="64" d="M4899.26,2865.238
			c9.764-15.583,62.988-32.071,82.623-31.227c1.219,0.05-13.389,1.003-12.846-69.84c0.143-18.984,13.315-73.642,43.518-128.421
			c18.381-33.353,44.051-62.211,49.875-67.878c17.611-17.142,76.162-56.459,110.057-41.772c27.732,12.01,29.957,17.835,55.27,34.877
			c33.285,22.402,67.442,43.271,113.292,60.306c124.521,46.278,254.784-119.177,335.173-119.25
			c68.279-0.067,138.756-3.346,206.551-3.97c46.387-0.428,93.006-2.168,130.891,9.316c74.723,22.65,143.102,59.672,213.462,109.301
			c50.119,35.349,43.137,64.435,70.397,100.966c15.488,20.753,30.883,31.153,38.301,37.693
			c19.937,17.593,34.894,29.208,46.447,42.435c10.197,11.673,29.675,24.364,44.645,49.044
			c34.61,57.079,63.65,132.407,115.762,175.07c22.658,18.548,38.633,43.596,59.285,64.273
			c13.678,13.698,31.016,24.101,45.279,37.388c29.697,27.67,58.773,55.077,84.312,87.032c42.752,53.5,83.433,116.748,92.173,186.641
			c10.002,79.99-29.564,164.497-61.78,234.66c-48.729,106.15-107.333,269.73-235.932,427.102
			c-41.704,51.02-92.428,101.932-136.107,148.443c-51.654,55.008-87.145,114.412-145.274,166.271
			c-93.202,83.158-145.9,107.762-264.97,150.021c-150.839,53.549-248.951,92.744-403.888,158.965
			c-93.379,39.91-183.566,77.238-283.02,96.395c-105.435,20.307-244.528-33.535-331.262,50.271
			c-19.117,18.47-33.604,41.555-56.188,52.402L4899.26,2865.238z"/>
		<path id="_x31_80631726" fill="none" stroke="#010101" stroke-width="64" d="M5595.768,3817.356
			c-10.222,13.202-21.136,25.753-32.754,37.236c-25.445,25.151,6.22,45.46,25.82,63.869c43.264,40.655,80.297,86.947,127.419,123.46
			c38.1,29.514,82.384,52.021,126.583,70.504c38.95,16.291,45.641-30.516,61.414-55.954c20.492-33.062,39.771-67.297,62.138-99.112
			c21.972-31.238,46.938-72.627,55.187-110.806c6.628-30.611-29.188-44.488-44.497-67.527
			c-51.467-77.386-0.328-157.101,20.661-218.794c22.875-67.276-17.52-154.745-3.213-222.785
			c6.654-31.614,78.734-77.167,111.795-114.634c30.865-34.975,30.252-79.402-43.837-69.178c-41.204,5.681-93.269,3.04-134.69-0.204
			c-15.328-1.204-33.224-5.723-48.371-0.995c-26.068,8.151-10.438,31.818-10.727,51.944c-0.213,15.014-4.879,31.427-9.938,45.449
			c-10.258,28.462-28.978,54.895-53.455,72.507c-13.743,9.89-29.867,15.864-34.693,34.096c-7.812,29.44-9.77,60.363-15.381,90.284
			c-5.57,29.629-13.586,58.66-20.065,88.116c-12.292,55.843-38.544,105.481-63.771,156.685
			c-8.812,17.896-18.424,35.251-28.059,52.597C5629.471,3769.079,5613.671,3794.229,5595.768,3817.356z"/>
		<path id="_x31_80631725" fill="none" stroke="#010101" stroke-width="64" d="M5620.943,4663.464
			c46.574-19.708,93.356-38.923,140.359-57.587c22.645-8.998,45.113-18.41,67.705-27.52c12.897-5.193,28.479-9.178,38.471-19.545
			c11.691-12.138,2.448-23.297-0.717-36.434c-3.75-15.556-3.311-31.239,0.902-46.684c6.734-24.676,20.673-47.563,40.041-64.107
			c15.172-12.957,36.687-18.482,31.516-41.637c-4.707-21.096-22.626-35.975-31.768-54.754
			c-14.355-29.472-25.525-57.342-31.885-89.771c-8.175-41.636,13.258-78.374-37.564-95.179
			c-23.914-7.907-48.487-20.211-70.117-33.12c-46.213-27.552-87.41-63.111-124.376-102.252
			c-20.401-21.605-37.649-43.02-61.392-60.703c-17.052-12.699-38.678-48.282-63.094-34.926
			c-26.327,14.397-35.941,30.89-57.785,51.027c-7.984,7.361-29.224,27.99-33.529,37.789c-5.623,12.793,1.584,17.008,12.184,24.39
			c25.901,18.04,41.434,48.278,49.704,78.534c13.956,50.984,19.632,95.799,10.71,148.768
			c-9.689,57.533-39.621,109.075-52.306,165.729c-14.539,64.951,3.341,100.238,35.394,152.189
			c13.773,22.334,21.058,54.115,22.959,80.182c0.904,12.43-5.852,28.365-9.374,40.062c-2.274,7.524-10.354,24.975-4.484,32.511
			c7.399,9.505,19.62-1.019,27.474-4.425C5553.496,4691.457,5587.299,4677.703,5620.943,4663.464z"/>
		<path id="_x31_80631746" fill="none" stroke="#010101" stroke-width="64" d="M6200.513,4125.602
			c167.903-185.501,369.744-471.104,300.17-736.168c-29.239-111.429-110.376-185.834-186.147-265.774
			c-14.542-15.331-42.434-45.958-64.861-24.968c-14.813,13.868-22.997,31.84-40.989,41.505
			c-17.153,9.219-36.122,14.857-51.955,26.527c-24.321,17.913-2.296,74.882,5.358,97.795c14.154,42.354,44.248,76.672,67.6,113.958
			c33.512,53.511,101.237,110.77,87.803,180.542c-18.637,96.76-99.047,228.661-196.881,262.093
			c-20.618,7.052-42.062,6.308-59.561,21.414c-45.838,39.556-67.812,107.522-103.041,156.111
			c-67.713,93.375-93.699,183.96-43.895,295.749c13.142,29.513,31.026,51.643,63.372,33.828
			c43.214-23.787,77.304-58.229,112.481-92.023C6127.548,4200.087,6165.5,4164.285,6200.513,4125.602z"/>
		<path id="_x31_80631745" fill="none" stroke="#010101" stroke-width="64" d="M6248.771,3677.805
			c29.38-51.663,82.264-143.698,29.082-207.194c-21.625-25.815-80.067-92.073-102.632-138.358
			c-27.606-56.614-30.241-73.557-50.093-74.212c-37.395-1.224-71.908,32.289-93.267,63.016
			c-44.662,64.232-2.786,100.841-9.37,186.288c-7.176,93.143-90.4,177.553-29.085,264.885
			c73.303,104.391,212.313-17.646,252.14-88.729C6246.557,3681.701,6247.63,3679.797,6248.771,3677.805z"/>
		<path id="_x31_80631743" fill="none" stroke="#010101" stroke-width="64" d="M5822.408,3114.431
			c-12.936-15.277-35.606-28.915-53.611-36.964c-31.531-14.086-69.291-14.08-99.938,2.378
			c-28.979,15.56-45.052,44.529-59.749,72.874c-16.028,30.93-7.207,60.564-0.931,92.806c10.85,55.779,75.01,77.726,125.053,79.147
			c56.864,1.626,106.245-44.423,118.783-100.317C5860.762,3185.346,5847.803,3144.427,5822.408,3114.431z"/>
		<path id="_x31_80631732" fill="none" stroke="#010101" stroke-width="64" d="M5720.268,3342.759
			c-14.006-5.13-40.957-15.101-55.148-6.253c-10.361,6.452-13.287,19.222-18.06,29.512c-5.934,12.805-13.714,25.136-20.837,37.278
			c-19.946,33.997-45.24,64.32-71.391,93.557c-64.465,72.091-137.658,144.588-216.65,200.252
			c-63.926,45.042-171.283-8.977-201.07,27.547c-17.652,21.632-40.973,67.422-53.191,88.544
			c-5.618,9.711-10.547,19.356-14.398,29.877c-5.612,15.337-10.008,25.215,3.995,37.6c13.501,11.934,31.651,16.364,46.253,26.54
			c6.789,4.729,13.356,9.716,19.758,14.899c18.467-7.027,46.794-7.417,63.855-9.453c25.266-3.016,50.736-5.522,74.784-14.434
			c46.733-17.315,88.19-47.494,131.367-71.882c35.399-19.992,66.834-46.763,103.627-64.329
			c17.735-8.471,36.719-14.941,56.474-15.874c12.057-0.568,39.406,0.271,52.339,8.558c0.25-0.418,0.502-0.837,0.743-1.242
			c43.316-73.407,77.207-149.416,103.953-230.458c14.393-43.599,25.82-97.636,24.205-143.941
			C5749.941,3352.603,5742.177,3350.783,5720.268,3342.759z"/>
		<path id="_x31_80631733" fill="none" stroke="#010101" stroke-width="64" d="M5569.635,3746.142
			c-19.753,0.931-38.738,7.403-56.474,15.872c-36.793,17.566-68.228,44.339-103.627,64.331
			c-43.177,24.386-84.634,54.564-131.367,71.882c-24.048,8.909-49.519,11.418-74.784,14.434
			c-17.062,2.034-45.389,2.426-63.855,9.454c38.267,30.982,70.358,69.231,104.553,104.657c9.139,9.455,19.515,18.254,31.069,24.231
			c33.142,17.145,67.06-13.824,90.536-34.101c44.347-38.287,86.574-78.539,129.953-117.746
			c42.846-38.734,82.344-81.414,115.885-128.657c4.137-5.822,7.633-11.117,10.447-15.8
			C5609.041,3746.411,5581.691,3745.571,5569.635,3746.142z"/>
		<path id="_x31_80631742" fill="none" stroke="#010101" stroke-width="64" d="M5593.029,2617.154
			c3.012,57.425,3.549,123.057-16.59,177.723c-14.564,39.536-53.947,84.691-94.472,42.47c-6.921-7.205-13.01-19.089-16.303-28.523
			c-6.374-18.297-4.192-64.037,2.79-97.983c3.322-16.138,24.875-110.468,6.617-105.109c20.112-11.022,58.217-31.061,68.034-37.408
			C5583.321,2542.338,5591.436,2586.758,5593.029,2617.154z"/>
		<path id="_x31_80631736" fill="none" stroke="#010101" stroke-width="64" d="M4901.703,3767.199
			c34.718-6.325,69.469-14.98,102.861-26.501c28.213-9.731,60.632-31.5,90.863-32.269c31.384-0.79,2.559,57.565-2.766,68.472
			c-7.908,16.199-17.365,31.727-26.004,47.546c-9.805,17.942-19.51,42.438-42.504,35.488c-18.482-5.59-36.718-12.51-55.965-13.999
			c-20.021-1.533-46.223,0.437-66.229,1.024L4901.703,3767.199z"/>
		<path id="_x31_80631744" fill="none" stroke="#010101" stroke-width="64" d="M5676.219,2502.032
			c68.281-0.068,138.756-3.347,206.553-3.971c46.387-0.428,93.004-2.168,130.889,9.316c74.725,22.65,143.102,59.672,213.464,109.301
			c50.119,35.35,43.137,64.436,70.396,100.967c15.488,20.752,30.885,31.152,38.303,37.692c12.482,11.021,28.018,20.55,21.728,39.437
			c-5.007,15.006-23.186,26.586-34.882,35.856c-28.859,22.897-64.75,45.598-82.431,79.389
			c-12.817,24.493-16.859,53.235-13.574,80.625c3.261,27.222,18.349,43.678,26.91,67.414c8.156,22.617-27.204,54.436-42.284,67.704
			c-27.939,24.585-77.532,20.708-112.029,21.189c-52.474,0.737-105.188-1.508-157.604-4.467
			c-34.816-1.958-77.226-2.981-102.654-30.98c-24.232-26.709-55.48-49.904-91.592-55.838c-24.852-4.085-69.817,8.345-86.219-16.105
			c-25.535-38.088-41.576-82.772-59.35-124.95c-6.606-15.639-23.528-54.932-25.266-72.123c-1.416-14.031,4.734-27.869,10.162-40.393
			c11.98-27.666,14.854-58.457,17.078-88.258c2.302-30.919,5.332-61.608,3.493-92.668c-1.118-18.671-3.585-37.297-7.162-55.66
			C5591.496,2521.15,5635.908,2502.067,5676.219,2502.032z"/>
		<path id="_x31_80631738" fill="none" stroke="#010101" stroke-width="64" d="M4900.773,3478.639
			c54.475-28.399,105.672-83.223,123.794-142.715c12.151-39.864,5.354-122.255-44.413-139.524
			c-25.771-8.937-59.485,23.558-80.182,35.099L4900.773,3478.639z"/>
		<path id="_x31_80631729" fill="none" stroke="#010101" stroke-width="64" d="M5243.076,3037.747
			c0.361,31.611-6.312,62.814-13.742,93.331c-11.751,48.264-58.113,141.737-22.506,186.978
			c10.83,13.762,25.354,19.181,41.044,19.044c1.71-2.26,1.71-2.26,0,0c31.739-0.279,68.271-23.311,88.763-46.188
			c66.478-74.199,47.657-192.933,35.842-283.229c-3.072-23.465-7.342-47.386-8.672-71.104
			c-41.854,20.901-91.098,26.679-138.396,21.828C5231.75,2985.151,5242.736,3008.688,5243.076,3037.747z"/>
		<path id="_x31_80631728" fill="none" stroke="#010101" stroke-width="64" d="M5649.055,3046.841
			c-17.662-49.195-43.885-95.763-63.092-144.478c-13.639-34.562-15.66-49.18-29.992-48.895
			c-11.285,0.225-19.715,11.531-30.662,13.345c-12.57,2.092-25.844-1.308-36.357-8.454c-7.906-5.374-14.178-11.985-19.922-19.642
			c-5.322-7.098-7.438-16.807-12.992-23.422c-9.041,20.87-11.283,43.305-24.225,62.517c-13.271,19.71-31.11,36.533-51.061,49.207
			c-5.489,3.487-11.148,6.668-16.947,9.563c1.33,23.718,5.6,47.638,8.672,71.104c11.815,90.295,30.636,209.028-35.842,283.229
			c-20.492,22.875-57.021,45.909-88.763,46.187c-22.864,30.224-31.054,60.278-30.163,99.577
			c0.869,38.331,10.644,94.98-20.043,125.036c2.78,0.764,5.854,1.19,9.377,1.154c14.427-0.165,26.523-11.246,39.312-16.6
			c20.172-8.459,35.49-21.245,53.732-32.252c21.818-13.152,41.778-30.193,61.162-46.694
			c77.375-65.855,143.138-151.83,181.465-246.876c15.369-38.091,39.02-66.151,63.977-98.327
			C5623.428,3100.546,5660.527,3078.807,5649.055,3046.841z"/>
		<path id="_x31_80631730" fill="none" stroke="#010101" stroke-width="64" d="M5217.709,3436.677
			c-0.891-39.297,7.303-69.352,30.163-99.577c-15.689,0.136-30.212-5.283-41.042-19.044
			c-35.607-45.24,10.756-138.713,22.506-186.978c7.43-30.517,14.104-61.72,13.74-93.329c-0.338-29.059-11.324-52.596-17.666-79.342
			c-19.445-1.993-38.565-5.783-56.707-11.057c-21.203-6.165-41.337-20.258-56.917-35.82c-4.544-4.523-20.822-31.83-25.485-9.731
			c-0.902,4.278,2.666,11.507,3.586,15.667c3.175,14.379,3.887,32.267,2.432,46.977c-4.164,42.303-19.077,82.879-41.188,118.871
			c-16.354,26.626-42.098,49.94-54.447,78.655c-7.67,17.852,6.881,28.944,17.325,40.844c22.042,25.124,29.691,57.679,29.343,90.395
			c-0.311,28.926-8.478,63.375-21.154,89.341c-6.586,13.484-16.507,23.824-3.852,35.854c15.523,14.751,33.675,27.577,50.342,41.033
			c34.074,27.497,64.656,61.604,101.768,84.932c10.265,6.447,16.552,14.417,27.213,17.348
			C5228.353,3531.659,5218.578,3475.008,5217.709,3436.677z"/>
		<path id="_x31_80631727" fill="none" stroke="#010101" stroke-width="64" d="M5277.887,4482.205
			c23.346,10.779,62.143,20.764,81.07,20.066c62.526-2.313,71.824-84.451,55.661-129.692
			c-16.245-45.481-70.443-146.864-116.118-166.341c-28.73-12.23-131.008,52.042-139.015,80.367
			c-11.532,40.799,33.898,120.509,56.57,151.924C5229.307,4456.887,5249.52,4469.114,5277.887,4482.205z"/>
		<path id="_x31_80631739" fill="none" stroke="#010101" stroke-width="64" d="M4899.26,2865.238
			c8.477-12.624,17.629-16.543,35.923-22.688c34.614-11.623,66.119-5.687,96.936,13.762c21.218,13.386,34.252,38.138,43.812,61.262
			c10.711,25.913,8.098,54.096,0.245,80.371c-17.39,58.166-53.995,114.042-96.59,156.486
			c-23.866,23.784-51.198,45.567-79.264,64.086L4899.26,2865.238z"/>
		<path id="_x31_80631734" fill="none" stroke="#010101" stroke-width="64" d="M4902.99,4165.385
			c47.849-3.971,93.771,9.139,136.747,30.793c32.452,16.358,57.204,34.533,78.895,63.87c30.87,41.769,32.566,95.344,54.311,141.719
			c21.195,45.196,44.771,70.749,88.782,93.05c50.186,25.431,128.186,12.314,176.036,39.166
			c42.304,23.738,58.086,75.227,54.063,121.111c-2.144,24.574-12.775,47.09-30.445,63.932c-20.899,19.927-49.209,27.719-76,35.959
			c-30.537,9.393-61.239,18.045-92.634,24.092c-105.435,20.297-244.521-33.536-331.253,50.273
			c-19.119,18.47-33.604,41.552-56.192,52.399L4902.99,4165.385z"/>
		<path id="_x31_80631735" fill="none" stroke="#010101" stroke-width="64" d="M4902.951,4152.801
			c129.428-0.117,146.473,43.969,226.297,79.178c53.666,23.662,125.569-22.934,150.379-79.529
			c28.577-65.197-19.7-89.243-55.723-134.062c-73.584-91.563-201.458-169.431-321.906-160.102L4902.951,4152.801z"/>
		<path id="_x31_80631737" fill="none" stroke="#010101" stroke-width="64" d="M4900.808,3490.778
			c16.505-10.481,37.087-20.087,51.524-32.999c12.689-11.355,39.389-40.432,57.59-28.249c31.299,20.944,59.376,45.896,88.59,69.615
			c15.857,12.87,31.007,26.313,45.709,40.228c19.371,18.332,40.367,23.205,37.363,64.41c-3.58,49.089,0.301,93.139-37.098,89.396
			c-27.989-2.796-98.234,11.628-122.695,23.562c-34.15,16.655-70.303,29.444-120.133,37.045L4900.808,3490.778z"/>
		<path id="_x31_80631731" fill="none" stroke="#010101" stroke-width="64" d="M5208.987,3598.729
			c-17.423,14.425-7.849,60.576,10.202,71.729c18.031,11.147,41.246,25.547,56.152,23.858
			c134.551-15.23,249.463-173.455,326.782-276.277c19.565-26.021,41.185-60.718,38.688-95.272
			c-1.701-23.407-19.757-25.396-30.555-43.863c-8.052-13.758-11.976-30.713-16.774-45.858c-3.905-12.37,3.631-69.416-20.49-46.266
			c-12.955,12.434-16.463,32.82-22.588,48.833c-40.357,105.476-113.724,191.559-202.211,259.203
			c-24.83,18.972-48.879,38.979-74.195,57.292C5256.275,3564.921,5234.626,3577.487,5208.987,3598.729z"/>
		<path id="_x31_80631747" fill="none" stroke="#010101" stroke-width="64" d="M5979.661,4523.717
			c-23.929,8.492-61.815,32.418-84.313,10.816c-32.217-30.95-9.688-80.656,17.039-105.719
			c109.234-102.443,217.635-201.428,309.767-303.234c167.901-185.496,369.739-471.104,300.177-736.168
			c-29.887-113.854-122.213-199.276-202.086-279.556c-51.98-52.267-110.736-131.278-57.479-204.225
			c28.687-39.277,76.132-79.263,124.778-88.586c17.599-3.371,31.437,16.695,39.368,29.772
			c34.61,57.078,63.65,132.406,115.764,175.069c22.656,18.549,38.631,43.596,59.283,64.273
			c13.677,13.698,31.016,24.101,45.279,37.387c29.697,27.672,58.773,55.077,84.312,87.031
			c42.754,53.501,83.433,116.749,92.173,186.642c10.002,79.988-29.566,164.497-61.778,234.66
			c-48.729,106.148-107.337,269.73-235.934,427.102c-41.702,51.02-92.426,101.93-136.107,148.441
			c-51.652,55.012-87.143,114.41-145.272,166.273C6151.426,4456.855,6098.73,4481.457,5979.661,4523.717z"/>
		<path id="_x31_80631741" fill="none" stroke="#010101" stroke-width="64" d="M5108.861,2874.666
			c-28.319,20.945-51.253-7.501-72.467-24.077c-5.963-4.646-38.295-20.884-56.704-20.658c-0.692-0.003-8.155-13.5-9.635-38.859
			c-1.646-28.191,2.267-51.846,4.479-59.004c5.778-18.656,21.452-78.677,55.672-127.015c31.592-44.609,81.679-81.726,135.876-83.666
			c2.494-0.093,5.221,3.924,5.537,6.055c0.439,2.979-3.211,5.137-3.767,8.103c1.882,34.41,51.948,61.906,60.131,95.286
			c7.583,30.947,8.844,62.933,7.894,94.636c-0.636,21.44,8.552,38.333-12.717,51.518c-26.702,16.543-53.389,33.311-76.373,55.161
			C5134.568,2843.758,5123.693,2863.704,5108.861,2874.666z"/>
		<path id="_x31_80631740" fill="none" stroke="#010101" stroke-width="64" d="M5388.689,2902.54
			c-19.123,29.561-65.512,38.831-97.156,43.786c-22.578,3.539-47.951,4.027-70.764,2.167c-28.179-2.288-127.154-26.03-99.074-72.682
			c13.023-21.618,31.619-41.001,51.461-56.236c17.734-13.621,40.715-34.489,64.174-35.894c14.816-0.892,30.084,36.58,37.097,47.224
			C5299.799,2869.384,5353.398,2905.163,5388.689,2902.54z"/>
		<path id="_x31_80631711" fill="none" stroke="#010101" stroke-width="64" d="M6426.652,5021.77
			c-24.523-16.711-92.829-37.522-108.607-54.705c-24.283-26.452-24.729-56.932-10.331-109.49
			c8.555-31.23,23.171-96.587,34.995-142.736c-4.979-1.121-19.021-3.705-30.949-8.952c-42.092-18.524-89.87-34.229-114.386-102.359
			c-27.157-75.469,40.028-181.888,68.284-231.11c6.504-11.336-23.603,24.245-28.57,28.344c-96.342,79.42-130.6,96.816-249.66,139.08
			c-150.842,53.547-257.426,97.387-412.371,163.61c-126.183,53.921-162.663,63.729-256.432,92.746
			c-68.602,21.233-147.258-0.62-218.433,2.923c-67.925,3.371-94.218,23.406-142.241,66.465c-16.4,14.711-30.14,31.012-52.57,39.609
			l0.119,29.064c65.83,4.896,25.395,106.999,22.885,149.271c-4.014,67.476-2.642,133.715-3.047,201.45
			c-0.812,137.225-12.707,273.988-2.383,411.027c3.193,42.169,52.564,192.729-13.528,191.826l1.71,415.312
			c84.604,3.701,179.008,4.634,273.395-2.773c109.546-8.607,218.54-22.256,312.164-53.157
			c95.615-31.548,163.049-94.454,237.966-155.56c-32.737,26.232-58.999,48.615-58.994,48.611c4.571-3.996-1.432-17.924-1.626-22.906
			c-0.311-7.961,0.148-15.77,1.16-23.479c1.914-14.551,5.818-28.728,10.283-42.819c5.527-17.417,12.361-34.354,20.49-50.692
			c15.193-30.537,34.133-59.211,53.489-87.184c37.827-54.665,83.636-101.107,130.938-147.346
			c29.756-29.082,60.265-57.324,90.344-86.075c81.994-78.405,243.24-299.149,388.098-226.918
			c73.688,36.745,13.238,158.956,3.174,210.193c0,0-23.541,48.099-34.654,74.286c-2.277,5.37-5.675,10.963-9.968,16.701
			c14.419-14.552,29.409-30.616,41.186-45.059c28.535-42.812,31.032-50.416,34.696-62.961
			c12.261-62.938,22.712-113.48,15.434-190.066c-3.77-39.586-14.967-95.763-19.258-173.672
			c-8.344-151.629,7.051-178.579,22.688-218.045C6429.323,5046.121,6434.111,5026.857,6426.652,5021.77z"/>
		<path id="_x31_80631714" fill="none" stroke="#010101" stroke-width="64" d="M6368.577,5708.971
			c28.537-42.811,31.032-50.414,34.698-62.96c9.502-48.774,15.855-100.458,16.965-150.424c0.494-21.961-14.425-38.373-51.369-42.721
			c73.646,36.763,13.207,158.945,3.143,210.174c0,0-23.537,48.099-34.653,74.286c-1.935,4.555-5.037,8.341-7.518,12.592
			c7.446-4.281,13.817-13.246,19.957-19.322C6356.587,5723.882,6363.262,5716.955,6368.577,5708.971z"/>
		<path id="_x31_80631717" fill="none" stroke="#010101" stroke-width="64" d="M5223.1,4891.037
			c-40.371-24.279-83.215-51.17-107.643-92.384c-5.088,0.065-10.178,0.215-15.267,0.462c-67.923,3.373-94.216,23.41-142.241,66.467
			c-19.824,17.777-48.227,33.947-54.49,61.898l4.508,5.668c148.305-33.555,87.906,77.447,78.465,180.532l-1.389,15.987
			c25.336-21.507,52.078-43.058,76.019-61.753c19.858-15.51,40.536-30.319,62.124-43.52
			C5116.913,4974.07,5163.146,4896.855,5223.1,4891.037z"/>
		<path id="_x31_80631722" fill="none" stroke="#010101" stroke-width="64" d="M4907.967,4933.148v1.355
			c62.316,7.27,22.891,107.295,20.418,149.024c-2.063,34.651-2.699,68.977-2.893,103.345c20.74-18.028,40.214-39.439,59.523-56.926
			l1.412-16.267C4995.873,5010.596,5056.271,4899.594,4907.967,4933.148z"/>
		<path id="_x31_80631723" fill="none" stroke="#010101" stroke-width="64" d="M4985.016,5129.947
			c-19.308,17.486-38.781,38.897-59.52,56.926c-0.184,32.559,0.038,65.156-0.16,98.108c-0.812,137.222-12.709,273.988-2.381,411.024
			c0.999,13.197,5.629,33.57,10.875,59.685c3.953,19.658,6.873,44.907,9.359,64.243c1.432,11.168,1.164,23.669-0.807,33.076
			c-0.699,3.334-1.073,7.037-1.992,9.434c-0.443,1.15-0.684,1.961-0.877,2.838c-0.084,0.391-0.733,0.552-0.412,1.167
			c5.324,10.167,6.262,11.752,11.077,22.735l9.388,24.963c8.366,21.636,3.597,9.619,8.366,21.636
			c3.999,10.071,14.702-15.551,17.429-23.764c6.803-20.47,3.224-46.28,2.729-67.425c-2.887-123.729-5.23-244.676-6.162-368.603
			c-0.836-110.177,7.021-231.484,2.697-341.54L4985.016,5129.947z"/>
		<path id="_x31_80631712" fill="none" stroke="#010101" stroke-width="64" d="M5180.607,6111.246
			c-22.029-19.637-46.506-36.342-71.686-51.508c-46.241-27.84-99.472-54.801-129.43-102.057
			c-18.271-28.8-23.789-63.381-40.379-91.266c-4.92,13.549-14.311,21.895-30.426,21.406l2.445,415.326
			c83.157,3.63,173.099,11.59,253.874-12.259C5270.598,6259.696,5250.337,6173.441,5180.607,6111.246z"/>
		<path id="_x31_80631716" fill="none" stroke="#010101" stroke-width="64" d="M5385.466,5353.207
			c4.786-14.777,8.13-29.562,9.857-43.934c8.056-66.693,34.912-273.67-80.846-302.252c-71.095-17.551-145.437,28.643-194.944,74.072
			c-43.375,39.812-53.56,101.77-54.741,157.551c-2.118,100.469-26.288,274.044,113.009,280.772
			C5267.539,5523.75,5355.592,5445.504,5385.466,5353.207z"/>
		<path id="_x31_80631719" fill="none" stroke="#010101" stroke-width="64" d="M5545.832,4867.1
			c-53.636-13.789-101.243-21.831-159.631-33.834c-59.527-12.236-86.48-26.922-146.558-26.632c-22.71,0.11-45.391-4.838-68.061-6.22
			c-18.686-1.127-37.405-2.008-56.126-1.761c24.428,41.214,67.27,68.104,107.643,92.388c2.353-0.23,4.727-0.359,7.121-0.361
			l11.168,5.839c21.078,12.578,41.02,23.251,56.479,30.824l0.922,0.254c29.049-12.673,59.897-21.804,91.302-19.812
			c70.421,4.478,138.513,43.578,203.134,68.562c25.204,9.75,103.929,55.499,108.744,2.627
			C5707.469,4918.715,5592.826,4879.18,5545.832,4867.1z"/>
		<path id="_x31_80631718" fill="none" stroke="#010101" stroke-width="64" d="M5241.389,4896.519l-11.168-5.841
			c-2.395,0.002-4.766,0.133-7.121,0.359c3.85,2.316,7.682,4.614,11.472,6.893c-3.79-2.278-7.62-4.578-11.472-6.893
			c-59.953,5.818-106.187,83.033-99.916,133.358c12.795-7.823,25.906-15.078,39.358-21.575
			c30.252-14.605,63.028-37.906,92.549-53.638c13.964-7.446,28.588-14.995,43.698-21.586l-0.922-0.256
			C5282.411,4919.77,5262.467,4909.097,5241.389,4896.519z"/>
		<path id="_x31_80631715" fill="none" stroke="#010101" stroke-width="64" d="M5323.26,5893.943
			c27.753-40.176,29.162-112.323,24.59-151.904c-11.374-98.577-117.355-170.615-199.771-92.887
			c-43.531,41.045-81.607,108.091-52.258,168.816c18.194,37.646,51.319,67.24,89.82,82.187
			c31.11,12.081,81.037,32.602,113.047,16.177C5308.557,5911.267,5316.658,5903.506,5323.26,5893.943z"/>
		<path id="_x31_80631713" fill="none" stroke="#010101" stroke-width="64" d="M6430.41,5029.258
			c1.705-18.741-80.484-32.02-112.365-62.193c-40.963-38.783-6.973-114.149-2.311-137.816c3.776-19.157,8.305-39.762,13.476-61.33
			l5.153-5.645l-163.295-147.531l1.185,2.211c-25.81,14.395-46.962,27.973-76.235,44.4
			c-102.979,57.78-197.826,128.371-300.268,187.43c-23.17,13.357-45.766,23.142-68.149,29.188l0.45,1.634
			c-6.571,23.879-25.796,43.248-35.582,66.572l0.297-0.203c6.742,10.172,10.281,21.188,9.203,33
			c-4.815,52.87-83.538,7.121-108.744-2.627c-64.621-24.986-132.713-64.085-203.134-68.562c-12.235-0.776-24.386,0.135-36.38,2.287
			l-13.321,3.601c-47.12,19.786-49.396,54.981-17.828,91.444l26.935,16.117l23.852,23.481c9.338,14.187,15.885,36.003,21.203,57.89
			c17.525,72.111,5.529,171.173-8.358,254.844c-3.356,20.188-16.946,36.674-28.214,52.42
			c-10.859,15.174-23.816,30.684-38.365,45.123l-9.63,5.031c-16.355,35.705-51.744,54.825-67.104,89.471
			c-17.146,38.684,38.287,57.504,48.908,93.808l5.195,0.177c28.136,25.201,47.557,64.168,50.424,106.099
			c2.313,33.791,2.375,75.234-9.355,111.81l-8.704,17.975c5.04,40.229-44.731,62.063-17.859,102.332
			c19.673,29.479,75.989,28.285,108.612,28.419l9.197-11.341c64.386-30.818,122.512-76.399,164.219-134.645
			c45.435-63.442,81.734-137.584,149.342-181.292c32.645-21.103,78.552-13.649,106.611,11.231l0.197-0.223
			c24.734,20.432,104.127,3.324,126.492-12.18l15.032-12.192c84.702-85.663,238.718-285.905,377.653-216.625
			c0.013,0.005,0.021,0.011,0.031,0.02c36.943,4.35,51.859,20.76,51.365,42.721c-0.089,4.099-0.229,8.21-0.391,12.329l1.239,1.186
			c0.146-16.492-0.562-34.012-2.382-53.158c-3.768-39.588-14.967-95.761-19.256-173.672c-1.463-26.522-4.625-89.013,1.404-143.481
			C6407.011,5083.189,6426.728,5069.78,6430.41,5029.258z"/>
		<path id="_x31_80631721" fill="none" stroke="#010101" stroke-width="64" d="M5750.308,5924.662
			c19.491-30.599,42.179-58.836,66.217-85.879c23.576-26.519,55.575-48.792,57.764-87.343
			c3.677-64.524-80.209-101.715-131.431-68.607c-67.609,43.708-103.91,117.847-149.342,181.29
			c-49.619,69.296-122.472,120.66-201.459,150.574c-47.807,18.098-101.643,28.568-152.811,29.666
			c-15.793,0.334-59.531-6.443-63.582,9.32c-3.9,15.201,14.564,42.725,25.23,52.229c69.717,62.197,89.218,163.266-16.365,194.459
			c109.543-8.605,218.537-22.256,312.164-53.157c70.124-23.132,125.085-63.134,178.964-106.924
			C5664.791,6059.806,5708.872,5989.726,5750.308,5924.662z"/>
		<path id="_x31_80631720" fill="none" stroke="#010101" stroke-width="64" d="M5575.055,4703.45
			c-22.59,9.653-45.291,19.029-67.998,28.388c-28.897,11.909-58.375,22.482-87.838,32.873c-12.931,4.555-26.207,8.88-39.275,13.021
			c-8.074,2.553-39.235,5.745-31.8,22.476c4.724,10.62,18.845,12.994,27.892,17.942c11.896,6.494,22.558,8.039,36.09,8.713
			c27.651,1.381,53.953,2.684,81.467,7.459c22.646,3.932,46.249,5.959,66.166,17.365c81.71,46.777,155.396,43.555,235.992-2.906
			c102.441-59.057,197.288-129.649,300.268-187.428c38.152-21.41,62.508-37.977,101.356-57.827
			c-27.155-75.469,40.028-181.888,68.286-231.11c6.502-11.336-23.603,24.245-28.57,28.344
			c-96.342,79.42-130.602,96.816-249.662,139.08C5836.586,4593.387,5729.999,4637.227,5575.055,4703.45z"/>
		<path id="_x31_80631837" fill="none" stroke="#010101" stroke-width="64" d="M5675.199,6093.881
			c1.914-14.551,5.818-28.727,10.283-42.819c5.525-17.416,12.358-34.354,20.49-50.692c15.193-30.537,34.131-59.211,53.488-87.184
			c37.828-54.665,83.637-101.107,130.939-147.346c29.755-29.082,60.265-57.324,90.344-86.075
			c81.994-78.405,243.238-299.149,388.098-226.918c73.688,36.745,13.236,158.959,3.172,210.193c0,0-23.537,48.099-34.653,74.286
			c-19.862,46.806-123.595,110.132-181.481,146.087c-77.12,47.899-268.849,106.067-318.61,133.795
			c-49.765,27.731-161.612,123.065-161.604,123.058c4.57-3.998-1.433-17.926-1.626-22.906
			C5673.729,6109.398,5674.189,6101.59,5675.199,6093.881z"/>
		<path id="_x31_80631838" fill="none" stroke="#010101" stroke-width="64" d="M5793.885,5318.709
			c-65.654,193.329-262.283-98.191-102.092-144.56C5759.711,5154.49,5822.656,5233.998,5793.885,5318.709z"/>
		<path id="_x31_80631839" fill="none" stroke="#010101" stroke-width="64" d="M7035.542,5088.278
			c31.945,49.368,70.402,12.259,56.51-34.439c-4.614-15.485-56.908-84.911-74.752-48.19
			C7010.506,5019.648,7027.529,5075.906,7035.542,5088.278z"/>
		<path id="_x31_80631840" fill="none" stroke="#010101" stroke-width="64" d="M5479.898,4256.942
			c-5.357,16.477-14.211,30.979-29.096,39.891c-98.35,58.925-199.828-228.125-74.039-273.467
			c94.049-33.886,113.922,109.978,111.908,166.515C5487.954,4210.215,5486.936,4235.287,5479.898,4256.942z"/>
		<path id="_x31_80631841" fill="none" stroke="#010101" stroke-width="64" d="M5227.983,2630.829
			c8.62,35.2,9.053,71.953,7.824,108.549c-0.851,25.487,17.201,59.042,38.619,91.528c25.372,38.478,78.974,74.257,114.263,71.636
			c75.102-5.586,68.51-137.132,79.766-191.702c10.121-49.093,21.135-112.351,5.268-104.784
			c-29.26,13.96-36.254,17.025-52.278,19.875c-49.224,8.741-82.251-0.869-131.88-27.254c-14.707-7.817-46.119-24.397-70.234-41.468
			c-27.84-19.716-48.619-36.799-51.476-21.662C5169.736,2569.955,5219.803,2597.451,5227.983,2630.829z"/>
		<path id="_x31_80631842" fill="none" stroke="#010101" stroke-width="64" d="M6635.754,3052.103
			c62.32,2.454,127.518-36.365,154.016-58.736c79.255-66.888,47.543-170.281,182.8-182.151
			c119.794-10.407,131.625,189.225,141.547,270.313c40.939,334.763-60.261,513.218-94.723,585.982
			c-74.797,157.916-133.893,306.562-268.915,508.605c-47.123,70.531-98.57,121.657-215.236,267.774
			c-65.744,82.316-49.016,83.702-19.664,88.112c149.627,22.518,112.568,125.768-6.939,166.146
			c-71.727,24.24-135.957,30.201-196.879,7.737c-82.518-30.425-123.582-79.267-120.141-153.431
			c4.656-100.697,146.056-296.9,243-392.098c171.406-168.295,280.553-395.203,364.383-625.43
			c46.476-127.617,47.574-226.848-156.514-415.891c-34.316-31.791-54.621-42.042-85.008-82.99
			C6550.181,3020.155,6564.135,3049.28,6635.754,3052.103z"/>
		<path id="_x31_80631843" fill="none" stroke="#010101" stroke-width="64" d="M6624.597,2784.957
			c59.983-18.713,179.808,31.224,189.45,105.229c4.41,33.78,4.51,61.995-8.131,83.403c-21.285,35.993-58.878,52.002-122.049,73.146
			c-39.715,13.289-104.104,4.585-132.96-22.568c-90.884-85.522-80.72-103.759-120.188-170.747
			c-8.109-13.754-41.361-56.54-12.932-48.129C6470.928,2821.009,6527.488,2815.254,6624.597,2784.957z"/>
		<path id="_x31_80631844" fill="none" stroke="#010101" stroke-width="64" d="M8168.35,3699.439
			c-0.414-11.48-1.121-22.881-2.055-34.358c-0.471-5.968-1.012-11.856-1.631-17.824c-0.002-0.376-0.074-0.678-0.078-1.056
			c-0.074-0.607-0.152-1.132-0.227-1.736c-3.168-30.204-8.273-60.254-14.352-89.93c-2.734-13.513-16.691-74.44-30.619-127.066
			c-0.074-0.451-0.229-0.903-0.379-1.356c-11.34-38.049-23.869-74.891-36.992-109.391c-0.602-1.661-1.281-3.322-1.959-4.982
			c-65.834-171.589-171.17-349.785-271.932-501.405c-108.277-162.789-211.295-294.849-254.787-355.221
			c-19.902-27.621-204.558-223.414-390.861-374.425c-65.601-53.179-131.405-100.769-190.287-133.563
			c-190.57-105.923-376.506-189.346-573.813-274.571c-21.79-9.419-43.806-18.914-65.894-28.407
			c-102.734-44.083-223.975-77.575-338.685-101.33c-40.632-8.42-84.847-15.401-130.103-21.098
			c-45.634-5.772-92.156-10.336-136.736-13.919c-50.486-4.029-96.788-9.122-137.242-9.386c-22.136-0.206-42.545,0.946-60.928,4.512
			c-18.162,3.492-33.167,10.301-46.522,19.451c-43.497,29.795-69.495,84.117-127.448,129.254
			c-32.822,25.48-67.951,51.718-99.436,74.251c-46.105,32.967-84.458,58.15-96.41,62.165c-9.262,3.104-19.723,5.757-30.855,8.11
			c-58.885,12.212-138.516,13.949-187.718,13.391c-26.472-0.201-44.122-1.092-45.021-1.393l0.713,220.887
			c22.726-2.363,50.521-9.111,105.695-10.975c306.024-10.178,572.749-381.746,890.018-219.078
			c114.601,58.796,155.712,170.449,95.683,291.936c-46.878,94.816-121.095,151.676-247.336,214.852
			c-98.171,49.027-163.902,70.838-194.389,77.435c-21.37,4.626-38.306,17.254,3.856,36.471
			c27.483,12.586,68.657,73.564,126.562,82.346c28.279,4.278,62.581-1.644,88.826-1.971c19.29-0.245,41.348-0.643,61.09-0.964
			c77.389-1.281,131.947-8.581,187.561,8.282c74.701,22.662,147.501,59.446,216.236,111.337
			c59.969,45.254,51.498,85.966,79.699,111.54c42.146,38.247,73.761,79.903,146.377,82.63
			c147.549,5.45,277.207-65.432,70.184-426.059c-66.398-115.707-213.438-102.05-315.324-207.98
			c-108.266-112.646-78.034-430.375-180.869-435.942c26.142-9.464,168.64,29.37,224.472,45.099
			c246.983,69.623,382.21,148.94,519.876,196.311c54.275,20.716,112.736,39.088,204.494,88.088
			c132.986,81.057,200.382,111.124,324.164,235.688c103.975,104.568,185.378,188.77,247.596,260.301
			c142.604,163.814,210.051,255.807,330.42,435.802c80.773,120.752,97.428,137.503,144.703,235.856
			c11.141,23.098,21.617,48.009,31.496,74.204c29.566,78.508,53.035,168.05,68.037,251.637
			c34.266,191.178-6.848,357.201-34.016,442.258c-0.666,1.965-1.334,4.001-1.926,5.893
			c-36.801,112.556-132.172,241.174-202.08,336.243c-30.672,41.637-59.812,71.869-89.553,101.048
			c-38.24,37.491-77.307,73.247-121.615,129.325c-93.016,117.74-159.481,213.484-190.853,340.004
			c-30.63,123.5-19.898,183.299,4.54,224.811c12.482,21.135,14.869-26.445,12.805-86.855
			c-3.465-100.889,48.382-207.568,99.959-305.938c72.98-139.397,161.152-251.547,211.869-291.469
			c3.357-2.647,6.564-4.99,9.625-7.031c115.205-76.381,51.051,272.041,22.996,382.85c-31.898,125.993-77.468,231.533-86.336,264.77
			c-10.047,37.541-28.561,116.097-18.748,121.598c9.007-12.616,20.338-23.578,30.395-35.291
			c15.544-25.695,36.791-68.908,60.268-139.388c0.963-2.87,1.924-5.74,2.887-8.687c1.408-4.229,2.74-8.535,4.146-12.992
			c7.256-22.89,14.65-48.347,22.184-76.672c1.48-5.665,2.955-11.405,4.506-17.299c0.812-3.248,1.627-6.496,2.438-9.744
			c2.141-8.459,4.281-17.219,6.422-26.131c0.369-1.438,0.736-2.873,1.031-4.383c1.99-8.611,4.057-17.448,6.123-26.514
			c1.326-5.892,2.654-11.859,3.977-17.901c2.287-10.346,4.494-20.922,6.777-31.798c1.326-6.195,2.578-12.539,3.902-18.962
			c1.027-5.437,2.133-11.027,3.236-16.618c0.295-1.357,0.59-2.715,0.811-4.076c1.617-8.534,3.311-17.141,4.924-25.982
			c1.693-8.761,3.309-17.748,4.926-26.887c16.672-93.202,27.518-207.699,64.338-338c6.652-23.418,16.27-55.295,26.43-81.963
			c0.223-0.528,0.369-1.055,0.594-1.51c11.854-33.54,25.201-68.141,38.994-104.099c5.635-14.659,11.346-29.541,17.129-44.647
			c2.521-6.803,5.117-13.597,7.709-20.471c2.818-7.328,5.561-14.809,8.381-22.361c2.74-7.482,5.559-15.038,8.299-22.666
			c2.742-7.557,5.561-15.261,8.227-22.962c2.742-7.708,5.484-15.489,8.152-23.345c2.738-7.857,5.406-15.713,7.996-23.718
			c0.15-0.53,0.299-0.981,0.52-1.513c0.295-0.981,0.59-1.966,0.887-2.946c4.816-14.428,9.479-29.081,13.916-44.038
			c2.293-7.554,4.514-15.109,6.732-22.738c4.586-15.863,8.943-31.952,13.078-48.34c1.184-4.457,2.293-8.916,3.322-13.449
			c0.961-3.775,1.92-7.554,2.803-11.405c0.887-3.851,1.771-7.78,2.654-11.708c0.887-3.624,1.697-7.325,2.436-10.952
			c1.107-4.907,2.135-9.894,3.166-14.88c1.473-7.025,2.947-14.125,4.27-21.298c1.102-5.815,2.057-11.635,2.932-17.524
			c1.318-9.139,2.41-18.429,3.201-27.944c0.074-0.302,0.072-0.528,0.072-0.757c1.508-19.333,1.967-39.345,1.529-59.886
			C8168.594,3705.855,8168.51,3702.684,8168.35,3699.439z"/>
		<path id="_x31_80631834" fill="none" stroke="#010101" stroke-width="64" d="M6455.955,2812.873
			c43.631,2.307,93.885-4.594,168.642-27.916c38.708-12.081,100.587,3.881,143.438,36.997
			c-16.686-32.241-25.4-70.766-42.105-112.129c-37.484-92.819-62.508-144.147-73.882-203.987
			c-7.29-38.389-8.661-80.352-5.125-138.761c2.946-48.559,24.899-104.803,35.983-146.348
			c10.943-41.042,29.541-114.248,0.385-169.917c-3.678-7.023-17.734-25.955-32.855-44.335
			c-10.188-12.384-22.719-21.709-27.225-36.789c-16.067-53.79-31.699-55.059-39.617-63.178
			c-87.904-37.618-190.744-79.513-329.162-118.533c-55.802-15.732-198.328-54.565-224.468-45.104
			c102.833,5.568,72.599,323.354,180.862,435.946c101.92,105.986,248.932,92.274,315.365,208.003
			C6733.173,2747.458,6603.516,2818.333,6455.955,2812.873z"/>
		<path id="_x31_80631835" fill="none" stroke="#010101" stroke-width="64" d="M4908.545,5887.818
			c67.416,2.26,17.615-149.457,14.41-191.812c-10.326-137.036,1.57-273.803,2.381-411.027c0.405-67.735-0.965-133.975,3.049-201.45
			c2.508-42.272,42.949-144.394-22.904-149.272L4908.545,5887.818z"/>
		<path id="_x31_80631836" fill="none" stroke="#010101" stroke-width="64" d="M4899.26,2865.238
			c8.477-12.624,17.629-16.543,35.91-22.689c15.72-5.278,33.535-6.564,46.713-8.539c-0.455-0.263-10.346-17.452-11.827-42.939
			c-1.644-28.189,2.267-51.844,4.48-59.002c5.778-18.657,21.453-78.677,55.672-127.015c31.592-44.609,81.677-81.726,135.884-83.667
			c-17.826-19.807-47.135-44.904-69.334-66.492c-39.002-37.935-78.073-75.1-118.445-111.578
			c-53.045-47.916-41.314-92.708-81.671-144.281L4899.26,2865.238z"/>
	</g>
</g>
</svg>
