<svg width="5488" height="5312" xmlns="http://www.w3.org/2000/svg">
<g transform="scale(1.0)">
<g id="180609405" order="1" parent_id="" graphic_group_label_id="28" graphic_group_label="Atlas - Adult Mouse" sub_image_id="100960432" transform=" scale(1.0, 1.0)"><path id="180609407" parent_id="180609405" order="0" structure_id="8" d="M3313.392,873.564
			c38.169-8.94,77.107-15.062,114.254-21.293c160.523-26.933,321.252-22.354,480.082,14.558
			c431.097,100.186,805.313,300.92,902.959,768.072c29.819,142.608,44.703,330.701-39.479,458.322
			c-76.053,115.284-254.637,178.576-378.404,95.651c-115.039-77.077-192.599-200.25-301.29-285.383
			c-168.561-132.021-436.613-86.877-633.081-67.023c-78.035,7.889-162.613,26.804-238.288-3.253
			c-149.964-59.554-202.252-253.083-188.9-399.459C3050.333,1224.5,3069.709,930.626,3313.392,873.564z" style="stroke:black;fill:#bfdae3"/><path id="180609408" parent_id="180609405" order="1" structure_id="8" d="M4543.769,2724.203
			c19.683,73.859,32.182,151.314,27.23,225.64c-32.149,482.478-227.714,898.241-544.789,1258.715
			c-122.501,139.268-247.806,293.055-421.771,367.885c-237.055,101.976-525.122-20.339-677.598-208.781
			c-123.716-152.914-114.987-367.992-98.05-553.529c4.57-50.035,1.38-99.325,8.863-149.098
			c8.824-58.613,6.001-114.266,9.073-174.581c8.509-167.355,23.47-345.596,39.12-513.272c10.8-115.566,34.417-231.081,73.34-340.527
			c41.606-116.962,86.127-247.639,168.756-343.147c78.763-91.036,228.204-132.611,340.806-163.824
			c174.655-48.409,364.294-28.284,536.983,17.23c106.575,28.096,232.635,71.468,291.256,172.795
			c21.441,37.049,16.57,77.104,35.521,114.692c28.025,55.571,82.285,79.673,127.031,118.813
			C4518.1,2604.446,4524.815,2653.106,4543.769,2724.203z" style="stroke:black;fill:#bfdae3"/><path id="180609409" parent_id="180609405" order="2" structure_id="688" d="M4543.769,2724.203
			c-18.953-71.097-25.669-119.757-84.228-170.989c-44.746-39.141-99.006-63.242-127.031-118.813
			c-18.951-37.588-14.08-77.644-35.521-114.692c-58.621-101.327-184.681-144.699-291.256-172.795
			c-172.689-45.515-362.328-65.64-536.983-17.23c-112.602,31.212-262.043,72.788-340.806,163.824
			c-82.629,95.508-127.149,226.185-168.756,343.147c-38.923,109.446-62.54,224.961-73.34,340.527
			c-15.65,167.677-30.611,345.917-39.12,513.272c-3.072,60.315-0.249,115.968-9.073,174.581
			c-7.483,49.772-4.293,99.063-8.863,149.098c-16.938,185.537-25.666,400.615,98.05,553.529
			c152.476,188.442,440.543,310.757,677.598,208.781c173.966-74.83,299.271-228.617,421.771-367.885
			c317.075-360.474,512.639-776.237,544.789-1258.715C4575.95,2875.518,4563.451,2798.063,4543.769,2724.203z M3816.808,3127.909
			c-10.293,31.649-30.65,60.948-46.35,90.044c-18.102,33.528-27.793,70.741-40.358,106.494
			c-8.207,23.365-28.687,84.451-54.305,37.501c-12.972-23.767-12.663-57.664-15.203-83.871
			c-3.353-34.721-5.35-68.695-12.119-102.118c-3.093-15.265-7.184-30.411-12.866-45.469c-7.249-19.201-29.847-54.596-11.186-71.914
			c18.102-16.782,69.329,7.306,87.886,13.089C3744.524,3081.719,3831.281,3083.387,3816.808,3127.909z" style="stroke:black;fill:#b0ffb8"/><path id="180609410" parent_id="180609405" order="3" structure_id="688" d="M3313.392,873.564
			c38.169-8.94,77.107-15.062,114.254-21.293c160.523-26.933,321.252-22.354,480.082,14.558
			c431.097,100.186,805.313,300.92,902.959,768.072c29.819,142.608,44.703,330.701-39.479,458.322
			c-76.053,115.284-254.637,178.576-378.404,95.651c-115.039-77.077-192.599-200.25-301.29-285.383
			c-168.561-132.021-436.613-86.877-633.081-67.023c-78.035,7.889-162.613,26.804-238.288-3.253
			c-149.964-59.554-202.252-253.083-188.9-399.459C3050.333,1224.5,3069.709,930.626,3313.392,873.564z" style="stroke:black;fill:#b0ffb8"/><path id="180609426" parent_id="180609405" order="4" structure_id="68" d="M4098.363,1603.638
			c130.34,12.922,191.644-86.393,135.075-216.612c-88.938-204.479-282.36-260.168-481.376-292.326
			c-96.83-15.648-422.114-86.361-462.752,47.263c-25.086,82.443-34.443,195.861,1.391,278.02c1.456,3.098,2.829,6.19,4.368,9.294
			c46.883,94.905,138.823,68.399,228.298,75.8c87.313,7.337,202.756,11.417,284.462,37.537
			C3902.58,1572.949,3998.89,1593.81,4098.363,1603.638z M3907.73,866.82c431.089,100.216,805.289,300.964,902.989,768.133
			c29.821,142.568,44.639,330.69-39.494,458.282c-76.053,115.31-254.632,178.596-378.472,95.634
			c-114.994-77.03-192.531-200.257-301.229-285.358c-168.58-132.067-436.655-86.931-633.121-67.014
			c-78.014,7.873-162.608,26.795-238.301-3.248c-149.92-59.571-202.191-253.148-188.853-399.454
			c19.027-209.32,38.456-503.173,282.095-560.214c38.184-8.991,77.171-15.095,114.25-21.328
			C3588.129,825.318,3748.861,829.887,3907.73,866.82z" style="stroke:black;fill:#268f45"/><path id="180609425" parent_id="180609405" order="5" structure_id="667" d="M4233.438,1387.026
			c56.568,130.219-4.735,229.534-135.075,216.612c-99.473-9.828-195.783-30.689-290.534-61.025
			c-81.706-26.119-197.149-30.199-284.462-37.537c-89.475-7.401-181.415,19.105-228.298-75.8c-1.539-3.104-2.912-6.196-4.368-9.294
			c-35.834-82.159-26.477-195.577-1.391-278.02c40.638-133.624,365.922-62.911,462.752-47.263
			C3951.078,1126.858,4144.5,1182.547,4233.438,1387.026z" style="stroke:black;fill:#268f45"/><path id="180609411" parent_id="180609405" order="6" structure_id="698" d="M4543.764,2724.217
			c-18.954-71.103-25.667-119.761-84.233-170.997c-44.742-39.141-99.006-63.241-127.026-118.815
			c-18.954-37.587-14.083-77.641-35.521-114.692c-58.623-101.327-184.684-144.697-291.263-172.791
			c-172.693-45.517-362.329-65.644-536.987-17.241c-112.603,31.219-262.049,72.795-340.811,163.829
			c-82.625,95.507-127.148,226.186-168.758,343.146c-38.922,109.448-62.543,224.964-73.339,340.533
			c-15.65,167.677-30.61,345.918-39.125,513.274c-3.068,60.311-0.252,115.967-9.075,174.581
			c-7.484,49.771-4.294,99.062-8.864,149.097c-16.933,185.539-25.666,400.62,98.057,553.532
			c152.475,188.444,440.547,310.759,677.603,208.786c173.961-74.832,299.274-228.621,421.771-367.888
			c317.084-360.477,512.644-776.239,544.797-1258.722C4575.94,2875.525,4563.439,2798.071,4543.764,2724.217z M3816.808,3127.909
			c-10.293,31.649-30.65,60.948-46.35,90.044c-18.102,33.528-27.793,70.741-40.358,106.494
			c-8.207,23.365-28.687,84.451-54.305,37.501c-12.972-23.767-12.663-57.664-15.203-83.871
			c-3.353-34.721-5.35-68.695-12.119-102.118c-3.093-15.265-7.184-30.411-12.866-45.469c-7.249-19.201-29.847-54.596-11.186-71.914
			c18.102-16.782,69.329,7.306,87.886,13.089C3744.524,3081.719,3831.281,3083.387,3816.808,3127.909z" style="stroke:black;fill:#9ad2bd"/><path id="180609412" parent_id="180609405" order="7" structure_id="507" d="M3553.492,2943.057
			c-9.237-64.35,5.658-120.679,31.787-186.29c44.142-110.889,108.446-225.09,150.153-340.724
			c10.049-27.866,45.854-121.36,57.908-148.179c15.431-34.352-5.649-115.674,22.411-154.787
			c-119.453-33.67-289.339,0.613-347.02,16.604c-112.603,31.219-262.049,72.795-340.811,163.829
			c-82.625,95.507-127.148,226.186-168.758,343.146c-38.922,109.448-62.543,224.964-73.339,340.533
			c-15.65,167.677-31.649,345.85-39.125,513.274c-4.789,107.383-8.158,216.673-17.939,323.678
			c-16.933,185.539-25.666,400.62,98.057,553.532c152.475,188.444,440.547,310.759,677.603,208.786
			c118.13-50.817,213.971-138.824,300.744-231.686c41.211-44.116,120.605-135.719,121.027-136.202
			c39.612-44.648,36.544-42.449,74.5-88.534c-64.694,48.959-111.952,49.162-195.211,26.827
			c-19.636-5.268-40.603-11.197-56.569-23.734c-65.303-51.293-132.107-124.961-157.556-206.604
			c-15.601-50.087-11.566-97.994-21.153-148.703c-8.58-45.371-8.791-88.274-8.726-133.491c0.146-99.639,1.12-230.468-1.291-330.086
			c-2.078-85.948-7.769-139.543-45.489-218.596C3594.541,3043.405,3559.686,2986.179,3553.492,2943.057z" style="stroke:black;fill:#9ad2bd"/><path id="180609413" parent_id="180609405" order="8" structure_id="212" d="M3742.397,4449.674
			c-52.234,30.918-102.479,65.977-158.513,89.938c-50.327,21.515-93.608,46.41-149.909,29.218
			c-64.816-19.798-113.771-89.245-140.559-148.509c-33.524-74.195-60.173-153.837-71.366-234.627
			c-6.462-46.585-11.511-94.002-29.904-137.753c-19.692-46.804-51.447-87.167-73.704-132.696
			c-34.475-70.526-65.044-147.636-87.018-222.691c-11.007-37.587-0.454-86.887,2.313-125.41
			c3.102-43.059,6.063-86.286,2.395-129.417c-5.885-69.13-17.776-137.813-19.245-207.289c-1.364-64.479,9.432-129.77,15.512-193.948
			c16.754-176.927,48.119-357.376,113.853-523.409c34.385-86.846,100.15-123.402,165.178-185.182
			c58.484-55.562,103.243-121.787,140.558-192.856c-1.242,0.095-2.483,0.215-3.726,0.331
			c-109.668,30.65-246.264,72.519-320.339,158.137c-38.972,45.048-69.462,97.924-95.173,153.491
			c-61.434,139.495-81.914,300.755-104.625,447.157c-9.586,61.849-23.791,122.704-29.441,184.935
			c-6.007,66.078-7.76,132.411-12.338,198.595c-5.35,77.272-12.622,154.394-17.565,231.689
			c-4.635,72.332-17.225,145.034-13.426,217.683c2.694,51.325,12.443,114.412,33.678,161.496
			c22.736,50.42,58.485,96.079,86.295,143.926c17.063,29.356,23.361,72.17,34.312,104.473c12.59,37.141,25.69,74.102,39.409,110.841
			c25.261,67.612,51.813,135.135,82.95,200.292c35.471,74.201,82.005,123.582,152.158,147.824
			c45.324,11.424,91.646,17.563,137.803,17.437c62.911-1.832,129.861-14.264,182.462-36.888
			c39.982-17.2,77.404-38.671,112.793-63.138c11.165-9.736,22.053-19.947,35.282-29.918c4.138-3.122,11.765-6.128,17.565-9.887
			c1.711-1.394,3.426-2.782,5.127-4.188c0.757-0.848,1.377-1.734,1.821-2.667C3790.979,4437.229,3756.919,4441.09,3742.397,4449.674
			z" style="stroke:black;fill:#82c7ae"/><path id="180609417" parent_id="180609405" order="9" structure_id="220" d="M3553.492,2943.057
			c-9.237-64.35,5.658-120.679,31.787-186.29c44.142-110.889,108.446-225.09,150.153-340.724
			c8.32-23.069,40.018-71.439,18.134-94.196c-16.656-17.33-64.135-5.561-84.477-0.422
			c-227.566,57.486-317.303,305.203-335.542,512.833c-6.396,72.75-7.395,145.626-9.587,218.563
			c-7.573,252.68,24.182,504.524,73.567,751.884c18.028,90.251,35.277,181.289,57.997,270.514
			c16.957,66.643,40.732,147.854,101.871,187.638c95.865,62.368,247.04-36.73,237.153-147.101
			c-3.206-35.76-26.104-64.356-45.878-92.751c-24.547-35.225-45.067-71.634-59.272-112.281
			c-16.259-46.536-10.058-94.528-19.197-142.899c-8.58-45.371-8.791-88.274-8.726-133.491c0.146-99.639,1.12-230.468-1.291-330.086
			c-2.078-85.948-7.769-139.543-45.489-218.596C3594.541,3043.405,3559.686,2986.179,3553.492,2943.057z" style="stroke:black;fill:#82c7ae"/><path id="180609416" parent_id="180609405" order="10" structure_id="228" d="M3621.536,2296.656
			c-0.204,2.293-1.571,5.566-4.453,10.068c-8.369,13.085-28.808,18.597-41.723,25.371
			c-82.357,43.204-152.109,117.646-201.453,202.788c-69.573,120.025-64.216,248.391-90.427,380.169
			c-21.21,106.632-2.76,205.73,7.419,311.847c8.604,89.784,8.499,180.23,19.449,269.82c9.416,76.991,17.493,154.153,28.199,230.982
			c9.124,65.421,22.144,126.186,46.894,186.772c13.58,33.265,15.828,74.395,23.207,109.644
			c12.541,59.86,21.187,121.238,48.728,175.721c25.578,50.591,68.493,107.586,124.535,122.063c5.741,1.48,24.172,4.052,37.532,7.785
			c28.855-8.574,68.466-37.296,53.213-55.348c-38.842,12.502-80.654,11.032-115.26-11.481
			c-61.139-39.783-84.914-120.995-101.871-187.638c-22.72-89.225-39.969-180.263-57.997-270.514
			c-49.386-247.359-81.141-499.204-73.567-751.884c2.192-72.938,3.19-145.813,9.587-218.563
			c17.548-199.758,101.276-436.616,310.251-505.482C3644.328,2312.048,3635.966,2296.969,3621.536,2296.656z" style="stroke:black;fill:#9ad2bd"/><path id="180609415" parent_id="180609405" order="11" structure_id="236" d="M3373.907,2534.883
			c49.344-85.141,119.096-159.584,201.453-202.788c12.915-6.774,33.354-12.286,41.723-25.371
			c20.999-32.81-38.021-0.641-46.788,4.266c-36.057,20.191-71.398,38.991-103.998,64.759
			c-152.985,120.885-219.741,342.294-232.98,529.728c-4.367,61.675-3.296,124.903,0.836,186.578
			c2.613,39.117,12.354,77.085,14.611,116.453c2.524,44.064,1.38,88.255,3.944,132.314c7.2,123.82,19.278,244.413,37.672,367.121
			c12.802,85.458,33.938,169.377,56.586,252.688c20.195,74.292,31.105,155.639,63.509,225.398
			c19.644,42.262,30.813,85.312,63.185,120.783c30.204,33.069,96.961,60.368,141.272,51.082
			c12.744-2.675,29.417-7.891,18.516-21.746c-5.804-7.366-42.932-12.03-51.536-14.25c-56.042-14.477-98.957-71.472-124.535-122.063
			c-27.541-54.482-36.187-115.86-48.728-175.721c-7.379-35.249-9.627-76.379-23.207-109.644
			c-24.75-60.587-37.77-121.352-46.894-186.772c-10.706-76.829-18.783-153.991-28.199-230.982
			c-10.95-89.59-10.845-180.036-19.449-269.82c-10.179-106.116-28.629-205.215-7.419-311.847
			C3309.692,2783.273,3304.334,2654.908,3373.907,2534.883z" style="stroke:black;fill:#82c7ae"/><path id="180609414" parent_id="180609405" order="12" structure_id="244" d="M3636.88,4343.082
			c1.345,8.793-11.598,12.642-21.948,14.814c-44.312,9.286-111.068-18.013-141.272-51.082
			c-32.371-35.472-43.541-78.521-63.185-120.783c-32.403-69.76-43.313-151.106-63.509-225.398
			c-22.647-83.312-43.784-167.23-56.586-252.688c-18.394-122.708-30.472-243.301-37.672-367.121
			c-2.564-44.06-1.42-88.25-3.944-132.314c-2.257-39.368-11.998-77.336-14.611-116.453c-4.132-61.675-5.203-124.903-0.836-186.578
			c13.239-187.434,79.995-408.843,232.98-529.728c32.6-25.768,67.941-44.568,103.998-64.759
			c7.467-4.179,51.377-28.125,51.265-14.866c56.42-28.961,87.485-104.459,8.14-136.452c-44.746-18.042-160.821-2.812-209.397,31.271
			c-30.576,49.846-66.04,96.262-108.873,136.955c-65.027,61.78-130.793,98.336-165.178,185.182
			c-65.733,166.033-97.099,346.482-113.853,523.409c-6.08,64.179-16.876,129.47-15.512,193.948
			c1.469,69.476,13.36,138.159,19.245,207.289c3.669,43.131,0.707,86.358-2.395,129.417c-2.768,38.523-13.32,87.823-2.313,125.41
			c21.974,75.056,52.543,152.165,87.018,222.691c22.257,45.529,54.012,85.893,73.704,132.696
			c18.394,43.751,23.442,91.168,29.904,137.753c11.193,80.79,37.842,160.432,71.366,234.627
			c26.787,59.264,75.742,128.711,140.559,148.509c56.301,17.192,99.582-7.703,149.909-29.218
			c43.452-18.582,83.424-43.837,123.542-68.659C3736.845,4416.989,3703.783,4351.605,3636.88,4343.082z" style="stroke:black;fill:#9ad2bd"/><path id="180609418" parent_id="180609405" order="13" structure_id="151" d="M4091.633,2169.747
			c-32.42-10.881-64.743-16.673-98.056-24.295c-34.239-7.829-185.967-65.514-171.77,17.119
			c11.356,66.082-13.896,131.856-40.748,190.738c-27.022,59.235-45.473,125.126-74.029,184.755
			c-13.832,28.869-78.98,118.324-42.08,150.875c18.597,16.393,64.265-13.247,82.431-19.607
			c112.1-39.243,227.38-4.724,342.117-19.887c62.365-8.243,130.493-31.097,190.885-49.6c32.031-9.81,81.107-28.179,95.191-62.145
			c17.671-42.595-26.04-69.524-43.07-103.292c-18.954-37.586-14.928-77.166-35.521-114.692
			C4253.458,2240.428,4148.648,2188.892,4091.633,2169.747z" style="stroke:black;fill:#9df0d2"/><path id="180609419" parent_id="180609405" order="14" structure_id="188" d="M3992.245,2423.34
			c-22.362-3.397-43.784-9.217-61.261-21.084c-38.775-26.34-73.834-62.373-99.322-101.611c-12.757-19.638-14.599-45.25-9.662-68.145
			c2.715-12.592,5.151-25.503,24.549-28.734c67.268-11.202,107.44,60.055,167.548,74.13c36.991,8.657,73.681,6.51,109.673,16.726
			c53.5,15.183,110.191-4.639,144.714,47.591c20.09,30.387,23.199,65.725-13.727,85.832
			C4174.51,2471.739,4076.129,2436.076,3992.245,2423.34z" style="stroke:black;fill:#9df0d2"/><path id="180609421" parent_id="180609405" order="15" structure_id="196" d="M3697.769,2554.9
			c-16.291,28.954-66.919,103.981-32.818,134.04c18.597,16.393,64.265-13.247,82.431-19.607
			c112.094-39.241,230.362-3.312,352.138-21.337c-0.22-0.041-0.439-0.082-0.659-0.123c-4.722-0.836-33.596-5.948-55.503-9.826
			c-8.648-1.502-17.11-2.985-25.315-4.482c-38.881-7.09-84.964-10.302-129.592-18.266c-11.667-1.924-23.271-4.242-34.766-7.223
			c-20.386-5.285-42.622-12.357-64.02-24.814c-20.25-11.445-38.005-26.373-51.838-46.208c-6.352-9.107-13.068-19.211-17.018-28.305
			c-0.007-0.014-0.014-0.026-0.021-0.04C3713.045,2526.295,3700.463,2550.119,3697.769,2554.9z" style="stroke:black;fill:#95e4c8"/><path id="180609420" parent_id="180609405" order="16" structure_id="204" d="M4280.383,2599.845
			c32.031-9.81,81.107-28.179,95.191-62.145c10.528-25.375-5.747-76.111-34.88-82.377c-30.326-6.522-67.486,22.886-94.192,33.195
			c-44.288,17.111-87.472,24.692-135.022,19.753c-58.825-6.108-110.711-30.289-163.083-56.061
			c-42.421-20.874-64.573-51.808-88.08-91.773c-6.559-11.137-14.182-38.971-24.969-46.251
			c-50.262-33.95-91.465,134.616-99.761,164.251l3.319,2.589c28.824-0.17,75.718,30.837,101.53,43.289
			c38.622,18.621,75.856,39.445,118.009,49.121c42.843,9.838,88.332,8.454,132.254,12.927
			c59.613,6.067,121.426,7.025,180.308,18.016L4280.383,2599.845z" style="stroke:black;fill:#9df0d2"/><path id="180609422" parent_id="180609405" order="17" structure_id="159" d="M3665.867,3028.916
			c36.406-38.784,108.09-24.713,153.781-17.533c46.496,7.313,123.967,26.511,128.383,85.648
			c4.091,54.925-60.62,112.59-88.673,155.623c-23.5,36.057-46.236,72.779-63.932,112.11
			c-35.456,78.814-57.989,177.986-54.223,263.456c2.248,50.416,5.511,100.926,3.75,151.419c-0.316,9.132-0.301,18.234-0.828,27.366
			c-1.234,21.316,1.055,40.558-14.197,57.17c-42.883,46.723,21.023,115.946,48.541,153.326
			c37.811,51.361,88.6,92.41,150.803,110.313c177.109,50.984,292.204-158.14,369.804-293.323
			c99.298-172.99,172.004-349.713,219.978-543.95c27.509-111.425,44.304-226.148,51.934-340.675
			c4.952-74.333-7.549-151.787-27.233-225.646c-21.925-82.325-34.547-146.398-126.053-203.385
			c7.55,3.369-71.488,63.732-80.555,69.776c-36.683,24.465-96.466,38.564-143.124,50.188
			c-118.836,29.616-192.816,31.681-315.062,23.389c-84.987-5.763-171.095,29.584-231.536,65.016
			c-61.415,36.008-77.511,106.303-74.76,168.468c1.543,34.648,3.661,131.446,44.694,146.994
			C3639.251,3052.959,3665.867,3028.916,3665.867,3028.916z" style="stroke:black;fill:#54bf94"/><path id="180609423" parent_id="180609405" order="18" structure_id="175" d="M4265.854,2697.418
			c-40.218-20.14-87.056-33.096-133.59-42.937c-50.733,7.002-79.379,15.428-154.364,12.901
			c-43.514,3.152-105.172-6.042-128.064-4.213c-69.625,5.562-102.228,19.877-101.159,19.8
			c99.941-7.182,226.384,5.518,319.001,43.957c0.012,0.004,0.022,0.009,0.034,0.014c60.593,25.17,134.461,42.727,182.888,96.021
			c112.978,124.331,42.779,331.267-10.516,465.947c-55.834,141.095-103.593,299.504-207.913,413.019
			c-60.993,66.369-122.154,107.087-206.444,130.398c-25.67,7.099-70.693,20.529-103.584,42.532
			c-20.671,36.835,11.41,83.808,38.139,118.859c17.91-10.753,77.668,38.405,106.756,44.321
			c32.802,6.677,101.449,8.961,161.225-43.22c65.303-57.012,119.014-149.397,165.015-222.079
			c45.529-71.91,87.284-152.956,116.482-233.012c52.867-144.981,98.852-305.491,119.502-390.397
			C4472.973,2969.611,4482.778,2806.034,4265.854,2697.418z" style="stroke:black;fill:#54bf94"/><path id="180609424" parent_id="180609405" order="19" structure_id="183" d="M4021.927,3480.487
			c80.054-133.885,183.282-295.96,203.95-453.566c34.214-260.9-332.183-308.497-515.574-300.068
			c-11.625,0.534-38.887,2.761-70.083,6.913c-79.412,53.82-85.71,185.752-44.599,265.108c20.301,39.178,41.195,38.236,68.461,25.927
			c6.137-2.772,12.605-6.125,19.465-9.729c41.228-21.629,92.536-10.532,136.102-3.689c46.496,7.313,123.967,26.511,128.383,85.648
			c4.091,54.925-60.62,112.59-88.673,155.623c-23.5,36.057-46.236,72.779-63.932,112.11
			c-35.456,78.814-57.989,177.986-54.223,263.456c2.248,50.416,5.511,100.926,3.75,151.419c-0.316,9.132-0.301,18.234-0.828,27.366
			c-0.201,3.479-0.31,6.901-0.414,10.268c18.308-27.231,45.861-52.549,64.643-75.733
			C3877.544,3656.129,3965.489,3574.875,4021.927,3480.487z" style="stroke:black;fill:#54bf94"/><path id="180609428" parent_id="180609405" order="20" structure_id="1009" d="M3813.683,3103.988
			c-10.674-15.155-29.839-18.971-46.958-21.759c-15.797-2.577-134.763-17.2-100.857-53.313
			c36.406-38.784,108.09-24.713,153.781-17.533c46.496,7.313,123.967,26.511,128.383,85.648
			c4.091,54.925-60.62,112.59-88.673,155.623c-23.5,36.057-46.236,72.779-63.932,112.11
			c-35.456,78.814-57.989,177.986-54.223,263.456c2.248,50.416,5.511,100.926,3.75,151.419c-0.316,9.132-0.301,18.234-0.828,27.366
			c-0.941,16.275,1.883,47.165-14.57,57.048c-25.545,15.346-33.963-16.259-40.051-33.755
			c-11.721-33.687-19.977-66.082-24.205-101.615c-4.205-35.277-5.609-70.827-6.413-106.323
			c-1.015-44.985-0.853-89.037,0.666-134.088c1.591-47.206,0.105-93.607,1.574-140.688c0.228-7.338,3.629-15.472,2.095-22.643
			c11.502,34.884,16.25,49.223,27.241,52.956c16.323,5.54,23.613-16.754,29.393-28.337c8.571-17.155,14.448-34.21,19.83-52.867
			c8.328-28.869,16.844-58.046,33.768-83.258c12.354-18.41,22.907-39.604,32.681-59.499
			C3806.978,3152.212,3823.359,3117.734,3813.683,3103.988z" style="stroke:black;fill:#cccccc"/><path id="180609429" parent_id="180609405" order="21" structure_id="1009" d="M3131.997,4448.087
			c-31.138-65.157-57.689-132.68-82.95-200.292c-13.719-36.739-26.819-73.7-39.409-110.841
			c-10.95-32.303-17.249-75.116-34.312-104.473c-27.81-47.847-63.559-93.506-86.295-143.926
			c-21.234-47.084-30.983-110.171-33.678-161.496c-3.799-72.648,8.791-145.351,13.426-217.683
			c4.943-77.296,12.216-154.417,17.565-231.689c4.578-66.184,6.331-132.517,12.338-198.595
			c5.65-62.23,19.855-123.086,29.441-184.935c22.711-146.402,43.191-307.663,104.625-447.157
			c-28.8,62.242-51.602,127.862-73.585,189.655c-38.922,109.448-62.543,224.964-73.339,340.533
			c-15.65,167.677-31.649,345.85-39.125,513.274c-4.789,107.383-8.158,216.673-17.939,323.678
			c-16.933,185.539-25.666,400.62,98.057,553.532c86.704,107.158,217.255,192.928,357.338,228.237
			C3214.002,4571.669,3167.468,4522.288,3131.997,4448.087z" style="stroke:black;fill:#cccccc"/><path id="180609430" parent_id="180609405" order="22" structure_id="1009" d="M4265.854,2697.418
			c216.925,108.616,207.119,272.193,163.408,451.912c-20.65,84.906-66.635,245.416-119.502,390.397
			c-29.198,80.056-70.953,161.102-116.482,233.012c-46.001,72.682-99.713,165.067-165.015,222.079
			c-59.775,52.181-128.423,49.896-161.225,43.22c-36.081-7.338-119.372-81.237-111.417-24.754
			c6.932,49.3,84.776,112.407,130.2,122.83c59.248,13.592,127.319,10.041,181.015-20.715
			c122.22-70.003,187.784-199.801,253.258-319.44c76.497-139.782,139.795-292.609,183.498-445.707
			c71.051-248.947,105.76-682.726-232.583-745.874c-58.883-10.991-120.695-11.949-180.308-18.016
			c-43.922-4.473-89.411-3.089-132.254-12.927c-42.152-9.676-79.387-30.5-118.009-49.121
			c-25.813-12.452-72.706-43.459-101.53-43.289c-37.664,0.219-18.053,31.693-1.079,56.029
			c58.987,84.582,189.294,79.93,280.215,96.51C4093.988,2647.416,4191.297,2660.083,4265.854,2697.418z" style="stroke:black;fill:#cccccc"/><path id="180609431" parent_id="180609405" order="23" structure_id="1009" d="M3825.015,2108.621
			c-18.597-1.818-53.761-9.822-68.94,5.56c-14.408,14.595,1.315,33.966,13.053,44.56c37.583,33.917,91.676,42.168,139.682,50.667
			c54.353,9.623,106.969,30.164,162.19,34.315c22.119,1.664,61.017,12.415,81.026-2.09c46.293-33.573-82.398-80.458-100.24-85.641
			c-87.284-25.358-175.673-41.966-266.164-50.042" style="stroke:black;fill:#cccccc"/><path id="180609427" parent_id="180609405" order="24" structure_id="98" d="M3648.473,3175.959c-3.093-15.265-7.184-30.411-12.866-45.469
			c-7.249-19.201-29.847-54.596-11.186-71.914c18.102-16.782,69.329,7.306,87.886,13.089
			c32.217,10.054,118.974,11.722,104.501,56.244c-10.293,31.649-30.65,60.948-46.35,90.044
			c-18.102,33.528-27.793,70.741-40.358,106.494c-8.207,23.365-28.687,84.451-54.305,37.501
			c-12.972-23.767-12.663-57.664-15.203-83.871C3657.24,3243.356,3655.242,3209.382,3648.473,3175.959z" style="stroke:black;fill:#aaaaaa"/></g>
</g>
</svg>