<?xml version="1.0" encoding="utf-8"?>
<!-- Generator: Adobe Illustrator 16.0.0, SVG Export Plug-In . SVG Version: 6.00 Build 0)  -->
<!DOCTYPE svg PUBLIC "-//W3C//DTD SVG 1.1//EN" "http://www.w3.org/Graphics/SVG/1.1/DTD/svg11.dtd">
<svg version="1.1" id="Layer_1" xmlns="http://www.w3.org/2000/svg" xmlns:xlink="http://www.w3.org/1999/xlink" x="0px" y="0px"
	 width="9744px" height="6823.471px" viewBox="0 0 9744 6823.471" enable-background="new 0 0 9744 6823.471" xml:space="preserve">
<g transform="scale(1.0)">
	<g id="_x31_80639334" transform=" scale(1.0, 1.0)">
		<path id="_x31_80639336" fill="none" stroke="#010101" stroke-width="80" d="M4912.875,997.034
			c15.43-18.933,35.652-38.492,59.482-45.548c23.514-6.965,48.969-2.291,73.379-8.68c57.323-14.996,115.811-46.609,170.27-69.741
			c54.674-23.231,115.549-56.408,175.027-63.333c42.25-4.917,135.75,63.633,170.68,99.327
			c-43.213-44.148-102.895-70.91-125.271-128.985c-20.056-52.071-10.874-111.208,11.694-160.755
			c40.035-87.946,122.061-114.378,208.898-129.976c119.666-21.505,232.891-66.98,352.107-89.518
			c167.739-31.71,324.871-3.769,489.213,31.127c157.264,33.399,294.49,96.832,441.222,159.669
			c151.28,64.787,302.294,114.641,446.077,197.841c261.156,151.116,506.244,321.333,708.56,549.329
			c117.659,132.604,234.796,263.51,352.288,397.094c114.887,130.623,242.666,245.465,332.217,397.251
			c84.515,143.255,158.492,306.377,178.712,473.613c8.257,68.333,23.584,145.047,17.451,213.879
			c-12.322,138.29-137.256,234.505-126.465,378.137c11.541,153.602,76.929,289.148,71.85,445.157
			c-2.775,85.113,5.841,176.402-13.75,259.99c-46.853,200.077-119.161,434.219-248.58,595.912
			c-50.289,62.82-115.468,143.012-185.775,182.846c-63.683,36.066-143.709,62.041-211.76,89.323
			c-109.054,43.718-224.551,78.921-340.784,96.13c-127.293,18.852-233.576,54.205-343.43-32.482
			c-139.822-110.33-223.875-298.259-294.227-458.891c-99.833-227.959-198.781-443.332-260.771-686.888
			c-36.214-142.269-80.721-293.461-99.967-438.101c-11.436-85.976-29.794-169.801-47.055-254.02
			c-17.037-83.122-53.217-163.371-58.431-248.717c4.153,68.105-18.652,135.665-29.069,201.864
			c-13.47,85.51-18.869,175.31-17.725,261.923c1.788,136.757,18.031,273.905,47.328,407.42
			c25.642,116.822,97.861,224.69,105.476,344.832c9.151,144.596-137.724,288.941-194.382,410.482
			c45.307-24.455,87.22-84.648,144.556-45.412c94.92,64.984,66.497,331.994,49.746,426.16
			c-13.565,76.268-32.812,151.846-63.698,222.82c-17.291,39.758-93.585,136.242-55.271,177.168
			c24.304,25.945,88.008,5.619,121.606,21.807c46.581,22.459,87.649,56.184,124.309,92.646
			c76.663,76.234,187.048,87.456,286.696,96.443c90.029,8.115,232.58,5.352,295.967,82.148
			c86.999,105.431-53.893,109.238-123.723,115.166c-102.06,8.646-178.038,57.273-246.019,133.377
			c-82.026,91.818-130.673,170.384-267.138,165.967c-120.386-3.897-263.424-73.099-321.32-187.184
			c-48.25-95.066-5.756-256.328,53.803-338.562c12.736-17.596,46.371-51.832,38.295-77.25
			c-29.979-94.253-173.432,74.566-193.992,101.553c-57.855,75.955-103.379,160.646-142.326,248.076
			c-34.02,76.372-74.215,145.23-117.138,216.613c-130.365,216.799-353.544,296.822-570.864,401.653
			c-99.857,48.167-216.502,100.231-328.421,108.302c-116.478,8.419-255.992,82.338-371.251,51.971
			c-44.408-11.704-95.832-30.812-123.62-61.207L4912.875,997.034z"/>
		<path id="_x31_80639337" fill="none" stroke="#010101" stroke-width="80" d="M8957.433,2605.748
			c-20.222-167.235-94.199-330.358-178.714-473.613c-89.551-151.786-217.33-266.627-332.217-397.251
			c-117.49-133.584-234.631-264.491-352.288-397.094c-202.315-227.995-447.401-398.21-708.558-549.328
			c-143.781-83.2-294.799-133.054-446.077-197.844c-146.731-62.835-283.958-126.271-441.224-159.667
			c-164.34-34.897-321.472-62.839-489.213-31.127c-70.35,13.298-127.709,31.345-193.74,59.184
			c-124.455,52.467-298.002,8.171-367.268,160.31c-22.568,49.547-31.75,108.682-11.694,160.753
			c22.378,58.078,82.058,84.839,125.271,128.987c65.399,66.84,131.906,122.387,202.854,181.915
			c208.623,175.065,419.356,381.685,541.256,632.092c71.441,146.773,185.032,279.059,281.062,409.695
			c58.288,79.285,122.693,186.028,161.463,276.472c42.602,99.371,60.793,230.785,67.388,338.789
			c5.214,85.347,41.396,165.598,58.431,248.718c17.261,84.22,35.621,168.043,47.057,254.02
			c19.244,144.639,63.753,295.834,99.965,438.103c61.992,243.554,160.94,458.928,260.773,686.888
			c70.35,160.63,154.404,348.559,294.227,458.891c109.855,86.686,216.135,51.333,343.428,32.48
			c116.235-17.209,231.732-52.412,340.784-96.128c68.053-27.282,148.079-53.255,211.762-89.323
			c70.308-39.834,135.484-120.024,185.771-182.846c129.423-161.695,201.729-395.835,248.584-595.912
			c19.589-83.588,10.975-174.879,13.752-259.99c5.073-156.009-60.312-291.554-71.852-445.157
			c-10.793-143.631,114.143-239.847,126.465-378.137C8981.017,2750.797,8965.689,2674.08,8957.433,2605.748z M7944.389,2743.074
			c0,0.384,0.001,0.768-0.074,1.075c-3.948,46.589-9.021,99.854-17.635,144.363c-0.075,0.23-0.073,0.462-0.148,0.691
			c-11.92,52.107-29.422,89.854-52.373,93.282c-3.086,0.457-6.321,0.301-9.559-0.624c-9.938-3.772-21.158-13.071-33.891-29.204
			c-0.227-0.307-0.377-0.539-0.602-0.846c-5.803-8.22-11.529-16.285-17.105-24.195
			c-120.037-177.285-268.693-374.481-408.527-553.936c-37.904-57.073-89.141-131.814-141.869-180.226
			c-23.053-29.576-45.654-59.459-67.73-89.878c-74.67-103.014-157.01-200.353-245.441-291.251c-2.484-2.537-5.195-5.226-8.138-7.991
			c-10.996-10.682-22.593-20.366-34.489-29.511c-0.377-0.235-0.68-0.539-1.055-0.846
			c-61.528-49.958-150.842-116.754-169.863-178.949c-2.564-8.292-3.852-16.432-3.631-24.488
			c0.651-26.867,20.218-28.84,46.715-18.988c27.781,10.24,63.171,33.61,92.238,54.902c26.507,19.449,47.743,37.278,53.168,42.044
			c6.854,5.992,13.781,11.833,20.787,17.674c99.185,81.929,214.684,146.453,317.327,224.085
			c43.302,32.822,86.228,66.719,128.476,101.61c107.545,88.695,211.182,183.753,308.352,284.18
			c15.592,16.059,32.162,32.809,49.034,50.176c79.392,81.522,166.548,177.638,192.386,290.732
			C7945.141,2652.73,7946.305,2697.327,7944.389,2743.074z"/>
		<path id="_x31_80639418" fill="none" stroke="#010101" stroke-width="80" d="M7319.442,752.528l-38.601,94.142
			c-105.692-38.951-214.921-72.532-329.957-123.164c-212.229-93.484-422.259-249.91-655.133-283.7
			c-72.555-10.514-139.98-2.22-206.641,15.21l-42.197-61.373c153.732-21.253,299.527,4.998,451.422,37.321
			c157.314,33.402,294.486,96.796,441.217,159.663C7067.842,645.567,7195.815,689.686,7319.442,752.528z"/>
		<path id="_x31_80639417" fill="none" stroke="#010101" stroke-width="80" d="M7280.842,846.67l-111.066,271.376
			c-114.441-59.684-214.445-131.791-315.588-216.331c-132.021-110.365-296.602-187.912-460.922-230.455
			c-51.562-13.336-113.208-24.068-176.579-30.584l-127.575-185.658c66.664-17.433,134.084-25.726,206.641-15.211
			c232.874,33.79,442.902,190.215,655.133,283.7C7065.921,774.137,7175.149,807.718,7280.842,846.67z"/>
		<path id="_x31_80639416" fill="none" stroke="#010101" stroke-width="80" d="M7169.775,1118.047l-34.844,84.935
			c-66.709-35.917-135.296-70.993-203.216-112.818c-58.505-36.063-114.86-107.584-175.104-151.785
			c-137.277-100.698-268.127-159.403-432.898-198.11c-12.723-3.006-27.625-5.632-44.183-8.029l-62.846-91.563
			c63.371,6.516,125.017,17.249,176.579,30.583c164.322,42.545,328.902,120.091,460.922,230.456
			C6955.33,986.256,7055.334,1058.363,7169.775,1118.047z"/>
		<path id="_x31_80639415" fill="none" stroke="#010101" stroke-width="80" d="M7134.932,1202.982l-97.775,238.692
			c-167.016-109.864-323.357-235.759-499.694-333.89L6279.53,732.242c16.56,2.396,31.46,5.022,44.183,8.028
			c164.77,38.707,295.619,97.412,432.898,198.11c60.244,44.199,116.598,115.722,175.103,151.784
			C6999.636,1131.99,7068.223,1167.066,7134.932,1202.982z"/>
		<path id="_x31_80639414" fill="none" stroke="#010101" stroke-width="80" d="M7037.156,1441.674l-73.067,178.463
			c-42.773-29.676-83.813-59.424-120.412-88.705c-7.985-6.38-19.581-15.987-32.908-25.673l-273.307-397.975
			C6713.799,1205.915,6870.143,1331.811,7037.156,1441.674z"/>
		<path id="_x31_80639413" fill="none" stroke="#010101" stroke-width="80" d="M6877.078,1602.312l-66.31-96.555
			c13.327,9.687,24.925,19.293,32.908,25.673c36.601,29.282,77.641,59.03,120.412,88.705l-18.7,45.729l-0.227,0.307
			c-7.004-5.843-13.932-11.685-20.787-17.675c-5.421-4.766-26.659-22.597-53.168-42.044L6877.078,1602.312z"/>
		<path id="_x31_80639412" fill="none" stroke="#010101" stroke-width="80" d="M7945.885,1187.182l-58.852,85.37
			c-76.456-78.298-155.39-153.144-237.404-222.62c-120.124-101.755-241.786-156.383-368.787-203.262l38.603-94.142
			c22.209,11.307,44.271,23.229,66.179,35.916C7585.832,904.254,7776.645,1031.412,7945.885,1187.182z"/>
		<path id="_x31_80639411" fill="none" stroke="#010101" stroke-width="80" d="M7887.033,1272.554l-147.014,213.31
			c-89.852-77.928-182.707-152.1-282.782-217.604c-73.944-48.358-153.598-85.749-233.255-123.212
			c-18.441-8.695-36.51-17.617-54.203-27.002l111.064-271.375c127.003,46.878,248.663,101.506,368.787,203.26
			C7731.644,1119.408,7810.577,1194.255,7887.033,1272.554z"/>
		<path id="_x31_80639410" fill="none" stroke="#010101" stroke-width="80" d="M7740.02,1485.861l-45.475,66.04
			c-61.898-40.44-124.619-77.119-184.924-108.041c-98.855-50.612-155.198-109.853-256.025-172.978
			c-38.477-24.069-78.232-46.138-118.664-67.903l34.846-84.935c17.693,9.385,35.764,18.307,54.205,27.001
			c79.657,37.464,159.311,74.853,233.253,123.212C7557.312,1333.764,7650.168,1407.935,7740.02,1485.861z"/>
		<path id="_x31_80639409" fill="none" stroke="#010101" stroke-width="80" d="M7694.545,1551.902l-158.589,230.033
			c-113.274-99.753-237.896-186.084-368.459-260.065c-44.5-25.147-87.72-52.132-130.341-80.195l97.775-238.692
			c40.432,21.764,80.188,43.835,118.664,67.903c100.826,63.125,157.168,122.365,256.023,172.978
			C7569.928,1474.782,7632.648,1511.462,7694.545,1551.902z"/>
		<path id="_x31_80639408" fill="none" stroke="#010101" stroke-width="80" d="M7535.956,1781.935l-109.659,159.156
			c-63.108-49.576-128.173-96.851-194.664-142.361c-81.101-55.584-178.235-116.863-267.544-178.594l73.067-178.462
			c42.621,28.064,85.841,55.049,130.341,80.195C7298.06,1595.852,7422.682,1682.181,7535.956,1781.935z"/>
		<path id="_x31_80639407" fill="none" stroke="#010101" stroke-width="80" d="M7426.297,1941.091l-32.848,47.633l-2.48,3.145
			c-42.248-34.892-85.172-68.788-128.476-101.611c-102.642-77.633-218.143-142.156-317.327-224.085l0.229-0.306l18.698-45.729
			c89.305,61.731,186.443,123.012,267.542,178.593C7298.124,1844.241,7363.188,1891.516,7426.297,1941.091z"/>
		<path id="_x31_80639424" fill="none" stroke="#010101" stroke-width="80" d="M6046.916,393.644l42.197,61.373
			c-42.207,10.933-84.113,25.625-126.846,41.316c-62.068,22.808-155.075,31.154-231.899,49.111l-55.964-53.56
			c56.362-8.001,113.25-14.849,160.564-38.748c57.469-29.107,111.121-41.409,174.174-53.315
			C6021.785,397.456,6034.427,395.395,6046.916,393.644z"/>
		<path id="_x31_80639423" fill="none" stroke="#010101" stroke-width="80" d="M6089.113,455.017l127.573,185.659
			c-137.579-13.962-283.197-8.128-351.646,33.633L5730.37,545.442c76.822-17.958,169.829-26.302,231.901-49.111
			C6005,480.644,6046.904,465.95,6089.113,455.017z"/>
		<path id="_x31_80639422" fill="none" stroke="#010101" stroke-width="80" d="M6216.687,640.677l62.846,91.564
			c-116.967-16.934-314.817-20.752-390.992-35.493l-23.499-22.438C5933.487,632.548,6079.105,626.715,6216.687,640.677z"/>
		<path id="_x31_80639421" fill="none" stroke="#010101" stroke-width="80" d="M6279.53,732.24l257.932,375.543
			c-22.21-12.381-44.798-24.301-67.687-35.688c-62.414-30.999-179.496-98.746-189.055-11.406c-0.373,3.454-0.594,6.986-0.596,10.592
			l-391.587-374.534C5964.715,711.489,6162.565,715.307,6279.53,732.24z"/>
		<path id="_x31_80639420" fill="none" stroke="#010101" stroke-width="80" d="M6537.462,1107.785l273.307,397.974
			c-32.983-23.985-76.658-48.286-103.353-25.746l-427.291-408.73c0.002-3.605,0.223-7.137,0.598-10.591
			c9.559-87.34,126.639-19.595,189.055,11.405C6492.664,1083.48,6515.252,1095.404,6537.462,1107.785z"/>
		<path id="_x31_80639419" fill="none" stroke="#010101" stroke-width="80" d="M6810.769,1505.758l66.31,96.555l-5.867,4.139
			c-29.067-21.293-64.459-44.663-92.236-54.902l0.752-2.302l-72.311-69.234C6734.112,1457.473,6777.785,1481.773,6810.769,1505.758z
			"/>
		<path id="_x31_80639429" fill="none" stroke="#010101" stroke-width="80" d="M6069.451,1286.675l-175.045-82.011
			c-42.782-39.346-86.389-77.158-129.842-113.662c-70.945-59.562-137.444-115.13-202.826-181.979
			c-43.232-44.104-102.938-70.881-125.268-128.933c-20.061-52.065-10.932-111.234,11.677-160.796
			c44.692-98.127,134.685-114.382,226.261-127.409l55.964,53.56c-34.386,8.023-65.532,17.969-89.224,31.989
			c-111.323,65.664-67.185,196.662-3.369,278.402c72.101,92.492,154.797,166.651,240.359,244.728
			c23.044,21.055,46.168,42.495,69.139,64.243C5988.853,1204.228,6029.904,1244.799,6069.451,1286.675z"/>
		<path id="_x31_80639428" fill="none" stroke="#010101" stroke-width="80" d="M6334.688,1409.845
			c0.453,0.614,0.904,1.23,1.352,1.767l-196.047-91.857c-39.264-19.064-19.217-10.375-42.509-19.935l-28.032-13.145
			c-22.978-21.748-168.272-165.056-191.316-186.111c-85.561-78.079-168.257-152.236-240.361-244.73
			c-63.812-81.739-107.952-212.734,3.368-278.398c23.694-14.023,54.843-23.968,89.227-31.991l125.552,119.354
			c-7.493-4.537,32.771,31.874,32.618,31.95c-2.597-0.496-16.805-4.121-19.644-4.933l-4.281,7.672
			c-48.88,44.084-16.504,144.21,15.315,218.545c25.188,58.826,76.184,109.77,121.222,153.416
			c29.378,28.509,61.379,51.032,92.107,77.163C6183.484,1225.618,6263.106,1315.663,6334.688,1409.845z"/>
		<path id="_x31_80639427" fill="none" stroke="#010101" stroke-width="80" d="M6587.428,1529.394l-251.387-117.781
			c-0.449-0.535-0.9-1.153-1.352-1.768c-71.581-94.18-151.205-184.226-241.428-261.233c-30.729-26.129-62.731-48.654-92.107-77.163
			c-45.042-43.645-96.033-94.59-121.222-153.414c-31.821-74.334-64.195-174.461-15.317-218.547l4.283-7.671
			c5.044,1.771,11.668,3.465,19.644,4.932l391.587,374.535c-1.787,104.926,129.605,269.176,192.812,342.702
			C6518.361,1466.762,6547.875,1481.608,6587.428,1529.394z"/>
		<path id="_x31_80639426" fill="none" stroke="#010101" stroke-width="80" d="M6730.848,1596.556l-143.42-67.161
			c-39.553-47.787-69.064-62.632-114.491-115.412c-63.204-73.525-194.599-237.774-192.812-342.701l427.291,408.731
			c-1.652,1.302-3.309,2.914-4.812,4.678C6675.843,1515.901,6713.067,1571.283,6730.848,1596.556z"/>
		<path id="_x31_80639425" fill="none" stroke="#010101" stroke-width="80" d="M6779.727,1549.248l-0.752,2.302
			c-26.499-9.854-46.066-7.879-46.715,18.986c-0.221,8.058,1.068,16.195,3.631,24.489l-5.041,1.53
			c-17.78-25.273-55.005-80.655-28.245-111.866c1.505-1.765,3.159-3.374,4.812-4.678L6779.727,1549.248z"/>
		<path id="_x31_80639434" fill="none" stroke="#010101" stroke-width="80" d="M6330.795,1605.344
			c-29.416,13.938-68.681,34.546-63.854,44.375c-96.025-167.433-230.186-314.491-372.537-445.054l175.047,82.01
			c43.008,45.41,84.217,92.427,122.188,140.828C6237.447,1485.962,6284.232,1545.192,6330.795,1605.344z"/>
		<path id="_x31_80639433" fill="none" stroke="#010101" stroke-width="80" d="M6205.764,1402.187
			c46.344,64.678,96.366,129.287,146.545,193.278c-5.492,2.527-13.089,5.975-21.516,9.879
			c-46.562-60.152-93.348-119.381-139.154-177.842c-37.973-48.401-79.182-95.418-122.189-140.826l70.543,33.08
			C6172.314,1358.322,6198.005,1391.355,6205.764,1402.187z"/>
		<path id="_x31_80639432" fill="none" stroke="#010101" stroke-width="80" d="M6336.039,1411.611
			c41.516,54.312,92.655,99.269,141.314,146.758c-40.188,2.337-78.559,14.347-116.471,33.19c-1.203,0.614-4.29,1.993-8.574,3.906
			c-50.179-63.992-100.201-128.601-146.545-193.28c-7.759-10.831-33.449-43.863-65.77-82.43L6336.039,1411.611z"/>
		<path id="_x31_80639431" fill="none" stroke="#010101" stroke-width="80" d="M6599.105,1543.991
			c10.695,14.059,24.785,32.264,40.381,52.161c-30.941-14.77-63.387-26.239-97.334-33.108c-22.208-4.475-43.73-5.879-64.799-4.674
			c-48.659-47.489-99.799-92.446-141.314-146.758l251.387,117.782C6591.27,1533.927,6595.111,1538.768,6599.105,1543.991z"/>
		<path id="_x31_80639430" fill="none" stroke="#010101" stroke-width="80" d="M6905.752,1773.976
			c-47.067-35.82-99.472-62.741-145.711-100.093c-37.357-30.283-77.488-57.267-120.553-77.731
			c-15.596-19.897-29.686-38.102-40.381-52.161c-3.994-5.225-7.836-10.064-11.678-14.596l143.42,67.161l5.041-1.53
			C6754.91,1657.223,6844.224,1724.018,6905.752,1773.976z"/>
		<path id="_x31_80639406" fill="none" stroke="#010101" stroke-width="80" d="M8492.542,1785.938l-0.521,0.536l-95.666,69.441
			c-163.483-197.442-329.901-399.875-509.321-583.364l58.852-85.37c51.516,47.339,101.077,97.359,148.312,150.604
			c117.665,132.61,234.804,263.529,352.324,397.137C8461.66,1752.132,8477.103,1769.113,8492.542,1785.938z"/>
		<path id="_x31_80639405" fill="none" stroke="#010101" stroke-width="80" d="M8396.354,1855.916l-138.01,100.102
			c-61.472-67.844-195.146-176.444-219.772-198.806c-99.797-90.602-197.257-183.354-298.555-271.35l147.016-213.31
			C8066.453,1456.042,8232.871,1658.475,8396.354,1855.916z"/>
		<path id="_x31_80639404" fill="none" stroke="#010101" stroke-width="80" d="M8258.345,1956.019l-38.508,27.976
			c-15.062-10.686-30.274-23.213-43.755-34.741c-73.43-63.096-167.348-148.706-182.637-163.304
			c-85.64-81.916-190.996-163.621-298.9-234.047l45.475-66.041c101.298,87.997,198.756,180.748,298.555,271.351
			C8063.199,1779.575,8196.875,1888.174,8258.345,1956.019z"/>
		<path id="_x31_80639403" fill="none" stroke="#010101" stroke-width="80" d="M8219.837,1983.994l-280.902,203.881
			c-24.56-28.504-49.495-56.702-75.03-84.822c-72.016-79.521-154.106-151.836-229.582-228.445
			c-31.638-32.117-64.477-63.087-98.366-92.673l158.589-230.033c107.902,70.425,213.259,152.131,298.9,234.047
			c15.289,14.599,109.207,100.209,182.637,163.304C8189.562,1960.781,8204.775,1973.309,8219.837,1983.994z"/>
		<path id="_x31_80639402" fill="none" stroke="#010101" stroke-width="80" d="M7938.935,2187.875L7795.51,2291.96
			c-109.461-130.067-234.713-245.491-369.215-350.868l109.661-159.157c33.89,29.588,66.732,60.556,98.366,92.673
			c75.474,76.609,157.566,148.924,229.584,228.445C7889.439,2131.176,7914.375,2159.371,7938.935,2187.875z"/>
		<path id="_x31_80639401" fill="none" stroke="#010101" stroke-width="80" d="M7795.51,2291.96l-47.155,34.261
			c-16.87-17.365-33.442-34.117-49.034-50.175c-97.17-100.425-200.807-195.486-308.352-284.179l2.48-3.145l32.848-47.633
			C7560.797,2046.47,7686.049,2161.895,7795.51,2291.96z"/>
		<path id="_x31_80639400" fill="none" stroke="#010101" stroke-width="80" d="M8897.75,3015.037
			c-0.148,0.384-0.374,0.692-0.678,0.998c-0.976,1.149-2.48,2.068-4.362,2.682c-21.515,7.039-99.575-17.299-173.726-44.243
			c42.552-125.837,113.419-243.357,109.988-381.835c-5.618-224.676-162.467-414.436-299.05-576.387
			c-44.447-52.703-88.896-106.327-133.568-160.336l95.664-69.441l0.523-0.537c101.92,110.562,208.428,214.453,286.203,346.175
			c84.492,143.245,158.462,306.433,178.701,473.634c8.262,68.324,23.604,145.021,17.42,213.868
			c-7.154,80.356-52.244,146.474-86.731,215.983C8891.137,3028.848,8894.37,3022.02,8897.75,3015.037z"/>
		<path id="_x31_80639399" fill="none" stroke="#010101" stroke-width="80" d="M8828.973,2592.638
			c3.431,138.478-67.437,255.998-109.988,381.835c-10.696-3.85-21.385-7.852-31.846-11.701c-34.557-13.086-66.1-25.783-87.932-34.94
			c-14.154-5.926-24.165-10.312-28.231-12.311c-17.091-8.464-34.033-17.001-50.82-25.54c-21.532-10.921-42.916-21.921-64.223-32.92
			c44.438-41.556,98.903-66.906,123.385-128.671c25.076-63.299,13.802-136.689-13.271-197.282
			c-51.576-115.5-75.942-183.533-145.119-284.159c-49.655-72.206-124.325-174.755-178.948-245.815l-22.143-17.141
			c10.2-7.413,10.2-7.413,19.957-14.497c11.415-8.294,0,0,18.551-13.48l138.01-100.101
			c44.672,54.009,89.121,107.632,133.568,160.336C8666.506,2178.203,8823.354,2367.962,8828.973,2592.638z"/>
		<path id="_x31_80639398" fill="none" stroke="#010101" stroke-width="80" d="M8566.047,2531.109
			c27.072,60.592,38.347,133.984,13.271,197.283c-24.481,61.764-78.947,87.115-123.385,128.669
			c-28.839-14.767-57.524-29.614-86.285-44.457c-40.055-20.613-80.337-41.228-121.366-61.763c-7.078-3.54-14.231-7.078-21.379-10.54
			c-25.191-144.487-59.465-265.033-149.197-382.262c-45.058-58.922-91.088-115.004-138.771-170.165l280.902-203.881
			c7.983,5.688,15.812,10.839,23.269,15.146l-1.124,1.994c54.621,71.06,129.291,173.61,178.946,245.817
			C8490.104,2347.575,8514.471,2415.612,8566.047,2531.109z"/>
		<path id="_x31_80639397" fill="none" stroke="#010101" stroke-width="80" d="M8077.705,2358.041
			c89.732,117.228,124.006,237.776,149.197,382.262c-19.127-9.231-38.4-18.232-57.676-27.312
			c-26.502-12.463-53.076-25.002-79.203-38.307c-3.164-1.615-6.398-3.307-9.56-5c-18.597-10.074-36.971-21.686-55.569-33.832
			c-64.002-125.722-141.617-239.482-229.385-343.889l143.425-104.088C7986.617,2243.037,8032.647,2299.119,8077.705,2358.041z"/>
		<path id="_x31_80639396" fill="none" stroke="#010101" stroke-width="80" d="M8024.895,2635.851
			c-29.219-19.144-58.961-39.515-90.961-57.435c2.795,11.055,5.062,24.108,6.809,38.539
			c-25.838-113.093-112.994-209.208-192.388-290.733l47.155-34.261C7883.277,2396.37,7960.893,2510.129,8024.895,2635.851z"/>
		<path id="_x31_80639395" fill="none" stroke="#010101" stroke-width="80" d="M8920.401,3614.314
			c0.235,9.442,0.168,19.037-0.124,28.631c-2.784,85.121,5.801,176.397-13.771,259.965
			c-46.862,200.059-119.127,434.252-248.574,595.92c-50.291,62.812-115.469,143.031-185.798,182.873
			c-63.637,36.009-143.688,62.023-211.696,89.273c-109.085,43.715-224.571,78.902-340.828,96.129
			c-20.164,2.969-39.88,6.406-59.142,9.686c-7.674,1.297-15.275,2.592-22.875,3.812h-0.076c-7.52,1.219-14.975,2.365-22.421,3.504
			c-16.253,2.365-32.206,4.267-47.935,5.324l9.781-175.232c8.28,3.234,16.561,6.312,24.915,9.086
			c51.116,16.943,104.78,24.061,158.433,17.822c132.812-15.441,202.469-51.753,314.094-114.805
			c82.664-46.655,145.022-81.055,206.812-163.277c55.024-73.091,88.433-164.703,134.268-243.873
			c95.956-165.924,199.519-329.464,188.655-530.659c-9.486-174.638-87.729-320.482-112.259-490.835
			c-11.588-80.378,3.326-153.054,27.123-223.186c74.15,26.944,152.211,51.283,173.726,44.243c1.956-0.612,3.461-1.531,4.362-2.682
			c0.304-0.304,0.529-0.613,0.678-0.997c-3.38,6.981-6.613,13.809-9.615,20.562c-19.905,40.123-36.275,81.401-39.696,127.146
			c-5.308,40.983-2.787,83.74,8.847,134.336C8881.613,3402.804,8917.822,3504.854,8920.401,3614.314z"/>
		<path id="_x31_80639394" fill="none" stroke="#010101" stroke-width="80" d="M8804.12,3688.495
			c10.863,201.197-92.699,364.735-188.655,530.659c-45.835,79.17-79.243,170.782-134.268,243.873
			c-61.79,82.221-124.146,116.622-206.812,163.279c-111.623,63.052-181.282,99.363-314.095,114.803
			c-53.652,6.238-107.316-0.877-158.433-17.822l-24.915-9.084c-0.02-39.785,3.926-69.752,4.929-87.643
			c7.925,2.652,19.521,4.641,32.894,7.734c8.524,1.97,22.889,4.758,32.379,4.797c32.395,0.121,61.339,2.389,77.238,4.117
			c67.814,7.514,137.12,2.445,203.328-15.444c130.84-35.249,248.618-120.863,332.738-227.698
			c83.663-106.299,130.971-226.684,183.528-362.644c63.226-163.427,99.947-336.479,71.045-512.439
			c-32.607-198.226-150.073-360.464-30.062-556.223l2.178-5.986c10.461,3.851,21.149,7.852,31.846,11.701
			c-23.797,70.132-38.709,142.808-27.123,223.186C8716.391,3368.013,8794.634,3513.857,8804.12,3688.495z"/>
		<path id="_x31_80639393" fill="none" stroke="#010101" stroke-width="80" d="M8715.022,3524.981
			c28.902,175.961-7.819,349.013-71.045,512.441c-52.558,135.96-99.865,256.345-183.528,362.642
			c-84.12,106.836-201.898,192.451-332.738,227.698c-66.208,17.892-135.514,22.96-203.33,15.446
			c-27.846-3.025-72.21-2.769-95.76-5.658l-46.749-10.99c0.835-44.982,5.125-107.498,8.409-149.373l81.832,35.319
			c32.221,10.704,64.36,17.415,94.238,18.829c129.748,5.894,260.983-92.525,343.531-187.08
			c217.65-249.312,362.481-638.093,283.236-978.372c-12.614-54.052-40.579-102.898-67.922-218.832
			c-20.779-87.987,30.508-134.908,69.428-207.175l4.582-12.047c21.832,9.158,53.375,21.855,87.93,34.941l-2.176,5.985
			C8564.949,3164.519,8682.415,3326.757,8715.022,3524.981z"/>
		<path id="_x31_80639392" fill="none" stroke="#010101" stroke-width="80" d="M8599.207,2927.832l-4.58,12.046
			c-38.918,72.265-90.206,119.188-69.43,207.176c27.345,115.934,55.31,164.781,67.922,218.832
			c79.245,340.279-65.586,729.06-283.236,978.372c-82.548,94.555-213.781,192.974-343.529,187.08
			c-29.88-1.416-62.02-8.125-94.238-18.831c-27.627-9.162-55.334-21.167-81.832-35.319l15.558-276.928
			c114.921,93.388,243.442,73.027,338.376,24.844c155.56-78.896,229.009-334.498,230.973-502.522
			c1.745-151.597-7.746-250.241-11.409-394.474c-4.443-173.247,77.197-277.783,150.513-426.079l5.862-12.046
			c16.789,8.538,33.729,17.075,50.82,25.54C8575.042,2917.522,8585.053,2921.907,8599.207,2927.832z"/>
		<path id="_x31_80639391" fill="none" stroke="#010101" stroke-width="80" d="M8520.155,2889.983l-5.862,12.046
			c-73.315,148.296-154.956,252.833-150.511,426.079c3.663,144.233,13.152,242.878,11.407,394.475
			c-1.964,168.022-75.413,423.628-230.973,502.524c-94.934,48.182-223.453,68.542-338.374-24.844l6.369-114.285
			c17.481,26.805,39.554,49.627,68.767,65.009c98.256,51.995,218.608-12.585,284.92-88.045
			c179.385-204.143,126.323-549.227,144.691-799.823c9.445-130.172,41.208-295.323,132.562-393.401
			c4.135-4.446,8.416-8.664,12.78-12.575C8477.238,2868.14,8498.625,2879.062,8520.155,2889.983z"/>
		<path id="_x31_80639390" fill="none" stroke="#010101" stroke-width="80" d="M8455.932,2857.141
			c-4.364,3.91-8.646,8.128-12.78,12.576c-91.354,98.077-123.114,263.227-132.562,393.4
			c-18.368,250.597,34.693,595.683-144.691,799.821c-66.312,75.461-186.664,140.04-284.92,88.049
			c-29.215-15.386-51.285-38.204-68.765-65.011l17.265-307.705c26.818,31.421,54.684,56.091,82.994,70.474
			c327.961,166.146,362.035-797.521,337.812-959.121c-7.949-52.743-15.144-102.259-23.383-149.32
			c7.147,3.461,14.301,6.999,21.379,10.54c41.031,20.536,81.312,41.149,121.368,61.764
			C8398.408,2827.449,8427.094,2842.295,8455.932,2857.141z"/>
		<path id="_x31_80639389" fill="none" stroke="#010101" stroke-width="80" d="M8024.895,2635.851
			c18.599,12.148,36.973,23.76,55.569,33.832c3.159,1.771,6.399,3.463,9.562,5.076c26.125,13.308,52.7,25.847,79.201,38.231
			c19.276,9.079,38.549,18.08,57.676,27.312c8.239,47.062,15.434,96.577,23.383,149.319
			c24.223,161.603-9.852,1125.268-337.812,959.122c-28.311-14.383-56.176-39.051-82.996-70.475l44.606-794.403
			c25.816,0.564,41.808-40.407,52.448-94.664c0.075-0.23,0.073-0.461,0.148-0.691c9.598-42.285,15.498-93.936,17.635-144.363
			c0.075-0.308,0.076-0.692,0.074-1.075c1.117-12.28,2.012-24.1,2.979-35.152c2.682-31.468,0.096-61.791-6.625-90.965
			c-1.746-14.432-4.014-27.484-6.809-38.54C7965.934,2596.335,7995.676,2616.706,8024.895,2635.851z"/>
		<path id="_x31_80639388" fill="none" stroke="#010101" stroke-width="80" d="M7776.943,4714.203l-9.783,175.23
			c-65.618,4.614-127.714-4.812-190.973-54.777c-139.848-110.372-223.848-298.288-294.202-458.941
			c-17.875-40.701-31.757-85.313-54.522-124.178c-3.092-7.143-6.258-14.283-9.352-21.428l67.557-26.793
			c77.906,102.479,171.529,191.156,242.138,302.071C7584.257,4593.799,7674.406,4673.263,7776.943,4714.203z"/>
		<path id="_x31_80639387" fill="none" stroke="#010101" stroke-width="80" d="M7790.281,4477.189l-13.338,237.016
			c-102.537-40.942-192.687-120.408-249.136-208.813c-70.61-110.913-164.231-199.589-242.136-302.071l0.602-0.228
			c34.003-14.088,54.152-33.794,64.67-56.964c5.41-9.745,9.389-21.1,11.785-34.452c14.229-79.584-35.354-152.788-60.176-224.661
			c-0.756-2.15-1.436-4.299-2.114-6.525c-0.071-0.23-0.15-0.461-0.148-0.615c-3.7-15.05-6.727-30.324-9.147-45.682
			c-11.61-112.082,45.771-243.736,98.975-332.414c34.191-57.147,87.664-96.699,122.608-152.08
			c9.396-14.959,12.919-31.688,12.374-49.266c7.771,20.042,15.389,40.158,22.855,60.28l-9.025,3.444
			c1.529,113.218,10.87,211.25,25.094,296.623c-8.194,97.09-14.664,183.897-12.096,281.611
			c3.815,145.537-1.819,326.682,111.543,442.398C7696.911,4418.911,7741.718,4451.503,7790.281,4477.189z"/>
		<path id="_x31_80639386" fill="none" stroke="#010101" stroke-width="80" d="M7805.841,4200.264l-15.56,276.926
			c-48.563-25.688-93.37-58.278-126.814-92.396c-113.362-115.717-107.728-296.861-111.541-442.4
			c-2.57-97.714,3.899-184.521,12.094-281.613c24.965,149.55,64.875,260.436,104.008,346.981
			C7708.82,4097.995,7756.061,4159.834,7805.841,4200.264z"/>
		<path id="_x31_80639385" fill="none" stroke="#010101" stroke-width="80" d="M7564.02,3660.779
			c-14.224-85.37-23.564-183.402-25.094-296.623l9.025-3.443c23.008,61.43,44.886,123.243,65.562,185.438
			c39.238,117.942,80.644,221.764,122.142,340.783c21.428,61.277,37.824,139.895,76.56,199.041l-6.373,114.283
			c-49.78-40.428-97.021-102.267-137.814-192.501C7628.895,3921.213,7588.984,3810.333,7564.02,3660.779z"/>
		<path id="_x31_80639384" fill="none" stroke="#010101" stroke-width="80" d="M7829.479,3778.271l-17.265,307.705
			c-38.733-59.145-55.132-137.762-76.56-199.039c-41.496-119.018-82.901-222.841-122.14-340.783
			c-20.676-62.195-42.556-124.009-65.56-185.44c-7.469-20.119-15.087-40.235-22.857-60.278
			c-1.477-51.584-37.575-109.882-58.978-147.746c-0.979-1.766-1.96-3.455-2.864-5.223c-14.933-35.632-30.241-71.033-45.924-106.283
			c-16.824-45.456-33.043-91.531-56.562-134.154c-10.63-19.357-21.781-38.71-32.938-58.219c-0.074-0.229-0.15-0.384-0.301-0.537
			c-10.256-21.196-20.656-42.316-31.216-63.36c-26.608-53.223-48.929-102.14-68.312-146.912
			c-31.233-88.917-62.769-177.761-101.75-263.463c-29.104-64.049-73.32-113.681-31.84-180.957c1.729-2.762,3.455-5.369,5.107-7.899
			c47.414,87.478,78.793,171.714,99.916,226.313c90.812,234.669,180.941,371.164,286.502,601.55
			c49.762,108.743,75.442,215.157,113.162,317.364C7640.138,3442.404,7727.326,3658.802,7829.479,3778.271z"/>
		<path id="_x31_80639383" fill="none" stroke="#010101" stroke-width="80" d="M7874.084,2983.868l-44.605,794.403
			c-102.152-119.47-189.341-335.865-230.379-447.362c-37.718-102.206-63.398-208.621-113.16-317.363
			c-105.562-230.386-195.691-366.882-286.504-601.551c-21.121-54.599-52.502-138.834-99.914-226.313
			c46.227-66.577,105.623-45.022,163.086,7.771c7.006,8.987,14.09,17.977,21.172,26.888
			c38.799,48.936,79.332,100.331,120.695,153.339c17.707,26.805,32.63,49.697,43.326,64.137
			c151.52,204.108,236.048,307.897,365.199,489.798c2.186,3.227,4.369,6.375,6.48,9.525c3.616,5.376,7.158,10.292,10.625,14.672
			c0.225,0.309,0.375,0.54,0.602,0.846c12.282,17.36,23.58,26.583,33.891,29.204
			C7867.912,2983.169,7871.074,2983.786,7874.084,2983.868z"/>
		<path id="_x31_80639376" fill="none" stroke="#010101" stroke-width="80" d="M7201.644,4070.441
			c-85.342-172.799-140.669-357.461-164.767-549.305c-14.022-111.315,2.211-224.363-10.002-335.829
			c-9.24-83.542-42.215-141.288-71.633-208.191l-80.342,23.193c17.049,83.017,35.045,165.689,46.326,250.454
			c19.244,144.633,63.751,295.836,99.967,438.103c48.666,191.202,120.117,365.042,196.885,541.251l0.037-0.004l67.557-26.795
			c-0.904-1.15-1.809-2.38-2.789-3.609C7252.596,4159.534,7224.711,4117.135,7201.644,4070.441z"/>
		<path id="_x31_80639375" fill="none" stroke="#010101" stroke-width="80" d="M7315.949,3376.589
			c14.691-170.61-12.848-330.452-59.342-486.463l-301.366,86.992c29.419,66.903,62.394,124.648,71.634,208.19
			c12.213,111.467-4.02,224.514,10.002,335.828c24.1,191.846,79.425,376.508,164.767,549.305
			c23.071,46.697,50.952,89.093,81.239,129.271c0.982,1.229,1.885,2.459,2.791,3.609l0.602-0.228
			c34.005-14.089,54.154-33.794,64.67-56.966c30.047-66.133-17.678-160.443-40.991-232.237c-3.624-11.055-6.796-22.188-9.514-33.397
			c-0.073-0.232-0.15-0.463-0.15-0.615c-3.7-15.05-6.725-30.327-9.147-45.682
			C7268.057,3684.799,7303.287,3523.262,7315.949,3376.589z"/>
		<path id="_x31_80639374" fill="none" stroke="#010101" stroke-width="80" d="M7466.118,3152.688
			c-0.979-1.766-1.96-3.455-2.864-5.223c-14.933-35.631-30.241-71.033-45.926-106.283c-16.82-45.458-33.043-91.531-56.56-134.154
			c-7.385-13.453-15.03-26.904-22.749-40.403l-81.412,23.499c46.494,156.012,74.035,315.855,59.342,486.464
			c-12.662,146.672-47.895,308.209-24.809,457.605c-11.61-112.08,45.771-243.734,98.975-332.414
			c34.191-57.147,87.662-96.699,122.606-152.08c9.398-14.959,12.919-31.687,12.374-49.265
			C7523.621,3248.851,7487.521,3190.553,7466.118,3152.688z"/>
		<path id="_x31_80639382" fill="none" stroke="#010101" stroke-width="80" d="M6330.822,1605.381
			c-29.402,13.923-68.713,34.491-63.874,44.33c12.577,20.249,26.305,49.628,38.872,73.354c7.871,14.859,14.85,28.084,22.438,43.063
			c5.971,11.775,13.504,23.955,20.302,35.213c7.166,11.88,14.837,23.872,22.154,35.661c11.766,18.977,37.692,56.487,50.452,74.793
			c27.855,39.99,62.984,84.178,112.461,149.581l91.314-40.453C6535.986,1876.216,6433.865,1738.469,6330.822,1605.381z"/>
		<path id="_x31_80639381" fill="none" stroke="#010101" stroke-width="80" d="M6770.658,1956.362
			c-74.377-101.302-137.754-211.533-214.138-311.096c-24.031-31.265-51.148-59.464-79.169-86.897
			c-0.002-0.001-0.002-0.002-0.004-0.002c-1.644,0.098-3.288,0.217-4.924,0.344c-0.469,0.037-0.943,0.074-1.41,0.115
			c-1.639,0.137-3.271,0.286-4.902,0.454c-0.16,0.016-0.322,0.034-0.48,0.051c-1.52,0.163-3.043,0.34-4.561,0.528
			c-0.465,0.058-0.925,0.115-1.389,0.175c-1.619,0.212-3.238,0.43-4.851,0.669c-0.243,0.038-0.489,0.08-0.735,0.116
			c-1.438,0.218-2.871,0.451-4.306,0.694c-0.451,0.075-0.903,0.152-1.357,0.229c-1.604,0.281-3.202,0.573-4.804,0.881
			c-0.3,0.06-0.604,0.122-0.906,0.181c-1.384,0.273-2.768,0.557-4.149,0.853c-0.433,0.092-0.87,0.183-1.3,0.278
			c-1.594,0.345-3.187,0.707-4.771,1.083c-0.338,0.081-0.686,0.166-1.025,0.249c-1.357,0.329-2.713,0.666-4.068,1.012
			c-0.408,0.106-0.818,0.209-1.223,0.316c-1.586,0.414-3.172,0.842-4.755,1.284c-0.362,0.102-0.726,0.209-1.089,0.311
			c-1.354,0.383-2.703,0.778-4.053,1.182c-0.373,0.112-0.748,0.221-1.121,0.335c-1.584,0.48-3.164,0.976-4.746,1.484
			c-0.379,0.122-0.758,0.247-1.133,0.37c-1.363,0.445-2.727,0.898-4.085,1.362c-0.33,0.112-0.659,0.224-0.989,0.337
			c-1.582,0.547-3.166,1.106-4.744,1.68c-0.393,0.141-0.779,0.285-1.17,0.425c-1.385,0.511-2.768,1.025-4.146,1.554
			c-0.281,0.108-0.562,0.212-0.841,0.319c-1.587,0.611-3.171,1.237-4.751,1.872c-0.394,0.158-0.789,0.319-1.182,0.48
			c-1.428,0.579-2.854,1.168-4.281,1.769c-0.212,0.09-0.426,0.178-0.643,0.27c-1.59,0.675-3.18,1.365-4.768,2.063
			c-0.391,0.173-0.783,0.347-1.174,0.521c-1.499,0.669-2.999,1.343-4.498,2.032c-0.123,0.057-0.246,0.11-0.369,0.169
			c-1.597,0.737-3.191,1.493-4.788,2.256c-0.39,0.187-0.778,0.372-1.168,0.562c-1.606,0.772-3.213,1.554-4.815,2.353
			c-0.112,0.057-0.245,0.122-0.396,0.191c-0.033,0.021-0.07,0.038-0.111,0.056c-0.149,0.07-0.306,0.146-0.483,0.23
			c-0.006,0.001-0.01,0.003-0.014,0.005c-0.188,0.087-0.396,0.184-0.613,0.282c-0.051,0.024-0.098,0.044-0.148,0.069
			c-0.464,0.214-0.996,0.455-1.589,0.725c-0.013,0.003-0.021,0.008-0.03,0.012c-4.571,2.073-12.724,5.693-22.337,10.185
			c-0.124,0.058-0.248,0.117-0.373,0.177c-0.382,0.176-0.764,0.356-1.148,0.538c-0.2,0.094-0.405,0.191-0.61,0.285
			c-0.55,0.259-1.1,0.518-1.657,0.781c-0.179,0.084-0.36,0.169-0.538,0.257c103.043,133.089,205.166,270.833,294.115,415.539
			L6770.658,1956.362z"/>
		<path id="_x31_80639380" fill="none" stroke="#010101" stroke-width="80" d="M6949.424,1812.299
			c-56.168-57.76-128.171-88.953-189.371-138.452c-37.4-30.254-77.584-57.259-120.641-77.792c-0.002-0.002-0.006-0.004-0.008-0.004
			c-1.877-0.893-3.753-1.773-5.638-2.642c-0.126-0.058-0.25-0.115-0.377-0.173c-9.298-4.278-18.735-8.245-28.304-11.882
			c-0.557-0.211-1.109-0.423-1.662-0.631c-1.477-0.553-2.953-1.096-4.428-1.631c-0.746-0.269-1.489-0.538-2.234-0.803
			c-1.393-0.494-2.781-0.985-4.174-1.466c-0.858-0.295-1.719-0.581-2.578-0.873c-1.321-0.447-2.647-0.896-3.979-1.329
			c-1.084-0.351-2.172-0.692-3.26-1.035c-1.9-0.604-3.812-1.192-5.725-1.769c-1.352-0.405-2.697-0.812-4.051-1.204
			c-0.99-0.286-1.982-0.561-2.975-0.837c-1.33-0.375-2.658-0.744-3.994-1.103c-0.973-0.263-1.953-0.52-2.93-0.775
			c-1.388-0.362-2.776-0.717-4.17-1.064c-0.924-0.229-1.848-0.461-2.773-0.684c-1.543-0.373-3.093-0.732-4.64-1.086
			c-0.785-0.178-1.558-0.363-2.335-0.535c-2.335-0.517-4.67-1.019-7.021-1.495c-1.789-0.362-3.575-0.694-5.359-1.017
			c-0.475-0.086-0.948-0.169-1.424-0.253c-1.555-0.273-3.105-0.53-4.652-0.773c-0.25-0.041-0.5-0.08-0.747-0.121
			c-1.753-0.27-3.495-0.513-5.242-0.745c-0.466-0.062-0.929-0.12-1.394-0.18c-1.431-0.18-2.863-0.35-4.287-0.505
			c-0.383-0.042-0.762-0.089-1.139-0.128c-1.722-0.18-3.43-0.341-5.141-0.484c-0.436-0.038-0.875-0.068-1.31-0.103
			c-1.379-0.108-2.751-0.206-4.126-0.292c-0.453-0.028-0.908-0.059-1.363-0.085c-1.689-0.096-3.381-0.177-5.066-0.237
			c-0.377-0.013-0.752-0.021-1.132-0.034c-1.382-0.044-2.761-0.078-4.134-0.098c-0.497-0.008-0.997-0.016-1.49-0.018
			c-1.677-0.017-3.342-0.021-5.011-0.001c-0.271,0.001-0.543,0.009-0.811,0.014c-1.448,0.021-2.894,0.055-4.337,0.102
			c-0.514,0.017-1.029,0.033-1.539,0.056c-1.52,0.057-3.031,0.127-4.551,0.211c-0.182,0.009-0.363,0.015-0.549,0.026
			c0-0.001-0.004,0-0.006,0c0.002,0.002,0.002,0.002,0.006,0.004c28.017,27.432,55.136,55.63,79.167,86.896
			c76.384,99.562,139.761,209.793,214.138,311.096l130.408-57.773l91.702-40.629
			C6978.488,1842.572,6964.05,1827.342,6949.424,1812.299z"/>
		<path id="_x31_80639379" fill="none" stroke="#010101" stroke-width="80" d="M6931.891,2917.78
			c-18.336-54.058-28.172-113.171-34.466-169.672c-29.581-264.55-135.382-504.135-272.485-727.186l-91.314,40.452
			c16.144,21.342,33.814,44.936,53.26,71.39c58.29,79.284,122.693,186.028,161.463,276.472
			c42.602,99.37,60.795,230.785,67.39,338.789c5.212,85.346,41.396,165.597,58.431,248.717c0.244,1.189,0.489,2.378,0.73,3.568
			l80.342-23.192C6946.975,2958.32,6938.99,2938.8,6931.891,2917.78z"/>
		<path id="_x31_80639378" fill="none" stroke="#010101" stroke-width="80" d="M6772.643,1961.6
			c-1.27-1.712-2.525-3.435-3.784-5.151l-145.72,64.561c137.105,223.051,242.904,462.636,272.485,727.187
			c6.296,56.5,16.132,115.615,34.466,169.672c7.099,21.019,15.084,40.538,23.35,59.335l301.365-86.992
			c-40.035-134.338-94.123-265.838-147.408-398.935C7020.358,2274.038,6908.717,2145.504,6772.643,1961.6z"/>
		<path id="_x31_80639377" fill="none" stroke="#010101" stroke-width="80" d="M7327.828,2848.81
			c-0.072-0.229-0.148-0.384-0.299-0.537c-10.256-21.197-20.656-42.316-31.216-63.361c-26.608-53.222-48.929-102.139-68.31-146.912
			c-31.233-88.917-62.77-177.76-101.752-263.462c-0.726-1.598-1.462-3.183-2.202-4.76c-0.021-0.047-0.044-0.092-0.063-0.135
			c0-0.001,0-0.002,0-0.002c-0.529-1.122-1.061-2.24-1.594-3.351c-0.006-0.008-0.009-0.018-0.015-0.027
			c-0.077-0.159-0.153-0.32-0.23-0.482c-0.011-0.021-0.021-0.041-0.03-0.062c-0.586-1.209-1.172-2.411-1.763-3.612
			c-0.016-0.029-0.027-0.059-0.043-0.09c-0.093-0.188-0.187-0.374-0.277-0.563c-0.63-1.273-1.264-2.545-1.896-3.812
			c-0.086-0.167-0.17-0.334-0.254-0.504c-0.014-0.021-0.021-0.044-0.033-0.063c-0.72-1.434-1.445-2.858-2.176-4.28
			c-0.071-0.145-0.146-0.288-0.219-0.431c-0.023-0.051-0.053-0.101-0.076-0.151c-0.371-0.721-0.738-1.441-1.108-2.158
			c-0.026-0.054-0.056-0.105-0.08-0.159c-0.241-0.469-0.48-0.936-0.725-1.4c-0.271-0.529-0.549-1.059-0.823-1.589
			c-0.205-0.395-0.408-0.792-0.615-1.185c-0.033-0.066-0.068-0.133-0.105-0.196c-0.709-1.371-1.418-2.731-2.129-4.092
			c-4.957-9.49-9.84-18.767-14.25-27.949c-0.018-0.038-0.035-0.074-0.053-0.112c-0.714-1.486-1.416-2.975-2.104-4.461
			c-17.056-36.809-25.395-72.495,1.02-115.334c1.729-2.76,3.457-5.368,5.109-7.9c47.764-66.378,104.059-45.571,160.815,5.705
			c-24.215-31.965-46.702-62.011-65.425-87.81c-62.38-85.946-130.045-167.951-202.141-245.618l-91.703,40.629l-130.408,57.775
			c1.261,1.715,2.518,3.437,3.783,5.148c136.074,183.904,247.717,312.439,334.756,529.681
			c53.285,133.093,107.371,264.592,147.408,398.932l81.412-23.499C7334.629,2860.695,7331.233,2854.763,7327.828,2848.81z"/>
		<path id="_x31_80639338" fill="none" stroke="#010101" stroke-width="80" d="M6790.356,2961.403
			c10.448-66.203,33.312-133.76,29.149-201.863c-6.613-108.004-24.846-239.42-67.564-338.789
			c-38.872-90.443-103.441-197.189-161.888-276.475c-96.278-130.636-210.167-262.921-281.806-409.696
			c-122.21-250.408-333.502-457.026-542.672-632.093c-71.137-59.531-137.814-115.074-203.389-181.917
			c-35.022-35.693-128.766-104.243-171.127-99.326c-59.643,6.925-120.674,40.098-175.496,63.332
			c-54.604,23.135-113.251,54.743-170.715,69.74c-24.475,6.389-49.996,1.716-73.569,8.676c-23.899,7.063-44.175,26.62-59.646,45.551
			l-0.111,1360.976l2.561-3.464c10.863,67.77,25.904,137.912,72.328,191.851c25.324,29.42,26.031,29.732,9.863,67.866
			c-15.848,37.394-38.082,69.815-43.613,110.069c-3.369,24.493-4.568,63.228-38.215,46.629l0,0l-3.075,1391.873
			c-1.2,3.801,109.915,49.736,119.862,52.545c117.056,33.11,260.658-2.787,367.58-52.904
			c59.402-27.836,113.076-59.771,181.188-47.07c29.701,5.543,56.611,18.188,87.345,18.271c66.57,0.188,115.581-8.308,180.261-25.795
			c49.145-13.282,100.175-34.519,142.659-63.282c59.171-40.038,105.937-76.379,141.271-141.53
			c29.326-54.04,21.009-111.426,10.434-170.692c-11.275-63.227-17.963-135.747-0.172-199.57
			c26.678-95.726,121.961-100.385,208.111-114.916c112.293-18.943,208.64-58.529,312.855-88.581
			c100.129-28.873,129.845,25.083,109.854-117.246c-0.012-0.084-0.023-7.842-0.037-7.921
			C6771.439,3129.033,6776.865,3046.916,6790.356,2961.403z"/>
		<path id="_x31_80639357" fill="none" stroke="#010101" stroke-width="80" d="M4961.725,1457.751
			c1.568,25.712,22.664,12.615,41.834-31.889c20.654-47.949,14.572-61.608,39.559-96.015
			c39.151-53.891,168.431-61.437,225.587-55.301c90.317,9.688,165.591,30.877,255.396,59.666
			c88.989,28.53,177.39,64.416,262.139,105.911c90.352,44.231,167.526,90.366,257.155,143.343
			c107.621,63.61,183.209,100.995,235.58,218.605c33.273,74.688,67.157,147.049,104.062,219.893
			c20.47,40.371,50.366,81.253,74.062,51.815c5.217-6.481,11.875-11.766,18.08-16.965c14.072-56.363-3.634-62.917-41.301-130.513
			l-30.012-39.513c-15.156-22.527-30.318-45.507-44.887-68.906c-12.317-15.167-23.001-29.678-30.599-43.294
			c-20.304-36.378-44.366-68.43-71.291-97.165l14.108,20.326l-14.108-20.326c-118.04-125.974-291.197-188.073-444.539-269.899
			c-99.762-53.237-202.741-97.481-310.546-134.658c-83.531-28.797-164.103-54.642-250.275-53.992
			c-52.396,0.389-176.858-4.027-220.094,40.066c-17.811,18.172-30.92,58.434-37.541,84.34c-7.438,29.101-24.35,61.217-30.037,90.213
			C4962.046,1443.734,4961.363,1451.785,4961.725,1457.751"/>
		<path id="_x31_80639358" fill="none" stroke="#010101" stroke-width="80" d="M4964.057,1433.498
			c5.688-28.998,22.599-61.114,30.035-90.214c6.623-25.906,19.732-66.168,37.545-84.34c43.231-44.094,167.694-39.676,220.092-40.066
			c86.173-0.65,166.744,25.195,250.275,53.993c107.807,37.176,210.784,81.421,310.546,134.657
			c153.337,81.826,326.495,143.924,444.539,269.899l-52.938-76.25c-65.206-53.266-123.556-104.178-183.528-168.03
			c-146.548-156.013-285.475-318.016-469.847-423.7c-161.063-92.331-311.452-62.015-494.83-27.52
			c-141.482,26.619-84.581,245.62-115.353,357.951c-10.36,37.787,3.916,103.366-27.307,128.099l0.002,2.769l48.434-12.993
			C4961.363,1451.785,4962.046,1443.734,4964.057,1433.498z"/>
		<path id="_x31_80639359" fill="none" stroke="#010101" stroke-width="80" d="M4940.596,1339.877
			c30.771-112.332-26.126-331.333,115.354-357.951c183.374-34.498,333.765-64.812,494.828,27.52
			c184.374,105.683,323.301,267.687,469.849,423.7c59.971,63.853,118.32,114.762,183.526,168.03l52.938,76.25
			c26.927,28.735,50.989,60.789,71.291,97.166c7.598,13.615,18.281,28.128,30.599,43.293
			c-19.242-30.908-37.439-62.545-53.166-94.837c-121.899-250.4-332.623-457.011-541.246-632.072
			c-70.947-59.529-137.451-115.072-202.854-181.916c-34.93-35.694-128.43-104.244-170.678-99.328
			c-59.482,6.925-120.355,40.103-175.029,63.335c-54.459,23.131-112.95,54.743-170.271,69.74
			c-24.404,6.391-49.861,1.716-73.377,8.68c-23.828,7.056-44.051,26.615-59.482,45.548l0.416,470.941
			C4944.512,1443.242,4930.235,1377.664,4940.596,1339.877z"/>
		<path id="_x31_80639345" fill="none" stroke="#010101" stroke-width="80" d="M6707.84,2701.235
			c-2-84.379-16.051-116.212-32.793-198.532c-11.678-57.439-89.85-197.939-123.145-259.509
			c-38.012-70.293-237.32,36.427-298.135,74.458c-68.646,42.929-99.26,73.281-147.581,136.147
			c-80.812,105.118,3.425,342.246,92.631,500.318c81.208,143.917,130.808,211.729,259.8,180.908
			c76.008-18.165,140.652-53.414,194.311-108.304C6694.283,2984.417,6710.438,2811.074,6707.84,2701.235z"/>
		<path id="_x31_80639340" fill="none" stroke="#010101" stroke-width="80" d="M6608.645,3256.071
			c-40.041-101.715-216.523-32.423-256.935,36.023C6253.818,3457.922,6676.007,3427.187,6608.645,3256.071z"/>
		<path id="_x31_80639341" fill="none" stroke="#010101" stroke-width="80" d="M6643.703,3221.851
			c-2.601,40.418-24.891,91.57,14.824,115.844c10.729,6.564,109.266-21.556,109.573-29.389
			c1.686-43.856,16.034-303.154-26.387-303.811C6689.326,3003.684,6650.096,3122.131,6643.703,3221.851z"/>
		<path id="_x31_80639349" fill="none" stroke="#010101" stroke-width="80" d="M5603.252,3021.798
			c16.205-6.911,18.494,36.524-4.618,34.508C5583.771,3055.005,5591.023,3027.005,5603.252,3021.798z"/>
		<path id="_x31_80639350" fill="none" stroke="#010101" stroke-width="80" d="M5385.219,3267.191
			c26.229-37.087,48.248,48.149,21.035,65.426C5382.035,3347.999,5377.296,3278.387,5385.219,3267.191z"/>
		<path id="_x31_80639351" fill="none" stroke="#010101" stroke-width="80" d="M5594.291,2801.74
			c15.416-47.989,34.266-7.93,26.348,19.223c-5.631,19.313-21.054,55.261-26.496,55.205
			C5582.809,2876.045,5586.635,2825.552,5594.291,2801.74z"/>
		<path id="_x31_80639352" fill="none" stroke="#010101" stroke-width="80" d="M5556.447,2562.473
			c11.332,46.064,88.814,144.443,40.258,136.929c-36.4-5.634-78.456-69.729-83.153-103.153
			c-3.653-25.903,3.753-115.414,39.23-120.527C5593.738,2469.853,5551.857,2543.826,5556.447,2562.473z"/>
		<path id="_x31_80639348" fill="none" stroke="#010101" stroke-width="80" d="M6019.34,3361.879
			c7.229,15.604,8.819,38.837,10.639,52.039c6.135,44.549,3.142,90.21,7.724,134.519c4.278,41.338,12.403,82.552,13.936,124.155
			c0.55,14.993,5.146,44.48-5.267,55.609c-22.22,23.74-79.882-5.98-103.811-12.013c-0.018-0.007-0.033-0.01-0.051-0.017
			c-111.496-28.09-326.437,87.61-360.34,106.432c-65.963-19.5-126.762-37.471-194.826-20.976
			c-58.502,14.181-123.07,45.771-182.875,19.403c-58.205-25.669-28.9-51.005-5.344-93.023
			c19.699-35.127,24.358-79.467,2.874-115.045c-10.105-16.728-49.925-33.711-49.265-55.728
			c0.793-26.567,73.969-51.995,94.314-64.884c94.211-59.686,179.264-132.775,268.286-199.926
			c46.979-35.434,75.554-78.766,93.587-126.741c49.619-73.047,94.857-101.825,156.229-90.375
			c63.893,11.931,104.539,19.758,105.289,47.044c-25.189,61.177-43.418,123.014-43.377,168.797
			c0.023,21.311,3.999,39.138,13.065,51.794c16.123,22.526,50.644,28.958,102.616,19.14c27.7-5.232,44.377-32.057,68.402-11.715
			C6014.49,3353.202,6017.168,3357.196,6019.34,3361.879z"/>
		<path id="_x31_80639353" fill="none" stroke="#010101" stroke-width="80" d="M6109.938,2345.36
			c-236.034-31.355-297.476-409.419-457.131-539.165c-170.69-138.716-350.983-190.872-567.747-194.181
			c-45.973-0.7-123.983,2.37-108.441-27.288l-63.219,8.862l0.326,369.488c184.168,27.968,292.304,62.025,451.682,163.589l8.559,5.64
			c-11.533-11.63-22.112-22.619-31.162-32.53c-3.28-3.597,18.115-13.202,45.219-2.134c35.689,14.572,79.33,34.387,84.502,38.216
			c63.461,46.862,342.451,234.369,260.165,335.09c-10.792-14.451-22.237-31.319-33.186-48.812
			c40.542,69.557,62.364,147.181,38.688,225.188c-6.517,21.439-15.798,41.186-24.775,60.277
			c-8.766,18.642-17.048,36.255-22.475,54.56c-7.15,24.102-9.521,50.379-12.031,78.191c-2.051,22.803-4.179,46.375-9.178,69.244
			l-3.525,15.389c-8.159,34.858-17.415,74.364-0.064,99.889c11.103,16.322,39.429,28.865,75.77,33.556
			c52.475,6.77,109.643-3.722,132.986-24.395c16.333-14.471,28.555-33.86,41.484-54.38c12.883-20.426,26.185-41.551,44.648-59.385
			c66.391-64.146,102.023-149.151,97.736-233.207l-1.639-28.232c-4.01-65.18-8.555-139.06,20.271-203.215
			c19.11-42.546,47.397-72.696,79.246-97.306l-10.54-13.421C6137.213,2347.077,6125.362,2347.402,6109.938,2345.36z"/>
		<path id="_x31_80639354" fill="none" stroke="#010101" stroke-width="80" d="M5472.529,2135.855
			c-5.174-3.829-48.812-23.644-84.502-38.217c-27.104-11.065-48.499-1.463-45.221,2.136c9.048,9.911,19.627,20.898,31.164,32.53
			l108.154,71.238c74.051,67.58,116.777,79.892,178.877,161.384c1.893,2.486,3.769,4.99,5.629,7.508
			c4.211,2.936,7.418,6.091,9.436,9.777c4.155,7.599,8.578,15.337,13.164,23.064c3.54,5.563,6.974,11.183,10.279,16.855
			c10.947,17.491,22.395,34.361,33.184,48.812C5814.98,2370.225,5535.988,2182.718,5472.529,2135.855z"/>
		<path id="_x31_80639355" fill="none" stroke="#010101" stroke-width="80" d="M6110.158,2204.681
			c-66.875-84.521-122.977-137.956-175.439-234.129c-36.274-66.48-105.145-159.928-158.227-212.535
			c-113.715-112.684-242.223-186.037-397.035-228.405c-77.564-21.225-150.973-22.451-230.143-12.705
			c-40.959,5.042-107.165,15.278-141.167,38.609c-17.778,12.199-27.614,21.741-31.528,29.209
			c-8.617,16.444,16.158,24.039,39.027,25.368c9.52,0.553,150.965-7.782,304.436,29.466c94.802,23.009,189.8,74.736,274.282,122.756
			c119.844,68.118,187.213,226.969,299.835,418.832c26.067,57.521,121.974,151.756,215.741,164.212
			c15.424,2.045,27.276,1.719,36.17-0.472C6202.42,2331.02,6139.889,2242.24,6110.158,2204.681z"/>
		<path id="_x31_80639356" fill="none" stroke="#010101" stroke-width="80" d="M6457.1,2073.777
			c-23.693,29.44-53.592-11.441-74.06-51.813c-36.905-72.843-70.79-145.205-104.062-219.893
			c-52.373-117.612-127.961-154.997-235.58-218.605c-89.631-52.976-166.804-99.112-257.157-143.344
			c-84.751-41.495-173.149-77.38-262.139-105.91c-89.806-28.789-165.081-49.978-255.396-59.666
			c-57.158-6.136-186.438,1.41-225.589,55.301c-24.984,34.406-18.902,48.063-39.559,96.014
			c-19.17,44.505-40.266,57.602-41.832,31.89l-48.432,12.993l0.107,122.841l63.219-8.861c3.914-7.468,13.748-17.01,31.528-29.209
			c34.002-23.331,100.208-33.567,141.167-38.609c79.168-9.747,152.578-8.521,230.141,12.705
			c154.812,42.371,283.322,115.722,397.037,228.405c53.08,52.607,121.954,146.055,158.227,212.535
			c52.463,96.171,108.564,149.606,175.441,234.128c29.73,37.56,92.262,126.337,35.95,140.205l10.54,13.421
			c23.963-18.516,49.937-33.897,75.539-49.053c18.496-10.948,37.618-22.271,55.573-34.562
			c63.872-43.756,146.623-94.067,173.354-172.155c6.319-18.458,10.957-33.294,14.062-45.72
			C6468.977,2062.015,6462.315,2067.299,6457.1,2073.777z"/>
		<path id="_x31_80639339" fill="none" stroke="#010101" stroke-width="80" d="M5574.403,2307.266
			c-56.618-50.12-112.966-94.149-175.094-136.431c-159.659-108.669-297.793-156.221-485.563-184.733l0.336,379.957
			c10.863,67.768,25.904,137.91,72.328,191.849c25.325,29.421,26.029,29.733,9.863,67.866
			c-15.849,37.394-38.084,69.816-43.613,110.069c-3.371,24.494-4.57,63.227-38.217,46.629l3.774,9.6
			c32.16,30.766,48.044,70.056,83.394,100.019c35.184,29.835,75.646,53.823,103.74,91.522c70.143,94.132-4.422,235.176-31.527,332.1
			c-15.119,54.084-40.649,107.965-42.459,164.864c-1.6,50.336,9.869,80.385-28.583,113.715
			c-19.854,17.207-35.856,36.689-45.575,60.298c12.597-27.444,38.453-48.097,64.785-61.229
			c32.781-16.357,72.012-23.165,106.169-36.841c-23.116,7.458-45.899,8.936-59.925,2.611
			c-53.398-24.075-33.559-118.557,24.711-139.373c48.426-17.297,104.005-6.772,113.691,45.707
			c5.63,30.524-14.618,56.524-42.037,74.006c128.088-64.692,235.571-160.184,350.733-247.046
			c134.255-101.264,118.158-267,135.509-421.182c11.474-101.925,55.787-185.35,73.871-283.262
			C5745.681,2474.448,5662.645,2385.38,5574.403,2307.266z M5406.254,3332.617c-24.219,15.381-28.958-54.232-21.035-65.426
			C5411.449,3230.104,5433.467,3315.341,5406.254,3332.617z M5513.552,2596.248c-3.653-25.903,3.753-115.414,39.23-120.527
			c40.956-5.869-0.923,68.104,3.665,86.753c11.332,46.065,88.814,144.441,40.258,136.928
			C5560.305,2693.768,5518.249,2629.672,5513.552,2596.248z M5598.634,3056.307c-14.862-1.302-7.61-29.301,4.618-34.508
			C5619.457,3014.887,5621.746,3058.323,5598.634,3056.307z M5620.639,2820.962c-5.631,19.313-21.054,55.262-26.496,55.205
			c-11.336-0.122-7.508-50.615,0.148-74.427C5609.707,2753.751,5628.557,2793.811,5620.639,2820.962z"/>
		<path id="_x31_80639344" fill="none" stroke="#010101" stroke-width="80" d="M6046.671,2900.714
			c-45.096,6.312-91.943,51.519-131.925,127.297c-45.022,85.38-87.742,193.07-87.678,263.141
			c0.018,21.306,3.989,39.132,13.062,51.795c16.119,22.52,50.644,28.96,102.616,19.142c42.99-8.118,66.465-40.385,93.643-77.733
			l6.992-9.577c39.273-53.443,83.071-65.255,138.514-80.204l9.462-2.569c62.622-17.027,81.642-37.725,72.669-79.077
			c-12.412-57.222-69.039-116.896-110.393-160.475l-1.791-1.894C6115.959,2912.733,6080.572,2895.965,6046.671,2900.714z"/>
		<path id="_x31_80639346" fill="none" stroke="#010101" stroke-width="80" d="M5092.947,3419.757
			c48.428-17.295,104.005-6.77,113.691,45.709c12.282,66.567-98.498,111.663-138.4,93.668
			C5014.84,3535.059,5034.676,3440.577,5092.947,3419.757z"/>
		<path id="_x31_80639342" fill="none" stroke="#010101" stroke-width="80" d="M5147.805,4239.373
			c146.559-4.004,71.854-217.659-37.369-163.28C5026.209,4118.023,5046.293,4242.145,5147.805,4239.373z"/>
		<path id="_x31_80639343" fill="none" stroke="#010101" stroke-width="80" d="M5577.613,3825.171
			c25.9,6.016,53.314,18.683,77.161,30.784c118.501,60.088,80.97,73.006-39.396,122.771
			c-74.107,30.638-37.803,134.849,36.499,151.142c178.151,39.061,471.52-110.304,448.849-212.036
			c-22.822-102.419-71.131-179.72-158.217-201.655C5821.254,3685.619,5577.613,3825.171,5577.613,3825.171"/>
		<path id="_x31_80639347" fill="none" stroke="#010101" stroke-width="80" d="M4914.443,2782.472
			c1.223,1.172,0.868,4.443,3.046,8.184c1.909,3.277,6.378,7.064,7.376,8.126c27.879,29.616,43.922,65.483,76.746,93.309
			c35.184,29.835,75.646,53.824,103.74,91.522c70.141,94.132-4.422,235.176-31.527,332.1
			c-15.121,54.085-40.651,107.964-42.461,164.865c-1.598,50.334,9.871,80.385-28.581,113.715
			c-25.39,22.006-44.481,47.724-52.188,81.047c-3.16,13.725,40.023,153.049-39.012,133.775L4914.443,2782.472z"/>
		<path id="_x31_80639364" fill="none" stroke="#010101" stroke-width="80" d="M7631.257,5448.305
			c-63.392-76.781-205.931-74.014-295.954-82.135c-99.65-8.987-210.029-20.207-286.694-96.443
			c-36.659-36.462-77.726-70.186-124.307-92.646c-33.597-16.186-97.305,4.141-121.607-21.805
			c-38.312-40.926,37.981-137.41,55.271-177.168c30.887-70.977,50.135-146.551,63.7-222.82
			c16.749-94.168,45.172-361.176-49.745-426.16c-57.337-39.236-99.25,20.961-144.559,45.412
			c59.993-128.703,202.789-256.324,196.205-409.697c-2.783-64.45-35.449-153.306-62.627-211.733
			c-60.045-129.108-67.537-262.852-80.402-402.168c-0.342-3.704-90.185,6.499-101.221,9.368
			c-50.806,13.26-101.826,24.982-152.299,39.41c-121.928,34.856-154.524,47.618-317.543,93.501
			c-123.077,34.64,40.562,329.258-74.848,460.474c-106.829,121.452-317.922,223.612-477.73,209.257
			c-66.307-5.964-85.811-31.803-154.198-14.123c-76.88,19.865-142.864,70.289-221.729,86.826
			c-127.121,26.641-247.615,28.943-365.285-35.066l0.774,880.868c0.292,0.191,0.608,0.397,0.976,0.641
			c41.736,46.876,77.405,85.251,71.596,152.913c-5.673,66.031-4.503,228.33-70.359,218.666l1.558-366.523
			c-0.405-0.705-2.244-2.539-3.768-4.126l1.094,1243.772c27.786,30.396,79.212,49.503,123.622,61.209
			c115.263,30.367,254.773-43.554,371.251-51.97c111.921-8.073,228.567-60.136,328.421-108.306
			c217.318-104.824,440.499-184.85,570.864-401.652c42.923-71.381,83.116-140.243,117.14-216.611
			c38.945-87.432,84.47-172.121,142.324-248.079c20.562-26.985,164.014-195.801,193.992-101.552
			c8.078,25.421-25.557,59.656-38.293,77.252c-59.559,82.236-102.051,243.496-53.803,338.562
			c57.896,114.083,200.935,183.286,321.322,187.186c136.463,4.415,185.107-74.148,267.134-165.967
			c104.153-116.605,139.368-129.559,289.271-138.245C7618.136,5554.708,7694.206,5524.539,7631.257,5448.305z M5657.006,5839.044
			c-9.436,21.404-7.727,46.458-11.019,69.788c-1.769,12.541-4.179,25.195-12.158,35.295c-27.983,35.418-76.751,43.041-125.808,42.99
			c-63.968-0.067-128.885,8.32-185.619,12.6c-50.17,3.787-81.913,9.771-129.182,16.498c-78.772,11.203-159.27,24.133-165.582-20.646
			c4.988-35.818,53.535-80.604,82.699-102.257c57.095-42.366,111.573-58.731,179.285-80.405
			c89.148-28.533,130.049-40.985,217.098-69.693c42.691-14.085,107.312-53.34,152.879-30.275
			C5721.229,5744.133,5676.096,5795.758,5657.006,5839.044z"/>
		<path id="_x31_80639373" fill="none" stroke="#010101" stroke-width="80" d="M6777.546,3354.37
			c-1.537,20.823,1.921,40.302,5.321,60.894c-8.684-14.97-15.809-33.06-28.23-43.928c-7.447-6.517-16.809-10.444-29.543-9.533
			c-30.447,2.138-46.395,34.787-54.123,60.959c-15.471,52.309-16.784,106.855-2.689,159.489l-5.301,2.275
			c-93.62,34.926-163.609,74.664-268.93,130.202c-60.498,31.905-143.274,99.94-208.736,118.758l-10.781,1.615
			c1.767-28.344,4.672-56.027,1.84-85.127c-3.706-38.188-9.723-76.079-12.874-114.351c-3.899-47.343-13.15-125.759,45.981-142.407
			c163.006-45.879,195.611-58.637,317.516-93.501C6610.637,3375.809,6696.629,3338.934,6777.546,3354.37z"/>
		<path id="_x31_80639372" fill="none" stroke="#010101" stroke-width="80" d="M6698.125,3676.021l-1.199,0.648
			c-16.889,9.423-34.111,18.296-51.924,25.646c-71.537,29.551-141.311,62.521-209.639,101.409
			c-72.945,41.52-140.454,115.462-221.727,141.099l-0.676,0.04c-21.879-24.045-40.253-46.235-39.486-85.605
			c0.158-8.133,0.561-16.169,1.059-24.153l10.781-1.617c65.466-18.815,148.238-86.849,208.738-118.756
			c105.32-55.54,175.31-95.278,268.93-130.202l5.299-2.275c0.625,2.337,1.277,4.669,1.963,7.006
			C6674.428,3603.447,6686.744,3641.559,6698.125,3676.021z"/>
		<path id="_x31_80639371" fill="none" stroke="#010101" stroke-width="80" d="M6761.821,3917.125
			c14.287,77.217,13.269,157.344-6.097,233.494c-10.201,40.088-24.295,77.675-39.859,115.955
			c-11.071,27.241-20.691,55.068-29.754,83.07c-7.748,23.934-8.838,48.121-17.02,71.533
			c-19.197,54.938-48.217,106.049-76.39,156.537c-4.353,7.812-38.083,87.203-38.485,87.154
			c-117.108-15.496-176.883-107.993-223.178-207.994c-39.023-84.307-67.006-180.332-56.002-274.488
			c3.146-26.969,4.49-54.186,2.826-81.316c-2.902-47.095-14.138-97.355-45.133-134.075c-6.625-7.862-13.358-15.075-19.775-22.133
			l0.676-0.04c81.274-25.635,148.783-99.579,221.729-141.099c68.33-38.889,138.102-71.856,209.639-101.409
			c17.812-7.35,35.035-16.223,51.925-25.646l1.2-0.648c8.182,24.767,15.883,47.664,19.732,58.421
			c9.387,26.262,12.871,51.733,20.174,78.505C6747.559,3847.831,6755.249,3881.599,6761.821,3917.125z"/>
		<path id="_x31_80639365" fill="none" stroke="#010101" stroke-width="80" d="M6432.504,5241.777
			c-2.453,47.145,11.789,100.532-0.031,147.002c-9.131,35.905-39.686,76.594-36.234,115.252
			c6.277,69.987,58.806,10.336,78.776-14.596c25.823-32.234,86.851-99.244,91.806-140.752c3.203-28.25-19.348-57.262-20.707-85.529
			c-1.973-41.271,20.345-83.065,26.819-123.332c4.991-30.971-10.278-136.954-48.212-145.555
			c-41.256-9.355-47.771,67.907-57.443,95.562C6449.851,5139.556,6435.281,5188.479,6432.504,5241.777z"/>
		<path id="_x31_80639368" fill="none" stroke="#010101" stroke-width="80" d="M5836.578,6123.354
			c-135.645,59.428-122.902-93.049-117.014-185.08c8.209-128.684-18.832-238.8,97.252-317.886
			c123.619-84.204,253.418-154.251,341.756-282.444c33.3-48.323,139.805-249.804,185.404-91.939
			c66.939,231.797-45.385,473.857-209.351,632.451C6042.93,5967.159,5955.053,6071.419,5836.578,6123.354z"/>
		<path id="_x31_80639366" fill="none" stroke="#010101" stroke-width="80" d="M5116.201,5483.983
			c-32.127-37.441-82.505-43.511-105.078-90.331c-17.412-36.105,8.82-110.09,8.956-149.039
			c0.224-60.355-20.097-137.777,13.028-163.104c45.126-34.489,152.271-23.199,200.107,15.191
			c82.133,65.936,33.492,249.863,138.461,297.56c46.074,20.915,143.527-38.449,139.678,48.905
			c-4.803,108.633-180.998,184.651-272.048,159.646c-60.384-16.589-84.604-74.922-122.94-118.651
			C5116.303,5484.104,5116.25,5484.044,5116.201,5483.983z"/>
		<path id="_x31_80639370" fill="none" stroke="#010101" stroke-width="80" d="M5147.572,4350.155
			c-35.267-30.777-73.689-56.47-112.629-81.299l1.221,4.777c53.27,137.658,30.334,269.63,19.104,412.557
			c-9.096,115.815-33.094,228.384-33.472,345.002c6.33-2.523,12.368-5.347,17.979-8.562c43.719-25.018,59.712-84.235,85.746-125.101
			c50.818-79.754,80.784-150.855,84.156-246.049C5213.707,4537.543,5241.812,4432.397,5147.572,4350.155z"/>
		<path id="_x31_80639369" fill="none" stroke="#010101" stroke-width="80" d="M5036.164,4273.634l-1.223-4.777
			c-38.864-24.78-78.242-48.694-115.5-75.939l-3.005,863.527c32.108-7.38,72.696-12.231,105.357-25.252
			c0.378-116.62,24.372-229.187,33.468-345C5066.496,4543.262,5089.432,4411.293,5036.164,4273.634z"/>
		<path id="_x31_80639367" fill="none" stroke="#010101" stroke-width="80" d="M6125.26,4028.222
			c16.352,49.435,27.981,112.631,27.746,164.589c-0.257,56.521-9.895,106.198,3.993,161.957
			c13.045,52.355,33.821,102.502,42.741,155.954c9.526,57.068-6.693,113.116-26.275,165.991
			c-19.109,51.61-36.168,72.867-70.98,113.468c-61.416,71.62-94.88,165.966-88.518,261.444
			c2.178,32.639,13.726,62.201,18.324,93.823c6.939,47.747,8.291,108.434,60.51,131.193c30.921,13.481,110.984-15.38,79.875,39.466
			c-26.441,46.613-84.809,107.435-117.299,135.768c-63.871,44.027-179.69,126.064-280.338,185.483
			c-65.434,38.626-64.895,40.406-136.853,43.91c-58.337,2.843-66.183-87.753-79.722-170.649
			c-8.561-52.393-6.066-83.783-54.79-102.837c-23.543-32.376-94.655,3.433-132.009-13.525
			c-104.965-47.696-56.318-231.626-138.457-297.562c-23.911-19.195-62.652-31.605-101.048-34.916
			c-21.665-34.731-7.964-113.385,16.624-186.514c22.541-37.778,42.293-76.224,69.68-109.667
			c22.558-27.544,42.859-50.629,65.434-78.243c35.893-43.904,62.123-98.854,70.459-153.19c8.556-55.79,4.291-116.547-3.999-172.802
			c-3.824-25.973-5.675-52.6-15.466-75.998c-19.776-47.23-27.977-53.586,18.949-74.055c49.283-21.494,96.565-48.973,148.856-62.492
			c68.388-17.682,87.891,8.163,154.2,14.117c117.575,10.566,239.427-35.455,338.857-95.97
			c26.136-15.907,88.016-81.342,113.383-65.399C6115.957,4005.861,6121.213,4015.986,6125.26,4028.222z"/>
		<path id="_x31_80639360" fill="none" stroke="#010101" stroke-width="80" d="M4918.672,5453.67
			c65.856,9.664,64.687-152.635,70.361-218.664c5.81-67.662-29.863-106.041-71.598-152.915c-0.367-0.243-0.684-0.449-0.978-0.641
			l0.003,1.57c1.523,1.585,3.363,3.419,3.767,4.126L4918.672,5453.67z"/>
		<path id="_x31_80639361" fill="none" stroke="#010101" stroke-width="80" d="M5659.6,5712.941
			c-45.566-23.068-110.189,16.188-152.881,30.275c-87.047,28.706-127.947,41.158-217.095,69.693
			c-67.717,21.674-122.193,38.039-179.286,80.404c-29.164,21.654-77.711,66.441-82.701,102.258
			c6.312,44.779,86.81,31.85,165.584,20.646c47.269-6.728,79.01-12.711,129.178-16.498c56.738-4.279,121.653-12.667,185.619-12.602
			c49.059,0.053,97.825-7.568,125.808-42.99c7.981-10.098,10.392-22.755,12.16-35.293c3.292-23.33,1.583-48.384,11.021-69.788
			C5676.096,5795.758,5721.229,5744.133,5659.6,5712.941z"/>
		<path id="_x31_80639363" fill="none" stroke="#010101" stroke-width="80" d="M5645.987,5908.834
			c-1.769,12.539-4.179,25.195-12.158,35.293c-27.983,35.418-76.751,43.041-125.808,42.99
			c-63.968-0.067-128.885,8.32-185.619,12.602c-50.17,3.785-81.913,9.771-129.182,16.498
			c-78.772,11.203-159.27,24.133-165.582-20.648c4.988-35.816,53.535-80.604,82.701-102.255
			c57.093-42.366,111.571-58.733,179.283-80.407c89.148-28.531,130.049-40.985,217.098-69.693
			c42.691-14.085,107.312-53.34,152.879-30.275c61.629,31.191,16.498,82.816-2.592,126.103
			C5647.57,5860.448,5649.279,5885.504,5645.987,5908.834z"/>
		<path id="_x31_80639362" fill="none" stroke="#010101" stroke-width="80" d="M4918.672,5453.67
			c65.856,9.664,64.687-152.635,70.361-218.664c5.81-67.662-29.863-106.041-71.598-152.915c-8.031-5.384,1.791,3.306,2.792,5.056
			L4918.672,5453.67z"/>
		<path id="_x31_80639436" fill="none" stroke="#010101" stroke-width="80" d="M5214.395,4598.123
			c-3.865,62.738-2.71,165.133,43.38,119.023c62.804-62.831,91.632-121.441,97.644-216.739c3.922-62.351,8.523-231.395-60.432-257.2
			c-94.801-35.464-74.758,81.256-75.266,145.689C5218.91,4494.25,5220.898,4492.633,5214.395,4598.123z"/>
		<path id="_x31_80639437" fill="none" stroke="#010101" stroke-width="80" d="M4953.719,3664.354
			c-20.594,78.094,62.136,130.875,129.551,121.248c68.896-9.848,163.551-113.518,103.394-186.186
			C5132.062,3533.457,4973.488,3589.448,4953.719,3664.354z"/>
		<path id="_x31_80639438" fill="none" stroke="#010101" stroke-width="80" d="M6704.631,2659.649
			c-4.795-54.682-14.934-108.892-30.32-161.612c-23.818-81.676-63.635-153.452-106.543-226.065
			c-23.844-40.359-99.771-101.385-74.225-159.434c23.083-52.429,65.961-16.607,93.395,20.864
			c58.283,79.588,122.646,186.702,161.406,277.467c42.605,99.749,60.803,231.671,67.394,340.086
			c4.151,68.325-18.62,136.099-29.053,202.511c-4.302,27.424-26.812,37.062-49.413,28.258
			c-58.834-22.923-36.168-132.312-32.232-180.167C6708.928,2754.341,6708.77,2706.82,6704.631,2659.649z"/>
		<path id="_x31_80639439" fill="none" stroke="#010101" stroke-width="80" d="M4915.681,4190.99
			c55.024-47.326,125.962-108.019,193.102-134.492c88.636-34.949,191.253-42.922,284.906-56.194
			c78.96-11.199,175.62-5.459,249.007-32.683c17.316-6.422,120.241-43.057,75.025-73.26
			c-58.035-38.765-149.965-78.313-218.82-88.153c-89.227-12.753-178.807,27.126-266.688,30.673
			c-103.086,4.154-213.504,6.936-316.836,6.776L4915.681,4190.99z"/>
		<path id="_x31_80639440" fill="none" stroke="#010101" stroke-width="80" d="M6702.358,4327.205
			c-24.477-21.111,9.929-63.031,20.452-85.236c48.324-101.986,59.555-213.909,39.015-324.84
			c-6.576-35.53-14.263-69.3-23.784-104.182c-7.309-26.776-10.793-52.245-20.182-78.506c-9.213-25.74-40.43-120.791-47.617-145.187
			c-16.15-54.8-15.427-111.871,0.727-166.515c11.278-38.172,41.168-81.699,83.851-51.646c17.966,12.656,26.363,34.969,28.992,56.367
			c13.2,107.409,43.624,212.668,70.919,317.176c18.842,72.152,74.88,158.751,68.732,233.764
			c-6.916,84.358-73.777,201.221-120.072,271.188C6803.391,4249.593,6726.846,4348.314,6702.358,4327.205z"/>
		<path id="_x31_80639441" fill="none" stroke="#010101" stroke-width="80" d="M6400.149,3231.144
			c30.444-6.776,273.747-58.048,238.765-102.864c-26.754-34.274-130.062,17.127-160.138,26.345
			c-106.491,32.639-209.604,43.024-316.705,65.498c-181.833,38.148-122.838,280.209-108.115,411.337
			c12.966,115.534,29.313,221.919,60.937,333.673c26.15,92.424,61.336,204.688,47.719,301.311
			c-12.972,91.998,61.226,223.135,53.471,315.471c-16.762,199.553-120.268,166.822-185.929,377.834
			c-15.232,48.951,14.418,272.996,67.993,299.432c88.55,43.647,120.035-84.064,192.938-75.514
			c84.4,9.905,74.156,204.191,46.24,350.178c-12.793,66.941-42.083,112.586-49.432,132.995
			c-25.773,71.64-100.19,155.732-150.33,209.646c-92.719,99.692-190.923,208.059-312.086,249.141
			c-51.147,17.342-65.205,22.961-110.354,25.47c-24.923,1.384-59.647-0.273-80.702-11.999
			c-36.786-20.472-13.761-70.674-9.576-100.289c9.233-65.427-60.109-55.335-116.162-52.332c-0.438,0.021-0.881,0.042-1.318,0.071
			c-83.681,4.517-167.109,13.01-250.702,18.834c-44.853,3.125-274.944,68.997-207.479-50.516
			c18.453-32.688,150.793-132.595,165.154-178.497c15.008-47.963-292.582,56.701-293.418,97.556
			c-1.801,88.268-3.459,154.479-2.354,215.311c1.438,79.239-1.076,158.341-1.007,237.56c27.786,30.396,79.21,49.503,123.622,61.207
			c115.261,30.367,254.773-43.552,371.251-51.969c111.917-8.072,228.565-60.137,328.419-108.307
			c217.32-104.824,440.499-184.852,570.864-401.65c42.923-71.381,83.118-140.243,117.14-216.613
			c28.281-63.473,60.104-125.462,97.514-183.758c-18.512,24.801-38.969,48.27-51.353,63.732
			c-19.971,24.932-72.497,84.581-78.774,14.594c-3.453-38.656,27.102-79.347,36.234-115.252c11.82-46.47-2.424-99.855,0.031-147.002
			c2.775-53.301,17.347-102.22,34.771-151.943c9.672-27.655,16.191-104.919,57.445-95.564c5.912,1.338,11.277,5.052,16.096,10.475
			c-21.089-38.869-42.369-76.814-39.626-127.159c3.985-72.649,25.088-144.884,53.025-212.716
			c-117.107-15.498-176.884-107.993-223.181-207.998c-39.018-84.303-67.004-180.328-56-274.488
			c8.854-75.792,4.635-172.421-54.828-228.036c-40.544-37.924-47.172-68.909-52.146-127.135
			c-9.09-106.379-23.691-212.881-25.036-319.946C6141.131,3354.518,6268.158,3260.487,6400.149,3231.144z"/>
		<path id="_x31_80639442" fill="none" stroke="#010101" stroke-width="80" d="M6727.363,4374.541
			c45.309-24.455,87.22-84.648,144.558-45.412c94.918,64.984,66.495,331.992,49.746,426.16
			c-13.565,76.268-32.813,151.844-63.7,222.82c-17.291,39.758-93.585,136.242-55.271,177.168
			c24.304,25.945,88.01,5.619,121.606,21.807c46.583,22.461,87.649,56.184,124.309,92.646
			c76.665,76.234,187.048,87.456,286.696,96.443c90.029,8.115,232.58,5.352,295.966,82.148
			c87,105.431-53.892,109.238-123.722,115.166c-102.057,8.646-178.04,57.273-246.019,133.377
			c-82.026,91.818-130.671,170.384-267.136,165.967c-120.386-3.897-263.424-73.099-321.322-187.184
			c-48.248-95.066-5.756-256.328,53.805-338.562c12.734-17.596,46.369-51.832,38.295-77.252
			c-29.979-94.251-173.432,74.568-193.992,101.553c-13.883-34.677-24.573-88.076-18.555-126.095
			c8.16-51.538,34.407-85.501,24.211-141.403c-14.66-80.326-80.347-130.133-75.642-216.306
			c5.315-97.165,41.297-193.591,83.241-279.728C6615.089,4534.895,6666.71,4440.386,6727.363,4374.541z"/>
		<path id="_x31_80639443" fill="none" stroke="#010101" stroke-width="80" d="M7748.354,2326.222
			c79.394,81.523,166.55,177.64,192.388,290.733c4.398,35.776,5.562,80.373,3.646,126.119c0,0.384,0.001,0.768-0.074,1.075
			c-3.948,46.589-9.021,99.854-17.635,144.363c-0.075,0.23-0.073,0.462-0.148,0.691c-11.92,52.107-29.422,89.854-52.373,93.282
			c-3.086,0.457-6.321,0.301-9.559-0.624c-9.938-3.772-21.158-13.071-33.891-29.204c-0.227-0.307-0.377-0.539-0.602-0.846
			c-5.803-8.22-11.529-16.285-17.105-24.195c-120.037-177.285-268.693-374.481-408.527-553.936
			c-37.904-57.073-89.141-131.814-141.869-180.226c-23.053-29.576-45.654-59.459-67.73-89.878
			c-74.67-103.014-157.01-200.353-245.441-291.251c-2.484-2.537-5.195-5.226-8.138-7.991
			c-10.996-10.682-22.593-20.366-34.489-29.511c-0.377-0.235-0.68-0.539-1.055-0.846
			c-61.528-49.958-150.842-116.754-169.863-178.949c-2.564-8.292-3.852-16.432-3.631-24.488
			c0.651-26.867,20.218-28.84,46.715-18.988c27.781,10.24,63.171,33.61,92.238,54.902c26.507,19.449,47.743,37.278,53.168,42.044
			c6.854,5.992,13.781,11.833,20.787,17.674c99.185,81.929,214.684,146.453,317.327,224.085
			c43.302,32.822,86.228,66.719,128.476,101.61c107.545,88.695,211.182,183.753,308.352,284.18
			C7714.912,2292.104,7731.484,2308.856,7748.354,2326.222z"/>
		<path id="_x31_80639435" fill="none" stroke="#010101" stroke-width="80" d="M4914.082,2366.061
			c10.861,67.768,25.902,137.91,72.328,191.849c25.323,29.421,26.029,29.733,9.861,67.866
			c-15.847,37.394-38.084,69.816-43.611,110.069c-3.371,24.493-4.57,63.227-38.217,46.629L4914.082,2366.061z"/>
	</g>
</g>
</svg>
