<svg width="8192" height="7072" xmlns="http://www.w3.org/2000/svg">
<g transform="scale(1.0)">
<g id="180611356" order="1" parent_id="" graphic_group_label_id="28" graphic_group_label="Atlas - Adult Mouse" sub_image_id="100960376" transform=" scale(1.0, 1.0)"><path id="180611358" parent_id="180611356" order="0" structure_id="8" d="M4316.089,1322.23
			c38.083-150.826,178.731-303.327,228.626-338.847c343.561-244.561,833.336-99.479,1202.086-2.583
			c181.996,47.827,343.663,152.101,508.609,239.643c175.162,92.968,344.388,198.85,496.191,326.967
			c129.107,108.968,229.92,250.676,336.32,381.561c182.625,224.647,367.26,481.483,426.013,771.189
			c83.897,413.721,24.397,871.559-117.041,1266.193c-67.603,188.631-168.799,414.942-333.089,596.823
			c-1.771,94.399-47.616,262.679-90.979,342.344c-59.271,108.884-138.931,205.776-220.226,298.78
			c-85.533,97.853-184.028,173.275-283.459,255.4c-109.748,90.661-241.837,136.408-318.849,263.488
			c-66.647,109.977-175.063,231.289-267.358,320.555c-182.854,176.836-441.229,352.268-691.502,406.654
			c-336.606,73.129-664.731-174.592-835.954-445.927c-75.736-120.019-133.751-251.528-164.188-390.494
			c-22.756-103.938-39.742-204.873-21.224-309.728c23.603-133.656-42.858-249.336-50.647-379.176
			c-8.004-133.293-14.373-271.23-21.354-406.254c-11.16-215.816-2.112-408.763,19.47-636.235
			C4139.009,3656.208,4298.012,1393.818,4316.089,1322.23z" style="stroke:black;fill:#bfdae3"/><path id="180611359" parent_id="180611356" order="1" structure_id="688" d="M7513.93,2700.172
			c-58.752-289.707-243.388-546.548-426.008-771.197c-106.396-130.885-207.213-272.598-336.318-381.564
			c-151.807-128.117-321.025-234.002-496.189-326.971c-164.946-87.547-326.612-191.821-508.607-239.646
			c-368.749-96.898-858.521-241.981-1202.077,2.578c-49.901,35.519-190.548,188.021-228.631,338.85
			c-18.08,71.587-177.09,2333.998-198.563,2560.382c-4.557,48.103-8.707,96.249-12.24,144.438
			c-5.896,80.339-9.998,162.724-11.476,243.269c-0.292,16.473,1.828,193.774,1.828,193.774s37.928-5.467,57.469-9.511
			c40.837-8.451,65.536-12.351,89.073-16.558c37.189-6.647,73.934-13.503,115.209-19.956c24.576-3.842,57.746-14.835,82.534-14.116
			c-8.13,36.964-4.751,76.485,4.418,112.862c5.938,23.533,23.229,58.228,19.964,82.674c-9.949,74.295-18.713,148.506-14.498,186.554
			c1.414,12.728,24.236,79.592,78.409,64.483c55.229-15.395,65.552-63.725,77.247-81.584c14.96-22.867,25.844-48.574,39.448-78.269
			c45.206-98.679,16.747-146.865,90.763-228.608c23.041-25.449,70.748-59.416,86.181-89.231
			c29.606-57.188,41.791-127.437,87.474-175.003c-11.617,10.063-22.099,20.648-30.651,31.334
			c-10.412,13.023-18.583,37.373-32.869,46.52c-7.528,4.808-16.09,7.783-18.916-3.172c-2.804-10.818,15.446-25.472,21.067-32.537
			c13.563-17.017,21.475-51.781,24.99-73.276c2.047-12.41,3.973-26.312,4.41-38.88c0.918-26.51-1.647-42.709,7.133-68.691
			c7.553-22.358,18.752-44.504,38.977-57.912c17.34-11.502,40.382-8.968,58.745-0.185c26.624,12.739,55.416,28.938,74.858,51.721
			c32.739,38.36-26.664,76.331-56.309,88.29c-15.619,6.301-32.275,14.965-48.532,25.17c61.784-30.299,145.151-8.523,184.76,45.572
			c50.894,69.553,33,173.047,17.211,251.451c-4.882,24.225-12.459,56.627-10.146,81.342c3.151,33.779,21.23,63.385,27.33,96.363
			c3.015,16.229-1.03,33.893-2.307,50.223c-4.021,51.754-0.536,98.021,19.842,146.086c7.236,17.067,18.227,32.105,27.241,48.211
			c9.535,17.041,19.11,33.935,26.047,52.246c43.062,113.748-3.493,231.188,35.653,350.815
			c17.975,54.916,82.187,123.174,143.733,136.299c20.638,4.397,43.306,10.83,64.479,11.163c17.063,0.27,35.103-4.54,51.987-3.951
			c51.478,1.795,78.384,21.292,121.544,48.663c33.988,21.543,65.941,67.879,92.693,96.987
			c53.476,58.183,108.33,108.304,148.573,175.472c11.452,19.106,79.749,132.534,85.865,172.472l1.039,9.312
			c58.015-65.183,122.202-145.213,162.494-211.69c77.013-127.08,209.099-172.828,318.849-263.488
			c99.43-82.13,197.922-157.559,283.455-255.412c81.299-93.004,160.959-189.893,220.225-298.777
			c43.37-79.67,89.21-247.947,90.98-342.351c164.297-181.879,265.487-408.192,333.095-596.826
			C7538.328,3571.74,7597.829,3113.9,7513.93,2700.172z M5488.984,3001.95c-31.008,88.768-129.599,49.989-202.631,45.146
			c-28.217-1.858-56.078,4.567-82.547,16.691c-64.678,29.342-121.135,92.439-154.549,150.989
			c-6.668,11.744-14.828,61.996-34.147,60.494c-2.405-0.187-5-1.139-7.845-3.195c-27.725-20.007-22.078-92.644-19.492-121.64
			c1.727-20.053,4.422-40.782,9.195-60.349c3.303-13.507,7.243-27.716,11.63-42.309c11.235-33.996,23.052-62.607,28.864-80.509
			c0.115-0.407,0.229-0.815,0.429-1.218c50.635-121.277,136.524-242.15,262.354-240.462c2.832,0.053,5.742,0.196,8.644,0.421
			c0.166,0.013,0.332,0.025,0.491,0.122c44.51,9.049,93.188,37.44,122.738,73.69c13.937,17.1,30.846,49.612,50.401,82.416
			C5497.855,2922.14,5502.167,2964.352,5488.984,3001.95z" style="stroke:black;fill:#b0ffb8"/><path id="180611414" parent_id="180611356" order="2" structure_id="320" d="M7052.266,1884.506l-4.627,3.729l-112.875,69.892
			c-153.815-193.31-386.908-359.414-594.422-484.322c-126.551-76.155-253.125-160.569-382.543-232.025
			c-84.871-46.806-177.246-88.271-272.828-123.896l37.514-143.485c8.176,2.137,16.27,4.268,24.361,6.397
			c181.972,47.845,343.627,152.088,508.58,239.653c175.129,92.943,344.412,198.863,496.207,326.949
			C6866.236,1644.146,6958.484,1766.686,7052.266,1884.506z" style="stroke:black;fill:#1f9d5a"/><path id="180611413" parent_id="180611356" order="3" structure_id="943" d="M6934.764,1958.125l-288.685,178.854l-28.916,17.856
			c-45.767-56.195-90.065-105.519-127.149-140.351c-198.076-186.239-444.851-311.53-685.752-442.621
			c-55.865-30.369-129.107-67.93-210.478-105.035l91.187-348.948c95.582,35.625,187.957,77.09,272.828,123.896
			c129.418,71.456,255.992,155.87,382.543,232.025C6547.855,1598.711,6780.947,1764.814,6934.764,1958.125z" style="stroke:black;fill:#1f9d5a"/><path id="180611412" parent_id="180611356" order="4" structure_id="648" d="M6617.163,2154.836l-488.313,302.398
			c-138.172-148.8-295.818-279.926-485.975-383.465c-38.415-20.92-106.207-54.553-184.861-87.944l135.771-518.996
			c81.369,37.106,154.61,74.666,210.478,105.035c240.901,131.09,487.677,256.381,685.752,442.621
			C6527.098,2049.316,6571.396,2098.641,6617.163,2154.836z" style="stroke:black;fill:#1f9d5a"/><path id="180611411" parent_id="180611356" order="5" structure_id="844" d="M6128.852,2457.234l-482.621,298.92
			c-60.854-103.582-203.502-190.498-287.936-207.488c-15.689-3.139-30.951-5.325-45.698-6.639l145.418-556.202
			c78.653,33.392,146.446,67.023,184.86,87.944C5833.031,2177.309,5990.68,2308.436,6128.852,2457.234z" style="stroke:black;fill:#1f9d5a"/><path id="180611410" parent_id="180611356" order="6" structure_id="882" d="M5646.229,2756.155l-170.279,105.471l-1.907,0.937
			c-34.28-70.901-101.897-130.379-164.66-136.427c-0.159-0.096-0.325-0.107-0.491-0.122c-15.521-3.125-30.48-3.871-43.992-1.75
			l47.698-182.236c14.747,1.313,30.009,3.5,45.698,6.64C5442.729,2565.657,5585.377,2652.573,5646.229,2756.155z" style="stroke:black;fill:#1f9d5a"/><path id="180611419" parent_id="180611356" order="7" structure_id="656" d="M5722.482,974.396l-37.513,143.485
			c-102.538-38.418-208.771-70.116-312.972-94.647c-210.369-49.553-475.864-39.156-623.271,32.807
			c-54.457,26.632-133.824,79.691-192.097,131.805l-64.735-154.52l-0.854-0.817c21.795-22.831,40.812-39.956,53.703-49.131
			C4880.749,744.134,5356.779,877.734,5722.482,974.396z" style="stroke:black;fill:#1f9d5a"/><path id="180611418" parent_id="180611356" order="8" structure_id="962" d="M5684.971,1117.881l-91.187,348.948
			c-195.192-89.165-436.476-175.655-592.478-154.079c-181.047,25.052-240.959,124.003-270.369,290.977l-174.306-415.882
			c58.272-52.111,137.64-105.172,192.097-131.805c147.405-71.963,412.901-82.359,623.271-32.807
			C5476.201,1047.766,5582.434,1079.463,5684.971,1117.881z" style="stroke:black;fill:#1f9d5a"/><path id="180611417" parent_id="180611356" order="9" structure_id="767" d="M5593.784,1466.83l-135.771,518.996
			c-111.524-47.292-245.025-94.123-347.978-103.626c-102.702-9.484-161.206,60.629-198.257,153.099l-180.843-431.572
			c29.411-166.973,89.321-265.923,270.369-290.976C5157.309,1291.175,5398.591,1377.665,5593.784,1466.83z" style="stroke:black;fill:#1f9d5a"/><path id="180611416" parent_id="180611356" order="10" structure_id="1021" d="M5155.426,2565.766
			c-5.96,2.623-11.855,5.502-17.693,8.719l-225.951-539.187c37.051-92.469,95.555-162.583,198.256-153.099
			c102.951,9.503,236.453,56.334,347.979,103.626l-145.418,556.202C5253.209,2536.578,5201.057,2545.371,5155.426,2565.766z" style="stroke:black;fill:#1f9d5a"/><path id="180611415" parent_id="180611356" order="11" structure_id="1085" d="M5155.426,2565.766
			c-5.96,2.623-11.855,5.502-17.693,8.719l69.586,166.158l1.604,2.961c17.849-9.623,36.558-16.345,55.976-19.34l47.699-182.236
			C5253.209,2536.578,5201.057,2545.371,5155.426,2565.766z" style="stroke:black;fill:#1f9d5a"/><path id="180611409" parent_id="180611356" order="12" structure_id="182305693" d="M7513.904,2700.195
			c47.57,234.771,49.076,483.729,15.554,727.211l-3.636-0.449l-128.142-17.05c10.916-42.78,19.289-88.261,24.56-137.819
			c21.022-198.574,15.203-395.229-49.97-585.987c-92.575-270.719-245.558-469.386-413.117-696.215
			c-7.845-10.703-16.03-21.266-24.392-31.76l112.875-69.893l4.627-3.728c11.771,14.93,23.711,29.789,35.666,44.482
			C7270.509,2153.646,7455.172,2410.501,7513.904,2700.195z" style="stroke:black;fill:#188064"/><path id="180611408" parent_id="180611356" order="13" structure_id="182305697" d="M7372.271,2686.1
			c65.172,190.759,70.992,387.414,49.97,585.987c-5.271,49.56-13.644,95.039-24.56,137.819l-263.871-35.191
			c22.397-140.072,28.785-295.237,3.72-425.651c-29.696-154.55-147.194-415.86-213.412-544.886
			c-50.06-97.57-216.876-295.312-273.224-259.399l-4.815-7.798l288.685-178.854c8.359,10.494,16.547,21.058,24.392,31.761
			C7126.715,2216.714,7279.695,2415.381,7372.271,2686.1z" style="stroke:black;fill:#188064"/><path id="180611407" parent_id="180611356" order="14" structure_id="182305701" d="M6650.896,2144.778
			c56.347-35.912,223.164,161.829,273.223,259.399c66.217,129.025,183.715,390.336,213.412,544.885
			c25.066,130.416,18.68,285.58-3.721,425.652l-90.49-12.039c14.563-104.728,17.063-209.893,3.195-297.644
			c-33.79-213.511-90.422-355.306-186.777-548.404c-54.209-108.572-151.06-249.154-242.574-361.793l28.916-17.856L6650.896,2144.778
			z" style="stroke:black;fill:#188064"/><path id="180611406" parent_id="180611356" order="15" structure_id="182305705" d="M7046.516,3065.033
			c13.869,87.751,11.367,192.916-3.195,297.644l-471.521-62.843c0.174-2.239,0.266-4.484,0.362-6.813
			c9.505-209.229-137.082-451.527-258.938-613.824c-57.979-77.249-119.021-151.565-184.371-221.962l488.313-302.398
			c91.516,112.64,188.366,253.222,242.575,361.793C6956.094,2709.727,7012.727,2851.521,7046.516,3065.033z" style="stroke:black;fill:#188064"/><path id="180611405" parent_id="180611356" order="16" structure_id="182305709" d="M6572.161,3293.021c-0.099,2.327-0.188,4.572-0.362,6.812
			l-149.525-19.88l-2.744,0.955c-16.241-46.477-49.116-95.746-67.99-128.746c-118.434-207.411-282.01-190.344-457.896-119.01
			c-80.187,32.474-188.541,72.102-202.361,117.91l-98.516,3.188l-103.78-152.299c13.183-37.6,8.872-79.812-6.462-119.709
			c44.488,74.781,102.398,150.772,168.921,47.248c36.634-57.049,27.573-117.564-5.214-173.334l482.621-298.92
			c65.352,70.396,126.395,144.714,184.371,221.962C6435.079,2841.493,6581.666,3083.792,6572.161,3293.021z" style="stroke:black;fill:#188064"/><path id="180611404" parent_id="180611356" order="17" structure_id="182305713" d="M5646.229,2756.155
			c32.787,55.77,41.849,116.287,5.215,173.334c-66.522,103.524-124.433,27.534-168.922-47.248
			c-2.488-6.617-5.397-13.184-8.479-19.679l1.907-0.938L5646.229,2756.155z" style="stroke:black;fill:#188064"/><path id="180611403" parent_id="180611356" order="18" structure_id="36" d="M7525.822,3426.957l3.636,0.449
			c-25.528,185.71-71.416,368.254-132.569,539.016c-9.896,27.51-20.354,54.727-31.289,81.655l-188.15-121.818
			c13.866-38.881,30.104-77.159,48.831-115.245c71.308-144.696,135.308-258.679,171.401-401.107L7525.822,3426.957z" style="stroke:black;fill:#009c75"/><path id="180611402" parent_id="180611356" order="19" structure_id="180" d="M7133.811,3374.715l263.871,35.191
			c-36.096,142.428-100.095,256.41-171.401,401.106c-18.728,38.086-34.965,76.364-48.831,115.245l-228.259-147.793
			c96.028,50.258,145.3-215.524,163.465-294.697C7120.693,3449.023,7127.797,3412.371,7133.811,3374.715z" style="stroke:black;fill:#009c75"/><path id="180611401" parent_id="180611356" order="20" structure_id="148" d="M6937.197,3770.693l-18.35-11.854
			c11.542-19.708,22.415-40.469,32.466-62.461c42.288-92.229,75.171-212.634,92.005-333.702l90.491,12.039
			c-6.015,37.655-13.116,74.31-21.155,109.055c-18.166,79.171-67.437,344.955-163.465,294.697L6937.197,3770.693z" style="stroke:black;fill:#009c75"/><path id="180611400" parent_id="180611356" order="21" structure_id="187" d="M6571.799,3299.833l471.521,62.843
			c-16.834,121.068-49.717,241.475-92.006,333.702c-10.051,21.992-20.924,42.753-32.465,62.461l-430.711-278.815
			C6535.125,3430.372,6566.838,3369.021,6571.799,3299.833z" style="stroke:black;fill:#009c75"/><path id="180611399" parent_id="180611356" order="22" structure_id="638" d="M6571.799,3299.833
			c-4.961,69.187-36.674,130.538-83.66,180.19l-122.548-79.348c69.522-17.62,72.433-66.861,53.938-119.77l2.744-0.955
			L6571.799,3299.833z" style="stroke:black;fill:#009c75"/><path id="180611424" parent_id="180611356" order="23" structure_id="935" d="M4491.896,1033.325l64.735,154.52
			c-21.237,18.871-39.629,37.629-53.153,54.931c-48.553,62.295-74.412,150.295-88.815,240.103
			c-8.681,53.715-13.162,108.173-15.958,158.091l-99.9-146.408c8.429-98.781,14.545-161.371,17.314-172.334
			c28.206-111.76,112.705-224.398,174.924-289.719L4491.896,1033.325z" style="stroke:black;fill:#40a666"/><path id="180611423" parent_id="180611356" order="24" structure_id="211" d="M4556.633,1187.845l174.305,415.881
			c-4.338,24.689-8.039,50.846-11.358,78.533c-13.915,115.706-34.735,230.125-57.784,344.204l-195.764-286.831
			c-67.326-98.663-38.313-56.146-67.326-98.663l5.912-79.059l10.047-79.032c14.403-89.808,40.264-177.808,88.815-240.103
			C4517.004,1225.474,4535.396,1206.715,4556.633,1187.845z" style="stroke:black;fill:#40a666"/><path id="180611422" parent_id="180611356" order="25" structure_id="1015" d="M4730.938,1603.726l180.844,431.572
			c-33.42,83.325-49.396,184.773-64.711,262.665l-185.275-271.5c23.048-114.079,43.869-228.498,57.784-344.204
			C4722.896,1654.571,4726.6,1628.415,4730.938,1603.726z" style="stroke:black;fill:#40a666"/><path id="180611421" parent_id="180611356" order="26" structure_id="919" d="M4911.779,2035.298l225.951,539.187
			c-24.703,13.012-47.442,29.764-68.164,49.509l-222.496-326.03C4862.384,2220.071,4878.359,2118.623,4911.779,2035.298z" style="stroke:black;fill:#40a666"/><path id="180611420" parent_id="180611356" order="27" structure_id="927" d="M5207.316,2740.643l1.605,2.961
			c-14.014,7.504-27.41,16.723-40.232,27.154l-4.765-8.462l-94.358-138.303c20.722-19.745,43.461-36.497,68.164-49.509
			L5207.316,2740.643z" style="stroke:black;fill:#40a666"/><path id="180611430" parent_id="180611356" order="28" structure_id="171" d="M4369.907,2102.711
			c-5.63,125.025-15.554,259.145-32.685,384.027c-9.084,66.447-18.613,145.039-27.813,227.992l-102.604-18.234
			c34.639-468.212,70.789-951.573,92-1201.937l99.9,146.409c-0.913,17.113-1.698,33.653-2.35,49.536
			C4390.77,1826.795,4375.999,1966.376,4369.907,2102.711z" style="stroke:black;fill:#2fa850"/><path id="180611429" parent_id="180611356" order="29" structure_id="195" d="M4500.527,2746.854l-0.308,1.812l-190.812-33.935
			c9.199-82.955,18.729-161.545,27.813-227.992c17.131-124.883,27.054-259.001,32.685-384.027
			c6.092-136.335,20.86-275.917,26.449-412.207c0.649-15.883,1.436-32.422,2.349-49.536l67.325,98.663
			c-11.884,152.902-39.613,337.941-46.283,447.37c-5.907,97.476-23.175,194.067-21.855,291.938
			C4398.523,2525.538,4471.948,2743.215,4500.527,2746.854z" style="stroke:black;fill:#2fa850"/><path id="180611428" parent_id="180611356" order="30" structure_id="304" d="M4466.029,1739.632l195.765,286.831
			c-27.935,138.309-59.159,276.025-85.116,414.654c-18.743,99.48-48.691,203.597-70.863,308.566l-5.594-1.019l0.309-1.812
			c-28.58-3.64-102.005-221.315-102.639-267.914c-1.317-97.871,15.949-194.463,21.856-291.938
			C4426.417,2077.573,4454.146,1892.534,4466.029,1739.632z" style="stroke:black;fill:#2fa850"/><path id="180611427" parent_id="180611356" order="31" structure_id="363" d="M4661.794,2026.462l185.276,271.5
			c-4.574,23.419-9.146,44.669-14.045,62.642c-38.07,138.854-56.276,267.907-86.752,408.854c-1.574,7.385-3.148,14.771-4.725,22.156
			l-235.736-41.932c22.174-104.97,52.121-209.086,70.864-308.566C4602.635,2302.488,4633.859,2164.77,4661.794,2026.462z" style="stroke:black;fill:#2fa850"/><path id="180611426" parent_id="180611356" order="32" structure_id="84" d="M4847.07,2297.963l222.496,326.03
			c-42.598,40.401-77.275,93.764-105.149,156.164c-6.772,15.239-13.185,31.175-19.06,47.735l-203.809-36.278
			c1.575-7.386,3.148-14.771,4.725-22.156c30.476-140.946,48.682-270,86.752-408.854
			C4837.926,2342.632,4842.497,2321.382,4847.07,2297.963z" style="stroke:black;fill:#2fa850"/><path id="180611425" parent_id="180611356" order="33" structure_id="132" d="M5163.926,2762.296l4.764,8.462
			c-28.429,23.4-53.764,53.13-74.772,84.115l-1.108-0.754l-147.448-26.227c5.875-16.561,12.285-32.497,19.06-47.736
			c27.873-62.399,62.553-115.763,105.149-156.164L5163.926,2762.296z" style="stroke:black;fill:#2fa850"/><path id="180611435" parent_id="180611356" order="34" structure_id="707" d="M4362.917,3527.813
			c-76.036,2.683-215.233-27.74-215.233-27.74l-5.863,74.372c17.137-227.989,40.688-549.243,64.984-877.947l102.604,18.235
			c-19.802,179.648-38.013,379.609-46.983,519.724C4255.693,3340.376,4356.527,3429.714,4362.917,3527.813z" style="stroke:black;fill:#59b363"/><path id="180611434" parent_id="180611356" order="35" structure_id="556" d="M4556.988,3416.766
			c-0.61,45.418-15.183,87.996-32.164,130.473c-3.1-0.908-6.287-1.74-9.399-2.482c-46.567-11.544-99.907-19.693-148.074-17.099
			c-1.423,0.057-2.929,0.105-4.435,0.155c-6.39-98.098-107.224-187.437-100.492-293.356
			c8.973-140.115,27.184-340.075,46.984-519.724l190.813,33.934l5.592,1.02c-28.588,134.92-44.261,271.095-6.685,400.479
			C4523.354,3233.464,4558.174,3329.602,4556.988,3416.766z" style="stroke:black;fill:#59b363"/><path id="180611433" parent_id="180611356" order="36" structure_id="827" d="M4717.807,3321.404
			c15.496,86.125,53.816,153.337,36.965,241.369c-5.752,30.002-12.299,57.354-20.894,83.132
			c-65.644-40.89-134.202-78.585-209.054-98.667c16.981-42.477,31.554-85.055,32.164-130.473
			c1.186-87.164-33.637-183.301-57.859-266.602c-37.576-129.385-21.902-265.559,6.686-400.479l235.735,41.931
			C4706.229,2962.716,4687.152,3151.264,4717.807,3321.404z" style="stroke:black;fill:#59b363"/><path id="180611432" parent_id="180611356" order="37" structure_id="1054" d="M5023.391,3282.507l10.807,648.763l-1.085-0.002
			c-1.269-24.457-11.776-54.555-16.392-66.008c-12.815-31.527-36.773-55.997-63.566-76.182
			c-18.604-13.958-38.749-26.285-57.65-39.602c-6.324-4.494-12.91-8.845-19.324-13.264c-12.668-8.742-87.688-55.615-112.08-71.275
			c-10.017-6.368-20.114-12.742-30.221-19.033c8.594-25.776,15.141-53.129,20.893-83.131
			c16.854-88.032-21.467-155.244-36.963-241.371c-30.654-170.14-11.578-358.688,23.742-529.789l203.81,36.279
			c-27.962,77.493-46.755,166.876-59.95,244.35c-5.107,30.301-38.852,271.265,56.23,229.604
			c40.236-17.561,33.855-94.302,45.301-167.49c4.775-30.326,13.008-60.052,21.66-86.574c-4.388,14.591-8.328,28.8-11.631,42.308
			c-4.772,19.565-7.47,40.295-9.194,60.349c-2.587,28.996-8.231,101.634,19.492,121.641c2.845,2.056,5.438,3.009,7.845,3.195
			L5023.391,3282.507z" style="stroke:black;fill:#59b363"/><path id="180611431" parent_id="180611356" order="38" structure_id="1081" d="M5092.807,2854.119l1.109,0.754
			c-25.909,38.193-45.218,78.404-56.023,111.182c-11.662,27.707-21.322,55.402-29.293,81.727
			c-8.65,26.522-16.883,56.248-21.66,86.575c-11.443,73.188-5.063,149.929-45.301,167.49
			c-95.082,41.661-61.338-199.303-56.229-229.604c13.194-77.473,31.987-166.855,59.95-244.349L5092.807,2854.119z" style="stroke:black;fill:#59b363"/><path id="180611390" parent_id="180611356" order="39" structure_id="412" d="M6520.764,4516.716l0.47,3.623
			c-63.545,8.325-127.565,14.192-191.616,16.14c-135.385,4.242-304.902,33.36-427.311-31.711
			c-145.154-77.185-278.188-192.299-415.248-285.621l3.392-4.992l-61.415-246.607c58.702-47.991,163.58-38.589,223.582-10.984
			c77.971,35.759,140.889,93.453,223.902,121.178c105.139,35.033,234.979,38.785,362.412,25.248L6520.764,4516.716z" style="stroke:black;fill:#248a5e"/><path id="180611389" parent_id="180611356" order="40" structure_id="630" d="M5806.973,3468.875l431.959,634.113
			c-127.433,13.535-257.273,9.783-362.412-25.25c-83.016-27.724-145.934-85.418-223.902-121.177
			c-60.002-27.604-164.88-37.007-223.582,10.984l-73.452-294.593c3.146-9.349,6.36-18.523,9.392-27.466
			c29.359-85.809,95.801-143.209,176.746-182.215C5636.098,3417.804,5722.949,3433.73,5806.973,3468.875z" style="stroke:black;fill:#248a5e"/><path id="180611388" parent_id="180611356" order="41" structure_id="440" d="M5592.766,3154.25l214.207,314.625
			c-84.022-35.145-170.875-51.071-265.252-5.602c-80.945,39.006-147.388,96.406-176.746,182.215
			c-3.03,8.94-6.246,18.117-9.393,27.466l-151.773-609.166c26.467-12.124,54.328-18.551,82.547-16.69
			c73.031,4.842,171.621,43.621,202.629-45.147L5592.766,3154.25z" style="stroke:black;fill:#248a5e"/><path id="180611387" parent_id="180611356" order="42" structure_id="288" d="M5429.034,3967.546l61.415,246.608l-3.393,4.99
			c-10.06-6.871-20.133-13.576-30.219-20.117c-10.32-6.725-20.663-13.201-31.111-19.353l-26.188-83.786
			c-7.972-25.146-11.565-52.953-4.601-78.188c2.188-7.755,5.352-15.185,9.655-22.273
			C5411.281,3984.52,5419.587,3975.321,5429.034,3967.546z" style="stroke:black;fill:#248a5e"/><path id="180611386" parent_id="180611356" order="43" structure_id="1125" d="M5355.582,3672.954l73.452,294.592
			c-9.446,7.775-17.753,16.974-24.44,27.882c-4.305,7.091-7.467,14.52-9.655,22.273l-0.49-0.122l-31.233-27.453
			C5284.928,3894.031,5321.133,3773.801,5355.582,3672.954z" style="stroke:black;fill:#248a5e"/><path id="180611385" parent_id="180611356" order="44" structure_id="608" d="M5399.538,4095.89l26.188,83.786
			c-95.01-56.936-192.429-93.621-295.785-137.607c-30.603-13.058-62.854-33.832-95.563-50.891l0.785-1.522l-0.967-58.386
			l-10.806-648.763l-8.28-7.233c19.319,1.502,27.479-48.75,34.147-60.494c33.414-58.55,89.871-121.648,154.549-150.99
			l151.774,609.166c-34.449,100.848-70.653,221.077,7.631,317.172l31.233,27.453l0.49,0.122
			C5387.973,4042.938,5391.566,4070.744,5399.538,4095.89z" style="stroke:black;fill:#248a5e"/><path id="180611398" parent_id="180611356" order="45" structure_id="996" d="M7177.448,3926.259l188.149,121.818
			c-46.086,113.205-101.228,221.62-159.531,329.955c-21.444,39.793-72.226,102.832-106.147,143.24l-136.157-146.808
			c91.541-79.81,148.078-195.455,174.918-314.328C7149.082,4014.313,7161.792,3969.921,7177.448,3926.259z" style="stroke:black;fill:#219866"/><path id="180611397" parent_id="180611356" order="46" structure_id="328" d="M7177.448,3926.259
			c-15.655,43.662-28.366,88.056-38.769,133.878c-26.84,118.873-83.377,234.52-174.918,314.328l-338.291-364.563
			c126.002-53.104,223.16-131.142,293.377-251.063l18.35,11.854c4.086,3.237,8.059,5.799,11.992,7.772L7177.448,3926.259z" style="stroke:black;fill:#219866"/><path id="180611396" parent_id="180611356" order="47" structure_id="1101" d="M6488.139,3480.025l430.711,278.814
			c-70.217,119.922-167.375,197.959-293.379,251.063l-374.389-403.486C6339.121,3589.9,6426.698,3544.988,6488.139,3480.025z" style="stroke:black;fill:#219866"/><path id="180611395" parent_id="180611356" order="48" structure_id="783" d="M6365.591,3400.677l122.548,79.349
			c-61.439,64.963-149.018,109.875-237.057,126.391l-265.248-285.809C6121.818,3374.139,6276.328,3423.27,6365.591,3400.677z" style="stroke:black;fill:#219866"/><path id="180611394" parent_id="180611356" order="49" structure_id="704" d="M6963.762,4374.465l136.158,146.809
			c-19.295,22.857-33.11,38.551-33.11,38.551s-121.332-60.649-206.321-67.256c-37.978-2.951-76.983-2.313-115.979,0.33
			l-1.124-14.521c37.688-5.162,80.196-20.795,116.242-37.013C6898.438,4423.943,6933.072,4401.193,6963.762,4374.465z" style="stroke:black;fill:#219866"/><path id="180611393" parent_id="180611356" order="50" structure_id="694" d="M6625.471,4009.903l338.291,364.562
			c-30.688,26.729-65.324,49.479-104.135,66.9c-36.045,16.217-78.553,31.851-116.242,37.013l1.125,14.521
			c-64.486,4.33-129.162,14.318-189.895,22.945c-11.132,1.555-22.264,3.107-33.383,4.495l-0.471-3.623l-281.832-413.729
			c108.672-11.49,215.56-35.467,303.965-63.131C6571.707,4030.834,6599.176,4020.873,6625.471,4009.903z" style="stroke:black;fill:#219866"/><path id="180611392" parent_id="180611356" order="51" structure_id="800" d="M6251.082,3606.416l374.389,403.487
			c-26.295,10.97-53.764,20.931-82.576,29.952c-88.404,27.664-195.293,51.641-303.963,63.131l-431.959-634.112
			c97.926,40.896,191.824,107.839,288.971,134.075C6143.982,3615.943,6197.583,3616.439,6251.082,3606.416z" style="stroke:black;fill:#219866"/><path id="180611391" parent_id="180611356" order="52" structure_id="675" d="M5985.835,3320.607l265.247,285.809
			c-53.499,10.023-107.1,9.527-155.141-3.466c-97.146-26.236-191.043-93.181-288.97-134.076l-214.207-314.625l98.515-3.188
			c-7.801,25.254,13.354,52.509,84.014,81.441C5825.254,3252.987,5902.059,3287.653,5985.835,3320.607z" style="stroke:black;fill:#219866"/><path id="180611360" parent_id="180611356" order="53" structure_id="698" d="M6968.538,4547.736
			c-68.468-13.701-138.007-35.059-207.854-31.92c-70.961,3.196-140.599,18.832-210.445,30.576
			c-10.536,1.771-21.49,3.237-32.791,4.477c-34.957,3.831-73.232,5.479-112.749,7.212c-128.685,5.644-270.501,12.188-353.565,97.979
			c-52.117,53.832-82.438,129.069-137.52,182.639c-55.025,53.512-121.674,93.496-180.891,141.968
			c-10.989,8.995-21.75,17.958-31.506,27.457c-5.265,5.126-10.234,10.41-14.805,15.937c-6.411,3.775-13.621,6.881-18.081,9.256
			c-40.28,21.438-60.75-17.237-72.731-49.146c-26.877-104.814-88-293.912-236.483-61.257
			c-49.356,77.347-87.69,234.312-74.226,329.483c11.158,78.859,94.336,163.117,177.804,159.674
			c41.405-1.709,89.099,3.209,127.69,1.429c23.867,6.896,47.76,11.388,70.053,22.694c16.781,8.514,29.232,25.192,43.167,37.955
			c10.633,14.144,21.224,27.043,31.786,39.15c48.979,56.141,97.385,95.206,146.848,161.955
			c26.949,36.37,49.455,54.182,69.922,94.544c5.692,11.229,67.119,131.479,62.781,134.577c25.017-17.885,39.563-47.025,57.293-71.07
			c26.785-36.347,54.514-71.242,78.051-110.069c42.422-70.003,101.558-115.324,164.465-157.069
			c45.821-30.408,93.644-58.922,138.469-93.688c2.325-1.817,4.652-3.633,6.958-5.474c0.205-0.164,0.41-0.33,0.616-0.494
			c3.178-2.543,6.339-5.107,9.479-7.699c4.86-4.014,9.721-8.011,14.576-11.996c1.277-1.049,2.556-2.1,3.834-3.146
			c3.392-2.779,6.778-5.555,10.166-8.324c22.97-18.791,45.996-37.52,68.834-56.473c0.066-0.056,0.133-0.11,0.199-0.166
			c5.168-4.289,10.324-8.592,15.47-12.908c0.396-0.33,0.789-0.662,1.185-0.992c5.014-4.211,10.018-8.437,15.004-12.68
			c27.207-23.152,53.91-46.803,79.846-71.602c25.212-24.107,49.7-49.299,73.205-76.188c81.3-93.004,160.959-189.892,220.225-298.778
			c39.025-71.696,52.558-135.467,74.349-220.451c6.813-26.578,14.659-81.865,14.659-81.865S6997.232,4553.486,6968.538,4547.736z" style="stroke:black;fill:#9ad2bd"/><path id="180611361" parent_id="180611356" order="54" structure_id="698" d="M5033.111,3931.268
			c-1.27-24.457-11.776-54.555-16.393-66.008c-12.814-31.527-36.773-55.997-63.566-76.182
			c-18.603-13.958-38.748-26.285-57.65-39.602c-6.324-4.494-12.91-8.845-19.323-13.264c-12.668-8.742-87.688-55.615-112.081-71.275
			c-10.016-6.368-20.113-12.742-30.221-19.033c-65.643-40.889-134.201-78.585-209.053-98.667c-3.1-0.908-6.288-1.74-9.4-2.482
			c-46.567-11.544-99.906-19.694-148.074-17.099c-1.422,0.057-2.928,0.105-4.434,0.156c-76.036,2.682-215.232-27.741-215.232-27.741
			l-5.864,74.372c-5.312,70.494-10.019,132.108-13.91,182.191c2.29-0.226,4.575-0.472,6.858-0.728
			c-3.064,0.559-6.125,1.116-9.18,1.672v10.499c0,38.165-4.441,76.546-8.057,114.549c-9.598,100.943-17.467,202.188-21.336,303.491
			c-1.8,48.91-1.851,97.874-1.985,146.831c-0.033,25.105-0.907,50.314-0.188,75.396c0.56,19.646,2.52,55.586,2.52,55.586
			s107.063-18.707,120.797-21.56c1.459-0.3,2.935-0.595,4.4-0.89c9.785-1.979,19.734-3.883,29.814-5.711
			c17.146-3.094,34.582-6.03,51.888-9.028c26.468-4.583,52.567-9.61,79.069-13.912c15.516-2.521,30.836-8.938,42.689,4.384
			c16.557,18.605,10.492,45.295,13.941,68.158c2.787,18.48,7.937,36.422,13.846,54.122c21.718,65.065,6.66,88.164-0.764,152.872
			c-3.582,31.176-8.342,80.857,5.053,116.627c5.474,14.607,13.969,26.893,26.817,34.652c25.584,15.473,61.767,6.092,83.622-12.699
			c17.885-15.383,26.413-39.806,37.589-59.947c29.312-52.879,51.354-104.867,67.013-163.26c5.224-19.461,5.279-39.953,10.974-59.274
			c5.881-19.976,17.966-40.796,29.646-57.962c37.774-55.525,126.767-97.643,123.777-171.54
			c-0.963-23.882-10.939-41.142-18.018-62.992c-8.018-24.751,2.564-38.269,17.318-56.235
			c30.854-18.352,15.157-106.004,18.417-129.032c8.101-55.929,44.476-117.168,109.429-106.029
			c10.883,1.866,23.145,7.918,33.453,7.708c0.223-1.3,0.248-2.598,0.098-3.889c-0.296-2.542-1.288-5.06-2.779-7.529
			c7.873,4.277,15.5,6.648,22.095,5.064C5030.248,3962.744,5033.945,3948.434,5033.111,3931.268z" style="stroke:black;fill:#9ad2bd"/><path id="180611374" parent_id="180611356" order="55" structure_id="159" d="M5606.743,5028.354
			c-19.5-71.025-73.479-378.313-247.628-105.442c-49.355,77.347-87.691,234.312-74.227,329.483
			c11.16,78.859,94.336,163.117,177.805,159.674c93.045-3.842,217.887,25.815,199.718-62.39
			C5657.645,5326.521,5618.512,5071.21,5606.743,5028.354z" style="stroke:black;fill:#54bf94"/><path id="180611375" parent_id="180611356" order="56" structure_id="159" d="M4457.279,4808.996
			c5.474,14.607,13.969,26.893,26.817,34.652c25.584,15.473,61.767,6.092,83.622-12.699c17.885-15.383,26.413-39.806,37.589-59.947
			c29.312-52.879,51.354-104.867,67.013-163.26c5.224-19.461,5.279-39.953,10.974-59.274c5.881-19.976,17.966-40.796,29.646-57.962
			c37.774-55.525,126.767-97.643,123.777-171.54c-3.273-81.19-72.602-127.864-159.546-126.504
			c-76.614,1.188-128.765,40.918-177.894,96.144c-65.316,73.424-78.369,154.801-46.287,250.893
			c21.717,65.064,6.66,88.164-0.764,152.872C4448.646,4723.545,4443.887,4773.229,4457.279,4808.996z" style="stroke:black;fill:#54bf94"/><path id="180611377" parent_id="180611356" order="57" structure_id="191" d="M4457.279,4808.996
			c5.474,14.607,13.969,26.893,26.817,34.652c25.584,15.473,61.767,6.092,83.622-12.699c17.885-15.383,26.413-39.806,37.589-59.947
			c29.312-52.879,51.354-104.867,67.013-163.26c5.224-19.461,5.279-39.953,10.974-59.274c5.881-19.976,17.966-40.796,29.646-57.962
			c37.774-55.525,126.767-97.643,123.777-171.54c-3.273-81.19-72.602-127.864-159.546-126.504
			c-76.614,1.188-128.765,40.918-177.894,96.144c-65.316,73.424-78.369,154.801-46.287,250.893
			c21.717,65.064,6.66,88.164-0.764,152.872C4448.646,4723.545,4443.887,4773.229,4457.279,4808.996z" style="stroke:black;fill:#54bf94"/><path id="180611376" parent_id="180611356" order="58" structure_id="199" d="M5606.743,5028.354
			c-19.5-71.025-73.479-378.313-247.628-105.442c-49.355,77.347-87.691,234.312-74.227,329.483
			c11.16,78.859,94.336,163.117,177.805,159.674c93.045-3.842,217.887,25.815,199.718-62.39
			C5657.645,5326.521,5618.512,5071.21,5606.743,5028.354z" style="stroke:black;fill:#54bf94"/><path id="180611384" parent_id="180611356" order="59" structure_id="1034" d="M4215.831,4254.441
			c22.917-181.574,47.454-352.063,88.065-521.252c-6.097,0.308-12.127,0.621-18.084,1.017
			c-53.33,3.53-107.666,13.821-160.225,23.374v10.499c0,38.165-4.441,76.546-8.057,114.549
			c-9.598,100.943-17.467,202.188-21.336,303.491c-1.8,48.91-1.851,97.874-1.985,146.831c-0.033,25.106-0.907,50.313-0.188,75.396
			c0.56,19.647,2.52,55.588,2.52,55.588s107.063-18.707,120.797-21.561c1.459-0.3,2.935-0.594,4.4-0.891
			C4211.227,4397.604,4207.262,4322.292,4215.831,4254.441z" style="stroke:black;fill:#62d09f"/><path id="180611383" parent_id="180611356" order="60" structure_id="1042" d="M4459.441,3737.069
			c-51.727-5.068-104.246-6.2-154.274-3.945c-0.426,0.021-0.845,0.045-1.271,0.065c-40.611,169.189-65.148,339.678-88.065,521.252
			c-8.569,67.851-4.604,143.162,5.91,187.043c9.785-1.979,19.733-3.883,29.813-5.711c17.146-3.094,34.582-6.03,51.885-9.027
			c5.695-11.298,11.57-24.6,17.602-40.066C4388.366,4213.573,4396.712,3914.857,4459.441,3737.069z" style="stroke:black;fill:#62d09f"/><path id="180611382" parent_id="180611356" order="61" structure_id="1050" d="M4640.586,3778.298
			c-17.057-8.082-34.79-14.967-53.775-19.694c-37.064-9.306-76.25-16.021-116.121-20.371c-3.744-0.409-7.494-0.795-11.248-1.162
			c-62.729,177.789-71.074,476.504-138.399,649.608c-6.03,15.47-11.905,28.771-17.603,40.067
			c18.897-3.272,37.633-6.615,55.646-10.312c50.011-10.211,52.526-29.702,69.618-73.587c4.771-12.256,10.325-24.163,16.574-35.646
			c28.307-128.358,141.343-412.148,220.8-515.76C4657.71,3786.829,4649.238,3782.404,4640.586,3778.298z" style="stroke:black;fill:#62d09f"/><path id="180611381" parent_id="180611356" order="62" structure_id="1059" d="M4997.414,3968.495
			c-2.041-17.535-36.436-33.944-49.072-41.313c-49.393-28.864-105.574-46.578-158.393-67.868
			c-44.406-17.934-82.85-45.239-123.873-67.869c-79.457,103.61-192.493,387.399-220.8,515.76
			c58.022-106.629,176.75-176.063,301.731-136.901c22.965,7.207,50.297,31.188,73.699,32.756
			c50.791,3.363,30.025-106.194,33.729-132.353c8.102-55.929,44.477-117.168,109.428-106.029
			c10.885,1.866,23.146,7.918,33.455,7.708C4997.539,3971.084,4997.564,3969.786,4997.414,3968.495z" style="stroke:black;fill:#62d09f"/><path id="180611439" parent_id="180611356" order="63" structure_id="496" d="M4362.917,3527.813c1.248,19.367-1.205,39.113-8.869,59.373
			c-18.474,48.782-34.593,97.332-48.881,145.938c-6.532,0.327-12.981,0.66-19.354,1.082c-53.41,3.522-104.859,17.21-157.902,22.43
			c3.893-50.083,8.6-111.698,13.91-182.191l5.863-74.372C4147.684,3500.072,4286.881,3530.495,4362.917,3527.813z" style="stroke:black;fill:#a4daa4"/><path id="180611438" parent_id="180611356" order="64" structure_id="360" d="M4515.425,3544.755
			c3.112,0.742,6.301,1.574,9.399,2.481c-24.619,61.318-54.221,122.334-54.136,190.994c-55.337-6.053-111.862-7.525-165.522-5.106
			c14.289-48.607,30.408-97.156,48.881-145.938c7.664-20.26,10.117-40.006,8.869-59.373c1.506-0.05,3.012-0.1,4.435-0.156
			C4415.518,3525.061,4468.855,3533.21,4515.425,3544.755z" style="stroke:black;fill:#a4daa4"/><path id="180611437" parent_id="180611356" order="65" structure_id="646" d="M4733.878,3645.904
			c-15.22,46.617-36.882,88.145-71.515,131.25l-21.777,1.144c-17.057-8.082-34.79-14.967-53.775-19.694
			c-37.064-9.306-76.25-16.021-116.121-20.371c-0.084-68.661,29.517-129.677,54.137-190.994
			C4599.676,3567.319,4668.234,3605.016,4733.878,3645.904z" style="stroke:black;fill:#a4daa4"/><path id="180611436" parent_id="180611356" order="66" structure_id="267" d="M5033.111,3931.268
			c0.834,17.166-2.863,31.478-16.383,34.765c-20.742,4.979-51.709-29.128-68.388-38.851
			c-49.394-28.865-105.575-46.579-158.394-67.869c-53.461-21.59-98.275-56.771-149.362-81.015l21.778-1.144
			c34.631-43.105,56.295-84.633,71.514-131.25c10.105,6.291,20.204,12.665,30.221,19.033c24.393,15.659,99.412,62.532,112.08,71.275
			c6.414,4.419,13,8.77,19.324,13.264c18.901,13.315,39.049,25.644,57.65,39.602c26.793,20.185,50.751,44.654,63.566,76.182
			C5021.335,3876.713,5031.843,3906.811,5033.111,3931.268z" style="stroke:black;fill:#a4daa4"/><path id="180611380" parent_id="180611356" order="67" structure_id="276" d="M6968.538,4547.736
			c-68.468-13.701-138.007-35.059-207.854-31.92c-70.961,3.196-140.599,18.832-210.445,30.576
			c-10.536,1.771-21.49,3.237-32.791,4.477c18.262,12.262,44.773,12.443,64.866,19.121c29.929,9.947,57.552,25.77,82.135,45.443
			c56.707,45.381,104.585,126.228,93.783,202.388c-16.201,114.263-107.356,182.054-207.181,224.226
			c-102.961,43.498-214.605,65.688-320.926,99.441c-49.752,15.795-117.754,26.327-147.608,74.689
			c-16.069,26.033-11.086,55.428-27.778,82.492c-20.527,33.28-43.104,65.215-73.08,90.737
			c-37.521,31.952-76.013,63.772-119.318,87.666c-35.158,19.397-83.523,34.504-126.948,36.224
			c48.979,56.142,97.385,95.207,146.849,161.955c26.947,36.371,49.453,54.183,69.92,94.545
			c5.693,11.229,67.119,131.479,62.783,134.576c25.016-17.885,39.562-47.025,57.291-71.07
			c26.787-36.346,54.515-71.242,78.051-110.068c42.422-70.004,101.559-115.324,164.465-157.069l0.006-0.004
			c-4.396,2.726-8.791,5.444-13.185,8.157c-6.416,3.96-98.94,71.453-95.545,76.229c-23.06-25.696,2.987-73.824,16.536-96.918
			c18.07-30.815,43.598-56.514,67.573-82.724c56.667-61.931,118.854-123.808,186.998-173.254
			c54.36-39.448,100.46-82.653,172.735-82.638c70.063,0.008,59.314,31.867,29.508,65.515c0.002-0.001,0.004-0.003,0.006-0.005
			c25.211-24.107,49.699-49.299,73.205-76.189c81.299-93.004,160.959-189.892,220.225-298.777
			c39.025-71.697,52.557-135.467,74.348-220.451c6.813-26.579,14.66-81.865,14.66-81.865S6997.232,4553.486,6968.538,4547.736z" style="stroke:black;fill:#6acbba"/><path id="180611379" parent_id="180611356" order="68" structure_id="284" d="M5981.657,5389.408
			c29.976-25.523,52.552-57.457,73.079-90.736c16.693-27.065,11.709-56.461,27.779-82.492
			c29.854-48.363,97.855-58.896,147.608-74.69c106.319-33.753,217.965-55.942,320.925-99.44
			c99.823-42.174,190.979-109.965,207.182-224.227c10.801-76.16-37.076-157.006-93.783-202.389
			c-24.584-19.674-52.207-35.496-82.135-45.442c-20.092-6.677-46.604-6.858-64.867-19.121c-34.957,3.831-73.232,5.479-112.748,7.212
			c-3.98,27.285,8.873,45.716,30.942,64.402c25.908,21.936,58.86,30.98,79.771,59.285c23.929,32.392,18.02,82.961-2.732,114.903
			c-38.891,59.862-83.734,20.196-135.738,4.587c-53.984-16.202-65.119,18.148-98.744,49.792
			c-23.668,22.274-58.98,40.106-92.297,37.149c-36.972-3.272-65.494,8.252-89.819,26.981
			c-35.915,27.675-62.651,71.079-93.815,105.813c-60.72,67.672-149.711,85.813-218.965,145.248
			c-35.176,30.196-60.375,72.66-76.979,115.5c-10.299,26.576-14.095,62.496-25.026,92.065c0.004,36.617,2.367,73.213,17.563,93.938
			c12.23,16.687,24.4,31.64,36.536,45.549c43.425-1.721,91.79-16.826,126.948-36.225
			C5905.645,5453.182,5944.137,5421.359,5981.657,5389.408z" style="stroke:black;fill:#6acbba"/><path id="180611378" parent_id="180611356" order="69" structure_id="291" d="M5783.297,5166.245
			c69.255-59.437,158.246-77.577,218.966-145.249c31.163-34.732,57.899-78.139,93.815-105.813
			c24.324-18.729,52.849-30.256,89.819-26.981c33.315,2.956,68.629-14.876,92.297-37.149c33.624-31.644,44.759-65.994,98.743-49.793
			c52.005,15.609,96.85,55.275,135.738-4.586c20.752-31.943,26.662-82.514,2.733-114.903
			c-20.909-28.306-53.862-37.351-79.771-59.286c-22.07-18.688-34.924-37.117-30.943-64.402
			c-128.684,5.645-270.501,12.188-353.564,97.979c-52.119,53.833-82.438,129.069-137.521,182.64
			c-55.024,53.512-121.674,93.496-180.892,141.967c-10.988,8.996-21.75,17.959-31.504,27.457
			c-22.457,21.864-39.66,46.556-42.43,80.961c-5.246,65.076,11.379,135.944,21.027,199.994c3.229,21.445,1.473,53.098,1.477,84.732
			c10.934-29.57,14.729-65.49,25.025-92.064C5722.922,5238.904,5748.121,5196.441,5783.297,5166.245z" style="stroke:black;fill:#6acbba"/><path id="180611365" parent_id="180611356" order="70" structure_id="583" d="M5691.279,3151.063
			c13.821-45.809,122.176-85.437,202.362-117.91c175.886-71.334,339.462-88.401,457.896,119.01c18.875,33,51.75,82.27,67.99,128.746
			c18.494,52.908,15.586,102.148-53.938,119.77c-89.264,22.594-243.771-26.539-379.756-80.068
			c-83.777-32.956-160.581-67.622-210.542-88.105C5704.634,3203.57,5683.479,3176.316,5691.279,3151.063z" style="stroke:black;fill:#8ada87"/><path id="180611364" parent_id="180611356" order="71" structure_id="952" d="M5891.381,4551.968
			c77.072,50.536,113.01,65.759,81.176,159.802c-16.139,47.713-50.975,98.811-96.092,123.333
			c-53.73,29.108-99.543,69.01-144.73,110.544c-18.416,16.921-47.629,55.775-74.806,58.753
			c-44.508,4.883-51.17-63.956-58.489-92.138c-16.789-64.119-45.982-104.93-54.797-171.85c-7.987-60.35-21.16-117.35-61.512-164.863
			c-81.305-95.912-241.232-196.602-288.299-319.799c-27.581-72.301,12.618-129.071,102.467-110.91
			c105.372,21.287,170.395,79.813,269.837,177.385c28.828,28.353,74.192,60.74,107.165,84.076
			C5744.611,4456.891,5818.357,4504.081,5891.381,4551.968z" style="stroke:black;fill:#a0ee9d"/><path id="180611363" parent_id="180611356" order="72" structure_id="56" d="M5127.73,5733.171
			c56.635-19.468,99.494-61.179,142.319-101.181c71.546-66.814,213.078-109.342,88.147-216.867
			c-45.086-38.764-75.818-51.304-96.78-110.936c-41.755-118.747,23.86-252.747-19.2-366.495
			c-7.398-19.546-17.706-38.547-28.109-56.627c-19.127-33.229-37.873-66.778-41.179-106.058
			c-2.599-30.826-6.767-59.676-2.672-90.479c3.289-24.805,3.167-46.327-4.979-70.227c-7.821-22.97-18.924-45.269-21.215-69.739
			c-2.313-24.715,5.264-57.118,10.146-81.342c15.789-78.405,33.683-181.899-17.211-251.452
			c-40.778-55.695-127.951-77.139-190.188-42.75c-78.475,43.344-68.029,146.955-104.439,217.305
			c-15.439,29.814-54.408,54.705-77.458,80.154c-74.007,81.74-60.671,134.311-95.528,235.566
			c-10.625,30.888-23.514,56.109-38.475,78.978c-23.154,35.367-51.298,65.065-83.811,101.297
			c-45.012,50.17-89.063,121.785-97.526,189.812c-10.282,82.621,20.207,165.996,52.354,240.576
			c82.924,192.35,224.725,400.597,451,431.037C5005.854,5750.863,5076.629,5750.738,5127.73,5733.171z" style="stroke:black;fill:#80cdf8"/><path id="180611370" parent_id="180611356" order="73" structure_id="481" d="M5007.479,6373.855
			c20.078,16.184,115.859,9.174,140.655,5.58c48.813-7.074,89.153-36.395,68.306-93.119c-29.953-81.479-91.299-21.304-130.396-1.318
			C5063.837,6296.35,4931.206,6312.377,5007.479,6373.855z" style="stroke:black;fill:#80cdf8"/><path id="180611371" parent_id="180611356" order="74" structure_id="481" d="M5553.326,6240.201
			c119.025-24.098,67.348-279.221-39.002-151.436C5472.156,6139.436,5450.032,6261.119,5553.326,6240.201z" style="stroke:black;fill:#80cdf8"/><path id="180611372" parent_id="180611356" order="75" structure_id="481" d="M4309.191,5777.034
			c58.795-35.12-20.904-213.953-31.942-258.503c-21.295-85.945-39.155-176.88-55.901-264.337
			c-19.338-13.022-34.479-11.952-45.873,2.688l-0.621,0.307c-0.164,5.01-0.43,10.039-0.815,15.093
			c-1.828,32.013-6.872,57.472-9.804,77.39c-7.569,88.803,7.594,175.467,27.045,264.334c6.709,23.529,13.199,50.885,20.144,77.922
			c6.401,21.496,13.453,42.783,21.101,63.853C4259.805,5761.254,4283.115,5792.607,4309.191,5777.034z" style="stroke:black;fill:#80cdf8"/><path id="180611373" parent_id="180611356" order="76" structure_id="481" d="M4654.404,6240.236
			c14.984-15.338,41.193-59.106,24.553-80.832c-18.015-23.519-41.414,1.229-62.912-4.711
			c-68.67-18.975-72.739-72.578-157.734-29.113l-10.8,4.242c41.419,48.951,87.702,95.331,137.817,137.079l3.793,0.231
			C4615.811,6270.91,4636.195,6258.882,4654.404,6240.236z" style="stroke:black;fill:#80cdf8"/><path id="180611368" parent_id="180611356" order="77" structure_id="458" d="M5900.885,5753.143
			c-6.609-11.024-23.6-32.662-45.995-59.353c7.435,36.647,20.74,74.569,4.347,110.698c-16.467,36.287-59.852,52.412-88.674,76.876
			c-15.645,13.278-32.539,29.795-46.184,45.155c-12.84,14.455-18.209,30.055-33.564,41.254
			c-44.66,32.578-87.059,54.457-141.34,66.653c-15.438,3.47-33.026,6.621-48.896,10.651c-28.113,7.14-55.477,14.103-81.451,26.86
			c-30.488,14.978-49.934,43.624-79.609,59.41c-31.902,16.976-68.109,17.304-103.447,17.125
			c-61.271-0.315-51.591,3.735-94.061,31.929c-47.65,31.639-104.301,45.295-159.772,23.582
			c-35.834-14.026-63.034-49.33-103.229-62.094c-47.146-14.959-95.229,14.709-140.905,2.125
			c-33.418-9.199-55.942-37.638-78.897-61.604c-26.444-27.612-54.574-37.759-85.877-57.588
			c-56.396-35.728-93.14-106.123-124.584-162.415c-28.158-50.408-37.125-108.999-70.668-155.939
			c-27.313-38.242-59.508-56.816-69.597-106.75c-10.964-54.309-8.649-108.939,5.97-162.334
			c38.637-141.147-51.905-298.313-4.678-442.196c9.604-29.229,24.984-51.218,29.566-81.435
			c-81.063,44.979-192.562,104.731-206.063,102.268c4.24,21.143,5.774,26.615,10.965,47.48
			c5.522,20.918,11.468,44.248,16.675,69.049c8.955,40.774,15.34,81.945,13.941,124.639l0.621-0.307
			c11.395-14.642,26.533-15.713,45.871-2.688c16.748,87.457,34.607,178.392,55.902,264.337
			c11.038,44.55,90.738,223.383,31.943,258.503c-26.078,15.573-49.39-15.78-76.672-21.255
			c31.598,87.061,73.484,170.35,122.941,248.73c26.979,42.75,57.857,84.905,92.048,125.313l10.8-4.242
			c84.995-43.465,89.064,10.141,157.734,29.113c21.498,5.94,44.897-18.808,62.912,4.711c16.642,21.726-9.567,65.494-24.553,80.832
			c-18.209,18.646-38.596,30.674-65.283,26.896l-3.793-0.232c63.002,52.485,132.059,97.653,205.117,131.402
			c62.774,27.846,128.439,50.332,196.362,59.213c48.562,6.348,101.972,8.887,150.58,1.953c19.897-2.839,39.261-7.302,58.713-11.523
			c39.245-8.528,76.728-19.111,112.999-31.438c87.96-31.33,175.295-75.286,258.422-126.643
			c25.787-16.356,51.477-33.617,77.271-51.744c36.377-25.568,68.881-48.879,102.547-75.287
			c34.104-27.229,66.754-55.186,97.608-83.393c48.333-45.049,95.01-94.382,140.175-141.591
			C6001.652,5920.581,5914.002,5775.023,5900.885,5753.143z M5148.134,6379.438c-24.796,3.594-120.577,10.603-140.655-5.58
			c-76.271-61.479,56.358-77.508,78.563-88.858c39.099-19.983,100.442-80.16,130.396,1.319
			C5237.287,6343.042,5196.945,6372.361,5148.134,6379.438z M5553.326,6240.201c-103.294,20.918-81.17-100.766-39.002-151.436
			C5620.673,5960.98,5672.352,6216.104,5553.326,6240.201z" style="stroke:black;fill:#80cdf8"/><path id="180611367" parent_id="180611356" order="78" structure_id="465" d="M4314.447,5437.385
			c-14.619,53.395-16.935,108.025-5.971,162.334c10.088,49.934,42.283,68.509,69.598,106.751
			c33.543,46.94,42.51,105.53,70.666,155.938c31.445,56.293,68.189,126.688,124.586,162.416
			c31.301,19.828,59.432,29.975,85.877,57.588c22.953,23.967,45.479,52.405,78.896,61.604
			c45.678,12.585,93.759-17.084,140.906-2.124c40.195,12.765,67.396,48.065,103.229,62.093
			c55.474,21.714,112.123,8.057,159.773-23.582c42.469-28.191,32.788-32.244,94.061-31.928c35.338,0.179,71.545-0.15,103.447-17.125
			c29.677-15.787,49.121-44.435,79.609-59.41c25.975-12.76,53.338-19.723,81.451-26.861c15.869-4.029,33.459-7.184,48.896-10.65
			c54.282-12.197,96.681-34.076,141.341-66.653c15.355-11.2,20.725-26.8,33.564-41.255c13.644-15.359,30.539-31.877,46.184-45.154
			c28.822-24.465,72.206-40.59,88.673-76.877c16.396-36.129,3.088-74.051-4.347-110.697c-14.123-16.831-30.398-35.672-47.576-55.127
			c-35.533-24.721-66.838-61.154-100.154-86.609c-16.057-12.27-65.588-53.42-85.859-28.174
			c-42.899,53.731,103.311,146.691,120.431,183.932c31.813,69.188,16.065,64.663-44.571,94.872
			c-37.086,18.478-97.276,25.097-132.883,45.979c-49.867,29.26-94.465,76.936-148.004,98.021
			c-51.664,20.333-111.912,13.612-164.892,23.024c-100.694,17.885-242.737,75.162-344.563,48.273
			c-62.131-16.407-102.416,16.064-153.234,2.266c-82.688-22.47-78.611-95.063-129.536-153.362
			c-40.333-46.183-108.248-81.784-139.078-133.964c-27.272-46.141-34.892-124.939-35.899-177.578
			c-1.502-78.154,16.869-145.1,0.154-225.044c-11.297-53.958-25.445-67.709-57.957-112.948
			c-26.42-36.759-20.135-53.295-22.246-95.512c-1.316-26.336,14.857-52.564,19.076-78.088c5.456-33.021,16.934-64.767,24.303-97.359
			c4.359-19.279,7.804-41.781,3.629-61.417c-0.867-4.077-1.929-8.354-3.086-12.687c-14.676,8.446-41.795,23.819-73.604,41.469
			c-4.582,30.215-19.963,52.203-29.565,81.434C4262.541,5139.073,4353.083,5296.236,4314.447,5437.385z" style="stroke:black;fill:#80cdf8"/><path id="180611366" parent_id="180611356" order="79" structure_id="473" d="M4412.396,4946.391
			c-7.369,32.594-18.847,64.34-24.303,97.359c-4.218,25.521-20.393,51.752-19.076,78.087c2.111,42.217-4.174,58.753,22.246,95.513
			c32.512,45.238,46.66,58.99,57.957,112.947c16.715,79.943-1.656,146.891-0.154,225.044c1.008,52.638,8.627,131.438,35.899,177.578
			c30.83,52.181,98.745,87.782,139.078,133.964c50.925,58.3,46.849,130.895,129.536,153.363
			c50.818,13.799,91.104-18.674,153.234-2.267c101.824,26.888,243.867-30.39,344.563-48.272
			c52.979-9.414,113.228-2.692,164.892-23.025c53.539-21.085,98.137-68.762,148.004-98.021
			c35.605-20.881,95.797-27.5,132.883-45.979c60.638-30.209,76.386-25.686,44.571-94.872
			c-17.12-37.239-163.33-130.199-120.431-183.931c20.271-25.246,69.805,15.903,85.859,28.172
			c33.316,25.455,64.622,61.891,100.154,86.61c-64.334-72.868-141.332-154.354-165.442-171.179
			c-44.841-31.289-145.909-56.74-176.431-16.32c-54.791,72.604,95.828,124.863,133.556,192.576
			c33.153,59.514,30.327,90.73,5.458,129.659c-107.785,168.713-571.975,212.224-687.564,198.245
			c-65.617-7.943-153.765-22.092-210-57.756c-124.248-78.795-264.731-304.05-182.855-371.148
			c53.45-43.811,16.756-75.502,0.887-118.805c-27.525-75.133-82.949-167.027-100.875-276.176
			c-8.633-52.598,1.098-116.331,23.084-153.92c39.276-67.16,73.6-86.561,43.436-114.958c-17.08-16.081-39.311-30.867-66.137-13.328
			c-0.977,0.638-5.027,3.017-11.486,6.733c1.158,4.33,2.219,8.607,3.086,12.686
			C4420.2,4904.607,4416.757,4927.109,4412.396,4946.391z" style="stroke:black;fill:#80cdf8"/><path id="180611369" parent_id="180611356" order="80" structure_id="258" d="M4129.553,4999.574
			c-3.094-32.688-13.717-66.814-11.938-99.652c1.023-19.059-1.982-38.722-2.973-57.975c-1.472-29.686-3.104-59.359-4.574-89.045
			c-2.248-45.432-5.043-90.85-6.977-136.303c-1.016-23.754-3.014-47.592-4.783-71.295c-1.445-19.354-0.91-39.795-3.314-59.556
			c48.91-3.931,96.926-17.153,145.301-23.897c22.66-3.164,45.4-5.094,67.842-9.621c25.787-5.207,106.974-23.092,108.103-23.348
			c1.34-0.292,3.069,50.759,3.33,53.492c1.283,13.863,3.46,28.414,6.685,41.975c8.836,37.199,19.972,67.019,14.92,105.613
			c-4.793,36.605-13.539,72.846-13.467,109.977c0.049,16.752-1.551,31.942,2.137,48.172c3.363,14.826,6.993,30.766,11.412,46.636
			c-23.807,14.461-46.102,21.239-64.221,34.274c-23.033,16.572-50.291,29.508-75.037,43.25c-34.445,19.123-66.023,40.113-102.198,56
			C4194.813,4970.457,4129.229,4996.163,4129.553,4999.574z" style="stroke:black;fill:#90cbed"/><path id="180611362" parent_id="180611356" order="81" structure_id="342" d="M5122.852,5773.704
			c-73.813,18.978-155.193,14.916-227.819-7.64c-81.584-25.34-150.733-78.004-210.894-137.293
			c-34.338-33.846-108.76-147.679-154.168-62.037c-44.639,84.164,106.267,278.072,176.699,319.187
			c123.42,72.046,273.877,76.757,412.015,58.413c118.799-15.775,330.593-63.646,428.601-139.385
			c15.024-11.613,27.914-24.167,38.074-37.455c46.061-60.208-37.125-179.15-95.146-199.216
			c-57.373-19.838-130.178,36.163-175.214,66.04C5248.275,5678.566,5204.329,5752.753,5122.852,5773.704z" style="stroke:black;fill:#a2b1d8"/><path id="180611441" parent_id="180611356" order="82" structure_id="1009" d="M5203.809,3063.789
			c-64.679,29.342-121.135,92.439-154.549,150.99c-6.67,11.744-14.83,61.996-34.148,60.494c-2.404-0.188-5-1.14-7.844-3.195
			c-27.726-20.008-22.08-92.645-19.492-121.641c1.726-20.053,4.422-40.781,9.194-60.349c3.304-13.507,7.243-27.716,11.63-42.308
			c11.234-33.996,23.052-62.608,28.863-80.51c0.115-0.408,0.23-0.815,0.43-1.218c50.635-121.277,136.523-242.149,262.355-240.462
			c2.832,0.053,5.74,0.196,8.643,0.421c0.166,0.013,0.332,0.026,0.491,0.122c44.51,9.049,93.188,37.441,122.737,73.689
			c13.938,17.101,30.847,49.613,50.402,82.416c15.334,39.898,19.645,82.11,6.462,119.709
			c-31.008,88.769-129.599,49.989-202.63,45.147C5258.137,3045.238,5230.275,3051.665,5203.809,3063.789z" style="stroke:black;fill:#cccccc"/><path id="180611442" parent_id="180611356" order="83" structure_id="1009" d="M5203.379,4554.45
			c13.255-26.125,45.71-78.401,66.145-91.908c108.321-71.646,174.441,117.972,180.891,194.806
			c4.874,58.097-31.568,125.761-54.254,179.305c-26.664,62.962-104.918,117.473-171.07,54.027
			C5148.809,4817.518,5158.871,4642.229,5203.379,4554.45z" style="stroke:black;fill:#cccccc"/><path id="180611443" parent_id="180611356" order="84" structure_id="1009" d="M6470.391,5458.709c-52.571,43.425-111.01,79.9-168.82,115.607
			c-6.416,3.961-98.939,71.453-95.545,76.229c-23.059-25.696,2.988-73.824,16.536-96.919c18.069-30.814,43.599-56.514,67.573-82.723
			c56.667-61.931,118.855-123.808,186.998-173.254c54.359-39.449,100.46-82.653,172.736-82.638
			c129.625,0.013-17.356,109.05-49.894,136.737C6557.327,5388.053,6513.566,5423.046,6470.391,5458.709z" style="stroke:black;fill:#cccccc"/><path id="180611440" parent_id="180611356" order="85" structure_id="81" d="M4982.221,4001.02c26.623,12.738,55.416,28.938,74.858,51.721
			c32.739,38.359-26.664,76.33-56.31,88.289c-42.754,17.248-93.287,52.147-122.088,88.125
			c-10.412,13.022-18.582,37.373-32.869,46.519c-7.528,4.808-16.09,7.784-18.916-3.172c-2.803-10.817,15.447-25.472,21.068-32.537
			c13.563-17.017,21.475-51.78,24.99-73.276c2.047-12.41,3.973-26.311,4.41-38.879c0.918-26.51-1.648-42.709,7.132-68.691
			c7.554-22.359,18.753-44.504,38.978-57.913C4940.814,3989.701,4963.855,3992.235,4982.221,4001.02z" style="stroke:black;fill:#aaaaaa"/></g>
</g>
</svg>