<svg width="8768" height="7264" xmlns="http://www.w3.org/2000/svg">
<g transform="scale(1.0)">
<g id="180622552" order="1" parent_id="" graphic_group_label_id="28" graphic_group_label="Atlas - Adult Mouse" sub_image_id="100960360" transform=" scale(1.0, 1.0)"><path id="180622554" parent_id="180622552" order="0" structure_id="8" d="M7943.564,4096.04
			c-7.717,17.581-15.597,35.142-23.623,52.726c-34.713,76.08-60.308,158.002-103.119,230.08
			c-68.627,115.545-107.342,241.576-131.478,373.035c-11.466,62.373-38.567,125.125-64.772,182.016
			c-29.678,64.438-50.473,131.009-86.326,192.9c-81.144,140.082-198.418,264.815-308.072,383.492
			c-28.463,30.806-61.154,57.328-91.143,86.477c-31.908,31.029-66.621,62.764-98.125,92.616
			c-35.756,33.869-86.08,45.42-118.112,87.438c-134.026,175.769-222.487,393.894-398.644,536.484
			c-110.861,89.734-222.188,161.184-355.244,213.198c-135.527,52.99-276.774,92.571-421.24,111.146
			c-136.089,17.496-294.953,18.453-428.898-15.037c-78.535-19.627-146.846-41.709-220.436-75.082
			c-115.188-52.23-216.091-172.187-287.741-272.445c-78.39-109.7-146.919-227.296-191.084-355.094
			c-13.354-38.652-25.862-77.591-38.308-116.545c-22.18-69.445-44.141-139.021-70.24-207.132
			c-14.977-39.081-31.705-77.481-49.33-115.433c-6.405-13.793-13.738-27.155-20.373-40.869c-3.608-7.47-8.181-14.358-11.375-21.957
			c-2.037-4.845-3.936-9.729-6.209-14.479c-5.279-11.095-10.838-33.323-10.779-35.179c0.27-9.293,1.083-18.369,1.652-27.858
			c0.931-15.479,0.733-29.249,1.508-44.69c2.055-40.914,1.613-83.604,2.804-124.547c0.041-1.4,0.099-2.795,0.147-4.195
			c0.487-14.098,0.912-28.193,1.263-42.296c0.595-23.769,1.067-47.534,1.581-71.308c0.749-34.877,0.619-69.789,2.461-104.623
			c2.2-41.588,3.137-82.437,4.587-124.043c1.524-43.68,1.198-88.443,4.188-132.051c0.758-10.902,0.398-21.992,0.604-32.92
			c0.831-45.723,3.057-91.406,3.968-137.129c0.921-45.726,2.918-91.414,3.978-137.131c1.06-45.556,2.754-91.094,3.961-136.645
			c1.181-44.784,2.599-89.107,3.877-133.896c1.23-42.689,2.445-85.854,3.726-128.548c1.147-38.559,2.208-77.118,3.39-115.685
			c0.985-32.262,1.793-64.537,2.836-96.797c0.799-24.72,1.189-49.445,2.086-74.156c0.645-17.784,0.84-35.58,1.604-53.365
			c0.579-13.571,0.041-27.273,1.125-40.824c6.918-86.244,13.461-169.058,24.819-255.726c7.375-56.229,0.27-109.726,5.541-165.103
			c14.203-149.171-9.688-292.395-5.305-443.681c2.096-72.099,9.583-384.327,13.494-465.563
			c3.251-67.552,22.434-773.922,24.527-846.113c6.763-233.538,23.256-440.678,230.342-583.335
			c47.793-32.92,109.655-62.296,167.127-72.935c285.054-52.754,570.164-3.854,849.112,58.405
			c285.542,63.729,564.825,180.217,827.485,307.335c120.412,58.278,235.519,114.471,345.115,190.697
			c118.032,82.084,235.697,164.707,352.548,248.474c66.224,47.474,132.169,95.334,197.757,143.696
			c125.79,92.759,231.68,192.896,328.672,316.783c44.166,56.421,82.221,116.984,116.582,179.777
			c26.132,47.795,66.288,85.613,87.752,135.335c56.404,130.67,81.167,278.779,88.762,420.059
			c9.086,169.213,30.924,342.067,21.09,511.647c-4.196,72.168-20.976,144.291-26.76,216.837
			C8092.057,3713.743,8027.438,3905.066,7943.564,4096.04z" style="stroke:black;fill:#bfdae3"/><path id="180622555" parent_id="180622552" order="1" structure_id="688" d="M4459.471,3618.246
			c0-0.668,0-1.336,0-2.004c-0.033-28.076,5.892-54.546,8.588-82.227c2.795-28.558,2.723-57.61,6.445-85.801
			c4.124-31.225,8.369-62.445,11.652-93.777c5.899-56.392-0.195-104.504,5.076-159.883c14.203-149.167-10.942-293.727-6.56-445.009
			c2.095-72.103,11.05-382.782,14.952-464.021c3.26-67.551,22.523-773.823,24.617-846.016
			c6.771-233.538,20.176-443.946,227.264-586.603c47.791-32.925,111.644-63.478,169.114-74.111
			c285.054-52.758,570.163-3.854,849.112,58.405c285.541,63.729,564.824,180.217,827.485,307.335
			c120.411,58.273,236.96,115.473,346.565,191.698c118.023,82.084,235.682,164.728,352.53,248.49
			c66.216,47.475,130.735,94.315,196.332,142.673c125.78,92.759,232.649,194.151,329.642,318.034
			c44.158,56.421,81.242,115.738,115.604,178.531c26.133,47.792,67.543,84.533,89.007,134.252
			c56.404,130.67,79.971,280.9,87.564,422.181c9.076,169.213,30.793,342.321,20.957,511.899
			c-4.195,72.164-21.129,145.807-26.914,218.357c-16.844,211.463-82.447,402.763-166.328,593.729
			c-7.717,17.58-15.385,34.574-23.402,52.164c-34.723,76.078-60.495,157.797-103.309,229.873
			c-68.627,115.547-106.6,242.367-130.744,373.828c-11.455,62.373-39.381,125.102-65.578,181.989
			c-29.687,64.438-50.814,130.996-86.668,192.894c-81.145,140.078-194.4,259.434-304.063,378.108
			c-56.608,61.261-121.772,115.489-182.3,172.854c-34.354,32.559-80.883,48.199-114.161,81.355
			c-15.759,15.719-28.08,34.68-40.987,52.615c-18.383,25.537-35.535,51.666-52.361,78.273
			c-15.132,23.922-29.434,46.545-44.825,71.306c2.028-3.69-45.321-34.868-50.717-39.623
			c-37.011-32.622-78.854-55.911-119.702-83.065c-49.648-33.019-100.473-62.928-153.689-89.756
			c-52.696-26.568-106.461-49.779-157.252-79.881c-40.651-24.055-80.522-49.601-118.178-78.182
			c-42.878-32.546-1.671-209.992,11.033-308.541c16.468-127.736,36.285-231.541,79.326-353.57
			c14.675-41.603,36.204-80.386,59.23-117.869c29.312-47.705,60.016-94.535,89.179-142.311
			c27.542-45.113,45.836-98.012,52.159-152.284c7.154-61.483,4.809-123.979,6.602-185.771c1.426-49.295,7.405-98.717,9.41-148.142
			c2.705-66.442,2.551-132.983,11.375-199.021c8.549-63.959,27.461-129.146,67.643-180.987
			c69.025-89.023,70.876-192.954,79.146-300.079c20.877-270.198-123.939-505.129-289.551-705.967
			c-39.365-47.733-88.729-75.752-134.32-114.728c-89.561-76.568-206.704-119.409-309.516-171.274
			c-27.42-13.827-55.523-27.338-83.611-40.429c-51.639-24.066-107.473-35.128-162.034-50.342
			c-47.229-13.164-90.677-32.854-140.823-23.028c-107.202,21.016-185.363,96.956-239.837,187.71
			c-92.836,154.681-216.702,316.768-269.603,489.957c-13.553,44.336-25.277,102.981-26.613,149.167
			c-1.85,63.819,40.661,122.098,26.973,182.646c-22.223,98.418-57.049,164.059-79.686,207.915
			c-4.521,8.743-9.191,17.292-13.648,25.868c-60.063,115.859-170.321,188.23-270.857,268.42
			c-70.438,56.133-144.264,118.082-219.4,152.099c0.529-0.245,0.14-6.06,0.205-6.841c2.338-29.719,1.304-59.588,2.574-89.369
			c1.72-40.075,2.289-80.215,3.504-120.318c1.205-39.928,2.429-79.867,3.472-119.8c0.79-30.007,1.874-60.011,2.642-90.018
			C4459.421,3634.213,4459.479,3626.26,4459.471,3618.246z" style="stroke:black;fill:#b0ffb8"/><path id="180622605" parent_id="180622552" order="2" structure_id="320" d="M6668.309,1173.582l-68.498,137.003
			c-107.189-48.769-216.519-92.841-326.233-135.088c-210.765-81.07-419.912-171.861-636.666-236.41l3.659-134.875
			c43.242,8.599,86.381,17.863,129.344,27.457c285.563,63.705,564.838,180.152,827.441,307.301
			C6621.229,1150.513,6644.854,1161.967,6668.309,1173.582z" style="stroke:black;fill:#1f9d5a"/><path id="180622604" parent_id="180622552" order="3" structure_id="943" d="M6599.811,1310.584
			l-152.867,306.017c-66.556-36.571-142.418-63.062-215.172-90.297c-166.813-62.434-325.869-150.52-485.812-231.119
			c-39.491-19.927-78.317-39.751-117.179-58.406l8.129-297.691c216.754,64.549,425.9,155.34,636.666,236.41
			C6383.292,1217.744,6492.62,1261.816,6599.811,1310.584z" style="stroke:black;fill:#1f9d5a"/><path id="180622603" parent_id="180622552" order="4" structure_id="648" d="M6446.943,1616.602
			l-172.888,345.841c-66.153-44.657-135.063-86.39-206.199-126.267c-121.731-68.306-286.524-165.824-449.194-227.22l10.119-372.178
			c38.86,18.655,77.688,38.479,117.179,58.407c159.94,80.599,318.998,168.686,485.812,231.118
			C6304.523,1553.54,6380.389,1580.03,6446.943,1616.602z" style="stroke:black;fill:#1f9d5a"/><path id="180622602" parent_id="180622552" order="5" structure_id="844" d="M6274.057,1962.441
			l-255.928,512.305c-70.915-30.188-143.604-56.752-214.165-84.759c-64.372-25.489-134.858-53.16-204.864-62.869l19.563-718.164
			c162.669,61.396,327.462,158.914,449.194,227.22C6138.992,1876.052,6207.902,1917.784,6274.057,1962.441z" style="stroke:black;fill:#1f9d5a"/><path id="180622601" parent_id="180622552" order="6" structure_id="882" d="M6018.129,2474.747l-32.787,65.58
			l-0.532,1.07c-19.931-9.343-39.61-18.679-58.696-28.33c-27.396-13.9-55.554-27.404-83.64-40.489
			c-51.644-24.036-107.419-35.085-161.989-50.273c-28.482-8.004-55.983-18.233-84.314-22.896l1.111-6.646l1.818-65.644
			c70.005,9.709,140.492,37.379,204.863,62.869C5874.523,2417.994,5947.214,2444.561,6018.129,2474.747z" style="stroke:black;fill:#1f9d5a"/><path id="180622610" parent_id="180622552" order="7" structure_id="656" d="M5640.568,804.211l-3.658,134.875
			c-85.076-25.421-171.272-46.786-259.154-61.854c-277.092-47.767-619.249,90.068-705.512,390.671
			c-12.629,44.043-22.303,89.759-29.5,136.463l-108.213-157.4c18.354-158.073,67.949-296.625,219.138-400.762
			c47.784-32.924,109.658-62.352,167.147-72.955C5161.938,728.649,5403.119,756.76,5640.568,804.211z" style="stroke:black;fill:#1f9d5a"/><path id="180622609" parent_id="180622552" order="8" structure_id="962" d="M5636.91,939.086
			l-8.128,297.691c-126.544-60.683-252.642-107.995-397.406-98.751c-202.724,12.989-265.399,162.265-325.349,335.493
			c-24.685,71.158-35.582,127.439-53.813,200.62c-2.173,8.702-4.262,17.407-6.184,26.116l-203.287-295.889
			c7.197-46.705,16.871-92.42,29.5-136.463c86.263-300.603,428.42-438.438,705.512-390.672
			C5465.639,892.301,5551.834,913.665,5636.91,939.086z" style="stroke:black;fill:#1f9d5a"/><path id="180622608" parent_id="180622552" order="9" structure_id="767" d="M5628.782,1236.778l-10.119,372.178
			c-253.001-95.567-501.097-104.094-575.422,219.56c-10.418,45.526-17.265,85.897-22.834,125.387l-174.376-253.646
			c1.922-8.709,4.012-17.414,6.184-26.116c18.231-73.181,29.129-129.462,53.813-200.62
			c59.948-173.229,122.625-322.504,325.349-335.493C5376.143,1128.783,5502.238,1176.096,5628.782,1236.778z" style="stroke:black;fill:#1f9d5a"/><path id="180622607" parent_id="180622552" order="10" structure_id="1021" d="M5618.663,1608.956
			L5599.1,2327.12c-72-10.017-143.463-1.153-207.174,48.505c-20.158,15.777-36.533,30.662-50.483,45.367l-321.034-467.089
			c5.568-39.49,12.416-79.861,22.834-125.388C5117.566,1504.861,5365.662,1513.388,5618.663,1608.956z" style="stroke:black;fill:#1f9d5a"/><path id="180622606" parent_id="180622552" order="11" structure_id="1085" d="M5599.1,2327.119l-1.818,65.643
			l-1.111,6.646c-18.773-3.133-37.785-3.851-57.768,0.079c-60.529,11.852-111.633,41.174-154.521,80.834l-5.994-6.269
			l-36.444-53.062c13.95-14.705,30.325-29.591,50.483-45.367C5455.637,2325.966,5527.1,2317.102,5599.1,2327.119z" style="stroke:black;fill:#1f9d5a"/><path id="180622600" parent_id="180622552" order="12" structure_id="878" d="M8114.566,2773.752
			c9.119,169.221,30.901,342.146,21.063,511.652c-4.179,72.169-20.962,144.307-26.737,216.848
			c-1.199,15.492-2.73,30.891-4.508,46.115l-5.658-0.665l-156.916-15.066c9.287-81.371,13.903-162.876,28.682-243.587
			c37.205-203.604,46.104-418.466,20.268-624.315c-49.524-393.773-307.129-681.888-641.535-877.732
			c-107.857-63.146-191.304-147.705-292.479-219.589c-143.222-101.65-297.676-184.346-456.935-256.828l68.498-137.003
			c94.894,46.743,186.32,94.971,274.201,156.118c117.994,82.055,235.723,164.686,352.498,248.458
			c66.239,47.498,132.219,95.322,197.765,143.718c125.782,92.715,231.731,192.869,328.731,316.721
			c44.107,56.457,82.172,116.996,116.58,179.765c26.078,47.836,66.22,85.646,87.734,135.354
			C8082.217,2484.404,8106.973,2632.541,8114.566,2773.752z" style="stroke:black;fill:#188064"/><path id="180622599" parent_id="180622552" order="13" structure_id="657" d="M6530.52,1584.381
			c-28.305-5.578-84.477-2.949-71.92,36.148l-1.143,1.97c-0.248-0.091-0.576-0.267-0.822-0.441c-3.201-1.846-6.402-3.69-9.69-5.457
			l152.866-306.017c159.259,72.482,313.714,155.176,456.936,256.828c101.177,71.884,184.621,156.442,292.479,219.589
			c334.405,195.845,592.01,483.959,641.534,877.731c25.838,205.851,16.938,420.711-20.268,624.316
			c-14.776,80.711-19.394,162.217-28.681,243.587l-209.61-20.101c33.824-294.274-1.897-602.67-97.35-877.819
			c-29.122-83.903-78.799-161.39-115.857-242.185c-66.58-145.175-179.742-258.561-296.035-364.773
			c-123.691-113.022-276.061-175.538-406.024-279.478c-31.003-24.771-50.438-54.135-87.655-71.826
			C6677.073,1651.654,6587.872,1595.727,6530.52,1584.381z" style="stroke:black;fill:#188064"/><path id="180622598" parent_id="180622552" order="14" structure_id="950" d="M7634.852,2634.717
			c95.451,275.15,131.174,583.544,97.351,877.82l-151.921-14.587c13.939-241.928,2.036-482.101-75.768-715.25
			c-47.781-142.877-106.401-283.313-188.283-410.317c-79.483-123.345-176.205-239.509-287.28-335.637
			c-101.875-88.099-214.925-182.365-325.567-258.863c-79.789-55.154-161.674-107.195-245.924-155.383l1.143-1.97
			c-12.557-39.097,43.615-41.726,71.919-36.147c57.354,11.346,146.556,67.271,198.76,92.076
			c37.218,17.689,56.651,47.053,87.655,71.825c129.965,103.939,282.332,166.455,406.023,279.478
			c116.293,106.213,229.456,219.599,296.036,364.773C7556.053,2473.328,7605.729,2550.814,7634.852,2634.717z" style="stroke:black;fill:#188064"/><path id="180622597" parent_id="180622552" order="15" structure_id="974" d="M7504.514,2782.699
			c77.804,233.149,89.707,473.322,75.768,715.25l-405.238-38.792c-12.377-123.069-43.99-244.859-84.756-361.906
			c-45.088-129.276-93.947-272.351-162.459-391.204c-49.358-85.575-109.383-166.033-161.625-250.021
			c-128.65-206.909-298.185-362.666-492.146-493.584l172.888-345.841c3.287,1.766,6.49,3.611,9.69,5.457
			c0.246,0.175,0.574,0.352,0.821,0.441c84.25,48.187,166.135,100.228,245.926,155.382
			c110.643,76.499,223.691,170.766,325.566,258.864c111.075,96.128,207.797,212.292,287.279,335.637
			C7398.111,2499.385,7456.73,2639.822,7504.514,2782.699z" style="stroke:black;fill:#188064"/><path id="180622596" parent_id="180622552" order="16" structure_id="1102" d="M7175.042,3459.158
			l-373.519-35.869c-12.943-106.39-72.172-237.412-106.263-319.789c-40.644-98.261-120.767-205.346-192.196-281.042
			c-83.662-88.656-161.561-157.277-255.443-224.442c-70.66-50.464-148.926-89.127-229.492-123.268l255.928-512.305
			c193.961,130.92,363.494,286.675,492.146,493.585c52.242,83.989,112.267,164.446,161.625,250.021
			c68.513,118.854,117.372,261.928,162.459,391.204C7131.052,3214.299,7162.665,3336.089,7175.042,3459.158z" style="stroke:black;fill:#188064"/><path id="180622595" parent_id="180622552" order="17" structure_id="2" d="M6801.523,3423.289
			l-137.438-13.166l-4.015,0.217c-14.588-231.068-145.066-435.359-291.025-612.469c-39.354-47.721-86.195-73.203-131.811-112.256
			c-72.905-62.301-165.131-103.205-252.426-144.219l0.531-1.069l32.787-65.58c80.566,34.14,158.832,72.804,229.492,123.268
			c93.885,67.165,171.783,135.787,255.443,224.442c71.432,75.695,151.555,182.781,192.197,281.042
			C6729.354,3185.877,6788.58,3316.898,6801.523,3423.289z" style="stroke:black;fill:#188064"/><path id="180622594" parent_id="180622552" order="18" structure_id="36" d="M8098.729,3547.703l5.656,0.665
			c-21.541,190.286-81.203,365.108-157.123,539.293l-161.185-37.729c13.735-33.242,27.722-66.479,41.962-99.873
			c53.747-126.328,94.234-258.884,111.214-395.376c0.88-7.319,1.763-14.724,2.56-22.047L8098.729,3547.703z" style="stroke:black;fill:#009c75"/><path id="180622593" parent_id="180622552" order="19" structure_id="180" d="M7941.813,3532.637
			c-0.797,7.323-1.68,14.728-2.56,22.047c-16.979,136.492-57.467,269.049-111.214,395.377
			c-14.241,33.395-28.227,66.631-41.962,99.873l-248.491-58.207c6.313-30.535,11.057-61.785,14.723-93.232
			c71.353,12.252,133.387-135.039,143.166-175.825c16.352-68.729,28.571-138.995,36.728-210.131L7941.813,3532.637z" style="stroke:black;fill:#009c75"/><path id="180622592" parent_id="180622552" order="20" structure_id="148" d="M7580.279,3497.95l151.922,14.587
			c-8.155,71.136-20.377,141.402-36.728,210.131c-9.78,40.786-71.813,188.077-143.166,175.825
			c12.175-103.241,13.134-208.312,20.378-294.081C7575.721,3568.855,7578.335,3533.371,7580.279,3497.95z" style="stroke:black;fill:#009c75"/><path id="180622591" parent_id="180622552" order="21" structure_id="187" d="M7552.309,3898.493
			c-3.666,31.446-8.41,62.696-14.723,93.232l-414.982-97.174c12.935-34.353,23.887-69.512,32.604-105.32
			c26.709-109.331,30.926-220.231,19.835-330.075l405.238,38.793c-1.945,35.42-4.561,70.905-7.595,106.461
			C7565.441,3690.184,7564.482,3795.252,7552.309,3898.493z" style="stroke:black;fill:#009c75"/><path id="180622590" parent_id="180622552" order="22" structure_id="638" d="M6661.951,3483.77
			c25.711,92.152,125.109,113.063,140.01,10.82c3.217-21.693,2.745-45.749-0.438-71.301l373.519,35.869
			c11.091,109.842,6.874,220.744-19.835,330.074c-8.718,35.81-19.67,70.97-32.604,105.32l-268.973-62.975l-2.27,0.519
			c-13.627-53.985-37.203-104.589-65.893-142.983c-24.188-32.34-53.081-60.807-77.355-93.064
			c-17.685-23.468-42.311-89.711-47.719-104.727c0.158-2.583,0.23-5.085,0.387-7.585L6661.951,3483.77z" style="stroke:black;fill:#009c75"/><path id="180622589" parent_id="180622552" order="23" structure_id="662" d="M6660.783,3483.736
			c1.137-24.76,0.843-49.228-0.711-73.396l4.014-0.217l137.438,13.166c3.183,25.552,3.653,49.607,0.438,71.301
			c-14.9,102.244-114.299,81.332-140.01-10.82L6660.783,3483.736z" style="stroke:black;fill:#009c75"/><path id="180622615" parent_id="180622552" order="24" structure_id="935" d="M4534.531,1246.966l108.213,157.4
			c-18.478,119.086-21.453,244.799-19.502,367.564c0.643,38.334,1.709,76.431,3.043,113.866l-112.401-119.457
			c4.601-161.561,8.541-306.194,9.429-336.804C4525.141,1366.482,4527.663,1305.368,4534.531,1246.966z" style="stroke:black;fill:#40a666"/><path id="180622614" parent_id="180622552" order="25" structure_id="211" d="M4680.996,1943.977
			l-49.029-52.138l-5.681-6.041c-0.709-44.592-1.119-78.631-3.407-142.929c-1.738-48.865,1.456-127.944,3.479-176.487
			c2.623-62.924,9.746-119.208,16.388-162.016l203.286,295.889c-28.85,128.468-34.229,253.527-35.839,381.115l-114.345-121.6
			C4720.516,1986.003,4637.089,1897.287,4680.996,1943.977z" style="stroke:black;fill:#40a666"/><path id="180622613" parent_id="180622552" order="26" structure_id="1015" d="M4846.031,1700.256
			l174.375,253.646c-7.817,56.621-12.992,111.313-22.148,176.662c-5.152,36.664-9.243,85.629-12.42,137.625l-175.646-186.818
			C4811.805,1953.783,4817.182,1828.724,4846.031,1700.256z" style="stroke:black;fill:#40a666"/><path id="180622612" parent_id="180622552" order="27" structure_id="919" d="M5020.407,1953.902
			l321.034,467.089c-40.377,42.321-59.896,82.157-88.609,131.077l-266.994-283.879c3.178-51.996,7.268-100.961,12.42-137.625
			C5007.414,2065.217,5012.589,2010.523,5020.407,1953.902z" style="stroke:black;fill:#40a666"/><path id="180622611" parent_id="180622552" order="28" structure_id="927" d="M5377.887,2474.053l5.994,6.269
			c-32.938,30.516-61.047,67.182-84.729,106.646l-16.274-2.976l-30.045-31.924c28.715-48.92,48.233-88.757,88.61-131.077
			L5377.887,2474.053z" style="stroke:black;fill:#40a666"/><path id="180622621" parent_id="180622552" order="29" structure_id="171" d="M4629.716,1983.48
			c7.467,211.83-4.772,415.24-20.138,625.655l-119.986-30.606c3.005-115.194,6.746-252.905,9.197-302.919
			c1.879-38.929,9.064-289.734,15.095-509.27l112.401,119.457C4627.331,1918.885,4628.555,1951.561,4629.716,1983.48z" style="stroke:black;fill:#2fa850"/><path id="180622620" parent_id="180622552" order="30" structure_id="195" d="M4780.686,2629.957l14.662,1.009
			c-0.574,8.331-1.233,16.66-1.893,24.988l-183.877-46.817c15.363-210.416,27.604-413.826,20.139-625.654
			c-1.162-31.921-2.385-64.596-3.431-97.684l69.563,73.974c-0.795,18.759-1.881,36.091-3.047,50.415
			c-10.867,127.236,11.246,254.177,4.058,381.27C4690.127,2508.545,4708.577,2540.133,4780.686,2629.957z" style="stroke:black;fill:#2fa850"/><path id="180622619" parent_id="180622552" order="31" structure_id="304" d="M4808.186,2257.198
			c-1.213,67.748-14.027,147.012-10.396,214.649c2.932,54.428,1.068,107.131-2.441,159.118l-14.662-1.009
			c-72.107-89.823-90.559-121.411-83.826-238.5c7.189-127.094-14.924-254.033-4.058-381.271c1.166-14.323,2.253-31.655,3.047-50.415
			l114.345,121.601C4809.35,2139.279,4809.325,2197.712,4808.186,2257.198z" style="stroke:black;fill:#2fa850"/><path id="180622618" parent_id="180622552" order="32" structure_id="363" d="M4810.191,2081.371l175.646,186.819
			c-5.516,89.493-8.373,188.08-9.451,248.317c-1.188,61.154-8.615,121.543-15.961,182.018l-166.971-42.571
			c0.658-8.329,1.316-16.657,1.893-24.987c3.512-51.987,5.372-104.69,2.441-159.118c-3.633-67.638,9.184-146.902,10.396-214.65
			C4809.325,2197.712,4809.35,2139.279,4810.191,2081.371z" style="stroke:black;fill:#2fa850"/><path id="180622617" parent_id="180622552" order="33" structure_id="84" d="M4985.838,2268.189l266.993,283.879
			c-12.733,21.752-27.271,45.205-46.229,71.45c-19.74,27.31-49.352,75.451-74.646,118.71l-171.529-43.705
			c7.347-60.474,14.772-120.863,15.961-182.017C4977.465,2456.27,4980.322,2357.684,4985.838,2268.189z" style="stroke:black;fill:#2fa850"/><path id="180622616" parent_id="180622552" order="34" structure_id="132" d="M5282.875,2583.992l16.275,2.976
			c-33.506,55.793-70.879,112.56-107.535,170.515l-59.66-15.252c25.295-43.26,54.904-91.401,74.646-118.711
			c18.959-26.246,33.496-49.698,46.229-71.45L5282.875,2583.992z" style="stroke:black;fill:#2fa850"/><path id="180622626" parent_id="180622552" order="35" structure_id="707" d="M4608.184,2628.463
			c-12.722,173.93,83.394,351.348,58.806,517.087c-1.979,13.633-4.705,26.993-7.929,40.256
			c-58.258,5.491-116.67,13.397-170.395,35.213c0.266-12.013,0.779-24.019,1.967-36.171c14.174-149.179-9.725-292.365-5.338-443.665
			c0.802-27.689,2.382-90.836,4.297-162.653l119.986,30.606C4609.143,2615.552,4608.619,2622.048,4608.184,2628.463z" style="stroke:black;fill:#59b363"/><path id="180622625" parent_id="180622552" order="36" structure_id="556" d="M4778.113,2980.732
			c4.391,64.571,5.604,129.218,5.568,193.826c-12.212,0.815-24.43,1.88-36.572,3.197c-28.886,3.003-58.5,5.232-88.049,8.049
			c3.223-13.263,5.946-26.623,7.928-40.256c24.588-165.739-71.525-343.157-58.805-517.087c0.436-6.415,0.957-12.911,1.395-19.326
			l183.877,46.817C4784.874,2764.809,4770.62,2870.661,4778.113,2980.732z" style="stroke:black;fill:#59b363"/><path id="180622624" parent_id="180622552" order="37" structure_id="827" d="M4793.455,2655.954l166.971,42.571
			c-6.232,50.906-12.467,101.813-14.957,153.163c-5.263,109.536-19.275,212.89-20.687,319.114c-0.051,1.752-0.021,3.59-0.073,5.425
			c-5.247-0.402-10.409-0.886-15.488-1.284c-41.809-3.382-83.717-3.261-125.537-0.383c0.035-64.609-1.18-129.256-5.568-193.826
			C4770.62,2870.661,4784.874,2764.809,4793.455,2655.954z" style="stroke:black;fill:#59b363"/><path id="180622623" parent_id="180622552" order="38" structure_id="1054" d="M4997.635,2969.982
			c-35.336,75.774-61.784,135.778-71.852,200.849l-1.002-0.029c1.41-106.226,15.424-209.579,20.688-319.115
			c2.488-51.349,8.725-102.256,14.957-153.163l171.529,43.705c-14.404,24.625-27.429,47.705-36.429,64.473
			C5064.893,2864.248,5025.402,2910.518,4997.635,2969.982z" style="stroke:black;fill:#59b363"/><path id="180622622" parent_id="180622552" order="39" structure_id="1081" d="M4925.783,3170.831
			c10.066-65.07,36.516-125.074,71.852-200.848c27.77-59.466,67.258-105.735,97.894-163.28c9-16.768,22.022-39.848,36.429-64.473
			l59.66,15.252c-64.996,102.545-127.59,208.666-161.438,319.459c-10.323,33.592-19.538,75.063-23.902,113.335
			c-25.723-8.259-54.174-11.587-81.566-14.052c0.053-1.834,0.021-3.672,0.073-5.424L4925.783,3170.831z" style="stroke:black;fill:#59b363"/><path id="180622588" parent_id="180622552" order="40" structure_id="996" d="M7947.262,4087.661
			c-1.166,2.805-2.416,5.605-3.666,8.407c-7.771,17.557-15.625,35.108-23.646,52.656c-34.68,76.127-60.343,158.023-103.084,230.078
			c-18.427,30.938-34.623,62.688-49.002,95.078l-2.061-0.895l-184.816-51.854c26.441-39.636,50.238-80.185,73.393-124.423
			c31.721-60.436,78.931-116.749,104.389-180.037c8.991-22.194,18.068-44.471,27.313-66.741L7947.262,4087.661z" style="stroke:black;fill:#219866"/><path id="180622587" parent_id="180622552" order="41" structure_id="328" d="M7537.586,3991.727
			l248.491,58.207c-9.243,22.271-18.319,44.547-27.312,66.74c-25.459,63.289-72.668,119.603-104.389,180.037
			c-23.152,44.239-46.95,84.787-73.393,124.424l-325.668-91.246c42.123-19.063,81.756-35.695,108.683-51.693
			C7465.076,4218.184,7513.1,4110.805,7537.586,3991.727z" style="stroke:black;fill:#219866"/><path id="180622586" parent_id="180622552" order="42" structure_id="1101" d="M7122.604,3894.553l414.982,97.174
			c-24.486,119.078-72.51,226.457-173.586,286.469c-26.926,15.998-66.559,32.629-108.682,51.692l-334.029-93.658
			c28.504-32.981,56.035-66.994,79.895-103.95C7049.432,4057.464,7091.468,3978.045,7122.604,3894.553z" style="stroke:black;fill:#219866"/><path id="180622585" parent_id="180622552" order="43" structure_id="783" d="M6853.632,3831.578l268.972,62.975
			c-31.136,83.492-73.172,162.911-121.42,237.727c-23.858,36.957-51.391,70.969-79.895,103.951l-207.09-58.092l-4.984-9.494
			c34.4-17.535,65.08-42.105,92.42-69.528c66.115-66.283,73.597-171.748,49.729-267.019L6853.632,3831.578z" style="stroke:black;fill:#219866"/><path id="180622584" parent_id="180622552" order="44" structure_id="704" d="M7765.802,4472.986l2.062,0.896
			c-39.377,88.429-64.787,181.771-82.52,278.005c-0.105,0.748-0.296,1.577-0.484,2.323c-65.431-37.958-105.361-65.744-177.83-88.38
			c-19.193-5.982-41.209-9.626-64.676-12.143l1.349-11.981c1.584-54.631,45.569-97.599,77.378-138.081
			c21.757-27.751,41.493-54.895,59.906-82.491L7765.802,4472.986z" style="stroke:black;fill:#219866"/><path id="180622583" parent_id="180622552" order="45" structure_id="694" d="M7255.318,4329.889
			l325.666,91.246c-18.412,27.598-38.148,54.74-59.905,82.49c-31.81,40.482-75.794,83.451-77.378,138.082l-1.35,11.98
			c-84.469-8.959-188.213-3.786-252.272-45.795c-45.79-30.126-94.073-60.659-145.472-81.6l1.887-4.619
			C7048.309,4430.32,7158.553,4373.663,7255.318,4329.889z" style="stroke:black;fill:#219866"/><path id="180622582" parent_id="180622552" order="46" structure_id="800" d="M7255.318,4329.889
			c-96.767,43.774-207.012,100.433-208.824,191.785l-1.888,4.621c-37.87-15.373-77.478-25.535-119.11-26.242
			c-9.095-0.181-15.336,2.061-19.291,6.035l-3.851-2.531l-94.146-58.158c-9.974-13.061-20.619-25.891-31.864-38.236l6.513-5.82
			c40.845-58.42,91.018-110.39,138.432-165.11L7255.318,4329.889z" style="stroke:black;fill:#219866"/><path id="180622581" parent_id="180622552" order="47" structure_id="675" d="M6521.381,4218.043
			c30.486,10.9,50.65-7.965,76.797-17.225c23.45-8.418,48.988-8.264,72.84-16.086c13.232-4.375,25.91-9.768,38.197-16.09
			l4.983,9.494l207.09,58.092c-47.414,54.723-97.587,106.691-138.431,165.11l-6.514,5.821
			c-64.934-72.42-146.619-131.301-226.939-153.746c-12.506-3.451-31.41-7.84-43.789-1.271c-1.018,0.556-1.957,1.278-2.813,2.005
			c-3.083,2.666-5.124,6.863-6.434,11.668c1.322-16.824,2.566-33.816,3.564-50.984
			C6503.251,4158.083,6497.259,4209.33,6521.381,4218.043z" style="stroke:black;fill:#219866"/><path id="180622556" parent_id="180622552" order="48" structure_id="698" d="M7541.543,4676.682
			c-27.828-10.726-55.717-18.929-81.48-23.373c-34.48-5.947-68.246-6.615-101.123-7.428c-59.526-1.469-116.146-3.408-168.854-38.008
			c-79.528-52.213-166.401-106.066-264.601-107.818c-52.574-0.938-7.644,78.152-0.188,98.92
			c21.438,59.68,25.311,136.953,5.98,197.623c-12.631,39.626-36.195,81.57-67.567,109.166
			c-51.499,45.302-129.474,74.855-196.226,86.488c-66.762,11.627-149.543,10.861-182.315,84.713
			c-27.583,62.148-14.433,125.793-20.151,190.565c-6.926,78.576-53.91,135.313-109.631,185.14
			c-42.168,37.711-103.43,44.942-150.576,74.629c-33.688,21.197-29.774,54.195,0.854,75.862
			c35.071,24.813,70.226,46.862,106.909,68.599c29.348,17.385,59.684,32.477,90.23,47.244
			c22.328,10.795,44.771,21.418,67.021,32.641c4.683,2.359,9.345,4.745,13.989,7.152c48.168,24.963,94.427,52.484,139.709,82.596
			c40.849,27.154,82.69,50.452,119.701,83.066c5.387,4.75,52.713,36.93,50.685,40.612c13.683-24.81,29.728-48.374,44.858-72.294
			c18.199-28.773,37.873-61.348,59.682-90.51c4.637-6.199,9.367-12.248,14.203-18.068c1.932-2.51,3.945-4.996,6.143-7.381
			c1.088-1.183,2.195-2.367,3.318-3.553c3.417-3.783,6.883-7.443,10.402-10.951c5.883-5.857,11.996-10.93,18.305-15.576
			c10.08-8.012,20.714-15.057,31.521-20.217c2.498-1.49,5.017-2.993,7.557-4.525c21.023-12.695,38.723-24.728,56.38-41.469
			c31.502-29.853,56.502-53.728,88.412-84.744c29.979-29.145,65.416-57.008,93.879-87.813c9.368-10.14,18.771-20.286,28.185-30.45
			c100.771-108.811,202.811-219.793,277.021-347.898c20.438-35.293,33.865-74.328,52.175-110.643
			c26.418-52.396,99.267-261.752,99.267-261.752C7647.729,4726.91,7594.745,4697.188,7541.543,4676.682z" style="stroke:black;fill:#9ad2bd"/><path id="180622557" parent_id="180622552" order="49" structure_id="698" d="M5003.939,3228.134
			c-0.701-12.561-1.141-25.501,3.098-37.544c-25.948-8.55-54.68-11.902-82.328-14.333c-5.198-0.457-10.357-0.881-15.455-1.301
			c-41.768-3.443-83.77-3.289-125.57-0.399c-12.203,0.844-24.388,1.92-36.545,3.207c-28.899,3.063-58.469,5.229-88.071,8.018
			c-58.454,5.507-117.04,13.438-170.872,35.464c-6.242,2.55-0.604,115.425-1.883,127.632c-3.275,31.339-7.521,62.552-11.652,93.785
			c-7.373,55.887-9.64,113.88-13.103,170.143c-4.774,77.803-5.949,155.792-8.304,233.688c-2.095,69.653-0.474,140.226-6.07,209.684
			c-0.064,0.785,0.325,6.604-0.204,6.849c35.774-16.196,71.254-38.728,106.209-63.948c27.586-19.903,54.847-41.481,81.67-62.943
			c10.574-8.46,21.081-16.902,31.513-25.217c55.867-44.555,114.731-86.693,166.319-135.223
			c41.256-38.809,77.856-81.703,104.547-133.188c38.95-75.012,74.608-150.875,93.334-233.786
			C5044.023,3349.079,5007.266,3287.427,5003.939,3228.134z" style="stroke:black;fill:#9ad2bd"/><path id="180622577" parent_id="180622552" order="50" structure_id="1034" d="M4546.559,3493.16
			c28.914-104.76,87.227-201.404,112.502-307.354c0.002-0.008,0.004-0.017,0.006-0.024c-58.453,5.507-117.039,13.438-170.871,35.464
			c-6.242,2.55-0.604,115.424-1.883,127.631c-3.275,31.339-7.521,62.552-11.652,93.786c-7.374,55.887-9.641,113.88-13.104,170.143
			c-4.774,77.803-5.949,155.791-8.304,233.688c-2.095,69.653-0.474,140.225-6.069,209.684c-0.065,0.785,0.324,6.604-0.205,6.849
			c35.775-16.196,71.254-38.728,106.209-63.948C4451.854,3861.934,4504.582,3644.623,4546.559,3493.16z" style="stroke:black;fill:#62d09f"/><path id="180622576" parent_id="180622552" order="51" structure_id="1042" d="M4656.982,3646.285
			c29.601-105.408,123.97-178.803,125.104-292.799c0.639-59.5,1.703-119.238,1.598-178.928v-0.002
			c-12.203,0.844-24.388,1.919-36.545,3.207c-28.899,3.063-58.469,5.229-88.071,8.018c-0.002,0.009-0.004,0.017-0.006,0.024
			c-25.276,105.95-83.589,202.595-112.503,307.354c-41.977,151.463-94.703,368.772,6.63,505.914
			c27.586-19.904,54.847-41.482,81.67-62.944C4580.958,3856.653,4634.186,3727.321,4656.982,3646.285z" style="stroke:black;fill:#62d09f"/><path id="180622575" parent_id="180622552" order="52" structure_id="1050" d="M4873.302,3624.854
			c21.338-56.325,36.756-113.06,47.919-172.756c10.083-54.134,12.971-110.563,7.87-164.972
			c-3.584-37.573-4.771-74.412-4.382-110.868c-5.198-0.457-10.357-0.882-15.455-1.302c-41.768-3.442-83.77-3.289-125.57-0.398v0.002
			c0.105,59.688-0.959,119.427-1.598,178.927c-1.134,113.996-95.503,187.391-125.104,292.799
			c-22.797,81.036-76.024,210.368-22.125,289.846c10.574-8.461,21.08-16.902,31.513-25.218
			c55.866-44.554,114.731-86.692,166.319-135.222C4821.014,3723.406,4855.563,3671.979,4873.302,3624.854z" style="stroke:black;fill:#62d09f"/><path id="180622574" parent_id="180622552" order="53" structure_id="1059" d="M5003.939,3228.134
			c-0.701-12.561-1.141-25.501,3.098-37.544c-25.948-8.55-54.68-11.902-82.328-14.333c-0.389,36.458,0.798,73.295,4.382,110.869
			c5.101,54.408,2.213,110.837-7.87,164.972c-11.163,59.696-26.581,116.43-47.919,172.756
			c-17.739,47.127-52.288,98.554-40.612,150.839c41.256-38.81,77.857-81.703,104.547-133.188
			c38.951-75.011,74.608-150.875,93.334-233.785C5044.023,3349.079,5007.266,3287.427,5003.939,3228.134z" style="stroke:black;fill:#62d09f"/><path id="180622580" parent_id="180622552" order="54" structure_id="276" d="M7541.543,4676.682
			c4.016,24.649-8.71,52.369-41.07,71.517c-27.436,16.233-65.967,13.646-87.088,40.38c-26.063,32.988-4.067,72.852-8.391,109.126
			c-4.984,41.829-27.293,88.903-43.366,127.636c-33.196,80.039-82.772,152.33-164.097,188.113
			c-91.582,40.307-184.955,89.684-270.166,142.164c-105.597,65.041-192.313,148.475-269.691,244.79
			c-51.773,64.444-95.537,138.117-173.859,158.39c48.168,24.963,94.428,52.485,139.709,82.597
			c40.85,27.155,82.691,50.452,119.703,83.065c5.386,4.752,52.713,36.931,50.684,40.613c13.682-24.809,29.727-48.374,44.857-72.294
			c18.199-28.772,37.873-61.349,59.683-90.51c-7.845,8.297-17.649,14.188-34.422,13.412c-42.267-1.938-13.981-62.541-1.181-83.021
			c43.17-69.102,111.554-133.229,168.543-190.551c71.766-72.135,140.856-117.037,241.189-82.061
			c-4.723,5.118-10.084,11.073-15.826,17.473c100.771-108.811,202.811-219.793,277.021-347.899
			c20.437-35.292,33.865-74.327,52.174-110.642c26.418-52.396,99.267-261.752,99.267-261.752
			C7647.729,4726.91,7594.745,4697.188,7541.543,4676.682z" style="stroke:black;fill:#6acbba"/><path id="180622579" parent_id="180622552" order="55" structure_id="284" d="M6657.674,5600.406
			c77.379-96.315,164.096-179.75,269.691-244.791c85.211-52.48,178.584-101.856,270.166-142.164
			c81.322-35.783,130.898-108.074,164.097-188.112c16.073-38.731,38.382-85.808,43.366-127.636
			c4.322-36.274-17.674-76.139,8.391-109.127c21.121-26.732,59.652-24.146,87.088-40.379c32.36-19.147,45.086-46.867,41.07-71.517
			c-27.828-10.726-55.717-18.929-81.48-23.374c-34.48-5.947-68.246-6.615-101.123-7.427c-17.514,9.528-34.438,21.192-51.365,33.972
			c-49.653,37.48-109.168,62.199-96.483,133.301c13.424,75.242-0.358,150.801-86.545,174.554
			c-80.187,22.101-147.679,65.808-233.342,79.851c-61.122,10.016-100.03,49.67-142.885,91.203
			c-43.75,42.4-150.162,159.658-159.021,172.012c-49.56,69.133-77.027,149.734-120.146,222.561
			c-26.931,45.474-78.582,109.018-66.349,165.674c22.328,10.795,44.771,21.418,67.021,32.64c4.683,2.36,9.345,4.745,13.989,7.151
			C6562.137,5738.523,6605.898,5664.852,6657.674,5600.406z" style="stroke:black;fill:#6acbba"/><path id="180622578" parent_id="180622552" order="56" structure_id="291" d="M6469.152,5553.331
			c43.117-72.826,70.586-153.429,120.146-222.562c8.857-12.353,115.27-129.609,159.02-172.012
			c42.854-41.533,81.764-81.188,142.885-91.202c85.664-14.043,153.155-57.75,233.342-79.851
			c86.187-23.754,99.97-99.313,86.545-174.555c-12.685-71.102,46.83-95.818,96.483-133.301
			c16.927-12.777,33.853-24.441,51.366-33.971c-59.527-1.47-116.146-3.408-168.855-38.01
			c-79.528-52.211-166.4-106.065-264.6-107.817c-52.574-0.937-7.645,78.153-0.188,98.92c21.438,59.681,25.31,136.953,5.98,197.623
			c-12.631,39.626-36.195,81.571-67.568,109.166c-51.498,45.302-129.473,74.856-196.226,86.487
			c-66.761,11.629-149.542,10.862-182.315,84.713c-27.582,62.149-14.432,125.793-20.15,190.566
			c-6.927,78.576-53.911,135.314-109.631,185.139c-42.169,37.713-103.43,44.943-150.577,74.629
			c-33.687,21.199-29.774,54.196,0.854,75.863c35.071,24.813,70.226,46.861,106.91,68.6c29.347,17.385,59.684,32.476,90.229,47.244
			C6390.57,5662.348,6442.225,5598.805,6469.152,5553.331z" style="stroke:black;fill:#6acbba"/><path id="180622573" parent_id="180622552" order="57" structure_id="583" d="M6515.783,3962.376
			c5.166-31.201,12.842-62.161,24.805-89.451c16.19-36.952,43.22-66.659,63.16-101.38c21.91-38.168,34.477-80.74,42.037-123.883
			c9.338-53.148,13.485-159.451,13.485-159.451s28.847,81.286,48.826,107.822c24.3,32.275,53.194,60.764,77.388,93.122
			c79.285,106.046,119.719,306.121,16.184,409.967c-37.052,37.165-80.387,69.101-130.654,85.608
			c-23.883,7.842-49.354,7.699-72.855,16.063c-26.132,9.302-46.283,28.17-76.734,17.233c-24.168-8.67-19.467-32.067-18.791-52.537
			C6504.848,4097.658,6504.668,4029.528,6515.783,3962.376z" style="stroke:black;fill:#8ada87"/><path id="180622572" parent_id="180622552" order="58" structure_id="952" d="M6502.827,4254.118
			c0.831-0.726,1.776-1.385,2.827-1.946c12.313-6.621,31.241-2.232,43.773,1.268c148.875,41.635,302.133,207.951,346.119,354.543
			c22.311,74.389,26.522,176.225-18.426,242.876c-42.119,62.463-120.238,92.327-190.717,109.104
			c-62.687,14.92-144.311,8.396-195.271,54.037c-48.599,43.525-49.438,129.293-54.024,189.101
			c-9.672,126.144-90.1,277.563-232.219,291.958c-27.035,2.738-27.133-34.175-23.973-51.891
			c9.33-52.276,17.725-105.498,24.52-158.172c16.469-127.711,36.285-231.513,79.326-353.533
			c9.354-26.522,21.521-51.938,35.071-76.563c23.907-43.452,52.248-84.216,78.901-125.984
			c25.645-40.205,53.984-82.377,68.635-128.123c15.523-48.457,22.246-103.256,23.062-156.074
			c0.774-49.604,3.618-98.933,3.513-148.49C6493.92,4284.822,6493.325,4262.359,6502.827,4254.118z" style="stroke:black;fill:#a0ee9d"/><path id="180622560" parent_id="180622552" order="59" structure_id="672" d="M6373.045,4742.652
			c10.006-44.756,28.968-87.056,39.423-131.717c14.03-59.949,30.612-130.313,29.628-191.806
			c-2.055-127.329-3.193-254.989,9.354-381.878c8.125-82.211,27.754-164.354,40.019-245.977
			c14.382-95.791,17.454-192.873,18.692-289.584c1.278-99.127-58.638-194.184-107.234-277.136
			c-129.596-221.168-383.887-351.61-639.882-335.28c0,0-88.56,3.817-157.649,35.205c-19.721,56.475-113.119,123.149-164.138,181.859
			c-60.128,69.189-142.551,112.238-197.487,186.77c-58.319,79.094-39.008,144.168-38.535,233.691
			c0.563,103.87-31.828,204.667-30.924,309.042c0.66,75.171-47.637,225.992,5.215,287c53.78,62.08,161.807,92.128,234.973,124.918
			c166.695,74.71,314.941,184.495,452.082,304.079c133.311,116.23,277.906,236.818,378.957,383.5
			c26.639-54.876,48.027-94.413,67.584-123.259C6333.459,4782.07,6375.064,4733.648,6373.045,4742.652z" style="stroke:black;fill:#98d6f9"/><path id="180622559" parent_id="180622552" order="60" structure_id="56" d="M6131.587,4834.654
			c-88.2-102.453-177.451-169.897-279.097-258.519c-137.156-119.588-289.07-233.456-455.766-308.166
			c-132.17-59.231-231.631-76.396-288.288-233.854c-23.851,54.953-65.263,122.408-100.228,183.058
			c-20.941,36.321-41.068,73.153-59.893,110.612c-10.951,21.776-21.781,48.346-37.189,67.336
			c-14.912,18.383-24.151,30.016-29.678,54.229c-16.509,72.294-52.346,143.012-97.686,202.797
			c-55.092,72.633-108.164,153.201-95.94,265.876c8.45,77.916,40.905,167.062,48.509,246.257
			c4.506,46.973-1.613,171.201,17.643,259.271c15.059,68.903,149.722,187.971,167.99,227.856
			c42.291,92.254,102.33,178.819,202.857,205.702c131.225,35.076,167.958,202.83,284.646,250.968
			c140.732,58.038,476.535-129.199,649.269-339.935c80.532-114.531,88.388-241.604,88.388-241.604
			c16.231-55.879,16.492-133.104,26.531-195.402c16.438-101.982,42.658-235.172,58.434-315.508
			C6245.137,4949.227,6156.79,4863.924,6131.587,4834.654z" style="stroke:black;fill:#80cdf8"/><path id="180622567" parent_id="180622552" order="61" structure_id="481" d="M5099.516,6160.705
			c1.06-60.07-65.588-17.404-67.895,22.588C5027.393,6256.594,5098.749,6204.378,5099.516,6160.705z" style="stroke:black;fill:#80cdf8"/><path id="180622568" parent_id="180622552" order="62" structure_id="481" d="M5333.175,6422.156
			c4.498,11.379,12.435,19.237,25.342,20.631c47.466,5.127,46.96-70.098,41.696-98.201c-5.313-28.387-14.17-122.229-64.104-107.867
			c2.362,36.154,9.135,56.33,0.733,92.34C5330.119,6357.9,5321.809,6393.367,5333.175,6422.156z" style="stroke:black;fill:#80cdf8"/><path id="180622569" parent_id="180622552" order="63" structure_id="481" d="M6590.357,6114.4
			c-35.869-16.554-100.332,19.373-122.367,46.605c-39.854,49.246-11.83,84.354,29.385,93.236
			c31.836,6.855,71.545-1.937,93.871-31.973C6610.232,6196.734,6631.704,6133.51,6590.357,6114.4z" style="stroke:black;fill:#80cdf8"/><path id="180622570" parent_id="180622552" order="64" structure_id="481" d="M5655.408,6477.994
			c-18.938,21.1-38.977,64.746-33.113,86.786c24.444,92.038,170.026,89.63,208.619,10.851
			c28.715-58.621-35.016-102.826-83.066-114.031c-7.574-1.766-15.583-3.227-23.712-4.048c-8.336,0.169-16.552,0.908-24.576,2.606
			C5685.098,6463.221,5670.068,6469.799,5655.408,6477.994z" style="stroke:black;fill:#80cdf8"/><path id="180622571" parent_id="180622552" order="65" structure_id="481" d="M4696.587,5851.039
			c-0.046-1.115-0.099-2.205-0.155-3.264c-1.776-32.356-11.336-70.5-37.469-92.037c-22.017-18.135-56.566-19.943-60.729,17.186
			c-2.601,23.175,16.541,25.113,23.198,41.807c8.4,21.097-0.229,32.351-4.718,53.635c-6.959,33.018-7.179,79.681,39.627,72.207
			c23.199-3.707,33.576-25.004,37.825-48.082C4693.869,5879.225,4695.503,5865.389,4696.587,5851.039z" style="stroke:black;fill:#80cdf8"/><path id="180622566" parent_id="180622552" order="66" structure_id="458" d="M6689.313,5924.665
			c-24.074,48.978-54.17,95.304-100.272,120.976c-70.345,39.168-141.38,65.646-195.908,128.131
			c-100.373,115.021-231.243,198.443-381.997,230.355c-65.734,13.918-126.58,47.168-193.618,55.938
			c-30.511,3.988-62.769-3.133-93.382-2.514c8.129,0.82,16.139,2.283,23.712,4.048c48.052,11.205,111.782,55.41,83.065,114.03
			c-38.592,78.78-184.174,81.188-208.619-10.85c-5.86-22.04,14.176-65.688,33.114-86.786
			c-21.872,12.228-42.924,28.054-60.037,41.203c-26.874,20.651-56.103,42.69-91.5,44.165
			c-84.077,3.508-188.144-39.072-263.745-71.77c-67.412-29.162-130.792-67.271-189.273-111.623
			c-46.619-35.359-106.379-56.338-144.955-101.168c-34.143-39.68-54.424-84.729-63.705-135.931
			c-5.109-28.192-12.142-57.565-23.477-83.931c-18.965-44.117-57.264-74.824-93.956-103.916
			c-23.983-19.016-30.09-39.951-30.595-62.535c-4.25,23.078-14.627,44.375-37.826,48.082c-46.806,7.473-46.586-39.19-39.627-72.209
			c4.49-21.283,13.119-32.537,4.719-53.633c-6.658-16.692-25.799-18.633-23.199-41.808c4.164-37.129,38.715-35.319,60.73-17.187
			c26.133,21.537,35.691,59.682,37.468,92.039c0.058,1.058,0.11,2.146,0.155,3.263c0.987-13.069,1.518-26.563-0.293-40.444
			c-5.912-45.321-30.013-81.303-51.717-118.72c-22.104,31.483-48.387,60.646-77.26,80.544l48.189,147.57
			c44.165,127.797,112.693,245.394,191.084,355.094c71.65,100.26,172.555,220.215,287.741,272.445
			c73.59,33.373,141.899,55.455,220.437,75.082c133.944,33.49,292.81,32.533,428.897,15.037
			c144.466-18.574,285.713-58.155,421.24-111.146c133.058-52.017,242.388-125.979,355.244-213.198
			c116.207-89.811,230.304-275.43,257.372-322.775C6748.162,5968.541,6718.756,5946.576,6689.313,5924.665z M6591.247,6222.271
			c-22.327,30.035-62.035,38.828-93.872,31.972c-41.215-8.882-69.238-43.99-29.384-93.235
			c22.034-27.232,86.497-63.16,122.367-46.605C6631.704,6133.51,6610.232,6196.734,6591.247,6222.271z" style="stroke:black;fill:#80cdf8"/><path id="180622565" parent_id="180622552" order="67" structure_id="465" d="M4724.76,5955.025
			c36.691,29.092,74.991,59.799,93.956,103.916c11.335,26.364,18.366,55.736,23.476,83.931
			c9.281,51.202,29.563,96.251,63.707,135.931c38.574,44.83,98.336,65.809,144.953,101.168
			c58.482,44.354,121.862,82.461,189.274,111.623c75.603,32.696,179.668,75.276,263.745,71.77
			c35.396-1.475,64.626-23.514,91.5-44.165c28.585-21.965,68.154-51.409,104.188-59.04c37.492-7.938,79.14,4.982,117.959-0.094
			c67.037-8.77,127.883-42.02,193.617-55.938c150.754-31.912,281.625-115.334,381.998-230.355
			c54.527-62.485,125.563-88.963,195.908-128.131c46.104-25.672,76.199-71.998,100.272-120.976
			c-32.983-24.548-66.013-49.026-99.067-73.399c-16.813,18.91-32.557,39.146-47.358,52.926
			c-30.663,28.545-54.125,61.035-83.133,87.854c-0.013,0.01-0.022,0.021-0.033,0.03c-18.97,17.556-32.952,41.744-52.705,60.137
			c-43.595,40.57-82.382,87.738-132.878,120.13c-52.068,33.409-108.384,35.328-162.197,61.118
			c-36.555,17.52-66.02,49.217-105.359,61.159c-32.732,9.937-45.389-1.983-74.201-13.173c-67.152-26.091-129-1.689-173.206,52.257
			c-53.544,65.345-172.61,51.892-243.544,87.634c-91.68,46.198-174.893,68.229-233.407-39.643
			c-24.462-45.104-52.362-83.07-100.749-107.599c-51.955-26.345-105.271-16.726-152.174-54.944
			c-46.951-38.266-67.258-87.088-90.073-141.738c-50.782-121.639-114.959-232.656-178.633-347.012
			c-23.204-41.674-46.823-81.334-68.3-122.68c-1.729,3.865-3.498,7.691-5.307,11.475c-11.267,23.545-25.635,48.78-42.41,72.679
			c21.705,37.417,45.806,73.397,51.717,118.72C4703.475,5865.654,4673.855,5914.667,4724.76,5955.025z" style="stroke:black;fill:#80cdf8"/><path id="180622564" parent_id="180622552" order="68" structure_id="473" d="M4939.227,6077.413
			c22.814,54.651,43.121,103.474,90.072,141.737c46.902,38.222,100.219,28.603,152.174,54.945
			c48.387,24.527,76.287,62.495,100.749,107.598c58.515,107.871,141.729,85.842,233.407,39.644
			c70.934-35.743,190-22.29,243.544-87.634c44.206-53.947,106.054-78.348,173.206-52.257c28.813,11.188,41.468,23.108,74.201,13.173
			c39.341-11.941,68.807-43.641,105.359-61.159c53.813-25.79,110.129-27.709,162.197-61.118
			c50.496-32.391,89.283-79.559,132.878-120.13c19.753-18.392,33.735-42.581,52.705-60.138c0.011-0.01,0.021-0.021,0.033-0.029
			c29.008-26.818,52.47-59.309,83.133-87.854c14.804-13.779,30.545-34.018,47.358-52.928c-16.873-12.44-33.752-24.855-50.637-37.234
			c-71.07-52.105-91.948-51.91-95.15,38.339c-1.996,56.147-37.851,87.626-81.069,121.901
			c-35.161,27.885-99.991,28.012-124.298,64.668c-19.654,29.651-8.793,68.41-31.348,97.408
			c-22.133,28.449-61.881,42.935-94.947,53.274c-80.141,25.048-153.404,39.229-238.296,30.215
			c-81.38-8.634-152.224,20.103-226.864,47.701c-123.278,45.583-249.688-20.642-352.074-82.063
			c-106.42-63.84-207.887-127.655-291.791-220.662c-50.767-56.263-96.08-117.246-139.405-179.342
			c-35.138-50.371-84.681-106.832-97.376-168.396c-6.502-31.543,15.76-55.133,21.193-77.753c5.42-22.616-5.979-44.259-57.715-94.01
			c-0.272,54.947-15.625,111.977-38.174,162.411c21.477,41.345,45.096,81.006,68.299,122.679
			C4824.268,5844.757,4888.443,5955.773,4939.227,6077.413z M5336.107,6236.721c49.936-14.362,58.793,79.479,64.104,107.865
			c5.265,28.104,5.771,103.328-41.696,98.203c-12.906-1.395-20.844-9.254-25.342-20.633c-11.367-28.789-3.056-64.256,3.668-93.098
			C5345.243,6293.05,5338.473,6272.874,5336.107,6236.721z M5031.621,6183.293c2.307-39.993,68.953-82.658,67.895-22.588
			C5098.749,6204.378,5027.393,6256.594,5031.621,6183.293z" style="stroke:black;fill:#80cdf8"/><path id="180622562" parent_id="180622552" order="69" structure_id="258" d="M5029.201,3817.227
			c-55.068-38.485-150.65-20.186-200.527,16.899c-137.459,102.17-383.203,280.938-383.203,280.938s-3.951,153.693-6.804,250.963
			c-1.508,51.707-6.209,194.66-6.209,194.66s80.752,25.297,120.419,30.276c45.9,5.765,132.316,31.571,156.348,124.896
			c33.873-56.277,119.285-164.719,144.922-251.012c9.705-32.631,9.858-67.923,20.217-99.932
			c12.019-37.182,38.021-62.547,52.402-98.584c36.082-90.47,115.105-167.629,145.085-266.539
			C5090.566,3938.057,5088.05,3858.396,5029.201,3817.227z M4580.664,4307.691c0.709,43.271,19.206,84.138,18.154,127.533
			c-0.912,37.592,0.855,115.342-51.188,118.162c-76.979,4.158-51.892-118.518-55.771-161.672
			c-2.949-32.929,1.395-65.738-2.166-98.744c-3.978-36.855-8.531-86.371,13.379-118.582c14.121-20.768,35.984-23.664,55.574-15.996
			c17.836,6.987,33.791,22.752,40.262,41.785C4611.254,4236.473,4580.068,4271.602,4580.664,4307.691z" style="stroke:black;fill:#90cbed"/><path id="180622561" parent_id="180622552" order="70" structure_id="333" d="M4598.908,4200.18
			c-6.471-19.035-22.425-34.799-40.262-41.785c-19.59-7.668-41.453-4.771-55.574,15.994c-21.91,32.213-17.355,81.728-13.379,118.582
			c3.561,33.006-0.783,65.816,2.166,98.744c3.879,43.155-21.209,165.832,55.771,161.672c52.045-2.818,50.276-80.568,51.188-118.162
			c1.051-43.396-17.445-84.261-18.154-127.533C4580.068,4271.602,4611.254,4236.473,4598.908,4200.18z" style="stroke:black;fill:#90cbed"/><path id="180622558" parent_id="180622552" order="71" structure_id="342" d="M6066.902,6178.115
			c42.594-9.689,83.319-22.678,110.625-43.212c34.297-25.774,24.445-80.63,51.304-113.11c23.321-28.164,35.847-32.289,69.972-40.086
			c36.76-8.39,55.33-24.572,84.853-47.625c74.737-58.355,34.925-162.552-2.778-192.078
			c-45.299-35.479-163.916-95.479-211.146-131.334c-14.293-10.85-34.778,120.033-131.453,215.313
			c-86.433,85.188-222.089,183.276-345.229,246.687c-113.215,58.307-212.84,87.941-320.287,37.051
			c-93.351-44.215-109.142-141.228-188.875-197.239c-40.89-28.724-94.156-37.64-134.875-66.013
			c-54.686-38.105-94.01-97.746-128.373-153.686c-22.188-36.15-39.016-78.264-66.598-110.841
			c-32.023-37.793-81.502-29.885-72.352,29.062c5.574,35.932,34.965,65.982,55.785,94.026
			c51.563,69.435,90.457,148.54,152.851,209.206c92.86,90.277,183.53,190.975,301.479,245.605
			c113.021,52.334,227.639,129.937,358.903,81.403c39.455-14.59,89.854-36.444,131.054-42.601
			c51.58-7.717,102.541,16.438,154.064,4.773C5971.695,6195.279,6020.408,6188.671,6066.902,6178.115z" style="stroke:black;fill:#a2b1d8"/><path id="180622563" parent_id="180622552" order="72" structure_id="596" d="M4409.544,5354.695
			c-0.465,5.521-0.758,10.951,0.235,16.438c7.637,42.002,34.037,77.827,51.401,116.646c24.729,55.275,47.995,110.471,67.576,167.836
			c4.489,13.164,8.621,26.451,12.874,39.695c3.08,9.596,7.488,18.738,10.602,28.284c2.479,7.64,5.428,16.521,6.877,24.308
			c42.187-35.951,77.191-84.239,101.223-134.5c66.004-138.058,65.384-316.393,51.133-464.858
			c-8.898-92.8-57.749-178.819-52.145-273.453c4.295-72.909,45.689-155.842-14.649-216.431
			c-40.435-40.588-92.323-54.849-146.422-60.588c-16.224-1.729-68.203-22.85-68.203-22.832
			c-3.397,117.272-5.933,300.195-7.179,417.547C4421.588,5113.502,4419.6,5234.346,4409.544,5354.695z" style="stroke:black;fill:#96a7d3"/><path id="180622628" parent_id="180622552" order="73" structure_id="1009" d="M5191.615,2757.482
			c36.657-57.955,74.029-114.722,107.535-170.515c23.684-39.466,51.791-76.132,84.73-106.646
			c42.888-39.66,93.99-68.982,154.521-80.834c19.981-3.929,38.993-3.21,57.769-0.079c28.33,4.66,55.832,14.891,84.314,22.896
			c54.57,15.188,110.348,26.238,161.988,50.273c28.086,13.085,56.244,26.589,83.64,40.489c19.087,9.651,38.767,18.986,58.696,28.33
			c87.297,41.013,179.521,81.918,252.426,144.218c45.615,39.053,92.459,64.536,131.812,112.256
			c145.959,177.11,276.438,381.401,291.026,612.469c1.554,24.17,1.847,48.638,0.711,73.396c-0.155,2.5-0.229,5.002-0.388,7.585
			c-0.774-2.026-1.161-3.122-1.161-3.122s-2.041,53.114-6.577,103.069c-0.256,3.08-0.595,6.076-0.849,9.073
			c-7.789,72.899-23.162,142.49-71.463,204.783c-11.619,14.938-21.348,30.853-29.595,47.56c-0.086,0.08-0.086,0.08-0.088,0.164
			c-3.694,6.486-7.06,13.15-10.099,20.074c-11.978,27.284-19.638,58.282-24.797,89.437c-3.242,19.689-5.571,39.573-7.147,59.396
			c-0.374,4.246-0.745,8.409-1.037,12.741c-4.865,61.298-4.334,123.587-7.647,180.338c-0.998,17.167-2.242,34.16-3.564,50.983
			c-2.709,9.938-2.411,22.72-2.384,30.399c-0.036,1.251,0.013,2.505-0.024,3.756c-2.158,31.241-3.813,62.413-3.484,94.312
			c0.24,34.899,0.021,71.205-3.271,107.088c-0.014,0.5-0.108,0.916-0.121,1.332c-3.485,33.875-9.879,67.246-19.705,98.099
			c-0.097,0.415-0.274,0.827-0.453,1.239c-5.199,15.209-11.641,30.047-19.48,44.262c-6.344,11.503-13.104,22.993-20.021,34.146
			c-17.603,28.373-35.145,57.582-53.72,85.008c0.26-6.086,0.858-12.33,1.037-18.502c1.164-43.039,27.847-93.854,37.752-136.058
			c14.008-59.946,30.571-130.255,29.601-191.806c-2.07-127.277-3.211-254.945,9.396-381.799
			c8.061-82.24,27.721-164.396,39.938-246.016c14.465-95.829,17.527-192.907,18.746-289.62
			c1.287-99.133-58.65-194.113-107.25-277.078c-129.571-221.211-383.899-351.627-639.894-335.339
			c-197.954,12.627-367.301,138.441-490.01,288.148c-85.497,104.287-168.79,218.907-188.452,355.822
			c-8.895,62.1,0.889,124.906,14.152,185.646c11.43,52.086,33.084,108.476,37.418,160.606
			c10.358,126.434-67.965,233.768-127.908,337.711c-29.709,51.563-52.977,105.48-82.679,156.793
			c-13.536,23.481-59.53,69.563-53.567,10.719c4.242-42.7,39.285-79.583,54.769-118.368
			c37.085-92.919,115.153-165.535,144.326-261.938c18.735-61.729,17.004-146.009-41.824-187.113
			c-18.653-13.063-43.159-17.195-65.065-21.754c-28.377-5.914-63.711,6.418-87.597,1.051c-7.794-1.813-14.696-5.602-20.897-10.539
			c-6.285-4.939-11.728-10.105-16.981-16.02c6.526-6.321,12.888-12.648,19.173-19.229c13.662-13.461,26.79-28.607,38.335-43.883
			c3.212-4.247,6.345-8.664,9.479-13.081c2.088-2.945,4.18-5.974,6.188-9.003c2.18-3.192,4.273-6.305,6.369-9.499
			c0.266-0.493,0.609-0.9,0.875-1.395c2.186-3.358,4.287-6.805,6.309-10.252c1.926-3.116,3.687-6.237,5.531-9.438
			c2.115-3.862,4.233-7.809,6.269-11.755c2.211-4.277,4.422-8.554,6.72-12.912c2.211-4.276,4.508-8.634,6.885-12.906
			c33.33-61.307,59.209-124.667,76.033-192.463c1.316-5.137,2.551-10.277,3.703-15.502c0.477-1.99,0.864-3.897,1.174-5.894
			c0.517-3.406,0.949-6.816,1.215-10.231c4.672-54.625-25.931-110.522-29.041-164.456c-0.113-1.84-0.229-3.679-0.258-5.518
			c0.34-8.839,1.021-18,2.049-27.487c0.379-1.575,0.756-3.067,1.301-4.554c-0.248-0.092-0.496-0.182-0.744-0.272
			c4.365-38.272,13.58-79.744,23.903-113.335C5064.025,2966.146,5126.62,2860.027,5191.615,2757.482z" style="stroke:black;fill:#cccccc"/><path id="180622629" parent_id="180622552" order="74" structure_id="1009" d="M5681.908,4686.786
			c52.068,44.765,97.154,109.722,120.542,174.131c14.269,39.235,54.556,138.321-0.474,164.806
			c-62.793,30.183-204.977-54.89-251.799-91.59c-80.074-62.776-89.674-183.217-23.711-260.281
			C5568.316,4624.932,5629.253,4641.518,5681.908,4686.786z" style="stroke:black;fill:#cccccc"/><path id="180622630" parent_id="180622552" order="75" structure_id="1009" d="M7031.391,5542.107
			c-56.99,57.32-125.373,121.449-168.543,190.551c-12.803,20.479-41.086,81.082,1.181,83.021
			c16.772,0.776,26.577-5.115,34.422-13.412c4.638-6.199,9.367-12.248,14.203-18.069c1.931-2.51,3.946-4.994,6.142-7.379
			c1.09-1.184,2.196-2.367,3.319-3.554c3.417-3.783,6.883-7.444,10.403-10.951c5.883-5.856,11.994-10.931,18.304-15.576
			c10.08-8.011,20.714-15.058,31.521-20.217c2.498-1.49,5.018-2.993,7.558-4.526c21.022-12.694,38.722-24.727,56.38-41.467
			c31.502-29.854,56.502-53.729,88.412-84.746c29.979-29.144,65.416-57.006,93.879-87.813c9.368-10.139,18.771-20.286,28.186-30.45
			c5.742-6.397,11.104-12.354,15.826-17.472C7172.247,5425.07,7103.154,5469.973,7031.391,5542.107z" style="stroke:black;fill:#cccccc"/><path id="180622627" parent_id="180622552" order="76" structure_id="81" d="M5273.047,3177.389
			c94.85-115.693,215.65-210.375,332.348-252.906c-28.342,65.957-113.119,123.148-164.138,181.858
			c-60.128,69.188-142.551,112.238-197.487,186.769c-58.319,79.095-39.008,144.168-38.535,233.692
			c0.563,103.87-31.828,204.667-30.924,309.042c0.742,84.256-35.584,165.872-12.41,253.375
			c-18.979-33.091-39.088-55.355-39.022-95.48c8.955-28.679,16.606-73.422,13.241-114.278
			c-4.294-52.103-25.953-108.507-37.361-160.579c-13.297-60.752-23.061-123.549-14.162-185.682
			C5104.2,3396.263,5187.535,3281.698,5273.047,3177.389z" style="stroke:black;fill:#aaaaaa"/></g>
</g>
</svg>