<svg width="10192" height="7792" xmlns="http://www.w3.org/2000/svg">
<g transform="scale(1.0)">
<g id="180639470" order="1" parent_id="" graphic_group_label_id="28" graphic_group_label="Atlas - Adult Mouse" sub_image_id="100966092" transform=" scale(1.0, 1.0)"><path id="180639472" parent_id="180639470" order="0" structure_id="8" d="M9528.771,2887.525
			c-87-244.853-270.049-456.979-445.086-668.81c-299.459-362.392-656.466-692.204-1055.018-954.095
			c-145.433-95.563-339.022-207.249-497.83-279.109c-359.02-162.455-678.653-333.825-1078.234-332.875
			c-149.076,0.357-424.902,107.684-561.156,211.893c-80.986,61.938-55.094,139.688,7.777,217.385
			c-0.207-0.256-0.422-0.515-0.629-0.771l-2.767,0.945c-201.853-204.445-579.237,75.179-759.925,196.865L5031.871,7049.6
			c48.832,4.354,108.393,28.571,153.118,36.01c115.022,19.121,228.706,9.553,340.97-10.478
			c237.188-42.315,466.779-64.72,676.002-194.513c130.621-81.029,247.412-167.349,368.475-258.94
			c98.507-74.526,163.895-186.668,215.965-305.128c58.766-133.693,31.262-282.964,164.617-371.063
			c25.523-32.787,32.634,128.283,38.932,202.011c15.021,175.923,69.859,224.539,236.896,288.737
			c275.907,106.03,645.582,58.133,494.956-335.099c-33.915-88.542-103.994-181.032-166.443-251.419
			c-61.095-68.854-92.348-97.006-277.052-154.607c-16.272-5.071-47.444,5.881-40.847-39.525
			c4.114-28.313,120.429-256.889,124.939-321.907c7.491-107.918,57.225-561.399-151.057-534.675
			c-1.623-128.598,26.709-264.051,29.623-393.346c6.28-278.809-18.627-530.774-38.42-809.254
			c-15.039-211.604,12.961-455.369-7.881-666.655c-19.543-198.099-97.785-324.14-192.771-494.966
			c-49.379-88.839-112.323-134.563-201.472-244.588c89.149,110.021,152.086,155.726,201.432,244.496
			c55.081,99.092,143.986,225.317,168.797,318.892c85.604,322.925,136.82,504.598,158.499,659.485
			c58.911,420.808,227.789,928.323,412.11,1345.625c151.73,343.52,288.86,574.563,558.608,596.049
			c212.922,16.967,787.007-85.552,869.89-269.86c136.189-302.849,274.676-515.745,306.676-677.246
			c58.141-293.39-69.82-560.146-72.418-824.172c-1.25-127.749,110.342-126.843,142.342-288.345
			C9575.34,3148.903,9572.344,3010.162,9528.771,2887.525z" style="stroke:black;fill:#bfdae3"/><path id="180639473" parent_id="180639470" order="1" structure_id="688" d="M9528.771,2887.525
			c-87-244.853-270.049-456.979-445.086-668.81c-299.459-362.392-656.466-692.204-1055.018-954.095
			c-145.433-95.563-339.022-207.249-497.83-279.109c-359.02-162.455-678.653-333.825-1078.234-332.875
			c-149.076,0.357-424.902,107.684-561.156,211.893c-174.527,133.478,147.268,340.382,265.958,461.941
			c71.79,73.532,322.491,365.407,506.074,667.139c166.897,274.279,266.892,312.488,338.374,441.08
			c55.081,99.093,143.986,225.318,168.797,318.893c85.604,322.925,136.82,504.598,158.499,659.484
			c58.911,420.809,227.789,928.324,412.11,1345.625c151.73,343.521,288.86,574.563,558.608,596.051
			c212.922,16.965,787.007-85.553,869.89-269.861c136.189-302.848,274.676-515.745,306.676-677.246
			c58.141-293.389-69.82-560.146-72.418-824.172c-1.25-127.749,110.342-126.843,142.342-288.345
			C9575.34,3148.903,9572.344,3010.162,9528.771,2887.525z M8489.251,3229.854c-8.171,47.479-27.125,84.541-63.55,94.855
			c-9.513,2.073-18.834,2.736-28.05,2.154l-0.177,0.579c-66.829-4.446-141.422-80.847-174.907-141.378
			c-12.475-22.667-25.582-47.09-39.095-72.187c-30.313-56.651-62.39-116.991-92.802-168.241c-0.479-1.006-1.044-2.014-1.692-2.938
			c-24.441-41.168-47.744-76.415-68.033-98.973c-55.654-61.845-116.078-121.948-188.477-163.316
			c-17.029-9.782-34.825-18.499-53.309-25.979c-15.019-6.089-28.529-12.733-40.867-19.938c-0.166-0.086-0.246-0.171-0.412-0.257
			c-18.67-10.977-34.655-23.232-49.043-36.625c-0.819-0.68-1.638-1.441-2.453-2.288c-40.127-37.877-68.469-84.103-111.942-134.591
			c-10.502-12.242-21.082-24.734-31.905-37.563c-21.889-26.077-61.095-64.354-100.814-106.38
			c-39.967-42.195-80.531-88.144-104.805-129.475c-13.066-22.096-21.42-42.859-22.506-60.999c-0.326-4.91,0.002-9.31,0.982-13.032
			c2.07-8.773,7.408-14.412,15.438-17.259c7.78-2.77,18.008-3,30.355-0.949c52.792,8.515,144.678,56.967,246.029,119.803
			c209.037,129.276,458.623,319.211,489.687,343.543c2.623,2.042,5.327,4.169,8.115,6.298
			c89.58,70.271,221.888,177.218,301.358,287.284c22.95,31.749,41.407,63.75,53.224,95.216c4.68,12.469,10.002,30.768,15.01,52.635
			c0.543,2.171,1.003,4.34,1.459,6.676c0.618,2.588,1.152,5.257,1.768,8.011c0.768,3.505,1.45,7.175,2.132,10.845
			c0.841,4.088,1.597,8.257,2.351,12.51c0.605,3.336,1.207,6.837,1.726,10.338c0.523,3.251,1.047,6.502,1.568,9.836
			c2.226,14.835,4.19,30.331,5.654,45.982c0.149,0.917,0.216,1.833,0.283,2.748
			C8495.361,3149.091,8495.572,3192.73,8489.251,3229.854z" style="stroke:black;fill:#b0ffb8"/><path id="180639553" parent_id="180639470" order="2" structure_id="593" d="M8113.791,1322.102l-46.529,82.112
			c-181.512-107.003-358.597-229.054-548.369-320.413c-102.51-49.309-207.93-84.706-311.34-130.124
			c-96.649-42.387-197.847-90.758-290.109-141.293c-61.234-33.52-138.916-53.872-217.553-62.687l-40.328-82.1
			c307.971,45.033,576.254,184.438,871.242,317.924c158.789,71.85,352.436,183.561,497.83,279.106
			C8057.221,1283.429,8085.634,1302.561,8113.791,1322.102z" style="stroke:black;fill:#08858c"/><path id="180639552" parent_id="180639470" order="3" structure_id="821" d="M7942.958,1623.232
			c-53.642-30.558-108.567-58.978-164.422-86.747c-99.513-49.587-122.169-83.741-230.294-135.063
			c-48.047-22.809-114.059-58.824-160.529-86.012c-61.604-36.104-137.383-69.719-199.66-105.418
			c-63.674-36.474-112.146-77.243-177.537-110.672c-53.371-27.229-110.108-47.367-168.875-61.145l-141.75-288.479
			c78.637,8.814,156.316,29.167,217.553,62.687c92.264,50.536,193.46,98.907,290.109,141.293
			c103.41,45.418,208.83,80.815,311.34,130.124c189.772,91.359,366.857,213.41,548.369,320.413L7942.958,1623.232z" style="stroke:black;fill:#08858c"/><path id="180639551" parent_id="180639470" order="4" structure_id="721" d="M7897.115,1704.11
			c-112.604-65.698-222.217-126.688-341.449-198.158c-115.611-69.41-235.246-132.409-346.298-210.38
			c-77.071-54.169-156.938-96.087-248.915-139.555c-25.795-12.268-49.755-20.263-73.831-26.432l-44.981-91.409
			c58.767,13.776,115.504,33.916,168.875,61.145c65.393,33.429,113.862,74.198,177.537,110.672
			c62.277,35.699,138.057,69.315,199.66,105.418c46.473,27.187,112.482,63.203,160.529,86.012
			c108.125,51.321,130.782,85.476,230.294,135.063c55.854,27.771,110.78,56.189,164.422,86.746L7897.115,1704.11z" style="stroke:black;fill:#08858c"/><path id="180639550" parent_id="180639470" order="5" structure_id="778" d="M7897.115,1704.11l-176.24,310.592
			c-62.727-52.248-123.499-106.789-181.131-165.013c-135.264-136.591-296.367-282.873-478.256-364.366l-174.866-355.737
			c24.076,6.169,48.036,14.165,73.831,26.432c91.977,43.468,171.844,85.386,248.915,139.555
			c111.052,77.971,230.687,140.97,346.298,210.38C7674.898,1577.422,7784.512,1638.412,7897.115,1704.11z" style="stroke:black;fill:#08858c"/><path id="180639549" parent_id="180639470" order="6" structure_id="33" d="M7626.188,2181.641
			c-76.477-54.905-164.981-120.252-250.445-123.789c-8.057-0.311-18.977,1.404-30.589,4.686l-283.664-577.213
			c181.89,81.493,342.993,227.775,478.256,364.366c57.632,58.224,118.405,112.765,181.131,165.013L7626.188,2181.641z" style="stroke:black;fill:#08858c"/><path id="180639548" parent_id="180639470" order="7" structure_id="305" d="M7375.741,2057.852
			c85.464,3.536,173.97,68.884,250.444,123.789l-17.769,31.266l-1.199,1.973c-101.353-62.835-193.237-111.288-246.028-119.803
			l-16.037-32.539C7356.766,2059.255,7367.686,2057.541,7375.741,2057.852z" style="stroke:black;fill:#08858c"/><path id="180639547" parent_id="180639470" order="8" structure_id="750" d="M8723.828,1827.151l-70.078,83.6
			c-79.445-83.801-159.318-162.375-255.457-251.548c-103.494-96.121-182.721-169.031-300.023-236.809
			c-10.364-6.006-20.729-12.011-31.008-18.181l46.529-82.112C8331.179,1472.308,8535.402,1642.724,8723.828,1827.151z" style="stroke:black;fill:#08858c"/><path id="180639546" parent_id="180639470" order="9" structure_id="269" d="M7942.958,1623.232l124.304-219.02
			c10.278,6.17,20.644,12.175,31.008,18.18c117.304,67.778,196.529,140.688,300.023,236.81
			c96.139,89.174,176.012,167.747,255.457,251.548l-137.776,164.167c-29.763-27.301-57.277-54.81-101.125-103.062
			c-97.799-107.737-193.016-160.405-292.931-233.854C8064.499,1695.741,8004.583,1658.172,7942.958,1623.232z" style="stroke:black;fill:#08858c"/><path id="180639545" parent_id="180639470" order="10" structure_id="869" d="M7897.115,1704.11l45.843-80.878
			c61.625,34.938,121.541,72.509,178.961,114.77c99.914,73.449,195.131,126.117,292.93,233.854
			c43.848,48.252,71.362,75.761,101.125,103.062l-46.125,55.022h-0.083c-21.034-22.738-43.738-45.091-69.028-66.907
			c-106.155-91.433-226.403-189.519-342.297-261.759C8003.207,1766.782,7949.839,1734.9,7897.115,1704.11z" style="stroke:black;fill:#08858c"/><path id="180639544" parent_id="180639470" order="11" structure_id="902" d="M8400.737,2063.032
			c25.29,21.816,47.994,44.169,69.028,66.907l-232.149,276.752c-171.179-131.586-350.838-253.684-516.741-391.99l176.24-310.592
			c52.725,30.789,106.092,62.671,161.325,97.164C8174.334,1873.515,8294.582,1971.601,8400.737,2063.032z" style="stroke:black;fill:#08858c"/><path id="180639543" parent_id="180639470" order="12" structure_id="377" d="M8031.007,2442.365
			c-113.62-78.435-233.397-147.336-349.243-222.236c-17.582-11.372-36.212-24.591-55.577-38.488l94.688-166.938
			c165.902,138.307,345.563,260.404,516.74,391.99l-95.984,114.385C8105.049,2493.986,8067.867,2467.881,8031.007,2442.365z" style="stroke:black;fill:#08858c"/><path id="180639542" parent_id="180639470" order="13" structure_id="393" d="M7626.188,2181.641
			c19.365,13.897,37.994,27.117,55.576,38.488c115.847,74.899,235.623,143.803,349.244,222.236
			c36.859,25.518,74.041,51.621,110.623,78.712l-36.609,43.642c-2.788-2.129-5.492-4.256-8.115-6.298
			c-31.063-24.332-280.648-214.267-489.688-343.543l1.199-1.973L7626.188,2181.641z" style="stroke:black;fill:#08858c"/><path id="180639559" parent_id="180639470" order="14" structure_id="805" d="M6659.563,667.598l40.328,82.1
			c-69.348-7.733-139.438-6.503-199.694,2.55c-87.179,13.14-194.396,45.12-270.229,83.731c-5.117,2.65-10.315,5.134-15.598,7.614
			l-93.854-105.256c118.845-49.973,246.404-85.491,332.021-85.694C6523.854,652.518,6592.662,657.83,6659.563,667.598z" style="stroke:black;fill:#08858c"/><path id="180639558" parent_id="180639470" order="15" structure_id="41" d="M6841.641,1038.177
			c-86.57-20.511-177.623-27.556-269.278-24.221c-30.94,1.104-117.048,0.965-100.442,34.263l-12.517,7.338
			c-12.21,8.756-21.787,18.974-28.976,30.397l-216.059-242.36c5.281-2.48,10.479-4.964,15.598-7.615
			c75.834-38.61,183.051-70.591,270.229-83.73c60.257-9.054,130.349-10.284,199.694-2.55L6841.641,1038.177z" style="stroke:black;fill:#08858c"/><path id="180639557" parent_id="180639470" order="16" structure_id="501" d="M6792.866,1111.105
			c-58.405-10.693-279.474-7.448-317.31-57.253c-1.543-2.021-2.756-3.873-3.639-5.634c-16.605-33.298,69.502-33.158,100.441-34.263
			c91.655-3.335,182.709,3.71,269.279,24.221l44.98,91.409C6856.754,1121.983,6826.75,1117.286,6792.866,1111.105z" style="stroke:black;fill:#08858c"/><path id="180639556" parent_id="180639470" order="17" structure_id="565" d="M6475.559,1053.854
			c37.834,49.805,258.902,46.559,317.309,57.253c33.884,6.18,63.889,10.877,93.756,18.479l174.866,355.737
			c-39.658-17.837-80.288-32.45-121.817-43.339c-94.062-24.554-146.041-8.949-164.137,31.119l-345.105-387.15
			c7.188-11.424,16.765-21.641,28.975-30.397l12.518-7.338C6472.802,1049.979,6474.016,1051.83,6475.559,1053.854z" style="stroke:black;fill:#08858c"/><path id="180639555" parent_id="180639470" order="18" structure_id="257" d="M7312.666,2075.666l-537.132-602.563
			c18.095-40.068,70.075-55.673,164.138-31.119c41.528,10.89,82.158,25.502,121.816,43.339l283.664,577.213
			C7334.292,2065.583,7322.823,2070.113,7312.666,2075.666z" style="stroke:black;fill:#08858c"/><path id="180639554" parent_id="180639470" order="19" structure_id="469" d="M7345.152,2062.537l16.037,32.539
			c-12.349-2.051-22.576-1.82-30.355,0.949l-18.168-20.358C7322.823,2070.113,7334.292,2065.583,7345.152,2062.537z" style="stroke:black;fill:#08858c"/><path id="180639564" parent_id="180639470" order="20" structure_id="442" d="M6530.879,1659.78l-175.05-101.235
			c-89.076-112.068-164.181-196.957-198.457-232.068c-118.661-121.578-440.504-328.442-265.96-461.941
			c57.9-44.338,141.163-89.217,229.104-126.197l93.854,105.256c-88.272,41.63-181.411,62.644-151.388,186.114
			c36.371,149.353,237.054,294.937,320.571,420.204c14.487,21.706,28.897,42.994,43.313,64.033
			C6461.37,1564.188,6495.904,1612.604,6530.879,1659.78z" style="stroke:black;fill:#1aa698"/><path id="180639563" parent_id="180639470" order="21" structure_id="434" d="M6612.572,1706.469
			c-55.463-31.533-34.067-19.17-46.996-26.641l-34.697-20.048c-7.33-10.698-42.801-58.36-76.575-106.276
			c-32.647-46.316-63.629-92.923-70.75-103.592c-83.519-125.27-284.2-270.852-320.571-420.204
			c-30.023-123.472,63.113-144.484,151.388-186.114l216.06,242.36c-69.989,110.864,83.86,336.809,181.938,475.222
			c62.089,87.563,188.063,209.19,290.986,313.945l-290.213-167.811C6612.979,1707.058,6612.734,1706.721,6612.572,1706.469z" style="stroke:black;fill:#1aa698"/><path id="180639562" parent_id="180639470" order="22" structure_id="610" d="M7096.172,1986.567l-192.818-111.446
			c-102.924-104.755-228.897-226.383-290.986-313.945c-98.077-138.414-251.928-364.357-181.938-475.222l345.105,387.15
			c-18.092,39.985-2.46,104.185,38.616,177.071C6890.747,1785.958,6986.076,1892.404,7096.172,1986.567z" style="stroke:black;fill:#1aa698"/><path id="180639561" parent_id="180639470" order="23" structure_id="274" d="M7312.666,2075.666
			c-10.996,5.952-20.516,13.012-26.311,20.886l-190.185-109.984c-110.097-94.163-205.425-200.609-282.021-336.393
			c-41.076-72.887-56.709-137.086-38.617-177.071L7312.666,2075.666z" style="stroke:black;fill:#1aa698"/><path id="180639560" parent_id="180639470" order="24" structure_id="330" d="M7312.666,2075.666l18.168,20.357
			c-8.029,2.848-13.368,8.486-15.438,17.26l-29.039-16.731C7292.15,2088.678,7301.67,2081.618,7312.666,2075.666z" style="stroke:black;fill:#1aa698"/><path id="180639570" parent_id="180639470" order="25" structure_id="542" d="M6937.796,2140.721
			c-71.799,13.002-141.761,43.99-141.761,43.99c2.846,3.542,5.689,7.084,8.455,10.459c-40.987-50.11-87.633-113.706-141.074-201.526
			c-95.901-157.657-210.139-312.57-307.588-435.098l175.051,101.235c119.77,161.496,244.625,308.289,389.31,461.755
			C6926.143,2127.877,6932.012,2134.217,6937.796,2140.721z" style="stroke:black;fill:#1aa698"/><path id="180639569" parent_id="180639470" order="26" structure_id="606" d="M6976.701,2135.77
			c-12.732,0.852-25.896,2.609-38.904,4.951c-5.785-6.504-11.654-12.844-17.607-19.185
			c-144.684-153.468-269.54-300.259-389.311-461.755l82.262,47.529c56.962,81.485,119.396,159.162,185.634,233.333
			C6858.251,2007.13,6919.188,2071.064,6976.701,2135.77z" style="stroke:black;fill:#1aa698"/><path id="180639568" parent_id="180639470" order="27" structure_id="430" d="M6798.773,1940.645
			c-66.237-74.172-128.672-151.849-185.635-233.334l290.213,167.811c38.119,38.672,73.037,75.125,100.396,106.622
			c49.995,57.587,103.559,115.571,157.354,174.475c-59.172-9.628-119.025-18.354-153.895-20.645
			c-9.796-0.675-20.021-0.527-30.508,0.198C6919.188,2071.064,6858.251,2007.13,6798.773,1940.645z" style="stroke:black;fill:#1aa698"/><path id="180639567" parent_id="180639470" order="28" structure_id="687" d="M7161.104,2156.217
			c-53.795-58.902-107.358-116.887-157.354-174.475c-27.359-31.496-62.277-67.949-100.396-106.622l192.819,111.446
			c60.979,52.3,126.435,100.773,195.646,148.234c0.08,0.168,0.162,0.252,0.328,0.257c3.764,3.392,20.426,9.097,26.184,12.441
			l-0.805-3.295l-1.834-7.857l-1.277-10.031c1.087,18.139,9.439,38.903,22.506,60.999
			C7336.918,2187.314,7249.693,2170.78,7161.104,2156.217z" style="stroke:black;fill:#1aa698"/><path id="180639566" parent_id="180639470" order="29" structure_id="590" d="M7286.355,2096.552
			c-8.604,11.648-9.174,24.854,5.461,38.25c-69.211-47.461-134.666-95.935-195.646-148.234L7286.355,2096.552z" style="stroke:black;fill:#1aa698"/><path id="180639565" parent_id="180639470" order="30" structure_id="622" d="M7314.412,2126.314l0.945,8.176l2.971,13.01
			c-4.762-3.244-21.505-9.117-26.184-12.441c-0.166-0.004-0.248-0.088-0.328-0.257c-14.636-13.396-14.064-26.602-5.461-38.25
			l29.039,16.731C7314.414,2117.006,7314.086,2121.406,7314.412,2126.314z" style="stroke:black;fill:#1aa698"/><path id="180639541" parent_id="180639470" order="31" structure_id="97" d="M9216.797,2380.625l-3.121,2.521l-77.699,45.145
			c-22.84-19.363-45.762-38.893-66.047-61.617c-62.16-69.775-183.938-198.394-247.305-270.435
			c-59.621-67.735-114.143-127.815-168.875-185.488l70.078-83.6c127.5,124.646,247.734,255.813,359.822,391.57
			C9128.063,2272.552,9173.059,2326.309,9216.797,2380.625z" style="stroke:black;fill:#15b0b3"/><path id="180639540" parent_id="180639470" order="32" structure_id="1127" d="M8749.266,2324.902
			c-61.693-72.594-102.793-134.926-187.4-209.096c-17.101-15.02-31.746-27.918-45.892-40.89l137.776-164.167
			c54.732,57.673,109.254,117.752,168.875,185.488c63.367,72.042,185.145,200.659,247.305,270.436
			c20.285,22.724,43.207,42.254,66.047,61.616l-188.234,109.231C8913.254,2481.792,8773.277,2353.18,8749.266,2324.902z" style="stroke:black;fill:#15b0b3"/><path id="180639539" parent_id="180639470" order="33" structure_id="234" d="M8667.578,2360.833
			c-75.25-76.745-128.18-155.996-197.729-230.892l46.125-55.023c14.146,12.972,28.791,25.87,45.892,40.89
			c84.607,74.17,125.707,136.501,187.4,209.095c24.012,28.277,163.988,156.891,198.477,212.619l-36.707,21.364
			C8818.117,2530.696,8694.676,2388.417,8667.578,2360.833z" style="stroke:black;fill:#15b0b3"/><path id="180639538" parent_id="180639470" order="34" structure_id="289" d="M8911.035,2558.886l-6.469,3.707l-338.759,196.7
			c-29.681-36.441-55.577-61.512-84.456-96.36c-71.581-86.651-154.705-187.726-241.851-254.794c-0.655-0.51-1.229-0.937-1.885-1.447
			l232.149-276.752l0.083,0.002c69.55,74.896,122.479,154.146,197.729,230.892
			C8694.676,2388.417,8818.117,2530.696,8911.035,2558.886z" style="stroke:black;fill:#15b0b3"/><path id="180639537" parent_id="180639470" order="35" structure_id="729" d="M8306.603,2655.709
			c-51.587-47.727-107.636-92.29-164.972-134.632l95.984-114.386c0.655,0.511,1.229,0.938,1.885,1.447
			c87.146,67.068,170.27,168.143,241.851,254.794c28.879,34.849,54.775,59.918,84.456,96.36l-125.155,72.632
			C8401.309,2769.043,8361.377,2706.4,8306.603,2655.709z" style="stroke:black;fill:#15b0b3"/><path id="180639536" parent_id="180639470" order="36" structure_id="786" d="M8141.631,2521.077
			c57.336,42.343,113.385,86.907,164.972,134.632c54.774,50.691,94.706,113.334,134.05,176.215l-27.719,16.124l-6.555,3.955
			c-79.471-110.066-211.778-217.015-301.357-287.284L8141.631,2521.077z" style="stroke:black;fill:#15b0b3"/><path id="180639535" parent_id="180639470" order="37" structure_id="836" d="M9539.59,3323.097
			c-63.729,3.341-129.418,0.161-194.686-7.915c32.447-75.551,65.885-150.668,73.463-234.313
			c17.23-190.527-87.113-396.214-186.266-553.349c-25.211-40.019-60.672-69.416-96.125-99.229l77.699-45.146l3.121-2.521
			c128.611,159.744,246.998,324.207,311.945,506.906c43.586,122.637,46.57,261.414,17.586,407.594
			C9544.402,3305.064,9542.074,3314.332,9539.59,3323.097z" style="stroke:black;fill:#0d9f91"/><path id="180639534" parent_id="180639470" order="38" structure_id="427" d="M8911.035,2558.886
			c12.875-7.493,16.424-9.559,26.563-15.459c10.146-5.905,0,0,10.146-5.905l188.236-109.23c35.451,29.813,70.91,59.211,96.123,99.23
			c99.152,157.134,203.496,362.819,186.264,553.348c-7.574,83.646-41.014,158.763-73.461,234.314
			c-34.582-4.281-69.057-9.973-103.096-16.737c-39.67-7.946-79.689-14.985-119.709-22.023
			c-56.756-9.917-113.68-19.837-169.891-32.319c0.426-0.574,0.934-1.064,1.441-1.554
			c176.615-27.237,187.715-135.672,143.824-292.143c-60.215-214.615-66.471-231.851-190.488-383.697l-2.42-4.116L8911.035,2558.886z
			" style="stroke:black;fill:#0d9f91"/><path id="180639533" parent_id="180639470" order="39" structure_id="988" d="M8779.857,3191.457
			c-13.373-78.954-58.934-175.028-91.793-238.042c-51.416-98.673-89.158-153.546-122.257-194.123l338.759-196.7l2.42,4.116
			c124.018,151.848,130.271,169.083,190.486,383.697c43.893,156.471,32.793,264.905-143.824,292.143
			c-0.508,0.489-1.014,0.979-1.439,1.554c-18.713-3.996-37.252-8.402-55.785-13.142
			C8856.547,3220.684,8818.074,3206.275,8779.857,3191.457z" style="stroke:black;fill:#0d9f91"/><path id="180639532" parent_id="180639470" order="40" structure_id="977" d="M8494.001,2920.244
			c-6.661-13.17-13.668-25.598-21.025-37.034c-10.915-16.986-21.66-34.136-32.323-51.285l125.155-72.632
			c33.099,40.576,70.841,95.449,122.257,194.123c32.859,63.014,78.42,159.088,91.793,238.042
			c-45.727-17.78-91.193-36.221-138.334-49.289c-21.336-5.954-43.199-10.337-64.979-14.886c-3.271-7.54-6.773-16.164-10.341-25.787
			c-0.08-0.168-0.16-0.335-0.238-0.586C8547.32,3051.699,8523.941,2979.215,8494.001,2920.244z" style="stroke:black;fill:#0d9f91"/><path id="180639531" parent_id="180639470" order="41" structure_id="1045" d="M8440.652,2831.925
			c10.663,17.148,21.408,34.298,32.323,51.285c7.357,11.437,14.364,23.864,21.025,37.034
			c29.276,58.876,45.247,122.749,71.965,180.665c0.078,0.251,0.158,0.418,0.238,0.586c3.567,9.623,7.069,18.247,10.341,25.787
			c-1.903-0.45-3.726-0.815-5.548-1.181c-16.855-5.541-35.32-9.447-50.067-12.125c-0.166-0.002-0.331-0.089-0.497-0.092
			c-9.922-2.921-19.672-6.09-29.163-9.835c-1.464-15.651-3.429-31.146-5.654-45.982c-0.521-3.334-0.962-6.583-1.568-9.836
			c-0.519-3.5-1.122-6.919-1.726-10.338c-0.754-4.252-1.51-8.423-2.351-12.511c-0.682-3.668-1.447-7.34-2.132-10.844
			c-0.615-2.754-1.149-5.423-1.768-8.011c-0.458-2.252-0.916-4.505-1.459-6.676c-5.008-21.867-10.33-40.166-15.01-52.636
			c-11.816-31.465-30.273-63.466-53.224-95.215l6.555-3.955L8440.652,2831.925z" style="stroke:black;fill:#0d9f91"/><path id="180639530" parent_id="180639470" order="42" structure_id="1121" d="M9404.324,3569.347
			c-3.082,37.181,1.057,84.218,8.379,134.47c0.078,0.334,0.152,0.75,0.148,1.082c11.285,88.725,31.199,178.186,48.176,269.172
			c0,0.084,0,0.084,0,0.084c11.531,79.586,25.438,161.207,29.961,242.162c2.027,62.709-1.695,126.31-14.586,191.323
			c-3.113,15.819-7.313,32.118-12.355,48.983c-1.754,5.205-3.594,10.408-5.598,15.524c-30.707,80.319-64.984,156.004-100.727,229.75
			c-54.75,109.31-121.605,235.44-188.018,383.022c-8.572,19.129-22.449,37.332-40.631,54.625
			c-157.297,149.603-638.343,230.446-829.239,215.203c-244.515-19.453-380.03-211.154-516.242-502.61l154.853-133.854
			c20.354,32.783-20.953-31.963,0,0c97.875,149.549,206.274,287.066,367.013,384.554c187.459,113.677,413.479,130.801,595.659-2.146
			c93.406-68.052,203.893-180.015,256.633-283.875c55.758-109.789,104.051-238.998,140.42-356.951
			c59.334-192.845,21.033-387.531-4.721-581.743c-14.992-113.561-28.707-251.865-12.619-365.114
			c9.902-69.807,36.658-133.907,64.076-197.829c65.27,8.076,130.957,11.255,194.686,7.915c0,0,0,0-0.002,0.083
			c-2.918,9.672-5.988,18.676-9.297,27.012c-1.219,3.054-2.436,6.023-3.652,8.994c-1.645,3.628-3.289,7.172-4.93,10.55
			c-12.424,25.21-27.074,44.895-41.684,62.335c-0.85,0.982-1.699,1.964-2.463,2.865c-27.408,31.174-54.162,53.632-66.838,97.456
			c-0.09,0.331-0.18,0.745-0.27,1.076c-3.098,10.5-5.215,21.932-6.029,34.801C9404.336,3568.6,9404.332,3568.931,9404.324,3569.347z
			" style="stroke:black;fill:#32b825"/><path id="180639529" parent_id="180639470" order="43" structure_id="715" d="M8058.705,4668.09
			c106.604,158.766,207.478,294.152,400.324,348.748c160.924,45.623,333.795,14.163,448.521-116.341
			c93.428-106.203,150.316-232.763,200.875-363.011c48.465-124.967,93.398-252.157,113.086-385.207
			c20.072-136.034-5.977-277.055-12.73-414.238c-7.102-145.5-40.363-306.102,33.027-439.596
			c34.039,6.765,68.516,12.456,103.098,16.737c-27.418,63.922-54.176,128.021-64.078,197.829
			c-16.086,113.249-2.373,251.554,12.619,365.113c25.756,194.211,64.055,388.899,4.721,581.744
			c-36.369,117.953-84.662,247.162-140.418,356.951c-52.742,103.86-163.229,215.823-256.633,283.875
			c-182.18,132.945-408.201,115.821-595.66,2.146c-160.736-97.485-269.137-235.005-367.014-384.554l8.664-5.744
			c37.594-10.543,77.658-24.451,109.569-47.23L8058.705,4668.09z" style="stroke:black;fill:#32b825"/><path id="180639528" parent_id="180639470" order="44" structure_id="764" d="M8459.029,5016.838
			c-192.847-54.596-293.721-189.982-400.324-348.748l-2.027-2.779c12.293-8.754,23.361-18.778,32.631-30.414l5.297,1.342
			c17.64,12.785,29.102,31.693,44.486,45.021c62.203,53.568,134.38,93.354,202.9,137.727
			c138.763,90.024,246.875,137.439,404.629,54.672c115.211-60.426,208.453-234.789,254.447-351.737
			c104.709-266.332,155.119-508.294,145.582-795.388c-2.486-74.187-17.395-146.269-19.721-220.035
			c-2.375-75.846-3.828-147.354-6.404-221.125l1.576-8.948c40.018,7.038,80.035,14.077,119.707,22.023
			c-73.391,133.493-40.129,294.095-33.027,439.596c6.754,137.183,32.803,278.204,12.729,414.237
			c-19.686,133.051-64.619,260.24-113.086,385.207c-50.557,130.248-107.447,256.809-200.873,363.012
			C8792.824,5031.001,8619.953,5062.461,8459.029,5016.838z" style="stroke:black;fill:#32b825"/><path id="180639527" parent_id="180639470" order="45" structure_id="52" d="M8912.758,3380.784
			c0.254-50.947,2.648-96.286,39.451-136.683c56.211,12.483,113.135,22.403,169.893,32.32l-1.576,8.948
			c2.576,73.772,4.029,145.279,6.404,221.125c2.326,73.767,17.234,145.851,19.721,220.035
			c9.537,287.094-40.873,529.056-145.582,795.388c-45.994,116.949-139.236,291.313-254.447,351.738
			c-157.754,82.768-265.866,35.353-404.629-54.672c-68.521-44.373-140.697-84.158-202.9-137.728
			c-15.386-13.327-26.848-32.235-44.486-45.021l-5.296-1.344c11.142-14.012,19.665-30.397,24.584-49.676
			c21.651-85.222-41.022-172.627-74.276-246.037c-10.313-22.711-17.396-44.699-22.738-66.488l112.51-279.491
			c62.229,162.869,159.479,310.244,273.394,446.117c50.937,60.765,134.733,119.874,214.491,135.69
			c249.375,49.463,321.029-365.83,339.965-521.75c21.848-179.141,19.98-541.234-38.578-672.453L8912.758,3380.784z" style="stroke:black;fill:#32b825"/><path id="180639526" parent_id="180639470" order="46" structure_id="92" d="M8854.785,4240.506
			c57.098-170.441,63.008-355.273,62.645-533.4c-0.191-99.91-5.619-200-4.732-299.891c0.078-8.975,0.072-17.786,0.061-26.43
			l5.902,0.022c58.559,131.218,60.426,493.313,38.578,672.452c-18.938,155.92-90.59,571.214-339.965,521.751
			c-79.759-15.817-163.556-74.929-214.492-135.69c-113.915-135.873-211.165-283.248-273.395-446.117l38.373-95.31
			c41.24,128.328,89.677,263.271,167.014,367.232c42.115,56.696,100.861,122.256,159.899,162.385
			c53.617,36.541,166.942,39.166,223.472,10.929C8792.207,4401.374,8829.922,4314.779,8854.785,4240.506z" style="stroke:black;fill:#32b825"/><path id="180639525" parent_id="180639470" order="47" structure_id="139" d="M8334.772,4265.126
			c-77.337-103.962-125.772-238.904-167.013-367.231l50.728-125.924c72.074,156.147,175.64,349.768,340.438,351.076
			c159.813,1.219,152.172-238.879,172.848-366.757c26.746-165.088,54.605-359.497,52.033-525.695
			c-0.193-12.388-1.537-25.462-3.949-39.137c38.217,14.819,76.689,29.227,116.566,39.504c18.533,4.739,37.072,9.146,55.785,13.141
			c-36.803,40.396-39.197,85.735-39.451,136.683c0.01,8.645,0.016,17.455-0.063,26.43c-0.887,99.892,4.541,199.979,4.734,299.891
			c0.363,178.127-5.547,362.958-62.646,533.4c-24.861,74.273-62.578,160.867-136.639,197.933
			c-56.531,28.237-169.856,25.612-223.474-10.929C8435.634,4387.382,8376.888,4321.823,8334.772,4265.126z" style="stroke:black;fill:#32b825"/><path id="180639524" parent_id="180639470" order="48" structure_id="28" d="M8783.807,3230.593
			c2.572,166.198-25.287,360.607-52.033,525.695c-20.676,127.878-13.035,367.976-172.848,366.757
			c-164.799-1.309-268.364-194.929-340.438-351.076l178.987-444.527c9.63,0.672,19.12-0.154,28.227-2.732
			c47.312-10.202,59.062-53.377,63.55-94.855c6.321-37.123,6.11-80.763,2.302-123.056c0.149,0.917,0.215,1.916,0.281,2.831
			c0,0,11.945,1.296,28.599,4.256c0.166,0.004,0.331,0.09,0.497,0.093c16.372,4.7,33.094,8.493,50.067,12.124
			c1.984,0.617,3.968,1.234,5.866,1.934c-0.078-0.25-0.24-0.503-0.318-0.753c21.778,4.548,43.642,8.933,64.978,14.886
			c47.143,13.068,92.609,31.51,138.336,49.289C8782.271,3205.131,8783.613,3218.205,8783.807,3230.593z" style="stroke:black;fill:#32b825"/><path id="180639523" parent_id="180639470" order="49" structure_id="526" d="M7476.719,4050.091
			c-1.188-7.918,14.828-6.465,38.565-4.541c8.51,30.491,19.933,60.869,35.261,91.15c81.864,161.728,209.207,295.101,304.586,449.506
			c7.188,11.601,76.123,120.563,83.313,132.08l-154.852,133.854c-14.086-30.094-28.152-61.268-42.367-93.44
			C7644.115,4538.932,7551.365,4294.057,7476.719,4050.091z" style="stroke:black;fill:#32b825"/><path id="180639522" parent_id="180639470" order="50" structure_id="543" d="M8039.616,4339.182
			c-10.313-22.711-17.397-44.697-22.739-66.487c-11.992-49.422-14.94-97.933-25.261-152.562
			c-30.877-163.717,5.573-535.011-10.875-659.983l5.165-0.655c-12.432-20.505-24.625-40.257-36.811-60.508l-0.506,0.323
			c-47.379,18.512-134.873,67.72-176.736,121.489c-34.035,43.688-43.421,260.041-44.861,339.975
			c-1.397,77.523-50.158,168.074-127.98,183.294c-29.193,5.708-60.236,3.319-83.727,1.483c8.51,30.49,19.932,60.869,35.261,91.149
			c81.864,161.728,209.207,295.101,304.585,449.506c7.188,11.601,14.375,23.283,21.564,34.8
			c20.354,32.782,40.797,65.316,61.748,97.279l8.664-5.744c37.594-10.543,77.658-24.451,109.569-47.23
			c12.293-8.755,23.362-18.779,32.632-30.415c11.143-14.013,19.665-30.397,24.584-49.676
			C8135.544,4499.998,8072.869,4412.593,8039.616,4339.182z" style="stroke:black;fill:#32b825"/><path id="180639521" parent_id="180639470" order="51" structure_id="664" d="M8129.387,3993.202l-112.51,279.491
			c-11.992-49.422-14.94-97.934-25.261-152.562c-30.877-163.717,5.573-535.011-10.875-659.983l5.165-0.655
			c18.162,29.917,36.791,61.588,56.732,98.852c7.597,71.951,20.482,182.397,32.717,246.12
			C8087.811,3869.688,8106.127,3932.521,8129.387,3993.202z" style="stroke:black;fill:#32b825"/><path id="180639520" parent_id="180639470" order="52" structure_id="712" d="M8134.257,3792.229
			c10.938,34.109,21.935,69.633,33.503,105.666l-38.373,95.309c-23.26-60.68-41.576-123.514-54.031-188.737
			c-12.232-63.723-25.119-174.169-32.717-246.12c1.526,2.938,3.135,5.959,4.742,8.979
			C8085.236,3638.99,8109.395,3714.48,8134.257,3792.229z" style="stroke:black;fill:#32b825"/><path id="180639519" parent_id="180639470" order="53" structure_id="727" d="M7949.096,3398.985
			c-15.899-26.304-31.701-53.436-48.104-84.151c-33.531-62.61-64.126-126.747-95.561-190.4
			c-46.588-94.513-83.102-203.807-144.412-288.444c-6.164-8.507-12.895-17.854-19.862-27.787l2.78-2.111
			c-11.482-17.745-7.18-39.776,4.523-61.924c62.684,86.907,121.072,176.896,175.852,268.813
			c124.489,208.625,235.785,425.242,341.394,643.917c15.623,32.448,33.023,72.326,52.782,115.072l-50.729,125.923
			c-11.567-36.033-22.563-71.556-33.502-105.665c-24.863-77.748-49.021-153.239-86.877-224.903
			c-1.607-3.021-3.215-6.041-4.742-8.979c-19.94-37.264-38.569-68.936-56.731-98.852
			C7973.477,3438.989,7961.281,3419.236,7949.096,3398.985z" style="stroke:black;fill:#32b825"/><path id="180639518" parent_id="180639470" order="54" structure_id="743" d="M7745.283,2638.691l0.002-0.084
			c24.754,14.659,52.698,27.548,87.186,41.802c72.396,41.368,132.82,101.471,188.476,163.315
			c20.29,22.56,43.592,57.805,68.034,98.973c0.648,0.927,1.212,1.935,1.691,2.939c29.25,51.146,60.002,111.213,92.803,168.241
			c13.512,25.096,26.619,49.52,39.094,72.186c33.485,60.532,108.078,136.933,174.907,141.378l-178.987,444.528
			c-19.759-42.747-37.159-82.624-52.782-115.072c-105.606-218.675-216.903-435.291-341.394-643.917
			c-54.778-91.918-113.168-181.906-175.852-268.813C7676.169,2691.804,7745.283,2638.691,7745.283,2638.691z" style="stroke:black;fill:#32b825"/><path id="180639511" parent_id="180639470" order="55" structure_id="10693" d="M7509.525,4024.99
			c-8.36-33.61-12.785-72.07-15.475-101.409c-0.027-0.305-0.057-0.61-0.083-0.915c-0.149-1.638-0.295-3.257-0.435-4.834
			c-0.07-0.809-0.129-1.617-0.197-2.426c-0.164-1.938-0.321-3.876-0.477-5.816c-5.837-72.359-5.027-145.097-10.77-217.473
			c-11.551-145.607-68.092-264.206-108.979-391.768l-55.067,44.418c4.312,23.533,8.01,46.19,11.104,68.299
			c0,0,33.352,187.433,54.352,279.433s93.219,357.591,93.219,357.591c-1.188-7.918,14.828-6.465,38.564-4.541
			c-0.158-0.58-0.308-1.17-0.465-1.752C7512.896,4037.775,7511.139,4031.473,7509.525,4024.99" style="stroke:black;fill:#72d569"/><path id="180639514" parent_id="180639470" order="56" structure_id="10694" d="M7705.814,3423.441c-0.021-0.461-0.045-0.922-0.064-1.384
			c-0.006-0.125-0.012-0.248-0.018-0.373c-1.568-35.864,0.535-72.691,2.256-109.571c2.279-48.911,3.886-97.914-4.649-144.886
			c-6.834-37.86-23.349-69.22-44.095-97.672l-286.131,230.794c40.887,127.561,97.428,246.159,108.979,391.768
			c5.932,74.31,5.141,146.535,10.77,217.473c0.156,1.938,0.311,3.878,0.477,5.815c0.204,2.421,0.411,4.843,0.632,7.261
			c0.026,0.305,0.056,0.607,0.083,0.914c3.146,34.103,7.986,67.916,15.995,101.531c0.117,0.494,0.224,0.988,0.343,1.481
			c1.404,5.756,2.887,11.507,4.43,17.202c0,0.002,0,0.002,0,0.004c0.188,0.589,0.377,1.175,0.568,1.758
			c23.479,1.835,54.471,4.209,83.623-1.491c77.823-15.22,126.583-105.771,127.98-183.294c0.615-34.131,2.681-93.137,7.492-152.951
			c-5.67-40.918-11-81.648-15.574-122.539C7712.936,3531.871,7708.258,3478.184,7705.814,3423.441z" style="stroke:black;fill:#72d569"/><path id="180639512" parent_id="180639470" order="57" structure_id="10695" d="M7900.991,3314.834
			c-33.53-62.61-64.126-126.747-95.562-190.4c-19.986-40.548-38.123-83.815-57.154-126.69l-89.031,71.813
			c20.746,28.451,37.262,59.811,44.096,97.672c8.536,46.971,6.932,95.974,4.648,144.885c-1.721,36.883-3.824,73.713-2.254,109.581
			c0.004,0.118,0.011,0.243,0.017,0.364c0.021,0.461,0.044,0.922,0.063,1.384c1.422,28.858,8.49,89.491,13.097,161.84
			c4.573,40.89,9.903,81.621,15.574,122.539c6.459-80.267,17.867-161.989,37.369-187.022
			c41.862-53.771,129.358-102.978,176.737-121.489l0.504-0.323C7933.195,3372.684,7917.395,3345.551,7900.991,3314.834z" style="stroke:black;fill:#72d569"/><path id="180639509" parent_id="180639470" order="58" structure_id="10696" d="M6937.835,2140.765
			c-71.796,12.982-141.817,43.963-141.817,43.963c91.486,114.005,155.683,159.733,205.836,249.962
			c55.082,99.092,143.987,225.318,168.797,318.893c1.153,4.352,2.299,8.665,3.438,12.965l85.134-69.477
			C7188.689,2502.952,7077.355,2295.704,6937.835,2140.765z" style="stroke:black;fill:#48c83c"/><path id="180639515" parent_id="180639470" order="59" structure_id="10697" d="M7161.173,2156.293
			c-59.19-9.677-119.021-18.436-153.931-20.729c-9.791-0.644-20.049-0.517-30.541,0.207l0,0
			c-12.742,0.877-25.832,2.638-38.867,4.994c139.521,154.939,250.854,362.188,321.389,556.307l25.945-21.174l176.527-144.063
			C7380.104,2399.425,7270.328,2275.882,7161.173,2156.293z" style="stroke:black;fill:#48c83c"/><path id="180639517" parent_id="180639470" order="60" structure_id="10698" d="M7563.66,2448.621
			c-50.577-57.393-162.295-166.638-226.704-261.3c0,0-87.176-16.543-175.783-31.028
			c109.155,119.589,218.931,243.132,300.522,375.541L7563.66,2448.621z" style="stroke:black;fill:#48c83c"/><path id="180639510" parent_id="180639470" order="61" structure_id="10699" d="M7345.916,3200.523c0-0.004-0.001-0.007-0.002-0.01
			c-2.307-10.348-4.361-20.857-6.165-31.445c-26.498-153.082-22.382-307.606-74.496-455.166c-1.974-5.599-3.987-11.211-6.03-16.832
			l-85.133,69.477c71.449,269.287,118.465,439.109,143.955,578.222l55.068-44.418
			C7362.697,3267.854,7353.297,3234.778,7345.916,3200.523" style="stroke:black;fill:#59b947"/><path id="180639513" parent_id="180639470" order="62" structure_id="10700" d="M7517.626,2882.941
			c-38.083-100.594,4.261-199.487-29.46-297.677c-3.079-9.032-6.822-18.075-11.396-27.135c-1.485-3.062-3.133-6.153-4.862-9.242
			l-2.89-4.108l1.063,0.904c-0.581-1.002-1.165-2.004-1.761-3c-2.184-3.625-4.398-7.238-6.625-10.85l-176.527,144.063
			l-25.945,21.175c2.043,5.622,4.058,11.233,6.03,16.832c52.114,147.559,47.998,302.083,74.496,455.166
			c1.804,10.588,3.858,21.098,6.165,31.446c0.001,0.002,0.002,0.006,0.002,0.01c7.381,34.253,16.781,67.33,27.197,99.826
			l286.131-230.795C7613.003,3006.139,7545.721,2957.177,7517.626,2882.941z" style="stroke:black;fill:#59b947"/><path id="180639516" parent_id="180639470" order="63" structure_id="10701" d="M7661.02,2835.989
			c-6.164-8.507-12.895-17.854-19.862-27.787l2.78-2.111c-11.482-17.745-7.18-39.776,4.523-61.924
			c27.708-52.363,96.822-105.477,96.822-105.477v-0.039c-57.357-33.77-97.726-76.583-162.293-166.472
			c-4.523-6.298-11.125-14.248-19.33-23.559l-101.965,83.211c2.227,3.611,4.441,7.227,6.625,10.851
			c0.596,0.996,1.18,1.998,1.761,2.999c0.62,1.066,1.226,2.135,1.825,3.205c1.73,3.089,3.377,6.182,4.863,9.242
			c4.574,9.059,8.316,18.103,11.396,27.135c33.722,98.188-8.623,197.083,29.46,297.677
			c28.096,74.235,95.377,123.197,141.618,186.614l89.03-71.813C7722.945,2940.681,7696.025,2884.314,7661.02,2835.989z" style="stroke:black;fill:#59b947"/><path id="180639474" parent_id="180639470" order="64" structure_id="313" d="M7200.329,3527.112
			c-0.292-214.034,6.729-471.782-5.655-597.355c-19.543-198.099-97.785-324.139-192.771-494.965
			c-71.531-128.694-171.523-166.902-338.423-441.183c-183.583-301.731-434.284-593.606-506.074-667.139
			c-103.435-105.925-208.954-183.478-258.8-245.318l-2.768,0.944c-201.854-204.443-579.237,75.181-759.926,196.865l-25.541,1416.703
			l0.002-0.004c0,0,10.314,43.123,28.445,112.718c18.139,69.601,108.645,121.103,105.723,129.359
			c-2.914,8.262-60.908,151.283-78.072,181.454c-17.173,30.162-54.18,84.905-65.355,90.25l-0.004-0.007l-23.994,1330.838
			c82.748,20.881,136.44,22.266,215.965,8.047c123.018-21.985,266.688,21.645,384.146,54.028
			c148.932,41.069,223.643-34.54,373.645-48.854c153.248-14.625,310.877-11.5,450.354-84.172
			c85.134-44.353,231.32-169.135,231.32-169.135c10.453-186.752-22.691-308.203-69.049-502.231
			c-15.459-64.694,61.721-23.661,139.703-26.575c131.563-4.922,154.871-19.883,204.061-23.333
			c32.934-2.313,122.182-9.795,189.361-15.286C7217.438,3731.059,7200.402,3584.627,7200.329,3527.112z" style="stroke:black;fill:#ff64ff"/><path id="180639492" parent_id="180639470" order="65" structure_id="851" d="M6466.749,1777.428
			c12.298,8.563,24.464,17.271,36.431,26.165c18.09,13.45,48.859,33.256,64.678,55.575l-18.373-15.748l18.373,15.748
			c4.102,5.787,7.213,11.74,8.818,17.799c16.435,62.04-82.609-22.18-106.438-37.839c-39.02-25.638-78.113-47.124-121.247-74.916
			c-91.229-58.771-170.884-88.274-245.062-122.859c-160.899-75.013-290.41-135.729-467.029-143.483
			c-72.124-3.173-177.061,60.722-238.795,105.824c-61.063,44.615-196.05,192.441-212.833,164.476
			c-6.638-11.056-5.621-26.986,1.46-46.027c35.977-96.733,228.566-273.809,370.505-300.515
			c120.931-22.756,262.231,18.26,364.7,56.443c181.637,67.692,236.563,106.189,407.624,210.986
			C6375.486,1717.191,6422.035,1746.293,6466.749,1777.428z" style="stroke:black;fill:#ff7aff"/><path id="180639493" parent_id="180639470" order="66" structure_id="842" d="M5557.236,1421.627
			c120.932-22.756,262.232,18.26,364.701,56.444c181.637,67.691,236.563,106.188,407.623,210.985
			c45.926,28.135,92.475,57.235,137.188,88.371c-18.556-18.118-37.567-37.295-51.774-53.082
			c-22.051-28.666-94.502-97.556-137.246-156.744c-206.787-286.328-436.613-476.11-801.502-378.091
			c-148.224,39.824-209.901,116.74-240.937,314.579c-29.496,188.025-77.235,213.534-92.729,218.052h44.172
			C5222.709,1625.407,5415.3,1448.333,5557.236,1421.627z" style="stroke:black;fill:#ff7aff"/><path id="180639494" parent_id="180639470" order="67" structure_id="834" d="M5235.29,1504.09
			c31.034-197.839,92.713-274.755,240.937-314.579c364.889-98.02,594.715,91.765,801.502,378.091
			c42.744,59.188,115.194,128.078,137.246,156.744c14.207,15.787,33.22,34.965,51.774,53.082
			c12.298,8.563,24.464,17.271,36.431,26.165c18.09,13.45,48.859,33.257,64.678,55.575l21.424,18.363
			c-167.227-250.649-350.35-470.328-410.971-533.214c-105.138-109.03-265.893-251.536-265.893-251.536
			s-97.169-89.276-198.096-85.989c-42.281,1.376-132.545,26.38-217.084,54.27c-83.615,27.582-348.355,205.258-361.326,217.9
			l-7.992,443.181h14.642C5158.055,1717.624,5205.794,1692.116,5235.29,1504.09z" style="stroke:black;fill:#ff7aff"/><path id="180639476" parent_id="180639470" order="68" structure_id="828" d="M7092.7,3060.441
			c39.758-158.75-123.634-511.487-226.005-643.721c-81.335-105.057-310.577,121.383-408.914,187.477
			c-161.43,108.525-276.63,340.815-74.543,474.029c57.225,37.73,120.51,60.682,173.91,104.121
			c108.359,88.155,150.505,90.7,284.893,50.41C6937.334,3204.188,7064.165,3174.305,7092.7,3060.441z" style="stroke:black;fill:#ff7aff"/><path id="180639486" parent_id="180639470" order="69" structure_id="271" d="M6865.551,3770.427
			c91.667-13.589,134.883-72.565,139.477-129.091c3.951-48.763-59.877-105.584-114.397-108.721
			c-62.58-3.604-174.097,34.531-200.563,96.313C6647.646,3727.962,6776.92,3783.57,6865.551,3770.427z" style="stroke:black;fill:#ff7aff"/><path id="180639485" parent_id="180639470" order="70" structure_id="874" d="M7098.876,3737.234
			c67.498-55.588,89.118-69.045,72.188-162.159c-22.537-124.02-156.705,44.632-157.151,110.754
			C7013.652,3725.527,7076.331,3755.803,7098.876,3737.234z" style="stroke:black;fill:#ff7aff"/><path id="180639481" parent_id="180639470" order="71" structure_id="460" d="M5856.469,2905.23
			c42.713,33.992,40.148-22.927,14.975-29.127C5861.436,2873.632,5833.534,2886.979,5856.469,2905.23z" style="stroke:black;fill:#ff7aff"/><path id="180639482" parent_id="180639470" order="72" structure_id="460" d="M5904.861,3066.164
			c45.002-4.063,20.402-44.121-6.387-33.355C5892.818,3035.077,5876.027,3068.761,5904.861,3066.164z" style="stroke:black;fill:#ff7aff"/><path id="180639483" parent_id="180639470" order="73" structure_id="460" d="M5875.014,3729.78
			c48.41,6.698,21.773-61.298-5.949-40.343C5853.215,3701.416,5850.455,3726.379,5875.014,3729.78z" style="stroke:black;fill:#ff7aff"/><path id="180639484" parent_id="180639470" order="74" structure_id="460" d="M5897.891,3284.016
			c35.076,4.658,27.114-52.316,3.556-43.604C5882.73,3247.333,5870.639,3280.409,5897.891,3284.016z" style="stroke:black;fill:#ff7aff"/><path id="180639487" parent_id="180639470" order="75" structure_id="128" d="M6709.48,4101.773
			c0.181,10.961,9.27,80.024,9.02,87.516c-1.37,40.891-9.02,63.759-28.248,96.367c-38.907,60.582-53.462,61.014-202.542,142.725
			c7.069-62.681-21.53-161.301-54.99-200.121c-79.83-92.59-192.778-79.68-298.438-52.31c-57.121,14.8-90.244,13.707-147.224,29.007
			c-27.01,7.26-71.851,8.583-99.39,13.543c-5.319,0.96-124.006-3.16-123.025-2c-104.26,10.43-178.143,4-154.143-76
			c28-110,6-182-40-208c-17.021-6.08,12.002-18.355,30.102-34.605c63.102-25.931,123.047-42.575,187.997-75.496
			c95.601-39.11,132.513-89.219,157.901-163.898c34-100,142-152,172,4c14.97,77.87,47.472,154.52,94.631,196
			c101.03,103.52,170.463,140.9,299.369,151.496c18.33,1.507,121.979-3.129,132-12.379c26.681-7.93,17.715-5.419,42.455,8.081
			C6712.715,4019.748,6702.852,4070.545,6709.48,4101.773z" style="stroke:black;fill:#ff90ff"/><path id="180639488" parent_id="180639470" order="76" structure_id="26" d="M6384.563,2509.532
			c-78.893-50.873-114.756-157.757-162.76-233.22c-146.787-230.743-497.205-412.736-770.313-408.114
			c-53.637,0.909-106.339,6.532-157.127,17.327c-23.552,5.011-130.427,58.817-138.924,11.612
			c-1.027-5.706-0.704-11.118,0.798-16.257l-31.222,2.23l-7.688,426.176c78.251-8.112,180.832,24.501,256.989,42.732
			c72.075,17.254,153.922,40.741,217.28,79.973c38.15,23.641,78.485,46.088,117.481,67.802
			c18.188,10.125,36.491,20.313,54.763,30.723c-3.651-5.683-7.693-10.069-12.351-12.394c-20.298-10.124-27.31-14.381-30.062-35.08
			c91.765-10.353,343.414,173.719,296.74,226.904c-5.723-0.052-10.699-1.213-15.173-3.177
			c82.7,91.718,103.351,220.438,59.663,373.209c-7.734,26.997-17.96,54.874-27.854,81.83
			c-21.117,57.572-42.965,117.109-42.746,173.078l-0.373,28.06c-1.119,52.025-2.508,116.776,30.824,145.088
			c38.582,32.791,105.981,36.382,166.824,35.591c42.623-0.572,122.489-7.609,178.414-48.395
			c53.571-39.057,37.908-80.032,3.102-155.049l-2.014-4.322c-34.953-75.431-58.896-142.583-75.328-211.323l-13.676-52.775
			c-23.049-85.661-46.885-174.243-9.746-270.376c38.473-99.541,114.771-183.628,201.451-253.997l-6.985-11.384
			C6449.393,2541.604,6422.65,2534.102,6384.563,2509.532z" style="stroke:black;fill:#ff90ff"/><path id="180639489" parent_id="180639470" order="77" structure_id="42" d="M5721.434,2483.043c2.75,20.699,9.763,24.956,30.061,35.08
			c4.656,2.324,8.698,6.711,12.352,12.395c67.502,38.451,134.563,79.918,193.939,132.293c1.258,1.037,2.484,2.123,3.682,3.258
			c11.399,10.197,22.516,20.8,33.277,31.881c2.816,2.9,5.568,5.842,8.257,8.822c4.474,1.964,9.451,3.125,15.173,3.177
			C6064.846,2656.762,5813.195,2472.691,5721.434,2483.043z" style="stroke:black;fill:#ff90ff"/><path id="180639491" parent_id="180639470" order="78" structure_id="17" d="M5156.236,1880.881
			c23.949-81.96,351.238-93.797,398.524-91.506c188.438,9.138,304.896,54.46,462.462,166.261
			c97.266,69.009,243.209,207.578,318.732,300.814c41.625,51.392,99.319,138.936,127.352,197.624
			c21.102,44.177,21.316,74.527,1.249,81.932c-15.164,5.596-41.905-1.905-79.995-26.475
			c-78.893-50.873-114.755-157.756-162.759-233.219c-146.788-230.744-497.205-412.736-770.313-408.115
			c-53.637,0.909-106.338,6.533-157.127,17.327c-23.551,5.012-130.427,58.818-138.924,11.613
			C5154.411,1891.433,5154.734,1886.021,5156.236,1880.881z" style="stroke:black;fill:#ff90ff"/><path id="180639490" parent_id="180639470" order="79" structure_id="10" d="M6782.698,2318.243
			c-31.415-25.938-98.694-66.809-95.644-103.013c3.92-46.648,108.961-30.507,108.961-30.507
			c13.795,17.19,26.963,32.82,39.563,47.293c-66.355-81.86-147.266-198.54-147.266-198.54
			c-31.57-52.559-64.974-104.895-99.033-155.945l-21.424-18.363c4.102,5.787,7.213,11.74,8.818,17.799
			c16.436,62.04-82.609-22.18-106.438-37.839c-39.02-25.638-78.112-47.124-121.246-74.916
			c-91.229-58.771-170.885-88.274-245.062-122.859c-160.899-75.013-290.41-135.729-467.03-143.483
			c-72.123-3.174-177.06,60.722-238.795,105.823c-61.062,44.616-196.049,192.442-212.832,164.477
			c-6.638-11.057-5.621-26.986,1.459-46.027h-44.17c-0.275,0.08-0.543,0.154-0.797,0.222l-13.849-0.103l-2.901,160.85l31.223-2.229
			c23.948-81.96,351.238-93.797,398.523-91.506c188.438,9.138,304.896,54.46,462.463,166.261
			c97.266,69.008,243.209,207.578,318.732,300.813c41.625,51.393,99.318,138.937,127.352,197.625
			c21.102,44.177,21.315,74.526,1.248,81.932l6.985,11.384c58.701-47.655,122.161-89.019,181.866-124.622
			c16.628-9.919,80.928-59.146,141.811-92.775c-1.053-1.097-2.096-2.207-3.153-3.293
			C6789.548,2324.105,6786.367,2321.278,6782.698,2318.243z" style="stroke:black;fill:#ff90ff"/><path id="180639475" parent_id="180639470" order="80" structure_id="795" d="M6017.126,2768.109
			c-68.235-111.696-255.091-202.66-358.728-272.442c-173.813-117.044-335.412-131.076-541.582-157.297l-6.095,358.741
			c1.937,8.035,11.896,49.081,28.097,111.268c18.139,69.601,108.645,121.103,105.723,129.359
			c-2.913,8.262-60.907,151.283-78.072,181.454c-16.731,29.388-52.289,82.105-64.44,89.733l-1.692,99.658
			c90.98,11.918,196.045,14.309,170.852,148.421c-16.652,88.655-60.657,269.788-43.639,359.697
			c29.199,154.335-137.129,246.184-99.304,393.165c0.606,2.361,1.248,4.758,1.908,7.179c-1.911-22.172,5.772-45.688,26.748-68.069
			c83.485-89.068,231.271-158.647,329.26-212.543c102.379-56.315,212.144-81.071,321.321-143.521
			c33.877-19.376,60.299-40.569,80.965-63.439c-3.623,0.871-8.064,1.052-13.435,0.309c-24.558-3.4-21.798-28.364-5.948-40.343
			c16.991-12.843,33.568,7.728,32.715,24.036c79.12-103.229,55.77-237.877,70.995-392.543
			C5987.391,3172.515,6133.212,2958.112,6017.126,2768.109z M5856.469,2905.23c-22.935-18.252,4.967-31.599,14.975-29.127
			C5896.617,2882.304,5899.182,2939.223,5856.469,2905.23z M5897.891,3284.016c-27.252-3.606-15.158-36.683,3.556-43.604
			C5925.005,3231.699,5932.967,3288.674,5897.891,3284.016z M5904.861,3066.164c-28.834,2.597-12.043-31.087-6.387-33.355
			C5925.266,3022.043,5949.863,3062.102,5904.861,3066.164z" style="stroke:black;fill:#ff90ff"/><path id="180639479" parent_id="180639470" order="81" structure_id="616" d="M6267.201,3556.848
			c-28.072,4.378-54.797,15.651-72.609,38.772c-167.068,216.931,253.427,424.905,416.453,399.874
			c142.844-21.93,10.852-267.829-31.765-348.612c-51.526-97.644-174.431-86.638-266.681-91.93
			C6297.861,3554.104,6282.337,3554.475,6267.201,3556.848z" style="stroke:black;fill:#ff90ff"/><path id="180639477" parent_id="180639470" order="82" structure_id="231" d="M5455.85,4194.141c18.228,6.871,39.319,9.021,62.854,4.676
			c139.743-25.771,125.231-281.568-34.702-250.998C5341.848,3974.998,5355.336,4156.281,5455.85,4194.141z" style="stroke:black;fill:#ff90ff"/><path id="180639478" parent_id="180639470" order="83" structure_id="1052" d="M5882.391,4243.423c-5.315,0.957-74.614,7.485-73.625,8.646
			c18.064,20.959,47.744,30.517,69.315,48.006c33.842,27.445,62.839,61.783,88.226,96.94c25.004,34.687-68.942,47.379-80.621,62.165
			c-15.096,19.104-15.055,53.048-3.637,79.303c7.426,17.026,19.624,30.812,35.604,35.223c24.412,6.73,62.476-10.579,87.22-14.418
			c96.228-14.904,194.329-13.455,290.783-27.9c54.685-8.186,161.843-15.01,185.873-76.25
			c22.213-56.607-10.03-181.896-48.808-226.873c-79.834-92.592-192.779-79.681-298.438-52.313
			c-57.126,14.799-113.182,33.376-170.16,48.679C5937.105,4231.887,5909.936,4238.456,5882.391,4243.423z" style="stroke:black;fill:#ffa6ff"/><path id="180639480" parent_id="180639470" order="84" structure_id="872" d="M5082.895,4334.658c95.035,14.32,60.574-65.643,45.35-124.79
			c-37.827-146.981,128.503-238.831,99.303-393.166c-17.019-89.909,26.985-271.042,43.64-359.697
			c25.288-134.61-80.653-136.517-171.865-148.553l-18.479,1024.782" style="stroke:black;fill:#ffa6ff"/><path id="180639495" parent_id="180639470" order="85" structure_id="771" d="M7721.809,6101.146
			c-33.924-88.543-103.994-181.031-166.443-251.42c-61.096-68.853-92.348-97.006-277.052-154.605
			c-16.271-5.072-47.444,5.884-40.847-39.527c4.114-28.312,120.429-256.889,124.94-321.906
			c7.49-107.918,57.224-561.399-151.058-534.676c-1.623-128.596,26.709-264.049,29.623-393.34
			c6.28-278.813-23.486-562.401-23.486-562.401c-6.979-136.574-59.887-87.511-200.107-80.491
			c-91.513,4.582-114.771,27.021-193.785,29.752c-77.982,2.703-169.9-36.73-142.453,63.928
			c50.682,185.848,62.929,277.586,50.949,468.658c0,0-146.188,124.781-231.313,169.135c-139.477,72.67-297.105,69.547-450.361,84.17
			c-150,14.316-224.705,89.926-373.644,48.856c-117.45-32.386-261.121-76.017-384.146-54.03
			c-79.525,14.22-133.09,5.912-215.836-14.969l-27.836,1544.107c114.074,119.106,110.405,355.32-8.537,473.541l-8.539,473.683
			c57.142,4.504,108.392,28.569,153.117,36.009c115.022,19.12,228.698,9.552,340.972-10.479
			c237.188-42.313,466.778-64.717,676-194.512c130.621-81.029,247.405-167.355,368.467-258.949
			c98.507-74.525,163.903-186.66,215.974-305.12c58.766-133.692,31.262-282.964,164.617-371.063
			c25.523-32.787,32.633,128.285,38.932,202.012c15.021,175.923,69.859,224.544,236.896,288.738
			C7502.759,6542.275,7872.436,6494.377,7721.809,6101.146z M5908.773,6590.309c-10.566,60.233-100.674,152.545-100.674,152.545
			c-111.226,25.301-233.195,42.332-344.817,44.4c-41.69,0.768-144.864-2.816-179.526-30.949
			c-111.306-90.327,6.955-132.488,102.754-167.148c94.813-34.306,285.873-28.094,267.207-83.974
			c-3.75-1.043-7.467-2.054-11.16-3.035l1.908-6.694c55.899-13.123,203.693-69.228,255.172-19.41
			C5927.229,6502.744,5914.648,6556.818,5908.773,6590.309z" style="stroke:black;fill:#ff9b88"/><path id="180639499" parent_id="180639470" order="86" structure_id="82" d="M6771.62,4189.96
			c1.271-37,2.601-75.5,3.97-116.39c0.25-7.49,0.271-17.182,0.09-28.142c-0.688-43.229-4.5-106.159-9.68-131.34
			c-28.02-136.271-64.529-106.29,50.67-120.99c85.6-10.909,255.65-47.53,242.891-26.11c-12.189,20.48-27.01,83.23-27.069,110.891
			c-0.19,82.859,38.01,162.771,61.47,240.68l-10.39,6.971c-30.95,18.631-123.972,46.221-175.729,65.399
			c-48.121,17.84-94.461,43.28-127.881,62.12l-10.649,4.82C6770.061,4235.67,6770.83,4213.109,6771.62,4189.96z" style="stroke:black;fill:#ffae6f"/><path id="180639500" parent_id="180639470" order="87" structure_id="90" d="M6768.62,4278.77
			c0.229-6.93,0.46-13.898,0.688-20.898l10.65-4.82c33.42-18.84,79.76-44.279,127.88-62.119
			c51.76-19.181,144.78-46.771,175.729-65.399l10.391-6.972c1.641,5.422,3.21,10.842,4.68,16.24
			c7.472,27.392,13.562,58.58,18.23,92.51l-1.9,0.61c-52.31,19.83-150.18,69.74-186.379,79.75
			c-29.42,8.14-135.109,59.819-159.479,86.479l-4.142,3.59C6766.07,4358.18,6767.3,4318.971,6768.62,4278.77z" style="stroke:black;fill:#ffae6f"/><path id="180639501" parent_id="180639470" order="88" structure_id="99" d="M6853.93,5013.08
			c-26.51-19.029-46.858-52.41-60.33-94.16c-37.5-116.18-33.5-293.51-32.08-371.84c0.94-51.95,2.102-100.91,3.451-149.34l4.141-3.59
			c24.37-26.66,130.061-78.341,159.479-86.48c36.201-10.01,134.07-59.92,186.381-79.75l1.899-0.609
			c15.851,115.051,15.479,261.591-2.14,398.182c-24.201,187.608-80.5,356.278-155.291,392.01
			C6917.79,5037.391,6882.33,5033.471,6853.93,5013.08z" style="stroke:black;fill:#ffae6f"/><path id="180639498" parent_id="180639470" order="89" structure_id="7" d="M6801.243,6277.709c-3.854-19.502-3.813-39.134-7.166-58.725
			c-12.661-73.963-29.006-154.129-6.412-227.611c5.981-19.461,18.146-37.506,26.579-56.021
			c10.932-24.047,19.713-47.396,27.406-72.721c9.795-32.275,18.496-66.337,30.319-98.064c10.372-27.842,24.606-53.561,35.767-81.016
			c4.576-11.266,18.869-36.15,54.895-35.502c-4.439,52.379-39.118,150.902-47.111,230.33c-2.953,29.379-3.912,60.466-1.996,87.471
			c1.063,14.934-16.094,27.627-24.631,38.514c-21.256,27.082-34.168,59.609-43.379,92.529
			c-10.776,38.569-18.365,78.32-26.586,117.467C6814.585,6235.037,6809.464,6258.264,6801.243,6277.709z" style="stroke:black;fill:#ffae6f"/><path id="180639497" parent_id="180639470" order="90" structure_id="122" d="M6411.262,6737.209
			c-68.008,51.834-138.42,99.404-213.709,146.117c-26.155,16.225-60.283,33.822-78.899,45.209
			c-40.065-6.266-134.972-18.432-157.216-58.543c-27.262-49.152,58.538-130.859,47.484-155.175l-2.564-7.125
			c-19.857-33.515-32.602-72.802-30.359-112.14c2.588-45.422,36.771-90.439,56.168-130.547
			c26.375-54.59,53.953-108.563,84.215-161.121c31.035-53.92,42.94-118.211,105.059-148.113
			c22.977-11.064,39.921-7.957,59.234,7.836c7.436,6.083,31.408,41.441,41.463,40.27c23.625-2.746,46.405-65.521,64.73-82.625
			c35.579-33.196,75.824-59.328,110.908-92.822c33.169-31.684,67.807-66.779,114.423-76.574l4.334-0.813
			c22.456,115.939,38.095,239.59,25.621,340.771c-8.96,72.695-31.838,130.971-76.547,192.777
			c-38.087,52.644-245.183,197.072-153.89,253.266L6411.262,6737.209z" style="stroke:black;fill:#ffae6f"/><path id="180639504" parent_id="180639470" order="91" structure_id="574" d="M5060.747,5678.689
			c111.509-15.176,198.493-44.035,302.177,12.393c81.848,44.547,169.9,95.443,208.264,185.059
			c32.285,75.418-1.021,197.084-89.174,212.961c-105.819,19.067-207.029-68.446-302.461-97.326
			c-42.924-12.98-91.877-26.842-136.051-29.873c2.904,6.049,6.492,1.051,12.076,3.449L5060.747,5678.689z" style="stroke:black;fill:#ffba86"/><path id="180639502" parent_id="180639470" order="92" structure_id="137" d="M5376.58,4725.66
			c1.811,2.12,3.59,4.26,5.34,6.41c32.641,39.949,52.01,82.318,67.33,130.91c12.43,39.439,43.51,95.26,46.3,135.18
			c5.21,74.541-57.01,118.021-77.83,182.149c-35.76,110.12-7.7,224.222-28.7,336.972c-7.471,40.08-30.109,63.869-59.738,79.51
			c-42.631,22.49-99.722,28.109-146.94,41.09l-0.188-8.25c-9.392-0.86,62.89-352.649,67.778-378.351
			c40.2-211.3,38.5-445.37-68.5-657.86l-6.149-11.85C5253.779,4609.92,5324.41,4663.9,5376.58,4725.66z" style="stroke:black;fill:#ffc395"/><path id="180639503" parent_id="180639470" order="93" structure_id="130" d="M5092.74,4562.23
			c28.148,3,55.8,9.68,82.54,19.34l6.149,11.85c107,212.49,108.699,446.561,68.5,657.859
			c-4.891,25.701-77.17,377.489-67.779,378.351l0.189,8.25c-3.951,1.09-7.83,2.229-11.631,3.431
			c-37.89,12.021-82.029,26.439-106.92,24.971l-6.939-1.971l19.939-1106.029C5082.23,4559.65,5087.54,4560.971,5092.74,4562.23z" style="stroke:black;fill:#ffc395"/><path id="180639496" parent_id="180639470" order="94" structure_id="146" d="M6697.878,4496.209
			c-5.38,92.988-42.203,179.643-47.032,274.45c-5.791,113.708-3.005,227.674,1.313,341.384
			c2.531,66.682-20.03,144.234-35.439,208.693c-16.227,67.875-43.673,138.918-66.479,203.469
			c-22.978,65.039-42.979,107.944-27.617,176.084c12.353,54.791,41.19,105.23,52.254,160.18
			c13.845,68.814-27.535,82.462-71.43,119.824c-47.625,40.538-71.582,98.936-116.609,140.988
			c-18.322,17.111-39.64,44.471-63.244,47.219c-10.061,1.17-35.482,1.189-42.924-4.891c-19.31-15.801-36.26-18.899-59.229-7.84
			c-62.12,29.899-75.148,68.02-106.18,121.938c-29.689,51.562-60.832,108.54-86.762,162.08c-40.29,49.351-83.51,79.301-124,30.711
			c-12.621-16.828-32.708-39.67-115.9-30.967c-35.457,3.709-110.487,37.506-171.395,24.967
			c-59.229-12.194-50.41-4.856-102.705-8.716c-0.016-0.001-0.027-0.002-0.043-0.003c-83.223-6.115-179.501-11.599-260.982,8.899
			c-41.752,10.504-79.711,42.611-100.763-10.191c-12.644-31.713,6.138-101.352,6.138-138.111c0-51.254-2.77-99.443-5.859-150.107
			c-2.482-40.71-22.146-93.676,16.363-126.307c38.603-32.707,81.322,0.226,122.806,16.973
			c43.358,17.505,85.367,34.116,129.146,50.926c79.893,30.676,130.424-11.98,146.688-93.473c18.95-43.68,20.568-97.658,3.2-138.25
			c-38.36-89.608-93.384-146.967-175.233-191.518c-22.24-12.1-9.334-21.695-30.443-26.926c3.986-11.921-15.898-29.646-0.038-55.146
			c46.7-75.069,31.528-176.627,50.728-263.66c13.64-61.77,71.502-73.248,96.367-129.365
			c21.711-48.996,24.625-111.354,30.676-155.992c9.402-69.352,1.029-146.836-12.637-209.012
			c-8.402-38.23-11.398-70.445-42.904-87.762c-44.879-24.664-94.201-21.371-131.033-59.222
			c-29.447-30.263-63.32-86.997-5.68-108.958c124.225-47.307,296.177,70.253,423.463,74.814
			c145.359,5.211,127.749-52.707,437.68-69.979c107.26-5.971,177.25-27.875,277.399-68.035
			c49.208-19.732,116.948-89.146,169.834-88.896C6691.232,4436.639,6699.867,4461.835,6697.878,4496.209z" style="stroke:black;fill:#ffc395"/><path id="180639505" parent_id="180639470" order="95" structure_id="354" d="M5644.464,6495.452l-1.907,6.694
			c3.691,0.981,7.41,1.992,11.159,3.035c18.666,55.881-172.394,49.668-267.207,83.974c-95.798,34.661-214.06,76.821-102.753,167.149
			c34.662,28.133,137.836,31.715,179.525,30.949c111.623-2.069,233.594-19.102,344.817-44.4c0,0,90.106-92.313,100.675-152.546
			c5.875-33.489,18.455-87.563-9.139-114.265C5848.158,6426.227,5700.363,6482.329,5644.464,6495.452z" style="stroke:black;fill:#ff9bcd"/><path id="180639506" parent_id="180639470" order="96" structure_id="354" d="M5048.955,6102.385l-8.537,473.541
			C5159.361,6457.706,5163.029,6221.492,5048.955,6102.385z" style="stroke:black;fill:#ff9bcd"/><path id="180639507" parent_id="180639470" order="97" structure_id="642" d="M5908.773,6590.309
			c5.875-33.489,18.455-87.563-9.139-114.266c-51.479-49.816-199.271,6.286-255.172,19.409l-1.907,6.694
			c3.692,0.981,7.41,1.992,11.159,3.035c18.666,55.881-172.393,49.668-267.207,83.974
			c-95.798,34.661-214.059,76.821-102.753,167.149c34.662,28.133,137.836,31.715,179.526,30.949
			c111.621-2.069,233.592-19.102,344.816-44.4C5808.1,6742.854,5898.207,6650.542,5908.773,6590.309z" style="stroke:black;fill:#ffa5d2"/><path id="180639508" parent_id="180639470" order="98" structure_id="206" d="M5048.945,6102.375
			c115.43,120.509,110.332,360.932-12.766,477.698L5048.945,6102.375z" style="stroke:black;fill:#ffc6e2"/><path id="180639572" parent_id="180639470" order="99" structure_id="1009" d="M7239.374,4320.209
			c4.747-263.121-24.347-468.585-36.967-715.479c-6.987-136.57-85.903-234.067-226.207-239.063
			c-110.089-3.916-220.089,9.39-329.812,13.5c-77.983,2.914-157.817,12.238-220.859-28.835
			c-74.518-48.552-9.479,73.921,72.813,155.406c75.151,74.42,126.719,170.902,159.888,269.824
			c63.433,189.132,84.167,371.104,73.714,557.857c-4.715,84.285-15.793,169.548-32.154,256.885
			c-25.611,136.684-43.037,541.702-44.709,605.613c-3.433,130.84-73.057,264.562-111.533,388.908
			c-24.16,78.054,9.99,89.508,32.487,183.516c36.513,152.676,85.604,365.468,66.118,523.473
			c-8.96,72.694-31.838,130.97-76.547,192.777c-38.087,52.643-245.182,197.072-153.889,253.266c0,0,76.871-47.299,143.144-102.703
			c55.835-46.689,80.679-72.898,127.034-130.698c65.063-81.132,119.35-226.747,119.35-226.747
			c-7.19-130.268-57.639-212.086,7.125-333.398c40.847-76.519,47.558-156.49,84.459-228.438
			c14.463-28.187,19.242-68.735,69.804-67.821c7.742-25.941,30.278-104.92,34.045-160.265
			c3.767-55.349-32.633-124.146-37.56-170.321c-4.748-44.414-1.592-90.543,20.89-156.612
			c26.538-77.976,99.287-202.501,141.927-262.675c21.782-30.732,58.798-65.343,89.271-90.857c0.283-16.608,0.17-36.828,0.99-55.395
			c1.168-26.659,6.078-51.646,6.842-71.908c2.508-66.438,14.193-131.376,18.804-197.762
			C7241.541,4428.723,7238.416,4373.756,7239.374,4320.209z M6951.059,5021.501c-195.522,74.149-186.578-299.036-190.238-435.64
			c-4.771-178.017,35.156-463.813,10.145-639.816c-12.067-84.9-171.824-381.979-213.944-465.857
			c-26.952-53.652,131.636-50.532,179.656-52.865c69.876-3.4,282.132-22.444,390.038,34.045
			c36.626,19.185,54.1,111.106,53.498,144.345c-1.883,104.428-115.543,150.789-125.63,168.124
			c-14.04,24.132-21.134,46.292-22.091,104.042c-1.656,99.169,53.417,194.293,74.087,277.858
			C7168.055,4404.299,7104.482,4963.32,6951.059,5021.501z" style="stroke:black;fill:#cccccc"/><path id="180639573" parent_id="180639470" order="100" structure_id="1009" d="M6782.698,2318.243
			c3.669,3.034,6.851,5.864,9.366,8.457c77.204,79.342,138.55,183.961,190.539,281.616
			c56.915,106.937,98.734,242.357,113.156,362.166c12.043,99.979-20.307,206.34,3.545,304.271
			c15.754,64.718,61.273,190.685,96.342,243.964l2.338-49.684c-1.389-178.354,13.455-369.322-3.313-539.276
			c-19.542-198.099-97.785-324.139-192.771-494.965c-50.194-90.304-114.397-136.052-205.886-250.067
			c0,0-105.041-16.142-108.961,30.508C6684.004,2251.436,6751.283,2292.305,6782.698,2318.243" style="stroke:black;fill:#cccccc"/><path id="180639574" parent_id="180639470" order="101" structure_id="1009" d="M5040.295,6582.914
			c24.372-46.462,130.865-49.68,178.553-64.068c164.424-49.627,274.981-57.975,434.869-13.662
			c18.666,55.879-172.394,49.668-267.207,83.973c-95.799,34.661-214.06,76.822-102.754,167.148
			c34.662,28.133,137.836,31.717,179.526,30.949c128.284-2.377,270.243-24.518,393.836-56.254
			c43.873-11.269,84.532-23.012,130.532-23.108c72.813-4.074-59.123,102.752-26.214,162.103
			c22.245,40.111,134.151,54.967,153.824,59.229c-68.479,30.503-240.621,92.645-387.813,112.158
			c-78.633,10.425-341.871,60.323-391.67,56.654c-18.998-1.396-72.14-2.224-120.711-8.756
			c-78.812-10.604-154.393-42.615-183.187-39.67L5040.295,6582.914z" style="stroke:black;fill:#cccccc"/><path id="180639575" parent_id="180639470" order="102" structure_id="1009" d="M5542.32,5015.504
			c6.492-50.184-21.369-285.078-78.494-256.313c-53.125,26.754,40.432,218.525,28.242,277.574
			c-17.481,84.478-100.358,142.31-117.547,219.524c-13.644,61.261-3.385,69.183,53.125,34.536
			C5519.369,5234.582,5530.033,5110.566,5542.32,5015.504z" style="stroke:black;fill:#cccccc"/><path id="180639576" parent_id="180639470" order="103" structure_id="1009" d="M5076.791,4558.277
			c68.861,29.886,149.409,21.267,221.833,13.162c11.67-1.307,739.563-80.197,667.666-174.44
			c-190.728-250.071-327.198-138.896-427.451-110.224c-153.597,43.918-300.246,68.33-457.949,44.381L5076.791,4558.277z" style="stroke:black;fill:#cccccc"/><path id="180639577" parent_id="180639470" order="104" structure_id="1009" d="M5353.372,4277.895
			c-85.319,52.938-184.095,32.592-215.535-31.595c-26.749-54.599,25.985-126.149,88.452-142.476
			C5305.977,4082.988,5436.014,4226.615,5353.372,4277.895z" style="stroke:black;fill:#cccccc"/><path id="180639578" parent_id="180639470" order="105" structure_id="1009" d="M6913.238,5973.426
			c-9.211-89.459,25.369-204.988,42.566-292.699c15.76-80.381,50.26-144.755,39.344-225.249
			c-10.524-77.61-48.238-120.453-37.647-206.908c9.86-80.504,72.312-220.291,140.661-318.612
			c55.777-80.228,120.77-128.733,120.77-128.733c196.438-23.472,150.967,424.545,143.477,532.463
			c-4.514,65.019-120.826,293.597-124.939,321.907c-6.6,45.411,24.574,34.455,40.846,39.527
			c184.704,57.601,215.957,85.754,277.052,154.605c62.45,70.389,132.521,162.877,166.442,251.419
			c150.627,393.231-219.049,441.13-494.955,335.099c-167.037-64.193-221.875-112.814-236.896-288.737
			c-6.298-73.728-13.407-234.798-38.932-202.011L6913.238,5973.426z" style="stroke:black;fill:#cccccc"/><path id="180639579" parent_id="180639470" order="106" structure_id="1009" d="M8491.553,3106.798
			c-0.067-0.916-0.134-1.831-0.283-2.748c-1.464-15.651-3.429-31.146-5.654-45.982c-0.521-3.334-1.045-6.585-1.568-9.836
			c-0.519-3.5-1.12-7.002-1.726-10.338c-0.754-4.252-1.51-8.423-2.351-12.511c-0.682-3.668-1.364-7.339-2.132-10.844
			c-0.615-2.754-1.149-5.423-1.768-8.011c-0.456-2.335-0.916-4.505-1.459-6.676c-5.008-21.867-10.33-40.166-15.01-52.636
			c-11.816-31.465-30.273-63.466-53.224-95.215c-79.471-110.066-211.778-217.015-301.357-287.285
			c-2.789-2.127-5.492-4.254-8.115-6.297c-31.063-24.332-280.649-214.267-489.688-343.543
			c-101.352-62.835-193.236-111.288-246.029-119.803c-12.348-2.051-22.574-1.82-30.354,0.949
			c-8.03,2.847-13.368,8.486-15.438,17.259c-0.98,3.723-1.31,8.122-0.982,13.032c0.195,3.262,0.626,6.607,1.275,10.031
			c2.967,15.618,10.514,32.846,21.229,50.968c24.272,41.332,64.838,87.278,104.806,129.475
			c39.721,42.026,78.927,80.302,100.814,106.38c10.823,12.829,21.402,25.321,31.904,37.563
			c43.476,50.487,71.815,96.714,111.943,134.591c0.814,0.846,1.633,1.607,2.452,2.288c14.388,13.392,30.374,25.649,49.044,36.625
			c0.165,0.086,0.246,0.17,0.411,0.257c12.338,7.204,25.851,13.848,40.867,19.938c18.483,7.48,36.278,16.197,53.31,25.979
			c72.396,41.368,132.82,101.471,188.476,163.316c20.29,22.559,43.592,57.805,68.034,98.973c0.648,0.926,1.212,1.934,1.691,2.939
			c30.412,51.25,62.488,111.59,92.803,168.24c13.512,25.096,26.619,49.521,39.094,72.187
			c33.485,60.532,108.078,136.932,174.907,141.378l0.177-0.579c9.216,0.582,18.537-0.081,28.05-2.154
			c36.425-10.315,55.379-47.376,63.55-94.854C8495.572,3192.73,8495.361,3149.091,8491.553,3106.798z" style="stroke:black;fill:#cccccc"/><path id="180639571" parent_id="180639470" order="107" structure_id="140" d="M5110.374,2695.661c0,0,10.313,43.123,28.444,112.718
			c18.139,69.6,108.645,121.102,105.723,129.359c-2.913,8.262-60.907,151.283-78.072,181.453
			c-17.172,30.162-54.18,84.906-65.354,90.25L5110.374,2695.661z" style="stroke:black;fill:#aaaaaa"/></g>
</g>
</svg>