<svg width="5504" height="5440" xmlns="http://www.w3.org/2000/svg">
<g transform="scale(1.0)">
<g id="180609365" order="1" parent_id="" graphic_group_label_id="28" graphic_group_label="Atlas - Adult Mouse" sub_image_id="100960437" transform=" scale(1.0, 1.0)"><path id="180609367" parent_id="180609365" order="0" structure_id="8" d="M4271.981,2648.93
			c135.912,271.288,98.876,584.99,1.264,862.48c-59.665,169.594-148.604,325.672-245.112,476.628
			c-96.333,150.701-191.033,307.668-316.527,436.234c-70.691,72.422-152.588,133.679-238.182,187.383
			c-145.178,91.1-378.751,0.513-505.732-80.471c-264.496-168.666-306.043-527.756-294.024-812.321
			c10.171-241.119,4.929-483.568,11.091-725.687c4.585-180.613,37.387-375.504,74.887-551.956
			c24.278-114.282,84.521-259.917,189.816-319.915c125.332-71.417,270.688-89.215,412.473-90.959
			c87.003-1.072,167.698,4.889,252.026,21.274c115.41,22.423,215.873,57.277,320.049,110.625
			c44.477,22.782,112.161,41.087,148.17,75.642c37.42,35.899,40.878,95.336,49.937,143.138
			c16.066,84.841,86.121,149.544,119.842,225.851C4258.265,2621.146,4265.068,2635.109,4271.981,2648.93z" style="stroke:black;fill:#bfdae3"/><path id="180609368" parent_id="180609365" order="1" structure_id="8" d="M3001.845,955.268
			c154.717-105.932,415.771-29.236,578.939,11.132c87.194,21.566,176.468,56.601,254.715,100.798
			c136.825,77.288,274.482,157.528,365.004,289.354c81.85,119.215,260.238,368.817,91.356,493.709
			c-50.576,37.404-111.475,59.174-172.468,38.769c-63.01-21.083-113.585-69.537-161.536-112.942
			c-108.688-98.361-309.162-134.888-449.381-122.76c-180.773,15.637-428.719,42.872-553.604-122.48
			c-91.081-120.596-104.431-341.753-37.803-476.261C2938.674,1010.989,2967.659,978.671,3001.845,955.268z" style="stroke:black;fill:#bfdae3"/><path id="180609369" parent_id="180609365" order="2" structure_id="688" d="M4271.996,2648.905
			c-6.931-13.82-13.717-27.784-20.03-42.056c-33.729-76.302-103.774-141.004-119.843-225.844
			c-9.059-47.801-12.523-107.238-49.934-143.136c-36.019-34.554-103.694-52.859-148.171-75.642
			c-104.175-53.343-204.636-88.201-320.046-110.619c-84.328-16.385-165.024-22.347-252.025-21.278
			c-141.777,1.749-287.147,19.542-412.48,90.958c-105.287,60.001-165.521,205.634-189.808,319.915
			c-37.507,176.45-70.3,371.337-74.886,551.949c-6.162,242.116-0.912,484.561-11.091,725.677
			c-12.02,284.562,29.545,643.65,294.022,812.307c126.997,80.987,360.554,171.568,505.739,80.475
			c85.585-53.707,167.497-114.965,238.174-187.385c125.501-128.564,220.192-285.529,316.532-436.224
			c96.5-150.959,185.438-307.031,245.103-476.627C4370.873,3233.887,4407.899,2920.19,4271.996,2648.905z M3611.331,3106.719
			c-16.709,28.74-29.984,59.489-40.252,91.099c-15.948,49.09-15.356,101.593-35.13,149.654c-3.354,8.166-10.18,23.614-19.294,12.855
			c-10.131-12.008-9.106-38.359-9.867-52.896c-1.034-19.797-0.926-39.574-0.576-59.353c3.047-28.629,3.132-56.955,2.209-86.404
			c-0.099-3.127-0.221-6.255-0.355-9.384c0.271-28.695-1.021-57.345-9.111-85.035c-2.987-10.243-6.771-20.243-10.714-30.19
			c-2.993-8.296-6.317-16.466-9.716-24.606c-5.121-13.568-9.567-27.329-11.739-41.763c-7.851-52.183,41.188-43.472,74.461-28.852
			c7.468,3.281,16.23,7.032,25.494,11.325c7.279,4.073,14.677,7.86,21.992,11.429c2.406,1.174,4.787,2.35,7.154,3.518
			c27.487,15.906,52.332,36.986,55.008,64.966C3653.583,3061.254,3624.383,3084.257,3611.331,3106.719z" style="stroke:black;fill:#b0ffb8"/><path id="180609370" parent_id="180609365" order="3" structure_id="688" d="M3001.845,955.268
			c154.717-105.932,415.771-29.236,578.939,11.132c87.194,21.566,176.468,56.601,254.715,100.798
			c136.825,77.288,274.482,157.528,365.004,289.354c81.85,119.215,260.238,368.817,91.356,493.709
			c-50.576,37.404-111.475,59.174-172.468,38.769c-63.01-21.083-113.585-69.537-161.536-112.942
			c-108.688-98.361-309.162-134.888-449.381-122.76c-180.773,15.637-428.719,42.872-553.604-122.48
			c-91.081-120.596-104.431-341.753-37.803-476.261C2938.674,1010.989,2967.659,978.671,3001.845,955.268z" style="stroke:black;fill:#b0ffb8"/><path id="180609385" parent_id="180609365" order="4" structure_id="68" d="M3001.845,955.268
			c154.717-105.932,415.771-29.236,578.939,11.132c87.194,21.566,176.468,56.601,254.715,100.798
			c136.825,77.288,274.482,157.528,365.004,289.354c81.85,119.215,260.238,368.817,91.356,493.709
			c-50.576,37.404-111.475,59.174-172.468,38.769c-63.01-21.083-113.585-69.537-161.536-112.942
			c-108.688-98.361-309.162-134.888-449.381-122.76c-180.773,15.637-428.719,42.872-553.604-122.48
			c-91.081-120.596-104.431-341.753-37.803-476.261C2938.674,1010.989,2967.659,978.671,3001.845,955.268z" style="stroke:black;fill:#268f45"/><path id="180609371" parent_id="180609365" order="5" structure_id="698" d="M4271.981,2648.93
			c-6.913-13.821-13.717-27.784-20.022-42.052c-33.721-76.307-103.775-141.01-119.842-225.851
			c-9.06-47.802-12.518-107.239-49.937-143.138c-36.009-34.555-103.693-52.86-148.17-75.642
			c-104.176-53.349-204.639-88.203-320.049-110.625c-84.328-16.385-165.023-22.346-252.026-21.274
			c-141.785,1.744-287.141,19.542-412.473,90.959c-105.296,59.997-165.538,205.632-189.816,319.915
			c-37.5,176.452-70.301,371.343-74.887,551.956c-6.162,242.118-0.92,484.567-11.091,725.687
			c-12.02,284.565,29.528,643.655,294.024,812.321c126.981,80.983,360.555,171.57,505.732,80.471
			c85.594-53.704,167.49-114.961,238.182-187.383c125.494-128.566,220.194-285.533,316.527-436.234
			c96.509-150.956,185.447-307.034,245.112-476.628C4370.857,3233.92,4407.894,2920.218,4271.981,2648.93z M3611.331,3106.719
			c-16.709,28.74-29.984,59.489-40.252,91.099c-15.948,49.09-15.356,101.593-35.13,149.654c-3.354,8.166-10.18,23.614-19.294,12.855
			c-10.131-12.008-9.106-38.359-9.867-52.896c-1.034-19.797-0.926-39.574-0.576-59.353c3.047-28.629,3.132-56.955,2.209-86.404
			c-0.099-3.127-0.221-6.255-0.355-9.384c0.271-28.695-1.021-57.345-9.111-85.035c-2.987-10.243-6.771-20.243-10.714-30.19
			c-2.993-8.296-6.317-16.466-9.716-24.606c-5.121-13.568-9.567-27.329-11.739-41.763c-7.851-52.183,41.188-43.472,74.461-28.852
			c7.468,3.281,16.23,7.032,25.494,11.325c7.279,4.073,14.677,7.86,21.992,11.429c2.406,1.174,4.787,2.35,7.154,3.518
			c27.487,15.906,52.332,36.986,55.008,64.966C3653.583,3061.254,3624.383,3084.257,3611.331,3106.719z" style="stroke:black;fill:#9ad2bd"/><path id="180609372" parent_id="180609365" order="6" structure_id="507" d="M3969.892,4052.471
			c-0.92,0.433-1.664,0.769-2.16,0.961c-19.895,7.729-44.974,8.966-66.124,8.554c-99.621-1.92-197.354-79.519-256.858-153.799
			c-25.672-32.05-55.681-61.258-77.423-96.304c-24.247-39.087-31.409-85.316-46.462-128.124
			c-17.005-48.326-38.331-97.048-44.028-148.479c-6.33-57.128-0.305-114.712,8.138-171.284
			c5.386-36.095,20.559-88.841,22.615-158.993c2.049-69.651,5.938-119.149-33.058-204.246
			c-56.969-124.347-35.643-191.542-28.368-301.801c2.793-42.292,7.586-81.959,23.719-121.791
			c20.51-50.646,37.827-100.2,49.318-154.043c11.787-55.224,24.823-111.176,39.812-165.619
			c9.114-33.166,41.22-96.891,16.188-129.429c-16.341-21.234-45.261-33.065-66.228-48.862
			c-46.077-34.71-89.218-49.586-147.026-48.882c-141.777,1.749-287.147,19.542-412.48,90.958
			c-105.287,60.001-165.521,205.634-189.808,319.915c-37.507,176.45-70.3,371.337-74.886,551.949
			c-6.162,242.116-0.912,484.561-11.091,725.677c-12.02,284.562,29.545,643.65,294.022,812.307
			c126.997,80.987,360.554,171.568,505.739,80.475c85.585-53.707,167.497-114.965,238.174-187.385
			c27.112-27.764,52.72-56.912,77.335-86.9c43.452-52.995,83.456-109.027,121.315-166.14c18.885-28.492,37.723-57.04,55.888-86
			c9.314-14.853,19.021-29.417,28.568-44.117C3995.988,4039.123,3977.198,4049.03,3969.892,4052.471z" style="stroke:black;fill:#9ad2bd"/><path id="180609373" parent_id="180609365" order="7" structure_id="212" d="M3279.723,2044.462
			c-26.104-10.035-138.553,70.62-158.591,89.741c-17.669,16.841-21.19,43.804-35.586,62.954
			c-18.966,25.215-49.639,39.287-67.813,64.883c-20.245,28.484-37.37,66.482-51.446,98.82
			c-85.682,196.852-99.189,444.894-84.425,656.562c3.553,50.99-1.097,102.957-7.146,154.22c-3.577,30.288-5.602,60.137-4.113,90.954
			c5.481,113.487,28.32,225.703,54.48,336.031c24.495,103.309,39.924,209.131,74.102,309.951
			c26.815,79.087,47.157,161.966,94.283,232.166c23.999,35.75,49.935,56.048,63.723,97.392
			c16.789,50.366,30.657,101.677,49.254,151.442c28.072,75.189,50.031,144.27,138.625,164.583
			c73.085,16.757,145.643-32.321,205.036-68.06c46.053-27.724,115.049-100.648,171.954-94.446
			c2.225,43.853-63.283,83.836-92.1,107.851c-49.318,41.092-102.182,78.01-156.518,112.104
			c-187.03,117.361-316.34-62.51-421.563-195.743c-55.944-70.853-105.175-146.962-149.147-225.76
			c-37.251-66.764-87.281-143.497-105.159-217.638c-23.503-97.492-50.791-203.25-45.949-304.742
			c4.562-95.804-5.49-195.96-11.227-292.388c-7.434-125.051-18.35-247.222-10.491-371.865
			c8.515-134.998,20.55-269.756,33.018-404.434c15.716-170.004,16.692-380.96,186.542-477.751
			C3029.49,2075.699,3180.701,2021.516,3279.723,2044.462z" style="stroke:black;fill:#82c7ae"/><path id="180609377" parent_id="180609365" order="8" structure_id="220" d="M3716.954,4060.466
			c0.776-71.229-25.344-93.771-72.205-152.279c-25.672-32.05-55.681-61.258-77.423-96.304
			c-24.247-39.087-31.409-85.316-46.462-128.124c-17.005-48.326-38.331-97.048-44.028-148.479
			c-6.33-57.128-0.305-114.712,8.138-171.284c5.386-36.095,20.559-88.841,22.615-158.993c2.049-69.651,5.938-119.149-33.058-204.246
			c-56.969-124.347-35.643-191.542-28.368-301.801c2.793-42.292,7.586-81.959,23.719-121.791
			c20.51-50.646,37.827-100.2,49.318-154.043c14.668-68.771,64.154-188.021-39.372-210.984
			c-65.475-14.52-139.824,27.276-185.222,71.732c-94.436,92.454-137.304,224.228-147.915,353.196
			c-10.947,133.238,22.511,252.624,40.771,382.901c12.66,90.226,32.898,181.163,40.933,271.82
			c7.018,79.211-14.597,152.916-11.948,231.954c2.193,65.627,17.317,132.062,33.37,195.556
			c14.316,56.628,30.201,112.403,51.431,166.883c36.019,92.423,84.089,177.11,132.039,263.619
			c41.076,74.101,120.523,141.06,206.54,89.354c57.033-34.294,73.014-101.646,76.574-163.043
			C3716.714,4070.641,3716.898,4065.427,3716.954,4060.466z" style="stroke:black;fill:#82c7ae"/><path id="180609376" parent_id="180609365" order="9" structure_id="228" d="M3425.128,2188.264
			c-21.185,17.457-57.693,16.429-81.892,28.319c-264.156,129.785-230.011,486.31-197.569,728.063
			c13.724,102.265,31.634,205.386,39.483,308.259c6.906,90.602-4.513,180.323-1.48,270.837
			c7.227,215.549,82.185,405.215,182.069,592.628c26.728,50.139,34.946,112.1,79.255,152.107
			c11.14,10.063,22.311,20.537,34.803,28.239c9.059,5.59,18.789,9.719,29.712,11.159c1.307,0.17,67.646-3.43,79.963,2.914
			c12.542-6.015,25.776-12.729,33.468-25.983c6.79-11.703,7.03-27.326,1.622-37.679c-80.062,35.73-152.641-27.633-191.274-97.328
			c-47.95-86.509-96.021-171.196-132.039-263.619c-21.229-54.479-37.114-110.255-51.431-166.883
			c-16.053-63.494-31.177-129.929-33.37-195.556c-2.648-79.038,18.966-152.743,11.948-231.954
			c-8.034-90.657-28.272-181.595-40.933-271.82c-18.261-130.277-51.719-249.663-40.771-382.901
			c10.611-128.968,53.479-260.742,147.915-353.196c38.196-37.404,96.888-72.921,153.544-74.601
			C3445.397,2199.638,3437.516,2193.127,3425.128,2188.264z" style="stroke:black;fill:#9ad2bd"/><path id="180609375" parent_id="180609365" order="10" structure_id="236" d="M3479.797,4296.716
			c9.059,5.59,18.789,9.719,29.712,11.159c1.505,0.196,89.307-4.613,81.433,6.538c-25.239,35.746-123.637,44.484-159.287,28.788
			c-59.993-26.396-57.864-115.196-75.726-168.312c-26.792-79.65-84.161-144.188-119.587-219.73
			c-40.556-86.496-71.766-180.475-86.306-274.958c-19.686-127.899-3.953-257.024-10.851-385.541
			c-6.979-129.988-33.714-257.984-41.709-387.894c-6.001-97.516-22.486-194.007-12.235-291.851
			c14.269-136.327,83.801-325.873,195.161-414.206c31.401-24.919,114.649-35.59,151.316-19.137
			c-19.317,24.563-61.538,21.77-88.482,35.01c-264.156,129.785-230.011,486.31-197.569,728.063
			c13.724,102.265,31.634,205.386,39.483,308.259c6.906,90.602-4.513,180.323-1.48,270.837
			c7.227,215.549,82.185,405.215,182.069,592.628c26.728,50.139,34.946,112.1,79.255,152.107
			C3456.134,4278.539,3467.305,4289.014,3479.797,4296.716z" style="stroke:black;fill:#82c7ae"/><path id="180609374" parent_id="180609365" order="11" structure_id="244" d="M3668.019,4348.42
			c-18.839-39.054-60.848-19.011-95.242-18.336c-38.229,22.31-111.432,26.189-141.122,13.117
			c-59.993-26.396-57.864-115.196-75.726-168.312c-26.792-79.65-84.161-144.188-119.587-219.73
			c-40.556-86.496-71.766-180.475-86.306-274.958c-19.686-127.899-3.953-257.024-10.851-385.541
			c-6.979-129.988-33.714-257.984-41.709-387.894c-6.001-97.516-22.486-194.007-12.235-291.851
			c14.269-136.327,83.801-325.873,195.161-414.206c30.31-24.052,108.915-34.827,147.319-20.753c-0.699-0.482-0.699-0.482,0,0
			c1.385,0.507,3.606,2.072,3.415,2.305c29.164,19.242,83.393,44.695,113.795,25.513c28.196-17.791,30.465-55.429,22.664-88.148
			c-16.734-16.195-40.61-26.844-58.623-40.416c-46.077-34.71-89.218-49.586-147.026-48.882c-2.276,0.028-4.554,0.06-6.832,0.097
			c-50.86,0.815-85.445,13.434-88.998,14.254c-39.343,9.077-127.469,72.808-144.984,89.523
			c-17.669,16.841-21.19,43.804-35.586,62.954c-18.966,25.215-49.639,39.287-67.813,64.883
			c-20.245,28.484-37.37,66.482-51.446,98.82c-85.682,196.852-99.189,444.894-84.425,656.562
			c3.553,50.99-1.097,102.957-7.146,154.22c-3.577,30.288-5.602,60.137-4.113,90.954c5.481,113.487,28.32,225.703,54.48,336.031
			c24.495,103.309,39.924,209.131,74.102,309.951c26.815,79.087,47.157,161.966,94.283,232.166
			c23.999,35.75,49.935,56.048,63.723,97.392c16.789,50.366,30.657,101.677,49.254,151.442
			c28.072,75.189,50.031,144.27,138.625,164.583c73.085,16.757,145.643-32.321,205.036-68.06
			c30.904-18.604,72.14-57.563,113.121-79.306C3673.606,4390.229,3679.241,4371.688,3668.019,4348.42z" style="stroke:black;fill:#9ad2bd"/><path id="180609378" parent_id="180609365" order="12" structure_id="151" d="M4251.966,2606.85
			c-75.854,2.013-134.888,12.768-209.693,18.401c-91.482,6.882-194.696,29.728-287.004,39.211
			c-70.477,7.234-210.117,20.886-235.068-41.836c-18.045-45.337,7.059-164.03,16.749-207.691
			c12.124-54.555,27.4-108.438,42.421-162.25c9.139-32.745,28.16-67.291,22.382-102.041c-4.529-27.315-23.566-41.736-45.565-56.456
			c-12.235-8.187-52.463-29.34-52.967-45.893c-0.816-26.852,203.059,23.178,220.736,29.768
			c41.084,15.325,57.841,18.381,99.236,34.182c37.787,14.428,75.135,30.896,110.825,49.982
			c44.068,23.575,112.152,41.088,148.171,75.642c37.411,35.898,40.876,95.335,49.934,143.136
			c14.868,78.542,76.022,139.828,111.776,209.035L4251.966,2606.85z" style="stroke:black;fill:#9df0d2"/><path id="180609381" parent_id="180609365" order="13" structure_id="188" d="
			M4110.532,2282.421c-10.763-34.966-44.204-63.33-80.983-75.209c-21.414-6.918-41.676-1.393-63.099-4.033
			c-28.096-3.457-54.544-15.012-82.68-18.181c-11.836-1.333-23.727,0.544-35.354-2.069c-12.027-2.701-22.799-9.386-35.01-11.547
			c-31.97-5.662-63.026,12.219-95.108,8.59c-10.131-1.145-18.517-7.022-28.088-10.191c-22.822-7.558-52.888-12.6-74.485,0.88
			c-12.508,7.794-23.392,25.623-25.231,40.139c-3.753,29.356,19.197,35.122,37.715,51.143c11.459,9.931,13.836,23.639,28.513,31.521
			c13.819,7.422,30.729,2.137,44.261,9.022c14.116,7.186,10.643,13.232,18.173,24.863c11.987,18.489,32.313,26.072,52.207,32.938
			c18.086,6.242,35.563,14.808,54.336,18.857c15.517,3.341,32.578,0.372,47.454,6.042c34.395,13.104,48.678,33.666,89.522,29.841
			c52.599-4.938,124.284-30.341,147.274-81.947C4118.407,2314.099,4115.462,2298.37,4110.532,2282.421z" style="stroke:black;fill:#9df0d2"/><path id="180609379" parent_id="180609365" order="14" structure_id="196" d="M4109.876,2629.348
			c-57.912-44.052-170.369-7.39-236.948-10.979c-63.155-3.409-126.766-21.314-181.021-50.206
			c-37.851-20.158-56.841-56.46-93.499-76.75c-36.131-19.985-64.867-29-66.491-42.388l-6.922,25.075
			c-9.299,52.17-17.142,117.513-4.794,148.526c24.951,62.722,164.592,49.07,235.068,41.836
			c92.308-9.483,195.521-32.329,287.004-39.211L4109.876,2629.348z" style="stroke:black;fill:#95e4c8"/><path id="180609380" parent_id="180609365" order="15" structure_id="204" d="M3536.949,2414.935
			c4.409-29.813,26.928-106.454,42.421-162.25c54.056,1.604,54.056,26.188,81.855,45.537c51.022,35.49,85.617,65.422,139.865,96.391
			c68.716,39.247,168.225,54.627,243.431,34.038c17.965-4.913,66.627-23.03,83.728-21.306
			c17.805,1.792,30.657,70.008,93.171,144.185c-54.96-54.947-156.725,6.938-205.099,14.996
			c-105.438,17.569-205.98,2.657-301.832-45.068c-42.612-21.214-183.014-124.279-182.573-72.433
			C3531.916,2449.025,3536.949,2414.943,3536.949,2414.935z" style="stroke:black;fill:#9df0d2"/><path id="180609382" parent_id="180609365" order="16" structure_id="159" d="M4234.849,2615.696
			c44.621-6.218,116.139,218.478,122.916,370.105c7.786,174.105-23.118,352.228-80.663,515.767
			c-46.782,132.961-113.209,261.39-185.446,382.056c-22.743,37.987-39.155,64.377-60.042,98.949
			c-8.891,14.716-20.113,31.928-27.716,43.498c-20.843,31.721-90.743,24.738-132.906,13.897
			c-29.945-7.702-61.507-19.605-88.891-33.97c-33.258-17.449-66.875-47.842-90.914-76.382
			c-36.963-43.908-50.823-93.671-64.955-147.99c-26.248-100.896-40.412-199.112-40.027-304.246
			c0.151-41.92-1.177-90.913,8.026-131.569c5.417-23.963,10.73-47.806,16.732-71.68c14.172-56.416,53.424-104.65,91.034-147.426
			c24.527-27.876,72.35-80.731,41.893-119.266c-19.197-24.268-65.659-13.836-91.827-17.926
			c-22.262-3.469-43.717-16.721-64.274-25.459c-50.198-21.342-102.254-61.886-95.964-122.862c3.385-32.782,1.16-65.495,7.274-98.16
			c12.604-67.207,70.628-62.926,123.748-58.901c70.5,5.35,140.696-7.314,210.469-15.856
			C3967.156,2651.882,4126.962,2630.716,4234.849,2615.696z" style="stroke:black;fill:#54bf94"/><path id="180609383" parent_id="180609365" order="17" structure_id="175" d="M4238.938,2957.121
			c-1.544-122.882-11.063-235.718-125.355-324.9c-15.931,2.132-32.229,4.299-48.771,6.484
			c-38.188,5.044-77.649,10.182-116.771,15.186l-0.004,0.041c-3.457,25.223,47.958,52.839,61.162,68.916
			c23.463,28.56,47.478,72.58,57.601,108.078c12.676,44.429,3.169,98.517-0.16,143.833
			c-8.41,114.256-57.137,214.893-107.911,315.457c-43.925,87.001-41.532,190.022-88.514,273.109
			c-48.816,86.328-162.964,154.11-248.567,200.195c1.485,6.027,3.012,12.062,4.584,18.106
			c13.265,50.987,26.293,97.96,58.411,139.845c2.099,2.736,4.277,5.452,6.544,8.146c11.361,13.488,24.863,27.389,39.454,40.143
			c0.687-1.063,1.399-2.128,2.149-3.196c34.378-48.945,98.621-55.523,148.46-78.834c54.72-25.6,117.138-71.765,148.731-123.467
			c45.069-73.749,89.233-171.232,110.624-239.685c24.567-78.605,55.896-163.27,69.652-243.78
			C4238.938,3112.813,4239.891,3032.767,4238.938,2957.121z" style="stroke:black;fill:#54bf94"/><path id="180609384" parent_id="180609365" order="18" structure_id="183" d="M4066.8,2830.925
			c-10.123-35.498-34.138-79.519-57.601-108.078c-13.204-16.077-64.619-43.693-61.162-68.916l0.004-0.041
			c-33.91,4.337-67.56,8.574-99.898,12.562c-4.973,0.613-9.92,1.222-14.827,1.823c-69.772,8.542-139.969,21.206-210.469,15.856
			c-53.12-4.025-111.145-8.306-123.748,58.901c-6.114,32.665-3.89,65.378-7.274,98.16c-6.29,60.977,45.766,101.521,95.964,122.862
			c20.558,8.738,42.013,21.99,64.274,25.459c26.168,4.09,72.63-6.342,91.827,17.926c30.457,38.534-17.365,91.39-41.893,119.266
			c-37.61,42.775-76.862,91.01-91.034,147.426c-6.002,23.874-11.315,47.717-16.732,71.68c-9.203,40.656-7.875,89.649-8.026,131.569
			c-0.246,67.322,5.482,131.808,16.521,195.978c5.166,30.036,11.492,60.005,18.923,90.162
			c85.604-46.085,199.751-113.867,248.567-200.195c46.981-83.087,44.589-186.108,88.514-273.109
			c50.774-100.564,99.501-201.201,107.911-315.457C4069.969,2929.441,4079.476,2875.354,4066.8,2830.925z" style="stroke:black;fill:#54bf94"/><path id="180609387" parent_id="180609365" order="19" structure_id="1009" d="M3541.246,2941.845
			c7.468,3.281,16.23,7.032,25.494,11.325c-35.046-19.61-67.294-46.011-73.748-88.287c-9.538-62.397,14.084-126.128,14.98-188.565
			c0.208-14.908,2.633-30.084,3.545-44.905c1.272-20.266,3.226-40.443,3.354-60.781c0.071-12.14-3.897-20.77-17.045-17.865
			c-21.895,4.833-34.298,44.373-39.188,63.046c-8.242,31.469-12.164,64.146-15.037,96.476c-1.456,16.348-2.424,32.725-3.297,49.114
			c-3.2,59.653-9.498,117.697,10.876,174.93c6.329,17.793,10.787,35.678,17.82,53.19c3.088,7.679,6.334,15.297,9.523,22.938
			c-5.121-13.568-9.567-27.329-11.739-41.763C3458.935,2918.514,3507.973,2927.225,3541.246,2941.845z" style="stroke:black;fill:#cccccc"/><path id="180609388" parent_id="180609365" order="20" structure_id="1009" d="M3732.591,2999.341
			c-26.576-13.336-54.809-5.05-82.44-10.347c-19.533-3.744-36.447-12.085-54.264-20.878c27.487,15.906,52.332,36.986,55.008,64.966
			c2.688,28.172-26.512,51.175-39.563,73.637c-16.709,28.74-29.984,59.489-40.252,91.099
			c-15.948,49.09-15.356,101.593-35.13,149.654c-3.354,8.166-10.18,23.614-19.294,12.855c-10.131-12.008-9.106-38.359-9.867-52.896
			c-1.034-19.797-0.926-39.574-0.576-59.353c-1.129,10.603-2.651,21.246-4.697,32.005c-13.172,69.392-30.977,138.668-29.017,210.404
			c1.513,55.243,18.229,107.506,35.442,159.745c20.438,62.01,62.467,218.058,132.103,244.689
			c15.285-45.438-13.972-110.283-22.798-154.34c-35.387-176.458-68.444-414.029,47.59-571.018
			c4.489-6.074,12.739-15.033,22.534-25.788C3726.653,3100.545,3790.472,3028.413,3732.591,2999.341z" style="stroke:black;fill:#cccccc"/><path id="180609389" parent_id="180609365" order="21" structure_id="1009" d="M3051.88,4415.866
			c-55.944-70.853-105.175-146.962-149.147-225.76c-37.251-66.764-87.281-143.497-105.159-217.638
			c-23.503-97.492-50.791-203.25-45.949-304.742c4.562-95.804-5.49-195.96-11.227-292.388
			c-7.434-125.051-18.35-247.222-10.491-371.865c8.515-134.998,20.55-269.756,33.018-404.434
			c10.074-108.977,14.093-234.78,60.418-336.553c-30.788,57.785-51.65,122.097-63.684,178.716
			c-37.507,176.45-70.3,371.337-74.886,551.949c-6.162,242.116-0.912,484.561-11.091,725.677
			c-12.02,284.562,29.545,643.65,294.022,812.307c93.488,59.618,244.72,124.432,375.937,118.146
			C3223.352,4642.069,3130.835,4515.839,3051.88,4415.866z" style="stroke:black;fill:#cccccc"/><path id="180609390" parent_id="180609365" order="22" structure_id="1009" d="M3925.743,2175.483
			c-10.668,8.066-31.945,2.313-43.917,1.424c-26.28-1.944-51.224-8.01-77.23-10.255c-26.016-2.249-52.208,4.177-78.095,1.776
			c-41.101-3.797-98.637-20.91-133.976-43.108c-13.948-8.755-21.382-21.134-36.347-31.133c-12.235-8.19-52.455-29.345-52.959-45.893
			c-0.816-26.852,203.059,23.178,220.736,29.768c41.084,15.325,57.841,18.381,99.236,34.182
			c24.655,9.415,48.879,19.777,72.798,30.929C3905.865,2147.784,3943.828,2161.835,3925.743,2175.483z" style="stroke:black;fill:#cccccc"/><path id="180609391" parent_id="180609365" order="23" structure_id="1009" d="M4356.341,3006.318
			c11.139,173.922-27.376,348.095-84.921,511.642c-32.922,93.555-80.592,185.672-125.725,273.813
			c-53.936,105.334-116.538,203.329-222.321,262.074c-47.494,26.375-96.477,51.975-149.172,25.647
			c-44.925-22.446-74.733-65.487-41.412-112.933c34.378-48.945,98.621-55.523,148.46-78.834
			c54.72-25.6,117.138-71.765,148.731-123.467c45.069-73.749,89.233-171.232,110.624-239.685
			c24.567-78.605,55.896-163.27,69.652-243.78c28.681-167.984,29.633-248.03,28.681-323.676
			c-1.561-124.203-11.252-238.148-129.063-327.773c-57.912-44.052-170.369-7.39-236.948-10.979
			c-63.155-3.409-126.766-21.314-181.021-50.206c-37.851-20.158-56.841-56.46-93.499-76.75c-36.131-19.985-64.867-29-66.491-42.388
			c-0.44-51.847,139.961,51.218,182.573,72.433c95.852,47.725,196.394,62.638,301.832,45.068
			c48.374-8.058,127.861-53.567,176.171-34.142c42.349,17.021,64.979,84.848,82.616,122.843
			c33.946,73.133,54.185,143.128,68.244,226.68c6.498,38.659,9.65,77.414,12.428,116.345
			C4355.973,3000.941,4356.164,3003.63,4356.341,3006.318z" style="stroke:black;fill:#cccccc"/><path id="180609386" parent_id="180609365" order="24" structure_id="98" d="M3506.788,3307.432
			c0.761,14.536-0.264,40.888,9.867,52.896c9.114,10.759,15.94-4.689,19.294-12.855c19.773-48.062,19.182-100.564,35.13-149.654
			c10.268-31.609,23.543-62.358,40.252-91.099c13.052-22.462,42.252-45.465,39.563-73.637c-2.676-27.979-27.521-49.06-55.008-64.966
			c-2.367-1.168-4.748-2.344-7.154-3.518c-7.315-3.568-14.713-7.355-21.992-11.429c-9.264-4.293-18.026-8.044-25.494-11.325
			c-33.273-14.62-82.312-23.331-74.461,28.852c2.172,14.434,6.618,28.194,11.739,41.763c3.398,8.141,6.723,16.311,9.716,24.606
			c3.942,9.947,7.727,19.947,10.714,30.19c8.09,27.69,9.382,56.34,9.111,85.035c0.135,3.129,0.257,6.257,0.355,9.384
			c0.923,29.449,0.838,57.775-2.209,86.404C3505.863,3267.857,3505.754,3287.635,3506.788,3307.432z" style="stroke:black;fill:#aaaaaa"/></g>
</g>
</svg>