<?xml version="1.0" encoding="utf-8"?>
<!-- Generator: Adobe Illustrator 16.0.0, SVG Export Plug-In . SVG Version: 6.00 Build 0)  -->
<!DOCTYPE svg PUBLIC "-//W3C//DTD SVG 1.1//EN" "http://www.w3.org/Graphics/SVG/1.1/DTD/svg11.dtd">
<svg version="1.1" id="Layer_1" xmlns="http://www.w3.org/2000/svg" xmlns:xlink="http://www.w3.org/1999/xlink" x="0px" y="0px"
	 width="9744.011px" height="6823.461px" viewBox="0 0 9744.011 6823.461" enable-background="new 0 0 9744.011 6823.461"
	 xml:space="preserve">
<g transform="scale(1.0)">
	<g id="_x31_80609170" transform=" scale(1.0, 1.0)">
		<path id="_x31_80609172" fill="none" stroke="#000000" stroke-width="80" d="M6452.764,3209.308
			c73.089,214.506-1.108,495.977-42.056,712.946c-20.375,107.909-62.995,177.173-105.92,269.896
			c-73.545,158.843-148.305,319.872-228.372,471.598c-74.538,141.244-164.403,309.745-270.661,411.984
			c-88.837,85.478-202.287,183.069-316.447,175.646c-222.074-14.423-439.521-197.891-503.023-478.406
			c-60.273-266.215-30.475-605.188-13.798-878.785c7.534-123.586,38.911-243.997,67.026-362.021
			c77.217-324.177,56.881-795.548,339.268-950.948c176.258-96.999,387.261-59.673,562.436,21.832
			c118.559,55.157,192.524,140.695,288.003,243.063C6314.917,2937.997,6404.054,3066.315,6452.764,3209.308z"/>
		<path id="_x31_80609173" fill="none" stroke="#000000" stroke-width="80" d="M6452.76,3209.286
			c-48.712-142.982-137.849-271.298-223.547-363.179c-95.475-102.37-169.438-187.9-288.003-243.059
			c-175.164-81.498-386.169-118.817-562.432-21.824c-282.385,155.407-262.043,626.76-339.264,950.929
			c-28.107,118.023-59.489,238.429-67.018,362.015c-16.668,273.593-46.466,612.554,13.809,878.762
			c63.504,280.503,280.943,463.966,503.018,478.387c114.175,7.422,227.611-90.175,316.448-175.648
			c106.261-102.235,196.12-270.735,270.653-411.977c80.071-151.721,154.822-312.747,228.377-471.591
			c42.921-92.72,85.539-161.98,105.914-269.886C6451.661,3705.248,6525.854,3423.785,6452.76,3209.286z M5787.388,3585.829
			c-15.752,26.444-17.109,67.483-27.383,98.614c-20.761,62.869-43.035,131.624-47.488,200.139
			c-1.443,22.297,3.537,78.53-12.635,92.613c-33.691,29.334-23.184-52.393-20.471-70.314c7.131-47.223,6.468-95.076,14.119-142.142
			c10.156-62.392,9.443-122.519,3.469-182.552c-4.609-46.216-17.851-91.615-28.248-136.111
			c-2.647-11.304-15.527-45.777-9.861-57.875c11.857-25.303,37.976,6.069,48.082,19.48c21.951,29.124,34.127,51.562,64.787,66.31
			c15.801,7.602,50.489,14.669,56.129,40.694C5835.235,3548.748,5799.698,3565.152,5787.388,3585.829z"/>
		<path id="_x31_80609174" fill="none" stroke="#000000" stroke-width="80" d="M6452.76,3209.286
			c-48.712-142.982-137.849-271.298-223.547-363.179c-95.475-102.37-169.438-187.9-288.003-243.059
			c-175.164-81.498-386.169-118.817-562.432-21.824c-282.385,155.407-262.043,626.76-339.264,950.929
			c-28.107,118.023-59.489,238.429-67.018,362.015c-16.668,273.593-46.466,612.554,13.809,878.762
			c63.504,280.503,280.943,463.966,503.018,478.387c114.175,7.422,227.611-90.175,316.448-175.648
			c106.261-102.235,196.12-270.735,270.653-411.977c80.071-151.721,154.822-312.747,228.377-471.591
			c42.921-92.72,85.539-161.98,105.914-269.886C6451.661,3705.248,6525.854,3423.785,6452.76,3209.286z M5787.388,3585.829
			c-15.752,26.444-17.109,67.483-27.383,98.614c-20.761,62.869-43.035,131.624-47.488,200.139
			c-1.443,22.297,3.537,78.53-12.635,92.613c-33.691,29.334-23.184-52.393-20.471-70.314c7.131-47.223,6.468-95.076,14.119-142.142
			c10.156-62.392,9.443-122.519,3.469-182.552c-4.609-46.216-17.851-91.615-28.248-136.111
			c-2.647-11.304-15.527-45.777-9.861-57.875c11.857-25.303,37.976,6.069,48.082,19.48c21.951,29.124,34.127,51.562,64.787,66.31
			c15.801,7.602,50.489,14.669,56.129,40.694C5835.235,3548.748,5799.698,3565.152,5787.388,3585.829z"/>
		<path id="_x31_80609175" fill="none" stroke="#000000" stroke-width="80" d="M6452.764,3209.293
			c-48.71-142.989-137.847-271.303-223.545-363.185c-8.968-9.611,18.138,140.737,8.126,211.137
			c-9.666,67.983-0.236,290.322-61.328,302.446c-23.08,4.584-99.139,35.359-157.092,53.999l-21.653,7.346
			c-29.563,5.978-100.261,28.679-125.927,32.479c-57.48,8.506-108.379,16.73-146.531-71.214
			c-33.962-78.312-54.587-191.912-47.718-248.526l5.161-67.975c10.401-100.065,26.233-196.921,35.361-243.497
			c12.014-61.278,41.867-117.027,49.68-179.124c3.875-30.811,8.213-70.99-13.566-90.205
			c-37.015-32.666-134.311-30.667-185.098-26.987c-65.238,4.725-129.525,22.028-189.85,55.228
			c-282.383,155.402-262.049,626.764-339.268,950.931c-28.109,118.023-59.491,238.429-67.025,362.016
			c-16.674,273.592-46.472,612.551,13.805,878.765c63.504,280.505,280.947,463.972,503.021,478.392
			c114.162,7.423,227.61-90.17,316.448-175.645c106.261-102.235,196.119-270.735,270.659-411.975
			c80.064-151.72,154.822-312.747,228.371-471.59c42.921-92.721,85.543-161.984,105.912-269.888
			C6451.661,3705.254,6525.853,3423.793,6452.764,3209.293z M5699.882,3977.195c-33.691,29.334-23.184-52.393-20.469-70.314
			c7.129-47.223,6.466-95.076,14.117-142.142c10.156-62.392,9.443-122.519,3.469-182.552
			c-4.607-46.216-17.851-91.615-28.248-136.111c-2.647-11.304-15.527-45.777-9.861-57.875c11.857-25.303,37.976,6.069,48.083,19.48
			c21.952,29.124,34.126,51.562,64.786,66.31c15.801,7.602,50.491,14.669,56.129,40.694c7.348,34.062-28.193,50.467-40.5,71.143
			c-15.752,26.445-17.109,67.483-27.383,98.615c-20.761,62.868-43.035,131.623-47.488,200.138
			C5711.073,3906.879,5716.054,3963.113,5699.882,3977.195z M5951.503,3635.271c-9.98,56.875-22.117,113.088-37.699,167.843
			c-21.783,76.516-25.882,156.838-39.745,235.854c-6.203,35.351-13.104,86.854-42.7,100.292
			c-21.701,9.848-57.121,9.847-77.794-26.705c-25.854-45.707,1.519-144.921,10.622-193.039
			c17.341-91.728,40.267-183.33,70.753-269.232c12.942-36.478,78.478-200.133,123.724-139.502
			C5976.39,3534.596,5956.308,3607.924,5951.503,3635.271z"/>
		<path id="_x31_80609180" fill="none" stroke="#000000" stroke-width="80" d="M6435.242,3798.424
			c21.914-109.875,43.919-228.549,47.815-342.766c1.035-33.228,0.57-66.549-1.779-99.953
			c-3.893-50.996-12.793-100.206-28.508-146.318c-1.402-4.122-2.844-8.229-4.312-12.326c-3.782-4.476-8.067-7.383-12.945-8.109
			c-3.865,11.207-6.499,23.021-8.26,35.264c0.065,6.423,0.078,12.972,0.078,19.68c0-6.708-0.013-13.257-0.078-19.68
			c-9.186,63.851,5.52,139.428-5.225,202.254c-9.643,56.396-31.877,104.448-51.645,154.618
			c-20.973,53.239-19.118,128.102-29.131,192.317c-6.867,44.059-19.318,83.111-48.557,106.724
			c-35.243,28.454-59.096,85.397-76.863,132.278c-21.832,57.6-10.193,116.778-14.916,177.253
			c-6.162,79.048-49.686,143.19-77.233,211.13c-18.616,45.881-43.649,87.492-64.985,130.98
			c-21.654,44.137-30.495,96.171-48.854,142.382c-19.85,49.924-43.252,106.48-73.758,147.036
			c-66.488,88.365-147.592,167.089-232.134,224.862c-80.755,55.195-193.081,120.025-269.161,17.742
			c-45.986-61.825-72.891-132.415-96.333-212.771c-29.007-99.451-34.935-206.627-57.911-308.207
			c-11.504-50.806-47.738-86.411-51.266-142.048c-3.473-54.663,9.942-111.095,0.046-164.615
			c-24.905-134.665-35.169-256.825-15.591-395.199c11.469-81.052-6.799-170.841,1.597-254.595
			c8.067-80.587,1.492-160.711,17.601-240.873c11.264-56.079,23.699-112.16,34.945-167.806
			c20.299-100.498,38.902-207.773,74.532-301.645c22.163-58.375,39.169-123.722,85.599-157.462
			c21.6-15.688,44.179-10.002,65.814-20.865c24.503-12.308,37.438-46.292,56.259-67.592c14.866-16.842,34.21-23.001,51.841-34.447
			c21.312-13.843,44.556-21.583,68.482-20.396c8.656,0.43,27.938,11.122,42.941,12.21c-5.338-2.947-11.189-5.624-17.582-8.029
			c6.393,2.405,12.244,5.083,17.582,8.029c8.922,0.647,16.334-2.1,19.097-12.424c9.86-36.833-57.011-48.258-104.358-51.333
			c-52.343-1.236-104.44,4.438-154.881,18.835c-27.701,8.048-54.906,18.55-80.844,31.646c-1.018,0.516-2.036,1.034-3.053,1.558
			c-1.135,0.584-2.27,1.171-3.4,1.767c-2.378,1.252-4.753,2.517-7.115,3.819c-1.832,1.008-3.643,2.038-5.447,3.072
			c-1.133,0.649-2.258,1.304-3.377,1.964c-0.295,0.172-0.586,0.347-0.881,0.521c-193.519,115.041-247.19,409.708-256.721,661.852
			c-6.773,178.928-45.75,362.436-71.844,538.663c-38.804,262.082-4.016,566.4,71.004,813.383
			c32.659,107.568,53.136,223.609,81.605,332.905c25.943,99.567,51.006,189.386,127.872,242.265
			c38.163,26.262,81.018,39.308,122.655,52.85c136.219,44.286,258.07-53.081,362.108-153.162
			c106.257-102.229,196.122-270.72,270.653-411.951c80.071-151.713,154.83-312.729,228.371-471.562
			c42.923-92.715,85.553-161.97,105.916-269.872c0.486-2.575,0.979-5.161,1.475-7.754
			C6419.528,3876.02,6427.444,3837.315,6435.242,3798.424z"/>
		<path id="_x31_80609176" fill="none" stroke="#000000" stroke-width="80" d="M5719.933,2811.603
			c-7.47-15.356-13.997-29.829-28.217-40.369c-45.371-33.622-97.012-6.829-129.781,39.061
			c-11.016,15.424-19.896,33.01-25.707,51.179c-49.416,154.647-104.638,314.581-79.584,487.228
			c12.569,86.645,27.96,156.456,24.639,245.026c-2.414,64.56,1.148,132.063-6.606,196.275
			c-13.886,114.919-26.938,230.385-31.638,346.629c-3.693,91.355,11.672,180.582,22.4,270.274
			c18.591,155.435,19.762,456.628,203.336,392.027c77.434-27.254,154.825-55.765,209.54-136.743
			c46.011-68.085,76.638-151.189,99.575-235.985c41.414-153.091,54.135-316.763,99.545-467.938
			c48.955-162.938,124.596-309.203,180.73-467.765c32.646-92.216,70.965-225.145,14.541-315.051
			c-10.211-16.275-15.523-32.793-40.718-37.841c-6.864,78.953-5.913,214.453-55.972,222.082
			c-17.964,2.736-86.016,29.212-120.49,40.365c15.175,18.909,11.586,22.73,13.098,27.771c7.729,25.787-57.838,95.555-63.984,116.386
			c-6.324,21.406-4.693,48.068-15.228,67.107c-4.606,8.312-24.458,31.508-30.759-11.191c-17.02,66.586-13.616,61.117-16.428,84.626
			c-4.889,40.803-17.395,79.623-28.413,118.357c-21.784,76.52-25.884,156.838-39.747,235.856
			c-4.23,24.09-8.352,51.184-17.549,73.016c-9.195,21.818-25.029,38.3-36.422,58.09c-9.958,17.294-19.064,38.638-31.369,53.301
			c-33.648,40.074-58.612,191.187-103.348,62.767c-20.387-58.528-29.145-128.182-25.951-191.964c0,0,0.287-45.726,40.453-117.033
			c-31.147,29.482-23.174-52.395-20.473-70.318c7.133-47.225,6.472-95.087,14.123-142.148
			c10.156-62.396,9.443-122.529,3.463-182.564c-4.604-46.217-17.845-91.62-28.25-136.117c-2.646-11.305-15.523-45.783-9.857-57.879
			c11.861-25.309,37.974,6.07,48.205,19.362c-10.003-16.487-18.002-30.616-24.305-49.967c-6.109-18.766-17.291-78.168-13.097-58.629
			c1.894,8.796-12.005-98.139-4.92-144.518c0,0,4.7-74.938,18.759-100.551C5691.27,2951.196,5719.933,2811.603,5719.933,2811.603z"
			/>
		<path id="_x31_80609177" fill="none" stroke="#000000" stroke-width="80" d="M5574.981,2753.944
			c-66.258,69.853-99.52,192.062-132.615,290.686c-40.43,120.502-25.008,250.987-7.014,375.763
			c17.051,118.23,31.119,265.529,4.65,382.928c-25.965,115.156-35.48,238.642-39.325,359.729
			c-2.628,82.406,20.042,164.804,21.817,248.473c2.668,125.793,15.569,260.874,65.22,372.854
			c48.03,108.325,155.413,100.445,232.804,58.463c63.574-34.48,139.158-80.754,181.952-153.649
			c13.005-22.159,23.302-47.797,32.493-72.378c9.441-25.245,20.641-48.129,29.123-73.58c20.727-62.169,38.197-132.53,53.878-197.335
			c37.304-154.198,57.247-317.104,117.197-460.706c30.64-73.365,69.203-140.724,99.062-214.661
			c25.052-62.051,30.973-128.988,46.798-195.38c14.229-59.678,38.62-104.319,36.72-170.175c-0.861-30.216-9.001-77.049,0.656-107.53
			c-14.152-24.051-45.177-31.892-63.68-51.091c-0.152-0.159-0.306-0.342-0.457-0.508c-0.328,0.602-0.639,1.211-0.936,1.829
			c8.553,7.494,13.016,17.728,19.381,27.872c56.428,89.901,18.107,222.822-14.542,315.031
			c-56.144,158.556-131.781,304.811-180.736,467.735c-45.411,151.172-58.126,314.834-99.541,467.911
			c-22.944,84.79-58.454,173.353-104.47,241.431c-54.717,80.977-127.209,104.024-204.649,131.271
			c-183.581,64.599-184.738-236.579-203.331-391.997c-10.727-89.689-26.086-178.91-22.398-270.265
			c4.698-116.237,17.751-231.692,31.644-346.605c7.743-64.208,4.192-131.709,6.601-196.27
			c3.328-88.565-12.065-158.368-24.637-245.012c-25.056-172.633,30.166-332.562,79.584-487.2
			c5.807-18.163,14.697-35.749,25.711-51.172c32.766-45.887,84.41-72.679,129.777-39.059c1.749,1.296,3.38,2.653,4.912,4.062
			c2.281-7.252,3.047-15.9,2.777-24.458c-15.334-10.286-32.264-28.966-49.812-38.512
			C5632.163,2730.445,5592.87,2735.083,5574.981,2753.944z"/>
		<path id="_x31_80609178" fill="none" stroke="#000000" stroke-width="80" d="M6318.401,3197.444
			c1.247-3.941,2.781-7.623,4.68-10.945c7.246-12.689,26.827,101.708,25.916,113.418c-7.512,95.378-48.17,182.997-63.982,276.121
			c-10.146,59.713-30.248,107.794-53.518,160.063c-19.842,44.566-44.012,86.788-60.631,133.57
			c-19.375,54.609-33.447,115.774-47.377,172.721c-19.519,79.797-37.58,160.084-58.076,239.502
			c-33.895,131.301-70.767,268.098-125.096,387.958c-31.068,68.578-84.763,129.724-139.814,164.622
			c-46.457,29.441-120.479,68.2-172.072,70.369c-80.96,3.404-130.281-25.518-167.59-120.482
			c-61.279-155.937-66.432-342.983-79.641-514.371c-8.246-107.156-3.32-215.377,6.66-322.046
			c8.68-92.766,31.034-175.812,34.079-269.745c3.069-94.337-15.929-186.232-21.948-279.715
			c-6.998-108.572-11.311-219.102,7.611-326.195c15.311-86.675,54.695-147.215,87.607-223.385
			c28.482-65.935,87.54-188.458,161.725-148.555c-1.426,4.659-3.979,8.622-7.338,12.092c-17.434,18.003-56.727,22.642-74.615,41.502
			c-66.258,69.853-99.52,192.062-132.615,290.687c-40.43,120.502-25.008,250.987-7.014,375.762
			c17.051,118.231,31.119,265.53,4.65,382.927c-25.965,115.158-35.48,238.644-39.325,359.731
			c-2.626,82.406,20.042,164.804,21.817,248.473c2.668,125.793,15.569,260.874,65.22,372.854
			c48.03,108.325,155.413,100.445,232.804,58.463c63.574-34.48,139.158-80.754,181.952-153.649
			c13.005-22.159,23.302-47.797,32.493-72.378c9.441-25.245,20.641-48.129,29.123-73.58c20.727-62.169,38.197-132.53,53.878-197.335
			c37.304-154.198,57.247-317.104,117.197-460.706c30.64-73.365,69.203-140.724,99.062-214.661
			c25.052-62.051,30.973-128.988,46.798-195.38c14.229-59.678,38.62-104.319,36.72-170.175
			C6316.881,3274.759,6308.744,3227.926,6318.401,3197.444z"/>
		<path id="_x31_80609179" fill="none" stroke="#000000" stroke-width="80" d="M6254.261,3145.847
			c-25.055-27.398-45.441-164.144-11.766-190.347c23.792-18.487,55.801,25.146,74.438,40.19
			c31.991,25.821,71.412,65.191,90.247,108.936c16.862,39.161,19.637,76.443,20.073,119.59
			c-9.186,63.851,5.52,139.428-5.225,202.253c-9.643,56.396-31.877,104.449-51.645,154.619
			c-20.973,53.239-19.118,128.102-29.131,192.316c-6.867,44.06-19.318,83.111-48.557,106.725
			c-35.243,28.454-59.096,85.396-76.863,132.277c-21.832,57.601-10.193,116.778-14.916,177.253
			c-6.162,79.049-49.686,143.191-77.233,211.13c-18.616,45.881-43.649,87.492-64.985,130.982
			c-21.654,44.136-30.495,96.169-48.854,142.38c-19.85,49.925-43.252,106.48-73.758,147.036
			c-66.488,88.365-147.592,167.089-232.134,224.862c-80.755,55.196-193.081,120.026-269.161,17.742
			c-45.986-61.825-72.891-132.415-96.333-212.771c-29.007-99.45-34.935-206.625-57.911-308.207
			c-11.504-50.805-47.738-86.41-51.266-142.048c-3.473-54.662,9.942-111.095,0.046-164.615
			c-24.905-134.664-35.169-256.825-15.591-395.199c11.469-81.052-6.799-170.84,1.597-254.595
			c8.067-80.586,1.492-160.71,17.601-240.873c11.264-56.077,23.699-112.16,34.945-167.805
			c20.299-100.499,38.902-207.774,74.532-301.646c22.163-58.374,39.169-123.721,85.599-157.462
			c21.6-15.688,44.179-10.001,65.814-20.864c24.503-12.309,37.438-46.292,56.259-67.593c14.866-16.841,34.21-23.001,51.841-34.447
			c21.312-13.843,44.556-21.582,68.482-20.396c8.656,0.431,27.938,11.123,42.941,12.211c45.952,25.371,53.335,71.029,30.944,139.606
			c-11.903,36.418-27.351,35.632-44.884,23.866c-15.334-10.286-32.264-28.967-49.812-38.512c3.36-3.47,5.912-7.434,7.338-12.093
			c-74.185-39.901-133.24,82.621-161.725,148.556c-32.912,76.17-72.299,136.71-87.607,223.386
			c-18.922,107.093-14.609,217.62-7.609,326.193c6.018,93.482,25.018,185.38,21.946,279.716
			c-3.045,93.933-25.399,176.979-34.079,269.745c-9.98,106.669-14.906,214.89-6.66,322.045
			c13.208,171.39,18.361,358.437,79.643,514.372c37.307,94.965,86.629,123.887,167.588,120.482
			c51.594-2.169,125.615-40.927,172.072-70.37c55.052-34.898,108.746-96.044,139.814-164.621
			c54.329-119.86,91.201-256.658,125.096-387.958c20.498-79.419,38.558-159.706,58.076-239.503
			c13.93-56.945,28.002-118.11,47.377-172.72c16.621-46.782,40.789-89.005,60.631-133.571c23.27-52.268,43.371-100.35,53.52-160.062
			c15.811-93.125,56.469-180.744,63.982-276.122c0.909-11.71-18.672-126.108-25.918-113.418c-1.898,3.322-3.429,7.004-4.678,10.946
			c-14.156-24.05-45.181-31.892-63.684-51.091C6254.565,3146.194,6254.414,3146.013,6254.261,3145.847z"/>
		<path id="_x31_80609181" fill="none" stroke="#000000" stroke-width="80" d="M6000.118,3397.244
			c-29.564,5.975-61.568,20.186-87.238,23.984c-57.48,8.507-125.391,53.938-163.541-34.012
			c-33.966-78.312-60.724-193.138-53.848-249.754l0.969-68.815c10.397-100.06,30.427-196.078,39.555-242.656
			c10.312-52.643,33.66-99.111,46.229-150.773c5.067-20.811,9.967-46.234,10.744-68.119c0.314-8.947-5.434-58.007-14.118-58.938
			c54.933,5.89,110.481,31.397,162.351,54.89c112.633,51.005,195.664,143.776,264.757,218.058
			c-2.726,48.553,23.937,154.122,13.921,224.519c-9.666,67.983-0.23,290.326-61.33,302.447
			c-23.072,4.583-78.837,23.186-136.787,41.821L6000.118,3397.244z"/>
		<path id="_x31_80609183" fill="none" stroke="#000000" stroke-width="80" d="M5940.554,2605.188
			c12.484,5.858,24.84,12.233,37.195,18.379c17.566,8.744,33.752,18.771,50.527,29.16c20.423,12.65,36.148,19.557,52.43,39.651
			c19.311,23.839,43.277,41.526,62.673,65.942c16.166,20.346,15.033,51.494,10.761,78.619
			c-11.051,70.16-72.236,87.707-117.725,97.18c-37.766,7.868-76.902,21.1-115.091,10.134
			c-48.802-14.008-102.296-20.504-130.595-81.422c-16.311-35.116-39.326-71.916-29.586-115.364
			c8.798-39.209,27.99-80.46,29.055-121.803c0.604-23.648-6.809-50.481,15.666-59.759c18.723-7.735,42.84-0.52,61.195,5.79
			C5891.629,2580.146,5916.569,2593.937,5940.554,2605.188z"/>
		<path id="_x31_80609182" fill="none" stroke="#000000" stroke-width="80" d="M5912.886,3421.232
			c-57.486,8.506-125.396,53.934-163.541-34.013c-53.685-123.746-89.344-338.707-2.752-270.977
			c45.568,35.645,72.045,91.848,127.703,107.27c66.424,18.412,144.529-3.021,211.492-9.562c21.334-2.082,46.403-10.247,65.584,6.754
			c22.188,19.674,23.622,66.01,22.934,96.938c-0.442,19.667-10.758,27.951-24.451,32.405c-38.945,12.676-79.96,23.945-119.611,36.54
			C5991.352,3398.947,5952.805,3415.331,5912.886,3421.232z"/>
		<path id="_x31_80609184" fill="none" stroke="#000000" stroke-width="80" d="M6210.468,3189.94
			c-7.131-62.715-114.016-34.336-158.44-23.968c-49.049,11.449-99.034,16.889-148.171,2.916
			c-33.113-9.418-70.132-21.811-100.677-40.886c-27.837-17.383-78.858-108.998-105.104-78.708c0,0-0.095-94.216,25.565-167.423
			c27.767,49.1,55.33,77.818,92.531,101.122c49.393,30.948,128.098,44.494,182.035,52.725
			c60.857,9.287,123.528-28.349,181.642-48.878c37.426-13.219,45.935,7.631,41.507,45.276
			C6215.508,3082.023,6210.468,3189.94,6210.468,3189.94z"/>
		<path id="_x31_80609185" fill="none" stroke="#000000" stroke-width="80" d="M5753.564,4112.553
			c-25.854-45.705,1.519-144.92,10.622-193.038c17.341-91.728,40.267-183.33,70.753-269.231
			c12.942-36.479,78.478-200.134,123.724-139.503c17.727,23.815-2.355,97.144-7.16,124.491
			c-9.98,56.875-22.117,113.088-37.699,167.843c-21.783,76.516-25.882,156.838-39.745,235.854
			c-6.203,35.351-13.104,86.854-42.7,100.292C5809.653,4149.107,5774.237,4149.106,5753.564,4112.553z"/>
		<path id="_x31_80609186" fill="none" stroke="#000000" stroke-width="80" d="M5753.564,4112.553
			c-25.854-45.705,1.519-144.92,10.622-193.038c17.341-91.728,40.267-183.33,70.753-269.231
			c12.942-36.479,78.478-200.134,123.724-139.503c17.727,23.815-2.355,97.144-7.16,124.491
			c-9.98,56.875-22.117,113.088-37.699,167.843c-21.783,76.516-25.882,156.838-39.745,235.854
			c-6.203,35.351-13.104,86.854-42.7,100.292C5809.653,4149.107,5774.237,4149.106,5753.564,4112.553z"/>
		<path id="_x31_80609188" fill="none" stroke="#000000" stroke-width="80" d="M5707.091,3407.566
			c11.691,19.294,24.994,37.07,40.4,50.341c7.434,6.412,15.885,12.052,24.268,16.086c15.801,7.602,50.491,14.669,56.129,40.694
			c7.348,34.062-28.193,50.467-40.5,71.143c-15.75,26.445-17.109,67.482-27.383,98.614
			c-20.761,62.869-43.035,131.624-47.488,200.139c-0.63,9.683-0.047,25.776-0.51,42.027l-0.619,10.103
			c-7.219,60.289-48.462,87.676-51.963,157.509c-3.197,63.778,5.559,133.425,25.958,191.957
			c44.732,128.413,69.692-22.695,103.343-62.767c8.507-10.124,51.795-93.809,59.475-96.238
			c-24.009,22.729-73.701,26.745-94.636-14.576c-23.987-47.369,1.521-144.912,10.622-193.028
			c17.346-91.723,40.271-183.319,70.756-269.217c12.949-36.473,77.309-198.615,123.717-139.504
			c21.78,27.739-15.055,109.521,13.152,113.789c23.467,3.545,26.16-59.298,32.432-77.368
			c15.768-45.358,111.957-127.869,38.439-150.069c-37.445-11.306-90.909,18.358-129.797,24.116
			c-57.482,8.501-125.389,53.932-163.541-34.013c-53.677-123.739-89.344-338.688-2.755-270.962
			c45.581,35.644,72.056,91.841,127.71,107.268c66.428,18.411,144.541-3.021,211.491-9.562
			c39.097-3.823,70.161-13.756,85.236,43.211c12.718,48.041-5.286,125.772-9.608,175.896
			c-10.119,117.438-47.928,210.867-87.018,316.412c-36.668,99.018-71.359,193.336-99.415,292.764
			c-36.541,129.511-65.585,266.392-111.542,420.283c-9.428,31.581-38.609,123.135-3.322,106.989
			c39.83-18.23,77.498-175.221,86.471-220.131c57.391-287.118,152.557-525.555,229.625-794.732
			c36.045-125.909,47.249-250.423,34.254-364.705c-7.133-62.711-114.015-34.332-158.438-23.962
			c-49.053,11.449-99.032,16.884-148.175,2.91c-33.105-9.412-70.128-21.809-100.669-40.882
			c-27.843-17.382-61.399-80.06-92.65-82.653c-45.448-3.775-38.863,63.814-45.765,109.025c-7.084,46.367,6.82,153.305,4.928,144.505
			c-4.197-19.54,6.979,39.859,13.09,58.623C5689.091,3376.948,5697.085,3391.07,5707.091,3407.566z"/>
		<path id="_x31_80609189" fill="none" stroke="#000000" stroke-width="80" d="M5443.661,5228.822
			c-41.636-13.542-84.492-26.587-122.655-52.85c-76.866-52.879-101.929-142.698-127.872-242.265
			c-28.47-109.296-48.946-225.337-81.605-332.905c-75.02-246.981-109.808-551.301-71.004-813.383
			c26.094-176.229,65.07-359.736,71.844-538.663c9.53-252.143,63.202-546.811,256.721-661.852
			c-272.205,160.78-253.25,624.932-329.566,945.318c-28.109,118.018-59.49,238.416-67.031,361.99
			c-16.674,273.579-46.474,612.521,13.805,878.714c63.502,280.493,280.953,463.949,503.029,478.371
			c114.154,7.419,227.603-90.167,316.444-175.638C5701.731,5175.74,5579.88,5273.109,5443.661,5228.822z"/>
		<path id="_x31_80609187" fill="none" stroke="#000000" stroke-width="80" d="M5696.999,3582.187
			c-4.609-46.215-17.851-91.614-28.25-136.11c-2.646-11.304-15.525-45.779-9.859-57.876c11.855-25.302,37.974,6.069,48.082,19.481
			c21.951,29.123,34.127,51.562,64.787,66.309c15.801,7.602,50.487,14.67,56.129,40.694c7.348,34.063-28.195,50.468-40.502,71.144
			c-15.75,26.445-17.107,67.482-27.381,98.613c-20.762,62.87-43.035,131.624-47.49,200.14c-1.441,22.297,3.537,78.53-12.635,92.613
			c-33.691,29.333-23.184-52.393-20.469-70.314c7.129-47.223,6.468-95.077,14.119-142.142
			C5703.687,3702.347,5702.974,3642.221,5696.999,3582.187z"/>
	</g>
</g>
</svg>
