<?xml version="1.0" encoding="utf-8"?>
<!-- Generator: Adobe Illustrator 16.0.0, SVG Export Plug-In . SVG Version: 6.00 Build 0)  -->
<!DOCTYPE svg PUBLIC "-//W3C//DTD SVG 1.1//EN" "http://www.w3.org/Graphics/SVG/1.1/DTD/svg11.dtd">
<svg version="1.1" id="Layer_1" xmlns="http://www.w3.org/2000/svg" xmlns:xlink="http://www.w3.org/1999/xlink" x="0px" y="0px"
	 width="9744.01px" height="6823.46px" viewBox="0 0 9744.01 6823.46" enable-background="new 0 0 9744.01 6823.46"
	 xml:space="preserve">
<g transform="scale(1.0)">
	<g id="_x31_80623432" transform=" scale(1.0, 1.0)">
		<path id="_x31_80623434" fill="none" stroke="#010101" stroke-width="64" d="M4919.428,5467.67
			c70.099,3.502,152.367,59.27,212.148,92.268c75.262,41.547,147.965,87.58,221.824,131.574
			c57.429,34.198,117.522,70.621,167.449,115.726c60.408,54.61,115.924,120.417,166.604,184.623
			c40.578,51.419,92.495,92.389,142.725,134.501c108.992,91.375,233.09,178.605,371.402,216.534
			c140.473,38.522,258.465-8.081,389.92-54.2c169.553-59.48,340.768-142.363,475.871-263.425
			c130.471-116.914,200.965-278.672,282.176-430.593c91.822-171.784,267.113-290.416,394.875-434.803
			c47.672-53.877,103.238-99.719,152.221-152.526c106.17-114.479,189.957-278.786,257.012-419.125
			c74.281-155.454,130.453-319.084,180.705-483.822c123.807-405.885,229.113-861.9,180.174-1286.857
			c-10.617-92.198-16.057-178.047-33.422-269.831c-13.658-72.129-31.869-133.585-60.291-200.885
			c-20.648-48.909-37.461-98.757-68.15-142.718c-65.061-93.191-121.711-194.143-198.055-278.835
			c-153.363-170.135-292.545-350.297-488.236-474.174c-150.713-95.407-305.686-198.468-472.758-261.393
			c-163.428-61.555-335.871-96.433-507.076-127.742c-228.043-41.703-459.544-64.642-688.041-103.832
			c-197.381-33.862-404.257-48.36-604.664-39.71c-212.389,9.175-474.138,92.212-496.33,349.051
			c0.637,157.136,5.107,1259.336,5.5,1355.769L4919.428,5467.67z"/>
		<path id="_x31_80623435" fill="none" stroke="#010101" stroke-width="64" d="M7406.227,5506.944
			c96.471-127.427,233.338-228.577,338.193-347.069c47.674-53.879,103.24-99.721,152.223-152.529
			c106.17-114.479,189.953-278.785,257.01-419.129c74.283-155.449,130.453-319.082,180.707-483.818
			c123.807-405.885,229.113-861.9,180.17-1286.857c-10.613-92.2-16.053-178.045-33.42-269.832
			c-13.656-72.129-31.871-133.583-60.289-200.882c-20.65-48.912-37.463-98.76-68.15-142.72
			c-65.061-93.192-121.711-194.144-198.055-278.834c-153.365-170.136-292.547-350.299-488.236-474.177
			c-150.715-95.408-305.686-198.469-472.762-261.392c-163.428-61.555-335.869-96.434-507.072-127.741
			c-228.043-41.705-459.547-64.641-688.041-103.831c-197.381-33.863-404.257-48.362-604.664-39.709
			c-212.389,9.172-474.13,92.21-496.331,349.048c0.638,157.139,5.108,1259.337,5.499,1355.771
			c209.718,1.732,405.135-61.048,568.51-194.227c40.945-33.373,77.423-71.372,112.59-110.84
			c33.839-37.989,59.91-92.819,99.043-124.627c72.381-58.816,207.262-57.064,293.605-43.719
			c41.525,6.416,79.18,17.741,120.779,26.74c307.564,66.526,627.477,196.342,868.086,409.078
			c144.834,128.06,240.971,236.933,339.869,406.805c45.365,77.918,68.195,180.169,89.209,263.961
			c56.18,224.006,88.324,487.13,60.738,717.814c-13.17,110.098-27.377,220.154-48.764,328.996
			c-8.271,42.1-27.043,210.645-80.607,226.63c-36.975,84.465-98.617,162.733-165.08,229.425
			c-99.74,100.1-145.342,195.51-181.957,319.084c-47.256,159.49-97.508,302.85,109.68,345.211
			c75.965,15.529,174.654,20.242,225.533,37.118C7344.502,5470.724,7386.119,5484.516,7406.227,5506.944z"/>
		<path id="_x31_80623499" fill="none" stroke="#010101" stroke-width="64" d="M6629.088,1051.884l-17.178,123.314
			c-79.072-11.617-158.348-18.58-236.627-21.05c-124.896-3.937-239.825-46.811-360.807-72.804
			c-77.729-16.732-156.834-37.499-236.617-56.585l-3.543-91.802l0.359-4.423c75.348,7.056,150.255,16.937,223.812,29.571
			C6207.824,994.071,6419.674,1016.299,6629.088,1051.884z"/>
		<path id="_x31_80623498" fill="none" stroke="#010101" stroke-width="64" d="M6611.91,1175.198l-45.441,326.444
			c-5.885-0.827,0,0,0,0c-34.721-10.366-164.441-48.904-198.855-59.809c-215.211-68.196-368.807-163.211-581.906-214.87
			l-7.848-202.206c79.779,19.087,158.887,39.855,236.615,56.587c120.982,25.991,235.91,68.867,360.807,72.802
			C6453.562,1156.618,6532.838,1163.581,6611.91,1175.198z"/>
		<path id="_x31_80623497" fill="none" stroke="#010101" stroke-width="64" d="M6566.469,1501.642l-51.75,372.229
			c-224.381-76.316-507.943-140.167-711.624-197.357l-17.387-449.549c213.097,51.659,366.694,146.673,581.905,214.87
			c34.414,10.903,68.982,21.347,103.701,31.713C6502.934,1482.94,6534.699,1492.253,6566.469,1501.642z"/>
		<path id="_x31_80623496" fill="none" stroke="#010101" stroke-width="64" d="M6514.719,1873.871l-47.791,343.388
			c-136.238-62.533-280.946-108.551-426.606-147.625c-61.79-16.574-114.745-34.182-182.799-49.126
			c-12.851-2.841-26.917-6.057-41.511-8.888l-12.917-335.107C6006.775,1733.706,6290.338,1797.555,6514.719,1873.871z"/>
		<path id="_x31_80623495" fill="none" stroke="#010101" stroke-width="64" d="M6466.928,2217.257l-9.025,64.937l-0.826,2.14
			c-118.116-46.367-239.74-81.813-359.514-107.736c-41.659-9.041-79.254-20.388-120.828-26.757
			c-43.996-6.818-100.521-10.604-155.044-4.869l-0.788-7.316l-4.891-126.036c14.592,2.832,28.66,6.049,41.511,8.89
			c68.052,14.944,121.009,32.552,182.796,49.126C6185.981,2108.709,6330.689,2154.726,6466.928,2217.257z"/>
		<path id="_x31_80623504" fill="none" stroke="#010101" stroke-width="64" d="M5774.313,932.957l3.546,91.8
			c-134.832-32.26-271.684-59.783-407.121-55.132c-290.361,10.003-342.369,281.951-349.692,525.331l-123.064-111.625
			c-0.218-53.533-0.381-93.874-0.472-115.836c22.227-256.869,283.961-339.875,496.366-349.068
			c125.686-5.446,253.907-1.751,380.8,10.107L5774.313,932.957z"/>
		<path id="_x31_80623503" fill="none" stroke="#010101" stroke-width="64" d="M5777.859,1024.757l7.849,202.206
			c-15.353-3.744-31.081-7.255-47.109-10.539c-129.292-26.262-359.347-140.529-463.636-19.418
			c-93.617,108.789-80.73,305.559-72.162,462.768l-181.755-164.818c7.323-243.379,59.331-515.328,349.691-525.328
			C5506.176,964.974,5643.027,992.497,5777.859,1024.757z"/>
		<path id="_x31_80623502" fill="none" stroke="#010101" stroke-width="64" d="M5785.708,1226.965l17.387,449.549
			c-19.062-5.327-37.513-10.582-55.065-15.841c-93.867-28.023-288.207-109.66-358.387,1.996
			c-24.621,39.233-29.551,89.968-26.24,142.723l-160.602-145.619c-8.568-157.209-21.455-353.977,72.162-462.766
			c104.289-121.111,334.344-6.845,463.636,19.417C5754.627,1219.708,5770.355,1223.218,5785.708,1226.965z"/>
		<path id="_x31_80623501" fill="none" stroke="#010101" stroke-width="64" d="M5803.095,1676.514l12.917,335.105
			c-44.379-8.495-94.184-13.15-132.241,9.67c-16.282,9.758-29.145,23.01-39.661,38.616l-280.707-254.515
			c-3.311-52.756,1.618-103.49,26.24-142.723c70.18-111.656,264.518-30.017,358.387-1.996
			C5765.582,1665.93,5784.031,1671.186,5803.095,1676.514z"/>
		<path id="_x31_80623500" fill="none" stroke="#010101" stroke-width="64" d="M5820.908,2137.654l0.781,7.317
			c-24.465,2.55-48.547,7.08-70.883,14.045l-1.066-3.273l-105.629-95.841c10.515-15.604,23.376-28.856,39.659-38.614
			c38.058-22.82,87.859-18.166,132.241-9.67L5820.908,2137.654z"/>
		<path id="_x31_80623482" fill="none" stroke="#010101" stroke-width="64" d="M8526.754,3025.33l-0.912,0.005l-117.188,13.336
			c4.357-61.865,6.221-123.569,5.371-184.646c-2.303-175.847-56.459-377.387-144.08-560.703l104.203-50.265l1.434-0.77
			c17.512,33.627,30.426,69.336,45.221,104.5c28.457,67.363,46.684,128.823,60.348,200.904
			c17.371,91.815,22.779,177.657,33.352,269.885C8522.408,2886.176,8526.32,2955.555,8526.754,3025.33z"/>
		<path id="_x31_80623481" fill="none" stroke="#010101" stroke-width="64" d="M8414.023,2854.025
			c0.852,61.081-1.014,122.781-5.371,184.647l-243.828,27.712c4.342-121.195,3.619-224.828,2.764-250.067
			c-4.877-140.144-55.922-283.055-128.367-411.686l230.725-111.31C8357.566,2476.64,8411.723,2678.179,8414.023,2854.025z"/>
		<path id="_x31_80623480" fill="none" stroke="#010101" stroke-width="64" d="M8167.588,2816.318
			c0.855,25.238,1.578,128.873-2.764,250.069l-99.68,11.355c-3.115-41.854-8.195-82.935-15.381-122.864
			c-29.834-166.261-70.025-333.549-146.412-484.656l135.869-65.589C8111.666,2533.264,8162.711,2676.174,8167.588,2816.318z"/>
		<path id="_x31_80623479" fill="none" stroke="#010101" stroke-width="64" d="M8065.145,3077.74l-255.531,29.063
			c-28.025-130.355-80.152-259.763-148.656-367.36c-25.848-40.53-51.613-78.771-77.521-114.88l319.924-154.34
			c76.383,151.107,116.574,318.393,146.41,484.658C8056.951,2994.809,8062.031,3035.888,8065.145,3077.74z"/>
		<path id="_x31_80623478" fill="none" stroke="#010101" stroke-width="64" d="M7809.613,3106.804l-297.668,33.905
			c-1.979-2.967-4.031-6.009-6.158-9.124c-81.316-119.361-162.561-237.885-252.229-347.831l329.875-159.192
			c25.908,36.109,51.674,74.351,77.521,114.879C7729.461,2847.043,7781.588,2976.448,7809.613,3106.804z"/>
		<path id="_x31_80623477" fill="none" stroke="#010101" stroke-width="64" d="M7505.785,3131.587
			c2.129,3.115,4.182,6.155,6.154,9.12l-142.639,16.201c-15.797-57.354-35.375-115.679-63.826-164.434
			c-38.801-66.704-77.186-123.955-118.27-176.694l66.348-32.024C7343.227,2893.7,7424.469,3012.224,7505.785,3131.587z"/>
		<path id="_x31_80623488" fill="none" stroke="#010101" stroke-width="64" d="M8375.578,2242.288l-1.432,0.77l-104.201,50.266
			c-71.699-150.062-165.787-287.743-272.416-389.224c-112.852-107.323-231.449-198.758-355.613-282.464l99.623-117.968l0.223-0.228
			c157.695,119.321,279.881,274.341,412.84,421.84c76.346,84.686,133.041,185.627,198.084,278.828
			C8361.271,2216.424,8368.803,2229.202,8375.578,2242.288z"/>
		<path id="_x31_80623487" fill="none" stroke="#010101" stroke-width="64" d="M8269.945,2293.323l-230.721,111.312
			c-72.748-129.16-166.963-243.813-257.584-326.681c-98.273-89.925-204.525-172.646-315.959-247.642l176.234-208.679
			c124.164,83.706,242.764,175.144,355.613,282.465C8104.158,2005.579,8198.246,2143.264,8269.945,2293.323z"/>
		<path id="_x31_80623486" fill="none" stroke="#010101" stroke-width="64" d="M7781.641,2077.954
			c90.615,82.867,184.834,197.52,257.584,326.682l-135.871,65.586c-9.371-18.719-19.416-37.129-29.996-55.306
			c-113.73-194.789-286.812-362.85-476.176-503.536l68.494-81.067C7577.113,1905.308,7683.367,1988.028,7781.641,2077.954z"/>
		<path id="_x31_80623485" fill="none" stroke="#010101" stroke-width="64" d="M7903.354,2470.22l-319.922,154.345
			c-133.414-185.706-270.006-315.799-429.248-425.504l242.998-287.681c189.363,140.685,362.445,308.747,476.176,503.536
			C7883.938,2433.094,7893.982,2451.505,7903.354,2470.22z"/>
		<path id="_x31_80623484" fill="none" stroke="#010101" stroke-width="64" d="M7583.432,2624.565l-329.873,159.191
			c-96.119-117.92-201.873-225.963-327.562-314.544l228.188-270.15C7313.426,2308.766,7450.021,2438.862,7583.432,2624.565z"/>
		<path id="_x31_80623483" fill="none" stroke="#010101" stroke-width="64" d="M7253.557,2783.756l-66.352,32.024
			c-63.562-81.616-133.578-152.376-221.604-230.146c-26.311-23.219-53.521-45.516-81.561-66.666l41.955-49.758
			C7051.686,2557.792,7157.438,2665.834,7253.557,2783.756z"/>
		<path id="_x31_80623494" fill="none" stroke="#010101" stroke-width="64" d="M7741.76,1503.44l-0.221,0.229l-99.627,117.965
			c-116.734-78.86-238.434-150.987-364.74-223.325c-201.422-115.384-432.67-189.079-665.266-223.111l17.178-123.314
			c19.203,3.192,38.332,6.616,57.457,10.112c171.242,31.257,343.635,66.172,507.064,127.74
			c167.062,62.923,322.049,165.938,472.773,261.35C7692.438,1467.592,7717.516,1485.093,7741.76,1503.44z"/>
		<path id="_x31_80623493" fill="none" stroke="#010101" stroke-width="64" d="M7641.916,1621.635l-176.234,208.679
			c-189.312-127.493-393.566-232.497-598.85-312.407c-33.219-12.891-184.799-77.487-289.793-92.114l34.867-250.594
			c232.596,34.03,463.844,107.723,665.27,223.111C7403.479,1470.646,7525.18,1542.773,7641.916,1621.635z"/>
		<path id="_x31_80623492" fill="none" stroke="#010101" stroke-width="64" d="M7465.682,1830.312l-68.494,81.067
			c-109.801-81.638-224.998-154.023-337.293-217.193c-160.68-90.407-327.625-143.267-493.426-192.545l10.572-75.849
			c104.994,14.627,256.578,79.223,289.795,92.113C7072.115,1597.816,7276.369,1702.82,7465.682,1830.312z"/>
		<path id="_x31_80623491" fill="none" stroke="#010101" stroke-width="64" d="M7397.186,1911.38l-243,287.682
			c-133.262-91.826-282.252-169.476-458.391-253.481c-52.684-25.083-114.273-48.979-181.074-71.709l51.748-372.229
			c165.803,49.279,332.746,102.139,493.426,192.546C7172.184,1757.357,7287.383,1829.744,7397.186,1911.38z"/>
		<path id="_x31_80623490" fill="none" stroke="#010101" stroke-width="64" d="M7154.182,2199.062l-228.189,270.15
			c-26.439-18.719-53.787-36.516-82.109-53.395c-115.637-68.798-236.168-132.238-357.654-189.648
			c-6.436-3.021-12.793-6.042-19.301-8.91l47.791-343.388c66.803,22.73,128.391,46.627,181.074,71.709
			C6871.932,2029.584,7020.924,2107.235,7154.182,2199.062z"/>
		<path id="_x31_80623489" fill="none" stroke="#010101" stroke-width="64" d="M6925.992,2469.212l-41.951,49.756
			c-128.754-97.793-274.947-175.147-426.965-234.634l0.826-2.138l9.025-64.938c6.512,2.868,12.865,5.89,19.301,8.91
			c121.49,57.411,242.018,120.851,357.654,189.648C6872.211,2432.696,6899.553,2450.493,6925.992,2469.212z"/>
		<path id="_x31_80623476" fill="none" stroke="#010101" stroke-width="64" d="M8526.754,3025.33
			c0.877,141.459-12.369,284.732-35.059,427.139l-144.344-12.162c30.818-131.458,51.953-266.991,61.301-401.634l117.189-13.337
			L8526.754,3025.33z"/>
		<path id="_x31_80623475" fill="none" stroke="#010101" stroke-width="64" d="M8164.824,3066.388l243.828-27.714
			c-9.348,134.643-30.482,270.176-61.301,401.633l-215.986-18.167C8150.92,3326.802,8160.48,3187.812,8164.824,3066.388z"/>
		<path id="_x31_80623474" fill="none" stroke="#010101" stroke-width="64" d="M8065.145,3077.74l99.68-11.355
			c-4.342,121.427-13.902,260.417-33.459,355.752l-74.293-6.3C8069.078,3301.775,8073.525,3187.059,8065.145,3077.74z"/>
		<path id="_x31_80623473" fill="none" stroke="#010101" stroke-width="64" d="M8065.145,3077.74
			c8.379,109.319,3.932,224.035-8.072,338.1l-214.928-18.099c-3.701-55.347-8.469-112.901-12.977-163.367
			c-3.721-42.154-10.391-84.907-19.555-127.57L8065.145,3077.74z"/>
		<path id="_x31_80623472" fill="none" stroke="#010101" stroke-width="64" d="M7842.145,3397.741l-227.773-19.182
			c-8.639-80.646-36.605-140.231-102.432-237.853l297.67-33.901c9.166,42.662,15.834,85.416,19.557,127.568
			C7833.678,3284.84,7838.443,3342.394,7842.145,3397.741z"/>
		<path id="_x31_80623471" fill="none" stroke="#010101" stroke-width="64" d="M7614.371,3378.56l-182.586-15.345l-12.301,2.573
			c-7.557-37.256-15.865-73.825-24.771-109.396c-7.832-31.308-15.979-65.208-25.408-99.483l142.641-16.199
			C7577.766,3238.329,7605.734,3297.917,7614.371,3378.56z"/>
		<path id="_x31_80623470" fill="none" stroke="#010101" stroke-width="64" d="M8347.352,3440.307l144.344,12.163
			c-15.982,101.114-36.801,201.798-60.727,301.043l-2.875-0.752l-165.637-27.088c11.363-30.554,22.043-61.333,31.889-92.492
			C8314.26,3570.326,8332.055,3505.808,8347.352,3440.307z"/>
		<path id="_x31_80623469" fill="none" stroke="#010101" stroke-width="64" d="M8131.365,3422.137l215.986,18.169
			c-15.297,65.499-33.092,130.02-53.006,192.871c-9.846,31.159-20.525,61.938-31.889,92.496l-246.064-40.302
			c9.543-50.068,18.324-101.205,25.896-152.942l18.516,2.74C8092.742,3548.294,8115.361,3499.614,8131.365,3422.137z"/>
		<path id="_x31_80623468" fill="none" stroke="#010101" stroke-width="64" d="M8057.072,3415.84l74.293,6.297
			c-16.004,77.476-38.623,126.157-70.561,113.032l-18.516-2.74C8047.947,3493.742,8053.006,3454.825,8057.072,3415.84z"/>
		<path id="_x31_80623467" fill="none" stroke="#010101" stroke-width="64" d="M7842.145,3397.741l214.93,18.099
			c-4.068,38.985-9.127,77.902-14.785,116.592c-7.572,51.738-16.352,102.871-25.895,152.939l-170.852-27.903
			c3.594-45.084,3.561-90.612,2.373-141.015C7847.016,3480.844,7844.961,3439.978,7842.145,3397.741z"/>
		<path id="_x31_80623466" fill="none" stroke="#010101" stroke-width="64" d="M7440.275,3482.601
			c35.889,56.192,173.061,87.835,175.953,19.644c2.07-48.662,1.986-88.24-1.859-123.685l227.779,19.185
			c2.812,42.236,4.869,83.1,5.768,118.712c1.188,50.402,1.225,95.928-2.371,141.015l-233.9-38.297l-0.449,0.383
			c-27.414-34.116-62.043-59.888-103.717-72.36c-20.576-6.159-43.109-11.25-51.012-3.585c-3.01,2.909-5.033,6.735-6.299,11.316
			C7447.271,3530.689,7444,3506.604,7440.275,3482.601z"/>
		<path id="_x31_80623465" fill="none" stroke="#010101" stroke-width="64" d="M7614.371,3378.56
			c3.844,35.444,3.928,75.022,1.857,123.685c-2.893,68.191-140.064,36.549-175.953-19.644
			c-6.049-39.477-13.01-78.567-20.791-116.812l12.301-2.573L7614.371,3378.56z"/>
		<path id="_x31_80623509" fill="none" stroke="#010101" stroke-width="64" d="M5029.969,1905.727l-125.013-51.827l-5.065,0.024
			c-0.735-182.181-1.443-356.356-1.906-470.591l123.066,111.624c-1.263,43.169-1.166,85.493-0.697,125.297
			C5021.534,1726.708,5025.217,1815.152,5029.969,1905.727z"/>
		<path id="_x31_80623508" fill="none" stroke="#010101" stroke-width="64" d="M5212.797,1981.545l-182.828-75.818
			c-4.75-90.574-8.435-179.021-9.621-285.474c-0.465-39.806-0.562-82.128,0.698-125.297l181.755,164.817
			c2.117,37.662,3.922,73.039,3.975,104.383C5206.92,1835.916,5209.707,1908.502,5212.797,1981.545z"/>
		<path id="_x31_80623507" fill="none" stroke="#010101" stroke-width="64" d="M5399.108,2058.873l-186.313-77.328
			c-3.089-73.043-5.878-145.629-6.02-217.391c-0.05-31.343-1.857-66.72-3.975-104.382l160.602,145.619
			c4.049,66.788,21.256,136.717,28.123,190.219C5394.174,2016.57,5396.831,2037.683,5399.108,2058.873z"/>
		<path id="_x31_80623506" fill="none" stroke="#010101" stroke-width="64" d="M5363.402,1805.391l280.707,254.515
			c-16.449,24.246-27.281,54.113-36.521,85.42l-208.479-86.453c-2.277-21.19-4.933-42.303-7.583-63.263
			C5384.658,1942.107,5367.451,1872.179,5363.402,1805.391z"/>
		<path id="_x31_80623505" fill="none" stroke="#010101" stroke-width="64" d="M5749.737,2155.744l1.069,3.273
			c-19.918,6.192-38.391,14.434-54.594,25.032l-1.75-2.66l-86.873-36.06c9.24-31.309,20.073-61.177,36.521-85.423L5749.737,2155.744
			z"/>
		<path id="_x31_80623514" fill="none" stroke="#010101" stroke-width="64" d="M5121.945,2585.63
			c6.482-59.742-61.699-87.422-83.811-175.021c-18.507-73.205,7.564-202.277,3.938-277.071
			c-4.117-83.788-8.414-156.448-12.104-227.809l-125.013-51.827l-5.065,0.023c1.395,343.241,2.904,715.154,3.122,769.298
			c76.231,0.646,150.536-7.238,222.164-23.956L5121.945,2585.63z M5052.775,2611.336c-39.713,6.356-84.342,11.131-123.926,11.388
			c-4.078,0.017-13.75-0.244-13.75-0.244s11.527-7.296,16.955-10.067c16.889-8.923,40.986-27.256,67.82-42.326
			c35.053-19.681,68.146-36.836,87.93-21.137C5118.121,2572.91,5085.542,2606.153,5052.775,2611.336z"/>
		<path id="_x31_80623513" fill="none" stroke="#010101" stroke-width="64" d="M5121.945,2585.63
			c6.482-59.742-61.699-87.422-83.811-175.021c-18.507-73.205,7.564-202.277,3.938-277.071
			c-4.117-83.788-8.414-156.448-12.104-227.809l182.828,75.818c8.276,196.332,18.68,395.551-15.367,588.491l2.604,8.147
			c-24.6,8.194-49.574,15.169-74.861,21.081L5121.945,2585.63z"/>
		<path id="_x31_80623512" fill="none" stroke="#010101" stroke-width="64" d="M5404.836,2148.984
			c1.26,124.296-5.471,272.045-86.728,372.235l3.124,6.239c-39.202,20.234-79.627,37.117-121.199,50.726l-2.599-8.147
			c34.044-192.939,23.639-392.159,15.368-588.492l186.311,77.328C5402.252,2088.905,5404.562,2119.016,5404.836,2148.984z"/>
		<path id="_x31_80623511" fill="none" stroke="#010101" stroke-width="64" d="M5399.108,2058.873l208.479,86.453
			c-14.9,50.704-25.562,104.972-48.668,144.732c-25.211,43.278-77.568,116.036-115.168,159.368l0.609,0.836
			c-39.393,29.691-80.536,55.346-123.132,77.196l-3.122-6.239c81.258-100.19,87.988-247.939,86.728-372.235
			C5404.562,2119.016,5402.252,2088.905,5399.108,2058.873z"/>
		<path id="_x31_80623510" fill="none" stroke="#010101" stroke-width="64" d="M5607.59,2145.326l86.873,36.06l1.75,2.662
			c-4.523,2.995-8.893,6.141-13.032,9.515c-39.15,31.825-65.222,86.622-99.063,124.598c-35.194,39.51-71.682,77.498-112.568,110.855
			c-8.961,7.287-17.998,14.421-27.187,21.247l-0.606-0.834c37.596-43.333,89.961-116.092,115.166-159.369
			C5582.025,2250.297,5592.688,2196.029,5607.59,2145.326z"/>
		<path id="_x31_80623464" fill="none" stroke="#010101" stroke-width="64" d="M8428.094,3752.761l2.875,0.752
			c-27.043,112.605-58.021,223.321-90.445,330.61l-1.742-0.521l-213.471-49.604c9.219-18.264,18.361-36.533,27.275-54.874
			c40.309-82.85,77.816-167.06,109.871-253.451L8428.094,3752.761z"/>
		<path id="_x31_80623463" fill="none" stroke="#010101" stroke-width="64" d="M8016.393,3685.371l246.064,40.302
			c-32.055,86.395-69.562,170.603-109.871,253.451c-8.914,18.341-18.057,36.608-27.275,54.874l-170.521-39.571
			c10.117-38.407,9.547-67.151,22.393-123.339C7990.764,3811.775,8004.109,3749.487,8016.393,3685.371z"/>
		<path id="_x31_80623462" fill="none" stroke="#010101" stroke-width="64" d="M7845.539,3657.468l170.854,27.903
			c-12.279,64.116-25.625,126.404-39.213,185.719c-12.842,56.186-12.271,84.93-22.391,123.339l-180.502-41.972
			c16.049-47.807,27.492-94.605,39.648-133.401C7831.988,3761.32,7841.221,3709.725,7845.539,3657.468z"/>
		<path id="_x31_80623461" fill="none" stroke="#010101" stroke-width="64" d="M7611.643,3619.174l233.896,38.297
			c-4.318,52.258-13.555,103.852-31.604,161.585c-12.156,38.796-23.6,85.595-39.646,133.404l-92.936-21.544
			c18.379-106.469-6.002-231.647-70.16-311.357L7611.643,3619.174z"/>
		<path id="_x31_80623460" fill="none" stroke="#010101" stroke-width="64" d="M8340.523,4084.123
			c-2.088,6.801-4.104,13.518-6.191,20.236c-39.588,129.824-82.811,258.893-135.787,383.817
			c22.479-64.614,14.871-115.142-86.115-146.333c-40.844-12.553-82.002-27.01-123.457-41.084l0.67-2.062
			c1.43-20.901,26.389-50.526,35.832-69.101c14.242-27.977,28.48-55.872,42.875-83.85c19.113-37.227,38.225-74.378,56.961-111.754
			l213.473,49.604L8340.523,4084.123z"/>
		<path id="_x31_80623459" fill="none" stroke="#010101" stroke-width="64" d="M7954.789,3994.427l170.521,39.571
			c-18.738,37.374-37.85,74.525-56.965,111.75c-14.391,27.975-28.631,55.877-42.871,83.854
			c-9.445,18.569-34.404,48.194-35.832,69.096l-0.672,2.063c-65.512-22.354-131.783-44.173-198.693-57.52l1.406-7.174
			c16.959-9.608,92.811-83.009,127.809-153.1C7938.676,4044.375,7948.766,4017.635,7954.789,3994.427z"/>
		<path id="_x31_80623458" fill="none" stroke="#010101" stroke-width="64" d="M7726.25,4233.311
			c-8.543-0.875-21.016-2.495-31.508-0.239l-0.037-9.299l-119.764-23.641l1.262-6.337c114.424-44.67,165.691-144.876,198.09-241.338
			l180.496,41.97c-6.021,23.208-16.113,49.948-35.297,88.542c-34.998,70.091-110.848,143.491-127.807,153.1l-1.408,7.174
			C7769.029,4238.991,7747.635,4235.58,7726.25,4233.311z"/>
		<path id="_x31_80623457" fill="none" stroke="#010101" stroke-width="64" d="M7576.203,4193.799l-1.262,6.333l-31.451-6.185
			l-0.527,1.375c-37.682-15.232-78.959-21.988-114.672-16.641c1.621-10.988,3.311-21.979,4.854-32.961
			c4.453-1.092,165.725-44.221,199.83-91.811c24.414-33.963,40.404-76.666,48.379-122.994l92.936,21.544
			C7741.893,4048.921,7690.627,4149.129,7576.203,4193.799z"/>
		<path id="_x31_80623436" fill="none" stroke="#010101" stroke-width="64" d="M8201.785,4402.477
			c-0.703-1.476-1.465-2.942-2.283-4.387c-0.121-0.213-0.244-0.423-0.369-0.633c-0.244-0.426-0.492-0.846-0.75-1.271
			c-0.193-0.319-0.387-0.639-0.588-0.961c-0.166-0.269-0.342-0.537-0.516-0.806c-0.924-1.431-1.906-2.848-2.965-4.268
			c-14.312-19.146-40.123-35.365-81.914-48.271c-37.088-11.457-74.453-24.374-112.086-37.258c-3.783-1.284-7.559-2.58-11.344-3.861
			c-1.379-0.469-2.76-0.937-4.135-1.41c-27.145-9.244-54.416-18.375-81.811-26.812c-0.521-0.161-1.037-0.318-1.559-0.48
			c-3.326-1.021-6.65-2.032-9.979-3.03c-1.248-0.375-2.494-0.743-3.742-1.115c-2.367-0.705-4.732-1.402-7.1-2.09
			c-2.072-0.607-4.146-1.211-6.221-1.809c-1.52-0.435-3.045-0.869-4.568-1.297c-2.822-0.801-5.645-1.593-8.467-2.373
			c-0.689-0.188-1.373-0.377-2.062-0.564c-9.555-2.623-19.125-5.13-28.709-7.49c-1.613-0.398-3.234-0.787-4.846-1.18
			c-0.699-0.166-1.4-0.336-2.094-0.504c-2.162-0.516-4.326-1.022-6.494-1.523c-30.186-7.003-60.514-12.491-90.975-15.748
			c-7.131-0.762-17.008-1.99-26.156-1.073c-0.295,0.027-0.592,0.059-0.891,0.095c-0.275,0.029-0.547,0.066-0.818,0.101
			c-0.42,0.059-0.84,0.115-1.256,0.182c-0.17,0.028-0.342,0.054-0.514,0.085c-0.816,0.134-1.617,0.295-2.408,0.475
			c-0.32,0.076-0.637,0.145-0.951,0.225c-0.084,0.025-0.172,0.047-0.256,0.072c-4.51,1.186-8.551,3.172-11.607,6.346
			c-0.1,0.104-0.201,0.213-0.299,0.32c-0.178,0.195-0.348,0.393-0.521,0.593c-0.156,0.19-0.312,0.377-0.467,0.57
			c-0.035,0.046-0.066,0.095-0.1,0.136c-0.205,0.271-0.404,0.548-0.596,0.83c-5.865,8.632-3.412,19.979,0.41,30.467
			c1.865,5.106,4.047,10.014,5.75,14.302c0.35,0.878,0.68,1.731,0.982,2.56c12.232,33.357,17.498,68.475,15.977,103.516
			c-0.891,20.548-4.1,41.062-9.619,61.176c-4.992,18.194-11.461,34.863-19.219,50.182
			c-41.881,82.827-121.352,126.009-210.229,158.201c-15.42,5.562-31.248,10.156-47.316,14.148
			c-40.641,10.116-82.816,16.333-123.734,24.424c-6.699,1.327-13.369,2.704-19.99,4.16c-7.553,1.646-15.125,3.502-22.633,5.619
			c-0.078,0.02-0.154,0.043-0.225,0.062c-0.072,0.021-0.141,0.039-0.213,0.062c-14.717,4.181-29.193,9.392-42.863,16.071
			c-16.73,8.191-32.232,18.6-45.432,32.066c-30.387,30.908-57.16,64.008-80.664,99.033c-28.555,42.57-52.291,88.026-71.828,135.838
			c-11.158,27.309-20.959,55.391-29.488,84.181c-47.248,159.521-97.512,302.812,109.66,345.194
			c5.457,1.113,11.037,2.168,16.701,3.185c32.254,5.758,67.447,9.995,100.781,14.267c42.34,5.422,81.664,10.907,108.102,19.662
			c30.254,10.08,71.854,23.844,91.967,46.246c6.377-8.424,12.936-16.738,19.654-24.941
			c49.191-59.188,109.793-119.766,170.762-174.936c13.988-12.676,27.639-26.484,41.766-39.323
			c13.25-12.05,26.914-23.372,37.676-37.662c12.777-16.971,28.357-27.005,42.381-41.854c8.828-9.345,17.482-18.773,25.934-28.324
			c47.672-53.879,103.24-99.724,152.223-152.528c106.17-114.48,189.955-278.781,257.01-419.129
			C8189.203,4513.8,8224.615,4450.268,8201.785,4402.477z"/>
		<path id="_x31_80623456" fill="none" stroke="#010101" stroke-width="64" d="M8201.785,4402.477
			c11.715,24.611,7.998,53.396-3.24,85.7c-10.453,30.403-27.693,63.959-44.922,100.028c17.229-36.069,34.469-69.625,44.922-100.028
			C8209.783,4455.873,8213.5,4427.088,8201.785,4402.477L8201.785,4402.477c-0.703-1.476-1.465-2.942-2.283-4.387
			c-0.121-0.213-0.244-0.423-0.369-0.633c-0.244-0.426-0.492-0.846-0.75-1.271c-0.193-0.319-0.387-0.639-0.588-0.961
			c-0.166-0.269-0.342-0.537-0.516-0.806c-0.924-1.431-1.906-2.848-2.951-4.246c-0.004-0.008-0.01-0.016-0.014-0.021
			c-14.312-19.15-40.123-35.365-81.914-48.271c-37.088-11.457-74.453-24.374-112.086-37.258c-3.783-1.287-7.559-2.58-11.344-3.863
			c-1.379-0.467-2.76-0.935-4.135-1.408c-6.193,26.641-8.236,55.184-12.752,81.627c-11.15,65.232-16.602,194.876-43.703,250.707
			c-25.57,52.602-83.588,73.246-119.23,116.756c-30.52,37.258-58.703,81.422-79.182,124.984
			c-28.262,60.117-60.256,126.395-120.65,159.075c-43.1,23.321-81.574,43.271-117.314,63.308
			c-81.162,45.512-152.199,100.012-214.775,169.423c-42.244,46.886-71.244,112.1-71.049,175.772
			c42.34,5.422,81.666,10.907,108.102,19.662c30.256,10.08,71.857,23.848,91.971,46.246c6.377-8.424,12.934-16.738,19.646-24.943
			l0.004,0.002c-60.76-70.889-45.773-156.656,22.045-214.639c53.057-45.365,149.895-107.065,223.482-94.998
			c12.59,2.061,19.488,6.51,22.33,12.434l13.594,15.07c3.762-3.904,7.445-7.734,11.133-11.642
			c8.826-9.345,17.482-18.773,25.934-28.321c47.672-53.882,103.238-99.723,152.221-152.529
			c106.17-114.482,189.955-278.783,257.012-419.131C8189.203,4513.8,8224.615,4450.268,8201.785,4402.477z"/>
		<path id="_x31_80623455" fill="none" stroke="#010101" stroke-width="64" d="M7821.678,4301.109
			c-3.768,26.793-5.932,54.662-12.396,80.958c-12.574,51.144-22.979,104.456-39.424,154.766
			c-15.918,48.71-33.23,110.659-67.359,149.786c-24.396,27.962-61.732,47.16-91.604,68.896
			c-73.635,53.581-151.025,90.141-220.264,150.536c-62.162,54.229-135.938,115.979-192.545,175.174
			c-38.014,39.883-56.178,100.947-70.867,152.789c-18.252,64.426-19.219,126.404-21.822,192.729
			c32.252,5.758,67.449,9.998,100.783,14.262c-0.197-63.67,28.801-128.887,71.049-175.77
			c62.576-69.411,133.605-123.912,214.771-169.42c35.74-20.04,74.217-39.99,117.314-63.311
			c60.398-32.679,92.391-98.958,120.652-159.073c20.475-43.564,48.664-87.729,79.182-124.986
			c35.645-43.508,93.658-64.155,119.229-116.759c27.105-55.826,32.557-185.475,43.703-250.704
			c4.516-26.442,6.562-54.983,12.752-81.626c-27.143-9.246-54.414-18.375-81.809-26.815c-0.52-0.161-1.041-0.318-1.561-0.479
			c-3.324-1.019-6.65-2.031-9.979-3.03c-1.248-0.377-2.492-0.745-3.74-1.115c-2.365-0.707-4.73-1.396-7.102-2.092
			c-2.068-0.607-4.143-1.211-6.219-1.807c-1.521-0.435-3.043-0.871-4.568-1.299c-2.822-0.801-5.646-1.59-8.467-2.373
			c-0.689-0.188-1.373-0.375-2.062-0.563c-9.555-2.62-19.125-5.131-28.707-7.489
			C7828.016,4268.941,7823.711,4286.679,7821.678,4301.109z"/>
		<path id="_x31_80623454" fill="none" stroke="#010101" stroke-width="64" d="M7088.697,5423.553
			c5.459,1.115,11.037,2.171,16.701,3.185c2.604-66.327,3.568-128.301,21.822-192.724c14.691-51.846,32.852-112.906,70.865-152.793
			c56.613-59.193,130.381-120.941,192.547-175.174c69.238-60.394,146.629-96.958,220.262-150.532
			c29.875-21.74,67.207-40.934,91.605-68.897c34.133-39.127,51.439-101.078,67.359-149.787
			c16.443-50.312,26.848-103.619,39.424-154.766c6.465-26.295,8.627-54.166,12.398-80.959c2.029-14.432,6.336-32.164,8.939-48.812
			c-1.615-0.4-3.234-0.789-4.852-1.178c-0.693-0.17-1.393-0.34-2.09-0.508c-2.162-0.516-4.326-1.019-6.492-1.523
			c-30.186-7-60.512-12.491-90.973-15.748c-7.131-0.761-17.008-1.99-26.156-1.073c-0.299,0.027-0.596,0.059-0.891,0.095
			c-0.275,0.029-0.549,0.066-0.818,0.104c-0.424,0.056-0.842,0.112-1.256,0.179c-0.174,0.028-0.346,0.054-0.518,0.085
			c-0.814,0.137-1.615,0.295-2.408,0.475c-0.316,0.076-0.635,0.151-0.947,0.225c-0.088,0.025-0.172,0.047-0.26,0.072
			c-4.51,1.186-8.547,3.175-11.607,6.346c-0.1,0.105-0.201,0.213-0.297,0.32c-0.178,0.195-0.35,0.393-0.521,0.595
			c-0.158,0.188-0.312,0.378-0.467,0.568c-0.035,0.048-0.064,0.095-0.098,0.14c-0.205,0.27-0.408,0.544-0.598,0.826
			c-5.867,8.632-3.414,19.979,0.408,30.467c1.865,5.106,4.049,10.014,5.75,14.302c0.35,0.88,0.682,1.733,0.984,2.56
			c12.234,33.361,17.5,68.478,15.977,103.518c-0.889,20.546-4.102,41.064-9.621,61.174c-4.992,18.194-11.459,34.866-19.219,50.185
			c-41.881,82.824-121.352,126.006-210.227,158.198c-15.416,5.562-31.248,10.156-47.314,14.148
			c-40.643,10.116-82.82,16.333-123.738,24.424c-6.699,1.327-13.369,2.704-19.984,4.16c-7.555,1.648-15.127,3.502-22.635,5.619
			c-0.076,0.023-0.152,0.043-0.229,0.064c-0.068,0.019-0.141,0.037-0.207,0.06c-14.719,4.181-29.199,9.392-42.865,16.071
			c-16.729,8.193-32.232,18.6-45.432,32.068c-30.387,30.909-57.158,64.006-80.666,99.032
			c-28.555,42.575-52.289,88.026-71.828,135.841c-11.156,27.308-20.955,55.387-29.488,84.179
			C6931.791,5237.879,6881.525,5381.174,7088.697,5423.553z"/>
		<path id="_x31_80623453" fill="none" stroke="#010101" stroke-width="64" d="M5087.801,2548.95
			c-19.781-15.697-52.879,1.457-87.928,21.137c-26.835,15.066-50.935,33.403-67.824,42.326
			c-5.425,2.771-16.955,10.067-16.955,10.067s9.672,0.261,13.75,0.243c39.588-0.256,84.217-5.031,123.929-11.387
			C5085.542,2606.153,5118.121,2572.91,5087.801,2548.95z"/>
		<path id="_x31_80623452" fill="none" stroke="#010101" stroke-width="64" d="M7681.357,3930.913
			c-7.979,46.324-23.971,89.028-48.383,122.993c-34.105,47.593-195.377,90.717-199.83,91.807
			c8.307-57.006,15.404-114.23,22.271-171.459c2.848-23.574,5.02-47.453,6.584-71.558c0.074-0.304,0.074-0.534,0.07-0.84
			c6.693-82.62,6.199-167.416-1.543-249.897c-0.471-4.726-1.092-9.68-1.869-14.709c-0.002-0.23-0.078-0.382-0.078-0.607
			c-2.227-27.297-5.055-54.584-8.416-81.715c1.27-4.584,3.293-8.404,6.301-11.316c7.902-7.665,30.438-2.577,51.008,3.582
			c41.676,12.473,76.307,38.246,103.721,72.363C7675.352,3699.263,7699.734,3824.447,7681.357,3930.913z"/>
		<path id="_x31_80623451" fill="none" stroke="#010101" stroke-width="64" d="M7629.254,4254.111
			c39.695,45.498,49.258,111.882,40.58,170.183c-17.279,117.286-121.027,186.696-228.105,216.157
			c-48.523,13.258-98.203,21.342-147.963,28.197c-20.459,2.836-36.092,4.736-56.639,5.443c13.76-16.764,23.383-28.322,35.018-47.441
			c10.43-17.131,51.441-94.412,51.441-94.412s6.029-3,11.832-6.916c0.906-0.539,1.732-1.229,2.561-1.846
			c1.959-1.375,3.768-2.91,5.117-4.367c0.529-0.611,1.055-1.224,1.502-1.836c1.055-1.229,2.184-2.524,3.311-3.904
			c10.521-13.318,19.205-33.108,26.443-55.483c0.148-0.458,0.297-0.921,0.449-1.38c8.887-25.508,14.746-52.072,19.475-78.631
			c11.818-66.557,25.904-132.201,34.016-199.195c35.713-5.346,76.99,1.406,114.672,16.643
			C7576.789,4208.971,7607.773,4229.499,7629.254,4254.111z"/>
		<path id="_x31_80623439" fill="none" stroke="#010101" stroke-width="64" d="M5662.336,4019.189
			c70.777-0.053,157.621,91.494,201.775,137.559c76.5,79.801,142.948,149.397,215.59,224.065
			c93.565,96.173,197.301,215.183,298.375,301.153c121.736,103.549,247.088,170.037,398.787,221.906
			c32.873,11.238,128.986,30.004,191.549,42.346c37.807,7.455,72.674-89.294,110.264-132.682
			c99.629-114.963,212.547-215.033,264.17-362.789c12.463-60.361,14.484-51.246,27.717-116.945
			c41.217-204.523,54.98-432.134,54.426-640.452c-0.279-105.791-14.598-215.149-46.59-316.225
			c-29.758-94.027-48.281-193.045-97.889-279.611c-34.09-59.476-81.023-120.475-121.76-175.685
			c-96.988-131.453-234.791-229.872-366.264-323.019c-146.115-103.527-329.889-160.108-507.828-164.444
			c-43.94-1.07-87.402,10.77-131.635,13.657c-50.465,3.295-100.75,10.368-150.039,21.853c-43.41,10.125-85.83,23.633-127.143,40.02
			c15.918,41.889-90.746,59.829-111.98,72.695c-94.199,57.052-156.085,140.104-186.844,246.05
			c-12.627,43.479-26.105,85.791-32.844,130.791c-6.984,46.613-4.627,93.354-3.354,140.231
			c2.204,81.038,34.269,157.022,46.009,236.552c5.226,35.384,3.971,71.079,7.129,106.424c2.9,32.465,13.748,63.062,16.748,96.118
			c7.506,82.427,42.311,157.915,50.225,240.244C5666.989,3841.938,5661.113,3989.769,5662.336,4019.189z"/>
		<path id="_x31_80623440" fill="none" stroke="#010101" stroke-width="64" d="M5663.095,4050.02
			c88.294-0.152,170.515,121.656,224.592,176.604c77.544,78.789,149.382,152.035,227.567,230.289
			c107.938,108.018,226.155,260.906,362.309,332.977c132.02,69.846,265.889,144.928,413.961,173.209
			c33.863,6.464,62.205,1.207,73.115,43.381c7.713,29.852-9.738,67.021-20.666,93.979c-29.877,73.737-25.035,149.041-42.006,224.818
			c-15.668,69.941-62.25,103.953-112.814,125.066c-68.074,28.441-146.547,25.896-217.832,40.234
			c-65.188,13.106-145.434,48.991-197.147,91.284c-52.016,42.542-152.067,176.915-213.578,115.353
			c-21.921-21.936-17.354-57.236-19.259-85.49c-3.902-57.643-45.12-112.807-85.188-151.23
			c-32.477-31.152-94.629-48.126-116.145-87.123c-18.207-33.008-36.131-70.545-31.043-108.124
			c5.905-43.609,34.943-101.13,12.432-145.233c-20.736-40.473-104.25-64.174-142.882-74.953
			c-59.749-16.669-112.159-24.562-154.73-72.443c-99.103-111.471-175.937-265.454-226.397-405.064
			c-34.52-95.508-53.664-191.481-28.471-287.412c41.866-159.402,132.65-204.968,261.962-289.472
			c-11.163,80.12-1.171,164.882,12.995,244.713c1.954,11.023,8.701,80.705,24.788,80.532c8.815-0.088,13.017-17.044,13.831-23.521
			c1.901-15.14-3.6-27.546-4.336-42.063c-0.951-18.586-0.037-37.213-1.382-55.85c-3.126-43.326-9.154-87.07-12.886-130.604
			C5663.809,4062.863,5663.27,4050.02,5663.095,4050.02z"/>
		<path id="_x31_80623449" fill="none" stroke="#010101" stroke-width="64" d="M6573.566,5778.936
			c-5.777-3.334-12.209-6.051-19.33-8c-46.838-12.854-75.672,17.025-87.15,55.895c-8.633,29.24-7.447,63.562,3.299,88.628
			c17.646,41.183,59.588,64.729,99.025,36.638C6622.939,5913.963,6632.961,5813.178,6573.566,5778.936z"/>
		<path id="_x31_80623450" fill="none" stroke="#010101" stroke-width="64" d="M5971.131,5858.643
			c-18.335,30.559-7.434,110.752,44.195,99.705c38.667-8.273,47.82-68.622,36.043-99.42
			C6034.997,5816.145,5991.135,5825.303,5971.131,5858.643z"/>
		<path id="_x31_80623448" fill="none" stroke="#010101" stroke-width="64" d="M7231.439,5462.064
			c-5.381,67.079-26.264,134.85-46.48,197.168c-32.459,99.999-86.213,192.667-169.074,258.533
			c-39.656,31.521-79.707,65.511-122.102,93.061c-47.68,30.981-93.729,48.279-145.889,68.467
			c-22.707,8.785-44.768,25.801-61.127,43.953c-14.867,16.5-14.959,45.926-35.465,52.616c-20.281,6.624-51.502,6.626-73.541,10.076
			c-58.768,9.209-113.701,26.194-170.609,40.649c-30.45,7.734-61.677,21.6-92.057,27.548c-30.032,5.878-68.064-8.769-97.688-14.662
			c-52.418-10.433-104.709-23.395-154.109-44.206c-43.484-18.312-83.234-50.502-120.648-79.887
			c-24.95-19.589-49.268-41.161-72.074-63.256c-43.587-42.217-84.714-85.315-120.135-135.08
			c-23.102-32.459-43.019-79.664-52.464-122.156c-1.017,0.385-1.978,0.728-2.862,1.016c-59.857,19.52-83.053,79.403-51.436,136.982
			c11.061,20.137,27.687,37.924,43.773,58.974c40.575,51.416,92.494,92.389,142.725,134.501
			c108.99,91.375,233.086,178.6,371.4,216.534c140.473,38.522,258.467-8.083,389.922-54.204
			c169.553-59.477,340.768-142.359,475.869-263.421c130.471-116.914,200.967-278.672,282.174-430.59
			c6.623-12.381,36.055-60.331,43.773-70.157C7367.293,5504.91,7329.818,5478.736,7231.439,5462.064z"/>
		<path id="_x31_80623447" fill="none" stroke="#010101" stroke-width="64" d="M5870.576,6052.125
			c22.812,22.09,47.129,43.665,72.074,63.255c37.418,29.386,77.166,61.573,120.648,79.888
			c49.402,20.811,101.693,33.773,154.109,44.201c29.625,5.895,67.655,20.543,97.688,14.664
			c30.381-5.948,61.606-19.814,92.057-27.545c56.908-14.455,111.842-31.447,170.615-40.654c22.035-3.445,53.256-3.451,73.539-10.071
			c20.502-6.69,20.594-36.119,35.463-52.619c16.354-18.149,38.418-35.168,61.127-43.95c52.158-20.189,98.207-37.485,145.887-68.467
			c42.395-27.55,82.447-61.539,122.104-93.061c82.859-65.867,136.613-158.535,169.072-258.533
			c20.219-62.318,41.104-130.092,46.48-197.168c-24.371-4.129-52.486-7.676-85.086-10.399c-0.521,14.329-1.578,28.567-5.486,41.44
			c-24.055,79.186-40.482,157.301-95.76,222.374c-38.406,45.22-84.094,82.987-130.975,118.862
			c-38.939,29.807-75.9,65.604-118.545,89.996c-34.615,19.799-70.314,43.249-107.146,58.43
			c-32.633,13.445-67.104,36.668-98.473,54.368c-33.049,18.647-56.088,45.784-95.906,46.246
			c-30.721,0.35-52.426,3.479-81.654,16.823c-0.672,0.309-1.34,0.614-2.006,0.923c-46.842,21.542-81.141,42.263-135.253,42.447
			c-48.822,0.171-104.051-7.431-148.974-27.862c-60.195-27.391-130.908-51.385-180.945-95.41
			c-31.949-28.108-60.326-58.6-88.283-90.614c-23.258-26.622-52.258-54.062-67.303-86.7c-10.906-23.667-23.498-50.014-32.275-76.079
			c-26.125,12.537-47.396,23.466-59.381,27.976c9.441,42.496,29.358,89.701,52.46,122.158
			C5785.867,5966.81,5826.988,6009.908,5870.576,6052.125z"/>
		<path id="_x31_80623446" fill="none" stroke="#010101" stroke-width="64" d="M7146.354,5451.665
			c-12.826-1.066-26.32-2.013-40.578-2.812c5.205,31.815,5.186,63.15-0.193,96.662c-17.764,110.604-106.422,197.566-187.121,266.611
			c-45.852,39.232-192.568,185.035-268.506,88.777c-23.775-30.152-24.578-72.388-48.703-102.013
			c-8.602-10.566-17.951-16.868-27.686-19.956c59.395,34.242,49.371,135.027-4.156,173.16
			c-39.438,28.091-81.379,4.545-99.025-36.638c-10.746-25.067-11.932-59.388-3.299-88.628
			c-26.363,25.066-54.217,55.129-90.303,57.42c-27.531,1.748-50.534-19.322-73.283-31.038
			c-23.363-12.034-46.848-30.299-73.877-31.892c-27.643-1.633-58.676,0.939-77.494,23.963
			c-18.967,23.204-35.901,49.447-71.377,35.304c-46.228-18.423-50.72-109.577-81.18-144.532
			c-48.653-55.824-166.045-5.688-242.213,30.857c8.779,26.064,21.376,52.414,32.281,76.08
			c15.041,32.639,44.043,60.074,67.297,86.698c27.961,32.016,56.336,62.511,88.285,90.614
			c50.038,44.023,120.754,68.018,180.944,95.408c44.922,20.432,100.152,28.033,148.972,27.867
			c54.112-0.189,88.414-20.908,135.256-42.452c0.666-0.304,1.332-0.61,2.01-0.921c29.225-13.344,50.932-16.471,81.65-16.825
			c39.818-0.456,62.857-27.589,95.906-46.243c31.371-17.698,65.84-40.92,98.475-54.371c36.834-15.181,72.533-38.627,107.146-58.426
			c42.646-24.394,79.605-60.191,118.545-89.996c46.883-35.874,92.564-73.646,130.977-118.861
			c55.271-65.076,71.697-143.19,95.756-222.379C7144.775,5480.234,7145.832,5465.994,7146.354,5451.665z M6015.326,5958.348
			c-51.629,11.047-62.53-69.146-44.195-99.705c20.004-33.34,63.866-42.498,80.241,0.285
			C6063.152,5889.729,6053.993,5950.074,6015.326,5958.348z"/>
		<path id="_x31_80623445" fill="none" stroke="#010101" stroke-width="64" d="M5532.893,3326.046
			c-129.15,0.077-262.146-88.947-369.508-152.968c-71.82-42.845-201.473-82.416-231.14-169.713l10.64-2.177
			c35.521-7.606,61.284-23.703,99.104-43.577c44.688-23.486,89.887-46.044,136.326-66.034
			c63.741,2.227,115.719,63.571,156.367,106.646c28.312,29.99,55.061,57.03,76.65,92.458c27.282,44.767,66.88,78.045,90.742,126.753
			c15.419,31.468,25.399,64.221,34.18,97.469L5532.893,3326.046z"/>
		<path id="_x31_80623444" fill="none" stroke="#010101" stroke-width="64" d="M5532.893,3326.046
			c-129.15,0.077-262.146-88.947-369.508-152.968c-71.82-42.845-199.697-77.538-229.363-164.834l-29.445,1.609l2.257,556.61
			c43.627,101.924,102.979,214.756,148.114,317.417c72.934,165.913,118.598,437.974,123.407,438.362
			c32.534,2.644,156.077-36.247,166.733-76.646c41.854-159.405,159.246-200.299,288.559-284.8
			c-0.105-25.343,0.715-29.292,0.934-59.413c0.631-86.984-14.323-170.259-27.365-255.816
			c-13.516-88.633-30.127-176.267-53.504-262.719L5532.893,3326.046z"/>
		<path id="_x31_80623441" fill="none" stroke="#010101" stroke-width="64" d="M7085.768,5464.499
			c-0.111-28.674-55.088-29.372-92.795-51.933c-36.787-22.012-58.609-59.105-66.295-47.363
			c-30.029,45.891-67.572,88.445-122.309,113.036c-76.703,34.466-190.391,41.923-232.896,50.466
			c-65.182,13.104-129.666,41.548-181.479,83.914c-52.673,43.134-112.229,118.531-183.735,126.854
			c-108.596,12.624-86.115-136.99-128.248-200.494c-36.217-54.568-99.889-77.961-143.045-124.998
			c-34.343-37.425-62.695-84.49-61.046-134.689c1.521-46.078,39.873-99.654,17.343-143.85
			c-20.892-40.971-137.566-51.996-175.807-67.197c-66.43-26.396-96.644-56.363-157.686-93.785
			c-47.95,34.523-104.385,60.214-159.028,81.787c-49.392,19.484-120.721,32.332-157.356,9.602
			c-28.072-17.42-34.512,49.48-32.466,66.852c12.263,103.738,113.847,134.523,187.628,182.453
			c113.064,73.441,191.932,182.629,308.941,251.904c99.639,58.988,214.346,37.465,316.545,151.578
			c24.539,27.391,33.963,121.115,65.062,130.914c47.699,14.938,75.195-81.78,132.207-78.135
			c48.369,3.166,78.346,60.287,118.125,78.565c91.893,42.247,130.578-147.765,243.785-102.077
			c49.91,20.148,77.414,109.797,113.066,145.484c39.596,39.629,172.629-79.434,213.857-116.625
			C7011.666,5683.348,7086.365,5610.838,7085.768,5464.499z"/>
		<path id="_x31_80623442" fill="none" stroke="#010101" stroke-width="64" d="M5221.93,4670.396
			c38.436-58.417,24.213-122.759-21.06-170.089c-55.163-57.667-52.632-155.923-64.729-230.04
			c-16.35-100.187-53.524-199.521-86.084-295.697c-41.996-124.045-91.279-228.429-142.973-347.098l7.841,1169.025l0.455,68.174
			c111.738-20.026,185.454-47.572,228.331-67.669C5165.328,4751.529,5196.844,4708.516,5221.93,4670.396z"/>
		<path id="_x31_80623443" fill="none" stroke="#010101" stroke-width="64" d="M5862.621,5652.156
			c-70.047-20.282-129.67-42.392-164.543-58.357c-136.078-62.309-193.076-177.146-270.271-222.822
			c-155.766-92.162-241.549-97.236-242.363-297.567c-0.297-73.341-67.02-101.759-66.967-179.095c0-0.385,0.012-0.77,0.017-1.154
			c0.255-32.688,10.416-65.002,25.221-96.157c-42.878,20.1-116.595,47.643-228.331,67.671l4.045,602.996
			c70.102,3.505,152.367,59.27,212.151,92.268c75.259,41.549,147.966,87.58,221.821,131.574
			c154.496,92.012,179.408,123.93,251.451,200.123c-15.244-84.66,42.203-115.175,112.73-145.405
			c40.26-17.256,126.611-47.906,175.41-57.982C5930.736,5680.449,5908.007,5665.304,5862.621,5652.156z"/>
		<path id="_x31_80623437" fill="none" stroke="#010101" stroke-width="64" d="M5337.772,4304.724
			c7.386-2.427-4.067,53.169-5.22,110.597c-0.824,41.342,16.146,94.068,19.31,102.859
			c38.958,108.268,79.484,226.939,144.839,321.549c16.053,23.231,41.218,72.262,58.955,98.877
			c5.582,8.385-14.396,16.84-20.696,21.066c-45.935,30.752-115.041,62.812-170.28,80.202
			c-40.309,12.692-95.613,20.131-148.945-25.455c-25.68-21.953-48.625-41.638-63.645-72.82
			c-24.1-49.996,6.109-100.976,27.754-147.468c20.734-44.527,44.096-84.764,71.016-125.66
			c38.459-58.426,18.904-129.812-26.383-177.152c-33.894-35.436-41.094-92.037-38.873-139.525
			C5216.334,4347.615,5290.622,4320.188,5337.772,4304.724z"/>
		<path id="_x31_80623438" fill="none" stroke="#010101" stroke-width="64" d="M5337.772,4304.724
			c7.386-2.427-4.067,53.169-5.22,110.597c-0.824,41.342,16.146,94.068,19.31,102.859
			c38.958,108.268,79.484,226.939,144.839,321.549c16.053,23.231,41.218,72.262,58.955,98.877
			c5.582,8.385-14.396,16.84-20.696,21.066c-45.935,30.752-115.041,62.812-170.28,80.202
			c-40.309,12.692-95.613,20.131-148.945-25.455c-25.68-21.953-48.625-41.638-63.645-72.82
			c-24.1-49.996,6.109-100.976,27.754-147.468c20.734-44.527,44.096-84.764,71.016-125.66
			c38.459-58.426,18.904-129.812-26.383-177.152c-33.894-35.436-41.094-92.037-38.873-139.525
			C5216.334,4347.615,5290.622,4320.188,5337.772,4304.724z"/>
		<path id="_x31_80623516" fill="none" stroke="#010101" stroke-width="64" d="M4903.01,2623.22
			c76.23,0.646,150.539-7.236,222.162-23.955c25.287-5.912,50.264-12.886,74.861-21.081c41.57-13.608,81.992-30.491,121.196-50.726
			c42.595-21.85,83.739-47.505,123.13-77.196c9.188-6.828,18.225-13.96,27.184-21.247c40.888-33.358,77.375-71.346,112.569-110.855
			c33.842-37.979,59.913-92.773,99.065-124.598c4.142-3.375,8.508-6.521,13.029-9.516c16.201-10.596,34.678-18.84,54.594-25.03
			c22.336-6.966,46.416-11.495,70.885-14.046c54.519-5.737,111.048-1.951,155.041,4.868c41.58,6.371,79.169,17.716,120.835,26.756
			c119.771,25.923,241.396,61.369,359.511,107.737c152.018,59.483,298.211,136.84,426.963,234.635
			c28.037,21.148,55.25,43.448,81.561,66.666c88.025,77.771,158.039,148.528,221.605,230.146
			c41.08,52.739,79.469,109.991,118.266,176.696c28.451,48.754,48.029,107.081,63.826,164.434
			c9.43,34.273,17.578,68.175,25.41,99.482c8.908,35.572,17.217,72.14,24.77,109.396c7.785,38.249,14.744,77.336,20.793,116.813
			c3.725,24.003,6.992,48.087,9.889,72.326c-5.361,19.548,3.689,52.222,8.418,81.712c0,0.229,0.074,0.381,0.074,0.609
			c7.389,89.195,9.111,178.558,3.42,264.61c0,0.304-0.004,0.534-0.076,0.837c-6.545,81.248-18.979,162.674-28.93,243.095
			c0,0,0,0,0.074-0.077c-1.539,10.988-3.234,21.979-4.852,32.969c-6.4,41.664-13.488,83.183-21.631,124.551
			c-5.031,25.42-13.809,97.064-31.865,153.272c-0.148,0.462-0.295,0.921-0.445,1.378c-1.793,5.197-3.662,10.312-5.756,15.354
			c-5.686,14.058-11.596,28.115-20.686,40.129c-1.133,1.382-2.256,2.68-3.314,3.902c-2.178,2.3-4.361,4.367-6.619,6.209
			c-0.83,0.617-1.662,1.306-2.561,1.843c-3.014,2.073-6.107,3.612-9.354,4.546c11.9-65.338,31.275-130.4,44.533-196.041
			c41.174-204.562,54.984-432.185,54.365-640.449c-0.279-105.845-14.549-215.139-46.537-316.27
			c-29.77-93.97-48.303-193.023-97.908-279.585c-34.088-59.481-81.023-120.508-121.74-175.688
			c-97.008-131.417-234.826-229.857-366.279-322.988c-146.15-103.589-329.889-160.107-507.818-164.492
			c-43.971-1.022-87.438,10.764-131.621,13.708c-50.524,3.278-100.812,10.368-150.099,21.801
			c-43.398,10.109-85.805,23.645-127.136,40.074c-50.686,20.057-99.689,44.527-146.797,72.346
			c-39.87,23.515-79.275,49.467-116.557,76.938c-52.199,38.519-98.805,77.775-157.234,106.864
			c-90.398,44.944-184.289,85.632-276.9,125.474c-46.456,20.037-91.696,42.582-136.322,66.047
			c-50.059,26.304-79.064,46.037-137.45,48.129L4903.01,2623.22z"/>
		<path id="_x31_80623517" fill="none" stroke="#010101" stroke-width="64" d="M5838.723,4730.776
			c-66.646-52.045-91.848-93.399-123.398-159.588c-28.962-60.733-57.601-184.178,7.693-232.253
			c58.162-42.81,122.539,15.617,157.695,57.572c38.579,46.053,44.874,88.957,54.654,147.092
			c8.849,52.56,66.104,139.994,32.553,192.084C5940.215,4778.701,5871.01,4755.984,5838.723,4730.776z"/>
		<path id="_x31_80623518" fill="none" stroke="#010101" stroke-width="64" d="M7425.902,5481.979
			c49.195-59.191,109.793-119.771,170.764-174.941c13.986-12.67,27.637-26.48,41.764-39.32
			c18.479-16.779,95.201-85.184,33.002-95.378c-73.59-12.067-170.428,49.631-223.48,94.995
			C7380.129,5325.316,7365.143,5411.082,7425.902,5481.979z"/>
		<path id="_x31_80623515" fill="none" stroke="#010101" stroke-width="64" d="M5875.845,2509.897
			c-50.692,20.115-99.702,44.564-146.839,72.388c-39.853,23.532-79.232,49.448-116.507,76.923
			c-52.259,38.515-98.835,77.789-157.291,106.855c-90.358,44.924-184.22,85.638-276.892,125.514
			c63.739,2.227,115.719,63.57,156.365,106.645c28.312,29.99,55.061,57.03,76.653,92.458
			c27.279,44.767,66.877,78.043,90.739,126.751c25.85,52.759,36.413,109.138,51.641,165.413
			c23.377,86.455,39.989,174.087,53.502,262.724c13.043,85.558,27.996,168.83,27.365,255.814
			c-0.215,30.121,0.447,59.615-3.703,89.284c-11.162,80.116-1.172,164.88,12.992,244.713c1.957,11.018,8.707,80.702,24.79,80.532
			c8.819-0.092,13.016-17.046,13.835-23.521c1.896-15.142-3.604-27.546-4.339-42.065c-0.953-18.584-0.04-37.211-1.384-55.848
			c-2.645-36.586-7.94-72.91-11.252-109.441c-3.46-38.129-4.137-76.975-4.889-115.379c-1.246-63.244,6.359-127.717,0.3-190.65
			c-7.921-82.331-42.72-157.818-50.222-240.246c-3.006-33.056-13.852-63.656-16.752-96.121
			c-3.158-35.345-1.904-71.037-7.131-106.424c-11.74-79.526-43.803-155.511-46.009-236.548
			c-1.271-46.875-3.633-93.618,3.354-140.233c6.74-45,20.219-87.312,32.848-130.79c30.758-105.945,92.644-188.996,186.84-246.049
			C5785.096,2569.729,5891.76,2551.786,5875.845,2509.897z"/>
	</g>
</g>
</svg>
