<svg width="9392" height="7328" xmlns="http://www.w3.org/2000/svg">
<g transform="scale(1.0)">
<g id="180641328" order="1" parent_id="" graphic_group_label_id="28" graphic_group_label="Atlas - Adult Mouse" sub_image_id="100960176" transform=" scale(1.0, 1.0)"><path id="180641330" parent_id="180641328" order="0" structure_id="8" d="M4345.146,6741.195
			c47.003,99.189,125.431,160.999,237.56,159.759c104.331-1.153,208.921-29.042,310.99-53.689
			c120.105-29.01,241.816-48.591,363.3-69.459c101.616-17.453,194.498-34.286,291.434-69.339
			c47.943-17.33,97.037-35.458,143.942-55.225c38.711-16.309,76.232-34.446,115.567-49.206
			c86.718-32.544,174.374-69.434,248.488-124.97c76.62-57.421,134.2-136.425,196.899-207.578
			c91.673-104.033,184.221-200.146,289.846-291.363c75.015-64.783,178.689-84.676,268.38-120.485
			c98.51-39.331,172.375-95.478,225.477-189.585c81.318-144.114,125.863-307.69,170.79-465.682
			c19.158-67.383,5.052-200.991,67.844-245.675c75.769-53.932,184.146,54.104,233.864,103.429
			c161.033,159.765,106.79,422.671,229.975,598.294c50.679,72.227,145.289,126.24,231.741,140.306
			c107.027,17.415,262.018-64.394,344.317-129.343c105.379-83.16,195.103-185.039,283.157-285.571
			c80.537-91.951,140.704-250.143,171.343-366.756c113.847-433.386-216.11-985.428-629.863-1129.557
			c-45.83-15.965-96.806-35.296-144.084-44.219c-45.198-8.533-95.904-6.675-125.545-49.087
			c-30.239-43.27-50.424-89.313-104.545-107.114c-75.211-24.747-188.351-19.33-60.226-83.199
			c66.455-33.12,131.091-72.947,191.34-116.17c112.324-80.591,197.342-177.742,263.49-298.573
			c71.38-130.405,90.757-246.845,74.586-395.158c-7.837-71.913-25.958-143.253-50.015-211.363
			c-76.793-217.443-198.6-411.828-374.915-563.085c-79.427-68.137-176.958-115.803-273.193-155.446
			c-30.146-12.417-57.022-19.835-80.697-42.788c-41.335-40.068-69.118-93.208-113.573-129.749
			c-43.36-35.639-83.463-75.658-125.298-114.165c-57.922-53.314-136.227-83.747-202.561-125.65
			c-206.922-130.718-454.342-265.374-702.149-289.616c-64.895-6.348-136.434,16.38-198.577,3.394
			c-50.892-10.635-91.409-46.29-137.107-66.822c-52.276-23.489-103.12-49.644-154.59-75.056
			c-103.516-51.11-207.728-91.809-315.669-130.846c-51.673-18.687-115.813-14.115-170.57-21.113
			c-61.313-7.838-118.879-1.265-171.982-37.697c-48.993-33.608-103.759-63.705-159.513-88.437
			c-91.109-40.414-202.24-56.205-300.402-68.961c-104.003-13.514-209.123-13.882-313.821-11.522L4345.146,6741.195z" style="stroke:black;fill:#bfdae3"/><path id="180641352" parent_id="180641328" order="1" structure_id="313" d="M5189.092,864.657
			c-40.646,7.623-89.904,37.394-122.906,54.878c-80.947,42.89-156.247,96.289-232.197,147.176
			c-42.088,28.199-189.607,126.997-180.003,185.996c6.94,42.67,58.15,95.708,82.66,130.934
			c77.282,111.104,157.244,204.379,251.436,301.319c120.524,124.046,283.651,198.214,438.378,272.172
			c34.771,16.614,202.931,73.571,258.361,115.57c69.667,52.781,90.773-89.136,112.598-151.705
			c10.493-30.081,22.157-59.739,34.163-89.253c20.88-51.303,42.701-102.292,59.809-155.012
			c14.594-44.971,20.817-92.165,30.952-138.222c25.228-114.727,43.538-226.213,45.306-344.02
			c0.556-36.938,1.703-71.172-25.315-100.262c-27.182-29.263-80.172-48.999-123.04-70.165
			c-103.518-51.11-204.677-89.41-312.617-128.447c-50.451-18.243-105.424-17.973-158.377-19.055
			c-47.452-0.974-93.308-13.485-140.787-13.724C5201.648,862.807,5195.471,863.46,5189.092,864.657z" style="stroke:black;fill:#ff64ff"/><path id="180641355" parent_id="180641328" order="2" structure_id="811" d="M5309.667,1658.729c35.553,9.29,75.231,10.007,119.073-0.692
			c130.194-31.771,205.635-139.091,217.284-270.88c11.394-128.866-40.802-249.419-150.432-296.426
			c-8.914-3.822-17.597-7.186-26.089-10.138c-0.345,0.54-0.673,1.085-1.024,1.622c0.352-0.537,0.68-1.083,1.024-1.622
			c-110.601-38.454-187.512-4.587-285.769,64.031c-93.071,65.002-112.991,184.228-82.32,279.204
			C5135.145,1528.28,5204.271,1631.19,5309.667,1658.729z" style="stroke:black;fill:#ff7aff"/><path id="180641353" parent_id="180641328" order="3" structure_id="820" d="M5311.494,1669.973c0,0-0.932-5.436-1.929-10.938
			c-105.396-27.539-174.522-130.449-208.252-234.901c-30.671-94.976-10.751-214.202,82.32-279.204
			c98.257-68.618,175.168-102.485,285.769-64.031c34.076-53.269,37.725-116.762,37.921-179.04v-6.009
			c-0.216-0.078-0.433-0.157-0.648-0.235c-62.839-22.726-130.799-16.115-196.188-21.826c-43.308-3.782-86.508-3.487-128.29,7.465
			c-7.749,2.032-15.449,4.429-23.096,7.237c-40.389,14.83-74.151,49.282-107.5,75.505c-32.221,25.336-67.767,51.042-102.605,72.69
			c-24.313,15.106-49.314,28.752-71.512,46.725c-39.247,31.777-87.956,57.117-115.169,101.271
			c-29.593,48.016-27.146,100.951-1.366,150.271c46.903,89.73,104.775,164.908,170.965,240.998
			c49.357,56.74,102.309,110.698,156.974,162.325c37.981,35.871,88.131,62.574,138.891,85.845
			C5284.143,1790.946,5307.412,1745.619,5311.494,1669.973z" style="stroke:black;fill:#ff7aff"/><path id="180641354" parent_id="180641328" order="4" structure_id="828" d="M5882.604,1102.448
			c-43.798-51.502-92.155-93.522-155.216-120.913c-72.228-31.373-146.035-58.906-220.065-85.685v6.009
			c-0.196,62.278-3.845,125.771-37.921,179.04c8.492,2.952,17.175,6.316,26.089,10.138
			c109.63,47.006,161.825,167.56,150.432,296.426c-11.649,131.789-87.09,239.108-217.284,270.88
			c-43.842,10.699-83.521,9.982-119.073,0.692c0.997,5.502,1.929,10.938,1.929,10.938c-4.082,75.646-27.352,120.973-83.716,154.148
			c32.775,15.026,65.806,28.625,95.981,42.325c91.485,41.534,193.935,101.547,294.733,110.505c22.739,2.01,42.423,0.917,65.563-4.51
			c34.732-8.144,54.861-19.342,70.168-51.027c14.117-29.224,30.855-57.141,46.806-85.378
			c48.516-85.889,74.102-181.057,92.121-277.407c13.56-72.507,29.949-144.63,38.172-218.022
			C5941.176,1252.673,5943.438,1173.981,5882.604,1102.448z" style="stroke:black;fill:#ff7aff"/><path id="180641356" parent_id="180641328" order="5" structure_id="771" d="M5308.539,3644.555
			c-17.771-10.617-37.608-11.411-54.066,6.002c-27.649,29.242,8.558,137.672,56.488,128.66
			C5386.538,3764.994,5354.435,3671.983,5308.539,3644.555z" style="stroke:black;fill:#ff9b88"/><path id="180641357" parent_id="180641328" order="6" structure_id="147" d="M5308.539,3644.555
			c45.896,27.429,77.999,120.439,2.422,134.662c-47.931,9.012-84.138-99.418-56.488-128.66
			C5270.931,3633.144,5290.768,3633.938,5308.539,3644.555z" style="stroke:black;fill:#ffc395"/><path id="180641331" parent_id="180641328" order="7" structure_id="354" d="M7186.805,5000.471
			c-7.979-32.628-15.292-65.413-22.123-98.294c-13.583-65.361-25.132-131.13-35.861-197.008
			c-19.953-122.463-60.126-238.882-62.155-364.75l5.495,3.386c-35.636-51.4-80.55-101.058-125.148-144.919
			c-64.461-63.398-143.674-112.68-225.408-151.001c-41.241-19.334-143.993-57.623-166.916,12.861
			c-22.443,69.112,32.922,174.796,42.438,243.896c6.233,45.397,8.28,153.171-50.264,175.292
			c-134.44,50.793-204.085-91.075-250.391-188.594c-65.493-137.914-56.628-289.604-134.538-425.642
			c-164.23-286.753-554.961-385.673-863.085-346.5c-55.397,7.04-108.448,36.041-108.448,36.041
			c20.334,41.118,30.599,98.274,24.884,143.923c-9.702,77.42-91.19,103.816-154.957,124.301
			c-85.448,27.457-172.037,66.849-241.108,125.175c-52.848,44.618-104.064,91.009-155.162,137.694
			c-103.583,94.637-229.577,215.425-262.798,357.122c-9.01,38.379-3.44,78.545-11.967,116.936
			c-6.349,28.568-22.426,46.35-30.628,72.588c-6.287,20.104-0.8,42.888-0.231,64.503c1.375,52.201,3.127,115.96,1.273,168.624
			c-6.122,173.158-2.036,346.064-5.938,519.271c-4.487,199.775-2.207,399.667-5.037,599.488
			c-2.412,169.325-2.529,338.788-3.774,508.139c-0.589,80.67-4.38,162.608-1.563,243.206c0.054,1.649,0.376,3.332,0.364,4.974
			c46.962,99.189,125.308,161,237.332,159.758c104.232-1.154,208.716-29.043,310.679-53.692
			c119.991-29.01,241.588-48.592,362.947-69.461c101.519-17.454,194.312-34.287,291.149-69.34
			c47.902-17.332,96.954-35.46,143.804-55.227c38.669-16.309,76.158-34.447,115.461-49.208
			c86.628-32.544,174.202-69.435,248.244-124.972c76.545-57.42,134.06-136.425,196.71-207.578
			c91.576-104.033,184.033-200.146,289.56-291.365c74.942-64.783,178.512-84.677,268.111-120.487
			c98.42-39.332,172.213-95.479,225.265-189.588c81.236-144.113,125.74-307.689,170.627-465.682l8.021-109.872
			C7218.206,5081.356,7190.632,5016.203,7186.805,5000.471z M5310.961,3779.217c-47.931,9.012-84.138-99.418-56.488-128.66
			c16.458-17.413,36.295-16.619,54.066-6.002C5354.435,3671.983,5386.538,3764.994,5310.961,3779.217z" style="stroke:black;fill:#ff9bcd"/><path id="180641348" parent_id="180641328" order="8" structure_id="112" d="M6925.835,4802.44
			c42.379,22.349,86.509,39.81,126.312,65.936c22.031,14.475,64.771,60.044,92.54,58.256c40.266-2.705,0.896-54.548-7.945-67.271
			c-23.82-34.295-49.834-54.761-86.832-74.755c-67.491-36.464-133.887-74.253-201.038-111.414
			c-39.158-21.667-153.633-95.145-202.926-72.055c-22.253,10.424-30.223,52.938-16.109,70.377
			c16.04,19.81,71.294,20.023,94.638,29.073C6794.393,4727.686,6859.729,4767.578,6925.835,4802.44z" style="stroke:black;fill:#ffa5d2"/><path id="180641346" parent_id="180641328" order="9" structure_id="96" d="M6645.945,4601.138
			c49.293-23.09,163.768,50.388,202.926,72.055c67.151,37.161,133.547,74.95,201.038,111.414
			c36.998,19.994,63.012,40.46,86.832,74.755c7.235,10.412,34.906,47.018,22.654,61.457l17.026,9.228
			c-0.942-4.413-1.814-8.752-2.597-13c-18.505-100.568-38.979-200.912-57.653-301.505c-14.243-76.764-5.934-183.903-28.206-252.439
			c-6.973-21.459-43.167-46.468-57.523-64.145c-81.477-100.384-188.796-213.284-312.934-259.43
			c-126.573-46.981-187.631-3.879-163.857,125.298c9.92,53.905,42.975,100.795,52.642,154.72
			c13.573,75.711-25.496,147.004-18.33,219.021c3.145,31.611,10.186,62.949,18.989,94.08l16.81,3.607
			C6626.368,4621.207,6634.148,4606.663,6645.945,4601.138z" style="stroke:black;fill:#ffa5d2"/><path id="180641347" parent_id="180641328" order="10" structure_id="101" d="M7176.422,4930.046l-17.026-9.228
			c-2.72,3.204-7.396,5.322-14.709,5.813c-27.769,1.788-70.509-43.781-92.54-58.256c-39.803-26.126-83.933-43.587-126.312-65.936
			c-66.105-34.862-131.442-74.755-201.361-101.853c-23.344-9.05-78.598-9.264-94.638-29.073c-6.632-8.194-8.386-21.926-6.074-35.262
			l-16.81-3.607c16.112,56.973,38.155,113.249,53.19,169.225c34.953,130.201,52.123,264.767,68.101,398.292
			c16.839,140.713,4.701,281.021-27.887,418.558c-31.72,133.868-54.022,228.662-136.338,345.021
			c68.882-52.92,147.298-69.613,238.092-103.941c179.365-67.815,245.849-192.722,304.094-341.615
			c40.904-104.572,89.231-248.24,107.205-360.412C7224.409,5089.17,7191.339,4999.891,7176.422,4930.046z" style="stroke:black;fill:#ffa5d2"/><path id="180641349" parent_id="180641328" order="11" structure_id="45" d="M6347.893,4878.338
			c0,0,0.547-10.525,0.206-21.87c-17.562-24.013-37.032-46.032-58.557-65.573c-51.095-46.379-127.11-101.988-193.271-121.415
			l-1.313,0.087c-144.744,33.188-279.641,131.541-220.129,296.85c25.8,71.697,82.202,119.347,128.327,176.682l14.654-5.097
			C6110.279,5099.527,6348.78,4986.998,6347.893,4878.338z" style="stroke:black;fill:#ffa5d2"/><path id="180641350" parent_id="180641328" order="12" structure_id="69" d="M6348.099,4856.468
			c0.341,11.345-0.206,21.87-0.206,21.87c0.888,108.66-237.613,221.189-330.083,259.663l-14.654,5.097
			c2.406,2.991,4.792,6.001,7.137,9.05c59.404,77.261,79.271,177.773,79.641,272.692c0.196,54.718-5.917,103.656-30.693,154.138
			c-18.433,37.572-49.638,82.834-43.638,126.814c7.056,51.857,60.048,56.656,84.589,99.215
			c40.908,47.971,70.972,128.491,140.185,134.178c151.396,12.374,214.626-277.951,231.064-377.746
			C6505.587,5354.115,6485.376,5044.177,6348.099,4856.468z" style="stroke:black;fill:#ffa5d2"/><path id="180641332" parent_id="180641328" order="13" structure_id="661" d="M5568.846,5799.425c38.959,2.15,75.442-2.362,102.386-29.821
			c42.283-43.095,111.159-66.487,157.714-21.157c55.985,54.515,73.693,144.409,140.576,189.269
			c20.411,13.69,39.661,8.639,61.863,14.292c50.964,12.995,62.055,64.146,69.703,110.493
			c22.528,136.521-72.652,222.037-165.063,306.145c-45.729,41.613-113.908,77.109-173.498,93.73
			c-76.143,21.237-136.54-64.263-158.846-124.999c-11.514-31.338-36.641-120.612-84.678-70.135
			c-38.189,40.117-18.618,126.419-17.984,176.037c0.686,53.643-12.712,104.899-51.345,145.467
			c-55.09,57.852-148.128,91.599-208.473,19.117c-45.944-55.198-70.34-141.786-73.773-212.809
			c-4.436-91.586,11.636-174.475,57.023-255.723c26.509-47.479,60.338-90.927,85.566-138.678
			c24.93-47.183,24.88-102.819,45.838-151.583C5393.799,5760.774,5486.808,5794.889,5568.846,5799.425z" style="stroke:black;fill:#ffb3d9"/><path id="180641351" parent_id="180641328" order="14" structure_id="1048" d="M5064.404,6166.542
			c21.263,7.634,47.437,2.054,70.876-14.889l-0.011,0.002c-52.723-59.81-97.415-154.096-116.941-209.769
			c-68.257-194.617-96.078-314.043-116.277-488.911c-18.87-163.337-28.353-316.337-52.201-485.668
			c-5.35-31.808-36.535-54.544-42.942-35.676c-50.972,141.383-252.343,77.697-354.767,54.718l-7.967,26.715
			c-15.125,35.335-11.018,36.103-43.673,91.437c-24.738,41.918-43.872,52.915-43.871,101.48c0,23.121,0.091,93.548-0.177,116.526
			c-0.807,69.125-2.922,113.972-2.035,179.151c1.184,87.036-2.017,182.689-2.017,269.659
			c103.856,98.313,123.503,260.571,105.131,406.386h-0.004c2.369,62.728,18.901,89.819,38.611,95.604
			c27.183-1.639,54.215-4.276,57.917-4.73c46.078-5.622,92.108-12.56,138.662-11.904c43.204,0.602,114.923-12.522,163.271,4.407
			l-0.003,0.005c33.713-6.371,41.194-81.983,84.117-106.856l1.525-0.768c2.67-2.402,5.66-4.473,9.003-6.171
			c53.918-27.4,90.494-10.481,113.779,19.246L5064.404,6166.542z" style="stroke:black;fill:#ffb3d9"/><path id="180641342" parent_id="180641328" order="15" structure_id="136" d="M5724.274,5733.288
			c-19.579,8.137-37.995,20.979-53.043,36.315c-26.943,27.459-63.427,31.972-102.386,29.821
			c-82.038-4.536-175.047-38.65-212.989,49.646c-20.958,48.764-20.908,104.4-45.838,151.583
			c-25.229,47.751-59.058,91.198-85.566,138.678c-11.224,20.091-20.654,40.282-28.426,60.68l-3.979-1.743
			c-75.639-36.711-147.451-181.486-173.719-256.381c-68.256-194.615-96.077-314.04-116.276-488.905
			c-16.919-146.461-27.12-293.637-46.036-439.877c-3.242-25.071-8.857-59.424-19.03-78.922
			c11.021,5.086,31.366,20.346,42.009,29.116c45.309,20.053,106.452,61.71,158.907,78.547c31.509,10.114,81.383,33.063,87.317,4.239
			c12.716,26.279,29.394,35.93,43.136,49.589c61.42,61.047,111.574,131.751,161.262,202.337
			c67.385,95.739,135.048,181.349,204.229,276.02c53.287,72.919,100.572,120.002,182.81,156.622
			C5716.654,5730.652,5724.275,5733.289,5724.274,5733.288z" style="stroke:black;fill:#ffb3d9"/><path id="180641337" parent_id="180641328" order="16" structure_id="106" d="M5750.223,5058.138
			c-146.056,10.087-57.693,118.06-31.714,202.407c8.958,29.06,11.111,95.24,51.976,99.404
			c59.546,6.078,75.053-108.063,73.841-145.687c-2.504-77.653-43.543-130.345-113.663-160.166" style="stroke:black;fill:#ffb3d9"/><path id="180641333" parent_id="180641328" order="17" structure_id="307" d="M4345.146,6419.729
			c21.349-22.04,45.829-47.386,63.611-71.992c16.592-22.959,21.751-47.801,28.01-77.013c-2.029,9.475,109.483-1.189,117.288-2.146
			c46.078-5.622,92.108-12.56,138.662-11.904c53.626,0.747,151.182-19.652,193.448,22.519c18.557,18.52,10.856,40.896,13.177,66.423
			c7.8,85.824-13.924,184.832,47.969,255.557c-31.222,2.958-61.734,9.27-92.753,13.447c-21.136,2.845-73.501,3.845-81.391,29.883
			c-7.756,25.591,7.048,29.274,25.333,38.117c-43.463-7.173-43.055-20.924-80.864-42.898c-28.28-16.438-59.862-31.082-90.11-42.919
			c-30.989-12.127-55.787-24.718-94.184-43.313c-19.227-9.312-51.405-26.573-74.889-28.727c-11.024-1.014-14.454-3.633-25.297-1.413
			c-10.623,2.174-26.1,8.34-36.183,18.513c-6.813-1.512-3.01-13.755-5.807-18.79c-7.492-13.487-12.085-27.575-15.549-40.089
			C4374.129,6477.626,4351.398,6413.274,4345.146,6419.729z" style="stroke:black;fill:#ffb3d9"/><path id="180641339" parent_id="180641328" order="18" structure_id="852" d="M6089.933,5424.84
			c-0.369-94.919-20.236-195.432-79.641-272.692c-2.345-3.049-4.73-6.059-7.137-9.05
			c-46.125-57.335-102.527-104.984-128.327-176.682c-0.702-1.95-1.377-3.891-2.025-5.822l-0.264-0.555
			c-28.602-59.008-30.789-100.789-36.039-165.539c-6-74-110-48-222-52s-142-2-202,22s-102,22-188,56
			c-35.618,12.952-83.088,22.105-111.287,49.212c-33.954,32.641-13.178,61.725,0.136,99.228
			c8.205,23.113,13.564,58.494,14.156,77.724c10.761,28.639,38.808,46.254,59.54,68.21
			c53.244,56.389,98.028,119.859,142.571,183.138c67.385,95.739,135.048,181.349,204.229,276.02
			c52.965,72.479,100,119.433,181.322,155.957c27.71-11.1,67.499-17.858,95.333-5.487c36,16,38,32,102,12
			c47.776-14.93,82.177-44.355,114.02-92.424c9.51-22.975,22.92-45.123,32.72-65.099
			C6084.016,5528.496,6090.129,5479.558,6089.933,5424.84z M5770.484,5359.949c-40.864-4.164-43.018-70.345-51.976-99.404
			c-24.407-79.24-102.84-181.438,7.829-199.777c4.638-0.769,9.204-1.278,9.204-1.278c-3.093,0.214,9.402,1.216,11.208,2.139
			c60.272,30.807,95.27,81.131,97.575,152.635C5845.537,5251.887,5830.03,5366.027,5770.484,5359.949z" style="stroke:black;fill:#ffb3d9"/><path id="180641345" parent_id="180641328" order="19" structure_id="970" d="M4475.378,4658.354
			c42.169,23.332,93.018,33.518,139.076,37.268c43.54,3.541,80.257,2.566,112.923-7.636l-0.003-0.01
			c54.704-5.331-11.54,27.818-8.281,76.516c2.08,31.078,2.823,40.41,10.12,59.133c16.621,42.65,51.399,67.233,63.336,77.748
			c19.551,17.222,19.551,17.222,14.358,30.26c-50.972,141.383-243.446,79.77-345.87,56.79c-9.69-3.147-5.253-22.958,1.818-49.47
			c5.68-21.294,7.486-44.602,11.382-71.08c9.226-62.705,16.325-112.716,1.144-209.525L4475.378,4658.354z" style="stroke:black;fill:#ffb3d9"/><path id="180641343" parent_id="180641328" order="20" structure_id="978" d="M4943.548,6527.049
			c-20.255-48.576-13.697-122.613-11.837-173.993c2.044-56.262-34.559-178.587,18.919-205.766
			c104.909-53.314,144.165,61.158,147.604,111.301c5.04,73.521,44.615,196.949,38.466,266.497
			C5128.058,6622.825,4978.215,6610.178,4943.548,6527.049z" style="stroke:black;fill:#ffb3d9"/><path id="180641344" parent_id="180641328" order="21" structure_id="169" d="M4824.667,4613.865c0.057-0.073,0.107-0.138,0.157-0.219
			c41.231-55.458,53.097-146.233,17.131-208.206c-33.046-56.939-98.712-107.324-156.332-137.062
			c-59.384-30.654-126.085-61.278-184.227-10.438c-7.461,6.519-15.415,25.569-20.774,34.906
			c-28.385,49.458-55.085,91.795-71.263,146.979c-13.432,45.812-25.319,118.316,2.604,161.197
			c43.112,66.192,128.915,88.605,202.491,94.597C4706.163,4703.079,4767.603,4690.502,4824.667,4613.865z" style="stroke:black;fill:#ffb3d9"/><path id="180641336" parent_id="180641328" order="22" structure_id="1069" d="M4942.604,6605.021c-23.473,1.738-46.882,3.98-70.131,7.315
			c-59.775,8.567-147.375,20.972-56.206,71.036c60.533,33.229,139.285,68.435,208.178,79.489
			c86.698,13.909,300.681,10.824,187.984-118.382c-48.319-55.401-109.394-49.182-173.84-45.221
			C5006.688,6601.212,4974.597,6602.646,4942.604,6605.021z" style="stroke:black;fill:#ffb3d9"/><path id="180641341" parent_id="180641328" order="23" structure_id="209" d="M5921.243,4430.169
			c-38.155-17.087-99.048,14.53-170.453-1.448c-72.577-16.239-96.225-63.378-157.786-92.129
			c-83.298-38.919-216.027-21.041-255.196,73.801c-39.326,95.281,20.955,196.622,93.686,261.536
			c84.582,75.472,204.196,75.866,306.63,45.794c109.93-32.284,200.194-47.236,209.611-177.212
			C5952.037,4481.095,5947.88,4442.093,5921.243,4430.169z" style="stroke:black;fill:#ffb3d9"/><path id="180641340" parent_id="180641328" order="24" structure_id="202" d="M4647.41,4231.362c-20.44-9.849-74.883-12.674-75.786-43.463
			c-0.762-25.353,58.204-60.461,74.35-76.478c63.218-62.717,121.521-124.51,191.249-178.633
			c54.947-42.643,129.593-84.755,194.716-106.533c64.576-21.59,127.567,11.429,192.625,4.395
			c91.354-9.858,232.998-62.329,318.396-4.556c79.426,53.742,33.673,166.021,32.952,241.062
			c-0.727,76.15,16.656,177.05-68.799,218.833c-65.024,31.787-132.048,7.319-178.198,74.359
			c-56.664,82.318-28.425,193.509,30.308,266.625c18.846,23.491,54.8,43.511,67.12,71.72c29.16,66.805-56.139,68.364-93.162,76.269
			c-71.928,15.368-138.642,48.064-211.783,60.761c-76.5,13.282-94.936-41.87-135.323-98.749
			c-36.896-51.963-81.603-94.444-97.172-159.762c-14.782-62.082,3.446-124.124-28.818-181.926
			c-28.018-50.16-75.773-81.94-121.256-112.143C4709.679,4263.791,4678.769,4246.466,4647.41,4231.362z" style="stroke:black;fill:#ffb3d9"/><path id="180641338" parent_id="180641328" order="25" structure_id="217" d="M6258.145,4153.535
			c-79.364,130.225-160.313,207.963-308.276,241.176c-91.048,20.43-188.774,36.505-271.501-20.193
			c-78.356-53.726-87.522-103.48-76.949-195.127c7.776-67.358-1.771-135.373,5.352-202.906
			c5.378-51.022,10.252-102.317-24.464-147.7c-35.151-45.936-73.391-51.544-124.042-46.858
			c-108.609,10.066-61.146-51.041-108.284-125.152c-25.453-40.025-164.044-40.34-131.271-105.755
			c12.338-24.625,58.691-28.79,82.441-31.802c156.358-19.859,333.966-4.223,492.511,53.375
			c154.189,56.031,290.36,151.748,371.415,293.13c52.812,92.13,65.798,191.439,89.028,288.791L6258.145,4153.535z" style="stroke:black;fill:#ffb3d9"/><path id="180641334" parent_id="180641328" order="26" structure_id="206" d="M4348.755,6413.301
			c34.393-45.888,58.811-47.401,77.582-101.016c58.71-167.805,63.777-410.604-73.938-540.967L4348.755,6413.301z" style="stroke:black;fill:#ffc6e2"/><path id="180641335" parent_id="180641328" order="27" structure_id="230" d="M4347.417,6437.51
			c57.438,70.213,78.697,261.295-3.659,303.675L4347.417,6437.51z" style="stroke:black;fill:#ffc6e2"/><path id="180641358" parent_id="180641328" order="28" structure_id="512" d="M4390.579,667.058c104.699-2.36,209.818-1.992,313.821,11.522
			c98.162,12.756,209.293,28.548,300.402,68.961c34.071,15.11,69.26,30.221,99.912,51.641c26.549,18.544,45.72,46.862,80.996,48.91
			c-18.848-1.096-68.507,32.163-87.26,40.756c-108.868,49.902-206.358,126.327-305.399,192.699
			c-42.086,28.198-167.439,113.813-157.834,172.813c6.939,42.67,56.062,96.473,80.571,131.698
			c77.285,111.104,161.986,203.808,256.176,300.748c120.524,124.047,280.813,205.812,435.54,279.768
			c34.771,16.615,71.622,26.457,107.175,40.826c53.182,21.497,108.162,50.079,155.835,78.917
			c100.888,61.039,111.6-68.58,133.424-131.149c39.008-111.841,89.935-217.034,116.831-333.281
			c13.812-59.703,29.658-118.542,39.002-179.455c4.681-30.517,7.389-61.272,10.454-91.977
			c5.285-52.96,14.238-110.456,40.346-157.807c32.413-58.788,106.396-22.264,157.991-23.104
			c48.362-0.787,95.862-10.159,144.25-5.425c247.808,24.242,495.228,158.898,702.149,289.616
			c66.334,41.903,144.639,72.336,202.561,125.65c41.835,38.507,81.938,78.526,125.298,114.165
			c44.455,36.541,72.238,89.681,113.573,129.749c23.675,22.952,50.552,30.371,80.697,42.788
			c96.235,39.643,193.767,87.309,273.193,155.446c176.315,151.258,298.122,345.643,374.915,563.085
			c24.057,68.11,42.178,139.451,50.015,211.363c16.171,148.313-3.206,264.752-74.586,395.158
			c-66.148,120.832-151.166,217.982-263.49,298.573c-60.249,43.223-124.885,83.05-191.34,116.17
			c-128.125,63.869-14.985,58.452,60.226,83.199c54.121,17.802,74.306,63.845,104.545,107.114
			c29.641,42.412,80.347,40.554,125.545,49.087c47.278,8.923,98.254,28.254,144.084,44.219
			c413.753,144.129,743.71,696.171,629.863,1129.557c-30.639,116.613-90.806,274.805-171.343,366.756
			c-88.055,100.532-177.778,202.411-283.157,285.571c-82.3,64.949-237.29,146.758-344.317,129.343
			c-86.452-14.065-181.063-68.079-231.741-140.306c-32.317-46.082-52.552-98.703-67.24-152.566
			c-26.585-97.522-37.599-198.264-70.919-294.021c-28.407-81.661-76.183-143.402-141.044-197.696
			c-31.636-26.456-65.769-45.274-102.043-63.98c-42.31-21.828-44.422-56.771-44.487-101.592
			c-0.065-49.121,4.684-97.921-13.295-144.004c-17.177-44.019-35.538-87.041-60.351-127.68
			c-28.096-46.008-55.021-95.892-87.147-139.151c-24.161-32.518-53.009-61.658-76.772-95.896
			c-35.677-51.401-80.641-101.058-125.28-144.921c-64.517-63.397-143.811-112.68-225.628-151.001
			c-41.282-19.336-144.14-57.625-167.07,12.86c-22.469,69.111,32.955,174.796,42.47,243.896
			c6.249,45.396,8.297,153.171-50.305,175.291c-134.571,50.792-204.289-91.076-250.644-188.595
			c-65.55-137.914-56.687-289.605-134.67-425.644c-164.401-286.754-555.083-382.205-863.926-346.505
			c-52.123,6.023-86.136,24.52-133.092,46.278c-43.498,20.149-89.555,38.566-135.317,53.54
			c-96.436,31.546-161.81,46.231-243.266,75.01c-70.29,24.839-150.664,51.78-223.693,61.544
			c-68.224,9.123-132.742-18.553-198.617-31.363L4390.579,667.058z" style="stroke:black;fill:#f0f080"/><path id="180641361" parent_id="180641328" order="29" structure_id="10710" d="M5173.256,3403.809
			c-34.592,21.498-83.681,22.466-121.015,41.702c-34.762,17.905-63.334,43.851-90.547,71.422
			c-26.151,26.499-48.285,56.309-82.404,73.804c-30.867,15.83-78.037,6.583-111.779,5.786
			c-46.461-1.101-91.219,10.453-137.567,8.239c-48.583-2.326-96.534-6.411-144.833-11.962c-37.444-4.301-78.957-7.964-116.885-7.146
			l-1.061,138.571c65.875,12.811,126.51,35.496,194.734,26.37c42.959-5.748,92.382-25.569,132.663-37.854
			c28.815-10.061,67.375-15.915,94.956-25.658c62.382-22.043,101.479-26.667,164.772-45.95
			c48.889-14.895,96.996-29.104,138.36-54.453c5.412-3.34-9.96-0.218-20.883-2.93c-13.179-3.272-22.49-13.016-15.134-26.449
			c21.187-38.672,99.562-78.14,109.382-93.497c34.782-54.431,39.96-103.488,71.701-157.654c-1.485,2.291-2.971,4.602-4.46,6.932
			C5216.447,3339.396,5200.242,3387.034,5173.256,3403.809z" style="stroke:black;fill:#fffc91"/><path id="180641363" parent_id="180641328" order="30" structure_id="10710" d="M4476.562,3204.495
			c34.515-14.487,70.568-20.4,107.509-24.999c34.375-4.267,68.11-12.634,102.548-16.422c29.051-3.186,58.768,0.848,86.923-8.046
			c8.021-2.525,16.3-4.789,24.185-7.567c15.316-5.405,31.294-14.006,46.711-17.339c22.105-4.787,45.131-3.418,67.158-8.604
			c21.233-5.005,37.977-15.737,57.711-24.393c39.854-17.495,87.057-16.268,124.071-40.916
			c53.64-35.748,77.115-76.199,146.319-83.167c70.725-7.119,144.983,16.253,215.918,17.145
			c30.734,0.387,74.321-18.826,98.883-46.281c-2.707-1.944-4.256-2.946-4.256-2.946
			c-216.877-110.41-351.681-108.002-351.681-108.002c-114.645-0.978-226.145,12.492-335.438,48.242
			c-96.927,31.704-183.308,70.651-286.537,88.808c-28.553,5.023-72.096,11.338-108.011,16.333
			c-34.736,4.831-95.819,8.282-95.822,8.282l-1.677,218.917c11.322,6.702,32.791,14.721,39.975,15.536
			C4433.006,3231.574,4457.364,3212.561,4476.562,3204.495z" style="stroke:black;fill:#fffc91"/><path id="180641362" parent_id="180641328" order="31" structure_id="10708" d="M5656.709,3118.403
			c-2.309-96.942-82.676-160.467-102.211-174.499c-24.562,27.456-68.148,46.668-98.883,46.281
			c-70.935-0.892-145.193-24.264-215.918-17.145c-69.204,6.968-92.68,47.419-146.319,83.167
			c-37.015,24.648-84.218,23.421-124.071,40.916c-19.734,8.656-36.478,19.388-57.711,24.393
			c-22.027,5.186-45.053,3.817-67.158,8.604c-15.417,3.333-31.395,11.934-46.711,17.339c-7.885,2.779-16.164,5.042-24.185,7.567
			c-28.155,8.895-57.872,4.861-86.923,8.046c-34.438,3.788-68.172,12.155-102.548,16.422
			c-36.941,4.598-72.995,10.511-107.509,24.999c-19.198,8.066-43.556,27.08-65.512,24.58c-7.184-0.815-28.652-8.834-39.975-15.536
			l-0.715,93.389c11.634,2.488,26.975,11.587,34.795,12.763c15.914,2.39,36.991-2.445,53.024-4.23
			c24.386-2.716,46.68-13.172,70.232-19.191c21.115-5.404,41.48-3.128,62.731-6.053c56.439-7.772,111.876-21.473,166.298-38.099
			c25.1-7.674,49.935-18.185,75.699-23.133c29.176-5.597,59.221-4.007,88.365-9.872c28.352-5.701,57.603-18.268,84.558-28.456
			c69.762-26.345,130.711-69.18,199.174-98.613c38.81-16.687,72.609-46.188,117.165-38.903
			c50.694,8.289,95.381,26.666,146.598,26.363c-48.146,61.826-136.958,46.705-203.525,70.578
			c-34.065,12.215-63.352,37.48-97.813,46.769c-36.604,9.874-71.094-1.596-108.201,14.75
			c-145.381,64.069-280.921,160.545-448.727,162.317c-43.043,0.451-79.496,0.61-122.758,3.164
			c-34.287,2.023-83.801,13.95-118.176,3.16l-1.573,205.413c37.928-0.818,79.44,2.845,116.885,7.146
			c48.299,5.551,96.25,9.636,144.833,11.962c46.348,2.214,91.106-9.34,137.567-8.239c33.742,0.797,80.912,10.044,111.779-5.786
			c34.119-17.496,56.253-47.306,82.404-73.804c27.213-27.571,55.785-53.517,90.547-71.422
			c37.334-19.236,86.423-20.204,121.015-41.702c26.986-16.775,43.191-64.413,60.001-90.728c1.489-2.331,2.975-4.641,4.46-6.932
			c7.539-12.866,16.579-26.021,27.871-39.605c13.544-17.198,28.608-32.979,47.321-47.32c3.115-2.656,6.315-5.328,9.637-8.023
			c23.816-19.325,54.198-29.813,87.426-36.005c17.241-3.556,34.553-5.461,51.983-6.669c59.229-5.068,121.22-4.43,168.207-19.771
			c9.675-3.16,18.512-6.774,26.586-10.791C5656.863,3131.42,5656.863,3124.895,5656.709,3118.403z" style="stroke:black;fill:#ece754"/><path id="180641360" parent_id="180641328" order="32" structure_id="10713" d="M4576.586,2970.005
			c103.229-18.157,189.61-57.104,286.537-88.808c109.294-35.75,220.794-49.22,335.438-48.242c0,0,134.804-2.408,351.681,108.002
			c0,0,1.549,1.002,4.256,2.946c10.184-11.383,17.102-24.182,18.47-37.591c6.112-59.799-69.698-123.085-109.229-156.799
			c-125.408-106.957-289.742-170.076-449.641-205.542c-206.928-45.896-429.075-24.126-637.864-3.998l-3.482,454.646
			c0.003,0,61.086-3.451,95.822-8.282C4504.49,2981.344,4548.033,2975.029,4576.586,2970.005z" style="stroke:black;fill:#fffc91"/><path id="180641376" parent_id="180641328" order="33" structure_id="10713" d="M4716.426,1880.406
			c98.44,169.289,267.83,234.696,447.555,281.406c98.02,25.474,202.373,44.71,303.4,53.145c85.514,7.14,153.72,6.051,224.858,63.027
			c-33.578,43.757,26.14,133.903,32.465,186.972c8.94,74.976,17.373,146.913,35.395,221.832
			c22.666,94.271,43.054,187.163,116.231,256.848c53.315,50.768,93.372,66.889,122.66,60.699
			c-52.859-158.67-101.378-300.598-101.378-300.598c-33.839-85.877-47.684-168.93-87.116-318.772
			c-25.721-97.741-29.094-204.856-60.919-295.224c-17.702,15.763-42.44,18.734-79.063-3.424
			c-47.673-28.838-102.653-57.42-155.835-78.917c-35.553-14.369-72.404-24.211-107.175-40.826
			c-154.728-73.957-315.016-155.721-435.54-279.768c-94.189-96.94-178.891-189.644-256.176-300.748
			c-21.651-31.118-62.503-76.731-76.521-116.362c-70.8-1.466-188.654-3.494-253.285-2.335l-0.999,130.426
			C4679.799,1406.226,4604.012,1687.091,4716.426,1880.406z" style="stroke:black;fill:#fffc91"/><path id="180641377" parent_id="180641328" order="34" structure_id="10711" d="M5876.33,2943.635
			c-73.178-69.685-93.565-162.576-116.231-256.848c-18.021-74.919-26.454-146.856-35.395-221.832
			c-6.325-53.068-66.043-143.214-32.465-186.972c-71.139-56.976-139.345-55.887-224.858-63.027
			c-101.027-8.435-205.381-27.671-303.4-53.145c-179.725-46.71-349.114-112.117-447.555-281.406
			c-112.414-193.315-36.627-474.18-331.443-482.62l-8.748,1142.188c208.79-20.129,430.937-41.898,637.864,3.998
			c159.898,35.465,324.232,98.585,449.641,205.542c39.53,33.714,115.341,97,109.229,156.799
			c-1.368,13.409-8.286,26.208-18.47,37.591c19.535,14.032,99.902,77.557,102.211,174.499c0.154,6.492,0.154,13.017,0.039,19.561
			c155.929-77.573,22.572-307.681-42.958-411.848c41.53,34.298,67.923,90.01,92.29,139.046
			c42.61,85.72,87.605,207.212,192.622,229.605c39.124,8.339,89.412,18.754,137.244,21.191
			c-12.185-37.067-24.687-74.796-36.956-111.625C5969.702,3010.524,5929.646,2994.403,5876.33,2943.635z" style="stroke:black;fill:#ece754"/><path id="180641364" parent_id="180641328" order="35" structure_id="10722" d="M4639.267,1269.695
			c-1.851-5.231-3.24-10.36-4.049-15.336c-9.604-59,115.749-144.614,157.834-172.813c99.041-66.372,196.531-142.797,305.399-192.699
			c18.753-8.593,68.412-41.852,87.26-40.756c-35.276-2.048-54.447-30.366-80.996-48.91c-30.652-21.419-65.841-36.53-99.912-51.641
			c-91.109-40.414-202.24-56.205-300.402-68.961c-104.003-13.514-209.123-13.882-313.821-11.522l-0.709,92.654
			c35.022,0,416.635,33.854,434.915,44.092c128.157,71.782-26.93,105.238-87.685,128.106
			c-97.495,36.696-240.727,143.675-349.197,84.678l-1.921,250.772C4450.612,1266.201,4568.467,1268.229,4639.267,1269.695z" style="stroke:black;fill:#fffc91"/><path id="180641375" parent_id="180641328" order="36" structure_id="10722" d="M5897.612,2703.736
			c0,0,48.519,141.928,101.378,300.598c84.063-17.769,79.398-219.383,44.805-313.397
			c-47.984-130.381-111.471-263.617-108.207-405.506c3.191-138.451,67.814-279.625,97.144-414.706
			c24.496-112.877,27.688-227.938,57.392-339.704c37.159,93.143,88.51,183.95,110.427,282.361
			c27.522,123.567,48.262,251.229,84.995,372.307c31.904,105.141,77.674,216.666,80.882,327.614
			c2.915,100.758-22.357,209.27-43.934,307.198c-21.646,98.244-37.706,207.603,15.353,299.346
			c28.165,48.703,93.483,118.971,160.242,130.46c-4.375-87.239-4.49-216.238-4.53-238.374c-0.17-94.17,42.266-247.988,38.59-306.567
			c-17.505-278.917-136.45-528.53-213.104-790.721c-35.498-121.44-54.897-243.758-93.705-364.982
			c-36.844-115.071-52.649-255.436-99.229-366.699l-4.336-15.873c-51.149-12.574-128.33-50.346-167.783-78.273
			c79.082,55.985-12.961,445.467-33.222,533.066c-26.896,116.247-77.823,221.44-116.831,333.281
			c-13.902,39.856-23.297,106.914-54.36,134.573c31.825,90.368,35.198,197.483,60.919,295.224
			C5849.929,2534.806,5863.773,2617.859,5897.612,2703.736z" style="stroke:black;fill:#fffc91"/><path id="180641365" parent_id="180641328" order="37" structure_id="10720" d="M4737.1,931.91
			c60.755-22.868,215.842-56.324,87.685-128.106c-18.279-10.238-399.893-44.091-434.915-44.092l-1.967,256.876
			C4496.373,1075.585,4639.605,968.605,4737.1,931.91z" style="stroke:black;fill:#ece754"/><path id="180641374" parent_id="180641328" order="38" structure_id="10720" d="M6498.088,3250.309
			c-66.759-11.489-132.077-81.757-160.242-130.46c-53.059-91.744-36.998-201.102-15.353-299.346
			c21.576-97.929,46.849-206.44,43.934-307.198c-3.208-110.949-48.978-222.474-80.882-327.614
			c-36.733-121.079-57.473-248.74-84.995-372.307c-21.917-98.411-73.268-189.219-110.427-282.361
			c-29.704,111.766-32.896,226.827-57.392,339.704c-29.329,135.081-93.952,276.255-97.144,414.706
			c-3.264,141.889,60.223,275.125,108.207,405.506c34.594,94.014,39.259,295.628-44.805,313.397
			c12.27,36.828,24.771,74.558,36.956,111.625c30.702,1.564,60.394-0.159,85.47-7.828c82.525-25.261,51.301-95.819,46.062-159.844
			c-7.483-91.294,8.452-182.704,2.146-274.05c-7.901-114.497-39.384-223.594-24.868-339.569
			c37.943,161.38,58.514,341.162,57.328,507.081c-0.702,98.413,11.496,214.974,59.762,307.658
			c14.654,27.095,24.396,44.789,42.396,63.316c24.671,25.393,49.073,45.28,73.282,60.183
			c34.689,18.608,78.917,31.547,125.353,37.744C6500.883,3296.027,6499.316,3274.816,6498.088,3250.309z" style="stroke:black;fill:#ece754"/><path id="180641373" parent_id="180641328" order="39" structure_id="10674" d="M6225.338,1549.665
			c38.808,121.224,58.207,243.542,93.705,364.982c76.654,262.191,195.6,511.804,213.104,790.721
			c3.676,58.58-38.76,212.397-38.59,306.567c0.04,22.136,0.155,151.135,4.53,238.374c22.673,3.902,45.511,1.036,67.117-11.773
			c96.878-57.442,156.475-245.002,170.667-347.939c18.494-134.169-4.426-278.659-39.135-408.697
			c-25.434-95.279-62.042-202.371-107.883-289.881c-38.662-73.83-89.374-140.492-109.048-222.703
			c-17.917-74.825,26.422-147.524,12.934-220.433c-14.792-80.001-63.418-164.766-95.15-239.504
			c-28.947-68.186-35.306-170.387,65.07-165.718c136.251,6.334,229.947,90.662,347.194,144.713
			c160.522,74.011,357.913,141.292,466.603,290.576c59.921,82.307,75.362,187.291,73.459,285.81
			c-2.405,123.658,0.055,247.693-42.452,366.033c-49.002,10.149-88.182,3.646-136.711,0.547
			c-204.467-13.052-164.979,298.14-155.654,416.781c4.438,56.476-12.349,87.522-17.916,139.884
			c-6.426,60.378,24.987,138.676,35.248,199.448c10.18,60.274,51.885,144.131,110.011,202.313
			c10.024-39.722,19.794-81.322,24.522-109.693c11.83-70.978,33.867-323.324,197.16-488.959
			c185.171-187.827,162.061-588.584,119.98-932.754l0.872-14.395c-9.998-5.384-19.526-11.887-28.584-20.668
			c-41.335-40.068-69.118-93.208-113.573-129.749c-43.36-35.639-83.463-75.658-125.298-114.165
			c-57.922-53.314-136.227-83.747-202.561-125.65c-206.922-130.718-454.342-265.374-702.149-289.616
			c-57.754-5.65-121.856,15.118-177.723,5.767c-4.188-0.701-8.646-1.644-13.315-2.792l4.336,15.873
			C6172.688,1294.229,6188.494,1434.593,6225.338,1549.665z" style="stroke:black;fill:#fffc91"/><path id="180641372" parent_id="180641328" order="40" structure_id="10672" d="M7032.431,3187.453
			c-10.261-60.772-41.674-139.07-35.248-199.448c5.567-52.361,22.354-83.408,17.916-139.884
			c-9.325-118.642-48.813-429.833,155.654-416.781c48.529,3.099,87.709,9.602,136.711-0.547
			c42.507-118.339,40.047-242.375,42.452-366.033c1.903-98.519-13.538-203.502-73.459-285.81
			c-108.689-149.285-306.08-216.565-466.603-290.576c-117.247-54.052-210.943-138.379-347.194-144.713
			c-100.376-4.669-94.018,97.532-65.07,165.718c31.732,74.738,80.358,159.502,95.15,239.504
			c13.488,72.909-30.851,145.608-12.934,220.433c19.674,82.21,70.386,148.873,109.048,222.703
			c45.841,87.51,82.449,194.603,107.883,289.881c34.709,130.038,57.629,274.528,39.135,408.697
			c-14.192,102.937-73.789,290.498-170.667,347.939c-21.606,12.809-44.444,15.675-67.117,11.773
			c1.229,24.507,2.795,45.718,4.789,60.339c79.446,10.602,165.333,1.462,220.885-32.866c27.18-16.797,45.53-42.813,63.123-68.768
			c15.423-24.092,5.099-7.531,19.134-28.19c11.604-19.3,11.604-19.3,17.534-30.46c5.899-11.101,7.908-19.073,13.124-29.296
			c47.949-122.091,21.37-260.325,1.642-388.562c-16.55-107.576-36.181-213.891-52.144-322.381
			c-18.967-128.904-62.973-251.656-35.595-382.58c0.297-1.417,0.611-2.866,0.936-4.33c0.122-0.553,0.246-1.107,0.371-1.661
			c0.193-0.855,0.392-1.719,0.594-2.588c0.312-1.338,0.631-2.68,0.958-4.022c0.145-0.596,0.285-1.186,0.435-1.786
			c0.203-0.82,0.412-1.642,0.621-2.463c0.199-0.789,0.403-1.582,0.61-2.379c0.147-0.566,0.294-1.133,0.444-1.699
			c15.21-57.647,48.325-136.869,101.287-168.057c8.48-5.419,17.858-9.5,28.542-11.568c0.484-0.094,1.165-0.157,2.001-0.195
			c7.12-1.376,14.517-1.922,22.206-1.486c12.202,0.698,30.96,3.472,43.734,10.988c10.077,3.034,16.846,6.669,15.887,10.726
			c-3.998,16.917-16.028,20.802-29.077,22.68c-10.299,2.799-21.386,3.488-31.049,7.133c-22.734,14.142-29.688,39.838-40.477,63.581
			c-1.022,2.251-2.057,4.531-3.098,6.827c-1.096,2.673-2.219,5.326-3.396,7.944c-13.912,30.975-25.342,64.267-34.439,96.982
			c-2.658,9.551-5.777,19.741-6.806,29.654c-11.966,115.579,43.541,224.409,61.707,336.599
			c27.457,169.583,43.794,342.066,50.289,513.942c8.035,212.724,45.641,375.804,191.386,526.987
			c5.35-19.851,11.823-44.336,18.194-69.587C7084.315,3331.584,7042.61,3247.727,7032.431,3187.453z" style="stroke:black;fill:#ece754"/><path id="180641370" parent_id="180641328" order="41" structure_id="10677" d="M7647.751,3649.527
			c0.349-9.53,16.526-22.949,58.046-43.646c66.455-33.12,131.091-72.947,191.34-116.17
			c112.324-80.591,197.342-177.742,263.49-298.573c71.38-130.405,90.757-246.845,74.586-395.158
			c-7.837-71.913-25.958-143.253-50.015-211.363c-76.793-217.443-198.6-411.828-374.915-563.085
			c-79.427-68.137-176.958-115.803-273.193-155.446c-18.612-7.667-35.977-13.432-52.113-22.119l-0.872,14.395
			c42.08,344.17,65.19,744.927-119.98,932.754c-163.293,165.635-185.33,417.981-197.16,488.959
			c-4.729,28.371-14.498,69.971-24.522,109.693c48.559,48.604,108.576,79.292,171.254,63.335
			c51.571-13.128,87.025-67.889,102.376-116.028c13.297-41.695-13.539-108.33,4.51-141.297c9.08-16.605,57.13-33.164,73.301-45.825
			c100.792-78.961,152.617-214.155,189.903-332.033c51.98-164.347-2.956-321.26-42.41-481.294
			c-13.578-55.067-72.195-122.38-26.621-180c44.703-56.517,121.607-15.476,165.815,19.328
			c108.118,85.115,159.587,218.946,202.013,344.657c47.116,139.649,80.582,253.295,71.742,402.673
			c-4.404,74.416-31.989,127.149-55.616,196.006c-20.3,59.176,26.024,93.821,15.507,144.083
			c-9.743,46.393-70.316,62.258-91.117,107.278c-16.136,34.931-17.48,82.563-43.807,111.831
			c-15.477,17.217-65.171,15.922-59.408,44.253c-29.145,16.995-62.17,24.255-90.07,43.25
			c-28.755,19.583-45.732,43.313-81.852,48.217c-40.975,5.569-82.335-7.413-122.05,11.172
			c-27.547,12.888-47.027,34.04-78.643,14.768c0.101-0.191,0.219-0.367,0.322-0.556c-33.781,8.677-68.038,17.698-100.157,29.141
			c2.086-0.568,4.121-1.094,6.085-1.569c4.249,8.65,0.129,17.159-4.922,24.459c-1.446,2.094-2.927,4.202-4.425,6.313
			c47.891-13.186,95.484-27.601,144.369-34.002C7541.433,3660.999,7594.51,3653.949,7647.751,3649.527z" style="stroke:black;fill:#fffc91"/><path id="180641371" parent_id="180641328" order="42" structure_id="10675" d="M7525.911,3629.372
			c39.715-18.585,81.075-5.603,122.05-11.172c36.119-4.905,53.097-28.634,81.852-48.217c27.9-18.995,60.926-26.254,90.07-43.25
			c-5.763-28.331,43.932-27.036,59.408-44.253c26.326-29.268,27.671-76.899,43.807-111.831
			c20.801-45.02,81.374-60.885,91.117-107.278c10.518-50.262-35.807-84.907-15.507-144.083
			c23.627-68.856,51.212-121.59,55.616-196.006c8.84-149.378-24.626-263.023-71.742-402.673
			c-42.426-125.71-93.895-259.542-202.013-344.657c-44.208-34.804-121.112-75.845-165.815-19.328
			c-45.574,57.62,13.043,124.933,26.621,180c39.454,160.035,94.391,316.947,42.41,481.294
			c-37.286,117.877-89.111,253.072-189.903,332.033c-16.171,12.661-64.221,29.22-73.301,45.825
			c-18.049,32.967,8.787,99.602-4.51,141.297c-15.351,48.139-50.805,102.899-102.376,116.028
			c-62.678,15.957-122.695-14.731-171.254-63.335c-6.371,25.25-12.845,49.736-18.194,69.587
			c10.015,10.388,20.529,20.72,31.59,31.007c1.573,1.463,3.169,2.901,4.782,4.322c0.162,0.144,0.325,0.288,0.488,0.431
			c26.916,23.594,59.222,41.408,93.575,53.398c32.075,10.97,66.396,16.896,101.459,18.357c0.19,0.004,0.382,0.013,0.572,0.017
			c22.417,0.442,45.367-0.37,68.307-2.667c59.111-6.852,117.558-25.122,168.323-52.131c31.467-18.626,62.538-42.634,87.06-68.625
			c1.474,0.32,2.795,0.981,3.99,1.888c1.296-1.321,2.583-2.647,3.848-3.984c1.185,5.036,2.095,9.929,2.765,14.693
			c3.315,10.184,3.362,23.728,2.053,30.074c-0.82,3.982-1.808,8.004-2.953,12.034c-2.883,14.083-8.404,26.667-15.969,37.96
			c-8.588,14.859-19.604,28.162-32.917,37.827c-13.133,9.542-28.272,16.599-44.073,22.044c-16.75,7.886-34.492,14.59-52.164,20.479
			c-30.241,10.08-63.578,18.421-97.392,27.106c-0.104,0.189-0.222,0.364-0.322,0.556
			C7478.884,3663.412,7498.364,3642.26,7525.911,3629.372z" style="stroke:black;fill:#ece754"/><path id="180641369" parent_id="180641328" order="43" structure_id="10689" d="M8140.196,3889.5
			c-45.83-15.965-96.806-35.296-144.084-44.219c-45.198-8.533-95.904-6.675-125.545-49.087
			c-30.239-43.27-50.424-89.313-104.545-107.114c-50.839-16.728-118.999-19.675-118.271-39.553
			c-53.241,4.422-106.318,11.471-159.21,18.397c-48.885,6.401-96.479,20.816-144.369,34.002
			c-6.877,9.688-14.307,19.401-22.501,27.761c-6.951,7.099-14.854,11.519-20.242,20.066c-14.308,22.7-19.346,52.943-18.052,79.291
			c3.121,63.441,70.288,88.245,125.716,82.756c54.118-5.358,80.744-58.703,129.894-69.021c40.611-8.529,73.604-11.298,112.933-6.258
			c25.054,3.195,77.729-12.533,82.948,27.566c4.47,34.398-61.954,92.142-92.029,100.293
			c92.402-24.979,211.213,14.814,298.364,43.768c122.634,40.748,293.91,73.555,340.653,209.714
			c14.392,41.938,43.788,74.242,66.106,112.93c36.939,64.036,65.843,133.699,92.941,202.326
			c17.903,45.334,31.067,91.958,42.988,139.15c11.253,44.529,25.572,89.771,29.9,135.64c3.024,32.022-0.735,64.875-8.531,96.007
			c-3.18,12.7-6.104,27.353-12.833,38.677c-7.589,12.773-24.892,25.045-20.324,41.482c10.988,39.49,77.039,24.827,78.176,70.646
			c0.617,24.954-24.375,50.429-39.354,67.594c-15.356,17.6-26.845,37.542-39.928,56.783
			c-26.595,39.129-52.816,78.527-78.565,118.224c-7.507,11.555-14.965,23.281-23.172,34.368
			c-72.258,97.659-181.32,167.556-294.985,208.069c-56.152,20.016-115.271,33.496-174.675,39.069
			c-24.415,2.292-48.368-0.425-72.663-2.428c-15.203-1.257-36.119-0.637-50.323-5.777c-14.178-5.131-24.779-18.289-34.77-28.906
			c-17.549-18.667-36.509-34.517-51.337-55.877c-44.838-64.589-59.268-161.893-27.247-234.853
			c16.646-37.933,47.036-65.41,72.864-96.891c26.339-32.11,49.138-66.896,72.561-101.115c20.553-30.026,29.24-66.944,50.683-97.101
			c50.351-70.82,88.684-213.544,53.551-298.911c-21.446-52.11-140.918-116.793-189.602-142.274
			c-37.019-19.377-67.398-24.513-106.857-33.037c-55.193-11.92-58.131-46.86-96.069-77.928
			c-32.427-26.54-89.598-22.544-117.346-55.038c-8.458-9.966-3.04-39.85-11.445-55.028
			c-33.111-59.707-140.687-68.148-176.847-19.056c56.669,58.255,122.013,123.775,183.491,181.524
			c85.438,80.257,230.521,209.076,239.839,362.24c6.423,105.646-47.886,177.306-93.935,268.306l-7.826,8.145
			c50.958,69.765,79.52,150.907,99.293,251.806c21.499,109.688,38.03,219.933,103.886,313.792
			c50.679,72.227,145.289,126.24,231.741,140.306c107.027,17.415,262.018-64.394,344.317-129.343
			c105.379-83.16,195.103-185.039,283.157-285.571c80.537-91.951,140.704-250.143,171.343-366.756
			C8883.906,4585.671,8553.949,4033.629,8140.196,3889.5z" style="stroke:black;fill:#fffc91"/><path id="180641368" parent_id="180641328" order="44" structure_id="10687" d="M7391.6,4293.664
			c8.405,15.179,2.987,45.063,11.445,55.028c27.748,32.494,84.919,28.498,117.346,55.038c37.938,31.067,40.876,66.008,96.069,77.928
			c39.459,8.524,69.839,13.66,106.857,33.037c48.684,25.481,168.155,90.164,189.602,142.274
			c35.133,85.367-3.2,228.091-53.551,298.911c-21.442,30.156-30.13,67.074-50.683,97.101
			c-23.423,34.22-46.222,69.005-72.561,101.115c-25.828,31.48-56.218,58.958-72.864,96.891
			c-32.021,72.96-17.591,170.264,27.247,234.853c14.828,21.36,33.788,37.21,51.337,55.877c9.99,10.617,20.592,23.775,34.77,28.906
			c14.204,5.141,35.12,4.521,50.323,5.777c24.295,2.003,48.248,4.72,72.663,2.428c59.403-5.573,118.522-19.054,174.675-39.069
			c113.665-40.514,222.728-110.41,294.985-208.069c8.207-11.087,15.665-22.813,23.172-34.368
			c25.749-39.696,51.971-79.095,78.565-118.224c13.083-19.241,24.571-39.184,39.928-56.783
			c14.979-17.165,39.971-42.64,39.354-67.594c-1.137-45.819-67.188-31.156-78.176-70.646c-4.567-16.438,12.735-28.709,20.324-41.482
			c6.729-11.324,9.653-25.977,12.833-38.677c7.796-31.132,11.556-63.984,8.531-96.007c-4.328-45.868-18.647-91.11-29.9-135.64
			c-11.921-47.192-25.085-93.816-42.988-139.15c-27.099-68.627-56.002-138.29-92.941-202.326
			c-22.318-38.688-51.715-70.992-66.106-112.93c-46.743-136.159-218.02-168.966-340.653-209.714
			c-87.151-28.953-205.962-68.747-298.364-43.768c30.075-8.151,96.499-65.895,92.029-100.293
			c-5.219-40.1-57.895-24.371-82.948-27.566c-39.328-5.04-72.321-2.271-112.933,6.258c-49.149,10.318-75.775,63.663-129.894,69.021
			c-55.428,5.489-122.595-19.314-125.716-82.756c-1.294-26.348,3.744-56.591,18.052-79.291c5.388-8.548,13.291-12.968,20.242-20.066
			c9.979-10.181,18.839-22.368,26.926-34.073c5.051-7.3,9.171-15.809,4.922-24.459c-1.964,0.476-3.999,1.001-6.085,1.569
			c-34.172,12.172-65.92,27.089-92.109,47.244c-9.697,7.921-18.748,16.642-26.95,26.289
			c-47.383,55.723-60.588,144.231-12.194,203.02c22.354,27.159,51.547,52.719,82.129,70.375
			c11.201,6.465,23.162,12.343,35.613,17.439c49.672,19.269,103.114,25.353,145.499,12.859c1.598-0.479,3.193-0.969,4.776-1.499
			c-22.682,7.603,76.202,72.422,77.584,73.253c36.689,22.259,71.424,42.553,110.845,60.834
			c130.402,60.481,299.607,144.187,371.707,274.227c51.435,92.779,78.971,197.742,110.423,298.493
			c15.073,48.286,56.85,91.704,57.028,144.236c0.211,62.949-57.351,119.175-95.765,163.435
			c-19.607,22.589-40.188,44.35-61.294,65.572c-18.115,18.214-38.693,34.149-55.46,53.648c-15.936,18.535-34.281,34.2-53.779,48.504
			c-19.168,17.161-39.04,33.535-60.78,48.376c-0.635,0.433-1.466,1.009-2.462,1.692c-2.555,1.842-5.136,3.65-7.764,5.399
			c-5.978,3.981-34.089,26.366-40.584,13.722c-1.506-0.903-2.672-2.303-3.39-4.316c-3.266-9.154,12.292-26.225,17.105-32.316
			c11.873-15.004,25.318-28.412,38.575-41.968c9.991-11.87,20.036-23.672,30.285-35.346c2.948-3.357,5.921-6.649,8.854-9.927
			c1.421-2.056,2.809-4.143,4.156-6.269c5.302-8.366,14.106-17.781,21.21-27.542c4.75-9.113,7.938-19.111,8.562-30.729
			c0.218-4.048,0.913-7.955,1.976-11.744c0.319-2.365,1.119-4.977,2.792-8.189c0.278-0.534,0.576-1.051,0.862-1.578
			c8.77-18.765,26.017-34.426,39.94-48.644c5.144-5.254,11.019-9.623,16.771-14.129c10.595-10.638,20.35-22.045,27.441-35.824
			c22.44-43.621,39.018-90.2,43.112-139.234c1.576-48.915-12.613-96.527-49.679-134.51c-0.978-0.998-1.964-1.991-2.968-2.974
			c-35.277-34.54-91.468-33.899-125.875-70.066c-50.061-52.62-75.027-129.502-121.847-185.412
			c-45.315-54.103-107.407-85.224-165.716-123.399c-58.52-38.31-124.816-70.662-187.779-102.055
			c-95.58-47.645-215.529-160.897-325.274-90.265c-5.1,3.282-9.724,6.667-13.9,10.146c27.899,29.729,68.808,72.911,115.641,121.056
			C7250.913,4225.516,7358.488,4233.957,7391.6,4293.664z" style="stroke:black;fill:#ece754"/><path id="180641367" parent_id="180641328" order="45" structure_id="10692" d="M7638.083,4818.373
			c-9.317-153.164-154.4-281.983-239.839-362.24c-61.479-57.749-126.822-123.27-183.491-181.524
			c-10.776,14.631-15.215,34.369-9.441,59.389c17.382,75.326,60.948,144.283,107.533,202.304
			c18.651,23.231,36.311,46.053,56.007,69.39c50.079,59.339,144.814,118.635,160.442,199.218
			c11.174,57.587-28.981,154.81-103.894,142.706c-25.719-4.161-45.666-25.184-61.629-54.899
			c14.171,39.068,32.144,71.298,58.495,90.478c47.351,34.464,84.474,71.132,114.056,111.631l7.826-8.145
			C7590.197,4995.679,7644.506,4924.019,7638.083,4818.373z" style="stroke:black;fill:#fffc91"/><path id="180641366" parent_id="180641328" order="46" structure_id="10690" d="M7425.4,4947.614
			c74.912,12.104,115.067-85.119,103.894-142.706c-15.628-80.583-110.363-139.879-160.442-199.218
			c-19.696-23.337-37.355-46.158-56.007-69.39c-46.585-58.021-90.151-126.978-107.533-202.304
			c-5.773-25.02-1.335-44.758,9.441-59.389c-46.833-48.145-87.741-91.326-115.641-121.056
			c-62.731,52.231-24.708,125.392,15.076,184.424c16.536,24.532,45.812,41.058,59.962,66.793
			c11.152,20.304,11.881,45.899,21.247,68.042c1.435,3.39,2.958,6.731,4.559,10.031c0.801,1.65,1.62,3.29,2.459,4.92
			c24.303,47.266,63.786,86.375,84.465,135.598c0.017,0.04,0.033,0.082,0.05,0.121c35.146,83.679,48.246,190.393,76.842,269.233
			C7379.734,4922.431,7399.682,4943.453,7425.4,4947.614z" style="stroke:black;fill:#ece754"/><path id="180641359" parent_id="180641328" order="47" structure_id="846" d="M6841.413,3550.296
			c-90.921-24.847-195.127,48.947-219.487,131.979c-27.96,95.307,26.515,164.246,75.861,237.764
			c0.258,0.384,0.516,0.768,0.775,1.152c57.012,85.076,168.347,176.966,281.749,135.354
			c135.961-49.887,80.313-222.332,39.035-320.586C6986.898,3658.682,6927.136,3573.714,6841.413,3550.296z" style="stroke:black;fill:#fffdbc"/><path id="180641380" parent_id="180641328" order="48" structure_id="1009" d="M4410.972,6701.352
			c-5.809-6.233-7.925-17.184-11.126-35.161c-8.464-47.491-37.957-140.281,36.989-143.06c44.686-1.659,94.312,31.248,134.904,48.952
			c49.138,21.438,98.077,43.388,145.896,67.637c14.375,7.286,47.22,43.857,29.476,40.607c-34.413-6.303-125.887-1.271-153.231-0.429
			c-51.405,1.594-100.239,25.751-149.618,28.274C4426.292,6709.092,4416.782,6707.585,4410.972,6701.352z" style="stroke:black;fill:#cccccc"/><path id="180641381" parent_id="180641328" order="49" structure_id="1009" d="M4350.958,6753.684
			c48.089,99.197,108.113,148.427,222.79,147.204c106.707-1.135,213.666-29.005,318.053-53.638l85.36-21.12
			c-27.903-85.89-141.766-130.204-225.698-143.689c-74.553-11.98-154.769-6.73-228.804,6.659
			C4456.293,6701.096,4411.295,6715.328,4350.958,6753.684z" style="stroke:black;fill:#cccccc"/><path id="180641382" parent_id="180641328" order="50" structure_id="1009" d="M4354.495,5130.093
			c88.792-34.746,108.366-183.733,119.742-262.221c16.346-112.776,27.242-229.519-116.038-245.229L4354.495,5130.093z" style="stroke:black;fill:#cccccc"/><path id="180641383" parent_id="180641328" order="51" structure_id="1009" d="M5102.796,5060.646
			c65.297,9.411-22.459-171.641-43.071-208.294c-49.421-87.873-110.926-172.576-220.735-180.44
			c-101.966-7.28-164.213,95.901-83.166,194.876C4805.734,4927.73,5012.532,5047.635,5102.796,5060.646z" style="stroke:black;fill:#cccccc"/><path id="180641384" parent_id="180641328" order="52" structure_id="1009" d="M5548.429,6708.467
			c47.943-17.33,97.037-35.458,143.942-55.225c38.711-16.309,76.232-34.446,115.567-49.206
			c86.718-32.544,174.374-69.434,248.488-124.97c76.62-57.421,134.2-136.425,196.899-207.578
			c76.984-87.363,157.471-170.142,243.212-248.959c61.787-56.804,108.053-108.171,136.955-187.182
			c77.451-211.718,121.885-408.354,94.75-635.178c-23.72-198.243-58.912-464.56-163.129-639.071
			c-34.97-58.561-107.037-70.994-159.325-109.484c-41.431-30.508-75.204-91.808-97.929-137.614
			c-7.01-14.138-59.534-163.371-58.244-163.411c-88.764,2.842-233.751,157.312-215.815,246.461
			c21.47,7.532,44.84,2.721,66.102,8.652c-56.729,49.674-157.348,94.92-136.559,187.932c15.768,70.308,84.74,59.477,140.242,75.907
			c65.868,19.505,141.553,75.355,192.42,121.936c188.927,173.029,219.416,539.024,181.047,773.896
			c-16.376,100.224-79.338,391.826-230.08,379.4c-99.665-8.238-117.801-173.797-204.993-170.074
			c-83.779,3.568-26.681,107.844-2.312,144.515c78.644,118.349,93.396,236.217-2.503,350.569
			c-78.253,93.308-160.704,155.576-276.485,192.808c-116.706,37.523-236.76,77.566-339.523,145.82
			c-34.379,22.832-78.092,78.061-39.138,116.608C5419.748,6762.364,5508.312,6722.978,5548.429,6708.467z" style="stroke:black;fill:#cccccc"/><path id="180641385" parent_id="180641328" order="53" structure_id="1009" d="M5852.376,3597.715
			c-196.731-90.763-423.557-92.204-392.86-91.47c98.133,2.336-134.744,0.956-159.255,30.627
			c-55.311,66.965,166.605,87.878,201.069,92.54c63.359,8.56,122.785,19.081,182.019,43.527
			c59.045,24.362,119.585,45.591,177.185,73.493c38.471,18.633,137.7,58.52,175.693,13.819
			C6073.125,3716.843,5967.147,3650.673,5852.376,3597.715z" style="stroke:black;fill:#cccccc"/><path id="180641386" parent_id="180641328" order="54" structure_id="1009" d="M4375.332,3311.098
			c76.512,19.965,109.902-8.277,162.021-16.86c44.392-7.298,80.7-4.63,126.594-15.249c42.434-9.808,76.438-22.559,117.655-35.657
			c39.974-12.709,98.987-15.205,139.904-24.219c73.526-16.186,131.19-49.768,198.401-84.557
			c61.252-31.703,143.183-85.258,213.521-78.568c15.186,1.446,104.371,20.166,130.81,25.907
			c8.184,1.778-28.033,22.354-40.138,30.748c-22.938,15.912-74.083,18.668-101.008,23.688c-39.28,7.328-69.288,16.153-103.81,34.872
			c-39.898,21.631-67.846,30.112-114.063,30.103c-37.146-0.01-75.462,28.57-116.011,46.295
			c-103.001,45.041-207.686,120.325-322.819,123.844c-66.563,2.028-107.674,7.311-174.236,5.658
			c-29.463-0.718-79.51,10.521-119.876,3.29L4375.332,3311.098z" style="stroke:black;fill:#cccccc"/><path id="180641387" parent_id="180641328" order="55" structure_id="1009" d="M7286.88,4623.36
			c-22.817-54.314-68.532-96.315-91.482-150.549c-9.366-22.143-10.095-47.738-21.247-68.042
			c-14.15-25.735-43.426-42.261-59.962-66.793c-42.434-62.963-82.864-141.998-1.176-194.569
			c109.745-70.633,229.694,42.62,325.274,90.265c62.963,31.393,129.26,63.745,187.779,102.055
			c58.309,38.176,120.4,69.297,165.716,123.399c46.819,55.91,71.786,132.792,121.847,185.412
			c34.407,36.167,90.598,35.526,125.875,70.066c25.207,24.678,49.994,59.564,54.241,95.31c4.07,34.191-9.191,74.58-16.978,107.564
			c-5.688,24.096-14.053,47.174-24.441,69.659c-10.603,22.956-34.135,41.763-53.016,57.916
			c-12.654,10.826-29.569,27.066-34.994,43.063c-2.97,8.778-4.554,18.841-6.254,27.952c-6.859,36.891-33.478,63.653-56.613,92.052
			c-22.585,27.712-45.485,55.305-66.152,84.492c-21.389,66.398,189.383-124.464,280.723-229.684
			c38.414-44.26,95.976-100.485,95.765-163.435c-0.179-52.532-41.955-95.95-57.028-144.236
			c-31.452-100.751-58.988-205.714-110.423-298.493c-72.1-130.04-241.305-213.745-371.707-274.227
			c-39.421-18.281-74.155-38.575-110.845-60.834c-1.382-0.831-100.266-65.65-77.584-73.253
			c-109.979,36.843-301.503-58.072-298.931-184.534c3.893-190.974,216.513-199.708,359.716-247.44
			c82.835-27.606,167.271-72.993,143.259-175.111c-122.398,129.401-390.967,180.545-532.404,48.994
			c-172.038-160.014-214.388-330.655-222.976-557.995c-6.495-171.875-22.832-344.359-50.289-513.942
			c-18.166-112.19-73.673-221.02-61.707-336.599c1.115-10.774,4.492-21.294,7.619-31.61c10.325-34.026,22.006-66.935,36.135-99.589
			c13.612-31.468,27.718-73.483,67.73-79.208c11.1-1.585,40.622-3.296,32.934-22.855c-6.91-17.573-56.7-25.693-73.369-23.097
			c-39.729,6.183-67.245,40.698-87.995,72.179c-25.571,38.795-43.828,84.403-53.339,129.899
			c-27.378,130.924,16.628,253.676,35.595,382.58c15.963,108.49,35.594,214.805,52.144,322.381
			c23.565,153.176,56.933,320.625-38.657,457.776c-21.991,31.533-42.131,66.631-75.899,87.5
			c-95.198,58.828-279.488,43.713-367.772-18.031c-128.155-89.639-154.937-273.418-153.905-418.003
			c1.186-165.918-19.385-345.7-57.328-507.081c-14.516,115.975,16.967,225.073,24.868,339.569
			c6.306,91.347-9.63,182.756-2.146,274.05c5.239,64.024,36.464,134.583-46.062,159.844
			c-64.145,19.618-158.478,0.329-222.714-13.363c-105.017-22.394-150.012-143.885-192.622-229.605
			c-24.367-49.037-50.76-104.749-92.29-139.046c68.924,109.561,212.893,358.449,16.372,422.639
			c-111.718,36.488-213.533-8.146-316.187,69.647c-35.117,26.612-57.419,58.208-80.719,94.68
			c-32.189,50.373-28.704,114.377-73.849,156.531c-21.729,20.292-136.343,84.47-97.377,111.295
			c26.747,18.303,86.908-13.969,110.281-25.547c40.246-19.93,83.685-32.906,128.852-38.119
			c308.842-35.651,699.524,59.694,863.929,346.116c77.984,135.883,69.122,287.395,134.674,425.147
			c46.354,97.413,116.074,239.11,250.645,188.383c58.602-22.096,56.553-129.749,50.303-175.087
			c-9.516-69.021-64.94-174.582-42.471-243.614c22.929-70.401,125.787-32.161,167.069-12.843
			c81.816,38.273,161.111,87.497,225.631,150.822c44.638,43.813,89.604,93.414,125.279,144.758
			c23.765,34.197,52.613,63.305,76.774,95.783c32.127,43.21,59.053,93.038,87.148,138.989
			c24.813,40.599,43.174,83.571,60.351,127.533c17.979,46.033,13.23,94.776,13.297,143.849c0.062,40.825,2.815,87.438,48.316,101.66
			c66.871,20.909-15.921-95.356-25.053-123.963C7316.181,4759.428,7313.47,4686.621,7286.88,4623.36z M6980.331,4053.97
			c-113.402,41.555-224.739-50.229-281.75-135.201c-0.26-0.384-0.519-0.768-0.776-1.151
			c-49.348-73.437-103.822-142.295-75.863-237.496c24.358-82.934,128.565-156.638,219.486-131.824
			c85.723,23.403,145.485,108.264,177.936,185.453C7060.642,3831.89,7116.291,4004.139,6980.331,4053.97z" style="stroke:black;fill:#cccccc"/><path id="180641378" parent_id="180641328" order="56" structure_id="145" d="M4358.431,4616.593c23.37-14.675,23.573-26.747,27.815-50.926
			c7.081-40.432,8.354-81.775,19.397-121.505c12.88-46.271,40.676-103.451,67.14-143.646
			c31.459-47.811,62.705-89.854,103.486-130.433c51.079-50.819,103.584-99.145,156.875-147.625
			c78.756-71.653,164.705-137.642,262.854-180.086c77.409-33.487,216.014-46.586,229.078-151.57
			c5.786-46.543-4.59-104.821-25.181-146.745c1.23,2.519-139.602,57.645-151.216,61.533c-50.128,16.771-95.68,32.851-153.946,49.441
			c-57.243,16.272-119.583,36.828-177.247,51.457c-50.017,12.685-100.855,35.04-151.596,41.87
			c-69.001,9.32-134.258-18.904-200.891-31.965L4358.431,4616.593z" style="stroke:black;fill:#aaaaaa"/><path id="180641379" parent_id="180641328" order="57" structure_id="153" d="M7275.662,4958.698c19.02-13.535,44.002-18.78,66.357-11.899
			c-34.523-33.446-29.007-72.16-28.019-116.812c0.913-41.289,1.733-84.311-13.528-123.427
			c-17.177-44.019-35.538-87.041-60.351-127.68c-28.096-46.008-55.021-95.892-87.147-139.151
			c-20.521-27.634-51.643-82.162-82.277-99.282c2.029,125.868,42.251,242.288,62.222,364.752
			c10.738,65.878,22.295,131.646,35.895,197.007c6.839,32.881,14.161,65.667,22.137,98.294
			c3.838,15.732,31.444,80.888,24.898,94.001C7239.149,5047.841,7226.546,4993.658,7275.662,4958.698z" style="stroke:black;fill:#aaaaaa"/></g>
</g>
</svg>