<svg width="7776" height="6976" xmlns="http://www.w3.org/2000/svg">
<g transform="scale(1.0)">
<g id="180642913" order="1" parent_id="" graphic_group_label_id="28" graphic_group_label="Atlas - Adult Mouse" sub_image_id="100960112" transform=" scale(1.0, 1.0)"><path id="180642921" parent_id="180642913" order="0" structure_id="8" d="M3735.062,654.075
			c176.93-1.371,359.513-11.285,536.617-2.381c211.945,10.657,419.372,67.277,614.026,150.187
			c89.345,38.051,179.762,76.587,256.337,136.327c87.105,67.958,166.354,140.047,277.894,143.924
			c171.224,5.947,338.585,61.352,486.533,146.137c74.946,42.96,143.806,93.511,208.975,150.089
			c60.458,52.486,104.634,122.906,169.486,169.662c74.493,53.71,170.971,59.441,252.981,94.262
			c82.438,35.016,150.855,103.25,213.931,165.165c133.358,130.897,235.469,297.414,290.581,476.167
			c43.344,140.583,93.362,282.209,101.993,430.291c9.741,167.209-93.252,366.961-220.27,381.166
			c84.384,53.298,64.037,119.81,63.503,135.916c-1.614,48.451-34,109.396-56.044,150.895
			c-48.063,90.476-96.566,185.027-156.171,268.461c-117.717,164.789-293.129,334.918-509.185,336.112
			c-98.838,0.532-205.393-25.668-296.866,24.214l-40.84,43.229c163.474,80.145,269.526,336.229,309.636,504.044
			c58.646,245.497,35.218,496.695-83.378,723.368c-113.391,216.703-323.593,380.729-518.188,521.244
			c-104.217,75.249-163.947,119.798-251.231,180.106c-174.571,120.608-352.953,204.152-557.643,262.938
			c-194.932,55.987-425.413,110.706-628.496,68.981c-117.719-24.18-240.434-78.569-325.883-167.674L3735.062,654.075z" style="stroke:black;fill:#bfdae3"/><path id="180642925" parent_id="180642913" order="1" structure_id="354" d="M6238.18,4557.941
			c-40.109-167.814-146.162-423.899-309.636-504.044c-82.783-40.578-177.076-36.604-260.124-79.536
			c-51.776-26.766-96.69-64.918-151.447-86.159c-53.648-20.815-112.565-22.983-165.133-47.29
			c-143.859-66.514-191.802-265.033-371.508-193.843c-180.475,71.481-384.857,97.07-542.39,219.15
			c-70.356,54.528-68.558,48.541-153.321,30.473c-73.852-15.747-167.735,23.764-241.947,22.616
			c-80.375-1.23-154.969,3.822-225.799,2.279l11.115,437.898l-0.032-52.748c49.239-36.248,57.818,13.852,39.448,52.76
			c-10.637,22.531-23.416,40.56-37.889,60.132l43.844,1727.275c85.449,89.104,208.164,143.494,325.883,167.674
			c203.083,41.725,433.564-12.994,628.496-68.981c204.689-58.785,383.071-142.329,557.643-262.938
			c87.284-60.309,147.015-104.857,251.231-180.106c194.596-140.516,404.798-304.541,518.188-521.244
			C6273.397,5054.637,6296.826,4803.438,6238.18,4557.941z" style="stroke:black;fill:#ff9bcd"/><path id="180642937" parent_id="180642913" order="2" structure_id="207" d="M3823.184,4178.145
			c0.294-0.785,0.608-1.581,0.939-2.374c31.508-76.813,212.578-183.563,248.068-258.512l-255.323,4.913L3823.184,4178.145z" style="stroke:black;fill:#ffa5d2"/><path id="180642929" parent_id="180642913" order="3" structure_id="711" d="M4498.471,3945.27
			c8.466,5.146,18.556,10.022,30.429,14.566c67.667,25.855,125.09,44.856,186.596,84.967
			c60.031,39.153,142.27,86.431,216.317,54.569c89.907-38.683,22.831-116.832-26.644-159.146
			c-54.967-47.008-119.559-83.697-163.458-142.093c-24.205-32.203-21.962-47.813-66.471-48.102
			c-40.915-0.264-81.974,30.231-118.118,45.374C4480.709,3827.413,4420.192,3897.706,4498.471,3945.27z" style="stroke:black;fill:#ffa5d2"/><path id="180642931" parent_id="180642913" order="4" structure_id="903" d="M4977.846,3646.044
			c-1.779,0.545-3.564,1.098-5.337,1.673c-17.978,5.771-226.359,67.364-223.155,75.861c28.646,75.79,99.281,149.73,163.601,197.05
			c78.174,57.518,138.913-7.654,215.151-46.185c69.431-35.096,137.636-37.443,213.897-32.423
			C5219.966,3771.386,5149.938,3593.847,4977.846,3646.044z" style="stroke:black;fill:#ffa5d2"/><path id="180642940" parent_id="180642913" order="5" structure_id="659" d="M4337.48,4088.42
			c3.25,3.9,5.609,8.55,6.729,13.97c3.021,14.65-4.83,32.12-16.78,44.591c-12.93,13.5-30.67,21.14-44.64,13.029
			c-12.89-7.49-29.1-50.649-22.42-64.689C4273.01,4068.8,4319.26,4066.59,4337.48,4088.42z" style="stroke:black;fill:#ffa5d2"/><path id="180642939" parent_id="180642913" order="6" structure_id="666" d="M4027.28,3996.54
			c52.63,26.31,71.399,117.59,45.66,167.08l-0.04,0.17c-43.761-1.67-87.131,9.43-124.971,35.67
			c-32.109,22.271-77.99,137.85-106.56,62.51c-30.28-79.89,123.93-218.84,171.89-258.62c3.57-2.96,7.141-5.8,10.71-8.52
			L4027.28,3996.54z" style="stroke:black;fill:#ffa5d2"/><path id="180642941" parent_id="180642913" order="7" structure_id="682" d="M4677.22,4315.32
			c-26.1,47.34-160.93,44.55-219.97,20.79c-0.71-0.301-1.42-0.591-2.11-0.88c-34.09-14.471-66.88-32.211-99.34-50.811l-1.78-7.28
			c-10.64-40.25-21.029-82.59-25.909-123.97l-0.681-6.189c11.95-12.471,19.801-29.94,16.78-44.591
			c-1.12-5.42-3.479-10.069-6.729-13.97c-13.421-36.78-15.95-74.13-36.45-106.939l-3.891-7.881
			c31.57,14.25,63.16,32.62,94.771,53.341c13.83,9.06,27.56,18.43,41.18,28.05c72.9,51.529,142.37,110.54,205.98,172.17
			C4679.98,4266.8,4688.16,4295.47,4677.22,4315.32z" style="stroke:black;fill:#ffa5d2"/><path id="180642938" parent_id="180642913" order="8" structure_id="691" d="M4354.02,4277.14l1.78,7.28
			c-73.63-42.2-145.55-88.82-227.069-111.72c-18.41-5.181-37.16-8.21-55.83-8.91l0.04-0.17c25.739-49.49,6.97-140.771-45.66-167.08
			l-3.311-1.71c90.95-69.4,181.98-62.44,273.17-21.23l3.891,7.881c20.5,32.81,23.029,70.159,36.45,106.939
			c-18.221-21.83-64.471-19.62-77.11,6.9c-6.68,14.04,9.53,57.199,22.42,64.689c13.97,8.11,31.71,0.471,44.64-13.029l0.681,6.189
			C4332.99,4194.55,4343.38,4236.89,4354.02,4277.14z" style="stroke:black;fill:#ffa5d2"/><path id="180642942" parent_id="180642913" order="9" structure_id="429" d="M5534.36,5515.74
			c-55.46-71.29-31.511-241.16-12.931-299.681c5.53-17.409,11.88-39.079,18.521-62.52c16.51-58.271,34.76-127.5,46.359-169.59
			c23.841-86.48,49.03-121.42-4.06-175.91l5.78-6.88c68.05-103.44,123.739-189.54,192.85-281.98
			c47.521-63.6,100.3-181.1,90.61-264.949l-1.71-8.82c124.52,99.229,226.85,232.229,260.29,388.7
			c49.939,233.529,23.649,476.729-128.99,663.569c-76.61,93.79-257.44,226.87-378.061,248.141
			C5581.81,5553.09,5553.4,5540.23,5534.36,5515.74z" style="stroke:black;fill:#ffa5d2"/><path id="180642943" parent_id="180642913" order="10" structure_id="437" d="M5869.78,4245.41
			c-22.141-17.65-44.98-34.23-68.261-49.68c-103.949-68.98-253.439-131.091-373.67-163.141
			c-45.939-12.27-234.939-36.439-234.939-36.439c-123.33,38.13-217.48,148.14-239.91,276.02c-1.63,9.271-2.61,18.08-3,26.47
			c-4.54,99.46,74.61,140.551,155.01,190.44c69.83,43.34,152.73,80.12,224.95,121.16c78.59,44.67,179.1,128.359,245.62,191.229
			c2.35,2.221,4.58,4.41,6.67,6.57l5.78-6.88c68.05-103.44,123.739-189.54,192.85-281.98c47.521-63.6,100.3-181.1,90.61-264.949
			L5869.78,4245.41z" style="stroke:black;fill:#ffa5d2"/><path id="180642928" parent_id="180642913" order="11" structure_id="135" d="M5040.561,5603.059
			c-95.708-9.2-226.602-180.457-49.337-245.163c101.776-37.116,177.416,139.557,120.794,216.111
			C5094.518,5597.652,5068.229,5605.726,5040.561,5603.059z" style="stroke:black;fill:#ffb3d9"/><path id="180642927" parent_id="180642913" order="12" structure_id="839" d="M4391.218,4354.443
			c-74.738-83.301-378.279-252.506-456.382-109.146c-43.227,79.333,1.821,127.096,71.986,130.165
			c40.579,1.775,80.781-8.489,121.327-5.046c37.255,3.162,71.215,19.327,107.58,26.832
			C4261.152,4402.485,4425.941,4424.308,4391.218,4354.443z" style="stroke:black;fill:#ffb3d9"/><path id="180642935" parent_id="180642913" order="13" structure_id="83" d="M4114.586,5942.121
			c43.235,24.966,66.945,63.682,96.891,105.586c52.22,73.076,109.82,146.657,197.389,177.165
			c81.618,28.431,150.911,88.616,220.264,5.842c-35.989-81.644-55.926-73.114-132.993-96.903
			c-75.744-23.377-69.332-72.531-116.504-125.831c-39.211-44.312-100.2-54.992-151.188-79.438
			c-53.796-25.8-100.063-61.332-147.626-97.451c-42.883-32.568-108.362-204.84-177.52-126.532
			c-46.491,52.636-28.703,123.322,21.24,165.222c50.479,42.35,117.055,38.529,174.234,64.255
			C4104.322,5936.533,4109.582,5939.235,4114.586,5942.121z" style="stroke:black;fill:#ffb3d9"/><path id="180642945" parent_id="180642913" order="14" structure_id="136" d="M5179.66,5689.2
			c-26.26-35.771-59.53-73.41-77.73-104.08c3.61-3.22,6.99-6.92,10.09-11.11c44.03-59.54,8.07-179.63-57.96-212.62
			c-10.43-13.51-21.119-23.899-21.119-23.899c-59.58-54.53-221.03-204.99-340.391-329.41c-89.899-93.71-135.78-141.29-202.819-252.5
			c-39.73-65.92-86.921-127.061-131.91-189.38c-15.101-20.92-30.051-41.95-44.57-63.28c-6.94-10.189-13.79-20.46-20.51-30.81
			c-6.57-10.141-15.771-18.91-25.37-27.351c-2.63-21.359,42.13-31.04,79.13-34.26c37.81-3.29,109.41-40.36,133.7-53.45
			c53.899,49.05,92.46,130.17,140.39,183.351c198.12,219.819,458.2,363.46,707.86,515.64c64.27,39.18,128.76,68.6,199.64,93.4
			l11.86,4.1c-6.641,23.44-12.99,45.11-18.521,62.52c-18.58,58.521-42.529,228.391,12.931,299.681
			c21.12,62.18,16.35,112.47-69.86,132.76c-102,24-236,112-274,56C5187.08,5699.46,5183.44,5694.35,5179.66,5689.2z" style="stroke:black;fill:#ffb3d9"/><path id="180642932" parent_id="180642913" order="15" structure_id="955" d="M5210.613,5764.533
			c-40.022,18.777-71.172,34.332-83.633,39.549c-66.802,27.964-92.627-21.231-157.681-8.519
			c-46.688,9.117-51.749,55.69-86.22,83.271c-66.542,53.241-172.862,48.839-143.63,166.738
			c11.649,46.985,43.403,109.539,90.739,128.333c153.308,60.881,331.437-62.185,458.661-132.258
			c56.603-31.192,111.856-81.876,141.551-139.915c29.011-56.726,32.246-111.068,86.967-153.869
			c22.842-17.878,110.02-43.732,116.687-74.058C5661.684,5547.844,5235.841,5752.7,5210.613,5764.533z" style="stroke:black;fill:#ffb3d9"/><path id="180642944" parent_id="180642913" order="16" structure_id="1098" d="M4480.2,4357.05
			c-4.69-4.28-9.51-8.31-14.45-12.06l-8.5-8.88c59.04,23.76,193.87,26.55,219.97-20.79c64.351-53.25,109.09-164.37,195.28-142.82
			c66.91,16.73,68.86,70.57,77.5,126.14c-4.54,99.46,74.61,140.551,155.01,190.44c69.83,43.34,152.73,80.12,224.95,121.16
			c78.59,44.67,179.1,128.359,245.62,191.229c2.35,2.221,4.58,4.41,6.67,6.57c53.09,54.49,27.9,89.43,4.06,175.91
			c-11.6,42.09-29.85,111.319-46.359,169.59l-11.86-4.1c-70.88-24.801-135.37-54.221-199.64-93.4
			c-249.66-152.18-509.74-295.82-707.86-515.64C4572.66,4487.22,4534.1,4406.1,4480.2,4357.05z" style="stroke:black;fill:#ffb3d9"/><path id="180642946" parent_id="180642913" order="17" structure_id="1107" d="M5179.66,5689.2
			c14.78,35.13,26.78,66.39,0.58,89.74c-25.15,12.04-44.17,21.34-53.26,25.14c-66.801,27.97-92.631-21.23-157.681-8.521
			c-46.689,9.12-51.75,55.69-86.22,83.271c-42.061,33.66-100.021,44.28-129.57,77.32c-45.461,5.479-37.298,6.263-64.96-2.682
			c-43.833-14.173-184.442-79.608-250.999-127.469c-49.687-35.729-109.713-76.094-170.291-141.65
			c-57.841-62.594-116.266-149.487-163.299-222.175c-58.982-91.154-85.884-154.683-100.569-185.174
			c-58.702-121.881-2.971-224.428-9.559-296.421c-3.69-40.333-23.91-49.605-22.793-66.48c68.88,24.41,178.7-13.909,228.77-56.899
			c72.801-62.51,101.721-168.58,86.921-261.91c-1.95-12.34-4.73-25.45-8.381-38.86c5.641-30.029,22.69-45.83,34.9-53.51
			c14.52,21.33,29.47,42.36,44.57,63.28c44.989,62.319,92.18,123.46,131.91,189.38c67.039,111.21,112.92,158.79,202.819,252.5
			c119.36,124.42,280.811,274.88,340.391,329.41c0,0,10.689,10.39,21.119,23.899c-18.88-9.43-40.21-11.739-62.84-3.489
			c-177.26,64.699-46.37,235.96,49.34,245.159c22.771,2.2,44.601-2.88,61.37-17.939C5120.13,5615.79,5153.4,5653.43,5179.66,5689.2z
			" style="stroke:black;fill:#ffb3d9"/><path id="180642936" parent_id="180642913" order="18" structure_id="859" d="M4364.088,3928.006
			c5.119,67.333,53.188,93.54,105.401,126.46c65.6,41.369,122.446,107.71,192.762,139.665c49.871,22.665,128.11,16.081,93.7-55.352
			c-30.232-62.761-131.947-96.845-188.387-130.156c-68.398-40.373-128.543-66.807-207.625-80.513" style="stroke:black;fill:#ffb3d9"/><path id="180642926" parent_id="180642913" order="19" structure_id="773" d="M3839.106,4621.396
			c16.968-87.604,47.358-158.085,129.24-199.533c64.635-32.718,144.788-54.813,212.647-15.143
			c62.021,36.247,95.39,123.302,105.74,188.567c14.792,93.33-14.128,199.4-86.926,261.909
			c-54.109,46.46-177.991,87.465-244.574,49.742c-42.984-24.348-101.911-38.053-111.141-91.914
			c-4.789-27.933-6.537-51.835-6.629-82.291C3837.356,4696.958,3832.195,4657.068,3839.106,4621.396z" style="stroke:black;fill:#ffb3d9"/><path id="180642933" parent_id="180642913" order="20" structure_id="230" d="M3864.5,5827.501
			c88.334,52.624,82.214,109.378,50.727,198.804c-27.291,77.493,23.062,111.861,28.862,181.183l-73.487-60.486L3864.5,5827.501z" style="stroke:black;fill:#ffc6e2"/><path id="180642934" parent_id="180642913" order="21" structure_id="222" d="M3852.167,5324.501
			c37.894,128.411,129.164,297.708,10.667,408.666L3852.167,5324.501z" style="stroke:black;fill:#ffc6e2"/><path id="180642947" parent_id="180642913" order="22" structure_id="512" d="M3735.062,654.075
			c176.93-1.371,359.513-11.285,536.617-2.381c211.945,10.657,419.372,67.277,614.026,150.187
			c89.345,38.051,179.762,76.587,256.337,136.327c87.105,67.958,166.354,140.047,277.894,143.924
			c171.224,5.947,338.585,61.352,486.533,146.137c74.946,42.96,143.806,93.511,208.975,150.089
			c60.458,52.486,104.634,122.906,169.486,169.662c74.493,53.71,170.971,59.441,252.981,94.262
			c82.438,35.016,150.855,103.25,213.931,165.165c133.358,130.897,235.469,297.414,290.581,476.167
			c43.344,140.583,93.362,282.209,101.993,430.291c9.741,167.209-93.252,366.961-220.27,381.166
			c84.384,53.298,64.037,119.81,63.503,135.916c-1.614,48.451-34,109.396-56.044,150.895
			c-48.063,90.476-96.566,185.027-156.171,268.461c-117.717,164.789-293.129,334.918-509.185,336.112
			c-98.838,0.532-205.393-25.668-296.866,24.214c-61.141,33.347-40.217,37.286-122.498,15.004
			c-60.108-16.281-122.326-22.293-178.466-51.311c-51.776-26.766-96.69-64.918-151.447-86.159
			c-53.648-20.815-112.565-22.983-165.133-47.29c-143.859-66.514-191.802-265.033-371.508-193.843
			c-180.475,71.481-384.857,97.07-542.39,219.15c-70.356,54.528-68.558,48.541-153.321,30.473
			c-73.852-15.747-167.735,23.764-241.947,22.616c-80.375-1.23-154.969,3.822-225.808,2.279L3735.062,654.075z" style="stroke:black;fill:#f0f080"/><path id="180642978" parent_id="180642913" order="23" structure_id="10725" d="M4195.307,816.906
			c102.377,2.088,212.356-6.825,313.144,14.597c95.092,20.208,171.005,85.997,244.401,145.727
			c79.737,64.899,148.355,137.486,241.54,183.354c33.262,16.371,67.282,37.277,102.14,57.359c0.091-0.078,0.182-0.155,0.273-0.233
			c7.904-6.779,15.82-13.544,23.746-20.3c0.902-0.77,1.806-1.538,2.709-2.308c7.303-6.222,14.61-12.437,21.924-18.646
			c0.947-0.804,1.894-1.608,2.841-2.412c16.099-13.662,32.211-27.306,48.312-40.959c26.794-22.722,60.937-60.844,96.612-86.874
			c-52.845-28.07-100.563-68.727-150.906-108.003c-76.575-59.74-166.992-98.276-256.337-136.327
			c-194.654-82.91-402.081-139.529-614.026-150.187c-177.104-8.904-359.687,1.01-536.617,2.381l3.748,149.716
			C3748.039,856.143,4151.745,816.033,4195.307,816.906z" style="stroke:black;fill:#fffc91"/><path id="180642976" parent_id="180642913" order="24" structure_id="10723" d="M4212.181,1943.557
			c233.806-78.849,400.804-354.769,291.123-593.381c-125.106-272.169-497.423-265.844-749.433-270.121l2.636,430.597l11.118,444.102
			C3914.659,1973.756,4068.793,1991.912,4212.181,1943.557z" style="stroke:black;fill:#ece754"/><path id="180642977" parent_id="180642913" order="25" structure_id="10723" d="M4062.427,1051.419
			c157.85,22.327,331.792,50.061,462.692,138.576c1.474,0.985,3.038,2.053,4.731,3.227c-1.569-1.087-3.15-2.157-4.731-3.227
			c-19.744-13.204,134.258,92.596,226.011,139.19c94.85,48.181,141.192,79.046,119.642,189.376
			c-2.544,13.036-4.835,25.666-6.815,37.963c0.001-0.003,0.001-0.007,0.002-0.01c9.73-55.271,136.025-254.277,167.332-281.9
			c0.011-0.01,0.022-0.02,0.033-0.03c6.136-5.414,12.289-10.808,18.451-16.191c0.001-0.001,0.003-0.002,0.004-0.003
			s0.003-0.002,0.004-0.003c2.446-2.138,4.899-4.269,7.35-6.403c3.562-3.101,7.125-6.2,10.694-9.292
			c0.009-0.008,0.018-0.017,0.027-0.024c0.01-0.008,0.019-0.017,0.028-0.024c3.134-2.716,6.27-5.43,9.409-8.14
			c0.028-0.025,0.057-0.05,0.086-0.075c0.028-0.024,0.057-0.049,0.085-0.074c2.576-2.223,5.154-4.443,7.733-6.664
			c3.695-3.182,7.391-6.365,11.093-9.541c0.051-0.044,0.103-0.088,0.153-0.132c0.03-0.025,0.061-0.051,0.09-0.077
			c-34.857-20.082-68.878-40.988-102.14-57.359c-93.185-45.868-161.803-118.455-241.54-183.354
			c-73.396-59.73-149.31-125.519-244.401-145.727c-100.787-21.421-210.767-12.508-313.144-14.597
			c-43.562-0.873-447.268,39.237-456.497-13.115l5.541,221.311C3759,1045.376,4008.286,1043.76,4062.427,1051.419z" style="stroke:black;fill:#ece754"/><path id="180642950" parent_id="180642913" order="26" structure_id="10728" d="M3953.128,2194.262
			c-42.655-47.59-120.853-56.104-180.931-56.885l1.946,77.745c47.698,3.076,130.068,7.918,195.439,9.319
			C3968.166,2215.401,3963.064,2205.347,3953.128,2194.262z" style="stroke:black;fill:#fffc91"/><path id="180642951" parent_id="180642913" order="27" structure_id="10728" d="M4578.813,2120.918
			c-57.317,11.081-185.69,51.596-212.068,111.219c115.588,11.021,286.433,25.557,390.45,51.807c0.127-1.042,0.254-2.074,0.383-3.126
			c1.145-9.354,2.332-19.11,3.544-29.187c0.013-0.105,0.025-0.21,0.038-0.315c0.184-1.524,0.367-3.058,0.552-4.597
			c0.03-0.254,0.061-0.509,0.092-0.765c0.161-1.352,0.323-2.709,0.486-4.071c0.063-0.529,0.126-1.06,0.189-1.591
			c0.146-1.216,0.29-2.435,0.436-3.659c0.07-0.588,0.14-1.178,0.21-1.768c0.137-1.151,0.273-2.305,0.41-3.463
			c0.082-0.689,0.163-1.383,0.245-2.075c0.132-1.117,0.264-2.234,0.396-3.356c0.084-0.716,0.169-1.437,0.253-2.155
			c0.127-1.078,0.253-2.155,0.38-3.237c0.1-0.856,0.2-1.716,0.301-2.575c0.113-0.972,0.227-1.942,0.34-2.918
			c0.11-0.949,0.221-1.902,0.331-2.854c0.104-0.901,0.209-1.801,0.313-2.706c0.164-1.412,0.327-2.83,0.49-4.249
			c0.051-0.445,0.102-0.886,0.153-1.332c0.218-1.895,0.435-3.796,0.652-5.702c0.037-0.324,0.074-0.651,0.111-0.976
			c0.179-1.572,0.358-3.146,0.537-4.727c0.058-0.508,0.114-1.02,0.173-1.529c0.161-1.431,0.323-2.864,0.484-4.3
			c0.055-0.483,0.108-0.968,0.162-1.451c0.162-1.443,0.324-2.888,0.485-4.335c0.063-0.572,0.127-1.145,0.19-1.716
			c0.149-1.338,0.298-2.678,0.446-4.02c0.075-0.675,0.149-1.352,0.224-2.028c0.139-1.263,0.278-2.527,0.417-3.792
			c0.075-0.688,0.15-1.375,0.226-2.063c0.141-1.283,0.28-2.568,0.42-3.854c0.071-0.662,0.144-1.325,0.215-1.987
			c0.142-1.308,0.283-2.617,0.424-3.927c0.069-0.648,0.139-1.295,0.209-1.944c0.14-1.305,0.279-2.61,0.418-3.917
			c0.074-0.699,0.148-1.398,0.223-2.098c0.133-1.25,0.265-2.502,0.396-3.755c0.076-0.716,0.151-1.432,0.227-2.148
			c0.135-1.287,0.269-2.575,0.403-3.863c0.07-0.68,0.142-1.36,0.212-2.041c0.133-1.286,0.266-2.573,0.398-3.861
			c0.072-0.704,0.145-1.406,0.217-2.11c0.134-1.302,0.266-2.604,0.398-3.906c0.067-0.667,0.136-1.333,0.203-2
			c0.141-1.39,0.28-2.78,0.419-4.17c0.059-0.582,0.117-1.163,0.176-1.744c0.149-1.494,0.297-2.989,0.444-4.483
			c0.049-0.489,0.098-0.978,0.146-1.467c0.194-1.976,0.388-3.951,0.579-5.926c0.035-0.365,0.075-0.755,0.117-1.159
			c0.016-0.146,0.031-0.299,0.048-0.451c0.028-0.271,0.059-0.55,0.09-0.837c0.02-0.179,0.039-0.356,0.06-0.54
			c0.035-0.308,0.071-0.628,0.108-0.952c0.034-0.294,0.069-0.595,0.104-0.902c0.038-0.323,0.076-0.647,0.117-0.985
			c0.029-0.246,0.06-0.499,0.091-0.752c0.036-0.296,0.072-0.596,0.11-0.902c0.032-0.263,0.064-0.526,0.098-0.796
			c0.045-0.36,0.092-0.73,0.139-1.104c0.026-0.206,0.051-0.402,0.077-0.612C4709.84,2097.588,4639.812,2109.122,4578.813,2120.918z" style="stroke:black;fill:#fffc91"/><path id="180642952" parent_id="180642913" order="28" structure_id="10726" d="M3953.128,2194.262
			c9.937,11.085,15.038,21.139,16.455,30.18c44.338,0.951,80.854,0.319,93.416-3.521c40.357-12.337,106.701-16.081,204.261,0
			c21.445,3.535,56.678,7.135,99.485,11.217c26.378-59.623,154.751-100.139,212.068-111.219
			c60.998-11.797,131.026-23.331,199.318-22.805c0.001-0.01,0.003-0.021,0.004-0.032c0.003-0.024,0.006-0.047,0.009-0.071
			c0.021-0.17,0.046-0.355,0.068-0.528c0.079-0.623,0.161-1.258,0.246-1.915c0.004-0.031,0.009-0.064,0.013-0.096
			c0.025-0.197,0.054-0.409,0.08-0.609c0.063-0.48,0.126-0.961,0.191-1.458c0.017-0.129,0.032-0.249,0.05-0.378
			c0.018-0.125,0.033-0.247,0.05-0.373c0.114-0.86,0.233-1.745,0.356-2.653c0.001-0.009,0.002-0.017,0.003-0.025
			c0.005-0.035,0.01-0.07,0.015-0.104c0.096-0.713,0.195-1.442,0.297-2.185c0.028-0.209,0.055-0.409,0.084-0.621
			c0.022-0.162,0.044-0.32,0.066-0.484c0.005-0.038,0.011-0.079,0.016-0.117c0.409-2.973,0.856-6.172,1.339-9.572
			c0.011-0.073,0.021-0.142,0.03-0.214c0.035-0.25,0.072-0.504,0.107-0.756c0.023-0.165,0.048-0.336,0.071-0.502
			c0.073-0.511,0.146-1.025,0.221-1.544c0.036-0.256,0.071-0.503,0.108-0.761c0.031-0.218,0.063-0.432,0.094-0.652
			c0.006-0.043,0.013-0.089,0.02-0.133c0.105-0.741,0.214-1.492,0.323-2.251c0.052-0.362,0.103-0.714,0.155-1.081
			c0.032-0.221,0.065-0.446,0.097-0.669c0.521-3.607,1.075-7.399,1.658-11.361c0.032-0.221,0.064-0.435,0.097-0.656
			c0.019-0.122,0.036-0.242,0.054-0.365c0.048-0.326,0.099-0.665,0.147-0.993c0.381-2.584,0.774-5.237,1.18-7.958
			c0.002-0.014,0.004-0.028,0.006-0.042c0.005-0.034,0.01-0.067,0.015-0.101c0.04-0.273,0.083-0.556,0.124-0.831
			c0.009-0.06,0.018-0.121,0.027-0.181c0.16-1.074,0.32-2.149,0.483-3.242c0.054-0.357,0.107-0.716,0.161-1.075
			c0.126-0.844,0.256-1.704,0.384-2.558c0.06-0.398,0.118-0.79,0.179-1.19c0.03-0.203,0.06-0.399,0.09-0.603
			c0.059-0.387,0.119-0.792,0.178-1.181c0.232-1.543,0.468-3.104,0.706-4.682c0.069-0.459,0.138-0.913,0.207-1.375
			c0.303-2.002,0.61-4.035,0.923-6.09c0.056-0.372,0.113-0.746,0.17-1.119c0.657-4.33,1.335-8.774,2.031-13.323
			c0.058-0.38,0.116-0.759,0.174-1.141c0.347-2.263,0.697-4.548,1.053-6.861c0.036-0.236,0.073-0.476,0.109-0.712
			c0.33-2.144,0.663-4.309,0.999-6.492c0.058-0.369,0.113-0.733,0.17-1.103c0.354-2.289,0.71-4.602,1.071-6.933
			c0.075-0.491,0.152-0.984,0.229-1.477c0.372-2.405,0.746-4.825,1.126-7.271c-75.052-6.279-139.502,20.219-214.441,36.194
			c-137.753,29.357-270.145,66.49-412.375,59.042c-136.924-7.174-264.05-55.769-400.438-73.341l3.457,138.065
			C3832.275,2138.157,3910.473,2146.672,3953.128,2194.262z" style="stroke:black;fill:#ece754"/><path id="180642949" parent_id="180642913" order="29" structure_id="10731" d="M4567.551,2859.728
			c0,0,0.082,0.029,0.227,0.08c0.065,0.023,0.144,0.051,0.239,0.084c0.068,0.024,0.142,0.05,0.225,0.08
			c0.031,0.011,0.061,0.021,0.094,0.033c0.31,0.109,0.71,0.252,1.197,0.426c0.032,0.012,0.063,0.022,0.096,0.034
			c0.507,0.181,1.102,0.394,1.784,0.64c0.048,0.018,0.096,0.035,0.144,0.052c0.703,0.253,1.494,0.539,2.369,0.857
			c0.024,0.009,0.05,0.018,0.074,0.027c0.896,0.326,1.88,0.684,2.947,1.075c0.033,0.013,0.067,0.025,0.102,0.038
			c1.078,0.395,2.24,0.822,3.482,1.282c0.015,0.005,0.029,0.011,0.044,0.017c29.406,10.875,103.486,39.455,168.711,74.327
			c6.757,3.613,51.447,31.173,57.955,34.908c-1.807-45.378,0-90.653-37.518-159.344c-50.487-90.259-146.189-153.633-253.819-186.64
			c-127.136-38.988-256.337-74.826-387.708-96.481c-123.085-20.276-227.504-2.746-346.178-1.616l6.125,244.677
			c182.551,9.665,364.582,4.426,548.157,27.476C4389.175,2808.387,4471.115,2815.103,4567.551,2859.728z" style="stroke:black;fill:#fffc91"/><path id="180642954" parent_id="180642913" order="30" structure_id="10731" d="M3885.771,2284.822
			c38.988-5.383,89.326-25.203,83.813-60.38c-65.371-1.401-147.742-6.244-195.439-9.319l1.782,71.192
			c0.254-0.687,0.824-1.695,1.615-2.399l0.015,0.617C3812.175,2287.328,3851.225,2289.592,3885.771,2284.822z" style="stroke:black;fill:#fffc91"/><path id="180642955" parent_id="180642913" order="31" structure_id="10731" d="M4364.819,2237.001
			c-33.106,96.796,149.217,149.382,212.521,176.608c60.211,25.893,117.687,57.713,172.142,94.308
			c-2.689-39.779-4.361-79.594-4.227-119.391c0.001-0.285,0.007-0.602,0.019-0.946c0.003-0.118,0.01-0.256,0.015-0.381
			c0.01-0.24,0.019-0.479,0.032-0.745c0.008-0.158,0.019-0.337,0.028-0.505c0.015-0.259,0.028-0.515,0.047-0.795
			c0.013-0.189,0.027-0.396,0.041-0.594c0.02-0.288,0.04-0.574,0.063-0.882c0.017-0.217,0.035-0.451,0.054-0.678
			c0.024-0.313,0.049-0.625,0.076-0.957c0.021-0.249,0.044-0.51,0.066-0.77c0.029-0.34,0.059-0.684,0.092-1.042
			c0.023-0.271,0.05-0.553,0.076-0.834c0.034-0.374,0.069-0.752,0.107-1.144c0.027-0.29,0.057-0.587,0.086-0.887
			c0.039-0.408,0.08-0.823,0.123-1.249c0.031-0.313,0.063-0.632,0.096-0.954c0.045-0.439,0.091-0.887,0.138-1.343
			c0.034-0.328,0.068-0.659,0.104-0.996c0.051-0.483,0.103-0.979,0.156-1.48c0.035-0.333,0.071-0.665,0.107-1.005
			c0.059-0.536,0.118-1.085,0.179-1.64c0.036-0.332,0.072-0.663,0.11-1.001c0.063-0.577,0.129-1.17,0.196-1.768
			c0.038-0.346,0.077-0.689,0.116-1.042c0.07-0.617,0.142-1.25,0.214-1.887c0.04-0.35,0.079-0.695,0.12-1.051
			c0.078-0.689,0.16-1.397,0.242-2.108c0.037-0.322,0.073-0.636,0.111-0.963c0.092-0.798,0.188-1.617,0.284-2.441
			c0.03-0.258,0.059-0.507,0.089-0.768c0.114-0.97,0.231-1.962,0.35-2.967c0.017-0.133,0.031-0.261,0.047-0.395
			c0.272-2.3,0.558-4.69,0.855-7.165c0.041-0.34,0.083-0.692,0.125-1.036c0.106-0.889,0.214-1.779,0.324-2.689
			c0.058-0.479,0.117-0.971,0.176-1.455c0.096-0.79,0.191-1.578,0.289-2.383c0.068-0.56,0.138-1.133,0.207-1.701
			c0.094-0.772,0.188-1.545,0.284-2.331c0.071-0.586,0.145-1.184,0.217-1.777c0.087-0.713,0.174-1.424,0.263-2.146
			c0.119-0.979,0.241-1.974,0.363-2.972c0.031-0.256,0.063-0.51,0.094-0.768c1.55-12.634,3.295-26.737,5.158-41.941
			c-104.018-26.25-274.862-40.785-390.45-51.807C4366.033,2233.746,4365.379,2235.365,4364.819,2237.001z" style="stroke:black;fill:#fffc91"/><path id="180642948" parent_id="180642913" order="32" structure_id="10729" d="M4128.195,2531.22
			c131.371,21.655,260.572,57.493,387.708,96.481c107.63,33.007,203.332,96.381,253.819,186.64c0.004-0.281,0.009-0.563,0.014-0.844
			c0.035-2.227,0.067-4.454,0.098-6.681c0.009-0.662,0.019-1.325,0.027-1.987c0.266-20.748,0.278-41.493-0.368-62.26
			c-117.231-140.801-260.665-246.805-459.826-292.33c-164.563-37.614-493.8-40.24-530.649-40.421l2.999,119.786
			C3900.691,2528.474,4005.11,2510.943,4128.195,2531.22z" style="stroke:black;fill:#ece754"/><path id="180642953" parent_id="180642913" order="33" structure_id="10729" d="M4752.101,2543.013
			c-0.471-5.802-0.924-11.604-1.358-17.408c-0.005-0.069-0.01-0.139-0.015-0.208c-0.435-5.814-0.851-11.628-1.243-17.444
			c-0.001-0.012-0.002-0.024-0.003-0.036c-54.455-36.595-111.931-68.415-172.142-94.308
			c-63.304-27.226-245.627-79.813-212.521-176.608c0.56-1.636,1.214-3.255,1.926-4.863c-42.808-4.082-78.04-7.683-99.485-11.217
			c-97.56-16.081-163.903-12.337-204.261,0c-12.562,3.84-49.078,4.472-93.416,3.521c5.514,35.178-44.824,54.997-83.813,60.38
			c-34.546,4.771-73.596,2.506-108.215-0.29l1.695,68.594c289.839,18.302,611.669,23.691,860.92,192.729
			c44.765,30.357,84.991,64.904,121.808,102.541c-3.549-35.008-7.015-70.092-9.864-105.218
			C4752.109,2543.122,4752.105,2543.067,4752.101,2543.013z" style="stroke:black;fill:#ece754"/><path id="180642958" parent_id="180642913" order="34" structure_id="10734" d="M4310.865,2996.618
			c152.437,5.057,345.549,42.159,494.104,5.33c1.162-9.575,1.908-18.991,2.271-28.253c-0.395-0.275-0.779-0.551-1.176-0.825
			c-0.095-0.065-0.19-0.131-0.285-0.197c-1.525-1.052-3.069-2.103-4.634-3.151c-0.085-0.058-0.172-0.115-0.258-0.173
			c-1.578-1.056-3.174-2.109-4.788-3.16c-0.076-0.049-0.151-0.098-0.227-0.147c-1.631-1.06-3.279-2.117-4.945-3.171
			c-0.061-0.039-0.122-0.078-0.184-0.116c-1.687-1.067-3.391-2.13-5.11-3.19c-0.038-0.024-0.077-0.047-0.116-0.071
			c-1.745-1.076-3.507-2.147-5.283-3.215c-0.016-0.009-0.03-0.018-0.045-0.027c-3.602-2.165-7.264-4.314-10.978-6.445
			c-69.317-39.787-156.181-73.351-188.638-85.355c-0.015-0.005-0.029-0.011-0.044-0.017c-1.243-0.459-2.403-0.887-3.482-1.282
			c-0.034-0.013-0.068-0.025-0.102-0.038c-1.067-0.391-2.051-0.75-2.947-1.075c-0.024-0.009-0.05-0.018-0.074-0.027
			c-0.876-0.318-1.665-0.603-2.369-0.857c-0.048-0.017-0.096-0.035-0.144-0.052c-0.682-0.245-1.277-0.459-1.784-0.64
			c-0.032-0.012-0.064-0.023-0.096-0.034c-0.487-0.174-0.888-0.316-1.197-0.426c-0.031-0.011-0.063-0.022-0.094-0.033
			c-0.086-0.03-0.155-0.055-0.225-0.08c-0.094-0.033-0.174-0.061-0.239-0.084c-0.137-0.048-0.227-0.08-0.227-0.08
			c-96.436-44.625-178.376-51.341-231.251-57.971c-183.575-23.05-365.606-17.811-548.157-27.476l5.321,212.542
			C3964.847,2982.997,4141.179,2990.991,4310.865,2996.618z" style="stroke:black;fill:#fffc91"/><path id="180642966" parent_id="180642913" order="35" structure_id="10734" d="M5068.237,3482.393
			c11.178,152.096-153.717,44.763-238.314,28.488c-102.406-19.694-209.269,36.28-301.611,76.703
			c-125.739,55.035-234.618,92.917-374.338,96.49c-88.915,2.264-301.726,19.606-340.667,95.326l3.56,142.188
			c70.839,1.543,145.433-3.51,225.808-2.279c74.212,1.147,168.096-38.363,241.947-22.616
			c84.764,18.068,82.965,24.056,153.321-30.473c157.532-122.08,361.915-147.669,542.39-219.15
			c58.191-23.053,102.564-17.818,140.854,2.051c-12.501-27.694-28.364-55.103-35.662-82.705
			C5078.229,3538.82,5072.972,3510.673,5068.237,3482.393z" style="stroke:black;fill:#fffc91"/><path id="180642961" parent_id="180642913" order="36" structure_id="10732" d="M5009.288,3251.094
			c1.178,1.246,2.322,2.518,3.488,3.773c-0.001-0.001-0.001-0.003-0.002-0.004c-0.891-2.159-1.803-4.329-2.728-6.504
			c-0.268-0.631-0.541-1.265-0.813-1.898c-0.675-1.576-1.358-3.156-2.051-4.74c-0.311-0.71-0.623-1.421-0.938-2.134
			c-0.736-1.669-1.484-3.344-2.241-5.022c-0.246-0.545-0.487-1.088-0.734-1.634c-1.001-2.205-2.019-4.417-3.055-6.637
			c-0.211-0.452-0.429-0.907-0.642-1.36c-0.836-1.782-1.684-3.568-2.543-5.36c-0.345-0.719-0.693-1.439-1.042-2.16
			c-0.775-1.602-1.561-3.208-2.354-4.818c-0.346-0.7-0.688-1.398-1.037-2.099c-1.019-2.046-2.051-4.099-3.1-6.158
			c-0.11-0.216-0.217-0.431-0.327-0.647c-1.16-2.271-2.344-4.55-3.542-6.835c-0.344-0.656-0.695-1.314-1.042-1.971
			c-0.881-1.667-1.771-3.336-2.672-5.01c-0.408-0.757-0.817-1.515-1.229-2.274c-0.934-1.718-1.881-3.441-2.836-5.168
			c-0.34-0.614-0.675-1.226-1.018-1.841c-1.292-2.318-2.603-4.642-3.936-6.973c-0.232-0.407-0.472-0.815-0.705-1.222
			c-1.11-1.933-2.233-3.87-3.372-5.813c-0.44-0.751-0.886-1.503-1.331-2.255c-0.986-1.67-1.984-3.344-2.993-5.02
			c-0.45-0.749-0.898-1.497-1.354-2.246c-1.224-2.02-2.464-4.043-3.72-6.071c-0.218-0.352-0.43-0.702-0.648-1.054
			c-1.474-2.372-2.973-4.75-4.49-7.134c-0.416-0.655-0.842-1.312-1.262-1.967c-1.13-1.763-2.27-3.528-3.424-5.297
			c-0.514-0.788-1.03-1.576-1.549-2.365c-1.16-1.764-2.334-3.532-3.518-5.302c-0.451-0.673-0.896-1.345-1.351-2.02
			c-1.626-2.415-3.271-4.834-4.944-7.26c-0.213-0.31-0.434-0.621-0.648-0.931c-1.465-2.119-2.948-4.242-4.449-6.368
			c-0.537-0.761-1.081-1.523-1.622-2.285c-1.237-1.741-2.487-3.483-3.749-5.229c-0.565-0.783-1.131-1.565-1.701-2.349
			c-1.459-2.004-2.936-4.011-4.426-6.021c-0.34-0.458-0.673-0.915-1.015-1.373c-1.83-2.457-3.687-4.918-5.565-7.384
			c-0.483-0.634-0.976-1.269-1.462-1.903c-1.425-1.859-2.861-3.72-4.314-5.583c-0.632-0.811-1.268-1.622-1.905-2.433
			c-1.414-1.802-2.844-3.606-4.286-5.412c-0.575-0.721-1.146-1.441-1.726-2.163c-2.003-2.493-4.024-4.99-6.079-7.491
			c-0.143-0.174-0.29-0.349-0.433-0.522c-1.911-2.323-3.848-4.649-5.803-6.979c-0.646-0.771-1.302-1.542-1.953-2.313
			c-1.513-1.79-3.038-3.582-4.577-5.375c-0.704-0.819-1.407-1.639-2.116-2.459c-1.711-1.98-3.441-3.963-5.187-5.947
			c-0.484-0.551-0.961-1.101-1.448-1.652c-2.225-2.518-4.477-5.039-6.755-7.564c-0.552-0.612-1.114-1.225-1.67-1.837
			c-1.755-1.934-3.522-3.87-5.31-5.807c-0.772-0.838-1.551-1.678-2.33-2.517c-1.683-1.813-3.381-3.627-5.093-5.442
			c-0.729-0.773-1.454-1.547-2.188-2.321c-2.414-2.545-4.848-5.092-7.319-7.643c-1.029-1.063-2.096-2.126-3.186-3.189
			c-0.109-0.107-0.217-0.214-0.327-0.321c-1.039-1.008-2.109-2.017-3.201-3.025c-0.171-0.158-0.34-0.316-0.513-0.474
			c-1.071-0.983-2.169-1.966-3.288-2.948c-0.199-0.175-0.399-0.35-0.601-0.525c-1.122-0.977-2.264-1.954-3.43-2.93
			c-0.202-0.169-0.408-0.339-0.612-0.508c-1.191-0.992-2.402-1.982-3.639-2.972c-0.159-0.127-0.322-0.255-0.481-0.382
			c-1.271-1.012-2.559-2.023-3.872-3.033c-0.004-0.003-0.007-0.005-0.01-0.008c-0.101-0.077-0.202-0.154-0.303-0.231
			c-1.283-0.984-2.59-1.966-3.912-2.948c-0.186-0.137-0.367-0.274-0.553-0.412c-0.006-0.004-0.012-0.008-0.018-0.013
			c-1.313-0.97-2.648-1.938-3.998-2.905c-0.256-0.183-0.511-0.367-0.768-0.549c-1.039-0.74-2.098-1.479-3.156-2.217
			c-0.363,9.262-1.109,18.678-2.271,28.253c-148.555,36.829-341.667-0.273-494.104-5.33
			c-169.687-5.627-346.019-13.622-517.401-9.795l6.232,248.954c19.358-2.345,339.257-40.82,498.271-41.874
			C4533.155,3192.343,4812.937,3043.332,5009.288,3251.094z" style="stroke:black;fill:#ece754"/><path id="180642964" parent_id="180642913" order="37" structure_id="10732" d="M4153.974,3684.074
			c139.72-3.573,248.599-41.455,374.338-96.49c92.343-40.423,199.205-96.397,301.611-76.703
			c84.598,16.274,249.492,123.607,238.314-28.488c-1.529-9.136-3.006-18.286-4.477-27.436c-0.012-0.072-0.023-0.145-0.035-0.217
			c-22.107-81.505-120.3-153.818-193.072-180.269c-148.458-53.956-266.211-31.883-414.843-1.786
			c-220.972,44.753-429.824,43.229-654.857,13.303l12.353,493.413C3852.248,3703.681,4065.059,3686.338,4153.974,3684.074z" style="stroke:black;fill:#ece754"/><path id="180642975" parent_id="180642913" order="38" structure_id="10677" d="M5148.024,1174.044
			c-0.947,0.804-1.894,1.608-2.841,2.412c-7.313,6.209-14.621,12.424-21.924,18.646c-0.903,0.77-1.807,1.538-2.709,2.308
			c-7.925,6.756-15.842,13.521-23.746,20.3c-0.092,0.078-0.183,0.156-0.273,0.233c53.706,30.94,109.402,59.922,167.385,67.342
			c69.252,8.861,127.076-31.235,208.325-29.203c149.327,3.73,273.919,115.605,423.239,127.332
			c-192.985,104.654-415.699,34.203-614.685,130.91c-120.088,58.357-284.767,81.574-263.788,254.834
			c5.018,41.446,23.241,81.972,49.289,118.89c117.355-61.886,234.141-131.873,275-167.867c25.703-22.642,49.516-35.611,80.717-53.5
			c61.26-35.122,147.959-38.421,216.127-50.14c147.915-25.427,294.074-41.112,444.135-47.915
			c80.449-3.647,157.537,10.2,234.106-1.206c-10.827-5.714-21.344-12.113-31.452-19.401
			c-64.853-46.755-109.028-117.175-169.486-169.662c-65.169-56.579-134.028-107.129-208.975-150.089
			c-147.948-84.785-315.31-140.19-486.533-146.137c-47.075-1.636-88.397-15.422-126.987-35.92
			c-35.676,26.03-69.818,64.152-96.612,86.874C5180.235,1146.738,5164.121,1160.381,5148.024,1174.044z" style="stroke:black;fill:#fffc91"/><path id="180642974" parent_id="180642913" order="39" structure_id="10675" d="M4925.627,1839.733
			c2.703,3.586,5.414,7.161,8.132,10.727c0.506,0.664,1.016,1.324,1.522,1.987c2.256,2.953,4.515,5.901,6.782,8.838
			c0.412,0.533,0.826,1.063,1.237,1.595c2.396,3.097,4.797,6.187,7.207,9.265c0.266,0.339,0.532,0.675,0.797,1.014
			c2.576,3.284,5.159,6.56,7.753,9.82c0.132,0.166,0.265,0.331,0.397,0.497c2.736,3.438,5.483,6.864,8.242,10.275
			c0.022,0.027,0.045,0.055,0.067,0.083c8.566,10.587,17.244,21.037,26.062,31.323c23.733-11.77,48.112-24.264,72.471-37.108
			c-26.048-36.918-44.271-77.444-49.289-118.89c-20.979-173.26,143.7-196.477,263.788-254.834
			c198.985-96.707,421.699-26.256,614.685-130.91c-149.32-11.727-273.912-123.602-423.239-127.332
			c-81.249-2.032-139.073,38.064-208.325,29.203c-57.982-7.42-113.679-36.402-167.385-67.342c-0.029,0.026-0.06,0.051-0.09,0.077
			c-2.58,2.214-5.155,4.435-7.734,6.651c-1.17,1.008-2.342,2.014-3.512,3.021c-1.279,1.102-2.559,2.205-3.838,3.307
			c-1.326,1.144-2.654,2.286-3.98,3.43c-3.177,2.743-6.351,5.49-9.523,8.239c-1.491,1.292-2.979,2.59-4.47,3.884
			c-2.084,1.811-4.17,3.619-6.252,5.433c-2.116,1.842-4.232,3.684-6.346,5.528c-0.336,0.293-0.672,0.585-1.008,0.878
			c-6.163,5.385-12.318,10.78-18.455,16.194c-0.011,0.01-0.022,0.02-0.033,0.03c-31.307,27.623-157.602,226.629-167.332,281.9
			c-0.001,0.003-0.001,0.008-0.002,0.011C4846.856,1662.701,4853.225,1743.693,4925.627,1839.733z" style="stroke:black;fill:#ece754"/><path id="180642973" parent_id="180642913" order="40" structure_id="10680" d="M6082.275,1568.627
			c-150.061,6.803-296.22,22.488-444.135,47.915c-68.168,11.718-154.867,15.018-216.127,50.14
			c-31.201,17.89-55.014,30.858-80.717,53.5c-40.859,35.994-157.645,105.981-275,167.867
			c46.283,65.599,117.273,119.806,182.81,147.529c221.282,93.623,414.827-30.167,594.72-150.347
			c86.298-57.656,165.133-129.191,269.889-149.528c267.61-51.926,501.282,131.264,547.092,390.72
			c29.53,167.242,91.519,314.856,179.283,458.06c45.363,74.03,168.979,236.692,60.24,302.631
			c-62.182,37.71-140.923-5.24-192.767-36.71c-158.641-96.277-312.471-200.703-476.128-288.509
			c-70.461-37.799-137.534-51.418-209.897-80.612c-84.248-33.988-164.158-80.884-254.83-96.378
			c-69.437-11.862-103.559,0.103-114.472,25.886c88.237,54.304,169.284,106.187,201.812,132.974
			c74.398,61.269,249.328,167.29,249.328,167.29c153.298,95.292,233.076,122.045,337.593,163.686
			c107.088,42.663,216.496,95.157,319.21,147.119c58.175,29.43,114.243,53.924,174.091,71.673
			c122.314-23.32,219.627-216.884,210.146-379.627c-8.631-148.082-58.649-289.708-101.993-430.291
			c-55.112-178.753-157.223-345.27-290.581-476.167c-63.075-61.915-131.493-130.149-213.931-165.165
			c-70.882-30.096-152.568-38.467-221.529-74.861C6239.813,1578.827,6162.725,1564.98,6082.275,1568.627z" style="stroke:black;fill:#fffc91"/><path id="180642972" parent_id="180642913" order="41" structure_id="10678" d="M5766.708,2384.904
			c90.672,15.494,170.582,62.39,254.83,96.378c72.363,29.194,139.437,42.813,209.897,80.612
			c163.657,87.807,317.487,192.232,476.128,288.509c51.844,31.47,130.585,74.42,192.767,36.71
			c108.738-65.938-14.877-228.601-60.24-302.631c-87.765-143.203-149.753-290.817-179.283-458.06
			c-45.81-259.457-279.481-442.646-547.092-390.72c-104.756,20.336-183.591,91.872-269.889,149.528
			c-179.893,120.181-373.438,243.97-594.72,150.347c-65.536-27.724-136.526-81.931-182.81-147.529
			c-24.358,12.845-48.737,25.338-72.471,37.108c7.997,9.33,16.112,18.521,24.363,27.559c0.321,0.352,0.644,0.703,0.965,1.054
			c5.753,6.285,11.575,12.49,17.47,18.615c0.529,0.55,1.058,1.103,1.588,1.651c1.764,1.823,3.534,3.639,5.312,5.447
			c0.699,0.711,1.401,1.419,2.103,2.128c5.468,5.529,11.002,10.983,16.605,16.36c1.015,0.974,2.03,1.948,3.051,2.917
			c1.563,1.486,3.131,2.966,4.706,4.439c1.156,1.082,2.319,2.155,3.481,3.23c2.365,2.187,4.743,4.359,7.135,6.518
			c1.492,1.347,2.982,2.695,4.485,4.031c1.398,1.243,2.809,2.476,4.217,3.709c1.422,1.246,2.85,2.488,4.281,3.724
			c1.364,1.177,2.729,2.354,4.104,3.521c1.871,1.592,3.756,3.17,5.645,4.743c1.641,1.367,3.288,2.728,4.942,4.081
			c1.936,1.584,3.877,3.163,5.831,4.729c1.24,0.994,2.488,1.979,3.736,2.966c1.811,1.43,3.629,2.851,5.455,4.264
			c1.154,0.894,2.306,1.79,3.467,2.676c2.813,2.149,5.643,4.282,8.494,6.389c0.876,0.647,1.763,1.283,2.642,1.926
			c2.198,1.608,4.404,3.206,6.626,4.789c1.127,0.804,2.259,1.603,3.392,2.4c2.224,1.563,4.459,3.112,6.706,4.65
			c0.907,0.622,1.809,1.249,2.72,1.866c3.063,2.074,6.149,4.124,9.257,6.15c0.873,0.569,1.756,1.128,2.632,1.692
			c2.403,1.55,4.819,3.086,7.25,4.607c1.048,0.656,2.097,1.31,3.149,1.959c2.725,1.682,5.467,3.345,8.227,4.99
			c0.568,0.339,1.131,0.686,1.702,1.023c3.296,1.95,6.622,3.867,9.969,5.763c0.931,0.526,1.868,1.044,2.802,1.567
			c2.573,1.439,5.162,2.862,7.766,4.269c1.004,0.542,2.006,1.086,3.015,1.624c3.456,1.841,6.931,3.665,10.442,5.448
			c97.354,49.434,200.415,60.306,306.293,69.782c117.2,10.499,236.2,36.15,353.09,53.991c68.346,10.435,163.84,16.45,229.984-8.9
			c67.585-25.899,104.43-95.745,156.866-142.035c15.488,29.388,36.912,35.805,42.171,69.548
			c4.465,28.655-19.951,65.788-26.237,93.011c-22.426,97.186,33.581,118.263,71.049,199.963
			c-81.864-47.967-166.978-83.004-259.04-106.277c-109.423-27.646-218.455-49.348-329.983-66.059
			c-87.473-13.091-175.724,4.11-259.938-27.98c-39.196-14.933-87.288-49.041-118.734-0.589c-0.535,0.824-1.041,1.646-1.528,2.464
			c58.971,35.132,166.296,98.69,264.688,159.244C5663.149,2385.007,5697.271,2373.042,5766.708,2384.904z" style="stroke:black;fill:#ece754"/><path id="180642971" parent_id="180642913" order="42" structure_id="10683" d="M6760.179,3021.858
			c-102.714-51.962-212.122-104.456-319.21-147.119c-104.517-41.641-184.295-68.393-337.593-163.686
			c0,0-174.93-106.021-249.328-167.29c-32.527-26.787-113.574-78.67-201.812-132.974
			c-34.216,80.844,159.777,297.561,209.134,341.783c154.071,138.059,344.809,222.345,537.791,290.883
			c113.294,40.243,478.069,82.058,393.164,270.208c-47.345,104.921-217.964,164.972-309.934,222.939
			c-20.394,150.205-136.012,266.738-297.647,250.537c-152.877-15.324-174.757-158.504-215.572-276.688
			c-58.181-168.47-204.534-284.997-274.358-447.559c-57.078-132.868-146.661-240.617-219.485-366.892
			c-72.042-124.882-163.086-237.387-277.422-326.679c-91.286-71.293-154.95-187.126-260.514-238.743
			c-47.893-23.415-102.987-32.035-159.261-32.467c-0.026,0.209-0.052,0.407-0.077,0.612c-0.047,0.373-0.094,0.744-0.139,1.104
			c-0.033,0.27-0.065,0.533-0.098,0.796c-0.038,0.306-0.074,0.607-0.11,0.902c-0.031,0.253-0.062,0.507-0.091,0.752
			c-0.041,0.337-0.079,0.662-0.117,0.985c-0.035,0.307-0.07,0.608-0.104,0.902c-0.037,0.324-0.073,0.645-0.108,0.952
			c-0.021,0.184-0.039,0.361-0.06,0.54c-0.031,0.287-0.062,0.565-0.09,0.837c-0.017,0.151-0.032,0.304-0.048,0.451
			c-0.042,0.403-0.082,0.793-0.117,1.159c-0.191,1.975-0.385,3.95-0.579,5.926c-0.048,0.489-0.097,0.978-0.146,1.467
			c-0.147,1.495-0.296,2.989-0.444,4.483c-0.059,0.582-0.117,1.163-0.176,1.744c-0.139,1.39-0.278,2.78-0.419,4.17
			c-0.067,0.667-0.136,1.333-0.203,2c-0.133,1.302-0.265,2.604-0.398,3.906c-0.072,0.704-0.145,1.406-0.217,2.11
			c-0.133,1.288-0.266,2.575-0.398,3.861c-0.07,0.681-0.142,1.36-0.212,2.041c-0.135,1.288-0.269,2.576-0.403,3.863
			c-0.075,0.716-0.15,1.432-0.227,2.148c-0.132,1.252-0.264,2.504-0.396,3.755c-0.074,0.7-0.148,1.399-0.223,2.098
			c-0.139,1.307-0.278,2.612-0.418,3.917c-0.07,0.648-0.14,1.296-0.209,1.944c-0.141,1.31-0.282,2.619-0.424,3.927
			c-0.071,0.663-0.143,1.325-0.215,1.987c-0.14,1.286-0.279,2.571-0.42,3.854c-0.075,0.688-0.15,1.376-0.226,2.063
			c-0.139,1.266-0.278,2.529-0.417,3.792c-0.074,0.676-0.148,1.353-0.224,2.028c-0.148,1.342-0.297,2.681-0.446,4.02
			c-0.063,0.572-0.127,1.145-0.19,1.716c-0.161,1.448-0.323,2.892-0.485,4.335c-0.054,0.483-0.107,0.968-0.162,1.451
			c-0.161,1.437-0.323,2.869-0.484,4.3c-0.059,0.509-0.115,1.021-0.173,1.529c-0.179,1.58-0.358,3.154-0.537,4.727
			c-0.037,0.325-0.074,0.651-0.111,0.976c-0.218,1.906-0.435,3.808-0.652,5.702c-0.052,0.445-0.103,0.887-0.153,1.332
			c-0.163,1.419-0.326,2.837-0.49,4.249c-0.104,0.905-0.209,1.805-0.313,2.706c-0.11,0.952-0.221,1.906-0.331,2.854
			c-0.113,0.976-0.227,1.946-0.34,2.918c-0.101,0.859-0.201,1.719-0.301,2.575c-0.127,1.083-0.253,2.159-0.38,3.237
			c-0.084,0.718-0.169,1.438-0.253,2.155c-0.132,1.123-0.264,2.24-0.396,3.356c-0.082,0.692-0.163,1.385-0.245,2.075
			c-0.137,1.159-0.273,2.312-0.41,3.463c-0.07,0.59-0.14,1.18-0.21,1.768c-0.146,1.225-0.29,2.443-0.436,3.659
			c-0.063,0.531-0.126,1.062-0.189,1.591c-0.163,1.363-0.325,2.719-0.486,4.071c-0.031,0.255-0.062,0.51-0.092,0.765
			c-0.185,1.54-0.368,3.072-0.552,4.597c-0.013,0.105-0.025,0.21-0.038,0.315c-1.212,10.076-2.399,19.834-3.544,29.187
			c34.542,22.161,89.07,56.792,146.922,103.682c45.313,36.728,132.907,113.142,151.599,134.258
			c119.026,134.464,201.323,245.715,233.384,296.355c68.313,107.915,131.854,219.258,200.166,326.897
			c130.529,205.656,309.426,377.443,427.341,588.568c27.813,49.814,62.052,121.461,91.503,159.553
			c26.066,33.713,56.351,61.714,86.771,90.178c56.714-1.801,115.084,6.446,170.986,6.146
			c216.056-1.194,391.468-171.323,509.185-336.112c59.604-83.434,108.107-177.985,156.171-268.461
			c22.044-41.499,54.43-102.443,56.044-150.895c0.534-16.105,20.881-82.617-63.503-135.916c3.393-0.379,6.767-0.899,10.123-1.539
			C6874.422,3075.782,6818.354,3051.288,6760.179,3021.858z" style="stroke:black;fill:#fffc91"/><path id="180642970" parent_id="180642913" order="43" structure_id="10681" d="M5439.629,2364.146
			c57.085,52.471,97.248,115.507,149.298,170.91c71.926,76.563,135.155,160.756,206.885,237.5
			c89.171,95.386,177.345,192.789,276.466,278.105c35.607,30.646,70.386,62.517,109.072,89.314
			c19.388,13.424,39.653,25.678,61.163,35.441c14.853,6.741,31.598,13.002,46.902,18.758c5.434,2.046,36.008,3.987,30.539,13.472
			c-3.108,5.392-27.812,2.343-32.824,2.425c-14.137,0.21-69.19-4.271-80.492,5.386c-8.778,7.508-10.222,14.642-10.825,26.111
			c-2.165,41.262-7.864,77.341-24.764,115.521c-4.667,10.553-9.665,20.979-15.245,31.087c-3.638,6.609-17.555,21.849-17.709,28.947
			c3.152-150.05-37.967-250.557-144.23-356.442c-191.681-190.981-357.086-395.011-536.479-597.183
			c-121.463-136.885-250.089-254.436-399.261-360.836c-69.491-49.558-143.694-102.231-228.706-120.311
			c-11.408-2.426-22.526-4.025-33.423-4.937c-0.146,0.945-0.291,1.88-0.437,2.82c-0.171,1.099-0.341,2.197-0.51,3.288
			c-0.18,1.162-0.359,2.321-0.537,3.473c-0.282,1.827-0.563,3.646-0.841,5.447c-0.151,0.98-0.301,1.95-0.45,2.923
			c-0.211,1.365-0.42,2.723-0.627,4.072c-0.128,0.829-0.256,1.663-0.383,2.486c-0.311,2.019-0.616,4.018-0.92,5.999
			c-0.097,0.635-0.193,1.265-0.29,1.896c-0.312,2.033-0.62,4.053-0.923,6.043c-0.043,0.278-0.085,0.553-0.127,0.83
			c-0.301,1.974-0.597,3.921-0.89,5.851c-0.076,0.498-0.152,0.998-0.228,1.493c-0.3,1.979-0.596,3.934-0.888,5.863
			c-0.077,0.516-0.154,1.023-0.231,1.536c-0.229,1.521-0.456,3.023-0.68,4.511c-0.062,0.41-0.124,0.823-0.186,1.229
			c-0.03,0.204-0.062,0.412-0.092,0.615c-0.037,0.242-0.072,0.479-0.108,0.721c-0.376,2.504-0.744,4.964-1.103,7.369
			c-0.005,0.032-0.01,0.065-0.015,0.098c-0.056,0.37-0.108,0.729-0.163,1.097c-0.197,1.321-0.391,2.623-0.581,3.912
			c-0.048,0.317-0.095,0.634-0.141,0.949c-0.146,0.978-0.287,1.937-0.429,2.897c-0.109,0.739-0.219,1.479-0.325,2.208
			c-0.144,0.979-0.287,1.953-0.428,2.911c-0.039,0.268-0.079,0.536-0.117,0.802c-0.187,1.27-0.369,2.524-0.549,3.756
			c-0.024,0.166-0.048,0.327-0.071,0.492c-0.155,1.07-0.309,2.124-0.459,3.165c-0.107,0.737-0.211,1.458-0.314,2.179
			c-0.085,0.588-0.17,1.18-0.253,1.757c-0.092,0.642-0.184,1.28-0.273,1.909c-0.057,0.396-0.112,0.791-0.168,1.182
			c-0.086,0.598-0.17,1.19-0.253,1.776c-0.137,0.965-0.272,1.919-0.402,2.851c-0.027,0.189-0.053,0.374-0.079,0.562
			c-0.005,0.033-0.01,0.068-0.015,0.101c-0.121,0.869-0.241,1.722-0.357,2.561c-0.03,0.217-0.062,0.437-0.091,0.651
			c-0.124,0.896-0.246,1.771-0.364,2.63c-0.076,0.557-0.149,1.097-0.224,1.639c-0.067,0.492-0.135,0.988-0.199,1.466
			c-0.036,0.267-0.071,0.528-0.107,0.791c-0.103,0.763-0.203,1.51-0.3,2.238c-0.046,0.348-0.094,0.703-0.139,1.043
			c-0.043,0.328-0.085,0.646-0.127,0.966c-0.053,0.399-0.104,0.798-0.155,1.186c-0.067,0.518-0.13,1.008-0.193,1.504
			c-0.041,0.317-0.084,0.647-0.123,0.956c56.273,0.433,111.368,9.053,159.261,32.467
			c105.563,51.616,169.228,167.449,260.514,238.743c114.336,89.292,205.38,201.796,277.422,326.679
			c72.824,126.275,162.407,234.024,219.485,366.892c69.824,162.563,216.178,279.089,274.358,447.559
			c40.815,118.185,62.695,261.364,215.572,276.688c161.636,16.201,277.254-100.332,297.647-250.537
			c91.97-57.967,262.589-118.018,309.934-222.939c84.905-188.15-279.87-229.965-393.164-270.208
			c-192.982-68.539-383.72-152.825-537.791-290.883c-49.356-44.222-243.35-260.939-209.134-341.783
			c-98.393-60.554-205.718-124.112-264.688-159.244C5359.577,2298.529,5409.323,2336.287,5439.629,2364.146z" style="stroke:black;fill:#ece754"/><path id="180642969" parent_id="180642913" order="44" structure_id="10686" d="M6008.492,3890.131
			c-29.451-38.092-63.69-109.738-91.503-159.553c-117.915-211.125-296.812-382.912-427.341-588.568
			c-68.312-107.639-131.853-218.982-200.166-326.897c-32.061-50.64-114.357-161.891-233.384-296.355
			c-18.691-21.116-106.285-97.53-151.599-134.258c-57.852-46.89-112.38-81.521-146.922-103.682
			c-2.008,16.403-3.885,31.571-5.541,45.067c-0.031,0.257-0.063,0.512-0.094,0.768c-0.122,1-0.244,1.99-0.363,2.972
			c-0.089,0.722-0.176,1.435-0.263,2.146c-0.073,0.594-0.146,1.19-0.217,1.777c-0.097,0.786-0.19,1.557-0.284,2.331
			c-0.069,0.567-0.139,1.14-0.207,1.701c-0.098,0.805-0.193,1.593-0.289,2.383c-0.059,0.485-0.118,0.976-0.176,1.455
			c-0.11,0.91-0.218,1.8-0.324,2.689c-0.042,0.344-0.084,0.695-0.125,1.036c-0.298,2.474-0.583,4.865-0.855,7.165
			c-0.016,0.134-0.03,0.262-0.047,0.395c-0.118,1.005-0.235,1.998-0.35,2.967c-0.03,0.261-0.059,0.51-0.089,0.768
			c-0.097,0.824-0.192,1.644-0.284,2.441c-0.038,0.327-0.074,0.641-0.111,0.963c-0.082,0.711-0.164,1.419-0.242,2.108
			c-0.041,0.356-0.08,0.701-0.12,1.051c-0.072,0.637-0.145,1.271-0.214,1.887c-0.039,0.353-0.078,0.696-0.116,1.042
			c-0.066,0.597-0.133,1.19-0.196,1.768c-0.038,0.339-0.074,0.669-0.11,1.001c-0.061,0.555-0.12,1.104-0.179,1.64
			c-0.036,0.34-0.072,0.673-0.107,1.005c-0.054,0.502-0.105,0.997-0.156,1.48c-0.036,0.337-0.07,0.668-0.104,0.996
			c-0.047,0.456-0.093,0.903-0.138,1.343c-0.033,0.322-0.064,0.641-0.096,0.954c-0.043,0.426-0.084,0.841-0.123,1.249
			c-0.029,0.299-0.059,0.597-0.086,0.887c-0.038,0.392-0.073,0.77-0.107,1.144c-0.026,0.281-0.053,0.563-0.076,0.834
			c-0.033,0.358-0.063,0.701-0.092,1.042c-0.022,0.259-0.045,0.521-0.066,0.77c-0.027,0.331-0.052,0.644-0.076,0.957
			c-0.019,0.228-0.037,0.46-0.054,0.678c-0.022,0.308-0.043,0.595-0.063,0.882c-0.014,0.199-0.028,0.405-0.041,0.594
			c-0.019,0.281-0.032,0.537-0.047,0.795c-0.01,0.168-0.021,0.347-0.028,0.505c-0.014,0.266-0.022,0.504-0.032,0.745
			c-0.005,0.125-0.012,0.263-0.015,0.381c-0.012,0.344-0.018,0.662-0.019,0.946c-0.135,39.797,1.537,79.612,4.227,119.391
			c142.955,96.069,265.054,225.107,360.877,366.665c62.967,93.015,72.221,200.865,136.663,295.488
			c73.487,107.913,181.006,228.676,280.127,313.953c70.063,60.279,398.691,283.849,306.831,391.75
			c-79.708,93.444-255.944-63.709-324.16-101.368c-113.237-62.533-196.335-70.037-273.275-181.69
			c-76.208-110.595-131.79-238.773-223.768-337.847l0,0c17.499,42.406,28.619,81.5,36.022,116.048
			c5.943,27.738,10.436,55.889,14.962,84.042c1.472,9.15,2.946,18.299,4.477,27.435v0.001c4.734,28.28,9.991,56.428,17.287,84.022
			c7.298,27.603,23.161,55.011,35.662,82.705c79.955,41.491,133.378,146.816,230.653,191.792
			c52.567,24.307,111.484,26.475,165.133,47.29c54.757,21.241,99.671,59.394,151.447,86.159
			c56.14,29.018,118.357,35.029,178.466,51.311c82.281,22.282,61.357,18.343,122.498-15.004
			c39.737-21.669,82.319-28.977,125.88-30.359C6064.843,3951.845,6034.559,3923.844,6008.492,3890.131z" style="stroke:black;fill:#fffc91"/><path id="180642968" parent_id="180642913" order="45" structure_id="10684" d="M4750.728,2525.396
			c0.005,0.069,0.01,0.139,0.015,0.208c0.435,5.804,0.888,11.606,1.358,17.408c0.005,0.055,0.009,0.109,0.014,0.165
			c2.849,35.125,6.315,70.21,9.864,105.218c165.653,169.348,261.91,401.562,388.126,599.476
			c82.272,129.025,179.648,244.68,282.759,357.313c0.775,0.642,1.542,1.287,2.319,1.929c1.801,2.066,1.719,2.162-0.285,0.297
			c-0.68-0.741-1.355-1.484-2.034-2.226c-216.013-178.939-359.417-379.031-499.065-620.897
			c-50.5-87.469-103.929-169.202-164.301-241.713c0.646,20.766,0.632,41.509,0.364,62.256c-0.009,0.662-0.019,1.325-0.027,1.987
			c-0.03,2.227-0.063,4.455-0.098,6.681c-0.005,0.282-0.008,0.564-0.013,0.847c25.852,46.22,39.86,99.481,37.517,159.342
			c0.014,0.01,0.027,0.019,0.041,0.029c0.822,0.573,1.638,1.147,2.448,1.721c0.116,0.083,0.231,0.166,0.349,0.248
			c0.153,0.109,0.307,0.219,0.459,0.328c0.103,0.073,0.205,0.146,0.308,0.219c0.453,0.324,0.904,0.648,1.354,0.973
			c0.161,0.117,0.322,0.233,0.483,0.35c0.655,0.475,1.307,0.951,1.953,1.426c0.179,0.131,0.357,0.262,0.535,0.394
			c0.102,0.075,0.204,0.15,0.306,0.226c0.531,0.393,1.058,0.786,1.582,1.179c0.18,0.135,0.36,0.271,0.54,0.405
			c0.637,0.48,1.269,0.96,1.896,1.441c0.083,0.064,0.168,0.128,0.252,0.192c0.068,0.052,0.137,0.104,0.204,0.157
			c0.695,0.535,1.385,1.069,2.067,1.604c0.076,0.06,0.153,0.119,0.229,0.178c0.582,0.457,1.157,0.914,1.73,1.372
			c0.095,0.076,0.191,0.151,0.285,0.227c0.85,0.679,1.689,1.359,2.518,2.039c0.104,0.086,0.205,0.171,0.31,0.257
			c0.354,0.291,0.705,0.583,1.055,0.874c0.087,0.073,0.176,0.145,0.263,0.218c0.164,0.137,0.328,0.274,0.491,0.412
			c0.215,0.181,0.426,0.361,0.639,0.542c0.481,0.407,0.961,0.815,1.435,1.223c0.252,0.216,0.5,0.432,0.748,0.648
			c0.146,0.126,0.293,0.253,0.438,0.379c0.069,0.061,0.141,0.121,0.21,0.182c0.212,0.186,0.421,0.372,0.632,0.558
			c0.266,0.234,0.528,0.469,0.791,0.703c0.4,0.357,0.799,0.714,1.192,1.071c0.267,0.242,0.532,0.483,0.796,0.725
			c0.07,0.064,0.141,0.127,0.21,0.191c0.052,0.047,0.104,0.095,0.156,0.143c0.263,0.242,0.52,0.483,0.778,0.725
			c0.261,0.242,0.521,0.484,0.779,0.727c0.383,0.361,0.761,0.722,1.137,1.083c0.241,0.231,0.484,0.462,0.723,0.693
			c0.028,0.027,0.058,0.055,0.086,0.083c0.025,0.025,0.052,0.049,0.077,0.074c0.351,0.34,0.692,0.681,1.036,1.022
			c0.201,0.199,0.406,0.397,0.604,0.596c0.59,0.589,1.171,1.179,1.742,1.768c2.472,2.551,4.905,5.098,7.319,7.643
			c0.734,0.774,1.459,1.547,2.188,2.321c1.712,1.815,3.41,3.63,5.093,5.442c0.779,0.839,1.558,1.678,2.33,2.517
			c1.787,1.938,3.555,3.873,5.31,5.807c0.556,0.612,1.118,1.225,1.67,1.837c2.278,2.525,4.53,5.046,6.755,7.564
			c0.487,0.552,0.964,1.102,1.448,1.652c1.745,1.985,3.476,3.967,5.187,5.947c0.709,0.82,1.412,1.64,2.116,2.459
			c1.539,1.794,3.064,3.585,4.577,5.375c0.651,0.771,1.307,1.542,1.953,2.313c1.955,2.33,3.892,4.656,5.803,6.979
			c0.143,0.174,0.29,0.349,0.433,0.522c2.055,2.501,4.076,4.998,6.079,7.491c0.58,0.722,1.15,1.442,1.726,2.163
			c1.442,1.806,2.872,3.61,4.286,5.412c0.638,0.812,1.273,1.623,1.905,2.433c1.453,1.864,2.89,3.725,4.314,5.583
			c0.486,0.634,0.979,1.27,1.462,1.903c1.879,2.466,3.735,4.928,5.565,7.384c0.342,0.458,0.675,0.915,1.015,1.373
			c1.491,2.01,2.967,4.017,4.426,6.021c0.57,0.784,1.136,1.566,1.701,2.349c1.262,1.746,2.512,3.489,3.749,5.229
			c0.541,0.762,1.085,1.524,1.622,2.285c1.501,2.126,2.984,4.249,4.449,6.368c0.215,0.31,0.436,0.621,0.648,0.931
			c1.673,2.426,3.318,4.845,4.944,7.26c0.454,0.674,0.899,1.346,1.351,2.02c1.184,1.771,2.357,3.538,3.518,5.302
			c0.519,0.789,1.035,1.577,1.549,2.365c1.154,1.769,2.294,3.535,3.424,5.297c0.42,0.655,0.846,1.313,1.262,1.967
			c1.518,2.384,3.017,4.763,4.49,7.134c0.219,0.352,0.431,0.702,0.648,1.054c1.256,2.028,2.496,4.052,3.72,6.071
			c0.455,0.75,0.903,1.498,1.354,2.246c1.009,1.676,2.007,3.35,2.993,5.02c0.445,0.752,0.891,1.504,1.331,2.255
			c1.139,1.942,2.262,3.879,3.372,5.813c0.233,0.407,0.473,0.815,0.705,1.222c1.333,2.331,2.644,4.655,3.936,6.973
			c0.343,0.615,0.678,1.227,1.018,1.841c0.955,1.727,1.902,3.449,2.836,5.168c0.412,0.759,0.821,1.517,1.229,2.274
			c0.901,1.674,1.791,3.343,2.672,5.01c0.347,0.657,0.698,1.315,1.042,1.971c1.198,2.285,2.382,4.564,3.542,6.835
			c0.11,0.216,0.217,0.431,0.327,0.647c1.049,2.059,2.081,4.111,3.1,6.158c0.349,0.701,0.691,1.399,1.037,2.099
			c0.794,1.609,1.579,3.216,2.354,4.818c0.349,0.72,0.697,1.441,1.042,2.16c0.859,1.792,1.707,3.578,2.543,5.36
			c0.213,0.453,0.431,0.908,0.642,1.36c1.036,2.22,2.054,4.432,3.055,6.637c0.247,0.546,0.488,1.089,0.734,1.634
			c0.757,1.679,1.505,3.353,2.241,5.022c0.314,0.712,0.626,1.423,0.938,2.134c0.692,1.584,1.376,3.165,2.051,4.74
			c0.271,0.633,0.545,1.267,0.813,1.898c0.925,2.176,1.837,4.346,2.728,6.504c0.001,0.001,0.001,0.003,0.002,0.004
			c91.978,99.074,147.56,227.251,223.768,337.847c76.94,111.653,160.038,119.157,273.275,181.69
			c68.216,37.659,244.452,194.813,324.16,101.368c91.86-107.901-236.769-331.471-306.831-391.75
			c-99.121-85.276-206.64-206.04-280.127-313.953c-64.442-94.624-73.696-202.473-136.663-295.488
			c-95.823-141.557-217.922-270.595-360.877-366.665c0.001,0.012,0.002,0.024,0.003,0.036
			C4749.877,2513.768,4750.293,2519.583,4750.728,2525.396z" style="stroke:black;fill:#ece754"/><path id="180642980" parent_id="180642913" order="46" structure_id="1009" d="M4212.308,6315.07
			c60.454,12.614,180.22,20.632,229.621,8.601c72.785-17.727,24.43-73.618-23.933-94.951
			c-73.598-32.466-127.323-70.558-174.915-138.215c-47.692-67.823-98.785-151.462-188.969-165.081
			c-113.659-17.158-145.479,164.088-112.861,245.691C3972.793,6249.975,4140.566,6300.095,4212.308,6315.07z" style="stroke:black;fill:#cccccc"/><path id="180642981" parent_id="180642913" order="47" structure_id="1009" d="M3859.853,5212.276
			c-13.102-118.034-16.353-237.442-18.687-354.775c36.266,9.155,64.193,27.055,97.486,45.504
			c110.854,61.456,20.195,174.293,33.841,269.084c13.03,90.51,49.69,159.035,97.76,235.477
			c52.325,83.2,99.284,168.07,161.717,244.731c68.938,84.648,160.008,147.566,251.951,204.759
			c72.267,44.957,268.679,115.457,246.373,226.783c-18.587,92.798-210.922,64.294-268.735,30.88
			c-40.43-23.366-49.36-60.45-73.524-96.637c-24.569-36.797-60.853-47.898-100.473-62.016
			c-45.464-16.192-84.143-45.94-127.219-67.031c-60.961-29.85-101.972-93.483-144.823-144.94
			c-96.086-115.367-120.907-272.063-141.395-418.183C3868.887,5288.476,3864.099,5250.523,3859.853,5212.276z" style="stroke:black;fill:#cccccc"/><path id="180642982" parent_id="180642913" order="48" structure_id="1009" d="M4367.813,4094.356
			c46.723-37.242,158.894,66.135,95.813,106.891C4418.21,4230.58,4318.753,4133.469,4367.813,4094.356z" style="stroke:black;fill:#cccccc"/><path id="180642983" parent_id="180642913" order="49" structure_id="1009" d="M6160.649,5280.196
			c118.596-226.668,142.017-477.867,83.37-723.368c-40.101-167.811-146.154-423.894-309.628-504.039
			c-82.783-40.578-177.075-36.604-260.123-79.537c-51.777-26.765-96.69-64.917-151.448-86.159
			c-46.38-17.99-399.205-105.218-382.128,35.714c11.067,91.064,223.188,94.036,285.306,110.673
			c121.911,32.657,264.441,91.208,369.854,161.435c156.371,104.195,296.652,253.699,336.619,441.265
			c34.495,161.864,31.399,354.276-37.367,506.947c-37.083,82.336-99.803,174.023-168.887,233.08
			c-68.341,58.422-160.038,117.016-241.985,154.169c-23.491,10.645-168.391,33.011-161.083,71.173
			c9.362,48.995,127.779-4.102,121.934,69.311c-2.219,27.871-53.021,51.366-73.053,66.594
			c-47.669,36.254-93.475,100.934-69.642,165.76c49.085-45.965,118.723-90.305,173.96-131.658
			c40.835-30.57,84.178-57.281,123.985-89.088C5941.246,5569.858,6076.079,5441.848,6160.649,5280.196z" style="stroke:black;fill:#cccccc"/><path id="180642984" parent_id="180642913" order="50" structure_id="1009" d="M3801.599,3232.931
			c167.133-17.532,278.935-25.866,401.224-33.468c79.781-4.96,101.312-1.667,207.677-14.962c16-2,76.896-11.26,77.333-11.333
			c44-7.333,54.891-10.047,110.668-18.667c146.666-22.667,212.792-8.504,246,0c54.666,14,113.333,43.333,168.275,100.367
			c23.058,59.633,45.725,150.966,47.058,184.299c-9.333-22.667-35.08-56.506-46.667-69.333
			c-45.581-50.454-115.852-88.288-172.666-105.333c-113.388-34.019-236.011-22.594-362.667,2.667
			c-93.511,18.651-214,39.333-339.334,38.667c-48.425-0.257-98.707,1.292-146.666-2c-68-4.667-130.886-10.041-190.459-17.958
			c0.125-16.5-0.375-34.125,0.291-50.182" style="stroke:black;fill:#cccccc"/><path id="180642985" parent_id="180642913" order="51" structure_id="1009" d="M3775.644,2409.805
			c0,0,359.552,0.563,534.023,40.434c301.729,68.971,475.571,276.73,624.131,534.048
			c140.149,242.734,284.073,443.396,501.385,622.826c1.801,2.066,1.719,2.162-0.285,0.297
			c-103.864-113.334-201.979-229.663-284.793-359.538c-154.267-241.899-263.752-535.064-509.934-702.017
			c-249.251-169.038-576.114-174.3-865.957-192.603L3775.644,2409.805z" style="stroke:black;fill:#cccccc"/><path id="180642986" parent_id="180642913" order="52" structure_id="1009" d="M3769.641,1943.568
			c-2.579,4.021-7.286,7.974-10.421,10.098c149.555,19.373,306.839,39.167,452.961-10.109
			c233.806-78.849,400.804-354.769,291.123-593.381c-125.106-272.169-497.423-265.844-749.433-270.121l-1.364-55.34
			c13.266,20.466,255.614,19.021,309.92,26.703c159.757,22.597,336.004,50.723,467.424,141.803
			c-24.387-16.906,129.526,89.369,221.279,135.963c94.841,48.172,141.185,79.038,119.65,189.34
			c-48.605,248.949,97.917,416.159,292.688,552.599c196.396,137.584,489.774,132.21,719.471,167.278
			c68.346,10.435,163.84,16.45,229.984-8.9c67.585-25.899,104.43-95.745,156.866-142.035c15.488,29.388,36.912,35.805,42.171,69.548
			c4.465,28.655-19.951,65.788-26.237,93.011c-22.426,97.186,33.581,118.263,71.049,199.963
			c-81.864-47.967-166.978-83.004-259.04-106.277c-90.662-22.909-182.417-39.003-273.932-57.779
			c-84.655-17.374-171.878-3.003-256.844-20.238c-36.395-7.385-129.31-55.647-161.968-29.464
			c-75.356,61.009,182.809,295.909,216.475,333.959c144.903,163.741,284.675,337.45,450.813,480.472
			c33.118,28.497,65.632,57.613,100.471,84.026c39.109,29.648,79.882,48.219,127.259,61.498c4.15,1.161,23.916,5.021,23.521,11.758
			c-0.498,8.536-23.073,6.124-27.978,5.906c-26.914-1.218-54.534-8.69-81.478-3.229c-5.89,1.197-6.41-0.624-10.332,4.082
			c-9.451,11.362-4.651,30.682-4.691,43.808c-0.063,18.044-6.726,37.717-11.893,54.881c-5.54,18.373-12.399,36.337-20.608,53.695
			c-4.084,8.653-8.508,17.149-13.229,25.468c-3.109,5.469-15.104,18.665-15.226,24.571c3.152-150.05-37.967-250.557-144.23-356.442
			c-191.681-190.981-357.086-395.011-536.479-597.183c-121.463-136.885-250.089-254.436-399.261-360.836
			c-69.491-49.558-143.694-102.231-228.706-120.311c-89.983-19.136-162.045,12.962-247.864,31.257
			c-137.753,29.357-270.145,66.49-412.375,59.042c-137.68-7.213-271.997-56.149-409.238-73.472L3769.641,1943.568z" style="stroke:black;fill:#cccccc"/><path id="180642979" parent_id="180642913" order="53" structure_id="164" d="M3826.833,4307.167l1.156,52.319
			l1.177,61.015c0.5-0.675-0.146-0.2,0.35-0.871c14.473-19.572,27.252-37.601,37.889-60.132
			C3885.775,4320.59,3876.073,4270.919,3826.833,4307.167z" style="stroke:black;fill:#aaaaaa"/></g>
</g>
</svg>