<svg width="4160" height="4096" xmlns="http://www.w3.org/2000/svg">
<g transform="scale(1.0)">
<g id="180606794" order="1" parent_id="" graphic_group_label_id="28" graphic_group_label="Atlas - Adult Mouse" sub_image_id="100960512" transform=" scale(1.0, 1.0)"><path id="180606796" parent_id="180606794" order="0" structure_id="8" d="M3233.843,3113.5
			c-57.084,73.725-137.521,129.811-208.485,190.494c-134.885,115.339-291.064,146.183-469.79,140.966
			c-403.864-11.794-646.006-363.677-752.524-697.581c-119.95-376.015-12.399-742.038,146.85-1089.513
			c112.922-246.383,219.241-586.633,536.285-653.121c98.838-20.728,208.731-14.935,307.987,1.083
			c158.127,25.518,300.066,131.462,416.174,231.01c131.371,112.64,250.439,254.625,293.871,420.646
			c89.199,340.976,47.406,668.459-58.82,998.906c-50.591,157.38-107.358,321.39-210.398,455.633
			C3234.613,3112.512,3234.232,3113.007,3233.843,3113.5z" style="stroke:black;fill:#bfdae3"/><path id="180606797" parent_id="180606794" order="1" structure_id="688" d="M3504.213,1657.489
			c-43.43-166.021-162.502-308.008-293.873-420.648c-116.105-99.548-258.046-205.494-416.174-231.014
			c-99.253-16.018-209.151-21.81-307.99-1.08c-317.048,66.489-423.363,406.737-536.289,653.126
			c-159.249,347.478-266.798,713.506-146.848,1089.52c106.517,333.908,348.663,685.794,752.526,697.592
			c178.733,5.216,334.909-25.628,469.791-140.971c70.968-60.681,151.407-116.77,208.494-190.492
			c0.387-0.493,0.766-0.991,1.145-1.481c103.043-134.245,159.806-298.254,210.401-455.635
			C3551.62,2325.951,3593.415,1998.468,3504.213,1657.489z M2696.416,1969.272c-2.288,46.155-29.085,94.776-42.245,138.952
			c-2.025,6.799-10.551,51.405-20.541,52.245c-11.523,0.976-7.178-40.629-6.827-46.777c3.626-63.629,20.051-126.708,13.225-190.735
			c-1.172-10.967-2.442-48.684,18.453-43.693C2680.913,1884.623,2697.337,1950.587,2696.416,1969.272z" style="stroke:black;fill:#b0ffb8"/><path id="180606799" parent_id="180606794" order="2" structure_id="698" d="M3504.213,1657.489
			c-43.43-166.021-162.502-308.008-293.873-420.648c-116.105-99.548-258.046-205.494-416.174-231.014
			c-99.253-16.018-209.151-21.81-307.99-1.08c-317.048,66.489-423.363,406.737-536.289,653.126
			c-159.249,347.478-266.798,713.506-146.848,1089.52c106.517,333.908,348.663,685.794,752.526,697.592
			c178.733,5.216,334.909-25.628,469.791-140.971c70.968-60.681,151.407-116.77,208.494-190.492
			c0.387-0.493,0.766-0.991,1.145-1.481c103.043-134.245,159.806-298.254,210.401-455.635
			C3551.62,2325.951,3593.415,1998.468,3504.213,1657.489z M2696.416,1969.272c-2.288,46.155-29.085,94.776-42.245,138.952
			c-2.025,6.799-10.551,51.405-20.541,52.245c-11.523,0.976-7.178-40.629-6.827-46.777c3.626-63.629,20.051-126.708,13.225-190.735
			c-1.172-10.967-2.442-48.684,18.453-43.693C2680.913,1884.623,2697.337,1950.587,2696.416,1969.272z" style="stroke:black;fill:#9ad2bd"/><path id="180606798" parent_id="180606794" order="3" structure_id="507" d="M3504.21,1657.484
			c-43.432-166.02-162.5-308.006-293.871-420.646c-116.107-99.548-258.047-205.492-416.174-231.01
			c-99.256-16.018-209.149-21.811-307.987-1.083c-317.044,66.488-423.362,406.738-536.285,653.121
			c-159.249,347.475-266.8,713.498-146.85,1089.513c106.518,333.904,348.66,685.787,752.524,697.581
			c178.726,5.217,334.905-25.627,469.79-140.966c70.964-60.684,151.401-116.77,208.485-190.494c0.39-0.493,0.771-0.988,1.148-1.478
			c103.04-134.243,159.808-298.253,210.398-455.633C3551.616,2325.943,3593.409,1998.46,3504.21,1657.484z M2696.416,1969.272
			c-2.288,46.155-29.085,94.776-42.245,138.952c-2.025,6.799-10.551,51.405-20.541,52.245c-11.523,0.976-7.178-40.629-6.827-46.777
			c3.626-63.629,20.051-126.708,13.225-190.735c-1.172-10.967-2.442-48.684,18.453-43.693
			C2680.913,1884.623,2697.337,1950.587,2696.416,1969.272z" style="stroke:black;fill:#9ad2bd"/><path id="180606800" parent_id="180606794" order="4" structure_id="212" d="
			M1997.746,1834.715c1.604,39.663,10.707,74.552,4.855,114.804c-6.908,47.427-25.319,92.119-33.98,139.131
			c-4.439,24.094-8.056,48.596-10.309,73.11c-0.302,5.286-0.465,10.554-0.441,15.788c0.144,33.195,5.661,66.54,6.884,99.754
			c1.982,53.942-21.466,109.179-31.841,161.698c-7.934,40.13,17.608,76.666,17.14,116.988
			c-0.558,47.994-14.678,96.214-4.004,143.998c9.253,41.438,10.707,83.865,10.56,126.48c1.487,62.548,1.254,129.146,8.125,175.819
			c1.952,13.254,3.868,23.866,5.856,32.806c0.01,0.033,0.018,0.067,0.027,0.101c3.123,11.22,6.429,22.07,9.994,32.671
			c6.902,17.093,15.658,32.689,28.634,68.237c0.013,0.036,0.026,0.071,0.04,0.107c5.333,10.384,11.143,20.758,17.528,31.248
			c7.69,12.637,15.898,24.104,24.658,34.85c14.601,16.181,29.734,31.811,45.414,46.8c5.958,5.354,12.11,10.694,18.47,16.095
			c2.536,2.148,5.074,4.294,7.625,6.43c52.297,43.79,112.991,61.256,176.529,84.493c66.526,24.334,139.562,36.517,211.001,33.993
			c67.053-2.376,126.47-40.882,170.047-87.645c52.606-56.45,119.003-92.759,175.959-145.209
			c62.925-57.945,108.502-123.061,151.825-195.203c24.558-40.885,62.396-70.628,89.514-109.503
			c26.331-37.745,66.53-73.728,89.642-111.507c23.482-38.378,27.772-68.854,67.078-101.198
			c37.962-31.246,69.594-70.869,91.086-114.304c25.243-51.025,62.145-97.825,77.781-153.6
			c20.062-71.541,63.504-132.503,76.832-204.042c12.001-64.479,39.78-111.759,29.942-179.133
			c-8.843-60.595,1.456-117.247-17.656-176.259c-18.419-56.867-5.092-114.267-15.416-171.354c-0.477-2.633-1.02-5.271-1.599-7.91
			c-46.882-149.703-154.389-279.023-273.912-383.875c-0.243-0.213-0.487-0.427-0.731-0.64c-1.676-1.468-3.354-2.931-5.034-4.39
			c-2.239-1.941-4.48-3.88-6.729-5.807c-116.107-99.55-258.047-205.496-416.175-231.011c-99.253-16.019-209.149-21.81-307.99-1.084
			c-2.119,0.444-4.224,0.907-6.324,1.376c-114.819,25.779-207.035,93.041-280.267,178.229
			c-20.043,24.066-38.622,49.649-56.008,76.293c-60.347,99.162-79.055,203.647-98.519,322.159
			C2030.642,1664.947,1994.476,1753.275,1997.746,1834.715z M2057.08,2629.896c-0.952-60.92,5.387-121.711,16.977-181.584
			c11.765-60.803,39.983-114.17,56.611-173.347c6.305-22.397,3.149-44.052,10.553-66.788c6.962-21.376,13.997-42.733,20.908-64.125
			c14.599-45.22,1.751-91.537,2.237-138.207c0.388-37.059,17.902-65.863,22.666-99.9c5.006-35.776-14.938-84.529-21.957-119.911
			c-7.938-39.994-15.396-80.134-18.356-120.784c-13.743-188.723,86.655-371.658,219.138-507.485
			c29.653-30.393,70.704-39.672,110.62-55.656c94.083-37.673,200.616-30.38,295.817-0.7c42.829,13.355,86.436,24.596,122.128,51.292
			c62.035,46.402,122.526,87.517,175.926,143.85c31.759,33.502,56.457,72.269,83.129,109.396
			c23.216,32.341,50.738,61.502,75.232,92.921c27.08,34.761,29.099,64.684,41.033,103.793c12.15,39.782,45.992,57.245,66.17,90.411
			c18.733,30.794,10.931,70.811,16.799,104.807c4.75,27.528,13.963,54.805,18.753,82.646c6.659,38.62-2.303,75.18-3.968,114.034
			c-3.014,70.867,11.121,155.466-17.294,220.669c-31.8,72.996-90.793,125.603-130.603,193.723
			c-32.598,55.775-77.734,116.671-133.572,152.839c-61.828,40.054-86.654,100.803-137.565,151.083
			c-33.71,33.284-74.656,64.563-102.389,102.754c-25.28,34.798-31.025,79.369-46.45,118.874
			c-17.793,45.606-50.31,80.104-75.469,121.58c-26.364,43.443-39.421,92.679-80.251,125.463
			c-62.399,50.106-138.227,92.616-220.813,101.336c-88.432,9.334-169.082-45.713-233.215-97.967
			c-43.755-35.643-70.263-82.469-100.838-126.863c-48.481-70.392-23.968-144.783-28.847-222.137
			c-1.408-22.165-8.325-44.466-10.009-66.834C2046.689,2722.469,2057.809,2676.671,2057.08,2629.896z" style="stroke:black;fill:#82c7ae"/><path id="180606804" parent_id="180606794" order="5" structure_id="220" d="M3098.293,2135.636
			c-23.274,69.512-78.962,113.045-132.825,160.952c-76.405,67.963-170.208,126.882-220.497,216.014
			c-38.342,67.967-77.49,137.126-110.148,207.736c-45.452,98.259-169.187,450.403-344.865,279.75
			c-93.112-90.449-84.593-210.451-55.609-327.046c25.834-103.86,82.26-195.804,118.289-296.054
			c35.753-99.489,59.159-202.432,82.376-305.074c13.834-61.177,8.492-125.753-1.485-186.901
			c-17.868-109.458-58.187-228.606-36.44-339.584c19.574-99.977,75.802-229.823,199.786-242.203
			c78.78-7.868,135.033,48.649,185.98,96.214c89.876,83.918,126.3,199.496,207.917,289.575
			c74.154,81.829,113.842,205.486,121.737,311.077C3115.88,2045.313,3112.808,2092.303,3098.293,2135.636z M2634.772,2158.992
			c9.982-0.835,18.508-45.452,20.53-52.257c13.168-44.184,39.972-92.816,42.258-138.979c0.92-18.69-15.495-84.675-37.928-90.034
			c-20.896-4.993-19.624,32.732-18.461,43.699c6.828,64.047-9.594,127.139-13.228,190.783
			C2627.593,2118.353,2623.241,2159.97,2634.772,2158.992z" style="stroke:black;fill:#82c7ae"/><path id="180606803" parent_id="180606794" order="6" structure_id="228" d="
			M2310.827,3072.075c191.811,149.613,304.485-188.558,340.719-302.119c39.631-124.201,116.893-240.757,211.939-333.331
			c68.344-66.571,154.867-114.93,218.756-186.011c103.862-115.549,69.006-306.212,26.9-438.104
			c-24.5-76.727-86.235-123.597-131.51-187.413c-50.235-70.822-49.452-149.823-112.407-213.59
			c-54.126-54.818-122.875-101.833-193.07-136.259c-76.916-37.722-153.953,1.408-211.93,51.487
			c-71.996,62.202-95.143,148.829-96.256,237.704c-0.739,59.281,8.316,119.56,19.219,174.261
			c38.565,193.522,22.078,387.18-38.447,572.225c-39.692,121.342-103.139,234.426-133.186,358.886
			C2176.274,2815.935,2173.311,2964.816,2310.827,3072.075z M2233.245,2674.433c25.821-103.839,82.24-195.765,118.266-295.996
			c35.748-99.468,59.149-202.384,82.358-305.005c13.827-61.163,8.487-125.727-1.507-186.858
			c-17.873-109.431-58.19-228.549-36.457-339.495c19.567-99.956,75.781-229.775,199.777-242.162
			c78.781-7.875,135.034,48.621,185.99,96.175c89.882,83.88,126.313,199.429,207.946,289.48
			c74.146,81.804,113.847,205.421,121.75,310.989c3.378,45.208,0.305,92.188-14.201,135.514
			c-23.269,69.494-78.958,113.021-132.823,160.922c-76.398,67.955-170.197,126.87-220.479,215.983
			c-38.336,67.952-77.488,137.099-110.147,207.692c-45.438,98.246-169.149,450.315-344.844,279.721
			C2195.754,2910.974,2204.26,2790.997,2233.245,2674.433z" style="stroke:black;fill:#9ad2bd"/><path id="180606802" parent_id="180606794" order="7" structure_id="236" d="M3114.705,1697.007
			c69.492,104.347,79.729,244.985,78.004,365.371c-1.037,72.069-10.206,150.999-59.506,208.97
			c-48.565,57.094-120.452,92.649-178.679,139.727c-57.366,46.375-114.606,94.632-160.194,152.038
			c-46.229,58.201-64.977,120.228-93.954,185.646c-54.767,123.603-87.354,276.804-210.953,357.426
			c-125.862,82.093-217.636-12.47-276.917-113.457c-65.667-111.837-57.046-231.672-22.686-351.745
			c27.222-95.104,67.749-186.499,106.909-277.538c28.408-66.044,34.212-132.939,52.393-201.047
			c18.73-70.127,28.925-141.332,21.769-213.713c-21.171-214.093-127.755-597.277,160.85-701.141
			c125.194-45.043,220.593,15.207,302.864,97.541c61.056,61.096,106.133,103.439,144.786,179.658
			C3012.7,1590.408,3074.324,1636.377,3114.705,1697.007z M2365.152,1562.79c-0.746,59.298,8.31,119.59,19.206,174.309
			c38.544,193.571,22.052,387.271-38.484,572.363c-39.698,121.361-103.158,234.468-133.209,358.959
			c-35.285,146.152-38.271,295.075,99.238,402.373c191.803,149.666,304.493-188.576,340.731-302.165
			c39.644-124.223,116.91-240.806,211.954-333.387c68.348-66.583,154.878-114.952,218.773-186.037
			c103.866-115.564,69.022-306.281,26.932-438.211c-24.503-76.745-86.237-123.632-131.495-187.468
			c-50.228-70.842-49.439-149.866-112.396-213.655c-54.116-54.837-122.865-101.868-193.06-136.312
			c-76.907-37.737-153.951,1.395-211.92,51.477C2389.425,1387.252,2366.271,1473.897,2365.152,1562.79z" style="stroke:black;fill:#82c7ae"/><path id="180606801" parent_id="180606794" order="8" structure_id="244" d="
			M2050.182,2769.08c1.684,22.368,8.601,44.669,10.009,66.834c4.879,77.354-19.634,151.745,28.847,222.137
			c30.575,44.395,57.083,91.221,100.838,126.863c64.133,52.254,144.783,107.301,233.215,97.967
			c82.586-8.72,158.413-51.229,220.813-101.336c40.83-32.784,53.887-82.02,80.251-125.463
			c25.159-41.477,57.676-75.974,75.469-121.58c15.425-39.505,21.17-84.076,46.45-118.874
			c27.732-38.191,68.679-69.47,102.389-102.754c50.911-50.28,75.737-111.029,137.565-151.083
			c55.838-36.168,100.975-97.063,133.572-152.839c39.81-68.12,98.803-120.727,130.603-193.723
			c28.415-65.203,14.28-149.803,17.294-220.669c1.665-38.854,10.627-75.414,3.968-114.034c-4.79-27.841-14.003-55.118-18.753-82.646
			c-5.868-33.997,1.935-74.013-16.799-104.807c-20.178-33.166-54.02-50.628-66.17-90.411
			c-11.935-39.109-13.953-69.032-41.033-103.793c-24.494-31.419-52.017-60.581-75.232-92.921
			c-26.672-37.126-51.37-75.894-83.129-109.396c-53.399-56.333-113.891-97.448-175.926-143.85
			c-35.692-26.696-79.299-37.937-122.128-51.292c-95.201-29.68-201.734-36.973-295.817,0.7
			c-39.916,15.984-80.967,25.263-110.62,55.656c-132.482,135.828-232.881,318.763-219.138,507.485
			c2.96,40.649,10.419,80.79,18.356,120.784c7.02,35.381,26.963,84.134,21.957,119.911c-4.764,34.037-22.278,62.841-22.666,99.9
			c-0.486,46.669,12.361,92.987-2.237,138.207c-6.911,21.392-13.946,42.749-20.908,64.125c-7.403,22.736-4.248,44.391-10.553,66.788
			c-16.628,59.177-44.846,112.544-56.611,173.347c-11.59,59.873-17.929,120.664-16.977,181.584
			C2057.809,2676.671,2046.689,2722.469,2050.182,2769.08z M2188.71,2642.382c27.209-95.085,67.738-186.459,106.893-277.479
			c28.401-66.031,34.206-132.91,52.382-201c18.723-70.116,28.911-141.301,21.749-213.665
			c-21.183-214.034-127.795-597.113,160.809-700.984c125.189-45.044,220.596,15.181,302.875,97.484
			c61.064,61.08,106.141,103.404,144.81,179.598c33.309,65.649,94.941,111.602,135.321,172.216
			c69.499,104.316,79.75,244.918,78.031,365.276c-1.031,72.05-10.194,150.954-59.487,208.915
			c-48.56,57.086-120.456,92.646-178.677,139.715c-57.359,46.372-114.603,94.616-160.184,152.015
			c-46.23,58.194-64.972,120.209-93.952,185.61c-54.759,123.58-87.336,276.748-210.93,357.36
			c-125.857,82.084-217.64-12.447-276.937-113.405C2145.739,2882.238,2154.355,2762.431,2188.71,2642.382z" style="stroke:black;fill:#9ad2bd"/><path id="180606806" parent_id="180606794" order="9" structure_id="1009" d="
			M3503.014,1659.19c-2.279-8.714-4.779-17.358-7.467-25.939c0.579,2.64,1.122,5.277,1.599,7.91
			c10.324,57.087-3.003,114.487,15.416,171.354c19.112,59.012,8.813,115.664,17.656,176.259
			c9.838,67.374-17.941,114.653-29.942,179.133c-13.328,71.539-56.771,132.501-76.832,204.042
			c-15.637,55.774-52.538,102.574-77.781,153.6c-21.492,43.435-53.124,83.058-91.086,114.304
			c-39.306,32.345-43.596,62.82-67.078,101.198c-23.111,37.779-63.311,73.762-89.642,111.507
			c-27.117,38.875-64.956,68.618-89.514,109.503c-43.323,72.143-88.9,137.258-151.825,195.203
			c-56.956,52.45-123.353,88.759-175.959,145.209c-43.577,46.763-102.994,85.269-170.047,87.645
			c-71.439,2.523-144.475-9.659-211.001-33.993c-63.538-23.237-124.232-40.703-176.529-84.493c-2.574-2.156-5.114-4.297-7.625-6.43
			c-5.257-4.451-10.479-8.934-15.672-13.443c119.479,113.181,270.207,189.535,454.688,194.922
			c178.727,5.218,334.902-25.627,469.793-140.966c70.958-60.685,151.398-116.77,208.484-190.495c0.388-0.494,0.766-0.99,1.146-1.478
			c103.043-134.246,159.806-298.259,210.402-455.635C3550.422,2327.653,3592.216,2000.169,3503.014,1659.19z" style="stroke:black;fill:#cccccc"/><path id="180606807" parent_id="180606794" order="10" structure_id="1009" d="
			M1980.612,3067.864c-3.764-9.32-6.977-19.085-10.021-32.771c-18.808-67.663-14.223-138.399-13.981-208.625
			c-1.147-48.233-3.318-94.06-10.56-126.48c-10.674-47.784,3.446-96.004,4.004-143.998c0.468-40.322-25.074-76.858-17.14-116.988
			c10.242-51.798,31.233-106.398,29.587-159.453c-0.889-28.694-7.449-57.699-6.289-86.383c0.419-10.45,1.138-20.929,2.101-31.404
			c1.396-24.424,5.915-49.25,10.309-73.11c8.661-47.012,27.072-91.704,33.98-139.131c5.852-40.252-3.251-75.142-4.855-114.804
			c-3.27-81.439,32.896-169.768,46.113-250.212c19.463-118.511,38.172-222.997,98.519-322.159
			c-81.463,124.849-136.736,272.972-193.682,397.226c-159.257,347.482-266.807,713.506-146.855,1089.525
			c46.706,146.403,119.485,296.26,220.534,419.394c-4.815-9.889-8.776-20.466-13.088-32.279
			C1997.813,3113.875,1988.561,3091.5,1980.612,3067.864z" style="stroke:black;fill:#cccccc"/><path id="180606805" parent_id="180606794" order="11" structure_id="98" d="M2626.803,2113.691
			c3.626-63.629,20.051-126.708,13.225-190.735c-1.172-10.967-2.442-48.684,18.453-43.693c22.433,5.36,38.856,71.324,37.936,90.009
			c-2.288,46.155-29.085,94.776-42.245,138.952c-2.025,6.799-10.551,51.405-20.541,52.245
			C2622.106,2161.444,2626.452,2119.84,2626.803,2113.691z" style="stroke:black;fill:#aaaaaa"/></g>
</g>
</svg>