<svg width="10240" height="7232" xmlns="http://www.w3.org/2000/svg">
<g transform="scale(1.0)">
<g id="180639010" order="1" parent_id="" graphic_group_label_id="28" graphic_group_label="Atlas - Adult Mouse" sub_image_id="100966105" transform=" scale(1.0, 1.0)"><path id="180639012" parent_id="180639010" order="0" structure_id="8" d="M9269.828,3166.282
			c167.604-178.279,154.73-356.481,127.762-522.909c-41.395-255.547-150.391-518.366-299.992-767.432
			c-126.68-210.91-360.402-368.336-528.479-548.985c-150.48-161.758-271.938-333.239-449.383-456.406
			c-269.979-187.391-568.182-308.758-881.666-416.982c-125.777-43.421-279.91-104.822-423.486-144.559
			c-328.129-90.813-623.562-65.099-961.729-46.347c-185.429,10.288-350.489,5.7-536.228,48.057
			c-247.938,56.546-262.725,264.65-111.06,426.217c0,0-46.017-27.016-84.642-27.658c-41.881-0.696-78.166,25.803-120.996,49.009
			c-47.857,25.934-96.09,45.854-168.916,99.053c-61.013,44.567-106.772,40.053-145.922,100.152l236.658,5512.715
			c116.742-2.229,269.197,65.462,410.307,41.079c127.914-22.1,268.335-94.389,401.501-149.842
			c297.896-124.063,422.771-203.068,591.62-345.307c224.691-189.287,671.195-581.271,692.973-900.442
			c6.812-100.474,0.037-164.502,4.979-272.874c4.142-90.866-10.78-174.412-53.455-273.109
			c-40.146-92.861-16.478-273.506-23.967-378.129c-6.979-97.448-17.629-295.063-39.599-389.716
			c-25.604-110.253-52.771-192.459-53.809-281.432c-0.872-74.667,36.57-73.147,46.559-146.658
			c33.819-249.037,41.344-597.071-42.761-834.11c-33.29-93.816-63.233-183.185-98.259-247.539
			c72.488,133.194,158.371,354.06,186.816,560.865c22.252,161.783,51.924,205.021,85.649,342.668
			c30.681,125.228,93.054,368.418,115.989,498.539c33.096,187.74,60.931,306.002,99.949,449.15
			c35.326,129.6,100.295,266.602,155.09,405.051c159.141,402.104,260.11,623.938,620.41,649.357
			c255.438,18.027,519.674-64.867,746.01-215.629c167.742-111.73,345.713-256.699,429.402-398.153
			c190.557-322.092,243.539-740.366,136.059-1107.458C9303.992,3376.704,9206.641,3233.482,9269.828,3166.282z" style="stroke:black;fill:#bfdae3"/><path id="180639013" parent_id="180639010" order="1" structure_id="688" d="M9269.828,3166.282
			c167.604-178.279,154.73-356.481,127.762-522.909c-41.395-255.547-150.391-518.366-299.992-767.432
			c-126.68-210.91-360.402-368.336-528.479-548.985c-150.48-161.758-271.938-333.239-449.383-456.406
			c-269.979-187.391-568.182-308.758-881.666-416.982c-125.777-43.421-279.91-104.822-423.486-144.559
			c-328.129-90.813-623.562-65.099-961.729-46.347c-185.429,10.288-350.489,5.7-536.228,48.057
			c-247.938,56.546-262.725,264.65-111.06,426.217c43.957,46.832,106.801,77.696,159.129,110.015
			c59.741,36.894,181.897,91.957,238.965,123.269c248.476,136.329,464.674,247.82,632.056,532.021
			c33.029,56.082,97.853,164.963,130.324,216.952c73.285,117.313,105.461,186.038,179.477,292.733
			c66.337,95.625,157.016,178.564,212.323,280.203c72.487,133.194,158.371,354.059,186.815,560.865
			c22.254,161.783,51.926,205.02,85.65,342.668c30.682,125.227,93.053,368.418,115.988,498.539
			c33.097,187.74,60.932,306.002,99.949,449.15c35.326,129.6,100.295,266.601,155.09,405.051
			c159.142,402.104,260.111,623.938,620.412,649.357c255.438,18.027,519.673-64.867,746.008-215.629
			c167.744-111.73,345.715-256.7,429.402-398.154c190.559-322.092,243.541-740.365,136.061-1107.457
			C9303.992,3376.704,9206.641,3233.482,9269.828,3166.282z M8465.115,3028.074c-9.518,97.134-30.684,197.021-53.857,306.509
			c-5.486,25.772-40.927,154.731-84.968,188.335c-7.841,5.928-15.977,8.865-24.209,7.632c-3.443-0.52-6.652-1.383-9.632-2.758
			c-0.424-0.149-0.765-0.301-1.104-0.453c-1.108-0.537-2.133-1.077-3.074-1.621c-0.601-0.392-1.202-0.782-1.803-1.175
			c-0.771-0.467-1.463-1.021-2.15-1.493c-0.174-0.159-0.261-0.239-0.344-0.235c-0.691-0.555-1.3-1.112-1.908-1.67
			c0,0,0,0,0.004,0.082c-30.455-27.067-29.09-106.075-16.858-186.635c21.66-142.805,33.714-289.704,26.71-429.524
			c-9.603-194.54-78.941-340.032-197.159-479.084c-79.896-93.963-214.696-141.087-345.151-166.7
			c-61.021-11.985-143.133-29.324-201.625-30.986c-171.711-4.896-200.744,16.713-325.502-142.506
			c-127.939-163.339-314.752-483.05-384.611-555.161c-64.884-66.983-209.887-174.843-295.083-256.227
			c-25.411-24.28-45.464-46.202-56.493-64.006c-9.593-15.444-12.375-27.761-5.877-35.801c5.391-6.656,27.664-1.021,61.57,13.13
			l0.086,0.08c20.903,8.7,46.205,20.718,74.697,35.101c75.583,38.231,173.348,93.54,270.162,150.056l0.003,0.083
			c135.592,79.137,269.121,160.783,336.633,201.532c126.198,76.119,169.522,101.632,233.615,144.364
			c60.83,40.618,125.679,85.404,187.948,130.385l0.003,0.083c30.744,22.131,60.825,44.375,89.64,66.255
			c121.379,92.182,239.281,196.698,348.679,307.17c61.845,62.274,120.843,126.339,176.289,191.224
			c37.609,44.036,73.469,90.066,104.238,138.068c8.225,12.75,16.041,25.684,23.443,38.719
			c33.926,59.299,59.298,121.553,70.859,186.736C8473.174,2861.985,8473.523,2944.007,8465.115,3028.074z" style="stroke:black;fill:#b0ffb8"/><path id="180639081" parent_id="180639010" order="2" structure_id="421" d="M8905.07,1643.35l-0.961,0.959l-102.148,71.984
			c-22.379-25.579-45.57-50.621-69.814-74.951c-165.89-166.717-322.981-355.927-494.307-517.07l71.918-87.962
			c88.32,91.933,168.606,193.057,259.423,290.641C8669.887,1435.21,8794.271,1535.191,8905.07,1643.35z" style="stroke:black;fill:#08858c"/><path id="180639080" parent_id="180639010" order="3" structure_id="973" d="M8801.961,1716.294l-180.555,127.343
			c-58.553-75.017-127.557-142.74-201.523-203.577c-53.806-44.175-260.951-217.383-330.132-267.825
			c-11.371-8.274-22.666-16.72-33.886-25.334l181.975-222.627c171.325,161.143,328.417,350.353,494.307,517.069
			C8756.391,1665.673,8779.582,1690.715,8801.961,1716.294z" style="stroke:black;fill:#08858c"/><path id="180639079" parent_id="180639010" order="4" structure_id="573" d="M8621.406,1843.637l-88.703,62.479
			c-74.898-84.497-156.58-163.695-238.128-235.89c-68.45-60.654-154.845-103.848-227.828-161.22
			c-29.106-22.869-57.578-46.517-85.735-70.595l74.854-91.51c11.22,8.614,22.515,17.06,33.886,25.335
			c69.182,50.44,276.326,223.648,330.133,267.824C8493.85,1700.896,8562.854,1768.62,8621.406,1843.637z" style="stroke:black;fill:#08858c"/><path id="180639078" parent_id="180639010" order="5" structure_id="613" d="M8532.703,1906.114l-262.856,185.373l-0.083,0.003
			c-71.316-84.65-143.398-167.684-226.923-241.21c-75.11-66.127-157.528-131.357-239.517-194.353l-0.004-0.083l177.69-217.436
			c28.157,24.078,56.629,47.726,85.735,70.595c72.982,57.372,159.378,100.564,227.827,161.22
			C8376.123,1742.419,8457.805,1821.618,8532.703,1906.114z" style="stroke:black;fill:#08858c"/><path id="180639077" parent_id="180639010" order="6" structure_id="74" d="M8269.764,2091.491l-139.002,98.019
			c-84.104-87.021-168.863-166.005-275.939-247.702c-60.227-45.985-117.229-90.774-175.113-134.69l123.617-151.188
			c81.986,62.995,164.404,128.225,239.516,194.353C8126.365,1923.808,8198.447,2006.84,8269.764,2091.491z" style="stroke:black;fill:#08858c"/><path id="180639076" parent_id="180639010" order="7" structure_id="121" d="M8130.762,2189.51l-47.308,33.327
			c-109.396-110.473-227.299-214.989-348.679-307.17c-28.813-21.881-58.896-44.124-89.64-66.255l-0.003-0.083l34.491-42.207
			l0.083-0.003c57.884,43.916,114.889,88.705,175.113,134.69C7961.896,2023.505,8046.658,2102.487,8130.762,2189.51z" style="stroke:black;fill:#08858c"/><path id="180639087" parent_id="180639010" order="8" structure_id="593" d="M8309.758,1036.313l-71.918,87.962
			c-32.354-30.491-65.333-59.954-98.924-88.14c-148.896-124.717-317.911-255.331-489.783-345.596
			C7493.66,609,7323.834,585.83,7159.125,532.145c-92.259-30.089-185.648-69.06-280.396-106.553l-0.865-97.939
			c124.588,38.633,252.761,88.795,360.176,125.912c313.516,108.22,611.739,229.613,881.668,416.984
			C8190.072,919.438,8251.665,975.879,8309.758,1036.313z" style="stroke:black;fill:#08858c"/><path id="180639086" parent_id="180639010" order="9" structure_id="821" d="M8237.84,1124.273L8055.865,1346.9
			c-63.6-48.763-124.387-101.984-185.273-153.617c-61.226-51.785-109.354-121.157-177.629-164.126
			c-59.955-37.735-114.41-87.308-176.332-120.285c-201.479-107.354-418.781-178.895-635.883-249.608l-2.02-233.673
			c94.747,37.494,188.139,76.464,280.396,106.553C7323.834,585.83,7493.66,609,7649.133,690.539
			c171.872,90.265,340.886,220.879,489.783,345.596C8172.507,1064.319,8205.485,1093.782,8237.84,1124.273z" style="stroke:black;fill:#08858c"/><path id="180639085" parent_id="180639010" order="10" structure_id="721" d="M8055.865,1346.9l-74.854,91.51
			c-44.53-38.063-88.104-77.17-131.918-116.016c-133.695-118.609-291.564-236.516-449.633-324.034
			c-161.918-89.775-354.281-107.222-517.438-186.929l-1.275-152.168c217.102,70.715,434.402,142.254,635.883,249.608
			c61.922,32.978,116.377,82.549,176.332,120.285c68.275,42.97,116.403,112.342,177.629,164.126
			C7931.479,1244.916,7992.266,1298.139,8055.865,1346.9z" style="stroke:black;fill:#08858c"/><path id="180639084" parent_id="180639010" order="11" structure_id="778" d="M7981.012,1438.41l-177.689,217.436
			c-40.126-30.741-80.064-60.99-119.059-90.612c-86.614-65.801-177.869-124.977-294.877-210.585
			c-86.506-63.302-256.347-154.822-353.01-203.917c-52.98-26.936-103.352-57.154-152.119-88.943l-0.003-0.083l-2.231-250.271
			c163.156,79.707,355.521,97.152,517.438,186.928c158.067,87.519,315.937,205.425,449.633,324.033
			C7892.908,1361.24,7936.48,1400.347,7981.012,1438.41z" style="stroke:black;fill:#08858c"/><path id="180639083" parent_id="180639010" order="12" structure_id="33" d="M7803.32,1655.846l0.004,0.083l-123.617,151.188
			l-0.082,0.003c-66.426-50.394-133.789-99.328-208.283-147.205c-188.729-121.338-391.959-213.094-579.93-338.137
			c-1.633-1.1-3.266-2.197-4.979-3.208l-2.178-256.784c48.768,31.79,99.139,62.008,152.119,88.943
			c96.663,49.095,266.503,140.615,353.01,203.917c117.008,85.609,208.262,144.785,294.876,210.585
			C7723.257,1594.855,7763.195,1625.104,7803.32,1655.846z" style="stroke:black;fill:#08858c"/><path id="180639082" parent_id="180639010" order="13" structure_id="305" d="M7679.625,1807.121l-34.491,42.207
			c-62.271-44.98-127.118-89.766-187.948-130.385c-64.093-42.732-107.417-68.246-233.615-144.364
			c-67.512-40.75-201.041-122.396-336.633-201.532l-0.003-0.083l-0.499-54.392c1.712,1.011,3.346,2.108,4.979,3.208
			c187.97,125.042,391.201,216.799,579.93,338.137C7545.837,1707.793,7613.2,1756.729,7679.625,1807.121z" style="stroke:black;fill:#08858c"/><path id="180639093" parent_id="180639010" order="14" structure_id="805" d="M6877.861,327.651l0.867,97.939
			c-167.332-66.174-338.709-127.418-514.804-125.533c-63.563,0.726-126.458,7.265-189.106,15.627l-33.473-68.165
			c225.793-8.691,441.45-2.677,673.207,61.483C6835.499,314.782,6856.632,321.052,6877.861,327.651z" style="stroke:black;fill:#08858c"/><path id="180639092" parent_id="180639010" order="15" structure_id="41" d="M6878.729,425.591l2.021,233.673
			c-147.022-48.019-293.946-95.624-435.896-153.707c-51.901-21.224-136.973-62.721-204.287-56.074l-0.082,0.003l-65.666-133.8
			c62.649-8.362,125.545-14.902,189.107-15.627C6540.02,298.173,6711.396,359.417,6878.729,425.591z" style="stroke:black;fill:#08858c"/><path id="180639091" parent_id="180639010" order="16" structure_id="501" d="M6880.748,659.265l1.275,152.168
			c-22.674-11.044-44.817-23.362-66.276-37.213c-32.104-20.82-63.78-8.277-100.622-28.562
			c-135.729-74.542-280.359-144.611-428.01-201.365l-0.083,0.004l-46.466-94.813c67.314-6.646,152.385,34.852,204.287,56.074
			C6586.802,563.641,6733.725,611.246,6880.748,659.265z" style="stroke:black;fill:#08858c"/><path id="180639090" parent_id="180639010" order="17" structure_id="565" d="M6882.023,811.433l2.23,250.272
			c-170.863-111.506-322.389-242.954-501.758-323.216l-0.084,0.004l-95.298-194.2c147.649,56.754,292.282,126.824,428.01,201.365
			c36.841,20.284,68.517,7.741,100.622,28.562C6837.206,788.07,6859.35,800.389,6882.023,811.433z" style="stroke:black;fill:#08858c"/><path id="180639089" parent_id="180639010" order="18" structure_id="257" d="M6884.255,1061.705l0.003,0.083l2.178,256.784
			c-73.53-48.753-151.668-93.971-227.472-139.287c-16.356-9.729-48.464-30.551-85.427-51.748l-0.087-0.08l-190.953-388.969
			C6561.867,818.75,6713.391,950.198,6884.255,1061.705z" style="stroke:black;fill:#08858c"/><path id="180639088" parent_id="180639010" order="19" structure_id="469" d="M6886.436,1318.571l0.5,54.392
			c-96.814-56.516-194.58-111.823-270.162-150.056l1.853-3.501l-45.088-91.869c36.963,21.197,69.069,42.018,85.427,51.748
			C6734.768,1224.602,6812.904,1269.818,6886.436,1318.571z" style="stroke:black;fill:#08858c"/><path id="180639098" parent_id="180639010" order="20" structure_id="671" d="M6141.348,247.521l33.472,68.165
			c-132.106,17.606-263.369,43.188-398.117,38.122c-19.058-0.684-37.72-1.886-56.056-3.269l-77.412-78.881
			c68.377-3.269,137.488-4.984,209.588-8.997C5952.064,257.15,6047.527,251.049,6141.348,247.521z" style="stroke:black;fill:#1aa698"/><path id="180639097" parent_id="180639010" order="21" structure_id="965" d="M6174.818,315.688l65.664,133.799
			c14.862,30.154,26.018,55.015,46.633,94.807L6162.32,506.67c-105.017-22.03-214.888-24.992-322.285-34.486L5720.645,350.54
			c18.337,1.383,36.999,2.584,56.057,3.269C5911.449,358.874,6042.712,333.292,6174.818,315.688z" style="stroke:black;fill:#1aa698"/><path id="180639096" parent_id="180639010" order="22" structure_id="774" d="M6287.115,544.292l95.298,194.2
			c-105.263-47.225-220.026-76.683-353.949-74.188l-188.429-192.122c107.397,9.494,217.27,12.456,322.285,34.486
			c35.623,7.484,70.756,17.159,104.94,30.045c6.615,2.47,13.231,4.94,19.771,7.581L6287.115,544.292z" style="stroke:black;fill:#1aa698"/><path id="180639095" parent_id="180639010" order="23" structure_id="906" d="M6382.497,738.488l190.953,388.969
			c-51.854-29.821-113.017-60.661-152.86-63.457l-392.125-399.694c133.922-2.495,248.688,26.962,353.949,74.188L6382.497,738.488z" style="stroke:black;fill:#1aa698"/><path id="180639094" parent_id="180639010" order="24" structure_id="279" d="M6573.537,1127.537l45.088,91.869l-1.854,3.501
			c-28.492-14.384-53.793-26.4-74.696-35.101l-0.087-0.08L6420.59,1064c39.846,2.796,101.006,33.636,152.859,63.457
			L6573.537,1127.537z" style="stroke:black;fill:#1aa698"/><path id="180639103" parent_id="180639010" order="25" structure_id="442" d="M5643.234,271.659l77.41,78.881
			c-102.061-7.636-195.211-21.58-302.19,0.037c-161.175,32.54-228.013,153.333-132.271,272.319
			c43.194,53.644,94.53,98.593,149.91,138.61c61.248,44.523,127.494,82.99,193.217,120.896l-423.69-145.469l-0.083,0.003
			c-151.564-161.572-136.881-369.674,111.059-426.219C5429.988,284.903,5535.868,276.519,5643.234,271.659z" style="stroke:black;fill:#1aa698"/><path id="180639102" parent_id="180639010" order="26" structure_id="434" d="M5980.156,1002.873l-202.104-69.355l-0.174-0.159
			c-23.318-7.993-42.408-14.535-63.869-21.892c-51.3-17.582-20.786-7.124-84.7-29.064l-108.827-64.483l-84.389-56.412
			c-55.381-40.018-106.717-84.967-149.912-138.61c-95.74-118.987-28.903-239.779,132.271-272.319
			c106.98-21.617,200.131-7.673,302.191-0.037l119.39,121.645c-22.866-1.939-45.497-4.223-68.065-7.01
			c-93.135-11.607-269.482-48.686-347.543,24.519c-115.198,108.18,323.523,343.302,381.701,386.288
			C5862.92,917.774,5921.559,959.822,5980.156,1002.873z" style="stroke:black;fill:#1aa698"/><path id="180639101" parent_id="180639010" order="27" structure_id="610" d="M6200.727,1078.613l-220.399-75.664l-0.17-0.076
			c-58.599-43.051-117.235-85.099-174.028-126.893c-58.178-42.986-496.899-278.108-381.701-386.288
			c78.061-73.204,254.408-36.125,347.543-24.519c22.568,2.787,45.199,5.07,68.065,7.009l188.429,192.122
			c-4.088,0.01-8.174,0.102-12.338,0.279c-152.008,5.023-96.58,116.145-25.47,192.124c48.978,52.227,104.024,98.102,150.276,152.949
			C6161.506,1033.979,6181.436,1056.908,6200.727,1078.613z" style="stroke:black;fill:#1aa698"/><path id="180639100" parent_id="180639010" order="28" structure_id="274" d="M6028.464,664.306L6420.59,1064
			c-11.475-0.926-21.174,0.575-28.404,5.142c-28.607,17.919-18.037,48.345,3.953,76.526l-195.328-67.059l-0.084,0.004
			c-19.291-21.705-39.221-44.635-59.793-68.955c-46.252-54.849-101.299-100.723-150.276-152.949
			c-71.11-75.98-126.539-187.1,25.47-192.124C6020.29,664.406,6024.375,664.314,6028.464,664.306z" style="stroke:black;fill:#1aa698"/><path id="180639099" parent_id="180639010" order="29" structure_id="330" d="M6420.59,1064l121.398,123.729
			c-33.906-14.15-56.182-19.787-61.57-13.131l-84.193-28.85l-0.086-0.08c-21.99-28.182-32.562-58.607-3.953-76.525
			C6399.416,1064.575,6409.116,1063.074,6420.59,1064z" style="stroke:black;fill:#1aa698"/><path id="180639109" parent_id="180639010" order="30" structure_id="542" d="M6252.337,1355.474
			c12.696,13.894,24.913,28.224,36.81,42.901c-29.301,15.362-59.025,30.575-89.373,44.896l-0.729,0.532l-0.083,0.004
			c-161.69-241.924-364.578-347.048-595.342-473.592c-57.011-31.352-179.215-86.361-238.968-123.271
			c-52.212-32.311-115.043-63.161-159.115-110.009l0.083-0.003l423.69,145.469l0.34,0.151
			c57.934,33.399,115.426,66.233,168.631,102.255C5956.346,1091.691,6123.943,1214.604,6252.337,1355.474z" style="stroke:black;fill:#1aa698"/><path id="180639108" parent_id="180639010" order="31" structure_id="606" d="M6313.982,1382.036l1.363,2.612
			c-8.73,4.631-17.466,9.179-26.2,13.727c-11.896-14.678-24.112-29.009-36.81-42.9c-128.395-140.87-295.992-263.783-454.057-370.664
			c-53.205-36.022-110.697-68.856-168.63-102.256l148.229,50.805l0.174,0.16c85.772,53.985,161.953,106.13,240.541,177.448
			C6117.932,1200.925,6226.348,1290.492,6313.982,1382.036z" style="stroke:black;fill:#1aa698"/><path id="180639107" parent_id="180639010" order="32" structure_id="430" d="M6389.486,1346.498
			c-24.679,12.243-49.328,25.151-74.141,38.151l-1.363-2.612c-87.637-91.544-196.051-181.111-295.388-271.069
			c-78.589-71.318-154.769-123.463-240.542-177.448l202.104,69.354l0.17,0.076c104.178,76.396,208.137,155.473,300.592,240.719
			C6311.682,1272.058,6348.111,1306.128,6389.486,1346.498z" style="stroke:black;fill:#1aa698"/><path id="180639106" parent_id="180639010" order="33" structure_id="687" d="M6427.924,1314.553l4.079,11.426
			c-14.153,6.615-28.384,13.402-42.517,20.519c-41.375-40.369-77.806-74.44-108.567-102.83
			c-92.456-85.246-196.415-164.322-300.593-240.719l220.4,75.664l0.082-0.004C6293.93,1183.188,6372.534,1258.762,6427.924,1314.553
			z" style="stroke:black;fill:#1aa698"/><path id="180639105" parent_id="180639010" order="34" structure_id="590" d="M6542.788,1274.404l-5.562,10.42
			c-35.584,10.958-70.525,25.144-105.225,41.154l-4.079-11.426c-55.39-55.791-133.994-131.365-227.114-235.943l195.328,67.059
			l0.088,0.08c21.465,27.621,53.774,53.189,70.963,62.8l10.502,1.636l7.059,1.116l1.547-0.9
			C6497.324,1228.202,6517.377,1250.124,6542.788,1274.404z" style="stroke:black;fill:#1aa698"/><path id="180639104" parent_id="180639010" order="35" structure_id="622" d="M6486.295,1210.398l-1.547,0.9l-7.059-1.116
			l-10.502-1.636c-17.188-9.611-49.498-35.18-70.963-62.8l84.192,28.85C6473.92,1182.638,6476.702,1194.954,6486.295,1210.398z" style="stroke:black;fill:#1aa698"/><path id="180639075" parent_id="180639010" order="36" structure_id="97" d="M9365.643,2492.438l-117.125,6.946
			c-26.096-131.573-88.221-258.765-158.686-374.08c-87.883-143.942-177.65-283.217-287.871-409.01l102.148-71.984l0.961-0.959
			c73.953,72.187,141.891,148.136,192.586,232.585C9217.832,2076.162,9311.854,2285.355,9365.643,2492.438z" style="stroke:black;fill:#15b0b3"/><path id="180639074" parent_id="180639010" order="37" structure_id="1127" d="M9248.518,2499.384l-287.436,17.181
			c4.145-64.856-49.84-144.242-69.568-193.636c-51.5-128.48-125.719-249.644-195.281-369.253
			c-22.256-38.27-47.365-74.914-74.826-110.038l180.555-127.343c110.221,125.793,199.988,265.066,287.871,409.01
			C9160.297,2240.619,9222.422,2367.811,9248.518,2499.384z" style="stroke:black;fill:#15b0b3"/><path id="180639073" parent_id="180639010" order="38" structure_id="234" d="M8891.514,2322.928
			c19.729,49.395,73.713,128.779,69.568,193.635l-85.074,5.071c-23.791-44.879-43.051-104.725-48.943-119.493
			c-36.01-90.34-67.674-182.534-119.557-265.516c-50.18-80.217-109.82-157.273-174.805-230.512l88.703-62.479
			c27.461,35.125,52.57,71.77,74.826,110.038C8765.795,2073.285,8840.014,2194.447,8891.514,2322.928z" style="stroke:black;fill:#15b0b3"/><path id="180639072" parent_id="180639010" order="39" structure_id="289" d="M8876.008,2521.635l-297.344,17.688
			c-0.998-3.796-2.162-7.585-3.242-11.378c-39.31-134.178-124.65-224.736-213.266-327.422
			c-31.265-36.213-61.711-72.795-92.31-109.036l262.856-185.373c64.984,73.237,124.625,150.295,174.805,230.512
			c51.883,82.981,83.547,175.176,119.557,265.515C8832.957,2416.91,8852.217,2476.755,8876.008,2521.635z" style="stroke:black;fill:#15b0b3"/><path id="180639071" parent_id="180639010" order="40" structure_id="729" d="M8575.422,2527.945c1.08,3.793,2.244,7.582,3.242,11.378
			l-174.727,10.422c-15.457-41.231-49.735-97.094-53.024-101.793c-50.487-71.858-107.346-138.519-167.185-202.714
			c-17.758-19.018-35.328-37.541-52.967-55.729l139.002-98.019l0.083-0.003c30.599,36.24,61.045,72.822,92.31,109.035
			C8450.771,2303.209,8536.112,2393.768,8575.422,2527.945z" style="stroke:black;fill:#15b0b3"/><path id="180639070" parent_id="180639010" order="41" structure_id="786" d="M8403.938,2549.745l-39.956,2.383
			c-30.77-48.001-66.629-94.032-104.238-138.067c-55.446-64.886-114.445-128.95-176.289-191.225l47.309-33.327
			c17.639,18.188,35.209,36.711,52.967,55.729c59.839,64.196,116.696,130.855,167.185,202.714
			C8354.202,2452.65,8388.48,2508.514,8403.938,2549.745z" style="stroke:black;fill:#15b0b3"/><path id="180639061" parent_id="180639010" order="42" structure_id="335" d="M8500.605,3032.996
			c-9.295,112.86-23.131,240.822-34.869,285.999c39.075-1.785,96.49,1.267,163.516,7.981l0.932-9.387
			c17.824-86.391,25.973-174.535,26.098-263.004L8500.605,3032.996z" style="stroke:black;fill:#0e9684"/><path id="180639060" parent_id="180639010" order="43" structure_id="368" d="M8465.115,3028.074
			c-9.518,97.134-30.684,197.021-53.857,306.509c1.558-9.123,21.479-14.08,54.479-15.588
			c11.738-45.177,25.574-173.139,34.869-285.999L8465.115,3028.074z" style="stroke:black;fill:#0e9684"/><path id="180639064" parent_id="180639010" order="44" structure_id="540" d="M9321.148,3491.393l-0.238,0.261
			c-17.508-17.024-56.41-34.8-108.73-52.166c-19.477-41.561-41.184-82.606-60.789-125.245
			c-29.27-63.59-32.236-128.807-21.762-193.936l0.082-0.003l160.02,22.173l0.863,0.715c-6.594,7.711-13.441,15.433-20.707,23.088
			c-63.211,67.225,34.154,210.428,63.393,310.238c2.939,10.139,5.795,20.28,8.482,30.431L9321.148,3491.393z" style="stroke:black;fill:#0e9684"/><path id="180639062" parent_id="180639010" order="45" structure_id="692" d="M8877.465,3348.703l-2.217,12.529
			c-21.443-3.752-42.957-7.252-64.213-10.513l-0.004-0.083c-53.938-8.367-106.82-15.527-155.453-20.867
			c-8.893-1.037-17.691-1.91-26.326-2.791l0.932-9.388c17.824-86.391,25.973-174.536,26.098-263.004l221.73,30.791
			C8888.168,3166.477,8924.844,3256.787,8877.465,3348.703z" style="stroke:black;fill:#0e9684"/><path id="180639063" parent_id="180639010" order="46" structure_id="888" d="M9151.389,3314.243
			c19.607,42.639,41.314,83.685,60.791,125.245c-23.197-7.685-49.063-15.336-76.922-22.736c-19.84-5.324-40.76-10.518-62.43-15.68
			c-58.426-13.767-122.238-26.633-186.48-37.896l-0.004-0.083c-3.697-0.592-7.398-1.268-11.096-1.859l2.217-12.53
			c47.379-91.916,10.703-182.228,0.547-263.327l251.615,34.932C9119.152,3185.436,9122.121,3250.654,9151.389,3314.243z" style="stroke:black;fill:#0e9684"/><path id="180639069" parent_id="180639010" order="47" structure_id="836" d="M9397.66,2643.369
			c25.777,159.212,38.672,329.326-107.066,499.822l-0.865-0.714l-160.018-22.173c18.086-113.275,76.738-226.455,108.307-330.878
			c29.463-97.155,29.447-194.715,10.5-290.042l117.125-6.947C9378.826,2542.945,9389.5,2593.313,9397.66,2643.369z" style="stroke:black;fill:#0d9f91"/><path id="180639068" parent_id="180639010" order="48" structure_id="427" d="M9248.518,2499.384
			c18.947,95.328,18.963,192.888-10.5,290.042c-31.568,104.424-90.221,217.604-108.307,330.878l-0.084,0.003l-251.615-34.932
			c-0.891-7.139-1.609-14.119-1.992-21.112c-9.91-168.655,94.684-350.823,14.578-504.114l5.656-6.252
			c-7.102-9.83-3.758-4.395-7.102-9.83c-7.832-12.722-6.984-10.566-13.143-22.433L9248.518,2499.384z" style="stroke:black;fill:#0d9f91"/><path id="180639067" parent_id="180639010" order="49" structure_id="988" d="M8896.254,2553.896l-5.656,6.252
			c80.105,153.291-24.488,335.459-14.578,504.114c0.383,6.994,1.102,13.974,1.992,21.112l-221.73-30.791
			c0.371-174.104-29.941-349.479-77.618-515.262l297.345-17.688C8882.463,2533.959,8889.285,2545.1,8896.254,2553.896z" style="stroke:black;fill:#0d9f91"/><path id="180639066" parent_id="180639010" order="50" structure_id="977" d="M8510.134,2891.406
			c-1.628,36.404-5.052,87.247-9.528,141.59l155.676,21.589c0.371-174.104-29.941-349.479-77.617-515.262l-173.282,10.335
			C8437.406,2617.443,8514.58,2792.01,8510.134,2891.406z" style="stroke:black;fill:#0d9f91"/><path id="180639065" parent_id="180639010" order="51" structure_id="1045" d="M8387.588,2590.756l-0.163,0.092
			c33.926,59.299,59.298,121.553,70.859,186.735c14.89,84.402,15.239,166.425,6.831,250.491l35.49,4.922
			c4.477-54.344,7.9-105.186,9.528-141.59c4.446-99.396-72.728-273.963-104.752-341.747l-41.4,2.469
			C8373.167,2566.333,8363.981,2552.128,8387.588,2590.756z" style="stroke:black;fill:#0d9f91"/><path id="180639059" parent_id="180639010" order="52" structure_id="1121" d="M9341.762,3510
			c49.773,169.949,54.387,340.455,38.174,510.982c-19.27,182.929-72.861,361.487-158.127,519.541
			c-7.965,14.696-16.109,29.149-24.592,43.451c-83.643,141.459-261.689,286.389-429.396,398.158
			c-226.452,150.762-490.621,233.623-746.102,215.631c-20.342-1.463-39.791-3.465-58.521-6.25l29.793-153.586
			c74.929,19.065,161.493,21.525,263.956,1.604c248.298-48.214,502.143-188.802,718.193-344.708
			c223.906-161.502,344.52-489.569,278.811-746.881c-25.24-98.063,18.025-198.313,16.246-296.131
			c-1.246-77.645-26.695-145.57-58.02-212.325c52.322,17.366,91.225,35.141,108.729,52.166
			C9325.789,3496.451,9340.395,3505.385,9341.762,3510z" style="stroke:black;fill:#32b825"/><path id="180639058" parent_id="180639010" order="53" structure_id="715" d="M9212.18,3439.488
			c31.324,66.755,56.773,134.681,58.02,212.324c1.779,97.817-41.486,198.068-16.246,296.132
			c65.711,257.311-54.904,585.379-278.809,746.881c-216.051,155.906-469.896,296.494-718.195,344.708
			c-102.463,19.922-189.027,17.462-263.956-1.604l40.179-207.192c114.263,25.556,236.601,15.631,351.037-7.226
			c319.896-63.891,654.396-172.555,772.459-507.606c34.814-98.804,84.182-204.659,60.662-307.385
			c-15.725-68.845-27.309-144.291-23.666-214.968c3.824-74.189,32.59-144.776,26.848-220.225
			c-5.047-67.048-90.469-95.345-86.182-152.947l0.928-3.628C9163.117,3424.152,9188.982,3431.804,9212.18,3439.488z" style="stroke:black;fill:#32b825"/><path id="180639057" parent_id="180639010" order="54" structure_id="764" d="M9220.512,3573.327
			c5.742,75.448-23.023,146.034-26.848,220.224c-3.643,70.677,7.941,146.124,23.666,214.968
			c23.52,102.726-25.848,208.581-60.662,307.386c-118.063,335.053-452.563,443.717-772.459,507.606
			c-114.438,22.854-236.775,32.78-351.038,7.226l21.454-110.666c34.691,7.189,78.419,10.987,103.708,14.91
			c130.553,20.1,227.803-16.289,352.736-45.438c120.392-28.035,236.825-68.585,338.378-140.794
			c126.094-89.62,304.545-246.584,284.162-423.887c-10.535-91.851-20.303-171.633,0.914-262.592
			c22.902-98.293,57.254-202.084,29.883-303.143c-16.086-59.731-75.637-89.973-92.852-152.744l1.273-5.313
			c21.67,5.162,42.59,10.355,62.43,15.68l-0.928,3.628C9130.043,3477.982,9215.465,3506.278,9220.512,3573.327z" style="stroke:black;fill:#32b825"/><path id="180639056" parent_id="180639010" order="55" structure_id="52" d="M9164.406,3559.128
			c27.371,101.06-6.98,204.851-29.883,303.144c-21.217,90.959-11.449,170.74-0.914,262.59
			c20.383,177.304-158.068,334.268-284.162,423.888c-101.553,72.209-217.986,112.759-338.378,140.794
			c-124.934,29.148-222.184,65.537-352.735,45.438c-25.289-3.922-69.017-7.72-103.709-14.908l18.244-94.088
			c7.188,2.195,14.373,4.308,21.554,6.336c111.682,31.508,227.133,36.149,334.516,14.182
			c178.866-36.471,335.628-146.52,416.79-328.266c54.209-121.418,79.217-227.063,83.232-359.011
			c3.707-121.671,41.523-230.284,0.16-352.023c-29.6-86.858-54.197-148.563-42.977-242.931l0.203-1.095
			c64.244,11.263,128.057,24.129,186.482,37.896l-1.275,5.313C9088.771,3469.155,9148.32,3499.396,9164.406,3559.128z" style="stroke:black;fill:#32b825"/><path id="180639055" parent_id="180639010" order="56" structure_id="92" d="M8929.121,3607.201
			c41.361,121.738,3.547,230.353-0.16,352.023c-4.018,131.948-29.025,237.594-83.234,359.012
			c-81.16,181.746-237.924,291.793-416.789,328.265l-1.365-6.534c59.041-32.162,135.488-70.996,183.799-117.887
			c44.23-42.791,61.516-116.474,87.273-171.576c52.287-111.737,46.539-232.002,63.801-350.916
			c18.547-127.898,54.801-234.024,26.967-361.353c-13.584-61.759-52.807-246.433,21.162-284.659l0.461-2.856
			c21.256,3.26,42.77,6.76,64.213,10.513c3.697,0.592,7.398,1.268,11.096,1.86l0.004,0.083l-0.203,1.094
			C8874.922,3458.639,8899.521,3520.342,8929.121,3607.201z" style="stroke:black;fill:#32b825"/><path id="180639054" parent_id="180639010" order="57" structure_id="139" d="M8811.031,3350.636l0.004,0.083l-0.461,2.857
			c-73.969,38.227-34.746,222.899-21.162,284.658c27.834,127.327-8.42,233.453-26.967,361.354
			c-17.262,118.914-11.514,239.178-63.801,350.916c-25.758,55.104-43.043,128.784-87.273,171.576
			c-48.311,46.891-124.758,85.725-183.799,117.887l1.365,6.533c-107.383,21.97-222.834,17.328-334.516-14.182
			c-7.182-2.027-14.365-4.141-21.555-6.335l27.477-141.469c69.734,24.463,144.39,33.276,208.295,7.499
			c99.019-39.887,103.868-152.427,125.202-240.637c29.413-121.606,104.295-243.578,153.146-359.51
			c74.531-176.788,61.184-371.084,68.287-559.415l0.303-2.684C8704.211,3335.109,8757.094,3342.27,8811.031,3350.636z" style="stroke:black;fill:#32b825"/><path id="180639053" parent_id="180639010" order="58" structure_id="28" d="M8655.578,3329.77l-0.305,2.685
			c-7.102,188.331,6.246,382.627-68.286,559.415c-48.852,115.931-123.733,237.902-153.146,359.509
			c-21.334,88.21-26.184,200.75-125.202,240.638c-63.905,25.776-138.56,16.963-208.294-7.5l186.127-959.887
			c0.601,0.393,1.201,0.783,1.799,1.092c0.941,0.543,1.966,1.084,3.074,1.621c0.34,0.151,0.685,0.388,1.104,0.452
			c2.979,1.375,6.188,2.238,9.632,2.759c8.232,1.231,16.368-1.705,24.209-7.633c44.385-33.367,80.578-162.274,84.968-188.335
			c3.401-19.925,94.365-19.991,217.994-7.605C8637.887,3327.857,8646.686,3328.732,8655.578,3329.77z" style="stroke:black;fill:#32b825"/><path id="180639052" parent_id="180639010" order="59" structure_id="526" d="M7916.736,5011.241
			c24.004,10.903,49.424,19.827,76.256,26.687l-29.793,153.586c-116.129-16.545-202.744-57.06-273.416-120.873
			c-3.301-3.029-6.604-6.06-9.908-9.172c-2.957-2.795-5.83-5.592-8.621-8.394c-24.242-24.246-46.609-51.494-67.767-81.632
			c-7.914-11.344-15.681-23.111-23.294-35.221c-1.434-2.273-2.866-4.549-4.219-6.912c-3.758-5.848-7.271-11.873-10.783-17.896
			c-56.918-97.203-106.606-218.501-163.801-363.011c-6.646-16.74-13.369-33.394-20.26-50.039c0,0,29.645-5.444,69.459-13.08
			c0.084-0.003,0.084-0.003,0.166-0.007c3.821-0.414,7.64-0.912,11.377-1.323c20.883,33.487,42.494,66.442,63.508,99.09
			C7637.082,4756.688,7742.788,4932.833,7916.736,5011.241z" style="stroke:black;fill:#32b825"/><path id="180639051" parent_id="180639010" order="60" structure_id="543" d="M8018.16,4827.123
			c-41.682-10.563-82.152-26.018-120.712-47.479c-144.496-80.508-197.619-215.68-283.974-345.418l-2.406-3.567
			c-7.855,5.595-16.229,10.794-25.035,15.597c-0.326,0.181-0.734,0.365-1.059,0.629c-16.277,9.629-33.897,17.146-53.457,22.24
			c-0.656,0.278-1.398,0.479-2.063,0.59c-20.51,6.306-42.92,11.105-67.32,14.239c20.881,33.487,42.492,66.442,63.506,99.09
			c111.44,173.646,217.146,349.789,391.097,428.196c24.003,10.903,49.423,19.828,76.256,26.688l40.179-207.191
			C8028.195,4829.529,8023.141,4828.412,8018.16,4827.123z" style="stroke:black;fill:#32b825"/><path id="180639050" parent_id="180639010" order="61" structure_id="664" d="M7966.344,4590.163l-0.086-0.079l-0.084,0.003
			l-0.084,0.004l-0.002-0.083c-0.422-0.064-0.762-0.218-1.186-0.366c-0.843-2.134-0.234-1.576,0.913-0.123
			c-54.497-118.588-145.897-218.149-265.677-273.013l-0.594-0.226c-4.291,10.867-9.266,21.347-15.029,30.94
			c-0.154,0.256-0.313,0.514-0.384,0.768c-17.714,32.557-41.633,60.54-73.063,82.67l2.406,3.568
			c86.354,129.737,139.479,264.91,283.975,345.416c38.56,21.463,79.03,36.918,120.711,47.479c4.979,1.289,10.035,2.407,15.012,3.612
			l21.454-110.666l18.243-94.086C8037.012,4615.004,8001.754,4602.414,7966.344,4590.163z" style="stroke:black;fill:#32b825"/><path id="180639049" parent_id="180639010" order="62" structure_id="727" d="M8100.346,4484.516l-27.478,141.469
			c-35.856-10.979-71.114-23.568-106.524-35.82l-0.086-0.078l-0.084,0.002c-0.09-0.162-0.182-0.324-0.269-0.404
			s-0.09-0.163-0.09-0.163c-54.497-118.588-145.897-218.149-265.677-273.013l-0.594-0.226
			c18.99-47.55,25.459-100.989,25.459-100.989c13.078-0.562,23.442-0.172,33.646,0.31c0,0,0.091,0.163,0.17,0.076
			c79.994,26.276,129.294,144.336,192.258,189.954C7992.422,4435.568,8044.846,4465.031,8100.346,4484.516z" style="stroke:black;fill:#32b825"/><path id="180639048" parent_id="180639010" order="63" structure_id="743" d="M8286.472,3524.627l-186.127,959.887
			c-55.5-19.482-107.923-48.945-149.269-78.883c-62.963-45.619-112.264-163.679-192.258-189.955
			c25.338,1.166,49.28,2.893,109.791-8.636c84.85-16.161,123.523-38.687,176.508-68.083c52.983-29.396,59.349-75.571,90.549-174.972
			c31.201-99.399,28.252-168.124,32.621-212.126c4.371-44.002-6.847-62.299,39.086-110.171
			c45.215-47.091,73.789-118.253,74.696-120.461c0.608,0.558,1.216,1.116,1.904,1.587c0.083-0.004,0.17,0.076,0.344,0.234
			C8285.009,3523.605,8285.783,3524.156,8286.472,3524.627z" style="stroke:black;fill:#32b825"/><path id="180639047" parent_id="180639010" order="64" structure_id="10693" d="M7343.834,4237.998
			c-33.968-120.555,6.324-225.936-11.887-342.994c-10.961-70.634-52.847-136.518-67.719-208.82
			c-16.697-81.82-18.172-160.873-27.309-243.436c-8.829-79.53-47.119-147.854-86.186-216.443l-106.875,24.226
			c32.816,132.235,82.508,330.619,102.436,443.669c33.096,187.74,60.932,306.002,99.949,449.15
			c31.006,113.748,84.848,233.196,134.602,354.324l0.287,0.689c0,0,29.644-5.445,69.457-13.08c0.084-0.003,0.084-0.003,0.168-0.007
			c3.82-0.414,7.639-0.912,11.377-1.323c-0.262-0.238-0.438-0.48-0.537-0.813
			C7413.128,4405.773,7368.363,4325.324,7343.834,4237.998z" style="stroke:black;fill:#72d569"/><path id="180639046" parent_id="180639010" order="65" structure_id="10694" d="M7430.795,3209.595
			c-5.055-14.403-9.818-28.918-14.361-43.515l-265.696,60.225c39.065,68.588,77.354,136.914,86.185,216.443
			c9.138,82.563,10.61,161.615,27.31,243.436c14.872,72.304,56.757,138.188,67.718,208.82
			c18.211,117.06-22.081,222.439,11.887,342.994c24.529,87.326,69.295,167.775,117.766,245.145c0.098,0.33,0.275,0.572,0.536,0.813
			c24.401-3.134,46.812-7.936,67.321-14.238c0.662-0.112,1.404-0.313,2.062-0.59c19.56-5.097,37.181-12.612,53.458-22.24
			c0.322-0.266,0.73-0.449,1.059-0.631c8.808-4.801,17.18-10,25.035-15.596c31.431-22.13,55.35-50.113,73.063-82.67
			c0.072-0.254,0.229-0.512,0.384-0.768C7838.46,4060.702,7504.592,3420.073,7430.795,3209.595z" style="stroke:black;fill:#72d569"/><path id="180639045" parent_id="180639010" order="66" structure_id="10695" d="M8261.264,3477.832c0.014,0.093,0.027,0.186,0.042,0.278
			c1.795,11.167,5.321,21.395,4.454,32.92c-0.827,11.098-5.032,21.391-9.837,31.296c-10.275,21.142-20.119,43.398-32.521,63.377
			c-6.714,10.809-14.921,20.885-23.797,30.004c-70.009,71.902-210.592,23.793-284.054-18.051
			c-118.645-67.592-222.676-196.133-301.012-305.254c-48.503-67.568-66.363-120.287-69.021-175.582l-129.086,29.259
			c4.543,14.597,9.309,29.11,14.361,43.515c73.797,210.479,407.665,851.107,253.721,1137.627
			c5.766-9.596,10.739-20.073,15.029-30.939c18.99-47.551,25.459-100.989,25.459-100.989c13.078-0.562,23.443-0.172,33.646,0.31
			c0,0,0.09,0.162,0.17,0.076c25.338,1.164,49.279,2.892,109.791-8.637c84.849-16.161,123.522-38.686,176.508-68.083
			c52.982-29.397,59.348-75.571,90.549-174.972c31.201-99.399,28.25-168.124,32.621-212.126
			c4.369-44.002-6.848-62.298,39.085-110.171c45.215-47.09,73.789-118.253,74.696-120.461c0.608,0.558,1.216,1.115,1.904,1.587
			c0.011,0,0.024,0.012,0.034,0.014C8272.596,3513.902,8265.338,3498.118,8261.264,3477.832z" style="stroke:black;fill:#72d569"/><path id="180639041" parent_id="180639010" order="67" structure_id="10696" d="M6596.475,1887.335
			c-102.889-157.147-186.64-339.551-305.483-486.653c-43.813,24.671-87.981,49.09-87.981,49.09
			c11.098,16.814,22.004,34.284,32.707,52.467c33.03,56.082,97.854,164.963,130.324,216.951
			c73.287,117.313,105.463,186.039,179.478,292.734c46.062,66.398,103.853,126.686,153.396,191.357l76.174-26.133
			C6718.413,2079.182,6658.848,1982.699,6596.475,1887.335z" style="stroke:black;fill:#48c83c"/><path id="180639040" parent_id="180639010" order="68" structure_id="10697" d="M6775.086,2177.15l235.078-80.647
			c-72.559-113.922-150.074-224.801-234.414-327.442c-152.866-186.054-284.615-323.44-386.264-422.563
			c-0.295-0.287-0.582-0.566-0.875-0.853c-8.85,4.175-16.239,7.975-21.437,11.16c-15.062,9.235-45.537,26.618-76.187,43.876
			c118.846,147.103,202.597,329.505,305.483,486.653C6658.848,1982.699,6718.413,2079.182,6775.086,2177.15z" style="stroke:black;fill:#48c83c"/><path id="180639039" parent_id="180639010" order="69" structure_id="10698" d="M6775.75,1769.061
			c84.34,102.642,161.855,213.52,234.414,327.441l175.174-60.096c-124.596-171.378-284.167-440.378-347.52-505.771
			c-16.383-16.904-37.867-36.425-62.201-57.465l-226.678-191.629c0,0-106.863,38.889-160.329,64.104
			c0.293,0.286,0.581,0.565,0.875,0.853C6491.135,1445.619,6622.884,1583.006,6775.75,1769.061z" style="stroke:black;fill:#48c83c"/><path id="180639044" parent_id="180639010" order="70" structure_id="10699" d="M7058.76,2999.9
			c-22.427-182.223-52.491-386.816-138.166-555.142c-46.123-90.581-94.65-179.692-145.508-267.608l-76.175,26.133
			c21.808,28.467,42.024,57.779,58.929,88.844c72.488,133.194,158.371,354.059,186.816,560.865
			c22.253,161.783,51.925,205.02,85.65,342.668c4.024,16.428,8.6,34.902,13.555,54.87l106.875-24.226
			C7110.323,3155.352,7069.08,3084.116,7058.76,2999.9z" style="stroke:black;fill:#59b947"/><path id="180639043" parent_id="180639010" order="71" structure_id="10700" d="M7010.164,2096.502l-235.078,80.646
			c50.857,87.918,99.385,177.029,145.508,267.609c85.675,168.325,115.738,372.919,138.166,555.143
			c10.32,84.215,51.563,155.449,91.977,226.402l265.697-60.225c-76.736-246.61-85.971-518.622-212.708-743.49
			C7142.604,2314.07,7078.588,2203.934,7010.164,2096.502z" style="stroke:black;fill:#59b947"/><path id="180639042" parent_id="180639010" order="72" structure_id="10701" d="M7203.727,2422.59
			c126.737,224.868,135.972,496.881,212.707,743.49l129.086-29.259c-2.688-55.936,10.181-114.507,22.654-193.757
			c19.93-126.627,60.991-323.064,5.948-444.655c-41.327-91.293-250.629-276.481-26.19-270.106
			c-171.699-4.881-200.724,16.753-325.449-142.501c-11.918-15.217-24.348-31.791-37.145-49.394l-175.174,60.096
			C7078.588,2203.934,7142.604,2314.07,7203.727,2422.59z" style="stroke:black;fill:#59b947"/><path id="180639038" parent_id="180639010" order="73" structure_id="870" d="M7574.122,2498.408
			c55.043,121.591,13.979,318.027-5.948,444.656c-24.807,157.593-51.2,233.42,46.367,369.338
			c78.335,109.121,182.367,237.662,301.011,305.254c73.462,41.844,214.045,89.953,284.054,18.051
			c8.876-9.119,17.083-19.195,23.797-30.004c12.401-19.979,22.245-42.235,32.521-63.377c4.805-9.905,9.01-20.198,9.837-31.296
			c0.867-11.525-2.659-21.752-4.454-32.92c-0.015-0.093-0.028-0.187-0.042-0.278c-4.37-21.755-5.076-48.691-3.301-77.932
			c1.221-21.833,3.899-43.637,7.189-65.305c21.696-142.808,33.73-289.737,26.777-429.553
			c-9.67-194.486-78.966-339.979-197.224-479.054c-79.895-93.948-214.696-141.081-345.154-166.705
			c-61.016-11.981-143.129-29.321-201.62-30.981C7323.493,2221.927,7532.795,2407.115,7574.122,2498.408z" style="stroke:black;fill:#4bb547"/><path id="180639014" parent_id="180639010" order="74" structure_id="313" d="M6856.1,2539.666
			c-33.291-93.816-63.234-183.186-98.26-247.539c-55.308-101.638-145.985-184.578-212.322-280.203
			c-74.016-106.695-106.189-175.421-179.477-292.734c-32.473-51.988-97.295-160.87-130.324-216.951
			c-167.381-284.201-383.58-395.691-632.056-532.021c-57.065-31.312-179.224-86.375-238.965-123.269
			c-52.328-32.318-115.172-63.183-159.129-110.015c0,0-46.017-27.016-84.642-27.658c-41.881-0.696-78.166,25.803-120.996,49.009
			c-47.857,25.934-96.09,45.854-168.916,99.053c-61.013,44.567-106.772,40.053-145.922,100.152l64.172,1494.884
			c3.929-0.814,9.787,1.063,11.199,33.986c1.91,44.425,8.293,63.625,14.205,71.719c5.916,8.09,57.804,50.374,59.114,80.916
			c1.312,30.546-43.388,90.886-53.545,113.579c-9.885,22.065,7.243,69.745-14.894,74.329l64.681,1506.609
			c75.208,2.336,132.185-87.426,205.463-106.395c68.03-17.604,283.252-41.57,390.504-105.783
			c71.711-42.898,240.265-4.145,311.196,25.926c93.924,39.813,143.604,139.059,260.697,157.468
			c97.335,15.308,175.49-66.675,261.68-95.756c11.65-3.933,92.994-25.958,156.949-82.866
			c69.513-61.85,122.649-160.626,152.392-209.688c64.675-106.729,89.028-318.989,178.548-408.179
			c22.1-22.009,50.725-47.344,87.945-41.331c36.287,5.867,63.459-93.134,63.459-93.134
			C6932.68,3124.739,6940.202,2776.706,6856.1,2539.666z" style="stroke:black;fill:#ff64ff"/><path id="180639028" parent_id="180639010" order="75" structure_id="851" d="M6279.171,1651.8l0.248,0.02
			c-16.147-17.438-32.619-34.667-49.378-51.781c-78.48-80.146-120.146-111.36-226.865-153.119
			c-248.541-97.258-482.016-293.25-758.761-290.885c-122.319,1.046-191.353,81.474-254.333,166.7
			c-39.544,53.513-84.002,92.132-145.059,120.28c-28.348,13.064-90.809,32.48-103.137,60.067
			c-1.152,10.895,4.311,20.531,9.354,26.146c3.836,4.27,8.877,8.156,14.914,9.15c9.088,1.497,20.717-1.723,33.554-6.438
			c27.229-10.005,60.921-30.74,94.56-55.583c42.201-31.166,83.215-60.086,99.148-75.872
			c79.982-79.235,196.604-197.211,317.385-190.845c130.532,6.881,302.09,91.009,414.452,155.392
			c149.597,85.711,312.642,161.94,454.329,259.362c19.458,13.378,38.285,27.212,56.158,41.728
			C6242.708,1651.301,6259.047,1647.521,6279.171,1651.8z" style="stroke:black;fill:#ff7aff"/><path id="180639029" parent_id="180639010" order="76" structure_id="842" d="M6180.742,1478.825
			c-65.579-124.274-197.766-193.787-313.555-265.44c-225.195-139.347-473.879-297.677-738.127-347.023
			c-139.008-25.967-278.981-14.641-299.037,145.087c-16.088,128.086-13.686,323.399-64.42,409.487
			c-5.076,8.612-12.787,19.666-25.756,34.489c-3.68,4.205-7.961,8.595-11.992,10.761c-12.203,2.713-21.002,4.119-21.002,4.119
			l1.293,12.292c0,0,15.527,1.941,57.58-3.881c22.644-12.292,77.635-34.289,103.041-48.334
			c50.935-25.419,94.86-71.851,121.312-107.645c62.983-85.229,132.017-165.657,254.336-166.703
			c276.746-2.365,510.22,193.627,758.761,290.885c106.719,41.759,148.384,72.974,226.865,153.119
			c9.994,10.206,19.58,20.405,28.991,30.519c-5.632-12.832-10.733-24.81-15.308-30.313
			C6215.113,1565.808,6202.42,1519.913,6180.742,1478.825z" style="stroke:black;fill:#ff7aff"/><path id="180639030" parent_id="180639010" order="77" structure_id="834" d="M6382.041,1745.081
			c-5.121-8.376-10.441-16.993-16.001-25.891c-32.472-51.989-97.294-160.871-130.324-216.952
			c-167.381-284.201-383.579-395.691-632.056-532.021c-57.065-31.312-179.224-86.375-238.965-123.269
			c-52.328-32.318-115.172-63.183-159.129-110.015c0,0-46.017-27.016-84.641-27.658c-41.881-0.696-78.167,25.803-120.997,49.009
			c-47.856,25.934-96.089,45.854-168.916,99.053C4770,901.904,4724.24,897.39,4685.092,957.489l22.025,513.077
			c7.348-2.206,14.832-3.224,20.779-4.476c15.111-12.604,27.488-27.823,37.706-45.159c50.735-86.087,48.333-281.4,64.421-409.486
			c20.055-159.728,160.027-171.055,299.037-145.087c264.247,49.348,512.932,207.678,738.126,347.023
			c115.79,71.653,247.976,141.166,313.556,265.44c21.678,41.087,34.371,86.981,62.982,121.417
			c4.573,5.504,9.675,17.48,15.307,30.313C6297.727,1672.133,6333.436,1712.227,6382.041,1745.081z" style="stroke:black;fill:#ff7aff"/><path id="180639015" parent_id="180639010" order="78" structure_id="828" d="M6266.648,2476.989
			c-66.451,71.616-115.021,198.155-88.023,294.911c40.037,143.435,204.498,145.389,326,126.307
			c50.329-7.902,233.855-41.417,267.545-78.144c10.626-11.587-10.833-57.958-46.705-245.581
			c-20.38-106.604-104.725-209.709-171.395-318.004C6486.279,2346.388,6346.34,2391.095,6266.648,2476.989z" style="stroke:black;fill:#ff7aff"/><path id="180639018" parent_id="180639010" order="79" structure_id="271" d="M6354.734,3452.814
			c48.631,55.675,224.576,109.383,279.399,38.864c50.203-64.618-26.724-224.85-65.823-281.159
			c-32.627-46.974-142.266-107.109-197.545-53.695c-56.378,54.473-72.252,169.058-49.425,240.797
			C6327.018,3415.466,6338.904,3434.694,6354.734,3452.814z" style="stroke:black;fill:#ff7aff"/><path id="180639019" parent_id="180639010" order="80" structure_id="874" d="M6673.725,3391.323
			c21.854,29.496,59.127,47.967,97.677,35.798c97.642-30.819,182.065-310.908,36.39-292.045
			c-66.861,8.664-142.127,124.018-152.684,186.263C6650.99,3345.624,6658.723,3371.073,6673.725,3391.323z" style="stroke:black;fill:#ff7aff"/><path id="180639021" parent_id="180639010" order="81" structure_id="246" d="M6599.402,3850.506
			c41.43-89.181,70.025-302.277-91.937-282.365c-106.856,13.139-189.198,124.172-234.002,211.644
			c-36.931,72.094-177.474,321.534-130.626,406.429c35.443,64.228,160.077,17.379,206.534-13.105
			C6470.064,4093.908,6544.016,3969.725,6599.402,3850.506z" style="stroke:black;fill:#ff90ff"/><path id="180639022" parent_id="180639010" order="82" structure_id="128" d="M6504.625,2898.208
			c-121.502,19.082-285.963,17.127-326-126.306c-6.932-24.844-8.882-51.651-6.826-78.988c0.532-7.074-25.361-35.539-53.121-38.232
			c-27.754-2.691-57.373,20.388-64.311,28.978c-100.983,125.019-173.211,297.924-323.852,373.12
			c-13.777,6.876-24.656,9.268-34.283,8.605c-13.18-0.907-62.18-10.934-62.18-10.934l-114.621,23.813
			c0,0-18.877,6.436-28.371,15.771c-9.256,9.098-9.125,21.065-9.873,23.792c-6.527,23.782-26.441,46.01-20.172,71.079
			c4.181,16.72,22.58,28.911,27.021,45.198c12.046,44.181-63.503,110.292-125.191,194.494
			c-50.883,69.451-113.205,159.938-133.984,183.789c-38.078,43.702-72.775,91.109-116.839,129.19
			c-19.701,17.026-66.458,37.971-50.437,69.501c16.217,31.911,115.379,32.213,145.431,39.895
			c59.239,15.141,117.416,36.425,171.461,65.147c37.56,19.963,159.702,7.493,172.965-6.114
			c71.467-73.331,196.196-86.738,290.625-112.676c89.692-24.645,184.298-18.6,235.674,44.189
			c5.703,6.972,43.042,31.313,79.508,30.93c41.103-0.435,81.735-26.6,86.908-36.578c12.088-23.324,22.472-42.741,29.308-56.084
			c35.572-69.45,94.811-153.755,171.193-192.12c5.74-2.883,29.004-18.508,30.165-35.18c1.437-20.624-20.271-42.804-23.567-43.908
			c-41.438-13.879-78.106-34.679-96.521-55.761c-15.829-18.121-27.717-37.351-33.393-55.194
			c-22.828-71.739-6.953-186.324,49.424-240.797c28.012-27.065,69.979-24.978,108.813-10.217
			c26.503,10.073,94.659-35.841,95.53-109.882C6576.63,2907.739,6518.139,2896.086,6504.625,2898.208z" style="stroke:black;fill:#ff90ff"/><path id="180639024" parent_id="180639010" order="83" structure_id="26" d="M6095.214,2603.625
			c-51.212-270.871-325.442-534.415-541.991-669.417c-186.906-116.519-374.753-175.856-625.553-185.958
			c-52.621-2.119-103.371-8.637-156.135-8.782c-17.548-0.048-35.225,2.2-52.742,3.065l7.604,177.096
			c125.194,0.191,290.648,56.737,403.973,111.316c43.537,20.97,85.13,44.807,125.734,70.184c-0.42-2.605-0.998-4.621-1.938-5.252
			c-12.629-8.497-58.964-41.413-64.777-54.885c8.024-35.875,214.086,101,283.646,163.717
			c22.57,20.344,220.1,201.975,192.627,210.104c-16.986,5.027-46.195-27.426-78.402-63.193c-2.398-2.665-5.154-4.842-8.187-6.633
			c54.088,63.707,89.729,139.817,76.269,225.066c-22.232,140.771-182.701,357.202-12.914,467.528
			c32.184,20.909,47.638,39.385,88.09,19.196c150.64-75.196,222.867-248.102,323.851-373.121
			c13.877-17.181,27.81-34.28,41.804-51.314L6095.214,2603.625z" style="stroke:black;fill:#ff90ff"/><path id="180639025" parent_id="180639010" order="84" structure_id="42" d="M5473.035,2204.709
			c-69.561-62.717-275.622-199.592-283.646-163.717c5.813,13.472,52.148,46.388,64.777,54.885
			c108.854,73.217,154.495,108.217,262.533,186.243c54.547,39.381,119.784,141.329,148.963,132.692
			C5693.135,2406.684,5495.605,2225.053,5473.035,2204.709z" style="stroke:black;fill:#ff90ff"/><path id="180639026" parent_id="180639010" order="85" structure_id="17" d="M6140.168,2192.761
			c-144.504-170.251-294.781-326.851-481.813-434.147c-161.434-92.612-407.73-122.35-598.599-141.215
			c-89.288-8.789-178.3,14.33-257.687,53.856c-16.75,8.341-59.816,31.847-84.102,52.062l0.825,19.218
			c17.517-0.865,35.194-3.113,52.742-3.065c52.765,0.146,103.515,6.663,156.135,8.782c250.8,10.102,438.647,69.439,625.553,185.958
			c216.549,135.002,490.778,398.545,541.991,669.417l0.956,28.718c38.201-46.502,76.894-92.473,116.426-137.965
			c45.535-52.393,103.155-88.679,158.569-129.334l-6.726-2.484C6267.357,2330.592,6210.438,2275.549,6140.168,2192.761z" style="stroke:black;fill:#ff90ff"/><path id="180639027" parent_id="180639010" order="86" structure_id="10" d="M6470.123,2112.015
			c-56.91-67.987-69.564-138.016-86.669-222.436c-24.176-119.291-106.103-197.968-203.872-265.188
			c-141.688-97.42-304.732-173.649-454.329-259.361c-112.362-64.384-283.92-148.512-414.452-155.392
			c-120.781-6.367-237.4,111.608-317.384,190.842c-14.204,14.071-147.843,118.772-193.37,131.119
			c-13.131,3.563-33.941,13.086-44.061,2.373c-17.285-18.302-23.871-32.553,9.15-54.566c-18,2-45.836,3.523-57.529,2.594
			l10.359,241.315c24.285-20.216,67.352-43.72,84.102-52.062c79.387-39.527,168.398-62.646,257.687-53.857
			c190.868,18.866,437.166,48.604,598.599,141.216c187.031,107.297,337.31,263.896,481.813,434.147
			c70.27,82.788,127.189,137.831,224.271,169.798l6.727,2.485c8.577-6.293,17.104-12.688,25.521-19.267
			c39.043-30.514,127.002-66.234,120.392-128.194c-3.003-28.109-17.179-52.216-19.878-79.824
			C6487.619,2130.907,6478.426,2121.934,6470.123,2112.015z" style="stroke:black;fill:#ff90ff"/><path id="180639023" parent_id="180639010" order="87" structure_id="795" d="M5362.104,2203.646
			c-198.322-145.506-384.68-233.709-634.963-266.661l22.088,514.502c3.93-0.814,9.824,1.954,11.235,34.874
			c1.909,44.425,8.293,63.625,14.205,71.719c5.916,8.09,57.804,50.374,59.114,80.916c1.311,30.546-43.388,90.886-53.545,113.579
			c-7.182,16.031-0.106,45.578-4.186,62.3c-0.887,3.633-3.564,9.264-2.936,14.176c0.461,3.602,3.963,7.077,4.912,7.791
			c84.828,63.748,162.945,163.252,179.213,268.168c13.201,85.164-6.121,169.957-32.931,252.092
			c-14.442,44.249,10.106,30.451,23.478,26.018c40.213-13.34,135.166,6.51,147.815,42.996c2.108,6.083,12.909,12.04,20.903,6.396
			c41.885-29.564,82.517-62.563,152.975-115.348c86.493-64.798,194.602-100.656,215.6-216.517
			c18.875-104.101,43.082-216.679,63.541-320.87c15.942-81.213,60.979-143.648,74.386-224.736
			C5649.45,2395.174,5474.318,2285.975,5362.104,2203.646z" style="stroke:black;fill:#ff90ff"/><path id="180639016" parent_id="180639010" order="88" structure_id="35" d="M4947.79,3383.12c46.917-15.563,168.345,14.05,146.646,62.554
			c-7.617,17.019-142.469,83.314-146.996,75.163C4925.585,3481.448,4898.268,3399.539,4947.79,3383.12z" style="stroke:black;fill:#ff90ff"/><path id="180639017" parent_id="180639010" order="89" structure_id="1052" d="M6114.495,3935.163
			c-17.853-147.835-149.735-171.546-272.427-137.836c-94.428,25.938-219.158,39.345-290.625,112.676
			c-106.102,108.86-1.034,188.192,114.973,207.278c147.338,24.248,237.49,230.18,358.492,120.92
			C6088.708,4180.589,6126.615,4035.515,6114.495,3935.163z" style="stroke:black;fill:#ffa6ff"/><path id="180639020" parent_id="180639010" order="90" structure_id="872" d="M4765.366,2827.625
			c89.591,63.107,174.802,167.268,191.877,277.385c20.515,132.348-37.517,263.796-80.122,385.771
			c-25.156,72.02-18.052,158.896,16.468,227.167c8.22,16.285,27.998,35.929,21.036,55.495
			c-6.404,18.034-28.796,46.037-45.605,54.168c-18.153,8.776-42.846,5.121-61.432-1.527c2.479,0.195-5.379-84.096-2.938-83.587
			L4765.366,2827.625z" style="stroke:black;fill:#ffa6ff"/><path id="180639031" parent_id="180639010" order="91" structure_id="771" d="M6969.674,4569.71
			c-40.146-92.86-16.477-273.506-23.967-378.129c-6.979-97.448-17.629-295.063-39.598-389.715
			c-23.996-103.336-49.363-182.032-53.313-264.769l3.985-41.893c-15.549-23.324-59.668-19.059-108.607,29.695
			c-89.521,89.188-113.873,301.45-178.549,408.183c-29.744,49.054-82.882,147.83-152.395,209.685
			c-63.959,56.912-145.299,78.938-156.945,82.865c-86.195,29.082-164.348,111.067-261.688,95.76
			c-117.088-18.414-166.771-117.658-260.696-157.476c-70.935-30.065-239.481-68.824-311.196-25.921
			c-107.25,64.216-322.476,88.18-390.5,105.787c-73.278,18.964-130.256,108.723-205.467,106.381l91.013,2120.042
			c116.742-2.229,269.198,65.462,410.308,41.079c127.914-22.1,268.334-94.389,401.5-149.842
			c297.896-124.063,422.771-203.068,591.621-345.307c224.69-189.287,671.194-581.271,692.973-900.442
			c6.811-100.474,0.036-164.502,4.979-272.874C7027.27,4751.954,7012.35,4668.408,6969.674,4569.71z" style="stroke:black;fill:#ff9b88"/><path id="180639034" parent_id="180639010" order="92" structure_id="99" d="M6385.574,5087.428c3.754-20.348,8.387-40.496,14.025-60.399
			c31.795-112.126,102.789-210.198,99.781-331.407c-2.582-104.427,5.436-147.622,23.942-252.091
			c28.882-163.044,21.366-281.542,98.878-424.214c46.836-86.2,128.484-425.721,197.305-168.089l6.201,24.979
			c60.106,260.201,2.166,547.667-50.658,804.396c-40.492,196.791-139.424,362.841-197.275,553.403
			c-41.404,136.386-2.154,351.812-120.563,455.199c-36.467,31.83-76.233-222.158-78.136-249.119
			C6370.967,5324.473,6364.273,5202.852,6385.574,5087.428z" style="stroke:black;fill:#ffae6f"/><path id="180639036" parent_id="180639010" order="93" structure_id="122" d="M6417.464,5800.126
			c-21.903,29.699-50.138,51.563-78.217,74.41c-28.522,23.237-49.313,54.782-69.646,85.021c-21.513,32-43.342,103.021-94.733,95.56
			c-8.103-1.177,15.104-69.834,17.44-76.097c16.158-43.17,30.164-92.551,16.854-138.035
			c-11.358-38.842-219.423-61.512-219.618-112.942c-0.159-43.966,4.4-76.972,23.193-120.64
			c63.215-146.91,138.138-103.809,257.232-70.334c30.566,8.59,61.838,26.304,83.293,51.428
			c34.834,40.798,87.186,104.818,83.253,162.242C6435.198,5769.958,6427.907,5785.962,6417.464,5800.126z" style="stroke:black;fill:#ffae6f"/><path id="180639035" parent_id="180639010" order="94" structure_id="574" d="M4875.993,5355.755
			c59.603-2.558,101.801-25.962,156.271-48.19c93.06-37.965,169.403-58.977,267.061-27.863
			c64.871,20.693,90.238,58.613,133.361,105.327c39.363,42.634,94.33,67.103,143.314,96.397
			c33.038,19.763,47.157,60.557,70.078,89.58c11.484,14.529,23.219,24.756,39.193,33.379c17.642,9.522,32.396,25.604,49.986,34.744
			c12.254,6.359,28.043,9.67,41.38,12.846c19.424,4.607,39.707,7.577,59.578,9.43c37.745,17.637,53.126,50.133-13.459,121.059
			c-70.233,74.805-204.8,138.148-402.935,188.384c-100.438,25.458-160.858,92.444-248.684,87.87
			c-88.375-4.602-178.977-15.504-217.111-134.682c-27.24-85.162-14.791-220.172-19.582-309.82
			c-5.777-108.186,55.699-223.588-56.754-218.76L4875.993,5355.755z" style="stroke:black;fill:#ffba86"/><path id="180639033" parent_id="180639010" order="95" structure_id="137" d="M5166.288,4520.545
			c-37.196-91.029-131.638-129.633-225.638-149.918c13.707,50.509,28.746,96.838,37.054,149.218
			c8.546,53.862,22.384,107.437,25.739,161.946c3.646,59.451-22.742,101.832-26.892,158.057
			c-12.124,164.327,92.339,329.188-50.472,467.857l-7.209,8.668c65.051-27.084,114.576-78.64,146.775-145.484
			c54.335-112.741,18.915-224.162,58.809-332.16C5155.861,4753.721,5204.289,4613.491,5166.288,4520.545z" style="stroke:black;fill:#ffc395"/><path id="180639032" parent_id="180639010" order="96" structure_id="130" d="M4976.553,4839.848
			c4.148-56.224,30.539-98.604,26.892-158.057c-3.354-54.51-17.192-108.084-25.739-161.945
			c-8.308-52.381-23.347-98.709-37.053-149.219c-39.462-8.516-74.876-15.881-109.914-20.463l43.656,980.289
			c15.545-3.479,30.375-8.207,44.479-14.078l7.209-8.668C5068.893,5169.036,4964.43,5004.175,4976.553,4839.848z" style="stroke:black;fill:#ffc395"/><path id="180639037" parent_id="180639010" order="97" structure_id="146" d="M5205.063,5275.012
			c33.264-2.193,67.65,1.262,105.348,12.295c65.342,19.152,91.6,56.463,135.814,102.144c40.36,41.69,95.892,64.853,145.555,92.981
			c33.497,18.976,48.576,59.424,72.18,87.896c5.912,7.127,11.86,13.176,18.354,18.477c3.246,2.648,21.612,14.402,37.72,13.721
			c16.109-0.684,29.961-13.805,35.431-17.434c0,0,80.917-55.147,116.054-45.338c16.646,4.643,32.086,13.338,46.164,24.512
			c45.459,36.084,135.553-13.184,147.416-28.725c28.447-37.267,60.778-46.285,99.174-42.812c15.125,1.368,51.74-24.657,50.143-42.72
			c-16.884-191.064,140.719-378.285,119.586-535.775c-9.557-71.217-31.104-129.076-47.941-196.667
			c-10.674-42.864-62.908-67.763-77.598-109.522c-14.538-41.387-23.163-90.389-12.588-133.805
			c3.525-14.473,9.506-53.695-5.746-65.466c-36.986-28.542-104.639-70.774-104.639-70.774s-84.217-23.35-98.664-25.271
			c-117.492-15.641-169.506-113.682-264.351-151.266c-71.624-28.381-241.043-63.142-311.722-18.554
			c-24.84,15.683-55.694,29.283-89.238,41.164c-29.654,10.506-57.868,20.854-88.586,28.96
			c-38.02,10.032-90.796,27.889-116.453,60.021c-22.023,27.576-10.186,75.138-11.093,108.72
			c-1.716,63.383,20.793,121.54,86.968,140.353c-4.043-1.15,14.294-143.463,17.54-156.513c8.825-35.489,34.476-65.021,74.194-63.668
			c27.144,0.925,55.457,20.159,75.203,62.599c35.625,76.567,5.711,183.017-10.854,260.181
			c-18.806,87.653-32.405,283.771-95.2,350.407c-12.509,13.271-34.172,41.788-34.172,41.788l-41.398,218.041
			c0,0-2.178,19.075,3.164,29.188C5186.168,5274.262,5199.029,5275.41,5205.063,5275.012z" style="stroke:black;fill:#ffc395"/><path id="180639111" parent_id="180639010" order="98" structure_id="1009" d="M8363.981,2552.128
			c8.225,12.75,16.041,25.685,23.443,38.719c33.926,59.3,59.298,121.554,70.859,186.736c14.89,84.402,15.239,166.424,6.831,250.491
			c-9.518,97.134-30.684,197.021-53.857,306.509c-5.486,25.772-40.927,154.731-84.968,188.335
			c-7.841,5.928-15.977,8.865-24.209,7.632c-3.443-0.52-6.652-1.383-9.632-2.758c-0.424-0.149-0.765-0.301-1.104-0.453
			c-1.108-0.537-2.133-1.077-3.074-1.621c-0.601-0.392-1.202-0.782-1.803-1.175c-0.771-0.467-1.463-1.021-2.15-1.493
			c-0.174-0.159-0.261-0.239-0.344-0.235c-0.691-0.555-1.3-1.112-1.908-1.67c0,0,0,0,0.004,0.082
			c-30.455-27.067-29.09-106.075-16.858-186.635c21.66-142.805,33.714-289.704,26.71-429.524
			c-9.603-194.54-78.941-340.032-197.159-479.084c-79.896-93.963-214.696-141.087-345.151-166.7
			c-61.021-11.985-143.133-29.324-201.625-30.986c-171.711-4.896-200.744,16.713-325.502-142.506
			c-127.939-163.339-314.752-483.05-384.611-555.161c-64.884-66.983-209.887-174.843-295.083-256.227
			c-25.411-24.28-45.464-46.202-56.493-64.006c-9.593-15.444-12.375-27.761-5.877-35.801c5.391-6.656,27.664-1.021,61.57,13.13
			l0.086,0.08c20.903,8.7,46.205,20.718,74.697,35.101c75.583,38.231,173.348,93.54,270.162,150.056l0.003,0.083
			c135.592,79.137,269.121,160.783,336.633,201.532c126.198,76.119,169.522,101.632,233.615,144.364
			c60.83,40.618,125.679,85.404,187.948,130.385l0.003,0.083c30.744,22.131,60.825,44.375,89.64,66.255
			c121.379,92.182,239.281,196.698,348.679,307.17c61.845,62.274,120.843,126.339,176.289,191.224
			C8297.353,2458.096,8333.212,2504.126,8363.981,2552.128z" style="stroke:black;fill:#cccccc"/><path id="180639112" parent_id="180639010" order="99" structure_id="1009" d="M4830.025,4333.514
			c75.207,2.336,132.185-87.426,205.463-106.395c68.029-17.604,283.252-41.57,390.479-105.773
			c60.405-36.17,101.663-83.144,44.022-140.983c-70.896-71.132-237.22-138.165-384.785-150.396
			c-110.754-9.186-210.336,12.935-276.274,12.223L4830.025,4333.514z" style="stroke:black;fill:#cccccc"/><path id="180639113" parent_id="180639010" order="100" structure_id="1009" d="M5362.848,3428.596
			c-50.883,69.451-113.205,159.938-133.983,183.788c-62.526,71.759-149.117,196.597-242.755,177.331
			c-74.536-15.336-115.082-91.904-102.501-170.066c12.638-78.526,84.588-100.572,141.365-128.61
			c161.868-79.922,431.746-371.179,463.054-256.983C5500.143,3278.232,5424.561,3344.362,5362.848,3428.596z" style="stroke:black;fill:#cccccc"/><path id="180639114" parent_id="180639010" order="101" structure_id="1009" d="M5370.014,4358.352
			c-44.703-102.342-141.293-73.778-155.944,22.359c-19.563,128.443-3.745,281.766-6.131,412.855
			c-0.867,48.053-25.901,241.013,41.606,172.692c64.354-65.132,82.59-260.872,103.463-348.058
			C5371.395,4541.451,5403.816,4435.741,5370.014,4358.352z" style="stroke:black;fill:#cccccc"/><path id="180639115" parent_id="180639010" order="102" structure_id="1009" d="M6784.445,2347.431
			c34.494,72.696,66.58,178.972,71.652,192.235c49.132,128.667,64.635,292.893,66.467,454.781l-3.102,16.802
			c-85.457,58.239-100.092,23.776-119.476-60.438c-35.416-153.875-43.839-313.818-104.908-461.002
			c-23.833-57.444-341.063-481.377-139.92-447.696c0,0,90.021,87.938,125.603,139.269
			C6699.932,2209.025,6744.186,2262.586,6784.445,2347.431z" style="stroke:black;fill:#cccccc"/><path id="180639116" parent_id="180639010" order="103" structure_id="1009" d="M6368.482,5858.486
			c-91.908,62.367-116.192,164.182-163.109,190.049c-79.413,43.791,33.795-104.943,3.79-207.552
			c-11.366-38.867-219.708-61.54-219.614-113.05c0.045-25.416-50.531-156.779-135.246-182.587
			c-34.895-10.638-117.092,42.581-117.092,42.581c-88.879,55.973,99.008,73.475,99.008,73.475
			c37.744,17.637,53.125,50.133-13.459,121.059c-70.233,74.805-204.801,138.148-402.936,188.384
			c-100.438,25.458-160.857,92.444-248.684,87.87c-88.375-4.602-178.976-15.504-217.11-134.682
			c-27.241-85.162-14.791-220.172-19.583-309.82c-5.777-108.186,53.623-223.498-58.833-218.674l46.135,1074.667
			c116.742-2.229,269.198,65.462,410.308,41.079c127.914-22.1,268.334-94.389,401.5-149.842
			c297.896-124.063,422.771-203.068,591.621-345.307c224.69-189.287,671.194-581.271,692.973-900.442
			c6.811-100.474,0.036-164.502,4.979-272.874c4.142-90.866-10.779-174.412-53.455-273.109
			c-40.146-92.861-16.477-273.506-23.967-378.129c-11.94-166.709-30.66-365.382-39.598-389.716
			c-70.88-193.073-14.236-437.489-158.654-293.625c-89.52,89.188-113.873,301.45-178.549,408.179
			c-61.279,101.129-123.862,201.437-184.306,303.078c-22.474,37.785-26.3,104.83-49.804,141.707
			c-27.457,43.086-84.019,44.201-112.594,85.961c-34.333,50.166-27.091,119.08-9.016,174.705
			c13.696,42.097,65.328,68.222,74.984,111.328c15.234,67.969,35.407,126.321,43.277,197.744
			c17.399,157.946-144.586,341.389-132.227,532.797c1.195,18.467,5.98,34.035,13.175,46.533c3.588,6.233,8.961,8.043,13.601,12.728
			l29.03,8.813l14.054,2.396c43.297,8.358,96.035,15.662,99.605-59.623c7.711-162.324,8.77-367.583,13.977-387.276
			c40.494-152.932,119.857-264.187,116.715-391.688c-2.582-104.427,5.789-139.289,24.297-243.761
			c28.885-163.045,21.013-289.873,98.523-432.545c46.836-86.199,128.484-425.721,197.305-168.089l6.201,24.98
			c60.106,260.2,2.166,547.667-50.658,804.395c-40.492,196.8-139.433,362.856-197.28,553.437
			c-38.29,126.172-21.183,241.429-63.886,366.446c-21.748,63.658-43.248,110.353-97.894,198.241L6368.482,5858.486z" style="stroke:black;fill:#cccccc"/><path id="180639117" parent_id="180639010" order="104" structure_id="1009" d="M6472.031,1906.133
			c-55.156-94.694-120.639-176.591-192.612-254.313l-0.248-0.02c-20.124-4.276-36.463-0.499-43.431,14.32
			c71.932,58.419,128.35,127.91,147.713,223.456c7.445,36.747,15.612,176.104,83.842,163.387
			C6528.486,2041.563,6490.975,1938.654,6472.031,1906.133z" style="stroke:black;fill:#cccccc"/><path id="180639110" parent_id="180639010" order="105" structure_id="140" d="M4780.238,2752.575
			c10.158-22.693,54.855-83.033,53.545-113.579c-1.312-30.542-53.199-72.826-59.114-80.916
			c-5.912-8.094-12.295-27.293-14.205-71.719c-1.413-32.925-7.308-35.688-11.237-34.875l16.119,375.418
			C4787.48,2822.32,4770.354,2774.643,4780.238,2752.575z" style="stroke:black;fill:#aaaaaa"/></g>
</g>
</svg>